<?xml version="1.0" encoding="utf-8" ?><svg version="1.1" xmlns = 'http://www.w3.org/2000/svg'><defs><font id='web' horiz-adv-x="1000">
<font-face font-family="web" descent="-516" cap-height="1475" units-per-em="2048" bbox="-483,-604,3535,1927" x-height="977" ascent="1532" />
<missing-glyph horiz-adv-x="410" d="" /><glyph horiz-adv-x="410" d="" unicode=" " />
<glyph horiz-adv-x="676" d="M 227 336 C 238 376 250 421 263 470 C 275 518 288 569 301 622 C 314 674 327 728 340 783 C 353 837 366 891 378 943 C 390 995 402 1044 413 1091 C 424 1138 434 1180 443 1218 C 451 1256 459 1288 465 1314 C 471 1340 476 1358 479 1368 C 486 1392 496 1412 508 1428 C 520 1444 534 1456 549 1465 C 563 1474 579 1480 595 1484 C 611 1487 627 1489 643 1489 C 655 1489 667 1486 680 1482 C 692 1477 704 1470 714 1461 C 724 1451 732 1439 738 1425 C 744 1410 748 1392 748 1372 C 748 1360 747 1349 746 1340 C 744 1331 741 1320 737 1308 C 732 1296 726 1281 718 1263 C 710 1245 699 1221 686 1192 C 676 1170 661 1139 641 1101 C 621 1063 599 1019 574 971 C 548 923 521 871 492 816 C 463 760 434 704 405 648 C 376 592 348 536 321 482 C 293 427 269 376 248 330 L 227 336 Z M 170 -6 C 149 -6 130 -2 114 4 C 98 11 84 21 72 33 C 60 45 52 59 46 75 C 40 91 37 108 37 127 C 37 145 40 163 47 180 C 54 196 64 211 76 224 C 88 236 102 246 118 254 C 134 262 151 266 170 266 C 188 266 206 262 222 255 C 238 248 253 239 265 227 C 277 215 287 201 294 185 C 301 169 305 151 305 133 C 305 113 301 95 294 78 C 287 61 277 46 265 34 C 253 21 238 11 222 4 C 206 -2 188 -6 170 -6 Z" unicode="!" />
<glyph horiz-adv-x="795" d="M 651 864 C 660 932 667 995 671 1051 C 675 1107 679 1157 681 1199 C 683 1241 685 1277 687 1305 C 689 1333 692 1354 696 1366 C 706 1396 718 1419 732 1435 C 746 1451 761 1463 777 1471 C 792 1479 807 1483 821 1485 C 835 1486 848 1487 858 1487 C 868 1487 879 1484 891 1479 C 903 1474 913 1466 923 1454 C 932 1442 940 1427 946 1409 C 952 1391 956 1369 956 1343 C 956 1337 955 1332 955 1328 C 955 1323 954 1318 952 1313 C 947 1300 936 1281 919 1255 C 901 1229 880 1197 854 1159 C 828 1121 800 1076 769 1026 C 737 975 706 918 674 856 L 651 864 Z M 313 864 C 322 932 329 995 333 1051 C 337 1107 341 1157 343 1199 C 345 1241 347 1277 349 1305 C 351 1333 354 1354 358 1366 C 368 1396 380 1419 394 1435 C 408 1451 423 1463 439 1471 C 454 1479 469 1483 483 1485 C 497 1486 510 1487 520 1487 C 530 1487 541 1484 553 1479 C 565 1474 575 1466 585 1454 C 594 1442 602 1427 608 1409 C 614 1391 618 1369 618 1343 C 618 1337 617 1332 617 1328 C 617 1323 616 1318 614 1313 C 609 1300 598 1281 581 1255 C 563 1229 542 1197 516 1159 C 490 1121 462 1076 431 1026 C 399 975 368 918 336 856 L 313 864 Z" unicode="&#x22;" />
<glyph horiz-adv-x="1331" d="M 317 -49 L 449 322 L 201 322 L 274 502 L 514 502 L 590 721 L 330 721 L 401 903 L 655 903 L 793 1286 L 838 1274 L 709 903 L 915 903 L 1053 1286 L 1098 1274 L 965 903 L 1214 903 L 1141 721 L 897 721 L 823 502 L 1085 502 L 1012 322 L 758 322 L 623 -61 L 578 -49 L 709 322 L 498 322 L 362 -61 L 317 -49 Z M 778 502 L 854 721 L 635 721 L 555 502 L 778 502 Z" unicode="#" />
<glyph horiz-adv-x="981" d="M 199 61 C 173 69 146 80 118 93 C 90 106 64 121 40 139 C 16 157 -2 177 -18 200 C -33 222 -41 248 -41 276 C -40 290 -37 304 -33 318 C -29 332 -22 345 -14 357 C -5 369 5 378 19 386 C 32 393 48 397 66 397 C 85 397 101 393 113 385 C 125 377 134 367 141 354 C 148 341 153 326 157 309 C 160 291 162 273 164 254 C 166 224 173 199 186 180 C 199 161 211 148 221 141 L 406 698 C 378 722 353 745 332 768 C 310 790 292 813 278 837 C 264 861 253 886 246 912 C 239 938 236 966 238 997 C 239 1052 250 1102 272 1146 C 294 1190 322 1228 358 1260 C 394 1292 435 1319 481 1339 C 527 1359 576 1374 627 1384 L 682 1552 L 727 1552 L 674 1389 C 690 1389 710 1388 733 1387 C 755 1385 776 1383 795 1380 L 848 1552 L 893 1552 L 836 1372 C 862 1364 887 1354 911 1342 C 935 1330 955 1316 973 1301 C 991 1285 1005 1268 1015 1250 C 1025 1232 1030 1212 1030 1192 C 1030 1180 1028 1168 1026 1156 C 1023 1144 1018 1133 1012 1124 C 1006 1115 997 1108 986 1102 C 974 1096 960 1094 944 1094 C 919 1094 898 1103 882 1121 C 865 1139 854 1164 848 1196 C 844 1216 837 1233 828 1247 C 818 1260 810 1270 803 1276 L 649 795 C 676 771 701 747 723 724 C 745 700 764 676 780 651 C 796 625 808 598 816 570 C 824 542 827 511 827 477 C 825 430 816 383 798 337 C 780 291 753 248 718 209 C 683 169 639 135 587 107 C 535 78 474 59 406 49 L 332 -176 L 287 -176 L 358 45 C 340 43 319 43 297 45 C 275 47 255 49 238 51 L 166 -176 L 121 -176 L 199 61 Z M 539 592 C 528 600 513 611 494 626 C 474 640 456 655 440 670 L 258 117 C 272 106 289 98 309 93 C 329 88 349 85 371 84 L 539 592 Z M 770 1300 C 756 1313 739 1322 717 1328 C 695 1334 675 1337 657 1339 L 518 905 C 531 891 547 878 565 864 C 583 850 600 836 614 823 L 770 1300 Z M 416 86 C 453 90 486 102 515 122 C 544 142 569 165 589 193 C 609 220 624 249 635 281 C 645 312 651 342 651 371 C 651 393 649 414 645 433 C 641 451 635 468 628 484 C 621 499 613 513 603 527 C 593 540 583 553 571 565 L 416 86 Z M 614 1341 C 588 1338 563 1330 539 1318 C 514 1305 492 1288 473 1268 C 454 1247 439 1223 427 1195 C 415 1167 410 1136 410 1104 C 410 1084 411 1067 415 1051 C 418 1035 423 1021 430 1008 C 436 994 444 982 453 970 C 462 958 473 946 485 934 L 614 1341 Z" unicode="$" />
<glyph horiz-adv-x="1364" d="M 809 -12 C 783 -12 759 -8 737 0 C 714 7 694 18 677 34 C 660 50 647 70 637 94 C 627 118 623 146 623 180 C 623 218 628 258 640 298 C 652 338 668 377 689 415 C 710 453 735 489 765 524 C 795 558 828 590 864 618 C 894 643 925 663 958 677 C 991 691 1023 698 1053 698 C 1079 698 1104 693 1126 684 C 1148 675 1167 662 1183 646 C 1199 629 1211 608 1220 584 C 1228 560 1233 532 1233 502 C 1233 462 1226 422 1214 382 C 1202 341 1185 301 1163 263 C 1141 224 1114 187 1084 153 C 1053 119 1019 89 983 63 C 954 41 925 23 897 9 C 869 -4 839 -12 809 -12 Z M 879 43 C 902 43 924 52 945 71 C 966 90 985 120 1001 162 C 1009 180 1017 203 1025 230 C 1033 256 1039 284 1045 314 C 1050 344 1054 374 1058 405 C 1061 435 1063 464 1063 492 C 1063 546 1056 584 1043 608 C 1030 631 1009 643 979 643 C 952 643 929 634 910 617 C 891 599 872 568 854 524 C 845 503 837 479 830 453 C 822 426 816 398 810 369 C 804 340 800 311 797 281 C 794 251 793 223 793 197 C 793 141 800 101 815 78 C 830 54 851 43 879 43 Z M 125 14 L 78 49 L 1223 1436 L 1270 1399 L 125 14 Z M 319 772 C 293 772 269 775 247 783 C 224 791 204 802 187 818 C 170 834 157 854 147 878 C 137 902 133 931 133 965 C 133 1003 138 1043 150 1083 C 162 1123 178 1162 199 1200 C 220 1238 245 1274 275 1309 C 305 1343 338 1375 375 1403 C 405 1427 436 1447 469 1461 C 501 1475 533 1483 563 1483 C 617 1483 661 1465 694 1431 C 726 1396 743 1348 743 1286 C 743 1246 737 1206 725 1166 C 713 1125 696 1085 674 1047 C 652 1008 625 971 595 937 C 564 903 530 873 494 848 C 464 826 436 808 408 794 C 380 779 350 772 319 772 Z M 389 827 C 412 827 434 836 455 855 C 476 874 495 904 512 946 C 520 964 528 987 536 1014 C 543 1040 549 1068 555 1098 C 561 1128 565 1158 568 1189 C 571 1219 573 1248 573 1276 C 573 1330 566 1368 553 1392 C 540 1415 519 1427 489 1427 C 475 1427 463 1425 452 1421 C 441 1417 431 1410 421 1401 C 411 1392 401 1380 392 1365 C 382 1350 373 1331 365 1309 C 356 1288 348 1264 340 1238 C 332 1211 326 1183 321 1154 C 315 1124 311 1095 308 1065 C 304 1035 303 1007 303 981 C 303 925 310 886 326 862 C 341 838 362 827 389 827 Z" unicode="%" />
<glyph horiz-adv-x="1741" d="M 801 -8 C 690 -8 591 7 504 38 C 417 68 344 109 284 161 C 224 213 178 272 147 340 C 115 408 100 479 100 553 C 100 601 107 644 122 681 C 137 718 156 750 180 777 C 203 804 229 827 258 845 C 286 863 314 877 341 888 C 368 899 393 907 416 911 C 438 915 455 918 467 918 C 455 933 442 949 426 967 C 410 984 394 1003 379 1025 C 364 1046 351 1070 341 1096 C 331 1122 326 1152 326 1186 C 326 1230 334 1269 352 1305 C 370 1341 394 1371 425 1397 C 456 1423 493 1442 535 1456 C 577 1470 622 1477 670 1477 C 714 1477 753 1470 787 1458 C 820 1446 848 1428 870 1406 C 892 1384 908 1357 919 1327 C 930 1296 936 1263 936 1227 C 936 1207 932 1188 926 1171 C 919 1154 910 1139 898 1127 C 886 1114 872 1104 856 1097 C 840 1090 822 1087 803 1087 C 788 1087 774 1089 761 1095 C 747 1101 735 1108 725 1118 C 715 1127 707 1138 701 1151 C 695 1164 692 1178 692 1192 C 692 1205 694 1218 699 1230 C 703 1242 710 1253 719 1263 C 727 1273 738 1281 750 1287 C 762 1293 775 1296 791 1296 C 808 1296 823 1293 836 1287 C 849 1281 860 1270 868 1255 L 872 1255 C 878 1262 883 1270 886 1279 C 889 1288 891 1296 891 1303 C 891 1319 887 1333 879 1346 C 871 1358 860 1369 846 1377 C 832 1385 816 1392 798 1396 C 779 1400 759 1403 739 1403 C 701 1403 665 1393 632 1375 C 598 1356 569 1331 544 1300 C 519 1269 499 1234 485 1195 C 470 1155 463 1115 463 1075 C 463 1042 465 1012 470 985 C 475 957 486 936 504 920 C 518 920 530 919 542 919 C 553 919 564 918 575 917 C 586 915 597 913 608 911 C 619 908 631 905 645 901 C 657 897 670 890 684 882 C 698 874 710 864 722 852 C 734 840 743 827 751 813 C 758 799 762 784 762 768 C 762 747 754 730 739 716 C 723 702 704 696 682 696 C 664 696 647 703 630 718 C 613 733 597 751 581 771 C 565 791 549 812 535 834 C 520 856 506 873 492 887 C 486 888 481 889 476 890 C 471 890 462 891 449 891 C 425 891 403 883 381 868 C 359 853 340 833 323 807 C 306 781 293 751 283 717 C 273 683 268 646 268 608 C 268 567 274 529 288 495 C 302 460 320 428 344 400 C 368 372 396 347 428 325 C 460 303 495 285 533 270 C 571 255 610 244 652 236 C 694 228 736 225 778 225 C 881 225 971 237 1047 261 C 1123 285 1186 317 1236 359 C 1286 401 1323 449 1347 505 C 1371 560 1384 619 1384 682 C 1384 718 1381 751 1375 781 C 1369 811 1359 838 1345 860 C 1331 882 1312 899 1289 911 C 1266 923 1238 930 1204 930 C 1173 930 1143 926 1115 920 C 1086 914 1061 903 1039 889 C 1017 875 999 856 986 834 C 973 811 967 784 967 752 C 967 737 969 722 973 706 C 977 690 984 676 992 663 C 1000 650 1011 639 1023 631 C 1035 622 1048 618 1063 618 C 1071 618 1078 619 1084 621 C 1090 623 1096 625 1100 627 L 1102 637 C 1078 652 1061 666 1050 679 C 1039 692 1034 709 1034 731 C 1034 766 1045 792 1068 809 C 1091 825 1119 834 1151 834 C 1169 834 1186 830 1201 823 C 1215 816 1227 807 1237 795 C 1246 783 1253 769 1258 754 C 1263 738 1266 723 1266 707 C 1266 685 1261 664 1252 646 C 1243 628 1231 612 1216 599 C 1201 586 1184 576 1164 569 C 1144 562 1122 559 1100 559 C 1073 559 1049 565 1029 578 C 1009 590 992 606 979 626 C 965 646 955 668 948 692 C 941 716 938 739 938 762 C 938 805 950 845 975 883 C 999 920 1039 955 1094 987 C 1137 1011 1182 1030 1229 1043 C 1275 1056 1326 1063 1380 1063 C 1408 1063 1429 1062 1445 1062 C 1461 1062 1474 1062 1486 1062 C 1498 1062 1509 1061 1520 1061 C 1531 1061 1546 1061 1565 1061 C 1588 1061 1615 1062 1646 1066 C 1676 1070 1705 1078 1733 1090 C 1760 1102 1783 1120 1802 1144 C 1821 1168 1831 1199 1831 1239 C 1831 1274 1826 1303 1817 1325 C 1808 1347 1796 1365 1780 1378 C 1764 1390 1746 1399 1726 1404 C 1705 1408 1683 1411 1661 1411 C 1646 1411 1630 1407 1613 1401 C 1596 1394 1584 1387 1577 1380 L 1581 1370 C 1591 1368 1600 1365 1610 1360 C 1619 1354 1627 1348 1635 1340 C 1642 1332 1648 1324 1652 1314 C 1656 1304 1659 1294 1659 1284 C 1659 1242 1646 1211 1621 1191 C 1595 1171 1564 1161 1526 1161 C 1506 1161 1488 1164 1472 1172 C 1456 1179 1442 1189 1431 1202 C 1420 1215 1412 1230 1406 1248 C 1400 1265 1397 1283 1397 1303 C 1397 1327 1403 1350 1417 1370 C 1431 1390 1448 1408 1469 1422 C 1490 1436 1513 1446 1539 1454 C 1564 1462 1588 1466 1612 1466 C 1652 1466 1689 1459 1725 1445 C 1760 1431 1791 1412 1817 1388 C 1843 1363 1864 1333 1880 1299 C 1895 1265 1903 1227 1903 1186 C 1903 1138 1895 1094 1880 1054 C 1865 1014 1844 979 1817 950 C 1789 921 1757 898 1719 882 C 1681 866 1639 858 1593 858 C 1567 858 1544 858 1524 860 C 1504 861 1485 863 1467 867 C 1449 870 1431 874 1414 879 C 1396 884 1378 891 1358 899 L 1354 895 C 1372 873 1388 851 1404 829 C 1420 806 1433 782 1445 757 C 1457 731 1466 704 1473 676 C 1479 648 1483 618 1483 586 C 1483 499 1466 419 1432 347 C 1398 274 1351 211 1291 159 C 1231 106 1159 65 1076 36 C 992 6 901 -8 801 -8 Z" unicode="&#x26;" />
<glyph horiz-adv-x="457" d="M 313 864 C 322 932 329 995 333 1051 C 337 1107 341 1157 343 1199 C 345 1241 347 1277 349 1305 C 351 1333 354 1354 358 1366 C 368 1396 380 1419 394 1435 C 408 1451 423 1463 439 1471 C 454 1479 469 1483 483 1485 C 497 1486 510 1487 520 1487 C 530 1487 541 1484 553 1479 C 565 1474 575 1466 585 1454 C 594 1442 602 1427 608 1409 C 614 1391 618 1369 618 1343 C 618 1337 617 1332 617 1328 C 617 1323 616 1318 614 1313 C 609 1300 598 1281 581 1255 C 563 1229 542 1197 516 1159 C 490 1121 462 1076 431 1026 C 399 975 368 918 336 856 L 313 864 Z" unicode="'" />
<glyph horiz-adv-x="713" d="M 379 -295 C 345 -255 309 -213 273 -167 C 237 -121 203 -72 173 -19 C 142 33 117 90 97 152 C 77 214 68 280 68 352 C 68 450 80 543 104 630 C 128 716 162 797 204 871 C 246 945 296 1014 352 1077 C 408 1139 469 1196 533 1248 C 597 1300 664 1346 733 1387 C 801 1428 869 1464 936 1495 L 954 1462 C 893 1434 832 1400 771 1360 C 709 1320 650 1274 593 1222 C 536 1170 483 1113 433 1051 C 383 988 340 920 303 847 C 266 773 237 695 216 612 C 194 528 184 440 184 348 C 184 276 190 209 203 148 C 215 87 232 31 253 -20 C 274 -71 298 -117 326 -159 C 353 -201 382 -238 412 -272 L 379 -295 Z" unicode="(" />
<glyph horiz-adv-x="713" d="M -182 -262 C -122 -234 -61 -200 0 -160 C 62 -120 121 -74 178 -22 C 235 29 288 86 338 149 C 388 211 431 279 468 353 C 505 426 534 504 556 588 C 577 671 588 759 588 852 C 588 924 581 990 569 1051 C 556 1112 539 1168 518 1220 C 497 1271 473 1318 446 1360 C 418 1402 390 1439 360 1473 L 393 1495 C 427 1455 462 1413 499 1367 C 535 1321 569 1272 599 1219 C 629 1166 655 1109 675 1048 C 695 986 705 920 705 848 C 705 749 692 656 668 570 C 644 483 610 402 568 328 C 526 254 476 185 420 123 C 364 60 303 3 239 -48 C 175 -100 108 -146 39 -187 C -29 -228 -97 -264 -164 -295 L -182 -262 Z" unicode=")" />
<glyph horiz-adv-x="848" d="M 500 809 C 496 837 493 863 491 888 C 488 912 491 939 500 967 C 504 983 511 996 519 1008 C 527 1020 535 1031 545 1042 C 554 1053 563 1064 573 1076 C 583 1088 592 1101 600 1116 L 584 1130 C 568 1124 553 1118 539 1111 C 525 1103 512 1096 500 1088 C 487 1080 474 1073 462 1067 C 449 1061 436 1056 422 1053 C 397 1046 373 1045 349 1050 C 325 1054 299 1061 270 1071 L 266 1085 C 278 1094 288 1102 298 1110 C 308 1118 318 1125 328 1131 C 338 1137 348 1143 359 1147 C 369 1151 381 1155 395 1159 C 409 1161 424 1162 439 1162 C 453 1162 468 1161 484 1159 C 499 1157 514 1154 530 1152 C 546 1149 562 1147 580 1147 L 588 1171 C 574 1181 561 1189 547 1197 C 533 1205 519 1212 505 1220 C 491 1227 479 1235 467 1243 C 455 1251 444 1260 434 1272 C 414 1293 401 1315 394 1337 C 387 1359 381 1383 375 1411 L 385 1423 C 399 1417 411 1412 423 1408 C 435 1404 446 1399 456 1394 C 466 1388 476 1382 486 1374 C 496 1366 506 1357 516 1346 C 529 1330 539 1315 546 1302 C 553 1288 559 1275 564 1263 C 568 1251 573 1238 578 1226 C 583 1213 590 1200 600 1186 L 623 1190 C 624 1206 624 1221 624 1237 C 623 1252 622 1267 622 1281 C 621 1295 621 1310 622 1325 C 623 1339 626 1354 631 1370 C 639 1397 652 1420 669 1438 C 685 1456 703 1476 723 1497 L 739 1491 C 740 1477 742 1463 744 1451 C 746 1439 748 1426 750 1414 C 751 1402 751 1389 750 1377 C 749 1364 746 1351 741 1337 C 737 1323 731 1310 723 1298 C 715 1286 707 1274 697 1262 C 687 1250 678 1237 668 1225 C 658 1212 649 1198 641 1184 L 659 1165 C 674 1171 687 1179 699 1187 C 711 1195 722 1202 734 1210 C 745 1217 757 1224 770 1230 C 783 1236 799 1241 819 1245 C 835 1247 850 1249 863 1249 C 875 1249 887 1249 899 1248 C 910 1246 921 1244 933 1241 C 944 1238 957 1235 971 1233 L 975 1217 C 953 1197 933 1181 914 1169 C 895 1157 871 1147 842 1141 C 824 1137 808 1135 794 1135 C 780 1135 766 1137 752 1139 C 738 1141 723 1144 709 1146 C 694 1148 678 1149 662 1149 L 653 1122 C 667 1112 681 1105 695 1099 C 708 1093 721 1086 734 1080 C 746 1074 758 1067 770 1059 C 782 1051 793 1040 805 1028 C 815 1015 824 1003 831 993 C 837 982 843 971 847 960 C 851 949 855 938 858 926 C 860 914 863 901 866 887 L 856 879 C 828 887 804 897 783 907 C 761 917 742 933 725 954 C 715 965 706 977 699 990 C 692 1003 685 1016 679 1030 C 673 1044 666 1058 660 1072 C 653 1086 645 1100 637 1114 L 614 1112 C 612 1094 611 1078 612 1063 C 613 1047 614 1032 616 1018 C 617 1003 617 988 617 974 C 617 960 614 946 610 932 C 600 905 587 882 570 863 C 553 843 534 823 514 803 L 500 809 Z" unicode="*" />
<glyph horiz-adv-x="1434" d="M 696 698 L 276 698 L 276 778 L 696 778 L 696 1198 L 778 1198 L 778 778 L 1198 778 L 1198 698 L 778 698 L 778 276 L 696 276 L 696 698 Z" unicode="+" />
<glyph horiz-adv-x="471" d="M -23 -283 C -36 -283 -49 -282 -62 -281 C -75 -280 -88 -278 -102 -276 L -102 -258 C -46 -253 3 -243 47 -228 C 90 -212 126 -193 156 -171 C 186 -149 208 -124 223 -97 C 238 -70 246 -43 246 -16 C 246 6 242 25 235 39 C 228 53 220 65 211 74 C 197 48 181 29 161 15 C 141 1 120 -6 98 -6 C 84 -6 70 -3 57 1 C 44 6 33 13 23 22 C 13 31 5 42 -1 54 C -7 66 -10 80 -10 96 C -10 114 -6 132 1 150 C 9 168 20 184 34 198 C 48 212 66 223 86 231 C 106 239 129 244 154 244 C 178 244 201 239 223 229 C 244 219 262 205 278 187 C 294 168 306 145 315 118 C 323 90 328 59 328 25 C 328 -33 318 -82 298 -122 C 278 -161 252 -193 220 -217 C 188 -241 150 -258 108 -268 C 66 -278 22 -283 -23 -283 Z" unicode="," />
<glyph horiz-adv-x="647" d="M 104 602 L 604 602 L 545 434 L 45 434 L 104 602 Z" unicode="-" />
<glyph horiz-adv-x="430" d="M 123 -6 C 102 -6 83 -2 67 4 C 51 11 37 21 25 33 C 13 45 5 59 -1 75 C -7 91 -10 108 -10 127 C -10 145 -6 163 0 180 C 7 196 17 211 29 224 C 41 236 55 246 71 254 C 87 262 104 266 123 266 C 141 266 159 262 175 255 C 191 248 206 239 218 227 C 230 215 240 201 247 185 C 254 169 258 151 258 133 C 258 113 254 95 247 78 C 240 61 230 46 218 34 C 206 21 191 11 175 4 C 159 -2 141 -6 123 -6 Z" unicode="." />
<glyph horiz-adv-x="637" d="M -104 -270 L 799 1556 L 856 1532 L -47 -293 L -104 -270 Z" unicode="/" />
<glyph horiz-adv-x="1204" d="M 20 526 C 23 608 36 690 58 770 C 80 850 110 925 147 997 C 184 1068 227 1134 277 1194 C 326 1254 379 1306 436 1350 C 492 1394 551 1428 613 1452 C 674 1476 735 1489 797 1489 C 849 1489 899 1478 947 1456 C 995 1434 1037 1401 1073 1357 C 1109 1313 1137 1258 1157 1193 C 1177 1127 1186 1051 1184 965 C 1181 888 1169 811 1147 733 C 1125 655 1095 579 1059 507 C 1022 435 979 367 931 304 C 882 241 829 186 773 139 C 717 92 658 55 597 28 C 535 1 474 -12 412 -12 C 364 -12 317 0 269 23 C 221 46 179 80 141 126 C 103 171 72 227 49 294 C 26 361 16 438 20 526 Z M 246 334 C 242 288 242 245 246 207 C 250 169 258 136 270 108 C 282 80 298 58 319 43 C 339 27 365 20 395 20 C 433 20 469 30 504 50 C 539 70 573 97 605 133 C 637 168 667 210 695 258 C 723 306 750 357 774 413 C 798 469 821 527 841 589 C 861 650 878 711 893 773 C 908 835 920 896 930 956 C 939 1016 946 1072 950 1126 C 953 1174 953 1218 950 1259 C 946 1299 939 1334 928 1363 C 916 1392 900 1415 880 1431 C 860 1447 835 1456 805 1456 C 763 1456 724 1445 687 1424 C 650 1402 615 1373 583 1336 C 550 1298 519 1254 491 1204 C 462 1153 436 1099 412 1041 C 388 983 366 923 347 861 C 328 798 312 736 298 674 C 284 612 272 552 264 494 C 255 436 249 382 246 334 Z" unicode="0" />
<glyph horiz-adv-x="680" d="M -180 0 L -174 23 C -128 24 -88 32 -54 46 C -20 60 2 83 14 115 L 395 1227 C 401 1243 403 1258 402 1272 C 401 1286 394 1297 382 1307 C 369 1316 349 1322 322 1325 C 295 1327 259 1325 213 1317 L 219 1339 L 698 1489 L 719 1489 C 714 1478 709 1465 703 1450 C 697 1436 691 1420 685 1402 C 679 1383 672 1362 664 1339 C 643 1279 621 1215 598 1148 C 575 1081 552 1013 529 945 C 505 876 482 808 459 740 C 435 672 413 608 393 546 C 343 401 294 257 246 113 C 240 95 239 81 244 70 C 248 58 257 49 270 42 C 282 35 298 30 317 28 C 335 25 355 23 377 23 L 371 0 L -180 0 Z" unicode="1" />
<glyph horiz-adv-x="1028" d="M 750 0 L -164 0 L -158 25 C -97 73 -32 124 36 179 C 104 234 172 291 240 351 C 307 410 371 471 433 533 C 494 595 548 659 595 723 C 642 787 680 851 708 915 C 736 979 750 1042 750 1104 C 750 1134 745 1162 737 1188 C 728 1214 715 1236 698 1256 C 681 1275 660 1290 636 1302 C 611 1313 583 1319 551 1319 C 509 1319 470 1312 433 1300 C 396 1287 361 1269 329 1247 C 296 1225 265 1198 237 1167 C 208 1135 182 1101 158 1063 L 133 1083 C 159 1135 190 1186 225 1235 C 260 1284 300 1327 344 1365 C 388 1402 438 1432 492 1455 C 546 1477 606 1489 672 1489 C 726 1489 773 1481 815 1466 C 857 1450 892 1429 920 1403 C 948 1376 970 1345 984 1309 C 998 1273 1006 1234 1006 1194 C 1006 1130 994 1069 972 1013 C 950 956 919 901 881 849 C 842 797 796 746 743 697 C 690 648 633 599 573 551 C 533 519 492 487 452 457 C 411 427 371 397 332 368 C 293 338 256 310 220 282 C 184 254 151 227 121 201 L 629 201 C 668 201 701 205 729 214 C 757 222 781 234 802 249 C 822 263 840 281 855 301 C 869 321 883 342 897 365 L 930 354 L 750 0 Z" unicode="2" />
<glyph horiz-adv-x="901" d="M 780 530 C 780 483 771 437 753 392 C 735 347 709 304 676 264 C 642 223 602 186 555 152 C 508 118 455 88 397 63 C 339 38 276 19 208 5 C 140 -9 70 -16 -4 -16 C -32 -16 -57 -12 -79 -5 C -101 1 -120 11 -134 24 C -148 37 -157 53 -162 71 C -167 89 -167 110 -162 133 C -154 161 -140 185 -118 205 C -96 225 -67 236 -29 238 C -5 238 13 233 27 223 C 40 213 50 200 58 184 C 66 168 71 151 75 133 C 79 114 83 97 87 81 C 91 65 96 51 102 41 C 108 30 118 25 131 25 C 148 25 170 28 197 36 C 223 43 251 54 281 70 C 310 85 339 104 369 127 C 399 150 425 177 449 208 C 473 239 492 274 507 313 C 522 352 530 396 530 444 C 530 480 524 513 513 543 C 501 572 484 597 461 617 C 437 637 408 653 372 663 C 336 673 294 676 246 674 L 174 670 L 172 688 C 229 720 285 752 341 786 C 397 819 446 854 490 892 C 534 930 569 970 596 1014 C 623 1058 637 1107 637 1161 C 637 1189 632 1214 623 1235 C 614 1255 602 1272 586 1285 C 570 1298 552 1308 531 1314 C 510 1320 488 1323 465 1323 C 409 1323 356 1309 307 1282 C 257 1254 212 1219 170 1176 L 154 1188 C 174 1226 200 1263 230 1299 C 260 1335 294 1367 332 1395 C 370 1423 413 1445 459 1463 C 505 1480 556 1489 610 1489 C 656 1489 696 1483 732 1472 C 767 1461 796 1446 820 1427 C 843 1407 861 1384 873 1358 C 885 1331 891 1302 891 1270 C 891 1227 880 1185 860 1145 C 840 1104 810 1065 772 1028 C 733 990 686 955 630 922 C 574 889 512 859 442 831 C 489 828 533 820 574 806 C 615 792 651 772 682 747 C 712 722 736 691 754 655 C 771 619 780 577 780 530 Z" unicode="3" />
<glyph horiz-adv-x="1141" d="M 764 383 L 635 0 L 406 0 L 535 383 L -45 383 L -55 408 L 1106 1503 L 1147 1503 L 819 547 L 999 547 L 940 383 L 764 383 Z M 809 1174 L 147 547 L 594 547 L 809 1174 Z" unicode="4" />
<glyph horiz-adv-x="934" d="M 1128 1540 C 1120 1528 1109 1511 1096 1490 C 1082 1468 1067 1444 1050 1417 C 1033 1390 1015 1361 996 1331 C 976 1300 957 1269 938 1237 L 379 1237 L 227 877 C 253 888 282 896 316 901 C 350 906 384 909 420 909 C 483 909 538 900 585 883 C 632 865 671 841 702 811 C 732 780 755 744 770 702 C 785 660 793 614 793 565 C 793 502 782 444 762 390 C 741 336 713 288 678 245 C 643 201 602 163 555 130 C 508 96 458 68 406 46 C 354 23 300 6 245 -5 C 190 -17 137 -23 86 -23 C 42 -23 4 -19 -28 -12 C -60 -4 -87 5 -109 18 C -131 30 -147 45 -158 62 C -168 79 -174 97 -174 117 C -174 133 -171 149 -165 164 C -159 179 -150 192 -139 204 C -128 216 -115 225 -99 232 C -83 238 -65 242 -45 242 C -17 242 4 236 18 225 C 32 214 43 200 50 184 C 57 167 62 149 65 130 C 68 110 72 92 78 76 C 84 59 92 45 104 34 C 115 23 133 18 158 18 C 208 18 256 30 303 54 C 349 78 390 112 426 155 C 462 197 490 247 512 304 C 534 360 545 421 545 487 C 545 529 539 564 527 593 C 515 622 499 646 480 664 C 460 682 439 695 415 703 C 391 711 366 715 342 715 C 283 715 234 704 195 684 C 156 664 123 637 96 604 L 76 608 L 438 1462 L 948 1462 C 970 1462 989 1463 1005 1467 C 1020 1471 1033 1476 1045 1483 C 1057 1490 1067 1499 1077 1510 C 1087 1521 1097 1534 1108 1548 L 1128 1540 Z" unicode="5" />
<glyph horiz-adv-x="1106" d="M 0 379 C 0 444 9 508 28 572 C 46 635 72 696 106 755 C 140 814 180 871 227 925 C 273 979 325 1031 381 1079 C 440 1130 503 1178 571 1222 C 639 1266 708 1305 779 1341 C 850 1376 921 1406 992 1432 C 1063 1457 1132 1477 1198 1491 L 1208 1466 C 1152 1441 1092 1411 1030 1375 C 968 1339 905 1297 843 1249 C 780 1201 718 1148 658 1090 C 598 1032 541 968 489 899 C 513 906 536 912 560 916 C 584 920 611 922 641 922 C 699 922 750 913 795 897 C 840 880 878 856 909 826 C 940 796 964 759 980 717 C 996 675 1004 628 1004 578 C 1004 533 996 488 982 442 C 967 396 946 351 919 307 C 892 263 860 222 822 184 C 784 146 741 112 695 84 C 648 56 597 33 543 17 C 489 0 432 -8 373 -8 C 312 -8 258 1 212 21 C 166 40 127 67 95 101 C 63 135 40 176 24 224 C 8 271 0 323 0 379 Z M 383 25 C 414 25 445 33 475 49 C 505 65 534 87 561 115 C 588 143 613 176 636 214 C 658 252 678 294 695 339 C 711 383 724 430 734 480 C 743 529 748 579 748 629 C 748 663 744 696 738 726 C 731 756 720 783 706 806 C 691 828 672 846 650 859 C 628 872 601 879 569 879 C 559 879 548 877 536 875 C 524 873 512 870 500 866 C 488 862 476 857 466 851 C 456 845 447 838 440 831 C 398 789 363 742 335 692 C 306 642 283 591 265 539 C 247 487 234 435 226 385 C 217 335 212 289 211 248 C 211 175 225 120 255 82 C 284 44 327 25 383 25 Z" unicode="6" />
<glyph horiz-adv-x="967" d="M 1171 1462 C 1165 1455 1153 1437 1133 1409 C 1113 1380 1088 1343 1057 1297 C 1025 1251 989 1197 948 1137 C 906 1076 861 1010 813 940 C 765 869 714 794 661 715 C 607 636 553 556 497 474 C 441 392 385 309 329 226 C 273 142 218 61 164 -18 L 18 -12 C 26 -2 41 17 65 47 C 88 77 117 114 151 158 C 185 202 224 251 268 307 C 311 363 357 422 405 484 C 453 546 502 611 553 678 C 603 744 653 810 703 876 C 753 942 801 1006 847 1068 C 893 1130 936 1187 975 1241 L 451 1241 C 407 1241 369 1235 339 1225 C 309 1214 283 1201 261 1185 C 239 1169 221 1151 207 1133 C 193 1114 180 1097 168 1081 L 139 1092 L 373 1462 L 1171 1462 Z" unicode="7" />
<glyph horiz-adv-x="1028" d="M -47 258 C -47 294 -41 328 -29 360 C -17 392 0 421 20 449 C 40 476 65 501 93 525 C 121 549 152 571 185 591 C 218 611 253 630 289 648 C 325 666 361 682 397 698 C 369 718 343 741 319 765 C 295 789 273 816 255 844 C 237 872 222 903 211 936 C 200 969 195 1005 195 1044 C 195 1090 202 1132 218 1172 C 233 1212 254 1248 280 1281 C 306 1314 338 1343 374 1369 C 410 1395 448 1416 489 1434 C 530 1452 573 1465 617 1475 C 661 1484 706 1489 750 1489 C 810 1489 861 1482 904 1468 C 947 1454 982 1436 1010 1412 C 1038 1388 1058 1361 1071 1330 C 1083 1299 1090 1267 1090 1233 C 1090 1185 1078 1139 1056 1096 C 1034 1053 1003 1013 965 976 C 926 939 881 905 829 874 C 777 843 722 815 664 791 C 688 775 712 757 738 736 C 764 714 787 689 809 661 C 831 633 848 601 862 565 C 876 529 883 490 883 446 C 883 376 867 313 835 257 C 803 201 760 153 706 113 C 652 73 589 42 518 20 C 447 -1 373 -12 295 -12 C 248 -12 204 -6 163 5 C 121 16 85 33 54 55 C 23 77 -1 105 -19 139 C -37 173 -47 212 -47 258 Z M 420 1141 C 420 1102 425 1067 437 1036 C 449 1004 465 975 485 949 C 505 922 529 897 556 874 C 583 850 612 827 643 805 C 687 832 726 863 761 897 C 795 931 825 967 849 1005 C 873 1043 892 1084 905 1126 C 917 1168 924 1212 924 1257 C 924 1283 920 1308 912 1332 C 904 1356 893 1377 877 1395 C 861 1413 842 1427 819 1438 C 796 1448 769 1454 739 1454 C 693 1454 650 1444 611 1426 C 572 1407 538 1383 510 1353 C 482 1323 460 1289 444 1252 C 428 1214 420 1177 420 1141 Z M 131 236 C 131 198 137 166 149 139 C 161 112 176 90 195 73 C 214 55 236 43 260 35 C 284 27 308 23 332 23 C 380 23 424 32 464 52 C 503 71 536 96 564 127 C 591 158 612 193 627 232 C 641 271 649 310 649 350 C 649 383 643 415 632 445 C 621 475 605 504 585 532 C 565 559 540 585 512 610 C 484 635 452 659 418 682 C 324 626 253 560 204 486 C 155 412 131 328 131 236 Z" unicode="8" />
<glyph horiz-adv-x="1139" d="M -61 -4 C -5 20 54 53 117 93 C 180 133 243 178 305 229 C 367 280 426 336 483 396 C 540 456 591 518 637 584 C 613 576 590 571 566 567 C 542 563 515 561 485 561 C 427 561 375 569 331 586 C 286 602 248 626 217 656 C 186 686 163 722 147 764 C 131 806 123 853 123 905 C 123 951 130 998 145 1046 C 159 1093 180 1138 207 1182 C 234 1225 267 1265 305 1303 C 343 1341 385 1373 432 1401 C 478 1429 529 1451 583 1467 C 637 1483 694 1491 754 1491 C 814 1491 867 1481 913 1462 C 959 1442 998 1415 1030 1381 C 1062 1347 1086 1306 1102 1259 C 1118 1211 1126 1160 1126 1104 C 1126 1038 1116 972 1096 908 C 1076 843 1048 780 1013 719 C 977 658 935 599 887 543 C 838 486 785 432 727 382 C 669 331 608 284 544 240 C 479 196 413 157 346 122 C 279 86 212 56 145 31 C 77 5 12 -14 -51 -29 L -61 -4 Z M 379 854 C 379 819 382 786 389 756 C 395 726 406 699 420 677 C 434 654 453 636 475 623 C 497 610 525 604 557 604 C 577 604 600 608 626 617 C 651 625 671 637 686 651 C 727 693 762 739 791 790 C 819 840 842 892 860 944 C 878 996 891 1047 900 1097 C 908 1147 913 1193 915 1235 C 915 1307 900 1362 871 1400 C 841 1438 799 1458 743 1458 C 711 1458 681 1450 651 1434 C 621 1418 592 1396 565 1368 C 538 1340 513 1306 490 1268 C 467 1230 447 1188 431 1144 C 415 1099 402 1052 393 1003 C 383 953 379 904 379 854 Z" unicode="9" />
<glyph horiz-adv-x="512" d="M 338 702 C 317 702 298 705 282 712 C 266 719 252 729 240 741 C 228 753 220 767 214 783 C 208 799 205 817 205 836 C 205 854 208 871 215 888 C 222 905 232 920 244 933 C 256 945 270 955 286 963 C 302 971 319 975 338 975 C 356 975 374 971 390 964 C 406 957 421 948 433 936 C 445 924 455 909 462 893 C 469 877 473 860 473 842 C 473 822 469 804 462 787 C 455 770 445 755 433 743 C 421 730 406 720 390 713 C 374 705 356 702 338 702 Z M 143 -6 C 122 -6 103 -2 87 4 C 71 11 57 21 45 33 C 33 45 25 59 19 75 C 13 91 10 108 10 127 C 10 145 13 163 20 180 C 27 196 37 211 49 224 C 61 236 75 246 91 254 C 107 262 125 266 143 266 C 161 266 179 262 195 255 C 211 248 226 239 238 227 C 250 215 260 201 268 185 C 275 169 279 151 279 133 C 279 113 275 95 268 78 C 260 61 250 46 238 34 C 226 21 211 11 195 4 C 179 -2 161 -6 143 -6 Z" unicode=":" />
<glyph horiz-adv-x="512" d="M 338 702 C 317 702 298 705 282 712 C 266 719 252 729 240 741 C 228 753 220 767 214 783 C 208 799 205 817 205 836 C 205 854 208 871 215 888 C 222 905 232 920 244 933 C 256 945 270 955 286 963 C 302 971 319 975 338 975 C 356 975 374 971 390 964 C 406 957 421 948 433 936 C 445 924 455 909 462 893 C 469 877 473 860 473 842 C 473 822 469 804 462 787 C 455 770 445 755 433 743 C 421 730 406 720 390 713 C 374 705 356 702 338 702 Z M -43 -283 C -71 -283 -97 -280 -123 -276 L -123 -258 C -67 -253 -17 -243 26 -228 C 69 -212 105 -193 135 -171 C 165 -149 187 -124 202 -97 C 217 -70 225 -43 225 -16 C 225 6 221 25 214 39 C 207 53 199 65 190 74 C 176 48 160 29 141 15 C 121 1 100 -6 78 -6 C 64 -6 50 -3 37 1 C 24 6 13 13 3 22 C -7 31 -15 42 -21 54 C -27 66 -31 80 -31 96 C -31 114 -27 132 -19 150 C -11 168 0 184 14 198 C 28 212 46 223 66 231 C 86 239 108 244 133 244 C 157 244 180 239 202 229 C 223 219 241 205 257 187 C 273 168 285 145 294 118 C 302 90 307 59 307 25 C 307 -33 297 -82 277 -122 C 257 -161 231 -193 199 -217 C 167 -241 129 -258 87 -268 C 45 -278 1 -283 -43 -283 Z" unicode=";" />
<glyph horiz-adv-x="1434" d="M 1028 285 L 317 717 L 317 768 L 1028 1196 L 1067 1126 L 432 741 L 1073 352 L 1028 285 Z" unicode="&#x3C;" />
<glyph horiz-adv-x="1434" d="M 317 899 L 1157 899 L 1157 819 L 317 819 L 317 899 Z M 317 666 L 1157 666 L 1157 586 L 317 586 L 317 666 Z" unicode="=" />
<glyph horiz-adv-x="1434" d="M 1001 741 L 367 1126 L 406 1196 L 1116 768 L 1116 717 L 406 285 L 360 352 L 1001 741 Z" unicode="&#x3E;" />
<glyph horiz-adv-x="840" d="M 418 309 C 390 309 362 314 334 326 C 306 338 280 354 257 375 C 234 395 215 420 201 448 C 187 476 180 506 180 539 C 180 598 194 652 224 700 C 254 748 292 789 340 823 C 362 839 390 856 422 873 C 454 889 487 906 521 923 C 555 939 587 956 618 972 C 648 988 674 1004 694 1020 C 712 1035 729 1050 743 1064 C 757 1078 769 1094 779 1110 C 788 1126 795 1144 800 1164 C 804 1184 807 1207 807 1233 C 807 1263 801 1291 790 1317 C 779 1343 763 1366 743 1386 C 723 1405 698 1420 669 1431 C 640 1442 608 1448 573 1448 C 541 1448 512 1442 487 1432 C 462 1421 441 1407 424 1389 C 407 1371 394 1350 386 1327 C 377 1303 373 1279 373 1253 C 373 1223 378 1199 388 1179 C 398 1159 410 1143 424 1131 C 438 1119 452 1110 468 1105 C 483 1100 496 1098 508 1098 C 517 1098 527 1099 537 1102 C 547 1105 557 1110 567 1116 C 553 1121 540 1127 528 1133 C 516 1139 506 1146 497 1154 C 488 1162 481 1172 476 1183 C 471 1194 469 1207 469 1223 C 469 1253 478 1279 496 1301 C 514 1322 539 1333 571 1333 C 587 1333 601 1329 615 1323 C 629 1317 640 1308 650 1298 C 660 1287 667 1274 673 1260 C 679 1246 682 1230 682 1214 C 682 1194 678 1174 670 1156 C 662 1138 651 1122 637 1109 C 623 1095 606 1085 586 1077 C 566 1069 544 1065 520 1065 C 492 1065 466 1070 444 1080 C 422 1090 403 1103 387 1120 C 371 1137 358 1157 350 1179 C 342 1201 338 1225 338 1251 C 338 1283 344 1313 356 1342 C 368 1371 387 1396 411 1418 C 435 1440 464 1457 498 1470 C 532 1482 572 1489 616 1489 C 662 1489 707 1481 751 1465 C 794 1449 832 1426 866 1398 C 900 1369 927 1335 947 1295 C 967 1255 977 1212 977 1165 C 977 1091 960 1026 928 970 C 895 914 850 868 793 831 C 770 817 741 801 707 784 C 672 767 636 750 600 732 C 563 714 528 697 495 680 C 461 663 434 647 414 633 C 394 618 377 605 363 593 C 348 581 336 569 326 557 C 316 545 309 532 304 518 C 299 504 297 489 297 471 C 297 447 301 426 309 410 C 317 393 327 379 339 369 C 351 359 364 351 378 347 C 392 342 406 340 418 340 C 438 340 456 343 471 350 C 486 356 498 365 508 375 C 517 385 524 397 528 409 C 532 421 535 433 535 444 C 535 457 532 469 526 480 C 520 490 514 498 506 502 C 506 496 505 488 505 479 C 504 469 502 460 499 452 C 495 444 490 437 482 431 C 474 425 463 422 449 422 C 427 422 410 427 398 437 C 385 447 379 462 379 483 C 379 491 380 500 383 508 C 386 516 391 524 398 531 C 404 537 413 543 424 547 C 435 551 449 553 465 553 C 477 553 490 550 502 544 C 514 538 525 530 535 520 C 544 510 552 498 558 484 C 564 470 567 456 567 442 C 567 426 563 411 556 395 C 549 379 539 365 527 352 C 514 339 498 329 480 321 C 461 313 440 309 418 309 Z M 252 -8 C 231 -8 212 -4 196 2 C 180 9 166 19 154 31 C 142 43 134 57 128 73 C 122 89 119 106 119 125 C 119 143 122 161 129 178 C 136 194 146 209 158 222 C 170 234 184 244 200 252 C 216 260 233 264 252 264 C 270 264 288 260 304 253 C 320 246 335 237 347 225 C 359 213 369 199 376 183 C 383 167 387 149 387 131 C 387 111 383 93 376 76 C 369 59 359 44 347 32 C 335 19 320 9 304 2 C 288 -4 270 -8 252 -8 Z" unicode="?" />
<glyph horiz-adv-x="1905" d="M 934 -367 C 861 -367 790 -359 722 -345 C 653 -330 588 -309 528 -281 C 468 -253 413 -219 363 -178 C 313 -137 270 -90 234 -38 C 198 13 171 71 151 135 C 131 198 121 266 121 340 C 121 424 132 506 155 586 C 177 665 209 739 251 809 C 292 878 342 941 400 999 C 458 1056 523 1105 594 1146 C 665 1187 742 1219 824 1242 C 906 1264 991 1276 1081 1276 C 1146 1276 1209 1269 1271 1257 C 1332 1244 1389 1226 1443 1202 C 1496 1178 1545 1148 1589 1114 C 1633 1080 1670 1041 1702 997 C 1734 953 1758 906 1776 854 C 1793 802 1802 748 1802 690 C 1802 602 1786 519 1755 440 C 1724 360 1681 291 1625 231 C 1569 171 1502 123 1424 88 C 1346 52 1261 35 1169 35 C 1133 35 1098 37 1064 43 C 1030 49 1000 58 975 72 L 1120 408 L 1108 412 C 1074 370 1036 328 995 284 C 954 240 911 200 867 164 C 822 128 776 98 730 75 C 684 52 638 41 594 41 C 554 41 523 50 501 70 C 478 89 467 118 467 156 C 467 214 478 275 501 337 C 524 399 555 459 594 518 C 632 576 677 632 727 684 C 777 736 828 781 882 820 C 936 858 989 889 1043 912 C 1096 934 1146 946 1192 946 C 1215 946 1238 940 1260 930 C 1282 920 1299 904 1313 883 L 1329 913 L 1507 956 L 1522 956 L 1182 139 C 1190 137 1199 135 1210 134 C 1220 133 1231 133 1241 133 C 1322 133 1395 148 1459 179 C 1523 209 1578 251 1622 303 C 1666 355 1700 415 1724 483 C 1747 551 1759 623 1759 698 C 1759 750 1750 800 1734 847 C 1718 893 1695 936 1666 975 C 1636 1014 1602 1049 1562 1081 C 1522 1112 1478 1138 1431 1160 C 1383 1182 1333 1198 1280 1210 C 1226 1221 1172 1227 1118 1227 C 1036 1227 958 1214 884 1190 C 810 1166 741 1132 678 1090 C 614 1047 557 996 506 938 C 455 879 412 816 376 748 C 340 680 312 608 293 533 C 273 457 264 381 264 305 C 264 207 282 118 320 40 C 357 -37 408 -104 472 -159 C 536 -213 610 -255 696 -284 C 782 -313 873 -328 969 -328 C 1087 -328 1196 -308 1294 -268 C 1392 -228 1485 -171 1573 -98 L 1591 -121 C 1506 -202 1407 -263 1295 -305 C 1183 -346 1062 -367 934 -367 Z M 727 137 C 751 137 780 147 815 168 C 849 188 886 216 924 251 C 962 285 1001 325 1039 371 C 1077 417 1111 464 1141 513 C 1171 562 1195 611 1214 661 C 1233 711 1243 757 1243 801 C 1243 831 1234 856 1216 876 C 1198 895 1175 905 1145 905 C 1120 905 1091 892 1059 868 C 1027 843 993 811 959 771 C 925 731 891 687 857 637 C 823 587 793 536 767 486 C 740 436 718 387 701 341 C 684 295 675 255 674 223 C 673 213 673 202 674 192 C 675 182 677 172 681 164 C 685 156 690 149 698 144 C 705 139 715 137 727 137 Z" unicode="@" />
<glyph horiz-adv-x="1434" d="M -309 20 C -295 20 -276 23 -251 28 C -225 33 -193 45 -155 65 C -117 85 -72 114 -20 154 C 32 193 91 247 158 317 C 217 379 273 437 325 491 C 377 545 427 597 477 649 C 527 700 577 751 627 803 C 677 855 730 909 786 966 C 842 1023 901 1084 965 1150 C 1029 1215 1099 1287 1176 1366 L 1194 1399 L 1473 1499 L 1491 1487 C 1481 1458 1468 1422 1454 1379 C 1439 1335 1423 1289 1407 1239 C 1390 1189 1373 1137 1356 1085 C 1338 1033 1322 983 1306 937 C 1290 891 1277 849 1265 812 C 1253 775 1243 747 1237 729 C 1227 701 1217 670 1205 635 C 1193 600 1181 563 1168 523 C 1155 483 1142 443 1128 402 C 1114 360 1100 320 1087 281 C 1082 267 1077 251 1072 234 C 1066 216 1061 199 1057 181 C 1053 163 1049 147 1046 131 C 1043 115 1042 102 1042 92 C 1042 82 1047 73 1059 65 C 1070 57 1084 51 1101 45 C 1118 39 1136 33 1156 29 C 1176 25 1194 22 1212 20 L 1206 0 L 528 0 L 535 20 C 575 23 610 31 642 43 C 673 55 700 73 723 96 C 727 100 733 109 739 121 C 745 133 751 147 758 163 C 765 179 772 196 779 214 C 786 232 793 249 799 266 C 822 330 844 392 866 453 C 888 514 908 574 928 633 L 516 633 C 456 568 403 511 357 461 C 311 411 276 372 252 344 C 198 283 157 232 129 191 C 101 150 88 120 88 102 C 88 86 92 73 102 63 C 111 53 123 46 137 40 C 151 34 167 30 185 27 C 202 24 219 22 236 20 L 229 0 L -315 0 L -309 20 Z M 944 678 C 988 806 1027 922 1062 1025 C 1097 1127 1129 1219 1159 1300 C 1055 1192 952 1086 850 981 C 747 875 649 774 557 678 L 944 678 Z" unicode="A" />
<glyph horiz-adv-x="1407" d="M 696 -8 C 662 -8 616 -7 558 -7 C 500 -6 434 -5 361 -4 C 288 -3 210 -2 128 -1 C 46 0 -35 0 -117 0 L -111 20 C -85 22 -61 25 -41 29 C -21 33 -3 38 13 44 C 29 50 43 58 56 66 C 68 74 80 84 92 96 C 96 100 102 109 108 121 C 114 133 121 148 128 164 C 134 180 141 197 148 215 C 155 233 162 250 168 266 C 184 310 200 357 217 406 C 234 454 250 500 265 544 C 279 587 292 625 304 658 C 315 691 323 715 328 729 C 343 773 357 815 371 855 C 385 895 398 934 411 973 C 424 1012 437 1052 450 1092 C 463 1132 477 1174 492 1219 C 498 1238 504 1260 510 1284 C 516 1308 520 1329 520 1348 C 520 1370 514 1388 503 1402 C 492 1416 478 1426 461 1434 C 444 1441 426 1446 406 1449 C 386 1451 368 1453 352 1454 L 360 1475 C 381 1475 408 1475 440 1475 C 472 1475 507 1475 545 1475 C 583 1475 622 1476 663 1476 C 703 1476 743 1476 782 1476 C 821 1476 858 1477 892 1477 C 926 1477 956 1477 981 1477 C 1051 1477 1113 1469 1168 1453 C 1223 1437 1269 1415 1307 1387 C 1345 1359 1373 1325 1393 1285 C 1413 1245 1423 1201 1423 1153 C 1423 1105 1416 1062 1402 1024 C 1388 986 1370 952 1346 922 C 1322 892 1294 865 1262 843 C 1230 820 1197 801 1161 785 C 1125 769 1089 757 1051 747 C 1013 737 976 729 940 725 C 984 715 1028 701 1071 683 C 1113 665 1151 642 1185 614 C 1219 586 1246 553 1267 515 C 1287 477 1298 432 1298 381 C 1298 331 1289 287 1272 249 C 1254 210 1231 176 1201 148 C 1171 119 1137 95 1098 75 C 1058 55 1016 38 972 26 C 927 14 881 5 834 0 C 786 -5 740 -8 696 -8 Z M 608 735 C 653 735 692 735 726 737 C 760 739 789 741 815 743 C 867 747 914 762 955 789 C 995 816 1030 849 1058 889 C 1086 928 1107 971 1121 1018 C 1135 1064 1143 1109 1143 1153 C 1143 1188 1140 1223 1135 1258 C 1129 1292 1119 1323 1104 1351 C 1089 1379 1068 1401 1041 1418 C 1014 1435 979 1444 936 1444 C 917 1444 898 1441 880 1437 C 862 1432 847 1426 836 1419 L 608 735 Z M 602 25 C 665 25 722 34 772 52 C 822 70 864 97 899 132 C 933 167 960 210 978 261 C 996 311 1006 369 1006 434 C 1006 464 1000 493 990 523 C 980 553 965 580 947 604 C 928 628 906 649 880 665 C 854 681 825 690 795 694 C 773 696 754 697 739 698 C 724 699 710 700 696 701 C 682 701 668 702 653 702 C 637 702 618 702 596 702 L 389 68 C 411 57 440 47 476 38 C 512 29 554 25 602 25 Z" unicode="B" />
<glyph horiz-adv-x="1360" d="M 600 -18 C 523 -18 453 -6 389 17 C 325 40 271 74 226 119 C 180 163 145 218 120 284 C 94 349 82 424 82 508 C 82 599 94 687 119 771 C 144 855 179 933 224 1007 C 269 1080 322 1147 384 1207 C 446 1267 513 1318 586 1361 C 659 1403 736 1436 818 1460 C 900 1483 983 1495 1069 1495 C 1115 1495 1158 1491 1197 1485 C 1235 1479 1269 1471 1299 1463 C 1328 1454 1353 1445 1373 1435 C 1393 1425 1409 1417 1419 1411 L 1470 1462 L 1491 1456 L 1366 1008 L 1335 1012 C 1335 1018 1336 1026 1337 1035 C 1338 1044 1339 1053 1340 1063 C 1341 1073 1342 1082 1342 1091 C 1342 1099 1343 1106 1343 1112 C 1343 1126 1341 1145 1338 1169 C 1334 1192 1328 1216 1320 1242 C 1312 1268 1301 1294 1287 1320 C 1273 1346 1256 1369 1236 1390 C 1215 1410 1191 1427 1163 1440 C 1135 1453 1103 1460 1067 1460 C 1009 1460 951 1446 895 1420 C 838 1393 784 1356 732 1310 C 680 1263 632 1208 588 1144 C 544 1080 505 1010 473 935 C 440 860 414 781 396 699 C 378 616 369 533 369 449 C 369 377 376 315 390 264 C 404 213 425 171 452 138 C 479 105 512 81 550 66 C 588 50 630 43 678 43 C 743 43 803 54 857 78 C 911 101 960 135 1005 179 C 1050 223 1092 278 1130 342 C 1168 406 1205 480 1239 563 L 1268 553 L 1104 4 L 1077 4 L 1053 154 C 1033 133 1008 112 977 92 C 945 72 910 53 870 37 C 830 21 787 7 741 -2 C 695 -12 648 -18 600 -18 Z" unicode="C" />
<glyph horiz-adv-x="1591" d="M 674 -10 C 604 -10 536 -9 470 -8 C 404 -7 338 -6 273 -5 C 207 -3 142 -2 78 -1 C 13 0 -51 0 -117 0 L -111 20 C -85 22 -61 25 -41 29 C -21 33 -3 38 13 44 C 29 50 43 58 56 66 C 68 74 80 84 92 96 C 96 100 102 109 108 121 C 114 133 121 148 128 164 C 134 180 141 197 148 215 C 155 233 162 250 168 266 C 184 310 200 357 217 406 C 234 454 250 500 265 544 C 279 587 292 625 304 658 C 315 691 323 715 328 729 C 343 773 357 815 371 855 C 385 895 398 934 411 973 C 424 1012 437 1052 450 1092 C 463 1132 477 1174 492 1219 C 498 1238 504 1260 510 1284 C 516 1308 520 1329 520 1348 C 520 1370 514 1388 503 1402 C 492 1416 478 1426 461 1434 C 444 1441 426 1446 406 1449 C 386 1451 368 1453 352 1454 L 360 1475 L 948 1475 C 1050 1475 1143 1459 1225 1429 C 1307 1398 1378 1355 1436 1299 C 1494 1243 1538 1176 1569 1098 C 1600 1020 1616 933 1616 838 C 1616 763 1605 690 1585 620 C 1564 549 1534 482 1495 419 C 1456 356 1409 298 1353 246 C 1297 193 1235 148 1165 110 C 1095 72 1019 43 937 22 C 854 0 766 -10 674 -10 Z M 596 25 C 682 25 760 36 830 59 C 900 82 962 114 1016 155 C 1070 195 1116 243 1156 298 C 1196 353 1229 413 1255 477 C 1281 541 1300 609 1313 680 C 1326 750 1333 821 1335 893 C 1337 989 1327 1071 1307 1141 C 1286 1210 1258 1267 1223 1312 C 1188 1357 1148 1390 1104 1412 C 1060 1433 1015 1444 971 1444 C 946 1444 922 1441 899 1436 C 876 1430 861 1424 854 1417 C 849 1412 843 1401 836 1385 C 829 1368 821 1347 812 1322 C 802 1297 792 1269 782 1237 C 771 1205 760 1173 748 1139 C 724 1069 700 1001 676 933 C 652 865 628 797 606 731 L 459 281 C 453 265 448 248 443 232 C 438 215 434 199 430 184 C 426 169 422 155 420 143 C 417 130 416 120 416 113 C 416 83 431 61 463 47 C 495 32 539 25 596 25 Z" unicode="D" />
<glyph horiz-adv-x="1425" d="M -111 20 C -85 22 -61 25 -41 29 C -21 33 -3 38 13 44 C 29 50 43 58 56 66 C 68 74 80 84 92 96 C 96 100 102 109 108 121 C 114 133 121 148 128 164 C 134 180 141 197 148 215 C 155 233 162 250 168 266 C 184 310 200 357 217 406 C 234 454 250 500 265 544 C 279 587 292 625 304 658 C 315 691 323 715 328 729 C 343 773 357 815 371 855 C 385 895 398 934 411 973 C 424 1012 437 1052 450 1092 C 463 1132 477 1174 492 1219 C 498 1238 504 1260 510 1284 C 516 1308 520 1329 520 1348 C 520 1370 514 1388 503 1402 C 492 1416 478 1426 461 1434 C 444 1441 426 1446 406 1449 C 386 1451 368 1453 352 1454 L 360 1475 L 1483 1475 L 1483 1094 L 1462 1087 C 1454 1103 1443 1122 1430 1145 C 1417 1167 1403 1191 1389 1216 C 1374 1240 1359 1265 1343 1289 C 1327 1313 1313 1336 1299 1356 C 1285 1376 1272 1392 1261 1405 C 1250 1417 1242 1425 1237 1427 C 1220 1432 1194 1436 1160 1439 C 1126 1442 1089 1444 1049 1444 C 1002 1444 962 1442 930 1438 C 898 1434 869 1432 844 1430 L 625 782 L 715 782 C 756 782 795 787 832 799 C 868 811 902 826 933 845 C 964 864 992 885 1018 909 C 1043 933 1065 956 1084 980 C 1103 1004 1119 1026 1132 1048 C 1144 1069 1153 1087 1159 1102 L 1184 1094 L 963 385 L 940 389 C 940 399 941 407 942 413 C 942 419 943 426 944 433 C 944 439 945 447 945 455 C 945 463 946 473 946 485 C 946 493 945 505 944 521 C 942 537 939 555 934 575 C 929 595 922 615 913 636 C 904 656 892 675 877 692 C 861 709 842 723 820 734 C 797 744 770 750 739 750 L 614 750 C 601 708 588 668 576 631 C 564 593 551 556 539 520 C 527 483 514 445 501 406 C 487 367 473 325 459 281 C 454 266 449 248 443 226 C 437 204 430 181 424 157 C 418 133 412 109 407 87 C 401 65 397 46 393 31 L 901 43 C 913 43 929 49 951 62 C 972 75 996 92 1023 113 C 1049 134 1078 158 1108 185 C 1138 211 1167 239 1197 267 C 1227 295 1255 324 1283 352 C 1311 380 1336 405 1358 428 L 1376 418 L 1227 0 L -117 0 L -111 20 Z" unicode="E" />
<glyph horiz-adv-x="1270" d="M -111 20 C -85 22 -61 25 -41 29 C -21 33 -3 38 13 44 C 29 50 43 58 56 66 C 68 74 80 84 92 96 C 96 100 102 109 108 121 C 114 133 121 148 128 164 C 134 180 141 197 148 215 C 155 233 162 250 168 266 C 184 310 200 357 217 406 C 234 454 250 500 265 544 C 279 587 292 625 304 658 C 315 691 323 715 328 729 C 343 773 357 815 371 855 C 385 895 398 934 411 973 C 424 1012 437 1052 450 1092 C 463 1132 477 1174 492 1219 C 498 1238 504 1260 510 1284 C 516 1308 520 1329 520 1348 C 520 1370 514 1388 503 1402 C 492 1416 478 1426 461 1434 C 444 1441 426 1446 406 1449 C 386 1451 368 1453 352 1454 L 360 1475 L 1464 1475 L 1464 1100 L 1444 1094 C 1434 1110 1423 1131 1409 1155 C 1395 1179 1381 1204 1365 1230 C 1349 1256 1332 1283 1314 1309 C 1296 1335 1278 1358 1260 1379 C 1242 1399 1225 1416 1209 1428 C 1193 1440 1178 1446 1165 1446 L 844 1430 L 621 766 L 719 766 C 763 766 805 771 844 783 C 882 795 918 810 950 828 C 982 846 1011 867 1037 891 C 1063 914 1085 937 1104 961 C 1123 984 1139 1006 1151 1027 C 1163 1048 1172 1066 1178 1081 L 1202 1073 L 981 365 L 958 369 C 958 379 959 387 960 393 C 961 399 962 406 963 413 C 963 419 964 427 964 435 C 964 443 965 453 965 465 C 965 473 964 485 962 501 C 960 517 956 536 950 556 C 944 576 937 596 927 617 C 917 638 905 657 889 674 C 873 691 854 705 832 716 C 810 727 784 733 754 733 L 608 733 L 459 281 C 453 263 447 246 442 230 C 436 213 432 197 428 182 C 424 167 420 154 418 142 C 415 130 414 120 414 113 C 414 98 419 85 429 75 C 439 64 453 55 469 48 C 485 40 502 34 522 30 C 542 25 561 22 580 20 L 573 0 L -117 0 L -111 20 Z" unicode="F" />
<glyph horiz-adv-x="1444" d="M 676 -18 C 586 -18 505 -6 433 15 C 360 37 298 71 247 117 C 195 162 156 219 128 288 C 100 357 86 438 86 532 C 86 604 96 678 118 754 C 139 830 170 903 210 975 C 250 1046 298 1113 356 1176 C 413 1239 477 1294 549 1342 C 620 1389 698 1426 783 1454 C 867 1481 957 1495 1053 1495 C 1113 1495 1166 1490 1214 1482 C 1262 1473 1303 1463 1339 1451 C 1374 1439 1403 1426 1427 1413 C 1451 1399 1469 1388 1481 1378 L 1548 1442 L 1569 1436 L 1464 983 L 1438 987 C 1442 1017 1444 1044 1444 1067 C 1444 1081 1441 1100 1435 1125 C 1429 1149 1421 1176 1409 1205 C 1397 1234 1381 1264 1362 1294 C 1342 1324 1319 1351 1292 1375 C 1264 1399 1233 1419 1197 1435 C 1161 1450 1120 1458 1075 1458 C 1011 1458 949 1443 889 1414 C 829 1385 773 1346 721 1296 C 669 1246 621 1187 577 1120 C 533 1053 496 981 465 905 C 434 829 410 750 393 668 C 375 586 367 506 367 428 C 367 370 372 317 383 267 C 393 217 410 173 434 136 C 457 98 488 69 526 48 C 564 26 610 16 666 16 C 722 16 773 28 818 54 C 863 79 900 114 930 158 C 942 178 953 201 963 227 C 972 252 983 286 995 328 C 998 338 1001 348 1005 360 C 1008 372 1011 384 1013 396 C 1015 408 1017 419 1019 431 C 1021 443 1022 453 1022 463 C 1022 486 1015 505 1003 519 C 990 533 974 543 956 550 C 937 557 917 562 896 564 C 875 566 856 568 840 569 L 848 590 L 1503 590 L 1495 569 C 1483 567 1471 566 1458 565 C 1444 563 1430 560 1416 556 C 1402 552 1387 545 1372 536 C 1357 527 1343 514 1329 498 C 1312 478 1298 452 1287 418 C 1275 384 1263 346 1251 305 C 1239 269 1228 232 1218 195 C 1207 157 1198 124 1190 94 C 1146 74 1101 57 1055 43 C 1009 29 963 17 919 8 C 874 0 831 -7 789 -11 C 747 -15 710 -18 676 -18 Z" unicode="G" />
<glyph horiz-adv-x="1645" d="M -111 20 C -85 22 -61 25 -41 29 C -21 33 -3 38 13 44 C 29 50 43 58 56 66 C 68 74 80 84 92 96 C 96 100 102 109 108 121 C 114 133 121 148 128 164 C 134 180 141 197 148 215 C 155 233 162 250 168 266 C 184 310 200 357 218 406 C 235 454 251 500 266 544 C 281 587 294 625 306 658 C 317 691 325 715 330 729 C 344 773 358 815 372 855 C 385 895 398 934 411 973 C 424 1012 437 1052 450 1092 C 463 1132 477 1174 492 1219 C 498 1238 504 1260 510 1284 C 516 1308 520 1329 520 1348 C 520 1370 514 1388 503 1402 C 492 1416 478 1426 461 1434 C 444 1441 426 1446 406 1449 C 386 1451 368 1453 352 1454 L 360 1475 L 1034 1475 L 1026 1454 C 1008 1452 992 1449 977 1447 C 962 1445 947 1441 933 1435 C 919 1429 904 1420 890 1410 C 876 1400 861 1386 846 1368 C 838 1358 829 1344 821 1327 C 812 1309 803 1290 795 1269 C 786 1247 778 1225 770 1203 C 762 1180 754 1159 748 1139 C 736 1105 725 1074 715 1044 C 704 1014 694 984 684 954 C 674 924 663 895 653 865 C 643 835 632 803 621 770 L 1178 770 C 1193 814 1207 853 1219 889 C 1231 924 1243 959 1255 993 C 1266 1027 1278 1062 1290 1098 C 1302 1134 1315 1174 1329 1219 C 1331 1227 1334 1237 1338 1249 C 1342 1261 1345 1273 1348 1285 C 1350 1297 1353 1308 1355 1319 C 1357 1330 1358 1340 1358 1348 C 1358 1370 1352 1388 1341 1402 C 1329 1416 1315 1426 1299 1434 C 1282 1441 1264 1446 1244 1449 C 1224 1451 1206 1453 1190 1454 L 1198 1475 L 1872 1475 L 1864 1454 C 1830 1450 1798 1442 1769 1430 C 1739 1418 1711 1396 1683 1366 C 1675 1356 1666 1343 1658 1326 C 1650 1308 1641 1289 1633 1268 C 1624 1247 1616 1225 1608 1203 C 1600 1180 1592 1159 1585 1139 L 1466 788 L 1296 281 C 1290 265 1285 249 1280 233 C 1275 216 1270 200 1266 184 C 1261 168 1257 154 1255 141 C 1252 128 1251 118 1251 111 C 1251 96 1256 83 1266 73 C 1276 63 1290 54 1306 47 C 1322 39 1339 33 1358 29 C 1377 25 1395 22 1413 20 L 1407 0 L 721 0 L 727 20 C 753 22 776 25 796 29 C 816 33 835 38 851 44 C 867 50 881 58 894 66 C 906 74 918 84 930 96 C 934 100 940 109 946 121 C 952 133 958 148 965 164 C 972 180 979 197 986 215 C 993 233 1000 250 1006 266 C 1022 310 1038 356 1055 404 C 1072 452 1088 497 1102 540 C 1116 583 1129 621 1140 655 C 1151 688 1159 713 1165 729 L 606 729 C 591 684 578 644 567 610 C 555 575 544 541 533 508 C 522 475 511 441 499 405 C 487 369 474 327 459 281 C 453 265 448 248 443 232 C 437 215 432 199 428 184 C 424 169 420 155 418 143 C 415 130 414 120 414 113 C 414 98 419 85 429 75 C 439 64 451 55 467 48 C 482 40 499 34 519 30 C 538 25 557 22 575 20 L 569 0 L -117 0 L -111 20 Z" unicode="H" />
<glyph horiz-adv-x="821" d="M -109 20 C -56 24 -14 32 18 44 C 50 56 77 73 100 96 C 104 100 110 109 116 121 C 122 133 129 148 136 164 C 142 180 149 197 156 215 C 163 233 170 250 176 266 C 192 310 209 357 226 406 C 243 454 259 500 274 544 C 289 587 302 625 314 658 C 325 691 333 715 338 729 C 353 773 367 815 381 855 C 394 895 407 934 420 973 C 432 1012 445 1052 458 1092 C 471 1132 485 1174 500 1219 C 506 1238 512 1260 518 1284 C 524 1308 528 1329 528 1348 C 528 1370 522 1388 510 1402 C 498 1416 484 1426 466 1434 C 448 1441 429 1446 409 1449 C 389 1451 370 1453 354 1454 L 362 1475 L 1049 1475 L 1040 1454 C 1023 1452 1007 1449 991 1447 C 975 1444 960 1440 945 1434 C 930 1428 915 1419 900 1409 C 885 1398 870 1384 854 1366 C 846 1356 837 1343 829 1326 C 820 1308 811 1289 803 1268 C 794 1247 786 1225 778 1203 C 770 1180 762 1159 756 1139 L 614 729 C 604 701 594 670 583 635 C 571 600 559 563 547 523 C 534 483 521 443 507 402 C 493 360 480 320 467 281 C 461 265 456 249 451 233 C 445 216 440 200 436 184 C 432 168 428 154 426 141 C 423 128 422 118 422 111 C 422 96 427 83 438 73 C 449 63 463 54 480 47 C 496 39 514 33 534 29 C 554 25 572 22 590 20 L 584 0 L -115 0 L -109 20 Z" unicode="I" />
<glyph horiz-adv-x="958" d="M 143 -18 C 109 -18 75 -14 43 -6 C 10 1 -18 13 -43 30 C -68 46 -88 67 -104 93 C -119 118 -127 148 -127 184 C -127 210 -122 233 -114 254 C -106 275 -95 293 -81 308 C -67 323 -52 335 -34 343 C -16 351 1 356 20 356 C 61 356 92 344 114 322 C 136 300 147 272 147 240 C 147 224 144 208 139 193 C 133 178 126 165 116 153 C 106 141 95 132 83 125 C 70 118 57 115 43 115 C 29 115 19 116 11 118 C 3 120 -4 123 -10 127 C -7 109 -3 93 3 79 C 9 65 17 52 27 42 C 37 32 49 24 65 18 C 80 12 99 10 121 10 C 146 10 169 16 191 30 C 213 43 233 61 251 84 C 269 106 285 132 300 162 C 314 192 328 223 340 256 C 356 300 373 347 389 397 C 405 446 419 492 433 536 C 447 580 459 618 469 652 C 479 685 487 709 492 723 C 506 767 520 810 532 850 C 544 890 557 930 569 970 C 581 1010 592 1050 604 1091 C 616 1131 629 1174 643 1219 C 649 1238 655 1260 661 1284 C 667 1308 670 1329 670 1348 C 669 1370 663 1388 651 1402 C 639 1416 624 1426 606 1434 C 588 1441 569 1446 549 1449 C 529 1451 510 1453 494 1454 L 502 1475 L 1188 1475 L 1180 1454 C 1162 1452 1146 1449 1131 1447 C 1115 1444 1100 1440 1085 1434 C 1070 1428 1055 1419 1040 1409 C 1025 1398 1010 1384 995 1366 C 987 1356 978 1343 970 1326 C 962 1308 954 1289 946 1268 C 938 1247 930 1225 922 1203 C 914 1180 907 1159 901 1139 C 874 1057 850 982 829 912 C 808 842 788 779 770 723 C 752 668 733 606 713 537 C 693 468 669 394 641 315 C 627 273 606 233 579 193 C 551 153 517 118 476 87 C 435 55 387 30 332 11 C 276 -8 213 -18 143 -18 Z" unicode="J" />
<glyph horiz-adv-x="1384" d="M -111 20 C -85 22 -61 25 -41 29 C -21 33 -3 38 13 44 C 29 50 43 58 56 66 C 68 74 80 84 92 96 C 96 100 102 109 108 121 C 114 133 121 148 128 164 C 134 180 141 197 148 215 C 155 233 162 250 168 266 C 184 310 200 357 217 406 C 234 454 250 500 265 544 C 279 587 292 625 304 658 C 315 691 323 715 328 729 C 343 773 357 815 371 855 C 385 895 398 934 411 973 C 424 1012 437 1052 450 1092 C 463 1132 477 1174 492 1219 C 498 1238 504 1260 510 1284 C 516 1308 520 1329 520 1348 C 520 1370 514 1388 503 1402 C 492 1416 478 1426 461 1434 C 444 1441 426 1446 406 1449 C 386 1451 368 1453 352 1454 L 360 1475 L 1034 1475 L 1026 1454 C 1008 1452 992 1449 977 1447 C 962 1445 947 1441 933 1435 C 919 1429 904 1420 890 1410 C 876 1400 861 1386 846 1368 C 838 1358 829 1344 821 1327 C 812 1309 803 1290 795 1269 C 786 1247 778 1225 770 1203 C 762 1180 754 1159 748 1139 C 736 1105 724 1070 711 1032 C 697 994 684 955 671 917 C 657 879 644 841 631 805 C 618 769 606 736 596 707 C 636 741 676 775 718 811 C 759 846 800 881 840 915 C 880 949 918 983 955 1015 C 991 1047 1025 1076 1055 1103 C 1085 1129 1112 1153 1134 1173 C 1156 1193 1174 1209 1186 1221 C 1223 1257 1255 1289 1281 1318 C 1307 1347 1321 1371 1323 1391 C 1323 1399 1319 1407 1311 1413 C 1303 1419 1293 1425 1281 1430 C 1269 1434 1255 1439 1239 1443 C 1223 1447 1208 1450 1192 1454 L 1200 1475 L 1659 1475 L 1651 1454 C 1616 1446 1585 1437 1558 1429 C 1531 1420 1504 1409 1477 1395 C 1450 1381 1421 1362 1391 1340 C 1360 1318 1324 1289 1284 1255 C 1240 1219 1184 1170 1115 1110 C 1045 1050 962 977 864 893 C 896 817 925 749 951 687 C 977 625 1000 569 1022 518 C 1044 466 1064 419 1082 375 C 1100 331 1117 290 1133 252 C 1149 212 1163 178 1177 151 C 1191 123 1205 101 1221 83 C 1237 65 1255 52 1275 42 C 1295 32 1319 25 1348 20 L 1341 0 L 731 0 L 737 20 C 763 22 785 24 805 27 C 825 30 841 35 854 41 C 867 47 877 56 883 67 C 889 77 893 91 893 109 C 893 115 888 130 880 154 C 872 178 861 208 848 244 C 834 279 819 318 802 361 C 785 404 768 447 750 490 C 732 533 715 575 699 615 C 682 655 667 689 655 719 L 575 647 C 563 612 552 581 544 554 C 536 527 527 500 519 474 C 511 447 502 418 493 388 C 483 358 472 322 459 281 C 453 265 448 248 443 232 C 437 215 432 199 428 184 C 424 169 420 155 418 143 C 415 130 414 120 414 113 C 414 98 419 85 429 75 C 439 64 451 55 467 48 C 482 40 499 34 519 30 C 538 25 557 22 575 20 L 569 0 L -117 0 L -111 20 Z" unicode="K" />
<glyph horiz-adv-x="1290" d="M -111 20 C -85 22 -61 25 -41 29 C -21 33 -3 38 13 44 C 29 50 43 58 56 66 C 68 74 80 84 92 96 C 96 100 102 109 108 121 C 114 133 121 148 128 164 C 134 180 141 197 148 215 C 155 233 162 250 168 266 C 184 310 200 357 217 406 C 234 454 250 500 265 544 C 279 587 292 625 304 658 C 315 691 323 715 328 729 C 343 773 357 815 371 855 C 385 895 398 934 411 973 C 424 1012 437 1052 450 1092 C 463 1132 477 1174 492 1219 C 498 1238 504 1260 510 1284 C 516 1308 520 1329 520 1348 C 520 1370 514 1388 503 1402 C 492 1416 478 1426 461 1434 C 444 1441 426 1446 406 1449 C 386 1451 368 1453 352 1454 L 360 1475 L 1034 1475 L 1026 1454 C 1008 1452 992 1449 977 1447 C 962 1445 947 1441 933 1435 C 919 1429 904 1420 890 1410 C 876 1400 861 1386 846 1368 C 838 1358 829 1344 821 1327 C 812 1309 803 1290 795 1269 C 786 1248 778 1226 770 1204 C 762 1182 754 1161 748 1141 C 736 1107 723 1072 710 1036 C 697 999 684 962 672 926 C 659 889 647 854 636 820 C 624 786 614 756 606 729 L 383 45 L 850 33 L 1255 434 L 1274 424 L 1124 0 L -117 0 L -111 20 Z" unicode="L" />
<glyph horiz-adv-x="2011" d="M -152 20 C -135 22 -117 25 -98 29 C -78 33 -59 39 -40 47 C -21 54 -2 63 16 74 C 34 84 52 97 68 113 C 98 141 129 183 159 239 C 189 295 222 361 258 438 C 284 496 316 566 352 647 C 388 727 427 813 467 905 C 485 949 506 996 528 1044 C 550 1092 570 1137 588 1180 C 606 1223 622 1262 634 1296 C 646 1330 653 1355 653 1372 C 653 1388 647 1402 637 1412 C 626 1422 612 1430 596 1436 C 580 1442 562 1446 542 1448 C 522 1450 503 1452 485 1454 L 496 1475 L 967 1475 L 936 391 L 1735 1475 L 2185 1475 L 2177 1454 C 2163 1451 2149 1449 2135 1447 C 2121 1445 2107 1442 2093 1437 C 2079 1431 2065 1423 2051 1413 C 2037 1402 2022 1386 2007 1366 C 1997 1352 1987 1337 1979 1319 C 1971 1301 1963 1283 1955 1263 C 1947 1243 1940 1223 1933 1202 C 1926 1181 1919 1161 1913 1141 C 1894 1085 1876 1027 1858 969 C 1840 911 1821 852 1802 793 L 1638 281 C 1626 245 1617 211 1609 180 C 1601 149 1597 126 1597 111 C 1597 95 1602 82 1612 72 C 1622 62 1636 53 1652 46 C 1668 39 1685 33 1704 29 C 1723 25 1741 22 1759 20 L 1753 0 L 1083 0 L 1090 20 C 1116 22 1138 25 1157 29 C 1176 33 1193 38 1208 44 C 1222 50 1235 58 1247 66 C 1259 74 1270 84 1282 96 C 1286 100 1291 109 1297 121 C 1303 133 1309 148 1316 164 C 1322 180 1329 197 1335 215 C 1341 233 1348 250 1354 266 C 1364 296 1374 327 1385 361 C 1396 395 1407 428 1418 462 C 1429 496 1440 529 1450 561 C 1460 593 1470 622 1479 649 C 1487 676 1495 700 1501 720 C 1507 740 1512 754 1516 764 C 1530 808 1546 856 1563 908 C 1579 960 1596 1012 1613 1065 C 1629 1117 1646 1169 1662 1220 C 1678 1271 1692 1319 1706 1364 L 705 10 C 697 0 689 -4 679 -3 C 669 -2 664 2 664 10 L 694 1335 C 670 1280 647 1229 627 1182 C 606 1135 586 1089 567 1045 C 547 1001 528 957 509 913 C 489 869 469 822 448 774 C 427 726 405 674 381 619 C 357 564 331 504 303 438 C 275 374 251 316 233 266 C 215 215 204 175 201 145 C 199 127 202 111 210 97 C 218 83 231 71 247 61 C 263 51 283 42 307 36 C 331 29 357 24 385 20 L 375 0 L -162 0 L -152 20 Z" unicode="M" />
<glyph horiz-adv-x="1524" d="M 1059 -10 C 1053 -10 1048 -7 1042 -2 C 1036 2 1032 8 1030 14 L 571 1253 C 553 1198 537 1149 523 1106 C 509 1062 495 1022 483 984 C 471 946 458 908 446 871 C 434 834 421 795 407 753 C 393 711 378 664 362 613 C 345 562 326 504 305 438 C 284 374 267 316 253 266 C 239 215 233 175 233 145 C 233 127 238 111 249 97 C 259 83 274 71 292 61 C 310 51 332 42 357 36 C 381 29 408 24 436 20 L 430 0 L -117 0 L -111 20 C -94 22 -76 25 -57 29 C -38 33 -19 39 -1 47 C 16 54 34 63 52 74 C 70 84 86 97 100 113 C 128 141 154 183 179 239 C 203 295 230 361 258 438 C 268 467 278 497 289 527 C 299 557 310 588 322 622 C 334 655 346 691 359 729 C 372 767 386 808 401 854 C 415 898 430 943 445 989 C 460 1035 474 1078 487 1118 C 499 1158 510 1193 518 1224 C 526 1255 530 1278 530 1292 C 530 1343 516 1381 488 1405 C 460 1429 417 1446 360 1454 L 369 1475 L 768 1475 L 1180 399 C 1199 458 1216 513 1232 563 C 1248 613 1263 663 1279 712 C 1294 761 1310 811 1326 863 C 1342 915 1361 972 1382 1036 C 1399 1090 1414 1141 1427 1189 C 1439 1237 1446 1275 1446 1305 C 1446 1343 1428 1375 1394 1401 C 1360 1427 1311 1444 1249 1454 L 1257 1475 L 1784 1475 L 1776 1454 C 1723 1446 1679 1432 1643 1411 C 1607 1390 1575 1360 1546 1321 C 1538 1310 1529 1295 1520 1276 C 1511 1256 1502 1234 1492 1209 C 1482 1184 1472 1157 1462 1127 C 1452 1097 1441 1067 1430 1036 C 1408 975 1383 905 1356 827 C 1328 748 1300 663 1272 571 C 1258 532 1244 489 1229 441 C 1213 393 1198 343 1182 293 C 1166 243 1150 193 1135 145 C 1119 96 1105 52 1092 12 C 1089 6 1085 1 1079 -3 C 1073 -7 1066 -10 1059 -10 Z" unicode="N" />
<glyph horiz-adv-x="1479" d="M 608 -18 C 537 -18 470 -5 407 18 C 344 42 289 79 242 128 C 194 176 157 237 129 310 C 101 383 88 468 88 565 C 88 630 98 698 119 770 C 139 841 169 911 207 980 C 245 1048 291 1114 345 1176 C 399 1238 460 1293 528 1341 C 595 1388 668 1425 748 1453 C 827 1481 911 1495 999 1495 C 1064 1495 1128 1481 1191 1455 C 1253 1429 1309 1390 1359 1340 C 1408 1289 1448 1226 1478 1152 C 1508 1078 1524 993 1524 897 C 1524 827 1512 757 1490 685 C 1468 613 1436 543 1396 475 C 1356 407 1307 343 1251 283 C 1195 223 1133 171 1065 127 C 997 82 924 47 847 21 C 769 -5 690 -18 608 -18 Z M 600 25 C 646 25 694 37 744 61 C 794 85 844 120 893 164 C 941 208 988 262 1032 324 C 1076 386 1115 454 1149 530 C 1183 606 1210 687 1230 774 C 1250 861 1260 952 1260 1047 C 1260 1107 1256 1162 1248 1212 C 1240 1262 1227 1304 1209 1340 C 1191 1375 1167 1402 1137 1422 C 1107 1442 1071 1452 1028 1452 C 972 1452 916 1438 862 1410 C 808 1382 756 1345 707 1297 C 657 1249 611 1192 569 1127 C 527 1061 490 991 458 915 C 426 839 401 760 382 678 C 363 595 352 512 350 430 C 346 294 366 192 411 125 C 455 58 518 25 600 25 Z" unicode="O" />
<glyph horiz-adv-x="1303" d="M -111 20 C -85 22 -61 25 -41 29 C -21 33 -3 38 13 44 C 29 50 43 58 56 66 C 68 74 80 84 92 96 C 96 100 102 109 108 121 C 114 133 121 148 128 164 C 134 180 141 197 148 215 C 155 233 162 250 168 266 C 184 310 200 357 217 406 C 234 454 250 500 265 544 C 279 587 292 625 304 658 C 315 691 323 715 328 729 C 343 773 357 815 371 855 C 385 895 398 934 411 973 C 424 1012 437 1052 450 1092 C 463 1132 477 1174 492 1219 C 498 1238 504 1260 510 1284 C 516 1308 520 1329 520 1348 C 520 1370 514 1388 503 1402 C 492 1416 478 1426 461 1434 C 444 1441 426 1446 406 1449 C 386 1451 368 1453 352 1454 L 360 1475 C 383 1475 411 1475 444 1475 C 476 1475 512 1476 550 1476 C 588 1476 629 1476 671 1477 C 713 1477 756 1478 798 1478 C 840 1478 882 1478 922 1478 C 962 1478 1000 1479 1036 1479 C 1092 1479 1146 1472 1197 1459 C 1248 1445 1293 1424 1331 1396 C 1369 1368 1400 1332 1422 1288 C 1444 1244 1456 1191 1456 1130 C 1456 1068 1442 1010 1416 956 C 1389 902 1350 856 1299 816 C 1248 776 1185 745 1111 723 C 1037 701 952 690 858 690 C 847 690 831 690 810 690 C 789 690 766 691 742 692 C 717 693 692 695 666 697 C 640 699 618 701 598 705 C 585 667 573 632 563 600 C 552 568 541 537 531 505 C 521 473 510 439 498 403 C 486 367 473 327 459 281 C 453 265 448 248 443 232 C 437 215 432 199 428 184 C 424 169 420 155 418 143 C 415 130 414 120 414 113 C 414 98 419 85 429 75 C 439 64 453 55 469 48 C 485 40 502 34 522 30 C 542 25 561 22 580 20 L 573 0 L -117 0 L -111 20 Z M 657 727 C 751 727 832 738 898 762 C 964 785 1017 817 1058 858 C 1099 898 1129 946 1148 1001 C 1166 1055 1176 1114 1176 1178 C 1176 1233 1168 1278 1154 1314 C 1140 1349 1120 1377 1096 1397 C 1071 1417 1042 1430 1010 1438 C 978 1446 943 1450 907 1450 C 897 1450 888 1449 879 1449 C 869 1448 859 1447 848 1446 L 606 731 C 613 729 621 728 631 728 C 641 727 649 727 657 727 Z" unicode="P" />
<glyph horiz-adv-x="1479" d="M 864 -446 C 818 -446 775 -439 737 -425 C 698 -411 662 -395 629 -375 C 595 -355 564 -333 535 -309 C 505 -285 477 -263 449 -243 C 421 -223 392 -206 364 -192 C 336 -178 306 -172 276 -172 C 266 -172 258 -173 250 -176 C 242 -179 234 -183 228 -187 C 222 -191 216 -195 212 -199 C 207 -203 203 -206 201 -209 C 207 -213 214 -218 221 -223 C 227 -228 233 -234 239 -241 C 244 -248 248 -257 252 -267 C 256 -277 258 -289 258 -303 C 258 -317 254 -329 248 -340 C 242 -350 234 -359 224 -366 C 214 -373 204 -378 192 -382 C 180 -385 169 -387 158 -387 C 147 -387 136 -384 126 -380 C 116 -376 107 -370 99 -362 C 91 -354 84 -345 79 -334 C 74 -323 72 -311 72 -297 C 72 -277 77 -259 87 -244 C 97 -229 110 -216 128 -204 C 146 -192 167 -181 191 -171 C 215 -161 241 -151 270 -141 C 291 -133 316 -125 344 -115 C 372 -105 402 -95 434 -85 C 465 -74 497 -63 531 -52 C 564 -40 597 -29 629 -18 C 555 -20 485 -9 420 14 C 354 38 297 74 248 123 C 198 171 159 232 131 306 C 102 380 88 466 88 565 C 88 609 93 657 105 707 C 117 757 134 808 156 860 C 178 912 205 963 237 1015 C 269 1067 305 1116 345 1163 C 385 1210 430 1254 478 1294 C 526 1334 578 1369 634 1399 C 689 1429 747 1452 808 1469 C 869 1486 933 1495 999 1495 C 1064 1495 1128 1481 1191 1455 C 1253 1429 1309 1390 1359 1340 C 1408 1289 1448 1226 1478 1152 C 1508 1078 1524 993 1524 897 C 1524 838 1514 777 1495 713 C 1476 649 1449 585 1414 522 C 1379 459 1337 398 1289 340 C 1240 281 1186 228 1127 180 C 1067 132 1003 92 935 59 C 867 26 796 4 723 -8 L 369 -141 C 429 -147 482 -156 528 -170 C 574 -184 618 -198 660 -212 C 702 -226 745 -238 789 -249 C 833 -260 884 -266 942 -266 C 984 -266 1022 -261 1056 -252 C 1090 -243 1120 -231 1146 -216 C 1172 -200 1194 -182 1213 -161 C 1232 -140 1248 -118 1262 -94 L 1280 -102 C 1274 -120 1265 -142 1255 -166 C 1244 -190 1230 -214 1214 -240 C 1198 -266 1179 -291 1157 -316 C 1135 -340 1109 -362 1080 -381 C 1051 -400 1019 -416 983 -428 C 947 -440 907 -446 864 -446 Z M 600 25 C 646 25 694 37 744 61 C 794 85 844 120 893 164 C 941 208 988 262 1032 324 C 1076 386 1115 454 1149 530 C 1183 606 1210 687 1230 774 C 1250 861 1260 952 1260 1047 C 1260 1107 1256 1162 1248 1212 C 1240 1262 1227 1304 1209 1340 C 1191 1375 1167 1402 1137 1422 C 1107 1442 1071 1452 1028 1452 C 972 1452 916 1438 862 1410 C 808 1382 756 1345 707 1297 C 657 1249 611 1192 569 1127 C 527 1061 490 991 458 915 C 426 839 401 760 382 678 C 363 595 352 512 350 430 C 346 294 366 192 411 125 C 455 58 518 25 600 25 Z" unicode="Q" />
<glyph horiz-adv-x="1491" d="M -102 20 C -76 22 -53 25 -34 29 C -14 33 2 38 17 44 C 32 50 45 58 57 66 C 69 74 80 84 92 96 C 96 100 102 109 108 121 C 114 133 121 148 128 164 C 134 180 141 197 148 215 C 155 233 162 250 168 266 C 184 310 200 357 217 406 C 234 454 250 500 265 544 C 279 587 292 625 304 658 C 315 691 323 715 328 729 C 343 773 357 815 371 855 C 385 895 398 934 411 973 C 424 1012 437 1052 450 1092 C 463 1132 477 1174 492 1219 C 498 1238 504 1260 510 1284 C 516 1308 520 1329 520 1348 C 520 1370 514 1388 503 1402 C 492 1416 478 1426 461 1434 C 444 1441 426 1446 406 1449 C 386 1451 368 1453 352 1454 L 360 1475 C 402 1475 450 1475 502 1475 C 554 1475 609 1476 665 1477 C 721 1477 777 1478 835 1478 C 893 1478 949 1479 1004 1479 C 1067 1479 1126 1472 1181 1460 C 1235 1448 1283 1428 1324 1402 C 1364 1376 1396 1342 1419 1301 C 1442 1260 1454 1211 1454 1153 C 1454 1105 1443 1058 1423 1012 C 1402 965 1371 922 1329 883 C 1287 844 1235 810 1173 782 C 1110 754 1037 734 954 723 C 974 682 994 639 1015 595 C 1036 550 1057 506 1077 464 C 1097 422 1116 382 1134 344 C 1152 306 1169 274 1184 248 C 1207 204 1228 168 1247 140 C 1266 112 1285 89 1305 73 C 1324 56 1345 44 1369 36 C 1392 28 1420 23 1452 20 L 1446 0 L 1006 0 C 982 50 957 102 932 155 C 906 207 880 262 854 319 C 827 376 799 436 770 499 C 740 562 710 630 678 702 L 600 715 C 587 677 575 642 565 610 C 554 577 543 544 532 510 C 521 476 510 441 498 404 C 486 367 473 326 459 281 C 453 265 448 248 443 232 C 437 215 432 199 428 184 C 424 169 420 155 418 143 C 415 130 414 120 414 113 C 414 98 419 85 429 75 C 439 64 451 55 467 48 C 482 40 499 34 519 30 C 538 25 557 22 575 20 L 569 0 L -109 0 L -102 20 Z M 696 743 C 760 743 816 749 864 761 C 912 773 953 789 987 809 C 1021 829 1050 853 1072 880 C 1094 907 1112 936 1126 966 C 1139 996 1148 1026 1153 1057 C 1158 1088 1161 1118 1161 1147 C 1161 1190 1155 1230 1144 1267 C 1133 1304 1117 1336 1096 1363 C 1075 1389 1050 1410 1020 1425 C 990 1440 957 1448 920 1448 L 858 1448 C 850 1437 840 1414 827 1380 C 813 1345 798 1304 782 1258 C 765 1212 748 1162 730 1109 C 712 1055 695 1004 679 956 C 663 908 648 865 636 827 C 624 789 615 761 610 745 C 622 743 637 743 654 743 C 670 743 684 743 696 743 Z" unicode="R" />
<glyph horiz-adv-x="1141" d="M 506 -18 C 447 -18 394 -12 347 -1 C 299 9 258 22 222 38 C 186 53 157 69 133 85 C 109 101 92 115 82 125 L 8 47 L -8 55 L 141 535 L 168 530 C 166 518 164 504 163 488 C 162 472 162 455 162 438 C 162 390 170 342 188 292 C 205 242 229 196 259 154 C 289 112 326 78 368 52 C 410 25 456 12 506 12 C 548 12 587 19 622 33 C 657 47 687 67 713 91 C 738 115 758 144 772 178 C 786 211 793 247 793 285 C 793 307 790 328 786 348 C 781 368 774 388 765 408 C 755 428 743 448 729 469 C 714 490 696 513 676 537 C 656 559 635 581 613 604 C 591 627 568 651 545 675 C 522 699 500 723 478 748 C 456 772 437 797 420 823 C 408 840 396 858 386 878 C 375 897 365 918 357 940 C 349 962 342 986 337 1012 C 332 1038 330 1066 330 1096 C 330 1153 342 1206 366 1255 C 390 1304 423 1346 467 1382 C 510 1418 562 1446 624 1466 C 685 1486 753 1497 827 1497 C 863 1497 898 1493 932 1486 C 965 1479 996 1471 1024 1461 C 1052 1451 1077 1440 1099 1428 C 1121 1416 1138 1406 1151 1397 L 1204 1452 L 1225 1446 L 1116 977 L 1090 981 C 1091 991 1092 1000 1093 1010 C 1093 1019 1094 1028 1094 1038 C 1094 1062 1091 1089 1087 1119 C 1083 1149 1076 1180 1067 1212 C 1057 1243 1045 1274 1031 1304 C 1016 1334 998 1360 978 1384 C 957 1407 933 1426 907 1440 C 880 1454 850 1462 817 1462 C 775 1462 739 1454 709 1440 C 679 1425 653 1406 633 1383 C 613 1359 598 1333 588 1303 C 578 1273 573 1242 573 1212 C 573 1184 575 1160 580 1138 C 585 1116 593 1096 603 1076 C 613 1056 625 1035 640 1015 C 655 994 672 971 692 946 C 723 906 758 867 797 831 C 835 795 871 758 903 721 C 925 693 945 666 962 641 C 979 616 993 591 1005 567 C 1016 542 1024 517 1030 491 C 1035 465 1038 437 1038 408 C 1038 341 1023 281 995 229 C 966 176 927 131 879 95 C 831 58 774 30 710 11 C 646 -8 578 -18 506 -18 Z" unicode="S" />
<glyph horiz-adv-x="1276" d="M 111 20 C 163 24 205 32 237 44 C 269 56 296 73 319 96 C 323 100 329 109 335 121 C 341 133 348 148 355 164 C 361 180 368 197 375 215 C 382 233 389 250 395 266 C 411 310 428 357 445 406 C 462 454 478 500 493 544 C 507 587 520 625 531 658 C 542 691 550 715 555 729 C 563 755 574 786 586 823 C 598 859 612 899 626 941 C 640 983 654 1027 669 1073 C 684 1119 699 1164 713 1208 C 727 1252 741 1295 754 1335 C 766 1375 778 1410 788 1442 L 614 1444 C 594 1444 570 1438 544 1426 C 517 1414 489 1398 461 1379 C 432 1360 403 1339 373 1315 C 343 1291 316 1267 291 1244 C 265 1221 243 1200 223 1180 C 203 1160 188 1144 178 1133 L 160 1143 L 274 1475 L 1591 1475 L 1475 1135 L 1454 1135 C 1452 1151 1449 1171 1445 1193 C 1440 1215 1434 1237 1427 1259 C 1419 1281 1411 1303 1402 1325 C 1392 1347 1383 1366 1373 1383 C 1363 1400 1353 1414 1343 1424 C 1333 1434 1325 1440 1317 1440 L 1071 1442 C 1061 1411 1049 1374 1035 1332 C 1021 1290 1006 1245 990 1198 C 974 1151 959 1103 943 1055 C 927 1007 912 961 898 919 C 884 877 871 839 860 805 C 848 771 840 746 834 729 C 824 701 814 670 802 635 C 790 600 778 563 766 523 C 753 483 740 443 726 402 C 712 360 699 320 686 281 C 680 265 675 249 670 233 C 665 216 660 200 656 184 C 651 168 647 154 645 141 C 642 128 641 118 641 111 C 641 96 646 83 658 73 C 669 63 683 54 700 47 C 717 39 736 33 756 29 C 776 25 795 22 813 20 L 807 0 L 104 0 L 111 20 Z" unicode="T" />
<glyph horiz-adv-x="1518" d="M 690 -18 C 602 -18 528 -8 468 11 C 408 31 360 57 324 89 C 288 121 261 157 245 197 C 229 237 220 278 219 319 C 217 363 219 405 225 447 C 231 489 238 528 247 564 C 255 600 264 633 274 661 C 283 689 291 712 297 729 C 311 773 325 816 339 856 C 353 896 366 935 379 974 C 392 1013 405 1052 419 1092 C 432 1132 446 1174 461 1219 C 467 1238 473 1260 479 1284 C 485 1308 489 1329 489 1348 C 489 1370 483 1388 472 1402 C 461 1416 447 1426 431 1434 C 414 1441 396 1446 376 1449 C 356 1451 338 1453 322 1454 L 330 1475 L 1006 1475 L 997 1454 C 980 1452 964 1449 949 1447 C 934 1445 919 1441 905 1435 C 890 1429 875 1420 861 1410 C 847 1400 832 1386 817 1368 C 809 1358 800 1345 792 1329 C 784 1313 775 1295 767 1275 C 759 1255 751 1234 743 1212 C 735 1190 727 1168 719 1147 C 707 1114 696 1083 686 1055 C 676 1027 667 999 658 971 C 648 943 639 914 629 884 C 619 854 608 822 596 786 C 570 710 548 633 529 557 C 509 480 500 404 500 330 C 500 290 506 256 518 226 C 530 196 546 171 568 151 C 590 131 615 115 645 105 C 675 95 707 90 743 90 C 793 90 841 96 886 108 C 931 120 974 144 1014 179 C 1054 213 1093 262 1130 324 C 1167 386 1203 466 1237 565 C 1246 591 1255 620 1265 651 C 1275 681 1285 716 1297 754 C 1308 792 1321 834 1335 880 C 1349 926 1366 978 1384 1036 C 1392 1063 1400 1090 1408 1116 C 1416 1142 1423 1166 1429 1189 C 1435 1212 1439 1233 1443 1253 C 1446 1273 1448 1290 1448 1305 C 1448 1343 1430 1375 1396 1401 C 1362 1427 1313 1444 1251 1454 L 1260 1475 L 1786 1475 L 1778 1454 C 1725 1446 1681 1432 1645 1411 C 1609 1390 1577 1360 1548 1321 C 1540 1310 1531 1295 1522 1276 C 1513 1256 1504 1234 1494 1209 C 1484 1184 1474 1157 1464 1127 C 1454 1097 1443 1067 1432 1036 C 1421 1006 1409 971 1397 933 C 1384 894 1371 853 1357 810 C 1343 767 1328 723 1314 677 C 1299 631 1284 585 1270 541 C 1262 519 1252 489 1240 453 C 1227 417 1210 378 1190 337 C 1169 295 1144 253 1114 211 C 1084 169 1049 131 1009 97 C 969 63 922 35 869 14 C 816 -7 756 -18 690 -18 Z" unicode="U" />
<glyph horiz-adv-x="1434" d="M 70 -12 C 79 14 91 49 106 92 C 120 134 136 180 154 230 C 171 279 189 330 207 383 C 225 435 243 485 259 532 C 275 579 290 621 304 659 C 317 696 327 725 334 745 C 343 772 354 803 366 838 C 378 873 390 910 403 950 C 416 989 429 1029 443 1071 C 457 1113 470 1154 483 1194 C 493 1224 502 1254 510 1284 C 518 1314 522 1337 522 1354 C 522 1370 516 1385 505 1398 C 494 1410 480 1421 464 1429 C 447 1437 429 1444 409 1448 C 389 1452 370 1454 352 1454 L 360 1475 L 1040 1475 L 1032 1454 C 992 1450 957 1443 929 1431 C 900 1419 875 1402 854 1380 C 848 1375 842 1367 836 1355 C 829 1343 822 1330 815 1314 C 807 1298 800 1280 792 1262 C 784 1244 778 1226 772 1210 C 750 1148 726 1080 701 1006 C 675 932 650 858 624 782 C 598 706 573 631 548 557 C 523 483 500 414 479 352 C 573 438 662 521 747 601 C 831 680 910 753 982 820 C 1054 887 1118 947 1174 1000 C 1230 1052 1277 1096 1315 1130 C 1348 1160 1376 1189 1398 1215 C 1420 1241 1437 1265 1451 1285 C 1464 1305 1473 1323 1479 1338 C 1484 1352 1487 1364 1487 1372 C 1487 1386 1482 1397 1474 1407 C 1465 1416 1454 1424 1441 1430 C 1427 1436 1412 1441 1395 1445 C 1378 1449 1362 1452 1346 1454 L 1352 1475 L 1890 1475 L 1884 1454 C 1866 1452 1844 1447 1816 1439 C 1788 1431 1757 1418 1722 1401 C 1686 1383 1648 1360 1606 1332 C 1564 1303 1521 1267 1477 1225 C 1413 1165 1352 1107 1293 1052 C 1234 996 1176 941 1118 887 C 1060 832 1001 777 941 721 C 881 665 819 607 755 547 C 690 486 622 422 550 355 C 478 287 400 215 317 137 L 90 -25 L 70 -12 Z" unicode="V" />
<glyph horiz-adv-x="2130" d="M 123 -12 C 130 14 140 49 152 92 C 164 134 177 180 191 230 C 205 279 219 330 234 383 C 249 435 263 485 277 532 C 290 579 302 621 313 659 C 323 696 332 725 338 745 C 346 772 355 803 365 838 C 375 873 385 910 397 950 C 408 989 419 1029 431 1071 C 443 1113 454 1154 465 1194 C 473 1224 479 1254 485 1283 C 491 1312 494 1335 494 1352 C 494 1368 488 1383 477 1396 C 465 1408 451 1419 433 1428 C 415 1436 396 1443 376 1447 C 356 1451 337 1454 319 1454 L 326 1475 L 993 1475 L 987 1454 C 947 1450 914 1443 889 1431 C 864 1419 841 1402 821 1380 C 815 1375 809 1367 803 1355 C 797 1343 790 1329 784 1313 C 778 1297 771 1280 765 1262 C 758 1244 752 1226 748 1210 C 729 1146 709 1078 687 1004 C 665 930 643 856 621 780 C 599 704 577 628 555 554 C 533 480 514 410 496 346 C 565 424 635 504 707 586 C 778 667 847 745 913 820 C 979 895 1040 965 1098 1031 C 1155 1096 1205 1152 1247 1200 C 1255 1231 1262 1260 1268 1288 C 1273 1315 1276 1336 1276 1352 C 1276 1368 1270 1383 1259 1396 C 1248 1408 1234 1419 1218 1428 C 1201 1436 1183 1443 1163 1447 C 1143 1451 1124 1454 1106 1454 L 1112 1475 L 1776 1475 L 1769 1454 C 1729 1450 1694 1444 1665 1434 C 1636 1424 1611 1407 1591 1384 C 1585 1379 1580 1370 1574 1358 C 1568 1346 1562 1331 1556 1315 C 1550 1299 1544 1281 1538 1263 C 1532 1244 1526 1226 1522 1210 C 1510 1168 1497 1124 1484 1076 C 1470 1028 1456 979 1442 928 C 1428 877 1413 825 1399 773 C 1384 720 1369 668 1355 617 C 1341 565 1327 515 1314 466 C 1300 417 1288 371 1276 328 C 1362 420 1444 507 1521 589 C 1598 671 1669 747 1733 816 C 1797 884 1854 945 1904 999 C 1954 1053 1995 1097 2028 1133 C 2057 1165 2082 1194 2102 1220 C 2122 1246 2138 1268 2150 1288 C 2162 1308 2170 1324 2175 1338 C 2180 1351 2183 1362 2183 1370 C 2183 1384 2178 1396 2169 1406 C 2160 1416 2149 1424 2135 1430 C 2121 1436 2105 1441 2088 1445 C 2070 1449 2054 1452 2038 1454 L 2044 1475 L 2580 1475 L 2574 1454 C 2556 1452 2535 1449 2509 1443 C 2483 1437 2454 1425 2421 1409 C 2388 1393 2352 1370 2312 1341 C 2272 1312 2229 1274 2185 1227 L 1155 145 L 932 -25 L 911 -12 C 923 29 937 78 953 136 C 969 193 986 255 1004 321 C 1022 387 1041 456 1061 528 C 1081 599 1100 669 1120 739 C 1139 809 1157 876 1175 940 C 1192 1004 1208 1063 1223 1116 C 1159 1043 1095 969 1030 895 C 964 820 897 743 827 664 C 757 585 684 503 608 417 C 532 331 453 241 369 147 L 143 -25 L 123 -12 Z" unicode="W" />
<glyph horiz-adv-x="1413" d="M -164 20 C -134 21 -104 26 -74 35 C -44 44 -12 58 19 78 C 51 97 86 122 123 153 C 160 183 201 221 246 266 C 264 284 288 309 318 340 C 348 371 382 406 419 444 C 456 482 495 522 536 565 C 576 607 617 650 657 692 L 510 1171 C 504 1189 497 1208 491 1228 C 484 1248 477 1267 469 1286 C 461 1304 454 1322 446 1338 C 438 1354 430 1368 422 1380 C 409 1397 396 1410 383 1420 C 369 1429 355 1436 341 1441 C 327 1445 312 1448 297 1450 C 281 1451 265 1452 248 1454 L 256 1475 L 940 1475 L 932 1454 C 906 1452 881 1449 858 1446 C 835 1442 815 1438 798 1432 C 780 1426 766 1418 756 1409 C 746 1399 741 1388 741 1374 C 741 1366 742 1356 744 1345 C 746 1333 748 1321 752 1309 C 755 1297 758 1284 762 1272 C 765 1260 768 1249 772 1239 L 883 870 L 1163 1163 C 1173 1175 1186 1189 1200 1206 C 1214 1222 1228 1240 1241 1259 C 1254 1278 1265 1297 1274 1317 C 1283 1336 1288 1354 1288 1372 C 1288 1389 1283 1403 1274 1413 C 1265 1423 1253 1431 1238 1437 C 1223 1443 1206 1447 1187 1449 C 1168 1451 1148 1452 1128 1454 L 1130 1475 L 1673 1475 L 1671 1454 C 1641 1452 1611 1447 1581 1438 C 1551 1429 1520 1415 1488 1396 C 1455 1376 1420 1351 1384 1321 C 1347 1290 1306 1252 1262 1208 C 1244 1190 1222 1168 1197 1142 C 1171 1116 1143 1088 1111 1056 C 1079 1024 1045 989 1009 953 C 973 916 935 878 895 838 L 1065 303 C 1070 284 1076 264 1084 243 C 1091 222 1098 202 1106 182 C 1114 162 1121 145 1129 129 C 1136 113 1143 102 1149 94 C 1161 77 1173 64 1187 55 C 1200 45 1214 38 1228 34 C 1242 30 1257 27 1273 25 C 1289 23 1305 22 1323 20 L 1315 0 L 631 0 L 639 20 C 664 22 688 24 711 28 C 734 31 754 35 772 41 C 789 47 803 54 813 64 C 823 73 829 85 829 100 C 829 106 828 114 827 124 C 825 134 824 145 822 157 C 820 169 817 182 814 196 C 810 209 807 222 803 236 L 672 659 L 348 311 C 337 299 324 284 310 268 C 295 251 281 233 267 215 C 253 196 242 177 233 158 C 223 138 219 120 219 104 C 219 86 223 71 232 61 C 241 50 253 42 268 36 C 283 30 300 27 319 25 C 338 23 358 21 379 20 L 377 0 L -166 0 L -164 20 Z" unicode="X" />
<glyph horiz-adv-x="1317" d="M 160 20 C 186 22 209 25 229 29 C 249 33 266 38 282 44 C 298 50 312 58 324 66 C 336 74 348 84 360 96 C 364 100 370 109 376 121 C 382 133 389 148 396 164 C 402 180 409 197 416 215 C 423 233 430 250 436 266 C 471 361 502 446 528 521 C 554 596 576 661 594 715 L 428 1171 C 422 1188 415 1207 407 1229 C 399 1250 391 1270 383 1290 C 375 1310 367 1328 359 1344 C 351 1360 345 1372 340 1380 C 328 1397 316 1410 304 1420 C 291 1429 278 1436 264 1441 C 250 1445 235 1448 219 1450 C 203 1451 187 1452 170 1454 L 178 1475 L 834 1475 L 825 1454 C 803 1452 782 1450 761 1446 C 740 1442 721 1437 705 1431 C 689 1425 676 1417 666 1407 C 656 1397 651 1386 651 1372 C 651 1366 652 1358 655 1348 C 657 1337 660 1325 664 1312 C 668 1299 672 1286 676 1272 C 680 1258 684 1247 688 1237 L 862 756 L 1227 1163 C 1237 1174 1248 1188 1262 1204 C 1275 1220 1288 1238 1300 1257 C 1312 1276 1322 1295 1330 1315 C 1338 1335 1343 1354 1343 1372 C 1343 1386 1338 1399 1328 1409 C 1318 1419 1306 1428 1290 1434 C 1274 1440 1256 1444 1236 1447 C 1216 1450 1196 1452 1176 1454 L 1184 1475 L 1726 1475 L 1718 1454 C 1689 1452 1660 1447 1632 1439 C 1603 1430 1573 1416 1542 1397 C 1510 1378 1477 1353 1441 1322 C 1405 1291 1365 1253 1323 1208 C 1312 1197 1297 1181 1278 1160 C 1258 1139 1236 1115 1211 1088 C 1186 1061 1159 1032 1130 1000 C 1101 968 1071 935 1041 902 C 1011 869 981 836 951 804 C 921 771 894 741 868 713 L 727 281 C 715 245 705 211 696 180 C 686 149 682 126 682 111 C 682 96 688 83 700 73 C 712 63 728 54 746 47 C 764 39 783 33 804 29 C 825 25 844 22 862 20 L 856 0 L 154 0 L 160 20 Z" unicode="Y" />
<glyph horiz-adv-x="1247" d="M -49 20 L 1067 1440 L 686 1444 C 666 1444 642 1437 615 1424 C 588 1410 560 1393 530 1371 C 500 1349 471 1325 441 1299 C 411 1273 382 1247 356 1222 C 330 1196 307 1173 287 1151 C 267 1129 252 1113 242 1102 L 223 1112 L 350 1475 L 1393 1475 L 1386 1454 L 270 35 L 725 31 C 745 31 769 39 797 56 C 825 72 856 94 888 121 C 920 147 953 177 987 210 C 1021 243 1053 276 1083 309 C 1113 341 1140 372 1165 401 C 1189 430 1209 454 1223 473 L 1241 463 L 1077 0 L -55 0 L -49 20 Z" unicode="Z" />
<glyph horiz-adv-x="668" d="M 436 1475 L 901 1475 L 885 1425 L 524 1425 L -23 -170 L 338 -170 L 322 -219 L -143 -219 L 436 1475 Z" unicode="[" />
<glyph horiz-adv-x="698" d="M 57 1540 L 115 1556 L 584 -270 L 528 -285 L 57 1540 Z" unicode="\" />
<glyph horiz-adv-x="668" d="M -166 -170 L 195 -170 L 741 1425 L 381 1425 L 397 1475 L 862 1475 L 283 -219 L -182 -219 L -166 -170 Z" unicode="]" />
<glyph horiz-adv-x="1024" d="M 1051 958 L 674 1268 L 299 961 L 285 973 L 653 1475 L 698 1475 L 1067 973 L 1051 958 Z" unicode="^" />
<glyph horiz-adv-x="1024" d="M -186 -199 L 838 -199 L 838 -330 L -186 -330 L -186 -199 Z" unicode="_" />
<glyph horiz-adv-x="1024" d="M 336 1321 L 336 1331 C 342 1343 350 1356 360 1368 C 369 1380 380 1391 393 1401 C 406 1411 421 1418 437 1423 C 453 1427 472 1429 492 1427 L 676 1065 L 655 1053 L 336 1321 Z" unicode="`" />
<glyph horiz-adv-x="993" d="M 127 -10 C 101 -10 80 -7 63 -2 C 45 2 31 10 21 22 C 10 34 2 49 -2 69 C -7 88 -10 112 -10 141 C -10 183 -3 227 9 274 C 21 320 39 367 61 414 C 83 461 109 508 139 554 C 169 600 201 644 237 686 C 272 728 309 766 348 802 C 386 838 425 869 465 895 C 504 921 543 942 582 957 C 620 971 657 979 692 979 C 704 979 714 976 723 972 C 731 968 739 962 745 956 C 751 949 756 942 760 934 C 764 926 766 918 768 911 L 780 944 L 1010 989 L 1022 989 L 788 381 C 780 359 771 336 763 312 C 754 288 746 265 740 244 C 734 223 729 205 725 189 C 721 173 721 163 723 158 C 735 160 750 168 770 181 C 790 193 810 208 831 225 C 852 241 873 259 893 277 C 913 295 930 312 944 328 L 958 313 C 948 298 933 280 913 258 C 893 236 869 214 843 190 C 817 166 789 142 759 118 C 729 94 699 73 670 54 C 641 35 614 20 589 8 C 564 -4 544 -10 528 -10 C 507 -10 490 -4 478 5 C 465 15 459 34 459 61 C 459 73 462 89 468 110 C 474 131 481 155 490 181 C 499 207 509 234 521 264 C 532 293 543 322 553 352 L 545 354 C 530 329 513 303 493 276 C 473 248 452 221 430 194 C 408 167 384 141 360 117 C 335 92 310 70 284 52 C 258 33 231 18 205 7 C 178 -4 152 -10 127 -10 Z M 274 117 C 289 117 308 125 331 141 C 354 157 379 180 407 210 C 434 240 463 278 493 323 C 523 367 554 419 584 477 C 602 511 617 544 631 576 C 645 608 657 637 667 665 C 677 693 685 718 691 740 C 697 762 702 781 705 797 C 707 814 709 831 709 849 C 709 866 707 882 703 896 C 699 910 693 921 685 930 C 677 939 667 944 655 944 C 626 944 595 929 563 901 C 531 873 498 836 466 791 C 434 745 403 694 373 638 C 343 582 317 526 294 471 C 271 415 253 363 239 314 C 225 265 219 225 219 195 C 219 165 223 144 232 133 C 240 122 254 117 274 117 Z" unicode="a" />
<glyph horiz-adv-x="952" d="M 264 -10 C 226 -10 193 -5 165 4 C 137 13 113 26 94 43 C 74 59 60 79 50 102 C 40 124 35 149 35 176 C 35 218 41 262 54 308 C 66 354 80 400 96 444 L 457 1450 L 319 1462 L 319 1487 L 709 1487 L 453 768 L 459 766 C 479 795 501 823 523 849 C 545 875 569 898 594 918 C 619 938 646 953 675 965 C 704 977 736 983 770 983 C 796 983 821 978 845 969 C 868 960 888 947 905 929 C 922 911 936 888 946 862 C 956 835 961 804 961 768 C 961 713 951 656 932 596 C 913 536 887 478 854 420 C 820 362 781 308 736 256 C 691 204 643 158 591 119 C 539 79 486 48 430 25 C 374 1 318 -10 264 -10 Z M 319 25 C 337 25 357 33 378 51 C 398 69 419 92 441 122 C 463 152 484 186 506 225 C 528 264 549 305 569 349 C 589 392 607 436 625 481 C 642 525 657 568 671 609 C 684 650 695 688 703 722 C 711 756 717 785 719 807 C 721 843 719 868 711 882 C 703 896 692 903 678 903 C 661 903 640 896 616 883 C 592 869 566 849 539 822 C 511 795 484 762 457 722 C 430 682 406 635 385 582 C 367 538 349 494 333 450 C 317 406 302 363 290 322 C 278 281 268 243 261 208 C 253 172 250 142 250 117 C 250 89 254 67 262 50 C 270 33 289 25 319 25 Z" unicode="b" />
<glyph horiz-adv-x="700" d="M 190 -10 C 162 -10 137 -5 115 3 C 92 11 73 25 57 43 C 41 61 28 83 19 111 C 10 139 6 171 6 209 C 6 267 14 327 31 388 C 47 449 70 508 99 566 C 128 623 162 677 202 728 C 241 778 283 822 327 860 C 371 898 418 928 466 950 C 514 972 561 983 608 983 C 636 983 660 979 682 971 C 704 963 722 952 737 940 C 751 927 762 912 770 896 C 778 880 782 864 782 848 C 782 828 779 812 773 799 C 767 785 759 774 749 766 C 739 757 729 751 718 747 C 706 743 696 741 686 741 C 674 741 662 742 652 745 C 641 748 632 753 624 761 C 616 769 610 779 606 791 C 602 803 600 819 600 838 C 600 852 600 865 602 879 C 604 893 605 905 605 916 C 605 926 604 935 602 942 C 599 948 593 952 584 952 C 568 952 550 941 528 920 C 506 899 482 870 458 834 C 434 798 409 755 385 707 C 361 659 339 607 320 553 C 301 498 286 442 274 384 C 262 326 256 269 256 215 C 256 179 263 151 277 130 C 291 108 313 98 342 98 C 360 98 379 103 401 115 C 422 127 444 143 466 163 C 488 183 510 208 532 236 C 554 264 574 294 594 326 L 616 313 C 602 279 581 244 555 206 C 528 168 496 134 460 102 C 423 70 382 43 336 22 C 290 0 242 -10 190 -10 Z" unicode="c" />
<glyph horiz-adv-x="1022" d="M 123 -10 C 94 -10 70 -6 51 1 C 32 8 17 18 6 32 C -5 46 -13 62 -18 82 C -22 102 -25 124 -25 150 C -25 208 -14 268 6 332 C 27 396 55 458 90 519 C 125 580 165 638 211 693 C 256 748 303 796 352 838 C 400 880 449 913 498 938 C 546 962 591 975 633 975 C 649 975 663 973 675 969 C 687 965 697 961 706 955 C 714 949 721 943 727 936 C 733 928 737 921 741 913 L 901 1419 C 904 1428 904 1435 901 1439 C 897 1443 892 1446 885 1448 L 772 1464 L 772 1487 L 1165 1487 C 1146 1433 1126 1376 1106 1314 C 1086 1252 1065 1188 1043 1122 C 1021 1056 1000 990 978 923 C 956 856 934 790 913 726 C 892 662 872 600 853 541 C 834 481 817 427 801 377 C 794 355 787 334 780 313 C 772 291 766 271 760 252 C 754 233 749 216 745 202 C 741 188 739 178 739 172 C 739 164 739 159 741 155 C 743 151 747 150 754 150 C 762 150 776 156 795 168 C 813 180 834 196 856 214 C 878 232 899 251 921 272 C 942 292 959 311 973 328 L 987 313 C 977 297 963 279 944 257 C 925 235 903 212 878 188 C 852 164 825 140 797 117 C 768 93 739 72 711 53 C 682 34 654 19 628 7 C 602 -4 579 -10 559 -10 C 532 -10 512 -4 500 7 C 487 18 481 38 481 66 C 481 78 483 95 489 117 C 494 138 501 162 509 188 C 517 214 525 241 535 271 C 545 301 554 330 563 360 L 557 367 C 531 326 502 283 469 239 C 435 195 400 154 362 117 C 324 80 285 50 245 26 C 204 2 163 -10 123 -10 Z M 272 133 C 292 133 315 141 341 157 C 366 173 392 197 420 227 C 448 257 476 293 504 335 C 532 377 560 425 588 477 C 606 511 621 544 634 578 C 646 612 657 644 665 674 C 673 704 678 731 682 755 C 686 779 688 799 688 813 C 688 831 686 849 684 865 C 682 881 678 894 672 906 C 666 918 658 927 649 934 C 639 940 628 944 614 944 C 594 944 573 935 551 919 C 529 902 507 880 485 852 C 463 824 441 791 419 754 C 397 716 377 677 357 636 C 337 594 319 552 303 509 C 286 466 272 425 260 385 C 248 345 238 309 231 275 C 224 241 221 213 221 190 C 221 178 222 168 226 160 C 229 152 233 147 238 143 C 243 139 249 136 255 135 C 261 133 266 133 272 133 Z" unicode="d" />
<glyph horiz-adv-x="729" d="M 215 -10 C 187 -10 161 -6 136 0 C 110 5 88 16 68 31 C 48 45 33 64 21 88 C 9 112 4 141 4 176 C 4 231 12 289 30 350 C 47 411 70 472 100 532 C 130 592 165 649 205 703 C 245 757 287 805 333 847 C 379 888 426 921 474 946 C 522 970 570 983 618 983 C 645 983 669 979 689 972 C 709 964 726 955 740 944 C 754 932 764 919 771 905 C 778 891 782 876 782 862 C 782 832 775 803 761 773 C 747 743 721 712 685 681 C 648 649 598 617 536 584 C 473 550 393 516 295 481 C 277 433 265 390 259 353 C 253 316 250 284 250 256 C 250 208 259 174 279 154 C 298 133 327 123 365 123 C 388 123 412 128 437 138 C 461 148 485 163 509 181 C 533 199 555 220 577 245 C 598 269 617 296 635 324 L 657 311 C 641 277 619 242 589 204 C 559 166 524 132 484 100 C 444 68 402 42 356 21 C 310 0 263 -10 215 -10 Z M 305 510 C 370 535 422 562 462 592 C 502 622 532 652 554 682 C 575 712 589 742 597 772 C 604 801 608 828 610 854 C 611 884 607 907 599 922 C 591 936 579 944 565 944 C 547 944 527 931 505 905 C 482 879 459 845 435 804 C 411 762 388 716 365 664 C 342 612 322 561 305 510 Z" unicode="e" />
<glyph horiz-adv-x="532" d="M -281 -475 C -312 -475 -340 -471 -365 -463 C -390 -455 -411 -445 -429 -432 C -446 -419 -459 -404 -469 -387 C -478 -369 -483 -351 -483 -332 C -483 -322 -481 -311 -477 -301 C -473 -290 -467 -280 -459 -272 C -451 -264 -441 -257 -429 -252 C -417 -246 -404 -244 -389 -244 C -368 -244 -351 -247 -339 -254 C -327 -261 -317 -270 -310 -280 C -302 -290 -297 -302 -294 -314 C -290 -326 -287 -338 -285 -348 C -281 -360 -278 -371 -276 -382 C -274 -393 -271 -403 -268 -411 C -264 -419 -260 -426 -255 -432 C -249 -437 -242 -440 -233 -440 C -217 -440 -202 -434 -189 -422 C -175 -410 -163 -393 -151 -373 C -139 -352 -128 -328 -118 -302 C -108 -276 -98 -248 -89 -220 C -79 -191 -70 -162 -62 -134 C -53 -105 -45 -78 -37 -53 C 45 202 139 514 244 883 L 68 883 L 117 958 L 270 958 C 296 1029 326 1097 361 1161 C 396 1225 436 1281 481 1329 C 525 1377 575 1416 630 1444 C 685 1472 745 1487 811 1487 C 868 1487 914 1479 949 1465 C 983 1451 1010 1434 1029 1415 C 1048 1396 1061 1377 1067 1359 C 1073 1340 1077 1327 1077 1319 C 1077 1307 1075 1295 1072 1282 C 1068 1269 1063 1257 1055 1246 C 1047 1235 1037 1226 1025 1219 C 1013 1211 997 1208 979 1208 C 956 1208 938 1211 926 1218 C 913 1224 903 1233 896 1243 C 889 1253 884 1265 880 1279 C 876 1292 872 1305 868 1319 C 861 1337 855 1354 850 1370 C 845 1386 840 1399 834 1411 C 828 1423 820 1432 812 1439 C 804 1446 794 1450 782 1450 C 748 1450 718 1435 693 1407 C 668 1378 645 1340 625 1294 C 605 1247 586 1194 568 1136 C 550 1077 532 1018 514 958 L 743 958 L 690 883 L 492 883 C 480 843 466 799 451 750 C 436 700 420 648 404 594 C 387 539 369 483 351 426 C 333 368 315 312 297 257 C 279 201 261 148 243 98 C 225 48 209 3 193 -37 C 181 -65 165 -96 147 -129 C 129 -162 108 -195 85 -228 C 61 -260 35 -291 7 -321 C -20 -351 -50 -377 -82 -400 C -113 -422 -145 -440 -179 -454 C -212 -468 -246 -475 -281 -475 Z" unicode="f" />
<glyph horiz-adv-x="813" d="M 350 -481 C 283 -481 218 -474 155 -460 C 91 -446 35 -427 -14 -401 C -64 -375 -104 -344 -134 -308 C -164 -271 -180 -230 -180 -184 C -180 -123 -149 -71 -87 -29 C -25 12 66 44 186 66 C 168 80 151 94 135 108 C 118 122 103 138 90 154 C 77 170 67 186 59 203 C 51 220 47 238 47 258 C 47 277 54 295 68 311 C 82 327 100 340 123 351 C 146 361 172 369 201 375 C 229 380 259 382 289 381 C 235 407 195 441 171 482 C 147 523 135 566 135 612 C 135 662 147 709 172 754 C 196 799 228 839 268 873 C 307 907 351 933 400 953 C 449 973 498 983 547 983 C 585 983 620 977 652 965 C 684 953 709 937 727 918 C 748 934 771 949 795 963 C 819 977 843 985 868 985 C 904 985 930 977 946 963 C 962 948 971 932 971 915 C 971 894 965 875 953 859 C 941 842 923 834 901 834 C 881 834 866 838 856 846 C 846 854 837 862 831 872 C 825 882 819 891 814 899 C 808 907 801 911 793 911 C 782 911 772 909 762 907 C 752 905 744 902 739 899 C 753 878 765 855 774 831 C 783 807 788 782 788 758 C 788 713 777 667 757 619 C 737 571 708 528 672 488 C 635 448 591 416 540 390 C 489 364 433 352 371 352 C 362 352 353 353 344 356 C 334 358 326 361 319 365 C 290 360 270 353 258 344 C 246 334 240 326 240 319 C 240 311 243 302 250 293 C 257 284 266 275 276 265 C 286 255 298 246 310 237 C 322 227 334 219 344 211 C 360 197 382 180 408 160 C 434 140 461 119 489 97 C 516 75 542 55 567 35 C 592 15 611 0 625 -12 C 660 -45 689 -82 711 -122 C 733 -162 745 -202 745 -240 C 745 -281 733 -317 709 -347 C 685 -377 655 -402 617 -422 C 579 -442 536 -456 489 -466 C 442 -476 396 -481 350 -481 Z M 352 387 C 370 387 390 395 411 412 C 431 429 452 451 472 479 C 492 506 511 537 530 572 C 548 606 565 641 579 676 C 593 711 604 745 612 777 C 620 809 625 837 625 860 C 625 888 619 909 608 925 C 597 940 583 948 567 948 C 547 948 528 939 508 921 C 488 903 468 879 449 851 C 430 823 412 791 395 755 C 378 719 363 684 351 649 C 339 613 329 580 322 549 C 314 517 311 491 311 471 C 311 444 314 423 322 409 C 330 394 340 387 352 387 Z M 334 -442 C 370 -442 400 -437 424 -429 C 448 -420 467 -408 482 -394 C 497 -379 508 -362 514 -343 C 520 -324 524 -304 524 -283 C 524 -255 515 -227 497 -200 C 479 -173 456 -148 430 -125 C 415 -112 398 -98 380 -84 C 361 -69 342 -54 322 -39 C 302 -23 282 -8 262 6 C 242 21 224 35 207 49 C 173 31 145 11 123 -9 C 101 -29 83 -51 69 -73 C 55 -95 46 -118 40 -142 C 34 -166 31 -189 31 -213 C 31 -245 39 -276 57 -304 C 74 -332 97 -356 126 -376 C 154 -396 187 -412 223 -424 C 259 -436 296 -442 334 -442 Z" unicode="g" />
<glyph horiz-adv-x="1038" d="M 565 -10 C 540 -10 519 -4 501 7 C 483 18 474 35 473 59 C 471 82 474 106 482 132 C 489 157 496 180 504 201 C 510 216 517 236 527 261 C 536 285 546 312 558 340 C 569 368 581 398 593 428 C 605 458 616 487 627 515 C 637 542 647 567 656 589 C 664 611 671 628 676 641 C 690 680 701 713 709 740 C 717 767 721 788 721 803 C 721 815 719 825 717 833 C 714 841 706 846 694 846 C 676 846 658 838 640 824 C 621 809 602 792 584 774 C 538 728 496 681 457 631 C 418 581 389 531 371 481 C 364 463 354 436 342 400 C 329 364 315 324 299 280 C 283 236 267 189 251 140 C 234 91 218 44 203 0 L -41 0 L 453 1376 C 459 1392 462 1407 464 1420 C 466 1432 466 1442 465 1448 L 344 1464 L 344 1487 L 733 1487 L 426 633 L 432 631 C 468 686 505 736 543 780 C 580 824 618 862 657 894 C 695 925 734 949 774 966 C 813 982 853 991 893 991 C 911 991 925 988 937 982 C 949 976 958 968 965 959 C 972 949 977 939 980 928 C 983 916 985 905 985 895 C 985 873 981 848 974 818 C 966 788 956 757 944 725 L 727 141 L 733 141 C 749 151 767 162 787 176 C 806 189 826 204 846 220 C 866 236 887 252 907 270 C 927 288 947 306 965 326 L 979 311 C 971 300 958 285 939 265 C 920 245 898 223 873 199 C 847 175 820 151 790 127 C 760 102 731 79 703 59 C 675 39 648 22 624 9 C 600 -3 580 -10 565 -10 Z" unicode="h" />
<glyph horiz-adv-x="629" d="M 571 1184 C 553 1184 537 1187 522 1193 C 507 1199 494 1207 483 1218 C 471 1229 462 1242 456 1257 C 449 1272 446 1289 446 1307 C 446 1326 449 1344 456 1360 C 462 1376 471 1389 483 1401 C 495 1413 508 1422 524 1428 C 539 1434 555 1438 573 1438 C 591 1438 607 1434 623 1428 C 638 1421 651 1412 662 1401 C 673 1389 682 1376 688 1361 C 694 1345 698 1329 698 1311 C 698 1293 694 1277 688 1261 C 681 1245 672 1232 660 1221 C 648 1209 635 1200 620 1194 C 604 1187 588 1184 571 1184 Z M 143 -10 C 104 -10 78 -3 64 11 C 50 25 43 46 43 74 C 43 97 47 121 55 146 C 63 171 71 194 80 215 C 89 238 100 265 113 296 C 125 326 138 358 152 390 C 165 422 178 454 192 486 C 205 518 217 547 227 573 C 257 648 280 705 296 745 C 312 785 320 811 322 823 C 323 830 322 835 320 838 C 318 840 314 842 309 842 C 302 842 292 838 279 830 C 266 822 251 811 233 797 C 215 783 195 765 173 745 C 151 725 129 702 106 678 L 90 692 C 118 732 149 769 184 805 C 219 840 254 871 289 897 C 324 923 358 944 390 960 C 422 975 449 983 471 983 C 504 983 529 976 547 964 C 564 951 573 927 573 891 C 573 878 570 862 566 843 C 562 824 556 803 549 781 C 542 758 534 734 525 709 C 515 684 506 659 496 635 L 287 121 L 293 115 C 312 125 333 139 356 155 C 379 171 402 189 425 208 C 447 226 469 245 489 263 C 509 281 527 298 543 313 L 557 297 C 550 285 538 270 521 250 C 503 230 483 209 459 187 C 435 164 409 141 381 118 C 353 94 324 73 296 54 C 268 35 240 20 214 8 C 187 -4 163 -10 143 -10 Z" unicode="i" />
<glyph horiz-adv-x="596" d="M 567 1184 C 549 1184 533 1187 518 1193 C 503 1199 490 1207 479 1218 C 467 1229 458 1242 452 1257 C 445 1272 442 1289 442 1307 C 442 1326 445 1344 452 1360 C 458 1376 467 1389 479 1401 C 491 1413 504 1422 520 1428 C 535 1434 551 1438 569 1438 C 587 1438 603 1434 619 1428 C 634 1421 647 1412 658 1401 C 669 1389 678 1376 684 1361 C 690 1345 694 1329 694 1311 C 694 1293 690 1277 684 1261 C 677 1245 668 1232 656 1221 C 644 1209 631 1200 616 1194 C 600 1187 584 1184 567 1184 Z M -203 -475 C -234 -475 -262 -471 -287 -464 C -312 -456 -333 -446 -351 -434 C -369 -421 -382 -406 -392 -389 C -401 -371 -406 -352 -406 -332 C -406 -322 -403 -311 -399 -301 C -394 -290 -387 -280 -379 -272 C -370 -264 -360 -257 -348 -252 C -336 -246 -322 -244 -307 -244 C -286 -244 -269 -247 -257 -255 C -245 -262 -235 -271 -229 -281 C -222 -291 -217 -303 -214 -315 C -211 -327 -208 -338 -205 -348 C -201 -359 -197 -370 -194 -381 C -190 -392 -187 -402 -183 -411 C -179 -419 -175 -426 -171 -432 C -166 -437 -160 -440 -154 -440 C -138 -440 -121 -427 -104 -402 C -86 -377 -69 -345 -52 -307 C -34 -269 -17 -227 -1 -182 C 15 -136 31 -93 45 -53 C 65 3 85 59 104 115 C 123 171 142 230 162 291 C 182 352 202 417 223 485 C 244 553 267 628 291 709 C 293 717 296 727 299 738 C 301 749 304 760 306 771 C 308 781 309 791 311 799 C 312 807 313 813 313 817 C 313 826 312 832 310 834 C 308 836 304 838 299 838 C 293 838 283 833 269 823 C 255 813 238 798 219 779 C 199 760 178 737 154 709 C 130 681 104 650 78 614 L 61 629 C 89 680 123 727 161 771 C 199 814 238 851 277 883 C 316 914 353 938 388 956 C 423 974 451 983 473 983 C 508 983 533 975 547 961 C 561 946 569 921 571 887 C 571 875 570 859 567 840 C 563 821 559 800 554 778 C 548 755 542 731 535 706 C 527 681 520 657 512 633 C 501 599 488 556 473 505 C 457 453 440 397 421 337 C 402 277 381 214 359 150 C 337 85 313 23 289 -37 C 276 -66 260 -97 240 -131 C 220 -164 198 -197 173 -229 C 148 -261 121 -292 92 -322 C 62 -352 31 -378 0 -401 C -32 -423 -66 -441 -100 -455 C -134 -468 -168 -475 -203 -475 Z" unicode="j" />
<glyph horiz-adv-x="956" d="M 606 -10 C 594 -10 582 -8 570 -6 C 558 -4 547 0 537 7 C 527 13 517 22 508 34 C 499 45 491 60 485 78 C 473 106 463 137 454 171 C 444 204 436 238 428 272 C 420 306 414 340 408 374 C 402 407 397 438 393 467 L 365 469 L 203 0 L -41 0 L 453 1376 C 459 1392 462 1407 464 1420 C 466 1432 466 1442 465 1448 L 344 1464 L 344 1487 L 733 1487 L 438 666 L 446 662 C 478 707 511 749 546 789 C 581 828 616 862 650 891 C 684 919 717 942 749 958 C 780 974 808 983 834 983 C 858 983 881 980 901 975 C 921 969 938 960 953 948 C 967 936 979 920 987 900 C 995 880 999 857 999 829 C 999 807 991 783 976 755 C 960 727 936 699 904 671 C 872 643 830 615 780 588 C 729 561 668 538 598 520 C 606 487 615 455 624 423 C 633 391 642 361 650 333 C 658 305 665 279 673 257 C 680 234 686 215 692 201 C 698 184 706 169 714 157 C 722 145 733 139 748 139 C 756 139 765 142 776 149 C 787 155 799 164 811 176 C 823 188 836 201 850 217 C 863 233 876 250 889 268 L 907 252 C 889 224 868 195 844 165 C 820 134 795 106 768 80 C 741 54 714 32 686 15 C 658 -1 632 -10 606 -10 Z M 362 489 C 397 493 431 499 464 508 C 497 516 528 527 558 539 C 588 551 615 564 640 579 C 665 593 687 609 707 625 C 716 633 726 642 737 654 C 748 666 758 678 767 692 C 776 706 784 720 790 734 C 796 748 799 762 799 776 C 799 792 797 806 793 816 C 789 826 784 835 777 841 C 770 847 762 851 753 853 C 743 855 733 856 721 856 C 701 856 678 849 652 835 C 626 821 598 800 568 770 C 538 740 505 702 471 656 C 436 610 400 554 362 489 Z" unicode="k" />
<glyph horiz-adv-x="567" d="M 72 -12 C 36 -12 12 -6 0 4 C -12 15 -18 33 -18 59 C -18 62 -15 71 -11 87 C -6 103 0 120 5 139 C 11 157 18 175 24 193 C 30 210 34 222 37 229 L 477 1456 L 342 1464 L 342 1487 L 729 1487 L 250 133 L 256 129 C 271 134 290 145 313 162 C 335 178 359 198 384 220 C 408 242 432 265 455 290 C 477 315 496 338 512 360 L 528 348 C 516 324 499 299 479 273 C 458 246 435 219 409 193 C 383 166 356 140 327 116 C 297 91 268 69 238 50 C 208 31 179 16 151 5 C 122 -6 96 -12 72 -12 Z" unicode="l" />
<glyph horiz-adv-x="1565" d="M 1090 -10 C 1068 -10 1050 -3 1035 9 C 1019 21 1012 40 1012 66 C 1012 78 1013 90 1015 103 C 1017 115 1020 128 1024 141 C 1027 154 1031 167 1036 179 C 1040 191 1045 203 1049 213 C 1058 237 1069 266 1083 300 C 1097 334 1111 370 1126 406 C 1140 442 1154 476 1168 509 C 1182 541 1194 568 1204 590 C 1212 608 1220 627 1229 649 C 1237 671 1245 692 1252 713 C 1259 733 1265 752 1269 768 C 1273 784 1276 797 1276 805 C 1276 817 1274 825 1270 831 C 1266 837 1258 840 1247 840 C 1233 840 1216 833 1197 821 C 1177 808 1157 791 1136 771 C 1114 751 1093 728 1071 702 C 1049 676 1029 649 1010 623 C 990 597 973 571 958 546 C 943 521 932 499 924 481 C 904 436 886 394 869 354 C 851 314 834 274 817 236 C 800 198 783 159 767 121 C 751 82 735 42 719 0 L 475 0 C 495 43 515 87 535 133 C 555 178 574 223 593 267 C 611 311 629 353 647 395 C 664 436 679 474 693 510 C 707 545 718 576 728 604 C 738 631 745 653 750 670 C 755 690 759 708 763 722 C 766 736 769 748 771 758 C 773 768 774 777 775 785 C 775 793 776 801 776 809 C 776 818 773 825 769 831 C 765 837 759 840 752 840 C 728 840 701 829 673 809 C 645 789 617 763 589 731 C 561 699 534 663 508 624 C 482 585 459 547 440 510 C 426 483 411 451 395 414 C 379 377 361 336 343 292 C 325 248 306 201 286 152 C 266 102 245 52 225 0 L -20 0 C 4 56 28 112 52 169 C 76 225 98 279 118 329 C 138 379 156 425 172 467 C 188 509 201 543 211 571 C 225 608 236 639 245 665 C 254 691 261 712 267 730 C 273 748 277 762 280 774 C 282 785 284 795 285 805 C 286 814 285 820 281 824 C 277 827 273 829 268 829 C 252 829 226 812 191 779 C 155 746 111 699 59 637 L 43 651 C 75 698 109 742 145 783 C 181 823 217 859 253 889 C 289 919 323 942 356 959 C 389 976 419 985 446 985 C 471 985 492 978 508 966 C 524 953 532 931 532 899 C 532 859 526 817 514 771 C 502 725 483 670 459 606 L 465 604 C 497 658 531 708 567 754 C 603 800 640 841 677 875 C 714 909 751 935 787 954 C 823 973 858 983 891 983 C 937 983 969 971 988 949 C 1006 926 1016 896 1016 858 C 1016 845 1013 827 1008 803 C 1002 779 995 754 987 726 C 979 698 970 671 960 643 C 950 615 942 590 934 569 L 940 567 C 979 631 1020 688 1062 740 C 1104 791 1145 835 1187 871 C 1229 907 1269 934 1309 954 C 1349 973 1386 983 1421 983 C 1439 983 1454 979 1468 972 C 1481 965 1492 956 1500 944 C 1508 932 1515 920 1519 906 C 1523 892 1526 878 1526 864 C 1526 816 1513 760 1487 694 L 1266 152 L 1270 145 C 1289 155 1311 169 1335 187 C 1359 205 1383 224 1407 245 C 1430 266 1452 287 1473 308 C 1493 329 1510 348 1522 365 L 1538 350 C 1526 329 1509 306 1487 280 C 1465 254 1439 228 1411 202 C 1383 175 1353 149 1321 124 C 1289 98 1259 76 1230 56 C 1200 36 1173 20 1149 8 C 1124 -4 1104 -10 1090 -10 Z" unicode="m" />
<glyph horiz-adv-x="1053" d="M 600 -10 C 575 -10 554 -4 536 7 C 518 18 509 35 508 59 C 506 82 509 106 517 132 C 524 157 531 180 539 201 C 544 216 551 236 561 261 C 571 285 581 312 593 340 C 604 368 616 398 628 428 C 640 458 651 487 662 515 C 672 542 682 567 691 589 C 699 611 706 628 711 641 C 725 680 736 713 744 740 C 752 767 756 788 756 803 C 756 815 754 825 752 833 C 749 841 741 846 729 846 C 711 846 693 838 674 824 C 655 809 636 792 618 774 C 595 751 574 728 556 705 C 538 682 520 658 504 633 C 488 607 472 580 456 551 C 440 521 424 489 408 455 C 398 435 385 408 371 374 C 356 340 340 302 322 260 C 304 218 286 175 268 130 C 249 85 231 42 215 0 L -31 0 C 17 112 61 212 99 301 C 137 390 169 467 195 532 C 223 607 245 666 260 710 C 275 754 283 780 283 788 C 283 798 282 806 280 811 C 278 816 273 819 266 819 C 249 819 224 805 192 777 C 159 749 117 705 66 647 L 49 662 C 80 708 115 751 153 791 C 191 831 230 866 270 896 C 309 926 347 949 384 967 C 421 984 454 993 483 993 C 503 993 520 987 532 977 C 544 966 551 951 551 932 C 551 921 548 905 544 884 C 539 862 533 838 525 811 C 517 784 508 756 498 726 C 488 696 477 668 467 641 L 473 639 C 545 749 619 836 695 898 C 770 960 848 991 928 991 C 946 991 960 988 972 982 C 984 976 993 968 1000 959 C 1007 949 1012 939 1015 928 C 1018 916 1020 905 1020 895 C 1020 873 1016 848 1009 818 C 1001 788 991 757 979 725 L 762 141 L 768 141 C 784 151 802 162 822 176 C 841 189 861 204 881 220 C 901 236 922 252 942 270 C 962 288 981 306 999 326 L 1014 311 C 1006 300 993 285 974 265 C 955 245 933 223 908 199 C 882 175 855 151 825 127 C 795 102 766 79 738 59 C 710 39 683 22 659 9 C 635 -3 615 -10 600 -10 Z" unicode="n" />
<glyph horiz-adv-x="874" d="M 285 -10 C 259 -10 232 -3 202 9 C 172 22 144 41 118 67 C 92 92 70 123 53 161 C 35 199 27 243 27 293 C 27 351 34 409 50 467 C 66 525 87 579 115 631 C 142 683 174 731 211 775 C 248 819 288 857 330 889 C 372 921 415 946 461 964 C 507 982 552 991 598 991 C 626 991 656 983 687 968 C 717 952 745 931 771 903 C 796 875 817 841 833 802 C 849 762 858 719 858 672 C 858 628 850 581 836 531 C 822 480 802 429 776 379 C 750 328 719 279 683 233 C 647 186 608 145 566 109 C 524 73 479 44 431 22 C 383 0 335 -10 285 -10 Z M 281 20 C 298 20 319 34 343 63 C 367 91 393 129 420 175 C 447 221 474 274 501 333 C 528 392 553 452 576 513 C 598 574 617 633 633 691 C 648 748 658 798 662 842 C 666 887 664 918 656 935 C 648 952 634 961 616 961 C 599 961 581 951 561 933 C 541 915 521 890 500 859 C 478 827 457 791 435 750 C 413 709 392 666 372 620 C 352 574 333 528 315 481 C 297 434 281 389 267 347 C 253 304 242 265 234 229 C 226 193 221 164 221 141 C 219 95 222 64 232 46 C 242 28 258 20 281 20 Z" unicode="o" />
<glyph horiz-adv-x="1004" d="M -283 -453 L -201 -444 C -183 -442 -170 -435 -161 -424 C -151 -413 -142 -395 -133 -371 L 309 858 C 267 830 224 797 181 761 C 137 725 94 682 51 633 L 35 647 C 88 715 139 771 187 813 C 235 855 284 890 332 918 L 426 1149 L 678 1188 C 665 1156 652 1123 638 1087 C 624 1051 610 1015 596 977 C 613 981 630 984 647 987 C 663 989 680 991 696 991 C 787 991 857 968 907 922 C 956 876 981 808 981 719 C 981 659 972 599 956 541 C 940 482 917 426 889 372 C 861 318 827 269 789 223 C 751 177 710 138 666 105 C 622 71 576 45 528 26 C 480 7 433 -2 387 -2 C 354 -2 327 2 307 10 C 286 18 268 28 254 41 C 233 -17 212 -77 192 -137 C 172 -197 152 -255 133 -313 C 131 -317 129 -323 127 -333 C 124 -342 121 -352 119 -362 C 117 -372 115 -382 113 -392 C 111 -401 111 -408 111 -412 C 111 -420 114 -426 121 -431 C 128 -435 137 -439 148 -442 C 159 -444 171 -446 185 -448 C 199 -449 212 -451 225 -453 L 225 -475 L -283 -475 L -283 -453 Z M 387 27 C 421 27 453 38 483 62 C 513 85 541 115 567 153 C 593 191 616 234 636 282 C 656 330 674 378 688 428 C 702 477 713 525 721 572 C 729 619 733 660 733 696 C 733 731 731 764 728 795 C 725 825 720 852 713 875 C 705 897 695 915 683 928 C 670 941 654 948 635 948 C 626 948 617 947 608 946 C 599 944 590 942 580 938 C 533 819 485 690 436 552 C 386 413 336 269 285 121 C 289 109 295 97 301 86 C 307 75 315 65 323 56 C 331 47 340 40 350 35 C 360 29 373 27 387 27 Z" unicode="p" />
<glyph horiz-adv-x="948" d="M 164 -453 L 246 -444 C 254 -443 262 -441 268 -439 C 274 -436 280 -432 285 -427 C 290 -421 295 -414 299 -405 C 303 -396 307 -385 313 -371 L 477 92 C 442 59 406 34 368 18 C 330 2 298 -6 270 -6 C 244 -6 217 -1 187 6 C 157 14 130 28 104 47 C 78 66 57 91 40 122 C 22 153 14 191 14 236 C 14 298 23 361 41 423 C 59 485 83 544 114 600 C 145 656 181 707 222 755 C 263 803 306 844 352 879 C 398 914 444 941 492 961 C 540 981 586 991 631 991 C 651 991 667 988 681 984 C 694 980 705 974 714 968 C 722 961 729 953 734 944 C 738 935 742 926 745 918 L 760 952 L 985 991 L 997 991 L 578 -313 C 576 -317 573 -324 571 -333 C 568 -342 565 -352 563 -362 C 560 -372 558 -381 556 -390 C 554 -399 553 -406 553 -412 C 553 -419 556 -425 563 -430 C 570 -434 579 -438 591 -441 C 602 -443 614 -445 628 -447 C 641 -449 654 -451 668 -453 L 668 -475 L 164 -475 L 164 -453 Z M 272 18 C 295 18 319 27 344 45 C 368 63 393 88 418 120 C 442 151 466 187 490 229 C 514 270 536 314 558 360 C 579 406 599 453 617 501 C 635 549 651 595 665 639 C 678 683 688 724 696 762 C 704 800 708 832 709 858 C 710 886 706 911 696 931 C 686 951 672 961 655 961 C 636 961 616 953 594 937 C 572 921 550 899 526 871 C 502 843 479 811 455 774 C 431 736 408 696 386 654 C 364 611 343 567 324 521 C 304 475 287 429 272 384 C 257 339 245 296 236 254 C 227 212 222 173 221 139 C 219 95 222 64 230 46 C 238 27 252 18 272 18 Z" unicode="q" />
<glyph horiz-adv-x="819" d="M -14 0 C 8 56 31 112 53 169 C 75 225 95 280 115 332 C 135 384 153 432 169 476 C 185 520 199 558 211 590 C 237 662 256 719 267 759 C 277 799 283 823 283 831 C 283 838 282 843 280 847 C 278 850 275 852 270 852 C 264 852 255 848 243 842 C 231 835 216 824 199 809 C 181 794 162 775 140 752 C 118 728 94 700 70 666 L 51 678 C 83 730 118 776 157 816 C 196 856 234 889 272 915 C 310 941 345 961 377 975 C 409 988 434 995 453 995 C 476 995 494 989 507 979 C 519 968 526 950 526 926 C 526 912 524 895 521 876 C 517 857 513 837 508 816 C 503 795 497 774 491 753 C 484 732 477 712 471 694 L 477 692 C 512 749 545 797 577 835 C 608 873 637 904 665 927 C 693 949 719 965 744 975 C 768 984 791 989 813 989 C 830 989 846 985 861 978 C 876 971 889 962 900 951 C 911 939 920 926 926 910 C 932 894 936 878 936 862 C 936 846 933 832 928 818 C 922 804 914 792 904 782 C 894 771 881 763 867 757 C 852 751 835 748 817 748 C 795 748 777 751 763 759 C 749 767 738 776 729 788 C 720 800 713 813 707 827 C 701 841 696 854 690 868 C 668 862 644 848 618 826 C 592 803 568 776 544 744 C 520 712 497 678 477 642 C 457 606 441 572 430 541 C 410 487 392 437 375 390 C 358 342 342 297 326 253 C 310 209 294 167 279 125 C 263 83 247 42 231 0 L -14 0 Z" unicode="r" />
<glyph horiz-adv-x="651" d="M 158 -12 C 128 -12 99 -8 71 0 C 43 7 18 18 -3 32 C -25 46 -42 64 -56 86 C -69 107 -76 132 -76 160 C -76 186 -66 209 -46 227 C -26 245 -1 254 31 254 C 47 254 60 251 72 246 C 84 240 93 233 101 223 C 109 213 115 202 120 190 C 124 177 128 164 131 150 C 133 136 135 123 138 109 C 140 95 145 82 151 71 C 157 59 167 50 179 42 C 191 34 207 31 229 31 C 245 31 260 36 274 46 C 288 56 300 68 310 83 C 320 97 327 113 333 131 C 339 148 342 164 342 178 C 342 196 340 213 338 229 C 335 245 331 260 325 276 C 319 291 313 307 305 323 C 297 339 289 358 279 379 C 275 387 269 397 262 410 C 255 423 248 437 240 452 C 232 467 225 483 217 499 C 209 515 201 530 195 545 C 183 568 174 592 168 618 C 161 644 158 673 158 707 C 158 752 168 792 189 828 C 209 863 236 893 270 917 C 303 941 341 959 383 972 C 425 984 467 991 510 991 C 536 991 561 987 585 981 C 608 974 628 965 646 953 C 663 941 677 928 687 914 C 697 899 702 884 702 868 C 702 840 695 817 681 800 C 667 782 644 774 612 774 C 600 774 590 776 581 781 C 572 786 564 793 556 801 C 548 809 542 818 536 828 C 530 838 526 848 522 858 C 517 870 512 881 507 892 C 502 902 496 912 490 920 C 484 928 476 935 467 940 C 458 945 448 948 436 948 C 413 948 393 938 376 918 C 358 898 350 872 350 838 C 350 822 352 807 357 792 C 361 777 367 762 375 746 C 382 730 390 714 400 698 C 409 681 418 664 428 647 C 432 638 438 627 445 615 C 451 603 458 590 465 577 C 472 563 479 550 486 538 C 493 525 499 514 504 504 C 520 470 532 438 539 408 C 546 378 549 346 547 313 C 545 285 535 253 518 216 C 500 179 475 144 443 110 C 410 76 370 47 323 23 C 275 0 220 -12 158 -12 Z" unicode="s" />
<glyph horiz-adv-x="639" d="M 121 -10 C 89 -10 64 -2 46 13 C 27 29 18 51 18 80 C 18 91 19 104 22 118 C 25 132 28 145 32 158 C 36 171 39 183 43 193 C 47 203 49 211 51 215 C 55 225 61 242 70 267 C 79 291 90 321 102 356 C 114 390 128 429 144 472 C 160 514 176 559 193 607 C 210 654 228 702 246 752 C 264 801 281 849 299 897 L 143 897 L 188 977 L 328 977 L 406 1194 L 668 1253 L 563 977 L 791 977 L 741 897 L 539 897 C 519 845 500 792 480 739 C 460 686 442 637 425 591 C 408 545 393 504 380 468 C 367 432 358 406 352 389 C 342 363 333 339 325 316 C 317 292 309 271 303 252 C 297 232 292 215 288 201 C 284 187 283 176 283 168 C 283 158 284 152 287 149 C 289 146 293 145 299 145 C 307 145 317 149 331 157 C 344 165 359 175 375 189 C 391 202 408 217 426 234 C 444 250 461 267 477 284 C 493 301 508 317 522 333 C 536 349 547 363 555 375 L 573 362 C 565 348 551 329 532 305 C 512 281 490 256 464 228 C 438 200 409 172 378 144 C 347 116 316 90 286 68 C 255 45 225 26 197 12 C 168 -2 143 -10 121 -10 Z" unicode="t" />
<glyph horiz-adv-x="1053" d="M 139 -10 C 108 -10 85 0 71 18 C 56 36 49 59 49 86 C 49 107 52 132 60 162 C 68 191 78 222 90 256 L 299 815 C 299 824 295 829 289 829 C 278 829 263 822 245 810 C 227 798 207 782 186 764 C 165 746 144 726 123 705 C 101 683 82 663 66 645 L 49 659 C 63 679 80 701 101 725 C 121 749 144 773 168 798 C 192 822 218 846 246 869 C 273 892 300 913 327 931 C 354 949 380 963 406 974 C 432 985 455 991 477 991 C 505 991 526 985 540 973 C 554 961 561 946 561 928 C 561 898 557 871 550 847 C 542 823 535 800 528 780 C 522 764 514 743 505 719 C 495 695 485 668 474 640 C 463 612 452 582 440 552 C 428 522 417 493 406 466 C 395 438 385 413 377 391 C 369 369 362 352 358 340 C 344 302 334 269 326 241 C 318 213 314 192 313 180 C 311 168 313 157 317 148 C 321 139 329 135 342 135 C 355 135 372 142 393 157 C 413 172 436 192 461 217 C 502 258 538 305 570 359 C 601 412 632 471 664 535 C 669 547 678 569 691 601 C 704 633 719 670 736 712 C 753 754 771 798 791 846 C 810 893 828 938 846 981 L 1083 981 C 1077 966 1068 943 1056 913 C 1044 883 1031 849 1017 812 C 1002 774 986 735 970 694 C 954 652 938 613 923 576 C 908 538 895 505 883 475 C 871 445 863 424 858 410 C 850 388 840 362 830 334 C 820 306 810 278 802 252 C 794 226 787 202 782 182 C 777 161 776 147 778 141 C 797 149 817 160 838 175 C 858 190 879 206 899 224 C 919 242 938 260 956 278 C 974 296 990 312 1004 328 L 1018 313 C 992 273 960 234 924 196 C 888 157 850 122 811 92 C 771 62 732 37 694 18 C 656 0 622 -10 592 -10 C 582 -10 572 -9 564 -7 C 555 -5 547 -2 540 2 C 533 6 528 13 524 22 C 520 31 518 43 518 57 C 518 69 520 84 524 102 C 528 120 534 141 542 165 C 549 188 557 213 567 241 C 576 268 586 296 596 326 L 592 334 C 553 278 515 228 479 186 C 442 143 405 107 369 78 C 332 49 295 27 257 12 C 219 -2 179 -10 139 -10 Z" unicode="u" />
<glyph horiz-adv-x="981" d="M 389 -10 C 351 -10 317 -4 286 6 C 255 17 229 33 207 54 C 185 75 167 101 155 131 C 143 161 137 196 137 236 C 137 275 145 315 163 357 C 181 398 206 442 239 489 C 272 535 312 585 358 638 C 404 690 456 747 514 809 L 268 809 C 216 809 174 801 144 786 C 113 771 98 751 98 727 C 98 709 102 696 112 686 C 121 676 131 672 141 672 C 149 672 156 674 162 678 C 168 682 173 687 179 692 C 185 697 191 702 199 706 C 206 710 215 713 227 713 C 237 713 245 710 252 706 C 259 702 265 696 269 690 C 273 684 276 677 278 669 C 280 661 281 653 281 645 C 281 635 278 626 274 617 C 269 607 262 599 254 592 C 246 584 236 578 225 574 C 214 569 202 567 190 567 C 150 567 120 583 101 617 C 81 651 72 695 72 750 C 72 776 79 803 93 831 C 107 858 126 883 150 906 C 174 928 202 947 234 961 C 266 975 300 983 336 983 L 522 983 C 534 983 546 983 560 983 C 574 983 587 984 599 985 C 611 985 623 986 633 988 C 643 989 650 991 655 993 L 668 977 C 651 945 632 914 611 884 C 590 853 568 823 545 795 C 514 757 487 718 463 676 C 439 634 420 592 404 552 C 388 511 376 473 368 437 C 360 401 356 370 356 346 C 356 314 360 287 370 267 C 379 246 391 229 406 217 C 420 205 437 196 455 191 C 473 186 492 184 510 184 C 539 184 569 192 600 208 C 630 224 660 245 689 271 C 717 297 744 327 770 361 C 795 395 817 429 836 465 C 854 501 869 536 880 571 C 891 605 897 637 897 666 C 897 688 895 708 893 725 C 890 741 885 752 877 756 C 860 764 844 773 830 783 C 815 792 802 802 791 814 C 779 825 770 837 764 851 C 757 864 754 879 754 897 C 754 912 756 925 762 937 C 767 949 774 959 783 967 C 791 975 801 981 812 985 C 823 989 834 991 846 991 C 861 991 875 987 887 979 C 899 971 909 959 918 941 C 926 923 933 899 937 870 C 941 840 944 804 944 762 C 944 689 937 620 923 554 C 909 488 890 426 866 369 C 841 311 812 259 778 213 C 744 166 706 126 665 93 C 623 60 579 35 533 17 C 486 -1 438 -10 389 -10 Z" unicode="v" />
<glyph horiz-adv-x="1456" d="M 385 -10 C 337 -10 297 -4 263 6 C 229 17 201 33 179 54 C 157 75 142 101 132 131 C 122 161 117 196 117 236 C 117 275 128 315 150 357 C 172 398 202 442 240 489 C 278 535 322 585 373 638 C 423 690 477 747 535 809 L 268 809 C 216 809 174 801 144 786 C 113 771 98 751 98 727 C 98 709 102 699 112 695 C 121 691 131 690 141 690 C 148 690 154 691 160 693 C 166 695 172 698 178 701 C 184 704 190 707 198 709 C 206 711 215 713 227 713 C 237 713 245 710 252 706 C 259 702 265 696 269 690 C 273 684 276 677 278 669 C 280 661 281 653 281 645 C 281 635 278 626 274 617 C 269 607 262 599 254 592 C 246 584 236 578 225 574 C 214 569 202 567 190 567 C 150 567 120 583 101 617 C 81 651 72 695 72 750 C 72 776 79 803 93 831 C 107 858 126 883 150 906 C 174 928 202 947 234 961 C 266 975 300 983 336 983 L 543 983 C 555 983 567 983 581 983 C 594 983 607 984 620 985 C 632 985 644 986 654 988 C 664 989 671 991 676 993 L 688 977 C 671 945 652 914 631 884 C 610 853 588 823 565 795 C 534 757 506 717 480 673 C 454 629 431 586 412 544 C 393 502 378 462 367 425 C 356 387 350 356 350 332 C 348 266 361 216 389 184 C 417 151 456 135 506 135 C 528 135 552 137 578 143 C 603 148 624 157 641 170 C 629 204 623 251 623 309 C 623 360 629 412 641 465 C 653 517 669 568 689 617 C 709 666 733 712 759 756 C 785 799 813 837 841 869 C 869 901 898 926 927 945 C 955 963 982 973 1008 973 C 1026 973 1043 969 1058 961 C 1072 953 1085 943 1095 930 C 1105 916 1112 901 1118 883 C 1123 865 1126 845 1126 825 C 1126 779 1117 732 1100 684 C 1083 636 1060 588 1031 541 C 1002 493 969 447 931 403 C 893 358 853 317 811 279 C 827 253 850 232 878 217 C 906 202 941 195 983 195 C 1011 195 1040 202 1070 218 C 1100 234 1130 255 1159 281 C 1188 307 1216 338 1242 373 C 1268 407 1291 444 1311 482 C 1331 520 1346 559 1358 599 C 1370 639 1376 677 1376 713 C 1376 736 1374 751 1371 759 C 1367 767 1361 772 1352 774 C 1334 777 1318 780 1303 784 C 1287 788 1274 793 1263 801 C 1251 809 1242 819 1235 833 C 1228 847 1225 865 1225 889 C 1225 909 1228 925 1234 938 C 1240 951 1248 962 1258 970 C 1268 978 1278 983 1289 986 C 1300 989 1311 991 1321 991 C 1353 991 1378 972 1394 936 C 1410 900 1419 842 1419 764 C 1419 698 1412 633 1398 569 C 1384 505 1364 445 1340 388 C 1315 330 1286 277 1252 229 C 1218 180 1182 138 1142 103 C 1102 67 1060 40 1016 20 C 972 0 927 -10 883 -10 C 829 -10 781 3 739 31 C 697 59 667 97 649 147 C 625 123 604 102 585 83 C 565 63 546 47 527 33 C 507 19 486 9 464 1 C 441 -6 415 -10 385 -10 Z M 801 301 C 853 361 892 426 920 498 C 947 569 961 640 961 711 C 961 726 959 741 956 755 C 953 769 949 781 943 792 C 937 803 930 812 922 819 C 914 825 904 829 893 829 C 869 829 849 821 832 806 C 815 790 801 770 790 744 C 778 718 770 688 764 654 C 758 620 756 585 756 549 C 756 526 757 503 760 480 C 762 457 766 435 770 413 C 774 391 778 371 784 352 C 789 332 795 315 801 301 Z" unicode="w" />
<glyph horiz-adv-x="905" d="M 25 -10 C -5 -10 -28 1 -45 23 C -61 45 -70 73 -70 109 C -70 149 -62 187 -47 224 C -32 261 -13 298 10 336 L 31 328 C 15 292 8 259 8 229 C 8 201 14 180 26 168 C 38 156 56 150 80 150 C 117 150 159 173 205 221 C 251 268 302 337 358 428 C 354 456 349 487 345 521 C 340 555 335 589 331 622 C 326 654 321 685 317 713 C 313 741 309 764 307 780 C 301 805 295 825 287 839 C 279 853 270 860 260 860 C 251 860 240 854 226 842 C 212 830 196 815 180 796 C 163 776 146 754 128 730 C 110 706 92 681 76 655 L 59 668 C 84 714 109 756 133 796 C 157 835 183 869 209 898 C 235 927 263 950 293 966 C 322 982 355 991 391 991 C 409 991 426 987 440 980 C 454 973 467 964 477 952 C 487 940 496 928 503 914 C 509 900 514 886 518 872 C 528 834 537 792 544 747 C 551 702 557 654 563 604 C 593 656 621 706 648 753 C 675 800 702 841 728 876 C 754 911 780 939 806 960 C 832 980 860 991 889 991 C 919 991 942 979 957 956 C 971 932 979 904 979 870 C 979 851 976 832 972 813 C 967 793 961 774 954 756 C 946 737 938 719 929 701 C 919 683 910 667 901 651 L 881 659 C 888 673 894 690 898 710 C 902 729 905 748 905 768 C 905 787 900 802 891 814 C 881 825 867 831 848 831 C 830 831 811 826 793 817 C 774 808 754 793 732 773 C 710 752 686 724 660 690 C 634 656 604 613 571 563 C 575 531 580 499 586 466 C 591 432 596 400 602 368 C 607 336 612 307 618 279 C 623 251 628 227 633 207 C 638 184 644 164 650 148 C 656 131 667 123 682 123 C 691 123 703 127 718 135 C 732 143 748 153 765 167 C 781 181 798 197 815 215 C 832 233 848 252 862 272 L 879 256 C 861 229 839 200 812 169 C 784 138 755 109 724 83 C 693 56 661 34 629 16 C 596 -1 565 -10 537 -10 C 501 -10 475 0 457 21 C 439 41 425 73 414 115 C 402 157 393 199 385 243 C 377 287 369 335 362 387 C 326 321 293 264 265 215 C 237 165 210 124 184 91 C 158 57 132 32 107 15 C 81 -1 54 -10 25 -10 Z" unicode="x" />
<glyph horiz-adv-x="879" d="M -256 -477 C -281 -477 -304 -473 -325 -467 C -345 -461 -363 -452 -378 -441 C -392 -429 -404 -416 -412 -401 C -420 -385 -424 -369 -424 -352 C -424 -340 -422 -329 -418 -317 C -414 -305 -408 -295 -400 -285 C -392 -275 -382 -267 -370 -261 C -358 -255 -344 -252 -328 -252 C -312 -252 -298 -255 -286 -262 C -274 -268 -263 -276 -254 -286 C -244 -296 -236 -306 -228 -318 C -220 -330 -212 -340 -204 -350 C -196 -360 -188 -368 -180 -375 C -172 -381 -162 -385 -152 -385 C -114 -385 -75 -378 -35 -364 C 4 -350 41 -332 76 -308 C 111 -284 143 -255 171 -223 C 199 -191 220 -156 236 -119 C 240 -69 244 -19 246 31 C 248 81 249 129 249 176 C 249 223 249 268 248 312 C 247 355 246 395 246 432 C 244 468 243 503 243 536 C 242 568 241 600 240 631 C 239 661 238 691 236 721 C 234 750 232 780 229 811 C 227 826 221 834 211 834 C 205 834 196 829 184 819 C 172 809 157 796 141 778 C 125 760 107 739 87 715 C 67 691 45 664 23 635 L 6 649 C 36 699 67 746 100 788 C 133 830 166 866 198 896 C 230 926 261 949 290 966 C 318 982 343 991 365 991 C 390 991 411 981 428 962 C 444 943 455 915 461 877 C 462 867 464 852 466 832 C 468 812 471 788 473 761 C 475 734 476 704 478 672 C 480 639 481 605 483 571 C 483 537 484 502 485 468 C 486 433 486 396 485 358 C 484 319 482 278 479 234 C 476 190 471 143 465 92 C 501 144 535 195 568 246 C 600 296 629 346 653 396 C 677 445 697 493 711 541 C 725 589 733 636 733 684 C 733 714 730 738 724 756 C 718 774 711 791 703 806 C 695 820 689 835 683 849 C 677 863 674 881 674 903 C 674 917 676 929 682 940 C 687 950 694 959 703 967 C 711 975 721 981 732 985 C 742 989 753 991 764 991 C 800 991 827 980 846 958 C 864 936 874 908 874 874 C 874 860 872 843 870 824 C 868 804 864 784 859 763 C 854 741 848 719 841 696 C 833 673 825 651 815 629 C 793 579 770 529 745 481 C 720 433 692 383 661 332 C 630 280 595 226 556 169 C 516 111 472 48 422 -20 C 368 -94 309 -159 246 -216 C 182 -273 120 -321 58 -360 C -3 -398 -61 -427 -116 -447 C -171 -467 -218 -477 -256 -477 Z" unicode="y" />
<glyph horiz-adv-x="909" d="M -51 -10 C -63 -10 -75 -6 -87 2 C -98 10 -104 23 -106 43 C -106 61 -100 77 -88 92 C -75 106 -59 120 -40 133 C -21 145 -1 157 20 169 C 41 181 60 193 78 205 C 102 222 129 244 161 272 C 192 300 224 329 257 360 C 289 390 321 421 352 451 C 383 481 410 506 434 528 C 482 572 524 609 562 640 C 599 670 630 696 655 717 L 582 721 C 550 731 520 743 493 759 C 465 774 439 789 414 803 C 389 817 364 830 340 840 C 315 850 289 856 262 856 C 232 856 208 849 192 835 C 176 821 168 804 170 784 C 170 772 173 763 179 757 C 184 751 191 747 199 745 C 207 742 215 741 225 741 C 235 741 244 741 252 741 C 263 741 275 739 287 735 C 299 731 311 725 322 718 C 332 710 341 701 348 690 C 354 679 358 667 358 653 C 358 626 348 603 330 585 C 311 566 284 557 250 557 C 229 557 211 561 195 569 C 179 577 165 588 153 602 C 141 616 133 634 127 654 C 121 674 117 695 117 719 C 116 745 122 773 134 804 C 146 835 166 864 192 891 C 218 918 250 941 290 959 C 329 977 376 987 430 987 C 470 987 509 980 546 968 C 582 956 616 942 647 928 C 678 914 706 900 731 888 C 756 876 778 870 797 870 C 813 870 825 873 833 879 C 841 885 846 893 849 903 C 852 912 854 922 856 933 C 857 944 860 955 864 965 C 877 993 900 1008 934 1008 C 954 1008 968 1002 975 991 C 981 980 985 969 985 958 C 984 944 977 931 965 921 C 952 911 936 900 918 889 C 899 878 879 866 857 852 C 835 838 814 822 795 803 C 778 786 758 766 735 744 C 712 722 688 699 663 675 C 637 651 612 628 588 606 C 563 583 541 563 522 545 C 502 526 479 505 454 483 C 429 461 404 439 380 418 C 356 396 333 377 313 359 C 292 341 276 328 266 319 L 379 326 C 412 318 441 304 466 284 C 491 264 515 243 539 221 C 563 199 588 180 614 164 C 640 147 671 139 707 139 C 726 139 742 143 755 151 C 767 159 777 168 785 180 C 792 192 797 204 800 218 C 802 231 803 243 803 254 C 801 270 798 282 794 290 C 789 297 781 301 770 301 C 758 301 748 299 740 296 C 731 293 722 290 714 286 C 706 282 697 279 687 276 C 677 273 665 272 651 272 C 641 272 630 273 619 276 C 607 278 597 283 588 289 C 578 295 570 303 564 313 C 557 323 553 335 553 350 C 551 368 554 384 560 399 C 566 413 575 426 587 436 C 598 446 611 454 627 460 C 642 466 658 469 676 469 C 704 469 728 463 748 452 C 768 441 785 426 799 408 C 812 390 822 369 829 346 C 835 322 839 298 840 274 C 840 240 833 206 819 172 C 804 138 784 108 758 81 C 732 54 702 32 667 15 C 632 -1 595 -10 557 -10 C 523 -10 493 -5 466 5 C 438 15 413 27 390 42 C 367 57 345 73 325 91 C 305 109 285 125 265 140 C 245 155 225 168 205 178 C 185 188 163 193 141 193 C 121 193 106 188 96 180 C 86 171 78 160 73 147 C 67 134 63 120 61 106 C 58 91 55 78 51 66 C 43 42 31 23 15 10 C -1 -3 -23 -10 -51 -10 Z" unicode="z" />
<glyph horiz-adv-x="627" d="M 166 -252 C 150 -252 130 -245 106 -231 C 82 -217 58 -200 36 -179 C 14 -157 -5 -134 -21 -108 C -37 -82 -45 -56 -45 -31 C -45 -1 -39 25 -27 49 C -15 73 0 94 18 113 C 36 131 56 148 78 163 C 100 178 121 193 141 207 C 160 219 179 232 197 248 C 215 264 232 281 246 300 C 260 319 271 340 280 362 C 288 384 293 409 293 436 C 293 464 287 490 275 514 C 263 538 248 560 230 579 C 211 597 190 613 167 625 C 143 637 120 645 98 649 L 106 674 C 112 672 119 671 125 671 C 131 670 137 670 145 670 C 175 670 208 675 244 686 C 279 696 312 712 342 734 C 372 756 396 783 416 816 C 436 848 446 887 446 932 C 446 958 441 983 432 1005 C 422 1027 411 1049 399 1071 C 385 1093 373 1116 362 1140 C 351 1164 346 1191 346 1223 C 346 1249 352 1274 364 1297 C 376 1320 391 1341 411 1360 C 431 1379 453 1396 478 1411 C 503 1426 528 1439 553 1449 C 578 1459 602 1467 626 1473 C 649 1478 669 1481 686 1481 C 704 1481 717 1477 723 1471 C 729 1464 733 1456 733 1446 C 733 1438 730 1428 725 1417 C 720 1405 714 1394 707 1384 C 699 1386 689 1388 679 1390 C 668 1392 657 1395 645 1397 C 633 1399 622 1400 611 1402 C 599 1404 589 1405 580 1405 C 566 1405 550 1403 533 1401 C 515 1399 499 1394 484 1386 C 469 1378 457 1367 447 1353 C 437 1338 432 1318 432 1294 C 432 1280 434 1266 440 1250 C 446 1234 453 1218 461 1202 C 469 1186 478 1170 488 1155 C 497 1140 505 1127 512 1116 C 526 1090 540 1063 552 1035 C 564 1006 571 974 571 938 C 571 894 560 855 538 821 C 516 787 488 757 453 733 C 418 709 378 689 334 675 C 290 661 245 651 201 647 L 199 643 C 223 631 248 618 273 603 C 298 587 321 570 342 551 C 362 532 379 512 392 490 C 405 468 412 444 412 420 C 412 388 406 357 394 328 C 382 299 367 272 349 248 C 331 224 310 202 288 182 C 266 162 244 145 223 131 C 199 115 175 100 151 84 C 126 68 103 52 83 34 C 62 16 45 -2 32 -22 C 18 -42 12 -64 12 -88 C 12 -107 19 -121 33 -131 C 47 -141 64 -148 84 -153 C 104 -157 126 -160 150 -161 C 173 -162 194 -163 213 -164 C 214 -168 215 -173 216 -181 C 216 -188 217 -193 217 -197 C 217 -212 213 -225 205 -236 C 197 -246 184 -252 166 -252 Z" unicode="{" />
<glyph horiz-adv-x="539" d="M 207 -279 L 207 1606 L 332 1606 L 332 -279 L 207 -279 Z" unicode="|" />
<glyph horiz-adv-x="627" d="M -6 -250 C -24 -250 -37 -246 -43 -240 C -49 -234 -53 -225 -53 -215 C -53 -207 -50 -197 -45 -186 C -40 -174 -34 -164 -27 -154 C -19 -155 -9 -157 1 -159 C 11 -161 22 -164 34 -166 C 45 -168 56 -169 68 -171 C 79 -173 90 -174 100 -174 C 114 -174 129 -172 146 -170 C 163 -168 179 -163 194 -155 C 209 -147 222 -136 232 -122 C 242 -107 248 -87 248 -63 C 248 -49 245 -35 239 -19 C 233 -3 226 13 218 29 C 210 45 201 60 192 75 C 182 90 174 103 168 115 C 153 140 139 167 127 196 C 115 224 109 257 109 293 C 109 337 119 376 141 410 C 163 444 191 473 226 497 C 261 521 301 541 345 555 C 389 569 433 579 479 584 L 481 588 C 456 599 431 612 406 628 C 380 643 357 660 337 679 C 317 698 300 719 287 741 C 274 763 268 786 268 811 C 268 843 273 873 285 902 C 297 930 312 957 330 982 C 348 1006 369 1028 391 1048 C 413 1068 435 1085 457 1100 C 479 1115 503 1130 528 1146 C 553 1162 576 1178 597 1196 C 617 1214 634 1233 648 1253 C 661 1273 668 1295 668 1319 C 668 1337 661 1352 647 1362 C 633 1372 615 1379 595 1384 C 574 1388 552 1391 529 1392 C 506 1392 485 1393 467 1395 C 465 1399 464 1404 464 1411 C 463 1418 463 1423 463 1427 C 463 1442 466 1455 474 1466 C 482 1477 495 1483 514 1483 C 530 1483 550 1476 574 1462 C 598 1448 621 1431 643 1410 C 665 1388 685 1364 701 1338 C 717 1312 725 1286 725 1262 C 725 1232 719 1205 707 1181 C 695 1157 679 1136 661 1118 C 643 1099 623 1082 601 1067 C 579 1052 559 1038 539 1024 C 519 1010 501 996 483 980 C 465 964 448 947 434 929 C 420 910 408 890 400 868 C 391 846 387 821 387 795 C 387 767 392 740 404 716 C 416 692 431 670 449 652 C 467 633 488 618 512 606 C 535 594 558 586 582 582 L 573 557 C 567 558 561 559 555 560 C 549 560 542 561 535 561 C 504 561 471 555 436 545 C 400 534 368 518 338 496 C 308 474 283 447 263 415 C 243 382 233 343 233 299 C 233 272 237 247 247 224 C 257 200 268 179 281 160 C 294 137 306 114 317 90 C 328 66 334 39 334 8 C 334 -18 328 -43 316 -66 C 304 -89 288 -110 268 -130 C 248 -149 226 -166 201 -181 C 176 -195 151 -208 126 -218 C 101 -228 77 -236 54 -242 C 30 -247 10 -250 -6 -250 Z" unicode="}" />
<glyph horiz-adv-x="1024" d="M 975 913 C 963 869 950 831 934 797 C 918 763 898 735 876 713 C 853 690 826 673 796 663 C 766 653 730 649 690 653 C 670 654 648 659 624 668 C 600 676 575 685 550 695 C 525 705 501 713 477 721 C 453 729 432 733 414 733 C 394 733 376 731 360 728 C 343 724 327 719 313 711 C 299 703 285 692 273 678 C 260 664 248 647 236 627 L 215 629 C 238 717 272 783 317 825 C 362 867 420 885 492 879 C 516 877 539 871 563 863 C 586 854 609 845 632 836 C 655 827 678 819 702 812 C 725 804 748 801 772 801 C 792 801 811 802 828 806 C 845 809 861 815 876 824 C 890 832 904 844 916 859 C 928 874 940 894 952 918 L 975 913 Z" unicode="~" />
<glyph horiz-adv-x="676" d="M 47 -473 C 35 -473 22 -470 10 -466 C -1 -462 -13 -455 -23 -445 C -33 -435 -41 -423 -47 -409 C -53 -394 -57 -376 -57 -356 C -57 -344 -56 -333 -55 -324 C -53 -315 -50 -304 -46 -292 C -42 -280 -36 -265 -28 -247 C -20 -229 -9 -205 4 -176 C 14 -154 29 -123 49 -85 C 69 -47 91 -3 116 44 C 141 92 168 144 197 200 C 226 255 255 311 284 367 C 313 423 341 479 369 534 C 396 588 420 639 442 686 L 463 680 C 447 626 431 564 414 496 C 397 428 380 358 362 286 C 344 214 327 142 311 72 C 295 2 280 -62 266 -121 C 252 -179 241 -229 231 -270 C 221 -311 214 -338 211 -352 C 203 -376 194 -396 182 -412 C 170 -428 156 -440 141 -449 C 126 -458 110 -464 94 -468 C 78 -471 62 -473 47 -473 Z M 520 750 C 501 750 483 753 467 760 C 451 767 436 777 424 789 C 412 801 402 815 395 831 C 388 847 385 864 385 883 C 385 902 388 920 395 937 C 402 954 412 969 424 981 C 436 993 451 1003 467 1011 C 483 1018 501 1022 520 1022 C 540 1022 559 1018 575 1011 C 591 1004 605 995 617 983 C 628 971 637 957 643 941 C 649 925 653 907 653 889 C 653 870 649 852 642 836 C 635 819 626 804 614 792 C 602 779 588 769 572 761 C 556 753 538 750 520 750 Z" unicode="" />
<glyph horiz-adv-x="809" d="M 225 -8 C 219 -9 213 -10 207 -10 C 201 -10 194 -10 188 -10 C 158 -10 128 -6 99 1 C 69 9 43 22 21 41 C 0 59 -18 84 -31 115 C -44 146 -49 185 -47 233 C -44 289 -35 346 -19 404 C -3 462 18 518 44 572 C 70 626 101 676 137 724 C 173 772 212 814 255 850 C 298 886 344 916 394 939 C 443 962 495 976 549 981 L 637 1251 L 678 1251 L 590 983 C 617 982 643 978 669 970 C 694 962 716 951 736 939 C 756 926 771 912 783 896 C 795 880 801 864 801 848 C 801 810 792 782 776 766 C 759 749 735 741 705 741 C 679 741 660 748 646 764 C 632 779 622 804 618 838 C 616 850 614 861 612 873 C 610 884 607 894 604 904 C 601 914 597 922 593 930 C 589 937 584 942 578 946 L 301 98 C 305 96 309 96 314 96 C 318 96 323 96 328 96 C 346 96 366 101 390 111 C 414 121 438 136 464 156 C 490 176 515 200 541 228 C 567 256 590 289 612 326 L 635 313 C 618 275 597 238 573 204 C 549 169 521 138 490 110 C 459 82 425 58 388 39 C 350 19 310 6 268 -2 L 172 -301 L 131 -301 L 225 -8 Z M 539 950 C 513 944 488 929 462 906 C 436 883 410 854 386 818 C 361 782 338 742 316 697 C 294 651 274 603 258 553 C 241 503 227 451 216 398 C 205 344 199 292 197 242 C 195 172 217 127 264 109 L 539 950 Z" unicode="" />
<glyph horiz-adv-x="1290" d="M 774 -39 C 744 -39 717 -36 691 -30 C 665 -24 640 -17 617 -8 C 593 0 571 10 551 22 C 531 34 511 46 493 58 C 474 70 456 82 440 94 C 423 106 407 116 392 125 C 376 134 361 141 347 147 C 333 153 319 156 305 156 L 201 156 C 190 139 177 121 161 102 C 145 83 128 66 109 50 C 90 34 70 20 48 10 C 26 0 3 -6 -20 -6 C -28 -6 -36 -4 -46 -2 C -55 0 -63 4 -71 10 C -78 16 -84 23 -89 31 C -94 39 -96 48 -96 59 C -95 78 -89 94 -79 106 C -69 118 -56 127 -41 134 C -25 141 -8 146 11 150 C 30 154 49 157 69 159 C 88 161 106 164 124 166 C 142 168 157 171 170 176 C 180 187 191 205 205 231 C 218 256 232 285 247 318 C 261 350 276 385 292 423 C 307 460 321 496 335 532 C 348 568 360 601 372 632 C 383 662 392 687 399 707 L 242 705 L 268 776 L 422 774 C 432 804 442 832 452 858 C 461 884 470 910 480 935 C 490 959 500 983 510 1007 C 520 1031 532 1055 545 1081 C 577 1145 613 1202 654 1253 C 695 1304 739 1347 786 1383 C 832 1418 881 1445 932 1464 C 982 1483 1033 1493 1085 1493 C 1110 1493 1136 1490 1163 1486 C 1189 1481 1213 1473 1235 1462 C 1256 1451 1273 1436 1286 1418 C 1299 1400 1305 1377 1303 1350 C 1302 1336 1299 1324 1293 1312 C 1287 1300 1279 1290 1270 1282 C 1260 1273 1250 1266 1239 1262 C 1227 1257 1216 1255 1204 1255 C 1142 1255 1112 1291 1112 1364 C 1112 1376 1112 1388 1113 1400 C 1114 1412 1114 1422 1112 1432 C 1110 1442 1107 1450 1101 1456 C 1095 1462 1086 1466 1073 1466 C 1047 1466 1022 1457 1000 1441 C 978 1425 957 1405 939 1382 C 920 1358 904 1333 890 1307 C 876 1281 864 1257 854 1237 C 834 1195 815 1152 797 1110 C 779 1068 762 1027 746 987 C 730 947 715 909 701 873 C 687 837 675 804 664 774 L 920 776 L 891 700 L 637 702 C 615 650 588 599 557 549 C 526 499 493 452 458 408 C 422 364 386 324 348 288 C 310 252 274 221 238 197 L 240 190 C 258 198 276 206 296 214 C 315 222 335 229 355 235 C 375 241 396 247 417 251 C 437 255 457 258 477 258 C 507 258 536 255 562 249 C 588 243 612 235 635 225 C 657 215 678 204 697 192 C 716 180 734 167 751 155 C 767 141 783 128 797 116 C 811 104 825 93 838 83 C 851 73 864 66 876 60 C 888 54 899 51 911 51 C 926 51 941 52 957 56 C 972 60 986 65 999 72 C 1011 79 1021 88 1029 98 C 1037 108 1041 119 1042 133 C 1042 143 1039 150 1032 155 C 1024 160 1015 164 1003 168 C 991 171 979 174 965 177 C 951 180 939 185 927 192 C 915 198 906 207 898 219 C 890 231 887 247 889 268 C 889 282 893 295 900 307 C 906 319 915 330 927 340 C 939 350 952 357 967 363 C 982 368 998 371 1016 371 C 1036 371 1053 367 1068 361 C 1083 355 1095 346 1105 336 C 1114 325 1121 313 1125 299 C 1129 285 1131 272 1130 258 C 1127 214 1116 173 1097 137 C 1077 101 1052 69 1020 43 C 988 17 951 -3 909 -17 C 867 -31 822 -39 774 -39 Z" unicode="" />
<glyph horiz-adv-x="1139" d="M 877 537 C 877 581 868 622 851 661 C 834 700 811 734 782 763 C 753 792 719 815 679 832 C 639 849 597 858 553 858 C 509 858 467 849 428 832 C 389 815 355 792 326 763 C 296 734 273 700 256 661 C 239 622 231 581 231 537 C 231 493 239 451 256 412 C 273 372 296 338 326 309 C 355 280 389 257 428 240 C 467 223 509 215 553 215 C 597 215 638 223 678 240 C 717 257 751 280 781 309 C 810 338 833 372 851 412 C 868 451 877 493 877 537 Z M 809 240 C 775 210 736 186 692 170 C 648 153 602 145 553 145 C 503 145 457 153 414 170 C 371 186 333 210 299 240 L 225 166 L 182 209 L 256 283 C 226 317 202 355 186 398 C 170 440 162 487 162 537 C 162 586 170 632 186 675 C 202 718 226 757 256 793 L 182 864 L 225 907 L 299 834 C 333 864 371 887 414 903 C 457 919 503 928 553 928 C 602 928 648 919 692 903 C 736 887 775 864 809 834 L 883 907 L 926 864 L 852 791 C 882 757 905 718 921 674 C 937 630 946 584 946 535 C 946 486 937 440 921 398 C 905 355 882 317 852 283 L 926 209 L 883 166 L 809 240 Z" unicode="" />
<glyph horiz-adv-x="1296" d="M 696 0 L 66 0 L 72 20 C 90 22 108 24 126 26 C 144 28 161 32 177 37 C 193 41 209 47 225 55 C 241 62 256 72 270 84 C 279 91 288 102 297 118 C 305 133 314 151 322 171 C 330 191 339 212 347 235 C 355 258 363 281 371 303 L 387 350 L 68 348 L 82 389 L 399 387 L 446 520 L 123 518 L 137 559 L 457 557 L 489 655 C 488 659 484 672 478 694 C 472 716 464 743 455 775 C 445 807 435 843 424 882 C 412 921 401 960 390 998 C 378 1036 368 1071 358 1104 C 348 1137 340 1164 334 1184 C 322 1218 312 1249 303 1277 C 293 1305 283 1330 273 1352 C 258 1382 241 1406 221 1424 C 201 1441 176 1451 145 1454 L 152 1475 L 780 1475 L 774 1454 C 752 1452 731 1449 709 1447 C 687 1444 666 1440 647 1434 C 628 1428 611 1419 597 1409 C 583 1399 573 1385 567 1368 C 564 1359 563 1348 565 1334 C 566 1320 568 1304 572 1287 C 575 1270 579 1252 584 1233 C 588 1214 593 1196 598 1178 C 604 1153 611 1124 621 1090 C 631 1056 641 1019 652 981 C 663 942 675 903 687 863 C 699 823 710 784 721 748 C 737 764 757 784 781 808 C 805 832 830 857 856 884 C 882 911 908 939 936 967 C 963 995 989 1021 1014 1047 C 1038 1073 1061 1097 1082 1119 C 1102 1141 1119 1159 1133 1174 C 1142 1184 1153 1196 1166 1210 C 1179 1224 1192 1240 1205 1256 C 1218 1272 1230 1288 1241 1304 C 1251 1320 1259 1336 1264 1350 C 1270 1371 1270 1388 1264 1400 C 1257 1412 1246 1422 1231 1429 C 1216 1436 1199 1441 1180 1444 C 1160 1447 1142 1450 1124 1454 L 1130 1475 L 1608 1475 L 1602 1454 C 1562 1448 1525 1439 1493 1425 C 1461 1411 1430 1393 1400 1371 C 1370 1349 1339 1323 1308 1293 C 1277 1263 1243 1230 1206 1192 C 1189 1175 1168 1154 1143 1128 C 1117 1102 1090 1073 1060 1043 C 1030 1013 1000 981 968 949 C 936 916 906 885 877 855 C 847 825 820 797 795 771 C 769 745 749 725 733 709 L 680 557 L 1001 559 L 987 518 L 670 520 L 625 387 L 946 389 L 932 348 L 612 350 L 594 297 C 587 277 580 256 574 234 C 567 212 561 191 556 171 C 551 151 548 133 546 117 C 544 101 544 89 547 82 C 551 70 559 60 571 54 C 582 47 595 41 610 37 C 625 33 641 29 657 27 C 673 25 688 22 702 20 L 696 0 Z" unicode="" />
<glyph horiz-adv-x="498" d="M 227 1524 L 311 1524 L 311 715 L 227 715 L 227 1524 Z M 227 449 L 311 449 L 311 -360 L 227 -360 L 227 449 Z" unicode="" />
<glyph horiz-adv-x="948" d="M 115 -391 C 87 -391 60 -387 35 -381 C 9 -374 -12 -364 -32 -351 C -51 -337 -66 -320 -78 -300 C -90 -280 -96 -256 -96 -229 C -96 -195 -85 -167 -65 -147 C -44 -127 -18 -117 12 -117 C 38 -117 59 -125 76 -141 C 92 -157 108 -177 122 -200 C 136 -222 150 -245 166 -269 C 182 -292 202 -311 227 -326 C 244 -325 264 -322 286 -318 C 308 -313 328 -305 348 -295 C 368 -284 384 -270 398 -252 C 411 -234 418 -212 418 -186 C 418 -166 415 -145 410 -123 C 404 -101 398 -80 390 -58 C 382 -36 373 -14 363 7 C 353 28 344 48 336 68 C 313 118 290 165 267 210 C 243 255 220 304 197 356 C 178 398 163 442 152 488 C 140 534 135 577 135 618 C 135 684 146 751 169 820 C 191 888 222 955 261 1020 C 299 1084 344 1145 396 1203 C 448 1260 503 1310 561 1353 C 619 1395 679 1429 741 1454 C 802 1478 862 1491 920 1491 C 943 1491 963 1487 980 1480 C 997 1473 1011 1463 1022 1451 C 1033 1439 1041 1424 1047 1408 C 1052 1391 1055 1373 1055 1354 C 1055 1336 1051 1319 1044 1305 C 1037 1291 1028 1279 1017 1269 C 1005 1259 992 1252 978 1247 C 964 1241 949 1239 934 1239 C 915 1239 898 1242 884 1250 C 870 1257 857 1267 845 1279 C 833 1291 823 1304 814 1319 C 804 1334 796 1349 788 1364 C 776 1367 766 1370 757 1372 C 747 1374 737 1376 727 1376 C 702 1376 678 1372 655 1364 C 631 1356 610 1345 592 1331 C 574 1316 559 1298 548 1277 C 537 1255 532 1231 532 1204 C 532 1184 534 1162 540 1139 C 545 1115 552 1092 560 1068 C 568 1044 577 1020 587 997 C 597 974 608 953 618 934 C 641 890 662 849 682 809 C 702 769 721 726 741 680 C 755 646 766 616 775 590 C 783 563 790 538 795 514 C 800 490 804 466 806 442 C 808 418 809 393 809 367 C 809 297 799 229 779 165 C 759 100 731 40 697 -16 C 663 -72 623 -123 577 -169 C 531 -215 482 -255 431 -288 C 379 -320 327 -346 273 -364 C 219 -382 166 -391 115 -391 Z M 567 -125 C 578 -115 590 -103 603 -87 C 616 -71 628 -52 639 -30 C 650 -8 659 17 667 46 C 674 74 678 107 678 143 C 678 178 673 217 663 261 C 653 305 642 347 629 387 C 605 454 577 522 544 592 C 511 661 480 729 451 797 C 425 853 408 910 399 967 C 389 1024 385 1078 387 1128 L 379 1130 C 359 1106 343 1082 329 1059 C 315 1035 303 1011 294 986 C 284 960 277 934 273 906 C 268 878 266 847 266 813 C 266 791 268 769 272 747 C 276 725 281 703 287 681 C 293 659 300 639 308 619 C 316 599 323 581 330 565 C 344 531 357 500 371 471 C 384 442 398 413 412 385 C 426 357 440 328 455 298 C 469 268 485 235 502 199 C 530 138 548 81 556 27 C 564 -27 567 -77 563 -123 L 567 -125 Z" unicode="" />
<glyph horiz-adv-x="1024" d="M 743 1120 C 729 1120 715 1122 702 1128 C 689 1134 678 1142 668 1152 C 658 1162 650 1173 644 1186 C 638 1199 635 1213 635 1229 C 635 1243 638 1257 644 1270 C 650 1283 658 1295 668 1305 C 678 1315 689 1322 702 1328 C 715 1334 729 1337 743 1337 C 757 1337 771 1334 785 1328 C 798 1322 810 1315 820 1305 C 830 1295 837 1283 843 1270 C 849 1257 852 1243 852 1229 C 852 1213 849 1199 843 1186 C 837 1173 830 1162 820 1152 C 810 1142 798 1134 785 1128 C 771 1122 757 1120 743 1120 Z M 389 1120 C 374 1120 360 1122 347 1128 C 334 1134 323 1142 313 1152 C 303 1162 295 1173 289 1186 C 283 1199 281 1213 281 1229 C 281 1243 283 1257 289 1270 C 295 1283 303 1295 313 1305 C 323 1315 334 1322 347 1328 C 360 1334 374 1337 389 1337 C 403 1337 417 1334 431 1328 C 444 1322 456 1315 466 1305 C 476 1295 483 1283 489 1270 C 495 1257 498 1243 498 1229 C 498 1213 495 1199 489 1186 C 483 1173 476 1162 466 1152 C 456 1142 444 1134 431 1128 C 417 1122 403 1120 389 1120 Z" unicode="" />
<glyph horiz-adv-x="1968" d="M 1829 733 C 1829 661 1819 591 1801 525 C 1782 458 1756 396 1722 338 C 1688 280 1647 227 1600 179 C 1552 131 1500 90 1442 56 C 1384 22 1321 -4 1255 -23 C 1188 -41 1119 -51 1047 -51 C 975 -51 905 -41 838 -23 C 771 -4 709 22 651 56 C 593 90 540 131 492 179 C 444 227 403 280 369 338 C 335 396 308 458 290 525 C 271 591 262 661 262 733 C 262 805 271 874 290 941 C 308 1007 335 1070 369 1128 C 403 1186 444 1239 492 1287 C 540 1335 593 1376 651 1410 C 709 1444 771 1471 838 1490 C 905 1508 975 1518 1047 1518 C 1119 1518 1188 1508 1255 1490 C 1321 1471 1384 1444 1442 1410 C 1500 1376 1552 1335 1600 1287 C 1647 1239 1688 1186 1722 1128 C 1756 1070 1782 1007 1801 941 C 1819 874 1829 805 1829 733 Z M 1765 733 C 1765 833 1746 926 1709 1014 C 1671 1102 1620 1178 1555 1243 C 1490 1308 1414 1359 1327 1397 C 1240 1435 1147 1454 1047 1454 C 980 1454 916 1445 854 1428 C 792 1411 735 1387 681 1356 C 627 1324 579 1287 535 1243 C 491 1199 454 1151 423 1098 C 392 1044 368 987 351 925 C 334 863 326 799 326 733 C 326 666 334 602 351 540 C 368 478 392 421 423 367 C 454 313 491 265 535 221 C 579 177 627 139 681 108 C 735 76 792 52 854 35 C 915 18 979 10 1047 10 C 1113 10 1177 18 1239 35 C 1300 52 1357 76 1410 108 C 1463 139 1511 177 1555 221 C 1599 265 1636 313 1667 367 C 1698 421 1722 478 1739 540 C 1756 602 1765 666 1765 733 Z M 1436 272 L 1417 272 C 1411 279 1406 287 1400 295 C 1394 303 1388 310 1383 317 C 1377 323 1373 329 1369 333 C 1365 337 1362 340 1360 340 C 1358 340 1351 335 1338 327 C 1325 318 1307 309 1283 299 C 1259 289 1229 279 1195 271 C 1161 262 1122 258 1079 258 C 995 258 920 270 856 294 C 791 318 737 351 693 394 C 649 436 615 487 593 545 C 570 603 559 667 559 737 C 559 751 559 768 561 788 C 563 807 566 828 572 850 C 577 872 585 895 595 920 C 605 944 618 969 635 995 C 654 1025 677 1053 704 1081 C 731 1108 763 1132 799 1153 C 835 1173 876 1190 922 1202 C 968 1214 1019 1221 1077 1221 C 1121 1221 1161 1216 1196 1208 C 1230 1199 1260 1190 1284 1180 C 1308 1170 1326 1160 1340 1152 C 1353 1143 1360 1139 1362 1139 C 1364 1139 1367 1141 1372 1145 C 1376 1149 1382 1154 1388 1160 C 1394 1166 1400 1172 1406 1179 C 1412 1186 1417 1193 1423 1200 L 1442 1200 L 1442 877 L 1419 877 C 1413 900 1404 925 1394 951 C 1384 977 1374 998 1364 1016 C 1349 1039 1332 1061 1313 1082 C 1294 1103 1273 1122 1249 1138 C 1225 1154 1200 1166 1172 1176 C 1144 1185 1113 1190 1081 1190 C 1023 1190 974 1176 932 1150 C 890 1123 855 1088 827 1045 C 799 1001 779 952 765 897 C 751 842 745 787 745 731 C 745 671 752 615 767 562 C 781 508 803 462 832 422 C 860 382 896 350 938 326 C 980 302 1028 291 1083 291 C 1131 291 1173 300 1211 318 C 1249 336 1282 360 1310 390 C 1338 420 1361 453 1379 490 C 1397 527 1411 564 1419 602 L 1442 602 L 1436 272 Z" unicode="" />
<glyph horiz-adv-x="711" d="M 301 977 C 271 977 248 984 233 998 C 218 1012 211 1039 211 1077 C 211 1105 216 1135 228 1167 C 240 1199 255 1230 275 1261 C 295 1291 318 1320 344 1348 C 370 1376 397 1400 425 1421 C 453 1441 482 1458 511 1470 C 540 1482 568 1489 594 1489 C 606 1489 615 1484 621 1476 C 627 1467 631 1459 633 1452 L 639 1468 L 758 1493 L 784 1493 C 780 1485 776 1472 770 1456 C 764 1440 757 1421 749 1401 C 741 1380 732 1358 724 1335 C 715 1312 707 1290 699 1270 C 691 1249 683 1230 677 1214 C 671 1198 666 1186 664 1179 C 660 1171 657 1163 653 1153 C 649 1143 646 1134 644 1125 C 641 1116 639 1108 637 1100 C 635 1092 635 1087 637 1085 C 643 1086 650 1089 660 1093 C 669 1097 679 1103 689 1109 C 699 1115 708 1122 718 1130 C 728 1137 736 1145 744 1153 L 752 1145 C 744 1133 731 1118 712 1099 C 692 1080 671 1062 648 1044 C 625 1026 602 1010 579 997 C 555 983 536 977 522 977 C 508 977 497 980 489 986 C 481 992 477 1005 477 1024 C 477 1029 478 1037 482 1049 C 485 1060 489 1073 494 1088 C 499 1102 505 1118 511 1134 C 517 1150 522 1165 528 1181 C 514 1158 498 1135 480 1111 C 462 1087 444 1065 424 1045 C 404 1025 384 1008 363 996 C 342 983 321 977 301 977 Z M 379 1042 C 387 1042 396 1046 408 1054 C 420 1062 433 1075 447 1091 C 461 1107 475 1126 491 1149 C 507 1172 523 1198 539 1228 C 557 1262 572 1294 582 1325 C 592 1355 598 1378 600 1392 C 602 1410 602 1428 598 1444 C 594 1460 586 1468 574 1468 C 560 1468 544 1460 528 1446 C 511 1431 494 1412 478 1389 C 461 1365 445 1339 430 1310 C 414 1281 401 1252 389 1224 C 377 1196 367 1169 360 1144 C 353 1118 350 1098 350 1083 C 350 1055 359 1042 379 1042 Z" unicode="" />
<glyph horiz-adv-x="924" d="M 432 528 L 436 539 L 918 854 L 930 838 L 674 514 L 735 203 L 719 193 L 432 528 Z M 109 528 L 113 539 L 594 854 L 606 838 L 350 514 L 412 203 L 395 193 L 109 528 Z" unicode="" />
<glyph horiz-adv-x="1434" d="M 1079 317 L 1079 739 L 252 739 L 252 819 L 1167 819 L 1167 317 L 1079 317 Z" unicode="" />
<glyph horiz-adv-x="647" d="M 104 602 L 604 602 L 545 434 L 45 434 L 104 602 Z" unicode="" />
<glyph horiz-adv-x="1094" d="M 776 782 C 716 782 659 793 607 816 C 554 838 508 869 468 909 C 428 949 397 995 374 1048 C 351 1100 340 1157 340 1217 C 340 1277 351 1333 374 1386 C 397 1439 428 1485 468 1524 C 508 1563 554 1594 607 1617 C 659 1639 716 1651 776 1651 C 836 1651 893 1639 946 1617 C 999 1594 1045 1563 1085 1524 C 1124 1485 1155 1439 1178 1386 C 1200 1333 1212 1277 1212 1217 C 1212 1157 1200 1100 1178 1048 C 1155 995 1124 949 1085 909 C 1045 869 999 838 946 816 C 893 793 836 782 776 782 Z M 776 819 C 840 819 900 833 956 861 C 1012 889 1058 927 1096 975 L 946 975 C 942 979 940 983 938 986 C 936 988 934 991 932 995 C 930 998 927 1002 923 1008 C 919 1014 914 1022 907 1034 C 899 1046 891 1057 885 1067 C 878 1077 871 1087 865 1097 C 858 1107 851 1117 843 1127 C 835 1137 825 1149 815 1161 C 807 1170 797 1179 786 1188 C 775 1196 765 1202 756 1204 C 747 1206 740 1206 736 1206 C 732 1206 727 1206 721 1206 L 721 1087 C 721 1073 721 1060 722 1048 C 722 1036 725 1027 729 1020 C 733 1014 740 1008 752 1003 C 763 997 778 995 797 995 L 797 975 L 557 975 L 557 995 C 567 995 579 997 592 1001 C 604 1005 614 1010 621 1016 C 626 1022 630 1033 632 1049 C 634 1065 635 1081 635 1096 L 635 1354 C 635 1369 634 1385 632 1401 C 630 1417 627 1429 621 1436 C 613 1442 605 1446 595 1450 C 585 1453 573 1456 561 1458 L 561 1475 C 567 1475 578 1475 595 1475 C 611 1475 630 1476 651 1477 C 671 1477 692 1478 712 1478 C 732 1478 749 1479 762 1479 C 794 1479 823 1477 847 1474 C 871 1471 894 1465 915 1456 C 938 1446 956 1430 968 1410 C 980 1390 987 1366 987 1339 C 987 1323 983 1308 977 1294 C 971 1280 962 1268 951 1258 C 940 1248 927 1239 913 1232 C 899 1225 884 1220 868 1217 L 868 1214 C 875 1208 882 1201 890 1194 C 897 1186 905 1177 913 1167 C 926 1151 940 1133 954 1113 C 968 1093 981 1075 993 1059 C 1011 1037 1030 1021 1048 1011 C 1066 1001 1086 995 1108 993 C 1129 1025 1145 1060 1157 1098 C 1168 1136 1174 1175 1174 1217 C 1174 1271 1163 1322 1142 1370 C 1121 1418 1092 1461 1056 1497 C 1020 1533 977 1561 929 1582 C 881 1603 830 1614 776 1614 C 722 1614 671 1603 623 1582 C 575 1561 533 1533 497 1497 C 461 1461 432 1418 412 1370 C 391 1322 381 1271 381 1217 C 381 1161 391 1109 412 1061 C 432 1013 461 971 497 935 C 533 899 575 870 623 850 C 671 829 722 819 776 819 Z M 721 1229 C 739 1229 756 1229 771 1230 C 785 1230 800 1233 815 1237 C 845 1247 865 1261 876 1280 C 887 1298 893 1319 893 1343 C 893 1364 887 1383 877 1401 C 866 1419 850 1433 829 1444 C 819 1449 808 1452 797 1453 C 785 1453 773 1454 760 1454 C 750 1454 743 1454 738 1454 C 733 1454 729 1453 725 1452 C 723 1448 722 1442 722 1435 C 721 1427 721 1416 721 1401 L 721 1229 Z" unicode="" />
<glyph horiz-adv-x="1024" d="M 324 1300 L 858 1300 L 807 1159 L 272 1159 L 324 1300 Z" unicode="" />
<glyph horiz-adv-x="664" d="M 451 965 C 413 965 379 971 348 985 C 316 998 289 1016 266 1039 C 243 1062 225 1089 212 1121 C 199 1153 193 1187 193 1225 C 193 1262 199 1296 213 1328 C 226 1360 244 1387 268 1411 C 291 1434 318 1452 350 1465 C 382 1478 416 1485 453 1485 C 489 1485 522 1478 554 1465 C 586 1451 613 1433 637 1409 C 661 1385 679 1358 693 1326 C 706 1294 713 1261 713 1225 C 713 1189 706 1155 693 1123 C 679 1091 661 1064 638 1041 C 614 1017 587 999 555 985 C 523 971 488 965 451 965 Z M 453 1047 C 477 1047 500 1051 522 1061 C 543 1070 561 1083 576 1099 C 591 1115 603 1133 612 1155 C 620 1177 625 1200 625 1225 C 625 1249 620 1272 612 1294 C 603 1316 591 1335 576 1351 C 560 1367 542 1379 521 1389 C 500 1398 477 1403 453 1403 C 428 1403 405 1398 384 1389 C 363 1379 345 1367 330 1351 C 314 1335 302 1316 294 1294 C 285 1272 281 1249 281 1225 C 281 1199 285 1176 294 1154 C 302 1132 314 1114 330 1098 C 345 1082 363 1069 384 1060 C 405 1051 428 1047 453 1047 Z" unicode="" />
<glyph horiz-adv-x="1434" d="M 758 698 L 758 276 L 676 276 L 676 698 L 256 698 L 256 778 L 676 778 L 676 1198 L 758 1198 L 758 778 L 1178 778 L 1178 698 L 758 698 Z M 256 0 L 256 80 L 1178 80 L 1178 0 L 256 0 Z" unicode="" />
<glyph horiz-adv-x="567" d="M 144 823 C 190 850 236 878 283 907 C 329 936 371 966 409 996 C 447 1026 477 1056 501 1086 C 525 1116 537 1145 537 1174 C 537 1205 528 1227 510 1239 C 492 1251 470 1258 445 1258 C 381 1258 323 1224 271 1157 L 248 1169 C 261 1191 277 1212 296 1234 C 314 1256 335 1275 358 1293 C 381 1310 406 1324 433 1335 C 460 1346 488 1352 518 1352 C 566 1352 606 1340 636 1316 C 666 1292 682 1260 682 1219 C 682 1188 672 1159 653 1131 C 633 1103 608 1077 576 1052 C 544 1027 507 1004 466 982 C 425 960 383 939 340 920 L 541 920 C 557 920 572 921 585 925 C 598 928 610 933 621 939 C 632 945 642 953 652 962 C 661 970 670 980 680 991 L 699 975 L 584 807 L 144 807 L 144 823 Z" unicode="" />
<glyph horiz-adv-x="537" d="M 245 649 C 197 649 162 658 138 677 C 114 696 104 720 106 750 C 109 773 118 791 133 804 C 148 816 164 823 182 823 C 193 823 202 819 208 812 C 214 804 219 795 223 785 C 227 774 230 762 233 749 C 235 736 239 724 244 714 C 248 703 255 694 263 687 C 271 679 283 676 298 676 C 316 676 334 680 352 689 C 370 697 386 709 400 724 C 414 739 425 757 434 778 C 443 799 448 822 448 848 C 448 871 444 891 438 908 C 432 924 423 938 412 948 C 400 958 387 966 372 971 C 356 976 339 979 321 979 L 315 993 C 341 1007 366 1022 389 1036 C 411 1050 431 1064 447 1078 C 463 1092 476 1108 485 1124 C 494 1140 499 1157 499 1176 C 499 1191 496 1204 491 1214 C 485 1224 479 1233 471 1239 C 463 1245 454 1249 444 1252 C 434 1254 425 1256 417 1256 C 387 1256 359 1247 335 1229 C 311 1211 287 1186 263 1153 L 245 1165 C 255 1190 269 1214 288 1237 C 307 1259 328 1279 352 1296 C 375 1313 400 1327 427 1337 C 453 1347 479 1352 505 1352 C 552 1352 589 1341 615 1321 C 641 1301 655 1271 655 1231 C 655 1191 636 1156 599 1127 C 562 1097 512 1072 448 1051 C 551 1029 603 975 603 889 C 603 851 591 818 567 788 C 543 758 514 733 478 713 C 442 692 404 676 362 665 C 320 654 281 649 245 649 Z" unicode="" />
<glyph horiz-adv-x="1024" d="M 524 1065 L 709 1427 C 729 1429 747 1427 763 1423 C 779 1418 793 1411 806 1401 C 819 1391 830 1380 840 1368 C 849 1356 857 1343 864 1331 L 864 1321 L 545 1053 L 524 1065 Z" unicode="" />
<glyph horiz-adv-x="1229" d="M -45 -477 C -54 -477 -64 -475 -74 -473 C -84 -470 -93 -465 -102 -459 C -110 -452 -117 -443 -123 -432 C -128 -420 -131 -406 -131 -389 C -131 -372 -126 -352 -118 -330 C -110 -308 -98 -282 -84 -252 C -70 -222 -53 -187 -35 -149 C -16 -111 3 -67 25 -18 C 45 28 65 74 85 119 C 105 164 123 206 140 244 C 156 282 171 316 183 346 C 195 375 205 398 211 414 C 213 422 216 439 220 463 C 224 487 228 515 233 547 C 237 579 243 612 249 648 C 255 683 263 716 272 748 C 280 776 290 804 303 832 C 315 860 330 885 348 907 C 366 929 386 948 408 962 C 430 976 455 983 483 983 C 494 983 505 981 515 977 C 525 973 535 967 543 960 C 551 952 557 944 562 934 C 566 924 569 913 569 901 C 569 871 564 842 554 814 C 544 786 532 761 518 739 C 502 714 485 688 466 661 C 447 634 428 607 410 581 C 391 554 374 528 358 503 C 342 477 329 454 319 434 C 309 413 302 393 298 374 C 293 354 291 339 291 328 C 291 244 338 203 434 203 C 466 203 499 213 531 235 C 563 256 594 283 623 315 C 651 347 677 381 700 418 C 723 454 742 488 756 518 C 760 526 765 541 771 562 C 777 583 784 606 792 632 C 799 657 806 682 814 708 C 822 734 829 756 836 776 C 842 794 852 816 864 840 C 876 864 890 886 907 908 C 924 929 944 947 966 961 C 988 975 1012 983 1038 983 C 1062 983 1083 976 1100 962 C 1117 948 1126 929 1126 905 C 1126 891 1124 876 1120 860 C 1116 844 1112 827 1106 811 C 1100 795 1095 779 1089 765 C 1083 751 1077 739 1073 729 C 1043 667 1013 612 983 563 C 953 514 926 472 902 436 C 878 400 859 370 844 348 C 829 326 821 311 821 303 C 819 295 818 287 818 277 C 817 267 817 257 817 248 C 817 232 820 217 826 204 C 832 190 840 179 850 169 C 860 159 872 152 886 147 C 900 141 914 139 930 139 C 958 139 983 144 1007 155 C 1030 166 1051 181 1070 201 C 1088 220 1105 242 1120 268 C 1134 294 1147 322 1157 352 L 1180 352 C 1170 289 1155 235 1133 190 C 1111 145 1087 106 1059 74 C 1033 44 1007 22 979 10 C 951 -1 923 -8 895 -8 C 871 -8 852 -4 836 3 C 820 11 808 21 798 35 C 788 48 780 64 776 83 C 772 101 770 121 770 143 C 770 163 771 186 775 210 C 779 234 784 256 791 276 L 780 279 C 728 183 669 110 601 62 C 533 14 460 -10 381 -10 C 357 -10 334 -7 313 -1 C 292 5 274 14 259 28 C 243 41 231 58 222 80 C 213 102 209 128 209 160 C 209 170 209 181 211 195 C 212 209 214 223 217 239 C 219 254 222 269 226 285 C 230 301 234 316 238 330 L 223 330 C 191 272 165 215 144 159 C 123 103 106 50 93 2 C 79 -45 69 -89 63 -128 C 56 -166 51 -197 49 -221 C 49 -233 49 -246 51 -260 C 52 -274 54 -287 56 -301 C 58 -314 59 -326 61 -338 C 62 -349 63 -359 63 -367 C 63 -384 59 -399 53 -413 C 47 -427 39 -438 29 -448 C 19 -457 7 -464 -5 -469 C -18 -474 -31 -477 -45 -477 Z" unicode="" />
<glyph horiz-adv-x="1126" d="M 127 -412 C 100 -412 74 -408 49 -400 C 24 -392 2 -380 -16 -366 C -35 -352 -50 -335 -62 -315 C -74 -295 -80 -272 -80 -248 C -80 -231 -77 -215 -71 -201 C -65 -186 -56 -173 -46 -163 C -35 -152 -22 -144 -8 -138 C 5 -132 21 -129 39 -129 C 55 -129 70 -131 84 -137 C 98 -142 110 -149 120 -158 C 130 -167 139 -177 145 -189 C 151 -201 154 -213 154 -227 C 154 -248 150 -265 142 -278 C 134 -290 128 -299 123 -305 C 134 -324 149 -337 169 -344 C 188 -350 209 -354 233 -354 C 283 -354 330 -341 373 -315 C 416 -289 456 -252 492 -206 C 528 -160 561 -104 591 -40 C 621 23 648 94 672 170 L 793 549 L 735 549 C 667 549 606 558 550 578 C 494 598 447 625 407 661 C 367 696 336 738 314 786 C 292 834 281 888 281 946 C 281 1025 296 1097 328 1163 C 359 1228 404 1284 463 1330 C 522 1376 594 1412 680 1438 C 765 1464 862 1477 971 1477 C 977 1477 988 1477 1005 1477 C 1022 1477 1042 1476 1066 1476 C 1089 1476 1114 1476 1141 1476 C 1167 1476 1193 1475 1218 1475 C 1242 1475 1265 1475 1285 1475 C 1305 1475 1321 1475 1331 1475 L 1323 1450 C 1319 1450 1308 1449 1290 1449 C 1272 1448 1251 1444 1229 1437 C 1206 1430 1184 1419 1163 1403 C 1141 1387 1126 1363 1116 1333 L 731 123 C 705 43 675 -29 639 -95 C 603 -161 561 -217 512 -264 C 463 -311 407 -347 343 -373 C 279 -399 207 -412 127 -412 Z" unicode="" />
<glyph horiz-adv-x="539" d="M 285 401 C 264 401 245 404 229 411 C 213 418 199 428 187 440 C 175 452 167 466 161 482 C 155 498 152 516 152 535 C 152 553 155 570 162 587 C 169 604 179 619 191 632 C 203 644 217 654 233 662 C 249 670 266 674 285 674 C 303 674 320 670 336 663 C 352 656 367 647 379 635 C 391 623 401 608 409 592 C 416 576 420 559 420 541 C 420 521 416 503 409 486 C 401 469 391 454 379 442 C 367 429 352 419 336 412 C 320 404 303 401 285 401 Z" unicode="" />
<glyph horiz-adv-x="1024" d="M 70 -459 C 48 -459 27 -457 8 -453 C -10 -449 -27 -443 -41 -435 C -55 -426 -66 -415 -74 -402 C -82 -389 -86 -373 -86 -354 C -86 -346 -84 -338 -81 -330 C -77 -322 -72 -314 -66 -307 C -60 -300 -52 -294 -42 -290 C -32 -285 -22 -283 -10 -283 C 6 -283 19 -285 27 -290 C 35 -294 43 -301 51 -309 C 49 -316 47 -325 44 -337 C 40 -349 39 -358 39 -365 C 39 -411 56 -434 90 -434 C 111 -434 129 -423 144 -403 C 158 -382 166 -353 166 -315 C 166 -279 153 -246 129 -216 C 104 -186 73 -165 35 -152 L 35 -141 L 238 23 L 281 23 L 174 -70 C 204 -82 229 -97 247 -113 C 265 -129 279 -145 289 -161 C 299 -177 305 -192 308 -207 C 311 -222 313 -235 313 -246 C 313 -277 305 -306 289 -332 C 273 -358 252 -380 228 -399 C 204 -418 177 -433 149 -443 C 121 -453 94 -459 70 -459 Z" unicode="" />
<glyph horiz-adv-x="473" d="M 150 830 C 160 830 170 831 182 833 C 194 835 205 838 216 842 C 226 846 236 851 244 857 C 252 863 258 870 262 879 L 381 1221 C 382 1225 384 1230 386 1236 C 388 1242 391 1247 393 1253 C 395 1258 396 1263 398 1268 C 399 1272 400 1276 400 1278 C 400 1284 396 1289 389 1294 C 381 1298 372 1302 362 1305 C 351 1308 340 1310 328 1312 C 316 1314 305 1315 297 1315 L 305 1337 L 676 1337 L 670 1315 C 660 1315 649 1314 637 1312 C 625 1310 613 1308 601 1304 C 589 1300 579 1294 570 1288 C 561 1282 555 1274 553 1266 L 441 938 C 439 932 436 925 433 917 C 430 909 427 902 425 895 C 422 888 420 882 418 877 C 416 871 416 868 416 866 C 416 858 419 852 427 848 C 435 843 444 839 455 837 C 465 835 476 833 488 832 C 499 831 508 830 516 830 L 508 807 L 142 807 L 150 830 Z" unicode="" />
<glyph horiz-adv-x="711" d="M 400 968 C 386 968 370 971 352 978 C 334 984 317 995 301 1009 C 285 1023 271 1042 260 1065 C 249 1088 244 1116 244 1149 C 244 1193 253 1236 273 1278 C 293 1319 318 1355 349 1386 C 380 1417 414 1442 451 1461 C 488 1479 524 1489 560 1489 C 575 1489 592 1485 610 1479 C 628 1472 645 1461 661 1446 C 677 1431 690 1412 701 1388 C 711 1364 717 1334 717 1300 C 717 1266 707 1229 689 1191 C 670 1152 646 1116 616 1083 C 586 1050 552 1023 514 1001 C 476 979 438 968 400 968 Z M 398 985 C 406 985 417 992 430 1007 C 442 1021 455 1041 469 1065 C 483 1089 497 1117 511 1148 C 525 1178 537 1209 549 1241 C 561 1273 571 1304 579 1334 C 587 1364 593 1390 596 1413 C 599 1435 598 1451 594 1459 C 589 1467 581 1472 570 1472 C 558 1472 545 1463 531 1447 C 517 1431 502 1409 487 1383 C 471 1357 456 1328 442 1296 C 428 1264 415 1232 403 1200 C 391 1168 382 1139 375 1112 C 367 1084 363 1062 363 1046 C 361 1023 364 1007 370 998 C 376 989 385 985 398 985 Z" unicode="" />
<glyph horiz-adv-x="924" d="M 338 215 L 594 539 L 532 850 L 549 860 L 836 524 L 831 514 L 350 199 L 338 215 Z M 14 215 L 270 539 L 209 850 L 225 860 L 512 524 L 508 514 L 27 199 L 14 215 Z" unicode="" />
<glyph horiz-adv-x="1024" d="M 326 702 C 340 703 353 705 367 708 C 380 711 392 715 404 721 C 415 726 425 733 434 742 C 443 751 450 762 455 776 L 635 1278 C 638 1286 641 1295 643 1307 C 645 1319 647 1327 647 1333 C 647 1343 643 1352 636 1359 C 629 1365 620 1371 609 1375 C 598 1379 586 1382 574 1384 C 561 1386 549 1387 537 1389 L 545 1411 L 981 1411 L 973 1389 C 959 1387 945 1385 931 1382 C 917 1379 903 1375 891 1369 C 878 1363 867 1357 858 1349 C 848 1341 842 1331 838 1319 L 655 813 C 651 803 647 792 645 782 C 642 771 641 763 641 758 C 641 747 644 738 652 732 C 659 725 668 720 679 716 C 690 712 702 709 715 707 C 728 705 740 703 752 702 L 743 680 L 317 680 L 326 702 Z M 41 561 L 926 561 L 907 506 L 23 506 L 41 561 Z M 297 -160 L -100 -160 L -100 -145 L -12 -59 L 639 424 L 670 424 L 510 -70 L 696 -70 L 666 -160 L 485 -160 L 403 -410 L 215 -410 L 297 -160 Z M 326 -70 L 420 221 L 31 -70 L 326 -70 Z" unicode="" />
<glyph horiz-adv-x="1024" d="M -61 -344 C -22 -318 17 -292 58 -266 C 98 -239 138 -212 177 -185 C 216 -157 253 -130 288 -102 C 322 -74 352 -46 378 -18 C 404 10 424 37 440 65 C 455 92 463 119 463 145 C 463 182 453 211 435 232 C 417 253 389 264 352 264 C 308 264 264 253 221 231 C 177 209 138 175 102 129 L 82 141 C 101 171 124 201 150 231 C 176 261 204 288 235 312 C 266 336 300 356 336 372 C 372 387 409 395 449 395 C 479 395 506 390 531 380 C 556 370 578 357 596 341 C 614 324 628 304 638 282 C 648 260 653 236 653 211 C 653 183 646 155 632 129 C 618 103 599 77 576 53 C 553 29 526 5 496 -17 C 466 -39 434 -61 401 -82 C 368 -103 335 -123 302 -143 C 268 -162 237 -181 209 -199 L 211 -205 L 459 -205 C 483 -205 504 -203 522 -199 C 540 -195 556 -190 571 -182 C 586 -174 600 -165 613 -154 C 625 -143 638 -130 650 -116 C 650 -117 651 -118 654 -120 C 656 -122 662 -125 670 -129 L 512 -358 L -66 -358 L -61 -344 Z M 326 702 C 340 703 353 705 367 708 C 380 711 392 715 404 721 C 415 726 425 733 434 742 C 443 751 450 762 455 776 L 635 1278 C 638 1286 641 1295 643 1307 C 645 1319 647 1327 647 1333 C 647 1343 643 1352 636 1359 C 629 1365 620 1371 609 1375 C 598 1379 586 1382 574 1384 C 561 1386 549 1387 537 1389 L 545 1411 L 981 1411 L 973 1389 C 959 1387 945 1385 931 1382 C 917 1379 903 1375 891 1369 C 878 1363 867 1357 858 1349 C 848 1341 842 1331 838 1319 L 655 813 C 651 803 647 792 645 782 C 642 771 641 763 641 758 C 641 747 644 738 652 732 C 659 725 668 720 679 716 C 690 712 702 709 715 707 C 728 705 740 703 752 702 L 743 680 L 317 680 L 326 702 Z M 41 561 L 926 561 L 907 506 L 23 506 L 41 561 Z M 651 -115 C 650 -115 650 -116 650 -116 C 650 -115 650 -115 650 -115 L 651 -115 Z" unicode="" />
<glyph horiz-adv-x="1024" d="M 479 657 C 416 657 368 668 335 690 C 301 712 285 742 285 778 C 285 792 287 805 293 816 C 298 827 305 836 314 844 C 323 852 333 858 345 862 C 357 866 369 868 381 868 C 395 868 407 863 416 855 C 424 846 431 835 437 822 C 443 808 448 794 453 779 C 457 763 463 749 470 736 C 477 722 486 711 498 703 C 509 694 524 690 543 690 C 558 690 574 694 591 703 C 607 712 623 725 637 741 C 651 757 662 777 672 801 C 681 824 686 850 686 879 C 686 899 682 919 676 937 C 669 955 659 970 647 984 C 634 997 618 1007 600 1015 C 582 1022 561 1026 539 1026 L 532 1040 C 597 1074 646 1107 679 1140 C 712 1173 729 1211 729 1255 C 729 1267 726 1278 721 1288 C 716 1297 710 1305 702 1311 C 694 1317 684 1321 674 1324 C 664 1327 653 1329 643 1329 C 603 1329 568 1321 536 1306 C 504 1291 475 1265 449 1227 L 432 1233 C 441 1263 456 1290 477 1316 C 497 1342 521 1364 548 1384 C 575 1403 604 1418 634 1429 C 664 1440 693 1446 721 1446 C 787 1446 839 1433 878 1408 C 916 1383 936 1348 936 1303 C 936 1279 930 1258 919 1240 C 907 1222 891 1205 870 1190 C 849 1174 824 1160 794 1147 C 764 1134 730 1122 692 1110 C 723 1104 751 1096 777 1086 C 803 1075 825 1062 843 1046 C 861 1030 876 1013 886 993 C 896 973 901 951 901 928 C 901 884 887 846 861 813 C 835 779 801 751 760 728 C 719 704 674 687 624 675 C 574 663 526 657 479 657 Z M 41 561 L 926 561 L 907 506 L 23 506 L 41 561 Z M 297 -160 L -100 -160 L -100 -145 L -12 -59 L 639 424 L 670 424 L 510 -70 L 696 -70 L 666 -160 L 485 -160 L 403 -410 L 215 -410 L 297 -160 Z M 326 -70 L 420 221 L 31 -70 L 326 -70 Z" unicode="" />
<glyph horiz-adv-x="840" d="M 612 752 C 594 752 576 755 560 762 C 544 769 529 779 517 791 C 505 803 495 817 488 833 C 480 849 477 866 477 885 C 477 904 480 922 488 939 C 495 956 505 971 517 983 C 529 995 544 1005 560 1013 C 576 1020 594 1024 612 1024 C 632 1024 651 1020 667 1013 C 683 1006 697 997 709 985 C 720 973 729 959 735 943 C 741 927 745 909 745 891 C 745 872 741 854 734 838 C 727 821 718 806 706 794 C 694 781 680 771 664 763 C 648 755 630 752 612 752 Z M 248 -473 C 201 -473 156 -465 113 -449 C 69 -433 31 -410 -2 -382 C -36 -353 -63 -319 -83 -280 C -103 -240 -113 -197 -113 -150 C -113 -75 -96 -10 -64 45 C -31 101 14 147 72 184 C 86 193 104 203 125 214 C 146 225 168 236 192 248 C 215 259 239 271 264 283 C 289 295 313 306 336 318 C 359 329 380 340 400 351 C 420 362 437 373 451 383 C 470 397 487 410 501 422 C 515 434 527 446 537 458 C 547 470 554 483 559 497 C 564 511 567 527 567 545 C 567 569 563 589 555 606 C 547 622 537 636 525 646 C 513 656 500 664 486 669 C 472 673 458 676 446 676 C 424 676 406 672 392 665 C 377 658 365 649 356 639 C 347 629 340 617 336 605 C 332 593 330 581 330 571 C 330 557 332 545 338 535 C 343 525 350 518 358 514 C 358 520 358 527 359 537 C 359 546 361 555 365 563 C 369 571 374 579 382 585 C 390 591 401 594 416 594 C 437 594 454 588 466 578 C 478 568 485 552 485 532 C 485 514 478 498 466 484 C 453 470 431 463 399 463 C 386 463 373 466 361 472 C 349 478 338 486 329 496 C 319 506 312 517 306 531 C 300 544 297 558 297 573 C 297 588 300 604 307 620 C 314 636 324 650 337 663 C 349 676 365 687 383 695 C 401 703 422 707 446 707 C 474 707 502 701 530 689 C 558 677 583 661 606 641 C 629 620 648 596 662 568 C 676 540 684 509 684 477 C 684 417 669 363 639 315 C 609 267 571 227 524 193 C 500 175 473 158 441 142 C 409 125 376 108 342 92 C 308 76 276 60 246 44 C 215 28 190 12 170 -4 C 150 -19 134 -34 120 -48 C 106 -62 94 -78 85 -94 C 75 -110 68 -128 64 -148 C 59 -168 57 -191 57 -217 C 57 -247 62 -275 73 -301 C 84 -327 100 -350 121 -370 C 141 -389 166 -404 195 -415 C 223 -426 255 -432 291 -432 C 323 -432 351 -426 376 -416 C 401 -405 422 -391 439 -373 C 456 -355 469 -334 478 -311 C 487 -287 492 -263 492 -238 C 492 -208 487 -183 477 -163 C 467 -143 455 -127 441 -115 C 427 -103 412 -94 396 -89 C 380 -84 367 -82 356 -82 C 346 -82 336 -83 326 -86 C 316 -89 306 -94 297 -100 C 311 -105 323 -111 335 -117 C 347 -123 357 -130 366 -138 C 375 -146 382 -156 387 -168 C 392 -179 395 -192 395 -207 C 395 -237 386 -263 368 -285 C 350 -306 325 -317 293 -317 C 277 -317 262 -313 248 -307 C 234 -301 223 -292 213 -282 C 203 -271 196 -258 190 -244 C 184 -230 182 -215 182 -199 C 182 -178 186 -159 194 -141 C 202 -123 213 -107 227 -93 C 241 -79 258 -69 278 -61 C 298 -53 320 -49 344 -49 C 372 -49 397 -54 420 -64 C 442 -74 461 -87 477 -104 C 493 -121 505 -141 513 -164 C 521 -186 526 -210 526 -236 C 526 -268 519 -298 507 -327 C 495 -356 477 -381 453 -403 C 429 -424 399 -441 365 -454 C 331 -466 292 -473 248 -473 Z" unicode="" />
<glyph horiz-adv-x="1434" d="M -309 20 C -295 20 -276 23 -251 28 C -225 33 -193 45 -155 65 C -117 85 -72 114 -20 154 C 32 193 91 247 158 317 C 217 379 273 437 325 491 C 377 545 427 597 477 649 C 527 700 577 751 627 803 C 677 855 730 909 786 966 C 842 1023 901 1084 965 1150 C 1029 1215 1099 1287 1176 1366 L 1194 1399 L 1473 1499 L 1491 1487 C 1481 1458 1468 1422 1454 1379 C 1439 1335 1423 1289 1407 1239 C 1390 1189 1373 1137 1356 1085 C 1338 1033 1322 983 1306 937 C 1290 891 1277 849 1265 812 C 1253 775 1243 747 1237 729 C 1227 701 1217 670 1205 635 C 1193 600 1181 563 1168 523 C 1155 483 1142 443 1128 402 C 1114 360 1100 320 1087 281 C 1082 267 1077 251 1072 234 C 1066 216 1061 199 1057 181 C 1053 163 1049 147 1046 131 C 1043 115 1042 102 1042 92 C 1042 82 1047 73 1059 65 C 1070 57 1084 51 1101 45 C 1118 39 1136 33 1156 29 C 1176 25 1194 22 1212 20 L 1206 0 L 528 0 L 535 20 C 575 23 610 31 642 43 C 673 55 700 73 723 96 C 727 100 733 109 739 121 C 745 133 751 147 758 163 C 765 179 772 196 779 214 C 786 232 793 249 799 266 C 822 330 844 392 866 453 C 888 514 908 574 928 633 L 516 633 C 456 568 403 511 357 461 C 311 411 276 372 252 344 C 198 283 157 232 129 191 C 101 150 88 120 88 102 C 88 86 92 73 102 63 C 111 53 123 46 137 40 C 151 34 167 30 185 27 C 202 24 219 22 236 20 L 229 0 L -315 0 L -309 20 Z M 944 678 C 988 806 1027 922 1062 1025 C 1097 1127 1129 1219 1159 1300 C 1055 1192 952 1086 850 981 C 747 875 649 774 557 678 L 944 678 Z M 1128 1806 L 1128 1816 C 1134 1828 1143 1841 1154 1855 C 1164 1868 1177 1880 1191 1891 C 1205 1901 1220 1909 1238 1915 C 1255 1921 1274 1923 1294 1921 L 1562 1571 L 1540 1556 L 1128 1806 Z" unicode="" />
<glyph horiz-adv-x="1434" d="M -309 20 C -295 20 -276 23 -251 28 C -225 33 -193 45 -155 65 C -117 85 -72 114 -20 154 C 32 193 91 247 158 317 C 217 379 273 437 325 491 C 377 545 427 597 477 649 C 527 700 577 751 627 803 C 677 855 730 909 786 966 C 842 1023 901 1084 965 1150 C 1029 1215 1099 1287 1176 1366 L 1194 1399 L 1473 1499 L 1491 1487 C 1481 1458 1468 1422 1454 1379 C 1439 1335 1423 1289 1407 1239 C 1390 1189 1373 1137 1356 1085 C 1338 1033 1322 983 1306 937 C 1290 891 1277 849 1265 812 C 1253 775 1243 747 1237 729 C 1227 701 1217 670 1205 635 C 1193 600 1181 563 1168 523 C 1155 483 1142 443 1128 402 C 1114 360 1100 320 1087 281 C 1082 267 1077 251 1072 234 C 1066 216 1061 199 1057 181 C 1053 163 1049 147 1046 131 C 1043 115 1042 102 1042 92 C 1042 82 1047 73 1059 65 C 1070 57 1084 51 1101 45 C 1118 39 1136 33 1156 29 C 1176 25 1194 22 1212 20 L 1206 0 L 528 0 L 535 20 C 575 23 610 31 642 43 C 673 55 700 73 723 96 C 727 100 733 109 739 121 C 745 133 751 147 758 163 C 765 179 772 196 779 214 C 786 232 793 249 799 266 C 822 330 844 392 866 453 C 888 514 908 574 928 633 L 516 633 C 456 568 403 511 357 461 C 311 411 276 372 252 344 C 198 283 157 232 129 191 C 101 150 88 120 88 102 C 88 86 92 73 102 63 C 111 53 123 46 137 40 C 151 34 167 30 185 27 C 202 24 219 22 236 20 L 229 0 L -315 0 L -309 20 Z M 944 678 C 988 806 1027 922 1062 1025 C 1097 1127 1129 1219 1159 1300 C 1055 1192 952 1086 850 981 C 747 875 649 774 557 678 L 944 678 Z M 1281 1577 L 1533 1905 C 1553 1907 1571 1905 1587 1900 C 1603 1895 1618 1888 1631 1879 C 1643 1869 1654 1858 1664 1846 C 1674 1833 1682 1820 1689 1808 L 1689 1798 L 1306 1563 L 1281 1577 Z" unicode="" />
<glyph horiz-adv-x="1434" d="M -309 20 C -295 20 -276 23 -251 28 C -225 33 -193 45 -155 65 C -117 85 -72 114 -20 154 C 32 193 91 247 158 317 C 217 379 273 437 325 491 C 377 545 427 597 477 649 C 527 700 577 751 627 803 C 677 855 730 909 786 966 C 842 1023 901 1084 965 1150 C 1029 1215 1099 1287 1176 1366 L 1194 1399 L 1473 1499 L 1491 1487 C 1481 1458 1468 1422 1454 1379 C 1439 1335 1423 1289 1407 1239 C 1390 1189 1373 1137 1356 1085 C 1338 1033 1322 983 1306 937 C 1290 891 1277 849 1265 812 C 1253 775 1243 747 1237 729 C 1227 701 1217 670 1205 635 C 1193 600 1181 563 1168 523 C 1155 483 1142 443 1128 402 C 1114 360 1100 320 1087 281 C 1082 267 1077 251 1072 234 C 1066 216 1061 199 1057 181 C 1053 163 1049 147 1046 131 C 1043 115 1042 102 1042 92 C 1042 82 1047 73 1059 65 C 1070 57 1084 51 1101 45 C 1118 39 1136 33 1156 29 C 1176 25 1194 22 1212 20 L 1206 0 L 528 0 L 535 20 C 575 23 610 31 642 43 C 673 55 700 73 723 96 C 727 100 733 109 739 121 C 745 133 751 147 758 163 C 765 179 772 196 779 214 C 786 232 793 249 799 266 C 822 330 844 392 866 453 C 888 514 908 574 928 633 L 516 633 C 456 568 403 511 357 461 C 311 411 276 372 252 344 C 198 283 157 232 129 191 C 101 150 88 120 88 102 C 88 86 92 73 102 63 C 111 53 123 46 137 40 C 151 34 167 30 185 27 C 202 24 219 22 236 20 L 229 0 L -315 0 L -309 20 Z M 944 678 C 988 806 1027 922 1062 1025 C 1097 1127 1129 1219 1159 1300 C 1055 1192 952 1086 850 981 C 747 875 649 774 557 678 L 944 678 Z M 1056 1571 L 1412 1919 L 1443 1919 L 1582 1571 L 1556 1556 L 1386 1702 L 1078 1556 L 1056 1571 Z" unicode="" />
<glyph horiz-adv-x="1434" d="M -309 20 C -295 20 -276 23 -251 28 C -225 33 -193 45 -155 65 C -117 85 -72 114 -20 154 C 32 193 91 247 158 317 C 217 379 273 437 325 491 C 377 545 427 597 477 649 C 527 700 577 751 627 803 C 677 855 730 909 786 966 C 842 1023 901 1084 965 1150 C 1029 1215 1099 1287 1176 1366 L 1194 1399 L 1473 1499 L 1491 1487 C 1481 1458 1468 1422 1454 1379 C 1439 1335 1423 1289 1407 1239 C 1390 1189 1373 1137 1356 1085 C 1338 1033 1322 983 1306 937 C 1290 891 1277 849 1265 812 C 1253 775 1243 747 1237 729 C 1227 701 1217 670 1205 635 C 1193 600 1181 563 1168 523 C 1155 483 1142 443 1128 402 C 1114 360 1100 320 1087 281 C 1082 267 1077 251 1072 234 C 1066 216 1061 199 1057 181 C 1053 163 1049 147 1046 131 C 1043 115 1042 102 1042 92 C 1042 82 1047 73 1059 65 C 1070 57 1084 51 1101 45 C 1118 39 1136 33 1156 29 C 1176 25 1194 22 1212 20 L 1206 0 L 528 0 L 535 20 C 575 23 610 31 642 43 C 673 55 700 73 723 96 C 727 100 733 109 739 121 C 745 133 751 147 758 163 C 765 179 772 196 779 214 C 786 232 793 249 799 266 C 822 330 844 392 866 453 C 888 514 908 574 928 633 L 516 633 C 456 568 403 511 357 461 C 311 411 276 372 252 344 C 198 283 157 232 129 191 C 101 150 88 120 88 102 C 88 86 92 73 102 63 C 111 53 123 46 137 40 C 151 34 167 30 185 27 C 202 24 219 22 236 20 L 229 0 L -315 0 L -309 20 Z M 944 678 C 988 806 1027 922 1062 1025 C 1097 1127 1129 1219 1159 1300 C 1055 1192 952 1086 850 981 C 747 875 649 774 557 678 L 944 678 Z M 1048 1573 C 1058 1602 1070 1631 1085 1659 C 1099 1687 1117 1711 1137 1733 C 1157 1755 1180 1772 1206 1786 C 1232 1799 1262 1806 1295 1806 L 1547 1747 C 1570 1745 1590 1745 1608 1746 C 1625 1747 1640 1750 1653 1756 C 1666 1762 1677 1770 1686 1782 C 1695 1794 1703 1809 1711 1829 L 1742 1829 C 1730 1796 1716 1765 1702 1736 C 1688 1706 1671 1681 1652 1659 C 1632 1637 1610 1619 1584 1606 C 1558 1593 1528 1587 1492 1587 L 1238 1647 C 1214 1649 1194 1650 1177 1650 C 1160 1649 1145 1646 1132 1641 C 1119 1635 1108 1627 1099 1616 C 1090 1605 1082 1591 1076 1573 L 1048 1573 Z" unicode="" />
<glyph horiz-adv-x="1434" d="M -309 20 C -295 20 -276 23 -251 28 C -225 33 -193 45 -155 65 C -117 85 -72 114 -20 154 C 32 193 91 247 158 317 C 217 379 273 437 325 491 C 377 545 427 597 477 649 C 527 700 577 751 627 803 C 677 855 730 909 786 966 C 842 1023 901 1084 965 1150 C 1029 1215 1099 1287 1176 1366 L 1194 1399 L 1473 1499 L 1491 1487 C 1481 1458 1468 1422 1454 1379 C 1439 1335 1423 1289 1407 1239 C 1390 1189 1373 1137 1356 1085 C 1338 1033 1322 983 1306 937 C 1290 891 1277 849 1265 812 C 1253 775 1243 747 1237 729 C 1227 701 1217 670 1205 635 C 1193 600 1181 563 1168 523 C 1155 483 1142 443 1128 402 C 1114 360 1100 320 1087 281 C 1082 267 1077 251 1072 234 C 1066 216 1061 199 1057 181 C 1053 163 1049 147 1046 131 C 1043 115 1042 102 1042 92 C 1042 82 1047 73 1059 65 C 1070 57 1084 51 1101 45 C 1118 39 1136 33 1156 29 C 1176 25 1194 22 1212 20 L 1206 0 L 528 0 L 535 20 C 575 23 610 31 642 43 C 673 55 700 73 723 96 C 727 100 733 109 739 121 C 745 133 751 147 758 163 C 765 179 772 196 779 214 C 786 232 793 249 799 266 C 822 330 844 392 866 453 C 888 514 908 574 928 633 L 516 633 C 456 568 403 511 357 461 C 311 411 276 372 252 344 C 198 283 157 232 129 191 C 101 150 88 120 88 102 C 88 86 92 73 102 63 C 111 53 123 46 137 40 C 151 34 167 30 185 27 C 202 24 219 22 236 20 L 229 0 L -315 0 L -309 20 Z M 944 678 C 988 806 1027 922 1062 1025 C 1097 1127 1129 1219 1159 1300 C 1055 1192 952 1086 850 981 C 747 875 649 774 557 678 L 944 678 Z M 1568 1599 C 1554 1599 1540 1601 1527 1607 C 1514 1613 1503 1621 1493 1631 C 1483 1641 1475 1652 1469 1666 C 1463 1679 1460 1693 1460 1708 C 1460 1722 1463 1736 1469 1750 C 1475 1763 1483 1775 1493 1785 C 1503 1795 1514 1802 1527 1808 C 1540 1814 1554 1817 1568 1817 C 1582 1817 1596 1814 1610 1808 C 1623 1802 1635 1795 1645 1785 C 1655 1775 1662 1763 1668 1750 C 1674 1736 1677 1722 1677 1708 C 1677 1693 1674 1679 1668 1666 C 1662 1652 1655 1641 1645 1631 C 1635 1621 1623 1613 1610 1607 C 1596 1601 1582 1599 1568 1599 Z M 1173 1599 C 1158 1599 1144 1601 1131 1607 C 1117 1613 1106 1621 1096 1631 C 1086 1641 1078 1652 1072 1666 C 1066 1679 1064 1693 1064 1708 C 1064 1722 1066 1736 1072 1750 C 1078 1763 1086 1775 1096 1785 C 1106 1795 1117 1802 1131 1808 C 1144 1814 1158 1817 1173 1817 C 1187 1817 1201 1814 1215 1808 C 1228 1802 1240 1795 1250 1785 C 1260 1775 1267 1763 1273 1750 C 1279 1736 1282 1722 1282 1708 C 1282 1693 1279 1679 1273 1666 C 1267 1652 1260 1641 1250 1631 C 1240 1621 1228 1613 1215 1607 C 1201 1601 1187 1599 1173 1599 Z" unicode="" />
<glyph horiz-adv-x="1434" d="M -309 20 C -295 20 -276 23 -251 28 C -225 33 -193 45 -155 65 C -117 85 -72 114 -20 154 C 32 193 91 247 158 317 C 217 379 273 437 325 491 C 377 545 427 597 477 649 C 527 700 577 751 627 803 C 677 855 730 909 786 966 C 842 1023 901 1084 965 1150 C 1029 1215 1099 1287 1176 1366 L 1194 1399 L 1473 1499 L 1491 1487 C 1481 1458 1468 1422 1454 1379 C 1439 1335 1423 1289 1407 1239 C 1390 1189 1373 1137 1356 1085 C 1338 1033 1322 983 1306 937 C 1290 891 1277 849 1265 812 C 1253 775 1243 747 1237 729 C 1227 701 1217 670 1205 635 C 1193 600 1181 563 1168 523 C 1155 483 1142 443 1128 402 C 1114 360 1100 320 1087 281 C 1082 267 1077 251 1072 234 C 1066 216 1061 199 1057 181 C 1053 163 1049 147 1046 131 C 1043 115 1042 102 1042 92 C 1042 82 1047 73 1059 65 C 1070 57 1084 51 1101 45 C 1118 39 1136 33 1156 29 C 1176 25 1194 22 1212 20 L 1206 0 L 528 0 L 535 20 C 575 23 610 31 642 43 C 673 55 700 73 723 96 C 727 100 733 109 739 121 C 745 133 751 147 758 163 C 765 179 772 196 779 214 C 786 232 793 249 799 266 C 822 330 844 392 866 453 C 888 514 908 574 928 633 L 516 633 C 456 568 403 511 357 461 C 311 411 276 372 252 344 C 198 283 157 232 129 191 C 101 150 88 120 88 102 C 88 86 92 73 102 63 C 111 53 123 46 137 40 C 151 34 167 30 185 27 C 202 24 219 22 236 20 L 229 0 L -315 0 L -309 20 Z M 944 678 C 988 806 1027 922 1062 1025 C 1097 1127 1129 1219 1159 1300 C 1055 1192 952 1086 850 981 C 747 875 649 774 557 678 L 944 678 Z M 1378 1540 C 1352 1540 1328 1544 1306 1553 C 1284 1561 1265 1573 1249 1589 C 1233 1604 1220 1622 1211 1644 C 1202 1665 1198 1688 1198 1714 C 1198 1738 1202 1761 1212 1782 C 1222 1803 1235 1821 1251 1837 C 1267 1853 1286 1865 1308 1874 C 1330 1883 1353 1888 1378 1888 C 1402 1888 1426 1883 1448 1875 C 1470 1866 1489 1854 1505 1838 C 1521 1822 1534 1804 1544 1783 C 1553 1761 1558 1738 1558 1714 C 1558 1689 1553 1666 1544 1645 C 1534 1623 1522 1605 1506 1590 C 1490 1574 1471 1562 1449 1553 C 1427 1544 1403 1540 1378 1540 Z M 1378 1615 C 1406 1615 1427 1624 1443 1643 C 1458 1662 1466 1686 1466 1714 C 1466 1742 1458 1765 1443 1784 C 1427 1802 1406 1812 1378 1812 C 1351 1812 1330 1802 1314 1784 C 1298 1766 1290 1742 1290 1714 C 1290 1686 1297 1662 1313 1643 C 1328 1624 1350 1615 1378 1615 Z" unicode="" />
<glyph horiz-adv-x="2179" d="M -309 20 C -295 20 -276 23 -252 29 C -227 35 -196 48 -158 68 C -120 88 -74 117 -22 156 C 29 195 90 249 158 317 C 217 376 273 432 327 486 C 380 540 432 593 484 645 C 536 697 588 749 640 802 C 692 855 747 911 805 969 C 863 1027 924 1088 989 1154 C 1054 1219 1125 1290 1202 1368 C 1189 1377 1174 1387 1158 1397 C 1141 1407 1124 1416 1106 1424 C 1088 1432 1071 1439 1053 1445 C 1035 1450 1019 1453 1004 1454 L 1012 1475 L 2236 1475 L 2236 1094 L 2216 1087 C 2208 1103 2197 1122 2184 1145 C 2171 1167 2157 1191 2143 1216 C 2128 1240 2113 1265 2097 1289 C 2081 1313 2067 1336 2053 1356 C 2039 1376 2026 1392 2015 1405 C 2004 1417 1996 1425 1991 1427 C 1974 1432 1948 1436 1914 1439 C 1879 1442 1842 1444 1802 1444 C 1756 1444 1716 1442 1684 1438 C 1652 1434 1623 1432 1597 1430 L 1370 758 L 1460 758 C 1501 758 1540 763 1577 775 C 1613 787 1647 802 1679 821 C 1710 840 1738 861 1764 885 C 1789 909 1811 932 1830 956 C 1849 980 1865 1002 1878 1023 C 1890 1044 1899 1062 1905 1077 L 1929 1069 L 1708 360 L 1686 365 C 1686 374 1687 382 1688 389 C 1688 395 1689 402 1690 409 C 1690 415 1691 423 1691 431 C 1691 439 1692 449 1692 461 C 1692 469 1691 481 1689 497 C 1687 513 1684 531 1680 551 C 1675 571 1668 591 1659 611 C 1649 631 1637 650 1622 667 C 1606 684 1587 698 1565 709 C 1543 719 1516 725 1485 725 L 1360 725 C 1334 640 1308 560 1281 484 C 1254 408 1231 340 1212 281 C 1207 266 1202 248 1196 226 C 1190 204 1184 181 1178 157 C 1172 133 1166 109 1160 87 C 1154 65 1150 46 1147 31 L 1655 43 C 1667 43 1683 49 1705 62 C 1726 75 1750 92 1777 113 C 1803 134 1832 158 1862 185 C 1892 211 1921 239 1951 267 C 1980 295 2008 324 2036 352 C 2064 380 2089 405 2111 428 L 2130 418 L 1980 0 L 629 0 L 635 20 C 687 24 728 32 759 44 C 790 56 817 73 840 96 C 844 100 850 109 856 121 C 862 133 869 148 876 164 C 883 180 890 197 898 215 C 905 233 912 250 918 266 C 933 308 949 351 965 397 C 981 442 997 485 1012 527 C 1026 568 1039 606 1051 641 C 1063 675 1072 703 1079 725 L 618 725 C 537 641 466 567 405 502 C 344 436 296 384 260 344 C 206 284 164 233 134 192 C 103 150 88 120 88 102 C 88 86 92 73 102 63 C 111 53 123 46 137 40 C 151 34 167 30 185 27 C 202 24 219 22 236 20 L 229 0 L -315 0 L -309 20 Z M 1092 758 L 1323 1430 L 1309 1430 C 1263 1382 1212 1330 1157 1275 C 1102 1219 1045 1162 987 1104 C 929 1046 871 987 813 928 C 755 869 700 812 649 758 L 1092 758 Z" unicode="" />
<glyph horiz-adv-x="1360" d="M 471 -479 C 449 -479 428 -477 409 -473 C 390 -469 374 -463 360 -455 C 346 -447 335 -436 327 -423 C 319 -410 315 -394 315 -375 C 315 -367 316 -358 320 -350 C 323 -342 328 -334 334 -327 C 340 -320 348 -314 358 -310 C 368 -305 379 -303 391 -303 C 407 -303 420 -305 429 -310 C 437 -314 445 -321 453 -330 C 448 -339 445 -349 443 -360 C 441 -370 440 -379 440 -385 C 440 -431 457 -455 492 -455 C 513 -455 531 -444 547 -424 C 563 -403 571 -374 571 -336 C 571 -318 567 -300 560 -283 C 553 -266 543 -250 531 -236 C 518 -221 503 -208 485 -196 C 467 -184 448 -175 428 -168 L 614 -18 L 600 -18 C 523 -18 453 -6 389 17 C 325 40 271 74 226 119 C 180 163 145 218 120 284 C 94 349 82 424 82 508 C 82 599 94 687 119 771 C 144 855 179 933 224 1007 C 269 1080 322 1147 384 1207 C 446 1267 513 1318 586 1361 C 659 1403 736 1436 818 1460 C 900 1483 983 1495 1069 1495 C 1115 1495 1158 1491 1197 1485 C 1235 1479 1269 1471 1299 1463 C 1328 1454 1353 1445 1373 1435 C 1393 1425 1409 1417 1419 1411 L 1470 1462 L 1491 1456 L 1366 1008 L 1335 1012 C 1335 1018 1336 1026 1337 1035 C 1338 1044 1339 1053 1340 1063 C 1341 1073 1342 1082 1342 1091 C 1342 1099 1343 1106 1343 1112 C 1343 1126 1341 1145 1338 1169 C 1334 1192 1328 1216 1320 1242 C 1312 1268 1301 1294 1287 1320 C 1273 1346 1256 1369 1236 1390 C 1215 1410 1191 1427 1163 1440 C 1135 1453 1103 1460 1067 1460 C 1009 1460 951 1446 895 1420 C 838 1393 784 1356 732 1310 C 680 1263 632 1208 588 1144 C 544 1080 505 1010 473 935 C 440 860 414 781 396 699 C 378 616 369 533 369 449 C 369 377 376 315 390 264 C 404 213 425 171 452 138 C 479 105 512 81 550 66 C 588 50 630 43 678 43 C 743 43 803 54 857 78 C 911 101 960 135 1005 179 C 1050 223 1092 278 1130 342 C 1168 406 1205 480 1239 563 L 1268 553 L 1104 4 L 1077 4 L 1053 154 C 1035 135 1013 116 986 98 C 959 80 929 63 895 47 C 861 31 824 18 784 7 C 744 -4 704 -12 662 -16 L 575 -90 C 605 -102 630 -117 649 -133 C 668 -149 683 -165 693 -181 C 703 -197 710 -212 714 -227 C 717 -242 719 -255 719 -266 C 719 -297 710 -326 694 -352 C 677 -378 656 -400 631 -419 C 606 -438 579 -453 551 -463 C 522 -473 495 -479 471 -479 Z" unicode="" />
<glyph horiz-adv-x="1425" d="M -111 20 C -85 22 -61 25 -41 29 C -21 33 -3 38 13 44 C 29 50 43 58 56 66 C 68 74 80 84 92 96 C 96 100 102 109 108 121 C 114 133 121 148 128 164 C 134 180 141 197 148 215 C 155 233 162 250 168 266 C 184 310 200 357 217 406 C 234 454 250 500 265 544 C 279 587 292 625 304 658 C 315 691 323 715 328 729 C 343 773 357 815 371 855 C 385 895 398 934 411 973 C 424 1012 437 1052 450 1092 C 463 1132 477 1174 492 1219 C 498 1238 504 1260 510 1284 C 516 1308 520 1329 520 1348 C 520 1370 514 1388 503 1402 C 492 1416 478 1426 461 1434 C 444 1441 426 1446 406 1449 C 386 1451 368 1453 352 1454 L 360 1475 L 1483 1475 L 1483 1094 L 1462 1087 C 1454 1103 1443 1122 1430 1145 C 1417 1167 1403 1191 1389 1216 C 1374 1240 1359 1265 1343 1289 C 1327 1313 1313 1336 1299 1356 C 1285 1376 1272 1392 1261 1405 C 1250 1417 1242 1425 1237 1427 C 1220 1432 1194 1436 1160 1439 C 1126 1442 1089 1444 1049 1444 C 1002 1444 962 1442 930 1438 C 898 1434 869 1432 844 1430 L 625 782 L 715 782 C 756 782 795 787 832 799 C 868 811 902 826 933 845 C 964 864 992 885 1018 909 C 1043 933 1065 956 1084 980 C 1103 1004 1119 1026 1132 1048 C 1144 1069 1153 1087 1159 1102 L 1184 1094 L 963 385 L 940 389 C 940 399 941 407 942 413 C 942 419 943 426 944 433 C 944 439 945 447 945 455 C 945 463 946 473 946 485 C 946 493 945 505 944 521 C 942 537 939 555 934 575 C 929 595 922 615 913 636 C 904 656 892 675 877 692 C 861 709 842 723 820 734 C 797 744 770 750 739 750 L 614 750 C 601 708 588 668 576 631 C 564 593 551 556 539 520 C 527 483 514 445 501 406 C 487 367 473 325 459 281 C 454 266 449 248 443 226 C 437 204 430 181 424 157 C 418 133 412 109 407 87 C 401 65 397 46 393 31 L 901 43 C 913 43 929 49 951 62 C 972 75 996 92 1023 113 C 1049 134 1078 158 1108 185 C 1138 211 1167 239 1197 267 C 1227 295 1255 324 1283 352 C 1311 380 1336 405 1358 428 L 1376 418 L 1227 0 L -117 0 L -111 20 Z M 751 1806 L 751 1816 C 757 1828 766 1841 777 1855 C 787 1868 800 1880 814 1891 C 828 1901 843 1909 861 1915 C 878 1921 897 1923 917 1921 L 1185 1571 L 1163 1556 L 751 1806 Z" unicode="" />
<glyph horiz-adv-x="1425" d="M -111 20 C -85 22 -61 25 -41 29 C -21 33 -3 38 13 44 C 29 50 43 58 56 66 C 68 74 80 84 92 96 C 96 100 102 109 108 121 C 114 133 121 148 128 164 C 134 180 141 197 148 215 C 155 233 162 250 168 266 C 184 310 200 357 217 406 C 234 454 250 500 265 544 C 279 587 292 625 304 658 C 315 691 323 715 328 729 C 343 773 357 815 371 855 C 385 895 398 934 411 973 C 424 1012 437 1052 450 1092 C 463 1132 477 1174 492 1219 C 498 1238 504 1260 510 1284 C 516 1308 520 1329 520 1348 C 520 1370 514 1388 503 1402 C 492 1416 478 1426 461 1434 C 444 1441 426 1446 406 1449 C 386 1451 368 1453 352 1454 L 360 1475 L 1483 1475 L 1483 1094 L 1462 1087 C 1454 1103 1443 1122 1430 1145 C 1417 1167 1403 1191 1389 1216 C 1374 1240 1359 1265 1343 1289 C 1327 1313 1313 1336 1299 1356 C 1285 1376 1272 1392 1261 1405 C 1250 1417 1242 1425 1237 1427 C 1220 1432 1194 1436 1160 1439 C 1126 1442 1089 1444 1049 1444 C 1002 1444 962 1442 930 1438 C 898 1434 869 1432 844 1430 L 625 782 L 715 782 C 756 782 795 787 832 799 C 868 811 902 826 933 845 C 964 864 992 885 1018 909 C 1043 933 1065 956 1084 980 C 1103 1004 1119 1026 1132 1048 C 1144 1069 1153 1087 1159 1102 L 1184 1094 L 963 385 L 940 389 C 940 399 941 407 942 413 C 942 419 943 426 944 433 C 944 439 945 447 945 455 C 945 463 946 473 946 485 C 946 493 945 505 944 521 C 942 537 939 555 934 575 C 929 595 922 615 913 636 C 904 656 892 675 877 692 C 861 709 842 723 820 734 C 797 744 770 750 739 750 L 614 750 C 601 708 588 668 576 631 C 564 593 551 556 539 520 C 527 483 514 445 501 406 C 487 367 473 325 459 281 C 454 266 449 248 443 226 C 437 204 430 181 424 157 C 418 133 412 109 407 87 C 401 65 397 46 393 31 L 901 43 C 913 43 929 49 951 62 C 972 75 996 92 1023 113 C 1049 134 1078 158 1108 185 C 1138 211 1167 239 1197 267 C 1227 295 1255 324 1283 352 C 1311 380 1336 405 1358 428 L 1376 418 L 1227 0 L -117 0 L -111 20 Z M 919 1577 L 1171 1905 C 1191 1907 1209 1905 1225 1900 C 1241 1895 1256 1888 1269 1879 C 1281 1869 1292 1858 1302 1846 C 1312 1833 1320 1820 1327 1808 L 1327 1798 L 944 1563 L 919 1577 Z" unicode="" />
<glyph horiz-adv-x="1425" d="M -111 20 C -85 22 -61 25 -41 29 C -21 33 -3 38 13 44 C 29 50 43 58 56 66 C 68 74 80 84 92 96 C 96 100 102 109 108 121 C 114 133 121 148 128 164 C 134 180 141 197 148 215 C 155 233 162 250 168 266 C 184 310 200 357 217 406 C 234 454 250 500 265 544 C 279 587 292 625 304 658 C 315 691 323 715 328 729 C 343 773 357 815 371 855 C 385 895 398 934 411 973 C 424 1012 437 1052 450 1092 C 463 1132 477 1174 492 1219 C 498 1238 504 1260 510 1284 C 516 1308 520 1329 520 1348 C 520 1370 514 1388 503 1402 C 492 1416 478 1426 461 1434 C 444 1441 426 1446 406 1449 C 386 1451 368 1453 352 1454 L 360 1475 L 1483 1475 L 1483 1094 L 1462 1087 C 1454 1103 1443 1122 1430 1145 C 1417 1167 1403 1191 1389 1216 C 1374 1240 1359 1265 1343 1289 C 1327 1313 1313 1336 1299 1356 C 1285 1376 1272 1392 1261 1405 C 1250 1417 1242 1425 1237 1427 C 1220 1432 1194 1436 1160 1439 C 1126 1442 1089 1444 1049 1444 C 1002 1444 962 1442 930 1438 C 898 1434 869 1432 844 1430 L 625 782 L 715 782 C 756 782 795 787 832 799 C 868 811 902 826 933 845 C 964 864 992 885 1018 909 C 1043 933 1065 956 1084 980 C 1103 1004 1119 1026 1132 1048 C 1144 1069 1153 1087 1159 1102 L 1184 1094 L 963 385 L 940 389 C 940 399 941 407 942 413 C 942 419 943 426 944 433 C 944 439 945 447 945 455 C 945 463 946 473 946 485 C 946 493 945 505 944 521 C 942 537 939 555 934 575 C 929 595 922 615 913 636 C 904 656 892 675 877 692 C 861 709 842 723 820 734 C 797 744 770 750 739 750 L 614 750 C 601 708 588 668 576 631 C 564 593 551 556 539 520 C 527 483 514 445 501 406 C 487 367 473 325 459 281 C 454 266 449 248 443 226 C 437 204 430 181 424 157 C 418 133 412 109 407 87 C 401 65 397 46 393 31 L 901 43 C 913 43 929 49 951 62 C 972 75 996 92 1023 113 C 1049 134 1078 158 1108 185 C 1138 211 1167 239 1197 267 C 1227 295 1255 324 1283 352 C 1311 380 1336 405 1358 428 L 1376 418 L 1227 0 L -117 0 L -111 20 Z M 768 1571 L 1124 1919 L 1155 1919 L 1294 1571 L 1268 1556 L 1098 1702 L 790 1556 L 768 1571 Z" unicode="" />
<glyph horiz-adv-x="1425" d="M -111 20 C -85 22 -61 25 -41 29 C -21 33 -3 38 13 44 C 29 50 43 58 56 66 C 68 74 80 84 92 96 C 96 100 102 109 108 121 C 114 133 121 148 128 164 C 134 180 141 197 148 215 C 155 233 162 250 168 266 C 184 310 200 357 217 406 C 234 454 250 500 265 544 C 279 587 292 625 304 658 C 315 691 323 715 328 729 C 343 773 357 815 371 855 C 385 895 398 934 411 973 C 424 1012 437 1052 450 1092 C 463 1132 477 1174 492 1219 C 498 1238 504 1260 510 1284 C 516 1308 520 1329 520 1348 C 520 1370 514 1388 503 1402 C 492 1416 478 1426 461 1434 C 444 1441 426 1446 406 1449 C 386 1451 368 1453 352 1454 L 360 1475 L 1483 1475 L 1483 1094 L 1462 1087 C 1454 1103 1443 1122 1430 1145 C 1417 1167 1403 1191 1389 1216 C 1374 1240 1359 1265 1343 1289 C 1327 1313 1313 1336 1299 1356 C 1285 1376 1272 1392 1261 1405 C 1250 1417 1242 1425 1237 1427 C 1220 1432 1194 1436 1160 1439 C 1126 1442 1089 1444 1049 1444 C 1002 1444 962 1442 930 1438 C 898 1434 869 1432 844 1430 L 625 782 L 715 782 C 756 782 795 787 832 799 C 868 811 902 826 933 845 C 964 864 992 885 1018 909 C 1043 933 1065 956 1084 980 C 1103 1004 1119 1026 1132 1048 C 1144 1069 1153 1087 1159 1102 L 1184 1094 L 963 385 L 940 389 C 940 399 941 407 942 413 C 942 419 943 426 944 433 C 944 439 945 447 945 455 C 945 463 946 473 946 485 C 946 493 945 505 944 521 C 942 537 939 555 934 575 C 929 595 922 615 913 636 C 904 656 892 675 877 692 C 861 709 842 723 820 734 C 797 744 770 750 739 750 L 614 750 C 601 708 588 668 576 631 C 564 593 551 556 539 520 C 527 483 514 445 501 406 C 487 367 473 325 459 281 C 454 266 449 248 443 226 C 437 204 430 181 424 157 C 418 133 412 109 407 87 C 401 65 397 46 393 31 L 901 43 C 913 43 929 49 951 62 C 972 75 996 92 1023 113 C 1049 134 1078 158 1108 185 C 1138 211 1167 239 1197 267 C 1227 295 1255 324 1283 352 C 1311 380 1336 405 1358 428 L 1376 418 L 1227 0 L -117 0 L -111 20 Z M 1218 1599 C 1204 1599 1190 1601 1177 1607 C 1164 1613 1153 1621 1143 1631 C 1133 1641 1125 1652 1119 1666 C 1113 1679 1110 1693 1110 1708 C 1110 1722 1113 1736 1119 1750 C 1125 1763 1133 1775 1143 1785 C 1153 1795 1164 1802 1177 1808 C 1190 1814 1204 1817 1218 1817 C 1232 1817 1246 1814 1260 1808 C 1273 1802 1285 1795 1295 1785 C 1305 1775 1312 1763 1318 1750 C 1324 1736 1327 1722 1327 1708 C 1327 1693 1324 1679 1318 1666 C 1312 1652 1305 1641 1295 1631 C 1285 1621 1273 1613 1260 1607 C 1246 1601 1232 1599 1218 1599 Z M 823 1599 C 808 1599 794 1601 781 1607 C 767 1613 756 1621 746 1631 C 736 1641 728 1652 722 1666 C 716 1679 714 1693 714 1708 C 714 1722 716 1736 722 1750 C 728 1763 736 1775 746 1785 C 756 1795 767 1802 781 1808 C 794 1814 808 1817 823 1817 C 837 1817 851 1814 865 1808 C 878 1802 890 1795 900 1785 C 910 1775 917 1763 923 1750 C 929 1736 932 1722 932 1708 C 932 1693 929 1679 923 1666 C 917 1652 910 1641 900 1631 C 890 1621 878 1613 865 1607 C 851 1601 837 1599 823 1599 Z" unicode="" />
<glyph horiz-adv-x="821" d="M -109 20 C -56 24 -14 32 18 44 C 50 56 77 73 100 96 C 104 100 110 109 116 121 C 122 133 129 148 136 164 C 142 180 149 197 156 215 C 163 233 170 250 176 266 C 192 310 209 357 226 406 C 243 454 259 500 274 544 C 289 587 302 625 314 658 C 325 691 333 715 338 729 C 353 773 367 815 381 855 C 394 895 407 934 420 973 C 432 1012 445 1052 458 1092 C 471 1132 485 1174 500 1219 C 506 1238 512 1260 518 1284 C 524 1308 528 1329 528 1348 C 528 1370 522 1388 510 1402 C 498 1416 484 1426 466 1434 C 448 1441 429 1446 409 1449 C 389 1451 370 1453 354 1454 L 362 1475 L 1049 1475 L 1040 1454 C 1023 1452 1007 1449 991 1447 C 975 1444 960 1440 945 1434 C 930 1428 915 1419 900 1409 C 885 1398 870 1384 854 1366 C 846 1356 837 1343 829 1326 C 820 1308 811 1289 803 1268 C 794 1247 786 1225 778 1203 C 770 1180 762 1159 756 1139 L 614 729 C 604 701 594 670 583 635 C 571 600 559 563 547 523 C 534 483 521 443 507 402 C 493 360 480 320 467 281 C 461 265 456 249 451 233 C 445 216 440 200 436 184 C 432 168 428 154 426 141 C 423 128 422 118 422 111 C 422 96 427 83 438 73 C 449 63 463 54 480 47 C 496 39 514 33 534 29 C 554 25 572 22 590 20 L 584 0 L -115 0 L -109 20 Z M 454 1806 L 454 1816 C 460 1828 469 1841 480 1855 C 490 1868 503 1880 517 1891 C 531 1901 546 1909 564 1915 C 581 1921 600 1923 620 1921 L 888 1571 L 866 1556 L 454 1806 Z" unicode="" />
<glyph horiz-adv-x="821" d="M -109 20 C -56 24 -14 32 18 44 C 50 56 77 73 100 96 C 104 100 110 109 116 121 C 122 133 129 148 136 164 C 142 180 149 197 156 215 C 163 233 170 250 176 266 C 192 310 209 357 226 406 C 243 454 259 500 274 544 C 289 587 302 625 314 658 C 325 691 333 715 338 729 C 353 773 367 815 381 855 C 394 895 407 934 420 973 C 432 1012 445 1052 458 1092 C 471 1132 485 1174 500 1219 C 506 1238 512 1260 518 1284 C 524 1308 528 1329 528 1348 C 528 1370 522 1388 510 1402 C 498 1416 484 1426 466 1434 C 448 1441 429 1446 409 1449 C 389 1451 370 1453 354 1454 L 362 1475 L 1049 1475 L 1040 1454 C 1023 1452 1007 1449 991 1447 C 975 1444 960 1440 945 1434 C 930 1428 915 1419 900 1409 C 885 1398 870 1384 854 1366 C 846 1356 837 1343 829 1326 C 820 1308 811 1289 803 1268 C 794 1247 786 1225 778 1203 C 770 1180 762 1159 756 1139 L 614 729 C 604 701 594 670 583 635 C 571 600 559 563 547 523 C 534 483 521 443 507 402 C 493 360 480 320 467 281 C 461 265 456 249 451 233 C 445 216 440 200 436 184 C 432 168 428 154 426 141 C 423 128 422 118 422 111 C 422 96 427 83 438 73 C 449 63 463 54 480 47 C 496 39 514 33 534 29 C 554 25 572 22 590 20 L 584 0 L -115 0 L -109 20 Z M 625 1577 L 877 1905 C 897 1907 915 1905 931 1900 C 947 1895 962 1888 975 1879 C 987 1869 998 1858 1008 1846 C 1018 1833 1026 1820 1033 1808 L 1033 1798 L 650 1563 L 625 1577 Z" unicode="" />
<glyph horiz-adv-x="821" d="M -109 20 C -56 24 -14 32 18 44 C 50 56 77 73 100 96 C 104 100 110 109 116 121 C 122 133 129 148 136 164 C 142 180 149 197 156 215 C 163 233 170 250 176 266 C 192 310 209 357 226 406 C 243 454 259 500 274 544 C 289 587 302 625 314 658 C 325 691 333 715 338 729 C 353 773 367 815 381 855 C 394 895 407 934 420 973 C 432 1012 445 1052 458 1092 C 471 1132 485 1174 500 1219 C 506 1238 512 1260 518 1284 C 524 1308 528 1329 528 1348 C 528 1370 522 1388 510 1402 C 498 1416 484 1426 466 1434 C 448 1441 429 1446 409 1449 C 389 1451 370 1453 354 1454 L 362 1475 L 1049 1475 L 1040 1454 C 1023 1452 1007 1449 991 1447 C 975 1444 960 1440 945 1434 C 930 1428 915 1419 900 1409 C 885 1398 870 1384 854 1366 C 846 1356 837 1343 829 1326 C 820 1308 811 1289 803 1268 C 794 1247 786 1225 778 1203 C 770 1180 762 1159 756 1139 L 614 729 C 604 701 594 670 583 635 C 571 600 559 563 547 523 C 534 483 521 443 507 402 C 493 360 480 320 467 281 C 461 265 456 249 451 233 C 445 216 440 200 436 184 C 432 168 428 154 426 141 C 423 128 422 118 422 111 C 422 96 427 83 438 73 C 449 63 463 54 480 47 C 496 39 514 33 534 29 C 554 25 572 22 590 20 L 584 0 L -115 0 L -109 20 Z M 460 1571 L 816 1919 L 847 1919 L 986 1571 L 960 1556 L 790 1702 L 482 1556 L 460 1571 Z" unicode="" />
<glyph horiz-adv-x="821" d="M -109 20 C -56 24 -14 32 18 44 C 50 56 77 73 100 96 C 104 100 110 109 116 121 C 122 133 129 148 136 164 C 142 180 149 197 156 215 C 163 233 170 250 176 266 C 192 310 209 357 226 406 C 243 454 259 500 274 544 C 289 587 302 625 314 658 C 325 691 333 715 338 729 C 353 773 367 815 381 855 C 394 895 407 934 420 973 C 432 1012 445 1052 458 1092 C 471 1132 485 1174 500 1219 C 506 1238 512 1260 518 1284 C 524 1308 528 1329 528 1348 C 528 1370 522 1388 510 1402 C 498 1416 484 1426 466 1434 C 448 1441 429 1446 409 1449 C 389 1451 370 1453 354 1454 L 362 1475 L 1049 1475 L 1040 1454 C 1023 1452 1007 1449 991 1447 C 975 1444 960 1440 945 1434 C 930 1428 915 1419 900 1409 C 885 1398 870 1384 854 1366 C 846 1356 837 1343 829 1326 C 820 1308 811 1289 803 1268 C 794 1247 786 1225 778 1203 C 770 1180 762 1159 756 1139 L 614 729 C 604 701 594 670 583 635 C 571 600 559 563 547 523 C 534 483 521 443 507 402 C 493 360 480 320 467 281 C 461 265 456 249 451 233 C 445 216 440 200 436 184 C 432 168 428 154 426 141 C 423 128 422 118 422 111 C 422 96 427 83 438 73 C 449 63 463 54 480 47 C 496 39 514 33 534 29 C 554 25 572 22 590 20 L 584 0 L -115 0 L -109 20 Z M 935 1599 C 921 1599 907 1601 894 1607 C 881 1613 870 1621 860 1631 C 850 1641 842 1652 836 1666 C 830 1679 827 1693 827 1708 C 827 1722 830 1736 836 1750 C 842 1763 850 1775 860 1785 C 870 1795 881 1802 894 1808 C 907 1814 921 1817 935 1817 C 949 1817 963 1814 977 1808 C 990 1802 1002 1795 1012 1785 C 1022 1775 1029 1763 1035 1750 C 1041 1736 1044 1722 1044 1708 C 1044 1693 1041 1679 1035 1666 C 1029 1652 1022 1641 1012 1631 C 1002 1621 990 1613 977 1607 C 963 1601 949 1599 935 1599 Z M 540 1599 C 525 1599 511 1601 498 1607 C 484 1613 473 1621 463 1631 C 453 1641 445 1652 439 1666 C 433 1679 431 1693 431 1708 C 431 1722 433 1736 439 1750 C 445 1763 453 1775 463 1785 C 473 1795 484 1802 498 1808 C 511 1814 525 1817 540 1817 C 554 1817 568 1814 582 1808 C 595 1802 607 1795 617 1785 C 627 1775 634 1763 640 1750 C 646 1736 649 1722 649 1708 C 649 1693 646 1679 640 1666 C 634 1652 627 1641 617 1631 C 607 1621 595 1613 582 1607 C 568 1601 554 1599 540 1599 Z" unicode="" />
</font>
</defs>
</svg>
