<?xml version="1.0" encoding="utf-8" ?><svg version="1.1" xmlns = 'http://www.w3.org/2000/svg'><defs><font id='web' horiz-adv-x="1000">
<font-face font-family="web" descent="-438" cap-height="1532" units-per-em="2048" bbox="-582,-677,2881,2460" x-height="1092" ascent="1552" />
<missing-glyph horiz-adv-x="1024" d="M 128 0 L 128 1500 L 896 1500 L 896 0 L 128 0 Z M 256 128 L 768 128 L 768 1372 L 256 1372 L 256 128 Z" /><glyph horiz-adv-x="600" d="" unicode=" " />
<glyph horiz-adv-x="747" d="M 272 545 L 217 1530 L 524 1530 L 461 545 L 272 545 Z M 217 0 L 217 329 L 516 329 L 516 0 L 217 0 Z" unicode="!" />
<glyph horiz-adv-x="1001" d="M 372 997 L 166 997 L 112 1272 L 112 1560 L 420 1560 L 420 1272 L 372 997 Z M 844 997 L 637 997 L 583 1272 L 583 1560 L 891 1560 L 891 1272 L 844 997 Z" unicode="&#x22;" />
<glyph horiz-adv-x="1366" d="M 78 870 L 78 1061 L 387 1061 L 471 1444 L 659 1444 L 575 1061 L 930 1061 L 1011 1444 L 1202 1444 L 1118 1061 L 1288 1061 L 1288 870 L 1083 870 L 1020 569 L 1288 569 L 1288 379 L 983 379 L 901 0 L 710 0 L 794 379 L 436 379 L 358 0 L 168 0 L 248 379 L 78 379 L 78 569 L 286 569 L 350 870 L 78 870 Z M 893 870 L 538 870 L 475 569 L 831 569 L 893 870 Z" unicode="#" />
<glyph horiz-adv-x="1298" d="M 573 1560 L 573 1622 L 721 1622 L 721 1560 C 881 1532 1023 1451 1145 1319 L 934 1173 C 868 1230 797 1273 721 1302 L 721 925 C 1040 843 1200 678 1200 428 C 1200 308 1158 203 1076 115 C 994 27 875 -21 721 -30 L 721 -301 L 573 -301 L 573 -30 C 456 -16 360 13 285 58 C 210 103 137 175 67 274 L 284 426 C 367 308 463 239 573 219 L 573 651 C 261 721 106 880 106 1126 C 106 1227 146 1320 224 1405 C 302 1490 418 1542 573 1560 Z M 573 960 L 573 1315 C 428 1290 356 1230 356 1134 C 356 1095 370 1062 398 1036 C 426 1009 485 984 573 960 Z M 721 616 L 721 211 C 863 231 934 298 934 411 C 934 506 863 574 721 616 Z" unicode="$" />
<glyph horiz-adv-x="2003" d="M 344 -364 L 1333 1339 C 1208 1279 1099 1250 1007 1250 C 965 1250 924 1255 882 1265 C 892 1229 897 1190 897 1149 C 897 990 854 857 768 750 C 682 643 573 590 442 590 C 335 590 248 624 182 693 C 115 761 82 855 82 973 C 82 1127 124 1255 209 1358 C 294 1461 402 1513 534 1513 C 611 1513 686 1490 760 1446 C 843 1394 924 1368 1003 1368 C 1065 1368 1141 1382 1232 1411 C 1323 1439 1409 1503 1489 1601 L 1650 1601 L 514 -364 L 344 -364 Z M 319 942 C 319 889 331 847 355 815 C 379 783 411 768 450 768 C 511 768 561 802 599 872 C 637 942 657 1035 657 1151 C 657 1276 610 1339 516 1339 C 452 1339 403 1296 369 1210 C 335 1124 319 1034 319 942 Z M 1921 246 C 1921 94 1878 -33 1792 -137 C 1706 -241 1595 -293 1458 -293 C 1350 -293 1264 -257 1199 -187 C 1134 -116 1102 -22 1102 96 C 1102 246 1144 373 1228 476 C 1312 579 1421 631 1554 631 C 1666 631 1755 596 1821 526 C 1887 456 1921 362 1921 246 Z M 1343 59 C 1343 7 1355 -34 1380 -66 C 1405 -98 1437 -114 1476 -114 C 1534 -114 1583 -79 1623 -9 C 1662 60 1681 148 1681 254 C 1681 390 1632 459 1536 459 C 1478 459 1432 420 1397 342 C 1361 264 1343 170 1343 59 Z" unicode="%" />
<glyph horiz-adv-x="1515" d="M 395 856 C 321 976 284 1090 284 1196 C 284 1299 323 1385 402 1455 C 480 1525 580 1560 702 1560 C 812 1560 900 1530 968 1470 C 1035 1410 1069 1333 1069 1239 C 1069 1084 955 932 729 784 C 801 686 894 580 1007 467 C 1067 554 1121 667 1167 805 L 1405 729 C 1371 583 1306 439 1208 297 C 1288 242 1364 215 1437 215 L 1448 215 L 1474 -18 C 1429 -22 1400 -24 1388 -24 C 1278 -24 1158 20 1028 108 C 866 17 720 -28 588 -28 C 442 -28 321 11 225 89 C 129 167 82 269 82 395 C 82 584 186 738 395 856 Z M 600 971 C 760 1059 841 1145 841 1231 C 841 1271 827 1304 799 1332 C 771 1360 735 1374 692 1374 C 640 1374 598 1356 564 1322 C 530 1288 514 1246 514 1196 C 514 1134 542 1059 600 971 Z M 522 651 C 419 591 368 522 368 442 C 368 385 393 333 445 285 C 496 237 553 213 616 213 C 688 213 758 236 827 282 C 727 389 625 512 522 651 Z" unicode="&#x26;" />
<glyph horiz-adv-x="491" d="M 352 997 L 145 997 L 92 1272 L 92 1560 L 399 1560 L 399 1272 L 352 997 Z" unicode="'" />
<glyph horiz-adv-x="786" d="M 749 -280 L 643 -422 C 269 -172 82 157 82 569 C 82 771 125 951 211 1109 C 297 1267 434 1415 620 1552 L 749 1415 C 505 1172 383 886 383 557 C 383 435 403 313 443 191 C 483 69 585 -88 749 -280 Z" unicode="(" />
<glyph horiz-adv-x="786" d="M 33 1417 L 162 1552 C 524 1306 704 977 704 567 C 704 362 660 181 573 23 C 486 -134 345 -283 151 -424 L 33 -289 C 175 -128 271 14 323 139 C 375 263 401 399 401 547 C 401 717 373 870 319 1004 C 265 1138 169 1275 33 1417 Z" unicode=")" />
<glyph horiz-adv-x="960" d="M 155 1442 L 356 1552 L 477 1181 L 604 1552 L 798 1442 L 528 1153 L 913 1237 L 913 1009 L 528 1089 L 798 807 L 604 690 L 477 1065 L 356 690 L 155 807 L 428 1089 L 41 1009 L 41 1237 L 428 1153 L 155 1442 Z" unicode="*" />
<glyph horiz-adv-x="1366" d="M 125 659 L 125 874 L 573 874 L 573 1323 L 788 1323 L 788 874 L 1239 874 L 1239 659 L 788 659 L 788 211 L 573 211 L 573 659 L 125 659 Z" unicode="+" />
<glyph horiz-adv-x="559" d="M 129 0 L 129 334 L 430 334 L 430 0 L 246 -329 L 139 -329 L 303 0 L 129 0 Z" unicode="," />
<glyph horiz-adv-x="749" d="M 110 432 L 110 688 L 639 688 L 639 432 L 110 432 Z" unicode="-" />
<glyph horiz-adv-x="559" d="M 129 0 L 129 332 L 430 332 L 430 0 L 129 0 Z" unicode="." />
<glyph horiz-adv-x="1038" d="M 20 0 L 784 1530 L 1018 1530 L 252 0 L 20 0 Z" unicode="/" />
<glyph horiz-adv-x="1300" d="M 1216 768 C 1216 508 1168 310 1073 174 C 978 38 841 -30 663 -30 C 278 -30 86 231 86 753 C 86 1015 133 1215 228 1353 C 323 1491 459 1560 637 1560 C 1023 1560 1216 1296 1216 768 Z M 381 776 C 381 555 404 407 450 331 C 496 255 563 217 651 217 C 831 217 921 386 921 725 C 921 961 897 1118 851 1196 C 805 1274 739 1313 653 1313 C 471 1313 381 1134 381 776 Z" unicode="0" />
<glyph horiz-adv-x="1300" d="M 205 1155 L 205 1378 C 367 1412 511 1462 637 1530 L 856 1530 L 856 221 L 1157 221 L 1157 0 L 205 0 L 205 221 L 575 221 L 575 1237 C 457 1193 334 1165 205 1155 Z" unicode="1" />
<glyph horiz-adv-x="1300" d="M 354 1052 L 112 1114 C 213 1411 397 1560 665 1560 C 812 1560 932 1521 1026 1442 C 1120 1363 1167 1263 1167 1143 C 1167 1088 1157 1034 1136 982 C 1115 929 1084 877 1042 826 C 1000 775 903 686 752 558 C 614 441 512 338 446 250 L 1163 250 L 1163 0 L 100 0 L 100 49 C 100 119 116 190 149 262 C 182 333 232 405 298 477 L 666 808 C 738 873 791 932 825 984 C 859 1036 876 1083 876 1126 C 876 1182 855 1228 813 1264 C 771 1300 716 1319 649 1319 C 515 1319 416 1230 354 1052 Z" unicode="2" />
<glyph horiz-adv-x="1300" d="M 432 680 L 340 680 L 340 936 L 409 936 C 687 936 827 1002 827 1136 C 827 1185 806 1228 763 1264 C 719 1300 670 1319 614 1319 C 516 1319 417 1266 319 1161 L 135 1339 C 234 1425 321 1484 396 1515 C 470 1545 550 1560 635 1560 C 775 1560 890 1521 980 1443 C 1069 1365 1114 1271 1114 1163 C 1114 1083 1087 1013 1033 952 C 979 890 903 847 807 823 C 1025 741 1134 597 1134 389 C 1134 265 1085 165 988 88 C 890 10 764 -28 608 -28 C 393 -28 213 69 69 264 L 289 401 C 408 270 518 205 618 205 C 680 205 734 225 779 265 C 823 305 846 354 846 413 C 846 501 809 567 736 612 C 663 657 562 680 432 680 Z" unicode="3" />
<glyph horiz-adv-x="1300" d="M 51 553 L 671 1530 L 1028 1530 L 1028 553 L 1245 553 L 1245 303 L 1028 303 L 1028 0 L 764 0 L 764 303 L 51 303 L 51 553 Z M 764 553 L 764 1224 L 346 553 L 764 553 Z" unicode="4" />
<glyph horiz-adv-x="1300" d="M 153 710 L 231 1530 L 1071 1530 L 1071 1286 L 461 1286 L 426 915 C 530 982 635 1016 739 1016 C 863 1016 965 968 1044 874 C 1123 780 1163 660 1163 516 C 1163 355 1113 224 1015 123 C 917 22 787 -28 626 -28 C 429 -28 258 56 112 225 L 370 358 C 436 260 515 211 608 211 C 682 211 745 239 795 295 C 845 351 870 424 870 514 C 870 594 849 661 805 714 C 761 767 706 794 641 794 C 555 794 473 750 395 663 L 153 710 Z" unicode="5" />
<glyph horiz-adv-x="1300" d="M 1181 1364 L 1011 1149 C 933 1248 844 1298 745 1298 C 642 1298 556 1254 488 1166 C 419 1077 379 956 368 803 C 497 913 630 968 766 968 C 889 968 995 923 1084 833 C 1173 743 1218 630 1218 495 C 1218 347 1167 222 1066 121 C 965 20 839 -30 688 -30 C 513 -30 371 34 261 164 C 151 294 96 470 96 694 C 96 944 156 1151 276 1315 C 396 1479 546 1560 727 1560 C 901 1560 1052 1494 1181 1364 Z M 391 489 C 436 305 534 213 684 213 C 756 213 814 237 860 287 C 905 336 927 398 927 473 C 927 544 907 602 865 648 C 823 694 768 717 700 717 C 565 717 462 641 391 489 Z" unicode="6" />
<glyph horiz-adv-x="1300" d="M 123 1270 L 123 1530 L 1159 1530 L 1159 1270 L 561 0 L 254 0 L 852 1270 L 123 1270 Z" unicode="7" />
<glyph horiz-adv-x="1300" d="M 362 801 C 198 887 116 1006 116 1159 C 116 1279 165 1376 264 1450 C 362 1523 491 1560 649 1560 C 804 1560 931 1523 1029 1450 C 1127 1376 1175 1281 1175 1165 C 1175 1013 1087 888 913 790 C 1119 711 1222 582 1222 403 C 1222 274 1169 170 1065 91 C 960 11 819 -28 643 -28 C 469 -28 330 12 226 92 C 122 172 69 276 69 405 C 69 573 166 705 362 801 Z M 635 899 C 799 957 882 1039 882 1147 C 882 1201 861 1245 820 1279 C 779 1313 725 1331 657 1331 C 582 1331 523 1314 479 1281 C 435 1248 413 1203 413 1147 C 413 1054 487 971 635 899 Z M 645 694 C 457 624 364 534 364 424 C 364 357 389 304 439 266 C 488 228 557 209 645 209 C 729 209 798 228 852 267 C 905 306 932 358 932 422 C 932 478 912 526 872 568 C 832 609 757 651 645 694 Z" unicode="8" />
<glyph horiz-adv-x="1300" d="M 114 174 L 286 393 C 366 290 455 239 555 239 C 649 239 734 283 808 369 C 882 455 924 578 934 739 C 803 625 671 569 538 569 C 410 569 302 614 214 705 C 126 795 82 908 82 1042 C 82 1191 133 1315 236 1413 C 339 1511 466 1560 618 1560 C 786 1560 925 1494 1037 1363 C 1148 1231 1204 1053 1204 827 C 1204 575 1144 370 1024 211 C 904 51 749 -28 561 -28 C 385 -28 236 39 114 174 Z M 909 1050 C 858 1233 760 1325 616 1325 C 544 1325 486 1301 442 1254 C 398 1207 377 1145 377 1069 C 377 995 397 936 438 890 C 479 844 532 821 598 821 C 724 821 828 897 909 1050 Z" unicode="9" />
<glyph horiz-adv-x="747" d="M 221 762 L 221 1089 L 524 1089 L 524 762 L 221 762 Z M 221 0 L 221 334 L 524 334 L 524 0 L 221 0 Z" unicode=":" />
<glyph horiz-adv-x="747" d="M 219 762 L 219 1089 L 518 1089 L 518 762 L 219 762 Z M 219 0 L 219 329 L 518 329 L 518 0 L 325 -327 L 219 -327 L 383 0 L 219 0 Z" unicode=";" />
<glyph horiz-adv-x="1366" d="M 1239 438 L 1239 205 L 127 669 L 127 864 L 1239 1327 L 1239 1095 L 420 766 L 1239 438 Z" unicode="&#x3C;" />
<glyph horiz-adv-x="1366" d="M 127 899 L 127 1114 L 1239 1114 L 1239 899 L 127 899 Z M 127 422 L 127 637 L 1239 637 L 1239 422 L 127 422 Z" unicode="=" />
<glyph horiz-adv-x="1366" d="M 127 1095 L 127 1327 L 1239 864 L 1239 669 L 127 205 L 127 438 L 946 766 L 127 1095 Z" unicode="&#x3E;" />
<glyph horiz-adv-x="960" d="M 280 1192 L 100 1321 C 224 1480 355 1560 493 1560 C 601 1560 691 1523 762 1451 C 833 1379 868 1293 868 1194 C 868 1070 806 954 684 844 C 622 788 579 740 556 700 C 533 660 522 605 522 534 L 286 534 C 286 644 298 730 323 793 C 348 856 389 916 446 973 C 533 1060 577 1135 577 1198 C 577 1226 567 1251 547 1273 C 527 1294 501 1304 471 1304 C 421 1304 358 1266 280 1192 Z M 256 0 L 256 327 L 553 327 L 553 0 L 256 0 Z" unicode="?" />
<glyph horiz-adv-x="2096" d="M 1586 -96 L 1710 -242 C 1637 -290 1545 -328 1434 -357 C 1322 -386 1214 -401 1110 -401 C 796 -401 550 -313 371 -139 C 191 35 102 275 102 579 C 102 857 198 1091 390 1279 C 581 1467 821 1560 1110 1560 C 1372 1560 1586 1478 1752 1316 C 1918 1154 2002 950 2002 704 C 2002 514 1951 362 1851 249 C 1750 136 1610 80 1432 80 C 1326 80 1250 123 1204 209 C 1170 170 1124 138 1066 114 C 1008 90 951 78 895 78 C 804 78 730 114 674 186 C 618 258 590 350 590 463 C 590 617 632 755 716 878 C 800 1001 907 1063 1037 1063 C 1125 1063 1199 1030 1261 966 L 1274 1063 L 1538 1063 L 1459 504 C 1451 448 1447 403 1447 370 C 1447 303 1470 270 1516 270 C 1591 270 1656 310 1710 391 C 1764 471 1791 576 1791 704 C 1791 898 1729 1057 1605 1183 C 1481 1308 1316 1371 1110 1371 C 882 1371 693 1296 543 1146 C 393 995 319 806 319 579 C 319 341 390 149 534 5 C 677 -139 869 -212 1110 -212 C 1300 -212 1459 -173 1586 -96 Z M 1233 765 C 1189 816 1141 842 1090 842 C 1018 842 962 806 921 734 C 879 662 859 576 859 478 C 859 356 910 295 1014 295 C 1070 295 1125 326 1178 389 L 1233 765 Z" unicode="@" />
<glyph horiz-adv-x="1419" d="M 30 0 L 547 1530 L 860 1530 L 1388 0 L 1059 0 L 942 358 L 452 358 L 336 0 L 30 0 Z M 870 581 L 696 1116 L 522 581 L 870 581 Z" unicode="A" />
<glyph horiz-adv-x="1489" d="M 862 0 L 188 0 L 188 1530 L 839 1530 C 1015 1530 1144 1496 1226 1428 C 1307 1360 1347 1272 1347 1165 C 1347 997 1251 879 1061 813 C 1277 748 1386 617 1386 420 C 1386 296 1339 195 1246 117 C 1152 39 1024 0 862 0 Z M 801 1298 L 487 1298 L 487 930 L 809 930 C 876 930 931 946 973 980 C 1015 1014 1036 1059 1036 1116 C 1036 1237 957 1298 801 1298 Z M 790 694 L 487 694 L 487 235 L 729 235 C 958 235 1073 313 1073 469 C 1073 537 1047 592 997 633 C 946 673 877 694 790 694 Z" unicode="B" />
<glyph horiz-adv-x="1392" d="M 1063 516 L 1341 438 C 1302 287 1233 171 1133 91 C 1033 10 910 -30 764 -30 C 564 -30 404 38 283 176 C 162 314 102 501 102 739 C 102 992 163 1192 287 1339 C 410 1486 572 1560 772 1560 C 907 1560 1025 1522 1125 1447 C 1225 1372 1292 1270 1327 1140 L 1046 1063 C 1005 1229 909 1313 758 1313 C 652 1313 568 1262 508 1161 C 448 1060 418 924 418 753 C 418 596 446 472 503 380 C 560 288 635 243 729 243 C 890 243 1001 334 1063 516 Z" unicode="C" />
<glyph horiz-adv-x="1519" d="M 188 0 L 188 1530 L 745 1530 C 945 1530 1107 1460 1231 1320 C 1355 1180 1417 998 1417 776 C 1417 549 1355 363 1233 218 C 1110 72 931 0 696 0 L 188 0 Z M 641 1272 L 493 1272 L 493 268 L 702 268 C 821 268 917 317 990 413 C 1063 509 1100 632 1100 780 C 1100 928 1057 1047 972 1137 C 887 1227 777 1272 641 1272 Z" unicode="D" />
<glyph horiz-adv-x="1290" d="M 188 0 L 188 1530 L 1214 1530 L 1214 1263 L 489 1263 L 489 927 L 932 927 L 932 680 L 489 680 L 489 264 L 1214 264 L 1214 0 L 188 0 Z" unicode="E" />
<glyph horiz-adv-x="1169" d="M 188 0 L 188 1530 L 1128 1530 L 1128 1265 L 491 1265 L 491 866 L 858 866 L 858 602 L 491 602 L 491 0 L 188 0 Z" unicode="F" />
<glyph horiz-adv-x="1558" d="M 782 553 L 782 782 L 1425 782 L 1425 0 L 1183 0 L 1183 186 C 1052 43 899 -28 723 -28 C 535 -28 385 35 272 165 C 158 294 102 487 102 745 C 102 1003 165 1204 289 1346 C 413 1488 586 1560 807 1560 C 958 1560 1085 1521 1189 1444 C 1292 1367 1362 1256 1399 1112 L 1159 1030 C 1098 1212 983 1304 815 1304 C 551 1304 420 1125 420 768 C 420 572 455 433 525 350 C 595 266 686 225 798 225 C 894 225 977 254 1047 311 C 1116 368 1161 449 1183 553 L 782 553 Z" unicode="G" />
<glyph horiz-adv-x="1554" d="M 188 0 L 188 1530 L 487 1530 L 487 925 L 1063 925 L 1063 1530 L 1366 1530 L 1366 0 L 1063 0 L 1063 661 L 487 661 L 487 0 L 188 0 Z" unicode="H" />
<glyph horiz-adv-x="678" d="M 188 0 L 188 1530 L 489 1530 L 489 0 L 188 0 Z" unicode="I" />
<glyph horiz-adv-x="1046" d="M 583 467 L 583 1530 L 882 1530 L 882 467 C 882 319 837 199 749 108 C 660 16 551 -28 422 -28 C 262 -28 116 54 -16 219 L 178 393 C 262 285 338 231 405 231 C 457 231 499 253 533 295 C 567 337 583 395 583 467 Z" unicode="J" />
<glyph horiz-adv-x="1448" d="M 188 0 L 188 1530 L 489 1530 L 489 854 L 1040 1530 L 1372 1530 L 893 940 L 1427 0 L 1114 0 L 719 723 L 489 456 L 489 0 L 188 0 Z" unicode="K" />
<glyph horiz-adv-x="1161" d="M 188 0 L 188 1530 L 487 1530 L 487 264 L 1120 264 L 1120 0 L 188 0 Z" unicode="L" />
<glyph horiz-adv-x="1843" d="M 188 0 L 188 1530 L 665 1530 L 921 581 L 1177 1530 L 1655 1530 L 1655 0 L 1368 0 L 1368 1362 L 999 0 L 839 0 L 473 1362 L 473 0 L 188 0 Z" unicode="M" />
<glyph horiz-adv-x="1622" d="M 188 0 L 188 1530 L 508 1530 L 1134 504 L 1134 1530 L 1433 1530 L 1433 0 L 1134 0 L 489 1067 L 489 0 L 188 0 Z" unicode="N" />
<glyph horiz-adv-x="1550" d="M 1448 755 C 1448 507 1389 315 1272 178 C 1154 40 990 -28 780 -28 C 568 -28 402 41 282 180 C 162 318 102 513 102 764 C 102 1010 160 1204 278 1346 C 395 1488 551 1560 745 1560 C 971 1560 1145 1491 1266 1353 C 1387 1215 1448 1016 1448 755 Z M 413 764 C 413 593 445 463 508 373 C 570 283 660 237 778 237 C 891 237 979 282 1041 373 C 1103 463 1134 593 1134 762 C 1134 1119 1012 1298 770 1298 C 655 1298 567 1252 505 1160 C 443 1068 413 936 413 764 Z" unicode="O" />
<glyph horiz-adv-x="1419" d="M 188 0 L 188 1530 L 674 1530 C 818 1530 935 1519 1025 1497 C 1114 1475 1189 1429 1251 1358 C 1312 1286 1343 1195 1343 1085 C 1343 935 1290 817 1186 730 C 1082 643 940 600 760 600 L 491 600 L 491 0 L 188 0 Z M 745 1265 L 491 1265 L 491 850 L 739 850 C 825 850 895 869 949 909 C 1003 949 1030 1002 1030 1069 C 1030 1199 935 1265 745 1265 Z" unicode="P" />
<glyph horiz-adv-x="1550" d="M 1308 -397 L 1169 -397 C 983 -397 844 -368 754 -310 C 663 -252 612 -148 600 0 C 268 76 102 332 102 770 C 102 1014 162 1206 282 1348 C 401 1489 562 1560 766 1560 C 980 1560 1148 1490 1268 1350 C 1388 1210 1448 1013 1448 760 C 1448 537 1400 358 1304 223 C 1208 87 1073 7 899 -18 C 915 -91 948 -141 996 -169 C 1044 -197 1117 -211 1214 -211 C 1238 -211 1270 -209 1308 -207 L 1308 -397 Z M 418 774 C 418 583 452 446 521 362 C 589 278 676 235 780 235 C 880 235 964 277 1032 360 C 1100 442 1134 574 1134 755 C 1134 940 1102 1076 1038 1164 C 974 1252 885 1296 772 1296 C 658 1296 571 1251 510 1162 C 448 1073 418 944 418 774 Z" unicode="Q" />
<glyph horiz-adv-x="1448" d="M 188 0 L 188 1530 L 602 1530 C 786 1530 925 1517 1020 1492 C 1115 1466 1191 1414 1247 1334 C 1303 1254 1331 1160 1331 1050 C 1331 958 1309 883 1265 824 C 1221 764 1148 713 1044 671 L 1341 0 L 1022 0 L 766 614 L 489 614 L 489 0 L 188 0 Z M 731 1263 L 489 1263 L 489 850 L 731 850 C 815 850 883 869 937 909 C 991 949 1018 1001 1018 1065 C 1018 1197 922 1263 731 1263 Z" unicode="R" />
<glyph horiz-adv-x="1298" d="M 76 323 L 344 428 C 396 348 446 293 496 263 C 545 233 602 219 667 219 C 742 219 803 238 850 276 C 897 314 921 362 921 420 C 921 462 910 496 886 522 C 862 548 823 573 769 598 C 714 623 643 647 557 671 C 269 750 125 898 125 1114 C 125 1248 172 1356 267 1438 C 362 1520 486 1560 639 1560 C 871 1560 1044 1463 1159 1270 L 905 1167 C 823 1283 730 1341 626 1341 C 561 1341 508 1323 466 1286 C 424 1248 403 1203 403 1149 C 403 1097 428 1055 478 1024 C 528 993 609 964 719 936 C 1039 853 1200 690 1200 446 C 1200 310 1149 197 1048 106 C 947 15 814 -30 649 -30 C 387 -30 196 87 76 323 Z" unicode="S" />
<glyph horiz-adv-x="1241" d="M 41 1267 L 41 1530 L 1200 1530 L 1200 1267 L 770 1267 L 770 0 L 469 0 L 469 1267 L 41 1267 Z" unicode="T" />
<glyph horiz-adv-x="1556" d="M 170 545 L 170 1530 L 471 1530 L 471 596 C 471 484 497 398 550 338 C 602 278 677 248 774 248 C 872 248 949 278 1003 338 C 1057 398 1083 484 1083 596 L 1083 1530 L 1386 1530 L 1386 551 C 1386 365 1335 222 1233 122 C 1131 22 985 -28 794 -28 C 378 -28 170 163 170 545 Z" unicode="U" />
<glyph horiz-adv-x="1327" d="M 518 0 L 30 1530 L 344 1530 L 663 456 L 985 1530 L 1296 1530 L 809 0 L 518 0 Z" unicode="V" />
<glyph horiz-adv-x="1890" d="M 430 0 L 47 1530 L 356 1530 L 563 635 L 774 1530 L 1116 1530 L 1327 626 L 1534 1530 L 1843 1530 L 1460 0 L 1224 0 L 948 1167 L 665 0 L 430 0 Z" unicode="W" />
<glyph horiz-adv-x="1300" d="M 949 0 L 650 535 L 348 0 L 12 0 L 492 800 L 52 1530 L 390 1530 L 651 1063 L 909 1530 L 1247 1530 L 809 800 L 1287 0 L 949 0 Z" unicode="X" />
<glyph horiz-adv-x="1229" d="M 463 682 L 8 1530 L 342 1530 L 616 979 L 887 1530 L 1220 1530 L 766 682 L 766 0 L 463 0 L 463 682 Z" unicode="Y" />
<glyph horiz-adv-x="1280" d="M 100 1267 L 100 1530 L 1186 1530 L 1186 1294 L 473 264 L 1204 264 L 1204 0 L 63 0 L 63 205 L 801 1267 L 100 1267 Z" unicode="Z" />
<glyph horiz-adv-x="784" d="M 188 -405 L 188 1530 L 743 1530 L 743 1298 L 477 1298 L 477 -172 L 743 -172 L 743 -405 L 188 -405 Z" unicode="[" />
<glyph horiz-adv-x="1036" d="M 784 0 L 20 1530 L 252 1530 L 1016 0 L 784 0 Z" unicode="\" />
<glyph horiz-adv-x="784" d="M 41 1298 L 41 1530 L 596 1530 L 596 -403 L 41 -403 L 41 -170 L 307 -170 L 307 1298 L 41 1298 Z" unicode="]" />
<glyph horiz-adv-x="1194" d="M 340 731 L 114 731 L 491 1530 L 712 1530 L 1079 731 L 858 731 L 598 1337 L 340 731 Z" unicode="^" />
<glyph horiz-adv-x="1024" d="M 1036 -256 L -12 -256 L -12 -153 L 1036 -153 L 1036 -256 Z" unicode="_" />
<glyph horiz-adv-x="682" d="M 319 1227 L -12 1563 L 317 1563 L 504 1227 L 319 1227 Z" unicode="`" />
<glyph horiz-adv-x="1153" d="M 731 112 C 630 25 523 -18 411 -18 C 316 -18 236 10 171 68 C 105 125 73 196 73 282 C 73 389 122 482 222 562 C 322 642 488 693 721 717 L 721 749 C 721 801 704 843 672 874 C 639 904 594 919 536 919 C 440 919 356 870 284 774 L 104 911 C 215 1042 364 1108 551 1108 C 687 1108 795 1074 875 1008 C 955 941 995 849 995 733 L 995 223 C 995 148 1007 74 1032 0 L 758 0 C 745 41 736 78 731 112 Z M 721 289 L 721 561 C 471 513 346 428 346 305 C 346 263 358 229 382 204 C 406 178 437 166 477 166 C 546 166 627 207 721 289 Z" unicode="a" />
<glyph horiz-adv-x="1259" d="M 444 127 L 444 0 L 168 0 L 168 1552 L 444 1552 L 444 958 C 537 1058 637 1108 745 1108 C 866 1108 965 1057 1043 956 C 1120 854 1159 721 1159 555 C 1159 379 1120 239 1042 136 C 964 33 865 -18 745 -18 C 643 -18 543 30 444 127 Z M 444 768 L 444 323 C 508 248 575 211 645 211 C 717 211 773 241 813 303 C 853 365 874 452 874 565 C 874 662 854 739 814 795 C 773 851 719 880 651 880 C 575 880 506 842 444 768 Z" unicode="b" />
<glyph horiz-adv-x="1044" d="M 792 399 L 1009 293 C 923 85 784 -18 590 -18 C 442 -18 322 34 230 138 C 138 242 92 376 92 540 C 92 704 139 839 234 947 C 328 1054 450 1108 598 1108 C 770 1108 903 1015 995 831 L 762 768 C 712 848 653 889 585 889 C 523 889 472 861 434 806 C 396 751 377 676 377 581 C 377 465 396 374 435 309 C 473 243 526 211 594 211 C 690 211 756 273 792 399 Z" unicode="c" />
<glyph horiz-adv-x="1259" d="M 813 0 L 813 125 C 723 29 623 -18 512 -18 C 393 -18 295 34 217 139 C 139 244 100 378 100 542 C 100 707 140 843 219 949 C 297 1055 396 1108 516 1108 C 628 1108 727 1060 813 964 L 813 1552 L 1087 1552 L 1087 0 L 813 0 Z M 813 313 L 813 772 C 747 841 681 876 614 876 C 543 876 487 846 446 786 C 405 726 385 643 385 536 C 385 438 406 359 449 299 C 492 239 548 209 616 209 C 686 209 752 243 813 313 Z" unicode="d" />
<glyph horiz-adv-x="1173" d="M 831 356 L 1057 262 C 957 75 808 -18 612 -18 C 460 -18 336 35 239 141 C 142 247 94 386 94 557 C 94 722 140 855 234 956 C 328 1057 450 1108 600 1108 C 746 1108 863 1062 951 970 C 1038 878 1081 754 1081 600 C 1081 586 1079 551 1077 497 L 375 497 C 377 405 400 333 443 282 C 486 230 543 205 614 205 C 706 205 778 255 831 356 Z M 372 661 L 831 661 C 827 743 805 807 763 853 C 721 899 668 921 604 921 C 539 921 486 898 444 852 C 402 806 378 742 372 661 Z" unicode="e" />
<glyph horiz-adv-x="676" d="M 65 1089 L 190 1089 C 198 1275 233 1399 294 1460 C 355 1521 443 1552 559 1552 L 663 1552 L 663 1360 L 616 1360 C 516 1360 467 1322 467 1247 L 467 1089 L 633 1089 L 633 891 L 467 891 L 467 0 L 190 0 L 190 891 L 65 891 L 65 1089 Z" unicode="f" />
<glyph horiz-adv-x="1175" d="M 882 1038 C 972 1106 1056 1140 1136 1140 L 1163 1140 L 1163 958 L 1110 958 C 1066 958 1025 947 987 927 C 1022 871 1040 806 1040 733 C 1040 619 999 527 917 459 C 835 391 726 356 588 356 C 538 356 488 359 438 366 C 390 340 366 310 366 276 C 366 250 380 231 410 220 C 440 209 537 201 702 196 C 861 192 976 169 1047 127 C 1117 85 1153 10 1153 -96 C 1153 -324 966 -438 594 -438 C 241 -438 65 -343 65 -155 C 65 -44 131 28 264 63 C 176 107 133 166 133 239 C 133 323 182 382 280 418 C 165 494 108 599 108 731 C 108 851 148 943 228 1009 C 308 1075 424 1108 575 1108 C 703 1108 805 1084 882 1038 Z M 366 733 C 366 677 387 629 428 589 C 468 549 517 530 575 530 C 633 530 682 549 722 589 C 762 628 782 676 782 733 C 782 789 762 836 721 876 C 679 916 631 936 577 936 C 517 936 467 916 427 876 C 387 836 366 789 366 733 Z M 405 14 C 338 -16 305 -58 305 -112 C 305 -205 410 -252 622 -252 C 813 -252 909 -209 909 -123 C 909 -92 896 -68 870 -50 C 844 -32 805 -21 753 -17 L 405 14 Z" unicode="g" />
<glyph horiz-adv-x="1231" d="M 168 0 L 168 1552 L 444 1552 L 444 942 C 573 1052 701 1108 829 1108 C 905 1108 965 1083 1007 1035 C 1049 987 1071 919 1071 831 L 1071 0 L 796 0 L 796 764 C 796 844 763 884 698 884 C 632 884 547 839 444 749 L 444 0 L 168 0 Z" unicode="h" />
<glyph horiz-adv-x="610" d="M 168 1278 L 168 1552 L 442 1552 L 442 1278 L 168 1278 Z M 168 0 L 168 1089 L 442 1089 L 442 0 L 168 0 Z" unicode="i" />
<glyph horiz-adv-x="612" d="M 168 1272 L 168 1552 L 444 1552 L 444 1272 L 168 1272 Z M 168 -86 L 168 1089 L 444 1089 L 444 -125 C 444 -225 413 -302 350 -356 C 287 -410 199 -438 86 -438 L -41 -438 L -41 -243 C 42 -241 98 -227 126 -201 C 154 -175 168 -136 168 -86 Z" unicode="j" />
<glyph horiz-adv-x="1147" d="M 166 0 L 166 1552 L 444 1552 L 444 639 L 805 1089 L 1089 1089 L 743 649 L 1139 0 L 838 0 L 596 459 L 444 293 L 444 0 L 166 0 Z" unicode="k" />
<glyph horiz-adv-x="612" d="M 168 0 L 168 1552 L 444 1552 L 444 0 L 168 0 Z" unicode="l" />
<glyph horiz-adv-x="1896" d="M 444 708 L 444 0 L 168 0 L 168 1089 L 444 1089 L 444 876 C 575 1030 702 1108 825 1108 C 897 1108 953 1090 993 1055 C 1033 1020 1062 957 1081 866 C 1179 977 1255 1045 1309 1070 C 1362 1095 1416 1108 1472 1108 C 1648 1108 1736 985 1736 739 L 1736 0 L 1462 0 L 1462 694 C 1462 816 1419 878 1333 878 C 1266 878 1185 821 1089 708 L 1089 0 L 815 0 L 815 682 C 815 818 774 887 692 887 C 611 887 528 827 444 708 Z" unicode="m" />
<glyph horiz-adv-x="1231" d="M 444 745 L 444 0 L 168 0 L 168 1089 L 444 1089 L 444 940 C 560 1052 687 1108 823 1108 C 988 1108 1071 1015 1071 831 L 1071 0 L 798 0 L 798 760 C 798 842 764 884 696 884 C 627 884 543 837 444 745 Z" unicode="n" />
<glyph horiz-adv-x="1173" d="M 1081 551 C 1081 377 1035 239 944 136 C 853 33 735 -18 590 -18 C 442 -18 322 33 230 135 C 138 237 92 375 92 549 C 92 719 135 855 221 957 C 307 1059 420 1110 561 1110 C 725 1110 853 1060 945 962 C 1036 863 1081 726 1081 551 Z M 368 538 C 368 300 440 182 585 182 C 734 182 809 311 809 569 C 809 677 789 760 749 820 C 709 879 656 909 588 909 C 441 909 368 785 368 538 Z" unicode="o" />
<glyph horiz-adv-x="1259" d="M 454 1089 L 454 977 C 550 1064 645 1108 741 1108 C 855 1108 953 1056 1035 953 C 1117 849 1159 716 1159 553 C 1159 390 1117 254 1034 145 C 951 36 855 -18 745 -18 C 663 -18 566 29 454 125 L 454 -438 L 176 -438 L 176 1089 L 454 1089 Z M 454 788 L 454 315 C 532 259 604 231 669 231 C 735 231 788 260 826 317 C 864 374 884 455 884 559 C 884 653 865 729 825 786 C 785 842 731 870 665 870 C 605 870 535 842 454 788 Z" unicode="p" />
<glyph horiz-adv-x="1237" d="M 801 971 L 801 1089 L 1075 1089 L 1075 -438 L 801 -438 L 801 127 C 693 30 593 -18 499 -18 C 391 -18 296 37 214 148 C 132 259 92 396 92 559 C 92 720 135 852 221 954 C 307 1056 405 1108 516 1108 C 605 1108 700 1062 801 971 Z M 801 315 L 801 786 C 721 840 650 868 590 868 C 522 868 467 839 427 782 C 387 725 366 647 366 549 C 366 451 386 374 428 316 C 469 258 524 229 592 229 C 650 229 719 257 801 315 Z" unicode="q" />
<glyph horiz-adv-x="829" d="M 446 1089 L 446 829 C 553 1011 670 1104 798 1108 L 798 829 L 774 829 C 704 829 639 808 581 766 C 523 724 478 664 446 588 L 446 0 L 168 0 L 168 1089 L 446 1089 Z" unicode="r" />
<glyph horiz-adv-x="1022" d="M 67 180 L 235 297 C 333 221 425 184 512 184 C 628 184 686 220 686 293 C 686 359 619 403 487 424 C 369 442 274 482 202 543 C 130 603 94 679 94 770 C 94 863 134 943 214 1009 C 294 1075 394 1108 514 1108 C 645 1108 781 1056 921 954 L 762 821 C 661 887 580 921 520 921 C 472 921 433 909 403 885 C 373 860 358 830 358 794 C 358 758 375 729 409 709 C 443 689 514 667 622 643 C 752 614 841 575 891 526 C 940 477 964 412 964 332 C 964 228 923 143 842 79 C 761 14 652 -18 514 -18 C 344 -18 195 48 67 180 Z" unicode="s" />
<glyph horiz-adv-x="751" d="M 213 1089 L 213 1442 L 487 1442 L 487 1089 L 680 1089 L 680 891 L 487 891 L 487 311 C 487 276 500 250 526 234 C 552 218 603 209 680 209 L 680 -16 L 588 -18 C 515 -18 454 -11 405 3 C 355 17 311 52 272 108 C 232 164 213 231 213 311 L 213 891 L 45 891 L 45 1089 L 213 1089 Z" unicode="t" />
<glyph horiz-adv-x="1231" d="M 786 0 L 786 164 C 664 42 544 -18 424 -18 C 346 -18 282 9 234 64 C 186 119 162 193 162 286 L 162 1089 L 440 1089 L 440 342 C 440 305 450 275 472 252 C 494 228 521 217 555 217 C 621 217 698 263 786 356 L 786 1089 L 1063 1089 L 1063 0 L 786 0 Z" unicode="u" />
<glyph horiz-adv-x="1026" d="M 352 0 L 41 1089 L 319 1089 L 512 366 L 706 1089 L 985 1089 L 671 0 L 352 0 Z" unicode="v" />
<glyph horiz-adv-x="1581" d="M 397 0 L 51 1089 L 317 1089 L 504 479 L 688 1089 L 893 1089 L 1079 471 L 1261 1089 L 1530 1089 L 1181 0 L 989 0 L 790 657 L 592 0 L 397 0 Z" unicode="w" />
<glyph horiz-adv-x="1028" d="M 375 555 L 51 1089 L 358 1089 L 516 803 L 674 1089 L 979 1089 L 657 555 L 987 0 L 686 0 L 516 309 L 346 0 L 41 0 L 375 555 Z" unicode="x" />
<glyph horiz-adv-x="1065" d="M 403 -33 L 41 1089 L 321 1089 L 534 391 L 745 1089 L 1024 1089 L 696 65 C 632 -133 563 -266 489 -335 C 414 -403 308 -438 170 -438 L 71 -438 L 71 -235 L 125 -235 C 280 -235 373 -167 403 -33 Z" unicode="y" />
<glyph horiz-adv-x="1003" d="M 106 868 L 106 1089 L 934 1089 L 934 868 L 387 223 L 934 223 L 934 0 L 61 0 L 61 223 L 612 868 L 106 868 Z" unicode="z" />
<glyph horiz-adv-x="788" d="M 743 -391 L 690 -391 C 522 -391 413 -361 362 -303 C 311 -245 284 -173 282 -88 C 276 134 269 266 259 307 C 249 348 228 381 196 407 C 164 433 118 447 59 450 L 59 690 C 118 693 164 707 196 733 C 228 759 249 792 259 833 C 269 873 276 1005 282 1227 C 284 1311 311 1382 362 1441 C 413 1500 522 1530 690 1530 L 743 1530 L 743 1290 L 731 1290 C 623 1290 564 1272 553 1236 C 542 1200 536 1130 534 1026 C 531 867 515 760 486 706 C 456 652 412 606 352 569 C 416 533 463 483 492 419 C 520 355 534 253 534 114 C 534 14 541 -55 554 -93 C 567 -131 626 -151 731 -151 L 743 -151 L 743 -391 Z" unicode="{" />
<glyph horiz-adv-x="1194" d="M 489 -438 L 489 1530 L 706 1530 L 706 -438 L 489 -438 Z" unicode="|" />
<glyph horiz-adv-x="788" d="M 729 690 L 729 450 C 671 447 625 432 591 406 C 557 380 535 341 526 291 C 517 241 510 114 506 -88 C 504 -172 477 -244 426 -303 C 374 -361 265 -391 98 -391 L 45 -391 L 45 -151 L 59 -151 C 146 -151 199 -141 217 -121 C 235 -101 246 -64 250 -8 C 255 158 261 266 267 316 C 273 365 289 412 316 457 C 343 501 383 539 436 569 C 363 615 314 671 290 735 C 266 799 254 896 254 1026 C 254 1122 250 1184 244 1213 C 238 1241 219 1261 189 1273 C 159 1284 115 1290 59 1290 L 45 1290 L 45 1530 L 98 1530 C 180 1530 249 1523 305 1510 C 360 1496 407 1466 445 1418 C 483 1370 504 1306 506 1227 C 511 1005 519 873 529 833 C 539 792 560 759 592 733 C 624 707 670 693 729 690 Z" unicode="}" />
<glyph horiz-adv-x="1343" d="M 1227 985 L 1227 762 C 1111 668 1010 622 923 622 C 858 622 769 649 655 703 C 541 757 462 784 420 784 C 324 784 222 735 116 637 L 116 860 C 224 951 330 997 434 997 C 496 997 583 970 695 917 C 807 863 887 837 934 837 C 1017 837 1115 886 1227 985 Z" unicode="~" />
<glyph horiz-adv-x="1300" d="M 416 975 L 1073 975 L 1044 827 L 397 827 C 395 809 395 784 395 754 C 395 734 395 717 397 702 L 1022 702 L 993 555 L 414 555 C 434 444 469 360 517 303 C 565 245 623 217 692 217 C 755 217 812 236 862 275 C 912 314 951 370 979 442 L 1249 365 C 1164 101 988 -31 721 -31 C 563 -31 431 19 326 120 C 221 220 153 365 121 555 L -2 555 L 27 702 L 106 702 C 104 732 104 754 104 767 C 104 781 105 801 109 827 L -2 827 L 27 975 L 125 975 C 160 1162 232 1306 340 1408 C 448 1510 579 1561 735 1561 C 849 1561 951 1528 1041 1463 C 1131 1397 1197 1306 1239 1188 L 969 1110 C 921 1245 838 1313 721 1313 C 567 1313 465 1200 416 975 Z" unicode="" />
<glyph horiz-adv-x="600" d="" unicode=" " />
<glyph horiz-adv-x="747" d="M 225 780 L 225 1108 L 524 1108 L 524 780 L 225 780 Z M 213 -422 L 278 563 L 469 563 L 524 -422 L 213 -422 Z" unicode="¡" />
<glyph horiz-adv-x="960" d="M 913 1548 L 727 975 C 800 923 854 854 889 766 L 721 698 C 706 730 687 760 665 786 L 469 184 L 508 182 C 602 182 668 234 708 340 L 862 262 C 778 75 649 -18 475 -18 C 450 -18 427 -15 405 -10 L 272 -415 L 182 -415 L 325 20 C 247 62 187 127 145 215 C 103 302 82 402 82 516 C 82 671 123 795 206 889 C 289 983 396 1030 526 1030 C 565 1030 605 1023 647 1009 L 823 1548 L 913 1548 Z M 393 227 L 590 831 C 570 836 550 839 528 839 C 463 839 409 817 367 774 C 324 731 303 648 303 526 C 303 394 333 294 393 227 Z" unicode="¢" />
<glyph horiz-adv-x="1280" d="M 631 907 L 936 907 L 936 708 L 674 708 C 682 650 686 601 686 559 C 686 467 673 385 649 311 C 777 252 861 223 899 223 C 965 223 1001 272 1005 370 L 1235 370 C 1232 243 1199 145 1137 75 C 1075 5 996 -28 901 -28 C 803 -28 685 19 549 114 C 459 19 369 -28 278 -28 C 206 -28 147 -7 103 34 C 59 76 37 130 37 196 C 37 264 59 321 103 365 C 147 409 203 432 272 432 C 306 432 367 417 456 389 L 459 426 C 459 502 442 596 409 708 L 119 708 L 119 907 L 358 907 C 334 983 323 1057 323 1130 C 323 1262 360 1366 436 1444 C 511 1522 613 1560 743 1560 C 964 1560 1089 1431 1118 1175 L 876 1157 C 867 1295 817 1364 727 1364 C 681 1364 645 1349 619 1319 C 593 1289 579 1248 579 1198 C 579 1127 596 1030 631 907 Z M 409 209 C 347 256 294 280 250 280 C 199 280 174 254 174 203 C 174 178 182 158 199 142 C 215 126 236 119 262 119 C 317 119 366 149 409 209 Z" unicode="£" />
<glyph horiz-adv-x="1429" d="M 299 1202 L 432 1069 C 515 1118 599 1143 684 1143 C 770 1143 854 1118 938 1069 L 1069 1202 L 1210 1059 L 1079 927 C 1128 846 1153 762 1153 676 C 1153 585 1128 501 1079 424 L 1210 295 L 1069 153 L 938 282 C 860 233 775 209 684 209 C 594 209 510 233 432 282 L 303 153 L 159 295 L 291 424 C 241 501 217 585 217 676 C 217 766 241 849 291 927 L 159 1059 L 299 1202 Z M 418 676 C 418 602 443 539 495 487 C 547 435 610 409 684 409 C 758 409 821 435 874 487 C 926 539 952 602 952 676 C 952 749 925 812 873 864 C 821 916 758 942 684 942 C 610 942 547 916 495 864 C 443 812 418 749 418 676 Z" unicode="¤" />
<glyph horiz-adv-x="1335" d="M 1253 1530 L 983 999 L 1253 999 L 1253 852 L 907 852 L 819 680 L 819 561 L 1253 561 L 1253 413 L 819 413 L 819 0 L 516 0 L 516 413 L 82 413 L 82 561 L 516 561 L 516 680 L 428 852 L 82 852 L 82 999 L 354 999 L 82 1530 L 395 1530 L 669 999 L 940 1530 L 1253 1530 Z" unicode="¥" />
<glyph horiz-adv-x="1194" d="M 489 801 L 489 1530 L 706 1530 L 706 801 L 489 801 Z M 489 -438 L 489 293 L 706 293 L 706 -438 L 489 -438 Z" unicode="¦" />
<glyph horiz-adv-x="1100" d="M 135 -108 L 389 -69 C 411 -179 463 -235 547 -235 C 580 -235 609 -225 633 -205 C 657 -185 669 -163 669 -137 C 669 -115 659 -91 641 -66 C 623 -40 602 -19 580 -1 C 558 16 450 95 258 237 C 147 325 92 430 92 553 C 92 721 167 850 319 940 C 211 1038 157 1137 157 1235 C 157 1333 192 1411 264 1471 C 336 1530 433 1560 557 1560 C 779 1560 914 1451 962 1235 L 708 1198 C 686 1307 633 1362 547 1362 C 514 1362 486 1352 464 1334 C 441 1315 430 1291 430 1263 C 430 1207 518 1119 696 999 C 832 907 918 831 954 771 C 989 711 1007 643 1007 567 C 1007 407 931 282 780 192 C 885 92 938 -9 938 -112 C 938 -210 902 -288 830 -348 C 758 -408 663 -438 545 -438 C 313 -438 177 -328 135 -108 Z M 456 831 C 377 759 338 686 338 614 C 338 576 350 539 376 503 C 401 466 490 399 643 301 C 719 368 758 440 758 516 C 758 554 745 591 719 629 C 693 667 605 734 456 831 Z" unicode="§" />
<glyph horiz-adv-x="682" d="M 11 1272 L 11 1487 L 230 1487 L 230 1272 L 11 1272 Z M 453 1272 L 453 1487 L 670 1487 L 670 1272 L 453 1272 Z" unicode="¨" />
<glyph horiz-adv-x="1736" d="M 1634 794 C 1634 582 1559 402 1409 252 C 1259 102 1079 28 868 28 C 656 28 475 102 326 252 C 176 401 102 582 102 794 C 102 1006 176 1186 326 1336 C 475 1485 656 1560 868 1560 C 1080 1560 1260 1485 1410 1336 C 1559 1186 1634 1006 1634 794 Z M 254 794 C 254 624 313 478 433 358 C 553 238 698 178 868 178 C 1038 178 1183 238 1304 358 C 1424 478 1485 624 1485 794 C 1485 964 1424 1109 1304 1229 C 1183 1349 1038 1409 868 1409 C 698 1409 553 1349 433 1229 C 313 1109 254 964 254 794 Z M 1216 975 L 1052 938 C 1017 1030 958 1077 874 1077 C 810 1077 760 1052 724 1004 C 687 955 669 889 669 807 C 669 609 734 510 866 510 C 959 510 1022 566 1054 680 L 1216 626 C 1162 452 1044 366 862 366 C 755 366 667 404 597 482 C 527 560 493 664 493 794 C 493 923 528 1026 598 1103 C 668 1179 762 1218 880 1218 C 1044 1218 1156 1137 1216 975 Z" unicode="©" />
<glyph horiz-adv-x="807" d="M 209 1364 L 96 1461 C 177 1551 278 1596 398 1596 C 598 1596 698 1506 698 1326 L 698 952 C 698 914 707 870 725 819 L 554 819 C 542 841 535 868 531 898 C 458 834 383 803 306 803 C 241 803 186 825 140 867 C 94 909 71 959 71 1017 C 71 1190 224 1293 531 1326 C 529 1419 484 1466 398 1466 C 329 1466 266 1432 209 1364 Z M 531 1024 L 531 1216 C 343 1180 249 1119 249 1031 C 249 1003 258 981 276 963 C 294 945 318 936 346 936 C 398 936 459 965 531 1024 Z" unicode="ª" />
<glyph horiz-adv-x="1143" d="M 559 542 L 796 1028 L 1083 1028 L 848 542 L 1083 61 L 796 61 L 559 542 Z M 59 542 L 286 1028 L 588 1028 L 354 542 L 588 61 L 297 61 L 59 542 Z" unicode="«" />
<glyph horiz-adv-x="1366" d="M 125 897 L 125 1112 L 1239 1112 L 1239 409 L 1024 409 L 1024 897 L 125 897 Z" unicode="¬" />
<glyph horiz-adv-x="749" d="M 110 432 L 110 688 L 639 688 L 639 432 L 110 432 Z" unicode="­" />
<glyph horiz-adv-x="1736" d="M 1634 794 C 1634 582 1559 401 1410 252 C 1260 102 1080 28 868 28 C 656 28 475 102 326 252 C 176 401 102 582 102 794 C 102 1006 177 1186 327 1336 C 476 1485 656 1560 868 1560 C 1080 1560 1260 1486 1410 1336 C 1560 1186 1634 1006 1634 794 Z M 254 794 C 254 624 314 478 434 358 C 554 238 700 178 870 178 C 1040 178 1185 238 1305 358 C 1425 478 1485 624 1485 794 C 1485 965 1425 1111 1305 1231 C 1185 1351 1040 1411 870 1411 C 700 1411 554 1351 434 1231 C 314 1111 254 965 254 794 Z M 719 385 L 553 385 L 553 1198 L 938 1198 C 1025 1198 1093 1177 1141 1136 C 1189 1095 1212 1038 1212 966 C 1212 907 1193 857 1154 816 C 1114 774 1061 749 993 739 C 1025 727 1050 710 1070 688 C 1090 666 1121 619 1165 547 L 1261 385 L 1057 385 L 989 516 C 949 592 914 645 884 675 C 854 704 814 719 762 719 L 719 719 L 719 385 Z M 719 1069 L 719 846 L 852 846 C 974 846 1036 885 1036 964 C 1036 1034 980 1069 868 1069 L 719 1069 Z" unicode="®" />
<glyph horiz-adv-x="1024" d="M 1036 1669 L -12 1669 L -12 1771 L 1036 1771 L 1036 1669 Z" unicode="¯" />
<glyph horiz-adv-x="811" d="M 405 1560 C 493 1560 568 1528 631 1466 C 693 1404 725 1329 725 1241 C 725 1153 693 1077 631 1015 C 568 952 493 921 405 921 C 317 921 241 952 179 1015 C 117 1077 86 1153 86 1241 C 86 1329 117 1404 179 1466 C 241 1528 317 1560 405 1560 Z M 405 1081 C 449 1081 486 1096 517 1127 C 547 1158 563 1196 563 1241 C 563 1284 547 1321 517 1352 C 486 1382 449 1398 405 1398 C 360 1398 322 1382 292 1352 C 261 1322 246 1285 246 1241 C 246 1197 261 1159 293 1128 C 324 1096 361 1081 405 1081 Z" unicode="°" />
<glyph horiz-adv-x="1366" d="M 125 841 L 125 1054 L 573 1054 L 573 1505 L 788 1505 L 788 1054 L 1239 1054 L 1239 841 L 788 841 L 788 391 L 573 391 L 573 841 L 125 841 Z M 125 33 L 125 248 L 1239 248 L 1239 33 L 125 33 Z" unicode="±" />
<glyph horiz-adv-x="641" d="M 196 1319 L 80 1366 C 141 1484 227 1544 338 1544 C 401 1544 454 1524 498 1486 C 541 1447 563 1397 563 1337 C 563 1291 552 1253 532 1221 C 511 1189 461 1138 381 1069 C 321 1017 276 965 246 911 L 563 911 L 563 768 L 80 768 C 80 851 92 921 117 979 C 142 1037 188 1093 255 1147 L 347 1224 C 383 1258 401 1293 401 1327 C 401 1375 375 1399 323 1399 C 278 1399 236 1372 196 1319 Z" unicode="²" />
<glyph horiz-adv-x="641" d="M 250 1089 L 225 1089 L 225 1214 C 343 1218 403 1255 403 1327 C 403 1353 393 1374 373 1391 C 352 1408 329 1417 303 1417 C 260 1417 216 1392 172 1343 L 73 1417 C 151 1501 235 1544 323 1544 C 390 1544 444 1526 486 1490 C 528 1454 549 1407 549 1351 C 549 1267 493 1203 381 1159 C 507 1123 571 1055 571 956 C 571 896 547 846 497 806 C 447 766 388 745 319 745 C 220 745 138 796 73 899 L 184 948 C 218 896 260 870 309 870 C 374 870 407 901 407 964 C 407 1000 392 1030 363 1054 C 334 1077 296 1089 250 1089 Z" unicode="³" />
<glyph horiz-adv-x="682" d="M 170 1227 L 360 1563 L 688 1563 L 356 1227 L 170 1227 Z" unicode="´" />
<glyph horiz-adv-x="1259" d="M 856 0 L 856 129 C 800 25 729 -26 643 -26 C 555 -26 484 25 430 129 L 430 -407 L 151 -407 L 151 1061 L 430 1061 L 430 581 C 430 423 449 320 487 272 C 525 224 572 200 628 200 C 764 200 833 305 833 516 L 833 1061 L 1118 1061 L 1118 0 L 856 0 Z" unicode="µ" />
<glyph horiz-adv-x="1315" d="M 678 1270 L 678 -440 L 475 -440 L 475 708 C 346 717 241 759 161 833 C 81 907 41 1001 41 1114 C 41 1391 232 1530 616 1530 L 1274 1530 L 1274 1270 L 1100 1270 L 1100 -440 L 903 -440 L 903 1270 L 678 1270 Z" unicode="¶" />
<glyph horiz-adv-x="710" d="M 205 661 L 205 989 L 506 989 L 506 661 L 205 661 Z" unicode="·" />
<glyph horiz-adv-x="682" d="M 303 10 L 479 10 L 430 -80 C 542 -110 598 -168 598 -256 C 598 -311 574 -355 526 -388 C 478 -421 416 -438 338 -438 C 237 -438 126 -414 6 -368 L 78 -250 C 172 -280 244 -295 293 -295 C 347 -295 375 -276 375 -239 C 375 -189 330 -165 240 -165 C 226 -165 212 -166 198 -168 L 303 10 Z" unicode="¸" />
<glyph horiz-adv-x="641" d="M 96 1317 L 96 1458 C 148 1476 202 1497 258 1521 L 407 1521 L 407 909 L 559 909 L 559 768 L 104 768 L 104 909 L 258 909 L 258 1351 C 228 1343 174 1331 96 1317 Z" unicode="¹" />
<glyph horiz-adv-x="837" d="M 765 1207 C 765 1085 734 987 670 915 C 606 842 523 806 423 806 C 320 806 236 842 170 914 C 104 986 71 1082 71 1204 C 71 1326 104 1422 168 1492 C 232 1561 319 1596 428 1596 C 535 1596 618 1562 677 1494 C 736 1426 765 1330 765 1207 Z M 263 1202 C 263 1030 314 945 418 945 C 522 945 574 1032 574 1207 C 574 1373 523 1456 421 1456 C 315 1456 263 1371 263 1202 Z" unicode="º" />
<glyph horiz-adv-x="1143" d="M 293 545 L 57 1028 L 348 1028 L 579 545 L 348 61 L 57 61 L 293 545 Z M 798 545 L 563 1028 L 850 1028 L 1085 545 L 850 61 L 563 61 L 798 545 Z" unicode="»" />
<glyph horiz-adv-x="1921" d="M 403 -186 L 1415 1569 L 1536 1493 L 526 -252 L 403 -186 Z M 76 1337 L 76 1495 C 154 1501 218 1520 266 1552 L 430 1552 L 430 741 L 592 741 L 592 581 L 65 581 L 65 741 L 233 741 L 233 1368 C 182 1349 130 1339 76 1337 Z M 1042 106 L 1472 786 L 1706 786 L 1706 116 L 1820 116 L 1820 -43 L 1706 -43 L 1706 -252 L 1511 -252 L 1511 -43 L 1042 -43 L 1042 106 Z M 1511 116 L 1511 581 L 1218 116 L 1511 116 Z" unicode="¼" />
<glyph horiz-adv-x="1921" d="M 102 1339 L 102 1503 C 174 1510 237 1529 289 1560 L 452 1560 L 452 743 L 612 743 L 612 583 L 84 583 L 84 743 L 256 743 L 256 1368 C 214 1352 162 1342 102 1339 Z M 354 -184 L 1364 1560 L 1487 1493 L 479 -250 L 354 -184 Z M 1343 481 L 1177 518 C 1233 695 1342 784 1505 784 C 1594 784 1669 756 1730 701 C 1790 645 1820 578 1820 499 C 1820 448 1805 399 1775 352 C 1745 304 1691 246 1614 176 C 1514 86 1437 9 1382 -55 L 1827 -55 L 1827 -250 L 1157 -250 L 1157 -116 C 1183 -28 1265 84 1403 221 L 1558 368 C 1595 402 1614 442 1614 487 C 1614 525 1602 556 1579 580 C 1556 604 1526 616 1489 616 C 1423 616 1375 571 1343 481 Z" unicode="½" />
<glyph horiz-adv-x="1921" d="M 403 -190 L 1413 1560 L 1536 1489 L 528 -254 L 403 -190 Z M 266 993 L 227 993 L 227 1151 L 286 1151 C 430 1151 502 1191 502 1272 C 502 1299 489 1323 463 1343 C 437 1363 408 1374 377 1374 C 318 1374 264 1346 215 1290 L 88 1399 C 186 1501 298 1552 422 1552 C 505 1552 572 1528 623 1480 C 673 1432 698 1370 698 1296 C 698 1200 638 1125 518 1071 C 647 1025 712 949 712 841 C 712 763 681 700 619 651 C 557 601 479 577 387 577 C 243 577 134 632 59 743 L 190 841 C 258 775 321 743 379 743 C 413 743 442 754 467 777 C 491 799 504 827 504 860 C 504 948 424 993 266 993 Z M 1054 102 L 1478 780 L 1718 780 L 1718 112 L 1829 112 L 1829 -45 L 1718 -45 L 1718 -254 L 1523 -254 L 1523 -45 L 1054 -45 L 1054 102 Z M 1523 112 L 1523 583 L 1231 112 L 1523 112 Z" unicode="¾" />
<glyph horiz-adv-x="960" d="M 710 1108 L 710 780 L 413 780 L 413 1108 L 710 1108 Z M 686 -84 L 866 -213 C 742 -372 611 -452 473 -452 C 365 -452 275 -415 204 -343 C 133 -271 98 -185 98 -86 C 98 36 159 153 282 264 C 344 320 387 367 410 407 C 433 446 444 501 444 573 L 680 573 C 680 463 667 377 642 314 C 617 251 576 191 520 135 C 432 47 389 -27 389 -90 C 389 -118 399 -143 419 -164 C 439 -185 464 -196 495 -196 C 544 -196 608 -158 686 -84 Z" unicode="¿" />
<glyph horiz-adv-x="1419" d="M 30 0 L 547 1530 L 860 1530 L 1388 0 L 1059 0 L 942 358 L 452 358 L 336 0 L 30 0 Z M 870 581 L 696 1116 L 522 581 L 870 581 Z M 699 1640 L 368 1976 L 697 1976 L 884 1640 L 699 1640 Z" unicode="À" />
<glyph horiz-adv-x="1419" d="M 30 0 L 547 1530 L 860 1530 L 1388 0 L 1059 0 L 942 358 L 452 358 L 336 0 L 30 0 Z M 870 581 L 696 1116 L 522 581 L 870 581 Z M 518 1640 L 708 1976 L 1036 1976 L 704 1640 L 518 1640 Z" unicode="Á" />
<glyph horiz-adv-x="1419" d="M 30 0 L 547 1530 L 860 1530 L 1388 0 L 1059 0 L 942 358 L 452 358 L 336 0 L 30 0 Z M 870 581 L 696 1116 L 522 581 L 870 581 Z M 338 1638 L 628 1956 L 784 1956 L 1064 1638 L 886 1638 L 704 1777 L 523 1638 L 338 1638 Z" unicode="Â" />
<glyph horiz-adv-x="1419" d="M 30 0 L 547 1530 L 860 1530 L 1388 0 L 1059 0 L 942 358 L 452 358 L 336 0 L 30 0 Z M 870 581 L 696 1116 L 522 581 L 870 581 Z M 493 1652 L 338 1652 C 354 1835 427 1927 556 1927 C 608 1927 664 1909 724 1873 C 784 1836 823 1818 841 1818 C 874 1818 897 1853 909 1923 L 1058 1923 C 1046 1741 975 1650 847 1650 C 810 1650 767 1662 719 1688 C 625 1736 574 1761 567 1761 C 549 1761 532 1750 516 1730 C 500 1709 493 1683 493 1652 Z" unicode="Ã" />
<glyph horiz-adv-x="1419" d="M 30 0 L 547 1530 L 860 1530 L 1388 0 L 1059 0 L 942 358 L 452 358 L 336 0 L 30 0 Z M 870 581 L 696 1116 L 522 581 L 870 581 Z M 370 1685 L 370 1900 L 589 1900 L 589 1685 L 370 1685 Z M 812 1685 L 812 1900 L 1029 1900 L 1029 1685 L 812 1685 Z" unicode="Ä" />
<glyph horiz-adv-x="1419" d="M 30 0 L 547 1530 L 860 1530 L 1388 0 L 1059 0 L 942 358 L 452 358 L 336 0 L 30 0 Z M 870 581 L 696 1116 L 522 581 L 870 581 Z M 912 1843 C 912 1785 891 1735 851 1695 C 811 1654 761 1633 703 1633 C 645 1633 595 1653 554 1694 C 513 1734 493 1783 493 1841 C 493 1899 514 1949 557 1990 C 600 2031 649 2052 703 2052 C 761 2052 811 2031 852 1991 C 892 1950 912 1901 912 1843 Z M 577 1841 C 577 1805 589 1775 613 1751 C 637 1727 667 1714 703 1714 C 738 1714 768 1726 794 1751 C 819 1775 831 1805 831 1841 C 831 1876 818 1906 793 1932 C 767 1957 738 1969 705 1969 C 668 1969 637 1957 613 1931 C 589 1905 577 1875 577 1841 Z" unicode="Å" />
<glyph horiz-adv-x="1900" d="M 30 0 L 616 1530 L 1825 1530 L 1825 1267 L 1190 1267 L 1190 934 L 1569 934 L 1569 682 L 1190 682 L 1190 266 L 1825 266 L 1825 0 L 882 0 L 882 356 L 467 356 L 327 0 L 30 0 Z M 882 1267 L 815 1267 L 553 581 L 882 581 L 882 1267 Z" unicode="Æ" />
<glyph horiz-adv-x="1392" d="M 1061 512 L 1339 432 C 1273 167 1107 16 841 -22 L 805 -86 C 922 -114 981 -171 981 -258 C 981 -310 955 -353 905 -387 C 854 -421 787 -438 704 -438 C 598 -438 484 -414 364 -368 L 440 -246 C 532 -276 603 -291 651 -291 C 715 -291 747 -273 747 -239 C 747 -219 735 -202 711 -189 C 687 -176 656 -170 620 -170 C 618 -170 610 -170 596 -172 C 582 -173 573 -174 569 -174 L 659 -22 C 481 7 344 87 247 219 C 150 351 102 523 102 735 C 102 1011 168 1218 298 1355 C 428 1492 584 1560 766 1560 C 892 1560 1008 1523 1115 1451 C 1222 1379 1292 1274 1325 1138 L 1048 1059 C 1006 1228 910 1313 762 1313 C 656 1313 572 1261 512 1159 C 452 1057 422 917 422 741 C 422 587 450 465 506 375 C 562 285 639 241 735 241 C 807 241 872 265 931 313 C 989 360 1033 426 1061 512 Z" unicode="Ç" />
<glyph horiz-adv-x="1290" d="M 188 0 L 188 1530 L 1214 1530 L 1214 1263 L 489 1263 L 489 927 L 932 927 L 932 680 L 489 680 L 489 264 L 1214 264 L 1214 0 L 188 0 Z M 709 1640 L 378 1976 L 707 1976 L 894 1640 L 709 1640 Z" unicode="È" />
<glyph horiz-adv-x="1290" d="M 188 0 L 188 1530 L 1214 1530 L 1214 1263 L 489 1263 L 489 927 L 932 927 L 932 680 L 489 680 L 489 264 L 1214 264 L 1214 0 L 188 0 Z M 479 1640 L 669 1976 L 997 1976 L 665 1640 L 479 1640 Z" unicode="É" />
<glyph horiz-adv-x="1290" d="M 188 0 L 188 1530 L 1214 1530 L 1214 1263 L 489 1263 L 489 927 L 932 927 L 932 680 L 489 680 L 489 264 L 1214 264 L 1214 0 L 188 0 Z M 344 1638 L 634 1956 L 790 1956 L 1070 1638 L 892 1638 L 710 1777 L 529 1638 L 344 1638 Z" unicode="Ê" />
<glyph horiz-adv-x="1290" d="M 188 0 L 188 1530 L 1214 1530 L 1214 1263 L 489 1263 L 489 927 L 932 927 L 932 680 L 489 680 L 489 264 L 1214 264 L 1214 0 L 188 0 Z M 382 1685 L 382 1900 L 601 1900 L 601 1685 L 382 1685 Z M 824 1685 L 824 1900 L 1041 1900 L 1041 1685 L 824 1685 Z" unicode="Ë" />
<glyph horiz-adv-x="678" d="M 188 0 L 188 1530 L 489 1530 L 489 0 L 188 0 Z M 351 1640 L 20 1976 L 349 1976 L 536 1640 L 351 1640 Z" unicode="Ì" />
<glyph horiz-adv-x="678" d="M 188 0 L 188 1530 L 489 1530 L 489 0 L 188 0 Z M 141 1640 L 331 1976 L 659 1976 L 327 1640 L 141 1640 Z" unicode="Í" />
<glyph horiz-adv-x="678" d="M 188 0 L 188 1530 L 489 1530 L 489 0 L 188 0 Z M -24 1638 L 266 1956 L 422 1956 L 702 1638 L 524 1638 L 342 1777 L 161 1638 L -24 1638 Z" unicode="Î" />
<glyph horiz-adv-x="678" d="M 188 0 L 188 1530 L 489 1530 L 489 0 L 188 0 Z M 9 1685 L 9 1900 L 228 1900 L 228 1685 L 9 1685 Z M 451 1685 L 451 1900 L 668 1900 L 668 1685 L 451 1685 Z" unicode="Ï" />
<glyph horiz-adv-x="1515" d="M 182 0 L 182 682 L 94 682 L 94 868 L 182 868 L 182 1530 L 739 1530 C 939 1530 1101 1460 1225 1320 C 1349 1180 1411 998 1411 776 C 1411 549 1349 363 1227 218 C 1104 72 925 0 690 0 L 182 0 Z M 635 1272 L 487 1272 L 487 868 L 790 868 L 790 682 L 487 682 L 487 268 L 696 268 C 815 268 911 316 984 413 C 1057 509 1093 632 1093 780 C 1093 928 1050 1047 966 1137 C 881 1227 771 1272 635 1272 Z" unicode="Ð" />
<glyph horiz-adv-x="1622" d="M 188 0 L 188 1530 L 508 1530 L 1134 504 L 1134 1530 L 1433 1530 L 1433 0 L 1134 0 L 489 1067 L 489 0 L 188 0 Z M 620 1652 L 465 1652 C 481 1835 554 1927 683 1927 C 735 1927 791 1909 851 1873 C 911 1836 950 1818 968 1818 C 1001 1818 1024 1853 1036 1923 L 1185 1923 C 1173 1741 1102 1650 974 1650 C 937 1650 894 1662 846 1688 C 752 1736 701 1761 694 1761 C 676 1761 659 1750 643 1730 C 627 1709 620 1683 620 1652 Z" unicode="Ñ" />
<glyph horiz-adv-x="1550" d="M 1448 755 C 1448 507 1389 315 1272 178 C 1154 40 990 -28 780 -28 C 568 -28 402 41 282 180 C 162 318 102 513 102 764 C 102 1010 160 1204 278 1346 C 395 1488 551 1560 745 1560 C 971 1560 1145 1491 1266 1353 C 1387 1215 1448 1016 1448 755 Z M 413 764 C 413 593 445 463 508 373 C 570 283 660 237 778 237 C 891 237 979 282 1041 373 C 1103 463 1134 593 1134 762 C 1134 1119 1012 1298 770 1298 C 655 1298 567 1252 505 1160 C 443 1068 413 936 413 764 Z M 808 1640 L 477 1976 L 806 1976 L 993 1640 L 808 1640 Z" unicode="Ò" />
<glyph horiz-adv-x="1550" d="M 1448 755 C 1448 507 1389 315 1272 178 C 1154 40 990 -28 780 -28 C 568 -28 402 41 282 180 C 162 318 102 513 102 764 C 102 1010 160 1204 278 1346 C 395 1488 551 1560 745 1560 C 971 1560 1145 1491 1266 1353 C 1387 1215 1448 1016 1448 755 Z M 413 764 C 413 593 445 463 508 373 C 570 283 660 237 778 237 C 891 237 979 282 1041 373 C 1103 463 1134 593 1134 762 C 1134 1119 1012 1298 770 1298 C 655 1298 567 1252 505 1160 C 443 1068 413 936 413 764 Z M 598 1640 L 788 1976 L 1116 1976 L 784 1640 L 598 1640 Z" unicode="Ó" />
<glyph horiz-adv-x="1550" d="M 1448 755 C 1448 507 1389 315 1272 178 C 1154 40 990 -28 780 -28 C 568 -28 402 41 282 180 C 162 318 102 513 102 764 C 102 1010 160 1204 278 1346 C 395 1488 551 1560 745 1560 C 971 1560 1145 1491 1266 1353 C 1387 1215 1448 1016 1448 755 Z M 413 764 C 413 593 445 463 508 373 C 570 283 660 237 778 237 C 891 237 979 282 1041 373 C 1103 463 1134 593 1134 762 C 1134 1119 1012 1298 770 1298 C 655 1298 567 1252 505 1160 C 443 1068 413 936 413 764 Z M 401 1638 L 691 1956 L 847 1956 L 1127 1638 L 949 1638 L 767 1777 L 586 1638 L 401 1638 Z" unicode="Ô" />
<glyph horiz-adv-x="1550" d="M 1448 755 C 1448 507 1389 315 1272 178 C 1154 40 990 -28 780 -28 C 568 -28 402 41 282 180 C 162 318 102 513 102 764 C 102 1010 160 1204 278 1346 C 395 1488 551 1560 745 1560 C 971 1560 1145 1491 1266 1353 C 1387 1215 1448 1016 1448 755 Z M 413 764 C 413 593 445 463 508 373 C 570 283 660 237 778 237 C 891 237 979 282 1041 373 C 1103 463 1134 593 1134 762 C 1134 1119 1012 1298 770 1298 C 655 1298 567 1252 505 1160 C 443 1068 413 936 413 764 Z M 562 1652 L 407 1652 C 423 1835 496 1927 625 1927 C 677 1927 733 1909 793 1873 C 853 1836 892 1818 910 1818 C 943 1818 966 1853 978 1923 L 1127 1923 C 1115 1741 1044 1650 916 1650 C 879 1650 836 1662 788 1688 C 694 1736 643 1761 636 1761 C 618 1761 601 1750 585 1730 C 569 1709 562 1683 562 1652 Z" unicode="Õ" />
<glyph horiz-adv-x="1550" d="M 1448 755 C 1448 507 1389 315 1272 178 C 1154 40 990 -28 780 -28 C 568 -28 402 41 282 180 C 162 318 102 513 102 764 C 102 1010 160 1204 278 1346 C 395 1488 551 1560 745 1560 C 971 1560 1145 1491 1266 1353 C 1387 1215 1448 1016 1448 755 Z M 413 764 C 413 593 445 463 508 373 C 570 283 660 237 778 237 C 891 237 979 282 1041 373 C 1103 463 1134 593 1134 762 C 1134 1119 1012 1298 770 1298 C 655 1298 567 1252 505 1160 C 443 1068 413 936 413 764 Z M 439 1685 L 439 1900 L 658 1900 L 658 1685 L 439 1685 Z M 881 1685 L 881 1900 L 1098 1900 L 1098 1685 L 881 1685 Z" unicode="Ö" />
<glyph horiz-adv-x="1366" d="M 532 764 L 157 1138 L 309 1290 L 684 915 L 1059 1290 L 1210 1138 L 835 764 L 1206 393 L 1057 241 L 684 612 L 313 241 L 162 393 L 532 764 Z" unicode="×" />
<glyph horiz-adv-x="1550" d="M 92 57 L 240 234 C 147 369 101 546 101 764 C 101 1010 160 1204 277 1346 C 394 1488 550 1560 744 1560 C 942 1560 1100 1507 1218 1401 L 1352 1561 L 1458 1466 L 1312 1292 C 1402 1157 1447 978 1447 755 C 1447 507 1388 315 1271 178 C 1153 40 989 -28 779 -28 C 597 -28 448 23 333 127 L 202 -28 L 92 57 Z M 451 486 L 1029 1176 C 967 1257 880 1298 769 1298 C 654 1298 566 1252 504 1160 C 442 1068 412 936 412 764 C 412 655 425 562 451 486 Z M 1098 1037 L 522 352 C 584 275 669 237 777 237 C 890 237 978 283 1040 373 C 1102 463 1133 593 1133 762 C 1133 868 1121 960 1098 1037 Z" unicode="Ø" />
<glyph horiz-adv-x="1556" d="M 170 545 L 170 1530 L 471 1530 L 471 596 C 471 484 497 398 550 338 C 602 278 677 248 774 248 C 872 248 949 278 1003 338 C 1057 398 1083 484 1083 596 L 1083 1530 L 1386 1530 L 1386 551 C 1386 365 1335 222 1233 122 C 1131 22 985 -28 794 -28 C 378 -28 170 163 170 545 Z M 777 1640 L 446 1976 L 775 1976 L 962 1640 L 777 1640 Z" unicode="Ù" />
<glyph horiz-adv-x="1556" d="M 170 545 L 170 1530 L 471 1530 L 471 596 C 471 484 497 398 550 338 C 602 278 677 248 774 248 C 872 248 949 278 1003 338 C 1057 398 1083 484 1083 596 L 1083 1530 L 1386 1530 L 1386 551 C 1386 365 1335 222 1233 122 C 1131 22 985 -28 794 -28 C 378 -28 170 163 170 545 Z M 608 1640 L 798 1976 L 1126 1976 L 794 1640 L 608 1640 Z" unicode="Ú" />
<glyph horiz-adv-x="1556" d="M 170 545 L 170 1530 L 471 1530 L 471 596 C 471 484 497 398 550 338 C 602 278 677 248 774 248 C 872 248 949 278 1003 338 C 1057 398 1083 484 1083 596 L 1083 1530 L 1386 1530 L 1386 551 C 1386 365 1335 222 1233 122 C 1131 22 985 -28 794 -28 C 378 -28 170 163 170 545 Z M 414 1638 L 704 1956 L 860 1956 L 1140 1638 L 962 1638 L 780 1777 L 599 1638 L 414 1638 Z" unicode="Û" />
<glyph horiz-adv-x="1556" d="M 170 545 L 170 1530 L 471 1530 L 471 596 C 471 484 497 398 550 338 C 602 278 677 248 774 248 C 872 248 949 278 1003 338 C 1057 398 1083 484 1083 596 L 1083 1530 L 1386 1530 L 1386 551 C 1386 365 1335 222 1233 122 C 1131 22 985 -28 794 -28 C 378 -28 170 163 170 545 Z M 450 1685 L 450 1900 L 669 1900 L 669 1685 L 450 1685 Z M 892 1685 L 892 1900 L 1109 1900 L 1109 1685 L 892 1685 Z" unicode="Ü" />
<glyph horiz-adv-x="1229" d="M 463 682 L 8 1530 L 342 1530 L 616 979 L 887 1530 L 1220 1530 L 766 682 L 766 0 L 463 0 L 463 682 Z M 428 1640 L 618 1976 L 946 1976 L 614 1640 L 428 1640 Z" unicode="Ý" />
<glyph horiz-adv-x="1439" d="M 188 0 L 188 1530 L 493 1530 L 493 1235 L 663 1235 C 820 1235 942 1223 1029 1200 C 1116 1176 1190 1129 1251 1059 C 1312 988 1343 897 1343 786 C 1343 634 1290 515 1185 430 C 1079 345 933 303 747 303 L 493 303 L 493 0 L 188 0 Z M 735 966 L 493 966 L 493 551 L 719 551 C 818 551 895 570 949 609 C 1003 647 1030 702 1030 772 C 1030 901 931 966 735 966 Z" unicode="Þ" />
<glyph horiz-adv-x="1251" d="M 446 0 L 168 0 L 168 1018 C 168 1374 326 1552 643 1552 C 780 1552 889 1519 971 1452 C 1052 1385 1093 1300 1093 1196 C 1093 1052 1012 945 852 876 C 1056 779 1159 630 1159 428 C 1159 297 1122 188 1048 101 C 974 14 881 -28 770 -28 C 694 -28 619 -3 545 47 L 657 217 C 692 196 721 186 743 186 C 783 186 814 209 838 256 C 862 302 874 366 874 446 C 874 550 859 629 829 681 C 799 733 741 766 657 780 L 657 971 C 767 990 823 1057 823 1171 C 823 1297 765 1360 651 1360 C 514 1360 446 1260 446 1061 L 446 0 Z" unicode="ß" />
<glyph horiz-adv-x="1153" d="M 731 112 C 630 25 523 -18 411 -18 C 316 -18 236 10 171 68 C 105 125 73 196 73 282 C 73 389 122 482 222 562 C 322 642 488 693 721 717 L 721 749 C 721 801 704 843 672 874 C 639 904 594 919 536 919 C 440 919 356 870 284 774 L 104 911 C 215 1042 364 1108 551 1108 C 687 1108 795 1074 875 1008 C 955 941 995 849 995 733 L 995 223 C 995 148 1007 74 1032 0 L 758 0 C 745 41 736 78 731 112 Z M 721 289 L 721 561 C 471 513 346 428 346 305 C 346 263 358 229 382 204 C 406 178 437 166 477 166 C 546 166 627 207 721 289 Z M 595 1227 L 264 1563 L 593 1563 L 780 1227 L 595 1227 Z" unicode="à" />
<glyph horiz-adv-x="1153" d="M 731 112 C 630 25 523 -18 411 -18 C 316 -18 236 10 171 68 C 105 125 73 196 73 282 C 73 389 122 482 222 562 C 322 642 488 693 721 717 L 721 749 C 721 801 704 843 672 874 C 639 904 594 919 536 919 C 440 919 356 870 284 774 L 104 911 C 215 1042 364 1108 551 1108 C 687 1108 795 1074 875 1008 C 955 941 995 849 995 733 L 995 223 C 995 148 1007 74 1032 0 L 758 0 C 745 41 736 78 731 112 Z M 721 289 L 721 561 C 471 513 346 428 346 305 C 346 263 358 229 382 204 C 406 178 437 166 477 166 C 546 166 627 207 721 289 Z M 395 1227 L 585 1563 L 913 1563 L 581 1227 L 395 1227 Z" unicode="á" />
<glyph horiz-adv-x="1153" d="M 731 112 C 630 25 523 -18 411 -18 C 316 -18 236 10 171 68 C 105 125 73 196 73 282 C 73 389 122 482 222 562 C 322 642 488 693 721 717 L 721 749 C 721 801 704 843 672 874 C 639 904 594 919 536 919 C 440 919 356 870 284 774 L 104 911 C 215 1042 364 1108 551 1108 C 687 1108 795 1074 875 1008 C 955 941 995 849 995 733 L 995 223 C 995 148 1007 74 1032 0 L 758 0 C 745 41 736 78 731 112 Z M 721 289 L 721 561 C 471 513 346 428 346 305 C 346 263 358 229 382 204 C 406 178 437 166 477 166 C 546 166 627 207 721 289 Z M 209 1225 L 499 1543 L 655 1543 L 935 1225 L 757 1225 L 575 1364 L 394 1225 L 209 1225 Z" unicode="â" />
<glyph horiz-adv-x="1153" d="M 731 112 C 630 25 523 -18 411 -18 C 316 -18 236 10 171 68 C 105 125 73 196 73 282 C 73 389 122 482 222 562 C 322 642 488 693 721 717 L 721 749 C 721 801 704 843 672 874 C 639 904 594 919 536 919 C 440 919 356 870 284 774 L 104 911 C 215 1042 364 1108 551 1108 C 687 1108 795 1074 875 1008 C 955 941 995 849 995 733 L 995 223 C 995 148 1007 74 1032 0 L 758 0 C 745 41 736 78 731 112 Z M 721 289 L 721 561 C 471 513 346 428 346 305 C 346 263 358 229 382 204 C 406 178 437 166 477 166 C 546 166 627 207 721 289 Z M 370 1239 L 215 1239 C 231 1422 304 1514 433 1514 C 485 1514 541 1496 601 1460 C 661 1423 700 1405 718 1405 C 751 1405 774 1440 786 1510 L 935 1510 C 923 1328 852 1237 724 1237 C 687 1237 644 1249 596 1275 C 502 1323 451 1348 444 1348 C 426 1348 409 1337 393 1317 C 377 1296 370 1270 370 1239 Z" unicode="ã" />
<glyph horiz-adv-x="1153" d="M 731 112 C 630 25 523 -18 411 -18 C 316 -18 236 10 171 68 C 105 125 73 196 73 282 C 73 389 122 482 222 562 C 322 642 488 693 721 717 L 721 749 C 721 801 704 843 672 874 C 639 904 594 919 536 919 C 440 919 356 870 284 774 L 104 911 C 215 1042 364 1108 551 1108 C 687 1108 795 1074 875 1008 C 955 941 995 849 995 733 L 995 223 C 995 148 1007 74 1032 0 L 758 0 C 745 41 736 78 731 112 Z M 721 289 L 721 561 C 471 513 346 428 346 305 C 346 263 358 229 382 204 C 406 178 437 166 477 166 C 546 166 627 207 721 289 Z M 243 1282 L 243 1497 L 462 1497 L 462 1282 L 243 1282 Z M 685 1282 L 685 1497 L 902 1497 L 902 1282 L 685 1282 Z" unicode="ä" />
<glyph horiz-adv-x="1153" d="M 731 112 C 630 25 523 -18 411 -18 C 316 -18 236 10 171 68 C 105 125 73 196 73 282 C 73 389 122 482 222 562 C 322 642 488 693 721 717 L 721 749 C 721 801 704 843 672 874 C 639 904 594 919 536 919 C 440 919 356 870 284 774 L 104 911 C 215 1042 364 1108 551 1108 C 687 1108 795 1074 875 1008 C 955 941 995 849 995 733 L 995 223 C 995 148 1007 74 1032 0 L 758 0 C 745 41 736 78 731 112 Z M 721 289 L 721 561 C 471 513 346 428 346 305 C 346 263 358 229 382 204 C 406 178 437 166 477 166 C 546 166 627 207 721 289 Z M 743 1430 C 743 1372 722 1322 682 1282 C 642 1241 592 1220 534 1220 C 476 1220 426 1240 385 1281 C 344 1321 324 1370 324 1428 C 324 1486 345 1536 388 1577 C 431 1618 480 1639 534 1639 C 592 1639 642 1618 683 1578 C 723 1537 743 1488 743 1430 Z M 408 1428 C 408 1392 420 1362 444 1338 C 468 1314 498 1301 534 1301 C 569 1301 599 1313 625 1338 C 650 1362 662 1392 662 1428 C 662 1463 649 1493 624 1519 C 598 1544 569 1556 536 1556 C 499 1556 468 1544 444 1518 C 420 1492 408 1462 408 1428 Z" unicode="å" />
<glyph horiz-adv-x="1853" d="M 1761 495 L 1022 495 C 1034 301 1117 205 1272 205 C 1375 205 1453 256 1505 358 L 1739 258 C 1629 74 1476 -18 1280 -18 C 1133 -18 1000 44 880 168 C 706 44 554 -18 424 -18 C 323 -18 239 9 173 67 C 106 125 73 198 73 286 C 73 393 124 485 224 562 C 324 639 498 686 745 704 C 747 848 682 921 551 921 C 449 921 359 872 282 774 L 104 911 C 222 1042 376 1108 565 1108 C 705 1108 823 1053 917 944 C 1011 1053 1130 1108 1272 1108 C 1409 1108 1525 1064 1619 976 C 1713 888 1761 728 1761 495 Z M 1026 665 L 1505 665 C 1498 746 1474 809 1432 855 C 1390 900 1336 923 1270 923 C 1202 923 1145 900 1101 854 C 1057 808 1032 745 1026 665 Z M 745 270 L 745 545 C 481 499 350 415 350 293 C 350 251 362 217 388 191 C 414 165 447 151 487 151 C 561 151 647 190 745 270 Z" unicode="æ" />
<glyph horiz-adv-x="1044" d="M 680 -11 L 643 -80 C 755 -110 811 -168 811 -256 C 811 -311 787 -355 739 -388 C 691 -421 629 -438 551 -438 C 450 -438 339 -414 219 -368 L 291 -250 C 385 -280 457 -295 506 -295 C 560 -295 588 -276 588 -239 C 588 -189 543 -165 453 -165 C 439 -165 425 -166 411 -168 L 503 -11 C 378 9 278 70 204 172 C 129 273 92 396 92 540 C 92 704 139 839 234 947 C 328 1054 450 1108 598 1108 C 770 1108 903 1015 995 831 L 762 768 C 712 848 653 889 585 889 C 523 889 472 861 434 806 C 396 751 377 676 377 581 C 377 465 396 374 435 309 C 473 243 526 211 594 211 C 690 211 756 273 792 399 L 1009 293 C 936 115 826 13 680 -11 Z" unicode="ç" />
<glyph horiz-adv-x="1173" d="M 831 356 L 1057 262 C 957 75 808 -18 612 -18 C 460 -18 336 35 239 141 C 142 247 94 386 94 557 C 94 722 140 855 234 956 C 328 1057 450 1108 600 1108 C 746 1108 863 1062 951 970 C 1038 878 1081 754 1081 600 C 1081 586 1079 551 1077 497 L 375 497 C 377 405 400 333 443 282 C 486 230 543 205 614 205 C 706 205 778 255 831 356 Z M 372 661 L 831 661 C 827 743 805 807 763 853 C 721 899 668 921 604 921 C 539 921 486 898 444 852 C 402 806 378 742 372 661 Z M 601 1227 L 270 1563 L 599 1563 L 786 1227 L 601 1227 Z" unicode="è" />
<glyph horiz-adv-x="1173" d="M 831 356 L 1057 262 C 957 75 808 -18 612 -18 C 460 -18 336 35 239 141 C 142 247 94 386 94 557 C 94 722 140 855 234 956 C 328 1057 450 1108 600 1108 C 746 1108 863 1062 951 970 C 1038 878 1081 754 1081 600 C 1081 586 1079 551 1077 497 L 375 497 C 377 405 400 333 443 282 C 486 230 543 205 614 205 C 706 205 778 255 831 356 Z M 372 661 L 831 661 C 827 743 805 807 763 853 C 721 899 668 921 604 921 C 539 921 486 898 444 852 C 402 806 378 742 372 661 Z M 343 1227 L 533 1563 L 861 1563 L 529 1227 L 343 1227 Z" unicode="é" />
<glyph horiz-adv-x="1173" d="M 831 356 L 1057 262 C 957 75 808 -18 612 -18 C 460 -18 336 35 239 141 C 142 247 94 386 94 557 C 94 722 140 855 234 956 C 328 1057 450 1108 600 1108 C 746 1108 863 1062 951 970 C 1038 878 1081 754 1081 600 C 1081 586 1079 551 1077 497 L 375 497 C 377 405 400 333 443 282 C 486 230 543 205 614 205 C 706 205 778 255 831 356 Z M 372 661 L 831 661 C 827 743 805 807 763 853 C 721 899 668 921 604 921 C 539 921 486 898 444 852 C 402 806 378 742 372 661 Z M 215 1225 L 505 1543 L 661 1543 L 941 1225 L 763 1225 L 581 1364 L 400 1225 L 215 1225 Z" unicode="ê" />
<glyph horiz-adv-x="1173" d="M 831 356 L 1057 262 C 957 75 808 -18 612 -18 C 460 -18 336 35 239 141 C 142 247 94 386 94 557 C 94 722 140 855 234 956 C 328 1057 450 1108 600 1108 C 746 1108 863 1062 951 970 C 1038 878 1081 754 1081 600 C 1081 586 1079 551 1077 497 L 375 497 C 377 405 400 333 443 282 C 486 230 543 205 614 205 C 706 205 778 255 831 356 Z M 372 661 L 831 661 C 827 743 805 807 763 853 C 721 899 668 921 604 921 C 539 921 486 898 444 852 C 402 806 378 742 372 661 Z M 253 1272 L 253 1487 L 472 1487 L 472 1272 L 253 1272 Z M 695 1272 L 695 1487 L 912 1487 L 912 1272 L 695 1272 Z" unicode="ë" />
<glyph horiz-adv-x="610" d="M 168 0 L 168 1089 L 442 1089 L 442 0 L 168 0 Z M 325 1227 L -6 1563 L 323 1563 L 510 1227 L 325 1227 Z" unicode="ì" />
<glyph horiz-adv-x="610" d="M 168 0 L 168 1089 L 442 1089 L 442 0 L 168 0 Z M 135 1227 L 325 1563 L 653 1563 L 321 1227 L 135 1227 Z" unicode="í" />
<glyph horiz-adv-x="610" d="M 168 0 L 168 1089 L 442 1089 L 442 0 L 168 0 Z M -61 1225 L 229 1543 L 385 1543 L 665 1225 L 487 1225 L 305 1364 L 124 1225 L -61 1225 Z" unicode="î" />
<glyph horiz-adv-x="610" d="M 168 0 L 168 1089 L 442 1089 L 442 0 L 168 0 Z M -23 1272 L -23 1487 L 196 1487 L 196 1272 L -23 1272 Z M 419 1272 L 419 1487 L 636 1487 L 636 1272 L 419 1272 Z" unicode="ï" />
<glyph horiz-adv-x="1173" d="M 643 1106 L 674 1106 C 638 1175 592 1243 538 1310 L 284 1196 L 243 1294 L 465 1392 C 405 1454 343 1507 278 1552 L 559 1552 C 588 1528 617 1501 647 1473 L 825 1552 L 868 1458 L 723 1393 C 832 1267 918 1130 981 982 C 1043 834 1075 691 1075 555 C 1075 383 1030 245 942 140 C 853 34 737 -18 594 -18 C 447 -18 328 31 236 133 C 144 235 98 369 98 536 C 98 716 143 856 233 957 C 323 1058 442 1109 589 1109 L 643 1106 Z M 590 925 C 439 925 364 797 364 542 C 364 427 384 338 424 275 C 464 211 519 180 590 180 C 733 180 805 306 805 559 C 805 673 785 763 747 828 C 709 893 656 925 590 925 Z" unicode="ð" />
<glyph horiz-adv-x="1231" d="M 444 745 L 444 0 L 168 0 L 168 1089 L 444 1089 L 444 940 C 560 1052 687 1108 823 1108 C 988 1108 1071 1015 1071 831 L 1071 0 L 798 0 L 798 760 C 798 842 764 884 696 884 C 627 884 543 837 444 745 Z M 413 1239 L 258 1239 C 274 1422 347 1514 476 1514 C 528 1514 584 1496 644 1460 C 704 1423 743 1405 761 1405 C 794 1405 817 1440 829 1510 L 978 1510 C 966 1328 895 1237 767 1237 C 730 1237 687 1249 639 1275 C 545 1323 494 1348 487 1348 C 469 1348 452 1337 436 1317 C 420 1296 413 1270 413 1239 Z" unicode="ñ" />
<glyph horiz-adv-x="1173" d="M 1081 551 C 1081 377 1035 239 944 136 C 853 33 735 -18 590 -18 C 442 -18 322 33 230 135 C 138 237 92 375 92 549 C 92 719 135 855 221 957 C 307 1059 420 1110 561 1110 C 725 1110 853 1060 945 962 C 1036 863 1081 726 1081 551 Z M 368 538 C 368 300 440 182 585 182 C 734 182 809 311 809 569 C 809 677 789 760 749 820 C 709 879 656 909 588 909 C 441 909 368 785 368 538 Z M 605 1227 L 274 1563 L 603 1563 L 790 1227 L 605 1227 Z" unicode="ò" />
<glyph horiz-adv-x="1173" d="M 1081 551 C 1081 377 1035 239 944 136 C 853 33 735 -18 590 -18 C 442 -18 322 33 230 135 C 138 237 92 375 92 549 C 92 719 135 855 221 957 C 307 1059 420 1110 561 1110 C 725 1110 853 1060 945 962 C 1036 863 1081 726 1081 551 Z M 368 538 C 368 300 440 182 585 182 C 734 182 809 311 809 569 C 809 677 789 760 749 820 C 709 879 656 909 588 909 C 441 909 368 785 368 538 Z M 416 1227 L 606 1563 L 934 1563 L 602 1227 L 416 1227 Z" unicode="ó" />
<glyph horiz-adv-x="1173" d="M 1081 551 C 1081 377 1035 239 944 136 C 853 33 735 -18 590 -18 C 442 -18 322 33 230 135 C 138 237 92 375 92 549 C 92 719 135 855 221 957 C 307 1059 420 1110 561 1110 C 725 1110 853 1060 945 962 C 1036 863 1081 726 1081 551 Z M 368 538 C 368 300 440 182 585 182 C 734 182 809 311 809 569 C 809 677 789 760 749 820 C 709 879 656 909 588 909 C 441 909 368 785 368 538 Z M 219 1225 L 509 1543 L 665 1543 L 945 1225 L 767 1225 L 585 1364 L 404 1225 L 219 1225 Z" unicode="ô" />
<glyph horiz-adv-x="1173" d="M 1081 551 C 1081 377 1035 239 944 136 C 853 33 735 -18 590 -18 C 442 -18 322 33 230 135 C 138 237 92 375 92 549 C 92 719 135 855 221 957 C 307 1059 420 1110 561 1110 C 725 1110 853 1060 945 962 C 1036 863 1081 726 1081 551 Z M 368 538 C 368 300 440 182 585 182 C 734 182 809 311 809 569 C 809 677 789 760 749 820 C 709 879 656 909 588 909 C 441 909 368 785 368 538 Z M 380 1239 L 225 1239 C 241 1422 314 1514 443 1514 C 495 1514 551 1496 611 1460 C 671 1423 710 1405 728 1405 C 761 1405 784 1440 796 1510 L 945 1510 C 933 1328 862 1237 734 1237 C 697 1237 654 1249 606 1275 C 512 1323 461 1348 454 1348 C 436 1348 419 1337 403 1317 C 387 1296 380 1270 380 1239 Z" unicode="õ" />
<glyph horiz-adv-x="1173" d="M 1081 551 C 1081 377 1035 239 944 136 C 853 33 735 -18 590 -18 C 442 -18 322 33 230 135 C 138 237 92 375 92 549 C 92 719 135 855 221 957 C 307 1059 420 1110 561 1110 C 725 1110 853 1060 945 962 C 1036 863 1081 726 1081 551 Z M 368 538 C 368 300 440 182 585 182 C 734 182 809 311 809 569 C 809 677 789 760 749 820 C 709 879 656 909 588 909 C 441 909 368 785 368 538 Z M 257 1272 L 257 1487 L 476 1487 L 476 1272 L 257 1272 Z M 699 1272 L 699 1487 L 916 1487 L 916 1272 L 699 1272 Z" unicode="ö" />
<glyph horiz-adv-x="1366" d="M 569 1040 L 569 1310 L 813 1310 L 813 1040 L 569 1040 Z M 125 663 L 125 868 L 1239 868 L 1239 663 L 125 663 Z M 569 221 L 569 491 L 813 491 L 813 221 L 569 221 Z" unicode="÷" />
<glyph horiz-adv-x="1173" d="M 910 996 L 1014 1111 L 1113 1016 L 999 890 C 1054 798 1082 685 1082 551 C 1082 377 1036 239 945 136 C 854 33 736 -18 590 -18 C 466 -18 361 18 275 92 L 165 -28 L 61 57 L 186 195 C 124 291 93 409 93 549 C 93 719 136 855 222 957 C 308 1059 421 1110 562 1110 C 705 1110 821 1072 910 996 Z M 379 409 L 750 820 C 710 879 656 909 588 909 C 442 909 369 785 369 538 C 369 490 372 447 379 409 Z M 432 265 C 469 209 520 182 586 182 C 734 182 809 311 809 569 C 809 606 806 641 802 673 L 432 265 Z" unicode="ø" />
<glyph horiz-adv-x="1231" d="M 786 0 L 786 164 C 664 42 544 -18 424 -18 C 346 -18 282 9 234 64 C 186 119 162 193 162 286 L 162 1089 L 440 1089 L 440 342 C 440 305 450 275 472 252 C 494 228 521 217 555 217 C 621 217 698 263 786 356 L 786 1089 L 1063 1089 L 1063 0 L 786 0 Z M 623 1227 L 292 1563 L 621 1563 L 808 1227 L 623 1227 Z" unicode="ù" />
<glyph horiz-adv-x="1231" d="M 786 0 L 786 164 C 664 42 544 -18 424 -18 C 346 -18 282 9 234 64 C 186 119 162 193 162 286 L 162 1089 L 440 1089 L 440 342 C 440 305 450 275 472 252 C 494 228 521 217 555 217 C 621 217 698 263 786 356 L 786 1089 L 1063 1089 L 1063 0 L 786 0 Z M 434 1227 L 624 1563 L 952 1563 L 620 1227 L 434 1227 Z" unicode="ú" />
<glyph horiz-adv-x="1231" d="M 786 0 L 786 164 C 664 42 544 -18 424 -18 C 346 -18 282 9 234 64 C 186 119 162 193 162 286 L 162 1089 L 440 1089 L 440 342 C 440 305 450 275 472 252 C 494 228 521 217 555 217 C 621 217 698 263 786 356 L 786 1089 L 1063 1089 L 1063 0 L 786 0 Z M 250 1225 L 540 1543 L 696 1543 L 976 1225 L 798 1225 L 616 1364 L 435 1225 L 250 1225 Z" unicode="û" />
<glyph horiz-adv-x="1231" d="M 786 0 L 786 164 C 664 42 544 -18 424 -18 C 346 -18 282 9 234 64 C 186 119 162 193 162 286 L 162 1089 L 440 1089 L 440 342 C 440 305 450 275 472 252 C 494 228 521 217 555 217 C 621 217 698 263 786 356 L 786 1089 L 1063 1089 L 1063 0 L 786 0 Z M 288 1272 L 288 1487 L 507 1487 L 507 1272 L 288 1272 Z M 730 1272 L 730 1487 L 947 1487 L 947 1272 L 730 1272 Z" unicode="ü" />
<glyph horiz-adv-x="1065" d="M 403 -33 L 41 1089 L 321 1089 L 534 391 L 745 1089 L 1024 1089 L 696 65 C 632 -133 563 -266 489 -335 C 414 -403 308 -438 170 -438 L 71 -438 L 71 -235 L 125 -235 C 280 -235 373 -167 403 -33 Z M 373 1227 L 563 1563 L 891 1563 L 559 1227 L 373 1227 Z" unicode="ý" />
<glyph horiz-adv-x="1259" d="M 452 1552 L 452 973 C 550 1063 646 1108 739 1108 C 853 1108 951 1056 1034 954 C 1117 852 1159 717 1159 551 C 1159 384 1117 247 1033 141 C 949 35 853 -18 745 -18 C 660 -18 562 30 452 127 L 452 -438 L 176 -438 L 176 1552 L 452 1552 Z M 452 786 L 452 315 C 538 259 609 231 665 231 C 733 231 787 259 826 317 C 864 374 884 454 884 557 C 884 652 865 728 825 785 C 785 841 732 870 665 870 C 604 870 533 842 452 786 Z" unicode="þ" />
<glyph horiz-adv-x="1065" d="M 403 -33 L 41 1089 L 321 1089 L 534 391 L 745 1089 L 1024 1089 L 696 65 C 632 -133 563 -266 489 -335 C 414 -403 308 -438 170 -438 L 71 -438 L 71 -235 L 125 -235 C 280 -235 373 -167 403 -33 Z M 204 1272 L 204 1487 L 423 1487 L 423 1272 L 204 1272 Z M 646 1272 L 646 1487 L 863 1487 L 863 1272 L 646 1272 Z" unicode="ÿ" />
<glyph horiz-adv-x="1419" d="M 30 0 L 547 1530 L 860 1530 L 1388 0 L 1059 0 L 942 358 L 452 358 L 336 0 L 30 0 Z M 870 581 L 696 1116 L 522 581 L 870 581 Z M 1020 1724 L 375 1724 L 375 1910 L 1020 1910 L 1020 1724 Z" unicode="Ā" />
<glyph horiz-adv-x="1153" d="M 731 112 C 630 25 523 -18 411 -18 C 316 -18 236 10 171 68 C 105 125 73 196 73 282 C 73 389 122 482 222 562 C 322 642 488 693 721 717 L 721 749 C 721 801 704 843 672 874 C 639 904 594 919 536 919 C 440 919 356 870 284 774 L 104 911 C 215 1042 364 1108 551 1108 C 687 1108 795 1074 875 1008 C 955 941 995 849 995 733 L 995 223 C 995 148 1007 74 1032 0 L 758 0 C 745 41 736 78 731 112 Z M 721 289 L 721 561 C 471 513 346 428 346 305 C 346 263 358 229 382 204 C 406 178 437 166 477 166 C 546 166 627 207 721 289 Z M 887 1311 L 242 1311 L 242 1497 L 887 1497 L 887 1311 Z" unicode="ā" />
<glyph horiz-adv-x="1419" d="M 30 0 L 547 1530 L 860 1530 L 1388 0 L 1059 0 L 942 358 L 452 358 L 336 0 L 30 0 Z M 870 581 L 696 1116 L 522 581 L 870 581 Z M 919 1990 L 1060 1990 C 1030 1770 913 1661 710 1661 C 610 1661 530 1690 470 1748 C 409 1806 373 1887 362 1990 L 503 1990 C 539 1888 608 1837 710 1837 C 812 1837 881 1888 919 1990 Z" unicode="Ă" />
<glyph horiz-adv-x="1153" d="M 731 112 C 630 25 523 -18 411 -18 C 316 -18 236 10 171 68 C 105 125 73 196 73 282 C 73 389 122 482 222 562 C 322 642 488 693 721 717 L 721 749 C 721 801 704 843 672 874 C 639 904 594 919 536 919 C 440 919 356 870 284 774 L 104 911 C 215 1042 364 1108 551 1108 C 687 1108 795 1074 875 1008 C 955 941 995 849 995 733 L 995 223 C 995 148 1007 74 1032 0 L 758 0 C 745 41 736 78 731 112 Z M 721 289 L 721 561 C 471 513 346 428 346 305 C 346 263 358 229 382 204 C 406 178 437 166 477 166 C 546 166 627 207 721 289 Z M 786 1577 L 927 1577 C 897 1357 780 1248 577 1248 C 477 1248 397 1277 337 1335 C 276 1393 240 1474 229 1577 L 370 1577 C 406 1475 475 1424 577 1424 C 679 1424 748 1475 786 1577 Z" unicode="ă" />
<glyph horiz-adv-x="1419" d="M 1213 0 C 1210 -25 1209 -45 1209 -60 C 1209 -164 1256 -217 1352 -217 C 1392 -217 1437 -208 1487 -192 L 1487 -330 C 1419 -357 1354 -371 1290 -371 C 1218 -371 1158 -350 1112 -308 C 1066 -266 1043 -208 1043 -132 C 1043 -96 1048 -52 1059 0 L 942 358 L 453 358 L 336 0 L 31 0 L 547 1530 L 860 1530 L 1389 0 L 1213 0 Z M 522 582 L 871 582 L 697 1116 L 522 582 Z" unicode="Ą" />
<glyph horiz-adv-x="1153" d="M 908 0 C 906 -22 906 -41 906 -55 C 906 -163 954 -217 1050 -217 C 1090 -217 1135 -208 1185 -192 L 1185 -330 C 1117 -357 1051 -371 987 -371 C 916 -371 857 -350 810 -309 C 763 -268 740 -209 740 -132 C 740 -96 745 -51 757 3 C 745 42 737 79 731 113 C 627 25 521 -18 412 -18 C 314 -18 233 11 169 70 C 105 128 74 197 74 275 C 74 386 123 482 222 562 C 321 642 487 693 721 717 L 721 750 C 721 802 704 843 672 875 C 639 906 594 922 537 922 C 442 922 358 872 285 774 L 105 911 C 220 1043 369 1110 551 1110 C 696 1110 807 1075 883 1005 C 959 935 998 845 998 733 L 998 223 C 998 151 1009 77 1032 0 L 908 0 Z M 721 289 L 721 561 C 587 535 491 501 433 461 C 375 420 346 368 346 305 C 346 263 358 230 382 205 C 406 180 437 168 475 168 C 547 168 629 208 721 289 Z" unicode="ą" />
<glyph horiz-adv-x="1392" d="M 1063 516 L 1341 438 C 1302 287 1233 171 1133 91 C 1033 10 910 -30 764 -30 C 564 -30 404 38 283 176 C 162 314 102 501 102 739 C 102 992 163 1192 287 1339 C 410 1486 572 1560 772 1560 C 907 1560 1025 1522 1125 1447 C 1225 1372 1292 1270 1327 1140 L 1046 1063 C 1005 1229 909 1313 758 1313 C 652 1313 568 1262 508 1161 C 448 1060 418 924 418 753 C 418 596 446 472 503 380 C 560 288 635 243 729 243 C 890 243 1001 334 1063 516 Z M 580 1640 L 770 1976 L 1098 1976 L 766 1640 L 580 1640 Z" unicode="Ć" />
<glyph horiz-adv-x="1044" d="M 792 399 L 1009 293 C 923 85 784 -18 590 -18 C 442 -18 322 34 230 138 C 138 242 92 376 92 540 C 92 704 139 839 234 947 C 328 1054 450 1108 598 1108 C 770 1108 903 1015 995 831 L 762 768 C 712 848 653 889 585 889 C 523 889 472 861 434 806 C 396 751 377 676 377 581 C 377 465 396 374 435 309 C 473 243 526 211 594 211 C 690 211 756 273 792 399 Z M 380 1227 L 570 1563 L 898 1563 L 566 1227 L 380 1227 Z" unicode="ć" />
<glyph horiz-adv-x="1392" d="M 1063 516 L 1341 438 C 1302 287 1233 171 1133 91 C 1033 10 910 -30 764 -30 C 564 -30 404 38 283 176 C 162 314 102 501 102 739 C 102 992 163 1192 287 1339 C 410 1486 572 1560 772 1560 C 907 1560 1025 1522 1125 1447 C 1225 1372 1292 1270 1327 1140 L 1046 1063 C 1005 1229 909 1313 758 1313 C 652 1313 568 1262 508 1161 C 448 1060 418 924 418 753 C 418 596 446 472 503 380 C 560 288 635 243 729 243 C 890 243 1001 334 1063 516 Z M 372 1638 L 662 1956 L 818 1956 L 1098 1638 L 920 1638 L 738 1777 L 557 1638 L 372 1638 Z" unicode="Ĉ" />
<glyph horiz-adv-x="1044" d="M 792 399 L 1009 293 C 923 85 784 -18 590 -18 C 442 -18 322 34 230 138 C 138 242 92 376 92 540 C 92 704 139 839 234 947 C 328 1054 450 1108 598 1108 C 770 1108 903 1015 995 831 L 762 768 C 712 848 653 889 585 889 C 523 889 472 861 434 806 C 396 751 377 676 377 581 C 377 465 396 374 435 309 C 473 243 526 211 594 211 C 690 211 756 273 792 399 Z M 184 1225 L 474 1543 L 630 1543 L 910 1225 L 732 1225 L 550 1364 L 369 1225 L 184 1225 Z" unicode="ĉ" />
<glyph horiz-adv-x="1392" d="M 1063 516 L 1341 438 C 1302 287 1233 171 1133 91 C 1033 10 910 -30 764 -30 C 564 -30 404 38 283 176 C 162 314 102 501 102 739 C 102 992 163 1192 287 1339 C 410 1486 572 1560 772 1560 C 907 1560 1025 1522 1125 1447 C 1225 1372 1292 1270 1327 1140 L 1046 1063 C 1005 1229 909 1313 758 1313 C 652 1313 568 1262 508 1161 C 448 1060 418 924 418 753 C 418 596 446 472 503 380 C 560 288 635 243 729 243 C 890 243 1001 334 1063 516 Z M 883 1732 L 606 1732 L 606 2003 L 883 2003 L 883 1732 Z" unicode="Ċ" />
<glyph horiz-adv-x="1044" d="M 792 399 L 1009 293 C 923 85 784 -18 590 -18 C 442 -18 322 34 230 138 C 138 242 92 376 92 540 C 92 704 139 839 234 947 C 328 1054 450 1108 598 1108 C 770 1108 903 1015 995 831 L 762 768 C 712 848 653 889 585 889 C 523 889 472 861 434 806 C 396 751 377 676 377 581 C 377 465 396 374 435 309 C 473 243 526 211 594 211 C 690 211 756 273 792 399 Z M 713 1319 L 436 1319 L 436 1590 L 713 1590 L 713 1319 Z" unicode="ċ" />
<glyph horiz-adv-x="1392" d="M 1063 516 L 1341 438 C 1302 287 1233 171 1133 91 C 1033 10 910 -30 764 -30 C 564 -30 404 38 283 176 C 162 314 102 501 102 739 C 102 992 163 1192 287 1339 C 410 1486 572 1560 772 1560 C 907 1560 1025 1522 1125 1447 C 1225 1372 1292 1270 1327 1140 L 1046 1063 C 1005 1229 909 1313 758 1313 C 652 1313 568 1262 508 1161 C 448 1060 418 924 418 753 C 418 596 446 472 503 380 C 560 288 635 243 729 243 C 890 243 1001 334 1063 516 Z M 668 1644 L 418 1964 L 578 1964 L 752 1831 L 928 1964 L 1102 1964 L 834 1644 L 668 1644 Z" unicode="Č" />
<glyph horiz-adv-x="1044" d="M 792 399 L 1009 293 C 923 85 784 -18 590 -18 C 442 -18 322 34 230 138 C 138 242 92 376 92 540 C 92 704 139 839 234 947 C 328 1054 450 1108 598 1108 C 770 1108 903 1015 995 831 L 762 768 C 712 848 653 889 585 889 C 523 889 472 861 434 806 C 396 751 377 676 377 581 C 377 465 396 374 435 309 C 473 243 526 211 594 211 C 690 211 756 273 792 399 Z M 488 1231 L 238 1551 L 398 1551 L 572 1418 L 748 1551 L 922 1551 L 654 1231 L 488 1231 Z" unicode="č" />
<glyph horiz-adv-x="1519" d="M 188 0 L 188 1530 L 745 1530 C 945 1530 1107 1460 1231 1320 C 1355 1180 1417 998 1417 776 C 1417 549 1355 363 1233 218 C 1110 72 931 0 696 0 L 188 0 Z M 641 1272 L 493 1272 L 493 268 L 702 268 C 821 268 917 317 990 413 C 1063 509 1100 632 1100 780 C 1100 928 1057 1047 972 1137 C 887 1227 777 1272 641 1272 Z M 601 1644 L 351 1964 L 511 1964 L 685 1831 L 861 1964 L 1035 1964 L 767 1644 L 601 1644 Z" unicode="Ď" />
<glyph horiz-adv-x="1378" d="M 813 0 L 813 125 C 723 29 623 -18 512 -18 C 393 -18 295 34 217 139 C 139 244 100 378 100 542 C 100 707 140 843 219 949 C 297 1055 396 1108 516 1108 C 628 1108 727 1060 813 964 L 813 1552 L 1087 1552 L 1087 0 L 813 0 Z M 813 313 L 813 772 C 747 841 681 876 614 876 C 543 876 487 846 446 786 C 405 726 385 643 385 536 C 385 438 406 359 449 299 C 492 239 548 209 616 209 C 686 209 752 243 813 313 Z M 1327 1333 L 1215 1333 L 1215 1552 L 1419 1552 L 1419 1333 L 1287 1115 L 1215 1115 L 1327 1333 Z" unicode="ď" />
<glyph horiz-adv-x="1515" d="M 182 0 L 182 682 L 94 682 L 94 868 L 182 868 L 182 1530 L 739 1530 C 939 1530 1101 1460 1225 1320 C 1349 1180 1411 998 1411 776 C 1411 549 1349 363 1227 218 C 1104 72 925 0 690 0 L 182 0 Z M 635 1272 L 487 1272 L 487 868 L 790 868 L 790 682 L 487 682 L 487 268 L 696 268 C 815 268 911 316 984 413 C 1057 509 1093 632 1093 780 C 1093 928 1050 1047 966 1137 C 881 1227 771 1272 635 1272 Z" unicode="Đ" />
<glyph horiz-adv-x="1259" d="M 1087 0 L 813 0 L 813 125 C 723 29 623 -18 512 -18 C 393 -18 295 34 217 139 C 139 244 100 378 100 542 C 100 707 140 843 219 949 C 297 1055 396 1108 516 1108 C 628 1108 727 1060 813 964 L 813 1259 L 611 1259 L 611 1428 L 813 1428 L 813 1552 L 1087 1552 L 1087 1428 L 1199 1428 L 1199 1259 L 1087 1259 L 1087 0 Z M 813 313 L 813 772 C 747 841 681 876 614 876 C 543 876 487 846 446 786 C 405 726 385 643 385 536 C 385 438 406 359 449 299 C 492 239 548 209 616 209 C 686 209 752 243 813 313 Z" unicode="đ" />
<glyph horiz-adv-x="1290" d="M 188 0 L 188 1530 L 1214 1530 L 1214 1263 L 489 1263 L 489 927 L 932 927 L 932 680 L 489 680 L 489 264 L 1214 264 L 1214 0 L 188 0 Z M 999 1724 L 354 1724 L 354 1910 L 999 1910 L 999 1724 Z" unicode="Ē" />
<glyph horiz-adv-x="1173" d="M 831 356 L 1057 262 C 957 75 808 -18 612 -18 C 460 -18 336 35 239 141 C 142 247 94 386 94 557 C 94 722 140 855 234 956 C 328 1057 450 1108 600 1108 C 746 1108 863 1062 951 970 C 1038 878 1081 754 1081 600 C 1081 586 1079 551 1077 497 L 375 497 C 377 405 400 333 443 282 C 486 230 543 205 614 205 C 706 205 778 255 831 356 Z M 372 661 L 831 661 C 827 743 805 807 763 853 C 721 899 668 921 604 921 C 539 921 486 898 444 852 C 402 806 378 742 372 661 Z M 940 1311 L 295 1311 L 295 1497 L 940 1497 L 940 1311 Z" unicode="ē" />
<glyph horiz-adv-x="1290" d="M 188 0 L 188 1530 L 1214 1530 L 1214 1263 L 489 1263 L 489 927 L 932 927 L 932 680 L 489 680 L 489 264 L 1214 264 L 1214 0 L 188 0 Z M 880 1990 L 1021 1990 C 991 1770 874 1661 671 1661 C 571 1661 491 1690 431 1748 C 370 1806 334 1887 323 1990 L 464 1990 C 500 1888 569 1837 671 1837 C 773 1837 842 1888 880 1990 Z" unicode="Ĕ" />
<glyph horiz-adv-x="1173" d="M 831 356 L 1057 262 C 957 75 808 -18 612 -18 C 460 -18 336 35 239 141 C 142 247 94 386 94 557 C 94 722 140 855 234 956 C 328 1057 450 1108 600 1108 C 746 1108 863 1062 951 970 C 1038 878 1081 754 1081 600 C 1081 586 1079 551 1077 497 L 375 497 C 377 405 400 333 443 282 C 486 230 543 205 614 205 C 706 205 778 255 831 356 Z M 372 661 L 831 661 C 827 743 805 807 763 853 C 721 899 668 921 604 921 C 539 921 486 898 444 852 C 402 806 378 742 372 661 Z M 794 1577 L 935 1577 C 905 1357 788 1248 585 1248 C 485 1248 405 1277 345 1335 C 284 1393 248 1474 237 1577 L 378 1577 C 414 1475 483 1424 585 1424 C 687 1424 756 1475 794 1577 Z" unicode="ĕ" />
<glyph horiz-adv-x="1290" d="M 188 0 L 188 1530 L 1214 1530 L 1214 1263 L 489 1263 L 489 927 L 932 927 L 932 680 L 489 680 L 489 264 L 1214 264 L 1214 0 L 188 0 Z M 842 1732 L 565 1732 L 565 2003 L 842 2003 L 842 1732 Z" unicode="Ė" />
<glyph horiz-adv-x="1173" d="M 831 356 L 1057 262 C 957 75 808 -18 612 -18 C 460 -18 336 35 239 141 C 142 247 94 386 94 557 C 94 722 140 855 234 956 C 328 1057 450 1108 600 1108 C 746 1108 863 1062 951 970 C 1038 878 1081 754 1081 600 C 1081 586 1079 551 1077 497 L 375 497 C 377 405 400 333 443 282 C 486 230 543 205 614 205 C 706 205 778 255 831 356 Z M 372 661 L 831 661 C 827 743 805 807 763 853 C 721 899 668 921 604 921 C 539 921 486 898 444 852 C 402 806 378 742 372 661 Z M 739 1319 L 462 1319 L 462 1590 L 739 1590 L 739 1319 Z" unicode="ė" />
<glyph horiz-adv-x="1290" d="M 939 0 C 937 -23 936 -43 936 -61 C 936 -165 983 -217 1079 -217 C 1119 -217 1164 -208 1214 -192 L 1214 -330 C 1146 -357 1081 -371 1019 -371 C 942 -371 881 -349 837 -306 C 792 -263 770 -205 770 -133 C 770 -96 775 -52 786 0 L 188 0 L 188 1530 L 1214 1530 L 1214 1266 L 489 1266 L 489 930 L 931 930 L 931 680 L 489 680 L 489 264 L 1214 264 L 1214 0 L 939 0 Z" unicode="Ę" />
<glyph horiz-adv-x="1173" d="M 782 10 C 779 -18 778 -41 778 -59 C 778 -164 825 -217 921 -217 C 961 -217 1007 -208 1057 -192 L 1057 -330 C 989 -357 923 -371 859 -371 C 787 -371 727 -350 681 -309 C 635 -267 612 -208 612 -131 C 612 -99 616 -61 625 -18 C 461 -18 332 36 237 144 C 141 252 94 390 94 558 C 94 723 140 856 234 958 C 328 1059 450 1110 600 1110 C 743 1110 859 1064 948 974 C 1036 883 1081 760 1081 604 C 1081 575 1079 540 1077 498 L 375 498 C 388 302 468 205 614 205 C 706 205 779 255 831 356 L 1057 262 C 1013 189 976 138 945 109 C 914 80 860 47 782 10 Z M 373 661 L 831 661 C 825 750 800 816 757 858 C 714 900 663 922 604 922 C 470 922 393 835 373 661 Z" unicode="ę" />
<glyph horiz-adv-x="1290" d="M 188 0 L 188 1530 L 1214 1530 L 1214 1263 L 489 1263 L 489 927 L 932 927 L 932 680 L 489 680 L 489 264 L 1214 264 L 1214 0 L 188 0 Z M 635 1644 L 385 1964 L 545 1964 L 719 1831 L 895 1964 L 1069 1964 L 801 1644 L 635 1644 Z" unicode="Ě" />
<glyph horiz-adv-x="1173" d="M 831 356 L 1057 262 C 957 75 808 -18 612 -18 C 460 -18 336 35 239 141 C 142 247 94 386 94 557 C 94 722 140 855 234 956 C 328 1057 450 1108 600 1108 C 746 1108 863 1062 951 970 C 1038 878 1081 754 1081 600 C 1081 586 1079 551 1077 497 L 375 497 C 377 405 400 333 443 282 C 486 230 543 205 614 205 C 706 205 778 255 831 356 Z M 372 661 L 831 661 C 827 743 805 807 763 853 C 721 899 668 921 604 921 C 539 921 486 898 444 852 C 402 806 378 742 372 661 Z M 514 1231 L 264 1551 L 424 1551 L 598 1418 L 774 1551 L 948 1551 L 680 1231 L 514 1231 Z" unicode="ě" />
<glyph horiz-adv-x="1558" d="M 782 553 L 782 782 L 1425 782 L 1425 0 L 1183 0 L 1183 186 C 1052 43 899 -28 723 -28 C 535 -28 385 35 272 165 C 158 294 102 487 102 745 C 102 1003 165 1204 289 1346 C 413 1488 586 1560 807 1560 C 958 1560 1085 1521 1189 1444 C 1292 1367 1362 1256 1399 1112 L 1159 1030 C 1098 1212 983 1304 815 1304 C 551 1304 420 1125 420 768 C 420 572 455 433 525 350 C 595 266 686 225 798 225 C 894 225 977 254 1047 311 C 1116 368 1161 449 1183 553 L 782 553 Z M 442 1638 L 732 1956 L 888 1956 L 1168 1638 L 990 1638 L 808 1777 L 627 1638 L 442 1638 Z" unicode="Ĝ" />
<glyph horiz-adv-x="1175" d="M 882 1038 C 972 1106 1056 1140 1136 1140 L 1163 1140 L 1163 958 L 1110 958 C 1066 958 1025 947 987 927 C 1022 871 1040 806 1040 733 C 1040 619 999 527 917 459 C 835 391 726 356 588 356 C 538 356 488 359 438 366 C 390 340 366 310 366 276 C 366 250 380 231 410 220 C 440 209 537 201 702 196 C 861 192 976 169 1047 127 C 1117 85 1153 10 1153 -96 C 1153 -324 966 -438 594 -438 C 241 -438 65 -343 65 -155 C 65 -44 131 28 264 63 C 176 107 133 166 133 239 C 133 323 182 382 280 418 C 165 494 108 599 108 731 C 108 851 148 943 228 1009 C 308 1075 424 1108 575 1108 C 703 1108 805 1084 882 1038 Z M 366 733 C 366 677 387 629 428 589 C 468 549 517 530 575 530 C 633 530 682 549 722 589 C 762 628 782 676 782 733 C 782 789 762 836 721 876 C 679 916 631 936 577 936 C 517 936 467 916 427 876 C 387 836 366 789 366 733 Z M 405 14 C 338 -16 305 -58 305 -112 C 305 -205 410 -252 622 -252 C 813 -252 909 -209 909 -123 C 909 -92 896 -68 870 -50 C 844 -32 805 -21 753 -17 L 405 14 Z M 225 1225 L 515 1543 L 671 1543 L 951 1225 L 773 1225 L 591 1364 L 410 1225 L 225 1225 Z" unicode="ĝ" />
<glyph horiz-adv-x="1558" d="M 782 553 L 782 782 L 1425 782 L 1425 0 L 1183 0 L 1183 186 C 1052 43 899 -28 723 -28 C 535 -28 385 35 272 165 C 158 294 102 487 102 745 C 102 1003 165 1204 289 1346 C 413 1488 586 1560 807 1560 C 958 1560 1085 1521 1189 1444 C 1292 1367 1362 1256 1399 1112 L 1159 1030 C 1098 1212 983 1304 815 1304 C 551 1304 420 1125 420 768 C 420 572 455 433 525 350 C 595 266 686 225 798 225 C 894 225 977 254 1047 311 C 1116 368 1161 449 1183 553 L 782 553 Z M 980 1990 L 1121 1990 C 1091 1770 974 1661 771 1661 C 671 1661 591 1690 531 1748 C 470 1806 434 1887 423 1990 L 564 1990 C 600 1888 669 1837 771 1837 C 873 1837 942 1888 980 1990 Z" unicode="Ğ" />
<glyph horiz-adv-x="1175" d="M 882 1038 C 972 1106 1056 1140 1136 1140 L 1163 1140 L 1163 958 L 1110 958 C 1066 958 1025 947 987 927 C 1022 871 1040 806 1040 733 C 1040 619 999 527 917 459 C 835 391 726 356 588 356 C 538 356 488 359 438 366 C 390 340 366 310 366 276 C 366 250 380 231 410 220 C 440 209 537 201 702 196 C 861 192 976 169 1047 127 C 1117 85 1153 10 1153 -96 C 1153 -324 966 -438 594 -438 C 241 -438 65 -343 65 -155 C 65 -44 131 28 264 63 C 176 107 133 166 133 239 C 133 323 182 382 280 418 C 165 494 108 599 108 731 C 108 851 148 943 228 1009 C 308 1075 424 1108 575 1108 C 703 1108 805 1084 882 1038 Z M 366 733 C 366 677 387 629 428 589 C 468 549 517 530 575 530 C 633 530 682 549 722 589 C 762 628 782 676 782 733 C 782 789 762 836 721 876 C 679 916 631 936 577 936 C 517 936 467 916 427 876 C 387 836 366 789 366 733 Z M 405 14 C 338 -16 305 -58 305 -112 C 305 -205 410 -252 622 -252 C 813 -252 909 -209 909 -123 C 909 -92 896 -68 870 -50 C 844 -32 805 -21 753 -17 L 405 14 Z M 800 1577 L 941 1577 C 911 1357 794 1248 591 1248 C 491 1248 411 1277 351 1335 C 290 1393 254 1474 243 1577 L 384 1577 C 420 1475 489 1424 591 1424 C 693 1424 762 1475 800 1577 Z" unicode="ğ" />
<glyph horiz-adv-x="1558" d="M 782 553 L 782 782 L 1425 782 L 1425 0 L 1183 0 L 1183 186 C 1052 43 899 -28 723 -28 C 535 -28 385 35 272 165 C 158 294 102 487 102 745 C 102 1003 165 1204 289 1346 C 413 1488 586 1560 807 1560 C 958 1560 1085 1521 1189 1444 C 1292 1367 1362 1256 1399 1112 L 1159 1030 C 1098 1212 983 1304 815 1304 C 551 1304 420 1125 420 768 C 420 572 455 433 525 350 C 595 266 686 225 798 225 C 894 225 977 254 1047 311 C 1116 368 1161 449 1183 553 L 782 553 Z M 909 1732 L 632 1732 L 632 2003 L 909 2003 L 909 1732 Z" unicode="Ġ" />
<glyph horiz-adv-x="1175" d="M 882 1038 C 972 1106 1056 1140 1136 1140 L 1163 1140 L 1163 958 L 1110 958 C 1066 958 1025 947 987 927 C 1022 871 1040 806 1040 733 C 1040 619 999 527 917 459 C 835 391 726 356 588 356 C 538 356 488 359 438 366 C 390 340 366 310 366 276 C 366 250 380 231 410 220 C 440 209 537 201 702 196 C 861 192 976 169 1047 127 C 1117 85 1153 10 1153 -96 C 1153 -324 966 -438 594 -438 C 241 -438 65 -343 65 -155 C 65 -44 131 28 264 63 C 176 107 133 166 133 239 C 133 323 182 382 280 418 C 165 494 108 599 108 731 C 108 851 148 943 228 1009 C 308 1075 424 1108 575 1108 C 703 1108 805 1084 882 1038 Z M 366 733 C 366 677 387 629 428 589 C 468 549 517 530 575 530 C 633 530 682 549 722 589 C 762 628 782 676 782 733 C 782 789 762 836 721 876 C 679 916 631 936 577 936 C 517 936 467 916 427 876 C 387 836 366 789 366 733 Z M 405 14 C 338 -16 305 -58 305 -112 C 305 -205 410 -252 622 -252 C 813 -252 909 -209 909 -123 C 909 -92 896 -68 870 -50 C 844 -32 805 -21 753 -17 L 405 14 Z M 717 1319 L 440 1319 L 440 1590 L 717 1590 L 717 1319 Z" unicode="ġ" />
<glyph horiz-adv-x="1558" d="M 782 553 L 782 782 L 1425 782 L 1425 0 L 1183 0 L 1183 186 C 1052 43 899 -28 723 -28 C 535 -28 385 35 272 165 C 158 294 102 487 102 745 C 102 1003 165 1204 289 1346 C 413 1488 586 1560 807 1560 C 958 1560 1085 1521 1189 1444 C 1292 1367 1362 1256 1399 1112 L 1159 1030 C 1098 1212 983 1304 815 1304 C 551 1304 420 1125 420 768 C 420 572 455 433 525 350 C 595 266 686 225 798 225 C 894 225 977 254 1047 311 C 1116 368 1161 449 1183 553 L 782 553 Z M 421 -368 L 493 -250 C 587 -280 659 -295 708 -295 C 762 -295 790 -276 790 -239 C 790 -194 760 -172 701 -172 L 737 -59 C 921 -63 1013 -128 1013 -256 C 1013 -311 989 -355 941 -388 C 893 -421 831 -438 753 -438 C 652 -438 541 -414 421 -368 Z" unicode="Ģ" />
<glyph horiz-adv-x="1175" d="M 882 1038 C 972 1106 1056 1140 1136 1140 L 1163 1140 L 1163 958 L 1110 958 C 1066 958 1025 947 987 927 C 1022 871 1040 806 1040 733 C 1040 619 999 527 917 459 C 835 391 726 356 588 356 C 538 356 488 359 438 366 C 390 340 366 310 366 276 C 366 250 380 231 410 220 C 440 209 537 201 702 196 C 861 192 976 169 1047 127 C 1117 85 1153 10 1153 -96 C 1153 -324 966 -438 594 -438 C 241 -438 65 -343 65 -155 C 65 -44 131 28 264 63 C 176 107 133 166 133 239 C 133 323 182 382 280 418 C 165 494 108 599 108 731 C 108 851 148 943 228 1009 C 308 1075 424 1108 575 1108 C 703 1108 805 1084 882 1038 Z M 366 733 C 366 677 387 629 428 589 C 468 549 517 530 575 530 C 633 530 682 549 722 589 C 762 628 782 676 782 733 C 782 789 762 836 721 876 C 679 916 631 936 577 936 C 517 936 467 916 427 876 C 387 836 366 789 366 733 Z M 405 14 C 338 -16 305 -58 305 -112 C 305 -205 410 -252 622 -252 C 813 -252 909 -209 909 -123 C 909 -92 896 -68 870 -50 C 844 -32 805 -21 753 -17 L 405 14 Z M 546 1440 L 658 1440 L 658 1221 L 454 1221 L 454 1440 L 586 1658 L 658 1658 L 546 1440 Z" unicode="ģ" />
<glyph horiz-adv-x="1554" d="M 188 0 L 188 1530 L 487 1530 L 487 925 L 1063 925 L 1063 1530 L 1366 1530 L 1366 0 L 1063 0 L 1063 661 L 487 661 L 487 0 L 188 0 Z M 413 1638 L 703 1956 L 859 1956 L 1139 1638 L 961 1638 L 779 1777 L 598 1638 L 413 1638 Z" unicode="Ĥ" />
<glyph horiz-adv-x="1231" d="M 168 0 L 168 1552 L 444 1552 L 444 942 C 573 1052 701 1108 829 1108 C 905 1108 965 1083 1007 1035 C 1049 987 1071 919 1071 831 L 1071 0 L 796 0 L 796 764 C 796 844 763 884 698 884 C 632 884 547 839 444 749 L 444 0 L 168 0 Z M 276 1625 L 566 1943 L 722 1943 L 1002 1625 L 824 1625 L 642 1764 L 461 1625 L 276 1625 Z" unicode="ĥ" />
<glyph horiz-adv-x="1554" d="M 188 1119 L 37 1119 L 37 1306 L 188 1306 L 188 1530 L 489 1530 L 489 1306 L 1065 1306 L 1065 1530 L 1366 1530 L 1366 1306 L 1517 1306 L 1517 1119 L 1366 1119 L 1366 0 L 1065 0 L 1065 661 L 489 661 L 489 0 L 188 0 L 188 1119 Z M 489 1119 L 489 926 L 1065 926 L 1065 1119 L 489 1119 Z" unicode="Ħ" />
<glyph horiz-adv-x="1231" d="M 168 1240 L 2 1240 L 2 1397 L 168 1397 L 168 1552 L 444 1552 L 444 1397 L 730 1397 L 730 1240 L 444 1240 L 444 942 C 573 1054 700 1110 825 1110 C 906 1110 968 1084 1010 1034 C 1052 983 1073 915 1073 831 L 1073 0 L 796 0 L 796 764 C 796 844 764 885 700 885 C 632 885 547 840 444 750 L 444 0 L 168 0 L 168 1240 Z" unicode="ħ" />
<glyph horiz-adv-x="678" d="M 188 0 L 188 1530 L 489 1530 L 489 0 L 188 0 Z M 132 1652 L -23 1652 C -6 1835 66 1927 195 1927 C 247 1927 303 1909 363 1873 C 423 1836 462 1818 480 1818 C 513 1818 536 1853 548 1923 L 697 1923 C 685 1741 614 1650 486 1650 C 449 1650 406 1662 358 1688 C 264 1736 213 1761 206 1761 C 188 1761 171 1750 155 1730 C 139 1709 132 1683 132 1652 Z" unicode="Ĩ" />
<glyph horiz-adv-x="610" d="M 168 0 L 168 1089 L 442 1089 L 442 0 L 168 0 Z M 99 1239 L -56 1239 C -39 1422 33 1514 162 1514 C 214 1514 270 1496 330 1460 C 390 1423 429 1405 447 1405 C 480 1405 503 1440 515 1510 L 664 1510 C 652 1328 581 1237 453 1237 C 416 1237 373 1249 325 1275 C 231 1323 180 1348 173 1348 C 155 1348 138 1337 122 1317 C 106 1296 99 1270 99 1239 Z" unicode="ĩ" />
<glyph horiz-adv-x="678" d="M 188 0 L 188 1530 L 489 1530 L 489 0 L 188 0 Z M 661 1724 L 16 1724 L 16 1910 L 661 1910 L 661 1724 Z" unicode="Ī" />
<glyph horiz-adv-x="610" d="M 168 0 L 168 1089 L 442 1089 L 442 0 L 168 0 Z M 628 1311 L -17 1311 L -17 1497 L 628 1497 L 628 1311 Z" unicode="ī" />
<glyph horiz-adv-x="678" d="M 188 0 L 188 1530 L 489 1530 L 489 0 L 188 0 Z M 546 1990 L 687 1990 C 657 1770 540 1661 337 1661 C 237 1661 157 1690 97 1748 C 36 1806 0 1887 -11 1990 L 130 1990 C 166 1888 235 1837 337 1837 C 439 1837 508 1888 546 1990 Z" unicode="Ĭ" />
<glyph horiz-adv-x="610" d="M 168 0 L 168 1089 L 442 1089 L 442 0 L 168 0 Z M 512 1577 L 653 1577 C 623 1357 506 1248 303 1248 C 203 1248 123 1277 63 1335 C 2 1393 -33 1474 -45 1577 L 96 1577 C 132 1475 201 1424 303 1424 C 405 1424 474 1475 512 1577 Z" unicode="ĭ" />
<glyph horiz-adv-x="678" d="M 341 0 C 339 -25 338 -45 338 -60 C 338 -164 385 -217 481 -217 C 521 -217 566 -208 616 -192 L 616 -330 C 548 -357 483 -371 419 -371 C 348 -371 289 -350 242 -309 C 195 -268 172 -209 172 -132 C 172 -96 177 -51 189 1 L 189 1530 L 490 1530 L 490 0 L 341 0 Z" unicode="Į" />
<glyph horiz-adv-x="610" d="M 445 1278 L 168 1278 L 168 1552 L 445 1552 L 445 1278 Z M 319 0 C 317 -14 317 -32 317 -55 C 317 -163 364 -217 460 -217 C 500 -217 545 -208 595 -192 L 595 -330 C 527 -357 462 -371 398 -371 C 322 -371 261 -349 217 -306 C 173 -262 151 -203 151 -129 C 151 -93 156 -50 168 0 L 168 1090 L 445 1090 L 445 0 L 319 0 Z" unicode="į" />
<glyph horiz-adv-x="678" d="M 188 0 L 188 1530 L 489 1530 L 489 0 L 188 0 Z M 477 1733 L 200 1733 L 200 2004 L 477 2004 L 477 1733 Z" unicode="İ" />
<glyph horiz-adv-x="610" d="M 168 0 L 168 1089 L 442 1089 L 442 0 L 168 0 Z" unicode="ı" />
<glyph horiz-adv-x="1711" d="M 489 0 L 188 0 L 188 1530 L 489 1530 L 489 0 Z M 647 219 L 842 393 C 924 285 1000 231 1069 231 C 1121 231 1163 253 1197 297 C 1230 341 1247 397 1247 467 L 1247 1530 L 1548 1530 L 1548 467 C 1548 319 1503 199 1413 108 C 1323 17 1214 -28 1086 -28 C 928 -28 781 54 647 219 Z" unicode="Ĳ" />
<glyph horiz-adv-x="1157" d="M 445 1278 L 168 1278 L 168 1552 L 445 1552 L 445 1278 Z M 989 1272 L 713 1272 L 713 1552 L 989 1552 L 989 1272 Z M 445 0 L 168 0 L 168 1090 L 445 1090 L 445 0 Z M 504 -438 L 504 -244 C 585 -241 640 -227 669 -201 C 698 -175 713 -137 713 -86 L 713 1090 L 989 1090 L 989 -125 C 989 -225 957 -303 893 -357 C 829 -411 742 -438 631 -438 L 504 -438 Z" unicode="ĳ" />
<glyph horiz-adv-x="1046" d="M 583 467 L 583 1530 L 882 1530 L 882 467 C 882 319 837 199 749 108 C 660 16 551 -28 422 -28 C 262 -28 116 54 -16 219 L 178 393 C 262 285 338 231 405 231 C 457 231 499 253 533 295 C 567 337 583 395 583 467 Z M 361 1638 L 651 1956 L 807 1956 L 1087 1638 L 909 1638 L 727 1777 L 546 1638 L 361 1638 Z" unicode="Ĵ" />
<glyph horiz-adv-x="612" d="M 125 1225 L -61 1225 L 230 1542 L 385 1542 L 666 1225 L 488 1225 L 306 1364 L 125 1225 Z M -40 -438 L -40 -244 C 41 -241 96 -227 125 -201 C 153 -175 168 -137 168 -86 L 168 1090 L 445 1090 L 445 -125 C 445 -225 413 -303 349 -357 C 285 -411 197 -438 87 -438 L -40 -438 Z" unicode="ĵ" />
<glyph horiz-adv-x="1448" d="M 188 0 L 188 1530 L 489 1530 L 489 854 L 1040 1530 L 1372 1530 L 893 940 L 1427 0 L 1114 0 L 719 723 L 489 456 L 489 0 L 188 0 Z M 376 -368 L 448 -250 C 542 -280 614 -295 663 -295 C 717 -295 745 -276 745 -239 C 745 -194 715 -172 656 -172 L 692 -59 C 876 -63 968 -128 968 -256 C 968 -311 944 -355 896 -388 C 848 -421 786 -438 708 -438 C 607 -438 496 -414 376 -368 Z" unicode="Ķ" />
<glyph horiz-adv-x="1147" d="M 166 0 L 166 1552 L 444 1552 L 444 639 L 805 1089 L 1089 1089 L 743 649 L 1139 0 L 838 0 L 596 459 L 444 293 L 444 0 L 166 0 Z M 223 -368 L 295 -250 C 389 -280 461 -295 510 -295 C 564 -295 592 -276 592 -239 C 592 -194 562 -172 503 -172 L 539 -59 C 723 -63 815 -128 815 -256 C 815 -311 791 -355 743 -388 C 695 -421 633 -438 555 -438 C 454 -438 343 -414 223 -368 Z" unicode="ķ" />
<glyph horiz-adv-x="1147" d="M 445 0 L 168 0 L 168 1090 L 445 1090 L 445 639 L 805 1090 L 1090 1090 L 743 649 L 1147 0 L 846 0 L 596 459 L 445 293 L 445 0 Z" unicode="ĸ" />
<glyph horiz-adv-x="1161" d="M 188 0 L 188 1530 L 487 1530 L 487 264 L 1120 264 L 1120 0 L 188 0 Z M 409 1640 L 599 1976 L 927 1976 L 595 1640 L 409 1640 Z" unicode="Ĺ" />
<glyph horiz-adv-x="612" d="M 168 0 L 168 1552 L 444 1552 L 444 0 L 168 0 Z M 161 1640 L 351 1976 L 679 1976 L 347 1640 L 161 1640 Z" unicode="ĺ" />
<glyph horiz-adv-x="1161" d="M 188 0 L 188 1530 L 487 1530 L 487 264 L 1120 264 L 1120 0 L 188 0 Z M 245 -368 L 317 -250 C 411 -280 483 -295 532 -295 C 586 -295 614 -276 614 -239 C 614 -194 584 -172 525 -172 L 561 -59 C 745 -63 837 -128 837 -256 C 837 -311 813 -355 765 -388 C 717 -421 655 -438 577 -438 C 476 -438 365 -414 245 -368 Z" unicode="Ļ" />
<glyph horiz-adv-x="612" d="M 168 0 L 168 1552 L 444 1552 L 444 0 L 168 0 Z M -41 -368 L 31 -250 C 125 -280 197 -295 246 -295 C 300 -295 328 -276 328 -239 C 328 -194 298 -172 239 -172 L 275 -59 C 459 -63 551 -128 551 -256 C 551 -311 527 -355 479 -388 C 431 -421 369 -438 291 -438 C 190 -438 79 -414 -41 -368 Z" unicode="ļ" />
<glyph horiz-adv-x="1161" d="M 188 0 L 188 1530 L 487 1530 L 487 264 L 1120 264 L 1120 0 L 188 0 Z M 826 1311 L 714 1311 L 714 1530 L 918 1530 L 918 1311 L 786 1093 L 714 1093 L 826 1311 Z" unicode="Ľ" />
<glyph horiz-adv-x="733" d="M 168 0 L 168 1552 L 444 1552 L 444 0 L 168 0 Z M 683 1333 L 571 1333 L 571 1552 L 775 1552 L 775 1333 L 643 1115 L 571 1115 L 683 1333 Z" unicode="ľ" />
<glyph horiz-adv-x="1161" d="M 1120 0 L 188 0 L 188 1530 L 489 1530 L 489 264 L 1120 264 L 1120 0 Z M 952 649 L 651 649 L 651 977 L 952 977 L 952 649 Z" unicode="Ŀ" />
<glyph horiz-adv-x="958" d="M 445 0 L 168 0 L 168 1552 L 445 1552 L 445 0 Z M 872 649 L 571 649 L 571 977 L 872 977 L 872 649 Z" unicode="ŀ" />
<glyph horiz-adv-x="1161" d="M 188 704 L 188 1530 L 487 1530 L 487 985 L 770 1245 L 770 1077 L 487 809 L 487 264 L 1120 264 L 1120 0 L 188 0 L 188 536 L 88 444 L 88 610 L 188 704 Z" unicode="Ł" />
<glyph horiz-adv-x="653" d="M 188 731 L 188 1552 L 465 1552 L 465 962 L 614 1089 L 614 944 L 465 817 L 465 0 L 188 0 L 188 585 L 39 463 L 39 604 L 188 731 Z" unicode="ł" />
<glyph horiz-adv-x="1622" d="M 188 0 L 188 1530 L 508 1530 L 1134 504 L 1134 1530 L 1433 1530 L 1433 0 L 1134 0 L 489 1067 L 489 0 L 188 0 Z M 639 1640 L 829 1976 L 1157 1976 L 825 1640 L 639 1640 Z" unicode="Ń" />
<glyph horiz-adv-x="1231" d="M 444 745 L 444 0 L 168 0 L 168 1089 L 444 1089 L 444 940 C 560 1052 687 1108 823 1108 C 988 1108 1071 1015 1071 831 L 1071 0 L 798 0 L 798 760 C 798 842 764 884 696 884 C 627 884 543 837 444 745 Z M 443 1227 L 633 1563 L 961 1563 L 629 1227 L 443 1227 Z" unicode="ń" />
<glyph horiz-adv-x="1622" d="M 188 0 L 188 1530 L 508 1530 L 1134 504 L 1134 1530 L 1433 1530 L 1433 0 L 1134 0 L 489 1067 L 489 0 L 188 0 Z M 475 -368 L 547 -250 C 641 -280 713 -295 762 -295 C 816 -295 844 -276 844 -239 C 844 -194 814 -172 755 -172 L 791 -59 C 975 -63 1067 -128 1067 -256 C 1067 -311 1043 -355 995 -388 C 947 -421 885 -438 807 -438 C 706 -438 595 -414 475 -368 Z" unicode="Ņ" />
<glyph horiz-adv-x="1231" d="M 444 745 L 444 0 L 168 0 L 168 1089 L 444 1089 L 444 940 C 560 1052 687 1108 823 1108 C 988 1108 1071 1015 1071 831 L 1071 0 L 798 0 L 798 760 C 798 842 764 884 696 884 C 627 884 543 837 444 745 Z M 255 -368 L 327 -250 C 421 -280 493 -295 542 -295 C 596 -295 624 -276 624 -239 C 624 -194 594 -172 535 -172 L 571 -59 C 755 -63 847 -128 847 -256 C 847 -311 823 -355 775 -388 C 727 -421 665 -438 587 -438 C 486 -438 375 -414 255 -368 Z" unicode="ņ" />
<glyph horiz-adv-x="1622" d="M 188 0 L 188 1530 L 508 1530 L 1134 504 L 1134 1530 L 1433 1530 L 1433 0 L 1134 0 L 489 1067 L 489 0 L 188 0 Z M 718 1644 L 468 1964 L 628 1964 L 802 1831 L 978 1964 L 1152 1964 L 884 1644 L 718 1644 Z" unicode="Ň" />
<glyph horiz-adv-x="1231" d="M 444 745 L 444 0 L 168 0 L 168 1089 L 444 1089 L 444 940 C 560 1052 687 1108 823 1108 C 988 1108 1071 1015 1071 831 L 1071 0 L 798 0 L 798 760 C 798 842 764 884 696 884 C 627 884 543 837 444 745 Z M 542 1231 L 292 1551 L 452 1551 L 626 1418 L 802 1551 L 976 1551 L 708 1231 L 542 1231 Z" unicode="ň" />
<glyph horiz-adv-x="1518" d="M 731 745 L 731 0 L 455 0 L 455 1089 L 731 1089 L 731 940 C 847 1052 974 1108 1110 1108 C 1275 1108 1358 1015 1358 831 L 1358 0 L 1085 0 L 1085 760 C 1085 842 1051 884 983 884 C 914 884 830 837 731 745 Z M 249 1333 L 137 1333 L 137 1552 L 341 1552 L 341 1333 L 209 1115 L 137 1115 L 249 1333 Z" unicode="ŉ" />
<glyph horiz-adv-x="1554" d="M 683 -103 C 753 -153 820 -179 885 -179 C 936 -179 979 -158 1013 -117 C 1047 -75 1065 -14 1065 66 L 1065 1054 C 1065 1132 1044 1192 1004 1234 C 964 1276 913 1297 851 1297 C 769 1297 697 1264 633 1198 C 569 1132 521 1043 489 933 L 489 0 L 188 0 L 188 1530 L 489 1530 L 489 1269 C 587 1463 733 1560 927 1560 C 1048 1560 1151 1522 1237 1448 C 1323 1373 1366 1248 1366 1074 L 1366 63 C 1366 -91 1320 -213 1229 -303 C 1138 -393 1029 -438 901 -438 C 759 -438 635 -395 527 -310 L 683 -103 Z" unicode="Ŋ" />
<glyph horiz-adv-x="1231" d="M 1073 831 L 1073 -125 C 1073 -221 1042 -298 982 -354 C 921 -410 832 -438 715 -438 L 588 -438 L 588 -244 C 670 -240 726 -226 754 -202 C 782 -177 797 -138 797 -86 L 797 760 C 797 843 764 885 699 885 C 627 885 543 838 445 745 L 445 0 L 168 0 L 168 1090 L 445 1090 L 445 940 C 561 1053 687 1110 823 1110 C 989 1110 1073 1017 1073 831 Z" unicode="ŋ" />
<glyph horiz-adv-x="1550" d="M 1448 755 C 1448 507 1389 315 1272 178 C 1154 40 990 -28 780 -28 C 568 -28 402 41 282 180 C 162 318 102 513 102 764 C 102 1010 160 1204 278 1346 C 395 1488 551 1560 745 1560 C 971 1560 1145 1491 1266 1353 C 1387 1215 1448 1016 1448 755 Z M 413 764 C 413 593 445 463 508 373 C 570 283 660 237 778 237 C 891 237 979 282 1041 373 C 1103 463 1134 593 1134 762 C 1134 1119 1012 1298 770 1298 C 655 1298 567 1252 505 1160 C 443 1068 413 936 413 764 Z M 1097 1724 L 452 1724 L 452 1910 L 1097 1910 L 1097 1724 Z" unicode="Ō" />
<glyph horiz-adv-x="1173" d="M 1081 551 C 1081 377 1035 239 944 136 C 853 33 735 -18 590 -18 C 442 -18 322 33 230 135 C 138 237 92 375 92 549 C 92 719 135 855 221 957 C 307 1059 420 1110 561 1110 C 725 1110 853 1060 945 962 C 1036 863 1081 726 1081 551 Z M 368 538 C 368 300 440 182 585 182 C 734 182 809 311 809 569 C 809 677 789 760 749 820 C 709 879 656 909 588 909 C 441 909 368 785 368 538 Z M 910 1311 L 265 1311 L 265 1497 L 910 1497 L 910 1311 Z" unicode="ō" />
<glyph horiz-adv-x="1550" d="M 1448 755 C 1448 507 1389 315 1272 178 C 1154 40 990 -28 780 -28 C 568 -28 402 41 282 180 C 162 318 102 513 102 764 C 102 1010 160 1204 278 1346 C 395 1488 551 1560 745 1560 C 971 1560 1145 1491 1266 1353 C 1387 1215 1448 1016 1448 755 Z M 413 764 C 413 593 445 463 508 373 C 570 283 660 237 778 237 C 891 237 979 282 1041 373 C 1103 463 1134 593 1134 762 C 1134 1119 1012 1298 770 1298 C 655 1298 567 1252 505 1160 C 443 1068 413 936 413 764 Z M 983 1990 L 1124 1990 C 1094 1770 977 1661 774 1661 C 674 1661 594 1690 534 1748 C 473 1806 437 1887 426 1990 L 567 1990 C 603 1888 672 1837 774 1837 C 876 1837 945 1888 983 1990 Z" unicode="Ŏ" />
<glyph horiz-adv-x="1173" d="M 1083 551 C 1083 377 1037 239 946 136 C 855 33 737 -18 592 -18 C 444 -18 324 33 232 135 C 140 237 94 375 94 549 C 94 719 137 855 223 957 C 309 1059 422 1110 563 1110 C 727 1110 855 1060 947 962 C 1038 863 1083 726 1083 551 Z M 370 538 C 370 300 442 182 587 182 C 736 182 811 311 811 569 C 811 677 791 760 751 820 C 711 879 658 909 590 909 C 443 909 370 785 370 538 Z M 795 1577 L 936 1577 C 906 1357 789 1248 586 1248 C 486 1248 406 1277 346 1335 C 285 1393 249 1474 238 1577 L 379 1577 C 415 1475 484 1424 586 1424 C 688 1424 757 1475 795 1577 Z" unicode="ŏ" />
<glyph horiz-adv-x="1550" d="M 1448 755 C 1448 507 1389 315 1272 178 C 1154 40 990 -28 780 -28 C 568 -28 402 41 282 180 C 162 318 102 513 102 764 C 102 1010 160 1204 278 1346 C 395 1488 551 1560 745 1560 C 971 1560 1145 1491 1266 1353 C 1387 1215 1448 1016 1448 755 Z M 413 764 C 413 593 445 463 508 373 C 570 283 660 237 778 237 C 891 237 979 282 1041 373 C 1103 463 1134 593 1134 762 C 1134 1119 1012 1298 770 1298 C 655 1298 567 1252 505 1160 C 443 1068 413 936 413 764 Z M 820 1640 L 1041 1976 L 1307 1976 L 1006 1640 L 820 1640 Z M 447 1640 L 668 1976 L 934 1976 L 633 1640 L 447 1640 Z" unicode="Ő" />
<glyph horiz-adv-x="1173" d="M 1081 551 C 1081 377 1035 239 944 136 C 853 33 735 -18 590 -18 C 442 -18 322 33 230 135 C 138 237 92 375 92 549 C 92 719 135 855 221 957 C 307 1059 420 1110 561 1110 C 725 1110 853 1060 945 962 C 1036 863 1081 726 1081 551 Z M 368 538 C 368 300 440 182 585 182 C 734 182 809 311 809 569 C 809 677 789 760 749 820 C 709 879 656 909 588 909 C 441 909 368 785 368 538 Z M 632 1227 L 853 1563 L 1119 1563 L 818 1227 L 632 1227 Z M 259 1227 L 480 1563 L 746 1563 L 445 1227 L 259 1227 Z" unicode="ő" />
<glyph horiz-adv-x="1990" d="M 1007 1427 L 1007 1530 L 1915 1530 L 1915 1267 L 1313 1267 L 1313 927 L 1673 927 L 1673 700 L 1313 700 L 1313 266 L 1915 266 L 1915 0 L 1007 0 L 1007 94 C 894 19 784 -18 676 -18 C 498 -18 356 50 251 186 C 146 322 94 509 94 747 C 94 1017 151 1218 266 1352 C 380 1485 520 1552 684 1552 C 807 1552 915 1510 1007 1427 Z M 409 760 C 409 420 506 250 702 250 C 906 250 1009 426 1009 778 C 1009 939 982 1063 928 1151 C 874 1238 798 1282 702 1282 C 506 1282 409 1108 409 760 Z" unicode="Œ" />
<glyph horiz-adv-x="1898" d="M 1810 493 L 1110 493 C 1116 301 1191 205 1337 205 C 1435 205 1510 255 1562 356 L 1788 260 C 1684 74 1533 -18 1335 -18 C 1261 -18 1195 -4 1139 22 C 1082 49 1023 99 962 172 C 853 45 730 -18 594 -18 C 451 -18 333 33 241 135 C 148 237 102 372 102 540 C 102 712 146 849 236 953 C 325 1056 446 1108 598 1108 C 752 1108 873 1045 962 921 C 1031 995 1093 1045 1147 1070 C 1201 1095 1263 1108 1333 1108 C 1483 1108 1600 1060 1684 966 C 1768 872 1810 737 1810 563 L 1810 493 Z M 1112 661 L 1562 661 C 1558 743 1534 807 1492 853 C 1449 898 1395 921 1329 921 C 1196 921 1124 834 1112 661 Z M 379 555 C 379 306 450 182 592 182 C 743 182 819 309 819 563 C 819 792 744 907 596 907 C 451 907 379 789 379 555 Z" unicode="œ" />
<glyph horiz-adv-x="1448" d="M 188 0 L 188 1530 L 602 1530 C 786 1530 925 1517 1020 1492 C 1115 1466 1191 1414 1247 1334 C 1303 1254 1331 1160 1331 1050 C 1331 958 1309 883 1265 824 C 1221 764 1148 713 1044 671 L 1341 0 L 1022 0 L 766 614 L 489 614 L 489 0 L 188 0 Z M 731 1263 L 489 1263 L 489 850 L 731 850 C 815 850 883 869 937 909 C 991 949 1018 1001 1018 1065 C 1018 1197 922 1263 731 1263 Z M 494 1640 L 684 1976 L 1012 1976 L 680 1640 L 494 1640 Z" unicode="Ŕ" />
<glyph horiz-adv-x="829" d="M 446 1089 L 446 829 C 553 1011 670 1104 798 1108 L 798 829 L 774 829 C 704 829 639 808 581 766 C 523 724 478 664 446 588 L 446 0 L 168 0 L 168 1089 L 446 1089 Z M 244 1227 L 434 1563 L 762 1563 L 430 1227 L 244 1227 Z" unicode="ŕ" />
<glyph horiz-adv-x="1448" d="M 188 0 L 188 1530 L 602 1530 C 786 1530 925 1517 1020 1492 C 1115 1466 1191 1414 1247 1334 C 1303 1254 1331 1160 1331 1050 C 1331 958 1309 883 1265 824 C 1221 764 1148 713 1044 671 L 1341 0 L 1022 0 L 766 614 L 489 614 L 489 0 L 188 0 Z M 731 1263 L 489 1263 L 489 850 L 731 850 C 815 850 883 869 937 909 C 991 949 1018 1001 1018 1065 C 1018 1197 922 1263 731 1263 Z M 351 -368 L 423 -250 C 517 -280 589 -295 638 -295 C 692 -295 720 -276 720 -239 C 720 -194 690 -172 631 -172 L 667 -59 C 851 -63 943 -128 943 -256 C 943 -311 919 -355 871 -388 C 823 -421 761 -438 683 -438 C 582 -438 471 -414 351 -368 Z" unicode="Ŗ" />
<glyph horiz-adv-x="829" d="M 446 1089 L 446 829 C 553 1011 670 1104 798 1108 L 798 829 L 774 829 C 704 829 639 808 581 766 C 523 724 478 664 446 588 L 446 0 L 168 0 L 168 1089 L 446 1089 Z M 30 -368 L 102 -250 C 196 -280 268 -295 317 -295 C 371 -295 399 -276 399 -239 C 399 -194 369 -172 310 -172 L 346 -59 C 530 -63 622 -128 622 -256 C 622 -311 598 -355 550 -388 C 502 -421 440 -438 362 -438 C 261 -438 150 -414 30 -368 Z" unicode="ŗ" />
<glyph horiz-adv-x="1448" d="M 188 0 L 188 1530 L 602 1530 C 786 1530 925 1517 1020 1492 C 1115 1466 1191 1414 1247 1334 C 1303 1254 1331 1160 1331 1050 C 1331 958 1309 883 1265 824 C 1221 764 1148 713 1044 671 L 1341 0 L 1022 0 L 766 614 L 489 614 L 489 0 L 188 0 Z M 731 1263 L 489 1263 L 489 850 L 731 850 C 815 850 883 869 937 909 C 991 949 1018 1001 1018 1065 C 1018 1197 922 1263 731 1263 Z M 589 1644 L 339 1964 L 499 1964 L 673 1831 L 849 1964 L 1023 1964 L 755 1644 L 589 1644 Z" unicode="Ř" />
<glyph horiz-adv-x="829" d="M 446 1089 L 446 829 C 553 1011 670 1104 798 1108 L 798 829 L 774 829 C 704 829 639 808 581 766 C 523 724 478 664 446 588 L 446 0 L 168 0 L 168 1089 L 446 1089 Z M 342 1231 L 92 1551 L 252 1551 L 426 1418 L 602 1551 L 776 1551 L 508 1231 L 342 1231 Z" unicode="ř" />
<glyph horiz-adv-x="1298" d="M 76 323 L 344 428 C 396 348 446 293 496 263 C 545 233 602 219 667 219 C 742 219 803 238 850 276 C 897 314 921 362 921 420 C 921 462 910 496 886 522 C 862 548 823 573 769 598 C 714 623 643 647 557 671 C 269 750 125 898 125 1114 C 125 1248 172 1356 267 1438 C 362 1520 486 1560 639 1560 C 871 1560 1044 1463 1159 1270 L 905 1167 C 823 1283 730 1341 626 1341 C 561 1341 508 1323 466 1286 C 424 1248 403 1203 403 1149 C 403 1097 428 1055 478 1024 C 528 993 609 964 719 936 C 1039 853 1200 690 1200 446 C 1200 310 1149 197 1048 106 C 947 15 814 -30 649 -30 C 387 -30 196 87 76 323 Z M 478 1640 L 668 1976 L 996 1976 L 664 1640 L 478 1640 Z" unicode="Ś" />
<glyph horiz-adv-x="1022" d="M 67 180 L 235 297 C 333 221 425 184 512 184 C 628 184 686 220 686 293 C 686 359 619 403 487 424 C 369 442 274 482 202 543 C 130 603 94 679 94 770 C 94 863 134 943 214 1009 C 294 1075 394 1108 514 1108 C 645 1108 781 1056 921 954 L 762 821 C 661 887 580 921 520 921 C 472 921 433 909 403 885 C 373 860 358 830 358 794 C 358 758 375 729 409 709 C 443 689 514 667 622 643 C 752 614 841 575 891 526 C 940 477 964 412 964 332 C 964 228 923 143 842 79 C 761 14 652 -18 514 -18 C 344 -18 195 48 67 180 Z M 340 1227 L 530 1563 L 858 1563 L 526 1227 L 340 1227 Z" unicode="ś" />
<glyph horiz-adv-x="1298" d="M 76 323 L 344 428 C 396 348 446 293 496 263 C 545 233 602 219 667 219 C 742 219 803 238 850 276 C 897 314 921 362 921 420 C 921 462 910 496 886 522 C 862 548 823 573 769 598 C 714 623 643 647 557 671 C 269 750 125 898 125 1114 C 125 1248 172 1356 267 1438 C 362 1520 486 1560 639 1560 C 871 1560 1044 1463 1159 1270 L 905 1167 C 823 1283 730 1341 626 1341 C 561 1341 508 1323 466 1286 C 424 1248 403 1203 403 1149 C 403 1097 428 1055 478 1024 C 528 993 609 964 719 936 C 1039 853 1200 690 1200 446 C 1200 310 1149 197 1048 106 C 947 15 814 -30 649 -30 C 387 -30 196 87 76 323 Z M 286 1638 L 576 1956 L 732 1956 L 1012 1638 L 834 1638 L 652 1777 L 471 1638 L 286 1638 Z" unicode="Ŝ" />
<glyph horiz-adv-x="1022" d="M 67 180 L 235 297 C 333 221 425 184 512 184 C 628 184 686 220 686 293 C 686 359 619 403 487 424 C 369 442 274 482 202 543 C 130 603 94 679 94 770 C 94 863 134 943 214 1009 C 294 1075 394 1108 514 1108 C 645 1108 781 1056 921 954 L 762 821 C 661 887 580 921 520 921 C 472 921 433 909 403 885 C 373 860 358 830 358 794 C 358 758 375 729 409 709 C 443 689 514 667 622 643 C 752 614 841 575 891 526 C 940 477 964 412 964 332 C 964 228 923 143 842 79 C 761 14 652 -18 514 -18 C 344 -18 195 48 67 180 Z M 160 1225 L 450 1543 L 606 1543 L 886 1225 L 708 1225 L 526 1364 L 345 1225 L 160 1225 Z" unicode="ŝ" />
<glyph horiz-adv-x="1298" d="M 76 323 L 344 428 C 396 348 446 293 496 263 C 545 233 602 219 667 219 C 742 219 803 238 850 276 C 897 314 921 362 921 420 C 921 462 910 496 886 522 C 862 548 823 573 769 598 C 714 623 643 647 557 671 C 269 750 125 898 125 1114 C 125 1248 172 1356 267 1438 C 362 1520 486 1560 639 1560 C 871 1560 1044 1463 1159 1270 L 905 1167 C 823 1283 730 1341 626 1341 C 561 1341 508 1323 466 1286 C 424 1248 403 1203 403 1149 C 403 1097 428 1055 478 1024 C 528 993 609 964 719 936 C 1039 853 1200 690 1200 446 C 1200 310 1149 197 1048 106 C 947 15 814 -30 649 -30 C 387 -30 196 87 76 323 Z M 286 -368 L 358 -250 C 452 -280 524 -295 573 -295 C 627 -295 655 -276 655 -239 C 655 -194 625 -172 566 -172 L 602 -59 C 786 -63 878 -128 878 -256 C 878 -311 854 -355 806 -388 C 758 -421 696 -438 618 -438 C 517 -438 406 -414 286 -368 Z" unicode="Ş" />
<glyph horiz-adv-x="1022" d="M 67 180 L 235 297 C 333 221 425 184 512 184 C 628 184 686 220 686 293 C 686 359 619 403 487 424 C 369 442 274 482 202 543 C 130 603 94 679 94 770 C 94 863 134 943 214 1009 C 294 1075 394 1108 514 1108 C 645 1108 781 1056 921 954 L 762 821 C 661 887 580 921 520 921 C 472 921 433 909 403 885 C 373 860 358 830 358 794 C 358 758 375 729 409 709 C 443 689 514 667 622 643 C 752 614 841 575 891 526 C 940 477 964 412 964 332 C 964 228 923 143 842 79 C 761 14 652 -18 514 -18 C 344 -18 195 48 67 180 Z M 166 -368 L 238 -250 C 332 -280 404 -295 453 -295 C 507 -295 535 -276 535 -239 C 535 -194 505 -172 446 -172 L 482 -59 C 666 -63 758 -128 758 -256 C 758 -311 734 -355 686 -388 C 638 -421 576 -438 498 -438 C 397 -438 286 -414 166 -368 Z" unicode="ş" />
<glyph horiz-adv-x="1298" d="M 65 323 L 333 428 C 385 348 435 293 485 263 C 534 233 591 219 656 219 C 731 219 792 238 839 276 C 886 314 910 362 910 420 C 910 462 899 496 875 522 C 851 548 812 573 758 598 C 703 623 632 647 546 671 C 258 750 114 898 114 1114 C 114 1248 161 1356 256 1438 C 351 1520 475 1560 628 1560 C 860 1560 1033 1463 1148 1270 L 894 1167 C 812 1283 719 1341 615 1341 C 550 1341 497 1323 455 1286 C 413 1248 392 1203 392 1149 C 392 1097 417 1055 467 1024 C 517 993 598 964 708 936 C 1028 853 1189 690 1189 446 C 1189 310 1138 197 1037 106 C 936 15 803 -30 638 -30 C 376 -30 185 87 65 323 Z M 560 1644 L 310 1964 L 470 1964 L 644 1831 L 820 1964 L 994 1964 L 726 1644 L 560 1644 Z" unicode="Š" />
<glyph horiz-adv-x="1022" d="M 67 180 L 235 297 C 333 221 425 184 512 184 C 628 184 686 220 686 293 C 686 359 619 403 487 424 C 369 442 274 482 202 543 C 130 603 94 679 94 770 C 94 863 134 943 214 1009 C 294 1075 394 1108 514 1108 C 645 1108 781 1056 921 954 L 762 821 C 661 887 580 921 520 921 C 472 921 433 909 403 885 C 373 860 358 830 358 794 C 358 758 375 729 409 709 C 443 689 514 667 622 643 C 752 614 841 575 891 526 C 940 477 964 412 964 332 C 964 228 923 143 842 79 C 761 14 652 -18 514 -18 C 344 -18 195 48 67 180 Z M 421 1231 L 171 1551 L 331 1551 L 505 1418 L 681 1551 L 855 1551 L 587 1231 L 421 1231 Z" unicode="š" />
<glyph horiz-adv-x="1241" d="M 41 1267 L 41 1530 L 1200 1530 L 1200 1267 L 770 1267 L 770 0 L 469 0 L 469 1267 L 41 1267 Z M 261 -368 L 333 -250 C 427 -280 499 -295 548 -295 C 602 -295 630 -276 630 -239 C 630 -194 600 -172 541 -172 L 577 -59 C 761 -63 853 -128 853 -256 C 853 -311 829 -355 781 -388 C 733 -421 671 -438 593 -438 C 492 -438 381 -414 261 -368 Z" unicode="Ţ" />
<glyph horiz-adv-x="751" d="M 213 1089 L 213 1442 L 487 1442 L 487 1089 L 680 1089 L 680 891 L 487 891 L 487 311 C 487 276 500 250 526 234 C 552 218 603 209 680 209 L 680 -16 L 588 -18 C 515 -18 454 -11 405 3 C 355 17 311 52 272 108 C 232 164 213 231 213 311 L 213 891 L 45 891 L 45 1089 L 213 1089 Z M 41 -368 L 113 -250 C 207 -280 279 -295 328 -295 C 382 -295 410 -276 410 -239 C 410 -194 380 -172 321 -172 L 357 -59 C 541 -63 633 -128 633 -256 C 633 -311 609 -355 561 -388 C 513 -421 451 -438 373 -438 C 272 -438 161 -414 41 -368 Z" unicode="ţ" />
<glyph horiz-adv-x="1241" d="M 41 1267 L 41 1530 L 1200 1530 L 1200 1267 L 770 1267 L 770 0 L 469 0 L 469 1267 L 41 1267 Z M 533 1644 L 283 1964 L 443 1964 L 617 1831 L 793 1964 L 967 1964 L 699 1644 L 533 1644 Z" unicode="Ť" />
<glyph horiz-adv-x="928" d="M 213 1089 L 213 1442 L 487 1442 L 487 1089 L 680 1089 L 680 891 L 487 891 L 487 311 C 487 276 500 250 526 234 C 552 218 603 209 680 209 L 680 -16 L 588 -18 C 515 -18 454 -11 405 3 C 355 17 311 52 272 108 C 232 164 213 231 213 311 L 213 891 L 45 891 L 45 1089 L 213 1089 Z M 878 1333 L 766 1333 L 766 1552 L 970 1552 L 970 1333 L 838 1115 L 766 1115 L 878 1333 Z" unicode="ť" />
<glyph horiz-adv-x="1241" d="M 770 887 L 1072 887 L 1072 701 L 770 701 L 770 0 L 469 0 L 469 701 L 168 701 L 168 887 L 469 887 L 469 1266 L 41 1266 L 41 1530 L 1200 1530 L 1200 1266 L 770 1266 L 770 887 Z" unicode="Ŧ" />
<glyph horiz-adv-x="752" d="M 490 716 L 680 716 L 680 559 L 490 559 L 490 324 C 490 282 501 252 524 236 C 547 220 599 211 680 209 L 680 -16 L 574 -18 C 477 -18 405 -2 357 27 C 309 57 273 97 249 147 C 225 197 213 251 213 311 L 213 559 L 26 559 L 26 716 L 213 716 L 213 891 L 45 891 L 45 1090 L 213 1090 L 213 1442 L 490 1442 L 490 1090 L 680 1090 L 680 891 L 490 891 L 490 716 Z" unicode="ŧ" />
<glyph horiz-adv-x="1556" d="M 170 545 L 170 1530 L 471 1530 L 471 596 C 471 484 497 398 550 338 C 602 278 677 248 774 248 C 872 248 949 278 1003 338 C 1057 398 1083 484 1083 596 L 1083 1530 L 1386 1530 L 1386 551 C 1386 365 1335 222 1233 122 C 1131 22 985 -28 794 -28 C 378 -28 170 163 170 545 Z M 572 1652 L 417 1652 C 433 1835 506 1927 635 1927 C 687 1927 743 1909 803 1873 C 863 1836 902 1818 920 1818 C 953 1818 976 1853 988 1923 L 1137 1923 C 1125 1741 1054 1650 926 1650 C 889 1650 846 1662 798 1688 C 704 1736 653 1761 646 1761 C 628 1761 611 1750 595 1730 C 579 1709 572 1683 572 1652 Z" unicode="Ũ" />
<glyph horiz-adv-x="1231" d="M 786 0 L 786 164 C 664 42 544 -18 424 -18 C 346 -18 282 9 234 64 C 186 119 162 193 162 286 L 162 1089 L 440 1089 L 440 342 C 440 305 450 275 472 252 C 494 228 521 217 555 217 C 621 217 698 263 786 356 L 786 1089 L 1063 1089 L 1063 0 L 786 0 Z M 408 1239 L 253 1239 C 269 1422 342 1514 471 1514 C 523 1514 579 1496 639 1460 C 699 1423 738 1405 756 1405 C 789 1405 812 1440 824 1510 L 973 1510 C 961 1328 890 1237 762 1237 C 725 1237 682 1249 634 1275 C 540 1323 489 1348 482 1348 C 464 1348 447 1337 431 1317 C 415 1296 408 1270 408 1239 Z" unicode="ũ" />
<glyph horiz-adv-x="1556" d="M 170 545 L 170 1530 L 471 1530 L 471 596 C 471 484 497 398 550 338 C 602 278 677 248 774 248 C 872 248 949 278 1003 338 C 1057 398 1083 484 1083 596 L 1083 1530 L 1386 1530 L 1386 551 C 1386 365 1335 222 1233 122 C 1131 22 985 -28 794 -28 C 378 -28 170 163 170 545 Z M 1099 1724 L 454 1724 L 454 1910 L 1099 1910 L 1099 1724 Z" unicode="Ū" />
<glyph horiz-adv-x="1231" d="M 786 0 L 786 164 C 664 42 544 -18 424 -18 C 346 -18 282 9 234 64 C 186 119 162 193 162 286 L 162 1089 L 440 1089 L 440 342 C 440 305 450 275 472 252 C 494 228 521 217 555 217 C 621 217 698 263 786 356 L 786 1089 L 1063 1089 L 1063 0 L 786 0 Z M 935 1311 L 290 1311 L 290 1497 L 935 1497 L 935 1311 Z" unicode="ū" />
<glyph horiz-adv-x="1556" d="M 170 545 L 170 1530 L 471 1530 L 471 596 C 471 484 497 398 550 338 C 602 278 677 248 774 248 C 872 248 949 278 1003 338 C 1057 398 1083 484 1083 596 L 1083 1530 L 1386 1530 L 1386 551 C 1386 365 1335 222 1233 122 C 1131 22 985 -28 794 -28 C 378 -28 170 163 170 545 Z M 986 1990 L 1127 1990 C 1097 1770 980 1661 777 1661 C 677 1661 597 1690 537 1748 C 476 1806 440 1887 429 1990 L 570 1990 C 606 1888 675 1837 777 1837 C 879 1837 948 1888 986 1990 Z" unicode="Ŭ" />
<glyph horiz-adv-x="1231" d="M 786 0 L 786 164 C 664 42 544 -18 424 -18 C 346 -18 282 9 234 64 C 186 119 162 193 162 286 L 162 1089 L 440 1089 L 440 342 C 440 305 450 275 472 252 C 494 228 521 217 555 217 C 621 217 698 263 786 356 L 786 1089 L 1063 1089 L 1063 0 L 786 0 Z M 824 1577 L 965 1577 C 935 1357 818 1248 615 1248 C 515 1248 435 1277 375 1335 C 314 1393 278 1474 267 1577 L 408 1577 C 444 1475 513 1424 615 1424 C 717 1424 786 1475 824 1577 Z" unicode="ŭ" />
<glyph horiz-adv-x="1556" d="M 170 545 L 170 1530 L 471 1530 L 471 596 C 471 484 497 398 550 338 C 602 278 677 248 774 248 C 872 248 949 278 1003 338 C 1057 398 1083 484 1083 596 L 1083 1530 L 1386 1530 L 1386 551 C 1386 365 1335 222 1233 122 C 1131 22 985 -28 794 -28 C 378 -28 170 163 170 545 Z M 987 1843 C 987 1785 966 1735 926 1695 C 886 1654 836 1633 778 1633 C 720 1633 670 1653 629 1694 C 588 1734 568 1783 568 1841 C 568 1899 589 1949 632 1990 C 675 2031 724 2052 778 2052 C 836 2052 886 2031 927 1991 C 967 1950 987 1901 987 1843 Z M 652 1841 C 652 1805 664 1775 688 1751 C 712 1727 742 1714 778 1714 C 813 1714 843 1726 869 1751 C 894 1775 906 1805 906 1841 C 906 1876 893 1906 868 1932 C 842 1957 813 1969 780 1969 C 743 1969 712 1957 688 1931 C 664 1905 652 1875 652 1841 Z" unicode="Ů" />
<glyph horiz-adv-x="1231" d="M 786 0 L 786 164 C 664 42 544 -18 424 -18 C 346 -18 282 9 234 64 C 186 119 162 193 162 286 L 162 1089 L 440 1089 L 440 342 C 440 305 450 275 472 252 C 494 228 521 217 555 217 C 621 217 698 263 786 356 L 786 1089 L 1063 1089 L 1063 0 L 786 0 Z M 822 1430 C 822 1372 801 1322 761 1282 C 721 1241 671 1220 613 1220 C 555 1220 505 1240 464 1281 C 423 1321 403 1370 403 1428 C 403 1486 424 1536 467 1577 C 510 1618 559 1639 613 1639 C 671 1639 721 1618 762 1578 C 802 1537 822 1488 822 1430 Z M 487 1428 C 487 1392 499 1362 523 1338 C 547 1314 577 1301 613 1301 C 648 1301 678 1313 704 1338 C 729 1362 741 1392 741 1428 C 741 1463 728 1493 703 1519 C 677 1544 648 1556 615 1556 C 578 1556 547 1544 523 1518 C 499 1492 487 1462 487 1428 Z" unicode="ů" />
<glyph horiz-adv-x="1556" d="M 170 545 L 170 1530 L 471 1530 L 471 596 C 471 484 497 398 550 338 C 602 278 677 248 774 248 C 872 248 949 278 1003 338 C 1057 398 1083 484 1083 596 L 1083 1530 L 1386 1530 L 1386 551 C 1386 365 1335 222 1233 122 C 1131 22 985 -28 794 -28 C 378 -28 170 163 170 545 Z M 823 1640 L 1044 1976 L 1310 1976 L 1009 1640 L 823 1640 Z M 450 1640 L 671 1976 L 937 1976 L 636 1640 L 450 1640 Z" unicode="Ű" />
<glyph horiz-adv-x="1231" d="M 786 0 L 786 164 C 664 42 544 -18 424 -18 C 346 -18 282 9 234 64 C 186 119 162 193 162 286 L 162 1089 L 440 1089 L 440 342 C 440 305 450 275 472 252 C 494 228 521 217 555 217 C 621 217 698 263 786 356 L 786 1089 L 1063 1089 L 1063 0 L 786 0 Z M 661 1227 L 882 1563 L 1148 1563 L 847 1227 L 661 1227 Z M 288 1227 L 509 1563 L 775 1563 L 474 1227 L 288 1227 Z" unicode="ű" />
<glyph horiz-adv-x="1557" d="M 1181 77 C 1169 34 1163 -6 1163 -46 C 1163 -160 1210 -217 1306 -217 C 1346 -217 1392 -208 1442 -192 L 1442 -330 C 1374 -357 1308 -371 1244 -371 C 1173 -371 1114 -350 1067 -309 C 1020 -268 997 -209 997 -132 C 997 -96 1002 -51 1014 1 C 943 -18 865 -28 781 -28 C 373 -28 170 163 170 545 L 170 1530 L 471 1530 L 471 596 C 471 484 497 398 549 338 C 601 278 676 248 774 248 C 873 248 950 278 1004 340 C 1058 401 1085 486 1085 596 L 1085 1530 L 1387 1530 L 1387 551 C 1387 335 1318 177 1181 77 Z" unicode="Ų" />
<glyph horiz-adv-x="1231" d="M 938 0 C 936 -15 935 -30 935 -46 C 935 -160 983 -217 1079 -217 C 1119 -217 1164 -208 1214 -192 L 1214 -330 C 1146 -357 1080 -371 1016 -371 C 944 -371 884 -350 838 -308 C 792 -266 769 -208 769 -132 C 769 -96 775 -50 787 4 L 787 164 C 662 42 541 -18 424 -18 C 346 -18 283 9 235 65 C 187 121 164 195 164 287 L 164 1090 L 441 1090 L 441 342 C 441 306 451 276 473 252 C 494 228 521 217 555 217 C 623 217 700 263 787 356 L 787 1090 L 1063 1090 L 1063 0 L 938 0 Z" unicode="ų" />
<glyph horiz-adv-x="1890" d="M 430 0 L 47 1530 L 356 1530 L 563 635 L 774 1530 L 1116 1530 L 1327 626 L 1534 1530 L 1843 1530 L 1460 0 L 1224 0 L 948 1167 L 665 0 L 430 0 Z M 581 1638 L 871 1956 L 1027 1956 L 1307 1638 L 1129 1638 L 947 1777 L 766 1638 L 581 1638 Z" unicode="Ŵ" />
<glyph horiz-adv-x="1581" d="M 397 0 L 51 1089 L 317 1089 L 504 479 L 688 1089 L 893 1089 L 1079 471 L 1261 1089 L 1530 1089 L 1181 0 L 989 0 L 790 657 L 592 0 L 397 0 Z M 427 1225 L 717 1543 L 873 1543 L 1153 1225 L 975 1225 L 793 1364 L 612 1225 L 427 1225 Z" unicode="ŵ" />
<glyph horiz-adv-x="1229" d="M 463 682 L 8 1530 L 342 1530 L 616 979 L 887 1530 L 1220 1530 L 766 682 L 766 0 L 463 0 L 463 682 Z M 251 1638 L 541 1956 L 697 1956 L 977 1638 L 799 1638 L 617 1777 L 436 1638 L 251 1638 Z" unicode="Ŷ" />
<glyph horiz-adv-x="1065" d="M 403 -33 L 41 1089 L 321 1089 L 534 391 L 745 1089 L 1024 1089 L 696 65 C 632 -133 563 -266 489 -335 C 414 -403 308 -438 170 -438 L 71 -438 L 71 -235 L 125 -235 C 280 -235 373 -167 403 -33 Z M 169 1225 L 459 1543 L 615 1543 L 895 1225 L 717 1225 L 535 1364 L 354 1225 L 169 1225 Z" unicode="ŷ" />
<glyph horiz-adv-x="1229" d="M 463 682 L 8 1530 L 342 1530 L 616 979 L 887 1530 L 1220 1530 L 766 682 L 766 0 L 463 0 L 463 682 Z M 290 1685 L 290 1900 L 509 1900 L 509 1685 L 290 1685 Z M 732 1685 L 732 1900 L 949 1900 L 949 1685 L 732 1685 Z" unicode="Ÿ" />
<glyph horiz-adv-x="1280" d="M 100 1267 L 100 1530 L 1186 1530 L 1186 1294 L 473 264 L 1204 264 L 1204 0 L 63 0 L 63 205 L 801 1267 L 100 1267 Z M 531 1640 L 721 1976 L 1049 1976 L 717 1640 L 531 1640 Z" unicode="Ź" />
<glyph horiz-adv-x="1003" d="M 106 868 L 106 1089 L 934 1089 L 934 868 L 387 223 L 934 223 L 934 0 L 61 0 L 61 223 L 612 868 L 106 868 Z M 410 1227 L 600 1563 L 928 1563 L 596 1227 L 410 1227 Z" unicode="ź" />
<glyph horiz-adv-x="1280" d="M 100 1267 L 100 1530 L 1186 1530 L 1186 1294 L 473 264 L 1204 264 L 1204 0 L 63 0 L 63 205 L 801 1267 L 100 1267 Z M 812 1732 L 535 1732 L 535 2003 L 812 2003 L 812 1732 Z" unicode="Ż" />
<glyph horiz-adv-x="1003" d="M 106 868 L 106 1089 L 934 1089 L 934 868 L 387 223 L 934 223 L 934 0 L 61 0 L 61 223 L 612 868 L 106 868 Z M 679 1319 L 402 1319 L 402 1590 L 679 1590 L 679 1319 Z" unicode="ż" />
<glyph horiz-adv-x="1280" d="M 100 1267 L 100 1530 L 1186 1530 L 1186 1294 L 473 264 L 1204 264 L 1204 0 L 63 0 L 63 205 L 801 1267 L 100 1267 Z M 567 1644 L 317 1964 L 477 1964 L 651 1831 L 827 1964 L 1001 1964 L 733 1644 L 567 1644 Z" unicode="Ž" />
<glyph horiz-adv-x="1003" d="M 106 868 L 106 1089 L 934 1089 L 934 868 L 387 223 L 934 223 L 934 0 L 61 0 L 61 223 L 612 868 L 106 868 Z M 430 1231 L 180 1551 L 340 1551 L 514 1418 L 690 1551 L 864 1551 L 596 1231 L 430 1231 Z" unicode="ž" />
<glyph horiz-adv-x="653" d="M 641 1552 L 641 1360 L 594 1360 C 534 1360 494 1348 474 1326 C 454 1303 444 1268 444 1222 L 444 0 L 168 0 L 168 1090 C 168 1255 198 1373 260 1445 C 321 1516 413 1552 537 1552 L 641 1552 Z" unicode="ſ" />
<glyph horiz-adv-x="1153" d="M 479 897 L 276 897 L 313 1116 L 516 1116 L 532 1208 C 550 1312 570 1385 592 1429 C 613 1473 647 1505 695 1527 C 742 1549 802 1560 876 1560 C 960 1560 1049 1545 1145 1517 L 1089 1284 C 1029 1303 977 1313 932 1313 C 894 1313 867 1304 851 1286 C 835 1268 821 1231 809 1173 L 796 1116 L 1005 1116 L 968 897 L 764 897 L 592 -114 C 570 -238 534 -322 483 -365 C 432 -408 358 -430 262 -430 C 158 -430 65 -415 -18 -387 L 39 -159 C 117 -174 173 -182 207 -182 C 246 -182 273 -171 288 -150 C 303 -128 317 -80 329 -6 L 479 897 Z" unicode="ƒ" />
<glyph horiz-adv-x="1419" d="M 31 0 L 548 1530 L 861 1530 L 1389 0 L 1060 0 L 943 358 L 453 358 L 337 0 L 31 0 Z M 871 581 L 697 1116 L 523 581 L 871 581 Z M 912 1843 C 912 1785 891 1735 851 1695 C 811 1654 761 1633 703 1633 C 645 1633 595 1653 554 1694 C 513 1734 493 1783 493 1841 C 493 1899 514 1949 557 1990 C 600 2031 649 2052 703 2052 C 761 2052 811 2031 852 1991 C 892 1950 912 1901 912 1843 Z M 577 1841 C 577 1805 589 1775 613 1751 C 637 1727 667 1714 703 1714 C 738 1714 768 1726 794 1751 C 819 1775 831 1805 831 1841 C 831 1876 818 1906 793 1932 C 767 1957 738 1969 705 1969 C 668 1969 637 1957 613 1931 C 589 1905 577 1875 577 1841 Z M 523 2124 L 713 2460 L 1041 2460 L 709 2124 L 523 2124 Z" unicode="Ǻ" />
<glyph horiz-adv-x="1153" d="M 732 113 C 631 26 524 -17 412 -17 C 317 -17 237 11 172 69 C 106 126 74 197 74 283 C 74 390 123 483 223 563 C 323 643 489 694 722 718 L 722 750 C 722 802 705 844 673 875 C 640 905 595 920 537 920 C 441 920 357 871 285 775 L 105 912 C 216 1043 365 1109 552 1109 C 688 1109 796 1075 876 1009 C 956 942 996 850 996 734 L 996 224 C 996 149 1008 75 1033 1 L 759 1 C 746 42 737 79 732 113 Z M 722 290 L 722 562 C 472 514 347 429 347 306 C 347 264 359 230 383 205 C 407 179 438 167 478 167 C 547 167 628 208 722 290 Z M 743 1430 C 743 1372 722 1322 682 1282 C 642 1241 592 1220 534 1220 C 476 1220 426 1240 385 1281 C 344 1321 324 1370 324 1428 C 324 1486 345 1536 388 1577 C 431 1618 480 1639 534 1639 C 592 1639 642 1618 683 1578 C 723 1537 743 1488 743 1430 Z M 408 1428 C 408 1392 420 1362 444 1338 C 468 1314 498 1301 534 1301 C 569 1301 599 1313 625 1338 C 650 1362 662 1392 662 1428 C 662 1463 649 1493 624 1519 C 598 1544 569 1556 536 1556 C 499 1556 468 1544 444 1518 C 420 1492 408 1462 408 1428 Z M 354 1714 L 544 2050 L 872 2050 L 540 1714 L 354 1714 Z" unicode="ǻ" />
<glyph horiz-adv-x="1900" d="M 30 0 L 616 1530 L 1825 1530 L 1825 1267 L 1190 1267 L 1190 934 L 1569 934 L 1569 682 L 1190 682 L 1190 266 L 1825 266 L 1825 0 L 882 0 L 882 356 L 467 356 L 327 0 L 30 0 Z M 882 1267 L 815 1267 L 553 581 L 882 581 L 882 1267 Z M 842 1640 L 1032 1976 L 1360 1976 L 1028 1640 L 842 1640 Z" unicode="Ǽ" />
<glyph horiz-adv-x="1853" d="M 1761 495 L 1022 495 C 1034 301 1117 205 1272 205 C 1375 205 1453 256 1505 358 L 1739 258 C 1629 74 1476 -18 1280 -18 C 1133 -18 1000 44 880 168 C 706 44 554 -18 424 -18 C 323 -18 239 9 173 67 C 106 125 73 198 73 286 C 73 393 124 485 224 562 C 324 639 498 686 745 704 C 747 848 682 921 551 921 C 449 921 359 872 282 774 L 104 911 C 222 1042 376 1108 565 1108 C 705 1108 823 1053 917 944 C 1011 1053 1130 1108 1272 1108 C 1409 1108 1525 1064 1619 976 C 1713 888 1761 728 1761 495 Z M 1026 665 L 1505 665 C 1498 746 1474 809 1432 855 C 1390 900 1336 923 1270 923 C 1202 923 1145 900 1101 854 C 1057 808 1032 745 1026 665 Z M 745 270 L 745 545 C 481 499 350 415 350 293 C 350 251 362 217 388 191 C 414 165 447 151 487 151 C 561 151 647 190 745 270 Z M 757 1227 L 947 1563 L 1275 1563 L 943 1227 L 757 1227 Z" unicode="ǽ" />
<glyph horiz-adv-x="1550" d="M 92 57 L 240 234 C 147 369 101 546 101 764 C 101 1010 160 1204 277 1346 C 394 1488 550 1560 744 1560 C 942 1560 1100 1507 1218 1401 L 1352 1561 L 1458 1466 L 1312 1292 C 1402 1157 1447 978 1447 755 C 1447 507 1388 315 1271 178 C 1153 40 989 -28 779 -28 C 597 -28 448 23 333 127 L 202 -28 L 92 57 Z M 451 486 L 1029 1176 C 967 1257 880 1298 769 1298 C 654 1298 566 1252 504 1160 C 442 1068 412 936 412 764 C 412 655 425 562 451 486 Z M 1098 1037 L 522 352 C 584 275 669 237 777 237 C 890 237 978 283 1040 373 C 1102 463 1133 593 1133 762 C 1133 868 1121 960 1098 1037 Z M 604 1640 L 794 1976 L 1122 1976 L 790 1640 L 604 1640 Z" unicode="Ǿ" />
<glyph horiz-adv-x="1173" d="M 910 996 L 1014 1111 L 1113 1016 L 999 890 C 1054 798 1082 685 1082 551 C 1082 377 1036 239 945 136 C 854 33 736 -18 590 -18 C 466 -18 361 18 275 92 L 165 -28 L 61 57 L 186 195 C 124 291 93 409 93 549 C 93 719 136 855 222 957 C 308 1059 421 1110 562 1110 C 705 1110 821 1072 910 996 Z M 379 409 L 750 820 C 710 879 656 909 588 909 C 442 909 369 785 369 538 C 369 490 372 447 379 409 Z M 432 265 C 469 209 520 182 586 182 C 734 182 809 311 809 569 C 809 606 806 641 802 673 L 432 265 Z M 415 1227 L 605 1563 L 933 1563 L 601 1227 L 415 1227 Z" unicode="ǿ" />
<glyph horiz-adv-x="682" d="M -26 1225 L 264 1543 L 420 1543 L 700 1225 L 522 1225 L 340 1364 L 159 1225 L -26 1225 Z" unicode="ˆ" />
<glyph horiz-adv-x="682" d="M 268 1231 L 18 1551 L 178 1551 L 352 1418 L 528 1551 L 702 1551 L 434 1231 L 268 1231 Z" unicode="ˇ" />
<glyph horiz-adv-x="682" d="M 663 1311 L 18 1311 L 18 1497 L 663 1497 L 663 1311 Z" unicode="ˉ" />
<glyph horiz-adv-x="682" d="M 550 1577 L 691 1577 C 661 1357 544 1248 341 1248 C 241 1248 161 1277 101 1335 C 40 1393 4 1474 -7 1577 L 134 1577 C 170 1475 239 1424 341 1424 C 443 1424 512 1475 550 1577 Z" unicode="˘" />
<glyph horiz-adv-x="682" d="M 469 1319 L 192 1319 L 192 1590 L 469 1590 L 469 1319 Z" unicode="˙" />
<glyph horiz-adv-x="682" d="M 551 1430 C 551 1372 530 1322 490 1282 C 450 1241 400 1220 342 1220 C 284 1220 234 1240 193 1281 C 152 1321 132 1370 132 1428 C 132 1486 153 1536 196 1577 C 239 1618 288 1639 342 1639 C 400 1639 450 1618 491 1578 C 531 1537 551 1488 551 1430 Z M 216 1428 C 216 1392 228 1362 252 1338 C 276 1314 306 1301 342 1301 C 377 1301 407 1313 433 1338 C 458 1362 470 1392 470 1428 C 470 1463 457 1493 432 1519 C 406 1544 377 1556 344 1556 C 307 1556 276 1544 252 1518 C 228 1492 216 1462 216 1428 Z" unicode="˚" />
<glyph horiz-adv-x="682" d="M 182 14 L 182 26 L 334 26 C 320 -10 313 -57 313 -114 C 313 -222 360 -276 456 -276 C 497 -276 542 -268 592 -252 L 592 -389 C 524 -416 459 -430 395 -430 C 320 -430 260 -408 215 -366 C 169 -324 147 -268 147 -198 C 147 -152 153 -105 165 -57 L 182 14 Z" unicode="˛" />
<glyph horiz-adv-x="682" d="M 135 1239 L -20 1239 C -3 1422 69 1514 198 1514 C 250 1514 306 1496 366 1460 C 426 1423 465 1405 483 1405 C 516 1405 539 1440 551 1510 L 700 1510 C 688 1328 617 1237 489 1237 C 452 1237 409 1249 361 1275 C 267 1323 216 1348 209 1348 C 191 1348 174 1337 158 1317 C 142 1296 135 1270 135 1239 Z" unicode="˜" />
<glyph horiz-adv-x="682" d="M 385 1227 L 606 1563 L 872 1563 L 571 1227 L 385 1227 Z M 12 1227 L 233 1563 L 499 1563 L 198 1227 L 12 1227 Z" unicode="˝" />
<glyph horiz-adv-x="747" d="M 219 762 L 219 1089 L 518 1089 L 518 762 L 219 762 Z M 219 0 L 219 329 L 518 329 L 518 0 L 325 -327 L 219 -327 L 383 0 L 219 0 Z" unicode=";" />
<glyph horiz-adv-x="682" d="M 338 1293 L 170 1293 L 379 1530 L 688 1530 L 338 1293 Z" unicode="΄" />
<glyph horiz-adv-x="682" d="M 359 1272 L 234 1272 L 264 1549 L 492 1549 L 359 1272 Z M 190 1272 L -7 1272 L -7 1468 L 190 1468 L 190 1272 Z M 691 1272 L 494 1272 L 494 1468 L 691 1468 L 691 1272 Z" unicode="΅" />
<glyph horiz-adv-x="1419" d="M 30 0 L 547 1530 L 860 1530 L 1388 0 L 1059 0 L 942 358 L 452 358 L 336 0 L 30 0 Z M 870 581 L 696 1116 L 522 581 L 870 581 Z M 135 1293 L -33 1293 L 176 1530 L 485 1530 L 135 1293 Z" unicode="Ά" />
<glyph horiz-adv-x="747" d="M 524 762 L 223 762 L 223 1090 L 524 1090 L 524 762 Z" unicode="·" />
<glyph horiz-adv-x="1290" d="M 188 0 L 188 1530 L 1214 1530 L 1214 1263 L 489 1263 L 489 927 L 932 927 L 932 680 L 489 680 L 489 264 L 1214 264 L 1214 0 L 188 0 Z M -234 1293 L -402 1293 L -193 1530 L 116 1530 L -234 1293 Z" unicode="Έ" />
<glyph horiz-adv-x="1554" d="M 188 0 L 188 1530 L 487 1530 L 487 925 L 1063 925 L 1063 1530 L 1366 1530 L 1366 0 L 1063 0 L 1063 661 L 487 661 L 487 0 L 188 0 Z M -234 1293 L -402 1293 L -193 1530 L 116 1530 L -234 1293 Z" unicode="Ή" />
<glyph horiz-adv-x="678" d="M 188 0 L 188 1530 L 489 1530 L 489 0 L 188 0 Z M -234 1293 L -402 1293 L -193 1530 L 116 1530 L -234 1293 Z" unicode="Ί" />
<glyph horiz-adv-x="1550" d="M 1448 755 C 1448 507 1389 315 1272 178 C 1154 40 990 -28 780 -28 C 568 -28 402 41 282 180 C 162 318 102 513 102 764 C 102 1010 160 1204 278 1346 C 395 1488 551 1560 745 1560 C 971 1560 1145 1491 1266 1353 C 1387 1215 1448 1016 1448 755 Z M 413 764 C 413 593 445 463 508 373 C 570 283 660 237 778 237 C 891 237 979 282 1041 373 C 1103 463 1134 593 1134 762 C 1134 1119 1012 1298 770 1298 C 655 1298 567 1252 505 1160 C 443 1068 413 936 413 764 Z M -19 1293 L -187 1293 L 22 1530 L 331 1530 L -19 1293 Z" unicode="Ό" />
<glyph horiz-adv-x="1229" d="M 463 682 L 8 1530 L 342 1530 L 616 979 L 887 1530 L 1220 1530 L 766 682 L 766 0 L 463 0 L 463 682 Z M -414 1293 L -582 1293 L -373 1530 L -64 1530 L -414 1293 Z" unicode="Ύ" />
<glyph horiz-adv-x="1557" d="M 1230 224 L 1512 224 L 1512 0 L 899 0 L 899 224 C 974 270 1026 319 1056 372 C 1085 425 1106 488 1119 560 C 1132 632 1139 698 1139 760 C 1139 923 1105 1053 1037 1151 C 969 1248 883 1297 779 1297 C 673 1297 586 1248 519 1151 C 451 1053 418 923 418 760 C 418 667 428 582 448 505 C 468 428 494 371 524 335 C 554 298 599 261 658 224 L 658 0 L 45 0 L 45 224 L 327 224 C 177 352 103 538 103 784 C 103 1030 169 1221 301 1357 C 433 1492 592 1560 779 1560 C 965 1560 1125 1492 1257 1356 C 1389 1220 1455 1031 1455 788 C 1455 540 1380 352 1230 224 Z M -32 1293 L -200 1293 L 9 1530 L 318 1530 L -32 1293 Z" unicode="Ώ" />
<glyph horiz-adv-x="610" d="M 168 0 L 168 1089 L 442 1089 L 442 0 L 168 0 Z M 323 1272 L 198 1272 L 228 1549 L 456 1549 L 323 1272 Z M 154 1272 L -43 1272 L -43 1468 L 154 1468 L 154 1272 Z M 655 1272 L 458 1272 L 458 1468 L 655 1468 L 655 1272 Z" unicode="ΐ" />
<glyph horiz-adv-x="1419" d="M 31 0 L 548 1530 L 861 1530 L 1389 0 L 1060 0 L 943 358 L 453 358 L 337 0 L 31 0 Z M 871 581 L 697 1116 L 523 581 L 871 581 Z" unicode="Α" />
<glyph horiz-adv-x="1489" d="M 862 0 L 188 0 L 188 1530 L 839 1530 C 1015 1530 1144 1496 1226 1428 C 1307 1360 1347 1272 1347 1165 C 1347 997 1251 879 1061 813 C 1277 748 1386 617 1386 420 C 1386 296 1339 195 1246 117 C 1152 39 1024 0 862 0 Z M 801 1298 L 487 1298 L 487 930 L 809 930 C 876 930 931 946 973 980 C 1015 1014 1036 1059 1036 1116 C 1036 1237 957 1298 801 1298 Z M 790 694 L 487 694 L 487 235 L 729 235 C 958 235 1073 313 1073 469 C 1073 537 1047 592 997 633 C 946 673 877 694 790 694 Z" unicode="Β" />
<glyph horiz-adv-x="1161" d="M 1120 1530 L 1120 1266 L 489 1266 L 489 0 L 188 0 L 188 1530 L 1120 1530 Z" unicode="Γ" />
<glyph horiz-adv-x="1419" d="M 1389 0 L 31 0 L 547 1530 L 860 1530 L 1389 0 Z M 987 223 L 699 1115 L 409 223 L 987 223 Z M 337 0 L 337 0 Z M 1059 0 L 1059 0 Z" unicode="Δ" />
<glyph horiz-adv-x="1290" d="M 188 0 L 188 1530 L 1214 1530 L 1214 1263 L 489 1263 L 489 927 L 932 927 L 932 680 L 489 680 L 489 264 L 1214 264 L 1214 0 L 188 0 Z" unicode="Ε" />
<glyph horiz-adv-x="1280" d="M 100 1267 L 100 1530 L 1186 1530 L 1186 1294 L 473 264 L 1204 264 L 1204 0 L 63 0 L 63 205 L 801 1267 L 100 1267 Z" unicode="Ζ" />
<glyph horiz-adv-x="1554" d="M 188 0 L 188 1530 L 487 1530 L 487 925 L 1063 925 L 1063 1530 L 1366 1530 L 1366 0 L 1063 0 L 1063 661 L 487 661 L 487 0 L 188 0 Z" unicode="Η" />
<glyph horiz-adv-x="1550" d="M 1449 773 C 1449 513 1390 314 1272 177 C 1154 40 989 -28 776 -28 C 567 -28 403 39 283 174 C 163 308 103 504 103 761 C 103 1024 165 1223 290 1358 C 415 1492 577 1560 776 1560 C 910 1560 1031 1526 1141 1458 C 1250 1390 1329 1295 1377 1171 C 1425 1047 1449 914 1449 773 Z M 1135 780 C 1135 872 1122 960 1096 1044 C 1070 1128 1028 1191 972 1233 C 916 1275 850 1297 776 1297 C 662 1297 574 1251 511 1161 C 447 1071 416 932 416 745 C 416 657 428 573 453 491 C 478 409 518 346 572 302 C 626 257 694 235 776 235 C 893 235 982 281 1043 373 C 1104 465 1135 600 1135 780 Z M 529 640 L 529 890 L 1023 890 L 1023 640 L 529 640 Z" unicode="Θ" />
<glyph horiz-adv-x="678" d="M 188 0 L 188 1530 L 489 1530 L 489 0 L 188 0 Z" unicode="Ι" />
<glyph horiz-adv-x="1448" d="M 188 0 L 188 1530 L 489 1530 L 489 854 L 1040 1530 L 1372 1530 L 893 940 L 1427 0 L 1114 0 L 719 723 L 489 456 L 489 0 L 188 0 Z" unicode="Κ" />
<glyph horiz-adv-x="1419" d="M 336 0 L 31 0 L 523 1530 L 885 1530 L 1389 0 L 1059 0 L 705 1115 L 690 1115 L 336 0 Z" unicode="Λ" />
<glyph horiz-adv-x="1843" d="M 188 0 L 188 1530 L 665 1530 L 921 581 L 1177 1530 L 1655 1530 L 1655 0 L 1368 0 L 1368 1362 L 999 0 L 839 0 L 473 1362 L 473 0 L 188 0 Z" unicode="Μ" />
<glyph horiz-adv-x="1622" d="M 188 0 L 188 1530 L 508 1530 L 1134 504 L 1134 1530 L 1433 1530 L 1433 0 L 1134 0 L 489 1067 L 489 0 L 188 0 Z" unicode="Ν" />
<glyph horiz-adv-x="1108" d="M 41 1266 L 41 1530 L 1067 1530 L 1067 1266 L 41 1266 Z M 182 640 L 182 890 L 926 890 L 926 640 L 182 640 Z M 1067 0 L 41 0 L 41 264 L 1067 264 L 1067 0 Z" unicode="Ξ" />
<glyph horiz-adv-x="1550" d="M 1449 755 C 1449 507 1390 315 1273 178 C 1155 40 991 -28 781 -28 C 569 -28 403 41 283 180 C 163 318 103 513 103 764 C 103 1010 161 1204 279 1346 C 396 1488 552 1560 746 1560 C 972 1560 1146 1491 1267 1353 C 1388 1215 1449 1016 1449 755 Z M 414 764 C 414 593 446 463 509 373 C 571 283 661 237 779 237 C 892 237 980 282 1042 373 C 1104 463 1135 593 1135 762 C 1135 1119 1013 1298 771 1298 C 656 1298 568 1252 506 1160 C 444 1068 414 936 414 764 Z" unicode="Ο" />
<glyph horiz-adv-x="1554" d="M 489 0 L 188 0 L 188 1530 L 1366 1530 L 1366 0 L 1065 0 L 1065 1266 L 489 1266 L 489 0 Z" unicode="Π" />
<glyph horiz-adv-x="1419" d="M 190 0 L 190 1530 L 676 1530 C 820 1530 937 1519 1027 1497 C 1116 1475 1191 1429 1253 1358 C 1314 1286 1345 1195 1345 1085 C 1345 935 1292 817 1188 730 C 1084 643 942 600 762 600 L 493 600 L 493 0 L 190 0 Z M 747 1265 L 493 1265 L 493 850 L 741 850 C 827 850 897 869 951 909 C 1005 949 1032 1002 1032 1069 C 1032 1199 937 1265 747 1265 Z" unicode="Ρ" />
<glyph horiz-adv-x="1143" d="M 1102 0 L 76 0 L 76 264 L 501 805 L 76 1266 L 76 1530 L 1102 1530 L 1102 1266 L 413 1266 L 844 805 L 413 264 L 1102 264 L 1102 0 Z" unicode="Σ" />
<glyph horiz-adv-x="1241" d="M 41 1267 L 41 1530 L 1200 1530 L 1200 1267 L 770 1267 L 770 0 L 469 0 L 469 1267 L 41 1267 Z" unicode="Τ" />
<glyph horiz-adv-x="1229" d="M 463 682 L 8 1530 L 342 1530 L 616 979 L 887 1530 L 1220 1530 L 766 682 L 766 0 L 463 0 L 463 682 Z" unicode="Υ" />
<glyph horiz-adv-x="1666" d="M 683 135 C 501 163 358 231 256 339 C 154 447 103 589 103 763 C 103 937 154 1079 257 1187 C 359 1295 501 1363 683 1391 L 683 1554 L 984 1554 L 984 1391 C 1165 1363 1307 1295 1410 1187 C 1512 1079 1564 937 1564 763 C 1564 588 1512 447 1410 339 C 1307 231 1165 163 984 135 L 984 -28 L 683 -28 L 683 135 Z M 984 392 C 1160 443 1249 567 1249 763 C 1249 959 1160 1083 984 1135 L 984 392 Z M 683 392 L 683 1135 C 506 1083 418 959 418 763 C 418 567 506 443 683 392 Z" unicode="Φ" />
<glyph horiz-adv-x="1300" d="M 949 0 L 650 535 L 348 0 L 12 0 L 492 800 L 52 1530 L 390 1530 L 651 1063 L 909 1530 L 1247 1530 L 809 800 L 1287 0 L 949 0 Z" unicode="Χ" />
<glyph horiz-adv-x="1730" d="M 1016 379 L 1016 0 L 715 0 L 715 379 C 627 388 554 400 496 416 C 438 431 381 464 324 514 C 267 564 227 629 204 709 C 180 789 169 868 169 946 L 169 1530 L 470 1530 L 470 997 C 470 793 551 680 715 658 L 715 1530 L 1016 1530 L 1016 658 C 1178 685 1260 798 1260 997 L 1260 1530 L 1561 1530 L 1561 952 C 1561 855 1547 771 1520 700 C 1492 628 1454 568 1405 520 C 1355 472 1304 439 1252 422 C 1199 405 1120 391 1016 379 Z" unicode="Ψ" />
<glyph horiz-adv-x="1573" d="M 1530 0 L 888 0 L 888 243 C 1092 341 1194 522 1194 784 C 1194 936 1158 1058 1087 1148 C 1016 1238 916 1284 787 1284 C 663 1284 565 1237 494 1145 C 423 1052 388 933 388 789 C 388 522 492 340 700 243 L 700 0 L 55 0 L 55 230 L 153 230 L 462 206 C 205 314 77 515 77 811 C 77 1020 141 1188 269 1314 C 397 1440 566 1503 777 1503 C 1019 1503 1202 1436 1325 1302 C 1448 1168 1510 1005 1510 813 C 1510 521 1382 320 1128 208 L 1458 231 L 1530 231 L 1530 0 Z" unicode="Ω" />
<glyph horiz-adv-x="678" d="M 187 0 L 187 1530 L 488 1530 L 488 0 L 187 0 Z M 8 1685 L 8 1900 L 227 1900 L 227 1685 L 8 1685 Z M 450 1685 L 450 1900 L 667 1900 L 667 1685 L 450 1685 Z" unicode="Ϊ" />
<glyph horiz-adv-x="1229" d="M 463 682 L 8 1530 L 342 1530 L 616 979 L 887 1530 L 1220 1530 L 766 682 L 766 0 L 463 0 L 463 682 Z M 290 1685 L 290 1900 L 509 1900 L 509 1685 L 290 1685 Z M 732 1685 L 732 1900 L 949 1900 L 949 1685 L 732 1685 Z" unicode="Ϋ" />
<glyph horiz-adv-x="1262" d="M 869 911 L 923 1090 L 1213 1090 L 1041 555 L 1220 0 L 932 0 L 879 199 C 799 54 684 -18 536 -18 C 418 -18 315 31 226 130 C 137 229 93 369 93 549 C 93 723 133 860 215 960 C 297 1060 401 1110 528 1110 C 675 1110 789 1043 869 911 Z M 788 576 C 745 798 669 910 560 910 C 430 910 366 786 366 539 C 366 431 382 345 415 280 C 448 214 493 182 549 182 C 596 182 640 205 680 252 C 720 299 756 407 788 576 Z M 628 1293 L 460 1293 L 669 1530 L 978 1530 L 628 1293 Z" unicode="ά" />
<glyph horiz-adv-x="996" d="M 947 831 L 713 768 C 665 862 602 910 522 910 C 475 910 436 896 405 869 C 373 841 358 807 358 766 C 358 716 375 682 409 663 C 443 644 501 634 583 633 L 583 449 C 441 449 371 407 371 323 C 371 286 385 253 413 225 C 441 196 480 182 529 182 C 589 182 635 200 667 237 C 698 274 724 328 744 399 L 961 293 C 910 177 852 96 787 50 C 722 4 629 -18 508 -18 C 375 -18 273 11 201 70 C 129 129 93 202 93 288 C 93 408 163 493 303 541 C 178 584 116 667 116 790 C 116 888 158 965 242 1023 C 326 1081 421 1110 529 1110 C 717 1110 856 1017 947 831 Z M 495 1293 L 327 1293 L 536 1530 L 845 1530 L 495 1293 Z" unicode="έ" />
<glyph horiz-adv-x="1231" d="M 445 1090 L 445 940 C 561 1053 686 1110 821 1110 C 903 1110 965 1087 1008 1043 C 1051 998 1073 923 1073 817 L 1073 -438 L 797 -438 L 797 741 C 797 801 787 840 769 858 C 751 876 727 885 698 885 C 627 885 543 838 445 745 L 445 0 L 168 0 L 168 1090 L 445 1090 Z M 612 1293 L 444 1293 L 653 1530 L 962 1530 L 612 1293 Z" unicode="ή" />
<glyph horiz-adv-x="610" d="M 169 0 L 169 1089 L 443 1089 L 443 0 L 169 0 Z M 302 1293 L 134 1293 L 343 1530 L 652 1530 L 302 1293 Z" unicode="ί" />
<glyph horiz-adv-x="1208" d="M 780 1090 L 1056 1090 L 1056 560 C 1056 396 1040 279 1010 209 C 980 139 931 83 864 43 C 797 2 712 -18 608 -18 C 499 -18 411 2 344 42 C 276 82 227 137 197 207 C 166 277 151 395 151 560 L 151 1090 L 428 1090 L 428 539 C 428 411 442 320 470 265 C 498 209 543 182 604 182 C 658 182 700 206 732 256 C 764 305 780 399 780 539 L 780 1090 Z M 621 1272 L 496 1272 L 526 1549 L 754 1549 L 621 1272 Z M 452 1272 L 255 1272 L 255 1468 L 452 1468 L 452 1272 Z M 953 1272 L 756 1272 L 756 1468 L 953 1468 L 953 1272 Z" unicode="ΰ" />
<glyph horiz-adv-x="1262" d="M 869 911 L 923 1090 L 1213 1090 L 1041 555 L 1220 0 L 932 0 L 879 199 C 799 54 684 -18 536 -18 C 418 -18 315 31 226 130 C 137 229 93 369 93 549 C 93 723 133 860 215 960 C 297 1060 401 1110 528 1110 C 675 1110 789 1043 869 911 Z M 788 576 C 745 798 669 910 560 910 C 430 910 366 786 366 539 C 366 431 382 345 415 280 C 448 214 493 182 549 182 C 596 182 640 205 680 252 C 720 299 756 407 788 576 Z" unicode="α" />
<glyph horiz-adv-x="1252" d="M 447 44 L 447 -438 L 170 -438 L 170 1018 C 170 1198 208 1332 284 1420 C 360 1508 480 1552 643 1552 C 784 1552 895 1517 975 1449 C 1055 1381 1096 1296 1096 1196 C 1096 1054 1014 947 852 877 C 970 818 1050 752 1094 680 C 1137 608 1159 524 1159 428 C 1159 305 1123 198 1053 107 C 983 16 878 -29 740 -29 C 638 -29 541 -4 447 44 Z M 447 264 C 538 214 616 190 681 190 C 816 190 884 280 884 461 C 884 557 862 635 820 693 C 778 751 705 780 601 780 L 601 971 C 678 971 734 987 770 1020 C 805 1052 823 1103 823 1171 C 823 1297 765 1360 651 1360 C 515 1360 447 1260 447 1061 L 447 264 Z" unicode="β" />
<glyph horiz-adv-x="1026" d="M 374 0 L 41 1090 L 318 1090 L 513 424 L 709 1090 L 985 1090 L 650 0 L 650 -438 L 374 -438 L 374 0 Z" unicode="γ" />
<glyph horiz-adv-x="1173" d="M 433 1354 L 789 1085 C 857 1033 910 985 948 943 C 986 901 1018 846 1043 778 C 1067 710 1080 635 1080 551 C 1080 377 1034 239 942 136 C 850 33 733 -18 589 -18 C 443 -18 323 33 231 135 C 139 237 93 375 93 549 C 93 681 123 797 184 895 C 245 993 332 1056 444 1084 L 131 1331 L 131 1552 L 959 1552 L 959 1354 L 433 1354 Z M 808 557 C 808 664 788 748 748 808 C 708 868 655 898 587 898 C 439 898 365 774 365 526 C 365 422 383 339 421 276 C 459 213 513 182 585 182 C 658 182 713 216 751 284 C 789 352 808 443 808 557 Z" unicode="δ" />
<glyph horiz-adv-x="996" d="M 947 831 L 713 768 C 665 862 602 910 522 910 C 475 910 436 896 405 869 C 373 841 358 807 358 766 C 358 716 375 682 409 663 C 443 644 501 634 583 633 L 583 449 C 441 449 371 407 371 323 C 371 286 385 253 413 225 C 441 196 480 182 529 182 C 589 182 635 200 667 237 C 698 274 724 328 744 399 L 961 293 C 910 177 852 96 787 50 C 722 4 629 -18 508 -18 C 375 -18 273 11 201 70 C 129 129 93 202 93 288 C 93 408 163 493 303 541 C 178 584 116 667 116 790 C 116 888 158 965 242 1023 C 326 1081 421 1110 529 1110 C 717 1110 856 1017 947 831 Z" unicode="ε" />
<glyph horiz-adv-x="1021" d="M 250 1552 L 1020 1552 L 1020 1408 C 788 1194 620 1009 518 852 C 415 694 364 542 364 396 C 364 348 371 312 386 286 C 401 260 420 242 444 232 C 468 222 513 211 580 199 C 745 168 852 132 900 92 C 948 51 973 -4 973 -76 C 973 -134 953 -192 915 -251 C 876 -310 790 -372 658 -438 L 552 -236 C 622 -203 667 -177 688 -157 C 709 -137 720 -117 720 -97 C 720 -69 708 -50 684 -40 C 660 -30 599 -20 501 -10 C 407 0 334 18 280 46 C 226 74 181 122 146 190 C 110 258 93 334 93 420 C 93 737 302 1048 722 1354 L 250 1354 L 250 1552 Z" unicode="ζ" />
<glyph horiz-adv-x="1231" d="M 445 1090 L 445 940 C 561 1053 686 1110 821 1110 C 903 1110 965 1087 1008 1043 C 1051 998 1073 923 1073 817 L 1073 -438 L 797 -438 L 797 741 C 797 801 787 840 769 858 C 751 876 727 885 698 885 C 627 885 543 838 445 745 L 445 0 L 168 0 L 168 1090 L 445 1090 Z" unicode="η" />
<glyph horiz-adv-x="1204" d="M 1096 763 C 1096 525 1055 335 975 194 C 895 52 772 -18 607 -18 C 493 -18 400 12 328 73 C 256 134 201 221 164 334 C 127 447 109 585 109 748 C 109 1005 150 1203 232 1343 C 314 1482 433 1552 590 1552 C 927 1552 1096 1289 1096 763 Z M 825 866 C 814 1054 790 1182 754 1250 C 718 1318 668 1352 604 1352 C 472 1352 398 1190 381 866 L 825 866 Z M 825 668 L 380 668 C 389 480 412 352 449 284 C 485 216 537 182 603 182 C 735 182 809 344 825 668 Z" unicode="θ" />
<glyph horiz-adv-x="610" d="M 168 0 L 168 1089 L 442 1089 L 442 0 L 168 0 Z" unicode="ι" />
<glyph horiz-adv-x="1147" d="M 445 0 L 168 0 L 168 1090 L 445 1090 L 445 639 L 805 1090 L 1090 1090 L 743 649 L 1147 0 L 846 0 L 596 459 L 445 293 L 445 0 Z" unicode="κ" />
<glyph horiz-adv-x="1026" d="M 374 1090 L 255 1528 L 532 1528 L 985 0 L 709 0 L 513 665 L 318 0 L 41 0 L 374 1090 Z" unicode="λ" />
<glyph horiz-adv-x="1245" d="M 445 60 L 445 -438 L 168 -438 L 168 1090 L 445 1090 L 445 417 C 445 331 459 279 488 259 C 517 239 550 229 586 229 C 653 229 725 271 801 356 L 801 1090 L 1077 1090 L 1077 0 L 801 0 L 801 140 C 740 34 670 -18 591 -18 C 540 -18 491 8 445 60 Z" unicode="μ" />
<glyph horiz-adv-x="1026" d="M 352 0 L 41 1089 L 319 1089 L 512 366 L 706 1089 L 985 1089 L 671 0 L 352 0 Z" unicode="ν" />
<glyph horiz-adv-x="970" d="M 571 -438 L 462 -237 C 591 -169 665 -126 685 -106 C 704 -86 714 -67 714 -47 C 714 -1 677 27 605 39 C 476 59 382 82 323 106 C 264 130 211 177 164 246 C 116 315 93 393 93 481 C 93 677 199 822 411 918 C 237 969 150 1067 150 1212 C 150 1307 193 1389 279 1457 C 365 1525 486 1560 642 1560 L 867 1560 L 867 1361 L 674 1361 C 553 1361 477 1344 447 1311 C 417 1278 402 1242 402 1203 C 402 1162 417 1128 447 1100 C 477 1072 557 1059 685 1059 L 855 1059 L 855 861 L 779 861 C 665 861 568 826 489 757 C 409 687 370 602 370 500 C 370 437 385 389 415 356 C 445 322 502 297 586 281 C 736 252 837 212 890 160 C 943 108 970 44 970 -33 C 970 -93 948 -153 904 -215 C 860 -277 749 -351 571 -438 Z" unicode="ξ" />
<glyph horiz-adv-x="1173" d="M 1082 551 C 1082 377 1036 239 945 136 C 854 33 736 -18 591 -18 C 443 -18 323 33 231 135 C 139 237 93 375 93 549 C 93 719 136 855 222 957 C 308 1059 421 1110 562 1110 C 726 1110 854 1060 946 962 C 1037 863 1082 726 1082 551 Z M 369 538 C 369 300 441 182 586 182 C 735 182 810 311 810 569 C 810 677 790 760 750 820 C 710 879 657 909 589 909 C 442 909 369 785 369 538 Z" unicode="ο" />
<glyph horiz-adv-x="1342" d="M 1299 1090 L 1299 891 L 1123 891 L 1123 0 L 847 0 L 847 891 L 495 891 L 495 0 L 218 0 L 218 891 L 42 891 L 42 1090 L 1299 1090 Z" unicode="π" />
<glyph horiz-adv-x="1232" d="M 428 79 L 428 -438 L 151 -438 L 151 489 C 151 701 194 857 281 958 C 367 1059 484 1110 630 1110 C 784 1110 907 1061 1000 964 C 1092 867 1139 729 1139 551 C 1139 372 1091 232 997 132 C 902 31 795 -19 677 -19 C 594 -19 511 13 428 79 Z M 867 563 C 867 675 847 760 807 820 C 767 880 714 910 646 910 C 498 910 425 783 425 529 C 425 423 443 339 481 276 C 519 213 573 182 644 182 C 716 182 772 215 810 283 C 848 350 867 443 867 563 Z" unicode="ρ" />
<glyph horiz-adv-x="1067" d="M 622 -438 L 517 -229 C 598 -179 643 -148 651 -137 C 659 -125 663 -113 663 -101 C 663 -82 655 -67 639 -57 C 623 -47 581 -29 512 -5 C 402 34 323 69 276 100 C 229 131 187 185 149 261 C 111 337 93 426 93 526 C 93 686 139 824 232 938 C 324 1052 441 1110 581 1110 C 662 1110 740 1088 814 1045 C 888 1001 960 909 1031 767 L 825 675 C 758 831 679 910 587 910 C 518 910 464 874 424 802 C 384 730 365 645 365 545 C 365 481 376 424 399 372 C 421 320 489 275 602 235 C 720 193 803 152 849 112 C 895 71 919 12 919 -66 C 919 -125 902 -184 868 -244 C 834 -303 752 -368 622 -438 Z" unicode="ς" />
<glyph horiz-adv-x="1173" d="M 726 1090 L 1155 1090 L 1155 891 L 998 891 C 1052 800 1080 687 1080 551 C 1080 377 1034 239 942 136 C 850 33 733 -18 589 -18 C 443 -18 323 33 231 135 C 139 237 93 375 93 549 C 93 718 135 854 220 956 C 305 1058 421 1110 568 1110 C 623 1110 676 1103 726 1090 Z M 808 560 C 808 671 788 757 749 818 C 710 879 656 910 587 910 C 439 910 365 786 365 539 C 365 425 384 337 422 275 C 460 213 514 182 585 182 C 657 182 713 215 751 283 C 789 351 808 443 808 560 Z" unicode="σ" />
<glyph horiz-adv-x="713" d="M 671 1090 L 671 891 L 495 891 L 495 0 L 218 0 L 218 891 L 42 891 L 42 1090 L 671 1090 Z" unicode="τ" />
<glyph horiz-adv-x="1208" d="M 780 1090 L 1056 1090 L 1056 560 C 1056 396 1040 279 1010 209 C 980 139 931 83 864 43 C 797 2 712 -18 608 -18 C 499 -18 411 2 344 42 C 276 82 227 137 197 207 C 166 277 151 395 151 560 L 151 1090 L 428 1090 L 428 539 C 428 411 442 320 470 265 C 498 209 543 182 604 182 C 658 182 700 206 732 256 C 764 305 780 399 780 539 L 780 1090 Z" unicode="υ" />
<glyph horiz-adv-x="1370" d="M 548 -4 C 409 19 298 80 216 179 C 134 278 93 401 93 549 C 93 782 187 949 377 1050 L 475 837 C 401 782 365 685 365 545 C 365 369 425 257 547 211 L 547 963 C 547 1016 549 1049 553 1063 C 557 1077 572 1088 598 1097 C 624 1105 658 1110 700 1110 C 851 1110 985 1060 1101 960 C 1217 860 1276 723 1276 551 C 1276 401 1233 276 1148 176 C 1063 75 951 14 812 -6 L 812 -438 L 547 -438 L 548 -4 Z M 812 882 L 812 210 C 876 231 925 274 957 339 C 989 403 1005 474 1005 551 C 1005 729 940 840 812 882 Z" unicode="φ" />
<glyph horiz-adv-x="1120" d="M 708 356 L 1106 -438 L 805 -438 L 560 56 L 314 -438 L 9 -438 L 411 357 L 41 1090 L 348 1090 L 560 659 L 774 1090 L 1079 1090 L 708 356 Z" unicode="χ" />
<glyph horiz-adv-x="1570" d="M 924 -9 L 924 -438 L 647 -438 L 647 -9 C 485 13 363 62 281 136 C 199 210 158 351 158 560 L 158 1090 L 435 1090 L 435 539 C 435 327 505 212 647 195 L 647 1090 L 924 1090 L 924 195 C 1065 212 1136 327 1136 539 L 1136 1090 L 1413 1090 L 1413 560 C 1413 352 1371 211 1289 136 C 1206 61 1084 13 924 -9 Z" unicode="ψ" />
<glyph horiz-adv-x="1614" d="M 807 134 C 722 32 621 -18 503 -18 C 397 -18 302 25 218 113 C 134 201 93 341 93 535 C 93 613 102 689 120 764 C 138 839 184 948 258 1090 L 527 1090 C 452 924 406 801 390 722 C 373 643 365 576 365 521 C 365 439 378 364 405 298 C 432 232 470 199 519 199 C 620 199 671 298 671 498 L 671 838 L 943 838 L 943 498 C 943 381 957 302 987 261 C 1017 219 1051 199 1090 199 C 1138 199 1176 229 1205 291 C 1233 352 1248 427 1248 515 C 1248 575 1239 645 1223 723 C 1207 801 1161 924 1087 1090 L 1356 1090 C 1430 948 1476 839 1494 764 C 1512 689 1521 613 1521 535 C 1521 347 1479 207 1397 117 C 1315 27 1219 -18 1111 -18 C 993 -18 891 32 807 134 Z" unicode="ω" />
<glyph horiz-adv-x="610" d="M 168 0 L 168 1089 L 442 1089 L 442 0 L 168 0 Z M -25 1272 L -25 1487 L 194 1487 L 194 1272 L -25 1272 Z M 417 1272 L 417 1487 L 634 1487 L 634 1272 L 417 1272 Z" unicode="ϊ" />
<glyph horiz-adv-x="1208" d="M 780 1090 L 1056 1090 L 1056 560 C 1056 396 1040 279 1010 209 C 980 139 931 83 864 43 C 797 2 712 -18 608 -18 C 499 -18 411 2 344 42 C 276 82 227 137 197 207 C 166 277 151 395 151 560 L 151 1090 L 428 1090 L 428 539 C 428 411 442 320 470 265 C 498 209 543 182 604 182 C 658 182 700 206 732 256 C 764 305 780 399 780 539 L 780 1090 Z M 273 1272 L 273 1487 L 492 1487 L 492 1272 L 273 1272 Z M 715 1272 L 715 1487 L 932 1487 L 932 1272 L 715 1272 Z" unicode="ϋ" />
<glyph horiz-adv-x="1173" d="M 1081 551 C 1081 377 1035 239 944 136 C 853 33 735 -18 590 -18 C 442 -18 322 33 230 135 C 138 237 92 375 92 549 C 92 719 135 855 221 957 C 307 1059 420 1110 561 1110 C 725 1110 853 1060 945 962 C 1036 863 1081 726 1081 551 Z M 368 538 C 368 300 440 182 585 182 C 734 182 809 311 809 569 C 809 677 789 760 749 820 C 709 879 656 909 588 909 C 441 909 368 785 368 538 Z M 555 1293 L 387 1293 L 596 1530 L 905 1530 L 555 1293 Z" unicode="ό" />
<glyph horiz-adv-x="1208" d="M 780 1090 L 1056 1090 L 1056 560 C 1056 396 1040 279 1010 209 C 980 139 931 83 864 43 C 797 2 712 -18 608 -18 C 499 -18 411 2 344 42 C 276 82 227 137 197 207 C 166 277 151 395 151 560 L 151 1090 L 428 1090 L 428 539 C 428 411 442 320 470 265 C 498 209 543 182 604 182 C 658 182 700 206 732 256 C 764 305 780 399 780 539 L 780 1090 Z M 601 1293 L 433 1293 L 642 1530 L 951 1530 L 601 1293 Z" unicode="ύ" />
<glyph horiz-adv-x="1614" d="M 807 134 C 722 32 621 -18 503 -18 C 397 -18 302 25 218 113 C 134 201 93 341 93 535 C 93 613 102 689 120 764 C 138 839 184 948 258 1090 L 527 1090 C 452 924 406 801 390 722 C 373 643 365 576 365 521 C 365 439 378 364 405 298 C 432 232 470 199 519 199 C 620 199 671 298 671 498 L 671 838 L 943 838 L 943 498 C 943 381 957 302 987 261 C 1017 219 1051 199 1090 199 C 1138 199 1176 229 1205 291 C 1233 352 1248 427 1248 515 C 1248 575 1239 645 1223 723 C 1207 801 1161 924 1087 1090 L 1356 1090 C 1430 948 1476 839 1494 764 C 1512 689 1521 613 1521 535 C 1521 347 1479 207 1397 117 C 1315 27 1219 -18 1111 -18 C 993 -18 891 32 807 134 Z M 804 1293 L 636 1293 L 845 1530 L 1154 1530 L 804 1293 Z" unicode="ώ" />
<glyph horiz-adv-x="1290" d="M 188 0 L 188 1530 L 1214 1530 L 1214 1263 L 489 1263 L 489 927 L 932 927 L 932 680 L 489 680 L 489 264 L 1214 264 L 1214 0 L 188 0 Z M 382 1685 L 382 1900 L 601 1900 L 601 1685 L 382 1685 Z M 824 1685 L 824 1900 L 1041 1900 L 1041 1685 L 824 1685 Z" unicode="Ё" />
<glyph horiz-adv-x="1661" d="M 1541 831 L 1541 88 C 1541 -43 1512 -146 1454 -221 C 1396 -295 1304 -346 1177 -372 L 1068 -119 C 1137 -101 1183 -72 1206 -32 C 1228 7 1240 71 1240 159 L 1240 755 C 1240 833 1191 873 1095 873 C 1011 873 902 832 770 752 L 770 0 L 469 0 L 469 1266 L 41 1266 L 41 1530 L 1200 1530 L 1200 1266 L 770 1266 L 770 944 C 924 1054 1075 1110 1223 1110 C 1325 1110 1404 1085 1459 1035 C 1513 985 1541 917 1541 831 Z" unicode="Ђ" />
<glyph horiz-adv-x="1161" d="M 1120 1530 L 1120 1266 L 489 1266 L 489 0 L 188 0 L 188 1530 L 1120 1530 Z M 497 1640 L 687 1976 L 1015 1976 L 683 1640 L 497 1640 Z" unicode="Ѓ" />
<glyph horiz-adv-x="1393" d="M 430 918 L 938 918 L 938 654 L 423 654 C 437 520 471 418 526 348 C 580 278 650 244 734 244 C 800 244 862 264 921 306 C 980 348 1027 418 1063 516 L 1342 438 C 1298 277 1225 159 1124 84 C 1023 9 903 -28 764 -28 C 617 -28 492 9 390 84 C 287 158 214 253 170 369 C 126 484 105 605 105 732 C 105 995 167 1199 293 1343 C 418 1487 575 1560 764 1560 C 892 1560 1010 1523 1116 1450 C 1222 1377 1293 1274 1328 1141 L 1047 1063 C 1003 1229 906 1313 758 1313 C 668 1313 595 1276 539 1204 C 483 1131 446 1036 430 918 Z" unicode="Є" />
<glyph horiz-adv-x="1298" d="M 76 324 L 344 429 C 396 349 446 294 496 264 C 545 234 602 220 667 220 C 742 220 803 239 850 277 C 897 315 921 363 921 421 C 921 463 910 497 886 523 C 862 549 823 574 769 599 C 714 624 643 648 557 672 C 269 751 125 899 125 1115 C 125 1249 172 1357 267 1439 C 362 1521 486 1561 639 1561 C 871 1561 1044 1464 1159 1271 L 905 1168 C 823 1284 730 1342 626 1342 C 561 1342 508 1324 466 1287 C 424 1249 403 1204 403 1150 C 403 1098 428 1056 478 1025 C 528 994 609 965 719 937 C 1039 854 1200 691 1200 447 C 1200 311 1149 198 1048 107 C 947 16 814 -29 649 -29 C 387 -29 196 88 76 324 Z" unicode="Ѕ" />
<glyph horiz-adv-x="678" d="M 188 0 L 188 1530 L 489 1530 L 489 0 L 188 0 Z" unicode="І" />
<glyph horiz-adv-x="678" d="M 188 0 L 188 1530 L 489 1530 L 489 0 L 188 0 Z M 9 1685 L 9 1900 L 228 1900 L 228 1685 L 9 1685 Z M 451 1685 L 451 1900 L 668 1900 L 668 1685 L 451 1685 Z" unicode="Ї" />
<glyph horiz-adv-x="1046" d="M 583 468 L 583 1531 L 882 1531 L 882 468 C 882 320 837 200 749 109 C 660 17 551 -27 422 -27 C 262 -27 116 55 -16 220 L 178 394 C 262 286 338 232 405 232 C 457 232 499 254 533 296 C 567 338 583 396 583 468 Z" unicode="Ј" />
<glyph horiz-adv-x="2112" d="M 1082 930 L 1413 930 C 1628 930 1786 886 1886 800 C 1986 714 2036 600 2036 460 C 2036 332 1990 223 1898 134 C 1806 44 1677 0 1512 0 L 1059 0 L 705 1115 L 690 1115 L 336 0 L 31 0 L 523 1530 L 885 1530 L 1082 930 Z M 1165 680 L 1302 264 L 1379 264 C 1608 264 1723 332 1723 469 C 1723 530 1698 580 1650 620 C 1602 660 1532 680 1440 680 L 1165 680 Z M 1389 0 L 1389 0 Z" unicode="Љ" />
<glyph horiz-adv-x="2294" d="M 1366 930 L 1594 930 C 1816 930 1976 885 2073 795 C 2169 705 2218 594 2218 460 C 2218 332 2172 223 2080 134 C 1988 44 1859 0 1693 0 L 1065 0 L 1065 680 L 489 680 L 489 0 L 188 0 L 188 1530 L 489 1530 L 489 930 L 1065 930 L 1065 1530 L 1366 1530 L 1366 930 Z M 1366 264 L 1560 264 C 1789 264 1904 332 1904 469 C 1904 530 1879 580 1831 620 C 1783 660 1713 680 1622 680 L 1366 680 L 1366 264 Z" unicode="Њ" />
<glyph horiz-adv-x="1661" d="M 770 944 C 924 1054 1075 1110 1223 1110 C 1325 1110 1404 1085 1459 1035 C 1513 985 1541 917 1541 831 L 1541 0 L 1240 0 L 1240 755 C 1240 833 1191 873 1095 873 C 1011 873 902 832 770 752 L 770 0 L 469 0 L 469 1266 L 41 1266 L 41 1530 L 1200 1530 L 1200 1266 L 770 1266 L 770 944 Z" unicode="Ћ" />
<glyph horiz-adv-x="1448" d="M 188 0 L 188 1530 L 489 1530 L 489 854 L 1040 1530 L 1372 1530 L 893 940 L 1427 0 L 1114 0 L 719 723 L 489 456 L 489 0 L 188 0 Z M 614 1640 L 804 1976 L 1132 1976 L 800 1640 L 614 1640 Z" unicode="Ќ" />
<glyph horiz-adv-x="1349" d="M 219 277 C 258 264 290 258 316 258 C 352 258 380 266 400 284 C 420 302 443 338 470 394 L 522 500 L 8 1530 L 337 1530 L 673 810 L 1023 1530 L 1341 1530 L 725 293 C 659 162 600 80 548 48 C 495 16 444 0 394 0 C 332 0 249 17 143 52 L 219 277 Z M 908 1990 L 1049 1990 C 1019 1770 902 1661 699 1661 C 599 1661 519 1690 459 1748 C 398 1806 362 1887 351 1990 L 492 1990 C 528 1888 597 1837 699 1837 C 801 1837 870 1888 908 1990 Z" unicode="Ў" />
<glyph horiz-adv-x="1554" d="M 888 0 L 874 -255 L 680 -255 L 666 0 L 188 0 L 188 1530 L 489 1530 L 489 264 L 1065 264 L 1065 1530 L 1366 1530 L 1366 0 L 888 0 Z" unicode="Џ" />
<glyph horiz-adv-x="1419" d="M 31 0 L 548 1530 L 861 1530 L 1389 0 L 1060 0 L 943 358 L 453 358 L 337 0 L 31 0 Z M 871 581 L 697 1116 L 523 581 L 871 581 Z" unicode="А" />
<glyph horiz-adv-x="1417" d="M 1138 1530 L 1138 1266 L 489 1266 L 489 930 L 717 930 C 933 930 1091 886 1191 800 C 1291 714 1341 600 1341 460 C 1341 332 1295 223 1203 134 C 1111 44 982 0 817 0 L 188 0 L 188 1530 L 1138 1530 Z M 489 264 L 684 264 C 913 264 1028 332 1028 469 C 1028 534 1002 585 951 623 C 899 661 831 680 745 680 L 489 680 L 489 264 Z" unicode="Б" />
<glyph horiz-adv-x="1489" d="M 862 0 L 188 0 L 188 1530 L 839 1530 C 1015 1530 1144 1496 1226 1428 C 1307 1360 1347 1272 1347 1165 C 1347 997 1251 879 1061 813 C 1277 748 1386 617 1386 420 C 1386 296 1339 195 1246 117 C 1152 39 1024 0 862 0 Z M 801 1298 L 487 1298 L 487 930 L 809 930 C 876 930 931 946 973 980 C 1015 1014 1036 1059 1036 1116 C 1036 1237 957 1298 801 1298 Z M 790 694 L 487 694 L 487 235 L 729 235 C 958 235 1073 313 1073 469 C 1073 537 1047 592 997 633 C 946 673 877 694 790 694 Z" unicode="В" />
<glyph horiz-adv-x="1161" d="M 1120 1530 L 1120 1266 L 489 1266 L 489 0 L 188 0 L 188 1530 L 1120 1530 Z" unicode="Г" />
<glyph horiz-adv-x="1440" d="M 1399 -255 L 1205 -255 L 1183 0 L 252 0 L 234 -255 L 41 -255 L 41 222 L 116 222 L 533 1530 L 895 1530 L 1321 224 L 1399 224 L 1399 -255 Z M 997 223 L 716 1115 L 701 1115 L 419 223 L 997 223 Z" unicode="Д" />
<glyph horiz-adv-x="1290" d="M 188 0 L 188 1530 L 1214 1530 L 1214 1263 L 489 1263 L 489 927 L 932 927 L 932 680 L 489 680 L 489 264 L 1214 264 L 1214 0 L 188 0 Z" unicode="Е" />
<glyph horiz-adv-x="2185" d="M 957 662 L 876 686 L 362 0 L 21 0 L 644 796 L 120 1530 L 436 1530 L 896 900 L 957 884 L 957 1530 L 1229 1530 L 1229 884 L 1290 900 L 1750 1530 L 2066 1530 L 1542 796 L 2165 0 L 1824 0 L 1310 686 L 1229 662 L 1229 0 L 957 0 L 957 662 Z" unicode="Ж" />
<glyph horiz-adv-x="1345" d="M 51 401 L 329 479 C 397 315 505 234 653 234 C 723 234 787 253 844 292 C 900 330 929 388 929 466 C 929 538 903 593 851 633 C 799 672 731 692 646 692 L 461 692 L 461 932 L 665 932 C 736 932 792 949 832 984 C 872 1018 892 1062 892 1116 C 892 1175 866 1220 814 1251 C 762 1281 705 1297 643 1297 C 506 1297 413 1229 365 1093 L 84 1170 C 116 1286 184 1380 288 1452 C 391 1524 515 1560 661 1560 C 823 1560 954 1523 1055 1449 C 1155 1375 1206 1280 1206 1165 C 1206 998 1109 881 917 813 C 1133 745 1242 614 1242 420 C 1242 286 1185 177 1073 95 C 961 12 818 -29 645 -29 C 328 -29 130 114 51 401 Z" unicode="З" />
<glyph horiz-adv-x="1624" d="M 1134 0 L 1134 1067 L 489 0 L 188 0 L 188 1530 L 489 1530 L 489 504 L 1116 1530 L 1435 1530 L 1435 0 L 1134 0 Z" unicode="И" />
<glyph horiz-adv-x="1624" d="M 1134 0 L 1134 1067 L 489 0 L 188 0 L 188 1530 L 489 1530 L 489 504 L 1116 1530 L 1435 1530 L 1435 0 L 1134 0 Z M 1020 1990 L 1161 1990 C 1131 1770 1014 1661 811 1661 C 711 1661 631 1690 571 1748 C 510 1806 474 1887 463 1990 L 604 1990 C 640 1888 709 1837 811 1837 C 913 1837 982 1888 1020 1990 Z" unicode="Й" />
<glyph horiz-adv-x="1448" d="M 188 0 L 188 1530 L 489 1530 L 489 854 L 1040 1530 L 1372 1530 L 893 940 L 1427 0 L 1114 0 L 719 723 L 489 456 L 489 0 L 188 0 Z" unicode="К" />
<glyph horiz-adv-x="1419" d="M 336 0 L 31 0 L 523 1530 L 885 1530 L 1389 0 L 1059 0 L 705 1115 L 690 1115 L 336 0 Z" unicode="Л" />
<glyph horiz-adv-x="1843" d="M 188 0 L 188 1530 L 665 1530 L 921 581 L 1177 1530 L 1655 1530 L 1655 0 L 1368 0 L 1368 1362 L 999 0 L 839 0 L 473 1362 L 473 0 L 188 0 Z" unicode="М" />
<glyph horiz-adv-x="1554" d="M 188 0 L 188 1530 L 487 1530 L 487 925 L 1063 925 L 1063 1530 L 1366 1530 L 1366 0 L 1063 0 L 1063 661 L 487 661 L 487 0 L 188 0 Z" unicode="Н" />
<glyph horiz-adv-x="1550" d="M 1449 755 C 1449 507 1390 315 1273 178 C 1155 40 991 -28 781 -28 C 569 -28 403 41 283 180 C 163 318 103 513 103 764 C 103 1010 161 1204 279 1346 C 396 1488 552 1560 746 1560 C 972 1560 1146 1491 1267 1353 C 1388 1215 1449 1016 1449 755 Z M 414 764 C 414 593 446 463 509 373 C 571 283 661 237 779 237 C 892 237 980 282 1042 373 C 1104 463 1135 593 1135 762 C 1135 1119 1013 1298 771 1298 C 656 1298 568 1252 506 1160 C 444 1068 414 936 414 764 Z" unicode="О" />
<glyph horiz-adv-x="1554" d="M 489 0 L 188 0 L 188 1530 L 1366 1530 L 1366 0 L 1065 0 L 1065 1266 L 489 1266 L 489 0 Z" unicode="П" />
<glyph horiz-adv-x="1419" d="M 190 0 L 190 1530 L 676 1530 C 820 1530 937 1519 1027 1497 C 1116 1475 1191 1429 1253 1358 C 1314 1286 1345 1195 1345 1085 C 1345 935 1292 817 1188 730 C 1084 643 942 600 762 600 L 493 600 L 493 0 L 190 0 Z M 747 1265 L 493 1265 L 493 850 L 741 850 C 827 850 897 869 951 909 C 1005 949 1032 1002 1032 1069 C 1032 1199 937 1265 747 1265 Z" unicode="Р" />
<glyph horiz-adv-x="1392" d="M 1066 517 L 1344 439 C 1305 288 1236 172 1136 92 C 1036 11 913 -29 767 -29 C 567 -29 407 39 286 177 C 165 315 105 502 105 740 C 105 993 166 1193 290 1340 C 413 1487 575 1561 775 1561 C 910 1561 1028 1523 1128 1448 C 1228 1373 1295 1271 1330 1141 L 1049 1064 C 1008 1230 912 1314 761 1314 C 655 1314 571 1263 511 1162 C 451 1061 421 925 421 754 C 421 597 449 473 506 381 C 563 289 638 244 732 244 C 893 244 1004 335 1066 517 Z" unicode="С" />
<glyph horiz-adv-x="1241" d="M 41 1267 L 41 1530 L 1200 1530 L 1200 1267 L 770 1267 L 770 0 L 469 0 L 469 1267 L 41 1267 Z" unicode="Т" />
<glyph horiz-adv-x="1349" d="M 219 277 C 258 264 290 258 316 258 C 352 258 380 266 400 284 C 420 302 443 338 470 394 L 522 500 L 8 1530 L 337 1530 L 673 810 L 1023 1530 L 1341 1530 L 725 293 C 659 162 600 80 548 48 C 495 16 444 0 394 0 C 332 0 249 17 143 52 L 219 277 Z" unicode="У" />
<glyph horiz-adv-x="1666" d="M 683 135 C 501 163 358 231 256 339 C 154 447 103 589 103 763 C 103 937 154 1079 257 1187 C 359 1295 501 1363 683 1391 L 683 1554 L 984 1554 L 984 1391 C 1165 1363 1307 1295 1410 1187 C 1512 1079 1564 937 1564 763 C 1564 588 1512 447 1410 339 C 1307 231 1165 163 984 135 L 984 -28 L 683 -28 L 683 135 Z M 984 392 C 1160 443 1249 567 1249 763 C 1249 959 1160 1083 984 1135 L 984 392 Z M 683 392 L 683 1135 C 506 1083 418 959 418 763 C 418 567 506 443 683 392 Z" unicode="Ф" />
<glyph horiz-adv-x="1300" d="M 949 0 L 650 535 L 348 0 L 12 0 L 492 800 L 52 1530 L 390 1530 L 651 1063 L 909 1530 L 1247 1530 L 809 800 L 1287 0 L 949 0 Z" unicode="Х" />
<glyph horiz-adv-x="1596" d="M 1555 -255 L 1361 -255 L 1339 0 L 188 0 L 188 1530 L 489 1530 L 489 264 L 1065 264 L 1065 1530 L 1366 1530 L 1366 264 L 1555 264 L 1555 -255 Z" unicode="Ц" />
<glyph horiz-adv-x="1381" d="M 892 585 C 737 475 586 420 438 420 C 336 420 257 444 203 494 C 148 543 121 611 121 698 L 121 1530 L 422 1530 L 422 775 C 422 696 470 657 566 657 C 650 657 759 697 892 778 L 892 1530 L 1193 1530 L 1193 0 L 892 0 L 892 585 Z" unicode="Ч" />
<glyph horiz-adv-x="2166" d="M 1233 264 L 1676 264 L 1676 1530 L 1977 1530 L 1977 0 L 188 0 L 188 1530 L 489 1530 L 489 264 L 932 264 L 932 1530 L 1233 1530 L 1233 264 Z" unicode="Ш" />
<glyph horiz-adv-x="2207" d="M 1950 0 L 188 0 L 188 1530 L 489 1530 L 489 264 L 932 264 L 932 1530 L 1233 1530 L 1233 264 L 1676 264 L 1676 1530 L 1977 1530 L 1977 264 L 2166 264 L 2166 -255 L 1972 -255 L 1950 0 Z" unicode="Щ" />
<glyph horiz-adv-x="1503" d="M 274 1266 L 0 1266 L 0 1530 L 575 1530 L 575 930 L 804 930 C 1026 930 1186 885 1282 795 C 1378 705 1427 594 1427 460 C 1427 332 1381 223 1289 134 C 1197 44 1068 0 903 0 L 274 0 L 274 1266 Z M 575 264 L 770 264 C 999 264 1114 332 1114 469 C 1114 534 1088 585 1037 623 C 985 661 917 680 831 680 L 575 680 L 575 264 Z" unicode="Ъ" />
<glyph horiz-adv-x="2033" d="M 188 0 L 188 1530 L 489 1530 L 489 930 L 717 930 C 933 930 1091 886 1191 800 C 1291 714 1341 600 1341 460 C 1341 332 1295 223 1203 134 C 1111 44 982 0 817 0 L 188 0 Z M 489 264 L 684 264 C 913 264 1028 332 1028 469 C 1028 534 1002 585 951 623 C 899 661 831 680 745 680 L 489 680 L 489 264 Z M 1844 0 L 1543 0 L 1543 1530 L 1844 1530 L 1844 0 Z" unicode="Ы" />
<glyph horiz-adv-x="1417" d="M 188 0 L 188 1530 L 489 1530 L 489 930 L 717 930 C 933 930 1091 886 1191 800 C 1291 714 1341 600 1341 460 C 1341 332 1295 223 1203 134 C 1111 44 982 0 817 0 L 188 0 Z M 489 264 L 684 264 C 913 264 1028 332 1028 469 C 1028 534 1002 585 951 623 C 899 661 831 680 745 680 L 489 680 L 489 264 Z" unicode="Ь" />
<glyph horiz-adv-x="1393" d="M 963 918 C 946 1036 909 1132 853 1204 C 797 1276 724 1313 635 1313 C 486 1313 390 1229 346 1063 L 65 1141 C 99 1274 170 1377 276 1450 C 382 1523 500 1560 629 1560 C 818 1560 975 1487 1100 1343 C 1225 1198 1288 997 1288 740 C 1288 502 1227 314 1106 177 C 985 40 826 -28 629 -28 C 489 -28 369 9 268 84 C 167 159 95 277 51 438 L 329 516 C 365 418 412 348 471 306 C 530 264 592 244 658 244 C 743 244 813 279 868 350 C 922 420 956 522 969 654 L 455 654 L 455 918 L 963 918 Z" unicode="Э" />
<glyph horiz-adv-x="2185" d="M 489 926 L 747 926 C 777 1151 854 1313 978 1412 C 1102 1510 1245 1560 1409 1560 C 1543 1560 1665 1526 1775 1458 C 1885 1390 1963 1293 2011 1169 C 2058 1044 2082 911 2082 770 C 2082 512 2023 315 1906 178 C 1788 40 1623 -28 1409 -28 C 1224 -28 1072 25 953 133 C 834 241 763 417 740 661 L 489 661 L 489 0 L 188 0 L 188 1530 L 489 1530 L 489 926 Z M 1769 780 C 1769 940 1737 1066 1675 1158 C 1613 1250 1524 1297 1409 1297 C 1295 1297 1207 1251 1144 1161 C 1080 1071 1049 932 1049 745 C 1049 657 1061 573 1086 491 C 1111 409 1151 346 1205 302 C 1259 257 1327 235 1409 235 C 1526 235 1615 281 1677 373 C 1738 465 1769 600 1769 780 Z" unicode="Ю" />
<glyph horiz-adv-x="1448" d="M 959 0 L 959 612 L 682 612 L 426 0 L 107 0 L 404 672 C 293 717 217 769 177 829 C 137 889 117 963 117 1051 C 117 1155 142 1246 194 1324 C 246 1402 317 1456 407 1486 C 497 1515 644 1530 846 1530 L 1260 1530 L 1260 0 L 959 0 Z M 959 852 L 959 1266 L 717 1266 C 628 1266 558 1248 507 1213 C 456 1178 431 1129 431 1065 C 431 1005 456 955 506 914 C 556 872 627 852 717 852 L 959 852 Z" unicode="Я" />
<glyph horiz-adv-x="1153" d="M 732 113 C 631 26 524 -17 412 -17 C 317 -17 237 11 172 69 C 106 126 74 197 74 283 C 74 390 123 483 223 563 C 323 643 489 694 722 718 L 722 750 C 722 802 705 844 673 875 C 640 905 595 920 537 920 C 441 920 357 871 285 775 L 105 912 C 216 1043 365 1109 552 1109 C 688 1109 796 1075 876 1009 C 956 942 996 850 996 734 L 996 224 C 996 149 1008 75 1033 1 L 759 1 C 746 42 737 79 732 113 Z M 722 290 L 722 562 C 472 514 347 429 347 306 C 347 264 359 230 383 205 C 407 179 438 167 478 167 C 547 167 628 208 722 290 Z" unicode="а" />
<glyph horiz-adv-x="1173" d="M 823 1589 L 1075 1589 C 1071 1467 1047 1386 1004 1346 C 961 1305 884 1273 773 1250 C 675 1230 609 1214 576 1202 C 542 1190 510 1170 480 1144 C 450 1118 420 1079 390 1027 C 464 1082 540 1110 619 1110 C 737 1110 844 1062 938 966 C 1032 870 1080 732 1080 551 C 1080 377 1034 239 942 136 C 850 33 733 -18 589 -18 C 443 -18 323 32 231 134 C 139 235 93 376 93 557 C 93 697 111 828 147 952 C 183 1075 228 1170 281 1236 C 334 1302 390 1350 450 1380 C 509 1410 581 1433 667 1450 C 730 1462 771 1477 790 1493 C 808 1509 819 1541 823 1589 Z M 808 563 C 808 675 788 760 748 820 C 708 880 655 910 587 910 C 439 910 365 783 365 529 C 365 423 383 339 421 276 C 459 213 513 182 585 182 C 657 182 713 215 751 283 C 789 350 808 443 808 563 Z" unicode="б" />
<glyph horiz-adv-x="1183" d="M 168 1090 L 670 1090 C 806 1090 903 1064 961 1014 C 1019 964 1048 902 1048 830 C 1048 730 985 648 860 582 C 1013 522 1090 428 1090 302 C 1090 225 1057 155 993 93 C 929 31 841 0 731 0 L 168 0 L 168 1090 Z M 445 662 L 602 662 C 653 662 695 673 727 695 C 759 717 775 746 775 780 C 775 854 714 891 593 891 L 445 891 L 445 662 Z M 445 475 L 445 199 L 635 199 C 704 199 752 214 778 244 C 804 274 818 305 818 337 C 818 375 802 408 771 435 C 739 461 697 475 644 475 L 445 475 Z" unicode="в" />
<glyph horiz-adv-x="893" d="M 850 1090 L 850 891 L 445 891 L 445 0 L 168 0 L 168 1090 L 850 1090 Z" unicode="г" />
<glyph horiz-adv-x="1178" d="M 167 199 L 393 1090 L 787 1090 L 1011 199 L 1135 199 L 1135 -221 L 968 -221 L 948 0 L 229 0 L 209 -221 L 42 -221 L 42 199 L 167 199 Z M 438 199 L 741 199 L 593 815 L 586 815 L 438 199 Z" unicode="д" />
<glyph horiz-adv-x="1173" d="M 831 357 L 1057 263 C 957 76 808 -17 612 -17 C 460 -17 336 36 239 142 C 142 248 94 387 94 558 C 94 723 140 856 234 957 C 328 1058 450 1109 600 1109 C 746 1109 863 1063 951 971 C 1038 879 1081 755 1081 601 C 1081 587 1079 552 1077 498 L 375 498 C 377 406 400 334 443 283 C 486 231 543 206 614 206 C 706 206 778 256 831 357 Z M 372 662 L 831 662 C 827 744 805 808 763 854 C 721 900 668 922 604 922 C 539 922 486 899 444 853 C 402 807 378 743 372 662 Z" unicode="е" />
<glyph horiz-adv-x="1549" d="M 915 470 L 915 0 L 639 0 L 639 470 L 548 500 L 253 0 L 0 0 L 354 607 L 57 1089 L 360 1089 L 587 654 L 639 638 L 639 1090 L 915 1090 L 915 641 L 982 662 L 1209 1089 L 1461 1089 L 1189 581 L 1549 0 L 1252 0 L 983 493 L 915 470 Z" unicode="ж" />
<glyph horiz-adv-x="973" d="M 255 769 L 44 843 C 111 1021 249 1110 459 1110 C 577 1110 670 1083 737 1029 C 804 975 838 911 838 837 C 838 733 775 648 650 582 C 803 521 880 429 880 305 C 880 221 843 146 771 80 C 698 14 593 -18 457 -18 C 251 -18 110 55 35 202 L 225 318 C 277 227 346 182 434 182 C 482 182 523 195 557 222 C 591 249 608 285 608 330 C 608 372 591 405 558 428 C 525 450 484 462 435 462 L 268 462 L 268 656 L 392 656 C 444 656 486 668 518 692 C 550 716 566 746 566 784 C 566 819 551 849 523 873 C 495 897 459 910 416 910 C 328 910 275 863 255 769 Z" unicode="з" />
<glyph horiz-adv-x="1241" d="M 445 396 L 797 1090 L 1073 1090 L 1073 0 L 797 0 L 797 694 L 445 0 L 168 0 L 168 1090 L 445 1090 L 445 396 Z" unicode="и" />
<glyph horiz-adv-x="1241" d="M 445 396 L 797 1090 L 1073 1090 L 1073 0 L 797 0 L 797 694 L 445 0 L 168 0 L 168 1090 L 445 1090 L 445 396 Z M 830 1577 L 971 1577 C 941 1357 824 1248 621 1248 C 521 1248 441 1277 381 1335 C 320 1393 284 1474 273 1577 L 414 1577 C 450 1475 519 1424 621 1424 C 723 1424 792 1475 830 1577 Z" unicode="й" />
<glyph horiz-adv-x="1147" d="M 445 0 L 168 0 L 168 1090 L 445 1090 L 445 639 L 805 1090 L 1090 1090 L 743 649 L 1147 0 L 846 0 L 596 459 L 445 293 L 445 0 Z" unicode="к" />
<glyph horiz-adv-x="1026" d="M 317 1090 L 711 1090 L 985 0 L 713 0 L 518 815 L 511 815 L 315 0 L 41 0 L 317 1090 Z" unicode="л" />
<glyph horiz-adv-x="1673" d="M 616 1090 L 843 279 L 1044 1090 L 1505 1090 L 1505 0 L 1228 0 L 1228 912 L 977 0 L 722 0 L 445 912 L 445 0 L 168 0 L 168 1090 L 616 1090 Z" unicode="м" />
<glyph horiz-adv-x="1241" d="M 445 661 L 797 661 L 797 1090 L 1073 1090 L 1073 0 L 797 0 L 797 463 L 445 463 L 445 0 L 168 0 L 168 1090 L 445 1090 L 445 661 Z" unicode="н" />
<glyph horiz-adv-x="1173" d="M 1082 551 C 1082 377 1036 239 945 136 C 854 33 736 -18 591 -18 C 443 -18 323 33 231 135 C 139 237 93 375 93 549 C 93 719 136 855 222 957 C 308 1059 421 1110 562 1110 C 726 1110 854 1060 946 962 C 1037 863 1082 726 1082 551 Z M 369 538 C 369 300 441 182 586 182 C 735 182 810 311 810 569 C 810 677 790 760 750 820 C 710 879 657 909 589 909 C 442 909 369 785 369 538 Z" unicode="о" />
<glyph horiz-adv-x="1241" d="M 1073 1090 L 1073 0 L 797 0 L 797 891 L 445 891 L 445 0 L 168 0 L 168 1090 L 1073 1090 Z" unicode="п" />
<glyph horiz-adv-x="1259" d="M 456 1090 L 456 978 C 552 1065 647 1109 743 1109 C 857 1109 955 1057 1037 954 C 1119 850 1161 717 1161 554 C 1161 391 1119 255 1036 146 C 953 37 857 -17 747 -17 C 665 -17 568 30 456 126 L 456 -437 L 178 -437 L 178 1090 L 456 1090 Z M 456 789 L 456 316 C 534 260 606 232 671 232 C 737 232 790 261 828 318 C 866 375 886 456 886 560 C 886 654 867 730 827 787 C 787 843 733 871 667 871 C 607 871 537 843 456 789 Z" unicode="р" />
<glyph horiz-adv-x="1044" d="M 792 400 L 1009 294 C 923 86 784 -17 590 -17 C 442 -17 322 35 230 139 C 138 243 92 377 92 541 C 92 705 139 840 234 948 C 328 1055 450 1109 598 1109 C 770 1109 903 1016 995 832 L 762 769 C 712 849 653 890 585 890 C 523 890 472 862 434 807 C 396 752 377 677 377 582 C 377 466 396 375 435 310 C 473 244 526 212 594 212 C 690 212 756 274 792 400 Z" unicode="с" />
<glyph horiz-adv-x="957" d="M 915 1090 L 915 891 L 617 891 L 617 0 L 340 0 L 340 891 L 42 891 L 42 1090 L 915 1090 Z" unicode="т" />
<glyph horiz-adv-x="1065" d="M 403 -33 L 41 1089 L 321 1089 L 534 391 L 745 1089 L 1024 1089 L 696 65 C 632 -133 563 -266 489 -335 C 414 -403 308 -438 170 -438 L 71 -438 L 71 -235 L 125 -235 C 280 -235 373 -167 403 -33 Z" unicode="у" />
<glyph horiz-adv-x="1452" d="M 588 0 C 426 28 303 91 219 189 C 135 287 93 407 93 549 C 93 694 136 815 223 912 C 310 1009 432 1068 588 1089 L 588 1552 L 864 1552 L 864 1089 C 1028 1062 1152 1002 1235 908 C 1317 814 1359 695 1359 551 C 1359 408 1316 287 1230 188 C 1144 89 1022 26 864 0 L 864 -438 L 588 -438 L 588 0 Z M 864 880 L 864 208 C 1012 258 1087 373 1087 555 C 1087 727 1012 835 864 880 Z M 588 208 L 588 880 C 439 840 365 726 365 536 C 365 364 439 254 588 208 Z" unicode="ф" />
<glyph horiz-adv-x="1028" d="M 375 555 L 51 1089 L 358 1089 L 516 803 L 674 1089 L 979 1089 L 657 555 L 987 0 L 686 0 L 516 309 L 346 0 L 41 0 L 375 555 Z" unicode="х" />
<glyph horiz-adv-x="1283" d="M 1073 199 L 1241 199 L 1241 -221 L 1073 -221 L 1054 0 L 168 0 L 168 1090 L 445 1090 L 445 199 L 797 199 L 797 1090 L 1073 1090 L 1073 199 Z" unicode="ц" />
<glyph horiz-adv-x="1139" d="M 695 1090 L 972 1090 L 972 0 L 695 0 L 695 490 C 572 378 453 322 338 322 C 265 322 210 347 172 397 C 134 447 115 514 115 600 L 115 1090 L 391 1090 L 391 668 C 391 587 415 547 465 547 C 524 547 601 592 695 682 L 695 1090 Z" unicode="ч" />
<glyph horiz-adv-x="1691" d="M 707 199 L 707 1090 L 984 1090 L 984 199 L 1247 199 L 1247 1090 L 1523 1090 L 1523 0 L 168 0 L 168 1090 L 445 1090 L 445 199 L 707 199 Z" unicode="ш" />
<glyph horiz-adv-x="1733" d="M 707 199 L 707 1090 L 984 1090 L 984 199 L 1247 199 L 1247 1090 L 1523 1090 L 1523 199 L 1690 199 L 1690 -221 L 1523 -221 L 1503 0 L 168 0 L 168 1090 L 445 1090 L 445 199 L 707 199 Z" unicode="щ" />
<glyph horiz-adv-x="1201" d="M 228 891 L 0 891 L 0 1090 L 504 1090 L 504 674 L 709 674 C 837 674 938 641 1011 576 C 1083 511 1120 431 1120 337 C 1120 252 1088 175 1024 105 C 960 35 872 0 761 0 L 228 0 L 228 891 Z M 504 487 L 504 199 L 665 199 C 735 199 783 214 809 246 C 834 277 847 310 847 346 C 847 384 831 417 800 445 C 769 473 727 487 674 487 L 504 487 Z" unicode="ъ" />
<glyph horiz-adv-x="1706" d="M 168 0 L 168 1090 L 445 1090 L 445 674 L 649 674 C 777 674 878 641 951 576 C 1023 511 1060 431 1060 337 C 1060 252 1028 175 964 105 C 900 35 812 0 701 0 L 168 0 Z M 445 487 L 445 199 L 605 199 C 675 199 723 214 749 246 C 774 277 787 310 787 346 C 787 384 771 417 740 445 C 709 473 667 487 614 487 L 445 487 Z M 1539 0 L 1262 0 L 1262 1090 L 1539 1090 L 1539 0 Z" unicode="ы" />
<glyph horiz-adv-x="1141" d="M 168 0 L 168 1090 L 445 1090 L 445 674 L 649 674 C 777 674 878 641 951 576 C 1023 511 1060 431 1060 337 C 1060 252 1028 175 964 105 C 900 35 812 0 701 0 L 168 0 Z M 445 487 L 445 199 L 605 199 C 675 199 723 214 749 246 C 774 277 787 310 787 346 C 787 384 771 417 740 445 C 709 473 667 487 614 487 L 445 487 Z" unicode="ь" />
<glyph horiz-adv-x="1046" d="M 661 661 C 640 811 581 887 483 887 C 406 887 339 847 283 768 L 49 831 C 147 1017 286 1110 468 1110 C 613 1110 730 1055 819 947 C 907 838 952 703 952 541 C 952 379 909 246 823 140 C 737 34 622 -18 477 -18 C 272 -18 125 85 35 293 L 252 399 C 296 273 370 211 474 211 C 574 211 635 295 659 463 L 353 463 L 353 661 L 661 661 Z" unicode="э" />
<glyph horiz-adv-x="1737" d="M 445 661 L 664 661 C 683 802 734 912 816 991 C 898 1070 1005 1110 1135 1110 C 1287 1110 1410 1062 1503 966 C 1596 870 1643 731 1643 551 C 1643 377 1597 239 1506 136 C 1414 33 1296 -18 1152 -18 C 1020 -18 910 24 820 108 C 730 192 677 311 661 463 L 445 463 L 445 0 L 168 0 L 168 1090 L 445 1090 L 445 661 Z M 1371 563 C 1371 675 1351 760 1311 820 C 1271 880 1218 910 1150 910 C 1002 910 929 783 929 529 C 929 423 947 339 985 276 C 1023 213 1077 182 1148 182 C 1220 182 1276 215 1314 283 C 1352 350 1371 443 1371 563 Z" unicode="ю" />
<glyph horiz-adv-x="1163" d="M 308 473 C 179 536 115 628 115 748 C 115 817 136 881 179 941 C 222 1000 273 1040 333 1060 C 393 1080 466 1090 553 1090 L 995 1090 L 995 0 L 719 0 L 719 427 L 564 427 L 370 0 L 93 0 L 308 473 Z M 719 613 L 719 891 L 570 891 C 448 891 388 846 388 756 C 388 714 404 680 436 653 C 468 626 509 613 561 613 L 719 613 Z" unicode="я" />
<glyph horiz-adv-x="1173" d="M 831 357 L 1057 263 C 957 76 808 -17 612 -17 C 460 -17 336 36 239 142 C 142 248 94 387 94 558 C 94 723 140 856 234 957 C 328 1058 450 1109 600 1109 C 746 1109 863 1063 951 971 C 1038 879 1081 755 1081 601 C 1081 587 1079 552 1077 498 L 375 498 C 377 406 400 334 443 283 C 486 231 543 206 614 206 C 706 206 778 256 831 357 Z M 372 662 L 831 662 C 827 744 805 808 763 854 C 721 900 668 922 604 922 C 539 922 486 899 444 853 C 402 807 378 743 372 662 Z M 253 1272 L 253 1487 L 472 1487 L 472 1272 L 253 1272 Z M 695 1272 L 695 1487 L 912 1487 L 912 1272 L 695 1272 Z" unicode="ё" />
<glyph horiz-adv-x="1231" d="M 1073 831 L 1073 -125 C 1073 -221 1042 -298 981 -354 C 920 -410 831 -438 714 -438 L 587 -438 L 587 -244 C 669 -241 724 -227 753 -203 C 781 -178 796 -139 796 -86 L 796 764 C 796 844 764 885 700 885 C 632 885 547 840 444 750 L 444 0 L 168 0 L 168 1235 L 25 1235 L 25 1399 L 168 1399 L 168 1552 L 444 1552 L 444 1399 L 760 1399 L 760 1235 L 444 1235 L 444 942 C 574 1054 701 1110 826 1110 C 902 1110 962 1086 1006 1039 C 1050 991 1073 922 1073 831 Z" unicode="ђ" />
<glyph horiz-adv-x="893" d="M 850 1090 L 850 891 L 445 891 L 445 0 L 168 0 L 168 1090 L 850 1090 Z M 348 1227 L 538 1563 L 866 1563 L 534 1227 L 348 1227 Z" unicode="ѓ" />
<glyph horiz-adv-x="1046" d="M 384 661 L 693 661 L 693 463 L 386 463 C 412 295 482 211 595 211 C 689 211 755 273 793 399 L 1010 293 C 960 175 902 94 835 49 C 767 4 686 -18 591 -18 C 444 -18 324 34 232 139 C 139 243 93 377 93 541 C 93 705 140 840 236 948 C 332 1056 453 1110 599 1110 C 773 1110 905 1017 996 831 L 763 768 C 715 847 656 887 587 887 C 476 887 408 811 384 661 Z" unicode="є" />
<glyph horiz-adv-x="1022" d="M 67 181 L 235 298 C 333 222 425 185 512 185 C 628 185 686 221 686 294 C 686 360 619 404 487 425 C 369 443 274 483 202 544 C 130 604 94 680 94 771 C 94 864 134 944 214 1010 C 294 1076 394 1109 514 1109 C 645 1109 781 1057 921 955 L 762 822 C 661 888 580 922 520 922 C 472 922 433 910 403 886 C 373 861 358 831 358 795 C 358 759 375 730 409 710 C 443 690 514 668 622 644 C 752 615 841 576 891 527 C 940 478 964 413 964 333 C 964 229 923 144 842 80 C 761 15 652 -17 514 -17 C 344 -17 195 49 67 181 Z" unicode="ѕ" />
<glyph horiz-adv-x="610" d="M 168 1278 L 168 1552 L 442 1552 L 442 1278 L 168 1278 Z M 168 0 L 168 1089 L 442 1089 L 442 0 L 168 0 Z" unicode="і" />
<glyph horiz-adv-x="610" d="M 168 0 L 168 1089 L 442 1089 L 442 0 L 168 0 Z M -25 1272 L -25 1487 L 194 1487 L 194 1272 L -25 1272 Z M 417 1272 L 417 1487 L 634 1487 L 634 1272 L 417 1272 Z" unicode="ї" />
<glyph horiz-adv-x="612" d="M 168 1272 L 168 1552 L 444 1552 L 444 1272 L 168 1272 Z M 168 -86 L 168 1089 L 444 1089 L 444 -125 C 444 -225 413 -302 350 -356 C 287 -410 199 -438 86 -438 L -41 -438 L -41 -243 C 42 -241 98 -227 126 -201 C 154 -175 168 -136 168 -86 Z" unicode="ј" />
<glyph horiz-adv-x="1568" d="M 816 674 L 1076 674 C 1210 674 1312 640 1382 573 C 1452 506 1487 427 1487 337 C 1487 252 1454 175 1390 105 C 1326 35 1238 0 1128 0 L 713 0 L 518 815 L 511 815 L 315 0 L 41 0 L 317 1090 L 711 1090 L 816 674 Z M 863 487 L 935 199 L 1032 199 C 1102 199 1150 214 1176 246 C 1201 277 1214 310 1214 346 C 1214 384 1198 417 1167 445 C 1136 473 1094 487 1041 487 L 863 487 Z M 985 0 L 985 0 Z" unicode="љ" />
<glyph horiz-adv-x="1770" d="M 797 674 L 797 1090 L 1073 1090 L 1073 674 L 1278 674 C 1406 674 1507 641 1580 576 C 1652 511 1689 431 1689 337 C 1689 252 1656 175 1592 105 C 1528 35 1440 0 1330 0 L 797 0 L 797 487 L 445 487 L 445 0 L 168 0 L 168 1090 L 445 1090 L 445 674 L 797 674 Z M 1073 487 L 1073 199 L 1234 199 C 1304 199 1352 214 1378 246 C 1403 277 1416 310 1416 346 C 1416 386 1400 419 1368 446 C 1336 473 1294 487 1243 487 L 1073 487 Z" unicode="њ" />
<glyph horiz-adv-x="1231" d="M 168 1235 L 25 1235 L 25 1399 L 168 1399 L 168 1552 L 444 1552 L 444 1399 L 760 1399 L 760 1235 L 444 1235 L 444 942 C 573 1054 700 1110 825 1110 C 904 1110 965 1085 1008 1036 C 1051 986 1073 918 1073 831 L 1073 0 L 796 0 L 796 764 C 796 844 764 885 700 885 C 632 885 547 840 444 750 L 444 0 L 168 0 L 168 1235 Z" unicode="ћ" />
<glyph horiz-adv-x="1147" d="M 445 0 L 168 0 L 168 1090 L 445 1090 L 445 639 L 805 1090 L 1090 1090 L 743 649 L 1147 0 L 846 0 L 596 459 L 445 293 L 445 0 Z M 465 1227 L 655 1563 L 983 1563 L 651 1227 L 465 1227 Z" unicode="ќ" />
<glyph horiz-adv-x="1065" d="M 403 -33 L 41 1089 L 321 1089 L 534 391 L 745 1089 L 1024 1089 L 696 65 C 632 -133 563 -266 489 -335 C 414 -403 308 -438 170 -438 L 71 -438 L 71 -235 L 125 -235 C 280 -235 373 -167 403 -33 Z M 757 1577 L 898 1577 C 868 1357 751 1248 548 1248 C 448 1248 368 1277 308 1335 C 247 1393 211 1474 200 1577 L 341 1577 C 377 1475 446 1424 548 1424 C 650 1424 719 1475 757 1577 Z" unicode="ў" />
<glyph horiz-adv-x="1241" d="M 717 0 L 705 -221 L 536 -221 L 524 0 L 168 0 L 168 1090 L 445 1090 L 445 199 L 797 199 L 797 1090 L 1073 1090 L 1073 0 L 717 0 Z" unicode="џ" />
<glyph horiz-adv-x="1161" d="M 1119 1266 L 489 1266 L 489 0 L 188 0 L 188 1530 L 904 1530 L 926 1785 L 1120 1785 L 1119 1266 Z" unicode="Ґ" />
<glyph horiz-adv-x="893" d="M 850 1310 L 850 891 L 445 891 L 445 0 L 168 0 L 168 1090 L 662 1090 L 683 1310 L 850 1310 Z" unicode="ґ" />
<glyph horiz-adv-x="1890" d="M 430 0 L 47 1530 L 356 1530 L 563 635 L 774 1530 L 1116 1530 L 1327 626 L 1534 1530 L 1843 1530 L 1460 0 L 1224 0 L 948 1167 L 665 0 L 430 0 Z M 923 1640 L 592 1976 L 921 1976 L 1108 1640 L 923 1640 Z" unicode="Ẁ" />
<glyph horiz-adv-x="1581" d="M 397 0 L 51 1089 L 317 1089 L 504 479 L 688 1089 L 893 1089 L 1079 471 L 1261 1089 L 1530 1089 L 1181 0 L 989 0 L 790 657 L 592 0 L 397 0 Z M 768 1227 L 437 1563 L 766 1563 L 953 1227 L 768 1227 Z" unicode="ẁ" />
<glyph horiz-adv-x="1890" d="M 430 0 L 47 1530 L 356 1530 L 563 635 L 774 1530 L 1116 1530 L 1327 626 L 1534 1530 L 1843 1530 L 1460 0 L 1224 0 L 948 1167 L 665 0 L 430 0 Z M 774 1640 L 964 1976 L 1292 1976 L 960 1640 L 774 1640 Z" unicode="Ẃ" />
<glyph horiz-adv-x="1581" d="M 397 0 L 51 1089 L 317 1089 L 504 479 L 688 1089 L 893 1089 L 1079 471 L 1261 1089 L 1530 1089 L 1181 0 L 989 0 L 790 657 L 592 0 L 397 0 Z M 619 1227 L 809 1563 L 1137 1563 L 805 1227 L 619 1227 Z" unicode="ẃ" />
<glyph horiz-adv-x="1890" d="M 430 0 L 47 1530 L 356 1530 L 563 635 L 774 1530 L 1116 1530 L 1327 626 L 1534 1530 L 1843 1530 L 1460 0 L 1224 0 L 948 1167 L 665 0 L 430 0 Z M 628 1685 L 628 1900 L 847 1900 L 847 1685 L 628 1685 Z M 1070 1685 L 1070 1900 L 1287 1900 L 1287 1685 L 1070 1685 Z" unicode="Ẅ" />
<glyph horiz-adv-x="1581" d="M 397 0 L 51 1089 L 317 1089 L 504 479 L 688 1089 L 893 1089 L 1079 471 L 1261 1089 L 1530 1089 L 1181 0 L 989 0 L 790 657 L 592 0 L 397 0 Z M 461 1272 L 461 1487 L 680 1487 L 680 1272 L 461 1272 Z M 903 1272 L 903 1487 L 1120 1487 L 1120 1272 L 903 1272 Z" unicode="ẅ" />
<glyph horiz-adv-x="1229" d="M 463 682 L 8 1530 L 342 1530 L 616 979 L 887 1530 L 1220 1530 L 766 682 L 766 0 L 463 0 L 463 682 Z M 592 1640 L 261 1976 L 590 1976 L 777 1640 L 592 1640 Z" unicode="Ỳ" />
<glyph horiz-adv-x="1065" d="M 403 -33 L 41 1089 L 321 1089 L 534 391 L 745 1089 L 1024 1089 L 696 65 C 632 -133 563 -266 489 -335 C 414 -403 308 -438 170 -438 L 71 -438 L 71 -235 L 125 -235 C 280 -235 373 -167 403 -33 Z M 510 1227 L 179 1563 L 508 1563 L 695 1227 L 510 1227 Z" unicode="ỳ" />
<glyph horiz-adv-x="1024" d="M 0 434 L 0 684 L 1024 684 L 1024 434 L 0 434 Z" unicode="–" />
<glyph horiz-adv-x="2048" d="M 0 434 L 0 684 L 2048 684 L 2048 434 L 0 434 Z" unicode="—" />
<glyph horiz-adv-x="1536" d="M 1536 434 L 0 434 L 0 684 L 1536 684 L 1536 434 Z" unicode="―" />
<glyph horiz-adv-x="1024" d="M 1037 -154 L 1037 -256 L -12 -256 L -12 -154 L 1037 -154 Z M 1037 -338 L 1037 -440 L -12 -440 L -12 -338 L 1037 -338 Z" unicode="‗" />
<glyph horiz-adv-x="641" d="M 170 1233 L 368 1560 L 471 1560 L 301 1233 L 471 1233 L 471 907 L 170 907 L 170 1233 Z" unicode="‘" />
<glyph horiz-adv-x="641" d="M 170 1202 L 170 1530 L 469 1530 L 469 1202 L 276 876 L 170 876 L 336 1202 L 170 1202 Z" unicode="’" />
<glyph horiz-adv-x="641" d="M 170 0 L 170 334 L 471 334 L 471 0 L 286 -329 L 180 -329 L 344 0 L 170 0 Z" unicode="‚" />
<glyph horiz-adv-x="641" d="M 305 1202 L 471 877 L 364 877 L 170 1202 L 170 1530 L 471 1530 L 471 1202 L 305 1202 Z" unicode="‛" />
<glyph horiz-adv-x="1122" d="M 655 1231 L 848 1560 L 952 1560 L 780 1231 L 952 1231 L 952 905 L 655 905 L 655 1231 Z M 170 1231 L 364 1560 L 467 1560 L 297 1231 L 467 1231 L 467 905 L 170 905 L 170 1231 Z" unicode="“" />
<glyph horiz-adv-x="1122" d="M 170 1202 L 170 1530 L 469 1530 L 469 1202 L 276 872 L 170 872 L 336 1202 L 170 1202 Z M 653 1202 L 653 1530 L 952 1530 L 952 1202 L 760 872 L 653 872 L 825 1202 L 653 1202 Z" unicode="”" />
<glyph horiz-adv-x="1122" d="M 170 0 L 170 327 L 467 327 L 467 0 L 278 -327 L 170 -327 L 336 0 L 170 0 Z M 653 0 L 653 327 L 952 327 L 952 0 L 760 -327 L 653 -327 L 823 0 L 653 0 Z" unicode="„" />
<glyph horiz-adv-x="1067" d="M 482 979 L 417 1530 L 652 1530 L 584 979 L 994 1044 L 994 811 L 584 876 L 675 -409 L 396 -409 L 482 876 L 72 811 L 72 1044 L 482 979 Z" unicode="†" />
<glyph horiz-adv-x="1067" d="M 489 1071 L 413 1530 L 645 1530 L 571 1071 L 971 1132 L 971 917 L 571 981 L 622 561 L 571 145 L 971 209 L 971 0 L 571 59 L 645 -405 L 413 -405 L 489 59 L 88 0 L 88 209 L 489 145 L 438 561 L 489 981 L 88 917 L 88 1132 L 489 1071 Z" unicode="‡" />
<glyph horiz-adv-x="817" d="M 407 428 C 325 428 255 456 198 514 C 140 571 112 641 112 723 C 112 805 141 875 199 933 C 256 991 325 1020 407 1020 C 489 1020 559 991 617 933 C 675 875 704 805 704 723 C 704 641 675 571 617 514 C 559 456 489 428 407 428 Z" unicode="•" />
<glyph horiz-adv-x="1921" d="M 264 0 L 264 332 L 565 332 L 565 0 L 264 0 Z M 821 0 L 821 332 L 1122 332 L 1122 0 L 821 0 Z M 1368 0 L 1368 332 L 1669 332 L 1669 0 L 1368 0 Z" unicode="…" />
<glyph horiz-adv-x="2963" d="M 344 -364 L 1333 1339 C 1208 1279 1099 1250 1007 1250 C 965 1250 924 1255 882 1265 C 892 1229 897 1190 897 1149 C 897 990 854 857 768 750 C 682 643 573 590 442 590 C 335 590 248 624 182 693 C 115 761 82 855 82 973 C 82 1127 124 1255 209 1358 C 294 1461 402 1513 534 1513 C 611 1513 686 1490 760 1446 C 843 1394 924 1368 1003 1368 C 1065 1368 1141 1382 1232 1411 C 1323 1439 1409 1503 1489 1601 L 1650 1601 L 514 -364 L 344 -364 Z M 319 942 C 319 889 331 847 355 815 C 379 783 411 768 450 768 C 511 768 561 802 599 872 C 637 942 657 1035 657 1151 C 657 1276 610 1339 516 1339 C 452 1339 403 1296 369 1210 C 335 1124 319 1034 319 942 Z M 1921 246 C 1921 94 1878 -33 1792 -137 C 1706 -241 1595 -293 1458 -293 C 1350 -293 1264 -257 1199 -187 C 1134 -116 1102 -22 1102 96 C 1102 246 1144 373 1228 476 C 1312 579 1421 631 1554 631 C 1666 631 1755 596 1821 526 C 1887 456 1921 362 1921 246 Z M 1343 59 C 1343 7 1355 -34 1380 -66 C 1405 -98 1437 -114 1476 -114 C 1534 -114 1583 -79 1623 -9 C 1662 60 1681 148 1681 254 C 1681 390 1632 459 1536 459 C 1478 459 1432 420 1397 342 C 1361 264 1343 170 1343 59 Z M 2881 246 C 2881 94 2838 -33 2752 -137 C 2666 -241 2555 -293 2418 -293 C 2310 -293 2224 -257 2160 -187 C 2095 -116 2062 -22 2062 96 C 2062 246 2105 373 2189 476 C 2273 579 2382 631 2515 631 C 2626 631 2715 596 2781 526 C 2847 456 2881 362 2881 246 Z M 2304 59 C 2304 7 2316 -34 2341 -66 C 2366 -98 2398 -114 2437 -114 C 2495 -114 2544 -79 2583 -10 C 2622 59 2642 147 2642 254 C 2642 390 2593 459 2496 459 C 2438 459 2391 420 2356 342 C 2321 264 2304 170 2304 59 Z" unicode="‰" />
<glyph horiz-adv-x="491" d="M 69 1041 L 178 1547 L 428 1547 L 343 1283 L 217 1041 L 69 1041 Z" unicode="′" />
<glyph horiz-adv-x="981" d="M 138 1041 L 247 1547 L 497 1547 L 412 1283 L 286 1041 L 138 1041 Z M 522 1041 L 631 1547 L 881 1547 L 796 1283 L 670 1041 L 522 1041 Z" unicode="″" />
<glyph horiz-adv-x="643" d="M 59 542 L 297 1028 L 583 1028 L 348 542 L 583 61 L 297 61 L 59 542 Z" unicode="‹" />
<glyph horiz-adv-x="643" d="M 295 545 L 59 1028 L 346 1028 L 581 545 L 346 61 L 59 61 L 295 545 Z" unicode="›" />
<glyph horiz-adv-x="1259" d="M 461 545 L 272 545 L 217 1530 L 524 1530 L 461 545 Z M 978 545 L 790 545 L 734 1530 L 1042 1530 L 978 545 Z M 518 0 L 217 0 L 217 328 L 518 328 L 518 0 Z M 1035 0 L 734 0 L 734 328 L 1035 328 L 1035 0 Z" unicode="‼" />
<glyph horiz-adv-x="1147" d="M -42 1869 L 1189 1869 L 1189 1795 L -42 1795 L -42 1869 Z" unicode="‾" />
<glyph horiz-adv-x="213" d="M -460 -190 L 550 1560 L 673 1489 L -335 -254 L -460 -190 Z" unicode="⁄" />
<glyph horiz-adv-x="800" d="M 301 1548 L 301 1471 C 370 1530 448 1560 535 1560 C 651 1560 709 1499 709 1379 L 709 866 L 506 866 L 506 1336 C 506 1376 488 1397 454 1397 C 411 1397 360 1371 301 1320 L 301 866 L 97 866 L 97 1548 L 301 1548 Z" unicode="ⁿ" />
<glyph horiz-adv-x="1169" d="M 684 291 L 491 291 L 491 0 L 188 0 L 188 291 L 76 291 L 76 459 L 188 459 L 188 1530 L 1128 1530 L 1128 1265 L 491 1265 L 491 866 L 858 866 L 858 602 L 491 602 L 491 459 L 684 459 L 684 291 Z" unicode="₣" />
<glyph horiz-adv-x="1280" d="M 615 966 L 991 966 L 991 813 L 650 813 C 664 751 673 702 678 666 L 991 666 L 991 513 L 685 513 C 681 437 669 369 649 311 C 781 251 865 221 901 221 C 963 221 998 271 1006 371 L 1235 371 C 1234 238 1200 138 1132 72 C 1064 6 989 -27 906 -27 C 804 -27 685 20 549 115 C 463 19 373 -29 279 -29 C 206 -29 147 -7 103 34 C 59 76 37 131 37 197 C 37 266 59 322 104 366 C 149 410 203 432 266 432 C 309 432 373 417 457 389 L 457 404 L 458 434 C 458 456 455 482 451 513 L 134 513 L 134 666 L 421 666 L 383 813 L 134 813 L 134 966 L 343 966 C 330 1028 324 1084 324 1133 C 324 1263 361 1367 437 1445 C 512 1523 614 1563 744 1563 C 962 1563 1087 1434 1118 1176 L 877 1157 C 869 1293 819 1362 727 1362 C 683 1362 647 1347 620 1318 C 593 1289 580 1250 580 1200 C 580 1144 591 1066 615 966 Z M 410 209 C 347 257 294 281 250 281 C 229 281 211 273 196 259 C 181 244 174 225 174 203 C 174 179 182 159 199 143 C 215 127 237 119 264 119 C 317 119 366 149 410 209 Z" unicode="₤" />
<glyph horiz-adv-x="2723" d="M 492 0 L 191 0 L 191 1530 L 674 1530 C 858 1530 990 1514 1070 1484 C 1150 1453 1216 1405 1267 1340 C 1318 1274 1344 1191 1344 1091 C 1344 934 1290 813 1183 728 C 1075 642 934 600 760 600 L 492 600 L 492 0 Z M 492 850 L 740 850 C 824 850 894 869 949 909 C 1003 948 1031 1002 1031 1071 C 1031 1201 936 1266 746 1266 L 492 1266 L 492 850 Z M 1379 877 L 1501 877 L 1501 1150 L 1746 1150 L 1746 877 L 1887 877 L 1887 701 L 1746 701 L 1746 281 C 1746 232 1757 204 1779 196 C 1801 188 1837 184 1887 184 L 1887 -16 L 1795 -18 C 1682 -18 1605 6 1563 55 C 1521 103 1501 167 1501 246 L 1501 701 L 1379 701 L 1379 877 Z M 2606 776 L 2504 636 C 2424 689 2359 716 2310 716 C 2278 716 2252 708 2232 692 C 2212 676 2202 656 2202 632 C 2202 610 2211 591 2230 575 C 2249 559 2294 543 2366 528 C 2494 500 2576 464 2612 420 C 2648 376 2666 326 2666 268 C 2666 180 2632 110 2566 59 C 2499 7 2412 -18 2305 -18 C 2171 -18 2057 30 1962 127 L 2082 252 C 2158 190 2232 160 2303 160 C 2381 160 2421 184 2421 232 C 2421 279 2370 311 2270 328 C 2158 346 2080 381 2036 435 C 1991 488 1969 546 1969 609 C 1969 687 2001 753 2067 806 C 2132 858 2211 885 2305 885 C 2414 885 2514 848 2606 776 Z" unicode="₧" />
</font>
</defs>
</svg>
