<?xml version="1.0" encoding="utf-8" ?><svg version="1.1" xmlns = 'http://www.w3.org/2000/svg'><defs><font id='web' horiz-adv-x="1000">
<font-face font-family="web" descent="-476" cap-height="1399" units-per-em="2048" bbox="-336,-496,2521,1943" x-height="946" ascent="1572" />
<missing-glyph horiz-adv-x="1024" d="M 906 16 L 906 1032 L 118 1032 L 118 16 L 906 16 Z M 102 1048 L 922 1048 L 922 0 L 102 0 L 102 1048 Z" /><glyph horiz-adv-x="410" d="" unicode=" " />
<glyph horiz-adv-x="670" d="M 324 457 C 295 638 261 798 223 938 C 185 1078 166 1186 166 1264 C 166 1310 180 1350 210 1384 C 239 1418 280 1436 334 1436 C 386 1436 428 1418 458 1384 C 488 1350 504 1310 504 1264 C 504 1186 484 1078 446 938 C 407 798 372 638 342 457 L 324 457 Z M 334 -23 C 286 -23 245 -6 211 26 C 177 59 160 100 160 150 C 160 198 177 239 211 273 C 245 307 286 324 334 324 C 382 324 423 307 458 273 C 492 239 510 198 510 150 C 510 100 492 59 458 26 C 423 -6 382 -23 334 -23 Z" unicode="!" />
<glyph horiz-adv-x="823" d="M 199 967 C 175 1054 148 1135 116 1211 C 84 1287 68 1340 68 1372 C 68 1406 80 1437 106 1466 C 132 1494 167 1509 211 1509 C 255 1509 289 1494 315 1466 C 341 1437 354 1406 354 1372 C 354 1342 337 1289 305 1212 C 272 1135 243 1053 219 967 L 199 967 Z M 600 967 C 576 1054 549 1135 517 1211 C 485 1287 469 1340 469 1372 C 469 1406 481 1437 507 1466 C 533 1494 568 1509 612 1509 C 656 1509 691 1494 717 1466 C 743 1437 756 1406 756 1372 C 756 1342 739 1289 707 1212 C 674 1135 645 1053 621 967 L 600 967 Z" unicode="&#x22;" />
<glyph horiz-adv-x="1069" d="M 375 -14 L 375 274 L 150 219 L 150 444 L 375 500 L 375 723 L 150 668 L 150 891 L 375 948 L 375 1284 L 408 1284 L 408 958 L 664 1022 L 664 1284 L 696 1284 L 696 1032 L 924 1090 L 924 864 L 696 807 L 696 582 L 924 639 L 924 416 L 696 358 L 696 -14 L 664 -14 L 664 348 L 408 285 L 408 -14 L 375 -14 Z M 408 508 L 664 573 L 664 797 L 408 733 L 408 508 Z" unicode="#" />
<glyph horiz-adv-x="1235" d="M 520 -291 L 520 -10 C 397 0 299 32 225 85 C 151 137 115 203 115 283 C 115 345 128 393 156 427 C 183 461 220 479 266 479 C 306 479 336 467 356 444 C 376 421 387 390 387 350 C 387 304 366 271 326 251 C 286 231 263 214 258 201 C 258 156 283 116 334 82 C 384 47 446 25 520 16 L 520 516 C 413 528 323 563 250 621 C 177 679 141 767 141 887 C 141 981 173 1062 239 1130 C 305 1198 398 1241 520 1260 L 520 1460 L 557 1460 L 557 1264 C 563 1264 575 1265 592 1267 C 609 1269 625 1270 641 1270 C 653 1270 667 1269 681 1269 C 695 1269 707 1268 719 1268 L 719 1460 L 756 1460 L 756 1266 C 868 1252 952 1221 1006 1171 C 1060 1121 1087 1068 1087 1010 C 1087 962 1076 920 1054 884 C 1032 848 1000 831 958 831 C 927 831 899 840 875 859 C 850 877 838 906 838 944 C 838 984 854 1019 886 1047 C 918 1075 938 1101 946 1124 C 941 1144 922 1166 888 1190 C 854 1213 810 1229 756 1237 L 756 776 C 878 756 971 716 1034 656 C 1096 596 1128 505 1128 385 C 1128 292 1096 210 1032 138 C 968 66 876 20 756 -2 L 756 -291 L 719 -291 L 719 -8 C 700 -10 681 -11 661 -12 C 641 -13 623 -14 606 -14 L 557 -14 L 557 -291 L 520 -291 Z M 719 780 L 719 1241 C 710 1241 700 1242 688 1242 C 676 1242 665 1243 657 1243 C 646 1243 630 1242 610 1240 C 589 1238 571 1237 557 1235 L 557 799 C 577 797 604 794 637 790 C 670 786 697 782 719 780 Z M 557 12 L 608 12 C 627 12 647 12 667 14 C 687 16 704 18 719 20 L 719 494 C 697 496 671 499 640 503 C 609 507 581 510 557 512 L 557 12 Z M 520 805 L 520 1227 C 471 1214 432 1185 403 1141 C 374 1097 360 1050 360 1001 C 360 935 375 887 407 859 C 438 831 476 813 520 805 Z M 756 31 C 814 50 855 81 879 124 C 903 166 915 220 915 285 C 915 348 900 395 872 427 C 843 458 804 478 756 487 L 756 31 Z" unicode="$" />
<glyph horiz-adv-x="1780" d="M 453 580 C 351 580 265 609 196 667 C 126 725 92 809 92 920 C 92 1021 128 1105 201 1172 C 273 1238 357 1272 453 1272 C 553 1272 640 1243 713 1187 C 786 1130 823 1042 823 922 C 823 826 786 745 713 679 C 640 613 553 580 453 580 Z M 459 602 C 505 602 541 631 568 691 C 594 750 608 826 608 918 C 608 1013 596 1092 573 1155 C 550 1217 511 1249 455 1249 C 399 1249 359 1216 337 1152 C 314 1088 303 1013 303 928 C 303 839 314 762 336 698 C 358 634 399 602 459 602 Z M 1317 -27 C 1215 -27 1129 1 1059 59 C 989 117 954 201 954 311 C 954 411 991 495 1065 563 C 1139 630 1223 664 1317 664 C 1417 664 1503 635 1577 579 C 1651 522 1688 433 1688 313 C 1688 218 1651 138 1578 72 C 1504 6 1417 -27 1317 -27 Z M 1323 -6 C 1367 -6 1403 23 1431 83 C 1459 143 1473 218 1473 309 C 1473 404 1461 483 1437 546 C 1413 609 1374 641 1319 641 C 1263 641 1223 608 1201 543 C 1178 478 1167 403 1167 319 C 1167 231 1178 155 1200 91 C 1222 26 1263 -6 1323 -6 Z M 469 -197 L 424 -174 L 1298 1411 L 1350 1386 L 469 -197 Z" unicode="%" />
<glyph horiz-adv-x="1542" d="M 496 -33 C 380 -33 279 -5 193 48 C 106 102 63 188 63 305 C 63 407 96 490 163 556 C 230 621 319 680 430 733 C 402 773 368 831 326 907 C 284 982 264 1050 264 1112 C 264 1204 301 1280 377 1339 C 452 1397 554 1427 684 1427 C 770 1427 835 1402 878 1354 C 920 1306 942 1243 942 1167 C 942 1107 920 1050 877 996 C 834 942 777 892 705 848 C 757 770 811 694 868 619 C 924 544 981 470 1038 397 C 1080 455 1120 522 1156 598 C 1192 674 1210 733 1210 774 C 1210 795 1192 812 1157 826 C 1122 840 1069 854 999 868 L 999 883 L 1556 883 L 1556 868 C 1498 862 1449 850 1410 832 C 1370 814 1340 792 1319 768 C 1295 741 1258 685 1207 600 C 1155 514 1105 439 1057 373 C 1105 315 1154 257 1204 199 C 1253 141 1294 103 1327 84 C 1363 62 1393 47 1417 37 C 1441 27 1476 20 1522 16 L 1522 0 L 1001 0 L 874 152 C 825 102 768 59 702 22 C 636 -14 568 -33 496 -33 Z M 604 76 C 654 76 702 85 748 103 C 794 121 830 144 858 172 C 780 270 701 372 621 478 C 540 584 483 659 451 705 C 428 671 411 626 399 570 C 387 514 381 454 381 391 C 381 291 401 213 443 158 C 484 103 538 76 604 76 Z M 692 870 C 753 910 794 955 816 1007 C 837 1058 848 1112 848 1169 C 848 1235 835 1291 809 1337 C 783 1382 744 1405 692 1405 C 652 1405 617 1386 589 1349 C 561 1311 547 1261 547 1198 C 547 1152 562 1099 592 1041 C 622 982 655 925 692 870 Z" unicode="&#x26;" />
<glyph horiz-adv-x="422" d="M 199 967 C 175 1054 148 1135 116 1211 C 84 1287 68 1340 68 1372 C 68 1406 80 1437 106 1466 C 132 1494 167 1509 211 1509 C 255 1509 289 1494 315 1466 C 341 1437 354 1406 354 1372 C 354 1342 337 1289 305 1212 C 272 1135 243 1053 219 967 L 199 967 Z" unicode="'" />
<glyph horiz-adv-x="717" d="M 594 -328 C 437 -216 314 -77 226 88 C 138 254 94 428 94 608 C 94 770 134 931 215 1093 C 296 1254 422 1400 592 1532 L 666 1499 C 504 1375 384 1236 307 1080 C 230 924 191 769 190 616 C 188 446 227 282 307 124 C 387 -33 510 -172 674 -291 L 594 -328 Z" unicode="(" />
<glyph horiz-adv-x="717" d="M 123 -328 L 43 -291 C 207 -172 329 -33 409 124 C 489 282 528 446 526 616 C 525 769 486 924 409 1080 C 332 1236 213 1375 51 1499 L 125 1532 C 295 1400 420 1254 501 1093 C 582 931 623 770 623 608 C 623 428 578 254 490 88 C 402 -77 279 -216 123 -328 Z" unicode=")" />
<glyph horiz-adv-x="793" d="M 401 815 C 377 815 360 821 350 834 C 339 847 334 863 334 883 C 334 895 336 910 342 930 C 347 949 353 969 360 991 C 366 1012 372 1033 378 1055 C 384 1076 387 1095 389 1112 C 369 1097 350 1079 332 1059 C 314 1039 298 1019 282 1001 C 266 982 250 966 234 953 C 218 940 203 934 187 934 C 179 934 171 936 163 940 C 155 944 148 949 142 955 C 135 961 130 969 126 977 C 122 985 120 994 120 1004 C 120 1022 128 1037 146 1048 C 163 1059 185 1068 212 1076 C 238 1083 267 1090 298 1097 C 328 1104 357 1113 385 1124 C 359 1134 331 1143 300 1151 C 268 1158 239 1166 211 1174 C 183 1182 160 1191 141 1203 C 122 1214 113 1229 113 1247 C 113 1257 115 1266 119 1275 C 123 1284 128 1292 134 1299 C 140 1305 148 1311 156 1315 C 164 1319 171 1321 179 1321 C 193 1321 209 1314 226 1300 C 242 1286 259 1270 277 1251 C 294 1232 312 1212 331 1191 C 349 1170 369 1153 389 1139 C 387 1157 383 1176 377 1198 C 371 1220 364 1241 358 1263 C 352 1284 346 1304 341 1323 C 336 1341 334 1356 334 1368 C 334 1389 339 1406 350 1418 C 360 1430 377 1436 401 1436 C 425 1436 443 1429 454 1416 C 465 1402 471 1387 471 1370 C 471 1358 468 1343 462 1324 C 456 1305 450 1285 443 1264 C 436 1242 429 1221 423 1199 C 416 1177 412 1157 410 1139 C 430 1153 450 1171 468 1192 C 486 1212 503 1232 520 1251 C 536 1270 552 1286 567 1299 C 582 1312 597 1319 613 1319 C 621 1319 628 1317 636 1313 C 643 1309 650 1303 656 1297 C 662 1290 666 1282 670 1273 C 674 1264 676 1255 676 1246 C 676 1226 667 1211 651 1201 C 634 1190 613 1181 588 1174 C 562 1166 534 1159 503 1152 C 472 1145 442 1136 414 1124 C 448 1111 482 1101 518 1093 C 553 1085 588 1075 623 1065 C 640 1059 653 1051 663 1039 C 672 1027 677 1014 677 1000 C 677 989 675 979 671 971 C 667 962 661 954 655 948 C 649 942 642 937 634 934 C 626 930 619 929 613 929 C 597 929 581 936 565 950 C 548 964 531 980 514 1000 C 496 1020 479 1040 461 1061 C 443 1081 426 1098 410 1112 C 412 1096 416 1077 422 1055 C 428 1033 435 1012 443 990 C 450 968 456 947 462 928 C 468 908 471 893 471 883 C 471 864 465 848 453 835 C 441 821 423 815 401 815 Z" unicode="*" />
<glyph horiz-adv-x="1159" d="M 526 39 L 526 481 L 86 481 L 86 582 L 526 582 L 526 1026 L 631 1026 L 631 582 L 1073 582 L 1073 481 L 631 481 L 631 39 L 526 39 Z" unicode="+" />
<glyph horiz-adv-x="551" d="M 127 -369 L 117 -348 C 184 -315 238 -268 279 -207 C 320 -145 344 -76 350 0 L 285 0 C 206 0 153 18 125 55 C 97 92 84 131 84 172 C 84 210 98 247 126 282 C 154 316 194 334 246 334 C 324 334 380 307 415 254 C 449 201 467 134 467 53 C 467 -27 435 -108 371 -188 C 307 -268 226 -328 127 -369 Z" unicode="," />
<glyph horiz-adv-x="811" d="M 72 410 L 72 625 L 739 625 L 739 410 L 72 410 Z" unicode="-" />
<glyph horiz-adv-x="551" d="M 276 -27 C 226 -27 182 -9 146 25 C 110 59 92 102 92 154 C 92 204 110 247 146 282 C 182 316 226 334 276 334 C 326 334 369 316 406 282 C 442 247 461 204 461 154 C 461 102 442 59 406 25 C 369 -9 326 -27 276 -27 Z" unicode="." />
<glyph horiz-adv-x="831" d="M 127 -428 L 61 -408 L 700 1540 L 768 1520 L 127 -428 Z" unicode="/" />
<glyph horiz-adv-x="1288" d="M 631 -33 C 447 -33 306 29 208 155 C 110 280 61 426 61 592 C 61 802 121 967 242 1089 C 363 1211 501 1272 655 1272 C 839 1272 981 1209 1079 1085 C 1177 961 1227 815 1227 647 C 1227 438 1166 272 1046 150 C 926 28 787 -33 631 -33 Z M 639 -10 C 721 -10 783 49 823 168 C 863 286 883 437 883 621 C 883 785 867 931 836 1058 C 805 1185 742 1249 647 1249 C 566 1249 506 1190 466 1072 C 426 954 406 802 406 618 C 406 448 421 300 452 176 C 483 52 545 -10 639 -10 Z" unicode="0" />
<glyph horiz-adv-x="879" d="M 86 0 L 86 14 C 104 14 131 17 167 22 C 203 27 231 33 252 39 C 270 43 286 54 299 70 C 312 86 319 106 319 129 L 319 1098 C 275 1094 230 1090 186 1087 C 141 1083 97 1081 53 1081 L 53 1098 C 106 1104 153 1111 194 1117 C 234 1123 291 1136 365 1155 C 425 1170 478 1187 522 1206 C 566 1224 603 1243 633 1262 L 653 1262 C 645 1216 640 1165 638 1111 C 636 1057 635 999 635 938 L 635 139 C 635 111 640 90 650 75 C 660 60 675 49 694 41 C 709 34 734 28 770 23 C 806 17 832 14 850 14 L 850 0 L 86 0 Z" unicode="1" />
<glyph horiz-adv-x="1182" d="M 70 0 L 70 125 C 143 177 221 234 303 294 C 385 354 466 419 545 489 C 630 565 691 644 727 725 C 763 805 782 896 782 997 C 782 1071 765 1132 733 1178 C 701 1224 652 1247 586 1247 C 496 1247 428 1203 382 1115 C 336 1027 313 942 313 860 C 313 800 325 758 351 732 C 376 706 409 694 449 694 C 497 694 537 707 569 734 C 600 761 625 785 645 807 L 657 797 C 627 745 586 695 532 647 C 478 599 412 575 334 575 C 249 575 184 598 139 645 C 94 692 72 751 72 821 C 72 933 125 1037 233 1131 C 340 1225 475 1272 637 1272 C 762 1272 869 1242 958 1184 C 1047 1125 1092 1044 1092 942 C 1092 809 1026 694 894 596 C 762 498 591 402 381 309 L 293 244 L 920 244 C 974 244 1016 267 1048 313 C 1079 359 1105 403 1126 446 L 1143 440 L 1016 0 L 70 0 Z" unicode="2" />
<glyph horiz-adv-x="1141" d="M 461 -55 C 340 -55 235 -32 146 14 C 56 60 12 131 12 229 C 12 300 33 355 77 394 C 121 433 172 453 231 453 C 280 453 318 439 345 413 C 371 387 385 358 385 328 C 385 262 358 217 306 193 C 253 168 227 136 227 98 C 227 71 242 42 274 12 C 305 -17 360 -33 438 -33 C 527 -33 602 5 663 82 C 723 159 754 268 754 408 C 754 485 743 544 722 584 C 701 624 664 645 610 645 C 574 645 539 632 504 607 C 469 581 436 554 406 526 L 373 573 C 481 641 567 705 633 763 C 698 821 731 901 731 1004 C 731 1079 716 1138 688 1181 C 659 1223 619 1245 567 1245 C 491 1245 434 1215 398 1156 C 362 1097 344 1041 344 987 C 344 934 355 895 378 871 C 400 846 428 834 461 834 C 488 834 512 841 533 855 C 553 869 572 886 590 907 L 602 895 C 578 855 540 815 488 777 C 435 738 386 719 340 719 C 264 719 206 738 165 776 C 124 814 104 864 104 926 C 104 1022 156 1104 261 1170 C 365 1236 493 1270 643 1270 C 775 1270 878 1246 952 1198 C 1026 1150 1063 1085 1063 1004 C 1063 914 1023 844 945 792 C 866 740 748 705 590 688 L 563 664 C 569 664 586 666 614 669 C 642 672 660 674 668 674 C 755 674 848 654 946 615 C 1044 576 1094 501 1094 391 C 1094 249 1029 139 900 61 C 771 -16 625 -55 461 -55 Z" unicode="3" />
<glyph horiz-adv-x="1219" d="M 348 0 L 348 16 C 366 16 392 18 425 22 C 457 26 481 30 496 35 C 514 41 529 53 542 71 C 554 89 561 110 561 133 L 561 414 L 20 414 L 20 455 L 700 1286 L 874 1286 L 874 475 L 997 475 C 1018 475 1038 480 1056 491 C 1074 501 1087 516 1096 535 C 1102 549 1109 568 1115 591 C 1121 613 1125 634 1126 653 L 1143 653 L 1143 221 L 1126 221 C 1125 239 1122 261 1118 287 C 1113 313 1108 333 1104 348 C 1098 366 1086 382 1068 395 C 1050 407 1030 414 1008 414 L 874 414 L 874 137 C 874 116 879 96 890 78 C 900 60 915 47 934 39 C 949 32 971 27 1000 23 C 1028 19 1052 16 1071 16 L 1071 0 L 348 0 Z M 82 475 L 561 475 L 561 1059 L 82 475 Z" unicode="4" />
<glyph horiz-adv-x="1096" d="M 442 -29 C 334 -29 237 -8 153 33 C 69 74 27 140 27 231 C 27 291 44 335 78 365 C 112 395 151 410 193 410 C 235 410 271 397 299 372 C 327 346 342 316 342 281 C 342 229 333 189 315 161 C 297 133 281 104 268 76 C 270 53 290 33 326 16 C 362 -1 400 -10 440 -10 C 513 -10 572 34 616 124 C 660 213 682 313 682 424 C 682 524 663 603 626 662 C 589 720 532 750 455 750 C 399 750 341 730 281 691 C 221 651 178 607 152 559 L 123 567 L 279 1262 L 303 1262 C 317 1245 362 1227 436 1209 C 510 1191 587 1182 666 1182 C 737 1182 809 1188 882 1202 C 954 1215 1013 1239 1057 1274 L 1071 1262 C 989 1135 894 1049 784 1005 C 674 960 561 938 444 938 C 420 938 382 939 330 941 C 277 943 248 945 242 946 L 170 631 C 198 658 239 690 293 728 C 347 765 432 784 549 784 C 683 784 796 752 888 689 C 980 626 1026 536 1026 418 C 1026 269 971 157 862 83 C 753 8 613 -29 442 -29 Z" unicode="5" />
<glyph horiz-adv-x="1182" d="M 575 -33 C 439 -33 321 20 222 126 C 123 232 74 381 74 575 C 74 810 142 1012 278 1181 C 414 1349 580 1434 776 1434 C 878 1434 959 1409 1017 1361 C 1075 1313 1104 1256 1104 1190 C 1104 1143 1091 1107 1065 1083 C 1039 1059 1005 1047 963 1047 C 885 1047 835 1073 812 1126 C 788 1178 776 1241 774 1315 C 773 1343 768 1365 759 1381 C 749 1397 730 1405 702 1405 C 628 1405 564 1342 510 1217 C 456 1091 417 926 395 721 L 403 717 C 445 778 494 822 550 849 C 606 875 665 889 727 889 C 831 889 920 850 996 772 C 1072 694 1110 587 1110 451 C 1110 315 1064 200 974 107 C 883 13 750 -33 575 -33 Z M 582 -8 C 646 -8 694 26 727 94 C 759 162 776 278 776 440 C 776 548 761 637 732 708 C 703 779 655 815 588 815 C 528 815 481 780 445 711 C 409 642 391 539 391 403 C 391 283 407 184 441 107 C 475 30 522 -8 582 -8 Z" unicode="6" />
<glyph horiz-adv-x="995" d="M 442 -248 C 397 -248 360 -234 331 -206 C 301 -178 287 -135 287 -76 C 287 -10 305 67 342 158 C 378 249 433 351 506 463 C 568 558 625 641 678 713 C 730 785 792 869 862 965 L 283 965 C 239 965 200 949 166 919 C 132 888 95 826 55 733 L 37 737 L 172 1331 L 184 1331 L 221 1217 L 1049 1217 L 1049 1194 C 981 1108 928 1032 889 965 C 850 898 808 815 764 717 C 726 633 694 530 669 408 C 643 286 626 148 618 -4 C 614 -88 596 -150 566 -189 C 535 -228 494 -248 442 -248 Z" unicode="7" />
<glyph horiz-adv-x="1157" d="M 543 -37 C 407 -37 293 -8 202 49 C 111 106 66 181 66 274 C 66 348 95 409 153 455 C 211 501 276 537 348 565 C 259 607 196 655 160 711 C 124 767 106 829 106 897 C 106 1003 154 1094 251 1170 C 348 1246 462 1284 594 1284 C 721 1284 826 1257 910 1205 C 994 1152 1036 1084 1036 1001 C 1036 933 1007 878 951 837 C 894 796 843 766 797 748 C 907 698 985 646 1032 592 C 1078 538 1102 472 1102 395 C 1102 265 1048 161 941 82 C 834 2 701 -37 543 -37 Z M 592 -10 C 687 -10 759 17 809 71 C 858 125 883 182 883 242 C 883 296 860 340 816 376 C 771 412 702 443 608 471 C 570 482 528 496 483 513 C 437 529 401 543 375 555 C 347 520 325 482 309 442 C 293 402 285 349 285 283 C 285 204 311 135 365 77 C 418 19 494 -10 592 -10 Z M 770 760 C 790 788 806 817 818 847 C 830 876 836 919 836 977 C 836 1047 814 1111 772 1169 C 730 1227 664 1257 575 1257 C 479 1257 412 1233 374 1185 C 336 1137 317 1088 317 1038 C 317 989 339 949 384 918 C 428 886 487 858 559 834 C 595 821 632 807 672 793 C 712 779 744 768 770 760 Z" unicode="8" />
<glyph horiz-adv-x="1182" d="M 385 -215 C 271 -215 184 -193 125 -149 C 66 -105 37 -52 37 12 C 37 54 52 90 82 119 C 112 147 153 162 205 162 C 270 162 311 137 328 89 C 345 40 359 -16 371 -82 C 375 -112 384 -137 396 -156 C 408 -174 429 -184 457 -184 C 543 -184 615 -115 671 20 C 727 156 765 322 784 518 L 776 520 C 733 456 684 412 629 387 C 573 362 515 350 453 350 C 349 350 259 388 183 466 C 107 543 70 650 70 786 C 70 922 116 1037 208 1131 C 300 1225 432 1272 606 1272 C 742 1272 860 1219 959 1114 C 1058 1008 1108 858 1108 664 C 1108 417 1037 209 896 39 C 754 -130 584 -215 385 -215 Z M 594 424 C 651 424 698 458 735 526 C 772 594 791 698 791 836 C 791 956 773 1055 737 1132 C 701 1208 655 1247 600 1247 C 536 1247 488 1212 456 1143 C 424 1074 408 959 408 797 C 408 686 423 596 454 527 C 485 458 532 424 594 424 Z" unicode="9" />
<glyph horiz-adv-x="610" d="M 305 -23 C 257 -23 215 -6 181 26 C 146 59 129 100 129 150 C 129 198 146 239 181 273 C 215 307 257 324 305 324 C 351 324 392 307 427 273 C 461 239 479 198 479 150 C 479 100 461 59 427 26 C 392 -6 351 -23 305 -23 Z M 305 604 C 257 604 215 620 181 654 C 146 688 129 729 129 778 C 129 826 146 866 181 900 C 215 933 257 950 305 950 C 351 950 392 933 427 900 C 461 866 479 826 479 778 C 479 729 461 688 427 654 C 392 620 351 604 305 604 Z" unicode=":" />
<glyph horiz-adv-x="610" d="M 152 -381 L 141 -362 C 208 -326 263 -276 305 -212 C 347 -148 371 -76 377 2 L 307 2 C 235 2 186 19 160 54 C 134 88 121 126 121 166 C 121 202 135 237 163 271 C 191 305 229 322 279 322 C 349 322 401 297 436 249 C 471 201 489 137 489 59 C 489 -40 453 -129 382 -208 C 310 -286 234 -344 152 -381 Z M 305 604 C 257 604 215 620 181 654 C 146 688 129 729 129 778 C 129 826 146 866 181 900 C 215 933 257 950 305 950 C 351 950 392 933 427 900 C 461 866 479 826 479 778 C 479 729 461 688 427 654 C 392 620 351 604 305 604 Z" unicode=";" />
<glyph horiz-adv-x="1159" d="M 1024 66 L 119 492 L 119 573 L 1024 999 L 1024 895 L 250 532 L 1024 170 L 1024 66 Z" unicode="&#x3C;" />
<glyph horiz-adv-x="1159" d="M 127 313 L 127 414 L 1032 414 L 1032 313 L 127 313 Z M 127 651 L 127 752 L 1032 752 L 1032 651 L 127 651 Z" unicode="=" />
<glyph horiz-adv-x="1159" d="M 135 66 L 135 170 L 907 532 L 135 895 L 135 999 L 1040 573 L 1040 492 L 135 66 Z" unicode="&#x3E;" />
<glyph horiz-adv-x="1032" d="M 412 426 L 403 807 C 490 815 558 845 607 895 C 655 945 680 1019 680 1116 C 680 1198 665 1268 636 1324 C 606 1380 555 1409 483 1409 C 449 1409 416 1402 386 1390 C 355 1378 334 1364 322 1350 C 334 1328 348 1300 366 1266 C 384 1231 393 1197 393 1163 C 393 1111 378 1069 348 1039 C 318 1008 279 993 229 993 C 174 993 134 1009 108 1042 C 82 1074 70 1114 70 1161 C 70 1231 111 1294 193 1349 C 275 1404 376 1432 496 1432 C 628 1432 738 1396 824 1326 C 910 1255 954 1156 954 1030 C 954 896 907 788 815 705 C 723 621 600 575 446 567 L 436 426 L 412 426 Z M 436 -27 C 387 -27 345 -9 310 25 C 275 60 258 102 258 152 C 258 200 275 242 310 278 C 345 314 387 332 436 332 C 485 332 527 314 562 278 C 596 242 614 200 614 152 C 614 102 596 60 562 25 C 527 -9 485 -27 436 -27 Z" unicode="?" />
<glyph horiz-adv-x="2105" d="M 1053 -440 C 811 -440 607 -366 441 -218 C 275 -70 193 124 193 367 C 193 649 294 883 498 1067 C 702 1251 934 1343 1194 1343 C 1384 1343 1544 1284 1672 1168 C 1800 1052 1864 890 1864 684 C 1864 520 1819 376 1731 253 C 1642 129 1534 68 1407 68 C 1345 68 1292 82 1248 110 C 1204 138 1182 180 1180 236 L 1174 238 C 1145 192 1111 152 1072 120 C 1032 88 990 72 944 72 C 893 72 844 92 796 133 C 748 174 725 244 725 342 C 725 461 770 579 861 696 C 952 813 1060 872 1186 872 C 1222 872 1253 860 1279 837 C 1305 813 1321 784 1327 748 L 1333 748 L 1374 860 L 1567 860 L 1372 303 C 1366 286 1360 267 1355 245 C 1350 223 1348 202 1348 184 C 1348 158 1354 137 1366 119 C 1378 101 1398 92 1427 92 C 1522 92 1611 150 1693 268 C 1775 385 1817 528 1817 696 C 1817 877 1756 1020 1636 1125 C 1515 1229 1370 1282 1200 1282 C 999 1282 823 1196 671 1026 C 519 855 444 639 444 377 C 444 143 506 -38 632 -169 C 758 -299 921 -365 1122 -365 C 1304 -365 1467 -315 1612 -217 C 1756 -119 1866 34 1942 242 L 1962 236 C 1888 4 1770 -165 1607 -275 C 1443 -385 1259 -440 1053 -440 Z M 987 115 C 1025 115 1061 134 1094 173 C 1127 211 1157 254 1184 301 L 1317 696 C 1307 750 1292 788 1270 810 C 1248 832 1222 844 1192 844 C 1121 844 1056 776 998 640 C 940 504 911 379 911 266 C 911 206 919 165 936 145 C 952 125 969 115 987 115 Z" unicode="@" />
<glyph horiz-adv-x="1399" d="M -74 0 L -74 14 C -55 16 -36 17 -16 19 C 3 21 21 27 39 39 C 64 55 86 77 104 105 C 122 133 138 164 154 199 C 189 277 275 478 412 802 C 549 1126 635 1332 670 1421 L 784 1421 C 832 1301 921 1067 1051 721 C 1181 374 1255 179 1274 135 C 1282 114 1291 96 1302 80 C 1313 64 1331 51 1356 39 C 1372 31 1390 25 1410 22 C 1429 18 1447 16 1464 14 L 1464 0 L 709 0 L 709 14 C 743 16 787 22 843 31 C 898 39 926 56 926 82 C 926 90 925 98 923 106 C 921 114 920 120 918 125 L 778 498 L 322 498 C 315 481 296 433 265 354 C 234 275 217 229 213 217 C 204 190 197 165 191 143 C 185 121 182 103 182 90 C 182 54 214 33 278 27 C 342 21 391 16 426 14 L 426 0 L -74 0 Z M 338 537 L 764 537 L 559 1067 L 338 537 Z" unicode="A" />
<glyph horiz-adv-x="1386" d="M 25 0 L 25 14 C 41 16 68 18 105 21 C 142 24 167 28 180 33 C 204 41 221 54 229 72 C 237 90 242 110 242 133 L 242 1260 C 242 1282 237 1302 229 1320 C 221 1337 204 1351 180 1362 C 161 1370 134 1375 100 1377 C 66 1379 41 1382 25 1384 L 25 1399 L 756 1399 C 916 1399 1041 1375 1132 1328 C 1222 1280 1268 1200 1268 1087 C 1268 990 1229 916 1152 864 C 1075 812 982 778 874 762 L 874 743 C 986 741 1092 709 1191 648 C 1289 586 1339 497 1339 379 C 1339 237 1284 138 1174 83 C 1064 27 914 0 723 0 L 25 0 Z M 731 20 C 804 20 863 57 908 131 C 952 205 975 290 975 387 C 975 487 948 568 894 632 C 840 695 763 727 662 727 C 650 727 636 726 619 724 C 602 722 590 721 582 721 L 582 106 C 586 82 602 62 628 45 C 654 28 688 20 731 20 Z M 582 754 L 621 754 C 720 754 793 784 839 845 C 885 906 909 979 909 1065 C 909 1153 886 1227 841 1287 C 796 1346 737 1376 664 1376 C 652 1376 639 1375 623 1374 C 607 1373 594 1372 582 1372 L 582 754 Z" unicode="B" />
<glyph horiz-adv-x="1339" d="M 743 -31 C 549 -31 384 32 248 158 C 111 284 43 459 43 684 C 43 904 112 1084 250 1224 C 388 1364 562 1434 772 1434 C 851 1434 927 1424 999 1405 C 1071 1386 1130 1365 1176 1341 L 1235 1417 L 1257 1417 L 1266 893 L 1241 893 C 1187 1066 1119 1195 1038 1280 C 957 1364 872 1407 782 1407 C 654 1407 563 1341 507 1209 C 451 1077 424 913 424 719 C 424 506 455 341 519 223 C 582 105 683 47 821 47 C 925 47 1018 76 1099 136 C 1179 196 1246 276 1298 377 L 1321 367 C 1276 259 1206 165 1110 87 C 1014 8 891 -31 743 -31 Z" unicode="C" />
<glyph horiz-adv-x="1556" d="M 39 0 L 39 14 C 67 16 95 18 122 22 C 148 25 168 29 180 33 C 204 41 221 53 229 69 C 237 85 242 104 242 127 L 242 1264 C 242 1286 237 1307 229 1325 C 221 1343 204 1356 180 1364 C 163 1368 142 1372 116 1376 C 90 1379 64 1382 39 1384 L 39 1399 C 155 1399 289 1399 440 1399 C 591 1399 683 1399 715 1399 C 949 1399 1140 1337 1289 1213 C 1438 1089 1513 915 1513 690 C 1513 478 1438 310 1289 186 C 1140 62 944 0 702 0 C 672 0 582 0 432 0 C 282 0 151 0 39 0 Z M 748 23 C 876 23 972 78 1035 190 C 1098 302 1130 469 1130 692 C 1130 904 1092 1071 1016 1193 C 940 1315 839 1376 711 1376 C 692 1376 671 1375 647 1374 C 623 1373 602 1372 584 1372 L 584 154 C 584 110 598 77 627 55 C 655 33 696 23 748 23 Z" unicode="D" />
<glyph horiz-adv-x="1339" d="M 39 0 L 39 14 C 67 16 95 18 122 22 C 148 25 168 29 180 33 C 204 41 221 53 229 69 C 237 85 242 104 242 127 L 242 1264 C 242 1286 237 1307 229 1325 C 221 1343 204 1356 180 1364 C 163 1368 142 1372 116 1376 C 90 1379 64 1382 39 1384 L 39 1399 L 1229 1399 L 1229 1032 L 1206 1032 C 1191 1078 1153 1144 1093 1228 C 1033 1312 976 1357 922 1364 C 897 1366 869 1369 839 1371 C 808 1373 777 1374 745 1374 L 584 1374 L 584 737 L 717 737 C 773 737 813 743 839 757 C 864 770 883 783 897 797 C 918 818 939 852 960 899 C 980 946 993 984 997 1012 L 1020 1012 L 1020 428 L 997 428 C 993 460 979 500 957 550 C 934 600 914 634 897 653 C 882 668 862 682 836 694 C 810 706 771 713 717 713 L 584 713 L 584 199 C 584 124 596 76 622 56 C 648 35 707 25 801 25 C 857 25 910 27 961 31 C 1012 35 1050 49 1075 74 C 1117 114 1162 174 1211 253 C 1259 331 1294 390 1315 428 L 1333 428 L 1307 0 L 39 0 Z" unicode="E" />
<glyph horiz-adv-x="1243" d="M 25 0 L 25 14 C 41 16 68 18 104 21 C 140 24 166 28 180 33 C 204 41 221 54 229 72 C 237 90 242 110 242 133 L 242 1264 C 242 1286 238 1306 230 1323 C 222 1339 205 1353 180 1364 C 160 1370 134 1375 100 1377 C 66 1379 41 1382 25 1384 L 25 1399 L 1245 1399 L 1245 1028 L 1227 1028 C 1210 1074 1176 1136 1124 1215 C 1072 1293 1019 1341 967 1358 C 943 1364 915 1369 881 1371 C 847 1373 814 1374 782 1374 L 584 1374 L 584 729 L 715 729 C 769 729 810 735 836 747 C 862 759 881 771 895 784 C 917 806 939 842 959 890 C 979 938 993 977 999 1006 L 1020 1006 L 1020 414 L 999 414 C 991 445 978 484 960 532 C 942 580 920 618 895 647 C 880 663 859 677 833 688 C 807 699 767 705 715 705 L 584 705 L 584 135 C 584 112 588 92 597 75 C 606 58 622 45 645 35 C 657 30 681 26 715 22 C 749 18 775 16 795 14 L 795 0 L 25 0 Z" unicode="F" />
<glyph horiz-adv-x="1509" d="M 723 -31 C 523 -31 359 31 233 157 C 106 282 43 457 43 682 C 43 907 113 1089 253 1227 C 393 1365 571 1434 788 1434 C 868 1434 946 1425 1021 1407 C 1096 1389 1157 1367 1204 1341 L 1272 1417 L 1292 1417 L 1300 899 L 1276 899 C 1222 1055 1155 1179 1075 1271 C 994 1363 904 1409 805 1409 C 667 1409 569 1343 511 1213 C 453 1082 424 917 424 719 C 424 493 455 316 517 188 C 579 60 663 -4 770 -4 C 827 -4 879 10 927 40 C 975 70 1009 112 1030 168 L 1030 473 C 1029 497 1024 519 1015 538 C 1005 557 987 572 961 584 C 940 592 915 598 886 601 C 856 603 833 605 817 606 L 817 623 L 1532 623 L 1532 606 C 1512 604 1492 602 1472 600 C 1451 598 1431 594 1413 588 C 1388 578 1372 564 1364 546 C 1356 528 1352 507 1352 485 L 1352 -18 L 1335 -25 L 1200 106 C 1136 68 1064 35 983 9 C 902 -17 815 -31 723 -31 Z" unicode="G" />
<glyph horiz-adv-x="1708" d="M 39 0 L 39 14 C 67 16 95 18 122 22 C 148 25 168 29 180 33 C 204 41 221 53 229 69 C 237 85 242 104 242 127 L 242 1264 C 242 1286 237 1307 229 1325 C 221 1343 204 1356 180 1364 C 163 1368 142 1372 116 1376 C 90 1379 64 1382 39 1384 L 39 1399 L 788 1399 L 788 1384 C 771 1382 747 1379 717 1377 C 686 1374 662 1370 645 1366 C 620 1359 604 1346 596 1328 C 588 1309 584 1288 584 1266 L 584 748 L 1124 748 L 1124 1264 C 1124 1286 1119 1306 1111 1324 C 1102 1342 1086 1355 1063 1364 C 1046 1370 1023 1374 993 1377 C 963 1379 940 1382 922 1384 L 922 1399 L 1669 1399 L 1669 1384 C 1644 1382 1619 1379 1593 1376 C 1567 1373 1546 1370 1530 1366 C 1504 1360 1487 1347 1479 1328 C 1470 1309 1466 1288 1466 1266 L 1466 133 C 1466 110 1470 90 1479 72 C 1487 54 1504 41 1530 33 C 1542 29 1561 25 1589 22 C 1617 18 1643 16 1669 14 L 1669 0 L 922 0 L 922 14 C 938 14 962 17 994 21 C 1025 25 1048 29 1063 33 C 1088 39 1104 51 1112 68 C 1120 84 1124 104 1124 127 L 1124 709 L 584 709 L 584 131 C 584 108 588 88 597 71 C 605 53 621 41 645 33 C 657 29 678 25 708 22 C 738 18 764 16 788 14 L 788 0 L 39 0 Z" unicode="H" />
<glyph horiz-adv-x="834" d="M 39 0 L 39 14 C 67 16 96 18 124 22 C 152 25 172 29 184 33 C 208 41 225 53 233 69 C 241 85 246 104 246 127 L 246 1264 C 246 1286 241 1307 233 1325 C 225 1343 208 1356 184 1364 C 168 1368 146 1372 118 1376 C 90 1379 64 1382 39 1384 L 39 1399 L 795 1399 L 795 1384 C 777 1382 753 1379 722 1377 C 690 1374 666 1370 649 1366 C 624 1359 608 1346 600 1328 C 592 1309 588 1288 588 1266 L 588 131 C 588 108 592 88 601 71 C 609 53 625 41 649 33 C 661 29 683 25 714 22 C 744 18 771 16 795 14 L 795 0 L 39 0 Z" unicode="I" />
<glyph horiz-adv-x="1077" d="M 354 -37 C 225 -37 131 -12 71 35 C 11 83 -18 145 -18 219 C -18 279 0 325 35 359 C 71 393 118 410 176 410 C 232 410 275 393 307 359 C 338 325 354 278 354 219 C 354 179 341 139 315 101 C 289 63 255 35 213 18 L 213 8 C 221 4 234 0 250 -3 C 266 -6 280 -8 291 -8 C 369 -8 427 22 465 82 C 503 142 522 230 522 344 L 522 1255 C 522 1277 517 1297 508 1315 C 498 1333 482 1347 459 1358 C 440 1366 414 1371 381 1375 C 348 1379 322 1382 303 1384 L 303 1399 L 1069 1399 L 1069 1384 C 1049 1382 1025 1380 996 1378 C 967 1376 943 1372 924 1366 C 899 1358 882 1345 874 1327 C 866 1309 862 1288 862 1266 L 862 426 C 862 277 811 163 710 83 C 608 3 490 -37 354 -37 Z" unicode="J" />
<glyph horiz-adv-x="1569" d="M 39 0 L 39 14 C 57 16 82 18 114 21 C 146 24 168 28 180 33 C 204 41 221 52 229 66 C 237 80 242 98 242 121 L 242 1264 C 242 1286 237 1306 229 1323 C 221 1339 204 1353 180 1364 C 161 1372 137 1376 109 1378 C 81 1380 57 1382 39 1384 L 39 1399 L 786 1399 L 786 1384 C 769 1382 746 1379 716 1377 C 686 1374 662 1370 645 1366 C 620 1359 604 1346 596 1328 C 588 1309 584 1288 584 1266 L 584 709 L 614 709 C 741 821 862 940 976 1066 C 1090 1192 1147 1276 1147 1317 C 1147 1337 1127 1352 1087 1362 C 1047 1372 1004 1379 958 1384 L 958 1399 L 1528 1399 L 1528 1384 C 1455 1378 1393 1365 1343 1345 C 1293 1325 1248 1297 1210 1260 C 1132 1182 1070 1120 1026 1072 C 981 1024 925 968 858 903 C 932 806 1008 698 1085 580 C 1162 462 1247 337 1341 207 C 1359 181 1382 152 1409 119 C 1436 86 1466 61 1499 45 C 1517 36 1538 29 1560 24 C 1582 19 1603 16 1622 14 L 1622 0 L 856 0 L 856 14 C 898 19 930 26 951 36 C 972 46 983 65 983 94 C 983 122 950 191 885 300 C 820 409 730 534 616 674 L 584 674 L 584 135 C 584 112 588 92 596 74 C 604 56 620 43 643 33 C 655 28 674 24 700 21 C 726 18 749 16 770 14 L 770 0 L 39 0 Z" unicode="K" />
<glyph horiz-adv-x="1272" d="M 25 0 L 25 14 C 41 16 68 18 106 21 C 143 24 168 28 180 33 C 204 43 221 56 229 74 C 237 92 242 112 242 135 L 242 1262 C 242 1284 238 1304 230 1321 C 222 1337 205 1351 180 1362 C 160 1370 134 1375 100 1377 C 66 1379 41 1382 25 1384 L 25 1399 L 793 1399 L 793 1384 C 774 1382 750 1381 720 1381 C 690 1381 665 1378 647 1372 C 622 1364 605 1351 597 1333 C 588 1315 584 1294 584 1272 L 584 201 C 584 121 597 72 624 53 C 650 34 709 25 801 25 C 851 25 898 28 942 36 C 985 43 1016 56 1036 76 C 1070 110 1113 167 1165 247 C 1216 327 1255 392 1282 442 L 1298 442 L 1272 0 L 25 0 Z" unicode="L" />
<glyph horiz-adv-x="1876" d="M -8 0 L -8 14 C 9 16 38 17 79 19 C 120 20 152 29 176 47 C 199 64 216 95 226 141 C 236 187 242 248 242 326 L 242 1169 C 242 1211 236 1246 226 1274 C 216 1302 200 1325 180 1341 C 156 1360 127 1371 93 1375 C 59 1379 28 1382 2 1384 L 2 1399 L 561 1399 L 936 471 L 1231 1225 C 1245 1260 1256 1295 1263 1330 C 1269 1364 1273 1387 1274 1399 L 1835 1399 L 1835 1384 C 1817 1382 1793 1379 1762 1376 C 1730 1372 1706 1368 1688 1362 C 1663 1354 1646 1341 1638 1323 C 1630 1305 1626 1284 1626 1262 L 1626 141 C 1626 118 1630 98 1640 82 C 1649 65 1665 51 1688 41 C 1698 35 1720 29 1754 23 C 1788 17 1815 14 1837 14 L 1837 0 L 1059 0 L 1059 14 C 1076 16 1104 18 1143 22 C 1181 25 1208 30 1223 37 C 1246 49 1263 63 1273 80 C 1283 97 1288 117 1288 141 L 1288 1270 L 797 23 L 741 23 C 735 44 720 89 697 159 C 673 229 656 278 645 307 L 276 1227 L 276 328 C 276 248 281 187 292 144 C 303 101 320 70 344 51 C 361 37 394 27 442 23 C 490 19 524 16 543 14 L 543 0 L -8 0 Z" unicode="M" />
<glyph horiz-adv-x="1487" d="M 1169 -6 L 276 1169 L 276 328 C 276 247 281 185 293 141 C 304 97 321 66 344 47 C 361 32 392 23 438 21 C 484 18 515 16 532 14 L 532 0 L -8 0 L -8 14 C 8 16 37 18 78 18 C 118 18 151 28 176 47 C 199 64 216 96 226 142 C 236 188 242 250 242 328 L 242 1145 C 242 1176 237 1205 227 1232 C 217 1259 200 1284 178 1307 C 156 1328 128 1343 94 1353 C 60 1362 24 1371 -14 1380 L -14 1399 L 510 1399 L 1225 455 L 1225 1065 C 1225 1143 1219 1205 1207 1250 C 1195 1294 1177 1326 1155 1346 C 1138 1360 1106 1369 1060 1374 C 1013 1378 981 1382 965 1384 L 965 1399 L 1511 1399 L 1511 1384 C 1495 1381 1466 1378 1424 1376 C 1382 1374 1349 1364 1325 1346 C 1302 1328 1285 1296 1275 1250 C 1265 1203 1260 1142 1260 1067 L 1260 -6 L 1169 -6 Z" unicode="N" />
<glyph horiz-adv-x="1554" d="M 770 -33 C 672 -33 578 -16 490 16 C 401 48 324 96 258 158 C 192 220 139 295 101 385 C 62 474 43 574 43 684 C 43 806 64 915 106 1011 C 148 1107 206 1187 279 1251 C 344 1309 419 1353 505 1385 C 590 1416 681 1432 778 1432 C 874 1432 965 1416 1053 1386 C 1141 1356 1218 1311 1284 1251 C 1352 1189 1406 1112 1448 1021 C 1490 929 1511 825 1511 709 C 1511 595 1491 489 1451 391 C 1411 293 1354 210 1280 143 C 1216 85 1141 41 1056 11 C 971 -18 876 -33 770 -33 Z M 778 -8 C 904 -8 994 59 1047 195 C 1099 330 1126 499 1126 702 C 1126 881 1101 1043 1053 1189 C 1004 1334 912 1407 778 1407 C 662 1407 574 1344 516 1219 C 457 1093 428 918 428 694 C 428 497 454 331 507 195 C 560 59 650 -8 778 -8 Z" unicode="O" />
<glyph horiz-adv-x="1288" d="M 25 0 L 25 14 C 43 14 70 17 107 21 C 143 25 168 30 180 35 C 204 43 221 56 229 74 C 237 92 242 112 242 135 L 242 1262 C 242 1284 238 1304 230 1321 C 222 1337 205 1351 180 1362 C 160 1368 134 1373 100 1376 C 66 1379 41 1382 25 1384 L 25 1399 L 764 1399 C 937 1399 1067 1370 1155 1313 C 1242 1256 1286 1169 1286 1051 C 1286 897 1223 786 1098 717 C 972 648 832 614 676 614 L 584 614 L 584 137 C 584 114 588 94 597 77 C 606 60 622 47 645 37 C 657 32 679 27 711 23 C 742 19 770 16 795 14 L 795 0 L 25 0 Z M 584 641 L 621 641 C 731 641 809 677 853 751 C 897 825 920 908 920 1001 C 920 1103 899 1191 859 1263 C 819 1335 749 1372 649 1372 L 584 1372 L 584 641 Z" unicode="P" />
<glyph horiz-adv-x="1554" d="M 1243 -393 C 1136 -393 1049 -363 983 -303 C 917 -243 876 -151 862 -29 C 848 -29 833 -30 818 -31 C 802 -32 786 -33 770 -33 C 674 -33 582 -17 493 15 C 403 47 326 94 260 156 C 194 218 141 293 102 383 C 62 473 43 573 43 684 C 43 798 62 902 101 994 C 140 1086 192 1165 256 1231 C 321 1297 399 1347 489 1381 C 579 1415 675 1432 778 1432 C 876 1432 969 1415 1058 1383 C 1146 1351 1224 1304 1290 1243 C 1357 1181 1411 1105 1451 1015 C 1491 925 1511 823 1511 709 C 1511 565 1478 433 1412 314 C 1346 195 1252 105 1130 43 C 1158 -46 1195 -109 1241 -146 C 1286 -182 1335 -201 1389 -201 C 1453 -201 1503 -183 1541 -149 C 1579 -114 1603 -69 1614 -14 L 1632 -20 C 1617 -115 1575 -201 1507 -278 C 1439 -354 1351 -393 1243 -393 Z M 1065 184 C 1089 259 1106 344 1114 438 C 1122 532 1126 620 1126 702 C 1126 926 1097 1100 1039 1223 C 981 1345 894 1407 778 1407 C 662 1407 574 1343 516 1216 C 457 1089 428 915 428 694 C 428 616 433 536 444 452 C 455 368 470 298 489 240 C 521 313 561 369 611 408 C 661 447 710 467 758 467 C 827 467 889 443 943 395 C 997 347 1038 277 1065 184 Z M 778 -8 C 794 -8 808 -7 820 -5 C 831 -3 843 0 856 2 C 850 98 833 181 807 251 C 781 321 739 356 682 356 C 652 356 620 346 584 328 C 548 309 520 270 500 211 C 532 136 571 81 617 45 C 663 9 716 -8 778 -8 Z" unicode="Q" />
<glyph horiz-adv-x="1497" d="M 1221 -25 C 1121 -25 1047 2 999 56 C 951 110 920 196 907 315 C 893 436 868 527 832 588 C 795 649 734 680 649 680 L 584 680 L 584 135 C 584 112 588 92 597 75 C 606 58 622 45 645 35 C 657 30 680 26 712 22 C 744 18 770 16 788 14 L 788 0 L 25 0 L 25 14 C 43 14 70 17 107 21 C 143 25 168 30 180 35 C 204 43 221 56 229 74 C 237 91 242 111 242 135 L 242 1257 C 242 1279 238 1299 230 1317 C 222 1335 205 1349 180 1360 C 160 1368 134 1373 100 1376 C 66 1379 41 1382 25 1384 L 25 1399 L 776 1399 C 935 1399 1063 1373 1159 1321 C 1255 1269 1303 1189 1303 1079 C 1303 973 1264 889 1187 829 C 1109 768 1017 729 911 711 L 911 696 C 973 693 1037 675 1101 642 C 1165 608 1208 556 1229 485 C 1245 429 1256 380 1263 338 C 1269 296 1278 251 1288 203 C 1295 171 1307 147 1325 132 C 1342 116 1360 109 1380 109 C 1404 109 1429 123 1454 152 C 1478 180 1491 223 1491 279 L 1491 340 L 1520 340 L 1520 276 C 1520 177 1497 102 1451 51 C 1405 0 1328 -25 1221 -25 Z M 584 709 L 616 709 C 712 709 789 736 847 790 C 905 844 934 929 934 1044 C 934 1146 910 1227 862 1285 C 814 1343 744 1372 651 1372 L 584 1372 L 584 709 Z" unicode="R" />
<glyph horiz-adv-x="1171" d="M 586 -31 C 467 -31 373 -18 304 7 C 234 32 181 55 145 76 L 84 -16 L 59 -16 L 47 500 L 68 500 C 116 363 183 244 270 144 C 357 44 454 -6 561 -6 C 655 -6 723 22 766 80 C 809 137 831 200 831 268 C 831 328 810 380 769 426 C 727 472 669 508 594 535 C 549 549 502 565 453 581 C 403 597 363 611 332 625 C 245 661 181 714 141 785 C 100 856 80 934 80 1020 C 80 1130 123 1226 211 1309 C 298 1392 418 1434 571 1434 C 663 1434 743 1423 811 1403 C 879 1383 930 1362 965 1341 L 1018 1417 L 1042 1417 L 1051 932 L 1030 932 C 984 1060 926 1172 857 1266 C 787 1360 698 1407 590 1407 C 515 1407 458 1382 418 1332 C 378 1282 358 1227 358 1165 C 358 1105 375 1051 411 1005 C 447 959 508 920 596 889 C 636 874 682 859 734 843 C 785 827 827 813 860 799 C 939 765 1002 718 1050 659 C 1098 599 1122 516 1122 408 C 1122 283 1072 179 973 95 C 873 11 744 -31 586 -31 Z" unicode="S" />
<glyph horiz-adv-x="1264" d="M 236 0 L 236 14 C 252 14 280 17 320 21 C 360 25 386 30 399 35 C 422 43 438 57 447 75 C 456 93 461 114 461 137 L 461 1374 L 408 1374 C 384 1374 358 1373 332 1371 C 305 1369 281 1366 260 1364 C 217 1358 168 1310 114 1220 C 59 1130 24 1062 10 1018 L -8 1018 L -8 1399 L 1272 1399 L 1272 1018 L 1253 1018 C 1239 1062 1205 1130 1152 1220 C 1098 1310 1050 1358 1006 1364 C 984 1366 960 1369 934 1371 C 908 1373 882 1374 858 1374 L 803 1374 L 803 141 C 803 118 807 98 816 80 C 825 62 841 49 864 39 C 876 34 902 29 942 24 C 981 19 1010 16 1030 14 L 1030 0 L 236 0 Z" unicode="T" />
<glyph horiz-adv-x="1542" d="M 799 -33 C 610 -33 465 13 365 105 C 265 197 215 318 215 467 L 215 1260 C 215 1282 210 1302 201 1318 C 192 1334 176 1349 154 1362 C 135 1372 111 1377 81 1379 C 51 1380 29 1382 14 1384 L 14 1399 L 764 1399 L 764 1384 C 746 1382 722 1379 692 1377 C 662 1374 639 1370 623 1366 C 597 1358 579 1345 571 1327 C 563 1309 559 1288 559 1266 L 559 446 C 559 306 585 205 639 143 C 693 80 774 49 883 49 C 989 49 1082 85 1161 158 C 1240 230 1280 337 1280 477 L 1280 1069 C 1280 1154 1273 1217 1261 1258 C 1248 1298 1230 1328 1208 1348 C 1192 1362 1161 1371 1116 1375 C 1070 1379 1039 1382 1022 1384 L 1022 1399 L 1567 1399 L 1567 1384 C 1542 1382 1510 1379 1471 1375 C 1431 1371 1401 1362 1380 1346 C 1355 1327 1338 1298 1329 1258 C 1319 1218 1315 1155 1315 1071 L 1315 467 C 1315 303 1265 178 1165 94 C 1065 9 943 -33 799 -33 Z" unicode="U" />
<glyph horiz-adv-x="1370" d="M 616 -16 C 556 142 471 366 362 655 C 253 944 179 1139 139 1239 C 124 1277 110 1306 96 1325 C 82 1344 63 1357 41 1364 C 23 1368 7 1372 -8 1375 C -24 1378 -46 1381 -74 1384 L -74 1399 L 676 1399 L 676 1384 C 602 1377 550 1370 520 1363 C 489 1356 473 1346 473 1333 C 472 1325 473 1316 475 1306 C 477 1296 480 1286 483 1278 C 517 1177 574 1022 653 814 C 731 605 791 448 831 344 C 861 409 914 541 990 740 C 1066 938 1113 1062 1130 1110 C 1142 1144 1154 1179 1166 1216 C 1178 1253 1184 1284 1184 1309 C 1184 1337 1159 1356 1110 1365 C 1061 1373 1010 1379 956 1382 L 956 1399 L 1442 1399 L 1442 1382 C 1419 1381 1400 1379 1384 1377 C 1368 1375 1351 1370 1333 1364 C 1303 1351 1279 1328 1261 1294 C 1242 1260 1225 1224 1210 1188 C 1192 1144 1117 958 985 631 C 853 303 769 88 731 -16 L 616 -16 Z" unicode="V" />
<glyph horiz-adv-x="2079" d="M 549 -16 L 139 1237 C 132 1258 123 1280 111 1302 C 99 1324 82 1342 61 1356 C 43 1366 23 1373 3 1377 C -16 1381 -36 1383 -55 1384 L -55 1399 L 649 1399 L 649 1384 C 615 1381 577 1376 536 1368 C 495 1360 475 1344 475 1321 C 475 1315 476 1304 478 1289 C 480 1274 483 1262 485 1253 C 491 1231 534 1102 612 866 C 690 629 746 460 780 360 L 1014 1004 C 999 1054 978 1119 950 1199 C 922 1279 890 1330 852 1354 C 832 1366 813 1373 793 1377 C 773 1381 754 1383 735 1384 L 735 1399 L 1468 1399 L 1468 1384 C 1434 1381 1391 1376 1341 1369 C 1291 1361 1266 1345 1266 1321 C 1266 1314 1267 1303 1269 1289 C 1271 1274 1273 1262 1276 1253 C 1282 1233 1325 1103 1406 863 C 1486 622 1545 452 1581 352 C 1609 423 1657 553 1724 741 C 1791 929 1831 1041 1843 1079 C 1858 1125 1870 1168 1880 1209 C 1889 1250 1894 1279 1894 1296 C 1894 1332 1865 1355 1808 1364 C 1751 1373 1699 1380 1653 1384 L 1653 1399 L 2152 1399 L 2152 1384 C 2134 1382 2115 1379 2097 1377 C 2079 1375 2058 1368 2036 1356 C 2009 1341 1985 1312 1963 1270 C 1941 1227 1923 1183 1907 1139 C 1886 1083 1819 898 1705 584 C 1591 270 1518 70 1485 -16 L 1350 -16 C 1318 76 1262 246 1183 493 C 1103 739 1053 892 1032 950 L 680 -16 L 549 -16 Z" unicode="W" />
<glyph horiz-adv-x="1524" d="M -33 0 L -33 14 C -4 16 17 18 33 22 C 49 25 66 31 86 39 C 124 54 162 79 200 113 C 238 147 269 179 295 209 C 335 257 394 325 470 414 C 546 502 601 568 635 610 L 260 1196 C 241 1224 218 1255 191 1288 C 164 1321 132 1345 96 1360 C 77 1366 60 1371 46 1375 C 31 1378 7 1381 -25 1384 L -25 1399 L 844 1399 L 844 1384 C 761 1379 701 1371 664 1361 C 626 1350 608 1337 608 1323 C 608 1303 619 1268 643 1218 C 667 1167 693 1119 723 1073 C 731 1058 755 1020 795 960 C 834 899 859 861 870 846 C 902 888 934 929 966 967 C 997 1005 1027 1043 1055 1079 C 1099 1139 1135 1190 1163 1232 C 1190 1274 1204 1306 1204 1327 C 1204 1343 1183 1355 1143 1363 C 1102 1371 1046 1378 975 1384 L 975 1399 L 1518 1399 L 1518 1384 C 1488 1382 1463 1378 1444 1374 C 1425 1370 1411 1366 1403 1362 C 1369 1346 1334 1323 1298 1293 C 1262 1262 1228 1228 1196 1190 C 1174 1164 1129 1110 1060 1026 C 990 942 933 873 889 817 C 925 763 994 655 1095 495 C 1196 334 1259 236 1284 201 C 1307 167 1331 135 1355 105 C 1379 75 1410 53 1446 39 C 1464 32 1481 27 1495 23 C 1509 19 1533 16 1565 14 L 1565 0 L 696 0 L 696 14 C 778 19 837 28 871 42 C 905 55 922 69 922 84 C 922 97 914 121 899 156 C 884 191 861 235 831 287 C 818 309 789 357 745 431 C 701 504 670 553 653 578 C 623 541 590 499 552 453 C 514 406 478 361 444 317 C 410 271 374 223 338 174 C 301 125 283 92 283 76 C 283 60 302 48 341 38 C 379 28 435 20 508 14 L 508 0 L -33 0 Z" unicode="X" />
<glyph horiz-adv-x="1401" d="M 297 0 L 297 14 C 315 14 344 16 384 19 C 423 21 449 25 463 31 C 487 39 504 53 513 71 C 521 89 526 110 526 133 L 526 453 C 526 497 522 533 515 559 C 507 585 490 624 463 674 C 438 718 388 810 312 948 C 236 1086 187 1174 166 1210 C 147 1240 127 1269 105 1295 C 83 1321 60 1341 37 1356 C 18 1366 0 1373 -18 1377 C -36 1381 -54 1383 -74 1384 L -74 1399 L 727 1399 L 727 1384 C 691 1382 644 1377 588 1370 C 532 1363 504 1350 504 1331 C 504 1324 512 1301 529 1262 C 545 1222 567 1178 594 1128 C 604 1106 642 1036 706 916 C 770 796 821 705 860 641 C 890 695 928 765 976 851 C 1024 937 1067 1017 1106 1090 C 1140 1155 1166 1206 1183 1242 C 1199 1278 1208 1302 1208 1313 C 1208 1340 1183 1358 1135 1367 C 1086 1375 1039 1381 993 1384 L 993 1399 L 1458 1399 L 1458 1384 C 1433 1381 1412 1378 1396 1374 C 1379 1370 1364 1364 1350 1356 C 1321 1339 1296 1317 1275 1289 C 1254 1261 1235 1232 1217 1202 C 1165 1117 1120 1040 1081 970 C 1041 900 996 818 944 723 C 909 659 888 607 880 567 C 872 527 868 475 868 412 L 868 137 C 868 115 872 95 882 77 C 891 59 907 45 930 35 C 942 30 968 25 1008 21 C 1048 17 1076 14 1094 14 L 1094 0 L 297 0 Z" unicode="Y" />
<glyph horiz-adv-x="1282" d="M -8 0 L -8 20 L 870 1374 L 596 1374 C 540 1374 496 1371 464 1367 C 432 1363 406 1356 385 1348 C 356 1335 312 1293 253 1223 C 193 1152 138 1073 88 987 L 66 987 L 106 1399 L 1262 1399 L 1262 1378 L 383 25 L 686 25 C 796 25 872 29 915 38 C 957 47 988 63 1008 86 C 1047 132 1092 191 1143 264 C 1193 336 1233 401 1262 457 L 1282 457 L 1235 0 L -8 0 Z" unicode="Z" />
<glyph horiz-adv-x="1159" d="M 993 -410 L 983 -406 C 991 -395 998 -381 1006 -364 C 1014 -347 1018 -330 1018 -313 C 1018 -289 1007 -267 986 -247 C 964 -227 912 -217 829 -217 C 727 -217 630 -225 536 -241 C 442 -257 329 -279 199 -309 L 152 -326 L 152 1489 L 199 1473 C 329 1443 442 1420 536 1404 C 630 1388 727 1380 829 1380 C 912 1380 964 1389 986 1409 C 1007 1428 1018 1451 1018 1477 C 1018 1493 1014 1510 1007 1526 C 1000 1542 993 1555 985 1567 L 995 1573 C 1006 1564 1018 1546 1032 1519 C 1046 1492 1053 1463 1053 1432 C 1053 1356 1030 1294 986 1244 C 942 1194 873 1169 780 1169 C 683 1169 592 1197 506 1254 C 420 1311 325 1374 221 1442 L 221 -279 C 325 -210 420 -147 506 -91 C 592 -34 683 -6 780 -6 C 873 -6 942 -30 986 -80 C 1030 -130 1053 -192 1053 -268 C 1053 -300 1045 -330 1031 -357 C 1016 -383 1003 -401 993 -410 Z" unicode="[" />
<glyph horiz-adv-x="831" d="M 702 -428 L 61 1520 L 129 1540 L 768 -408 L 702 -428 Z" unicode="\" />
<glyph horiz-adv-x="1159" d="M 184 -410 C 174 -401 161 -383 147 -357 C 132 -330 125 -300 125 -268 C 125 -192 147 -130 191 -80 C 235 -30 304 -6 397 -6 C 493 -6 584 -34 671 -91 C 757 -147 852 -210 956 -279 L 956 1442 C 852 1374 757 1311 671 1254 C 584 1197 493 1169 397 1169 C 304 1169 235 1194 191 1244 C 147 1294 125 1356 125 1432 C 125 1463 131 1492 145 1519 C 158 1546 170 1564 180 1573 L 193 1567 C 184 1555 176 1542 170 1526 C 163 1510 160 1493 160 1477 C 160 1451 170 1428 191 1409 C 212 1389 264 1380 348 1380 C 450 1380 548 1388 642 1404 C 736 1420 848 1443 979 1473 L 1026 1489 L 1026 -326 L 979 -309 C 847 -279 735 -257 641 -241 C 547 -225 450 -217 348 -217 C 264 -217 212 -227 191 -247 C 170 -267 160 -289 160 -313 C 160 -330 163 -347 171 -364 C 178 -381 186 -395 195 -406 L 184 -410 Z" unicode="]" />
<glyph horiz-adv-x="922" d="M 459 1272 C 497 1272 525 1266 542 1256 C 558 1245 573 1231 586 1214 C 614 1172 657 1107 714 1019 C 770 931 819 854 860 788 L 846 778 L 461 1059 L 76 778 L 61 788 C 101 854 150 931 207 1019 C 264 1107 307 1172 336 1214 C 348 1231 361 1245 376 1256 C 390 1266 418 1272 459 1272 Z" unicode="^" />
<glyph horiz-adv-x="1227" d="M -12 -315 L -12 -217 L 1237 -217 L 1237 -315 L -12 -315 Z" unicode="_" />
<glyph horiz-adv-x="1024" d="M 676 1092 C 606 1136 545 1174 491 1205 C 437 1235 394 1260 360 1280 C 316 1305 282 1329 259 1351 C 236 1373 225 1404 225 1442 C 225 1468 235 1492 256 1514 C 276 1535 306 1546 344 1546 C 378 1546 407 1535 431 1513 C 455 1491 479 1461 504 1423 C 527 1385 551 1344 577 1300 C 602 1255 639 1190 688 1106 L 676 1092 Z" unicode="`" />
<glyph horiz-adv-x="1032" d="M 289 -31 C 219 -31 161 -8 113 35 C 65 79 41 135 41 203 C 41 269 55 323 85 365 C 114 406 166 440 242 467 C 286 483 347 501 425 522 C 503 543 555 563 582 582 L 582 717 C 582 796 572 855 554 894 C 535 932 505 952 465 952 C 439 952 417 947 397 939 C 377 930 362 921 354 913 C 358 897 366 870 380 833 C 394 795 401 761 401 729 C 401 703 385 677 354 651 C 323 625 283 612 233 612 C 186 612 150 625 124 652 C 98 678 86 712 86 754 C 86 814 128 865 214 908 C 299 951 388 973 481 973 C 638 973 744 947 799 895 C 853 843 881 767 881 666 C 881 572 878 475 874 374 C 870 273 868 206 868 172 C 868 150 874 129 888 108 C 901 86 919 76 942 76 C 972 76 998 93 1018 129 C 1038 164 1048 212 1049 272 L 1073 272 C 1072 179 1051 106 1011 53 C 971 0 908 -27 823 -27 C 761 -27 711 -14 673 10 C 635 35 607 67 588 106 L 582 106 C 547 65 507 32 463 7 C 419 -18 361 -31 289 -31 Z M 455 78 C 482 78 505 83 524 93 C 543 103 560 119 575 143 L 584 549 C 503 519 444 484 407 446 C 370 407 352 345 352 260 C 352 194 362 148 382 120 C 402 92 426 78 455 78 Z" unicode="a" />
<glyph horiz-adv-x="1145" d="M 121 -31 L 106 -25 C 109 15 112 69 115 136 C 117 202 119 272 119 346 L 119 1350 C 119 1372 114 1395 106 1417 C 98 1439 83 1455 63 1466 C 50 1473 29 1478 1 1482 C -27 1486 -50 1488 -68 1489 L -68 1503 L 408 1528 L 416 1520 L 416 844 L 424 842 C 446 867 480 895 524 926 C 568 957 622 973 684 973 C 801 973 897 927 973 837 C 1049 746 1087 623 1087 469 C 1087 325 1042 205 953 111 C 863 16 752 -31 618 -31 C 514 -31 437 -15 386 14 C 335 44 296 70 270 92 L 121 -31 Z M 573 -6 C 640 -6 688 38 717 126 C 745 214 760 324 760 455 C 760 580 746 682 720 761 C 694 839 642 879 565 879 C 534 879 507 872 483 858 C 459 844 437 824 416 799 L 416 145 C 424 113 440 80 464 46 C 488 11 524 -6 573 -6 Z" unicode="b" />
<glyph horiz-adv-x="911" d="M 518 -31 C 354 -31 233 18 155 116 C 76 214 37 334 37 477 C 37 605 79 720 165 821 C 251 922 373 973 532 973 C 648 973 735 950 792 904 C 848 858 877 801 877 733 C 877 692 863 657 837 629 C 810 600 771 586 719 586 C 670 586 631 599 603 626 C 575 653 561 688 561 731 C 561 750 569 779 587 818 C 605 856 616 883 621 899 C 617 914 608 926 594 935 C 579 943 559 948 535 948 C 479 948 436 909 406 832 C 375 755 360 642 360 494 C 360 356 382 251 427 181 C 472 111 530 76 602 76 C 671 76 730 92 779 126 C 827 160 866 208 895 272 L 918 258 C 886 178 834 110 762 54 C 690 -2 609 -31 518 -31 Z" unicode="c" />
<glyph horiz-adv-x="1176" d="M 465 -29 C 347 -29 250 17 173 111 C 95 204 57 329 57 485 C 57 627 101 744 191 836 C 281 927 384 973 502 973 C 556 973 604 966 644 954 C 684 942 714 932 733 924 L 733 1341 C 733 1363 729 1386 721 1408 C 713 1430 700 1447 682 1458 C 663 1469 636 1477 600 1481 C 564 1485 532 1489 504 1491 L 504 1503 L 1014 1528 L 1028 1513 L 1028 162 C 1028 139 1032 120 1042 104 C 1052 88 1064 74 1079 63 C 1090 55 1108 48 1134 42 C 1159 36 1180 33 1198 33 L 1198 20 L 743 -8 L 735 0 L 735 100 L 727 102 C 704 78 670 51 625 19 C 580 -13 527 -29 465 -29 Z M 580 59 C 613 59 641 66 665 81 C 689 96 711 117 733 145 L 733 791 C 725 821 709 854 685 889 C 661 924 625 942 575 942 C 512 942 464 896 432 805 C 399 713 383 601 383 467 C 383 357 397 261 425 180 C 453 99 504 59 580 59 Z" unicode="d" />
<glyph horiz-adv-x="963" d="M 528 -31 C 370 -31 248 15 164 108 C 79 200 37 323 37 477 C 37 615 79 733 165 829 C 251 925 367 973 514 973 C 656 973 762 935 832 861 C 901 787 936 688 936 565 L 936 553 L 356 553 L 356 494 C 356 373 377 272 419 192 C 461 112 531 72 631 72 C 693 72 750 86 802 115 C 854 144 899 194 936 266 L 958 250 C 920 172 865 106 791 51 C 717 -3 630 -31 528 -31 Z M 356 580 L 618 584 C 618 722 609 817 591 869 C 573 921 543 948 500 948 C 453 948 418 912 395 841 C 371 769 358 682 356 580 Z" unicode="e" />
<glyph horiz-adv-x="668" d="M 27 0 L 27 14 C 43 14 59 16 73 19 C 87 21 101 25 115 31 C 133 37 147 48 155 64 C 163 79 168 98 168 121 L 168 913 L -29 913 L -29 946 L 168 946 L 168 983 C 168 1065 178 1140 199 1207 C 220 1273 256 1333 307 1386 C 349 1430 399 1465 455 1491 C 511 1517 577 1530 653 1530 C 764 1530 839 1506 878 1460 C 916 1414 936 1367 936 1319 C 936 1288 923 1256 897 1224 C 871 1192 834 1176 786 1176 C 754 1176 722 1185 688 1204 C 654 1222 637 1254 637 1298 C 637 1322 641 1348 651 1376 C 660 1404 668 1432 674 1462 C 674 1474 668 1485 657 1494 C 645 1502 633 1507 621 1507 C 569 1507 530 1473 506 1406 C 482 1338 467 1238 463 1106 C 462 1086 462 1055 462 1011 C 462 967 463 946 463 946 L 713 946 L 713 913 L 465 913 L 465 125 C 465 103 469 85 478 69 C 487 53 501 41 520 35 C 535 29 556 24 584 20 C 611 16 633 14 651 14 L 651 0 L 27 0 Z" unicode="f" />
<glyph horiz-adv-x="1028" d="M 485 -467 C 311 -467 187 -443 113 -397 C 39 -351 2 -290 2 -215 C 2 -159 29 -114 84 -78 C 138 -42 220 -22 328 -18 L 328 -10 C 278 4 229 26 180 57 C 130 87 106 131 106 188 C 106 246 130 287 179 313 C 228 338 276 355 324 365 L 324 373 C 236 399 169 438 124 488 C 79 538 57 596 57 662 C 57 770 104 848 198 898 C 292 948 387 973 483 973 C 548 973 602 967 646 957 C 689 946 719 936 737 926 C 762 991 792 1043 828 1081 C 863 1119 903 1139 948 1139 C 976 1139 1002 1129 1026 1110 C 1049 1090 1061 1064 1061 1030 C 1061 997 1051 970 1031 948 C 1011 926 986 915 954 915 C 923 915 898 923 878 939 C 858 955 840 978 825 1006 C 812 1000 799 989 787 972 C 775 955 766 938 760 922 L 760 915 C 808 883 845 843 870 794 C 894 745 907 697 907 651 C 907 559 865 487 783 435 C 700 382 606 356 502 356 L 344 356 C 331 347 320 337 311 325 C 301 313 297 301 297 289 C 297 248 315 225 351 221 C 387 216 432 213 487 211 L 754 201 C 817 198 880 172 944 122 C 1008 72 1040 -1 1040 -98 C 1040 -200 995 -287 905 -359 C 815 -431 675 -467 485 -467 Z M 532 -444 C 627 -444 698 -417 745 -363 C 791 -309 815 -246 815 -174 C 815 -151 807 -127 793 -102 C 779 -77 753 -58 717 -45 C 698 -42 648 -40 568 -38 C 487 -36 412 -35 342 -35 C 320 -45 298 -65 276 -94 C 253 -122 242 -163 242 -215 C 242 -282 266 -337 315 -380 C 364 -422 436 -444 532 -444 Z M 483 375 C 532 375 566 400 586 450 C 606 500 616 570 616 659 C 616 734 606 801 587 861 C 567 920 532 950 481 950 C 431 950 397 922 381 868 C 364 813 356 746 356 666 C 356 568 366 495 388 447 C 409 399 441 375 483 375 Z" unicode="g" />
<glyph horiz-adv-x="1190" d="M 18 0 L 18 14 C 34 14 50 15 65 17 C 79 19 93 22 106 27 C 124 33 137 42 145 54 C 152 66 156 83 156 106 L 156 1350 C 156 1376 151 1399 143 1417 C 135 1435 123 1450 109 1460 C 96 1468 73 1475 40 1481 C 6 1487 -18 1490 -35 1491 L -35 1503 L 442 1528 L 451 1520 L 451 805 L 457 805 C 493 843 532 881 576 918 C 620 954 684 973 770 973 C 870 973 941 943 985 885 C 1029 826 1051 748 1051 651 L 1051 115 C 1051 92 1053 74 1058 61 C 1062 47 1074 37 1094 31 C 1108 25 1122 22 1136 20 C 1150 18 1167 16 1186 14 L 1186 0 L 643 0 L 643 14 C 656 14 669 16 683 18 C 696 20 708 24 719 29 C 733 33 742 44 745 60 C 748 76 750 96 750 119 L 750 664 C 750 734 737 782 712 808 C 686 834 656 848 621 848 C 577 848 540 838 511 819 C 481 799 461 779 451 758 L 451 117 C 451 94 452 76 456 62 C 460 48 468 39 481 33 C 494 26 507 22 521 20 C 535 18 549 16 563 14 L 563 0 L 18 0 Z" unicode="h" />
<glyph horiz-adv-x="608" d="M 27 0 L 27 14 C 43 14 59 15 73 17 C 87 18 101 21 115 27 C 133 33 147 45 155 61 C 163 77 168 95 168 117 L 168 795 C 168 817 163 837 155 854 C 146 871 133 885 117 897 C 104 905 85 911 61 916 C 36 920 14 923 -4 924 L -4 936 L 457 961 L 465 952 L 465 115 C 465 93 467 76 473 62 C 479 48 491 37 510 29 C 524 21 541 17 560 16 C 579 14 595 14 608 14 L 608 0 L 27 0 Z M 293 1163 C 243 1163 200 1179 165 1213 C 130 1247 113 1289 113 1339 C 113 1390 130 1432 165 1466 C 200 1499 243 1516 293 1516 C 343 1516 385 1499 419 1465 C 453 1431 471 1389 471 1339 C 471 1289 453 1247 419 1213 C 385 1179 343 1163 293 1163 Z" unicode="i" />
<glyph horiz-adv-x="606" d="M 31 -467 C -79 -467 -151 -445 -187 -403 C -222 -361 -240 -316 -240 -268 C -240 -240 -227 -209 -202 -175 C -176 -140 -140 -123 -94 -123 C -63 -123 -31 -133 1 -153 C 34 -173 51 -206 51 -252 C 51 -278 47 -310 39 -346 C 31 -382 23 -413 16 -440 C 21 -440 27 -441 35 -442 C 42 -443 47 -444 49 -444 C 106 -444 143 -407 161 -333 C 179 -259 188 -152 188 -12 L 188 778 C 188 798 183 819 174 839 C 165 859 152 875 135 887 C 119 897 97 904 67 909 C 37 913 3 917 -35 920 L -35 936 L 477 961 L 485 952 L 485 94 C 485 9 476 -67 458 -136 C 440 -204 407 -265 358 -317 C 318 -359 271 -395 217 -424 C 162 -452 100 -467 31 -467 Z M 317 1163 C 267 1163 224 1179 189 1213 C 154 1247 137 1289 137 1339 C 137 1390 154 1432 189 1466 C 224 1499 267 1516 317 1516 C 366 1516 408 1499 442 1465 C 476 1431 494 1389 494 1339 C 494 1289 476 1247 442 1213 C 408 1179 366 1163 317 1163 Z" unicode="j" />
<glyph horiz-adv-x="1120" d="M 18 0 L 18 14 C 34 14 50 15 65 17 C 79 19 93 22 106 27 C 124 33 137 42 145 54 C 152 66 156 83 156 106 L 156 1350 C 156 1376 151 1399 143 1417 C 135 1435 123 1450 109 1460 C 96 1468 73 1475 40 1481 C 6 1487 -18 1490 -35 1491 L -35 1503 L 442 1528 L 451 1520 L 451 467 C 490 505 545 560 616 631 C 687 702 745 766 791 823 C 801 836 807 847 810 857 C 813 866 815 875 815 885 C 815 895 802 905 778 913 C 753 921 720 928 678 934 L 678 946 L 1100 946 L 1100 934 C 1034 922 986 908 954 892 C 922 875 890 853 858 827 C 836 810 810 786 778 756 C 746 726 717 696 690 668 C 772 628 841 555 897 449 C 953 343 1003 226 1047 98 C 1053 79 1063 64 1076 54 C 1088 43 1102 35 1118 31 C 1133 25 1147 21 1160 18 C 1172 15 1183 14 1192 14 L 1192 0 L 754 0 C 729 104 691 208 641 312 C 591 416 544 467 500 467 C 491 467 482 464 473 458 C 464 452 457 445 451 438 L 451 117 C 451 94 452 76 456 62 C 460 48 468 39 481 33 C 494 26 507 22 521 20 C 535 18 549 16 563 14 L 563 0 L 18 0 Z" unicode="k" />
<glyph horiz-adv-x="588" d="M 8 0 L 8 14 C 24 14 40 15 54 16 C 68 16 81 19 94 25 C 113 31 127 42 135 58 C 143 73 147 92 147 115 L 147 1343 C 147 1369 142 1393 132 1414 C 122 1435 108 1451 92 1462 C 80 1470 58 1477 26 1482 C -5 1487 -30 1490 -49 1491 L -49 1503 L 434 1528 L 442 1520 L 442 121 C 442 98 446 79 455 64 C 463 48 477 37 496 29 C 510 22 523 18 536 18 C 549 17 565 16 584 14 L 584 0 L 8 0 Z" unicode="l" />
<glyph horiz-adv-x="1778" d="M 29 0 L 29 14 C 45 14 60 15 75 17 C 89 19 103 22 117 27 C 135 33 148 42 155 54 C 162 66 166 83 166 106 L 166 784 C 166 810 162 833 154 851 C 146 869 134 884 119 895 C 106 903 89 909 69 915 C 49 920 30 923 14 924 L 14 936 L 455 961 L 463 952 L 463 805 L 469 805 C 505 843 545 881 589 918 C 633 954 695 973 776 973 C 840 973 894 958 938 928 C 982 898 1014 855 1036 801 L 1044 801 C 1082 841 1125 880 1172 917 C 1219 954 1285 973 1370 973 C 1461 973 1528 943 1572 883 C 1616 823 1638 746 1638 651 L 1638 117 C 1638 94 1640 76 1645 62 C 1649 48 1661 37 1681 31 C 1695 25 1710 21 1725 19 C 1740 16 1756 14 1774 14 L 1774 0 L 1235 0 L 1235 14 C 1249 14 1263 16 1276 19 C 1288 21 1300 25 1311 31 C 1323 37 1331 48 1334 64 C 1337 79 1339 98 1339 121 L 1339 657 C 1339 724 1328 773 1307 805 C 1286 836 1258 852 1223 852 C 1175 852 1137 842 1109 823 C 1080 803 1061 783 1051 762 L 1051 125 C 1051 102 1053 83 1057 68 C 1061 53 1071 41 1085 33 C 1095 26 1107 21 1120 19 C 1132 16 1145 14 1157 14 L 1157 0 L 649 0 L 649 14 C 662 14 675 16 688 18 C 700 20 712 24 723 31 C 736 37 744 48 747 64 C 750 79 752 98 752 121 L 752 649 C 752 716 741 766 721 799 C 700 831 671 848 633 848 C 589 848 552 838 523 819 C 493 799 473 779 463 758 L 463 117 C 463 94 464 76 468 62 C 472 48 480 39 494 33 C 506 26 519 22 533 20 C 547 18 561 16 575 14 L 575 0 L 29 0 Z" unicode="m" />
<glyph horiz-adv-x="1202" d="M 29 0 L 29 14 C 45 14 60 15 75 17 C 89 19 103 22 117 27 C 135 33 148 42 155 54 C 162 66 166 83 166 106 L 166 784 C 166 810 162 833 154 851 C 146 869 134 884 119 895 C 106 903 89 909 69 915 C 49 920 30 923 14 924 L 14 936 L 455 961 L 463 952 L 463 805 L 469 805 C 505 843 545 881 589 918 C 632 954 696 973 782 973 C 882 973 953 943 997 885 C 1041 826 1063 748 1063 651 L 1063 115 C 1063 92 1065 74 1070 61 C 1074 47 1086 37 1106 31 C 1120 25 1135 22 1149 20 C 1163 18 1179 16 1198 14 L 1198 0 L 655 0 L 655 14 C 668 14 681 16 695 18 C 709 20 721 24 731 29 C 745 33 754 44 757 60 C 760 76 762 96 762 119 L 762 664 C 762 734 749 782 724 808 C 699 834 669 848 633 848 C 589 848 552 838 523 819 C 493 799 473 779 463 758 L 463 117 C 463 94 464 76 468 62 C 472 48 480 39 494 33 C 506 26 519 22 533 20 C 547 18 561 16 575 14 L 575 0 L 29 0 Z" unicode="n" />
<glyph horiz-adv-x="1094" d="M 541 -31 C 403 -31 284 14 185 104 C 86 194 37 317 37 473 C 37 619 83 738 176 832 C 268 926 393 973 549 973 C 707 973 832 926 922 833 C 1012 739 1057 621 1057 479 C 1057 337 1013 217 926 118 C 839 18 711 -31 541 -31 Z M 549 -8 C 614 -8 660 31 687 110 C 713 188 727 312 727 481 C 727 641 713 759 686 835 C 658 911 613 950 551 950 C 489 950 443 912 413 838 C 383 763 369 645 369 485 C 369 303 383 175 411 102 C 439 28 485 -8 549 -8 Z" unicode="o" />
<glyph horiz-adv-x="1169" d="M -18 -463 L -18 -449 C 3 -447 24 -446 45 -444 C 65 -442 82 -440 94 -436 C 113 -430 126 -418 134 -400 C 141 -382 145 -363 145 -342 L 145 784 C 145 810 141 833 133 851 C 125 869 113 884 98 895 C 86 903 69 909 49 915 C 29 920 10 923 -6 924 L -6 936 L 434 961 L 442 952 L 442 842 L 451 840 C 473 865 507 893 551 925 C 595 957 651 973 717 973 C 831 973 926 928 1000 838 C 1074 748 1112 631 1112 487 C 1112 335 1069 211 983 117 C 897 22 793 -25 670 -25 C 614 -25 569 -18 535 -6 C 501 6 472 21 449 39 L 440 39 L 440 -332 C 440 -357 445 -377 455 -393 C 465 -408 479 -419 498 -426 C 523 -434 548 -440 574 -442 C 599 -444 623 -446 647 -449 L 647 -463 L -18 -463 Z M 602 8 C 669 8 716 50 744 136 C 772 221 786 330 786 463 C 786 567 772 661 745 746 C 718 831 667 874 592 874 C 555 874 526 867 504 853 C 482 839 460 820 440 795 L 440 156 C 450 124 467 91 491 58 C 514 24 551 8 602 8 Z" unicode="p" />
<glyph horiz-adv-x="1149" d="M 559 -463 L 559 -449 C 576 -447 597 -446 621 -444 C 645 -442 665 -438 680 -434 C 699 -427 713 -415 721 -399 C 729 -382 733 -362 733 -340 L 733 98 L 725 100 C 702 76 669 50 627 20 C 584 -10 531 -25 467 -25 C 345 -25 247 21 171 113 C 95 205 57 328 57 483 C 57 627 104 744 200 836 C 296 927 414 973 555 973 C 632 973 699 964 755 946 C 811 928 860 908 903 885 L 1030 999 L 1044 995 C 1040 953 1036 901 1033 841 C 1029 780 1028 724 1028 672 L 1028 -330 C 1028 -352 1032 -372 1042 -389 C 1051 -406 1065 -419 1083 -428 C 1098 -436 1118 -440 1143 -442 C 1167 -444 1188 -446 1206 -449 L 1206 -463 L 559 -463 Z M 571 63 C 605 63 635 70 661 85 C 687 99 711 121 733 150 L 733 797 C 725 830 710 863 688 897 C 666 931 630 948 580 948 C 512 948 463 901 431 808 C 399 714 383 602 383 471 C 383 367 395 273 420 189 C 445 105 495 63 571 63 Z" unicode="q" />
<glyph horiz-adv-x="895" d="M 29 0 L 29 14 C 45 14 60 15 74 17 C 88 18 101 21 115 27 C 134 33 147 44 155 60 C 162 75 166 94 166 117 L 166 791 C 166 809 160 829 150 851 C 140 872 127 888 113 899 C 101 907 86 913 66 917 C 46 921 27 923 10 924 L 10 936 L 455 961 L 463 952 L 463 809 L 467 809 C 507 861 549 901 593 928 C 636 955 682 969 731 969 C 782 969 824 951 858 917 C 892 883 909 838 909 782 C 909 734 894 692 865 658 C 836 623 798 606 752 606 C 708 606 671 617 643 641 C 614 664 600 697 600 739 C 600 767 605 794 616 820 C 627 845 634 864 637 877 C 593 875 555 860 523 832 C 491 804 471 782 463 768 L 463 125 C 463 102 467 83 477 68 C 487 52 500 41 518 35 C 534 27 557 22 587 19 C 616 16 638 14 653 14 L 653 0 L 29 0 Z" unicode="r" />
<glyph horiz-adv-x="842" d="M 420 -31 C 354 -31 290 -20 228 1 C 166 22 124 41 104 57 L 57 -12 L 41 -12 L 31 342 L 45 342 C 74 270 123 194 192 113 C 260 32 332 -8 406 -8 C 458 -8 498 7 528 39 C 558 70 573 110 573 158 C 573 210 554 251 518 280 C 481 309 417 339 326 369 C 230 400 162 441 120 492 C 78 543 57 607 57 684 C 57 762 89 830 154 887 C 218 944 307 973 420 973 C 470 973 521 967 573 956 C 625 944 665 932 694 918 L 737 975 L 754 975 L 766 651 L 750 651 C 716 728 671 797 617 858 C 563 919 507 950 451 950 C 401 950 364 934 340 902 C 315 870 303 836 303 799 C 303 745 319 706 353 681 C 387 656 449 629 539 600 C 619 573 684 535 736 486 C 787 436 813 370 813 287 C 813 184 775 105 699 51 C 623 -3 530 -31 420 -31 Z" unicode="s" />
<glyph horiz-adv-x="700" d="M 426 -27 C 332 -27 262 0 214 51 C 166 103 143 175 143 266 L 143 913 L -31 913 L -31 946 L 147 946 L 147 1241 L 438 1241 L 438 946 L 696 946 L 696 913 L 438 913 L 438 260 C 438 219 446 181 463 146 C 479 111 511 94 557 94 C 605 94 640 115 662 157 C 684 199 696 242 698 287 L 723 287 C 721 204 697 131 653 68 C 608 4 532 -27 426 -27 Z" unicode="t" />
<glyph horiz-adv-x="1169" d="M 401 -27 C 308 -27 241 4 200 68 C 159 132 139 211 139 307 L 139 799 C 139 820 134 840 126 860 C 118 880 104 894 86 903 C 73 909 57 913 39 916 C 20 919 2 921 -16 922 L -16 936 L 432 961 L 438 952 L 438 272 C 438 206 448 157 469 125 C 490 93 518 78 553 78 C 605 78 644 90 670 115 C 696 140 715 162 725 182 L 725 801 C 725 821 721 841 714 860 C 706 878 695 892 680 901 C 669 907 652 911 630 914 C 607 917 584 919 561 920 L 561 936 L 1012 961 L 1020 952 L 1020 154 C 1020 131 1024 111 1033 93 C 1041 75 1054 62 1071 53 C 1083 46 1100 41 1120 38 C 1140 35 1158 33 1174 33 L 1174 20 L 741 -8 L 727 6 L 727 133 L 721 133 C 686 94 645 58 599 24 C 552 -10 486 -27 401 -27 Z" unicode="u" />
<glyph horiz-adv-x="932" d="M 430 -12 C 396 69 335 212 249 417 C 162 621 102 759 70 831 C 56 861 39 884 19 901 C -1 917 -27 928 -59 932 L -59 946 L 508 946 L 508 932 C 485 931 458 927 427 920 C 396 913 381 901 381 885 C 381 882 382 877 384 869 C 386 861 389 852 393 842 C 406 807 440 722 495 587 C 549 452 590 355 618 295 C 632 331 663 410 709 532 C 755 654 785 736 801 776 C 805 789 810 804 815 821 C 819 838 821 854 821 868 C 819 890 799 906 763 914 C 726 922 689 929 653 934 L 653 946 L 999 946 L 999 934 C 965 928 937 918 917 905 C 896 892 877 865 860 825 C 842 783 805 688 747 542 C 689 395 649 294 629 240 C 613 199 598 158 584 116 C 569 74 555 32 543 -12 L 430 -12 Z" unicode="v" />
<glyph horiz-adv-x="1454" d="M 403 -12 C 371 68 316 210 238 413 C 159 616 104 755 74 829 C 61 859 45 883 25 900 C 5 917 -21 928 -57 932 L -57 946 L 477 946 L 477 932 C 457 931 435 927 411 920 C 387 913 375 901 375 885 C 375 883 376 878 378 870 C 380 862 383 852 387 842 C 393 820 423 736 477 589 C 531 441 568 345 590 299 C 602 326 624 383 656 469 C 688 555 710 612 721 639 C 718 647 707 678 688 732 C 668 786 656 818 651 829 C 640 863 626 888 610 903 C 594 918 570 928 539 932 L 539 946 L 1071 946 L 1071 932 C 1048 931 1021 927 991 921 C 961 914 946 901 946 883 C 946 882 946 878 948 870 C 949 862 952 852 956 842 C 964 820 994 735 1044 585 C 1094 435 1129 337 1151 293 C 1164 325 1193 402 1238 524 C 1283 645 1313 725 1329 764 C 1333 776 1338 792 1343 813 C 1347 833 1350 848 1350 856 C 1350 879 1332 896 1297 907 C 1261 918 1224 927 1186 934 L 1186 946 L 1532 946 L 1532 936 C 1505 931 1479 921 1453 906 C 1427 891 1404 861 1386 815 L 1161 240 C 1144 197 1128 155 1114 115 C 1100 74 1086 32 1073 -12 L 956 -12 C 933 50 897 151 848 292 C 798 432 762 534 739 598 C 734 589 713 534 675 434 C 637 333 612 268 602 240 C 586 197 572 155 558 113 C 544 71 531 30 520 -12 L 403 -12 Z" unicode="w" />
<glyph horiz-adv-x="1006" d="M -29 0 L -29 14 C 17 22 54 38 83 60 C 112 82 136 106 156 131 C 174 153 212 199 270 268 C 328 336 368 386 391 416 C 381 430 336 500 258 625 C 180 749 135 821 123 840 C 99 876 77 899 56 911 C 34 923 12 930 -10 932 L -10 946 L 541 946 L 541 932 C 521 932 498 929 471 924 C 444 918 430 911 428 903 C 426 896 426 889 430 881 C 433 873 437 866 442 858 C 447 849 471 808 515 734 C 559 660 586 615 598 600 L 764 825 C 774 840 781 852 784 860 C 786 868 788 876 788 883 C 787 897 772 907 742 914 C 712 921 679 928 643 934 L 643 946 L 1014 946 L 1014 934 C 958 924 916 911 890 894 C 863 877 836 853 809 823 C 798 812 768 776 719 715 C 670 653 635 608 614 580 C 620 570 667 496 754 356 C 840 216 891 135 905 115 C 927 82 947 59 964 46 C 980 32 1006 22 1040 16 L 1040 0 L 477 0 L 477 16 C 499 16 525 20 555 27 C 585 34 600 43 600 53 C 600 59 597 67 593 77 C 588 87 584 96 580 104 C 574 114 548 159 501 238 C 453 317 422 368 408 391 C 393 373 359 331 305 265 C 251 199 217 155 205 135 C 197 125 190 114 184 102 C 177 90 174 80 174 74 C 174 57 194 43 234 33 C 274 22 301 16 315 16 L 315 0 L -29 0 Z" unicode="x" />
<glyph horiz-adv-x="932" d="M 137 -467 C 101 -467 61 -454 17 -428 C -26 -402 -49 -356 -49 -291 C -49 -254 -35 -220 -7 -188 C 21 -156 57 -141 102 -141 C 130 -141 160 -150 194 -168 C 227 -186 244 -220 244 -268 C 244 -300 240 -327 234 -351 C 228 -375 223 -398 221 -422 C 273 -406 321 -366 365 -301 C 409 -235 452 -151 492 -49 C 468 1 395 152 273 405 C 151 657 84 799 70 831 C 57 857 40 880 19 898 C -1 916 -30 927 -66 932 L -66 946 L 496 946 L 496 932 C 474 931 448 927 418 921 C 388 914 373 902 373 885 C 373 882 374 876 378 867 C 381 858 384 850 387 842 C 395 821 432 738 499 592 C 565 446 609 353 631 313 C 646 347 675 422 718 540 C 761 658 790 737 805 778 C 811 795 815 812 819 828 C 823 844 825 857 825 868 C 825 890 807 905 772 913 C 736 920 700 927 662 934 L 662 946 L 1004 946 L 1004 934 C 968 927 939 918 919 908 C 898 897 879 869 862 825 C 825 732 764 575 680 355 C 596 134 545 1 528 -43 C 469 -191 410 -299 351 -366 C 291 -433 220 -467 137 -467 Z" unicode="y" />
<glyph horiz-adv-x="874" d="M 8 0 L 8 25 L 522 922 L 418 922 C 374 922 336 919 304 915 C 272 910 245 903 223 893 C 197 881 169 847 138 790 C 107 732 82 681 63 637 L 45 637 L 45 946 L 850 946 L 850 924 L 334 25 C 358 24 381 23 401 23 C 421 23 444 23 469 23 C 503 23 533 23 559 25 C 585 27 607 29 627 31 C 650 33 669 41 685 53 C 701 65 716 84 731 109 C 750 142 772 185 796 238 C 820 290 837 329 848 354 L 864 354 L 864 0 L 8 0 Z" unicode="z" />
<glyph horiz-adv-x="868" d="M 807 -346 C 652 -348 534 -325 453 -276 C 372 -227 332 -134 332 4 C 332 46 337 89 348 135 C 359 181 365 225 365 268 C 365 370 340 438 291 474 C 241 510 165 530 63 535 L 63 643 C 157 647 231 666 285 698 C 338 730 365 801 365 909 C 365 951 359 996 348 1042 C 337 1088 332 1132 332 1174 C 332 1308 371 1400 449 1451 C 527 1501 647 1526 807 1524 L 807 1507 C 737 1507 686 1491 654 1459 C 622 1427 606 1359 606 1255 C 606 1215 609 1172 615 1128 C 621 1084 625 1041 625 1001 C 625 879 593 793 531 744 C 468 694 365 659 223 637 L 223 541 C 355 522 455 488 523 439 C 591 389 625 302 625 176 C 625 135 621 93 615 49 C 609 5 606 -37 606 -78 C 606 -182 623 -250 657 -283 C 691 -316 741 -332 807 -330 L 807 -346 Z" unicode="{" />
<glyph horiz-adv-x="575" d="M 248 -424 L 248 1528 L 328 1528 L 328 -424 L 248 -424 Z" unicode="|" />
<glyph horiz-adv-x="868" d="M 59 -346 L 59 -330 C 124 -332 174 -316 208 -283 C 242 -250 260 -182 260 -78 C 260 -37 257 5 251 49 C 245 93 242 135 242 176 C 242 302 275 389 343 439 C 410 488 510 522 643 541 L 643 637 C 499 659 397 694 335 744 C 273 793 242 879 242 1001 C 242 1041 245 1084 251 1128 C 257 1172 260 1215 260 1255 C 260 1358 243 1426 211 1458 C 179 1490 128 1507 59 1507 L 59 1524 C 219 1526 338 1501 417 1451 C 495 1400 535 1308 535 1174 C 535 1132 529 1088 518 1042 C 507 996 502 951 502 909 C 502 801 528 730 582 698 C 635 666 709 647 803 643 L 803 535 C 700 530 624 510 575 474 C 526 438 502 370 502 268 C 502 225 507 181 518 135 C 529 89 535 46 535 4 C 535 -134 494 -227 412 -276 C 330 -325 213 -348 59 -346 Z" unicode="}" />
<glyph horiz-adv-x="1094" d="M 127 391 L 111 397 C 129 473 162 542 212 606 C 262 670 322 702 393 702 C 456 702 524 686 596 655 C 668 623 724 608 762 608 C 814 608 855 617 885 635 C 915 653 941 685 965 729 L 981 723 C 960 641 926 569 878 508 C 830 446 773 416 707 416 C 638 416 568 431 498 463 C 428 494 374 510 338 510 C 286 510 243 501 211 483 C 178 465 150 435 127 391 Z" unicode="~" />
<glyph horiz-adv-x="205" d="" unicode="" />
<glyph horiz-adv-x="670" d="M 343 947 C 371 765 405 605 443 465 C 481 325 501 217 501 140 C 501 94 486 53 457 19 C 427 -14 386 -31 333 -31 C 280 -31 238 -14 208 19 C 178 53 163 94 163 140 C 163 217 182 325 221 465 C 259 605 294 765 325 947 L 343 947 Z M 333 1426 C 381 1426 422 1410 456 1377 C 490 1344 507 1303 507 1254 C 507 1205 490 1164 456 1130 C 422 1096 381 1080 333 1080 C 285 1080 243 1096 209 1130 C 174 1164 157 1205 157 1254 C 157 1303 174 1344 209 1377 C 243 1410 285 1426 333 1426 Z" unicode="" />
<glyph horiz-adv-x="989" d="M 338 -231 L 305 -223 L 391 141 C 292 173 215 229 160 311 C 105 393 78 495 78 618 C 78 745 121 859 209 959 C 297 1059 416 1110 567 1110 C 576 1110 585 1109 593 1109 C 601 1109 609 1108 616 1108 L 680 1374 L 715 1366 L 655 1106 C 733 1093 796 1066 844 1024 C 891 982 915 933 915 879 C 915 840 904 807 884 781 C 863 754 833 741 793 741 C 761 741 732 751 706 771 C 680 791 668 821 668 860 C 668 904 674 937 686 960 C 698 983 705 1004 705 1024 C 701 1035 694 1045 683 1054 C 671 1063 659 1071 647 1077 L 463 301 C 481 275 506 256 537 243 C 568 229 600 223 633 223 C 700 223 757 236 803 264 C 849 291 889 335 922 397 L 940 387 C 906 307 855 243 789 193 C 722 143 645 119 559 119 C 538 119 515 120 490 123 C 464 125 443 129 426 133 L 338 -231 Z M 436 338 L 612 1087 C 606 1088 600 1089 594 1089 C 588 1089 581 1090 575 1090 C 519 1090 469 1051 426 975 C 383 899 362 785 362 635 C 362 577 368 521 381 469 C 394 416 412 372 436 338 Z" unicode="" />
<glyph horiz-adv-x="1532" d="M 117 -201 C 31 -201 -29 -183 -67 -149 C -104 -115 -123 -71 -123 -18 C -123 48 -86 107 -13 160 C 60 213 147 240 248 240 C 296 240 345 235 394 227 C 443 218 491 207 539 195 C 541 220 542 248 540 278 C 538 308 537 340 535 373 L 178 373 L 178 408 L 532 408 C 529 436 526 468 523 502 C 520 536 518 565 518 588 L 190 588 L 190 625 L 516 625 C 516 862 573 1055 687 1205 C 801 1355 950 1430 1135 1430 C 1281 1430 1390 1393 1460 1320 C 1530 1247 1565 1169 1565 1087 C 1565 989 1531 909 1464 846 C 1397 783 1306 752 1192 752 C 1112 752 1052 774 1010 819 C 968 864 948 921 948 991 C 948 1021 951 1051 959 1080 C 966 1108 976 1138 989 1169 L 1008 1165 C 996 1139 988 1114 982 1089 C 976 1063 973 1039 973 1016 C 973 948 991 896 1027 858 C 1063 820 1111 801 1169 801 C 1230 801 1278 824 1313 870 C 1348 916 1366 985 1366 1077 C 1366 1164 1347 1241 1311 1309 C 1274 1377 1216 1411 1137 1411 C 1028 1411 949 1362 899 1264 C 849 1166 823 1015 821 813 C 821 782 820 749 818 714 C 816 679 813 649 809 625 L 1141 625 L 1141 588 L 803 588 C 798 558 789 526 777 493 C 765 459 751 431 737 408 L 1124 408 L 1124 373 L 721 373 C 704 338 684 302 662 266 C 639 230 617 199 596 174 C 681 143 765 110 847 75 C 929 40 1009 23 1087 23 C 1191 23 1265 50 1310 104 C 1354 158 1381 225 1391 307 L 1411 303 C 1397 168 1353 55 1277 -36 C 1201 -128 1086 -174 932 -174 C 854 -174 777 -158 700 -126 C 623 -94 550 -62 481 -29 C 439 -77 385 -117 320 -151 C 254 -184 187 -201 117 -201 Z M 115 -170 C 178 -170 239 -155 298 -127 C 357 -99 408 -61 451 -14 C 391 13 331 35 270 52 C 209 69 149 78 90 78 C 38 78 -3 66 -34 44 C -64 22 -80 -7 -80 -43 C -80 -79 -63 -109 -30 -133 C 2 -157 51 -170 115 -170 Z" unicode="" />
<glyph horiz-adv-x="1192" d="M 236 0 L 236 14 C 254 14 280 17 314 21 C 348 25 372 30 387 35 C 405 41 421 52 433 70 C 445 88 451 108 451 131 L 451 311 L 139 311 L 139 348 L 451 348 L 451 506 L 139 506 L 139 543 L 444 543 C 431 571 385 660 307 810 C 229 959 183 1045 170 1069 C 152 1101 134 1128 115 1150 C 96 1171 76 1188 55 1200 C 40 1209 23 1216 5 1221 C -13 1225 -31 1228 -49 1229 L -49 1243 L 614 1243 L 614 1229 C 583 1227 548 1222 508 1214 C 468 1206 449 1192 449 1174 C 449 1159 479 1091 541 970 C 603 848 669 721 741 588 C 808 704 875 822 943 941 C 1010 1059 1044 1129 1044 1151 C 1044 1177 1023 1196 983 1208 C 942 1219 902 1226 862 1229 L 862 1243 L 1266 1243 L 1266 1229 C 1228 1224 1194 1210 1164 1188 C 1134 1165 1110 1139 1090 1110 C 1048 1044 994 958 930 850 C 865 742 806 639 754 543 L 1075 543 L 1075 506 L 750 506 L 750 348 L 1075 348 L 1075 311 L 750 311 L 750 141 C 750 119 755 100 765 82 C 775 64 790 51 809 43 C 824 36 847 30 878 24 C 908 18 933 14 952 14 L 952 0 L 236 0 Z" unicode="" />
<glyph horiz-adv-x="575" d="M 248 -424 L 248 379 L 328 379 L 328 -424 L 248 -424 Z M 248 745 L 248 1528 L 328 1528 L 328 745 L 248 745 Z" unicode="" />
<glyph horiz-adv-x="1106" d="M 496 -465 C 396 -465 324 -434 280 -373 C 235 -312 213 -263 213 -225 C 213 -176 225 -135 250 -101 C 274 -67 313 -51 367 -51 C 404 -51 434 -64 458 -92 C 482 -119 494 -149 494 -182 C 494 -224 478 -257 448 -279 C 418 -301 403 -325 403 -350 C 403 -378 412 -400 432 -418 C 451 -435 476 -444 506 -444 C 550 -444 587 -424 617 -385 C 647 -345 662 -294 662 -231 C 662 -182 649 -136 623 -94 C 597 -52 564 -7 524 41 C 482 91 441 137 402 180 C 363 223 316 278 260 346 C 209 406 172 459 149 505 C 126 551 115 603 115 659 C 115 735 143 798 200 848 C 257 898 319 930 387 946 C 362 980 341 1020 324 1066 C 307 1112 299 1159 299 1208 C 299 1287 330 1357 392 1419 C 454 1480 540 1511 649 1511 C 747 1511 816 1480 858 1420 C 899 1359 920 1310 920 1272 C 920 1224 907 1183 882 1149 C 856 1115 818 1098 766 1098 C 728 1098 697 1110 674 1136 C 650 1162 639 1192 639 1227 C 639 1269 655 1302 688 1325 C 720 1348 737 1371 737 1395 C 737 1422 727 1445 709 1463 C 691 1481 664 1491 629 1491 C 583 1491 545 1472 515 1435 C 485 1397 471 1347 471 1284 C 471 1234 483 1189 508 1149 C 533 1109 567 1064 610 1012 C 652 960 692 913 730 871 C 768 829 815 774 872 707 C 924 645 961 591 985 543 C 1008 495 1020 445 1020 391 C 1020 313 990 251 932 205 C 874 158 810 127 741 113 C 767 78 790 36 809 -11 C 828 -59 838 -110 838 -162 C 838 -241 808 -311 748 -373 C 688 -434 604 -465 496 -465 Z M 725 133 C 765 146 794 167 813 196 C 832 224 842 260 842 303 C 842 337 832 374 812 414 C 792 454 769 489 743 520 C 681 593 618 666 556 738 C 493 810 441 872 401 926 C 365 912 337 892 317 865 C 297 837 287 800 287 754 C 287 721 298 683 320 640 C 342 597 365 560 391 530 C 451 458 511 387 572 317 C 633 247 684 186 725 133 Z" unicode="" />
<glyph horiz-adv-x="1024" d="M 287 1153 C 245 1153 209 1169 179 1201 C 149 1233 135 1270 135 1313 C 135 1355 149 1393 179 1425 C 209 1457 245 1473 287 1473 C 327 1473 363 1457 393 1425 C 423 1393 438 1355 438 1313 C 438 1270 423 1233 393 1201 C 363 1169 327 1153 287 1153 Z M 737 1153 C 695 1153 659 1169 630 1201 C 600 1233 586 1270 586 1313 C 586 1355 600 1393 630 1425 C 659 1457 695 1473 737 1473 C 777 1473 813 1457 843 1425 C 873 1393 889 1355 889 1313 C 889 1270 873 1233 843 1201 C 813 1169 777 1153 737 1153 Z" unicode="" />
<glyph horiz-adv-x="1946" d="M 987 27 C 847 27 731 70 638 156 C 544 242 498 359 498 506 C 498 646 549 764 652 860 C 754 956 879 1004 1026 1004 C 1076 1004 1126 995 1176 979 C 1226 962 1257 950 1268 942 L 1323 1012 L 1339 1012 L 1348 647 L 1327 647 C 1301 722 1263 796 1213 868 C 1163 940 1098 977 1020 977 C 950 977 893 937 848 857 C 802 777 780 664 780 516 C 780 386 802 285 846 212 C 890 138 961 102 1059 102 C 1121 102 1178 121 1230 161 C 1282 200 1324 254 1356 324 L 1378 313 C 1342 233 1295 165 1235 110 C 1175 54 1093 27 987 27 Z M 975 -371 C 728 -371 517 -284 342 -110 C 167 64 80 272 80 514 C 80 754 167 960 341 1134 C 515 1308 727 1395 975 1395 C 1220 1395 1430 1308 1604 1134 C 1778 960 1866 754 1866 514 C 1866 272 1778 64 1604 -110 C 1430 -284 1220 -371 975 -371 Z M 975 -311 C 1199 -311 1391 -230 1550 -69 C 1708 92 1788 286 1788 514 C 1788 738 1708 931 1550 1092 C 1391 1252 1199 1333 975 1333 C 748 1333 555 1252 396 1092 C 237 931 158 738 158 514 C 158 286 237 92 396 -69 C 555 -230 748 -311 975 -311 Z" unicode="" />
<glyph horiz-adv-x="764" d="M 256 668 C 196 668 153 680 126 706 C 99 732 86 765 86 805 C 86 851 97 886 121 908 C 145 930 172 947 203 958 C 237 971 278 984 328 996 C 378 1008 412 1019 432 1030 L 432 1124 C 432 1144 427 1171 419 1203 C 411 1235 388 1251 350 1251 C 333 1251 319 1248 309 1243 C 299 1238 291 1233 285 1229 C 285 1218 289 1202 295 1181 C 301 1160 305 1140 305 1122 C 305 1108 297 1092 281 1076 C 265 1059 242 1051 211 1051 C 180 1051 158 1060 145 1078 C 131 1096 125 1115 125 1137 C 125 1177 151 1209 205 1233 C 258 1257 310 1270 360 1270 C 421 1270 478 1259 532 1239 C 585 1218 612 1167 612 1087 C 612 1032 610 976 608 919 C 605 862 604 823 604 803 C 604 790 607 777 614 763 C 621 749 634 743 653 743 C 671 743 685 753 694 775 C 703 797 708 820 709 846 L 727 846 C 725 788 711 744 685 714 C 659 684 623 670 575 670 C 532 670 500 677 480 693 C 460 709 445 729 436 754 C 415 731 390 711 362 694 C 333 676 298 668 256 668 Z M 346 731 C 365 731 381 735 394 743 C 407 751 418 762 426 774 L 432 1010 C 386 992 348 972 318 948 C 288 924 274 886 274 836 C 274 801 280 775 294 757 C 307 739 324 731 346 731 Z M 96 479 L 96 545 L 678 545 L 678 479 L 96 479 Z" unicode="" />
<glyph horiz-adv-x="1165" d="M 1051 33 C 971 87 886 147 796 212 C 706 277 634 328 582 365 C 561 379 547 391 540 401 C 533 411 530 431 530 459 C 530 484 533 502 540 513 C 546 523 558 535 575 549 C 622 582 694 632 791 700 C 887 768 974 829 1051 885 L 1061 874 L 784 457 L 1061 41 L 1051 33 Z M 606 33 C 526 87 442 147 352 212 C 262 277 190 328 137 365 C 116 379 102 391 96 401 C 89 411 86 431 86 459 C 86 484 89 502 95 513 C 101 523 113 535 131 549 L 606 885 L 616 874 L 340 457 L 616 41 L 606 33 Z" unicode="" />
<glyph horiz-adv-x="1159" d="M 926 80 L 926 510 L 88 510 L 88 608 L 1034 608 L 1034 80 L 926 80 Z" unicode="" />
<glyph horiz-adv-x="811" d="M 72 410 L 72 625 L 739 625 L 739 410 L 72 410 Z" unicode="" />
<glyph horiz-adv-x="1012" d="M 662 866 C 636 866 614 874 596 892 C 578 910 567 936 563 971 C 560 994 555 1017 548 1041 C 540 1065 519 1077 483 1077 L 459 1077 L 459 926 C 459 918 460 912 463 907 C 465 901 470 897 477 895 C 481 893 487 891 496 890 C 504 889 512 889 518 889 L 518 872 L 305 872 L 305 889 C 309 889 317 889 327 891 C 337 893 344 894 346 895 C 352 897 356 901 360 907 C 363 912 365 918 365 926 L 365 1237 C 365 1243 363 1250 360 1256 C 357 1262 352 1266 346 1268 C 340 1270 332 1271 324 1273 C 316 1275 309 1276 305 1276 L 305 1292 L 530 1292 C 560 1292 592 1286 626 1275 C 659 1264 676 1238 676 1198 C 676 1167 662 1143 636 1127 C 609 1110 576 1098 537 1092 L 537 1085 C 551 1083 572 1077 601 1068 C 629 1059 646 1043 651 1020 C 655 1002 658 987 661 974 C 664 960 668 946 672 932 C 676 918 680 909 685 905 C 689 901 695 899 702 899 C 710 899 718 902 724 909 C 730 916 733 930 733 952 L 748 952 C 748 922 741 901 728 887 C 715 873 693 866 662 866 Z M 506 694 C 401 694 313 730 241 802 C 169 874 133 962 133 1067 C 133 1171 169 1260 241 1332 C 313 1404 401 1440 506 1440 C 610 1440 699 1404 771 1332 C 843 1260 879 1171 879 1067 C 879 962 843 874 771 802 C 699 730 610 694 506 694 Z M 506 731 C 599 731 677 763 740 829 C 802 894 834 973 834 1067 C 834 1160 802 1239 740 1305 C 677 1370 599 1403 506 1403 C 412 1403 333 1370 271 1305 C 209 1239 178 1160 178 1067 C 178 973 209 894 271 829 C 333 763 412 731 506 731 Z M 459 1096 L 492 1096 C 519 1096 541 1103 557 1118 C 573 1132 582 1155 582 1186 C 582 1220 575 1243 562 1255 C 549 1267 531 1274 508 1274 L 459 1274 L 459 1096 Z" unicode="" />
<glyph horiz-adv-x="1024" d="M 174 1198 L 174 1384 L 850 1384 L 850 1198 L 174 1198 Z" unicode="" />
<glyph horiz-adv-x="793" d="M 391 848 C 302 848 227 873 166 923 C 104 973 74 1047 74 1145 C 74 1234 106 1308 171 1366 C 236 1424 309 1454 391 1454 C 479 1454 556 1429 621 1379 C 686 1329 719 1251 719 1147 C 719 1063 686 993 621 935 C 556 877 479 848 391 848 Z M 397 866 C 443 866 478 893 504 948 C 530 1003 543 1068 543 1143 C 543 1221 531 1289 508 1347 C 485 1405 447 1434 393 1434 C 339 1434 301 1404 280 1345 C 258 1286 248 1222 248 1153 C 248 1081 258 1015 280 955 C 302 895 341 866 397 866 Z" unicode="" />
<glyph horiz-adv-x="942" d="M 127 690 L 127 741 C 216 795 291 844 353 888 C 414 932 467 976 512 1018 C 564 1068 602 1119 625 1169 C 647 1219 659 1273 659 1333 C 659 1381 645 1422 619 1456 C 592 1490 556 1507 512 1507 C 442 1507 385 1479 341 1425 C 297 1371 276 1318 276 1268 C 276 1241 282 1216 296 1193 C 310 1170 336 1159 375 1159 C 413 1159 448 1173 479 1201 C 509 1229 531 1254 545 1276 L 557 1268 C 538 1233 507 1193 464 1149 C 420 1105 363 1083 291 1083 C 231 1083 188 1097 161 1125 C 134 1153 121 1189 121 1233 C 121 1295 157 1359 230 1427 C 303 1494 403 1528 530 1528 C 634 1528 716 1506 776 1462 C 836 1418 866 1361 866 1290 C 866 1199 826 1126 747 1070 C 668 1014 554 956 406 895 C 401 893 386 884 361 868 C 335 852 320 842 315 838 L 748 838 C 783 838 812 851 836 879 C 860 907 883 940 907 979 L 922 973 L 799 690 L 127 690 Z" unicode="" />
<glyph horiz-adv-x="946" d="M 391 680 C 317 680 247 695 182 725 C 116 755 84 804 84 872 C 84 912 98 945 126 972 C 154 998 185 1012 219 1012 C 247 1012 270 1004 287 989 C 304 973 313 952 313 926 C 313 887 295 863 261 854 C 226 845 209 829 209 807 C 209 781 224 757 255 734 C 285 711 329 700 387 700 C 457 700 518 729 570 788 C 622 846 649 911 649 981 C 649 1023 640 1059 624 1091 C 608 1123 579 1139 537 1139 C 510 1139 482 1127 452 1104 C 422 1080 398 1059 379 1040 L 350 1081 C 429 1119 497 1159 555 1201 C 612 1243 641 1298 641 1366 C 641 1404 631 1437 611 1465 C 591 1493 560 1507 518 1507 C 476 1507 433 1490 390 1456 C 347 1422 326 1379 326 1327 C 326 1302 331 1282 342 1266 C 353 1250 372 1243 399 1243 C 427 1243 450 1249 468 1263 C 486 1276 500 1288 512 1298 L 522 1288 C 503 1264 475 1240 438 1215 C 401 1190 361 1178 317 1178 C 266 1178 227 1188 201 1210 C 175 1231 162 1260 162 1296 C 162 1355 200 1408 277 1456 C 353 1504 447 1528 557 1528 C 661 1528 734 1510 777 1475 C 820 1439 842 1398 842 1352 C 842 1313 818 1275 772 1239 C 725 1202 649 1175 545 1159 C 630 1163 703 1152 765 1125 C 827 1097 858 1049 858 979 C 858 890 812 818 722 763 C 632 707 521 680 391 680 Z" unicode="" />
<glyph horiz-adv-x="1024" d="M 348 1092 L 336 1106 C 384 1190 421 1255 447 1300 C 472 1344 496 1385 520 1423 C 544 1461 568 1491 592 1513 C 616 1535 645 1546 680 1546 C 718 1546 747 1535 768 1514 C 788 1492 799 1468 799 1442 C 799 1404 787 1373 764 1351 C 741 1329 708 1305 664 1280 C 630 1260 586 1235 532 1205 C 478 1174 417 1136 348 1092 Z" unicode="" />
<glyph horiz-adv-x="1239" d="M 190 -463 C 164 -463 142 -453 123 -433 C 103 -413 94 -386 94 -354 C 94 -310 100 -261 114 -207 C 128 -153 137 -110 141 -78 C 145 -45 148 -11 150 23 C 151 57 152 93 152 129 L 152 948 L 451 948 L 451 272 C 451 206 461 157 482 125 C 503 93 531 78 565 78 C 617 78 656 90 682 115 C 708 140 727 162 737 182 L 737 948 L 1032 948 L 1032 193 C 1032 159 1038 132 1052 114 C 1065 95 1082 86 1104 86 C 1142 86 1170 102 1188 136 C 1206 169 1217 205 1221 244 L 1241 244 C 1235 148 1209 81 1163 41 C 1117 1 1060 -18 993 -18 C 927 -18 873 -4 831 22 C 789 48 759 87 743 137 L 737 137 C 692 83 647 43 602 18 C 556 -7 503 -20 442 -20 C 378 -20 326 -7 288 17 C 249 41 218 79 195 129 L 190 129 L 190 14 C 190 -50 206 -112 238 -174 C 270 -236 287 -294 287 -348 C 287 -386 277 -414 258 -434 C 238 -453 216 -463 190 -463 Z" unicode="" />
<glyph horiz-adv-x="1284" d="M 647 -256 L 647 623 L 586 623 C 430 623 314 659 236 732 C 158 804 119 895 119 1004 C 119 1113 155 1206 227 1283 C 299 1360 404 1399 543 1399 L 1227 1399 L 1227 1360 L 936 1360 L 936 -256 L 887 -256 L 887 1360 L 696 1360 L 696 -256 L 647 -256 Z" unicode="" />
<glyph horiz-adv-x="551" d="M 274 375 C 224 375 180 392 144 427 C 108 461 90 504 90 555 C 90 605 108 648 144 683 C 180 717 224 735 274 735 C 324 735 367 717 404 683 C 440 648 459 605 459 555 C 459 504 440 461 404 427 C 367 392 324 375 274 375 Z" unicode="" />
<glyph horiz-adv-x="1024" d="M 283 -483 L 283 -453 C 348 -453 409 -446 467 -432 C 524 -418 553 -380 553 -319 C 553 -287 543 -266 525 -254 C 506 -242 476 -236 436 -236 L 436 0 L 467 0 L 467 -88 C 550 -86 616 -99 666 -127 C 716 -155 741 -202 741 -268 C 741 -356 699 -414 615 -442 C 531 -469 420 -483 283 -483 Z" unicode="" />
<glyph horiz-adv-x="721" d="M 90 694 L 90 709 C 105 709 130 711 164 714 C 198 717 221 721 233 725 C 247 729 259 736 269 747 C 278 757 283 771 283 788 L 283 1436 C 275 1434 266 1432 256 1431 C 246 1430 233 1430 219 1430 C 192 1430 162 1435 130 1447 C 97 1459 66 1476 37 1499 L 41 1507 C 63 1499 89 1491 119 1485 C 148 1478 178 1475 209 1475 C 259 1475 311 1481 365 1495 C 419 1508 458 1521 483 1534 L 502 1534 C 494 1504 489 1471 487 1433 C 484 1395 483 1359 483 1325 L 483 793 C 483 778 487 765 496 753 C 504 741 516 733 530 729 C 543 724 566 720 600 716 C 633 712 656 709 670 709 L 670 694 L 90 694 Z" unicode="" />
<glyph horiz-adv-x="764" d="M 377 666 C 299 666 228 691 162 742 C 96 792 63 868 63 969 C 63 1063 94 1137 157 1190 C 220 1243 295 1270 383 1270 C 472 1270 547 1243 608 1191 C 669 1138 700 1065 700 973 C 700 881 670 806 610 750 C 550 694 472 666 377 666 Z M 383 684 C 433 684 465 714 481 775 C 496 835 504 901 504 973 C 504 1040 496 1103 481 1162 C 465 1221 433 1251 383 1251 C 332 1251 299 1220 284 1159 C 269 1097 262 1036 262 975 C 262 905 269 839 283 777 C 297 715 331 684 383 684 Z M 90 479 L 90 545 L 672 545 L 672 479 L 90 479 Z" unicode="" />
<glyph horiz-adv-x="1165" d="M 115 33 L 102 41 L 381 457 L 102 874 L 115 885 C 191 829 277 768 374 700 C 470 632 542 582 588 549 C 606 535 619 523 625 513 C 631 502 635 484 635 459 C 635 431 631 411 625 401 C 618 391 604 379 584 365 C 530 328 459 277 369 212 C 279 147 194 87 115 33 Z M 559 33 L 549 41 L 825 457 L 549 874 L 559 885 C 635 829 722 768 818 700 C 914 632 986 582 1032 549 C 1050 535 1063 523 1069 513 C 1075 502 1079 484 1079 459 C 1079 431 1075 411 1069 401 C 1062 391 1048 379 1028 365 C 975 328 903 277 813 212 C 723 147 638 87 559 33 Z" unicode="" />
<glyph horiz-adv-x="1167" d="M 453 -465 L 453 -455 C 465 -454 483 -452 506 -450 C 528 -448 545 -445 555 -442 C 568 -438 578 -430 586 -419 C 594 -408 598 -395 598 -381 L 598 -201 L 164 -201 L 164 -137 L 682 377 L 788 377 L 788 -129 C 830 -129 865 -128 895 -128 C 925 -127 947 -121 963 -111 C 975 -101 984 -86 992 -66 C 1000 -45 1004 -26 1004 -10 L 1014 -10 L 1014 -326 L 1004 -326 C 1002 -306 998 -286 992 -264 C 985 -242 975 -226 961 -215 C 948 -206 927 -201 898 -201 C 868 -201 832 -201 788 -201 L 788 -373 C 788 -387 791 -399 798 -411 C 804 -423 815 -431 829 -436 C 839 -440 855 -444 877 -448 C 899 -452 917 -454 932 -455 L 932 -465 L 453 -465 Z M 307 694 L 307 705 C 322 705 346 707 380 710 C 414 713 437 717 451 721 C 463 725 475 732 485 742 C 495 752 500 766 500 784 L 500 1436 C 491 1434 481 1432 471 1431 C 461 1430 448 1430 434 1430 C 407 1430 378 1436 346 1448 C 314 1460 282 1478 252 1501 L 258 1507 C 280 1499 306 1491 336 1485 C 365 1478 395 1475 426 1475 C 474 1475 526 1481 581 1495 C 635 1508 675 1521 700 1534 L 717 1534 C 711 1504 706 1471 704 1433 C 701 1395 700 1359 700 1325 L 700 788 C 700 774 704 761 713 749 C 721 737 733 729 748 725 C 760 720 782 716 816 712 C 850 708 873 705 887 705 L 887 694 L 307 694 Z M 76 494 L 76 565 L 1090 565 L 1090 494 L 76 494 Z M 209 -129 L 598 -129 L 598 258 L 209 -129 Z" unicode="" />
<glyph horiz-adv-x="1167" d="M 229 -465 L 229 -414 C 319 -360 394 -310 455 -266 C 516 -222 569 -179 614 -137 C 668 -86 706 -36 728 14 C 750 64 762 118 762 178 C 762 226 748 267 722 303 C 695 338 660 356 616 356 C 544 356 487 328 444 272 C 400 216 379 163 379 113 C 379 86 385 61 399 38 C 412 15 439 4 479 4 C 519 4 554 18 584 46 C 613 74 634 99 647 121 L 657 113 C 639 78 608 38 566 -5 C 523 -49 465 -72 393 -72 C 335 -72 292 -58 264 -30 C 236 -2 223 34 223 78 C 223 140 259 204 333 272 C 407 339 507 373 635 373 C 737 373 819 351 879 307 C 939 263 969 206 969 135 C 969 44 929 -28 849 -84 C 769 -140 654 -198 504 -260 C 500 -262 485 -271 460 -287 C 434 -303 420 -313 416 -317 L 854 -317 C 890 -317 919 -303 942 -275 C 965 -247 989 -214 1014 -176 L 1024 -182 L 901 -465 L 229 -465 Z M 307 694 L 307 705 C 322 705 347 707 381 710 C 415 713 438 717 451 721 C 465 725 476 732 486 742 C 495 752 500 766 500 784 L 500 1436 C 492 1434 483 1432 473 1431 C 463 1430 450 1430 436 1430 C 409 1430 380 1436 348 1448 C 316 1460 284 1478 254 1501 L 258 1507 C 280 1499 306 1491 336 1485 C 365 1478 395 1475 426 1475 C 476 1475 528 1481 583 1495 C 637 1508 677 1521 702 1534 L 719 1534 C 713 1504 708 1471 705 1433 C 701 1395 700 1359 700 1325 L 700 788 C 700 774 704 761 713 749 C 721 737 733 729 748 725 C 760 720 783 716 817 712 C 850 708 873 705 887 705 L 887 694 L 307 694 Z M 76 494 L 76 565 L 1090 565 L 1090 494 L 76 494 Z" unicode="" />
<glyph horiz-adv-x="1167" d="M 492 680 C 417 680 347 695 282 725 C 216 755 184 804 184 872 C 184 912 197 945 225 972 C 252 998 283 1012 319 1012 C 347 1012 370 1004 388 989 C 405 973 414 952 414 926 C 414 887 396 863 361 854 C 326 845 309 829 309 807 C 309 781 324 756 355 732 C 386 708 430 696 487 696 C 557 696 619 726 671 786 C 723 846 750 911 750 981 C 750 1023 740 1060 722 1094 C 703 1128 673 1145 631 1145 C 605 1145 578 1132 549 1107 C 520 1081 496 1059 477 1040 L 451 1081 C 530 1119 598 1159 655 1201 C 712 1243 741 1298 741 1366 C 741 1404 730 1437 710 1467 C 690 1496 658 1511 616 1511 C 576 1511 534 1493 491 1458 C 447 1422 426 1379 426 1327 C 426 1302 431 1282 443 1266 C 454 1250 473 1243 500 1243 C 527 1243 549 1249 567 1263 C 585 1276 600 1288 612 1298 L 621 1290 C 602 1266 574 1242 538 1216 C 502 1190 462 1178 418 1178 C 366 1178 327 1188 301 1210 C 275 1231 262 1260 262 1296 C 262 1355 300 1408 376 1456 C 452 1504 546 1528 657 1528 C 759 1528 832 1510 876 1475 C 920 1439 942 1398 942 1352 C 942 1313 918 1275 872 1239 C 825 1202 749 1175 643 1159 C 728 1163 802 1152 864 1125 C 926 1097 958 1049 958 979 C 958 890 913 818 823 763 C 733 707 622 680 492 680 Z M 453 -465 L 453 -455 C 465 -454 483 -452 506 -450 C 528 -448 545 -445 555 -442 C 568 -438 578 -430 586 -419 C 594 -408 598 -395 598 -381 L 598 -201 L 164 -201 L 164 -137 L 682 377 L 788 377 L 788 -129 C 830 -129 865 -128 895 -128 C 925 -127 947 -121 963 -111 C 975 -101 984 -86 992 -66 C 1000 -45 1004 -26 1004 -10 L 1014 -10 L 1014 -326 L 1004 -326 C 1002 -306 998 -286 992 -264 C 985 -242 975 -226 961 -215 C 948 -206 927 -201 898 -201 C 868 -201 832 -201 788 -201 L 788 -373 C 788 -387 791 -399 798 -411 C 804 -423 815 -431 829 -436 C 839 -440 855 -444 877 -448 C 899 -452 917 -454 932 -455 L 932 -465 L 453 -465 Z M 76 494 L 76 565 L 1090 565 L 1090 494 L 76 494 Z M 209 -129 L 598 -129 L 598 258 L 209 -129 Z" unicode="" />
<glyph horiz-adv-x="1032" d="M 669 976 L 678 595 C 590 586 522 556 474 506 C 425 456 401 382 401 286 C 401 203 415 133 445 77 C 474 21 525 -6 598 -6 C 632 -6 664 0 695 11 C 725 23 747 37 759 52 C 747 73 732 101 714 136 C 696 170 688 205 688 239 C 688 291 702 332 732 363 C 762 393 802 409 852 409 C 906 409 946 392 972 360 C 998 327 1011 287 1011 241 C 1011 170 969 107 887 52 C 805 -2 704 -29 585 -29 C 452 -29 342 5 256 76 C 170 146 127 245 127 372 C 127 505 173 613 265 697 C 357 780 481 826 635 835 L 645 976 L 669 976 Z M 645 1428 C 693 1428 735 1411 770 1376 C 805 1341 823 1299 823 1250 C 823 1201 805 1159 770 1123 C 735 1087 693 1070 645 1070 C 595 1070 553 1087 519 1123 C 484 1159 467 1201 467 1250 C 467 1299 484 1341 519 1376 C 553 1411 595 1428 645 1428 Z" unicode="" />
<glyph horiz-adv-x="1399" d="M -74 0 L -74 14 C -55 16 -36 17 -16 19 C 3 21 21 27 39 39 C 64 55 86 77 104 105 C 122 133 138 164 154 199 C 189 277 275 478 412 802 C 549 1126 635 1332 670 1421 L 784 1421 C 832 1301 921 1067 1051 721 C 1181 374 1255 179 1274 135 C 1282 114 1291 96 1302 80 C 1313 64 1331 51 1356 39 C 1372 31 1390 25 1410 22 C 1429 18 1447 16 1464 14 L 1464 0 L 709 0 L 709 14 C 743 16 787 22 843 31 C 898 39 926 56 926 82 C 926 90 925 98 923 106 C 921 114 920 120 918 125 L 778 498 L 322 498 C 315 481 296 433 265 354 C 234 275 217 229 213 217 C 204 190 197 165 191 143 C 185 121 182 103 182 90 C 182 54 214 33 278 27 C 342 21 391 16 426 14 L 426 0 L -74 0 Z M 338 537 L 764 537 L 559 1067 L 338 537 Z M 878 1489 C 808 1533 747 1571 693 1602 C 639 1632 596 1657 562 1677 C 518 1702 484 1726 461 1748 C 438 1770 427 1801 427 1839 C 427 1865 437 1889 458 1911 C 478 1932 508 1943 546 1943 C 580 1943 609 1932 633 1910 C 657 1888 681 1858 706 1820 C 729 1782 753 1741 779 1697 C 804 1652 841 1587 890 1503 L 878 1489 Z" unicode="" />
<glyph horiz-adv-x="1399" d="M -74 0 L -74 14 C -55 16 -36 17 -16 19 C 3 21 21 27 39 39 C 64 55 86 77 104 105 C 122 133 138 164 154 199 C 189 277 275 478 412 802 C 549 1126 635 1332 670 1421 L 784 1421 C 832 1301 921 1067 1051 721 C 1181 374 1255 179 1274 135 C 1282 114 1291 96 1302 80 C 1313 64 1331 51 1356 39 C 1372 31 1390 25 1410 22 C 1429 18 1447 16 1464 14 L 1464 0 L 709 0 L 709 14 C 743 16 787 22 843 31 C 898 39 926 56 926 82 C 926 90 925 98 923 106 C 921 114 920 120 918 125 L 778 498 L 322 498 C 315 481 296 433 265 354 C 234 275 217 229 213 217 C 204 190 197 165 191 143 C 185 121 182 103 182 90 C 182 54 214 33 278 27 C 342 21 391 16 426 14 L 426 0 L -74 0 Z M 338 537 L 764 537 L 559 1067 L 338 537 Z M 528 1489 L 516 1503 C 564 1587 601 1652 627 1697 C 652 1741 676 1782 700 1820 C 724 1858 748 1888 772 1910 C 796 1932 825 1943 860 1943 C 898 1943 927 1932 948 1911 C 968 1889 979 1865 979 1839 C 979 1801 967 1770 944 1748 C 921 1726 888 1702 844 1677 C 810 1657 766 1632 712 1602 C 658 1571 597 1533 528 1489 Z" unicode="" />
<glyph horiz-adv-x="1399" d="M -74 0 L -74 14 C -55 16 -36 17 -16 19 C 3 21 21 27 39 39 C 64 55 86 77 104 105 C 122 133 138 164 154 199 C 189 277 275 478 412 802 C 549 1126 635 1332 670 1421 L 784 1421 C 832 1301 921 1067 1051 721 C 1181 374 1255 179 1274 135 C 1282 114 1291 96 1302 80 C 1313 64 1331 51 1356 39 C 1372 31 1390 25 1410 22 C 1429 18 1447 16 1464 14 L 1464 0 L 709 0 L 709 14 C 743 16 787 22 843 31 C 898 39 926 56 926 82 C 926 90 925 98 923 106 C 921 114 920 120 918 125 L 778 498 L 322 498 C 315 481 296 433 265 354 C 234 275 217 229 213 217 C 204 190 197 165 191 143 C 185 121 182 103 182 90 C 182 54 214 33 278 27 C 342 21 391 16 426 14 L 426 0 L -74 0 Z M 338 537 L 764 537 L 559 1067 L 338 537 Z M 1017 1503 L 698 1740 L 383 1505 L 362 1519 C 404 1591 445 1661 486 1728 C 526 1794 559 1848 585 1888 C 595 1904 608 1915 624 1921 C 640 1926 666 1929 702 1929 C 738 1929 763 1926 779 1920 C 794 1914 806 1904 815 1892 C 837 1857 870 1805 912 1736 C 954 1666 997 1594 1040 1519 L 1017 1503 Z" unicode="" />
<glyph horiz-adv-x="1399" d="M -74 0 L -74 14 C -55 16 -36 17 -16 19 C 3 21 21 27 39 39 C 64 55 86 77 104 105 C 122 133 138 164 154 199 C 189 277 275 478 412 802 C 549 1126 635 1332 670 1421 L 784 1421 C 832 1301 921 1067 1051 721 C 1181 374 1255 179 1274 135 C 1282 114 1291 96 1302 80 C 1313 64 1331 51 1356 39 C 1372 31 1390 25 1410 22 C 1429 18 1447 16 1464 14 L 1464 0 L 709 0 L 709 14 C 743 16 787 22 843 31 C 898 39 926 56 926 82 C 926 90 925 98 923 106 C 921 114 920 120 918 125 L 778 498 L 322 498 C 315 481 296 433 265 354 C 234 275 217 229 213 217 C 204 190 197 165 191 143 C 185 121 182 103 182 90 C 182 54 214 33 278 27 C 342 21 391 16 426 14 L 426 0 L -74 0 Z M 338 537 L 764 537 L 559 1067 L 338 537 Z M 341 1527 L 314 1538 C 340 1615 377 1682 426 1740 C 474 1798 529 1827 591 1827 C 648 1827 709 1809 774 1774 C 839 1738 893 1721 937 1721 C 971 1721 1003 1730 1032 1750 C 1060 1769 1084 1802 1103 1849 L 1130 1841 C 1109 1767 1073 1700 1022 1640 C 970 1580 911 1550 845 1550 C 788 1550 728 1567 665 1603 C 602 1638 552 1656 515 1656 C 482 1656 450 1646 420 1626 C 390 1606 363 1573 341 1527 Z" unicode="" />
<glyph horiz-adv-x="1399" d="M -74 0 L -74 14 C -55 16 -36 17 -16 19 C 3 21 21 27 39 39 C 64 55 86 77 104 105 C 122 133 138 164 154 199 C 189 277 275 478 412 802 C 549 1126 635 1332 670 1421 L 784 1421 C 832 1301 921 1067 1051 721 C 1181 374 1255 179 1274 135 C 1282 114 1291 96 1302 80 C 1313 64 1331 51 1356 39 C 1372 31 1390 25 1410 22 C 1429 18 1447 16 1464 14 L 1464 0 L 709 0 L 709 14 C 743 16 787 22 843 31 C 898 39 926 56 926 82 C 926 90 925 98 923 106 C 921 114 920 120 918 125 L 778 498 L 322 498 C 315 481 296 433 265 354 C 234 275 217 229 213 217 C 204 190 197 165 191 143 C 185 121 182 103 182 90 C 182 54 214 33 278 27 C 342 21 391 16 426 14 L 426 0 L -74 0 Z M 338 537 L 764 537 L 559 1067 L 338 537 Z M 491 1550 C 449 1550 413 1566 383 1598 C 353 1630 339 1667 339 1710 C 339 1752 353 1790 383 1822 C 413 1854 449 1870 491 1870 C 531 1870 567 1854 597 1822 C 627 1790 642 1752 642 1710 C 642 1667 627 1630 597 1598 C 567 1566 531 1550 491 1550 Z M 941 1550 C 899 1550 863 1566 834 1598 C 804 1630 790 1667 790 1710 C 790 1752 804 1790 834 1822 C 863 1854 899 1870 941 1870 C 981 1870 1017 1854 1047 1822 C 1077 1790 1093 1752 1093 1710 C 1093 1667 1077 1630 1047 1598 C 1017 1566 981 1550 941 1550 Z" unicode="" />
<glyph horiz-adv-x="1399" d="M -74 0 L -74 14 C -55 16 -36 17 -16 19 C 3 21 21 27 39 39 C 64 55 86 77 104 105 C 122 133 138 164 154 199 C 189 277 275 478 412 802 C 549 1126 635 1332 670 1421 L 784 1421 C 832 1301 921 1067 1051 721 C 1181 374 1255 179 1274 135 C 1282 114 1291 96 1302 80 C 1313 64 1331 51 1356 39 C 1372 31 1390 25 1410 22 C 1429 18 1447 16 1464 14 L 1464 0 L 709 0 L 709 14 C 743 16 787 22 843 31 C 898 39 926 56 926 82 C 926 90 925 98 923 106 C 921 114 920 120 918 125 L 778 498 L 322 498 C 315 481 296 433 265 354 C 234 275 217 229 213 217 C 204 190 197 165 191 143 C 185 121 182 103 182 90 C 182 54 214 33 278 27 C 342 21 391 16 426 14 L 426 0 L -74 0 Z M 338 537 L 764 537 L 559 1067 L 338 537 Z M 720 1472 C 640 1472 576 1492 528 1532 C 480 1572 456 1625 456 1691 C 456 1756 482 1809 534 1849 C 586 1889 648 1910 720 1910 C 795 1910 858 1890 908 1850 C 958 1810 984 1757 984 1691 C 984 1627 959 1575 911 1534 C 863 1492 799 1472 720 1472 Z M 720 1501 C 766 1501 797 1521 814 1562 C 830 1603 839 1646 839 1691 C 839 1733 830 1776 814 1818 C 797 1860 766 1882 720 1882 C 675 1882 644 1861 627 1821 C 609 1780 601 1737 601 1691 C 601 1647 609 1604 626 1563 C 642 1521 674 1501 720 1501 Z" unicode="" />
<glyph horiz-adv-x="2042" d="M -68 0 L -68 14 C -48 14 -25 18 2 25 C 29 31 52 40 72 51 C 103 67 135 99 168 146 C 201 193 233 243 264 297 C 277 318 376 488 562 808 C 747 1128 854 1313 883 1364 C 863 1370 829 1375 781 1378 C 733 1381 699 1383 680 1384 L 680 1399 L 1931 1399 L 1931 1032 L 1909 1032 C 1893 1078 1855 1144 1795 1228 C 1735 1312 1678 1357 1624 1364 C 1599 1366 1571 1369 1541 1371 C 1510 1373 1479 1374 1448 1374 L 1286 1374 L 1286 737 L 1419 737 C 1475 737 1515 743 1541 757 C 1567 770 1586 783 1599 797 C 1620 818 1641 852 1662 899 C 1683 946 1696 984 1700 1012 L 1722 1012 L 1722 428 L 1700 428 C 1696 460 1682 500 1659 550 C 1636 600 1616 634 1599 653 C 1585 668 1565 682 1539 694 C 1513 706 1473 713 1419 713 L 1286 713 L 1286 199 C 1286 124 1299 76 1325 56 C 1351 35 1410 25 1503 25 C 1559 25 1612 27 1664 31 C 1715 35 1753 49 1778 74 C 1820 114 1865 174 1913 253 C 1961 331 1996 390 2017 428 L 2036 428 L 2009 0 L 741 0 L 741 14 C 769 16 797 18 824 22 C 850 25 870 29 883 33 C 907 41 924 53 932 69 C 940 85 944 104 944 127 L 944 590 L 479 590 C 465 563 429 499 371 397 C 313 295 283 242 281 238 C 262 205 251 179 247 160 C 243 141 242 125 242 111 C 242 77 270 52 326 38 C 382 24 430 16 471 14 L 471 0 L -68 0 Z M 500 629 L 944 629 L 944 1362 L 920 1362 C 902 1332 848 1238 756 1080 C 664 921 579 771 500 629 Z" unicode="" />
<glyph horiz-adv-x="1339" d="M 506 -496 L 506 -465 C 571 -465 632 -458 690 -444 C 747 -430 776 -393 776 -332 C 776 -300 766 -278 748 -266 C 729 -254 699 -248 659 -248 L 659 -27 C 485 -9 338 61 220 185 C 102 309 43 476 43 684 C 43 904 112 1084 250 1224 C 388 1364 562 1434 772 1434 C 851 1434 927 1424 999 1405 C 1071 1386 1130 1365 1176 1341 L 1235 1417 L 1257 1417 L 1266 893 L 1241 893 C 1187 1066 1119 1195 1038 1280 C 957 1364 872 1407 782 1407 C 654 1407 563 1341 507 1209 C 451 1077 424 913 424 719 C 424 506 455 341 519 223 C 582 105 683 47 821 47 C 925 47 1018 76 1099 136 C 1179 196 1246 276 1298 377 L 1321 367 C 1276 259 1206 165 1110 87 C 1014 8 891 -31 743 -31 C 734 -31 725 -30 716 -30 C 707 -29 698 -29 690 -29 L 690 -100 C 773 -98 840 -111 890 -139 C 940 -167 965 -214 965 -281 C 965 -369 922 -427 838 -455 C 754 -482 643 -496 506 -496 Z" unicode="" />
<glyph horiz-adv-x="1339" d="M 39 0 L 39 14 C 67 16 95 18 122 22 C 148 25 168 29 180 33 C 204 41 221 53 229 69 C 237 85 242 104 242 127 L 242 1264 C 242 1286 237 1307 229 1325 C 221 1343 204 1356 180 1364 C 163 1368 142 1372 116 1376 C 90 1379 64 1382 39 1384 L 39 1399 L 1229 1399 L 1229 1032 L 1206 1032 C 1191 1078 1153 1144 1093 1228 C 1033 1312 976 1357 922 1364 C 897 1366 869 1369 839 1371 C 808 1373 777 1374 745 1374 L 584 1374 L 584 737 L 717 737 C 773 737 813 743 839 757 C 864 770 883 783 897 797 C 918 818 939 852 960 899 C 980 946 993 984 997 1012 L 1020 1012 L 1020 428 L 997 428 C 993 460 979 500 957 550 C 934 600 914 634 897 653 C 882 668 862 682 836 694 C 810 706 771 713 717 713 L 584 713 L 584 199 C 584 124 596 76 622 56 C 648 35 707 25 801 25 C 857 25 910 27 961 31 C 1012 35 1050 49 1075 74 C 1117 114 1162 174 1211 253 C 1259 331 1294 390 1315 428 L 1333 428 L 1307 0 L 39 0 Z M 882 1489 C 812 1533 751 1571 697 1602 C 643 1632 600 1657 566 1677 C 522 1702 488 1726 465 1748 C 442 1770 431 1801 431 1839 C 431 1865 441 1889 462 1911 C 482 1932 512 1943 550 1943 C 584 1943 613 1932 637 1910 C 661 1888 685 1858 710 1820 C 733 1782 757 1741 783 1697 C 808 1652 845 1587 894 1503 L 882 1489 Z" unicode="" />
<glyph horiz-adv-x="1339" d="M 39 0 L 39 14 C 67 16 95 18 122 22 C 148 25 168 29 180 33 C 204 41 221 53 229 69 C 237 85 242 104 242 127 L 242 1264 C 242 1286 237 1307 229 1325 C 221 1343 204 1356 180 1364 C 163 1368 142 1372 116 1376 C 90 1379 64 1382 39 1384 L 39 1399 L 1229 1399 L 1229 1032 L 1206 1032 C 1191 1078 1153 1144 1093 1228 C 1033 1312 976 1357 922 1364 C 897 1366 869 1369 839 1371 C 808 1373 777 1374 745 1374 L 584 1374 L 584 737 L 717 737 C 773 737 813 743 839 757 C 864 770 883 783 897 797 C 918 818 939 852 960 899 C 980 946 993 984 997 1012 L 1020 1012 L 1020 428 L 997 428 C 993 460 979 500 957 550 C 934 600 914 634 897 653 C 882 668 862 682 836 694 C 810 706 771 713 717 713 L 584 713 L 584 199 C 584 124 596 76 622 56 C 648 35 707 25 801 25 C 857 25 910 27 961 31 C 1012 35 1050 49 1075 74 C 1117 114 1162 174 1211 253 C 1259 331 1294 390 1315 428 L 1333 428 L 1307 0 L 39 0 Z M 569 1489 L 557 1503 C 605 1587 642 1652 668 1697 C 693 1741 717 1782 741 1820 C 765 1858 789 1888 813 1910 C 837 1932 866 1943 901 1943 C 939 1943 968 1932 989 1911 C 1009 1889 1020 1865 1020 1839 C 1020 1801 1008 1770 985 1748 C 962 1726 929 1702 885 1677 C 851 1657 807 1632 753 1602 C 699 1571 638 1533 569 1489 Z" unicode="" />
<glyph horiz-adv-x="1339" d="M 39 0 L 39 14 C 67 16 95 18 122 22 C 148 25 168 29 180 33 C 204 41 221 53 229 69 C 237 85 242 104 242 127 L 242 1264 C 242 1286 237 1307 229 1325 C 221 1343 204 1356 180 1364 C 163 1368 142 1372 116 1376 C 90 1379 64 1382 39 1384 L 39 1399 L 1229 1399 L 1229 1032 L 1206 1032 C 1191 1078 1153 1144 1093 1228 C 1033 1312 976 1357 922 1364 C 897 1366 869 1369 839 1371 C 808 1373 777 1374 745 1374 L 584 1374 L 584 737 L 717 737 C 773 737 813 743 839 757 C 864 770 883 783 897 797 C 918 818 939 852 960 899 C 980 946 993 984 997 1012 L 1020 1012 L 1020 428 L 997 428 C 993 460 979 500 957 550 C 934 600 914 634 897 653 C 882 668 862 682 836 694 C 810 706 771 713 717 713 L 584 713 L 584 199 C 584 124 596 76 622 56 C 648 35 707 25 801 25 C 857 25 910 27 961 31 C 1012 35 1050 49 1075 74 C 1117 114 1162 174 1211 253 C 1259 331 1294 390 1315 428 L 1333 428 L 1307 0 L 39 0 Z M 1007 1503 L 688 1740 L 373 1505 L 352 1519 C 394 1591 435 1661 476 1728 C 516 1794 549 1848 575 1888 C 585 1904 598 1915 614 1921 C 630 1926 656 1929 692 1929 C 728 1929 753 1926 769 1920 C 784 1914 796 1904 805 1892 C 827 1857 860 1805 902 1736 C 944 1666 987 1594 1030 1519 L 1007 1503 Z" unicode="" />
<glyph horiz-adv-x="1339" d="M 39 0 L 39 14 C 67 16 95 18 122 22 C 148 25 168 29 180 33 C 204 41 221 53 229 69 C 237 85 242 104 242 127 L 242 1264 C 242 1286 237 1307 229 1325 C 221 1343 204 1356 180 1364 C 163 1368 142 1372 116 1376 C 90 1379 64 1382 39 1384 L 39 1399 L 1229 1399 L 1229 1032 L 1206 1032 C 1191 1078 1153 1144 1093 1228 C 1033 1312 976 1357 922 1364 C 897 1366 869 1369 839 1371 C 808 1373 777 1374 745 1374 L 584 1374 L 584 737 L 717 737 C 773 737 813 743 839 757 C 864 770 883 783 897 797 C 918 818 939 852 960 899 C 980 946 993 984 997 1012 L 1020 1012 L 1020 428 L 997 428 C 993 460 979 500 957 550 C 934 600 914 634 897 653 C 882 668 862 682 836 694 C 810 706 771 713 717 713 L 584 713 L 584 199 C 584 124 596 76 622 56 C 648 35 707 25 801 25 C 857 25 910 27 961 31 C 1012 35 1050 49 1075 74 C 1117 114 1162 174 1211 253 C 1259 331 1294 390 1315 428 L 1333 428 L 1307 0 L 39 0 Z M 461 1550 C 419 1550 383 1566 353 1598 C 323 1630 309 1667 309 1710 C 309 1752 323 1790 353 1822 C 383 1854 419 1870 461 1870 C 501 1870 537 1854 567 1822 C 597 1790 612 1752 612 1710 C 612 1667 597 1630 567 1598 C 537 1566 501 1550 461 1550 Z M 911 1550 C 869 1550 833 1566 804 1598 C 774 1630 760 1667 760 1710 C 760 1752 774 1790 804 1822 C 833 1854 869 1870 911 1870 C 951 1870 987 1854 1017 1822 C 1047 1790 1063 1752 1063 1710 C 1063 1667 1047 1630 1017 1598 C 987 1566 951 1550 911 1550 Z" unicode="" />
<glyph horiz-adv-x="834" d="M 39 0 L 39 14 C 67 16 96 18 124 22 C 152 25 172 29 184 33 C 208 41 225 53 233 69 C 241 85 246 104 246 127 L 246 1264 C 246 1286 241 1307 233 1325 C 225 1343 208 1356 184 1364 C 168 1368 146 1372 118 1376 C 90 1379 64 1382 39 1384 L 39 1399 L 795 1399 L 795 1384 C 777 1382 753 1379 722 1377 C 690 1374 666 1370 649 1366 C 624 1359 608 1346 600 1328 C 592 1309 588 1288 588 1266 L 588 131 C 588 108 592 88 601 71 C 609 53 625 41 649 33 C 661 29 683 25 714 22 C 744 18 771 16 795 14 L 795 0 L 39 0 Z M 578 1489 C 508 1533 447 1571 393 1602 C 339 1632 296 1657 262 1677 C 218 1702 184 1726 161 1748 C 138 1770 127 1801 127 1839 C 127 1865 137 1889 158 1911 C 178 1932 208 1943 246 1943 C 280 1943 309 1932 333 1910 C 357 1888 381 1858 406 1820 C 429 1782 453 1741 479 1697 C 504 1652 541 1587 590 1503 L 578 1489 Z" unicode="" />
<glyph horiz-adv-x="834" d="M 39 0 L 39 14 C 67 16 96 18 124 22 C 152 25 172 29 184 33 C 208 41 225 53 233 69 C 241 85 246 104 246 127 L 246 1264 C 246 1286 241 1307 233 1325 C 225 1343 208 1356 184 1364 C 168 1368 146 1372 118 1376 C 90 1379 64 1382 39 1384 L 39 1399 L 795 1399 L 795 1384 C 777 1382 753 1379 722 1377 C 690 1374 666 1370 649 1366 C 624 1359 608 1346 600 1328 C 592 1309 588 1288 588 1266 L 588 131 C 588 108 592 88 601 71 C 609 53 625 41 649 33 C 661 29 683 25 714 22 C 744 18 771 16 795 14 L 795 0 L 39 0 Z M 267 1489 L 255 1503 C 303 1587 340 1652 366 1697 C 391 1741 415 1782 439 1820 C 463 1858 487 1888 511 1910 C 535 1932 564 1943 599 1943 C 637 1943 666 1932 687 1911 C 707 1889 718 1865 718 1839 C 718 1801 706 1770 683 1748 C 660 1726 627 1702 583 1677 C 549 1657 505 1632 451 1602 C 397 1571 336 1533 267 1489 Z" unicode="" />
<glyph horiz-adv-x="834" d="M 39 0 L 39 14 C 67 16 96 18 124 22 C 152 25 172 29 184 33 C 208 41 225 53 233 69 C 241 85 246 104 246 127 L 246 1264 C 246 1286 241 1307 233 1325 C 225 1343 208 1356 184 1364 C 168 1368 146 1372 118 1376 C 90 1379 64 1382 39 1384 L 39 1399 L 795 1399 L 795 1384 C 777 1382 753 1379 722 1377 C 690 1374 666 1370 649 1366 C 624 1359 608 1346 600 1328 C 592 1309 588 1288 588 1266 L 588 131 C 588 108 592 88 601 71 C 609 53 625 41 649 33 C 661 29 683 25 714 22 C 744 18 771 16 795 14 L 795 0 L 39 0 Z M 731 1503 L 412 1740 L 97 1505 L 76 1519 C 118 1591 159 1661 200 1728 C 240 1794 273 1848 299 1888 C 309 1904 322 1915 338 1921 C 354 1926 380 1929 416 1929 C 452 1929 477 1926 493 1920 C 508 1914 520 1904 529 1892 C 551 1857 584 1805 626 1736 C 668 1666 711 1594 754 1519 L 731 1503 Z" unicode="" />
<glyph horiz-adv-x="834" d="M 39 0 L 39 14 C 67 16 96 18 124 22 C 152 25 172 29 184 33 C 208 41 225 53 233 69 C 241 85 246 104 246 127 L 246 1264 C 246 1286 241 1307 233 1325 C 225 1343 208 1356 184 1364 C 168 1368 146 1372 118 1376 C 90 1379 64 1382 39 1384 L 39 1399 L 795 1399 L 795 1384 C 777 1382 753 1379 722 1377 C 690 1374 666 1370 649 1366 C 624 1359 608 1346 600 1328 C 592 1309 588 1288 588 1266 L 588 131 C 588 108 592 88 601 71 C 609 53 625 41 649 33 C 661 29 683 25 714 22 C 744 18 771 16 795 14 L 795 0 L 39 0 Z M 191 1550 C 149 1550 113 1566 83 1598 C 53 1630 39 1667 39 1710 C 39 1752 53 1790 83 1822 C 113 1854 149 1870 191 1870 C 231 1870 267 1854 297 1822 C 327 1790 342 1752 342 1710 C 342 1667 327 1630 297 1598 C 267 1566 231 1550 191 1550 Z M 641 1550 C 599 1550 563 1566 534 1598 C 504 1630 490 1667 490 1710 C 490 1752 504 1790 534 1822 C 563 1854 599 1870 641 1870 C 681 1870 717 1854 747 1822 C 777 1790 793 1752 793 1710 C 793 1667 777 1630 747 1598 C 717 1566 681 1550 641 1550 Z" unicode="" />
<glyph horiz-adv-x="1556" d="M 39 0 L 39 14 C 67 16 95 18 122 22 C 148 25 168 29 180 33 C 204 41 221 53 229 69 C 237 85 242 104 242 127 L 242 705 L 76 705 L 76 762 L 242 762 L 242 1264 C 242 1286 237 1307 229 1325 C 221 1343 204 1356 180 1364 C 163 1368 142 1372 116 1376 C 90 1379 64 1382 39 1384 L 39 1399 C 155 1399 289 1399 439 1399 C 589 1399 681 1399 715 1399 C 951 1399 1144 1336 1292 1211 C 1440 1086 1514 912 1514 690 C 1514 478 1439 310 1290 186 C 1140 62 944 0 702 0 C 700 0 616 0 452 0 C 287 0 149 0 39 0 Z M 748 23 C 876 23 972 78 1035 190 C 1098 302 1130 469 1130 692 C 1130 904 1092 1071 1016 1193 C 940 1315 839 1376 711 1376 C 692 1376 671 1375 647 1374 C 623 1373 602 1372 584 1372 L 584 762 L 838 762 L 838 705 L 584 705 L 584 154 C 584 110 598 77 627 55 C 655 33 696 23 748 23 Z" unicode="" />
<glyph horiz-adv-x="1487" d="M 1169 -6 L 276 1169 L 276 328 C 276 247 281 185 293 141 C 304 97 321 66 344 47 C 361 32 392 23 438 21 C 484 18 515 16 532 14 L 532 0 L -8 0 L -8 14 C 8 16 37 18 78 18 C 118 18 151 28 176 47 C 199 64 216 96 226 142 C 236 188 242 250 242 328 L 242 1145 C 242 1176 237 1205 227 1232 C 217 1259 200 1284 178 1307 C 156 1328 128 1343 94 1353 C 60 1362 24 1371 -14 1380 L -14 1399 L 510 1399 L 1225 455 L 1225 1065 C 1225 1143 1219 1205 1207 1250 C 1195 1294 1177 1326 1155 1346 C 1138 1360 1106 1369 1060 1374 C 1013 1378 981 1382 965 1384 L 965 1399 L 1511 1399 L 1511 1384 C 1495 1381 1466 1378 1424 1376 C 1382 1374 1349 1364 1325 1346 C 1302 1328 1285 1296 1275 1250 C 1265 1203 1260 1142 1260 1067 L 1260 -6 L 1169 -6 Z M 409 1527 L 382 1538 C 408 1615 445 1682 494 1740 C 542 1798 597 1827 659 1827 C 716 1827 777 1809 842 1774 C 907 1738 961 1721 1005 1721 C 1039 1721 1071 1730 1100 1750 C 1128 1769 1152 1802 1171 1849 L 1198 1841 C 1177 1767 1141 1700 1090 1640 C 1038 1580 979 1550 913 1550 C 856 1550 796 1567 733 1603 C 670 1638 620 1656 583 1656 C 550 1656 518 1646 488 1626 C 458 1606 431 1573 409 1527 Z" unicode="" />
<glyph horiz-adv-x="1554" d="M 770 -33 C 672 -33 578 -16 490 16 C 401 48 324 96 258 158 C 192 220 139 295 101 385 C 62 474 43 574 43 684 C 43 806 64 915 106 1011 C 148 1107 206 1187 279 1251 C 344 1309 419 1353 505 1385 C 590 1416 681 1432 778 1432 C 874 1432 965 1416 1053 1386 C 1141 1356 1218 1311 1284 1251 C 1352 1189 1406 1112 1448 1021 C 1490 929 1511 825 1511 709 C 1511 595 1491 489 1451 391 C 1411 293 1354 210 1280 143 C 1216 85 1141 41 1056 11 C 971 -18 876 -33 770 -33 Z M 778 -8 C 904 -8 994 59 1047 195 C 1099 330 1126 499 1126 702 C 1126 881 1101 1043 1053 1189 C 1004 1334 912 1407 778 1407 C 662 1407 574 1344 516 1219 C 457 1093 428 918 428 694 C 428 497 454 331 507 195 C 560 59 650 -8 778 -8 Z M 950 1489 C 880 1533 819 1571 765 1602 C 711 1632 668 1657 634 1677 C 590 1702 556 1726 533 1748 C 510 1770 499 1801 499 1839 C 499 1865 509 1889 530 1911 C 550 1932 580 1943 618 1943 C 652 1943 681 1932 705 1910 C 729 1888 753 1858 778 1820 C 801 1782 825 1741 851 1697 C 876 1652 913 1587 962 1503 L 950 1489 Z" unicode="" />
<glyph horiz-adv-x="1554" d="M 770 -33 C 672 -33 578 -16 490 16 C 401 48 324 96 258 158 C 192 220 139 295 101 385 C 62 474 43 574 43 684 C 43 806 64 915 106 1011 C 148 1107 206 1187 279 1251 C 344 1309 419 1353 505 1385 C 590 1416 681 1432 778 1432 C 874 1432 965 1416 1053 1386 C 1141 1356 1218 1311 1284 1251 C 1352 1189 1406 1112 1448 1021 C 1490 929 1511 825 1511 709 C 1511 595 1491 489 1451 391 C 1411 293 1354 210 1280 143 C 1216 85 1141 41 1056 11 C 971 -18 876 -33 770 -33 Z M 778 -8 C 904 -8 994 59 1047 195 C 1099 330 1126 499 1126 702 C 1126 881 1101 1043 1053 1189 C 1004 1334 912 1407 778 1407 C 662 1407 574 1344 516 1219 C 457 1093 428 918 428 694 C 428 497 454 331 507 195 C 560 59 650 -8 778 -8 Z M 591 1489 L 579 1503 C 627 1587 664 1652 690 1697 C 715 1741 739 1782 763 1820 C 787 1858 811 1888 835 1910 C 859 1932 888 1943 923 1943 C 961 1943 990 1932 1011 1911 C 1031 1889 1042 1865 1042 1839 C 1042 1801 1030 1770 1007 1748 C 984 1726 951 1702 907 1677 C 873 1657 829 1632 775 1602 C 721 1571 660 1533 591 1489 Z" unicode="" />
<glyph horiz-adv-x="1554" d="M 770 -33 C 672 -33 578 -16 490 16 C 401 48 324 96 258 158 C 192 220 139 295 101 385 C 62 474 43 574 43 684 C 43 806 64 915 106 1011 C 148 1107 206 1187 279 1251 C 344 1309 419 1353 505 1385 C 590 1416 681 1432 778 1432 C 874 1432 965 1416 1053 1386 C 1141 1356 1218 1311 1284 1251 C 1352 1189 1406 1112 1448 1021 C 1490 929 1511 825 1511 709 C 1511 595 1491 489 1451 391 C 1411 293 1354 210 1280 143 C 1216 85 1141 41 1056 11 C 971 -18 876 -33 770 -33 Z M 778 -8 C 904 -8 994 59 1047 195 C 1099 330 1126 499 1126 702 C 1126 881 1101 1043 1053 1189 C 1004 1334 912 1407 778 1407 C 662 1407 574 1344 516 1219 C 457 1093 428 918 428 694 C 428 497 454 331 507 195 C 560 59 650 -8 778 -8 Z M 1095 1503 L 776 1740 L 461 1505 L 440 1519 C 482 1591 523 1661 564 1728 C 604 1794 637 1848 663 1888 C 673 1904 686 1915 702 1921 C 718 1926 744 1929 780 1929 C 816 1929 841 1926 857 1920 C 872 1914 884 1904 893 1892 C 915 1857 948 1805 990 1736 C 1032 1666 1075 1594 1118 1519 L 1095 1503 Z" unicode="" />
<glyph horiz-adv-x="1554" d="M 770 -33 C 672 -33 578 -16 490 16 C 401 48 324 96 258 158 C 192 220 139 295 101 385 C 62 474 43 574 43 684 C 43 806 64 915 106 1011 C 148 1107 206 1187 279 1251 C 344 1309 419 1353 505 1385 C 590 1416 681 1432 778 1432 C 874 1432 965 1416 1053 1386 C 1141 1356 1218 1311 1284 1251 C 1352 1189 1406 1112 1448 1021 C 1490 929 1511 825 1511 709 C 1511 595 1491 489 1451 391 C 1411 293 1354 210 1280 143 C 1216 85 1141 41 1056 11 C 971 -18 876 -33 770 -33 Z M 778 -8 C 904 -8 994 59 1047 195 C 1099 330 1126 499 1126 702 C 1126 881 1101 1043 1053 1189 C 1004 1334 912 1407 778 1407 C 662 1407 574 1344 516 1219 C 457 1093 428 918 428 694 C 428 497 454 331 507 195 C 560 59 650 -8 778 -8 Z M 399 1527 L 372 1538 C 398 1615 435 1682 484 1740 C 532 1798 587 1827 649 1827 C 706 1827 767 1809 832 1774 C 897 1738 951 1721 995 1721 C 1029 1721 1061 1730 1090 1750 C 1118 1769 1142 1802 1161 1849 L 1188 1841 C 1167 1767 1131 1700 1080 1640 C 1028 1580 969 1550 903 1550 C 846 1550 786 1567 723 1603 C 660 1638 610 1656 573 1656 C 540 1656 508 1646 478 1626 C 448 1606 421 1573 399 1527 Z" unicode="" />
<glyph horiz-adv-x="1554" d="M 770 -33 C 672 -33 578 -16 490 16 C 401 48 324 96 258 158 C 192 220 139 295 101 385 C 62 474 43 574 43 684 C 43 806 64 915 106 1011 C 148 1107 206 1187 279 1251 C 344 1309 419 1353 505 1385 C 590 1416 681 1432 778 1432 C 874 1432 965 1416 1053 1386 C 1141 1356 1218 1311 1284 1251 C 1352 1189 1406 1112 1448 1021 C 1490 929 1511 825 1511 709 C 1511 595 1491 489 1451 391 C 1411 293 1354 210 1280 143 C 1216 85 1141 41 1056 11 C 971 -18 876 -33 770 -33 Z M 778 -8 C 904 -8 994 59 1047 195 C 1099 330 1126 499 1126 702 C 1126 881 1101 1043 1053 1189 C 1004 1334 912 1407 778 1407 C 662 1407 574 1344 516 1219 C 457 1093 428 918 428 694 C 428 497 454 331 507 195 C 560 59 650 -8 778 -8 Z M 555 1550 C 513 1550 477 1566 447 1598 C 417 1630 403 1667 403 1710 C 403 1752 417 1790 447 1822 C 477 1854 513 1870 555 1870 C 595 1870 631 1854 661 1822 C 691 1790 706 1752 706 1710 C 706 1667 691 1630 661 1598 C 631 1566 595 1550 555 1550 Z M 1005 1550 C 963 1550 927 1566 898 1598 C 868 1630 854 1667 854 1710 C 854 1752 868 1790 898 1822 C 927 1854 963 1870 1005 1870 C 1045 1870 1081 1854 1111 1822 C 1141 1790 1157 1752 1157 1710 C 1157 1667 1141 1630 1111 1598 C 1081 1566 1045 1550 1005 1550 Z" unicode="" />
<glyph horiz-adv-x="1159" d="M 199 84 L 133 150 L 516 528 L 141 903 L 213 973 L 586 600 L 956 973 L 1020 907 L 647 537 L 1026 160 L 956 88 L 578 467 L 199 84 Z" unicode="" />
<glyph horiz-adv-x="1554" d="M 78 -68 L 51 -45 L 248 166 C 184 228 134 302 98 390 C 61 478 43 576 43 684 C 43 806 64 915 106 1011 C 148 1107 206 1187 279 1251 C 344 1309 419 1353 505 1385 C 590 1416 681 1432 778 1432 C 870 1432 958 1418 1043 1390 C 1127 1362 1202 1320 1268 1266 L 1446 1456 L 1475 1434 L 1294 1241 C 1359 1179 1411 1103 1451 1014 C 1491 924 1511 823 1511 709 C 1511 595 1491 489 1451 391 C 1411 293 1354 210 1280 143 C 1216 85 1141 41 1056 11 C 971 -18 876 -33 770 -33 C 676 -33 587 -18 501 11 C 415 41 340 85 274 143 L 78 -68 Z M 778 -8 C 904 -8 994 59 1047 195 C 1099 330 1126 499 1126 702 C 1126 759 1123 815 1119 871 C 1115 927 1108 980 1098 1030 L 459 342 C 482 237 520 152 572 88 C 624 24 692 -8 778 -8 Z M 451 385 L 1090 1073 C 1066 1170 1029 1250 980 1313 C 930 1375 863 1407 778 1407 C 662 1407 574 1344 516 1219 C 457 1093 428 918 428 694 C 428 638 429 584 433 532 C 436 480 442 431 451 385 Z" unicode="" />
<glyph horiz-adv-x="1542" d="M 799 -33 C 610 -33 465 13 365 105 C 265 197 215 318 215 467 L 215 1260 C 215 1282 210 1302 201 1318 C 192 1334 176 1349 154 1362 C 135 1372 111 1377 81 1379 C 51 1380 29 1382 14 1384 L 14 1399 L 764 1399 L 764 1384 C 746 1382 722 1379 692 1377 C 662 1374 639 1370 623 1366 C 597 1358 579 1345 571 1327 C 563 1309 559 1288 559 1266 L 559 446 C 559 306 585 205 639 143 C 693 80 774 49 883 49 C 989 49 1082 85 1161 158 C 1240 230 1280 337 1280 477 L 1280 1069 C 1280 1154 1273 1217 1261 1258 C 1248 1298 1230 1328 1208 1348 C 1192 1362 1161 1371 1116 1375 C 1070 1379 1039 1382 1022 1384 L 1022 1399 L 1567 1399 L 1567 1384 C 1542 1382 1510 1379 1471 1375 C 1431 1371 1401 1362 1380 1346 C 1355 1327 1338 1298 1329 1258 C 1319 1218 1315 1155 1315 1071 L 1315 467 C 1315 303 1265 178 1165 94 C 1065 9 943 -33 799 -33 Z M 1024 1489 C 954 1533 893 1571 839 1602 C 785 1632 742 1657 708 1677 C 664 1702 630 1726 607 1748 C 584 1770 573 1801 573 1839 C 573 1865 583 1889 604 1911 C 624 1932 654 1943 692 1943 C 726 1943 755 1932 779 1910 C 803 1888 827 1858 852 1820 C 875 1782 899 1741 925 1697 C 950 1652 987 1587 1036 1503 L 1024 1489 Z" unicode="" />
<glyph horiz-adv-x="1542" d="M 799 -33 C 610 -33 465 13 365 105 C 265 197 215 318 215 467 L 215 1260 C 215 1282 210 1302 201 1318 C 192 1334 176 1349 154 1362 C 135 1372 111 1377 81 1379 C 51 1380 29 1382 14 1384 L 14 1399 L 764 1399 L 764 1384 C 746 1382 722 1379 692 1377 C 662 1374 639 1370 623 1366 C 597 1358 579 1345 571 1327 C 563 1309 559 1288 559 1266 L 559 446 C 559 306 585 205 639 143 C 693 80 774 49 883 49 C 989 49 1082 85 1161 158 C 1240 230 1280 337 1280 477 L 1280 1069 C 1280 1154 1273 1217 1261 1258 C 1248 1298 1230 1328 1208 1348 C 1192 1362 1161 1371 1116 1375 C 1070 1379 1039 1382 1022 1384 L 1022 1399 L 1567 1399 L 1567 1384 C 1542 1382 1510 1379 1471 1375 C 1431 1371 1401 1362 1380 1346 C 1355 1327 1338 1298 1329 1258 C 1319 1218 1315 1155 1315 1071 L 1315 467 C 1315 303 1265 178 1165 94 C 1065 9 943 -33 799 -33 Z M 718 1489 L 706 1503 C 754 1587 791 1652 817 1697 C 842 1741 866 1782 890 1820 C 914 1858 938 1888 962 1910 C 986 1932 1015 1943 1050 1943 C 1088 1943 1117 1932 1138 1911 C 1158 1889 1169 1865 1169 1839 C 1169 1801 1157 1770 1134 1748 C 1111 1726 1078 1702 1034 1677 C 1000 1657 956 1632 902 1602 C 848 1571 787 1533 718 1489 Z" unicode="" />
<glyph horiz-adv-x="1542" d="M 799 -33 C 610 -33 465 13 365 105 C 265 197 215 318 215 467 L 215 1260 C 215 1282 210 1302 201 1318 C 192 1334 176 1349 154 1362 C 135 1372 111 1377 81 1379 C 51 1380 29 1382 14 1384 L 14 1399 L 764 1399 L 764 1384 C 746 1382 722 1379 692 1377 C 662 1374 639 1370 623 1366 C 597 1358 579 1345 571 1327 C 563 1309 559 1288 559 1266 L 559 446 C 559 306 585 205 639 143 C 693 80 774 49 883 49 C 989 49 1082 85 1161 158 C 1240 230 1280 337 1280 477 L 1280 1069 C 1280 1154 1273 1217 1261 1258 C 1248 1298 1230 1328 1208 1348 C 1192 1362 1161 1371 1116 1375 C 1070 1379 1039 1382 1022 1384 L 1022 1399 L 1567 1399 L 1567 1384 C 1542 1382 1510 1379 1471 1375 C 1431 1371 1401 1362 1380 1346 C 1355 1327 1338 1298 1329 1258 C 1319 1218 1315 1155 1315 1071 L 1315 467 C 1315 303 1265 178 1165 94 C 1065 9 943 -33 799 -33 Z M 1171 1503 L 852 1740 L 537 1505 L 516 1519 C 558 1591 599 1661 640 1728 C 680 1794 713 1848 739 1888 C 749 1904 762 1915 778 1921 C 794 1926 820 1929 856 1929 C 892 1929 917 1926 933 1920 C 948 1914 960 1904 969 1892 C 991 1857 1024 1805 1066 1736 C 1108 1666 1151 1594 1194 1519 L 1171 1503 Z" unicode="" />
<glyph horiz-adv-x="1542" d="M 799 -33 C 610 -33 465 13 365 105 C 265 197 215 318 215 467 L 215 1260 C 215 1282 210 1302 201 1318 C 192 1334 176 1349 154 1362 C 135 1372 111 1377 81 1379 C 51 1380 29 1382 14 1384 L 14 1399 L 764 1399 L 764 1384 C 746 1382 722 1379 692 1377 C 662 1374 639 1370 623 1366 C 597 1358 579 1345 571 1327 C 563 1309 559 1288 559 1266 L 559 446 C 559 306 585 205 639 143 C 693 80 774 49 883 49 C 989 49 1082 85 1161 158 C 1240 230 1280 337 1280 477 L 1280 1069 C 1280 1154 1273 1217 1261 1258 C 1248 1298 1230 1328 1208 1348 C 1192 1362 1161 1371 1116 1375 C 1070 1379 1039 1382 1022 1384 L 1022 1399 L 1567 1399 L 1567 1384 C 1542 1382 1510 1379 1471 1375 C 1431 1371 1401 1362 1380 1346 C 1355 1327 1338 1298 1329 1258 C 1319 1218 1315 1155 1315 1071 L 1315 467 C 1315 303 1265 178 1165 94 C 1065 9 943 -33 799 -33 Z M 645 1550 C 603 1550 567 1566 537 1598 C 507 1630 493 1667 493 1710 C 493 1752 507 1790 537 1822 C 567 1854 603 1870 645 1870 C 685 1870 721 1854 751 1822 C 781 1790 796 1752 796 1710 C 796 1667 781 1630 751 1598 C 721 1566 685 1550 645 1550 Z M 1095 1550 C 1053 1550 1017 1566 988 1598 C 958 1630 944 1667 944 1710 C 944 1752 958 1790 988 1822 C 1017 1854 1053 1870 1095 1870 C 1135 1870 1171 1854 1201 1822 C 1231 1790 1247 1752 1247 1710 C 1247 1667 1231 1630 1201 1598 C 1171 1566 1135 1550 1095 1550 Z" unicode="" />
<glyph horiz-adv-x="1401" d="M 297 0 L 297 14 C 315 14 344 16 384 19 C 423 21 449 25 463 31 C 487 39 504 53 513 71 C 521 89 526 110 526 133 L 526 453 C 526 497 522 533 515 559 C 507 585 490 624 463 674 C 438 718 388 810 312 948 C 236 1086 187 1174 166 1210 C 147 1240 127 1269 105 1295 C 83 1321 60 1341 37 1356 C 18 1366 0 1373 -18 1377 C -36 1381 -54 1383 -74 1384 L -74 1399 L 727 1399 L 727 1384 C 691 1382 644 1377 588 1370 C 532 1363 504 1350 504 1331 C 504 1324 512 1301 529 1262 C 545 1222 567 1178 594 1128 C 604 1106 642 1036 706 916 C 770 796 821 705 860 641 C 890 695 928 765 976 851 C 1024 937 1067 1017 1106 1090 C 1140 1155 1166 1206 1183 1242 C 1199 1278 1208 1302 1208 1313 C 1208 1340 1183 1358 1135 1367 C 1086 1375 1039 1381 993 1384 L 993 1399 L 1458 1399 L 1458 1384 C 1433 1381 1412 1378 1396 1374 C 1379 1370 1364 1364 1350 1356 C 1321 1339 1296 1317 1275 1289 C 1254 1261 1235 1232 1217 1202 C 1165 1117 1120 1040 1081 970 C 1041 900 996 818 944 723 C 909 659 888 607 880 567 C 872 527 868 475 868 412 L 868 137 C 868 115 872 95 882 77 C 891 59 907 45 930 35 C 942 30 968 25 1008 21 C 1048 17 1076 14 1094 14 L 1094 0 L 297 0 Z M 675 1489 L 663 1503 C 711 1587 748 1652 774 1697 C 799 1741 823 1782 847 1820 C 871 1858 895 1888 919 1910 C 943 1932 972 1943 1007 1943 C 1045 1943 1074 1932 1095 1911 C 1115 1889 1126 1865 1126 1839 C 1126 1801 1114 1770 1091 1748 C 1068 1726 1035 1702 991 1677 C 957 1657 913 1632 859 1602 C 805 1571 744 1533 675 1489 Z" unicode="" />
<glyph horiz-adv-x="1288" d="M 23 0 L 23 14 C 41 14 68 17 105 21 C 142 25 167 30 180 35 C 204 43 221 56 229 74 C 237 92 242 112 242 135 L 242 1260 C 242 1282 238 1302 230 1320 C 222 1337 205 1350 180 1360 C 157 1368 130 1373 98 1376 C 66 1379 41 1382 25 1384 L 25 1399 L 793 1399 L 793 1384 C 774 1383 750 1381 720 1379 C 690 1376 665 1372 647 1366 C 622 1358 605 1345 597 1329 C 588 1312 584 1292 584 1270 L 584 1098 L 764 1098 C 937 1098 1067 1069 1155 1012 C 1242 955 1286 868 1286 750 C 1286 596 1223 485 1098 416 C 972 347 832 313 676 313 L 584 313 L 584 137 C 584 114 588 93 597 75 C 605 57 621 43 645 35 C 657 30 680 26 714 22 C 747 18 779 16 811 14 L 811 0 L 23 0 Z M 584 342 L 621 342 C 731 342 809 378 853 451 C 897 524 920 607 920 700 C 920 802 899 890 859 962 C 819 1034 749 1071 649 1071 L 584 1071 L 584 342 Z" unicode="" />
<glyph horiz-adv-x="1276" d="M 858 -29 C 749 -29 671 -7 624 34 C 576 76 553 126 553 182 C 553 218 563 252 583 284 C 603 316 636 332 680 332 C 720 332 751 320 771 297 C 791 273 801 245 801 213 C 801 183 793 159 779 140 C 765 120 758 101 758 82 C 758 61 766 41 784 22 C 802 3 828 -6 864 -6 C 910 -6 948 11 978 47 C 1007 82 1022 124 1022 172 C 1022 216 1008 258 982 298 C 956 338 899 384 813 434 C 739 474 682 515 640 557 C 598 599 578 651 578 711 C 578 767 594 812 627 847 C 660 882 699 925 743 975 C 765 999 783 1032 795 1072 C 807 1112 813 1158 813 1210 C 813 1304 798 1377 769 1430 C 739 1482 699 1509 647 1509 C 583 1509 536 1475 507 1409 C 478 1342 463 1231 463 1075 L 463 0 L 25 0 L 25 14 C 43 14 58 16 71 18 C 84 20 98 24 113 29 C 132 35 146 46 155 62 C 163 78 168 98 168 121 L 168 911 L -18 911 L -18 944 L 168 944 L 168 985 C 168 1069 179 1146 202 1215 C 224 1283 259 1343 305 1393 C 347 1437 400 1471 465 1495 C 529 1518 601 1530 680 1530 C 778 1530 864 1506 939 1459 C 1013 1412 1051 1347 1051 1264 C 1051 1200 1035 1148 1004 1108 C 972 1068 935 1036 891 1014 C 846 989 805 969 769 953 C 733 937 715 914 715 885 C 715 856 739 825 787 793 C 835 760 905 715 997 657 C 1089 601 1151 547 1185 495 C 1218 443 1235 380 1235 305 C 1235 205 1198 124 1126 63 C 1053 1 964 -29 858 -29 Z" unicode="" />
<glyph horiz-adv-x="1032" d="M 289 -31 C 219 -31 161 -8 113 35 C 65 79 41 135 41 203 C 41 269 55 323 85 365 C 114 406 166 440 242 467 C 286 483 347 501 425 522 C 503 543 555 563 582 582 L 582 717 C 582 796 572 855 554 894 C 535 932 505 952 465 952 C 439 952 417 947 397 939 C 377 930 362 921 354 913 C 358 897 366 870 380 833 C 394 795 401 761 401 729 C 401 703 385 677 354 651 C 323 625 283 612 233 612 C 186 612 150 625 124 652 C 98 678 86 712 86 754 C 86 814 128 865 214 908 C 299 951 388 973 481 973 C 638 973 744 947 799 895 C 853 843 881 767 881 666 C 881 572 878 475 874 374 C 870 273 868 206 868 172 C 868 150 874 129 888 108 C 901 86 919 76 942 76 C 972 76 998 93 1018 129 C 1038 164 1048 212 1049 272 L 1073 272 C 1072 179 1051 106 1011 53 C 971 0 908 -27 823 -27 C 761 -27 711 -14 673 10 C 635 35 607 67 588 106 L 582 106 C 547 65 507 32 463 7 C 419 -18 361 -31 289 -31 Z M 455 78 C 482 78 505 83 524 93 C 543 103 560 119 575 143 L 584 549 C 503 519 444 484 407 446 C 370 407 352 345 352 260 C 352 194 362 148 382 120 C 402 92 426 78 455 78 Z M 690 1092 C 620 1136 559 1174 505 1205 C 451 1235 408 1260 374 1280 C 330 1305 296 1329 273 1351 C 250 1373 239 1404 239 1442 C 239 1468 249 1492 270 1514 C 290 1535 320 1546 358 1546 C 392 1546 421 1535 445 1513 C 469 1491 493 1461 518 1423 C 541 1385 565 1344 591 1300 C 616 1255 653 1190 702 1106 L 690 1092 Z" unicode="" />
<glyph horiz-adv-x="1032" d="M 289 -31 C 219 -31 161 -8 113 35 C 65 79 41 135 41 203 C 41 269 55 323 85 365 C 114 406 166 440 242 467 C 286 483 347 501 425 522 C 503 543 555 563 582 582 L 582 717 C 582 796 572 855 554 894 C 535 932 505 952 465 952 C 439 952 417 947 397 939 C 377 930 362 921 354 913 C 358 897 366 870 380 833 C 394 795 401 761 401 729 C 401 703 385 677 354 651 C 323 625 283 612 233 612 C 186 612 150 625 124 652 C 98 678 86 712 86 754 C 86 814 128 865 214 908 C 299 951 388 973 481 973 C 638 973 744 947 799 895 C 853 843 881 767 881 666 C 881 572 878 475 874 374 C 870 273 868 206 868 172 C 868 150 874 129 888 108 C 901 86 919 76 942 76 C 972 76 998 93 1018 129 C 1038 164 1048 212 1049 272 L 1073 272 C 1072 179 1051 106 1011 53 C 971 0 908 -27 823 -27 C 761 -27 711 -14 673 10 C 635 35 607 67 588 106 L 582 106 C 547 65 507 32 463 7 C 419 -18 361 -31 289 -31 Z M 455 78 C 482 78 505 83 524 93 C 543 103 560 119 575 143 L 584 549 C 503 519 444 484 407 446 C 370 407 352 345 352 260 C 352 194 362 148 382 120 C 402 92 426 78 455 78 Z M 364 1092 L 352 1106 C 400 1190 437 1255 463 1300 C 488 1344 512 1385 536 1423 C 560 1461 584 1491 608 1513 C 632 1535 661 1546 696 1546 C 734 1546 763 1535 784 1514 C 804 1492 815 1468 815 1442 C 815 1404 803 1373 780 1351 C 757 1329 724 1305 680 1280 C 646 1260 602 1235 548 1205 C 494 1174 433 1136 364 1092 Z" unicode="" />
<glyph horiz-adv-x="1032" d="M 289 -31 C 219 -31 161 -8 113 35 C 65 79 41 135 41 203 C 41 269 55 323 85 365 C 114 406 166 440 242 467 C 286 483 347 501 425 522 C 503 543 555 563 582 582 L 582 717 C 582 796 572 855 554 894 C 535 932 505 952 465 952 C 439 952 417 947 397 939 C 377 930 362 921 354 913 C 358 897 366 870 380 833 C 394 795 401 761 401 729 C 401 703 385 677 354 651 C 323 625 283 612 233 612 C 186 612 150 625 124 652 C 98 678 86 712 86 754 C 86 814 128 865 214 908 C 299 951 388 973 481 973 C 638 973 744 947 799 895 C 853 843 881 767 881 666 C 881 572 878 475 874 374 C 870 273 868 206 868 172 C 868 150 874 129 888 108 C 901 86 919 76 942 76 C 972 76 998 93 1018 129 C 1038 164 1048 212 1049 272 L 1073 272 C 1072 179 1051 106 1011 53 C 971 0 908 -27 823 -27 C 761 -27 711 -14 673 10 C 635 35 607 67 588 106 L 582 106 C 547 65 507 32 463 7 C 419 -18 361 -31 289 -31 Z M 455 78 C 482 78 505 83 524 93 C 543 103 560 119 575 143 L 584 549 C 503 519 444 484 407 446 C 370 407 352 345 352 260 C 352 194 362 148 382 120 C 402 92 426 78 455 78 Z M 835 1106 L 516 1343 L 201 1108 L 180 1122 C 222 1194 263 1264 304 1331 C 344 1397 377 1451 403 1491 C 413 1507 426 1518 442 1524 C 458 1529 484 1532 520 1532 C 556 1532 581 1529 597 1523 C 612 1517 624 1507 633 1495 C 655 1460 688 1408 730 1339 C 772 1269 815 1197 858 1122 L 835 1106 Z" unicode="" />
<glyph horiz-adv-x="1032" d="M 289 -31 C 219 -31 161 -8 113 35 C 65 79 41 135 41 203 C 41 269 55 323 85 365 C 114 406 166 440 242 467 C 286 483 347 501 425 522 C 503 543 555 563 582 582 L 582 717 C 582 796 572 855 554 894 C 535 932 505 952 465 952 C 439 952 417 947 397 939 C 377 930 362 921 354 913 C 358 897 366 870 380 833 C 394 795 401 761 401 729 C 401 703 385 677 354 651 C 323 625 283 612 233 612 C 186 612 150 625 124 652 C 98 678 86 712 86 754 C 86 814 128 865 214 908 C 299 951 388 973 481 973 C 638 973 744 947 799 895 C 853 843 881 767 881 666 C 881 572 878 475 874 374 C 870 273 868 206 868 172 C 868 150 874 129 888 108 C 901 86 919 76 942 76 C 972 76 998 93 1018 129 C 1038 164 1048 212 1049 272 L 1073 272 C 1072 179 1051 106 1011 53 C 971 0 908 -27 823 -27 C 761 -27 711 -14 673 10 C 635 35 607 67 588 106 L 582 106 C 547 65 507 32 463 7 C 419 -18 361 -31 289 -31 Z M 455 78 C 482 78 505 83 524 93 C 543 103 560 119 575 143 L 584 549 C 503 519 444 484 407 446 C 370 407 352 345 352 260 C 352 194 362 148 382 120 C 402 92 426 78 455 78 Z M 153 1130 L 126 1141 C 152 1218 189 1285 238 1343 C 286 1401 341 1430 403 1430 C 460 1430 521 1412 586 1377 C 651 1341 705 1324 749 1324 C 783 1324 815 1333 844 1353 C 872 1372 896 1405 915 1452 L 942 1444 C 921 1370 885 1303 834 1243 C 782 1183 723 1153 657 1153 C 600 1153 540 1170 477 1206 C 414 1241 364 1259 327 1259 C 294 1259 262 1249 232 1229 C 202 1209 175 1176 153 1130 Z" unicode="" />
<glyph horiz-adv-x="1032" d="M 289 -31 C 219 -31 161 -8 113 35 C 65 79 41 135 41 203 C 41 269 55 323 85 365 C 114 406 166 440 242 467 C 286 483 347 501 425 522 C 503 543 555 563 582 582 L 582 717 C 582 796 572 855 554 894 C 535 932 505 952 465 952 C 439 952 417 947 397 939 C 377 930 362 921 354 913 C 358 897 366 870 380 833 C 394 795 401 761 401 729 C 401 703 385 677 354 651 C 323 625 283 612 233 612 C 186 612 150 625 124 652 C 98 678 86 712 86 754 C 86 814 128 865 214 908 C 299 951 388 973 481 973 C 638 973 744 947 799 895 C 853 843 881 767 881 666 C 881 572 878 475 874 374 C 870 273 868 206 868 172 C 868 150 874 129 888 108 C 901 86 919 76 942 76 C 972 76 998 93 1018 129 C 1038 164 1048 212 1049 272 L 1073 272 C 1072 179 1051 106 1011 53 C 971 0 908 -27 823 -27 C 761 -27 711 -14 673 10 C 635 35 607 67 588 106 L 582 106 C 547 65 507 32 463 7 C 419 -18 361 -31 289 -31 Z M 455 78 C 482 78 505 83 524 93 C 543 103 560 119 575 143 L 584 549 C 503 519 444 484 407 446 C 370 407 352 345 352 260 C 352 194 362 148 382 120 C 402 92 426 78 455 78 Z M 293 1135 C 251 1135 215 1151 185 1183 C 155 1215 141 1252 141 1295 C 141 1337 155 1375 185 1407 C 215 1439 251 1455 293 1455 C 333 1455 369 1439 399 1407 C 429 1375 444 1337 444 1295 C 444 1252 429 1215 399 1183 C 369 1151 333 1135 293 1135 Z M 743 1135 C 701 1135 665 1151 636 1183 C 606 1215 592 1252 592 1295 C 592 1337 606 1375 636 1407 C 665 1439 701 1455 743 1455 C 783 1455 819 1439 849 1407 C 879 1375 895 1337 895 1295 C 895 1252 879 1215 849 1183 C 819 1151 783 1135 743 1135 Z" unicode="" />
<glyph horiz-adv-x="1032" d="M 289 -31 C 219 -31 161 -8 113 35 C 65 79 41 135 41 203 C 41 269 55 323 85 365 C 114 406 166 440 242 467 C 286 483 347 501 425 522 C 503 543 555 563 582 582 L 582 717 C 582 796 572 855 554 894 C 535 932 505 952 465 952 C 439 952 417 947 397 939 C 377 930 362 921 354 913 C 358 897 366 870 380 833 C 394 795 401 761 401 729 C 401 703 385 677 354 651 C 323 625 283 612 233 612 C 186 612 150 625 124 652 C 98 678 86 712 86 754 C 86 814 128 865 214 908 C 299 951 388 973 481 973 C 638 973 744 947 799 895 C 853 843 881 767 881 666 C 881 572 878 475 874 374 C 870 273 868 206 868 172 C 868 150 874 129 888 108 C 901 86 919 76 942 76 C 972 76 998 93 1018 129 C 1038 164 1048 212 1049 272 L 1073 272 C 1072 179 1051 106 1011 53 C 971 0 908 -27 823 -27 C 761 -27 711 -14 673 10 C 635 35 607 67 588 106 L 582 106 C 547 65 507 32 463 7 C 419 -18 361 -31 289 -31 Z M 455 78 C 482 78 505 83 524 93 C 543 103 560 119 575 143 L 584 549 C 503 519 444 484 407 446 C 370 407 352 345 352 260 C 352 194 362 148 382 120 C 402 92 426 78 455 78 Z M 512 1075 C 432 1075 368 1095 320 1135 C 272 1175 248 1228 248 1294 C 248 1359 274 1412 326 1452 C 378 1492 440 1513 512 1513 C 587 1513 650 1493 700 1453 C 750 1413 776 1360 776 1294 C 776 1230 751 1178 703 1137 C 655 1095 591 1075 512 1075 Z M 512 1104 C 558 1104 589 1124 606 1165 C 622 1206 631 1249 631 1294 C 631 1336 622 1379 606 1421 C 589 1463 558 1485 512 1485 C 467 1485 436 1464 419 1424 C 401 1383 393 1340 393 1294 C 393 1250 401 1207 418 1166 C 434 1124 466 1104 512 1104 Z" unicode="" />
<glyph horiz-adv-x="1477" d="M 289 -31 C 219 -31 161 -8 113 35 C 65 79 41 135 41 203 C 41 269 55 322 85 364 C 114 406 166 440 242 467 C 302 488 367 508 437 526 C 507 544 555 563 582 582 L 582 717 C 582 796 572 855 554 894 C 535 932 505 952 465 952 C 439 952 417 947 397 939 C 377 930 362 921 354 913 C 356 897 365 870 379 833 C 393 795 401 761 401 729 C 401 706 386 681 357 653 C 327 625 286 612 233 612 C 180 612 142 627 120 657 C 97 687 86 720 86 754 C 86 814 128 865 214 908 C 299 951 388 973 481 973 C 539 973 592 966 642 952 C 692 938 733 915 766 883 C 802 909 841 931 885 948 C 928 964 976 973 1028 973 C 1170 973 1276 935 1346 861 C 1415 787 1450 688 1450 565 L 1450 553 L 870 553 L 870 494 C 870 373 891 272 933 192 C 975 112 1045 72 1145 72 C 1207 72 1264 86 1316 115 C 1368 144 1413 194 1450 266 L 1473 250 C 1435 172 1379 106 1305 51 C 1231 -3 1144 -31 1042 -31 C 943 -31 860 -12 793 24 C 725 61 673 110 635 170 C 585 102 533 52 480 19 C 426 -14 363 -31 289 -31 Z M 455 78 C 482 78 505 83 524 93 C 543 103 560 119 575 143 L 584 549 C 503 519 444 484 407 446 C 370 407 352 345 352 260 C 352 194 362 148 382 120 C 402 92 426 78 455 78 Z M 870 580 L 1133 584 C 1133 722 1124 817 1106 869 C 1088 921 1057 948 1014 948 C 967 948 932 912 909 841 C 886 769 873 682 870 580 Z" unicode="" />
<glyph horiz-adv-x="911" d="M 242 -483 L 242 -453 C 307 -453 368 -446 426 -432 C 483 -418 512 -380 512 -319 C 512 -287 502 -266 484 -254 C 465 -242 435 -236 395 -236 L 395 -18 C 274 6 184 64 125 155 C 66 246 37 353 37 477 C 37 605 79 720 165 821 C 251 922 373 973 532 973 C 648 973 735 950 792 904 C 848 858 877 801 877 733 C 877 692 863 657 837 629 C 810 600 771 586 719 586 C 670 586 631 599 603 626 C 575 653 561 688 561 731 C 561 750 569 779 587 818 C 605 856 616 883 621 899 C 617 914 608 926 594 935 C 579 943 559 948 535 948 C 479 948 436 909 406 832 C 375 755 360 642 360 494 C 360 356 382 251 427 181 C 472 111 530 76 602 76 C 671 76 730 92 779 126 C 827 160 866 208 895 272 L 918 258 C 886 178 834 110 762 54 C 690 -2 609 -31 518 -31 C 501 -31 485 -30 470 -29 C 455 -28 440 -27 426 -25 L 426 -88 C 509 -86 575 -99 625 -127 C 675 -155 700 -202 700 -268 C 700 -356 658 -414 574 -442 C 490 -469 379 -483 242 -483 Z" unicode="" />
<glyph horiz-adv-x="963" d="M 528 -31 C 370 -31 248 15 164 108 C 79 200 37 323 37 477 C 37 615 79 733 165 829 C 251 925 367 973 514 973 C 656 973 762 935 832 861 C 901 787 936 688 936 565 L 936 553 L 356 553 L 356 494 C 356 373 377 272 419 192 C 461 112 531 72 631 72 C 693 72 750 86 802 115 C 854 144 899 194 936 266 L 958 250 C 920 172 865 106 791 51 C 717 -3 630 -31 528 -31 Z M 356 580 L 618 584 C 618 722 609 817 591 869 C 573 921 543 948 500 948 C 453 948 418 912 395 841 C 371 769 358 682 356 580 Z M 672 1092 C 602 1136 541 1174 487 1205 C 433 1235 390 1260 356 1280 C 312 1305 278 1329 255 1351 C 232 1373 221 1404 221 1442 C 221 1468 231 1492 252 1514 C 272 1535 302 1546 340 1546 C 374 1546 403 1535 427 1513 C 451 1491 475 1461 500 1423 C 523 1385 547 1344 573 1300 C 598 1255 635 1190 684 1106 L 672 1092 Z" unicode="" />
<glyph horiz-adv-x="963" d="M 528 -31 C 370 -31 248 15 164 108 C 79 200 37 323 37 477 C 37 615 79 733 165 829 C 251 925 367 973 514 973 C 656 973 762 935 832 861 C 901 787 936 688 936 565 L 936 553 L 356 553 L 356 494 C 356 373 377 272 419 192 C 461 112 531 72 631 72 C 693 72 750 86 802 115 C 854 144 899 194 936 266 L 958 250 C 920 172 865 106 791 51 C 717 -3 630 -31 528 -31 Z M 356 580 L 618 584 C 618 722 609 817 591 869 C 573 921 543 948 500 948 C 453 948 418 912 395 841 C 371 769 358 682 356 580 Z M 368 1092 L 356 1106 C 404 1190 441 1255 467 1300 C 492 1344 516 1385 540 1423 C 564 1461 588 1491 612 1513 C 636 1535 665 1546 700 1546 C 738 1546 767 1535 788 1514 C 808 1492 819 1468 819 1442 C 819 1404 807 1373 784 1351 C 761 1329 728 1305 684 1280 C 650 1260 606 1235 552 1205 C 498 1174 437 1136 368 1092 Z" unicode="" />
<glyph horiz-adv-x="963" d="M 528 -31 C 370 -31 248 15 164 108 C 79 200 37 323 37 477 C 37 615 79 733 165 829 C 251 925 367 973 514 973 C 656 973 762 935 832 861 C 901 787 936 688 936 565 L 936 553 L 356 553 L 356 494 C 356 373 377 272 419 192 C 461 112 531 72 631 72 C 693 72 750 86 802 115 C 854 144 899 194 936 266 L 958 250 C 920 172 865 106 791 51 C 717 -3 630 -31 528 -31 Z M 356 580 L 618 584 C 618 722 609 817 591 869 C 573 921 543 948 500 948 C 453 948 418 912 395 841 C 371 769 358 682 356 580 Z M 821 1106 L 502 1343 L 187 1108 L 166 1122 C 208 1194 249 1264 290 1331 C 330 1397 363 1451 389 1491 C 399 1507 412 1518 428 1524 C 444 1529 470 1532 506 1532 C 542 1532 567 1529 583 1523 C 598 1517 610 1507 619 1495 C 641 1460 674 1408 716 1339 C 758 1269 801 1197 844 1122 L 821 1106 Z" unicode="" />
<glyph horiz-adv-x="963" d="M 528 -31 C 370 -31 248 15 164 108 C 79 200 37 323 37 477 C 37 615 79 733 165 829 C 251 925 367 973 514 973 C 656 973 762 935 832 861 C 901 787 936 688 936 565 L 936 553 L 356 553 L 356 494 C 356 373 377 272 419 192 C 461 112 531 72 631 72 C 693 72 750 86 802 115 C 854 144 899 194 936 266 L 958 250 C 920 172 865 106 791 51 C 717 -3 630 -31 528 -31 Z M 356 580 L 618 584 C 618 722 609 817 591 869 C 573 921 543 948 500 948 C 453 948 418 912 395 841 C 371 769 358 682 356 580 Z M 289 1135 C 247 1135 211 1151 181 1183 C 151 1215 137 1252 137 1295 C 137 1337 151 1375 181 1407 C 211 1439 247 1455 289 1455 C 329 1455 365 1439 395 1407 C 425 1375 440 1337 440 1295 C 440 1252 425 1215 395 1183 C 365 1151 329 1135 289 1135 Z M 739 1135 C 697 1135 661 1151 632 1183 C 602 1215 588 1252 588 1295 C 588 1337 602 1375 632 1407 C 661 1439 697 1455 739 1455 C 779 1455 815 1439 845 1407 C 875 1375 891 1337 891 1295 C 891 1252 875 1215 845 1183 C 815 1151 779 1135 739 1135 Z" unicode="" />
<glyph horiz-adv-x="608" d="M 27 0 L 27 14 C 43 14 59 15 73 17 C 87 18 101 21 115 27 C 133 33 147 45 155 61 C 163 77 168 95 168 117 L 168 795 C 168 817 163 837 155 854 C 146 871 133 885 117 897 C 104 905 85 911 61 916 C 36 920 14 923 -4 924 L -4 936 L 457 961 L 465 952 L 465 115 C 465 93 467 76 473 62 C 479 48 491 37 510 29 C 524 21 541 17 560 16 C 579 14 595 14 608 14 L 608 0 L 27 0 Z M 453 1092 C 383 1136 322 1174 268 1205 C 214 1235 171 1260 137 1280 C 93 1305 59 1329 36 1351 C 13 1373 2 1404 2 1442 C 2 1468 12 1492 33 1514 C 53 1535 83 1546 121 1546 C 155 1546 184 1535 208 1513 C 232 1491 256 1461 281 1423 C 304 1385 328 1344 354 1300 C 379 1255 416 1190 465 1106 L 453 1092 Z" unicode="" />
<glyph horiz-adv-x="608" d="M 121 1092 L 109 1106 C 157 1190 194 1255 220 1300 C 245 1344 269 1385 293 1423 C 317 1461 341 1491 365 1513 C 389 1535 418 1546 453 1546 C 491 1546 520 1535 541 1514 C 561 1492 572 1468 572 1442 C 572 1404 560 1373 537 1351 C 514 1329 481 1305 437 1280 C 403 1260 359 1235 305 1205 C 251 1174 190 1136 121 1092 Z M 27 0 L 27 14 C 43 14 59 15 73 17 C 87 18 101 21 115 27 C 133 33 147 45 155 61 C 163 77 168 95 168 117 L 168 795 C 168 817 163 837 155 854 C 146 871 133 885 117 897 C 104 905 85 911 61 916 C 36 920 14 923 -4 924 L -4 936 L 457 961 L 465 952 L 465 115 C 465 93 467 76 473 62 C 479 48 491 37 510 29 C 524 21 541 17 560 16 C 579 14 595 14 608 14 L 608 0 L 27 0 Z" unicode="" />
<glyph horiz-adv-x="608" d="M 2 1087 L -14 1100 C 26 1172 62 1243 94 1313 C 125 1383 153 1438 178 1479 C 187 1495 200 1506 216 1512 C 232 1518 257 1522 289 1522 C 319 1522 343 1519 359 1513 C 375 1507 387 1497 395 1483 C 416 1446 443 1392 476 1321 C 508 1249 546 1176 588 1100 L 569 1085 L 285 1323 L 2 1087 Z M 27 0 L 27 14 C 43 14 59 15 73 17 C 87 18 101 21 115 27 C 133 33 147 45 155 61 C 163 77 168 95 168 117 L 168 795 C 168 817 163 837 155 854 C 146 871 133 885 117 897 C 104 905 85 911 61 916 C 36 920 14 923 -4 924 L -4 936 L 457 961 L 465 952 L 465 115 C 465 93 467 76 473 62 C 479 48 491 37 510 29 C 524 21 541 17 560 16 C 579 14 595 14 608 14 L 608 0 L 27 0 Z" unicode="" />
<glyph horiz-adv-x="608" d="M 74 1135 C 34 1135 0 1150 -29 1180 C -57 1210 -72 1245 -72 1286 C -72 1328 -57 1364 -29 1394 C 0 1424 34 1440 74 1440 C 114 1440 149 1425 178 1395 C 206 1365 221 1330 221 1290 C 221 1248 206 1211 178 1181 C 149 1150 114 1135 74 1135 Z M 494 1135 C 454 1135 419 1150 391 1180 C 362 1210 348 1245 348 1286 C 348 1328 362 1364 391 1394 C 419 1424 454 1440 494 1440 C 534 1440 568 1425 597 1395 C 626 1365 641 1330 641 1290 C 641 1248 626 1211 597 1181 C 568 1150 534 1135 494 1135 Z M 27 0 L 27 14 C 43 14 59 15 73 17 C 87 18 101 21 115 27 C 133 33 147 45 155 61 C 163 77 168 95 168 117 L 168 795 C 168 817 163 837 155 854 C 146 871 133 885 117 897 C 104 905 85 911 61 916 C 36 920 14 923 -4 924 L -4 936 L 457 961 L 465 952 L 465 115 C 465 93 467 76 473 62 C 479 48 491 37 510 29 C 524 21 541 17 560 16 C 579 14 595 14 608 14 L 608 0 L 27 0 Z" unicode="" />
<glyph horiz-adv-x="1094" d="M 541 -31 C 403 -31 284 14 185 104 C 86 194 37 317 37 473 C 37 621 85 742 182 836 C 278 930 402 977 553 977 C 591 977 624 972 652 962 C 679 952 701 940 719 926 L 727 930 C 714 1007 694 1072 666 1126 C 638 1180 607 1232 573 1282 L 336 1133 L 309 1176 L 545 1321 C 517 1355 484 1391 448 1429 C 411 1466 380 1495 354 1516 L 365 1532 C 397 1516 440 1494 492 1465 C 544 1435 590 1406 631 1376 L 823 1495 L 850 1452 L 676 1346 C 773 1274 860 1174 937 1045 C 1014 916 1053 767 1053 598 C 1053 414 1010 264 924 146 C 838 28 711 -31 541 -31 Z M 549 -8 C 611 -8 657 29 685 105 C 713 180 727 305 727 481 C 727 631 713 747 687 829 C 661 911 615 952 551 952 C 483 952 435 911 409 829 C 382 747 369 632 369 485 C 369 307 383 181 411 105 C 439 29 485 -8 549 -8 Z" unicode="" />
<glyph horiz-adv-x="1202" d="M 29 0 L 29 14 C 45 14 60 15 75 17 C 89 19 103 22 117 27 C 135 33 148 42 155 54 C 162 66 166 83 166 106 L 166 784 C 166 810 162 833 154 851 C 146 869 134 884 119 895 C 106 903 89 909 69 915 C 49 920 30 923 14 924 L 14 936 L 455 961 L 463 952 L 463 805 L 469 805 C 505 843 545 881 589 918 C 632 954 696 973 782 973 C 882 973 953 943 997 885 C 1041 826 1063 748 1063 651 L 1063 115 C 1063 92 1065 74 1070 61 C 1074 47 1086 37 1106 31 C 1120 25 1135 22 1149 20 C 1163 18 1179 16 1198 14 L 1198 0 L 655 0 L 655 14 C 668 14 681 16 695 18 C 709 20 721 24 731 29 C 745 33 754 44 757 60 C 760 76 762 96 762 119 L 762 664 C 762 734 749 782 724 808 C 699 834 669 848 633 848 C 589 848 552 838 523 819 C 493 799 473 779 463 758 L 463 117 C 463 94 464 76 468 62 C 472 48 480 39 494 33 C 506 26 519 22 533 20 C 547 18 561 16 575 14 L 575 0 L 29 0 Z M 231 1130 L 204 1141 C 230 1218 267 1285 316 1343 C 364 1401 419 1430 481 1430 C 538 1430 599 1412 664 1377 C 729 1341 783 1324 827 1324 C 861 1324 893 1333 922 1353 C 950 1372 974 1405 993 1452 L 1020 1444 C 999 1370 963 1303 912 1243 C 860 1183 801 1153 735 1153 C 678 1153 618 1170 555 1206 C 492 1241 442 1259 405 1259 C 372 1259 340 1249 310 1229 C 280 1209 253 1176 231 1130 Z" unicode="" />
<glyph horiz-adv-x="1094" d="M 541 -31 C 403 -31 284 14 185 104 C 86 194 37 317 37 473 C 37 619 83 738 176 832 C 268 926 393 973 549 973 C 707 973 832 926 922 833 C 1012 739 1057 621 1057 479 C 1057 337 1013 217 926 118 C 839 18 711 -31 541 -31 Z M 549 -8 C 614 -8 660 31 687 110 C 713 188 727 312 727 481 C 727 641 713 759 686 835 C 658 911 613 950 551 950 C 489 950 443 912 413 838 C 383 763 369 645 369 485 C 369 303 383 175 411 102 C 439 28 485 -8 549 -8 Z M 700 1092 C 630 1136 569 1174 515 1205 C 461 1235 418 1260 384 1280 C 340 1305 306 1329 283 1351 C 260 1373 249 1404 249 1442 C 249 1468 259 1492 280 1514 C 300 1535 330 1546 368 1546 C 402 1546 431 1535 455 1513 C 479 1491 503 1461 528 1423 C 551 1385 575 1344 601 1300 C 626 1255 663 1190 712 1106 L 700 1092 Z" unicode="" />
<glyph horiz-adv-x="1094" d="M 541 -31 C 403 -31 284 14 185 104 C 86 194 37 317 37 473 C 37 619 83 738 176 832 C 268 926 393 973 549 973 C 707 973 832 926 922 833 C 1012 739 1057 621 1057 479 C 1057 337 1013 217 926 118 C 839 18 711 -31 541 -31 Z M 549 -8 C 614 -8 660 31 687 110 C 713 188 727 312 727 481 C 727 641 713 759 686 835 C 658 911 613 950 551 950 C 489 950 443 912 413 838 C 383 763 369 645 369 485 C 369 303 383 175 411 102 C 439 28 485 -8 549 -8 Z M 393 1092 L 381 1106 C 429 1190 466 1255 492 1300 C 517 1344 541 1385 565 1423 C 589 1461 613 1491 637 1513 C 661 1535 690 1546 725 1546 C 763 1546 792 1535 813 1514 C 833 1492 844 1468 844 1442 C 844 1404 832 1373 809 1351 C 786 1329 753 1305 709 1280 C 675 1260 631 1235 577 1205 C 523 1174 462 1136 393 1092 Z" unicode="" />
<glyph horiz-adv-x="1094" d="M 541 -31 C 403 -31 284 14 185 104 C 86 194 37 317 37 473 C 37 619 83 738 176 832 C 268 926 393 973 549 973 C 707 973 832 926 922 833 C 1012 739 1057 621 1057 479 C 1057 337 1013 217 926 118 C 839 18 711 -31 541 -31 Z M 549 -8 C 614 -8 660 31 687 110 C 713 188 727 312 727 481 C 727 641 713 759 686 835 C 658 911 613 950 551 950 C 489 950 443 912 413 838 C 383 763 369 645 369 485 C 369 303 383 175 411 102 C 439 28 485 -8 549 -8 Z M 861 1106 L 542 1343 L 227 1108 L 206 1122 C 248 1194 289 1264 330 1331 C 370 1397 403 1451 429 1491 C 439 1507 452 1518 468 1524 C 484 1529 510 1532 546 1532 C 582 1532 607 1529 623 1523 C 638 1517 650 1507 659 1495 C 681 1460 714 1408 756 1339 C 798 1269 841 1197 884 1122 L 861 1106 Z" unicode="" />
<glyph horiz-adv-x="1094" d="M 541 -31 C 403 -31 284 14 185 104 C 86 194 37 317 37 473 C 37 619 83 738 176 832 C 268 926 393 973 549 973 C 707 973 832 926 922 833 C 1012 739 1057 621 1057 479 C 1057 337 1013 217 926 118 C 839 18 711 -31 541 -31 Z M 549 -8 C 614 -8 660 31 687 110 C 713 188 727 312 727 481 C 727 641 713 759 686 835 C 658 911 613 950 551 950 C 489 950 443 912 413 838 C 383 763 369 645 369 485 C 369 303 383 175 411 102 C 439 28 485 -8 549 -8 Z M 167 1130 L 140 1141 C 166 1218 203 1285 252 1343 C 300 1401 355 1430 417 1430 C 474 1430 535 1412 600 1377 C 665 1341 719 1324 763 1324 C 797 1324 829 1333 858 1353 C 886 1372 910 1405 929 1452 L 956 1444 C 935 1370 899 1303 848 1243 C 796 1183 737 1153 671 1153 C 614 1153 554 1170 491 1206 C 428 1241 378 1259 341 1259 C 308 1259 276 1249 246 1229 C 216 1209 189 1176 167 1130 Z" unicode="" />
<glyph horiz-adv-x="1094" d="M 541 -31 C 403 -31 284 14 185 104 C 86 194 37 317 37 473 C 37 619 83 738 176 832 C 268 926 393 973 549 973 C 707 973 832 926 922 833 C 1012 739 1057 621 1057 479 C 1057 337 1013 217 926 118 C 839 18 711 -31 541 -31 Z M 549 -8 C 614 -8 660 31 687 110 C 713 188 727 312 727 481 C 727 641 713 759 686 835 C 658 911 613 950 551 950 C 489 950 443 912 413 838 C 383 763 369 645 369 485 C 369 303 383 175 411 102 C 439 28 485 -8 549 -8 Z M 319 1135 C 277 1135 241 1151 211 1183 C 181 1215 167 1252 167 1295 C 167 1337 181 1375 211 1407 C 241 1439 277 1455 319 1455 C 359 1455 395 1439 425 1407 C 455 1375 470 1337 470 1295 C 470 1252 455 1215 425 1183 C 395 1151 359 1135 319 1135 Z M 769 1135 C 727 1135 691 1151 662 1183 C 632 1215 618 1252 618 1295 C 618 1337 632 1375 662 1407 C 691 1439 727 1455 769 1455 C 809 1455 845 1439 875 1407 C 905 1375 921 1337 921 1295 C 921 1252 905 1215 875 1183 C 845 1151 809 1135 769 1135 Z" unicode="" />
<glyph horiz-adv-x="1159" d="M 580 113 C 545 113 515 125 491 149 C 467 173 455 203 455 238 C 455 272 467 301 491 325 C 515 349 545 362 580 362 C 614 362 643 349 668 325 C 692 301 705 272 705 238 C 705 203 692 173 668 149 C 643 125 614 113 580 113 Z M 580 700 C 545 700 515 712 491 736 C 467 760 455 789 455 823 C 455 859 467 888 491 912 C 515 936 545 948 580 948 C 614 948 643 936 668 912 C 692 888 705 859 705 823 C 705 789 692 760 668 736 C 643 712 614 700 580 700 Z M 94 481 L 94 582 L 1065 582 L 1065 481 L 94 481 Z" unicode="" />
<glyph horiz-adv-x="1094" d="M 96 -51 L 72 -31 L 188 98 C 141 142 104 195 77 259 C 50 322 37 393 37 473 C 37 619 83 738 176 832 C 268 926 393 973 549 973 C 617 973 679 963 736 945 C 793 926 843 900 885 866 L 1014 1008 L 1036 985 L 909 846 C 957 802 993 748 1019 685 C 1044 622 1057 553 1057 479 C 1057 337 1013 217 926 118 C 839 18 711 -31 541 -31 C 479 -31 419 -21 363 -2 C 307 16 257 43 213 78 L 96 -51 Z M 549 -8 C 628 -8 677 42 697 144 C 717 245 727 357 727 481 C 727 507 726 537 725 571 C 724 604 723 633 721 659 L 377 238 C 381 180 397 124 423 71 C 449 18 491 -8 549 -8 Z M 373 281 L 717 702 C 709 765 693 822 668 873 C 642 924 603 950 551 950 C 471 950 421 899 400 798 C 379 697 369 593 369 485 C 369 453 369 419 369 381 C 369 343 371 310 373 281 Z" unicode="" />
<glyph horiz-adv-x="1169" d="M 401 -27 C 308 -27 241 4 200 68 C 159 132 139 211 139 307 L 139 799 C 139 820 134 840 126 860 C 118 880 104 894 86 903 C 73 909 57 913 39 916 C 20 919 2 921 -16 922 L -16 936 L 432 961 L 438 952 L 438 272 C 438 206 448 157 469 125 C 490 93 518 78 553 78 C 605 78 644 90 670 115 C 696 140 715 162 725 182 L 725 801 C 725 821 721 841 714 860 C 706 878 695 892 680 901 C 669 907 652 911 630 914 C 607 917 584 919 561 920 L 561 936 L 1012 961 L 1020 952 L 1020 154 C 1020 131 1024 111 1033 93 C 1041 75 1054 62 1071 53 C 1083 46 1100 41 1120 38 C 1140 35 1158 33 1174 33 L 1174 20 L 741 -8 L 727 6 L 727 133 L 721 133 C 686 94 645 58 599 24 C 552 -10 486 -27 401 -27 Z M 723 1092 C 653 1136 592 1174 538 1205 C 484 1235 441 1260 407 1280 C 363 1305 329 1329 306 1351 C 283 1373 272 1404 272 1442 C 272 1468 282 1492 303 1514 C 323 1535 353 1546 391 1546 C 425 1546 454 1535 478 1513 C 502 1491 526 1461 551 1423 C 574 1385 598 1344 624 1300 C 649 1255 686 1190 735 1106 L 723 1092 Z" unicode="" />
<glyph horiz-adv-x="1169" d="M 401 -27 C 308 -27 241 4 200 68 C 159 132 139 211 139 307 L 139 799 C 139 820 134 840 126 860 C 118 880 104 894 86 903 C 73 909 57 913 39 916 C 20 919 2 921 -16 922 L -16 936 L 432 961 L 438 952 L 438 272 C 438 206 448 157 469 125 C 490 93 518 78 553 78 C 605 78 644 90 670 115 C 696 140 715 162 725 182 L 725 801 C 725 821 721 841 714 860 C 706 878 695 892 680 901 C 669 907 652 911 630 914 C 607 917 584 919 561 920 L 561 936 L 1012 961 L 1020 952 L 1020 154 C 1020 131 1024 111 1033 93 C 1041 75 1054 62 1071 53 C 1083 46 1100 41 1120 38 C 1140 35 1158 33 1174 33 L 1174 20 L 741 -8 L 727 6 L 727 133 L 721 133 C 686 94 645 58 599 24 C 552 -10 486 -27 401 -27 Z M 440 1092 L 428 1106 C 476 1190 513 1255 539 1300 C 564 1344 588 1385 612 1423 C 636 1461 660 1491 684 1513 C 708 1535 737 1546 772 1546 C 810 1546 839 1535 860 1514 C 880 1492 891 1468 891 1442 C 891 1404 879 1373 856 1351 C 833 1329 800 1305 756 1280 C 722 1260 678 1235 624 1205 C 570 1174 509 1136 440 1092 Z" unicode="" />
<glyph horiz-adv-x="1169" d="M 401 -27 C 308 -27 241 4 200 68 C 159 132 139 211 139 307 L 139 799 C 139 820 134 840 126 860 C 118 880 104 894 86 903 C 73 909 57 913 39 916 C 20 919 2 921 -16 922 L -16 936 L 432 961 L 438 952 L 438 272 C 438 206 448 157 469 125 C 490 93 518 78 553 78 C 605 78 644 90 670 115 C 696 140 715 162 725 182 L 725 801 C 725 821 721 841 714 860 C 706 878 695 892 680 901 C 669 907 652 911 630 914 C 607 917 584 919 561 920 L 561 936 L 1012 961 L 1020 952 L 1020 154 C 1020 131 1024 111 1033 93 C 1041 75 1054 62 1071 53 C 1083 46 1100 41 1120 38 C 1140 35 1158 33 1174 33 L 1174 20 L 741 -8 L 727 6 L 727 133 L 721 133 C 686 94 645 58 599 24 C 552 -10 486 -27 401 -27 Z M 896 1106 L 577 1343 L 262 1108 L 241 1122 C 283 1194 324 1264 365 1331 C 405 1397 438 1451 464 1491 C 474 1507 487 1518 503 1524 C 519 1529 545 1532 581 1532 C 617 1532 642 1529 658 1523 C 673 1517 685 1507 694 1495 C 716 1460 749 1408 791 1339 C 833 1269 876 1197 919 1122 L 896 1106 Z" unicode="" />
<glyph horiz-adv-x="1169" d="M 401 -27 C 308 -27 241 4 200 68 C 159 132 139 211 139 307 L 139 799 C 139 820 134 840 126 860 C 118 880 104 894 86 903 C 73 909 57 913 39 916 C 20 919 2 921 -16 922 L -16 936 L 432 961 L 438 952 L 438 272 C 438 206 448 157 469 125 C 490 93 518 78 553 78 C 605 78 644 90 670 115 C 696 140 715 162 725 182 L 725 801 C 725 821 721 841 714 860 C 706 878 695 892 680 901 C 669 907 652 911 630 914 C 607 917 584 919 561 920 L 561 936 L 1012 961 L 1020 952 L 1020 154 C 1020 131 1024 111 1033 93 C 1041 75 1054 62 1071 53 C 1083 46 1100 41 1120 38 C 1140 35 1158 33 1174 33 L 1174 20 L 741 -8 L 727 6 L 727 133 L 721 133 C 686 94 645 58 599 24 C 552 -10 486 -27 401 -27 Z M 342 1135 C 300 1135 264 1151 234 1183 C 204 1215 190 1252 190 1295 C 190 1337 204 1375 234 1407 C 264 1439 300 1455 342 1455 C 382 1455 418 1439 448 1407 C 478 1375 493 1337 493 1295 C 493 1252 478 1215 448 1183 C 418 1151 382 1135 342 1135 Z M 792 1135 C 750 1135 714 1151 685 1183 C 655 1215 641 1252 641 1295 C 641 1337 655 1375 685 1407 C 714 1439 750 1455 792 1455 C 832 1455 868 1439 898 1407 C 928 1375 944 1337 944 1295 C 944 1252 928 1215 898 1183 C 868 1151 832 1135 792 1135 Z" unicode="" />
<glyph horiz-adv-x="932" d="M 137 -467 C 101 -467 61 -454 17 -428 C -26 -402 -49 -356 -49 -291 C -49 -254 -35 -220 -7 -188 C 21 -156 57 -141 102 -141 C 130 -141 160 -150 194 -168 C 227 -186 244 -220 244 -268 C 244 -300 240 -327 234 -351 C 228 -375 223 -398 221 -422 C 273 -406 321 -366 365 -301 C 409 -235 452 -151 492 -49 C 468 1 395 152 273 405 C 151 657 84 799 70 831 C 57 857 40 880 19 898 C -1 916 -30 927 -66 932 L -66 946 L 496 946 L 496 932 C 474 931 448 927 418 921 C 388 914 373 902 373 885 C 373 882 374 876 378 867 C 381 858 384 850 387 842 C 395 821 432 738 499 592 C 565 446 609 353 631 313 C 646 347 675 422 718 540 C 761 658 790 737 805 778 C 811 795 815 812 819 828 C 823 844 825 857 825 868 C 825 890 807 905 772 913 C 736 920 700 927 662 934 L 662 946 L 1004 946 L 1004 934 C 968 927 939 918 919 908 C 898 897 879 869 862 825 C 825 732 764 575 680 355 C 596 134 545 1 528 -43 C 469 -191 410 -299 351 -366 C 291 -433 220 -467 137 -467 Z M 448 1092 L 436 1106 C 484 1190 521 1255 547 1300 C 572 1344 596 1385 620 1423 C 644 1461 668 1491 692 1513 C 716 1535 745 1546 780 1546 C 818 1546 847 1535 868 1514 C 888 1492 899 1468 899 1442 C 899 1404 887 1373 864 1351 C 841 1329 808 1305 764 1280 C 730 1260 686 1235 632 1205 C 578 1174 517 1136 448 1092 Z" unicode="" />
<glyph horiz-adv-x="1169" d="M -18 -463 L -18 -449 C 3 -447 24 -446 45 -444 C 65 -442 82 -440 94 -436 C 113 -430 126 -418 134 -400 C 141 -382 145 -363 145 -342 L 145 1343 C 145 1369 140 1393 130 1414 C 120 1435 106 1451 90 1462 C 78 1470 56 1477 24 1482 C -7 1487 -32 1490 -51 1491 L -51 1503 L 432 1528 L 440 1520 L 440 840 L 449 838 C 471 863 505 892 550 924 C 595 956 651 973 717 973 C 831 973 926 928 1000 838 C 1074 748 1112 631 1112 487 C 1112 335 1069 211 983 117 C 897 22 793 -25 670 -25 C 614 -25 569 -18 535 -6 C 501 6 472 21 449 39 L 440 39 L 440 -332 C 440 -357 445 -377 455 -393 C 465 -408 479 -419 498 -426 C 523 -434 548 -440 574 -442 C 599 -444 623 -446 647 -449 L 647 -463 L -18 -463 Z M 602 8 C 669 8 716 50 744 136 C 772 221 786 330 786 463 C 786 567 772 661 745 746 C 718 831 667 874 592 874 C 555 874 526 867 504 853 C 482 839 460 820 440 795 L 440 156 C 450 124 467 91 491 58 C 514 24 551 8 602 8 Z" unicode="" />
<glyph horiz-adv-x="932" d="M 137 -467 C 101 -467 61 -454 17 -428 C -26 -402 -49 -356 -49 -291 C -49 -254 -35 -220 -7 -188 C 21 -156 57 -141 102 -141 C 130 -141 160 -150 194 -168 C 227 -186 244 -220 244 -268 C 244 -300 240 -327 234 -351 C 228 -375 223 -398 221 -422 C 273 -406 321 -366 365 -301 C 409 -235 452 -151 492 -49 C 468 1 395 152 273 405 C 151 657 84 799 70 831 C 57 857 40 880 19 898 C -1 916 -30 927 -66 932 L -66 946 L 496 946 L 496 932 C 474 931 448 927 418 921 C 388 914 373 902 373 885 C 373 882 374 876 378 867 C 381 858 384 850 387 842 C 395 821 432 738 499 592 C 565 446 609 353 631 313 C 646 347 675 422 718 540 C 761 658 790 737 805 778 C 811 795 815 812 819 828 C 823 844 825 857 825 868 C 825 890 807 905 772 913 C 736 920 700 927 662 934 L 662 946 L 1004 946 L 1004 934 C 968 927 939 918 919 908 C 898 897 879 869 862 825 C 825 732 764 575 680 355 C 596 134 545 1 528 -43 C 469 -191 410 -299 351 -366 C 291 -433 220 -467 137 -467 Z M 297 1135 C 255 1135 219 1151 189 1183 C 159 1215 145 1252 145 1295 C 145 1337 159 1375 189 1407 C 219 1439 255 1455 297 1455 C 337 1455 373 1439 403 1407 C 433 1375 448 1337 448 1295 C 448 1252 433 1215 403 1183 C 373 1151 337 1135 297 1135 Z M 747 1135 C 705 1135 669 1151 640 1183 C 610 1215 596 1252 596 1295 C 596 1337 610 1375 640 1407 C 669 1439 705 1455 747 1455 C 787 1455 823 1439 853 1407 C 883 1375 899 1337 899 1295 C 899 1252 883 1215 853 1183 C 823 1151 787 1135 747 1135 Z" unicode="" />
<glyph horiz-adv-x="608" d="M 27 0 L 27 14 C 43 14 59 15 73 17 C 87 18 101 21 115 27 C 133 33 147 45 155 61 C 163 77 168 95 168 117 L 168 795 C 168 817 163 837 155 854 C 146 871 133 885 117 897 C 104 905 85 911 61 916 C 36 920 14 923 -4 924 L -4 936 L 457 961 L 465 952 L 465 115 C 465 93 467 76 473 62 C 479 48 491 37 510 29 C 524 21 541 17 560 16 C 579 14 595 14 608 14 L 608 0 L 27 0 Z" unicode="" />
<glyph horiz-adv-x="1272" d="M 25 0 L 25 14 C 41 16 68 18 106 21 C 143 24 168 28 180 33 C 204 43 221 56 229 74 C 237 92 242 112 242 135 L 242 614 L 66 551 L 47 602 L 242 672 L 242 1262 C 242 1284 238 1304 230 1321 C 222 1337 205 1351 180 1362 C 160 1370 134 1375 100 1377 C 66 1379 41 1382 25 1384 L 25 1399 L 793 1399 L 793 1384 C 774 1382 750 1381 720 1381 C 690 1381 665 1378 647 1372 C 622 1364 605 1351 597 1333 C 588 1315 584 1294 584 1272 L 584 778 L 850 874 L 866 825 L 584 723 L 584 201 C 584 121 597 72 624 53 C 650 34 709 25 801 25 C 851 25 898 28 942 36 C 985 43 1016 56 1036 76 C 1070 110 1113 167 1165 247 C 1216 327 1255 392 1282 442 L 1298 442 L 1272 0 L 25 0 Z" unicode="" />
<glyph horiz-adv-x="588" d="M 8 0 L 8 14 C 24 14 40 15 54 16 C 68 16 81 19 94 25 C 113 31 127 42 135 58 C 143 73 147 92 147 115 L 147 659 L -6 602 L -25 649 L 147 715 L 147 1343 C 147 1369 142 1393 132 1414 C 122 1435 108 1451 92 1462 C 80 1470 58 1477 26 1482 C -5 1487 -30 1490 -49 1491 L -49 1503 L 434 1528 L 442 1520 L 442 805 L 588 860 L 604 811 L 442 750 L 442 121 C 442 98 446 79 455 64 C 463 48 477 37 496 29 C 510 22 523 18 536 18 C 549 17 565 16 584 14 L 584 0 L 8 0 Z" unicode="" />
<glyph horiz-adv-x="2154" d="M 801 0 C 580 0 398 60 256 180 C 114 300 43 470 43 692 C 43 920 118 1095 270 1217 C 421 1338 605 1399 821 1399 L 2044 1399 L 2044 1032 L 2021 1032 C 2006 1078 1968 1144 1908 1228 C 1848 1312 1791 1357 1737 1364 C 1712 1366 1684 1369 1654 1371 C 1623 1373 1592 1374 1561 1374 L 1399 1374 L 1399 737 L 1532 737 C 1588 737 1628 743 1654 757 C 1680 770 1699 783 1712 797 C 1733 818 1754 852 1775 899 C 1795 946 1808 984 1812 1012 L 1835 1012 L 1835 428 L 1812 428 C 1808 460 1794 500 1772 550 C 1749 600 1729 634 1712 653 C 1697 668 1677 682 1651 694 C 1625 706 1586 713 1532 713 L 1399 713 L 1399 199 C 1399 124 1412 76 1438 56 C 1464 35 1523 25 1616 25 C 1672 25 1725 27 1776 31 C 1827 35 1865 49 1890 74 C 1932 114 1977 174 2026 253 C 2074 331 2109 390 2130 428 L 2148 428 L 2122 0 L 801 0 Z M 829 23 C 885 23 927 32 955 50 C 983 68 1004 93 1020 123 C 1040 157 1052 245 1054 387 C 1056 529 1057 637 1057 713 C 1057 787 1056 891 1055 1026 C 1053 1161 1042 1246 1022 1280 C 1008 1312 985 1336 953 1351 C 921 1366 875 1374 815 1374 C 681 1374 582 1314 518 1195 C 454 1076 422 910 422 698 C 422 503 455 342 522 214 C 588 86 691 23 829 23 Z" unicode="" />
<glyph horiz-adv-x="1645" d="M 541 -31 C 403 -31 284 14 185 104 C 86 194 37 317 37 473 C 37 619 83 738 176 832 C 268 926 393 973 549 973 C 617 973 679 963 736 945 C 793 926 843 900 885 866 C 923 898 969 924 1021 944 C 1073 963 1132 973 1196 973 C 1352 973 1461 931 1524 848 C 1586 765 1618 671 1618 565 L 1618 553 L 1038 553 L 1038 494 C 1038 373 1059 272 1101 192 C 1143 112 1213 72 1313 72 C 1375 72 1432 86 1484 115 C 1536 144 1581 194 1618 266 L 1640 250 C 1602 172 1547 106 1473 51 C 1399 -3 1312 -31 1210 -31 C 1140 -31 1077 -21 1023 -3 C 968 15 921 41 881 74 C 839 41 789 15 733 -3 C 676 -21 612 -31 541 -31 Z M 549 -8 C 628 -8 677 42 697 144 C 717 245 727 357 727 481 C 727 598 716 705 695 803 C 674 901 626 950 551 950 C 471 950 421 899 400 798 C 379 697 369 593 369 485 C 369 363 378 250 397 147 C 415 43 466 -8 549 -8 Z M 1038 580 L 1300 584 C 1300 663 1294 743 1284 825 C 1274 907 1240 948 1182 948 C 1134 948 1099 912 1076 841 C 1053 769 1040 682 1038 580 Z" unicode="" />
<glyph horiz-adv-x="1171" d="M 586 -31 C 467 -31 373 -18 304 7 C 234 32 181 55 145 76 L 84 -16 L 59 -16 L 47 500 L 68 500 C 116 363 183 244 270 144 C 357 44 454 -6 561 -6 C 655 -6 723 22 766 80 C 809 137 831 200 831 268 C 831 328 810 380 769 426 C 727 472 669 508 594 535 C 549 549 502 565 453 581 C 403 597 363 611 332 625 C 245 661 181 714 141 785 C 100 856 80 934 80 1020 C 80 1130 123 1226 211 1309 C 298 1392 418 1434 571 1434 C 663 1434 743 1423 811 1403 C 879 1383 930 1362 965 1341 L 1018 1417 L 1042 1417 L 1051 932 L 1030 932 C 984 1060 926 1172 857 1266 C 787 1360 698 1407 590 1407 C 515 1407 458 1382 418 1332 C 378 1282 358 1227 358 1165 C 358 1105 375 1051 411 1005 C 447 959 508 920 596 889 C 636 874 682 859 734 843 C 785 827 827 813 860 799 C 939 765 1002 718 1050 659 C 1098 599 1122 516 1122 408 C 1122 283 1072 179 973 95 C 873 11 744 -31 586 -31 Z M 596 1513 C 560 1513 534 1516 519 1522 C 503 1528 491 1537 483 1550 C 460 1584 427 1635 385 1705 C 343 1774 300 1846 258 1922 L 281 1939 L 600 1701 L 915 1937 L 936 1922 C 894 1850 852 1780 812 1714 C 771 1647 738 1594 713 1554 C 702 1537 689 1526 673 1521 C 657 1515 632 1513 596 1513 Z" unicode="" />
<glyph horiz-adv-x="842" d="M 420 -31 C 354 -31 290 -20 228 1 C 166 22 124 41 104 57 L 57 -12 L 41 -12 L 31 342 L 45 342 C 74 270 123 194 192 113 C 260 32 332 -8 406 -8 C 458 -8 498 7 528 39 C 558 70 573 110 573 158 C 573 210 554 251 518 280 C 481 309 417 339 326 369 C 230 400 162 441 120 492 C 78 543 57 607 57 684 C 57 762 89 830 154 887 C 218 944 307 973 420 973 C 470 973 521 967 573 956 C 625 944 665 932 694 918 L 737 975 L 754 975 L 766 651 L 750 651 C 716 728 671 797 617 858 C 563 919 507 950 451 950 C 401 950 364 934 340 902 C 315 870 303 836 303 799 C 303 745 319 706 353 681 C 387 656 449 629 539 600 C 619 573 684 535 736 486 C 787 436 813 370 813 287 C 813 184 775 105 699 51 C 623 -3 530 -31 420 -31 Z M 420 1104 C 384 1104 358 1107 343 1113 C 327 1119 315 1128 307 1141 C 284 1175 251 1226 209 1296 C 167 1365 124 1437 82 1513 L 105 1530 L 424 1292 L 739 1528 L 760 1513 C 718 1441 676 1371 636 1305 C 595 1238 562 1185 537 1145 C 526 1128 513 1117 497 1112 C 481 1106 456 1104 420 1104 Z" unicode="" />
<glyph horiz-adv-x="1401" d="M 297 0 L 297 14 C 315 14 344 16 384 19 C 423 21 449 25 463 31 C 487 39 504 53 513 71 C 521 89 526 110 526 133 L 526 453 C 526 497 522 533 515 559 C 507 585 490 624 463 674 C 438 718 388 810 312 948 C 236 1086 187 1174 166 1210 C 147 1240 127 1269 105 1295 C 83 1321 60 1341 37 1356 C 18 1366 0 1373 -18 1377 C -36 1381 -54 1383 -74 1384 L -74 1399 L 727 1399 L 727 1384 C 691 1382 644 1377 588 1370 C 532 1363 504 1350 504 1331 C 504 1324 512 1301 529 1262 C 545 1222 567 1178 594 1128 C 604 1106 642 1036 706 916 C 770 796 821 705 860 641 C 890 695 928 765 976 851 C 1024 937 1067 1017 1106 1090 C 1140 1155 1166 1206 1183 1242 C 1199 1278 1208 1302 1208 1313 C 1208 1340 1183 1358 1135 1367 C 1086 1375 1039 1381 993 1384 L 993 1399 L 1458 1399 L 1458 1384 C 1433 1381 1412 1378 1396 1374 C 1379 1370 1364 1364 1350 1356 C 1321 1339 1296 1317 1275 1289 C 1254 1261 1235 1232 1217 1202 C 1165 1117 1120 1040 1081 970 C 1041 900 996 818 944 723 C 909 659 888 607 880 567 C 872 527 868 475 868 412 L 868 137 C 868 115 872 95 882 77 C 891 59 907 45 930 35 C 942 30 968 25 1008 21 C 1048 17 1076 14 1094 14 L 1094 0 L 297 0 Z M 565 1550 C 523 1550 487 1566 457 1598 C 427 1630 413 1667 413 1710 C 413 1752 427 1790 457 1822 C 487 1854 523 1870 565 1870 C 605 1870 641 1854 671 1822 C 701 1790 716 1752 716 1710 C 716 1667 701 1630 671 1598 C 641 1566 605 1550 565 1550 Z M 1015 1550 C 973 1550 937 1566 908 1598 C 878 1630 864 1667 864 1710 C 864 1752 878 1790 908 1822 C 937 1854 973 1870 1015 1870 C 1055 1870 1091 1854 1121 1822 C 1151 1790 1167 1752 1167 1710 C 1167 1667 1151 1630 1121 1598 C 1091 1566 1055 1550 1015 1550 Z" unicode="" />
<glyph horiz-adv-x="1282" d="M -8 0 L -8 20 L 870 1374 L 596 1374 C 540 1374 496 1371 464 1367 C 432 1363 406 1356 385 1348 C 356 1335 312 1293 253 1223 C 193 1152 138 1073 88 987 L 66 987 L 106 1399 L 1262 1399 L 1262 1378 L 383 25 L 686 25 C 796 25 872 29 915 38 C 957 47 988 63 1008 86 C 1047 132 1092 191 1143 264 C 1193 336 1233 401 1262 457 L 1282 457 L 1235 0 L -8 0 Z M 657 1501 C 621 1501 595 1504 580 1510 C 564 1516 552 1525 544 1538 C 521 1572 488 1623 446 1693 C 404 1762 361 1834 319 1910 L 342 1927 L 661 1689 L 976 1925 L 997 1910 C 955 1838 913 1768 873 1702 C 832 1635 799 1582 774 1542 C 763 1525 750 1514 734 1509 C 718 1503 693 1501 657 1501 Z" unicode="" />
<glyph horiz-adv-x="874" d="M 8 0 L 8 25 L 522 922 L 418 922 C 374 922 336 919 304 915 C 272 910 245 903 223 893 C 197 881 169 847 138 790 C 107 732 82 681 63 637 L 45 637 L 45 946 L 850 946 L 850 924 L 334 25 C 358 24 381 23 401 23 C 421 23 444 23 469 23 C 503 23 533 23 559 25 C 585 27 607 29 627 31 C 650 33 669 41 685 53 C 701 65 716 84 731 109 C 750 142 772 185 796 238 C 820 290 837 329 848 354 L 864 354 L 864 0 L 8 0 Z M 447 1104 C 411 1104 385 1107 370 1113 C 354 1119 342 1128 334 1141 C 311 1175 278 1226 236 1296 C 194 1365 151 1437 109 1513 L 132 1530 L 451 1292 L 766 1528 L 787 1513 C 745 1441 703 1371 663 1305 C 622 1238 589 1185 564 1145 C 553 1128 540 1117 524 1112 C 508 1106 483 1104 447 1104 Z" unicode="" />
<glyph horiz-adv-x="1124" d="M -92 -395 C -156 -395 -212 -379 -262 -349 C -311 -318 -336 -268 -336 -199 C -336 -162 -323 -131 -297 -105 C -271 -79 -240 -66 -205 -66 C -166 -66 -133 -77 -106 -101 C -79 -125 -66 -160 -66 -207 C -66 -237 -76 -265 -97 -291 C -117 -317 -139 -336 -162 -348 C -156 -357 -145 -364 -131 -369 C -117 -374 -102 -377 -88 -377 C -20 -377 36 -338 84 -261 C 131 -184 171 -70 203 80 C 229 204 249 309 262 395 C 274 480 288 565 303 651 L 86 651 L 92 690 L 307 690 C 325 800 351 890 384 962 C 416 1034 462 1097 520 1151 C 564 1193 617 1224 678 1246 C 739 1267 807 1278 883 1278 C 949 1278 1011 1259 1069 1222 C 1127 1185 1157 1135 1157 1071 C 1157 1037 1146 1007 1124 979 C 1102 951 1070 938 1028 938 C 991 938 958 948 930 969 C 901 990 887 1022 887 1065 C 887 1092 896 1120 914 1150 C 932 1179 951 1204 971 1225 C 966 1233 955 1240 939 1247 C 923 1253 904 1257 883 1257 C 819 1257 768 1219 729 1143 C 689 1067 657 957 633 811 L 612 690 L 868 690 L 860 651 L 606 651 C 586 537 570 441 558 365 C 546 288 531 212 514 137 C 496 59 468 -13 429 -83 C 390 -152 339 -212 276 -262 C 224 -302 167 -335 106 -359 C 45 -383 -20 -395 -92 -395 Z" unicode="" />
<glyph horiz-adv-x="440" d="M 248 979 C 179 979 128 1001 96 1045 C 63 1089 47 1149 47 1225 C 47 1311 82 1386 153 1451 C 224 1515 305 1563 397 1595 L 408 1573 C 354 1553 299 1516 243 1460 C 187 1404 156 1349 152 1296 L 233 1296 C 291 1296 334 1279 364 1246 C 393 1213 408 1176 408 1135 C 408 1093 394 1057 366 1026 C 338 994 298 979 248 979 Z" unicode="" />
<glyph horiz-adv-x="1024" d="M 827 1106 L 508 1343 L 193 1108 L 172 1122 C 214 1194 255 1264 296 1331 C 336 1397 369 1451 395 1491 C 405 1507 418 1518 434 1524 C 450 1529 476 1532 512 1532 C 548 1532 573 1529 589 1523 C 604 1517 616 1507 625 1495 C 647 1460 680 1408 722 1339 C 764 1269 807 1197 850 1122 L 827 1106 Z" unicode="" />
<glyph horiz-adv-x="1024" d="M 510 1104 C 474 1104 448 1107 433 1113 C 417 1119 405 1128 397 1141 C 374 1175 341 1226 299 1296 C 257 1365 214 1437 172 1513 L 195 1530 L 514 1292 L 829 1528 L 850 1513 C 808 1441 766 1371 726 1305 C 685 1238 652 1185 627 1145 C 616 1128 603 1117 587 1112 C 571 1106 546 1104 510 1104 Z" unicode="" />
<glyph horiz-adv-x="1024" d="M 174 1198 L 174 1384 L 850 1384 L 850 1198 L 174 1198 Z" unicode="" />
<glyph horiz-adv-x="1024" d="M 512 1098 C 456 1098 399 1125 341 1181 C 282 1236 234 1334 197 1475 L 229 1487 C 259 1429 298 1382 348 1348 C 398 1313 452 1296 512 1296 C 571 1296 625 1313 675 1348 C 725 1382 765 1429 795 1487 L 827 1475 C 789 1334 741 1236 683 1181 C 624 1125 567 1098 512 1098 Z" unicode="" />
<glyph horiz-adv-x="1024" d="M 512 1157 C 470 1157 434 1173 404 1205 C 374 1237 360 1274 360 1317 C 360 1359 374 1397 404 1429 C 434 1461 470 1477 512 1477 C 552 1477 588 1461 618 1429 C 648 1397 664 1359 664 1317 C 664 1274 648 1237 618 1205 C 588 1173 552 1157 512 1157 Z" unicode="" />
<glyph horiz-adv-x="1024" d="M 512 1075 C 432 1075 368 1095 320 1135 C 272 1175 248 1228 248 1294 C 248 1359 274 1412 326 1452 C 378 1492 440 1513 512 1513 C 587 1513 650 1493 700 1453 C 750 1413 776 1360 776 1294 C 776 1230 751 1178 703 1137 C 655 1095 591 1075 512 1075 Z M 512 1104 C 558 1104 589 1124 606 1165 C 622 1206 631 1249 631 1294 C 631 1336 622 1379 606 1421 C 589 1463 558 1485 512 1485 C 467 1485 436 1464 419 1424 C 401 1383 393 1340 393 1294 C 393 1250 401 1207 418 1166 C 434 1124 466 1104 512 1104 Z" unicode="" />
<glyph horiz-adv-x="1024" d="M 709 -483 C 595 -483 501 -469 427 -441 C 352 -413 315 -364 315 -293 C 315 -235 346 -183 409 -137 C 472 -90 545 -44 629 0 L 653 0 C 608 -40 575 -85 555 -133 C 534 -181 524 -225 524 -264 C 524 -320 538 -363 566 -395 C 594 -427 641 -447 709 -457 L 709 -483 Z" unicode="" />
<glyph horiz-adv-x="1024" d="M 131 1130 L 104 1141 C 130 1218 167 1285 216 1343 C 264 1401 319 1430 381 1430 C 438 1430 499 1412 564 1377 C 629 1341 683 1324 727 1324 C 761 1324 793 1333 822 1353 C 850 1372 874 1405 893 1452 L 920 1444 C 899 1370 863 1303 812 1243 C 760 1183 701 1153 635 1153 C 578 1153 518 1170 455 1206 C 392 1241 342 1259 305 1259 C 272 1259 240 1249 210 1229 C 180 1209 153 1176 131 1130 Z" unicode="" />
<glyph horiz-adv-x="1024" d="M 129 1096 L 113 1110 C 149 1175 181 1234 210 1287 C 239 1340 266 1385 291 1423 C 313 1457 336 1482 359 1498 C 381 1514 410 1522 444 1522 C 478 1522 504 1512 522 1494 C 540 1476 549 1455 549 1432 C 549 1408 542 1387 530 1369 C 518 1351 498 1333 471 1315 C 435 1290 392 1263 343 1233 C 293 1203 222 1157 129 1096 Z M 512 1096 L 496 1110 C 535 1178 569 1237 597 1289 C 625 1341 650 1385 674 1423 C 696 1459 719 1484 742 1499 C 764 1514 793 1522 827 1522 C 861 1522 887 1512 905 1494 C 923 1476 932 1455 932 1432 C 932 1406 925 1384 913 1368 C 901 1351 881 1333 854 1315 C 818 1290 775 1263 727 1233 C 678 1203 606 1157 512 1096 Z" unicode="" />
<glyph horiz-adv-x="1239" d="M 190 -463 C 164 -463 142 -453 123 -433 C 103 -413 94 -386 94 -354 C 94 -310 100 -261 114 -207 C 128 -153 137 -110 141 -78 C 145 -45 148 -11 150 23 C 151 57 152 93 152 129 L 152 948 L 451 948 L 451 272 C 451 206 461 157 482 125 C 503 93 531 78 565 78 C 617 78 656 90 682 115 C 708 140 727 162 737 182 L 737 948 L 1032 948 L 1032 193 C 1032 159 1038 132 1052 114 C 1065 95 1082 86 1104 86 C 1142 86 1170 102 1188 136 C 1206 169 1217 205 1221 244 L 1241 244 C 1235 148 1209 81 1163 41 C 1117 1 1060 -18 993 -18 C 927 -18 873 -4 831 22 C 789 48 759 87 743 137 L 737 137 C 692 83 647 43 602 18 C 556 -7 503 -20 442 -20 C 378 -20 326 -7 288 17 C 249 41 218 79 195 129 L 190 129 L 190 14 C 190 -50 206 -112 238 -174 C 270 -236 287 -294 287 -348 C 287 -386 277 -414 258 -434 C 238 -453 216 -463 190 -463 Z" unicode="" />
<glyph horiz-adv-x="811" d="M 72 410 L 72 625 L 739 625 L 739 410 L 72 410 Z" unicode="" />
<glyph horiz-adv-x="1114" d="M 102 420 L 102 612 L 1012 612 L 1012 420 L 102 420 Z" unicode="" />
<glyph horiz-adv-x="1810" d="M 102 420 L 102 612 L 1708 612 L 1708 420 L 102 420 Z" unicode="" />
<glyph horiz-adv-x="440" d="M 248 979 C 179 979 128 1001 96 1045 C 63 1089 47 1149 47 1225 C 47 1311 82 1386 153 1451 C 224 1515 305 1563 397 1595 L 408 1573 C 354 1553 299 1516 243 1460 C 187 1404 156 1349 152 1296 L 233 1296 C 291 1296 334 1279 364 1246 C 393 1213 408 1176 408 1135 C 408 1093 394 1057 366 1026 C 338 994 298 979 248 979 Z" unicode="" />
<glyph horiz-adv-x="440" d="M 68 975 L 57 997 C 111 1016 166 1054 222 1110 C 278 1166 308 1220 313 1274 L 231 1274 C 173 1274 130 1290 101 1323 C 71 1356 57 1394 57 1436 C 57 1476 71 1512 99 1544 C 127 1575 166 1591 217 1591 C 285 1591 335 1569 368 1525 C 401 1481 418 1421 418 1346 C 418 1259 382 1183 311 1119 C 240 1054 159 1006 68 975 Z" unicode="" />
<glyph horiz-adv-x="481" d="M 57 -328 L 47 -305 C 101 -285 156 -248 212 -192 C 268 -136 298 -81 303 -29 L 221 -29 C 153 -29 107 -9 83 30 C 59 69 47 103 47 133 C 47 160 59 193 85 231 C 111 269 151 289 207 289 C 284 289 337 263 365 212 C 393 160 408 104 408 43 C 408 -53 368 -131 290 -193 C 211 -255 133 -300 57 -328 Z" unicode="" />
<glyph horiz-adv-x="854" d="M 248 979 C 179 979 128 1001 96 1045 C 63 1089 47 1149 47 1225 C 47 1310 82 1385 153 1450 C 223 1515 305 1563 397 1595 L 408 1573 C 354 1553 299 1516 243 1460 C 187 1404 156 1349 152 1296 L 233 1296 C 291 1296 334 1279 364 1246 C 393 1212 408 1175 408 1135 C 408 1093 394 1057 366 1026 C 338 994 298 979 248 979 Z M 662 979 C 593 979 542 1001 510 1045 C 477 1089 461 1149 461 1225 C 461 1311 496 1386 567 1451 C 638 1515 719 1563 811 1595 L 821 1573 C 767 1553 712 1516 656 1460 C 600 1404 569 1349 565 1296 L 647 1296 C 705 1296 748 1279 777 1246 C 806 1213 821 1176 821 1135 C 821 1093 807 1057 779 1026 C 751 994 712 979 662 979 Z" unicode="" />
<glyph horiz-adv-x="854" d="M 68 975 L 57 997 C 111 1016 165 1054 221 1110 C 276 1166 307 1220 313 1274 L 231 1274 C 173 1274 130 1290 101 1323 C 71 1356 57 1394 57 1436 C 57 1476 71 1512 99 1544 C 127 1575 166 1591 217 1591 C 285 1591 335 1569 368 1525 C 401 1481 418 1421 418 1346 C 418 1259 382 1183 311 1119 C 240 1054 159 1006 68 975 Z M 481 975 L 471 997 C 525 1016 579 1054 635 1110 C 690 1166 721 1220 727 1274 L 645 1274 C 587 1274 544 1290 515 1323 C 485 1356 471 1394 471 1436 C 471 1476 485 1512 513 1544 C 541 1575 580 1591 631 1591 C 699 1591 749 1569 782 1525 C 814 1481 831 1421 831 1346 C 831 1259 795 1183 725 1119 C 654 1054 573 1006 481 975 Z" unicode="" />
<glyph horiz-adv-x="895" d="M 57 -328 L 47 -305 C 101 -285 156 -248 212 -192 C 268 -136 298 -81 303 -29 L 221 -29 C 153 -29 107 -9 83 30 C 59 69 47 103 47 133 C 47 160 59 193 85 231 C 111 269 151 289 207 289 C 284 289 337 263 365 212 C 393 160 408 104 408 43 C 408 -53 368 -131 290 -193 C 211 -255 133 -300 57 -328 Z M 471 -328 L 461 -305 C 515 -285 570 -248 626 -192 C 682 -136 712 -81 717 -29 L 635 -29 C 567 -29 521 -9 497 30 C 473 69 461 103 461 133 C 461 160 473 193 499 231 C 525 269 565 289 621 289 C 698 289 751 263 779 212 C 807 160 821 104 821 43 C 821 -53 781 -131 703 -193 C 625 -255 547 -300 471 -328 Z" unicode="" />
<glyph horiz-adv-x="870" d="M 426 197 C 420 313 409 448 395 601 C 380 754 366 889 354 1006 C 353 1018 351 1031 347 1045 C 343 1059 336 1067 328 1067 C 321 1067 314 1062 308 1052 C 302 1042 295 1032 287 1022 C 273 1004 257 985 239 963 C 221 941 198 930 172 930 C 140 930 114 939 93 959 C 71 979 61 1006 61 1040 C 61 1060 68 1078 82 1094 C 96 1110 113 1118 135 1118 C 153 1118 170 1111 185 1097 C 200 1083 211 1064 217 1040 C 232 1046 251 1056 273 1070 C 295 1083 316 1090 338 1090 C 351 1090 365 1087 381 1082 C 397 1077 410 1069 422 1057 C 415 1103 400 1150 378 1198 C 355 1246 344 1291 344 1333 C 344 1358 351 1382 366 1404 C 380 1426 403 1438 434 1438 C 464 1438 487 1426 501 1404 C 515 1382 522 1358 522 1333 C 522 1291 511 1246 489 1198 C 467 1150 452 1103 444 1057 C 456 1067 470 1075 485 1081 C 499 1087 514 1090 528 1090 C 549 1090 571 1083 594 1071 C 617 1058 636 1048 651 1042 C 657 1066 668 1084 684 1098 C 700 1111 717 1118 737 1118 C 758 1118 775 1110 789 1094 C 802 1078 809 1060 809 1040 C 809 1006 798 979 776 959 C 754 939 726 930 694 930 C 668 930 647 940 629 962 C 611 983 596 1002 584 1020 C 576 1030 569 1040 562 1051 C 554 1061 547 1067 539 1067 C 529 1067 523 1062 520 1052 C 516 1042 514 1027 514 1006 C 501 890 487 752 473 592 C 459 431 448 299 442 197 L 426 197 Z" unicode="" />
<glyph horiz-adv-x="870" d="M 436 10 C 408 10 387 19 371 39 C 355 59 348 80 348 104 C 348 144 359 179 383 209 C 407 239 421 267 426 293 C 417 283 401 274 377 266 C 353 258 334 254 319 254 C 295 254 278 256 266 261 C 254 265 243 270 233 274 C 228 248 218 228 203 214 C 187 200 170 193 150 193 C 129 193 112 201 99 217 C 86 233 80 251 80 272 C 80 296 87 317 102 335 C 116 353 139 362 170 362 C 206 362 232 347 248 318 C 263 288 285 274 315 274 C 327 274 336 281 342 296 C 348 310 354 328 360 350 C 365 374 376 425 392 501 C 408 577 420 640 426 688 L 442 688 C 450 641 463 579 480 501 C 496 423 507 372 512 350 C 516 328 522 310 528 296 C 534 281 544 274 557 274 C 586 274 608 288 622 318 C 636 347 662 362 698 362 C 728 362 752 353 768 335 C 784 317 793 296 793 272 C 793 251 786 233 772 217 C 758 201 740 193 719 193 C 698 193 681 199 667 213 C 653 227 643 246 637 272 C 626 269 614 265 601 261 C 588 256 572 254 553 254 C 537 254 518 258 495 267 C 471 275 454 284 444 293 C 450 264 465 235 489 207 C 512 178 524 144 524 104 C 524 80 516 59 501 39 C 485 19 464 10 436 10 Z M 426 752 C 419 798 407 861 390 939 C 373 1017 362 1067 358 1090 C 352 1111 345 1129 339 1143 C 333 1157 324 1165 313 1165 C 283 1165 261 1150 247 1121 C 232 1091 206 1077 170 1077 C 139 1077 116 1085 101 1103 C 85 1121 78 1142 78 1167 C 78 1187 84 1206 98 1222 C 112 1238 129 1247 150 1247 C 170 1247 187 1240 202 1226 C 216 1212 227 1193 233 1167 C 243 1170 255 1174 269 1179 C 282 1183 298 1186 317 1186 C 332 1186 351 1181 374 1172 C 396 1163 413 1155 424 1147 C 419 1175 405 1204 381 1232 C 357 1260 346 1295 346 1335 C 346 1358 353 1380 369 1400 C 385 1420 406 1430 434 1430 C 461 1430 482 1420 498 1400 C 514 1380 522 1358 522 1335 C 522 1295 510 1260 486 1230 C 462 1200 447 1172 442 1147 C 452 1155 469 1164 493 1173 C 516 1181 535 1186 551 1186 C 574 1186 591 1183 603 1179 C 615 1174 626 1169 637 1165 C 641 1191 651 1211 666 1225 C 681 1239 699 1247 721 1247 C 741 1247 758 1238 771 1222 C 784 1206 791 1187 791 1167 C 791 1142 783 1121 768 1103 C 752 1085 730 1077 700 1077 C 662 1077 636 1091 621 1121 C 605 1150 583 1165 555 1165 C 542 1165 532 1157 526 1143 C 520 1129 514 1111 510 1090 C 505 1065 494 1014 478 938 C 461 862 449 800 442 752 L 426 752 Z" unicode="" />
<glyph horiz-adv-x="813" d="M 422 391 C 346 391 281 418 226 472 C 170 526 143 590 143 666 C 143 741 170 806 226 861 C 281 916 346 944 422 944 C 497 944 562 916 617 861 C 672 806 700 741 700 666 C 700 590 672 526 617 472 C 562 418 497 391 422 391 Z" unicode="" />
<glyph horiz-adv-x="1653" d="M 276 -27 C 226 -27 182 -9 146 25 C 110 59 92 102 92 154 C 92 204 110 247 146 282 C 182 316 226 334 276 334 C 326 334 369 316 406 282 C 442 247 461 204 461 154 C 461 102 442 59 406 25 C 369 -9 326 -27 276 -27 Z M 827 -27 C 777 -27 733 -9 697 25 C 661 59 643 102 643 154 C 643 204 661 247 697 282 C 733 316 777 334 827 334 C 877 334 920 316 957 282 C 993 247 1012 204 1012 154 C 1012 102 993 59 957 25 C 920 -9 877 -27 827 -27 Z M 1378 -27 C 1328 -27 1284 -9 1248 25 C 1212 59 1194 102 1194 154 C 1194 204 1212 247 1248 282 C 1284 316 1328 334 1378 334 C 1428 334 1471 316 1508 282 C 1544 247 1563 204 1563 154 C 1563 102 1544 59 1508 25 C 1471 -9 1428 -27 1378 -27 Z" unicode="" />
<glyph horiz-adv-x="2613" d="M 453 580 C 351 580 265 609 196 667 C 126 725 92 809 92 920 C 92 1021 128 1105 201 1172 C 273 1238 357 1272 453 1272 C 553 1272 640 1243 713 1187 C 786 1130 823 1042 823 922 C 823 826 786 745 713 679 C 640 613 553 580 453 580 Z M 459 602 C 505 602 541 631 568 691 C 594 750 608 826 608 918 C 608 1013 596 1092 573 1155 C 550 1217 511 1249 455 1249 C 399 1249 359 1216 337 1152 C 314 1088 303 1013 303 928 C 303 839 314 762 336 698 C 358 634 399 602 459 602 Z M 1317 -27 C 1215 -27 1129 1 1059 59 C 989 117 954 201 954 311 C 954 411 991 495 1065 563 C 1139 630 1223 664 1317 664 C 1417 664 1503 635 1577 579 C 1651 522 1688 433 1688 313 C 1688 218 1651 138 1578 72 C 1504 6 1417 -27 1317 -27 Z M 1323 -6 C 1367 -6 1403 23 1431 83 C 1459 143 1473 218 1473 309 C 1473 404 1461 483 1437 546 C 1413 609 1374 641 1319 641 C 1263 641 1223 608 1201 543 C 1178 478 1167 403 1167 319 C 1167 231 1178 155 1200 91 C 1222 26 1263 -6 1323 -6 Z M 2148 -27 C 2046 -27 1961 1 1892 59 C 1822 117 1788 201 1788 311 C 1788 411 1824 495 1898 563 C 1971 630 2054 664 2148 664 C 2248 664 2336 635 2410 579 C 2484 522 2521 433 2521 313 C 2521 218 2484 138 2411 72 C 2337 6 2250 -27 2148 -27 Z M 2157 -6 C 2201 -6 2237 23 2265 83 C 2292 143 2306 218 2306 309 C 2306 404 2294 483 2270 546 C 2246 609 2207 641 2152 641 C 2096 641 2056 608 2034 543 C 2012 478 2001 403 2001 319 C 2001 231 2012 155 2034 91 C 2056 26 2097 -6 2157 -6 Z M 469 -197 L 424 -174 L 1298 1411 L 1350 1386 L 469 -197 Z" unicode="" />
<glyph horiz-adv-x="721" d="M 606 33 C 526 87 442 147 352 212 C 262 277 190 328 137 365 C 116 379 102 391 96 401 C 89 411 86 431 86 459 C 86 484 89 502 95 513 C 101 523 113 535 131 549 L 606 885 L 616 874 L 340 457 L 616 41 L 606 33 Z" unicode="" />
<glyph horiz-adv-x="721" d="M 115 33 L 102 41 L 381 457 L 102 874 L 115 885 C 191 829 277 768 374 700 C 470 632 542 582 588 549 C 606 535 619 523 625 513 C 631 502 635 484 635 459 C 635 431 631 411 625 401 C 618 391 604 379 584 365 C 530 328 459 277 369 212 C 279 147 194 87 115 33 Z" unicode="" />
<glyph horiz-adv-x="668" d="M -201 -418 L -250 -391 L 784 1538 L 838 1511 L -201 -418 Z" unicode="" />
<glyph horiz-adv-x="1235" d="M 752 -29 C 604 -29 480 15 380 104 C 280 193 220 321 201 489 L 49 489 L 49 524 L 199 524 C 197 550 196 577 197 604 C 197 631 198 657 199 682 L 49 682 L 49 719 L 205 719 C 225 871 290 1000 398 1108 C 506 1216 647 1270 819 1270 C 929 1270 1019 1244 1089 1194 C 1159 1144 1194 1079 1194 1001 C 1194 940 1180 897 1153 873 C 1126 848 1098 836 1069 836 C 1030 836 999 847 977 869 C 955 891 944 918 944 950 C 944 986 957 1019 983 1048 C 1009 1076 1022 1106 1022 1137 C 1017 1165 995 1191 957 1214 C 919 1237 872 1249 817 1249 C 727 1249 659 1202 611 1108 C 563 1014 533 884 522 719 L 948 719 L 948 682 L 520 682 C 520 655 520 627 520 597 C 520 567 521 543 522 524 L 895 524 L 895 489 L 524 489 C 531 369 561 266 615 181 C 668 95 744 53 842 53 C 922 53 990 75 1044 121 C 1098 167 1143 227 1180 303 L 1198 293 C 1158 205 1104 130 1037 66 C 969 2 874 -29 752 -29 Z" unicode="" />
<glyph horiz-adv-x="1399" d="M 600 887 L 600 899 C 606 899 617 901 635 904 C 653 906 666 911 676 918 C 684 924 690 935 694 952 C 698 968 700 990 700 1018 L 700 1300 C 700 1316 698 1329 694 1339 C 690 1348 684 1356 678 1362 C 667 1368 655 1373 641 1377 C 627 1381 615 1384 606 1384 L 606 1399 L 827 1399 L 983 1020 L 1112 1331 C 1116 1342 1120 1354 1123 1366 C 1125 1378 1127 1389 1128 1399 L 1356 1399 L 1356 1384 C 1349 1384 1338 1382 1324 1379 C 1310 1376 1299 1374 1292 1372 C 1285 1369 1280 1365 1277 1359 C 1273 1353 1272 1345 1272 1337 L 1272 948 C 1272 939 1273 932 1277 926 C 1280 920 1285 916 1292 913 C 1297 910 1307 907 1323 904 C 1339 901 1350 899 1358 899 L 1358 887 L 1051 887 L 1051 899 C 1057 899 1069 901 1089 903 C 1109 905 1121 908 1126 911 C 1133 915 1138 920 1142 926 C 1145 932 1147 939 1147 948 L 1147 1319 L 1135 1319 L 954 893 L 903 893 L 864 999 L 739 1309 L 727 1309 L 727 1024 C 727 995 729 973 734 957 C 738 941 744 930 752 924 C 758 917 772 911 792 907 C 812 902 825 899 831 899 L 831 887 L 600 887 Z M 166 887 L 166 899 C 172 899 184 900 200 902 C 216 904 227 906 233 909 C 241 911 248 915 252 921 C 256 927 258 934 258 942 L 258 1376 L 227 1376 C 219 1376 207 1375 193 1375 C 178 1375 166 1374 158 1374 C 141 1372 125 1354 109 1320 C 93 1286 84 1262 80 1247 L 66 1247 L 66 1399 L 573 1399 L 573 1247 L 559 1247 C 554 1262 544 1286 530 1320 C 515 1354 499 1372 483 1374 C 474 1374 463 1375 449 1375 C 435 1375 424 1376 414 1376 L 385 1376 L 385 946 C 385 938 387 931 391 925 C 395 919 400 914 408 911 L 473 899 L 473 887 L 166 887 Z" unicode="" />
<glyph horiz-adv-x="1159" d="M 94 483 L 94 582 L 1065 582 L 1065 483 L 94 483 Z" unicode="" />
<glyph horiz-adv-x="668" d="M -201 -418 L -250 -391 L 784 1538 L 838 1511 L -201 -418 Z" unicode="" />
<glyph horiz-adv-x="551" d="M 274 375 C 224 375 180 392 144 427 C 108 461 90 504 90 555 C 90 605 108 648 144 683 C 180 717 224 735 274 735 C 324 735 367 717 404 683 C 440 648 459 605 459 555 C 459 504 440 461 404 427 C 367 392 324 375 274 375 Z" unicode="" />
<glyph horiz-adv-x="1159" d="M 1028 182 L 123 594 L 123 678 L 1028 1090 L 1028 983 L 256 635 L 1028 287 L 1028 182 Z M 106 0 L 106 94 L 1051 94 L 1051 0 L 106 0 Z" unicode="" />
<glyph horiz-adv-x="1159" d="M 129 182 L 129 287 L 903 635 L 129 983 L 129 1090 L 1034 678 L 1034 594 L 129 182 Z M 106 0 L 106 94 L 1051 94 L 1051 0 L 106 0 Z" unicode="" />
<glyph horiz-adv-x="1262" d="M 772 -4 C 731 -4 695 10 664 40 C 633 69 618 106 618 150 C 618 176 624 205 636 237 C 648 269 655 304 655 342 L 655 365 L 641 375 C 634 374 627 373 620 373 C 613 373 606 373 600 373 C 578 373 558 376 539 383 C 519 389 501 398 485 410 L 459 408 C 444 386 434 365 429 344 C 423 322 419 302 416 283 C 408 235 392 195 367 162 C 341 129 304 113 256 113 C 215 113 178 128 146 158 C 114 188 98 225 98 270 C 98 314 114 350 147 380 C 179 409 220 424 268 424 C 285 424 307 424 334 426 C 361 427 390 435 420 451 L 426 479 C 420 492 415 506 411 522 C 407 537 406 552 406 567 C 406 576 406 585 407 593 C 408 601 410 610 412 618 L 401 645 C 392 647 383 649 374 650 C 364 650 355 651 346 651 C 317 651 293 648 274 644 C 255 639 235 637 215 637 C 170 637 132 652 102 683 C 72 714 57 751 57 793 C 57 835 72 871 102 903 C 132 934 169 950 213 950 C 249 950 279 941 301 923 C 323 905 339 885 350 864 C 361 840 371 813 379 783 C 387 752 403 724 428 698 L 459 700 C 477 719 499 734 523 745 C 547 756 573 762 600 762 L 623 776 C 623 818 611 860 588 902 C 564 943 553 979 553 1010 C 553 1054 568 1090 599 1118 C 630 1145 667 1159 709 1159 C 753 1159 790 1143 818 1112 C 846 1081 860 1045 860 1004 C 860 948 835 904 787 874 C 739 844 703 808 680 766 L 688 741 C 711 729 731 713 749 693 C 767 673 779 649 786 623 L 811 610 C 849 624 887 651 925 692 C 963 733 1005 754 1053 754 C 1093 754 1128 738 1158 708 C 1187 677 1202 640 1202 596 C 1202 553 1187 517 1157 488 C 1127 458 1091 444 1049 444 C 1010 444 971 459 933 489 C 895 519 854 539 811 547 L 793 530 C 788 505 779 482 765 461 C 751 440 733 422 713 408 L 711 387 C 727 365 744 349 763 338 C 781 326 800 316 819 307 C 849 293 876 273 898 247 C 920 221 932 190 932 152 C 932 111 916 75 885 43 C 853 11 816 -4 772 -4 Z M 600 426 C 640 426 672 439 698 467 C 724 495 737 529 737 569 C 737 607 724 640 698 668 C 672 695 640 709 600 709 C 561 709 528 695 502 668 C 476 640 463 607 463 569 C 463 529 476 495 502 467 C 528 439 561 426 600 426 Z" unicode="" />
<glyph horiz-adv-x="1270" d="M 27 0 L 27 14 C 43 14 59 16 73 19 C 87 21 101 25 115 31 C 133 37 147 48 155 64 C 163 79 168 98 168 121 L 168 913 L -29 913 L -29 946 L 168 946 L 168 969 C 168 1051 178 1126 199 1193 C 220 1259 256 1319 307 1372 C 349 1416 399 1451 455 1477 C 511 1503 577 1516 653 1516 C 730 1516 789 1504 831 1480 C 872 1456 901 1427 918 1395 C 959 1435 1007 1468 1062 1493 C 1117 1517 1181 1530 1255 1530 C 1366 1530 1441 1506 1480 1460 C 1518 1414 1538 1367 1538 1319 C 1538 1288 1525 1256 1499 1224 C 1473 1192 1437 1176 1389 1176 C 1357 1176 1324 1185 1290 1204 C 1256 1222 1239 1254 1239 1298 C 1239 1322 1243 1348 1253 1376 C 1262 1404 1270 1432 1276 1462 C 1276 1474 1270 1485 1259 1494 C 1247 1502 1235 1507 1223 1507 C 1171 1507 1132 1473 1108 1406 C 1084 1338 1069 1238 1065 1106 C 1064 1086 1064 1055 1064 1011 C 1064 967 1065 946 1065 946 L 1315 946 L 1315 913 L 1067 913 L 1067 129 C 1067 107 1071 89 1080 73 C 1089 57 1103 45 1122 39 C 1137 33 1158 27 1186 22 C 1214 17 1236 14 1253 14 L 1253 0 L 668 0 L 668 14 C 684 14 698 17 712 22 C 726 26 737 33 745 41 C 754 49 760 59 764 72 C 768 85 770 101 770 121 L 770 913 L 465 913 L 465 129 C 465 107 467 90 471 76 C 475 62 483 51 494 43 C 502 36 514 30 528 25 C 542 20 558 16 578 14 L 578 0 L 27 0 Z M 463 946 L 770 946 L 770 983 C 770 1015 771 1046 774 1076 C 777 1105 782 1133 788 1161 C 755 1161 722 1170 688 1189 C 654 1208 637 1240 637 1284 C 637 1307 641 1333 651 1361 C 660 1389 668 1418 674 1448 C 674 1460 668 1471 657 1480 C 645 1488 633 1493 621 1493 C 569 1493 530 1454 506 1376 C 482 1298 467 1193 463 1061 C 462 1041 462 1017 462 989 C 462 960 463 946 463 946 Z" unicode="" />
<glyph horiz-adv-x="1202" d="M 27 0 L 27 14 C 43 14 59 16 73 19 C 87 21 101 25 115 31 C 133 37 147 48 155 64 C 163 79 168 98 168 121 L 168 913 L -29 913 L -29 946 L 168 946 L 168 983 C 168 1065 180 1141 204 1210 C 228 1278 262 1336 307 1382 C 347 1424 401 1459 467 1487 C 533 1515 615 1530 715 1530 C 839 1530 928 1508 980 1464 C 1032 1420 1059 1369 1059 1309 C 1059 1278 1046 1245 1021 1209 C 995 1173 958 1155 909 1155 C 867 1155 831 1166 803 1188 C 774 1210 760 1244 760 1288 C 760 1311 763 1337 769 1365 C 775 1393 782 1422 788 1452 C 788 1464 777 1476 756 1488 C 735 1499 710 1505 682 1505 C 614 1505 562 1468 525 1395 C 488 1321 467 1215 463 1075 C 462 1055 462 1029 462 996 C 462 962 463 946 463 946 L 741 946 L 1051 963 L 1059 954 L 1059 125 C 1059 103 1062 85 1069 69 C 1076 53 1089 41 1108 33 C 1122 25 1137 20 1153 18 C 1169 16 1185 14 1202 14 L 1202 0 L 655 0 L 655 14 C 674 14 690 17 703 21 C 716 25 727 30 735 37 C 745 45 752 57 756 71 C 760 85 762 101 762 121 L 762 813 C 762 834 757 853 749 871 C 741 888 729 902 713 913 L 465 913 L 465 123 C 465 107 466 94 468 83 C 470 71 474 61 479 53 C 487 40 500 31 516 27 C 532 23 551 18 575 14 L 575 0 L 27 0 Z" unicode="" />
<glyph horiz-adv-x="1200" d="M 27 0 L 27 14 C 43 14 59 16 73 19 C 87 21 101 25 115 31 C 133 37 147 48 155 64 C 163 79 168 98 168 121 L 168 913 L -29 913 L -29 946 L 168 946 L 168 983 C 168 1065 178 1140 199 1206 C 220 1272 256 1331 307 1384 C 349 1426 398 1461 455 1489 C 511 1516 577 1530 653 1530 C 687 1530 721 1526 755 1520 C 788 1513 816 1503 840 1491 L 1047 1528 L 1055 1520 L 1055 125 C 1055 102 1059 83 1067 68 C 1075 52 1089 41 1108 33 C 1122 26 1136 22 1149 20 C 1161 18 1177 16 1196 14 L 1196 0 L 657 0 L 657 14 C 675 14 691 16 704 20 C 716 24 727 29 735 35 C 745 43 752 54 755 68 C 758 82 760 100 760 121 L 760 1159 C 743 1168 727 1184 712 1206 C 697 1228 690 1253 690 1282 C 690 1314 697 1339 711 1359 C 725 1378 738 1398 752 1419 C 739 1447 724 1468 706 1484 C 688 1499 666 1507 641 1507 C 589 1507 547 1481 516 1430 C 485 1378 467 1281 463 1137 C 462 1117 462 1081 462 1027 C 462 973 463 946 463 946 L 672 946 L 672 913 L 465 913 L 465 123 C 465 105 466 89 470 75 C 473 61 481 49 494 39 C 502 32 512 27 526 23 C 540 19 557 16 578 14 L 578 0 L 27 0 Z" unicode="" />
<glyph horiz-adv-x="1798" d="M 27 0 L 27 14 C 43 14 59 16 73 19 C 87 21 101 25 115 31 C 133 37 147 48 155 64 C 163 79 168 98 168 121 L 168 913 L -29 913 L -29 946 L 168 946 L 168 969 C 168 1051 178 1126 199 1193 C 220 1259 256 1319 307 1372 C 349 1416 399 1451 455 1477 C 511 1503 577 1516 653 1516 C 730 1516 789 1503 831 1479 C 872 1454 901 1425 918 1393 C 959 1433 1014 1466 1084 1492 C 1154 1517 1231 1530 1317 1530 C 1441 1530 1530 1508 1582 1464 C 1634 1420 1661 1369 1661 1309 C 1661 1278 1648 1245 1623 1209 C 1597 1173 1560 1155 1511 1155 C 1469 1155 1433 1166 1405 1188 C 1376 1210 1362 1244 1362 1288 C 1362 1311 1365 1337 1371 1365 C 1377 1393 1384 1422 1391 1452 C 1391 1464 1380 1476 1359 1488 C 1337 1499 1312 1505 1284 1505 C 1216 1505 1164 1468 1127 1395 C 1090 1321 1069 1215 1065 1075 C 1064 1055 1064 1029 1064 996 C 1064 962 1065 946 1065 946 L 1343 946 L 1653 963 L 1661 954 L 1661 125 C 1661 103 1664 85 1671 69 C 1678 53 1691 41 1710 33 C 1724 25 1740 20 1756 18 C 1772 16 1788 14 1804 14 L 1804 0 L 1257 0 L 1257 14 C 1276 14 1292 17 1305 21 C 1318 25 1329 30 1337 37 C 1347 45 1354 57 1358 71 C 1362 85 1364 101 1364 121 L 1364 813 C 1364 834 1360 853 1352 871 C 1344 888 1331 902 1315 913 L 1067 913 L 1067 123 C 1067 107 1068 94 1070 83 C 1072 71 1076 61 1081 53 C 1089 40 1102 31 1118 27 C 1134 23 1154 18 1178 14 L 1178 0 L 668 0 L 668 14 C 684 14 698 17 712 22 C 726 26 737 33 745 41 C 754 49 760 59 764 72 C 768 85 770 101 770 121 L 770 913 L 465 913 L 465 129 C 465 107 467 90 471 76 C 475 62 483 51 494 43 C 502 36 514 30 528 25 C 542 20 558 16 578 14 L 578 0 L 27 0 Z M 463 946 L 770 946 L 770 983 C 770 1015 771 1046 775 1076 C 779 1105 784 1133 791 1161 C 758 1161 724 1170 689 1189 C 654 1208 637 1240 637 1284 C 637 1307 641 1333 651 1361 C 660 1389 668 1418 674 1448 C 674 1460 668 1471 657 1480 C 645 1488 633 1493 621 1493 C 569 1493 530 1454 506 1376 C 482 1298 467 1193 463 1061 C 462 1041 462 1017 462 989 C 462 960 463 946 463 946 Z" unicode="" />
<glyph horiz-adv-x="1802" d="M 27 0 L 27 14 C 43 14 59 16 73 19 C 87 21 101 25 115 31 C 133 37 147 48 155 64 C 163 79 168 98 168 121 L 168 913 L -29 913 L -29 946 L 168 946 L 168 969 C 168 1051 178 1126 199 1193 C 220 1259 256 1319 307 1372 C 349 1416 399 1451 455 1477 C 511 1503 577 1516 653 1516 C 730 1516 789 1503 831 1479 C 872 1454 901 1425 918 1393 C 959 1433 1007 1466 1062 1492 C 1117 1517 1181 1530 1255 1530 C 1289 1530 1323 1526 1357 1520 C 1390 1513 1418 1503 1442 1491 L 1649 1528 L 1657 1520 L 1657 125 C 1657 102 1661 83 1669 68 C 1677 52 1691 41 1710 33 C 1724 26 1738 22 1751 20 C 1763 18 1779 16 1798 14 L 1798 0 L 1260 0 L 1260 14 C 1278 14 1293 16 1306 20 C 1318 24 1329 29 1337 35 C 1347 43 1354 54 1357 68 C 1360 82 1362 100 1362 121 L 1362 1159 C 1345 1168 1329 1184 1314 1206 C 1299 1228 1292 1253 1292 1282 C 1292 1314 1299 1339 1313 1359 C 1327 1378 1340 1398 1354 1419 C 1341 1447 1326 1468 1308 1484 C 1290 1499 1268 1507 1243 1507 C 1191 1507 1149 1481 1118 1430 C 1087 1378 1069 1281 1065 1137 C 1064 1117 1064 1081 1064 1027 C 1064 973 1065 946 1065 946 L 1274 946 L 1274 913 L 1067 913 L 1067 123 C 1067 107 1068 94 1070 83 C 1072 71 1076 61 1081 53 C 1089 40 1102 31 1118 27 C 1134 23 1154 18 1178 14 L 1178 0 L 668 0 L 668 14 C 684 14 698 17 712 22 C 726 26 737 33 745 41 C 754 49 760 59 764 72 C 768 85 770 101 770 121 L 770 913 L 465 913 L 465 129 C 465 107 467 90 471 76 C 475 62 483 51 494 43 C 502 36 514 30 528 25 C 542 20 558 16 578 14 L 578 0 L 27 0 Z M 463 946 L 770 946 L 770 983 C 770 1015 771 1046 775 1076 C 778 1106 783 1134 791 1161 C 758 1161 724 1170 689 1189 C 654 1208 637 1240 637 1284 C 637 1307 641 1333 651 1361 C 660 1389 668 1418 674 1448 C 674 1460 668 1471 657 1480 C 645 1488 633 1493 621 1493 C 569 1493 530 1454 506 1376 C 482 1298 467 1193 463 1061 C 462 1041 462 1017 462 989 C 462 960 463 946 463 946 Z" unicode="" />
<glyph horiz-adv-x="0" d="" unicode="" />
</font>
</defs>
</svg>
