<?xml version="1.0" encoding="utf-8" ?><svg version="1.1" xmlns = 'http://www.w3.org/2000/svg'><defs><font id='web' horiz-adv-x="1000">
<font-face font-family="web" descent="-512" cap-height="1393" units-per-em="2048" bbox="-733,-510,2268,1816" x-height="991" ascent="1536" />
<missing-glyph horiz-adv-x="502" d="" /><glyph horiz-adv-x="451" d="" unicode=" " />
<glyph horiz-adv-x="692" d="M 338 242 C 374 242 404 229 428 204 C 452 179 465 149 465 113 C 465 77 452 46 428 22 C 403 -1 372 -14 336 -14 C 300 -14 269 -1 245 22 C 221 46 209 77 209 113 C 209 149 221 179 246 204 C 270 229 301 242 338 242 Z M 338 465 L 492 1393 L 670 1393 L 461 465 L 338 465 Z" unicode="!" />
<glyph horiz-adv-x="803" d="M 264 850 L 238 1393 L 420 1393 L 393 850 L 264 850 Z M 600 850 L 573 1393 L 756 1393 L 731 850 L 600 850 Z" unicode="&#x22;" />
<glyph horiz-adv-x="1061" d="M 197 39 L 266 406 L 63 406 L 92 559 L 297 559 L 344 809 L 141 809 L 170 963 L 375 963 L 440 1307 L 559 1307 L 494 963 L 686 963 L 752 1307 L 877 1307 L 809 963 L 1014 963 L 983 809 L 780 809 L 731 559 L 936 559 L 905 406 L 702 406 L 631 39 L 508 39 L 580 406 L 391 406 L 319 39 L 197 39 Z M 406 553 L 621 553 L 672 815 L 455 815 L 406 553 Z" unicode="#" />
<glyph horiz-adv-x="944" d="M 326 117 L 430 664 C 383 693 351 713 334 725 C 317 737 301 751 285 768 C 252 799 228 834 212 873 C 196 912 188 955 188 1001 C 188 1103 223 1191 294 1264 C 365 1336 458 1379 573 1393 L 606 1563 L 713 1563 L 680 1393 C 718 1388 756 1378 793 1363 C 830 1347 861 1328 887 1305 L 918 1274 L 846 1165 L 823 1188 C 797 1212 771 1231 744 1245 C 716 1259 687 1267 655 1270 L 557 768 C 563 765 569 762 575 758 C 581 754 589 749 598 743 C 673 698 726 652 758 605 C 789 557 805 500 805 432 C 805 310 769 210 697 131 C 625 51 528 6 408 -4 L 369 -205 L 262 -205 L 301 -4 C 245 0 195 11 149 31 C 103 50 63 76 31 109 L 4 133 L 90 238 L 111 213 C 136 186 168 164 207 147 C 246 129 286 119 326 117 Z M 526 604 L 432 121 C 501 131 555 163 595 215 C 635 267 655 333 655 412 C 655 456 646 490 629 515 C 612 540 578 570 526 604 Z M 463 825 L 549 1266 C 487 1256 436 1228 396 1181 C 356 1133 336 1079 336 1018 C 336 974 345 938 363 911 C 381 883 414 855 463 825 Z" unicode="$" />
<glyph horiz-adv-x="1571" d="M 522 1405 C 592 1405 648 1380 689 1330 C 729 1280 750 1213 750 1128 C 750 1039 731 953 694 871 C 656 788 608 726 549 686 C 522 666 493 652 462 644 C 431 635 396 631 358 631 C 282 631 224 654 182 701 C 140 747 119 811 119 893 C 119 967 133 1042 162 1118 C 190 1194 228 1255 274 1303 C 308 1336 345 1361 387 1379 C 428 1396 473 1405 522 1405 Z M 496 1290 C 470 1290 445 1284 421 1272 C 397 1260 377 1243 362 1223 C 331 1183 306 1133 288 1075 C 269 1017 260 960 260 905 C 260 853 270 813 291 785 C 311 757 341 743 379 743 C 421 743 457 756 486 784 C 515 811 541 856 565 918 C 578 953 588 991 596 1033 C 604 1074 608 1112 608 1147 C 608 1195 598 1230 580 1254 C 561 1278 533 1290 496 1290 Z M 1247 762 C 1317 762 1373 737 1414 687 C 1454 637 1475 570 1475 485 C 1475 396 1456 310 1419 228 C 1381 145 1333 83 1274 43 C 1247 23 1218 9 1187 1 C 1156 -7 1121 -12 1083 -12 C 1007 -12 949 11 907 58 C 865 104 844 168 844 250 C 844 324 858 399 887 475 C 915 551 953 612 999 659 C 1033 693 1070 718 1112 736 C 1153 753 1198 762 1247 762 Z M 1221 647 C 1195 647 1170 641 1146 629 C 1122 617 1102 600 1087 580 C 1056 540 1031 490 1013 432 C 994 374 985 317 985 262 C 985 210 995 170 1016 142 C 1036 114 1066 100 1104 100 C 1146 100 1182 113 1211 140 C 1240 167 1266 212 1290 274 C 1303 310 1313 348 1321 390 C 1329 431 1333 469 1333 504 C 1333 552 1323 587 1305 611 C 1286 635 1258 647 1221 647 Z M 1296 1354 L 401 -18 L 297 35 L 1192 1409 L 1296 1354 Z" unicode="%" />
<glyph horiz-adv-x="1174" d="M 1640 -154 L 1632 -285 C 1579 -311 1535 -329 1499 -338 C 1463 -347 1420 -352 1372 -352 C 1268 -352 1180 -327 1109 -277 C 1038 -227 973 -143 913 -27 L 844 106 C 786 60 734 28 686 12 C 638 -3 580 -12 510 -12 C 438 -12 377 -3 327 13 C 276 30 233 57 197 94 C 154 138 121 192 99 258 C 77 324 66 397 66 479 C 66 704 132 892 266 1044 C 400 1196 566 1272 766 1272 C 866 1272 944 1247 1000 1198 C 1056 1148 1108 1059 1157 930 L 729 696 L 940 219 C 992 102 1031 21 1059 -25 C 1086 -71 1119 -110 1157 -143 C 1189 -173 1227 -195 1269 -209 C 1311 -223 1358 -231 1411 -231 C 1457 -231 1497 -225 1529 -214 C 1561 -203 1598 -183 1640 -154 Z M 217 561 L 985 967 C 949 1038 915 1086 883 1110 C 851 1134 806 1147 748 1147 C 669 1147 597 1130 532 1098 C 467 1066 410 1017 360 952 C 317 897 285 841 265 785 C 244 729 228 654 217 561 Z M 602 635 L 215 430 C 219 323 247 242 299 188 C 351 133 426 106 524 106 C 580 106 629 113 671 128 C 713 143 758 169 805 205 L 602 635 Z" unicode="&#x26;" />
<glyph horiz-adv-x="465" d="M 264 850 L 238 1393 L 420 1393 L 393 850 L 264 850 Z" unicode="'" />
<glyph horiz-adv-x="684" d="M 725 1593 L 809 1511 C 629 1337 496 1164 409 991 C 322 818 279 640 279 457 C 279 341 295 228 328 118 C 360 7 411 -106 479 -223 L 385 -297 C 291 -178 221 -55 175 71 C 129 198 106 332 106 473 C 106 675 158 870 263 1060 C 368 1249 522 1427 725 1593 Z" unicode="(" />
<glyph horiz-adv-x="698" d="M -25 -297 L -111 -213 C 68 -39 201 133 289 306 C 376 478 420 657 420 842 C 420 956 403 1069 371 1179 C 339 1289 288 1402 219 1520 L 315 1593 C 408 1476 477 1354 523 1227 C 569 1099 592 965 592 825 C 592 622 539 426 435 236 C 330 46 177 -131 -25 -297 Z" unicode=")" />
<glyph horiz-adv-x="756" d="M 469 1319 L 440 1546 L 567 1546 L 539 1319 L 719 1458 L 784 1348 L 573 1260 L 784 1171 L 719 1061 L 539 1200 L 567 973 L 440 973 L 469 1200 L 287 1061 L 223 1171 L 434 1260 L 223 1348 L 287 1458 L 469 1319 Z" unicode="*" />
<glyph horiz-adv-x="1069" d="M 598 629 L 522 236 L 371 236 L 446 629 L 115 629 L 139 758 L 473 758 L 547 1137 L 698 1137 L 625 758 L 956 758 L 932 629 L 598 629 Z" unicode="+" />
<glyph horiz-adv-x="500" d="M 129 254 L 301 219 L 98 -338 L -31 -285 L 129 254 Z" unicode="," />
<glyph horiz-adv-x="662" d="M 520 537 L 98 537 L 129 698 L 553 698 L 520 537 Z" unicode="-" />
<glyph horiz-adv-x="500" d="M 190 242 C 226 242 256 229 280 204 C 304 179 317 149 317 113 C 317 77 304 46 280 22 C 255 -1 224 -14 188 -14 C 152 -14 122 -1 98 22 C 73 46 61 77 61 113 C 61 149 73 179 98 204 C 123 229 154 242 190 242 Z" unicode="." />
<glyph horiz-adv-x="838" d="M 70 -352 L -63 -297 L 786 1524 L 918 1466 L 70 -352 Z" unicode="/" />
<glyph horiz-adv-x="1049" d="M 680 1380 C 767 1380 834 1346 882 1280 C 930 1214 954 1120 954 999 C 954 863 932 713 889 548 C 846 382 796 258 739 176 C 693 110 644 62 592 32 C 540 1 481 -14 414 -14 C 314 -14 240 20 191 89 C 141 158 117 261 117 399 C 117 541 139 691 184 847 C 229 1003 284 1122 350 1206 C 396 1264 446 1307 501 1336 C 556 1365 616 1380 680 1380 Z M 645 1251 C 600 1251 560 1236 525 1207 C 489 1178 457 1133 428 1071 C 385 984 348 868 317 723 C 285 578 270 452 270 344 C 270 265 282 207 308 169 C 333 131 372 113 426 113 C 472 113 513 127 547 157 C 581 186 614 233 645 299 C 687 387 723 504 753 648 C 783 792 799 918 799 1026 C 799 1101 786 1157 760 1195 C 734 1232 696 1251 645 1251 Z" unicode="0" />
<glyph horiz-adv-x="838" d="M 492 0 L 340 0 L 567 1167 L 213 911 L 145 1008 L 610 1366 L 756 1366 L 492 0 Z" unicode="1" />
<glyph horiz-adv-x="1049" d="M 860 125 L 836 0 L 70 0 L 94 127 C 138 161 222 240 345 362 C 467 484 553 575 602 635 C 680 729 736 812 769 884 C 802 955 819 1027 819 1100 C 819 1152 807 1192 783 1219 C 759 1246 724 1260 678 1260 C 603 1260 541 1234 491 1183 C 441 1132 410 1063 399 977 L 252 977 C 258 1042 272 1098 296 1144 C 319 1190 354 1234 401 1274 C 443 1312 489 1339 537 1356 C 585 1373 640 1382 702 1382 C 793 1382 861 1357 907 1309 C 952 1260 975 1187 975 1090 C 975 992 944 889 882 783 C 820 676 725 561 598 438 L 272 125 L 860 125 Z" unicode="2" />
<glyph horiz-adv-x="1049" d="M 66 123 L 143 233 C 189 182 230 148 268 130 C 305 112 354 104 414 104 C 456 104 493 109 525 121 C 557 133 585 151 610 176 C 644 210 671 253 691 303 C 711 353 721 405 721 459 C 721 527 703 577 667 609 C 631 641 575 657 498 657 C 464 657 433 655 407 651 C 381 647 349 641 313 631 L 289 737 L 784 1241 L 334 1241 L 356 1366 L 971 1366 L 946 1233 L 471 756 C 497 760 519 763 535 765 C 551 767 569 768 588 768 C 680 768 751 742 800 691 C 849 639 874 565 874 467 C 874 326 828 210 738 119 C 648 27 533 -18 393 -18 C 319 -18 259 -7 211 13 C 163 34 114 71 66 123 Z" unicode="3" />
<glyph horiz-adv-x="1049" d="M 659 0 L 514 0 L 578 324 L 80 324 L 104 446 L 719 1366 L 924 1366 L 745 449 L 905 449 L 881 324 L 723 324 L 659 0 Z M 600 449 L 741 1174 L 731 1174 L 252 449 L 600 449 Z" unicode="4" />
<glyph horiz-adv-x="1049" d="M 946 1366 L 922 1241 L 565 1241 L 377 762 C 417 781 454 794 488 802 C 521 809 559 813 602 813 C 697 813 769 787 818 735 C 866 683 891 606 891 506 C 891 438 876 367 848 293 C 820 219 783 157 739 109 C 703 69 656 37 598 15 C 540 -6 477 -18 410 -18 C 342 -18 284 -7 236 14 C 187 35 140 71 94 123 L 172 233 C 212 184 251 150 288 132 C 324 113 370 104 424 104 C 517 104 592 140 650 214 C 708 287 737 382 737 500 C 737 561 720 609 687 643 C 653 677 606 694 545 694 C 493 694 443 686 395 672 C 346 657 304 636 268 610 L 205 698 L 465 1366 L 946 1366 Z" unicode="5" />
<glyph horiz-adv-x="1049" d="M 782 1397 L 889 1311 C 778 1224 681 1136 598 1047 C 515 957 445 864 387 766 L 395 762 C 433 787 471 805 507 815 C 543 825 585 831 631 831 C 718 831 786 803 836 748 C 886 692 911 616 911 518 C 911 365 865 237 775 135 C 685 33 572 -18 436 -18 C 327 -18 244 11 188 71 C 132 131 104 218 104 334 C 104 434 123 535 163 637 C 202 739 262 845 344 956 C 401 1034 468 1112 545 1190 C 621 1268 700 1337 782 1397 Z M 559 713 C 467 713 394 677 338 605 C 282 533 254 437 254 319 C 254 247 270 192 302 156 C 334 120 383 102 449 102 C 501 102 545 112 582 133 C 618 153 650 186 678 231 C 701 267 720 313 734 368 C 748 422 756 476 756 528 C 756 591 740 638 708 668 C 676 698 626 713 559 713 Z" unicode="6" />
<glyph horiz-adv-x="868" d="M 199 1241 L 221 1366 L 975 1366 L 946 1219 L 260 0 L 92 0 L 803 1241 L 199 1241 Z" unicode="7" />
<glyph horiz-adv-x="1049" d="M 365 715 L 367 723 C 326 745 294 779 272 824 C 249 869 238 921 238 979 C 238 1031 250 1084 276 1139 C 301 1193 335 1240 377 1278 C 417 1314 464 1340 516 1358 C 568 1375 626 1384 690 1384 C 744 1384 788 1377 823 1365 C 857 1352 887 1330 913 1300 C 935 1274 953 1244 966 1208 C 978 1172 985 1134 985 1094 C 985 1008 962 931 916 863 C 870 794 809 747 735 723 L 735 715 C 786 690 823 656 847 614 C 871 571 883 517 883 451 C 883 315 839 202 751 114 C 663 26 552 -18 418 -18 C 312 -18 230 9 174 63 C 118 117 90 194 90 295 C 90 385 116 470 168 549 C 220 627 285 683 365 715 Z M 541 657 C 491 657 449 647 414 629 C 378 610 347 581 319 541 C 296 507 278 468 265 425 C 252 381 246 339 246 297 C 246 229 261 180 291 148 C 321 116 368 100 432 100 C 487 100 533 110 569 131 C 605 151 638 184 666 229 C 685 263 700 300 712 341 C 723 382 729 423 729 463 C 729 528 713 577 682 609 C 651 641 604 657 541 657 Z M 662 1262 C 585 1262 521 1231 470 1171 C 418 1111 393 1036 393 948 C 393 888 407 843 437 812 C 466 781 508 766 563 766 C 639 766 703 796 754 856 C 805 916 831 991 831 1081 C 831 1142 817 1187 790 1217 C 762 1247 720 1262 662 1262 Z" unicode="8" />
<glyph horiz-adv-x="1049" d="M 315 -53 L 213 37 C 327 121 430 215 520 318 C 610 420 679 521 725 621 L 719 627 C 679 594 642 572 610 560 C 578 548 537 543 487 543 C 396 543 326 570 278 624 C 229 678 205 755 205 856 C 205 933 220 1009 252 1083 C 284 1157 327 1218 381 1266 C 423 1303 468 1330 516 1348 C 564 1365 618 1374 680 1374 C 734 1374 777 1368 811 1356 C 844 1344 874 1324 901 1296 C 927 1268 948 1234 962 1194 C 976 1154 983 1109 983 1061 C 983 873 921 676 797 468 C 673 260 512 86 315 -53 Z M 657 1253 C 572 1253 501 1214 444 1138 C 386 1061 358 966 358 854 C 358 788 372 739 401 707 C 430 675 475 659 535 659 C 585 659 628 668 662 687 C 696 705 727 736 754 778 C 776 812 794 855 807 905 C 820 955 827 1005 827 1057 C 827 1123 813 1172 785 1204 C 757 1236 714 1253 657 1253 Z" unicode="9" />
<glyph horiz-adv-x="561" d="M 219 283 C 255 283 285 270 309 245 C 333 220 346 190 346 154 C 346 118 333 87 309 63 C 284 39 253 27 217 27 C 181 27 150 39 126 63 C 102 87 90 118 90 154 C 90 190 102 220 127 245 C 151 270 182 283 219 283 Z M 354 981 C 390 981 420 968 444 944 C 468 919 481 888 481 852 C 481 816 468 785 444 761 C 419 737 388 725 352 725 C 316 725 286 737 262 761 C 237 785 225 816 225 852 C 225 888 237 919 262 944 C 287 968 318 981 354 981 Z" unicode=":" />
<glyph horiz-adv-x="575" d="M 322 829 C 357 829 387 816 412 792 C 436 767 449 736 449 700 C 449 664 436 634 411 610 C 386 585 355 573 319 573 C 283 573 253 585 229 610 C 205 634 193 664 193 700 C 193 736 205 767 230 792 C 254 816 285 829 322 829 Z M 164 254 L 340 219 L 137 -338 L 12 -285 L 164 254 Z" unicode=";" />
<glyph horiz-adv-x="1069" d="M 967 1087 L 979 948 L 340 698 L 338 688 L 881 434 L 813 293 L 139 635 L 164 766 L 967 1087 Z" unicode="&#x3C;" />
<glyph horiz-adv-x="1069" d="M 117 492 L 141 618 L 903 618 L 879 492 L 117 492 Z M 172 772 L 197 899 L 956 899 L 932 772 L 172 772 Z" unicode="=" />
<glyph horiz-adv-x="1069" d="M 145 293 L 133 432 L 770 680 L 772 692 L 231 946 L 297 1087 L 973 743 L 948 614 L 145 293 Z" unicode="&#x3E;" />
<glyph horiz-adv-x="901" d="M 422 1200 L 391 1319 C 448 1349 501 1372 551 1386 C 600 1400 650 1407 700 1407 C 777 1407 837 1387 879 1347 C 921 1307 942 1249 942 1174 C 942 1107 925 1045 892 989 C 859 933 806 875 733 815 C 642 743 586 690 564 657 C 542 624 521 560 500 465 L 379 465 C 379 551 393 620 421 670 C 449 720 508 786 600 868 C 676 937 726 990 750 1028 C 774 1066 786 1111 786 1163 C 786 1195 775 1221 754 1241 C 732 1260 703 1270 666 1270 C 623 1270 585 1265 553 1255 C 520 1245 476 1227 422 1200 Z M 379 242 C 415 242 445 229 469 204 C 493 179 506 149 506 113 C 506 77 493 46 469 22 C 444 -1 413 -14 377 -14 C 341 -14 310 -1 286 22 C 262 46 250 77 250 113 C 250 149 262 179 287 204 C 311 229 342 242 379 242 Z" unicode="?" />
<glyph horiz-adv-x="1888" d="M 1053 266 L 1040 266 L 977 186 C 942 141 905 109 867 89 C 829 69 785 59 735 59 C 651 59 587 86 543 141 C 499 196 477 276 477 381 C 477 545 524 685 618 802 C 712 918 827 977 961 977 C 1005 977 1042 970 1072 958 C 1102 945 1135 922 1169 889 L 1182 956 L 1317 956 L 1163 166 L 1178 152 C 1192 148 1205 146 1217 145 C 1229 143 1238 143 1245 143 C 1334 143 1413 187 1482 277 C 1550 367 1585 470 1585 588 C 1585 757 1520 898 1390 1012 C 1260 1125 1097 1182 903 1182 C 711 1182 551 1116 423 986 C 295 856 231 692 231 496 C 231 402 247 315 280 233 C 312 151 360 78 422 14 C 487 -53 561 -102 645 -133 C 728 -164 827 -180 942 -180 C 1038 -180 1123 -169 1197 -149 C 1271 -129 1355 -93 1448 -43 L 1505 -154 C 1415 -208 1322 -248 1224 -274 C 1126 -300 1023 -313 915 -313 C 671 -313 470 -236 311 -84 C 151 68 72 261 72 494 C 72 724 152 918 313 1077 C 474 1235 671 1315 905 1315 C 1015 1315 1124 1296 1230 1260 C 1336 1223 1425 1173 1495 1110 C 1566 1046 1623 968 1665 875 C 1707 782 1729 689 1729 596 C 1729 442 1676 308 1570 196 C 1464 83 1340 27 1196 27 C 1144 27 1104 37 1077 58 C 1049 79 1036 110 1036 150 C 1036 164 1037 181 1040 201 C 1043 221 1047 243 1053 266 Z M 961 848 C 905 848 858 836 818 813 C 778 789 743 753 713 705 C 688 665 667 613 651 551 C 635 488 627 429 627 375 C 627 313 639 265 665 231 C 690 197 725 180 770 180 C 799 180 826 187 851 202 C 875 217 904 243 936 279 C 995 345 1041 418 1075 499 C 1109 579 1126 655 1126 727 C 1126 769 1112 799 1086 819 C 1059 838 1017 848 961 848 Z" unicode="@" />
<glyph horiz-adv-x="1161" d="M 94 0 L -74 0 L 641 1393 L 852 1393 L 969 0 L 813 0 L 780 430 L 305 430 L 94 0 Z M 717 1243 L 360 543 L 772 543 L 717 1243 Z" unicode="A" />
<glyph horiz-adv-x="1188" d="M 90 0 L 360 1393 L 692 1393 C 782 1393 852 1385 902 1370 C 951 1355 988 1330 1014 1296 C 1030 1274 1043 1248 1052 1216 C 1060 1184 1065 1150 1065 1116 C 1065 1025 1036 944 978 873 C 920 802 844 753 750 727 L 745 713 C 835 701 903 673 950 627 C 996 581 1020 518 1020 440 C 1020 370 1003 302 969 238 C 935 174 889 122 831 84 C 783 53 728 31 668 19 C 608 6 526 0 422 0 L 90 0 Z M 270 117 L 444 117 C 526 117 589 121 632 129 C 675 137 712 152 743 174 C 779 199 807 235 829 283 C 851 331 862 381 862 434 C 862 510 837 566 789 600 C 741 634 663 651 555 651 L 373 651 L 270 117 Z M 395 766 L 553 766 C 652 766 736 798 805 864 C 874 930 909 1010 909 1106 C 909 1171 891 1216 856 1240 C 821 1264 757 1276 664 1276 L 494 1276 L 395 766 Z" unicode="B" />
<glyph horiz-adv-x="1108" d="M 903 281 L 975 193 C 907 117 839 63 770 30 C 701 -3 623 -20 537 -20 C 394 -20 284 23 206 111 C 128 198 90 323 90 485 C 90 739 161 958 304 1140 C 446 1322 618 1413 819 1413 C 879 1413 934 1403 985 1384 C 1036 1365 1080 1338 1116 1303 L 1151 1268 L 1067 1163 L 1044 1188 C 1016 1217 982 1240 941 1257 C 900 1273 857 1282 811 1282 C 722 1282 642 1258 571 1212 C 500 1166 438 1096 385 1004 C 344 932 312 850 289 758 C 265 666 254 574 254 483 C 254 361 280 267 333 203 C 385 138 462 106 563 106 C 630 106 688 118 738 144 C 788 170 843 215 903 281 Z" unicode="C" />
<glyph horiz-adv-x="1329" d="M 270 123 L 455 123 C 587 123 693 146 773 193 C 853 240 919 317 971 424 C 1002 490 1026 560 1042 635 C 1058 709 1067 786 1067 866 C 1067 934 1060 993 1048 1043 C 1036 1093 1017 1134 993 1167 C 966 1203 928 1229 879 1245 C 829 1261 763 1270 680 1270 L 494 1270 L 270 123 Z M 90 0 L 360 1393 L 705 1393 C 890 1393 1023 1351 1105 1269 C 1186 1187 1227 1052 1227 866 C 1227 724 1202 590 1152 463 C 1102 335 1034 234 950 158 C 893 106 824 66 742 40 C 660 13 567 0 465 0 L 90 0 Z" unicode="D" />
<glyph horiz-adv-x="1055" d="M 90 0 L 360 1393 L 1018 1393 L 991 1264 L 496 1264 L 401 784 L 911 784 L 889 662 L 377 662 L 274 127 L 879 127 L 854 0 L 90 0 Z" unicode="E" />
<glyph horiz-adv-x="1006" d="M 371 621 L 250 0 L 92 0 L 362 1393 L 1034 1393 L 1010 1264 L 496 1264 L 395 743 L 909 743 L 887 621 L 371 621 Z" unicode="F" />
<glyph horiz-adv-x="1300" d="M 719 614 L 743 737 L 1159 737 L 1053 180 C 978 110 900 58 820 25 C 740 -8 651 -25 553 -25 C 403 -25 287 22 207 116 C 126 210 86 344 86 520 C 86 766 157 977 301 1153 C 445 1329 618 1417 821 1417 C 897 1417 966 1405 1028 1381 C 1089 1357 1147 1320 1202 1270 L 1118 1163 L 1092 1188 C 1056 1220 1015 1245 970 1262 C 924 1279 876 1288 825 1288 C 734 1288 652 1266 579 1223 C 506 1180 442 1116 387 1032 C 342 962 307 881 282 789 C 256 697 244 604 244 512 C 244 376 272 273 329 205 C 385 136 471 102 586 102 C 653 102 715 112 773 134 C 831 155 877 185 913 223 L 991 614 L 719 614 Z" unicode="G" />
<glyph horiz-adv-x="1317" d="M 242 0 L 86 0 L 350 1393 L 506 1393 L 395 799 L 987 799 L 1104 1393 L 1260 1393 L 989 0 L 834 0 L 963 676 L 373 676 L 242 0 Z" unicode="H" />
<glyph horiz-adv-x="610" d="M 258 0 L 100 0 L 371 1393 L 528 1393 L 258 0 Z" unicode="I" />
<glyph horiz-adv-x="707" d="M 504 1393 L 662 1393 L 504 578 C 465 368 403 217 318 125 C 232 33 111 -13 -45 -14 L -90 -14 L -66 109 L -57 109 C 59 107 146 142 206 213 C 266 284 312 408 346 586 L 504 1393 Z" unicode="J" />
<glyph horiz-adv-x="1110" d="M 246 0 L 90 0 L 360 1393 L 516 1393 L 391 750 L 444 750 L 465 760 L 1016 1393 L 1208 1393 L 604 709 L 993 0 L 813 0 L 446 668 L 430 678 L 379 678 L 246 0 Z" unicode="K" />
<glyph horiz-adv-x="905" d="M 274 125 L 776 125 L 752 0 L 92 0 L 362 1393 L 520 1393 L 274 125 Z" unicode="L" />
<glyph horiz-adv-x="1706" d="M 219 0 L 66 0 L 420 1393 L 647 1393 L 788 252 L 1382 1393 L 1608 1393 L 1409 0 L 1251 0 L 1425 1198 L 1413 1198 L 1311 991 L 815 55 L 676 55 L 528 1198 L 516 1198 L 219 0 Z" unicode="M" />
<glyph horiz-adv-x="1350" d="M 236 0 L 86 0 L 356 1393 L 549 1393 L 924 264 L 1145 1393 L 1292 1393 L 1022 0 L 862 0 L 463 1167 L 236 0 Z" unicode="N" />
<glyph horiz-adv-x="1386" d="M 834 1417 C 978 1417 1090 1368 1170 1272 C 1250 1176 1290 1041 1290 868 C 1290 745 1269 625 1227 507 C 1185 389 1126 286 1051 199 C 983 121 910 65 832 29 C 753 -7 663 -25 563 -25 C 413 -25 297 23 215 120 C 133 216 92 354 92 532 C 92 664 117 795 169 923 C 221 1051 290 1155 377 1237 C 440 1297 510 1342 586 1372 C 662 1402 744 1417 834 1417 Z M 803 1288 C 707 1288 621 1259 544 1202 C 467 1144 403 1062 352 954 C 320 888 296 817 279 741 C 262 665 254 591 254 518 C 254 384 281 281 337 210 C 393 139 474 104 580 104 C 665 104 740 124 806 164 C 872 204 931 267 983 352 C 1027 424 1063 507 1089 599 C 1115 691 1128 780 1128 868 C 1128 1006 1100 1110 1045 1181 C 990 1252 909 1288 803 1288 Z" unicode="O" />
<glyph horiz-adv-x="1102" d="M 246 0 L 90 0 L 360 1393 L 645 1393 C 745 1393 821 1387 873 1375 C 925 1363 967 1341 1001 1311 C 1029 1284 1052 1249 1068 1207 C 1084 1164 1092 1117 1092 1067 C 1092 984 1073 908 1037 838 C 1001 768 951 712 887 668 C 840 636 791 613 739 601 C 687 588 620 582 539 582 L 360 582 L 246 0 Z M 383 702 L 561 702 C 635 702 696 711 743 730 C 789 749 828 780 860 823 C 882 853 901 891 915 938 C 929 984 936 1031 936 1077 C 936 1145 915 1194 873 1224 C 831 1254 764 1270 672 1270 L 494 1270 L 383 702 Z" unicode="P" />
<glyph horiz-adv-x="1382" d="M 1343 -236 L 1307 -346 C 1288 -348 1271 -349 1256 -350 C 1241 -351 1229 -352 1221 -352 C 1129 -352 1046 -326 972 -275 C 898 -224 816 -134 725 -6 C 696 -12 669 -17 644 -20 C 619 -23 591 -25 559 -25 C 481 -25 414 -13 358 10 C 302 33 253 69 213 117 C 173 165 142 225 120 297 C 98 369 88 446 88 530 C 88 664 113 794 165 922 C 217 1049 285 1154 371 1237 C 433 1295 502 1339 579 1370 C 655 1401 736 1417 821 1417 C 969 1417 1084 1369 1165 1274 C 1245 1179 1286 1044 1286 870 C 1286 700 1247 539 1170 388 C 1093 236 992 124 868 51 C 949 -57 1024 -131 1093 -173 C 1162 -215 1245 -236 1343 -236 Z M 799 1288 C 703 1288 617 1259 539 1202 C 461 1144 397 1062 346 954 C 314 888 290 818 273 742 C 256 666 248 591 248 518 C 248 384 275 281 331 210 C 387 139 468 104 575 104 C 661 104 736 124 802 164 C 868 204 927 267 979 352 C 1023 424 1059 507 1085 599 C 1111 691 1124 780 1124 868 C 1124 931 1118 988 1106 1038 C 1094 1088 1075 1131 1051 1169 C 1022 1211 988 1241 949 1260 C 910 1278 860 1288 799 1288 Z" unicode="Q" />
<glyph horiz-adv-x="1133" d="M 375 676 L 244 0 L 88 0 L 358 1393 L 680 1393 C 766 1393 833 1386 881 1374 C 929 1361 968 1339 999 1309 C 1020 1287 1037 1258 1049 1220 C 1061 1182 1067 1140 1067 1094 C 1067 971 1025 867 941 782 C 857 697 751 651 623 645 L 946 0 L 772 0 L 442 666 L 426 676 L 375 676 Z M 389 750 L 555 750 C 665 750 752 779 814 837 C 876 895 907 976 907 1081 C 907 1148 888 1196 850 1226 C 812 1255 751 1270 666 1270 L 489 1270 L 389 750 Z" unicode="R" />
<glyph horiz-adv-x="987" d="M 8 119 L 96 225 L 117 201 C 145 170 183 145 230 127 C 277 109 327 100 379 100 C 467 100 538 127 591 182 C 643 236 670 310 670 403 C 670 449 660 487 640 517 C 620 547 583 578 530 610 C 434 668 372 708 342 730 C 312 752 286 778 264 807 C 242 834 226 865 215 900 C 204 935 199 972 199 1010 C 199 1124 242 1220 328 1298 C 414 1376 520 1415 647 1415 C 698 1415 748 1406 796 1389 C 844 1371 883 1348 913 1319 L 944 1288 L 872 1178 L 848 1202 C 818 1232 785 1253 751 1267 C 717 1281 679 1288 637 1288 C 556 1288 489 1263 435 1213 C 381 1163 354 1101 354 1026 C 354 980 364 941 384 911 C 404 881 440 851 492 821 C 584 766 643 730 667 713 C 691 696 715 676 739 653 C 771 621 794 587 808 551 C 822 514 829 472 829 426 C 829 292 786 184 701 100 C 615 16 505 -25 369 -25 C 298 -25 235 -15 179 5 C 123 25 75 54 35 92 L 8 119 Z" unicode="S" />
<glyph horiz-adv-x="948" d="M 426 0 L 266 0 L 512 1264 L 147 1264 L 172 1393 L 1063 1393 L 1038 1264 L 672 1264 L 426 0 Z" unicode="T" />
<glyph horiz-adv-x="1307" d="M 330 1393 L 489 1393 L 317 512 C 310 474 305 439 302 408 C 298 377 297 347 297 317 C 297 241 317 186 358 152 C 399 118 466 102 559 102 C 673 102 757 131 811 190 C 865 249 908 357 940 514 L 1110 1393 L 1266 1393 L 1100 539 C 1076 418 1051 325 1023 261 C 995 197 958 142 911 98 C 864 55 810 24 750 4 C 690 -15 615 -25 526 -25 C 439 -25 369 -15 316 4 C 263 23 220 55 188 100 C 170 126 156 154 147 186 C 137 217 133 252 133 291 C 133 322 135 358 140 398 C 145 438 153 485 164 539 L 330 1393 Z" unicode="U" />
<glyph horiz-adv-x="1079" d="M 1032 1393 L 1204 1393 L 512 0 L 317 0 L 172 1393 L 334 1393 L 449 176 L 1032 1393 Z" unicode="V" />
<glyph horiz-adv-x="1686" d="M 229 0 L 197 1393 L 354 1393 L 373 203 L 901 1378 L 1077 1378 L 1110 203 L 1620 1393 L 1782 1393 L 1169 0 L 981 0 L 938 1153 L 418 0 L 229 0 Z" unicode="W" />
<glyph horiz-adv-x="1022" d="M 96 0 L -86 0 L 428 729 L 203 1393 L 371 1393 L 549 844 L 911 1393 L 1094 1393 L 608 700 L 846 0 L 680 0 L 489 588 L 96 0 Z" unicode="X" />
<glyph horiz-adv-x="973" d="M 444 0 L 285 0 L 389 532 L 152 1393 L 322 1393 L 496 694 L 938 1393 L 1114 1393 L 549 532 L 444 0 Z" unicode="Y" />
<glyph horiz-adv-x="1040" d="M 881 127 L 856 0 L -25 0 L 0 127 L 879 1264 L 246 1264 L 270 1393 L 1087 1393 L 1063 1266 L 180 127 L 881 127 Z" unicode="Z" />
<glyph horiz-adv-x="676" d="M 430 -125 L 408 -236 L 0 -236 L 346 1548 L 754 1548 L 733 1438 L 481 1438 L 178 -125 L 430 -125 Z" unicode="[" />
<glyph horiz-adv-x="1001" d="M 768 -365 L 172 1491 L 311 1532 L 907 -326 L 768 -365 Z" unicode="\" />
<glyph horiz-adv-x="702" d="M 260 1438 L 281 1548 L 688 1548 L 342 -236 L -66 -236 L -43 -125 L 209 -125 L 512 1438 L 260 1438 Z" unicode="]" />
<glyph horiz-adv-x="860" d="M 573 1393 L 844 768 L 674 768 L 485 1233 L 301 768 L 139 768 L 412 1393 L 573 1393 Z" unicode="^" />
<glyph horiz-adv-x="1038" d="M 16 -190 L 1042 -190 L 1024 -289 L -2 -289 L 16 -190 Z" unicode="_" />
<glyph horiz-adv-x="520" d="M 424 1120 L 272 1120 L 96 1397 L 96 1405 L 287 1405 L 424 1120 Z" unicode="`" />
<glyph horiz-adv-x="1085" d="M 784 0 L 641 0 L 684 213 L 670 213 L 596 121 C 557 71 516 34 473 11 C 429 -11 380 -23 326 -23 C 230 -23 158 8 109 70 C 59 132 35 222 35 342 C 35 527 88 685 194 817 C 300 948 428 1014 580 1014 C 630 1014 672 1006 707 992 C 741 977 778 951 817 915 L 829 991 L 977 991 L 784 0 Z M 582 891 C 516 891 460 877 412 849 C 364 821 323 778 287 719 C 257 672 232 611 213 537 C 193 463 184 393 184 328 C 184 254 199 197 229 157 C 259 116 301 96 354 96 C 390 96 422 104 452 122 C 482 140 516 170 555 213 C 624 292 679 379 719 475 C 759 570 780 660 780 745 C 780 796 764 833 733 856 C 701 879 651 891 582 891 Z" unicode="a" />
<glyph horiz-adv-x="1063" d="M 289 1489 L 438 1489 L 291 772 L 307 772 L 383 864 C 425 915 470 953 516 977 C 562 1001 612 1014 666 1014 C 754 1014 822 984 868 925 C 914 866 938 780 938 668 C 938 597 927 524 907 448 C 887 372 859 302 825 238 C 778 152 719 87 649 43 C 579 0 498 -23 408 -23 C 295 -23 212 4 160 59 C 108 114 82 200 82 317 C 82 353 84 390 88 429 C 92 468 97 506 104 543 L 289 1489 Z M 633 891 C 588 891 545 875 503 844 C 461 813 413 761 360 688 C 312 622 276 559 254 498 C 232 437 221 374 221 309 C 221 235 236 181 268 146 C 299 111 348 94 416 94 C 472 94 519 105 559 129 C 598 153 636 192 672 246 C 707 300 735 365 755 442 C 775 519 786 597 786 676 C 786 747 773 801 747 837 C 721 873 683 891 633 891 Z" unicode="b" />
<glyph horiz-adv-x="852" d="M 827 922 L 752 821 C 719 846 689 864 661 874 C 633 884 599 889 561 889 C 510 889 464 879 424 859 C 384 839 349 810 319 770 C 281 718 249 651 224 570 C 198 489 186 411 186 336 C 186 254 201 194 231 155 C 261 115 309 96 373 96 C 429 96 479 108 522 132 C 564 156 608 198 653 258 L 717 180 C 665 110 609 59 549 26 C 489 -6 420 -23 344 -23 C 242 -23 164 8 112 72 C 59 136 33 228 33 350 C 33 532 85 689 190 820 C 294 950 420 1016 567 1016 C 609 1016 650 1009 692 997 C 733 985 766 969 791 950 L 827 922 Z" unicode="c" />
<glyph horiz-adv-x="1090" d="M 788 0 L 645 0 L 688 213 L 674 213 L 600 121 C 559 69 518 32 476 10 C 434 -12 384 -23 326 -23 C 232 -23 161 8 112 70 C 63 132 39 223 39 342 C 39 527 92 686 198 818 C 304 950 432 1016 582 1016 C 632 1016 674 1008 708 994 C 742 979 778 954 817 918 L 928 1489 L 1077 1489 L 788 0 Z M 586 893 C 520 893 464 879 417 851 C 369 823 327 780 291 721 C 261 673 236 612 217 538 C 197 464 188 394 188 328 C 188 255 203 198 233 157 C 263 116 305 96 358 96 C 394 96 426 104 456 122 C 486 140 520 171 559 215 C 628 293 683 381 723 477 C 763 573 784 663 784 748 C 784 798 768 834 737 858 C 705 881 655 893 586 893 Z" unicode="d" />
<glyph horiz-adv-x="954" d="M 700 242 L 766 164 C 712 98 653 49 590 19 C 526 -11 453 -27 371 -27 C 259 -27 174 5 116 71 C 58 137 29 232 29 358 C 29 451 47 544 84 637 C 121 730 171 808 233 872 C 281 920 335 956 396 981 C 457 1005 524 1018 596 1018 C 677 1018 744 995 796 951 C 848 906 874 848 874 778 C 874 731 860 688 832 648 C 804 608 765 577 717 555 C 674 536 630 524 586 518 C 541 512 413 502 201 487 C 194 459 189 435 187 415 C 185 394 184 372 184 350 C 184 261 202 195 238 153 C 274 111 331 90 408 90 C 466 90 518 102 564 126 C 610 150 656 188 700 242 Z M 229 600 L 397 606 C 524 610 610 622 656 643 C 702 664 725 702 725 756 C 725 802 711 838 683 862 C 655 886 614 899 561 899 C 480 899 413 874 359 826 C 305 777 261 702 229 600 Z" unicode="e" />
<glyph horiz-adv-x="672" d="M 250 0 L 98 0 L 268 870 L 94 870 L 117 985 L 291 985 L 297 1016 C 313 1101 333 1171 357 1227 C 380 1282 411 1329 449 1368 C 487 1408 529 1439 577 1460 C 625 1480 676 1491 731 1491 C 758 1491 782 1489 802 1485 C 822 1481 846 1473 874 1462 L 821 1348 C 798 1354 779 1359 764 1362 C 748 1364 732 1366 715 1366 C 647 1366 592 1339 549 1287 C 505 1235 473 1155 453 1049 L 440 985 L 694 985 L 672 870 L 418 870 L 250 0 Z" unicode="f" />
<glyph horiz-adv-x="1081" d="M 979 991 L 809 133 C 766 -87 696 -249 598 -353 C 500 -457 369 -510 205 -510 C 169 -510 136 -508 108 -504 C 80 -500 44 -492 2 -481 L 53 -350 C 89 -362 118 -371 141 -375 C 164 -379 191 -381 223 -381 C 331 -381 421 -346 491 -276 C 561 -206 611 -101 643 39 L 682 213 L 668 213 L 606 135 C 563 83 521 46 480 24 C 439 2 390 -8 332 -8 C 232 -8 158 21 109 81 C 59 140 35 228 35 344 C 35 528 88 686 195 818 C 301 950 429 1016 578 1016 C 628 1016 669 1008 703 994 C 736 979 772 954 811 918 L 827 991 L 979 991 Z M 582 893 C 516 893 460 879 412 851 C 364 823 323 780 287 721 C 257 674 232 613 213 538 C 193 463 184 394 184 330 C 184 260 198 206 227 168 C 255 130 295 111 346 111 C 384 111 418 119 449 136 C 479 152 515 182 555 225 C 622 298 676 383 718 479 C 759 575 780 665 780 748 C 780 798 764 834 733 858 C 701 881 651 893 582 893 Z" unicode="g" />
<glyph horiz-adv-x="1083" d="M 170 0 L 20 0 L 309 1489 L 459 1489 L 315 780 L 330 780 L 420 877 C 460 921 503 955 549 979 C 595 1002 642 1014 690 1014 C 766 1014 824 994 863 954 C 902 914 922 855 922 778 C 922 755 920 732 918 710 C 916 687 912 664 907 641 L 784 0 L 633 0 L 754 616 C 758 642 762 666 764 687 C 766 708 768 729 768 750 C 768 800 759 835 741 856 C 723 876 693 887 649 887 C 605 887 562 872 521 844 C 480 816 437 771 391 709 C 357 661 326 609 300 551 C 274 493 256 439 246 389 L 170 0 Z" unicode="h" />
<glyph horiz-adv-x="500" d="M 350 1393 C 380 1393 406 1382 426 1361 C 446 1340 457 1314 457 1284 C 457 1253 446 1228 426 1208 C 406 1188 380 1178 350 1178 C 319 1178 293 1188 273 1209 C 252 1229 242 1254 242 1284 C 242 1316 252 1342 273 1362 C 293 1382 319 1393 350 1393 Z M 31 0 L 223 991 L 375 991 L 182 0 L 31 0 Z" unicode="i" />
<glyph horiz-adv-x="522" d="M 381 1393 C 411 1393 437 1382 457 1361 C 477 1340 487 1314 487 1284 C 487 1253 477 1228 457 1208 C 437 1188 411 1178 381 1178 C 350 1178 324 1188 303 1209 C 282 1229 272 1254 272 1284 C 272 1316 282 1342 303 1362 C 324 1382 350 1393 381 1393 Z M 260 991 L 410 991 L 227 59 C 198 -101 146 -230 70 -327 C -5 -423 -100 -483 -215 -506 L -242 -375 C -152 -359 -84 -318 -36 -250 C 11 -182 50 -74 80 74 L 260 991 Z" unicode="j" />
<glyph horiz-adv-x="940" d="M 172 0 L 23 0 L 311 1489 L 461 1489 L 283 565 L 313 565 L 334 573 L 575 776 C 646 837 692 881 713 908 C 733 934 743 962 741 991 L 891 991 C 893 984 894 978 895 974 C 896 970 897 965 897 961 C 897 936 883 907 857 873 C 830 839 790 800 737 756 L 459 524 L 768 0 L 602 0 L 317 483 L 299 494 L 268 494 L 172 0 Z" unicode="k" />
<glyph horiz-adv-x="506" d="M 186 0 L 37 0 L 326 1489 L 475 1489 L 186 0 Z" unicode="l" />
<glyph horiz-adv-x="1679" d="M 172 0 L 23 0 L 215 991 L 365 991 L 317 778 L 332 778 L 418 877 C 456 921 498 954 545 978 C 591 1002 639 1014 688 1014 C 755 1014 809 994 850 956 C 890 918 911 867 911 803 C 911 799 910 794 910 788 C 910 782 909 776 909 768 L 924 768 L 1018 877 C 1056 921 1098 954 1146 978 C 1193 1002 1241 1014 1290 1014 C 1360 1014 1415 994 1454 956 C 1493 918 1513 864 1513 795 C 1513 772 1511 744 1509 712 C 1506 679 1503 655 1501 641 L 1376 0 L 1227 0 L 1348 614 C 1352 640 1356 664 1358 686 C 1360 708 1362 729 1362 750 C 1362 800 1353 836 1335 856 C 1317 876 1287 887 1245 887 C 1202 887 1160 872 1120 844 C 1080 816 1037 771 993 709 C 957 659 927 606 903 552 C 878 497 860 443 850 389 L 774 0 L 625 0 L 743 614 C 749 644 754 669 756 689 C 758 709 760 728 760 748 C 760 800 751 836 734 856 C 717 876 687 887 643 887 C 600 887 558 872 518 844 C 478 816 435 771 391 709 C 357 661 328 609 302 551 C 276 493 258 439 248 389 L 172 0 Z" unicode="m" />
<glyph horiz-adv-x="1083" d="M 170 0 L 20 0 L 213 991 L 362 991 L 315 778 L 330 778 L 418 877 C 458 921 502 955 548 979 C 594 1002 642 1014 692 1014 C 767 1014 824 994 863 954 C 902 914 922 855 922 778 C 922 755 920 732 918 710 C 916 687 912 664 907 641 L 784 0 L 633 0 L 754 614 C 758 642 762 666 764 687 C 766 708 768 728 768 748 C 768 800 759 836 741 856 C 723 876 691 887 647 887 C 604 887 562 872 521 843 C 480 814 437 769 391 709 C 357 663 327 610 301 552 C 274 493 256 439 246 389 L 170 0 Z" unicode="n" />
<glyph horiz-adv-x="1034" d="M 586 1018 C 688 1018 768 984 826 916 C 884 848 913 753 913 631 C 913 540 895 448 860 354 C 825 260 779 183 721 121 C 675 72 623 35 565 10 C 507 -14 442 -27 371 -27 C 256 -27 170 6 112 72 C 54 138 25 237 25 367 C 25 460 43 553 80 645 C 116 737 165 813 225 872 C 276 921 331 958 391 982 C 450 1006 515 1018 586 1018 Z M 547 895 C 487 895 434 880 388 852 C 342 824 302 780 268 721 C 238 671 215 612 198 545 C 180 477 172 412 172 348 C 172 264 190 201 226 157 C 262 113 315 92 385 92 C 457 92 519 112 572 152 C 624 192 667 252 700 332 C 718 376 733 424 745 474 C 756 524 762 568 762 606 C 762 705 744 778 709 825 C 674 871 620 895 547 895 Z" unicode="o" />
<glyph horiz-adv-x="1085" d="M 217 991 L 365 991 L 313 782 L 330 782 L 406 874 C 444 920 486 954 532 978 C 578 1002 626 1014 678 1014 C 769 1014 839 982 888 920 C 936 857 961 766 961 647 C 961 458 913 301 819 177 C 724 52 605 -10 461 -10 C 405 -10 357 -2 317 12 C 277 27 235 53 193 90 L 78 -494 L -72 -494 L 217 991 Z M 641 887 C 546 887 455 820 369 687 C 283 554 240 414 240 268 C 240 214 257 174 291 148 C 325 122 376 109 446 109 C 509 109 562 121 604 147 C 646 173 684 216 717 276 C 744 324 766 383 784 454 C 802 524 811 589 811 649 C 811 728 797 787 769 827 C 741 867 698 887 641 887 Z" unicode="p" />
<glyph horiz-adv-x="1085" d="M 977 991 L 688 -494 L 539 -494 L 684 213 L 670 213 L 596 121 C 556 69 515 32 473 10 C 431 -11 382 -23 326 -23 C 230 -23 158 8 109 70 C 59 132 35 222 35 342 C 35 527 88 685 194 817 C 300 948 428 1014 580 1014 C 630 1014 672 1006 707 992 C 741 977 778 951 817 915 L 829 991 L 977 991 Z M 582 891 C 516 891 460 877 412 850 C 364 823 323 780 287 721 C 257 673 232 611 213 537 C 193 463 184 393 184 328 C 184 255 199 198 229 157 C 259 116 301 96 354 96 C 388 96 421 105 451 123 C 481 141 516 172 555 215 C 624 293 679 380 719 475 C 759 570 780 660 780 745 C 780 796 764 833 733 856 C 701 879 651 891 582 891 Z" unicode="q" />
<glyph horiz-adv-x="717" d="M 182 0 L 33 0 L 225 991 L 373 991 L 317 743 L 334 743 L 422 860 C 454 904 491 938 531 962 C 571 986 610 999 649 999 C 657 999 666 998 676 997 C 685 995 699 993 719 991 L 692 850 C 674 852 661 853 652 854 C 643 855 635 856 627 856 C 596 856 568 849 544 835 C 519 821 491 797 461 764 C 409 704 364 639 328 569 C 291 498 266 429 254 362 L 182 0 Z" unicode="r" />
<glyph horiz-adv-x="803" d="M 715 930 L 645 827 C 607 851 573 868 543 878 C 513 888 480 893 444 893 C 382 893 332 879 296 851 C 260 823 242 786 242 739 C 242 708 250 683 266 663 C 282 643 314 620 360 596 C 472 538 545 490 579 453 C 612 416 629 365 629 299 C 629 199 598 120 536 62 C 474 4 389 -25 283 -25 C 221 -25 167 -17 121 -2 C 75 12 28 38 -18 74 L 59 180 C 99 147 136 124 170 111 C 204 98 245 92 293 92 C 356 92 404 107 438 138 C 472 169 489 214 489 272 C 489 316 477 348 454 369 C 430 390 360 432 242 494 C 194 518 158 549 134 586 C 110 622 98 665 98 713 C 98 801 131 874 198 930 C 264 986 351 1014 457 1014 C 511 1014 557 1007 596 995 C 634 982 674 960 715 930 Z" unicode="s" />
<glyph horiz-adv-x="707" d="M 80 870 L 102 985 L 274 985 L 344 1337 L 489 1337 L 420 985 L 668 985 L 645 870 L 391 870 L 291 369 C 283 333 278 303 276 279 C 273 255 272 231 272 207 C 272 178 277 156 289 141 C 300 126 316 119 338 119 C 369 119 399 129 427 149 C 455 169 491 208 537 264 L 594 176 L 547 123 C 507 79 465 46 422 24 C 379 2 333 -8 285 -8 C 231 -8 191 7 164 39 C 136 70 123 116 123 178 C 123 201 124 228 128 258 C 132 288 137 320 143 354 L 246 870 L 80 870 Z" unicode="t" />
<glyph horiz-adv-x="1075" d="M 815 991 L 965 991 L 772 0 L 629 0 L 670 213 L 653 213 L 565 115 C 522 67 479 32 436 10 C 392 -12 345 -23 295 -23 C 218 -23 160 -3 121 37 C 82 77 63 135 63 213 C 63 235 64 259 66 283 C 68 307 72 329 76 350 L 201 991 L 352 991 L 231 377 C 226 351 222 328 220 306 C 218 284 217 262 217 242 C 217 192 225 156 243 135 C 261 114 291 104 334 104 C 378 104 420 118 462 147 C 503 175 547 221 594 283 C 628 327 658 378 684 435 C 710 491 728 547 739 602 L 815 991 Z" unicode="u" />
<glyph horiz-adv-x="864" d="M 215 0 L 76 991 L 229 991 L 326 170 L 561 584 C 597 646 625 708 646 770 C 667 832 678 886 678 930 C 678 942 677 952 676 960 C 674 968 672 979 670 991 L 819 991 C 821 979 823 968 825 960 C 826 952 827 942 827 932 C 827 884 812 821 782 744 C 752 667 710 584 657 496 L 358 0 L 215 0 Z" unicode="v" />
<glyph horiz-adv-x="1401" d="M 168 0 L 98 991 L 250 991 L 281 201 L 289 201 L 352 344 L 659 975 L 821 975 L 889 201 L 899 201 L 1108 600 C 1140 661 1166 721 1185 779 C 1204 837 1214 885 1214 922 C 1214 932 1213 943 1212 953 C 1210 963 1208 976 1206 991 L 1356 991 C 1358 983 1359 976 1360 971 C 1361 965 1362 958 1362 950 C 1362 897 1349 836 1323 768 C 1297 699 1254 608 1192 496 L 918 0 L 780 0 L 700 807 L 311 0 L 168 0 Z" unicode="w" />
<glyph horiz-adv-x="858" d="M 78 0 L -92 0 L 307 514 L 115 991 L 272 991 L 408 612 L 678 991 L 846 991 L 461 496 L 657 0 L 500 0 L 358 399 L 78 0 Z" unicode="x" />
<glyph horiz-adv-x="887" d="M 86 991 L 238 991 L 356 178 L 575 590 C 623 677 655 744 673 792 C 691 840 700 884 700 924 C 700 936 699 946 698 956 C 697 965 696 977 694 991 L 848 991 C 852 976 855 964 857 955 C 859 945 860 936 860 928 C 860 893 849 850 827 800 C 805 750 761 667 696 553 L 449 113 C 427 71 406 30 384 -10 C 362 -50 342 -88 324 -125 C 252 -260 189 -356 135 -413 C 80 -469 18 -501 -51 -508 L -59 -371 C -30 -366 -5 -357 17 -345 C 39 -332 62 -312 88 -285 C 130 -241 165 -187 194 -125 C 223 -62 238 -7 238 39 C 238 47 236 59 234 75 C 232 90 229 108 227 129 L 86 991 Z" unicode="y" />
<glyph horiz-adv-x="854" d="M 670 119 L 647 0 L -49 0 L -27 115 L 616 872 L 143 872 L 168 991 L 809 991 L 788 879 L 145 119 L 670 119 Z" unicode="z" />
<glyph horiz-adv-x="651" d="M 498 -352 L 307 -352 C 237 -352 187 -340 156 -316 C 124 -292 109 -255 109 -203 C 109 -192 109 -182 110 -172 C 111 -162 113 -151 115 -141 L 219 399 C 219 406 220 413 221 419 C 222 425 223 431 223 438 C 223 482 209 516 182 540 C 155 564 108 583 41 598 L 47 625 C 116 633 174 655 221 692 C 268 728 295 772 301 823 L 408 1364 C 424 1439 453 1493 495 1525 C 537 1557 599 1574 682 1575 L 872 1575 L 854 1487 L 776 1483 C 696 1481 642 1465 612 1436 C 582 1406 556 1342 535 1243 L 446 795 C 435 741 414 699 383 670 C 352 641 305 618 242 602 L 240 598 C 290 588 325 572 347 551 C 368 530 379 501 379 465 C 379 459 378 452 377 446 C 376 440 375 434 375 428 L 289 -20 C 285 -40 281 -60 279 -80 C 277 -99 276 -117 276 -135 C 276 -153 278 -171 283 -187 C 288 -203 295 -216 303 -227 C 309 -237 323 -245 345 -251 C 366 -256 397 -259 438 -260 L 514 -264 L 498 -352 Z" unicode="{" />
<glyph horiz-adv-x="692" d="M 451 1604 L 451 -379 L 293 -379 L 293 1604 L 451 1604 Z" unicode="|" />
<glyph horiz-adv-x="666" d="M 180 1575 L 371 1575 C 439 1575 489 1563 521 1539 C 553 1515 569 1478 569 1427 C 569 1417 568 1406 567 1396 C 566 1385 565 1374 563 1364 L 457 823 C 456 814 455 805 454 797 C 453 788 453 780 453 774 C 453 734 467 702 496 679 C 524 655 571 637 637 625 L 631 598 C 561 590 503 567 456 531 C 408 494 381 450 375 399 L 270 -141 C 254 -216 225 -270 183 -302 C 141 -334 78 -351 -4 -352 L -195 -352 L -178 -264 L -100 -260 C -20 -258 34 -242 64 -213 C 94 -183 120 -119 143 -20 L 231 428 C 242 482 263 523 294 552 C 325 581 372 604 436 621 L 438 625 C 390 633 354 648 331 669 C 308 690 297 717 297 750 C 297 756 297 762 298 770 C 299 778 300 786 301 795 L 389 1243 C 393 1263 396 1284 398 1304 C 400 1324 401 1342 401 1360 C 401 1377 398 1393 394 1409 C 389 1425 383 1438 375 1450 C 367 1460 353 1467 332 1473 C 311 1479 280 1482 240 1483 L 162 1487 L 180 1575 Z" unicode="}" />
<glyph horiz-adv-x="1069" d="M 236 526 L 125 602 C 182 697 231 763 273 801 C 315 839 360 858 410 858 C 439 858 464 851 484 839 C 504 826 542 792 600 737 C 618 718 636 704 652 696 C 668 688 683 684 698 684 C 722 684 744 696 764 720 C 783 744 810 792 844 864 L 958 793 C 913 699 869 632 825 590 C 781 548 734 528 682 528 C 651 528 622 535 596 551 C 569 566 539 593 506 631 C 483 656 463 674 447 684 C 431 694 414 700 397 700 C 372 700 351 690 334 672 C 317 654 284 605 236 526 Z" unicode="~" />
<glyph horiz-adv-x="502" d="" unicode=" " />
<glyph horiz-adv-x="672" d="M 395 1151 C 359 1151 328 1163 304 1188 C 280 1213 268 1244 268 1280 C 268 1316 280 1346 305 1370 C 329 1394 360 1406 397 1406 C 433 1406 463 1394 487 1370 C 511 1346 524 1316 524 1280 C 524 1244 511 1213 487 1188 C 462 1163 431 1151 395 1151 Z M 395 928 L 241 0 L 63 0 L 272 928 L 395 928 Z" unicode="¡" />
<glyph horiz-adv-x="854" d="M 678 1245 L 530 485 C 562 492 596 509 632 536 C 667 563 699 597 729 637 L 791 557 C 753 505 709 462 659 429 C 609 395 558 375 506 367 L 430 -27 L 326 -27 L 401 362 C 310 367 241 400 193 460 C 145 520 121 604 121 711 C 121 823 143 930 189 1034 C 234 1137 293 1216 367 1272 C 401 1298 436 1319 473 1334 C 510 1349 552 1360 598 1366 L 633 1550 L 737 1550 L 700 1366 C 732 1362 762 1354 791 1344 C 819 1333 843 1321 862 1307 L 897 1278 L 823 1182 C 795 1203 772 1218 753 1226 C 734 1234 709 1241 678 1245 Z M 426 481 L 573 1241 C 537 1234 506 1222 480 1205 C 453 1187 428 1163 406 1133 C 368 1081 336 1016 312 938 C 288 859 276 783 276 709 C 276 636 288 581 312 545 C 336 509 374 487 426 481 Z" unicode="¢" />
<glyph horiz-adv-x="1026" d="M 29 98 L 49 201 C 107 203 154 232 192 286 C 229 340 257 422 276 530 L 309 694 L 156 694 L 176 797 L 330 797 L 354 938 C 371 1029 394 1105 423 1166 C 451 1227 488 1276 532 1313 C 570 1345 612 1370 660 1387 C 708 1404 756 1413 805 1413 C 861 1413 909 1400 951 1375 C 993 1350 1032 1311 1069 1257 L 985 1163 C 958 1205 928 1236 894 1257 C 860 1277 822 1288 780 1288 C 744 1288 710 1280 679 1264 C 647 1248 620 1224 598 1194 C 578 1167 562 1136 550 1101 C 538 1065 525 1015 512 950 L 483 797 L 754 797 L 733 694 L 463 694 L 426 508 C 407 417 383 349 355 304 C 327 258 283 218 223 182 L 223 172 C 282 152 339 138 393 130 C 447 121 505 117 565 117 C 630 117 683 129 723 153 C 763 177 804 221 846 285 L 942 215 C 896 135 841 78 779 44 C 716 9 636 -8 539 -8 C 466 -8 408 -3 365 5 C 322 14 210 45 29 98 Z" unicode="£" />
<glyph horiz-adv-x="979" d="M 92 379 L 113 489 L 383 489 L 391 532 L 373 602 L 94 602 L 117 715 L 340 715 L 154 1393 L 324 1393 L 498 692 L 940 1393 L 1116 1393 L 672 715 L 891 715 L 870 602 L 598 602 L 551 532 L 543 489 L 807 489 L 784 379 L 522 379 L 449 0 L 289 0 L 362 379 L 92 379 Z" unicode="¥" />
<glyph horiz-adv-x="733" d="M 424 520 L 424 -379 L 266 -379 L 266 520 L 424 520 Z M 424 1604 L 424 702 L 266 702 L 266 1604 L 424 1604 Z" unicode="¦" />
<glyph horiz-adv-x="1079" d="M -14 -287 L 68 -186 C 108 -230 155 -262 208 -284 C 260 -306 319 -317 385 -317 C 469 -317 537 -294 587 -249 C 637 -204 662 -143 662 -66 C 662 -16 649 23 623 54 C 597 85 556 111 498 133 L 301 207 C 233 231 180 268 144 317 C 108 365 90 423 90 489 C 90 561 111 626 155 684 C 199 741 260 785 340 817 L 340 823 C 310 848 289 877 275 910 C 261 943 254 982 254 1026 C 254 1134 298 1224 386 1297 C 474 1370 583 1407 715 1407 C 785 1407 847 1394 901 1369 C 955 1343 1004 1304 1047 1251 L 965 1153 C 926 1197 885 1230 842 1250 C 799 1270 750 1280 694 1280 C 610 1280 541 1257 487 1213 C 433 1169 406 1112 406 1044 C 406 997 418 960 444 933 C 470 906 516 881 582 858 L 754 799 C 819 776 870 740 908 692 C 946 644 965 589 965 528 C 965 444 943 373 899 313 C 855 253 793 208 713 180 L 713 172 C 748 141 773 109 789 75 C 805 41 813 1 813 -45 C 813 -159 771 -254 687 -329 C 603 -404 495 -442 365 -442 C 290 -442 221 -429 158 -403 C 95 -377 38 -339 -14 -287 Z M 473 729 C 409 729 354 706 308 660 C 262 614 240 560 240 496 C 240 465 246 438 259 415 C 272 392 293 371 322 352 C 359 326 402 305 451 289 C 499 272 543 264 582 264 C 645 264 699 286 745 332 C 790 378 813 432 813 496 C 813 529 805 558 791 583 C 776 607 753 629 723 649 C 686 673 645 693 599 707 C 553 721 511 729 473 729 Z" unicode="§" />
<glyph horiz-adv-x="887" d="M 205 1393 C 235 1393 261 1382 281 1361 C 301 1340 311 1314 311 1284 C 311 1253 301 1228 281 1208 C 261 1188 235 1178 205 1178 C 174 1178 148 1188 127 1209 C 106 1229 96 1254 96 1284 C 96 1316 106 1342 127 1362 C 148 1382 174 1393 205 1393 Z M 682 1393 C 712 1393 738 1382 758 1361 C 778 1340 788 1314 788 1284 C 788 1253 778 1228 758 1208 C 738 1188 712 1178 682 1178 C 651 1178 625 1188 604 1209 C 583 1229 573 1254 573 1284 C 573 1316 583 1342 604 1362 C 625 1382 651 1393 682 1393 Z" unicode="¨" />
<glyph horiz-adv-x="1806" d="M 1151 479 L 1272 395 C 1230 321 1180 266 1123 232 C 1066 197 998 180 918 180 C 778 180 667 227 586 322 C 505 416 465 545 465 707 C 465 874 507 1008 592 1109 C 677 1209 791 1260 934 1260 C 1008 1260 1071 1244 1124 1213 C 1176 1182 1225 1132 1270 1063 L 1145 963 C 1111 1021 1078 1060 1048 1082 C 1018 1103 978 1114 928 1114 C 836 1114 765 1078 713 1007 C 661 936 635 839 635 717 C 635 592 660 496 712 429 C 763 361 836 328 930 328 C 984 328 1028 339 1060 361 C 1092 383 1122 422 1151 479 Z M 924 1538 C 1144 1538 1334 1457 1493 1296 C 1651 1135 1731 943 1731 719 C 1731 490 1651 296 1491 137 C 1331 -22 1138 -102 911 -102 C 682 -102 488 -22 329 138 C 169 298 90 493 90 725 C 90 951 170 1143 332 1301 C 494 1459 691 1538 924 1538 Z M 899 1413 C 716 1413 559 1345 429 1209 C 298 1073 233 909 233 719 C 233 526 299 362 431 226 C 563 90 723 23 909 23 C 1098 23 1258 91 1390 227 C 1521 363 1587 528 1587 723 C 1587 916 1520 1079 1387 1213 C 1254 1346 1091 1413 899 1413 Z" unicode="©" />
<glyph horiz-adv-x="752" d="M 668 897 L 567 897 L 575 965 L 559 965 C 526 935 497 914 471 904 C 445 894 411 889 371 889 C 315 889 271 901 241 927 C 210 952 195 988 195 1034 C 195 1101 221 1155 275 1197 C 328 1239 397 1260 483 1260 L 629 1260 L 637 1300 C 637 1305 638 1310 638 1314 C 638 1318 639 1323 639 1327 C 639 1351 631 1370 615 1382 C 599 1394 575 1401 543 1401 C 507 1401 475 1396 448 1386 C 421 1376 392 1358 360 1333 L 313 1407 C 359 1441 401 1464 441 1478 C 480 1492 522 1499 567 1499 C 626 1499 672 1487 704 1464 C 736 1441 752 1408 752 1366 C 752 1353 751 1338 749 1320 C 747 1302 743 1282 739 1262 L 668 897 Z M 610 1174 L 469 1174 C 421 1174 383 1163 357 1142 C 330 1121 317 1092 317 1055 C 317 1028 325 1009 341 997 C 357 985 383 979 418 979 C 468 979 508 990 540 1014 C 571 1038 591 1072 600 1116 L 610 1174 Z M 127 690 L 147 793 L 657 793 L 637 690 L 127 690 Z" unicode="ª" />
<glyph horiz-adv-x="1014" d="M 377 940 L 532 940 L 258 582 L 395 231 L 258 231 L 70 578 L 377 940 Z M 764 940 L 918 940 L 637 582 L 782 231 L 645 231 L 457 578 L 764 940 Z" unicode="«" />
<glyph horiz-adv-x="1069" d="M 145 618 L 174 766 L 999 766 L 827 268 L 690 268 L 842 618 L 145 618 Z" unicode="¬" />
<glyph horiz-adv-x="662" d="M 520 537 L 98 537 L 129 698 L 553 698 L 520 537 Z" unicode="­" />
<glyph horiz-adv-x="956" d="M 625 905 C 661 905 696 911 729 924 C 762 936 792 954 818 977 L 715 977 L 578 1194 L 563 1194 L 563 977 L 479 977 L 479 1464 L 608 1464 C 676 1464 724 1453 753 1433 C 782 1413 797 1379 797 1333 C 797 1293 786 1261 765 1237 C 744 1213 714 1198 674 1194 L 819 977 C 851 1005 877 1040 897 1082 C 916 1124 926 1169 926 1217 C 926 1302 896 1374 837 1433 C 778 1492 706 1522 621 1522 C 540 1522 471 1491 413 1430 C 355 1369 326 1297 326 1214 C 326 1128 355 1055 413 995 C 471 935 542 905 625 905 Z M 631 1591 C 737 1591 827 1553 903 1479 C 978 1405 1016 1316 1016 1214 C 1016 1109 978 1020 902 946 C 826 872 733 836 625 836 C 517 836 425 873 349 947 C 273 1021 236 1111 236 1217 C 236 1321 274 1410 351 1482 C 427 1554 521 1591 631 1591 Z M 563 1241 L 610 1241 C 644 1241 669 1247 685 1260 C 701 1273 709 1293 709 1321 C 709 1348 701 1367 687 1379 C 672 1391 648 1397 614 1397 L 563 1397 L 563 1241 Z" unicode="®" />
<glyph horiz-adv-x="741" d="M 96 1196 L 121 1321 L 645 1321 L 621 1196 L 96 1196 Z" unicode="¯" />
<glyph horiz-adv-x="778" d="M 489 1423 C 573 1423 646 1393 707 1333 C 768 1273 799 1202 799 1120 C 799 1035 768 963 707 904 C 645 844 571 815 485 815 C 398 815 324 844 263 904 C 202 964 172 1036 172 1122 C 172 1205 203 1276 265 1335 C 327 1393 401 1423 489 1423 Z M 483 1296 C 436 1296 396 1278 363 1244 C 329 1209 313 1168 313 1120 C 313 1071 330 1029 364 995 C 398 961 438 944 485 944 C 533 944 573 961 607 995 C 640 1029 657 1072 657 1122 C 657 1171 640 1212 607 1246 C 573 1279 532 1296 483 1296 Z" unicode="°" />
<glyph horiz-adv-x="1069" d="M 621 707 L 561 393 L 418 393 L 477 707 L 195 707 L 217 829 L 502 829 L 561 1130 L 705 1130 L 645 829 L 930 829 L 905 707 L 621 707 Z M 86 152 L 111 274 L 821 274 L 797 152 L 86 152 Z" unicode="±" />
<glyph horiz-adv-x="582" d="M 620 710 L 595 587 L 118 587 L 141 700 C 171 723 219 767 285 832 C 351 897 397 946 425 980 C 465 1030 493 1073 510 1109 C 527 1145 536 1182 536 1218 C 536 1239 531 1254 522 1264 C 512 1274 498 1279 479 1279 C 444 1279 416 1265 395 1239 C 373 1213 360 1174 356 1124 L 221 1124 C 227 1209 255 1276 305 1326 C 354 1375 418 1400 497 1400 C 555 1400 599 1384 630 1352 C 661 1320 677 1274 677 1214 C 677 1154 659 1094 624 1033 C 588 972 533 906 458 835 L 325 710 L 620 710 Z" unicode="²" />
<glyph horiz-adv-x="582" d="M 202 786 L 225 761 C 247 736 267 720 284 712 C 300 704 324 700 354 700 C 396 700 430 715 456 745 C 482 775 495 816 495 868 C 495 893 486 913 469 927 C 451 941 428 949 399 949 C 381 949 364 947 348 944 C 332 941 308 935 278 927 L 255 1027 L 491 1269 L 276 1269 L 298 1392 L 688 1392 L 665 1279 L 450 1062 L 466 1062 C 518 1061 559 1043 589 1009 C 619 974 634 928 634 872 C 634 785 607 714 553 659 C 499 604 430 577 346 577 C 296 577 256 583 227 597 C 198 610 164 638 126 681 L 202 786 Z" unicode="³" />
<glyph horiz-adv-x="573" d="M 96 1120 L 285 1405 L 477 1405 L 477 1397 L 242 1120 L 96 1120 Z" unicode="´" />
<glyph horiz-adv-x="1149" d="M 895 991 L 1047 991 L 915 324 C 910 295 906 267 903 239 C 900 211 899 183 899 156 C 899 133 900 113 902 96 C 904 78 909 55 915 27 L 780 -29 C 771 7 765 37 762 60 C 758 82 756 111 756 145 L 741 145 C 703 91 662 52 619 28 C 575 4 524 -8 465 -8 C 411 -8 367 0 334 15 C 301 31 274 57 254 94 L 238 94 L 139 -379 L -35 -379 L 39 -133 C 69 -31 91 43 104 91 C 117 138 127 177 133 207 L 272 991 L 424 991 L 313 432 C 309 407 305 382 303 358 C 300 334 299 312 299 293 C 299 235 314 192 345 164 C 375 135 421 121 483 121 C 572 121 640 147 686 201 C 732 254 769 346 795 477 L 895 991 Z" unicode="µ" />
<glyph horiz-adv-x="1040" d="M 700 1198 L 522 1198 L 522 416 C 456 416 403 423 363 437 C 322 451 282 477 242 514 C 197 556 163 608 139 669 C 115 729 104 796 104 868 C 104 949 118 1023 148 1089 C 178 1155 220 1207 274 1245 C 308 1269 348 1289 395 1305 C 441 1321 484 1329 522 1329 L 700 1329 L 700 1407 L 850 1407 L 850 -29 L 700 -29 L 700 1198 Z" unicode="¶" />
<glyph horiz-adv-x="610" d="M 344 842 C 384 842 419 827 448 798 C 477 769 492 734 492 692 C 492 650 477 614 448 586 C 419 557 384 543 342 543 C 300 543 264 557 236 586 C 207 614 193 650 193 692 C 193 734 207 770 235 799 C 263 827 300 842 344 842 Z" unicode="·" />
<glyph horiz-adv-x="604" d="M 160 -233 L 123 -137 C 156 -109 187 -90 217 -79 C 247 -68 281 -63 319 -63 C 378 -63 424 -79 458 -113 C 491 -146 508 -192 508 -252 C 508 -316 489 -366 451 -403 C 413 -440 360 -459 293 -459 C 253 -459 218 -453 190 -442 C 161 -431 130 -412 96 -385 L 145 -289 C 166 -314 186 -331 206 -341 C 226 -351 250 -356 279 -356 C 312 -356 338 -347 357 -329 C 375 -311 385 -287 385 -256 C 385 -226 377 -204 363 -189 C 349 -173 328 -166 301 -166 C 272 -166 247 -171 226 -181 C 205 -191 183 -208 160 -233 Z" unicode="¸" />
<glyph horiz-adv-x="547" d="M 450 587 L 311 587 L 430 1193 L 245 1060 L 186 1146 L 483 1392 L 606 1392 L 450 587 Z" unicode="¹" />
<glyph horiz-adv-x="752" d="M 573 1505 C 643 1505 699 1482 741 1437 C 782 1392 803 1331 803 1255 C 803 1154 768 1068 700 996 C 632 924 549 889 453 889 C 378 889 320 911 278 955 C 236 999 215 1059 215 1137 C 215 1241 249 1328 318 1399 C 387 1469 472 1505 573 1505 Z M 549 1403 C 487 1403 436 1377 396 1326 C 356 1275 336 1211 336 1133 C 336 1087 347 1051 369 1027 C 391 1003 425 991 469 991 C 531 991 582 1016 622 1068 C 662 1119 682 1184 682 1264 C 682 1308 670 1343 647 1367 C 624 1391 591 1403 549 1403 Z M 156 690 L 176 793 L 686 793 L 666 690 L 156 690 Z" unicode="º" />
<glyph horiz-adv-x="1012" d="M 174 231 L 20 231 L 301 590 L 158 940 L 295 940 L 483 594 L 174 231 Z M 561 231 L 408 231 L 682 590 L 543 940 L 680 940 L 868 594 L 561 231 Z" unicode="»" />
<glyph horiz-adv-x="1423" d="M 354 587 L 215 587 L 334 1193 L 149 1060 L 90 1146 L 387 1392 L 510 1392 L 354 587 Z M 1259 1354 L 366 -18 L 262 35 L 1157 1409 L 1259 1354 Z M 1204 0 L 1068 0 L 1101 178 L 829 178 L 849 285 L 1200 805 L 1359 805 L 1261 301 L 1349 301 L 1324 178 L 1238 178 L 1204 0 Z M 1126 301 L 1179 561 L 1163 561 L 995 301 L 1126 301 Z" unicode="¼" />
<glyph horiz-adv-x="1423" d="M 354 587 L 215 587 L 334 1193 L 149 1060 L 90 1146 L 387 1392 L 510 1392 L 354 587 Z M 1239 1354 L 346 -18 L 242 35 L 1137 1409 L 1239 1354 Z M 1343 123 L 1318 0 L 841 0 L 864 113 C 894 136 942 180 1008 245 C 1074 310 1120 359 1148 393 C 1188 443 1216 486 1233 522 C 1250 558 1259 595 1259 631 C 1259 652 1254 667 1245 677 C 1235 687 1221 692 1202 692 C 1167 692 1139 678 1118 652 C 1096 626 1083 587 1079 537 L 944 537 C 950 622 978 689 1028 739 C 1077 788 1141 813 1220 813 C 1278 813 1322 797 1353 765 C 1384 733 1400 687 1400 627 C 1400 567 1382 507 1347 446 C 1311 385 1256 319 1181 248 L 1048 123 L 1343 123 Z" unicode="½" />
<glyph horiz-adv-x="1423" d="M 1259 1354 L 366 -18 L 262 35 L 1157 1409 L 1259 1354 Z M 81 786 L 104 761 C 126 736 146 720 163 712 C 179 704 203 700 233 700 C 275 700 309 715 335 745 C 361 775 374 816 374 868 C 374 893 365 913 348 927 C 330 941 307 949 278 949 C 260 949 243 947 227 944 C 211 941 187 935 157 927 L 134 1027 L 370 1269 L 155 1269 L 177 1392 L 567 1392 L 544 1279 L 329 1062 L 345 1062 C 397 1061 438 1043 468 1009 C 498 974 513 928 513 872 C 513 785 486 714 432 659 C 378 604 309 577 225 577 C 175 577 135 583 106 597 C 77 610 43 638 5 681 L 81 786 Z M 1192 0 L 1056 0 L 1089 178 L 817 178 L 837 285 L 1188 805 L 1347 805 L 1249 301 L 1337 301 L 1312 178 L 1226 178 L 1192 0 Z M 1114 301 L 1167 561 L 1151 561 L 983 301 L 1114 301 Z" unicode="¾" />
<glyph horiz-adv-x="887" d="M 550 186 L 581 67 C 523 36 470 14 421 0 C 371 -13 322 -20 272 -20 C 194 -20 135 0 93 39 C 51 79 30 136 30 212 C 30 278 46 340 79 396 C 112 452 165 511 239 571 C 329 643 385 695 407 728 C 429 761 450 825 472 921 L 593 921 C 592 834 578 765 550 715 C 522 665 463 599 372 518 C 295 448 245 395 221 357 C 197 319 186 275 186 223 C 186 190 196 164 218 145 C 239 125 268 116 306 116 C 348 116 386 120 419 130 C 451 140 495 158 550 186 Z M 593 1144 C 557 1144 526 1156 502 1181 C 478 1206 466 1237 466 1273 C 466 1309 478 1339 503 1363 C 527 1387 558 1399 595 1399 C 631 1399 661 1387 685 1363 C 709 1339 722 1309 722 1273 C 722 1237 709 1206 685 1181 C 660 1156 629 1144 593 1144 Z" unicode="¿" />
<glyph horiz-adv-x="1161" d="M 94 0 L -74 0 L 641 1393 L 852 1393 L 969 0 L 813 0 L 780 430 L 305 430 L 94 0 Z M 717 1243 L 360 543 L 772 543 L 717 1243 Z M 843 1470 L 671 1470 L 407 1669 L 407 1679 L 661 1679 L 843 1481 L 843 1470 Z" unicode="À" />
<glyph horiz-adv-x="1161" d="M 94 0 L -74 0 L 641 1393 L 852 1393 L 969 0 L 813 0 L 780 430 L 305 430 L 94 0 Z M 717 1243 L 360 543 L 772 543 L 717 1243 Z M 624 1470 L 624 1481 L 807 1679 L 1060 1679 L 1060 1669 L 790 1470 L 624 1470 Z" unicode="Á" />
<glyph horiz-adv-x="1161" d="M 94 0 L -74 0 L 641 1393 L 852 1393 L 969 0 L 813 0 L 780 430 L 305 430 L 94 0 Z M 717 1243 L 360 543 L 772 543 L 717 1243 Z M 620 1477 L 470 1477 L 470 1485 L 771 1767 L 1025 1485 L 1025 1477 L 861 1477 L 749 1593 L 620 1477 Z" unicode="Â" />
<glyph horiz-adv-x="1161" d="M 94 0 L -74 0 L 641 1393 L 852 1393 L 969 0 L 813 0 L 780 430 L 305 430 L 94 0 Z M 717 1243 L 360 543 L 772 543 L 717 1243 Z M 483 1458 L 405 1532 C 429 1596 458 1643 490 1674 C 522 1704 559 1720 602 1720 C 629 1720 655 1715 681 1706 C 706 1697 745 1677 798 1647 C 817 1635 834 1627 850 1622 C 865 1616 879 1614 893 1614 C 920 1614 941 1621 955 1637 C 969 1652 988 1685 1011 1737 L 1089 1665 C 1068 1605 1041 1560 1008 1528 C 975 1496 937 1481 895 1481 C 871 1481 846 1485 818 1495 C 790 1505 758 1521 723 1544 C 696 1560 675 1572 659 1578 C 643 1584 627 1587 612 1587 C 584 1587 561 1577 541 1557 C 521 1537 501 1504 483 1458 Z" unicode="Ã" />
<glyph horiz-adv-x="1161" d="M 94 0 L -74 0 L 641 1393 L 852 1393 L 969 0 L 813 0 L 780 430 L 305 430 L 94 0 Z M 717 1243 L 360 543 L 772 543 L 717 1243 Z M 460 1688 C 492 1688 520 1676 543 1653 C 565 1630 577 1602 577 1569 C 577 1535 565 1506 543 1484 C 520 1461 492 1450 458 1450 C 424 1450 395 1461 373 1484 C 350 1506 339 1535 339 1569 C 339 1602 350 1630 373 1653 C 396 1676 425 1688 460 1688 Z M 1028 1688 C 1060 1688 1088 1676 1111 1653 C 1133 1630 1145 1602 1145 1569 C 1145 1535 1133 1506 1111 1484 C 1088 1461 1060 1450 1026 1450 C 992 1450 963 1461 941 1484 C 918 1506 907 1535 907 1569 C 907 1602 918 1630 941 1653 C 964 1676 993 1688 1028 1688 Z" unicode="Ä" />
<glyph horiz-adv-x="1161" d="M 94 0 L -74 0 L 641 1393 L 852 1393 L 969 0 L 813 0 L 780 430 L 305 430 L 94 0 Z M 717 1243 L 360 543 L 772 543 L 717 1243 Z M 771 1816 C 831 1816 880 1798 919 1762 C 958 1726 978 1680 978 1626 C 978 1570 958 1525 919 1490 C 879 1454 829 1437 767 1437 C 705 1437 654 1454 615 1490 C 575 1526 556 1572 556 1628 C 556 1684 575 1729 615 1764 C 655 1798 707 1816 771 1816 Z M 767 1714 C 739 1714 717 1706 701 1690 C 685 1674 677 1653 677 1626 C 677 1598 685 1577 701 1562 C 717 1546 739 1539 767 1539 C 795 1539 818 1546 835 1562 C 851 1577 860 1598 860 1626 C 860 1653 851 1674 835 1690 C 818 1706 795 1714 767 1714 Z" unicode="Å" />
<glyph horiz-adv-x="1544" d="M 72 0 L -98 0 L 641 1393 L 1464 1393 L 1438 1264 L 907 1264 L 905 799 L 1389 799 L 1366 676 L 903 676 L 897 125 L 1415 125 L 1391 0 L 741 0 L 748 430 L 291 430 L 72 0 Z M 733 1276 L 346 543 L 750 543 L 754 1276 L 733 1276 Z" unicode="Æ" />
<glyph horiz-adv-x="1108" d="M 903 281 L 975 193 C 907 117 839 63 770 30 C 701 -3 623 -20 537 -20 C 394 -20 284 23 206 111 C 128 198 90 323 90 485 C 90 739 161 958 304 1140 C 446 1322 618 1413 819 1413 C 879 1413 934 1403 985 1384 C 1036 1365 1080 1338 1116 1303 L 1151 1268 L 1067 1163 L 1044 1188 C 1016 1217 982 1240 941 1257 C 900 1273 857 1282 811 1282 C 722 1282 642 1258 571 1212 C 500 1166 438 1096 385 1004 C 344 932 312 850 289 758 C 265 666 254 574 254 483 C 254 361 280 267 333 203 C 385 138 462 106 563 106 C 630 106 688 118 738 144 C 788 170 843 215 903 281 Z M 342 -233 L 305 -137 C 338 -109 369 -90 399 -79 C 429 -68 463 -63 501 -63 C 560 -63 606 -79 640 -113 C 673 -146 690 -192 690 -252 C 690 -316 671 -366 633 -403 C 595 -440 542 -459 475 -459 C 435 -459 400 -453 372 -442 C 343 -431 312 -412 278 -385 L 327 -289 C 348 -314 368 -331 388 -341 C 408 -351 432 -356 461 -356 C 494 -356 520 -347 539 -329 C 557 -311 567 -287 567 -256 C 567 -226 559 -204 545 -189 C 531 -173 510 -166 483 -166 C 454 -166 429 -171 408 -181 C 387 -191 365 -208 342 -233 Z" unicode="Ç" />
<glyph horiz-adv-x="1055" d="M 90 0 L 360 1393 L 1018 1393 L 991 1264 L 496 1264 L 401 784 L 911 784 L 889 662 L 377 662 L 274 127 L 879 127 L 854 0 L 90 0 Z M 853 1470 L 681 1470 L 417 1669 L 417 1679 L 671 1679 L 853 1481 L 853 1470 Z" unicode="È" />
<glyph horiz-adv-x="1055" d="M 90 0 L 360 1393 L 1018 1393 L 991 1264 L 496 1264 L 401 784 L 911 784 L 889 662 L 377 662 L 274 127 L 879 127 L 854 0 L 90 0 Z M 608 1470 L 608 1481 L 791 1679 L 1044 1679 L 1044 1669 L 774 1470 L 608 1470 Z" unicode="É" />
<glyph horiz-adv-x="1055" d="M 90 0 L 360 1393 L 1018 1393 L 991 1264 L 496 1264 L 401 784 L 911 784 L 889 662 L 377 662 L 274 127 L 879 127 L 854 0 L 90 0 Z M 590 1477 L 440 1477 L 440 1485 L 741 1767 L 995 1485 L 995 1477 L 831 1477 L 719 1593 L 590 1477 Z" unicode="Ê" />
<glyph horiz-adv-x="1055" d="M 90 0 L 360 1393 L 1018 1393 L 991 1264 L 496 1264 L 401 784 L 911 784 L 889 662 L 377 662 L 274 127 L 879 127 L 854 0 L 90 0 Z M 559 1688 C 591 1688 619 1676 642 1653 C 664 1630 676 1602 676 1569 C 676 1535 664 1506 642 1484 C 619 1461 591 1450 557 1450 C 523 1450 494 1461 472 1484 C 449 1506 438 1535 438 1569 C 438 1602 449 1630 472 1653 C 495 1676 524 1688 559 1688 Z M 892 1688 C 924 1688 952 1676 975 1653 C 997 1630 1009 1602 1009 1569 C 1009 1535 997 1506 975 1484 C 952 1461 924 1450 890 1450 C 856 1450 827 1461 805 1484 C 782 1506 771 1535 771 1569 C 771 1602 782 1630 805 1653 C 828 1676 857 1688 892 1688 Z" unicode="Ë" />
<glyph horiz-adv-x="610" d="M 258 0 L 100 0 L 371 1393 L 528 1393 L 258 0 Z M 572 1470 L 400 1470 L 136 1669 L 136 1679 L 390 1679 L 572 1481 L 572 1470 Z" unicode="Ì" />
<glyph horiz-adv-x="610" d="M 258 0 L 100 0 L 371 1393 L 528 1393 L 258 0 Z M 368 1470 L 368 1481 L 551 1679 L 804 1679 L 804 1669 L 534 1470 L 368 1470 Z" unicode="Í" />
<glyph horiz-adv-x="610" d="M 258 0 L 100 0 L 371 1393 L 528 1393 L 258 0 Z M 336 1477 L 186 1477 L 186 1485 L 487 1767 L 741 1485 L 741 1477 L 577 1477 L 465 1593 L 336 1477 Z" unicode="Î" />
<glyph horiz-adv-x="610" d="M 258 0 L 100 0 L 371 1393 L 528 1393 L 258 0 Z M 286 1688 C 318 1688 346 1676 369 1653 C 391 1630 403 1602 403 1569 C 403 1535 391 1506 369 1484 C 346 1461 318 1450 284 1450 C 250 1450 221 1461 199 1484 C 176 1506 165 1535 165 1569 C 165 1602 176 1630 199 1653 C 222 1676 251 1688 286 1688 Z M 634 1688 C 666 1688 694 1676 717 1653 C 739 1630 751 1602 751 1569 C 751 1535 739 1506 717 1484 C 694 1461 666 1450 632 1450 C 598 1450 569 1461 547 1484 C 524 1506 513 1535 513 1569 C 513 1602 524 1630 547 1653 C 570 1676 599 1688 634 1688 Z" unicode="Ï" />
<glyph horiz-adv-x="1370" d="M 416 659 L 311 123 L 496 123 C 627 123 732 146 812 192 C 892 238 958 316 1012 424 C 1043 490 1067 560 1083 635 C 1099 709 1108 786 1108 866 C 1108 933 1101 992 1089 1042 C 1077 1092 1058 1134 1034 1167 C 1007 1203 969 1229 920 1245 C 870 1261 804 1270 721 1270 L 532 1270 L 438 784 L 756 784 L 731 659 L 416 659 Z M 258 659 L 78 659 L 102 784 L 283 784 L 401 1393 L 743 1393 C 928 1393 1062 1351 1144 1269 C 1226 1187 1268 1052 1268 866 C 1268 724 1243 590 1193 463 C 1143 335 1075 234 991 158 C 934 106 865 66 783 40 C 701 13 608 0 506 0 L 131 0 L 258 659 Z" unicode="Ð" />
<glyph horiz-adv-x="1350" d="M 236 0 L 86 0 L 356 1393 L 549 1393 L 924 264 L 1145 1393 L 1292 1393 L 1022 0 L 862 0 L 463 1167 L 236 0 Z M 589 1458 L 511 1532 C 535 1596 564 1643 596 1674 C 628 1704 665 1720 708 1720 C 735 1720 761 1715 787 1706 C 812 1697 851 1677 904 1647 C 923 1635 940 1627 956 1622 C 971 1616 985 1614 999 1614 C 1026 1614 1047 1621 1061 1637 C 1075 1652 1094 1685 1117 1737 L 1195 1665 C 1174 1605 1147 1560 1114 1528 C 1081 1496 1043 1481 1001 1481 C 977 1481 952 1485 924 1495 C 896 1505 864 1521 829 1544 C 802 1560 781 1572 765 1578 C 749 1584 733 1587 718 1587 C 690 1587 667 1577 647 1557 C 627 1537 607 1504 589 1458 Z" unicode="Ñ" />
<glyph horiz-adv-x="1386" d="M 834 1417 C 978 1417 1090 1368 1170 1272 C 1250 1176 1290 1041 1290 868 C 1290 745 1269 625 1227 507 C 1185 389 1126 286 1051 199 C 983 121 910 65 832 29 C 753 -7 663 -25 563 -25 C 413 -25 297 23 215 120 C 133 216 92 354 92 532 C 92 664 117 795 169 923 C 221 1051 290 1155 377 1237 C 440 1297 510 1342 586 1372 C 662 1402 744 1417 834 1417 Z M 803 1288 C 707 1288 621 1259 544 1202 C 467 1144 403 1062 352 954 C 320 888 296 817 279 741 C 262 665 254 591 254 518 C 254 384 281 281 337 210 C 393 139 474 104 580 104 C 665 104 740 124 806 164 C 872 204 931 267 983 352 C 1027 424 1063 507 1089 599 C 1115 691 1128 780 1128 868 C 1128 1006 1100 1110 1045 1181 C 990 1252 909 1288 803 1288 Z M 949 1470 L 777 1470 L 513 1669 L 513 1679 L 767 1679 L 949 1481 L 949 1470 Z" unicode="Ò" />
<glyph horiz-adv-x="1386" d="M 834 1417 C 978 1417 1090 1368 1170 1272 C 1250 1176 1290 1041 1290 868 C 1290 745 1269 625 1227 507 C 1185 389 1126 286 1051 199 C 983 121 910 65 832 29 C 753 -7 663 -25 563 -25 C 413 -25 297 23 215 120 C 133 216 92 354 92 532 C 92 664 117 795 169 923 C 221 1051 290 1155 377 1237 C 440 1297 510 1342 586 1372 C 662 1402 744 1417 834 1417 Z M 803 1288 C 707 1288 621 1259 544 1202 C 467 1144 403 1062 352 954 C 320 888 296 817 279 741 C 262 665 254 591 254 518 C 254 384 281 281 337 210 C 393 139 474 104 580 104 C 665 104 740 124 806 164 C 872 204 931 267 983 352 C 1027 424 1063 507 1089 599 C 1115 691 1128 780 1128 868 C 1128 1006 1100 1110 1045 1181 C 990 1252 909 1288 803 1288 Z M 718 1470 L 718 1481 L 901 1679 L 1154 1679 L 1154 1669 L 884 1470 L 718 1470 Z" unicode="Ó" />
<glyph horiz-adv-x="1386" d="M 834 1417 C 978 1417 1090 1368 1170 1272 C 1250 1176 1290 1041 1290 868 C 1290 745 1269 625 1227 507 C 1185 389 1126 286 1051 199 C 983 121 910 65 832 29 C 753 -7 663 -25 563 -25 C 413 -25 297 23 215 120 C 133 216 92 354 92 532 C 92 664 117 795 169 923 C 221 1051 290 1155 377 1237 C 440 1297 510 1342 586 1372 C 662 1402 744 1417 834 1417 Z M 803 1288 C 707 1288 621 1259 544 1202 C 467 1144 403 1062 352 954 C 320 888 296 817 279 741 C 262 665 254 591 254 518 C 254 384 281 281 337 210 C 393 139 474 104 580 104 C 665 104 740 124 806 164 C 872 204 931 267 983 352 C 1027 424 1063 507 1089 599 C 1115 691 1128 780 1128 868 C 1128 1006 1100 1110 1045 1181 C 990 1252 909 1288 803 1288 Z M 721 1477 L 571 1477 L 571 1485 L 872 1767 L 1126 1485 L 1126 1477 L 962 1477 L 850 1593 L 721 1477 Z" unicode="Ô" />
<glyph horiz-adv-x="1386" d="M 834 1417 C 978 1417 1090 1368 1170 1272 C 1250 1176 1290 1041 1290 868 C 1290 745 1269 625 1227 507 C 1185 389 1126 286 1051 199 C 983 121 910 65 832 29 C 753 -7 663 -25 563 -25 C 413 -25 297 23 215 120 C 133 216 92 354 92 532 C 92 664 117 795 169 923 C 221 1051 290 1155 377 1237 C 440 1297 510 1342 586 1372 C 662 1402 744 1417 834 1417 Z M 803 1288 C 707 1288 621 1259 544 1202 C 467 1144 403 1062 352 954 C 320 888 296 817 279 741 C 262 665 254 591 254 518 C 254 384 281 281 337 210 C 393 139 474 104 580 104 C 665 104 740 124 806 164 C 872 204 931 267 983 352 C 1027 424 1063 507 1089 599 C 1115 691 1128 780 1128 868 C 1128 1006 1100 1110 1045 1181 C 990 1252 909 1288 803 1288 Z M 604 1458 L 526 1532 C 550 1596 579 1643 611 1674 C 643 1704 680 1720 723 1720 C 750 1720 776 1715 802 1706 C 827 1697 866 1677 919 1647 C 938 1635 955 1627 971 1622 C 986 1616 1000 1614 1014 1614 C 1041 1614 1062 1621 1076 1637 C 1090 1652 1109 1685 1132 1737 L 1210 1665 C 1189 1605 1162 1560 1129 1528 C 1096 1496 1058 1481 1016 1481 C 992 1481 967 1485 939 1495 C 911 1505 879 1521 844 1544 C 817 1560 796 1572 780 1578 C 764 1584 748 1587 733 1587 C 705 1587 682 1577 662 1557 C 642 1537 622 1504 604 1458 Z" unicode="Õ" />
<glyph horiz-adv-x="1386" d="M 834 1417 C 978 1417 1090 1368 1170 1272 C 1250 1176 1290 1041 1290 868 C 1290 745 1269 625 1227 507 C 1185 389 1126 286 1051 199 C 983 121 910 65 832 29 C 753 -7 663 -25 563 -25 C 413 -25 297 23 215 120 C 133 216 92 354 92 532 C 92 664 117 795 169 923 C 221 1051 290 1155 377 1237 C 440 1297 510 1342 586 1372 C 662 1402 744 1417 834 1417 Z M 803 1288 C 707 1288 621 1259 544 1202 C 467 1144 403 1062 352 954 C 320 888 296 817 279 741 C 262 665 254 591 254 518 C 254 384 281 281 337 210 C 393 139 474 104 580 104 C 665 104 740 124 806 164 C 872 204 931 267 983 352 C 1027 424 1063 507 1089 599 C 1115 691 1128 780 1128 868 C 1128 1006 1100 1110 1045 1181 C 990 1252 909 1288 803 1288 Z M 554 1688 C 586 1688 614 1676 637 1653 C 659 1630 671 1602 671 1569 C 671 1535 659 1506 637 1484 C 614 1461 586 1450 552 1450 C 518 1450 489 1461 467 1484 C 444 1506 433 1535 433 1569 C 433 1602 444 1630 467 1653 C 490 1676 519 1688 554 1688 Z M 1134 1688 C 1166 1688 1194 1676 1217 1653 C 1239 1630 1251 1602 1251 1569 C 1251 1535 1239 1506 1217 1484 C 1194 1461 1166 1450 1132 1450 C 1098 1450 1069 1461 1047 1484 C 1024 1506 1013 1535 1013 1569 C 1013 1602 1024 1630 1047 1653 C 1070 1676 1099 1688 1134 1688 Z" unicode="Ö" />
<glyph horiz-adv-x="1069" d="M 825 434 L 709 340 L 522 592 L 236 340 L 143 446 L 436 700 L 244 950 L 360 1047 L 547 793 L 834 1047 L 926 938 L 633 686 L 825 434 Z" unicode="×" />
<glyph horiz-adv-x="1376" d="M 254 -176 L 156 -121 L 268 61 C 209 108 164 172 133 254 C 101 336 86 430 86 537 C 86 668 111 798 163 926 C 214 1054 282 1158 367 1239 C 427 1297 496 1341 574 1371 C 651 1401 732 1417 817 1417 C 859 1417 896 1414 927 1408 C 958 1402 991 1390 1026 1374 L 1126 1546 L 1221 1499 L 1116 1317 C 1169 1273 1210 1211 1239 1133 C 1267 1054 1282 964 1282 864 C 1282 744 1260 625 1218 507 C 1176 389 1117 286 1042 199 C 976 122 904 65 826 29 C 748 -6 661 -25 563 -25 C 522 -25 485 -22 452 -16 C 419 -10 388 -2 360 8 L 254 -176 Z M 344 193 L 956 1253 C 930 1266 906 1275 883 1280 C 859 1285 831 1288 797 1288 C 701 1288 614 1259 536 1202 C 458 1144 394 1062 344 954 C 312 888 288 816 271 740 C 254 664 246 589 246 516 C 246 444 253 383 269 332 C 284 280 309 234 344 193 Z M 1038 1182 L 430 131 C 453 122 476 115 500 111 C 523 106 549 104 578 104 C 660 104 734 124 800 165 C 866 206 925 268 979 352 C 1023 424 1059 507 1085 599 C 1111 691 1124 781 1124 870 C 1124 936 1117 994 1103 1044 C 1089 1094 1068 1140 1038 1182 Z" unicode="Ø" />
<glyph horiz-adv-x="1307" d="M 330 1393 L 489 1393 L 317 512 C 310 474 305 439 302 408 C 298 377 297 347 297 317 C 297 241 317 186 358 152 C 399 118 466 102 559 102 C 673 102 757 131 811 190 C 865 249 908 357 940 514 L 1110 1393 L 1266 1393 L 1100 539 C 1076 418 1051 325 1023 261 C 995 197 958 142 911 98 C 864 55 810 24 750 4 C 690 -15 615 -25 526 -25 C 439 -25 369 -15 316 4 C 263 23 220 55 188 100 C 170 126 156 154 147 186 C 137 217 133 252 133 291 C 133 322 135 358 140 398 C 145 438 153 485 164 539 L 330 1393 Z M 945 1470 L 773 1470 L 509 1669 L 509 1679 L 763 1679 L 945 1481 L 945 1470 Z" unicode="Ù" />
<glyph horiz-adv-x="1307" d="M 330 1393 L 489 1393 L 317 512 C 310 474 305 439 302 408 C 298 377 297 347 297 317 C 297 241 317 186 358 152 C 399 118 466 102 559 102 C 673 102 757 131 811 190 C 865 249 908 357 940 514 L 1110 1393 L 1266 1393 L 1100 539 C 1076 418 1051 325 1023 261 C 995 197 958 142 911 98 C 864 55 810 24 750 4 C 690 -15 615 -25 526 -25 C 439 -25 369 -15 316 4 C 263 23 220 55 188 100 C 170 126 156 154 147 186 C 137 217 133 252 133 291 C 133 322 135 358 140 398 C 145 438 153 485 164 539 L 330 1393 Z M 685 1470 L 685 1481 L 868 1679 L 1121 1679 L 1121 1669 L 851 1470 L 685 1470 Z" unicode="Ú" />
<glyph horiz-adv-x="1307" d="M 330 1393 L 489 1393 L 317 512 C 310 474 305 439 302 408 C 298 377 297 347 297 317 C 297 241 317 186 358 152 C 399 118 466 102 559 102 C 673 102 757 131 811 190 C 865 249 908 357 940 514 L 1110 1393 L 1266 1393 L 1100 539 C 1076 418 1051 325 1023 261 C 995 197 958 142 911 98 C 864 55 810 24 750 4 C 690 -15 615 -25 526 -25 C 439 -25 369 -15 316 4 C 263 23 220 55 188 100 C 170 126 156 154 147 186 C 137 217 133 252 133 291 C 133 322 135 358 140 398 C 145 438 153 485 164 539 L 330 1393 Z M 674 1477 L 524 1477 L 524 1485 L 825 1767 L 1079 1485 L 1079 1477 L 915 1477 L 803 1593 L 674 1477 Z" unicode="Û" />
<glyph horiz-adv-x="1307" d="M 330 1393 L 489 1393 L 317 512 C 310 474 305 439 302 408 C 298 377 297 347 297 317 C 297 241 317 186 358 152 C 399 118 466 102 559 102 C 673 102 757 131 811 190 C 865 249 908 357 940 514 L 1110 1393 L 1266 1393 L 1100 539 C 1076 418 1051 325 1023 261 C 995 197 958 142 911 98 C 864 55 810 24 750 4 C 690 -15 615 -25 526 -25 C 439 -25 369 -15 316 4 C 263 23 220 55 188 100 C 170 126 156 154 147 186 C 137 217 133 252 133 291 C 133 322 135 358 140 398 C 145 438 153 485 164 539 L 330 1393 Z M 604 1688 C 636 1688 664 1676 687 1653 C 709 1630 721 1602 721 1569 C 721 1535 709 1506 687 1484 C 664 1461 636 1450 602 1450 C 568 1450 539 1461 517 1484 C 494 1506 483 1535 483 1569 C 483 1602 494 1630 517 1653 C 540 1676 569 1688 604 1688 Z M 1048 1688 C 1080 1688 1108 1676 1131 1653 C 1153 1630 1165 1602 1165 1569 C 1165 1535 1153 1506 1131 1484 C 1108 1461 1080 1450 1046 1450 C 1012 1450 983 1461 961 1484 C 938 1506 927 1535 927 1569 C 927 1602 938 1630 961 1653 C 984 1676 1013 1688 1048 1688 Z" unicode="Ü" />
<glyph horiz-adv-x="973" d="M 444 0 L 285 0 L 389 532 L 152 1393 L 322 1393 L 496 694 L 938 1393 L 1114 1393 L 549 532 L 444 0 Z M 536 1470 L 536 1481 L 719 1679 L 972 1679 L 972 1669 L 702 1470 L 536 1470 Z" unicode="Ý" />
<glyph horiz-adv-x="1130" d="M 258 0 L 102 0 L 373 1393 L 528 1393 L 483 1161 L 612 1161 C 711 1161 787 1155 839 1143 C 891 1131 935 1109 969 1079 C 997 1052 1019 1017 1035 975 C 1051 933 1059 886 1059 836 C 1059 753 1040 677 1004 607 C 968 537 918 480 854 436 C 807 404 758 382 706 369 C 654 356 587 350 506 350 L 328 350 L 258 0 Z M 350 471 L 528 471 C 602 471 663 480 710 499 C 756 518 795 549 827 592 C 849 621 868 659 882 706 C 896 753 903 800 903 846 C 903 914 882 963 840 993 C 798 1023 731 1038 639 1038 L 461 1038 L 350 471 Z" unicode="Þ" />
<glyph horiz-adv-x="1053" d="M 166 0 L 16 0 L 219 1049 C 249 1203 302 1316 377 1388 C 452 1460 554 1497 684 1497 C 776 1497 845 1476 890 1434 C 935 1392 958 1327 958 1241 C 958 1175 942 1112 910 1052 C 878 992 833 943 776 905 L 670 834 L 670 819 C 762 812 827 787 865 745 C 903 702 922 631 922 532 C 922 448 903 368 867 290 C 831 212 782 149 721 100 C 676 64 626 38 572 22 C 517 6 452 -2 377 -2 C 368 -2 357 -1 345 -1 C 332 -1 317 0 301 0 L 324 119 C 338 118 350 117 362 117 C 373 117 382 117 389 117 C 453 117 506 125 550 143 C 594 160 631 187 662 225 C 696 267 723 317 743 377 C 763 437 774 497 774 557 C 774 616 758 660 726 690 C 694 720 646 735 582 735 C 570 735 554 734 534 733 C 514 732 493 731 473 731 L 494 834 C 602 878 681 933 733 998 C 785 1062 811 1140 811 1231 C 811 1285 799 1324 776 1348 C 753 1372 716 1384 666 1384 C 582 1384 518 1356 472 1300 C 426 1244 390 1149 365 1016 L 166 0 Z" unicode="ß" />
<glyph horiz-adv-x="1085" d="M 784 0 L 641 0 L 684 213 L 670 213 L 596 121 C 557 71 516 34 473 11 C 429 -11 380 -23 326 -23 C 230 -23 158 8 109 70 C 59 132 35 222 35 342 C 35 527 88 685 194 817 C 300 948 428 1014 580 1014 C 630 1014 672 1006 707 992 C 741 977 778 951 817 915 L 829 991 L 977 991 L 784 0 Z M 582 891 C 516 891 460 877 412 849 C 364 821 323 778 287 719 C 257 672 232 611 213 537 C 193 463 184 393 184 328 C 184 254 199 197 229 157 C 259 116 301 96 354 96 C 390 96 422 104 452 122 C 482 140 516 170 555 213 C 624 292 679 379 719 475 C 759 570 780 660 780 745 C 780 796 764 833 733 856 C 701 879 651 891 582 891 Z M 698 1120 L 546 1120 L 370 1397 L 370 1405 L 561 1405 L 698 1120 Z" unicode="à" />
<glyph horiz-adv-x="1085" d="M 784 0 L 641 0 L 684 213 L 670 213 L 596 121 C 557 71 516 34 473 11 C 429 -11 380 -23 326 -23 C 230 -23 158 8 109 70 C 59 132 35 222 35 342 C 35 527 88 685 194 817 C 300 948 428 1014 580 1014 C 630 1014 672 1006 707 992 C 741 977 778 951 817 915 L 829 991 L 977 991 L 784 0 Z M 582 891 C 516 891 460 877 412 849 C 364 821 323 778 287 719 C 257 672 232 611 213 537 C 193 463 184 393 184 328 C 184 254 199 197 229 157 C 259 116 301 96 354 96 C 390 96 422 104 452 122 C 482 140 516 170 555 213 C 624 292 679 379 719 475 C 759 570 780 660 780 745 C 780 796 764 833 733 856 C 701 879 651 891 582 891 Z M 493 1120 L 682 1405 L 874 1405 L 874 1397 L 639 1120 L 493 1120 Z" unicode="á" />
<glyph horiz-adv-x="1085" d="M 784 0 L 641 0 L 684 213 L 670 213 L 596 121 C 557 71 516 34 473 11 C 429 -11 380 -23 326 -23 C 230 -23 158 8 109 70 C 59 132 35 222 35 342 C 35 527 88 685 194 817 C 300 948 428 1014 580 1014 C 630 1014 672 1006 707 992 C 741 977 778 951 817 915 L 829 991 L 977 991 L 784 0 Z M 582 891 C 516 891 460 877 412 849 C 364 821 323 778 287 719 C 257 672 232 611 213 537 C 193 463 184 393 184 328 C 184 254 199 197 229 157 C 259 116 301 96 354 96 C 390 96 422 104 452 122 C 482 140 516 170 555 213 C 624 292 679 379 719 475 C 759 570 780 660 780 745 C 780 796 764 833 733 856 C 701 879 651 891 582 891 Z M 468 1120 L 337 1120 L 337 1128 L 630 1462 L 866 1128 L 866 1120 L 724 1120 L 608 1270 L 468 1120 Z" unicode="â" />
<glyph horiz-adv-x="1085" d="M 784 0 L 641 0 L 684 213 L 670 213 L 596 121 C 557 71 516 34 473 11 C 429 -11 380 -23 326 -23 C 230 -23 158 8 109 70 C 59 132 35 222 35 342 C 35 527 88 685 194 817 C 300 948 428 1014 580 1014 C 630 1014 672 1006 707 992 C 741 977 778 951 817 915 L 829 991 L 977 991 L 784 0 Z M 582 891 C 516 891 460 877 412 849 C 364 821 323 778 287 719 C 257 672 232 611 213 537 C 193 463 184 393 184 328 C 184 254 199 197 229 157 C 259 116 301 96 354 96 C 390 96 422 104 452 122 C 482 140 516 170 555 213 C 624 292 679 379 719 475 C 759 570 780 660 780 745 C 780 796 764 833 733 856 C 701 879 651 891 582 891 Z M 382 1139 L 308 1208 C 331 1270 358 1316 388 1346 C 418 1376 453 1391 493 1391 C 519 1391 544 1386 567 1377 C 590 1367 627 1348 677 1319 C 695 1307 712 1299 726 1295 C 740 1290 753 1288 767 1288 C 791 1288 811 1295 825 1311 C 839 1326 856 1358 878 1407 L 951 1339 C 932 1282 907 1238 876 1207 C 844 1176 809 1161 769 1161 C 746 1161 722 1166 696 1176 C 670 1186 641 1201 607 1223 C 582 1237 562 1248 548 1254 C 534 1260 519 1264 505 1264 C 478 1264 455 1254 436 1235 C 417 1215 399 1183 382 1139 Z" unicode="ã" />
<glyph horiz-adv-x="1085" d="M 784 0 L 641 0 L 684 213 L 670 213 L 596 121 C 557 71 516 34 473 11 C 429 -11 380 -23 326 -23 C 230 -23 158 8 109 70 C 59 132 35 222 35 342 C 35 527 88 685 194 817 C 300 948 428 1014 580 1014 C 630 1014 672 1006 707 992 C 741 977 778 951 817 915 L 829 991 L 977 991 L 784 0 Z M 582 891 C 516 891 460 877 412 849 C 364 821 323 778 287 719 C 257 672 232 611 213 537 C 193 463 184 393 184 328 C 184 254 199 197 229 157 C 259 116 301 96 354 96 C 390 96 422 104 452 122 C 482 140 516 170 555 213 C 624 292 679 379 719 475 C 759 570 780 660 780 745 C 780 796 764 833 733 856 C 701 879 651 891 582 891 Z M 432 1393 C 462 1393 488 1382 508 1361 C 528 1340 538 1314 538 1284 C 538 1253 528 1228 508 1208 C 488 1188 462 1178 432 1178 C 401 1178 375 1188 354 1209 C 333 1229 323 1254 323 1284 C 323 1316 333 1342 354 1362 C 375 1382 401 1393 432 1393 Z M 870 1393 C 900 1393 926 1382 946 1361 C 966 1340 976 1314 976 1284 C 976 1253 966 1228 946 1208 C 926 1188 900 1178 870 1178 C 839 1178 813 1188 792 1209 C 771 1229 761 1254 761 1284 C 761 1316 771 1342 792 1362 C 813 1382 839 1393 870 1393 Z" unicode="ä" />
<glyph horiz-adv-x="1085" d="M 784 0 L 641 0 L 684 213 L 670 213 L 596 121 C 557 71 516 34 473 11 C 429 -11 380 -23 326 -23 C 230 -23 158 8 109 70 C 59 132 35 222 35 342 C 35 527 88 685 194 817 C 300 948 428 1014 580 1014 C 630 1014 672 1006 707 992 C 741 977 778 951 817 915 L 829 991 L 977 991 L 784 0 Z M 582 891 C 516 891 460 877 412 849 C 364 821 323 778 287 719 C 257 672 232 611 213 537 C 193 463 184 393 184 328 C 184 254 199 197 229 157 C 259 116 301 96 354 96 C 390 96 422 104 452 122 C 482 140 516 170 555 213 C 624 292 679 379 719 475 C 759 570 780 660 780 745 C 780 796 764 833 733 856 C 701 879 651 891 582 891 Z M 618 1454 C 676 1454 723 1437 761 1403 C 798 1369 817 1326 817 1274 C 817 1220 798 1176 761 1142 C 723 1108 675 1092 616 1092 C 556 1092 507 1108 469 1142 C 431 1176 413 1220 413 1274 C 413 1328 432 1371 470 1404 C 508 1437 558 1454 618 1454 Z M 614 1360 C 587 1360 566 1352 550 1336 C 534 1320 526 1299 526 1272 C 526 1245 533 1224 549 1209 C 565 1193 587 1186 616 1186 C 644 1186 666 1193 682 1209 C 698 1225 706 1246 706 1274 C 706 1300 697 1321 681 1337 C 665 1352 642 1360 614 1360 Z" unicode="å" />
<glyph horiz-adv-x="1542" d="M 1296 254 L 1360 176 C 1308 112 1252 64 1190 32 C 1128 0 1059 -16 985 -16 C 911 -16 851 -1 804 29 C 756 59 716 108 682 176 L 666 176 C 604 102 547 52 493 25 C 439 -2 371 -16 289 -16 C 197 -16 129 3 85 43 C 41 82 20 144 20 229 C 20 343 61 433 144 498 C 227 563 341 596 485 596 L 682 596 L 700 694 C 702 707 704 720 705 732 C 706 744 707 757 707 770 C 707 812 694 844 669 866 C 643 888 607 899 559 899 C 501 899 448 889 398 869 C 348 849 296 816 242 772 L 176 860 C 234 913 298 953 369 980 C 440 1006 516 1020 598 1020 C 673 1020 729 1005 767 977 C 805 948 825 904 827 844 L 836 844 C 884 902 938 945 998 974 C 1058 1003 1124 1018 1196 1018 C 1277 1018 1343 995 1394 951 C 1444 907 1470 849 1470 778 C 1470 736 1459 696 1437 660 C 1415 624 1386 593 1348 569 C 1324 554 1289 541 1243 530 C 1197 518 1144 510 1085 504 C 1069 502 1040 499 1000 497 C 959 494 893 490 803 485 C 797 454 792 427 789 405 C 785 382 784 359 784 336 C 784 258 802 200 840 160 C 878 120 932 100 1004 100 C 1064 100 1117 111 1163 135 C 1209 159 1253 198 1296 254 Z M 662 487 L 498 487 C 434 487 385 483 349 475 C 313 467 283 453 258 434 C 229 413 206 384 189 347 C 172 310 164 271 164 231 C 164 184 177 150 203 128 C 229 106 270 96 326 96 C 406 96 473 121 529 171 C 585 221 621 290 639 379 L 662 487 Z M 827 594 C 1023 594 1155 605 1223 627 C 1291 649 1325 692 1325 754 C 1325 802 1311 838 1284 863 C 1256 888 1217 901 1165 901 C 1082 901 1014 877 961 829 C 908 781 863 702 827 594 Z" unicode="æ" />
<glyph horiz-adv-x="852" d="M 827 922 L 752 821 C 719 846 689 864 661 874 C 633 884 599 889 561 889 C 510 889 464 879 424 859 C 384 839 349 810 319 770 C 281 718 249 651 224 570 C 198 489 186 411 186 336 C 186 254 201 194 231 155 C 261 115 309 96 373 96 C 429 96 479 108 522 132 C 564 156 608 198 653 258 L 717 180 C 665 110 609 59 549 26 C 489 -6 420 -23 344 -23 C 242 -23 164 8 112 72 C 59 136 33 228 33 350 C 33 532 85 689 190 820 C 294 950 420 1016 567 1016 C 609 1016 650 1009 692 997 C 733 985 766 969 791 950 L 827 922 Z M 166 -233 L 129 -137 C 162 -109 193 -90 223 -79 C 253 -68 287 -63 325 -63 C 384 -63 430 -79 464 -113 C 497 -146 514 -192 514 -252 C 514 -316 495 -366 457 -403 C 419 -440 366 -459 299 -459 C 259 -459 224 -453 196 -442 C 167 -431 136 -412 102 -385 L 151 -289 C 172 -314 192 -331 212 -341 C 232 -351 256 -356 285 -356 C 318 -356 344 -347 363 -329 C 381 -311 391 -287 391 -256 C 391 -226 383 -204 369 -189 C 355 -173 334 -166 307 -166 C 278 -166 253 -171 232 -181 C 211 -191 189 -208 166 -233 Z" unicode="ç" />
<glyph horiz-adv-x="954" d="M 700 242 L 766 164 C 712 98 653 49 590 19 C 526 -11 453 -27 371 -27 C 259 -27 174 5 116 71 C 58 137 29 232 29 358 C 29 451 47 544 84 637 C 121 730 171 808 233 872 C 281 920 335 956 396 981 C 457 1005 524 1018 596 1018 C 677 1018 744 995 796 951 C 848 906 874 848 874 778 C 874 731 860 688 832 648 C 804 608 765 577 717 555 C 674 536 630 524 586 518 C 541 512 413 502 201 487 C 194 459 189 435 187 415 C 185 394 184 372 184 350 C 184 261 202 195 238 153 C 274 111 331 90 408 90 C 466 90 518 102 564 126 C 610 150 656 188 700 242 Z M 229 600 L 397 606 C 524 610 610 622 656 643 C 702 664 725 702 725 756 C 725 802 711 838 683 862 C 655 886 614 899 561 899 C 480 899 413 874 359 826 C 305 777 261 702 229 600 Z M 655 1120 L 503 1120 L 327 1397 L 327 1405 L 518 1405 L 655 1120 Z" unicode="è" />
<glyph horiz-adv-x="954" d="M 700 242 L 766 164 C 712 98 653 49 590 19 C 526 -11 453 -27 371 -27 C 259 -27 174 5 116 71 C 58 137 29 232 29 358 C 29 451 47 544 84 637 C 121 730 171 808 233 872 C 281 920 335 956 396 981 C 457 1005 524 1018 596 1018 C 677 1018 744 995 796 951 C 848 906 874 848 874 778 C 874 731 860 688 832 648 C 804 608 765 577 717 555 C 674 536 630 524 586 518 C 541 512 413 502 201 487 C 194 459 189 435 187 415 C 185 394 184 372 184 350 C 184 261 202 195 238 153 C 274 111 331 90 408 90 C 466 90 518 102 564 126 C 610 150 656 188 700 242 Z M 229 600 L 397 606 C 524 610 610 622 656 643 C 702 664 725 702 725 756 C 725 802 711 838 683 862 C 655 886 614 899 561 899 C 480 899 413 874 359 826 C 305 777 261 702 229 600 Z M 438 1120 L 627 1405 L 819 1405 L 819 1397 L 584 1120 L 438 1120 Z" unicode="é" />
<glyph horiz-adv-x="954" d="M 700 242 L 766 164 C 712 98 653 49 590 19 C 526 -11 453 -27 371 -27 C 259 -27 174 5 116 71 C 58 137 29 232 29 358 C 29 451 47 544 84 637 C 121 730 171 808 233 872 C 281 920 335 956 396 981 C 457 1005 524 1018 596 1018 C 677 1018 744 995 796 951 C 848 906 874 848 874 778 C 874 731 860 688 832 648 C 804 608 765 577 717 555 C 674 536 630 524 586 518 C 541 512 413 502 201 487 C 194 459 189 435 187 415 C 185 394 184 372 184 350 C 184 261 202 195 238 153 C 274 111 331 90 408 90 C 466 90 518 102 564 126 C 610 150 656 188 700 242 Z M 229 600 L 397 606 C 524 610 610 622 656 643 C 702 664 725 702 725 756 C 725 802 711 838 683 862 C 655 886 614 899 561 899 C 480 899 413 874 359 826 C 305 777 261 702 229 600 Z M 454 1120 L 323 1120 L 323 1128 L 616 1462 L 852 1128 L 852 1120 L 710 1120 L 594 1270 L 454 1120 Z" unicode="ê" />
<glyph horiz-adv-x="954" d="M 700 242 L 766 164 C 712 98 653 49 590 19 C 526 -11 453 -27 371 -27 C 259 -27 174 5 116 71 C 58 137 29 232 29 358 C 29 451 47 544 84 637 C 121 730 171 808 233 872 C 281 920 335 956 396 981 C 457 1005 524 1018 596 1018 C 677 1018 744 995 796 951 C 848 906 874 848 874 778 C 874 731 860 688 832 648 C 804 608 765 577 717 555 C 674 536 630 524 586 518 C 541 512 413 502 201 487 C 194 459 189 435 187 415 C 185 394 184 372 184 350 C 184 261 202 195 238 153 C 274 111 331 90 408 90 C 466 90 518 102 564 126 C 610 150 656 188 700 242 Z M 229 600 L 397 606 C 524 610 610 622 656 643 C 702 664 725 702 725 756 C 725 802 711 838 683 862 C 655 886 614 899 561 899 C 480 899 413 874 359 826 C 305 777 261 702 229 600 Z M 420 1393 C 450 1393 476 1382 496 1361 C 516 1340 526 1314 526 1284 C 526 1253 516 1228 496 1208 C 476 1188 450 1178 420 1178 C 389 1178 363 1188 342 1209 C 321 1229 311 1254 311 1284 C 311 1316 321 1342 342 1362 C 363 1382 389 1393 420 1393 Z M 757 1393 C 787 1393 813 1382 833 1361 C 853 1340 863 1314 863 1284 C 863 1253 853 1228 833 1208 C 813 1188 787 1178 757 1178 C 726 1178 700 1188 679 1209 C 658 1229 648 1254 648 1284 C 648 1316 658 1342 679 1362 C 700 1382 726 1393 757 1393 Z" unicode="ë" />
<glyph horiz-adv-x="500" d="M 182 0 L 31 0 L 223 991 L 375 991 L 182 0 Z M 434 1120 L 282 1120 L 106 1397 L 106 1405 L 297 1405 L 434 1120 Z" unicode="ì" />
<glyph horiz-adv-x="500" d="M 182 0 L 31 0 L 223 991 L 375 991 L 182 0 Z M 175 1120 L 364 1405 L 556 1405 L 556 1397 L 321 1120 L 175 1120 Z" unicode="í" />
<glyph horiz-adv-x="500" d="M 182 0 L 31 0 L 223 991 L 375 991 L 182 0 Z M 197 1120 L 66 1120 L 66 1128 L 359 1462 L 595 1128 L 595 1120 L 453 1120 L 337 1270 L 197 1120 Z" unicode="î" />
<glyph horiz-adv-x="500" d="M 182 0 L 31 0 L 223 991 L 375 991 L 182 0 Z M 193 1393 C 223 1393 249 1382 269 1361 C 289 1340 299 1314 299 1284 C 299 1253 289 1228 269 1208 C 249 1188 223 1178 193 1178 C 162 1178 136 1188 115 1209 C 94 1229 84 1254 84 1284 C 84 1316 94 1342 115 1362 C 136 1382 162 1393 193 1393 Z M 473 1393 C 503 1393 529 1382 549 1361 C 569 1340 579 1314 579 1284 C 579 1253 569 1228 549 1208 C 529 1188 503 1178 473 1178 C 442 1178 416 1188 395 1209 C 374 1229 364 1254 364 1284 C 364 1316 374 1342 395 1362 C 416 1382 442 1393 473 1393 Z" unicode="ï" />
<glyph horiz-adv-x="1034" d="M 545 1010 L 545 1022 L 391 1198 L 160 1092 L 113 1190 L 322 1282 L 201 1417 L 336 1485 L 453 1350 L 676 1454 L 723 1354 L 526 1266 L 705 1063 C 782 974 835 899 865 839 C 894 778 909 713 909 643 C 909 547 891 452 857 358 C 823 263 776 184 717 121 C 671 72 618 35 560 10 C 501 -14 437 -27 367 -27 C 252 -27 165 6 107 72 C 49 138 20 236 20 365 C 20 477 45 584 95 686 C 145 788 211 868 295 926 C 335 953 373 973 411 986 C 448 999 493 1007 545 1010 Z M 543 897 C 483 897 430 882 384 854 C 338 825 298 781 264 721 C 234 671 211 612 194 545 C 176 477 168 412 168 348 C 168 264 186 201 222 157 C 258 113 311 92 381 92 C 453 92 515 112 568 152 C 620 192 663 253 696 334 C 714 378 729 425 741 475 C 752 525 758 569 758 608 C 758 707 740 780 705 827 C 670 873 616 897 543 897 Z" unicode="ð" />
<glyph horiz-adv-x="1083" d="M 170 0 L 20 0 L 213 991 L 362 991 L 315 778 L 330 778 L 418 877 C 458 921 502 955 548 979 C 594 1002 642 1014 692 1014 C 767 1014 824 994 863 954 C 902 914 922 855 922 778 C 922 755 920 732 918 710 C 916 687 912 664 907 641 L 784 0 L 633 0 L 754 614 C 758 642 762 666 764 687 C 766 708 768 728 768 748 C 768 800 759 836 741 856 C 723 876 691 887 647 887 C 604 887 562 872 521 843 C 480 814 437 769 391 709 C 357 663 327 610 301 552 C 274 493 256 439 246 389 L 170 0 Z M 372 1139 L 298 1208 C 321 1270 348 1316 378 1346 C 408 1376 443 1391 483 1391 C 509 1391 534 1386 557 1377 C 580 1367 617 1348 667 1319 C 685 1307 702 1299 716 1295 C 730 1290 743 1288 757 1288 C 781 1288 801 1295 815 1311 C 829 1326 846 1358 868 1407 L 941 1339 C 922 1282 897 1238 866 1207 C 834 1176 799 1161 759 1161 C 736 1161 712 1166 686 1176 C 660 1186 631 1201 597 1223 C 572 1237 552 1248 538 1254 C 524 1260 509 1264 495 1264 C 468 1264 445 1254 426 1235 C 407 1215 389 1183 372 1139 Z" unicode="ñ" />
<glyph horiz-adv-x="1034" d="M 586 1018 C 688 1018 768 984 826 916 C 884 848 913 753 913 631 C 913 540 895 448 860 354 C 825 260 779 183 721 121 C 675 72 623 35 565 10 C 507 -14 442 -27 371 -27 C 256 -27 170 6 112 72 C 54 138 25 237 25 367 C 25 460 43 553 80 645 C 116 737 165 813 225 872 C 276 921 331 958 391 982 C 450 1006 515 1018 586 1018 Z M 547 895 C 487 895 434 880 388 852 C 342 824 302 780 268 721 C 238 671 215 612 198 545 C 180 477 172 412 172 348 C 172 264 190 201 226 157 C 262 113 315 92 385 92 C 457 92 519 112 572 152 C 624 192 667 252 700 332 C 718 376 733 424 745 474 C 756 524 762 568 762 606 C 762 705 744 778 709 825 C 674 871 620 895 547 895 Z M 645 1120 L 493 1120 L 317 1397 L 317 1405 L 508 1405 L 645 1120 Z" unicode="ò" />
<glyph horiz-adv-x="1034" d="M 586 1018 C 688 1018 768 984 826 916 C 884 848 913 753 913 631 C 913 540 895 448 860 354 C 825 260 779 183 721 121 C 675 72 623 35 565 10 C 507 -14 442 -27 371 -27 C 256 -27 170 6 112 72 C 54 138 25 237 25 367 C 25 460 43 553 80 645 C 116 737 165 813 225 872 C 276 921 331 958 391 982 C 450 1006 515 1018 586 1018 Z M 547 895 C 487 895 434 880 388 852 C 342 824 302 780 268 721 C 238 671 215 612 198 545 C 180 477 172 412 172 348 C 172 264 190 201 226 157 C 262 113 315 92 385 92 C 457 92 519 112 572 152 C 624 192 667 252 700 332 C 718 376 733 424 745 474 C 756 524 762 568 762 606 C 762 705 744 778 709 825 C 674 871 620 895 547 895 Z M 495 1120 L 684 1405 L 876 1405 L 876 1397 L 641 1120 L 495 1120 Z" unicode="ó" />
<glyph horiz-adv-x="1034" d="M 586 1018 C 688 1018 768 984 826 916 C 884 848 913 753 913 631 C 913 540 895 448 860 354 C 825 260 779 183 721 121 C 675 72 623 35 565 10 C 507 -14 442 -27 371 -27 C 256 -27 170 6 112 72 C 54 138 25 237 25 367 C 25 460 43 553 80 645 C 116 737 165 813 225 872 C 276 921 331 958 391 982 C 450 1006 515 1018 586 1018 Z M 547 895 C 487 895 434 880 388 852 C 342 824 302 780 268 721 C 238 671 215 612 198 545 C 180 477 172 412 172 348 C 172 264 190 201 226 157 C 262 113 315 92 385 92 C 457 92 519 112 572 152 C 624 192 667 252 700 332 C 718 376 733 424 745 474 C 756 524 762 568 762 606 C 762 705 744 778 709 825 C 674 871 620 895 547 895 Z M 470 1120 L 339 1120 L 339 1128 L 632 1462 L 868 1128 L 868 1120 L 726 1120 L 610 1270 L 470 1120 Z" unicode="ô" />
<glyph horiz-adv-x="1034" d="M 586 1018 C 688 1018 768 984 826 916 C 884 848 913 753 913 631 C 913 540 895 448 860 354 C 825 260 779 183 721 121 C 675 72 623 35 565 10 C 507 -14 442 -27 371 -27 C 256 -27 170 6 112 72 C 54 138 25 237 25 367 C 25 460 43 553 80 645 C 116 737 165 813 225 872 C 276 921 331 958 391 982 C 450 1006 515 1018 586 1018 Z M 547 895 C 487 895 434 880 388 852 C 342 824 302 780 268 721 C 238 671 215 612 198 545 C 180 477 172 412 172 348 C 172 264 190 201 226 157 C 262 113 315 92 385 92 C 457 92 519 112 572 152 C 624 192 667 252 700 332 C 718 376 733 424 745 474 C 756 524 762 568 762 606 C 762 705 744 778 709 825 C 674 871 620 895 547 895 Z M 364 1139 L 290 1208 C 313 1270 340 1316 370 1346 C 400 1376 435 1391 475 1391 C 501 1391 526 1386 549 1377 C 572 1367 609 1348 659 1319 C 677 1307 694 1299 708 1295 C 722 1290 735 1288 749 1288 C 773 1288 793 1295 807 1311 C 821 1326 838 1358 860 1407 L 933 1339 C 914 1282 889 1238 858 1207 C 826 1176 791 1161 751 1161 C 728 1161 704 1166 678 1176 C 652 1186 623 1201 589 1223 C 564 1237 544 1248 530 1254 C 516 1260 501 1264 487 1264 C 460 1264 437 1254 418 1235 C 399 1215 381 1183 364 1139 Z" unicode="õ" />
<glyph horiz-adv-x="1034" d="M 586 1018 C 688 1018 768 984 826 916 C 884 848 913 753 913 631 C 913 540 895 448 860 354 C 825 260 779 183 721 121 C 675 72 623 35 565 10 C 507 -14 442 -27 371 -27 C 256 -27 170 6 112 72 C 54 138 25 237 25 367 C 25 460 43 553 80 645 C 116 737 165 813 225 872 C 276 921 331 958 391 982 C 450 1006 515 1018 586 1018 Z M 547 895 C 487 895 434 880 388 852 C 342 824 302 780 268 721 C 238 671 215 612 198 545 C 180 477 172 412 172 348 C 172 264 190 201 226 157 C 262 113 315 92 385 92 C 457 92 519 112 572 152 C 624 192 667 252 700 332 C 718 376 733 424 745 474 C 756 524 762 568 762 606 C 762 705 744 778 709 825 C 674 871 620 895 547 895 Z M 393 1393 C 423 1393 449 1382 469 1361 C 489 1340 499 1314 499 1284 C 499 1253 489 1228 469 1208 C 449 1188 423 1178 393 1178 C 362 1178 336 1188 315 1209 C 294 1229 284 1254 284 1284 C 284 1316 294 1342 315 1362 C 336 1382 362 1393 393 1393 Z M 843 1393 C 873 1393 899 1382 919 1361 C 939 1340 949 1314 949 1284 C 949 1253 939 1228 919 1208 C 899 1188 873 1178 843 1178 C 812 1178 786 1188 765 1209 C 744 1229 734 1254 734 1284 C 734 1316 744 1342 765 1362 C 786 1382 812 1393 843 1393 Z" unicode="ö" />
<glyph horiz-adv-x="1069" d="M 457 414 C 492 414 522 401 547 377 C 571 352 584 322 584 287 C 584 250 571 219 546 195 C 521 170 491 158 455 158 C 419 158 388 170 364 194 C 340 218 328 249 328 285 C 328 321 340 351 365 376 C 389 401 420 414 457 414 Z M 614 1219 C 650 1219 680 1206 704 1182 C 728 1157 741 1127 741 1092 C 741 1055 728 1024 704 1000 C 679 975 648 963 612 963 C 576 963 546 975 522 999 C 497 1023 485 1054 485 1090 C 485 1126 497 1156 522 1181 C 547 1206 578 1219 614 1219 Z M 127 618 L 156 766 L 946 766 L 915 618 L 127 618 Z" unicode="÷" />
<glyph horiz-adv-x="1042" d="M 899 1108 L 799 950 C 839 916 869 872 889 818 C 909 764 920 702 920 633 C 920 541 902 449 867 356 C 832 262 786 185 729 123 C 681 71 628 33 570 9 C 512 -14 447 -27 375 -27 C 349 -27 327 -25 309 -23 C 290 -20 268 -15 244 -8 L 141 -184 L 43 -129 L 150 41 C 110 75 80 119 60 171 C 40 223 31 286 31 360 C 31 453 48 546 84 640 C 120 734 167 809 225 866 C 275 916 330 953 391 979 C 451 1005 516 1018 586 1018 C 609 1018 630 1016 648 1014 C 666 1011 685 1006 707 999 L 803 1163 L 899 1108 Z M 723 817 L 309 104 C 327 99 343 95 355 93 C 367 91 382 90 399 90 C 468 90 529 110 581 151 C 633 192 676 252 709 332 C 728 378 743 428 754 481 C 764 534 770 585 770 633 C 770 675 766 710 759 737 C 752 763 740 790 723 817 Z M 225 168 L 637 883 C 619 889 604 893 591 895 C 578 897 563 899 547 899 C 445 899 357 845 285 739 C 212 633 176 506 176 360 C 176 317 179 280 187 250 C 195 220 207 192 225 168 Z" unicode="ø" />
<glyph horiz-adv-x="1075" d="M 815 991 L 965 991 L 772 0 L 629 0 L 670 213 L 653 213 L 565 115 C 522 67 479 32 436 10 C 392 -12 345 -23 295 -23 C 218 -23 160 -3 121 37 C 82 77 63 135 63 213 C 63 235 64 259 66 283 C 68 307 72 329 76 350 L 201 991 L 352 991 L 231 377 C 226 351 222 328 220 306 C 218 284 217 262 217 242 C 217 192 225 156 243 135 C 261 114 291 104 334 104 C 378 104 420 118 462 147 C 503 175 547 221 594 283 C 628 327 658 378 684 435 C 710 491 728 547 739 602 L 815 991 Z M 690 1120 L 538 1120 L 362 1397 L 362 1405 L 553 1405 L 690 1120 Z" unicode="ù" />
<glyph horiz-adv-x="1075" d="M 815 991 L 965 991 L 772 0 L 629 0 L 670 213 L 653 213 L 565 115 C 522 67 479 32 436 10 C 392 -12 345 -23 295 -23 C 218 -23 160 -3 121 37 C 82 77 63 135 63 213 C 63 235 64 259 66 283 C 68 307 72 329 76 350 L 201 991 L 352 991 L 231 377 C 226 351 222 328 220 306 C 218 284 217 262 217 242 C 217 192 225 156 243 135 C 261 114 291 104 334 104 C 378 104 420 118 462 147 C 503 175 547 221 594 283 C 628 327 658 378 684 435 C 710 491 728 547 739 602 L 815 991 Z M 528 1120 L 717 1405 L 909 1405 L 909 1397 L 674 1120 L 528 1120 Z" unicode="ú" />
<glyph horiz-adv-x="1075" d="M 815 991 L 965 991 L 772 0 L 629 0 L 670 213 L 653 213 L 565 115 C 522 67 479 32 436 10 C 392 -12 345 -23 295 -23 C 218 -23 160 -3 121 37 C 82 77 63 135 63 213 C 63 235 64 259 66 283 C 68 307 72 329 76 350 L 201 991 L 352 991 L 231 377 C 226 351 222 328 220 306 C 218 284 217 262 217 242 C 217 192 225 156 243 135 C 261 114 291 104 334 104 C 378 104 420 118 462 147 C 503 175 547 221 594 283 C 628 327 658 378 684 435 C 710 491 728 547 739 602 L 815 991 Z M 474 1120 L 343 1120 L 343 1128 L 636 1462 L 872 1128 L 872 1120 L 730 1120 L 614 1270 L 474 1120 Z" unicode="û" />
<glyph horiz-adv-x="1075" d="M 815 991 L 965 991 L 772 0 L 629 0 L 670 213 L 653 213 L 565 115 C 522 67 479 32 436 10 C 392 -12 345 -23 295 -23 C 218 -23 160 -3 121 37 C 82 77 63 135 63 213 C 63 235 64 259 66 283 C 68 307 72 329 76 350 L 201 991 L 352 991 L 231 377 C 226 351 222 328 220 306 C 218 284 217 262 217 242 C 217 192 225 156 243 135 C 261 114 291 104 334 104 C 378 104 420 118 462 147 C 503 175 547 221 594 283 C 628 327 658 378 684 435 C 710 491 728 547 739 602 L 815 991 Z M 446 1393 C 476 1393 502 1382 522 1361 C 542 1340 552 1314 552 1284 C 552 1253 542 1228 522 1208 C 502 1188 476 1178 446 1178 C 415 1178 389 1188 368 1209 C 347 1229 337 1254 337 1284 C 337 1316 347 1342 368 1362 C 389 1382 415 1393 446 1393 Z M 835 1393 C 865 1393 891 1382 911 1361 C 931 1340 941 1314 941 1284 C 941 1253 931 1228 911 1208 C 891 1188 865 1178 835 1178 C 804 1178 778 1188 757 1209 C 736 1229 726 1254 726 1284 C 726 1316 736 1342 757 1362 C 778 1382 804 1393 835 1393 Z" unicode="ü" />
<glyph horiz-adv-x="887" d="M 86 991 L 238 991 L 356 178 L 575 590 C 623 677 655 744 673 792 C 691 840 700 884 700 924 C 700 936 699 946 698 956 C 697 965 696 977 694 991 L 848 991 C 852 976 855 964 857 955 C 859 945 860 936 860 928 C 860 893 849 850 827 800 C 805 750 761 667 696 553 L 449 113 C 427 71 406 30 384 -10 C 362 -50 342 -88 324 -125 C 252 -260 189 -356 135 -413 C 80 -469 18 -501 -51 -508 L -59 -371 C -30 -366 -5 -357 17 -345 C 39 -332 62 -312 88 -285 C 130 -241 165 -187 194 -125 C 223 -62 238 -7 238 39 C 238 47 236 59 234 75 C 232 90 229 108 227 129 L 86 991 Z M 413 1120 L 602 1405 L 794 1405 L 794 1397 L 559 1120 L 413 1120 Z" unicode="ý" />
<glyph horiz-adv-x="1085" d="M 78 -494 L -72 -494 L 313 1489 L 461 1489 L 313 784 L 330 784 L 406 877 C 443 921 485 955 531 979 C 577 1002 626 1014 678 1014 C 769 1014 839 982 888 920 C 936 857 961 766 961 647 C 961 458 913 301 819 177 C 724 52 605 -10 461 -10 C 405 -10 357 -2 317 12 C 277 27 235 54 193 92 L 78 -494 Z M 641 887 C 546 887 455 820 369 687 C 283 554 240 414 240 268 C 240 214 257 174 291 148 C 325 122 376 109 446 109 C 509 109 562 121 604 147 C 646 173 684 216 717 276 C 744 324 766 383 784 454 C 802 524 811 589 811 649 C 811 728 797 787 769 827 C 741 867 698 887 641 887 Z" unicode="þ" />
<glyph horiz-adv-x="887" d="M 86 991 L 238 991 L 356 178 L 575 590 C 623 677 655 744 673 792 C 691 840 700 884 700 924 C 700 936 699 946 698 956 C 697 965 696 977 694 991 L 848 991 C 852 976 855 964 857 955 C 859 945 860 936 860 928 C 860 893 849 850 827 800 C 805 750 761 667 696 553 L 449 113 C 427 71 406 30 384 -10 C 362 -50 342 -88 324 -125 C 252 -260 189 -356 135 -413 C 80 -469 18 -501 -51 -508 L -59 -371 C -30 -366 -5 -357 17 -345 C 39 -332 62 -312 88 -285 C 130 -241 165 -187 194 -125 C 223 -62 238 -7 238 39 C 238 47 236 59 234 75 C 232 90 229 108 227 129 L 86 991 Z M 311 1393 C 341 1393 367 1382 387 1361 C 407 1340 417 1314 417 1284 C 417 1253 407 1228 387 1208 C 367 1188 341 1178 311 1178 C 280 1178 254 1188 233 1209 C 212 1229 202 1254 202 1284 C 202 1316 212 1342 233 1362 C 254 1382 280 1393 311 1393 Z M 721 1393 C 751 1393 777 1382 797 1361 C 817 1340 827 1314 827 1284 C 827 1253 817 1228 797 1208 C 777 1188 751 1178 721 1178 C 690 1178 664 1188 643 1209 C 622 1229 612 1254 612 1284 C 612 1316 622 1342 643 1362 C 664 1382 690 1393 721 1393 Z" unicode="ÿ" />
<glyph horiz-adv-x="1161" d="M 94 0 L -74 0 L 641 1393 L 852 1393 L 969 0 L 813 0 L 780 430 L 305 430 L 94 0 Z M 717 1243 L 360 543 L 772 543 L 717 1243 Z M 485 1491 L 512 1630 L 1036 1630 L 1010 1491 L 485 1491 Z" unicode="Ā" />
<glyph horiz-adv-x="1085" d="M 784 0 L 641 0 L 684 213 L 670 213 L 596 121 C 557 71 516 34 473 11 C 429 -11 380 -23 326 -23 C 230 -23 158 8 109 70 C 59 132 35 222 35 342 C 35 527 88 685 194 817 C 300 948 428 1014 580 1014 C 630 1014 672 1006 707 992 C 741 977 778 951 817 915 L 829 991 L 977 991 L 784 0 Z M 582 891 C 516 891 460 877 412 849 C 364 821 323 778 287 719 C 257 672 232 611 213 537 C 193 463 184 393 184 328 C 184 254 199 197 229 157 C 259 116 301 96 354 96 C 390 96 422 104 452 122 C 482 140 516 170 555 213 C 624 292 679 379 719 475 C 759 570 780 660 780 745 C 780 796 764 833 733 856 C 701 879 651 891 582 891 Z M 356 1196 L 381 1321 L 905 1321 L 881 1196 L 356 1196 Z" unicode="ā" />
<glyph horiz-adv-x="1161" d="M 94 0 L -74 0 L 641 1393 L 852 1393 L 969 0 L 813 0 L 780 430 L 305 430 L 94 0 Z M 717 1243 L 360 543 L 772 543 L 717 1243 Z M 929 1763 L 1034 1716 C 1015 1627 983 1561 937 1517 C 891 1473 830 1452 755 1452 C 683 1452 626 1472 586 1514 C 546 1556 518 1623 503 1716 L 608 1763 C 624 1697 644 1650 670 1622 C 695 1593 727 1579 767 1579 C 805 1579 837 1593 863 1623 C 889 1653 911 1699 929 1763 Z" unicode="Ă" />
<glyph horiz-adv-x="1085" d="M 784 0 L 641 0 L 684 213 L 670 213 L 596 121 C 557 71 516 34 473 11 C 429 -11 380 -23 326 -23 C 230 -23 158 8 109 70 C 59 132 35 222 35 342 C 35 527 88 685 194 817 C 300 948 428 1014 580 1014 C 630 1014 672 1006 707 992 C 741 977 778 951 817 915 L 829 991 L 977 991 L 784 0 Z M 582 891 C 516 891 460 877 412 849 C 364 821 323 778 287 719 C 257 672 232 611 213 537 C 193 463 184 393 184 328 C 184 254 199 197 229 157 C 259 116 301 96 354 96 C 390 96 422 104 452 122 C 482 140 516 170 555 213 C 624 292 679 379 719 475 C 759 570 780 660 780 745 C 780 796 764 833 733 856 C 701 879 651 891 582 891 Z M 770 1421 L 872 1376 C 853 1294 820 1232 774 1190 C 727 1147 668 1126 596 1126 C 528 1126 475 1145 437 1185 C 399 1225 372 1288 358 1376 L 461 1421 C 477 1355 496 1310 520 1284 C 543 1258 576 1245 618 1245 C 654 1245 684 1259 708 1287 C 732 1315 753 1359 770 1421 Z" unicode="ă" />
<glyph horiz-adv-x="1161" d="M 969 0 L 895 0 C 817 -55 760 -103 724 -145 C 688 -186 670 -224 670 -258 C 670 -280 677 -297 691 -308 C 705 -318 727 -324 758 -324 C 788 -324 817 -320 843 -312 C 869 -304 899 -290 934 -270 L 952 -377 C 912 -398 871 -414 830 -426 C 788 -438 748 -444 709 -444 C 645 -444 597 -431 563 -406 C 529 -380 512 -343 512 -295 C 512 -243 532 -196 573 -156 C 613 -116 693 -64 813 0 L 780 430 L 305 430 L 94 0 L -74 0 L 641 1393 L 852 1393 L 969 0 Z M 717 1243 L 360 543 L 772 543 L 717 1243 Z" unicode="Ą" />
<glyph horiz-adv-x="1085" d="M 784 0 L 723 0 C 644 -56 587 -104 551 -145 C 515 -186 498 -224 498 -258 C 498 -280 505 -297 519 -308 C 533 -318 555 -324 586 -324 C 617 -324 646 -320 672 -312 C 698 -304 728 -290 762 -270 L 780 -377 C 741 -398 701 -414 659 -426 C 617 -438 576 -444 537 -444 C 473 -444 425 -431 391 -406 C 357 -380 340 -343 340 -295 C 340 -241 360 -195 400 -156 C 440 -117 521 -65 643 0 L 641 0 L 684 213 L 670 213 L 596 121 C 557 71 516 34 473 11 C 429 -11 380 -23 326 -23 C 230 -23 158 8 109 70 C 59 132 35 222 35 342 C 35 527 88 685 194 817 C 300 948 428 1014 580 1014 C 630 1014 672 1006 707 992 C 741 977 778 951 817 915 L 829 991 L 977 991 L 784 0 Z M 582 891 C 516 891 460 877 412 849 C 364 821 323 778 287 719 C 257 672 232 611 213 537 C 193 463 184 393 184 328 C 184 254 199 197 229 157 C 259 116 301 96 354 96 C 390 96 422 104 452 122 C 482 140 516 170 555 213 C 624 292 679 379 719 475 C 759 570 780 660 780 745 C 780 796 764 833 733 856 C 701 879 651 891 582 891 Z" unicode="ą" />
<glyph horiz-adv-x="1108" d="M 903 281 L 975 193 C 907 117 839 63 770 30 C 701 -3 623 -20 537 -20 C 394 -20 284 23 206 111 C 128 198 90 323 90 485 C 90 739 161 958 304 1140 C 446 1322 618 1413 819 1413 C 879 1413 934 1403 985 1384 C 1036 1365 1080 1338 1116 1303 L 1151 1268 L 1067 1163 L 1044 1188 C 1016 1217 982 1240 941 1257 C 900 1273 857 1282 811 1282 C 722 1282 642 1258 571 1212 C 500 1166 438 1096 385 1004 C 344 932 312 850 289 758 C 265 666 254 574 254 483 C 254 361 280 267 333 203 C 385 138 462 106 563 106 C 630 106 688 118 738 144 C 788 170 843 215 903 281 Z M 675 1470 L 675 1481 L 858 1679 L 1111 1679 L 1111 1669 L 841 1470 L 675 1470 Z" unicode="Ć" />
<glyph horiz-adv-x="852" d="M 827 922 L 752 821 C 719 846 689 864 661 874 C 633 884 599 889 561 889 C 510 889 464 879 424 859 C 384 839 349 810 319 770 C 281 718 249 651 224 570 C 198 489 186 411 186 336 C 186 254 201 194 231 155 C 261 115 309 96 373 96 C 429 96 479 108 522 132 C 564 156 608 198 653 258 L 717 180 C 665 110 609 59 549 26 C 489 -6 420 -23 344 -23 C 242 -23 164 8 112 72 C 59 136 33 228 33 350 C 33 532 85 689 190 820 C 294 950 420 1016 567 1016 C 609 1016 650 1009 692 997 C 733 985 766 969 791 950 L 827 922 Z M 444 1120 L 633 1405 L 825 1405 L 825 1397 L 590 1120 L 444 1120 Z" unicode="ć" />
<glyph horiz-adv-x="1108" d="M 903 281 L 975 193 C 907 117 839 63 770 30 C 701 -3 623 -20 537 -20 C 394 -20 284 23 206 111 C 128 198 90 323 90 485 C 90 739 161 958 304 1140 C 446 1322 618 1413 819 1413 C 879 1413 934 1403 985 1384 C 1036 1365 1080 1338 1116 1303 L 1151 1268 L 1067 1163 L 1044 1188 C 1016 1217 982 1240 941 1257 C 900 1273 857 1282 811 1282 C 722 1282 642 1258 571 1212 C 500 1166 438 1096 385 1004 C 344 932 312 850 289 758 C 265 666 254 574 254 483 C 254 361 280 267 333 203 C 385 138 462 106 563 106 C 630 106 688 118 738 144 C 788 170 843 215 903 281 Z M 927 1741 L 1074 1741 L 1074 1733 L 773 1450 L 519 1733 L 519 1741 L 683 1741 L 796 1610 L 927 1741 Z" unicode="Č" />
<glyph horiz-adv-x="852" d="M 827 922 L 752 821 C 719 846 689 864 661 874 C 633 884 599 889 561 889 C 510 889 464 879 424 859 C 384 839 349 810 319 770 C 281 718 249 651 224 570 C 198 489 186 411 186 336 C 186 254 201 194 231 155 C 261 115 309 96 373 96 C 429 96 479 108 522 132 C 564 156 608 198 653 258 L 717 180 C 665 110 609 59 549 26 C 489 -6 420 -23 344 -23 C 242 -23 164 8 112 72 C 59 136 33 228 33 350 C 33 532 85 689 190 820 C 294 950 420 1016 567 1016 C 609 1016 650 1009 692 997 C 733 985 766 969 791 950 L 827 922 Z M 713 1434 L 844 1434 L 844 1425 L 551 1092 L 315 1425 L 315 1434 L 457 1434 L 575 1270 L 713 1434 Z" unicode="č" />
<glyph horiz-adv-x="1329" d="M 270 123 L 455 123 C 587 123 693 146 773 193 C 853 240 919 317 971 424 C 1002 490 1026 560 1042 635 C 1058 709 1067 786 1067 866 C 1067 934 1060 993 1048 1043 C 1036 1093 1017 1134 993 1167 C 966 1203 928 1229 879 1245 C 829 1261 763 1270 680 1270 L 494 1270 L 270 123 Z M 90 0 L 360 1393 L 705 1393 C 890 1393 1023 1351 1105 1269 C 1186 1187 1227 1052 1227 866 C 1227 724 1202 590 1152 463 C 1102 335 1034 234 950 158 C 893 106 824 66 742 40 C 660 13 567 0 465 0 L 90 0 Z M 897 1741 L 1044 1741 L 1044 1733 L 743 1450 L 489 1733 L 489 1741 L 653 1741 L 766 1610 L 897 1741 Z" unicode="Ď" />
<glyph horiz-adv-x="1157" d="M 788 0 L 645 0 L 688 213 L 674 213 L 600 121 C 559 69 518 32 476 10 C 434 -12 384 -23 326 -23 C 232 -23 161 8 112 70 C 63 132 39 223 39 342 C 39 527 92 686 198 818 C 304 950 432 1016 582 1016 C 632 1016 674 1008 708 994 C 742 979 778 954 817 918 L 928 1489 L 1077 1489 L 788 0 Z M 586 893 C 520 893 464 879 417 851 C 369 823 327 780 291 721 C 261 673 236 612 217 538 C 197 464 188 394 188 328 C 188 255 203 198 233 157 C 263 116 305 96 358 96 C 394 96 426 104 456 122 C 486 140 520 171 559 215 C 628 293 683 381 723 477 C 763 573 784 663 784 748 C 784 798 768 834 737 858 C 705 881 655 893 586 893 Z M 1212 1393 L 1378 1393 L 1218 995 L 1099 1036 L 1212 1393 Z" unicode="ď" />
<glyph horiz-adv-x="1370" d="M 416 659 L 311 123 L 496 123 C 627 123 732 146 812 192 C 892 238 958 316 1012 424 C 1043 490 1067 560 1083 635 C 1099 709 1108 786 1108 866 C 1108 933 1101 992 1089 1042 C 1077 1092 1058 1134 1034 1167 C 1007 1203 969 1229 920 1245 C 870 1261 804 1270 721 1270 L 532 1270 L 438 784 L 756 784 L 731 659 L 416 659 Z M 258 659 L 78 659 L 102 784 L 283 784 L 401 1393 L 743 1393 C 928 1393 1062 1351 1144 1269 C 1226 1187 1268 1052 1268 866 C 1268 724 1243 590 1193 463 C 1143 335 1075 234 991 158 C 934 106 865 66 783 40 C 701 13 608 0 506 0 L 131 0 L 258 659 Z" unicode="Đ" />
<glyph horiz-adv-x="1090" d="M 870 1196 L 643 1196 L 666 1315 L 893 1315 L 928 1489 L 1077 1489 L 1044 1315 L 1192 1315 L 1167 1196 L 1020 1196 L 788 0 L 645 0 L 688 213 L 674 213 L 600 121 C 559 69 518 32 476 10 C 434 -12 384 -23 326 -23 C 232 -23 161 8 112 70 C 63 132 39 223 39 342 C 39 527 92 685 198 817 C 304 948 433 1014 584 1014 C 632 1014 673 1007 707 993 C 740 979 777 954 817 918 L 870 1196 Z M 586 891 C 520 891 464 877 417 849 C 369 821 327 778 291 719 C 261 672 236 611 217 537 C 197 463 188 393 188 328 C 188 254 203 197 233 157 C 263 116 305 96 358 96 C 394 96 426 104 456 122 C 486 140 520 170 559 213 C 628 292 683 379 723 475 C 763 570 784 660 784 745 C 784 796 768 833 737 856 C 705 879 655 891 586 891 Z" unicode="đ" />
<glyph horiz-adv-x="1055" d="M 90 0 L 360 1393 L 1018 1393 L 991 1264 L 496 1264 L 401 784 L 911 784 L 889 662 L 377 662 L 274 127 L 879 127 L 854 0 L 90 0 Z M 442 1491 L 469 1630 L 993 1630 L 967 1491 L 442 1491 Z" unicode="Ē" />
<glyph horiz-adv-x="954" d="M 700 242 L 766 164 C 712 98 653 49 590 19 C 526 -11 453 -27 371 -27 C 259 -27 174 5 116 71 C 58 137 29 232 29 358 C 29 451 47 544 84 637 C 121 730 171 808 233 872 C 281 920 335 956 396 981 C 457 1005 524 1018 596 1018 C 677 1018 744 995 796 951 C 848 906 874 848 874 778 C 874 731 860 688 832 648 C 804 608 765 577 717 555 C 674 536 630 524 586 518 C 541 512 413 502 201 487 C 194 459 189 435 187 415 C 185 394 184 372 184 350 C 184 261 202 195 238 153 C 274 111 331 90 408 90 C 466 90 518 102 564 126 C 610 150 656 188 700 242 Z M 229 600 L 397 606 C 524 610 610 622 656 643 C 702 664 725 702 725 756 C 725 802 711 838 683 862 C 655 886 614 899 561 899 C 480 899 413 874 359 826 C 305 777 261 702 229 600 Z M 327 1196 L 352 1321 L 876 1321 L 852 1196 L 327 1196 Z" unicode="ē" />
<glyph horiz-adv-x="1055" d="M 90 0 L 360 1393 L 1018 1393 L 991 1264 L 496 1264 L 401 784 L 911 784 L 889 662 L 377 662 L 274 127 L 879 127 L 854 0 L 90 0 Z M 718 1704 C 752 1704 782 1691 806 1667 C 830 1643 843 1613 843 1577 C 843 1541 830 1510 806 1486 C 782 1462 752 1450 716 1450 C 680 1450 650 1462 626 1486 C 601 1510 589 1541 589 1577 C 589 1613 601 1644 626 1668 C 651 1692 682 1704 718 1704 Z" unicode="Ė" />
<glyph horiz-adv-x="954" d="M 700 242 L 766 164 C 712 98 653 49 590 19 C 526 -11 453 -27 371 -27 C 259 -27 174 5 116 71 C 58 137 29 232 29 358 C 29 451 47 544 84 637 C 121 730 171 808 233 872 C 281 920 335 956 396 981 C 457 1005 524 1018 596 1018 C 677 1018 744 995 796 951 C 848 906 874 848 874 778 C 874 731 860 688 832 648 C 804 608 765 577 717 555 C 674 536 630 524 586 518 C 541 512 413 502 201 487 C 194 459 189 435 187 415 C 185 394 184 372 184 350 C 184 261 202 195 238 153 C 274 111 331 90 408 90 C 466 90 518 102 564 126 C 610 150 656 188 700 242 Z M 229 600 L 397 606 C 524 610 610 622 656 643 C 702 664 725 702 725 756 C 725 802 711 838 683 862 C 655 886 614 899 561 899 C 480 899 413 874 359 826 C 305 777 261 702 229 600 Z M 602 1393 C 632 1393 658 1382 678 1361 C 698 1340 708 1314 708 1284 C 708 1253 698 1228 678 1208 C 658 1188 632 1178 602 1178 C 571 1178 545 1188 524 1209 C 503 1229 493 1254 493 1284 C 493 1316 503 1342 524 1362 C 545 1382 571 1393 602 1393 Z" unicode="ė" />
<glyph horiz-adv-x="1055" d="M 854 0 L 760 0 C 681 -56 624 -104 588 -145 C 552 -186 535 -224 535 -258 C 535 -280 542 -297 556 -308 C 570 -318 592 -324 623 -324 C 654 -324 682 -320 708 -312 C 734 -304 764 -290 799 -270 L 819 -377 C 779 -398 738 -414 696 -426 C 654 -438 613 -444 573 -444 C 509 -444 461 -431 427 -406 C 393 -380 377 -343 377 -295 C 377 -241 397 -195 437 -156 C 477 -117 558 -65 680 0 L 90 0 L 360 1393 L 1018 1393 L 991 1264 L 496 1264 L 401 784 L 911 784 L 889 662 L 377 662 L 274 127 L 879 127 L 854 0 Z" unicode="Ę" />
<glyph horiz-adv-x="954" d="M 610 -270 L 631 -377 C 592 -398 552 -414 510 -426 C 468 -438 427 -444 387 -444 C 323 -444 275 -431 241 -406 C 207 -381 190 -345 190 -297 C 190 -247 209 -202 248 -162 C 286 -122 355 -77 453 -25 L 453 -14 C 430 -19 412 -22 398 -24 C 384 -26 368 -27 352 -27 C 250 -27 170 7 114 75 C 57 143 29 237 29 358 C 29 452 47 545 84 638 C 121 730 171 808 233 872 C 281 920 335 956 396 981 C 457 1005 524 1018 596 1018 C 677 1018 744 995 796 951 C 848 906 874 848 874 778 C 874 731 860 688 832 648 C 804 608 765 577 717 555 C 674 536 630 524 586 518 C 541 512 413 502 201 487 C 194 459 189 435 187 415 C 185 394 184 372 184 350 C 184 261 202 195 238 153 C 274 111 331 90 408 90 C 466 90 518 102 564 126 C 610 150 656 188 700 242 L 766 164 C 742 136 721 114 703 98 C 685 81 659 61 627 39 C 529 -28 458 -85 414 -132 C 370 -179 348 -221 348 -258 C 348 -280 355 -297 369 -308 C 383 -318 404 -324 434 -324 C 466 -324 495 -320 521 -312 C 547 -304 576 -290 610 -270 Z M 229 600 L 397 606 C 524 610 610 622 656 643 C 702 664 725 702 725 756 C 725 802 711 838 683 862 C 655 886 614 899 561 899 C 480 899 413 874 359 826 C 305 777 261 702 229 600 Z" unicode="ę" />
<glyph horiz-adv-x="1055" d="M 90 0 L 360 1393 L 1018 1393 L 991 1264 L 496 1264 L 401 784 L 911 784 L 889 662 L 377 662 L 274 127 L 879 127 L 854 0 L 90 0 Z M 848 1741 L 995 1741 L 995 1733 L 694 1450 L 440 1733 L 440 1741 L 604 1741 L 717 1610 L 848 1741 Z" unicode="Ě" />
<glyph horiz-adv-x="954" d="M 700 242 L 766 164 C 712 98 653 49 590 19 C 526 -11 453 -27 371 -27 C 259 -27 174 5 116 71 C 58 137 29 232 29 358 C 29 451 47 544 84 637 C 121 730 171 808 233 872 C 281 920 335 956 396 981 C 457 1005 524 1018 596 1018 C 677 1018 744 995 796 951 C 848 906 874 848 874 778 C 874 731 860 688 832 648 C 804 608 765 577 717 555 C 674 536 630 524 586 518 C 541 512 413 502 201 487 C 194 459 189 435 187 415 C 185 394 184 372 184 350 C 184 261 202 195 238 153 C 274 111 331 90 408 90 C 466 90 518 102 564 126 C 610 150 656 188 700 242 Z M 229 600 L 397 606 C 524 610 610 622 656 643 C 702 664 725 702 725 756 C 725 802 711 838 683 862 C 655 886 614 899 561 899 C 480 899 413 874 359 826 C 305 777 261 702 229 600 Z M 706 1434 L 837 1434 L 837 1425 L 544 1092 L 308 1425 L 308 1434 L 450 1434 L 568 1270 L 706 1434 Z" unicode="ě" />
<glyph horiz-adv-x="1300" d="M 719 614 L 743 737 L 1159 737 L 1053 180 C 978 110 900 58 820 25 C 740 -8 651 -25 553 -25 C 403 -25 287 22 207 116 C 126 210 86 344 86 520 C 86 766 157 977 301 1153 C 445 1329 618 1417 821 1417 C 897 1417 966 1405 1028 1381 C 1089 1357 1147 1320 1202 1270 L 1118 1163 L 1092 1188 C 1056 1220 1015 1245 970 1262 C 924 1279 876 1288 825 1288 C 734 1288 652 1266 579 1223 C 506 1180 442 1116 387 1032 C 342 962 307 881 282 789 C 256 697 244 604 244 512 C 244 376 272 273 329 205 C 385 136 471 102 586 102 C 653 102 715 112 773 134 C 831 155 877 185 913 223 L 991 614 L 719 614 Z M 982 1763 L 1087 1716 C 1068 1627 1036 1561 990 1517 C 944 1473 883 1452 808 1452 C 736 1452 679 1472 639 1514 C 599 1556 571 1623 556 1716 L 661 1763 C 677 1697 697 1650 723 1622 C 748 1593 780 1579 820 1579 C 858 1579 890 1593 916 1623 C 942 1653 964 1699 982 1763 Z" unicode="Ğ" />
<glyph horiz-adv-x="1081" d="M 979 991 L 809 133 C 766 -87 696 -249 598 -353 C 500 -457 369 -510 205 -510 C 169 -510 136 -508 108 -504 C 80 -500 44 -492 2 -481 L 53 -350 C 89 -362 118 -371 141 -375 C 164 -379 191 -381 223 -381 C 331 -381 421 -346 491 -276 C 561 -206 611 -101 643 39 L 682 213 L 668 213 L 606 135 C 563 83 521 46 480 24 C 439 2 390 -8 332 -8 C 232 -8 158 21 109 81 C 59 140 35 228 35 344 C 35 528 88 686 195 818 C 301 950 429 1016 578 1016 C 628 1016 669 1008 703 994 C 736 979 772 954 811 918 L 827 991 L 979 991 Z M 582 893 C 516 893 460 879 412 851 C 364 823 323 780 287 721 C 257 674 232 613 213 538 C 193 463 184 394 184 330 C 184 260 198 206 227 168 C 255 130 295 111 346 111 C 384 111 418 119 449 136 C 479 152 515 182 555 225 C 622 298 676 383 718 479 C 759 575 780 665 780 748 C 780 798 764 834 733 858 C 701 881 651 893 582 893 Z M 782 1421 L 884 1376 C 865 1294 832 1232 786 1190 C 739 1147 680 1126 608 1126 C 540 1126 487 1145 449 1185 C 411 1225 384 1288 370 1376 L 473 1421 C 489 1355 508 1310 532 1284 C 555 1258 588 1245 630 1245 C 666 1245 696 1259 720 1287 C 744 1315 765 1359 782 1421 Z" unicode="ğ" />
<glyph horiz-adv-x="1300" d="M 719 614 L 743 737 L 1159 737 L 1053 180 C 978 110 900 58 820 25 C 740 -8 651 -25 553 -25 C 403 -25 287 22 207 116 C 126 210 86 344 86 520 C 86 766 157 977 301 1153 C 445 1329 618 1417 821 1417 C 897 1417 966 1405 1028 1381 C 1089 1357 1147 1320 1202 1270 L 1118 1163 L 1092 1188 C 1056 1220 1015 1245 970 1262 C 924 1279 876 1288 825 1288 C 734 1288 652 1266 579 1223 C 506 1180 442 1116 387 1032 C 342 962 307 881 282 789 C 256 697 244 604 244 512 C 244 376 272 273 329 205 C 385 136 471 102 586 102 C 653 102 715 112 773 134 C 831 155 877 185 913 223 L 991 614 L 719 614 Z M 473 -61 L 655 -61 L 483 -475 L 360 -428 L 473 -61 Z" unicode="Ģ" />
<glyph horiz-adv-x="1081" d="M 979 991 L 809 133 C 766 -87 696 -249 598 -353 C 500 -457 369 -510 205 -510 C 169 -510 136 -508 108 -504 C 80 -500 44 -492 2 -481 L 53 -350 C 89 -362 118 -371 141 -375 C 164 -379 191 -381 223 -381 C 331 -381 421 -346 491 -276 C 561 -206 611 -101 643 39 L 682 213 L 668 213 L 606 135 C 563 83 521 46 480 24 C 439 2 390 -8 332 -8 C 232 -8 158 21 109 81 C 59 140 35 228 35 344 C 35 528 88 686 195 818 C 301 950 429 1016 578 1016 C 628 1016 669 1008 703 994 C 736 979 772 954 811 918 L 827 991 L 979 991 Z M 582 893 C 516 893 460 879 412 851 C 364 823 323 780 287 721 C 257 674 232 613 213 538 C 193 463 184 394 184 330 C 184 260 198 206 227 168 C 255 130 295 111 346 111 C 384 111 418 119 449 136 C 479 152 515 182 555 225 C 622 298 676 383 718 479 C 759 575 780 665 780 748 C 780 798 764 834 733 858 C 701 881 651 893 582 893 Z M 594 1442 L 764 1442 L 612 1081 L 492 1124 L 594 1442 Z" unicode="ģ" />
<glyph horiz-adv-x="610" d="M 258 0 L 100 0 L 371 1393 L 528 1393 L 258 0 Z M 202 1491 L 229 1630 L 753 1630 L 727 1491 L 202 1491 Z" unicode="Ī" />
<glyph horiz-adv-x="500" d="M 182 0 L 31 0 L 223 991 L 375 991 L 182 0 Z M 97 1196 L 118 1321 L 564 1321 L 543 1196 L 97 1196 Z" unicode="ī" />
<glyph horiz-adv-x="610" d="M 297 -270 L 315 -377 C 275 -398 235 -414 194 -426 C 152 -438 112 -444 72 -444 C 8 -444 -40 -431 -74 -406 C -108 -380 -125 -343 -125 -295 C -125 -241 -104 -195 -63 -155 C -22 -115 57 -64 176 0 L 100 0 L 371 1393 L 528 1393 L 258 0 C 175 -60 117 -109 83 -148 C 49 -186 33 -223 33 -258 C 33 -280 40 -297 54 -308 C 68 -318 90 -324 121 -324 C 151 -324 180 -320 206 -312 C 232 -304 262 -290 297 -270 Z" unicode="Į" />
<glyph horiz-adv-x="498" d="M 221 -270 L 240 -377 C 200 -398 159 -414 118 -426 C 76 -438 36 -444 -4 -444 C -67 -444 -116 -431 -150 -406 C -184 -380 -201 -343 -201 -295 C -201 -241 -180 -195 -139 -155 C -98 -115 -18 -64 100 0 L 29 0 L 221 991 L 373 991 L 180 0 C 92 -68 33 -119 3 -154 C -27 -189 -43 -224 -43 -258 C -43 -280 -36 -297 -22 -308 C -8 -318 14 -324 45 -324 C 75 -324 104 -320 130 -312 C 156 -304 187 -290 221 -270 Z M 348 1393 C 378 1393 404 1382 424 1361 C 444 1340 455 1314 455 1284 C 455 1253 444 1228 424 1208 C 404 1188 378 1178 348 1178 C 317 1178 291 1188 271 1209 C 250 1229 240 1254 240 1284 C 240 1316 250 1342 271 1362 C 291 1382 317 1393 348 1393 Z" unicode="į" />
<glyph horiz-adv-x="610" d="M 258 0 L 100 0 L 371 1393 L 528 1393 L 258 0 Z M 481 1704 C 515 1704 545 1691 569 1667 C 593 1643 606 1613 606 1577 C 606 1541 593 1510 569 1486 C 545 1462 515 1450 479 1450 C 443 1450 413 1462 389 1486 C 364 1510 352 1541 352 1577 C 352 1613 364 1644 389 1668 C 414 1692 445 1704 481 1704 Z" unicode="İ" />
<glyph horiz-adv-x="500" d="M 182 0 L 31 0 L 223 991 L 375 991 L 182 0 Z" unicode="ı" />
<glyph horiz-adv-x="1110" d="M 246 0 L 90 0 L 360 1393 L 516 1393 L 391 750 L 444 750 L 465 760 L 1016 1393 L 1208 1393 L 604 709 L 993 0 L 813 0 L 446 668 L 430 678 L 379 678 L 246 0 Z M 450 -61 L 632 -61 L 460 -475 L 337 -428 L 450 -61 Z" unicode="Ķ" />
<glyph horiz-adv-x="940" d="M 172 0 L 23 0 L 311 1489 L 461 1489 L 283 565 L 313 565 L 334 573 L 575 776 C 646 837 692 881 713 908 C 733 934 743 962 741 991 L 891 991 C 893 984 894 978 895 974 C 896 970 897 965 897 961 C 897 936 883 907 857 873 C 830 839 790 800 737 756 L 459 524 L 768 0 L 602 0 L 317 483 L 299 494 L 268 494 L 172 0 Z M 315 -61 L 497 -61 L 325 -475 L 202 -428 L 315 -61 Z" unicode="ķ" />
<glyph horiz-adv-x="905" d="M 274 125 L 776 125 L 752 0 L 92 0 L 362 1393 L 520 1393 L 274 125 Z M 352 1470 L 352 1481 L 535 1679 L 788 1679 L 788 1669 L 518 1470 L 352 1470 Z" unicode="Ĺ" />
<glyph horiz-adv-x="506" d="M 326 1470 L 326 1481 L 508 1679 L 735 1679 L 735 1669 L 477 1470 L 326 1470 Z M 186 0 L 37 0 L 313 1421 L 463 1421 L 186 0 Z" unicode="ĺ" />
<glyph horiz-adv-x="905" d="M 274 125 L 776 125 L 752 0 L 92 0 L 362 1393 L 520 1393 L 274 125 Z M 358 -61 L 540 -61 L 368 -475 L 245 -428 L 358 -61 Z" unicode="Ļ" />
<glyph horiz-adv-x="506" d="M 186 0 L 37 0 L 326 1489 L 475 1489 L 186 0 Z M 11 -61 L 193 -61 L 21 -475 L -102 -428 L 11 -61 Z" unicode="ļ" />
<glyph horiz-adv-x="905" d="M 274 125 L 776 125 L 752 0 L 92 0 L 362 1393 L 520 1393 L 274 125 Z M 653 1393 L 819 1393 L 659 995 L 540 1036 L 653 1393 Z" unicode="Ľ" />
<glyph horiz-adv-x="555" d="M 186 0 L 37 0 L 326 1489 L 475 1489 L 186 0 Z M 612 1393 L 778 1393 L 618 995 L 499 1036 L 612 1393 Z" unicode="ľ" />
<glyph horiz-adv-x="905" d="M 213 621 L 41 514 L -20 618 L 242 770 L 362 1393 L 520 1393 L 418 866 L 651 1008 L 713 903 L 389 715 L 274 125 L 776 125 L 752 0 L 92 0 L 213 621 Z" unicode="Ł" />
<glyph horiz-adv-x="561" d="M 78 0 L 199 623 L 20 516 L -39 621 L 227 774 L 367 1489 L 516 1489 L 395 864 L 586 979 L 647 874 L 367 713 L 227 0 L 78 0 Z" unicode="ł" />
<glyph horiz-adv-x="1350" d="M 236 0 L 86 0 L 356 1393 L 549 1393 L 924 264 L 1145 1393 L 1292 1393 L 1022 0 L 862 0 L 463 1167 L 236 0 Z M 702 1470 L 702 1481 L 885 1679 L 1138 1679 L 1138 1669 L 868 1470 L 702 1470 Z" unicode="Ń" />
<glyph horiz-adv-x="1083" d="M 170 0 L 20 0 L 213 991 L 362 991 L 315 778 L 330 778 L 418 877 C 458 921 502 955 548 979 C 594 1002 642 1014 692 1014 C 767 1014 824 994 863 954 C 902 914 922 855 922 778 C 922 755 920 732 918 710 C 916 687 912 664 907 641 L 784 0 L 633 0 L 754 614 C 758 642 762 666 764 687 C 766 708 768 728 768 748 C 768 800 759 836 741 856 C 723 876 691 887 647 887 C 604 887 562 872 521 843 C 480 814 437 769 391 709 C 357 663 327 610 301 552 C 274 493 256 439 246 389 L 170 0 Z M 485 1120 L 674 1405 L 866 1405 L 866 1397 L 631 1120 L 485 1120 Z" unicode="ń" />
<glyph horiz-adv-x="1350" d="M 236 0 L 86 0 L 356 1393 L 549 1393 L 924 264 L 1145 1393 L 1292 1393 L 1022 0 L 862 0 L 463 1167 L 236 0 Z M 477 -61 L 659 -61 L 487 -475 L 364 -428 L 477 -61 Z" unicode="Ņ" />
<glyph horiz-adv-x="1083" d="M 170 0 L 20 0 L 213 991 L 362 991 L 315 778 L 330 778 L 418 877 C 458 921 502 955 548 979 C 594 1002 642 1014 692 1014 C 767 1014 824 994 863 954 C 902 914 922 855 922 778 C 922 755 920 732 918 710 C 916 687 912 664 907 641 L 784 0 L 633 0 L 754 614 C 758 642 762 666 764 687 C 766 708 768 728 768 748 C 768 800 759 836 741 856 C 723 876 691 887 647 887 C 604 887 562 872 521 843 C 480 814 437 769 391 709 C 357 663 327 610 301 552 C 274 493 256 439 246 389 L 170 0 Z M 313 -61 L 495 -61 L 323 -475 L 200 -428 L 313 -61 Z" unicode="ņ" />
<glyph horiz-adv-x="1350" d="M 236 0 L 86 0 L 356 1393 L 549 1393 L 924 264 L 1145 1393 L 1292 1393 L 1022 0 L 862 0 L 463 1167 L 236 0 Z M 1003 1741 L 1150 1741 L 1150 1733 L 849 1450 L 595 1733 L 595 1741 L 759 1741 L 872 1610 L 1003 1741 Z" unicode="Ň" />
<glyph horiz-adv-x="1083" d="M 170 0 L 20 0 L 213 991 L 362 991 L 315 778 L 330 778 L 418 877 C 458 921 502 955 548 979 C 594 1002 642 1014 692 1014 C 767 1014 824 994 863 954 C 902 914 922 855 922 778 C 922 755 920 732 918 710 C 916 687 912 664 907 641 L 784 0 L 633 0 L 754 614 C 758 642 762 666 764 687 C 766 708 768 728 768 748 C 768 800 759 836 741 856 C 723 876 691 887 647 887 C 604 887 562 872 521 843 C 480 814 437 769 391 709 C 357 663 327 610 301 552 C 274 493 256 439 246 389 L 170 0 Z M 727 1434 L 858 1434 L 858 1425 L 565 1092 L 329 1425 L 329 1434 L 471 1434 L 589 1270 L 727 1434 Z" unicode="ň" />
<glyph horiz-adv-x="1386" d="M 834 1417 C 978 1417 1090 1368 1170 1272 C 1250 1176 1290 1041 1290 868 C 1290 745 1269 625 1227 507 C 1185 389 1126 286 1051 199 C 983 121 910 65 832 29 C 753 -7 663 -25 563 -25 C 413 -25 297 23 215 120 C 133 216 92 354 92 532 C 92 664 117 795 169 923 C 221 1051 290 1155 377 1237 C 440 1297 510 1342 586 1372 C 662 1402 744 1417 834 1417 Z M 803 1288 C 707 1288 621 1259 544 1202 C 467 1144 403 1062 352 954 C 320 888 296 817 279 741 C 262 665 254 591 254 518 C 254 384 281 281 337 210 C 393 139 474 104 580 104 C 665 104 740 124 806 164 C 872 204 931 267 983 352 C 1027 424 1063 507 1089 599 C 1115 691 1128 780 1128 868 C 1128 1006 1100 1110 1045 1181 C 990 1252 909 1288 803 1288 Z M 585 1491 L 612 1630 L 1136 1630 L 1110 1491 L 585 1491 Z" unicode="Ō" />
<glyph horiz-adv-x="1034" d="M 586 1018 C 688 1018 768 984 826 916 C 884 848 913 753 913 631 C 913 540 895 448 860 354 C 825 260 779 183 721 121 C 675 72 623 35 565 10 C 507 -14 442 -27 371 -27 C 256 -27 170 6 112 72 C 54 138 25 237 25 367 C 25 460 43 553 80 645 C 116 737 165 813 225 872 C 276 921 331 958 391 982 C 450 1006 515 1018 586 1018 Z M 547 895 C 487 895 434 880 388 852 C 342 824 302 780 268 721 C 238 671 215 612 198 545 C 180 477 172 412 172 348 C 172 264 190 201 226 157 C 262 113 315 92 385 92 C 457 92 519 112 572 152 C 624 192 667 252 700 332 C 718 376 733 424 745 474 C 756 524 762 568 762 606 C 762 705 744 778 709 825 C 674 871 620 895 547 895 Z M 329 1196 L 354 1321 L 878 1321 L 854 1196 L 329 1196 Z" unicode="ō" />
<glyph horiz-adv-x="1386" d="M 834 1417 C 978 1417 1090 1368 1170 1272 C 1250 1176 1290 1041 1290 868 C 1290 745 1269 625 1227 507 C 1185 389 1126 286 1051 199 C 983 121 910 65 832 29 C 753 -7 663 -25 563 -25 C 413 -25 297 23 215 120 C 133 216 92 354 92 532 C 92 664 117 795 169 923 C 221 1051 290 1155 377 1237 C 440 1297 510 1342 586 1372 C 662 1402 744 1417 834 1417 Z M 803 1288 C 707 1288 621 1259 544 1202 C 467 1144 403 1062 352 954 C 320 888 296 817 279 741 C 262 665 254 591 254 518 C 254 384 281 281 337 210 C 393 139 474 104 580 104 C 665 104 740 124 806 164 C 872 204 931 267 983 352 C 1027 424 1063 507 1089 599 C 1115 691 1128 780 1128 868 C 1128 1006 1100 1110 1045 1181 C 990 1252 909 1288 803 1288 Z M 575 1470 L 575 1481 L 758 1679 L 999 1679 L 999 1669 L 735 1470 L 575 1470 Z M 930 1470 L 930 1481 L 1112 1679 L 1353 1679 L 1353 1669 L 1089 1470 L 930 1470 Z" unicode="Ő" />
<glyph horiz-adv-x="1034" d="M 586 1018 C 688 1018 768 984 826 916 C 884 848 913 753 913 631 C 913 540 895 448 860 354 C 825 260 779 183 721 121 C 675 72 623 35 565 10 C 507 -14 442 -27 371 -27 C 256 -27 170 6 112 72 C 54 138 25 237 25 367 C 25 460 43 553 80 645 C 116 737 165 813 225 872 C 276 921 331 958 391 982 C 450 1006 515 1018 586 1018 Z M 547 895 C 487 895 434 880 388 852 C 342 824 302 780 268 721 C 238 671 215 612 198 545 C 180 477 172 412 172 348 C 172 264 190 201 226 157 C 262 113 315 92 385 92 C 457 92 519 112 572 152 C 624 192 667 252 700 332 C 718 376 733 424 745 474 C 756 524 762 568 762 606 C 762 705 744 778 709 825 C 674 871 620 895 547 895 Z M 360 1120 L 561 1405 L 727 1405 L 727 1397 L 502 1120 L 360 1120 Z M 647 1120 L 848 1405 L 1014 1405 L 1014 1397 L 788 1120 L 647 1120 Z" unicode="ő" />
<glyph horiz-adv-x="1724" d="M 1554 127 L 1530 0 L 795 0 L 809 76 C 763 42 719 18 677 5 C 635 -7 585 -14 526 -14 C 384 -14 274 32 198 126 C 122 220 84 354 84 530 C 84 772 155 978 298 1150 C 440 1321 612 1407 813 1407 C 868 1407 915 1399 955 1385 C 995 1370 1028 1348 1055 1319 L 1069 1393 L 1688 1393 L 1661 1264 L 1198 1264 L 1106 786 L 1583 786 L 1559 664 L 1081 664 L 977 127 L 1554 127 Z M 838 205 L 1030 1190 C 1000 1219 967 1241 929 1255 C 891 1269 847 1276 799 1276 C 715 1276 638 1254 568 1212 C 498 1170 437 1108 387 1028 C 344 958 309 876 283 780 C 257 684 244 591 244 502 C 244 372 270 275 324 210 C 377 145 457 113 563 113 C 620 113 669 119 711 133 C 753 147 795 171 838 205 Z" unicode="Œ" />
<glyph horiz-adv-x="1599" d="M 1354 252 L 1417 176 C 1364 108 1307 59 1245 29 C 1183 0 1111 -16 1030 -16 C 951 -16 888 -1 840 29 C 792 59 756 106 733 172 C 673 100 616 51 562 24 C 507 -2 438 -16 356 -16 C 244 -16 160 14 104 76 C 48 138 20 231 20 356 C 20 450 38 544 75 639 C 111 734 159 812 219 872 C 269 922 322 959 380 984 C 437 1009 499 1022 565 1022 C 642 1022 704 1005 750 971 C 796 937 830 883 854 809 C 917 885 978 939 1038 971 C 1098 1002 1170 1018 1255 1018 C 1335 1018 1401 995 1451 951 C 1501 907 1526 848 1526 776 C 1526 734 1515 695 1494 659 C 1472 623 1443 593 1405 571 C 1381 557 1348 544 1304 533 C 1260 521 1211 512 1155 506 C 1138 504 1107 501 1063 499 C 1019 496 953 491 866 485 C 860 456 855 431 853 410 C 851 389 850 366 850 342 C 850 258 866 197 900 159 C 934 121 988 102 1063 102 C 1125 102 1178 113 1222 136 C 1266 159 1310 198 1354 252 Z M 532 897 C 475 897 424 882 379 853 C 334 823 294 779 260 719 C 231 669 208 609 191 541 C 174 472 166 406 166 342 C 166 264 183 205 218 165 C 252 124 303 104 371 104 C 442 104 503 123 553 162 C 603 201 646 260 680 340 C 699 386 714 436 725 489 C 735 542 741 593 741 641 C 741 725 723 789 688 832 C 653 875 601 897 532 897 Z M 891 594 C 1043 602 1138 607 1176 611 C 1214 614 1247 619 1274 627 C 1314 637 1342 652 1360 672 C 1377 692 1386 719 1386 754 C 1386 800 1372 836 1344 861 C 1316 886 1277 899 1225 899 C 1142 899 1077 876 1029 832 C 981 788 935 708 891 594 Z" unicode="œ" />
<glyph horiz-adv-x="1133" d="M 375 676 L 244 0 L 88 0 L 358 1393 L 680 1393 C 766 1393 833 1386 881 1374 C 929 1361 968 1339 999 1309 C 1020 1287 1037 1258 1049 1220 C 1061 1182 1067 1140 1067 1094 C 1067 971 1025 867 941 782 C 857 697 751 651 623 645 L 946 0 L 772 0 L 442 666 L 426 676 L 375 676 Z M 389 750 L 555 750 C 665 750 752 779 814 837 C 876 895 907 976 907 1081 C 907 1148 888 1196 850 1226 C 812 1255 751 1270 666 1270 L 489 1270 L 389 750 Z M 589 1470 L 589 1481 L 772 1679 L 1025 1679 L 1025 1669 L 755 1470 L 589 1470 Z" unicode="Ŕ" />
<glyph horiz-adv-x="717" d="M 182 0 L 33 0 L 225 991 L 373 991 L 317 743 L 334 743 L 422 860 C 454 904 491 938 531 962 C 571 986 610 999 649 999 C 657 999 666 998 676 997 C 685 995 699 993 719 991 L 692 850 C 674 852 661 853 652 854 C 643 855 635 856 627 856 C 596 856 568 849 544 835 C 519 821 491 797 461 764 C 409 704 364 639 328 569 C 291 498 266 429 254 362 L 182 0 Z M 403 1120 L 592 1405 L 784 1405 L 784 1397 L 549 1120 L 403 1120 Z" unicode="ŕ" />
<glyph horiz-adv-x="1133" d="M 375 676 L 244 0 L 88 0 L 358 1393 L 680 1393 C 766 1393 833 1386 881 1374 C 929 1361 968 1339 999 1309 C 1020 1287 1037 1258 1049 1220 C 1061 1182 1067 1140 1067 1094 C 1067 971 1025 867 941 782 C 857 697 751 651 623 645 L 946 0 L 772 0 L 442 666 L 426 676 L 375 676 Z M 389 750 L 555 750 C 665 750 752 779 814 837 C 876 895 907 976 907 1081 C 907 1148 888 1196 850 1226 C 812 1255 751 1270 666 1270 L 489 1270 L 389 750 Z M 432 -61 L 614 -61 L 442 -475 L 319 -428 L 432 -61 Z" unicode="Ŗ" />
<glyph horiz-adv-x="717" d="M 182 0 L 33 0 L 225 991 L 373 991 L 317 743 L 334 743 L 422 860 C 454 904 491 938 531 962 C 571 986 610 999 649 999 C 657 999 666 998 676 997 C 685 995 699 993 719 991 L 692 850 C 674 852 661 853 652 854 C 643 855 635 856 627 856 C 596 856 568 849 544 835 C 519 821 491 797 461 764 C 409 704 364 639 328 569 C 291 498 266 429 254 362 L 182 0 Z M 260 -61 L 442 -61 L 270 -475 L 147 -428 L 260 -61 Z" unicode="ŗ" />
<glyph horiz-adv-x="1133" d="M 375 676 L 244 0 L 88 0 L 358 1393 L 680 1393 C 766 1393 833 1386 881 1374 C 929 1361 968 1339 999 1309 C 1020 1287 1037 1258 1049 1220 C 1061 1182 1067 1140 1067 1094 C 1067 971 1025 867 941 782 C 857 697 751 651 623 645 L 946 0 L 772 0 L 442 666 L 426 676 L 375 676 Z M 389 750 L 555 750 C 665 750 752 779 814 837 C 876 895 907 976 907 1081 C 907 1148 888 1196 850 1226 C 812 1255 751 1270 666 1270 L 489 1270 L 389 750 Z M 843 1741 L 990 1741 L 990 1733 L 689 1450 L 435 1733 L 435 1741 L 599 1741 L 712 1610 L 843 1741 Z" unicode="Ř" />
<glyph horiz-adv-x="717" d="M 182 0 L 33 0 L 225 991 L 373 991 L 317 743 L 334 743 L 422 860 C 454 904 491 938 531 962 C 571 986 610 999 649 999 C 657 999 666 998 676 997 C 685 995 699 993 719 991 L 692 850 C 674 852 661 853 652 854 C 643 855 635 856 627 856 C 596 856 568 849 544 835 C 519 821 491 797 461 764 C 409 704 364 639 328 569 C 291 498 266 429 254 362 L 182 0 Z M 631 1434 L 762 1434 L 762 1425 L 469 1092 L 233 1425 L 233 1434 L 375 1434 L 493 1270 L 631 1434 Z" unicode="ř" />
<glyph horiz-adv-x="987" d="M 8 119 L 96 225 L 117 201 C 145 170 183 145 230 127 C 277 109 327 100 379 100 C 467 100 538 127 591 182 C 643 236 670 310 670 403 C 670 449 660 487 640 517 C 620 547 583 578 530 610 C 434 668 372 708 342 730 C 312 752 286 778 264 807 C 242 834 226 865 215 900 C 204 935 199 972 199 1010 C 199 1124 242 1220 328 1298 C 414 1376 520 1415 647 1415 C 698 1415 748 1406 796 1389 C 844 1371 883 1348 913 1319 L 944 1288 L 872 1178 L 848 1202 C 818 1232 785 1253 751 1267 C 717 1281 679 1288 637 1288 C 556 1288 489 1263 435 1213 C 381 1163 354 1101 354 1026 C 354 980 364 941 384 911 C 404 881 440 851 492 821 C 584 766 643 730 667 713 C 691 696 715 676 739 653 C 771 621 794 587 808 551 C 822 514 829 472 829 426 C 829 292 786 184 701 100 C 615 16 505 -25 369 -25 C 298 -25 235 -15 179 5 C 123 25 75 54 35 92 L 8 119 Z M 517 1470 L 517 1481 L 700 1679 L 953 1679 L 953 1669 L 683 1470 L 517 1470 Z" unicode="Ś" />
<glyph horiz-adv-x="803" d="M 715 930 L 645 827 C 607 851 573 868 543 878 C 513 888 480 893 444 893 C 382 893 332 879 296 851 C 260 823 242 786 242 739 C 242 708 250 683 266 663 C 282 643 314 620 360 596 C 472 538 545 490 579 453 C 612 416 629 365 629 299 C 629 199 598 120 536 62 C 474 4 389 -25 283 -25 C 221 -25 167 -17 121 -2 C 75 12 28 38 -18 74 L 59 180 C 99 147 136 124 170 111 C 204 98 245 92 293 92 C 356 92 404 107 438 138 C 472 169 489 214 489 272 C 489 316 477 348 454 369 C 430 390 360 432 242 494 C 194 518 158 549 134 586 C 110 622 98 665 98 713 C 98 801 131 874 198 930 C 264 986 351 1014 457 1014 C 511 1014 557 1007 596 995 C 634 982 674 960 715 930 Z M 376 1120 L 565 1405 L 757 1405 L 757 1397 L 522 1120 L 376 1120 Z" unicode="ś" />
<glyph horiz-adv-x="987" d="M 8 119 L 96 225 L 117 201 C 145 170 183 145 230 127 C 277 109 327 100 379 100 C 467 100 538 127 591 182 C 643 236 670 310 670 403 C 670 449 660 487 640 517 C 620 547 583 578 530 610 C 434 668 372 708 342 730 C 312 752 286 778 264 807 C 242 834 226 865 215 900 C 204 935 199 972 199 1010 C 199 1124 242 1220 328 1298 C 414 1376 520 1415 647 1415 C 698 1415 748 1406 796 1389 C 844 1371 883 1348 913 1319 L 944 1288 L 872 1178 L 848 1202 C 818 1232 785 1253 751 1267 C 717 1281 679 1288 637 1288 C 556 1288 489 1263 435 1213 C 381 1163 354 1101 354 1026 C 354 980 364 941 384 911 C 404 881 440 851 492 821 C 584 766 643 730 667 713 C 691 696 715 676 739 653 C 771 621 794 587 808 551 C 822 514 829 472 829 426 C 829 292 786 184 701 100 C 615 16 505 -25 369 -25 C 298 -25 235 -15 179 5 C 123 25 75 54 35 92 L 8 119 Z M 211 -233 L 174 -137 C 207 -109 238 -90 268 -79 C 298 -68 332 -63 370 -63 C 429 -63 475 -79 509 -113 C 542 -146 559 -192 559 -252 C 559 -316 540 -366 502 -403 C 464 -440 411 -459 344 -459 C 304 -459 269 -453 241 -442 C 212 -431 181 -412 147 -385 L 196 -289 C 217 -314 237 -331 257 -341 C 277 -351 301 -356 330 -356 C 363 -356 389 -347 408 -329 C 426 -311 436 -287 436 -256 C 436 -226 428 -204 414 -189 C 400 -173 379 -166 352 -166 C 323 -166 298 -171 277 -181 C 256 -191 234 -208 211 -233 Z" unicode="Ş" />
<glyph horiz-adv-x="803" d="M 715 930 L 645 827 C 607 851 573 868 543 878 C 513 888 480 893 444 893 C 382 893 332 879 296 851 C 260 823 242 786 242 739 C 242 708 250 683 266 663 C 282 643 314 620 360 596 C 472 538 545 490 579 453 C 612 416 629 365 629 299 C 629 199 598 120 536 62 C 474 4 389 -25 283 -25 C 221 -25 167 -17 121 -2 C 75 12 28 38 -18 74 L 59 180 C 99 147 136 124 170 111 C 204 98 245 92 293 92 C 356 92 404 107 438 138 C 472 169 489 214 489 272 C 489 316 477 348 454 369 C 430 390 360 432 242 494 C 194 518 158 549 134 586 C 110 622 98 665 98 713 C 98 801 131 874 198 930 C 264 986 351 1014 457 1014 C 511 1014 557 1007 596 995 C 634 982 674 960 715 930 Z M 103 -233 L 66 -137 C 99 -109 130 -90 160 -79 C 190 -68 224 -63 262 -63 C 321 -63 367 -79 401 -113 C 434 -146 451 -192 451 -252 C 451 -316 432 -366 394 -403 C 356 -440 303 -459 236 -459 C 196 -459 161 -453 133 -442 C 104 -431 73 -412 39 -385 L 88 -289 C 109 -314 129 -331 149 -341 C 169 -351 193 -356 222 -356 C 255 -356 281 -347 300 -329 C 318 -311 328 -287 328 -256 C 328 -226 320 -204 306 -189 C 292 -173 271 -166 244 -166 C 215 -166 190 -171 169 -181 C 148 -191 126 -208 103 -233 Z" unicode="ş" />
<glyph horiz-adv-x="987" d="M 8 119 L 96 225 L 117 201 C 145 170 183 145 230 127 C 277 109 327 100 379 100 C 467 100 538 127 591 182 C 643 236 670 310 670 403 C 670 449 660 487 640 517 C 620 547 583 578 530 610 C 434 668 372 708 342 730 C 312 752 286 778 264 807 C 242 834 226 865 215 900 C 204 935 199 972 199 1010 C 199 1124 242 1220 328 1298 C 414 1376 520 1415 647 1415 C 698 1415 748 1406 796 1389 C 844 1371 883 1348 913 1319 L 944 1288 L 872 1178 L 848 1202 C 818 1232 785 1253 751 1267 C 717 1281 679 1288 637 1288 C 556 1288 489 1263 435 1213 C 381 1163 354 1101 354 1026 C 354 980 364 941 384 911 C 404 881 440 851 492 821 C 584 766 643 730 667 713 C 691 696 715 676 739 653 C 771 621 794 587 808 551 C 822 514 829 472 829 426 C 829 292 786 184 701 100 C 615 16 505 -25 369 -25 C 298 -25 235 -15 179 5 C 123 25 75 54 35 92 L 8 119 Z M 784 1741 L 931 1741 L 931 1733 L 630 1450 L 376 1733 L 376 1741 L 540 1741 L 653 1610 L 784 1741 Z" unicode="Š" />
<glyph horiz-adv-x="803" d="M 715 930 L 645 827 C 607 851 573 868 543 878 C 513 888 480 893 444 893 C 382 893 332 879 296 851 C 260 823 242 786 242 739 C 242 708 250 683 266 663 C 282 643 314 620 360 596 C 472 538 545 490 579 453 C 612 416 629 365 629 299 C 629 199 598 120 536 62 C 474 4 389 -25 283 -25 C 221 -25 167 -17 121 -2 C 75 12 28 38 -18 74 L 59 180 C 99 147 136 124 170 111 C 204 98 245 92 293 92 C 356 92 404 107 438 138 C 472 169 489 214 489 272 C 489 316 477 348 454 369 C 430 390 360 432 242 494 C 194 518 158 549 134 586 C 110 622 98 665 98 713 C 98 801 131 874 198 930 C 264 986 351 1014 457 1014 C 511 1014 557 1007 596 995 C 634 982 674 960 715 930 Z M 618 1434 L 749 1434 L 749 1425 L 456 1092 L 220 1425 L 220 1434 L 362 1434 L 480 1270 L 618 1434 Z" unicode="š" />
<glyph horiz-adv-x="948" d="M 426 0 L 266 0 L 512 1264 L 147 1264 L 172 1393 L 1063 1393 L 1038 1264 L 672 1264 L 426 0 Z M 241 -61 L 423 -61 L 251 -475 L 128 -428 L 241 -61 Z" unicode="Ţ" />
<glyph horiz-adv-x="707" d="M 82 870 L 104 985 L 276 985 L 346 1337 L 491 1337 L 422 985 L 670 985 L 647 870 L 393 870 L 293 369 C 285 333 280 303 278 279 C 275 255 274 231 274 207 C 274 178 279 156 291 141 C 302 126 318 119 340 119 C 371 119 401 129 429 149 C 457 169 493 208 539 264 L 596 176 L 549 123 C 509 79 467 46 424 24 C 381 2 335 -8 287 -8 C 233 -8 193 7 166 39 C 138 70 125 116 125 178 C 125 201 126 228 130 258 C 134 288 139 320 145 354 L 248 870 L 82 870 Z M 191 -61 L 373 -61 L 201 -475 L 78 -428 L 191 -61 Z" unicode="ţ" />
<glyph horiz-adv-x="948" d="M 426 0 L 266 0 L 512 1264 L 147 1264 L 172 1393 L 1063 1393 L 1038 1264 L 672 1264 L 426 0 Z M 782 1741 L 929 1741 L 929 1733 L 628 1450 L 374 1733 L 374 1741 L 538 1741 L 651 1610 L 782 1741 Z" unicode="Ť" />
<glyph horiz-adv-x="707" d="M 80 870 L 102 985 L 274 985 L 344 1337 L 489 1337 L 420 985 L 668 985 L 645 870 L 391 870 L 291 369 C 283 333 278 303 276 279 C 273 255 272 231 272 207 C 272 178 277 156 289 141 C 300 126 316 119 338 119 C 369 119 399 129 427 149 C 455 169 491 208 537 264 L 594 176 L 547 123 C 507 79 465 46 422 24 C 379 2 333 -8 285 -8 C 231 -8 191 7 164 39 C 136 70 123 116 123 178 C 123 201 124 228 128 258 C 132 288 137 320 143 354 L 246 870 L 80 870 Z M 684 1489 L 850 1489 L 690 1091 L 571 1132 L 684 1489 Z" unicode="ť" />
<glyph horiz-adv-x="1307" d="M 330 1393 L 489 1393 L 317 512 C 310 474 305 439 302 408 C 298 377 297 347 297 317 C 297 241 317 186 358 152 C 399 118 466 102 559 102 C 673 102 757 131 811 190 C 865 249 908 357 940 514 L 1110 1393 L 1266 1393 L 1100 539 C 1076 418 1051 325 1023 261 C 995 197 958 142 911 98 C 864 55 810 24 750 4 C 690 -15 615 -25 526 -25 C 439 -25 369 -15 316 4 C 263 23 220 55 188 100 C 170 126 156 154 147 186 C 137 217 133 252 133 291 C 133 322 135 358 140 398 C 145 438 153 485 164 539 L 330 1393 Z M 552 1491 L 579 1630 L 1103 1630 L 1077 1491 L 552 1491 Z" unicode="Ū" />
<glyph horiz-adv-x="1075" d="M 815 991 L 965 991 L 772 0 L 629 0 L 670 213 L 653 213 L 565 115 C 522 67 479 32 436 10 C 392 -12 345 -23 295 -23 C 218 -23 160 -3 121 37 C 82 77 63 135 63 213 C 63 235 64 259 66 283 C 68 307 72 329 76 350 L 201 991 L 352 991 L 231 377 C 226 351 222 328 220 306 C 218 284 217 262 217 242 C 217 192 225 156 243 135 C 261 114 291 104 334 104 C 378 104 420 118 462 147 C 503 175 547 221 594 283 C 628 327 658 378 684 435 C 710 491 728 547 739 602 L 815 991 Z M 356 1196 L 381 1321 L 905 1321 L 881 1196 L 356 1196 Z" unicode="ū" />
<glyph horiz-adv-x="1307" d="M 330 1393 L 489 1393 L 317 512 C 310 474 305 439 302 408 C 298 377 297 347 297 317 C 297 241 317 186 358 152 C 399 118 466 102 559 102 C 673 102 757 131 811 190 C 865 249 908 357 940 514 L 1110 1393 L 1266 1393 L 1100 539 C 1076 418 1051 325 1023 261 C 995 197 958 142 911 98 C 864 55 810 24 750 4 C 690 -15 615 -25 526 -25 C 439 -25 369 -15 316 4 C 263 23 220 55 188 100 C 170 126 156 154 147 186 C 137 217 133 252 133 291 C 133 322 135 358 140 398 C 145 438 153 485 164 539 L 330 1393 Z M 820 1806 C 880 1806 929 1788 968 1752 C 1007 1716 1027 1670 1027 1616 C 1027 1560 1007 1515 968 1480 C 928 1444 878 1427 816 1427 C 754 1427 703 1444 664 1480 C 624 1516 605 1562 605 1618 C 605 1674 624 1719 664 1754 C 704 1788 756 1806 820 1806 Z M 816 1704 C 788 1704 766 1696 750 1680 C 734 1664 726 1643 726 1616 C 726 1588 734 1567 750 1552 C 766 1536 788 1529 816 1529 C 844 1529 867 1536 884 1552 C 900 1567 909 1588 909 1616 C 909 1643 900 1664 884 1680 C 867 1696 844 1704 816 1704 Z" unicode="Ů" />
<glyph horiz-adv-x="1075" d="M 815 991 L 965 991 L 772 0 L 629 0 L 670 213 L 653 213 L 565 115 C 522 67 479 32 436 10 C 392 -12 345 -23 295 -23 C 218 -23 160 -3 121 37 C 82 77 63 135 63 213 C 63 235 64 259 66 283 C 68 307 72 329 76 350 L 201 991 L 352 991 L 231 377 C 226 351 222 328 220 306 C 218 284 217 262 217 242 C 217 192 225 156 243 135 C 261 114 291 104 334 104 C 378 104 420 118 462 147 C 503 175 547 221 594 283 C 628 327 658 378 684 435 C 710 491 728 547 739 602 L 815 991 Z M 612 1454 C 670 1454 717 1437 755 1403 C 792 1369 811 1326 811 1274 C 811 1220 792 1176 755 1142 C 717 1108 669 1092 610 1092 C 550 1092 501 1108 463 1142 C 425 1176 407 1220 407 1274 C 407 1328 426 1371 464 1404 C 502 1437 552 1454 612 1454 Z M 608 1360 C 581 1360 560 1352 544 1336 C 528 1320 520 1299 520 1272 C 520 1245 527 1224 543 1209 C 559 1193 581 1186 610 1186 C 638 1186 660 1193 676 1209 C 692 1225 700 1246 700 1274 C 700 1300 691 1321 675 1337 C 659 1352 636 1360 608 1360 Z" unicode="ů" />
<glyph horiz-adv-x="1307" d="M 330 1393 L 489 1393 L 317 512 C 310 474 305 439 302 408 C 298 377 297 347 297 317 C 297 241 317 186 358 152 C 399 118 466 102 559 102 C 673 102 757 131 811 190 C 865 249 908 357 940 514 L 1110 1393 L 1266 1393 L 1100 539 C 1076 418 1051 325 1023 261 C 995 197 958 142 911 98 C 864 55 810 24 750 4 C 690 -15 615 -25 526 -25 C 439 -25 369 -15 316 4 C 263 23 220 55 188 100 C 170 126 156 154 147 186 C 137 217 133 252 133 291 C 133 322 135 358 140 398 C 145 438 153 485 164 539 L 330 1393 Z M 556 1470 L 556 1481 L 739 1679 L 980 1679 L 980 1669 L 716 1470 L 556 1470 Z M 911 1470 L 911 1481 L 1093 1679 L 1334 1679 L 1334 1669 L 1070 1470 L 911 1470 Z" unicode="Ű" />
<glyph horiz-adv-x="1075" d="M 815 991 L 965 991 L 772 0 L 629 0 L 670 213 L 653 213 L 565 115 C 522 67 479 32 436 10 C 392 -12 345 -23 295 -23 C 218 -23 160 -3 121 37 C 82 77 63 135 63 213 C 63 235 64 259 66 283 C 68 307 72 329 76 350 L 201 991 L 352 991 L 231 377 C 226 351 222 328 220 306 C 218 284 217 262 217 242 C 217 192 225 156 243 135 C 261 114 291 104 334 104 C 378 104 420 118 462 147 C 503 175 547 221 594 283 C 628 327 658 378 684 435 C 710 491 728 547 739 602 L 815 991 Z M 390 1120 L 591 1405 L 757 1405 L 757 1397 L 532 1120 L 390 1120 Z M 677 1120 L 878 1405 L 1044 1405 L 1044 1397 L 818 1120 L 677 1120 Z" unicode="ű" />
<glyph horiz-adv-x="1307" d="M 825 -270 L 844 -377 C 804 -398 763 -414 722 -426 C 680 -438 640 -444 600 -444 C 536 -444 488 -431 454 -406 C 420 -381 403 -345 403 -297 C 403 -246 422 -200 462 -160 C 501 -120 574 -72 680 -16 L 680 -4 C 644 -12 613 -17 589 -20 C 565 -23 536 -25 504 -25 C 384 -25 293 2 229 57 C 165 112 133 190 133 291 C 133 322 135 358 140 398 C 145 438 153 485 164 539 L 330 1393 L 489 1393 L 317 512 C 310 474 305 439 302 408 C 298 377 297 347 297 317 C 297 241 317 186 358 152 C 399 118 466 102 559 102 C 673 102 757 131 811 190 C 865 249 908 357 940 514 L 1110 1393 L 1266 1393 L 1100 539 C 1065 371 1027 254 985 188 C 943 122 859 45 733 -41 C 677 -81 634 -120 605 -158 C 575 -195 561 -228 561 -258 C 561 -280 568 -297 582 -308 C 596 -318 618 -324 649 -324 C 679 -324 708 -320 734 -312 C 760 -304 791 -290 825 -270 Z" unicode="Ų" />
<glyph horiz-adv-x="1075" d="M 772 0 L 709 0 C 630 -56 573 -104 537 -145 C 501 -186 483 -224 483 -258 C 483 -280 490 -297 504 -308 C 518 -318 540 -324 571 -324 C 603 -324 631 -320 657 -312 C 683 -304 713 -290 748 -270 L 768 -377 C 728 -398 687 -414 645 -426 C 603 -438 562 -444 522 -444 C 458 -444 410 -431 376 -406 C 342 -380 326 -343 326 -295 C 326 -241 346 -195 386 -156 C 426 -117 507 -65 629 0 L 670 213 L 653 213 L 565 115 C 522 67 479 32 436 10 C 392 -12 345 -23 295 -23 C 218 -23 160 -3 121 37 C 82 77 63 135 63 213 C 63 235 64 259 66 283 C 68 307 72 329 76 350 L 201 991 L 352 991 L 231 377 C 226 351 222 328 220 306 C 218 284 217 262 217 242 C 217 192 225 156 243 135 C 261 114 291 104 334 104 C 378 104 420 118 462 147 C 503 175 547 221 594 283 C 628 327 658 378 684 435 C 710 491 728 547 739 602 L 815 991 L 965 991 L 772 0 Z" unicode="ų" />
<glyph horiz-adv-x="973" d="M 444 0 L 285 0 L 389 532 L 152 1393 L 322 1393 L 496 694 L 938 1393 L 1114 1393 L 549 532 L 444 0 Z M 425 1688 C 457 1688 485 1676 508 1653 C 530 1630 542 1602 542 1569 C 542 1535 530 1506 508 1484 C 485 1461 457 1450 423 1450 C 389 1450 360 1461 338 1484 C 315 1506 304 1535 304 1569 C 304 1602 315 1630 338 1653 C 361 1676 390 1688 425 1688 Z M 870 1688 C 902 1688 930 1676 953 1653 C 975 1630 987 1602 987 1569 C 987 1535 975 1506 953 1484 C 930 1461 902 1450 868 1450 C 834 1450 805 1461 783 1484 C 760 1506 749 1535 749 1569 C 749 1602 760 1630 783 1653 C 806 1676 835 1688 870 1688 Z" unicode="Ÿ" />
<glyph horiz-adv-x="1040" d="M 881 127 L 856 0 L -25 0 L 0 127 L 879 1264 L 246 1264 L 270 1393 L 1087 1393 L 1063 1266 L 180 127 L 881 127 Z M 558 1470 L 558 1481 L 741 1679 L 994 1679 L 994 1669 L 724 1470 L 558 1470 Z" unicode="Ź" />
<glyph horiz-adv-x="854" d="M 670 119 L 647 0 L -49 0 L -27 115 L 616 872 L 143 872 L 168 991 L 809 991 L 788 879 L 145 119 L 670 119 Z M 407 1120 L 596 1405 L 788 1405 L 788 1397 L 553 1120 L 407 1120 Z" unicode="ź" />
<glyph horiz-adv-x="1040" d="M 881 127 L 856 0 L -25 0 L 0 127 L 879 1264 L 246 1264 L 270 1393 L 1087 1393 L 1063 1266 L 180 127 L 881 127 Z M 698 1704 C 732 1704 762 1691 786 1667 C 810 1643 823 1613 823 1577 C 823 1541 810 1510 786 1486 C 762 1462 732 1450 696 1450 C 660 1450 630 1462 606 1486 C 581 1510 569 1541 569 1577 C 569 1613 581 1644 606 1668 C 631 1692 662 1704 698 1704 Z" unicode="Ż" />
<glyph horiz-adv-x="854" d="M 670 119 L 647 0 L -49 0 L -27 115 L 616 872 L 143 872 L 168 991 L 809 991 L 788 879 L 145 119 L 670 119 Z M 518 1393 C 548 1393 574 1382 594 1361 C 614 1340 624 1314 624 1284 C 624 1253 614 1228 594 1208 C 574 1188 548 1178 518 1178 C 487 1178 461 1188 440 1209 C 419 1229 409 1254 409 1284 C 409 1316 419 1342 440 1362 C 461 1382 487 1393 518 1393 Z" unicode="ż" />
<glyph horiz-adv-x="1040" d="M 881 127 L 856 0 L -25 0 L 0 127 L 879 1264 L 246 1264 L 270 1393 L 1087 1393 L 1063 1266 L 180 127 L 881 127 Z M 837 1741 L 984 1741 L 984 1733 L 683 1450 L 429 1733 L 429 1741 L 593 1741 L 706 1610 L 837 1741 Z" unicode="Ž" />
<glyph horiz-adv-x="854" d="M 670 119 L 647 0 L -49 0 L -27 115 L 616 872 L 143 872 L 168 991 L 809 991 L 788 879 L 145 119 L 670 119 Z M 649 1434 L 780 1434 L 780 1425 L 487 1092 L 251 1425 L 251 1434 L 393 1434 L 511 1270 L 649 1434 Z" unicode="ž" />
<glyph horiz-adv-x="791" d="M 119 743 L 139 850 L 332 850 L 348 934 C 376 1084 430 1198 509 1274 C 588 1350 691 1389 819 1389 C 838 1389 856 1387 873 1385 C 889 1382 910 1378 936 1374 L 895 1255 C 868 1259 847 1262 832 1264 C 816 1265 801 1266 786 1266 C 712 1266 651 1240 605 1190 C 558 1140 525 1064 506 963 L 483 850 L 762 850 L 741 743 L 463 743 L 324 43 C 301 -97 255 -208 186 -289 C 117 -370 28 -419 -80 -436 L -109 -317 C -26 -303 36 -265 80 -203 C 124 -141 158 -43 184 92 L 311 743 L 119 743 Z" unicode="ƒ" />
<glyph horiz-adv-x="981" d="M 6 119 L 94 225 L 115 201 C 143 170 181 145 228 127 C 275 109 325 100 377 100 C 465 100 536 127 589 182 C 641 236 668 310 668 403 C 668 449 658 487 638 517 C 618 547 581 578 528 610 C 432 668 370 708 340 730 C 310 752 284 778 262 807 C 240 834 224 865 213 900 C 202 935 197 972 197 1010 C 197 1124 240 1220 326 1298 C 412 1376 518 1415 645 1415 C 696 1415 746 1406 794 1389 C 842 1371 881 1348 911 1319 L 942 1288 L 870 1178 L 846 1202 C 816 1232 783 1253 749 1267 C 715 1281 677 1288 635 1288 C 554 1288 487 1263 433 1213 C 379 1163 352 1101 352 1026 C 352 980 362 941 382 911 C 402 881 438 851 490 821 C 582 766 641 730 665 713 C 689 696 713 676 737 653 C 769 621 792 587 806 551 C 820 514 827 472 827 426 C 827 292 784 184 699 100 C 613 16 503 -25 367 -25 C 296 -25 233 -15 177 5 C 121 25 73 54 33 92 L 6 119 Z M 315 -61 L 497 -61 L 325 -475 L 202 -428 L 315 -61 Z" unicode="Ș" />
<glyph horiz-adv-x="803" d="M 715 930 L 645 827 C 607 851 573 868 543 878 C 513 888 480 893 444 893 C 382 893 332 879 296 851 C 260 823 242 786 242 739 C 242 708 250 683 266 663 C 282 643 314 620 360 596 C 472 538 545 490 579 453 C 612 416 629 365 629 299 C 629 199 598 120 536 62 C 474 4 389 -25 283 -25 C 221 -25 167 -17 121 -2 C 75 12 28 38 -18 74 L 59 180 C 99 147 136 124 170 111 C 204 98 245 92 293 92 C 356 92 404 107 438 138 C 472 169 489 214 489 272 C 489 316 477 348 454 369 C 430 390 360 432 242 494 C 194 518 158 549 134 586 C 110 622 98 665 98 713 C 98 801 131 874 198 930 C 264 986 351 1014 457 1014 C 511 1014 557 1007 596 995 C 634 982 674 960 715 930 Z M 217 -61 L 399 -61 L 227 -475 L 104 -428 L 217 -61 Z" unicode="ș" />
<glyph horiz-adv-x="948" d="M 426 0 L 266 0 L 512 1264 L 147 1264 L 172 1393 L 1063 1393 L 1038 1264 L 672 1264 L 426 0 Z M 241 -61 L 423 -61 L 251 -475 L 128 -428 L 241 -61 Z" unicode="Ț" />
<glyph horiz-adv-x="707" d="M 80 870 L 102 985 L 274 985 L 344 1337 L 489 1337 L 420 985 L 668 985 L 645 870 L 391 870 L 291 369 C 283 333 278 303 276 279 C 273 255 272 231 272 207 C 272 178 277 156 289 141 C 300 126 316 119 338 119 C 369 119 399 129 427 149 C 455 169 491 208 537 264 L 594 176 L 547 123 C 507 79 465 46 422 24 C 379 2 333 -8 285 -8 C 231 -8 191 7 164 39 C 136 70 123 116 123 178 C 123 201 124 228 128 258 C 132 288 137 320 143 354 L 246 870 L 80 870 Z M 191 -61 L 373 -61 L 201 -475 L 78 -428 L 191 -61 Z" unicode="ț" />
<glyph horiz-adv-x="430" d="M 322 1489 L 500 1489 L 332 993 L 205 1036 L 322 1489 Z" unicode="ʻ" />
<glyph horiz-adv-x="721" d="M 227 1120 L 96 1120 L 96 1128 L 389 1462 L 625 1128 L 625 1120 L 483 1120 L 367 1270 L 227 1120 Z" unicode="ˆ" />
<glyph horiz-adv-x="721" d="M 494 1434 L 625 1434 L 625 1425 L 332 1092 L 96 1425 L 96 1434 L 238 1434 L 356 1270 L 494 1434 Z" unicode="ˇ" />
<glyph horiz-adv-x="741" d="M 96 1196 L 121 1321 L 645 1321 L 621 1196 L 96 1196 Z" unicode="ˉ" />
<glyph horiz-adv-x="707" d="M 508 1421 L 610 1376 C 591 1294 558 1232 512 1190 C 465 1147 406 1126 334 1126 C 266 1126 213 1145 175 1185 C 137 1225 110 1288 96 1376 L 199 1421 C 215 1355 234 1310 258 1284 C 281 1258 314 1245 356 1245 C 392 1245 422 1259 446 1287 C 470 1315 491 1359 508 1421 Z" unicode="˘" />
<glyph horiz-adv-x="408" d="M 205 1393 C 235 1393 261 1382 281 1361 C 301 1340 311 1314 311 1284 C 311 1253 301 1228 281 1208 C 261 1188 235 1178 205 1178 C 174 1178 148 1188 127 1209 C 106 1229 96 1254 96 1284 C 96 1316 106 1342 127 1362 C 148 1382 174 1393 205 1393 Z" unicode="˙" />
<glyph horiz-adv-x="596" d="M 301 1454 C 359 1454 406 1437 444 1403 C 481 1369 500 1326 500 1274 C 500 1220 481 1176 444 1142 C 406 1108 358 1092 299 1092 C 239 1092 190 1108 152 1142 C 114 1176 96 1220 96 1274 C 96 1328 115 1371 153 1404 C 191 1437 241 1454 301 1454 Z M 297 1360 C 270 1360 249 1352 233 1336 C 217 1320 209 1299 209 1272 C 209 1245 216 1224 232 1209 C 248 1193 270 1186 299 1186 C 327 1186 349 1193 365 1209 C 381 1225 389 1246 389 1274 C 389 1300 380 1321 364 1337 C 348 1352 325 1360 297 1360 Z" unicode="˚" />
<glyph horiz-adv-x="29" d="M -311 -270 L -293 -377 C -333 -398 -373 -414 -415 -426 C -456 -438 -497 -444 -537 -444 C -600 -444 -648 -431 -682 -406 C -716 -380 -733 -343 -733 -295 C -733 -262 -723 -230 -704 -199 C -685 -168 -658 -140 -623 -115 C -594 -93 -564 -74 -534 -56 C -503 -38 -432 -1 -322 57 L -270 57 C -387 -25 -467 -89 -510 -133 C -553 -177 -575 -219 -575 -258 C -575 -280 -568 -297 -554 -308 C -540 -318 -517 -324 -487 -324 C -456 -324 -428 -320 -402 -312 C -376 -304 -345 -290 -311 -270 Z" unicode="˛" />
<glyph horiz-adv-x="836" d="M 170 1139 L 96 1208 C 119 1270 146 1316 176 1346 C 206 1376 241 1391 281 1391 C 307 1391 332 1386 355 1377 C 378 1367 415 1348 465 1319 C 483 1307 500 1299 514 1295 C 528 1290 541 1288 555 1288 C 579 1288 599 1295 613 1311 C 627 1326 644 1358 666 1407 L 739 1339 C 720 1282 695 1238 664 1207 C 632 1176 597 1161 557 1161 C 534 1161 510 1166 484 1176 C 458 1186 429 1201 395 1223 C 370 1237 350 1248 336 1254 C 322 1260 307 1264 293 1264 C 266 1264 243 1254 224 1235 C 205 1215 187 1183 170 1139 Z" unicode="˜" />
<glyph horiz-adv-x="846" d="M 96 1120 L 297 1405 L 463 1405 L 463 1397 L 238 1120 L 96 1120 Z M 383 1120 L 584 1405 L 750 1405 L 750 1397 L 524 1120 L 383 1120 Z" unicode="˝" />
<glyph horiz-adv-x="1151" d="M 1020 0 L -88 0 L 729 1452 L 756 1452 L 1020 0 Z M 831 123 L 668 1028 L 653 1028 L 154 123 L 831 123 Z" unicode="Δ" />
<glyph horiz-adv-x="1321" d="M 809 287 L 805 115 L 1018 115 L 995 0 L 670 0 L 688 381 C 758 395 815 415 859 439 C 903 463 944 498 981 543 C 1023 595 1056 655 1080 724 C 1104 793 1116 864 1116 936 C 1116 1052 1089 1141 1037 1201 C 984 1261 907 1292 805 1292 C 737 1292 675 1278 618 1250 C 561 1222 511 1181 467 1126 C 423 1072 388 1008 363 935 C 338 862 326 791 326 721 C 326 627 347 552 389 496 C 431 440 494 401 580 381 L 451 0 L 125 0 L 147 115 L 358 115 L 422 287 C 335 322 270 376 228 448 C 185 520 164 610 164 719 C 164 915 227 1081 355 1216 C 483 1351 639 1419 825 1419 C 905 1419 974 1407 1032 1384 C 1090 1360 1138 1324 1176 1276 C 1209 1234 1235 1183 1253 1125 C 1271 1066 1280 1004 1280 938 C 1280 781 1237 644 1152 526 C 1067 408 953 329 809 287 Z" unicode="Ω" />
<glyph horiz-adv-x="1149" d="M 895 991 L 1047 991 L 915 324 C 910 295 906 267 903 239 C 900 211 899 183 899 156 C 899 133 900 113 902 96 C 904 78 909 55 915 27 L 780 -29 C 771 7 765 37 762 60 C 758 82 756 111 756 145 L 741 145 C 703 91 662 52 619 28 C 575 4 524 -8 465 -8 C 411 -8 367 0 334 15 C 301 31 274 57 254 94 L 238 94 L 139 -379 L -35 -379 L 39 -133 C 69 -31 91 43 104 91 C 117 138 127 177 133 207 L 272 991 L 424 991 L 313 432 C 309 407 305 382 303 358 C 300 334 299 312 299 293 C 299 235 314 192 345 164 C 375 135 421 121 483 121 C 572 121 640 147 686 201 C 732 254 769 346 795 477 L 895 991 Z" unicode="μ" />
<glyph horiz-adv-x="1303" d="M 215 0 L 389 895 C 356 890 323 876 289 854 C 255 831 224 802 197 766 L 119 854 C 171 914 224 957 279 985 C 334 1012 397 1026 467 1026 C 515 1026 557 1023 595 1017 C 633 1011 709 996 823 971 C 847 966 879 961 918 957 C 956 952 986 950 1008 950 C 1052 950 1089 957 1118 972 C 1147 987 1181 1017 1219 1061 L 1290 973 C 1268 938 1238 907 1198 880 C 1158 852 1119 835 1079 829 L 918 0 L 766 0 L 928 825 L 541 891 L 367 0 L 215 0 Z" unicode="π" />
<glyph horiz-adv-x="662" d="M 520 537 L 98 537 L 129 698 L 553 698 L 520 537 Z" unicode="‐" />
<glyph horiz-adv-x="1069" d="M 119 618 L 147 766 L 950 766 L 922 618 L 119 618 Z" unicode="–" />
<glyph horiz-adv-x="1679" d="M 1507 625 L 170 625 L 199 766 L 1534 766 L 1507 625 Z" unicode="—" />
<glyph horiz-adv-x="430" d="M 322 1489 L 500 1489 L 332 993 L 205 1036 L 322 1489 Z" unicode="‘" />
<glyph horiz-adv-x="430" d="M 322 1489 L 500 1489 L 332 993 L 205 1036 L 322 1489 Z" unicode="’" />
<glyph horiz-adv-x="465" d="M 86 231 L 266 231 L 84 -301 L -39 -260 L 86 231 Z" unicode="‚" />
<glyph horiz-adv-x="745" d="M 313 1489 L 485 1489 L 315 993 L 197 1036 L 313 1489 Z M 641 1489 L 813 1489 L 643 993 L 524 1036 L 641 1489 Z" unicode="“" />
<glyph horiz-adv-x="745" d="M 313 1489 L 485 1489 L 315 993 L 197 1036 L 313 1489 Z M 641 1489 L 813 1489 L 643 993 L 524 1036 L 641 1489 Z" unicode="”" />
<glyph horiz-adv-x="778" d="M 80 231 L 254 231 L 72 -301 L -45 -260 L 80 231 Z M 408 231 L 582 231 L 399 -301 L 283 -260 L 408 231 Z" unicode="„" />
<glyph horiz-adv-x="866" d="M 416 918 L 98 907 L 123 1034 L 436 1026 L 494 1393 L 655 1393 L 569 1026 L 887 1034 L 862 907 L 549 918 L 383 0 L 225 0 L 416 918 Z" unicode="†" />
<glyph horiz-adv-x="956" d="M 477 920 L 162 909 L 186 1036 L 494 1026 L 555 1393 L 721 1393 L 637 1026 L 950 1036 L 926 909 L 612 920 L 532 504 L 848 512 L 823 385 L 514 395 L 446 0 L 287 0 L 371 395 L 59 385 L 84 512 L 397 504 L 477 920 Z" unicode="‡" />
<glyph horiz-adv-x="866" d="M 473 956 C 545 956 606 930 657 879 C 707 827 733 765 733 692 C 733 618 707 555 656 504 C 605 453 543 428 469 428 C 394 428 331 453 281 504 C 230 555 205 618 205 692 C 205 767 230 830 281 880 C 332 930 396 956 473 956 Z" unicode="•" />
<glyph horiz-adv-x="2568" d="M 448 242 C 484 242 514 229 538 204 C 562 179 575 149 575 113 C 575 77 562 46 538 22 C 513 -1 482 -14 446 -14 C 410 -14 380 -1 356 22 C 331 46 319 77 319 113 C 319 149 331 179 356 204 C 381 229 412 242 448 242 Z M 1293 242 C 1329 242 1359 229 1383 204 C 1407 179 1420 149 1420 113 C 1420 77 1407 46 1383 22 C 1358 -1 1327 -14 1291 -14 C 1255 -14 1225 -1 1201 22 C 1176 46 1164 77 1164 113 C 1164 149 1176 179 1201 204 C 1226 229 1257 242 1293 242 Z M 2141 242 C 2177 242 2207 229 2231 204 C 2255 179 2268 149 2268 113 C 2268 77 2255 46 2231 22 C 2206 -1 2175 -14 2139 -14 C 2103 -14 2073 -1 2049 22 C 2024 46 2012 77 2012 113 C 2012 149 2024 179 2049 204 C 2074 229 2105 242 2141 242 Z" unicode="…" />
<glyph horiz-adv-x="2267" d="M 522 1405 C 592 1405 648 1380 689 1330 C 729 1280 750 1213 750 1128 C 750 1039 731 953 694 871 C 656 788 608 726 549 686 C 522 666 493 652 462 644 C 431 635 396 631 358 631 C 282 631 224 654 182 701 C 140 747 119 811 119 893 C 119 967 133 1042 162 1118 C 190 1194 228 1255 274 1303 C 308 1336 345 1361 387 1379 C 428 1396 473 1405 522 1405 Z M 496 1290 C 470 1290 445 1284 421 1272 C 397 1260 377 1243 362 1223 C 331 1183 306 1133 288 1075 C 269 1017 260 960 260 905 C 260 853 270 813 291 785 C 311 757 341 743 379 743 C 421 743 457 756 486 784 C 515 811 541 856 565 918 C 578 953 588 991 596 1033 C 604 1074 608 1112 608 1147 C 608 1195 598 1230 580 1254 C 561 1278 533 1290 496 1290 Z M 1247 762 C 1317 762 1373 737 1414 687 C 1454 637 1475 570 1475 485 C 1475 396 1456 310 1419 228 C 1381 145 1333 83 1274 43 C 1247 23 1218 9 1187 1 C 1156 -7 1121 -12 1083 -12 C 1007 -12 949 11 907 58 C 865 104 844 168 844 250 C 844 324 858 399 887 475 C 915 551 953 612 999 659 C 1033 693 1070 718 1112 736 C 1153 753 1198 762 1247 762 Z M 1221 647 C 1195 647 1170 641 1146 629 C 1122 617 1102 600 1087 580 C 1056 540 1031 490 1013 432 C 994 374 985 317 985 262 C 985 210 995 170 1016 142 C 1036 114 1066 100 1104 100 C 1146 100 1182 113 1211 140 C 1240 167 1266 212 1290 274 C 1303 310 1313 348 1321 390 C 1329 431 1333 469 1333 504 C 1333 552 1323 587 1305 611 C 1286 635 1258 647 1221 647 Z M 1944 762 C 2014 762 2069 737 2110 687 C 2150 637 2171 570 2171 485 C 2171 396 2152 310 2115 228 C 2077 145 2029 83 1970 43 C 1943 23 1914 9 1884 1 C 1853 -7 1818 -12 1780 -12 C 1704 -12 1645 11 1603 58 C 1561 104 1540 168 1540 250 C 1540 324 1554 399 1583 475 C 1612 551 1650 612 1696 659 C 1729 693 1766 718 1808 736 C 1849 753 1894 762 1944 762 Z M 1917 647 C 1891 647 1867 641 1843 629 C 1819 617 1799 600 1784 580 C 1753 540 1728 490 1709 432 C 1690 374 1681 317 1681 262 C 1681 210 1691 170 1712 142 C 1732 114 1762 100 1800 100 C 1842 100 1878 113 1907 140 C 1936 167 1963 212 1987 274 C 1999 310 2010 348 2018 390 C 2026 431 2030 469 2030 504 C 2030 552 2020 587 2002 611 C 1983 635 1955 647 1917 647 Z M 1296 1354 L 401 -18 L 297 35 L 1192 1409 L 1296 1354 Z" unicode="‰" />
<glyph horiz-adv-x="649" d="M 399 940 L 555 940 L 266 582 L 418 231 L 281 231 L 70 578 L 399 940 Z" unicode="‹" />
<glyph horiz-adv-x="649" d="M 176 231 L 20 231 L 311 590 L 158 940 L 295 940 L 506 594 L 176 231 Z" unicode="›" />
<glyph horiz-adv-x="371" d="M 723 1354 L -170 -18 L -274 35 L 621 1409 L 723 1354 Z" unicode="⁄" />
<glyph horiz-adv-x="1188" d="M 236 543 L 76 543 L 96 649 L 246 649 L 274 797 L 125 797 L 145 903 L 309 903 C 365 1057 450 1181 565 1274 C 679 1366 804 1413 938 1413 C 996 1413 1050 1403 1102 1384 C 1153 1365 1197 1338 1233 1303 L 1268 1268 L 1184 1163 L 1159 1188 C 1132 1217 1098 1240 1058 1257 C 1017 1273 974 1282 930 1282 C 829 1282 740 1250 663 1186 C 585 1122 523 1027 475 903 L 934 903 L 879 797 L 438 797 L 408 649 L 817 649 L 756 543 L 397 543 L 397 494 C 397 365 420 268 468 203 C 516 138 587 106 682 106 C 747 106 805 119 855 145 C 905 171 960 217 1018 281 L 1092 193 C 1019 116 949 61 883 29 C 816 -3 740 -20 655 -20 C 521 -20 418 23 344 110 C 270 197 233 320 233 479 C 233 489 233 498 233 504 C 233 510 234 523 236 543 Z" unicode="€" />
<glyph horiz-adv-x="1233" d="M 795 920 L 690 920 L 719 1499 L 848 1499 L 999 1087 L 1147 1499 L 1274 1499 L 1305 920 L 1200 920 L 1186 1331 L 1176 1331 L 1036 936 L 956 936 L 813 1331 L 801 1331 L 795 920 Z M 502 920 L 391 920 L 391 1409 L 250 1409 L 250 1499 L 641 1499 L 641 1409 L 502 1409 L 502 920 Z" unicode="™" />
<glyph horiz-adv-x="1321" d="M 809 287 L 805 115 L 1018 115 L 995 0 L 670 0 L 688 381 C 758 395 815 415 859 439 C 903 463 944 498 981 543 C 1023 595 1056 655 1080 724 C 1104 793 1116 864 1116 936 C 1116 1052 1089 1141 1037 1201 C 984 1261 907 1292 805 1292 C 737 1292 675 1278 618 1250 C 561 1222 511 1181 467 1126 C 423 1072 388 1008 363 935 C 338 862 326 791 326 721 C 326 627 347 552 389 496 C 431 440 494 401 580 381 L 451 0 L 125 0 L 147 115 L 358 115 L 422 287 C 335 322 270 376 228 448 C 185 520 164 610 164 719 C 164 915 227 1081 355 1216 C 483 1351 639 1419 825 1419 C 905 1419 974 1407 1032 1384 C 1090 1360 1138 1324 1176 1276 C 1209 1234 1235 1183 1253 1125 C 1271 1066 1280 1004 1280 938 C 1280 781 1237 644 1152 526 C 1067 408 953 329 809 287 Z" unicode="Ω" />
<glyph horiz-adv-x="1044" d="M 573 995 L 549 864 C 485 855 436 839 401 815 C 366 791 333 753 303 700 C 278 658 258 607 242 548 C 226 489 219 437 219 391 C 219 360 222 326 228 289 C 234 252 241 221 250 197 C 264 161 287 134 319 116 C 350 98 392 90 444 90 C 499 90 547 103 588 129 C 629 155 666 196 700 252 C 730 300 754 359 772 429 C 790 499 799 567 799 633 C 799 703 787 768 763 830 C 739 891 706 942 664 983 L 383 1255 L 457 1489 L 592 1489 L 535 1319 L 741 1110 C 812 1038 865 965 899 889 C 933 813 950 731 950 643 C 950 446 901 285 803 159 C 705 33 580 -29 426 -29 C 360 -29 303 -19 257 0 C 211 20 173 50 145 90 C 120 126 101 168 88 216 C 74 264 68 315 68 369 C 68 469 89 569 133 668 C 176 767 231 843 297 895 C 337 925 380 949 427 966 C 473 983 522 993 573 995 Z" unicode="∂" />
<glyph horiz-adv-x="1151" d="M 1020 0 L -88 0 L 729 1452 L 756 1452 L 1020 0 Z M 831 123 L 668 1028 L 653 1028 L 154 123 L 831 123 Z" unicode="∆" />
<glyph horiz-adv-x="1350" d="M 1382 1393 L 1358 1268 L 1239 1268 L 991 0 L 834 0 L 1081 1272 L 547 1272 L 299 0 L 141 0 L 387 1268 L 268 1268 L 293 1393 L 1382 1393 Z" unicode="∏" />
<glyph horiz-adv-x="1067" d="M 16 0 L 43 137 L 592 723 L 254 1255 L 281 1393 L 1096 1393 L 1071 1264 L 436 1264 L 772 731 L 215 127 L 918 127 L 893 0 L 16 0 Z" unicode="∑" />
<glyph horiz-adv-x="1069" d="M 119 618 L 147 766 L 950 766 L 922 618 L 119 618 Z" unicode="−" />
<glyph horiz-adv-x="371" d="M 723 1354 L -170 -18 L -274 35 L 621 1409 L 723 1354 Z" unicode="∕" />
<glyph horiz-adv-x="610" d="M 344 842 C 384 842 419 827 448 798 C 477 769 492 734 492 692 C 492 650 477 614 448 586 C 419 557 384 543 342 543 C 300 543 264 557 236 586 C 207 614 193 650 193 692 C 193 734 207 770 235 799 C 263 827 300 842 344 842 Z" unicode="∙" />
<glyph horiz-adv-x="1016" d="M 240 920 L 92 920 L 115 1036 L 410 1036 L 379 -35 L 399 -35 L 983 1659 L 2165 1659 L 2130 1487 L 1063 1487 L 418 -313 L 231 -313 L 240 920 Z" unicode="√" />
<glyph horiz-adv-x="1069" d="M 575 842 C 611 898 647 939 685 966 C 723 992 765 1006 811 1006 C 861 1006 900 987 929 951 C 958 915 973 865 973 801 C 973 681 945 581 890 500 C 835 419 766 379 684 379 C 654 379 626 385 600 399 C 573 413 553 431 541 455 C 533 467 527 479 523 493 C 518 507 512 528 504 557 C 467 495 429 449 390 420 C 351 391 308 377 260 377 C 210 377 171 394 143 430 C 115 466 102 516 102 582 C 102 698 130 798 188 881 C 246 964 316 1006 399 1006 C 441 1006 476 992 506 965 C 535 937 558 896 575 842 Z M 483 649 C 483 653 484 656 484 660 C 484 663 485 665 485 666 C 485 676 483 691 479 713 C 475 734 471 755 467 776 C 461 803 450 823 436 836 C 421 849 401 856 377 856 C 332 856 295 833 265 789 C 235 744 221 689 221 623 C 221 587 229 558 247 537 C 264 516 287 506 317 506 C 336 506 354 510 371 519 C 387 527 405 542 424 563 C 436 575 449 592 463 612 C 476 632 483 644 483 649 Z M 590 721 C 589 717 588 713 588 710 C 588 707 588 704 588 702 C 588 694 589 679 593 657 C 597 635 601 614 606 594 C 612 567 622 547 637 535 C 652 522 672 516 698 516 C 742 516 778 538 808 582 C 837 626 852 681 852 748 C 852 782 843 809 826 830 C 808 851 785 862 756 862 C 736 862 718 858 702 850 C 686 842 668 827 649 807 C 637 793 624 777 611 757 C 597 737 590 725 590 721 Z" unicode="∞" />
<glyph horiz-adv-x="748" d="M -272 -184 L -176 -92 C -147 -126 -121 -149 -98 -161 C -75 -172 -44 -178 -6 -178 C 55 -178 104 -153 141 -103 C 178 -53 207 29 229 143 L 434 1188 C 461 1330 511 1440 584 1517 C 657 1593 748 1632 856 1632 C 911 1632 958 1622 998 1604 C 1038 1585 1072 1558 1100 1522 L 1004 1430 C 974 1462 948 1483 926 1493 C 904 1502 871 1507 829 1507 C 769 1507 720 1482 683 1433 C 646 1383 617 1304 596 1194 L 393 147 C 364 1 314 -109 243 -187 C 172 -264 84 -303 -20 -303 C -77 -303 -126 -293 -167 -274 C -208 -254 -243 -224 -272 -184 Z" unicode="∫" />
<glyph horiz-adv-x="1069" d="M 197 326 L 90 391 C 147 491 196 562 238 602 C 279 642 323 662 371 662 C 399 662 423 655 443 641 C 463 627 499 591 553 535 C 570 515 586 501 601 492 C 616 483 631 479 647 479 C 670 479 692 491 712 515 C 732 539 758 585 791 653 L 901 592 C 856 494 812 423 769 379 C 725 335 679 313 629 313 C 599 313 571 321 546 338 C 520 355 492 383 461 422 C 439 448 421 467 405 479 C 389 490 373 496 356 496 C 331 496 311 487 295 470 C 279 453 247 405 197 326 Z M 276 733 L 170 801 C 227 900 276 969 318 1009 C 359 1049 403 1069 451 1069 C 479 1069 503 1062 523 1048 C 543 1034 579 999 631 942 C 649 922 666 908 681 900 C 696 891 711 887 727 887 C 750 887 771 899 791 923 C 811 947 837 993 870 1063 L 981 999 C 936 902 892 831 848 787 C 804 743 757 721 707 721 C 678 721 651 729 625 746 C 599 763 571 791 541 829 C 519 855 501 874 485 886 C 469 897 452 903 436 903 C 411 903 391 894 376 878 C 360 862 327 813 276 733 Z" unicode="≈" />
<glyph horiz-adv-x="1069" d="M 602 893 L 809 1206 L 909 1153 L 735 893 L 958 893 L 934 766 L 649 766 L 557 618 L 905 618 L 881 492 L 477 492 L 252 150 L 152 205 L 344 492 L 109 492 L 133 618 L 430 618 L 520 766 L 162 766 L 186 893 L 602 893 Z" unicode="≠" />
<glyph horiz-adv-x="1069" d="M 1018 1171 L 1030 1032 L 393 797 L 391 786 L 936 551 L 872 420 L 193 735 L 217 860 L 1018 1171 Z M 88 199 L 113 328 L 893 328 L 866 199 L 88 199 Z" unicode="≤" />
<glyph horiz-adv-x="1069" d="M 158 420 L 145 559 L 780 793 L 784 805 L 240 1040 L 303 1171 L 983 856 L 958 731 L 158 420 Z M 76 199 L 100 328 L 881 328 L 854 199 L 76 199 Z" unicode="≥" />
<glyph horiz-adv-x="1022" d="M 997 700 L 395 -84 L 367 -84 L 66 686 L 668 1462 L 694 1462 L 997 700 Z M 238 678 L 422 180 L 440 180 L 831 702 L 637 1188 L 616 1188 L 238 678 Z" unicode="◊" />
<glyph horiz-adv-x="471" d="M 209 1393 L 375 1393 L 215 995 L 96 1036 L 209 1393 Z" unicode="" />
<glyph horiz-adv-x="487" d="M 209 -61 L 391 -61 L 219 -475 L 96 -428 L 209 -61 Z" unicode="" />
<glyph horiz-adv-x="629" d="M 96 1470 L 96 1481 L 279 1679 L 532 1679 L 532 1669 L 262 1470 L 96 1470 Z" unicode="" />
<glyph horiz-adv-x="748" d="M 504 1741 L 651 1741 L 651 1733 L 350 1450 L 96 1733 L 96 1741 L 260 1741 L 373 1610 L 504 1741 Z" unicode="" />
<glyph horiz-adv-x="956" d="M 217 1688 C 249 1688 277 1676 300 1653 C 322 1630 334 1602 334 1569 C 334 1535 322 1506 300 1484 C 277 1461 249 1450 215 1450 C 181 1450 152 1461 130 1484 C 107 1506 96 1535 96 1569 C 96 1602 107 1630 130 1653 C 153 1676 182 1688 217 1688 Z M 743 1688 C 775 1688 803 1676 826 1653 C 848 1630 860 1602 860 1569 C 860 1535 848 1506 826 1484 C 803 1461 775 1450 741 1450 C 707 1450 679 1461 657 1484 C 634 1506 623 1535 623 1569 C 623 1602 634 1630 657 1653 C 680 1676 709 1688 743 1688 Z" unicode="" />
<glyph horiz-adv-x="629" d="M 532 1470 L 360 1470 L 96 1669 L 96 1679 L 350 1679 L 532 1481 L 532 1470 Z" unicode="" />
<glyph horiz-adv-x="971" d="M 96 1470 L 96 1481 L 279 1679 L 520 1679 L 520 1669 L 256 1470 L 96 1470 Z M 451 1470 L 451 1481 L 633 1679 L 874 1679 L 874 1669 L 610 1470 L 451 1470 Z" unicode="" />
<glyph horiz-adv-x="743" d="M 96 1491 L 123 1630 L 647 1630 L 621 1491 L 96 1491 Z" unicode="" />
<glyph horiz-adv-x="1143" d="M 250 0 L 98 0 L 268 870 L 94 870 L 117 985 L 291 985 L 297 1016 C 312 1099 332 1169 358 1226 C 383 1282 415 1330 453 1368 C 490 1406 535 1436 587 1458 C 639 1480 691 1491 743 1491 C 828 1491 908 1469 983 1426 C 1058 1382 1096 1336 1096 1286 C 1096 1254 1085 1228 1065 1208 C 1045 1188 1019 1178 989 1178 C 958 1178 932 1188 912 1209 C 891 1229 881 1254 881 1284 C 881 1290 882 1298 884 1307 C 886 1315 891 1326 897 1339 C 864 1352 833 1362 805 1368 C 777 1374 749 1378 723 1378 C 655 1378 598 1350 553 1295 C 507 1239 474 1157 453 1049 L 440 985 L 694 985 L 672 870 L 418 870 L 250 0 Z M 682 0 L 874 991 L 1026 991 L 834 0 L 682 0 Z" unicode="ﬁ" />
<glyph horiz-adv-x="1169" d="M 94 870 L 117 985 L 291 985 L 297 1016 C 312 1099 333 1170 359 1228 C 385 1286 418 1334 457 1372 C 492 1408 535 1437 586 1459 C 636 1480 687 1491 737 1491 C 803 1491 869 1482 936 1466 C 1003 1450 1067 1426 1128 1395 L 858 0 L 709 0 L 965 1325 C 924 1342 887 1354 853 1361 C 819 1368 783 1372 745 1372 C 665 1372 603 1347 559 1297 C 514 1247 479 1165 455 1049 L 440 985 L 694 985 L 672 870 L 418 870 L 250 0 L 98 0 L 268 870 L 94 870 Z" unicode="ﬂ" />
</font>
</defs>
</svg>
