<?xml version="1.0" encoding="utf-8" ?><svg version="1.1" xmlns = 'http://www.w3.org/2000/svg'><defs><font id='web' horiz-adv-x="1000">
<font-face font-family="web" descent="-463" cap-height="1399" units-per-em="2048" bbox="-285,-477,2462,1915" x-height="926" ascent="1530" />
<missing-glyph horiz-adv-x="483" d="" /><glyph horiz-adv-x="483" d="" unicode=" " />
<glyph horiz-adv-x="748" d="M 506 1294 C 506 1270 500 1212 488 1120 C 443 786 415 556 403 430 L 350 430 C 337 586 317 767 290 974 C 264 1162 252 1268 252 1294 C 252 1333 264 1366 288 1393 C 312 1420 342 1434 379 1434 C 415 1434 446 1420 470 1394 C 494 1367 506 1334 506 1294 Z M 516 111 C 516 72 502 40 475 14 C 448 -12 416 -25 379 -25 C 341 -25 309 -12 282 14 C 255 40 242 72 242 111 C 242 149 255 182 283 208 C 310 234 342 248 379 248 C 415 248 447 234 475 208 C 502 182 516 149 516 111 Z" unicode="!" />
<glyph horiz-adv-x="803" d="M 715 1397 C 715 1380 706 1338 690 1272 C 668 1182 647 1081 627 967 L 573 967 C 555 1083 529 1210 496 1347 C 491 1365 489 1382 489 1397 C 489 1427 498 1454 517 1476 C 536 1498 564 1509 602 1509 C 639 1509 667 1498 686 1476 C 705 1454 715 1427 715 1397 Z M 313 1397 C 313 1380 304 1338 288 1272 C 266 1182 245 1081 225 967 L 172 967 C 154 1083 128 1210 95 1347 C 90 1365 88 1382 88 1397 C 88 1427 97 1454 116 1476 C 135 1498 163 1509 201 1509 C 237 1509 265 1498 284 1476 C 303 1454 313 1427 313 1397 Z" unicode="&#x22;" />
<glyph horiz-adv-x="1188" d="M 993 461 L 764 406 L 764 -14 L 715 -14 L 715 391 L 475 332 L 475 -14 L 426 -14 L 426 317 L 199 262 L 199 449 L 426 504 L 426 711 L 199 655 L 199 842 L 426 897 L 426 1284 L 475 1284 L 475 911 L 715 971 L 715 1284 L 764 1284 L 764 985 L 993 1040 L 993 854 L 764 799 L 764 592 L 993 647 L 993 461 Z M 715 578 L 715 784 L 475 725 L 475 518 L 715 578 Z" unicode="#" />
<glyph horiz-adv-x="1260" d="M 1100 385 C 1100 286 1070 202 1010 133 C 950 63 867 18 762 -2 L 762 -291 L 717 -291 L 717 -8 C 685 -12 652 -14 616 -14 L 591 -14 L 565 -12 L 565 -291 L 520 -291 L 520 -8 C 412 8 326 41 262 93 C 198 144 166 204 166 274 C 166 326 176 365 198 393 C 220 420 251 434 293 434 C 326 434 350 423 366 402 C 381 381 389 356 389 328 C 389 306 386 290 382 280 C 378 269 372 260 366 254 C 359 247 352 240 344 234 C 336 228 328 218 322 205 C 322 159 339 122 373 95 C 407 67 456 49 520 41 L 520 551 C 421 565 341 604 281 666 C 220 728 190 801 190 887 C 190 983 219 1065 279 1132 C 339 1199 419 1242 520 1260 L 520 1460 L 565 1460 L 565 1266 C 591 1268 619 1270 649 1270 L 717 1266 L 717 1460 L 762 1460 L 762 1262 C 849 1248 919 1220 973 1178 C 1026 1136 1053 1084 1053 1022 C 1053 977 1044 942 1026 917 C 1008 891 983 879 950 879 C 922 879 898 886 880 901 C 861 915 852 939 852 971 C 852 990 855 1005 861 1017 C 867 1029 874 1039 882 1049 C 890 1059 898 1069 906 1079 C 914 1089 921 1102 926 1118 C 912 1165 857 1196 762 1212 L 762 741 C 876 717 961 676 1017 618 C 1072 559 1100 481 1100 385 Z M 717 41 L 717 532 C 694 538 670 542 646 543 C 621 543 594 545 565 547 L 565 37 L 591 35 L 616 35 C 650 35 683 37 717 41 Z M 961 285 C 961 339 944 387 912 430 C 880 473 830 505 762 526 L 762 49 C 827 64 876 92 910 134 C 944 176 961 226 961 285 Z M 717 748 L 717 1219 L 683 1221 L 649 1221 C 616 1221 588 1218 565 1214 L 565 764 C 595 758 645 752 717 748 Z M 520 770 L 520 1208 C 461 1194 416 1170 384 1134 C 352 1098 336 1054 336 1001 C 336 935 350 884 380 848 C 409 812 456 786 520 770 Z" unicode="$" />
<glyph horiz-adv-x="1798" d="M 1665 293 C 1665 236 1649 183 1619 133 C 1588 83 1547 44 1495 15 C 1443 -14 1390 -29 1335 -29 C 1242 -29 1165 0 1105 60 C 1044 119 1014 196 1014 291 C 1014 348 1029 402 1059 454 C 1089 505 1129 546 1179 577 C 1229 607 1281 623 1335 623 C 1397 623 1453 609 1505 582 C 1556 554 1595 516 1623 466 C 1651 416 1665 359 1665 293 Z M 1366 1382 L 487 -201 L 428 -170 L 1303 1413 L 1366 1382 Z M 784 940 C 784 884 768 831 738 781 C 707 731 666 692 615 662 C 563 632 510 618 455 618 C 363 618 286 647 225 706 C 163 764 133 842 133 938 C 133 996 148 1050 178 1102 C 208 1154 249 1195 299 1225 C 349 1255 401 1270 455 1270 C 517 1270 573 1256 623 1229 C 673 1202 713 1164 741 1114 C 769 1064 784 1006 784 940 Z M 1503 289 C 1503 377 1488 446 1460 497 C 1431 547 1390 573 1337 573 C 1287 573 1247 548 1218 498 C 1188 448 1174 382 1174 299 C 1174 212 1188 144 1217 94 C 1245 44 1287 20 1341 20 C 1387 20 1426 45 1457 95 C 1487 145 1503 209 1503 289 Z M 623 936 C 623 1026 608 1096 580 1146 C 551 1196 510 1221 457 1221 C 406 1221 366 1196 337 1147 C 307 1098 293 1031 293 946 C 293 856 307 788 337 740 C 366 692 407 668 461 668 C 509 668 548 692 578 742 C 608 791 623 856 623 936 Z" unicode="%" />
<glyph horiz-adv-x="1522" d="M 1536 840 C 1448 830 1386 817 1349 802 C 1311 787 1281 766 1257 739 C 1242 722 1226 698 1210 667 C 1193 635 1174 600 1154 562 C 1134 523 1111 482 1086 440 C 1061 398 1033 357 1001 319 C 1034 277 1074 234 1120 190 C 1166 145 1205 115 1237 100 C 1268 85 1306 72 1352 62 C 1398 52 1441 46 1481 45 L 1481 0 L 1001 0 L 858 176 C 785 101 717 47 655 15 C 592 -16 529 -33 465 -33 C 391 -33 324 -19 264 8 C 204 35 157 74 124 125 C 90 176 74 236 74 305 C 74 391 98 467 146 533 C 194 599 284 674 418 760 C 358 854 318 925 299 973 C 279 1021 270 1067 270 1112 C 270 1170 285 1223 317 1272 C 349 1320 392 1358 447 1386 C 501 1413 560 1427 623 1427 C 701 1427 763 1402 810 1352 C 857 1302 881 1236 881 1153 C 881 1092 859 1033 817 975 C 775 917 712 863 629 813 C 728 667 841 517 967 362 C 1016 432 1056 500 1087 568 C 1117 636 1133 691 1133 735 C 1133 777 1071 812 948 840 L 948 883 L 1536 883 L 1536 840 Z M 786 1159 C 786 1222 771 1272 742 1309 C 712 1345 674 1364 627 1364 C 577 1364 538 1346 510 1310 C 481 1274 467 1228 467 1171 C 467 1127 477 1080 497 1030 C 517 980 552 922 600 856 C 666 896 713 940 742 989 C 771 1037 786 1094 786 1159 Z M 821 219 C 614 490 490 657 449 719 C 388 681 345 634 321 578 C 297 522 285 459 285 391 C 285 301 309 229 359 175 C 409 121 473 94 553 94 C 604 94 653 104 700 125 C 746 146 787 177 821 219 Z" unicode="&#x26;" />
<glyph horiz-adv-x="401" d="M 313 1397 C 313 1380 304 1338 288 1272 C 266 1182 245 1081 225 967 L 172 967 C 154 1083 128 1210 95 1347 C 90 1365 88 1382 88 1397 C 88 1427 97 1454 116 1476 C 135 1498 163 1509 201 1509 C 237 1509 265 1498 284 1476 C 303 1454 313 1427 313 1397 Z" unicode="'" />
<glyph horiz-adv-x="748" d="M 680 -272 L 594 -328 C 416 -194 288 -53 210 96 C 132 245 94 414 94 604 C 94 734 112 852 149 960 C 185 1068 238 1167 307 1257 C 375 1347 470 1439 592 1532 L 680 1477 C 567 1390 479 1304 416 1220 C 352 1135 304 1042 271 941 C 237 839 221 727 221 604 C 221 240 374 -51 680 -272 Z" unicode="(" />
<glyph horiz-adv-x="748" d="M 653 604 C 653 482 636 367 603 259 C 570 151 518 50 447 -43 C 376 -137 278 -232 154 -328 L 68 -272 C 227 -156 343 -25 416 120 C 489 265 526 426 526 604 C 526 778 490 936 420 1076 C 349 1216 232 1350 68 1477 L 156 1532 C 334 1396 461 1253 538 1103 C 614 953 653 786 653 604 Z" unicode=")" />
<glyph horiz-adv-x="805" d="M 674 997 C 674 976 667 960 655 950 C 642 939 629 934 616 934 C 608 934 599 938 589 947 C 579 955 566 967 550 981 C 534 995 515 1012 493 1031 C 471 1050 444 1070 414 1092 C 418 1036 431 971 452 897 C 455 883 457 872 457 864 C 457 848 452 835 442 825 C 432 814 417 809 399 809 C 362 809 344 827 344 864 C 344 874 345 885 349 899 C 371 984 384 1049 389 1094 C 342 1063 295 1026 249 983 C 213 950 190 934 178 934 C 166 934 153 940 141 953 C 129 965 123 980 123 997 C 123 1012 127 1023 136 1030 C 144 1036 159 1042 179 1048 C 199 1054 226 1061 260 1071 C 293 1081 334 1096 383 1118 C 336 1138 296 1153 264 1163 C 231 1172 204 1180 183 1186 C 162 1192 147 1199 137 1206 C 127 1213 123 1225 123 1241 C 123 1256 128 1270 138 1283 C 148 1296 161 1303 176 1303 C 186 1303 196 1298 208 1289 C 220 1280 234 1268 250 1254 C 266 1239 285 1222 307 1203 C 329 1184 355 1165 387 1145 C 382 1184 373 1231 360 1286 C 349 1329 344 1358 344 1372 C 344 1408 362 1427 399 1427 C 437 1427 457 1408 457 1372 C 457 1363 455 1352 452 1339 C 429 1256 416 1191 412 1145 C 444 1167 471 1188 493 1208 C 515 1227 533 1244 549 1258 C 565 1272 578 1283 589 1291 C 600 1299 611 1303 621 1303 C 635 1303 647 1296 658 1284 C 668 1272 674 1257 674 1241 C 674 1225 669 1214 660 1208 C 650 1201 635 1194 615 1188 C 595 1182 568 1174 536 1164 C 504 1154 464 1138 418 1118 C 462 1098 501 1084 533 1074 C 565 1064 591 1056 612 1050 C 633 1044 649 1037 659 1030 C 669 1022 674 1011 674 997 Z" unicode="*" />
<glyph horiz-adv-x="1188" d="M 1087 485 L 643 485 L 643 39 L 545 39 L 545 485 L 100 485 L 100 580 L 545 580 L 545 1026 L 643 1026 L 643 580 L 1087 580 L 1087 485 Z" unicode="+" />
<glyph horiz-adv-x="512" d="M 403 37 C 403 -31 377 -99 326 -167 C 275 -234 205 -292 117 -342 L 94 -295 C 220 -221 289 -122 301 4 L 246 4 C 202 4 168 15 142 37 C 116 59 104 91 104 133 C 104 167 116 195 141 219 C 166 242 196 254 231 254 C 286 254 328 235 358 198 C 388 161 403 107 403 37 Z" unicode="," />
<glyph horiz-adv-x="778" d="M 696 434 L 82 434 L 82 590 L 696 590 L 696 434 Z" unicode="-" />
<glyph horiz-adv-x="512" d="M 395 117 C 395 77 381 45 353 20 C 325 -5 294 -18 258 -18 C 221 -18 189 -5 162 20 C 134 45 121 77 121 117 C 121 155 134 187 160 214 C 186 240 219 254 258 254 C 296 254 328 240 355 214 C 381 188 395 155 395 117 Z" unicode="." />
<glyph horiz-adv-x="860" d="M 784 1513 L 143 -434 L 49 -408 L 688 1540 L 784 1513 Z" unicode="/" />
<glyph horiz-adv-x="1257" d="M 1155 649 C 1155 520 1131 404 1084 301 C 1037 197 972 116 890 58 C 807 0 716 -29 618 -29 C 515 -29 424 -2 346 51 C 268 104 207 178 165 273 C 123 367 102 474 102 592 C 102 718 125 833 171 936 C 217 1039 281 1120 365 1180 C 449 1240 540 1270 639 1270 C 741 1270 831 1243 910 1190 C 988 1137 1049 1063 1091 969 C 1133 874 1155 767 1155 649 Z M 934 623 C 934 806 907 951 854 1058 C 800 1165 727 1219 633 1219 C 574 1219 521 1193 473 1142 C 425 1090 389 1019 363 928 C 337 837 324 734 324 618 C 324 430 350 284 404 180 C 457 75 531 23 625 23 C 683 23 735 48 783 99 C 830 150 867 221 894 313 C 920 405 934 508 934 623 Z" unicode="0" />
<glyph horiz-adv-x="874" d="M 793 0 L 158 0 L 158 45 L 195 48 C 226 50 258 53 290 59 C 322 65 346 77 361 96 C 375 115 383 137 383 162 L 383 1081 C 360 1074 329 1071 291 1071 C 237 1071 161 1112 61 1194 L 80 1229 C 152 1197 223 1182 295 1182 C 385 1182 480 1210 582 1268 L 608 1268 C 589 1148 580 1046 580 961 L 580 172 C 580 133 593 104 620 84 C 647 64 705 51 793 45 L 793 0 Z" unicode="1" />
<glyph horiz-adv-x="1182" d="M 1079 350 L 958 0 L 109 0 L 109 51 C 231 144 332 226 412 298 C 492 370 568 445 641 525 C 713 604 765 681 797 755 C 828 829 844 909 844 997 C 844 1064 824 1117 786 1157 C 747 1197 697 1217 635 1217 C 571 1217 513 1199 462 1163 C 410 1127 369 1079 339 1019 C 308 959 293 899 293 838 C 293 788 302 753 320 734 C 338 714 366 705 406 705 C 472 705 524 729 561 779 L 590 817 L 614 795 C 540 675 444 616 324 616 C 266 616 219 634 184 671 C 148 707 131 756 131 817 C 131 887 157 959 209 1033 C 261 1106 328 1164 411 1206 C 493 1248 581 1270 674 1270 C 788 1270 877 1241 943 1184 C 1009 1126 1042 1048 1042 950 C 1042 859 1021 776 979 702 C 937 627 870 553 780 479 C 690 405 555 318 377 217 L 317 166 L 827 166 C 907 166 978 231 1040 362 L 1079 350 Z" unicode="2" />
<glyph horiz-adv-x="1157" d="M 1032 397 C 1032 308 1007 229 957 161 C 907 92 837 39 747 2 C 657 -34 555 -53 442 -53 C 374 -53 310 -41 250 -17 C 190 6 144 39 110 81 C 76 123 59 171 59 227 C 59 276 73 316 103 348 C 132 379 169 395 215 395 C 281 395 315 361 315 295 C 315 273 310 257 300 247 C 290 236 280 227 268 219 C 256 211 245 202 235 193 C 225 183 221 170 221 152 C 221 105 241 68 281 41 C 321 13 374 0 442 0 C 503 0 563 19 623 57 C 682 95 729 145 765 209 C 801 273 819 340 819 412 C 819 554 764 625 655 625 C 609 625 557 598 499 544 L 451 500 L 410 549 L 565 657 C 649 715 711 773 749 830 C 787 886 807 949 807 1018 C 807 1152 743 1219 616 1219 C 572 1219 527 1207 483 1184 C 439 1160 403 1129 376 1089 C 349 1049 336 1004 336 954 C 336 916 344 888 360 871 C 376 854 401 846 436 846 C 470 846 511 867 559 911 L 584 887 C 555 855 519 824 475 796 C 431 768 395 754 367 754 C 309 754 263 768 229 796 C 195 824 178 861 178 909 C 178 969 200 1028 246 1084 C 292 1140 353 1185 431 1219 C 508 1253 588 1270 672 1270 C 743 1270 804 1257 855 1231 C 905 1205 945 1171 973 1129 C 1001 1086 1016 1042 1016 997 C 1016 929 986 869 927 816 C 867 762 788 724 690 700 L 653 670 L 731 676 C 789 676 841 665 887 644 C 932 622 967 591 993 549 C 1019 507 1032 457 1032 397 Z" unicode="3" />
<glyph horiz-adv-x="1165" d="M 1077 240 L 1042 240 C 1040 280 1033 314 1023 344 C 1012 373 999 394 983 408 C 967 422 940 429 904 430 C 868 431 826 432 780 432 L 780 168 C 780 129 792 100 816 82 C 840 63 892 51 973 45 L 973 0 L 393 0 L 393 45 C 467 50 510 54 523 58 C 536 62 547 67 557 75 C 566 82 573 91 579 103 C 584 115 588 132 590 156 L 590 432 L 49 432 L 49 479 L 725 1288 L 780 1288 L 780 516 C 865 516 918 518 938 523 C 958 528 974 537 987 550 C 999 562 1010 582 1020 609 C 1030 636 1036 666 1038 698 L 1077 698 L 1077 240 Z M 590 516 L 590 1042 L 152 516 L 590 516 Z" unicode="4" />
<glyph horiz-adv-x="1069" d="M 989 1270 C 961 1214 920 1166 867 1125 C 813 1084 748 1052 670 1030 C 592 1008 523 997 461 997 L 340 1001 L 264 702 C 298 729 341 750 393 764 C 445 778 493 786 537 786 C 612 786 681 769 745 736 C 808 702 858 656 894 596 C 930 536 948 467 948 389 C 948 312 925 242 880 178 C 835 114 774 63 696 26 C 618 -10 537 -29 451 -29 C 377 -29 312 -18 254 2 C 196 23 151 52 119 90 C 87 127 72 169 72 215 C 72 254 84 286 108 310 C 132 334 163 346 201 346 C 229 346 251 337 265 321 C 279 304 287 282 287 256 C 287 236 282 215 272 194 C 262 172 258 149 258 125 C 264 94 284 68 319 48 C 354 28 397 18 449 18 C 505 18 555 36 598 74 C 640 112 674 169 699 245 C 724 321 737 404 737 494 C 737 567 715 625 672 668 C 629 711 572 733 500 733 C 442 733 386 717 334 685 C 282 653 249 615 236 569 L 182 580 L 338 1264 L 391 1264 C 414 1238 449 1219 496 1205 C 542 1191 596 1184 657 1184 C 719 1184 771 1191 815 1206 C 859 1221 908 1250 963 1292 L 989 1270 Z" unicode="5" />
<glyph horiz-adv-x="1159" d="M 1083 1229 C 1083 1193 1075 1164 1060 1144 C 1045 1124 1018 1114 979 1114 C 949 1114 927 1122 913 1138 C 899 1154 886 1184 876 1228 C 870 1251 860 1276 846 1303 C 832 1329 818 1346 802 1354 C 786 1362 762 1366 729 1366 C 639 1366 556 1304 482 1181 C 407 1058 357 898 332 702 L 340 698 C 386 758 436 801 490 828 C 544 854 606 868 678 868 C 740 868 800 849 857 813 C 913 776 959 725 993 660 C 1027 594 1044 522 1044 444 C 1044 352 1022 269 980 194 C 938 119 881 63 809 26 C 737 -10 653 -29 557 -29 C 473 -29 398 -4 331 44 C 263 93 211 162 174 250 C 137 338 119 439 119 555 C 119 704 150 846 214 982 C 277 1117 364 1226 475 1309 C 585 1392 699 1434 817 1434 C 873 1434 920 1424 959 1406 C 998 1387 1028 1362 1050 1331 C 1072 1300 1083 1266 1083 1229 Z M 825 446 C 825 556 804 641 763 702 C 721 762 657 793 571 793 C 523 793 480 777 442 746 C 404 714 374 669 352 611 C 330 552 319 483 319 403 C 319 329 329 262 351 204 C 373 145 402 99 440 67 C 478 34 519 18 563 18 C 647 18 712 55 757 130 C 802 205 825 310 825 446 Z" unicode="6" />
<glyph horiz-adv-x="1036" d="M 1061 1200 C 998 1110 947 1032 908 966 C 869 900 833 831 800 759 C 767 687 730 596 690 486 C 649 376 620 278 602 192 C 584 106 573 18 569 -70 C 565 -124 552 -167 529 -199 C 505 -230 474 -246 434 -246 C 396 -246 369 -234 353 -210 C 337 -186 330 -150 330 -102 C 330 -23 412 172 578 485 C 666 658 772 842 895 1036 L 344 1036 C 293 1036 248 1014 208 971 C 168 928 139 870 123 797 L 82 807 L 205 1333 L 242 1333 L 258 1219 L 1061 1219 L 1061 1200 Z" unicode="7" />
<glyph horiz-adv-x="1143" d="M 1020 367 C 1020 293 997 225 953 164 C 909 103 848 55 772 21 C 695 -13 614 -31 530 -31 C 453 -31 383 -17 321 9 C 258 36 209 73 175 121 C 140 169 123 221 123 279 C 123 326 135 372 160 416 C 184 460 217 499 259 534 C 300 568 343 594 387 610 L 387 618 C 299 660 241 704 211 749 C 181 793 166 850 166 918 C 166 982 185 1042 225 1098 C 264 1154 316 1198 382 1232 C 448 1265 516 1282 586 1282 C 704 1282 798 1254 866 1199 C 934 1144 969 1071 969 981 C 969 934 948 884 906 830 C 864 776 810 735 745 707 L 745 698 C 814 670 867 641 903 612 C 939 582 968 547 989 507 C 1009 466 1020 419 1020 367 Z M 838 1008 C 838 1074 815 1128 770 1169 C 725 1210 664 1231 588 1231 C 515 1231 455 1209 407 1167 C 359 1124 336 1072 336 1010 C 336 858 453 763 688 725 C 788 765 838 860 838 1008 Z M 842 283 C 842 357 807 420 739 474 C 671 528 572 568 444 594 C 391 566 349 523 318 464 C 287 404 272 342 272 276 C 272 199 296 138 346 92 C 395 46 463 23 549 23 C 630 23 699 47 756 95 C 813 143 842 206 842 283 Z" unicode="8" />
<glyph horiz-adv-x="1159" d="M 1038 666 C 1038 505 1006 356 944 220 C 882 84 797 -21 690 -96 C 583 -171 462 -209 326 -209 C 271 -209 223 -199 181 -179 C 139 -159 106 -133 84 -101 C 62 -69 51 -35 51 0 C 51 79 88 119 162 119 C 190 119 211 109 226 89 C 241 69 253 36 262 -8 C 270 -52 286 -85 308 -109 C 330 -133 364 -145 410 -145 C 480 -145 545 -115 605 -56 C 665 2 715 86 756 194 C 796 302 822 421 834 549 L 819 551 C 777 492 727 448 670 418 C 612 388 551 373 487 373 C 419 373 356 390 300 426 C 244 462 199 512 167 576 C 135 640 119 713 119 797 C 119 881 138 959 177 1033 C 215 1106 269 1164 338 1206 C 407 1248 487 1270 578 1270 C 672 1270 753 1246 821 1200 C 889 1154 943 1086 981 997 C 1019 908 1038 798 1038 666 Z M 844 817 C 844 897 832 968 808 1030 C 784 1092 752 1139 711 1173 C 670 1206 626 1223 578 1223 C 500 1223 440 1191 398 1127 C 355 1063 334 966 334 836 C 334 710 353 615 391 553 C 429 490 492 459 578 459 C 626 459 670 473 710 502 C 750 530 783 571 807 625 C 831 678 844 742 844 817 Z" unicode="9" />
<glyph horiz-adv-x="696" d="M 485 793 C 485 754 471 722 444 696 C 417 670 385 657 348 657 C 310 657 278 670 251 696 C 224 722 211 754 211 793 C 211 831 224 864 252 890 C 279 916 311 930 348 930 C 384 930 416 916 444 890 C 471 864 485 831 485 793 Z M 485 119 C 485 79 471 47 443 22 C 415 -3 384 -16 348 -16 C 311 -16 279 -3 252 22 C 224 47 211 79 211 119 C 211 157 224 189 250 216 C 276 242 309 256 348 256 C 386 256 418 242 445 216 C 471 190 485 157 485 119 Z" unicode=":" />
<glyph horiz-adv-x="696" d="M 471 799 C 471 757 459 723 436 697 C 412 671 382 659 346 659 C 306 659 275 672 253 698 C 230 724 219 759 219 803 C 219 841 231 872 255 896 C 279 920 310 932 348 932 C 384 932 413 919 436 894 C 459 868 471 837 471 799 Z M 494 37 C 494 -31 469 -98 419 -165 C 369 -231 299 -290 209 -340 L 184 -295 C 310 -221 379 -122 391 4 L 336 4 C 292 4 258 15 233 37 C 207 59 195 91 195 133 C 195 167 207 195 232 219 C 257 242 287 254 322 254 C 377 254 419 235 449 198 C 479 161 494 107 494 37 Z" unicode=";" />
<glyph horiz-adv-x="1188" d="M 1038 72 L 133 492 L 133 573 L 1038 993 L 1038 887 L 262 532 L 1038 178 L 1038 72 Z" unicode="&#x3C;" />
<glyph horiz-adv-x="1188" d="M 1047 649 L 141 649 L 141 743 L 1047 743 L 1047 649 Z M 1047 322 L 141 322 L 141 416 L 1047 416 L 1047 322 Z" unicode="=" />
<glyph horiz-adv-x="1188" d="M 1055 492 L 150 72 L 150 178 L 926 532 L 150 887 L 150 993 L 1055 573 L 1055 492 Z" unicode="&#x3E;" />
<glyph horiz-adv-x="987" d="M 885 1022 C 885 909 842 814 758 736 C 674 658 565 610 432 594 L 424 369 L 365 369 L 365 750 C 482 766 566 797 616 844 C 666 891 692 956 692 1038 C 692 1263 610 1376 446 1376 C 378 1376 333 1361 309 1333 C 321 1292 328 1252 328 1212 C 328 1183 315 1158 291 1137 C 266 1116 240 1106 213 1106 C 177 1106 150 1117 134 1139 C 117 1161 109 1189 109 1223 C 109 1259 123 1294 153 1326 C 182 1358 223 1384 276 1403 C 328 1422 387 1432 451 1432 C 586 1432 692 1394 769 1320 C 846 1246 885 1146 885 1022 Z M 537 111 C 537 74 523 42 497 15 C 471 -11 438 -25 399 -25 C 360 -25 327 -11 301 15 C 275 42 262 74 262 111 C 262 148 275 180 302 207 C 328 234 361 248 399 248 C 437 248 469 234 496 207 C 523 180 537 148 537 111 Z" unicode="?" />
<glyph horiz-adv-x="2181" d="M 2017 233 C 1977 97 1914 -21 1826 -123 C 1738 -225 1631 -303 1507 -358 C 1383 -412 1250 -440 1108 -440 C 940 -440 787 -405 651 -337 C 514 -269 409 -174 337 -52 C 265 70 229 209 229 367 C 229 542 275 706 367 860 C 459 1013 582 1132 735 1216 C 888 1300 1055 1343 1237 1343 C 1373 1343 1493 1316 1596 1262 C 1698 1208 1778 1129 1834 1026 C 1890 923 1919 809 1919 684 C 1919 580 1894 481 1846 385 C 1798 289 1733 213 1651 155 C 1569 97 1482 68 1391 68 C 1335 68 1289 81 1254 109 C 1219 137 1200 177 1196 231 L 1190 233 C 1158 183 1121 144 1081 115 C 1041 86 1001 72 961 72 C 887 72 831 95 791 141 C 751 187 731 253 731 340 C 731 393 744 454 772 522 C 800 590 835 651 878 704 C 921 757 970 798 1026 828 C 1082 857 1139 872 1198 872 C 1233 872 1264 861 1291 841 C 1318 821 1335 790 1343 750 L 1350 750 L 1391 860 L 1534 860 L 1346 322 C 1332 287 1325 251 1325 215 C 1325 152 1353 121 1411 121 C 1487 121 1561 146 1631 197 C 1701 248 1757 318 1798 406 C 1839 494 1860 590 1860 696 C 1860 811 1834 913 1783 1001 C 1732 1089 1659 1156 1564 1203 C 1469 1250 1359 1274 1233 1274 C 1087 1274 950 1232 822 1149 C 694 1066 595 957 525 822 C 455 687 420 539 420 377 C 420 233 449 105 508 -7 C 566 -119 648 -205 754 -266 C 859 -327 977 -358 1108 -358 C 1554 -358 1845 -156 1980 246 L 2017 233 Z M 1327 680 C 1319 731 1304 769 1284 794 C 1263 818 1233 831 1194 831 C 1146 831 1099 806 1055 756 C 1011 706 973 638 943 551 C 912 463 897 382 897 307 C 897 249 903 205 917 176 C 931 147 953 133 983 133 C 1062 133 1135 192 1202 311 L 1327 680 Z" unicode="@" />
<glyph horiz-adv-x="1413" d="M 1464 0 L 819 0 L 819 45 C 865 47 911 55 957 70 C 1003 84 1026 103 1026 125 C 1026 143 1023 159 1018 172 L 891 496 L 387 496 C 317 324 283 210 283 156 C 283 136 294 118 317 102 C 339 86 369 73 407 63 C 445 52 480 46 514 45 L 514 0 L -49 0 L -49 45 C -17 47 16 54 53 67 C 90 79 120 100 144 128 C 168 156 190 195 211 244 L 442 818 L 682 1421 L 760 1421 L 1245 182 C 1260 146 1278 119 1300 102 C 1322 84 1348 71 1378 61 C 1408 51 1437 46 1464 45 L 1464 0 Z M 864 563 L 637 1135 L 414 563 L 864 563 Z" unicode="A" />
<glyph horiz-adv-x="1366" d="M 1272 371 C 1272 300 1251 237 1211 181 C 1170 125 1111 80 1035 48 C 959 16 881 0 801 0 L 88 0 L 88 45 C 123 47 160 53 200 61 C 240 69 267 82 281 98 C 295 114 303 138 303 170 L 303 1217 C 303 1247 296 1271 282 1289 C 268 1306 241 1321 201 1333 C 160 1345 125 1352 96 1354 L 96 1399 L 797 1399 C 873 1399 943 1386 1007 1362 C 1071 1337 1118 1304 1150 1263 C 1182 1221 1198 1173 1198 1118 C 1198 1055 1186 1002 1163 959 C 1139 915 1106 879 1062 850 C 1018 820 945 791 844 762 L 844 743 C 926 733 1001 711 1069 677 C 1137 642 1187 599 1221 547 C 1255 495 1272 437 1272 371 Z M 952 1079 C 952 1162 929 1227 883 1273 C 837 1319 772 1343 688 1343 L 520 1339 L 520 768 L 647 768 C 745 768 821 794 873 847 C 925 900 952 977 952 1079 Z M 1020 412 C 1020 500 990 573 932 629 C 873 685 794 713 694 713 L 520 709 L 520 182 C 527 136 546 103 576 85 C 606 66 652 57 713 57 C 811 57 887 87 940 149 C 993 211 1020 298 1020 412 Z" unicode="B" />
<glyph horiz-adv-x="1337" d="M 1313 354 C 1255 225 1178 129 1084 65 C 989 1 879 -31 754 -31 C 620 -31 502 -1 399 57 C 295 116 216 199 160 307 C 104 415 76 540 76 682 C 76 818 107 944 169 1058 C 231 1172 317 1261 429 1327 C 541 1392 663 1425 797 1425 C 851 1425 908 1414 968 1392 C 1027 1370 1073 1345 1106 1315 L 1167 1419 L 1251 1419 L 1260 913 L 1210 913 C 1164 1063 1101 1176 1019 1252 C 937 1328 842 1366 733 1366 C 653 1366 582 1339 520 1285 C 457 1231 408 1154 374 1054 C 339 953 322 834 322 698 C 322 581 343 475 386 380 C 429 284 488 210 564 156 C 639 102 722 76 813 76 C 918 76 1007 100 1079 148 C 1151 196 1211 274 1260 383 L 1313 354 Z" unicode="C" />
<glyph horiz-adv-x="1595" d="M 1520 690 C 1520 555 1487 436 1423 333 C 1358 230 1263 149 1137 89 C 1011 29 870 0 715 0 L 88 0 L 88 45 C 122 45 159 48 199 56 C 238 63 265 75 280 92 C 295 108 303 133 303 166 L 303 1217 C 303 1267 282 1302 241 1320 C 199 1338 151 1350 96 1354 L 96 1399 L 756 1399 C 900 1399 1033 1368 1155 1306 C 1277 1244 1369 1160 1429 1055 C 1489 950 1520 828 1520 690 Z M 1268 692 C 1268 816 1244 927 1196 1026 C 1148 1125 1081 1202 993 1258 C 905 1313 807 1341 698 1341 L 520 1337 L 520 217 C 526 163 546 123 581 97 C 616 71 670 59 743 59 C 911 59 1040 114 1131 226 C 1222 337 1268 492 1268 692 Z" unicode="D" />
<glyph horiz-adv-x="1364" d="M 1317 393 L 1290 0 L 78 0 L 78 45 C 172 51 233 63 261 80 C 289 97 303 127 303 170 L 303 1217 C 303 1249 295 1273 281 1289 C 266 1305 235 1320 187 1333 C 139 1345 103 1352 78 1354 L 78 1399 L 1206 1399 L 1206 1081 L 1151 1081 C 1136 1135 1106 1189 1060 1244 C 1014 1298 971 1329 932 1335 C 892 1340 836 1343 762 1343 L 520 1343 L 520 754 L 698 754 C 732 754 762 757 788 765 C 814 773 836 785 854 802 C 872 819 886 838 895 859 C 904 880 912 904 920 932 C 927 960 932 984 934 1006 L 989 1006 L 989 434 L 934 434 C 930 469 922 508 908 552 C 894 595 877 626 858 645 C 839 663 816 676 790 684 C 763 692 732 696 698 696 L 520 696 L 520 246 C 520 187 525 146 537 122 C 548 98 568 82 597 73 C 626 63 682 59 764 59 L 870 59 C 993 59 1070 74 1100 106 C 1128 135 1159 182 1195 247 C 1231 311 1254 360 1266 393 L 1317 393 Z" unicode="E" />
<glyph horiz-adv-x="1253" d="M 1221 1067 L 1165 1067 C 1159 1091 1148 1118 1131 1150 C 1114 1182 1094 1212 1072 1240 C 1050 1268 1027 1290 1005 1307 C 983 1324 955 1334 921 1338 C 887 1341 839 1343 776 1343 L 520 1343 L 520 748 L 702 748 C 735 748 766 752 794 760 C 822 768 848 781 871 799 C 893 817 911 845 923 884 C 935 923 944 961 948 999 L 1004 999 L 1004 424 L 948 424 C 944 457 937 495 925 537 C 913 579 900 609 886 626 C 872 642 848 657 815 670 C 782 683 744 690 702 690 L 520 690 L 520 176 C 520 156 523 138 531 123 C 538 107 549 95 565 85 C 581 75 608 67 648 59 C 687 51 717 46 739 45 L 739 0 L 78 0 L 78 45 C 153 50 203 56 229 62 C 254 68 273 80 285 97 C 297 114 303 137 303 166 L 303 1217 C 303 1249 295 1273 281 1289 C 266 1305 235 1320 187 1333 C 139 1345 103 1352 78 1354 L 78 1399 L 1221 1399 L 1221 1067 Z" unicode="F" />
<glyph horiz-adv-x="1528" d="M 1542 571 L 1509 567 C 1447 558 1407 548 1387 538 C 1367 527 1353 513 1346 495 C 1338 477 1335 458 1335 436 L 1335 -39 L 1309 -47 L 1198 78 C 1005 5 841 -31 705 -31 C 591 -31 485 0 386 62 C 287 124 211 208 157 314 C 103 419 76 537 76 668 C 76 805 108 931 174 1047 C 240 1162 332 1254 451 1322 C 569 1390 702 1425 848 1425 C 906 1425 967 1414 1031 1392 C 1095 1370 1143 1344 1176 1315 L 1241 1419 L 1321 1419 L 1331 928 L 1284 928 C 1239 1067 1172 1175 1083 1251 C 993 1327 888 1366 768 1366 C 684 1366 608 1338 540 1282 C 472 1226 420 1146 382 1042 C 344 938 326 818 326 682 C 326 562 346 453 386 353 C 426 253 481 175 552 119 C 622 63 700 35 784 35 C 881 35 961 58 1025 105 C 1089 152 1125 215 1135 293 L 1135 418 C 1135 470 1119 507 1089 527 C 1058 547 983 562 864 571 L 864 618 L 1542 618 L 1542 571 Z" unicode="G" />
<glyph horiz-adv-x="1747" d="M 1651 0 L 1016 0 L 1016 45 C 1105 50 1162 61 1188 79 C 1214 96 1227 125 1227 166 L 1227 694 L 520 694 L 520 176 C 520 146 527 123 542 105 C 557 87 585 73 627 63 C 669 53 703 47 731 45 L 731 0 L 96 0 L 96 45 C 170 50 219 57 243 67 C 266 76 282 89 290 107 C 298 125 303 144 303 166 L 303 1217 C 303 1245 297 1267 285 1284 C 273 1300 246 1315 204 1329 C 162 1343 126 1351 96 1354 L 96 1399 L 731 1399 L 731 1354 C 684 1350 635 1341 584 1327 C 541 1313 520 1280 520 1227 L 520 762 L 1227 762 L 1227 1217 C 1227 1237 1223 1254 1216 1269 C 1208 1284 1197 1297 1181 1307 C 1165 1317 1138 1327 1101 1337 C 1064 1347 1036 1352 1016 1354 L 1016 1399 L 1651 1399 L 1651 1354 C 1607 1350 1559 1341 1507 1327 C 1465 1313 1444 1280 1444 1227 L 1444 176 C 1444 144 1452 120 1470 102 C 1487 84 1515 70 1553 61 C 1591 51 1624 46 1651 45 L 1651 0 Z" unicode="H" />
<glyph horiz-adv-x="831" d="M 737 0 L 94 0 L 94 45 C 165 50 213 56 237 64 C 261 71 279 83 290 99 C 301 115 307 136 307 164 L 307 1219 C 307 1238 304 1255 298 1269 C 292 1283 281 1295 266 1305 C 250 1315 224 1325 186 1335 C 148 1345 118 1352 94 1354 L 94 1399 L 737 1399 L 737 1354 C 688 1350 638 1341 588 1327 C 545 1313 524 1281 524 1229 L 524 174 C 524 144 532 120 548 103 C 564 85 593 72 635 62 C 677 52 711 47 737 45 L 737 0 Z" unicode="I" />
<glyph horiz-adv-x="1012" d="M 958 1354 C 904 1350 852 1341 803 1327 C 760 1313 739 1280 739 1227 L 739 381 C 739 317 716 250 672 181 C 628 111 572 58 504 21 C 436 -16 363 -35 283 -35 C 223 -35 171 -26 129 -9 C 87 8 55 31 33 60 C 11 89 0 122 0 158 C 0 200 13 235 40 263 C 67 291 101 305 141 305 C 181 305 213 293 237 269 C 261 245 274 213 274 174 C 274 148 267 123 254 98 C 241 72 220 51 190 35 L 190 25 L 227 20 C 294 20 350 33 394 61 C 438 88 471 131 491 189 C 511 247 522 334 522 449 L 522 1217 C 522 1248 514 1272 499 1289 C 483 1306 455 1320 413 1332 C 371 1344 331 1351 293 1354 L 293 1399 L 958 1399 L 958 1354 Z" unicode="J" />
<glyph horiz-adv-x="1511" d="M 1579 0 L 829 0 L 829 45 C 901 47 951 55 981 70 C 1011 85 1026 107 1026 135 C 1026 151 1011 179 983 219 C 954 259 911 310 855 372 C 799 434 698 538 553 686 L 520 686 L 520 176 C 520 146 527 123 542 105 C 557 87 585 73 627 63 C 669 53 703 47 731 45 L 731 0 L 96 0 L 96 45 C 170 50 219 57 243 67 C 266 76 282 89 290 107 C 298 125 303 144 303 166 L 303 1217 C 303 1245 297 1267 285 1284 C 273 1300 246 1315 204 1329 C 162 1343 126 1351 96 1354 L 96 1399 L 731 1399 L 731 1354 C 684 1350 635 1341 584 1327 C 541 1313 520 1280 520 1227 L 520 725 L 543 725 C 706 858 832 973 920 1071 C 1008 1168 1053 1238 1053 1280 C 1053 1321 997 1346 887 1354 L 887 1399 L 1466 1399 L 1466 1354 L 1420 1351 C 1375 1348 1331 1338 1287 1320 C 1243 1302 1207 1277 1178 1247 L 1061 1120 C 935 982 825 874 731 795 L 879 641 C 1033 482 1160 339 1262 211 C 1279 188 1301 164 1328 140 C 1355 115 1387 94 1424 77 C 1461 60 1513 49 1579 45 L 1579 0 Z" unicode="K" />
<glyph horiz-adv-x="1288" d="M 1292 397 L 1262 0 L 92 0 L 92 45 C 182 51 239 63 265 81 C 290 98 303 128 303 170 L 303 1212 C 303 1243 296 1267 283 1284 C 269 1301 241 1316 198 1330 C 154 1344 119 1352 92 1354 L 92 1399 L 733 1399 L 733 1354 C 691 1350 641 1341 584 1325 C 541 1311 520 1277 520 1223 L 520 244 C 520 179 525 135 535 113 C 545 91 564 75 592 67 C 620 59 677 55 764 55 C 930 55 1031 73 1065 109 C 1093 138 1127 185 1167 249 C 1207 313 1232 362 1243 397 L 1292 397 Z" unicode="L" />
<glyph horiz-adv-x="1964" d="M 1878 0 L 1202 0 L 1202 45 C 1260 49 1305 54 1339 60 C 1372 66 1398 78 1417 98 C 1436 118 1446 144 1446 176 L 1446 1225 L 915 23 L 877 23 C 867 53 851 98 829 157 C 806 216 788 260 776 289 C 763 318 628 620 371 1196 L 371 389 C 371 239 394 145 440 109 C 454 97 487 83 537 69 C 587 55 625 47 651 45 L 651 0 L 37 0 L 37 45 C 78 48 120 56 163 68 C 205 80 234 97 250 119 C 266 141 277 173 284 215 C 291 257 295 312 295 379 L 295 1128 C 295 1206 273 1262 231 1296 C 188 1329 127 1348 47 1354 L 47 1399 L 508 1399 L 983 356 L 1366 1225 C 1390 1283 1406 1341 1413 1399 L 1876 1399 L 1876 1354 C 1824 1350 1774 1341 1724 1327 C 1682 1313 1661 1280 1661 1227 L 1661 176 C 1661 156 1664 138 1671 123 C 1678 108 1690 95 1707 85 C 1723 75 1750 66 1786 58 C 1822 50 1853 46 1878 45 L 1878 0 Z" unicode="M" />
<glyph horiz-adv-x="1610" d="M 1620 1354 C 1601 1352 1574 1347 1538 1339 C 1502 1330 1473 1321 1449 1311 C 1425 1301 1408 1285 1397 1263 C 1385 1241 1377 1211 1372 1175 C 1366 1138 1364 1089 1364 1028 L 1364 -14 L 1288 -14 L 371 1141 L 371 391 C 371 241 394 147 440 111 C 454 98 486 84 536 70 C 586 55 624 47 651 45 L 651 0 L 37 0 L 37 45 C 51 46 77 51 114 61 C 151 71 181 80 204 89 C 227 98 245 114 258 136 C 270 158 280 188 286 227 C 292 266 295 317 295 381 L 295 1102 C 295 1136 288 1168 274 1200 C 260 1232 240 1256 215 1274 C 189 1292 155 1309 113 1326 C 71 1343 36 1352 10 1354 L 10 1399 L 432 1399 L 1288 322 L 1288 1016 C 1288 1171 1265 1263 1219 1292 C 1195 1306 1161 1319 1116 1332 C 1070 1345 1035 1352 1010 1354 L 1010 1399 L 1620 1399 L 1620 1354 Z" unicode="N" />
<glyph horiz-adv-x="1587" d="M 1509 709 C 1509 480 1438 299 1298 166 C 1158 33 987 -33 786 -33 C 656 -33 537 -1 429 61 C 320 124 234 209 172 317 C 109 425 78 547 78 684 C 78 914 147 1096 287 1230 C 427 1364 596 1432 795 1432 C 937 1432 1064 1397 1176 1328 C 1288 1258 1372 1169 1427 1061 C 1481 953 1509 835 1509 709 Z M 1262 702 C 1262 904 1221 1066 1139 1187 C 1057 1307 942 1368 795 1368 C 647 1368 532 1307 450 1187 C 367 1067 326 902 326 694 C 326 562 344 445 382 345 C 419 244 473 166 544 112 C 614 58 698 31 795 31 C 942 31 1057 91 1139 211 C 1221 331 1262 495 1262 702 Z" unicode="O" />
<glyph horiz-adv-x="1272" d="M 1208 1067 C 1208 983 1184 909 1138 845 C 1092 780 1028 730 946 694 C 864 658 775 641 680 641 L 520 641 L 520 170 C 520 126 534 96 563 78 C 591 60 652 49 745 45 L 745 0 L 92 0 L 92 45 C 182 51 239 63 265 81 C 290 98 303 128 303 170 L 303 1221 C 303 1277 282 1311 240 1325 C 188 1340 136 1350 84 1354 L 84 1399 L 770 1399 C 899 1399 1004 1368 1086 1308 C 1167 1247 1208 1167 1208 1067 Z M 954 1016 C 954 1122 928 1202 876 1258 C 824 1313 751 1341 659 1341 L 520 1341 L 520 702 L 621 702 C 689 702 747 714 797 738 C 847 762 885 798 913 848 C 940 898 954 954 954 1016 Z" unicode="P" />
<glyph horiz-adv-x="1604" d="M 1755 -33 C 1723 -81 1684 -125 1638 -166 C 1591 -206 1541 -239 1489 -264 C 1436 -288 1383 -301 1329 -301 C 1232 -301 1150 -275 1084 -223 C 1017 -171 971 -98 946 -4 C 886 -22 832 -31 786 -31 C 655 -31 536 0 428 62 C 320 124 235 208 172 316 C 109 423 78 546 78 684 C 78 914 147 1096 287 1230 C 427 1364 596 1432 795 1432 C 937 1432 1064 1397 1176 1328 C 1288 1258 1372 1169 1427 1061 C 1481 953 1509 835 1509 709 C 1509 439 1391 234 1155 94 C 1172 14 1208 -48 1263 -93 C 1318 -137 1389 -160 1475 -160 C 1517 -160 1559 -147 1600 -121 C 1640 -95 1678 -55 1714 -2 L 1755 -33 Z M 1262 702 C 1262 904 1221 1066 1139 1187 C 1057 1307 942 1368 795 1368 C 647 1368 532 1307 450 1187 C 367 1067 326 902 326 694 C 326 478 370 311 459 193 C 487 267 531 326 589 369 C 647 412 715 434 791 434 C 863 434 930 409 994 359 C 1057 309 1101 246 1126 168 C 1216 277 1262 455 1262 702 Z M 934 43 C 918 245 845 346 715 346 C 688 346 660 338 632 323 C 603 308 577 287 553 259 C 529 231 510 196 498 152 C 577 70 676 29 795 29 C 842 29 888 33 934 43 Z" unicode="Q" />
<glyph horiz-adv-x="1509" d="M 1509 281 C 1509 185 1486 111 1442 57 C 1397 3 1331 -23 1243 -23 C 1165 -23 1105 4 1062 58 C 1019 112 990 201 975 324 C 963 418 945 490 922 539 C 899 587 868 623 828 647 C 788 670 739 682 682 682 L 520 682 L 520 170 C 520 128 533 98 559 80 C 585 62 643 51 733 45 L 733 0 L 92 0 L 92 45 C 181 51 238 63 264 80 C 290 97 303 127 303 170 L 303 1223 C 303 1277 282 1311 240 1325 C 182 1341 133 1351 92 1354 L 92 1399 L 807 1399 C 889 1399 963 1386 1030 1360 C 1097 1334 1150 1298 1188 1251 C 1226 1203 1245 1147 1245 1083 C 1245 1001 1213 929 1149 869 C 1085 808 990 761 866 727 L 866 707 C 942 698 1009 674 1066 636 C 1122 598 1158 550 1174 494 C 1189 437 1201 383 1210 332 C 1218 281 1229 230 1243 180 C 1251 149 1263 125 1279 109 C 1295 92 1318 84 1348 84 C 1378 84 1403 101 1423 137 C 1442 172 1452 220 1452 281 L 1452 311 L 1509 311 L 1509 281 Z M 993 1042 C 993 1139 968 1213 920 1264 C 872 1315 798 1341 700 1341 L 520 1341 L 520 741 L 647 741 C 760 741 846 766 905 818 C 963 870 993 944 993 1042 Z" unicode="R" />
<glyph horiz-adv-x="1120" d="M 1044 399 C 1044 319 1024 246 985 181 C 945 115 890 64 819 28 C 748 -8 669 -27 582 -27 C 446 -27 334 7 246 76 L 174 -20 L 104 -20 L 90 459 L 137 459 C 193 312 259 205 337 137 C 414 69 504 35 606 35 C 691 35 756 57 800 101 C 844 145 866 209 866 293 C 866 355 848 409 812 455 C 776 501 727 536 666 561 L 587 593 C 423 655 317 705 269 742 C 221 779 186 822 164 871 C 142 920 131 979 131 1047 C 131 1117 148 1181 184 1239 C 219 1297 268 1342 331 1375 C 394 1408 464 1425 541 1425 C 592 1425 645 1415 699 1396 C 753 1376 799 1352 836 1323 L 905 1419 L 975 1419 L 985 954 L 940 954 C 898 1071 858 1155 820 1207 C 782 1258 736 1297 683 1324 C 630 1350 566 1364 492 1364 C 460 1364 429 1355 399 1338 C 369 1320 344 1296 325 1266 C 306 1236 297 1199 297 1155 C 297 1083 320 1023 368 975 C 415 926 499 879 620 833 L 688 807 C 754 781 816 750 874 715 C 932 679 974 636 1002 585 C 1030 534 1044 472 1044 399 Z" unicode="S" />
<glyph horiz-adv-x="1315" d="M 1298 1042 L 1249 1042 C 1239 1079 1221 1120 1196 1164 C 1170 1208 1145 1245 1119 1274 C 1093 1303 1068 1322 1046 1330 C 1023 1338 962 1343 862 1343 L 766 1343 L 766 182 C 766 162 769 145 776 129 C 782 113 793 101 808 91 C 822 81 852 72 898 62 C 943 52 976 46 997 45 L 997 0 L 317 0 L 317 45 C 417 52 481 64 508 81 C 535 98 549 128 549 172 L 549 1343 L 453 1343 C 390 1343 335 1340 287 1335 C 247 1329 202 1291 154 1221 C 106 1151 76 1091 66 1042 L 16 1042 L 16 1399 L 1298 1399 L 1298 1042 Z" unicode="T" />
<glyph horiz-adv-x="1620" d="M 1604 1354 C 1576 1352 1543 1346 1503 1336 C 1463 1326 1435 1317 1418 1307 C 1400 1297 1387 1280 1377 1256 C 1367 1232 1359 1203 1355 1168 C 1350 1133 1348 1088 1348 1032 L 1348 406 C 1348 320 1326 245 1283 180 C 1240 115 1176 63 1091 25 C 1005 -13 915 -33 819 -33 C 711 -33 616 -16 534 18 C 452 52 388 99 343 161 C 298 223 276 292 276 369 L 276 1217 C 276 1248 267 1273 250 1291 C 232 1309 206 1324 170 1334 C 134 1344 100 1351 70 1354 L 70 1399 L 707 1399 L 707 1354 C 659 1350 610 1341 559 1327 C 517 1313 496 1280 496 1227 L 496 410 C 496 292 527 204 590 144 C 653 84 746 55 868 55 C 949 55 1019 69 1079 97 C 1138 125 1185 167 1219 223 C 1253 279 1270 342 1270 414 L 1270 1020 C 1270 1174 1246 1265 1200 1294 C 1177 1308 1145 1321 1104 1333 C 1062 1345 1025 1352 991 1354 L 991 1399 L 1604 1399 L 1604 1354 Z" unicode="U" />
<glyph horiz-adv-x="1384" d="M 1440 1354 C 1396 1351 1352 1337 1307 1313 C 1287 1301 1270 1286 1256 1268 C 1242 1250 1224 1215 1200 1163 C 942 561 774 168 698 -16 L 623 -16 L 176 1217 C 164 1249 148 1274 128 1292 C 108 1309 82 1323 50 1334 C 18 1345 -12 1352 -43 1354 L -43 1399 L 592 1399 L 592 1354 C 530 1349 481 1340 446 1326 C 410 1312 393 1296 393 1278 C 393 1260 396 1243 403 1227 L 748 281 L 1077 1059 C 1108 1134 1124 1195 1124 1243 C 1124 1271 1100 1295 1054 1316 C 1008 1337 953 1350 889 1354 L 889 1399 L 1440 1399 L 1440 1354 Z" unicode="V" />
<glyph horiz-adv-x="2034" d="M 2081 1354 C 2052 1352 2022 1344 1990 1332 C 1958 1319 1934 1305 1917 1291 C 1900 1277 1884 1256 1870 1228 C 1855 1200 1822 1116 1772 976 C 1722 836 1605 505 1421 -16 L 1348 -16 C 1305 124 1266 253 1230 369 C 1194 485 1124 709 1018 1040 L 631 -16 L 553 -16 L 176 1217 C 163 1261 138 1294 101 1316 C 64 1338 19 1350 -33 1354 L -33 1399 L 592 1399 L 592 1354 C 529 1349 479 1340 443 1326 C 407 1312 389 1296 389 1278 C 389 1260 391 1243 397 1227 L 680 317 L 979 1128 C 979 1182 967 1226 943 1260 C 919 1294 888 1317 848 1330 C 808 1342 768 1350 727 1354 L 727 1399 L 1364 1399 L 1364 1354 C 1303 1349 1255 1340 1220 1326 C 1184 1312 1167 1296 1167 1278 C 1167 1270 1168 1260 1170 1249 C 1172 1238 1272 931 1470 328 C 1662 862 1759 1167 1759 1243 C 1759 1272 1736 1297 1692 1318 C 1648 1338 1594 1350 1530 1354 L 1530 1399 L 2081 1399 L 2081 1354 Z" unicode="W" />
<glyph horiz-adv-x="1561" d="M 1571 0 L 823 0 L 823 45 C 899 47 953 56 985 71 C 1017 86 1034 107 1034 135 C 1034 175 952 303 789 519 L 721 610 C 592 452 511 351 479 307 C 446 263 421 227 403 198 C 385 168 377 147 377 135 C 377 107 391 86 421 71 C 451 55 501 47 573 45 L 573 0 L -8 0 L -8 45 C 64 50 122 64 167 88 C 211 112 257 153 305 211 C 313 220 321 229 329 239 C 337 249 451 392 672 670 L 472 948 C 411 1032 351 1112 293 1188 C 273 1216 256 1238 242 1254 C 228 1270 212 1284 195 1296 C 178 1308 163 1318 151 1324 C 139 1330 117 1336 87 1342 C 56 1348 26 1352 -4 1354 L -4 1399 L 743 1399 L 743 1354 C 680 1350 637 1344 613 1338 C 589 1331 570 1322 556 1310 C 542 1298 535 1283 535 1264 C 535 1244 552 1206 586 1150 C 620 1094 697 987 815 829 C 931 967 1011 1069 1056 1134 C 1101 1198 1124 1242 1124 1264 C 1124 1284 1117 1299 1103 1311 C 1089 1323 1072 1332 1051 1338 C 1029 1344 988 1350 928 1354 L 928 1399 L 1509 1399 L 1509 1354 C 1437 1348 1378 1334 1334 1310 C 1289 1286 1243 1246 1196 1188 C 1130 1110 1018 972 862 772 C 1079 472 1216 285 1274 211 C 1321 149 1369 102 1417 70 C 1433 59 1484 51 1571 45 L 1571 0 Z" unicode="X" />
<glyph horiz-adv-x="1280" d="M 1352 1354 C 1326 1351 1294 1341 1256 1325 C 1218 1308 1186 1285 1158 1255 C 1130 1225 1095 1181 1055 1125 C 1015 1069 965 990 907 888 C 848 786 810 717 792 682 C 774 647 759 610 749 572 C 739 533 733 494 731 455 L 731 182 C 731 162 734 144 741 129 C 748 113 759 101 774 91 C 788 81 818 72 862 62 C 906 52 939 47 963 45 L 963 0 L 283 0 L 283 45 C 325 48 366 53 407 60 C 448 66 476 78 491 96 C 506 113 514 138 514 172 L 514 528 C 514 560 496 611 461 682 C 360 879 270 1045 190 1180 C 158 1236 123 1278 85 1306 C 47 1333 -2 1349 -66 1354 L -66 1399 L 594 1399 L 594 1354 C 527 1349 476 1340 440 1327 C 404 1314 387 1299 387 1282 C 387 1267 421 1195 490 1067 C 559 939 631 810 705 680 C 815 853 898 988 955 1085 C 1011 1182 1040 1239 1040 1255 C 1040 1281 1019 1304 978 1322 C 937 1340 884 1350 819 1354 L 819 1399 L 1352 1399 L 1352 1354 Z" unicode="Y" />
<glyph horiz-adv-x="1282" d="M 1266 420 L 1219 0 L 8 0 L 8 25 L 969 1343 L 586 1343 C 512 1343 458 1340 424 1334 C 390 1328 354 1308 318 1276 C 282 1243 247 1203 214 1155 C 180 1107 156 1062 141 1022 L 92 1022 L 135 1399 L 1239 1399 L 1239 1374 L 279 55 L 707 55 C 787 55 853 59 905 69 C 956 79 990 92 1008 109 C 1047 145 1086 192 1126 252 C 1165 311 1195 367 1217 420 L 1266 420 Z" unicode="Z" />
<glyph horiz-adv-x="1249" d="M 1126 -289 C 1126 -329 1104 -370 1061 -414 L 1016 -397 C 1024 -389 1033 -377 1043 -360 C 1052 -342 1057 -325 1057 -309 C 1057 -286 1051 -269 1039 -258 C 1027 -246 1008 -237 982 -230 C 956 -222 918 -219 868 -219 C 690 -219 467 -249 197 -309 L 150 -326 L 150 1489 L 197 1473 C 461 1412 684 1382 868 1382 C 917 1382 954 1384 980 1390 C 1006 1396 1024 1403 1036 1412 C 1047 1420 1053 1430 1055 1441 C 1056 1452 1057 1463 1057 1473 C 1057 1499 1046 1527 1024 1559 L 1067 1575 C 1080 1565 1093 1548 1106 1524 C 1119 1500 1126 1476 1126 1452 C 1126 1386 1096 1331 1036 1286 C 976 1241 901 1219 813 1219 C 741 1219 673 1227 610 1245 C 546 1263 478 1291 404 1331 L 254 1407 L 254 -244 L 404 -167 C 480 -127 549 -98 611 -81 C 673 -63 740 -55 813 -55 C 871 -55 924 -65 972 -86 C 1020 -106 1058 -135 1085 -172 C 1112 -208 1126 -247 1126 -289 Z" unicode="[" />
<glyph horiz-adv-x="860" d="M 811 -408 L 717 -434 L 76 1513 L 172 1540 L 811 -408 Z" unicode="\" />
<glyph horiz-adv-x="1249" d="M 1100 -326 L 1053 -309 C 783 -249 559 -219 381 -219 C 331 -219 293 -222 267 -230 C 241 -237 222 -246 210 -257 C 198 -268 193 -285 193 -309 C 193 -323 197 -339 205 -357 C 213 -375 223 -388 233 -397 L 188 -414 C 144 -370 123 -329 123 -289 C 123 -247 136 -207 163 -171 C 190 -135 228 -106 276 -86 C 324 -65 378 -55 436 -55 C 507 -55 573 -63 635 -80 C 696 -96 766 -125 846 -167 L 995 -244 L 995 1407 L 846 1331 C 769 1290 699 1261 637 1244 C 574 1227 507 1219 436 1219 C 378 1219 325 1229 277 1250 C 229 1270 191 1298 164 1334 C 136 1370 123 1409 123 1452 C 123 1474 128 1497 140 1521 C 152 1545 166 1563 182 1575 L 225 1559 C 203 1529 193 1500 193 1473 C 193 1463 193 1452 194 1441 C 195 1430 201 1420 213 1412 C 224 1403 242 1396 268 1390 C 294 1384 331 1382 381 1382 C 563 1382 787 1412 1053 1473 L 1100 1489 L 1100 -326 Z" unicode="]" />
<glyph horiz-adv-x="1151" d="M 160 999 L 504 1524 L 643 1524 L 991 999 L 827 999 L 571 1313 L 319 999 L 160 999 Z" unicode="^" />
<glyph horiz-adv-x="1229" d="M 1239 -317 L -10 -317 L -10 -225 L 1239 -225 L 1239 -317 Z" unicode="_" />
<glyph horiz-adv-x="1024" d="M 733 1098 L 705 1073 C 615 1143 530 1208 450 1268 C 404 1300 372 1327 354 1347 C 335 1367 326 1391 326 1419 C 326 1439 334 1457 350 1473 C 366 1489 386 1497 410 1497 C 435 1497 457 1490 477 1478 C 496 1466 515 1443 535 1409 C 593 1308 659 1204 733 1098 Z" unicode="`" />
<glyph horiz-adv-x="1004" d="M 1020 244 C 1014 153 993 86 957 44 C 921 1 870 -20 803 -20 C 755 -20 717 -9 689 13 C 661 35 639 69 623 117 L 616 117 C 579 73 535 39 483 13 C 431 -12 375 -25 313 -25 C 242 -25 185 -5 141 34 C 97 74 76 127 76 193 C 76 255 90 307 119 349 C 148 391 200 427 276 457 L 367 490 L 460 520 C 529 542 583 564 621 586 L 621 700 C 621 737 614 772 600 806 C 586 840 566 865 539 882 C 511 898 480 907 444 907 C 397 907 361 890 336 858 L 319 838 C 319 822 322 804 328 783 C 334 761 338 739 338 717 C 338 693 326 672 304 655 C 282 637 253 629 219 629 C 190 629 167 638 151 657 C 135 676 127 702 127 735 C 127 792 161 842 229 886 C 297 930 373 952 457 952 C 555 952 626 942 672 923 C 717 903 751 872 774 828 C 797 784 809 725 809 649 C 809 572 807 482 804 378 L 799 190 C 799 176 803 160 811 143 C 819 126 831 112 845 102 C 859 91 875 86 895 86 C 919 86 937 96 949 117 C 961 137 970 180 975 244 L 1020 244 Z M 623 526 C 516 492 441 463 399 438 C 357 412 325 382 305 348 C 284 314 274 272 274 223 C 274 113 320 59 414 59 C 454 59 489 66 519 81 C 549 96 580 125 614 168 L 623 526 Z" unicode="a" />
<glyph horiz-adv-x="1128" d="M 1063 459 C 1063 371 1042 289 1000 214 C 958 138 901 79 829 36 C 757 -7 680 -29 598 -29 C 544 -29 488 -19 429 0 C 369 20 318 44 274 74 L 199 -47 L 160 -39 C 165 43 168 170 168 340 L 168 1315 C 168 1335 164 1354 156 1374 C 148 1394 137 1409 125 1421 C 113 1433 92 1443 62 1451 C 32 1459 3 1464 -23 1466 L -23 1505 L 340 1528 L 354 1513 L 354 829 L 360 827 C 397 866 439 897 487 919 C 535 941 585 952 637 952 C 717 952 789 931 855 889 C 920 847 971 789 1008 713 C 1044 637 1063 553 1063 459 Z M 854 457 C 854 583 828 683 777 757 C 725 831 655 868 567 868 C 480 868 409 836 354 772 L 354 201 C 375 141 406 95 446 63 C 486 30 531 14 582 14 C 664 14 729 54 779 135 C 829 216 854 323 854 457 Z" unicode="b" />
<glyph horiz-adv-x="891" d="M 889 219 C 846 144 791 85 723 41 C 655 -3 584 -25 510 -25 C 370 -25 261 19 183 107 C 105 195 66 315 66 467 C 66 554 85 635 124 710 C 162 784 217 843 287 887 C 357 930 434 952 520 952 C 615 952 692 930 750 886 C 808 842 838 785 838 715 C 838 681 829 653 811 632 C 793 610 767 600 731 600 C 699 600 672 609 650 627 C 627 645 616 670 616 702 C 616 736 620 763 629 783 C 638 803 643 819 643 829 C 637 859 624 878 604 888 C 584 898 556 903 520 903 C 470 903 426 886 389 854 C 351 821 322 774 302 712 C 282 650 272 574 272 485 C 272 359 298 258 351 181 C 403 104 473 66 559 66 C 625 66 681 79 726 107 C 770 135 812 182 850 248 L 889 219 Z" unicode="c" />
<glyph horiz-adv-x="1157" d="M 1141 18 L 797 -4 L 782 10 L 782 98 L 774 100 C 736 59 693 28 646 6 C 598 -16 550 -27 502 -27 C 420 -27 346 -5 279 37 C 211 79 159 139 122 216 C 84 293 66 379 66 475 C 66 561 87 642 129 716 C 171 790 229 847 301 889 C 373 931 450 952 532 952 C 614 952 697 933 780 897 L 780 1303 C 776 1337 768 1364 758 1384 C 747 1404 733 1418 715 1428 C 697 1437 673 1445 642 1452 C 610 1459 579 1464 547 1468 L 547 1505 L 952 1528 L 967 1513 L 967 184 C 969 154 978 129 992 110 C 1006 91 1025 78 1051 71 C 1077 64 1107 59 1141 57 L 1141 18 Z M 780 158 L 780 737 C 764 788 735 829 694 860 C 652 891 604 907 549 907 C 468 907 402 865 351 781 C 299 697 274 588 274 453 C 274 333 300 237 354 163 C 407 89 479 53 571 53 C 611 53 647 60 679 76 C 711 91 744 118 780 158 Z" unicode="d" />
<glyph horiz-adv-x="934" d="M 899 223 C 859 145 806 84 739 40 C 671 -3 598 -25 518 -25 C 378 -25 268 19 187 108 C 106 197 66 318 66 471 C 66 557 84 638 120 713 C 156 787 207 846 273 888 C 339 930 413 952 496 952 C 618 952 712 917 779 849 C 845 781 879 684 879 559 L 879 541 L 268 541 L 268 518 C 268 370 294 258 346 181 C 398 104 473 66 573 66 C 619 66 658 71 690 82 C 722 92 750 109 775 133 C 800 156 829 194 862 248 L 899 223 Z M 680 590 C 680 800 618 905 494 905 C 430 905 377 875 335 817 C 293 759 270 682 268 586 L 680 590 Z" unicode="e" />
<glyph horiz-adv-x="651" d="M 870 1350 C 870 1324 859 1299 838 1277 C 816 1254 790 1243 760 1243 C 726 1243 697 1251 675 1268 C 652 1285 641 1307 641 1335 C 641 1350 643 1366 647 1384 C 651 1401 653 1421 653 1444 C 644 1470 628 1483 604 1483 C 530 1483 478 1440 446 1355 C 414 1270 399 1126 399 922 L 657 922 L 657 836 L 399 836 L 399 158 C 399 132 405 110 418 93 C 431 75 455 63 489 55 C 523 47 556 43 588 41 L 588 0 L 68 0 L 68 41 C 100 43 128 47 150 53 C 172 58 188 69 198 85 C 208 101 213 122 213 147 L 213 836 L 4 836 L 4 922 L 213 922 L 213 985 C 213 1101 231 1199 267 1279 C 303 1359 355 1420 422 1464 C 488 1508 565 1530 653 1530 C 719 1530 771 1513 811 1480 C 850 1446 870 1403 870 1350 Z" unicode="f" />
<glyph horiz-adv-x="1040" d="M 1047 854 C 1047 824 1039 799 1025 781 C 1010 763 989 754 961 754 C 927 754 903 765 891 787 C 878 809 872 841 872 885 C 838 885 813 881 795 875 C 777 869 760 860 745 850 L 745 836 C 770 808 789 777 803 741 C 816 705 823 671 823 641 C 823 587 807 537 775 493 C 743 449 700 414 646 388 C 592 362 536 350 477 350 L 358 350 C 340 340 323 329 309 316 C 294 302 287 284 287 262 C 287 236 294 216 308 203 C 322 189 341 180 365 174 C 389 168 436 164 506 162 L 735 150 C 781 146 824 132 864 108 C 904 84 937 51 961 9 C 985 -32 997 -78 997 -129 C 997 -233 952 -315 862 -374 C 772 -433 645 -463 483 -463 C 331 -463 218 -442 146 -400 C 73 -358 37 -296 37 -213 C 37 -149 65 -98 123 -59 C 181 -19 260 1 360 4 L 360 18 C 303 35 261 51 234 67 C 207 82 185 100 169 122 C 153 144 145 170 145 201 C 145 226 151 248 165 267 C 179 285 196 302 218 316 C 240 330 276 347 328 367 L 328 379 C 255 407 198 445 157 491 C 116 537 96 590 96 651 C 96 740 130 812 198 868 C 266 924 355 952 463 952 C 535 952 617 935 708 901 C 724 894 736 891 743 891 C 776 912 807 927 837 937 C 867 947 904 952 950 952 C 976 952 998 941 1018 921 C 1037 901 1047 878 1047 854 Z M 633 647 C 633 728 617 792 587 838 C 556 884 513 907 457 907 C 345 907 289 822 289 653 C 289 577 305 516 337 468 C 369 420 409 397 459 397 C 512 397 554 419 586 464 C 617 509 633 570 633 647 Z M 834 -170 C 834 -96 799 -48 729 -27 C 672 -17 566 -12 412 -12 C 338 -26 286 -50 256 -82 C 226 -114 211 -162 211 -225 C 211 -259 223 -291 248 -319 C 272 -347 308 -369 354 -385 C 400 -401 454 -410 518 -410 C 617 -410 694 -390 750 -350 C 806 -310 834 -250 834 -170 Z" unicode="g" />
<glyph horiz-adv-x="1178" d="M 1137 0 L 653 0 L 653 41 C 704 45 738 50 755 57 C 772 64 785 75 793 91 C 801 107 805 125 805 147 L 805 641 C 805 707 788 760 755 800 C 722 840 682 860 635 860 C 594 860 557 853 523 840 C 489 827 460 809 434 787 C 408 765 389 741 379 717 L 379 158 C 379 117 393 88 423 71 C 453 54 488 44 530 41 L 530 0 L 47 0 L 47 41 C 81 43 108 47 130 53 C 152 59 168 70 178 86 C 188 102 193 123 193 147 L 193 1315 C 190 1334 185 1354 178 1375 C 170 1395 161 1411 150 1423 C 139 1434 120 1443 92 1451 C 64 1458 33 1463 0 1466 L 0 1505 L 365 1528 L 379 1513 L 379 784 L 383 784 L 444 842 C 520 915 612 952 719 952 C 808 952 876 924 923 869 C 969 814 993 734 993 629 L 993 156 C 993 118 1005 91 1030 73 C 1054 55 1090 44 1137 41 L 1137 0 Z" unicode="h" />
<glyph horiz-adv-x="586" d="M 418 1348 C 418 1311 405 1279 380 1253 C 355 1227 325 1214 289 1214 C 254 1214 224 1226 200 1252 C 176 1277 164 1306 164 1339 C 164 1373 176 1403 201 1429 C 225 1455 255 1468 289 1468 C 326 1468 357 1456 381 1433 C 405 1409 418 1381 418 1348 Z M 545 0 L 68 0 L 68 41 C 100 43 128 47 150 53 C 172 58 188 69 198 87 C 208 105 213 125 213 147 L 213 735 C 211 754 206 772 199 788 C 191 804 181 818 169 829 C 156 840 136 850 108 860 C 80 870 57 875 37 877 L 37 915 L 385 938 L 399 924 L 399 160 C 399 138 403 118 413 102 C 423 85 440 71 466 61 C 491 50 517 43 545 41 L 545 0 Z" unicode="i" />
<glyph horiz-adv-x="596" d="M 442 1348 C 442 1311 429 1279 404 1253 C 379 1227 349 1214 313 1214 C 279 1214 250 1226 225 1251 C 200 1275 188 1305 188 1339 C 188 1374 200 1404 226 1430 C 251 1455 280 1468 313 1468 C 350 1468 381 1456 405 1433 C 429 1409 442 1381 442 1348 Z M 428 84 C 428 6 420 -65 405 -131 C 390 -197 364 -253 328 -301 C 292 -349 249 -388 201 -418 C 152 -448 96 -463 33 -463 C -32 -463 -83 -448 -121 -420 C -159 -391 -178 -354 -178 -309 C -178 -281 -166 -256 -143 -234 C -120 -212 -93 -201 -63 -201 C -28 -201 0 -210 21 -228 C 42 -246 53 -270 53 -301 C 53 -320 50 -339 44 -357 C 38 -375 35 -393 35 -410 L 78 -416 C 138 -416 181 -383 205 -319 C 229 -255 242 -141 242 23 L 242 727 C 240 746 235 765 227 783 C 219 801 209 815 197 827 C 185 838 158 849 116 860 C 74 871 41 877 18 879 L 18 915 L 414 938 L 428 924 L 428 84 Z" unicode="j" />
<glyph horiz-adv-x="1094" d="M 1118 0 L 793 0 C 770 74 738 148 698 221 C 658 294 618 350 578 388 C 538 426 501 446 467 446 C 440 446 421 442 409 436 C 397 430 387 423 379 416 L 379 158 C 379 112 396 81 432 67 C 468 52 500 43 530 41 L 530 0 L 47 0 L 47 41 C 81 43 108 47 130 53 C 152 59 168 70 178 86 C 188 102 193 123 193 147 L 193 1313 C 193 1334 189 1354 181 1373 C 173 1392 163 1408 151 1420 C 138 1432 117 1443 88 1451 C 59 1459 30 1464 0 1466 L 0 1505 L 365 1528 L 379 1513 L 379 461 C 453 531 527 603 599 676 C 671 748 711 790 719 802 C 727 814 731 823 731 829 C 731 841 720 853 699 863 C 677 873 646 880 604 885 L 604 926 L 1016 926 L 1016 887 C 940 865 875 837 822 805 C 768 772 688 702 582 596 C 646 566 702 523 752 469 C 802 414 847 345 889 263 L 963 119 C 975 95 996 76 1028 61 C 1060 46 1090 39 1118 39 L 1118 0 Z" unicode="k" />
<glyph horiz-adv-x="571" d="M 526 0 L 49 0 L 49 41 C 83 43 110 47 132 53 C 154 59 170 70 180 86 C 190 102 195 123 195 147 L 195 1309 C 195 1329 191 1349 183 1368 C 175 1386 164 1402 152 1414 C 139 1426 115 1438 81 1448 C 47 1458 18 1464 -4 1466 L -4 1505 L 367 1528 L 381 1513 L 381 160 C 381 116 396 86 427 70 C 458 53 491 43 526 41 L 526 0 Z" unicode="l" />
<glyph horiz-adv-x="1790" d="M 1755 0 L 1274 0 L 1274 41 C 1335 45 1374 56 1391 72 C 1408 88 1417 113 1417 147 L 1417 643 C 1417 707 1401 760 1370 800 C 1339 840 1299 860 1251 860 C 1197 860 1148 847 1103 821 C 1058 795 1024 761 1001 719 L 1001 158 C 1001 132 1006 111 1016 95 C 1026 79 1044 66 1068 57 C 1092 48 1118 43 1145 41 L 1145 0 L 674 0 L 674 41 C 732 45 769 55 787 72 C 804 88 813 113 813 147 L 813 643 C 813 707 797 760 766 800 C 735 840 695 860 647 860 C 595 860 546 847 501 821 C 455 795 421 760 397 717 L 397 160 C 397 117 412 87 444 70 C 476 53 509 43 545 41 L 545 0 L 66 0 L 66 41 C 98 43 126 47 148 53 C 170 58 186 69 196 85 C 206 101 211 122 211 147 L 211 739 C 208 765 200 788 187 808 C 174 827 154 843 126 856 C 98 868 73 875 51 877 L 51 915 L 381 938 L 395 924 L 395 782 L 401 782 L 462 842 C 535 915 625 952 731 952 C 795 952 849 936 893 904 C 937 872 971 830 995 776 L 1059 837 C 1139 913 1231 952 1335 952 C 1421 952 1488 923 1535 866 C 1582 808 1606 728 1606 625 L 1606 158 C 1606 118 1618 90 1642 72 C 1666 54 1704 44 1755 41 L 1755 0 Z" unicode="m" />
<glyph horiz-adv-x="1196" d="M 1155 0 L 672 0 L 672 41 C 722 44 756 49 773 57 C 790 64 803 75 811 91 C 819 106 823 125 823 147 L 823 641 C 823 707 806 760 773 800 C 740 840 700 860 653 860 C 597 860 545 846 499 820 C 452 793 418 759 397 717 L 397 158 C 397 115 413 85 447 69 C 480 52 514 43 549 41 L 549 0 L 66 0 L 66 41 C 98 43 126 47 148 53 C 170 58 186 69 196 85 C 206 101 211 122 211 147 L 211 735 C 208 761 200 785 188 807 C 176 829 157 845 131 857 C 105 869 79 875 55 877 L 55 915 L 383 938 L 397 924 L 397 784 L 401 784 L 461 842 C 537 915 627 952 733 952 C 823 952 892 924 940 869 C 988 813 1012 733 1012 629 L 1012 156 C 1012 131 1017 111 1027 95 C 1037 79 1054 66 1079 57 C 1104 48 1129 43 1155 41 L 1155 0 Z" unicode="n" />
<glyph horiz-adv-x="1071" d="M 1008 473 C 1008 377 988 290 948 213 C 908 136 851 76 778 34 C 705 -7 621 -29 526 -29 C 441 -29 363 -8 292 33 C 220 75 164 133 124 208 C 83 282 63 366 63 459 C 63 604 106 722 194 814 C 282 906 397 952 541 952 C 631 952 712 931 783 891 C 854 851 909 793 949 719 C 988 645 1008 563 1008 473 Z M 801 471 C 801 607 778 714 732 790 C 686 866 622 905 539 905 C 452 905 385 866 339 790 C 293 713 270 608 270 475 C 270 333 293 221 340 140 C 387 58 453 18 539 18 C 621 18 686 59 732 141 C 778 223 801 333 801 471 Z" unicode="o" />
<glyph horiz-adv-x="1153" d="M 1087 455 C 1087 367 1066 287 1024 213 C 982 139 925 81 853 39 C 781 -3 704 -25 623 -25 C 523 -25 444 -3 387 39 L 379 39 L 379 -295 C 379 -321 385 -343 397 -361 C 409 -379 435 -393 474 -403 C 513 -413 548 -420 578 -422 L 578 -463 L 27 -463 L 27 -422 C 99 -416 145 -405 164 -389 C 183 -373 193 -345 193 -307 L 193 739 C 189 769 180 793 168 813 C 155 832 135 847 107 858 C 79 868 53 875 27 877 L 27 915 L 362 938 L 377 926 L 377 821 L 385 819 C 425 861 469 894 517 917 C 565 940 613 952 662 952 C 740 952 812 931 878 889 C 943 847 994 788 1031 712 C 1068 636 1087 551 1087 455 Z M 879 457 C 879 583 853 683 802 757 C 750 831 680 868 592 868 C 508 868 437 834 379 766 L 379 182 C 395 132 424 93 466 63 C 508 33 554 18 606 18 C 687 18 753 57 803 136 C 853 214 879 321 879 457 Z" unicode="p" />
<glyph horiz-adv-x="1128" d="M 1143 -463 L 610 -463 L 610 -422 C 682 -416 729 -406 749 -391 C 769 -375 780 -347 780 -307 L 780 92 L 774 94 C 740 58 698 29 649 7 C 600 -14 551 -25 502 -25 C 420 -25 346 -4 280 37 C 214 79 161 138 123 215 C 85 291 66 378 66 475 C 66 561 87 641 129 715 C 171 788 229 846 303 888 C 376 930 454 952 537 952 C 585 952 632 945 679 932 C 726 919 767 902 802 882 L 846 856 L 946 981 L 983 973 C 972 807 967 688 967 614 L 967 -291 C 967 -316 972 -338 983 -356 C 993 -374 1014 -389 1046 -400 C 1077 -410 1109 -418 1143 -422 L 1143 -463 Z M 780 150 L 780 737 C 764 789 735 831 693 862 C 651 893 603 909 549 909 C 469 909 403 867 351 783 C 299 699 274 589 274 453 C 274 333 300 237 354 164 C 408 91 480 55 571 55 C 614 55 652 62 684 76 C 716 90 748 115 780 150 Z" unicode="q" />
<glyph horiz-adv-x="809" d="M 807 823 C 807 784 797 753 777 729 C 757 705 730 694 698 694 C 624 694 588 727 588 793 C 588 803 590 812 595 822 C 599 831 602 842 602 856 C 562 856 522 843 484 817 C 445 791 416 759 397 723 L 397 158 C 397 118 411 89 439 73 C 467 56 516 45 586 41 L 586 0 L 66 0 L 66 41 C 98 43 126 47 148 53 C 170 58 186 69 196 85 C 206 101 211 122 211 147 L 211 735 C 208 761 200 785 188 807 C 176 829 157 845 131 857 C 105 869 79 875 55 877 L 55 915 L 383 938 L 397 924 L 397 784 L 401 784 C 445 840 491 882 540 908 C 588 934 634 948 678 948 C 711 948 741 935 767 909 C 793 883 807 855 807 823 Z" unicode="r" />
<glyph horiz-adv-x="821" d="M 752 264 C 752 178 720 107 656 53 C 592 -1 509 -29 408 -29 C 364 -29 317 -20 268 -3 C 219 13 184 32 164 53 L 143 -10 L 76 -10 L 66 307 L 109 307 C 117 267 138 222 172 173 C 206 124 244 86 288 60 C 331 33 374 20 418 20 C 546 20 610 79 610 197 C 610 242 594 279 562 307 C 530 335 466 364 371 393 C 273 423 202 462 158 510 C 114 558 92 616 92 684 C 92 764 120 828 177 878 C 234 927 308 952 399 952 C 439 952 478 947 516 938 C 554 929 586 916 612 899 L 629 954 L 692 954 L 707 672 L 664 672 C 652 738 620 793 569 838 C 517 882 459 905 393 905 C 341 905 302 892 274 868 C 246 844 233 807 233 758 C 233 726 238 701 249 681 C 259 661 276 644 300 630 C 323 615 381 593 473 563 C 576 528 648 487 690 441 C 731 394 752 335 752 264 Z" unicode="s" />
<glyph horiz-adv-x="707" d="M 707 254 C 698 174 669 108 620 57 C 571 5 512 -20 442 -20 C 277 -20 195 74 195 262 L 195 834 L -2 834 L -2 922 L 199 922 L 199 1239 L 377 1239 L 377 922 L 657 922 L 657 834 L 379 834 L 379 287 C 379 218 391 169 417 139 C 442 109 482 94 537 94 C 600 94 638 128 652 196 L 662 254 L 707 254 Z" unicode="t" />
<glyph horiz-adv-x="1161" d="M 1120 18 L 799 -4 L 784 10 L 784 135 L 778 135 C 758 115 739 96 719 77 C 699 57 676 40 651 25 C 626 10 597 -1 565 -11 C 533 -20 495 -25 451 -25 C 363 -25 297 4 252 62 C 206 120 184 203 184 309 L 184 739 C 181 767 174 790 162 810 C 150 829 131 844 105 855 C 79 865 54 872 29 874 L 29 913 L 358 938 L 373 924 L 373 272 C 373 207 388 155 418 116 C 448 76 487 57 535 57 C 641 57 724 103 782 197 L 782 745 C 779 776 770 802 756 822 C 742 842 722 855 696 861 C 670 867 636 872 596 874 L 596 913 L 954 938 L 969 924 L 969 182 C 972 144 985 114 1009 94 C 1033 73 1070 61 1120 57 L 1120 18 Z" unicode="u" />
<glyph horiz-adv-x="956" d="M 997 887 C 973 883 945 870 911 846 C 877 822 854 798 842 772 C 808 698 769 607 725 501 L 602 207 C 574 147 548 73 522 -14 L 451 -14 L 387 148 L 125 782 C 115 806 95 828 67 847 C 39 866 7 878 -27 883 L -27 926 L 428 926 L 428 879 C 350 875 311 860 311 836 C 311 830 347 735 420 551 C 493 367 537 259 551 225 L 557 225 L 666 484 C 700 566 736 656 774 754 C 780 768 784 787 784 811 C 783 825 768 839 739 853 C 710 867 675 878 633 885 L 633 926 L 997 926 L 997 887 Z" unicode="v" />
<glyph horiz-adv-x="1503" d="M 1552 885 C 1520 881 1486 868 1452 844 C 1417 820 1394 792 1382 762 L 1161 203 C 1135 141 1109 68 1083 -14 L 1026 -14 C 938 226 854 447 774 649 C 744 582 685 433 598 203 C 570 137 543 65 518 -14 L 457 -14 L 237 531 L 133 780 C 123 806 103 829 73 849 C 43 869 14 880 -16 883 L -16 926 L 426 926 L 426 879 C 353 875 317 860 317 836 C 317 830 322 815 332 793 L 553 236 L 559 236 L 654 476 L 745 717 L 709 795 C 686 845 641 875 573 883 L 573 926 L 997 926 L 997 881 C 955 879 927 874 913 868 C 898 861 891 852 891 840 C 891 838 892 833 894 824 C 896 814 970 617 1118 233 L 1124 233 C 1213 463 1278 639 1319 762 C 1325 780 1329 798 1329 815 C 1329 833 1312 850 1279 864 C 1246 878 1214 885 1184 885 L 1184 926 L 1552 926 L 1552 885 Z" unicode="w" />
<glyph horiz-adv-x="965" d="M 965 0 L 520 0 L 520 43 C 550 44 576 49 598 57 C 620 65 631 75 631 86 C 631 92 621 113 602 147 L 432 399 L 384 337 C 330 269 292 219 270 187 C 248 155 235 135 231 127 C 227 119 225 111 225 104 C 225 90 237 77 262 65 C 287 53 317 45 352 41 L 352 0 L 0 0 L 0 39 C 40 53 77 71 111 92 C 145 113 172 137 194 163 C 216 189 251 232 301 294 C 350 355 386 402 408 434 L 166 791 C 125 852 74 883 14 883 L 14 926 L 436 926 L 436 883 C 416 883 396 880 374 875 C 352 869 342 862 342 854 C 342 846 345 835 353 821 C 360 807 418 718 528 555 L 572 615 L 692 788 C 698 797 702 809 702 825 C 702 835 689 847 663 859 C 637 871 612 880 590 885 L 590 926 L 940 926 L 940 887 C 888 871 846 852 813 830 C 779 807 755 787 741 770 C 686 700 623 617 553 520 C 711 289 803 154 829 114 C 855 74 901 51 965 43 L 965 0 Z" unicode="x" />
<glyph horiz-adv-x="946" d="M 989 887 C 966 884 938 871 906 848 C 873 824 850 799 838 772 C 792 674 717 494 612 233 L 541 56 C 512 -16 479 -91 442 -167 C 405 -243 372 -302 342 -344 C 312 -386 282 -416 252 -435 C 222 -453 180 -463 127 -463 C 86 -463 50 -450 20 -424 C -9 -398 -25 -364 -25 -324 C -25 -293 -13 -265 9 -241 C 32 -217 60 -205 92 -205 C 125 -205 151 -214 170 -232 C 189 -250 199 -275 199 -307 L 199 -379 C 234 -371 274 -335 318 -273 C 362 -210 408 -126 455 -20 L 288 393 L 125 782 C 115 806 95 828 67 847 C 39 866 7 878 -27 883 L -27 926 L 422 926 L 422 879 C 348 875 311 860 311 836 C 311 830 391 627 553 229 L 557 229 C 664 487 735 662 770 754 C 778 773 782 792 782 811 C 782 824 768 838 740 852 C 712 866 677 877 635 885 L 635 926 L 989 926 L 989 887 Z" unicode="y" />
<glyph horiz-adv-x="895" d="M 846 0 L 49 0 L 49 31 L 608 872 L 499 873 C 420 873 361 871 323 867 C 284 863 254 857 234 849 C 213 840 194 817 178 781 C 161 744 148 703 139 659 L 86 659 L 86 926 L 838 926 L 838 907 L 272 53 L 363 51 L 444 51 C 504 51 572 53 647 57 C 669 58 688 64 702 76 C 716 88 731 115 748 159 C 764 202 781 252 797 309 L 846 309 L 846 0 Z" unicode="z" />
<glyph horiz-adv-x="881" d="M 815 -346 C 692 -346 600 -334 539 -311 C 478 -288 433 -251 404 -201 C 374 -150 360 -82 360 4 C 360 34 365 78 377 136 C 387 192 393 236 393 268 C 393 327 382 375 362 411 C 341 447 310 475 270 494 C 230 512 161 526 63 535 L 63 643 C 157 651 225 664 267 683 C 309 701 341 729 362 765 C 382 801 393 849 393 909 C 393 940 387 984 377 1042 C 365 1099 360 1143 360 1174 C 360 1260 374 1328 404 1379 C 434 1429 479 1466 541 1489 C 602 1512 693 1524 815 1524 L 815 1477 C 737 1472 683 1462 651 1446 C 619 1430 594 1405 576 1373 C 558 1340 549 1294 549 1235 L 552 1175 C 562 1078 567 1020 567 1001 C 567 923 554 860 530 810 C 506 760 470 720 424 690 C 377 660 303 634 203 614 L 203 563 C 303 542 377 517 424 487 C 470 457 506 417 530 367 C 554 317 567 254 567 176 L 564 116 C 554 21 549 -36 549 -57 C 549 -97 553 -132 562 -161 C 571 -189 584 -213 601 -231 C 617 -249 640 -264 670 -276 C 700 -287 748 -295 815 -299 L 815 -346 Z" unicode="{" />
<glyph horiz-adv-x="610" d="M 354 -424 L 256 -424 L 256 1528 L 354 1528 L 354 -424 Z" unicode="|" />
<glyph horiz-adv-x="881" d="M 817 535 C 721 527 652 513 611 494 C 570 475 539 448 518 412 C 497 376 487 328 487 268 C 487 236 492 192 504 136 C 514 78 520 34 520 4 C 520 -82 505 -151 475 -202 C 445 -252 400 -289 338 -312 C 276 -334 186 -346 66 -346 L 66 -299 C 133 -295 181 -287 211 -276 C 240 -264 263 -249 280 -231 C 296 -212 309 -188 318 -160 C 327 -131 332 -97 332 -57 C 332 -31 329 8 323 60 C 316 111 313 150 313 176 C 313 249 324 311 347 362 C 370 413 406 454 454 485 C 502 516 577 542 678 563 L 678 614 C 576 634 502 660 456 690 C 409 720 373 761 349 811 C 325 861 313 924 313 1001 C 313 1027 316 1066 323 1118 C 329 1169 332 1208 332 1235 C 332 1293 323 1339 305 1372 C 287 1405 262 1430 230 1446 C 198 1462 143 1472 66 1477 L 66 1524 C 185 1524 275 1512 337 1490 C 399 1467 445 1430 475 1380 C 505 1329 520 1260 520 1174 C 520 1143 514 1099 504 1042 C 492 984 487 940 487 909 C 487 849 497 801 518 765 C 539 729 571 701 613 683 C 655 664 723 651 817 643 L 817 535 Z" unicode="}" />
<glyph horiz-adv-x="1106" d="M 991 666 C 973 598 936 538 880 487 C 824 435 767 410 709 410 C 667 410 631 414 599 424 C 567 433 537 443 509 455 C 481 466 455 476 430 486 C 405 495 380 500 354 500 C 304 500 265 492 236 476 C 206 460 179 429 154 383 L 113 397 C 131 465 167 525 223 576 C 279 627 336 653 395 653 C 433 653 469 648 501 639 C 533 629 563 619 591 608 C 619 596 646 586 672 577 C 698 567 724 563 750 563 C 799 563 838 570 868 586 C 897 602 924 633 950 680 L 991 666 Z" unicode="~" />
<glyph horiz-adv-x="242" d="" unicode="" />
<glyph horiz-adv-x="748" d="M 506 1288 C 506 1251 492 1219 466 1192 C 440 1164 407 1151 369 1151 C 329 1151 296 1164 270 1192 C 244 1219 231 1251 231 1288 C 231 1325 244 1357 271 1383 C 298 1409 331 1423 369 1423 C 407 1423 439 1409 466 1383 C 492 1357 506 1325 506 1288 Z M 496 104 C 496 65 484 32 460 5 C 436 -21 405 -35 369 -35 C 333 -35 302 -21 278 4 C 254 30 242 64 242 104 C 242 138 254 244 279 422 C 307 626 329 809 344 969 L 397 969 C 411 795 431 614 458 425 C 483 243 496 136 496 104 Z" unicode="" />
<glyph horiz-adv-x="983" d="M 918 373 C 875 298 820 239 752 195 C 684 151 613 129 539 129 C 499 129 462 132 428 139 L 340 -236 L 293 -225 L 381 152 C 289 182 218 238 168 318 C 118 398 94 499 94 621 C 94 709 113 791 153 867 C 193 942 248 1001 319 1043 C 390 1085 470 1106 559 1106 L 582 1106 L 604 1104 L 668 1372 L 717 1362 L 653 1098 C 729 1085 789 1058 832 1016 C 875 974 897 925 897 868 C 897 834 888 806 871 785 C 853 764 827 754 791 754 C 758 754 731 763 709 782 C 687 800 676 825 676 856 C 676 889 680 916 689 937 C 697 957 702 973 702 983 C 696 1018 676 1040 643 1049 L 457 258 C 495 232 538 219 588 219 C 652 219 706 232 751 259 C 796 285 839 333 879 401 L 918 373 Z M 594 1057 L 559 1057 C 477 1057 413 1020 367 947 C 320 874 297 771 297 639 C 297 565 307 498 328 438 C 349 378 378 330 414 293 L 594 1057 Z" unicode="" />
<glyph horiz-adv-x="1653" d="M 1540 1081 C 1540 985 1510 906 1452 845 C 1393 784 1315 754 1219 754 C 1150 754 1092 778 1046 827 C 1000 875 977 936 977 1010 C 977 1068 988 1121 1012 1169 L 1057 1161 C 1037 1115 1028 1068 1028 1018 C 1028 955 1045 905 1081 867 C 1117 829 1163 811 1219 811 C 1279 811 1326 834 1360 881 C 1394 928 1411 991 1411 1071 C 1411 1164 1387 1238 1341 1294 C 1295 1350 1232 1378 1153 1378 C 1029 1378 939 1330 884 1234 C 828 1138 801 991 801 793 C 801 723 798 667 793 625 L 1120 625 L 1120 578 L 791 578 C 788 554 778 499 760 412 L 1104 412 L 1104 367 L 752 367 C 731 289 694 206 641 119 C 682 105 721 88 758 70 C 794 51 831 33 867 17 C 903 0 941 -13 981 -25 C 1021 -37 1064 -43 1112 -43 C 1160 -43 1200 -31 1234 -7 C 1267 16 1294 48 1315 90 C 1335 132 1352 191 1366 268 L 1425 260 C 1407 113 1355 3 1270 -69 C 1185 -141 1071 -178 928 -178 C 900 -178 872 -175 845 -169 C 817 -163 787 -154 755 -142 C 723 -130 651 -96 541 -41 C 501 -89 449 -127 387 -157 C 325 -186 255 -201 178 -201 C 96 -201 34 -185 -10 -153 C -54 -121 -76 -77 -76 -20 C -76 36 -39 83 32 121 C 104 159 192 178 295 178 C 354 178 443 165 563 141 C 569 171 573 199 573 225 C 573 255 571 303 567 367 L 227 367 L 227 412 L 567 412 L 565 578 L 240 578 L 240 625 L 565 625 C 570 785 597 927 645 1049 C 693 1171 760 1265 846 1331 C 932 1397 1030 1430 1141 1430 C 1219 1430 1288 1415 1348 1387 C 1407 1359 1454 1317 1488 1262 C 1522 1206 1540 1146 1540 1081 Z M 498 -20 C 443 5 387 27 329 46 C 271 64 209 74 143 74 C 94 74 55 63 27 41 C -1 19 -16 -8 -16 -43 C -16 -76 0 -101 34 -118 C 68 -134 115 -143 176 -143 C 244 -143 307 -131 363 -108 C 419 -85 464 -56 498 -20 Z" unicode="" />
<glyph horiz-adv-x="1151" d="M 1057 391 L 940 285 L 739 500 C 691 468 635 453 571 453 C 509 453 455 468 408 500 L 209 285 L 92 391 L 299 608 C 281 634 268 660 262 686 C 255 712 252 743 252 780 C 252 847 267 904 299 952 L 92 1167 L 209 1276 L 408 1061 C 455 1092 509 1108 571 1108 C 635 1108 691 1092 739 1061 L 944 1276 L 1061 1155 L 852 952 C 871 924 884 897 890 871 C 896 844 899 814 899 780 C 899 716 882 658 848 608 L 1057 391 Z M 748 780 C 748 833 731 876 697 910 C 663 944 621 961 571 961 C 521 961 479 944 447 910 C 415 876 399 833 399 780 C 399 726 415 684 449 652 C 483 620 523 604 571 604 C 624 604 667 620 699 652 C 731 684 748 726 748 780 Z" unicode="" />
<glyph horiz-adv-x="1186" d="M 1204 1198 C 1193 1196 1176 1192 1152 1185 C 1128 1178 1112 1171 1104 1165 C 1088 1156 1075 1146 1064 1136 C 1052 1125 1031 1101 1001 1063 C 970 1025 939 982 909 934 C 878 886 819 785 733 629 C 723 612 711 583 696 543 L 1012 543 L 1012 496 L 684 496 C 680 472 678 451 678 432 L 678 348 L 1012 348 L 1012 301 L 678 301 L 678 172 C 678 133 691 104 718 84 C 745 64 803 51 891 45 L 891 0 L 256 0 L 256 45 L 293 48 C 322 49 353 52 387 58 C 421 64 445 76 459 96 C 473 115 481 137 481 162 L 481 301 L 160 301 L 160 348 L 481 348 L 481 496 L 160 496 L 160 543 L 473 543 C 467 567 455 595 438 627 C 392 719 340 816 283 918 C 226 1020 187 1084 166 1110 C 144 1136 120 1156 94 1171 C 68 1185 32 1194 -14 1198 L -14 1243 L 563 1243 L 563 1198 C 496 1192 450 1184 424 1175 C 398 1166 385 1155 385 1143 C 385 1133 400 1099 431 1040 C 462 980 533 851 645 653 C 762 839 837 961 869 1018 C 901 1074 918 1108 918 1120 C 918 1141 902 1158 870 1172 C 838 1186 793 1194 737 1198 L 737 1243 L 1204 1243 L 1204 1198 Z" unicode="" />
<glyph horiz-adv-x="610" d="M 354 745 L 256 745 L 256 1528 L 354 1528 L 354 745 Z M 354 -424 L 256 -424 L 256 379 L 354 379 L 354 -424 Z" unicode="" />
<glyph horiz-adv-x="1167" d="M 1014 362 C 1014 293 990 237 944 194 C 897 151 829 123 741 111 C 801 22 831 -68 831 -160 C 831 -212 816 -262 787 -309 C 758 -356 718 -394 668 -422 C 618 -450 564 -465 508 -465 C 459 -465 416 -455 378 -435 C 340 -415 310 -389 288 -356 C 265 -322 254 -290 254 -258 C 254 -212 265 -178 287 -154 C 309 -130 339 -119 377 -119 C 407 -119 432 -128 452 -146 C 471 -164 481 -187 481 -215 C 481 -233 476 -247 468 -257 C 459 -266 450 -274 440 -281 C 430 -287 420 -294 412 -301 C 403 -308 399 -318 399 -332 C 399 -389 440 -418 522 -418 C 632 -418 688 -341 688 -188 C 688 -142 679 -101 663 -66 C 647 -30 618 13 578 66 C 553 99 513 146 457 206 C 329 341 246 439 209 500 C 172 561 154 626 154 694 C 154 763 178 822 226 870 C 274 918 339 947 420 958 C 365 1040 338 1123 338 1208 C 338 1260 352 1309 381 1356 C 410 1403 450 1441 502 1469 C 553 1497 608 1511 666 1511 C 712 1511 754 1501 790 1481 C 826 1461 854 1434 874 1402 C 894 1370 905 1338 905 1307 C 905 1261 894 1227 872 1203 C 850 1179 820 1167 782 1167 C 752 1167 727 1176 707 1194 C 687 1212 678 1235 678 1264 C 678 1283 682 1298 691 1308 C 700 1318 710 1326 721 1333 C 731 1339 741 1346 750 1352 C 759 1358 764 1368 764 1380 C 764 1408 755 1428 737 1442 C 719 1455 688 1462 645 1462 C 589 1462 547 1444 517 1408 C 487 1372 473 1320 473 1251 C 473 1216 478 1184 489 1155 C 500 1126 524 1086 562 1035 C 600 983 635 938 669 899 C 703 859 738 820 774 782 C 868 678 931 597 964 541 C 997 485 1014 425 1014 362 Z M 879 317 C 879 376 846 444 782 520 C 712 604 648 679 590 745 C 532 810 484 869 444 922 C 384 911 342 891 318 861 C 293 831 281 790 281 739 C 281 708 294 669 321 623 C 347 576 400 509 480 423 C 547 347 598 290 632 251 C 666 211 695 176 717 145 C 775 162 817 185 842 213 C 866 241 879 275 879 317 Z" unicode="" />
<glyph horiz-adv-x="1024" d="M 854 1329 C 854 1296 842 1267 819 1242 C 796 1216 767 1204 733 1204 C 701 1204 673 1215 649 1238 C 625 1260 614 1288 614 1321 C 614 1353 625 1382 649 1406 C 673 1430 701 1442 733 1442 C 768 1442 797 1430 820 1408 C 842 1385 854 1359 854 1329 Z M 410 1329 C 410 1295 398 1266 374 1241 C 350 1216 321 1204 287 1204 C 255 1204 227 1215 204 1238 C 181 1261 170 1289 170 1321 C 170 1353 181 1381 204 1405 C 227 1429 255 1442 287 1442 C 322 1442 351 1430 375 1408 C 398 1386 410 1359 410 1329 Z" unicode="" />
<glyph horiz-adv-x="1946" d="M 1866 514 C 1866 358 1827 211 1749 75 C 1671 -60 1563 -169 1425 -250 C 1287 -330 1137 -371 975 -371 C 813 -371 663 -331 525 -252 C 387 -172 279 -64 199 72 C 119 208 80 356 80 514 C 80 671 119 817 198 952 C 277 1087 385 1195 523 1275 C 661 1355 811 1395 975 1395 C 1138 1395 1289 1354 1427 1273 C 1565 1191 1672 1083 1750 947 C 1827 811 1866 667 1866 514 Z M 1778 514 C 1778 662 1741 799 1667 925 C 1593 1051 1495 1148 1372 1218 C 1249 1288 1117 1323 975 1323 C 829 1323 695 1287 571 1216 C 447 1144 348 1046 276 922 C 204 797 168 661 168 514 C 168 366 204 228 276 102 C 348 -23 447 -122 571 -194 C 695 -265 830 -301 975 -301 C 1117 -301 1249 -266 1373 -196 C 1496 -126 1594 -27 1668 100 C 1741 227 1778 365 1778 514 Z M 1378 313 C 1334 217 1279 145 1213 98 C 1146 50 1071 27 987 27 C 838 27 719 70 631 156 C 542 242 498 359 498 506 C 498 598 520 683 565 760 C 609 837 671 897 751 940 C 830 982 918 1004 1016 1004 C 1056 1004 1097 997 1141 984 C 1184 970 1217 956 1239 940 L 1284 1018 L 1339 1018 L 1348 647 L 1300 647 C 1262 758 1218 835 1168 878 C 1117 920 1053 942 977 942 C 923 942 875 924 833 890 C 791 856 758 807 734 743 C 710 679 698 603 698 516 C 698 398 728 302 790 228 C 852 154 931 117 1028 117 C 1094 117 1152 132 1201 164 C 1249 196 1293 252 1333 334 L 1378 313 Z" unicode="" />
<glyph horiz-adv-x="717" d="M 657 862 C 653 803 640 761 619 736 C 597 710 568 698 530 698 C 501 698 479 704 463 718 C 447 732 435 753 426 782 C 377 724 320 696 254 696 C 210 696 174 707 148 731 C 122 755 109 787 109 827 C 109 871 120 906 142 932 C 164 958 210 983 279 1006 C 353 1030 401 1047 422 1057 L 422 1116 C 422 1151 413 1179 397 1200 C 380 1220 357 1231 328 1231 C 302 1231 280 1219 262 1196 C 262 1186 263 1175 267 1164 C 270 1152 272 1140 272 1128 C 272 1114 265 1102 252 1090 C 239 1078 221 1073 199 1073 C 159 1073 139 1095 139 1139 C 139 1173 159 1204 199 1230 C 239 1256 284 1270 334 1270 C 392 1270 434 1264 461 1252 C 488 1240 508 1221 522 1195 C 536 1169 543 1134 543 1090 L 535 827 C 535 815 539 803 549 791 C 559 779 570 774 584 774 C 607 774 620 793 623 831 L 625 862 L 657 862 Z M 629 471 L 119 471 L 119 530 L 629 530 L 629 471 Z M 422 1012 C 360 990 319 972 298 958 C 277 944 261 929 251 912 C 241 895 236 874 236 848 C 236 789 260 760 309 760 C 331 760 350 763 366 771 C 382 779 398 794 416 817 L 422 1012 Z" unicode="" />
<glyph horiz-adv-x="1147" d="M 1032 57 L 999 31 L 554 390 C 544 396 538 404 535 413 C 531 422 530 437 530 459 C 530 479 532 493 536 503 C 540 512 551 525 571 541 C 741 672 884 787 999 885 L 1032 858 L 711 455 L 1032 57 Z M 604 57 L 571 31 L 126 390 C 116 396 110 404 107 413 C 103 422 102 437 102 459 C 102 479 104 493 108 503 C 112 512 123 525 143 541 C 313 672 456 787 571 885 L 604 858 L 283 455 L 604 57 Z" unicode="" />
<glyph horiz-adv-x="1188" d="M 1059 80 L 954 80 L 954 526 L 100 526 L 100 621 L 1059 621 L 1059 80 Z" unicode="" />
<glyph horiz-adv-x="778" d="M 696 434 L 82 434 L 82 590 L 696 590 L 696 434 Z" unicode="" />
<glyph horiz-adv-x="971" d="M 858 1067 C 858 961 822 873 750 801 C 678 729 590 694 485 694 C 379 694 290 730 219 802 C 148 874 113 962 113 1067 C 113 1135 129 1198 162 1256 C 194 1314 239 1359 296 1391 C 353 1423 416 1440 485 1440 C 590 1440 678 1404 750 1332 C 822 1260 858 1172 858 1067 Z M 817 1067 C 817 1163 785 1243 721 1309 C 657 1374 579 1407 485 1407 C 390 1407 311 1374 248 1309 C 185 1243 154 1163 154 1067 C 154 1005 168 947 197 895 C 226 842 266 801 317 771 C 367 741 423 727 485 727 C 579 727 657 759 721 825 C 785 890 817 971 817 1067 Z M 717 952 C 717 922 711 900 700 886 C 688 872 669 866 641 866 C 590 866 561 901 553 971 C 549 1006 539 1031 525 1047 C 511 1063 490 1071 463 1071 L 428 1071 L 428 932 C 428 918 432 908 442 903 C 451 897 466 895 487 895 L 487 872 L 295 872 L 295 895 C 316 895 330 897 336 901 C 348 907 354 917 354 932 L 354 1233 C 354 1241 352 1247 350 1253 C 347 1259 339 1263 326 1267 C 313 1270 303 1272 295 1272 L 295 1292 L 510 1292 C 550 1292 582 1283 607 1266 C 632 1248 645 1226 645 1198 C 645 1172 634 1151 613 1133 C 592 1115 563 1101 526 1092 L 526 1085 C 579 1075 611 1053 621 1020 L 641 928 C 646 910 656 901 670 901 C 678 901 684 904 689 910 C 693 916 696 930 696 952 L 717 952 Z M 561 1186 C 561 1214 554 1235 541 1249 C 528 1263 507 1270 477 1270 L 428 1270 L 428 1096 L 461 1096 C 527 1096 561 1126 561 1186 Z" unicode="" />
<glyph horiz-adv-x="1024" d="M 850 1221 L 174 1221 L 174 1348 L 850 1348 L 850 1221 Z" unicode="" />
<glyph horiz-adv-x="840" d="M 723 1147 C 723 1094 708 1044 680 998 C 651 952 613 915 565 888 C 517 861 468 848 416 848 C 327 848 255 875 200 930 C 144 984 117 1056 117 1145 C 117 1199 130 1250 158 1298 C 185 1345 222 1383 270 1411 C 317 1439 366 1454 416 1454 C 474 1454 526 1441 574 1416 C 621 1391 658 1356 684 1310 C 710 1264 723 1209 723 1147 Z M 600 1143 C 600 1221 583 1282 551 1326 C 519 1369 474 1391 418 1391 C 364 1391 320 1369 287 1327 C 254 1285 238 1227 238 1153 C 238 1079 254 1020 286 976 C 318 931 364 909 422 909 C 474 909 516 930 550 974 C 583 1018 600 1074 600 1143 Z" unicode="" />
<glyph horiz-adv-x="1536" d="M 672 352 L 672 764 L 201 764 L 201 936 L 672 936 L 672 1352 L 864 1352 L 864 936 L 1339 936 L 1339 764 L 864 764 L 864 352 L 672 352 Z M 205 25 L 205 215 L 1335 215 L 1335 25 L 205 25 Z" unicode="" />
<glyph horiz-adv-x="895" d="M 55 629 L 55 768 L 399 1108 C 447 1153 484 1194 512 1230 C 539 1266 553 1306 553 1352 C 553 1387 537 1415 507 1436 C 476 1457 440 1468 399 1468 C 357 1468 315 1455 275 1430 C 235 1405 200 1378 172 1348 L 63 1456 C 104 1498 156 1536 220 1570 C 283 1603 352 1620 428 1620 C 520 1620 597 1593 657 1540 C 717 1486 748 1421 748 1343 C 748 1272 717 1202 657 1134 C 597 1066 542 1013 492 977 L 268 788 L 776 788 L 776 629 L 55 629 Z" unicode="" />
<glyph horiz-adv-x="895" d="M 47 731 L 152 864 C 227 805 318 776 424 776 C 490 776 540 790 572 818 C 604 846 621 882 621 928 C 621 978 598 1015 552 1039 C 506 1063 449 1075 383 1075 L 311 1075 L 311 1204 L 373 1204 C 438 1204 490 1216 529 1242 C 568 1267 588 1298 588 1335 C 588 1379 570 1410 535 1428 C 500 1446 459 1456 412 1456 C 358 1456 312 1447 272 1430 C 232 1413 200 1398 176 1384 L 88 1516 C 195 1585 315 1620 449 1620 C 547 1620 625 1598 684 1556 C 742 1514 772 1454 772 1376 C 772 1309 751 1257 709 1221 C 667 1185 616 1161 555 1149 C 627 1141 688 1118 737 1080 C 786 1042 811 983 811 903 C 811 810 773 738 699 688 C 625 637 536 612 432 612 C 278 612 149 651 47 731 Z" unicode="" />
<glyph horiz-adv-x="1024" d="M 696 1419 C 696 1391 687 1368 671 1350 C 655 1332 622 1304 573 1268 C 467 1189 383 1124 319 1073 L 291 1098 C 364 1204 430 1308 489 1409 C 507 1441 526 1463 546 1477 C 566 1490 588 1497 614 1497 C 637 1497 656 1489 672 1473 C 688 1457 696 1439 696 1419 Z" unicode="" />
<glyph horiz-adv-x="1182" d="M 1192 244 C 1186 155 1165 89 1131 46 C 1096 3 1044 -18 975 -18 C 927 -18 888 -6 860 17 C 831 40 809 77 793 127 L 786 127 C 706 29 610 -20 496 -20 C 453 -20 411 -10 371 10 C 331 30 299 57 276 92 L 272 92 L 272 -14 C 272 -46 275 -77 283 -107 C 290 -137 298 -167 307 -195 C 315 -223 323 -251 331 -278 C 338 -304 342 -330 342 -356 C 342 -387 331 -413 309 -433 C 287 -453 261 -463 231 -463 C 205 -463 183 -453 165 -435 C 146 -416 137 -392 137 -362 C 137 -326 147 -250 167 -134 C 179 -57 186 30 186 129 L 186 926 L 371 926 L 371 283 C 371 221 389 170 425 129 C 461 88 505 68 557 68 C 666 68 742 104 786 176 L 786 926 L 971 926 L 971 195 C 971 163 979 137 996 117 C 1012 97 1035 88 1065 88 C 1089 88 1107 98 1120 119 C 1133 139 1142 181 1147 244 L 1192 244 Z" unicode="" />
<glyph horiz-adv-x="1268" d="M 1235 1354 L 944 1354 L 944 -256 L 887 -256 L 887 1354 L 690 1354 L 690 -256 L 633 -256 L 633 700 L 571 700 C 426 700 314 729 236 787 C 158 845 119 931 119 1044 C 119 1110 134 1171 164 1225 C 194 1279 238 1321 295 1352 C 352 1383 420 1399 500 1399 L 1235 1399 L 1235 1354 Z" unicode="" />
<glyph horiz-adv-x="594" d="M 438 557 C 438 519 424 487 397 460 C 370 433 337 420 299 420 C 259 420 226 433 200 461 C 173 488 160 520 160 557 C 160 595 173 627 201 655 C 228 682 261 696 299 696 C 337 696 369 682 397 655 C 424 627 438 595 438 557 Z" unicode="" />
<glyph horiz-adv-x="1024" d="M 715 -274 C 715 -322 699 -360 669 -389 C 638 -417 595 -438 539 -451 C 483 -464 399 -471 289 -471 L 289 -418 L 386 -417 C 446 -417 492 -408 522 -391 C 552 -373 567 -347 567 -311 C 567 -285 555 -266 532 -254 C 508 -242 462 -236 393 -236 L 393 16 L 451 16 L 451 -119 C 538 -119 604 -132 648 -159 C 692 -185 715 -224 715 -274 Z" unicode="" />
<glyph horiz-adv-x="768" d="M 324 629 L 324 1423 L 143 1384 L 143 1528 L 391 1636 L 508 1636 L 508 629 L 324 629 Z" unicode="" />
<glyph horiz-adv-x="754" d="M 655 985 C 655 896 629 824 577 770 C 525 715 457 688 373 688 C 293 688 228 715 176 769 C 124 823 98 893 98 977 C 98 1065 123 1135 175 1189 C 227 1243 295 1270 379 1270 C 461 1270 527 1243 578 1191 C 629 1139 655 1070 655 985 Z M 631 471 L 121 471 L 121 530 L 631 530 L 631 471 Z M 518 983 C 518 1059 505 1118 481 1160 C 456 1202 422 1223 379 1223 C 333 1223 298 1202 272 1162 C 246 1121 233 1062 233 985 C 233 907 245 845 271 801 C 296 757 332 735 379 735 C 423 735 457 756 481 799 C 505 842 518 903 518 983 Z" unicode="" />
<glyph horiz-adv-x="1147" d="M 1044 459 C 1044 437 1042 422 1039 413 C 1035 403 1029 396 1021 390 L 575 31 L 543 57 L 864 455 L 543 858 L 575 885 C 683 792 826 677 1004 541 C 1023 525 1034 512 1038 502 C 1042 492 1044 478 1044 459 Z M 616 459 C 616 437 614 422 611 413 C 607 403 601 396 593 390 L 147 31 L 115 57 L 436 455 L 115 858 L 147 885 C 261 787 404 672 575 541 C 590 529 601 518 607 508 C 613 498 616 481 616 459 Z" unicode="" />
<glyph horiz-adv-x="1219" d="M 1022 -332 L 985 -332 C 983 -315 980 -297 975 -278 C 969 -259 962 -244 953 -234 C 944 -223 934 -216 923 -212 C 912 -208 889 -206 855 -206 L 799 -207 L 799 -338 C 799 -365 808 -384 828 -395 C 848 -406 886 -414 942 -420 L 942 -465 L 496 -465 L 496 -420 L 520 -418 C 565 -414 593 -410 605 -405 C 616 -399 625 -391 631 -381 C 637 -371 641 -359 641 -346 L 641 -207 L 207 -207 L 207 -131 L 719 377 L 799 377 L 799 -129 L 852 -129 C 891 -129 918 -124 934 -116 C 949 -107 961 -92 970 -71 C 978 -49 983 -29 983 -10 L 1022 -10 L 1022 -332 Z M 897 694 L 350 694 L 350 739 L 383 741 C 417 741 446 743 471 747 C 496 751 514 759 526 772 C 537 785 543 800 543 817 L 543 1399 C 523 1395 499 1393 469 1393 C 423 1393 361 1421 285 1477 L 301 1507 C 357 1485 415 1475 473 1475 C 544 1475 621 1494 705 1534 L 733 1534 C 718 1469 711 1399 711 1325 L 711 823 C 711 809 715 796 723 784 C 731 772 743 763 758 758 C 772 752 819 746 897 739 L 897 694 Z M 1100 487 L 119 487 L 119 571 L 1100 571 L 1100 487 Z M 641 -129 L 641 219 L 283 -129 L 641 -129 Z" unicode="" />
<glyph horiz-adv-x="1219" d="M 895 694 L 350 694 L 350 739 L 383 741 C 417 741 446 743 471 747 C 496 751 514 759 526 772 C 537 785 543 800 543 817 L 543 1399 C 523 1395 499 1393 469 1393 C 427 1393 365 1421 285 1477 L 301 1507 C 357 1485 415 1475 473 1475 C 544 1475 621 1494 705 1534 L 731 1534 C 725 1510 721 1478 717 1438 C 713 1398 711 1360 711 1325 L 711 823 C 711 809 715 796 723 784 C 731 772 742 763 758 758 C 762 756 769 754 779 752 C 788 750 827 745 895 739 L 895 694 Z M 1100 487 L 119 487 L 119 571 L 1100 571 L 1100 487 Z M 1030 -205 L 911 -465 L 272 -465 L 272 -408 L 394 -329 C 503 -259 580 -205 625 -165 C 670 -125 706 -89 732 -56 C 758 -23 776 9 788 43 C 799 77 805 119 805 170 C 805 216 790 254 761 282 C 731 310 691 324 641 324 C 596 324 554 313 515 293 C 476 273 445 246 423 212 C 400 178 389 143 389 109 C 389 75 396 51 412 38 C 427 24 451 18 483 18 C 535 18 585 57 631 135 L 664 109 C 596 -5 510 -63 406 -63 C 366 -63 332 -50 306 -24 C 279 2 266 34 266 74 C 266 119 284 165 321 213 C 357 261 406 299 467 329 C 527 358 591 373 659 373 C 751 373 828 351 890 307 C 952 263 983 210 983 147 C 983 87 971 37 947 -4 C 923 -45 884 -86 828 -126 C 772 -166 690 -213 580 -266 C 528 -292 491 -314 469 -332 L 827 -332 C 846 -332 864 -327 881 -318 C 897 -308 913 -295 929 -278 C 945 -261 967 -231 995 -188 L 1030 -205 Z" unicode="" />
<glyph horiz-adv-x="1219" d="M 1022 -332 L 985 -332 C 983 -315 980 -297 975 -278 C 969 -259 962 -244 953 -234 C 944 -223 934 -216 923 -212 C 912 -208 889 -206 855 -206 L 799 -207 L 799 -338 C 799 -365 808 -384 828 -395 C 848 -406 886 -414 942 -420 L 942 -465 L 496 -465 L 496 -420 L 520 -418 C 565 -414 593 -410 605 -405 C 616 -399 625 -391 631 -381 C 637 -371 641 -359 641 -346 L 641 -207 L 207 -207 L 207 -131 L 719 377 L 799 377 L 799 -129 L 852 -129 C 891 -129 918 -124 934 -116 C 949 -107 961 -92 970 -71 C 978 -49 983 -29 983 -10 L 1022 -10 L 1022 -332 Z M 971 979 C 971 891 929 820 845 764 C 761 708 653 680 520 680 C 440 680 371 697 314 731 C 257 765 229 810 229 866 C 229 898 240 926 264 948 C 287 970 316 981 352 981 C 379 981 400 974 415 960 C 430 946 438 928 438 905 C 438 887 434 875 427 868 C 419 861 411 856 402 852 C 393 848 385 845 378 841 C 370 837 367 829 367 817 C 367 791 380 770 408 754 C 435 738 472 731 520 731 C 590 731 653 756 710 807 C 766 857 795 917 795 985 C 795 1027 786 1058 769 1080 C 751 1101 723 1112 684 1112 C 650 1112 611 1092 565 1054 L 524 1020 L 485 1075 L 605 1140 C 667 1174 712 1208 742 1242 C 771 1276 786 1315 786 1358 C 786 1396 774 1425 752 1447 C 729 1468 695 1479 649 1479 C 617 1479 585 1472 551 1458 C 517 1444 490 1426 469 1402 C 448 1378 438 1352 438 1323 C 438 1279 459 1257 502 1257 C 532 1257 560 1270 585 1298 L 602 1315 L 629 1286 C 609 1260 581 1236 546 1216 C 511 1196 480 1186 453 1186 C 355 1186 307 1221 307 1292 C 307 1332 324 1370 360 1407 C 395 1444 442 1473 501 1495 C 560 1517 622 1528 686 1528 C 744 1528 792 1519 832 1503 C 871 1487 901 1465 922 1438 C 943 1410 954 1380 954 1348 C 954 1305 933 1266 893 1232 C 853 1198 799 1173 731 1157 C 807 1157 866 1141 908 1110 C 950 1079 971 1035 971 979 Z M 1100 487 L 119 487 L 119 571 L 1100 571 L 1100 487 Z M 641 -129 L 641 219 L 283 -129 L 641 -129 Z" unicode="" />
<glyph horiz-adv-x="987" d="M 725 1288 C 725 1250 711 1217 685 1191 C 659 1164 626 1151 588 1151 C 550 1151 517 1164 491 1190 C 464 1216 451 1249 451 1288 C 451 1327 464 1359 492 1385 C 520 1410 552 1423 588 1423 C 624 1423 656 1410 684 1385 C 711 1359 725 1327 725 1288 Z M 879 176 C 879 139 864 104 835 72 C 805 40 764 14 712 -4 C 659 -23 601 -33 537 -33 C 401 -33 295 3 218 77 C 140 151 102 251 102 377 C 102 490 144 585 229 663 C 313 741 422 788 555 805 L 563 1034 L 623 1034 L 623 649 C 504 633 420 601 370 553 C 320 505 295 440 295 360 C 295 135 377 23 541 23 C 608 23 654 37 678 66 C 665 105 659 145 659 186 C 659 214 671 239 695 261 C 719 282 746 293 774 293 C 810 293 836 281 853 259 C 870 237 879 209 879 176 Z" unicode="" />
<glyph horiz-adv-x="1413" d="M 1464 0 L 819 0 L 819 45 C 865 47 911 55 957 70 C 1003 84 1026 103 1026 125 C 1026 143 1023 159 1018 172 L 891 496 L 387 496 C 317 324 283 210 283 156 C 283 136 294 118 317 102 C 339 86 369 73 407 63 C 445 52 480 46 514 45 L 514 0 L -49 0 L -49 45 C -17 47 16 54 53 67 C 90 79 120 100 144 128 C 168 156 190 195 211 244 L 442 818 L 682 1421 L 760 1421 L 1245 182 C 1260 146 1278 119 1300 102 C 1322 84 1348 71 1378 61 C 1408 51 1437 46 1464 45 L 1464 0 Z M 864 563 L 637 1135 L 414 563 L 864 563 Z M 813 1512 L 785 1487 C 695 1557 610 1622 530 1682 C 484 1714 452 1741 434 1761 C 415 1781 406 1805 406 1833 C 406 1853 414 1871 430 1887 C 446 1903 466 1911 490 1911 C 515 1911 537 1904 557 1892 C 576 1880 595 1857 615 1823 C 673 1722 739 1618 813 1512 Z" unicode="" />
<glyph horiz-adv-x="1413" d="M 1464 0 L 819 0 L 819 45 C 865 47 911 55 957 70 C 1003 84 1026 103 1026 125 C 1026 143 1023 159 1018 172 L 891 496 L 387 496 C 317 324 283 210 283 156 C 283 136 294 118 317 102 C 339 86 369 73 407 63 C 445 52 480 46 514 45 L 514 0 L -49 0 L -49 45 C -17 47 16 54 53 67 C 90 79 120 100 144 128 C 168 156 190 195 211 244 L 442 818 L 682 1421 L 760 1421 L 1245 182 C 1260 146 1278 119 1300 102 C 1322 84 1348 71 1378 61 C 1408 51 1437 46 1464 45 L 1464 0 Z M 864 563 L 637 1135 L 414 563 L 864 563 Z M 1024 1810 C 1024 1782 1015 1759 999 1741 C 983 1723 950 1695 901 1659 C 795 1580 711 1515 647 1464 L 619 1489 C 692 1595 758 1699 817 1800 C 835 1832 854 1854 874 1868 C 894 1881 916 1888 942 1888 C 965 1888 984 1880 1000 1864 C 1016 1848 1024 1830 1024 1810 Z" unicode="" />
<glyph horiz-adv-x="1413" d="M 1464 0 L 819 0 L 819 45 C 865 47 911 55 957 70 C 1003 84 1026 103 1026 125 C 1026 143 1023 159 1018 172 L 891 496 L 387 496 C 317 324 283 210 283 156 C 283 136 294 118 317 102 C 339 86 369 73 407 63 C 445 52 480 46 514 45 L 514 0 L -49 0 L -49 45 C -17 47 16 54 53 67 C 90 79 120 100 144 128 C 168 156 190 195 211 244 L 442 818 L 682 1421 L 760 1421 L 1245 182 C 1260 146 1278 119 1300 102 C 1322 84 1348 71 1378 61 C 1408 51 1437 46 1464 45 L 1464 0 Z M 864 563 L 637 1135 L 414 563 L 864 563 Z M 1041 1444 L 1010 1419 L 717 1694 L 428 1419 L 397 1444 C 475 1557 553 1674 631 1794 C 645 1814 656 1827 666 1832 C 675 1836 693 1839 721 1839 C 737 1839 749 1838 757 1837 C 765 1835 772 1833 778 1830 C 783 1827 792 1816 805 1798 L 1041 1444 Z" unicode="" />
<glyph horiz-adv-x="1413" d="M 1464 0 L 819 0 L 819 45 C 865 47 911 55 957 70 C 1003 84 1026 103 1026 125 C 1026 143 1023 159 1018 172 L 891 496 L 387 496 C 317 324 283 210 283 156 C 283 136 294 118 317 102 C 339 86 369 73 407 63 C 445 52 480 46 514 45 L 514 0 L -49 0 L -49 45 C -17 47 16 54 53 67 C 90 79 120 100 144 128 C 168 156 190 195 211 244 L 442 818 L 682 1421 L 760 1421 L 1245 182 C 1260 146 1278 119 1300 102 C 1322 84 1348 71 1378 61 C 1408 51 1437 46 1464 45 L 1464 0 Z M 864 563 L 637 1135 L 414 563 L 864 563 Z M 1145 1798 C 1133 1757 1114 1716 1086 1675 C 1058 1634 1027 1602 992 1578 C 957 1554 921 1542 883 1542 C 819 1542 757 1560 699 1598 C 665 1618 638 1633 617 1641 C 595 1649 574 1653 553 1653 C 529 1653 510 1649 494 1642 C 478 1634 463 1623 449 1608 C 435 1593 415 1561 388 1513 L 349 1530 C 374 1604 410 1665 458 1713 C 506 1761 555 1786 605 1786 C 644 1786 678 1780 707 1768 C 735 1756 762 1744 786 1730 C 810 1716 832 1704 854 1692 C 875 1680 898 1675 924 1675 C 955 1675 980 1678 999 1684 C 1017 1690 1033 1699 1045 1711 C 1057 1723 1068 1737 1076 1754 C 1084 1771 1094 1790 1104 1812 L 1145 1798 Z" unicode="" />
<glyph horiz-adv-x="1413" d="M 1464 0 L 819 0 L 819 45 C 865 47 911 55 957 70 C 1003 84 1026 103 1026 125 C 1026 143 1023 159 1018 172 L 891 496 L 387 496 C 317 324 283 210 283 156 C 283 136 294 118 317 102 C 339 86 369 73 407 63 C 445 52 480 46 514 45 L 514 0 L -49 0 L -49 45 C -17 47 16 54 53 67 C 90 79 120 100 144 128 C 168 156 190 195 211 244 L 442 818 L 682 1421 L 760 1421 L 1245 182 C 1260 146 1278 119 1300 102 C 1322 84 1348 71 1378 61 C 1408 51 1437 46 1464 45 L 1464 0 Z M 864 563 L 637 1135 L 414 563 L 864 563 Z M 1061 1685 C 1061 1652 1049 1623 1026 1598 C 1003 1572 974 1560 940 1560 C 908 1560 880 1571 856 1594 C 832 1616 821 1644 821 1677 C 821 1709 832 1738 856 1762 C 880 1786 908 1798 940 1798 C 975 1798 1004 1786 1027 1764 C 1049 1741 1061 1715 1061 1685 Z M 617 1685 C 617 1651 605 1622 581 1597 C 557 1572 528 1560 494 1560 C 462 1560 434 1571 411 1594 C 388 1617 377 1645 377 1677 C 377 1709 388 1737 411 1761 C 434 1785 462 1798 494 1798 C 529 1798 558 1786 582 1764 C 605 1742 617 1715 617 1685 Z" unicode="" />
<glyph horiz-adv-x="1413" d="M 1464 0 L 819 0 L 819 45 C 865 47 911 55 957 70 C 1003 84 1026 103 1026 125 C 1026 143 1023 159 1018 172 L 891 496 L 387 496 C 317 324 283 210 283 156 C 283 136 294 118 317 102 C 339 86 369 73 407 63 C 445 52 480 46 514 45 L 514 0 L -49 0 L -49 45 C -17 47 16 54 53 67 C 90 79 120 100 144 128 C 168 156 190 195 211 244 L 442 818 L 682 1421 L 760 1421 L 1245 182 C 1260 146 1278 119 1300 102 C 1322 84 1348 71 1378 61 C 1408 51 1437 46 1464 45 L 1464 0 Z M 864 563 L 637 1135 L 414 563 L 864 563 Z M 950 1686 C 950 1625 928 1576 886 1540 C 844 1503 789 1485 721 1485 C 651 1485 595 1503 554 1539 C 512 1575 492 1624 492 1686 C 492 1743 513 1791 557 1829 C 601 1867 655 1886 721 1886 C 787 1886 842 1867 885 1831 C 928 1794 950 1746 950 1686 Z M 844 1686 C 844 1730 833 1766 812 1795 C 790 1824 760 1839 721 1839 C 683 1839 653 1825 631 1798 C 609 1770 598 1733 598 1686 C 598 1640 608 1602 630 1574 C 651 1546 681 1532 721 1532 C 760 1532 790 1546 812 1574 C 833 1602 844 1639 844 1686 Z" unicode="" />
<glyph horiz-adv-x="1925" d="M 1876 393 L 1849 0 L 668 0 L 668 45 C 762 51 823 63 851 80 C 879 96 893 126 893 170 L 893 561 L 428 561 C 400 513 360 440 308 340 C 255 240 229 175 229 145 C 229 119 251 96 295 77 C 339 58 387 47 440 45 L 440 0 L -123 0 L -123 45 C -97 47 -68 52 -37 60 C -6 68 15 76 29 84 C 71 107 113 152 156 219 C 199 286 306 471 478 773 L 795 1329 C 755 1341 698 1350 625 1354 L 625 1399 L 1765 1399 L 1765 1081 L 1710 1081 C 1698 1131 1668 1185 1621 1241 C 1574 1297 1531 1329 1491 1335 C 1451 1340 1395 1343 1321 1343 L 1110 1343 L 1110 754 L 1257 754 C 1274 754 1290 754 1304 756 C 1318 758 1332 761 1346 765 C 1360 769 1373 774 1385 780 C 1396 786 1409 797 1425 812 C 1440 827 1454 854 1467 894 C 1480 934 1489 971 1493 1006 L 1548 1006 L 1548 434 L 1493 434 C 1489 467 1481 505 1468 548 C 1454 591 1442 619 1430 633 C 1408 657 1383 673 1355 682 C 1327 691 1295 696 1257 696 L 1110 696 L 1110 246 C 1110 187 1115 146 1127 122 C 1139 98 1160 82 1190 73 C 1220 63 1275 59 1354 59 L 1455 59 C 1561 59 1629 74 1659 106 C 1687 135 1718 182 1754 247 C 1790 311 1813 360 1825 393 L 1876 393 Z M 893 625 L 893 1321 L 862 1321 L 467 625 L 893 625 Z" unicode="" />
<glyph horiz-adv-x="1337" d="M 1313 354 C 1255 225 1178 129 1084 65 C 989 1 879 -31 754 -31 L 731 -31 L 731 -125 C 822 -125 891 -138 939 -166 C 986 -193 1010 -231 1010 -281 C 1010 -329 994 -367 962 -395 C 930 -423 884 -444 825 -457 C 766 -470 679 -477 563 -477 L 563 -424 C 659 -424 723 -421 754 -415 C 784 -409 809 -398 828 -383 C 846 -368 856 -346 856 -317 C 856 -291 843 -272 819 -260 C 794 -248 745 -242 672 -242 L 672 -27 C 553 -15 448 21 358 83 C 267 145 197 227 149 330 C 100 432 76 550 76 682 C 76 818 107 944 169 1058 C 231 1172 317 1261 429 1327 C 541 1392 663 1425 797 1425 C 851 1425 908 1414 968 1392 C 1027 1370 1073 1345 1106 1315 L 1167 1419 L 1251 1419 L 1260 913 L 1210 913 C 1164 1063 1101 1176 1019 1252 C 937 1328 842 1366 733 1366 C 653 1366 582 1339 520 1285 C 457 1231 408 1154 374 1054 C 339 953 322 834 322 698 C 322 581 343 475 386 380 C 429 284 488 210 564 156 C 639 102 722 76 813 76 C 918 76 1007 100 1079 148 C 1151 196 1211 274 1260 383 L 1313 354 Z" unicode="" />
<glyph horiz-adv-x="1364" d="M 1317 393 L 1290 0 L 78 0 L 78 45 C 172 51 233 63 261 80 C 289 97 303 127 303 170 L 303 1217 C 303 1249 295 1273 281 1289 C 266 1305 235 1320 187 1333 C 139 1345 103 1352 78 1354 L 78 1399 L 1206 1399 L 1206 1081 L 1151 1081 C 1136 1135 1106 1189 1060 1244 C 1014 1298 971 1329 932 1335 C 892 1340 836 1343 762 1343 L 520 1343 L 520 754 L 698 754 C 732 754 762 757 788 765 C 814 773 836 785 854 802 C 872 819 886 838 895 859 C 904 880 912 904 920 932 C 927 960 932 984 934 1006 L 989 1006 L 989 434 L 934 434 C 930 469 922 508 908 552 C 894 595 877 626 858 645 C 839 663 816 676 790 684 C 763 692 732 696 698 696 L 520 696 L 520 246 C 520 187 525 146 537 122 C 548 98 568 82 597 73 C 626 63 682 59 764 59 L 870 59 C 993 59 1070 74 1100 106 C 1128 135 1159 182 1195 247 C 1231 311 1254 360 1266 393 L 1317 393 Z M 805 1489 L 777 1464 C 687 1534 602 1599 522 1659 C 476 1691 444 1718 426 1738 C 407 1758 398 1782 398 1810 C 398 1830 406 1848 422 1864 C 438 1880 458 1888 482 1888 C 507 1888 529 1881 549 1869 C 568 1857 587 1834 607 1800 C 665 1699 731 1595 805 1489 Z" unicode="" />
<glyph horiz-adv-x="1364" d="M 1317 393 L 1290 0 L 78 0 L 78 45 C 172 51 233 63 261 80 C 289 97 303 127 303 170 L 303 1217 C 303 1249 295 1273 281 1289 C 266 1305 235 1320 187 1333 C 139 1345 103 1352 78 1354 L 78 1399 L 1206 1399 L 1206 1081 L 1151 1081 C 1136 1135 1106 1189 1060 1244 C 1014 1298 971 1329 932 1335 C 892 1340 836 1343 762 1343 L 520 1343 L 520 754 L 698 754 C 732 754 762 757 788 765 C 814 773 836 785 854 802 C 872 819 886 838 895 859 C 904 880 912 904 920 932 C 927 960 932 984 934 1006 L 989 1006 L 989 434 L 934 434 C 930 469 922 508 908 552 C 894 595 877 626 858 645 C 839 663 816 676 790 684 C 763 692 732 696 698 696 L 520 696 L 520 246 C 520 187 525 146 537 122 C 548 98 568 82 597 73 C 626 63 682 59 764 59 L 870 59 C 993 59 1070 74 1100 106 C 1128 135 1159 182 1195 247 C 1231 311 1254 360 1266 393 L 1317 393 Z M 972 1810 C 972 1782 963 1759 947 1741 C 931 1723 898 1695 849 1659 C 743 1580 659 1515 595 1464 L 567 1489 C 640 1595 706 1699 765 1800 C 783 1832 802 1854 822 1868 C 842 1881 864 1888 890 1888 C 913 1888 932 1880 948 1864 C 964 1848 972 1830 972 1810 Z" unicode="" />
<glyph horiz-adv-x="1364" d="M 1317 393 L 1290 0 L 78 0 L 78 45 C 172 51 233 63 261 80 C 289 97 303 127 303 170 L 303 1217 C 303 1249 295 1273 281 1289 C 266 1305 235 1320 187 1333 C 139 1345 103 1352 78 1354 L 78 1399 L 1206 1399 L 1206 1081 L 1151 1081 C 1136 1135 1106 1189 1060 1244 C 1014 1298 971 1329 932 1335 C 892 1340 836 1343 762 1343 L 520 1343 L 520 754 L 698 754 C 732 754 762 757 788 765 C 814 773 836 785 854 802 C 872 819 886 838 895 859 C 904 880 912 904 920 932 C 927 960 932 984 934 1006 L 989 1006 L 989 434 L 934 434 C 930 469 922 508 908 552 C 894 595 877 626 858 645 C 839 663 816 676 790 684 C 763 692 732 696 698 696 L 520 696 L 520 246 C 520 187 525 146 537 122 C 548 98 568 82 597 73 C 626 63 682 59 764 59 L 870 59 C 993 59 1070 74 1100 106 C 1128 135 1159 182 1195 247 C 1231 311 1254 360 1266 393 L 1317 393 Z M 1018 1497 L 987 1472 L 694 1747 L 405 1472 L 374 1497 C 452 1610 530 1727 608 1847 C 622 1867 633 1880 643 1885 C 652 1889 670 1892 698 1892 C 714 1892 726 1891 734 1890 C 742 1888 749 1886 755 1883 C 760 1880 769 1869 782 1851 L 1018 1497 Z" unicode="" />
<glyph horiz-adv-x="1364" d="M 1317 393 L 1290 0 L 78 0 L 78 45 C 172 51 233 63 261 80 C 289 97 303 127 303 170 L 303 1217 C 303 1249 295 1273 281 1289 C 266 1305 235 1320 187 1333 C 139 1345 103 1352 78 1354 L 78 1399 L 1206 1399 L 1206 1081 L 1151 1081 C 1136 1135 1106 1189 1060 1244 C 1014 1298 971 1329 932 1335 C 892 1340 836 1343 762 1343 L 520 1343 L 520 754 L 698 754 C 732 754 762 757 788 765 C 814 773 836 785 854 802 C 872 819 886 838 895 859 C 904 880 912 904 920 932 C 927 960 932 984 934 1006 L 989 1006 L 989 434 L 934 434 C 930 469 922 508 908 552 C 894 595 877 626 858 645 C 839 663 816 676 790 684 C 763 692 732 696 698 696 L 520 696 L 520 246 C 520 187 525 146 537 122 C 548 98 568 82 597 73 C 626 63 682 59 764 59 L 870 59 C 993 59 1070 74 1100 106 C 1128 135 1159 182 1195 247 C 1231 311 1254 360 1266 393 L 1317 393 Z M 1034 1700 C 1034 1667 1022 1638 999 1613 C 976 1587 947 1575 913 1575 C 881 1575 853 1586 829 1609 C 805 1631 794 1659 794 1692 C 794 1724 805 1753 829 1777 C 853 1801 881 1813 913 1813 C 948 1813 977 1801 1000 1779 C 1022 1756 1034 1730 1034 1700 Z M 590 1700 C 590 1666 578 1637 554 1612 C 530 1587 501 1575 467 1575 C 435 1575 407 1586 384 1609 C 361 1632 350 1660 350 1692 C 350 1724 361 1752 384 1776 C 407 1800 435 1813 467 1813 C 502 1813 531 1801 555 1779 C 578 1757 590 1730 590 1700 Z" unicode="" />
<glyph horiz-adv-x="831" d="M 737 0 L 94 0 L 94 45 C 165 50 213 56 237 64 C 261 71 279 83 290 99 C 301 115 307 136 307 164 L 307 1219 C 307 1238 304 1255 298 1269 C 292 1283 281 1295 266 1305 C 250 1315 224 1325 186 1335 C 148 1345 118 1352 94 1354 L 94 1399 L 737 1399 L 737 1354 C 688 1350 638 1341 588 1327 C 545 1313 524 1281 524 1229 L 524 174 C 524 144 532 120 548 103 C 564 85 593 72 635 62 C 677 52 711 47 737 45 L 737 0 Z M 519 1489 L 491 1464 C 401 1534 316 1599 236 1659 C 190 1691 158 1718 140 1738 C 121 1758 112 1782 112 1810 C 112 1830 120 1848 136 1864 C 152 1880 172 1888 196 1888 C 221 1888 243 1881 263 1869 C 282 1857 301 1834 321 1800 C 379 1699 445 1595 519 1489 Z" unicode="" />
<glyph horiz-adv-x="831" d="M 737 0 L 94 0 L 94 45 C 165 50 213 56 237 64 C 261 71 279 83 290 99 C 301 115 307 136 307 164 L 307 1219 C 307 1238 304 1255 298 1269 C 292 1283 281 1295 266 1305 C 250 1315 224 1325 186 1335 C 148 1345 118 1352 94 1354 L 94 1399 L 737 1399 L 737 1354 C 688 1350 638 1341 588 1327 C 545 1313 524 1281 524 1229 L 524 174 C 524 144 532 120 548 103 C 564 85 593 72 635 62 C 677 52 711 47 737 45 L 737 0 Z M 727 1810 C 727 1782 718 1759 702 1741 C 686 1723 653 1695 604 1659 C 498 1580 414 1515 350 1464 L 322 1489 C 395 1595 461 1699 520 1800 C 538 1832 557 1854 577 1868 C 597 1881 619 1888 645 1888 C 668 1888 687 1880 703 1864 C 719 1848 727 1830 727 1810 Z" unicode="" />
<glyph horiz-adv-x="831" d="M 737 0 L 94 0 L 94 45 C 165 50 213 56 237 64 C 261 71 279 83 290 99 C 301 115 307 136 307 164 L 307 1219 C 307 1238 304 1255 298 1269 C 292 1283 281 1295 266 1305 C 250 1315 224 1325 186 1335 C 148 1345 118 1352 94 1354 L 94 1399 L 737 1399 L 737 1354 C 688 1350 638 1341 588 1327 C 545 1313 524 1281 524 1229 L 524 174 C 524 144 532 120 548 103 C 564 85 593 72 635 62 C 677 52 711 47 737 45 L 737 0 Z M 737 1497 L 706 1472 L 413 1747 L 124 1472 L 93 1497 C 171 1610 249 1727 327 1847 C 341 1867 352 1880 362 1885 C 371 1889 389 1892 417 1892 C 433 1892 445 1891 453 1890 C 461 1888 468 1886 474 1883 C 479 1880 488 1869 501 1851 L 737 1497 Z" unicode="" />
<glyph horiz-adv-x="831" d="M 737 0 L 94 0 L 94 45 C 165 50 213 56 237 64 C 261 71 279 83 290 99 C 301 115 307 136 307 164 L 307 1219 C 307 1238 304 1255 298 1269 C 292 1283 281 1295 266 1305 C 250 1315 224 1325 186 1335 C 148 1345 118 1352 94 1354 L 94 1399 L 737 1399 L 737 1354 C 688 1350 638 1341 588 1327 C 545 1313 524 1281 524 1229 L 524 174 C 524 144 532 120 548 103 C 564 85 593 72 635 62 C 677 52 711 47 737 45 L 737 0 Z M 759 1700 C 759 1667 747 1638 724 1613 C 701 1587 672 1575 638 1575 C 606 1575 578 1586 554 1609 C 530 1631 519 1659 519 1692 C 519 1724 530 1753 554 1777 C 578 1801 606 1813 638 1813 C 673 1813 702 1801 725 1779 C 747 1756 759 1730 759 1700 Z M 315 1700 C 315 1666 303 1637 279 1612 C 255 1587 226 1575 192 1575 C 160 1575 132 1586 109 1609 C 86 1632 75 1660 75 1692 C 75 1724 86 1752 109 1776 C 132 1800 160 1813 192 1813 C 227 1813 256 1801 280 1779 C 303 1757 315 1730 315 1700 Z" unicode="" />
<glyph horiz-adv-x="1595" d="M 1520 690 C 1520 555 1487 436 1423 333 C 1358 230 1263 149 1137 89 C 1011 29 870 0 715 0 L 88 0 L 88 45 C 122 45 159 48 199 56 C 238 63 265 75 280 92 C 295 108 303 133 303 166 L 303 694 L 98 694 L 98 762 L 303 762 L 303 1217 C 303 1267 282 1302 241 1320 C 199 1338 151 1350 96 1354 L 96 1399 L 756 1399 C 900 1399 1033 1368 1155 1306 C 1277 1244 1369 1160 1429 1055 C 1489 950 1520 828 1520 690 Z M 1268 692 C 1268 816 1244 927 1196 1026 C 1148 1125 1081 1202 993 1258 C 905 1313 807 1341 698 1341 L 520 1337 L 520 762 L 805 762 L 805 694 L 520 694 L 520 217 C 526 163 546 123 581 97 C 616 71 670 59 743 59 C 911 59 1040 114 1131 226 C 1222 337 1268 492 1268 692 Z" unicode="" />
<glyph horiz-adv-x="1610" d="M 1620 1354 C 1601 1352 1574 1347 1538 1339 C 1502 1330 1473 1321 1449 1311 C 1425 1301 1408 1285 1397 1263 C 1385 1241 1377 1211 1372 1175 C 1366 1138 1364 1089 1364 1028 L 1364 -14 L 1288 -14 L 371 1141 L 371 391 C 371 241 394 147 440 111 C 454 98 486 84 536 70 C 586 55 624 47 651 45 L 651 0 L 37 0 L 37 45 C 51 46 77 51 114 61 C 151 71 181 80 204 89 C 227 98 245 114 258 136 C 270 158 280 188 286 227 C 292 266 295 317 295 381 L 295 1102 C 295 1136 288 1168 274 1200 C 260 1232 240 1256 215 1274 C 189 1292 155 1309 113 1326 C 71 1343 36 1352 10 1354 L 10 1399 L 432 1399 L 1288 322 L 1288 1016 C 1288 1171 1265 1263 1219 1292 C 1195 1306 1161 1319 1116 1332 C 1070 1345 1035 1352 1010 1354 L 1010 1399 L 1620 1399 L 1620 1354 Z M 1235 1825 C 1223 1784 1204 1743 1176 1702 C 1148 1661 1117 1629 1082 1605 C 1047 1581 1011 1569 973 1569 C 909 1569 847 1587 789 1625 C 755 1645 728 1660 707 1668 C 685 1676 664 1680 643 1680 C 619 1680 600 1676 584 1669 C 568 1661 553 1650 539 1635 C 525 1620 505 1588 478 1540 L 439 1557 C 464 1631 500 1692 548 1740 C 596 1788 645 1813 695 1813 C 734 1813 768 1807 797 1795 C 825 1783 852 1771 876 1757 C 900 1743 922 1731 944 1719 C 965 1707 988 1702 1014 1702 C 1045 1702 1070 1705 1089 1711 C 1107 1717 1123 1726 1135 1738 C 1147 1750 1158 1764 1166 1781 C 1174 1798 1184 1817 1194 1839 L 1235 1825 Z" unicode="" />
<glyph horiz-adv-x="1587" d="M 1509 709 C 1509 480 1438 299 1298 166 C 1158 33 987 -33 786 -33 C 656 -33 537 -1 429 61 C 320 124 234 209 172 317 C 109 425 78 547 78 684 C 78 914 147 1096 287 1230 C 427 1364 596 1432 795 1432 C 937 1432 1064 1397 1176 1328 C 1288 1258 1372 1169 1427 1061 C 1481 953 1509 835 1509 709 Z M 1262 702 C 1262 904 1221 1066 1139 1187 C 1057 1307 942 1368 795 1368 C 647 1368 532 1307 450 1187 C 367 1067 326 902 326 694 C 326 562 344 445 382 345 C 419 244 473 166 544 112 C 614 58 698 31 795 31 C 942 31 1057 91 1139 211 C 1221 331 1262 495 1262 702 Z M 907 1489 L 879 1464 C 789 1534 704 1599 624 1659 C 578 1691 546 1718 528 1738 C 509 1758 500 1782 500 1810 C 500 1830 508 1848 524 1864 C 540 1880 560 1888 584 1888 C 609 1888 631 1881 651 1869 C 670 1857 689 1834 709 1800 C 767 1699 833 1595 907 1489 Z" unicode="" />
<glyph horiz-adv-x="1587" d="M 1509 709 C 1509 480 1438 299 1298 166 C 1158 33 987 -33 786 -33 C 656 -33 537 -1 429 61 C 320 124 234 209 172 317 C 109 425 78 547 78 684 C 78 914 147 1096 287 1230 C 427 1364 596 1432 795 1432 C 937 1432 1064 1397 1176 1328 C 1288 1258 1372 1169 1427 1061 C 1481 953 1509 835 1509 709 Z M 1262 702 C 1262 904 1221 1066 1139 1187 C 1057 1307 942 1368 795 1368 C 647 1368 532 1307 450 1187 C 367 1067 326 902 326 694 C 326 562 344 445 382 345 C 419 244 473 166 544 112 C 614 58 698 31 795 31 C 942 31 1057 91 1139 211 C 1221 331 1262 495 1262 702 Z M 1054 1810 C 1054 1782 1045 1759 1029 1741 C 1013 1723 980 1695 931 1659 C 825 1580 741 1515 677 1464 L 649 1489 C 722 1595 788 1699 847 1800 C 865 1832 884 1854 904 1868 C 924 1881 946 1888 972 1888 C 995 1888 1014 1880 1030 1864 C 1046 1848 1054 1830 1054 1810 Z" unicode="" />
<glyph horiz-adv-x="1587" d="M 1509 709 C 1509 480 1438 299 1298 166 C 1158 33 987 -33 786 -33 C 656 -33 537 -1 429 61 C 320 124 234 209 172 317 C 109 425 78 547 78 684 C 78 914 147 1096 287 1230 C 427 1364 596 1432 795 1432 C 937 1432 1064 1397 1176 1328 C 1288 1258 1372 1169 1427 1061 C 1481 953 1509 835 1509 709 Z M 1262 702 C 1262 904 1221 1066 1139 1187 C 1057 1307 942 1368 795 1368 C 647 1368 532 1307 450 1187 C 367 1067 326 902 326 694 C 326 562 344 445 382 345 C 419 244 473 166 544 112 C 614 58 698 31 795 31 C 942 31 1057 91 1139 211 C 1221 331 1262 495 1262 702 Z M 1106 1497 L 1075 1472 L 782 1747 L 493 1472 L 462 1497 C 540 1610 618 1727 696 1847 C 710 1867 721 1880 731 1885 C 740 1889 758 1892 786 1892 C 802 1892 814 1891 822 1890 C 830 1888 837 1886 843 1883 C 848 1880 857 1869 870 1851 L 1106 1497 Z" unicode="" />
<glyph horiz-adv-x="1587" d="M 1509 709 C 1509 480 1438 299 1298 166 C 1158 33 987 -33 786 -33 C 656 -33 537 -1 429 61 C 320 124 234 209 172 317 C 109 425 78 547 78 684 C 78 914 147 1096 287 1230 C 427 1364 596 1432 795 1432 C 937 1432 1064 1397 1176 1328 C 1288 1258 1372 1169 1427 1061 C 1481 953 1509 835 1509 709 Z M 1262 702 C 1262 904 1221 1066 1139 1187 C 1057 1307 942 1368 795 1368 C 647 1368 532 1307 450 1187 C 367 1067 326 902 326 694 C 326 562 344 445 382 345 C 419 244 473 166 544 112 C 614 58 698 31 795 31 C 942 31 1057 91 1139 211 C 1221 331 1262 495 1262 702 Z M 1194 1835 C 1182 1794 1163 1753 1135 1712 C 1107 1671 1076 1639 1041 1615 C 1006 1591 970 1579 932 1579 C 868 1579 806 1597 748 1635 C 714 1655 687 1670 666 1678 C 644 1686 623 1690 602 1690 C 578 1690 559 1686 543 1679 C 527 1671 512 1660 498 1645 C 484 1630 464 1598 437 1550 L 398 1567 C 423 1641 459 1702 507 1750 C 555 1798 604 1823 654 1823 C 693 1823 727 1817 756 1805 C 784 1793 811 1781 835 1767 C 859 1753 881 1741 903 1729 C 924 1717 947 1712 973 1712 C 1004 1712 1029 1715 1048 1721 C 1066 1727 1082 1736 1094 1748 C 1106 1760 1117 1774 1125 1791 C 1133 1808 1143 1827 1153 1849 L 1194 1835 Z" unicode="" />
<glyph horiz-adv-x="1587" d="M 1509 709 C 1509 480 1438 299 1298 166 C 1158 33 987 -33 786 -33 C 656 -33 537 -1 429 61 C 320 124 234 209 172 317 C 109 425 78 547 78 684 C 78 914 147 1096 287 1230 C 427 1364 596 1432 795 1432 C 937 1432 1064 1397 1176 1328 C 1288 1258 1372 1169 1427 1061 C 1481 953 1509 835 1509 709 Z M 1262 702 C 1262 904 1221 1066 1139 1187 C 1057 1307 942 1368 795 1368 C 647 1368 532 1307 450 1187 C 367 1067 326 902 326 694 C 326 562 344 445 382 345 C 419 244 473 166 544 112 C 614 58 698 31 795 31 C 942 31 1057 91 1139 211 C 1221 331 1262 495 1262 702 Z M 1128 1700 C 1128 1667 1116 1638 1093 1613 C 1070 1587 1041 1575 1007 1575 C 975 1575 947 1586 923 1609 C 899 1631 888 1659 888 1692 C 888 1724 899 1753 923 1777 C 947 1801 975 1813 1007 1813 C 1042 1813 1071 1801 1094 1779 C 1116 1756 1128 1730 1128 1700 Z M 684 1700 C 684 1666 672 1637 648 1612 C 624 1587 595 1575 561 1575 C 529 1575 501 1586 478 1609 C 455 1632 444 1660 444 1692 C 444 1724 455 1752 478 1776 C 501 1800 529 1813 561 1813 C 596 1813 625 1801 649 1779 C 672 1757 684 1730 684 1700 Z" unicode="" />
<glyph horiz-adv-x="1188" d="M 1069 131 L 999 61 L 592 469 L 186 61 L 119 129 L 526 535 L 119 942 L 188 1012 L 596 604 L 1001 1012 L 1069 944 L 662 539 L 1069 131 Z" unicode="" />
<glyph horiz-adv-x="1587" d="M 1509 709 C 1509 480 1438 299 1298 166 C 1158 33 987 -33 786 -33 C 616 -33 464 21 332 129 L 147 -80 L 96 -41 L 283 172 C 146 308 78 479 78 684 C 78 914 147 1096 287 1230 C 427 1364 596 1432 795 1432 C 968 1432 1121 1378 1253 1272 L 1438 1481 L 1491 1440 L 1303 1229 C 1365 1174 1414 1099 1452 1003 C 1490 907 1509 809 1509 709 Z M 1155 1161 C 1071 1299 951 1368 795 1368 C 647 1368 532 1307 450 1187 C 367 1067 326 902 326 694 C 326 544 350 413 399 303 L 1155 1161 Z M 1262 702 C 1262 852 1237 984 1188 1098 L 430 242 C 514 101 635 31 795 31 C 942 31 1057 91 1139 211 C 1221 331 1262 495 1262 702 Z" unicode="" />
<glyph horiz-adv-x="1620" d="M 1604 1354 C 1576 1352 1543 1346 1503 1336 C 1463 1326 1435 1317 1418 1307 C 1400 1297 1387 1280 1377 1256 C 1367 1232 1359 1203 1355 1168 C 1350 1133 1348 1088 1348 1032 L 1348 406 C 1348 320 1326 245 1283 180 C 1240 115 1176 63 1091 25 C 1005 -13 915 -33 819 -33 C 711 -33 616 -16 534 18 C 452 52 388 99 343 161 C 298 223 276 292 276 369 L 276 1217 C 276 1248 267 1273 250 1291 C 232 1309 206 1324 170 1334 C 134 1344 100 1351 70 1354 L 70 1399 L 707 1399 L 707 1354 C 659 1350 610 1341 559 1327 C 517 1313 496 1280 496 1227 L 496 410 C 496 292 527 204 590 144 C 653 84 746 55 868 55 C 949 55 1019 69 1079 97 C 1138 125 1185 167 1219 223 C 1253 279 1270 342 1270 414 L 1270 1020 C 1270 1174 1246 1265 1200 1294 C 1177 1308 1145 1321 1104 1333 C 1062 1345 1025 1352 991 1354 L 991 1399 L 1604 1399 L 1604 1354 Z M 930 1489 L 902 1464 C 812 1534 727 1599 647 1659 C 601 1691 569 1718 551 1738 C 532 1758 523 1782 523 1810 C 523 1830 531 1848 547 1864 C 563 1880 583 1888 607 1888 C 632 1888 654 1881 674 1869 C 693 1857 712 1834 732 1800 C 790 1699 856 1595 930 1489 Z" unicode="" />
<glyph horiz-adv-x="1620" d="M 1604 1354 C 1576 1352 1543 1346 1503 1336 C 1463 1326 1435 1317 1418 1307 C 1400 1297 1387 1280 1377 1256 C 1367 1232 1359 1203 1355 1168 C 1350 1133 1348 1088 1348 1032 L 1348 406 C 1348 320 1326 245 1283 180 C 1240 115 1176 63 1091 25 C 1005 -13 915 -33 819 -33 C 711 -33 616 -16 534 18 C 452 52 388 99 343 161 C 298 223 276 292 276 369 L 276 1217 C 276 1248 267 1273 250 1291 C 232 1309 206 1324 170 1334 C 134 1344 100 1351 70 1354 L 70 1399 L 707 1399 L 707 1354 C 659 1350 610 1341 559 1327 C 517 1313 496 1280 496 1227 L 496 410 C 496 292 527 204 590 144 C 653 84 746 55 868 55 C 949 55 1019 69 1079 97 C 1138 125 1185 167 1219 223 C 1253 279 1270 342 1270 414 L 1270 1020 C 1270 1174 1246 1265 1200 1294 C 1177 1308 1145 1321 1104 1333 C 1062 1345 1025 1352 991 1354 L 991 1399 L 1604 1399 L 1604 1354 Z M 1136 1810 C 1136 1782 1127 1759 1111 1741 C 1095 1723 1062 1695 1013 1659 C 907 1580 823 1515 759 1464 L 731 1489 C 804 1595 870 1699 929 1800 C 947 1832 966 1854 986 1868 C 1006 1881 1028 1888 1054 1888 C 1077 1888 1096 1880 1112 1864 C 1128 1848 1136 1830 1136 1810 Z" unicode="" />
<glyph horiz-adv-x="1620" d="M 1604 1354 C 1576 1352 1543 1346 1503 1336 C 1463 1326 1435 1317 1418 1307 C 1400 1297 1387 1280 1377 1256 C 1367 1232 1359 1203 1355 1168 C 1350 1133 1348 1088 1348 1032 L 1348 406 C 1348 320 1326 245 1283 180 C 1240 115 1176 63 1091 25 C 1005 -13 915 -33 819 -33 C 711 -33 616 -16 534 18 C 452 52 388 99 343 161 C 298 223 276 292 276 369 L 276 1217 C 276 1248 267 1273 250 1291 C 232 1309 206 1324 170 1334 C 134 1344 100 1351 70 1354 L 70 1399 L 707 1399 L 707 1354 C 659 1350 610 1341 559 1327 C 517 1313 496 1280 496 1227 L 496 410 C 496 292 527 204 590 144 C 653 84 746 55 868 55 C 949 55 1019 69 1079 97 C 1138 125 1185 167 1219 223 C 1253 279 1270 342 1270 414 L 1270 1020 C 1270 1174 1246 1265 1200 1294 C 1177 1308 1145 1321 1104 1333 C 1062 1345 1025 1352 991 1354 L 991 1399 L 1604 1399 L 1604 1354 Z M 1164 1497 L 1133 1472 L 840 1747 L 551 1472 L 520 1497 C 598 1610 676 1727 754 1847 C 768 1867 779 1880 789 1885 C 798 1889 816 1892 844 1892 C 860 1892 872 1891 880 1890 C 888 1888 895 1886 901 1883 C 906 1880 915 1869 928 1851 L 1164 1497 Z" unicode="" />
<glyph horiz-adv-x="1620" d="M 1604 1354 C 1576 1352 1543 1346 1503 1336 C 1463 1326 1435 1317 1418 1307 C 1400 1297 1387 1280 1377 1256 C 1367 1232 1359 1203 1355 1168 C 1350 1133 1348 1088 1348 1032 L 1348 406 C 1348 320 1326 245 1283 180 C 1240 115 1176 63 1091 25 C 1005 -13 915 -33 819 -33 C 711 -33 616 -16 534 18 C 452 52 388 99 343 161 C 298 223 276 292 276 369 L 276 1217 C 276 1248 267 1273 250 1291 C 232 1309 206 1324 170 1334 C 134 1344 100 1351 70 1354 L 70 1399 L 707 1399 L 707 1354 C 659 1350 610 1341 559 1327 C 517 1313 496 1280 496 1227 L 496 410 C 496 292 527 204 590 144 C 653 84 746 55 868 55 C 949 55 1019 69 1079 97 C 1138 125 1185 167 1219 223 C 1253 279 1270 342 1270 414 L 1270 1020 C 1270 1174 1246 1265 1200 1294 C 1177 1308 1145 1321 1104 1333 C 1062 1345 1025 1352 991 1354 L 991 1399 L 1604 1399 L 1604 1354 Z M 1184 1700 C 1184 1667 1172 1638 1149 1613 C 1126 1587 1097 1575 1063 1575 C 1031 1575 1003 1586 979 1609 C 955 1631 944 1659 944 1692 C 944 1724 955 1753 979 1777 C 1003 1801 1031 1813 1063 1813 C 1098 1813 1127 1801 1150 1779 C 1172 1756 1184 1730 1184 1700 Z M 740 1700 C 740 1666 728 1637 704 1612 C 680 1587 651 1575 617 1575 C 585 1575 557 1586 534 1609 C 511 1632 500 1660 500 1692 C 500 1724 511 1752 534 1776 C 557 1800 585 1813 617 1813 C 652 1813 681 1801 705 1779 C 728 1757 740 1730 740 1700 Z" unicode="" />
<glyph horiz-adv-x="1280" d="M 1352 1354 C 1326 1351 1294 1341 1256 1325 C 1218 1308 1186 1285 1158 1255 C 1130 1225 1095 1181 1055 1125 C 1015 1069 965 990 907 888 C 848 786 810 717 792 682 C 774 647 759 610 749 572 C 739 533 733 494 731 455 L 731 182 C 731 162 734 144 741 129 C 748 113 759 101 774 91 C 788 81 818 72 862 62 C 906 52 939 47 963 45 L 963 0 L 283 0 L 283 45 C 325 48 366 53 407 60 C 448 66 476 78 491 96 C 506 113 514 138 514 172 L 514 528 C 514 560 496 611 461 682 C 360 879 270 1045 190 1180 C 158 1236 123 1278 85 1306 C 47 1333 -2 1349 -66 1354 L -66 1399 L 594 1399 L 594 1354 C 527 1349 476 1340 440 1327 C 404 1314 387 1299 387 1282 C 387 1267 421 1195 490 1067 C 559 939 631 810 705 680 C 815 853 898 988 955 1085 C 1011 1182 1040 1239 1040 1255 C 1040 1281 1019 1304 978 1322 C 937 1340 884 1350 819 1354 L 819 1399 L 1352 1399 L 1352 1354 Z M 1044 1810 C 1044 1782 1035 1759 1019 1741 C 1003 1723 970 1695 921 1659 C 815 1580 731 1515 667 1464 L 639 1489 C 712 1595 778 1699 837 1800 C 855 1832 874 1854 894 1868 C 914 1881 936 1888 962 1888 C 985 1888 1004 1880 1020 1864 C 1036 1848 1044 1830 1044 1810 Z" unicode="" />
<glyph horiz-adv-x="1272" d="M 1208 764 C 1208 680 1184 606 1138 542 C 1092 477 1028 427 946 391 C 864 355 775 338 680 338 L 520 338 L 520 170 C 520 126 534 96 563 78 C 591 60 652 49 745 45 L 745 0 L 92 0 L 92 45 C 182 51 239 63 265 81 C 290 98 303 128 303 170 L 303 1229 C 303 1271 290 1301 264 1319 C 238 1336 181 1348 92 1354 L 92 1399 L 745 1399 L 745 1354 C 651 1349 590 1338 562 1320 C 534 1302 520 1272 520 1229 L 520 1096 L 770 1096 C 899 1096 1004 1065 1086 1005 C 1167 944 1208 864 1208 764 Z M 954 713 C 954 819 928 899 876 955 C 824 1010 751 1038 659 1038 L 520 1038 L 520 399 L 621 399 C 689 399 747 410 797 434 C 846 458 884 494 912 544 C 940 594 954 650 954 713 Z" unicode="" />
<glyph horiz-adv-x="1202" d="M 1149 285 C 1149 201 1117 127 1054 65 C 990 2 916 -29 831 -29 C 739 -29 668 -9 618 29 C 568 68 543 119 543 182 C 543 219 553 248 574 270 C 595 292 623 303 657 303 C 685 303 707 294 724 276 C 741 258 750 237 750 213 C 750 196 744 178 733 158 C 721 137 715 121 715 109 C 715 81 726 58 749 42 C 772 26 804 18 844 18 C 894 18 934 34 965 66 C 996 98 1012 141 1012 195 C 1012 230 1006 259 995 283 C 983 307 964 332 938 360 C 911 387 869 423 811 469 C 741 523 690 572 660 616 C 629 660 614 705 614 750 C 614 780 621 807 635 831 C 649 855 678 888 722 930 C 793 1000 829 1094 829 1210 C 829 1293 811 1359 775 1409 C 739 1458 690 1483 627 1483 C 547 1483 489 1440 453 1354 C 417 1268 399 1131 399 942 L 399 0 L 59 0 L 59 41 C 113 45 148 50 165 57 C 181 64 193 76 201 92 C 209 108 213 126 213 147 L 213 836 L 41 836 L 41 922 L 213 922 L 213 985 C 213 1101 231 1199 267 1279 C 303 1359 355 1420 422 1464 C 488 1508 565 1530 653 1530 C 711 1530 766 1518 817 1496 C 867 1473 907 1441 936 1401 C 964 1360 979 1314 979 1264 C 979 1154 941 1067 866 1005 C 813 961 781 932 769 917 C 757 901 752 884 752 864 C 752 834 757 809 769 788 C 781 767 800 742 828 714 C 856 686 894 652 944 612 C 1011 558 1057 516 1081 487 C 1105 458 1122 428 1133 398 C 1143 367 1149 329 1149 285 Z" unicode="" />
<glyph horiz-adv-x="1004" d="M 1020 244 C 1014 153 993 86 957 44 C 921 1 870 -20 803 -20 C 755 -20 717 -9 689 13 C 661 35 639 69 623 117 L 616 117 C 579 73 535 39 483 13 C 431 -12 375 -25 313 -25 C 242 -25 185 -5 141 34 C 97 74 76 127 76 193 C 76 255 90 307 119 349 C 148 391 200 427 276 457 L 367 490 L 460 520 C 529 542 583 564 621 586 L 621 700 C 621 737 614 772 600 806 C 586 840 566 865 539 882 C 511 898 480 907 444 907 C 397 907 361 890 336 858 L 319 838 C 319 822 322 804 328 783 C 334 761 338 739 338 717 C 338 693 326 672 304 655 C 282 637 253 629 219 629 C 190 629 167 638 151 657 C 135 676 127 702 127 735 C 127 792 161 842 229 886 C 297 930 373 952 457 952 C 555 952 626 942 672 923 C 717 903 751 872 774 828 C 797 784 809 725 809 649 C 809 572 807 482 804 378 L 799 190 C 799 176 803 160 811 143 C 819 126 831 112 845 102 C 859 91 875 86 895 86 C 919 86 937 96 949 117 C 961 137 970 180 975 244 L 1020 244 Z M 623 526 C 516 492 441 463 399 438 C 357 412 325 382 305 348 C 284 314 274 272 274 223 C 274 113 320 59 414 59 C 454 59 489 66 519 81 C 549 96 580 125 614 168 L 623 526 Z M 615 1098 L 587 1073 C 497 1143 412 1208 332 1268 C 286 1300 254 1327 236 1347 C 217 1367 208 1391 208 1419 C 208 1439 216 1457 232 1473 C 248 1489 268 1497 292 1497 C 317 1497 339 1490 359 1478 C 378 1466 397 1443 417 1409 C 475 1308 541 1204 615 1098 Z" unicode="" />
<glyph horiz-adv-x="1004" d="M 1020 244 C 1014 153 993 86 957 44 C 921 1 870 -20 803 -20 C 755 -20 717 -9 689 13 C 661 35 639 69 623 117 L 616 117 C 579 73 535 39 483 13 C 431 -12 375 -25 313 -25 C 242 -25 185 -5 141 34 C 97 74 76 127 76 193 C 76 255 90 307 119 349 C 148 391 200 427 276 457 L 367 490 L 460 520 C 529 542 583 564 621 586 L 621 700 C 621 737 614 772 600 806 C 586 840 566 865 539 882 C 511 898 480 907 444 907 C 397 907 361 890 336 858 L 319 838 C 319 822 322 804 328 783 C 334 761 338 739 338 717 C 338 693 326 672 304 655 C 282 637 253 629 219 629 C 190 629 167 638 151 657 C 135 676 127 702 127 735 C 127 792 161 842 229 886 C 297 930 373 952 457 952 C 555 952 626 942 672 923 C 717 903 751 872 774 828 C 797 784 809 725 809 649 C 809 572 807 482 804 378 L 799 190 C 799 176 803 160 811 143 C 819 126 831 112 845 102 C 859 91 875 86 895 86 C 919 86 937 96 949 117 C 961 137 970 180 975 244 L 1020 244 Z M 623 526 C 516 492 441 463 399 438 C 357 412 325 382 305 348 C 284 314 274 272 274 223 C 274 113 320 59 414 59 C 454 59 489 66 519 81 C 549 96 580 125 614 168 L 623 526 Z M 737 1419 C 737 1391 728 1368 712 1350 C 696 1332 663 1304 614 1268 C 508 1189 424 1124 360 1073 L 332 1098 C 405 1204 471 1308 530 1409 C 548 1441 567 1463 587 1477 C 607 1490 629 1497 655 1497 C 678 1497 697 1489 713 1473 C 729 1457 737 1439 737 1419 Z" unicode="" />
<glyph horiz-adv-x="1004" d="M 1020 244 C 1014 153 993 86 957 44 C 921 1 870 -20 803 -20 C 755 -20 717 -9 689 13 C 661 35 639 69 623 117 L 616 117 C 579 73 535 39 483 13 C 431 -12 375 -25 313 -25 C 242 -25 185 -5 141 34 C 97 74 76 127 76 193 C 76 255 90 307 119 349 C 148 391 200 427 276 457 L 367 490 L 460 520 C 529 542 583 564 621 586 L 621 700 C 621 737 614 772 600 806 C 586 840 566 865 539 882 C 511 898 480 907 444 907 C 397 907 361 890 336 858 L 319 838 C 319 822 322 804 328 783 C 334 761 338 739 338 717 C 338 693 326 672 304 655 C 282 637 253 629 219 629 C 190 629 167 638 151 657 C 135 676 127 702 127 735 C 127 792 161 842 229 886 C 297 930 373 952 457 952 C 555 952 626 942 672 923 C 717 903 751 872 774 828 C 797 784 809 725 809 649 C 809 572 807 482 804 378 L 799 190 C 799 176 803 160 811 143 C 819 126 831 112 845 102 C 859 91 875 86 895 86 C 919 86 937 96 949 117 C 961 137 970 180 975 244 L 1020 244 Z M 623 526 C 516 492 441 463 399 438 C 357 412 325 382 305 348 C 284 314 274 272 274 223 C 274 113 320 59 414 59 C 454 59 489 66 519 81 C 549 96 580 125 614 168 L 623 526 Z M 792 1106 L 761 1081 L 468 1356 L 179 1081 L 148 1106 C 226 1219 304 1336 382 1456 C 396 1476 407 1489 417 1494 C 426 1498 444 1501 472 1501 C 488 1501 500 1500 508 1499 C 516 1497 523 1495 529 1492 C 534 1489 543 1478 556 1460 L 792 1106 Z" unicode="" />
<glyph horiz-adv-x="1004" d="M 1020 244 C 1014 153 993 86 957 44 C 921 1 870 -20 803 -20 C 755 -20 717 -9 689 13 C 661 35 639 69 623 117 L 616 117 C 579 73 535 39 483 13 C 431 -12 375 -25 313 -25 C 242 -25 185 -5 141 34 C 97 74 76 127 76 193 C 76 255 90 307 119 349 C 148 391 200 427 276 457 L 367 490 L 460 520 C 529 542 583 564 621 586 L 621 700 C 621 737 614 772 600 806 C 586 840 566 865 539 882 C 511 898 480 907 444 907 C 397 907 361 890 336 858 L 319 838 C 319 822 322 804 328 783 C 334 761 338 739 338 717 C 338 693 326 672 304 655 C 282 637 253 629 219 629 C 190 629 167 638 151 657 C 135 676 127 702 127 735 C 127 792 161 842 229 886 C 297 930 373 952 457 952 C 555 952 626 942 672 923 C 717 903 751 872 774 828 C 797 784 809 725 809 649 C 809 572 807 482 804 378 L 799 190 C 799 176 803 160 811 143 C 819 126 831 112 845 102 C 859 91 875 86 895 86 C 919 86 937 96 949 117 C 961 137 970 180 975 244 L 1020 244 Z M 623 526 C 516 492 441 463 399 438 C 357 412 325 382 305 348 C 284 314 274 272 274 223 C 274 113 320 59 414 59 C 454 59 489 66 519 81 C 549 96 580 125 614 168 L 623 526 Z M 887 1413 C 875 1372 856 1331 828 1290 C 800 1249 769 1217 734 1193 C 699 1169 663 1157 625 1157 C 561 1157 499 1175 441 1213 C 407 1233 380 1248 359 1256 C 337 1264 316 1268 295 1268 C 271 1268 252 1264 236 1257 C 220 1249 205 1238 191 1223 C 177 1208 157 1176 130 1128 L 91 1145 C 116 1219 152 1280 200 1328 C 248 1376 297 1401 347 1401 C 386 1401 420 1395 449 1383 C 477 1371 504 1359 528 1345 C 552 1331 574 1319 596 1307 C 617 1295 640 1290 666 1290 C 697 1290 722 1293 741 1299 C 759 1305 775 1314 787 1326 C 799 1338 810 1352 818 1369 C 826 1386 836 1405 846 1427 L 887 1413 Z" unicode="" />
<glyph horiz-adv-x="1004" d="M 1020 244 C 1014 153 993 86 957 44 C 921 1 870 -20 803 -20 C 755 -20 717 -9 689 13 C 661 35 639 69 623 117 L 616 117 C 579 73 535 39 483 13 C 431 -12 375 -25 313 -25 C 242 -25 185 -5 141 34 C 97 74 76 127 76 193 C 76 255 90 307 119 349 C 148 391 200 427 276 457 L 367 490 L 460 520 C 529 542 583 564 621 586 L 621 700 C 621 737 614 772 600 806 C 586 840 566 865 539 882 C 511 898 480 907 444 907 C 397 907 361 890 336 858 L 319 838 C 319 822 322 804 328 783 C 334 761 338 739 338 717 C 338 693 326 672 304 655 C 282 637 253 629 219 629 C 190 629 167 638 151 657 C 135 676 127 702 127 735 C 127 792 161 842 229 886 C 297 930 373 952 457 952 C 555 952 626 942 672 923 C 717 903 751 872 774 828 C 797 784 809 725 809 649 C 809 572 807 482 804 378 L 799 190 C 799 176 803 160 811 143 C 819 126 831 112 845 102 C 859 91 875 86 895 86 C 919 86 937 96 949 117 C 961 137 970 180 975 244 L 1020 244 Z M 623 526 C 516 492 441 463 399 438 C 357 412 325 382 305 348 C 284 314 274 272 274 223 C 274 113 320 59 414 59 C 454 59 489 66 519 81 C 549 96 580 125 614 168 L 623 526 Z M 820 1329 C 820 1296 808 1267 785 1242 C 762 1216 733 1204 699 1204 C 667 1204 639 1215 615 1238 C 591 1260 580 1288 580 1321 C 580 1353 591 1382 615 1406 C 639 1430 667 1442 699 1442 C 734 1442 763 1430 786 1408 C 808 1385 820 1359 820 1329 Z M 376 1329 C 376 1295 364 1266 340 1241 C 316 1216 287 1204 253 1204 C 221 1204 193 1215 170 1238 C 147 1261 136 1289 136 1321 C 136 1353 147 1381 170 1405 C 193 1429 221 1442 253 1442 C 288 1442 317 1430 341 1408 C 364 1386 376 1359 376 1329 Z" unicode="" />
<glyph horiz-adv-x="1004" d="M 1020 244 C 1014 153 993 86 957 44 C 921 1 870 -20 803 -20 C 755 -20 717 -9 689 13 C 661 35 639 69 623 117 L 616 117 C 579 73 535 39 483 13 C 431 -12 375 -25 313 -25 C 242 -25 185 -5 141 34 C 97 74 76 127 76 193 C 76 255 90 307 119 349 C 148 391 200 427 276 457 L 367 490 L 460 520 C 529 542 583 564 621 586 L 621 700 C 621 737 614 772 600 806 C 586 840 566 865 539 882 C 511 898 480 907 444 907 C 397 907 361 890 336 858 L 319 838 C 319 822 322 804 328 783 C 334 761 338 739 338 717 C 338 693 326 672 304 655 C 282 637 253 629 219 629 C 190 629 167 638 151 657 C 135 676 127 702 127 735 C 127 792 161 842 229 886 C 297 930 373 952 457 952 C 555 952 626 942 672 923 C 717 903 751 872 774 828 C 797 784 809 725 809 649 C 809 572 807 482 804 378 L 799 190 C 799 176 803 160 811 143 C 819 126 831 112 845 102 C 859 91 875 86 895 86 C 919 86 937 96 949 117 C 961 137 970 180 975 244 L 1020 244 Z M 623 526 C 516 492 441 463 399 438 C 357 412 325 382 305 348 C 284 314 274 272 274 223 C 274 113 320 59 414 59 C 454 59 489 66 519 81 C 549 96 580 125 614 168 L 623 526 Z M 697 1288 C 697 1227 675 1178 633 1142 C 591 1105 536 1087 468 1087 C 398 1087 342 1105 301 1141 C 259 1177 239 1226 239 1288 C 239 1346 260 1394 304 1432 C 348 1470 402 1489 468 1489 C 534 1489 589 1470 632 1434 C 675 1397 697 1348 697 1288 Z M 591 1288 C 591 1332 580 1368 558 1398 C 536 1427 506 1442 468 1442 C 430 1442 400 1428 378 1400 C 356 1372 345 1335 345 1288 C 345 1242 355 1205 377 1177 C 398 1149 428 1135 468 1135 C 507 1135 537 1149 559 1177 C 580 1205 591 1242 591 1288 Z" unicode="" />
<glyph horiz-adv-x="1475" d="M 1436 219 C 1398 143 1346 84 1280 40 C 1214 -3 1140 -25 1057 -25 C 897 -25 776 39 694 168 L 688 168 C 636 97 580 47 520 18 C 459 -10 392 -25 319 -25 C 246 -25 187 -5 143 34 C 98 74 76 127 76 193 C 76 243 85 285 103 321 C 121 357 148 386 183 409 C 217 432 282 459 376 490 C 463 518 521 537 550 549 C 579 560 605 572 629 586 L 629 700 C 629 738 622 774 608 807 C 594 840 573 865 546 882 C 519 898 487 907 451 907 C 426 907 403 902 381 893 C 359 883 338 866 317 842 C 317 826 320 808 326 787 C 332 765 336 743 336 721 C 336 697 324 676 302 659 C 280 641 251 633 217 633 C 188 633 165 642 149 661 C 133 680 125 706 125 739 C 125 776 141 811 174 844 C 206 877 249 903 303 923 C 357 942 410 952 463 952 C 613 952 716 916 772 844 C 853 916 942 952 1040 952 C 1161 952 1255 917 1321 847 C 1387 777 1421 679 1421 553 L 1421 539 L 813 539 L 813 506 C 813 365 838 256 890 180 C 941 104 1016 66 1114 66 C 1161 66 1200 70 1230 80 C 1260 89 1288 105 1312 127 C 1336 149 1365 188 1399 244 L 1436 219 Z M 1214 588 C 1214 700 1198 780 1168 830 C 1138 880 1094 905 1038 905 C 978 905 928 878 890 824 C 852 770 826 690 813 584 L 1214 588 Z M 631 176 L 631 526 C 521 491 444 461 402 436 C 360 411 328 382 306 348 C 284 314 274 272 274 223 C 274 166 287 124 313 97 C 339 70 374 57 420 57 C 460 57 497 65 529 82 C 561 98 595 130 631 176 Z" unicode="" />
<glyph horiz-adv-x="891" d="M 889 219 C 846 144 791 85 723 41 C 655 -3 584 -25 510 -25 L 485 -25 L 461 -23 L 461 -119 C 548 -119 614 -132 658 -159 C 702 -185 725 -224 725 -274 C 725 -322 709 -360 679 -389 C 648 -417 605 -438 549 -451 C 493 -464 409 -471 299 -471 L 299 -418 C 392 -418 453 -415 482 -409 C 510 -403 533 -392 551 -378 C 569 -363 578 -341 578 -311 C 578 -285 566 -266 543 -254 C 519 -242 473 -236 403 -236 L 403 -14 C 295 8 211 61 153 146 C 95 230 66 337 66 467 C 66 554 85 635 124 710 C 162 784 217 843 287 887 C 357 930 434 952 520 952 C 615 952 692 930 750 886 C 808 842 838 785 838 715 C 838 681 829 653 811 632 C 793 610 767 600 731 600 C 699 600 672 609 650 627 C 627 645 616 670 616 702 C 616 736 620 763 629 783 C 638 803 643 819 643 829 C 637 859 624 878 604 888 C 584 898 556 903 520 903 C 470 903 426 886 389 854 C 351 821 322 774 302 712 C 282 650 272 574 272 485 C 272 359 298 258 351 181 C 403 104 473 66 559 66 C 625 66 681 79 726 107 C 770 135 812 182 850 248 L 889 219 Z" unicode="" />
<glyph horiz-adv-x="934" d="M 899 223 C 859 145 806 84 739 40 C 671 -3 598 -25 518 -25 C 378 -25 268 19 187 108 C 106 197 66 318 66 471 C 66 557 84 638 120 713 C 156 787 207 846 273 888 C 339 930 413 952 496 952 C 618 952 712 917 779 849 C 845 781 879 684 879 559 L 879 541 L 268 541 L 268 518 C 268 370 294 258 346 181 C 398 104 473 66 573 66 C 619 66 658 71 690 82 C 722 92 750 109 775 133 C 800 156 829 194 862 248 L 899 223 Z M 680 590 C 680 800 618 905 494 905 C 430 905 377 875 335 817 C 293 759 270 682 268 586 L 680 590 Z M 640 1098 L 612 1073 C 522 1143 437 1208 357 1268 C 311 1300 279 1327 261 1347 C 242 1367 233 1391 233 1419 C 233 1439 241 1457 257 1473 C 273 1489 293 1497 317 1497 C 342 1497 364 1490 384 1478 C 403 1466 422 1443 442 1409 C 500 1308 566 1204 640 1098 Z" unicode="" />
<glyph horiz-adv-x="934" d="M 899 223 C 859 145 806 84 739 40 C 671 -3 598 -25 518 -25 C 378 -25 268 19 187 108 C 106 197 66 318 66 471 C 66 557 84 638 120 713 C 156 787 207 846 273 888 C 339 930 413 952 496 952 C 618 952 712 917 779 849 C 845 781 879 684 879 559 L 879 541 L 268 541 L 268 518 C 268 370 294 258 346 181 C 398 104 473 66 573 66 C 619 66 658 71 690 82 C 722 92 750 109 775 133 C 800 156 829 194 862 248 L 899 223 Z M 680 590 C 680 800 618 905 494 905 C 430 905 377 875 335 817 C 293 759 270 682 268 586 L 680 590 Z M 790 1419 C 790 1391 781 1368 765 1350 C 749 1332 716 1304 667 1268 C 561 1189 477 1124 413 1073 L 385 1098 C 458 1204 524 1308 583 1409 C 601 1441 620 1463 640 1477 C 660 1490 682 1497 708 1497 C 731 1497 750 1489 766 1473 C 782 1457 790 1439 790 1419 Z" unicode="" />
<glyph horiz-adv-x="934" d="M 899 223 C 859 145 806 84 739 40 C 671 -3 598 -25 518 -25 C 378 -25 268 19 187 108 C 106 197 66 318 66 471 C 66 557 84 638 120 713 C 156 787 207 846 273 888 C 339 930 413 952 496 952 C 618 952 712 917 779 849 C 845 781 879 684 879 559 L 879 541 L 268 541 L 268 518 C 268 370 294 258 346 181 C 398 104 473 66 573 66 C 619 66 658 71 690 82 C 722 92 750 109 775 133 C 800 156 829 194 862 248 L 899 223 Z M 680 590 C 680 800 618 905 494 905 C 430 905 377 875 335 817 C 293 759 270 682 268 586 L 680 590 Z M 821 1106 L 790 1081 L 497 1356 L 208 1081 L 177 1106 C 255 1219 333 1336 411 1456 C 425 1476 436 1489 446 1494 C 455 1498 473 1501 501 1501 C 517 1501 529 1500 537 1499 C 545 1497 552 1495 558 1492 C 563 1489 572 1478 585 1460 L 821 1106 Z" unicode="" />
<glyph horiz-adv-x="934" d="M 899 223 C 859 145 806 84 739 40 C 671 -3 598 -25 518 -25 C 378 -25 268 19 187 108 C 106 197 66 318 66 471 C 66 557 84 638 120 713 C 156 787 207 846 273 888 C 339 930 413 952 496 952 C 618 952 712 917 779 849 C 845 781 879 684 879 559 L 879 541 L 268 541 L 268 518 C 268 370 294 258 346 181 C 398 104 473 66 573 66 C 619 66 658 71 690 82 C 722 92 750 109 775 133 C 800 156 829 194 862 248 L 899 223 Z M 680 590 C 680 800 618 905 494 905 C 430 905 377 875 335 817 C 293 759 270 682 268 586 L 680 590 Z M 851 1329 C 851 1296 839 1267 816 1242 C 793 1216 764 1204 730 1204 C 698 1204 670 1215 646 1238 C 622 1260 611 1288 611 1321 C 611 1353 622 1382 646 1406 C 670 1430 698 1442 730 1442 C 765 1442 794 1430 817 1408 C 839 1385 851 1359 851 1329 Z M 407 1329 C 407 1295 395 1266 371 1241 C 347 1216 318 1204 284 1204 C 252 1204 224 1215 201 1238 C 178 1261 167 1289 167 1321 C 167 1353 178 1381 201 1405 C 224 1429 252 1442 284 1442 C 319 1442 348 1430 372 1408 C 395 1386 407 1359 407 1329 Z" unicode="" />
<glyph horiz-adv-x="586" d="M 545 0 L 68 0 L 68 41 C 100 43 128 47 150 53 C 172 58 188 69 198 85 C 208 101 213 122 213 147 L 213 735 C 211 754 206 772 199 788 C 191 804 181 818 169 829 C 156 840 136 850 108 860 C 80 870 57 875 37 877 L 37 915 L 385 938 L 399 924 L 399 160 C 399 118 414 89 444 71 C 474 53 507 43 545 41 L 545 0 Z M 429 1098 L 401 1073 C 311 1143 226 1208 146 1268 C 100 1300 68 1327 50 1347 C 31 1367 22 1391 22 1419 C 22 1439 30 1457 46 1473 C 62 1489 82 1497 106 1497 C 131 1497 153 1490 173 1478 C 192 1466 211 1443 231 1409 C 289 1308 355 1204 429 1098 Z" unicode="" />
<glyph horiz-adv-x="586" d="M 545 0 L 68 0 L 68 41 C 100 43 128 47 150 53 C 172 58 188 69 198 85 C 208 101 213 122 213 147 L 213 735 C 211 754 206 772 199 788 C 191 804 181 818 169 829 C 156 840 136 850 108 860 C 80 870 57 875 37 877 L 37 915 L 385 938 L 399 924 L 399 160 C 399 118 414 89 444 71 C 474 53 507 43 545 41 L 545 0 Z M 515 1419 C 515 1391 506 1368 490 1350 C 474 1332 441 1304 392 1268 C 286 1189 202 1124 138 1073 L 110 1098 C 183 1204 249 1308 308 1409 C 326 1441 345 1463 365 1477 C 385 1490 407 1497 433 1497 C 456 1497 475 1489 491 1473 C 507 1457 515 1439 515 1419 Z" unicode="" />
<glyph horiz-adv-x="586" d="M 535 1106 L 504 1081 L 258 1366 L 16 1081 L -14 1106 C 32 1182 85 1277 145 1392 C 160 1421 173 1445 185 1464 C 196 1482 206 1493 215 1496 C 224 1499 240 1501 262 1501 C 290 1501 307 1498 315 1493 C 322 1487 342 1455 374 1396 C 437 1276 491 1179 535 1106 Z M 545 0 L 68 0 L 68 41 C 100 43 128 47 150 53 C 172 58 188 69 198 85 C 208 101 213 122 213 147 L 213 735 C 211 754 206 772 199 788 C 191 804 181 818 169 829 C 156 840 136 850 108 860 C 80 870 57 875 37 877 L 37 915 L 385 938 L 399 924 L 399 160 C 399 118 414 89 444 71 C 474 53 507 43 545 41 L 545 0 Z" unicode="" />
<glyph horiz-adv-x="586" d="M 582 1329 C 582 1294 570 1265 547 1241 C 523 1217 495 1206 463 1206 C 429 1206 401 1217 379 1240 C 357 1262 346 1289 346 1321 C 346 1353 357 1382 380 1406 C 402 1430 430 1442 463 1442 C 498 1442 527 1430 549 1407 C 571 1384 582 1358 582 1329 Z M 199 1329 C 199 1294 187 1264 163 1240 C 139 1216 111 1204 78 1204 C 47 1204 20 1215 -2 1237 C -25 1259 -37 1287 -37 1321 C -37 1353 -25 1382 -3 1406 C 19 1430 46 1442 78 1442 C 114 1442 144 1430 166 1407 C 188 1384 199 1358 199 1329 Z M 545 0 L 68 0 L 68 41 C 100 43 128 47 150 53 C 172 58 188 69 198 85 C 208 101 213 122 213 147 L 213 735 C 211 754 206 772 199 788 C 191 804 181 818 169 829 C 156 840 136 850 108 860 C 80 870 57 875 37 877 L 37 915 L 385 938 L 399 924 L 399 160 C 399 118 414 89 444 71 C 474 53 507 43 545 41 L 545 0 Z" unicode="" />
<glyph horiz-adv-x="1083" d="M 1012 592 C 1012 400 968 248 882 137 C 796 26 678 -29 528 -29 C 443 -29 365 -7 293 34 C 221 76 166 136 126 212 C 86 288 66 375 66 471 C 66 615 108 731 192 819 C 276 907 386 952 520 952 C 574 952 626 939 676 915 C 726 891 764 858 791 817 L 799 819 C 789 907 768 994 738 1081 C 707 1167 669 1240 625 1300 L 389 1159 L 358 1208 L 588 1348 C 543 1403 487 1453 420 1497 L 446 1534 C 485 1514 527 1489 571 1460 C 615 1430 646 1407 662 1391 L 860 1511 L 893 1458 L 711 1350 C 911 1164 1012 912 1012 592 Z M 801 494 C 801 616 777 715 730 790 C 683 865 620 903 541 903 C 455 903 389 866 342 794 C 295 721 272 617 272 481 C 272 329 295 213 341 135 C 387 57 453 18 539 18 C 621 18 686 60 732 146 C 778 231 801 347 801 494 Z" unicode="" />
<glyph horiz-adv-x="1196" d="M 1155 0 L 672 0 L 672 41 C 722 44 756 49 773 57 C 790 64 803 75 811 91 C 819 106 823 125 823 147 L 823 641 C 823 707 806 760 773 800 C 740 840 700 860 653 860 C 597 860 545 846 499 820 C 452 793 418 759 397 717 L 397 158 C 397 115 413 85 447 69 C 480 52 514 43 549 41 L 549 0 L 66 0 L 66 41 C 98 43 126 47 148 53 C 170 58 186 69 196 85 C 206 101 211 122 211 147 L 211 735 C 208 761 200 785 188 807 C 176 829 157 845 131 857 C 105 869 79 875 55 877 L 55 915 L 383 938 L 397 924 L 397 784 L 401 784 L 461 842 C 537 915 627 952 733 952 C 823 952 892 924 940 869 C 988 813 1012 733 1012 629 L 1012 156 C 1012 131 1017 111 1027 95 C 1037 79 1054 66 1079 57 C 1104 48 1129 43 1155 41 L 1155 0 Z M 1020 1413 C 1008 1372 989 1331 961 1290 C 933 1249 902 1217 867 1193 C 832 1169 796 1157 758 1157 C 694 1157 632 1175 574 1213 C 540 1233 513 1248 492 1256 C 470 1264 449 1268 428 1268 C 404 1268 385 1264 369 1257 C 353 1249 338 1238 324 1223 C 310 1208 290 1176 263 1128 L 224 1145 C 249 1219 285 1280 333 1328 C 381 1376 430 1401 480 1401 C 519 1401 553 1395 582 1383 C 610 1371 637 1359 661 1345 C 685 1331 707 1319 729 1307 C 750 1295 773 1290 799 1290 C 830 1290 855 1293 874 1299 C 892 1305 908 1314 920 1326 C 932 1338 943 1352 951 1369 C 959 1386 969 1405 979 1427 L 1020 1413 Z" unicode="" />
<glyph horiz-adv-x="1071" d="M 1008 473 C 1008 377 988 290 948 213 C 908 136 851 76 778 34 C 705 -7 621 -29 526 -29 C 441 -29 363 -8 292 33 C 220 75 164 133 124 208 C 83 282 63 366 63 459 C 63 604 106 722 194 814 C 282 906 397 952 541 952 C 631 952 712 931 783 891 C 854 851 909 793 949 719 C 988 645 1008 563 1008 473 Z M 801 471 C 801 607 778 714 732 790 C 686 866 622 905 539 905 C 452 905 385 866 339 790 C 293 713 270 608 270 475 C 270 333 293 221 340 140 C 387 58 453 18 539 18 C 621 18 686 59 732 141 C 778 223 801 333 801 471 Z M 695 1098 L 667 1073 C 577 1143 492 1208 412 1268 C 366 1300 334 1327 316 1347 C 297 1367 288 1391 288 1419 C 288 1439 296 1457 312 1473 C 328 1489 348 1497 372 1497 C 397 1497 419 1490 439 1478 C 458 1466 477 1443 497 1409 C 555 1308 621 1204 695 1098 Z" unicode="" />
<glyph horiz-adv-x="1071" d="M 1008 473 C 1008 377 988 290 948 213 C 908 136 851 76 778 34 C 705 -7 621 -29 526 -29 C 441 -29 363 -8 292 33 C 220 75 164 133 124 208 C 83 282 63 366 63 459 C 63 604 106 722 194 814 C 282 906 397 952 541 952 C 631 952 712 931 783 891 C 854 851 909 793 949 719 C 988 645 1008 563 1008 473 Z M 801 471 C 801 607 778 714 732 790 C 686 866 622 905 539 905 C 452 905 385 866 339 790 C 293 713 270 608 270 475 C 270 333 293 221 340 140 C 387 58 453 18 539 18 C 621 18 686 59 732 141 C 778 223 801 333 801 471 Z M 764 1419 C 764 1391 755 1368 739 1350 C 723 1332 690 1304 641 1268 C 535 1189 451 1124 387 1073 L 359 1098 C 432 1204 498 1308 557 1409 C 575 1441 594 1463 614 1477 C 634 1490 656 1497 682 1497 C 705 1497 724 1489 740 1473 C 756 1457 764 1439 764 1419 Z" unicode="" />
<glyph horiz-adv-x="1071" d="M 1008 473 C 1008 377 988 290 948 213 C 908 136 851 76 778 34 C 705 -7 621 -29 526 -29 C 441 -29 363 -8 292 33 C 220 75 164 133 124 208 C 83 282 63 366 63 459 C 63 604 106 722 194 814 C 282 906 397 952 541 952 C 631 952 712 931 783 891 C 854 851 909 793 949 719 C 988 645 1008 563 1008 473 Z M 801 471 C 801 607 778 714 732 790 C 686 866 622 905 539 905 C 452 905 385 866 339 790 C 293 713 270 608 270 475 C 270 333 293 221 340 140 C 387 58 453 18 539 18 C 621 18 686 59 732 141 C 778 223 801 333 801 471 Z M 861 1106 L 830 1081 L 537 1356 L 248 1081 L 217 1106 C 295 1219 373 1336 451 1456 C 465 1476 476 1489 486 1494 C 495 1498 513 1501 541 1501 C 557 1501 569 1500 577 1499 C 585 1497 592 1495 598 1492 C 603 1489 612 1478 625 1460 L 861 1106 Z" unicode="" />
<glyph horiz-adv-x="1071" d="M 1008 473 C 1008 377 988 290 948 213 C 908 136 851 76 778 34 C 705 -7 621 -29 526 -29 C 441 -29 363 -8 292 33 C 220 75 164 133 124 208 C 83 282 63 366 63 459 C 63 604 106 722 194 814 C 282 906 397 952 541 952 C 631 952 712 931 783 891 C 854 851 909 793 949 719 C 988 645 1008 563 1008 473 Z M 801 471 C 801 607 778 714 732 790 C 686 866 622 905 539 905 C 452 905 385 866 339 790 C 293 713 270 608 270 475 C 270 333 293 221 340 140 C 387 58 453 18 539 18 C 621 18 686 59 732 141 C 778 223 801 333 801 471 Z M 938 1413 C 926 1372 907 1331 879 1290 C 851 1249 820 1217 785 1193 C 750 1169 714 1157 676 1157 C 612 1157 550 1175 492 1213 C 458 1233 431 1248 410 1256 C 388 1264 367 1268 346 1268 C 322 1268 303 1264 287 1257 C 271 1249 256 1238 242 1223 C 228 1208 208 1176 181 1128 L 142 1145 C 167 1219 203 1280 251 1328 C 299 1376 348 1401 398 1401 C 437 1401 471 1395 500 1383 C 528 1371 555 1359 579 1345 C 603 1331 625 1319 647 1307 C 668 1295 691 1290 717 1290 C 748 1290 773 1293 792 1299 C 810 1305 826 1314 838 1326 C 850 1338 861 1352 869 1369 C 877 1386 887 1405 897 1427 L 938 1413 Z" unicode="" />
<glyph horiz-adv-x="1071" d="M 1008 473 C 1008 377 988 290 948 213 C 908 136 851 76 778 34 C 705 -7 621 -29 526 -29 C 441 -29 363 -8 292 33 C 220 75 164 133 124 208 C 83 282 63 366 63 459 C 63 604 106 722 194 814 C 282 906 397 952 541 952 C 631 952 712 931 783 891 C 854 851 909 793 949 719 C 988 645 1008 563 1008 473 Z M 801 471 C 801 607 778 714 732 790 C 686 866 622 905 539 905 C 452 905 385 866 339 790 C 293 713 270 608 270 475 C 270 333 293 221 340 140 C 387 58 453 18 539 18 C 621 18 686 59 732 141 C 778 223 801 333 801 471 Z M 881 1329 C 881 1296 869 1267 846 1242 C 823 1216 794 1204 760 1204 C 728 1204 700 1215 676 1238 C 652 1260 641 1288 641 1321 C 641 1353 652 1382 676 1406 C 700 1430 728 1442 760 1442 C 795 1442 824 1430 847 1408 C 869 1385 881 1359 881 1329 Z M 437 1329 C 437 1295 425 1266 401 1241 C 377 1216 348 1204 314 1204 C 282 1204 254 1215 231 1238 C 208 1261 197 1289 197 1321 C 197 1353 208 1381 231 1405 C 254 1429 282 1442 314 1442 C 349 1442 378 1430 402 1408 C 425 1386 437 1359 437 1329 Z" unicode="" />
<glyph horiz-adv-x="1188" d="M 725 909 C 725 874 712 843 687 817 C 661 791 630 778 594 778 C 557 778 526 791 501 817 C 475 843 463 873 463 909 C 463 943 475 973 501 999 C 526 1025 557 1038 594 1038 C 631 1038 662 1025 687 999 C 712 973 725 943 725 909 Z M 1087 485 L 100 485 L 100 580 L 1087 580 L 1087 485 Z M 725 154 C 725 119 712 89 687 63 C 661 37 630 25 594 25 C 556 25 525 37 500 63 C 475 89 463 119 463 154 C 463 188 475 219 501 245 C 526 271 557 285 594 285 C 630 285 661 272 687 246 C 712 220 725 189 725 154 Z" unicode="" />
<glyph horiz-adv-x="1071" d="M 1008 473 C 1008 377 988 290 948 213 C 908 136 851 76 778 34 C 705 -7 621 -29 526 -29 C 414 -29 318 4 238 72 L 119 -70 L 72 -37 L 195 111 C 107 203 63 319 63 459 C 63 604 106 722 194 814 C 282 906 397 952 541 952 C 653 952 747 923 823 866 L 950 1016 L 999 981 L 870 827 C 962 735 1008 617 1008 473 Z M 743 768 C 700 859 632 905 539 905 C 452 905 385 866 339 790 C 293 713 270 608 270 475 C 270 388 280 309 301 238 L 743 768 Z M 801 471 C 801 563 790 641 770 707 L 324 174 C 369 70 441 18 539 18 C 621 18 686 59 732 141 C 778 223 801 333 801 471 Z" unicode="" />
<glyph horiz-adv-x="1161" d="M 1120 18 L 799 -4 L 784 10 L 784 135 L 778 135 C 758 115 739 96 719 77 C 699 57 676 40 651 25 C 626 10 597 -1 565 -11 C 533 -20 495 -25 451 -25 C 363 -25 297 4 252 62 C 206 120 184 203 184 309 L 184 739 C 181 767 174 790 162 810 C 150 829 131 844 105 855 C 79 865 54 872 29 874 L 29 913 L 358 938 L 373 924 L 373 272 C 373 207 388 155 418 116 C 448 76 487 57 535 57 C 641 57 724 103 782 197 L 782 745 C 779 776 770 802 756 822 C 742 842 722 855 696 861 C 670 867 636 872 596 874 L 596 913 L 954 938 L 969 924 L 969 182 C 972 144 985 114 1009 94 C 1033 73 1070 61 1120 57 L 1120 18 Z M 711 1098 L 683 1073 C 593 1143 508 1208 428 1268 C 382 1300 350 1327 332 1347 C 313 1367 304 1391 304 1419 C 304 1439 312 1457 328 1473 C 344 1489 364 1497 388 1497 C 413 1497 435 1490 455 1478 C 474 1466 493 1443 513 1409 C 571 1308 637 1204 711 1098 Z" unicode="" />
<glyph horiz-adv-x="1161" d="M 1120 18 L 799 -4 L 784 10 L 784 135 L 778 135 C 758 115 739 96 719 77 C 699 57 676 40 651 25 C 626 10 597 -1 565 -11 C 533 -20 495 -25 451 -25 C 363 -25 297 4 252 62 C 206 120 184 203 184 309 L 184 739 C 181 767 174 790 162 810 C 150 829 131 844 105 855 C 79 865 54 872 29 874 L 29 913 L 358 938 L 373 924 L 373 272 C 373 207 388 155 418 116 C 448 76 487 57 535 57 C 641 57 724 103 782 197 L 782 745 C 779 776 770 802 756 822 C 742 842 722 855 696 861 C 670 867 636 872 596 874 L 596 913 L 954 938 L 969 924 L 969 182 C 972 144 985 114 1009 94 C 1033 73 1070 61 1120 57 L 1120 18 Z M 839 1419 C 839 1391 830 1368 814 1350 C 798 1332 765 1304 716 1268 C 610 1189 526 1124 462 1073 L 434 1098 C 507 1204 573 1308 632 1409 C 650 1441 669 1463 689 1477 C 709 1490 731 1497 757 1497 C 780 1497 799 1489 815 1473 C 831 1457 839 1439 839 1419 Z" unicode="" />
<glyph horiz-adv-x="1161" d="M 1120 18 L 799 -4 L 784 10 L 784 135 L 778 135 C 758 115 739 96 719 77 C 699 57 676 40 651 25 C 626 10 597 -1 565 -11 C 533 -20 495 -25 451 -25 C 363 -25 297 4 252 62 C 206 120 184 203 184 309 L 184 739 C 181 767 174 790 162 810 C 150 829 131 844 105 855 C 79 865 54 872 29 874 L 29 913 L 358 938 L 373 924 L 373 272 C 373 207 388 155 418 116 C 448 76 487 57 535 57 C 641 57 724 103 782 197 L 782 745 C 779 776 770 802 756 822 C 742 842 722 855 696 861 C 670 867 636 872 596 874 L 596 913 L 954 938 L 969 924 L 969 182 C 972 144 985 114 1009 94 C 1033 73 1070 61 1120 57 L 1120 18 Z M 867 1106 L 836 1081 L 543 1356 L 254 1081 L 223 1106 C 301 1219 379 1336 457 1456 C 471 1476 482 1489 492 1494 C 501 1498 519 1501 547 1501 C 563 1501 575 1500 583 1499 C 591 1497 598 1495 604 1492 C 609 1489 618 1478 631 1460 L 867 1106 Z" unicode="" />
<glyph horiz-adv-x="1161" d="M 1120 18 L 799 -4 L 784 10 L 784 135 L 778 135 C 758 115 739 96 719 77 C 699 57 676 40 651 25 C 626 10 597 -1 565 -11 C 533 -20 495 -25 451 -25 C 363 -25 297 4 252 62 C 206 120 184 203 184 309 L 184 739 C 181 767 174 790 162 810 C 150 829 131 844 105 855 C 79 865 54 872 29 874 L 29 913 L 358 938 L 373 924 L 373 272 C 373 207 388 155 418 116 C 448 76 487 57 535 57 C 641 57 724 103 782 197 L 782 745 C 779 776 770 802 756 822 C 742 842 722 855 696 861 C 670 867 636 872 596 874 L 596 913 L 954 938 L 969 924 L 969 182 C 972 144 985 114 1009 94 C 1033 73 1070 61 1120 57 L 1120 18 Z M 895 1329 C 895 1296 883 1267 860 1242 C 837 1216 808 1204 774 1204 C 742 1204 714 1215 690 1238 C 666 1260 655 1288 655 1321 C 655 1353 666 1382 690 1406 C 714 1430 742 1442 774 1442 C 809 1442 838 1430 861 1408 C 883 1385 895 1359 895 1329 Z M 451 1329 C 451 1295 439 1266 415 1241 C 391 1216 362 1204 328 1204 C 296 1204 268 1215 245 1238 C 222 1261 211 1289 211 1321 C 211 1353 222 1381 245 1405 C 268 1429 296 1442 328 1442 C 363 1442 392 1430 416 1408 C 439 1386 451 1359 451 1329 Z" unicode="" />
<glyph horiz-adv-x="946" d="M 989 887 C 966 884 938 871 906 848 C 873 824 850 799 838 772 C 792 674 717 494 612 233 L 541 56 C 512 -16 479 -91 442 -167 C 405 -243 372 -302 342 -344 C 312 -386 282 -416 252 -435 C 222 -453 180 -463 127 -463 C 86 -463 50 -450 20 -424 C -9 -398 -25 -364 -25 -324 C -25 -293 -13 -265 9 -241 C 32 -217 60 -205 92 -205 C 125 -205 151 -214 170 -232 C 189 -250 199 -275 199 -307 L 199 -379 C 234 -371 274 -335 318 -273 C 362 -210 408 -126 455 -20 L 288 393 L 125 782 C 115 806 95 828 67 847 C 39 866 7 878 -27 883 L -27 926 L 422 926 L 422 879 C 348 875 311 860 311 836 C 311 830 391 627 553 229 L 557 229 C 664 487 735 662 770 754 C 778 773 782 792 782 811 C 782 824 768 838 740 852 C 712 866 677 877 635 885 L 635 926 L 989 926 L 989 887 Z M 841 1419 C 841 1391 832 1368 816 1350 C 800 1332 767 1304 718 1268 C 612 1189 528 1124 464 1073 L 436 1098 C 509 1204 575 1308 634 1409 C 652 1441 671 1463 691 1477 C 711 1490 733 1497 759 1497 C 782 1497 801 1489 817 1473 C 833 1457 841 1439 841 1419 Z" unicode="" />
<glyph horiz-adv-x="1128" d="M 1063 459 C 1063 371 1042 289 1000 214 C 958 138 901 79 829 36 C 757 -7 680 -29 598 -29 C 500 -29 421 -7 362 35 L 354 35 L 354 -295 C 354 -321 360 -343 373 -361 C 386 -379 412 -393 451 -403 C 489 -413 523 -419 553 -422 L 553 -463 L 2 -463 L 2 -422 C 74 -416 120 -406 139 -390 C 158 -374 168 -346 168 -307 L 168 1315 C 168 1335 164 1354 156 1374 C 148 1394 137 1409 125 1421 C 113 1433 92 1443 62 1451 C 32 1459 3 1464 -23 1466 L -23 1505 L 340 1528 L 354 1513 L 354 829 L 360 827 C 397 866 439 897 487 919 C 535 941 585 952 637 952 C 717 952 789 931 855 889 C 920 847 971 789 1008 713 C 1044 637 1063 553 1063 459 Z M 854 457 C 854 583 828 683 777 757 C 725 831 655 868 567 868 C 480 868 409 836 354 772 L 354 201 C 375 141 406 95 446 63 C 486 30 531 14 582 14 C 664 14 729 54 779 135 C 829 216 854 323 854 457 Z" unicode="" />
<glyph horiz-adv-x="946" d="M 989 887 C 966 884 938 871 906 848 C 873 824 850 799 838 772 C 792 674 717 494 612 233 L 541 56 C 512 -16 479 -91 442 -167 C 405 -243 372 -302 342 -344 C 312 -386 282 -416 252 -435 C 222 -453 180 -463 127 -463 C 86 -463 50 -450 20 -424 C -9 -398 -25 -364 -25 -324 C -25 -293 -13 -265 9 -241 C 32 -217 60 -205 92 -205 C 125 -205 151 -214 170 -232 C 189 -250 199 -275 199 -307 L 199 -379 C 234 -371 274 -335 318 -273 C 362 -210 408 -126 455 -20 L 288 393 L 125 782 C 115 806 95 828 67 847 C 39 866 7 878 -27 883 L -27 926 L 422 926 L 422 879 C 348 875 311 860 311 836 C 311 830 391 627 553 229 L 557 229 C 664 487 735 662 770 754 C 778 773 782 792 782 811 C 782 824 768 838 740 852 C 712 866 677 877 635 885 L 635 926 L 989 926 L 989 887 Z M 849 1329 C 849 1296 837 1267 814 1242 C 791 1216 762 1204 728 1204 C 696 1204 668 1215 644 1238 C 620 1260 609 1288 609 1321 C 609 1353 620 1382 644 1406 C 668 1430 696 1442 728 1442 C 763 1442 792 1430 815 1408 C 837 1385 849 1359 849 1329 Z M 405 1329 C 405 1295 393 1266 369 1241 C 345 1216 316 1204 282 1204 C 250 1204 222 1215 199 1238 C 176 1261 165 1289 165 1321 C 165 1353 176 1381 199 1405 C 222 1429 250 1442 282 1442 C 317 1442 346 1430 370 1408 C 393 1386 405 1359 405 1329 Z" unicode="" />
<glyph horiz-adv-x="586" d="M 545 0 L 68 0 L 68 41 C 100 43 128 47 150 53 C 172 58 188 69 198 85 C 208 101 213 122 213 147 L 213 735 C 211 754 206 772 199 788 C 191 804 181 818 169 829 C 156 840 136 850 108 860 C 80 870 57 875 37 877 L 37 915 L 385 938 L 399 924 L 399 160 C 399 118 414 89 444 71 C 474 53 507 43 545 41 L 545 0 Z" unicode="" />
<glyph horiz-adv-x="1288" d="M 1292 397 L 1262 0 L 92 0 L 92 45 C 182 51 239 63 265 81 C 290 98 303 128 303 170 L 303 610 L 133 549 L 113 602 L 303 672 L 303 1212 C 303 1243 296 1267 283 1284 C 269 1301 241 1316 198 1330 C 154 1344 119 1352 92 1354 L 92 1399 L 733 1399 L 733 1354 C 691 1350 641 1341 584 1325 C 541 1311 520 1277 520 1223 L 520 752 L 854 872 L 874 817 L 520 688 L 520 244 C 520 179 525 135 535 113 C 545 91 564 75 592 67 C 620 59 677 55 764 55 C 930 55 1031 73 1065 109 C 1093 138 1127 185 1167 249 C 1207 313 1232 362 1243 397 L 1292 397 Z" unicode="" />
<glyph horiz-adv-x="633" d="M 588 725 L 412 662 L 412 160 C 412 116 427 86 458 70 C 489 53 522 43 557 41 L 557 0 L 80 0 L 80 41 C 112 43 139 46 161 52 C 183 58 199 68 209 84 C 219 100 225 121 225 147 L 225 592 L 82 541 L 61 594 L 225 653 L 225 1309 C 225 1329 221 1349 213 1368 C 205 1387 195 1402 183 1414 C 170 1426 147 1437 113 1448 C 79 1458 50 1464 27 1466 L 27 1505 L 397 1528 L 412 1513 L 412 723 L 567 780 L 588 725 Z" unicode="" />
<glyph horiz-adv-x="2095" d="M 2038 393 L 2011 0 L 1139 0 L 719 -4 C 609 -4 505 24 408 80 C 310 136 231 218 170 324 C 108 430 78 550 78 684 C 78 829 106 955 163 1062 C 220 1169 300 1253 404 1313 C 508 1373 619 1403 737 1403 L 1139 1399 L 1937 1399 L 1937 1081 L 1882 1081 C 1870 1131 1840 1185 1793 1241 C 1746 1297 1703 1329 1663 1335 C 1623 1340 1567 1343 1493 1343 L 1282 1343 L 1282 754 L 1430 754 C 1465 754 1495 757 1521 765 C 1547 773 1568 785 1586 801 C 1603 817 1616 836 1626 857 C 1635 878 1643 903 1651 931 C 1658 959 1663 984 1665 1006 L 1720 1006 L 1720 434 L 1665 434 C 1661 467 1653 506 1639 550 C 1625 594 1613 622 1602 635 C 1580 659 1555 675 1527 683 C 1499 691 1467 696 1430 696 L 1282 696 L 1282 246 C 1282 187 1287 146 1299 122 C 1310 98 1330 82 1359 73 C 1388 63 1444 59 1526 59 L 1625 59 C 1725 59 1791 74 1821 106 C 1850 136 1880 178 1912 232 C 1943 286 1968 339 1987 393 L 2038 393 Z M 1090 702 C 1090 850 1087 954 1081 1014 C 1075 1074 1066 1125 1053 1167 C 1040 1209 1018 1243 988 1269 C 957 1295 923 1314 887 1326 C 850 1337 807 1343 758 1343 C 618 1343 510 1287 436 1175 C 361 1063 324 902 324 694 C 324 490 361 333 436 221 C 510 109 618 53 758 53 C 813 53 857 57 889 66 C 921 75 955 95 993 127 C 1057 181 1090 373 1090 702 Z" unicode="" />
<glyph horiz-adv-x="1657" d="M 1618 221 C 1581 145 1529 85 1463 41 C 1396 -3 1322 -25 1241 -25 C 1166 -25 1099 -9 1040 21 C 981 51 932 93 893 145 C 845 88 789 45 726 15 C 662 -14 596 -29 526 -29 C 442 -29 364 -8 292 33 C 220 75 164 133 124 207 C 83 281 63 365 63 459 C 63 605 107 723 195 815 C 283 906 399 952 541 952 C 613 952 680 937 742 907 C 803 877 855 836 897 786 C 937 837 985 877 1042 907 C 1099 937 1159 952 1221 952 C 1341 952 1435 916 1503 846 C 1570 776 1604 679 1604 555 L 1604 541 L 987 541 L 987 506 C 987 366 1013 258 1066 181 C 1119 104 1195 66 1294 66 C 1341 66 1380 71 1411 81 C 1442 91 1470 107 1494 130 C 1518 153 1547 192 1581 246 L 1618 221 Z M 1397 590 C 1397 800 1337 905 1219 905 C 1157 905 1103 873 1057 810 C 1011 746 989 672 989 586 L 1397 590 Z M 793 471 C 793 611 770 719 726 794 C 681 869 619 907 539 907 C 454 907 388 868 341 792 C 293 716 270 610 270 475 C 270 331 293 219 341 138 C 389 56 455 16 539 16 C 619 16 681 56 726 136 C 770 216 793 328 793 471 Z" unicode="" />
<glyph horiz-adv-x="1120" d="M 1044 399 C 1044 319 1024 246 985 181 C 945 115 890 64 819 28 C 748 -8 669 -27 582 -27 C 446 -27 334 7 246 76 L 174 -20 L 104 -20 L 90 459 L 137 459 C 193 312 259 205 337 137 C 414 69 504 35 606 35 C 691 35 756 57 800 101 C 844 145 866 209 866 293 C 866 355 848 409 812 455 C 776 501 727 536 666 561 L 587 593 C 423 655 317 705 269 742 C 221 779 186 822 164 871 C 142 920 131 979 131 1047 C 131 1117 148 1181 184 1239 C 219 1297 268 1342 331 1375 C 394 1408 464 1425 541 1425 C 592 1425 645 1415 699 1396 C 753 1376 799 1352 836 1323 L 905 1419 L 975 1419 L 985 954 L 940 954 C 898 1071 858 1155 820 1207 C 782 1258 736 1297 683 1324 C 630 1350 566 1364 492 1364 C 460 1364 429 1355 399 1338 C 369 1320 344 1296 325 1266 C 306 1236 297 1199 297 1155 C 297 1083 320 1023 368 975 C 415 926 499 879 620 833 L 688 807 C 754 781 816 750 874 715 C 932 679 974 636 1002 585 C 1030 534 1044 472 1044 399 Z M 897 1890 C 819 1776 741 1660 663 1540 C 649 1519 637 1506 628 1502 C 618 1497 600 1495 573 1495 C 557 1495 544 1495 536 1497 C 528 1498 521 1500 516 1503 C 510 1506 501 1517 489 1536 L 253 1890 L 284 1915 L 577 1640 L 866 1915 L 897 1890 Z" unicode="" />
<glyph horiz-adv-x="821" d="M 752 264 C 752 178 720 107 656 53 C 592 -1 509 -29 408 -29 C 364 -29 317 -20 268 -3 C 219 13 184 32 164 53 L 143 -10 L 76 -10 L 66 307 L 109 307 C 117 267 138 222 172 173 C 206 124 244 86 288 60 C 331 33 374 20 418 20 C 546 20 610 79 610 197 C 610 242 594 279 562 307 C 530 335 466 364 371 393 C 273 423 202 462 158 510 C 114 558 92 616 92 684 C 92 764 120 828 177 878 C 234 927 308 952 399 952 C 439 952 478 947 516 938 C 554 929 586 916 612 899 L 629 954 L 692 954 L 707 672 L 664 672 C 652 738 620 793 569 838 C 517 882 459 905 393 905 C 341 905 302 892 274 868 C 246 844 233 807 233 758 C 233 726 238 701 249 681 C 259 661 276 644 300 630 C 323 615 381 593 473 563 C 576 528 648 487 690 441 C 731 394 752 335 752 264 Z M 724 1499 C 646 1385 568 1269 490 1149 C 476 1128 464 1115 455 1111 C 445 1106 427 1104 400 1104 C 384 1104 371 1104 363 1106 C 355 1107 348 1109 343 1112 C 337 1115 328 1126 316 1145 L 80 1499 L 111 1524 L 404 1249 L 693 1524 L 724 1499 Z" unicode="" />
<glyph horiz-adv-x="1280" d="M 1352 1354 C 1326 1351 1294 1341 1256 1325 C 1218 1308 1186 1285 1158 1255 C 1130 1225 1095 1181 1055 1125 C 1015 1069 965 990 907 888 C 848 786 810 717 792 682 C 774 647 759 610 749 572 C 739 533 733 494 731 455 L 731 182 C 731 162 734 144 741 129 C 748 113 759 101 774 91 C 788 81 818 72 862 62 C 906 52 939 47 963 45 L 963 0 L 283 0 L 283 45 C 325 48 366 53 407 60 C 448 66 476 78 491 96 C 506 113 514 138 514 172 L 514 528 C 514 560 496 611 461 682 C 360 879 270 1045 190 1180 C 158 1236 123 1278 85 1306 C 47 1333 -2 1349 -66 1354 L -66 1399 L 594 1399 L 594 1354 C 527 1349 476 1340 440 1327 C 404 1314 387 1299 387 1282 C 387 1267 421 1195 490 1067 C 559 939 631 810 705 680 C 815 853 898 988 955 1085 C 1011 1182 1040 1239 1040 1255 C 1040 1281 1019 1304 978 1322 C 937 1340 884 1350 819 1354 L 819 1399 L 1352 1399 L 1352 1354 Z M 1022 1700 C 1022 1667 1010 1638 987 1613 C 964 1587 935 1575 901 1575 C 869 1575 841 1586 817 1609 C 793 1631 782 1659 782 1692 C 782 1724 793 1753 817 1777 C 841 1801 869 1813 901 1813 C 936 1813 965 1801 988 1779 C 1010 1756 1022 1730 1022 1700 Z M 578 1700 C 578 1666 566 1637 542 1612 C 518 1587 489 1575 455 1575 C 423 1575 395 1586 372 1609 C 349 1632 338 1660 338 1692 C 338 1724 349 1752 372 1776 C 395 1800 423 1813 455 1813 C 490 1813 519 1801 543 1779 C 566 1757 578 1730 578 1700 Z" unicode="" />
<glyph horiz-adv-x="1282" d="M 1266 420 L 1219 0 L 8 0 L 8 25 L 969 1343 L 586 1343 C 512 1343 458 1340 424 1334 C 390 1328 354 1308 318 1276 C 282 1243 247 1203 214 1155 C 180 1107 156 1062 141 1022 L 92 1022 L 135 1399 L 1239 1399 L 1239 1374 L 279 55 L 707 55 C 787 55 853 59 905 69 C 956 79 990 92 1008 109 C 1047 145 1086 192 1126 252 C 1165 311 1195 367 1217 420 L 1266 420 Z M 977 1890 C 899 1776 821 1660 743 1540 C 729 1519 717 1506 708 1502 C 698 1497 680 1495 653 1495 C 637 1495 624 1495 616 1497 C 608 1498 601 1500 596 1503 C 590 1506 581 1517 569 1536 L 333 1890 L 364 1915 L 657 1640 L 946 1915 L 977 1890 Z" unicode="" />
<glyph horiz-adv-x="895" d="M 846 0 L 49 0 L 49 31 L 608 872 L 499 873 C 420 873 361 871 323 867 C 284 863 254 857 234 849 C 213 840 194 817 178 781 C 161 744 148 703 139 659 L 86 659 L 86 926 L 838 926 L 838 907 L 272 53 L 363 51 L 444 51 C 504 51 572 53 647 57 C 669 58 688 64 702 76 C 716 88 731 115 748 159 C 764 202 781 252 797 309 L 846 309 L 846 0 Z M 767 1499 C 689 1385 611 1269 533 1149 C 519 1128 507 1115 498 1111 C 488 1106 470 1104 443 1104 C 427 1104 414 1104 406 1106 C 398 1107 391 1109 386 1112 C 380 1115 371 1126 359 1145 L 123 1499 L 154 1524 L 447 1249 L 736 1524 L 767 1499 Z" unicode="" />
<glyph horiz-adv-x="1053" d="M 1069 1118 C 1069 1089 1059 1064 1040 1044 C 1020 1024 995 1014 965 1014 C 930 1014 902 1023 881 1041 C 860 1059 850 1084 850 1114 C 850 1144 856 1177 868 1212 C 858 1228 843 1237 823 1237 C 689 1237 599 1095 551 811 L 530 690 L 788 690 L 774 623 L 520 623 L 495 472 C 463 272 434 130 408 45 C 382 -40 348 -113 307 -175 C 266 -236 213 -288 149 -331 C 85 -373 14 -395 -63 -395 C -134 -395 -189 -381 -227 -355 C -265 -329 -285 -292 -285 -244 C -285 -216 -276 -191 -259 -170 C -241 -149 -215 -139 -180 -139 C -147 -139 -120 -149 -98 -170 C -76 -190 -66 -218 -66 -254 C -66 -286 -76 -314 -96 -338 C -86 -350 -73 -356 -59 -356 C 7 -356 61 -329 105 -275 C 148 -221 185 -132 217 -9 C 248 113 280 283 313 501 L 332 623 L 115 623 L 127 690 L 342 690 C 364 824 397 932 441 1014 C 485 1095 539 1159 603 1207 C 667 1254 745 1278 836 1278 C 904 1278 959 1262 1003 1231 C 1047 1199 1069 1162 1069 1118 Z" unicode="" />
<glyph horiz-adv-x="1024" d="M 834 1106 L 803 1081 L 510 1356 L 221 1081 L 190 1106 C 268 1219 346 1336 424 1456 C 438 1476 449 1489 459 1494 C 468 1498 486 1501 514 1501 C 530 1501 542 1500 550 1499 C 558 1497 565 1495 571 1492 C 576 1489 585 1478 598 1460 L 834 1106 Z" unicode="" />
<glyph horiz-adv-x="1024" d="M 834 1499 C 756 1385 678 1269 600 1149 C 586 1128 574 1115 565 1111 C 555 1106 537 1104 510 1104 C 494 1104 481 1104 473 1106 C 465 1107 458 1109 453 1112 C 447 1115 438 1126 426 1145 L 190 1499 L 221 1524 L 514 1249 L 803 1524 L 834 1499 Z" unicode="" />
<glyph horiz-adv-x="1024" d="M 827 1475 C 795 1355 751 1263 697 1199 C 643 1135 581 1104 512 1104 C 442 1104 380 1135 326 1199 C 272 1262 229 1354 197 1475 L 236 1487 C 307 1335 399 1260 512 1260 C 624 1260 716 1335 788 1487 L 827 1475 Z" unicode="" />
<glyph horiz-adv-x="1024" d="M 633 1350 C 633 1316 621 1286 598 1262 C 574 1237 546 1225 512 1225 C 480 1225 452 1236 428 1259 C 404 1281 393 1309 393 1341 C 393 1373 404 1402 427 1426 C 450 1450 478 1462 512 1462 C 546 1462 575 1451 598 1429 C 621 1407 633 1380 633 1350 Z" unicode="" />
<glyph horiz-adv-x="1024" d="M 741 1288 C 741 1227 719 1178 677 1142 C 635 1105 580 1087 512 1087 C 442 1087 386 1105 345 1141 C 303 1177 283 1226 283 1288 C 283 1346 304 1394 348 1432 C 392 1470 446 1489 512 1489 C 578 1489 633 1470 676 1434 C 719 1397 741 1348 741 1288 Z M 635 1288 C 635 1332 624 1368 602 1398 C 580 1427 550 1442 512 1442 C 474 1442 444 1428 422 1400 C 400 1372 389 1335 389 1288 C 389 1242 399 1205 421 1177 C 442 1149 472 1135 512 1135 C 551 1135 581 1149 603 1177 C 624 1205 635 1242 635 1288 Z" unicode="" />
<glyph horiz-adv-x="1024" d="M 694 -463 C 552 -461 451 -447 391 -419 C 331 -391 301 -349 301 -293 C 301 -235 321 -183 363 -137 C 405 -91 468 -45 553 0 L 618 0 C 514 -102 463 -195 463 -279 C 463 -322 478 -353 510 -372 C 542 -390 603 -404 694 -412 L 694 -463 Z" unicode="" />
<glyph horiz-adv-x="1024" d="M 909 1413 C 897 1372 878 1331 850 1290 C 822 1249 791 1217 756 1193 C 721 1169 685 1157 647 1157 C 583 1157 521 1175 463 1213 C 429 1233 402 1248 381 1256 C 359 1264 338 1268 317 1268 C 293 1268 274 1264 258 1257 C 242 1249 227 1238 213 1223 C 199 1208 179 1176 152 1128 L 113 1145 C 138 1219 174 1280 222 1328 C 270 1376 319 1401 369 1401 C 408 1401 442 1395 471 1383 C 499 1371 526 1359 550 1345 C 574 1331 596 1319 618 1307 C 639 1295 662 1290 688 1290 C 719 1290 744 1293 763 1299 C 781 1305 797 1314 809 1326 C 821 1338 832 1352 840 1369 C 848 1386 858 1405 868 1427 L 909 1413 Z" unicode="" />
<glyph horiz-adv-x="1024" d="M 868 1440 C 868 1414 861 1394 849 1379 C 836 1363 818 1346 795 1327 L 510 1094 L 485 1118 C 550 1214 616 1318 682 1430 C 701 1463 719 1486 737 1499 C 755 1511 775 1518 799 1518 C 819 1518 835 1510 848 1494 C 861 1478 868 1460 868 1440 Z M 498 1440 C 498 1414 491 1394 478 1379 C 465 1363 447 1346 424 1327 L 139 1094 L 115 1118 C 187 1226 253 1330 311 1430 C 330 1463 348 1486 366 1499 C 384 1511 404 1518 428 1518 C 447 1518 463 1510 477 1495 C 491 1479 498 1461 498 1440 Z" unicode="" />
<glyph horiz-adv-x="1024" d="M 850 1221 L 174 1221 L 174 1348 L 850 1348 L 850 1221 Z" unicode="" />
<glyph horiz-adv-x="1536" d="M 76 0 L 651 1536 L 885 1536 L 1456 0 L 76 0 Z M 352 147 L 1163 147 L 752 1255 L 352 147 Z" unicode="" />
<glyph horiz-adv-x="1188" d="M 1075 485 L 113 485 L 113 580 L 1075 580 L 1075 485 Z" unicode="" />
<glyph horiz-adv-x="1182" d="M 1192 244 C 1186 155 1165 89 1131 46 C 1096 3 1044 -18 975 -18 C 927 -18 888 -6 860 17 C 831 40 809 77 793 127 L 786 127 C 706 29 610 -20 496 -20 C 453 -20 411 -10 371 10 C 331 30 299 57 276 92 L 272 92 L 272 -14 C 272 -46 275 -77 283 -107 C 290 -137 298 -167 307 -195 C 315 -223 323 -251 331 -278 C 338 -304 342 -330 342 -356 C 342 -387 331 -413 309 -433 C 287 -453 261 -463 231 -463 C 205 -463 183 -453 165 -435 C 146 -416 137 -392 137 -362 C 137 -326 147 -250 167 -134 C 179 -57 186 30 186 129 L 186 926 L 371 926 L 371 283 C 371 221 389 170 425 129 C 461 88 505 68 557 68 C 666 68 742 104 786 176 L 786 926 L 971 926 L 971 195 C 971 163 979 137 996 117 C 1012 97 1035 88 1065 88 C 1089 88 1107 98 1120 119 C 1133 139 1142 181 1147 244 L 1192 244 Z" unicode="" />
<glyph horiz-adv-x="1407" d="M 297 0 L 297 1028 L 12 1028 L 12 1176 L 1317 1176 L 1317 1028 L 995 1028 L 995 344 C 995 266 1010 212 1041 183 C 1071 153 1108 139 1151 139 C 1183 139 1210 139 1232 141 C 1253 142 1274 147 1296 156 L 1296 29 C 1263 12 1233 0 1205 -6 C 1177 -12 1137 -16 1087 -16 C 1003 -16 936 10 886 63 C 836 116 811 207 811 336 L 811 1028 L 483 1028 L 483 0 L 297 0 Z" unicode="" />
<glyph horiz-adv-x="1110" d="M 1008 481 L 102 481 L 102 606 L 1008 606 L 1008 481 Z" unicode="" />
<glyph horiz-adv-x="1905" d="M 1753 461 L 152 461 L 152 582 L 1753 582 L 1753 461 Z" unicode="" />
<glyph horiz-adv-x="379" d="M 338 1460 C 282 1427 242 1400 219 1378 C 196 1356 178 1331 165 1304 C 151 1277 143 1246 139 1210 L 190 1210 C 231 1210 264 1199 288 1178 C 312 1157 324 1128 324 1090 C 324 1058 312 1031 290 1009 C 267 986 239 975 205 975 C 98 975 45 1043 45 1180 C 45 1238 65 1294 105 1347 C 145 1400 213 1453 309 1507 L 338 1460 Z" unicode="" />
<glyph horiz-adv-x="379" d="M 356 1305 C 356 1259 345 1218 324 1180 C 303 1142 275 1108 241 1077 C 206 1046 156 1013 92 977 L 63 1024 C 119 1056 158 1084 182 1106 C 206 1128 224 1153 237 1180 C 249 1206 258 1238 262 1274 L 211 1274 C 170 1274 138 1284 114 1305 C 90 1325 78 1355 78 1395 C 78 1425 89 1452 112 1475 C 134 1497 163 1509 197 1509 C 303 1509 356 1441 356 1305 Z" unicode="" />
<glyph horiz-adv-x="420" d="M 356 35 C 356 -10 345 -51 324 -89 C 303 -127 275 -161 241 -192 C 206 -223 156 -257 92 -293 L 63 -246 C 119 -213 158 -185 182 -163 C 206 -141 224 -116 237 -90 C 249 -63 258 -32 262 4 L 211 4 C 169 4 137 14 113 36 C 89 57 78 87 78 125 C 78 156 89 183 112 206 C 134 228 163 240 197 240 C 303 240 356 171 356 35 Z" unicode="" />
<glyph horiz-adv-x="725" d="M 682 1460 C 609 1417 559 1377 532 1339 C 504 1301 488 1256 483 1204 L 535 1204 C 619 1204 662 1166 662 1090 C 662 1058 650 1031 628 1009 C 606 986 578 975 545 975 C 442 975 391 1043 391 1180 C 391 1225 401 1266 422 1302 C 443 1338 470 1372 504 1402 C 538 1432 589 1466 657 1505 L 682 1460 Z M 336 1460 C 263 1417 213 1377 186 1339 C 158 1301 142 1256 137 1204 L 188 1204 C 272 1204 315 1166 315 1090 C 315 1059 304 1032 282 1009 C 260 986 232 975 199 975 C 96 975 45 1043 45 1180 C 45 1225 55 1266 76 1302 C 97 1338 124 1372 158 1402 C 192 1432 243 1466 311 1505 L 336 1460 Z" unicode="" />
<glyph horiz-adv-x="725" d="M 700 1305 C 700 1259 689 1218 668 1181 C 646 1143 618 1109 583 1079 C 548 1048 498 1015 434 979 L 410 1024 C 484 1068 535 1109 561 1147 C 587 1184 603 1228 608 1280 L 557 1280 C 472 1280 430 1318 430 1395 C 430 1425 441 1451 463 1474 C 485 1497 513 1509 547 1509 C 599 1509 637 1492 662 1459 C 687 1426 700 1375 700 1305 Z M 354 1305 C 354 1259 343 1218 322 1181 C 300 1143 272 1109 237 1079 C 202 1048 152 1015 88 979 L 63 1024 C 135 1066 185 1106 213 1144 C 240 1181 256 1226 262 1280 L 211 1280 C 126 1280 84 1318 84 1395 C 84 1425 95 1451 117 1474 C 139 1497 167 1509 201 1509 C 303 1509 354 1441 354 1305 Z" unicode="" />
<glyph horiz-adv-x="766" d="M 700 29 C 700 -16 689 -57 668 -94 C 646 -131 618 -165 584 -196 C 549 -227 499 -261 434 -297 L 410 -252 C 483 -208 533 -167 560 -130 C 586 -92 602 -48 608 4 L 557 4 C 472 4 430 42 430 119 C 430 149 441 175 463 198 C 485 221 513 233 547 233 C 599 233 637 216 662 183 C 687 150 700 99 700 29 Z M 354 29 C 354 -16 343 -57 322 -94 C 300 -131 272 -165 238 -196 C 203 -227 153 -261 88 -297 L 63 -252 C 135 -210 184 -170 212 -132 C 240 -94 256 -48 262 4 L 211 4 C 126 4 84 42 84 119 C 84 149 95 175 117 198 C 139 221 167 233 201 233 C 303 233 354 165 354 29 Z" unicode="" />
<glyph horiz-adv-x="844" d="M 764 1036 C 764 1007 754 984 736 968 C 717 952 694 944 668 944 C 652 944 638 948 624 958 C 610 968 596 979 584 991 C 571 1003 559 1013 547 1023 C 535 1033 524 1038 512 1038 C 498 1038 489 1030 486 1015 C 482 1000 475 898 465 708 C 454 518 447 350 444 205 L 401 205 C 395 422 382 677 362 971 C 360 994 357 1011 355 1022 C 353 1032 345 1038 332 1038 C 320 1038 308 1033 296 1023 C 284 1013 272 1003 260 991 C 247 979 234 968 220 958 C 206 948 191 944 176 944 C 149 944 127 952 109 968 C 91 984 82 1007 82 1036 C 82 1053 87 1068 99 1081 C 111 1093 125 1100 143 1100 C 158 1100 172 1094 185 1083 C 198 1071 207 1056 211 1038 C 219 1038 237 1046 265 1061 C 290 1074 310 1081 326 1081 C 360 1081 384 1073 399 1059 C 397 1091 387 1143 371 1217 C 355 1283 348 1326 348 1346 C 348 1370 355 1390 369 1406 C 383 1422 400 1430 422 1430 C 443 1430 461 1422 475 1406 C 489 1390 496 1370 496 1346 C 496 1323 488 1280 473 1216 C 455 1143 444 1091 442 1059 C 461 1073 486 1081 518 1081 C 533 1081 553 1074 578 1061 C 605 1046 623 1038 633 1038 C 637 1056 645 1071 658 1083 C 671 1094 686 1100 702 1100 C 719 1100 734 1093 746 1081 C 758 1068 764 1053 764 1036 Z" unicode="" />
<glyph horiz-adv-x="905" d="M 778 1165 C 778 1117 752 1094 700 1094 C 679 1094 653 1102 623 1119 C 592 1135 565 1143 543 1143 C 527 1143 517 1132 512 1112 C 507 1092 500 1034 491 939 C 481 844 476 782 475 752 L 432 752 C 429 794 424 852 417 925 C 410 998 405 1045 401 1067 C 397 1100 392 1121 386 1130 C 380 1138 372 1143 362 1143 C 339 1143 312 1135 282 1119 C 251 1102 225 1094 205 1094 C 153 1094 127 1117 127 1165 C 127 1182 132 1197 144 1209 C 156 1221 170 1227 188 1227 C 204 1227 219 1221 232 1210 C 245 1198 254 1183 258 1165 C 272 1167 287 1171 301 1177 C 315 1183 333 1186 356 1186 C 388 1186 413 1178 430 1163 L 418 1205 C 399 1258 388 1292 385 1307 C 382 1321 381 1335 381 1348 C 381 1373 387 1393 401 1408 C 414 1422 431 1430 453 1430 C 477 1430 495 1421 507 1404 C 518 1387 524 1368 524 1348 C 524 1322 511 1274 487 1204 L 475 1163 C 491 1178 516 1186 549 1186 C 572 1186 591 1183 606 1177 C 620 1171 635 1167 649 1165 C 653 1183 661 1198 673 1210 C 685 1221 700 1227 717 1227 C 734 1227 748 1221 760 1209 C 772 1197 778 1182 778 1165 Z M 778 272 C 778 254 772 240 760 228 C 748 216 734 211 717 211 C 700 211 685 216 673 228 C 661 239 653 254 649 274 C 635 270 620 266 606 260 C 591 254 572 252 549 252 C 517 252 492 259 475 274 L 487 233 C 511 162 524 114 524 90 C 524 69 518 50 507 33 C 495 16 477 8 453 8 C 431 8 413 15 400 30 C 387 45 381 65 381 90 C 381 114 388 146 402 185 C 418 230 427 260 430 274 C 413 259 388 252 356 252 C 333 252 315 254 301 260 C 287 266 272 270 258 274 C 254 254 245 239 232 228 C 219 216 204 211 188 211 C 170 211 156 216 144 228 C 132 240 127 254 127 272 C 127 293 133 310 146 324 C 158 337 178 344 205 344 C 223 344 248 336 282 321 C 315 305 342 297 362 297 C 376 297 385 304 391 319 C 397 334 404 386 414 475 C 423 563 429 634 432 688 L 475 688 C 475 662 479 619 485 557 C 491 495 496 446 500 410 C 504 373 508 345 513 326 C 517 306 527 297 543 297 C 563 297 589 305 623 321 C 656 336 682 344 700 344 C 752 344 778 320 778 272 Z" unicode="" />
<glyph horiz-adv-x="844" d="M 700 666 C 700 590 672 526 618 472 C 564 418 498 391 422 391 C 346 391 280 417 225 471 C 170 525 143 590 143 666 C 143 742 170 808 226 862 C 281 916 346 944 422 944 C 498 944 563 916 618 862 C 672 807 700 742 700 666 Z" unicode="" />
<glyph horiz-adv-x="1683" d="M 1534 113 C 1534 78 1521 48 1496 22 C 1470 -3 1439 -16 1403 -16 C 1365 -16 1334 -3 1309 22 C 1284 48 1272 78 1272 113 C 1272 147 1284 178 1310 204 C 1335 230 1366 244 1403 244 C 1439 244 1470 231 1496 205 C 1521 179 1534 148 1534 113 Z M 973 113 C 973 77 960 47 934 22 C 908 -3 877 -16 842 -16 C 804 -16 773 -3 748 22 C 723 48 711 78 711 113 C 711 147 723 178 749 204 C 774 230 805 244 842 244 C 877 244 908 230 934 204 C 960 178 973 147 973 113 Z M 412 113 C 412 77 399 47 373 22 C 347 -3 316 -16 281 -16 C 243 -16 212 -3 187 22 C 162 48 150 78 150 113 C 150 147 162 178 188 204 C 213 230 244 244 281 244 C 316 244 347 230 373 204 C 399 178 412 147 412 113 Z" unicode="" />
<glyph horiz-adv-x="2595" d="M 2462 293 C 2462 236 2446 183 2416 133 C 2385 83 2344 44 2292 15 C 2240 -14 2187 -29 2132 -29 C 2040 -29 1963 0 1902 60 C 1840 119 1810 196 1810 291 C 1810 348 1825 402 1855 454 C 1885 505 1925 546 1975 577 C 2025 607 2078 623 2132 623 C 2194 623 2250 609 2302 582 C 2353 554 2392 516 2420 466 C 2448 416 2462 359 2462 293 Z M 1665 293 C 1665 236 1649 183 1619 133 C 1588 83 1547 44 1495 15 C 1443 -14 1390 -29 1335 -29 C 1242 -29 1165 0 1105 60 C 1044 119 1014 196 1014 291 C 1014 348 1029 402 1059 454 C 1089 505 1129 546 1179 577 C 1229 607 1281 623 1335 623 C 1397 623 1453 609 1505 582 C 1556 554 1595 516 1623 466 C 1651 416 1665 359 1665 293 Z M 1366 1382 L 487 -201 L 428 -170 L 1303 1413 L 1366 1382 Z M 784 940 C 784 884 768 831 738 781 C 707 731 666 692 615 662 C 563 632 510 618 455 618 C 363 618 286 647 225 706 C 163 764 133 842 133 938 C 133 996 148 1050 178 1102 C 208 1154 249 1195 299 1225 C 349 1255 401 1270 455 1270 C 517 1270 573 1256 623 1229 C 673 1202 713 1164 741 1114 C 769 1064 784 1006 784 940 Z M 2300 289 C 2300 377 2285 446 2257 497 C 2228 547 2187 573 2134 573 C 2084 573 2045 548 2015 499 C 1985 449 1970 383 1970 299 C 1970 211 1984 143 2013 94 C 2042 44 2084 20 2138 20 C 2184 20 2223 45 2254 95 C 2284 145 2300 209 2300 289 Z M 1503 289 C 1503 377 1488 446 1460 497 C 1431 547 1390 573 1337 573 C 1287 573 1247 548 1218 498 C 1188 448 1174 382 1174 299 C 1174 212 1188 144 1217 94 C 1245 44 1287 20 1341 20 C 1387 20 1426 45 1457 95 C 1487 145 1503 209 1503 289 Z M 623 936 C 623 1026 608 1096 580 1146 C 551 1196 510 1221 457 1221 C 406 1221 366 1196 337 1147 C 307 1098 293 1031 293 946 C 293 856 307 788 337 740 C 366 692 407 668 461 668 C 509 668 548 692 578 742 C 608 791 623 856 623 936 Z" unicode="" />
<glyph horiz-adv-x="719" d="M 604 57 L 571 31 L 126 390 C 116 396 110 404 107 413 C 103 422 102 437 102 459 C 102 479 104 493 108 503 C 112 512 123 525 143 541 C 313 672 456 787 571 885 L 604 858 L 283 455 L 604 57 Z" unicode="" />
<glyph horiz-adv-x="719" d="M 616 459 C 616 437 614 422 611 413 C 607 403 601 396 593 390 L 147 31 L 115 57 L 436 455 L 115 858 L 147 885 C 261 787 404 672 575 541 C 590 529 601 518 607 508 C 613 498 616 481 616 459 Z" unicode="" />
<glyph horiz-adv-x="696" d="M 864 1497 L -168 -434 L -256 -391 L 774 1540 L 864 1497 Z" unicode="" />
<glyph horiz-adv-x="1260" d="M 215 678 L 63 678 L 63 725 L 219 725 C 233 830 264 924 314 1007 C 363 1090 426 1155 503 1201 C 580 1247 665 1270 758 1270 C 827 1270 890 1259 946 1237 C 1002 1215 1045 1186 1077 1148 C 1108 1110 1124 1068 1124 1022 C 1124 979 1114 946 1096 922 C 1078 898 1051 887 1016 887 C 982 887 956 895 937 912 C 918 928 909 950 909 977 C 909 997 913 1018 923 1042 C 933 1066 938 1088 938 1108 C 932 1138 911 1164 877 1186 C 842 1208 800 1219 750 1219 C 658 1219 583 1174 524 1085 C 465 996 430 876 418 725 L 887 725 L 887 678 L 416 678 L 414 645 L 414 566 L 416 522 L 805 522 L 805 475 L 420 475 C 434 338 471 236 529 168 C 587 100 664 66 760 66 C 832 66 895 85 947 125 C 999 164 1045 228 1087 317 L 1141 293 C 1094 187 1034 107 960 53 C 886 -1 801 -29 705 -29 C 566 -29 454 14 370 102 C 285 190 234 314 217 475 L 63 475 L 63 522 L 213 522 L 211 562 L 211 604 L 215 678 Z" unicode="" />
<glyph horiz-adv-x="1946" d="M 1866 514 C 1866 358 1827 211 1749 75 C 1671 -60 1563 -169 1425 -250 C 1287 -330 1137 -371 975 -371 C 813 -371 663 -331 525 -252 C 387 -172 279 -64 199 72 C 119 208 80 356 80 514 C 80 671 119 817 198 952 C 277 1087 385 1195 523 1275 C 661 1355 811 1395 975 1395 C 1138 1395 1289 1354 1427 1273 C 1565 1191 1672 1083 1750 947 C 1827 811 1866 667 1866 514 Z M 1778 514 C 1778 662 1741 799 1667 925 C 1593 1051 1495 1148 1372 1218 C 1249 1288 1117 1323 975 1323 C 829 1323 695 1287 571 1216 C 447 1144 348 1046 276 922 C 204 797 168 661 168 514 C 168 366 204 228 276 102 C 348 -23 447 -122 571 -194 C 695 -265 830 -301 975 -301 C 1117 -301 1249 -266 1373 -196 C 1496 -126 1594 -27 1668 100 C 1741 227 1778 365 1778 514 Z M 1436 748 C 1436 690 1419 639 1386 593 C 1353 547 1308 512 1250 487 C 1192 461 1130 449 1063 449 L 954 449 L 954 176 C 954 165 956 154 961 144 C 966 134 973 126 983 121 C 993 115 1015 110 1049 105 C 1083 99 1116 96 1147 94 L 1147 51 L 602 51 L 602 94 C 631 96 662 101 695 108 C 727 114 748 123 758 134 C 767 144 772 158 772 176 L 772 848 C 772 881 756 902 725 911 C 673 925 630 933 596 936 L 596 979 L 1124 979 C 1216 979 1291 957 1349 914 C 1407 870 1436 815 1436 748 Z M 1229 713 C 1229 783 1212 836 1179 874 C 1145 911 1100 930 1042 930 L 954 930 L 954 502 L 1016 502 C 1081 502 1133 521 1171 559 C 1209 597 1229 649 1229 713 Z" unicode="" />
<glyph horiz-adv-x="1356" d="M 1313 887 L 1036 887 L 1036 913 L 1052 915 C 1087 918 1109 923 1119 930 C 1128 937 1133 948 1133 963 L 1133 1319 L 1120 1319 L 940 893 L 920 893 L 881 999 L 756 1309 L 743 1309 L 743 1038 C 743 1008 745 984 751 967 C 756 950 764 939 774 933 C 784 927 809 921 848 913 L 848 887 L 600 887 L 600 913 L 614 915 C 625 916 639 919 656 924 C 673 928 685 939 691 955 C 697 971 700 997 700 1032 L 700 1286 C 700 1314 692 1334 678 1348 C 652 1362 628 1370 606 1370 L 606 1399 L 813 1399 L 965 1034 L 1081 1331 C 1088 1349 1094 1371 1098 1399 L 1311 1399 L 1311 1370 L 1280 1366 L 1247 1358 C 1233 1352 1227 1340 1227 1323 L 1227 963 C 1227 949 1231 939 1239 933 C 1247 926 1271 919 1313 913 L 1313 887 Z M 543 1247 L 518 1247 C 508 1277 495 1303 481 1324 C 466 1344 453 1356 442 1358 L 413 1360 L 354 1360 L 354 961 C 354 943 361 932 377 926 L 442 913 L 442 887 L 166 887 L 166 913 L 200 917 C 238 921 258 934 258 956 L 258 1360 L 198 1360 L 168 1358 C 153 1355 138 1341 122 1316 C 106 1290 95 1267 90 1247 L 66 1247 L 66 1399 L 543 1399 L 543 1247 Z" unicode="" />
<glyph horiz-adv-x="1188" d="M 1075 485 L 113 485 L 113 580 L 1075 580 L 1075 485 Z" unicode="" />
<glyph horiz-adv-x="1264" d="M 1223 596 C 1223 553 1208 517 1178 488 C 1148 458 1112 444 1069 444 C 1045 444 1024 448 1007 457 C 989 466 972 476 956 488 C 939 500 921 511 902 523 C 882 534 859 542 831 547 L 813 530 C 805 482 778 442 733 408 L 731 387 C 747 365 765 349 784 338 C 802 326 821 316 840 307 C 914 273 952 221 952 152 C 952 110 936 73 904 42 C 872 11 835 -4 793 -4 C 750 -4 714 10 684 40 C 654 70 639 106 639 150 C 639 166 645 196 658 238 C 670 280 676 314 676 342 L 676 365 L 662 375 L 641 373 L 621 373 C 580 373 542 385 506 410 L 479 408 C 459 378 445 337 436 283 C 428 229 410 188 383 158 C 355 128 320 113 276 113 C 234 113 197 128 166 159 C 134 189 119 226 119 270 C 119 313 135 349 167 379 C 199 409 240 424 289 424 L 319 424 C 367 424 407 433 440 451 L 446 479 C 432 508 426 537 426 567 C 426 585 428 602 432 618 L 422 645 C 410 649 392 651 367 651 C 343 651 319 648 295 644 C 270 639 250 637 236 637 C 191 637 153 652 123 683 C 93 713 78 750 78 793 C 78 834 92 870 122 902 C 151 934 188 950 233 950 C 308 950 359 908 386 826 C 398 787 408 759 416 743 C 424 726 435 711 449 698 L 479 700 C 519 741 566 762 621 762 L 643 776 C 643 803 639 827 632 847 C 624 867 616 885 608 902 C 599 919 591 936 584 953 C 576 969 573 988 573 1010 C 573 1053 588 1089 618 1117 C 648 1145 685 1159 729 1159 C 773 1159 809 1143 838 1113 C 866 1083 881 1046 881 1004 C 881 976 875 953 865 933 C 854 913 837 896 814 880 C 780 855 755 835 739 820 C 723 804 710 786 700 766 L 709 741 C 759 715 792 675 807 623 L 831 610 C 850 616 867 625 882 636 C 897 647 920 668 950 698 C 987 735 1028 754 1073 754 C 1113 754 1148 738 1178 708 C 1208 678 1223 640 1223 596 Z M 758 569 C 758 607 745 640 719 668 C 693 695 660 709 621 709 C 582 709 549 695 523 668 C 496 641 483 608 483 569 C 483 529 496 495 522 467 C 548 439 581 426 621 426 C 661 426 693 440 719 468 C 745 496 758 529 758 569 Z" unicode="" />
<glyph horiz-adv-x="1536" d="M 76 0 L 651 1536 L 885 1536 L 1456 0 L 76 0 Z M 352 147 L 1163 147 L 752 1255 L 352 147 Z" unicode="" />
<glyph horiz-adv-x="1536" d="M 332 0 L 332 1348 L 80 1348 L 80 1524 L 1456 1524 L 1456 1348 L 1212 1348 L 1212 0 L 1004 0 L 1004 1356 L 541 1356 L 541 0 L 332 0 Z" unicode="" />
<glyph horiz-adv-x="1151" d="M 1083 1524 L 1083 1343 L 332 1343 L 797 784 L 303 188 L 1079 188 L 1079 0 L 41 0 L 41 172 L 559 788 L 68 1380 L 68 1524 L 1083 1524 Z" unicode="" />
<glyph horiz-adv-x="1188" d="M 1075 485 L 113 485 L 113 580 L 1075 580 L 1075 485 Z" unicode="" />
<glyph horiz-adv-x="696" d="M 864 1497 L -168 -434 L -256 -391 L 774 1540 L 864 1497 Z" unicode="" />
<glyph horiz-adv-x="594" d="M 438 557 C 438 519 424 487 397 460 C 370 433 337 420 299 420 C 259 420 226 433 200 461 C 173 488 160 520 160 557 C 160 595 173 627 201 655 C 228 682 261 696 299 696 C 337 696 369 682 397 655 C 424 627 438 595 438 557 Z" unicode="" />
<glyph horiz-adv-x="1280" d="M 121 440 L 41 612 L 360 895 L 612 303 L 1112 1548 L 1305 1548 L 612 -129 L 588 -129 L 289 604 L 121 440 Z" unicode="" />
<glyph horiz-adv-x="1536" d="M 1071 395 C 973 395 896 423 840 479 C 814 509 790 545 768 588 C 674 459 565 395 440 395 C 336 395 253 432 190 508 C 127 583 96 683 96 809 C 96 925 133 1022 207 1100 C 281 1178 368 1217 468 1217 C 616 1217 720 1154 780 1028 C 854 1154 961 1217 1100 1217 C 1198 1217 1279 1182 1345 1112 C 1411 1042 1444 945 1444 819 C 1444 699 1409 598 1340 517 C 1271 435 1181 395 1071 395 Z M 471 1049 C 408 1049 356 1026 316 982 C 276 937 256 874 256 793 C 256 709 271 648 302 610 C 332 572 381 553 449 553 C 567 553 650 638 700 809 C 653 969 577 1049 471 1049 Z M 1071 555 C 1127 555 1175 578 1217 625 C 1259 672 1280 735 1280 815 C 1280 881 1264 939 1234 988 C 1203 1036 1151 1061 1079 1061 C 1008 1061 957 1033 927 978 C 896 922 870 865 848 805 C 856 702 880 635 921 603 C 962 571 1012 555 1071 555 Z" unicode="" />
<glyph horiz-adv-x="1264" d="M 1223 596 C 1223 553 1208 517 1178 488 C 1148 458 1112 444 1069 444 C 1045 444 1024 448 1007 457 C 989 466 972 476 956 488 C 939 500 921 511 902 523 C 882 534 859 542 831 547 L 813 530 C 805 482 778 442 733 408 L 731 387 C 747 365 765 349 784 338 C 802 326 821 316 840 307 C 914 273 952 221 952 152 C 952 110 936 73 904 42 C 872 11 835 -4 793 -4 C 750 -4 714 10 684 40 C 654 70 639 106 639 150 C 639 166 645 196 658 238 C 670 280 676 314 676 342 L 676 365 L 662 375 L 641 373 L 621 373 C 580 373 542 385 506 410 L 479 408 C 459 378 445 337 436 283 C 428 229 410 188 383 158 C 355 128 320 113 276 113 C 234 113 197 128 166 159 C 134 189 119 226 119 270 C 119 313 135 349 167 379 C 199 409 240 424 289 424 L 319 424 C 367 424 407 433 440 451 L 446 479 C 432 508 426 537 426 567 C 426 585 428 602 432 618 L 422 645 C 410 649 392 651 367 651 C 343 651 319 648 295 644 C 270 639 250 637 236 637 C 191 637 153 652 123 683 C 93 713 78 750 78 793 C 78 834 92 870 122 902 C 151 934 188 950 233 950 C 308 950 359 908 386 826 C 398 787 408 759 416 743 C 424 726 435 711 449 698 L 479 700 C 519 741 566 762 621 762 L 643 776 C 643 803 639 827 632 847 C 624 867 616 885 608 902 C 599 919 591 936 584 953 C 576 969 573 988 573 1010 C 573 1053 588 1089 618 1117 C 648 1145 685 1159 729 1159 C 773 1159 809 1143 838 1113 C 866 1083 881 1046 881 1004 C 881 976 875 953 865 933 C 854 913 837 896 814 880 C 780 855 755 835 739 820 C 723 804 710 786 700 766 L 709 741 C 759 715 792 675 807 623 L 831 610 C 850 616 867 625 882 636 C 897 647 920 668 950 698 C 987 735 1028 754 1073 754 C 1113 754 1148 738 1178 708 C 1208 678 1223 640 1223 596 Z M 758 569 C 758 607 745 640 719 668 C 693 695 660 709 621 709 C 582 709 549 695 523 668 C 496 641 483 608 483 569 C 483 529 496 495 522 467 C 548 439 581 426 621 426 C 661 426 693 440 719 468 C 745 496 758 529 758 569 Z" unicode="" />
<glyph horiz-adv-x="1188" d="M 1069 131 L 999 61 L 592 469 L 186 61 L 119 129 L 526 535 L 119 942 L 188 1012 L 596 604 L 1001 1012 L 1069 944 L 662 539 L 1069 131 Z" unicode="" />
<glyph horiz-adv-x="1536" d="M 213 977 L 213 1176 L 899 1176 L 995 1356 L 1167 1356 L 1071 1176 L 1327 1176 L 1327 977 L 965 977 L 768 604 L 1327 604 L 1327 403 L 659 403 L 549 188 L 373 188 L 487 403 L 213 403 L 213 604 L 592 604 L 793 977 L 213 977 Z" unicode="" />
<glyph horiz-adv-x="1536" d="M 1348 236 L 209 709 L 209 872 L 1348 1343 L 1348 1128 L 449 793 L 1348 453 L 1348 236 Z M 213 25 L 213 215 L 1348 215 L 1348 25 L 213 25 Z" unicode="" />
<glyph horiz-adv-x="1536" d="M 213 236 L 213 453 L 1112 793 L 213 1128 L 213 1343 L 1352 872 L 1352 709 L 213 236 Z M 213 25 L 213 215 L 1348 215 L 1348 25 L 213 25 Z" unicode="" />
<glyph horiz-adv-x="1151" d="M 471 -47 L 68 756 L 471 1561 L 655 1561 L 1083 756 L 655 -47 L 471 -47 Z M 555 152 L 877 768 L 571 1356 L 252 739 L 555 152 Z" unicode="" />
<glyph horiz-adv-x="1264" d="M 1223 596 C 1223 553 1208 517 1178 488 C 1148 458 1112 444 1069 444 C 1045 444 1024 448 1007 457 C 989 466 972 476 956 488 C 939 500 921 511 902 523 C 882 534 859 542 831 547 L 813 530 C 805 482 778 442 733 408 L 731 387 C 747 365 765 349 784 338 C 802 326 821 316 840 307 C 914 273 952 221 952 152 C 952 110 936 73 904 42 C 872 11 835 -4 793 -4 C 750 -4 714 10 684 40 C 654 70 639 106 639 150 C 639 166 645 196 658 238 C 670 280 676 314 676 342 L 676 365 L 662 375 L 641 373 L 621 373 C 580 373 542 385 506 410 L 479 408 C 459 378 445 337 436 283 C 428 229 410 188 383 158 C 355 128 320 113 276 113 C 234 113 197 128 166 159 C 134 189 119 226 119 270 C 119 313 135 349 167 379 C 199 409 240 424 289 424 L 319 424 C 367 424 407 433 440 451 L 446 479 C 432 508 426 537 426 567 C 426 585 428 602 432 618 L 422 645 C 410 649 392 651 367 651 C 343 651 319 648 295 644 C 270 639 250 637 236 637 C 191 637 153 652 123 683 C 93 713 78 750 78 793 C 78 834 92 870 122 902 C 151 934 188 950 233 950 C 308 950 359 908 386 826 C 398 787 408 759 416 743 C 424 726 435 711 449 698 L 479 700 C 519 741 566 762 621 762 L 643 776 C 643 803 639 827 632 847 C 624 867 616 885 608 902 C 599 919 591 936 584 953 C 576 969 573 988 573 1010 C 573 1053 588 1089 618 1117 C 648 1145 685 1159 729 1159 C 773 1159 809 1143 838 1113 C 866 1083 881 1046 881 1004 C 881 976 875 953 865 933 C 854 913 837 896 814 880 C 780 855 755 835 739 820 C 723 804 710 786 700 766 L 709 741 C 759 715 792 675 807 623 L 831 610 C 850 616 867 625 882 636 C 897 647 920 668 950 698 C 987 735 1028 754 1073 754 C 1113 754 1148 738 1178 708 C 1208 678 1223 640 1223 596 Z M 758 569 C 758 607 745 640 719 668 C 693 695 660 709 621 709 C 582 709 549 695 523 668 C 496 641 483 608 483 569 C 483 529 496 495 522 467 C 548 439 581 426 621 426 C 661 426 693 440 719 468 C 745 496 758 529 758 569 Z" unicode="" />
<glyph horiz-adv-x="1251" d="M 1440 1358 C 1440 1331 1430 1307 1410 1285 C 1390 1263 1367 1253 1341 1253 C 1310 1253 1285 1261 1266 1278 C 1246 1294 1237 1317 1237 1346 C 1237 1361 1238 1377 1241 1394 C 1243 1411 1245 1431 1245 1454 C 1241 1463 1234 1470 1223 1476 C 1211 1482 1199 1485 1186 1485 C 1120 1485 1073 1451 1043 1383 C 1013 1315 999 1206 999 1055 L 999 922 L 1249 922 L 1249 842 L 999 842 L 999 158 C 999 116 1013 87 1043 71 C 1073 55 1114 45 1167 41 L 1167 0 L 678 0 L 678 41 C 732 45 768 55 786 72 C 804 88 813 113 813 147 L 813 846 L 399 846 L 399 158 C 399 135 403 116 413 100 C 422 84 441 71 469 60 C 497 48 523 42 547 41 L 547 0 L 68 0 L 68 41 C 100 43 128 47 150 53 C 172 58 188 69 198 85 C 208 101 213 122 213 147 L 213 842 L 4 842 L 4 922 L 213 922 L 213 975 C 213 1137 262 1274 360 1384 C 391 1420 435 1451 493 1477 C 550 1503 607 1516 664 1516 C 730 1516 787 1504 833 1481 C 879 1458 912 1424 932 1380 C 962 1426 1005 1462 1063 1489 C 1121 1516 1179 1530 1237 1530 C 1296 1530 1345 1513 1383 1480 C 1421 1447 1440 1406 1440 1358 Z M 850 1202 C 818 1202 792 1208 773 1221 C 754 1234 745 1252 745 1276 C 745 1313 753 1343 769 1365 L 776 1378 C 772 1402 765 1420 756 1431 C 747 1442 734 1451 716 1458 C 698 1464 676 1468 649 1468 C 599 1468 555 1451 517 1418 C 479 1384 450 1336 429 1272 C 407 1208 397 1129 397 1036 L 397 922 L 817 922 L 817 981 C 817 1051 828 1125 850 1202 Z" unicode="" />
<glyph horiz-adv-x="1184" d="M 1137 0 L 666 0 L 666 41 C 724 45 761 55 779 71 C 796 87 805 113 805 147 L 805 745 C 800 790 790 824 776 848 L 399 848 L 399 158 C 399 114 415 84 449 68 C 482 52 518 43 557 41 L 557 0 L 68 0 L 68 41 C 100 43 128 47 150 53 C 172 58 188 69 198 85 C 208 101 213 122 213 147 L 213 842 L 4 842 L 4 922 L 213 922 L 213 985 C 213 1093 235 1190 280 1275 C 324 1360 382 1424 452 1466 C 522 1508 594 1530 668 1530 C 772 1530 852 1512 906 1478 C 960 1443 987 1388 987 1313 C 987 1282 977 1255 958 1231 C 938 1207 912 1196 879 1196 C 846 1196 819 1204 797 1221 C 775 1238 764 1260 764 1288 C 764 1324 775 1361 797 1397 C 791 1454 744 1483 655 1483 C 605 1483 561 1465 522 1431 C 483 1397 453 1347 431 1281 C 409 1215 399 1137 399 1047 L 399 922 L 729 922 L 977 938 L 991 924 L 991 160 C 991 112 1009 80 1047 66 C 1081 51 1111 43 1137 41 L 1137 0 Z" unicode="" />
<glyph horiz-adv-x="1186" d="M 1143 0 L 670 0 L 670 41 C 729 45 768 55 786 72 C 804 89 813 114 813 147 L 813 1214 C 769 1226 748 1250 748 1288 C 748 1322 762 1352 791 1378 L 801 1389 C 795 1423 779 1447 753 1462 C 727 1477 693 1485 653 1485 C 603 1485 559 1467 521 1433 C 482 1398 452 1348 431 1283 C 409 1218 399 1139 399 1047 L 399 922 L 651 922 L 651 838 L 399 838 L 399 158 C 399 114 415 84 449 68 C 482 52 518 43 557 41 L 557 0 L 68 0 L 68 41 C 100 43 128 47 150 53 C 172 58 188 69 198 85 C 208 101 213 122 213 147 L 213 838 L 4 838 L 4 922 L 213 922 L 213 985 C 213 1093 235 1190 279 1275 C 323 1359 381 1423 451 1466 C 521 1508 592 1530 666 1530 C 702 1530 736 1526 768 1520 C 800 1514 837 1501 879 1483 L 983 1528 L 997 1513 L 997 160 C 997 117 1012 87 1044 70 C 1076 53 1109 43 1143 41 L 1143 0 Z" unicode="" />
<glyph horiz-adv-x="1782" d="M 1735 0 L 1262 0 L 1262 41 C 1321 45 1359 56 1377 72 C 1394 88 1403 113 1403 147 L 1403 745 C 1398 790 1388 824 1374 848 L 997 848 L 997 158 C 997 114 1013 84 1047 68 C 1080 52 1116 43 1155 41 L 1155 0 L 666 0 L 666 41 C 698 43 726 47 748 53 C 770 58 786 69 796 85 C 806 101 811 122 811 147 L 811 846 L 399 846 L 399 158 C 399 135 403 116 413 100 C 422 84 441 71 469 60 C 497 48 523 42 547 41 L 547 0 L 68 0 L 68 41 C 100 43 128 47 150 53 C 172 58 188 69 198 85 C 208 101 213 122 213 147 L 213 842 L 4 842 L 4 922 L 213 922 L 213 975 C 213 1137 262 1274 360 1384 C 392 1420 437 1451 495 1477 C 553 1503 610 1516 666 1516 C 735 1516 793 1503 840 1477 C 887 1451 920 1415 938 1368 C 976 1417 1024 1456 1082 1486 C 1140 1515 1199 1530 1260 1530 C 1360 1530 1437 1512 1490 1477 C 1542 1442 1569 1387 1569 1311 C 1569 1279 1559 1252 1539 1229 C 1519 1205 1492 1194 1460 1194 C 1427 1194 1400 1202 1378 1220 C 1356 1237 1346 1259 1346 1286 C 1346 1324 1354 1355 1371 1381 L 1378 1395 C 1376 1419 1370 1436 1362 1447 C 1353 1457 1339 1466 1321 1473 C 1303 1479 1278 1483 1247 1483 C 1197 1483 1154 1465 1116 1431 C 1078 1397 1049 1347 1028 1282 C 1007 1216 997 1138 997 1047 L 997 922 L 1327 922 L 1575 938 L 1589 924 L 1589 160 C 1589 135 1593 115 1603 99 C 1612 83 1633 69 1665 57 C 1697 44 1721 39 1735 41 L 1735 0 Z M 844 1202 C 814 1203 790 1210 773 1223 C 756 1235 748 1253 748 1276 C 748 1312 755 1341 771 1365 L 778 1378 C 774 1402 767 1420 758 1431 C 749 1442 736 1451 718 1458 C 700 1464 678 1468 651 1468 C 601 1468 556 1451 518 1417 C 480 1383 450 1333 429 1269 C 407 1205 397 1127 397 1036 L 397 922 L 815 922 L 815 985 C 815 1069 824 1142 844 1202 Z" unicode="" />
<glyph horiz-adv-x="1786" d="M 1743 0 L 1268 0 L 1268 41 C 1308 43 1338 48 1357 55 C 1375 61 1389 72 1399 88 C 1408 104 1413 123 1413 147 L 1413 1214 C 1369 1226 1348 1250 1348 1288 C 1348 1322 1362 1352 1391 1378 L 1401 1389 C 1389 1453 1339 1485 1251 1485 C 1201 1485 1157 1467 1119 1433 C 1080 1398 1050 1348 1029 1283 C 1007 1218 997 1139 997 1047 L 997 922 L 1249 922 L 1249 840 L 997 840 L 997 158 C 997 114 1013 84 1047 68 C 1080 52 1116 43 1155 41 L 1155 0 L 666 0 L 666 41 C 698 43 726 47 748 53 C 770 58 786 69 796 85 C 806 101 811 122 811 147 L 811 846 L 399 846 L 399 158 C 399 135 403 116 413 100 C 422 84 441 71 469 60 C 497 48 523 42 547 41 L 547 0 L 68 0 L 68 41 C 100 43 128 47 150 53 C 172 58 188 69 198 85 C 208 101 213 122 213 147 L 213 842 L 4 842 L 4 922 L 213 922 L 213 975 C 213 1137 262 1274 360 1384 C 392 1420 437 1451 495 1477 C 553 1503 610 1516 666 1516 C 735 1516 793 1503 840 1477 C 887 1451 920 1415 938 1368 C 940 1373 950 1384 966 1402 C 982 1419 1005 1437 1033 1456 C 1061 1475 1094 1492 1133 1507 C 1172 1522 1216 1530 1264 1530 C 1339 1530 1411 1514 1479 1483 L 1583 1528 L 1597 1513 L 1597 160 C 1597 117 1612 87 1644 70 C 1676 53 1709 43 1743 41 L 1743 0 Z M 846 1202 C 816 1203 792 1211 776 1225 C 760 1239 752 1257 752 1280 C 752 1318 758 1346 772 1366 L 778 1378 C 773 1402 766 1420 758 1431 C 750 1441 737 1450 720 1457 C 703 1464 680 1468 651 1468 C 601 1468 556 1451 518 1417 C 480 1383 450 1333 429 1269 C 407 1205 397 1127 397 1036 L 397 922 L 815 922 L 815 985 C 815 1059 825 1131 846 1202 Z" unicode="" />
</font>
</defs>
</svg>
