<?xml version="1.0" encoding="utf-8" ?><svg version="1.1" xmlns = 'http://www.w3.org/2000/svg'><defs><font id='web' horiz-adv-x="1000">
<font-face font-family="web" descent="-477" cap-height="1280" units-per-em="2048" bbox="-500,-523,2226,2011" x-height="938" ascent="1407" />
<missing-glyph horiz-adv-x="1024" d="" /><glyph horiz-adv-x="467" d="" unicode=" " />
<glyph horiz-adv-x="498" d="M 246 57 C 246 37 239 19 225 3 C 211 -12 193 -20 172 -20 C 150 -20 133 -12 120 3 C 106 19 100 37 100 57 C 100 76 106 93 120 108 C 133 123 150 131 172 131 C 193 131 211 123 225 108 C 239 93 246 76 246 57 Z M 209 365 L 367 1329 L 469 1319 L 256 360 L 209 365 Z" unicode="!" />
<glyph horiz-adv-x="1024" d="M 336 815 L 262 815 L 647 1327 L 735 1282 L 336 815 Z M 637 815 L 563 815 L 948 1327 L 1036 1282 L 637 815 Z" unicode="&#x22;" />
<glyph horiz-adv-x="1159" d="M 401 770 L 150 770 L 152 840 L 434 840 L 653 1315 L 729 1315 L 508 840 L 885 840 L 1104 1315 L 1180 1315 L 961 840 L 1141 840 L 1139 770 L 928 770 L 766 422 L 1018 422 L 1016 352 L 733 352 L 502 -152 L 426 -152 L 659 352 L 281 352 L 49 -152 L -25 -152 L 209 352 L 27 352 L 29 422 L 240 422 C 240 422 267 480 321 596 C 374 712 401 770 401 770 Z M 852 770 L 475 770 L 313 422 L 690 422 C 691 422 718 480 772 596 C 825 712 852 770 852 770 Z" unicode="#" />
<glyph horiz-adv-x="1024" d="M 745 1288 L 813 1495 L 881 1495 C 881 1495 868 1458 844 1384 C 819 1310 807 1272 807 1272 C 845 1260 883 1246 919 1228 C 955 1210 986 1191 1012 1169 L 983 1090 C 956 1113 925 1134 891 1152 C 856 1170 820 1186 782 1198 L 608 674 C 683 636 748 592 804 543 C 859 493 887 425 887 338 C 887 226 846 139 764 75 C 682 11 584 -20 471 -20 C 455 -20 439 -19 423 -18 C 407 -17 391 -16 375 -14 L 297 -252 L 229 -252 L 311 -2 C 261 9 213 25 168 47 C 123 69 83 93 47 121 L 76 201 C 111 171 151 144 196 122 C 241 99 288 82 336 70 L 520 625 C 520 625 519 626 519 626 C 518 626 518 627 518 627 C 444 662 375 704 313 752 C 250 800 219 869 219 958 C 219 1068 260 1153 343 1212 C 426 1270 521 1300 627 1300 C 646 1300 665 1299 685 1297 C 705 1295 725 1292 745 1288 Z M 575 598 C 575 598 545 508 487 328 C 428 148 398 59 397 59 C 410 57 423 55 436 54 C 448 53 461 53 475 53 C 554 53 629 77 699 125 C 769 173 805 239 805 324 C 805 392 782 446 736 488 C 690 530 636 566 575 598 Z M 553 702 L 721 1212 C 702 1216 684 1220 667 1222 C 649 1224 632 1225 616 1225 C 534 1225 461 1201 398 1155 C 334 1109 303 1047 303 969 C 303 901 328 848 380 809 C 431 769 489 734 553 702 Z" unicode="$" />
<glyph horiz-adv-x="1528" d="M 823 1020 C 823 917 787 829 715 757 C 643 685 555 649 453 649 C 362 649 286 676 224 731 C 162 785 131 859 131 952 C 131 1055 167 1143 240 1216 C 312 1288 400 1325 502 1325 C 593 1325 669 1297 731 1243 C 792 1188 823 1114 823 1020 Z M 750 1016 C 750 1089 726 1147 679 1190 C 631 1233 572 1255 500 1255 C 417 1255 347 1226 290 1169 C 233 1112 205 1042 205 958 C 205 886 228 828 275 784 C 322 740 381 719 453 719 C 536 719 606 747 664 804 C 721 861 750 932 750 1016 Z M 1464 317 C 1464 214 1428 127 1356 55 C 1284 -17 1196 -53 1094 -53 C 1003 -53 927 -25 865 29 C 803 83 772 157 772 250 C 772 352 808 440 881 513 C 953 586 1041 623 1143 623 C 1234 623 1310 595 1372 540 C 1433 485 1464 411 1464 317 Z M 1391 313 C 1391 386 1367 444 1320 488 C 1272 531 1213 553 1141 553 C 1058 553 988 524 931 467 C 874 409 846 339 846 256 C 846 183 869 125 916 81 C 963 37 1022 16 1094 16 C 1177 16 1247 44 1305 102 C 1362 159 1391 229 1391 313 Z M 1503 1309 L 188 -31 L 94 -31 L 1411 1309 L 1503 1309 Z" unicode="%" />
<glyph horiz-adv-x="1282" d="M 864 272 C 802 200 732 134 655 72 C 578 10 489 -20 387 -20 C 291 -20 209 11 142 74 C 74 137 41 217 41 315 C 41 428 83 516 169 578 C 254 640 345 685 442 711 C 396 740 357 777 324 822 C 290 866 274 917 274 975 C 274 1071 313 1151 391 1215 C 469 1279 554 1311 645 1311 C 727 1311 798 1286 858 1236 C 918 1186 948 1120 948 1036 C 948 941 912 865 840 809 C 768 752 690 712 608 690 C 666 653 718 608 765 555 C 812 501 853 445 887 385 L 1202 772 L 1307 772 L 924 334 L 1124 -10 L 1028 -23 L 864 272 Z M 831 326 C 790 396 742 461 688 523 C 633 584 569 634 496 672 C 416 648 334 608 252 551 C 170 493 129 417 129 322 C 129 246 155 182 207 130 C 259 78 323 53 397 53 C 483 53 564 84 638 146 C 712 208 776 268 831 326 Z M 547 727 C 617 747 687 781 757 827 C 827 873 862 938 862 1024 C 862 1087 840 1139 796 1179 C 752 1219 698 1239 633 1239 C 562 1239 500 1214 446 1164 C 392 1114 365 1053 365 981 C 365 923 383 873 421 831 C 459 788 501 753 547 727 Z" unicode="&#x26;" />
<glyph horiz-adv-x="512" d="M 213 815 L 139 815 L 524 1327 L 612 1282 L 213 815 Z" unicode="'" />
<glyph horiz-adv-x="1024" d="M 844 -459 C 736 -403 619 -293 495 -128 C 371 37 309 239 309 479 C 309 718 371 920 495 1086 C 619 1252 736 1362 844 1417 L 883 1346 C 781 1292 673 1188 560 1033 C 447 877 391 693 391 479 C 391 265 447 80 560 -74 C 673 -229 781 -333 883 -385 L 844 -459 Z" unicode="(" />
<glyph horiz-adv-x="1024" d="M 178 -459 L 139 -385 C 241 -333 348 -229 460 -74 C 572 80 629 265 629 479 C 629 693 572 877 460 1033 C 348 1188 241 1292 139 1346 L 178 1417 C 286 1362 402 1252 526 1086 C 650 920 713 718 713 479 C 713 239 650 37 526 -128 C 402 -293 286 -403 178 -459 Z" unicode=")" />
<glyph horiz-adv-x="1024" d="M 584 944 L 313 786 L 276 866 L 561 979 L 563 989 L 342 1202 L 406 1262 L 598 1014 L 604 1016 L 739 1294 L 817 1253 L 641 995 L 647 987 L 944 956 L 928 866 L 639 950 L 631 944 L 698 639 L 610 631 L 590 940 L 584 944 Z" unicode="*" />
<glyph horiz-adv-x="1024" d="M 928 444 L 555 444 L 555 55 L 473 55 L 473 444 L 98 444 L 104 518 L 473 518 L 473 903 L 555 903 L 555 518 L 922 518 L 928 444 Z" unicode="+" />
<glyph horiz-adv-x="512" d="M 86 68 C 90 85 100 101 118 116 C 136 131 156 139 178 139 C 206 139 231 126 251 102 C 271 78 281 50 281 18 C 281 -44 253 -102 198 -158 C 143 -213 81 -257 12 -289 L -18 -252 C 50 -214 99 -175 131 -136 C 162 -97 178 -59 178 -23 C 178 -3 170 14 154 29 C 138 43 115 56 86 68 Z" unicode="," />
<glyph horiz-adv-x="561" d="M 494 459 L 74 459 L 74 537 L 494 537 L 494 459 Z" unicode="-" />
<glyph horiz-adv-x="512" d="M 254 57 C 254 37 247 19 233 3 C 219 -12 201 -20 180 -20 C 158 -20 141 -12 128 3 C 115 19 109 37 109 57 C 109 76 115 93 128 108 C 141 123 158 131 180 131 C 201 131 219 123 233 108 C 247 93 254 76 254 57 Z" unicode="." />
<glyph horiz-adv-x="403" d="M 700 1438 L -158 -408 L -233 -408 L 623 1438 L 700 1438 Z" unicode="/" />
<glyph horiz-adv-x="1024" d="M 465 -8 C 307 -8 205 47 160 158 C 114 268 92 364 92 446 C 92 595 131 773 211 980 C 290 1186 430 1290 631 1290 C 789 1290 890 1234 936 1124 C 981 1013 1004 915 1004 829 C 1004 684 964 508 886 302 C 807 95 667 -8 465 -8 Z M 922 844 C 922 898 905 974 872 1072 C 839 1170 757 1219 625 1219 C 431 1219 307 1109 255 889 C 202 669 176 516 176 432 C 176 379 192 304 224 208 C 256 111 337 63 469 63 C 663 63 787 172 841 391 C 895 610 922 761 922 844 Z" unicode="0" />
<glyph horiz-adv-x="1024" d="M 526 0 L 442 0 L 680 1192 L 381 1130 L 389 1206 L 780 1286 L 526 0 Z" unicode="1" />
<glyph horiz-adv-x="1024" d="M 807 0 L 6 0 L 16 94 C 281 311 489 480 640 601 C 790 721 866 850 866 987 C 866 1066 838 1125 782 1165 C 726 1205 665 1225 598 1225 C 542 1225 485 1213 428 1191 C 371 1169 322 1141 281 1108 L 254 1178 C 306 1217 362 1247 422 1268 C 482 1289 542 1300 602 1300 C 692 1300 773 1274 845 1222 C 916 1170 952 1095 952 995 C 952 842 878 707 730 589 C 582 471 376 301 111 80 L 815 80 L 807 0 Z" unicode="2" />
<glyph horiz-adv-x="1024" d="M 567 659 C 661 647 735 615 789 563 C 843 511 870 440 870 352 C 870 247 828 159 744 88 C 660 17 557 -18 434 -18 C 374 -18 311 -7 247 12 C 182 32 128 59 86 92 L 125 162 C 167 130 215 103 269 83 C 323 63 378 53 432 53 C 532 53 617 79 685 132 C 753 184 788 257 788 350 C 788 431 760 495 704 542 C 648 588 565 612 455 612 C 433 612 414 611 397 610 C 379 609 363 608 348 606 L 360 676 C 474 693 589 725 703 772 C 817 818 874 896 874 1004 C 874 1078 850 1133 803 1171 C 755 1208 695 1227 621 1227 C 563 1227 508 1216 456 1194 C 403 1172 356 1148 315 1122 L 285 1188 C 328 1215 378 1240 436 1264 C 493 1288 557 1300 629 1300 C 718 1300 795 1275 859 1227 C 923 1178 956 1107 956 1014 C 956 917 916 839 838 781 C 759 722 669 681 567 659 Z" unicode="3" />
<glyph horiz-adv-x="1024" d="M 961 328 L 764 328 L 696 -10 L 614 -10 L 682 328 L 59 328 L 47 401 L 864 1290 L 952 1290 L 778 401 L 969 401 L 961 328 Z M 696 401 L 854 1184 L 141 401 L 696 401 Z" unicode="4" />
<glyph horiz-adv-x="1024" d="M 317 752 C 339 756 363 760 387 762 C 411 764 437 766 465 766 C 565 766 656 736 737 677 C 817 617 858 530 858 414 C 858 278 813 171 724 93 C 635 15 525 -23 395 -23 C 338 -23 279 -13 219 6 C 158 26 105 52 59 86 L 86 164 C 132 130 180 102 232 82 C 284 61 339 51 397 51 C 502 51 591 82 664 145 C 737 207 774 295 774 408 C 774 494 744 563 685 615 C 625 667 551 694 463 694 C 421 694 383 692 350 688 C 317 684 285 678 254 670 L 225 713 L 414 1280 L 989 1280 L 979 1200 L 467 1200 L 317 752 Z" unicode="5" />
<glyph horiz-adv-x="1024" d="M 983 1296 L 993 1214 C 839 1201 688 1150 542 1060 C 395 970 288 836 221 659 L 223 657 C 270 687 325 712 387 733 C 449 753 510 764 569 764 C 678 764 765 730 830 664 C 895 597 928 516 928 422 C 928 298 886 194 803 108 C 719 22 616 -20 494 -20 C 375 -20 279 23 207 109 C 134 195 98 296 98 414 C 98 669 193 875 383 1033 C 573 1190 773 1278 983 1296 Z M 182 418 C 182 326 208 242 260 167 C 312 92 392 55 498 55 C 599 55 682 89 746 159 C 810 228 842 312 842 410 C 842 499 815 569 761 619 C 707 669 637 694 553 694 C 478 694 412 682 355 659 C 297 636 246 609 201 578 C 192 553 187 527 185 499 C 183 471 182 444 182 418 Z" unicode="6" />
<glyph horiz-adv-x="1024" d="M 938 1196 L 229 1196 L 250 1280 L 1034 1280 L 1042 1221 L 258 0 L 158 0 L 938 1196 Z" unicode="7" />
<glyph horiz-adv-x="1024" d="M 881 315 C 881 223 841 145 762 81 C 682 16 587 -16 475 -16 C 363 -16 270 12 197 70 C 124 127 88 200 88 289 C 88 399 125 484 200 544 C 275 604 361 643 457 662 C 401 691 351 730 305 779 C 259 827 236 890 236 967 C 236 1056 274 1133 352 1199 C 430 1265 523 1298 631 1298 C 735 1298 820 1269 886 1211 C 952 1153 985 1079 985 989 C 985 894 951 817 885 759 C 819 700 739 658 647 633 C 704 602 757 561 807 511 C 856 460 881 395 881 315 Z M 797 313 C 797 397 764 462 698 508 C 632 554 573 592 520 623 C 434 603 356 569 284 519 C 212 469 176 395 176 299 C 176 223 203 164 258 120 C 313 76 388 55 483 55 C 573 55 647 79 707 129 C 767 178 797 239 797 313 Z M 899 981 C 899 1052 873 1111 822 1157 C 771 1203 707 1227 629 1227 C 542 1227 469 1201 409 1151 C 349 1101 319 1040 319 969 C 319 890 351 828 416 783 C 481 737 538 700 588 672 C 666 692 737 726 802 776 C 866 825 899 893 899 981 Z" unicode="8" />
<glyph horiz-adv-x="1024" d="M 111 -14 L 100 66 C 254 78 404 130 552 221 C 700 311 807 445 874 623 L 872 625 C 825 595 770 569 707 549 C 644 528 583 518 524 518 C 409 518 321 550 259 615 C 197 680 166 759 166 852 C 166 975 207 1079 290 1165 C 373 1251 476 1294 600 1294 C 718 1294 813 1252 886 1168 C 958 1084 995 986 995 874 C 995 613 900 404 710 248 C 520 91 320 4 111 -14 Z M 911 864 C 911 956 885 1038 833 1110 C 781 1182 702 1219 596 1219 C 494 1219 411 1184 347 1115 C 283 1045 252 962 252 864 C 252 774 278 706 331 659 C 384 611 454 588 541 588 C 615 588 680 599 738 622 C 795 645 847 673 893 705 C 901 729 906 755 908 783 C 910 811 911 838 911 864 Z" unicode="9" />
<glyph horiz-adv-x="512" d="M 251 57 C 251 37 244 19 230 3 C 216 -12 198 -20 177 -20 C 155 -20 138 -12 125 3 C 111 19 105 37 105 57 C 105 76 111 93 125 108 C 138 123 155 131 177 131 C 198 131 216 123 230 108 C 244 93 251 76 251 57 Z M 379 731 C 379 711 372 693 358 677 C 344 661 326 654 305 654 C 283 654 266 661 253 677 C 239 693 233 711 233 731 C 233 750 239 767 253 782 C 266 797 283 805 305 805 C 326 805 344 797 358 782 C 372 767 379 750 379 731 Z" unicode=":" />
<glyph horiz-adv-x="512" d="M 86 68 C 90 85 100 101 118 116 C 135 131 155 139 178 139 C 206 139 230 126 250 102 C 270 78 280 50 280 18 C 280 -44 252 -102 198 -158 C 143 -213 81 -257 12 -289 L -19 -252 C 49 -214 99 -175 131 -136 C 162 -97 178 -59 178 -23 C 178 -3 170 14 154 29 C 138 43 115 56 86 68 Z M 379 732 C 379 712 372 694 358 678 C 344 662 326 655 305 655 C 283 655 266 662 253 678 C 239 694 233 712 233 732 C 233 751 239 768 253 783 C 266 798 283 806 305 806 C 326 806 344 798 358 783 C 372 768 379 751 379 732 Z" unicode=";" />
<glyph horiz-adv-x="1024" d="M 874 123 L 874 39 L 135 432 L 135 530 L 874 924 L 874 838 L 209 489 L 209 471 L 874 123 Z" unicode="&#x3C;" />
<glyph horiz-adv-x="1024" d="M 879 268 L 147 268 L 154 346 L 872 346 L 879 268 Z M 872 614 L 154 614 L 147 692 L 879 692 L 872 614 Z" unicode="=" />
<glyph horiz-adv-x="1024" d="M 901 432 L 162 39 L 162 123 L 827 471 L 827 489 L 162 838 L 162 924 L 901 530 L 901 432 Z" unicode="&#x3E;" />
<glyph horiz-adv-x="700" d="M 727 989 C 727 900 699 834 645 790 C 590 746 526 712 453 688 C 382 664 331 641 301 618 C 271 595 256 566 256 530 C 256 504 265 477 285 451 C 305 425 330 399 360 373 C 360 373 350 370 331 365 C 312 360 302 358 301 358 C 271 380 244 407 218 438 C 192 468 180 503 180 541 C 180 593 201 635 243 669 C 285 702 343 731 418 756 C 491 780 547 808 586 842 C 625 876 645 925 645 989 C 645 1064 618 1123 565 1166 C 511 1209 448 1231 375 1231 C 348 1231 326 1230 308 1228 C 290 1226 275 1225 262 1223 L 276 1300 C 289 1302 304 1304 322 1306 C 339 1308 358 1309 379 1309 C 491 1309 577 1275 637 1208 C 697 1141 727 1068 727 989 Z M 301 57 C 301 37 294 19 280 3 C 266 -12 248 -20 227 -20 C 205 -20 188 -12 175 3 C 162 19 156 37 156 57 C 156 76 162 93 175 108 C 188 123 205 131 227 131 C 248 131 266 123 280 108 C 294 93 301 76 301 57 Z" unicode="?" />
<glyph horiz-adv-x="1708" d="M 1616 627 C 1616 459 1578 331 1502 242 C 1426 153 1343 109 1253 109 C 1194 109 1144 124 1104 154 C 1064 184 1037 220 1024 260 C 978 203 934 164 892 142 C 850 120 808 109 766 109 C 679 109 609 141 557 206 C 505 271 479 350 479 444 C 479 576 521 690 605 786 C 689 882 787 930 899 930 C 943 930 983 921 1018 905 C 1053 888 1084 870 1112 850 L 1204 909 L 1104 428 C 1086 345 1092 282 1122 239 C 1152 195 1197 174 1257 174 C 1327 174 1394 212 1456 289 C 1518 365 1550 478 1550 627 C 1550 812 1481 961 1343 1073 C 1205 1185 1051 1241 881 1241 C 682 1241 513 1166 374 1017 C 235 868 166 695 166 498 C 166 308 227 145 350 11 C 472 -122 629 -190 821 -190 C 859 -190 902 -185 950 -176 C 997 -167 1037 -157 1071 -147 L 1083 -205 C 1040 -218 995 -228 948 -235 C 901 -242 857 -246 817 -246 C 609 -246 437 -174 302 -30 C 167 113 100 288 100 496 C 100 712 175 899 327 1057 C 478 1215 663 1294 881 1294 C 1075 1294 1246 1233 1394 1113 C 1542 992 1616 830 1616 627 Z M 1096 772 C 1073 794 1044 815 1009 834 C 974 852 935 862 891 862 C 804 862 728 820 663 736 C 597 652 565 555 565 444 C 565 372 584 310 622 258 C 660 206 714 180 784 180 C 818 180 855 190 893 212 C 931 234 968 268 1004 315 L 1096 772 Z" unicode="@" />
<glyph horiz-adv-x="1180" d="M 805 1280 L 1038 0 L 956 0 L 889 379 L 268 379 L 55 0 L -39 0 L 698 1280 L 805 1280 Z M 872 457 L 741 1202 L 313 457 L 872 457 Z" unicode="A" />
<glyph horiz-adv-x="1073" d="M 700 639 C 776 625 838 591 886 539 C 934 486 958 424 958 354 C 958 259 918 176 839 106 C 760 35 635 0 463 0 L 78 0 L 326 1280 L 643 1280 C 773 1280 871 1249 936 1188 C 1001 1127 1034 1054 1034 969 C 1034 888 1005 817 949 757 C 892 696 809 657 700 639 Z M 870 356 C 870 419 842 476 786 527 C 730 578 642 604 524 604 L 281 604 L 178 78 L 473 78 C 611 78 712 104 775 157 C 838 210 870 276 870 356 Z M 946 956 C 946 1019 922 1076 874 1126 C 826 1176 743 1202 625 1202 L 397 1202 L 297 678 L 541 678 C 637 678 729 700 816 745 C 902 790 946 860 946 956 Z" unicode="B" />
<glyph horiz-adv-x="1169" d="M 1210 1217 L 1194 1135 C 1146 1157 1087 1177 1017 1195 C 947 1213 881 1223 817 1223 C 620 1223 468 1151 361 1007 C 254 863 201 707 201 541 C 201 385 245 266 334 182 C 422 98 539 57 684 57 C 737 57 790 63 843 76 C 896 89 946 107 993 131 L 1010 51 C 960 27 906 10 846 -2 C 786 -14 730 -20 676 -20 C 502 -20 365 30 265 132 C 165 234 115 367 115 532 C 115 726 176 902 300 1061 C 423 1220 597 1300 821 1300 C 887 1300 954 1292 1021 1278 C 1088 1263 1151 1243 1210 1217 Z" unicode="C" />
<glyph horiz-adv-x="1251" d="M 1171 725 C 1171 524 1104 353 972 212 C 839 70 647 0 397 0 L 78 0 L 326 1280 L 567 1280 C 739 1280 883 1231 998 1134 C 1113 1036 1171 900 1171 725 Z M 1079 719 C 1079 871 1031 989 935 1074 C 839 1159 711 1202 551 1202 L 397 1202 L 180 78 L 406 78 C 593 78 752 131 883 239 C 1013 347 1079 507 1079 719 Z" unicode="D" />
<glyph horiz-adv-x="1004" d="M 811 0 L 78 0 L 328 1280 L 1061 1280 L 1044 1202 L 397 1202 L 297 678 L 838 678 L 823 602 L 283 602 L 180 78 L 827 78 L 811 0 Z" unicode="E" />
<glyph horiz-adv-x="950" d="M 78 0 L 326 1280 L 1040 1280 L 1026 1200 L 397 1200 L 293 659 L 815 659 L 799 584 L 276 584 L 164 0 L 78 0 Z" unicode="F" />
<glyph horiz-adv-x="1239" d="M 1044 82 C 995 52 935 28 865 9 C 795 -10 732 -20 676 -20 C 502 -20 365 30 265 132 C 165 234 115 367 115 532 C 115 726 176 902 300 1061 C 423 1220 597 1300 821 1300 C 887 1300 954 1292 1021 1278 C 1088 1263 1151 1243 1210 1217 L 1194 1135 C 1146 1157 1087 1177 1017 1195 C 947 1213 881 1223 817 1223 C 620 1223 468 1151 361 1007 C 254 863 201 707 201 541 C 201 385 245 265 334 181 C 422 97 539 55 684 55 C 734 55 782 61 830 74 C 877 87 923 104 967 125 L 1047 543 L 702 543 L 719 618 L 1147 618 L 1044 82 Z" unicode="G" />
<glyph horiz-adv-x="1307" d="M 1049 0 L 963 0 L 1079 604 L 281 604 L 164 0 L 78 0 L 326 1280 L 412 1280 L 297 682 L 1096 682 L 1210 1280 L 1296 1280 L 1049 0 Z" unicode="H" />
<glyph horiz-adv-x="426" d="M 162 0 L 76 0 L 326 1280 L 412 1280 L 162 0 Z" unicode="I" />
<glyph horiz-adv-x="840" d="M 682 354 C 659 240 614 149 548 81 C 482 13 391 -20 276 -20 C 209 -20 146 -8 88 15 C 30 38 -16 64 -51 94 L -18 170 C 23 136 69 109 120 88 C 171 67 223 57 276 57 C 360 57 430 82 484 134 C 538 186 576 265 598 373 L 774 1280 L 860 1280 L 682 354 Z" unicode="J" />
<glyph horiz-adv-x="1034" d="M 293 662 L 295 662 L 1059 1280 L 1178 1280 L 371 635 L 924 0 L 821 0 L 285 616 L 283 616 L 164 0 L 78 0 L 326 1280 L 412 1280 L 293 662 Z" unicode="K" />
<glyph horiz-adv-x="944" d="M 811 0 L 78 0 L 328 1280 L 414 1280 L 180 78 L 827 78 L 811 0 Z" unicode="L" />
<glyph horiz-adv-x="1532" d="M 1217 0 L 1415 1180 L 735 -2 L 625 -2 L 397 1182 L 135 0 L 47 0 L 338 1280 L 459 1280 L 688 70 L 1382 1280 L 1513 1280 L 1303 0 L 1217 0 Z" unicode="M" />
<glyph horiz-adv-x="1284" d="M 973 100 L 1200 1280 L 1282 1280 L 1030 -12 L 936 -12 L 385 1178 L 160 0 L 78 0 L 326 1280 L 426 1280 L 973 100 Z" unicode="N" />
<glyph horiz-adv-x="1417" d="M 1378 725 C 1378 531 1312 359 1180 207 C 1048 55 882 -20 682 -20 C 518 -20 383 35 278 147 C 173 258 121 396 121 561 C 121 755 186 927 318 1076 C 450 1225 616 1300 817 1300 C 981 1300 1115 1245 1220 1135 C 1325 1025 1378 889 1378 725 Z M 1292 723 C 1292 865 1246 985 1156 1082 C 1065 1178 948 1227 805 1227 C 628 1227 484 1157 373 1019 C 262 881 207 728 207 561 C 207 419 251 300 341 202 C 430 104 547 55 692 55 C 867 55 1011 124 1123 264 C 1235 404 1292 557 1292 723 Z" unicode="O" />
<glyph horiz-adv-x="1024" d="M 1030 934 C 1030 790 978 677 875 595 C 771 513 624 473 434 475 L 256 477 L 162 0 L 76 0 L 326 1280 L 614 1280 C 754 1280 858 1245 927 1177 C 995 1108 1030 1027 1030 934 Z M 940 920 C 940 998 911 1064 853 1119 C 795 1174 712 1202 602 1202 L 397 1202 L 270 553 L 449 551 C 605 549 726 581 812 647 C 897 713 940 804 940 920 Z" unicode="P" />
<glyph horiz-adv-x="1417" d="M 858 2 L 1241 -258 L 1192 -328 L 756 -16 C 744 -17 733 -18 721 -19 C 709 -19 698 -20 686 -20 C 522 -20 386 35 280 147 C 174 258 121 396 121 561 C 121 755 186 927 318 1076 C 450 1225 616 1300 817 1300 C 981 1300 1115 1245 1220 1135 C 1325 1025 1378 889 1378 725 C 1378 561 1330 410 1234 272 C 1138 134 1012 44 858 2 Z M 1292 723 C 1292 865 1246 985 1156 1082 C 1065 1178 948 1227 805 1227 C 628 1227 484 1157 373 1019 C 262 881 207 728 207 561 C 207 419 251 300 341 202 C 430 104 547 55 692 55 C 867 55 1011 124 1123 264 C 1235 404 1292 557 1292 723 Z" unicode="Q" />
<glyph horiz-adv-x="1051" d="M 266 530 L 164 0 L 78 0 L 326 1280 L 584 1280 C 733 1280 842 1246 912 1178 C 981 1110 1016 1030 1016 940 C 1016 826 974 737 890 673 C 806 609 721 571 635 557 L 872 0 L 782 0 L 553 547 L 266 530 Z M 283 606 L 508 610 C 606 613 700 640 790 690 C 880 740 926 820 926 932 C 926 1010 898 1075 843 1126 C 787 1176 700 1202 580 1202 L 397 1202 L 283 606 Z" unicode="R" />
<glyph horiz-adv-x="971" d="M 451 53 C 548 53 627 79 688 131 C 749 183 780 248 780 326 C 780 405 750 466 690 510 C 630 553 565 592 494 627 C 419 662 350 704 287 754 C 224 803 193 872 193 961 C 193 1071 234 1155 318 1213 C 401 1271 496 1300 602 1300 C 671 1300 741 1287 812 1263 C 882 1238 941 1207 987 1169 L 958 1090 C 912 1129 856 1161 789 1187 C 721 1212 656 1225 592 1225 C 509 1225 436 1201 373 1154 C 310 1107 279 1045 279 967 C 279 895 307 840 365 800 C 422 760 485 724 553 690 C 634 649 706 603 769 552 C 832 501 864 429 864 336 C 864 224 822 137 740 74 C 657 11 559 -20 446 -20 C 366 -20 289 -7 214 19 C 139 45 75 79 23 121 L 51 201 C 104 158 166 123 236 95 C 306 67 378 53 451 53 Z" unicode="S" />
<glyph horiz-adv-x="1077" d="M 1190 1202 L 737 1202 L 504 0 L 418 0 L 651 1202 L 199 1202 L 213 1280 L 1204 1280 L 1190 1202 Z" unicode="T" />
<glyph horiz-adv-x="1200" d="M 571 -20 C 435 -20 327 13 247 80 C 167 147 127 232 127 334 C 127 373 130 412 136 452 C 142 491 147 521 152 543 L 297 1280 L 381 1280 L 236 532 C 231 512 226 485 220 452 C 214 418 211 382 211 344 C 211 260 241 191 303 137 C 365 82 456 55 578 55 C 681 55 767 90 837 162 C 907 233 954 330 979 453 L 1139 1280 L 1223 1280 L 1061 436 C 1033 296 978 185 896 103 C 813 21 705 -20 571 -20 Z" unicode="U" />
<glyph horiz-adv-x="1122" d="M 1237 1280 L 524 0 L 422 0 L 199 1280 L 285 1280 L 487 84 L 1145 1280 L 1237 1280 Z" unicode="V" />
<glyph horiz-adv-x="1827" d="M 1057 1188 L 459 0 L 379 0 L 262 1280 L 346 1280 L 444 133 L 1018 1280 L 1126 1280 L 1260 133 L 1786 1280 L 1880 1280 L 1278 0 L 1198 0 L 1057 1188 Z" unicode="W" />
<glyph horiz-adv-x="1126" d="M 590 606 L 47 0 L -61 0 L 551 668 L 221 1280 L 313 1280 L 610 713 L 1114 1280 L 1221 1280 L 649 653 L 1004 0 L 909 0 L 590 606 Z" unicode="X" />
<glyph horiz-adv-x="1038" d="M 1167 1280 L 573 516 L 473 0 L 387 0 L 487 520 L 186 1280 L 274 1280 L 543 600 L 1063 1280 L 1167 1280 Z" unicode="Y" />
<glyph horiz-adv-x="1020" d="M 862 0 L -37 0 L -25 61 L 981 1204 L 227 1204 L 242 1280 L 1110 1280 L 1100 1219 L 94 76 L 877 76 L 862 0 Z" unicode="Z" />
<glyph horiz-adv-x="1024" d="M 827 -455 L 326 -455 L 326 1382 L 827 1382 L 827 1309 L 412 1309 L 412 -381 L 827 -381 L 827 -455 Z" unicode="[" />
<glyph horiz-adv-x="403" d="M 168 1438 L 238 1438 L 377 -408 L 309 -408 L 168 1438 Z" unicode="\" />
<glyph horiz-adv-x="1024" d="M 195 -455 L 195 -381 L 610 -381 L 610 1309 L 195 1309 L 195 1382 L 696 1382 L 696 -455 L 195 -455 Z" unicode="]" />
<glyph horiz-adv-x="735" d="M 805 1055 L 743 1055 L 590 1350 L 586 1350 L 317 1055 L 244 1055 L 545 1417 L 647 1417 L 805 1055 Z" unicode="^" />
<glyph horiz-adv-x="879" d="M 897 -78 L -18 -78 L -18 0 L 897 0 L 897 -78 Z" unicode="_" />
<glyph horiz-adv-x="817" d="M 643 1055 L 586 1055 L 334 1417 L 446 1417 L 643 1055 Z" unicode="`" />
<glyph horiz-adv-x="874" d="M 672 547 L 684 606 C 701 687 691 753 653 805 C 615 857 553 883 467 883 C 417 883 367 873 317 855 C 267 837 224 817 186 795 L 168 868 C 208 892 254 913 307 931 C 359 949 415 958 473 958 C 569 958 648 929 710 871 C 772 813 790 725 766 606 L 674 145 C 668 117 670 94 678 75 C 686 55 712 46 754 47 L 745 -16 C 690 -18 652 -7 630 15 C 608 38 598 71 598 115 L 596 115 C 561 76 517 44 464 18 C 411 -7 357 -20 301 -20 C 221 -20 157 6 107 58 C 57 110 33 169 33 233 C 33 340 84 419 188 470 C 291 521 452 547 672 547 Z M 600 193 L 659 477 C 460 478 320 457 239 414 C 157 370 117 313 117 242 C 117 192 134 148 169 110 C 204 72 254 53 319 53 C 372 53 423 66 473 93 C 523 120 565 153 600 193 Z" unicode="a" />
<glyph horiz-adv-x="1038" d="M 954 551 C 954 389 906 253 810 144 C 714 34 598 -20 461 -20 C 399 -20 343 -9 292 12 C 240 34 197 60 162 92 L 57 -20 L 330 1380 L 420 1407 L 309 836 C 341 862 381 887 429 911 C 477 935 532 948 594 948 C 696 948 782 910 851 835 C 919 759 954 665 954 551 Z M 870 535 C 870 637 843 720 789 784 C 735 847 667 879 584 879 C 528 879 474 865 422 838 C 370 811 326 779 289 741 L 178 168 C 208 134 250 106 302 83 C 354 60 409 49 467 49 C 582 49 678 97 755 194 C 831 291 870 405 870 535 Z" unicode="b" />
<glyph horiz-adv-x="911" d="M 737 37 C 703 20 665 6 621 -4 C 577 -14 535 -20 494 -20 C 372 -20 274 20 199 101 C 123 181 86 282 86 403 C 86 541 132 668 224 784 C 316 900 438 958 588 958 C 651 958 709 947 761 927 C 813 906 858 880 895 850 L 860 778 C 827 806 786 830 737 850 C 687 870 634 881 578 881 C 468 881 374 833 295 739 C 215 644 176 536 176 414 C 176 312 204 227 260 159 C 316 91 396 57 498 57 C 538 57 579 62 620 73 C 660 84 697 98 731 115 L 737 37 Z" unicode="c" />
<glyph horiz-adv-x="1036" d="M 872 825 L 981 1380 L 1069 1407 L 795 0 L 711 0 L 727 88 C 695 61 656 36 609 14 C 561 -8 506 -20 444 -20 C 344 -20 259 16 188 90 C 117 163 82 259 82 377 C 82 539 130 674 227 784 C 323 893 443 948 586 948 C 642 948 694 936 744 914 C 794 891 836 861 872 825 Z M 858 760 C 827 793 786 821 735 844 C 683 867 632 879 580 879 C 462 879 364 830 285 732 C 205 634 166 521 166 393 C 166 290 192 207 246 144 C 300 80 369 49 453 49 C 509 49 562 61 614 86 C 666 110 709 140 745 176 L 858 760 Z" unicode="d" />
<glyph horiz-adv-x="942" d="M 182 485 C 181 473 180 461 179 449 C 178 437 178 426 178 414 C 178 312 206 227 264 159 C 322 91 402 57 504 57 C 544 57 585 62 626 73 C 666 84 703 98 737 115 L 743 37 C 709 20 671 6 627 -4 C 583 -14 541 -20 500 -20 C 378 -20 280 20 204 101 C 128 181 90 282 90 403 C 90 547 134 676 224 789 C 313 901 426 958 563 958 C 655 958 731 930 791 876 C 851 822 881 755 881 676 C 881 647 877 616 869 583 C 861 550 851 519 838 489 L 182 485 Z M 197 559 L 770 559 C 777 577 782 596 786 614 C 789 632 791 651 791 672 C 791 728 770 777 728 819 C 686 860 629 881 557 881 C 469 881 393 849 329 786 C 265 722 221 647 197 559 Z" unicode="e" />
<glyph horiz-adv-x="567" d="M 766 1366 L 731 1294 C 709 1309 686 1322 661 1332 C 635 1342 607 1348 575 1348 C 523 1348 482 1327 450 1287 C 418 1247 395 1193 381 1126 L 340 928 L 616 928 L 610 854 L 326 854 L 160 0 L 76 0 L 242 850 L 115 858 L 121 913 L 254 930 L 297 1130 C 320 1238 357 1315 407 1359 C 457 1403 515 1425 582 1425 C 615 1425 648 1420 680 1410 C 712 1400 741 1385 766 1366 Z" unicode="f" />
<glyph horiz-adv-x="942" d="M 236 338 C 203 364 176 398 155 440 C 133 482 123 530 123 584 C 123 694 162 783 242 853 C 322 923 409 958 504 958 C 548 958 586 953 620 943 C 653 933 683 920 709 903 L 997 922 L 1006 829 L 768 840 C 786 813 801 783 813 750 C 825 717 831 683 831 649 C 831 536 791 445 711 375 C 631 305 540 270 438 270 C 410 270 383 273 356 280 C 329 287 304 297 281 309 C 246 295 218 278 198 256 C 178 234 168 212 168 190 C 168 158 183 132 213 110 C 243 88 297 69 377 53 L 457 37 C 554 16 630 -13 686 -52 C 742 -90 770 -143 770 -211 C 770 -281 732 -348 657 -414 C 581 -479 464 -512 305 -512 C 183 -512 84 -487 8 -437 C -67 -387 -106 -321 -106 -238 C -106 -174 -83 -119 -37 -71 C 8 -23 76 14 166 41 C 144 51 125 67 109 91 C 92 114 84 140 84 170 C 84 210 98 245 128 275 C 158 305 194 326 236 338 Z M 240 8 C 152 -11 86 -41 44 -82 C 1 -123 -20 -173 -20 -231 C -20 -299 12 -351 77 -387 C 141 -422 221 -440 317 -440 C 425 -440 513 -419 583 -378 C 653 -336 688 -284 688 -221 C 688 -171 663 -131 614 -102 C 565 -72 491 -48 393 -29 C 369 -23 342 -17 312 -10 C 282 -2 258 3 240 8 Z M 446 338 C 534 338 606 368 664 429 C 721 489 750 558 750 635 C 750 712 727 774 682 821 C 636 867 575 891 498 891 C 420 891 352 861 292 801 C 232 741 203 670 203 590 C 203 516 225 456 270 409 C 315 361 374 338 446 338 Z" unicode="g" />
<glyph horiz-adv-x="1008" d="M 774 0 L 690 0 L 803 582 C 807 607 811 628 813 645 C 815 661 817 676 817 690 C 817 748 800 795 766 831 C 732 867 680 885 612 885 C 560 885 507 871 453 845 C 399 818 345 783 289 739 L 145 0 L 61 0 L 330 1380 L 420 1407 L 305 819 C 357 861 411 894 468 920 C 524 945 581 958 639 958 C 720 958 784 934 832 888 C 879 842 903 781 903 705 C 903 689 901 672 899 653 C 897 634 893 612 889 586 L 774 0 Z" unicode="h" />
<glyph horiz-adv-x="397" d="M 422 1227 C 422 1205 414 1186 400 1170 C 386 1153 367 1145 344 1145 C 320 1145 302 1153 288 1170 C 274 1186 268 1205 268 1227 C 268 1247 274 1265 287 1281 C 300 1297 318 1305 342 1305 C 365 1305 384 1297 399 1281 C 414 1265 422 1247 422 1227 Z M 150 0 L 66 0 L 246 932 L 334 958 L 150 0 Z" unicode="i" />
<glyph horiz-adv-x="395" d="M 422 1227 C 422 1205 414 1186 400 1170 C 386 1153 367 1145 344 1145 C 320 1145 302 1153 288 1170 C 274 1186 268 1205 268 1227 C 268 1247 274 1265 287 1281 C 300 1297 318 1305 342 1305 C 365 1305 384 1297 399 1281 C 414 1265 422 1247 422 1227 Z M -180 -514 L -227 -449 C -145 -416 -83 -374 -43 -324 C -2 -273 27 -200 45 -104 L 246 932 L 334 958 L 125 -125 C 103 -233 68 -317 20 -377 C -28 -437 -95 -482 -180 -514 Z" unicode="j" />
<glyph horiz-adv-x="844" d="M 244 487 L 240 487 L 145 0 L 61 0 L 330 1380 L 420 1407 L 246 520 L 250 520 L 768 938 L 893 938 L 332 498 L 725 0 L 621 0 L 244 487 Z" unicode="k" />
<glyph horiz-adv-x="385" d="M 145 0 L 61 0 L 330 1380 L 420 1407 L 145 0 Z" unicode="l" />
<glyph horiz-adv-x="1548" d="M 1315 0 L 1231 0 L 1343 582 C 1348 607 1352 628 1354 645 C 1356 661 1358 676 1358 690 C 1358 748 1341 795 1308 831 C 1274 867 1226 885 1163 885 C 1112 885 1061 871 1011 844 C 960 817 910 781 860 735 L 860 705 C 860 689 858 670 855 648 C 852 626 848 601 844 575 L 731 0 L 647 0 L 760 582 C 764 607 768 628 770 645 C 772 661 774 676 774 690 C 774 748 757 795 724 831 C 690 867 642 885 580 885 C 530 885 482 872 434 848 C 386 824 339 791 291 750 L 145 0 L 61 0 L 242 932 L 332 958 L 307 834 C 351 872 398 903 448 925 C 498 947 549 958 602 958 C 663 958 715 943 758 914 C 801 884 831 845 848 795 C 896 845 949 884 1007 914 C 1065 943 1124 958 1186 958 C 1262 958 1324 934 1372 888 C 1420 842 1444 781 1444 705 C 1444 689 1442 672 1440 653 C 1438 634 1434 612 1430 586 L 1315 0 Z" unicode="m" />
<glyph horiz-adv-x="1008" d="M 774 0 L 690 0 L 803 582 C 807 607 811 628 813 645 C 815 661 817 676 817 690 C 817 748 800 795 766 831 C 732 867 680 885 612 885 C 561 885 508 871 454 843 C 400 815 345 779 289 735 L 145 0 L 61 0 L 242 932 L 332 958 L 305 819 C 357 861 411 894 468 920 C 524 945 581 958 639 958 C 720 958 784 934 832 888 C 879 842 903 781 903 705 C 903 689 901 670 898 648 C 895 626 891 601 887 575 L 774 0 Z" unicode="n" />
<glyph horiz-adv-x="1090" d="M 1004 532 C 1004 386 956 258 860 148 C 764 37 640 -18 489 -18 C 366 -18 268 21 195 101 C 122 180 86 281 86 403 C 86 549 134 677 230 789 C 326 900 449 956 600 956 C 723 956 821 916 894 836 C 967 756 1004 654 1004 532 Z M 918 524 C 918 625 890 710 834 779 C 778 848 698 883 594 883 C 466 883 364 833 287 734 C 210 635 172 526 172 408 C 172 306 200 222 257 155 C 314 88 394 55 496 55 C 623 55 725 103 802 199 C 879 295 918 404 918 524 Z" unicode="o" />
<glyph horiz-adv-x="1040" d="M 309 840 C 341 866 380 890 428 913 C 475 936 530 948 592 948 C 692 948 777 911 848 838 C 918 764 954 669 954 551 C 954 389 905 253 809 144 C 713 34 593 -20 451 -20 C 395 -20 342 -8 292 13 C 242 35 199 65 164 102 L 51 -477 L -31 -477 L 242 932 L 332 958 L 309 840 Z M 291 752 L 178 168 C 208 134 249 106 301 83 C 353 60 405 49 457 49 C 573 49 671 97 751 195 C 830 293 870 406 870 535 C 870 637 843 720 789 784 C 735 847 667 879 584 879 C 528 879 474 866 422 842 C 370 817 326 787 291 752 Z" unicode="p" />
<glyph horiz-adv-x="1036" d="M 705 -477 L 618 -477 L 729 88 C 697 61 658 36 611 14 C 563 -8 508 -20 446 -20 C 346 -20 261 16 190 90 C 119 163 84 259 84 377 C 84 539 132 674 229 784 C 325 893 445 948 588 948 C 644 948 696 936 746 914 C 796 891 838 861 874 825 L 981 946 L 705 -477 Z M 860 760 C 829 793 788 821 737 844 C 685 867 634 879 582 879 C 464 879 366 830 287 732 C 207 634 168 521 168 393 C 168 290 194 207 248 144 C 302 80 371 49 455 49 C 511 49 564 61 616 86 C 668 110 712 140 748 176 L 860 760 Z" unicode="q" />
<glyph horiz-adv-x="676" d="M 260 590 L 145 0 L 61 0 L 242 932 L 332 958 L 293 760 C 326 818 366 866 414 903 C 462 939 513 958 567 958 C 601 958 634 953 665 945 C 696 937 723 926 745 913 L 723 834 C 706 844 683 854 655 865 C 626 875 595 881 563 881 C 506 881 452 856 402 807 C 351 757 304 685 260 590 Z" unicode="r" />
<glyph horiz-adv-x="750" d="M 637 254 C 637 177 606 112 544 59 C 482 6 403 -20 309 -20 C 249 -20 189 -8 130 14 C 71 37 26 63 -4 92 L 33 162 C 67 133 109 108 159 86 C 209 64 260 53 313 53 C 380 53 437 70 484 105 C 531 139 555 186 555 244 C 555 284 541 318 513 346 C 485 374 429 409 346 451 C 280 484 227 518 187 553 C 147 587 127 638 127 705 C 127 784 157 846 218 891 C 279 935 348 958 426 958 C 482 958 536 948 588 930 C 640 911 685 888 723 862 L 686 793 C 648 820 607 842 562 860 C 517 878 470 887 422 887 C 360 887 308 871 268 839 C 227 807 207 765 207 715 C 207 669 221 632 250 605 C 279 577 334 544 414 506 C 489 469 545 432 582 396 C 618 359 637 312 637 254 Z" unicode="s" />
<glyph horiz-adv-x="664" d="M 502 84 L 516 12 C 489 0 458 -10 422 -18 C 386 -26 351 -31 317 -31 C 250 -31 197 -14 157 19 C 117 53 98 98 98 154 C 98 175 100 198 104 224 C 108 250 113 278 121 309 L 242 850 L 121 858 L 127 913 L 258 930 L 309 1153 L 391 1153 L 340 928 L 680 928 L 674 854 L 324 854 L 201 299 C 195 269 190 245 186 226 C 182 207 180 189 180 172 C 180 129 192 97 218 76 C 244 55 280 45 326 45 C 360 45 392 49 421 57 C 449 65 476 74 502 84 Z" unicode="t" />
<glyph horiz-adv-x="1008" d="M 236 938 L 319 938 L 207 356 C 201 330 198 309 196 293 C 194 276 193 261 193 248 C 193 190 210 143 244 107 C 278 71 329 53 397 53 C 449 53 502 66 556 93 C 610 119 665 155 721 199 L 864 938 L 948 938 L 768 6 L 678 -20 L 705 119 C 653 77 598 43 541 18 C 484 -7 427 -20 371 -20 C 289 -20 224 3 177 49 C 129 95 106 157 106 233 C 106 248 107 267 110 289 C 113 311 117 336 123 362 L 236 938 Z" unicode="u" />
<glyph horiz-adv-x="829" d="M 911 938 L 360 -2 L 287 -2 L 98 938 L 184 938 L 342 119 L 817 938 L 911 938 Z" unicode="v" />
<glyph horiz-adv-x="1288" d="M 295 -2 L 227 -2 L 125 938 L 207 938 L 289 135 L 713 938 L 791 938 L 905 131 L 1286 938 L 1376 938 L 920 -2 L 846 -2 L 731 811 L 295 -2 Z" unicode="w" />
<glyph horiz-adv-x="768" d="M 659 0 L 569 0 L 375 428 L 12 0 L -84 0 L 336 487 L 125 938 L 215 938 L 391 535 L 717 938 L 813 938 L 428 475 L 659 0 Z" unicode="x" />
<glyph horiz-adv-x="829" d="M -164 -354 C -149 -364 -134 -373 -118 -381 C -102 -389 -83 -393 -61 -393 C -37 -393 -7 -380 28 -356 C 64 -332 110 -274 164 -182 L 281 20 L 102 938 L 188 938 L 342 115 L 817 938 L 911 938 L 346 -18 L 225 -223 C 165 -326 111 -393 65 -424 C 19 -455 -24 -471 -66 -471 C -96 -471 -122 -466 -145 -456 C -168 -446 -189 -435 -209 -422 L -164 -354 Z" unicode="y" />
<glyph horiz-adv-x="766" d="M 621 0 L -53 0 L -41 57 L 684 864 L 135 864 L 150 938 L 805 938 L 793 881 L 68 74 L 635 74 L 621 0 Z" unicode="z" />
<glyph horiz-adv-x="1024" d="M 813 -469 C 675 -459 569 -437 494 -402 C 418 -367 381 -307 381 -223 C 381 -136 399 -58 436 10 C 473 79 492 147 492 213 C 492 281 472 330 432 361 C 392 392 321 412 219 422 L 213 475 L 219 528 C 321 536 392 556 432 586 C 472 616 492 665 492 735 C 492 802 473 870 436 939 C 399 1008 381 1085 381 1171 C 381 1255 418 1315 494 1351 C 569 1387 675 1409 813 1417 L 813 1348 C 685 1337 596 1319 544 1293 C 492 1267 467 1230 467 1182 C 467 1116 485 1043 522 961 C 559 879 578 808 578 748 C 578 684 555 624 511 568 C 467 512 393 481 289 475 L 289 473 C 393 467 467 436 511 380 C 555 324 578 263 578 199 C 578 137 559 66 522 -13 C 485 -93 467 -165 467 -227 C 467 -279 492 -318 544 -344 C 596 -370 685 -389 813 -399 L 813 -469 Z" unicode="{" />
<glyph horiz-adv-x="512" d="M 213 -408 L 213 1438 L 299 1438 L 299 -408 L 213 -408 Z" unicode="|" />
<glyph horiz-adv-x="1024" d="M 809 471 L 805 418 C 703 410 631 390 591 360 C 550 330 530 280 530 211 C 530 143 548 75 586 6 C 624 -62 643 -139 643 -225 C 643 -309 605 -369 529 -405 C 453 -441 346 -463 209 -471 L 209 -401 C 337 -391 427 -373 479 -347 C 531 -321 557 -284 557 -236 C 557 -170 538 -97 501 -15 C 464 66 446 137 446 199 C 446 261 468 321 512 377 C 556 433 631 465 735 471 L 735 473 C 631 479 556 510 512 566 C 468 622 446 682 446 748 C 446 808 464 879 501 960 C 538 1040 557 1112 557 1176 C 557 1226 531 1265 479 1291 C 427 1317 337 1335 209 1346 L 209 1415 C 346 1405 453 1383 529 1348 C 605 1313 643 1253 643 1169 C 643 1082 624 1004 586 936 C 548 867 530 799 530 733 C 530 663 550 613 591 583 C 631 553 703 533 805 524 L 809 471 Z" unicode="}" />
<glyph horiz-adv-x="1024" d="M 838 571 C 815 499 787 445 754 410 C 720 375 683 358 641 358 C 587 358 536 383 488 434 C 440 484 398 510 360 510 C 338 510 318 501 300 483 C 282 465 259 427 233 369 L 176 369 C 198 441 226 494 260 529 C 293 564 331 582 373 582 C 427 582 478 556 527 506 C 575 455 617 430 653 430 C 674 430 694 439 712 457 C 730 475 752 513 778 571 L 838 571 Z" unicode="~" />
<glyph horiz-adv-x="244" d="" unicode=" " />
<glyph horiz-adv-x="498" d="M 318 1223 C 318 1243 325 1260 339 1276 C 353 1292 370 1299 392 1299 C 413 1299 430 1292 444 1276 C 457 1260 464 1243 464 1223 C 464 1203 457 1186 444 1171 C 430 1156 413 1149 392 1149 C 370 1149 353 1156 339 1171 C 325 1186 318 1203 318 1223 Z M 355 915 L 197 -48 L 95 -38 L 308 920 L 355 915 Z" unicode="¡" />
<glyph horiz-adv-x="1024" d="M 801 938 C 834 928 865 916 894 900 C 922 884 948 868 971 850 L 936 778 C 915 795 891 811 864 826 C 837 840 808 852 776 862 C 776 863 732 730 644 463 C 556 196 512 62 512 61 C 522 60 532 59 542 58 C 552 57 563 57 573 57 C 614 57 655 62 695 73 C 735 84 773 98 807 115 L 813 37 C 779 20 741 6 697 -4 C 653 -14 611 -20 569 -20 C 555 -20 541 -19 527 -18 C 513 -17 500 -15 487 -12 L 410 -252 L 340 -252 C 340 -252 354 -209 382 -124 C 410 -38 424 3 424 2 C 344 31 281 81 233 153 C 185 225 162 308 162 403 C 162 547 210 676 306 789 C 402 901 521 958 664 958 C 676 958 688 957 700 956 C 712 955 723 954 735 952 L 801 1149 L 870 1149 C 870 1149 858 1114 835 1044 C 812 974 801 939 801 938 Z M 711 877 C 701 877 692 878 683 879 C 673 880 663 881 653 881 C 536 881 440 832 365 735 C 289 637 252 530 252 414 C 252 334 269 264 303 205 C 337 146 385 104 449 80 L 711 877 Z" unicode="¢" />
<glyph horiz-adv-x="1024" d="M 319 649 C 324 696 330 743 338 789 C 345 835 353 882 362 928 C 384 1036 425 1127 483 1201 C 541 1275 630 1313 750 1313 C 806 1313 858 1305 907 1290 C 956 1274 1003 1252 1049 1223 L 1016 1149 C 975 1176 932 1197 888 1213 C 844 1229 797 1237 748 1237 C 654 1237 585 1207 540 1147 C 495 1087 465 1017 449 936 C 439 889 431 841 424 793 C 416 745 409 697 403 649 L 799 649 L 791 573 L 393 573 C 388 529 382 485 376 441 C 369 397 361 353 352 311 C 348 293 343 275 339 258 C 335 240 330 225 324 211 C 361 168 408 130 466 96 C 524 62 579 45 633 45 C 700 45 752 67 788 111 C 824 155 854 206 877 262 L 936 244 C 912 169 876 105 828 51 C 780 -2 713 -29 629 -29 C 564 -29 503 -11 445 22 C 387 56 337 98 293 147 C 262 95 221 56 169 29 C 117 1 51 -19 -29 -35 L -35 37 C 51 55 119 83 168 121 C 216 159 250 222 268 311 C 277 353 285 397 292 441 C 298 485 304 529 309 573 L 125 573 L 121 649 L 319 649 Z" unicode="£" />
<glyph horiz-adv-x="879" d="M 831 1026 L 717 911 C 734 887 747 859 756 829 C 765 799 770 767 770 735 C 770 702 765 671 755 641 C 745 611 732 583 715 559 L 842 432 L 784 375 L 659 500 C 635 481 609 467 579 457 C 549 447 517 442 481 442 C 445 442 413 447 383 457 C 353 467 326 480 303 498 L 188 383 L 133 438 L 248 553 C 229 578 215 606 205 638 C 195 669 190 701 190 735 C 190 767 194 799 204 830 C 213 861 227 889 246 913 L 127 1032 L 184 1090 L 303 971 C 326 989 353 1003 383 1013 C 413 1023 445 1028 481 1028 C 517 1028 550 1022 581 1012 C 612 1001 640 987 664 969 L 776 1081 L 831 1026 Z M 698 735 C 698 795 678 847 640 891 C 601 935 548 958 481 958 C 413 958 359 935 320 891 C 281 847 262 795 262 735 C 262 676 281 624 320 579 C 359 534 413 512 481 512 C 548 512 601 534 640 579 C 678 624 698 676 698 735 Z" unicode="¤" />
<glyph horiz-adv-x="1024" d="M 465 543 L 113 543 L 109 616 L 440 616 L 158 1280 L 246 1280 L 518 612 L 1040 1280 L 1139 1280 C 1139 1280 1049 1169 871 948 C 693 726 603 616 602 616 L 922 616 L 913 543 L 551 543 L 510 342 L 860 342 L 864 268 L 496 268 L 444 0 L 358 0 L 410 268 L 51 268 L 59 342 L 424 342 L 465 543 Z" unicode="¥" />
<glyph horiz-adv-x="512" d="M 213 -285 L 213 401 L 299 401 L 299 -285 L 213 -285 Z M 213 629 L 213 1315 L 299 1315 L 299 629 L 213 629 Z" unicode="¦" />
<glyph horiz-adv-x="1024" d="M 975 573 C 975 489 938 425 864 380 C 790 335 718 308 647 299 C 675 279 699 254 717 224 C 735 194 745 161 745 127 C 745 41 710 -23 640 -68 C 570 -112 496 -135 418 -135 C 364 -135 307 -124 248 -103 C 188 -82 138 -54 96 -18 L 137 49 C 177 15 221 -11 269 -33 C 317 -55 368 -66 420 -66 C 472 -66 527 -51 583 -22 C 639 6 668 52 668 115 C 668 173 642 218 592 249 C 541 280 475 313 395 348 C 321 380 254 416 193 456 C 132 496 102 549 102 616 C 102 700 138 764 212 809 C 286 854 358 881 430 891 C 401 910 377 935 359 965 C 341 995 332 1028 332 1063 C 332 1148 363 1211 425 1253 C 487 1294 555 1315 631 1315 C 685 1315 739 1306 791 1288 C 843 1270 892 1246 938 1217 L 897 1149 C 855 1176 812 1199 768 1217 C 724 1235 677 1245 627 1245 C 577 1245 529 1232 481 1206 C 433 1180 410 1137 410 1075 C 410 1016 435 971 485 940 C 535 909 601 876 682 842 C 755 810 822 774 883 734 C 944 694 975 640 975 573 Z M 897 563 C 897 624 864 672 800 706 C 736 740 681 766 635 786 C 610 796 586 807 562 817 C 538 827 515 838 492 850 C 438 838 372 816 295 782 C 218 748 180 697 180 627 C 180 565 212 517 277 483 C 341 449 396 422 442 403 C 466 393 491 383 515 373 C 539 363 562 352 586 340 C 640 351 705 373 782 407 C 858 441 897 493 897 563 Z" unicode="§" />
<glyph horiz-adv-x="737" d="M 442 1227 C 442 1207 435 1190 422 1174 C 409 1158 392 1151 371 1151 C 349 1151 332 1158 320 1174 C 307 1190 301 1207 301 1227 C 301 1245 307 1261 320 1276 C 332 1290 349 1298 371 1298 C 392 1298 409 1290 422 1276 C 435 1261 442 1245 442 1227 Z M 813 1227 C 813 1207 806 1190 793 1174 C 780 1158 763 1151 743 1151 C 721 1151 704 1158 690 1174 C 676 1190 670 1207 670 1227 C 670 1245 676 1261 690 1276 C 704 1290 721 1298 743 1298 C 763 1298 780 1290 793 1276 C 806 1261 813 1245 813 1227 Z" unicode="¨" />
<glyph horiz-adv-x="1497" d="M 1040 954 L 1014 883 C 985 901 954 915 921 925 C 887 935 853 940 817 940 C 738 940 673 913 623 860 C 572 807 547 733 547 637 C 547 545 571 471 621 416 C 670 361 735 334 817 334 C 855 334 892 340 928 352 C 964 364 994 379 1020 399 L 1034 319 C 1008 301 975 286 936 276 C 897 265 857 260 815 260 C 710 260 625 294 560 362 C 495 430 463 521 463 635 C 463 749 496 840 562 910 C 628 979 713 1014 817 1014 C 859 1014 901 1008 941 997 C 981 985 1014 971 1040 954 Z M 793 -33 C 608 -33 450 32 319 164 C 188 296 123 453 123 637 C 123 821 188 979 319 1111 C 450 1243 608 1309 793 1309 C 977 1309 1134 1243 1265 1111 C 1396 979 1462 821 1462 637 C 1462 453 1396 296 1265 164 C 1134 32 977 -33 793 -33 Z M 1407 639 C 1407 806 1346 950 1226 1072 C 1106 1194 961 1255 793 1255 C 624 1255 480 1194 360 1072 C 240 950 180 806 180 639 C 180 471 240 327 360 206 C 480 85 624 25 793 25 C 961 25 1106 85 1226 206 C 1346 327 1407 471 1407 639 Z" unicode="©" />
<glyph horiz-adv-x="666" d="M 641 526 L 571 518 C 560 529 551 545 544 566 C 536 586 533 610 535 637 L 532 637 C 508 612 472 586 424 559 C 376 531 329 518 285 518 C 225 518 178 537 144 575 C 109 613 92 654 92 700 C 92 784 132 852 213 902 C 294 952 420 975 592 971 L 602 1020 C 616 1088 611 1141 585 1180 C 559 1219 511 1239 440 1239 C 399 1239 359 1231 319 1215 C 279 1199 244 1182 213 1165 L 195 1225 C 227 1243 265 1260 311 1276 C 357 1292 403 1300 451 1300 C 528 1300 589 1278 633 1234 C 677 1190 690 1118 670 1018 L 606 705 C 598 663 598 627 607 598 C 615 569 627 545 641 526 Z M 537 692 L 582 920 C 420 920 309 898 249 855 C 188 812 158 763 158 709 C 158 671 172 640 200 618 C 228 595 262 584 301 584 C 341 584 383 595 425 619 C 467 642 505 666 537 692 Z" unicode="ª" />
<glyph horiz-adv-x="1165" d="M 487 109 L 453 55 L 61 442 L 76 516 L 616 899 L 602 809 L 137 475 L 137 473 L 487 109 Z M 1012 109 L 977 55 L 586 442 L 600 516 L 1141 899 L 1126 809 L 662 475 L 662 473 L 1012 109 Z" unicode="«" />
<glyph horiz-adv-x="1024" d="M 926 623 L 926 199 L 844 199 L 844 545 L 98 545 L 104 623 L 926 623 Z" unicode="¬" />
<glyph horiz-adv-x="561" d="M 494 459 L 74 459 L 74 537 L 494 537 L 494 459 Z" unicode="­" />
<glyph horiz-adv-x="1497" d="M 645 553 L 645 283 L 567 283 L 567 1008 L 772 1008 C 864 1008 932 988 978 948 C 1024 908 1047 855 1047 788 C 1047 735 1032 691 1004 657 C 975 623 939 598 897 582 L 1085 283 L 993 283 L 819 563 L 645 553 Z M 793 -33 C 608 -33 450 32 319 164 C 188 296 123 453 123 637 C 123 821 188 979 319 1111 C 450 1243 608 1309 793 1309 C 977 1309 1134 1243 1265 1111 C 1396 979 1462 821 1462 637 C 1462 453 1396 296 1265 164 C 1134 32 977 -33 793 -33 Z M 1407 639 C 1407 806 1346 950 1226 1072 C 1106 1194 961 1255 793 1255 C 624 1255 480 1194 360 1072 C 240 950 180 806 180 639 C 180 471 240 327 360 206 C 480 85 624 25 793 25 C 961 25 1106 85 1226 206 C 1346 327 1407 471 1407 639 Z M 643 621 L 776 627 C 836 629 883 643 918 671 C 953 699 971 736 971 784 C 971 835 954 873 920 899 C 886 925 835 938 766 938 L 643 938 L 643 621 Z" unicode="®" />
<glyph horiz-adv-x="819" d="M 776 1092 L 295 1092 L 315 1169 L 784 1169 L 776 1092 Z" unicode="¯" />
<glyph horiz-adv-x="1024" d="M 891 1073 C 891 992 862 923 806 865 C 750 807 681 778 600 778 C 530 778 472 799 425 841 C 377 883 354 940 354 1012 C 354 1090 382 1158 438 1218 C 494 1277 562 1307 643 1307 C 712 1307 771 1286 819 1244 C 867 1202 891 1145 891 1073 Z M 827 1065 C 827 1121 808 1165 772 1197 C 736 1229 691 1245 637 1245 C 575 1245 523 1222 481 1177 C 439 1132 418 1079 418 1018 C 418 962 436 919 472 887 C 508 855 554 840 608 840 C 669 840 721 862 763 906 C 805 950 827 1003 827 1065 Z" unicode="°" />
<glyph horiz-adv-x="1024" d="M 926 483 L 555 483 L 555 170 L 473 170 L 473 483 L 98 483 L 104 561 L 473 561 L 473 903 L 555 903 L 555 561 L 920 561 L 926 483 Z M 928 55 L 98 55 L 104 129 L 922 129 L 928 55 Z" unicode="±" />
<glyph horiz-adv-x="676" d="M 547 559 L 12 559 L 20 637 C 181 758 309 853 403 923 C 497 993 545 1067 545 1147 C 545 1191 528 1224 494 1247 C 460 1270 421 1282 377 1282 C 341 1282 304 1275 268 1261 C 231 1247 199 1230 172 1210 L 152 1272 C 185 1295 222 1313 263 1327 C 304 1341 345 1348 385 1348 C 448 1348 504 1331 554 1297 C 604 1263 629 1215 629 1153 C 629 1061 582 980 490 912 C 398 844 271 749 109 627 L 555 627 L 547 559 Z" unicode="²" />
<glyph horiz-adv-x="676" d="M 375 963 C 433 956 483 938 524 908 C 565 878 586 836 586 780 C 586 712 556 656 496 612 C 436 568 366 547 287 547 C 247 547 203 552 157 564 C 110 576 72 592 43 612 L 72 678 C 101 658 135 642 174 629 C 212 616 250 610 287 610 C 345 610 395 624 438 652 C 480 680 502 721 502 774 C 502 825 481 862 440 886 C 399 910 349 922 289 922 C 274 922 260 921 247 920 C 233 919 221 918 209 918 L 219 977 C 281 985 351 1001 429 1027 C 507 1053 547 1097 547 1161 C 547 1203 531 1234 499 1253 C 467 1272 429 1282 387 1282 C 351 1282 316 1276 280 1264 C 244 1252 212 1238 184 1223 L 162 1282 C 192 1300 228 1316 268 1329 C 308 1341 350 1348 395 1348 C 453 1348 506 1334 554 1306 C 602 1278 627 1234 627 1174 C 627 1113 600 1066 548 1032 C 496 998 438 975 375 963 Z" unicode="³" />
<glyph horiz-adv-x="817" d="M 858 1417 L 463 1055 L 393 1055 L 733 1417 L 858 1417 Z" unicode="´" />
<glyph horiz-adv-x="1024" d="M 240 938 L 240 303 C 240 216 270 153 330 115 C 390 76 452 57 518 57 C 571 57 629 74 691 109 C 753 144 784 208 784 301 L 784 938 L 868 938 L 868 0 L 784 0 L 784 129 C 750 73 708 35 658 13 C 608 -9 560 -20 516 -20 C 471 -20 425 -11 377 4 C 329 20 283 61 240 127 L 240 -477 L 156 -477 L 156 938 L 240 938 Z" unicode="µ" />
<glyph horiz-adv-x="1024" d="M 766 532 C 752 529 728 527 694 526 C 660 524 642 524 641 524 C 494 524 378 556 293 620 C 208 684 166 765 166 864 C 166 1002 217 1106 321 1175 C 424 1243 538 1278 664 1278 L 993 1278 L 717 -131 L 635 -131 L 766 532 Z" unicode="¶" />
<glyph horiz-adv-x="512" d="M 340 469 C 340 448 333 430 319 414 C 305 398 287 391 266 391 C 244 391 227 398 214 414 C 201 430 195 448 195 469 C 195 488 201 505 214 520 C 227 535 244 543 266 543 C 287 543 305 535 319 520 C 333 505 340 488 340 469 Z" unicode="·" />
<glyph horiz-adv-x="819" d="M 270 -133 C 331 -135 383 -150 427 -178 C 470 -206 492 -246 492 -299 C 492 -358 460 -410 397 -455 C 333 -500 244 -521 129 -518 L 131 -455 C 221 -457 291 -444 341 -418 C 391 -392 416 -355 416 -307 C 416 -260 390 -228 338 -211 C 286 -194 221 -190 143 -199 L 143 -166 L 401 41 L 483 41 L 270 -133 Z" unicode="¸" />
<glyph horiz-adv-x="676" d="M 358 559 L 283 559 L 428 1253 L 233 1212 L 244 1280 L 522 1339 L 358 559 Z" unicode="¹" />
<glyph horiz-adv-x="874" d="M 899 958 C 899 842 859 739 781 650 C 703 560 603 516 483 516 C 385 516 305 547 243 611 C 181 675 150 756 150 854 C 150 970 188 1072 266 1162 C 343 1251 441 1296 561 1296 C 659 1296 740 1264 804 1201 C 867 1138 899 1057 899 958 Z M 829 958 C 829 1038 804 1105 756 1159 C 707 1212 641 1239 559 1239 C 456 1239 373 1199 311 1121 C 248 1042 217 954 217 858 C 217 776 241 709 291 655 C 341 601 408 575 492 575 C 593 575 674 615 736 695 C 798 775 829 862 829 958 Z" unicode="º" />
<glyph horiz-adv-x="1165" d="M 567 440 L 27 57 L 41 147 L 506 481 L 506 483 L 156 848 L 190 901 L 582 514 L 567 440 Z M 1092 440 L 551 57 L 565 147 L 1030 481 L 1030 483 L 680 848 L 715 901 L 1106 514 L 1092 440 Z" unicode="»" />
<glyph horiz-adv-x="1464" d="M 1384 -94 L 1253 -94 L 1210 -297 L 1135 -297 L 1180 -94 L 780 -94 L 776 -39 L 1292 487 L 1376 487 L 1268 -31 L 1395 -31 L 1384 -94 Z M 399 559 L 324 559 L 469 1253 L 274 1212 L 285 1280 L 563 1339 L 399 559 Z M 1491 1280 L 86 -238 L -6 -238 L 1399 1280 L 1491 1280 Z M 1192 -31 L 1284 397 L 866 -31 L 1192 -31 Z" unicode="¼" />
<glyph horiz-adv-x="1464" d="M 1294 -293 L 760 -293 L 768 -215 C 928 -93 1056 1 1150 71 C 1244 141 1292 215 1292 295 C 1292 339 1275 372 1241 395 C 1207 418 1168 430 1124 430 C 1088 430 1052 423 1016 409 C 979 395 947 378 920 358 L 899 420 C 933 443 970 461 1011 475 C 1052 489 1093 496 1133 496 C 1195 496 1251 479 1301 445 C 1351 411 1376 363 1376 301 C 1376 209 1329 129 1237 61 C 1145 -7 1018 -103 856 -225 L 1303 -225 L 1294 -293 Z M 399 559 L 324 559 L 469 1253 L 274 1212 L 285 1280 L 563 1339 L 399 559 Z M 1491 1280 L 86 -238 L -6 -238 L 1399 1280 L 1491 1280 Z" unicode="½" />
<glyph horiz-adv-x="1464" d="M 416 963 C 474 956 524 938 565 908 C 606 878 627 836 627 780 C 627 712 597 656 537 612 C 477 568 407 547 328 547 C 288 547 244 552 198 564 C 151 576 113 592 84 612 L 113 678 C 142 658 176 642 215 629 C 253 616 291 610 328 610 C 386 610 436 624 479 652 C 521 680 543 721 543 774 C 543 825 522 862 481 886 C 440 910 390 922 330 922 C 315 922 301 921 288 920 C 274 919 262 918 250 918 L 260 977 C 322 985 392 1001 470 1027 C 548 1053 588 1097 588 1161 C 588 1203 572 1234 540 1253 C 508 1272 470 1282 428 1282 C 392 1282 357 1276 321 1264 C 285 1252 253 1238 225 1223 L 203 1282 C 233 1300 269 1316 309 1329 C 349 1341 391 1348 436 1348 C 494 1348 547 1334 595 1306 C 643 1278 668 1234 668 1174 C 668 1113 641 1066 589 1032 C 537 998 479 975 416 963 Z M 1384 -94 L 1253 -94 L 1210 -297 L 1135 -297 L 1180 -94 L 780 -94 L 776 -39 L 1292 487 L 1376 487 L 1268 -31 L 1395 -31 L 1384 -94 Z M 1491 1280 L 86 -238 L -6 -238 L 1399 1280 L 1491 1280 Z M 1192 -31 L 1284 397 L 866 -31 L 1192 -31 Z" unicode="¾" />
<glyph horiz-adv-x="700" d="M 58 291 C 58 379 85 445 140 489 C 194 533 258 567 332 592 C 402 615 453 638 483 661 C 513 684 529 714 529 750 C 529 776 519 802 499 828 C 479 854 455 881 425 907 C 425 907 434 909 453 914 C 472 919 482 922 484 922 C 513 899 540 872 566 842 C 592 811 605 777 605 739 C 605 687 584 644 542 611 C 500 577 441 548 367 524 C 293 500 237 471 198 437 C 159 403 140 355 140 291 C 140 215 166 156 220 113 C 273 70 336 49 410 49 C 436 49 458 49 476 51 C 494 53 509 55 523 57 L 509 -19 C 495 -22 480 -24 463 -26 C 445 -28 426 -28 406 -28 C 294 -28 208 4 148 71 C 88 138 58 211 58 291 Z M 484 1223 C 484 1243 491 1260 505 1276 C 519 1292 536 1299 558 1299 C 579 1299 596 1292 609 1276 C 622 1260 629 1243 629 1223 C 629 1203 622 1186 609 1171 C 596 1156 579 1149 558 1149 C 536 1149 519 1156 505 1171 C 491 1186 484 1203 484 1223 Z" unicode="¿" />
<glyph horiz-adv-x="1180" d="M 805 1280 L 1038 0 L 956 0 L 889 379 L 268 379 L 55 0 L -39 0 L 698 1280 L 805 1280 Z M 872 457 L 741 1202 L 313 457 L 872 457 Z M 774 1397 L 717 1397 L 465 1759 L 577 1759 L 774 1397 Z" unicode="À" />
<glyph horiz-adv-x="1180" d="M 805 1280 L 1038 0 L 956 0 L 889 379 L 268 379 L 55 0 L -39 0 L 698 1280 L 805 1280 Z M 872 457 L 741 1202 L 313 457 L 872 457 Z M 1185 1759 L 790 1397 L 720 1397 L 1060 1759 L 1185 1759 Z" unicode="Á" />
<glyph horiz-adv-x="1180" d="M 805 1280 L 1038 0 L 956 0 L 889 379 L 268 379 L 55 0 L -39 0 L 698 1280 L 805 1280 Z M 872 457 L 741 1202 L 313 457 L 872 457 Z M 1034 1397 L 972 1397 L 819 1692 L 815 1692 L 546 1397 L 473 1397 L 774 1759 L 876 1759 L 1034 1397 Z" unicode="Â" />
<glyph horiz-adv-x="1180" d="M 805 1280 L 1038 0 L 956 0 L 889 379 L 268 379 L 55 0 L -39 0 L 698 1280 L 805 1280 Z M 872 457 L 741 1202 L 313 457 L 872 457 Z M 1128 1620 C 1105 1547 1077 1493 1044 1459 C 1010 1424 973 1407 931 1407 C 877 1407 826 1432 778 1483 C 730 1533 688 1559 650 1559 C 628 1559 608 1549 590 1531 C 572 1513 549 1475 523 1417 L 466 1417 C 488 1489 516 1543 550 1578 C 583 1612 621 1630 663 1630 C 717 1630 768 1604 817 1554 C 865 1504 907 1479 943 1479 C 964 1479 984 1488 1002 1506 C 1020 1524 1042 1562 1068 1620 L 1128 1620 Z" unicode="Ã" />
<glyph horiz-adv-x="1180" d="M 805 1280 L 1038 0 L 956 0 L 889 379 L 268 379 L 55 0 L -39 0 L 698 1280 L 805 1280 Z M 872 457 L 741 1202 L 313 457 L 872 457 Z M 681 1569 C 681 1549 674 1532 661 1516 C 648 1500 631 1493 610 1493 C 588 1493 571 1500 559 1516 C 546 1532 540 1549 540 1569 C 540 1587 546 1603 559 1618 C 571 1632 588 1640 610 1640 C 631 1640 648 1632 661 1618 C 674 1603 681 1587 681 1569 Z M 1052 1569 C 1052 1549 1045 1532 1032 1516 C 1019 1500 1002 1493 982 1493 C 960 1493 943 1500 929 1516 C 915 1532 909 1549 909 1569 C 909 1587 915 1603 929 1618 C 943 1632 960 1640 982 1640 C 1002 1640 1019 1632 1032 1618 C 1045 1603 1052 1587 1052 1569 Z" unicode="Ä" />
<glyph horiz-adv-x="1180" d="M 674 1237 C 635 1253 604 1278 582 1311 C 560 1343 549 1379 549 1417 C 549 1471 569 1518 611 1558 C 653 1598 708 1618 778 1618 C 848 1618 903 1598 945 1558 C 987 1518 1008 1471 1008 1417 C 1008 1367 990 1324 956 1287 C 922 1249 875 1227 815 1221 L 1038 0 L 956 0 L 889 379 L 268 379 L 55 0 L -39 0 L 674 1237 Z M 936 1413 C 936 1451 921 1484 893 1514 C 864 1544 826 1559 778 1559 C 732 1559 694 1545 665 1518 C 635 1490 621 1457 621 1419 C 621 1381 635 1348 665 1320 C 694 1292 732 1278 778 1278 C 826 1278 864 1291 893 1317 C 921 1343 936 1375 936 1413 Z M 872 457 L 741 1204 L 313 457 L 872 457 Z" unicode="Å" />
<glyph horiz-adv-x="1645" d="M 309 379 L 16 0 L -76 0 L 911 1280 L 1700 1280 L 1686 1202 L 1038 1202 L 938 680 L 1479 680 L 1462 602 L 922 602 L 819 78 L 1466 78 L 1452 0 L 719 0 L 793 379 L 309 379 Z M 369 457 L 807 457 L 954 1210 L 369 457 Z" unicode="Æ" />
<glyph horiz-adv-x="1169" d="M 588 -16 C 441 1 325 59 241 158 C 157 256 115 381 115 532 C 115 726 176 902 300 1061 C 423 1220 597 1300 821 1300 C 887 1300 954 1292 1021 1278 C 1088 1263 1151 1243 1210 1217 L 1194 1135 C 1146 1157 1087 1177 1017 1195 C 947 1213 881 1223 817 1223 C 620 1223 468 1151 361 1007 C 254 863 201 707 201 541 C 201 385 245 266 334 182 C 422 98 539 57 684 57 C 737 57 790 63 843 76 C 896 89 946 107 993 131 L 1010 51 C 960 27 906 10 846 -2 C 786 -14 730 -20 676 -20 L 666 -20 L 528 -133 C 589 -135 641 -150 685 -178 C 728 -206 750 -246 750 -299 C 750 -358 718 -410 655 -455 C 591 -500 502 -521 387 -518 L 389 -455 C 479 -457 549 -444 599 -418 C 649 -392 674 -355 674 -307 C 674 -260 648 -228 596 -211 C 544 -194 479 -190 401 -199 L 401 -166 L 588 -16 Z" unicode="Ç" />
<glyph horiz-adv-x="1004" d="M 811 0 L 78 0 L 328 1280 L 1061 1280 L 1044 1202 L 397 1202 L 297 678 L 838 678 L 823 602 L 283 602 L 180 78 L 827 78 L 811 0 Z M 716 1397 L 659 1397 L 407 1759 L 519 1759 L 716 1397 Z" unicode="È" />
<glyph horiz-adv-x="1004" d="M 811 0 L 78 0 L 328 1280 L 1061 1280 L 1044 1202 L 397 1202 L 297 678 L 838 678 L 823 602 L 283 602 L 180 78 L 827 78 L 811 0 Z M 1087 1759 L 692 1397 L 622 1397 L 962 1759 L 1087 1759 Z" unicode="É" />
<glyph horiz-adv-x="1004" d="M 811 0 L 78 0 L 328 1280 L 1061 1280 L 1044 1202 L 397 1202 L 297 678 L 838 678 L 823 602 L 283 602 L 180 78 L 827 78 L 811 0 Z M 987 1397 L 925 1397 L 772 1692 L 768 1692 L 499 1397 L 426 1397 L 727 1759 L 829 1759 L 987 1397 Z" unicode="Ê" />
<glyph horiz-adv-x="1004" d="M 811 0 L 78 0 L 328 1280 L 1061 1280 L 1044 1202 L 397 1202 L 297 678 L 838 678 L 823 602 L 283 602 L 180 78 L 827 78 L 811 0 Z M 595 1569 C 595 1549 588 1532 575 1516 C 562 1500 545 1493 524 1493 C 502 1493 485 1500 473 1516 C 460 1532 454 1549 454 1569 C 454 1587 460 1603 473 1618 C 485 1632 502 1640 524 1640 C 545 1640 562 1632 575 1618 C 588 1603 595 1587 595 1569 Z M 966 1569 C 966 1549 959 1532 946 1516 C 933 1500 916 1493 896 1493 C 874 1493 857 1500 843 1516 C 829 1532 823 1549 823 1569 C 823 1587 829 1603 843 1618 C 857 1632 874 1640 896 1640 C 916 1640 933 1632 946 1618 C 959 1603 966 1587 966 1569 Z" unicode="Ë" />
<glyph horiz-adv-x="426" d="M 162 0 L 76 0 L 326 1280 L 412 1280 L 162 0 Z M 415 1397 L 358 1397 L 106 1759 L 218 1759 L 415 1397 Z" unicode="Ì" />
<glyph horiz-adv-x="426" d="M 162 0 L 76 0 L 326 1280 L 412 1280 L 162 0 Z M 816 1759 L 421 1397 L 351 1397 L 691 1759 L 816 1759 Z" unicode="Í" />
<glyph horiz-adv-x="426" d="M 162 0 L 76 0 L 326 1280 L 412 1280 L 162 0 Z M 657 1397 L 595 1397 L 442 1692 L 438 1692 L 169 1397 L 96 1397 L 397 1759 L 499 1759 L 657 1397 Z" unicode="Î" />
<glyph horiz-adv-x="426" d="M 162 0 L 76 0 L 326 1280 L 412 1280 L 162 0 Z M 304 1569 C 304 1549 297 1532 284 1516 C 271 1500 254 1493 233 1493 C 211 1493 194 1500 182 1516 C 169 1532 163 1549 163 1569 C 163 1587 169 1603 182 1618 C 194 1632 211 1640 233 1640 C 254 1640 271 1632 284 1618 C 297 1603 304 1587 304 1569 Z M 675 1569 C 675 1549 668 1532 655 1516 C 642 1500 625 1493 605 1493 C 583 1493 566 1500 552 1516 C 538 1532 532 1549 532 1569 C 532 1587 538 1603 552 1618 C 566 1632 583 1640 605 1640 C 625 1640 642 1632 655 1618 C 668 1603 675 1587 675 1569 Z" unicode="Ï" />
<glyph horiz-adv-x="1292" d="M 236 604 L 66 604 L 66 680 L 250 680 L 367 1280 L 608 1280 C 780 1280 924 1232 1039 1138 C 1154 1043 1212 908 1212 733 C 1212 532 1145 360 1013 216 C 880 72 688 0 438 0 L 119 0 L 236 604 Z M 338 680 L 717 680 L 717 604 L 324 604 L 221 78 L 446 78 C 634 78 793 131 924 239 C 1054 347 1120 507 1120 719 C 1120 871 1072 989 976 1074 C 880 1159 752 1202 592 1202 L 438 1202 L 338 680 Z" unicode="Ð" />
<glyph horiz-adv-x="1284" d="M 973 100 L 1200 1280 L 1282 1280 L 1030 -12 L 936 -12 L 385 1178 L 160 0 L 78 0 L 326 1280 L 426 1280 L 973 100 Z M 1178 1620 C 1155 1547 1127 1493 1094 1459 C 1060 1424 1023 1407 981 1407 C 927 1407 876 1432 828 1483 C 780 1533 738 1559 700 1559 C 678 1559 658 1549 640 1531 C 622 1513 599 1475 573 1417 L 516 1417 C 538 1489 566 1543 600 1578 C 633 1612 671 1630 713 1630 C 767 1630 818 1604 867 1554 C 915 1504 957 1479 993 1479 C 1014 1479 1034 1488 1052 1506 C 1070 1524 1092 1562 1118 1620 L 1178 1620 Z" unicode="Ñ" />
<glyph horiz-adv-x="1417" d="M 1378 725 C 1378 531 1312 359 1180 207 C 1048 55 882 -20 682 -20 C 518 -20 383 35 278 147 C 173 258 121 396 121 561 C 121 755 186 927 318 1076 C 450 1225 616 1300 817 1300 C 981 1300 1115 1245 1220 1135 C 1325 1025 1378 889 1378 725 Z M 1292 723 C 1292 865 1246 985 1156 1082 C 1065 1178 948 1227 805 1227 C 628 1227 484 1157 373 1019 C 262 881 207 728 207 561 C 207 419 251 300 341 202 C 430 104 547 55 692 55 C 867 55 1011 124 1123 264 C 1235 404 1292 557 1292 723 Z M 860 1397 L 803 1397 L 551 1759 L 663 1759 L 860 1397 Z" unicode="Ò" />
<glyph horiz-adv-x="1417" d="M 1378 725 C 1378 531 1312 359 1180 207 C 1048 55 882 -20 682 -20 C 518 -20 383 35 278 147 C 173 258 121 396 121 561 C 121 755 186 927 318 1076 C 450 1225 616 1300 817 1300 C 981 1300 1115 1245 1220 1135 C 1325 1025 1378 889 1378 725 Z M 1292 723 C 1292 865 1246 985 1156 1082 C 1065 1178 948 1227 805 1227 C 628 1227 484 1157 373 1019 C 262 881 207 728 207 561 C 207 419 251 300 341 202 C 430 104 547 55 692 55 C 867 55 1011 124 1123 264 C 1235 404 1292 557 1292 723 Z M 1263 1759 L 868 1397 L 798 1397 L 1138 1759 L 1263 1759 Z" unicode="Ó" />
<glyph horiz-adv-x="1417" d="M 1378 725 C 1378 531 1312 359 1180 207 C 1048 55 882 -20 682 -20 C 518 -20 383 35 278 147 C 173 258 121 396 121 561 C 121 755 186 927 318 1076 C 450 1225 616 1300 817 1300 C 981 1300 1115 1245 1220 1135 C 1325 1025 1378 889 1378 725 Z M 1292 723 C 1292 865 1246 985 1156 1082 C 1065 1178 948 1227 805 1227 C 628 1227 484 1157 373 1019 C 262 881 207 728 207 561 C 207 419 251 300 341 202 C 430 104 547 55 692 55 C 867 55 1011 124 1123 264 C 1235 404 1292 557 1292 723 Z M 1132 1397 L 1070 1397 L 917 1692 L 913 1692 L 644 1397 L 571 1397 L 872 1759 L 974 1759 L 1132 1397 Z" unicode="Ô" />
<glyph horiz-adv-x="1417" d="M 1378 725 C 1378 531 1312 359 1180 207 C 1048 55 882 -20 682 -20 C 518 -20 383 35 278 147 C 173 258 121 396 121 561 C 121 755 186 927 318 1076 C 450 1225 616 1300 817 1300 C 981 1300 1115 1245 1220 1135 C 1325 1025 1378 889 1378 725 Z M 1292 723 C 1292 865 1246 985 1156 1082 C 1065 1178 948 1227 805 1227 C 628 1227 484 1157 373 1019 C 262 881 207 728 207 561 C 207 419 251 300 341 202 C 430 104 547 55 692 55 C 867 55 1011 124 1123 264 C 1235 404 1292 557 1292 723 Z M 1206 1620 C 1183 1547 1155 1493 1122 1459 C 1088 1424 1051 1407 1009 1407 C 955 1407 904 1432 856 1483 C 808 1533 766 1559 728 1559 C 706 1559 686 1549 668 1531 C 650 1513 627 1475 601 1417 L 544 1417 C 566 1489 594 1543 628 1578 C 661 1612 699 1630 741 1630 C 795 1630 846 1604 895 1554 C 943 1504 985 1479 1021 1479 C 1042 1479 1062 1488 1080 1506 C 1098 1524 1120 1562 1146 1620 L 1206 1620 Z" unicode="Õ" />
<glyph horiz-adv-x="1417" d="M 1378 725 C 1378 531 1312 359 1180 207 C 1048 55 882 -20 682 -20 C 518 -20 383 35 278 147 C 173 258 121 396 121 561 C 121 755 186 927 318 1076 C 450 1225 616 1300 817 1300 C 981 1300 1115 1245 1220 1135 C 1325 1025 1378 889 1378 725 Z M 1292 723 C 1292 865 1246 985 1156 1082 C 1065 1178 948 1227 805 1227 C 628 1227 484 1157 373 1019 C 262 881 207 728 207 561 C 207 419 251 300 341 202 C 430 104 547 55 692 55 C 867 55 1011 124 1123 264 C 1235 404 1292 557 1292 723 Z M 814 1569 C 814 1549 807 1532 794 1516 C 781 1500 764 1493 743 1493 C 721 1493 704 1500 692 1516 C 679 1532 673 1549 673 1569 C 673 1587 679 1603 692 1618 C 704 1632 721 1640 743 1640 C 764 1640 781 1632 794 1618 C 807 1603 814 1587 814 1569 Z M 1185 1569 C 1185 1549 1178 1532 1165 1516 C 1152 1500 1135 1493 1115 1493 C 1093 1493 1076 1500 1062 1516 C 1048 1532 1042 1549 1042 1569 C 1042 1587 1048 1603 1062 1618 C 1076 1632 1093 1640 1115 1640 C 1135 1640 1152 1632 1165 1618 C 1178 1603 1185 1587 1185 1569 Z" unicode="Ö" />
<glyph horiz-adv-x="1024" d="M 934 109 L 881 55 L 512 424 L 143 55 L 90 109 L 459 477 L 90 846 L 143 899 L 512 530 L 885 903 L 938 850 L 565 477 L 934 109 Z" unicode="×" />
<glyph horiz-adv-x="1417" d="M 1378 729 C 1378 535 1312 362 1182 209 C 1051 56 886 -20 686 -20 C 622 -20 563 -11 508 6 C 452 23 402 47 356 78 C 357 78 330 42 274 -29 C 218 -101 190 -137 190 -137 L 106 -137 L 305 119 C 248 171 203 234 170 310 C 137 385 121 467 121 557 C 121 751 186 924 316 1074 C 446 1224 612 1300 813 1300 C 876 1300 936 1291 992 1275 C 1048 1258 1098 1234 1143 1202 L 1309 1417 L 1393 1417 L 1196 1161 C 1252 1110 1296 1047 1329 973 C 1361 898 1378 817 1378 729 Z M 1094 1139 C 1054 1166 1009 1187 960 1203 C 911 1219 859 1227 805 1227 C 628 1227 484 1157 373 1019 C 262 881 207 728 207 561 C 207 485 220 415 246 351 C 272 286 309 231 356 186 L 1094 1139 Z M 1145 1096 L 408 143 C 446 115 490 94 538 78 C 586 62 637 55 692 55 C 867 55 1011 124 1123 264 C 1235 404 1292 557 1292 723 C 1292 797 1279 867 1253 931 C 1227 995 1191 1050 1145 1096 Z" unicode="Ø" />
<glyph horiz-adv-x="1200" d="M 571 -20 C 435 -20 327 13 247 80 C 167 147 127 232 127 334 C 127 373 130 412 136 452 C 142 491 147 521 152 543 L 297 1280 L 381 1280 L 236 532 C 231 512 226 485 220 452 C 214 418 211 382 211 344 C 211 260 241 191 303 137 C 365 82 456 55 578 55 C 681 55 767 90 837 162 C 907 233 954 330 979 453 L 1139 1280 L 1223 1280 L 1061 436 C 1033 296 978 185 896 103 C 813 21 705 -20 571 -20 Z M 794 1397 L 737 1397 L 485 1759 L 597 1759 L 794 1397 Z" unicode="Ù" />
<glyph horiz-adv-x="1200" d="M 571 -20 C 435 -20 327 13 247 80 C 167 147 127 232 127 334 C 127 373 130 412 136 452 C 142 491 147 521 152 543 L 297 1280 L 381 1280 L 236 532 C 231 512 226 485 220 452 C 214 418 211 382 211 344 C 211 260 241 191 303 137 C 365 82 456 55 578 55 C 681 55 767 90 837 162 C 907 233 954 330 979 453 L 1139 1280 L 1223 1280 L 1061 436 C 1033 296 978 185 896 103 C 813 21 705 -20 571 -20 Z M 1161 1759 L 766 1397 L 696 1397 L 1036 1759 L 1161 1759 Z" unicode="Ú" />
<glyph horiz-adv-x="1200" d="M 571 -20 C 435 -20 327 13 247 80 C 167 147 127 232 127 334 C 127 373 130 412 136 452 C 142 491 147 521 152 543 L 297 1280 L 381 1280 L 236 532 C 231 512 226 485 220 452 C 214 418 211 382 211 344 C 211 260 241 191 303 137 C 365 82 456 55 578 55 C 681 55 767 90 837 162 C 907 233 954 330 979 453 L 1139 1280 L 1223 1280 L 1061 436 C 1033 296 978 185 896 103 C 813 21 705 -20 571 -20 Z M 1048 1397 L 986 1397 L 833 1692 L 829 1692 L 560 1397 L 487 1397 L 788 1759 L 890 1759 L 1048 1397 Z" unicode="Û" />
<glyph horiz-adv-x="1200" d="M 571 -20 C 435 -20 327 13 247 80 C 167 147 127 232 127 334 C 127 373 130 412 136 452 C 142 491 147 521 152 543 L 297 1280 L 381 1280 L 236 532 C 231 512 226 485 220 452 C 214 418 211 382 211 344 C 211 260 241 191 303 137 C 365 82 456 55 578 55 C 681 55 767 90 837 162 C 907 233 954 330 979 453 L 1139 1280 L 1223 1280 L 1061 436 C 1033 296 978 185 896 103 C 813 21 705 -20 571 -20 Z M 685 1569 C 685 1549 678 1532 665 1516 C 652 1500 635 1493 614 1493 C 592 1493 575 1500 563 1516 C 550 1532 544 1549 544 1569 C 544 1587 550 1603 563 1618 C 575 1632 592 1640 614 1640 C 635 1640 652 1632 665 1618 C 678 1603 685 1587 685 1569 Z M 1056 1569 C 1056 1549 1049 1532 1036 1516 C 1023 1500 1006 1493 986 1493 C 964 1493 947 1500 933 1516 C 919 1532 913 1549 913 1569 C 913 1587 919 1603 933 1618 C 947 1632 964 1640 986 1640 C 1006 1640 1023 1632 1036 1618 C 1049 1603 1056 1587 1056 1569 Z" unicode="Ü" />
<glyph horiz-adv-x="1038" d="M 1167 1280 L 573 516 L 473 0 L 387 0 L 487 520 L 186 1280 L 274 1280 L 543 600 L 1063 1280 L 1167 1280 Z M 1070 1759 L 675 1397 L 605 1397 L 945 1759 L 1070 1759 Z" unicode="Ý" />
<glyph horiz-adv-x="1024" d="M 985 702 C 985 558 933 446 830 364 C 726 282 579 242 389 244 L 211 246 L 162 0 L 76 0 L 326 1280 L 412 1280 L 367 1049 L 569 1049 C 709 1049 813 1014 882 946 C 950 877 985 796 985 702 Z M 895 688 C 895 766 866 833 808 888 C 750 943 667 971 557 971 L 352 971 L 225 322 L 403 319 C 560 317 681 349 767 415 C 852 481 895 572 895 688 Z" unicode="Þ" />
<glyph horiz-adv-x="1042" d="M 76 0 L 242 850 L 115 858 L 121 913 L 254 930 L 295 1118 C 319 1226 361 1304 420 1352 C 479 1400 552 1425 639 1425 C 723 1425 793 1398 849 1346 C 904 1294 932 1229 932 1153 C 932 1029 885 947 791 905 C 697 863 651 804 651 729 C 651 645 702 573 804 513 C 906 452 958 367 958 258 C 958 172 929 105 872 55 C 815 5 739 -20 645 -20 C 579 -20 517 -8 459 14 C 401 37 356 62 324 90 L 365 162 C 406 129 448 102 492 82 C 535 61 587 51 647 51 C 711 51 763 69 804 106 C 845 143 866 194 866 258 C 866 356 816 431 718 484 C 620 536 571 615 571 721 C 571 827 617 897 709 931 C 801 965 848 1035 848 1141 C 848 1201 829 1252 791 1292 C 753 1332 702 1352 639 1352 C 569 1352 512 1332 468 1294 C 424 1256 394 1198 379 1122 L 160 0 L 76 0 Z" unicode="ß" />
<glyph horiz-adv-x="874" d="M 672 547 L 684 606 C 701 687 691 753 653 805 C 615 857 553 883 467 883 C 417 883 367 873 317 855 C 267 837 224 817 186 795 L 168 868 C 208 892 254 913 307 931 C 359 949 415 958 473 958 C 569 958 648 929 710 871 C 772 813 790 725 766 606 L 674 145 C 668 117 670 94 678 75 C 686 55 712 46 754 47 L 745 -16 C 690 -18 652 -7 630 15 C 608 38 598 71 598 115 L 596 115 C 561 76 517 44 464 18 C 411 -7 357 -20 301 -20 C 221 -20 157 6 107 58 C 57 110 33 169 33 233 C 33 340 84 419 188 470 C 291 521 452 547 672 547 Z M 600 193 L 659 477 C 460 478 320 457 239 414 C 157 370 117 313 117 242 C 117 192 134 148 169 110 C 204 72 254 53 319 53 C 372 53 423 66 473 93 C 523 120 565 153 600 193 Z M 565 1055 L 508 1055 L 256 1417 L 368 1417 L 565 1055 Z" unicode="à" />
<glyph horiz-adv-x="874" d="M 672 547 L 684 606 C 701 687 691 753 653 805 C 615 857 553 883 467 883 C 417 883 367 873 317 855 C 267 837 224 817 186 795 L 168 868 C 208 892 254 913 307 931 C 359 949 415 958 473 958 C 569 958 648 929 710 871 C 772 813 790 725 766 606 L 674 145 C 668 117 670 94 678 75 C 686 55 712 46 754 47 L 745 -16 C 690 -18 652 -7 630 15 C 608 38 598 71 598 115 L 596 115 C 561 76 517 44 464 18 C 411 -7 357 -20 301 -20 C 221 -20 157 6 107 58 C 57 110 33 169 33 233 C 33 340 84 419 188 470 C 291 521 452 547 672 547 Z M 600 193 L 659 477 C 460 478 320 457 239 414 C 157 370 117 313 117 242 C 117 192 134 148 169 110 C 204 72 254 53 319 53 C 372 53 423 66 473 93 C 523 120 565 153 600 193 Z M 892 1417 L 497 1055 L 427 1055 L 767 1417 L 892 1417 Z" unicode="á" />
<glyph horiz-adv-x="874" d="M 672 547 L 684 606 C 701 687 691 753 653 805 C 615 857 553 883 467 883 C 417 883 367 873 317 855 C 267 837 224 817 186 795 L 168 868 C 208 892 254 913 307 931 C 359 949 415 958 473 958 C 569 958 648 929 710 871 C 772 813 790 725 766 606 L 674 145 C 668 117 670 94 678 75 C 686 55 712 46 754 47 L 745 -16 C 690 -18 652 -7 630 15 C 608 38 598 71 598 115 L 596 115 C 561 76 517 44 464 18 C 411 -7 357 -20 301 -20 C 221 -20 157 6 107 58 C 57 110 33 169 33 233 C 33 340 84 419 188 470 C 291 521 452 547 672 547 Z M 600 193 L 659 477 C 460 478 320 457 239 414 C 157 370 117 313 117 242 C 117 192 134 148 169 110 C 204 72 254 53 319 53 C 372 53 423 66 473 93 C 523 120 565 153 600 193 Z M 811 1055 L 749 1055 L 596 1350 L 592 1350 L 323 1055 L 250 1055 L 551 1417 L 653 1417 L 811 1055 Z" unicode="â" />
<glyph horiz-adv-x="874" d="M 672 547 L 684 606 C 701 687 691 753 653 805 C 615 857 553 883 467 883 C 417 883 367 873 317 855 C 267 837 224 817 186 795 L 168 868 C 208 892 254 913 307 931 C 359 949 415 958 473 958 C 569 958 648 929 710 871 C 772 813 790 725 766 606 L 674 145 C 668 117 670 94 678 75 C 686 55 712 46 754 47 L 745 -16 C 690 -18 652 -7 630 15 C 608 38 598 71 598 115 L 596 115 C 561 76 517 44 464 18 C 411 -7 357 -20 301 -20 C 221 -20 157 6 107 58 C 57 110 33 169 33 233 C 33 340 84 419 188 470 C 291 521 452 547 672 547 Z M 600 193 L 659 477 C 460 478 320 457 239 414 C 157 370 117 313 117 242 C 117 192 134 148 169 110 C 204 72 254 53 319 53 C 372 53 423 66 473 93 C 523 120 565 153 600 193 Z M 885 1278 C 862 1205 834 1151 801 1117 C 767 1082 730 1065 688 1065 C 634 1065 583 1090 535 1141 C 487 1191 445 1217 407 1217 C 385 1217 365 1207 347 1189 C 329 1171 306 1133 280 1075 L 223 1075 C 245 1147 273 1201 307 1236 C 340 1270 378 1288 420 1288 C 474 1288 525 1262 574 1212 C 622 1162 664 1137 700 1137 C 721 1137 741 1146 759 1164 C 777 1182 799 1220 825 1278 L 885 1278 Z" unicode="ã" />
<glyph horiz-adv-x="874" d="M 672 547 L 684 606 C 701 687 691 753 653 805 C 615 857 553 883 467 883 C 417 883 367 873 317 855 C 267 837 224 817 186 795 L 168 868 C 208 892 254 913 307 931 C 359 949 415 958 473 958 C 569 958 648 929 710 871 C 772 813 790 725 766 606 L 674 145 C 668 117 670 94 678 75 C 686 55 712 46 754 47 L 745 -16 C 690 -18 652 -7 630 15 C 608 38 598 71 598 115 L 596 115 C 561 76 517 44 464 18 C 411 -7 357 -20 301 -20 C 221 -20 157 6 107 58 C 57 110 33 169 33 233 C 33 340 84 419 188 470 C 291 521 452 547 672 547 Z M 600 193 L 659 477 C 460 478 320 457 239 414 C 157 370 117 313 117 242 C 117 192 134 148 169 110 C 204 72 254 53 319 53 C 372 53 423 66 473 93 C 523 120 565 153 600 193 Z M 460 1227 C 460 1207 453 1190 440 1174 C 427 1158 410 1151 389 1151 C 367 1151 350 1158 338 1174 C 325 1190 319 1207 319 1227 C 319 1245 325 1261 338 1276 C 350 1290 367 1298 389 1298 C 410 1298 427 1290 440 1276 C 453 1261 460 1245 460 1227 Z M 831 1227 C 831 1207 824 1190 811 1174 C 798 1158 781 1151 761 1151 C 739 1151 722 1158 708 1174 C 694 1190 688 1207 688 1227 C 688 1245 694 1261 708 1276 C 722 1290 739 1298 761 1298 C 781 1298 798 1290 811 1276 C 824 1261 831 1245 831 1227 Z" unicode="ä" />
<glyph horiz-adv-x="874" d="M 672 547 L 684 606 C 701 687 691 753 653 805 C 615 857 553 883 467 883 C 417 883 367 873 317 855 C 267 837 224 817 186 795 L 168 868 C 208 892 254 913 307 931 C 359 949 415 958 473 958 C 569 958 648 929 710 871 C 772 813 790 725 766 606 L 674 145 C 668 117 670 94 678 75 C 686 55 712 46 754 47 L 745 -16 C 690 -18 652 -7 630 15 C 608 38 598 71 598 115 L 596 115 C 561 76 517 44 464 18 C 411 -7 357 -20 301 -20 C 221 -20 157 6 107 58 C 57 110 33 169 33 233 C 33 340 84 419 188 470 C 291 521 452 547 672 547 Z M 600 193 L 659 477 C 460 478 320 457 239 414 C 157 370 117 313 117 242 C 117 192 134 148 169 110 C 204 72 254 53 319 53 C 372 53 423 66 473 93 C 523 120 565 153 600 193 Z M 797 1237 C 797 1183 776 1136 735 1097 C 693 1057 637 1038 567 1038 C 497 1038 441 1057 400 1097 C 358 1136 338 1183 338 1237 C 338 1291 358 1338 400 1378 C 441 1418 497 1438 567 1438 C 637 1438 693 1418 735 1378 C 776 1338 797 1291 797 1237 Z M 725 1233 C 725 1270 710 1303 682 1333 C 653 1363 615 1378 567 1378 C 520 1378 482 1364 453 1337 C 423 1309 409 1277 409 1239 C 409 1201 423 1168 453 1140 C 482 1112 520 1098 567 1098 C 615 1098 653 1111 682 1137 C 710 1163 725 1195 725 1233 Z" unicode="å" />
<glyph horiz-adv-x="1511" d="M 766 756 C 808 816 861 864 924 902 C 987 939 1057 958 1133 958 C 1225 958 1301 930 1361 876 C 1420 822 1450 755 1450 676 C 1450 647 1446 616 1438 583 C 1430 550 1420 519 1407 489 L 752 485 C 750 473 749 461 749 449 C 748 437 748 426 748 414 C 748 312 776 227 834 159 C 891 91 971 57 1073 57 C 1113 57 1154 62 1195 73 C 1235 84 1273 98 1307 115 L 1313 37 C 1279 20 1240 6 1197 -4 C 1153 -14 1111 -20 1069 -20 C 980 -20 903 2 838 46 C 772 90 724 149 694 221 C 635 134 571 72 501 35 C 431 -1 365 -20 303 -20 C 223 -20 158 5 108 55 C 58 105 33 161 33 223 C 33 330 85 410 189 464 C 293 517 454 541 672 535 L 686 606 C 702 687 694 753 661 805 C 627 857 567 883 481 883 C 431 883 380 873 328 855 C 276 837 232 817 195 795 L 176 868 C 216 892 263 913 318 931 C 372 949 429 958 487 958 C 560 958 622 941 673 908 C 723 874 754 824 766 756 Z M 662 465 C 456 470 314 450 235 405 C 156 360 117 302 117 231 C 117 182 134 141 170 107 C 206 73 256 57 322 57 C 369 57 424 74 488 109 C 552 143 614 202 674 285 C 666 314 661 344 659 374 C 657 404 658 434 662 465 Z M 766 559 L 1339 559 C 1346 577 1351 596 1355 614 C 1358 632 1360 651 1360 672 C 1360 728 1339 777 1297 819 C 1255 860 1198 881 1126 881 C 1038 881 963 849 899 786 C 835 722 790 647 766 559 Z" unicode="æ" />
<glyph horiz-adv-x="911" d="M 412 -14 C 314 3 235 50 175 127 C 115 204 86 296 86 403 C 86 541 132 668 224 784 C 316 900 438 958 588 958 C 651 958 709 947 761 927 C 813 906 858 880 895 850 L 860 778 C 827 806 786 830 737 850 C 687 870 634 881 578 881 C 468 881 374 833 295 739 C 215 644 176 536 176 414 C 176 312 204 227 260 159 C 316 91 396 57 498 57 C 538 57 579 62 620 73 C 660 84 697 98 731 115 L 737 37 C 703 20 665 6 621 -4 C 577 -14 535 -20 494 -20 L 487 -20 L 350 -133 C 411 -135 463 -150 506 -178 C 549 -206 571 -246 571 -299 C 571 -358 539 -410 476 -455 C 413 -500 324 -521 209 -518 L 211 -455 C 301 -457 371 -444 421 -418 C 471 -392 496 -355 496 -307 C 496 -260 470 -228 418 -211 C 366 -194 301 -190 223 -199 L 223 -166 C 223 -166 254 -140 318 -90 C 381 -39 412 -14 412 -14 Z" unicode="ç" />
<glyph horiz-adv-x="942" d="M 182 485 C 181 473 180 461 179 449 C 178 437 178 426 178 414 C 178 312 206 227 264 159 C 322 91 402 57 504 57 C 544 57 585 62 626 73 C 666 84 703 98 737 115 L 743 37 C 709 20 671 6 627 -4 C 583 -14 541 -20 500 -20 C 378 -20 280 20 204 101 C 128 181 90 282 90 403 C 90 547 134 676 224 789 C 313 901 426 958 563 958 C 655 958 731 930 791 876 C 851 822 881 755 881 676 C 881 647 877 616 869 583 C 861 550 851 519 838 489 L 182 485 Z M 197 559 L 770 559 C 777 577 782 596 786 614 C 789 632 791 651 791 672 C 791 728 770 777 728 819 C 686 860 629 881 557 881 C 469 881 393 849 329 786 C 265 722 221 647 197 559 Z M 626 1055 L 569 1055 L 317 1417 L 429 1417 L 626 1055 Z" unicode="è" />
<glyph horiz-adv-x="942" d="M 182 485 C 181 473 180 461 179 449 C 178 437 178 426 178 414 C 178 312 206 227 264 159 C 322 91 402 57 504 57 C 544 57 585 62 626 73 C 666 84 703 98 737 115 L 743 37 C 709 20 671 6 627 -4 C 583 -14 541 -20 500 -20 C 378 -20 280 20 204 101 C 128 181 90 282 90 403 C 90 547 134 676 224 789 C 313 901 426 958 563 958 C 655 958 731 930 791 876 C 851 822 881 755 881 676 C 881 647 877 616 869 583 C 861 550 851 519 838 489 L 182 485 Z M 197 559 L 770 559 C 777 577 782 596 786 614 C 789 632 791 651 791 672 C 791 728 770 777 728 819 C 686 860 629 881 557 881 C 469 881 393 849 329 786 C 265 722 221 647 197 559 Z M 954 1417 L 559 1055 L 489 1055 L 829 1417 L 954 1417 Z" unicode="é" />
<glyph horiz-adv-x="942" d="M 182 485 C 181 473 180 461 179 449 C 178 437 178 426 178 414 C 178 312 206 227 264 159 C 322 91 402 57 504 57 C 544 57 585 62 626 73 C 666 84 703 98 737 115 L 743 37 C 709 20 671 6 627 -4 C 583 -14 541 -20 500 -20 C 378 -20 280 20 204 101 C 128 181 90 282 90 403 C 90 547 134 676 224 789 C 313 901 426 958 563 958 C 655 958 731 930 791 876 C 851 822 881 755 881 676 C 881 647 877 616 869 583 C 861 550 851 519 838 489 L 182 485 Z M 197 559 L 770 559 C 777 577 782 596 786 614 C 789 632 791 651 791 672 C 791 728 770 777 728 819 C 686 860 629 881 557 881 C 469 881 393 849 329 786 C 265 722 221 647 197 559 Z M 850 1055 L 788 1055 L 635 1350 L 631 1350 L 362 1055 L 289 1055 L 590 1417 L 692 1417 L 850 1055 Z" unicode="ê" />
<glyph horiz-adv-x="942" d="M 182 485 C 181 473 180 461 179 449 C 178 437 178 426 178 414 C 178 312 206 227 264 159 C 322 91 402 57 504 57 C 544 57 585 62 626 73 C 666 84 703 98 737 115 L 743 37 C 709 20 671 6 627 -4 C 583 -14 541 -20 500 -20 C 378 -20 280 20 204 101 C 128 181 90 282 90 403 C 90 547 134 676 224 789 C 313 901 426 958 563 958 C 655 958 731 930 791 876 C 851 822 881 755 881 676 C 881 647 877 616 869 583 C 861 550 851 519 838 489 L 182 485 Z M 197 559 L 770 559 C 777 577 782 596 786 614 C 789 632 791 651 791 672 C 791 728 770 777 728 819 C 686 860 629 881 557 881 C 469 881 393 849 329 786 C 265 722 221 647 197 559 Z M 509 1227 C 509 1207 502 1190 489 1174 C 476 1158 459 1151 438 1151 C 416 1151 399 1158 387 1174 C 374 1190 368 1207 368 1227 C 368 1245 374 1261 387 1276 C 399 1290 416 1298 438 1298 C 459 1298 476 1290 489 1276 C 502 1261 509 1245 509 1227 Z M 880 1227 C 880 1207 873 1190 860 1174 C 847 1158 830 1151 810 1151 C 788 1151 771 1158 757 1174 C 743 1190 737 1207 737 1227 C 737 1245 743 1261 757 1276 C 771 1290 788 1298 810 1298 C 830 1298 847 1290 860 1276 C 873 1261 880 1245 880 1227 Z" unicode="ë" />
<glyph horiz-adv-x="397" d="M 150 0 L 66 0 L 246 932 L 334 958 L 150 0 Z M 337 1055 L 280 1055 L 28 1417 L 140 1417 L 337 1055 Z" unicode="ì" />
<glyph horiz-adv-x="397" d="M 150 0 L 66 0 L 246 932 L 334 958 L 150 0 Z M 726 1417 L 331 1055 L 261 1055 L 601 1417 L 726 1417 Z" unicode="í" />
<glyph horiz-adv-x="397" d="M 150 0 L 66 0 L 246 932 L 334 958 L 150 0 Z M 596 1055 L 534 1055 L 381 1350 L 377 1350 L 108 1055 L 35 1055 L 336 1417 L 438 1417 L 596 1055 Z" unicode="î" />
<glyph horiz-adv-x="397" d="M 150 0 L 66 0 L 246 932 L 334 958 L 150 0 Z M 237 1227 C 237 1207 230 1190 217 1174 C 204 1158 187 1151 166 1151 C 144 1151 127 1158 115 1174 C 102 1190 96 1207 96 1227 C 96 1245 102 1261 115 1276 C 127 1290 144 1298 166 1298 C 187 1298 204 1290 217 1276 C 230 1261 237 1245 237 1227 Z M 608 1227 C 608 1207 601 1190 588 1174 C 575 1158 558 1151 538 1151 C 516 1151 499 1158 485 1174 C 471 1190 465 1207 465 1227 C 465 1245 471 1261 485 1276 C 499 1290 516 1298 538 1298 C 558 1298 575 1290 588 1276 C 601 1261 608 1245 608 1227 Z" unicode="ï" />
<glyph horiz-adv-x="1055" d="M 991 580 C 991 438 946 304 858 179 C 770 54 646 -8 487 -8 C 372 -8 275 26 197 96 C 119 166 80 263 80 387 C 80 520 126 636 218 736 C 310 835 426 885 567 885 C 622 885 676 875 730 856 C 784 836 833 810 877 778 L 881 778 C 863 846 838 913 804 979 C 770 1044 732 1106 692 1165 C 692 1166 648 1155 562 1131 C 475 1107 432 1096 432 1096 L 414 1169 L 643 1231 C 618 1263 592 1294 565 1324 C 538 1354 511 1382 485 1409 L 580 1425 C 606 1401 631 1374 657 1345 C 683 1315 707 1285 731 1255 L 952 1315 L 971 1241 L 778 1190 C 839 1099 890 1001 930 895 C 970 789 991 684 991 580 Z M 905 575 C 905 592 904 610 903 628 C 902 646 900 664 897 682 C 853 722 801 753 741 775 C 681 797 623 809 567 809 C 447 809 350 767 277 685 C 204 603 168 506 168 395 C 168 294 198 213 258 153 C 318 93 396 63 492 63 C 626 63 728 117 799 225 C 869 333 905 449 905 575 Z" unicode="ð" />
<glyph horiz-adv-x="1008" d="M 774 0 L 690 0 L 803 582 C 807 607 811 628 813 645 C 815 661 817 676 817 690 C 817 748 800 795 766 831 C 732 867 680 885 612 885 C 561 885 508 871 454 843 C 400 815 345 779 289 735 L 145 0 L 61 0 L 242 932 L 332 958 L 305 819 C 357 861 411 894 468 920 C 524 945 581 958 639 958 C 720 958 784 934 832 888 C 879 842 903 781 903 705 C 903 689 901 670 898 648 C 895 626 891 601 887 575 L 774 0 Z M 973 1278 C 950 1205 922 1151 889 1117 C 855 1082 818 1065 776 1065 C 722 1065 671 1090 623 1141 C 575 1191 533 1217 495 1217 C 473 1217 453 1207 435 1189 C 417 1171 394 1133 368 1075 L 311 1075 C 333 1147 361 1201 395 1236 C 428 1270 466 1288 508 1288 C 562 1288 613 1262 662 1212 C 710 1162 752 1137 788 1137 C 809 1137 829 1146 847 1164 C 865 1182 887 1220 913 1278 L 973 1278 Z" unicode="ñ" />
<glyph horiz-adv-x="1090" d="M 1004 532 C 1004 386 956 258 860 148 C 764 37 640 -18 489 -18 C 366 -18 268 21 195 101 C 122 180 86 281 86 403 C 86 549 134 677 230 789 C 326 900 449 956 600 956 C 723 956 821 916 894 836 C 967 756 1004 654 1004 532 Z M 918 524 C 918 625 890 710 834 779 C 778 848 698 883 594 883 C 466 883 364 833 287 734 C 210 635 172 526 172 408 C 172 306 200 222 257 155 C 314 88 394 55 496 55 C 623 55 725 103 802 199 C 879 295 918 404 918 524 Z M 657 1055 L 600 1055 L 348 1417 L 460 1417 L 657 1055 Z" unicode="ò" />
<glyph horiz-adv-x="1090" d="M 1004 532 C 1004 386 956 258 860 148 C 764 37 640 -18 489 -18 C 366 -18 268 21 195 101 C 122 180 86 281 86 403 C 86 549 134 677 230 789 C 326 900 449 956 600 956 C 723 956 821 916 894 836 C 967 756 1004 654 1004 532 Z M 918 524 C 918 625 890 710 834 779 C 778 848 698 883 594 883 C 466 883 364 833 287 734 C 210 635 172 526 172 408 C 172 306 200 222 257 155 C 314 88 394 55 496 55 C 623 55 725 103 802 199 C 879 295 918 404 918 524 Z M 1036 1417 L 641 1055 L 571 1055 L 911 1417 L 1036 1417 Z" unicode="ó" />
<glyph horiz-adv-x="1090" d="M 1004 532 C 1004 386 956 258 860 148 C 764 37 640 -18 489 -18 C 366 -18 268 21 195 101 C 122 180 86 281 86 403 C 86 549 134 677 230 789 C 326 900 449 956 600 956 C 723 956 821 916 894 836 C 967 756 1004 654 1004 532 Z M 918 524 C 918 625 890 710 834 779 C 778 848 698 883 594 883 C 466 883 364 833 287 734 C 210 635 172 526 172 408 C 172 306 200 222 257 155 C 314 88 394 55 496 55 C 623 55 725 103 802 199 C 879 295 918 404 918 524 Z M 940 1055 L 878 1055 L 725 1350 L 721 1350 L 452 1055 L 379 1055 L 680 1417 L 782 1417 L 940 1055 Z" unicode="ô" />
<glyph horiz-adv-x="1090" d="M 1004 532 C 1004 386 956 258 860 148 C 764 37 640 -18 489 -18 C 366 -18 268 21 195 101 C 122 180 86 281 86 403 C 86 549 134 677 230 789 C 326 900 449 956 600 956 C 723 956 821 916 894 836 C 967 756 1004 654 1004 532 Z M 918 524 C 918 625 890 710 834 779 C 778 848 698 883 594 883 C 466 883 364 833 287 734 C 210 635 172 526 172 408 C 172 306 200 222 257 155 C 314 88 394 55 496 55 C 623 55 725 103 802 199 C 879 295 918 404 918 524 Z M 1014 1278 C 991 1205 963 1151 930 1117 C 896 1082 859 1065 817 1065 C 763 1065 712 1090 664 1141 C 616 1191 574 1217 536 1217 C 514 1217 494 1207 476 1189 C 458 1171 435 1133 409 1075 L 352 1075 C 374 1147 402 1201 436 1236 C 469 1270 507 1288 549 1288 C 603 1288 654 1262 703 1212 C 751 1162 793 1137 829 1137 C 850 1137 870 1146 888 1164 C 906 1182 928 1220 954 1278 L 1014 1278 Z" unicode="õ" />
<glyph horiz-adv-x="1090" d="M 1004 532 C 1004 386 956 258 860 148 C 764 37 640 -18 489 -18 C 366 -18 268 21 195 101 C 122 180 86 281 86 403 C 86 549 134 677 230 789 C 326 900 449 956 600 956 C 723 956 821 916 894 836 C 967 756 1004 654 1004 532 Z M 918 524 C 918 625 890 710 834 779 C 778 848 698 883 594 883 C 466 883 364 833 287 734 C 210 635 172 526 172 408 C 172 306 200 222 257 155 C 314 88 394 55 496 55 C 623 55 725 103 802 199 C 879 295 918 404 918 524 Z M 591 1227 C 591 1207 584 1190 571 1174 C 558 1158 541 1151 520 1151 C 498 1151 481 1158 469 1174 C 456 1190 450 1207 450 1227 C 450 1245 456 1261 469 1276 C 481 1290 498 1298 520 1298 C 541 1298 558 1290 571 1276 C 584 1261 591 1245 591 1227 Z M 962 1227 C 962 1207 955 1190 942 1174 C 929 1158 912 1151 892 1151 C 870 1151 853 1158 839 1174 C 825 1190 819 1207 819 1227 C 819 1245 825 1261 839 1276 C 853 1290 870 1298 892 1298 C 912 1298 929 1290 942 1276 C 955 1261 962 1245 962 1227 Z" unicode="ö" />
<glyph horiz-adv-x="1024" d="M 588 219 C 588 199 581 181 567 165 C 553 149 535 141 514 141 C 492 141 475 149 462 165 C 448 181 442 199 442 219 C 442 238 448 255 462 270 C 475 285 492 293 514 293 C 535 293 553 285 567 270 C 581 255 588 238 588 219 Z M 588 739 C 588 719 581 701 567 685 C 553 669 535 662 514 662 C 492 662 475 669 462 685 C 448 701 442 719 442 739 C 442 758 448 775 462 790 C 475 805 492 813 514 813 C 535 813 553 805 567 790 C 581 775 588 758 588 739 Z M 928 444 L 98 444 L 104 518 L 922 518 L 928 444 Z" unicode="÷" />
<glyph horiz-adv-x="1090" d="M 1018 537 C 1018 391 969 262 871 150 C 773 38 648 -18 498 -18 C 452 -18 410 -12 370 -2 C 330 8 294 24 262 45 L 123 -137 L 39 -137 L 209 84 C 168 120 136 166 113 220 C 89 274 78 334 78 399 C 78 545 127 674 225 787 C 323 899 447 956 598 956 C 642 956 685 950 725 939 C 765 928 801 913 834 893 L 975 1077 L 1059 1077 C 1059 1077 1030 1039 973 965 C 915 890 887 852 887 852 C 927 815 959 769 983 715 C 1006 661 1018 601 1018 537 Z M 784 829 C 758 845 728 858 696 868 C 664 878 629 883 592 883 C 464 883 361 832 282 732 C 203 632 164 522 164 403 C 164 352 172 305 189 262 C 205 218 229 181 260 150 L 784 829 Z M 932 528 C 932 580 923 628 906 672 C 889 716 866 754 836 786 L 311 109 C 337 91 367 78 400 69 C 432 59 467 55 504 55 C 631 55 734 103 813 201 C 892 299 932 408 932 528 Z" unicode="ø" />
<glyph horiz-adv-x="1008" d="M 236 938 L 319 938 L 207 356 C 201 330 198 309 196 293 C 194 276 193 261 193 248 C 193 190 210 143 244 107 C 278 71 329 53 397 53 C 449 53 502 66 556 93 C 610 119 665 155 721 199 L 864 938 L 948 938 L 768 6 L 678 -20 L 705 119 C 653 77 598 43 541 18 C 484 -7 427 -20 371 -20 C 289 -20 224 3 177 49 C 129 95 106 157 106 233 C 106 248 107 267 110 289 C 113 311 117 336 123 362 L 236 938 Z M 640 1055 L 583 1055 L 331 1417 L 443 1417 L 640 1055 Z" unicode="ù" />
<glyph horiz-adv-x="1008" d="M 236 938 L 319 938 L 207 356 C 201 330 198 309 196 293 C 194 276 193 261 193 248 C 193 190 210 143 244 107 C 278 71 329 53 397 53 C 449 53 502 66 556 93 C 610 119 665 155 721 199 L 864 938 L 948 938 L 768 6 L 678 -20 L 705 119 C 653 77 598 43 541 18 C 484 -7 427 -20 371 -20 C 289 -20 224 3 177 49 C 129 95 106 157 106 233 C 106 248 107 267 110 289 C 113 311 117 336 123 362 L 236 938 Z M 1015 1417 L 620 1055 L 550 1055 L 890 1417 L 1015 1417 Z" unicode="ú" />
<glyph horiz-adv-x="1008" d="M 236 938 L 319 938 L 207 356 C 201 330 198 309 196 293 C 194 276 193 261 193 248 C 193 190 210 143 244 107 C 278 71 329 53 397 53 C 449 53 502 66 556 93 C 610 119 665 155 721 199 L 864 938 L 948 938 L 768 6 L 678 -20 L 705 119 C 653 77 598 43 541 18 C 484 -7 427 -20 371 -20 C 289 -20 224 3 177 49 C 129 95 106 157 106 233 C 106 248 107 267 110 289 C 113 311 117 336 123 362 L 236 938 Z M 882 1055 L 820 1055 L 667 1350 L 663 1350 L 394 1055 L 321 1055 L 622 1417 L 724 1417 L 882 1055 Z" unicode="û" />
<glyph horiz-adv-x="1008" d="M 236 938 L 319 938 L 207 356 C 201 330 198 309 196 293 C 194 276 193 261 193 248 C 193 190 210 143 244 107 C 278 71 329 53 397 53 C 449 53 502 66 556 93 C 610 119 665 155 721 199 L 864 938 L 948 938 L 768 6 L 678 -20 L 705 119 C 653 77 598 43 541 18 C 484 -7 427 -20 371 -20 C 289 -20 224 3 177 49 C 129 95 106 157 106 233 C 106 248 107 267 110 289 C 113 311 117 336 123 362 L 236 938 Z M 513 1227 C 513 1207 506 1190 493 1174 C 480 1158 463 1151 442 1151 C 420 1151 403 1158 391 1174 C 378 1190 372 1207 372 1227 C 372 1245 378 1261 391 1276 C 403 1290 420 1298 442 1298 C 463 1298 480 1290 493 1276 C 506 1261 513 1245 513 1227 Z M 884 1227 C 884 1207 877 1190 864 1174 C 851 1158 834 1151 814 1151 C 792 1151 775 1158 761 1174 C 747 1190 741 1207 741 1227 C 741 1245 747 1261 761 1276 C 775 1290 792 1298 814 1298 C 834 1298 851 1290 864 1276 C 877 1261 884 1245 884 1227 Z" unicode="ü" />
<glyph horiz-adv-x="829" d="M -164 -354 C -149 -364 -134 -373 -118 -381 C -102 -389 -83 -393 -61 -393 C -37 -393 -7 -380 28 -356 C 64 -332 110 -274 164 -182 L 281 20 L 102 938 L 188 938 L 342 115 L 817 938 L 911 938 L 346 -18 L 225 -223 C 165 -326 111 -393 65 -424 C 19 -455 -24 -471 -66 -471 C -96 -471 -122 -466 -145 -456 C -168 -446 -189 -435 -209 -422 L -164 -354 Z M 911 1417 L 516 1055 L 446 1055 L 786 1417 L 911 1417 Z" unicode="ý" />
<glyph horiz-adv-x="1040" d="M 309 840 C 341 866 380 890 428 913 C 475 936 530 948 592 948 C 692 948 777 911 848 838 C 918 764 954 669 954 551 C 954 389 905 253 809 144 C 713 34 593 -20 451 -20 C 395 -20 342 -8 292 13 C 242 35 199 65 164 102 L 51 -477 L -31 -477 L 330 1380 L 420 1407 L 309 840 Z M 293 762 L 178 168 C 208 134 249 106 301 83 C 353 60 405 49 457 49 C 573 49 671 97 751 195 C 830 293 870 406 870 535 C 870 637 843 720 789 784 C 735 847 667 879 584 879 C 528 879 474 867 423 843 C 371 819 328 792 293 762 Z" unicode="þ" />
<glyph horiz-adv-x="829" d="M -164 -354 C -149 -364 -134 -373 -118 -381 C -102 -389 -83 -393 -61 -393 C -37 -393 -7 -380 28 -356 C 64 -332 110 -274 164 -182 L 281 20 L 102 938 L 188 938 L 342 115 L 817 938 L 911 938 L 346 -18 L 225 -223 C 165 -326 111 -393 65 -424 C 19 -455 -24 -471 -66 -471 C -96 -471 -122 -466 -145 -456 C -168 -446 -189 -435 -209 -422 L -164 -354 Z M 446 1227 C 446 1207 439 1190 426 1174 C 413 1158 396 1151 375 1151 C 353 1151 336 1158 324 1174 C 311 1190 305 1207 305 1227 C 305 1245 311 1261 324 1276 C 336 1290 353 1298 375 1298 C 396 1298 413 1290 426 1276 C 439 1261 446 1245 446 1227 Z M 817 1227 C 817 1207 810 1190 797 1174 C 784 1158 767 1151 747 1151 C 725 1151 708 1158 694 1174 C 680 1190 674 1207 674 1227 C 674 1245 680 1261 694 1276 C 708 1290 725 1298 747 1298 C 767 1298 784 1290 797 1276 C 810 1261 817 1245 817 1227 Z" unicode="ÿ" />
<glyph horiz-adv-x="1180" d="M 805 1280 L 1038 0 L 956 0 L 889 379 L 268 379 L 55 0 L -39 0 L 698 1280 L 805 1280 Z M 872 457 L 741 1202 L 313 457 L 872 457 Z M 1019 1434 L 538 1434 L 558 1511 L 1027 1511 L 1019 1434 Z" unicode="Ā" />
<glyph horiz-adv-x="874" d="M 672 547 L 684 606 C 701 687 691 753 653 805 C 615 857 553 883 467 883 C 417 883 367 873 317 855 C 267 837 224 817 186 795 L 168 868 C 208 892 254 913 307 931 C 359 949 415 958 473 958 C 569 958 648 929 710 871 C 772 813 790 725 766 606 L 674 145 C 668 117 670 94 678 75 C 686 55 712 46 754 47 L 745 -16 C 690 -18 652 -7 630 15 C 608 38 598 71 598 115 L 596 115 C 561 76 517 44 464 18 C 411 -7 357 -20 301 -20 C 221 -20 157 6 107 58 C 57 110 33 169 33 233 C 33 340 84 419 188 470 C 291 521 452 547 672 547 Z M 600 193 L 659 477 C 460 478 320 457 239 414 C 157 370 117 313 117 242 C 117 192 134 148 169 110 C 204 72 254 53 319 53 C 372 53 423 66 473 93 C 523 120 565 153 600 193 Z M 743 1092 L 262 1092 L 282 1169 L 751 1169 L 743 1092 Z" unicode="ā" />
<glyph horiz-adv-x="1180" d="M 805 1280 L 1038 0 L 956 0 L 889 379 L 268 379 L 55 0 L -39 0 L 698 1280 L 805 1280 Z M 872 457 L 741 1202 L 313 457 L 872 457 Z M 1095 1757 C 1063 1665 1020 1582 968 1507 C 916 1432 849 1395 768 1395 C 678 1395 617 1433 586 1511 C 554 1588 537 1670 534 1757 L 590 1757 C 598 1652 619 1577 651 1533 C 683 1488 724 1466 774 1466 C 818 1466 861 1486 904 1526 C 946 1566 992 1643 1040 1757 L 1095 1757 Z" unicode="Ă" />
<glyph horiz-adv-x="874" d="M 672 547 L 684 606 C 701 687 691 753 653 805 C 615 857 553 883 467 883 C 417 883 367 873 317 855 C 267 837 224 817 186 795 L 168 868 C 208 892 254 913 307 931 C 359 949 415 958 473 958 C 569 958 648 929 710 871 C 772 813 790 725 766 606 L 674 145 C 668 117 670 94 678 75 C 686 55 712 46 754 47 L 745 -16 C 690 -18 652 -7 630 15 C 608 38 598 71 598 115 L 596 115 C 561 76 517 44 464 18 C 411 -7 357 -20 301 -20 C 221 -20 157 6 107 58 C 57 110 33 169 33 233 C 33 340 84 419 188 470 C 291 521 452 547 672 547 Z M 600 193 L 659 477 C 460 478 320 457 239 414 C 157 370 117 313 117 242 C 117 192 134 148 169 110 C 204 72 254 53 319 53 C 372 53 423 66 473 93 C 523 120 565 153 600 193 Z M 841 1415 C 809 1323 766 1240 714 1165 C 662 1090 595 1053 514 1053 C 424 1053 363 1091 332 1169 C 300 1246 283 1328 280 1415 L 336 1415 C 344 1310 365 1235 397 1191 C 429 1146 470 1124 520 1124 C 564 1124 607 1144 650 1184 C 692 1224 738 1301 786 1415 L 841 1415 Z" unicode="ă" />
<glyph horiz-adv-x="1180" d="M 805 1280 L 1038 0 C 971 -22 912 -56 862 -103 C 811 -150 782 -195 774 -238 C 768 -270 773 -298 787 -320 C 801 -342 824 -354 854 -356 C 872 -357 890 -355 910 -350 C 930 -344 947 -337 963 -328 L 977 -395 C 960 -405 938 -413 912 -421 C 885 -428 857 -431 829 -430 C 781 -426 744 -407 718 -373 C 691 -339 682 -296 692 -244 C 704 -181 737 -126 789 -80 C 841 -33 895 4 950 33 L 889 379 L 268 379 L 55 0 L -39 0 L 698 1280 L 805 1280 Z M 872 457 L 741 1202 L 313 457 L 872 457 Z" unicode="Ą" />
<glyph horiz-adv-x="874" d="M 672 547 L 684 606 C 702 688 691 754 653 806 C 615 857 553 883 467 883 C 416 883 366 873 317 855 C 268 836 224 816 186 795 L 168 868 C 207 891 253 912 306 930 C 358 948 414 958 473 958 C 569 958 648 929 710 871 C 772 813 790 724 766 606 L 674 145 C 668 117 670 94 678 74 C 686 54 711 45 754 47 L 745 -16 C 675 -30 616 -58 567 -101 C 518 -144 489 -190 479 -238 C 473 -270 478 -298 492 -320 C 506 -342 529 -354 559 -356 C 577 -357 595 -355 615 -350 C 635 -344 652 -337 668 -328 L 682 -395 C 665 -405 643 -413 617 -421 C 591 -428 563 -431 535 -430 C 487 -426 449 -407 421 -373 C 393 -339 385 -296 397 -244 C 411 -185 442 -135 491 -94 C 540 -53 594 -20 653 6 C 634 7 620 18 611 39 C 602 59 598 85 598 115 L 596 115 C 562 76 518 44 465 18 C 411 -7 357 -20 301 -20 C 221 -20 157 6 107 58 C 57 110 33 169 33 233 C 33 339 84 418 188 470 C 292 521 453 547 672 547 Z M 600 193 L 659 477 C 459 478 319 457 238 413 C 157 369 117 312 117 242 C 117 192 134 148 169 110 C 203 72 253 53 319 53 C 372 53 424 66 474 94 C 524 121 566 154 600 193 Z" unicode="ą" />
<glyph horiz-adv-x="1169" d="M 1210 1217 L 1194 1135 C 1146 1157 1087 1177 1017 1195 C 947 1213 881 1223 817 1223 C 620 1223 468 1151 361 1007 C 254 863 201 707 201 541 C 201 385 245 266 334 182 C 422 98 539 57 684 57 C 737 57 790 63 843 76 C 896 89 946 107 993 131 L 1010 51 C 960 27 906 10 846 -2 C 786 -14 730 -20 676 -20 C 502 -20 365 30 265 132 C 165 234 115 367 115 532 C 115 726 176 902 300 1061 C 423 1220 597 1300 821 1300 C 887 1300 954 1292 1021 1278 C 1088 1263 1151 1243 1210 1217 Z M 1095 1759 L 700 1397 L 630 1397 L 970 1759 L 1095 1759 Z" unicode="Ć" />
<glyph horiz-adv-x="911" d="M 737 37 C 703 20 665 6 621 -4 C 577 -14 535 -20 494 -20 C 372 -20 274 20 199 101 C 123 181 86 282 86 403 C 86 541 132 668 224 784 C 316 900 438 958 588 958 C 651 958 709 947 761 927 C 813 906 858 880 895 850 L 860 778 C 827 806 786 830 737 850 C 687 870 634 881 578 881 C 468 881 374 833 295 739 C 215 644 176 536 176 414 C 176 312 204 227 260 159 C 316 91 396 57 498 57 C 538 57 579 62 620 73 C 660 84 697 98 731 115 L 737 37 Z M 905 1417 L 510 1055 L 440 1055 L 780 1417 L 905 1417 Z" unicode="ć" />
<glyph horiz-adv-x="1169" d="M 1210 1217 L 1194 1135 C 1146 1157 1087 1177 1017 1195 C 947 1213 881 1223 817 1223 C 620 1223 468 1151 361 1007 C 254 863 201 707 201 541 C 201 385 245 266 334 182 C 422 98 539 57 684 57 C 737 57 790 63 843 76 C 896 89 946 107 993 131 L 1010 51 C 960 27 906 10 846 -2 C 786 -14 730 -20 676 -20 C 502 -20 365 30 265 132 C 165 234 115 367 115 532 C 115 726 176 902 300 1061 C 423 1220 597 1300 821 1300 C 887 1300 954 1292 1021 1278 C 1088 1263 1151 1243 1210 1217 Z M 1081 1397 L 1019 1397 L 866 1692 L 862 1692 L 593 1397 L 520 1397 L 821 1759 L 923 1759 L 1081 1397 Z" unicode="Ĉ" />
<glyph horiz-adv-x="911" d="M 737 37 C 703 20 665 6 621 -4 C 577 -14 535 -20 494 -20 C 372 -20 274 20 199 101 C 123 181 86 282 86 403 C 86 541 132 668 224 784 C 316 900 438 958 588 958 C 651 958 709 947 761 927 C 813 906 858 880 895 850 L 860 778 C 827 806 786 830 737 850 C 687 870 634 881 578 881 C 468 881 374 833 295 739 C 215 644 176 536 176 414 C 176 312 204 227 260 159 C 316 91 396 57 498 57 C 538 57 579 62 620 73 C 660 84 697 98 731 115 L 737 37 Z M 850 1055 L 788 1055 L 635 1350 L 631 1350 L 362 1055 L 289 1055 L 590 1417 L 692 1417 L 850 1055 Z" unicode="ĉ" />
<glyph horiz-adv-x="1169" d="M 1210 1217 L 1194 1135 C 1146 1157 1087 1177 1017 1195 C 947 1213 881 1223 817 1223 C 620 1223 468 1151 361 1007 C 254 863 201 707 201 541 C 201 385 245 266 334 182 C 422 98 539 57 684 57 C 737 57 790 63 843 76 C 896 89 946 107 993 131 L 1010 51 C 960 27 906 10 846 -2 C 786 -14 730 -20 676 -20 C 502 -20 365 30 265 132 C 165 234 115 367 115 532 C 115 726 176 902 300 1061 C 423 1220 597 1300 821 1300 C 887 1300 954 1292 1021 1278 C 1088 1263 1151 1243 1210 1217 Z M 926 1569 C 926 1549 919 1532 906 1516 C 892 1500 875 1493 854 1493 C 832 1493 815 1500 803 1516 C 790 1532 784 1549 784 1569 C 784 1587 790 1603 803 1618 C 815 1632 832 1640 854 1640 C 875 1640 892 1632 906 1618 C 919 1603 926 1587 926 1569 Z" unicode="Ċ" />
<glyph horiz-adv-x="911" d="M 737 37 C 703 20 665 6 621 -4 C 577 -14 535 -20 494 -20 C 372 -20 274 20 199 101 C 123 181 86 282 86 403 C 86 541 132 668 224 784 C 316 900 438 958 588 958 C 651 958 709 947 761 927 C 813 906 858 880 895 850 L 860 778 C 827 806 786 830 737 850 C 687 870 634 881 578 881 C 468 881 374 833 295 739 C 215 644 176 536 176 414 C 176 312 204 227 260 159 C 316 91 396 57 498 57 C 538 57 579 62 620 73 C 660 84 697 98 731 115 L 737 37 Z M 692 1227 C 692 1207 685 1190 672 1174 C 658 1158 641 1151 620 1151 C 598 1151 581 1158 569 1174 C 556 1190 550 1207 550 1227 C 550 1245 556 1261 569 1276 C 581 1290 598 1298 620 1298 C 641 1298 658 1290 672 1276 C 685 1261 692 1245 692 1227 Z" unicode="ċ" />
<glyph horiz-adv-x="1169" d="M 1210 1217 L 1194 1135 C 1146 1157 1087 1177 1017 1195 C 947 1213 881 1223 817 1223 C 620 1223 468 1151 361 1007 C 254 863 201 707 201 541 C 201 385 245 266 334 182 C 422 98 539 57 684 57 C 737 57 790 63 843 76 C 896 89 946 107 993 131 L 1010 51 C 960 27 906 10 846 -2 C 786 -14 730 -20 676 -20 C 502 -20 365 30 265 132 C 165 234 115 367 115 532 C 115 726 176 902 300 1061 C 423 1220 597 1300 821 1300 C 887 1300 954 1292 1021 1278 C 1088 1263 1151 1243 1210 1217 Z M 567 1739 L 629 1739 L 782 1444 L 786 1444 L 1055 1739 L 1128 1739 L 827 1376 L 725 1376 L 567 1739 Z" unicode="Č" />
<glyph horiz-adv-x="911" d="M 737 37 C 703 20 665 6 621 -4 C 577 -14 535 -20 494 -20 C 372 -20 274 20 199 101 C 123 181 86 282 86 403 C 86 541 132 668 224 784 C 316 900 438 958 588 958 C 651 958 709 947 761 927 C 813 906 858 880 895 850 L 860 778 C 827 806 786 830 737 850 C 687 870 634 881 578 881 C 468 881 374 833 295 739 C 215 644 176 536 176 414 C 176 312 204 227 260 159 C 316 91 396 57 498 57 C 538 57 579 62 620 73 C 660 84 697 98 731 115 L 737 37 Z M 374 1397 L 436 1397 L 589 1102 L 593 1102 L 862 1397 L 935 1397 L 634 1034 L 532 1034 L 374 1397 Z" unicode="č" />
<glyph horiz-adv-x="1251" d="M 1171 725 C 1171 524 1104 353 972 212 C 839 70 647 0 397 0 L 78 0 L 326 1280 L 567 1280 C 739 1280 883 1231 998 1134 C 1113 1036 1171 900 1171 725 Z M 1079 719 C 1079 871 1031 989 935 1074 C 839 1159 711 1202 551 1202 L 397 1202 L 180 78 L 406 78 C 593 78 752 131 883 239 C 1013 347 1079 507 1079 719 Z M 403 1739 L 465 1739 L 618 1444 L 622 1444 L 891 1739 L 964 1739 L 663 1376 L 561 1376 L 403 1739 Z" unicode="Ď" />
<glyph horiz-adv-x="1356" d="M 872 825 L 981 1380 L 1069 1407 L 795 0 L 711 0 L 727 88 C 695 61 656 36 609 14 C 561 -8 506 -20 444 -20 C 344 -20 259 16 188 90 C 117 163 82 259 82 377 C 82 539 130 674 227 784 C 323 893 443 948 586 948 C 642 948 694 936 744 914 C 794 891 836 861 872 825 Z M 858 760 C 827 793 786 821 735 844 C 683 867 632 879 580 879 C 462 879 364 830 285 732 C 205 634 166 521 166 393 C 166 290 192 207 246 144 C 300 80 369 49 453 49 C 509 49 562 61 614 86 C 666 110 709 140 745 176 L 858 760 Z M 1273 1343 C 1277 1360 1287 1376 1305 1392 C 1323 1407 1343 1415 1365 1415 C 1393 1415 1418 1402 1438 1378 C 1458 1354 1468 1326 1468 1294 C 1468 1232 1440 1173 1385 1117 C 1330 1061 1268 1018 1199 987 L 1169 1024 C 1237 1062 1286 1100 1318 1139 C 1349 1178 1365 1216 1365 1253 C 1365 1272 1357 1289 1341 1304 C 1325 1319 1302 1332 1273 1343 Z" unicode="ď" />
<glyph horiz-adv-x="1292" d="M 236 604 L 66 604 L 66 680 L 250 680 L 367 1280 L 608 1280 C 780 1280 924 1232 1039 1138 C 1154 1043 1212 908 1212 733 C 1212 532 1145 360 1013 216 C 880 72 688 0 438 0 L 119 0 L 236 604 Z M 338 680 L 717 680 L 717 604 L 324 604 L 221 78 L 446 78 C 634 78 793 131 924 239 C 1054 347 1120 507 1120 719 C 1120 871 1072 989 976 1074 C 880 1159 752 1202 592 1202 L 438 1202 L 338 680 Z" unicode="Đ" />
<glyph horiz-adv-x="1036" d="M 872 825 L 924 1092 L 680 1092 L 692 1169 L 940 1169 L 981 1380 L 1069 1407 L 1022 1169 L 1161 1169 L 1161 1092 L 1008 1092 L 795 0 L 711 0 L 727 88 C 695 61 656 36 609 14 C 561 -8 506 -20 444 -20 C 344 -20 259 16 188 90 C 117 163 82 259 82 377 C 82 539 130 674 227 784 C 323 893 443 948 586 948 C 642 948 694 936 744 914 C 794 891 836 861 872 825 Z M 858 760 C 827 793 786 821 735 844 C 683 867 632 879 580 879 C 462 879 364 830 285 732 C 205 634 166 521 166 393 C 166 290 192 207 246 144 C 300 80 369 49 453 49 C 509 49 562 61 614 86 C 666 110 709 140 745 176 L 858 760 Z" unicode="đ" />
<glyph horiz-adv-x="1004" d="M 811 0 L 78 0 L 328 1280 L 1061 1280 L 1044 1202 L 397 1202 L 297 678 L 838 678 L 823 602 L 283 602 L 180 78 L 827 78 L 811 0 Z M 943 1434 L 462 1434 L 482 1511 L 951 1511 L 943 1434 Z" unicode="Ē" />
<glyph horiz-adv-x="942" d="M 182 485 C 181 473 180 461 179 449 C 178 437 178 426 178 414 C 178 312 206 227 264 159 C 322 91 402 57 504 57 C 544 57 585 62 626 73 C 666 84 703 98 737 115 L 743 37 C 709 20 671 6 627 -4 C 583 -14 541 -20 500 -20 C 378 -20 280 20 204 101 C 128 181 90 282 90 403 C 90 547 134 676 224 789 C 313 901 426 958 563 958 C 655 958 731 930 791 876 C 851 822 881 755 881 676 C 881 647 877 616 869 583 C 861 550 851 519 838 489 L 182 485 Z M 197 559 L 770 559 C 777 577 782 596 786 614 C 789 632 791 651 791 672 C 791 728 770 777 728 819 C 686 860 629 881 557 881 C 469 881 393 849 329 786 C 265 722 221 647 197 559 Z M 800 1092 L 319 1092 L 339 1169 L 808 1169 L 800 1092 Z" unicode="ē" />
<glyph horiz-adv-x="1004" d="M 811 0 L 78 0 L 328 1280 L 1061 1280 L 1044 1202 L 397 1202 L 297 678 L 838 678 L 823 602 L 283 602 L 180 78 L 827 78 L 811 0 Z M 1015 1757 C 983 1665 940 1582 888 1507 C 836 1432 769 1395 688 1395 C 598 1395 537 1433 506 1511 C 474 1588 457 1670 454 1757 L 510 1757 C 518 1652 539 1577 571 1533 C 603 1488 644 1466 694 1466 C 738 1466 781 1486 824 1526 C 866 1566 912 1643 960 1757 L 1015 1757 Z" unicode="Ĕ" />
<glyph horiz-adv-x="942" d="M 182 485 C 181 473 180 461 179 449 C 178 437 178 426 178 414 C 178 312 206 227 264 159 C 322 91 402 57 504 57 C 544 57 585 62 626 73 C 666 84 703 98 737 115 L 743 37 C 709 20 671 6 627 -4 C 583 -14 541 -20 500 -20 C 378 -20 280 20 204 101 C 128 181 90 282 90 403 C 90 547 134 676 224 789 C 313 901 426 958 563 958 C 655 958 731 930 791 876 C 851 822 881 755 881 676 C 881 647 877 616 869 583 C 861 550 851 519 838 489 L 182 485 Z M 197 559 L 770 559 C 777 577 782 596 786 614 C 789 632 791 651 791 672 C 791 728 770 777 728 819 C 686 860 629 881 557 881 C 469 881 393 849 329 786 C 265 722 221 647 197 559 Z M 892 1415 C 860 1323 817 1240 765 1165 C 713 1090 646 1053 565 1053 C 475 1053 414 1091 383 1169 C 351 1246 334 1328 331 1415 L 387 1415 C 395 1310 416 1235 448 1191 C 480 1146 521 1124 571 1124 C 615 1124 658 1144 701 1184 C 743 1224 789 1301 837 1415 L 892 1415 Z" unicode="ĕ" />
<glyph horiz-adv-x="1004" d="M 811 0 L 78 0 L 328 1280 L 1061 1280 L 1044 1202 L 397 1202 L 297 678 L 838 678 L 823 602 L 283 602 L 180 78 L 827 78 L 811 0 Z M 796 1569 C 796 1549 789 1532 776 1516 C 762 1500 745 1493 724 1493 C 702 1493 685 1500 673 1516 C 660 1532 654 1549 654 1569 C 654 1587 660 1603 673 1618 C 685 1632 702 1640 724 1640 C 745 1640 762 1632 776 1618 C 789 1603 796 1587 796 1569 Z" unicode="Ė" />
<glyph horiz-adv-x="942" d="M 182 485 C 181 473 180 461 179 449 C 178 437 178 426 178 414 C 178 312 206 227 264 159 C 322 91 402 57 504 57 C 544 57 585 62 626 73 C 666 84 703 98 737 115 L 743 37 C 709 20 671 6 627 -4 C 583 -14 541 -20 500 -20 C 378 -20 280 20 204 101 C 128 181 90 282 90 403 C 90 547 134 676 224 789 C 313 901 426 958 563 958 C 655 958 731 930 791 876 C 851 822 881 755 881 676 C 881 647 877 616 869 583 C 861 550 851 519 838 489 L 182 485 Z M 197 559 L 770 559 C 777 577 782 596 786 614 C 789 632 791 651 791 672 C 791 728 770 777 728 819 C 686 860 629 881 557 881 C 469 881 393 849 329 786 C 265 722 221 647 197 559 Z M 657 1227 C 657 1207 650 1190 637 1174 C 623 1158 606 1151 585 1151 C 563 1151 546 1158 534 1174 C 521 1190 515 1207 515 1227 C 515 1245 521 1261 534 1276 C 546 1290 563 1298 585 1298 C 606 1298 623 1290 637 1276 C 650 1261 657 1245 657 1227 Z" unicode="ė" />
<glyph horiz-adv-x="1004" d="M 811 0 L 733 0 C 678 -40 635 -79 604 -117 C 572 -155 553 -196 545 -238 C 539 -270 543 -297 558 -319 C 572 -341 595 -354 625 -356 C 642 -357 660 -355 680 -350 C 700 -345 717 -338 733 -328 L 748 -395 C 731 -405 709 -414 683 -422 C 656 -429 628 -432 600 -430 C 552 -426 514 -407 488 -373 C 461 -339 453 -296 463 -244 C 472 -192 496 -145 536 -105 C 575 -64 618 -29 664 0 L 78 0 L 328 1280 L 1061 1280 L 1044 1202 L 397 1202 L 297 678 L 838 678 L 823 602 L 283 602 L 180 78 L 827 78 L 811 0 Z" unicode="Ę" />
<glyph horiz-adv-x="942" d="M 182 485 C 180 473 179 461 179 449 C 178 437 178 426 178 414 C 178 311 206 226 264 158 C 321 90 401 57 504 57 C 544 57 585 62 625 73 C 665 84 703 98 737 115 L 743 37 C 673 15 613 -24 561 -81 C 509 -137 478 -190 469 -238 C 463 -270 468 -298 482 -320 C 496 -342 519 -354 549 -356 C 566 -357 585 -355 605 -350 C 625 -344 642 -337 657 -328 L 672 -395 C 655 -405 633 -413 607 -421 C 580 -428 552 -431 524 -430 C 476 -426 439 -407 413 -373 C 386 -339 377 -296 387 -244 C 396 -197 417 -154 450 -116 C 483 -78 521 -44 563 -16 C 552 -17 541 -18 530 -19 C 519 -19 509 -20 500 -20 C 378 -20 279 20 203 100 C 127 180 90 281 90 403 C 90 548 134 677 224 789 C 313 901 426 958 563 958 C 655 958 731 930 791 876 C 851 822 881 755 881 676 C 881 647 877 616 869 584 C 861 551 851 519 838 489 L 182 485 Z M 197 559 L 770 559 C 776 577 781 595 785 613 C 789 631 791 651 791 672 C 791 729 770 778 728 819 C 686 860 629 881 557 881 C 469 881 393 849 329 785 C 265 721 221 646 197 559 Z" unicode="ę" />
<glyph horiz-adv-x="1004" d="M 811 0 L 78 0 L 328 1280 L 1061 1280 L 1044 1202 L 397 1202 L 297 678 L 838 678 L 823 602 L 283 602 L 180 78 L 827 78 L 811 0 Z M 464 1739 L 526 1739 L 679 1444 L 683 1444 L 952 1739 L 1025 1739 L 724 1376 L 622 1376 L 464 1739 Z" unicode="Ě" />
<glyph horiz-adv-x="942" d="M 182 485 C 181 473 180 461 179 449 C 178 437 178 426 178 414 C 178 312 206 227 264 159 C 322 91 402 57 504 57 C 544 57 585 62 626 73 C 666 84 703 98 737 115 L 743 37 C 709 20 671 6 627 -4 C 583 -14 541 -20 500 -20 C 378 -20 280 20 204 101 C 128 181 90 282 90 403 C 90 547 134 676 224 789 C 313 901 426 958 563 958 C 655 958 731 930 791 876 C 851 822 881 755 881 676 C 881 647 877 616 869 583 C 861 550 851 519 838 489 L 182 485 Z M 197 559 L 770 559 C 777 577 782 596 786 614 C 789 632 791 651 791 672 C 791 728 770 777 728 819 C 686 860 629 881 557 881 C 469 881 393 849 329 786 C 265 722 221 647 197 559 Z M 347 1397 L 409 1397 L 562 1102 L 566 1102 L 835 1397 L 908 1397 L 607 1034 L 505 1034 L 347 1397 Z" unicode="ě" />
<glyph horiz-adv-x="1239" d="M 1044 82 C 995 52 935 28 865 9 C 795 -10 732 -20 676 -20 C 502 -20 365 30 265 132 C 165 234 115 367 115 532 C 115 726 176 902 300 1061 C 423 1220 597 1300 821 1300 C 887 1300 954 1292 1021 1278 C 1088 1263 1151 1243 1210 1217 L 1194 1135 C 1146 1157 1087 1177 1017 1195 C 947 1213 881 1223 817 1223 C 620 1223 468 1151 361 1007 C 254 863 201 707 201 541 C 201 385 245 265 334 181 C 422 97 539 55 684 55 C 734 55 782 61 830 74 C 877 87 923 104 967 125 L 1047 543 L 702 543 L 719 618 L 1147 618 L 1044 82 Z M 1075 1397 L 1013 1397 L 860 1692 L 856 1692 L 587 1397 L 514 1397 L 815 1759 L 917 1759 L 1075 1397 Z" unicode="Ĝ" />
<glyph horiz-adv-x="942" d="M 236 338 C 203 364 176 398 155 440 C 133 482 123 530 123 584 C 123 694 162 783 242 853 C 322 923 409 958 504 958 C 548 958 586 953 620 943 C 653 933 683 920 709 903 L 997 922 L 1006 829 L 768 840 C 786 813 801 783 813 750 C 825 717 831 683 831 649 C 831 536 791 445 711 375 C 631 305 540 270 438 270 C 410 270 383 273 356 280 C 329 287 304 297 281 309 C 246 295 218 278 198 256 C 178 234 168 212 168 190 C 168 158 183 132 213 110 C 243 88 297 69 377 53 L 457 37 C 554 16 630 -13 686 -52 C 742 -90 770 -143 770 -211 C 770 -281 732 -348 657 -414 C 581 -479 464 -512 305 -512 C 183 -512 84 -487 8 -437 C -67 -387 -106 -321 -106 -238 C -106 -174 -83 -119 -37 -71 C 8 -23 76 14 166 41 C 144 51 125 67 109 91 C 92 114 84 140 84 170 C 84 210 98 245 128 275 C 158 305 194 326 236 338 Z M 240 8 C 152 -11 86 -41 44 -82 C 1 -123 -20 -173 -20 -231 C -20 -299 12 -351 77 -387 C 141 -422 221 -440 317 -440 C 425 -440 513 -419 583 -378 C 653 -336 688 -284 688 -221 C 688 -171 663 -131 614 -102 C 565 -72 491 -48 393 -29 C 369 -23 342 -17 312 -10 C 282 -2 258 3 240 8 Z M 446 338 C 534 338 606 368 664 429 C 721 489 750 558 750 635 C 750 712 727 774 682 821 C 636 867 575 891 498 891 C 420 891 352 861 292 801 C 232 741 203 670 203 590 C 203 516 225 456 270 409 C 315 361 374 338 446 338 Z M 805 1055 L 743 1055 L 590 1350 L 586 1350 L 317 1055 L 244 1055 L 545 1417 L 647 1417 L 805 1055 Z" unicode="ĝ" />
<glyph horiz-adv-x="1239" d="M 1044 82 C 995 52 935 28 865 9 C 795 -10 732 -20 676 -20 C 502 -20 365 30 265 132 C 165 234 115 367 115 532 C 115 726 176 902 300 1061 C 423 1220 597 1300 821 1300 C 887 1300 954 1292 1021 1278 C 1088 1263 1151 1243 1210 1217 L 1194 1135 C 1146 1157 1087 1177 1017 1195 C 947 1213 881 1223 817 1223 C 620 1223 468 1151 361 1007 C 254 863 201 707 201 541 C 201 385 245 265 334 181 C 422 97 539 55 684 55 C 734 55 782 61 830 74 C 877 87 923 104 967 125 L 1047 543 L 702 543 L 719 618 L 1147 618 L 1044 82 Z M 1107 1757 C 1075 1665 1032 1582 980 1507 C 928 1432 861 1395 780 1395 C 690 1395 629 1433 598 1511 C 566 1588 549 1670 546 1757 L 602 1757 C 610 1652 631 1577 663 1533 C 695 1488 736 1466 786 1466 C 830 1466 873 1486 916 1526 C 958 1566 1004 1643 1052 1757 L 1107 1757 Z" unicode="Ğ" />
<glyph horiz-adv-x="942" d="M 236 338 C 203 364 176 398 155 440 C 133 482 123 530 123 584 C 123 694 162 783 242 853 C 322 923 409 958 504 958 C 548 958 586 953 620 943 C 653 933 683 920 709 903 L 997 922 L 1006 829 L 768 840 C 786 813 801 783 813 750 C 825 717 831 683 831 649 C 831 536 791 445 711 375 C 631 305 540 270 438 270 C 410 270 383 273 356 280 C 329 287 304 297 281 309 C 246 295 218 278 198 256 C 178 234 168 212 168 190 C 168 158 183 132 213 110 C 243 88 297 69 377 53 L 457 37 C 554 16 630 -13 686 -52 C 742 -90 770 -143 770 -211 C 770 -281 732 -348 657 -414 C 581 -479 464 -512 305 -512 C 183 -512 84 -487 8 -437 C -67 -387 -106 -321 -106 -238 C -106 -174 -83 -119 -37 -71 C 8 -23 76 14 166 41 C 144 51 125 67 109 91 C 92 114 84 140 84 170 C 84 210 98 245 128 275 C 158 305 194 326 236 338 Z M 240 8 C 152 -11 86 -41 44 -82 C 1 -123 -20 -173 -20 -231 C -20 -299 12 -351 77 -387 C 141 -422 221 -440 317 -440 C 425 -440 513 -419 583 -378 C 653 -336 688 -284 688 -221 C 688 -171 663 -131 614 -102 C 565 -72 491 -48 393 -29 C 369 -23 342 -17 312 -10 C 282 -2 258 3 240 8 Z M 446 338 C 534 338 606 368 664 429 C 721 489 750 558 750 635 C 750 712 727 774 682 821 C 636 867 575 891 498 891 C 420 891 352 861 292 801 C 232 741 203 670 203 590 C 203 516 225 456 270 409 C 315 361 374 338 446 338 Z M 874 1415 C 842 1323 799 1240 747 1165 C 695 1090 628 1053 547 1053 C 457 1053 396 1091 365 1169 C 333 1246 316 1328 313 1415 L 369 1415 C 377 1310 398 1235 430 1191 C 462 1146 503 1124 553 1124 C 597 1124 640 1144 683 1184 C 725 1224 771 1301 819 1415 L 874 1415 Z" unicode="ğ" />
<glyph horiz-adv-x="1239" d="M 1044 82 C 995 52 935 28 865 9 C 795 -10 732 -20 676 -20 C 502 -20 365 30 265 132 C 165 234 115 367 115 532 C 115 726 176 902 300 1061 C 423 1220 597 1300 821 1300 C 887 1300 954 1292 1021 1278 C 1088 1263 1151 1243 1210 1217 L 1194 1135 C 1146 1157 1087 1177 1017 1195 C 947 1213 881 1223 817 1223 C 620 1223 468 1151 361 1007 C 254 863 201 707 201 541 C 201 385 245 265 334 181 C 422 97 539 55 684 55 C 734 55 782 61 830 74 C 877 87 923 104 967 125 L 1047 543 L 702 543 L 719 618 L 1147 618 L 1044 82 Z M 878 1569 C 878 1549 871 1532 858 1516 C 844 1500 827 1493 806 1493 C 784 1493 767 1500 755 1516 C 742 1532 736 1549 736 1569 C 736 1587 742 1603 755 1618 C 767 1632 784 1640 806 1640 C 827 1640 844 1632 858 1618 C 871 1603 878 1587 878 1569 Z" unicode="Ġ" />
<glyph horiz-adv-x="942" d="M 236 338 C 203 364 176 398 155 440 C 133 482 123 530 123 584 C 123 694 162 783 242 853 C 322 923 409 958 504 958 C 548 958 586 953 620 943 C 653 933 683 920 709 903 L 997 922 L 1006 829 L 768 840 C 786 813 801 783 813 750 C 825 717 831 683 831 649 C 831 536 791 445 711 375 C 631 305 540 270 438 270 C 410 270 383 273 356 280 C 329 287 304 297 281 309 C 246 295 218 278 198 256 C 178 234 168 212 168 190 C 168 158 183 132 213 110 C 243 88 297 69 377 53 L 457 37 C 554 16 630 -13 686 -52 C 742 -90 770 -143 770 -211 C 770 -281 732 -348 657 -414 C 581 -479 464 -512 305 -512 C 183 -512 84 -487 8 -437 C -67 -387 -106 -321 -106 -238 C -106 -174 -83 -119 -37 -71 C 8 -23 76 14 166 41 C 144 51 125 67 109 91 C 92 114 84 140 84 170 C 84 210 98 245 128 275 C 158 305 194 326 236 338 Z M 240 8 C 152 -11 86 -41 44 -82 C 1 -123 -20 -173 -20 -231 C -20 -299 12 -351 77 -387 C 141 -422 221 -440 317 -440 C 425 -440 513 -419 583 -378 C 653 -336 688 -284 688 -221 C 688 -171 663 -131 614 -102 C 565 -72 491 -48 393 -29 C 369 -23 342 -17 312 -10 C 282 -2 258 3 240 8 Z M 446 338 C 534 338 606 368 664 429 C 721 489 750 558 750 635 C 750 712 727 774 682 821 C 636 867 575 891 498 891 C 420 891 352 861 292 801 C 232 741 203 670 203 590 C 203 516 225 456 270 409 C 315 361 374 338 446 338 Z M 629 1227 C 629 1207 622 1190 609 1174 C 595 1158 578 1151 557 1151 C 535 1151 518 1158 506 1174 C 493 1190 487 1207 487 1227 C 487 1245 493 1261 506 1276 C 518 1290 535 1298 557 1298 C 578 1298 595 1290 609 1276 C 622 1261 629 1245 629 1227 Z" unicode="ġ" />
<glyph horiz-adv-x="1239" d="M 1044 82 C 995 52 935 28 865 9 C 795 -10 732 -20 676 -20 C 502 -20 365 30 265 132 C 165 234 115 367 115 532 C 115 726 176 902 300 1061 C 423 1220 597 1300 821 1300 C 887 1300 954 1292 1021 1278 C 1088 1263 1151 1243 1210 1217 L 1194 1135 C 1146 1157 1087 1177 1017 1195 C 947 1213 881 1223 817 1223 C 620 1223 468 1151 361 1007 C 254 863 201 707 201 541 C 201 385 245 265 334 181 C 422 97 539 55 684 55 C 734 55 782 61 830 74 C 877 87 923 104 967 125 L 1047 543 L 702 543 L 719 618 L 1147 618 L 1044 82 Z M 514 -178 C 516 -158 526 -142 544 -131 C 562 -119 583 -115 608 -117 C 635 -119 656 -132 670 -158 C 684 -183 688 -212 682 -244 C 673 -285 651 -326 615 -366 C 579 -406 535 -441 483 -471 L 454 -438 C 501 -408 534 -380 554 -353 C 574 -326 586 -300 591 -274 C 596 -248 591 -228 577 -214 C 563 -200 542 -188 514 -178 Z" unicode="Ģ" />
<glyph horiz-adv-x="942" d="M 236 338 C 203 364 176 398 155 440 C 133 482 123 530 123 584 C 123 694 162 783 242 853 C 322 923 409 958 504 958 C 548 958 586 953 620 943 C 653 933 683 920 709 903 L 997 922 L 1006 829 L 768 840 C 786 813 801 783 813 750 C 825 717 831 683 831 649 C 831 536 791 445 711 375 C 631 305 540 270 438 270 C 410 270 383 273 356 280 C 329 287 304 297 281 309 C 246 295 218 278 198 256 C 178 234 168 212 168 190 C 168 158 183 132 213 110 C 243 88 297 69 377 53 L 457 37 C 554 16 630 -13 686 -52 C 742 -90 770 -143 770 -211 C 770 -281 732 -348 657 -414 C 581 -479 464 -512 305 -512 C 183 -512 84 -487 8 -437 C -67 -387 -106 -321 -106 -238 C -106 -174 -83 -119 -37 -71 C 8 -23 76 14 166 41 C 144 51 125 67 109 91 C 92 114 84 140 84 170 C 84 210 98 245 128 275 C 158 305 194 326 236 338 Z M 240 8 C 152 -11 86 -41 44 -82 C 1 -123 -20 -173 -20 -231 C -20 -299 12 -351 77 -387 C 141 -422 221 -440 317 -440 C 425 -440 513 -419 583 -378 C 653 -336 688 -284 688 -221 C 688 -171 663 -131 614 -102 C 565 -72 491 -48 393 -29 C 369 -23 342 -17 312 -10 C 282 -2 258 3 240 8 Z M 446 338 C 534 338 606 368 664 429 C 721 489 750 558 750 635 C 750 712 727 774 682 821 C 636 867 575 891 498 891 C 420 891 352 861 292 801 C 232 741 203 670 203 590 C 203 516 225 456 270 409 C 315 361 374 338 446 338 Z M 663 1135 C 660 1115 650 1100 632 1088 C 614 1077 593 1072 569 1074 C 541 1076 521 1090 507 1115 C 493 1141 489 1169 495 1201 C 503 1243 526 1284 562 1324 C 598 1364 642 1399 694 1428 L 723 1395 C 675 1366 642 1338 622 1311 C 602 1284 590 1257 586 1231 C 580 1206 585 1186 599 1172 C 613 1158 635 1145 663 1135 Z" unicode="ģ" />
<glyph horiz-adv-x="1307" d="M 1049 0 L 963 0 L 1079 604 L 281 604 L 164 0 L 78 0 L 326 1280 L 412 1280 L 297 682 L 1096 682 L 1210 1280 L 1296 1280 L 1049 0 Z M 1091 1397 L 1029 1397 L 876 1692 L 872 1692 L 603 1397 L 530 1397 L 831 1759 L 933 1759 L 1091 1397 Z" unicode="Ĥ" />
<glyph horiz-adv-x="1008" d="M 774 0 L 690 0 L 803 582 C 807 607 811 628 813 645 C 815 661 817 676 817 690 C 817 748 800 795 766 831 C 732 867 680 885 612 885 C 560 885 507 871 453 845 C 399 818 345 783 289 739 L 145 0 L 61 0 L 330 1380 L 420 1407 L 305 819 C 357 861 411 894 468 920 C 524 945 581 958 639 958 C 720 958 784 934 832 888 C 879 842 903 781 903 705 C 903 689 901 672 899 653 C 897 634 893 612 889 586 L 774 0 Z M 665 1397 L 603 1397 L 450 1692 L 446 1692 L 177 1397 L 104 1397 L 405 1759 L 507 1759 L 665 1397 Z" unicode="ĥ" />
<glyph horiz-adv-x="1307" d="M 1049 0 L 963 0 L 1079 604 L 281 604 L 164 0 L 78 0 L 258 936 L 123 936 L 141 999 L 272 999 L 326 1280 L 412 1280 L 358 999 L 1157 999 L 1210 1280 L 1296 1280 L 1243 999 L 1366 999 L 1360 936 L 1229 936 L 1049 0 Z M 297 682 L 1096 682 L 1145 936 L 346 936 L 297 682 Z" unicode="Ħ" />
<glyph horiz-adv-x="1008" d="M 774 0 L 690 0 L 803 582 C 807 607 811 628 813 645 C 815 661 817 676 817 690 C 817 748 800 795 766 831 C 732 867 680 885 612 885 C 560 885 507 871 453 845 C 399 818 345 783 289 739 L 145 0 L 61 0 L 272 1092 L 131 1092 L 152 1169 L 289 1169 L 330 1380 L 420 1407 L 373 1169 L 621 1169 L 612 1092 L 358 1092 L 305 819 C 357 861 411 894 468 920 C 524 945 581 958 639 958 C 720 958 784 934 832 888 C 879 842 903 781 903 705 C 903 689 901 672 899 653 C 897 634 893 612 889 586 L 774 0 Z" unicode="ħ" />
<glyph horiz-adv-x="426" d="M 162 0 L 76 0 L 326 1280 L 412 1280 L 162 0 Z M 642 1434 L 161 1434 L 181 1511 L 650 1511 L 642 1434 Z" unicode="Ī" />
<glyph horiz-adv-x="397" d="M 150 0 L 66 0 L 246 932 L 334 958 L 150 0 Z M 571 1092 L 90 1092 L 110 1169 L 579 1169 L 571 1092 Z" unicode="ī" />
<glyph horiz-adv-x="426" d="M 162 0 L 76 0 L 326 1280 L 412 1280 L 162 0 Z M 718 1757 C 686 1665 643 1582 591 1507 C 539 1432 472 1395 391 1395 C 301 1395 240 1433 209 1511 C 177 1588 160 1670 157 1757 L 213 1757 C 221 1652 242 1577 274 1533 C 306 1488 347 1466 397 1466 C 441 1466 484 1486 527 1526 C 569 1566 615 1643 663 1757 L 718 1757 Z" unicode="Ĭ" />
<glyph horiz-adv-x="397" d="M 150 0 L 66 0 L 246 932 L 334 958 L 150 0 Z M 640 1415 C 608 1323 565 1240 513 1165 C 461 1090 394 1053 313 1053 C 223 1053 162 1091 131 1169 C 99 1246 82 1328 79 1415 L 135 1415 C 143 1310 164 1235 196 1191 C 228 1146 269 1124 319 1124 C 363 1124 406 1144 449 1184 C 491 1224 537 1301 585 1415 L 640 1415 Z" unicode="ĭ" />
<glyph horiz-adv-x="426" d="M 29 -430 C -19 -426 -56 -407 -83 -373 C -110 -339 -119 -296 -109 -244 C -98 -192 -73 -145 -35 -104 C 3 -63 46 -28 92 0 L 76 0 L 326 1280 L 412 1280 L 162 0 C 108 -40 65 -79 33 -117 C 1 -155 -18 -196 -27 -238 C -33 -270 -28 -297 -13 -319 C 1 -341 23 -354 53 -356 C 70 -357 89 -355 109 -350 C 129 -345 146 -338 162 -328 L 176 -395 C 160 -405 138 -414 111 -422 C 84 -429 57 -432 29 -430 Z" unicode="Į" />
<glyph horiz-adv-x="397" d="M 16 -430 C -31 -426 -68 -407 -95 -373 C -122 -339 -131 -296 -121 -244 C -111 -192 -86 -146 -47 -105 C -8 -64 33 -29 78 0 L 66 0 L 246 932 L 334 958 L 150 0 C 94 -40 51 -79 20 -117 C -11 -155 -31 -196 -39 -238 C -45 -270 -40 -297 -25 -319 C -10 -341 11 -354 41 -356 C 58 -357 77 -355 97 -350 C 117 -345 134 -338 150 -328 L 164 -395 C 147 -405 125 -414 99 -422 C 72 -429 44 -432 16 -430 Z M 422 1227 C 422 1205 414 1186 400 1170 C 386 1153 367 1145 344 1145 C 320 1145 302 1153 288 1170 C 274 1186 268 1205 268 1227 C 268 1247 274 1265 287 1281 C 300 1297 318 1305 342 1305 C 365 1305 384 1297 399 1281 C 414 1265 422 1247 422 1227 Z" unicode="į" />
<glyph horiz-adv-x="426" d="M 162 0 L 76 0 L 326 1280 L 412 1280 L 162 0 Z M 497 1569 C 497 1549 490 1532 477 1516 C 463 1500 446 1493 425 1493 C 403 1493 386 1500 374 1516 C 361 1532 355 1549 355 1569 C 355 1587 361 1603 374 1618 C 386 1632 403 1640 425 1640 C 446 1640 463 1632 477 1618 C 490 1603 497 1587 497 1569 Z" unicode="İ" />
<glyph horiz-adv-x="397" d="M 150 0 L 66 0 L 246 932 L 334 958 L 150 0 Z" unicode="ı" />
<glyph horiz-adv-x="840" d="M 682 354 C 659 240 614 149 548 81 C 482 13 391 -20 276 -20 C 209 -20 146 -8 88 15 C 30 38 -16 64 -51 94 L -18 170 C 23 136 69 109 120 88 C 171 67 223 57 276 57 C 360 57 430 82 484 134 C 538 186 576 265 598 373 L 774 1280 L 860 1280 L 682 354 Z M 1101 1397 L 1039 1397 L 886 1692 L 882 1692 L 613 1397 L 540 1397 L 841 1759 L 943 1759 L 1101 1397 Z" unicode="Ĵ" />
<glyph horiz-adv-x="395" d="M -180 -514 L -227 -449 C -145 -416 -83 -374 -43 -324 C -2 -273 27 -200 45 -104 L 246 932 L 334 958 L 125 -125 C 103 -233 68 -317 20 -377 C -28 -437 -95 -482 -180 -514 Z M 614 1055 L 552 1055 L 399 1350 L 395 1350 L 126 1055 L 53 1055 L 354 1417 L 456 1417 L 614 1055 Z" unicode="ĵ" />
<glyph horiz-adv-x="1034" d="M 293 662 L 295 662 L 1059 1280 L 1178 1280 L 371 635 L 924 0 L 821 0 L 285 616 L 283 616 L 164 0 L 78 0 L 326 1280 L 412 1280 L 293 662 Z M 409 -178 C 411 -158 421 -142 439 -131 C 457 -119 478 -115 503 -117 C 530 -119 551 -132 565 -158 C 579 -183 583 -212 577 -244 C 568 -285 546 -326 510 -366 C 474 -406 430 -441 378 -471 L 349 -438 C 396 -408 429 -380 449 -353 C 469 -326 481 -300 486 -274 C 491 -248 486 -228 472 -214 C 458 -200 437 -188 409 -178 Z" unicode="Ķ" />
<glyph horiz-adv-x="844" d="M 244 487 L 240 487 L 145 0 L 61 0 L 330 1380 L 420 1407 L 246 520 L 250 520 L 768 938 L 893 938 L 332 498 L 725 0 L 621 0 L 244 487 Z M 231 -178 C 233 -158 243 -142 261 -131 C 279 -119 300 -115 325 -117 C 352 -119 373 -132 387 -158 C 401 -183 405 -212 399 -244 C 390 -285 368 -326 332 -366 C 296 -406 252 -441 200 -471 L 171 -438 C 218 -408 251 -380 271 -353 C 291 -326 303 -300 308 -274 C 313 -248 308 -228 294 -214 C 280 -200 259 -188 231 -178 Z" unicode="ķ" />
<glyph horiz-adv-x="944" d="M 811 0 L 78 0 L 328 1280 L 414 1280 L 180 78 L 827 78 L 811 0 Z M 808 1759 L 413 1397 L 343 1397 L 683 1759 L 808 1759 Z" unicode="Ĺ" />
<glyph horiz-adv-x="385" d="M 145 0 L 61 0 L 330 1380 L 420 1407 L 145 0 Z M 810 1847 L 415 1485 L 345 1485 L 685 1847 L 810 1847 Z" unicode="ĺ" />
<glyph horiz-adv-x="944" d="M 811 0 L 78 0 L 328 1280 L 414 1280 L 180 78 L 827 78 L 811 0 Z M 369 -178 C 371 -158 381 -142 399 -131 C 417 -119 438 -115 463 -117 C 490 -119 511 -132 525 -158 C 539 -183 543 -212 537 -244 C 528 -285 506 -326 470 -366 C 434 -406 390 -441 338 -471 L 309 -438 C 356 -408 389 -380 409 -353 C 429 -326 441 -300 446 -274 C 451 -248 446 -228 432 -214 C 418 -200 397 -188 369 -178 Z" unicode="Ļ" />
<glyph horiz-adv-x="385" d="M 145 0 L 61 0 L 330 1380 L 420 1407 L 145 0 Z M -17 -178 C -14 -158 -4 -142 13 -131 C 31 -119 52 -115 77 -117 C 104 -119 125 -132 139 -158 C 153 -183 157 -212 151 -244 C 142 -285 120 -326 84 -366 C 48 -406 4 -441 -48 -471 L -77 -438 C -29 -408 3 -380 23 -353 C 43 -326 55 -300 60 -274 C 65 -248 60 -228 46 -214 C 32 -200 11 -188 -17 -178 Z" unicode="ļ" />
<glyph horiz-adv-x="1102" d="M 811 0 L 78 0 L 328 1280 L 414 1280 L 180 78 L 827 78 L 811 0 Z M 964 1197 C 968 1214 978 1230 996 1246 C 1014 1261 1034 1269 1056 1269 C 1084 1269 1109 1256 1129 1232 C 1149 1208 1159 1180 1159 1148 C 1159 1086 1131 1027 1076 971 C 1021 915 959 872 890 841 L 860 878 C 928 916 977 954 1009 993 C 1040 1032 1056 1070 1056 1107 C 1056 1126 1048 1143 1032 1158 C 1016 1173 993 1186 964 1197 Z" unicode="Ľ" />
<glyph horiz-adv-x="698" d="M 145 0 L 61 0 L 330 1380 L 420 1407 L 145 0 Z M 618 1338 C 622 1355 632 1371 650 1387 C 668 1402 688 1410 710 1410 C 738 1410 763 1397 783 1373 C 803 1349 813 1321 813 1289 C 813 1227 785 1168 730 1112 C 675 1056 613 1013 544 982 L 514 1019 C 582 1057 631 1095 663 1134 C 694 1173 710 1211 710 1248 C 710 1267 702 1284 686 1299 C 670 1314 647 1327 618 1338 Z" unicode="ľ" />
<glyph horiz-adv-x="1051" d="M 811 0 L 78 0 L 328 1280 L 414 1280 L 180 78 L 827 78 L 811 0 Z M 1098 641 C 1098 620 1091 602 1077 586 C 1063 570 1045 563 1024 563 C 1002 563 985 570 972 586 C 958 602 952 620 952 641 C 952 660 958 677 972 692 C 985 707 1002 715 1024 715 C 1045 715 1063 707 1077 692 C 1091 677 1098 660 1098 641 Z" unicode="Ŀ" />
<glyph horiz-adv-x="604" d="M 145 0 L 61 0 L 330 1380 L 420 1407 L 145 0 Z M 657 641 C 657 620 650 602 636 586 C 622 570 604 563 583 563 C 561 563 544 570 531 586 C 517 602 511 620 511 641 C 511 660 517 677 531 692 C 544 707 561 715 583 715 C 604 715 622 707 636 692 C 650 677 657 660 657 641 Z" unicode="ŀ" />
<glyph horiz-adv-x="985" d="M 311 551 L 221 80 L 868 80 L 852 0 L 119 0 L 221 526 L 57 481 L 57 557 L 238 606 L 369 1280 L 455 1280 L 328 631 L 627 713 L 627 637 C 627 637 574 622 470 594 C 365 565 312 551 311 551 Z" unicode="Ł" />
<glyph horiz-adv-x="467" d="M 293 551 L 186 0 L 102 0 L 205 526 L 39 481 L 39 557 L 219 606 C 220 606 246 735 296 993 C 346 1251 371 1380 371 1380 L 461 1407 L 309 631 L 475 676 L 475 600 L 293 551 Z" unicode="ł" />
<glyph horiz-adv-x="1284" d="M 973 100 L 1200 1280 L 1282 1280 L 1030 -12 L 936 -12 L 385 1178 L 160 0 L 78 0 L 326 1280 L 426 1280 L 973 100 Z M 1173 1759 L 778 1397 L 708 1397 L 1048 1759 L 1173 1759 Z" unicode="Ń" />
<glyph horiz-adv-x="1008" d="M 774 0 L 690 0 L 803 582 C 807 607 811 628 813 645 C 815 661 817 676 817 690 C 817 748 800 795 766 831 C 732 867 680 885 612 885 C 561 885 508 871 454 843 C 400 815 345 779 289 735 L 145 0 L 61 0 L 242 932 L 332 958 L 305 819 C 357 861 411 894 468 920 C 524 945 581 958 639 958 C 720 958 784 934 832 888 C 879 842 903 781 903 705 C 903 689 901 670 898 648 C 895 626 891 601 887 575 L 774 0 Z M 890 1417 L 495 1055 L 425 1055 L 765 1417 L 890 1417 Z" unicode="ń" />
<glyph horiz-adv-x="1284" d="M 973 100 L 1200 1280 L 1282 1280 L 1030 -12 L 936 -12 L 385 1178 L 160 0 L 78 0 L 326 1280 L 426 1280 L 973 100 Z M 471 -178 C 473 -158 483 -142 501 -131 C 519 -119 540 -115 565 -117 C 592 -119 613 -132 627 -158 C 641 -183 645 -212 639 -244 C 630 -285 608 -326 572 -366 C 536 -406 492 -441 440 -471 L 411 -438 C 458 -408 491 -380 511 -353 C 531 -326 543 -300 548 -274 C 553 -248 548 -228 534 -214 C 520 -200 499 -188 471 -178 Z" unicode="Ņ" />
<glyph horiz-adv-x="1008" d="M 774 0 L 690 0 L 803 582 C 807 607 811 628 813 645 C 815 661 817 676 817 690 C 817 748 800 795 766 831 C 732 867 680 885 612 885 C 561 885 508 871 454 843 C 400 815 345 779 289 735 L 145 0 L 61 0 L 242 932 L 332 958 L 305 819 C 357 861 411 894 468 920 C 524 945 581 958 639 958 C 720 958 784 934 832 888 C 879 842 903 781 903 705 C 903 689 901 670 898 648 C 895 626 891 601 887 575 L 774 0 Z M 295 -178 C 297 -158 307 -142 325 -131 C 343 -119 364 -115 389 -117 C 416 -119 437 -132 451 -158 C 465 -183 469 -212 463 -244 C 454 -285 432 -326 396 -366 C 360 -406 316 -441 264 -471 L 235 -438 C 282 -408 315 -380 335 -353 C 355 -326 367 -300 372 -274 C 377 -248 372 -228 358 -214 C 344 -200 323 -188 295 -178 Z" unicode="ņ" />
<glyph horiz-adv-x="1284" d="M 973 100 L 1200 1280 L 1282 1280 L 1030 -12 L 936 -12 L 385 1178 L 160 0 L 78 0 L 326 1280 L 426 1280 L 973 100 Z M 591 1739 L 653 1739 L 806 1444 L 810 1444 L 1079 1739 L 1152 1739 L 851 1376 L 749 1376 L 591 1739 Z" unicode="Ň" />
<glyph horiz-adv-x="1008" d="M 774 0 L 690 0 L 803 582 C 807 607 811 628 813 645 C 815 661 817 676 817 690 C 817 748 800 795 766 831 C 732 867 680 885 612 885 C 561 885 508 871 454 843 C 400 815 345 779 289 735 L 145 0 L 61 0 L 242 932 L 332 958 L 305 819 C 357 861 411 894 468 920 C 524 945 581 958 639 958 C 720 958 784 934 832 888 C 879 842 903 781 903 705 C 903 689 901 670 898 648 C 895 626 891 601 887 575 L 774 0 Z M 341 1397 L 403 1397 L 556 1102 L 560 1102 L 829 1397 L 902 1397 L 601 1034 L 499 1034 L 341 1397 Z" unicode="ň" />
<glyph horiz-adv-x="1417" d="M 1378 725 C 1378 531 1312 359 1180 207 C 1048 55 882 -20 682 -20 C 518 -20 383 35 278 147 C 173 258 121 396 121 561 C 121 755 186 927 318 1076 C 450 1225 616 1300 817 1300 C 981 1300 1115 1245 1220 1135 C 1325 1025 1378 889 1378 725 Z M 1292 723 C 1292 865 1246 985 1156 1082 C 1065 1178 948 1227 805 1227 C 628 1227 484 1157 373 1019 C 262 881 207 728 207 561 C 207 419 251 300 341 202 C 430 104 547 55 692 55 C 867 55 1011 124 1123 264 C 1235 404 1292 557 1292 723 Z M 1097 1434 L 616 1434 L 636 1511 L 1105 1511 L 1097 1434 Z" unicode="Ō" />
<glyph horiz-adv-x="1090" d="M 1004 532 C 1004 386 956 258 860 148 C 764 37 640 -18 489 -18 C 366 -18 268 21 195 101 C 122 180 86 281 86 403 C 86 549 134 677 230 789 C 326 900 449 956 600 956 C 723 956 821 916 894 836 C 967 756 1004 654 1004 532 Z M 918 524 C 918 625 890 710 834 779 C 778 848 698 883 594 883 C 466 883 364 833 287 734 C 210 635 172 526 172 408 C 172 306 200 222 257 155 C 314 88 394 55 496 55 C 623 55 725 103 802 199 C 879 295 918 404 918 524 Z M 888 1092 L 407 1092 L 427 1169 L 896 1169 L 888 1092 Z" unicode="ō" />
<glyph horiz-adv-x="1417" d="M 1378 725 C 1378 531 1312 359 1180 207 C 1048 55 882 -20 682 -20 C 518 -20 383 35 278 147 C 173 258 121 396 121 561 C 121 755 186 927 318 1076 C 450 1225 616 1300 817 1300 C 981 1300 1115 1245 1220 1135 C 1325 1025 1378 889 1378 725 Z M 1292 723 C 1292 865 1246 985 1156 1082 C 1065 1178 948 1227 805 1227 C 628 1227 484 1157 373 1019 C 262 881 207 728 207 561 C 207 419 251 300 341 202 C 430 104 547 55 692 55 C 867 55 1011 124 1123 264 C 1235 404 1292 557 1292 723 Z M 1175 1757 C 1143 1665 1100 1582 1048 1507 C 996 1432 929 1395 848 1395 C 758 1395 697 1433 666 1511 C 634 1588 617 1670 614 1757 L 670 1757 C 678 1652 699 1577 731 1533 C 763 1488 804 1466 854 1466 C 898 1466 941 1486 984 1526 C 1026 1566 1072 1643 1120 1757 L 1175 1757 Z" unicode="Ŏ" />
<glyph horiz-adv-x="1090" d="M 1004 532 C 1004 386 956 258 860 148 C 764 37 640 -18 489 -18 C 366 -18 268 21 195 101 C 122 180 86 281 86 403 C 86 549 134 677 230 789 C 326 900 449 956 600 956 C 723 956 821 916 894 836 C 967 756 1004 654 1004 532 Z M 918 524 C 918 625 890 710 834 779 C 778 848 698 883 594 883 C 466 883 364 833 287 734 C 210 635 172 526 172 408 C 172 306 200 222 257 155 C 314 88 394 55 496 55 C 623 55 725 103 802 199 C 879 295 918 404 918 524 Z M 962 1415 C 930 1323 887 1240 835 1165 C 783 1090 716 1053 635 1053 C 545 1053 484 1091 453 1169 C 421 1246 404 1328 401 1415 L 457 1415 C 465 1310 486 1235 518 1191 C 550 1146 591 1124 641 1124 C 685 1124 728 1144 771 1184 C 813 1224 859 1301 907 1415 L 962 1415 Z" unicode="ŏ" />
<glyph horiz-adv-x="1417" d="M 1378 725 C 1378 531 1312 359 1180 207 C 1048 55 882 -20 682 -20 C 518 -20 383 35 278 147 C 173 258 121 396 121 561 C 121 755 186 927 318 1076 C 450 1225 616 1300 817 1300 C 981 1300 1115 1245 1220 1135 C 1325 1025 1378 889 1378 725 Z M 1292 723 C 1292 865 1246 985 1156 1082 C 1065 1178 948 1227 805 1227 C 628 1227 484 1157 373 1019 C 262 881 207 728 207 561 C 207 419 251 300 341 202 C 430 104 547 55 692 55 C 867 55 1011 124 1123 264 C 1235 404 1292 557 1292 723 Z M 990 1739 L 642 1376 L 570 1376 L 884 1739 L 990 1739 Z M 1293 1739 L 945 1376 L 874 1376 L 1187 1739 L 1293 1739 Z" unicode="Ő" />
<glyph horiz-adv-x="1090" d="M 1004 532 C 1004 386 956 258 860 148 C 764 37 640 -18 489 -18 C 366 -18 268 21 195 101 C 122 180 86 281 86 403 C 86 549 134 677 230 789 C 326 900 449 956 600 956 C 723 956 821 916 894 836 C 967 756 1004 654 1004 532 Z M 918 524 C 918 625 890 710 834 779 C 778 848 698 883 594 883 C 466 883 364 833 287 734 C 210 635 172 526 172 408 C 172 306 200 222 257 155 C 314 88 394 55 496 55 C 623 55 725 103 802 199 C 879 295 918 404 918 524 Z M 765 1397 L 417 1034 L 345 1034 L 659 1397 L 765 1397 Z M 1068 1397 L 720 1034 L 649 1034 L 962 1397 L 1068 1397 Z" unicode="ő" />
<glyph horiz-adv-x="1837" d="M 1892 1280 L 1878 1202 L 1231 1202 L 1130 680 L 1671 680 L 1655 602 L 1114 602 L 1012 78 L 1659 78 L 1645 0 L 756 0 C 583 0 439 48 324 146 C 209 243 152 379 152 555 C 152 755 218 926 351 1068 C 483 1209 675 1280 926 1280 L 1892 1280 Z M 244 561 C 244 409 291 290 387 205 C 483 120 611 78 772 78 L 926 78 L 1143 1202 L 918 1202 C 730 1202 570 1148 440 1040 C 309 932 244 773 244 561 Z" unicode="Œ" />
<glyph horiz-adv-x="1763" d="M 934 256 C 892 175 832 109 755 58 C 677 7 589 -18 489 -18 C 366 -18 268 21 195 101 C 122 180 86 281 86 403 C 86 549 134 677 230 789 C 326 900 449 956 600 956 C 696 956 776 931 842 882 C 908 832 953 767 979 686 C 1019 765 1074 830 1144 881 C 1214 932 1294 958 1384 958 C 1477 958 1553 930 1613 876 C 1672 822 1702 755 1702 676 C 1702 647 1698 616 1690 583 C 1682 550 1672 519 1659 489 L 1004 485 C 1002 473 1001 461 1000 449 C 999 437 999 426 999 414 C 999 312 1027 227 1085 159 C 1143 91 1223 57 1325 57 C 1365 57 1406 62 1447 73 C 1487 84 1525 98 1559 115 L 1565 37 C 1531 20 1492 6 1449 -4 C 1405 -14 1363 -20 1321 -20 C 1226 -20 1144 5 1076 56 C 1008 106 960 173 934 256 Z M 172 408 C 172 306 200 222 257 155 C 314 88 394 55 496 55 C 623 55 725 103 802 199 C 879 295 918 404 918 524 C 918 625 890 710 834 779 C 778 848 698 883 594 883 C 466 883 364 833 287 734 C 210 635 172 526 172 408 Z M 1018 559 L 1591 559 C 1598 577 1603 596 1607 614 C 1610 632 1612 651 1612 672 C 1612 728 1591 777 1549 819 C 1507 860 1450 881 1378 881 C 1290 881 1215 849 1151 786 C 1087 722 1042 647 1018 559 Z" unicode="œ" />
<glyph horiz-adv-x="1051" d="M 266 530 L 164 0 L 78 0 L 326 1280 L 584 1280 C 733 1280 842 1246 912 1178 C 981 1110 1016 1030 1016 940 C 1016 826 974 737 890 673 C 806 609 721 571 635 557 L 872 0 L 782 0 L 553 547 L 266 530 Z M 283 606 L 508 610 C 606 613 700 640 790 690 C 880 740 926 820 926 932 C 926 1010 898 1075 843 1126 C 787 1176 700 1202 580 1202 L 397 1202 L 283 606 Z M 933 1759 L 538 1397 L 468 1397 L 808 1759 L 933 1759 Z" unicode="Ŕ" />
<glyph horiz-adv-x="676" d="M 260 590 L 145 0 L 61 0 L 242 932 L 332 958 L 293 760 C 326 818 366 866 414 903 C 462 939 513 958 567 958 C 601 958 634 953 665 945 C 696 937 723 926 745 913 L 723 834 C 706 844 683 854 655 865 C 626 875 595 881 563 881 C 506 881 452 856 402 807 C 351 757 304 685 260 590 Z M 880 1417 L 485 1055 L 415 1055 L 755 1417 L 880 1417 Z" unicode="ŕ" />
<glyph horiz-adv-x="1051" d="M 266 530 L 164 0 L 78 0 L 326 1280 L 584 1280 C 733 1280 842 1246 912 1178 C 981 1110 1016 1030 1016 940 C 1016 826 974 737 890 673 C 806 609 721 571 635 557 L 872 0 L 782 0 L 553 547 L 266 530 Z M 283 606 L 508 610 C 606 613 700 640 790 690 C 880 740 926 820 926 932 C 926 1010 898 1075 843 1126 C 787 1176 700 1202 580 1202 L 397 1202 L 283 606 Z M 373 -178 C 375 -158 385 -142 403 -131 C 421 -119 442 -115 467 -117 C 494 -119 515 -132 529 -158 C 543 -183 547 -212 541 -244 C 532 -285 510 -326 474 -366 C 438 -406 394 -441 342 -471 L 313 -438 C 360 -408 393 -380 413 -353 C 433 -326 445 -300 450 -274 C 455 -248 450 -228 436 -214 C 422 -200 401 -188 373 -178 Z" unicode="Ŗ" />
<glyph horiz-adv-x="676" d="M 260 590 L 145 0 L 61 0 L 242 932 L 332 958 L 293 760 C 326 818 366 866 414 903 C 462 939 513 958 567 958 C 601 958 634 953 665 945 C 696 937 723 926 745 913 L 723 834 C 706 844 683 854 655 865 C 626 875 595 881 563 881 C 506 881 452 856 402 807 C 351 757 304 685 260 590 Z M 0 -178 C 2 -158 12 -142 30 -131 C 48 -119 69 -115 94 -117 C 121 -119 142 -132 156 -158 C 170 -183 174 -212 168 -244 C 159 -285 137 -326 101 -366 C 65 -406 21 -441 -31 -471 L -60 -438 C -12 -408 20 -380 40 -353 C 60 -326 72 -300 77 -274 C 82 -248 77 -228 63 -214 C 49 -200 28 -188 0 -178 Z" unicode="ŗ" />
<glyph horiz-adv-x="1051" d="M 266 530 L 164 0 L 78 0 L 326 1280 L 584 1280 C 733 1280 842 1246 912 1178 C 981 1110 1016 1030 1016 940 C 1016 826 974 737 890 673 C 806 609 721 571 635 557 L 872 0 L 782 0 L 553 547 L 266 530 Z M 283 606 L 508 610 C 606 613 700 640 790 690 C 880 740 926 820 926 932 C 926 1010 898 1075 843 1126 C 787 1176 700 1202 580 1202 L 397 1202 L 283 606 Z M 384 1739 L 446 1739 L 599 1444 L 603 1444 L 872 1739 L 945 1739 L 644 1376 L 542 1376 L 384 1739 Z" unicode="Ř" />
<glyph horiz-adv-x="676" d="M 260 590 L 145 0 L 61 0 L 242 932 L 332 958 L 293 760 C 326 818 366 866 414 903 C 462 939 513 958 567 958 C 601 958 634 953 665 945 C 696 937 723 926 745 913 L 723 834 C 706 844 683 854 655 865 C 626 875 595 881 563 881 C 506 881 452 856 402 807 C 351 757 304 685 260 590 Z M 304 1397 L 366 1397 L 519 1102 L 523 1102 L 792 1397 L 865 1397 L 564 1034 L 462 1034 L 304 1397 Z" unicode="ř" />
<glyph horiz-adv-x="971" d="M 451 53 C 548 53 627 79 688 131 C 749 183 780 248 780 326 C 780 405 750 466 690 510 C 630 553 565 592 494 627 C 419 662 350 704 287 754 C 224 803 193 872 193 961 C 193 1071 234 1155 318 1213 C 401 1271 496 1300 602 1300 C 671 1300 741 1287 812 1263 C 882 1238 941 1207 987 1169 L 958 1090 C 912 1129 856 1161 789 1187 C 721 1212 656 1225 592 1225 C 509 1225 436 1201 373 1154 C 310 1107 279 1045 279 967 C 279 895 307 840 365 800 C 422 760 485 724 553 690 C 634 649 706 603 769 552 C 832 501 864 429 864 336 C 864 224 822 137 740 74 C 657 11 559 -20 446 -20 C 366 -20 289 -7 214 19 C 139 45 75 79 23 121 L 51 201 C 104 158 166 123 236 95 C 306 67 378 53 451 53 Z M 960 1759 L 565 1397 L 495 1397 L 835 1759 L 960 1759 Z" unicode="Ś" />
<glyph horiz-adv-x="750" d="M 637 254 C 637 177 606 112 544 59 C 482 6 403 -20 309 -20 C 249 -20 189 -8 130 14 C 71 37 26 63 -4 92 L 33 162 C 67 133 109 108 159 86 C 209 64 260 53 313 53 C 380 53 437 70 484 105 C 531 139 555 186 555 244 C 555 284 541 318 513 346 C 485 374 429 409 346 451 C 280 484 227 518 187 553 C 147 587 127 638 127 705 C 127 784 157 846 218 891 C 279 935 348 958 426 958 C 482 958 536 948 588 930 C 640 911 685 888 723 862 L 686 793 C 648 820 607 842 562 860 C 517 878 470 887 422 887 C 360 887 308 871 268 839 C 227 807 207 765 207 715 C 207 669 221 632 250 605 C 279 577 334 544 414 506 C 489 469 545 432 582 396 C 618 359 637 312 637 254 Z M 773 1417 L 378 1055 L 308 1055 L 648 1417 L 773 1417 Z" unicode="ś" />
<glyph horiz-adv-x="971" d="M 451 53 C 548 53 627 79 688 131 C 749 183 780 248 780 326 C 780 405 750 466 690 510 C 630 553 565 592 494 627 C 419 662 350 704 287 754 C 224 803 193 872 193 961 C 193 1071 234 1155 318 1213 C 401 1271 496 1300 602 1300 C 671 1300 741 1287 812 1263 C 882 1238 941 1207 987 1169 L 958 1090 C 912 1129 856 1161 789 1187 C 721 1212 656 1225 592 1225 C 509 1225 436 1201 373 1154 C 310 1107 279 1045 279 967 C 279 895 307 840 365 800 C 422 760 485 724 553 690 C 634 649 706 603 769 552 C 832 501 864 429 864 336 C 864 224 822 137 740 74 C 657 11 559 -20 446 -20 C 366 -20 289 -7 214 19 C 139 45 75 79 23 121 L 51 201 C 104 158 166 123 236 95 C 306 67 378 53 451 53 Z M 909 1397 L 847 1397 L 694 1692 L 690 1692 L 421 1397 L 348 1397 L 649 1759 L 751 1759 L 909 1397 Z" unicode="Ŝ" />
<glyph horiz-adv-x="750" d="M 637 254 C 637 177 606 112 544 59 C 482 6 403 -20 309 -20 C 249 -20 189 -8 130 14 C 71 37 26 63 -4 92 L 33 162 C 67 133 109 108 159 86 C 209 64 260 53 313 53 C 380 53 437 70 484 105 C 531 139 555 186 555 244 C 555 284 541 318 513 346 C 485 374 429 409 346 451 C 280 484 227 518 187 553 C 147 587 127 638 127 705 C 127 784 157 846 218 891 C 279 935 348 958 426 958 C 482 958 536 948 588 930 C 640 911 685 888 723 862 L 686 793 C 648 820 607 842 562 860 C 517 878 470 887 422 887 C 360 887 308 871 268 839 C 227 807 207 765 207 715 C 207 669 221 632 250 605 C 279 577 334 544 414 506 C 489 469 545 432 582 396 C 618 359 637 312 637 254 Z M 745 1055 L 683 1055 L 530 1350 L 526 1350 L 257 1055 L 184 1055 L 485 1417 L 587 1417 L 745 1055 Z" unicode="ŝ" />
<glyph horiz-adv-x="971" d="M 346 -133 C 407 -135 459 -150 502 -178 C 545 -206 567 -246 567 -299 C 567 -358 535 -410 472 -455 C 409 -500 320 -521 205 -518 L 207 -455 C 297 -457 367 -444 417 -418 C 467 -392 492 -355 492 -307 C 492 -260 466 -228 414 -211 C 362 -194 297 -190 219 -199 L 219 -166 L 401 -18 C 329 -13 260 1 194 26 C 127 51 70 83 23 121 L 51 201 C 104 158 166 123 236 95 C 306 67 378 53 451 53 C 548 53 627 79 688 131 C 749 183 780 248 780 326 C 780 405 750 466 690 510 C 630 553 565 592 494 627 C 419 662 350 704 287 754 C 224 803 193 872 193 961 C 193 1071 234 1155 318 1213 C 401 1271 496 1300 602 1300 C 671 1300 741 1287 812 1263 C 882 1238 941 1207 987 1169 L 958 1090 C 912 1129 856 1161 789 1187 C 721 1212 656 1225 592 1225 C 509 1225 436 1201 373 1154 C 310 1107 279 1045 279 967 C 279 895 307 840 365 800 C 422 760 485 724 553 690 C 634 649 706 603 769 552 C 832 501 864 429 864 336 C 864 230 826 147 752 85 C 678 23 589 -11 485 -18 L 346 -133 Z" unicode="Ş" />
<glyph horiz-adv-x="750" d="M 207 -133 C 268 -135 320 -150 363 -178 C 406 -206 428 -246 428 -299 C 428 -358 396 -410 333 -455 C 269 -500 180 -521 66 -518 L 68 -455 C 158 -457 228 -444 278 -418 C 327 -392 352 -355 352 -307 C 352 -260 326 -228 275 -211 C 223 -194 158 -190 80 -199 L 80 -166 L 264 -18 C 210 -12 158 1 109 22 C 60 43 22 66 -4 92 L 33 162 C 67 133 109 108 159 86 C 209 64 260 53 313 53 C 380 53 437 70 484 105 C 531 139 555 186 555 244 C 555 284 541 318 513 346 C 485 374 429 409 346 451 C 280 484 227 518 187 553 C 147 587 127 638 127 705 C 127 784 157 846 218 891 C 279 935 348 958 426 958 C 482 958 536 948 588 930 C 640 911 685 888 723 862 L 686 793 C 648 820 607 842 562 860 C 517 878 470 887 422 887 C 360 887 308 871 268 839 C 227 807 207 765 207 715 C 207 669 221 632 250 605 C 279 577 334 544 414 506 C 489 469 545 432 582 396 C 618 359 637 312 637 254 C 637 182 609 121 555 70 C 501 19 431 -10 346 -18 L 207 -133 Z" unicode="ş" />
<glyph horiz-adv-x="971" d="M 451 53 C 548 53 627 79 688 131 C 749 183 780 248 780 326 C 780 405 750 466 690 510 C 630 553 565 592 494 627 C 419 662 350 704 287 754 C 224 803 193 872 193 961 C 193 1071 234 1155 318 1213 C 401 1271 496 1300 602 1300 C 671 1300 741 1287 812 1263 C 882 1238 941 1207 987 1169 L 958 1090 C 912 1129 856 1161 789 1187 C 721 1212 656 1225 592 1225 C 509 1225 436 1201 373 1154 C 310 1107 279 1045 279 967 C 279 895 307 840 365 800 C 422 760 485 724 553 690 C 634 649 706 603 769 552 C 832 501 864 429 864 336 C 864 224 822 137 740 74 C 657 11 559 -20 446 -20 C 366 -20 289 -7 214 19 C 139 45 75 79 23 121 L 51 201 C 104 158 166 123 236 95 C 306 67 378 53 451 53 Z M 407 1739 L 469 1739 L 622 1444 L 626 1444 L 895 1739 L 968 1739 L 667 1376 L 565 1376 L 407 1739 Z" unicode="Š" />
<glyph horiz-adv-x="750" d="M 637 254 C 637 177 606 112 544 59 C 482 6 403 -20 309 -20 C 249 -20 189 -8 130 14 C 71 37 26 63 -4 92 L 33 162 C 67 133 109 108 159 86 C 209 64 260 53 313 53 C 380 53 437 70 484 105 C 531 139 555 186 555 244 C 555 284 541 318 513 346 C 485 374 429 409 346 451 C 280 484 227 518 187 553 C 147 587 127 638 127 705 C 127 784 157 846 218 891 C 279 935 348 958 426 958 C 482 958 536 948 588 930 C 640 911 685 888 723 862 L 686 793 C 648 820 607 842 562 860 C 517 878 470 887 422 887 C 360 887 308 871 268 839 C 227 807 207 765 207 715 C 207 669 221 632 250 605 C 279 577 334 544 414 506 C 489 469 545 432 582 396 C 618 359 637 312 637 254 Z M 257 1397 L 319 1397 L 472 1102 L 476 1102 L 745 1397 L 818 1397 L 517 1034 L 415 1034 L 257 1397 Z" unicode="š" />
<glyph horiz-adv-x="1077" d="M 1190 1202 L 737 1202 L 504 0 L 418 0 L 651 1202 L 199 1202 L 213 1280 L 1204 1280 L 1190 1202 Z M 342 -178 C 344 -158 354 -142 372 -131 C 390 -119 411 -115 436 -117 C 463 -119 484 -132 498 -158 C 512 -183 516 -212 510 -244 C 501 -285 479 -326 443 -366 C 407 -406 363 -441 311 -471 L 282 -438 C 329 -408 362 -380 382 -353 C 402 -326 414 -300 419 -274 C 424 -248 419 -228 405 -214 C 391 -200 370 -188 342 -178 Z" unicode="Ţ" />
<glyph horiz-adv-x="664" d="M 502 84 L 516 12 C 489 0 458 -10 422 -18 C 386 -26 351 -31 317 -31 C 250 -31 197 -14 157 19 C 117 53 98 98 98 154 C 98 175 100 198 104 224 C 108 250 113 278 121 309 L 242 850 L 121 858 L 127 913 L 258 930 L 309 1153 L 391 1153 L 340 928 L 680 928 L 674 854 L 324 854 L 201 299 C 195 269 190 245 186 226 C 182 207 180 189 180 172 C 180 129 192 97 218 76 C 244 55 280 45 326 45 C 360 45 392 49 421 57 C 449 65 476 74 502 84 Z M 182 -178 C 184 -158 194 -142 212 -131 C 230 -119 251 -115 276 -117 C 303 -119 324 -132 338 -158 C 352 -183 356 -212 350 -244 C 341 -285 319 -326 283 -366 C 247 -406 203 -441 151 -471 L 122 -438 C 169 -408 202 -380 222 -353 C 242 -326 254 -300 259 -274 C 264 -248 259 -228 245 -214 C 231 -200 210 -188 182 -178 Z" unicode="ţ" />
<glyph horiz-adv-x="1077" d="M 1190 1202 L 737 1202 L 504 0 L 418 0 L 651 1202 L 199 1202 L 213 1280 L 1204 1280 L 1190 1202 Z M 497 1739 L 559 1739 L 712 1444 L 716 1444 L 985 1739 L 1058 1739 L 757 1376 L 655 1376 L 497 1739 Z" unicode="Ť" />
<glyph horiz-adv-x="702" d="M 502 84 L 516 12 C 489 0 458 -10 422 -18 C 386 -26 351 -31 317 -31 C 250 -31 197 -14 157 19 C 117 53 98 98 98 154 C 98 175 100 198 104 224 C 108 250 113 278 121 309 L 242 850 L 121 858 L 127 913 L 258 930 L 309 1153 L 391 1153 L 340 928 L 680 928 L 674 854 L 324 854 L 201 299 C 195 269 190 245 186 226 C 182 207 180 189 180 172 C 180 129 192 97 218 76 C 244 55 280 45 326 45 C 360 45 392 49 421 57 C 449 65 476 74 502 84 Z M 552 1309 C 555 1324 565 1338 580 1351 C 595 1364 611 1370 630 1370 C 655 1370 675 1360 692 1339 C 709 1318 718 1295 718 1267 C 718 1215 694 1165 648 1117 C 601 1070 548 1033 489 1006 L 464 1038 C 521 1070 564 1103 590 1136 C 617 1169 630 1201 630 1232 C 630 1249 623 1263 610 1276 C 596 1289 577 1300 552 1309 Z" unicode="ť" />
<glyph horiz-adv-x="1200" d="M 571 -20 C 435 -20 327 13 247 80 C 167 147 127 232 127 334 C 127 373 130 412 136 452 C 142 491 147 521 152 543 L 297 1280 L 381 1280 L 236 532 C 231 512 226 485 220 452 C 214 418 211 382 211 344 C 211 260 241 191 303 137 C 365 82 456 55 578 55 C 681 55 767 90 837 162 C 907 233 954 330 979 453 L 1139 1280 L 1223 1280 L 1061 436 C 1033 296 978 185 896 103 C 813 21 705 -20 571 -20 Z M 1005 1434 L 524 1434 L 544 1511 L 1013 1511 L 1005 1434 Z" unicode="Ū" />
<glyph horiz-adv-x="1008" d="M 236 938 L 319 938 L 207 356 C 201 330 198 309 196 293 C 194 276 193 261 193 248 C 193 190 210 143 244 107 C 278 71 329 53 397 53 C 449 53 502 66 556 93 C 610 119 665 155 721 199 L 864 938 L 948 938 L 768 6 L 678 -20 L 705 119 C 653 77 598 43 541 18 C 484 -7 427 -20 371 -20 C 289 -20 224 3 177 49 C 129 95 106 157 106 233 C 106 248 107 267 110 289 C 113 311 117 336 123 362 L 236 938 Z M 857 1092 L 376 1092 L 396 1169 L 865 1169 L 857 1092 Z" unicode="ū" />
<glyph horiz-adv-x="1200" d="M 571 -20 C 435 -20 327 13 247 80 C 167 147 127 232 127 334 C 127 373 130 412 136 452 C 142 491 147 521 152 543 L 297 1280 L 381 1280 L 236 532 C 231 512 226 485 220 452 C 214 418 211 382 211 344 C 211 260 241 191 303 137 C 365 82 456 55 578 55 C 681 55 767 90 837 162 C 907 233 954 330 979 453 L 1139 1280 L 1223 1280 L 1061 436 C 1033 296 978 185 896 103 C 813 21 705 -20 571 -20 Z M 1095 1757 C 1063 1665 1020 1582 968 1507 C 916 1432 849 1395 768 1395 C 678 1395 617 1433 586 1511 C 554 1588 537 1670 534 1757 L 590 1757 C 598 1652 619 1577 651 1533 C 683 1488 724 1466 774 1466 C 818 1466 861 1486 904 1526 C 946 1566 992 1643 1040 1757 L 1095 1757 Z" unicode="Ŭ" />
<glyph horiz-adv-x="1008" d="M 236 938 L 319 938 L 207 356 C 201 330 198 309 196 293 C 194 276 193 261 193 248 C 193 190 210 143 244 107 C 278 71 329 53 397 53 C 449 53 502 66 556 93 C 610 119 665 155 721 199 L 864 938 L 948 938 L 768 6 L 678 -20 L 705 119 C 653 77 598 43 541 18 C 484 -7 427 -20 371 -20 C 289 -20 224 3 177 49 C 129 95 106 157 106 233 C 106 248 107 267 110 289 C 113 311 117 336 123 362 L 236 938 Z M 925 1415 C 893 1323 850 1240 798 1165 C 746 1090 679 1053 598 1053 C 508 1053 447 1091 416 1169 C 384 1246 367 1328 364 1415 L 420 1415 C 428 1310 449 1235 481 1191 C 513 1146 554 1124 604 1124 C 648 1124 691 1144 734 1184 C 776 1224 822 1301 870 1415 L 925 1415 Z" unicode="ŭ" />
<glyph horiz-adv-x="1200" d="M 571 -20 C 435 -20 327 13 247 80 C 167 147 127 232 127 334 C 127 373 130 412 136 452 C 142 491 147 521 152 543 L 297 1280 L 381 1280 L 236 532 C 231 512 226 485 220 452 C 214 418 211 382 211 344 C 211 260 241 191 303 137 C 365 82 456 55 578 55 C 681 55 767 90 837 162 C 907 233 954 330 979 453 L 1139 1280 L 1223 1280 L 1061 436 C 1033 296 978 185 896 103 C 813 21 705 -20 571 -20 Z M 1010 1579 C 1010 1525 989 1478 948 1439 C 906 1399 850 1380 780 1380 C 710 1380 654 1399 613 1439 C 571 1478 551 1525 551 1579 C 551 1633 571 1680 613 1720 C 654 1760 710 1780 780 1780 C 850 1780 906 1760 948 1720 C 989 1680 1010 1633 1010 1579 Z M 938 1575 C 938 1612 923 1645 895 1675 C 866 1705 828 1720 780 1720 C 733 1720 695 1706 666 1679 C 636 1651 622 1619 622 1581 C 622 1543 636 1510 666 1482 C 695 1454 733 1440 780 1440 C 828 1440 866 1453 895 1479 C 923 1505 938 1537 938 1575 Z" unicode="Ů" />
<glyph horiz-adv-x="1008" d="M 236 938 L 319 938 L 207 356 C 201 330 198 309 196 293 C 194 276 193 261 193 248 C 193 190 210 143 244 107 C 278 71 329 53 397 53 C 449 53 502 66 556 93 C 610 119 665 155 721 199 L 864 938 L 948 938 L 768 6 L 678 -20 L 705 119 C 653 77 598 43 541 18 C 484 -7 427 -20 371 -20 C 289 -20 224 3 177 49 C 129 95 106 157 106 233 C 106 248 107 267 110 289 C 113 311 117 336 123 362 L 236 938 Z M 862 1237 C 862 1183 841 1136 800 1097 C 758 1057 702 1038 632 1038 C 562 1038 506 1057 465 1097 C 423 1136 403 1183 403 1237 C 403 1291 423 1338 465 1378 C 506 1418 562 1438 632 1438 C 702 1438 758 1418 800 1378 C 841 1338 862 1291 862 1237 Z M 790 1233 C 790 1270 775 1303 747 1333 C 718 1363 680 1378 632 1378 C 585 1378 547 1364 518 1337 C 488 1309 474 1277 474 1239 C 474 1201 488 1168 518 1140 C 547 1112 585 1098 632 1098 C 680 1098 718 1111 747 1137 C 775 1163 790 1195 790 1233 Z" unicode="ů" />
<glyph horiz-adv-x="1200" d="M 571 -20 C 435 -20 327 13 247 80 C 167 147 127 232 127 334 C 127 373 130 412 136 452 C 142 491 147 521 152 543 L 297 1280 L 381 1280 L 236 532 C 231 512 226 485 220 452 C 214 418 211 382 211 344 C 211 260 241 191 303 137 C 365 82 456 55 578 55 C 681 55 767 90 837 162 C 907 233 954 330 979 453 L 1139 1280 L 1223 1280 L 1061 436 C 1033 296 978 185 896 103 C 813 21 705 -20 571 -20 Z M 913 1739 L 565 1376 L 493 1376 L 807 1739 L 913 1739 Z M 1216 1739 L 868 1376 L 797 1376 L 1110 1739 L 1216 1739 Z" unicode="Ű" />
<glyph horiz-adv-x="1008" d="M 236 938 L 319 938 L 207 356 C 201 330 198 309 196 293 C 194 276 193 261 193 248 C 193 190 210 143 244 107 C 278 71 329 53 397 53 C 449 53 502 66 556 93 C 610 119 665 155 721 199 L 864 938 L 948 938 L 768 6 L 678 -20 L 705 119 C 653 77 598 43 541 18 C 484 -7 427 -20 371 -20 C 289 -20 224 3 177 49 C 129 95 106 157 106 233 C 106 248 107 267 110 289 C 113 311 117 336 123 362 L 236 938 Z M 786 1397 L 438 1034 L 366 1034 L 680 1397 L 786 1397 Z M 1089 1397 L 741 1034 L 670 1034 L 983 1397 L 1089 1397 Z" unicode="ű" />
<glyph horiz-adv-x="1200" d="M 602 -430 C 554 -426 516 -407 490 -373 C 463 -339 455 -296 465 -244 C 474 -196 495 -154 529 -116 C 563 -78 600 -44 641 -16 C 629 -17 618 -18 607 -19 C 595 -19 583 -20 571 -20 C 435 -20 327 13 247 80 C 167 147 127 232 127 334 C 127 373 130 412 136 452 C 142 491 147 521 152 543 L 297 1280 L 381 1280 L 236 532 C 231 512 226 485 220 452 C 214 418 211 382 211 344 C 211 260 241 191 303 137 C 365 82 456 55 578 55 C 681 55 767 90 837 162 C 907 233 954 330 979 453 L 1139 1280 L 1223 1280 L 1061 436 C 1039 330 1005 242 957 173 C 909 103 847 48 770 8 C 706 -24 655 -62 617 -106 C 578 -150 555 -194 547 -238 C 541 -270 545 -297 560 -319 C 574 -341 597 -354 627 -356 C 644 -357 662 -355 682 -350 C 702 -345 719 -338 735 -328 L 750 -395 C 733 -405 711 -414 685 -422 C 658 -429 630 -432 602 -430 Z" unicode="Ų" />
<glyph horiz-adv-x="1008" d="M 236 938 L 319 938 L 207 356 C 201 330 198 309 196 293 C 194 276 193 261 193 248 C 193 190 210 143 244 107 C 278 71 329 53 397 53 C 449 53 502 66 556 93 C 610 119 665 155 721 199 L 864 938 L 948 938 L 768 6 C 708 -9 654 -42 604 -94 C 554 -146 525 -194 518 -238 C 513 -270 518 -297 532 -319 C 546 -341 568 -354 598 -356 C 615 -357 634 -355 654 -350 C 674 -345 691 -338 707 -328 L 721 -395 C 704 -405 682 -414 656 -422 C 629 -429 601 -432 573 -430 C 525 -426 488 -407 461 -373 C 434 -339 426 -296 436 -244 C 447 -182 479 -124 532 -70 C 584 -16 637 21 690 43 L 705 119 C 653 77 598 43 541 18 C 484 -7 427 -20 371 -20 C 289 -20 224 3 177 49 C 129 95 106 157 106 233 C 106 248 107 267 110 289 C 113 311 117 336 123 362 L 236 938 Z" unicode="ų" />
<glyph horiz-adv-x="1827" d="M 1057 1188 L 459 0 L 379 0 L 262 1280 L 346 1280 L 444 133 L 1018 1280 L 1126 1280 L 1260 133 L 1786 1280 L 1880 1280 L 1278 0 L 1198 0 L 1057 1188 Z M 1351 1397 L 1289 1397 L 1136 1692 L 1132 1692 L 863 1397 L 790 1397 L 1091 1759 L 1193 1759 L 1351 1397 Z" unicode="Ŵ" />
<glyph horiz-adv-x="1288" d="M 295 -2 L 227 -2 L 125 938 L 207 938 L 289 135 L 713 938 L 791 938 L 905 131 L 1286 938 L 1376 938 L 920 -2 L 846 -2 L 731 811 L 295 -2 Z M 1061 1055 L 999 1055 L 846 1350 L 842 1350 L 573 1055 L 500 1055 L 801 1417 L 903 1417 L 1061 1055 Z" unicode="ŵ" />
<glyph horiz-adv-x="1038" d="M 1167 1280 L 573 516 L 473 0 L 387 0 L 487 520 L 186 1280 L 274 1280 L 543 600 L 1063 1280 L 1167 1280 Z M 960 1397 L 898 1397 L 745 1692 L 741 1692 L 472 1397 L 399 1397 L 700 1759 L 802 1759 L 960 1397 Z" unicode="Ŷ" />
<glyph horiz-adv-x="829" d="M -164 -354 C -149 -364 -134 -373 -118 -381 C -102 -389 -83 -393 -61 -393 C -37 -393 -7 -380 28 -356 C 64 -332 110 -274 164 -182 L 281 20 L 102 938 L 188 938 L 342 115 L 817 938 L 911 938 L 346 -18 L 225 -223 C 165 -326 111 -393 65 -424 C 19 -455 -24 -471 -66 -471 C -96 -471 -122 -466 -145 -456 C -168 -446 -189 -435 -209 -422 L -164 -354 Z M 790 1055 L 728 1055 L 575 1350 L 571 1350 L 302 1055 L 229 1055 L 530 1417 L 632 1417 L 790 1055 Z" unicode="ŷ" />
<glyph horiz-adv-x="1038" d="M 1167 1280 L 573 516 L 473 0 L 387 0 L 487 520 L 186 1280 L 274 1280 L 543 600 L 1063 1280 L 1167 1280 Z M 581 1569 C 581 1549 574 1532 561 1516 C 548 1500 531 1493 510 1493 C 488 1493 471 1500 459 1516 C 446 1532 440 1549 440 1569 C 440 1587 446 1603 459 1618 C 471 1632 488 1640 510 1640 C 531 1640 548 1632 561 1618 C 574 1603 581 1587 581 1569 Z M 952 1569 C 952 1549 945 1532 932 1516 C 919 1500 902 1493 882 1493 C 860 1493 843 1500 829 1516 C 815 1532 809 1549 809 1569 C 809 1587 815 1603 829 1618 C 843 1632 860 1640 882 1640 C 902 1640 919 1632 932 1618 C 945 1603 952 1587 952 1569 Z" unicode="Ÿ" />
<glyph horiz-adv-x="1020" d="M 862 0 L -37 0 L -25 61 L 981 1204 L 227 1204 L 242 1280 L 1110 1280 L 1100 1219 L 94 76 L 877 76 L 862 0 Z M 980 1759 L 585 1397 L 515 1397 L 855 1759 L 980 1759 Z" unicode="Ź" />
<glyph horiz-adv-x="766" d="M 621 0 L -53 0 L -41 57 L 684 864 L 135 864 L 150 938 L 805 938 L 793 881 L 68 74 L 635 74 L 621 0 Z M 845 1417 L 450 1055 L 380 1055 L 720 1417 L 845 1417 Z" unicode="ź" />
<glyph horiz-adv-x="1020" d="M 862 0 L -37 0 L -25 61 L 981 1204 L 227 1204 L 242 1280 L 1110 1280 L 1100 1219 L 94 76 L 877 76 L 862 0 Z M 766 1569 C 766 1549 759 1532 746 1516 C 732 1500 715 1493 694 1493 C 672 1493 655 1500 643 1516 C 630 1532 624 1549 624 1569 C 624 1587 630 1603 643 1618 C 655 1632 672 1640 694 1640 C 715 1640 732 1632 746 1618 C 759 1603 766 1587 766 1569 Z" unicode="Ż" />
<glyph horiz-adv-x="766" d="M 621 0 L -53 0 L -41 57 L 684 864 L 135 864 L 150 938 L 805 938 L 793 881 L 68 74 L 635 74 L 621 0 Z M 563 1227 C 563 1207 556 1190 543 1174 C 529 1158 512 1151 491 1151 C 469 1151 452 1158 440 1174 C 427 1190 421 1207 421 1227 C 421 1245 427 1261 440 1276 C 452 1290 469 1298 491 1298 C 512 1298 529 1290 543 1276 C 556 1261 563 1245 563 1227 Z" unicode="ż" />
<glyph horiz-adv-x="1020" d="M 862 0 L -37 0 L -25 61 L 981 1204 L 227 1204 L 242 1280 L 1110 1280 L 1100 1219 L 94 76 L 877 76 L 862 0 Z M 460 1739 L 522 1739 L 675 1444 L 679 1444 L 948 1739 L 1021 1739 L 720 1376 L 618 1376 L 460 1739 Z" unicode="Ž" />
<glyph horiz-adv-x="766" d="M 621 0 L -53 0 L -41 57 L 684 864 L 135 864 L 150 938 L 805 938 L 793 881 L 68 74 L 635 74 L 621 0 Z M 278 1397 L 340 1397 L 493 1102 L 497 1102 L 766 1397 L 839 1397 L 538 1034 L 436 1034 L 278 1397 Z" unicode="ž" />
<glyph horiz-adv-x="741" d="M 238 248 L 332 731 L 137 739 L 143 791 L 346 807 L 383 997 C 406 1105 443 1181 493 1225 C 543 1269 601 1292 668 1292 C 701 1292 734 1287 766 1277 C 798 1267 827 1252 852 1233 L 817 1161 C 795 1176 772 1189 747 1199 C 721 1209 693 1214 662 1214 C 610 1214 568 1194 536 1154 C 504 1114 481 1060 467 993 L 426 805 L 670 805 L 662 731 L 412 731 L 315 238 C 299 156 273 94 239 53 C 204 11 152 -17 82 -35 L 63 41 C 121 55 162 79 186 113 C 209 147 226 192 238 248 Z" unicode="ƒ" />
<glyph horiz-adv-x="1180" d="M 674 1237 C 635 1253 604 1278 582 1311 C 560 1343 549 1379 549 1417 C 549 1471 569 1518 611 1558 C 653 1598 708 1618 778 1618 C 848 1618 903 1598 945 1558 C 987 1518 1008 1471 1008 1417 C 1008 1367 990 1324 956 1287 C 922 1249 875 1227 815 1221 L 1038 0 L 956 0 L 889 379 L 268 379 L 55 0 L -39 0 L 674 1237 Z M 936 1413 C 936 1451 921 1484 893 1514 C 864 1544 826 1559 778 1559 C 732 1559 694 1545 665 1518 C 635 1490 621 1457 621 1419 C 621 1381 635 1348 665 1320 C 694 1292 732 1278 778 1278 C 826 1278 864 1291 893 1317 C 921 1343 936 1375 936 1413 Z M 872 457 L 741 1204 L 313 457 L 872 457 Z M 1065 2011 L 670 1649 L 600 1649 L 940 2011 L 1065 2011 Z" unicode="Ǻ" />
<glyph horiz-adv-x="874" d="M 847 1861 L 452 1499 L 382 1499 L 722 1861 L 847 1861 Z" unicode="ǻ" />
<glyph horiz-adv-x="1645" d="M 309 379 L 16 0 L -76 0 L 911 1280 L 1700 1280 L 1686 1202 L 1038 1202 L 938 680 L 1479 680 L 1462 602 L 922 602 L 819 78 L 1466 78 L 1452 0 L 719 0 L 793 379 L 309 379 Z M 369 457 L 807 457 L 954 1210 L 369 457 Z M 1558 1759 L 1163 1397 L 1093 1397 L 1433 1759 L 1558 1759 Z" unicode="Ǽ" />
<glyph horiz-adv-x="1511" d="M 766 756 C 808 816 861 864 924 902 C 987 939 1057 958 1133 958 C 1225 958 1301 930 1361 876 C 1420 822 1450 755 1450 676 C 1450 647 1446 616 1438 583 C 1430 550 1420 519 1407 489 L 752 485 C 750 473 749 461 749 449 C 748 437 748 426 748 414 C 748 312 776 227 834 159 C 891 91 971 57 1073 57 C 1113 57 1154 62 1195 73 C 1235 84 1273 98 1307 115 L 1313 37 C 1279 20 1240 6 1197 -4 C 1153 -14 1111 -20 1069 -20 C 980 -20 903 2 838 46 C 772 90 724 149 694 221 C 635 134 571 72 501 35 C 431 -1 365 -20 303 -20 C 223 -20 158 5 108 55 C 58 105 33 161 33 223 C 33 330 85 410 189 464 C 293 517 454 541 672 535 L 686 606 C 702 687 694 753 661 805 C 627 857 567 883 481 883 C 431 883 380 873 328 855 C 276 837 232 817 195 795 L 176 868 C 216 892 263 913 318 931 C 372 949 429 958 487 958 C 560 958 622 941 673 908 C 723 874 754 824 766 756 Z M 662 465 C 456 470 314 450 235 405 C 156 360 117 302 117 231 C 117 182 134 141 170 107 C 206 73 256 57 322 57 C 369 57 424 74 488 109 C 552 143 614 202 674 285 C 666 314 661 344 659 374 C 657 404 658 434 662 465 Z M 766 559 L 1339 559 C 1346 577 1351 596 1355 614 C 1358 632 1360 651 1360 672 C 1360 728 1339 777 1297 819 C 1255 860 1198 881 1126 881 C 1038 881 963 849 899 786 C 835 722 790 647 766 559 Z M 1195 1417 L 800 1055 L 730 1055 L 1070 1417 L 1195 1417 Z" unicode="ǽ" />
<glyph horiz-adv-x="1417" d="M 1378 729 C 1378 535 1312 362 1182 209 C 1051 56 886 -20 686 -20 C 622 -20 563 -11 508 6 C 452 23 402 47 356 78 C 357 78 330 42 274 -29 C 218 -101 190 -137 190 -137 L 106 -137 L 305 119 C 248 171 203 234 170 310 C 137 385 121 467 121 557 C 121 751 186 924 316 1074 C 446 1224 612 1300 813 1300 C 876 1300 936 1291 992 1275 C 1048 1258 1098 1234 1143 1202 L 1309 1417 L 1393 1417 L 1196 1161 C 1252 1110 1296 1047 1329 973 C 1361 898 1378 817 1378 729 Z M 1094 1139 C 1054 1166 1009 1187 960 1203 C 911 1219 859 1227 805 1227 C 628 1227 484 1157 373 1019 C 262 881 207 728 207 561 C 207 485 220 415 246 351 C 272 286 309 231 356 186 L 1094 1139 Z M 1145 1096 L 408 143 C 446 115 490 94 538 78 C 586 62 637 55 692 55 C 867 55 1011 124 1123 264 C 1235 404 1292 557 1292 723 C 1292 797 1279 867 1253 931 C 1227 995 1191 1050 1145 1096 Z M 1265 1759 L 870 1397 L 800 1397 L 1140 1759 L 1265 1759 Z" unicode="Ǿ" />
<glyph horiz-adv-x="1090" d="M 1018 537 C 1018 391 969 262 871 150 C 773 38 648 -18 498 -18 C 452 -18 410 -12 370 -2 C 330 8 294 24 262 45 L 123 -137 L 39 -137 L 209 84 C 168 120 136 166 113 220 C 89 274 78 334 78 399 C 78 545 127 674 225 787 C 323 899 447 956 598 956 C 642 956 685 950 725 939 C 765 928 801 913 834 893 L 975 1077 L 1059 1077 C 1059 1077 1030 1039 973 965 C 915 890 887 852 887 852 C 927 815 959 769 983 715 C 1006 661 1018 601 1018 537 Z M 784 829 C 758 845 728 858 696 868 C 664 878 629 883 592 883 C 464 883 361 832 282 732 C 203 632 164 522 164 403 C 164 352 172 305 189 262 C 205 218 229 181 260 150 L 784 829 Z M 932 528 C 932 580 923 628 906 672 C 889 716 866 754 836 786 L 311 109 C 337 91 367 78 400 69 C 432 59 467 55 504 55 C 631 55 734 103 813 201 C 892 299 932 408 932 528 Z M 1036 1417 L 641 1055 L 571 1055 L 911 1417 L 1036 1417 Z" unicode="ǿ" />
<glyph horiz-adv-x="971" d="M 451 53 C 548 53 627 79 688 131 C 749 183 780 248 780 326 C 780 405 750 466 690 510 C 630 553 565 592 494 627 C 419 662 350 704 287 754 C 224 803 193 872 193 961 C 193 1071 234 1155 318 1213 C 401 1271 496 1300 602 1300 C 671 1300 741 1287 812 1263 C 882 1238 941 1207 987 1169 L 958 1090 C 912 1129 856 1161 789 1187 C 721 1212 656 1225 592 1225 C 509 1225 436 1201 373 1154 C 310 1107 279 1045 279 967 C 279 895 307 840 365 800 C 422 760 485 724 553 690 C 634 649 706 603 769 552 C 832 501 864 429 864 336 C 864 224 822 137 740 74 C 657 11 559 -20 446 -20 C 366 -20 289 -7 214 19 C 139 45 75 79 23 121 L 51 201 C 104 158 166 123 236 95 C 306 67 378 53 451 53 Z M 344 -178 C 346 -158 356 -142 374 -131 C 392 -119 413 -115 438 -117 C 465 -119 486 -132 500 -158 C 514 -183 518 -212 512 -244 C 503 -285 481 -326 445 -366 C 409 -406 365 -441 313 -471 L 284 -438 C 331 -408 364 -380 384 -353 C 404 -326 416 -300 421 -274 C 426 -248 421 -228 407 -214 C 393 -200 372 -188 344 -178 Z" unicode="Ș" />
<glyph horiz-adv-x="750" d="M 637 254 C 637 177 606 112 544 59 C 482 6 403 -20 309 -20 C 249 -20 189 -8 130 14 C 71 37 26 63 -4 92 L 33 162 C 67 133 109 108 159 86 C 209 64 260 53 313 53 C 380 53 437 70 484 105 C 531 139 555 186 555 244 C 555 284 541 318 513 346 C 485 374 429 409 346 451 C 280 484 227 518 187 553 C 147 587 127 638 127 705 C 127 784 157 846 218 891 C 279 935 348 958 426 958 C 482 958 536 948 588 930 C 640 911 685 888 723 862 L 686 793 C 648 820 607 842 562 860 C 517 878 470 887 422 887 C 360 887 308 871 268 839 C 227 807 207 765 207 715 C 207 669 221 632 250 605 C 279 577 334 544 414 506 C 489 469 545 432 582 396 C 618 359 637 312 637 254 Z M 164 -178 C 166 -158 176 -142 194 -131 C 212 -119 233 -115 258 -117 C 285 -119 306 -132 320 -158 C 334 -183 338 -212 332 -244 C 323 -285 301 -326 265 -366 C 229 -406 185 -441 133 -471 L 104 -438 C 151 -408 184 -380 204 -353 C 224 -326 236 -300 241 -274 C 246 -248 241 -228 227 -214 C 213 -200 192 -188 164 -178 Z" unicode="ș" />
<glyph horiz-adv-x="1077" d="M 1190 1202 L 737 1202 L 504 0 L 418 0 L 651 1202 L 199 1202 L 213 1280 L 1204 1280 L 1190 1202 Z M 342 -178 C 344 -158 354 -142 372 -131 C 390 -119 411 -115 436 -117 C 463 -119 484 -132 498 -158 C 512 -183 516 -212 510 -244 C 501 -285 479 -326 443 -366 C 407 -406 363 -441 311 -471 L 282 -438 C 329 -408 362 -380 382 -353 C 402 -326 414 -300 419 -274 C 424 -248 419 -228 405 -214 C 391 -200 370 -188 342 -178 Z" unicode="Ț" />
<glyph horiz-adv-x="664" d="M 502 84 L 516 12 C 489 0 458 -10 422 -18 C 386 -26 351 -31 317 -31 C 250 -31 197 -14 157 19 C 117 53 98 98 98 154 C 98 175 100 198 104 224 C 108 250 113 278 121 309 L 242 850 L 121 858 L 127 913 L 258 930 L 309 1153 L 391 1153 L 340 928 L 680 928 L 674 854 L 324 854 L 201 299 C 195 269 190 245 186 226 C 182 207 180 189 180 172 C 180 129 192 97 218 76 C 244 55 280 45 326 45 C 360 45 392 49 421 57 C 449 65 476 74 502 84 Z M 182 -178 C 184 -158 194 -142 212 -131 C 230 -119 251 -115 276 -117 C 303 -119 324 -132 338 -158 C 352 -183 356 -212 350 -244 C 341 -285 319 -326 283 -366 C 247 -406 203 -441 151 -471 L 122 -438 C 169 -408 202 -380 222 -353 C 242 -326 254 -300 259 -274 C 264 -248 259 -228 245 -214 C 231 -200 210 -188 182 -178 Z" unicode="ț" />
<glyph horiz-adv-x="395" d="M -180 -514 L -227 -449 C -145 -416 -83 -374 -43 -324 C -2 -273 27 -200 45 -104 L 246 932 L 334 958 L 125 -125 C 103 -233 68 -317 20 -377 C -28 -437 -95 -482 -180 -514 Z" unicode="ȷ" />
<glyph horiz-adv-x="819" d="M 805 1055 L 743 1055 L 590 1350 L 586 1350 L 317 1055 L 244 1055 L 545 1417 L 647 1417 L 805 1055 Z" unicode="ˆ" />
<glyph horiz-adv-x="819" d="M 311 1397 L 373 1397 L 526 1102 L 530 1102 L 799 1397 L 872 1397 L 571 1034 L 469 1034 L 311 1397 Z" unicode="ˇ" />
<glyph horiz-adv-x="819" d="M 874 1415 C 842 1323 799 1240 747 1165 C 695 1090 628 1053 547 1053 C 457 1053 396 1091 365 1169 C 333 1246 316 1328 313 1415 L 369 1415 C 377 1310 398 1235 430 1191 C 462 1146 503 1124 553 1124 C 597 1124 640 1144 683 1184 C 725 1224 771 1301 819 1415 L 874 1415 Z" unicode="˘" />
<glyph horiz-adv-x="817" d="M 627 1227 C 627 1207 620 1190 607 1174 C 593 1158 576 1151 555 1151 C 533 1151 516 1158 504 1174 C 491 1190 485 1207 485 1227 C 485 1245 491 1261 504 1276 C 516 1290 533 1298 555 1298 C 576 1298 593 1290 607 1276 C 620 1261 627 1245 627 1227 Z" unicode="˙" />
<glyph horiz-adv-x="819" d="M 791 1237 C 791 1183 770 1136 729 1097 C 687 1057 631 1038 561 1038 C 491 1038 435 1057 394 1097 C 352 1136 332 1183 332 1237 C 332 1291 352 1338 394 1378 C 435 1418 491 1438 561 1438 C 631 1438 687 1418 729 1378 C 770 1338 791 1291 791 1237 Z M 719 1233 C 719 1270 704 1303 676 1333 C 647 1363 609 1378 561 1378 C 514 1378 476 1364 447 1337 C 417 1309 403 1277 403 1239 C 403 1201 417 1168 447 1140 C 476 1112 514 1098 561 1098 C 609 1098 647 1111 676 1137 C 704 1163 719 1195 719 1233 Z" unicode="˚" />
<glyph horiz-adv-x="819" d="M 289 -430 C 241 -426 203 -407 176 -373 C 149 -339 141 -296 152 -244 C 164 -174 202 -115 265 -65 C 327 -15 387 23 444 53 L 500 53 C 421 2 359 -46 315 -92 C 271 -138 243 -186 233 -238 C 227 -270 231 -297 246 -319 C 261 -341 283 -354 313 -356 C 330 -357 349 -355 369 -350 C 389 -345 406 -338 422 -328 L 436 -395 C 420 -405 398 -414 372 -422 C 345 -429 317 -432 289 -430 Z" unicode="˛" />
<glyph horiz-adv-x="819" d="M 879 1278 C 856 1205 828 1151 795 1117 C 761 1082 724 1065 682 1065 C 628 1065 577 1090 529 1141 C 481 1191 439 1217 401 1217 C 379 1217 359 1207 341 1189 C 323 1171 300 1133 274 1075 L 217 1075 C 239 1147 267 1201 301 1236 C 334 1270 372 1288 414 1288 C 468 1288 519 1262 568 1212 C 616 1162 658 1137 694 1137 C 715 1137 735 1146 753 1164 C 771 1182 793 1220 819 1278 L 879 1278 Z" unicode="˜" />
<glyph horiz-adv-x="819" d="M 651 1397 L 303 1034 L 231 1034 L 545 1397 L 651 1397 Z M 954 1397 L 606 1034 L 535 1034 L 848 1397 L 954 1397 Z" unicode="˝" />
<glyph horiz-adv-x="1024" d="M 240 938 L 240 303 C 240 216 270 153 330 115 C 390 76 452 57 518 57 C 571 57 629 74 691 109 C 753 144 784 208 784 301 L 784 938 L 868 938 L 868 0 L 784 0 L 784 129 C 750 73 708 35 658 13 C 608 -9 560 -20 516 -20 C 471 -20 425 -11 377 4 C 329 20 283 61 240 127 L 240 -477 L 156 -477 L 156 938 L 240 938 Z" unicode="μ" />
<glyph horiz-adv-x="1827" d="M 1057 1188 L 459 0 L 379 0 L 262 1280 L 346 1280 L 444 133 L 1018 1280 L 1126 1280 L 1260 133 L 1786 1280 L 1880 1280 L 1278 0 L 1198 0 L 1057 1188 Z M 1109 1397 L 1052 1397 L 800 1759 L 912 1759 L 1109 1397 Z" unicode="Ẁ" />
<glyph horiz-adv-x="1288" d="M 295 -2 L 227 -2 L 125 938 L 207 938 L 289 135 L 713 938 L 791 938 L 905 131 L 1286 938 L 1376 938 L 920 -2 L 846 -2 L 731 811 L 295 -2 Z M 786 1055 L 729 1055 L 477 1417 L 589 1417 L 786 1055 Z" unicode="ẁ" />
<glyph horiz-adv-x="1827" d="M 1057 1188 L 459 0 L 379 0 L 262 1280 L 346 1280 L 444 133 L 1018 1280 L 1126 1280 L 1260 133 L 1786 1280 L 1880 1280 L 1278 0 L 1198 0 L 1057 1188 Z M 1513 1759 L 1118 1397 L 1048 1397 L 1388 1759 L 1513 1759 Z" unicode="Ẃ" />
<glyph horiz-adv-x="1288" d="M 295 -2 L 227 -2 L 125 938 L 207 938 L 289 135 L 713 938 L 791 938 L 905 131 L 1286 938 L 1376 938 L 920 -2 L 846 -2 L 731 811 L 295 -2 Z M 1206 1417 L 811 1055 L 741 1055 L 1081 1417 L 1206 1417 Z" unicode="ẃ" />
<glyph horiz-adv-x="1827" d="M 1057 1188 L 459 0 L 379 0 L 262 1280 L 346 1280 L 444 133 L 1018 1280 L 1126 1280 L 1260 133 L 1786 1280 L 1880 1280 L 1278 0 L 1198 0 L 1057 1188 Z M 999 1569 C 999 1549 992 1532 979 1516 C 966 1500 949 1493 928 1493 C 906 1493 889 1500 877 1516 C 864 1532 858 1549 858 1569 C 858 1587 864 1603 877 1618 C 889 1632 906 1640 928 1640 C 949 1640 966 1632 979 1618 C 992 1603 999 1587 999 1569 Z M 1370 1569 C 1370 1549 1363 1532 1350 1516 C 1337 1500 1320 1493 1300 1493 C 1278 1493 1261 1500 1247 1516 C 1233 1532 1227 1549 1227 1569 C 1227 1587 1233 1603 1247 1618 C 1261 1632 1278 1640 1300 1640 C 1320 1640 1337 1632 1350 1618 C 1363 1603 1370 1587 1370 1569 Z" unicode="Ẅ" />
<glyph horiz-adv-x="1288" d="M 295 -2 L 227 -2 L 125 938 L 207 938 L 289 135 L 713 938 L 791 938 L 905 131 L 1286 938 L 1376 938 L 920 -2 L 846 -2 L 731 811 L 295 -2 Z M 683 1227 C 683 1207 676 1190 663 1174 C 650 1158 633 1151 612 1151 C 590 1151 573 1158 561 1174 C 548 1190 542 1207 542 1227 C 542 1245 548 1261 561 1276 C 573 1290 590 1298 612 1298 C 633 1298 650 1290 663 1276 C 676 1261 683 1245 683 1227 Z M 1054 1227 C 1054 1207 1047 1190 1034 1174 C 1021 1158 1004 1151 984 1151 C 962 1151 945 1158 931 1174 C 917 1190 911 1207 911 1227 C 911 1245 917 1261 931 1276 C 945 1290 962 1298 984 1298 C 1004 1298 1021 1290 1034 1276 C 1047 1261 1054 1245 1054 1227 Z" unicode="ẅ" />
<glyph horiz-adv-x="156" d="" unicode=" " />
<glyph horiz-adv-x="877" d="M 813 459 L 66 459 L 72 537 L 807 537 L 813 459 Z" unicode="–" />
<glyph horiz-adv-x="1839" d="M 1776 459 L 66 459 L 72 537 L 1769 537 L 1776 459 Z" unicode="—" />
<glyph horiz-adv-x="313" d="M 346 954 C 342 936 331 920 314 905 C 296 890 276 883 254 883 C 225 883 201 895 181 919 C 161 943 152 972 152 1004 C 152 1066 179 1124 234 1180 C 288 1235 350 1279 420 1311 L 451 1274 C 382 1236 332 1197 301 1158 C 269 1119 254 1081 254 1044 C 254 1024 262 1007 278 993 C 294 978 316 965 346 954 Z" unicode="‘" />
<glyph horiz-adv-x="313" d="M 217 1257 C 221 1274 231 1290 249 1306 C 267 1321 287 1329 309 1329 C 337 1329 362 1316 382 1292 C 402 1268 412 1240 412 1208 C 412 1146 384 1087 329 1031 C 274 975 212 932 143 901 L 113 938 C 181 976 230 1014 262 1053 C 293 1092 309 1130 309 1167 C 309 1186 301 1203 285 1218 C 269 1233 246 1246 217 1257 Z" unicode="’" />
<glyph horiz-adv-x="313" d="M -12 68 C -8 85 2 101 20 116 C 37 131 57 139 80 139 C 108 139 132 126 152 102 C 172 78 182 50 182 18 C 182 -44 154 -102 100 -158 C 45 -213 -16 -257 -86 -289 L -117 -252 C -48 -214 1 -175 33 -136 C 64 -97 80 -59 80 -23 C 80 -3 72 14 56 29 C 40 43 17 56 -12 68 Z" unicode="‚" />
<glyph horiz-adv-x="682" d="M 346 954 C 342 936 331 920 314 905 C 296 890 276 883 254 883 C 225 883 201 895 181 919 C 161 943 152 972 152 1004 C 152 1066 179 1124 234 1180 C 288 1235 350 1279 420 1311 L 451 1274 C 382 1236 332 1197 301 1158 C 269 1119 254 1081 254 1044 C 254 1024 262 1007 278 993 C 294 978 316 965 346 954 Z M 715 954 C 711 936 700 920 682 905 C 664 890 645 883 623 883 C 594 883 570 895 550 919 C 530 943 520 972 520 1004 C 520 1066 547 1124 602 1180 C 657 1235 719 1279 788 1311 L 819 1274 C 751 1236 701 1197 670 1158 C 638 1119 623 1081 623 1044 C 623 1024 630 1007 646 993 C 662 978 685 965 715 954 Z" unicode="“" />
<glyph horiz-adv-x="682" d="M 217 1257 C 221 1274 231 1290 249 1306 C 267 1321 287 1329 309 1329 C 337 1329 362 1316 382 1292 C 402 1268 412 1240 412 1208 C 412 1146 384 1087 329 1031 C 274 975 212 932 143 901 L 113 938 C 181 976 230 1014 262 1053 C 293 1092 309 1130 309 1167 C 309 1186 301 1203 285 1218 C 269 1233 246 1246 217 1257 Z M 586 1257 C 590 1274 600 1290 618 1306 C 635 1321 655 1329 678 1329 C 706 1329 730 1316 750 1292 C 770 1268 780 1240 780 1208 C 780 1146 752 1087 698 1031 C 643 975 581 932 512 901 L 481 938 C 549 976 599 1014 631 1053 C 662 1092 678 1130 678 1167 C 678 1186 670 1203 654 1218 C 638 1233 615 1246 586 1257 Z" unicode="”" />
<glyph horiz-adv-x="682" d="M -10 68 C -6 85 4 101 22 116 C 39 131 59 139 82 139 C 110 139 134 126 154 102 C 174 78 184 50 184 18 C 184 -44 156 -102 102 -158 C 47 -213 -14 -257 -84 -289 L -115 -252 C -46 -214 3 -175 35 -136 C 66 -97 82 -59 82 -23 C 82 -3 74 14 58 29 C 42 43 19 56 -10 68 Z M 358 68 C 362 85 373 101 391 116 C 408 131 428 139 451 139 C 479 139 503 126 523 102 C 543 78 553 50 553 18 C 553 -44 525 -102 471 -158 C 416 -213 354 -257 285 -289 L 254 -252 C 322 -214 371 -175 403 -136 C 435 -97 451 -59 451 -23 C 451 -3 443 14 427 29 C 411 43 388 56 358 68 Z" unicode="„" />
<glyph horiz-adv-x="961" d="M 438 813 L 78 813 L 72 887 L 438 887 L 438 1280 L 520 1280 L 520 887 L 889 887 L 883 813 L 520 813 L 520 -258 L 438 -258 L 438 813 Z" unicode="†" />
<glyph horiz-adv-x="961" d="M 438 844 L 78 844 L 72 918 L 438 918 L 438 1280 L 520 1280 L 520 918 L 889 918 L 883 844 L 520 844 L 520 176 L 883 176 L 889 102 L 520 102 L 520 -258 L 438 -258 L 438 102 L 72 102 L 78 176 L 438 176 L 438 844 Z" unicode="‡" />
<glyph horiz-adv-x="1024" d="M 905 475 C 905 445 891 397 864 329 C 836 261 812 216 791 195 C 770 174 725 150 657 122 C 588 94 539 80 510 80 C 481 80 433 94 365 122 C 297 150 253 174 233 195 C 213 215 189 259 160 328 C 131 396 117 445 117 475 C 117 504 131 553 160 621 C 188 689 213 733 233 754 C 253 774 298 798 366 826 C 434 854 483 868 512 868 C 541 868 590 853 658 825 C 726 797 770 773 791 754 C 812 733 836 689 864 621 C 891 553 905 504 905 475 Z" unicode="•" />
<glyph horiz-adv-x="940" d="M 154 57 C 154 37 147 19 133 3 C 119 -12 101 -20 80 -20 C 58 -20 41 -12 28 3 C 14 19 8 37 8 57 C 8 76 14 93 28 108 C 41 123 58 131 80 131 C 101 131 119 123 133 108 C 147 93 154 76 154 57 Z M 467 57 C 467 37 460 19 446 3 C 432 -12 414 -20 393 -20 C 371 -20 354 -12 341 3 C 328 19 322 37 322 57 C 322 76 328 93 341 108 C 354 123 371 131 393 131 C 414 131 432 123 446 108 C 460 93 467 76 467 57 Z M 780 57 C 780 37 773 19 759 3 C 745 -12 728 -20 707 -20 C 685 -20 667 -12 654 3 C 641 19 635 37 635 57 C 635 76 641 93 654 108 C 667 123 685 131 707 131 C 728 131 745 123 759 108 C 773 93 780 76 780 57 Z" unicode="…" />
<glyph horiz-adv-x="2288" d="M 823 1020 C 823 917 787 829 715 757 C 643 685 555 649 453 649 C 362 649 286 676 224 731 C 162 785 131 859 131 952 C 131 1055 167 1143 240 1216 C 312 1288 400 1325 502 1325 C 593 1325 669 1297 731 1243 C 792 1188 823 1114 823 1020 Z M 750 1016 C 750 1089 726 1147 679 1190 C 631 1233 572 1255 500 1255 C 417 1255 347 1226 290 1169 C 233 1112 205 1042 205 958 C 205 886 228 828 275 784 C 322 740 381 719 453 719 C 536 719 606 747 664 804 C 721 861 750 932 750 1016 Z M 1464 317 C 1464 214 1428 127 1356 55 C 1284 -17 1196 -53 1094 -53 C 1003 -53 927 -25 865 29 C 803 83 772 157 772 250 C 772 352 808 440 881 513 C 953 586 1041 623 1143 623 C 1234 623 1310 595 1372 540 C 1433 485 1464 411 1464 317 Z M 1391 313 C 1391 386 1367 444 1320 488 C 1272 531 1213 553 1141 553 C 1058 553 988 524 931 467 C 874 409 846 339 846 256 C 846 183 869 125 916 81 C 963 37 1022 16 1094 16 C 1177 16 1247 44 1305 102 C 1362 159 1391 229 1391 313 Z M 2226 317 C 2226 214 2190 127 2118 55 C 2046 -17 1958 -53 1855 -53 C 1764 -53 1688 -25 1626 29 C 1564 83 1534 157 1534 250 C 1534 352 1570 440 1643 513 C 1715 586 1803 623 1905 623 C 1996 623 2072 595 2134 540 C 2195 485 2226 411 2226 317 Z M 2152 313 C 2152 386 2128 444 2081 488 C 2034 531 1975 553 1903 553 C 1820 553 1750 524 1693 467 C 1636 409 1608 339 1608 256 C 1608 183 1631 125 1678 81 C 1725 37 1784 16 1855 16 C 1939 16 2009 44 2066 102 C 2123 159 2152 229 2152 313 Z M 1503 1309 L 188 -31 L 94 -31 L 1411 1309 L 1503 1309 Z" unicode="‰" />
<glyph horiz-adv-x="641" d="M 487 109 L 453 55 L 61 442 L 76 516 L 616 899 L 602 809 L 137 471 L 137 469 L 487 109 Z" unicode="‹" />
<glyph horiz-adv-x="641" d="M 569 436 L 29 53 L 43 143 L 508 477 L 508 479 L 158 844 L 193 897 L 584 510 L 569 436 Z" unicode="›" />
<glyph horiz-adv-x="1190" d="M 1333 1309 L 18 -31 L -76 -31 L 1241 1309 L 1333 1309 Z" unicode="⁄" />
<glyph horiz-adv-x="676" d="M 309 551 C 207 551 139 584 105 650 C 71 716 55 780 55 842 C 55 933 80 1039 132 1161 C 184 1282 276 1343 408 1343 C 509 1343 576 1309 609 1243 C 642 1177 659 1113 659 1051 C 659 960 633 854 582 733 C 531 611 440 551 309 551 Z M 580 1057 C 580 1094 569 1140 549 1195 C 528 1250 479 1278 401 1278 C 290 1278 219 1217 187 1097 C 155 977 139 890 139 838 C 139 799 149 752 169 698 C 189 643 237 616 313 616 C 425 616 497 676 530 796 C 563 916 580 1003 580 1057 Z" unicode="⁰" />
<glyph horiz-adv-x="676" d="M 637 758 L 506 758 L 463 555 L 387 555 L 432 758 L 33 758 L 29 813 L 545 1339 L 629 1339 L 520 821 L 647 821 L 637 758 Z M 444 821 L 537 1249 L 119 821 L 444 821 Z" unicode="⁴" />
<glyph horiz-adv-x="676" d="M 219 1018 C 229 1018 240 1019 252 1020 C 264 1021 278 1022 293 1022 C 362 1022 427 1005 487 971 C 547 937 578 882 578 807 C 578 726 548 662 489 614 C 430 566 358 543 272 543 C 234 543 193 549 149 561 C 105 573 67 590 37 610 L 61 678 C 93 657 127 640 163 627 C 199 614 237 608 276 608 C 338 608 391 625 434 659 C 476 693 498 741 498 801 C 498 857 475 897 430 923 C 385 948 337 961 285 961 C 257 961 232 959 211 957 C 189 955 169 951 150 946 L 129 971 L 250 1333 L 653 1333 L 645 1264 L 303 1264 L 219 1018 Z" unicode="⁵" />
<glyph horiz-adv-x="676" d="M 625 1343 L 637 1278 C 539 1268 445 1237 356 1185 C 267 1133 203 1060 164 965 L 166 963 C 195 982 229 998 268 1010 C 306 1022 345 1028 383 1028 C 454 1028 511 1007 553 967 C 595 927 616 877 616 817 C 616 741 588 676 534 624 C 480 571 411 545 328 545 C 245 545 180 571 132 624 C 84 676 61 739 61 813 C 61 961 119 1083 237 1178 C 355 1273 484 1328 625 1343 Z M 139 809 C 139 757 155 710 188 670 C 220 630 268 610 332 610 C 392 610 442 629 480 669 C 518 708 537 755 537 809 C 537 857 520 895 487 922 C 454 949 412 963 360 963 C 319 963 281 957 246 945 C 210 933 179 918 152 901 C 146 885 143 870 141 855 C 139 840 139 825 139 809 Z" unicode="⁶" />
<glyph horiz-adv-x="676" d="M 594 1262 L 133 1262 L 150 1333 L 680 1333 L 684 1276 L 182 559 L 96 559 L 594 1262 Z" unicode="⁷" />
<glyph horiz-adv-x="676" d="M 594 760 C 594 696 566 644 511 605 C 455 566 390 547 315 547 C 245 547 183 563 129 595 C 75 627 49 674 49 735 C 49 797 71 846 116 883 C 160 920 212 945 270 958 C 236 976 205 1000 177 1028 C 149 1056 135 1091 135 1135 C 135 1195 161 1246 215 1287 C 268 1327 332 1348 406 1348 C 474 1348 532 1331 580 1297 C 627 1263 651 1216 651 1155 C 651 1100 631 1055 593 1020 C 554 985 507 959 451 942 C 486 922 519 898 549 869 C 579 840 594 804 594 760 Z M 516 754 C 516 801 493 838 449 866 C 405 893 364 914 328 930 C 278 917 233 896 191 868 C 149 839 129 799 129 748 C 129 702 148 667 187 643 C 225 619 272 608 326 608 C 378 608 422 621 460 647 C 497 673 516 708 516 754 Z M 573 1145 C 573 1187 556 1221 523 1246 C 490 1271 450 1284 403 1284 C 353 1284 310 1270 272 1244 C 234 1218 215 1183 215 1141 C 215 1095 236 1059 280 1032 C 323 1005 361 985 395 971 C 441 984 482 1005 518 1033 C 554 1061 573 1098 573 1145 Z" unicode="⁸" />
<glyph horiz-adv-x="676" d="M 90 549 L 78 612 C 176 623 269 655 358 707 C 447 759 512 834 553 930 L 549 930 C 519 911 485 896 445 884 C 405 872 367 866 330 866 C 257 866 200 885 159 925 C 118 965 98 1014 98 1073 C 98 1148 125 1212 180 1266 C 235 1319 304 1346 387 1346 C 470 1346 535 1320 583 1268 C 631 1216 655 1153 655 1081 C 655 930 596 807 478 713 C 360 619 230 564 90 549 Z M 578 1083 C 578 1135 561 1180 528 1220 C 495 1260 447 1280 383 1280 C 321 1280 271 1260 234 1221 C 196 1181 178 1135 178 1081 C 178 1031 194 993 226 968 C 258 942 301 930 354 930 C 394 930 432 936 468 948 C 504 960 535 975 563 993 C 568 1007 572 1022 574 1037 C 576 1052 578 1067 578 1083 Z" unicode="⁹" />
<glyph horiz-adv-x="676" d="M 614 926 L 383 926 L 383 686 L 334 686 L 334 926 L 102 926 L 104 971 L 334 971 L 334 1208 L 383 1208 L 383 971 L 610 971 L 614 926 Z" unicode="⁺" />
<glyph horiz-adv-x="676" d="M 614 924 L 102 924 L 104 971 L 610 971 L 614 924 Z" unicode="⁻" />
<glyph horiz-adv-x="676" d="M 309 -301 C 207 -301 139 -267 105 -201 C 71 -135 55 -71 55 -10 C 55 81 80 187 132 309 C 184 431 276 492 408 492 C 509 492 576 458 609 392 C 642 325 659 261 659 199 C 659 108 633 2 582 -119 C 531 -240 440 -301 309 -301 Z M 580 205 C 580 242 569 288 549 343 C 528 398 479 426 401 426 C 290 426 219 365 187 245 C 155 125 139 38 139 -14 C 139 -52 149 -99 169 -154 C 189 -208 237 -236 313 -236 C 425 -236 497 -176 530 -56 C 563 64 580 151 580 205 Z" unicode="₀" />
<glyph horiz-adv-x="676" d="M 358 -293 L 283 -293 L 428 401 L 233 360 L 244 428 L 522 487 L 358 -293 Z" unicode="₁" />
<glyph horiz-adv-x="676" d="M 547 -293 L 12 -293 L 20 -215 C 181 -93 309 1 403 71 C 497 141 545 215 545 295 C 545 339 528 372 494 395 C 460 418 421 430 377 430 C 341 430 304 423 268 409 C 231 395 199 378 172 358 L 152 420 C 185 443 222 461 263 475 C 304 489 345 496 385 496 C 448 496 504 479 554 445 C 604 411 629 363 629 301 C 629 209 582 129 490 61 C 398 -7 271 -103 109 -225 L 555 -225 L 547 -293 Z" unicode="₂" />
<glyph horiz-adv-x="676" d="M 375 111 C 433 104 483 86 524 56 C 565 26 586 -16 586 -72 C 586 -140 556 -195 496 -239 C 436 -283 366 -305 287 -305 C 247 -305 203 -299 157 -287 C 110 -275 72 -260 43 -240 L 72 -174 C 101 -193 135 -209 174 -222 C 212 -235 250 -242 287 -242 C 345 -242 395 -227 438 -199 C 480 -171 502 -130 502 -78 C 502 -26 481 10 440 34 C 399 58 349 70 289 70 C 274 70 260 69 247 68 C 233 67 221 66 209 66 L 219 125 C 281 133 351 149 429 175 C 507 201 547 245 547 309 C 547 351 531 382 499 401 C 467 420 429 430 387 430 C 351 430 316 424 280 412 C 244 400 212 386 184 371 L 162 430 C 192 448 228 464 268 477 C 308 489 350 496 395 496 C 453 496 506 482 554 454 C 602 426 627 382 627 322 C 627 261 600 214 548 180 C 496 146 438 123 375 111 Z" unicode="₃" />
<glyph horiz-adv-x="676" d="M 637 -94 L 506 -94 L 463 -297 L 387 -297 L 432 -94 L 33 -94 L 29 -39 L 545 487 L 629 487 L 520 -31 L 647 -31 L 637 -94 Z M 444 -31 L 537 397 L 119 -31 L 444 -31 Z" unicode="₄" />
<glyph horiz-adv-x="676" d="M 219 166 C 229 166 240 167 252 168 C 264 169 278 170 293 170 C 362 170 427 153 487 119 C 547 85 578 30 578 -45 C 578 -125 548 -189 489 -237 C 430 -285 358 -309 272 -309 C 234 -309 193 -302 149 -290 C 105 -278 67 -262 37 -242 L 61 -174 C 93 -194 127 -211 163 -224 C 199 -237 237 -244 276 -244 C 338 -244 391 -226 434 -192 C 476 -158 498 -111 498 -51 C 498 5 475 45 430 71 C 385 96 337 109 285 109 C 257 109 232 107 211 105 C 189 103 169 99 150 94 L 129 119 L 250 481 L 653 481 L 645 412 L 303 412 L 219 166 Z" unicode="₅" />
<glyph horiz-adv-x="676" d="M 625 492 L 637 426 C 539 416 445 385 356 333 C 267 281 203 208 164 113 L 166 111 C 195 130 229 146 268 158 C 306 170 345 176 383 176 C 454 176 511 155 553 115 C 595 75 616 25 616 -35 C 616 -111 588 -175 534 -228 C 480 -280 411 -307 328 -307 C 245 -307 180 -280 132 -228 C 84 -175 61 -112 61 -39 C 61 109 119 231 237 326 C 355 421 484 476 625 492 Z M 139 -43 C 139 -95 155 -141 188 -181 C 220 -221 268 -242 332 -242 C 392 -242 442 -222 480 -183 C 518 -143 537 -97 537 -43 C 537 5 520 43 487 70 C 454 97 412 111 360 111 C 319 111 281 105 246 93 C 210 81 179 66 152 49 C 146 33 143 18 141 3 C 139 -11 139 -27 139 -43 Z" unicode="₆" />
<glyph horiz-adv-x="676" d="M 594 410 L 133 410 L 150 481 L 680 481 L 684 424 L 182 -293 L 96 -293 L 594 410 Z" unicode="₇" />
<glyph horiz-adv-x="676" d="M 594 -92 C 594 -156 566 -207 511 -246 C 455 -285 390 -305 315 -305 C 245 -305 183 -288 129 -256 C 75 -224 49 -177 49 -117 C 49 -55 71 -5 116 31 C 160 68 212 93 270 106 C 236 124 205 148 177 176 C 149 204 135 239 135 283 C 135 343 161 394 215 435 C 268 475 332 496 406 496 C 474 496 532 479 580 445 C 627 411 651 364 651 303 C 651 248 631 203 593 168 C 554 133 507 107 451 90 C 486 70 519 46 549 17 C 579 -11 594 -48 594 -92 Z M 516 -98 C 516 -50 493 -12 449 14 C 405 41 364 62 328 78 C 278 65 233 44 191 16 C 149 -12 129 -52 129 -104 C 129 -150 148 -184 187 -208 C 225 -232 272 -244 326 -244 C 378 -244 422 -231 460 -205 C 497 -179 516 -143 516 -98 Z M 573 293 C 573 335 556 369 523 394 C 490 419 450 432 403 432 C 353 432 310 418 272 392 C 234 366 215 331 215 289 C 215 244 236 208 280 181 C 323 153 361 133 395 119 C 441 132 482 153 518 181 C 554 209 573 246 573 293 Z" unicode="₈" />
<glyph horiz-adv-x="676" d="M 90 -303 L 78 -240 C 176 -228 269 -196 358 -144 C 447 -92 512 -18 553 78 L 549 78 C 519 59 485 44 445 32 C 405 20 367 14 330 14 C 257 14 200 33 159 73 C 118 113 98 162 98 221 C 98 296 125 360 180 414 C 235 467 304 494 387 494 C 470 494 535 468 583 416 C 631 364 655 301 655 229 C 655 78 596 -44 478 -138 C 360 -232 230 -287 90 -303 Z M 578 231 C 578 283 561 328 528 368 C 495 408 447 428 383 428 C 321 428 271 408 234 369 C 196 329 178 283 178 229 C 178 179 194 141 226 116 C 258 90 301 78 354 78 C 394 78 432 84 468 96 C 504 108 535 123 563 141 C 568 155 572 170 574 185 C 576 200 578 215 578 231 Z" unicode="₉" />
<glyph horiz-adv-x="1036" d="M 264 768 L 143 768 L 137 840 L 285 840 C 331 983 398 1095 486 1176 C 573 1257 677 1298 799 1298 C 857 1298 917 1288 978 1269 C 1039 1250 1087 1229 1122 1206 L 1090 1135 C 1052 1160 1005 1181 951 1199 C 897 1216 845 1225 795 1225 C 695 1225 609 1192 538 1128 C 467 1063 411 967 371 840 L 868 840 L 862 768 L 350 768 C 347 754 344 740 341 726 C 337 712 334 698 332 684 C 326 654 320 625 316 597 C 312 568 309 541 307 516 L 739 516 L 745 444 L 303 444 C 302 316 331 218 391 151 C 451 84 544 51 672 51 C 711 51 748 54 784 61 C 819 67 852 76 883 86 L 881 12 C 850 2 817 -6 781 -12 C 745 -18 707 -21 666 -23 C 514 -23 402 17 328 97 C 254 177 218 293 219 444 L 76 444 L 82 516 L 221 516 C 224 541 228 568 232 597 C 236 625 240 654 246 684 C 248 698 251 712 255 726 C 258 740 261 754 264 768 Z" unicode="€" />
<glyph horiz-adv-x="1776" d="M 1774 514 L 1706 514 L 1667 1192 L 1661 1192 L 1399 514 L 1311 514 L 1073 1192 L 1067 1192 L 1030 514 L 961 514 L 1008 1280 L 1114 1280 L 1356 584 L 1362 584 L 1626 1280 L 1729 1280 L 1774 514 Z M 848 1214 L 559 1214 L 559 514 L 489 514 L 489 1214 L 199 1214 L 199 1280 L 848 1280 L 848 1214 Z" unicode="™" />
<glyph horiz-adv-x="1024" d="M 928 444 L 98 444 L 104 518 L 922 518 L 928 444 Z" unicode="−" />
<glyph horiz-adv-x="1190" d="M 1333 1309 L 18 -31 L -76 -31 L 1241 1309 L 1333 1309 Z" unicode="∕" />
<glyph horiz-adv-x="1024" d="M 866 430 C 852 358 828 304 794 269 C 760 234 722 217 680 217 C 626 217 564 242 496 293 C 428 343 375 369 338 369 C 315 369 293 359 271 341 C 249 323 229 285 209 227 L 158 227 C 171 299 195 353 229 388 C 263 422 302 440 344 440 C 398 440 459 414 529 364 C 598 314 650 289 686 289 C 707 289 729 298 751 316 C 773 334 793 372 813 430 L 866 430 Z M 866 733 C 852 661 828 607 794 572 C 760 537 722 520 680 520 C 626 520 564 545 496 596 C 428 646 375 672 338 672 C 315 672 293 663 271 645 C 249 627 229 588 209 530 L 158 530 C 171 602 195 656 229 691 C 263 725 302 743 344 743 C 398 743 459 717 529 667 C 598 617 650 592 686 592 C 707 592 729 601 751 619 C 773 637 793 675 813 733 L 866 733 Z" unicode="≈" />
<glyph horiz-adv-x="1024" d="M 348 -47 L 430 268 L 147 268 L 154 346 L 451 346 L 520 614 L 154 614 L 147 692 L 541 692 L 618 987 L 694 987 L 616 692 L 879 692 L 872 614 L 596 614 L 526 346 L 872 346 L 879 268 L 506 268 L 424 -47 L 348 -47 Z" unicode="≠" />
<glyph horiz-adv-x="1024" d="M 881 287 L 881 203 L 141 514 L 141 612 L 881 924 L 881 838 L 236 571 L 236 553 L 881 287 Z M 883 55 L 156 55 L 162 129 L 877 129 L 883 55 Z" unicode="≤" />
<glyph horiz-adv-x="1024" d="M 143 203 L 143 287 L 788 553 L 788 571 L 143 838 L 143 924 L 883 612 L 883 514 L 143 203 Z M 868 55 L 141 55 L 147 129 L 862 129 L 868 55 Z" unicode="≥" />
<glyph horiz-adv-x="1497" d="M 793 -33 C 608 -33 450 32 319 164 C 188 296 123 453 123 637 C 123 821 188 979 319 1111 C 450 1243 608 1309 793 1309 C 977 1309 1134 1243 1265 1111 C 1396 979 1462 821 1462 637 C 1462 453 1396 296 1265 164 C 1134 32 977 -33 793 -33 Z M 1407 639 C 1407 806 1346 950 1226 1072 C 1106 1194 961 1255 793 1255 C 624 1255 480 1194 360 1072 C 240 950 180 806 180 639 C 180 471 240 327 360 206 C 480 85 624 25 793 25 C 961 25 1106 85 1226 206 C 1346 327 1407 471 1407 639 Z M 1085 760 C 1085 680 1058 620 1006 579 C 953 538 881 518 791 518 L 680 518 L 680 262 L 602 262 L 602 987 L 803 987 C 897 987 968 966 1015 924 C 1061 882 1085 827 1085 760 Z M 1008 758 C 1008 808 990 848 954 876 C 918 904 867 918 801 918 L 680 918 L 680 588 L 797 588 C 865 588 917 602 953 630 C 989 658 1008 700 1008 758 Z" unicode="ⓟ" />
<glyph horiz-adv-x="819" d="M 197 -178 C 199 -158 209 -142 227 -131 C 245 -119 266 -115 291 -117 C 318 -119 339 -132 353 -158 C 367 -183 371 -212 365 -244 C 356 -285 334 -326 298 -366 C 262 -406 218 -441 166 -471 L 137 -438 C 184 -408 217 -380 237 -353 C 257 -326 269 -300 274 -274 C 279 -248 274 -228 260 -214 C 246 -200 225 -188 197 -178 Z" unicode="" />
<glyph horiz-adv-x="1135" d="M 326 854 L 160 0 L 76 0 L 242 854 L 115 862 L 121 913 L 254 930 L 293 1110 C 316 1218 353 1294 403 1338 C 453 1382 511 1405 578 1405 C 611 1405 644 1400 676 1390 C 708 1380 737 1365 762 1346 L 727 1274 C 705 1289 682 1302 657 1312 C 631 1322 603 1327 571 1327 C 519 1327 477 1307 445 1267 C 413 1227 391 1173 377 1106 L 340 928 L 821 928 L 864 1130 C 887 1238 924 1315 974 1359 C 1024 1403 1083 1425 1149 1425 C 1182 1425 1215 1420 1248 1410 C 1280 1400 1309 1385 1333 1366 L 1298 1294 C 1276 1309 1253 1322 1228 1332 C 1202 1342 1174 1348 1143 1348 C 1091 1348 1049 1327 1017 1287 C 985 1247 962 1193 948 1126 L 907 928 L 1184 928 L 1178 854 L 893 854 L 727 0 L 643 0 L 809 854 L 326 854 Z" unicode="ﬀ" />
<glyph horiz-adv-x="965" d="M 766 1366 L 731 1294 C 709 1309 686 1322 661 1332 C 635 1342 607 1348 575 1348 C 523 1348 482 1327 450 1287 C 418 1247 395 1193 381 1126 L 340 928 L 616 928 L 610 854 L 326 854 L 160 0 L 76 0 L 242 850 L 115 858 L 121 913 L 254 930 L 297 1130 C 320 1238 357 1315 407 1359 C 457 1403 515 1425 582 1425 C 615 1425 648 1420 680 1410 C 712 1400 741 1385 766 1366 Z M 989 1227 C 989 1205 981 1186 967 1170 C 953 1153 934 1145 911 1145 C 887 1145 869 1153 855 1170 C 841 1186 835 1205 835 1227 C 835 1247 841 1265 854 1281 C 867 1297 885 1305 909 1305 C 932 1305 951 1297 966 1281 C 981 1265 989 1247 989 1227 Z M 717 0 L 633 0 L 813 932 L 901 958 L 717 0 Z" unicode="ﬁ" />
<glyph horiz-adv-x="952" d="M 766 1366 L 731 1294 C 709 1309 686 1322 661 1332 C 635 1342 607 1348 575 1348 C 523 1348 482 1327 450 1287 C 418 1247 395 1193 381 1126 L 340 928 L 616 928 L 610 854 L 326 854 L 160 0 L 76 0 L 242 850 L 115 858 L 121 913 L 254 930 L 297 1130 C 320 1238 357 1315 407 1359 C 457 1403 515 1425 582 1425 C 615 1425 648 1420 680 1410 C 712 1400 741 1385 766 1366 Z M 712 0 L 628 0 L 897 1380 L 987 1407 L 712 0 Z" unicode="ﬂ" />
<glyph horiz-adv-x="1532" d="M 326 854 L 160 0 L 76 0 L 242 854 L 115 862 L 121 913 L 254 930 L 293 1110 C 316 1218 353 1294 403 1338 C 453 1382 511 1405 578 1405 C 611 1405 644 1400 676 1390 C 708 1380 737 1365 762 1346 L 727 1274 C 705 1289 682 1302 657 1312 C 631 1322 603 1327 571 1327 C 519 1327 477 1307 445 1267 C 413 1227 391 1173 377 1106 L 340 928 L 821 928 L 864 1130 C 887 1238 924 1315 974 1359 C 1024 1403 1083 1425 1149 1425 C 1182 1425 1215 1420 1248 1410 C 1280 1400 1309 1385 1333 1366 L 1298 1294 C 1276 1309 1253 1322 1228 1332 C 1202 1342 1174 1348 1143 1348 C 1091 1348 1049 1327 1017 1287 C 985 1247 962 1193 948 1126 L 907 928 L 1184 928 L 1190 854 L 893 854 L 727 0 L 643 0 L 809 854 L 326 854 Z M 1556 1227 C 1556 1205 1549 1186 1535 1170 C 1521 1153 1502 1145 1479 1145 C 1455 1145 1437 1153 1423 1170 C 1409 1186 1403 1205 1403 1227 C 1403 1247 1409 1265 1422 1281 C 1434 1297 1453 1305 1477 1305 C 1500 1305 1519 1297 1534 1281 C 1548 1265 1556 1247 1556 1227 Z M 1284 0 L 1200 0 L 1380 932 L 1468 958 L 1284 0 Z" unicode="ﬃ" />
<glyph horiz-adv-x="1520" d="M 1279 0 L 1195 0 L 1464 1380 L 1554 1407 L 1279 0 Z M 326 854 L 160 0 L 76 0 L 242 854 L 115 862 L 121 913 L 254 930 L 293 1110 C 316 1218 353 1294 403 1338 C 453 1382 511 1405 578 1405 C 611 1405 644 1400 676 1390 C 708 1380 737 1365 762 1346 L 727 1274 C 705 1289 682 1302 657 1312 C 631 1322 603 1327 571 1327 C 519 1327 477 1307 445 1267 C 413 1227 391 1173 377 1106 L 340 928 L 821 928 L 864 1130 C 887 1238 924 1315 974 1359 C 1024 1403 1083 1425 1149 1425 C 1182 1425 1215 1420 1248 1410 C 1280 1400 1309 1385 1333 1366 L 1298 1294 C 1276 1309 1253 1322 1228 1332 C 1202 1342 1174 1348 1143 1348 C 1091 1348 1049 1327 1017 1287 C 985 1247 962 1193 948 1126 L 907 928 L 1184 928 L 1178 854 L 893 854 L 727 0 L 643 0 L 809 854 L 326 854 Z" unicode="ﬄ" />
</font>
</defs>
</svg>
