<?xml version="1.0" encoding="utf-8" ?><svg version="1.1" xmlns = 'http://www.w3.org/2000/svg'><defs><font id='web' horiz-adv-x="1000">
<font-face font-family="web" descent="-512" cap-height="1413" units-per-em="2048" bbox="-371,-541,2642,1913" x-height="1004" ascent="1536" />
<missing-glyph horiz-adv-x="0" d="" /><glyph horiz-adv-x="395" d="" unicode=" " />
<glyph horiz-adv-x="399" d="M 324 1501 L 506 1501 C 503 1490 497 1466 488 1428 C 479 1390 468 1345 455 1291 C 441 1237 425 1177 409 1112 C 393 1046 376 980 359 913 C 342 846 325 781 309 719 C 293 656 278 600 265 550 C 252 500 241 459 233 429 C 225 398 220 381 219 379 L 131 379 C 131 381 133 398 138 429 C 142 459 149 500 159 550 C 167 600 177 656 187 719 C 197 781 208 846 220 913 C 232 980 243 1046 255 1112 C 266 1177 276 1237 286 1291 C 294 1345 302 1390 309 1428 C 315 1466 320 1490 324 1501 Z M 102 -29 C 74 -29 51 -19 32 -1 C 13 17 4 40 4 68 C 4 99 15 126 39 150 C 62 174 91 186 125 186 C 152 186 175 176 193 158 C 211 140 221 117 221 90 C 221 58 209 31 185 7 C 161 -17 134 -29 102 -29 Z" unicode="!" />
<glyph horiz-adv-x="678" d="M 332 1032 L 211 1032 L 274 1503 L 453 1503 L 332 1032 Z M 598 1032 L 471 1032 L 547 1503 L 723 1503 L 598 1032 Z" unicode="&#x22;" />
<glyph horiz-adv-x="1284" d="M 559 889 L 389 526 L 770 526 L 938 889 L 559 889 Z M 1323 1413 L 1130 1001 L 1370 1001 L 1315 889 L 1077 889 L 909 526 L 1149 526 L 1096 414 L 856 414 L 664 0 L 524 0 L 717 414 L 336 414 L 143 0 L 4 0 L 197 414 L -37 414 L 16 526 L 250 526 L 418 889 L 182 889 L 233 1001 L 471 1001 L 664 1413 L 805 1413 L 612 1001 L 991 1001 L 1184 1413 L 1323 1413 Z" unicode="#" />
<glyph horiz-adv-x="1194" d="M 680 1317 C 587 1317 514 1294 462 1248 C 409 1202 383 1143 383 1071 C 383 1041 388 1014 399 990 C 410 966 425 944 443 925 C 461 905 483 886 508 870 C 532 854 559 838 588 823 L 692 1317 L 680 1317 Z M 791 196 C 817 219 837 246 850 277 C 863 308 870 340 870 373 C 870 408 863 439 849 466 C 835 492 818 516 796 537 C 773 557 747 575 718 591 C 688 607 659 623 629 639 L 518 117 L 541 117 C 598 117 647 124 688 138 C 729 152 763 172 791 196 Z M 369 -207 L 414 2 C 332 16 263 40 209 76 C 154 111 115 153 92 201 C 84 219 77 238 73 257 C 68 275 66 292 68 307 C 69 326 76 345 88 363 C 100 381 120 391 150 391 C 178 391 197 380 205 358 C 213 336 220 313 227 289 C 242 237 268 198 305 173 C 341 147 386 131 438 123 L 555 674 C 513 696 473 718 435 742 C 397 766 364 793 336 823 C 307 853 284 886 268 924 C 252 962 244 1005 244 1053 C 244 1111 255 1164 277 1212 C 299 1260 331 1300 372 1334 C 412 1367 460 1393 516 1411 C 572 1429 633 1438 700 1438 L 719 1438 L 760 1632 L 842 1632 L 799 1432 C 869 1420 930 1399 981 1368 C 1031 1336 1069 1298 1094 1253 C 1100 1239 1106 1223 1112 1205 C 1117 1187 1120 1170 1120 1155 C 1120 1134 1113 1114 1101 1095 C 1089 1076 1068 1067 1038 1067 C 1023 1067 1011 1070 1002 1076 C 993 1082 986 1090 981 1101 C 975 1111 971 1122 969 1134 C 966 1146 962 1159 958 1171 C 946 1213 922 1245 887 1265 C 851 1285 813 1300 772 1309 L 662 784 C 704 764 746 742 788 719 C 830 695 869 669 903 640 C 937 610 964 576 986 537 C 1007 498 1018 452 1018 399 C 1018 341 1007 288 985 239 C 963 190 931 148 889 112 C 846 75 795 46 735 25 C 675 4 606 -6 530 -6 C 523 -6 517 -6 512 -6 C 506 -6 500 -5 494 -4 L 451 -207 L 369 -207 Z" unicode="$" />
<glyph horiz-adv-x="1919" d="M 740 740 C 704 688 659 645 607 612 C 555 579 495 563 428 563 C 334 563 261 593 209 655 C 157 717 131 797 131 897 C 131 959 140 1023 159 1087 C 177 1151 204 1210 240 1263 C 275 1315 319 1358 372 1391 C 424 1423 485 1440 553 1440 C 645 1440 718 1410 770 1350 C 822 1290 848 1208 848 1106 C 848 1042 838 977 820 913 C 802 849 775 791 740 740 Z M 733 1096 C 733 1176 715 1237 681 1279 C 646 1321 601 1342 547 1342 C 499 1342 456 1329 419 1303 C 381 1277 350 1242 324 1200 C 298 1158 278 1111 264 1059 C 250 1007 244 955 244 905 C 244 827 260 767 294 725 C 327 683 372 662 428 662 C 476 662 519 675 557 701 C 595 727 628 760 654 802 C 679 843 698 890 712 942 C 726 994 733 1045 733 1096 Z M 1715 152 C 1679 100 1634 57 1582 24 C 1530 -8 1470 -25 1403 -25 C 1309 -25 1236 5 1184 67 C 1132 129 1106 209 1106 309 C 1106 371 1115 435 1134 499 C 1152 563 1179 622 1215 675 C 1250 727 1294 770 1347 803 C 1399 835 1460 852 1528 852 C 1620 852 1693 822 1745 762 C 1797 702 1823 620 1823 518 C 1823 454 1813 389 1795 325 C 1777 261 1750 203 1715 152 Z M 1708 508 C 1708 588 1690 649 1656 691 C 1621 733 1576 754 1522 754 C 1474 754 1431 741 1394 715 C 1356 689 1325 654 1299 612 C 1273 570 1253 523 1239 471 C 1225 419 1219 367 1219 317 C 1219 239 1235 179 1269 137 C 1302 95 1347 74 1403 74 C 1451 74 1494 87 1532 113 C 1570 139 1603 172 1629 214 C 1654 255 1673 302 1687 354 C 1701 406 1708 457 1708 508 Z M 1510 1415 L 561 0 L 428 0 L 1376 1415 L 1510 1415 Z" unicode="%" />
<glyph horiz-adv-x="1645" d="M 1448 1315 C 1397 1315 1354 1303 1318 1281 C 1282 1258 1264 1226 1264 1186 C 1264 1165 1269 1147 1279 1132 C 1289 1117 1305 1110 1329 1110 C 1341 1110 1352 1112 1360 1117 C 1368 1121 1375 1127 1383 1133 C 1391 1138 1399 1143 1407 1148 C 1415 1152 1425 1155 1438 1155 C 1456 1155 1470 1149 1480 1138 C 1490 1127 1495 1114 1495 1100 C 1495 1083 1489 1068 1479 1056 C 1469 1044 1456 1034 1441 1026 C 1425 1018 1407 1011 1388 1007 C 1369 1003 1351 1001 1333 1001 C 1281 1001 1239 1017 1207 1050 C 1175 1083 1159 1127 1159 1182 C 1159 1255 1187 1313 1244 1356 C 1300 1399 1372 1421 1460 1421 C 1501 1421 1540 1416 1578 1406 C 1615 1396 1648 1379 1677 1356 C 1705 1332 1728 1302 1746 1266 C 1763 1230 1772 1186 1772 1135 C 1772 1077 1760 1024 1738 976 C 1715 927 1683 885 1642 850 C 1601 814 1551 787 1493 767 C 1434 747 1368 736 1296 735 C 1319 709 1337 679 1349 645 C 1361 611 1368 572 1368 528 C 1368 456 1351 385 1318 317 C 1284 249 1236 188 1174 135 C 1110 81 1033 38 943 6 C 852 -26 749 -43 633 -43 C 537 -43 450 -31 372 -8 C 294 15 228 48 173 90 C 117 132 75 184 45 245 C 15 305 0 374 0 451 C 0 512 9 568 28 620 C 47 672 73 718 106 760 C 139 800 177 836 221 867 C 265 897 310 922 358 942 C 332 965 311 993 295 1026 C 279 1058 272 1097 272 1141 C 272 1185 281 1226 300 1264 C 318 1302 344 1335 377 1363 C 409 1391 449 1412 495 1428 C 541 1444 593 1452 649 1452 C 701 1452 745 1445 781 1432 C 817 1419 847 1402 869 1382 C 891 1362 908 1339 918 1313 C 928 1287 934 1261 934 1235 C 934 1211 930 1188 922 1164 C 914 1140 904 1118 892 1100 C 878 1080 862 1065 844 1053 C 826 1041 806 1036 786 1036 C 763 1036 746 1042 736 1055 C 726 1068 721 1082 721 1098 C 721 1114 725 1126 735 1136 C 745 1146 755 1155 766 1163 C 776 1171 786 1180 796 1190 C 806 1199 811 1213 811 1233 C 811 1264 795 1290 764 1311 C 732 1332 690 1343 637 1343 C 569 1343 513 1325 469 1289 C 425 1253 403 1203 403 1141 C 403 1099 412 1065 430 1039 C 448 1012 470 992 498 979 C 512 981 527 983 541 985 C 555 986 570 987 586 987 C 634 987 668 981 688 969 C 707 957 717 943 717 926 C 717 900 702 881 674 870 C 645 859 616 854 586 854 C 568 854 550 855 532 858 C 514 861 495 866 477 872 C 376 844 295 796 235 726 C 175 656 145 567 145 461 C 145 337 189 242 279 176 C 369 109 491 76 645 76 C 735 76 815 87 887 111 C 959 135 1020 167 1072 208 C 1123 248 1162 295 1190 349 C 1217 403 1231 460 1231 520 C 1231 596 1209 655 1165 696 C 1121 737 1059 758 977 758 C 895 758 828 738 777 700 C 725 662 700 610 700 545 C 700 509 708 482 725 462 C 741 442 763 432 791 432 C 805 432 818 434 829 439 C 840 443 850 449 859 456 C 867 462 876 467 886 473 C 896 478 907 481 920 481 C 937 481 950 476 959 467 C 968 458 973 444 973 426 C 973 406 967 390 956 376 C 945 362 931 352 914 344 C 897 336 878 329 857 325 C 835 321 815 319 795 319 C 756 319 723 324 697 336 C 670 348 649 363 633 383 C 616 402 604 424 597 450 C 589 476 586 503 586 532 C 586 580 595 624 614 664 C 633 704 660 740 695 770 C 730 800 773 823 823 839 C 873 855 929 864 991 864 C 1039 864 1088 860 1140 854 C 1191 847 1240 844 1288 844 C 1400 844 1486 869 1548 921 C 1609 973 1640 1040 1640 1124 C 1640 1188 1622 1236 1588 1268 C 1553 1299 1506 1315 1448 1315 Z" unicode="&#x26;" />
<glyph horiz-adv-x="399" d="M 326 1032 L 199 1032 L 274 1503 L 453 1503 L 326 1032 Z" unicode="'" />
<glyph horiz-adv-x="657" d="M 719 1421 L 741 1327 C 635 1295 545 1243 472 1171 C 398 1099 339 1017 294 927 C 248 836 215 741 195 642 C 175 543 166 451 166 367 C 166 238 187 125 231 28 C 275 -68 342 -147 432 -209 L 385 -293 C 335 -269 289 -237 246 -197 C 203 -157 165 -109 133 -53 C 100 3 74 66 55 136 C 36 206 27 284 27 369 C 27 429 32 493 42 563 C 52 633 68 703 91 774 C 113 845 143 915 179 983 C 215 1051 258 1114 310 1172 C 361 1230 420 1281 488 1324 C 556 1367 633 1399 719 1421 Z" unicode="(" />
<glyph horiz-adv-x="655" d="M -47 -293 L -70 -199 C 36 -167 126 -115 199 -43 C 272 29 332 111 378 202 C 423 292 456 387 476 486 C 496 585 506 677 506 762 C 506 890 484 1002 440 1099 C 396 1196 330 1275 240 1337 L 287 1421 C 335 1397 381 1366 424 1326 C 467 1286 505 1238 539 1182 C 571 1126 597 1062 616 991 C 635 920 645 843 645 760 C 645 700 639 635 629 565 C 619 495 603 425 581 354 C 558 283 528 213 492 145 C 456 77 412 14 361 -44 C 310 -102 251 -152 183 -196 C 115 -240 39 -272 -47 -293 Z" unicode=")" />
<glyph horiz-adv-x="905" d="M 551 1036 L 317 770 L 217 842 L 469 1100 L 203 1188 L 256 1298 L 520 1196 L 575 1511 L 721 1511 L 641 1198 L 948 1298 L 956 1182 L 653 1096 L 795 842 L 670 770 L 551 1036 Z" unicode="*" />
<glyph horiz-adv-x="969" d="M 506 1016 L 623 1016 L 553 688 L 858 688 L 836 582 L 530 582 L 461 254 L 344 254 L 414 582 L 109 582 L 131 688 L 436 688 L 506 1016 Z" unicode="+" />
<glyph horiz-adv-x="414" d="M -6 -279 L -41 -225 C -4 -199 26 -168 52 -132 C 77 -96 94 -60 104 -25 L 100 -25 C 68 -25 44 -15 27 4 C 10 23 2 46 2 72 C 2 104 14 131 38 153 C 62 175 89 186 121 186 C 149 186 173 176 191 158 C 209 140 219 116 219 86 C 219 53 212 18 200 -18 C 188 -55 171 -90 151 -124 C 129 -157 105 -188 78 -216 C 50 -244 22 -265 -6 -279 Z" unicode="," />
<glyph horiz-adv-x="717" d="M 121 696 L 633 696 L 606 584 L 96 584 L 121 696 Z" unicode="-" />
<glyph horiz-adv-x="424" d="M 113 -29 C 85 -29 62 -19 43 -1 C 23 17 14 40 14 68 C 14 99 25 126 49 150 C 72 174 100 186 133 186 C 160 186 183 176 201 158 C 219 140 229 117 229 90 C 229 58 217 31 194 7 C 171 -17 144 -29 113 -29 Z" unicode="." />
<glyph horiz-adv-x="793" d="M 1090 1556 L -150 -344 L -311 -344 L 930 1556 L 1090 1556 Z" unicode="/" />
<glyph horiz-adv-x="1350" d="M 976 112 C 924 64 867 27 805 -1 C 742 -29 673 -43 598 -43 C 522 -43 455 -30 396 -4 C 336 22 286 58 246 106 C 204 154 173 212 151 280 C 129 348 119 425 119 510 C 119 572 125 639 137 711 C 149 783 168 854 194 924 C 218 993 249 1060 287 1124 C 325 1188 369 1245 420 1293 C 470 1341 528 1380 592 1410 C 656 1439 727 1454 805 1454 C 880 1454 947 1441 1007 1415 C 1066 1389 1116 1352 1158 1304 C 1200 1255 1232 1196 1254 1128 C 1276 1060 1288 983 1288 899 C 1288 832 1281 762 1267 690 C 1253 618 1234 547 1208 477 C 1182 407 1149 341 1111 277 C 1072 213 1027 158 976 112 Z M 1128 895 C 1128 1035 1097 1142 1036 1214 C 974 1286 895 1323 797 1323 C 737 1323 682 1310 632 1285 C 582 1259 538 1226 500 1185 C 461 1143 427 1094 399 1039 C 370 983 346 926 328 867 C 308 807 294 747 285 687 C 276 626 272 569 272 516 C 272 375 302 268 363 196 C 424 124 503 88 600 88 C 687 88 763 114 829 166 C 895 218 950 283 994 362 C 1038 441 1072 528 1094 623 C 1116 718 1128 809 1128 895 Z" unicode="0" />
<glyph horiz-adv-x="893" d="M 20 86 L 283 109 L 522 1229 C 470 1201 416 1183 361 1175 C 306 1167 255 1169 207 1182 L 223 1253 C 297 1249 369 1263 441 1296 C 513 1329 579 1374 639 1432 L 717 1413 L 438 106 L 700 86 L 684 0 L 4 0 L 20 86 Z" unicode="1" />
<glyph horiz-adv-x="1212" d="M 219 199 C 242 210 266 218 290 224 C 314 230 339 233 365 233 C 409 233 450 225 487 210 C 524 195 559 179 592 163 C 624 145 657 129 690 114 C 722 99 758 92 797 92 C 811 92 828 93 846 96 C 864 98 882 104 898 114 C 914 122 927 134 937 150 C 947 166 952 186 952 211 C 952 225 950 237 948 247 C 945 257 944 267 944 279 C 944 303 951 321 966 335 C 981 349 1000 356 1022 356 C 1048 356 1068 345 1082 324 C 1096 303 1104 275 1104 240 C 1104 201 1095 165 1079 132 C 1063 98 1041 69 1013 44 C 985 18 951 -1 912 -15 C 873 -29 831 -37 786 -37 C 738 -37 697 -29 662 -14 C 627 0 593 16 560 34 C 526 50 492 66 456 81 C 420 96 379 104 332 104 C 276 104 230 93 195 71 C 160 49 135 19 121 -20 L 10 0 C 28 86 50 160 78 222 C 105 284 140 339 182 389 C 224 438 276 484 338 526 C 399 568 473 614 561 662 C 610 687 658 713 704 741 C 750 768 791 798 827 831 C 863 864 891 901 912 942 C 933 983 944 1030 944 1083 C 944 1159 920 1219 874 1263 C 828 1307 760 1329 670 1329 C 611 1329 559 1319 513 1300 C 467 1281 428 1255 397 1221 C 365 1186 341 1145 323 1098 C 305 1051 295 1000 291 946 L 180 942 C 176 1012 184 1077 205 1139 C 225 1200 257 1254 299 1300 C 341 1346 394 1383 458 1411 C 522 1438 598 1452 684 1452 C 816 1452 919 1420 992 1356 C 1065 1292 1102 1202 1102 1087 C 1102 1016 1088 954 1060 901 C 1032 847 995 800 949 758 C 903 715 852 677 795 644 C 737 610 679 579 621 549 C 563 519 513 491 471 466 C 429 440 392 415 361 389 C 330 363 303 335 281 305 C 259 275 238 239 219 199 Z" unicode="2" />
<glyph horiz-adv-x="1149" d="M 859 86 C 811 45 755 13 691 -9 C 626 -31 556 -43 481 -43 C 383 -43 298 -23 226 14 C 154 52 101 106 66 174 C 58 186 52 202 48 220 C 43 238 41 255 43 270 C 45 294 54 314 68 330 C 82 346 101 354 125 354 C 139 354 151 351 159 346 C 167 340 174 333 179 324 C 183 314 187 302 189 289 C 191 276 194 263 197 250 C 202 221 214 196 233 175 C 252 153 275 136 302 122 C 328 107 358 96 391 89 C 423 81 458 78 494 78 C 548 78 597 86 642 103 C 686 120 725 144 757 175 C 789 205 814 241 832 281 C 850 321 860 366 862 414 C 864 496 838 560 783 608 C 727 656 646 681 539 684 L 403 688 L 424 797 L 553 801 C 602 802 648 809 692 823 C 736 837 774 856 807 882 C 839 907 865 937 884 973 C 903 1008 913 1048 915 1094 C 918 1163 896 1220 848 1264 C 800 1308 729 1331 637 1331 C 559 1331 492 1312 437 1274 C 381 1236 335 1177 297 1098 L 201 1124 C 232 1226 287 1307 367 1365 C 447 1423 548 1452 670 1452 C 738 1452 797 1442 848 1424 C 898 1406 940 1381 972 1351 C 1004 1320 1027 1284 1042 1244 C 1057 1204 1064 1161 1063 1116 C 1061 1079 1055 1042 1043 1006 C 1031 970 1014 935 991 903 C 967 870 938 840 903 814 C 867 787 826 766 778 750 C 856 726 915 687 957 632 C 999 576 1018 506 1016 422 C 1013 353 998 290 971 233 C 943 175 906 126 859 86 Z" unicode="3" />
<glyph horiz-adv-x="1272" d="M 446 86 L 698 109 L 770 440 L 39 440 L 63 557 C 125 614 184 676 240 744 C 296 812 349 882 399 955 C 449 1028 496 1102 540 1178 C 584 1254 623 1329 659 1405 L 745 1382 C 722 1314 692 1241 654 1164 C 616 1087 575 1011 529 937 C 483 862 435 791 383 725 C 331 658 279 601 229 555 L 795 555 L 963 1350 L 1118 1413 L 1130 1413 L 948 555 L 1182 555 L 1153 440 L 924 440 L 854 109 L 1087 86 L 1069 0 L 428 0 L 446 86 Z" unicode="4" />
<glyph horiz-adv-x="1153" d="M 891 475 C 892 566 868 639 818 694 C 768 748 688 776 580 776 C 508 776 447 766 396 747 C 344 728 300 701 264 666 L 164 702 L 393 1413 L 440 1436 C 488 1420 537 1410 587 1404 C 637 1398 687 1395 739 1395 C 803 1395 869 1398 935 1406 C 1001 1413 1069 1424 1139 1440 L 1124 1348 C 1070 1320 1007 1299 934 1285 C 861 1271 789 1264 717 1264 C 678 1264 640 1266 604 1270 C 567 1274 527 1281 483 1292 L 330 819 C 372 842 418 860 469 874 C 519 888 572 895 627 895 C 760 895 864 859 938 789 C 1012 719 1047 621 1044 496 C 1042 419 1028 347 1002 281 C 976 215 939 158 891 111 C 843 63 785 25 718 -2 C 651 -29 578 -43 498 -43 C 399 -43 312 -24 236 12 C 160 49 105 102 70 172 C 62 184 56 199 51 219 C 45 238 44 255 47 270 C 49 294 57 314 70 330 C 83 346 102 354 127 354 C 157 354 175 343 181 322 C 187 301 193 276 201 248 C 214 192 249 150 307 122 C 364 94 428 80 500 80 C 560 80 613 90 661 111 C 709 132 750 161 784 197 C 818 232 844 274 862 322 C 880 370 889 421 891 475 Z" unicode="5" />
<glyph horiz-adv-x="1235" d="M 1090 1118 C 1065 1118 1048 1126 1039 1142 C 1030 1158 1021 1176 1012 1196 C 991 1236 961 1269 922 1293 C 883 1317 833 1329 772 1329 C 690 1329 619 1308 561 1267 C 502 1226 453 1174 414 1110 C 374 1046 343 975 322 898 C 301 820 287 745 279 672 C 326 749 386 807 460 847 C 534 887 615 907 705 907 C 765 907 820 897 872 879 C 924 861 969 834 1007 800 C 1044 765 1073 722 1095 670 C 1117 618 1128 559 1128 494 C 1128 420 1116 350 1092 285 C 1068 220 1034 164 990 116 C 946 67 892 28 828 0 C 764 -28 694 -43 616 -43 C 540 -43 471 -29 410 -3 C 349 23 297 62 255 114 C 211 164 178 227 155 301 C 132 375 121 459 121 553 C 121 617 126 683 137 753 C 148 823 165 891 188 958 C 211 1025 240 1088 276 1148 C 312 1207 354 1259 402 1305 C 450 1349 505 1385 567 1412 C 628 1438 697 1452 774 1452 C 853 1452 924 1438 987 1410 C 1049 1382 1099 1342 1135 1290 C 1143 1278 1150 1264 1158 1249 C 1165 1234 1169 1218 1169 1200 C 1169 1176 1161 1157 1146 1141 C 1131 1125 1112 1118 1090 1118 Z M 888 713 C 860 737 827 755 789 767 C 751 778 712 784 672 784 C 632 784 592 778 552 766 C 512 754 473 735 437 711 C 401 686 368 655 340 619 C 311 583 288 541 272 494 C 279 356 314 253 377 185 C 439 117 521 84 623 84 C 680 84 731 94 775 115 C 819 136 857 165 888 203 C 918 239 941 281 957 329 C 973 377 981 427 981 481 C 981 534 972 580 955 618 C 938 656 916 688 888 713 Z" unicode="6" />
<glyph horiz-adv-x="1161" d="M 406 428 C 436 499 472 568 516 634 C 560 700 610 762 668 821 C 712 866 751 906 785 941 C 819 975 849 1008 876 1039 C 902 1069 925 1100 945 1131 C 965 1162 983 1196 999 1233 C 983 1226 966 1222 949 1220 C 932 1218 916 1217 901 1217 C 857 1217 818 1222 784 1233 C 750 1243 718 1256 688 1270 C 658 1283 628 1295 599 1306 C 569 1317 537 1323 502 1323 C 484 1323 465 1321 446 1318 C 427 1314 410 1308 394 1299 C 378 1290 365 1278 355 1263 C 345 1248 340 1230 340 1208 C 340 1194 341 1182 344 1172 C 346 1162 348 1151 348 1141 C 348 1117 339 1099 323 1085 C 307 1071 289 1065 270 1065 C 245 1065 225 1075 211 1095 C 197 1115 190 1144 190 1180 C 190 1218 197 1253 213 1286 C 228 1318 249 1347 276 1372 C 303 1396 335 1416 371 1430 C 407 1444 448 1452 492 1452 C 536 1452 576 1446 611 1434 C 646 1422 679 1410 711 1396 C 742 1381 774 1368 806 1356 C 838 1344 874 1339 915 1339 C 947 1339 976 1346 1003 1360 C 1030 1374 1051 1401 1065 1440 L 1180 1434 C 1170 1365 1154 1302 1132 1246 C 1110 1189 1083 1134 1050 1082 C 1016 1030 976 978 932 927 C 888 875 839 822 786 768 C 734 714 690 661 652 609 C 614 556 583 499 558 439 C 532 378 512 312 497 241 C 482 170 472 90 467 0 L 307 0 C 309 69 319 140 335 213 C 351 285 375 357 406 428 Z" unicode="7" />
<glyph horiz-adv-x="1204" d="M 932 83 C 885 43 831 12 769 -10 C 707 -32 641 -43 571 -43 C 508 -43 448 -34 390 -18 C 332 -2 281 22 237 55 C 192 87 156 129 130 179 C 103 229 90 286 90 352 C 90 404 98 453 114 499 C 130 545 153 588 182 626 C 210 663 245 694 285 720 C 325 745 370 763 420 774 C 362 805 321 845 297 894 C 272 942 260 995 260 1053 C 260 1104 269 1154 288 1202 C 307 1250 336 1292 375 1329 C 413 1365 459 1395 515 1418 C 570 1440 634 1452 707 1452 C 768 1452 823 1443 873 1427 C 923 1411 965 1388 1000 1358 C 1035 1328 1062 1291 1081 1249 C 1100 1207 1110 1160 1110 1110 C 1110 1073 1104 1036 1094 1000 C 1084 964 1068 929 1048 897 C 1026 864 999 835 967 809 C 934 783 895 762 850 748 C 922 720 978 678 1020 622 C 1062 565 1083 497 1083 418 C 1083 348 1069 284 1042 228 C 1014 171 978 123 932 83 Z M 476 1245 C 450 1219 431 1189 419 1157 C 407 1124 401 1091 401 1057 C 401 979 427 919 480 878 C 532 837 598 817 678 817 C 735 817 782 827 819 848 C 855 868 885 893 907 923 C 929 952 944 983 953 1015 C 962 1047 967 1074 967 1098 C 967 1129 961 1159 950 1188 C 939 1216 923 1241 901 1263 C 879 1283 851 1300 819 1312 C 786 1324 748 1331 705 1331 C 654 1331 609 1323 571 1307 C 533 1291 501 1271 476 1245 Z M 932 401 C 932 490 902 560 843 611 C 783 662 702 688 598 688 C 547 688 500 680 457 666 C 414 652 377 631 345 603 C 313 575 287 540 269 499 C 251 458 242 411 242 358 C 242 316 249 278 265 244 C 281 210 303 180 332 156 C 360 131 394 112 433 98 C 472 84 515 78 563 78 C 612 78 659 85 703 101 C 747 117 787 139 821 167 C 855 195 882 228 902 268 C 922 308 932 352 932 401 Z" unicode="8" />
<glyph horiz-adv-x="1235" d="M 392 697 C 420 671 452 653 489 642 C 526 630 564 625 604 625 C 683 625 759 647 832 693 C 905 739 961 807 1001 897 C 997 1041 964 1149 904 1221 C 843 1293 761 1329 659 1329 C 603 1329 552 1318 508 1296 C 464 1274 426 1245 395 1209 C 363 1173 339 1131 323 1083 C 307 1035 299 986 299 934 C 299 879 307 832 324 793 C 341 754 364 722 392 697 Z M 266 215 C 286 170 316 137 354 115 C 392 93 440 82 496 82 C 577 82 647 101 707 141 C 767 181 816 232 856 295 C 895 357 926 427 948 503 C 970 579 985 655 993 729 C 945 655 884 599 809 561 C 733 523 652 504 565 504 C 507 504 453 513 403 531 C 353 549 309 577 271 613 C 233 649 204 693 183 745 C 162 797 152 856 152 924 C 152 994 164 1061 188 1125 C 212 1189 247 1245 293 1293 C 337 1341 391 1380 454 1409 C 517 1437 588 1452 666 1452 C 818 1452 938 1400 1024 1298 C 1110 1196 1153 1051 1153 864 C 1153 800 1147 733 1136 663 C 1125 593 1108 525 1085 458 C 1062 390 1033 326 998 266 C 963 206 922 153 874 108 C 826 62 771 25 709 -2 C 647 -29 578 -43 504 -43 C 422 -43 348 -28 284 1 C 220 30 172 70 141 121 C 134 133 127 146 121 161 C 114 176 111 192 111 209 C 111 232 118 251 132 267 C 146 283 165 291 188 291 C 211 291 227 283 236 269 C 245 255 255 237 266 215 Z" unicode="9" />
<glyph horiz-adv-x="410" d="M 113 -29 C 85 -29 62 -19 43 -1 C 23 17 14 40 14 68 C 14 99 25 126 49 150 C 72 174 100 186 133 186 C 160 186 183 176 201 158 C 219 140 229 117 229 90 C 229 58 217 31 194 7 C 171 -17 144 -29 113 -29 Z M 301 821 C 273 821 250 830 231 849 C 211 867 202 890 202 918 C 202 949 213 976 237 1000 C 260 1024 288 1036 321 1036 C 348 1036 371 1026 389 1008 C 407 990 417 967 417 940 C 417 908 405 881 382 857 C 359 833 332 821 301 821 Z" unicode=":" />
<glyph horiz-adv-x="418" d="M -6 -279 L -41 -225 C -4 -199 26 -168 52 -132 C 77 -96 94 -60 104 -25 L 100 -25 C 68 -25 44 -15 27 4 C 10 23 2 46 2 72 C 2 104 14 131 38 153 C 62 175 89 186 121 186 C 149 186 173 176 191 158 C 209 140 219 116 219 86 C 219 53 212 18 200 -18 C 188 -55 171 -90 151 -124 C 129 -157 105 -188 78 -216 C 50 -244 22 -265 -6 -279 Z M 293 821 C 265 821 242 830 223 849 C 203 867 194 890 194 918 C 194 949 205 976 229 1000 C 252 1024 280 1036 313 1036 C 340 1036 363 1026 381 1008 C 399 990 409 967 409 940 C 409 908 397 881 374 857 C 351 833 324 821 293 821 Z" unicode=";" />
<glyph horiz-adv-x="969" d="M 821 961 L 360 612 L 680 264 L 596 193 L 207 616 L 211 631 L 762 1047 L 821 961 Z" unicode="&#x3C;" />
<glyph horiz-adv-x="969" d="M 131 692 L 156 799 L 881 799 L 856 692 L 131 692 Z M 84 463 L 109 569 L 834 569 L 809 463 L 84 463 Z" unicode="=" />
<glyph horiz-adv-x="969" d="M 201 203 L 141 289 L 602 637 L 283 985 L 367 1059 L 756 633 L 752 618 L 201 203 Z" unicode="&#x3E;" />
<glyph horiz-adv-x="952" d="M 298 1422 C 340 1456 390 1481 447 1499 C 503 1517 563 1526 625 1526 C 685 1526 742 1518 796 1502 C 850 1486 897 1463 938 1432 C 978 1400 1011 1360 1036 1314 C 1060 1268 1073 1215 1073 1155 C 1073 1083 1059 1022 1032 972 C 1004 922 970 879 930 843 C 888 806 844 775 796 750 C 748 725 704 702 662 680 C 618 656 581 634 551 612 C 521 590 506 564 506 532 C 506 516 510 502 519 491 C 527 480 541 474 559 473 L 580 473 L 555 397 C 548 394 541 393 534 393 C 527 393 520 393 514 393 C 477 393 445 404 417 428 C 389 451 375 483 375 524 C 375 554 380 580 392 604 C 404 627 419 648 439 667 C 459 685 482 701 508 717 C 534 733 561 748 590 764 C 628 784 666 805 705 826 C 744 847 780 872 812 901 C 844 929 870 963 890 1001 C 910 1039 920 1087 920 1143 C 920 1216 893 1278 841 1330 C 788 1381 710 1407 608 1407 C 560 1407 519 1400 483 1387 C 447 1374 418 1357 394 1336 C 370 1315 351 1291 338 1265 C 325 1238 318 1212 317 1186 C 315 1166 316 1148 318 1132 C 320 1116 320 1099 317 1081 C 314 1066 306 1050 294 1034 C 282 1018 262 1010 236 1010 C 208 1010 188 1021 176 1043 C 164 1065 158 1093 158 1126 C 158 1190 170 1247 195 1297 C 220 1347 254 1388 298 1422 Z M 403 -29 C 375 -29 352 -19 333 -1 C 314 17 305 40 305 68 C 305 99 316 126 339 150 C 361 174 390 186 424 186 C 451 186 474 176 492 158 C 510 140 520 117 520 90 C 520 58 508 31 485 7 C 462 -17 435 -29 403 -29 Z" unicode="?" />
<glyph horiz-adv-x="1538" d="M 1389 286 C 1355 245 1317 215 1274 196 C 1231 177 1185 168 1137 168 C 1099 168 1063 175 1029 190 C 994 205 969 231 954 268 C 922 223 885 189 842 166 C 799 142 753 131 705 131 C 618 131 550 158 500 214 C 450 269 426 340 426 428 C 426 492 436 550 457 603 C 478 655 506 700 541 737 C 575 774 613 803 657 823 C 701 843 745 854 791 854 C 841 854 885 843 925 821 C 965 799 995 768 1016 729 L 1075 846 L 1161 842 L 1069 408 C 1066 396 1064 387 1063 379 C 1061 371 1061 362 1061 352 C 1061 316 1071 290 1091 274 C 1111 258 1139 250 1174 250 C 1195 250 1219 255 1247 267 C 1274 279 1300 300 1325 330 C 1349 360 1370 401 1386 455 C 1402 508 1411 576 1411 659 C 1411 735 1398 805 1373 868 C 1347 931 1311 985 1265 1030 C 1217 1075 1160 1110 1092 1136 C 1024 1161 948 1174 864 1174 C 779 1174 695 1156 612 1122 C 528 1088 454 1038 388 972 C 322 905 268 823 226 725 C 184 627 164 513 164 385 C 164 295 179 214 209 144 C 239 74 280 14 334 -34 C 387 -82 449 -118 521 -144 C 593 -169 670 -182 754 -182 C 819 -182 882 -173 942 -157 C 1002 -141 1058 -117 1110 -86 L 1137 -141 C 1085 -178 1025 -206 959 -226 C 893 -246 824 -256 752 -256 C 656 -256 567 -241 486 -212 C 405 -182 334 -140 274 -86 C 214 -31 167 35 133 113 C 99 191 82 281 82 381 C 82 520 104 643 150 751 C 196 859 256 950 330 1025 C 403 1099 486 1156 580 1194 C 674 1232 768 1251 864 1251 C 964 1251 1052 1236 1130 1207 C 1208 1177 1274 1137 1328 1085 C 1382 1033 1423 972 1452 900 C 1480 828 1495 750 1495 666 C 1495 578 1485 503 1466 440 C 1447 377 1421 326 1389 286 Z M 549 434 C 549 368 567 318 603 282 C 639 246 687 229 748 229 C 786 229 820 237 850 254 C 880 270 907 295 930 328 L 991 627 C 980 665 958 695 926 719 C 893 742 853 754 805 754 C 773 754 742 746 712 731 C 681 716 654 695 630 668 C 606 640 586 607 571 567 C 556 527 549 483 549 434 Z" unicode="@" />
<glyph horiz-adv-x="1522" d="M 918 1223 L 565 575 L 999 575 L 922 1223 L 918 1223 Z M 569 88 L 551 0 L -63 0 L -45 88 L 158 106 L 823 1305 L 563 1327 L 582 1413 L 1341 1413 L 1323 1327 L 1049 1305 L 1206 104 L 1397 88 L 1378 0 L 774 0 L 793 88 L 1057 109 L 1010 467 L 510 467 L 311 109 L 569 88 Z" unicode="A" />
<glyph horiz-adv-x="1475" d="M 885 0 L -16 0 L 4 88 L 276 109 L 530 1305 L 266 1327 L 283 1413 L 1098 1413 C 1210 1413 1294 1383 1352 1323 C 1409 1263 1438 1188 1438 1098 C 1438 1003 1411 922 1358 856 C 1304 789 1236 743 1153 717 C 1222 689 1274 651 1308 602 C 1342 552 1360 494 1360 426 C 1360 360 1347 301 1322 249 C 1296 196 1262 151 1220 115 C 1176 77 1126 49 1068 29 C 1010 9 949 0 885 0 Z M 584 782 L 954 782 C 1000 782 1043 789 1083 803 C 1123 817 1158 837 1188 863 C 1218 888 1241 919 1258 955 C 1275 991 1284 1031 1284 1075 C 1284 1145 1262 1200 1220 1241 C 1178 1282 1120 1303 1047 1303 L 694 1303 L 584 782 Z M 440 111 L 852 111 C 900 111 945 118 988 132 C 1031 146 1069 167 1101 194 C 1133 220 1158 251 1176 289 C 1194 327 1204 370 1204 418 C 1204 492 1179 552 1131 598 C 1083 643 1018 666 938 666 L 557 666 L 440 111 Z" unicode="B" />
<glyph horiz-adv-x="1370" d="M 1231 985 C 1210 1087 1169 1170 1109 1232 C 1048 1294 966 1325 864 1325 C 770 1325 686 1302 613 1258 C 540 1214 479 1155 430 1083 C 380 1011 343 928 317 836 C 291 744 279 650 279 555 C 279 482 288 417 308 359 C 328 301 356 251 393 211 C 430 170 475 138 527 116 C 579 93 639 82 705 82 C 767 82 823 90 871 106 C 919 122 962 146 1000 176 C 1038 206 1072 241 1103 282 C 1133 323 1162 368 1190 416 L 1268 373 C 1239 313 1206 257 1169 207 C 1132 156 1090 112 1043 76 C 996 38 942 9 882 -11 C 821 -32 752 -43 676 -43 C 590 -43 512 -28 444 1 C 376 30 317 71 269 124 C 221 176 184 239 159 313 C 133 387 121 468 121 557 C 121 671 138 783 173 891 C 207 999 257 1094 321 1177 C 384 1259 461 1325 552 1376 C 642 1426 743 1452 854 1452 C 930 1452 1002 1434 1070 1399 C 1137 1363 1189 1311 1225 1241 L 1284 1450 L 1360 1450 L 1335 889 L 1253 872 L 1231 985 Z" unicode="C" />
<glyph horiz-adv-x="1532" d="M -16 0 L 4 88 L 279 109 L 532 1305 L 266 1327 L 283 1413 L 993 1413 C 1073 1413 1145 1398 1209 1370 C 1273 1341 1326 1301 1370 1251 C 1414 1201 1447 1141 1470 1072 C 1493 1003 1505 928 1505 848 C 1505 722 1485 607 1445 503 C 1405 399 1351 311 1282 237 C 1212 162 1129 104 1033 62 C 937 20 832 0 719 0 L -16 0 Z M 963 1298 L 694 1298 L 442 115 L 735 115 C 821 115 901 133 975 170 C 1049 206 1114 258 1170 324 C 1225 389 1269 466 1301 556 C 1333 645 1350 742 1350 848 C 1350 913 1341 973 1324 1028 C 1306 1082 1281 1130 1248 1170 C 1214 1210 1174 1242 1126 1264 C 1078 1286 1024 1298 963 1298 Z" unicode="D" />
<glyph horiz-adv-x="1464" d="M -16 0 L 4 88 L 279 109 L 532 1305 L 266 1327 L 283 1413 L 1423 1413 L 1462 969 L 1380 946 L 1282 1303 L 694 1303 L 584 784 L 940 784 L 1032 1030 L 1116 1030 L 989 438 L 907 438 L 920 672 L 559 672 L 440 111 L 1077 111 L 1327 561 L 1405 545 L 1182 0 L -16 0 Z" unicode="E" />
<glyph horiz-adv-x="1397" d="M 731 88 L 713 0 L -16 0 L 4 88 L 279 109 L 532 1305 L 266 1327 L 283 1413 L 1440 1413 L 1448 934 L 1362 911 L 1296 1303 L 694 1303 L 582 776 L 940 776 L 1034 1022 L 1118 1022 L 989 432 L 907 432 L 920 666 L 559 666 L 440 109 L 731 88 Z" unicode="F" />
<glyph horiz-adv-x="1485" d="M 1485 590 L 1286 567 L 1163 -10 L 1081 -10 L 1083 190 C 1035 118 975 61 902 19 C 829 -22 749 -43 662 -43 C 582 -43 509 -28 443 0 C 377 28 320 70 272 124 C 224 178 187 243 161 319 C 134 395 121 481 121 575 C 121 683 137 789 171 895 C 204 1000 252 1094 314 1177 C 376 1259 452 1325 541 1376 C 629 1426 728 1452 838 1452 C 928 1450 1006 1431 1073 1393 C 1140 1355 1193 1302 1231 1233 L 1290 1450 L 1366 1450 L 1341 889 L 1257 874 L 1235 985 C 1213 1091 1171 1175 1110 1235 C 1048 1295 964 1325 856 1325 C 762 1325 679 1302 607 1258 C 535 1214 475 1156 427 1084 C 378 1012 341 932 316 842 C 291 752 279 661 279 571 C 279 493 289 424 309 363 C 329 302 358 251 395 211 C 432 170 476 139 526 117 C 576 95 632 84 692 84 C 740 84 786 91 830 107 C 874 123 915 147 953 180 C 991 212 1024 254 1053 306 C 1081 357 1104 417 1120 487 L 1139 565 L 879 590 L 895 676 L 1501 676 L 1485 590 Z" unicode="G" />
<glyph horiz-adv-x="1747" d="M 877 88 L 1147 106 L 1266 674 L 559 674 L 440 106 L 705 88 L 686 0 L -16 0 L 4 88 L 279 109 L 532 1305 L 264 1327 L 283 1413 L 985 1413 L 965 1327 L 694 1305 L 586 788 L 1292 788 L 1401 1305 L 1137 1327 L 1155 1413 L 1858 1413 L 1839 1327 L 1563 1305 L 1309 109 L 1577 88 L 1559 0 L 858 0 L 877 88 Z" unicode="H" />
<glyph horiz-adv-x="879" d="M 692 0 L -16 0 L 4 88 L 276 109 L 532 1305 L 266 1327 L 283 1413 L 991 1413 L 973 1327 L 696 1305 L 440 109 L 709 88 L 692 0 Z" unicode="I" />
<glyph horiz-adv-x="1141" d="M 588 1413 L 1278 1413 L 1260 1327 L 1004 1305 L 805 373 C 777 243 722 141 639 67 C 555 -6 450 -43 322 -43 C 253 -43 192 -30 140 -5 C 87 20 46 52 16 92 C 1 111 -10 131 -18 152 C -26 173 -31 195 -31 219 C -31 245 -23 268 -9 290 C 4 311 26 322 55 322 C 79 322 97 315 108 302 C 119 289 127 273 131 254 C 133 243 136 229 140 213 C 143 196 148 182 156 172 C 172 143 194 121 223 107 C 252 93 288 86 330 86 C 412 86 481 113 537 168 C 593 222 630 297 649 391 L 842 1305 L 569 1327 L 588 1413 Z" unicode="J" />
<glyph horiz-adv-x="1595" d="M 1241 106 L 1442 88 L 1423 0 L 811 0 L 831 88 L 1075 104 L 811 707 L 508 440 L 436 106 L 657 88 L 639 0 L -16 0 L 4 88 L 279 109 L 532 1305 L 266 1327 L 283 1413 L 930 1413 L 911 1327 L 690 1307 L 543 618 L 1292 1307 L 1083 1327 L 1102 1413 L 1700 1413 L 1681 1327 L 1468 1305 L 928 809 L 1241 106 Z" unicode="K" />
<glyph horiz-adv-x="1444" d="M 283 1413 L 999 1413 L 981 1327 L 694 1305 L 440 111 L 1061 111 L 1319 561 L 1395 545 L 1163 0 L -16 0 L 4 88 L 276 109 L 532 1305 L 266 1327 L 283 1413 Z" unicode="L" />
<glyph horiz-adv-x="2195" d="M 1044 -6 L 944 -6 L 647 1217 L 414 109 L 633 84 L 614 0 L -16 0 L 2 88 L 268 109 L 524 1305 L 266 1327 L 283 1413 L 1016 1413 L 999 1327 L 764 1307 L 1032 176 L 1774 1307 L 1536 1327 L 1554 1413 L 2304 1413 L 2286 1327 L 2017 1307 L 1763 109 L 2021 88 L 2003 0 L 1368 0 L 1386 88 L 1618 109 L 1853 1210 L 1044 -6 Z" unicode="M" />
<glyph horiz-adv-x="1735" d="M 1266 -12 L 1149 -12 L 653 1200 L 422 109 L 698 88 L 680 0 L -16 0 L 4 88 L 276 109 L 530 1305 L 266 1327 L 283 1413 L 993 1413 L 977 1327 L 745 1309 L 1182 231 L 1427 1305 L 1149 1327 L 1167 1413 L 1845 1413 L 1829 1327 L 1571 1305 L 1266 -12 Z" unicode="N" />
<glyph horiz-adv-x="1516" d="M 276 132 C 226 187 187 252 161 328 C 134 404 121 488 121 580 C 121 686 138 791 172 895 C 206 999 255 1092 321 1175 C 385 1257 464 1323 558 1375 C 651 1426 757 1452 877 1452 C 968 1452 1049 1436 1121 1406 C 1193 1375 1254 1332 1304 1277 C 1353 1221 1391 1156 1418 1080 C 1444 1004 1458 921 1458 831 C 1458 725 1440 620 1406 516 C 1371 412 1321 318 1256 236 C 1191 152 1112 85 1019 34 C 925 -17 820 -43 702 -43 C 612 -43 531 -27 459 3 C 387 33 326 76 276 132 Z M 436 1089 C 385 1018 346 938 319 850 C 292 761 279 672 279 582 C 279 501 289 429 310 367 C 331 305 361 253 399 211 C 437 168 483 136 535 115 C 587 94 645 84 709 84 C 800 84 882 105 956 149 C 1030 193 1092 249 1143 319 C 1193 389 1232 468 1259 557 C 1286 645 1300 735 1300 825 C 1300 905 1289 977 1267 1039 C 1245 1101 1216 1154 1178 1196 C 1139 1238 1093 1270 1041 1292 C 989 1314 932 1325 870 1325 C 777 1325 694 1303 621 1259 C 548 1215 486 1159 436 1089 Z" unicode="O" />
<glyph horiz-adv-x="1434" d="M 727 88 L 709 0 L -16 0 L 4 88 L 279 109 L 532 1305 L 266 1327 L 283 1413 L 1139 1413 C 1191 1413 1237 1404 1278 1386 C 1318 1368 1353 1344 1381 1313 C 1409 1281 1430 1244 1444 1202 C 1458 1160 1466 1114 1466 1065 C 1466 987 1453 917 1427 856 C 1401 794 1366 742 1321 700 C 1275 658 1223 625 1163 603 C 1103 580 1039 569 971 569 L 539 569 L 440 109 L 727 88 Z M 1077 1300 L 694 1300 L 563 682 L 958 682 C 1007 682 1052 690 1094 707 C 1136 724 1172 749 1204 781 C 1235 813 1260 852 1278 899 C 1296 945 1305 998 1305 1057 C 1305 1130 1285 1189 1245 1233 C 1205 1277 1149 1300 1077 1300 Z" unicode="P" />
<glyph horiz-adv-x="1513" d="M 276 132 C 226 187 187 252 161 328 C 134 404 121 488 121 580 C 121 686 138 791 172 895 C 206 999 255 1092 321 1175 C 385 1257 464 1323 558 1375 C 651 1426 757 1452 877 1452 C 968 1452 1049 1436 1121 1406 C 1193 1375 1254 1332 1304 1277 C 1353 1221 1391 1156 1418 1080 C 1444 1004 1458 921 1458 831 C 1458 749 1447 668 1426 586 C 1405 504 1375 426 1335 354 C 1295 282 1247 217 1189 160 C 1131 102 1064 57 989 23 C 1016 -55 1045 -110 1075 -144 C 1105 -178 1146 -195 1198 -195 C 1225 -195 1251 -188 1277 -176 C 1302 -164 1325 -146 1346 -123 L 1380 -178 C 1352 -216 1321 -246 1285 -267 C 1249 -288 1207 -299 1161 -299 C 1083 -299 1021 -276 975 -230 C 929 -184 891 -115 860 -23 C 835 -29 809 -34 783 -38 C 756 -41 729 -43 702 -43 C 612 -43 531 -27 459 3 C 387 33 326 76 276 132 Z M 436 1089 C 385 1018 346 938 319 850 C 292 761 279 672 279 582 C 279 520 285 463 298 412 C 310 361 328 317 352 279 C 379 344 419 393 471 426 C 523 458 577 475 635 475 C 669 475 700 469 730 459 C 759 449 787 432 813 408 C 839 383 863 350 886 308 C 908 266 930 214 950 152 C 1004 182 1053 221 1097 269 C 1141 317 1178 372 1208 432 C 1238 492 1260 555 1276 622 C 1292 689 1300 757 1300 825 C 1300 905 1289 977 1267 1039 C 1245 1101 1216 1154 1178 1196 C 1139 1238 1093 1270 1041 1292 C 989 1314 932 1325 870 1325 C 777 1325 694 1303 621 1259 C 548 1215 486 1159 436 1089 Z M 742 286 C 725 308 705 325 683 337 C 660 349 633 356 602 356 C 566 356 530 344 493 322 C 456 300 429 259 412 199 C 448 160 492 131 542 112 C 592 93 648 84 709 84 C 729 84 748 85 768 87 C 788 89 807 92 825 96 C 813 136 800 172 787 204 C 774 236 759 263 742 286 Z" unicode="Q" />
<glyph horiz-adv-x="1581" d="M 1071 1300 L 694 1300 L 571 721 L 989 721 C 1039 721 1086 728 1128 742 C 1170 756 1207 778 1238 806 C 1268 834 1292 868 1310 910 C 1328 952 1337 1000 1337 1055 C 1337 1125 1313 1184 1265 1230 C 1217 1276 1153 1300 1071 1300 Z M 1408 1314 C 1438 1283 1462 1246 1478 1204 C 1494 1162 1503 1117 1503 1069 C 1503 998 1491 935 1468 880 C 1445 824 1413 777 1373 738 C 1333 699 1286 668 1233 646 C 1179 623 1122 610 1061 606 L 1188 121 L 1473 88 L 1454 0 L 1059 0 L 901 606 L 547 606 L 440 109 L 721 88 L 700 0 L -16 0 L 4 88 L 279 109 L 532 1305 L 266 1327 L 283 1413 L 1153 1413 C 1206 1413 1254 1404 1297 1386 C 1340 1368 1377 1344 1408 1314 Z" unicode="R" />
<glyph horiz-adv-x="1243" d="M 1102 895 L 1075 1026 C 1064 1078 1046 1122 1020 1160 C 994 1198 963 1228 929 1252 C 894 1276 856 1293 815 1305 C 774 1317 733 1323 692 1323 C 652 1323 615 1317 580 1307 C 545 1297 514 1282 488 1263 C 462 1243 441 1218 426 1188 C 410 1158 403 1123 403 1085 C 403 1044 412 1008 430 977 C 448 945 471 918 500 895 C 528 871 561 851 597 833 C 633 815 669 798 707 782 C 763 759 815 736 864 712 C 913 688 956 660 993 630 C 1030 599 1059 563 1080 522 C 1101 481 1112 431 1112 373 C 1112 313 1100 257 1077 206 C 1053 154 1021 110 979 74 C 936 36 886 7 828 -12 C 770 -32 706 -43 637 -43 C 523 -43 429 -18 355 30 C 281 79 227 144 193 225 L 137 -4 L 57 -4 L 92 539 L 172 557 L 199 449 C 215 379 237 320 267 274 C 296 228 330 190 368 162 C 405 133 445 112 489 100 C 533 88 578 82 625 82 C 731 82 812 108 869 162 C 925 215 954 281 954 360 C 954 397 947 429 934 457 C 921 484 902 508 876 530 C 849 552 816 572 777 592 C 738 611 692 631 639 653 C 584 676 533 700 486 726 C 439 751 399 780 365 813 C 330 845 303 882 283 924 C 263 966 254 1014 254 1069 C 254 1131 266 1187 290 1235 C 314 1283 346 1323 386 1355 C 426 1387 472 1411 525 1427 C 577 1443 632 1452 690 1452 C 781 1452 861 1431 930 1391 C 999 1351 1049 1295 1079 1225 L 1141 1450 L 1219 1450 L 1186 911 L 1102 895 Z" unicode="S" />
<glyph horiz-adv-x="1391" d="M 211 911 L 135 934 L 336 1413 L 1444 1413 L 1456 934 L 1374 913 L 1305 1303 L 950 1303 L 696 109 L 965 88 L 946 0 L 240 0 L 260 88 L 532 109 L 788 1303 L 440 1303 L 211 911 Z" unicode="T" />
<glyph horiz-adv-x="1591" d="M 287 481 L 463 1305 L 219 1327 L 238 1413 L 909 1413 L 891 1327 L 623 1307 L 449 477 C 444 459 441 441 439 423 C 437 405 436 387 436 371 C 436 285 462 216 514 166 C 566 115 643 90 745 90 C 851 90 938 118 1004 175 C 1070 231 1115 312 1139 416 L 1327 1307 L 1063 1327 L 1083 1413 L 1749 1413 L 1731 1327 L 1479 1305 L 1282 389 C 1250 245 1185 137 1085 65 C 985 -6 865 -43 725 -43 C 658 -43 597 -34 542 -16 C 486 1 438 26 398 60 C 358 94 327 135 305 184 C 283 233 272 290 272 354 C 272 375 273 396 276 418 C 278 439 282 460 287 481 Z" unicode="U" />
<glyph horiz-adv-x="1522" d="M 731 -4 L 578 -4 L 406 1307 L 215 1327 L 231 1413 L 838 1413 L 817 1327 L 555 1307 L 688 176 L 690 176 L 1296 1305 L 1040 1327 L 1059 1413 L 1671 1413 L 1651 1327 L 1450 1305 L 731 -4 Z" unicode="V" />
<glyph horiz-adv-x="2165" d="M 1405 -4 L 1288 -4 L 1217 1133 L 1214 1133 L 662 -4 L 539 -4 L 395 1307 L 215 1327 L 233 1413 L 786 1413 L 768 1327 L 545 1307 L 649 246 L 653 246 L 1169 1305 L 940 1327 L 961 1413 L 1589 1413 L 1571 1327 L 1329 1307 L 1401 256 L 1405 256 L 1962 1307 L 1743 1327 L 1761 1413 L 2314 1413 L 2296 1327 L 2109 1305 L 1405 -4 Z" unicode="W" />
<glyph horiz-adv-x="1460" d="M 1022 1413 L 1612 1413 L 1593 1327 L 1391 1303 L 864 723 L 1169 109 L 1333 88 L 1317 0 L 721 0 L 741 88 L 1010 109 L 760 633 L 291 109 L 549 88 L 530 0 L -61 0 L -41 88 L 121 109 L 694 735 L 418 1303 L 225 1327 L 244 1413 L 829 1413 L 811 1327 L 575 1307 L 803 825 L 1227 1307 L 1004 1327 L 1022 1413 Z" unicode="X" />
<glyph horiz-adv-x="1427" d="M 961 0 L 260 0 L 279 88 L 553 109 L 643 530 L 412 1305 L 219 1327 L 238 1413 L 801 1413 L 782 1327 L 563 1307 L 745 659 L 750 659 L 1204 1307 L 997 1327 L 1014 1413 L 1585 1413 L 1567 1327 L 1362 1305 L 803 530 L 715 109 L 979 88 L 961 0 Z" unicode="Y" />
<glyph horiz-adv-x="1249" d="M 195 115 L 858 115 L 1116 541 L 1192 522 L 965 0 L -41 0 L -27 76 L 1079 1298 L 477 1298 L 238 920 L 160 946 L 379 1413 L 1311 1413 L 1294 1331 L 195 115 Z" unicode="Z" />
<glyph horiz-adv-x="688" d="M 313 1413 L 778 1413 L 760 1331 L 436 1303 L 127 -156 L 438 -184 L 422 -266 L -43 -266 L 313 1413 Z" unicode="[" />
<glyph horiz-adv-x="803" d="M 594 -344 L 152 1556 L 295 1556 L 739 -344 L 594 -344 Z" unicode="\" />
<glyph horiz-adv-x="688" d="M 365 -266 L -100 -266 L -82 -184 L 242 -156 L 551 1303 L 240 1331 L 256 1413 L 721 1413 L 365 -266 Z" unicode="]" />
<glyph horiz-adv-x="1180" d="M 698 1362 L 809 1362 L 1020 766 L 1018 760 L 887 760 L 727 1219 L 373 760 L 231 760 L 233 766 L 698 1362 Z" unicode="^" />
<glyph horiz-adv-x="903" d="M -29 -156 L 868 -156 L 844 -268 L -51 -268 L -29 -156 Z" unicode="_" />
<glyph horiz-adv-x="1217" d="M 674 1180 L 389 1442 L 389 1448 L 559 1448 L 788 1186 L 788 1180 L 674 1180 Z" unicode="`" />
<glyph horiz-adv-x="1231" d="M 244 397 C 244 297 265 219 309 161 C 353 103 416 74 500 74 C 573 74 633 89 680 121 C 726 152 763 191 791 238 L 901 739 C 886 799 857 846 813 880 C 769 914 712 932 641 932 C 589 932 539 919 491 893 C 443 867 401 830 365 783 C 327 736 298 680 276 614 C 254 548 244 476 244 397 Z M 784 113 C 740 61 690 22 633 -3 C 575 -28 515 -41 451 -41 C 393 -41 342 -30 298 -9 C 253 12 216 42 187 80 C 157 118 135 163 119 215 C 103 267 96 323 96 385 C 96 485 111 575 141 656 C 171 737 211 807 261 865 C 311 923 368 968 432 1000 C 496 1032 562 1049 631 1049 C 704 1049 768 1033 822 1001 C 876 969 916 926 944 870 L 1055 1024 L 1124 1024 L 946 260 C 942 242 939 225 937 210 C 935 194 934 180 934 168 C 934 138 940 115 954 99 C 968 83 990 76 1022 76 C 1035 76 1050 77 1066 81 C 1082 84 1099 89 1118 96 L 1098 23 C 1080 10 1058 0 1032 -7 C 1006 -14 977 -18 946 -18 C 897 -18 859 -7 833 14 C 806 36 790 69 784 113 Z" unicode="a" />
<glyph horiz-adv-x="1247" d="M 614 1526 L 469 901 C 518 955 573 994 633 1016 C 693 1038 749 1049 801 1049 C 854 1049 902 1038 946 1017 C 990 995 1027 966 1057 929 C 1087 891 1110 845 1126 791 C 1142 737 1151 678 1151 612 C 1151 518 1135 431 1105 351 C 1074 271 1033 202 981 144 C 929 86 869 40 802 8 C 735 -24 666 -41 596 -41 C 518 -41 452 -24 400 10 C 348 44 308 89 281 145 L 182 0 L 109 0 L 424 1354 C 380 1337 334 1328 288 1328 C 242 1327 200 1332 162 1343 L 176 1411 C 238 1408 301 1418 363 1440 C 425 1462 485 1496 541 1544 L 614 1526 Z M 1001 602 C 1001 711 976 793 927 849 C 878 904 816 932 741 932 C 693 932 641 919 585 893 C 528 867 478 822 436 758 L 326 276 C 340 214 370 165 415 129 C 460 92 516 74 584 74 C 640 74 693 87 743 113 C 793 139 838 175 876 222 C 913 269 943 325 966 390 C 989 454 1001 525 1001 602 Z" unicode="b" />
<glyph horiz-adv-x="1110" d="M 874 764 C 864 818 839 860 799 890 C 759 919 709 934 649 934 C 593 934 540 920 491 893 C 442 865 399 828 362 780 C 325 732 296 676 275 610 C 254 544 244 473 244 397 C 244 297 270 219 322 161 C 374 103 450 74 549 74 C 619 74 681 91 735 126 C 789 160 836 213 874 283 L 956 240 C 915 152 858 84 785 34 C 712 -16 626 -41 528 -41 C 464 -41 405 -30 353 -10 C 300 9 255 39 217 78 C 179 116 149 162 128 217 C 106 271 96 333 96 401 C 96 497 111 584 141 664 C 171 744 211 812 263 869 C 314 925 373 969 441 1001 C 509 1033 579 1049 653 1049 C 749 1049 828 1028 891 987 C 953 946 996 892 1020 825 C 1024 811 1028 797 1030 785 C 1032 772 1034 760 1034 750 C 1034 722 1026 701 1010 686 C 994 671 975 664 952 664 C 922 664 902 673 894 693 C 885 713 878 736 874 764 Z" unicode="c" />
<glyph horiz-adv-x="1247" d="M 813 272 L 918 725 C 902 793 872 844 826 879 C 780 914 725 932 659 932 C 601 932 548 918 498 892 C 448 865 405 828 367 782 C 328 736 298 680 276 615 C 254 550 244 480 244 406 C 242 298 265 215 313 159 C 361 102 430 74 520 74 C 588 74 646 90 693 122 C 740 154 777 192 805 236 L 813 272 Z M 262 866 C 312 923 370 968 436 1000 C 502 1032 570 1049 641 1049 C 715 1049 778 1031 830 997 C 882 963 922 916 948 856 L 1065 1356 C 1021 1340 975 1332 929 1331 C 883 1329 841 1334 803 1346 L 819 1411 C 880 1408 942 1418 1005 1440 C 1068 1462 1128 1496 1184 1544 L 1257 1526 L 965 260 C 960 242 956 225 954 210 C 951 195 950 182 950 170 C 950 138 956 115 970 99 C 984 83 1006 76 1038 76 C 1051 76 1066 77 1082 81 C 1098 84 1115 89 1135 96 L 1116 23 C 1096 10 1074 0 1048 -7 C 1022 -14 995 -18 967 -18 C 916 -18 877 -6 849 15 C 821 37 804 71 799 117 C 755 63 704 24 646 -2 C 588 -28 526 -41 461 -41 C 345 -41 255 -1 191 79 C 127 159 96 265 96 397 C 96 493 111 580 141 660 C 171 740 211 808 262 866 Z" unicode="d" />
<glyph horiz-adv-x="1077" d="M 862 770 C 862 820 842 861 803 891 C 764 921 714 936 653 936 C 605 936 559 926 513 906 C 467 886 425 858 388 820 C 350 782 319 737 293 683 C 267 629 250 567 242 498 C 341 489 429 490 507 501 C 584 512 649 531 701 557 C 753 583 793 614 821 650 C 848 686 862 726 862 770 Z M 921 961 C 947 935 967 905 980 873 C 992 841 999 808 999 776 C 999 714 980 658 943 606 C 905 554 853 510 785 476 C 717 441 637 416 543 400 C 449 384 347 382 236 393 C 237 292 267 214 326 158 C 384 102 465 74 569 74 C 635 74 693 87 744 114 C 794 141 838 182 874 236 L 946 188 C 910 118 858 63 790 21 C 722 -20 637 -41 537 -41 C 476 -41 419 -30 365 -10 C 311 9 264 39 224 78 C 184 116 152 162 129 218 C 105 273 94 336 94 406 C 94 505 110 595 142 675 C 174 755 216 822 270 878 C 323 933 384 975 453 1005 C 522 1034 594 1049 668 1049 C 726 1049 776 1040 818 1024 C 860 1007 894 986 921 961 Z" unicode="e" />
<glyph horiz-adv-x="758" d="M 158 27 L 348 891 L 141 891 L 158 969 L 371 999 L 403 1141 C 430 1262 471 1356 527 1423 C 582 1490 662 1524 766 1524 C 805 1524 840 1518 870 1507 C 900 1496 925 1483 945 1467 C 965 1451 979 1434 989 1415 C 999 1395 1004 1378 1004 1362 C 1004 1338 996 1319 981 1304 C 965 1289 947 1282 926 1282 C 900 1282 881 1288 871 1300 C 861 1312 852 1326 844 1342 C 835 1358 824 1372 812 1384 C 799 1396 777 1403 745 1403 C 705 1403 674 1391 650 1368 C 626 1344 607 1314 593 1276 C 578 1238 566 1195 557 1148 C 547 1100 536 1052 524 1004 L 805 1004 L 780 891 L 500 891 L 287 -63 C 271 -129 254 -187 235 -239 C 216 -291 192 -335 164 -371 C 135 -406 100 -433 59 -451 C 18 -469 -30 -479 -88 -479 C -137 -479 -180 -469 -216 -450 C -252 -431 -270 -404 -270 -369 C -270 -345 -262 -325 -247 -309 C -232 -293 -215 -285 -195 -285 C -181 -285 -169 -288 -160 -295 C -151 -301 -143 -308 -135 -316 C -127 -324 -117 -331 -105 -338 C -93 -344 -77 -348 -57 -348 C -27 -348 -1 -341 18 -329 C 38 -317 57 -296 73 -268 C 88 -239 102 -201 115 -153 C 128 -105 142 -45 158 27 Z" unicode="f" />
<glyph horiz-adv-x="1198" d="M 242 401 C 242 303 264 225 309 168 C 354 110 418 82 500 82 C 574 82 636 97 685 129 C 733 160 771 200 799 248 L 911 735 C 896 796 866 844 822 880 C 778 916 720 934 649 934 C 595 934 544 921 495 895 C 446 869 403 832 366 785 C 328 738 297 682 275 616 C 253 550 242 479 242 401 Z M 766 98 C 722 54 673 22 621 0 C 569 -22 513 -33 453 -33 C 395 -33 344 -22 300 -1 C 255 20 218 50 188 88 C 158 126 135 170 119 222 C 103 273 96 329 96 391 C 96 489 111 579 142 659 C 172 739 213 809 263 867 C 313 925 370 969 436 1001 C 502 1033 569 1049 639 1049 C 708 1049 770 1033 826 1002 C 881 971 924 928 954 872 L 1063 1024 L 1133 1024 L 893 -2 C 859 -150 796 -267 706 -351 C 616 -435 498 -477 354 -477 C 276 -477 208 -466 150 -445 C 92 -424 44 -392 8 -350 C -6 -334 -16 -318 -24 -302 C -31 -286 -35 -271 -35 -256 C -35 -230 -26 -209 -10 -194 C 5 -179 25 -172 49 -172 C 76 -172 95 -182 107 -204 C 119 -225 133 -248 150 -272 C 158 -283 167 -294 177 -305 C 187 -316 200 -326 216 -334 C 232 -342 250 -348 271 -353 C 292 -357 318 -360 348 -360 C 390 -360 431 -355 471 -346 C 510 -336 547 -318 582 -292 C 616 -265 646 -228 674 -180 C 701 -132 724 -70 743 8 L 766 98 Z" unicode="g" />
<glyph horiz-adv-x="1309" d="M 449 811 C 504 879 570 935 647 981 C 723 1026 804 1049 889 1049 C 977 1049 1042 1025 1082 978 C 1122 930 1143 868 1143 791 C 1143 762 1140 732 1134 701 C 1128 670 1121 638 1112 606 L 1036 332 C 1025 298 1017 267 1012 240 C 1006 212 1004 188 1004 168 C 1004 138 1010 115 1023 99 C 1035 83 1058 76 1092 76 C 1106 76 1121 77 1137 81 C 1153 84 1170 89 1190 96 L 1169 23 C 1151 10 1129 0 1101 -7 C 1073 -14 1044 -18 1014 -18 C 954 -18 911 -3 887 25 C 862 53 850 92 850 141 C 850 165 852 193 858 223 C 863 253 871 284 881 317 L 956 596 C 962 615 968 641 974 673 C 980 705 983 733 983 758 C 983 805 971 844 947 875 C 923 906 879 922 817 922 C 743 922 671 899 600 853 C 529 807 468 748 418 676 L 262 0 L 106 0 L 422 1358 C 378 1341 332 1332 286 1331 C 240 1329 198 1334 160 1346 L 176 1411 C 237 1408 299 1418 361 1440 C 423 1462 482 1496 537 1544 L 612 1526 L 449 811 Z" unicode="h" />
<glyph horiz-adv-x="659" d="M 520 1229 C 492 1229 469 1238 449 1256 C 429 1274 420 1297 420 1325 C 420 1360 431 1390 454 1414 C 477 1438 506 1450 541 1450 C 569 1450 593 1440 612 1421 C 631 1402 641 1378 641 1350 C 641 1316 628 1288 604 1264 C 579 1240 551 1229 520 1229 Z M 197 272 L 342 860 C 298 845 253 837 207 836 C 161 834 120 839 82 850 L 98 915 C 159 912 221 922 283 944 C 345 966 404 1001 459 1049 L 537 1030 L 348 260 C 345 244 342 229 340 216 C 337 203 336 190 336 178 C 336 148 343 123 357 104 C 371 85 398 76 438 76 C 451 76 466 77 482 81 C 498 84 515 89 535 96 L 516 23 C 498 10 475 0 448 -7 C 421 -14 392 -18 360 -18 C 293 -18 247 -1 221 31 C 195 63 182 105 182 156 C 182 174 183 193 185 213 C 187 233 191 252 197 272 Z" unicode="i" />
<glyph horiz-adv-x="610" d="M 518 1229 C 490 1229 467 1238 447 1256 C 427 1274 418 1297 418 1325 C 418 1360 429 1390 452 1414 C 475 1438 504 1450 539 1450 C 567 1450 591 1440 610 1421 C 629 1402 639 1378 639 1350 C 639 1316 626 1288 602 1264 C 577 1240 549 1229 518 1229 Z M 139 -16 L 340 860 C 296 845 251 837 206 836 C 161 834 119 839 80 850 L 96 915 C 157 912 219 922 281 944 C 343 966 403 1001 459 1049 L 535 1030 L 270 -104 C 256 -160 240 -211 222 -258 C 204 -304 181 -344 153 -377 C 125 -409 90 -434 50 -452 C 10 -470 -37 -479 -92 -479 C -141 -479 -184 -469 -220 -450 C -256 -431 -274 -404 -274 -369 C -274 -345 -266 -325 -251 -309 C -236 -293 -219 -285 -199 -285 C -185 -285 -173 -288 -165 -295 C -156 -301 -147 -308 -139 -316 C -131 -324 -121 -331 -109 -338 C -97 -344 -81 -348 -61 -348 C -32 -348 -8 -342 10 -330 C 29 -318 46 -299 60 -273 C 74 -246 88 -212 100 -171 C 112 -129 125 -78 139 -16 Z" unicode="j" />
<glyph horiz-adv-x="1090" d="M 379 508 C 445 538 514 572 585 612 C 656 652 722 695 784 743 C 820 770 845 794 860 816 C 875 837 883 856 883 872 C 883 883 876 897 862 913 C 848 929 842 948 842 969 C 842 987 848 1004 862 1018 C 876 1032 895 1040 920 1040 C 950 1040 976 1028 999 1005 C 1022 982 1034 951 1034 913 C 1034 881 1022 845 1000 804 C 978 763 939 720 885 676 C 861 656 827 631 782 601 C 737 570 688 539 635 508 L 782 205 C 802 162 824 130 846 109 C 868 88 896 78 932 78 C 946 78 960 79 976 83 C 991 86 1007 91 1024 98 L 1004 23 C 984 10 963 0 941 -7 C 918 -14 892 -18 862 -18 C 818 -18 782 -7 752 14 C 722 36 692 77 662 139 L 514 442 C 486 428 459 415 431 402 C 403 389 374 377 346 367 L 262 0 L 106 0 L 422 1356 C 378 1339 332 1330 286 1330 C 240 1329 198 1334 162 1346 L 176 1411 C 237 1408 299 1418 362 1440 C 425 1462 484 1496 539 1544 L 614 1526 L 379 508 Z" unicode="k" />
<glyph horiz-adv-x="625" d="M 164 272 L 426 1356 C 382 1340 336 1332 290 1331 C 244 1329 202 1334 166 1346 L 180 1411 C 241 1408 303 1418 365 1440 C 427 1462 487 1496 543 1544 L 616 1526 L 313 260 C 309 244 306 229 304 215 C 302 201 301 189 301 178 C 301 148 308 123 323 104 C 338 85 366 76 406 76 C 419 76 433 77 449 81 C 465 84 482 89 502 96 L 483 23 C 464 10 441 0 414 -7 C 386 -14 357 -18 326 -18 C 260 -18 213 -1 187 31 C 160 63 147 105 147 156 C 147 174 148 193 150 212 C 152 230 157 250 164 272 Z" unicode="l" />
<glyph horiz-adv-x="1915" d="M 291 0 L 135 0 L 336 860 C 292 845 247 837 201 836 C 155 834 114 839 76 850 L 90 915 C 154 912 215 922 275 944 C 335 966 392 1001 446 1049 L 518 1032 L 465 797 C 491 832 520 865 552 897 C 584 928 618 955 654 978 C 690 1000 729 1018 769 1030 C 809 1042 849 1049 891 1049 C 915 1049 940 1044 964 1036 C 988 1028 1010 1015 1030 997 C 1049 979 1065 956 1078 928 C 1091 899 1099 863 1102 821 C 1155 888 1218 943 1291 985 C 1364 1027 1439 1049 1516 1049 C 1598 1049 1658 1025 1694 977 C 1730 929 1749 867 1749 791 C 1749 763 1746 734 1742 703 C 1737 672 1730 640 1720 606 L 1642 332 C 1632 298 1625 267 1619 240 C 1613 212 1610 188 1610 168 C 1610 138 1616 115 1630 99 C 1644 83 1667 76 1700 76 C 1712 76 1727 77 1743 81 C 1759 84 1776 89 1796 96 L 1778 23 C 1758 10 1735 0 1708 -7 C 1680 -14 1651 -18 1620 -18 C 1561 -18 1519 -3 1495 25 C 1470 53 1458 92 1458 141 C 1458 165 1460 193 1466 223 C 1472 253 1479 284 1489 317 L 1565 596 C 1573 626 1579 654 1584 681 C 1588 707 1591 732 1591 756 C 1591 803 1580 842 1559 874 C 1538 906 1499 922 1442 922 C 1380 922 1319 902 1259 864 C 1199 826 1145 777 1098 717 L 1090 672 L 934 0 L 778 0 L 926 627 C 939 684 946 731 946 769 C 946 806 940 836 930 859 C 918 881 902 897 882 907 C 862 917 839 922 813 922 C 750 922 685 900 618 856 C 551 812 494 754 446 682 L 291 0 Z" unicode="m" />
<glyph horiz-adv-x="1337" d="M 135 0 L 336 860 C 292 845 247 837 201 836 C 155 834 114 839 76 850 L 90 915 C 154 912 215 922 275 944 C 335 966 392 1001 446 1049 L 518 1032 L 461 786 C 517 861 584 924 664 974 C 744 1024 828 1049 918 1049 C 1006 1049 1071 1025 1112 977 C 1153 929 1174 867 1174 791 C 1174 762 1171 732 1165 701 C 1159 670 1152 638 1143 606 L 1065 332 C 1055 298 1047 267 1041 240 C 1035 212 1032 188 1032 168 C 1032 138 1038 115 1051 99 C 1064 83 1088 76 1122 76 C 1135 76 1150 77 1166 81 C 1182 84 1199 89 1219 96 L 1200 23 C 1182 10 1160 0 1132 -7 C 1104 -14 1074 -18 1042 -18 C 983 -18 941 -3 917 25 C 893 53 881 92 881 141 C 881 164 884 192 890 226 C 896 259 902 289 909 317 L 985 596 C 993 626 999 654 1004 682 C 1009 709 1012 734 1012 758 C 1012 805 1000 844 976 875 C 952 906 908 922 846 922 C 809 922 772 915 735 902 C 698 889 662 871 628 849 C 592 826 559 799 528 767 C 496 735 468 700 442 664 L 291 0 L 135 0 Z" unicode="n" />
<glyph horiz-adv-x="1192" d="M 219 79 C 181 117 151 166 129 224 C 107 282 96 348 96 422 C 96 508 110 588 139 664 C 167 740 207 806 259 863 C 310 919 370 964 439 998 C 508 1032 584 1049 666 1049 C 728 1049 786 1038 839 1018 C 891 997 937 967 975 928 C 1013 888 1042 839 1064 782 C 1085 724 1096 659 1096 586 C 1096 501 1081 421 1053 345 C 1024 269 985 202 935 145 C 885 87 825 42 755 9 C 685 -24 610 -41 528 -41 C 465 -41 407 -30 355 -10 C 302 9 257 39 219 79 Z M 357 777 C 321 730 293 675 273 613 C 253 551 244 486 244 420 C 244 305 270 218 323 160 C 376 101 446 72 532 72 C 594 72 650 86 700 114 C 750 142 794 179 830 226 C 866 273 894 328 914 390 C 934 452 944 516 944 584 C 944 694 918 780 866 842 C 814 903 743 934 655 934 C 593 934 537 919 487 891 C 437 862 393 824 357 777 Z" unicode="o" />
<glyph horiz-adv-x="1276" d="M 953 850 C 929 876 902 895 872 907 C 842 919 810 926 778 926 C 753 926 726 922 698 914 C 669 906 640 894 612 878 C 583 860 555 838 527 810 C 499 782 474 747 453 707 L 352 276 C 367 212 398 162 444 127 C 490 91 546 74 612 74 C 666 74 719 87 770 114 C 820 140 865 177 904 224 C 943 271 974 327 996 391 C 1018 455 1030 524 1030 600 C 1030 658 1023 708 1009 749 C 995 790 977 824 953 850 Z M -152 -362 L 53 -340 L 334 860 C 290 845 245 837 199 836 C 153 834 112 839 74 850 L 88 915 C 152 912 213 922 273 944 C 332 966 389 1001 444 1049 L 516 1032 L 475 850 C 501 888 529 919 559 945 C 589 970 619 990 651 1006 C 682 1020 713 1031 744 1038 C 775 1045 804 1049 831 1049 C 881 1049 928 1039 970 1019 C 1012 999 1049 970 1080 934 C 1110 897 1134 852 1152 798 C 1169 744 1178 682 1178 614 C 1178 521 1162 435 1132 355 C 1102 275 1061 206 1011 147 C 959 88 900 42 833 9 C 766 -24 697 -41 625 -41 C 551 -41 488 -24 438 8 C 387 40 348 84 322 139 L 209 -338 L 434 -362 L 416 -446 L -170 -446 L -152 -362 Z" unicode="p" />
<glyph horiz-adv-x="1219" d="M 772 98 C 728 50 680 15 626 -7 C 572 -29 515 -41 455 -41 C 339 -41 250 -2 188 76 C 126 154 96 257 96 385 C 96 483 111 572 142 654 C 172 735 213 805 264 863 C 314 921 372 966 438 999 C 504 1032 572 1049 643 1049 C 711 1049 773 1033 830 1002 C 886 971 930 926 961 866 L 1073 1024 L 1143 1024 L 823 -340 L 1032 -362 L 1014 -446 L 420 -446 L 436 -362 L 670 -338 L 772 98 Z M 244 406 C 244 302 266 220 311 162 C 356 103 424 74 514 74 C 580 74 639 89 689 121 C 739 152 777 191 805 238 L 918 717 C 902 786 872 839 826 876 C 780 913 723 932 655 932 C 599 932 546 918 497 892 C 448 865 405 828 367 782 C 328 736 298 680 276 615 C 254 550 244 480 244 406 Z" unicode="q" />
<glyph horiz-adv-x="928" d="M 135 0 L 336 860 C 292 845 247 837 201 836 C 155 834 114 839 76 850 L 90 915 C 154 912 215 922 275 944 C 335 966 392 1001 446 1049 L 518 1032 L 465 807 C 483 838 503 868 526 897 C 549 925 575 951 603 974 C 631 996 660 1014 691 1028 C 721 1042 755 1049 791 1049 C 826 1049 855 1041 878 1026 C 901 1011 913 989 913 961 C 913 933 904 909 886 888 C 868 866 845 856 815 856 C 803 856 792 857 784 861 C 776 864 767 867 759 871 C 749 875 740 878 730 882 C 720 885 707 887 692 887 C 667 887 643 881 621 869 C 599 857 577 841 555 821 C 533 801 512 777 494 751 C 476 724 458 696 442 666 L 291 0 L 135 0 Z" unicode="r" />
<glyph horiz-adv-x="1006" d="M 314 970 C 349 995 389 1014 435 1028 C 481 1042 530 1049 582 1049 C 644 1049 698 1041 742 1025 C 786 1009 822 989 850 967 C 877 943 897 918 910 891 C 923 863 930 837 930 813 C 930 783 923 761 911 747 C 898 732 879 725 854 725 C 829 725 811 732 800 748 C 789 764 780 783 774 807 C 767 830 759 848 751 861 C 743 874 732 886 719 897 C 703 907 684 916 660 924 C 636 932 607 936 571 936 C 491 936 432 918 396 883 C 360 848 342 807 342 760 C 342 730 348 704 360 684 C 372 663 389 646 410 633 C 430 619 453 607 479 597 C 505 587 532 577 561 567 C 665 531 742 491 793 447 C 844 403 870 343 870 268 C 870 220 860 177 840 139 C 820 101 793 68 759 42 C 724 15 682 -5 634 -19 C 585 -33 532 -41 475 -41 C 413 -41 358 -33 310 -17 C 262 -1 221 19 187 45 C 153 71 128 100 110 134 C 92 167 84 202 84 238 C 84 265 90 287 104 303 C 118 319 136 328 160 328 C 182 328 198 320 209 305 C 219 290 226 272 229 252 C 231 232 234 214 240 198 C 246 182 253 169 262 158 C 282 130 311 108 348 92 C 384 76 427 68 475 68 C 549 68 609 84 657 117 C 705 149 729 196 729 256 C 729 284 723 309 711 329 C 699 349 683 367 662 383 C 640 398 613 412 582 425 C 550 437 515 451 477 465 C 448 474 417 486 385 501 C 352 516 322 535 296 557 C 269 579 247 605 229 637 C 211 668 203 706 203 750 C 203 796 212 837 232 875 C 252 913 279 944 314 970 Z" unicode="s" />
<glyph horiz-adv-x="834" d="M 162 344 L 289 891 L 100 891 L 119 969 L 311 997 L 467 1354 L 551 1354 L 469 1004 L 803 1004 L 776 891 L 442 891 L 309 313 C 305 299 303 286 301 273 C 299 260 299 248 299 236 C 299 188 312 150 340 122 C 367 94 406 80 457 80 C 503 80 545 93 583 121 C 621 148 654 189 682 244 L 752 197 C 720 123 675 64 617 22 C 559 -19 492 -41 416 -41 C 377 -41 341 -35 309 -24 C 276 -13 247 2 223 24 C 198 44 179 71 165 105 C 151 139 145 178 145 223 C 145 240 146 259 149 279 C 152 299 156 320 162 344 Z" unicode="t" />
<glyph horiz-adv-x="1284" d="M 840 145 C 789 85 729 39 660 7 C 591 -25 526 -41 465 -41 C 366 -41 293 -15 247 37 C 201 89 178 156 178 238 C 178 272 181 308 188 346 C 195 384 203 422 213 461 L 311 860 C 269 845 225 837 181 837 C 137 836 95 840 57 850 L 72 915 C 137 912 200 922 260 945 C 320 967 376 1002 428 1049 L 506 1030 L 362 444 C 354 414 347 384 343 354 C 338 324 336 295 336 268 C 336 242 339 217 345 194 C 351 171 361 151 376 133 C 390 115 409 101 434 91 C 458 81 488 76 524 76 C 586 76 647 93 706 128 C 765 162 814 206 852 258 L 1024 1004 L 1180 1004 L 1008 260 C 1003 242 999 225 997 210 C 994 195 993 181 993 168 C 993 137 1000 114 1016 99 C 1031 83 1054 76 1085 76 C 1097 76 1111 77 1127 81 C 1143 84 1160 89 1180 96 L 1161 23 C 1142 10 1120 0 1094 -7 C 1068 -14 1040 -18 1010 -18 C 950 -18 907 -3 882 26 C 856 55 842 95 840 145 Z" unicode="u" />
<glyph horiz-adv-x="1214" d="M 862 297 C 904 361 938 432 962 511 C 986 589 999 665 999 739 C 999 775 995 802 988 821 C 980 840 970 855 958 865 C 946 875 933 883 920 887 C 907 891 895 895 883 901 C 870 906 860 913 853 923 C 845 933 842 948 842 969 C 842 983 847 1000 859 1019 C 871 1037 896 1047 936 1047 C 959 1047 982 1042 1006 1034 C 1030 1026 1052 1012 1072 992 C 1092 972 1108 946 1120 912 C 1132 878 1139 836 1139 786 C 1139 707 1125 620 1098 524 C 1070 428 1030 339 977 255 C 923 171 857 100 779 44 C 701 -12 610 -41 508 -41 C 446 -41 395 -31 355 -12 C 315 6 282 31 258 61 C 233 91 216 124 207 161 C 197 198 193 234 193 268 C 193 299 195 331 201 364 C 206 397 212 427 219 453 L 315 860 C 291 852 267 846 243 842 C 219 838 194 836 170 836 C 149 836 129 837 111 839 C 92 841 74 845 57 850 L 72 915 C 145 915 210 926 268 949 C 325 971 380 1005 432 1049 L 508 1030 L 367 442 C 361 419 355 394 351 368 C 346 341 344 314 344 287 C 344 227 358 176 387 136 C 415 96 462 76 528 76 C 594 76 655 96 713 138 C 770 180 820 233 862 297 Z" unicode="v" />
<glyph horiz-adv-x="1743" d="M 1405 294 C 1443 357 1473 428 1495 507 C 1517 585 1528 661 1528 735 C 1528 791 1519 829 1503 850 C 1487 870 1468 884 1448 892 C 1427 899 1408 906 1392 914 C 1376 922 1368 941 1368 973 C 1368 987 1374 1003 1386 1021 C 1398 1038 1424 1047 1464 1047 C 1487 1047 1511 1042 1535 1034 C 1559 1026 1581 1012 1601 992 C 1620 972 1636 946 1648 912 C 1660 878 1667 836 1667 786 C 1667 734 1661 678 1649 617 C 1637 556 1621 495 1599 434 C 1577 372 1550 313 1516 256 C 1482 198 1444 148 1400 104 C 1355 60 1305 25 1251 -1 C 1196 -27 1136 -41 1071 -41 C 994 -41 936 -21 896 16 C 856 54 830 104 819 166 C 781 97 732 45 674 11 C 615 -23 549 -41 475 -41 C 382 -41 312 -12 264 45 C 216 102 193 176 193 268 C 193 300 195 333 200 365 C 204 397 210 426 217 451 L 315 860 C 291 850 266 844 241 841 C 215 837 191 836 168 836 C 148 836 129 837 110 839 C 91 841 73 844 57 850 L 72 915 L 94 915 C 156 915 215 926 271 948 C 327 970 381 1004 432 1049 L 508 1030 L 367 442 C 361 419 356 392 352 362 C 348 332 346 304 346 279 C 346 219 359 171 386 135 C 412 98 458 80 522 80 C 590 80 647 105 693 157 C 739 208 773 285 797 389 L 944 1004 L 1096 1004 L 961 442 C 955 422 949 395 945 362 C 940 329 938 297 938 266 C 938 208 949 162 973 128 C 996 93 1038 76 1100 76 C 1160 76 1216 96 1269 137 C 1321 178 1367 230 1405 294 Z" unicode="w" />
<glyph horiz-adv-x="1151" d="M 352 1047 L 416 1034 L 600 631 L 686 768 C 722 828 756 876 788 913 C 820 950 850 979 878 999 C 906 1019 932 1033 956 1040 C 980 1047 1005 1051 1030 1051 C 1071 1051 1103 1042 1127 1026 C 1151 1009 1163 986 1163 958 C 1163 939 1156 921 1142 905 C 1128 889 1110 881 1087 881 C 1072 881 1057 884 1043 890 C 1029 896 1013 899 997 899 C 983 899 970 897 957 894 C 944 890 929 881 912 867 C 895 853 875 831 852 802 C 828 772 800 732 768 682 L 662 516 L 815 205 C 839 155 865 121 892 103 C 918 85 947 76 977 76 C 991 76 1006 77 1023 81 C 1040 85 1058 90 1077 98 L 1055 23 C 1034 10 1012 0 988 -7 C 964 -14 935 -18 903 -18 C 863 -18 828 -7 796 13 C 764 34 732 76 700 139 L 567 412 L 469 256 C 429 194 394 145 362 107 C 330 69 301 41 274 22 C 246 2 221 -11 197 -17 C 173 -23 150 -27 127 -27 C 86 -27 54 -18 30 -2 C 6 14 -6 36 -6 63 C -6 83 0 102 14 118 C 28 134 46 143 70 143 C 84 143 99 139 114 133 C 129 126 144 123 160 123 C 172 123 184 124 197 127 C 210 129 225 138 243 153 C 259 167 279 188 303 218 C 326 247 354 288 387 342 L 502 522 L 330 891 C 286 862 238 844 187 837 C 136 830 90 834 49 850 L 66 915 C 113 912 161 922 211 944 C 260 966 307 1000 352 1047 Z" unicode="x" />
<glyph horiz-adv-x="1249" d="M 825 127 C 779 75 725 35 664 7 C 603 -21 540 -35 475 -35 C 423 -35 378 -27 340 -13 C 302 0 270 21 246 47 C 221 73 203 103 191 137 C 179 171 174 208 174 250 C 174 282 178 318 186 356 C 194 394 203 431 213 467 L 309 860 C 265 845 221 837 176 836 C 131 834 90 839 53 850 L 68 915 C 133 912 196 922 257 945 C 317 967 374 1002 426 1049 L 506 1030 L 365 451 C 357 423 351 394 345 363 C 339 332 336 303 336 276 C 336 223 351 178 382 140 C 412 102 465 84 539 84 C 608 84 669 100 722 133 C 774 165 818 207 854 258 L 1022 1004 L 1180 1004 L 948 -2 C 914 -150 851 -267 760 -351 C 668 -435 548 -477 399 -477 C 324 -477 257 -466 199 -446 C 140 -426 91 -394 53 -350 C 41 -335 31 -319 23 -303 C 15 -287 12 -271 12 -256 C 12 -230 20 -209 36 -194 C 52 -179 72 -172 96 -172 C 111 -172 123 -175 132 -182 C 140 -189 149 -198 157 -209 C 164 -219 171 -231 178 -244 C 184 -257 193 -271 203 -285 C 219 -303 241 -320 269 -336 C 297 -352 339 -360 395 -360 C 439 -360 481 -355 522 -345 C 563 -335 601 -316 637 -289 C 672 -261 704 -224 732 -176 C 760 -128 782 -66 799 8 L 825 127 Z" unicode="y" />
<glyph horiz-adv-x="1079" d="M 894 36 C 871 16 844 0 814 -11 C 783 -23 750 -29 715 -29 C 682 -29 649 -25 615 -17 C 581 -9 547 -1 511 8 C 475 18 437 26 399 34 C 361 41 321 45 281 45 C 245 45 212 40 184 32 C 155 24 126 7 98 -18 L 20 78 L 778 834 C 771 832 765 831 759 831 C 753 831 746 831 739 831 C 706 831 675 835 647 843 C 618 851 589 860 561 870 C 532 880 503 889 475 897 C 446 905 416 909 385 909 C 345 909 318 901 302 885 C 286 869 279 855 279 842 C 279 822 282 807 288 795 C 294 783 295 770 291 756 C 288 742 280 730 267 722 C 254 713 239 709 223 709 C 201 709 180 717 162 734 C 144 751 135 779 135 819 C 135 877 158 926 204 966 C 250 1006 313 1026 391 1026 C 427 1026 461 1021 491 1012 C 521 1003 552 994 582 984 C 612 974 642 964 674 956 C 705 948 740 944 778 944 C 818 944 851 949 878 960 C 904 971 930 988 956 1012 L 1036 918 L 270 152 C 278 153 286 154 294 155 C 301 155 309 156 319 156 C 352 156 385 152 418 144 C 450 136 483 128 516 120 C 548 110 581 102 613 95 C 645 87 677 84 707 84 C 750 84 779 93 795 111 C 811 129 819 146 819 162 C 819 180 816 195 811 207 C 805 219 805 232 809 248 C 811 262 819 274 832 283 C 845 292 860 297 877 297 C 898 297 918 288 938 271 C 957 254 967 226 967 188 C 967 158 960 130 947 104 C 934 78 916 56 894 36 Z" unicode="z" />
<glyph horiz-adv-x="741" d="M 474 993 C 473 960 472 927 471 895 C 469 862 466 831 461 801 C 449 742 426 692 392 650 C 357 608 314 580 262 565 C 294 549 319 527 335 499 C 351 471 360 438 360 399 C 358 363 351 325 337 284 C 323 243 309 202 293 161 C 276 119 260 79 246 41 C 232 3 225 -31 225 -61 C 223 -91 232 -119 251 -145 C 269 -171 302 -187 348 -195 C 354 -196 364 -197 376 -197 C 388 -197 400 -196 410 -195 L 387 -297 C 377 -299 365 -301 350 -301 C 335 -301 320 -301 305 -301 C 241 -297 188 -276 148 -239 C 108 -202 88 -152 90 -90 C 91 -48 99 -6 113 34 C 127 75 143 116 160 156 C 176 195 191 235 205 275 C 219 315 227 356 227 397 C 228 431 220 459 203 479 C 186 499 155 510 109 510 L 12 510 L 37 621 L 133 621 C 167 621 195 626 218 636 C 240 646 259 660 275 678 C 291 696 303 716 311 739 C 319 762 326 787 332 813 C 337 837 340 864 341 894 C 341 923 342 953 342 984 C 342 1014 342 1046 344 1080 C 345 1113 349 1146 356 1180 C 364 1223 378 1260 398 1292 C 418 1323 441 1349 469 1370 C 496 1390 526 1406 560 1416 C 593 1426 628 1432 666 1432 C 681 1432 695 1431 709 1429 C 722 1427 734 1425 745 1423 L 723 1321 C 713 1323 703 1324 693 1325 C 683 1326 674 1327 666 1327 C 608 1325 566 1309 539 1279 C 511 1248 494 1213 487 1174 C 481 1148 478 1119 477 1088 C 475 1057 474 1025 474 993 Z" unicode="{" />
<glyph horiz-adv-x="463" d="M 104 -344 L -39 -344 L 365 1554 L 510 1554 L 104 -344 Z" unicode="|" />
<glyph horiz-adv-x="741" d="M 241 147 C 241 180 242 213 244 246 C 245 278 248 310 254 340 C 264 398 287 448 322 490 C 357 532 401 560 453 575 C 419 591 394 613 378 641 C 362 669 354 702 354 741 C 355 777 362 815 376 856 C 390 897 405 938 422 980 C 438 1021 453 1061 467 1099 C 481 1137 489 1172 489 1202 C 491 1232 482 1260 464 1286 C 445 1312 413 1328 367 1335 C 359 1336 349 1337 337 1337 C 325 1337 314 1336 305 1335 L 328 1438 C 337 1440 349 1442 364 1442 C 379 1442 394 1442 410 1442 C 474 1438 526 1417 566 1380 C 606 1343 626 1293 625 1231 C 623 1188 615 1146 601 1105 C 587 1064 571 1024 555 985 C 538 945 522 905 508 865 C 494 825 487 784 487 743 C 485 709 493 681 511 661 C 528 641 560 631 606 631 L 702 631 L 678 520 L 582 520 C 547 520 518 514 496 504 C 474 494 455 480 439 463 C 423 445 411 424 403 401 C 395 378 388 354 383 328 C 377 303 374 276 374 247 C 373 217 373 187 373 157 C 373 126 372 94 370 60 C 368 26 364 -6 358 -39 C 350 -82 336 -119 316 -151 C 296 -183 273 -209 246 -229 C 218 -249 188 -265 154 -275 C 120 -285 85 -291 49 -291 C 33 -291 19 -290 6 -289 C -7 -287 -19 -285 -31 -283 L -8 -180 C 2 -182 11 -183 21 -184 C 31 -185 40 -186 49 -186 C 106 -184 148 -168 176 -138 C 203 -107 220 -72 227 -33 C 233 -7 236 21 238 52 C 239 82 240 114 241 147 Z" unicode="}" />
<glyph horiz-adv-x="1122" d="M 1047 918 C 1038 827 1009 757 960 708 C 911 659 849 635 774 635 C 728 635 688 645 654 666 C 620 687 589 710 560 735 C 530 759 501 782 471 804 C 441 825 407 836 369 836 C 325 836 288 820 260 790 C 231 760 214 719 209 668 L 100 668 C 110 758 139 827 187 876 C 235 925 297 950 371 950 C 419 950 461 939 497 918 C 533 897 566 874 596 850 C 626 825 655 802 684 781 C 712 760 744 750 778 750 C 822 750 858 765 887 795 C 915 825 933 866 940 918 L 1047 918 Z" unicode="~" />
<glyph horiz-adv-x="395" d="" unicode="" />
<glyph horiz-adv-x="442" d="M 322 1128 C 348 1128 371 1118 391 1100 C 410 1082 420 1059 420 1032 C 420 1000 408 973 385 949 C 361 925 333 913 299 913 C 271 913 248 922 230 941 C 212 959 203 982 203 1010 C 203 1041 214 1068 238 1092 C 262 1116 290 1128 322 1128 Z M 100 -401 L -82 -401 C -79 -390 -73 -366 -64 -328 C -55 -290 -44 -245 -31 -191 C -17 -137 -1 -78 14 -12 C 30 53 47 119 65 186 C 81 253 98 318 114 381 C 130 443 145 500 159 550 C 171 600 182 640 190 671 C 198 701 203 718 205 721 L 293 721 C 293 718 290 701 286 671 C 281 640 274 600 265 550 C 256 500 246 443 236 381 C 226 318 215 253 204 186 C 192 119 180 53 169 -12 C 157 -78 147 -137 138 -191 C 129 -245 121 -290 114 -328 C 107 -366 102 -390 100 -401 Z" unicode="" />
<glyph horiz-adv-x="1114" d="M 343 824 C 308 776 280 719 260 653 C 239 587 229 517 229 442 C 229 360 246 291 282 236 C 318 181 368 144 434 125 L 618 991 C 565 987 515 970 467 941 C 419 911 377 872 343 824 Z M 365 -209 L 410 4 C 308 26 228 75 168 151 C 108 227 78 326 78 446 C 78 544 93 634 124 716 C 154 797 196 867 248 925 C 300 983 360 1028 428 1060 C 496 1092 567 1108 643 1110 L 688 1317 L 772 1317 L 727 1104 C 807 1092 872 1066 922 1026 C 972 985 1006 937 1026 881 C 1030 868 1033 856 1036 845 C 1038 834 1040 821 1040 805 C 1038 777 1029 756 1013 740 C 997 724 977 717 954 717 C 922 717 903 727 896 747 C 888 767 882 791 877 819 C 867 865 846 903 816 932 C 785 960 746 979 700 987 L 514 111 L 541 111 C 613 111 677 128 734 164 C 790 199 838 253 877 326 L 958 281 C 917 190 859 119 785 69 C 711 19 622 -6 520 -6 C 513 -6 507 -5 502 -5 C 497 -5 493 -4 489 -4 L 446 -209 L 365 -209 Z" unicode="" />
<glyph horiz-adv-x="1237" d="M 119 162 C 119 129 130 103 152 84 C 174 64 206 55 246 55 C 281 55 317 65 354 86 C 391 106 419 137 438 178 C 410 204 382 226 353 244 C 323 262 290 272 252 272 C 212 272 180 261 156 240 C 131 219 119 193 119 162 Z M 991 1174 C 991 1221 970 1259 928 1287 C 886 1315 830 1329 760 1329 C 705 1329 658 1319 619 1300 C 580 1281 548 1255 524 1223 C 499 1190 481 1152 470 1109 C 458 1065 453 1020 453 973 C 453 922 458 872 470 823 C 481 774 494 726 510 678 L 944 678 L 926 588 L 537 588 C 555 525 568 474 576 435 C 584 396 588 356 588 315 C 588 297 586 280 584 264 C 581 248 577 232 573 217 C 609 183 647 153 687 127 C 727 101 777 88 836 88 C 900 88 953 104 995 136 C 1037 168 1072 216 1100 281 L 1182 254 C 1169 217 1152 181 1131 146 C 1110 111 1085 81 1056 55 C 1026 29 992 8 953 -7 C 914 -23 870 -31 821 -31 C 750 -31 691 -18 644 8 C 596 34 555 64 520 98 C 487 53 446 18 398 -6 C 350 -30 298 -43 244 -43 C 174 -43 116 -24 70 11 C 24 47 2 96 2 158 C 2 188 8 216 20 244 C 32 271 50 295 73 316 C 95 337 122 354 154 366 C 186 378 222 385 260 385 C 301 385 338 378 370 366 C 402 354 431 338 459 319 C 455 359 446 401 432 446 C 418 491 404 538 389 588 L 156 588 L 172 678 L 360 678 C 345 726 333 774 323 824 C 313 874 309 924 309 975 C 309 1041 319 1104 340 1162 C 360 1220 391 1270 431 1313 C 471 1355 521 1388 579 1412 C 637 1436 702 1448 776 1448 C 837 1448 891 1440 938 1424 C 984 1408 1024 1387 1056 1361 C 1088 1334 1111 1304 1127 1271 C 1143 1237 1151 1203 1151 1167 C 1151 1130 1142 1099 1124 1074 C 1106 1048 1084 1036 1057 1036 C 1031 1036 1012 1042 1002 1056 C 992 1070 986 1085 985 1102 C 985 1112 986 1124 988 1136 C 990 1148 991 1161 991 1174 Z" unicode="" />
<glyph horiz-adv-x="1499" d="M 227 543 L 246 635 L 618 635 L 584 752 L 268 752 L 289 842 L 557 842 L 420 1305 L 227 1327 L 246 1413 L 809 1413 L 791 1327 L 571 1307 L 754 659 L 758 659 L 1212 1307 L 1006 1327 L 1022 1413 L 1593 1413 L 1575 1327 L 1370 1305 L 1036 842 L 1313 842 L 1292 752 L 971 752 L 887 635 L 1268 635 L 1247 543 L 819 543 L 811 530 L 723 109 L 987 88 L 969 0 L 268 0 L 287 88 L 561 109 L 651 530 L 647 543 L 227 543 Z" unicode="" />
<glyph horiz-adv-x="463" d="M 319 664 L 176 664 L 365 1554 L 510 1554 L 319 664 Z M 104 -342 L -39 -342 L 152 549 L 297 549 L 104 -342 Z" unicode="" />
<glyph horiz-adv-x="965" d="M 541 764 L 475 803 L 467 803 C 431 803 399 796 371 784 C 342 772 317 756 297 736 C 276 716 260 693 249 667 C 238 640 233 612 233 584 C 233 533 250 489 284 452 C 318 415 369 379 436 344 L 524 297 L 526 297 C 554 297 582 301 610 310 C 637 319 661 332 683 350 C 704 368 721 390 734 417 C 747 443 754 474 754 510 C 754 540 748 567 737 591 C 726 615 711 636 692 656 C 673 676 651 694 625 711 C 599 728 571 746 541 764 Z M 815 720 C 838 694 856 666 870 634 C 884 602 891 564 891 522 C 891 434 867 366 819 316 C 771 266 713 234 645 219 C 677 193 704 163 724 131 C 744 98 754 58 754 12 C 754 -38 743 -81 723 -119 C 702 -157 675 -188 641 -214 C 607 -239 567 -258 523 -270 C 479 -282 433 -289 385 -289 C 311 -289 245 -276 187 -251 C 129 -225 81 -189 45 -143 C 27 -120 13 -97 3 -73 C -7 -49 -12 -25 -12 -2 C -12 22 -6 44 5 63 C 17 82 37 92 66 92 C 82 92 94 88 103 82 C 112 75 119 66 123 56 C 127 46 129 35 131 23 C 132 11 133 1 135 -8 C 141 -58 166 -99 210 -130 C 254 -160 310 -176 379 -176 C 444 -176 499 -160 543 -130 C 587 -99 610 -56 610 0 C 610 28 602 54 588 77 C 574 99 556 120 534 140 C 511 160 485 178 456 195 C 426 212 397 230 367 248 C 333 266 301 286 270 308 C 238 329 210 353 186 379 C 162 405 142 434 127 467 C 111 499 104 538 104 582 C 104 620 110 656 123 691 C 136 725 154 756 177 783 C 199 809 226 832 258 851 C 289 869 323 882 360 889 C 332 916 309 947 291 981 C 273 1015 264 1054 264 1100 C 264 1138 271 1175 285 1212 C 299 1249 322 1282 352 1312 C 382 1341 419 1364 463 1382 C 507 1400 560 1409 621 1409 C 678 1409 729 1401 774 1385 C 819 1369 857 1349 887 1324 C 917 1298 939 1270 955 1239 C 971 1207 979 1176 979 1145 C 979 1116 972 1093 960 1075 C 948 1057 928 1049 901 1049 C 886 1049 874 1052 866 1059 C 858 1065 851 1074 846 1085 C 842 1095 839 1105 837 1116 C 835 1127 833 1136 831 1143 C 828 1179 808 1214 772 1247 C 735 1279 681 1296 610 1296 C 540 1296 487 1278 449 1243 C 411 1207 393 1164 393 1114 C 393 1081 400 1052 415 1026 C 430 1000 450 976 475 955 C 499 934 526 915 556 897 C 585 879 614 862 643 846 C 674 826 705 807 735 787 C 765 767 791 745 815 720 Z" unicode="" />
<glyph horiz-adv-x="1217" d="M 825 1208 C 797 1208 774 1217 754 1236 C 734 1254 725 1277 725 1305 C 725 1340 736 1370 760 1394 C 783 1418 812 1430 846 1430 C 874 1430 898 1420 917 1401 C 936 1381 946 1357 946 1329 C 946 1296 933 1268 909 1244 C 884 1220 856 1208 825 1208 Z M 473 1208 C 445 1208 422 1217 402 1236 C 382 1254 373 1277 373 1305 C 373 1340 384 1370 407 1394 C 430 1418 459 1430 494 1430 C 522 1430 546 1420 565 1401 C 584 1381 594 1357 594 1329 C 594 1296 581 1268 557 1244 C 532 1220 504 1208 473 1208 Z" unicode="" />
<glyph horiz-adv-x="1511" d="M 245 148 C 188 206 144 275 113 354 C 81 433 66 518 66 610 C 66 730 88 841 132 943 C 176 1045 235 1133 308 1208 C 381 1283 465 1342 559 1384 C 653 1426 750 1448 852 1448 C 948 1448 1036 1431 1116 1398 C 1195 1364 1263 1319 1319 1261 C 1375 1203 1418 1134 1449 1055 C 1479 975 1495 890 1495 799 C 1495 678 1472 566 1428 464 C 1384 362 1325 274 1251 200 C 1177 125 1093 66 999 24 C 905 -17 808 -39 709 -39 C 613 -39 525 -22 447 11 C 369 44 301 90 245 148 Z M 1193 252 C 1259 320 1312 400 1352 492 C 1392 584 1413 684 1413 791 C 1413 873 1399 950 1372 1021 C 1344 1092 1306 1154 1257 1207 C 1208 1259 1149 1301 1081 1331 C 1013 1361 937 1376 854 1376 C 764 1376 676 1357 592 1319 C 507 1281 432 1228 366 1160 C 299 1092 246 1012 206 919 C 166 826 147 725 147 616 C 147 534 160 458 187 386 C 213 314 251 253 300 201 C 348 149 407 108 475 78 C 543 48 619 33 702 33 C 792 33 880 52 966 91 C 1051 130 1127 184 1193 252 Z M 537 995 C 577 1037 624 1070 678 1092 C 731 1114 786 1126 844 1126 C 894 1126 938 1118 974 1103 C 1010 1088 1039 1070 1063 1048 C 1086 1025 1103 1000 1115 974 C 1127 947 1133 922 1133 899 C 1133 871 1125 850 1110 834 C 1094 818 1077 811 1059 811 C 1043 811 1032 813 1024 818 C 1016 822 1010 829 1006 838 C 1001 846 998 855 997 866 C 995 877 994 889 993 901 C 986 941 971 971 947 993 C 923 1015 888 1026 842 1026 C 800 1026 760 1017 722 999 C 683 981 648 956 618 922 C 588 887 563 845 545 797 C 527 749 518 693 518 631 C 518 557 538 497 578 453 C 618 409 678 387 756 387 C 808 387 855 399 896 424 C 937 448 973 485 1004 535 L 1069 500 C 1033 434 988 382 933 345 C 877 307 813 289 739 289 C 689 289 643 297 601 313 C 559 329 524 353 495 383 C 465 413 442 448 426 490 C 409 532 401 578 401 629 C 401 706 413 776 438 838 C 462 900 495 953 537 995 Z" unicode="" />
<glyph horiz-adv-x="963" d="M 254 956 C 252 882 268 825 300 783 C 332 741 378 721 438 721 C 490 721 532 731 566 753 C 599 775 625 802 645 836 L 727 1212 C 716 1254 695 1287 663 1311 C 631 1334 591 1346 541 1346 C 503 1346 467 1336 433 1317 C 398 1297 367 1271 341 1237 C 314 1203 293 1162 277 1114 C 261 1066 254 1013 254 956 Z M 641 737 C 608 700 571 672 529 654 C 487 636 443 627 395 627 C 351 627 313 634 280 650 C 247 666 220 688 198 717 C 175 745 158 779 147 818 C 136 857 131 900 131 946 C 131 1021 142 1089 166 1150 C 189 1210 219 1262 256 1306 C 292 1348 335 1382 383 1406 C 431 1430 480 1442 530 1442 C 584 1442 632 1430 673 1406 C 714 1382 745 1349 766 1309 L 848 1415 L 905 1415 L 774 856 C 771 844 769 833 768 821 C 766 809 766 798 766 786 C 766 764 770 748 780 737 C 790 726 806 721 829 721 C 840 721 851 722 863 724 C 875 726 887 730 899 735 L 885 674 C 871 664 853 656 833 651 C 813 645 790 643 766 643 C 730 643 701 650 680 666 C 659 682 646 705 641 737 Z" unicode="" />
<glyph horiz-adv-x="1042" d="M 1083 993 L 586 479 L 852 0 L 713 0 L 444 483 L 446 494 L 936 993 L 1083 993 Z M 694 993 L 209 492 L 477 0 L 342 0 L 66 494 L 68 506 L 545 993 L 694 993 Z" unicode="" />
<glyph horiz-adv-x="717" d="M 121 696 L 633 696 L 606 584 L 96 584 L 121 696 Z" unicode="" />
<glyph horiz-adv-x="827" d="M 773 760 C 731 718 684 686 630 664 C 576 642 519 631 461 631 C 407 631 358 640 313 658 C 268 676 229 702 197 734 C 163 766 137 804 119 848 C 101 892 92 941 92 993 C 92 1059 104 1120 130 1176 C 155 1232 188 1280 230 1321 C 272 1361 320 1393 375 1416 C 429 1438 486 1450 545 1450 C 598 1450 647 1440 692 1422 C 737 1404 776 1379 809 1347 C 841 1314 866 1275 884 1231 C 902 1187 911 1139 911 1087 C 911 1021 898 961 873 905 C 848 849 815 800 773 760 Z M 769 1311 C 741 1339 707 1361 668 1377 C 629 1393 587 1401 541 1401 C 490 1401 441 1390 394 1370 C 347 1349 305 1321 268 1285 C 231 1249 202 1206 180 1157 C 158 1107 147 1054 147 997 C 147 952 155 910 171 871 C 187 832 209 798 237 770 C 265 741 298 719 337 703 C 375 687 419 680 467 680 C 516 680 564 690 611 710 C 658 730 700 759 737 796 C 774 832 803 874 825 923 C 847 972 858 1025 858 1083 C 858 1128 850 1170 834 1209 C 818 1248 797 1282 769 1311 Z M 559 1186 L 471 1186 L 440 1049 L 543 1049 C 564 1049 581 1056 594 1072 C 607 1088 614 1107 614 1130 C 614 1148 609 1161 599 1171 C 589 1181 575 1186 559 1186 Z M 483 881 L 473 840 L 256 840 L 264 881 L 336 889 L 403 1190 L 336 1198 L 342 1239 L 584 1239 C 616 1239 642 1229 660 1211 C 678 1193 688 1167 688 1133 C 688 1094 677 1063 657 1041 C 637 1019 613 1004 586 997 L 610 891 L 682 881 L 674 840 L 553 840 L 516 993 L 428 993 L 406 889 L 483 881 Z" unicode="" />
<glyph horiz-adv-x="1217" d="M 412 1348 L 915 1348 L 895 1255 L 393 1255 L 412 1348 Z" unicode="" />
<glyph horiz-adv-x="713" d="M 679 1352 C 700 1330 716 1303 728 1273 C 739 1242 745 1210 745 1176 C 743 1134 735 1095 719 1059 C 703 1022 682 990 656 962 C 629 934 598 912 562 896 C 526 880 487 872 446 872 C 409 872 375 878 345 891 C 314 904 288 922 267 945 C 246 967 230 994 219 1024 C 208 1054 203 1086 205 1120 C 206 1161 214 1200 230 1237 C 246 1273 267 1306 294 1334 C 320 1362 351 1383 387 1399 C 422 1415 460 1423 502 1423 C 538 1423 572 1416 602 1403 C 632 1390 657 1373 679 1352 Z M 649 1171 C 650 1219 635 1258 605 1289 C 574 1319 537 1335 494 1335 C 443 1335 399 1315 361 1277 C 323 1238 303 1188 301 1126 C 299 1074 313 1034 342 1006 C 370 977 408 963 455 963 C 481 963 505 968 528 979 C 551 989 572 1004 590 1023 C 607 1041 621 1063 632 1088 C 643 1113 649 1141 649 1171 Z" unicode="" />
<glyph horiz-adv-x="969" d="M 532 1016 L 649 1016 L 580 694 L 885 694 L 862 588 L 557 588 L 489 264 L 373 264 L 440 588 L 137 588 L 160 694 L 463 694 L 532 1016 Z M 12 2 L 33 106 L 760 106 L 739 2 L 12 2 Z" unicode="" />
<glyph horiz-adv-x="750" d="M 244 725 C 254 729 265 733 277 736 C 289 738 303 740 318 740 C 344 740 367 735 388 727 C 409 719 430 710 450 702 C 470 692 489 684 508 676 C 527 668 548 664 570 664 C 588 664 608 668 628 677 C 648 685 658 703 658 729 C 658 737 657 745 656 752 C 654 758 654 765 656 772 C 657 786 662 796 672 804 C 681 811 693 815 707 815 C 723 815 737 808 747 794 C 757 780 762 762 762 738 C 762 690 743 649 706 615 C 668 581 622 565 566 565 C 537 565 512 569 491 577 C 469 585 448 594 428 604 C 408 614 387 623 367 631 C 346 639 323 643 297 643 C 265 643 238 637 218 627 C 198 616 183 600 174 578 L 93 592 C 102 642 115 686 131 724 C 147 762 169 796 195 827 C 221 857 252 885 289 910 C 325 935 370 961 424 989 C 452 1004 480 1019 507 1034 C 533 1049 557 1066 578 1084 C 598 1101 614 1121 626 1143 C 637 1165 643 1189 643 1217 C 643 1255 630 1286 604 1311 C 578 1335 540 1348 488 1348 C 422 1348 371 1328 335 1288 C 299 1248 279 1200 277 1143 L 193 1137 C 190 1176 195 1214 207 1251 C 219 1288 239 1321 265 1349 C 291 1377 323 1399 363 1416 C 402 1433 448 1442 500 1442 C 582 1442 645 1422 691 1382 C 737 1342 760 1289 760 1223 C 760 1181 751 1145 735 1114 C 719 1082 697 1054 670 1028 C 642 1002 611 978 577 958 C 542 938 505 919 467 901 C 408 872 362 845 328 821 C 294 797 266 765 244 725 Z" unicode="" />
<glyph horiz-adv-x="711" d="M 615 642 C 585 616 550 597 510 583 C 470 569 426 563 378 563 C 328 563 285 569 251 581 C 217 593 189 609 168 627 C 147 645 132 664 123 684 C 114 704 110 723 110 740 C 110 758 115 774 125 787 C 135 800 149 807 165 807 C 184 807 197 801 203 789 C 209 777 214 764 219 750 C 227 720 246 697 277 681 C 307 665 343 658 385 658 C 446 658 496 674 536 708 C 575 741 595 783 595 834 C 595 877 580 911 550 935 C 520 959 474 972 413 975 L 327 977 L 344 1061 L 423 1063 C 477 1064 525 1078 566 1106 C 607 1133 628 1171 628 1221 C 628 1257 615 1287 589 1311 C 563 1334 523 1346 471 1346 C 425 1346 386 1335 354 1313 C 322 1291 296 1259 276 1217 L 202 1237 C 221 1299 255 1349 305 1386 C 355 1423 417 1442 493 1442 C 577 1442 639 1422 679 1382 C 719 1342 739 1296 739 1243 C 739 1201 725 1159 699 1118 C 672 1077 630 1046 573 1024 C 615 1010 648 989 672 960 C 696 930 708 894 708 850 C 708 808 699 769 683 733 C 667 697 644 667 615 642 Z" unicode="" />
<glyph horiz-adv-x="1217" d="M 874 1442 L 590 1180 L 471 1180 L 471 1186 L 700 1448 L 874 1448 L 874 1442 Z" unicode="" />
<glyph horiz-adv-x="1393" d="M 207 -326 L 225 -238 L 463 -215 L 598 426 L 514 426 C 455 426 402 436 354 457 C 306 478 266 507 232 545 C 198 581 173 625 155 676 C 137 726 129 782 129 842 C 129 928 142 1006 170 1076 C 197 1146 235 1206 284 1256 C 332 1306 388 1344 453 1372 C 518 1399 588 1413 664 1413 L 1470 1413 L 1452 1327 L 1208 1300 L 887 -227 L 1118 -238 L 1102 -326 L 719 -326 L 1063 1300 L 930 1300 L 584 -326 L 207 -326 Z" unicode="" />
<glyph horiz-adv-x="416" d="M 215 526 C 187 526 164 535 146 554 C 128 572 119 595 119 623 C 119 655 130 683 152 707 C 174 731 203 743 238 743 C 265 743 288 733 306 715 C 324 697 334 673 334 645 C 334 613 322 586 298 562 C 274 538 246 526 215 526 Z" unicode="" />
<glyph horiz-adv-x="1217" d="M 326 -324 L 391 -279 C 403 -314 422 -340 448 -358 C 474 -376 509 -385 555 -385 C 586 -385 616 -376 644 -358 C 672 -340 686 -312 686 -274 C 686 -248 676 -227 657 -211 C 638 -194 609 -186 569 -186 C 563 -186 558 -186 552 -187 C 546 -187 539 -188 532 -190 L 508 -170 L 592 0 L 680 0 L 614 -129 L 616 -129 C 661 -129 701 -140 737 -164 C 773 -187 791 -222 791 -268 C 791 -299 784 -327 770 -352 C 756 -376 738 -397 716 -414 C 693 -430 667 -442 639 -450 C 610 -458 581 -463 551 -463 C 503 -463 457 -452 414 -431 C 371 -409 342 -374 326 -324 Z" unicode="" />
<glyph horiz-adv-x="559" d="M 103 651 L 260 668 L 400 1284 C 368 1270 336 1262 304 1260 C 272 1257 242 1260 215 1268 L 228 1323 C 272 1319 317 1327 362 1348 C 407 1368 448 1394 486 1426 L 539 1417 L 375 668 L 531 651 L 516 588 L 90 588 L 103 651 Z" unicode="" />
<glyph horiz-adv-x="932" d="M 219 721 C 190 751 168 786 153 827 C 138 868 131 913 131 963 C 131 1029 141 1092 163 1150 C 184 1208 214 1258 252 1302 C 290 1344 334 1378 385 1404 C 435 1429 491 1442 551 1442 C 604 1442 651 1433 692 1416 C 733 1399 768 1376 797 1347 C 825 1317 847 1282 862 1241 C 877 1200 885 1155 885 1106 C 885 1039 874 976 853 917 C 831 858 802 807 764 765 C 726 721 681 687 630 663 C 578 639 523 627 465 627 C 411 627 364 635 323 651 C 282 667 247 691 219 721 Z M 338 1236 C 312 1201 291 1160 276 1112 C 261 1064 254 1012 254 958 C 254 890 272 833 308 787 C 344 741 397 719 467 719 C 507 719 545 728 581 748 C 617 768 648 795 674 830 C 700 865 720 906 735 953 C 750 1000 758 1051 758 1106 C 758 1175 739 1233 703 1279 C 667 1325 614 1348 545 1348 C 503 1348 465 1338 430 1318 C 394 1298 364 1270 338 1236 Z" unicode="" />
<glyph horiz-adv-x="1042" d="M -41 0 L 457 514 L 190 993 L 330 993 L 598 510 L 596 500 L 106 0 L -41 0 Z M 348 0 L 834 502 L 565 993 L 700 993 L 977 500 L 975 487 L 498 0 L 348 0 Z" unicode="" />
<glyph horiz-adv-x="1622" d="M 103 651 L 260 668 L 400 1284 C 368 1270 336 1262 304 1260 C 272 1257 242 1260 215 1268 L 228 1323 C 272 1319 317 1327 362 1348 C 407 1368 448 1394 486 1426 L 539 1417 L 375 668 L 531 651 L 516 588 L 90 588 L 103 651 Z M 1332 1415 L 383 0 L 250 0 L 1198 1415 L 1332 1415 Z M 1040 63 L 1190 80 L 1227 252 L 807 252 L 817 338 C 891 403 958 479 1018 567 C 1078 654 1127 739 1167 821 L 1233 805 C 1220 768 1203 728 1182 685 C 1161 642 1137 599 1111 557 C 1084 515 1056 474 1026 436 C 996 398 966 365 936 338 L 1247 338 L 1335 731 L 1448 780 L 1456 778 L 1358 338 L 1495 338 L 1477 252 L 1339 252 L 1302 80 L 1436 63 L 1425 0 L 1026 0 L 1040 63 Z" unicode="" />
<glyph horiz-adv-x="1679" d="M 1042 137 C 1052 141 1063 145 1075 148 C 1087 150 1101 152 1116 152 C 1142 152 1165 147 1186 139 C 1207 131 1228 122 1248 114 C 1268 104 1287 96 1306 88 C 1325 80 1346 76 1368 76 C 1386 76 1406 80 1426 89 C 1446 97 1456 115 1456 141 C 1456 149 1455 157 1454 164 C 1452 170 1452 177 1454 184 C 1455 198 1460 208 1470 216 C 1479 223 1491 227 1505 227 C 1521 227 1535 220 1545 206 C 1555 192 1560 174 1560 150 C 1560 102 1541 61 1504 27 C 1466 -6 1420 -23 1364 -23 C 1335 -23 1310 -18 1289 -10 C 1267 -2 1246 6 1226 16 C 1206 26 1185 35 1165 43 C 1144 51 1121 55 1095 55 C 1063 55 1036 49 1016 39 C 996 28 981 12 972 -10 L 891 4 C 900 54 913 98 929 136 C 945 174 967 208 993 239 C 1019 269 1050 297 1087 322 C 1123 347 1168 373 1222 401 C 1250 416 1278 431 1305 446 C 1331 461 1355 478 1376 496 C 1396 513 1412 533 1424 555 C 1435 577 1441 601 1441 629 C 1441 667 1428 698 1402 723 C 1376 747 1338 760 1286 760 C 1220 760 1169 740 1133 700 C 1097 660 1077 612 1075 555 L 991 549 C 988 588 993 626 1005 663 C 1017 700 1037 733 1063 761 C 1089 789 1121 811 1161 828 C 1200 845 1246 854 1298 854 C 1380 854 1443 834 1489 794 C 1535 754 1558 701 1558 635 C 1558 593 1549 557 1533 526 C 1517 494 1495 466 1468 440 C 1440 414 1409 390 1375 370 C 1340 350 1303 331 1265 313 C 1206 284 1160 257 1126 233 C 1092 209 1064 177 1042 137 Z M 103 651 L 260 668 L 400 1284 C 368 1270 336 1262 304 1260 C 272 1257 242 1260 215 1268 L 228 1323 C 272 1319 317 1327 362 1348 C 407 1368 448 1394 486 1426 L 539 1417 L 375 668 L 531 651 L 516 588 L 90 588 L 103 651 Z M 1321 1415 L 372 0 L 239 0 L 1187 1415 L 1321 1415 Z" unicode="" />
<glyph horiz-adv-x="1821" d="M 615 642 C 585 616 550 597 510 583 C 470 569 426 563 378 563 C 328 563 285 569 251 581 C 217 593 189 609 168 627 C 147 645 132 664 123 684 C 114 704 110 723 110 740 C 110 758 115 774 125 787 C 135 800 149 807 165 807 C 184 807 197 801 203 789 C 209 777 214 764 219 750 C 227 720 246 697 277 681 C 307 665 343 658 385 658 C 446 658 496 674 536 708 C 575 741 595 783 595 834 C 595 877 580 911 550 935 C 520 959 474 972 413 975 L 327 977 L 344 1061 L 423 1063 C 477 1064 525 1078 566 1106 C 607 1133 628 1171 628 1221 C 628 1257 615 1287 589 1311 C 563 1334 523 1346 471 1346 C 425 1346 386 1335 354 1313 C 322 1291 296 1259 276 1217 L 202 1237 C 221 1299 255 1349 305 1386 C 355 1423 417 1442 493 1442 C 577 1442 639 1422 679 1382 C 719 1342 739 1296 739 1243 C 739 1201 725 1159 699 1118 C 672 1077 630 1046 573 1024 C 615 1010 648 989 672 960 C 696 930 708 894 708 850 C 708 808 699 769 683 733 C 667 697 644 667 615 642 Z M 1518 1415 L 569 0 L 436 0 L 1384 1415 L 1518 1415 Z M 1239 63 L 1389 80 L 1426 252 L 1006 252 L 1016 338 C 1090 403 1157 479 1217 567 C 1277 654 1326 739 1366 821 L 1432 805 C 1419 768 1402 728 1381 685 C 1360 642 1336 599 1310 557 C 1283 515 1255 474 1225 436 C 1195 398 1165 365 1135 338 L 1446 338 L 1534 731 L 1647 780 L 1655 778 L 1557 338 L 1694 338 L 1676 252 L 1538 252 L 1501 80 L 1635 63 L 1624 0 L 1225 0 L 1239 63 Z" unicode="" />
<glyph horiz-adv-x="952" d="M 586 1130 C 613 1130 636 1120 655 1102 C 674 1084 684 1061 684 1034 C 684 1002 672 975 650 951 C 627 927 599 915 565 915 C 537 915 514 924 496 943 C 478 961 469 984 469 1012 C 469 1043 480 1070 504 1094 C 527 1118 554 1130 586 1130 Z M 691 -321 C 648 -354 598 -379 542 -397 C 485 -415 426 -424 365 -424 C 304 -424 247 -416 193 -400 C 139 -384 92 -361 51 -330 C 10 -298 -22 -259 -47 -213 C -71 -166 -84 -113 -84 -53 C -84 19 -70 80 -42 132 C -14 183 21 227 63 263 C 105 299 151 329 199 355 C 247 380 293 404 336 426 C 378 448 413 469 441 491 C 469 513 483 539 483 569 C 483 585 478 599 470 610 C 461 621 448 627 430 629 L 410 629 L 434 705 C 440 707 447 709 454 709 C 461 709 468 709 475 709 C 511 709 544 697 572 674 C 600 650 614 618 614 578 C 614 531 600 492 574 462 C 548 431 514 403 473 379 C 432 354 388 330 342 308 C 295 285 251 259 211 229 C 170 199 136 162 110 119 C 83 76 70 23 70 -41 C 70 -115 96 -177 148 -228 C 200 -279 278 -305 381 -305 C 427 -305 469 -298 505 -285 C 541 -272 571 -255 595 -234 C 619 -213 637 -190 650 -164 C 663 -138 670 -111 672 -84 C 673 -64 673 -46 671 -30 C 669 -14 669 2 672 20 C 674 35 682 51 694 67 C 706 83 726 92 754 92 C 781 92 801 80 813 58 C 825 36 831 8 831 -25 C 831 -89 818 -145 793 -195 C 768 -245 734 -287 691 -321 Z" unicode="" />
<glyph horiz-adv-x="1522" d="M 918 1223 L 565 575 L 999 575 L 922 1223 L 918 1223 Z M 569 88 L 551 0 L -63 0 L -45 88 L 158 106 L 823 1305 L 563 1327 L 582 1413 L 1341 1413 L 1323 1327 L 1049 1305 L 1206 104 L 1397 88 L 1378 0 L 774 0 L 793 88 L 1057 109 L 1010 467 L 510 467 L 311 109 L 569 88 Z M 938 1569 L 653 1831 L 653 1837 L 823 1837 L 1052 1575 L 1052 1569 L 938 1569 Z" unicode="" />
<glyph horiz-adv-x="1522" d="M 918 1223 L 565 575 L 999 575 L 922 1223 L 918 1223 Z M 569 88 L 551 0 L -63 0 L -45 88 L 158 106 L 823 1305 L 563 1327 L 582 1413 L 1341 1413 L 1323 1327 L 1049 1305 L 1206 104 L 1397 88 L 1378 0 L 774 0 L 793 88 L 1057 109 L 1010 467 L 510 467 L 311 109 L 569 88 Z M 1294 1831 L 1010 1569 L 891 1569 L 891 1575 L 1120 1837 L 1294 1837 L 1294 1831 Z" unicode="" />
<glyph horiz-adv-x="1522" d="M 918 1223 L 565 575 L 999 575 L 922 1223 L 918 1223 Z M 569 88 L 551 0 L -63 0 L -45 88 L 158 106 L 823 1305 L 563 1327 L 582 1413 L 1341 1413 L 1323 1327 L 1049 1305 L 1206 104 L 1397 88 L 1378 0 L 774 0 L 793 88 L 1057 109 L 1010 467 L 510 467 L 311 109 L 569 88 Z M 1202 1569 L 1026 1747 L 809 1569 L 676 1569 L 678 1575 L 987 1839 L 1092 1839 L 1335 1575 L 1333 1569 L 1202 1569 Z" unicode="" />
<glyph horiz-adv-x="1522" d="M 918 1223 L 565 575 L 999 575 L 922 1223 L 918 1223 Z M 569 88 L 551 0 L -63 0 L -45 88 L 158 106 L 823 1305 L 563 1327 L 582 1413 L 1341 1413 L 1323 1327 L 1049 1305 L 1206 104 L 1397 88 L 1378 0 L 774 0 L 793 88 L 1057 109 L 1010 467 L 510 467 L 311 109 L 569 88 Z M 789 1610 L 693 1610 C 702 1679 726 1730 765 1762 C 804 1794 850 1810 902 1810 C 930 1810 956 1803 979 1790 C 1002 1777 1024 1763 1046 1748 C 1067 1732 1088 1717 1109 1704 C 1130 1691 1152 1685 1176 1685 C 1199 1685 1219 1695 1237 1715 C 1255 1735 1266 1761 1272 1794 L 1366 1794 C 1362 1757 1353 1726 1339 1700 C 1325 1674 1310 1652 1292 1636 C 1273 1620 1253 1608 1232 1601 C 1211 1594 1190 1591 1168 1591 C 1138 1591 1111 1597 1087 1610 C 1063 1623 1040 1638 1018 1655 C 996 1671 976 1685 956 1698 C 936 1711 915 1718 893 1718 C 865 1718 842 1708 823 1688 C 804 1668 793 1642 789 1610 Z" unicode="" />
<glyph horiz-adv-x="1522" d="M 918 1223 L 565 575 L 999 575 L 922 1223 L 918 1223 Z M 569 88 L 551 0 L -63 0 L -45 88 L 158 106 L 823 1305 L 563 1327 L 582 1413 L 1341 1413 L 1323 1327 L 1049 1305 L 1206 104 L 1397 88 L 1378 0 L 774 0 L 793 88 L 1057 109 L 1010 467 L 510 467 L 311 109 L 569 88 Z M 1185 1597 C 1157 1597 1134 1606 1114 1625 C 1094 1643 1085 1666 1085 1694 C 1085 1729 1096 1759 1120 1783 C 1143 1807 1172 1819 1206 1819 C 1234 1819 1258 1809 1277 1790 C 1296 1770 1306 1746 1306 1718 C 1306 1685 1293 1657 1269 1633 C 1244 1609 1216 1597 1185 1597 Z M 833 1597 C 805 1597 782 1606 762 1625 C 742 1643 733 1666 733 1694 C 733 1729 744 1759 767 1783 C 790 1807 819 1819 854 1819 C 882 1819 906 1809 925 1790 C 944 1770 954 1746 954 1718 C 954 1685 941 1657 917 1633 C 892 1609 864 1597 833 1597 Z" unicode="" />
<glyph horiz-adv-x="1522" d="M 918 1223 L 565 575 L 999 575 L 922 1223 L 918 1223 Z M 569 88 L 551 0 L -63 0 L -45 88 L 158 106 L 823 1305 L 563 1327 L 582 1413 L 1341 1413 L 1323 1327 L 1049 1305 L 1206 104 L 1397 88 L 1378 0 L 774 0 L 793 88 L 1057 109 L 1010 467 L 510 467 L 311 109 L 569 88 Z M 893 1855 C 911 1873 933 1887 957 1897 C 981 1907 1006 1913 1032 1913 C 1079 1913 1119 1898 1152 1868 C 1185 1838 1201 1797 1200 1745 C 1198 1715 1192 1687 1181 1662 C 1170 1636 1155 1614 1137 1596 C 1119 1578 1097 1563 1073 1553 C 1048 1543 1023 1538 997 1538 C 945 1538 903 1554 873 1587 C 842 1619 828 1660 831 1710 C 832 1738 838 1765 849 1791 C 860 1816 875 1837 893 1855 Z M 1003 1606 C 1035 1606 1063 1619 1087 1645 C 1110 1671 1122 1703 1124 1741 C 1125 1765 1117 1789 1101 1811 C 1085 1833 1061 1845 1030 1845 C 996 1845 968 1832 944 1806 C 920 1780 909 1748 909 1710 C 909 1676 917 1650 934 1632 C 951 1614 974 1606 1003 1606 Z" unicode="" />
<glyph horiz-adv-x="2066" d="M 924 1243 L 555 575 L 987 575 L 930 1243 L 924 1243 Z M 772 0 L 791 88 L 1026 109 L 995 467 L 494 467 L 297 111 L 569 88 L 549 0 L -63 0 L -45 88 L 143 109 L 819 1303 L 555 1327 L 573 1413 L 2007 1413 L 2042 969 L 1960 946 L 1868 1303 L 1069 1303 L 1116 805 L 1561 805 L 1649 1051 L 1731 1051 L 1608 457 L 1526 457 L 1538 692 L 1126 692 L 1180 111 L 1694 111 L 1937 561 L 2015 543 L 1800 0 L 772 0 Z" unicode="" />
<glyph horiz-adv-x="1370" d="M 367 -324 L 432 -279 C 444 -314 463 -340 489 -358 C 515 -376 550 -385 596 -385 C 627 -385 657 -376 685 -358 C 713 -340 727 -312 727 -274 C 727 -248 717 -227 698 -211 C 679 -194 650 -186 610 -186 C 604 -186 599 -186 593 -187 C 587 -187 580 -188 573 -190 L 549 -170 L 613 -40 C 550 -34 492 -21 440 1 C 372 30 313 71 265 124 C 217 176 180 239 155 313 C 129 387 117 468 117 557 C 117 671 134 783 169 891 C 203 999 253 1094 317 1177 C 380 1259 457 1325 548 1376 C 638 1426 739 1452 850 1452 C 926 1452 998 1434 1066 1399 C 1133 1363 1185 1311 1221 1241 L 1280 1450 L 1356 1450 L 1331 889 L 1249 872 L 1227 985 C 1206 1087 1165 1170 1105 1232 C 1044 1294 962 1325 860 1325 C 766 1325 682 1302 609 1258 C 536 1214 475 1155 426 1083 C 376 1011 339 928 313 836 C 287 744 275 650 275 555 C 275 482 284 417 304 359 C 324 301 352 251 389 211 C 426 170 471 138 523 116 C 575 93 635 82 701 82 C 763 82 819 90 867 106 C 915 122 958 146 996 176 C 1034 206 1068 241 1099 282 C 1129 323 1158 368 1186 416 L 1264 373 C 1235 313 1202 257 1165 207 C 1128 156 1086 112 1039 76 C 992 38 938 9 878 -11 C 824 -29 765 -40 699 -42 L 655 -129 L 657 -129 C 702 -129 742 -140 778 -164 C 814 -187 832 -222 832 -268 C 832 -299 825 -327 811 -352 C 797 -376 779 -397 757 -414 C 734 -430 708 -442 680 -450 C 651 -458 622 -463 592 -463 C 544 -463 498 -452 455 -431 C 412 -409 383 -374 367 -324 Z" unicode="" />
<glyph horiz-adv-x="1464" d="M -16 0 L 4 88 L 279 109 L 532 1305 L 266 1327 L 283 1413 L 1423 1413 L 1462 969 L 1380 946 L 1282 1303 L 694 1303 L 584 784 L 940 784 L 1032 1030 L 1116 1030 L 989 438 L 907 438 L 920 672 L 559 672 L 440 111 L 1077 111 L 1327 561 L 1405 545 L 1182 0 L -16 0 Z M 940 1569 L 655 1831 L 655 1837 L 825 1837 L 1054 1575 L 1054 1569 L 940 1569 Z" unicode="" />
<glyph horiz-adv-x="1464" d="M 1298 1831 L 1014 1569 L 895 1569 L 895 1575 L 1124 1837 L 1298 1837 L 1298 1831 Z M -16 0 L 4 88 L 279 109 L 532 1305 L 266 1327 L 283 1413 L 1423 1413 L 1462 969 L 1380 946 L 1282 1303 L 694 1303 L 584 784 L 940 784 L 1032 1030 L 1116 1030 L 989 438 L 907 438 L 920 672 L 559 672 L 440 111 L 1077 111 L 1327 561 L 1405 545 L 1182 0 L -16 0 Z" unicode="" />
<glyph horiz-adv-x="1464" d="M 1206 1569 L 1030 1747 L 813 1569 L 680 1569 L 682 1575 L 991 1839 L 1096 1839 L 1339 1575 L 1337 1569 L 1206 1569 Z M -16 0 L 4 88 L 279 109 L 532 1305 L 266 1327 L 283 1413 L 1423 1413 L 1462 969 L 1380 946 L 1282 1303 L 694 1303 L 584 784 L 940 784 L 1032 1030 L 1116 1030 L 989 438 L 907 438 L 920 672 L 559 672 L 440 111 L 1077 111 L 1327 561 L 1405 545 L 1182 0 L -16 0 Z" unicode="" />
<glyph horiz-adv-x="1464" d="M 1190 1597 C 1162 1597 1139 1606 1119 1625 C 1099 1643 1090 1666 1090 1694 C 1090 1729 1101 1759 1125 1783 C 1148 1807 1177 1819 1211 1819 C 1239 1819 1263 1809 1282 1790 C 1301 1770 1311 1746 1311 1718 C 1311 1685 1298 1657 1274 1633 C 1249 1609 1221 1597 1190 1597 Z M 838 1597 C 810 1597 787 1606 767 1625 C 747 1643 738 1666 738 1694 C 738 1729 749 1759 772 1783 C 795 1807 824 1819 859 1819 C 887 1819 911 1809 930 1790 C 949 1770 959 1746 959 1718 C 959 1685 946 1657 922 1633 C 897 1609 869 1597 838 1597 Z M -16 0 L 4 88 L 279 109 L 532 1305 L 266 1327 L 283 1413 L 1423 1413 L 1462 969 L 1380 946 L 1282 1303 L 694 1303 L 584 784 L 940 784 L 1032 1030 L 1116 1030 L 989 438 L 907 438 L 920 672 L 559 672 L 440 111 L 1077 111 L 1327 561 L 1405 545 L 1182 0 L -16 0 Z" unicode="" />
<glyph horiz-adv-x="879" d="M 692 0 L -16 0 L 4 88 L 276 109 L 532 1305 L 266 1327 L 283 1413 L 991 1413 L 973 1327 L 696 1305 L 440 109 L 709 88 L 692 0 Z M 617 1569 L 332 1831 L 332 1837 L 502 1837 L 731 1575 L 731 1569 L 617 1569 Z" unicode="" />
<glyph horiz-adv-x="879" d="M 692 0 L -16 0 L 4 88 L 276 109 L 532 1305 L 266 1327 L 283 1413 L 991 1413 L 973 1327 L 696 1305 L 440 109 L 709 88 L 692 0 Z M 974 1831 L 690 1569 L 571 1569 L 571 1575 L 800 1837 L 974 1837 L 974 1831 Z" unicode="" />
<glyph horiz-adv-x="879" d="M 692 0 L -16 0 L 4 88 L 276 109 L 532 1305 L 266 1327 L 283 1413 L 991 1413 L 973 1327 L 696 1305 L 440 109 L 709 88 L 692 0 Z M 882 1569 L 706 1747 L 489 1569 L 356 1569 L 358 1575 L 667 1839 L 772 1839 L 1015 1575 L 1013 1569 L 882 1569 Z" unicode="" />
<glyph horiz-adv-x="879" d="M 692 0 L -16 0 L 4 88 L 276 109 L 532 1305 L 266 1327 L 283 1413 L 991 1413 L 973 1327 L 696 1305 L 440 109 L 709 88 L 692 0 Z M 866 1597 C 838 1597 815 1606 795 1625 C 775 1643 766 1666 766 1694 C 766 1729 777 1759 801 1783 C 824 1807 853 1819 887 1819 C 915 1819 939 1809 958 1790 C 977 1770 987 1746 987 1718 C 987 1685 974 1657 950 1633 C 925 1609 897 1597 866 1597 Z M 514 1597 C 486 1597 463 1606 443 1625 C 423 1643 414 1666 414 1694 C 414 1729 425 1759 448 1783 C 471 1807 500 1819 535 1819 C 563 1819 587 1809 606 1790 C 625 1770 635 1746 635 1718 C 635 1685 622 1657 598 1633 C 573 1609 545 1597 514 1597 Z" unicode="" />
<glyph horiz-adv-x="1528" d="M -16 0 L 4 88 L 279 109 L 397 672 L 119 672 L 143 778 L 420 778 L 532 1305 L 266 1327 L 283 1413 L 993 1413 C 1073 1413 1145 1398 1209 1370 C 1273 1341 1326 1301 1370 1251 C 1414 1201 1447 1141 1470 1072 C 1493 1003 1505 928 1505 848 C 1505 722 1485 607 1445 503 C 1405 399 1351 311 1282 237 C 1212 162 1129 104 1033 62 C 937 20 832 0 719 0 L -16 0 Z M 963 1298 L 694 1298 L 584 778 L 881 778 L 858 672 L 561 672 L 442 115 L 735 115 C 821 115 901 133 975 170 C 1049 206 1114 258 1170 324 C 1225 389 1269 466 1301 556 C 1333 645 1350 742 1350 848 C 1350 913 1341 973 1324 1028 C 1306 1082 1281 1130 1248 1170 C 1214 1210 1174 1242 1126 1264 C 1078 1286 1024 1298 963 1298 Z" unicode="" />
<glyph horiz-adv-x="1735" d="M 1266 -12 L 1149 -12 L 653 1200 L 422 109 L 698 88 L 680 0 L -16 0 L 4 88 L 276 109 L 530 1305 L 266 1327 L 283 1413 L 993 1413 L 977 1327 L 745 1309 L 1182 231 L 1427 1305 L 1149 1327 L 1167 1413 L 1845 1413 L 1829 1327 L 1571 1305 L 1266 -12 Z M 909 1610 L 813 1610 C 822 1679 846 1730 885 1762 C 924 1794 970 1810 1022 1810 C 1050 1810 1076 1803 1099 1790 C 1122 1777 1144 1763 1166 1748 C 1187 1732 1208 1717 1229 1704 C 1250 1691 1272 1685 1296 1685 C 1319 1685 1339 1695 1357 1715 C 1375 1735 1386 1761 1392 1794 L 1486 1794 C 1482 1757 1473 1726 1459 1700 C 1445 1674 1430 1652 1412 1636 C 1393 1620 1373 1608 1352 1601 C 1331 1594 1310 1591 1288 1591 C 1258 1591 1231 1597 1207 1610 C 1183 1623 1160 1638 1138 1655 C 1116 1671 1096 1685 1076 1698 C 1056 1711 1035 1718 1013 1718 C 985 1718 962 1708 943 1688 C 924 1668 913 1642 909 1610 Z" unicode="" />
<glyph horiz-adv-x="1516" d="M 276 132 C 226 187 187 252 161 328 C 134 404 121 488 121 580 C 121 686 138 791 172 895 C 206 999 255 1092 321 1175 C 385 1257 464 1323 558 1375 C 651 1426 757 1452 877 1452 C 968 1452 1049 1436 1121 1406 C 1193 1375 1254 1332 1304 1277 C 1353 1221 1391 1156 1418 1080 C 1444 1004 1458 921 1458 831 C 1458 725 1440 620 1406 516 C 1371 412 1321 318 1256 236 C 1191 152 1112 85 1019 34 C 925 -17 820 -43 702 -43 C 612 -43 531 -27 459 3 C 387 33 326 76 276 132 Z M 436 1089 C 385 1018 346 938 319 850 C 292 761 279 672 279 582 C 279 501 289 429 310 367 C 331 305 361 253 399 211 C 437 168 483 136 535 115 C 587 94 645 84 709 84 C 800 84 882 105 956 149 C 1030 193 1092 249 1143 319 C 1193 389 1232 468 1259 557 C 1286 645 1300 735 1300 825 C 1300 905 1289 977 1267 1039 C 1245 1101 1216 1154 1178 1196 C 1139 1238 1093 1270 1041 1292 C 989 1314 932 1325 870 1325 C 777 1325 694 1303 621 1259 C 548 1215 486 1159 436 1089 Z M 864 1569 L 579 1831 L 579 1837 L 749 1837 L 978 1575 L 978 1569 L 864 1569 Z" unicode="" />
<glyph horiz-adv-x="1516" d="M 1222 1831 L 938 1569 L 819 1569 L 819 1575 L 1048 1837 L 1222 1837 L 1222 1831 Z M 276 132 C 226 187 187 252 161 328 C 134 404 121 488 121 580 C 121 686 138 791 172 895 C 206 999 255 1092 321 1175 C 385 1257 464 1323 558 1375 C 651 1426 757 1452 877 1452 C 968 1452 1049 1436 1121 1406 C 1193 1375 1254 1332 1304 1277 C 1353 1221 1391 1156 1418 1080 C 1444 1004 1458 921 1458 831 C 1458 725 1440 620 1406 516 C 1371 412 1321 318 1256 236 C 1191 152 1112 85 1019 34 C 925 -17 820 -43 702 -43 C 612 -43 531 -27 459 3 C 387 33 326 76 276 132 Z M 436 1089 C 385 1018 346 938 319 850 C 292 761 279 672 279 582 C 279 501 289 429 310 367 C 331 305 361 253 399 211 C 437 168 483 136 535 115 C 587 94 645 84 709 84 C 800 84 882 105 956 149 C 1030 193 1092 249 1143 319 C 1193 389 1232 468 1259 557 C 1286 645 1300 735 1300 825 C 1300 905 1289 977 1267 1039 C 1245 1101 1216 1154 1178 1196 C 1139 1238 1093 1270 1041 1292 C 989 1314 932 1325 870 1325 C 777 1325 694 1303 621 1259 C 548 1215 486 1159 436 1089 Z" unicode="" />
<glyph horiz-adv-x="1516" d="M 1128 1569 L 952 1747 L 735 1569 L 602 1569 L 604 1575 L 913 1839 L 1018 1839 L 1261 1575 L 1259 1569 L 1128 1569 Z M 276 132 C 226 187 187 252 161 328 C 134 404 121 488 121 580 C 121 686 138 791 172 895 C 206 999 255 1092 321 1175 C 385 1257 464 1323 558 1375 C 651 1426 757 1452 877 1452 C 968 1452 1049 1436 1121 1406 C 1193 1375 1254 1332 1304 1277 C 1353 1221 1391 1156 1418 1080 C 1444 1004 1458 921 1458 831 C 1458 725 1440 620 1406 516 C 1371 412 1321 318 1256 236 C 1191 152 1112 85 1019 34 C 925 -17 820 -43 702 -43 C 612 -43 531 -27 459 3 C 387 33 326 76 276 132 Z M 436 1089 C 385 1018 346 938 319 850 C 292 761 279 672 279 582 C 279 501 289 429 310 367 C 331 305 361 253 399 211 C 437 168 483 136 535 115 C 587 94 645 84 709 84 C 800 84 882 105 956 149 C 1030 193 1092 249 1143 319 C 1193 389 1232 468 1259 557 C 1286 645 1300 735 1300 825 C 1300 905 1289 977 1267 1039 C 1245 1101 1216 1154 1178 1196 C 1139 1238 1093 1270 1041 1292 C 989 1314 932 1325 870 1325 C 777 1325 694 1303 621 1259 C 548 1215 486 1159 436 1089 Z" unicode="" />
<glyph horiz-adv-x="1516" d="M 276 132 C 226 187 187 252 161 328 C 134 404 121 488 121 580 C 121 686 138 791 172 895 C 206 999 255 1092 321 1175 C 385 1257 464 1323 558 1375 C 651 1426 757 1452 877 1452 C 968 1452 1049 1436 1121 1406 C 1193 1375 1254 1332 1304 1277 C 1353 1221 1391 1156 1418 1080 C 1444 1004 1458 921 1458 831 C 1458 725 1440 620 1406 516 C 1371 412 1321 318 1256 236 C 1191 152 1112 85 1019 34 C 925 -17 820 -43 702 -43 C 612 -43 531 -27 459 3 C 387 33 326 76 276 132 Z M 436 1089 C 385 1018 346 938 319 850 C 292 761 279 672 279 582 C 279 501 289 429 310 367 C 331 305 361 253 399 211 C 437 168 483 136 535 115 C 587 94 645 84 709 84 C 800 84 882 105 956 149 C 1030 193 1092 249 1143 319 C 1193 389 1232 468 1259 557 C 1286 645 1300 735 1300 825 C 1300 905 1289 977 1267 1039 C 1245 1101 1216 1154 1178 1196 C 1139 1238 1093 1270 1041 1292 C 989 1314 932 1325 870 1325 C 777 1325 694 1303 621 1259 C 548 1215 486 1159 436 1089 Z M 717 1610 L 621 1610 C 630 1679 654 1730 693 1762 C 732 1794 778 1810 830 1810 C 858 1810 884 1803 907 1790 C 930 1777 952 1763 974 1748 C 995 1732 1016 1717 1037 1704 C 1058 1691 1080 1685 1104 1685 C 1127 1685 1147 1695 1165 1715 C 1183 1735 1194 1761 1200 1794 L 1294 1794 C 1290 1757 1281 1726 1267 1700 C 1253 1674 1238 1652 1220 1636 C 1201 1620 1181 1608 1160 1601 C 1139 1594 1118 1591 1096 1591 C 1066 1591 1039 1597 1015 1610 C 991 1623 968 1638 946 1655 C 924 1671 904 1685 884 1698 C 864 1711 843 1718 821 1718 C 793 1718 770 1708 751 1688 C 732 1668 721 1642 717 1610 Z" unicode="" />
<glyph horiz-adv-x="1516" d="M 1112 1597 C 1084 1597 1061 1606 1041 1625 C 1021 1643 1012 1666 1012 1694 C 1012 1729 1023 1759 1047 1783 C 1070 1807 1099 1819 1133 1819 C 1161 1819 1185 1809 1204 1790 C 1223 1770 1233 1746 1233 1718 C 1233 1685 1220 1657 1196 1633 C 1171 1609 1143 1597 1112 1597 Z M 760 1597 C 732 1597 709 1606 689 1625 C 669 1643 660 1666 660 1694 C 660 1729 671 1759 694 1783 C 717 1807 746 1819 781 1819 C 809 1819 833 1809 852 1790 C 871 1770 881 1746 881 1718 C 881 1685 868 1657 844 1633 C 819 1609 791 1597 760 1597 Z M 276 132 C 226 187 187 252 161 328 C 134 404 121 488 121 580 C 121 686 138 791 172 895 C 206 999 255 1092 321 1175 C 385 1257 464 1323 558 1375 C 651 1426 757 1452 877 1452 C 968 1452 1049 1436 1121 1406 C 1193 1375 1254 1332 1304 1277 C 1353 1221 1391 1156 1418 1080 C 1444 1004 1458 921 1458 831 C 1458 725 1440 620 1406 516 C 1371 412 1321 318 1256 236 C 1191 152 1112 85 1019 34 C 925 -17 820 -43 702 -43 C 612 -43 531 -27 459 3 C 387 33 326 76 276 132 Z M 436 1089 C 385 1018 346 938 319 850 C 292 761 279 672 279 582 C 279 501 289 429 310 367 C 331 305 361 253 399 211 C 437 168 483 136 535 115 C 587 94 645 84 709 84 C 800 84 882 105 956 149 C 1030 193 1092 249 1143 319 C 1193 389 1232 468 1259 557 C 1286 645 1300 735 1300 825 C 1300 905 1289 977 1267 1039 C 1245 1101 1216 1154 1178 1196 C 1139 1238 1093 1270 1041 1292 C 989 1314 932 1325 870 1325 C 777 1325 694 1303 621 1259 C 548 1215 486 1159 436 1089 Z" unicode="" />
<glyph horiz-adv-x="969" d="M 768 330 L 678 258 L 465 545 L 127 256 L 63 336 L 403 627 L 184 922 L 272 995 L 489 700 L 836 997 L 899 918 L 551 618 L 768 330 Z" unicode="" />
<glyph horiz-adv-x="1516" d="M 702 -43 C 612 -43 531 -27 459 3 C 387 33 326 76 276 132 C 274 134 272 136 270 138 C 268 140 266 143 264 146 L 104 0 L -57 0 L 202 236 C 175 284 155 336 141 394 C 127 452 121 514 121 580 C 121 686 138 791 172 895 C 206 999 255 1092 321 1175 C 385 1257 464 1323 558 1375 C 651 1426 757 1452 877 1452 C 968 1452 1049 1436 1121 1406 C 1193 1375 1254 1332 1304 1277 C 1306 1273 1309 1270 1312 1266 C 1315 1262 1318 1259 1322 1255 L 1495 1413 L 1657 1413 L 1382 1163 C 1406 1116 1425 1065 1438 1009 C 1451 953 1458 893 1458 831 C 1458 725 1440 620 1406 516 C 1371 412 1321 318 1256 236 C 1191 152 1112 85 1019 34 C 925 -17 820 -43 702 -43 Z M 279 582 C 279 536 282 493 289 453 C 295 413 305 376 319 343 L 1211 1154 C 1205 1161 1200 1168 1194 1175 C 1188 1182 1183 1189 1178 1196 C 1139 1238 1093 1270 1041 1292 C 989 1314 932 1325 870 1325 C 777 1325 694 1303 621 1259 C 548 1215 486 1159 436 1089 C 385 1018 346 938 319 850 C 292 761 279 672 279 582 Z M 709 84 C 800 84 882 105 956 149 C 1030 193 1092 249 1143 319 C 1193 389 1232 468 1259 557 C 1286 645 1300 735 1300 825 C 1300 869 1296 910 1290 948 C 1284 986 1275 1022 1263 1054 L 373 244 C 377 238 381 232 385 227 C 389 221 394 216 399 211 C 437 168 483 136 535 115 C 587 94 645 84 709 84 Z" unicode="" />
<glyph horiz-adv-x="1591" d="M 287 481 L 463 1305 L 219 1327 L 238 1413 L 909 1413 L 891 1327 L 623 1307 L 449 477 C 444 459 441 441 439 423 C 437 405 436 387 436 371 C 436 285 462 216 514 166 C 566 115 643 90 745 90 C 851 90 938 118 1004 175 C 1070 231 1115 312 1139 416 L 1327 1307 L 1063 1327 L 1083 1413 L 1749 1413 L 1731 1327 L 1479 1305 L 1282 389 C 1250 245 1185 137 1085 65 C 985 -6 865 -43 725 -43 C 658 -43 597 -34 542 -16 C 486 1 438 26 398 60 C 358 94 327 135 305 184 C 283 233 272 290 272 354 C 272 375 273 396 276 418 C 278 439 282 460 287 481 Z M 971 1569 L 686 1831 L 686 1837 L 856 1837 L 1085 1575 L 1085 1569 L 971 1569 Z" unicode="" />
<glyph horiz-adv-x="1591" d="M 1329 1831 L 1045 1569 L 926 1569 L 926 1575 L 1155 1837 L 1329 1837 L 1329 1831 Z M 287 481 L 463 1305 L 219 1327 L 238 1413 L 909 1413 L 891 1327 L 623 1307 L 449 477 C 444 459 441 441 439 423 C 437 405 436 387 436 371 C 436 285 462 216 514 166 C 566 115 643 90 745 90 C 851 90 938 118 1004 175 C 1070 231 1115 312 1139 416 L 1327 1307 L 1063 1327 L 1083 1413 L 1749 1413 L 1731 1327 L 1479 1305 L 1282 389 C 1250 245 1185 137 1085 65 C 985 -6 865 -43 725 -43 C 658 -43 597 -34 542 -16 C 486 1 438 26 398 60 C 358 94 327 135 305 184 C 283 233 272 290 272 354 C 272 375 273 396 276 418 C 278 439 282 460 287 481 Z" unicode="" />
<glyph horiz-adv-x="1591" d="M 1235 1569 L 1059 1747 L 842 1569 L 709 1569 L 711 1575 L 1020 1839 L 1125 1839 L 1368 1575 L 1366 1569 L 1235 1569 Z M 287 481 L 463 1305 L 219 1327 L 238 1413 L 909 1413 L 891 1327 L 623 1307 L 449 477 C 444 459 441 441 439 423 C 437 405 436 387 436 371 C 436 285 462 216 514 166 C 566 115 643 90 745 90 C 851 90 938 118 1004 175 C 1070 231 1115 312 1139 416 L 1327 1307 L 1063 1327 L 1083 1413 L 1749 1413 L 1731 1327 L 1479 1305 L 1282 389 C 1250 245 1185 137 1085 65 C 985 -6 865 -43 725 -43 C 658 -43 597 -34 542 -16 C 486 1 438 26 398 60 C 358 94 327 135 305 184 C 283 233 272 290 272 354 C 272 375 273 396 276 418 C 278 439 282 460 287 481 Z" unicode="" />
<glyph horiz-adv-x="1591" d="M 1218 1597 C 1190 1597 1167 1606 1147 1625 C 1127 1643 1118 1666 1118 1694 C 1118 1729 1129 1759 1153 1783 C 1176 1807 1205 1819 1239 1819 C 1267 1819 1291 1809 1310 1790 C 1329 1770 1339 1746 1339 1718 C 1339 1685 1326 1657 1302 1633 C 1277 1609 1249 1597 1218 1597 Z M 866 1597 C 838 1597 815 1606 795 1625 C 775 1643 766 1666 766 1694 C 766 1729 777 1759 800 1783 C 823 1807 852 1819 887 1819 C 915 1819 939 1809 958 1790 C 977 1770 987 1746 987 1718 C 987 1685 974 1657 950 1633 C 925 1609 897 1597 866 1597 Z M 287 481 L 463 1305 L 219 1327 L 238 1413 L 909 1413 L 891 1327 L 623 1307 L 449 477 C 444 459 441 441 439 423 C 437 405 436 387 436 371 C 436 285 462 216 514 166 C 566 115 643 90 745 90 C 851 90 938 118 1004 175 C 1070 231 1115 312 1139 416 L 1327 1307 L 1063 1327 L 1083 1413 L 1749 1413 L 1731 1327 L 1479 1305 L 1282 389 C 1250 245 1185 137 1085 65 C 985 -6 865 -43 725 -43 C 658 -43 597 -34 542 -16 C 486 1 438 26 398 60 C 358 94 327 135 305 184 C 283 233 272 290 272 354 C 272 375 273 396 276 418 C 278 439 282 460 287 481 Z" unicode="" />
<glyph horiz-adv-x="1427" d="M 961 0 L 260 0 L 279 88 L 553 109 L 643 530 L 412 1305 L 219 1327 L 238 1413 L 801 1413 L 782 1327 L 563 1307 L 745 659 L 750 659 L 1204 1307 L 997 1327 L 1014 1413 L 1585 1413 L 1567 1327 L 1362 1305 L 803 530 L 715 109 L 979 88 L 961 0 Z M 1243 1831 L 959 1569 L 840 1569 L 840 1575 L 1069 1837 L 1243 1837 L 1243 1831 Z" unicode="" />
<glyph horiz-adv-x="1436" d="M 887 317 L 485 317 L 440 111 L 727 88 L 709 0 L -16 0 L 4 88 L 279 111 L 532 1300 L 266 1327 L 283 1413 L 1010 1413 L 991 1327 L 694 1300 L 653 1114 L 1063 1114 C 1120 1114 1170 1104 1214 1086 C 1258 1068 1294 1042 1322 1010 C 1350 977 1370 939 1383 895 C 1396 851 1401 804 1399 756 C 1396 686 1381 624 1353 570 C 1325 516 1288 470 1242 433 C 1196 395 1143 367 1082 347 C 1021 327 956 317 887 317 Z M 1004 1004 L 631 1004 L 508 428 L 877 428 C 927 428 973 435 1017 451 C 1061 467 1098 489 1130 518 C 1162 546 1187 581 1206 621 C 1225 661 1235 707 1237 758 C 1239 828 1220 887 1179 934 C 1138 980 1080 1004 1004 1004 Z" unicode="" />
<glyph horiz-adv-x="1415" d="M 158 969 L 371 999 L 395 1108 C 426 1244 485 1348 573 1420 C 661 1492 768 1528 895 1528 C 949 1528 1000 1521 1048 1508 C 1096 1495 1137 1476 1171 1451 C 1205 1425 1232 1394 1252 1356 C 1272 1318 1282 1275 1282 1227 C 1282 1179 1273 1138 1257 1105 C 1241 1071 1220 1043 1194 1020 C 1168 996 1139 976 1107 959 C 1075 942 1043 927 1012 913 C 986 902 961 891 938 879 C 914 867 894 855 877 843 C 859 829 844 814 833 796 C 822 778 817 758 817 735 C 817 702 828 675 852 654 C 875 633 904 614 939 597 C 973 579 1011 562 1052 544 C 1093 526 1131 506 1166 482 C 1201 458 1230 428 1253 394 C 1276 359 1288 316 1288 264 C 1288 219 1279 177 1261 139 C 1243 101 1219 68 1187 42 C 1155 15 1116 -5 1071 -20 C 1026 -35 976 -43 922 -43 C 866 -43 815 -35 770 -19 C 724 -3 686 17 656 43 C 625 69 601 97 585 129 C 569 160 561 192 561 225 C 561 252 567 273 581 289 C 595 305 613 313 635 313 C 662 313 680 303 689 285 C 697 267 702 246 702 223 C 702 198 708 176 721 157 C 734 138 751 122 772 110 C 792 96 816 86 843 79 C 869 71 896 68 924 68 C 989 68 1042 85 1084 119 C 1126 153 1147 198 1147 254 C 1147 281 1141 304 1131 324 C 1121 344 1107 361 1091 377 C 1073 391 1054 404 1032 415 C 1010 426 987 437 965 449 C 922 466 883 483 849 501 C 814 519 784 538 760 559 C 735 579 716 603 702 631 C 688 658 682 691 682 729 C 682 768 688 802 702 830 C 716 858 734 882 757 902 C 779 922 805 939 834 953 C 862 967 891 981 920 995 C 947 1007 974 1020 1000 1033 C 1026 1046 1050 1061 1071 1078 C 1091 1095 1108 1116 1120 1140 C 1132 1164 1139 1193 1139 1227 C 1139 1288 1116 1334 1071 1365 C 1026 1395 965 1411 889 1411 C 795 1411 720 1385 664 1333 C 608 1281 569 1206 547 1108 L 276 -96 C 264 -153 248 -205 228 -253 C 208 -300 184 -340 156 -374 C 127 -407 92 -433 52 -451 C 12 -469 -35 -479 -90 -479 C -146 -479 -190 -469 -224 -450 C -257 -431 -274 -404 -274 -369 C -274 -345 -266 -325 -251 -309 C -236 -293 -218 -285 -197 -285 C -183 -285 -172 -288 -164 -295 C -156 -301 -147 -308 -137 -316 C -127 -324 -116 -331 -104 -338 C -92 -344 -75 -348 -53 -348 C -27 -348 -4 -342 14 -330 C 33 -318 50 -299 66 -273 C 80 -246 94 -211 106 -169 C 118 -127 131 -76 145 -16 L 346 891 L 141 891 L 158 969 Z" unicode="" />
<glyph horiz-adv-x="1231" d="M 244 397 C 244 297 265 219 309 161 C 353 103 416 74 500 74 C 573 74 633 89 680 121 C 726 152 763 191 791 238 L 901 739 C 886 799 857 846 813 880 C 769 914 712 932 641 932 C 589 932 539 919 491 893 C 443 867 401 830 365 783 C 327 736 298 680 276 614 C 254 548 244 476 244 397 Z M 784 113 C 740 61 690 22 633 -3 C 575 -28 515 -41 451 -41 C 393 -41 342 -30 298 -9 C 253 12 216 42 187 80 C 157 118 135 163 119 215 C 103 267 96 323 96 385 C 96 485 111 575 141 656 C 171 737 211 807 261 865 C 311 923 368 968 432 1000 C 496 1032 562 1049 631 1049 C 704 1049 768 1033 822 1001 C 876 969 916 926 944 870 L 1055 1024 L 1124 1024 L 946 260 C 942 242 939 225 937 210 C 935 194 934 180 934 168 C 934 138 940 115 954 99 C 968 83 990 76 1022 76 C 1035 76 1050 77 1066 81 C 1082 84 1099 89 1118 96 L 1098 23 C 1080 10 1058 0 1032 -7 C 1006 -14 977 -18 946 -18 C 897 -18 859 -7 833 14 C 806 36 790 69 784 113 Z M 649 1180 L 364 1442 L 364 1448 L 534 1448 L 763 1186 L 763 1180 L 649 1180 Z" unicode="" />
<glyph horiz-adv-x="1231" d="M 244 397 C 244 297 265 219 309 161 C 353 103 416 74 500 74 C 573 74 633 89 680 121 C 726 152 763 191 791 238 L 901 739 C 886 799 857 846 813 880 C 769 914 712 932 641 932 C 589 932 539 919 491 893 C 443 867 401 830 365 783 C 327 736 298 680 276 614 C 254 548 244 476 244 397 Z M 784 113 C 740 61 690 22 633 -3 C 575 -28 515 -41 451 -41 C 393 -41 342 -30 298 -9 C 253 12 216 42 187 80 C 157 118 135 163 119 215 C 103 267 96 323 96 385 C 96 485 111 575 141 656 C 171 737 211 807 261 865 C 311 923 368 968 432 1000 C 496 1032 562 1049 631 1049 C 704 1049 768 1033 822 1001 C 876 969 916 926 944 870 L 1055 1024 L 1124 1024 L 946 260 C 942 242 939 225 937 210 C 935 194 934 180 934 168 C 934 138 940 115 954 99 C 968 83 990 76 1022 76 C 1035 76 1050 77 1066 81 C 1082 84 1099 89 1118 96 L 1098 23 C 1080 10 1058 0 1032 -7 C 1006 -14 977 -18 946 -18 C 897 -18 859 -7 833 14 C 806 36 790 69 784 113 Z M 1007 1442 L 723 1180 L 604 1180 L 604 1186 L 833 1448 L 1007 1448 L 1007 1442 Z" unicode="" />
<glyph horiz-adv-x="1231" d="M 244 397 C 244 297 265 219 309 161 C 353 103 416 74 500 74 C 573 74 633 89 680 121 C 726 152 763 191 791 238 L 901 739 C 886 799 857 846 813 880 C 769 914 712 932 641 932 C 589 932 539 919 491 893 C 443 867 401 830 365 783 C 327 736 298 680 276 614 C 254 548 244 476 244 397 Z M 784 113 C 740 61 690 22 633 -3 C 575 -28 515 -41 451 -41 C 393 -41 342 -30 298 -9 C 253 12 216 42 187 80 C 157 118 135 163 119 215 C 103 267 96 323 96 385 C 96 485 111 575 141 656 C 171 737 211 807 261 865 C 311 923 368 968 432 1000 C 496 1032 562 1049 631 1049 C 704 1049 768 1033 822 1001 C 876 969 916 926 944 870 L 1055 1024 L 1124 1024 L 946 260 C 942 242 939 225 937 210 C 935 194 934 180 934 168 C 934 138 940 115 954 99 C 968 83 990 76 1022 76 C 1035 76 1050 77 1066 81 C 1082 84 1099 89 1118 96 L 1098 23 C 1080 10 1058 0 1032 -7 C 1006 -14 977 -18 946 -18 C 897 -18 859 -7 833 14 C 806 36 790 69 784 113 Z M 915 1180 L 739 1358 L 522 1180 L 389 1180 L 391 1186 L 700 1450 L 805 1450 L 1048 1186 L 1046 1180 L 915 1180 Z" unicode="" />
<glyph horiz-adv-x="1231" d="M 244 397 C 244 297 265 219 309 161 C 353 103 416 74 500 74 C 573 74 633 89 680 121 C 726 152 763 191 791 238 L 901 739 C 886 799 857 846 813 880 C 769 914 712 932 641 932 C 589 932 539 919 491 893 C 443 867 401 830 365 783 C 327 736 298 680 276 614 C 254 548 244 476 244 397 Z M 784 113 C 740 61 690 22 633 -3 C 575 -28 515 -41 451 -41 C 393 -41 342 -30 298 -9 C 253 12 216 42 187 80 C 157 118 135 163 119 215 C 103 267 96 323 96 385 C 96 485 111 575 141 656 C 171 737 211 807 261 865 C 311 923 368 968 432 1000 C 496 1032 562 1049 631 1049 C 704 1049 768 1033 822 1001 C 876 969 916 926 944 870 L 1055 1024 L 1124 1024 L 946 260 C 942 242 939 225 937 210 C 935 194 934 180 934 168 C 934 138 940 115 954 99 C 968 83 990 76 1022 76 C 1035 76 1050 77 1066 81 C 1082 84 1099 89 1118 96 L 1098 23 C 1080 10 1058 0 1032 -7 C 1006 -14 977 -18 946 -18 C 897 -18 859 -7 833 14 C 806 36 790 69 784 113 Z M 502 1221 L 406 1221 C 415 1290 439 1341 478 1373 C 517 1405 563 1421 615 1421 C 643 1421 669 1414 692 1401 C 715 1388 737 1374 759 1359 C 780 1343 801 1328 822 1315 C 843 1302 865 1296 889 1296 C 912 1296 932 1306 950 1326 C 968 1346 979 1372 985 1405 L 1079 1405 C 1075 1368 1066 1337 1052 1311 C 1038 1285 1023 1263 1005 1247 C 986 1231 966 1219 945 1212 C 924 1205 903 1202 881 1202 C 851 1202 824 1208 800 1221 C 776 1234 753 1249 731 1266 C 709 1282 689 1296 669 1309 C 649 1322 628 1329 606 1329 C 578 1329 555 1319 536 1299 C 517 1279 506 1253 502 1221 Z" unicode="" />
<glyph horiz-adv-x="1231" d="M 244 397 C 244 297 265 219 309 161 C 353 103 416 74 500 74 C 573 74 633 89 680 121 C 726 152 763 191 791 238 L 901 739 C 886 799 857 846 813 880 C 769 914 712 932 641 932 C 589 932 539 919 491 893 C 443 867 401 830 365 783 C 327 736 298 680 276 614 C 254 548 244 476 244 397 Z M 784 113 C 740 61 690 22 633 -3 C 575 -28 515 -41 451 -41 C 393 -41 342 -30 298 -9 C 253 12 216 42 187 80 C 157 118 135 163 119 215 C 103 267 96 323 96 385 C 96 485 111 575 141 656 C 171 737 211 807 261 865 C 311 923 368 968 432 1000 C 496 1032 562 1049 631 1049 C 704 1049 768 1033 822 1001 C 876 969 916 926 944 870 L 1055 1024 L 1124 1024 L 946 260 C 942 242 939 225 937 210 C 935 194 934 180 934 168 C 934 138 940 115 954 99 C 968 83 990 76 1022 76 C 1035 76 1050 77 1066 81 C 1082 84 1099 89 1118 96 L 1098 23 C 1080 10 1058 0 1032 -7 C 1006 -14 977 -18 946 -18 C 897 -18 859 -7 833 14 C 806 36 790 69 784 113 Z M 899 1208 C 871 1208 848 1217 828 1236 C 808 1254 799 1277 799 1305 C 799 1340 810 1370 834 1394 C 857 1418 886 1430 920 1430 C 948 1430 972 1420 991 1401 C 1010 1381 1020 1357 1020 1329 C 1020 1296 1007 1268 983 1244 C 958 1220 930 1208 899 1208 Z M 547 1208 C 519 1208 496 1217 476 1236 C 456 1254 447 1277 447 1305 C 447 1340 458 1370 481 1394 C 504 1418 533 1430 568 1430 C 596 1430 620 1420 639 1401 C 658 1381 668 1357 668 1329 C 668 1296 655 1268 631 1244 C 606 1220 578 1208 547 1208 Z" unicode="" />
<glyph horiz-adv-x="1231" d="M 244 397 C 244 297 265 219 309 161 C 353 103 416 74 500 74 C 573 74 633 89 680 121 C 726 152 763 191 791 238 L 901 739 C 886 799 857 846 813 880 C 769 914 712 932 641 932 C 589 932 539 919 491 893 C 443 867 401 830 365 783 C 327 736 298 680 276 614 C 254 548 244 476 244 397 Z M 784 113 C 740 61 690 22 633 -3 C 575 -28 515 -41 451 -41 C 393 -41 342 -30 298 -9 C 253 12 216 42 187 80 C 157 118 135 163 119 215 C 103 267 96 323 96 385 C 96 485 111 575 141 656 C 171 737 211 807 261 865 C 311 923 368 968 432 1000 C 496 1032 562 1049 631 1049 C 704 1049 768 1033 822 1001 C 876 969 916 926 944 870 L 1055 1024 L 1124 1024 L 946 260 C 942 242 939 225 937 210 C 935 194 934 180 934 168 C 934 138 940 115 954 99 C 968 83 990 76 1022 76 C 1035 76 1050 77 1066 81 C 1082 84 1099 89 1118 96 L 1098 23 C 1080 10 1058 0 1032 -7 C 1006 -14 977 -18 946 -18 C 897 -18 859 -7 833 14 C 806 36 790 69 784 113 Z M 606 1466 C 624 1484 646 1498 670 1508 C 694 1518 719 1524 745 1524 C 792 1524 832 1509 865 1479 C 898 1449 914 1408 913 1356 C 911 1326 905 1298 894 1273 C 883 1247 868 1225 850 1207 C 832 1189 810 1174 786 1164 C 761 1154 736 1149 710 1149 C 658 1149 616 1165 586 1198 C 555 1230 541 1271 544 1321 C 545 1349 551 1376 562 1402 C 573 1427 588 1448 606 1466 Z M 716 1217 C 748 1217 776 1230 800 1256 C 823 1282 835 1314 837 1352 C 838 1376 830 1400 814 1422 C 798 1444 774 1456 743 1456 C 709 1456 681 1443 657 1417 C 633 1391 622 1359 622 1321 C 622 1287 630 1261 647 1243 C 664 1225 687 1217 716 1217 Z" unicode="" />
<glyph horiz-adv-x="1704" d="M 1487 766 C 1487 820 1467 862 1427 892 C 1387 921 1336 936 1274 936 C 1228 936 1184 927 1140 909 C 1096 891 1057 865 1021 831 C 985 797 953 755 927 706 C 900 657 881 601 870 539 C 910 533 948 528 985 525 C 1021 521 1056 520 1090 520 C 1159 520 1218 526 1268 539 C 1318 552 1359 570 1392 592 C 1424 614 1447 640 1463 670 C 1479 700 1487 732 1487 766 Z M 752 215 C 740 243 731 273 725 305 C 719 337 717 370 717 406 C 717 415 717 424 717 433 C 717 441 717 451 719 461 C 700 463 682 464 664 465 C 646 466 628 467 610 467 C 488 467 392 446 321 405 C 250 364 215 307 215 233 C 215 180 233 140 270 114 C 307 87 354 74 410 74 C 479 74 544 88 604 118 C 664 147 713 179 752 215 Z M 188 825 C 188 844 192 861 202 877 C 212 893 224 908 238 924 C 276 967 322 999 377 1019 C 431 1039 489 1049 551 1049 C 583 1049 617 1045 651 1039 C 685 1033 717 1023 748 1009 C 778 994 804 975 828 952 C 852 929 870 900 883 866 C 935 923 995 968 1064 1000 C 1132 1032 1206 1049 1286 1049 C 1346 1049 1397 1040 1439 1024 C 1481 1007 1516 986 1544 961 C 1571 935 1591 905 1603 873 C 1615 841 1622 808 1622 776 C 1622 728 1611 683 1590 640 C 1569 596 1537 558 1495 526 C 1453 493 1399 467 1333 448 C 1267 429 1191 420 1104 420 C 1062 420 1022 422 982 427 C 942 431 901 436 860 442 L 860 408 C 860 302 888 220 946 162 C 1003 103 1085 74 1192 74 C 1257 74 1315 87 1366 114 C 1417 141 1461 182 1497 236 L 1569 188 C 1533 118 1481 63 1413 21 C 1345 -20 1261 -41 1161 -41 C 1083 -41 1011 -25 947 6 C 882 37 830 83 791 145 C 770 122 745 99 717 77 C 688 54 656 34 622 17 C 586 0 548 -13 507 -24 C 466 -35 423 -41 379 -41 C 287 -41 214 -18 158 27 C 102 73 74 136 74 217 C 74 279 87 333 115 377 C 142 421 178 458 224 486 C 270 514 323 534 385 547 C 446 560 511 567 580 567 C 604 567 628 566 654 564 C 679 562 705 559 731 557 L 754 666 C 757 681 759 696 761 710 C 763 724 764 738 764 752 C 764 806 747 850 714 884 C 680 917 629 934 559 934 C 522 934 486 927 452 913 C 418 899 387 875 360 840 C 345 819 331 800 319 783 C 307 766 288 758 264 758 C 242 758 223 764 209 776 C 195 788 188 805 188 825 Z" unicode="" />
<glyph horiz-adv-x="1110" d="M 207 -324 L 272 -279 C 284 -314 304 -340 330 -358 C 356 -376 391 -385 436 -385 C 467 -385 497 -376 525 -358 C 553 -340 567 -312 567 -274 C 567 -248 557 -227 538 -211 C 519 -194 490 -186 451 -186 C 445 -186 439 -186 433 -187 C 427 -187 420 -188 414 -190 L 389 -170 L 455 -35 C 347 -19 260 25 194 101 C 128 177 96 277 96 401 C 96 497 111 584 141 664 C 171 744 211 812 263 869 C 314 925 373 969 441 1001 C 509 1033 579 1049 653 1049 C 749 1049 828 1028 891 987 C 953 946 996 892 1020 825 C 1024 811 1028 797 1030 785 C 1032 772 1034 760 1034 750 C 1034 722 1026 701 1010 686 C 994 671 975 664 952 664 C 922 664 902 673 894 693 C 885 713 878 736 874 764 C 864 818 839 860 799 890 C 759 919 709 934 649 934 C 593 934 540 920 491 893 C 442 865 399 828 362 780 C 325 732 296 676 275 610 C 254 544 244 473 244 397 C 244 297 270 219 322 161 C 374 103 450 74 549 74 C 619 74 681 91 735 126 C 789 160 836 213 874 283 L 956 240 C 916 154 861 86 790 37 C 719 -12 636 -38 541 -41 L 496 -129 L 498 -129 C 542 -129 582 -140 618 -164 C 654 -187 672 -222 672 -268 C 672 -299 665 -327 651 -352 C 637 -376 619 -397 597 -414 C 574 -430 548 -442 520 -450 C 491 -458 462 -463 432 -463 C 384 -463 338 -452 295 -431 C 252 -409 223 -374 207 -324 Z" unicode="" />
<glyph horiz-adv-x="1077" d="M 862 770 C 862 820 842 861 803 891 C 764 921 714 936 653 936 C 605 936 559 926 513 906 C 467 886 425 858 388 820 C 350 782 319 737 293 683 C 267 629 250 567 242 498 C 341 489 429 490 507 501 C 584 512 649 531 701 557 C 753 583 793 614 821 650 C 848 686 862 726 862 770 Z M 921 961 C 947 935 967 905 980 873 C 992 841 999 808 999 776 C 999 714 980 658 943 606 C 905 554 853 510 785 476 C 717 441 637 416 543 400 C 449 384 347 382 236 393 C 237 292 267 214 326 158 C 384 102 465 74 569 74 C 635 74 693 87 744 114 C 794 141 838 182 874 236 L 946 188 C 910 118 858 63 790 21 C 722 -20 637 -41 537 -41 C 476 -41 419 -30 365 -10 C 311 9 264 39 224 78 C 184 116 152 162 129 218 C 105 273 94 336 94 406 C 94 505 110 595 142 675 C 174 755 216 822 270 878 C 323 933 384 975 453 1005 C 522 1034 594 1049 668 1049 C 726 1049 776 1040 818 1024 C 860 1007 894 986 921 961 Z M 639 1180 L 354 1442 L 354 1448 L 524 1448 L 753 1186 L 753 1180 L 639 1180 Z" unicode="" />
<glyph horiz-adv-x="1077" d="M 997 1442 L 713 1180 L 594 1180 L 594 1186 L 823 1448 L 997 1448 L 997 1442 Z M 862 770 C 862 820 842 861 803 891 C 764 921 714 936 653 936 C 605 936 559 926 513 906 C 467 886 425 858 388 820 C 350 782 319 737 293 683 C 267 629 250 567 242 498 C 341 489 429 490 507 501 C 584 512 649 531 701 557 C 753 583 793 614 821 650 C 848 686 862 726 862 770 Z M 921 961 C 947 935 967 905 980 873 C 992 841 999 808 999 776 C 999 714 980 658 943 606 C 905 554 853 510 785 476 C 717 441 637 416 543 400 C 449 384 347 382 236 393 C 237 292 267 214 326 158 C 384 102 465 74 569 74 C 635 74 693 87 744 114 C 794 141 838 182 874 236 L 946 188 C 910 118 858 63 790 21 C 722 -20 637 -41 537 -41 C 476 -41 419 -30 365 -10 C 311 9 264 39 224 78 C 184 116 152 162 129 218 C 105 273 94 336 94 406 C 94 505 110 595 142 675 C 174 755 216 822 270 878 C 323 933 384 975 453 1005 C 522 1034 594 1049 668 1049 C 726 1049 776 1040 818 1024 C 860 1007 894 986 921 961 Z" unicode="" />
<glyph horiz-adv-x="1077" d="M 905 1180 L 729 1358 L 512 1180 L 379 1180 L 381 1186 L 690 1450 L 795 1450 L 1038 1186 L 1036 1180 L 905 1180 Z M 862 770 C 862 820 842 861 803 891 C 764 921 714 936 653 936 C 605 936 559 926 513 906 C 467 886 425 858 388 820 C 350 782 319 737 293 683 C 267 629 250 567 242 498 C 341 489 429 490 507 501 C 584 512 649 531 701 557 C 753 583 793 614 821 650 C 848 686 862 726 862 770 Z M 921 961 C 947 935 967 905 980 873 C 992 841 999 808 999 776 C 999 714 980 658 943 606 C 905 554 853 510 785 476 C 717 441 637 416 543 400 C 449 384 347 382 236 393 C 237 292 267 214 326 158 C 384 102 465 74 569 74 C 635 74 693 87 744 114 C 794 141 838 182 874 236 L 946 188 C 910 118 858 63 790 21 C 722 -20 637 -41 537 -41 C 476 -41 419 -30 365 -10 C 311 9 264 39 224 78 C 184 116 152 162 129 218 C 105 273 94 336 94 406 C 94 505 110 595 142 675 C 174 755 216 822 270 878 C 323 933 384 975 453 1005 C 522 1034 594 1049 668 1049 C 726 1049 776 1040 818 1024 C 860 1007 894 986 921 961 Z" unicode="" />
<glyph horiz-adv-x="1077" d="M 888 1208 C 860 1208 837 1217 817 1236 C 797 1254 788 1277 788 1305 C 788 1340 799 1370 823 1394 C 846 1418 875 1430 909 1430 C 937 1430 961 1420 980 1401 C 999 1381 1009 1357 1009 1329 C 1009 1296 996 1268 972 1244 C 947 1220 919 1208 888 1208 Z M 536 1208 C 508 1208 485 1217 465 1236 C 445 1254 436 1277 436 1305 C 436 1340 447 1370 470 1394 C 493 1418 522 1430 557 1430 C 585 1430 609 1420 628 1401 C 647 1381 657 1357 657 1329 C 657 1296 644 1268 620 1244 C 595 1220 567 1208 536 1208 Z M 862 770 C 862 820 842 861 803 891 C 764 921 714 936 653 936 C 605 936 559 926 513 906 C 467 886 425 858 388 820 C 350 782 319 737 293 683 C 267 629 250 567 242 498 C 341 489 429 490 507 501 C 584 512 649 531 701 557 C 753 583 793 614 821 650 C 848 686 862 726 862 770 Z M 921 961 C 947 935 967 905 980 873 C 992 841 999 808 999 776 C 999 714 980 658 943 606 C 905 554 853 510 785 476 C 717 441 637 416 543 400 C 449 384 347 382 236 393 C 237 292 267 214 326 158 C 384 102 465 74 569 74 C 635 74 693 87 744 114 C 794 141 838 182 874 236 L 946 188 C 910 118 858 63 790 21 C 722 -20 637 -41 537 -41 C 476 -41 419 -30 365 -10 C 311 9 264 39 224 78 C 184 116 152 162 129 218 C 105 273 94 336 94 406 C 94 505 110 595 142 675 C 174 755 216 822 270 878 C 323 933 384 975 453 1005 C 522 1034 594 1049 668 1049 C 726 1049 776 1040 818 1024 C 860 1007 894 986 921 961 Z" unicode="" />
<glyph horiz-adv-x="659" d="M 197 272 L 342 860 C 298 845 253 837 207 836 C 161 834 120 839 82 850 L 98 915 C 159 912 221 922 283 944 C 345 966 404 1001 459 1049 L 537 1030 L 348 260 C 345 244 342 229 340 216 C 337 203 336 190 336 178 C 336 148 343 123 357 104 C 371 85 398 76 438 76 C 451 76 466 77 482 81 C 498 84 515 89 535 96 L 516 23 C 498 10 475 0 448 -7 C 421 -14 392 -18 360 -18 C 293 -18 247 -1 221 31 C 195 63 182 105 182 156 C 182 174 183 193 185 213 C 187 233 191 252 197 272 Z M 432 1180 L 147 1442 L 147 1448 L 317 1448 L 546 1186 L 546 1180 L 432 1180 Z" unicode="" />
<glyph horiz-adv-x="659" d="M 790 1442 L 506 1180 L 387 1180 L 387 1186 L 616 1448 L 790 1448 L 790 1442 Z M 197 272 L 342 860 C 298 845 253 837 207 836 C 161 834 120 839 82 850 L 98 915 C 159 912 221 922 283 944 C 345 966 404 1001 459 1049 L 537 1030 L 348 260 C 345 244 342 229 340 216 C 337 203 336 190 336 178 C 336 148 343 123 357 104 C 371 85 398 76 438 76 C 451 76 466 77 482 81 C 498 84 515 89 535 96 L 516 23 C 498 10 475 0 448 -7 C 421 -14 392 -18 360 -18 C 293 -18 247 -1 221 31 C 195 63 182 105 182 156 C 182 174 183 193 185 213 C 187 233 191 252 197 272 Z" unicode="" />
<glyph horiz-adv-x="659" d="M 698 1180 L 522 1358 L 305 1180 L 172 1180 L 174 1186 L 483 1450 L 588 1450 L 831 1186 L 829 1180 L 698 1180 Z M 197 272 L 342 860 C 298 845 253 837 207 836 C 161 834 120 839 82 850 L 98 915 C 159 912 221 922 283 944 C 345 966 404 1001 459 1049 L 537 1030 L 348 260 C 345 244 342 229 340 216 C 337 203 336 190 336 178 C 336 148 343 123 357 104 C 371 85 398 76 438 76 C 451 76 466 77 482 81 C 498 84 515 89 535 96 L 516 23 C 498 10 475 0 448 -7 C 421 -14 392 -18 360 -18 C 293 -18 247 -1 221 31 C 195 63 182 105 182 156 C 182 174 183 193 185 213 C 187 233 191 252 197 272 Z" unicode="" />
<glyph horiz-adv-x="659" d="M 682 1208 C 654 1208 631 1217 611 1236 C 591 1254 582 1277 582 1305 C 582 1340 593 1370 617 1394 C 640 1418 669 1430 703 1430 C 731 1430 755 1420 774 1401 C 793 1381 803 1357 803 1329 C 803 1296 790 1268 766 1244 C 741 1220 713 1208 682 1208 Z M 330 1208 C 302 1208 279 1217 259 1236 C 239 1254 230 1277 230 1305 C 230 1340 241 1370 264 1394 C 287 1418 316 1430 351 1430 C 379 1430 403 1420 422 1401 C 441 1381 451 1357 451 1329 C 451 1296 438 1268 414 1244 C 389 1220 361 1208 330 1208 Z M 197 272 L 342 860 C 298 845 253 837 207 836 C 161 834 120 839 82 850 L 98 915 C 159 912 221 922 283 944 C 345 966 404 1001 459 1049 L 537 1030 L 348 260 C 345 244 342 229 340 216 C 337 203 336 190 336 178 C 336 148 343 123 357 104 C 371 85 398 76 438 76 C 451 76 466 77 482 81 C 498 84 515 89 535 96 L 516 23 C 498 10 475 0 448 -7 C 421 -14 392 -18 360 -18 C 293 -18 247 -1 221 31 C 195 63 182 105 182 156 C 182 174 183 193 185 213 C 187 233 191 252 197 272 Z" unicode="" />
<glyph horiz-adv-x="1202" d="M 561 1167 L 807 1303 C 771 1335 731 1364 687 1388 C 643 1412 591 1432 532 1448 L 578 1546 C 647 1530 711 1507 770 1479 C 828 1450 880 1414 926 1370 L 1192 1518 L 1214 1462 L 969 1325 C 1021 1263 1060 1191 1088 1107 C 1116 1023 1130 925 1130 815 C 1130 715 1118 615 1094 514 C 1070 412 1034 321 985 241 C 935 159 873 93 798 42 C 723 -9 634 -35 532 -35 C 468 -35 409 -24 356 -4 C 302 16 257 46 219 85 C 181 123 151 171 130 227 C 108 283 98 346 98 416 C 98 503 112 584 141 659 C 169 734 208 799 258 854 C 307 908 364 951 430 982 C 495 1012 565 1028 639 1028 C 729 1028 801 1008 857 969 C 912 930 953 880 981 819 C 979 909 968 991 948 1065 C 928 1139 894 1204 848 1260 L 584 1112 L 561 1167 Z M 242 418 C 242 312 267 230 317 170 C 367 110 440 80 535 80 C 593 80 647 94 696 123 C 745 151 789 191 827 243 C 865 293 897 355 921 427 C 945 499 963 578 973 664 C 949 745 911 808 858 852 C 804 896 737 918 655 918 C 599 918 546 906 496 882 C 446 858 403 824 365 780 C 326 736 296 684 274 622 C 252 560 242 492 242 418 Z" unicode="" />
<glyph horiz-adv-x="1337" d="M 135 0 L 336 860 C 292 845 247 837 201 836 C 155 834 114 839 76 850 L 90 915 C 154 912 215 922 275 944 C 335 966 392 1001 446 1049 L 518 1032 L 461 786 C 517 861 584 924 664 974 C 744 1024 828 1049 918 1049 C 1006 1049 1071 1025 1112 977 C 1153 929 1174 867 1174 791 C 1174 762 1171 732 1165 701 C 1159 670 1152 638 1143 606 L 1065 332 C 1055 298 1047 267 1041 240 C 1035 212 1032 188 1032 168 C 1032 138 1038 115 1051 99 C 1064 83 1088 76 1122 76 C 1135 76 1150 77 1166 81 C 1182 84 1199 89 1219 96 L 1200 23 C 1182 10 1160 0 1132 -7 C 1104 -14 1074 -18 1042 -18 C 983 -18 941 -3 917 25 C 893 53 881 92 881 141 C 881 164 884 192 890 226 C 896 259 902 289 909 317 L 985 596 C 993 626 999 654 1004 682 C 1009 709 1012 734 1012 758 C 1012 805 1000 844 976 875 C 952 906 908 922 846 922 C 809 922 772 915 735 902 C 698 889 662 871 628 849 C 592 826 559 799 528 767 C 496 735 468 700 442 664 L 291 0 L 135 0 Z M 688 1221 L 592 1221 C 601 1290 625 1341 664 1373 C 703 1405 749 1421 801 1421 C 829 1421 855 1414 878 1401 C 901 1388 923 1374 945 1359 C 966 1343 987 1328 1008 1315 C 1029 1302 1051 1296 1075 1296 C 1098 1296 1118 1306 1136 1326 C 1154 1346 1165 1372 1171 1405 L 1265 1405 C 1261 1368 1252 1337 1238 1311 C 1224 1285 1209 1263 1191 1247 C 1172 1231 1152 1219 1131 1212 C 1110 1205 1089 1202 1067 1202 C 1037 1202 1010 1208 986 1221 C 962 1234 939 1249 917 1266 C 895 1282 875 1296 855 1309 C 835 1322 814 1329 792 1329 C 764 1329 741 1319 722 1299 C 703 1279 692 1253 688 1221 Z" unicode="" />
<glyph horiz-adv-x="1192" d="M 219 79 C 181 117 151 166 129 224 C 107 282 96 348 96 422 C 96 508 110 588 139 664 C 167 740 207 806 259 863 C 310 919 370 964 439 998 C 508 1032 584 1049 666 1049 C 728 1049 786 1038 839 1018 C 891 997 937 967 975 928 C 1013 888 1042 839 1064 782 C 1085 724 1096 659 1096 586 C 1096 501 1081 421 1053 345 C 1024 269 985 202 935 145 C 885 87 825 42 755 9 C 685 -24 610 -41 528 -41 C 465 -41 407 -30 355 -10 C 302 9 257 39 219 79 Z M 357 777 C 321 730 293 675 273 613 C 253 551 244 486 244 420 C 244 305 270 218 323 160 C 376 101 446 72 532 72 C 594 72 650 86 700 114 C 750 142 794 179 830 226 C 866 273 894 328 914 390 C 934 452 944 516 944 584 C 944 694 918 780 866 842 C 814 903 743 934 655 934 C 593 934 537 919 487 891 C 437 862 393 824 357 777 Z M 664 1180 L 379 1442 L 379 1448 L 549 1448 L 778 1186 L 778 1180 L 664 1180 Z" unicode="" />
<glyph horiz-adv-x="1192" d="M 1001 1442 L 717 1180 L 598 1180 L 598 1186 L 827 1448 L 1001 1448 L 1001 1442 Z M 219 79 C 181 117 151 166 129 224 C 107 282 96 348 96 422 C 96 508 110 588 139 664 C 167 740 207 806 259 863 C 310 919 370 964 439 998 C 508 1032 584 1049 666 1049 C 728 1049 786 1038 839 1018 C 891 997 937 967 975 928 C 1013 888 1042 839 1064 782 C 1085 724 1096 659 1096 586 C 1096 501 1081 421 1053 345 C 1024 269 985 202 935 145 C 885 87 825 42 755 9 C 685 -24 610 -41 528 -41 C 465 -41 407 -30 355 -10 C 302 9 257 39 219 79 Z M 357 777 C 321 730 293 675 273 613 C 253 551 244 486 244 420 C 244 305 270 218 323 160 C 376 101 446 72 532 72 C 594 72 650 86 700 114 C 750 142 794 179 830 226 C 866 273 894 328 914 390 C 934 452 944 516 944 584 C 944 694 918 780 866 842 C 814 903 743 934 655 934 C 593 934 537 919 487 891 C 437 862 393 824 357 777 Z" unicode="" />
<glyph horiz-adv-x="1192" d="M 928 1180 L 752 1358 L 535 1180 L 402 1180 L 404 1186 L 713 1450 L 818 1450 L 1061 1186 L 1059 1180 L 928 1180 Z M 219 79 C 181 117 151 166 129 224 C 107 282 96 348 96 422 C 96 508 110 588 139 664 C 167 740 207 806 259 863 C 310 919 370 964 439 998 C 508 1032 584 1049 666 1049 C 728 1049 786 1038 839 1018 C 891 997 937 967 975 928 C 1013 888 1042 839 1064 782 C 1085 724 1096 659 1096 586 C 1096 501 1081 421 1053 345 C 1024 269 985 202 935 145 C 885 87 825 42 755 9 C 685 -24 610 -41 528 -41 C 465 -41 407 -30 355 -10 C 302 9 257 39 219 79 Z M 357 777 C 321 730 293 675 273 613 C 253 551 244 486 244 420 C 244 305 270 218 323 160 C 376 101 446 72 532 72 C 594 72 650 86 700 114 C 750 142 794 179 830 226 C 866 273 894 328 914 390 C 934 452 944 516 944 584 C 944 694 918 780 866 842 C 814 903 743 934 655 934 C 593 934 537 919 487 891 C 437 862 393 824 357 777 Z" unicode="" />
<glyph horiz-adv-x="1192" d="M 219 79 C 181 117 151 166 129 224 C 107 282 96 348 96 422 C 96 508 110 588 139 664 C 167 740 207 806 259 863 C 310 919 370 964 439 998 C 508 1032 584 1049 666 1049 C 728 1049 786 1038 839 1018 C 891 997 937 967 975 928 C 1013 888 1042 839 1064 782 C 1085 724 1096 659 1096 586 C 1096 501 1081 421 1053 345 C 1024 269 985 202 935 145 C 885 87 825 42 755 9 C 685 -24 610 -41 528 -41 C 465 -41 407 -30 355 -10 C 302 9 257 39 219 79 Z M 357 777 C 321 730 293 675 273 613 C 253 551 244 486 244 420 C 244 305 270 218 323 160 C 376 101 446 72 532 72 C 594 72 650 86 700 114 C 750 142 794 179 830 226 C 866 273 894 328 914 390 C 934 452 944 516 944 584 C 944 694 918 780 866 842 C 814 903 743 934 655 934 C 593 934 537 919 487 891 C 437 862 393 824 357 777 Z M 510 1221 L 414 1221 C 423 1290 447 1341 486 1373 C 525 1405 571 1421 623 1421 C 651 1421 677 1414 700 1401 C 723 1388 745 1374 767 1359 C 788 1343 809 1328 830 1315 C 851 1302 873 1296 897 1296 C 920 1296 940 1306 958 1326 C 976 1346 987 1372 993 1405 L 1087 1405 C 1083 1368 1074 1337 1060 1311 C 1046 1285 1031 1263 1013 1247 C 994 1231 974 1219 953 1212 C 932 1205 911 1202 889 1202 C 859 1202 832 1208 808 1221 C 784 1234 761 1249 739 1266 C 717 1282 697 1296 677 1309 C 657 1322 636 1329 614 1329 C 586 1329 563 1319 544 1299 C 525 1279 514 1253 510 1221 Z" unicode="" />
<glyph horiz-adv-x="1192" d="M 907 1208 C 879 1208 856 1217 836 1236 C 816 1254 807 1277 807 1305 C 807 1340 818 1370 842 1394 C 865 1418 894 1430 928 1430 C 956 1430 980 1420 999 1401 C 1018 1381 1028 1357 1028 1329 C 1028 1296 1015 1268 991 1244 C 966 1220 938 1208 907 1208 Z M 555 1208 C 527 1208 504 1217 484 1236 C 464 1254 455 1277 455 1305 C 455 1340 466 1370 489 1394 C 512 1418 541 1430 576 1430 C 604 1430 628 1420 647 1401 C 666 1381 676 1357 676 1329 C 676 1296 663 1268 639 1244 C 614 1220 586 1208 555 1208 Z M 219 79 C 181 117 151 166 129 224 C 107 282 96 348 96 422 C 96 508 110 588 139 664 C 167 740 207 806 259 863 C 310 919 370 964 439 998 C 508 1032 584 1049 666 1049 C 728 1049 786 1038 839 1018 C 891 997 937 967 975 928 C 1013 888 1042 839 1064 782 C 1085 724 1096 659 1096 586 C 1096 501 1081 421 1053 345 C 1024 269 985 202 935 145 C 885 87 825 42 755 9 C 685 -24 610 -41 528 -41 C 465 -41 407 -30 355 -10 C 302 9 257 39 219 79 Z M 357 777 C 321 730 293 675 273 613 C 253 551 244 486 244 420 C 244 305 270 218 323 160 C 376 101 446 72 532 72 C 594 72 650 86 700 114 C 750 142 794 179 830 226 C 866 273 894 328 914 390 C 934 452 944 516 944 584 C 944 694 918 780 866 842 C 814 903 743 934 655 934 C 593 934 537 919 487 891 C 437 862 393 824 357 777 Z" unicode="" />
<glyph horiz-adv-x="969" d="M 530 815 C 502 815 479 823 461 841 C 443 859 434 881 434 909 C 434 940 445 968 469 992 C 492 1016 520 1028 553 1028 C 580 1028 602 1018 620 1000 C 638 982 647 959 647 932 C 647 900 635 873 612 850 C 589 826 562 815 530 815 Z M 109 582 L 131 688 L 858 688 L 836 582 L 109 582 Z M 414 240 C 386 240 363 248 345 266 C 326 284 317 306 317 334 C 317 365 328 393 352 417 C 375 441 403 453 436 453 C 463 453 485 443 503 425 C 521 406 530 383 530 356 C 530 324 518 297 495 274 C 472 251 445 240 414 240 Z" unicode="" />
<glyph horiz-adv-x="1192" d="M 528 -41 C 465 -41 407 -30 355 -10 C 302 9 257 39 219 79 C 215 82 212 85 209 89 C 205 93 202 97 199 101 L 82 0 L -53 0 L 151 174 C 133 208 120 245 110 287 C 100 329 96 374 96 422 C 96 508 110 588 139 664 C 167 740 207 806 259 863 C 310 919 370 964 439 998 C 508 1032 584 1049 666 1049 C 728 1049 786 1038 839 1018 C 891 997 937 967 975 928 C 979 923 983 918 987 914 C 991 909 996 904 1000 899 L 1122 1004 L 1255 1004 L 1046 825 C 1062 791 1074 755 1083 715 C 1091 675 1096 632 1096 586 C 1096 501 1081 421 1053 345 C 1024 269 985 202 935 145 C 885 87 825 42 755 9 C 685 -24 610 -41 528 -41 Z M 244 420 C 244 392 245 365 249 340 C 252 315 257 292 264 271 L 892 807 C 867 847 834 879 794 901 C 754 923 707 934 655 934 C 593 934 537 919 487 891 C 437 862 393 824 357 777 C 321 730 293 675 273 613 C 253 551 244 486 244 420 Z M 532 72 C 594 72 650 86 700 114 C 750 142 794 179 830 226 C 866 273 894 328 914 390 C 934 452 944 516 944 584 C 944 609 942 633 939 657 C 936 680 932 702 927 723 L 302 188 C 326 149 358 120 398 101 C 438 81 482 72 532 72 Z" unicode="" />
<glyph horiz-adv-x="1284" d="M 840 145 C 789 85 729 39 660 7 C 591 -25 526 -41 465 -41 C 366 -41 293 -15 247 37 C 201 89 178 156 178 238 C 178 272 181 308 188 346 C 195 384 203 422 213 461 L 311 860 C 269 845 225 837 181 837 C 137 836 95 840 57 850 L 72 915 C 137 912 200 922 260 945 C 320 967 376 1002 428 1049 L 506 1030 L 362 444 C 354 414 347 384 343 354 C 338 324 336 295 336 268 C 336 242 339 217 345 194 C 351 171 361 151 376 133 C 390 115 409 101 434 91 C 458 81 488 76 524 76 C 586 76 647 93 706 128 C 765 162 814 206 852 258 L 1024 1004 L 1180 1004 L 1008 260 C 1003 242 999 225 997 210 C 994 195 993 181 993 168 C 993 137 1000 114 1016 99 C 1031 83 1054 76 1085 76 C 1097 76 1111 77 1127 81 C 1143 84 1160 89 1180 96 L 1161 23 C 1142 10 1120 0 1094 -7 C 1068 -14 1040 -18 1010 -18 C 950 -18 907 -3 882 26 C 856 55 842 95 840 145 Z M 735 1180 L 450 1442 L 450 1448 L 620 1448 L 849 1186 L 849 1180 L 735 1180 Z" unicode="" />
<glyph horiz-adv-x="1284" d="M 1095 1442 L 811 1180 L 692 1180 L 692 1186 L 921 1448 L 1095 1448 L 1095 1442 Z M 840 145 C 789 85 729 39 660 7 C 591 -25 526 -41 465 -41 C 366 -41 293 -15 247 37 C 201 89 178 156 178 238 C 178 272 181 308 188 346 C 195 384 203 422 213 461 L 311 860 C 269 845 225 837 181 837 C 137 836 95 840 57 850 L 72 915 C 137 912 200 922 260 945 C 320 967 376 1002 428 1049 L 506 1030 L 362 444 C 354 414 347 384 343 354 C 338 324 336 295 336 268 C 336 242 339 217 345 194 C 351 171 361 151 376 133 C 390 115 409 101 434 91 C 458 81 488 76 524 76 C 586 76 647 93 706 128 C 765 162 814 206 852 258 L 1024 1004 L 1180 1004 L 1008 260 C 1003 242 999 225 997 210 C 994 195 993 181 993 168 C 993 137 1000 114 1016 99 C 1031 83 1054 76 1085 76 C 1097 76 1111 77 1127 81 C 1143 84 1160 89 1180 96 L 1161 23 C 1142 10 1120 0 1094 -7 C 1068 -14 1040 -18 1010 -18 C 950 -18 907 -3 882 26 C 856 55 842 95 840 145 Z" unicode="" />
<glyph horiz-adv-x="1284" d="M 1001 1180 L 825 1358 L 608 1180 L 475 1180 L 477 1186 L 786 1450 L 891 1450 L 1134 1186 L 1132 1180 L 1001 1180 Z M 840 145 C 789 85 729 39 660 7 C 591 -25 526 -41 465 -41 C 366 -41 293 -15 247 37 C 201 89 178 156 178 238 C 178 272 181 308 188 346 C 195 384 203 422 213 461 L 311 860 C 269 845 225 837 181 837 C 137 836 95 840 57 850 L 72 915 C 137 912 200 922 260 945 C 320 967 376 1002 428 1049 L 506 1030 L 362 444 C 354 414 347 384 343 354 C 338 324 336 295 336 268 C 336 242 339 217 345 194 C 351 171 361 151 376 133 C 390 115 409 101 434 91 C 458 81 488 76 524 76 C 586 76 647 93 706 128 C 765 162 814 206 852 258 L 1024 1004 L 1180 1004 L 1008 260 C 1003 242 999 225 997 210 C 994 195 993 181 993 168 C 993 137 1000 114 1016 99 C 1031 83 1054 76 1085 76 C 1097 76 1111 77 1127 81 C 1143 84 1160 89 1180 96 L 1161 23 C 1142 10 1120 0 1094 -7 C 1068 -14 1040 -18 1010 -18 C 950 -18 907 -3 882 26 C 856 55 842 95 840 145 Z" unicode="" />
<glyph horiz-adv-x="1284" d="M 985 1208 C 957 1208 934 1217 914 1236 C 894 1254 885 1277 885 1305 C 885 1340 896 1370 920 1394 C 943 1418 972 1430 1006 1430 C 1034 1430 1058 1420 1077 1401 C 1096 1381 1106 1357 1106 1329 C 1106 1296 1093 1268 1069 1244 C 1044 1220 1016 1208 985 1208 Z M 633 1208 C 605 1208 582 1217 562 1236 C 542 1254 533 1277 533 1305 C 533 1340 544 1370 567 1394 C 590 1418 619 1430 654 1430 C 682 1430 706 1420 725 1401 C 744 1381 754 1357 754 1329 C 754 1296 741 1268 717 1244 C 692 1220 664 1208 633 1208 Z M 840 145 C 789 85 729 39 660 7 C 591 -25 526 -41 465 -41 C 366 -41 293 -15 247 37 C 201 89 178 156 178 238 C 178 272 181 308 188 346 C 195 384 203 422 213 461 L 311 860 C 269 845 225 837 181 837 C 137 836 95 840 57 850 L 72 915 C 137 912 200 922 260 945 C 320 967 376 1002 428 1049 L 506 1030 L 362 444 C 354 414 347 384 343 354 C 338 324 336 295 336 268 C 336 242 339 217 345 194 C 351 171 361 151 376 133 C 390 115 409 101 434 91 C 458 81 488 76 524 76 C 586 76 647 93 706 128 C 765 162 814 206 852 258 L 1024 1004 L 1180 1004 L 1008 260 C 1003 242 999 225 997 210 C 994 195 993 181 993 168 C 993 137 1000 114 1016 99 C 1031 83 1054 76 1085 76 C 1097 76 1111 77 1127 81 C 1143 84 1160 89 1180 96 L 1161 23 C 1142 10 1120 0 1094 -7 C 1068 -14 1040 -18 1010 -18 C 950 -18 907 -3 882 26 C 856 55 842 95 840 145 Z" unicode="" />
<glyph horiz-adv-x="1249" d="M 825 127 C 779 75 725 35 664 7 C 603 -21 540 -35 475 -35 C 423 -35 378 -27 340 -13 C 302 0 270 21 246 47 C 221 73 203 103 191 137 C 179 171 174 208 174 250 C 174 282 178 318 186 356 C 194 394 203 431 213 467 L 309 860 C 265 845 221 837 176 836 C 131 834 90 839 53 850 L 68 915 C 133 912 196 922 257 945 C 317 967 374 1002 426 1049 L 506 1030 L 365 451 C 357 423 351 394 345 363 C 339 332 336 303 336 276 C 336 223 351 178 382 140 C 412 102 465 84 539 84 C 608 84 669 100 722 133 C 774 165 818 207 854 258 L 1022 1004 L 1180 1004 L 948 -2 C 914 -150 851 -267 760 -351 C 668 -435 548 -477 399 -477 C 324 -477 257 -466 199 -446 C 140 -426 91 -394 53 -350 C 41 -335 31 -319 23 -303 C 15 -287 12 -271 12 -256 C 12 -230 20 -209 36 -194 C 52 -179 72 -172 96 -172 C 111 -172 123 -175 132 -182 C 140 -189 149 -198 157 -209 C 164 -219 171 -231 178 -244 C 184 -257 193 -271 203 -285 C 219 -303 241 -320 269 -336 C 297 -352 339 -360 395 -360 C 439 -360 481 -355 522 -345 C 563 -335 601 -316 637 -289 C 672 -261 704 -224 732 -176 C 760 -128 782 -66 799 8 L 825 127 Z M 1095 1442 L 811 1180 L 692 1180 L 692 1186 L 921 1448 L 1095 1448 L 1095 1442 Z" unicode="" />
<glyph horiz-adv-x="1251" d="M 1006 608 C 1006 712 982 791 934 845 C 886 899 825 926 752 926 C 727 926 700 922 672 914 C 643 906 614 894 586 877 C 557 859 529 836 502 808 C 474 780 450 745 428 705 L 330 281 C 344 215 374 164 419 128 C 464 92 522 74 592 74 C 646 74 698 87 748 113 C 798 139 842 175 880 222 C 917 269 947 325 971 391 C 994 456 1006 528 1006 608 Z M -174 -362 L 33 -340 L 426 1354 C 382 1338 336 1330 290 1329 C 244 1327 202 1332 164 1343 L 180 1411 C 246 1407 309 1416 371 1439 C 432 1461 490 1496 545 1544 L 618 1526 L 467 870 C 517 937 573 984 634 1010 C 694 1036 751 1049 803 1049 C 857 1049 906 1038 949 1017 C 992 995 1029 966 1060 929 C 1090 891 1114 845 1130 792 C 1146 739 1155 681 1155 618 C 1155 521 1139 432 1108 352 C 1076 271 1035 202 984 144 C 932 86 874 40 808 8 C 742 -24 673 -41 602 -41 C 528 -41 466 -24 415 8 C 363 40 324 84 297 139 L 186 -338 L 410 -362 L 393 -446 L -193 -446 L -174 -362 Z" unicode="" />
<glyph horiz-adv-x="1249" d="M 825 127 C 779 75 725 35 664 7 C 603 -21 540 -35 475 -35 C 423 -35 378 -27 340 -13 C 302 0 270 21 246 47 C 221 73 203 103 191 137 C 179 171 174 208 174 250 C 174 282 178 318 186 356 C 194 394 203 431 213 467 L 309 860 C 265 845 221 837 176 836 C 131 834 90 839 53 850 L 68 915 C 133 912 196 922 257 945 C 317 967 374 1002 426 1049 L 506 1030 L 365 451 C 357 423 351 394 345 363 C 339 332 336 303 336 276 C 336 223 351 178 382 140 C 412 102 465 84 539 84 C 608 84 669 100 722 133 C 774 165 818 207 854 258 L 1022 1004 L 1180 1004 L 948 -2 C 914 -150 851 -267 760 -351 C 668 -435 548 -477 399 -477 C 324 -477 257 -466 199 -446 C 140 -426 91 -394 53 -350 C 41 -335 31 -319 23 -303 C 15 -287 12 -271 12 -256 C 12 -230 20 -209 36 -194 C 52 -179 72 -172 96 -172 C 111 -172 123 -175 132 -182 C 140 -189 149 -198 157 -209 C 164 -219 171 -231 178 -244 C 184 -257 193 -271 203 -285 C 219 -303 241 -320 269 -336 C 297 -352 339 -360 395 -360 C 439 -360 481 -355 522 -345 C 563 -335 601 -316 637 -289 C 672 -261 704 -224 732 -176 C 760 -128 782 -66 799 8 L 825 127 Z M 987 1208 C 959 1208 936 1217 916 1236 C 896 1254 887 1277 887 1305 C 887 1340 898 1370 922 1394 C 945 1418 974 1430 1008 1430 C 1036 1430 1060 1420 1079 1401 C 1098 1381 1108 1357 1108 1329 C 1108 1296 1095 1268 1071 1244 C 1046 1220 1018 1208 987 1208 Z M 635 1208 C 607 1208 584 1217 564 1236 C 544 1254 535 1277 535 1305 C 535 1340 546 1370 569 1394 C 592 1418 621 1430 656 1430 C 684 1430 708 1420 727 1401 C 746 1381 756 1357 756 1329 C 756 1296 743 1268 719 1244 C 694 1220 666 1208 635 1208 Z" unicode="" />
<glyph horiz-adv-x="1522" d="M 918 1223 L 565 575 L 999 575 L 922 1223 L 918 1223 Z M 569 88 L 551 0 L -63 0 L -45 88 L 158 106 L 823 1305 L 563 1327 L 582 1413 L 1341 1413 L 1323 1327 L 1049 1305 L 1206 104 L 1397 88 L 1378 0 L 774 0 L 793 88 L 1057 109 L 1010 467 L 510 467 L 311 109 L 569 88 Z M 774 1737 L 1277 1737 L 1257 1644 L 755 1644 L 774 1737 Z" unicode="" />
<glyph horiz-adv-x="1231" d="M 244 397 C 244 297 265 219 309 161 C 353 103 416 74 500 74 C 573 74 633 89 680 121 C 726 152 763 191 791 238 L 901 739 C 886 799 857 846 813 880 C 769 914 712 932 641 932 C 589 932 539 919 491 893 C 443 867 401 830 365 783 C 327 736 298 680 276 614 C 254 548 244 476 244 397 Z M 784 113 C 740 61 690 22 633 -3 C 575 -28 515 -41 451 -41 C 393 -41 342 -30 298 -9 C 253 12 216 42 187 80 C 157 118 135 163 119 215 C 103 267 96 323 96 385 C 96 485 111 575 141 656 C 171 737 211 807 261 865 C 311 923 368 968 432 1000 C 496 1032 562 1049 631 1049 C 704 1049 768 1033 822 1001 C 876 969 916 926 944 870 L 1055 1024 L 1124 1024 L 946 260 C 942 242 939 225 937 210 C 935 194 934 180 934 168 C 934 138 940 115 954 99 C 968 83 990 76 1022 76 C 1035 76 1050 77 1066 81 C 1082 84 1099 89 1118 96 L 1098 23 C 1080 10 1058 0 1032 -7 C 1006 -14 977 -18 946 -18 C 897 -18 859 -7 833 14 C 806 36 790 69 784 113 Z M 488 1348 L 991 1348 L 971 1255 L 469 1255 L 488 1348 Z" unicode="" />
<glyph horiz-adv-x="1522" d="M 918 1223 L 565 575 L 999 575 L 922 1223 L 918 1223 Z M 569 88 L 551 0 L -63 0 L -45 88 L 158 106 L 823 1305 L 563 1327 L 582 1413 L 1341 1413 L 1323 1327 L 1049 1305 L 1206 104 L 1397 88 L 1378 0 L 774 0 L 793 88 L 1057 109 L 1010 467 L 510 467 L 311 109 L 569 88 Z M 1242 1827 L 1350 1827 C 1335 1741 1298 1675 1238 1629 C 1178 1583 1100 1560 1002 1560 C 903 1560 829 1583 780 1629 C 731 1675 710 1741 717 1827 L 826 1827 C 822 1767 836 1721 866 1691 C 896 1661 944 1646 1008 1646 C 1074 1646 1126 1661 1165 1691 C 1204 1721 1230 1767 1242 1827 Z" unicode="" />
<glyph horiz-adv-x="1231" d="M 244 397 C 244 297 265 219 309 161 C 353 103 416 74 500 74 C 573 74 633 89 680 121 C 726 152 763 191 791 238 L 901 739 C 886 799 857 846 813 880 C 769 914 712 932 641 932 C 589 932 539 919 491 893 C 443 867 401 830 365 783 C 327 736 298 680 276 614 C 254 548 244 476 244 397 Z M 784 113 C 740 61 690 22 633 -3 C 575 -28 515 -41 451 -41 C 393 -41 342 -30 298 -9 C 253 12 216 42 187 80 C 157 118 135 163 119 215 C 103 267 96 323 96 385 C 96 485 111 575 141 656 C 171 737 211 807 261 865 C 311 923 368 968 432 1000 C 496 1032 562 1049 631 1049 C 704 1049 768 1033 822 1001 C 876 969 916 926 944 870 L 1055 1024 L 1124 1024 L 946 260 C 942 242 939 225 937 210 C 935 194 934 180 934 168 C 934 138 940 115 954 99 C 968 83 990 76 1022 76 C 1035 76 1050 77 1066 81 C 1082 84 1099 89 1118 96 L 1098 23 C 1080 10 1058 0 1032 -7 C 1006 -14 977 -18 946 -18 C 897 -18 859 -7 833 14 C 806 36 790 69 784 113 Z M 955 1438 L 1063 1438 C 1048 1352 1011 1286 951 1240 C 891 1194 813 1171 715 1171 C 616 1171 542 1194 493 1240 C 444 1286 423 1352 430 1438 L 539 1438 C 535 1378 549 1332 579 1302 C 609 1272 657 1257 721 1257 C 787 1257 839 1272 878 1302 C 917 1332 943 1378 955 1438 Z" unicode="" />
<glyph horiz-adv-x="1522" d="M 569 88 L 551 0 L -63 0 L -45 88 L 158 106 L 823 1305 L 563 1327 L 582 1413 L 1341 1413 L 1323 1327 L 1049 1305 L 1206 104 L 1397 88 L 1378 0 L 1200 0 C 1172 -1 1146 -7 1121 -18 C 1095 -29 1073 -45 1055 -65 C 1035 -84 1019 -107 1007 -133 C 995 -159 989 -187 989 -219 C 989 -254 1001 -279 1027 -295 C 1052 -311 1081 -319 1114 -319 C 1134 -319 1153 -316 1171 -312 C 1189 -308 1207 -301 1225 -293 L 1235 -377 C 1211 -387 1187 -395 1163 -401 C 1139 -407 1115 -410 1092 -410 C 1064 -410 1038 -406 1014 -399 C 989 -392 967 -382 948 -368 C 929 -353 914 -335 902 -314 C 890 -293 885 -268 885 -240 C 885 -190 897 -145 923 -103 C 948 -61 981 -27 1022 0 L 774 0 L 793 88 L 1057 109 L 1010 467 L 510 467 L 311 109 L 569 88 Z M 918 1223 L 565 575 L 999 575 L 922 1223 L 918 1223 Z" unicode="" />
<glyph horiz-adv-x="1231" d="M 782 -368 C 763 -353 748 -335 736 -314 C 724 -293 719 -268 719 -240 C 719 -189 732 -143 759 -101 C 785 -59 820 -26 862 -2 C 840 7 822 21 810 41 C 797 60 788 84 784 113 C 740 61 690 22 633 -3 C 575 -28 515 -41 451 -41 C 393 -41 343 -30 299 -9 C 255 12 218 41 188 79 C 158 116 135 160 119 212 C 103 263 96 319 96 379 C 96 478 111 569 141 652 C 171 734 210 805 260 864 C 309 922 366 968 430 1000 C 494 1032 561 1049 631 1049 C 704 1049 768 1033 822 1001 C 876 969 916 926 944 870 L 1055 1024 L 1124 1024 L 946 260 C 942 242 939 225 937 210 C 935 194 934 180 934 168 C 934 138 940 115 954 99 C 968 83 990 76 1022 76 C 1035 76 1050 77 1066 81 C 1082 84 1099 89 1118 96 L 1098 23 C 1085 14 1070 7 1054 1 C 1038 -5 1019 -10 999 -14 C 950 -24 908 -48 874 -87 C 840 -125 823 -169 823 -219 C 823 -254 835 -279 861 -295 C 886 -311 916 -319 950 -319 C 969 -319 988 -316 1006 -312 C 1024 -308 1041 -301 1059 -293 L 1069 -377 C 1045 -387 1021 -395 997 -401 C 973 -407 950 -410 926 -410 C 898 -410 872 -406 848 -399 C 823 -392 801 -382 782 -368 Z M 244 397 C 244 297 265 219 308 161 C 351 103 415 74 500 74 C 573 74 633 89 680 121 C 726 152 763 191 791 238 L 901 739 C 886 799 857 846 813 880 C 769 914 712 932 641 932 C 589 932 539 919 491 893 C 443 867 401 830 365 783 C 327 736 298 680 276 614 C 254 548 244 476 244 397 Z" unicode="" />
<glyph horiz-adv-x="1370" d="M 1200 1843 L 916 1581 L 797 1581 L 797 1587 L 1026 1849 L 1200 1849 L 1200 1843 Z M 1231 985 C 1210 1087 1169 1170 1109 1232 C 1048 1294 966 1325 864 1325 C 770 1325 686 1302 613 1258 C 540 1214 479 1155 430 1083 C 380 1011 343 928 317 836 C 291 744 279 650 279 555 C 279 482 288 417 308 359 C 328 301 356 251 393 211 C 430 170 475 138 527 116 C 579 93 639 82 705 82 C 767 82 823 90 871 106 C 919 122 962 146 1000 176 C 1038 206 1072 241 1103 282 C 1133 323 1162 368 1190 416 L 1268 373 C 1239 313 1206 257 1169 207 C 1132 156 1090 112 1043 76 C 996 38 942 9 882 -11 C 821 -32 752 -43 676 -43 C 590 -43 512 -28 444 1 C 376 30 317 71 269 124 C 221 176 184 239 159 313 C 133 387 121 468 121 557 C 121 671 138 783 173 891 C 207 999 257 1094 321 1177 C 384 1259 461 1325 552 1376 C 642 1426 743 1452 854 1452 C 930 1452 1002 1434 1070 1399 C 1137 1363 1189 1311 1225 1241 L 1284 1450 L 1360 1450 L 1335 889 L 1253 872 L 1231 985 Z" unicode="" />
<glyph horiz-adv-x="1110" d="M 1005 1442 L 721 1180 L 602 1180 L 602 1186 L 831 1448 L 1005 1448 L 1005 1442 Z M 874 764 C 864 818 839 860 799 890 C 759 919 709 934 649 934 C 593 934 540 920 491 893 C 442 865 399 828 362 780 C 325 732 296 676 275 610 C 254 544 244 473 244 397 C 244 297 270 219 322 161 C 374 103 450 74 549 74 C 619 74 681 91 735 126 C 789 160 836 213 874 283 L 956 240 C 915 152 858 84 785 34 C 712 -16 626 -41 528 -41 C 464 -41 405 -30 353 -10 C 300 9 255 39 217 78 C 179 116 149 162 128 217 C 106 271 96 333 96 401 C 96 497 111 584 141 664 C 171 744 211 812 263 869 C 314 925 373 969 441 1001 C 509 1033 579 1049 653 1049 C 749 1049 828 1028 891 987 C 953 946 996 892 1020 825 C 1024 811 1028 797 1030 785 C 1032 772 1034 760 1034 750 C 1034 722 1026 701 1010 686 C 994 671 975 664 952 664 C 922 664 902 673 894 693 C 885 713 878 736 874 764 Z" unicode="" />
<glyph horiz-adv-x="1370" d="M 1106 1581 L 930 1759 L 713 1581 L 580 1581 L 582 1587 L 891 1851 L 996 1851 L 1239 1587 L 1237 1581 L 1106 1581 Z M 1231 985 C 1210 1087 1169 1170 1109 1232 C 1048 1294 966 1325 864 1325 C 770 1325 686 1302 613 1258 C 540 1214 479 1155 430 1083 C 380 1011 343 928 317 836 C 291 744 279 650 279 555 C 279 482 288 417 308 359 C 328 301 356 251 393 211 C 430 170 475 138 527 116 C 579 93 639 82 705 82 C 767 82 823 90 871 106 C 919 122 962 146 1000 176 C 1038 206 1072 241 1103 282 C 1133 323 1162 368 1190 416 L 1268 373 C 1239 313 1206 257 1169 207 C 1132 156 1090 112 1043 76 C 996 38 942 9 882 -11 C 821 -32 752 -43 676 -43 C 590 -43 512 -28 444 1 C 376 30 317 71 269 124 C 221 176 184 239 159 313 C 133 387 121 468 121 557 C 121 671 138 783 173 891 C 207 999 257 1094 321 1177 C 384 1259 461 1325 552 1376 C 642 1426 743 1452 854 1452 C 930 1452 1002 1434 1070 1399 C 1137 1363 1189 1311 1225 1241 L 1284 1450 L 1360 1450 L 1335 889 L 1253 872 L 1231 985 Z" unicode="" />
<glyph horiz-adv-x="1110" d="M 913 1180 L 737 1358 L 520 1180 L 387 1180 L 389 1186 L 698 1450 L 803 1450 L 1046 1186 L 1044 1180 L 913 1180 Z M 874 764 C 864 818 839 860 799 890 C 759 919 709 934 649 934 C 593 934 540 920 491 893 C 442 865 399 828 362 780 C 325 732 296 676 275 610 C 254 544 244 473 244 397 C 244 297 270 219 322 161 C 374 103 450 74 549 74 C 619 74 681 91 735 126 C 789 160 836 213 874 283 L 956 240 C 915 152 858 84 785 34 C 712 -16 626 -41 528 -41 C 464 -41 405 -30 353 -10 C 300 9 255 39 217 78 C 179 116 149 162 128 217 C 106 271 96 333 96 401 C 96 497 111 584 141 664 C 171 744 211 812 263 869 C 314 925 373 969 441 1001 C 509 1033 579 1049 653 1049 C 749 1049 828 1028 891 987 C 953 946 996 892 1020 825 C 1024 811 1028 797 1030 785 C 1032 772 1034 760 1034 750 C 1034 722 1026 701 1010 686 C 994 671 975 664 952 664 C 922 664 902 673 894 693 C 885 713 878 736 874 764 Z" unicode="" />
<glyph horiz-adv-x="1370" d="M 1231 985 C 1210 1087 1169 1170 1109 1232 C 1048 1294 966 1325 864 1325 C 770 1325 686 1302 613 1258 C 540 1214 479 1155 430 1083 C 380 1011 343 928 317 836 C 291 744 279 650 279 555 C 279 482 288 417 308 359 C 328 301 356 251 393 211 C 430 170 475 138 527 116 C 579 93 639 82 705 82 C 767 82 823 90 871 106 C 919 122 962 146 1000 176 C 1038 206 1072 241 1103 282 C 1133 323 1162 368 1190 416 L 1268 373 C 1239 313 1206 257 1169 207 C 1132 156 1090 112 1043 76 C 996 38 942 9 882 -11 C 821 -32 752 -43 676 -43 C 590 -43 512 -28 444 1 C 376 30 317 71 269 124 C 221 176 184 239 159 313 C 133 387 121 468 121 557 C 121 671 138 783 173 891 C 207 999 257 1094 321 1177 C 384 1259 461 1325 552 1376 C 642 1426 743 1452 854 1452 C 930 1452 1002 1434 1070 1399 C 1137 1363 1189 1311 1225 1241 L 1284 1450 L 1360 1450 L 1335 889 L 1253 872 L 1231 985 Z M 915 1609 C 887 1609 864 1618 844 1637 C 824 1655 815 1678 815 1706 C 815 1741 826 1771 850 1795 C 873 1819 902 1831 936 1831 C 964 1831 988 1821 1007 1802 C 1026 1782 1036 1758 1036 1730 C 1036 1697 1023 1669 999 1645 C 975 1621 947 1609 915 1609 Z" unicode="" />
<glyph horiz-adv-x="1110" d="M 874 764 C 864 818 839 860 799 890 C 759 919 709 934 649 934 C 593 934 540 920 491 893 C 442 865 399 828 362 780 C 325 732 296 676 275 610 C 254 544 244 473 244 397 C 244 297 270 219 322 161 C 374 103 450 74 549 74 C 619 74 681 91 735 126 C 789 160 836 213 874 283 L 956 240 C 915 152 858 84 785 34 C 712 -16 626 -41 528 -41 C 464 -41 405 -30 353 -10 C 300 9 255 39 217 78 C 179 116 149 162 128 217 C 106 271 96 333 96 401 C 96 497 111 584 141 664 C 171 744 211 812 263 869 C 314 925 373 969 441 1001 C 509 1033 579 1049 653 1049 C 749 1049 828 1028 891 987 C 953 946 996 892 1020 825 C 1024 811 1028 797 1030 785 C 1032 772 1034 760 1034 750 C 1034 722 1026 701 1010 686 C 994 671 975 664 952 664 C 922 664 902 673 894 693 C 885 713 878 736 874 764 Z M 722 1208 C 694 1208 671 1217 651 1236 C 631 1254 622 1277 622 1305 C 622 1340 633 1370 657 1394 C 680 1418 709 1430 743 1430 C 771 1430 795 1420 814 1401 C 833 1381 843 1357 843 1329 C 843 1296 830 1268 806 1244 C 782 1220 754 1208 722 1208 Z" unicode="" />
<glyph horiz-adv-x="1370" d="M 607 1851 L 738 1851 L 914 1673 L 1131 1851 L 1264 1851 L 1262 1845 L 953 1581 L 848 1581 L 605 1845 L 607 1851 Z M 1231 985 C 1210 1087 1169 1170 1109 1232 C 1048 1294 966 1325 864 1325 C 770 1325 686 1302 613 1258 C 540 1214 479 1155 430 1083 C 380 1011 343 928 317 836 C 291 744 279 650 279 555 C 279 482 288 417 308 359 C 328 301 356 251 393 211 C 430 170 475 138 527 116 C 579 93 639 82 705 82 C 767 82 823 90 871 106 C 919 122 962 146 1000 176 C 1038 206 1072 241 1103 282 C 1133 323 1162 368 1190 416 L 1268 373 C 1239 313 1206 257 1169 207 C 1132 156 1090 112 1043 76 C 996 38 942 9 882 -11 C 821 -32 752 -43 676 -43 C 590 -43 512 -28 444 1 C 376 30 317 71 269 124 C 221 176 184 239 159 313 C 133 387 121 468 121 557 C 121 671 138 783 173 891 C 207 999 257 1094 321 1177 C 384 1259 461 1325 552 1376 C 642 1426 743 1452 854 1452 C 930 1452 1002 1434 1070 1399 C 1137 1363 1189 1311 1225 1241 L 1284 1450 L 1360 1450 L 1335 889 L 1253 872 L 1231 985 Z" unicode="" />
<glyph horiz-adv-x="1110" d="M 412 1450 L 543 1450 L 719 1272 L 936 1450 L 1069 1450 L 1067 1444 L 758 1180 L 653 1180 L 410 1444 L 412 1450 Z M 874 764 C 864 818 839 860 799 890 C 759 919 709 934 649 934 C 593 934 540 920 491 893 C 442 865 399 828 362 780 C 325 732 296 676 275 610 C 254 544 244 473 244 397 C 244 297 270 219 322 161 C 374 103 450 74 549 74 C 619 74 681 91 735 126 C 789 160 836 213 874 283 L 956 240 C 915 152 858 84 785 34 C 712 -16 626 -41 528 -41 C 464 -41 405 -30 353 -10 C 300 9 255 39 217 78 C 179 116 149 162 128 217 C 106 271 96 333 96 401 C 96 497 111 584 141 664 C 171 744 211 812 263 869 C 314 925 373 969 441 1001 C 509 1033 579 1049 653 1049 C 749 1049 828 1028 891 987 C 953 946 996 892 1020 825 C 1024 811 1028 797 1030 785 C 1032 772 1034 760 1034 750 C 1034 722 1026 701 1010 686 C 994 671 975 664 952 664 C 922 664 902 673 894 693 C 885 713 878 736 874 764 Z" unicode="" />
<glyph horiz-adv-x="1532" d="M 740 1839 L 871 1839 L 1047 1661 L 1264 1839 L 1397 1839 L 1395 1833 L 1086 1569 L 981 1569 L 738 1833 L 740 1839 Z M -16 0 L 4 88 L 279 109 L 532 1305 L 266 1327 L 283 1413 L 993 1413 C 1073 1413 1145 1398 1209 1370 C 1273 1341 1326 1301 1370 1251 C 1414 1201 1447 1141 1470 1072 C 1493 1003 1505 928 1505 848 C 1505 722 1485 607 1445 503 C 1405 399 1351 311 1282 237 C 1212 162 1129 104 1033 62 C 937 20 832 0 719 0 L -16 0 Z M 963 1298 L 694 1298 L 442 115 L 735 115 C 821 115 901 133 975 170 C 1049 206 1114 258 1170 324 C 1225 389 1269 466 1301 556 C 1333 645 1350 742 1350 848 C 1350 913 1341 973 1324 1028 C 1306 1082 1281 1130 1248 1170 C 1214 1210 1174 1242 1126 1264 C 1078 1286 1024 1298 963 1298 Z" unicode="" />
<glyph horiz-adv-x="1520" d="M 1473 1112 L 1368 1112 L 1465 1542 L 1620 1542 L 1473 1112 Z M 813 272 L 918 725 C 902 793 872 844 826 879 C 780 914 725 932 659 932 C 601 932 548 918 498 892 C 448 865 405 828 367 782 C 328 736 298 680 276 615 C 254 550 244 480 244 406 C 242 298 265 215 313 159 C 361 102 430 74 520 74 C 588 74 646 90 693 122 C 740 154 777 192 805 236 L 813 272 Z M 262 866 C 312 923 370 968 436 1000 C 502 1032 570 1049 641 1049 C 715 1049 778 1031 830 997 C 882 963 922 916 948 856 L 1065 1356 C 1021 1340 975 1332 929 1331 C 883 1329 841 1334 803 1346 L 819 1411 C 880 1408 942 1418 1005 1440 C 1068 1462 1128 1496 1184 1544 L 1257 1526 L 965 260 C 960 242 956 225 954 210 C 951 195 950 182 950 170 C 950 138 956 115 970 99 C 984 83 1006 76 1038 76 C 1051 76 1066 77 1082 81 C 1098 84 1115 89 1135 96 L 1116 23 C 1096 10 1074 0 1048 -7 C 1022 -14 995 -18 967 -18 C 916 -18 877 -6 849 15 C 821 37 804 71 799 117 C 755 63 704 24 646 -2 C 588 -28 526 -41 461 -41 C 345 -41 255 -1 191 79 C 127 159 96 265 96 397 C 96 493 111 580 141 660 C 171 740 211 808 262 866 Z" unicode="" />
<glyph horiz-adv-x="1528" d="M -16 0 L 4 88 L 279 109 L 397 672 L 119 672 L 143 778 L 420 778 L 532 1305 L 266 1327 L 283 1413 L 993 1413 C 1073 1413 1145 1398 1209 1370 C 1273 1341 1326 1301 1370 1251 C 1414 1201 1447 1141 1470 1072 C 1493 1003 1505 928 1505 848 C 1505 722 1485 607 1445 503 C 1405 399 1351 311 1282 237 C 1212 162 1129 104 1033 62 C 937 20 832 0 719 0 L -16 0 Z M 963 1298 L 694 1298 L 584 778 L 881 778 L 858 672 L 561 672 L 442 115 L 735 115 C 821 115 901 133 975 170 C 1049 206 1114 258 1170 324 C 1225 389 1269 466 1301 556 C 1333 645 1350 742 1350 848 C 1350 913 1341 973 1324 1028 C 1306 1082 1281 1130 1248 1170 C 1214 1210 1174 1242 1126 1264 C 1078 1286 1024 1298 963 1298 Z" unicode="" />
<glyph horiz-adv-x="1251" d="M 813 272 L 918 721 C 902 785 873 834 829 869 C 785 904 726 922 651 922 C 597 922 546 909 497 883 C 448 857 405 820 368 774 C 330 728 299 672 277 608 C 255 544 244 473 244 395 C 242 297 265 219 313 161 C 361 103 428 74 514 74 C 583 74 642 89 691 119 C 739 149 777 186 805 231 C 806 238 807 245 809 253 C 810 260 811 266 813 272 Z M 616 1194 L 1028 1194 L 1067 1360 C 1023 1344 978 1336 932 1335 C 886 1333 844 1338 805 1350 L 819 1417 C 881 1413 943 1421 1005 1442 C 1067 1462 1126 1496 1182 1544 L 1257 1526 L 1180 1194 L 1374 1194 L 1358 1120 L 1163 1120 L 965 260 C 960 242 956 225 954 210 C 951 195 950 181 950 168 C 950 138 956 115 970 99 C 984 83 1006 76 1038 76 C 1051 76 1066 77 1082 81 C 1098 84 1115 89 1135 96 L 1116 23 C 1096 10 1074 0 1049 -7 C 1024 -14 996 -18 965 -18 C 914 -18 874 -5 846 18 C 817 42 801 79 799 127 C 755 69 704 27 646 0 C 588 -27 526 -41 461 -41 C 403 -41 352 -30 306 -9 C 260 12 222 42 190 80 C 158 118 135 162 119 214 C 103 265 96 321 96 383 C 96 481 111 570 142 651 C 172 731 213 800 263 858 C 313 915 370 959 434 991 C 498 1022 565 1038 635 1038 C 710 1038 774 1021 827 988 C 880 954 920 908 946 850 L 1010 1120 L 600 1120 L 616 1194 Z" unicode="" />
<glyph horiz-adv-x="1464" d="M -16 0 L 4 88 L 279 109 L 532 1305 L 266 1327 L 283 1413 L 1423 1413 L 1462 969 L 1380 946 L 1282 1303 L 694 1303 L 584 784 L 940 784 L 1032 1030 L 1116 1030 L 989 438 L 907 438 L 920 672 L 559 672 L 440 111 L 1077 111 L 1327 561 L 1405 545 L 1182 0 L -16 0 Z M 779 1737 L 1282 1737 L 1262 1644 L 760 1644 L 779 1737 Z" unicode="" />
<glyph horiz-adv-x="1077" d="M 862 770 C 862 820 842 861 803 891 C 764 921 714 936 653 936 C 605 936 559 926 513 906 C 467 886 425 858 388 820 C 350 782 319 737 293 683 C 267 629 250 567 242 498 C 341 489 429 490 507 501 C 584 512 649 531 701 557 C 753 583 793 614 821 650 C 848 686 862 726 862 770 Z M 921 961 C 947 935 967 905 980 873 C 992 841 999 808 999 776 C 999 714 980 658 943 606 C 905 554 853 510 785 476 C 717 441 637 416 543 400 C 449 384 347 382 236 393 C 237 292 267 214 326 158 C 384 102 465 74 569 74 C 635 74 693 87 744 114 C 794 141 838 182 874 236 L 946 188 C 910 118 858 63 790 21 C 722 -20 637 -41 537 -41 C 476 -41 419 -30 365 -10 C 311 9 264 39 224 78 C 184 116 152 162 129 218 C 105 273 94 336 94 406 C 94 505 110 595 142 675 C 174 755 216 822 270 878 C 323 933 384 975 453 1005 C 522 1034 594 1049 668 1049 C 726 1049 776 1040 818 1024 C 860 1007 894 986 921 961 Z M 478 1348 L 981 1348 L 961 1255 L 459 1255 L 478 1348 Z" unicode="" />
<glyph horiz-adv-x="1464" d="M -16 0 L 4 88 L 279 109 L 532 1305 L 266 1327 L 283 1413 L 1423 1413 L 1462 969 L 1380 946 L 1282 1303 L 694 1303 L 584 784 L 940 784 L 1032 1030 L 1116 1030 L 989 438 L 907 438 L 920 672 L 559 672 L 440 111 L 1077 111 L 1327 561 L 1405 545 L 1182 0 L -16 0 Z M 1246 1827 L 1354 1827 C 1339 1741 1302 1675 1242 1629 C 1182 1583 1104 1560 1006 1560 C 907 1560 833 1583 784 1629 C 735 1675 714 1741 721 1827 L 830 1827 C 826 1767 840 1721 870 1691 C 900 1661 948 1646 1012 1646 C 1078 1646 1130 1661 1169 1691 C 1208 1721 1234 1767 1246 1827 Z" unicode="" />
<glyph horiz-adv-x="1077" d="M 862 770 C 862 820 842 861 803 891 C 764 921 714 936 653 936 C 605 936 559 926 513 906 C 467 886 425 858 388 820 C 350 782 319 737 293 683 C 267 629 250 567 242 498 C 341 489 429 490 507 501 C 584 512 649 531 701 557 C 753 583 793 614 821 650 C 848 686 862 726 862 770 Z M 921 961 C 947 935 967 905 980 873 C 992 841 999 808 999 776 C 999 714 980 658 943 606 C 905 554 853 510 785 476 C 717 441 637 416 543 400 C 449 384 347 382 236 393 C 237 292 267 214 326 158 C 384 102 465 74 569 74 C 635 74 693 87 744 114 C 794 141 838 182 874 236 L 946 188 C 910 118 858 63 790 21 C 722 -20 637 -41 537 -41 C 476 -41 419 -30 365 -10 C 311 9 264 39 224 78 C 184 116 152 162 129 218 C 105 273 94 336 94 406 C 94 505 110 595 142 675 C 174 755 216 822 270 878 C 323 933 384 975 453 1005 C 522 1034 594 1049 668 1049 C 726 1049 776 1040 818 1024 C 860 1007 894 986 921 961 Z M 945 1438 L 1053 1438 C 1038 1352 1001 1286 941 1240 C 881 1194 803 1171 705 1171 C 606 1171 532 1194 483 1240 C 434 1286 413 1352 420 1438 L 529 1438 C 525 1378 539 1332 569 1302 C 599 1272 647 1257 711 1257 C 777 1257 829 1272 868 1302 C 907 1332 933 1378 945 1438 Z" unicode="" />
<glyph horiz-adv-x="1464" d="M -16 0 L 4 88 L 279 109 L 532 1305 L 266 1327 L 283 1413 L 1423 1413 L 1462 969 L 1380 946 L 1282 1303 L 694 1303 L 584 784 L 940 784 L 1032 1030 L 1116 1030 L 989 438 L 907 438 L 920 672 L 559 672 L 440 111 L 1077 111 L 1327 561 L 1405 545 L 1182 0 L -16 0 Z M 1015 1597 C 987 1597 964 1606 944 1625 C 924 1643 915 1666 915 1694 C 915 1729 926 1759 950 1783 C 973 1807 1002 1819 1036 1819 C 1064 1819 1088 1809 1107 1790 C 1126 1770 1136 1746 1136 1718 C 1136 1685 1123 1657 1099 1633 C 1075 1609 1047 1597 1015 1597 Z" unicode="" />
<glyph horiz-adv-x="1077" d="M 862 770 C 862 820 842 861 803 891 C 764 921 714 936 653 936 C 605 936 559 926 513 906 C 467 886 425 858 388 820 C 350 782 319 737 293 683 C 267 629 250 567 242 498 C 341 489 429 490 507 501 C 584 512 649 531 701 557 C 753 583 793 614 821 650 C 848 686 862 726 862 770 Z M 921 961 C 947 935 967 905 980 873 C 992 841 999 808 999 776 C 999 714 980 658 943 606 C 905 554 853 510 785 476 C 717 441 637 416 543 400 C 449 384 347 382 236 393 C 237 292 267 214 326 158 C 384 102 465 74 569 74 C 635 74 693 87 744 114 C 794 141 838 182 874 236 L 946 188 C 910 118 858 63 790 21 C 722 -20 637 -41 537 -41 C 476 -41 419 -30 365 -10 C 311 9 264 39 224 78 C 184 116 152 162 129 218 C 105 273 94 336 94 406 C 94 505 110 595 142 675 C 174 755 216 822 270 878 C 323 933 384 975 453 1005 C 522 1034 594 1049 668 1049 C 726 1049 776 1040 818 1024 C 860 1007 894 986 921 961 Z M 714 1208 C 686 1208 663 1217 643 1236 C 623 1254 614 1277 614 1305 C 614 1340 625 1370 649 1394 C 672 1418 701 1430 735 1430 C 763 1430 787 1420 806 1401 C 825 1381 835 1357 835 1329 C 835 1296 822 1268 798 1244 C 774 1220 746 1208 714 1208 Z" unicode="" />
<glyph horiz-adv-x="1464" d="M 1182 0 L 1079 0 C 1050 1 1022 -3 995 -14 C 967 -25 943 -40 923 -59 C 901 -78 884 -101 870 -129 C 856 -156 850 -186 850 -219 C 850 -254 862 -279 888 -295 C 913 -311 942 -319 975 -319 C 995 -319 1014 -316 1032 -312 C 1050 -308 1068 -301 1085 -293 L 1096 -377 C 1072 -387 1048 -395 1024 -401 C 1000 -407 976 -410 952 -410 C 924 -410 898 -406 874 -399 C 850 -392 828 -382 809 -368 C 789 -353 774 -335 762 -314 C 750 -293 745 -268 745 -240 C 745 -190 757 -145 783 -103 C 808 -61 841 -27 883 0 L -16 0 L 4 88 L 279 109 L 532 1305 L 266 1327 L 283 1413 L 1423 1413 L 1462 969 L 1380 946 L 1282 1303 L 694 1303 L 584 784 L 940 784 L 1032 1030 L 1116 1030 L 989 438 L 907 438 L 920 672 L 559 672 L 440 111 L 1077 111 L 1327 561 L 1405 545 L 1182 0 Z" unicode="" />
<glyph horiz-adv-x="1077" d="M 862 770 C 862 820 842 861 803 891 C 764 921 714 936 653 936 C 604 936 557 926 511 906 C 465 886 423 858 387 820 C 350 782 319 737 293 683 C 267 629 250 567 242 498 C 340 489 427 490 505 501 C 582 512 647 530 700 556 C 753 581 793 612 821 649 C 848 686 862 726 862 770 Z M 526 -368 C 507 -353 492 -335 480 -314 C 468 -293 463 -268 463 -240 C 463 -200 470 -163 486 -130 C 502 -96 523 -67 551 -41 C 485 -42 425 -32 370 -12 C 314 7 266 37 225 77 C 184 115 152 163 129 219 C 105 275 94 337 94 406 C 94 505 110 595 142 675 C 174 755 216 822 270 878 C 323 933 384 975 453 1005 C 522 1034 594 1049 668 1049 C 726 1049 776 1040 818 1024 C 860 1007 894 986 921 961 C 947 935 967 905 980 873 C 992 841 999 808 999 776 C 999 714 980 658 943 606 C 905 554 853 510 785 476 C 717 441 637 416 543 401 C 449 386 347 383 236 393 C 238 291 269 212 328 157 C 386 101 467 74 569 74 C 635 74 693 87 744 114 C 794 141 838 182 874 236 L 946 188 C 922 140 891 100 853 66 C 815 32 769 5 717 -14 C 673 -30 637 -57 609 -94 C 581 -131 567 -173 567 -219 C 567 -254 579 -279 605 -295 C 630 -311 659 -319 692 -319 C 712 -319 731 -316 749 -312 C 767 -308 785 -301 803 -293 L 813 -377 C 789 -387 765 -395 741 -401 C 717 -407 694 -410 670 -410 C 642 -410 616 -406 592 -399 C 567 -392 545 -382 526 -368 Z" unicode="" />
<glyph horiz-adv-x="1464" d="M 705 1839 L 836 1839 L 1012 1661 L 1229 1839 L 1362 1839 L 1360 1833 L 1051 1569 L 946 1569 L 703 1833 L 705 1839 Z M -16 0 L 4 88 L 279 109 L 532 1305 L 266 1327 L 283 1413 L 1423 1413 L 1462 969 L 1380 946 L 1282 1303 L 694 1303 L 584 784 L 940 784 L 1032 1030 L 1116 1030 L 989 438 L 907 438 L 920 672 L 559 672 L 440 111 L 1077 111 L 1327 561 L 1405 545 L 1182 0 L -16 0 Z" unicode="" />
<glyph horiz-adv-x="1077" d="M 404 1450 L 535 1450 L 711 1272 L 928 1450 L 1061 1450 L 1059 1444 L 750 1180 L 645 1180 L 402 1444 L 404 1450 Z M 862 770 C 862 820 842 861 803 891 C 764 921 714 936 653 936 C 605 936 559 926 513 906 C 467 886 425 858 388 820 C 350 782 319 737 293 683 C 267 629 250 567 242 498 C 341 489 429 490 507 501 C 584 512 649 531 701 557 C 753 583 793 614 821 650 C 848 686 862 726 862 770 Z M 921 961 C 947 935 967 905 980 873 C 992 841 999 808 999 776 C 999 714 980 658 943 606 C 905 554 853 510 785 476 C 717 441 637 416 543 400 C 449 384 347 382 236 393 C 237 292 267 214 326 158 C 384 102 465 74 569 74 C 635 74 693 87 744 114 C 794 141 838 182 874 236 L 946 188 C 910 118 858 63 790 21 C 722 -20 637 -41 537 -41 C 476 -41 419 -30 365 -10 C 311 9 264 39 224 78 C 184 116 152 162 129 218 C 105 273 94 336 94 406 C 94 505 110 595 142 675 C 174 755 216 822 270 878 C 323 933 384 975 453 1005 C 522 1034 594 1049 668 1049 C 726 1049 776 1040 818 1024 C 860 1007 894 986 921 961 Z" unicode="" />
<glyph horiz-adv-x="1485" d="M 1106 1569 L 930 1747 L 713 1569 L 580 1569 L 582 1575 L 891 1839 L 996 1839 L 1239 1575 L 1237 1569 L 1106 1569 Z M 1485 590 L 1286 567 L 1163 -10 L 1081 -10 L 1083 190 C 1035 118 975 61 902 19 C 829 -22 749 -43 662 -43 C 582 -43 509 -28 443 0 C 377 28 320 70 272 124 C 224 178 187 243 161 319 C 134 395 121 481 121 575 C 121 683 137 789 171 895 C 204 1000 252 1094 314 1177 C 376 1259 452 1325 541 1376 C 629 1426 728 1452 838 1452 C 928 1450 1006 1431 1073 1393 C 1140 1355 1193 1302 1231 1233 L 1290 1450 L 1366 1450 L 1341 889 L 1257 874 L 1235 985 C 1213 1091 1171 1175 1110 1235 C 1048 1295 964 1325 856 1325 C 762 1325 679 1302 607 1258 C 535 1214 475 1156 427 1084 C 378 1012 341 932 316 842 C 291 752 279 661 279 571 C 279 493 289 424 309 363 C 329 302 358 251 395 211 C 432 170 476 139 526 117 C 576 95 632 84 692 84 C 740 84 786 91 830 107 C 874 123 915 147 953 180 C 991 212 1024 254 1053 306 C 1081 357 1104 417 1120 487 L 1139 565 L 879 590 L 895 676 L 1501 676 L 1485 590 Z" unicode="" />
<glyph horiz-adv-x="1198" d="M 911 1180 L 735 1358 L 518 1180 L 385 1180 L 387 1186 L 696 1450 L 801 1450 L 1044 1186 L 1042 1180 L 911 1180 Z M 242 401 C 242 303 264 225 309 168 C 354 110 418 82 500 82 C 574 82 636 97 685 129 C 733 160 771 200 799 248 L 911 735 C 896 796 866 844 822 880 C 778 916 720 934 649 934 C 595 934 544 921 495 895 C 446 869 403 832 366 785 C 328 738 297 682 275 616 C 253 550 242 479 242 401 Z M 766 98 C 722 54 673 22 621 0 C 569 -22 513 -33 453 -33 C 395 -33 344 -22 300 -1 C 255 20 218 50 188 88 C 158 126 135 170 119 222 C 103 273 96 329 96 391 C 96 489 111 579 142 659 C 172 739 213 809 263 867 C 313 925 370 969 436 1001 C 502 1033 569 1049 639 1049 C 708 1049 770 1033 826 1002 C 881 971 924 928 954 872 L 1063 1024 L 1133 1024 L 893 -2 C 859 -150 796 -267 706 -351 C 616 -435 498 -477 354 -477 C 276 -477 208 -466 150 -445 C 92 -424 44 -392 8 -350 C -6 -334 -16 -318 -24 -302 C -31 -286 -35 -271 -35 -256 C -35 -230 -26 -209 -10 -194 C 5 -179 25 -172 49 -172 C 76 -172 95 -182 107 -204 C 119 -225 133 -248 150 -272 C 158 -283 167 -294 177 -305 C 187 -316 200 -326 216 -334 C 232 -342 250 -348 271 -353 C 292 -357 318 -360 348 -360 C 390 -360 431 -355 471 -346 C 510 -336 547 -318 582 -292 C 616 -265 646 -228 674 -180 C 701 -132 724 -70 743 8 L 766 98 Z" unicode="" />
<glyph horiz-adv-x="1485" d="M 1485 590 L 1286 567 L 1163 -10 L 1081 -10 L 1083 190 C 1035 118 975 61 902 19 C 829 -22 749 -43 662 -43 C 582 -43 509 -28 443 0 C 377 28 320 70 272 124 C 224 178 187 243 161 319 C 134 395 121 481 121 575 C 121 683 137 789 171 895 C 204 1000 252 1094 314 1177 C 376 1259 452 1325 541 1376 C 629 1426 728 1452 838 1452 C 928 1450 1006 1431 1073 1393 C 1140 1355 1193 1302 1231 1233 L 1290 1450 L 1366 1450 L 1341 889 L 1257 874 L 1235 985 C 1213 1091 1171 1175 1110 1235 C 1048 1295 964 1325 856 1325 C 762 1325 679 1302 607 1258 C 535 1214 475 1156 427 1084 C 378 1012 341 932 316 842 C 291 752 279 661 279 571 C 279 493 289 424 309 363 C 329 302 358 251 395 211 C 432 170 476 139 526 117 C 576 95 632 84 692 84 C 740 84 786 91 830 107 C 874 123 915 147 953 180 C 991 212 1024 254 1053 306 C 1081 357 1104 417 1120 487 L 1139 565 L 879 590 L 895 676 L 1501 676 L 1485 590 Z M 1145 1827 L 1253 1827 C 1238 1741 1201 1675 1141 1629 C 1081 1583 1003 1560 905 1560 C 806 1560 732 1583 683 1629 C 634 1675 613 1741 620 1827 L 729 1827 C 725 1767 739 1721 769 1691 C 799 1661 847 1646 911 1646 C 977 1646 1029 1661 1068 1691 C 1107 1721 1133 1767 1145 1827 Z" unicode="" />
<glyph horiz-adv-x="1198" d="M 242 401 C 242 303 264 225 309 168 C 354 110 418 82 500 82 C 574 82 636 97 685 129 C 733 160 771 200 799 248 L 911 735 C 896 796 866 844 822 880 C 778 916 720 934 649 934 C 595 934 544 921 495 895 C 446 869 403 832 366 785 C 328 738 297 682 275 616 C 253 550 242 479 242 401 Z M 766 98 C 722 54 673 22 621 0 C 569 -22 513 -33 453 -33 C 395 -33 344 -22 300 -1 C 255 20 218 50 188 88 C 158 126 135 170 119 222 C 103 273 96 329 96 391 C 96 489 111 579 142 659 C 172 739 213 809 263 867 C 313 925 370 969 436 1001 C 502 1033 569 1049 639 1049 C 708 1049 770 1033 826 1002 C 881 971 924 928 954 872 L 1063 1024 L 1133 1024 L 893 -2 C 859 -150 796 -267 706 -351 C 616 -435 498 -477 354 -477 C 276 -477 208 -466 150 -445 C 92 -424 44 -392 8 -350 C -6 -334 -16 -318 -24 -302 C -31 -286 -35 -271 -35 -256 C -35 -230 -26 -209 -10 -194 C 5 -179 25 -172 49 -172 C 76 -172 95 -182 107 -204 C 119 -225 133 -248 150 -272 C 158 -283 167 -294 177 -305 C 187 -316 200 -326 216 -334 C 232 -342 250 -348 271 -353 C 292 -357 318 -360 348 -360 C 390 -360 431 -355 471 -346 C 510 -336 547 -318 582 -292 C 616 -265 646 -228 674 -180 C 701 -132 724 -70 743 8 L 766 98 Z M 951 1438 L 1059 1438 C 1044 1352 1007 1286 947 1240 C 887 1194 809 1171 711 1171 C 612 1171 538 1194 489 1240 C 440 1286 419 1352 426 1438 L 535 1438 C 531 1378 545 1332 575 1302 C 605 1272 653 1257 717 1257 C 783 1257 835 1272 874 1302 C 913 1332 939 1378 951 1438 Z" unicode="" />
<glyph horiz-adv-x="1485" d="M 1485 590 L 1286 567 L 1163 -10 L 1081 -10 L 1083 190 C 1035 118 975 61 902 19 C 829 -22 749 -43 662 -43 C 582 -43 509 -28 443 0 C 377 28 320 70 272 124 C 224 178 187 243 161 319 C 134 395 121 481 121 575 C 121 683 137 789 171 895 C 204 1000 252 1094 314 1177 C 376 1259 452 1325 541 1376 C 629 1426 728 1452 838 1452 C 928 1450 1006 1431 1073 1393 C 1140 1355 1193 1302 1231 1233 L 1290 1450 L 1366 1450 L 1341 889 L 1257 874 L 1235 985 C 1213 1091 1171 1175 1110 1235 C 1048 1295 964 1325 856 1325 C 762 1325 679 1302 607 1258 C 535 1214 475 1156 427 1084 C 378 1012 341 932 316 842 C 291 752 279 661 279 571 C 279 493 289 424 309 363 C 329 302 358 251 395 211 C 432 170 476 139 526 117 C 576 95 632 84 692 84 C 740 84 786 91 830 107 C 874 123 915 147 953 180 C 991 212 1024 254 1053 306 C 1081 357 1104 417 1120 487 L 1139 565 L 879 590 L 895 676 L 1501 676 L 1485 590 Z M 915 1597 C 887 1597 864 1606 844 1625 C 824 1643 815 1666 815 1694 C 815 1729 826 1759 850 1783 C 873 1807 902 1819 936 1819 C 964 1819 988 1809 1007 1790 C 1026 1770 1036 1746 1036 1718 C 1036 1685 1023 1657 999 1633 C 975 1609 947 1597 915 1597 Z" unicode="" />
<glyph horiz-adv-x="1198" d="M 242 401 C 242 303 264 225 309 168 C 354 110 418 82 500 82 C 574 82 636 97 685 129 C 733 160 771 200 799 248 L 911 735 C 896 796 866 844 822 880 C 778 916 720 934 649 934 C 595 934 544 921 495 895 C 446 869 403 832 366 785 C 328 738 297 682 275 616 C 253 550 242 479 242 401 Z M 766 98 C 722 54 673 22 621 0 C 569 -22 513 -33 453 -33 C 395 -33 344 -22 300 -1 C 255 20 218 50 188 88 C 158 126 135 170 119 222 C 103 273 96 329 96 391 C 96 489 111 579 142 659 C 172 739 213 809 263 867 C 313 925 370 969 436 1001 C 502 1033 569 1049 639 1049 C 708 1049 770 1033 826 1002 C 881 971 924 928 954 872 L 1063 1024 L 1133 1024 L 893 -2 C 859 -150 796 -267 706 -351 C 616 -435 498 -477 354 -477 C 276 -477 208 -466 150 -445 C 92 -424 44 -392 8 -350 C -6 -334 -16 -318 -24 -302 C -31 -286 -35 -271 -35 -256 C -35 -230 -26 -209 -10 -194 C 5 -179 25 -172 49 -172 C 76 -172 95 -182 107 -204 C 119 -225 133 -248 150 -272 C 158 -283 167 -294 177 -305 C 187 -316 200 -326 216 -334 C 232 -342 250 -348 271 -353 C 292 -357 318 -360 348 -360 C 390 -360 431 -355 471 -346 C 510 -336 547 -318 582 -292 C 616 -265 646 -228 674 -180 C 701 -132 724 -70 743 8 L 766 98 Z M 720 1208 C 692 1208 669 1217 649 1236 C 629 1254 620 1277 620 1305 C 620 1340 631 1370 655 1394 C 678 1418 707 1430 741 1430 C 769 1430 793 1420 812 1401 C 831 1381 841 1357 841 1329 C 841 1296 828 1268 804 1244 C 780 1220 752 1208 720 1208 Z" unicode="" />
<glyph horiz-adv-x="1485" d="M 534 -541 L 501 -494 C 531 -472 557 -446 577 -416 C 597 -386 611 -356 618 -326 C 590 -326 569 -317 553 -300 C 537 -282 530 -262 530 -240 C 530 -208 540 -183 562 -164 C 583 -144 607 -135 635 -135 C 662 -135 684 -143 700 -159 C 716 -175 725 -197 725 -225 C 725 -253 719 -284 708 -316 C 697 -348 683 -379 666 -409 C 649 -438 629 -464 606 -487 C 582 -510 558 -528 534 -541 Z M 1485 590 L 1286 567 L 1163 -10 L 1081 -10 L 1083 190 C 1035 118 975 61 902 19 C 829 -22 749 -43 662 -43 C 582 -43 509 -28 443 0 C 377 28 320 70 272 124 C 224 178 187 243 161 319 C 134 395 121 481 121 575 C 121 683 137 789 171 895 C 204 1000 252 1094 314 1177 C 376 1259 452 1325 541 1376 C 629 1426 728 1452 838 1452 C 928 1450 1006 1431 1073 1393 C 1140 1355 1193 1302 1231 1233 L 1290 1450 L 1366 1450 L 1341 889 L 1257 874 L 1235 985 C 1213 1091 1171 1175 1110 1235 C 1048 1295 964 1325 856 1325 C 762 1325 679 1302 607 1258 C 535 1214 475 1156 427 1084 C 378 1012 341 932 316 842 C 291 752 279 661 279 571 C 279 493 289 424 309 363 C 329 302 358 251 395 211 C 432 170 476 139 526 117 C 576 95 632 84 692 84 C 740 84 786 91 830 107 C 874 123 915 147 953 180 C 991 212 1024 254 1053 306 C 1081 357 1104 417 1120 487 L 1139 565 L 879 590 L 895 676 L 1501 676 L 1485 590 Z" unicode="" />
<glyph horiz-adv-x="1198" d="M 809 1569 L 842 1522 C 812 1500 786 1474 766 1444 C 745 1414 731 1384 725 1354 C 752 1354 773 1345 789 1328 C 805 1311 813 1291 813 1268 C 813 1236 802 1211 781 1192 C 760 1172 736 1163 709 1163 C 681 1163 659 1171 643 1187 C 626 1203 618 1225 618 1253 C 618 1281 623 1312 634 1344 C 645 1376 659 1407 677 1437 C 693 1466 713 1492 737 1515 C 760 1538 784 1556 809 1569 Z M 242 401 C 242 303 264 225 309 168 C 354 110 418 82 500 82 C 574 82 636 97 685 129 C 733 160 771 200 799 248 L 911 735 C 896 796 866 844 822 880 C 778 916 720 934 649 934 C 595 934 544 921 495 895 C 446 869 403 832 366 785 C 328 738 297 682 275 616 C 253 550 242 479 242 401 Z M 766 98 C 722 54 673 22 621 0 C 569 -22 513 -33 453 -33 C 395 -33 344 -22 300 -1 C 255 20 218 50 188 88 C 158 126 135 170 119 222 C 103 273 96 329 96 391 C 96 489 111 579 142 659 C 172 739 213 809 263 867 C 313 925 370 969 436 1001 C 502 1033 569 1049 639 1049 C 708 1049 770 1033 826 1002 C 881 971 924 928 954 872 L 1063 1024 L 1133 1024 L 893 -2 C 859 -150 796 -267 706 -351 C 616 -435 498 -477 354 -477 C 276 -477 208 -466 150 -445 C 92 -424 44 -392 8 -350 C -6 -334 -16 -318 -24 -302 C -31 -286 -35 -271 -35 -256 C -35 -230 -26 -209 -10 -194 C 5 -179 25 -172 49 -172 C 76 -172 95 -182 107 -204 C 119 -225 133 -248 150 -272 C 158 -283 167 -294 177 -305 C 187 -316 200 -326 216 -334 C 232 -342 250 -348 271 -353 C 292 -357 318 -360 348 -360 C 390 -360 431 -355 471 -346 C 510 -336 547 -318 582 -292 C 616 -265 646 -228 674 -180 C 701 -132 724 -70 743 8 L 766 98 Z" unicode="" />
<glyph horiz-adv-x="1747" d="M 1314 1569 L 1138 1747 L 921 1569 L 788 1569 L 790 1575 L 1099 1839 L 1204 1839 L 1447 1575 L 1445 1569 L 1314 1569 Z M 877 88 L 1147 106 L 1266 674 L 559 674 L 440 106 L 705 88 L 686 0 L -16 0 L 4 88 L 279 109 L 532 1305 L 264 1327 L 283 1413 L 985 1413 L 965 1327 L 694 1305 L 586 788 L 1292 788 L 1401 1305 L 1137 1327 L 1155 1413 L 1858 1413 L 1839 1327 L 1563 1305 L 1309 109 L 1577 88 L 1559 0 L 858 0 L 877 88 Z" unicode="" />
<glyph horiz-adv-x="1309" d="M 762 1616 L 586 1794 L 369 1616 L 236 1616 L 238 1622 L 547 1886 L 652 1886 L 895 1622 L 893 1616 L 762 1616 Z M 449 811 C 504 879 570 935 647 981 C 723 1026 804 1049 889 1049 C 977 1049 1042 1025 1082 978 C 1122 930 1143 868 1143 791 C 1143 762 1140 732 1134 701 C 1128 670 1121 638 1112 606 L 1036 332 C 1025 298 1017 267 1012 240 C 1006 212 1004 188 1004 168 C 1004 138 1010 115 1023 99 C 1035 83 1058 76 1092 76 C 1106 76 1121 77 1137 81 C 1153 84 1170 89 1190 96 L 1169 23 C 1151 10 1129 0 1101 -7 C 1073 -14 1044 -18 1014 -18 C 954 -18 911 -3 887 25 C 862 53 850 92 850 141 C 850 165 852 193 858 223 C 863 253 871 284 881 317 L 956 596 C 962 615 968 641 974 673 C 980 705 983 733 983 758 C 983 805 971 844 947 875 C 923 906 879 922 817 922 C 743 922 671 899 600 853 C 529 807 468 748 418 676 L 262 0 L 106 0 L 422 1358 C 378 1341 332 1332 286 1331 C 240 1329 198 1334 160 1346 L 176 1411 C 237 1408 299 1418 361 1440 C 423 1462 482 1496 537 1544 L 612 1526 L 449 811 Z" unicode="" />
<glyph horiz-adv-x="1749" d="M 584 778 L 1290 778 L 1337 1010 L 631 1010 L 584 778 Z M 874 88 L 1147 106 L 1266 670 L 559 670 L 438 106 L 709 88 L 690 0 L -16 0 L 4 88 L 279 109 L 469 1010 L 201 1010 L 217 1094 L 487 1094 L 532 1305 L 266 1327 L 283 1413 L 989 1413 L 971 1327 L 694 1305 L 649 1094 L 1356 1094 L 1401 1305 L 1139 1327 L 1157 1413 L 1860 1413 L 1841 1327 L 1565 1305 L 1520 1094 L 1792 1094 L 1774 1010 L 1501 1010 L 1311 106 L 1577 88 L 1559 0 L 856 0 L 874 88 Z" unicode="" />
<glyph horiz-adv-x="1309" d="M 111 1194 L 385 1194 L 424 1362 C 380 1344 334 1335 288 1335 C 242 1335 200 1340 162 1352 L 176 1417 C 237 1414 299 1423 361 1443 C 423 1463 482 1496 537 1544 L 612 1526 L 537 1194 L 905 1194 L 891 1120 L 518 1120 L 444 793 C 498 863 565 921 643 967 C 721 1013 801 1036 885 1036 C 973 1036 1038 1012 1079 965 C 1120 918 1141 856 1141 778 C 1141 750 1138 721 1132 690 C 1126 658 1119 626 1110 594 L 1036 332 C 1025 296 1017 266 1012 241 C 1006 215 1004 191 1004 168 C 1004 138 1010 115 1023 99 C 1035 83 1058 76 1092 76 C 1106 76 1121 77 1137 81 C 1153 84 1170 89 1190 96 L 1169 23 C 1151 10 1129 0 1101 -7 C 1073 -14 1044 -18 1014 -18 C 954 -18 911 -3 887 25 C 862 53 850 92 850 141 C 850 165 852 193 858 223 C 863 253 871 284 881 317 L 952 586 C 960 614 967 643 972 671 C 976 699 979 724 979 748 C 979 795 966 834 941 865 C 915 895 872 911 811 911 C 738 911 667 888 597 842 C 527 796 466 738 416 668 L 262 0 L 106 0 L 367 1120 L 94 1120 L 111 1194 Z" unicode="" />
<glyph horiz-adv-x="879" d="M 692 0 L -16 0 L 4 88 L 276 109 L 532 1305 L 266 1327 L 283 1413 L 991 1413 L 973 1327 L 696 1305 L 440 109 L 709 88 L 692 0 Z M 469 1610 L 373 1610 C 382 1679 406 1730 445 1762 C 484 1794 530 1810 582 1810 C 610 1810 636 1803 659 1790 C 682 1777 704 1763 726 1748 C 747 1732 768 1717 789 1704 C 810 1691 832 1685 856 1685 C 879 1685 899 1695 917 1715 C 935 1735 946 1761 952 1794 L 1046 1794 C 1042 1757 1033 1726 1019 1700 C 1005 1674 990 1652 972 1636 C 953 1620 933 1608 912 1601 C 891 1594 870 1591 848 1591 C 818 1591 791 1597 767 1610 C 743 1623 720 1638 698 1655 C 676 1671 656 1685 636 1698 C 616 1711 595 1718 573 1718 C 545 1718 522 1708 503 1688 C 484 1668 473 1642 469 1610 Z" unicode="" />
<glyph horiz-adv-x="659" d="M 197 272 L 342 860 C 298 845 253 837 207 836 C 161 834 120 839 82 850 L 98 915 C 159 912 221 922 283 944 C 345 966 404 1001 459 1049 L 537 1030 L 348 260 C 345 244 342 229 340 216 C 337 203 336 190 336 178 C 336 148 343 123 357 104 C 371 85 398 76 438 76 C 451 76 466 77 482 81 C 498 84 515 89 535 96 L 516 23 C 498 10 475 0 448 -7 C 421 -14 392 -18 360 -18 C 293 -18 247 -1 221 31 C 195 63 182 105 182 156 C 182 174 183 193 185 213 C 187 233 191 252 197 272 Z M 285 1221 L 189 1221 C 198 1290 222 1341 261 1373 C 300 1405 346 1421 398 1421 C 426 1421 452 1414 475 1401 C 498 1388 520 1374 542 1359 C 563 1343 584 1328 605 1315 C 626 1302 648 1296 672 1296 C 695 1296 715 1306 733 1326 C 751 1346 762 1372 768 1405 L 862 1405 C 858 1368 849 1337 835 1311 C 821 1285 806 1263 788 1247 C 769 1231 749 1219 728 1212 C 707 1205 686 1202 664 1202 C 634 1202 607 1208 583 1221 C 559 1234 536 1249 514 1266 C 492 1282 472 1296 452 1309 C 432 1322 411 1329 389 1329 C 361 1329 338 1319 319 1299 C 300 1279 289 1253 285 1221 Z" unicode="" />
<glyph horiz-adv-x="879" d="M 692 0 L -16 0 L 4 88 L 276 109 L 532 1305 L 266 1327 L 283 1413 L 991 1413 L 973 1327 L 696 1305 L 440 109 L 709 88 L 692 0 Z M 455 1737 L 958 1737 L 938 1644 L 436 1644 L 455 1737 Z" unicode="" />
<glyph horiz-adv-x="659" d="M 197 272 L 342 860 C 298 845 253 837 207 836 C 161 834 120 839 82 850 L 98 915 C 159 912 221 922 283 944 C 345 966 404 1001 459 1049 L 537 1030 L 348 260 C 345 244 342 229 340 216 C 337 203 336 190 336 178 C 336 148 343 123 357 104 C 371 85 398 76 438 76 C 451 76 466 77 482 81 C 498 84 515 89 535 96 L 516 23 C 498 10 475 0 448 -7 C 421 -14 392 -18 360 -18 C 293 -18 247 -1 221 31 C 195 63 182 105 182 156 C 182 174 183 193 185 213 C 187 233 191 252 197 272 Z M 271 1348 L 774 1348 L 754 1255 L 252 1255 L 271 1348 Z" unicode="" />
<glyph horiz-adv-x="879" d="M 692 0 L -16 0 L 4 88 L 276 109 L 532 1305 L 266 1327 L 283 1413 L 991 1413 L 973 1327 L 696 1305 L 440 109 L 709 88 L 692 0 Z M 922 1827 L 1030 1827 C 1015 1741 978 1675 918 1629 C 858 1583 780 1560 682 1560 C 583 1560 509 1583 460 1629 C 411 1675 390 1741 397 1827 L 506 1827 C 502 1767 516 1721 546 1691 C 576 1661 624 1646 688 1646 C 754 1646 806 1661 845 1691 C 884 1721 910 1767 922 1827 Z" unicode="" />
<glyph horiz-adv-x="659" d="M 197 272 L 342 860 C 298 845 253 837 207 836 C 161 834 120 839 82 850 L 98 915 C 159 912 221 922 283 944 C 345 966 404 1001 459 1049 L 537 1030 L 348 260 C 345 244 342 229 340 216 C 337 203 336 190 336 178 C 336 148 343 123 357 104 C 371 85 398 76 438 76 C 451 76 466 77 482 81 C 498 84 515 89 535 96 L 516 23 C 498 10 475 0 448 -7 C 421 -14 392 -18 360 -18 C 293 -18 247 -1 221 31 C 195 63 182 105 182 156 C 182 174 183 193 185 213 C 187 233 191 252 197 272 Z M 738 1438 L 846 1438 C 831 1352 794 1286 734 1240 C 674 1194 596 1171 498 1171 C 399 1171 325 1194 276 1240 C 227 1286 206 1352 213 1438 L 322 1438 C 318 1378 332 1332 362 1302 C 392 1272 440 1257 504 1257 C 570 1257 622 1272 661 1302 C 700 1332 726 1378 738 1438 Z" unicode="" />
<glyph horiz-adv-x="879" d="M 692 0 L 487 0 C 459 -1 433 -7 408 -18 C 383 -29 361 -45 342 -65 C 322 -84 306 -107 294 -133 C 282 -159 276 -187 276 -219 C 276 -254 288 -279 314 -295 C 339 -311 368 -319 401 -319 C 421 -319 440 -316 458 -312 C 476 -308 494 -301 512 -293 L 522 -377 C 498 -387 474 -395 450 -401 C 426 -407 403 -410 379 -410 C 351 -410 325 -406 301 -399 C 276 -392 254 -382 236 -368 C 216 -353 201 -335 189 -314 C 177 -293 172 -268 172 -240 C 172 -190 184 -145 210 -103 C 235 -61 268 -27 309 0 L -16 0 L 4 88 L 276 109 L 532 1305 L 266 1327 L 283 1413 L 991 1413 L 973 1327 L 696 1305 L 440 109 L 709 88 L 692 0 Z" unicode="" />
<glyph horiz-adv-x="659" d="M 528 1270 C 500 1270 477 1279 457 1297 C 437 1315 428 1338 428 1366 C 428 1401 439 1431 463 1455 C 486 1479 515 1491 549 1491 C 577 1491 601 1481 620 1462 C 639 1443 649 1419 649 1391 C 649 1357 636 1329 612 1305 C 587 1281 559 1270 528 1270 Z M 197 272 L 344 862 C 300 846 256 837 210 836 C 164 834 121 839 82 850 L 98 915 C 159 912 221 922 283 944 C 345 966 404 1001 459 1049 L 537 1030 L 348 260 C 345 245 342 230 340 215 C 337 200 336 188 336 178 C 336 148 343 123 357 104 C 371 85 398 76 438 76 C 451 76 466 77 482 81 C 498 84 515 89 535 96 L 516 23 C 501 11 485 3 468 -1 C 450 -5 430 -13 408 -23 C 368 -37 335 -63 309 -100 C 283 -137 270 -177 270 -219 C 270 -254 283 -279 309 -295 C 335 -311 364 -319 397 -319 C 417 -319 436 -316 454 -312 C 472 -308 490 -301 508 -293 L 518 -377 C 494 -387 470 -395 446 -401 C 422 -407 399 -410 375 -410 C 347 -410 321 -406 297 -399 C 272 -392 250 -382 231 -368 C 212 -353 197 -335 185 -314 C 173 -293 168 -268 168 -240 C 168 -192 179 -148 202 -109 C 224 -70 255 -37 293 -10 C 251 0 222 20 206 50 C 190 79 182 114 182 156 C 182 174 183 193 185 213 C 187 233 191 252 197 272 Z" unicode="" />
<glyph horiz-adv-x="879" d="M 692 0 L -16 0 L 4 88 L 276 109 L 532 1305 L 266 1327 L 283 1413 L 991 1413 L 973 1327 L 696 1305 L 440 109 L 709 88 L 692 0 Z M 692 1597 C 664 1597 641 1606 621 1625 C 601 1643 592 1666 592 1694 C 592 1729 603 1759 627 1783 C 650 1807 679 1819 713 1819 C 741 1819 765 1809 784 1790 C 803 1770 813 1746 813 1718 C 813 1685 800 1657 776 1633 C 752 1609 724 1597 692 1597 Z" unicode="" />
<glyph horiz-adv-x="659" d="M 197 272 L 342 860 C 298 845 253 837 207 836 C 161 834 120 839 82 850 L 98 915 C 159 912 221 922 283 944 C 345 966 404 1001 459 1049 L 537 1030 L 348 260 C 345 244 342 229 340 216 C 337 203 336 190 336 178 C 336 148 343 123 357 104 C 371 85 398 76 438 76 C 451 76 466 77 482 81 C 498 84 515 89 535 96 L 516 23 C 498 10 475 0 448 -7 C 421 -14 392 -18 360 -18 C 293 -18 247 -1 221 31 C 195 63 182 105 182 156 C 182 174 183 193 185 213 C 187 233 191 252 197 272 Z" unicode="" />
<glyph horiz-adv-x="2021" d="M 692 0 L -16 0 L 4 88 L 276 109 L 532 1305 L 266 1327 L 283 1413 L 991 1413 L 973 1327 L 696 1305 L 440 109 L 709 88 L 692 0 Z M 1467 1413 L 2157 1413 L 2139 1327 L 1883 1305 L 1684 373 C 1656 243 1601 141 1518 67 C 1434 -6 1329 -43 1201 -43 C 1132 -43 1071 -30 1019 -5 C 966 20 925 52 895 92 C 880 111 868 131 860 152 C 852 173 848 195 848 219 C 848 245 855 268 869 290 C 883 311 905 322 934 322 C 958 322 976 315 987 302 C 998 289 1006 273 1010 254 C 1012 243 1015 229 1019 213 C 1022 196 1027 182 1035 172 C 1051 143 1073 121 1102 107 C 1131 93 1167 86 1209 86 C 1291 86 1360 113 1416 168 C 1472 222 1509 297 1528 391 L 1721 1305 L 1448 1327 L 1467 1413 Z" unicode="" />
<glyph horiz-adv-x="1247" d="M 520 1229 C 492 1229 469 1238 449 1256 C 429 1274 420 1297 420 1325 C 420 1360 431 1390 454 1414 C 477 1438 506 1450 541 1450 C 569 1450 593 1440 612 1421 C 631 1402 641 1378 641 1350 C 641 1316 628 1288 604 1264 C 579 1240 551 1229 520 1229 Z M 197 272 L 342 860 C 298 845 253 837 207 836 C 161 834 120 839 82 850 L 98 915 C 159 912 221 922 283 944 C 345 966 404 1001 459 1049 L 537 1030 L 348 260 C 345 244 342 229 340 216 C 337 203 336 190 336 178 C 336 148 343 123 357 104 C 371 85 398 76 438 76 C 451 76 466 77 482 81 C 498 84 515 89 535 96 L 516 23 C 498 10 475 0 448 -7 C 421 -14 392 -18 360 -18 C 293 -18 247 -1 221 31 C 195 63 182 105 182 156 C 182 174 183 193 185 213 C 187 233 191 252 197 272 Z M 1157 1229 C 1129 1229 1106 1238 1086 1256 C 1066 1274 1057 1297 1057 1325 C 1057 1360 1068 1390 1091 1414 C 1114 1438 1143 1450 1178 1450 C 1206 1450 1230 1440 1249 1421 C 1268 1402 1278 1378 1278 1350 C 1278 1316 1265 1288 1241 1264 C 1216 1240 1188 1229 1157 1229 Z M 778 -16 L 979 860 C 935 845 890 837 845 836 C 800 834 758 839 719 850 L 735 915 C 796 912 858 922 920 944 C 982 966 1042 1001 1098 1049 L 1174 1030 L 909 -104 C 895 -160 879 -211 861 -258 C 843 -304 820 -344 792 -377 C 764 -409 729 -434 689 -452 C 649 -470 601 -479 547 -479 C 497 -479 455 -469 419 -450 C 383 -431 365 -404 365 -369 C 365 -345 372 -325 387 -309 C 402 -293 420 -285 440 -285 C 454 -285 465 -288 474 -295 C 482 -301 491 -308 500 -316 C 508 -324 517 -331 529 -338 C 541 -344 557 -348 578 -348 C 606 -348 630 -342 649 -330 C 668 -318 685 -299 699 -273 C 713 -246 727 -212 739 -171 C 751 -129 764 -78 778 -16 Z" unicode="" />
<glyph horiz-adv-x="1141" d="M 1184 1569 L 1008 1747 L 791 1569 L 658 1569 L 660 1575 L 969 1839 L 1074 1839 L 1317 1575 L 1315 1569 L 1184 1569 Z M 588 1413 L 1278 1413 L 1260 1327 L 1004 1305 L 805 373 C 777 243 722 141 639 67 C 555 -6 450 -43 322 -43 C 253 -43 192 -30 140 -5 C 87 20 46 52 16 92 C 1 111 -10 131 -18 152 C -26 173 -31 195 -31 219 C -31 245 -23 268 -9 290 C 4 311 26 322 55 322 C 79 322 97 315 108 302 C 119 289 127 273 131 254 C 133 243 136 229 140 213 C 143 196 148 182 156 172 C 172 143 194 121 223 107 C 252 93 288 86 330 86 C 412 86 481 113 537 168 C 593 222 630 297 649 391 L 842 1305 L 569 1327 L 588 1413 Z" unicode="" />
</font>
</defs>
</svg>
