<?xml version="1.0" encoding="utf-8" ?><svg version="1.1" xmlns = 'http://www.w3.org/2000/svg'><defs><font id='web' horiz-adv-x="1000">
<font-face font-family="web" descent="-229" cap-height="630" units-per-em="1000" bbox="-80,-279,1034,961" x-height="480" ascent="771" />
<missing-glyph horiz-adv-x="516" d="M 55 569 L 461 569 L 461 0 L 55 0 L 55 569 Z M 84 29 L 431 29 L 431 538 L 84 538 L 84 29 Z M 300 456 L 349 294 L 244 252 L 244 192 L 216 198 L 212 262 L 313 304 L 271 435 L 177 471 L 195 501 C 204 497 213 494 222 491 C 231 487 240 484 249 480 C 257 476 266 472 275 468 C 283 464 292 460 300 456 Z M 202 92 L 215 136 L 257 126 L 245 82 C 241 82 237 82 233 83 C 229 83 225 84 221 85 C 217 86 213 87 210 88 C 206 89 204 90 202 92 Z" /><glyph horiz-adv-x="187" d="" unicode=" " />
<glyph horiz-adv-x="231" d="M 89 675 L 145 687 L 142 186 L 99 195 L 89 675 Z M 76 5 L 98 76 L 164 59 L 145 -12 C 139 -12 132 -11 126 -10 C 119 -9 112 -8 106 -6 C 100 -4 94 -3 89 -1 C 83 1 79 3 76 5 Z" unicode="!" />
<glyph horiz-adv-x="334" d="M 55 440 L 55 698 C 60 698 65 697 71 696 C 76 694 81 693 86 691 C 91 689 96 686 101 684 C 105 681 110 678 114 675 L 97 435 L 55 440 Z M 220 440 L 220 698 C 225 698 230 697 236 696 C 241 694 246 693 251 691 C 256 689 261 686 266 684 C 270 681 275 678 279 675 L 262 435 L 220 440 Z" unicode="&#x22;" />
<glyph horiz-adv-x="443" d="M 172 251 C 179 249 186 248 193 247 C 200 245 207 244 215 243 C 222 241 229 240 237 239 C 245 237 253 236 261 235 L 269 401 C 261 402 253 403 246 405 C 239 407 232 408 225 410 C 217 412 210 413 203 415 C 196 416 189 418 183 420 L 172 251 Z M 51 461 L 64 492 C 70 490 76 489 82 487 C 88 485 95 484 101 482 C 107 480 112 479 118 478 C 124 476 131 475 139 473 L 145 598 L 194 587 L 186 462 C 192 460 199 459 206 458 C 213 456 220 455 227 454 C 234 452 241 451 248 450 C 255 448 263 447 271 446 L 278 585 L 327 574 L 318 439 C 328 437 336 436 342 435 C 348 434 355 433 363 433 C 370 432 377 431 385 430 C 393 429 400 428 408 428 L 395 384 C 388 384 381 385 375 386 C 369 386 362 387 356 388 C 349 388 343 389 339 390 C 334 390 326 392 315 394 L 305 228 C 310 227 320 226 335 224 C 349 222 360 220 367 220 C 374 219 381 218 388 218 L 375 174 C 369 174 362 175 356 176 C 350 176 344 177 338 178 C 332 178 326 179 320 180 C 314 180 308 181 302 183 L 296 90 L 255 96 L 259 190 C 251 191 243 192 235 194 C 227 195 220 196 213 198 C 205 200 198 201 191 203 C 183 204 176 206 170 208 L 163 103 L 122 109 L 127 219 C 118 221 109 223 101 226 C 93 228 85 231 77 234 C 69 236 62 239 55 242 C 47 244 41 247 35 250 L 48 280 C 57 278 65 276 71 274 C 77 272 83 271 89 269 C 95 267 102 266 109 264 C 115 262 122 261 129 260 L 137 432 C 129 434 121 436 113 438 C 105 440 98 443 91 446 C 83 448 76 451 70 453 C 63 455 57 458 51 461 Z" unicode="#" />
<glyph horiz-adv-x="381" d="M 111 397 L 127 275 L 174 242 L 174 429 L 111 397 Z M 283 112 L 211 158 L 211 28 L 280 64 L 283 112 Z M 38 52 L 66 92 C 72 88 79 83 87 79 C 95 74 105 69 115 65 C 125 60 135 55 145 51 C 155 47 164 43 174 40 L 174 183 L 86 240 L 64 405 L 173 471 L 169 610 C 173 609 178 608 182 608 C 186 607 191 606 195 606 C 199 605 204 604 208 603 C 212 601 216 600 220 599 L 215 466 C 223 463 232 460 241 457 C 250 453 259 450 267 447 C 275 443 284 440 292 437 C 300 434 307 431 313 428 L 291 382 L 211 418 L 211 216 L 331 133 L 323 48 L 213 -12 L 218 -144 C 213 -143 208 -142 204 -142 C 200 -141 196 -140 192 -140 C 188 -139 183 -138 179 -137 C 175 -135 171 -134 167 -133 L 172 -9 C 158 -5 145 0 132 4 C 119 9 107 14 95 20 C 83 25 72 30 62 36 C 52 42 44 47 38 52 Z" unicode="$" />
<glyph horiz-adv-x="772" d="M 548 610 L 263 -113 L 221 -102 L 495 624 L 548 610 Z M 289 280 L 183 227 C 173 228 163 230 152 234 C 140 237 129 241 118 245 C 106 249 95 254 85 259 C 75 264 66 269 58 274 L 59 503 L 173 557 C 181 555 191 552 201 549 C 211 545 222 541 233 537 C 243 533 253 528 263 523 C 273 518 282 513 290 508 L 289 280 Z M 243 291 L 244 484 C 240 486 234 488 228 491 C 222 493 215 496 208 499 C 201 501 194 504 186 506 C 178 508 171 511 165 513 L 105 491 L 103 296 C 107 293 113 290 120 288 C 127 285 135 282 143 280 C 151 277 159 274 167 272 C 175 270 183 268 191 266 L 243 291 Z M 713 8 L 606 -46 C 596 -44 586 -42 575 -39 C 564 -35 553 -31 542 -27 C 530 -23 519 -18 509 -13 C 499 -8 490 -3 482 1 L 483 230 L 596 284 C 604 282 614 279 625 276 C 635 272 646 268 657 264 C 667 260 677 255 687 250 C 697 245 706 240 714 235 L 713 8 Z M 667 19 L 668 211 C 663 213 657 215 651 218 C 645 220 638 223 631 226 C 624 228 617 231 609 233 C 601 235 594 238 588 240 L 528 218 L 527 23 C 531 20 537 17 544 15 C 551 12 559 9 567 7 C 575 4 583 1 591 0 C 599 -2 607 -5 615 -7 L 667 19 Z" unicode="%" />
<glyph horiz-adv-x="522" d="M 462 -85 L 411 -92 L 381 92 L 244 -22 C 226 -18 207 -14 189 -8 C 171 -2 153 3 136 10 C 118 17 103 24 89 32 C 75 39 63 46 53 54 L 53 183 L 196 264 L 82 402 L 55 573 L 201 659 C 213 657 226 654 239 651 C 251 648 264 645 277 641 C 289 637 302 633 314 629 C 326 625 337 620 349 616 L 330 571 C 305 579 289 584 282 586 C 275 588 266 591 255 595 C 244 599 233 602 223 605 C 213 608 203 611 195 613 L 106 566 L 128 422 L 258 264 L 105 172 L 105 78 C 115 72 126 67 137 63 C 148 58 159 54 171 50 C 182 46 193 42 205 39 C 216 35 228 32 242 29 L 382 136 L 400 400 L 282 411 L 296 453 C 316 452 336 451 358 449 C 379 447 400 444 420 442 C 440 439 458 436 475 433 C 492 430 506 427 517 424 L 509 388 L 449 396 L 421 132 L 462 -85 Z" unicode="&#x26;" />
<glyph horiz-adv-x="169" d="M 55 440 L 55 698 C 60 698 65 697 71 696 C 76 694 81 693 86 691 C 91 689 96 686 101 684 C 105 681 110 678 114 675 L 97 435 L 55 440 Z" unicode="'" />
<glyph horiz-adv-x="364" d="M 326 -161 L 288 -200 C 275 -193 262 -185 249 -177 C 235 -168 222 -159 210 -150 C 197 -140 186 -131 176 -122 C 166 -112 157 -104 150 -96 L 99 77 L 99 430 L 173 605 L 275 704 C 278 703 282 702 287 700 C 291 698 296 696 301 694 C 305 691 310 688 314 686 C 318 683 322 680 326 678 L 207 582 L 150 431 L 150 87 L 198 -73 C 206 -80 215 -87 225 -95 C 235 -102 245 -109 256 -117 C 267 -125 278 -132 290 -140 C 302 -147 314 -154 326 -161 Z" unicode="(" />
<glyph horiz-adv-x="364" d="M 38 667 L 76 706 C 88 699 101 691 115 683 C 128 674 141 665 154 656 C 166 646 178 637 188 628 C 198 618 207 610 215 602 L 265 429 L 265 76 L 191 -99 L 89 -198 C 85 -197 81 -196 77 -194 C 72 -192 67 -190 63 -188 C 58 -185 53 -182 49 -180 C 45 -177 41 -174 38 -172 L 157 -76 L 215 75 L 215 419 L 166 579 C 158 586 149 593 139 601 C 129 608 118 615 107 623 C 96 631 85 638 73 646 C 61 653 50 660 38 667 Z" unicode=")" />
<glyph horiz-adv-x="459" d="M 411 495 L 255 472 L 353 330 C 349 327 345 325 341 323 C 336 321 331 320 325 318 C 319 316 314 315 310 315 C 305 314 300 313 294 312 L 216 463 L 98 333 C 94 336 90 340 88 344 C 85 348 82 351 80 355 C 78 359 76 363 75 367 C 73 371 72 375 70 381 L 186 482 L 38 553 C 41 557 44 562 47 566 C 50 570 53 573 57 577 C 61 581 64 584 68 587 C 72 590 75 593 79 595 L 208 516 L 228 715 C 232 714 237 713 242 711 C 246 709 251 707 256 705 C 260 702 264 699 268 696 C 272 693 276 690 280 687 L 245 508 L 406 548 C 406 543 407 538 408 534 C 408 530 409 525 410 521 C 410 517 411 512 411 508 C 411 504 411 499 411 495 Z" unicode="*" />
<glyph horiz-adv-x="431" d="M 53 243 L 67 276 C 73 274 81 273 91 271 C 100 269 110 267 122 265 C 133 263 145 261 158 259 C 170 257 183 255 197 253 L 196 421 C 200 421 204 420 208 420 C 212 419 217 418 221 417 C 225 415 230 414 234 413 C 238 412 242 411 245 410 L 241 246 C 253 244 265 242 277 241 C 289 239 300 238 312 237 C 324 235 335 234 345 233 C 355 232 366 231 376 231 L 362 182 C 353 182 344 183 334 184 C 324 184 314 185 304 187 C 294 188 283 189 273 191 C 262 193 251 195 241 197 L 243 51 C 239 51 235 51 231 52 C 226 52 221 53 216 55 C 211 56 206 57 202 58 C 198 59 194 60 191 62 L 196 205 C 180 207 164 210 150 214 C 135 217 121 220 109 224 C 96 227 85 230 75 234 C 65 237 58 240 53 243 Z" unicode="+" />
<glyph horiz-adv-x="220" d="M 157 65 L 170 -44 L 109 -186 L 66 -174 L 114 -46 L 94 80 L 157 65 Z" unicode="," />
<glyph horiz-adv-x="323" d="M 52 239 L 65 273 C 80 270 95 267 111 265 C 126 262 142 259 159 257 C 176 254 194 251 214 249 C 233 247 253 245 275 243 L 261 191 C 241 193 220 195 200 199 C 180 203 160 207 142 211 C 123 215 106 220 91 225 C 75 229 62 234 52 239 Z" unicode="-" />
<glyph horiz-adv-x="220" d="M 82 5 L 105 76 L 170 59 L 152 -12 C 146 -12 139 -11 133 -10 C 126 -9 119 -8 113 -6 C 107 -4 101 -3 96 -1 C 90 1 86 3 82 5 Z" unicode="." />
<glyph horiz-adv-x="324" d="M 299 683 L 94 -78 L 53 -67 L 248 692 L 299 683 Z" unicode="/" />
<glyph horiz-adv-x="429" d="M 375 57 L 219 -18 C 205 -15 190 -11 176 -6 C 161 0 146 5 132 11 C 118 17 104 25 90 33 C 76 41 64 49 53 57 L 54 396 L 206 469 C 219 466 233 462 248 458 C 263 453 278 447 293 441 C 308 435 323 428 337 421 C 351 413 364 406 376 399 L 375 57 Z M 326 68 L 327 378 C 320 381 312 385 302 389 C 292 393 280 396 268 400 C 256 404 243 407 231 411 C 218 414 206 417 194 420 L 102 384 L 101 76 C 108 72 117 68 128 64 C 138 60 150 55 162 51 C 174 47 186 43 198 39 C 210 35 222 32 234 30 L 326 68 Z" unicode="0" />
<glyph horiz-adv-x="268" d="M 185 437 L 183 41 L 258 33 L 244 -11 C 225 -10 205 -8 185 -6 C 165 -4 145 -1 126 2 C 107 5 90 8 74 12 C 58 16 44 19 34 23 L 46 56 L 133 45 L 135 406 L 40 417 L 53 460 C 63 459 74 458 86 456 C 98 454 111 453 123 451 C 135 449 146 446 157 444 C 167 441 177 439 185 437 Z" unicode="1" />
<glyph horiz-adv-x="397" d="M 318 235 L 87 43 C 99 37 114 32 130 27 C 146 22 163 17 181 12 C 199 7 218 3 238 0 C 257 -4 276 -7 294 -10 L 319 146 L 369 132 L 334 -15 L 271 -53 C 250 -50 228 -46 206 -41 C 184 -35 162 -29 140 -23 C 118 -17 98 -10 80 -3 C 62 4 46 11 32 19 L 53 63 L 271 246 L 285 385 C 276 389 267 394 257 398 C 247 402 238 405 228 409 C 218 412 209 415 199 418 C 189 421 178 424 168 427 L 103 394 L 124 227 L 71 232 L 56 410 L 186 472 C 200 468 214 464 228 460 C 242 455 255 450 269 444 C 282 438 295 431 307 425 C 319 419 329 412 338 406 L 318 235 Z" unicode="2" />
<glyph horiz-adv-x="399" d="M 308 -92 L 294 22 C 274 29 258 35 244 40 C 230 44 217 49 204 53 C 191 57 178 62 164 66 C 150 70 135 74 119 78 L 132 118 L 262 218 L 280 385 C 270 389 261 394 252 398 C 243 402 234 405 224 409 C 214 412 205 415 195 418 C 185 421 174 424 164 427 L 99 394 L 114 253 L 62 258 L 52 410 L 182 472 C 196 468 210 464 224 460 C 238 455 251 450 265 444 C 278 438 290 431 302 425 C 314 419 324 412 333 406 L 309 207 L 176 108 C 194 103 209 99 222 95 C 235 91 248 88 261 84 C 274 80 287 75 301 71 C 315 66 329 61 343 55 L 360 -110 L 204 -198 C 188 -194 170 -189 150 -182 C 130 -174 111 -166 91 -156 C 71 -146 54 -137 38 -128 C 22 -118 10 -110 2 -103 L 26 -58 C 36 -66 49 -74 64 -83 C 78 -91 94 -100 110 -109 C 126 -117 143 -125 159 -133 C 175 -141 191 -147 206 -153 L 308 -92 Z" unicode="3" />
<glyph horiz-adv-x="408" d="M 267 413 L 210 418 L 226 461 C 232 460 239 459 247 458 C 255 456 263 455 271 453 C 279 451 286 448 294 446 C 302 444 309 441 316 439 L 315 23 L 397 16 L 383 -32 C 373 -31 365 -30 361 -30 C 356 -30 351 -29 345 -29 C 339 -28 334 -27 328 -26 C 322 -25 316 -24 312 -24 L 311 -196 L 262 -187 L 263 -18 C 239 -14 217 -9 196 -5 C 174 -1 154 3 135 9 C 115 15 97 21 79 27 C 61 33 45 39 30 47 L 108 293 L 84 454 L 136 464 L 152 295 L 88 68 C 98 64 110 61 123 58 C 135 54 149 51 164 48 C 178 44 194 41 211 38 C 228 34 246 31 265 29 L 267 413 Z" unicode="4" />
<glyph horiz-adv-x="365" d="M 286 -105 L 272 43 C 254 51 237 59 221 66 C 205 73 189 80 173 86 C 157 92 140 98 124 104 C 107 110 88 116 67 124 L 69 393 L 105 448 L 272 417 L 280 513 L 327 505 L 307 363 L 118 399 L 116 157 C 135 151 153 145 170 139 C 187 133 204 127 220 121 C 236 114 253 107 269 100 C 285 93 302 85 319 77 L 338 -116 L 204 -198 C 188 -194 170 -189 150 -182 C 130 -174 111 -166 91 -156 C 71 -146 54 -137 38 -128 C 22 -118 10 -110 2 -103 L 26 -58 C 36 -66 49 -74 64 -83 C 78 -91 94 -100 110 -109 C 126 -117 143 -125 159 -133 C 175 -141 191 -147 206 -153 L 286 -105 Z" unicode="5" />
<glyph horiz-adv-x="404" d="M 53 56 L 71 393 L 166 538 L 337 613 L 375 572 L 201 510 L 118 381 C 140 375 160 370 180 364 C 200 358 219 351 237 345 C 255 338 272 331 290 323 C 307 315 324 307 342 299 L 359 59 L 224 -18 C 208 -14 192 -10 176 -4 C 160 1 144 7 129 14 C 113 21 99 28 86 35 C 73 42 62 49 53 56 Z M 295 272 C 279 279 263 285 249 291 C 234 297 219 302 205 308 C 191 313 176 318 162 323 C 147 327 131 332 114 337 L 101 75 C 110 70 120 65 131 61 C 141 57 152 53 164 49 C 175 45 186 41 198 38 C 209 34 220 31 232 28 L 307 73 L 295 272 Z" unicode="6" />
<glyph horiz-adv-x="360" d="M 340 413 L 242 -18 L 112 -187 L 61 -169 L 196 -7 L 285 380 C 264 384 246 387 231 390 C 215 392 200 395 185 397 C 169 399 153 401 137 403 C 120 405 102 406 84 407 L 99 224 L 46 230 L 35 409 L 105 458 C 125 456 146 453 166 451 C 186 448 205 445 225 441 C 245 437 264 433 283 429 C 302 424 321 419 340 413 Z" unicode="7" />
<glyph horiz-adv-x="415" d="M 221 -30 C 204 -27 186 -22 167 -16 C 147 -9 128 -1 110 7 C 91 15 74 24 60 33 C 45 41 33 49 25 56 L 33 178 L 135 320 L 88 354 L 69 564 L 206 628 C 218 625 231 621 245 616 C 258 611 271 606 285 600 C 298 594 310 588 322 582 C 334 575 344 569 354 563 L 339 387 L 269 287 L 376 210 L 387 52 L 221 -30 Z M 188 584 L 118 549 L 134 378 L 240 306 L 293 396 L 304 543 C 294 547 285 551 276 555 C 266 559 257 562 247 566 C 237 569 227 572 217 575 C 207 578 198 581 188 584 Z M 324 190 L 164 299 L 80 170 L 75 79 C 85 72 97 65 110 59 C 122 53 135 47 148 41 C 161 35 174 29 187 24 C 199 19 211 15 223 11 L 335 66 L 324 190 Z" unicode="8" />
<glyph horiz-adv-x="404" d="M 351 396 L 332 29 L 238 -117 L 67 -191 L 29 -151 L 202 -89 L 286 41 C 264 46 243 52 223 58 C 203 64 184 70 166 77 C 148 83 130 90 113 98 C 96 105 79 113 62 122 L 45 393 L 179 470 C 194 466 210 462 226 456 C 242 450 258 444 274 438 C 290 431 304 424 317 417 C 330 409 341 402 351 396 Z M 109 150 C 125 142 140 136 155 130 C 169 124 184 118 198 113 C 212 108 226 103 241 99 C 255 94 271 89 289 85 L 302 377 C 292 381 282 386 272 390 C 262 394 251 399 240 403 C 228 407 217 411 206 415 C 194 419 183 422 172 425 L 97 380 L 109 150 Z" unicode="9" />
<glyph horiz-adv-x="253" d="M 82 324 L 105 395 L 170 378 L 152 307 C 146 307 139 307 133 308 C 126 309 119 310 113 312 C 107 314 101 316 96 318 C 90 320 86 322 82 324 Z M 82 58 L 105 129 L 170 112 L 152 41 C 146 41 139 41 133 42 C 126 43 119 44 113 46 C 107 48 101 50 96 52 C 90 54 86 56 82 58 Z" unicode=":" />
<glyph horiz-adv-x="253" d="M 82 324 L 105 395 L 170 378 L 152 307 C 146 307 139 307 133 308 C 126 309 119 310 113 312 C 107 314 101 316 96 318 C 90 320 86 322 82 324 Z M 157 65 L 170 -44 L 109 -186 L 66 -174 L 114 -46 L 94 80 L 157 65 Z" unicode=";" />
<glyph horiz-adv-x="375" d="M 52 207 L 68 243 L 273 417 L 309 387 L 108 224 C 120 212 133 200 149 186 C 164 172 180 159 197 145 C 214 131 231 118 248 105 C 265 92 281 80 297 70 L 262 32 C 245 43 227 56 209 71 C 190 85 171 101 152 117 C 132 133 114 148 97 164 C 80 179 65 193 52 207 Z" unicode="&#x3C;" />
<glyph horiz-adv-x="426" d="M 63 319 L 77 353 C 91 349 110 346 134 342 C 158 338 183 333 211 329 C 239 325 266 321 294 318 C 321 315 345 313 367 311 L 353 260 C 329 261 303 264 274 268 C 244 272 215 278 187 284 C 159 290 134 296 112 302 C 90 308 73 314 63 319 Z M 46 142 L 61 176 C 75 172 94 169 118 165 C 142 161 167 156 195 152 C 223 148 250 144 278 141 C 305 138 329 136 351 134 L 337 82 C 313 84 287 87 258 91 C 228 95 199 101 171 107 C 142 113 117 119 95 125 C 73 131 56 137 46 142 Z" unicode="=" />
<glyph horiz-adv-x="375" d="M 323 242 L 307 206 L 101 32 L 65 62 L 267 224 C 255 236 241 248 226 262 C 210 275 194 288 178 302 C 161 316 144 329 127 342 C 110 355 94 367 78 378 L 113 417 C 129 405 147 392 166 378 C 185 363 204 348 223 332 C 242 316 260 300 278 284 C 295 268 310 254 323 242 Z" unicode="&#x3E;" />
<glyph horiz-adv-x="335" d="M 210 574 L 270 321 L 153 251 L 152 166 L 108 175 L 102 259 L 216 335 L 163 549 L 43 637 L 79 678 L 210 574 Z M 85 5 L 107 76 L 173 59 L 154 -12 C 148 -12 141 -11 135 -10 C 128 -9 121 -8 115 -6 C 109 -4 103 -3 98 -1 C 92 1 88 3 85 5 Z" unicode="?" />
<glyph horiz-adv-x="886" d="M 576 471 L 573 46 C 579 44 586 43 595 41 C 604 39 613 37 623 35 C 633 33 642 32 651 31 C 660 29 668 28 675 28 L 765 253 L 714 506 C 693 519 670 532 645 545 C 620 558 594 570 567 581 C 540 592 513 602 485 612 C 457 621 430 629 404 635 L 195 503 L 123 255 L 183 -24 C 195 -33 213 -44 235 -56 C 257 -68 281 -80 308 -92 C 334 -104 361 -115 388 -126 C 415 -136 440 -145 462 -151 L 662 -78 L 676 -124 L 444 -197 C 421 -191 395 -183 366 -171 C 337 -159 308 -146 278 -131 C 248 -116 221 -101 196 -86 C 171 -71 151 -57 135 -45 L 70 246 L 154 520 L 416 680 C 450 673 482 665 513 655 C 544 645 574 633 602 620 C 630 607 657 593 683 578 C 709 562 736 546 762 528 L 813 267 L 690 -22 C 676 -20 662 -18 646 -16 C 630 -13 614 -10 599 -6 C 583 -2 569 2 556 6 C 543 10 533 14 525 18 L 527 169 L 437 -14 C 425 -11 413 -7 401 -3 C 388 1 375 6 363 12 C 351 17 339 23 328 29 C 317 35 308 41 300 47 L 302 389 L 439 464 C 446 461 454 458 462 454 C 470 450 478 447 486 443 C 494 439 502 434 510 430 C 518 426 525 421 532 417 L 543 502 C 547 500 550 498 554 496 C 557 494 560 491 563 489 C 566 486 569 483 571 480 C 573 477 574 474 576 471 Z M 349 377 L 348 69 C 352 66 358 63 364 61 C 370 59 377 56 385 54 C 392 51 399 49 407 47 C 414 45 421 43 428 42 L 527 237 L 528 373 C 520 377 511 381 502 385 C 493 389 484 393 476 397 C 467 401 459 404 451 408 C 443 411 435 414 427 418 L 349 377 Z" unicode="@" />
<glyph horiz-adv-x="550" d="M 136 281 C 146 275 158 268 172 261 C 186 253 202 246 218 239 C 234 231 250 224 266 218 C 282 211 296 205 308 201 L 413 233 L 372 554 C 362 559 353 564 345 568 C 336 572 327 576 318 580 C 309 584 300 587 292 591 C 283 594 274 597 266 599 L 178 559 L 136 281 Z M 436 52 L 418 195 L 298 162 C 286 165 272 169 256 175 C 240 181 225 187 209 193 C 193 199 178 206 164 213 C 150 219 138 225 129 231 L 102 50 C 110 48 120 47 131 45 C 141 43 152 42 164 41 C 176 39 188 38 200 37 C 212 36 225 35 237 35 L 222 -10 C 202 -9 183 -8 165 -6 C 146 -4 128 -1 112 1 C 95 3 80 6 66 9 C 52 12 40 15 31 19 L 31 24 L 53 56 L 139 579 L 268 649 C 282 644 296 639 310 634 C 324 628 337 622 349 616 C 361 610 373 603 385 596 C 396 589 407 582 419 574 L 487 43 L 547 35 L 533 -8 C 523 -7 512 -6 501 -5 C 490 -3 479 -2 469 0 C 458 2 448 4 439 6 C 429 8 421 11 414 14 L 414 20 L 436 52 Z" unicode="A" />
<glyph horiz-adv-x="540" d="M 302 305 L 399 516 C 392 524 384 532 374 541 C 364 550 354 559 343 567 C 331 575 319 583 307 590 C 295 597 283 603 272 607 L 152 459 L 152 330 C 166 328 180 326 193 324 C 206 322 219 320 231 318 C 243 316 254 314 266 312 C 278 310 290 307 302 305 Z M 152 285 L 152 53 L 312 16 L 453 79 L 444 228 C 423 233 403 238 383 242 C 363 246 341 251 318 256 C 294 261 269 266 241 271 C 213 275 183 280 152 285 Z M 100 64 L 100 592 L 23 601 L 38 645 C 51 643 63 642 73 641 C 83 639 93 637 102 635 C 111 633 120 630 128 628 C 136 625 144 622 152 618 L 152 502 L 266 658 C 285 652 304 645 323 635 C 341 625 359 615 375 603 C 391 591 406 578 420 565 C 433 551 444 538 454 526 L 339 297 C 353 294 367 291 382 287 C 396 283 411 278 425 274 C 439 270 451 266 463 262 C 475 258 485 254 493 251 L 504 61 L 301 -26 C 282 -22 260 -18 236 -13 C 211 -7 185 -1 159 5 C 132 11 106 18 82 25 C 58 31 37 38 20 44 L 35 78 L 100 64 Z" unicode="B" />
<glyph horiz-adv-x="491" d="M 402 590 L 418 683 L 449 672 L 426 344 L 374 352 L 396 544 C 384 548 372 553 358 558 C 344 563 329 568 315 573 C 300 578 286 583 272 587 C 258 591 245 595 233 598 L 120 543 L 120 98 C 129 93 141 87 156 81 C 171 74 188 67 206 61 C 224 54 241 48 259 42 C 277 36 292 32 306 29 L 465 113 L 481 69 L 291 -19 C 271 -14 251 -8 229 -1 C 207 5 185 13 165 22 C 144 31 125 40 108 49 C 91 57 78 65 68 73 L 68 557 L 244 647 C 259 643 273 638 287 634 C 301 630 314 625 327 621 C 340 616 353 611 365 606 C 377 601 390 596 402 590 Z" unicode="C" />
<glyph horiz-adv-x="564" d="M 309 20 L 404 59 L 466 263 L 405 535 C 383 542 363 549 344 555 C 325 561 306 566 287 572 C 268 577 249 582 229 587 C 209 592 186 598 161 604 L 161 53 C 179 49 192 45 202 43 C 212 41 222 38 233 36 C 244 33 256 30 268 28 C 280 25 294 22 309 20 Z M 443 35 L 301 -24 C 282 -20 261 -16 237 -11 C 213 -6 188 0 163 5 C 137 11 113 18 90 25 C 66 31 46 38 29 44 L 44 78 L 109 64 L 109 615 L 5 632 L 31 671 C 69 665 109 658 149 650 C 189 642 227 632 264 622 C 301 612 335 601 367 590 C 398 579 425 568 449 558 L 518 272 L 443 35 Z" unicode="D" />
<glyph horiz-adv-x="477" d="M 43 555 L 237 647 C 249 643 260 640 272 636 C 284 632 295 628 307 624 C 318 619 329 614 340 609 C 350 604 362 599 375 593 L 392 683 L 422 672 L 407 410 L 356 418 L 370 553 C 357 559 345 564 333 569 C 321 573 309 577 298 581 C 286 585 275 588 264 592 C 252 595 241 598 229 601 L 99 543 L 142 310 L 378 298 L 362 250 L 139 272 L 109 99 C 117 93 129 87 145 80 C 161 73 178 66 196 59 C 214 51 232 45 248 39 C 264 33 278 30 288 29 L 452 107 L 468 63 L 272 -20 C 251 -16 230 -11 209 -4 C 188 2 168 10 149 20 C 129 29 112 38 96 48 C 80 57 66 66 55 75 L 95 289 L 43 555 Z" unicode="E" />
<glyph horiz-adv-x="418" d="M 36 555 L 209 647 C 221 643 234 640 246 636 C 258 632 269 627 281 623 C 292 619 303 614 314 609 C 324 604 335 599 346 593 L 363 683 L 394 672 L 377 388 L 326 396 L 341 553 C 327 559 315 564 303 568 C 291 572 280 577 269 581 C 258 585 247 588 236 592 C 224 595 213 598 201 601 L 92 543 L 151 277 L 374 265 L 358 220 L 155 239 L 128 47 C 137 45 147 44 157 43 C 167 41 178 40 190 39 C 202 37 214 36 226 35 C 238 34 250 33 262 33 L 248 -10 C 228 -9 209 -8 191 -6 C 172 -4 154 -1 138 1 C 121 3 106 6 92 9 C 78 12 66 15 56 19 L 56 24 L 78 56 L 108 245 L 36 555 Z" unicode="F" />
<glyph horiz-adv-x="544" d="M 68 557 L 244 647 C 259 644 274 641 289 637 C 303 633 318 628 332 624 C 346 619 359 614 372 609 C 385 604 398 599 410 593 L 427 683 L 458 672 L 440 397 L 389 405 L 405 548 C 393 552 380 556 366 561 C 351 566 336 571 320 576 C 304 580 288 584 273 588 C 258 592 245 595 233 598 L 120 543 L 120 99 C 129 94 141 88 155 82 C 169 76 185 69 203 63 C 221 56 238 50 256 44 C 274 38 290 33 306 29 L 441 100 L 452 227 C 442 228 431 230 418 232 C 404 234 390 236 375 238 C 359 240 344 241 329 243 C 313 245 299 246 286 248 L 301 294 C 317 292 334 290 352 288 C 369 286 386 283 403 281 C 419 278 435 275 450 271 C 465 267 479 264 493 261 L 480 -59 L 343 -132 L 304 -97 L 430 -48 L 439 59 L 291 -19 C 269 -13 248 -7 226 0 C 204 6 183 14 163 23 C 143 31 124 40 108 48 C 92 56 78 65 68 73 L 68 557 Z" unicode="G" />
<glyph horiz-adv-x="561" d="M 564 35 L 550 -9 C 531 -7 512 -5 494 -3 C 475 -1 457 1 440 4 C 422 7 406 10 392 14 C 377 17 364 20 354 24 L 363 57 L 426 50 L 426 277 L 282 235 C 272 237 260 241 248 245 C 236 249 223 254 210 260 C 197 265 184 270 172 276 C 159 281 147 286 137 292 L 137 44 L 240 33 L 224 -10 C 204 -9 184 -7 164 -5 C 144 -3 124 0 106 2 C 87 5 70 8 54 12 C 38 16 25 20 14 24 L 23 57 L 86 50 L 86 580 L 5 591 L 21 634 C 39 632 56 631 73 629 C 89 627 105 624 119 622 C 133 620 145 617 157 615 C 168 612 178 609 187 606 L 187 602 L 137 576 L 137 346 C 148 340 160 334 174 328 C 188 321 202 314 216 308 C 230 301 244 295 257 290 C 270 284 281 280 291 277 L 426 318 L 426 582 L 358 591 L 371 634 C 389 632 405 631 421 629 C 436 627 450 624 463 622 C 476 620 488 617 498 615 C 508 613 518 610 527 607 L 527 603 L 477 577 L 477 44 L 564 35 Z" unicode="H" />
<glyph horiz-adv-x="265" d="M 108 50 L 108 581 L 5 592 L 21 634 C 40 633 61 631 83 629 C 105 626 126 623 147 620 C 167 617 186 614 203 610 C 220 606 234 602 246 598 L 238 562 L 159 574 L 159 44 L 262 33 L 246 -10 C 226 -9 206 -7 184 -5 C 162 -2 141 0 121 4 C 100 7 81 10 64 14 C 46 18 32 22 21 26 L 30 59 L 108 50 Z" unicode="I" />
<glyph horiz-adv-x="258" d="M 185 573 L 185 -80 L 90 -131 C 83 -130 74 -128 63 -126 C 51 -123 39 -120 26 -116 C 12 -112 0 -109 -12 -105 C -24 -101 -35 -97 -43 -94 L -26 -47 L 94 -89 L 133 -67 L 133 580 L 9 591 L 24 634 C 44 632 65 631 87 629 C 109 627 130 624 151 621 C 171 618 190 615 208 612 C 225 608 239 605 250 602 L 241 565 L 185 573 Z" unicode="J" />
<glyph horiz-adv-x="525" d="M 100 50 L 100 580 L 20 591 L 35 634 C 48 632 60 631 71 630 C 81 628 91 627 101 625 C 110 623 119 620 127 617 C 135 613 144 610 152 606 L 152 318 L 278 287 L 372 455 L 407 637 L 460 620 L 419 440 L 313 269 L 461 47 L 540 36 L 526 -8 C 513 -6 501 -4 490 -2 C 478 0 468 2 458 4 C 448 6 440 9 432 12 C 424 14 418 17 413 20 L 269 242 L 152 271 L 152 44 L 254 33 L 239 -10 C 219 -9 199 -7 179 -5 C 159 -3 139 0 121 2 C 102 5 85 8 69 12 C 53 16 40 20 29 24 L 37 57 L 100 50 Z" unicode="K" />
<glyph horiz-adv-x="441" d="M 436 136 L 331 -33 C 312 -29 289 -25 261 -19 C 233 -13 203 -6 173 1 C 142 8 113 15 86 23 C 59 31 37 38 20 44 L 35 78 L 100 64 L 100 582 L 20 591 L 35 634 C 55 632 76 630 98 628 C 120 626 141 623 162 620 C 182 616 201 613 219 609 C 236 605 250 602 261 598 L 252 562 L 152 576 L 152 53 C 164 49 177 46 191 43 C 205 40 219 37 233 34 C 247 31 260 28 274 25 C 288 22 304 19 323 15 L 399 172 L 436 136 Z" unicode="L" />
<glyph horiz-adv-x="685" d="M 562 47 L 512 480 L 364 159 L 359 42 C 355 42 351 43 347 45 C 343 46 338 47 334 49 C 330 51 326 53 322 55 C 318 57 315 60 313 62 L 309 168 L 158 481 L 103 45 L 201 34 L 188 -9 C 169 -7 152 -6 137 -4 C 121 -2 107 0 95 2 C 83 4 71 6 61 9 C 51 12 41 15 33 19 L 33 24 L 55 56 L 131 582 L 63 591 L 76 634 C 86 633 96 632 106 631 C 116 629 127 628 137 626 C 147 624 156 622 164 620 C 172 618 180 616 187 614 L 178 552 L 343 209 L 505 546 L 510 635 C 515 634 520 633 525 632 C 530 631 535 630 540 629 C 545 627 550 626 555 624 C 559 622 564 621 568 619 L 555 540 L 613 43 L 691 35 L 676 -9 C 656 -7 636 -5 616 -3 C 596 -1 578 1 560 4 C 542 7 526 10 512 13 C 497 16 485 19 475 23 L 487 54 L 562 47 Z" unicode="M" />
<glyph horiz-adv-x="564" d="M 356 586 L 373 631 C 386 629 398 628 410 626 C 422 624 432 622 442 620 C 452 618 461 615 469 613 C 477 611 485 608 493 606 L 493 -7 L 436 5 L 444 102 L 125 480 L 120 57 C 128 55 138 54 150 52 C 162 50 174 48 187 46 C 200 44 213 43 227 41 C 241 39 254 38 266 37 L 252 -9 C 230 -7 209 -4 189 -2 C 169 0 150 3 132 7 C 114 10 99 14 85 18 C 71 22 60 25 50 29 L 50 34 L 71 66 L 85 541 L 5 607 L 54 641 L 444 182 L 444 573 C 439 573 433 574 427 576 C 420 577 413 578 405 579 C 397 580 389 581 381 582 C 373 583 364 584 356 586 Z" unicode="N" />
<glyph horiz-adv-x="587" d="M 516 78 L 310 -26 C 290 -22 268 -16 246 -8 C 223 0 200 7 178 17 C 155 27 134 37 115 47 C 96 57 80 67 68 77 L 68 555 L 274 647 C 292 643 312 638 335 631 C 358 623 381 615 405 605 C 428 595 449 584 469 573 C 489 562 504 552 516 543 L 516 78 Z M 322 19 L 464 97 L 464 522 C 452 528 438 536 421 544 C 403 552 385 559 366 567 C 346 575 327 582 309 588 C 291 594 275 599 262 602 L 120 537 L 120 98 C 131 92 145 85 163 77 C 180 69 198 62 218 54 C 237 46 256 39 274 33 C 292 27 308 22 322 19 Z" unicode="O" />
<glyph horiz-adv-x="505" d="M 148 448 L 148 222 C 155 218 164 214 176 210 C 188 206 200 201 214 197 C 227 193 240 189 253 185 C 266 181 278 178 289 176 L 402 224 L 418 540 C 409 544 399 549 389 555 C 378 560 367 565 355 571 C 343 576 331 581 320 586 C 308 590 298 594 289 597 L 148 448 Z M 97 50 L 97 581 L 20 590 L 35 634 C 48 632 60 631 70 630 C 80 628 90 626 99 624 C 108 622 117 619 125 617 C 133 614 140 611 148 607 L 148 491 L 285 647 C 299 643 315 637 333 631 C 350 624 367 617 384 609 C 401 601 417 592 432 584 C 446 575 459 567 470 560 L 448 208 L 285 132 C 275 134 263 136 251 140 C 239 143 226 147 214 151 C 201 155 189 159 178 163 C 166 167 156 172 148 177 L 148 44 L 251 33 L 235 -10 C 215 -9 195 -7 175 -5 C 155 -3 135 0 117 2 C 98 5 81 8 65 12 C 49 16 36 20 25 24 L 34 57 L 97 50 Z" unicode="P" />
<glyph horiz-adv-x="587" d="M 516 89 L 298 -20 C 316 -28 338 -38 364 -49 C 390 -60 417 -72 447 -84 C 476 -96 505 -107 535 -118 C 564 -129 592 -139 618 -149 L 787 -66 L 807 -111 L 601 -196 C 574 -186 545 -176 515 -164 C 484 -152 453 -140 422 -127 C 390 -114 360 -101 331 -88 C 301 -74 274 -61 250 -49 L 263 -16 C 245 -11 226 -5 208 1 C 189 8 171 16 154 24 C 137 32 121 40 106 49 C 91 57 78 66 68 75 L 68 555 L 274 647 C 292 643 312 638 335 631 C 358 623 381 615 405 605 C 428 595 449 584 469 573 C 489 562 504 552 516 543 L 516 89 Z M 394 166 L 323 31 L 464 108 L 464 522 C 452 528 438 536 421 544 C 403 552 385 559 366 567 C 346 575 327 582 309 588 C 291 594 275 599 262 602 L 120 537 L 120 96 C 130 90 141 84 154 78 C 167 72 181 66 195 60 C 209 54 224 48 239 42 C 253 36 267 32 281 28 L 345 183 L 394 166 Z" unicode="Q" />
<glyph horiz-adv-x="540" d="M 148 448 L 148 277 C 156 273 167 268 181 264 C 194 259 208 254 224 250 C 239 245 254 241 269 237 C 283 233 296 229 308 227 L 400 287 L 415 546 C 407 550 397 554 387 559 C 377 563 366 568 355 573 C 343 577 332 582 321 586 C 309 590 299 593 290 596 L 148 448 Z M 97 50 L 97 581 L 20 590 L 35 634 C 48 632 60 631 70 630 C 80 628 90 626 99 624 C 108 622 117 619 125 617 C 133 614 140 611 148 607 L 148 491 L 285 647 C 300 643 316 638 333 632 C 350 626 367 619 383 612 C 399 604 415 597 429 589 C 443 581 456 573 466 566 L 444 268 L 335 201 L 462 47 L 552 34 L 538 -10 C 524 -8 511 -6 499 -4 C 486 -2 474 0 463 3 C 451 5 441 8 432 11 C 423 14 416 17 410 20 L 276 188 C 266 190 255 192 244 196 C 232 199 221 203 210 207 C 198 211 187 214 177 218 C 166 222 156 226 148 230 L 148 44 L 251 33 L 235 -10 C 215 -9 195 -7 175 -5 C 155 -3 135 0 117 2 C 98 5 81 8 65 12 C 49 16 36 20 25 24 L 34 57 L 97 50 Z" unicode="R" />
<glyph horiz-adv-x="483" d="M 394 161 L 129 355 L 92 91 C 108 83 123 75 139 67 C 154 59 169 53 184 47 C 198 41 212 35 225 31 C 237 26 249 22 260 20 L 385 68 L 394 161 Z M 429 50 L 251 -28 C 240 -25 228 -21 215 -17 C 201 -12 187 -7 173 -1 C 158 4 143 10 128 17 C 112 24 98 31 84 38 L 70 -40 L 36 -31 L 81 372 L 116 377 L 81 566 L 229 647 C 241 644 254 641 267 638 C 279 634 292 631 304 627 C 316 623 327 618 339 614 C 351 610 362 605 374 601 L 389 683 L 420 672 L 404 375 L 355 383 L 369 555 C 357 559 345 564 333 568 C 321 572 308 575 296 579 C 283 583 270 586 258 589 C 246 592 234 595 222 597 L 131 553 L 164 394 L 444 186 L 429 50 Z" unicode="S" />
<glyph horiz-adv-x="506" d="M 237 50 L 237 574 L 78 591 L 66 345 L 19 351 L 41 634 L 453 598 L 461 678 L 496 667 L 483 399 L 437 405 L 449 551 L 291 569 L 291 43 L 408 32 L 393 -10 C 372 -9 349 -7 325 -5 C 300 -2 276 0 252 4 C 228 7 206 11 186 15 C 166 19 151 22 140 26 L 148 61 L 237 50 Z" unicode="T" />
<glyph horiz-adv-x="569" d="M 86 576 L 5 587 L 21 630 C 39 629 56 628 73 626 C 89 624 105 621 119 619 C 133 617 145 614 157 612 C 168 609 178 606 187 603 L 187 598 L 137 573 L 137 96 C 145 90 154 85 164 80 C 174 74 185 69 197 63 C 209 57 221 52 234 47 C 246 42 259 38 271 34 L 429 250 L 429 571 L 268 588 L 282 632 C 298 631 316 629 336 627 C 356 625 375 622 394 619 C 412 615 429 612 445 608 C 460 604 472 601 481 597 L 481 45 L 571 34 L 557 -9 C 542 -7 529 -6 517 -4 C 505 -2 493 -1 483 1 C 473 3 463 5 454 8 C 444 11 436 15 429 19 L 429 193 L 282 -18 C 266 -13 248 -7 230 -1 C 212 5 194 13 176 22 C 158 30 142 39 126 49 C 110 58 97 67 86 76 L 86 576 Z" unicode="U" />
<glyph horiz-adv-x="528" d="M 504 570 L 418 66 L 286 -21 C 271 -17 256 -12 242 -7 C 227 -1 213 4 199 12 C 185 19 171 27 159 35 C 146 43 134 52 124 62 L 55 583 L -6 591 L 10 634 C 23 633 37 632 51 630 C 65 628 79 625 93 623 C 107 621 119 618 130 616 C 141 613 150 610 157 608 L 157 604 L 106 577 L 172 81 C 178 77 185 72 195 67 C 205 61 215 56 226 51 C 237 46 248 42 259 38 C 269 34 279 31 288 29 L 377 81 L 454 576 C 444 577 433 578 421 580 C 408 582 394 583 380 585 C 365 587 350 588 334 589 C 318 590 304 591 290 592 L 305 637 C 327 635 349 634 371 632 C 393 630 414 627 434 625 C 454 622 471 619 487 616 C 503 613 516 610 526 607 L 526 602 L 504 570 Z" unicode="V" />
<glyph horiz-adv-x="751" d="M 727 570 L 657 67 L 520 -21 C 506 -16 493 -10 479 -4 C 465 1 452 8 440 15 C 428 22 416 29 405 37 C 394 45 384 53 375 61 L 266 -21 C 251 -16 237 -11 223 -5 C 209 0 195 6 182 13 C 168 20 155 28 143 36 C 131 44 119 53 109 62 L 55 583 L -6 591 L 10 634 C 23 633 37 632 51 630 C 65 628 79 625 93 623 C 107 621 119 618 130 616 C 141 613 150 610 157 608 L 157 604 L 106 577 L 156 81 C 162 77 170 72 179 67 C 188 62 198 57 208 52 C 218 47 229 43 239 39 C 249 35 259 31 268 29 L 362 92 L 333 583 L 274 591 L 287 634 C 300 633 314 632 329 630 C 343 628 357 625 371 623 C 385 621 397 618 408 616 C 419 613 428 610 436 608 L 436 604 L 384 577 L 411 91 C 415 87 422 82 432 76 C 441 70 451 64 462 58 C 472 52 483 46 494 41 C 504 35 514 31 522 29 L 618 82 L 678 576 C 668 577 657 578 645 580 C 632 582 618 583 603 585 C 588 587 573 588 558 589 C 542 590 528 591 514 592 L 528 637 C 550 635 572 634 594 632 C 616 630 637 627 657 625 C 677 622 695 619 711 616 C 727 613 739 610 749 607 L 749 602 L 727 570 Z" unicode="W" />
<glyph horiz-adv-x="477" d="M -6 591 L 10 634 C 20 632 29 631 38 629 C 47 627 56 626 64 624 C 72 622 79 619 87 617 C 94 615 101 612 108 609 L 250 337 L 382 581 C 371 582 360 583 349 585 C 337 586 326 587 314 589 C 302 590 290 591 278 592 C 266 592 255 593 245 594 L 260 635 C 278 634 296 632 316 630 C 335 628 353 625 371 622 C 389 618 404 615 418 612 C 432 608 442 605 450 601 L 268 304 L 408 42 L 486 34 L 472 -9 C 461 -7 451 -6 441 -4 C 431 -2 421 -1 411 1 C 401 3 391 5 383 7 C 375 9 368 11 362 14 L 219 284 L 86 50 C 96 48 106 46 118 44 C 130 42 142 41 154 39 C 166 37 179 36 193 35 C 206 34 220 33 234 32 L 220 -11 C 197 -9 175 -7 155 -5 C 134 -2 115 1 97 5 C 79 9 64 13 51 17 C 37 21 26 25 18 30 L 201 315 L 65 583 L -6 591 Z" unicode="X" />
<glyph horiz-adv-x="479" d="M 228 46 L 228 204 C 216 209 204 214 194 220 C 183 225 173 231 163 237 C 153 243 143 250 134 257 C 124 263 116 270 108 278 L 44 583 L -17 591 L -1 634 C 12 633 26 632 40 630 C 54 628 68 625 82 623 C 96 621 108 618 119 616 C 130 613 139 610 146 608 L 146 604 L 95 577 L 154 301 C 160 295 167 290 176 284 C 184 278 193 272 203 266 C 213 260 223 255 233 250 C 243 245 253 241 262 238 L 350 305 L 415 576 C 406 577 396 578 386 580 C 376 581 365 582 353 584 C 341 585 330 586 318 587 C 306 588 293 589 280 591 L 295 636 C 314 634 333 633 352 631 C 370 629 388 626 405 624 C 421 622 437 619 451 616 C 465 613 476 610 486 607 L 486 602 L 464 570 L 395 286 L 280 210 L 280 40 L 378 29 L 363 -12 C 343 -11 323 -9 302 -7 C 280 -4 260 -1 240 2 C 220 5 201 8 184 12 C 167 16 153 20 142 24 L 151 58 L 228 46 Z" unicode="Y" />
<glyph horiz-adv-x="499" d="M 57 579 L 70 621 L 413 606 L 418 552 L 90 76 C 106 67 124 59 144 53 C 164 46 185 40 208 35 C 231 29 256 25 282 22 C 308 18 337 16 367 16 L 407 305 C 411 303 415 302 420 300 C 424 298 429 295 434 293 C 438 290 443 287 447 285 C 451 282 455 279 458 277 L 406 -22 C 398 -23 391 -24 386 -24 C 380 -24 375 -25 369 -26 C 363 -26 356 -27 350 -27 C 344 -27 338 -28 332 -28 C 304 -28 277 -26 249 -22 C 221 -18 194 -12 168 -5 C 141 2 116 11 93 21 C 69 31 48 42 29 54 L 42 91 L 370 564 L 99 574 L 119 381 L 67 388 L 57 579 Z" unicode="Z" />
<glyph horiz-adv-x="331" d="M 99 -157 L 99 646 L 195 701 C 202 699 210 698 220 696 C 230 694 240 691 251 689 C 262 686 273 683 284 680 C 294 676 304 673 313 670 L 297 623 L 190 659 L 151 634 L 151 -123 C 159 -125 170 -127 182 -130 C 194 -132 208 -135 223 -137 C 237 -139 252 -141 267 -143 C 282 -145 296 -146 309 -147 L 295 -194 C 278 -192 261 -190 243 -188 C 225 -186 207 -183 189 -180 C 171 -176 155 -173 139 -169 C 123 -165 110 -161 99 -157 Z" unicode="[" />
<glyph horiz-adv-x="301" d="M 64 683 L 263 -78 L 216 -69 L 5 692 L 64 683 Z" unicode="\" />
<glyph horiz-adv-x="331" d="M 232 665 L 232 -138 L 136 -193 C 128 -191 120 -190 110 -188 C 100 -186 90 -183 79 -181 C 68 -178 57 -175 47 -172 C 36 -168 26 -165 18 -162 L 34 -114 L 141 -151 L 180 -125 L 180 631 C 172 633 161 635 149 638 C 136 640 122 643 108 645 C 93 647 78 649 63 651 C 48 653 34 654 22 656 L 36 702 C 52 700 70 698 88 696 C 106 694 123 691 141 688 C 159 684 175 681 191 677 C 207 673 220 669 232 665 Z" unicode="]" />
<glyph horiz-adv-x="380" d="M 36 349 L 162 638 L 205 653 L 341 351 L 291 333 L 182 595 L 79 333 L 36 349 Z" unicode="^" />
<glyph horiz-adv-x="358" d="M 66 32 L 79 62 C 94 59 111 56 130 53 C 149 49 169 46 191 43 C 213 40 235 37 257 35 C 279 32 301 30 323 28 L 310 -20 C 286 -18 262 -15 238 -11 C 213 -7 190 -3 168 1 C 146 5 126 10 108 16 C 90 21 76 26 66 32 Z" unicode="_" />
<glyph horiz-adv-x="268" d="M 208 539 L 167 528 L 64 651 C 65 654 67 658 71 663 C 74 667 78 672 82 676 C 86 680 91 684 97 688 C 102 691 107 693 112 695 L 208 539 Z" unicode="`" />
<glyph horiz-adv-x="397" d="M 101 382 L 100 76 C 104 73 110 70 117 68 C 123 66 130 63 137 61 C 144 58 151 56 159 54 C 166 52 173 50 180 48 L 279 251 L 280 377 C 272 381 263 385 254 389 C 245 393 236 398 228 402 C 219 406 211 409 203 413 C 195 416 187 419 179 422 L 101 382 Z M 55 394 L 191 469 C 198 466 206 463 214 459 C 222 455 230 451 238 447 C 246 443 254 438 262 434 C 270 430 277 425 285 421 L 296 524 C 300 522 303 520 307 518 C 310 516 313 513 316 511 C 318 508 321 505 323 502 C 325 499 327 496 329 493 L 326 43 L 388 36 L 373 -6 C 363 -4 354 -3 345 -1 C 336 0 328 1 320 3 C 312 5 304 7 297 9 C 290 11 283 13 277 15 L 279 184 L 189 -8 C 178 -5 166 -1 154 3 C 141 7 128 12 116 18 C 104 24 92 30 81 36 C 70 42 61 48 53 54 L 55 394 Z" unicode="a" />
<glyph horiz-adv-x="404" d="M 68 46 L 71 498 L 62 700 L 111 714 L 119 509 L 117 272 L 212 470 C 223 467 235 463 248 459 C 260 454 273 449 286 443 C 299 437 311 432 322 426 C 333 420 343 414 351 408 L 348 88 L 220 -11 C 207 -8 193 -4 179 0 C 164 3 150 8 136 14 C 122 19 109 24 97 30 C 85 36 76 41 68 46 Z M 300 101 L 302 384 C 297 386 292 389 286 391 C 280 393 273 396 267 399 C 260 401 253 404 247 406 C 240 408 233 409 227 411 L 117 208 L 116 79 C 124 75 132 71 142 67 C 152 63 162 59 172 55 C 182 51 192 47 202 44 C 212 41 221 39 229 37 L 300 101 Z" unicode="b" />
<glyph horiz-adv-x="348" d="M 260 440 L 272 521 L 302 510 L 284 240 L 238 248 L 254 394 C 248 396 241 399 235 402 C 228 404 221 407 215 409 C 209 411 202 413 196 415 C 189 417 182 419 176 421 L 102 378 L 101 84 C 109 79 118 74 127 69 C 136 64 145 59 154 55 C 163 51 172 47 181 44 C 189 40 197 37 205 35 L 312 124 L 339 88 L 199 -13 C 185 -9 172 -5 158 0 C 144 5 131 11 119 18 C 106 24 94 31 83 39 C 72 46 62 53 53 61 L 55 392 L 185 471 C 193 468 200 465 206 463 C 212 460 219 457 225 455 C 231 453 237 450 243 448 C 249 445 254 442 260 440 Z" unicode="c" />
<glyph horiz-adv-x="384" d="M 332 88 L 205 -11 C 191 -7 177 -3 163 1 C 149 5 136 10 124 16 C 111 22 99 28 87 34 C 75 40 64 47 53 54 L 55 275 L 177 487 L 41 694 L 91 712 L 335 331 L 332 88 Z M 285 101 L 286 322 L 199 455 L 101 265 L 100 79 C 108 75 117 71 127 67 C 137 63 147 59 157 55 C 167 51 177 47 187 44 C 197 41 205 39 213 37 L 285 101 Z" unicode="d" />
<glyph horiz-adv-x="363" d="M 349 88 L 199 -13 C 185 -9 172 -4 158 1 C 144 6 131 12 119 18 C 106 24 94 31 83 39 C 71 46 61 53 53 61 L 56 392 L 191 471 C 199 468 208 464 220 460 C 232 455 244 449 256 443 C 268 437 280 430 292 424 C 303 417 312 411 320 405 L 288 232 L 101 120 L 101 84 C 109 79 118 74 126 70 C 134 65 143 61 152 57 C 160 53 169 49 178 46 C 186 42 195 39 204 36 L 322 124 L 349 88 Z M 103 378 L 102 157 L 246 249 L 269 382 C 263 385 256 388 248 392 C 240 396 233 399 225 403 C 217 406 209 409 202 412 C 194 414 186 417 177 421 L 103 378 Z" unicode="e" />
<glyph horiz-adv-x="204" d="M 156 -184 L 114 -215 C 102 -213 90 -211 76 -209 C 62 -207 49 -204 36 -201 C 22 -197 10 -194 -2 -190 C -14 -186 -24 -183 -32 -180 L -12 -141 C -3 -144 6 -147 16 -150 C 26 -153 36 -156 47 -159 C 57 -162 68 -165 78 -167 C 88 -169 97 -171 105 -173 L 74 406 L 9 420 L 18 451 L 70 451 L 32 648 L 119 724 C 127 722 137 721 147 719 C 157 717 168 714 178 712 C 188 710 199 707 209 704 C 219 701 228 698 237 695 L 213 650 C 206 652 199 655 192 657 C 184 659 176 662 168 665 C 160 667 152 670 144 672 C 136 674 128 676 121 678 L 81 648 L 112 451 L 199 451 L 199 406 L 120 406 L 156 -184 Z" unicode="f" />
<glyph horiz-adv-x="386" d="M 19 -86 L 156 2 C 146 5 137 9 128 13 C 118 17 109 21 100 26 C 91 30 83 35 75 40 C 67 44 61 49 55 54 L 57 394 L 194 469 C 201 466 208 463 216 460 C 223 456 230 453 238 449 C 246 445 253 441 261 437 C 268 433 275 429 283 425 L 293 524 C 297 522 300 520 304 518 C 307 516 310 513 313 511 C 316 508 319 505 321 502 C 323 499 325 496 327 493 L 319 208 L 344 -132 L 178 -232 C 166 -228 151 -222 134 -214 C 117 -206 99 -197 81 -187 C 63 -177 45 -166 29 -156 C 12 -145 -1 -135 -12 -127 L 19 -86 Z M 103 382 L 102 76 C 106 73 112 70 119 68 C 125 66 132 63 139 61 C 146 58 153 56 161 54 C 169 52 176 50 183 48 L 273 233 L 278 381 C 269 385 260 389 252 393 C 244 397 235 400 227 404 C 219 408 211 411 203 414 C 195 417 188 420 182 422 L 103 382 Z M 275 170 L 196 -8 L 51 -111 C 61 -117 73 -124 85 -132 C 97 -139 109 -146 121 -152 C 133 -158 144 -164 155 -170 C 165 -176 175 -181 185 -186 L 289 -122 L 275 170 Z" unicode="g" />
<glyph horiz-adv-x="413" d="M 118 509 L 116 272 L 211 470 C 222 467 234 463 247 459 C 259 454 272 449 285 443 C 298 437 310 432 321 426 C 332 420 342 414 350 408 L 346 43 L 409 36 L 394 -6 C 381 -4 369 -3 357 -1 C 345 1 335 3 325 5 C 315 7 306 9 298 11 C 290 13 283 16 277 18 L 277 22 L 299 45 L 301 384 C 296 386 291 389 285 391 C 279 393 272 396 266 399 C 259 401 252 404 246 406 C 239 408 232 409 226 411 L 116 208 L 114 43 L 177 36 L 162 -6 C 149 -4 137 -3 125 -1 C 113 1 103 3 93 5 C 83 7 74 9 66 11 C 58 13 51 16 45 18 L 45 22 L 67 45 L 70 498 L 61 700 L 110 714 L 118 509 Z" unicode="h" />
<glyph horiz-adv-x="180" d="M 128 639 L 113 554 L 71 564 L 68 659 C 73 659 78 658 84 657 C 89 655 94 654 99 652 C 104 650 109 648 114 646 C 119 644 124 641 128 639 Z M 118 461 L 114 43 L 177 36 L 162 -6 C 149 -4 137 -3 125 -1 C 113 1 103 3 93 5 C 83 7 74 9 66 11 C 58 13 51 16 45 18 L 45 22 L 67 45 L 69 376 L 61 447 L 118 461 Z" unicode="i" />
<glyph horiz-adv-x="177" d="M 127 639 L 112 554 L 70 564 L 67 659 C 72 659 77 658 83 657 C 88 655 93 654 98 652 C 103 650 108 648 113 646 C 118 644 123 641 127 639 Z M 65 -41 L 68 376 L 59 447 L 117 461 L 113 -40 L 36 -201 L -14 -183 L 65 -41 Z" unicode="j" />
<glyph horiz-adv-x="394" d="M 391 37 L 374 -7 C 365 -5 356 -3 348 -1 C 339 1 331 3 324 5 C 316 7 309 10 303 12 C 297 14 292 17 288 20 L 219 128 L 114 153 L 113 43 L 177 36 L 162 -6 C 149 -4 137 -3 125 -1 C 113 1 103 3 93 5 C 83 7 74 9 66 11 C 58 13 51 16 45 18 L 45 22 L 67 45 L 70 498 L 61 700 L 110 714 L 117 509 L 116 282 L 204 473 C 216 470 228 466 241 462 C 254 457 267 452 280 447 C 292 441 304 436 315 430 C 325 424 335 419 343 413 L 329 256 L 263 148 L 332 47 L 391 37 Z M 287 272 L 291 394 C 287 396 282 398 276 400 C 270 402 263 405 256 407 C 249 409 242 412 235 414 C 228 416 222 417 217 418 L 114 218 L 114 195 L 231 164 L 287 272 Z" unicode="k" />
<glyph horiz-adv-x="180" d="M 118 509 L 114 43 L 177 36 L 162 -6 C 149 -4 137 -3 125 -1 C 113 1 103 3 93 5 C 83 7 74 9 66 11 C 58 13 51 16 45 18 L 45 22 L 67 45 L 70 498 L 61 700 L 110 714 L 118 509 Z" unicode="l" />
<glyph horiz-adv-x="645" d="M 52 444 L 106 460 L 113 266 L 211 470 C 222 467 234 463 247 459 C 259 454 272 449 285 443 C 298 437 310 432 321 426 C 332 420 342 414 350 408 L 348 273 L 443 470 C 454 467 466 463 479 459 C 492 454 505 449 518 443 C 530 437 542 432 553 426 C 564 420 574 414 582 408 L 579 43 L 641 36 L 626 -6 C 613 -4 601 -3 589 -1 C 577 1 567 3 557 5 C 547 7 538 9 530 11 C 522 13 515 16 509 18 L 509 22 L 531 45 L 533 384 C 528 386 523 389 517 391 C 511 393 504 396 498 399 C 491 401 484 404 478 406 C 471 408 464 409 458 411 L 348 208 L 346 43 L 409 36 L 394 -6 C 381 -4 369 -3 357 -1 C 345 1 335 3 325 5 C 315 7 306 9 298 11 C 290 13 283 16 277 18 L 277 22 L 299 45 L 301 384 C 296 386 291 389 285 391 C 279 393 272 396 266 399 C 259 401 252 404 246 406 C 239 408 232 409 226 411 L 116 208 L 114 43 L 177 36 L 162 -6 C 149 -4 137 -3 125 -1 C 113 1 103 3 93 5 C 83 7 74 9 66 11 C 58 13 51 16 45 18 L 45 22 L 67 45 L 68 256 L 52 444 Z" unicode="m" />
<glyph horiz-adv-x="413" d="M 52 444 L 106 460 L 113 266 L 211 470 C 222 467 234 463 247 459 C 259 454 272 449 285 443 C 298 437 310 432 321 426 C 332 420 342 414 350 408 L 346 43 L 409 36 L 394 -6 C 381 -4 369 -3 357 -1 C 345 1 335 3 325 5 C 315 7 306 9 298 11 C 290 13 283 16 277 18 L 277 22 L 299 45 L 301 384 C 296 386 291 389 285 391 C 279 393 272 396 266 399 C 259 401 252 404 246 406 C 239 408 232 409 226 411 L 116 208 L 114 43 L 177 36 L 162 -6 C 149 -4 137 -3 125 -1 C 113 1 103 3 93 5 C 83 7 74 9 66 11 C 58 13 51 16 45 18 L 45 22 L 67 45 L 68 256 L 52 444 Z" unicode="n" />
<glyph horiz-adv-x="389" d="M 333 88 L 207 -11 C 191 -7 176 -3 162 1 C 148 5 134 11 121 17 C 107 23 95 29 84 36 C 72 42 62 49 53 57 L 55 397 L 184 469 C 200 465 215 460 229 456 C 243 451 257 446 269 441 C 281 435 293 430 304 424 C 315 418 326 411 337 405 L 333 88 Z M 215 37 L 286 101 L 288 378 C 280 382 271 386 261 390 C 251 394 241 397 231 401 C 221 405 211 408 201 411 C 191 414 181 417 173 419 L 101 385 L 101 79 C 109 75 118 71 128 67 C 137 63 147 59 157 55 C 167 51 176 48 186 45 C 196 41 205 39 215 37 Z" unicode="o" />
<glyph horiz-adv-x="402" d="M 298 101 L 300 384 C 294 386 289 389 283 391 C 277 393 270 396 264 399 C 257 401 250 404 244 406 C 237 408 230 409 224 411 L 114 208 L 113 79 C 121 75 130 71 140 67 C 150 63 160 59 170 55 C 180 51 190 47 200 44 C 210 41 219 39 227 37 L 298 101 Z M 50 532 L 103 548 L 112 266 L 210 470 C 221 467 233 463 246 459 C 258 454 271 449 284 443 C 297 437 309 432 320 426 C 331 420 341 414 349 408 L 345 88 L 218 -11 C 207 -8 197 -5 187 -3 C 177 0 168 2 160 6 C 151 9 143 12 135 16 C 127 20 119 24 112 28 L 111 -158 L 200 -167 L 185 -209 C 174 -207 163 -206 152 -205 C 140 -203 129 -202 118 -200 C 107 -198 97 -196 88 -194 C 78 -192 70 -189 64 -187 L 67 256 L 50 532 Z" unicode="p" />
<glyph horiz-adv-x="387" d="M 394 -165 L 378 -207 C 368 -205 358 -204 349 -203 C 339 -201 330 -200 321 -198 C 312 -196 304 -194 296 -192 C 288 -190 282 -189 277 -187 L 279 184 L 189 -8 C 178 -5 166 -1 154 3 C 141 7 128 12 116 18 C 104 24 92 30 81 36 C 70 42 61 48 53 54 L 55 394 L 191 469 C 198 466 206 463 214 459 C 222 455 230 451 238 447 C 246 443 254 438 262 434 C 270 430 277 425 285 421 L 295 524 C 299 522 302 520 306 518 C 309 516 312 513 315 511 C 317 508 320 505 322 502 C 324 499 326 496 328 493 L 324 -158 L 394 -165 Z M 101 382 L 100 76 C 104 73 110 70 117 68 C 123 66 130 63 137 61 C 144 58 151 56 159 54 C 166 52 173 50 180 48 L 279 251 L 280 377 C 272 381 263 385 254 389 C 245 393 236 398 228 402 C 219 406 211 409 203 413 C 195 416 187 419 179 422 L 101 382 Z" unicode="q" />
<glyph horiz-adv-x="260" d="M 230 36 L 214 -7 C 199 -5 183 -2 167 0 C 151 3 135 6 119 10 C 103 14 88 17 76 21 C 63 25 53 28 47 31 L 47 35 L 70 58 L 72 356 L 54 449 L 109 464 L 117 378 L 178 465 C 184 464 191 463 199 462 C 207 460 214 459 222 457 C 230 455 237 454 245 452 C 253 450 260 449 267 447 L 239 382 L 181 410 L 119 337 L 117 53 C 123 51 130 50 139 48 C 147 46 157 45 167 44 C 177 42 187 41 197 40 C 207 38 218 37 230 36 Z" unicode="r" />
<glyph horiz-adv-x="323" d="M 278 428 L 253 378 C 247 382 241 386 233 391 C 225 396 217 401 209 406 C 200 411 191 416 183 420 C 174 424 166 428 159 431 L 114 397 L 144 290 L 298 129 L 290 48 L 186 -18 C 170 -14 155 -9 140 -4 C 125 0 111 6 98 12 C 84 18 72 24 61 31 C 49 38 40 45 32 52 L 65 260 L 101 269 L 67 405 L 163 475 C 172 473 182 470 192 467 C 202 463 212 459 222 455 C 232 451 242 446 252 442 C 261 437 270 432 278 428 Z M 250 108 L 112 248 L 78 79 C 86 74 95 69 105 64 C 115 59 126 54 138 50 C 149 45 160 41 170 38 C 180 34 189 32 197 30 L 248 64 L 250 108 Z" unicode="s" />
<glyph horiz-adv-x="230" d="M 86 451 L 79 598 L 132 614 L 131 451 L 217 451 L 217 405 L 131 405 L 128 53 C 132 52 137 51 144 50 C 151 49 159 48 168 47 C 177 45 186 44 196 43 C 206 41 215 40 224 40 L 210 -4 C 198 -2 186 -1 174 1 C 162 3 151 5 140 8 C 128 10 117 13 107 16 C 97 18 87 21 79 24 L 82 405 L 14 418 L 23 451 L 86 451 Z" unicode="t" />
<glyph horiz-adv-x="395" d="M 282 15 L 283 182 L 189 -10 C 177 -7 166 -3 154 0 C 142 4 131 9 120 14 C 108 19 98 24 88 30 C 78 36 69 41 62 47 L 65 358 L 52 447 L 103 461 L 112 376 L 110 71 C 115 69 120 67 125 65 C 130 63 135 61 141 59 C 146 57 152 55 158 53 C 164 51 170 50 176 48 L 283 248 L 285 409 L 204 417 L 220 459 C 229 459 239 458 250 457 C 261 455 272 454 282 452 C 292 450 302 449 311 447 C 319 445 327 444 333 442 L 330 43 L 393 36 L 377 -6 C 367 -4 358 -3 350 -1 C 341 0 333 1 325 3 C 317 5 309 7 302 9 C 295 11 288 13 282 15 Z" unicode="u" />
<glyph horiz-adv-x="382" d="M 81 52 L 66 413 L 20 418 L 35 461 C 43 460 50 459 57 458 C 64 456 71 455 77 453 C 83 451 89 449 95 447 C 101 445 107 442 114 439 L 129 73 C 134 69 140 66 147 63 C 154 59 161 56 169 53 C 177 49 184 46 192 44 C 200 41 207 39 213 37 L 274 130 L 296 385 C 287 388 278 391 268 395 C 258 398 247 401 237 404 C 226 406 215 409 203 412 C 191 414 180 417 169 419 L 186 465 C 200 463 214 460 229 456 C 243 452 258 448 272 443 C 286 438 300 433 313 427 C 326 421 338 415 348 409 L 318 125 L 211 -15 C 199 -11 188 -7 176 -2 C 164 2 152 8 140 14 C 128 20 117 26 107 32 C 97 38 88 45 81 52 Z" unicode="v" />
<glyph horiz-adv-x="566" d="M 129 73 C 134 69 140 66 146 63 C 152 59 159 56 166 53 C 173 49 180 46 187 43 C 194 40 201 37 209 35 L 264 91 L 251 413 L 205 418 L 220 461 C 228 460 235 459 242 458 C 249 456 256 455 262 453 C 268 451 274 449 280 447 C 286 445 292 442 299 439 L 313 73 C 318 69 324 66 331 63 C 338 59 346 56 354 53 C 362 49 369 46 377 44 C 385 41 392 39 398 37 L 459 130 L 481 385 C 472 388 463 391 453 394 C 443 397 432 400 421 403 C 410 406 399 409 388 412 C 376 414 365 417 354 419 L 371 465 C 385 463 399 460 414 456 C 428 452 443 448 457 443 C 471 438 485 433 498 427 C 510 421 522 415 532 409 L 503 125 L 396 -15 C 385 -11 374 -7 362 -2 C 350 2 338 7 327 13 C 315 19 304 25 294 31 C 284 37 275 44 268 50 L 196 -15 C 186 -11 175 -6 165 -1 C 155 3 145 8 135 14 C 125 20 115 26 106 32 C 96 38 88 45 81 52 L 66 413 L 20 418 L 35 461 C 43 460 50 459 57 458 C 64 456 71 455 77 453 C 83 451 89 449 95 447 C 101 445 107 442 114 439 L 129 73 Z" unicode="w" />
<glyph horiz-adv-x="337" d="M 332 38 L 317 -4 C 307 -2 299 -1 292 0 C 284 0 277 1 270 3 C 263 5 256 7 250 9 C 244 11 238 14 233 18 L 156 207 L 97 61 L 80 -6 C 74 -4 68 -3 62 -1 C 56 0 51 2 47 4 C 42 6 38 8 34 10 C 30 12 26 14 22 16 L 139 241 L 69 406 L 21 413 L 36 454 C 44 453 52 452 59 451 C 66 449 73 448 79 446 C 85 444 91 442 97 440 C 103 438 109 435 116 433 L 183 261 L 231 384 L 252 459 C 258 457 263 456 269 454 C 275 452 280 451 285 449 C 290 447 295 446 299 444 C 303 442 307 440 311 438 L 201 228 L 276 45 L 332 38 Z" unicode="x" />
<glyph horiz-adv-x="386" d="M 112 376 L 110 76 C 114 73 120 70 127 68 C 133 66 140 63 148 61 C 156 58 163 56 171 54 C 178 52 185 50 193 48 L 284 235 L 285 409 L 204 417 L 220 459 C 229 459 239 458 250 457 C 261 455 272 454 282 452 C 292 450 302 449 311 447 C 319 445 327 444 333 442 L 330 208 L 354 -132 L 188 -232 C 176 -228 161 -222 144 -214 C 127 -206 109 -197 91 -187 C 73 -177 55 -166 39 -156 C 22 -145 8 -135 -2 -127 L 29 -86 L 166 2 C 156 5 147 9 137 13 C 127 17 118 21 109 26 C 99 30 91 35 83 40 C 75 44 68 49 62 54 L 65 358 L 52 447 L 103 461 L 112 376 Z M 285 170 L 206 -8 L 61 -111 C 71 -118 83 -125 95 -132 C 107 -139 119 -146 131 -153 C 143 -159 154 -165 165 -171 C 175 -177 185 -182 195 -186 L 299 -122 L 285 170 Z" unicode="y" />
<glyph horiz-adv-x="362" d="M 309 408 L 88 62 C 96 59 107 56 121 52 C 134 48 149 45 165 41 C 181 37 197 34 213 31 C 229 27 244 24 258 22 L 286 220 C 291 218 296 217 301 216 C 306 214 311 213 316 211 C 320 209 325 208 329 206 C 333 204 338 202 342 200 L 286 -31 C 266 -29 244 -25 219 -20 C 194 -15 169 -9 145 -3 C 120 2 98 9 78 16 C 58 22 43 28 33 34 L 45 71 L 248 382 C 238 385 228 388 217 392 C 205 395 193 398 181 401 C 169 404 156 407 143 409 C 129 411 117 413 105 415 L 110 254 L 62 265 L 62 411 L 100 462 C 118 461 137 459 157 456 C 176 452 195 448 214 443 C 232 438 250 432 266 426 C 282 420 297 414 309 408 Z" unicode="z" />
<glyph horiz-adv-x="375" d="M 144 82 L 209 208 L 51 238 L 68 288 L 199 253 L 144 413 L 121 646 L 217 701 C 224 699 232 698 242 696 C 252 694 262 691 273 689 C 284 686 295 683 306 680 C 316 676 326 673 335 670 L 319 623 L 212 659 L 173 634 L 197 421 L 249 280 L 227 245 L 263 235 L 196 88 L 173 -123 C 181 -125 192 -127 204 -130 C 216 -132 230 -135 245 -137 C 259 -139 274 -141 289 -143 C 304 -145 318 -146 331 -147 L 317 -194 C 300 -192 283 -190 265 -188 C 247 -186 229 -183 211 -180 C 193 -176 177 -173 161 -169 C 145 -165 132 -161 121 -157 L 144 82 Z" unicode="{" />
<glyph horiz-adv-x="337" d="M 194 714 L 194 -230 C 189 -230 184 -229 180 -229 C 175 -228 170 -227 166 -227 C 162 -226 158 -225 154 -224 C 150 -223 146 -222 143 -221 L 143 723 C 147 723 152 722 156 722 C 160 721 165 720 169 720 C 173 719 178 718 182 717 C 186 716 190 715 194 714 Z" unicode="|" />
<glyph horiz-adv-x="375" d="M 231 426 L 166 300 L 324 271 L 307 220 L 176 255 L 231 96 L 254 -138 L 158 -193 C 150 -191 142 -190 132 -188 C 122 -186 112 -183 101 -181 C 90 -178 79 -175 69 -172 C 58 -168 48 -165 40 -162 L 56 -114 L 163 -151 L 202 -125 L 178 87 L 127 228 L 148 263 L 112 273 L 179 420 L 202 631 C 194 633 183 635 171 638 C 158 640 144 643 130 645 C 115 647 100 649 85 651 C 70 653 56 654 44 656 L 58 702 C 74 700 92 698 110 696 C 128 694 145 691 163 688 C 181 684 197 681 213 677 C 229 673 242 669 254 665 L 231 426 Z" unicode="}" />
<glyph horiz-adv-x="508" d="M 44 173 L 142 300 L 195 321 L 339 205 L 405 353 C 409 351 413 348 417 346 C 421 343 424 340 428 338 C 432 335 435 332 439 329 C 442 325 445 322 448 320 L 359 168 L 315 161 L 167 273 L 86 142 C 82 143 78 145 74 147 C 70 149 66 152 62 155 C 58 157 55 160 52 163 C 49 166 46 169 44 173 Z" unicode="~" />
<glyph horiz-adv-x="220" d="" unicode="" />
<glyph horiz-adv-x="231" d="M 166 459 L 144 388 L 78 405 L 97 476 C 103 476 109 475 116 474 C 122 473 129 472 135 470 C 141 468 147 467 153 465 C 158 463 162 461 166 459 Z M 153 -211 L 97 -223 L 100 278 L 143 269 L 153 -211 Z" unicode="" />
<glyph horiz-adv-x="367" d="M 101 84 C 106 80 111 77 117 74 C 122 70 127 67 133 64 C 139 61 144 58 150 56 C 156 53 162 50 168 48 L 168 417 L 102 378 L 101 84 Z M 267 440 L 278 521 L 309 510 L 295 283 L 253 290 L 263 394 L 208 413 L 208 38 L 321 124 L 348 88 L 208 -9 L 212 -144 C 207 -143 203 -142 199 -142 C 195 -141 190 -140 186 -140 C 182 -139 178 -138 174 -137 C 170 -135 166 -134 162 -133 L 165 -1 C 154 3 143 7 133 12 C 122 16 112 21 102 27 C 92 32 83 37 75 43 C 67 49 59 55 53 61 L 55 392 L 167 460 L 164 610 C 168 609 173 608 177 608 C 181 607 186 606 190 606 C 194 605 198 604 202 603 C 206 601 211 600 215 599 L 209 463 L 267 440 Z" unicode="" />
<glyph horiz-adv-x="453" d="M 307 224 L 295 178 C 287 178 278 179 269 180 C 260 181 251 182 243 183 C 234 184 225 185 217 187 C 208 188 199 189 190 191 L 200 128 L 146 24 C 162 20 177 17 191 14 C 205 11 220 8 236 5 C 251 2 266 0 282 -3 C 297 -5 312 -8 327 -10 L 407 151 L 443 116 L 334 -59 C 310 -55 285 -50 258 -44 C 230 -38 202 -32 174 -25 C 146 -18 119 -11 93 -4 C 67 3 45 10 26 18 L 42 52 L 107 34 L 151 129 L 141 199 C 131 201 121 202 112 204 C 103 206 95 207 87 209 C 79 211 72 212 66 214 C 60 215 55 216 51 218 L 62 249 C 66 248 70 247 76 247 C 81 246 87 245 93 244 C 99 243 106 242 113 242 C 119 241 127 240 135 240 L 99 486 L 219 547 C 228 545 237 543 246 541 C 254 539 263 536 271 534 C 279 531 288 528 296 526 C 304 523 312 520 320 517 L 334 583 L 365 572 L 353 346 L 307 354 L 316 471 C 308 474 299 477 291 480 C 283 483 274 486 265 489 C 256 491 247 494 238 496 C 228 498 219 501 210 504 L 148 476 L 184 235 L 307 224 Z" unicode="" />
<glyph horiz-adv-x="486" d="M 296 164 L 280 120 C 270 120 260 121 250 123 C 240 124 230 125 220 127 C 210 128 199 129 189 131 C 179 133 169 134 159 136 L 159 77 C 167 72 178 67 191 62 C 203 57 216 52 230 48 C 244 43 257 39 270 36 C 283 32 294 30 304 28 L 440 94 L 455 52 L 283 -18 C 267 -14 251 -10 235 -4 C 218 1 202 7 186 14 C 170 20 156 27 143 34 C 130 41 119 48 110 54 L 110 144 C 102 145 94 146 86 148 C 78 150 71 151 65 153 C 59 154 53 155 48 157 C 43 158 39 159 35 161 L 45 188 L 110 180 L 110 264 C 102 265 94 266 88 268 C 81 269 75 270 69 271 C 63 272 58 273 54 275 C 49 276 45 277 42 279 L 52 307 C 56 306 61 305 65 305 C 69 304 73 303 78 303 C 83 302 88 301 94 301 C 99 301 104 300 110 300 L 110 406 L 266 474 C 276 471 285 468 295 466 C 304 463 313 460 322 457 C 330 454 338 451 346 448 C 353 445 360 442 366 439 L 378 507 L 409 496 L 393 299 L 346 307 L 359 394 C 351 397 343 400 335 404 C 326 407 317 410 307 414 C 297 417 288 420 279 423 C 269 425 261 428 253 430 L 159 393 L 159 294 L 315 280 L 298 237 C 287 238 276 239 264 241 C 252 242 241 243 229 245 C 217 247 205 248 193 250 C 181 252 170 254 159 256 L 159 175 C 164 174 175 173 191 172 C 207 170 220 169 231 168 C 241 167 252 166 264 166 C 275 165 286 164 296 164 Z" unicode="" />
<glyph horiz-adv-x="449" d="M 201 45 L 201 147 C 189 149 178 151 168 154 C 157 156 147 159 138 162 C 129 164 121 167 114 169 C 107 171 101 174 97 177 L 109 204 C 117 202 124 201 130 200 C 136 199 142 198 150 197 C 158 195 166 194 175 193 C 183 191 192 190 201 189 L 201 242 C 191 246 182 250 173 255 C 163 260 154 265 145 271 C 136 276 127 281 119 287 C 111 293 103 299 96 305 L 58 563 L -2 571 L 13 614 C 26 613 40 612 54 610 C 68 608 82 605 96 603 C 109 601 121 598 132 596 C 143 593 152 590 159 588 L 159 584 L 108 558 L 141 326 C 147 321 155 316 163 312 C 171 308 179 303 187 299 C 195 294 204 290 213 286 C 221 282 230 278 238 275 L 317 329 L 354 558 C 344 559 335 560 325 562 C 315 563 305 564 295 565 C 285 566 274 567 263 568 C 252 569 241 570 229 571 L 243 616 C 261 615 279 614 297 612 C 315 610 331 607 347 605 C 363 603 377 600 390 597 C 403 593 415 590 425 587 L 425 582 L 403 550 L 361 312 L 254 245 L 254 181 C 264 179 274 178 283 177 C 292 175 301 174 310 173 C 319 172 328 171 337 170 C 346 169 355 168 363 168 L 346 124 C 338 124 330 125 322 126 C 314 127 307 128 299 129 C 291 130 284 131 276 133 C 268 134 261 135 254 137 L 254 38 L 352 28 L 337 -12 C 317 -11 297 -9 276 -7 C 254 -4 233 -1 213 2 C 193 5 174 8 158 12 C 141 16 127 20 116 24 L 129 57 L 201 45 Z" unicode="" />
<glyph horiz-adv-x="337" d="M 194 714 L 194 320 C 189 320 184 320 180 321 C 175 321 170 322 166 323 C 162 323 158 324 154 325 C 150 326 146 327 143 329 L 143 723 C 147 723 152 722 156 722 C 160 721 165 720 169 720 C 173 719 178 718 182 717 C 186 716 190 715 194 714 Z M 194 164 L 194 -230 C 189 -230 184 -229 180 -229 C 175 -228 170 -227 166 -227 C 162 -226 158 -225 154 -224 C 150 -223 146 -222 143 -221 L 143 173 C 147 173 152 172 156 172 C 160 171 165 170 169 170 C 173 169 178 168 182 167 C 186 166 190 165 194 164 Z" unicode="" />
<glyph horiz-adv-x="393" d="M 98 295 L 107 224 L 258 71 L 289 125 L 279 195 L 119 368 L 98 295 Z M 313 539 L 288 490 C 278 494 268 499 258 504 C 248 509 238 514 228 519 C 218 523 208 527 199 531 C 189 535 181 538 175 540 L 116 505 L 106 455 L 328 219 L 338 131 L 281 47 L 334 -6 L 313 -89 L 204 -144 C 191 -141 177 -137 162 -133 C 147 -128 132 -122 117 -116 C 101 -110 87 -103 74 -96 C 60 -89 49 -83 40 -77 L 65 -33 C 75 -39 86 -45 100 -52 C 113 -59 127 -66 141 -73 C 155 -79 168 -85 181 -91 C 194 -97 205 -101 215 -105 L 276 -69 L 282 -25 L 63 193 L 52 283 L 94 395 L 57 436 L 76 520 L 188 584 C 197 582 207 579 218 576 C 228 573 239 570 250 566 C 261 562 272 557 283 553 C 293 548 303 543 313 539 Z" unicode="" />
<glyph horiz-adv-x="364" d="M 127 630 L 109 555 L 64 565 L 64 650 C 69 650 74 649 80 648 C 86 646 91 645 97 643 C 102 641 107 639 113 637 C 118 635 123 632 127 630 Z M 301 628 L 284 553 L 239 563 L 239 648 C 244 648 249 647 255 646 C 261 644 266 643 272 641 C 277 639 282 637 287 635 C 292 633 297 630 301 628 Z" unicode="" />
<glyph horiz-adv-x="832" d="M 717 536 L 765 235 L 717 -72 L 531 -138 L 521 -92 L 673 -52 L 716 233 L 670 507 C 658 510 646 513 634 516 C 621 519 610 522 600 524 C 590 526 575 530 555 535 C 535 540 519 544 508 547 L 532 590 C 547 586 563 582 579 578 C 595 573 612 568 628 564 C 644 559 659 554 674 550 C 689 545 703 540 717 536 Z M 114 -86 L 67 215 L 114 521 L 300 587 L 310 542 L 158 502 L 116 217 L 162 -57 C 174 -60 186 -63 199 -67 C 212 -70 225 -73 239 -77 C 253 -80 267 -83 281 -87 C 295 -90 309 -93 323 -97 L 299 -140 C 283 -136 266 -131 250 -127 C 234 -123 218 -118 202 -114 C 186 -109 170 -104 155 -100 C 140 -95 126 -90 114 -86 Z M 485 239 L 495 388 L 403 408 L 322 374 L 322 80 C 330 75 340 70 351 66 C 361 62 372 58 384 54 C 395 50 406 46 417 43 C 428 39 438 37 448 35 L 555 91 L 571 50 L 427 -10 C 413 -6 398 -2 384 2 C 370 7 356 13 342 19 C 328 25 316 32 304 38 C 292 44 282 51 273 57 L 273 387 L 415 453 L 502 430 L 538 438 L 533 231 L 485 239 Z" unicode="" />
<glyph horiz-adv-x="389" d="M 113 542 L 112 284 C 117 281 122 278 128 276 C 133 274 138 271 144 269 C 149 267 154 264 160 262 C 166 260 171 258 177 256 L 261 463 L 262 542 C 253 546 245 549 237 553 C 229 556 222 559 215 562 C 208 564 201 567 194 569 C 187 571 180 574 173 576 L 113 542 Z M 68 552 L 185 620 C 192 617 199 614 206 612 C 213 609 220 606 226 604 C 232 601 239 598 246 595 C 252 591 259 588 266 584 L 277 675 C 281 673 284 672 288 670 C 291 668 294 665 297 663 C 299 660 302 657 304 654 C 306 651 307 648 309 645 L 307 255 L 370 249 L 354 207 C 344 207 335 208 327 210 C 318 212 310 213 302 215 C 294 217 286 219 279 221 C 271 223 264 225 258 228 L 261 396 L 191 205 C 181 207 171 211 160 215 C 148 219 137 224 126 230 C 114 236 103 242 93 248 C 83 254 74 259 66 265 L 68 552 Z M 57 112 L 70 144 C 86 141 104 138 126 134 C 148 130 171 127 196 123 C 220 119 245 115 270 112 C 295 109 318 107 339 105 L 324 55 C 300 57 275 61 249 65 C 222 69 196 74 171 80 C 145 86 123 91 103 97 C 83 102 67 107 57 112 Z" unicode="" />
<glyph horiz-adv-x="490" d="M 243 204 L 252 249 L 385 422 L 421 393 L 289 226 L 414 76 L 378 37 L 243 204 Z M 55 204 L 64 249 L 197 422 L 233 393 L 101 226 L 226 76 L 190 37 L 55 204 Z" unicode="" />
<glyph horiz-adv-x="432" d="M 314 49 L 333 182 C 309 184 282 188 254 193 C 225 197 197 202 170 208 C 142 214 118 219 97 225 C 76 231 61 236 52 241 L 66 274 C 80 270 100 266 126 262 C 152 258 180 253 210 249 C 240 244 270 240 299 237 C 328 233 353 231 375 229 L 363 53 L 314 49 Z" unicode="" />
<glyph horiz-adv-x="323" d="M 52 239 L 65 273 C 80 270 95 267 111 265 C 126 262 142 259 159 257 C 176 254 194 251 214 249 C 233 247 253 245 275 243 L 261 191 C 241 193 220 195 200 199 C 180 203 160 207 142 211 C 123 215 106 220 91 225 C 75 229 62 234 52 239 Z" unicode="" />
<glyph horiz-adv-x="685" d="M 592 669 L 619 452 L 592 229 L 438 177 L 430 215 L 551 248 L 575 450 L 548 643 C 538 645 529 648 519 651 C 509 653 499 656 489 658 C 479 660 466 663 450 667 C 434 671 423 673 419 675 L 439 712 C 451 709 464 706 478 703 C 492 699 505 696 519 692 C 532 688 545 684 557 680 C 569 676 581 673 592 669 Z M 94 218 L 66 435 L 94 658 L 248 710 L 255 672 L 134 639 L 110 437 L 136 243 C 145 240 155 237 165 235 C 175 232 186 229 196 227 C 206 225 218 222 234 218 C 249 214 260 212 266 211 L 246 175 C 234 177 221 180 207 184 C 193 187 180 191 167 195 C 153 199 140 203 128 207 C 116 211 104 214 94 218 Z M 348 570 L 305 560 L 305 438 C 310 436 316 435 322 434 C 328 432 333 431 339 429 C 345 427 350 426 355 424 C 360 422 365 421 370 419 L 397 440 L 400 548 C 396 550 391 553 387 555 C 383 557 378 558 374 560 C 370 562 366 563 364 564 C 361 565 356 567 348 570 Z M 305 327 L 351 321 L 341 293 C 330 293 319 294 308 296 C 297 297 287 298 277 300 C 267 302 258 304 250 306 C 242 308 235 310 230 312 L 234 334 L 262 331 L 262 554 L 215 546 L 212 576 L 358 597 C 364 595 372 592 380 590 C 388 587 395 584 403 581 C 411 577 418 574 425 570 C 432 566 438 562 444 559 L 435 433 L 392 404 L 450 326 L 486 320 L 477 291 C 470 292 463 293 457 295 C 451 296 445 297 439 299 C 433 300 428 301 423 303 C 418 305 414 306 411 308 L 351 392 C 347 393 344 394 340 396 C 336 397 331 398 327 400 C 323 401 319 402 315 404 C 311 405 308 406 305 407 L 305 327 Z" unicode="" />
<glyph horiz-adv-x="380" d="M 70 604 L 85 638 C 99 635 115 632 132 630 C 148 627 166 624 185 622 C 203 619 223 616 244 614 C 264 611 285 609 307 607 L 293 555 C 275 556 255 558 233 562 C 211 566 190 570 169 575 C 147 579 128 584 111 589 C 93 594 80 599 70 604 Z" unicode="" />
<glyph horiz-adv-x="348" d="M 289 360 L 183 307 C 173 308 163 310 152 314 C 140 317 129 321 118 325 C 106 329 95 334 85 339 C 75 344 66 349 58 354 L 59 563 L 173 617 C 181 615 191 612 201 609 C 211 605 222 601 233 597 C 243 593 253 588 263 583 C 273 578 282 573 290 568 L 289 360 Z M 243 371 L 244 544 C 240 546 234 548 228 551 C 222 553 215 556 208 559 C 201 561 194 564 186 566 C 178 568 171 571 165 573 L 105 551 L 103 376 C 107 373 113 370 120 368 C 127 365 135 362 143 360 C 151 357 159 354 167 352 C 175 350 183 348 191 346 L 243 371 Z" unicode="" />
<glyph horiz-adv-x="438" d="M 62 333 L 76 366 C 82 364 90 363 100 361 C 109 359 119 357 131 355 C 142 353 154 351 167 349 C 179 347 192 345 206 343 L 205 511 C 209 511 213 510 217 510 C 221 509 226 508 230 507 C 234 505 239 504 243 503 C 247 502 251 501 254 500 L 250 336 C 262 334 274 332 286 331 C 298 329 309 328 321 327 C 333 325 344 324 354 323 C 364 322 375 321 385 321 L 371 272 C 362 272 353 273 343 274 C 333 274 323 275 313 277 C 303 278 292 279 282 281 C 271 283 260 285 250 287 L 252 141 C 248 141 244 141 240 142 C 235 142 230 143 225 145 C 220 146 215 147 211 148 C 207 149 203 150 200 152 L 205 295 C 189 297 173 300 159 304 C 144 307 130 310 118 314 C 105 317 94 320 84 324 C 74 327 67 330 62 333 Z M 53 53 L 67 86 C 81 82 101 78 127 74 C 153 70 181 65 211 61 C 241 56 271 52 300 49 C 329 45 354 43 376 41 L 362 -8 C 338 -6 311 -3 280 1 C 248 5 217 11 187 17 C 156 23 128 29 104 36 C 80 42 63 48 53 53 Z" unicode="" />
<glyph horiz-adv-x="350" d="M 37 239 L 53 277 L 227 443 L 238 551 C 230 553 223 556 216 559 C 208 561 201 564 194 566 C 186 568 179 571 171 573 C 163 575 156 577 148 579 L 97 559 L 111 443 L 63 449 L 55 572 L 168 619 C 179 616 190 613 201 609 C 212 605 223 602 233 598 C 243 594 252 589 262 585 C 271 580 280 575 288 570 L 269 435 L 87 264 C 100 260 112 256 124 254 C 136 251 148 248 160 246 C 172 243 186 240 201 238 C 215 236 232 233 251 231 L 268 359 L 313 344 L 289 227 L 227 188 C 209 190 192 193 176 197 C 159 200 142 204 126 208 C 110 212 94 217 79 222 C 64 227 50 233 37 239 Z" unicode="" />
<glyph horiz-adv-x="337" d="M 261 440 L 164 354 C 174 351 184 348 194 345 C 204 341 214 338 224 334 C 234 330 245 325 256 321 C 266 317 277 312 288 308 L 300 162 L 172 96 C 159 98 146 100 132 104 C 118 108 104 112 90 118 C 76 123 63 129 51 135 C 38 141 26 148 16 155 L 38 197 C 48 191 58 186 68 180 C 78 174 89 169 101 164 C 113 158 125 153 137 148 C 149 143 162 138 174 134 L 251 174 L 243 282 C 233 285 222 288 212 292 C 202 296 191 299 181 303 C 171 307 161 310 151 313 C 141 316 128 320 113 326 L 128 366 L 218 449 L 229 551 C 221 553 213 556 206 559 C 199 561 192 564 185 566 C 177 568 170 571 163 573 C 155 575 148 577 140 579 L 88 559 L 102 443 L 54 449 L 46 572 L 159 619 C 170 616 181 613 192 609 C 203 605 214 602 224 598 C 234 594 244 589 254 585 C 263 580 271 575 279 570 L 261 440 Z" unicode="" />
<glyph horiz-adv-x="263" d="M 96 528 L 61 538 L 161 698 C 165 695 170 692 174 689 C 178 685 181 682 185 678 C 189 674 192 671 196 667 C 199 663 202 658 206 654 L 96 528 Z" unicode="" />
<glyph horiz-adv-x="533" d="M 247 -17 C 238 -15 229 -13 219 -11 C 209 -9 199 -6 189 -2 C 179 1 169 5 159 9 C 149 13 139 18 130 23 L 140 -207 L 80 -194 L 83 54 L 83 458 C 87 458 92 457 96 457 C 100 456 105 455 109 455 C 113 455 118 454 122 453 C 126 452 131 451 135 451 L 135 74 C 143 70 152 66 162 62 C 172 58 182 54 193 50 C 204 46 215 42 225 40 C 235 37 245 35 255 33 L 370 114 L 370 458 C 374 458 379 457 383 457 C 387 456 392 455 396 455 C 400 455 405 454 409 453 C 413 452 418 451 422 451 L 422 45 L 512 34 L 498 -9 C 483 -7 470 -6 458 -4 C 446 -2 434 -1 424 1 C 414 3 404 5 395 8 C 385 11 377 15 370 19 L 370 82 L 247 -17 Z" unicode="" />
<glyph horiz-adv-x="724" d="M 69 369 L 187 499 C 199 495 213 491 228 485 C 242 479 257 472 272 466 C 286 459 300 452 313 445 C 326 437 337 431 346 425 L 346 -167 L 302 -180 L 193 -228 L 168 -185 L 295 -145 L 295 133 L 226 19 C 212 21 197 25 182 30 C 167 34 153 39 139 45 C 125 51 112 57 100 64 C 88 70 77 77 69 84 L 69 369 Z M 421 -153 L 421 449 L 586 455 L 586 406 L 473 406 L 473 -140 L 421 -153 Z" unicode="" />
<glyph horiz-adv-x="254" d="M 84 207 L 106 277 L 172 261 L 153 189 C 147 189 140 189 134 191 C 127 192 120 193 114 195 C 108 196 102 198 97 200 C 91 202 87 205 84 207 Z" unicode="" />
<glyph horiz-adv-x="253" d="M 65 -128 L 150 -102 L 150 -81 L 94 21 L 120 30 L 193 -72 L 193 -118 C 187 -122 179 -126 171 -131 C 162 -135 152 -140 142 -145 C 132 -149 121 -153 111 -157 C 101 -161 91 -164 82 -167 L 65 -128 Z" unicode="" />
<glyph horiz-adv-x="261" d="M 50 576 L 61 618 C 71 616 82 615 93 613 C 104 611 115 609 125 607 C 135 605 145 603 153 601 C 161 599 169 597 175 595 L 174 260 L 240 253 L 226 211 C 212 212 197 214 181 216 C 164 218 147 220 130 223 C 113 225 97 228 82 231 C 66 233 53 236 43 239 L 54 273 L 128 264 L 129 568 L 50 576 Z" unicode="" />
<glyph horiz-adv-x="381" d="M 316 294 L 201 208 C 187 210 174 214 161 218 C 148 222 136 227 124 232 C 112 237 101 243 91 249 C 81 255 72 261 64 267 L 66 560 L 182 620 C 196 616 209 613 222 609 C 234 605 246 600 258 596 C 269 592 280 587 290 582 C 300 576 309 571 318 566 L 316 294 Z M 208 251 L 269 304 L 271 541 C 263 544 256 547 248 551 C 240 555 231 558 223 561 C 214 564 205 567 197 570 C 188 572 180 574 172 576 L 111 547 L 110 287 C 117 283 125 280 133 276 C 141 272 150 269 158 266 C 166 262 175 259 184 257 C 192 255 200 253 208 251 Z M 46 112 L 59 144 C 75 141 93 138 115 134 C 137 130 160 127 185 123 C 209 119 234 115 259 112 C 284 109 307 107 328 105 L 313 55 C 289 57 264 61 238 65 C 211 69 185 74 160 80 C 134 86 112 91 92 97 C 72 102 56 107 46 112 Z" unicode="" />
<glyph horiz-adv-x="490" d="M 246 256 L 238 211 L 105 37 L 68 67 L 200 234 L 76 384 L 111 422 L 246 256 Z M 435 256 L 426 211 L 293 37 L 256 67 L 388 234 L 264 384 L 299 422 L 435 256 Z" unicode="" />
<glyph horiz-adv-x="759" d="M 483 631 L 233 -78 L 193 -67 L 431 641 L 483 631 Z M 50 576 L 61 618 C 71 616 82 615 93 613 C 104 611 115 609 125 607 C 135 605 145 603 153 601 C 161 599 169 597 175 595 L 174 260 L 240 253 L 226 211 C 212 212 197 214 181 216 C 164 218 147 220 130 223 C 113 225 97 228 82 231 C 66 233 53 236 43 239 L 54 273 L 128 264 L 129 568 L 50 576 Z M 608 332 L 559 338 L 574 378 C 581 377 588 376 595 375 C 602 373 609 372 616 371 C 622 369 629 368 636 366 C 642 364 649 361 656 359 L 654 22 L 737 15 L 723 -32 C 717 -31 710 -30 704 -30 C 698 -29 692 -28 686 -28 C 680 -27 674 -26 667 -26 C 659 -25 654 -24 652 -24 L 651 -140 L 603 -131 L 604 -18 C 584 -14 565 -10 548 -6 C 531 -2 515 2 500 6 C 485 10 471 15 458 20 C 444 24 432 29 420 35 L 473 216 L 454 372 L 503 382 L 515 218 L 473 57 C 483 54 493 51 504 48 C 515 45 526 42 538 40 C 550 37 561 35 573 33 C 584 31 595 29 606 28 L 608 332 Z" unicode="" />
<glyph horiz-adv-x="734" d="M 483 631 L 233 -78 L 193 -67 L 431 641 L 483 631 Z M 421 7 L 437 45 L 610 211 L 621 319 C 613 321 606 324 599 327 C 591 329 584 332 577 334 C 570 336 563 338 555 340 C 547 342 540 344 532 346 L 481 327 L 495 211 L 447 217 L 439 340 L 552 387 C 563 384 574 381 585 377 C 596 373 607 370 617 366 C 627 362 636 357 646 353 C 655 348 664 343 672 338 L 653 202 L 471 32 C 484 28 496 24 508 22 C 520 19 532 16 544 14 C 556 11 570 8 585 6 C 599 4 616 1 635 -1 L 652 127 L 697 112 L 673 -6 L 610 -44 C 592 -41 575 -38 559 -35 C 542 -31 526 -27 510 -23 C 494 -19 478 -14 463 -9 C 448 -4 434 1 421 7 Z M 50 576 L 61 618 C 71 616 82 615 93 613 C 104 611 115 609 125 607 C 135 605 145 603 153 601 C 161 599 169 597 175 595 L 174 260 L 240 253 L 226 211 C 212 212 197 214 181 216 C 164 218 147 220 130 223 C 113 225 97 228 82 231 C 66 233 53 236 43 239 L 54 273 L 128 264 L 129 568 L 50 576 Z" unicode="" />
<glyph horiz-adv-x="853" d="M 575 631 L 326 -78 L 285 -67 L 524 641 L 575 631 Z M 261 440 L 164 354 C 174 351 184 348 194 345 C 204 341 214 338 224 334 C 234 330 245 325 256 321 C 266 317 277 312 288 308 L 300 162 L 172 96 C 159 98 146 100 132 104 C 118 108 104 112 90 118 C 76 123 63 129 51 135 C 38 141 26 148 16 155 L 38 197 C 48 191 58 186 68 180 C 78 174 89 169 101 164 C 113 158 125 153 137 148 C 149 143 162 138 174 134 L 251 174 L 243 282 C 233 285 222 288 212 292 C 202 296 191 299 181 303 C 171 307 161 310 151 313 C 141 316 128 320 113 326 L 128 366 L 218 449 L 229 551 C 221 553 213 556 206 559 C 199 561 192 564 185 566 C 177 568 170 571 163 573 C 155 575 148 577 140 579 L 88 559 L 102 443 L 54 449 L 46 572 L 159 619 C 170 616 181 613 192 609 C 203 605 214 602 224 598 C 234 594 244 589 254 585 C 263 580 271 575 279 570 L 261 440 Z M 702 332 L 652 338 L 668 378 C 674 377 681 376 688 375 C 695 373 702 372 709 371 C 716 369 723 368 730 366 C 736 364 743 361 749 359 L 748 22 L 831 15 L 816 -32 C 810 -31 804 -30 798 -30 C 791 -29 785 -28 779 -28 C 773 -27 762 -26 746 -24 L 745 -140 L 696 -131 L 697 -18 C 677 -14 658 -10 641 -6 C 624 -2 608 2 594 6 C 579 10 565 15 552 20 C 538 24 526 29 514 35 L 566 216 L 548 372 L 596 382 L 608 218 L 566 57 C 576 54 586 51 597 48 C 608 45 619 42 631 40 C 643 37 654 35 666 33 C 678 31 689 29 700 28 L 702 332 Z" unicode="" />
<glyph horiz-adv-x="335" d="M 250 459 L 228 388 L 162 405 L 181 476 C 187 476 193 475 200 474 C 206 473 213 472 219 470 C 225 468 231 467 237 465 C 242 463 246 461 250 459 Z M 125 -110 L 65 143 L 182 213 L 183 298 L 227 289 L 233 205 L 119 129 L 172 -85 L 292 -173 L 256 -214 L 125 -110 Z" unicode="" />
<glyph horiz-adv-x="550" d="M 311 743 L 271 732 L 150 835 C 153 839 156 843 160 847 C 163 851 167 855 171 859 C 175 863 179 866 184 870 C 188 873 193 876 198 879 L 311 743 Z M 136 281 C 146 275 158 268 172 261 C 186 253 202 246 218 239 C 234 231 250 224 266 218 C 282 211 296 205 308 201 L 413 233 L 372 554 C 362 559 353 564 345 568 C 336 572 327 576 318 580 C 309 584 300 587 292 591 C 283 594 274 597 266 599 L 178 559 L 136 281 Z M 436 52 L 418 195 L 298 162 C 286 165 272 169 256 175 C 240 181 225 187 209 193 C 193 199 178 206 164 213 C 150 219 138 225 129 231 L 102 50 C 110 48 120 47 131 45 C 141 43 152 42 164 41 C 176 39 188 38 200 37 C 212 36 225 35 237 35 L 222 -10 C 202 -9 183 -8 165 -6 C 146 -4 128 -1 112 1 C 95 3 80 6 66 9 C 52 12 40 15 31 19 L 31 24 L 53 56 L 139 579 L 268 649 C 282 644 296 639 310 634 C 324 628 337 622 349 616 C 361 610 373 603 385 596 C 396 589 407 582 419 574 L 487 43 L 547 35 L 533 -8 C 523 -7 512 -6 501 -5 C 490 -3 479 -2 469 0 C 458 2 448 4 439 6 C 429 8 421 11 414 14 L 414 20 L 436 52 Z" unicode="" />
<glyph horiz-adv-x="550" d="M 272 732 L 237 747 L 361 880 C 365 877 369 874 373 871 C 377 867 381 864 385 860 C 389 856 392 852 396 848 C 400 844 403 840 406 836 L 272 732 Z M 136 281 C 146 275 158 268 172 261 C 186 253 202 246 218 239 C 234 231 250 224 266 218 C 282 211 296 205 308 201 L 413 233 L 372 554 C 362 559 353 564 345 568 C 336 572 327 576 318 580 C 309 584 300 587 292 591 C 283 594 274 597 266 599 L 178 559 L 136 281 Z M 436 52 L 418 195 L 298 162 C 286 165 272 169 256 175 C 240 181 225 187 209 193 C 193 199 178 206 164 213 C 150 219 138 225 129 231 L 102 50 C 110 48 120 47 131 45 C 141 43 152 42 164 41 C 176 39 188 38 200 37 C 212 36 225 35 237 35 L 222 -10 C 202 -9 183 -8 165 -6 C 146 -4 128 -1 112 1 C 95 3 80 6 66 9 C 52 12 40 15 31 19 L 31 24 L 53 56 L 139 579 L 268 649 C 282 644 296 639 310 634 C 324 628 337 622 349 616 C 361 610 373 603 385 596 C 396 589 407 582 419 574 L 487 43 L 547 35 L 533 -8 C 523 -7 512 -6 501 -5 C 490 -3 479 -2 469 0 C 458 2 448 4 439 6 C 429 8 421 11 414 14 L 414 20 L 436 52 Z" unicode="" />
<glyph horiz-adv-x="550" d="M 145 772 L 246 846 L 293 865 C 301 859 310 853 320 847 C 329 840 338 833 348 825 C 357 817 366 809 374 801 C 382 793 390 786 397 780 L 366 747 C 358 754 350 761 342 769 C 334 776 326 783 318 789 C 310 795 302 801 295 807 C 287 813 280 818 273 823 L 185 747 C 181 749 177 750 173 752 C 169 754 165 756 162 758 C 158 760 155 762 153 764 C 150 766 147 769 145 772 Z M 136 281 C 146 275 158 268 172 261 C 186 253 202 246 218 239 C 234 231 250 224 266 218 C 282 211 296 205 308 201 L 413 233 L 372 554 C 362 559 353 564 345 568 C 336 572 327 576 318 580 C 309 584 300 587 292 591 C 283 594 274 597 266 599 L 178 559 L 136 281 Z M 436 52 L 418 195 L 298 162 C 286 165 272 169 256 175 C 240 181 225 187 209 193 C 193 199 178 206 164 213 C 150 219 138 225 129 231 L 102 50 C 110 48 120 47 131 45 C 141 43 152 42 164 41 C 176 39 188 38 200 37 C 212 36 225 35 237 35 L 222 -10 C 202 -9 183 -8 165 -6 C 146 -4 128 -1 112 1 C 95 3 80 6 66 9 C 52 12 40 15 31 19 L 31 24 L 53 56 L 139 579 L 268 649 C 282 644 296 639 310 634 C 324 628 337 622 349 616 C 361 610 373 603 385 596 C 396 589 407 582 419 574 L 487 43 L 547 35 L 533 -8 C 523 -7 512 -6 501 -5 C 490 -3 479 -2 469 0 C 458 2 448 4 439 6 C 429 8 421 11 414 14 L 414 20 L 436 52 Z" unicode="" />
<glyph horiz-adv-x="550" d="M 137 760 L 201 832 L 248 850 L 340 782 L 388 856 C 391 854 394 852 398 850 C 401 848 404 846 407 844 C 409 842 412 840 414 838 C 416 836 419 834 421 832 L 364 759 L 318 748 L 228 809 L 174 736 C 170 737 166 738 163 740 C 159 742 156 744 153 746 C 150 748 147 750 145 752 C 142 754 139 757 137 760 Z M 136 281 C 146 275 158 268 172 261 C 186 253 202 246 218 239 C 234 231 250 224 266 218 C 282 211 296 205 308 201 L 413 233 L 372 554 C 362 559 353 564 345 568 C 336 572 327 576 318 580 C 309 584 300 587 292 591 C 283 594 274 597 266 599 L 178 559 L 136 281 Z M 436 52 L 418 195 L 298 162 C 286 165 272 169 256 175 C 240 181 225 187 209 193 C 193 199 178 206 164 213 C 150 219 138 225 129 231 L 102 50 C 110 48 120 47 131 45 C 141 43 152 42 164 41 C 176 39 188 38 200 37 C 212 36 225 35 237 35 L 222 -10 C 202 -9 183 -8 165 -6 C 146 -4 128 -1 112 1 C 95 3 80 6 66 9 C 52 12 40 15 31 19 L 31 24 L 53 56 L 139 579 L 268 649 C 282 644 296 639 310 634 C 324 628 337 622 349 616 C 361 610 373 603 385 596 C 396 589 407 582 419 574 L 487 43 L 547 35 L 533 -8 C 523 -7 512 -6 501 -5 C 490 -3 479 -2 469 0 C 458 2 448 4 439 6 C 429 8 421 11 414 14 L 414 20 L 436 52 Z" unicode="" />
<glyph horiz-adv-x="550" d="M 213 824 L 196 754 L 148 763 L 148 844 C 153 844 159 843 165 842 C 171 840 176 839 182 837 C 188 835 193 833 199 831 C 204 829 209 826 213 824 Z M 413 822 L 395 751 L 348 761 L 348 842 C 353 841 359 840 365 839 C 371 838 376 837 382 835 C 388 833 393 831 399 829 C 404 827 409 824 413 822 Z M 136 281 C 146 275 158 268 172 261 C 186 253 202 246 218 239 C 234 231 250 224 266 218 C 282 211 296 205 308 201 L 413 233 L 372 554 C 362 559 353 564 345 568 C 336 572 327 576 318 580 C 309 584 300 587 292 591 C 283 594 274 597 266 599 L 178 559 L 136 281 Z M 436 52 L 418 195 L 298 162 C 286 165 272 169 256 175 C 240 181 225 187 209 193 C 193 199 178 206 164 213 C 150 219 138 225 129 231 L 102 50 C 110 48 120 47 131 45 C 141 43 152 42 164 41 C 176 39 188 38 200 37 C 212 36 225 35 237 35 L 222 -10 C 202 -9 183 -8 165 -6 C 146 -4 128 -1 112 1 C 95 3 80 6 66 9 C 52 12 40 15 31 19 L 31 24 L 53 56 L 139 579 L 268 649 C 282 644 296 639 310 634 C 324 628 337 622 349 616 C 361 610 373 603 385 596 C 396 589 407 582 419 574 L 487 43 L 547 35 L 533 -8 C 523 -7 512 -6 501 -5 C 490 -3 479 -2 469 0 C 458 2 448 4 439 6 C 429 8 421 11 414 14 L 414 20 L 436 52 Z" unicode="" />
<glyph horiz-adv-x="550" d="M 373 780 L 291 727 C 282 729 273 731 265 734 C 256 736 247 739 239 743 C 230 747 221 751 213 756 C 205 760 197 765 191 770 L 191 867 L 278 913 C 286 911 294 908 302 906 C 310 903 318 900 326 896 C 334 892 342 888 350 884 C 358 880 365 875 373 871 L 373 780 Z M 334 790 L 334 846 C 330 848 326 850 322 853 C 317 855 312 858 306 860 C 300 862 294 865 288 867 C 282 869 276 871 271 873 L 229 853 L 229 792 C 233 790 237 787 242 785 C 246 783 251 780 257 778 C 263 776 269 774 275 772 C 281 770 287 768 293 767 L 334 790 Z M 136 281 C 146 275 158 268 172 261 C 186 253 202 246 218 239 C 234 231 250 224 266 218 C 282 211 296 205 308 201 L 413 233 L 372 554 C 362 559 353 564 345 568 C 336 572 327 576 318 580 C 309 584 300 587 292 591 C 283 594 274 597 266 599 L 178 559 L 136 281 Z M 436 52 L 418 195 L 298 162 C 286 165 272 169 256 175 C 240 181 225 187 209 193 C 193 199 178 206 164 213 C 150 219 138 225 129 231 L 102 50 C 110 48 120 47 131 45 C 141 43 152 42 164 41 C 176 39 188 38 200 37 C 212 36 225 35 237 35 L 222 -10 C 202 -9 183 -8 165 -6 C 146 -4 128 -1 112 1 C 95 3 80 6 66 9 C 52 12 40 15 31 19 L 31 24 L 53 56 L 139 579 L 268 649 C 282 644 296 639 310 634 C 324 628 337 622 349 616 C 361 610 373 603 385 596 C 396 589 407 582 419 574 L 487 43 L 547 35 L 533 -8 C 523 -7 512 -6 501 -5 C 490 -3 479 -2 469 0 C 458 2 448 4 439 6 C 429 8 421 11 414 14 L 414 20 L 436 52 Z" unicode="" />
<glyph horiz-adv-x="799" d="M 136 277 C 146 271 158 264 172 257 C 186 250 200 243 216 236 C 231 229 246 222 261 216 C 276 210 289 205 301 201 L 406 233 L 416 289 L 372 554 C 362 559 353 564 345 568 C 336 572 327 576 318 580 C 309 584 300 587 292 591 C 283 594 274 597 266 599 L 178 559 L 136 277 Z M 291 162 C 279 165 266 169 252 174 C 238 179 223 185 208 191 C 193 197 179 204 165 210 C 151 216 139 222 129 228 L 102 50 C 110 48 120 47 131 45 C 141 43 152 42 164 41 C 176 39 188 38 200 37 C 212 36 225 35 237 35 L 222 -10 C 202 -9 183 -8 165 -6 C 146 -4 128 -1 112 1 C 95 3 80 6 66 9 C 52 12 40 15 31 19 L 31 24 L 53 56 L 139 579 L 268 649 C 282 644 295 639 308 634 C 320 629 332 624 344 618 C 356 612 367 605 378 599 C 389 593 400 586 411 579 L 558 647 C 570 643 581 640 593 636 C 605 632 616 628 628 624 C 639 619 650 614 661 609 C 671 604 683 599 696 593 L 713 683 L 744 672 L 728 410 L 678 418 L 691 553 C 678 558 666 563 654 568 C 642 572 631 577 619 581 C 607 585 596 588 585 592 C 573 595 562 598 550 601 L 422 543 L 463 310 L 700 298 L 683 250 L 461 273 L 430 79 C 438 75 450 71 466 66 C 482 61 499 56 517 51 C 535 46 552 42 569 38 C 585 34 599 31 609 29 L 773 107 L 789 63 L 593 -20 C 573 -16 552 -11 531 -5 C 510 1 490 7 470 14 C 450 21 432 28 416 35 C 400 42 386 49 376 55 L 399 191 L 291 162 Z" unicode="" />
<glyph horiz-adv-x="491" d="M 239 -140 L 323 -114 L 323 -94 L 281 -16 C 261 -11 241 -5 221 1 C 200 8 180 16 160 24 C 140 32 123 41 107 50 C 91 58 78 66 68 73 L 68 557 L 244 647 C 259 643 273 638 287 634 C 301 630 314 625 327 621 C 340 616 353 611 365 606 C 377 601 390 596 402 590 L 418 683 L 449 672 L 426 344 L 374 352 L 396 544 C 384 548 372 553 358 558 C 344 563 329 568 315 573 C 300 578 286 583 272 587 C 258 591 245 595 233 598 L 120 543 L 120 98 C 129 93 141 87 156 81 C 171 74 188 67 206 61 C 224 54 241 48 259 42 C 277 36 292 32 306 29 L 465 113 L 481 69 L 313 -9 L 366 -84 L 366 -130 C 360 -134 353 -138 345 -143 C 336 -147 326 -152 316 -157 C 306 -161 295 -165 285 -169 C 275 -173 265 -176 256 -179 L 239 -140 Z" unicode="" />
<glyph horiz-adv-x="477" d="M 279 743 L 239 732 L 118 835 C 121 839 124 843 128 847 C 131 851 135 855 139 859 C 143 863 147 866 152 870 C 156 873 161 876 166 879 L 279 743 Z M 43 555 L 237 647 C 249 643 260 640 272 636 C 284 632 295 628 307 624 C 318 619 329 614 340 609 C 350 604 362 599 375 593 L 392 683 L 422 672 L 407 410 L 356 418 L 370 553 C 357 559 345 564 333 569 C 321 573 309 577 298 581 C 286 585 275 588 264 592 C 252 595 241 598 229 601 L 99 543 L 142 310 L 378 298 L 362 250 L 139 272 L 109 99 C 117 93 129 87 145 80 C 161 73 178 66 196 59 C 214 51 232 45 248 39 C 264 33 278 30 288 29 L 452 107 L 468 63 L 272 -20 C 251 -16 230 -11 209 -4 C 188 2 168 10 149 20 C 129 29 112 38 96 48 C 80 57 66 66 55 75 L 95 289 L 43 555 Z" unicode="" />
<glyph horiz-adv-x="477" d="M 235 732 L 200 747 L 324 880 C 328 877 332 874 336 871 C 340 867 345 864 349 860 C 353 856 356 852 360 848 C 364 844 367 840 370 836 L 235 732 Z M 43 555 L 237 647 C 249 643 260 640 272 636 C 284 632 295 628 307 624 C 318 619 329 614 340 609 C 350 604 362 599 375 593 L 392 683 L 422 672 L 407 410 L 356 418 L 370 553 C 357 559 345 564 333 569 C 321 573 309 577 298 581 C 286 585 275 588 264 592 C 252 595 241 598 229 601 L 99 543 L 142 310 L 378 298 L 362 250 L 139 272 L 109 99 C 117 93 129 87 145 80 C 161 73 178 66 196 59 C 214 51 232 45 248 39 C 264 33 278 30 288 29 L 452 107 L 468 63 L 272 -20 C 251 -16 230 -11 209 -4 C 188 2 168 10 149 20 C 129 29 112 38 96 48 C 80 57 66 66 55 75 L 95 289 L 43 555 Z" unicode="" />
<glyph horiz-adv-x="477" d="M 114 772 L 216 846 L 262 865 C 270 859 279 853 289 847 C 298 840 307 833 317 825 C 326 817 335 809 343 801 C 351 793 359 786 366 780 L 335 747 C 327 754 320 761 312 769 C 304 776 296 783 288 789 C 280 795 272 801 264 807 C 256 813 249 818 242 823 L 154 747 C 150 749 146 750 142 752 C 138 754 134 756 131 758 C 127 760 124 762 122 764 C 119 766 116 769 114 772 Z M 43 555 L 237 647 C 249 643 260 640 272 636 C 284 632 295 628 307 624 C 318 619 329 614 340 609 C 350 604 362 599 375 593 L 392 683 L 422 672 L 407 410 L 356 418 L 370 553 C 357 559 345 564 333 569 C 321 573 309 577 298 581 C 286 585 275 588 264 592 C 252 595 241 598 229 601 L 99 543 L 142 310 L 378 298 L 362 250 L 139 272 L 109 99 C 117 93 129 87 145 80 C 161 73 178 66 196 59 C 214 51 232 45 248 39 C 264 33 278 30 288 29 L 452 107 L 468 63 L 272 -20 C 251 -16 230 -11 209 -4 C 188 2 168 10 149 20 C 129 29 112 38 96 48 C 80 57 66 66 55 75 L 95 289 L 43 555 Z" unicode="" />
<glyph horiz-adv-x="477" d="M 177 824 L 159 754 L 112 763 L 112 844 C 117 844 123 843 129 842 C 135 840 140 839 146 837 C 152 835 157 833 163 831 C 168 829 173 826 177 824 Z M 376 822 L 359 751 L 311 761 L 311 842 C 316 841 322 840 328 839 C 334 838 339 837 345 835 C 351 833 356 831 362 829 C 367 827 372 824 376 822 Z M 43 555 L 237 647 C 249 643 260 640 272 636 C 284 632 295 628 307 624 C 318 619 329 614 340 609 C 350 604 362 599 375 593 L 392 683 L 422 672 L 407 410 L 356 418 L 370 553 C 357 559 345 564 333 569 C 321 573 309 577 298 581 C 286 585 275 588 264 592 C 252 595 241 598 229 601 L 99 543 L 142 310 L 378 298 L 362 250 L 139 272 L 109 99 C 117 93 129 87 145 80 C 161 73 178 66 196 59 C 214 51 232 45 248 39 C 264 33 278 30 288 29 L 452 107 L 468 63 L 272 -20 C 251 -16 230 -11 209 -4 C 188 2 168 10 149 20 C 129 29 112 38 96 48 C 80 57 66 66 55 75 L 95 289 L 43 555 Z" unicode="" />
<glyph horiz-adv-x="265" d="M 168 743 L 128 732 L 7 835 C 10 839 13 843 17 847 C 20 851 24 855 28 859 C 32 863 36 866 41 870 C 45 873 50 876 55 879 L 168 743 Z M 108 50 L 108 581 L 5 592 L 21 634 C 40 633 61 631 83 629 C 105 626 126 623 147 620 C 167 617 186 614 203 610 C 220 606 234 602 246 598 L 238 562 L 159 574 L 159 44 L 262 33 L 246 -10 C 226 -9 206 -7 184 -5 C 162 -2 141 0 121 4 C 100 7 81 10 64 14 C 46 18 32 22 21 26 L 30 59 L 108 50 Z" unicode="" />
<glyph horiz-adv-x="265" d="M 136 732 L 101 747 L 226 880 C 230 877 234 874 238 871 C 242 867 245 864 249 860 C 253 856 256 852 260 848 C 264 844 267 840 271 836 L 136 732 Z M 108 50 L 108 581 L 5 592 L 21 634 C 40 633 61 631 83 629 C 105 626 126 623 147 620 C 167 617 186 614 203 610 C 220 606 234 602 246 598 L 238 562 L 159 574 L 159 44 L 262 33 L 246 -10 C 226 -9 206 -7 184 -5 C 162 -2 141 0 121 4 C 100 7 81 10 64 14 C 46 18 32 22 21 26 L 30 59 L 108 50 Z" unicode="" />
<glyph horiz-adv-x="265" d="M 3 772 L 105 846 L 151 865 C 159 859 168 853 178 847 C 187 840 196 833 206 825 C 215 817 224 809 232 801 C 240 793 248 786 255 780 L 224 747 C 216 754 209 761 201 768 C 193 775 185 782 177 789 C 169 795 161 801 153 807 C 145 812 138 817 131 823 L 43 747 C 39 749 35 750 31 752 C 27 754 23 756 20 758 C 16 760 13 762 11 764 C 8 766 5 769 3 772 Z M 108 50 L 108 581 L 5 592 L 21 634 C 40 633 61 631 83 629 C 105 626 126 623 147 620 C 167 617 186 614 203 610 C 220 606 234 602 246 598 L 238 562 L 159 574 L 159 44 L 262 33 L 246 -10 C 226 -9 206 -7 184 -5 C 162 -2 141 0 121 4 C 100 7 81 10 64 14 C 46 18 32 22 21 26 L 30 59 L 108 50 Z" unicode="" />
<glyph horiz-adv-x="265" d="M 82 824 L 65 754 L 18 763 L 18 844 C 22 844 28 843 34 842 C 40 840 45 839 51 837 C 57 835 62 833 68 831 C 73 829 78 826 82 824 Z M 260 822 L 242 751 L 195 761 L 195 842 C 200 841 206 840 212 839 C 218 838 223 837 229 835 C 235 833 240 831 246 829 C 251 827 256 824 260 822 Z M 108 50 L 108 581 L 5 592 L 21 634 C 40 633 61 631 83 629 C 105 626 126 623 147 620 C 167 617 186 614 203 610 C 220 606 234 602 246 598 L 238 562 L 159 574 L 159 44 L 262 33 L 246 -10 C 226 -9 206 -7 184 -5 C 162 -2 141 0 121 4 C 100 7 81 10 64 14 C 46 18 32 22 21 26 L 30 59 L 108 50 Z" unicode="" />
<glyph horiz-adv-x="564" d="M 309 20 L 404 59 L 466 263 L 405 535 C 383 542 363 549 344 555 C 325 561 306 566 287 572 C 268 577 249 582 229 587 C 209 592 186 598 161 604 L 161 329 C 174 327 187 325 200 323 C 212 321 225 320 238 318 C 251 316 264 315 276 314 C 288 312 299 311 310 311 L 298 265 C 287 265 276 266 265 268 C 253 269 242 270 230 272 C 218 274 207 276 195 278 C 183 280 172 282 161 284 L 161 53 C 179 49 192 45 202 43 C 212 41 222 38 233 36 C 244 33 256 30 268 28 C 280 25 294 22 309 20 Z M 443 35 L 301 -24 C 282 -20 261 -16 237 -11 C 213 -6 188 0 163 5 C 137 11 113 18 90 25 C 66 31 46 38 29 44 L 44 78 L 109 64 L 109 294 C 99 296 89 299 81 301 C 72 303 64 305 57 307 C 49 309 43 312 37 314 C 31 316 27 318 23 320 L 35 349 C 39 348 44 347 50 346 C 55 345 60 344 66 343 C 72 342 86 340 109 336 L 109 615 L 5 632 L 31 671 C 69 665 109 658 149 650 C 189 642 227 632 264 622 C 301 612 335 601 367 590 C 398 579 425 568 449 558 L 518 272 L 443 35 Z" unicode="" />
<glyph horiz-adv-x="564" d="M 153 760 L 217 832 L 263 850 L 355 782 L 404 856 C 407 854 410 852 413 850 C 416 848 419 846 422 844 C 425 842 428 840 430 838 C 432 836 435 834 437 832 L 380 759 L 333 748 L 243 809 L 189 736 C 185 737 182 738 179 740 C 175 742 172 744 169 746 C 166 748 163 750 161 752 C 158 754 155 757 153 760 Z M 356 586 L 373 631 C 386 629 398 628 410 626 C 422 624 432 622 442 620 C 452 618 461 615 469 613 C 477 611 485 608 493 606 L 493 -7 L 436 5 L 444 102 L 125 480 L 120 57 C 128 55 138 54 150 52 C 162 50 174 48 187 46 C 200 44 213 43 227 41 C 241 39 254 38 266 37 L 252 -9 C 230 -7 209 -4 189 -2 C 169 0 150 3 132 7 C 114 10 99 14 85 18 C 71 22 60 25 50 29 L 50 34 L 71 66 L 85 541 L 5 607 L 54 641 L 444 182 L 444 573 C 439 573 433 574 427 576 C 420 577 413 578 405 579 C 397 580 389 581 381 582 C 373 583 364 584 356 586 Z" unicode="" />
<glyph horiz-adv-x="587" d="M 333 743 L 293 732 L 172 835 C 175 839 178 843 182 847 C 185 851 189 855 193 859 C 197 863 201 866 206 870 C 210 873 215 876 220 879 L 333 743 Z M 516 78 L 310 -26 C 290 -22 268 -16 246 -8 C 223 0 200 7 178 17 C 155 27 134 37 115 47 C 96 57 80 67 68 77 L 68 555 L 274 647 C 292 643 312 638 335 631 C 358 623 381 615 405 605 C 428 595 449 584 469 573 C 489 562 504 552 516 543 L 516 78 Z M 322 19 L 464 97 L 464 522 C 452 528 438 536 421 544 C 403 552 385 559 366 567 C 346 575 327 582 309 588 C 291 594 275 599 262 602 L 120 537 L 120 98 C 131 92 145 85 163 77 C 180 69 198 62 218 54 C 237 46 256 39 274 33 C 292 27 308 22 322 19 Z" unicode="" />
<glyph horiz-adv-x="587" d="M 290 732 L 255 747 L 380 880 C 384 877 388 874 392 871 C 396 867 400 864 404 860 C 408 856 411 852 415 848 C 419 844 422 840 425 836 L 290 732 Z M 516 78 L 310 -26 C 290 -22 268 -16 246 -8 C 223 0 200 7 178 17 C 155 27 134 37 115 47 C 96 57 80 67 68 77 L 68 555 L 274 647 C 292 643 312 638 335 631 C 358 623 381 615 405 605 C 428 595 449 584 469 573 C 489 562 504 552 516 543 L 516 78 Z M 322 19 L 464 97 L 464 522 C 452 528 438 536 421 544 C 403 552 385 559 366 567 C 346 575 327 582 309 588 C 291 594 275 599 262 602 L 120 537 L 120 98 C 131 92 145 85 163 77 C 180 69 198 62 218 54 C 237 46 256 39 274 33 C 292 27 308 22 322 19 Z" unicode="" />
<glyph horiz-adv-x="587" d="M 163 772 L 264 846 L 310 865 C 318 860 326 854 336 847 C 346 840 355 833 365 825 C 374 817 383 810 391 802 C 399 794 407 787 415 780 L 384 747 C 376 754 368 761 360 769 C 352 776 344 783 336 789 C 328 795 320 801 312 807 C 304 813 297 818 290 823 L 202 747 C 198 749 194 750 190 752 C 186 754 183 756 180 758 C 176 760 173 763 171 765 C 168 767 165 769 163 772 Z M 516 78 L 310 -26 C 290 -22 268 -16 246 -8 C 223 0 200 7 178 17 C 155 27 134 37 115 47 C 96 57 80 67 68 77 L 68 555 L 274 647 C 292 643 312 638 335 631 C 358 623 381 615 405 605 C 428 595 449 584 469 573 C 489 562 504 552 516 543 L 516 78 Z M 322 19 L 464 97 L 464 522 C 452 528 438 536 421 544 C 403 552 385 559 366 567 C 346 575 327 582 309 588 C 291 594 275 599 262 602 L 120 537 L 120 98 C 131 92 145 85 163 77 C 180 69 198 62 218 54 C 237 46 256 39 274 33 C 292 27 308 22 322 19 Z" unicode="" />
<glyph horiz-adv-x="587" d="M 156 760 L 220 832 L 266 850 L 359 782 L 407 856 C 410 854 413 852 416 850 C 419 848 422 846 425 844 C 428 842 431 840 433 838 C 435 836 438 834 440 832 L 383 759 L 337 748 L 246 809 L 193 736 C 189 737 185 738 182 740 C 178 742 175 744 172 746 C 169 748 166 750 164 752 C 161 754 158 757 156 760 Z M 516 78 L 310 -26 C 290 -22 268 -16 246 -8 C 223 0 200 7 178 17 C 155 27 134 37 115 47 C 96 57 80 67 68 77 L 68 555 L 274 647 C 292 643 312 638 335 631 C 358 623 381 615 405 605 C 428 595 449 584 469 573 C 489 562 504 552 516 543 L 516 78 Z M 322 19 L 464 97 L 464 522 C 452 528 438 536 421 544 C 403 552 385 559 366 567 C 346 575 327 582 309 588 C 291 594 275 599 262 602 L 120 537 L 120 98 C 131 92 145 85 163 77 C 180 69 198 62 218 54 C 237 46 256 39 274 33 C 292 27 308 22 322 19 Z" unicode="" />
<glyph horiz-adv-x="587" d="M 233 824 L 216 754 L 168 763 L 168 844 C 173 844 179 843 185 842 C 191 840 196 839 202 837 C 208 835 213 833 219 831 C 224 829 229 826 233 824 Z M 432 822 L 415 751 L 367 761 L 367 842 C 372 841 378 840 384 839 C 390 838 395 837 401 835 C 407 833 412 831 418 829 C 423 827 428 824 432 822 Z M 516 78 L 310 -26 C 290 -22 268 -16 246 -8 C 223 0 200 7 178 17 C 155 27 134 37 115 47 C 96 57 80 67 68 77 L 68 555 L 274 647 C 292 643 312 638 335 631 C 358 623 381 615 405 605 C 428 595 449 584 469 573 C 489 562 504 552 516 543 L 516 78 Z M 322 19 L 464 97 L 464 522 C 452 528 438 536 421 544 C 403 552 385 559 366 567 C 346 575 327 582 309 588 C 291 594 275 599 262 602 L 120 537 L 120 98 C 131 92 145 85 163 77 C 180 69 198 62 218 54 C 237 46 256 39 274 33 C 292 27 308 22 322 19 Z" unicode="" />
<glyph horiz-adv-x="407" d="M 316 85 C 306 94 296 104 286 114 C 276 124 266 134 256 144 C 246 154 237 165 227 176 C 217 186 208 197 200 208 L 91 87 C 89 89 86 92 83 96 C 80 100 77 104 74 108 C 70 112 67 117 65 121 C 63 125 61 128 60 132 L 174 239 C 161 254 149 269 138 284 C 126 299 116 313 107 326 C 97 338 89 350 83 361 C 76 371 71 380 67 387 L 98 408 C 105 399 113 389 121 379 C 129 369 138 358 148 347 C 157 335 167 324 177 312 C 187 300 198 287 209 275 L 328 407 C 330 405 332 402 335 398 C 337 394 340 391 343 387 C 346 383 349 379 351 375 C 353 371 355 367 357 364 L 237 243 C 246 232 255 221 265 211 C 275 201 285 190 295 180 C 305 169 315 158 325 148 C 335 137 346 127 357 117 L 316 85 Z" unicode="" />
<glyph horiz-adv-x="587" d="M 120 98 C 124 95 128 92 133 90 C 137 87 142 84 148 82 C 154 79 160 76 166 74 C 172 71 179 68 186 66 L 356 571 C 347 574 338 577 330 580 C 321 583 313 586 305 589 C 297 591 289 594 282 596 C 274 598 268 600 262 602 L 120 537 L 120 98 Z M 322 19 L 464 97 L 464 522 C 460 524 455 526 450 529 C 445 531 440 534 434 537 C 428 539 422 542 416 545 C 410 548 403 551 397 554 L 225 51 C 233 47 242 44 251 41 C 259 37 268 34 276 32 C 284 29 292 26 300 24 C 308 22 315 20 322 19 Z M 516 78 L 310 -26 C 302 -24 294 -23 286 -21 C 278 -19 269 -16 261 -14 C 253 -11 244 -8 236 -5 C 227 -2 218 0 210 4 L 164 -147 L 118 -131 L 170 21 C 160 25 150 29 140 34 C 130 38 120 43 112 48 C 103 53 95 58 88 63 C 80 67 74 72 68 77 L 68 555 L 274 647 C 280 645 287 644 295 642 C 303 640 311 637 319 635 C 327 632 336 629 345 626 C 353 623 362 620 372 617 L 419 769 L 467 750 L 412 601 C 422 596 433 591 443 586 C 453 581 463 576 472 571 C 481 566 489 561 497 557 C 504 552 510 547 516 543 L 516 78 Z" unicode="" />
<glyph horiz-adv-x="569" d="M 311 743 L 271 732 L 150 835 C 153 839 156 843 160 847 C 163 851 167 855 171 859 C 175 863 179 866 184 870 C 188 873 193 876 198 879 L 311 743 Z M 86 576 L 5 587 L 21 630 C 39 629 56 628 73 626 C 89 624 105 621 119 619 C 133 617 145 614 157 612 C 168 609 178 606 187 603 L 187 598 L 137 573 L 137 96 C 145 90 154 85 164 80 C 174 74 185 69 197 63 C 209 57 221 52 234 47 C 246 42 259 38 271 34 L 429 250 L 429 571 L 268 588 L 282 632 C 298 631 316 629 336 627 C 356 625 375 622 394 619 C 412 615 429 612 445 608 C 460 604 472 601 481 597 L 481 45 L 571 34 L 557 -9 C 542 -7 529 -6 517 -4 C 505 -2 493 -1 483 1 C 473 3 463 5 454 8 C 444 11 436 15 429 19 L 429 193 L 282 -18 C 266 -13 248 -7 230 -1 C 212 5 194 13 176 22 C 158 30 142 39 126 49 C 110 58 97 67 86 76 L 86 576 Z" unicode="" />
<glyph horiz-adv-x="569" d="M 274 732 L 239 747 L 363 880 C 367 877 371 874 375 871 C 379 867 383 864 387 860 C 391 856 394 852 398 848 C 401 844 404 840 408 836 L 274 732 Z M 86 576 L 5 587 L 21 630 C 39 629 56 628 73 626 C 89 624 105 621 119 619 C 133 617 145 614 157 612 C 168 609 178 606 187 603 L 187 598 L 137 573 L 137 96 C 145 90 154 85 164 80 C 174 74 185 69 197 63 C 209 57 221 52 234 47 C 246 42 259 38 271 34 L 429 250 L 429 571 L 268 588 L 282 632 C 298 631 316 629 336 627 C 356 625 375 622 394 619 C 412 615 429 612 445 608 C 460 604 472 601 481 597 L 481 45 L 571 34 L 557 -9 C 542 -7 529 -6 517 -4 C 505 -2 493 -1 483 1 C 473 3 463 5 454 8 C 444 11 436 15 429 19 L 429 193 L 282 -18 C 266 -13 248 -7 230 -1 C 212 5 194 13 176 22 C 158 30 142 39 126 49 C 110 58 97 67 86 76 L 86 576 Z" unicode="" />
<glyph horiz-adv-x="569" d="M 154 772 L 255 846 L 301 865 C 309 859 318 853 328 847 C 337 840 346 833 356 825 C 365 817 374 809 383 801 C 391 793 399 786 406 780 L 375 747 C 367 754 359 761 351 769 C 343 776 335 783 327 789 C 319 795 311 801 304 807 C 296 813 289 818 282 823 L 194 747 C 190 749 186 750 182 752 C 178 754 174 756 171 758 C 167 760 164 762 162 764 C 159 766 156 769 154 772 Z M 86 576 L 5 587 L 21 630 C 39 629 56 628 73 626 C 89 624 105 621 119 619 C 133 617 145 614 157 612 C 168 609 178 606 187 603 L 187 598 L 137 573 L 137 96 C 145 90 154 85 164 80 C 174 74 185 69 197 63 C 209 57 221 52 234 47 C 246 42 259 38 271 34 L 429 250 L 429 571 L 268 588 L 282 632 C 298 631 316 629 336 627 C 356 625 375 622 394 619 C 412 615 429 612 445 608 C 460 604 472 601 481 597 L 481 45 L 571 34 L 557 -9 C 542 -7 529 -6 517 -4 C 505 -2 493 -1 483 1 C 473 3 463 5 454 8 C 444 11 436 15 429 19 L 429 193 L 282 -18 C 266 -13 248 -7 230 -1 C 212 5 194 13 176 22 C 158 30 142 39 126 49 C 110 58 97 67 86 76 L 86 576 Z" unicode="" />
<glyph horiz-adv-x="569" d="M 222 824 L 205 754 L 157 763 L 157 844 C 162 844 168 843 174 842 C 180 840 185 839 191 837 C 197 835 202 833 208 831 C 213 829 218 826 222 824 Z M 421 822 L 404 751 L 356 761 L 356 842 C 361 841 367 840 373 839 C 379 838 384 837 390 835 C 396 833 401 831 407 829 C 412 827 417 824 421 822 Z M 86 576 L 5 587 L 21 630 C 39 629 56 628 73 626 C 89 624 105 621 119 619 C 133 617 145 614 157 612 C 168 609 178 606 187 603 L 187 598 L 137 573 L 137 96 C 145 90 154 85 164 80 C 174 74 185 69 197 63 C 209 57 221 52 234 47 C 246 42 259 38 271 34 L 429 250 L 429 571 L 268 588 L 282 632 C 298 631 316 629 336 627 C 356 625 375 622 394 619 C 412 615 429 612 445 608 C 460 604 472 601 481 597 L 481 45 L 571 34 L 557 -9 C 542 -7 529 -6 517 -4 C 505 -2 493 -1 483 1 C 473 3 463 5 454 8 C 444 11 436 15 429 19 L 429 193 L 282 -18 C 266 -13 248 -7 230 -1 C 212 5 194 13 176 22 C 158 30 142 39 126 49 C 110 58 97 67 86 76 L 86 576 Z" unicode="" />
<glyph horiz-adv-x="479" d="M 244 732 L 209 747 L 333 880 C 337 877 341 874 345 871 C 349 867 353 864 357 860 C 361 856 364 852 368 848 C 371 844 374 840 378 836 L 244 732 Z M 228 46 L 228 204 C 216 209 204 214 194 220 C 183 225 173 231 163 237 C 153 243 143 250 134 257 C 124 263 116 270 108 278 L 44 583 L -17 591 L -1 634 C 12 633 26 632 40 630 C 54 628 68 625 82 623 C 96 621 108 618 119 616 C 130 613 139 610 146 608 L 146 604 L 95 577 L 154 301 C 160 295 167 290 176 284 C 184 278 193 272 203 266 C 213 260 223 255 233 250 C 243 245 253 241 262 238 L 350 305 L 415 576 C 406 577 396 578 386 580 C 376 581 365 582 353 584 C 341 585 330 586 318 587 C 306 588 293 589 280 591 L 295 636 C 314 634 333 633 352 631 C 370 629 388 626 405 624 C 421 622 437 619 451 616 C 465 613 476 610 486 607 L 486 602 L 464 570 L 395 286 L 280 210 L 280 40 L 378 29 L 363 -12 C 343 -11 323 -9 302 -7 C 280 -4 260 -1 240 2 C 220 5 201 8 184 12 C 167 16 153 20 142 24 L 151 58 L 228 46 Z" unicode="" />
<glyph horiz-adv-x="539" d="M 156 380 L 156 222 C 163 218 172 214 184 210 C 196 206 208 201 222 197 C 235 193 248 189 261 185 C 274 181 286 178 297 176 L 409 224 L 426 472 C 418 476 408 481 397 487 C 386 492 375 497 363 503 C 351 508 339 513 327 518 C 315 522 305 526 297 529 L 156 380 Z M 105 50 L 105 658 L 28 667 L 43 711 C 56 709 68 708 78 707 C 88 705 97 703 107 701 C 116 699 125 696 133 694 C 141 691 148 688 156 684 L 156 422 L 293 579 C 307 575 323 569 340 563 C 357 556 374 548 391 540 C 408 532 424 523 439 515 C 453 507 466 499 477 492 L 455 208 L 293 132 C 283 134 271 136 259 140 C 247 143 234 147 222 151 C 209 155 197 159 185 164 C 173 168 164 173 156 177 L 156 44 L 258 33 L 243 -10 C 223 -9 203 -7 183 -5 C 163 -3 143 0 125 2 C 106 5 89 8 73 12 C 57 16 44 20 33 24 L 42 57 L 105 50 Z" unicode="" />
<glyph horiz-adv-x="395" d="M 106 641 L 140 51 L 168 79 C 176 73 184 68 192 62 C 200 56 209 51 217 47 C 225 42 233 38 241 34 C 249 30 256 27 262 25 L 315 55 L 289 238 L 200 369 L 192 403 L 291 600 C 285 604 276 610 265 617 C 254 624 242 631 229 639 C 216 647 203 654 191 660 C 179 666 169 670 161 673 L 106 641 Z M 258 -18 C 248 -15 237 -12 227 -8 C 216 -4 206 0 196 4 C 186 8 176 13 167 18 C 157 23 149 28 141 33 L 153 -176 L 110 -207 C 101 -205 91 -203 81 -201 C 71 -198 60 -195 50 -192 C 40 -188 29 -185 19 -181 C 9 -177 0 -173 -8 -169 L 14 -127 C 21 -131 28 -134 35 -138 C 42 -141 49 -144 56 -147 C 63 -149 70 -152 78 -154 C 85 -156 93 -159 101 -161 L 74 406 L -2 419 L 7 451 L 70 451 L 57 646 L 174 719 C 185 715 198 710 214 703 C 229 695 245 687 261 678 C 277 669 292 660 306 651 C 320 641 331 633 340 626 L 330 584 L 233 408 L 337 256 L 366 49 L 258 -18 Z" unicode="" />
<glyph horiz-adv-x="397" d="M 228 539 L 187 528 L 84 651 C 85 654 87 658 91 663 C 94 667 98 672 102 676 C 106 680 111 684 117 688 C 122 691 127 693 132 695 L 228 539 Z M 101 382 L 100 76 C 104 73 110 70 117 68 C 123 66 130 63 137 61 C 144 58 151 56 159 54 C 166 52 173 50 180 48 L 279 251 L 280 377 C 272 381 263 385 254 389 C 245 393 236 398 228 402 C 219 406 211 409 203 413 C 195 416 187 419 179 422 L 101 382 Z M 55 394 L 191 469 C 198 466 206 463 214 459 C 222 455 230 451 238 447 C 246 443 254 438 262 434 C 270 430 277 425 285 421 L 296 524 C 300 522 303 520 307 518 C 310 516 313 513 316 511 C 318 508 321 505 323 502 C 325 499 327 496 329 493 L 326 43 L 388 36 L 373 -6 C 363 -4 354 -3 345 -1 C 336 0 328 1 320 3 C 312 5 304 7 297 9 C 290 11 283 13 277 15 L 279 184 L 189 -8 C 178 -5 166 -1 154 3 C 141 7 128 12 116 18 C 104 24 92 30 81 36 C 70 42 61 48 53 54 L 55 394 Z" unicode="" />
<glyph horiz-adv-x="397" d="M 191 528 L 156 538 L 256 698 C 260 695 265 692 269 689 C 273 685 277 682 281 678 C 285 674 288 671 291 667 C 294 663 297 658 301 654 L 191 528 Z M 101 382 L 100 76 C 104 73 110 70 117 68 C 123 66 130 63 137 61 C 144 58 151 56 159 54 C 166 52 173 50 180 48 L 279 251 L 280 377 C 272 381 263 385 254 389 C 245 393 236 398 228 402 C 219 406 211 409 203 413 C 195 416 187 419 179 422 L 101 382 Z M 55 394 L 191 469 C 198 466 206 463 214 459 C 222 455 230 451 238 447 C 246 443 254 438 262 434 C 270 430 277 425 285 421 L 296 524 C 300 522 303 520 307 518 C 310 516 313 513 316 511 C 318 508 321 505 323 502 C 325 499 327 496 329 493 L 326 43 L 388 36 L 373 -6 C 363 -4 354 -3 345 -1 C 336 0 328 1 320 3 C 312 5 304 7 297 9 C 290 11 283 13 277 15 L 279 184 L 189 -8 C 178 -5 166 -1 154 3 C 141 7 128 12 116 18 C 104 24 92 30 81 36 C 70 42 61 48 53 54 L 55 394 Z" unicode="" />
<glyph horiz-adv-x="397" d="M 74 566 L 174 651 L 220 670 C 228 664 237 658 247 650 C 257 642 266 633 276 624 C 286 615 295 606 303 598 C 311 589 319 581 326 574 L 295 541 C 285 550 277 558 269 566 C 261 574 253 581 245 589 C 237 597 229 604 221 610 C 213 616 206 622 200 628 L 113 541 C 109 543 105 544 101 546 C 97 548 94 550 91 552 C 88 554 85 557 82 559 C 79 561 76 564 74 566 Z M 101 382 L 100 76 C 104 73 110 70 117 68 C 123 66 130 63 137 61 C 144 58 151 56 159 54 C 166 52 173 50 180 48 L 279 251 L 280 377 C 272 381 263 385 254 389 C 245 393 236 398 228 402 C 219 406 211 409 203 413 C 195 416 187 419 179 422 L 101 382 Z M 55 394 L 191 469 C 198 466 206 463 214 459 C 222 455 230 451 238 447 C 246 443 254 438 262 434 C 270 430 277 425 285 421 L 296 524 C 300 522 303 520 307 518 C 310 516 313 513 316 511 C 318 508 321 505 323 502 C 325 499 327 496 329 493 L 326 43 L 388 36 L 373 -6 C 363 -4 354 -3 345 -1 C 336 0 328 1 320 3 C 312 5 304 7 297 9 C 290 11 283 13 277 15 L 279 184 L 189 -8 C 178 -5 166 -1 154 3 C 141 7 128 12 116 18 C 104 24 92 30 81 36 C 70 42 61 48 53 54 L 55 394 Z" unicode="" />
<glyph horiz-adv-x="397" d="M 57 580 L 121 651 L 167 670 L 260 602 L 308 675 C 311 673 314 672 317 670 C 320 668 323 666 326 664 C 329 662 332 660 334 658 C 336 656 339 653 341 651 L 284 579 L 238 568 L 147 628 L 94 555 C 90 556 86 558 83 560 C 79 562 76 564 73 566 C 70 568 67 570 65 572 C 62 574 59 577 57 580 Z M 101 382 L 100 76 C 104 73 110 70 117 68 C 123 66 130 63 137 61 C 144 58 151 56 159 54 C 166 52 173 50 180 48 L 279 251 L 280 377 C 272 381 263 385 254 389 C 245 393 236 398 228 402 C 219 406 211 409 203 413 C 195 416 187 419 179 422 L 101 382 Z M 55 394 L 191 469 C 198 466 206 463 214 459 C 222 455 230 451 238 447 C 246 443 254 438 262 434 C 270 430 277 425 285 421 L 296 524 C 300 522 303 520 307 518 C 310 516 313 513 316 511 C 318 508 321 505 323 502 C 325 499 327 496 329 493 L 326 43 L 388 36 L 373 -6 C 363 -4 354 -3 345 -1 C 336 0 328 1 320 3 C 312 5 304 7 297 9 C 290 11 283 13 277 15 L 279 184 L 189 -8 C 178 -5 166 -1 154 3 C 141 7 128 12 116 18 C 104 24 92 30 81 36 C 70 42 61 48 53 54 L 55 394 Z" unicode="" />
<glyph horiz-adv-x="397" d="M 144 630 L 127 555 L 81 565 L 81 650 C 86 650 91 649 97 648 C 103 646 108 645 114 643 C 120 641 125 639 130 637 C 135 635 140 632 144 630 Z M 319 628 L 301 553 L 256 563 L 256 648 C 261 648 266 647 272 646 C 278 644 283 643 289 641 C 294 639 299 637 305 635 C 310 633 315 630 319 628 Z M 101 382 L 100 76 C 104 73 110 70 117 68 C 123 66 130 63 137 61 C 144 58 151 56 159 54 C 166 52 173 50 180 48 L 279 251 L 280 377 C 272 381 263 385 254 389 C 245 393 236 398 228 402 C 219 406 211 409 203 413 C 195 416 187 419 179 422 L 101 382 Z M 55 394 L 191 469 C 198 466 206 463 214 459 C 222 455 230 451 238 447 C 246 443 254 438 262 434 C 270 430 277 425 285 421 L 296 495 C 300 493 303 491 307 489 C 310 487 313 484 316 482 C 318 479 321 476 323 473 C 325 470 327 467 329 464 L 326 43 L 388 36 L 373 -6 C 363 -4 354 -3 345 -1 C 336 0 328 1 320 3 C 312 5 304 7 297 9 C 290 11 283 13 277 15 L 279 184 L 189 -8 C 178 -5 166 -1 154 3 C 141 7 128 12 116 18 C 104 24 92 30 81 36 C 70 42 61 48 53 54 L 55 394 Z" unicode="" />
<glyph horiz-adv-x="397" d="M 289 580 L 208 527 C 199 528 190 530 182 533 C 173 536 164 539 155 543 C 146 547 138 551 130 556 C 122 560 114 565 108 570 L 108 667 L 195 713 C 203 711 211 708 219 706 C 227 703 235 700 243 696 C 251 692 258 688 266 684 C 274 680 281 675 289 671 L 289 580 Z M 251 590 L 251 646 C 247 648 243 650 238 652 C 233 654 228 657 222 660 C 216 662 210 665 204 667 C 198 669 192 671 187 673 L 145 652 L 145 592 C 149 590 153 587 158 585 C 162 583 167 580 173 578 C 179 575 185 573 191 571 C 197 569 203 567 209 566 L 251 590 Z M 101 382 L 100 76 C 104 73 110 70 117 68 C 123 66 130 63 137 61 C 144 58 151 56 159 54 C 166 52 173 50 180 48 L 279 251 L 280 377 C 272 381 263 385 254 389 C 245 393 236 398 228 402 C 219 406 211 409 203 413 C 195 416 187 419 179 422 L 101 382 Z M 55 394 L 191 469 C 198 466 206 463 214 459 C 222 455 230 451 238 447 C 246 443 254 438 262 434 C 270 430 277 425 285 421 L 296 524 C 300 522 303 520 307 518 C 310 516 313 513 316 511 C 318 508 321 505 323 502 C 325 499 327 496 329 493 L 326 43 L 388 36 L 373 -6 C 363 -4 354 -3 345 -1 C 336 0 328 1 320 3 C 312 5 304 7 297 9 C 290 11 283 13 277 15 L 279 184 L 189 -8 C 178 -5 166 -1 154 3 C 141 7 128 12 116 18 C 104 24 92 30 81 36 C 70 42 61 48 53 54 L 55 394 Z" unicode="" />
<glyph horiz-adv-x="587" d="M 573 88 L 424 -13 C 411 -9 398 -5 384 0 C 370 4 357 10 344 16 C 330 22 318 28 307 34 C 295 40 286 45 278 51 L 280 189 L 189 -8 C 178 -5 166 -1 154 3 C 141 7 128 12 116 18 C 104 24 92 30 81 36 C 70 42 61 48 53 54 L 55 394 L 191 469 C 198 466 206 463 214 459 C 222 455 231 451 239 447 C 247 443 256 438 264 434 C 272 430 279 425 286 421 L 294 524 C 298 522 301 520 305 518 C 308 516 311 513 314 511 C 316 508 319 505 321 502 C 323 499 325 496 327 493 L 327 418 L 416 471 C 424 468 433 464 445 460 C 457 455 469 449 481 443 C 493 437 505 430 516 424 C 527 417 536 411 544 405 L 513 232 L 326 120 L 326 74 C 334 70 342 66 350 63 C 358 59 367 56 375 53 C 383 49 392 46 401 44 C 409 41 418 38 428 36 L 547 124 L 573 88 Z M 101 382 L 100 76 C 104 73 110 70 117 68 C 123 66 130 63 137 61 C 144 58 151 56 159 54 C 166 52 173 50 180 48 L 280 252 L 280 377 C 272 381 263 385 254 389 C 245 393 236 398 228 402 C 219 406 211 409 203 413 C 195 416 187 419 179 422 L 101 382 Z M 328 378 L 327 157 L 471 249 L 494 382 C 488 385 481 388 473 392 C 465 396 458 399 450 403 C 442 406 439 407 442 406 C 445 404 432 409 402 421 L 328 378 Z" unicode="" />
<glyph horiz-adv-x="348" d="M 144 -128 L 229 -102 L 229 -81 L 190 -11 C 177 -7 164 -2 152 2 C 139 7 127 13 115 19 C 103 25 91 32 81 39 C 71 46 61 53 53 61 L 55 392 L 185 471 C 193 468 200 465 206 463 C 212 460 219 457 225 455 C 231 453 237 450 243 448 C 249 445 254 442 260 440 L 272 521 L 302 510 L 284 240 L 238 248 L 254 394 C 248 396 241 399 235 402 C 228 404 221 407 215 409 C 209 411 202 413 196 415 C 189 417 182 419 176 421 L 102 378 L 101 84 C 109 79 118 74 127 69 C 136 64 145 59 154 55 C 163 51 172 47 181 44 C 189 40 197 37 205 35 L 312 124 L 339 88 L 219 1 L 272 -72 L 272 -118 C 266 -122 259 -126 251 -131 C 242 -135 232 -140 222 -145 C 212 -149 201 -153 191 -157 C 181 -161 171 -164 162 -167 L 144 -128 Z" unicode="" />
<glyph horiz-adv-x="363" d="M 224 539 L 184 528 L 80 651 C 81 654 83 658 87 663 C 90 667 94 672 99 676 C 103 680 108 684 114 688 C 119 691 124 693 129 695 L 224 539 Z M 349 88 L 199 -13 C 185 -9 172 -4 158 1 C 144 6 131 12 119 18 C 106 24 94 31 83 39 C 71 46 61 53 53 61 L 56 392 L 191 471 C 199 468 208 464 220 460 C 232 455 244 449 256 443 C 268 437 280 430 292 424 C 303 417 312 411 320 405 L 288 232 L 101 120 L 101 84 C 109 79 118 74 126 70 C 134 65 143 61 152 57 C 160 53 169 49 178 46 C 186 42 195 39 204 36 L 322 124 L 349 88 Z M 103 378 L 102 157 L 246 249 L 269 382 C 263 385 256 388 248 392 C 240 396 233 399 225 403 C 217 406 209 409 202 412 C 194 414 186 417 177 421 L 103 378 Z" unicode="" />
<glyph horiz-adv-x="363" d="M 184 528 L 148 538 L 249 698 C 253 695 258 692 262 689 C 266 685 269 682 273 678 C 277 674 280 671 284 667 C 287 663 290 658 294 654 L 184 528 Z M 349 88 L 199 -13 C 185 -9 172 -4 158 1 C 144 6 131 12 119 18 C 106 24 94 31 83 39 C 71 46 61 53 53 61 L 56 392 L 191 471 C 199 468 208 464 220 460 C 232 455 244 449 256 443 C 268 437 280 430 292 424 C 303 417 312 411 320 405 L 288 232 L 101 120 L 101 84 C 109 79 118 74 126 70 C 134 65 143 61 152 57 C 160 53 169 49 178 46 C 186 42 195 39 204 36 L 322 124 L 349 88 Z M 103 378 L 102 157 L 246 249 L 269 382 C 263 385 256 388 248 392 C 240 396 233 399 225 403 C 217 406 209 409 202 412 C 194 414 186 417 177 421 L 103 378 Z" unicode="" />
<glyph horiz-adv-x="363" d="M 61 566 L 161 651 L 207 670 C 215 664 224 658 234 650 C 244 642 253 633 263 624 C 273 615 282 606 290 598 C 298 589 306 581 312 574 L 282 541 C 272 550 264 558 256 566 C 248 574 240 581 232 589 C 224 597 216 604 208 610 C 200 616 193 622 187 628 L 100 541 C 96 543 92 545 88 547 C 84 549 81 551 78 553 C 74 555 71 557 68 559 C 65 561 63 564 61 566 Z M 349 88 L 199 -13 C 185 -9 172 -4 158 1 C 144 6 131 12 119 18 C 106 24 94 31 83 39 C 71 46 61 53 53 61 L 56 392 L 191 471 C 199 468 208 464 220 460 C 232 455 244 449 256 443 C 268 437 280 430 292 424 C 303 417 312 411 320 405 L 288 232 L 101 120 L 101 84 C 109 79 118 74 126 70 C 134 65 143 61 152 57 C 160 53 169 49 178 46 C 186 42 195 39 204 36 L 322 124 L 349 88 Z M 103 378 L 102 157 L 246 249 L 269 382 C 263 385 256 388 248 392 C 240 396 233 399 225 403 C 217 406 209 409 202 412 C 194 414 186 417 177 421 L 103 378 Z" unicode="" />
<glyph horiz-adv-x="363" d="M 136 630 L 119 555 L 74 565 L 74 650 C 79 650 84 649 90 648 C 96 646 101 645 107 643 C 112 641 117 639 122 637 C 127 635 132 632 136 630 Z M 311 628 L 294 553 L 249 563 L 249 648 C 253 648 258 647 264 646 C 270 644 275 643 281 641 C 287 639 292 637 297 635 C 302 633 307 630 311 628 Z M 349 88 L 199 -13 C 185 -9 172 -4 158 1 C 144 6 131 12 119 18 C 106 24 94 31 83 39 C 71 46 61 53 53 61 L 56 392 L 191 471 C 199 468 208 464 220 460 C 232 455 244 449 256 443 C 268 437 280 430 292 424 C 303 417 312 411 320 405 L 288 232 L 101 120 L 101 84 C 109 79 118 74 126 70 C 134 65 143 61 152 57 C 160 53 169 49 178 46 C 186 42 195 39 204 36 L 322 124 L 349 88 Z M 103 378 L 102 157 L 246 249 L 269 382 C 263 385 256 388 248 392 C 240 396 233 399 225 403 C 217 406 209 409 202 412 C 194 414 186 417 177 421 L 103 378 Z" unicode="" />
<glyph horiz-adv-x="180" d="M 125 539 L 85 528 L -19 651 C -17 654 -15 658 -12 663 C -8 667 -4 672 0 676 C 4 680 9 684 15 688 C 20 691 25 693 30 695 L 125 539 Z M 118 461 L 114 43 L 177 36 L 162 -6 C 149 -4 137 -3 125 -1 C 113 1 103 3 93 5 C 83 7 74 9 66 11 C 58 13 51 16 45 18 L 45 22 L 67 45 L 69 376 L 61 447 L 118 461 Z" unicode="" />
<glyph horiz-adv-x="180" d="M 96 528 L 61 538 L 161 698 C 165 695 170 692 174 689 C 178 685 181 682 185 678 C 189 674 192 671 196 667 C 199 663 202 658 206 654 L 96 528 Z M 118 461 L 114 43 L 177 36 L 162 -6 C 149 -4 137 -3 125 -1 C 113 1 103 3 93 5 C 83 7 74 9 66 11 C 58 13 51 16 45 18 L 45 22 L 67 45 L 69 376 L 61 447 L 118 461 Z" unicode="" />
<glyph horiz-adv-x="180" d="M -31 566 L 69 651 L 116 670 C 124 664 133 658 143 650 C 153 642 162 633 172 624 C 182 615 191 606 199 598 C 207 589 215 581 221 574 L 190 541 C 181 549 172 558 164 566 C 156 574 148 581 140 589 C 132 597 124 604 117 610 C 109 616 102 622 96 628 L 9 541 C 5 543 1 544 -2 546 C -6 548 -9 550 -13 552 C -16 554 -19 557 -22 559 C -25 561 -28 563 -31 566 Z M 118 461 L 114 43 L 177 36 L 162 -6 C 149 -4 137 -3 125 -1 C 113 1 103 3 93 5 C 83 7 74 9 66 11 C 58 13 51 16 45 18 L 45 22 L 67 45 L 69 376 L 61 447 L 118 461 Z" unicode="" />
<glyph horiz-adv-x="180" d="M 56 630 L 39 555 L -7 565 L -7 650 C -1 650 3 649 9 648 C 15 646 20 645 26 643 C 32 641 37 639 42 637 C 47 635 52 632 56 630 Z M 200 628 L 182 553 L 137 563 L 137 648 C 142 648 147 647 153 646 C 159 644 164 643 170 641 C 176 639 181 637 186 635 C 191 633 196 630 200 628 Z M 118 461 L 114 43 L 177 36 L 162 -6 C 149 -4 137 -3 125 -1 C 113 1 103 3 93 5 C 83 7 74 9 66 11 C 58 13 51 16 45 18 L 45 22 L 67 45 L 69 376 L 61 447 L 118 461 Z" unicode="" />
<glyph horiz-adv-x="384" d="M 41 532 L 42 571 L 106 594 L 41 694 L 91 712 L 155 612 L 312 669 L 306 623 L 176 579 L 335 331 L 332 88 L 205 -11 C 191 -7 177 -3 163 1 C 149 5 136 10 124 16 C 111 22 99 28 87 34 C 75 40 64 47 53 54 L 55 275 L 177 487 L 128 562 L 41 532 Z M 285 101 L 286 322 L 199 455 L 101 265 L 100 79 C 108 75 117 71 127 67 C 137 63 147 59 157 55 C 167 51 177 47 187 44 C 197 41 205 39 213 37 L 285 101 Z" unicode="" />
<glyph horiz-adv-x="413" d="M 73 580 L 136 651 L 183 670 L 275 602 L 323 675 C 326 673 329 672 333 670 C 336 668 339 666 342 664 C 345 662 348 659 350 657 C 352 655 354 653 356 651 L 299 579 L 253 568 L 163 628 L 109 555 C 105 556 102 558 98 560 C 94 562 91 564 88 566 C 85 568 82 571 80 573 C 77 575 75 578 73 580 Z M 52 444 L 106 460 L 113 266 L 211 470 C 222 467 234 463 247 459 C 259 454 272 449 285 443 C 298 437 310 432 321 426 C 332 420 342 414 350 408 L 346 43 L 409 36 L 394 -6 C 381 -4 369 -3 357 -1 C 345 1 335 3 325 5 C 315 7 306 9 298 11 C 290 13 283 16 277 18 L 277 22 L 299 45 L 301 384 C 296 386 291 389 285 391 C 279 393 272 396 266 399 C 259 401 252 404 246 406 C 239 408 232 409 226 411 L 116 208 L 114 43 L 177 36 L 162 -6 C 149 -4 137 -3 125 -1 C 113 1 103 3 93 5 C 83 7 74 9 66 11 C 58 13 51 16 45 18 L 45 22 L 67 45 L 68 256 L 52 444 Z" unicode="" />
<glyph horiz-adv-x="389" d="M 224 539 L 184 528 L 80 651 C 81 654 83 658 87 663 C 90 667 94 672 99 676 C 103 680 108 684 114 688 C 119 691 124 693 129 695 L 224 539 Z M 333 88 L 207 -11 C 191 -7 176 -3 162 1 C 148 5 134 11 121 17 C 107 23 95 29 84 36 C 72 42 62 49 53 57 L 55 397 L 184 469 C 200 465 215 460 229 456 C 243 451 257 446 269 441 C 281 435 293 430 304 424 C 315 418 326 411 337 405 L 333 88 Z M 215 37 L 286 101 L 288 378 C 280 382 271 386 261 390 C 251 394 241 397 231 401 C 221 405 211 408 201 411 C 191 414 181 417 173 419 L 101 385 L 101 79 C 109 75 118 71 128 67 C 137 63 147 59 157 55 C 167 51 176 48 186 45 C 196 41 205 39 215 37 Z" unicode="" />
<glyph horiz-adv-x="389" d="M 189 528 L 154 538 L 254 698 C 258 695 263 692 267 689 C 271 685 275 682 279 678 C 283 674 286 671 289 667 C 292 663 295 658 299 654 L 189 528 Z M 333 88 L 207 -11 C 191 -7 176 -3 162 1 C 148 5 134 11 121 17 C 107 23 95 29 84 36 C 72 42 62 49 53 57 L 55 397 L 184 469 C 200 465 215 460 229 456 C 243 451 257 446 269 441 C 281 435 293 430 304 424 C 315 418 326 411 337 405 L 333 88 Z M 215 37 L 286 101 L 288 378 C 280 382 271 386 261 390 C 251 394 241 397 231 401 C 221 405 211 408 201 411 C 191 414 181 417 173 419 L 101 385 L 101 79 C 109 75 118 71 128 67 C 137 63 147 59 157 55 C 167 51 176 48 186 45 C 196 41 205 39 215 37 Z" unicode="" />
<glyph horiz-adv-x="389" d="M 67 566 L 167 651 L 213 670 C 221 664 231 658 241 650 C 251 642 260 633 270 624 C 280 615 289 606 297 598 C 305 589 313 581 319 574 L 288 541 C 279 549 270 558 262 566 C 254 574 246 581 238 589 C 230 597 222 604 215 610 C 207 616 200 622 194 628 L 107 541 C 103 543 99 544 95 546 C 91 548 88 550 85 552 C 81 554 78 557 75 559 C 72 561 69 563 67 566 Z M 333 88 L 207 -11 C 191 -7 176 -3 162 1 C 148 5 134 11 121 17 C 107 23 95 29 84 36 C 72 42 62 49 53 57 L 55 397 L 184 469 C 200 465 215 460 229 456 C 243 451 257 446 269 441 C 281 435 293 430 304 424 C 315 418 326 411 337 405 L 333 88 Z M 215 37 L 286 101 L 288 378 C 280 382 271 386 261 390 C 251 394 241 397 231 401 C 221 405 211 408 201 411 C 191 414 181 417 173 419 L 101 385 L 101 79 C 109 75 118 71 128 67 C 137 63 147 59 157 55 C 167 51 176 48 186 45 C 196 41 205 39 215 37 Z" unicode="" />
<glyph horiz-adv-x="389" d="M 59 580 L 123 651 L 169 670 L 262 602 L 310 675 C 313 673 316 672 319 670 C 322 668 325 666 328 664 C 331 662 334 660 336 658 C 338 656 341 653 343 651 L 286 579 L 240 568 L 150 628 L 96 555 C 92 556 88 558 85 560 C 81 562 78 564 75 566 C 72 568 69 570 67 572 C 64 574 61 577 59 580 Z M 333 88 L 207 -11 C 191 -7 176 -3 162 1 C 148 5 134 11 121 17 C 107 23 95 29 84 36 C 72 42 62 49 53 57 L 55 397 L 184 469 C 200 465 215 460 229 456 C 243 451 257 446 269 441 C 281 435 293 430 304 424 C 315 418 326 411 337 405 L 333 88 Z M 215 37 L 286 101 L 288 378 C 280 382 271 386 261 390 C 251 394 241 397 231 401 C 221 405 211 408 201 411 C 191 414 181 417 173 419 L 101 385 L 101 79 C 109 75 118 71 128 67 C 137 63 147 59 157 55 C 167 51 176 48 186 45 C 196 41 205 39 215 37 Z" unicode="" />
<glyph horiz-adv-x="389" d="M 145 630 L 128 555 L 82 565 L 82 650 C 87 650 92 649 98 648 C 104 646 109 645 115 643 C 121 641 126 639 131 637 C 136 635 141 632 145 630 Z M 320 628 L 302 553 L 257 563 L 257 648 C 262 648 267 647 273 646 C 279 644 284 643 290 641 C 296 639 301 637 306 635 C 311 633 316 630 320 628 Z M 333 88 L 207 -11 C 191 -7 176 -3 162 1 C 148 5 134 11 121 17 C 107 23 95 29 84 36 C 72 42 62 49 53 57 L 55 397 L 184 469 C 200 465 215 460 229 456 C 243 451 257 446 269 441 C 281 435 293 430 304 424 C 315 418 326 411 337 405 L 333 88 Z M 215 37 L 286 101 L 288 378 C 280 382 271 386 261 390 C 251 394 241 397 231 401 C 221 405 211 408 201 411 C 191 414 181 417 173 419 L 101 385 L 101 79 C 109 75 118 71 128 67 C 137 63 147 59 157 55 C 167 51 176 48 186 45 C 196 41 205 39 215 37 Z" unicode="" />
<glyph horiz-adv-x="439" d="M 174 369 L 197 440 L 262 423 L 244 352 C 238 352 231 352 225 353 C 218 354 211 355 205 357 C 199 359 193 361 188 363 C 182 365 178 367 174 369 Z M 52 241 L 66 274 C 80 270 100 266 126 262 C 152 258 180 253 210 249 C 240 244 270 240 299 237 C 328 233 353 231 375 229 L 361 180 C 337 181 310 184 279 189 C 247 193 216 199 186 205 C 155 211 127 217 103 224 C 79 230 62 236 52 241 Z M 174 49 L 197 120 L 262 103 L 244 32 C 238 32 231 32 225 33 C 218 34 211 35 205 37 C 199 39 193 41 188 43 C 182 45 178 47 174 49 Z" unicode="" />
<glyph horiz-adv-x="389" d="M 101 79 L 129 66 L 223 405 C 219 406 214 407 210 409 C 206 410 201 411 197 413 C 193 414 189 415 185 416 C 181 417 177 418 173 419 L 101 385 L 101 79 Z M 215 37 L 286 101 L 288 378 L 260 392 L 164 53 C 168 51 172 49 176 48 C 180 46 184 45 188 44 C 192 42 197 41 201 40 C 205 39 210 38 215 37 Z M 333 88 L 207 -11 C 202 -10 197 -9 193 -8 C 188 -6 183 -5 179 -4 C 174 -2 165 0 151 4 L 121 -111 L 76 -97 L 114 20 C 108 22 102 25 97 28 C 91 31 86 34 81 37 C 76 40 71 43 66 47 C 61 50 57 53 53 57 L 55 397 L 184 469 C 190 467 195 466 199 465 C 203 463 207 462 211 461 C 215 459 220 458 224 457 C 228 455 233 454 237 453 L 265 569 L 312 553 L 274 439 C 280 436 285 433 291 430 C 296 427 301 424 307 422 C 312 419 317 416 322 413 C 327 410 332 407 337 405 L 333 88 Z" unicode="" />
<glyph horiz-adv-x="395" d="M 235 539 L 195 528 L 91 651 C 92 654 94 658 98 663 C 101 667 105 672 110 676 C 114 680 119 684 125 688 C 130 691 135 693 140 695 L 235 539 Z M 282 15 L 283 182 L 189 -10 C 177 -7 166 -3 154 0 C 142 4 131 9 120 14 C 108 19 98 24 88 30 C 78 36 69 41 62 47 L 65 358 L 52 447 L 103 461 L 112 376 L 110 71 C 115 69 120 67 125 65 C 130 63 135 61 141 59 C 146 57 152 55 158 53 C 164 51 170 50 176 48 L 283 248 L 285 409 L 204 417 L 220 459 C 229 459 239 458 250 457 C 261 455 272 454 282 452 C 292 450 302 449 311 447 C 319 445 327 444 333 442 L 330 43 L 393 36 L 377 -6 C 367 -4 358 -3 350 -1 C 341 0 333 1 325 3 C 317 5 309 7 302 9 C 295 11 288 13 282 15 Z" unicode="" />
<glyph horiz-adv-x="395" d="M 198 528 L 163 538 L 263 698 C 267 695 272 692 276 689 C 280 685 284 682 288 678 C 292 674 295 671 298 667 C 301 663 304 658 308 654 L 198 528 Z M 282 15 L 283 182 L 189 -10 C 177 -7 166 -3 154 0 C 142 4 131 9 120 14 C 108 19 98 24 88 30 C 78 36 69 41 62 47 L 65 358 L 52 447 L 103 461 L 112 376 L 110 71 C 115 69 120 67 125 65 C 130 63 135 61 141 59 C 146 57 152 55 158 53 C 164 51 170 50 176 48 L 283 248 L 285 409 L 204 417 L 220 459 C 229 459 239 458 250 457 C 261 455 272 454 282 452 C 292 450 302 449 311 447 C 319 445 327 444 333 442 L 330 43 L 393 36 L 377 -6 C 367 -4 358 -3 350 -1 C 341 0 333 1 325 3 C 317 5 309 7 302 9 C 295 11 288 13 282 15 Z" unicode="" />
<glyph horiz-adv-x="395" d="M 69 566 L 169 651 L 216 670 C 224 664 233 658 243 650 C 253 642 262 633 272 624 C 282 615 291 606 299 598 C 307 589 315 581 321 574 L 290 541 C 281 549 272 558 264 566 C 256 574 248 581 240 589 C 232 597 224 604 217 610 C 209 616 202 622 196 628 L 109 541 C 105 543 101 544 97 546 C 93 548 90 550 87 552 C 83 554 80 557 77 559 C 74 561 71 563 69 566 Z M 282 15 L 283 182 L 189 -10 C 177 -7 166 -3 154 0 C 142 4 131 9 120 14 C 108 19 98 24 88 30 C 78 36 69 41 62 47 L 65 358 L 52 447 L 103 461 L 112 376 L 110 71 C 115 69 120 67 125 65 C 130 63 135 61 141 59 C 146 57 152 55 158 53 C 164 51 170 50 176 48 L 283 248 L 285 409 L 204 417 L 220 459 C 229 459 239 458 250 457 C 261 455 272 454 282 452 C 292 450 302 449 311 447 C 319 445 327 444 333 442 L 330 43 L 393 36 L 377 -6 C 367 -4 358 -3 350 -1 C 341 0 333 1 325 3 C 317 5 309 7 302 9 C 295 11 288 13 282 15 Z" unicode="" />
<glyph horiz-adv-x="395" d="M 147 630 L 130 555 L 85 565 L 85 650 C 90 650 95 649 101 648 C 107 646 112 645 118 643 C 123 641 128 639 133 637 C 138 635 143 632 147 630 Z M 322 628 L 305 553 L 260 563 L 260 648 C 264 648 269 647 275 646 C 281 644 286 643 292 641 C 298 639 303 637 308 635 C 313 633 318 630 322 628 Z M 282 15 L 283 182 L 189 -10 C 177 -7 166 -3 154 0 C 142 4 131 9 120 14 C 108 19 98 24 88 30 C 78 36 69 41 62 47 L 65 358 L 52 447 L 103 461 L 112 376 L 110 71 C 115 69 120 67 125 65 C 130 63 135 61 141 59 C 146 57 152 55 158 53 C 164 51 170 50 176 48 L 283 248 L 285 409 L 204 417 L 220 459 C 229 459 239 458 250 457 C 261 455 272 454 282 452 C 292 450 302 449 311 447 C 319 445 327 444 333 442 L 330 43 L 393 36 L 377 -6 C 367 -4 358 -3 350 -1 C 341 0 333 1 325 3 C 317 5 309 7 302 9 C 295 11 288 13 282 15 Z" unicode="" />
<glyph horiz-adv-x="386" d="M 200 528 L 165 538 L 265 698 C 269 695 274 692 278 689 C 282 685 286 682 290 678 C 294 674 297 671 300 667 C 303 663 306 658 310 654 L 200 528 Z M 112 376 L 110 76 C 114 73 120 70 127 68 C 133 66 140 63 148 61 C 156 58 163 56 171 54 C 178 52 185 50 193 48 L 284 235 L 285 409 L 204 417 L 220 459 C 229 459 239 458 250 457 C 261 455 272 454 282 452 C 292 450 302 449 311 447 C 319 445 327 444 333 442 L 330 208 L 354 -132 L 188 -232 C 176 -228 161 -222 144 -214 C 127 -206 109 -197 91 -187 C 73 -177 55 -166 39 -156 C 22 -145 8 -135 -2 -127 L 29 -86 L 166 2 C 156 5 147 9 137 13 C 127 17 118 21 109 26 C 99 30 91 35 83 40 C 75 44 68 49 62 54 L 65 358 L 52 447 L 103 461 L 112 376 Z M 285 170 L 206 -8 L 61 -111 C 71 -118 83 -125 95 -132 C 107 -139 119 -146 131 -153 C 143 -159 154 -165 165 -171 C 175 -177 185 -182 195 -186 L 299 -122 L 285 170 Z" unicode="" />
<glyph horiz-adv-x="402" d="M 298 101 L 300 381 C 294 383 289 386 283 388 C 277 390 270 393 264 396 C 257 398 250 401 244 403 C 237 405 230 406 224 408 L 114 208 L 113 79 C 121 75 130 71 140 67 C 150 63 160 59 170 55 C 180 51 190 47 200 44 C 210 41 219 39 227 37 L 298 101 Z M 47 640 L 101 656 L 112 266 L 210 466 C 221 463 233 459 246 455 C 259 450 272 445 285 440 C 297 434 309 429 320 423 C 331 417 341 411 349 405 L 345 88 L 218 -11 C 207 -8 197 -5 187 -3 C 177 0 168 2 160 6 C 151 9 143 12 135 16 C 127 20 119 24 112 28 L 111 -149 L 200 -157 L 185 -199 C 174 -197 163 -196 152 -195 C 140 -193 129 -192 118 -190 C 107 -188 97 -186 88 -184 C 78 -182 70 -179 64 -177 L 67 256 L 47 640 Z" unicode="" />
<glyph horiz-adv-x="386" d="M 147 630 L 130 555 L 85 565 L 85 650 C 90 650 95 649 101 648 C 107 646 112 645 118 643 C 123 641 128 639 133 637 C 138 635 143 632 147 630 Z M 322 628 L 305 553 L 260 563 L 260 648 C 264 648 269 647 275 646 C 281 644 286 643 292 641 C 298 639 303 637 308 635 C 313 633 318 630 322 628 Z M 112 376 L 110 76 C 114 73 120 70 127 68 C 133 66 140 63 148 61 C 156 58 163 56 171 54 C 178 52 185 50 193 48 L 284 235 L 285 409 L 204 417 L 220 459 C 229 459 239 458 250 457 C 261 455 272 454 282 452 C 292 450 302 449 311 447 C 319 445 327 444 333 442 L 330 208 L 354 -132 L 188 -232 C 176 -228 161 -222 144 -214 C 127 -206 109 -197 91 -187 C 73 -177 55 -166 39 -156 C 22 -145 8 -135 -2 -127 L 29 -86 L 166 2 C 156 5 147 9 137 13 C 127 17 118 21 109 26 C 99 30 91 35 83 40 C 75 44 68 49 62 54 L 65 358 L 52 447 L 103 461 L 112 376 Z M 285 170 L 206 -8 L 61 -111 C 71 -118 83 -125 95 -132 C 107 -139 119 -146 131 -153 C 143 -159 154 -165 165 -171 C 175 -177 185 -182 195 -186 L 299 -122 L 285 170 Z" unicode="" />
<glyph horiz-adv-x="550" d="M 159 793 L 173 827 C 187 824 203 821 220 819 C 237 816 255 813 274 811 C 293 808 313 805 334 803 C 354 800 376 798 398 796 L 385 750 C 364 752 342 754 319 758 C 296 761 274 765 253 769 C 232 773 213 777 197 781 C 180 785 167 789 159 793 Z M 136 281 C 146 275 158 268 172 261 C 186 253 202 246 218 239 C 234 231 250 224 266 218 C 282 211 296 205 308 201 L 413 233 L 372 554 C 362 559 353 564 345 568 C 336 572 327 576 318 580 C 309 584 300 587 292 591 C 283 594 274 597 266 599 L 178 559 L 136 281 Z M 436 52 L 418 195 L 298 162 C 286 165 272 169 256 175 C 240 181 225 187 209 193 C 193 199 178 206 164 213 C 150 219 138 225 129 231 L 102 50 C 110 48 120 47 131 45 C 141 43 152 42 164 41 C 176 39 188 38 200 37 C 212 36 225 35 237 35 L 222 -10 C 202 -9 183 -8 165 -6 C 146 -4 128 -1 112 1 C 95 3 80 6 66 9 C 52 12 40 15 31 19 L 31 24 L 53 56 L 139 579 L 268 649 C 282 644 296 639 310 634 C 324 628 337 622 349 616 C 361 610 373 603 385 596 C 396 589 407 582 419 574 L 487 43 L 547 35 L 533 -8 C 523 -7 512 -6 501 -5 C 490 -3 479 -2 469 0 C 458 2 448 4 439 6 C 429 8 421 11 414 14 L 414 20 L 436 52 Z" unicode="" />
<glyph horiz-adv-x="397" d="M 79 604 L 94 638 C 108 635 124 632 141 630 C 157 627 175 624 194 622 C 212 619 232 616 253 614 C 273 611 294 609 316 607 L 301 555 C 283 556 263 558 241 562 C 219 566 198 570 177 575 C 156 579 137 584 120 589 C 102 594 89 599 79 604 Z M 101 382 L 100 76 C 104 73 110 70 117 68 C 123 66 130 63 137 61 C 144 58 151 56 159 54 C 166 52 173 50 180 48 L 279 251 L 280 377 C 272 381 263 385 254 389 C 245 393 236 398 228 402 C 219 406 211 409 203 413 C 195 416 187 419 179 422 L 101 382 Z M 55 394 L 191 469 C 198 466 206 463 214 459 C 222 455 230 451 238 447 C 246 443 254 438 262 434 C 270 430 277 425 285 421 L 296 495 C 300 493 303 491 307 489 C 310 487 313 484 316 482 C 318 479 321 476 323 473 C 325 470 327 467 329 464 L 326 43 L 388 36 L 373 -6 C 363 -4 354 -3 345 -1 C 336 0 328 1 320 3 C 312 5 304 7 297 9 C 290 11 283 13 277 15 L 279 184 L 189 -8 C 178 -5 166 -1 154 3 C 141 7 128 12 116 18 C 104 24 92 30 81 36 C 70 42 61 48 53 54 L 55 394 Z" unicode="" />
<glyph horiz-adv-x="550" d="M 405 828 L 332 750 L 286 732 C 278 734 271 736 264 738 C 256 740 249 743 242 746 C 235 749 229 752 223 756 C 217 759 211 762 206 766 L 158 833 L 198 859 L 237 792 L 306 771 L 365 854 C 369 852 372 851 376 849 C 380 847 383 845 387 843 C 390 841 393 838 396 836 C 399 833 402 830 405 828 Z M 136 281 C 146 275 158 268 172 261 C 186 253 202 246 218 239 C 234 231 250 224 266 218 C 282 211 296 205 308 201 L 413 233 L 372 554 C 362 559 353 564 345 568 C 336 572 327 576 318 580 C 309 584 300 587 292 591 C 283 594 274 597 266 599 L 178 559 L 136 281 Z M 436 52 L 418 195 L 298 162 C 286 165 272 169 256 175 C 240 181 225 187 209 193 C 193 199 178 206 164 213 C 150 219 138 225 129 231 L 102 50 C 110 48 120 47 131 45 C 141 43 152 42 164 41 C 176 39 188 38 200 37 C 212 36 225 35 237 35 L 222 -10 C 202 -9 183 -8 165 -6 C 146 -4 128 -1 112 1 C 95 3 80 6 66 9 C 52 12 40 15 31 19 L 31 24 L 53 56 L 139 579 L 268 649 C 282 644 296 639 310 634 C 324 628 337 622 349 616 C 361 610 373 603 385 596 C 396 589 407 582 419 574 L 487 43 L 547 35 L 533 -8 C 523 -7 512 -6 501 -5 C 490 -3 479 -2 469 0 C 458 2 448 4 439 6 C 429 8 421 11 414 14 L 414 20 L 436 52 Z" unicode="" />
<glyph horiz-adv-x="397" d="M 315 639 L 250 554 L 204 536 C 197 538 190 540 183 543 C 176 546 169 549 162 553 C 155 556 148 560 142 564 C 135 568 129 572 123 576 L 82 643 L 123 671 L 156 603 L 223 575 L 275 664 C 278 663 281 662 285 660 C 289 658 292 656 296 654 C 300 652 303 649 306 647 C 309 644 312 641 315 639 Z M 101 382 L 100 76 C 104 73 110 70 117 68 C 123 66 130 63 137 61 C 144 58 151 56 159 54 C 166 52 173 50 180 48 L 279 251 L 280 377 C 272 381 263 385 254 389 C 245 393 236 398 228 402 C 219 406 211 409 203 413 C 195 416 187 419 179 422 L 101 382 Z M 55 394 L 191 469 C 198 466 206 463 214 459 C 222 455 230 451 238 447 C 246 443 254 438 262 434 C 270 430 277 425 285 421 L 296 524 C 300 522 303 520 307 518 C 310 516 313 513 316 511 C 318 508 321 505 323 502 C 325 499 327 496 329 493 L 326 43 L 388 36 L 373 -6 C 363 -4 354 -3 345 -1 C 336 0 328 1 320 3 C 312 5 304 7 297 9 C 290 11 283 13 277 15 L 279 184 L 189 -8 C 178 -5 166 -1 154 3 C 141 7 128 12 116 18 C 104 24 92 30 81 36 C 70 42 61 48 53 54 L 55 394 Z" unicode="" />
<glyph horiz-adv-x="550" d="M 136 281 C 146 275 158 268 172 261 C 186 253 202 246 218 239 C 234 231 250 224 266 218 C 282 211 296 205 308 201 L 413 233 L 372 554 C 362 559 353 564 345 568 C 336 572 327 576 318 580 C 309 584 300 587 292 591 C 283 594 274 597 266 599 L 178 559 L 136 281 Z M 436 52 L 418 195 L 298 162 C 286 165 272 169 256 175 C 240 181 225 187 209 193 C 193 199 178 206 164 213 C 150 219 138 225 129 231 L 102 50 C 110 48 120 47 131 45 C 141 43 152 42 164 41 C 176 39 188 38 200 37 C 212 36 225 35 237 35 L 222 -10 C 202 -9 183 -8 165 -6 C 146 -4 128 -1 112 1 C 95 3 80 6 66 9 C 52 12 40 15 31 19 L 31 24 L 53 56 L 139 579 L 268 649 C 282 644 296 639 310 634 C 324 628 337 622 349 616 C 361 610 373 603 385 596 C 396 589 407 582 419 574 L 487 43 L 547 35 L 533 -8 C 528 -8 524 -7 521 -7 C 518 -7 515 -6 511 -6 C 507 -6 504 -5 501 -5 C 497 -5 494 -4 491 -4 L 453 -69 L 453 -102 L 538 -128 L 521 -168 C 512 -166 502 -163 492 -160 C 482 -156 471 -152 461 -148 C 450 -143 440 -138 432 -133 C 423 -128 416 -123 411 -119 L 411 -73 L 460 1 C 455 2 450 3 446 4 C 442 5 438 6 434 7 C 430 8 427 9 423 10 C 419 11 416 12 414 14 L 414 20 L 436 52 Z" unicode="" />
<glyph horiz-adv-x="397" d="M 101 382 L 100 76 C 104 73 110 70 117 68 C 123 66 130 63 137 61 C 144 58 151 56 159 54 C 166 52 173 50 180 48 L 279 251 L 280 377 C 272 381 263 385 254 389 C 245 393 236 398 228 402 C 219 406 211 409 203 413 C 195 416 187 419 179 422 L 101 382 Z M 293 -102 L 377 -128 L 360 -168 C 351 -166 341 -163 331 -160 C 321 -156 310 -152 300 -148 C 290 -143 280 -138 271 -133 C 262 -128 255 -123 250 -119 L 250 -73 L 303 7 C 301 7 298 8 295 9 C 292 10 290 11 288 11 C 286 11 285 12 283 13 C 281 13 279 14 277 15 L 279 184 L 189 -8 C 178 -5 166 -1 154 3 C 141 7 128 12 116 18 C 104 24 92 30 81 36 C 70 42 61 48 53 54 L 55 394 L 191 469 C 198 466 206 463 214 459 C 222 455 230 451 238 447 C 246 443 254 438 262 434 C 270 430 277 425 285 421 L 296 524 C 300 522 303 520 307 518 C 310 516 313 513 316 511 C 318 508 321 505 323 502 C 325 499 327 496 329 493 L 326 43 L 388 36 L 373 -6 L 332 0 L 293 -69 L 293 -102 Z" unicode="" />
<glyph horiz-adv-x="491" d="M 251 732 L 216 747 L 340 880 C 344 877 348 874 352 871 C 356 867 360 864 364 860 C 368 856 371 852 375 848 C 379 844 382 840 385 836 L 251 732 Z M 402 590 L 418 683 L 449 672 L 426 344 L 374 352 L 396 544 C 384 548 372 553 358 558 C 344 563 329 568 315 573 C 300 578 286 583 272 587 C 258 591 245 595 233 598 L 120 543 L 120 98 C 129 93 141 87 156 81 C 171 74 188 67 206 61 C 224 54 241 48 259 42 C 277 36 292 32 306 29 L 465 113 L 481 69 L 291 -19 C 271 -14 251 -8 229 -1 C 207 5 185 13 165 22 C 144 31 125 40 108 49 C 91 57 78 65 68 73 L 68 557 L 244 647 C 259 643 273 638 287 634 C 301 630 314 625 327 621 C 340 616 353 611 365 606 C 377 601 390 596 402 590 Z" unicode="" />
<glyph horiz-adv-x="348" d="M 189 528 L 154 538 L 254 698 C 258 695 263 692 267 689 C 271 685 275 682 279 678 C 283 674 286 671 289 667 C 292 663 295 658 299 654 L 189 528 Z M 260 440 L 272 521 L 302 510 L 284 240 L 238 248 L 254 394 C 248 396 241 399 235 402 C 228 404 221 407 215 409 C 209 411 202 413 196 415 C 189 417 182 419 176 421 L 102 378 L 101 84 C 109 79 118 74 127 69 C 136 64 145 59 154 55 C 163 51 172 47 181 44 C 189 40 197 37 205 35 L 312 124 L 339 88 L 199 -13 C 185 -9 172 -5 158 0 C 144 5 131 11 119 18 C 106 24 94 31 83 39 C 72 46 62 53 53 61 L 55 392 L 185 471 C 193 468 200 465 206 463 C 212 460 219 457 225 455 C 231 453 237 450 243 448 C 249 445 254 442 260 440 Z" unicode="" />
<glyph horiz-adv-x="491" d="M 136 772 L 238 846 L 284 865 C 292 859 301 853 311 847 C 320 840 329 833 339 825 C 348 817 357 809 365 801 C 373 793 381 786 388 780 L 358 747 C 350 754 342 761 334 769 C 326 776 318 783 310 789 C 302 795 294 801 286 807 C 278 813 271 818 264 823 L 176 747 C 172 749 168 750 164 752 C 160 754 156 756 153 758 C 149 760 146 762 144 764 C 141 766 138 769 136 772 Z M 402 590 L 418 683 L 449 672 L 426 344 L 374 352 L 396 544 C 384 548 372 553 358 558 C 344 563 329 568 315 573 C 300 578 286 583 272 587 C 258 591 245 595 233 598 L 120 543 L 120 98 C 129 93 141 87 156 81 C 171 74 188 67 206 61 C 224 54 241 48 259 42 C 277 36 292 32 306 29 L 465 113 L 481 69 L 291 -19 C 271 -14 251 -8 229 -1 C 207 5 185 13 165 22 C 144 31 125 40 108 49 C 91 57 78 65 68 73 L 68 557 L 244 647 C 259 643 273 638 287 634 C 301 630 314 625 327 621 C 340 616 353 611 365 606 C 377 601 390 596 402 590 Z" unicode="" />
<glyph horiz-adv-x="348" d="M 53 566 L 153 651 L 199 670 C 207 664 216 658 226 650 C 236 642 246 633 256 624 C 266 615 275 606 283 597 C 291 588 299 580 305 574 L 274 541 C 264 550 256 558 248 566 C 240 574 232 581 224 589 C 216 597 208 604 200 610 C 192 616 185 622 179 628 L 92 541 C 88 543 84 544 80 546 C 76 548 73 550 70 552 C 67 554 64 557 61 559 C 58 561 55 564 53 566 Z M 260 440 L 272 521 L 302 510 L 284 240 L 238 248 L 254 394 C 248 396 241 399 235 402 C 228 404 221 407 215 409 C 209 411 202 413 196 415 C 189 417 182 419 176 421 L 102 378 L 101 84 C 109 79 118 74 127 69 C 136 64 145 59 154 55 C 163 51 172 47 181 44 C 189 40 197 37 205 35 L 312 124 L 339 88 L 199 -13 C 185 -9 172 -5 158 0 C 144 5 131 11 119 18 C 106 24 94 31 83 39 C 72 46 62 53 53 61 L 55 392 L 185 471 C 193 468 200 465 206 463 C 212 460 219 457 225 455 C 231 453 237 450 243 448 C 249 445 254 442 260 440 Z" unicode="" />
<glyph horiz-adv-x="491" d="M 300 827 L 283 754 L 235 763 L 235 847 C 240 847 246 846 252 845 C 258 843 263 842 269 840 C 275 838 280 836 286 834 C 291 832 296 829 300 827 Z M 402 590 L 418 683 L 449 672 L 426 344 L 374 352 L 396 544 C 384 548 372 553 358 558 C 344 563 329 568 315 573 C 300 578 286 583 272 587 C 258 591 245 595 233 598 L 120 543 L 120 98 C 129 93 141 87 156 81 C 171 74 188 67 206 61 C 224 54 241 48 259 42 C 277 36 292 32 306 29 L 465 113 L 481 69 L 291 -19 C 271 -14 251 -8 229 -1 C 207 5 185 13 165 22 C 144 31 125 40 108 49 C 91 57 78 65 68 73 L 68 557 L 244 647 C 259 643 273 638 287 634 C 301 630 314 625 327 621 C 340 616 353 611 365 606 C 377 601 390 596 402 590 Z" unicode="" />
<glyph horiz-adv-x="348" d="M 223 634 L 206 554 L 161 564 L 161 653 C 166 653 171 652 177 651 C 183 650 188 649 194 647 C 199 645 204 643 209 641 C 214 639 219 636 223 634 Z M 260 440 L 272 521 L 302 510 L 284 240 L 238 248 L 254 394 C 248 396 241 399 235 402 C 228 404 221 407 215 409 C 209 411 202 413 196 415 C 189 417 182 419 176 421 L 102 378 L 101 84 C 109 79 118 74 127 69 C 136 64 145 59 154 55 C 163 51 172 47 181 44 C 189 40 197 37 205 35 L 312 124 L 339 88 L 199 -13 C 185 -9 172 -5 158 0 C 144 5 131 11 119 18 C 106 24 94 31 83 39 C 72 46 62 53 53 61 L 55 392 L 185 471 C 193 468 200 465 206 463 C 212 460 219 457 225 455 C 231 453 237 450 243 448 C 249 445 254 442 260 440 Z" unicode="" />
<glyph horiz-adv-x="491" d="M 395 842 L 295 768 L 249 749 C 240 754 231 760 221 767 C 211 773 202 781 192 789 C 182 797 173 804 165 812 C 157 820 149 827 143 834 L 174 867 C 182 859 190 852 198 845 C 206 837 214 830 222 824 C 230 818 237 812 245 806 C 253 800 260 795 268 791 L 355 867 C 359 865 362 864 366 862 C 369 860 372 857 376 855 C 379 853 382 851 385 849 C 387 847 391 845 395 842 Z M 402 590 L 418 683 L 449 672 L 426 344 L 374 352 L 396 544 C 384 548 372 553 358 558 C 344 563 329 568 315 573 C 300 578 286 583 272 587 C 258 591 245 595 233 598 L 120 543 L 120 98 C 129 93 141 87 156 81 C 171 74 188 67 206 61 C 224 54 241 48 259 42 C 277 36 292 32 306 29 L 465 113 L 481 69 L 291 -19 C 271 -14 251 -8 229 -1 C 207 5 185 13 165 22 C 144 31 125 40 108 49 C 91 57 78 65 68 73 L 68 557 L 244 647 C 259 643 273 638 287 634 C 301 630 314 625 327 621 C 340 616 353 611 365 606 C 377 601 390 596 402 590 Z" unicode="" />
<glyph horiz-adv-x="348" d="M 312 639 L 212 554 L 166 536 C 158 541 149 548 139 556 C 129 564 119 572 110 581 C 100 590 91 599 83 607 C 74 615 67 623 61 631 L 91 664 C 100 654 109 646 117 638 C 125 630 133 623 141 615 C 149 607 156 600 164 594 C 172 588 179 582 186 577 L 273 664 C 276 662 279 661 283 659 C 286 657 289 656 293 654 C 296 652 299 649 302 647 C 305 644 308 641 312 639 Z M 260 440 L 272 521 L 302 510 L 284 240 L 238 248 L 254 394 C 248 396 241 399 235 402 C 228 404 221 407 215 409 C 209 411 202 413 196 415 C 189 417 182 419 176 421 L 102 378 L 101 84 C 109 79 118 74 127 69 C 136 64 145 59 154 55 C 163 51 172 47 181 44 C 189 40 197 37 205 35 L 312 124 L 339 88 L 199 -13 C 185 -9 172 -5 158 0 C 144 5 131 11 119 18 C 106 24 94 31 83 39 C 72 46 62 53 53 61 L 55 392 L 185 471 C 193 468 200 465 206 463 C 212 460 219 457 225 455 C 231 453 237 450 243 448 C 249 445 254 442 260 440 Z" unicode="" />
<glyph horiz-adv-x="564" d="M 393 842 L 293 768 L 246 749 C 237 754 228 760 219 767 C 209 773 200 781 190 789 C 180 797 171 804 163 812 C 155 820 147 827 141 834 L 172 867 C 180 859 188 852 196 845 C 204 837 212 830 220 824 C 228 818 235 812 243 806 C 251 800 258 795 266 791 L 353 867 C 357 865 360 864 364 862 C 367 860 370 857 374 855 C 377 853 380 851 383 849 C 385 847 389 845 393 842 Z M 309 20 L 404 59 L 466 263 L 405 535 C 383 542 363 549 344 555 C 325 561 306 566 287 572 C 268 577 249 582 229 587 C 209 592 186 598 161 604 L 161 53 C 179 49 192 45 202 43 C 212 41 222 38 233 36 C 244 33 256 30 268 28 C 280 25 294 22 309 20 Z M 443 35 L 301 -24 C 282 -20 261 -16 237 -11 C 213 -6 188 0 163 5 C 137 11 113 18 90 25 C 66 31 46 38 29 44 L 44 78 L 109 64 L 109 615 L 5 632 L 31 671 C 69 665 109 658 149 650 C 189 642 227 632 264 622 C 301 612 335 601 367 590 C 398 579 425 568 449 558 L 518 272 L 443 35 Z" unicode="" />
<glyph horiz-adv-x="384" d="M 349 714 L 360 624 L 321 513 L 283 524 L 311 621 L 293 729 L 349 714 Z M 332 88 L 205 -11 C 191 -7 177 -3 163 1 C 149 5 136 10 124 16 C 111 22 99 28 87 34 C 75 40 64 47 53 54 L 55 275 L 177 487 L 41 694 L 91 712 L 335 331 L 332 88 Z M 285 101 L 286 322 L 199 455 L 101 265 L 100 79 C 108 75 117 71 127 67 C 137 63 147 59 157 55 C 167 51 177 47 187 44 C 197 41 205 39 213 37 L 285 101 Z" unicode="" />
<glyph horiz-adv-x="564" d="M 309 20 L 404 59 L 466 263 L 405 535 C 383 542 363 549 344 555 C 325 561 306 566 287 572 C 268 577 249 582 229 587 C 209 592 186 598 161 604 L 161 329 C 174 327 187 325 200 323 C 212 321 225 320 238 318 C 251 316 264 315 276 314 C 288 312 299 311 310 311 L 298 265 C 287 265 276 266 265 268 C 253 269 242 270 230 272 C 218 274 207 276 195 278 C 183 280 172 282 161 284 L 161 53 C 179 49 192 45 202 43 C 212 41 222 38 233 36 C 244 33 256 30 268 28 C 280 25 294 22 309 20 Z M 443 35 L 301 -24 C 282 -20 261 -16 237 -11 C 213 -6 188 0 163 5 C 137 11 113 18 90 25 C 66 31 46 38 29 44 L 44 78 L 109 64 L 109 294 C 99 296 89 299 81 301 C 72 303 64 305 57 307 C 49 309 43 312 37 314 C 31 316 27 318 23 320 L 35 349 C 39 348 44 347 50 346 C 55 345 60 344 66 343 C 72 342 86 340 109 336 L 109 615 L 5 632 L 31 671 C 69 665 109 658 149 650 C 189 642 227 632 264 622 C 301 612 335 601 367 590 C 398 579 425 568 449 558 L 518 272 L 443 35 Z" unicode="" />
<glyph horiz-adv-x="384" d="M 332 88 L 205 -11 C 191 -7 177 -3 163 1 C 149 5 136 10 124 16 C 111 22 99 28 87 34 C 75 40 64 47 53 54 L 55 275 L 178 488 L 129 563 C 115 565 101 568 89 570 C 77 572 65 575 54 578 C 43 580 33 583 24 585 C 15 587 7 590 1 592 L 14 623 L 99 608 L 43 694 L 91 712 L 163 599 C 203 594 230 591 243 589 C 255 587 268 586 281 585 C 294 583 307 582 319 582 L 306 540 C 297 540 288 541 279 542 C 270 543 261 544 251 545 C 241 546 232 547 223 549 C 213 550 203 551 193 553 L 335 331 L 332 88 Z M 285 101 L 286 323 L 200 458 L 101 265 L 100 79 C 108 75 117 71 127 67 C 137 63 147 59 157 55 C 167 51 177 47 187 44 C 197 41 205 39 213 37 L 285 101 Z" unicode="" />
<glyph horiz-adv-x="477" d="M 128 793 L 141 827 C 155 824 171 821 188 819 C 205 816 223 813 242 811 C 261 808 281 805 302 803 C 322 800 344 798 366 796 L 353 750 C 332 752 310 754 287 758 C 264 761 242 765 221 769 C 200 773 181 777 165 781 C 149 785 136 789 128 793 Z M 43 555 L 237 647 C 249 643 260 640 272 636 C 284 632 295 628 307 624 C 318 619 329 614 340 609 C 350 604 362 599 375 593 L 392 683 L 422 672 L 407 410 L 356 418 L 370 553 C 357 559 345 564 333 569 C 321 573 309 577 298 581 C 286 585 275 588 264 592 C 252 595 241 598 229 601 L 99 543 L 142 310 L 378 298 L 362 250 L 139 272 L 109 99 C 117 93 129 87 145 80 C 161 73 178 66 196 59 C 214 51 232 45 248 39 C 264 33 278 30 288 29 L 452 107 L 468 63 L 272 -20 C 251 -16 230 -11 209 -4 C 188 2 168 10 149 20 C 129 29 112 38 96 48 C 80 57 66 66 55 75 L 95 289 L 43 555 Z" unicode="" />
<glyph horiz-adv-x="363" d="M 68 604 L 82 638 C 97 635 113 632 130 630 C 146 627 164 624 183 622 C 201 619 221 616 242 614 C 262 611 283 609 305 607 L 290 555 C 272 556 252 558 230 562 C 208 566 187 570 166 575 C 145 579 126 584 109 589 C 91 594 78 599 68 604 Z M 349 88 L 199 -13 C 185 -9 172 -4 158 1 C 144 6 131 12 119 18 C 106 24 94 31 83 39 C 71 46 61 53 53 61 L 56 392 L 191 471 C 199 468 208 464 220 460 C 232 455 244 449 256 443 C 268 437 280 430 292 424 C 303 417 312 411 320 405 L 288 232 L 101 120 L 101 84 C 109 79 118 74 126 70 C 134 65 143 61 152 57 C 160 53 169 49 178 46 C 186 42 195 39 204 36 L 322 124 L 349 88 Z M 103 378 L 102 157 L 246 249 L 269 382 C 263 385 256 388 248 392 C 240 396 233 399 225 403 C 217 406 209 409 202 412 C 194 414 186 417 177 421 L 103 378 Z" unicode="" />
<glyph horiz-adv-x="477" d="M 371 828 L 298 750 L 252 732 C 244 734 237 736 230 738 C 222 740 215 743 208 746 C 201 749 195 752 189 756 C 183 759 177 762 172 766 L 124 833 L 164 859 L 202 792 L 272 771 L 331 854 C 334 852 337 851 341 849 C 345 847 348 845 352 843 C 356 841 359 838 362 836 C 365 833 368 830 371 828 Z M 43 555 L 237 647 C 249 643 260 640 272 636 C 284 632 295 628 307 624 C 318 619 329 614 340 609 C 350 604 362 599 375 593 L 392 683 L 422 672 L 407 410 L 356 418 L 370 553 C 357 559 345 564 333 569 C 321 573 309 577 298 581 C 286 585 275 588 264 592 C 252 595 241 598 229 601 L 99 543 L 142 310 L 378 298 L 362 250 L 139 272 L 109 99 C 117 93 129 87 145 80 C 161 73 178 66 196 59 C 214 51 232 45 248 39 C 264 33 278 30 288 29 L 452 107 L 468 63 L 272 -20 C 251 -16 230 -11 209 -4 C 188 2 168 10 149 20 C 129 29 112 38 96 48 C 80 57 66 66 55 75 L 95 289 L 43 555 Z" unicode="" />
<glyph horiz-adv-x="363" d="M 304 639 L 239 554 L 193 536 C 186 538 179 540 172 543 C 165 546 158 549 151 553 C 144 556 137 560 131 564 C 124 568 118 572 112 576 L 71 643 L 112 671 L 145 603 L 212 575 L 264 664 C 267 663 270 662 274 660 C 278 658 281 656 285 654 C 289 652 292 649 295 647 C 298 644 301 641 304 639 Z M 349 88 L 199 -13 C 185 -9 172 -4 158 1 C 144 6 131 12 119 18 C 106 24 94 31 83 39 C 71 46 61 53 53 61 L 56 392 L 191 471 C 199 468 208 464 220 460 C 232 455 244 449 256 443 C 268 437 280 430 292 424 C 303 417 312 411 320 405 L 288 232 L 101 120 L 101 84 C 109 79 118 74 126 70 C 134 65 143 61 152 57 C 160 53 169 49 178 46 C 186 42 195 39 204 36 L 322 124 L 349 88 Z M 103 378 L 102 157 L 246 249 L 269 382 C 263 385 256 388 248 392 C 240 396 233 399 225 403 C 217 406 209 409 202 412 C 194 414 186 417 177 421 L 103 378 Z" unicode="" />
<glyph horiz-adv-x="477" d="M 282 827 L 264 754 L 217 763 L 217 847 C 222 847 227 846 233 845 C 239 843 245 842 251 840 C 257 838 262 836 268 834 C 273 832 278 829 282 827 Z M 43 555 L 237 647 C 249 643 260 640 272 636 C 284 632 295 628 307 624 C 318 619 329 614 340 609 C 350 604 362 599 375 593 L 392 683 L 422 672 L 407 410 L 356 418 L 370 553 C 357 559 345 564 333 569 C 321 573 309 577 298 581 C 286 585 275 588 264 592 C 252 595 241 598 229 601 L 99 543 L 142 310 L 378 298 L 362 250 L 139 272 L 109 99 C 117 93 129 87 145 80 C 161 73 178 66 196 59 C 214 51 232 45 248 39 C 264 33 278 30 288 29 L 452 107 L 468 63 L 272 -20 C 251 -16 230 -11 209 -4 C 188 2 168 10 149 20 C 129 29 112 38 96 48 C 80 57 66 66 55 75 L 95 289 L 43 555 Z" unicode="" />
<glyph horiz-adv-x="363" d="M 223 634 L 206 554 L 161 564 L 161 653 C 166 653 171 652 177 651 C 183 650 188 649 194 647 C 199 645 204 643 209 641 C 214 639 219 636 223 634 Z M 349 88 L 199 -13 C 185 -9 172 -4 158 1 C 144 6 131 12 119 18 C 106 24 94 31 83 39 C 71 46 61 53 53 61 L 56 392 L 191 471 C 199 468 208 464 220 460 C 232 455 244 449 256 443 C 268 437 280 430 292 424 C 303 417 312 411 320 405 L 288 232 L 101 120 L 101 84 C 109 79 118 74 126 70 C 134 65 143 61 152 57 C 160 53 169 49 178 46 C 186 42 195 39 204 36 L 322 124 L 349 88 Z M 103 378 L 102 157 L 246 249 L 269 382 C 263 385 256 388 248 392 C 240 396 233 399 225 403 C 217 406 209 409 202 412 C 194 414 186 417 177 421 L 103 378 Z" unicode="" />
<glyph horiz-adv-x="477" d="M 446 -128 L 428 -168 C 419 -166 409 -163 399 -160 C 389 -156 378 -152 368 -148 C 358 -143 348 -138 340 -133 C 331 -128 324 -123 319 -119 L 319 -73 L 377 24 L 272 -20 C 251 -16 230 -11 209 -4 C 188 2 168 10 149 20 C 129 29 112 38 96 48 C 80 57 66 66 55 75 L 95 289 L 43 555 L 237 647 C 249 643 260 640 272 636 C 284 632 295 628 307 624 C 318 619 329 614 340 609 C 350 604 362 599 375 593 L 392 683 L 422 672 L 407 410 L 356 418 L 370 553 C 357 559 345 564 333 569 C 321 573 309 577 298 581 C 286 585 275 588 264 592 C 252 595 241 598 229 601 L 99 543 L 142 310 L 378 298 L 362 250 L 139 272 L 109 99 C 117 93 129 87 145 80 C 161 73 178 66 196 59 C 214 51 232 45 248 39 C 264 33 278 30 288 29 L 452 107 L 468 63 L 417 41 L 361 -69 L 361 -102 L 446 -128 Z" unicode="" />
<glyph horiz-adv-x="363" d="M 349 88 L 310 62 L 269 -69 L 269 -102 L 354 -127 L 337 -168 C 328 -166 318 -163 308 -159 C 298 -155 287 -151 277 -147 C 266 -142 256 -137 248 -132 C 239 -127 232 -122 227 -118 L 227 -72 L 271 35 L 199 -13 C 185 -9 172 -4 158 1 C 144 6 131 12 119 18 C 106 24 94 31 83 39 C 71 46 61 53 53 61 L 56 392 L 191 471 C 199 468 208 464 220 460 C 232 455 244 449 256 443 C 268 437 280 430 292 424 C 303 417 312 411 320 405 L 288 232 L 101 120 L 101 84 C 109 79 118 74 126 70 C 134 65 143 61 152 57 C 160 53 169 49 178 46 C 186 42 195 39 204 36 L 322 124 L 349 88 Z M 103 378 L 102 157 L 246 249 L 269 382 C 263 385 256 388 248 392 C 240 396 233 399 225 403 C 217 406 209 409 202 412 C 194 414 186 417 177 421 L 103 378 Z" unicode="" />
<glyph horiz-adv-x="477" d="M 374 842 L 274 768 L 228 749 C 219 754 210 760 200 767 C 190 773 181 781 171 789 C 161 797 152 804 144 812 C 136 820 128 827 122 834 L 153 867 C 161 859 169 852 177 845 C 185 837 193 830 201 824 C 209 818 217 812 225 806 C 233 800 240 795 248 791 L 334 867 C 338 865 341 864 345 862 C 348 860 351 857 355 855 C 358 853 361 851 364 849 C 366 847 370 845 374 842 Z M 43 555 L 237 647 C 249 643 260 640 272 636 C 284 632 295 628 307 624 C 318 619 329 614 340 609 C 350 604 362 599 375 593 L 392 683 L 422 672 L 407 410 L 356 418 L 370 553 C 357 559 345 564 333 569 C 321 573 309 577 298 581 C 286 585 275 588 264 592 C 252 595 241 598 229 601 L 99 543 L 142 310 L 378 298 L 362 250 L 139 272 L 109 99 C 117 93 129 87 145 80 C 161 73 178 66 196 59 C 214 51 232 45 248 39 C 264 33 278 30 288 29 L 452 107 L 468 63 L 272 -20 C 251 -16 230 -11 209 -4 C 188 2 168 10 149 20 C 129 29 112 38 96 48 C 80 57 66 66 55 75 L 95 289 L 43 555 Z" unicode="" />
<glyph horiz-adv-x="363" d="M 317 639 L 217 554 L 170 536 C 162 541 153 548 143 556 C 133 564 123 572 114 581 C 104 590 95 599 87 607 C 78 615 71 623 65 631 L 96 664 C 104 655 113 647 121 639 C 129 631 138 623 146 615 C 154 607 161 600 169 594 C 176 588 183 582 190 577 L 277 664 C 280 662 283 661 287 659 C 291 657 294 656 298 654 C 301 652 304 649 307 647 C 310 644 313 641 317 639 Z M 349 88 L 199 -13 C 185 -9 172 -4 158 1 C 144 6 131 12 119 18 C 106 24 94 31 83 39 C 71 46 61 53 53 61 L 56 392 L 191 471 C 199 468 208 464 220 460 C 232 455 244 449 256 443 C 268 437 280 430 292 424 C 303 417 312 411 320 405 L 288 232 L 101 120 L 101 84 C 109 79 118 74 126 70 C 134 65 143 61 152 57 C 160 53 169 49 178 46 C 186 42 195 39 204 36 L 322 124 L 349 88 Z M 103 378 L 102 157 L 246 249 L 269 382 C 263 385 256 388 248 392 C 240 396 233 399 225 403 C 217 406 209 409 202 412 C 194 414 186 417 177 421 L 103 378 Z" unicode="" />
<glyph horiz-adv-x="544" d="M 133 772 L 234 846 L 280 865 C 288 859 297 853 307 847 C 316 840 325 833 335 825 C 344 817 353 809 362 801 C 370 793 378 786 385 780 L 354 747 C 346 754 338 761 330 769 C 322 776 314 783 306 789 C 298 795 290 801 283 807 C 275 813 268 818 261 823 L 173 747 C 169 749 165 750 161 752 C 157 754 153 756 150 758 C 146 760 143 762 141 764 C 138 766 135 769 133 772 Z M 68 557 L 244 647 C 259 644 274 641 289 637 C 303 633 318 628 332 624 C 346 619 359 614 372 609 C 385 604 398 599 410 593 L 427 683 L 458 672 L 440 397 L 389 405 L 405 548 C 393 552 380 556 366 561 C 351 566 336 571 320 576 C 304 580 288 584 273 588 C 258 592 245 595 233 598 L 120 543 L 120 99 C 129 94 141 88 155 82 C 169 76 185 69 203 63 C 221 56 238 50 256 44 C 274 38 290 33 306 29 L 441 100 L 452 227 C 442 228 431 230 418 232 C 404 234 390 236 375 238 C 359 240 344 241 329 243 C 313 245 299 246 286 248 L 301 294 C 317 292 334 290 352 288 C 369 286 386 283 403 281 C 419 278 435 275 450 271 C 465 267 479 264 493 261 L 480 -59 L 343 -132 L 304 -97 L 430 -48 L 439 59 L 291 -19 C 269 -13 248 -7 226 0 C 204 6 183 14 163 23 C 143 31 124 40 108 48 C 92 56 78 65 68 73 L 68 557 Z" unicode="" />
<glyph horiz-adv-x="386" d="M 65 566 L 165 651 L 211 670 C 219 664 228 658 238 650 C 248 642 258 633 268 624 C 278 615 287 606 295 597 C 303 588 311 580 317 574 L 286 541 C 276 550 268 558 260 566 C 252 574 244 581 236 589 C 228 597 220 604 212 610 C 204 616 197 622 191 628 L 105 541 C 101 543 97 544 93 546 C 89 548 86 550 83 552 C 79 554 76 557 73 559 C 70 561 67 563 65 566 Z M 19 -86 L 156 2 C 146 5 137 9 128 13 C 118 17 109 21 100 26 C 91 30 83 35 75 40 C 67 44 61 49 55 54 L 57 394 L 194 469 C 201 466 208 463 216 460 C 224 456 231 453 239 449 C 247 445 254 441 262 437 C 270 433 277 429 284 425 L 293 501 C 297 499 300 497 304 495 C 307 493 310 490 313 488 C 316 485 319 482 321 479 C 323 476 325 473 327 470 L 319 208 L 344 -132 L 178 -232 C 166 -228 151 -222 134 -214 C 117 -206 99 -197 81 -187 C 63 -177 45 -166 29 -156 C 12 -145 -1 -135 -12 -127 L 19 -86 Z M 103 382 L 102 76 C 106 73 112 70 119 68 C 125 66 132 63 139 61 C 146 58 153 56 161 54 C 169 52 176 50 183 48 L 273 233 L 278 381 C 269 385 260 389 252 393 C 244 397 235 400 227 404 C 219 408 211 411 203 414 C 195 417 188 420 182 422 L 103 382 Z M 275 170 L 196 -8 L 51 -111 C 61 -117 73 -124 85 -132 C 97 -139 109 -146 121 -152 C 133 -158 144 -164 155 -170 C 165 -176 175 -181 185 -186 L 289 -122 L 275 170 Z" unicode="" />
<glyph horiz-adv-x="544" d="M 394 828 L 321 750 L 275 732 C 267 734 260 736 253 738 C 245 740 238 743 231 746 C 224 749 218 752 212 756 C 206 759 200 762 195 766 L 147 833 L 187 859 L 226 792 L 295 771 L 354 854 C 358 852 361 851 365 849 C 369 847 372 845 376 843 C 379 841 382 838 385 836 C 388 833 391 830 394 828 Z M 68 557 L 244 647 C 259 644 274 641 289 637 C 303 633 318 628 332 624 C 346 619 359 614 372 609 C 385 604 398 599 410 593 L 427 683 L 458 672 L 440 397 L 389 405 L 405 548 C 393 552 380 556 366 561 C 351 566 336 571 320 576 C 304 580 288 584 273 588 C 258 592 245 595 233 598 L 120 543 L 120 99 C 129 94 141 88 155 82 C 169 76 185 69 203 63 C 221 56 238 50 256 44 C 274 38 290 33 306 29 L 441 100 L 452 227 C 442 228 431 230 418 232 C 404 234 390 236 375 238 C 359 240 344 241 329 243 C 313 245 299 246 286 248 L 301 294 C 317 292 334 290 352 288 C 369 286 386 283 403 281 C 419 278 435 275 450 271 C 465 267 479 264 493 261 L 480 -59 L 343 -132 L 304 -97 L 430 -48 L 439 59 L 291 -19 C 269 -13 248 -7 226 0 C 204 6 183 14 163 23 C 143 31 124 40 108 48 C 92 56 78 65 68 73 L 68 557 Z" unicode="" />
<glyph horiz-adv-x="386" d="M 308 639 L 243 554 L 197 536 C 191 538 184 540 177 543 C 170 546 163 549 156 553 C 149 556 142 560 136 564 C 129 568 123 572 117 576 L 76 643 L 117 671 L 150 603 L 217 575 L 268 664 C 272 663 275 662 279 660 C 283 658 286 656 290 654 C 293 652 296 649 299 647 C 302 644 305 641 308 639 Z M 19 -86 L 156 2 C 146 5 137 9 128 13 C 118 17 109 21 100 26 C 91 30 83 35 75 40 C 67 44 61 49 55 54 L 57 394 L 194 469 C 201 466 208 463 216 460 C 224 456 231 453 239 449 C 247 445 254 441 262 437 C 270 433 277 429 284 425 L 293 501 C 297 499 300 497 304 495 C 307 493 310 490 313 488 C 316 485 319 482 321 479 C 323 476 325 473 327 470 L 319 208 L 344 -132 L 178 -232 C 166 -228 151 -222 134 -214 C 117 -206 99 -197 81 -187 C 63 -177 45 -166 29 -156 C 12 -145 -1 -135 -12 -127 L 19 -86 Z M 103 382 L 102 76 C 106 73 112 70 119 68 C 125 66 132 63 139 61 C 146 58 153 56 161 54 C 169 52 176 50 183 48 L 273 233 L 278 381 C 269 385 260 389 252 393 C 244 397 235 400 227 404 C 219 408 211 411 203 414 C 195 417 188 420 182 422 L 103 382 Z M 275 170 L 196 -8 L 51 -111 C 61 -117 73 -124 85 -132 C 97 -139 109 -146 121 -152 C 133 -158 144 -164 155 -170 C 165 -176 175 -181 185 -186 L 289 -122 L 275 170 Z" unicode="" />
<glyph horiz-adv-x="544" d="M 304 827 L 286 754 L 239 763 L 239 847 C 244 847 249 846 255 845 C 261 843 267 842 273 840 C 279 838 284 836 290 834 C 295 832 300 829 304 827 Z M 68 557 L 244 647 C 259 644 274 641 289 637 C 303 633 318 628 332 624 C 346 619 359 614 372 609 C 385 604 398 599 410 593 L 427 683 L 458 672 L 440 397 L 389 405 L 405 548 C 393 552 380 556 366 561 C 351 566 336 571 320 576 C 304 580 288 584 273 588 C 258 592 245 595 233 598 L 120 543 L 120 99 C 129 94 141 88 155 82 C 169 76 185 69 203 63 C 221 56 238 50 256 44 C 274 38 290 33 306 29 L 441 100 L 452 227 C 442 228 431 230 418 232 C 404 234 390 236 375 238 C 359 240 344 241 329 243 C 313 245 299 246 286 248 L 301 294 C 317 292 334 290 352 288 C 369 286 386 283 403 281 C 419 278 435 275 450 271 C 465 267 479 264 493 261 L 480 -59 L 343 -132 L 304 -97 L 430 -48 L 439 59 L 291 -19 C 269 -13 248 -7 226 0 C 204 6 183 14 163 23 C 143 31 124 40 108 48 C 92 56 78 65 68 73 L 68 557 Z" unicode="" />
<glyph horiz-adv-x="386" d="M 229 634 L 211 554 L 166 564 L 166 653 C 171 653 176 652 182 651 C 188 650 193 649 199 647 C 204 645 209 643 215 641 C 220 639 225 636 229 634 Z M 19 -86 L 156 2 C 146 5 137 9 128 13 C 118 17 109 21 100 26 C 91 30 83 35 75 40 C 67 44 61 49 55 54 L 57 394 L 194 469 C 201 466 208 463 216 460 C 223 456 230 453 238 449 C 246 445 253 441 261 437 C 268 433 275 429 283 425 L 293 524 C 297 522 300 520 304 518 C 307 516 310 513 313 511 C 316 508 319 505 321 502 C 323 499 325 496 327 493 L 319 208 L 344 -132 L 178 -232 C 166 -228 151 -222 134 -214 C 117 -206 99 -197 81 -187 C 63 -177 45 -166 29 -156 C 12 -145 -1 -135 -12 -127 L 19 -86 Z M 103 382 L 102 76 C 106 73 112 70 119 68 C 125 66 132 63 139 61 C 146 58 153 56 161 54 C 169 52 176 50 183 48 L 273 233 L 278 381 C 269 385 260 389 252 393 C 244 397 235 400 227 404 C 219 408 211 411 203 414 C 195 417 188 420 182 422 L 103 382 Z M 275 170 L 196 -8 L 51 -111 C 61 -117 73 -124 85 -132 C 97 -139 109 -146 121 -152 C 133 -158 144 -164 155 -170 C 165 -176 175 -181 185 -186 L 289 -122 L 275 170 Z" unicode="" />
<glyph horiz-adv-x="544" d="M 68 557 L 244 647 C 259 644 274 641 289 637 C 303 633 318 628 332 624 C 346 619 359 614 372 609 C 385 604 398 599 410 593 L 427 683 L 458 672 L 440 397 L 389 405 L 405 548 C 393 552 380 556 366 561 C 351 566 336 571 320 576 C 304 580 288 584 273 588 C 258 592 245 595 233 598 L 120 543 L 120 99 C 129 94 141 88 155 82 C 169 76 185 69 203 63 C 221 56 238 50 256 44 C 274 38 290 33 306 29 L 441 100 L 452 227 C 442 228 431 230 418 232 C 404 234 390 236 375 238 C 359 240 344 241 329 243 C 313 245 299 246 286 248 L 301 294 C 317 292 334 290 352 288 C 369 286 386 283 403 281 C 419 278 435 275 450 271 C 465 267 479 264 493 261 L 475 -142 L 424 -129 L 439 59 L 291 -19 C 269 -13 248 -7 226 0 C 204 6 183 14 163 23 C 143 31 124 40 108 48 C 92 56 78 65 68 73 L 68 557 Z M 311 -67 L 322 -157 L 284 -268 L 245 -257 L 274 -160 L 255 -52 L 311 -67 Z" unicode="" />
<glyph horiz-adv-x="386" d="M 166 540 L 155 630 L 194 741 L 232 730 L 204 632 L 222 525 L 166 540 Z M 19 -86 L 156 2 C 146 5 137 9 128 13 C 118 17 109 21 100 26 C 91 30 83 35 75 40 C 67 44 61 49 55 54 L 57 394 L 194 469 C 201 466 208 463 216 460 C 223 456 230 453 238 449 C 246 445 253 441 261 437 C 268 433 275 429 283 425 L 293 524 C 297 522 300 520 304 518 C 307 516 310 513 313 511 C 316 508 319 505 321 502 C 323 499 325 496 327 493 L 319 208 L 344 -132 L 178 -232 C 166 -228 151 -222 134 -214 C 117 -206 99 -197 81 -187 C 63 -177 45 -166 29 -156 C 12 -145 -1 -135 -12 -127 L 19 -86 Z M 103 382 L 102 76 C 106 73 112 70 119 68 C 125 66 132 63 139 61 C 146 58 153 56 161 54 C 169 52 176 50 183 48 L 273 233 L 278 381 C 269 385 260 389 252 393 C 244 397 235 400 227 404 C 219 408 211 411 203 414 C 195 417 188 420 182 422 L 103 382 Z M 275 170 L 196 -8 L 51 -111 C 61 -117 73 -124 85 -132 C 97 -139 109 -146 121 -152 C 133 -158 144 -164 155 -170 C 165 -176 175 -181 185 -186 L 289 -122 L 275 170 Z" unicode="" />
<glyph horiz-adv-x="561" d="M 153 772 L 254 846 L 300 865 C 308 860 316 854 326 847 C 336 840 345 833 355 825 C 364 817 373 810 381 802 C 389 794 397 787 405 780 L 374 747 C 366 754 358 761 350 769 C 342 776 334 783 326 789 C 318 795 310 801 302 807 C 294 813 287 818 280 823 L 193 747 C 189 749 185 750 181 752 C 177 754 173 756 170 758 C 166 760 163 762 161 764 C 158 766 155 769 153 772 Z M 564 35 L 550 -9 C 531 -7 512 -5 494 -3 C 475 -1 457 1 440 4 C 422 7 406 10 392 14 C 377 17 364 20 354 24 L 363 57 L 426 50 L 426 277 L 282 235 C 272 237 260 241 248 245 C 236 249 223 254 210 260 C 197 265 184 270 172 276 C 159 281 147 286 137 292 L 137 44 L 240 33 L 224 -10 C 204 -9 184 -7 164 -5 C 144 -3 124 0 106 2 C 87 5 70 8 54 12 C 38 16 25 20 14 24 L 23 57 L 86 50 L 86 580 L 5 591 L 21 634 C 39 632 56 631 73 629 C 89 627 105 624 119 622 C 133 620 145 617 157 615 C 168 612 178 609 187 606 L 187 602 L 137 576 L 137 346 C 148 340 160 334 174 328 C 188 321 202 314 216 308 C 230 301 244 295 257 290 C 270 284 281 280 291 277 L 426 318 L 426 582 L 358 591 L 371 634 C 389 632 405 631 421 629 C 436 627 450 624 463 622 C 476 620 488 617 498 615 C 508 613 518 610 527 607 L 527 603 L 477 577 L 477 44 L 564 35 Z" unicode="" />
<glyph horiz-adv-x="413" d="M -39 772 L 63 846 L 109 865 C 117 859 126 853 136 847 C 145 840 154 833 164 825 C 173 817 182 809 190 801 C 198 793 206 786 213 780 L 183 747 C 175 754 167 761 159 769 C 151 776 143 783 135 789 C 127 795 119 801 111 807 C 103 813 96 818 89 823 L 1 747 C -3 749 -6 750 -10 752 C -14 754 -17 756 -21 758 C -24 760 -27 763 -30 765 C -33 767 -36 769 -39 772 Z M 118 509 L 116 272 L 211 470 C 222 467 234 463 247 459 C 259 454 272 449 285 443 C 298 437 310 432 321 426 C 332 420 342 414 350 408 L 346 43 L 409 36 L 394 -6 C 381 -4 369 -3 357 -1 C 345 1 335 3 325 5 C 315 7 306 9 298 11 C 290 13 283 16 277 18 L 277 22 L 299 45 L 301 384 C 296 386 291 389 285 391 C 279 393 272 396 266 399 C 259 401 252 404 246 406 C 239 408 232 409 226 411 L 116 208 L 114 43 L 177 36 L 162 -6 C 149 -4 137 -3 125 -1 C 113 1 103 3 93 5 C 83 7 74 9 66 11 C 58 13 51 16 45 18 L 45 22 L 67 45 L 70 498 L 61 700 L 110 714 L 118 509 Z" unicode="" />
<glyph horiz-adv-x="576" d="M 432 357 C 408 361 383 365 358 369 C 333 373 308 377 283 382 C 258 386 234 391 211 396 C 187 401 165 406 144 411 L 144 322 C 155 316 167 310 181 304 C 195 297 209 290 223 284 C 237 277 251 271 264 266 C 277 260 288 256 298 253 L 432 293 L 432 357 Z M 571 35 L 557 -9 C 538 -7 519 -5 501 -3 C 482 -1 464 1 447 4 C 429 7 413 10 399 14 C 384 17 371 20 361 24 L 370 57 L 432 50 L 432 253 L 288 211 C 278 213 266 217 254 222 C 242 226 229 231 216 236 C 203 241 190 246 178 252 C 166 257 154 262 144 268 L 144 44 L 246 33 L 231 -10 C 211 -9 191 -7 171 -5 C 151 -3 131 0 113 2 C 94 5 77 8 61 12 C 45 16 32 20 21 24 L 30 57 L 92 50 L 92 423 C 82 425 72 428 63 430 C 54 432 46 435 38 437 C 30 439 23 442 17 444 C 11 446 5 448 0 450 L 10 481 C 15 479 21 478 27 476 C 33 474 40 473 47 472 C 54 470 61 469 69 467 C 76 465 84 464 92 463 L 92 580 L 12 591 L 28 634 C 46 632 63 631 79 629 C 95 627 111 624 125 622 C 139 620 151 617 163 615 C 175 612 185 609 194 606 L 194 602 L 144 576 L 144 452 C 166 447 189 442 213 438 C 237 434 262 429 287 425 C 311 421 336 417 361 413 C 385 409 409 406 432 403 L 432 582 L 364 591 L 377 634 C 395 632 411 631 427 629 C 443 627 457 624 470 622 C 482 620 494 617 504 615 C 514 613 524 610 533 607 L 533 603 L 484 577 L 484 396 C 492 395 499 394 507 393 C 514 392 521 391 528 391 C 535 390 542 389 549 389 C 555 388 562 387 568 387 L 555 342 C 549 342 544 343 538 344 C 532 344 526 345 520 346 C 514 346 509 347 504 348 C 498 348 492 349 484 350 L 484 44 L 571 35 Z" unicode="" />
<glyph horiz-adv-x="413" d="M -17 605 L -4 631 C 0 630 5 629 11 628 C 16 627 22 626 28 625 C 34 624 40 623 46 622 C 52 621 59 620 66 619 L 61 718 L 110 733 L 116 612 C 126 610 136 609 146 608 C 156 606 167 605 177 604 C 187 602 198 601 208 600 C 218 599 229 598 240 597 L 228 553 C 218 553 209 554 199 555 C 189 556 180 557 171 559 C 161 560 152 561 143 563 C 133 564 124 566 116 568 L 114 269 L 211 466 C 222 463 234 459 247 455 C 260 450 273 445 286 440 C 298 434 310 429 321 423 C 332 417 342 411 350 405 L 346 43 L 409 36 L 394 -6 C 381 -4 369 -3 357 -1 C 345 1 335 3 325 5 C 315 7 306 9 298 11 C 290 13 283 16 277 18 L 277 22 L 299 45 L 301 381 C 296 383 291 386 285 388 C 279 390 272 393 266 396 C 259 398 252 401 246 403 C 239 405 232 406 226 408 L 116 208 L 114 43 L 177 36 L 162 -6 C 149 -4 137 -3 125 -1 C 113 1 103 3 93 5 C 83 7 74 9 66 11 C 58 13 51 16 45 18 L 45 22 L 67 45 L 68 578 C 58 580 49 582 41 584 C 33 586 25 589 18 591 C 10 593 4 596 -1 598 C -7 600 -12 603 -17 605 Z" unicode="" />
<glyph horiz-adv-x="265" d="M -8 760 L 56 832 L 102 850 L 195 782 L 243 856 C 246 854 249 852 252 850 C 255 848 258 846 261 844 C 264 842 267 840 269 838 C 271 836 274 834 276 832 L 219 759 L 173 748 L 82 809 L 29 736 C 25 737 21 738 18 740 C 14 742 11 744 8 746 C 5 748 2 750 0 752 C -2 754 -5 757 -8 760 Z M 108 50 L 108 581 L 5 592 L 21 634 C 40 633 61 631 83 629 C 105 626 126 623 147 620 C 167 617 186 614 203 610 C 220 606 234 602 246 598 L 238 562 L 159 574 L 159 44 L 262 33 L 246 -10 C 226 -9 206 -7 184 -5 C 162 -2 141 0 121 4 C 100 7 81 10 64 14 C 46 18 32 22 21 26 L 30 59 L 108 50 Z" unicode="" />
<glyph horiz-adv-x="180" d="M -37 580 L 26 651 L 73 670 L 165 602 L 213 675 C 216 673 219 672 223 670 C 226 668 229 666 232 664 C 235 662 238 659 240 657 C 242 655 244 653 246 651 L 189 579 L 143 568 L 53 628 L -1 555 C -5 556 -8 558 -12 560 C -15 562 -18 564 -21 566 C -24 568 -27 571 -30 573 C -32 575 -35 577 -37 580 Z M 118 461 L 114 43 L 177 36 L 162 -6 C 149 -4 137 -3 125 -1 C 113 1 103 3 93 5 C 83 7 74 9 66 11 C 58 13 51 16 45 18 L 45 22 L 67 45 L 69 376 L 61 447 L 118 461 Z" unicode="" />
<glyph horiz-adv-x="265" d="M 16 793 L 30 827 C 44 824 60 821 77 819 C 94 816 112 813 131 811 C 150 808 170 805 191 803 C 211 800 233 798 255 796 L 242 750 C 221 752 199 754 176 758 C 153 761 131 765 110 769 C 89 773 70 777 54 781 C 37 785 24 789 16 793 Z M 108 50 L 108 581 L 5 592 L 21 634 C 40 633 61 631 83 629 C 105 626 126 623 147 620 C 167 617 186 614 203 610 C 220 606 234 602 246 598 L 238 562 L 159 574 L 159 44 L 262 33 L 246 -10 C 226 -9 206 -7 184 -5 C 162 -2 141 0 121 4 C 100 7 81 10 64 14 C 46 18 32 22 21 26 L 30 59 L 108 50 Z" unicode="" />
<glyph horiz-adv-x="180" d="M -21 604 L -7 638 C 8 635 24 632 41 630 C 57 627 75 624 94 622 C 112 619 132 616 153 614 C 173 611 194 609 216 607 L 201 555 C 183 556 163 558 141 562 C 119 566 98 570 77 575 C 56 579 37 584 20 589 C 2 594 -11 599 -21 604 Z M 118 461 L 114 43 L 177 36 L 162 -6 C 149 -4 137 -3 125 -1 C 113 1 103 3 93 5 C 83 7 74 9 66 11 C 58 13 51 16 45 18 L 45 22 L 67 45 L 69 376 L 61 447 L 118 461 Z" unicode="" />
<glyph horiz-adv-x="265" d="M 263 828 L 191 750 L 144 732 C 136 734 129 736 122 738 C 114 740 107 743 100 746 C 93 749 87 752 81 756 C 75 759 69 762 64 766 L 17 833 L 56 859 L 95 792 L 164 771 L 224 854 C 227 852 230 851 234 849 C 238 847 241 845 245 843 C 248 841 251 838 254 836 C 257 833 260 830 263 828 Z M 108 50 L 108 581 L 5 592 L 21 634 C 40 633 61 631 83 629 C 105 626 126 623 147 620 C 167 617 186 614 203 610 C 220 606 234 602 246 598 L 238 562 L 159 574 L 159 44 L 262 33 L 246 -10 C 226 -9 206 -7 184 -5 C 162 -2 141 0 121 4 C 100 7 81 10 64 14 C 46 18 32 22 21 26 L 30 59 L 108 50 Z" unicode="" />
<glyph horiz-adv-x="180" d="M 212 639 L 147 554 L 101 536 C 94 538 87 540 81 543 C 74 546 67 549 60 553 C 52 556 45 560 39 564 C 33 568 27 572 21 576 L -20 643 L 21 671 L 53 603 L 121 575 L 172 664 C 176 663 179 662 183 660 C 187 658 190 656 194 654 C 197 652 200 649 203 647 C 206 644 209 641 212 639 Z M 118 461 L 114 43 L 177 36 L 162 -6 C 149 -4 137 -3 125 -1 C 113 1 103 3 93 5 C 83 7 74 9 66 11 C 58 13 51 16 45 18 L 45 22 L 67 45 L 69 376 L 61 447 L 118 461 Z" unicode="" />
<glyph horiz-adv-x="265" d="M 132 -102 L 217 -128 L 199 -168 C 190 -166 180 -163 170 -160 C 160 -156 149 -152 139 -148 C 129 -143 119 -138 110 -133 C 101 -128 94 -123 89 -119 L 89 -73 L 138 1 C 126 3 114 5 103 7 C 91 9 80 11 70 13 C 60 15 50 17 42 19 C 34 21 27 24 21 26 L 30 59 L 108 50 L 108 581 L 5 592 L 21 634 C 40 633 61 631 83 629 C 105 626 126 623 147 620 C 167 617 186 614 203 610 C 220 606 234 602 246 598 L 238 562 L 159 574 L 159 44 L 262 33 L 246 -10 C 240 -10 234 -9 228 -9 C 222 -8 215 -7 209 -7 C 202 -6 196 -5 190 -5 C 184 -4 177 -3 170 -3 L 132 -69 L 132 -102 Z" unicode="" />
<glyph horiz-adv-x="180" d="M 131 634 L 113 554 L 68 564 L 68 653 C 73 653 78 652 84 651 C 90 650 95 649 101 647 C 106 645 111 643 117 641 C 122 639 127 636 131 634 Z M 118 461 L 114 43 L 177 36 L 162 -6 L 130 -1 L 91 -69 L 91 -102 L 176 -128 L 158 -168 C 149 -166 139 -163 129 -160 C 119 -156 108 -152 98 -148 C 88 -143 78 -138 69 -133 C 60 -128 53 -123 48 -119 L 48 -73 L 99 3 C 93 4 87 5 82 7 C 77 8 72 9 68 10 C 64 11 60 12 56 14 C 52 15 48 16 45 18 L 45 22 L 67 45 L 69 376 L 61 447 L 118 461 Z" unicode="" />
<glyph horiz-adv-x="265" d="M 172 827 L 154 754 L 107 763 L 107 847 C 112 847 117 846 123 845 C 129 843 135 842 141 840 C 147 838 152 836 158 834 C 163 832 168 829 172 827 Z M 108 50 L 108 581 L 5 592 L 21 634 C 40 633 61 631 83 629 C 105 626 126 623 147 620 C 167 617 186 614 203 610 C 220 606 234 602 246 598 L 238 562 L 159 574 L 159 44 L 262 33 L 246 -10 C 226 -9 206 -7 184 -5 C 162 -2 141 0 121 4 C 100 7 81 10 64 14 C 46 18 32 22 21 26 L 30 59 L 108 50 Z" unicode="" />
<glyph horiz-adv-x="180" d="M 118 461 L 114 43 L 177 36 L 162 -6 C 149 -4 137 -3 125 -1 C 113 1 103 3 93 5 C 83 7 74 9 66 11 C 58 13 51 16 45 18 L 45 22 L 67 45 L 69 376 L 61 447 L 118 461 Z" unicode="" />
<glyph horiz-adv-x="458" d="M 219 605 L 210 565 L 159 573 L 159 102 L 262 91 L 246 48 C 226 49 205 51 183 53 C 161 55 140 58 120 62 C 99 65 80 69 63 73 C 46 77 32 81 21 85 L 30 118 L 108 108 L 108 580 L 5 591 L 21 633 C 37 632 54 631 72 629 C 90 627 107 625 125 623 C 143 620 160 617 176 614 C 192 611 206 608 219 605 Z M 242 589 L 254 633 C 272 631 290 630 309 628 C 328 626 346 623 364 621 C 382 618 398 615 412 612 C 426 609 439 606 449 604 L 440 567 L 384 575 L 384 -103 L 289 -154 C 282 -153 273 -151 262 -149 C 250 -146 238 -143 225 -139 C 211 -135 198 -132 186 -128 C 174 -124 164 -120 156 -117 L 173 -70 L 293 -112 L 332 -90 L 332 582 L 242 589 Z" unicode="" />
<glyph horiz-adv-x="364" d="M 313 639 L 299 554 L 257 564 L 254 659 C 259 659 264 658 270 657 C 275 655 280 654 285 652 C 290 650 295 648 300 646 C 304 644 309 641 313 639 Z M 128 639 L 113 554 L 71 564 L 68 659 C 73 659 78 658 84 657 C 89 655 94 654 99 652 C 104 650 109 648 114 646 C 119 644 124 641 128 639 Z M 252 5 L 255 373 L 246 443 L 304 458 L 300 7 L 223 -155 L 173 -136 L 252 5 Z M 118 458 L 114 43 L 177 36 L 162 -6 C 149 -4 137 -3 125 -1 C 113 1 103 3 93 5 C 83 7 74 9 66 11 C 58 13 51 16 45 18 L 45 22 L 67 45 L 69 373 L 61 443 L 118 458 Z" unicode="" />
<glyph horiz-adv-x="258" d="M 19 772 L 120 846 L 166 865 C 174 860 182 854 192 847 C 202 840 211 833 221 825 C 230 817 239 810 247 802 C 255 794 263 787 271 780 L 240 747 C 232 754 224 761 216 769 C 208 776 200 783 192 789 C 184 795 176 801 168 807 C 160 813 153 818 146 823 L 58 747 C 54 749 50 750 46 752 C 42 754 39 756 36 758 C 32 760 29 763 27 765 C 24 767 21 769 19 772 Z M 185 573 L 185 -80 L 90 -131 C 83 -130 74 -128 63 -126 C 51 -123 39 -120 26 -116 C 12 -112 0 -109 -12 -105 C -24 -101 -35 -97 -43 -94 L -26 -47 L 94 -89 L 133 -67 L 133 580 L 9 591 L 24 634 C 44 632 65 631 87 629 C 109 627 130 624 151 621 C 171 618 190 615 208 612 C 225 608 239 605 250 602 L 241 565 L 185 573 Z" unicode="" />
<glyph horiz-adv-x="177" d="M -40 566 L 61 651 L 107 670 C 115 664 124 658 134 650 C 144 642 153 633 163 624 C 173 615 182 606 190 598 C 198 589 206 581 212 574 L 182 541 C 173 549 164 558 156 566 C 148 574 140 581 132 589 C 124 596 116 603 108 610 C 100 616 93 622 87 628 L 0 541 C -4 543 -7 544 -11 546 C -15 548 -18 550 -22 552 C -25 554 -28 557 -31 559 C -34 561 -37 563 -40 566 Z M 65 -41 L 68 376 L 59 447 L 117 461 L 113 -40 L 36 -201 L -14 -183 L 65 -41 Z" unicode="" />
<glyph horiz-adv-x="525" d="M 100 50 L 100 580 L 20 591 L 35 634 C 48 632 60 631 71 630 C 81 628 91 627 101 625 C 110 623 119 620 127 617 C 135 613 144 610 152 606 L 152 318 L 278 287 L 372 455 L 407 637 L 460 620 L 419 440 L 313 269 L 461 47 L 540 36 L 526 -8 C 513 -6 501 -4 490 -2 C 478 0 468 2 458 4 C 448 6 440 9 432 12 C 424 14 418 17 413 20 L 269 242 L 152 271 L 152 44 L 254 33 L 239 -10 C 219 -9 199 -7 179 -5 C 159 -3 139 0 121 2 C 102 5 85 8 69 12 C 53 16 40 20 29 24 L 37 57 L 100 50 Z M 354 -12 L 365 -102 L 327 -213 L 288 -202 L 317 -105 L 298 3 L 354 -12 Z" unicode="" />
<glyph horiz-adv-x="394" d="M 391 37 L 374 -7 C 365 -5 356 -3 348 -1 C 339 1 331 3 324 5 C 316 7 309 10 303 12 C 297 14 292 17 288 20 L 219 128 L 114 153 L 113 43 L 177 36 L 162 -6 C 149 -4 137 -3 125 -1 C 113 1 103 3 93 5 C 83 7 74 9 66 11 C 58 13 51 16 45 18 L 45 22 L 67 45 L 70 498 L 61 700 L 110 714 L 117 509 L 116 282 L 204 473 C 216 470 228 466 241 462 C 254 457 267 452 280 447 C 292 441 304 436 315 430 C 325 424 335 419 343 413 L 329 256 L 263 148 L 332 47 L 391 37 Z M 287 272 L 291 394 C 287 396 282 398 276 400 C 270 402 263 405 256 407 C 249 409 242 412 235 414 C 228 416 222 417 217 418 L 114 218 L 114 195 L 231 164 L 287 272 Z M 261 -15 L 272 -106 L 233 -217 L 195 -206 L 223 -108 L 205 0 L 261 -15 Z" unicode="" />
<glyph horiz-adv-x="473" d="M 144 432 L 144 266 L 258 249 L 356 469 L 413 451 L 288 228 L 406 47 L 492 32 L 477 -11 C 465 -9 454 -7 442 -5 C 430 -3 419 0 409 2 C 399 4 389 7 381 10 C 373 13 366 16 361 20 L 242 206 L 144 218 L 144 45 L 233 34 L 219 -9 C 200 -7 182 -5 166 -3 C 149 -1 133 1 119 3 C 104 5 90 8 78 11 C 66 14 56 17 48 20 L 48 24 L 92 47 L 92 406 L 35 413 L 50 457 C 59 456 68 455 77 453 C 86 451 95 449 103 447 C 111 445 118 442 125 440 C 132 437 138 434 144 432 Z" unicode="" />
<glyph horiz-adv-x="441" d="M 127 732 L 91 747 L 216 880 C 220 877 224 874 228 871 C 232 867 236 864 240 860 C 244 856 247 852 251 848 C 255 844 258 840 261 836 L 127 732 Z M 436 136 L 331 -33 C 312 -29 289 -25 261 -19 C 233 -13 203 -6 173 1 C 142 8 113 15 86 23 C 59 31 37 38 20 44 L 35 78 L 100 64 L 100 582 L 20 591 L 35 634 C 55 632 76 630 98 628 C 120 626 141 623 162 620 C 182 616 201 613 219 609 C 236 605 250 602 261 598 L 252 562 L 152 576 L 152 53 C 164 49 177 46 191 43 C 205 40 219 37 233 34 C 247 31 260 28 274 25 C 288 22 304 19 323 15 L 399 172 L 436 136 Z" unicode="" />
<glyph horiz-adv-x="180" d="M 87 751 L 52 767 L 176 900 C 180 897 184 894 188 891 C 192 887 196 884 200 880 C 204 876 207 872 211 868 C 214 864 217 860 221 856 L 87 751 Z M 118 509 L 114 43 L 177 36 L 162 -6 C 149 -4 137 -3 125 -1 C 113 1 103 3 93 5 C 83 7 74 9 66 11 C 58 13 51 16 45 18 L 45 22 L 67 45 L 70 498 L 61 700 L 110 714 L 118 509 Z" unicode="" />
<glyph horiz-adv-x="441" d="M 436 136 L 331 -33 C 312 -29 289 -25 261 -19 C 233 -13 203 -6 173 1 C 142 8 113 15 86 23 C 59 31 37 38 20 44 L 35 78 L 100 64 L 100 582 L 20 591 L 35 634 C 55 632 76 630 98 628 C 120 626 141 623 162 620 C 182 616 201 613 219 609 C 236 605 250 602 261 598 L 252 562 L 152 576 L 152 53 C 164 49 177 46 191 43 C 205 40 219 37 233 34 C 247 31 260 28 274 25 C 288 22 304 19 323 15 L 399 172 L 436 136 Z M 210 -50 L 221 -140 L 183 -251 L 144 -240 L 173 -142 L 154 -34 L 210 -50 Z" unicode="" />
<glyph horiz-adv-x="180" d="M 118 509 L 114 43 L 177 36 L 162 -6 C 149 -4 137 -3 125 -1 C 113 1 103 3 93 5 C 83 7 74 9 66 11 C 58 13 51 16 45 18 L 45 22 L 67 45 L 70 498 L 61 700 L 110 714 L 118 509 Z M 130 -50 L 141 -140 L 102 -251 L 64 -240 L 92 -142 L 74 -34 L 130 -50 Z" unicode="" />
<glyph horiz-adv-x="441" d="M 373 653 L 384 563 L 345 452 L 307 463 L 335 561 L 317 669 L 373 653 Z M 436 136 L 331 -33 C 312 -29 289 -25 261 -19 C 233 -13 203 -6 173 1 C 142 8 113 15 86 23 C 59 31 37 38 20 44 L 35 78 L 100 64 L 100 582 L 20 591 L 35 634 C 55 632 76 630 98 628 C 120 626 141 623 162 620 C 182 616 201 613 219 609 C 236 605 250 602 261 598 L 252 562 L 152 576 L 152 53 C 164 49 177 46 191 43 C 205 40 219 37 233 34 C 247 31 260 28 274 25 C 288 22 304 19 323 15 L 399 172 L 436 136 Z" unicode="" />
<glyph horiz-adv-x="286" d="M 252 712 L 263 621 L 224 510 L 186 521 L 215 619 L 196 727 L 252 712 Z M 118 509 L 114 43 L 177 36 L 162 -6 C 149 -4 137 -3 125 -1 C 113 1 103 3 93 5 C 83 7 74 9 66 11 C 58 13 51 16 45 18 L 45 22 L 67 45 L 70 498 L 61 700 L 110 714 L 118 509 Z" unicode="" />
<glyph horiz-adv-x="441" d="M 306 232 L 328 302 L 394 286 L 375 215 C 369 215 362 215 356 216 C 349 217 342 218 336 220 C 330 222 324 224 319 226 C 313 228 309 230 306 232 Z M 427 118 L 332 -33 C 313 -29 290 -25 262 -19 C 234 -13 205 -6 175 1 C 144 8 115 15 88 23 C 60 31 38 38 21 44 L 36 78 L 101 64 L 101 582 L 21 591 L 36 634 C 56 632 77 630 99 628 C 121 626 142 623 163 620 C 183 616 202 613 220 609 C 237 605 251 602 262 598 L 253 562 L 153 576 L 153 53 C 165 49 178 46 192 43 C 206 40 220 37 234 34 C 248 31 261 28 275 25 C 289 22 305 19 324 15 L 391 153 L 427 118 Z" unicode="" />
<glyph horiz-adv-x="284" d="M 118 509 L 114 43 L 177 36 L 162 -6 C 149 -4 137 -3 125 -1 C 113 1 103 3 93 5 C 83 7 74 9 66 11 C 58 13 51 16 45 18 L 45 22 L 67 45 L 70 498 L 61 700 L 110 714 L 118 509 Z M 183 287 L 205 358 L 271 341 L 253 269 C 247 269 240 270 234 271 C 227 272 220 273 214 275 C 208 277 202 279 196 281 C 190 283 186 285 183 287 Z" unicode="" />
<glyph horiz-adv-x="442" d="M 233 606 L 223 566 L 153 576 L 153 435 L 311 503 L 309 452 L 153 392 L 153 53 C 165 49 178 46 192 43 C 206 40 220 37 234 34 C 248 31 261 28 275 25 C 289 22 305 19 324 15 L 400 172 L 437 136 L 332 -33 C 313 -29 290 -25 262 -19 C 234 -13 205 -6 175 1 C 144 8 115 15 88 23 C 60 31 38 38 21 44 L 36 78 L 101 64 L 101 373 L 41 350 L 42 388 L 101 413 L 101 582 L 21 591 L 36 634 C 52 633 68 632 86 630 C 104 628 121 625 139 623 C 157 620 174 617 190 615 C 206 612 220 609 233 606 Z" unicode="" />
<glyph horiz-adv-x="180" d="M 13 526 L 14 563 L 69 583 L 63 705 L 112 720 L 116 600 L 216 637 L 210 591 L 118 560 L 114 43 L 177 36 L 162 -6 C 149 -4 137 -3 125 -1 C 113 1 103 3 93 5 C 83 7 74 9 66 11 C 58 13 51 16 45 18 L 45 22 L 67 45 L 70 545 L 13 526 Z" unicode="" />
<glyph horiz-adv-x="564" d="M 279 732 L 244 747 L 369 880 C 373 877 377 874 381 871 C 385 867 389 864 393 860 C 397 856 400 852 404 848 C 408 844 411 840 414 836 L 279 732 Z M 356 586 L 373 631 C 386 629 398 628 410 626 C 422 624 432 622 442 620 C 452 618 461 615 469 613 C 477 611 485 608 493 606 L 493 -7 L 436 5 L 444 102 L 125 480 L 120 57 C 128 55 138 54 150 52 C 162 50 174 48 187 46 C 200 44 213 43 227 41 C 241 39 254 38 266 37 L 252 -9 C 230 -7 209 -4 189 -2 C 169 0 150 3 132 7 C 114 10 99 14 85 18 C 71 22 60 25 50 29 L 50 34 L 71 66 L 85 541 L 5 607 L 54 641 L 444 182 L 444 573 C 439 573 433 574 427 576 C 420 577 413 578 405 579 C 397 580 389 581 381 582 C 373 583 364 584 356 586 Z" unicode="" />
<glyph horiz-adv-x="413" d="M 191 528 L 156 538 L 256 698 C 260 695 265 692 269 689 C 273 685 277 682 281 678 C 285 674 288 671 291 667 C 294 663 297 658 301 654 L 191 528 Z M 52 444 L 106 460 L 113 266 L 211 470 C 222 467 234 463 247 459 C 259 454 272 449 285 443 C 298 437 310 432 321 426 C 332 420 342 414 350 408 L 346 43 L 409 36 L 394 -6 C 381 -4 369 -3 357 -1 C 345 1 335 3 325 5 C 315 7 306 9 298 11 C 290 13 283 16 277 18 L 277 22 L 299 45 L 301 384 C 296 386 291 389 285 391 C 279 393 272 396 266 399 C 259 401 252 404 246 406 C 239 408 232 409 226 411 L 116 208 L 114 43 L 177 36 L 162 -6 C 149 -4 137 -3 125 -1 C 113 1 103 3 93 5 C 83 7 74 9 66 11 C 58 13 51 16 45 18 L 45 22 L 67 45 L 68 256 L 52 444 Z" unicode="" />
<glyph horiz-adv-x="564" d="M 356 586 L 373 631 C 386 629 398 628 410 626 C 422 624 432 622 442 620 C 452 618 461 615 469 613 C 477 611 485 608 493 606 L 493 -7 L 436 5 L 444 102 L 125 480 L 120 57 C 128 55 138 54 150 52 C 162 50 174 48 187 46 C 200 44 213 43 227 41 C 241 39 254 38 266 37 L 252 -9 C 230 -7 209 -4 189 -2 C 169 0 150 3 132 7 C 114 10 99 14 85 18 C 71 22 60 25 50 29 L 50 34 L 71 66 L 85 541 L 5 607 L 54 641 L 444 182 L 444 573 C 439 573 433 574 427 576 C 420 577 413 578 405 579 C 397 580 389 581 381 582 C 373 583 364 584 356 586 Z M 370 -12 L 381 -102 L 342 -213 L 304 -202 L 332 -105 L 313 3 L 370 -12 Z" unicode="" />
<glyph horiz-adv-x="413" d="M 52 444 L 106 460 L 113 266 L 211 470 C 222 467 234 463 247 459 C 259 454 272 449 285 443 C 298 437 310 432 321 426 C 332 420 342 414 350 408 L 346 43 L 409 36 L 394 -6 C 381 -4 369 -3 357 -1 C 345 1 335 3 325 5 C 315 7 306 9 298 11 C 290 13 283 16 277 18 L 277 22 L 299 45 L 301 384 C 296 386 291 389 285 391 C 279 393 272 396 266 399 C 259 401 252 404 246 406 C 239 408 232 409 226 411 L 116 208 L 114 43 L 177 36 L 162 -6 C 149 -4 137 -3 125 -1 C 113 1 103 3 93 5 C 83 7 74 9 66 11 C 58 13 51 16 45 18 L 45 22 L 67 45 L 68 256 L 52 444 Z M 260 -31 L 271 -121 L 232 -232 L 194 -221 L 222 -123 L 204 -15 L 260 -31 Z" unicode="" />
<glyph horiz-adv-x="564" d="M 416 842 L 316 768 L 269 749 C 260 754 251 760 242 767 C 232 773 223 781 213 789 C 203 797 194 804 186 812 C 178 820 170 827 164 834 L 195 867 C 203 859 211 852 219 845 C 227 837 235 830 243 824 C 251 818 258 812 266 806 C 274 800 281 795 289 791 L 376 867 C 380 865 383 864 387 862 C 390 860 393 857 397 855 C 400 853 403 851 406 849 C 408 847 412 845 416 842 Z M 356 586 L 373 631 C 386 629 398 628 410 626 C 422 624 432 622 442 620 C 452 618 461 615 469 613 C 477 611 485 608 493 606 L 493 -7 L 436 5 L 444 102 L 125 480 L 120 57 C 128 55 138 54 150 52 C 162 50 174 48 187 46 C 200 44 213 43 227 41 C 241 39 254 38 266 37 L 252 -9 C 230 -7 209 -4 189 -2 C 169 0 150 3 132 7 C 114 10 99 14 85 18 C 71 22 60 25 50 29 L 50 34 L 71 66 L 85 541 L 5 607 L 54 641 L 444 182 L 444 573 C 439 573 433 574 427 576 C 420 577 413 578 405 579 C 397 580 389 581 381 582 C 373 583 364 584 356 586 Z" unicode="" />
<glyph horiz-adv-x="413" d="M 337 639 L 237 554 L 190 536 C 182 541 173 548 163 556 C 153 564 143 572 134 581 C 124 590 115 599 107 607 C 98 615 91 623 85 631 L 116 664 C 124 656 132 648 140 640 C 148 632 156 624 164 616 C 172 608 180 601 188 595 C 196 588 203 582 210 577 L 297 664 C 300 662 303 661 307 659 C 310 657 313 656 317 654 C 320 652 323 649 327 647 C 330 644 333 641 337 639 Z M 52 444 L 106 460 L 113 266 L 211 470 C 222 467 234 463 247 459 C 259 454 272 449 285 443 C 298 437 310 432 321 426 C 332 420 342 414 350 408 L 346 43 L 409 36 L 394 -6 C 381 -4 369 -3 357 -1 C 345 1 335 3 325 5 C 315 7 306 9 298 11 C 290 13 283 16 277 18 L 277 22 L 299 45 L 301 384 C 296 386 291 389 285 391 C 279 393 272 396 266 399 C 259 401 252 404 246 406 C 239 408 232 409 226 411 L 116 208 L 114 43 L 177 36 L 162 -6 C 149 -4 137 -3 125 -1 C 113 1 103 3 93 5 C 83 7 74 9 66 11 C 58 13 51 16 45 18 L 45 22 L 67 45 L 68 256 L 52 444 Z" unicode="" />
<glyph horiz-adv-x="474" d="M 91 686 L 102 595 L 63 484 L 25 495 L 53 593 L 35 701 L 91 686 Z M 113 444 L 167 460 L 175 266 L 273 470 C 284 467 296 463 309 459 C 321 454 334 449 347 443 C 360 437 372 432 383 426 C 394 420 404 414 412 408 L 408 43 L 471 36 L 456 -6 C 443 -4 431 -3 419 -1 C 407 1 397 3 387 5 C 377 7 368 9 360 11 C 352 13 345 16 339 18 L 339 22 L 361 45 L 363 384 C 357 386 352 389 346 391 C 340 393 333 396 327 399 C 320 401 313 404 307 406 C 300 408 293 409 287 411 L 177 208 L 176 43 L 239 36 L 224 -6 C 211 -4 199 -3 187 -1 C 175 1 165 3 155 5 C 145 7 136 9 128 11 C 120 13 113 16 107 18 L 107 22 L 129 45 L 130 256 L 113 444 Z" unicode="" />
<glyph horiz-adv-x="564" d="M 493 606 L 493 -152 L 398 -203 C 391 -202 382 -200 371 -198 C 359 -195 347 -192 334 -188 C 320 -184 307 -181 295 -177 C 283 -173 273 -169 265 -166 L 281 -119 L 401 -161 L 441 -139 L 444 102 L 125 480 L 120 57 C 128 55 138 54 150 52 C 162 50 174 48 187 46 C 200 44 213 43 227 41 C 241 39 254 38 266 37 L 252 -9 C 230 -7 209 -4 189 -2 C 169 0 150 3 132 7 C 114 10 99 14 85 18 C 71 22 60 25 50 29 L 50 34 L 71 66 L 85 541 L 5 607 L 54 641 L 444 182 L 444 573 C 439 573 433 574 427 576 C 420 577 413 578 405 579 C 397 580 389 581 381 582 C 373 583 364 584 356 586 L 373 631 C 386 629 398 628 410 626 C 422 624 432 622 442 620 C 452 618 461 615 469 613 C 477 611 485 608 493 606 Z" unicode="" />
<glyph horiz-adv-x="415" d="M 350 408 L 344 -155 L 255 -206 C 249 -205 240 -203 230 -201 C 220 -199 209 -196 197 -193 C 185 -189 173 -186 161 -183 C 149 -179 139 -176 131 -173 L 148 -125 L 258 -164 L 298 -142 L 301 384 C 296 386 291 389 285 391 C 279 393 272 396 266 399 C 259 401 252 404 246 406 C 239 408 232 409 226 411 L 116 208 L 114 43 L 177 36 L 162 -6 C 149 -4 137 -3 125 -1 C 113 1 103 3 93 5 C 83 7 74 9 66 11 C 58 13 51 16 45 18 L 45 22 L 67 45 L 68 256 L 52 444 L 106 460 L 113 266 L 211 470 C 222 467 234 463 247 459 C 259 454 272 449 285 443 C 298 437 310 432 321 426 C 332 420 342 414 350 408 Z" unicode="" />
<glyph horiz-adv-x="587" d="M 183 793 L 196 827 C 210 824 226 821 243 819 C 260 816 278 813 297 811 C 316 808 336 805 357 803 C 377 800 399 798 421 796 L 408 750 C 387 752 365 754 342 758 C 319 761 297 765 276 769 C 255 773 236 777 220 781 C 204 785 191 789 183 793 Z M 516 78 L 310 -26 C 290 -22 268 -16 246 -8 C 223 0 200 7 178 17 C 155 27 134 37 115 47 C 96 57 80 67 68 77 L 68 555 L 274 647 C 292 643 312 638 335 631 C 358 623 381 615 405 605 C 428 595 449 584 469 573 C 489 562 504 552 516 543 L 516 78 Z M 322 19 L 464 97 L 464 522 C 452 528 438 536 421 544 C 403 552 385 559 366 567 C 346 575 327 582 309 588 C 291 594 275 599 262 602 L 120 537 L 120 98 C 131 92 145 85 163 77 C 180 69 198 62 218 54 C 237 46 256 39 274 33 C 292 27 308 22 322 19 Z" unicode="" />
<glyph horiz-adv-x="389" d="M 81 604 L 96 638 C 110 635 126 632 143 630 C 159 627 177 624 196 622 C 214 619 234 616 255 614 C 275 611 296 609 318 607 L 304 555 C 286 556 266 558 244 562 C 222 566 201 570 180 575 C 158 579 139 584 122 589 C 104 594 91 599 81 604 Z M 333 88 L 207 -11 C 191 -7 176 -3 162 1 C 148 5 134 11 121 17 C 107 23 95 29 84 36 C 72 42 62 49 53 57 L 55 397 L 184 469 C 200 465 215 460 229 456 C 243 451 257 446 269 441 C 281 435 293 430 304 424 C 315 418 326 411 337 405 L 333 88 Z M 215 37 L 286 101 L 288 378 C 280 382 271 386 261 390 C 251 394 241 397 231 401 C 221 405 211 408 201 411 C 191 414 181 417 173 419 L 101 385 L 101 79 C 109 75 118 71 128 67 C 137 63 147 59 157 55 C 167 51 176 48 186 45 C 196 41 205 39 215 37 Z" unicode="" />
<glyph horiz-adv-x="587" d="M 422 828 L 350 750 L 304 732 C 296 734 289 736 281 738 C 273 740 266 743 260 746 C 253 749 246 752 240 756 C 234 759 228 762 223 766 L 176 833 L 216 859 L 254 792 L 323 771 L 383 854 C 386 852 389 851 393 849 C 397 847 400 845 404 843 C 408 841 411 838 414 836 C 417 833 420 830 422 828 Z M 516 78 L 310 -26 C 290 -22 268 -16 246 -8 C 223 0 200 7 178 17 C 155 27 134 37 115 47 C 96 57 80 67 68 77 L 68 555 L 274 647 C 292 643 312 638 335 631 C 358 623 381 615 405 605 C 428 595 449 584 469 573 C 489 562 504 552 516 543 L 516 78 Z M 322 19 L 464 97 L 464 522 C 452 528 438 536 421 544 C 403 552 385 559 366 567 C 346 575 327 582 309 588 C 291 594 275 599 262 602 L 120 537 L 120 98 C 131 92 145 85 163 77 C 180 69 198 62 218 54 C 237 46 256 39 274 33 C 292 27 308 22 322 19 Z" unicode="" />
<glyph horiz-adv-x="389" d="M 313 639 L 249 554 L 202 536 C 196 538 189 540 182 543 C 175 546 168 549 161 553 C 154 556 147 560 141 564 C 134 568 128 572 122 576 L 81 643 L 122 671 L 155 603 L 222 575 L 274 664 C 277 663 280 662 284 660 C 288 658 291 656 295 654 C 299 652 302 649 305 647 C 308 644 311 641 313 639 Z M 333 88 L 207 -11 C 191 -7 176 -3 162 1 C 148 5 134 11 121 17 C 107 23 95 29 84 36 C 72 42 62 49 53 57 L 55 397 L 184 469 C 200 465 215 460 229 456 C 243 451 257 446 269 441 C 281 435 293 430 304 424 C 315 418 326 411 337 405 L 333 88 Z M 215 37 L 286 101 L 288 378 C 280 382 271 386 261 390 C 251 394 241 397 231 401 C 221 405 211 408 201 411 C 191 414 181 417 173 419 L 101 385 L 101 79 C 109 75 118 71 128 67 C 137 63 147 59 157 55 C 167 51 176 48 186 45 C 196 41 205 39 215 37 Z" unicode="" />
<glyph horiz-adv-x="587" d="M 380 735 L 344 750 L 461 859 C 465 857 469 855 474 852 C 479 848 484 844 488 840 C 492 836 496 831 499 827 C 502 822 504 818 506 815 L 380 735 Z M 197 735 L 162 750 L 278 859 C 282 857 286 855 291 852 C 296 848 301 844 305 840 C 309 836 313 831 316 827 C 319 822 321 818 323 815 L 197 735 Z M 516 78 L 310 -26 C 290 -22 268 -16 246 -8 C 223 0 200 7 178 17 C 155 27 134 37 115 47 C 96 57 80 67 68 77 L 68 555 L 274 647 C 292 643 312 638 335 631 C 358 623 381 615 405 605 C 428 595 449 584 469 573 C 489 562 504 552 516 543 L 516 78 Z M 322 19 L 464 97 L 464 522 C 452 528 438 536 421 544 C 403 552 385 559 366 567 C 346 575 327 582 309 588 C 291 594 275 599 262 602 L 120 537 L 120 98 C 131 92 145 85 163 77 C 180 69 198 62 218 54 C 237 46 256 39 274 33 C 292 27 308 22 322 19 Z" unicode="" />
<glyph horiz-adv-x="389" d="M 267 547 L 232 562 L 338 682 C 342 680 346 678 351 675 C 355 671 360 667 364 663 C 368 659 372 654 376 650 C 379 645 381 641 383 638 L 267 547 Z M 101 547 L 66 562 L 172 682 C 176 680 180 678 185 675 C 189 671 194 667 198 663 C 202 659 206 654 210 650 C 213 645 215 641 217 638 L 101 547 Z M 333 88 L 207 -11 C 191 -7 176 -3 162 1 C 148 5 134 11 121 17 C 107 23 95 29 84 36 C 72 42 62 49 53 57 L 55 397 L 184 469 C 200 465 215 460 229 456 C 243 451 257 446 269 441 C 281 435 293 430 304 424 C 315 418 326 411 337 405 L 333 88 Z M 215 37 L 286 101 L 288 378 C 280 382 271 386 261 390 C 251 394 241 397 231 401 C 221 405 211 408 201 411 C 191 414 181 417 173 419 L 101 385 L 101 79 C 109 75 118 71 128 67 C 137 63 147 59 157 55 C 167 51 176 48 186 45 C 196 41 205 39 215 37 Z" unicode="" />
<glyph horiz-adv-x="864" d="M 322 19 L 464 95 L 464 526 C 452 532 438 538 421 546 C 403 554 385 561 366 569 C 346 576 327 583 309 589 C 291 595 275 599 262 602 L 120 537 L 120 98 C 131 92 145 85 163 77 C 180 69 198 62 218 54 C 237 46 256 39 274 33 C 292 27 308 22 322 19 Z M 616 601 L 516 547 L 516 310 L 766 298 L 749 250 L 516 274 L 516 88 C 527 82 540 76 555 70 C 569 64 584 58 599 52 C 614 46 628 41 642 37 C 655 33 666 30 675 29 L 839 107 L 855 63 L 659 -20 C 643 -16 626 -12 609 -6 C 592 0 575 5 559 12 C 543 19 527 26 512 34 C 497 41 484 48 472 56 L 310 -26 C 290 -22 268 -16 246 -8 C 223 0 200 7 178 17 C 155 27 134 37 115 47 C 96 57 80 67 68 77 L 68 555 L 274 647 C 288 644 305 640 323 635 C 341 629 359 623 378 616 C 397 609 415 601 433 593 C 451 585 467 577 481 569 L 624 647 C 636 643 647 640 659 636 C 671 632 682 628 694 624 C 705 619 716 614 727 609 C 737 604 749 599 762 593 L 779 683 L 810 672 L 794 410 L 744 418 L 757 553 C 736 561 721 566 712 570 C 703 574 693 577 682 581 C 671 585 660 588 649 592 C 638 595 627 598 616 601 Z" unicode="" />
<glyph horiz-adv-x="595" d="M 333 120 L 333 84 C 341 79 349 74 358 70 C 366 65 375 61 384 57 C 393 53 402 49 410 46 C 418 42 427 39 436 36 L 554 124 L 581 88 L 431 -13 C 419 -9 406 -5 394 0 C 381 4 368 10 356 16 C 344 22 332 28 321 35 C 310 41 300 48 291 55 L 207 -11 C 191 -7 176 -3 162 1 C 148 5 134 11 121 17 C 107 23 95 29 84 36 C 72 42 62 49 53 57 L 55 397 L 184 469 C 198 465 212 461 225 457 C 238 453 250 448 262 444 C 273 439 284 434 294 429 C 304 424 314 419 324 413 L 424 471 C 432 468 441 464 453 460 C 464 455 476 449 488 443 C 500 437 512 430 524 424 C 535 417 544 411 552 405 L 520 232 L 333 120 Z M 409 421 L 335 378 L 334 157 L 479 249 L 502 382 C 496 385 489 388 481 392 C 473 396 465 399 457 403 C 449 406 441 409 434 412 C 426 414 418 417 409 421 Z M 215 37 L 286 94 L 288 378 C 280 382 271 386 261 390 C 251 394 241 397 231 401 C 221 405 211 408 201 411 C 191 414 181 417 173 419 L 101 385 L 101 79 C 109 75 118 71 128 67 C 137 63 147 59 157 55 C 167 51 176 48 186 45 C 196 41 205 39 215 37 Z" unicode="" />
<glyph horiz-adv-x="540" d="M 239 732 L 204 747 L 328 880 C 332 877 336 874 340 871 C 344 867 348 864 352 860 C 356 856 359 852 363 848 C 367 844 370 840 373 836 L 239 732 Z M 148 448 L 148 277 C 156 273 167 268 181 264 C 194 259 208 254 224 250 C 239 245 254 241 269 237 C 283 233 296 229 308 227 L 400 287 L 415 546 C 407 550 397 554 387 559 C 377 563 366 568 355 573 C 343 577 332 582 321 586 C 309 590 299 593 290 596 L 148 448 Z M 97 50 L 97 581 L 20 590 L 35 634 C 48 632 60 631 70 630 C 80 628 90 626 99 624 C 108 622 117 619 125 617 C 133 614 140 611 148 607 L 148 491 L 285 647 C 300 643 316 638 333 632 C 350 626 367 619 383 612 C 399 604 415 597 429 589 C 443 581 456 573 466 566 L 444 268 L 335 201 L 462 47 L 552 34 L 538 -10 C 524 -8 511 -6 499 -4 C 486 -2 474 0 463 3 C 451 5 441 8 432 11 C 423 14 416 17 410 20 L 276 188 C 266 190 255 192 244 196 C 232 199 221 203 210 207 C 198 211 187 214 177 218 C 166 222 156 226 148 230 L 148 44 L 251 33 L 235 -10 C 215 -9 195 -7 175 -5 C 155 -3 135 0 117 2 C 98 5 81 8 65 12 C 49 16 36 20 25 24 L 34 57 L 97 50 Z" unicode="" />
<glyph horiz-adv-x="260" d="M 153 528 L 118 538 L 218 698 C 222 695 227 692 231 689 C 235 685 239 682 243 678 C 247 674 250 671 253 667 C 256 663 259 658 263 654 L 153 528 Z M 230 36 L 214 -7 C 199 -5 183 -2 167 0 C 151 3 135 6 119 10 C 103 14 88 17 76 21 C 63 25 53 28 47 31 L 47 35 L 70 58 L 72 356 L 54 449 L 109 464 L 117 378 L 178 465 C 184 464 191 463 199 462 C 207 460 214 459 222 457 C 230 455 237 454 245 452 C 253 450 260 449 267 447 L 239 382 L 181 410 L 119 337 L 117 53 C 123 51 130 50 139 48 C 147 46 157 45 167 44 C 177 42 187 41 197 40 C 207 38 218 37 230 36 Z" unicode="" />
<glyph horiz-adv-x="540" d="M 148 448 L 148 277 C 156 273 167 268 181 264 C 194 259 208 254 224 250 C 239 245 254 241 269 237 C 283 233 296 229 308 227 L 400 287 L 415 546 C 407 550 397 554 387 559 C 377 563 366 568 355 573 C 343 577 332 582 321 586 C 309 590 299 593 290 596 L 148 448 Z M 97 50 L 97 581 L 20 590 L 35 634 C 48 632 60 631 70 630 C 80 628 90 626 99 624 C 108 622 117 619 125 617 C 133 614 140 611 148 607 L 148 491 L 285 647 C 300 643 316 638 333 632 C 350 626 367 619 383 612 C 399 604 415 597 429 589 C 443 581 456 573 466 566 L 444 268 L 335 201 L 462 47 L 552 34 L 538 -10 C 524 -8 511 -6 499 -4 C 486 -2 474 0 463 3 C 451 5 441 8 432 11 C 423 14 416 17 410 20 L 276 188 C 266 190 255 192 244 196 C 232 199 221 203 210 207 C 198 211 187 214 177 218 C 166 222 156 226 148 230 L 148 44 L 251 33 L 235 -10 C 215 -9 195 -7 175 -5 C 155 -3 135 0 117 2 C 98 5 81 8 65 12 C 49 16 36 20 25 24 L 34 57 L 97 50 Z M 349 -15 L 360 -106 L 321 -217 L 283 -206 L 311 -108 L 293 0 L 349 -15 Z" unicode="" />
<glyph horiz-adv-x="260" d="M 230 36 L 214 -7 C 199 -5 183 -2 167 0 C 151 3 135 6 119 10 C 103 14 88 17 76 21 C 63 25 53 28 47 31 L 47 35 L 70 58 L 72 356 L 54 449 L 109 464 L 117 378 L 178 465 C 184 464 191 463 199 462 C 207 460 214 459 222 457 C 230 455 237 454 245 452 C 253 450 260 449 267 447 L 239 382 L 181 410 L 119 337 L 117 53 C 123 51 130 50 139 48 C 147 46 157 45 167 44 C 177 42 187 41 197 40 C 207 38 218 37 230 36 Z M 150 -51 L 161 -141 L 123 -252 L 84 -241 L 113 -143 L 94 -35 L 150 -51 Z" unicode="" />
<glyph horiz-adv-x="540" d="M 377 842 L 277 768 L 231 749 C 222 754 213 760 204 767 C 194 773 185 780 175 788 C 165 796 156 804 148 812 C 139 820 131 827 125 834 L 156 867 C 164 859 172 852 180 845 C 188 837 196 830 204 824 C 212 818 220 812 228 806 C 236 800 243 795 251 791 L 338 867 C 341 865 344 864 348 862 C 352 860 355 857 358 855 C 361 853 364 851 367 849 C 369 847 373 845 377 842 Z M 148 448 L 148 277 C 156 273 167 268 181 264 C 194 259 208 254 224 250 C 239 245 254 241 269 237 C 283 233 296 229 308 227 L 400 287 L 415 546 C 407 550 397 554 387 559 C 377 563 366 568 355 573 C 343 577 332 582 321 586 C 309 590 299 593 290 596 L 148 448 Z M 97 50 L 97 581 L 20 590 L 35 634 C 48 632 60 631 70 630 C 80 628 90 626 99 624 C 108 622 117 619 125 617 C 133 614 140 611 148 607 L 148 491 L 285 647 C 300 643 316 638 333 632 C 350 626 367 619 383 612 C 399 604 415 597 429 589 C 443 581 456 573 466 566 L 444 268 L 335 201 L 462 47 L 552 34 L 538 -10 C 524 -8 511 -6 499 -4 C 486 -2 474 0 463 3 C 451 5 441 8 432 11 C 423 14 416 17 410 20 L 276 188 C 266 190 255 192 244 196 C 232 199 221 203 210 207 C 198 211 187 214 177 218 C 166 222 156 226 148 230 L 148 44 L 251 33 L 235 -10 C 215 -9 195 -7 175 -5 C 155 -3 135 0 117 2 C 98 5 81 8 65 12 C 49 16 36 20 25 24 L 34 57 L 97 50 Z" unicode="" />
<glyph horiz-adv-x="260" d="M 282 639 L 182 554 L 136 536 C 128 541 119 548 109 556 C 99 564 89 572 79 581 C 69 590 60 599 52 608 C 43 616 36 624 30 631 L 61 664 C 69 655 78 647 86 639 C 94 631 103 623 111 615 C 119 607 126 600 134 594 C 141 588 148 582 155 577 L 242 664 C 246 662 249 661 253 659 C 256 657 259 656 263 654 C 266 652 269 649 272 647 C 275 644 278 641 282 639 Z M 230 36 L 214 -7 C 199 -5 183 -2 167 0 C 151 3 135 6 119 10 C 103 14 88 17 76 21 C 63 25 53 28 47 31 L 47 35 L 70 58 L 72 356 L 54 449 L 109 464 L 117 378 L 178 465 C 184 464 191 463 199 462 C 207 460 214 459 222 457 C 230 455 237 454 245 452 C 253 450 260 449 267 447 L 239 382 L 181 410 L 119 337 L 117 53 C 123 51 130 50 139 48 C 147 46 157 45 167 44 C 177 42 187 41 197 40 C 207 38 218 37 230 36 Z" unicode="" />
<glyph horiz-adv-x="483" d="M 227 732 L 191 747 L 316 880 C 320 877 324 874 328 871 C 332 867 336 864 340 860 C 344 856 347 852 351 848 C 355 844 358 840 361 836 L 227 732 Z M 394 161 L 129 355 L 92 91 C 108 83 123 75 139 67 C 154 59 169 53 184 47 C 198 41 212 35 225 31 C 237 26 249 22 260 20 L 385 68 L 394 161 Z M 429 50 L 251 -28 C 240 -25 228 -21 215 -17 C 201 -12 187 -7 173 -1 C 158 4 143 10 128 17 C 112 24 98 31 84 38 L 70 -40 L 36 -31 L 81 372 L 116 377 L 81 566 L 229 647 C 241 644 254 641 267 638 C 279 634 292 631 304 627 C 316 623 327 618 339 614 C 351 610 362 605 374 601 L 389 683 L 420 672 L 404 375 L 355 383 L 369 555 C 357 559 345 564 333 568 C 321 572 308 575 296 579 C 283 583 270 586 258 589 C 246 592 234 595 222 597 L 131 553 L 164 394 L 444 186 L 429 50 Z" unicode="" />
<glyph horiz-adv-x="323" d="M 165 528 L 130 538 L 230 698 C 234 695 239 692 243 689 C 247 685 251 682 255 678 C 259 674 262 671 265 667 C 268 663 271 658 275 654 L 165 528 Z M 278 428 L 253 378 C 247 382 241 386 233 391 C 225 396 217 401 209 406 C 200 411 191 416 183 420 C 174 424 166 428 159 431 L 114 397 L 144 290 L 298 129 L 290 48 L 186 -18 C 170 -14 155 -9 140 -4 C 125 0 111 6 98 12 C 84 18 72 24 61 31 C 49 38 40 45 32 52 L 65 260 L 101 269 L 67 405 L 163 475 C 172 473 182 470 192 467 C 202 463 212 459 222 455 C 232 451 242 446 252 442 C 261 437 270 432 278 428 Z M 250 108 L 112 248 L 78 79 C 86 74 95 69 105 64 C 115 59 126 54 138 50 C 149 45 160 41 170 38 C 180 34 189 32 197 30 L 248 64 L 250 108 Z" unicode="" />
</font>
</defs>
</svg>
