<?xml version="1.0" encoding="utf-8" ?><svg version="1.1" xmlns = 'http://www.w3.org/2000/svg'><defs><font id='web' horiz-adv-x="1000">
<font-face font-family="web" descent="-395" cap-height="1434" units-per-em="2048" bbox="-276,-432,2457,1863" x-height="1075" ascent="1487" />
<missing-glyph horiz-adv-x="463" d="" /><glyph horiz-adv-x="463" d="" unicode=" " />
<glyph horiz-adv-x="543" d="M 408 745 L 313 430 L 135 430 L 152 745 L 272 1434 L 528 1434 L 408 745 Z M 340 147 C 340 123 335 101 326 81 C 317 61 305 43 289 27 C 273 11 255 0 235 -9 C 214 -18 192 -23 170 -23 C 146 -23 124 -18 104 -9 C 84 0 66 11 50 27 C 34 43 22 61 13 81 C 4 101 0 123 0 147 C 0 170 4 192 13 213 C 22 233 34 251 50 267 C 66 282 84 294 104 303 C 124 312 146 317 170 317 C 192 317 214 312 235 303 C 255 294 273 282 289 267 C 305 251 317 233 326 213 C 335 192 340 170 340 147 Z" unicode="!" />
<glyph horiz-adv-x="944" d="M 954 1434 L 772 764 L 608 764 L 659 1434 L 954 1434 Z M 522 1434 L 340 764 L 176 764 L 227 1434 L 522 1434 Z" unicode="&#x22;" />
<glyph horiz-adv-x="1352" d="M 1176 287 L 971 287 L 920 0 L 678 0 L 729 287 L 455 287 L 403 0 L 162 0 L 213 287 L 8 287 L 47 508 L 252 508 L 326 926 L 121 926 L 160 1147 L 365 1147 L 414 1434 L 655 1434 L 606 1147 L 881 1147 L 930 1434 L 1171 1434 L 1122 1147 L 1327 1147 L 1288 926 L 1083 926 L 1010 508 L 1214 508 L 1176 287 Z M 768 508 L 842 926 L 567 926 L 494 508 L 768 508 Z" unicode="#" />
<glyph horiz-adv-x="965" d="M 514 14 L 483 -164 L 225 -164 L 258 14 C 226 22 196 33 169 47 C 141 61 116 78 93 96 C 69 114 48 134 30 156 C 12 177 -4 199 -18 223 L 186 399 C 216 345 252 305 294 277 C 336 249 378 236 422 236 C 480 236 526 252 560 284 C 594 316 612 360 612 416 C 612 432 609 449 603 465 C 597 481 587 497 573 513 C 559 529 540 546 517 564 C 494 582 466 601 432 621 C 389 645 351 670 317 696 C 283 721 255 748 232 777 C 208 806 190 838 178 872 C 166 906 160 945 160 989 C 160 1045 168 1096 185 1143 C 201 1190 225 1232 255 1268 C 285 1304 322 1335 364 1361 C 406 1387 453 1406 504 1419 L 537 1597 L 795 1597 L 762 1419 C 813 1405 856 1383 892 1351 C 928 1319 960 1279 989 1231 L 791 1071 C 776 1093 762 1113 748 1129 C 734 1145 719 1159 703 1169 C 687 1179 670 1186 651 1191 C 632 1195 610 1198 586 1198 C 540 1198 501 1184 471 1158 C 441 1132 426 1093 426 1042 C 426 1025 428 1009 434 995 C 440 980 449 965 462 951 C 474 936 491 921 512 905 C 533 889 559 872 590 854 C 638 825 680 797 716 771 C 752 745 781 717 805 689 C 829 660 847 629 859 595 C 871 561 877 521 877 477 C 877 415 868 359 851 309 C 834 259 810 214 778 175 C 746 136 708 103 664 76 C 619 49 569 28 514 14 Z" unicode="$" />
<glyph horiz-adv-x="1763" d="M 371 565 C 279 565 210 594 163 653 C 115 712 92 794 94 899 C 94 977 104 1051 122 1119 C 140 1187 165 1246 198 1296 C 231 1346 271 1385 319 1413 C 367 1441 421 1456 483 1456 C 529 1456 570 1448 606 1433 C 641 1418 670 1396 694 1368 C 718 1339 735 1304 747 1264 C 759 1223 764 1177 764 1126 C 763 1048 754 974 736 906 C 718 838 692 778 658 728 C 624 677 583 637 535 608 C 487 579 432 565 371 565 Z M 1458 1434 L 520 0 L 313 0 L 1251 1434 L 1458 1434 Z M 1288 -23 C 1196 -23 1127 6 1080 65 C 1033 124 1010 206 1012 311 C 1012 389 1021 463 1039 531 C 1057 599 1082 658 1115 708 C 1148 758 1189 797 1237 825 C 1285 853 1339 868 1401 868 C 1447 868 1488 860 1523 845 C 1558 830 1587 808 1611 780 C 1635 751 1652 716 1664 676 C 1676 635 1681 589 1681 539 C 1680 460 1671 386 1653 318 C 1635 250 1609 190 1576 140 C 1542 89 1501 49 1453 20 C 1404 -8 1349 -23 1288 -23 Z M 557 1126 C 558 1174 551 1210 536 1235 C 521 1259 497 1272 463 1272 C 433 1272 409 1261 389 1240 C 369 1218 352 1190 340 1154 C 327 1118 317 1078 311 1032 C 305 986 301 938 301 889 C 299 843 306 808 320 784 C 334 760 359 748 393 748 C 423 748 448 759 468 783 C 488 807 505 837 518 874 C 530 910 540 951 546 996 C 552 1040 555 1084 557 1126 Z M 1475 539 C 1476 586 1469 622 1454 647 C 1438 671 1414 684 1380 684 C 1350 684 1326 673 1306 652 C 1286 630 1269 602 1257 567 C 1245 531 1235 491 1229 445 C 1223 399 1219 351 1219 301 C 1217 255 1224 220 1238 196 C 1252 172 1277 160 1311 160 C 1341 160 1366 171 1386 195 C 1406 219 1423 249 1436 286 C 1448 323 1458 364 1464 409 C 1470 453 1473 497 1475 539 Z" unicode="%" />
<glyph horiz-adv-x="1110" d="M 997 0 L 723 0 L 672 102 C 623 62 572 31 520 9 C 468 -12 414 -23 358 -23 C 302 -23 253 -14 212 3 C 170 20 136 43 109 73 C 82 102 62 136 49 175 C 35 214 29 255 29 299 C 29 340 35 382 49 426 C 62 469 82 511 108 552 C 134 593 166 632 205 668 C 243 704 288 736 338 764 L 301 838 C 284 870 270 906 260 944 C 249 982 244 1021 244 1061 C 244 1129 256 1188 280 1238 C 304 1288 337 1329 377 1362 C 417 1394 462 1418 514 1434 C 566 1450 619 1458 674 1458 C 736 1458 798 1447 859 1426 C 920 1404 974 1374 1020 1335 L 864 1126 C 848 1140 831 1153 813 1165 C 794 1176 775 1186 756 1194 C 736 1202 717 1208 698 1212 C 679 1216 662 1219 647 1219 C 627 1219 609 1216 591 1210 C 573 1204 558 1196 545 1185 C 531 1173 521 1159 513 1142 C 505 1124 502 1104 502 1081 C 502 1056 505 1032 513 1009 C 521 985 531 960 545 934 L 743 522 C 759 555 775 587 789 619 C 803 650 817 685 831 725 L 1010 639 C 987 576 962 517 936 461 C 909 405 880 354 848 307 L 997 0 Z M 580 287 L 428 584 C 382 554 345 518 319 478 C 292 438 279 395 279 350 C 279 306 289 273 311 249 C 332 225 364 213 406 213 C 442 213 474 219 500 231 C 526 243 552 261 580 287 Z" unicode="&#x26;" />
<glyph horiz-adv-x="512" d="M 522 1434 L 340 764 L 176 764 L 227 1434 L 522 1434 Z" unicode="'" />
<glyph horiz-adv-x="666" d="M 485 -117 L 326 -223 C 292 -185 261 -142 232 -96 C 203 -49 178 0 156 54 C 134 107 117 164 105 224 C 92 284 86 348 86 414 C 86 522 99 627 127 727 C 155 827 193 921 241 1010 C 289 1099 346 1182 411 1258 C 476 1334 546 1404 621 1466 L 745 1358 C 686 1299 632 1233 584 1161 C 535 1088 493 1010 458 927 C 423 844 396 757 377 665 C 357 573 348 478 348 381 C 348 277 360 185 385 105 C 409 24 443 -49 485 -117 Z" unicode="(" />
<glyph horiz-adv-x="666" d="M 20 -225 L -104 -117 C -44 -57 10 10 59 84 C 108 158 150 236 185 320 C 219 403 246 490 265 581 C 283 671 293 764 293 858 C 293 910 289 959 283 1005 C 277 1051 268 1094 256 1135 C 244 1175 229 1214 212 1251 C 195 1288 176 1324 156 1358 L 317 1466 C 351 1428 382 1385 411 1339 C 439 1293 464 1243 485 1189 C 506 1135 523 1077 535 1017 C 547 956 553 892 553 825 C 553 714 539 609 511 509 C 483 409 445 315 397 227 C 349 139 292 57 228 -18 C 163 -94 94 -163 20 -225 Z" unicode=")" />
<glyph horiz-adv-x="901" d="M 918 909 L 819 741 L 596 891 L 616 623 L 420 623 L 438 895 L 213 743 L 119 909 L 379 1028 L 119 1147 L 213 1315 L 438 1163 L 420 1434 L 616 1434 L 596 1165 L 819 1317 L 918 1149 L 653 1030 L 918 909 Z" unicode="*" />
<glyph horiz-adv-x="1051" d="M 979 588 L 647 588 L 647 223 L 403 223 L 403 588 L 72 588 L 72 821 L 403 821 L 403 1186 L 647 1186 L 647 821 L 979 821 L 979 588 Z" unicode="+" />
<glyph horiz-adv-x="504" d="M 344 301 L 98 -229 L -70 -229 L 51 301 L 344 301 Z" unicode="," />
<glyph horiz-adv-x="707" d="M 582 618 L 59 618 L 104 868 L 627 868 L 582 618 Z" unicode="-" />
<glyph horiz-adv-x="504" d="M 152 317 C 175 317 197 312 218 304 C 238 295 256 283 272 268 C 287 252 299 234 308 214 C 317 193 322 171 322 147 C 322 123 317 101 308 81 C 299 60 287 42 272 27 C 256 11 238 0 218 -9 C 197 -18 175 -23 152 -23 C 128 -23 105 -18 85 -9 C 64 0 46 11 31 27 C 15 42 3 60 -5 81 C -13 101 -18 123 -18 147 C -18 171 -13 193 -5 214 C 3 234 15 252 31 268 C 46 283 64 295 85 304 C 105 312 128 317 152 317 Z" unicode="." />
<glyph horiz-adv-x="827" d="M 983 1618 L 100 -184 L -156 -184 L 727 1618 L 983 1618 Z" unicode="/" />
<glyph horiz-adv-x="1071" d="M 436 -23 C 369 -23 312 -10 265 14 C 218 38 180 73 150 117 C 120 161 98 213 85 274 C 71 335 65 402 66 475 C 66 555 70 634 80 714 C 90 793 105 869 125 942 C 145 1014 170 1082 200 1145 C 230 1207 267 1262 309 1308 C 351 1354 399 1390 453 1416 C 507 1442 568 1456 635 1456 C 701 1456 757 1443 805 1419 C 852 1394 891 1359 921 1315 C 951 1270 972 1217 986 1156 C 1000 1094 1006 1027 1006 954 C 1004 876 999 797 989 719 C 979 640 963 564 943 492 C 923 420 897 352 867 290 C 837 227 801 172 759 126 C 717 80 669 43 615 17 C 561 -9 502 -23 436 -23 Z M 745 950 C 748 1120 700 1206 602 1206 C 572 1206 545 1197 520 1179 C 495 1161 473 1135 453 1103 C 433 1070 415 1031 399 987 C 383 942 370 893 360 839 C 349 785 341 729 335 669 C 329 609 326 547 326 485 C 324 399 336 335 360 292 C 384 248 421 227 471 227 C 513 227 551 246 585 285 C 619 324 647 377 670 443 C 693 509 711 586 724 674 C 736 761 743 853 745 950 Z" unicode="0" />
<glyph horiz-adv-x="645" d="M 360 0 L 104 0 L 293 1067 L 98 1067 L 127 1227 C 163 1230 194 1238 222 1250 C 250 1262 274 1277 296 1295 C 317 1313 335 1334 351 1358 C 367 1382 381 1407 393 1434 L 612 1434 L 360 0 Z" unicode="1" />
<glyph horiz-adv-x="1024" d="M 811 0 L -10 0 C 12 103 38 193 69 271 C 99 349 135 418 177 479 C 219 539 267 594 321 642 C 375 690 436 736 506 782 C 550 810 586 836 615 859 C 644 882 667 904 684 925 C 701 946 713 967 720 988 C 727 1009 731 1032 731 1057 C 731 1103 718 1138 693 1163 C 667 1187 634 1200 592 1200 C 546 1200 501 1187 459 1162 C 417 1137 378 1107 342 1071 L 215 1257 C 275 1317 339 1366 409 1402 C 478 1438 553 1456 635 1456 C 753 1456 842 1426 903 1366 C 964 1306 995 1220 995 1108 C 995 1044 985 989 966 941 C 946 893 920 849 888 811 C 855 773 817 738 774 706 C 730 674 685 643 637 612 C 589 581 547 551 512 523 C 477 494 447 465 422 437 C 397 408 377 378 361 348 C 345 317 332 284 324 250 L 856 250 L 811 0 Z" unicode="2" />
<glyph horiz-adv-x="1040" d="M 393 -23 C 297 -23 212 -1 140 40 C 67 82 11 149 -29 240 L 199 383 C 227 326 260 286 298 263 C 335 240 378 229 426 229 C 458 229 487 234 514 244 C 541 254 564 270 584 290 C 604 310 619 334 630 363 C 641 392 647 425 647 463 C 647 521 629 564 594 591 C 559 617 511 631 451 631 L 352 631 L 397 879 L 498 879 C 566 879 618 895 656 927 C 694 959 713 1008 713 1073 C 713 1111 701 1142 679 1166 C 656 1190 621 1202 573 1202 C 534 1202 496 1193 460 1176 C 424 1159 386 1132 346 1096 L 203 1270 C 228 1296 255 1321 285 1344 C 315 1367 347 1387 382 1403 C 416 1419 453 1432 492 1442 C 531 1451 573 1456 618 1456 C 675 1456 726 1447 771 1431 C 815 1414 853 1391 883 1361 C 913 1331 937 1295 953 1253 C 969 1211 977 1166 977 1116 C 977 1066 970 1023 956 985 C 942 947 924 914 901 886 C 877 858 850 834 819 815 C 788 795 755 780 721 768 C 747 760 771 748 794 734 C 816 720 836 701 853 679 C 869 656 882 629 892 599 C 902 569 907 534 907 494 C 907 416 893 345 867 281 C 840 217 803 163 757 118 C 711 73 656 38 594 14 C 532 -10 465 -23 393 -23 Z" unicode="3" />
<glyph horiz-adv-x="1044" d="M 938 293 L 791 293 L 739 0 L 500 0 L 551 293 L -10 293 L 27 496 L 719 1434 L 991 1434 L 829 512 L 977 512 L 938 293 Z M 702 1098 C 686 1070 667 1038 644 1003 C 621 967 594 928 563 885 L 414 676 C 404 662 393 647 382 632 C 371 617 360 602 349 588 C 338 574 327 560 317 546 C 307 532 297 520 289 510 C 309 510 334 510 364 511 C 394 511 425 512 457 512 L 590 512 L 651 858 C 655 884 660 908 664 930 C 668 952 673 972 677 991 C 681 1010 686 1028 690 1046 C 694 1063 698 1080 702 1098 Z" unicode="4" />
<glyph horiz-adv-x="1018" d="M 365 -23 C 327 -23 289 -19 252 -13 C 214 -6 179 3 145 16 C 111 29 79 45 49 65 C 19 85 -6 107 -29 133 L 150 328 C 189 292 228 267 268 252 C 307 236 351 229 401 229 C 441 229 478 236 510 251 C 542 265 568 286 590 312 C 612 338 628 369 640 405 C 651 441 657 480 657 524 C 657 576 644 616 620 642 C 596 668 561 682 516 682 C 485 682 454 675 423 661 C 391 647 360 627 330 602 L 137 700 L 301 1434 L 1008 1434 L 965 1186 L 485 1186 L 412 872 C 426 880 440 887 455 894 C 469 900 485 906 502 911 C 518 915 536 919 556 922 C 575 924 597 926 621 926 C 715 926 788 895 841 834 C 893 773 920 683 920 563 C 920 469 906 386 878 314 C 850 241 811 180 761 130 C 711 80 653 42 585 16 C 517 -10 444 -23 365 -23 Z" unicode="5" />
<glyph horiz-adv-x="1049" d="M 930 1456 L 895 1200 C 819 1196 753 1182 695 1158 C 637 1134 587 1105 545 1070 C 502 1034 466 994 437 950 C 408 906 385 861 367 817 C 403 852 441 878 481 896 C 521 913 566 922 618 922 C 660 922 702 914 742 899 C 782 883 819 860 851 830 C 883 799 908 761 928 716 C 947 670 957 617 958 557 C 958 468 946 388 920 317 C 894 245 857 184 811 134 C 765 84 710 45 648 18 C 585 -9 518 -23 446 -23 C 390 -23 338 -14 291 4 C 243 22 202 50 168 88 C 134 126 107 174 88 232 C 69 290 60 360 61 440 C 61 516 68 594 83 672 C 98 750 121 825 152 898 C 183 970 222 1039 269 1103 C 315 1167 371 1224 435 1274 C 499 1324 573 1364 655 1396 C 737 1428 829 1448 930 1456 Z M 309 406 C 309 378 312 353 318 330 C 324 306 334 286 348 269 C 362 252 380 239 402 229 C 424 219 451 215 483 215 C 519 215 550 223 578 241 C 606 259 629 282 648 310 C 666 338 680 370 690 406 C 700 442 705 478 705 514 C 705 568 691 611 664 644 C 637 677 597 694 543 694 C 501 694 465 685 435 669 C 405 653 381 631 363 605 C 344 578 330 547 322 513 C 313 478 309 442 309 406 Z" unicode="6" />
<glyph horiz-adv-x="940" d="M 926 1178 C 854 1101 789 1020 731 936 C 673 852 622 761 578 665 C 533 569 494 466 462 356 C 429 246 401 127 379 0 L 133 0 C 175 238 239 457 327 656 C 415 854 527 1034 664 1196 L 119 1196 L 160 1434 L 971 1434 L 926 1178 Z" unicode="7" />
<glyph horiz-adv-x="1061" d="M 438 -23 C 372 -23 315 -13 266 5 C 217 24 176 50 143 84 C 109 118 84 158 68 205 C 51 251 43 302 43 358 C 43 416 50 467 65 513 C 80 559 100 599 125 633 C 149 667 177 696 208 720 C 238 743 269 761 301 774 C 285 786 270 800 256 818 C 242 836 230 855 220 877 C 210 898 202 921 196 945 C 190 969 188 993 188 1018 C 188 1082 198 1142 220 1196 C 241 1250 271 1296 310 1334 C 348 1372 395 1402 450 1424 C 504 1445 565 1456 633 1456 C 691 1456 741 1447 785 1430 C 829 1413 865 1389 894 1359 C 923 1329 945 1292 959 1250 C 973 1208 981 1162 981 1112 C 981 1070 976 1031 966 996 C 956 960 943 928 926 900 C 908 872 888 847 865 826 C 841 805 816 788 788 774 C 808 763 828 749 848 733 C 867 716 884 696 899 673 C 914 650 926 624 935 594 C 943 564 948 531 948 494 C 948 420 936 352 914 289 C 891 226 858 171 815 125 C 771 79 718 42 655 16 C 591 -9 519 -23 438 -23 Z M 745 1085 C 745 1105 742 1123 737 1140 C 732 1157 724 1172 713 1185 C 702 1197 688 1207 671 1214 C 653 1221 632 1225 608 1225 C 575 1225 547 1219 523 1207 C 499 1195 480 1180 465 1161 C 450 1142 439 1120 432 1096 C 425 1071 422 1046 422 1020 C 422 978 434 942 458 914 C 482 886 517 872 563 872 C 591 872 617 877 640 889 C 662 901 681 916 697 936 C 712 956 724 978 732 1004 C 740 1030 745 1057 745 1085 Z M 700 463 C 700 517 684 560 653 592 C 621 624 576 641 518 641 C 483 641 452 634 424 622 C 396 610 372 593 352 571 C 332 549 317 523 307 493 C 296 463 291 431 291 397 C 291 370 294 345 302 323 C 310 300 321 280 336 264 C 351 247 370 234 392 225 C 414 215 439 211 469 211 C 503 211 535 217 563 231 C 591 244 616 262 636 285 C 656 307 672 334 683 365 C 694 395 700 428 700 463 Z" unicode="8" />
<glyph horiz-adv-x="1049" d="M 131 -23 L 166 233 C 241 237 307 250 365 274 C 423 298 473 327 516 363 C 558 399 594 438 623 482 C 652 526 676 570 694 616 C 658 581 620 555 580 538 C 540 520 494 512 442 512 C 398 512 356 519 315 535 C 274 550 238 573 206 603 C 174 633 149 671 130 717 C 111 763 102 816 102 877 C 102 965 115 1045 141 1117 C 167 1189 204 1250 250 1300 C 296 1350 350 1388 412 1415 C 474 1442 542 1456 614 1456 C 670 1456 722 1447 770 1429 C 817 1411 858 1383 892 1346 C 926 1308 952 1260 971 1202 C 990 1143 999 1073 999 993 C 998 913 990 833 974 754 C 958 674 935 598 903 525 C 871 452 832 384 784 320 C 736 256 680 200 616 152 C 552 104 479 64 398 34 C 317 3 228 -15 131 -23 Z M 752 1028 C 752 1055 748 1080 742 1104 C 736 1127 726 1147 712 1164 C 698 1181 681 1194 659 1204 C 637 1214 610 1219 578 1219 C 542 1219 510 1210 482 1192 C 454 1174 431 1150 413 1122 C 394 1094 380 1062 370 1026 C 360 990 356 955 356 920 C 356 894 359 869 366 847 C 373 825 384 806 398 790 C 412 774 429 761 450 752 C 470 743 494 739 522 739 C 564 739 599 747 629 763 C 658 779 682 800 700 827 C 718 854 731 885 739 920 C 747 954 752 990 752 1028 Z" unicode="9" />
<glyph horiz-adv-x="504" d="M 459 926 C 459 902 454 880 445 860 C 436 840 424 822 408 806 C 392 790 374 778 354 769 C 333 760 311 756 289 756 C 265 756 243 760 223 769 C 203 778 185 790 169 806 C 153 822 141 840 132 860 C 123 880 119 902 119 926 C 119 948 123 970 132 991 C 141 1011 153 1029 169 1045 C 185 1061 203 1073 223 1082 C 243 1091 265 1096 289 1096 C 311 1096 333 1091 354 1082 C 374 1073 392 1061 408 1045 C 424 1029 436 1011 445 991 C 454 970 459 948 459 926 Z M 322 147 C 322 123 317 101 308 81 C 299 61 287 43 271 27 C 255 11 237 0 217 -9 C 196 -18 174 -23 152 -23 C 128 -23 106 -18 86 -9 C 65 0 47 11 32 27 C 16 43 4 61 -4 81 C -13 101 -18 123 -18 147 C -18 170 -13 192 -4 213 C 4 233 16 251 32 267 C 47 282 65 294 86 303 C 106 312 128 317 152 317 C 174 317 196 312 217 303 C 237 294 255 282 271 267 C 287 251 299 233 308 213 C 317 192 322 170 322 147 Z" unicode=":" />
<glyph horiz-adv-x="504" d="M 459 926 C 459 902 454 880 445 860 C 436 840 424 822 408 806 C 392 790 374 778 354 769 C 333 760 311 756 289 756 C 265 756 243 760 223 769 C 203 778 185 790 169 806 C 153 822 141 840 132 860 C 123 880 119 902 119 926 C 119 948 123 970 132 991 C 141 1011 153 1029 169 1045 C 185 1061 203 1073 223 1082 C 243 1091 265 1096 289 1096 C 311 1096 333 1091 354 1082 C 374 1073 392 1061 408 1045 C 424 1029 436 1011 445 991 C 454 970 459 948 459 926 Z M 344 301 L 98 -229 L -70 -229 L 51 301 L 344 301 Z" unicode=";" />
<glyph horiz-adv-x="840" d="M 723 57 L 86 608 L 86 801 L 723 1352 L 723 1026 L 334 707 L 723 385 L 723 57 Z" unicode="&#x3C;" />
<glyph horiz-adv-x="1071" d="M 948 815 L 123 815 L 123 1071 L 948 1071 L 948 815 Z M 948 338 L 123 338 L 123 594 L 948 594 L 948 338 Z" unicode="=" />
<glyph horiz-adv-x="840" d="M 754 608 L 117 57 L 117 383 L 506 702 L 117 1024 L 117 1352 L 754 801 L 754 608 Z" unicode="&#x3E;" />
<glyph horiz-adv-x="909" d="M 655 723 C 631 705 609 687 591 668 C 572 649 555 628 541 605 C 527 581 514 555 504 527 C 494 498 485 466 479 430 L 238 430 C 247 486 259 535 274 578 C 288 621 307 661 330 697 C 353 733 382 766 416 798 C 450 829 491 861 539 895 C 571 917 598 945 620 977 C 642 1009 653 1042 653 1077 C 653 1115 641 1145 619 1169 C 596 1192 559 1204 508 1204 C 464 1204 420 1191 377 1166 C 333 1141 290 1106 246 1061 L 104 1223 C 134 1258 165 1290 199 1319 C 233 1347 269 1372 307 1392 C 345 1412 385 1428 429 1439 C 472 1450 519 1456 569 1456 C 621 1456 668 1449 711 1435 C 753 1421 790 1401 820 1375 C 850 1348 874 1315 890 1276 C 906 1236 915 1191 915 1139 C 915 1089 908 1044 895 1004 C 881 964 863 928 840 895 C 817 862 790 832 758 804 C 726 776 691 749 655 723 Z M 479 147 C 479 123 474 101 465 81 C 456 61 444 43 428 27 C 412 11 394 0 374 -9 C 353 -18 331 -23 309 -23 C 285 -23 263 -18 243 -9 C 223 0 205 11 189 27 C 173 43 161 61 152 81 C 143 101 139 123 139 147 C 139 170 143 192 152 213 C 161 233 173 251 189 267 C 205 282 223 294 243 303 C 263 312 285 317 309 317 C 331 317 353 312 374 303 C 394 294 412 282 428 267 C 444 251 456 233 465 213 C 474 192 479 170 479 147 Z" unicode="?" />
<glyph horiz-adv-x="1303" d="M 1221 758 C 1221 694 1217 635 1209 581 C 1201 527 1187 480 1168 440 C 1149 400 1124 368 1093 345 C 1062 322 1024 311 979 311 C 939 311 904 321 874 342 C 844 362 824 388 813 420 C 802 404 789 388 775 374 C 761 360 745 347 728 337 C 710 327 692 318 672 312 C 652 306 631 303 610 303 C 578 303 547 307 517 317 C 487 327 460 343 436 365 C 412 387 393 417 379 454 C 365 490 358 536 358 590 C 358 636 364 677 378 712 C 392 747 410 776 432 800 C 454 824 480 842 510 854 C 539 866 570 872 602 872 C 628 872 654 868 680 861 C 706 854 729 845 750 834 L 750 913 C 750 949 740 974 721 990 C 702 1006 673 1014 633 1014 C 607 1014 581 1008 554 998 C 527 988 502 973 479 954 L 418 1081 C 454 1109 491 1129 530 1142 C 569 1154 607 1161 645 1161 C 729 1161 794 1139 840 1097 C 886 1055 909 989 909 901 L 909 545 C 909 511 914 483 925 462 C 935 440 955 430 985 430 C 1026 430 1056 457 1075 512 C 1094 566 1104 650 1104 762 C 1104 856 1093 939 1071 1011 C 1049 1083 1018 1143 979 1191 C 939 1239 892 1276 837 1300 C 781 1324 721 1337 655 1337 C 587 1337 525 1322 469 1293 C 413 1263 366 1222 327 1168 C 287 1114 257 1050 235 974 C 213 898 203 814 203 721 C 203 619 213 530 235 452 C 256 374 286 309 326 257 C 365 204 412 164 468 137 C 524 109 586 96 655 96 C 689 96 722 99 756 106 C 789 112 824 126 862 147 L 907 51 C 865 24 823 5 781 -6 C 739 -17 696 -23 651 -23 C 565 -23 488 -6 418 25 C 348 57 288 105 238 168 C 188 230 150 308 123 400 C 95 492 82 597 82 717 C 82 829 96 930 125 1021 C 154 1112 194 1190 246 1254 C 297 1318 357 1368 427 1403 C 497 1438 573 1456 655 1456 C 739 1456 815 1439 885 1407 C 954 1375 1014 1329 1064 1269 C 1114 1209 1152 1135 1180 1049 C 1207 963 1221 866 1221 758 Z M 750 555 L 750 674 C 736 689 720 702 701 712 C 681 722 657 727 627 727 C 609 727 593 723 580 717 C 566 710 555 701 546 690 C 537 678 530 665 526 650 C 522 634 520 618 520 602 C 520 580 521 561 525 543 C 528 525 534 509 542 496 C 550 483 561 473 575 466 C 589 458 606 455 627 455 C 652 455 676 464 698 482 C 720 500 737 524 750 555 Z" unicode="@" />
<glyph horiz-adv-x="1057" d="M 887 0 L 623 0 L 608 299 L 287 299 L 166 0 L -96 0 L 522 1434 L 772 1434 L 887 0 Z M 594 539 L 586 709 C 584 736 583 766 582 799 C 581 832 580 865 580 897 C 579 929 579 959 579 987 C 579 1015 579 1039 580 1057 C 574 1038 566 1015 556 988 C 546 960 536 931 524 900 C 512 868 500 836 488 804 C 476 772 464 741 453 713 L 383 539 L 594 539 Z" unicode="A" />
<glyph horiz-adv-x="1071" d="M 395 0 L 23 0 L 274 1434 L 662 1434 C 720 1434 772 1426 817 1412 C 862 1397 900 1376 931 1349 C 961 1321 984 1288 1000 1249 C 1016 1210 1024 1166 1024 1118 C 1024 1036 1004 965 965 904 C 925 843 869 798 795 770 C 842 750 880 719 909 675 C 937 631 952 574 952 506 C 952 424 938 352 911 290 C 884 227 846 174 797 131 C 748 88 689 55 621 33 C 553 11 477 0 395 0 Z M 768 1075 C 768 1113 757 1143 736 1165 C 714 1187 677 1198 623 1198 L 483 1198 L 428 885 L 573 885 C 609 885 639 890 664 900 C 688 910 708 924 724 942 C 740 960 751 980 758 1003 C 764 1025 768 1049 768 1075 Z M 698 494 C 698 549 683 590 655 616 C 627 642 580 655 516 655 L 387 655 L 313 236 L 451 236 C 493 236 530 242 561 255 C 592 268 618 286 638 309 C 658 332 673 359 683 391 C 693 422 698 456 698 494 Z" unicode="B" />
<glyph horiz-adv-x="963" d="M 905 344 C 855 222 792 131 718 69 C 644 7 552 -23 442 -23 C 376 -23 320 -10 273 16 C 226 42 187 78 157 124 C 127 170 104 226 90 290 C 75 354 68 424 68 500 C 68 582 73 663 85 743 C 97 822 114 897 136 968 C 158 1038 186 1103 220 1163 C 253 1223 291 1274 335 1318 C 378 1361 426 1395 480 1419 C 533 1443 591 1456 653 1456 C 713 1456 765 1446 807 1428 C 849 1410 884 1384 912 1352 C 940 1320 961 1281 977 1237 C 992 1193 1003 1145 1010 1094 L 758 1016 C 754 1048 748 1076 742 1100 C 735 1123 726 1142 715 1157 C 704 1171 690 1182 674 1189 C 658 1196 638 1200 614 1200 C 585 1200 558 1191 533 1173 C 508 1155 485 1131 464 1100 C 442 1069 423 1032 406 989 C 389 946 375 900 363 850 C 351 800 341 747 335 692 C 329 636 326 580 326 524 C 326 430 338 358 363 308 C 388 258 427 233 481 233 C 503 233 523 236 542 243 C 561 250 579 262 597 278 C 614 294 631 315 647 341 C 663 367 680 400 698 438 L 905 344 Z" unicode="C" />
<glyph horiz-adv-x="1085" d="M 340 0 L 23 0 L 274 1434 L 588 1434 C 658 1434 722 1424 778 1405 C 834 1386 881 1357 919 1318 C 957 1278 987 1228 1007 1167 C 1027 1106 1038 1034 1038 950 C 1038 793 1020 655 984 537 C 948 419 898 320 836 240 C 773 160 699 100 614 60 C 529 20 438 0 340 0 Z M 776 911 C 776 951 772 988 765 1022 C 757 1055 745 1084 728 1108 C 711 1132 688 1150 660 1164 C 632 1177 597 1184 555 1184 L 487 1184 L 324 250 L 391 250 C 439 250 482 259 520 278 C 558 296 591 322 620 354 C 648 386 672 424 692 468 C 712 511 728 557 740 606 C 752 655 761 706 767 758 C 773 810 776 861 776 911 Z" unicode="D" />
<glyph horiz-adv-x="926" d="M 768 0 L 23 0 L 274 1434 L 1001 1434 L 958 1188 L 487 1188 L 434 885 L 748 885 L 705 643 L 391 643 L 322 246 L 811 246 L 768 0 Z" unicode="E" />
<glyph horiz-adv-x="909" d="M 979 1188 L 487 1188 L 432 868 L 760 868 L 715 621 L 387 621 L 279 0 L 23 0 L 274 1434 L 1022 1434 L 979 1188 Z" unicode="F" />
<glyph horiz-adv-x="1102" d="M 985 518 C 973 432 953 355 925 288 C 896 221 860 164 816 118 C 772 72 721 37 663 13 C 605 -11 542 -23 473 -23 C 403 -23 342 -9 291 18 C 240 45 198 83 165 131 C 131 179 107 237 91 304 C 75 371 67 444 68 524 C 68 602 75 680 87 757 C 99 833 116 906 138 975 C 160 1044 188 1108 221 1167 C 254 1225 292 1276 336 1319 C 379 1362 427 1396 480 1420 C 532 1444 590 1456 653 1456 C 707 1456 756 1448 802 1434 C 848 1419 888 1397 923 1367 C 957 1337 986 1300 1008 1255 C 1030 1209 1044 1156 1051 1094 L 799 1016 C 790 1080 771 1127 742 1156 C 713 1185 674 1200 625 1200 C 579 1200 539 1182 503 1146 C 467 1110 436 1061 411 1000 C 385 938 365 867 351 787 C 337 706 329 621 328 532 C 326 434 339 360 367 310 C 395 260 439 234 500 233 C 537 232 569 237 595 247 C 621 257 644 274 663 298 C 681 321 696 351 708 388 C 720 425 729 470 737 524 L 532 524 L 565 764 L 1018 764 L 985 518 Z" unicode="G" />
<glyph horiz-adv-x="1096" d="M 838 0 L 582 0 L 690 618 L 371 618 L 262 0 L 6 0 L 258 1434 L 514 1434 L 416 868 L 735 868 L 834 1434 L 1090 1434 L 838 0 Z" unicode="H" />
<glyph horiz-adv-x="541" d="M 272 0 L 16 0 L 268 1434 L 524 1434 L 272 0 Z" unicode="I" />
<glyph horiz-adv-x="975" d="M 815 553 C 799 462 779 381 755 310 C 731 238 701 178 664 129 C 626 79 581 42 527 16 C 473 -10 408 -23 332 -23 C 274 -23 222 -13 177 5 C 131 23 93 51 63 87 C 32 123 10 167 -4 220 C -18 273 -22 334 -18 403 L 223 455 C 221 425 221 396 225 369 C 228 341 235 317 245 297 C 255 277 268 261 286 249 C 303 237 325 231 352 231 C 378 231 402 236 423 246 C 444 256 463 274 479 298 C 495 322 510 355 523 395 C 535 435 547 485 557 545 L 713 1434 L 969 1434 L 815 553 Z" unicode="J" />
<glyph horiz-adv-x="1032" d="M 909 0 L 649 0 L 516 662 L 336 416 L 262 0 L 6 0 L 258 1434 L 514 1434 L 440 1010 C 432 968 425 929 418 893 C 411 857 404 823 397 791 C 407 805 418 822 430 840 C 442 858 454 876 468 896 C 482 916 495 935 509 955 C 523 975 536 994 549 1012 L 846 1434 L 1118 1434 L 719 897 L 909 0 Z" unicode="K" />
<glyph horiz-adv-x="838" d="M 702 0 L 6 0 L 258 1434 L 514 1434 L 307 250 L 748 250 L 702 0 Z" unicode="L" />
<glyph horiz-adv-x="1309" d="M 1051 0 L 817 0 L 899 463 C 914 548 928 628 942 704 C 956 779 968 843 979 897 C 967 871 953 842 939 810 C 924 778 908 743 891 706 C 873 669 855 631 836 591 C 816 551 796 511 776 471 L 520 -37 L 444 471 C 438 511 432 551 426 591 C 420 631 415 669 411 706 C 406 743 402 778 398 810 C 394 842 391 871 389 897 C 381 843 370 779 358 704 C 346 628 332 548 317 463 L 236 0 L 6 0 L 258 1434 L 516 1434 L 594 903 C 598 869 603 837 608 806 C 613 774 617 745 621 717 C 624 689 627 663 629 640 C 631 616 633 596 633 580 C 639 598 648 618 659 642 C 669 666 681 692 695 720 C 709 748 723 777 739 808 C 754 839 770 871 786 903 L 1049 1434 L 1303 1434 L 1051 0 Z" unicode="M" />
<glyph horiz-adv-x="1104" d="M 846 0 L 604 0 L 457 639 C 451 661 446 685 441 710 C 435 735 430 760 425 786 C 419 812 414 837 410 861 C 406 885 402 908 399 930 C 395 908 391 882 387 854 C 382 826 377 797 373 767 C 368 737 363 708 359 680 C 354 652 350 626 346 604 L 240 0 L 6 0 L 258 1434 L 516 1434 L 657 805 C 661 783 666 760 671 734 C 676 708 681 681 686 655 C 690 628 695 602 699 576 C 703 550 707 526 711 506 C 713 528 717 553 721 582 C 725 611 729 641 733 672 C 737 702 742 732 747 762 C 751 791 756 817 760 840 L 864 1434 L 1098 1434 L 846 0 Z" unicode="N" />
<glyph horiz-adv-x="1108" d="M 459 -23 C 389 -23 330 -9 280 17 C 230 43 190 80 158 128 C 126 175 102 231 88 297 C 73 362 66 434 68 512 C 68 592 74 672 86 750 C 97 828 113 902 135 972 C 157 1042 184 1106 216 1166 C 248 1225 285 1276 328 1319 C 370 1362 418 1396 472 1420 C 525 1444 584 1456 649 1456 C 717 1456 777 1442 827 1416 C 877 1390 919 1353 951 1306 C 983 1259 1007 1203 1022 1139 C 1037 1074 1044 1003 1042 926 C 1040 848 1033 770 1022 693 C 1011 615 995 541 974 471 C 952 401 926 335 894 275 C 862 215 825 162 783 118 C 740 74 692 39 638 14 C 584 -10 524 -23 459 -23 Z M 782 920 C 784 1010 771 1080 745 1128 C 719 1176 677 1200 621 1200 C 589 1200 559 1190 533 1172 C 506 1153 482 1127 461 1095 C 439 1063 420 1025 404 981 C 388 937 374 890 363 839 C 352 788 344 735 338 680 C 332 624 328 569 328 514 C 326 423 337 353 363 305 C 388 257 429 233 487 233 C 518 233 547 242 574 261 C 600 279 624 305 646 337 C 667 369 686 408 703 452 C 719 496 733 543 745 594 C 756 645 765 698 771 754 C 777 809 780 864 782 920 Z" unicode="O" />
<glyph horiz-adv-x="1012" d="M 475 514 L 369 514 L 279 0 L 23 0 L 274 1434 L 647 1434 C 771 1434 866 1402 932 1340 C 997 1277 1030 1183 1030 1057 C 1030 994 1022 937 1007 886 C 992 834 971 788 945 748 C 919 708 888 673 852 644 C 816 614 778 590 737 571 C 695 551 652 537 608 528 C 563 518 519 514 475 514 Z M 770 1016 C 770 1040 767 1063 762 1083 C 756 1103 747 1121 735 1136 C 722 1151 705 1163 683 1171 C 661 1179 634 1184 602 1184 L 487 1184 L 414 764 L 532 764 C 605 764 663 785 706 829 C 748 873 770 935 770 1016 Z" unicode="P" />
<glyph horiz-adv-x="1108" d="M 786 139 C 795 117 804 97 813 78 C 822 58 830 41 838 26 C 846 8 853 -7 860 -23 L 672 -129 L 608 8 C 559 -12 507 -23 451 -23 C 381 -23 322 -9 273 17 C 224 43 184 80 153 128 C 122 175 100 231 86 297 C 72 362 66 434 68 512 C 68 592 74 672 86 750 C 97 828 113 902 135 972 C 157 1042 184 1106 216 1166 C 248 1225 285 1276 328 1319 C 370 1362 418 1396 472 1420 C 525 1444 584 1456 649 1456 C 717 1456 777 1442 827 1416 C 877 1390 919 1353 951 1306 C 983 1259 1007 1203 1022 1139 C 1037 1074 1044 1003 1042 926 C 1040 850 1034 775 1022 701 C 1010 627 993 555 971 487 C 949 419 923 355 892 295 C 861 235 826 183 786 139 Z M 512 221 L 434 389 L 623 496 L 651 434 C 658 418 664 404 670 392 C 676 379 678 373 678 373 C 710 435 734 512 752 605 C 770 698 780 803 782 920 C 784 1010 771 1080 745 1128 C 719 1176 677 1200 621 1200 C 589 1200 559 1190 533 1172 C 506 1153 482 1127 461 1095 C 439 1063 420 1025 404 981 C 388 937 374 890 363 839 C 352 788 344 735 338 680 C 332 624 328 569 328 514 C 326 468 328 427 334 391 C 339 355 348 324 360 299 C 372 273 388 254 408 240 C 428 226 452 219 481 219 C 486 219 491 219 496 219 C 501 219 506 219 512 221 Z" unicode="Q" />
<glyph horiz-adv-x="1044" d="M 864 0 L 606 0 L 479 545 L 375 545 L 279 0 L 23 0 L 274 1434 L 655 1434 C 779 1434 874 1403 940 1342 C 1006 1281 1040 1189 1040 1067 C 1040 1002 1031 945 1014 895 C 997 845 974 800 946 762 C 917 724 883 691 845 664 C 806 637 765 614 723 596 L 864 0 Z M 780 1024 C 780 1076 765 1115 737 1143 C 708 1170 662 1184 600 1184 L 487 1184 L 418 784 L 545 784 C 617 784 674 804 716 845 C 757 885 778 945 780 1024 Z" unicode="R" />
<glyph horiz-adv-x="965" d="M 373 -23 C 324 -23 278 -16 236 -4 C 193 8 154 25 119 47 C 83 68 52 93 24 121 C -4 149 -27 178 -47 209 L 150 381 C 182 328 221 288 265 261 C 309 234 353 221 397 221 C 426 221 452 225 474 234 C 496 242 514 254 529 269 C 544 284 555 302 563 322 C 571 342 575 363 575 385 C 575 421 562 459 537 498 C 511 536 470 577 412 621 C 373 649 337 677 304 707 C 270 737 241 768 217 802 C 193 835 174 871 160 910 C 146 948 139 990 139 1036 C 139 1090 149 1142 170 1193 C 191 1243 221 1288 259 1327 C 297 1366 344 1397 398 1421 C 452 1444 512 1456 578 1456 C 667 1456 744 1438 808 1403 C 872 1368 925 1317 965 1251 L 764 1081 C 730 1128 697 1162 665 1183 C 633 1203 597 1214 557 1214 C 535 1214 515 1210 497 1204 C 479 1198 463 1189 450 1177 C 436 1165 426 1151 418 1134 C 410 1116 406 1097 406 1075 C 406 1057 408 1039 414 1023 C 419 1007 428 990 440 973 C 452 956 469 938 489 920 C 509 901 533 880 563 858 C 605 826 643 794 678 764 C 712 733 742 701 766 667 C 790 633 809 596 823 556 C 837 516 844 472 844 422 C 844 360 833 302 812 248 C 790 194 759 146 719 106 C 678 66 629 34 571 11 C 513 -11 447 -23 373 -23 Z" unicode="S" />
<glyph horiz-adv-x="911" d="M 969 1188 L 672 1188 L 463 0 L 207 0 L 416 1188 L 119 1188 L 162 1434 L 1012 1434 L 969 1188 Z" unicode="T" />
<glyph horiz-adv-x="1108" d="M 958 573 C 948 519 938 467 927 417 C 915 367 901 323 885 285 C 864 235 840 190 813 152 C 786 114 755 82 720 56 C 685 30 646 10 602 -3 C 558 -16 510 -23 457 -23 C 382 -23 319 -10 268 16 C 216 42 176 79 148 129 C 119 179 102 240 96 312 C 90 384 96 467 113 559 L 266 1434 L 522 1434 L 367 541 C 357 483 351 434 350 394 C 348 354 352 322 362 298 C 371 273 386 255 406 245 C 426 234 453 229 487 229 C 533 229 569 242 597 268 C 624 294 646 335 664 393 C 665 397 667 406 670 418 C 673 430 676 445 680 461 C 684 477 687 495 691 514 C 695 532 698 551 702 569 L 854 1434 L 1110 1434 L 958 573 Z" unicode="U" />
<glyph horiz-adv-x="1008" d="M 1104 1434 L 510 0 L 260 0 L 166 1434 L 430 1434 L 449 741 C 449 714 450 683 451 648 C 451 612 452 577 452 542 C 452 507 452 475 452 445 C 452 415 451 393 451 377 C 455 393 463 416 474 446 C 485 476 497 509 510 544 C 523 579 536 614 549 650 C 562 685 574 715 584 741 L 842 1434 L 1104 1434 Z" unicode="V" />
<glyph horiz-adv-x="1350" d="M 1427 1434 L 944 0 L 723 0 L 709 602 C 705 742 705 863 709 963 C 692 912 673 857 653 797 C 632 737 608 672 582 602 L 354 0 L 139 0 L 160 1434 L 401 1434 L 377 899 C 375 873 374 841 372 805 C 370 769 367 732 365 694 C 362 656 359 619 357 584 C 354 548 352 518 350 494 C 358 518 367 548 379 584 C 391 619 403 656 416 694 C 429 732 442 769 455 805 C 468 841 479 873 489 899 L 688 1434 L 899 1434 L 909 899 C 909 873 910 841 910 805 C 910 769 911 732 911 694 C 911 656 910 619 910 584 C 909 548 908 518 907 494 C 914 518 923 548 933 584 C 943 619 953 656 964 694 C 974 732 985 769 996 805 C 1006 841 1016 873 1024 899 L 1188 1434 L 1427 1434 Z" unicode="W" />
<glyph horiz-adv-x="1012" d="M 864 0 L 588 0 L 516 270 C 512 286 507 303 503 323 C 499 342 494 362 490 382 C 486 402 482 421 478 440 C 474 458 471 475 469 489 C 461 475 452 458 442 440 C 432 421 421 402 410 382 C 398 362 387 343 376 324 C 364 304 354 286 344 270 L 178 0 L -98 0 L 373 735 L 172 1434 L 449 1434 L 510 1204 C 514 1188 518 1170 523 1151 C 527 1131 532 1112 536 1092 C 540 1072 544 1052 548 1034 C 552 1015 555 999 557 985 C 565 999 574 1015 584 1034 C 594 1052 605 1071 616 1091 C 627 1111 638 1130 650 1150 C 661 1170 672 1188 682 1204 L 821 1434 L 1098 1434 L 649 737 L 864 0 Z" unicode="X" />
<glyph horiz-adv-x="1024" d="M 1137 1434 L 610 541 L 514 0 L 258 0 L 352 537 L 141 1434 L 424 1434 L 483 1143 C 489 1111 494 1079 500 1047 C 506 1015 511 984 516 954 C 520 924 524 897 527 872 C 529 846 531 825 532 809 C 538 825 547 847 559 873 C 571 899 584 927 599 957 C 613 987 629 1018 646 1050 C 663 1082 680 1113 696 1143 L 858 1434 L 1137 1434 Z" unicode="Y" />
<glyph horiz-adv-x="920" d="M 735 0 L -47 0 L -6 227 L 549 1026 C 574 1062 598 1094 621 1124 C 643 1154 664 1181 684 1206 C 658 1204 631 1203 601 1203 C 571 1202 538 1202 502 1202 L 201 1202 L 240 1434 L 987 1434 L 948 1206 L 395 408 C 370 372 346 339 324 309 C 302 279 281 251 262 227 C 287 228 315 229 345 230 C 375 230 408 231 444 231 L 776 231 L 735 0 Z" unicode="Z" />
<glyph horiz-adv-x="748" d="M 522 -225 L 37 -225 L 328 1434 L 813 1434 L 778 1229 L 545 1229 L 324 -20 L 557 -20 L 522 -225 Z" unicode="[" />
<glyph horiz-adv-x="827" d="M 666 -184 L 410 -184 L 162 1618 L 418 1618 L 666 -184 Z" unicode="\" />
<glyph horiz-adv-x="748" d="M 362 -225 L -123 -225 L -88 -20 L 145 -20 L 367 1229 L 133 1229 L 168 1434 L 653 1434 L 362 -225 Z" unicode="]" />
<glyph horiz-adv-x="950" d="M 903 782 L 653 782 L 559 1184 L 322 782 L 76 782 L 483 1434 L 725 1434 L 903 782 Z" unicode="^" />
<glyph horiz-adv-x="778" d="M 612 -362 L -166 -362 L -129 -147 L 649 -147 L 612 -362 Z" unicode="_" />
<glyph horiz-adv-x="819" d="M 639 1219 L 455 1219 L 209 1546 L 518 1546 L 639 1219 Z" unicode="`" />
<glyph horiz-adv-x="909" d="M 674 0 L 432 0 L 444 74 C 415 42 382 19 344 3 C 306 -12 270 -20 236 -20 C 194 -20 158 -13 126 0 C 94 14 67 33 45 59 C 23 84 6 115 -5 151 C -17 187 -23 227 -23 272 C -23 340 -12 401 9 455 C 31 509 60 555 97 593 C 133 631 176 660 224 680 C 272 700 323 711 377 711 C 422 711 458 706 484 698 C 510 689 532 679 549 668 L 565 750 C 566 757 567 764 568 770 C 568 776 569 782 569 788 C 567 816 558 838 542 856 C 526 874 498 883 459 883 C 413 883 372 876 335 864 C 298 852 263 836 229 817 L 164 993 C 216 1025 270 1050 328 1069 C 386 1088 448 1098 514 1098 C 618 1098 695 1077 743 1035 C 791 993 815 930 815 846 C 815 829 814 812 812 794 C 810 776 808 758 805 739 L 674 0 Z M 481 283 L 512 455 C 495 471 476 483 455 492 C 434 501 407 506 375 506 C 355 506 336 501 318 492 C 300 482 284 469 271 452 C 257 435 247 415 239 392 C 231 368 227 343 227 315 C 227 294 230 276 236 261 C 242 246 250 234 260 224 C 270 214 282 206 296 202 C 309 197 323 195 338 195 C 364 195 390 202 415 217 C 440 231 462 253 481 283 Z" unicode="a" />
<glyph horiz-adv-x="950" d="M 614 1098 C 692 1098 752 1070 793 1016 C 833 962 854 878 854 764 C 854 730 852 695 849 659 C 846 622 841 582 834 539 C 820 456 800 380 775 312 C 749 243 718 184 682 134 C 646 84 604 46 557 18 C 510 -9 458 -23 401 -23 C 365 -23 332 -15 302 0 C 272 14 248 34 229 59 L 219 0 L -23 0 L 219 1372 L 483 1493 L 395 1001 C 427 1030 461 1053 499 1071 C 537 1089 575 1098 614 1098 Z M 588 530 C 595 569 600 604 604 636 C 608 667 610 695 610 721 C 611 772 604 810 589 835 C 574 859 550 872 516 872 C 501 872 486 869 471 864 C 456 858 442 851 428 843 C 414 834 400 824 388 814 C 376 803 365 792 356 782 L 270 295 C 282 270 299 248 321 230 C 342 212 369 203 403 203 C 424 203 444 208 462 219 C 480 229 496 247 511 273 C 526 298 540 332 553 374 C 565 416 577 468 588 530 Z" unicode="b" />
<glyph horiz-adv-x="819" d="M 823 854 L 608 723 C 596 767 580 802 560 828 C 540 854 513 868 477 868 C 443 868 414 854 388 828 C 362 801 340 766 322 724 C 304 681 290 633 280 579 C 270 525 266 470 266 416 C 266 351 276 300 296 263 C 316 225 349 207 393 207 C 410 207 427 211 443 219 C 459 227 475 238 490 252 C 505 266 519 282 532 302 C 545 321 557 342 569 365 L 729 236 C 707 198 684 164 658 132 C 632 100 604 73 574 50 C 543 27 510 9 474 -3 C 438 -16 399 -23 358 -23 C 306 -23 260 -14 219 3 C 177 21 142 47 112 82 C 82 117 60 160 44 212 C 28 264 20 323 20 391 C 20 499 33 597 60 684 C 86 771 122 845 167 907 C 212 968 264 1015 324 1048 C 384 1081 447 1098 514 1098 C 597 1098 664 1077 714 1036 C 764 995 800 934 823 854 Z" unicode="c" />
<glyph horiz-adv-x="950" d="M 272 -23 C 192 -23 131 5 90 63 C 49 120 29 209 29 330 C 29 360 30 393 33 427 C 35 461 39 497 45 537 C 57 619 75 694 101 763 C 127 832 158 891 196 941 C 234 990 277 1028 327 1056 C 376 1084 430 1098 489 1098 C 522 1098 553 1090 581 1074 C 609 1058 632 1038 649 1016 L 713 1372 L 977 1493 L 713 0 L 471 0 L 483 74 C 454 46 421 22 383 4 C 345 -13 308 -23 272 -23 Z M 522 293 L 608 780 C 602 792 595 803 588 814 C 580 825 572 835 562 843 C 552 851 540 858 527 864 C 514 869 499 872 483 872 C 461 872 441 866 422 856 C 403 846 386 828 370 803 C 354 777 339 744 326 702 C 313 660 302 607 293 545 C 287 505 282 470 280 438 C 277 406 276 378 276 354 C 276 302 283 263 299 239 C 314 215 339 203 373 203 C 387 203 402 205 416 211 C 430 216 443 223 456 232 C 469 240 481 250 492 261 C 503 271 513 282 522 293 Z" unicode="d" />
<glyph horiz-adv-x="913" d="M 805 446 L 262 446 C 256 363 265 302 291 264 C 317 226 353 207 401 207 C 420 207 438 209 454 213 C 470 217 486 222 500 230 C 514 238 528 247 542 259 C 555 271 568 285 582 301 L 735 172 C 639 42 516 -23 365 -23 C 308 -23 258 -13 215 7 C 172 27 136 55 107 91 C 78 127 56 170 42 221 C 27 272 20 329 20 391 C 20 499 33 596 59 683 C 85 770 120 844 165 906 C 209 968 261 1015 321 1048 C 380 1081 443 1098 510 1098 C 566 1098 614 1087 655 1065 C 695 1043 729 1014 755 976 C 781 938 800 894 812 844 C 824 794 831 740 831 682 C 831 644 828 605 824 565 C 819 525 813 485 805 446 Z M 596 645 C 597 677 596 708 594 737 C 592 765 586 790 577 812 C 568 833 555 850 539 862 C 522 874 501 881 475 881 C 429 881 391 860 359 819 C 327 777 305 719 291 645 L 596 645 Z" unicode="e" />
<glyph horiz-adv-x="604" d="M 698 1247 C 684 1254 669 1259 653 1263 C 637 1266 617 1268 594 1268 C 560 1268 534 1260 517 1245 C 499 1229 487 1202 481 1163 L 467 1075 L 639 1075 L 598 846 L 426 846 L 276 0 L 35 0 L 184 846 L 76 846 L 117 1075 L 225 1075 L 248 1204 C 256 1253 271 1295 291 1331 C 311 1367 334 1396 362 1419 C 390 1442 420 1459 454 1470 C 488 1481 523 1487 559 1487 C 601 1487 635 1484 662 1479 C 689 1474 713 1466 735 1456 L 698 1247 Z" unicode="f" />
<glyph horiz-adv-x="950" d="M 272 -23 C 192 -23 131 5 90 62 C 49 119 29 207 29 326 C 29 356 30 389 32 424 C 34 459 39 497 45 537 C 57 619 75 694 101 763 C 127 832 159 891 197 941 C 235 990 279 1028 329 1056 C 378 1084 432 1098 492 1098 C 528 1098 558 1090 583 1075 C 608 1060 630 1040 649 1016 L 662 1075 L 903 1075 L 733 111 C 719 30 699 -39 675 -97 C 651 -155 617 -204 575 -244 C 533 -284 479 -316 415 -340 C 351 -364 272 -383 178 -395 L 143 -215 C 205 -205 256 -193 296 -180 C 336 -166 368 -149 393 -128 C 418 -106 437 -79 451 -47 C 464 -15 475 25 483 74 C 452 42 418 18 381 2 C 344 -14 308 -23 272 -23 Z M 522 293 L 608 780 C 602 792 595 803 588 814 C 580 825 572 835 562 843 C 552 851 540 858 527 864 C 514 869 499 872 483 872 C 461 872 441 866 422 856 C 403 846 386 828 370 803 C 354 777 339 744 326 702 C 313 660 302 607 293 545 C 287 505 282 470 280 438 C 277 406 276 377 276 352 C 276 300 283 263 299 239 C 314 215 339 203 373 203 C 387 203 402 205 416 211 C 430 216 443 223 456 232 C 469 240 481 250 492 261 C 503 271 513 282 522 293 Z" unicode="g" />
<glyph horiz-adv-x="936" d="M 508 872 C 494 872 481 869 467 864 C 453 858 440 851 427 843 C 413 834 401 824 389 814 C 377 803 366 792 356 782 L 219 0 L -23 0 L 219 1372 L 483 1493 L 395 1001 C 426 1030 459 1053 495 1071 C 531 1089 568 1098 606 1098 C 690 1098 750 1077 786 1035 C 822 993 840 934 840 856 C 840 833 838 808 834 782 C 830 755 827 729 823 705 L 698 0 L 457 0 L 580 696 C 583 711 585 726 586 740 C 587 754 588 766 590 778 C 590 812 583 836 571 850 C 559 864 538 872 508 872 Z" unicode="h" />
<glyph horiz-adv-x="487" d="M 498 1333 C 498 1311 493 1291 485 1273 C 477 1255 466 1239 452 1225 C 438 1211 421 1200 403 1192 C 384 1184 364 1180 344 1180 C 322 1180 302 1184 284 1192 C 265 1200 249 1211 235 1225 C 221 1239 210 1255 202 1273 C 194 1291 190 1311 190 1333 C 190 1353 194 1373 202 1392 C 210 1410 221 1427 235 1441 C 249 1455 265 1466 284 1474 C 302 1482 322 1487 344 1487 C 364 1487 384 1482 403 1474 C 421 1466 438 1455 452 1441 C 466 1427 477 1410 485 1392 C 493 1373 498 1353 498 1333 Z M 229 0 L -12 0 L 178 1075 L 420 1075 L 229 0 Z" unicode="i" />
<glyph horiz-adv-x="487" d="M 498 1333 C 498 1311 493 1291 485 1273 C 477 1255 466 1239 452 1225 C 438 1211 421 1200 403 1192 C 384 1184 364 1180 344 1180 C 322 1180 302 1184 284 1192 C 265 1200 249 1211 235 1225 C 221 1239 210 1255 202 1273 C 194 1291 190 1311 190 1333 C 190 1353 194 1373 202 1392 C 210 1410 221 1427 235 1441 C 249 1455 265 1466 284 1474 C 302 1482 322 1487 344 1487 C 364 1487 384 1482 403 1474 C 421 1466 438 1455 452 1441 C 466 1427 477 1410 485 1392 C 493 1373 498 1353 498 1333 Z M 242 68 C 228 -11 210 -77 189 -131 C 167 -184 138 -228 102 -263 C 65 -298 19 -326 -36 -346 C -91 -366 -160 -382 -242 -395 L -276 -211 C -225 -200 -184 -188 -152 -176 C -120 -164 -95 -148 -75 -129 C -55 -109 -40 -85 -30 -55 C -19 -25 -10 11 -2 57 L 178 1075 L 420 1075 L 242 68 Z" unicode="j" />
<glyph horiz-adv-x="887" d="M 727 0 L 475 0 L 401 494 L 279 336 L 219 0 L -23 0 L 219 1372 L 483 1493 L 365 819 C 362 803 359 790 357 778 C 355 766 352 754 350 743 C 347 731 344 720 342 708 C 339 696 336 682 334 668 C 351 694 370 721 390 748 C 410 775 428 799 444 821 L 639 1075 L 905 1075 L 608 725 L 727 0 Z" unicode="k" />
<glyph horiz-adv-x="487" d="M 229 0 L -12 0 L 229 1372 L 494 1493 L 229 0 Z" unicode="l" />
<glyph horiz-adv-x="1399" d="M 1161 0 L 920 0 L 1042 696 C 1045 715 1048 732 1050 748 C 1052 764 1053 778 1053 791 C 1053 821 1046 842 1034 854 C 1021 866 1001 872 973 872 C 960 872 947 869 934 864 C 920 859 907 852 895 844 C 882 835 870 825 858 815 C 846 804 836 793 827 782 L 690 0 L 449 0 L 571 696 C 574 714 577 731 579 746 C 581 760 582 774 582 786 C 582 818 576 840 564 853 C 552 865 532 872 504 872 C 491 872 478 869 464 864 C 450 858 437 851 424 843 C 411 834 399 824 387 814 C 375 803 365 792 356 782 L 219 0 L -23 0 L 168 1075 L 410 1075 L 395 1001 C 411 1015 428 1028 447 1040 C 465 1052 484 1062 504 1071 C 524 1079 543 1086 563 1091 C 582 1095 600 1098 618 1098 C 649 1098 676 1094 699 1088 C 721 1082 740 1073 756 1063 C 772 1052 785 1039 795 1025 C 805 1010 813 995 819 979 C 853 1011 891 1039 934 1063 C 977 1086 1025 1098 1077 1098 C 1156 1098 1213 1077 1248 1035 C 1282 993 1300 932 1300 852 C 1300 830 1299 807 1297 783 C 1295 759 1291 733 1286 705 L 1161 0 Z" unicode="m" />
<glyph horiz-adv-x="936" d="M 698 0 L 457 0 L 580 696 C 583 713 585 729 587 744 C 589 759 590 772 590 784 C 590 817 583 840 570 853 C 557 865 536 872 508 872 C 494 872 481 869 467 864 C 453 859 440 852 427 844 C 413 835 401 825 389 815 C 377 804 366 793 356 782 L 219 0 L -23 0 L 168 1075 L 410 1075 L 395 1001 C 427 1030 460 1053 496 1071 C 531 1089 568 1098 606 1098 C 647 1098 682 1092 712 1082 C 741 1072 765 1056 784 1036 C 803 1016 817 991 826 961 C 834 931 839 896 840 858 C 840 835 838 810 835 784 C 832 758 828 731 823 705 L 698 0 Z" unicode="n" />
<glyph horiz-adv-x="950" d="M 362 -23 C 310 -23 264 -13 222 5 C 180 24 144 52 114 88 C 84 124 60 167 44 219 C 28 271 20 329 20 395 C 20 499 32 595 57 681 C 81 767 115 841 159 903 C 202 965 253 1013 312 1047 C 371 1081 435 1098 504 1098 C 556 1098 603 1089 645 1071 C 687 1053 724 1026 754 991 C 784 955 807 911 823 859 C 839 807 848 746 848 678 C 848 574 835 479 810 393 C 785 307 751 233 707 171 C 663 109 612 62 553 28 C 493 -6 430 -23 362 -23 Z M 602 670 C 602 732 592 780 573 815 C 553 850 522 868 479 868 C 445 868 414 854 388 828 C 361 802 338 767 320 724 C 302 680 288 631 278 576 C 268 521 264 465 264 408 C 264 345 274 296 294 260 C 314 224 347 207 391 207 C 427 207 459 221 485 250 C 511 278 533 315 551 360 C 568 404 581 454 589 509 C 597 564 602 618 602 670 Z" unicode="o" />
<glyph horiz-adv-x="950" d="M 834 539 C 820 456 800 380 775 312 C 750 243 719 184 683 134 C 646 84 604 46 556 18 C 508 -9 455 -23 397 -23 C 361 -23 328 -15 300 -1 C 271 13 247 33 229 59 L 170 -274 L -92 -395 L 168 1075 L 410 1075 L 395 1001 C 427 1030 461 1053 499 1071 C 537 1089 575 1098 614 1098 C 692 1098 752 1070 793 1015 C 834 959 854 874 854 760 C 854 728 852 693 849 657 C 846 620 841 581 834 539 Z M 588 530 C 595 569 600 604 604 636 C 608 667 610 695 610 721 C 611 772 604 810 589 835 C 574 859 550 872 516 872 C 501 872 486 869 471 864 C 456 858 442 851 428 843 C 414 834 400 824 388 814 C 376 803 365 792 356 782 L 270 295 C 282 270 299 248 321 230 C 342 212 369 203 403 203 C 424 203 444 208 462 219 C 480 229 496 247 511 273 C 526 298 540 332 553 374 C 565 416 577 468 588 530 Z" unicode="p" />
<glyph horiz-adv-x="950" d="M 664 -274 L 401 -395 L 483 74 C 451 44 417 21 383 3 C 348 -14 311 -23 272 -23 C 192 -23 131 5 90 63 C 49 120 29 209 29 330 C 29 360 30 393 33 427 C 35 461 39 497 45 537 C 57 619 75 694 101 763 C 127 832 159 891 197 941 C 235 990 279 1028 329 1056 C 378 1084 432 1098 492 1098 C 528 1098 558 1090 583 1075 C 608 1060 630 1040 649 1016 L 662 1075 L 903 1075 L 664 -274 Z M 522 293 L 608 780 C 602 792 595 803 588 814 C 580 825 572 835 562 843 C 552 851 540 858 527 864 C 514 869 499 872 483 872 C 461 872 441 866 422 856 C 403 846 386 828 370 803 C 354 777 339 744 326 702 C 313 660 302 607 293 545 C 287 507 283 474 280 444 C 277 414 276 387 276 362 C 276 306 283 266 298 241 C 312 215 337 203 373 203 C 387 203 402 205 416 211 C 430 216 443 223 456 232 C 469 240 481 250 492 261 C 503 271 513 282 522 293 Z" unicode="q" />
<glyph horiz-adv-x="705" d="M 770 1042 L 657 807 C 639 823 620 836 600 846 C 580 855 555 860 526 860 C 494 860 463 852 435 836 C 407 820 380 798 354 768 L 219 0 L -23 0 L 168 1075 L 410 1075 L 395 1001 C 407 1013 421 1024 437 1036 C 453 1048 470 1058 488 1067 C 506 1076 526 1083 546 1089 C 566 1095 586 1098 606 1098 C 642 1098 672 1093 698 1084 C 723 1074 747 1060 770 1042 Z" unicode="r" />
<glyph horiz-adv-x="807" d="M 291 -23 C 224 -23 161 -13 102 5 C 43 24 -7 54 -51 94 L 72 301 C 111 269 149 245 186 229 C 223 213 263 205 307 205 C 344 205 375 213 399 230 C 423 247 436 273 436 307 C 436 320 433 332 428 343 C 422 354 414 366 403 378 C 391 390 376 402 358 416 C 340 430 317 446 291 465 C 265 483 240 502 216 523 C 192 543 171 566 153 590 C 135 614 120 640 110 668 C 99 696 94 726 94 760 C 94 815 103 864 123 906 C 143 948 169 983 203 1012 C 236 1040 275 1062 319 1076 C 363 1090 411 1098 461 1098 C 517 1098 573 1089 627 1073 C 681 1057 730 1032 772 999 L 653 803 C 617 828 583 847 552 859 C 521 871 487 877 451 877 C 421 877 395 870 374 857 C 352 843 342 823 342 797 C 342 787 344 777 348 767 C 352 757 359 746 369 735 C 379 723 394 710 412 696 C 430 681 454 664 483 645 C 513 624 540 603 564 582 C 588 560 608 537 626 513 C 643 489 656 463 666 435 C 675 407 680 376 680 342 C 680 282 669 229 648 183 C 626 137 598 99 562 69 C 526 39 485 16 438 0 C 391 -15 342 -23 291 -23 Z" unicode="s" />
<glyph horiz-adv-x="666" d="M 549 258 L 479 25 C 450 10 420 -1 390 -10 C 360 -18 327 -23 291 -23 C 247 -23 210 -16 180 -3 C 149 10 125 31 108 59 C 90 87 80 124 77 168 C 73 212 77 264 88 326 L 180 846 L 47 846 L 88 1075 L 221 1075 L 272 1372 L 537 1493 L 463 1075 L 680 1075 L 639 846 L 422 846 L 328 313 C 320 274 323 247 335 231 C 347 215 368 207 397 207 C 420 207 444 211 470 219 C 496 227 522 240 549 258 Z" unicode="t" />
<glyph horiz-adv-x="936" d="M 690 0 L 449 0 L 461 74 C 431 46 399 22 363 4 C 327 -13 289 -23 250 -23 C 207 -23 171 -17 142 -7 C 112 2 88 18 70 38 C 52 58 38 82 30 112 C 22 141 18 175 18 213 C 18 236 19 261 22 287 C 25 313 29 341 35 371 L 160 1075 L 401 1075 L 279 379 C 271 342 268 313 268 293 C 268 259 274 236 287 223 C 300 209 322 203 352 203 C 364 203 377 205 391 210 C 405 215 418 222 432 231 C 445 239 457 249 469 260 C 481 270 491 281 500 293 L 639 1075 L 881 1075 L 690 0 Z" unicode="u" />
<glyph horiz-adv-x="893" d="M 909 1075 L 444 0 L 182 0 L 98 1075 L 340 1075 L 358 610 C 358 588 359 561 360 529 C 361 497 362 464 363 432 C 363 399 364 368 364 340 C 364 312 365 290 365 276 C 369 290 377 312 388 341 C 399 370 411 401 423 434 C 435 467 448 500 460 532 C 472 564 481 590 489 610 L 672 1075 L 909 1075 Z" unicode="v" />
<glyph horiz-adv-x="1217" d="M 1223 1075 L 795 0 L 614 0 L 602 373 C 600 397 599 424 599 456 C 598 487 597 518 597 550 C 597 582 597 612 597 640 C 597 668 597 692 598 711 C 592 692 584 668 574 640 C 564 612 553 582 541 550 C 529 518 518 486 506 454 C 494 422 484 393 475 369 L 336 0 L 156 0 L 109 1075 L 330 1075 L 328 760 C 328 734 327 704 327 672 C 327 639 326 606 326 574 C 326 542 325 511 324 482 C 323 453 322 430 322 412 C 328 430 337 453 348 482 C 358 511 370 542 382 575 C 394 607 407 640 419 672 C 431 704 443 733 453 758 L 580 1075 L 752 1075 L 764 758 C 764 733 765 704 767 672 C 768 640 769 607 770 575 C 771 542 772 511 772 482 C 772 453 772 430 772 412 C 778 430 785 453 795 482 C 805 511 815 542 826 574 C 836 606 847 639 858 672 C 869 704 879 734 889 760 L 1001 1075 L 1223 1075 Z" unicode="w" />
<glyph horiz-adv-x="913" d="M 745 0 L 487 0 L 438 172 C 428 204 421 235 415 265 C 409 295 403 326 397 356 C 381 326 364 295 346 264 C 328 233 310 202 291 172 L 180 0 L -74 0 L 311 557 L 137 1075 L 395 1075 L 430 944 C 438 912 445 880 452 849 C 459 818 465 788 471 760 C 488 790 505 820 523 851 C 540 882 558 913 578 944 L 662 1075 L 915 1075 L 557 557 L 745 0 Z" unicode="x" />
<glyph horiz-adv-x="926" d="M 969 1075 L 301 -379 L 78 -379 L 258 18 L 125 1075 L 379 1075 L 408 674 C 410 647 412 617 414 583 C 416 549 417 516 419 484 C 421 451 422 421 423 393 C 424 365 424 343 424 328 C 429 343 437 365 448 393 C 458 421 470 452 482 485 C 494 517 507 550 520 584 C 533 617 545 646 555 672 L 717 1075 L 969 1075 Z" unicode="y" />
<glyph horiz-adv-x="850" d="M 639 0 L -41 0 L -4 211 L 356 641 C 391 683 425 723 459 761 C 492 799 522 833 549 862 C 517 860 482 859 444 859 C 406 858 366 858 322 858 L 141 858 L 180 1075 L 829 1075 L 791 864 L 436 434 C 401 390 367 350 334 313 C 300 276 270 243 242 213 C 276 214 312 215 350 216 C 388 216 429 217 473 217 L 678 217 L 639 0 Z" unicode="z" />
<glyph horiz-adv-x="768" d="M 594 -225 C 521 -225 459 -218 407 -205 C 355 -191 313 -171 281 -145 C 249 -119 225 -86 210 -47 C 195 -7 188 38 190 90 C 190 108 191 127 194 147 C 196 166 199 186 203 207 L 229 360 C 237 410 233 446 216 468 C 199 490 171 502 131 502 L 86 502 L 125 715 L 170 715 C 210 715 242 726 267 748 C 292 770 309 806 317 856 L 344 1012 C 356 1082 375 1145 401 1199 C 427 1253 462 1298 506 1334 C 550 1370 603 1398 665 1416 C 727 1434 801 1444 887 1444 L 858 1278 C 810 1272 772 1263 743 1251 C 713 1238 690 1221 672 1199 C 654 1177 640 1151 631 1120 C 621 1089 613 1053 606 1012 L 592 928 C 582 873 571 827 557 791 C 543 754 525 724 505 700 C 484 676 460 658 433 644 C 406 630 375 618 340 608 C 372 598 399 586 421 572 C 443 558 460 540 472 516 C 484 492 490 461 492 425 C 493 389 489 343 479 289 L 465 207 C 457 161 453 123 453 92 C 453 69 455 49 460 32 C 465 15 474 0 487 -12 C 500 -24 518 -34 540 -42 C 562 -50 589 -55 623 -59 L 594 -225 Z" unicode="{" />
<glyph horiz-adv-x="528" d="M 178 -379 L -47 -379 L 309 1638 L 535 1638 L 178 -379 Z" unicode="|" />
<glyph horiz-adv-x="768" d="M 616 504 L 571 504 C 531 504 498 492 473 470 C 448 448 432 412 424 362 L 397 207 C 385 135 365 73 339 19 C 313 -35 278 -80 235 -116 C 191 -152 138 -179 76 -197 C 13 -215 -60 -225 -145 -225 L -117 -59 C -69 -54 -31 -45 -2 -32 C 27 -19 51 -2 69 19 C 87 41 100 67 110 98 C 119 129 127 165 135 207 L 150 291 C 158 345 170 391 184 427 C 198 463 216 494 236 518 C 256 542 280 560 307 574 C 334 588 365 600 401 610 C 369 620 342 632 320 646 C 298 660 281 678 269 702 C 257 726 250 756 249 793 C 247 829 252 875 262 930 L 276 1012 C 284 1053 289 1090 289 1124 C 289 1146 287 1166 282 1184 C 276 1201 267 1216 254 1229 C 241 1242 224 1253 202 1261 C 180 1269 152 1274 119 1278 L 147 1444 C 217 1444 278 1437 329 1425 C 379 1412 421 1393 453 1368 C 485 1342 509 1311 525 1273 C 541 1235 549 1192 551 1143 C 551 1102 547 1058 539 1012 L 512 858 C 504 808 508 772 525 750 C 541 728 570 717 610 717 L 655 717 L 616 504 Z" unicode="}" />
<glyph horiz-adv-x="1151" d="M 1092 868 C 1065 820 1038 779 1012 743 C 985 707 957 677 929 653 C 900 629 870 610 838 598 C 806 586 771 580 733 580 C 711 580 692 581 675 584 C 658 587 642 592 627 598 C 612 604 598 611 584 620 C 570 628 557 638 543 649 C 523 663 506 676 491 687 C 476 697 462 706 450 712 C 438 718 427 723 417 726 C 407 729 397 731 387 731 C 371 731 356 728 343 723 C 329 718 316 710 303 698 C 289 686 275 670 260 650 C 245 630 228 605 209 575 L 74 651 C 100 698 127 740 153 776 C 179 812 206 842 235 866 C 263 890 293 909 325 921 C 357 933 392 940 430 940 C 450 940 469 938 487 936 C 504 933 520 929 535 923 C 550 917 565 909 579 901 C 593 892 607 882 623 870 C 657 843 686 823 712 809 C 737 795 758 788 776 788 C 792 788 807 790 821 795 C 835 800 848 809 862 821 C 875 833 889 849 904 869 C 919 889 936 914 956 944 L 1092 868 Z" unicode="~" />
<glyph horiz-adv-x="231" d="" unicode="" />
<glyph horiz-adv-x="543" d="M 157 689 L 252 1004 L 430 1004 L 413 689 L 293 0 L 37 0 L 157 689 Z M 225 1287 C 225 1310 229 1332 238 1352 C 247 1372 259 1390 275 1406 C 291 1422 309 1434 330 1443 C 350 1452 372 1456 395 1456 C 418 1456 440 1452 460 1443 C 480 1434 498 1422 514 1406 C 530 1390 542 1372 551 1352 C 560 1332 565 1310 565 1287 C 565 1263 560 1241 551 1221 C 542 1200 530 1182 514 1167 C 498 1151 480 1139 460 1130 C 440 1121 418 1117 395 1117 C 372 1117 350 1121 330 1130 C 309 1139 291 1151 275 1167 C 259 1182 247 1200 238 1221 C 229 1241 225 1263 225 1287 Z" unicode="" />
<glyph horiz-adv-x="881" d="M 922 1044 L 705 920 C 694 964 679 999 661 1025 C 642 1051 615 1065 580 1065 C 545 1065 513 1050 485 1021 C 457 991 433 953 413 907 C 393 861 377 809 366 752 C 355 695 350 639 350 584 C 350 524 359 476 378 442 C 397 408 427 391 469 391 C 486 391 503 395 519 403 C 535 411 551 422 567 436 C 582 450 597 466 611 486 C 625 505 638 526 651 549 L 809 426 C 773 367 733 316 687 273 C 641 229 588 199 530 182 L 494 -23 L 250 -23 L 289 195 C 229 220 182 264 150 328 C 118 391 102 469 102 563 C 102 649 111 730 131 807 C 150 884 176 954 210 1016 C 244 1078 283 1130 329 1174 C 375 1217 424 1248 477 1268 L 510 1456 L 754 1456 L 723 1276 C 773 1261 815 1234 849 1196 C 883 1157 907 1106 922 1044 Z" unicode="" />
<glyph horiz-adv-x="1001" d="M 1090 1303 L 922 1108 C 888 1138 853 1163 815 1181 C 777 1199 736 1208 690 1208 C 632 1208 589 1191 561 1159 C 533 1126 520 1082 520 1026 C 520 1004 522 982 526 958 C 530 934 535 911 541 889 C 546 868 550 848 553 830 C 556 812 559 793 561 774 L 793 774 L 754 563 L 547 563 C 530 499 504 439 469 384 C 434 328 395 275 352 223 L 870 223 L 831 0 L 29 0 L 66 209 C 98 239 126 268 151 296 C 175 324 197 352 216 380 C 234 408 250 438 263 468 C 276 498 287 529 295 563 L 127 563 L 166 774 L 309 774 C 305 788 302 803 298 817 C 294 831 291 845 287 860 C 280 880 275 903 271 927 C 267 951 266 978 266 1006 C 266 1075 277 1137 299 1193 C 321 1249 353 1296 393 1335 C 433 1374 480 1404 536 1425 C 591 1445 651 1456 717 1456 C 757 1456 794 1452 828 1445 C 862 1438 895 1428 925 1415 C 955 1402 984 1386 1011 1367 C 1038 1348 1064 1327 1090 1303 Z" unicode="" />
<glyph horiz-adv-x="1152" d="M 1056 392 L 940 284 L 740 500 C 692 468 636 452 572 452 C 510 452 456 468 408 500 L 208 284 L 92 392 L 300 608 C 281 634 268 660 262 686 C 255 711 252 742 252 780 C 252 812 255 842 262 870 C 268 898 281 925 300 952 L 92 1168 L 208 1276 L 408 1060 C 456 1092 510 1108 572 1108 C 636 1108 692 1092 740 1060 L 944 1276 L 1060 1156 L 852 952 C 870 925 883 898 890 872 C 896 845 900 814 900 780 C 900 716 882 658 848 608 L 1056 392 Z M 748 780 C 748 833 731 876 698 910 C 664 943 622 960 572 960 C 521 960 480 943 448 910 C 416 876 400 833 400 780 C 400 726 416 684 450 652 C 483 620 524 604 572 604 C 625 604 668 620 700 652 C 732 684 748 726 748 780 Z" unicode="" />
<glyph horiz-adv-x="1016" d="M 1077 1434 L 557 506 L 547 449 L 762 449 L 723 229 L 508 229 L 467 0 L 227 0 L 268 229 L 53 229 L 92 449 L 307 449 L 315 502 L 123 1434 L 406 1434 L 449 1143 C 453 1116 457 1086 462 1053 C 466 1020 471 987 475 954 C 479 921 482 890 485 861 C 487 831 489 807 489 788 C 497 808 507 832 520 862 C 533 891 547 922 563 954 C 578 986 593 1019 609 1052 C 625 1085 639 1115 653 1143 L 799 1434 L 1077 1434 Z" unicode="" />
<glyph horiz-adv-x="640" d="M 216 788 L 216 1636 L 424 1636 L 424 788 L 216 788 Z M 216 -412 L 216 440 L 424 440 L 424 -412 L 216 -412 Z" unicode="" />
<glyph horiz-adv-x="1079" d="M 745 219 C 766 195 782 170 792 144 C 802 117 807 87 807 53 C 807 -5 796 -58 774 -106 C 752 -154 721 -195 682 -229 C 642 -263 595 -289 541 -308 C 486 -326 426 -336 360 -336 C 293 -336 232 -325 177 -304 C 122 -283 70 -255 20 -219 L 166 -20 C 200 -45 236 -65 276 -81 C 315 -96 355 -104 397 -104 C 445 -104 482 -94 507 -74 C 532 -54 545 -26 545 10 C 545 24 542 36 536 48 C 530 60 519 72 505 85 C 490 97 470 111 446 126 C 421 140 390 158 354 178 C 308 203 268 228 235 253 C 201 278 174 304 152 331 C 130 358 113 387 103 417 C 93 447 88 480 88 516 C 88 564 94 608 107 648 C 119 687 137 722 159 754 C 181 786 206 814 236 838 C 265 862 296 883 330 901 C 290 945 270 999 270 1065 C 270 1124 280 1178 300 1226 C 320 1274 350 1316 388 1350 C 426 1384 471 1410 525 1428 C 579 1446 639 1456 705 1456 C 771 1456 834 1445 892 1424 C 950 1403 1005 1375 1055 1339 L 909 1141 C 875 1165 838 1185 799 1201 C 759 1217 719 1225 678 1225 C 632 1225 596 1215 570 1196 C 544 1176 532 1149 532 1114 C 532 1100 534 1086 540 1074 C 546 1062 556 1049 570 1036 C 584 1023 604 1009 628 994 C 652 979 683 962 721 942 C 765 918 803 895 837 871 C 870 847 898 822 921 796 C 943 770 960 741 972 710 C 983 679 989 644 989 606 C 989 558 982 514 970 475 C 957 436 940 401 918 369 C 896 337 870 309 840 285 C 810 260 779 238 745 219 Z M 727 557 C 727 576 723 594 717 610 C 710 626 699 641 685 657 C 671 672 652 687 629 703 C 605 718 577 735 543 754 C 535 758 527 762 519 766 C 511 770 504 774 498 778 C 449 753 412 723 386 689 C 360 654 348 614 348 569 C 348 549 351 530 358 514 C 364 497 375 481 390 465 C 405 449 424 434 448 418 C 472 402 501 385 535 367 C 542 362 549 358 557 354 C 564 350 571 346 578 342 C 677 392 727 464 727 557 Z" unicode="" />
<glyph horiz-adv-x="819" d="M 840 1364 C 840 1344 836 1326 828 1308 C 820 1290 809 1275 796 1262 C 782 1248 767 1238 749 1230 C 731 1222 713 1219 694 1219 C 674 1219 655 1222 637 1230 C 619 1238 604 1248 590 1262 C 576 1275 566 1290 558 1308 C 550 1326 547 1344 547 1364 C 547 1384 550 1402 558 1420 C 566 1438 576 1453 590 1467 C 604 1481 619 1491 637 1499 C 655 1507 674 1511 694 1511 C 713 1511 731 1507 749 1499 C 767 1491 782 1481 796 1467 C 809 1453 820 1438 828 1420 C 836 1402 840 1384 840 1364 Z M 449 1364 C 449 1344 445 1326 437 1308 C 429 1290 418 1275 405 1262 C 391 1248 376 1238 358 1230 C 340 1222 322 1219 303 1219 C 283 1219 264 1222 246 1230 C 228 1238 213 1248 199 1262 C 185 1275 175 1290 167 1308 C 159 1326 156 1344 156 1364 C 156 1384 159 1402 167 1420 C 175 1438 185 1453 199 1467 C 213 1481 228 1491 246 1499 C 264 1507 283 1511 303 1511 C 322 1511 340 1507 358 1499 C 376 1491 391 1481 405 1467 C 418 1453 429 1438 437 1420 C 445 1402 449 1384 449 1364 Z" unicode="" />
<glyph horiz-adv-x="1323" d="M 1221 717 C 1221 605 1206 503 1178 412 C 1149 320 1109 242 1059 178 C 1008 114 948 64 878 29 C 808 -5 733 -23 651 -23 C 569 -23 493 -5 424 29 C 354 64 294 114 244 178 C 193 242 153 320 125 412 C 96 503 82 605 82 717 C 82 829 96 930 125 1021 C 153 1112 193 1190 244 1254 C 294 1318 354 1368 424 1403 C 493 1438 569 1456 651 1456 C 733 1456 808 1438 878 1403 C 948 1368 1008 1318 1059 1254 C 1109 1190 1149 1112 1178 1021 C 1206 930 1221 829 1221 717 Z M 1096 713 C 1096 805 1085 890 1064 967 C 1043 1043 1013 1109 974 1164 C 935 1219 888 1262 834 1292 C 779 1322 718 1337 651 1337 C 583 1337 521 1322 467 1293 C 412 1263 365 1222 327 1168 C 288 1114 258 1050 238 974 C 217 898 207 814 207 721 C 207 627 217 542 238 466 C 259 389 289 323 328 268 C 367 213 414 171 469 141 C 524 111 586 96 655 96 C 722 96 783 110 837 140 C 891 169 938 210 976 264 C 1014 318 1044 383 1065 459 C 1085 535 1096 619 1096 713 Z M 887 512 C 867 445 839 394 802 358 C 765 322 716 305 655 305 C 610 305 571 315 539 337 C 506 358 479 387 458 425 C 436 462 420 506 410 556 C 400 606 395 661 395 719 C 395 777 400 831 411 881 C 421 931 437 975 459 1013 C 481 1051 508 1080 541 1102 C 573 1124 612 1135 657 1135 C 691 1135 721 1129 746 1119 C 771 1109 793 1094 811 1076 C 829 1058 843 1036 855 1011 C 867 986 877 959 885 930 L 750 887 C 739 923 727 950 714 966 C 701 982 681 991 655 991 C 616 991 588 967 570 920 C 552 872 543 806 543 721 C 543 635 552 569 571 521 C 589 473 618 449 657 449 C 669 449 680 450 690 454 C 700 458 709 464 717 473 C 725 482 733 494 740 509 C 747 523 754 541 762 563 L 887 512 Z" unicode="" />
<glyph horiz-adv-x="811" d="M 655 567 L 461 567 L 471 627 C 446 601 418 581 388 568 C 358 555 329 549 301 549 C 235 549 183 568 147 608 C 110 647 92 704 92 778 C 92 836 100 888 117 934 C 134 979 157 1017 187 1048 C 216 1079 250 1103 289 1119 C 328 1135 370 1143 414 1143 C 432 1143 448 1142 462 1140 C 476 1138 488 1136 499 1133 C 510 1130 520 1126 529 1122 C 537 1118 546 1113 555 1108 L 567 1174 C 568 1179 569 1185 570 1191 C 570 1197 571 1202 571 1206 C 571 1226 564 1244 551 1259 C 537 1274 514 1282 481 1282 C 444 1282 412 1277 384 1269 C 356 1261 327 1247 297 1229 L 242 1370 C 287 1398 332 1419 377 1434 C 421 1448 470 1456 524 1456 C 609 1456 671 1438 710 1404 C 748 1370 768 1319 768 1251 C 768 1237 767 1223 765 1208 C 763 1192 762 1178 760 1165 L 655 567 Z M 500 795 L 524 934 C 517 940 510 946 504 952 C 497 957 489 961 481 965 C 472 969 462 972 451 974 C 440 976 427 977 412 977 C 396 977 380 972 366 964 C 352 956 339 944 328 930 C 317 916 308 899 302 879 C 296 859 293 837 293 815 C 293 753 321 723 377 723 C 400 723 422 729 444 743 C 466 757 484 774 500 795 Z" unicode="" />
<glyph horiz-adv-x="1044" d="M 866 0 L 625 0 L 442 537 L 815 1075 L 1057 1075 L 694 539 L 866 0 Z M 453 0 L 211 0 L 29 537 L 401 1075 L 643 1075 L 281 539 L 453 0 Z" unicode="" />
<glyph horiz-adv-x="1536" d="M 1116 352 L 1116 728 L 212 728 L 212 920 L 1296 920 L 1296 352 L 1116 352 Z" unicode="" />
<glyph horiz-adv-x="707" d="M 582 618 L 59 618 L 104 868 L 627 868 L 582 618 Z" unicode="" />
<glyph horiz-adv-x="1323" d="M 1221 717 C 1221 605 1206 503 1178 412 C 1149 320 1109 242 1059 178 C 1008 114 948 64 878 29 C 808 -5 733 -23 651 -23 C 569 -23 493 -5 424 29 C 354 64 294 114 244 178 C 193 242 153 320 125 412 C 96 503 82 605 82 717 C 82 829 96 930 125 1021 C 153 1112 193 1190 244 1254 C 294 1318 354 1368 424 1403 C 493 1438 569 1456 651 1456 C 733 1456 808 1438 878 1403 C 948 1368 1008 1318 1059 1254 C 1109 1190 1149 1112 1178 1021 C 1206 930 1221 829 1221 717 Z M 1096 713 C 1096 805 1085 890 1064 967 C 1043 1043 1013 1109 974 1164 C 935 1219 888 1262 834 1292 C 779 1322 718 1337 651 1337 C 583 1337 521 1322 467 1293 C 412 1263 365 1222 327 1168 C 288 1114 258 1050 238 974 C 217 898 207 814 207 721 C 207 627 217 542 238 466 C 259 389 289 323 328 268 C 367 213 414 171 469 141 C 524 111 586 96 655 96 C 722 96 783 110 837 140 C 891 169 938 210 976 264 C 1014 318 1044 383 1065 459 C 1085 535 1096 619 1096 713 Z M 913 332 L 756 332 L 631 637 L 584 637 L 584 332 L 440 332 L 440 1135 L 655 1135 C 693 1135 728 1129 760 1119 C 792 1109 819 1093 841 1072 C 863 1051 881 1025 893 994 C 905 962 911 926 911 885 C 911 828 898 782 872 746 C 846 710 814 683 774 666 L 913 332 Z M 768 881 C 768 917 758 945 740 964 C 721 983 690 993 647 993 L 584 993 L 584 770 L 655 770 C 692 770 720 779 739 798 C 758 817 768 845 768 881 Z" unicode="" />
<glyph horiz-adv-x="819" d="M 756 1249 L 223 1249 L 256 1444 L 788 1444 L 756 1249 Z" unicode="" />
<glyph horiz-adv-x="866" d="M 858 1087 C 858 1033 848 984 829 938 C 810 892 784 853 750 820 C 716 786 677 760 632 741 C 586 722 537 713 485 713 C 433 713 385 722 340 741 C 295 760 256 786 223 820 C 189 853 163 892 144 938 C 124 984 115 1033 115 1087 C 115 1138 124 1186 144 1231 C 163 1275 189 1314 223 1348 C 256 1381 295 1407 340 1427 C 385 1446 433 1456 485 1456 C 537 1456 586 1446 632 1427 C 677 1407 716 1381 750 1348 C 784 1314 810 1275 829 1231 C 848 1186 858 1138 858 1087 Z M 668 1087 C 668 1111 663 1134 653 1156 C 643 1178 630 1197 614 1214 C 598 1230 578 1243 556 1253 C 534 1263 510 1268 485 1268 C 460 1268 437 1263 415 1253 C 393 1243 374 1230 358 1214 C 342 1197 329 1178 319 1156 C 309 1134 305 1111 305 1087 C 305 1061 309 1037 319 1015 C 329 992 342 972 358 955 C 374 938 393 925 415 915 C 437 905 460 901 485 901 C 510 901 534 905 556 915 C 578 925 598 938 614 955 C 630 972 643 992 653 1015 C 663 1037 668 1061 668 1087 Z" unicode="" />
<glyph horiz-adv-x="1536" d="M 672 352 L 672 764 L 200 764 L 200 936 L 672 936 L 672 1352 L 864 1352 L 864 936 L 1340 936 L 1340 764 L 864 764 L 864 352 L 672 352 Z M 204 24 L 204 216 L 1336 216 L 1336 24 L 204 24 Z" unicode="" />
<glyph horiz-adv-x="896" d="M 56 628 L 56 768 L 400 1108 C 448 1153 485 1194 512 1230 C 538 1266 552 1306 552 1352 C 552 1386 536 1414 506 1436 C 475 1457 440 1468 400 1468 C 357 1468 316 1455 276 1430 C 236 1404 201 1377 172 1348 L 64 1456 C 104 1498 156 1536 220 1570 C 284 1603 353 1620 428 1620 C 521 1620 598 1593 658 1540 C 718 1486 748 1421 748 1344 C 748 1272 718 1202 658 1134 C 598 1066 542 1013 492 976 L 268 788 L 776 788 L 776 628 L 56 628 Z" unicode="" />
<glyph horiz-adv-x="896" d="M 48 732 L 152 864 C 194 832 238 809 284 796 C 329 782 376 776 424 776 C 490 776 540 790 572 818 C 604 846 620 882 620 928 C 620 978 597 1016 552 1040 C 506 1064 450 1076 384 1076 L 312 1076 L 312 1204 L 372 1204 C 438 1204 491 1216 530 1242 C 568 1267 588 1298 588 1336 C 588 1378 570 1409 536 1428 C 501 1446 460 1456 412 1456 C 358 1456 312 1447 272 1430 C 232 1412 200 1397 176 1384 L 88 1516 C 146 1553 206 1580 268 1596 C 329 1612 389 1620 448 1620 C 546 1620 625 1598 684 1556 C 742 1513 772 1453 772 1376 C 772 1309 751 1258 710 1222 C 668 1186 614 1161 548 1148 C 625 1140 688 1117 738 1080 C 787 1042 812 984 812 904 C 812 810 774 738 700 688 C 625 637 536 612 432 612 C 344 612 268 623 206 646 C 143 668 90 697 48 732 Z" unicode="" />
<glyph horiz-adv-x="819" d="M 967 1546 L 612 1219 L 414 1219 L 649 1546 L 967 1546 Z" unicode="" />
<glyph horiz-adv-x="1408" d="M 252 -424 C 214 -424 186 -413 168 -392 C 149 -370 140 -333 140 -280 C 140 -226 141 -168 144 -106 C 146 -43 150 25 156 100 C 161 166 165 218 168 256 C 170 293 172 317 172 328 C 174 341 176 350 176 356 C 176 361 176 365 176 368 L 176 1176 L 368 1176 L 368 320 C 368 258 395 210 450 176 C 504 141 564 124 628 124 C 716 124 792 146 858 190 C 923 234 973 297 1008 380 L 1008 1176 L 1200 1176 L 1200 308 L 1220 0 L 1056 0 L 1020 176 C 974 104 913 50 836 14 C 758 -22 670 -40 572 -40 C 537 -40 494 -31 444 -14 C 393 3 353 28 324 60 C 324 1 333 -56 352 -112 C 370 -168 380 -218 380 -264 C 380 -370 337 -424 252 -424 Z" unicode="" />
<glyph horiz-adv-x="1270" d="M 940 -379 L 725 -379 L 1012 1237 L 881 1237 L 594 -379 L 379 -379 L 537 514 L 520 514 C 460 514 406 521 358 537 C 310 553 270 576 238 606 C 205 636 180 674 163 720 C 145 766 137 819 137 879 C 137 973 153 1054 185 1124 C 217 1194 260 1251 313 1297 C 365 1343 425 1377 491 1400 C 557 1422 624 1434 692 1434 L 1260 1434 L 940 -379 Z" unicode="" />
<glyph horiz-adv-x="504" d="M 422 752 C 422 728 417 706 408 686 C 399 665 387 647 371 632 C 355 616 337 604 317 595 C 296 586 274 582 252 582 C 228 582 206 586 186 595 C 166 604 148 616 132 632 C 116 647 104 665 95 686 C 86 706 82 728 82 752 C 82 774 86 796 95 817 C 104 837 116 855 132 871 C 148 887 166 899 186 908 C 206 917 228 922 252 922 C 274 922 296 917 317 908 C 337 899 355 887 371 871 C 387 855 399 837 408 817 C 417 796 422 774 422 752 Z" unicode="" />
<glyph horiz-adv-x="819" d="M 289 -395 C 237 -395 194 -388 160 -376 C 125 -363 93 -345 63 -322 L 121 -244 C 145 -261 169 -274 192 -283 C 214 -292 239 -297 266 -297 C 340 -297 377 -269 377 -215 C 377 -200 373 -188 366 -179 C 358 -170 347 -166 332 -166 C 318 -166 307 -167 298 -170 C 288 -173 278 -178 268 -184 L 201 -156 L 274 25 L 391 25 L 348 -86 C 366 -78 392 -74 424 -74 C 458 -74 486 -85 508 -109 C 530 -133 541 -165 541 -207 C 541 -241 533 -269 519 -293 C 505 -317 486 -336 462 -351 C 438 -366 412 -377 382 -384 C 352 -391 321 -395 289 -395 Z" unicode="" />
<glyph horiz-adv-x="768" d="M 324 628 L 324 1424 L 144 1384 L 144 1528 L 392 1636 L 508 1636 L 508 628 L 324 628 Z" unicode="" />
<glyph horiz-adv-x="815" d="M 389 549 C 346 549 307 556 273 571 C 239 585 209 607 185 636 C 161 665 142 701 129 743 C 115 785 109 835 109 891 C 109 974 119 1050 139 1120 C 159 1189 187 1248 223 1298 C 259 1348 301 1386 349 1414 C 397 1442 450 1456 506 1456 C 548 1456 587 1448 621 1433 C 655 1418 685 1396 709 1367 C 733 1338 751 1302 764 1259 C 777 1215 784 1166 784 1110 C 784 1024 773 946 753 877 C 732 807 704 748 668 700 C 632 652 591 614 543 588 C 495 562 443 549 389 549 Z M 586 1106 C 586 1156 577 1195 560 1225 C 543 1255 517 1270 481 1270 C 451 1270 426 1259 404 1237 C 382 1215 364 1186 350 1151 C 336 1115 325 1076 318 1032 C 310 988 307 943 307 899 C 307 847 315 807 332 778 C 349 749 376 735 412 735 C 440 735 466 746 488 769 C 510 792 528 821 542 857 C 556 893 567 933 575 977 C 582 1021 586 1064 586 1106 Z" unicode="" />
<glyph horiz-adv-x="1044" d="M 967 539 L 596 0 L 354 0 L 715 537 L 545 1075 L 786 1075 L 967 539 Z M 553 539 L 182 0 L -59 0 L 301 537 L 131 1075 L 373 1075 L 553 539 Z" unicode="" />
<glyph horiz-adv-x="1920" d="M 368 0 L 1340 1524 L 1520 1524 L 548 0 L 368 0 Z M 292 628 L 292 1424 L 112 1384 L 112 1528 L 360 1636 L 476 1636 L 476 628 L 292 628 Z M 1540 0 L 1540 220 L 1060 220 L 1060 360 L 1512 980 L 1724 980 L 1724 376 L 1844 376 L 1844 220 L 1724 220 L 1724 0 L 1540 0 Z M 1260 368 L 1540 368 L 1540 768 L 1260 368 Z" unicode="" />
<glyph horiz-adv-x="1920" d="M 276 0 L 1248 1524 L 1428 1524 L 456 0 L 276 0 Z M 268 628 L 268 1424 L 88 1384 L 88 1528 L 336 1636 L 452 1636 L 452 628 L 268 628 Z M 1136 0 L 1136 140 L 1480 480 C 1528 525 1565 566 1592 602 C 1618 638 1632 678 1632 724 C 1632 758 1616 786 1586 808 C 1555 829 1520 840 1480 840 C 1437 840 1396 827 1356 802 C 1316 776 1281 749 1252 720 L 1144 828 C 1184 870 1236 908 1300 942 C 1364 975 1433 992 1508 992 C 1601 992 1678 965 1738 912 C 1798 858 1828 793 1828 716 C 1828 644 1798 574 1738 506 C 1678 438 1622 385 1572 348 L 1348 160 L 1856 160 L 1856 0 L 1136 0 Z" unicode="" />
<glyph horiz-adv-x="1920" d="M 440 0 L 1412 1524 L 1592 1524 L 620 0 L 440 0 Z M 48 732 L 152 864 C 194 832 238 809 284 796 C 329 782 376 776 424 776 C 490 776 540 790 572 818 C 604 846 620 882 620 928 C 620 978 597 1016 552 1040 C 506 1064 450 1076 384 1076 L 312 1076 L 312 1204 L 372 1204 C 438 1204 491 1216 530 1242 C 568 1267 588 1298 588 1336 C 588 1378 570 1409 536 1428 C 501 1446 460 1456 412 1456 C 358 1456 312 1447 272 1430 C 232 1412 200 1397 176 1384 L 88 1516 C 146 1553 206 1580 268 1596 C 329 1612 389 1620 448 1620 C 546 1620 625 1598 684 1556 C 742 1513 772 1453 772 1376 C 772 1309 751 1258 710 1222 C 668 1186 614 1161 548 1148 C 625 1140 688 1117 738 1080 C 787 1042 812 984 812 904 C 812 810 774 738 700 688 C 625 637 536 612 432 612 C 344 612 268 623 206 646 C 143 668 90 697 48 732 Z M 1564 0 L 1564 220 L 1084 220 L 1084 360 L 1536 980 L 1748 980 L 1748 376 L 1868 376 L 1868 220 L 1748 220 L 1748 0 L 1564 0 Z M 1284 368 L 1564 368 L 1564 768 L 1284 368 Z" unicode="" />
<glyph horiz-adv-x="909" d="M 289 711 C 313 728 334 746 353 765 C 371 784 388 805 402 829 C 416 852 429 878 439 907 C 449 935 458 968 465 1004 L 706 1004 C 696 948 684 898 670 855 C 655 812 636 773 613 737 C 590 701 562 667 528 636 C 494 604 453 572 405 539 C 372 516 345 489 323 457 C 301 425 291 391 291 357 C 291 319 302 288 325 265 C 347 241 384 230 436 230 C 480 230 523 242 567 267 C 610 292 654 327 698 373 L 840 211 C 810 175 778 143 744 115 C 710 86 675 61 637 41 C 599 21 558 5 515 -5 C 471 -16 425 -21 375 -21 C 323 -21 275 -15 233 -1 C 190 12 153 32 123 59 C 93 85 69 118 53 158 C 37 197 29 243 29 295 C 29 345 35 389 49 429 C 62 469 80 505 103 538 C 126 571 154 602 186 630 C 218 658 252 685 289 711 Z M 465 1287 C 465 1310 469 1332 478 1352 C 487 1372 499 1390 515 1406 C 531 1422 549 1434 570 1443 C 590 1452 612 1456 635 1456 C 658 1456 680 1452 700 1443 C 720 1434 738 1422 754 1406 C 770 1390 782 1372 791 1352 C 800 1332 805 1310 805 1287 C 805 1263 800 1241 791 1221 C 782 1200 770 1182 754 1167 C 738 1151 720 1139 700 1130 C 680 1121 658 1117 635 1117 C 612 1117 590 1121 570 1130 C 549 1139 531 1151 515 1167 C 499 1182 487 1200 478 1221 C 469 1241 465 1263 465 1287 Z" unicode="" />
<glyph horiz-adv-x="1057" d="M 887 0 L 623 0 L 608 299 L 287 299 L 166 0 L -96 0 L 522 1434 L 772 1434 L 887 0 Z M 594 539 L 586 709 C 584 736 583 766 582 799 C 581 832 580 865 580 897 C 579 929 579 959 579 987 C 579 1015 579 1039 580 1057 C 574 1038 566 1015 556 988 C 546 960 536 931 524 900 C 512 868 500 836 488 804 C 476 772 464 741 453 713 L 383 539 L 594 539 Z M 766 1526 L 582 1526 L 336 1853 L 645 1853 L 766 1526 Z" unicode="" />
<glyph horiz-adv-x="1057" d="M 887 0 L 623 0 L 608 299 L 287 299 L 166 0 L -96 0 L 522 1434 L 772 1434 L 887 0 Z M 594 539 L 586 709 C 584 736 583 766 582 799 C 581 832 580 865 580 897 C 579 929 579 959 579 987 C 579 1015 579 1039 580 1057 C 574 1038 566 1015 556 988 C 546 960 536 931 524 900 C 512 868 500 836 488 804 C 476 772 464 741 453 713 L 383 539 L 594 539 Z M 1104 1853 L 749 1526 L 551 1526 L 786 1853 L 1104 1853 Z" unicode="" />
<glyph horiz-adv-x="1057" d="M 887 0 L 623 0 L 608 299 L 287 299 L 166 0 L -96 0 L 522 1434 L 772 1434 L 887 0 Z M 594 539 L 586 709 C 584 736 583 766 582 799 C 581 832 580 865 580 897 C 579 929 579 959 579 987 C 579 1015 579 1039 580 1057 C 574 1038 566 1015 556 988 C 546 960 536 931 524 900 C 512 868 500 836 488 804 C 476 772 464 741 453 713 L 383 539 L 594 539 Z M 981 1516 L 801 1516 L 669 1665 L 485 1516 L 309 1516 L 590 1843 L 815 1843 L 981 1516 Z" unicode="" />
<glyph horiz-adv-x="1057" d="M 887 0 L 623 0 L 608 299 L 287 299 L 166 0 L -96 0 L 522 1434 L 772 1434 L 887 0 Z M 594 539 L 586 709 C 584 736 583 766 582 799 C 581 832 580 865 580 897 C 579 929 579 959 579 987 C 579 1015 579 1039 580 1057 C 574 1038 566 1015 556 988 C 546 960 536 931 524 900 C 512 868 500 836 488 804 C 476 772 464 741 453 713 L 383 539 L 594 539 Z M 1024 1786 C 1016 1744 1005 1707 989 1675 C 973 1642 955 1614 933 1591 C 911 1567 887 1549 861 1537 C 834 1525 806 1519 776 1519 C 757 1519 741 1520 727 1522 C 713 1524 701 1528 689 1533 C 677 1537 664 1543 652 1551 C 640 1558 626 1567 610 1577 C 586 1592 569 1602 558 1607 C 547 1611 536 1614 524 1614 C 507 1614 494 1607 484 1594 C 474 1581 463 1558 452 1526 L 294 1526 C 301 1566 312 1603 328 1636 C 344 1669 362 1697 384 1720 C 406 1743 430 1761 457 1773 C 483 1785 512 1792 542 1792 C 560 1792 576 1790 590 1788 C 604 1786 617 1782 629 1778 C 641 1773 653 1767 665 1760 C 677 1752 692 1744 708 1734 C 720 1726 730 1720 738 1716 C 746 1711 753 1707 759 1705 C 765 1702 771 1700 777 1699 C 782 1698 788 1698 794 1698 C 810 1698 824 1704 834 1717 C 844 1729 855 1752 866 1786 L 1024 1786 Z" unicode="" />
<glyph horiz-adv-x="1057" d="M 887 0 L 623 0 L 608 299 L 287 299 L 166 0 L -96 0 L 522 1434 L 772 1434 L 887 0 Z M 594 539 L 586 709 C 584 736 583 766 582 799 C 581 832 580 865 580 897 C 579 929 579 959 579 987 C 579 1015 579 1039 580 1057 C 574 1038 566 1015 556 988 C 546 960 536 931 524 900 C 512 868 500 836 488 804 C 476 772 464 741 453 713 L 383 539 L 594 539 Z M 1010 1671 C 1010 1651 1006 1633 998 1615 C 990 1597 979 1582 966 1569 C 952 1555 937 1545 919 1537 C 901 1529 883 1526 864 1526 C 844 1526 825 1529 807 1537 C 789 1545 774 1555 760 1569 C 746 1582 736 1597 728 1615 C 720 1633 717 1651 717 1671 C 717 1691 720 1709 728 1727 C 736 1745 746 1760 760 1774 C 774 1788 789 1798 807 1806 C 825 1814 844 1818 864 1818 C 883 1818 901 1814 919 1806 C 937 1798 952 1788 966 1774 C 979 1760 990 1745 998 1727 C 1006 1709 1010 1691 1010 1671 Z M 619 1671 C 619 1651 615 1633 607 1615 C 599 1597 588 1582 575 1569 C 561 1555 546 1545 528 1537 C 510 1529 492 1526 473 1526 C 453 1526 434 1529 416 1537 C 398 1545 383 1555 369 1569 C 355 1582 345 1597 337 1615 C 329 1633 326 1651 326 1671 C 326 1691 329 1709 337 1727 C 345 1745 355 1760 369 1774 C 383 1788 398 1798 416 1806 C 434 1814 453 1818 473 1818 C 492 1818 510 1814 528 1806 C 546 1798 561 1788 575 1774 C 588 1760 599 1745 607 1727 C 615 1709 619 1691 619 1671 Z" unicode="" />
<glyph horiz-adv-x="1057" d="M 780 1339 L 887 0 L 623 0 L 608 299 L 287 299 L 166 0 L -96 0 L 494 1368 C 468 1389 449 1415 435 1446 C 421 1477 414 1512 414 1550 C 414 1584 420 1617 432 1647 C 444 1677 461 1702 483 1724 C 505 1746 530 1763 560 1775 C 590 1787 622 1794 657 1794 C 691 1794 724 1787 754 1775 C 784 1763 809 1746 831 1724 C 853 1702 870 1677 882 1647 C 894 1617 901 1584 901 1550 C 901 1502 890 1460 868 1423 C 846 1386 817 1358 780 1339 Z M 764 1550 C 764 1565 761 1579 755 1593 C 749 1606 742 1617 733 1627 C 723 1637 712 1644 699 1650 C 685 1656 671 1659 657 1659 C 642 1659 628 1656 615 1650 C 602 1644 591 1637 582 1627 C 572 1617 565 1606 559 1593 C 553 1579 551 1565 551 1550 C 551 1534 553 1520 559 1507 C 565 1494 572 1483 582 1473 C 591 1463 602 1456 615 1450 C 628 1444 642 1442 657 1442 C 671 1442 685 1444 699 1450 C 712 1456 723 1463 733 1473 C 742 1483 749 1494 755 1507 C 761 1520 764 1534 764 1550 Z M 594 539 L 586 709 C 584 736 583 766 582 799 C 581 832 580 865 580 897 C 579 929 579 959 579 987 C 579 1015 579 1039 580 1057 C 574 1038 566 1015 556 988 C 546 960 536 931 524 900 C 512 868 500 836 488 804 C 476 772 464 741 453 713 L 383 539 L 594 539 Z" unicode="" />
<glyph horiz-adv-x="1407" d="M 1249 0 L 526 0 L 578 289 L 276 289 L 129 0 L -129 0 L 633 1434 L 1483 1434 L 1442 1196 L 981 1196 L 926 881 L 1229 881 L 1188 647 L 885 647 L 811 238 L 1290 238 L 1249 0 Z M 741 1206 C 732 1186 722 1166 712 1144 C 701 1122 690 1100 678 1077 C 666 1054 655 1031 643 1009 C 631 987 620 966 610 946 L 395 522 L 618 522 L 696 965 C 699 981 702 999 706 1020 C 710 1040 714 1061 718 1083 C 722 1105 726 1126 730 1147 C 734 1168 737 1188 741 1206 Z" unicode="" />
<glyph horiz-adv-x="963" d="M 369 -16 C 317 -6 272 13 234 42 C 196 71 164 108 140 153 C 115 198 97 250 85 309 C 73 367 68 431 68 500 C 68 582 73 663 85 743 C 97 822 114 897 136 968 C 158 1038 186 1103 220 1163 C 253 1223 291 1274 335 1318 C 378 1361 426 1395 480 1419 C 533 1443 591 1456 653 1456 C 713 1456 765 1446 807 1428 C 849 1410 884 1384 912 1352 C 940 1320 961 1281 977 1237 C 992 1193 1003 1145 1010 1094 L 758 1016 C 754 1048 748 1076 742 1100 C 735 1123 726 1142 715 1157 C 704 1171 690 1182 674 1189 C 658 1196 638 1200 614 1200 C 585 1200 558 1191 533 1173 C 508 1155 485 1131 464 1100 C 442 1069 423 1032 406 989 C 389 946 375 900 363 850 C 351 800 341 747 335 692 C 329 636 326 580 326 524 C 326 430 338 358 363 308 C 388 258 427 233 481 233 C 503 233 523 236 542 243 C 561 250 579 262 597 278 C 614 294 631 315 647 341 C 663 367 680 400 698 438 L 905 344 C 857 230 800 143 732 82 C 664 20 581 -13 483 -20 L 459 -86 C 477 -78 502 -74 535 -74 C 569 -74 596 -85 618 -108 C 640 -131 651 -163 651 -203 C 651 -237 644 -266 630 -290 C 616 -314 597 -334 574 -350 C 550 -366 523 -377 493 -384 C 462 -391 431 -395 399 -395 C 373 -395 350 -393 329 -390 C 307 -386 288 -382 270 -376 C 252 -370 235 -362 219 -353 C 203 -344 188 -334 174 -322 L 231 -244 C 256 -261 280 -274 303 -283 C 325 -292 350 -297 377 -297 C 416 -297 444 -289 461 -274 C 478 -258 487 -238 487 -213 C 487 -199 483 -188 475 -179 C 467 -170 456 -166 442 -166 C 428 -166 417 -167 408 -170 C 398 -173 389 -178 379 -184 L 311 -156 L 369 -16 Z" unicode="" />
<glyph horiz-adv-x="926" d="M 768 0 L 23 0 L 274 1434 L 1001 1434 L 958 1188 L 487 1188 L 434 885 L 748 885 L 705 643 L 391 643 L 322 246 L 811 246 L 768 0 Z M 780 1526 L 596 1526 L 350 1853 L 659 1853 L 780 1526 Z" unicode="" />
<glyph horiz-adv-x="926" d="M 768 0 L 23 0 L 274 1434 L 1001 1434 L 958 1188 L 487 1188 L 434 885 L 748 885 L 705 643 L 391 643 L 322 246 L 811 246 L 768 0 Z M 1071 1853 L 716 1526 L 518 1526 L 753 1853 L 1071 1853 Z" unicode="" />
<glyph horiz-adv-x="926" d="M 768 0 L 23 0 L 274 1434 L 1001 1434 L 958 1188 L 487 1188 L 434 885 L 748 885 L 705 643 L 391 643 L 322 246 L 811 246 L 768 0 Z M 953 1526 L 773 1526 L 641 1675 L 457 1526 L 281 1526 L 562 1853 L 787 1853 L 953 1526 Z" unicode="" />
<glyph horiz-adv-x="926" d="M 768 0 L 23 0 L 274 1434 L 1001 1434 L 958 1188 L 487 1188 L 434 885 L 748 885 L 705 643 L 391 643 L 322 246 L 811 246 L 768 0 Z M 994 1671 C 994 1651 990 1633 982 1615 C 974 1597 963 1582 950 1569 C 936 1555 921 1545 903 1537 C 885 1529 867 1526 848 1526 C 828 1526 809 1529 791 1537 C 773 1545 758 1555 744 1569 C 730 1582 720 1597 712 1615 C 704 1633 701 1651 701 1671 C 701 1691 704 1709 712 1727 C 720 1745 730 1760 744 1774 C 758 1788 773 1798 791 1806 C 809 1814 828 1818 848 1818 C 867 1818 885 1814 903 1806 C 921 1798 936 1788 950 1774 C 963 1760 974 1745 982 1727 C 990 1709 994 1691 994 1671 Z M 603 1671 C 603 1651 599 1633 591 1615 C 583 1597 572 1582 559 1569 C 545 1555 530 1545 512 1537 C 494 1529 476 1526 457 1526 C 437 1526 418 1529 400 1537 C 382 1545 367 1555 353 1569 C 339 1582 329 1597 321 1615 C 313 1633 310 1651 310 1671 C 310 1691 313 1709 321 1727 C 329 1745 339 1760 353 1774 C 367 1788 382 1798 400 1806 C 418 1814 437 1818 457 1818 C 476 1818 494 1814 512 1806 C 530 1798 545 1788 559 1774 C 572 1760 583 1745 591 1727 C 599 1709 603 1691 603 1671 Z" unicode="" />
<glyph horiz-adv-x="541" d="M 272 0 L 16 0 L 268 1434 L 524 1434 L 272 0 Z M 519 1526 L 335 1526 L 89 1853 L 398 1853 L 519 1526 Z" unicode="" />
<glyph horiz-adv-x="541" d="M 272 0 L 16 0 L 268 1434 L 524 1434 L 272 0 Z M 843 1853 L 488 1526 L 290 1526 L 525 1853 L 843 1853 Z" unicode="" />
<glyph horiz-adv-x="541" d="M 272 0 L 16 0 L 268 1434 L 524 1434 L 272 0 Z M 749 1512 L 569 1512 L 437 1661 L 253 1512 L 77 1512 L 358 1839 L 583 1839 L 749 1512 Z" unicode="" />
<glyph horiz-adv-x="541" d="M 272 0 L 16 0 L 268 1434 L 524 1434 L 272 0 Z M 747 1671 C 747 1651 743 1633 735 1615 C 727 1597 716 1582 703 1569 C 689 1555 674 1545 656 1537 C 638 1529 620 1526 601 1526 C 581 1526 562 1529 544 1537 C 526 1545 511 1555 497 1569 C 483 1582 473 1597 465 1615 C 457 1633 454 1651 454 1671 C 454 1691 457 1709 465 1727 C 473 1745 483 1760 497 1774 C 511 1788 526 1798 544 1806 C 562 1814 581 1818 601 1818 C 620 1818 638 1814 656 1806 C 674 1798 689 1788 703 1774 C 716 1760 727 1745 735 1727 C 743 1709 747 1691 747 1671 Z M 356 1671 C 356 1651 352 1633 344 1615 C 336 1597 325 1582 312 1569 C 298 1555 283 1545 265 1537 C 247 1529 229 1526 210 1526 C 190 1526 171 1529 153 1537 C 135 1545 120 1555 106 1569 C 92 1582 82 1597 74 1615 C 66 1633 63 1651 63 1671 C 63 1691 66 1709 74 1727 C 82 1745 92 1760 106 1774 C 120 1788 135 1798 153 1806 C 171 1814 190 1818 210 1818 C 229 1818 247 1814 265 1806 C 283 1798 298 1788 312 1774 C 325 1760 336 1745 344 1727 C 352 1709 356 1691 356 1671 Z" unicode="" />
<glyph horiz-adv-x="1085" d="M 133 633 L 31 633 L 72 862 L 174 862 L 274 1434 L 588 1434 C 658 1434 722 1424 778 1405 C 834 1386 881 1357 919 1318 C 957 1278 987 1228 1007 1167 C 1027 1106 1038 1034 1038 950 C 1038 793 1020 655 984 537 C 948 419 898 320 836 240 C 773 160 699 100 614 60 C 529 20 438 0 340 0 L 23 0 L 133 633 Z M 430 862 L 598 862 L 557 633 L 389 633 L 324 250 L 391 250 C 439 250 482 259 520 278 C 558 296 591 322 620 354 C 648 386 672 424 692 468 C 712 511 728 557 740 606 C 752 655 761 706 767 758 C 773 810 776 861 776 911 C 776 951 772 988 765 1022 C 757 1055 745 1084 728 1108 C 711 1132 688 1150 660 1164 C 632 1177 597 1184 555 1184 L 487 1184 L 430 862 Z" unicode="" />
<glyph horiz-adv-x="1104" d="M 846 0 L 604 0 L 457 639 C 451 661 446 685 441 710 C 435 735 430 760 425 786 C 419 812 414 837 410 861 C 406 885 402 908 399 930 C 395 908 391 882 387 854 C 382 826 377 797 373 767 C 368 737 363 708 359 680 C 354 652 350 626 346 604 L 240 0 L 6 0 L 258 1434 L 516 1434 L 657 805 C 661 783 666 760 671 734 C 676 708 681 681 686 655 C 690 628 695 602 699 576 C 703 550 707 526 711 506 C 713 528 717 553 721 582 C 725 611 729 641 733 672 C 737 702 742 732 747 762 C 751 791 756 817 760 840 L 864 1434 L 1098 1434 L 846 0 Z M 1076 1786 C 1068 1744 1057 1707 1041 1675 C 1025 1642 1007 1614 985 1591 C 963 1567 939 1549 913 1537 C 886 1525 858 1519 828 1519 C 809 1519 793 1520 779 1522 C 765 1524 753 1528 741 1533 C 729 1537 716 1543 704 1551 C 692 1558 678 1567 662 1577 C 638 1592 621 1602 610 1607 C 599 1611 588 1614 576 1614 C 559 1614 546 1607 536 1594 C 526 1581 515 1558 504 1526 L 346 1526 C 353 1566 364 1603 380 1636 C 396 1669 414 1697 436 1720 C 458 1743 482 1761 509 1773 C 535 1785 564 1792 594 1792 C 612 1792 628 1790 642 1788 C 656 1786 669 1782 681 1778 C 693 1773 705 1767 717 1760 C 729 1752 744 1744 760 1734 C 772 1726 782 1720 790 1716 C 798 1711 805 1707 811 1705 C 817 1702 823 1700 829 1699 C 834 1698 840 1698 846 1698 C 862 1698 876 1704 886 1717 C 896 1729 907 1752 918 1786 L 1076 1786 Z" unicode="" />
<glyph horiz-adv-x="1108" d="M 459 -23 C 389 -23 330 -9 280 17 C 230 43 190 80 158 128 C 126 175 102 231 88 297 C 73 362 66 434 68 512 C 68 592 74 672 86 750 C 97 828 113 902 135 972 C 157 1042 184 1106 216 1166 C 248 1225 285 1276 328 1319 C 370 1362 418 1396 472 1420 C 525 1444 584 1456 649 1456 C 717 1456 777 1442 827 1416 C 877 1390 919 1353 951 1306 C 983 1259 1007 1203 1022 1139 C 1037 1074 1044 1003 1042 926 C 1040 848 1033 770 1022 693 C 1011 615 995 541 974 471 C 952 401 926 335 894 275 C 862 215 825 162 783 118 C 740 74 692 39 638 14 C 584 -10 524 -23 459 -23 Z M 782 920 C 784 1010 771 1080 745 1128 C 719 1176 677 1200 621 1200 C 589 1200 559 1190 533 1172 C 506 1153 482 1127 461 1095 C 439 1063 420 1025 404 981 C 388 937 374 890 363 839 C 352 788 344 735 338 680 C 332 624 328 569 328 514 C 326 423 337 353 363 305 C 388 257 429 233 487 233 C 518 233 547 242 574 261 C 600 279 624 305 646 337 C 667 369 686 408 703 452 C 719 496 733 543 745 594 C 756 645 765 698 771 754 C 777 809 780 864 782 920 Z M 776 1526 L 592 1526 L 346 1853 L 655 1853 L 776 1526 Z" unicode="" />
<glyph horiz-adv-x="1108" d="M 459 -23 C 389 -23 330 -9 280 17 C 230 43 190 80 158 128 C 126 175 102 231 88 297 C 73 362 66 434 68 512 C 68 592 74 672 86 750 C 97 828 113 902 135 972 C 157 1042 184 1106 216 1166 C 248 1225 285 1276 328 1319 C 370 1362 418 1396 472 1420 C 525 1444 584 1456 649 1456 C 717 1456 777 1442 827 1416 C 877 1390 919 1353 951 1306 C 983 1259 1007 1203 1022 1139 C 1037 1074 1044 1003 1042 926 C 1040 848 1033 770 1022 693 C 1011 615 995 541 974 471 C 952 401 926 335 894 275 C 862 215 825 162 783 118 C 740 74 692 39 638 14 C 584 -10 524 -23 459 -23 Z M 782 920 C 784 1010 771 1080 745 1128 C 719 1176 677 1200 621 1200 C 589 1200 559 1190 533 1172 C 506 1153 482 1127 461 1095 C 439 1063 420 1025 404 981 C 388 937 374 890 363 839 C 352 788 344 735 338 680 C 332 624 328 569 328 514 C 326 423 337 353 363 305 C 388 257 429 233 487 233 C 518 233 547 242 574 261 C 600 279 624 305 646 337 C 667 369 686 408 703 452 C 719 496 733 543 745 594 C 756 645 765 698 771 754 C 777 809 780 864 782 920 Z M 1108 1853 L 753 1526 L 555 1526 L 790 1853 L 1108 1853 Z" unicode="" />
<glyph horiz-adv-x="1108" d="M 459 -23 C 389 -23 330 -9 280 17 C 230 43 190 80 158 128 C 126 175 102 231 88 297 C 73 362 66 434 68 512 C 68 592 74 672 86 750 C 97 828 113 902 135 972 C 157 1042 184 1106 216 1166 C 248 1225 285 1276 328 1319 C 370 1362 418 1396 472 1420 C 525 1444 584 1456 649 1456 C 717 1456 777 1442 827 1416 C 877 1390 919 1353 951 1306 C 983 1259 1007 1203 1022 1139 C 1037 1074 1044 1003 1042 926 C 1040 848 1033 770 1022 693 C 1011 615 995 541 974 471 C 952 401 926 335 894 275 C 862 215 825 162 783 118 C 740 74 692 39 638 14 C 584 -10 524 -23 459 -23 Z M 782 920 C 784 1010 771 1080 745 1128 C 719 1176 677 1200 621 1200 C 589 1200 559 1190 533 1172 C 506 1153 482 1127 461 1095 C 439 1063 420 1025 404 981 C 388 937 374 890 363 839 C 352 788 344 735 338 680 C 332 624 328 569 328 514 C 326 423 337 353 363 305 C 388 257 429 233 487 233 C 518 233 547 242 574 261 C 600 279 624 305 646 337 C 667 369 686 408 703 452 C 719 496 733 543 745 594 C 756 645 765 698 771 754 C 777 809 780 864 782 920 Z M 1002 1516 L 822 1516 L 690 1665 L 506 1516 L 330 1516 L 611 1843 L 836 1843 L 1002 1516 Z" unicode="" />
<glyph horiz-adv-x="1108" d="M 459 -23 C 389 -23 330 -9 280 17 C 230 43 190 80 158 128 C 126 175 102 231 88 297 C 73 362 66 434 68 512 C 68 592 74 672 86 750 C 97 828 113 902 135 972 C 157 1042 184 1106 216 1166 C 248 1225 285 1276 328 1319 C 370 1362 418 1396 472 1420 C 525 1444 584 1456 649 1456 C 717 1456 777 1442 827 1416 C 877 1390 919 1353 951 1306 C 983 1259 1007 1203 1022 1139 C 1037 1074 1044 1003 1042 926 C 1040 848 1033 770 1022 693 C 1011 615 995 541 974 471 C 952 401 926 335 894 275 C 862 215 825 162 783 118 C 740 74 692 39 638 14 C 584 -10 524 -23 459 -23 Z M 782 920 C 784 1010 771 1080 745 1128 C 719 1176 677 1200 621 1200 C 589 1200 559 1190 533 1172 C 506 1153 482 1127 461 1095 C 439 1063 420 1025 404 981 C 388 937 374 890 363 839 C 352 788 344 735 338 680 C 332 624 328 569 328 514 C 326 423 337 353 363 305 C 388 257 429 233 487 233 C 518 233 547 242 574 261 C 600 279 624 305 646 337 C 667 369 686 408 703 452 C 719 496 733 543 745 594 C 756 645 765 698 771 754 C 777 809 780 864 782 920 Z M 1055 1786 C 1047 1744 1036 1707 1020 1675 C 1004 1642 986 1614 964 1591 C 942 1567 918 1549 892 1537 C 865 1525 837 1519 807 1519 C 788 1519 772 1520 758 1522 C 744 1524 732 1528 720 1533 C 708 1537 695 1543 683 1551 C 671 1558 657 1567 641 1577 C 617 1592 600 1602 589 1607 C 578 1611 567 1614 555 1614 C 538 1614 525 1607 515 1594 C 505 1581 494 1558 483 1526 L 325 1526 C 332 1566 343 1603 359 1636 C 375 1669 393 1697 415 1720 C 437 1743 461 1761 488 1773 C 514 1785 543 1792 573 1792 C 591 1792 607 1790 621 1788 C 635 1786 648 1782 660 1778 C 672 1773 684 1767 696 1760 C 708 1752 723 1744 739 1734 C 751 1726 761 1720 769 1716 C 777 1711 784 1707 790 1705 C 796 1702 802 1700 808 1699 C 813 1698 819 1698 825 1698 C 841 1698 855 1704 865 1717 C 875 1729 886 1752 897 1786 L 1055 1786 Z" unicode="" />
<glyph horiz-adv-x="1108" d="M 459 -23 C 389 -23 330 -9 280 17 C 230 43 190 80 158 128 C 126 175 102 231 88 297 C 73 362 66 434 68 512 C 68 592 74 672 86 750 C 97 828 113 902 135 972 C 157 1042 184 1106 216 1166 C 248 1225 285 1276 328 1319 C 370 1362 418 1396 472 1420 C 525 1444 584 1456 649 1456 C 717 1456 777 1442 827 1416 C 877 1390 919 1353 951 1306 C 983 1259 1007 1203 1022 1139 C 1037 1074 1044 1003 1042 926 C 1040 848 1033 770 1022 693 C 1011 615 995 541 974 471 C 952 401 926 335 894 275 C 862 215 825 162 783 118 C 740 74 692 39 638 14 C 584 -10 524 -23 459 -23 Z M 782 920 C 784 1010 771 1080 745 1128 C 719 1176 677 1200 621 1200 C 589 1200 559 1190 533 1172 C 506 1153 482 1127 461 1095 C 439 1063 420 1025 404 981 C 388 937 374 890 363 839 C 352 788 344 735 338 680 C 332 624 328 569 328 514 C 326 423 337 353 363 305 C 388 257 429 233 487 233 C 518 233 547 242 574 261 C 600 279 624 305 646 337 C 667 369 686 408 703 452 C 719 496 733 543 745 594 C 756 645 765 698 771 754 C 777 809 780 864 782 920 Z M 1016 1671 C 1016 1651 1012 1633 1004 1615 C 996 1597 985 1582 972 1569 C 958 1555 943 1545 925 1537 C 907 1529 889 1526 870 1526 C 850 1526 831 1529 813 1537 C 795 1545 780 1555 766 1569 C 752 1582 742 1597 734 1615 C 726 1633 723 1651 723 1671 C 723 1691 726 1709 734 1727 C 742 1745 752 1760 766 1774 C 780 1788 795 1798 813 1806 C 831 1814 850 1818 870 1818 C 889 1818 907 1814 925 1806 C 943 1798 958 1788 972 1774 C 985 1760 996 1745 1004 1727 C 1012 1709 1016 1691 1016 1671 Z M 625 1671 C 625 1651 621 1633 613 1615 C 605 1597 594 1582 581 1569 C 567 1555 552 1545 534 1537 C 516 1529 498 1526 479 1526 C 459 1526 440 1529 422 1537 C 404 1545 389 1555 375 1569 C 361 1582 351 1597 343 1615 C 335 1633 332 1651 332 1671 C 332 1691 335 1709 343 1727 C 351 1745 361 1760 375 1774 C 389 1788 404 1798 422 1806 C 440 1814 459 1818 479 1818 C 498 1818 516 1814 534 1806 C 552 1798 567 1788 581 1774 C 594 1760 605 1745 613 1727 C 621 1709 625 1691 625 1671 Z" unicode="" />
<glyph horiz-adv-x="1536" d="M 472 376 L 352 492 L 648 792 L 352 1088 L 480 1212 L 768 912 L 1068 1204 L 1184 1088 L 892 792 L 1184 492 L 1068 376 L 768 668 L 472 376 Z" unicode="" />
<glyph horiz-adv-x="1108" d="M 141 147 C 115 191 96 243 84 302 C 72 360 66 424 66 494 C 66 574 71 653 82 731 C 93 809 109 884 131 956 C 153 1027 180 1093 213 1154 C 246 1215 285 1268 329 1313 C 373 1357 422 1392 477 1418 C 532 1443 593 1456 659 1456 C 690 1456 719 1453 745 1448 C 771 1442 796 1434 819 1423 L 879 1536 L 1102 1536 L 969 1284 C 994 1238 1012 1186 1024 1126 C 1036 1066 1042 1002 1042 932 C 1042 851 1036 771 1025 693 C 1014 615 997 540 975 470 C 953 399 925 333 892 273 C 859 213 821 161 777 117 C 733 73 684 38 629 14 C 574 -10 514 -23 449 -23 C 417 -23 389 -20 363 -15 C 337 -9 313 -2 291 8 C 282 -7 274 -21 267 -35 C 260 -48 254 -60 249 -70 C 242 -82 236 -92 231 -102 L 8 -102 L 141 147 Z M 313 471 L 698 1198 C 688 1203 677 1207 665 1210 C 653 1212 641 1214 627 1214 C 593 1214 561 1205 533 1188 C 504 1170 478 1146 455 1116 C 431 1085 411 1048 393 1006 C 375 963 361 916 349 865 C 337 814 328 760 322 703 C 316 646 313 588 313 528 L 313 471 Z M 795 956 L 603 596 C 579 550 555 506 532 463 C 509 420 489 382 471 348 C 453 314 438 287 427 267 C 415 246 410 236 410 236 C 430 224 454 219 481 219 C 531 219 575 237 614 275 C 652 312 685 362 712 424 C 739 486 760 558 774 640 C 788 721 795 806 795 895 L 795 956 Z" unicode="" />
<glyph horiz-adv-x="1108" d="M 958 573 C 948 519 938 467 927 417 C 915 367 901 323 885 285 C 864 235 840 190 813 152 C 786 114 755 82 720 56 C 685 30 646 10 602 -3 C 558 -16 510 -23 457 -23 C 382 -23 319 -10 268 16 C 216 42 176 79 148 129 C 119 179 102 240 96 312 C 90 384 96 467 113 559 L 266 1434 L 522 1434 L 367 541 C 357 483 351 434 350 394 C 348 354 352 322 362 298 C 371 273 386 255 406 245 C 426 234 453 229 487 229 C 533 229 569 242 597 268 C 624 294 646 335 664 393 C 665 397 667 406 670 418 C 673 430 676 445 680 461 C 684 477 687 495 691 514 C 695 532 698 551 702 569 L 854 1434 L 1110 1434 L 958 573 Z M 836 1506 L 652 1506 L 406 1833 L 715 1833 L 836 1506 Z" unicode="" />
<glyph horiz-adv-x="1108" d="M 958 573 C 948 519 938 467 927 417 C 915 367 901 323 885 285 C 864 235 840 190 813 152 C 786 114 755 82 720 56 C 685 30 646 10 602 -3 C 558 -16 510 -23 457 -23 C 382 -23 319 -10 268 16 C 216 42 176 79 148 129 C 119 179 102 240 96 312 C 90 384 96 467 113 559 L 266 1434 L 522 1434 L 367 541 C 357 483 351 434 350 394 C 348 354 352 322 362 298 C 371 273 386 255 406 245 C 426 234 453 229 487 229 C 533 229 569 242 597 268 C 624 294 646 335 664 393 C 665 397 667 406 670 418 C 673 430 676 445 680 461 C 684 477 687 495 691 514 C 695 532 698 551 702 569 L 854 1434 L 1110 1434 L 958 573 Z M 1125 1833 L 770 1506 L 572 1506 L 807 1833 L 1125 1833 Z" unicode="" />
<glyph horiz-adv-x="1108" d="M 958 573 C 948 519 938 467 927 417 C 915 367 901 323 885 285 C 864 235 840 190 813 152 C 786 114 755 82 720 56 C 685 30 646 10 602 -3 C 558 -16 510 -23 457 -23 C 382 -23 319 -10 268 16 C 216 42 176 79 148 129 C 119 179 102 240 96 312 C 90 384 96 467 113 559 L 266 1434 L 522 1434 L 367 541 C 357 483 351 434 350 394 C 348 354 352 322 362 298 C 371 273 386 255 406 245 C 426 234 453 229 487 229 C 533 229 569 242 597 268 C 624 294 646 335 664 393 C 665 397 667 406 670 418 C 673 430 676 445 680 461 C 684 477 687 495 691 514 C 695 532 698 551 702 569 L 854 1434 L 1110 1434 L 958 573 Z M 1028 1526 L 848 1526 L 716 1675 L 532 1526 L 356 1526 L 637 1853 L 862 1853 L 1028 1526 Z" unicode="" />
<glyph horiz-adv-x="1108" d="M 958 573 C 948 519 938 467 927 417 C 915 367 901 323 885 285 C 864 235 840 190 813 152 C 786 114 755 82 720 56 C 685 30 646 10 602 -3 C 558 -16 510 -23 457 -23 C 382 -23 319 -10 268 16 C 216 42 176 79 148 129 C 119 179 102 240 96 312 C 90 384 96 467 113 559 L 266 1434 L 522 1434 L 367 541 C 357 483 351 434 350 394 C 348 354 352 322 362 298 C 371 273 386 255 406 245 C 426 234 453 229 487 229 C 533 229 569 242 597 268 C 624 294 646 335 664 393 C 665 397 667 406 670 418 C 673 430 676 445 680 461 C 684 477 687 495 691 514 C 695 532 698 551 702 569 L 854 1434 L 1110 1434 L 958 573 Z M 1053 1671 C 1053 1651 1049 1633 1041 1615 C 1033 1597 1022 1582 1009 1569 C 995 1555 980 1545 962 1537 C 944 1529 926 1526 907 1526 C 887 1526 868 1529 850 1537 C 832 1545 817 1555 803 1569 C 789 1582 779 1597 771 1615 C 763 1633 760 1651 760 1671 C 760 1691 763 1709 771 1727 C 779 1745 789 1760 803 1774 C 817 1788 832 1798 850 1806 C 868 1814 887 1818 907 1818 C 926 1818 944 1814 962 1806 C 980 1798 995 1788 1009 1774 C 1022 1760 1033 1745 1041 1727 C 1049 1709 1053 1691 1053 1671 Z M 662 1671 C 662 1651 658 1633 650 1615 C 642 1597 631 1582 618 1569 C 604 1555 589 1545 571 1537 C 553 1529 535 1526 516 1526 C 496 1526 477 1529 459 1537 C 441 1545 426 1555 412 1569 C 398 1582 388 1597 380 1615 C 372 1633 369 1651 369 1671 C 369 1691 372 1709 380 1727 C 388 1745 398 1760 412 1774 C 426 1788 441 1798 459 1806 C 477 1814 496 1818 516 1818 C 535 1818 553 1814 571 1806 C 589 1798 604 1788 618 1774 C 631 1760 642 1745 650 1727 C 658 1709 662 1691 662 1671 Z" unicode="" />
<glyph horiz-adv-x="1024" d="M 1137 1434 L 610 541 L 514 0 L 258 0 L 352 537 L 141 1434 L 424 1434 L 483 1143 C 489 1111 494 1079 500 1047 C 506 1015 511 984 516 954 C 520 924 524 897 527 872 C 529 846 531 825 532 809 C 538 825 547 847 559 873 C 571 899 584 927 599 957 C 613 987 629 1018 646 1050 C 663 1082 680 1113 696 1143 L 858 1434 L 1137 1434 Z M 1086 1827 L 731 1500 L 533 1500 L 768 1827 L 1086 1827 Z" unicode="" />
<glyph horiz-adv-x="1012" d="M 608 1208 C 732 1208 826 1177 892 1115 C 958 1053 991 960 991 836 C 991 772 983 714 968 662 C 953 610 932 563 906 523 C 880 482 849 447 813 418 C 777 388 739 364 698 345 C 656 326 613 312 569 303 C 524 293 480 289 436 289 L 330 289 L 279 0 L 23 0 L 274 1434 L 530 1434 L 492 1208 L 608 1208 Z M 731 795 C 731 819 728 841 723 861 C 717 881 708 898 695 912 C 682 926 665 938 643 946 C 621 954 595 958 563 958 L 449 958 L 375 539 L 494 539 C 568 539 626 561 668 606 C 710 650 731 713 731 795 Z" unicode="" />
<glyph horiz-adv-x="1026" d="M 379 0 L 348 0 L 387 221 L 412 221 C 448 221 482 227 513 239 C 544 251 571 269 594 294 C 616 318 634 350 647 388 C 659 426 666 472 666 524 C 666 554 661 581 653 603 C 644 625 632 644 616 658 C 600 672 581 683 559 690 C 537 696 513 700 487 700 L 471 700 L 510 920 L 528 920 C 556 920 583 924 607 934 C 631 944 651 958 668 977 C 685 995 698 1018 708 1046 C 718 1074 723 1105 723 1141 C 723 1181 711 1211 689 1231 C 667 1251 637 1262 600 1262 C 550 1262 510 1248 482 1221 C 453 1194 434 1153 424 1098 L 180 -274 L -82 -395 L 180 1087 C 192 1157 211 1217 237 1267 C 263 1317 296 1359 334 1391 C 372 1423 417 1447 467 1463 C 517 1479 573 1487 635 1487 C 687 1487 734 1480 776 1466 C 818 1452 853 1431 882 1405 C 910 1379 932 1347 948 1309 C 963 1271 971 1229 971 1182 C 971 1134 965 1090 953 1052 C 941 1014 925 980 904 950 C 883 920 858 894 828 873 C 798 852 765 835 729 823 C 755 812 779 799 801 783 C 823 767 843 748 859 726 C 875 703 888 676 897 646 C 906 616 911 581 911 541 C 911 457 899 382 875 316 C 851 249 817 192 772 146 C 727 99 671 63 605 38 C 539 12 463 0 379 0 Z" unicode="" />
<glyph horiz-adv-x="909" d="M 674 0 L 432 0 L 444 74 C 415 42 382 19 344 3 C 306 -12 270 -20 236 -20 C 194 -20 158 -13 126 0 C 94 14 67 33 45 59 C 23 84 6 115 -5 151 C -17 187 -23 227 -23 272 C -23 340 -12 401 9 455 C 31 509 60 555 97 593 C 133 631 176 660 224 680 C 272 700 323 711 377 711 C 422 711 458 706 484 698 C 510 689 532 679 549 668 L 565 750 C 566 757 567 764 568 770 C 568 776 569 782 569 788 C 567 816 558 838 542 856 C 526 874 498 883 459 883 C 413 883 372 876 335 864 C 298 852 263 836 229 817 L 164 993 C 216 1025 270 1050 328 1069 C 386 1088 448 1098 514 1098 C 618 1098 695 1077 743 1035 C 791 993 815 930 815 846 C 815 829 814 812 812 794 C 810 776 808 758 805 739 L 674 0 Z M 481 283 L 512 455 C 495 471 476 483 455 492 C 434 501 407 506 375 506 C 355 506 336 501 318 492 C 300 482 284 469 271 452 C 257 435 247 415 239 392 C 231 368 227 343 227 315 C 227 294 230 276 236 261 C 242 246 250 234 260 224 C 270 214 282 206 296 202 C 309 197 323 195 338 195 C 364 195 390 202 415 217 C 440 231 462 253 481 283 Z M 645 1219 L 461 1219 L 215 1546 L 524 1546 L 645 1219 Z" unicode="" />
<glyph horiz-adv-x="909" d="M 674 0 L 432 0 L 444 74 C 415 42 382 19 344 3 C 306 -12 270 -20 236 -20 C 194 -20 158 -13 126 0 C 94 14 67 33 45 59 C 23 84 6 115 -5 151 C -17 187 -23 227 -23 272 C -23 340 -12 401 9 455 C 31 509 60 555 97 593 C 133 631 176 660 224 680 C 272 700 323 711 377 711 C 422 711 458 706 484 698 C 510 689 532 679 549 668 L 565 750 C 566 757 567 764 568 770 C 568 776 569 782 569 788 C 567 816 558 838 542 856 C 526 874 498 883 459 883 C 413 883 372 876 335 864 C 298 852 263 836 229 817 L 164 993 C 216 1025 270 1050 328 1069 C 386 1088 448 1098 514 1098 C 618 1098 695 1077 743 1035 C 791 993 815 930 815 846 C 815 829 814 812 812 794 C 810 776 808 758 805 739 L 674 0 Z M 481 283 L 512 455 C 495 471 476 483 455 492 C 434 501 407 506 375 506 C 355 506 336 501 318 492 C 300 482 284 469 271 452 C 257 435 247 415 239 392 C 231 368 227 343 227 315 C 227 294 230 276 236 261 C 242 246 250 234 260 224 C 270 214 282 206 296 202 C 309 197 323 195 338 195 C 364 195 390 202 415 217 C 440 231 462 253 481 283 Z M 973 1546 L 618 1219 L 420 1219 L 655 1546 L 973 1546 Z" unicode="" />
<glyph horiz-adv-x="909" d="M 674 0 L 432 0 L 444 74 C 415 42 382 19 344 3 C 306 -12 270 -20 236 -20 C 194 -20 158 -13 126 0 C 94 14 67 33 45 59 C 23 84 6 115 -5 151 C -17 187 -23 227 -23 272 C -23 340 -12 401 9 455 C 31 509 60 555 97 593 C 133 631 176 660 224 680 C 272 700 323 711 377 711 C 422 711 458 706 484 698 C 510 689 532 679 549 668 L 565 750 C 566 757 567 764 568 770 C 568 776 569 782 569 788 C 567 816 558 838 542 856 C 526 874 498 883 459 883 C 413 883 372 876 335 864 C 298 852 263 836 229 817 L 164 993 C 216 1025 270 1050 328 1069 C 386 1088 448 1098 514 1098 C 618 1098 695 1077 743 1035 C 791 993 815 930 815 846 C 815 829 814 812 812 794 C 810 776 808 758 805 739 L 674 0 Z M 481 283 L 512 455 C 495 471 476 483 455 492 C 434 501 407 506 375 506 C 355 506 336 501 318 492 C 300 482 284 469 271 452 C 257 435 247 415 239 392 C 231 368 227 343 227 315 C 227 294 230 276 236 261 C 242 246 250 234 260 224 C 270 214 282 206 296 202 C 309 197 323 195 338 195 C 364 195 390 202 415 217 C 440 231 462 253 481 283 Z M 873 1210 L 693 1210 L 561 1359 L 377 1210 L 201 1210 L 482 1537 L 707 1537 L 873 1210 Z" unicode="" />
<glyph horiz-adv-x="909" d="M 674 0 L 432 0 L 444 74 C 415 42 382 19 344 3 C 306 -12 270 -20 236 -20 C 194 -20 158 -13 126 0 C 94 14 67 33 45 59 C 23 84 6 115 -5 151 C -17 187 -23 227 -23 272 C -23 340 -12 401 9 455 C 31 509 60 555 97 593 C 133 631 176 660 224 680 C 272 700 323 711 377 711 C 422 711 458 706 484 698 C 510 689 532 679 549 668 L 565 750 C 566 757 567 764 568 770 C 568 776 569 782 569 788 C 567 816 558 838 542 856 C 526 874 498 883 459 883 C 413 883 372 876 335 864 C 298 852 263 836 229 817 L 164 993 C 216 1025 270 1050 328 1069 C 386 1088 448 1098 514 1098 C 618 1098 695 1077 743 1035 C 791 993 815 930 815 846 C 815 829 814 812 812 794 C 810 776 808 758 805 739 L 674 0 Z M 481 283 L 512 455 C 495 471 476 483 455 492 C 434 501 407 506 375 506 C 355 506 336 501 318 492 C 300 482 284 469 271 452 C 257 435 247 415 239 392 C 231 368 227 343 227 315 C 227 294 230 276 236 261 C 242 246 250 234 260 224 C 270 214 282 206 296 202 C 309 197 323 195 338 195 C 364 195 390 202 415 217 C 440 231 462 253 481 283 Z M 914 1479 C 906 1437 895 1400 879 1368 C 863 1335 845 1307 823 1284 C 801 1260 777 1242 751 1230 C 724 1218 696 1212 666 1212 C 647 1212 631 1213 617 1215 C 603 1217 591 1221 579 1226 C 567 1230 554 1236 542 1244 C 530 1251 516 1260 500 1270 C 476 1285 459 1295 448 1300 C 437 1304 426 1307 414 1307 C 397 1307 384 1300 374 1287 C 364 1274 353 1251 342 1219 L 184 1219 C 191 1259 202 1296 218 1329 C 234 1362 252 1390 274 1413 C 296 1436 320 1454 347 1466 C 373 1478 402 1485 432 1485 C 450 1485 466 1483 480 1481 C 494 1479 507 1475 519 1471 C 531 1466 543 1460 555 1453 C 567 1445 582 1437 598 1427 C 610 1419 620 1413 628 1409 C 636 1404 643 1400 649 1398 C 655 1395 661 1393 667 1392 C 672 1391 678 1391 684 1391 C 700 1391 714 1397 724 1410 C 734 1422 745 1445 756 1479 L 914 1479 Z" unicode="" />
<glyph horiz-adv-x="909" d="M 674 0 L 432 0 L 444 74 C 415 42 382 19 344 3 C 306 -12 270 -20 236 -20 C 194 -20 158 -13 126 0 C 94 14 67 33 45 59 C 23 84 6 115 -5 151 C -17 187 -23 227 -23 272 C -23 340 -12 401 9 455 C 31 509 60 555 97 593 C 133 631 176 660 224 680 C 272 700 323 711 377 711 C 422 711 458 706 484 698 C 510 689 532 679 549 668 L 565 750 C 566 757 567 764 568 770 C 568 776 569 782 569 788 C 567 816 558 838 542 856 C 526 874 498 883 459 883 C 413 883 372 876 335 864 C 298 852 263 836 229 817 L 164 993 C 216 1025 270 1050 328 1069 C 386 1088 448 1098 514 1098 C 618 1098 695 1077 743 1035 C 791 993 815 930 815 846 C 815 829 814 812 812 794 C 810 776 808 758 805 739 L 674 0 Z M 481 283 L 512 455 C 495 471 476 483 455 492 C 434 501 407 506 375 506 C 355 506 336 501 318 492 C 300 482 284 469 271 452 C 257 435 247 415 239 392 C 231 368 227 343 227 315 C 227 294 230 276 236 261 C 242 246 250 234 260 224 C 270 214 282 206 296 202 C 309 197 323 195 338 195 C 364 195 390 202 415 217 C 440 231 462 253 481 283 Z M 877 1355 C 877 1335 873 1317 865 1299 C 857 1281 846 1266 833 1253 C 819 1239 804 1229 786 1221 C 768 1213 750 1210 731 1210 C 711 1210 692 1213 674 1221 C 656 1229 641 1239 627 1253 C 613 1266 603 1281 595 1299 C 587 1317 584 1335 584 1355 C 584 1375 587 1393 595 1411 C 603 1429 613 1444 627 1458 C 641 1472 656 1482 674 1490 C 692 1498 711 1502 731 1502 C 750 1502 768 1498 786 1490 C 804 1482 819 1472 833 1458 C 846 1444 857 1429 865 1411 C 873 1393 877 1375 877 1355 Z M 486 1355 C 486 1335 482 1317 474 1299 C 466 1281 455 1266 442 1253 C 428 1239 413 1229 395 1221 C 377 1213 359 1210 340 1210 C 320 1210 301 1213 283 1221 C 265 1229 250 1239 236 1253 C 222 1266 212 1281 204 1299 C 196 1317 193 1335 193 1355 C 193 1375 196 1393 204 1411 C 212 1429 222 1444 236 1458 C 250 1472 265 1482 283 1490 C 301 1498 320 1502 340 1502 C 359 1502 377 1498 395 1490 C 413 1482 428 1472 442 1458 C 455 1444 466 1429 474 1411 C 482 1393 486 1375 486 1355 Z" unicode="" />
<glyph horiz-adv-x="909" d="M 674 0 L 432 0 L 444 74 C 415 42 382 19 344 3 C 306 -12 270 -20 236 -20 C 194 -20 158 -13 126 0 C 94 14 67 33 45 59 C 23 84 6 115 -5 151 C -17 187 -23 227 -23 272 C -23 340 -12 401 9 455 C 31 509 60 555 97 593 C 133 631 176 660 224 680 C 272 700 323 711 377 711 C 422 711 458 706 484 698 C 510 689 532 679 549 668 L 565 750 C 566 757 567 764 568 770 C 568 776 569 782 569 788 C 567 816 558 838 542 856 C 526 874 498 883 459 883 C 413 883 372 876 335 864 C 298 852 263 836 229 817 L 164 993 C 216 1025 270 1050 328 1069 C 386 1088 448 1098 514 1098 C 618 1098 695 1077 743 1035 C 791 993 815 930 815 846 C 815 829 814 812 812 794 C 810 776 808 758 805 739 L 674 0 Z M 481 283 L 512 455 C 495 471 476 483 455 492 C 434 501 407 506 375 506 C 355 506 336 501 318 492 C 300 482 284 469 271 452 C 257 435 247 415 239 392 C 231 368 227 343 227 315 C 227 294 230 276 236 261 C 242 246 250 234 260 224 C 270 214 282 206 296 202 C 309 197 323 195 338 195 C 364 195 390 202 415 217 C 440 231 462 253 481 283 Z M 807 1449 C 807 1414 800 1382 788 1353 C 776 1323 759 1298 737 1276 C 715 1254 689 1238 659 1226 C 629 1214 597 1208 563 1208 C 528 1208 496 1214 466 1226 C 436 1238 411 1254 389 1276 C 367 1298 349 1323 337 1353 C 325 1382 319 1414 319 1449 C 319 1483 325 1515 337 1545 C 349 1575 367 1601 389 1623 C 411 1645 436 1662 466 1674 C 496 1686 528 1693 563 1693 C 597 1693 629 1686 659 1674 C 689 1662 715 1645 737 1623 C 759 1601 776 1575 788 1545 C 800 1515 807 1483 807 1449 Z M 670 1449 C 670 1464 667 1478 661 1492 C 655 1505 648 1516 639 1526 C 629 1536 618 1543 605 1549 C 591 1555 577 1558 563 1558 C 548 1558 534 1555 521 1549 C 508 1543 497 1536 488 1526 C 478 1516 471 1505 465 1492 C 459 1478 457 1464 457 1449 C 457 1433 459 1419 465 1406 C 471 1393 478 1382 488 1372 C 497 1362 508 1355 521 1349 C 534 1343 548 1341 563 1341 C 577 1341 591 1343 605 1349 C 618 1355 629 1362 639 1372 C 648 1382 655 1393 661 1406 C 667 1419 670 1433 670 1449 Z" unicode="" />
<glyph horiz-adv-x="1393" d="M 989 1098 C 1045 1098 1093 1087 1134 1065 C 1174 1043 1208 1013 1234 975 C 1260 937 1280 892 1292 841 C 1304 790 1311 736 1311 678 C 1311 642 1308 604 1303 564 C 1298 524 1292 485 1284 446 L 741 446 C 735 363 745 302 771 264 C 797 226 833 207 881 207 C 919 207 952 214 980 230 C 1007 245 1034 269 1061 301 L 1214 172 C 1118 42 995 -23 844 -23 C 780 -23 724 -9 678 18 C 632 45 597 83 573 133 C 523 85 472 47 420 19 C 368 -9 312 -23 252 -23 C 208 -23 169 -16 135 -2 C 101 12 72 32 49 59 C 25 85 7 117 -4 155 C -16 193 -23 235 -23 283 C -23 350 -12 410 9 463 C 31 516 60 561 96 598 C 132 634 175 662 223 682 C 271 701 323 711 377 711 C 400 711 420 710 437 708 C 454 706 469 703 482 700 C 495 696 507 692 518 686 C 528 680 539 674 549 668 L 565 750 C 566 756 567 762 568 768 C 568 774 569 780 569 786 C 569 814 560 837 544 855 C 527 873 499 883 459 883 C 415 883 375 877 339 867 C 303 856 267 839 229 817 L 164 993 C 218 1027 273 1053 330 1071 C 386 1089 448 1098 514 1098 C 551 1098 583 1094 609 1087 C 635 1080 657 1071 675 1059 C 692 1047 706 1034 717 1019 C 727 1003 736 987 743 971 C 753 983 766 997 782 1012 C 798 1027 816 1041 837 1054 C 857 1066 880 1077 906 1085 C 931 1093 959 1098 989 1098 Z M 1075 645 C 1076 677 1075 708 1073 737 C 1071 765 1065 790 1056 812 C 1047 833 1034 850 1018 862 C 1001 874 980 881 954 881 C 908 881 871 861 841 822 C 811 783 787 724 770 645 L 1075 645 Z M 485 295 L 512 455 C 495 470 476 482 456 492 C 436 501 409 506 375 506 C 355 506 336 501 318 492 C 300 483 285 470 272 453 C 258 436 248 415 240 391 C 232 367 229 339 229 309 C 229 293 231 278 235 264 C 239 250 245 237 253 227 C 261 217 271 208 283 202 C 295 196 310 193 328 193 C 344 193 360 195 376 201 C 392 206 406 213 420 223 C 434 232 446 243 457 255 C 468 267 477 281 485 295 Z" unicode="" />
<glyph horiz-adv-x="819" d="M 276 -14 C 197 3 135 46 89 114 C 43 182 20 275 20 391 C 20 499 33 597 60 684 C 86 771 122 845 167 907 C 212 968 264 1015 324 1048 C 384 1081 447 1098 514 1098 C 597 1098 664 1077 714 1036 C 764 995 800 934 823 854 L 608 723 C 596 767 580 802 560 828 C 540 854 513 868 477 868 C 443 868 414 854 388 828 C 362 801 340 766 322 724 C 304 681 290 633 280 579 C 270 525 266 470 266 416 C 266 351 276 300 296 263 C 316 225 349 207 393 207 C 410 207 427 211 443 219 C 459 227 475 238 490 252 C 505 266 519 282 532 302 C 545 321 557 342 569 365 L 729 236 C 709 200 688 168 664 138 C 640 108 615 82 587 60 C 559 37 528 19 496 5 C 463 -9 428 -17 391 -20 L 367 -86 C 385 -78 410 -74 442 -74 C 476 -74 504 -85 526 -108 C 548 -131 559 -163 559 -203 C 559 -237 552 -267 538 -291 C 524 -315 505 -335 481 -351 C 457 -366 430 -377 400 -384 C 370 -391 339 -395 307 -395 C 281 -395 258 -393 237 -390 C 215 -386 196 -382 178 -376 C 160 -370 143 -362 127 -353 C 111 -344 96 -334 82 -322 L 139 -244 C 163 -261 187 -274 210 -283 C 232 -292 257 -297 285 -297 C 323 -297 351 -289 369 -274 C 386 -258 395 -238 395 -213 C 395 -199 391 -188 383 -179 C 375 -170 364 -166 350 -166 C 336 -166 325 -167 316 -170 C 306 -173 297 -178 287 -184 L 219 -156 L 276 -14 Z" unicode="" />
<glyph horiz-adv-x="913" d="M 805 446 L 262 446 C 256 363 265 302 291 264 C 317 226 353 207 401 207 C 420 207 438 209 454 213 C 470 217 486 222 500 230 C 514 238 528 247 542 259 C 555 271 568 285 582 301 L 735 172 C 639 42 516 -23 365 -23 C 308 -23 258 -13 215 7 C 172 27 136 55 107 91 C 78 127 56 170 42 221 C 27 272 20 329 20 391 C 20 499 33 596 59 683 C 85 770 120 844 165 906 C 209 968 261 1015 321 1048 C 380 1081 443 1098 510 1098 C 566 1098 614 1087 655 1065 C 695 1043 729 1014 755 976 C 781 938 800 894 812 844 C 824 794 831 740 831 682 C 831 644 828 605 824 565 C 819 525 813 485 805 446 Z M 596 645 C 597 677 596 708 594 737 C 592 765 586 790 577 812 C 568 833 555 850 539 862 C 522 874 501 881 475 881 C 429 881 391 860 359 819 C 327 777 305 719 291 645 L 596 645 Z M 628 1219 L 444 1219 L 198 1546 L 507 1546 L 628 1219 Z" unicode="" />
<glyph horiz-adv-x="913" d="M 805 446 L 262 446 C 256 363 265 302 291 264 C 317 226 353 207 401 207 C 420 207 438 209 454 213 C 470 217 486 222 500 230 C 514 238 528 247 542 259 C 555 271 568 285 582 301 L 735 172 C 639 42 516 -23 365 -23 C 308 -23 258 -13 215 7 C 172 27 136 55 107 91 C 78 127 56 170 42 221 C 27 272 20 329 20 391 C 20 499 33 596 59 683 C 85 770 120 844 165 906 C 209 968 261 1015 321 1048 C 380 1081 443 1098 510 1098 C 566 1098 614 1087 655 1065 C 695 1043 729 1014 755 976 C 781 938 800 894 812 844 C 824 794 831 740 831 682 C 831 644 828 605 824 565 C 819 525 813 485 805 446 Z M 596 645 C 597 677 596 708 594 737 C 592 765 586 790 577 812 C 568 833 555 850 539 862 C 522 874 501 881 475 881 C 429 881 391 860 359 819 C 327 777 305 719 291 645 L 596 645 Z M 975 1546 L 620 1219 L 422 1219 L 657 1546 L 975 1546 Z" unicode="" />
<glyph horiz-adv-x="913" d="M 805 446 L 262 446 C 256 363 265 302 291 264 C 317 226 353 207 401 207 C 420 207 438 209 454 213 C 470 217 486 222 500 230 C 514 238 528 247 542 259 C 555 271 568 285 582 301 L 735 172 C 639 42 516 -23 365 -23 C 308 -23 258 -13 215 7 C 172 27 136 55 107 91 C 78 127 56 170 42 221 C 27 272 20 329 20 391 C 20 499 33 596 59 683 C 85 770 120 844 165 906 C 209 968 261 1015 321 1048 C 380 1081 443 1098 510 1098 C 566 1098 614 1087 655 1065 C 695 1043 729 1014 755 976 C 781 938 800 894 812 844 C 824 794 831 740 831 682 C 831 644 828 605 824 565 C 819 525 813 485 805 446 Z M 596 645 C 597 677 596 708 594 737 C 592 765 586 790 577 812 C 568 833 555 850 539 862 C 522 874 501 881 475 881 C 429 881 391 860 359 819 C 327 777 305 719 291 645 L 596 645 Z M 862 1200 L 682 1200 L 550 1349 L 366 1200 L 190 1200 L 471 1527 L 696 1527 L 862 1200 Z" unicode="" />
<glyph horiz-adv-x="913" d="M 805 446 L 262 446 C 256 363 265 302 291 264 C 317 226 353 207 401 207 C 420 207 438 209 454 213 C 470 217 486 222 500 230 C 514 238 528 247 542 259 C 555 271 568 285 582 301 L 735 172 C 639 42 516 -23 365 -23 C 308 -23 258 -13 215 7 C 172 27 136 55 107 91 C 78 127 56 170 42 221 C 27 272 20 329 20 391 C 20 499 33 596 59 683 C 85 770 120 844 165 906 C 209 968 261 1015 321 1048 C 380 1081 443 1098 510 1098 C 566 1098 614 1087 655 1065 C 695 1043 729 1014 755 976 C 781 938 800 894 812 844 C 824 794 831 740 831 682 C 831 644 828 605 824 565 C 819 525 813 485 805 446 Z M 596 645 C 597 677 596 708 594 737 C 592 765 586 790 577 812 C 568 833 555 850 539 862 C 522 874 501 881 475 881 C 429 881 391 860 359 819 C 327 777 305 719 291 645 L 596 645 Z M 858 1355 C 858 1335 854 1317 846 1299 C 838 1281 827 1266 814 1253 C 800 1239 785 1229 767 1221 C 749 1213 731 1210 712 1210 C 692 1210 673 1213 655 1221 C 637 1229 622 1239 608 1253 C 594 1266 584 1281 576 1299 C 568 1317 565 1335 565 1355 C 565 1375 568 1393 576 1411 C 584 1429 594 1444 608 1458 C 622 1472 637 1482 655 1490 C 673 1498 692 1502 712 1502 C 731 1502 749 1498 767 1490 C 785 1482 800 1472 814 1458 C 827 1444 838 1429 846 1411 C 854 1393 858 1375 858 1355 Z M 467 1355 C 467 1335 463 1317 455 1299 C 447 1281 436 1266 423 1253 C 409 1239 394 1229 376 1221 C 358 1213 340 1210 321 1210 C 301 1210 282 1213 264 1221 C 246 1229 231 1239 217 1253 C 203 1266 193 1281 185 1299 C 177 1317 174 1335 174 1355 C 174 1375 177 1393 185 1411 C 193 1429 203 1444 217 1458 C 231 1472 246 1482 264 1490 C 282 1498 301 1502 321 1502 C 340 1502 358 1498 376 1490 C 394 1482 409 1472 423 1458 C 436 1444 447 1429 455 1411 C 463 1393 467 1375 467 1355 Z" unicode="" />
<glyph horiz-adv-x="487" d="M 229 0 L -12 0 L 178 1075 L 420 1075 L 229 0 Z M 433 1219 L 249 1219 L 3 1546 L 312 1546 L 433 1219 Z" unicode="" />
<glyph horiz-adv-x="487" d="M 229 0 L -12 0 L 178 1075 L 420 1075 L 229 0 Z M 759 1546 L 404 1219 L 206 1219 L 441 1546 L 759 1546 Z" unicode="" />
<glyph horiz-adv-x="487" d="M 229 0 L -12 0 L 178 1075 L 420 1075 L 229 0 Z M 638 1189 L 458 1189 L 326 1338 L 142 1189 L -34 1189 L 247 1516 L 472 1516 L 638 1189 Z" unicode="" />
<glyph horiz-adv-x="487" d="M 229 0 L -12 0 L 178 1075 L 420 1075 L 229 0 Z M 663 1364 C 663 1344 659 1326 651 1308 C 643 1290 632 1275 619 1262 C 605 1248 590 1238 572 1230 C 554 1222 536 1219 517 1219 C 497 1219 478 1222 460 1230 C 442 1238 427 1248 413 1262 C 399 1275 389 1290 381 1308 C 373 1326 370 1344 370 1364 C 370 1384 373 1402 381 1420 C 389 1438 399 1453 413 1467 C 427 1481 442 1491 460 1499 C 478 1507 497 1511 517 1511 C 536 1511 554 1507 572 1499 C 590 1491 605 1481 619 1467 C 632 1453 643 1438 651 1420 C 659 1402 663 1384 663 1364 Z M 272 1364 C 272 1344 268 1326 260 1308 C 252 1290 241 1275 228 1262 C 214 1248 199 1238 181 1230 C 163 1222 145 1219 126 1219 C 106 1219 87 1222 69 1230 C 51 1238 36 1248 22 1262 C 8 1275 -1 1290 -9 1308 C -17 1326 -21 1344 -21 1364 C -21 1384 -17 1402 -9 1420 C -1 1438 8 1453 22 1467 C 36 1481 51 1491 69 1499 C 87 1507 106 1511 126 1511 C 145 1511 163 1507 181 1499 C 199 1491 214 1481 228 1467 C 241 1453 252 1438 260 1420 C 268 1402 272 1384 272 1364 Z" unicode="" />
<glyph horiz-adv-x="958" d="M 360 -23 C 307 -23 259 -14 217 2 C 174 18 138 43 108 76 C 78 108 54 149 38 197 C 22 245 14 300 14 362 C 14 429 20 491 33 548 C 45 605 63 657 85 703 C 107 749 132 789 162 824 C 191 858 223 887 257 911 C 291 935 326 953 362 965 C 398 977 435 983 471 983 C 514 983 551 975 583 961 C 614 947 644 923 672 889 C 670 936 662 980 650 1020 C 638 1060 621 1095 600 1126 L 485 1030 L 383 1147 L 481 1231 C 442 1249 399 1262 352 1268 L 379 1456 C 431 1450 479 1440 525 1426 C 570 1412 611 1393 647 1370 L 750 1456 L 850 1337 L 760 1262 C 836 1156 874 1011 874 827 C 874 694 862 575 840 470 C 817 365 784 276 740 203 C 696 130 643 74 579 35 C 515 -3 442 -23 360 -23 Z M 596 565 C 596 627 585 674 564 706 C 543 738 511 754 467 754 C 434 754 405 745 380 727 C 354 709 333 684 315 652 C 297 620 284 581 275 537 C 266 493 262 444 262 391 C 262 330 272 284 293 253 C 314 222 347 207 393 207 C 425 207 454 216 480 235 C 505 253 526 279 543 311 C 560 343 573 381 582 425 C 591 469 596 515 596 565 Z" unicode="" />
<glyph horiz-adv-x="936" d="M 698 0 L 457 0 L 580 696 C 583 713 585 729 587 744 C 589 759 590 772 590 784 C 590 817 583 840 570 853 C 557 865 536 872 508 872 C 494 872 481 869 467 864 C 453 859 440 852 427 844 C 413 835 401 825 389 815 C 377 804 366 793 356 782 L 219 0 L -23 0 L 168 1075 L 410 1075 L 395 1001 C 427 1030 460 1053 496 1071 C 531 1089 568 1098 606 1098 C 647 1098 682 1092 712 1082 C 741 1072 765 1056 784 1036 C 803 1016 817 991 826 961 C 834 931 839 896 840 858 C 840 835 838 810 835 784 C 832 758 828 731 823 705 L 698 0 Z M 926 1479 C 918 1437 907 1400 891 1368 C 875 1335 857 1307 835 1284 C 813 1260 789 1242 763 1230 C 736 1218 708 1212 678 1212 C 659 1212 643 1213 629 1215 C 615 1217 603 1221 591 1226 C 579 1230 566 1236 554 1244 C 542 1251 528 1260 512 1270 C 488 1285 471 1295 460 1300 C 449 1304 438 1307 426 1307 C 409 1307 396 1300 386 1287 C 376 1274 365 1251 354 1219 L 196 1219 C 203 1259 214 1296 230 1329 C 246 1362 264 1390 286 1413 C 308 1436 332 1454 359 1466 C 385 1478 414 1485 444 1485 C 462 1485 478 1483 492 1481 C 506 1479 519 1475 531 1471 C 543 1466 555 1460 567 1453 C 579 1445 594 1437 610 1427 C 622 1419 632 1413 640 1409 C 648 1404 655 1400 661 1398 C 667 1395 673 1393 679 1392 C 684 1391 690 1391 696 1391 C 712 1391 726 1397 736 1410 C 746 1422 757 1445 768 1479 L 926 1479 Z" unicode="" />
<glyph horiz-adv-x="950" d="M 362 -23 C 310 -23 264 -13 222 5 C 180 24 144 52 114 88 C 84 124 60 167 44 219 C 28 271 20 329 20 395 C 20 499 32 595 57 681 C 81 767 115 841 159 903 C 202 965 253 1013 312 1047 C 371 1081 435 1098 504 1098 C 556 1098 603 1089 645 1071 C 687 1053 724 1026 754 991 C 784 955 807 911 823 859 C 839 807 848 746 848 678 C 848 574 835 479 810 393 C 785 307 751 233 707 171 C 663 109 612 62 553 28 C 493 -6 430 -23 362 -23 Z M 602 670 C 602 732 592 780 573 815 C 553 850 522 868 479 868 C 445 868 414 854 388 828 C 361 802 338 767 320 724 C 302 680 288 631 278 576 C 268 521 264 465 264 408 C 264 345 274 296 294 260 C 314 224 347 207 391 207 C 427 207 459 221 485 250 C 511 278 533 315 551 360 C 568 404 581 454 589 509 C 597 564 602 618 602 670 Z M 645 1219 L 461 1219 L 215 1546 L 524 1546 L 645 1219 Z" unicode="" />
<glyph horiz-adv-x="950" d="M 362 -23 C 310 -23 264 -13 222 5 C 180 24 144 52 114 88 C 84 124 60 167 44 219 C 28 271 20 329 20 395 C 20 499 32 595 57 681 C 81 767 115 841 159 903 C 202 965 253 1013 312 1047 C 371 1081 435 1098 504 1098 C 556 1098 603 1089 645 1071 C 687 1053 724 1026 754 991 C 784 955 807 911 823 859 C 839 807 848 746 848 678 C 848 574 835 479 810 393 C 785 307 751 233 707 171 C 663 109 612 62 553 28 C 493 -6 430 -23 362 -23 Z M 602 670 C 602 732 592 780 573 815 C 553 850 522 868 479 868 C 445 868 414 854 388 828 C 361 802 338 767 320 724 C 302 680 288 631 278 576 C 268 521 264 465 264 408 C 264 345 274 296 294 260 C 314 224 347 207 391 207 C 427 207 459 221 485 250 C 511 278 533 315 551 360 C 568 404 581 454 589 509 C 597 564 602 618 602 670 Z M 975 1546 L 620 1219 L 422 1219 L 657 1546 L 975 1546 Z" unicode="" />
<glyph horiz-adv-x="950" d="M 362 -23 C 310 -23 264 -13 222 5 C 180 24 144 52 114 88 C 84 124 60 167 44 219 C 28 271 20 329 20 395 C 20 499 32 595 57 681 C 81 767 115 841 159 903 C 202 965 253 1013 312 1047 C 371 1081 435 1098 504 1098 C 556 1098 603 1089 645 1071 C 687 1053 724 1026 754 991 C 784 955 807 911 823 859 C 839 807 848 746 848 678 C 848 574 835 479 810 393 C 785 307 751 233 707 171 C 663 109 612 62 553 28 C 493 -6 430 -23 362 -23 Z M 602 670 C 602 732 592 780 573 815 C 553 850 522 868 479 868 C 445 868 414 854 388 828 C 361 802 338 767 320 724 C 302 680 288 631 278 576 C 268 521 264 465 264 408 C 264 345 274 296 294 260 C 314 224 347 207 391 207 C 427 207 459 221 485 250 C 511 278 533 315 551 360 C 568 404 581 454 589 509 C 597 564 602 618 602 670 Z M 843 1200 L 663 1200 L 531 1349 L 347 1200 L 171 1200 L 452 1527 L 677 1527 L 843 1200 Z" unicode="" />
<glyph horiz-adv-x="950" d="M 362 -23 C 310 -23 264 -13 222 5 C 180 24 144 52 114 88 C 84 124 60 167 44 219 C 28 271 20 329 20 395 C 20 499 32 595 57 681 C 81 767 115 841 159 903 C 202 965 253 1013 312 1047 C 371 1081 435 1098 504 1098 C 556 1098 603 1089 645 1071 C 687 1053 724 1026 754 991 C 784 955 807 911 823 859 C 839 807 848 746 848 678 C 848 574 835 479 810 393 C 785 307 751 233 707 171 C 663 109 612 62 553 28 C 493 -6 430 -23 362 -23 Z M 602 670 C 602 732 592 780 573 815 C 553 850 522 868 479 868 C 445 868 414 854 388 828 C 361 802 338 767 320 724 C 302 680 288 631 278 576 C 268 521 264 465 264 408 C 264 345 274 296 294 260 C 314 224 347 207 391 207 C 427 207 459 221 485 250 C 511 278 533 315 551 360 C 568 404 581 454 589 509 C 597 564 602 618 602 670 Z M 912 1479 C 904 1437 893 1400 877 1368 C 861 1335 843 1307 821 1284 C 799 1260 775 1242 749 1230 C 722 1218 694 1212 664 1212 C 645 1212 629 1213 615 1215 C 601 1217 589 1221 577 1226 C 565 1230 552 1236 540 1244 C 528 1251 514 1260 498 1270 C 474 1285 457 1295 446 1300 C 435 1304 424 1307 412 1307 C 395 1307 382 1300 372 1287 C 362 1274 351 1251 340 1219 L 182 1219 C 189 1259 200 1296 216 1329 C 232 1362 250 1390 272 1413 C 294 1436 318 1454 345 1466 C 371 1478 400 1485 430 1485 C 448 1485 464 1483 478 1481 C 492 1479 505 1475 517 1471 C 529 1466 541 1460 553 1453 C 565 1445 580 1437 596 1427 C 608 1419 618 1413 626 1409 C 634 1404 641 1400 647 1398 C 653 1395 659 1393 665 1392 C 670 1391 676 1391 682 1391 C 698 1391 712 1397 722 1410 C 732 1422 743 1445 754 1479 L 912 1479 Z" unicode="" />
<glyph horiz-adv-x="950" d="M 362 -23 C 310 -23 264 -13 222 5 C 180 24 144 52 114 88 C 84 124 60 167 44 219 C 28 271 20 329 20 395 C 20 499 32 595 57 681 C 81 767 115 841 159 903 C 202 965 253 1013 312 1047 C 371 1081 435 1098 504 1098 C 556 1098 603 1089 645 1071 C 687 1053 724 1026 754 991 C 784 955 807 911 823 859 C 839 807 848 746 848 678 C 848 574 835 479 810 393 C 785 307 751 233 707 171 C 663 109 612 62 553 28 C 493 -6 430 -23 362 -23 Z M 602 670 C 602 732 592 780 573 815 C 553 850 522 868 479 868 C 445 868 414 854 388 828 C 361 802 338 767 320 724 C 302 680 288 631 278 576 C 268 521 264 465 264 408 C 264 345 274 296 294 260 C 314 224 347 207 391 207 C 427 207 459 221 485 250 C 511 278 533 315 551 360 C 568 404 581 454 589 509 C 597 564 602 618 602 670 Z M 863 1345 C 863 1325 859 1307 851 1289 C 843 1271 832 1256 819 1243 C 805 1229 790 1219 772 1211 C 754 1203 736 1200 717 1200 C 697 1200 678 1203 660 1211 C 642 1219 627 1229 613 1243 C 599 1256 589 1271 581 1289 C 573 1307 570 1325 570 1345 C 570 1365 573 1383 581 1401 C 589 1419 599 1434 613 1448 C 627 1462 642 1472 660 1480 C 678 1488 697 1492 717 1492 C 736 1492 754 1488 772 1480 C 790 1472 805 1462 819 1448 C 832 1434 843 1419 851 1401 C 859 1383 863 1365 863 1345 Z M 472 1345 C 472 1325 468 1307 460 1289 C 452 1271 441 1256 428 1243 C 414 1229 399 1219 381 1211 C 363 1203 345 1200 326 1200 C 306 1200 287 1203 269 1211 C 251 1219 236 1229 222 1243 C 208 1256 198 1271 190 1289 C 182 1307 179 1325 179 1345 C 179 1365 182 1383 190 1401 C 198 1419 208 1434 222 1448 C 236 1462 251 1472 269 1480 C 287 1488 306 1492 326 1492 C 345 1492 363 1488 381 1480 C 399 1472 414 1462 428 1448 C 441 1434 452 1419 460 1401 C 468 1383 472 1365 472 1345 Z" unicode="" />
<glyph horiz-adv-x="1536" d="M 208 684 L 208 896 L 1328 896 L 1328 684 L 208 684 Z M 768 228 C 725 228 688 244 656 276 C 624 308 608 345 608 388 C 608 430 622 468 650 500 C 678 532 717 548 768 548 C 816 548 854 532 884 500 C 913 468 928 430 928 388 C 928 345 912 308 880 276 C 848 244 810 228 768 228 Z M 768 1028 C 725 1028 688 1044 656 1076 C 624 1108 608 1145 608 1188 C 608 1230 622 1268 650 1300 C 678 1332 717 1348 768 1348 C 816 1348 854 1332 884 1300 C 913 1268 928 1230 928 1188 C 928 1145 912 1108 880 1076 C 848 1044 810 1028 768 1028 Z" unicode="" />
<glyph horiz-adv-x="950" d="M 106 90 C 78 126 56 169 42 221 C 27 273 20 332 20 399 C 20 503 32 599 57 685 C 81 771 115 844 159 906 C 203 967 254 1014 313 1048 C 372 1081 436 1098 504 1098 C 548 1098 589 1091 625 1079 L 676 1178 L 864 1178 L 762 981 C 790 945 811 902 826 852 C 840 802 848 744 848 678 C 848 572 835 476 810 390 C 785 304 751 230 707 169 C 663 107 612 60 553 27 C 493 -6 430 -23 362 -23 C 340 -23 320 -21 301 -18 C 281 -14 263 -10 246 -4 L 195 -102 L 6 -102 L 106 90 Z M 252 350 L 520 872 C 514 874 508 876 501 878 C 493 880 486 881 479 881 C 442 881 409 867 381 839 C 353 811 329 775 310 731 C 290 686 276 635 266 578 C 256 521 250 464 250 406 C 250 395 250 385 250 376 C 250 367 250 358 252 350 Z M 614 709 L 352 201 C 364 197 377 195 391 195 C 416 195 439 201 460 215 C 481 229 500 247 516 271 C 532 295 547 322 559 354 C 571 386 582 419 590 455 C 598 490 604 526 608 564 C 612 602 614 638 614 674 L 614 709 Z" unicode="" />
<glyph horiz-adv-x="936" d="M 690 0 L 449 0 L 461 74 C 431 46 399 22 363 4 C 327 -13 289 -23 250 -23 C 207 -23 171 -17 142 -7 C 112 2 88 18 70 38 C 52 58 38 82 30 112 C 22 141 18 175 18 213 C 18 236 19 261 22 287 C 25 313 29 341 35 371 L 160 1075 L 401 1075 L 279 379 C 271 342 268 313 268 293 C 268 259 274 236 287 223 C 300 209 322 203 352 203 C 364 203 377 205 391 210 C 405 215 418 222 432 231 C 445 239 457 249 469 260 C 481 270 491 281 500 293 L 639 1075 L 881 1075 L 690 0 Z M 659 1219 L 475 1219 L 229 1546 L 538 1546 L 659 1219 Z" unicode="" />
<glyph horiz-adv-x="936" d="M 690 0 L 449 0 L 461 74 C 431 46 399 22 363 4 C 327 -13 289 -23 250 -23 C 207 -23 171 -17 142 -7 C 112 2 88 18 70 38 C 52 58 38 82 30 112 C 22 141 18 175 18 213 C 18 236 19 261 22 287 C 25 313 29 341 35 371 L 160 1075 L 401 1075 L 279 379 C 271 342 268 313 268 293 C 268 259 274 236 287 223 C 300 209 322 203 352 203 C 364 203 377 205 391 210 C 405 215 418 222 432 231 C 445 239 457 249 469 260 C 481 270 491 281 500 293 L 639 1075 L 881 1075 L 690 0 Z M 971 1546 L 616 1219 L 418 1219 L 653 1546 L 971 1546 Z" unicode="" />
<glyph horiz-adv-x="936" d="M 690 0 L 449 0 L 461 74 C 431 46 399 22 363 4 C 327 -13 289 -23 250 -23 C 207 -23 171 -17 142 -7 C 112 2 88 18 70 38 C 52 58 38 82 30 112 C 22 141 18 175 18 213 C 18 236 19 261 22 287 C 25 313 29 341 35 371 L 160 1075 L 401 1075 L 279 379 C 271 342 268 313 268 293 C 268 259 274 236 287 223 C 300 209 322 203 352 203 C 364 203 377 205 391 210 C 405 215 418 222 432 231 C 445 239 457 249 469 260 C 481 270 491 281 500 293 L 639 1075 L 881 1075 L 690 0 Z M 873 1219 L 693 1219 L 561 1368 L 377 1219 L 201 1219 L 482 1546 L 707 1546 L 873 1219 Z" unicode="" />
<glyph horiz-adv-x="936" d="M 690 0 L 449 0 L 461 74 C 431 46 399 22 363 4 C 327 -13 289 -23 250 -23 C 207 -23 171 -17 142 -7 C 112 2 88 18 70 38 C 52 58 38 82 30 112 C 22 141 18 175 18 213 C 18 236 19 261 22 287 C 25 313 29 341 35 371 L 160 1075 L 401 1075 L 279 379 C 271 342 268 313 268 293 C 268 259 274 236 287 223 C 300 209 322 203 352 203 C 364 203 377 205 391 210 C 405 215 418 222 432 231 C 445 239 457 249 469 260 C 481 270 491 281 500 293 L 639 1075 L 881 1075 L 690 0 Z M 891 1364 C 891 1344 887 1326 879 1308 C 871 1290 860 1275 847 1262 C 833 1248 818 1238 800 1230 C 782 1222 764 1219 745 1219 C 725 1219 706 1222 688 1230 C 670 1238 655 1248 641 1262 C 627 1275 617 1290 609 1308 C 601 1326 598 1344 598 1364 C 598 1384 601 1402 609 1420 C 617 1438 627 1453 641 1467 C 655 1481 670 1491 688 1499 C 706 1507 725 1511 745 1511 C 764 1511 782 1507 800 1499 C 818 1491 833 1481 847 1467 C 860 1453 871 1438 879 1420 C 887 1402 891 1384 891 1364 Z M 500 1364 C 500 1344 496 1326 488 1308 C 480 1290 469 1275 456 1262 C 442 1248 427 1238 409 1230 C 391 1222 373 1219 354 1219 C 334 1219 315 1222 297 1230 C 279 1238 264 1248 250 1262 C 236 1275 226 1290 218 1308 C 210 1326 207 1344 207 1364 C 207 1384 210 1402 218 1420 C 226 1438 236 1453 250 1467 C 264 1481 279 1491 297 1499 C 315 1507 334 1511 354 1511 C 373 1511 391 1507 409 1499 C 427 1491 442 1481 456 1467 C 469 1453 480 1438 488 1420 C 496 1402 500 1384 500 1364 Z" unicode="" />
<glyph horiz-adv-x="926" d="M 969 1075 L 301 -379 L 78 -379 L 258 18 L 125 1075 L 379 1075 L 408 674 C 410 647 412 617 414 583 C 416 549 417 516 419 484 C 421 451 422 421 423 393 C 424 365 424 343 424 328 C 429 343 437 365 448 393 C 458 421 470 452 482 485 C 494 517 507 550 520 584 C 533 617 545 646 555 672 L 717 1075 L 969 1075 Z M 1016 1537 L 661 1210 L 463 1210 L 698 1537 L 1016 1537 Z" unicode="" />
<glyph horiz-adv-x="950" d="M 834 539 C 820 456 800 380 775 312 C 750 243 719 184 683 134 C 646 84 604 46 556 18 C 508 -9 455 -23 397 -23 C 361 -23 328 -15 300 -1 C 271 13 247 33 229 59 L 170 -274 L -92 -395 L 219 1372 L 483 1493 L 395 1001 C 427 1030 461 1053 499 1071 C 537 1089 575 1098 614 1098 C 692 1098 752 1070 793 1016 C 833 962 854 878 854 764 C 854 730 852 695 849 659 C 846 622 841 582 834 539 Z M 588 530 C 595 570 600 606 604 639 C 608 672 610 701 610 727 C 610 776 602 812 588 836 C 573 860 549 872 516 872 C 501 872 486 869 471 864 C 456 858 442 851 428 843 C 414 834 400 824 388 814 C 376 803 365 792 356 782 L 270 295 C 282 270 299 248 321 230 C 342 212 369 203 403 203 C 424 203 444 208 462 219 C 480 229 496 247 511 273 C 526 298 540 332 553 374 C 565 416 577 468 588 530 Z" unicode="" />
<glyph horiz-adv-x="926" d="M 969 1075 L 301 -379 L 78 -379 L 258 18 L 125 1075 L 379 1075 L 408 674 C 410 647 412 617 414 583 C 416 549 417 516 419 484 C 421 451 422 421 423 393 C 424 365 424 343 424 328 C 429 343 437 365 448 393 C 458 421 470 452 482 485 C 494 517 507 550 520 584 C 533 617 545 646 555 672 L 717 1075 L 969 1075 Z M 922 1355 C 922 1335 918 1317 910 1299 C 902 1281 891 1266 878 1253 C 864 1239 849 1229 831 1221 C 813 1213 795 1210 776 1210 C 756 1210 737 1213 719 1221 C 701 1229 686 1239 672 1253 C 658 1266 648 1281 640 1299 C 632 1317 629 1335 629 1355 C 629 1375 632 1393 640 1411 C 648 1429 658 1444 672 1458 C 686 1472 701 1482 719 1490 C 737 1498 756 1502 776 1502 C 795 1502 813 1498 831 1490 C 849 1482 864 1472 878 1458 C 891 1444 902 1429 910 1411 C 918 1393 922 1375 922 1355 Z M 531 1355 C 531 1335 527 1317 519 1299 C 511 1281 500 1266 487 1253 C 473 1239 458 1229 440 1221 C 422 1213 404 1210 385 1210 C 365 1210 346 1213 328 1221 C 310 1229 295 1239 281 1253 C 267 1266 257 1281 249 1299 C 241 1317 238 1335 238 1355 C 238 1375 241 1393 249 1411 C 257 1429 267 1444 281 1458 C 295 1472 310 1482 328 1490 C 346 1498 365 1502 385 1502 C 404 1502 422 1498 440 1490 C 458 1482 473 1472 487 1458 C 500 1444 511 1429 519 1411 C 527 1393 531 1375 531 1355 Z" unicode="" />
<glyph horiz-adv-x="487" d="M 229 0 L -12 0 L 178 1075 L 420 1075 L 229 0 Z" unicode="" />
<glyph horiz-adv-x="838" d="M 139 754 L 258 1434 L 514 1434 L 420 889 L 623 1024 L 578 768 L 375 633 L 307 250 L 748 250 L 702 0 L 6 0 L 94 498 L -16 424 L 29 680 L 139 754 Z" unicode="" />
<glyph horiz-adv-x="487" d="M 119 756 L 229 1372 L 494 1493 L 385 879 L 502 958 L 457 702 L 340 623 L 229 0 L -12 0 L 74 500 C 74 500 68 495 56 487 C 44 479 30 470 16 460 C -1 448 -21 434 -43 420 L 2 676 L 119 756 Z" unicode="" />
<glyph horiz-adv-x="1534" d="M 928 1300 L 950 1434 L 1610 1434 L 1567 1188 L 1096 1188 L 1042 885 L 1356 885 L 1313 643 L 999 643 L 930 246 L 1419 246 L 1376 0 L 698 0 L 721 133 C 689 83 649 44 603 17 C 557 -9 500 -23 432 -23 C 368 -23 314 -10 268 15 C 222 41 184 76 154 122 C 124 168 101 222 87 286 C 73 349 66 418 66 494 C 66 572 71 651 82 729 C 93 807 109 882 131 954 C 153 1025 180 1091 213 1152 C 246 1213 285 1266 329 1311 C 373 1356 422 1391 477 1417 C 532 1443 593 1456 659 1456 C 729 1456 785 1441 829 1413 C 872 1385 905 1347 928 1300 Z M 764 715 C 775 791 781 859 782 919 C 782 979 777 1030 766 1072 C 754 1113 737 1145 713 1167 C 689 1189 659 1200 621 1200 C 572 1200 529 1180 493 1141 C 456 1102 425 1050 401 985 C 377 920 358 846 346 762 C 334 678 328 590 328 500 C 328 414 340 348 365 302 C 390 256 431 233 487 233 C 525 233 558 243 588 265 C 617 287 643 318 665 359 C 687 400 707 451 723 511 C 739 571 752 639 764 715 Z" unicode="" />
<glyph horiz-adv-x="1460" d="M 649 98 C 609 58 566 28 518 8 C 470 -12 418 -23 362 -23 C 310 -23 263 -14 221 4 C 179 22 143 48 113 84 C 83 119 60 163 44 215 C 28 267 20 328 20 397 C 20 501 32 597 57 683 C 81 769 115 842 159 904 C 202 965 253 1013 312 1047 C 371 1081 435 1098 504 1098 C 560 1098 611 1087 655 1066 C 699 1045 737 1014 768 973 C 851 1056 947 1098 1057 1098 C 1113 1098 1161 1087 1201 1066 C 1241 1044 1274 1015 1300 978 C 1326 941 1345 898 1358 848 C 1370 798 1377 744 1378 686 C 1378 648 1375 609 1371 568 C 1366 526 1360 486 1352 446 L 809 446 C 803 363 812 302 838 264 C 864 226 900 207 948 207 C 987 207 1020 214 1047 230 C 1074 245 1101 269 1128 301 L 1282 172 C 1234 106 1179 57 1118 25 C 1057 -7 988 -23 911 -23 C 852 -23 801 -12 758 9 C 714 30 678 60 649 98 Z M 1143 645 C 1144 677 1143 708 1141 737 C 1138 765 1132 790 1123 812 C 1114 833 1101 850 1085 862 C 1069 874 1048 881 1022 881 C 933 881 872 802 838 645 L 1143 645 Z M 592 535 C 599 584 603 629 603 670 C 603 711 598 746 589 776 C 580 805 567 828 549 844 C 531 860 507 868 479 868 C 443 868 411 855 385 829 C 358 803 336 768 318 726 C 300 684 286 635 277 581 C 268 526 264 470 264 412 C 264 348 273 297 293 261 C 313 225 345 207 391 207 C 419 207 445 215 467 233 C 489 250 508 273 524 303 C 540 333 554 367 565 407 C 576 447 585 489 592 535 Z" unicode="" />
<glyph horiz-adv-x="965" d="M 373 -23 C 324 -23 278 -16 236 -4 C 193 8 154 25 119 47 C 83 68 52 93 24 121 C -4 149 -27 178 -47 209 L 150 381 C 182 328 221 288 265 261 C 309 234 353 221 397 221 C 426 221 452 225 474 234 C 496 242 514 254 529 269 C 544 284 555 302 563 322 C 571 342 575 363 575 385 C 575 421 562 459 537 498 C 511 536 470 577 412 621 C 373 649 337 677 304 707 C 270 737 241 768 217 802 C 193 835 174 871 160 910 C 146 948 139 990 139 1036 C 139 1090 149 1142 170 1193 C 191 1243 221 1288 259 1327 C 297 1366 344 1397 398 1421 C 452 1444 512 1456 578 1456 C 667 1456 744 1438 808 1403 C 872 1368 925 1317 965 1251 L 764 1081 C 730 1128 697 1162 665 1183 C 633 1203 597 1214 557 1214 C 535 1214 515 1210 497 1204 C 479 1198 463 1189 450 1177 C 436 1165 426 1151 418 1134 C 410 1116 406 1097 406 1075 C 406 1057 408 1039 414 1023 C 419 1007 428 990 440 973 C 452 956 469 938 489 920 C 509 901 533 880 563 858 C 605 826 643 794 678 764 C 712 733 742 701 766 667 C 790 633 809 596 823 556 C 837 516 844 472 844 422 C 844 360 833 302 812 248 C 790 194 759 146 719 106 C 678 66 629 34 571 11 C 513 -11 447 -23 373 -23 Z M 983 1863 L 703 1536 L 477 1536 L 311 1863 L 492 1863 L 623 1714 L 807 1863 L 983 1863 Z" unicode="" />
<glyph horiz-adv-x="807" d="M 291 -23 C 224 -23 161 -13 102 5 C 43 24 -7 54 -51 94 L 72 301 C 111 269 149 245 186 229 C 223 213 263 205 307 205 C 344 205 375 213 399 230 C 423 247 436 273 436 307 C 436 320 433 332 428 343 C 422 354 414 366 403 378 C 391 390 376 402 358 416 C 340 430 317 446 291 465 C 265 483 240 502 216 523 C 192 543 171 566 153 590 C 135 614 120 640 110 668 C 99 696 94 726 94 760 C 94 815 103 864 123 906 C 143 948 169 983 203 1012 C 236 1040 275 1062 319 1076 C 363 1090 411 1098 461 1098 C 517 1098 573 1089 627 1073 C 681 1057 730 1032 772 999 L 653 803 C 617 828 583 847 552 859 C 521 871 487 877 451 877 C 421 877 395 870 374 857 C 352 843 342 823 342 797 C 342 787 344 777 348 767 C 352 757 359 746 369 735 C 379 723 394 710 412 696 C 430 681 454 664 483 645 C 513 624 540 603 564 582 C 588 560 608 537 626 513 C 643 489 656 463 666 435 C 675 407 680 376 680 342 C 680 282 669 229 648 183 C 626 137 598 99 562 69 C 526 39 485 16 438 0 C 391 -15 342 -23 291 -23 Z M 865 1546 L 585 1219 L 359 1219 L 193 1546 L 374 1546 L 505 1397 L 689 1546 L 865 1546 Z" unicode="" />
<glyph horiz-adv-x="1024" d="M 1137 1434 L 610 541 L 514 0 L 258 0 L 352 537 L 141 1434 L 424 1434 L 483 1143 C 489 1111 494 1079 500 1047 C 506 1015 511 984 516 954 C 520 924 524 897 527 872 C 529 846 531 825 532 809 C 538 825 547 847 559 873 C 571 899 584 927 599 957 C 613 987 629 1018 646 1050 C 663 1082 680 1113 696 1143 L 858 1434 L 1137 1434 Z M 992 1661 C 992 1641 988 1623 980 1605 C 972 1587 961 1572 948 1559 C 934 1545 919 1535 901 1527 C 883 1519 865 1516 846 1516 C 826 1516 807 1519 789 1527 C 771 1535 756 1545 742 1559 C 728 1572 718 1587 710 1605 C 702 1623 699 1641 699 1661 C 699 1681 702 1699 710 1717 C 718 1735 728 1750 742 1764 C 756 1778 771 1788 789 1796 C 807 1804 826 1808 846 1808 C 865 1808 883 1804 901 1796 C 919 1788 934 1778 948 1764 C 961 1750 972 1735 980 1717 C 988 1699 992 1681 992 1661 Z M 601 1661 C 601 1641 597 1623 589 1605 C 581 1587 570 1572 557 1559 C 543 1545 528 1535 510 1527 C 492 1519 474 1516 455 1516 C 435 1516 416 1519 398 1527 C 380 1535 365 1545 351 1559 C 337 1572 327 1587 319 1605 C 311 1623 308 1641 308 1661 C 308 1681 311 1699 319 1717 C 327 1735 337 1750 351 1764 C 365 1778 380 1788 398 1796 C 416 1804 435 1808 455 1808 C 474 1808 492 1804 510 1796 C 528 1788 543 1778 557 1764 C 570 1750 581 1735 589 1717 C 597 1699 601 1681 601 1661 Z" unicode="" />
<glyph horiz-adv-x="920" d="M 735 0 L -47 0 L -6 227 L 549 1026 C 574 1062 598 1094 621 1124 C 643 1154 664 1181 684 1206 C 658 1204 631 1203 601 1203 C 571 1202 538 1202 502 1202 L 201 1202 L 240 1434 L 987 1434 L 948 1206 L 395 408 C 370 372 346 339 324 309 C 302 279 281 251 262 227 C 287 228 315 229 345 230 C 375 230 408 231 444 231 L 776 231 L 735 0 Z M 1003 1853 L 723 1526 L 497 1526 L 331 1853 L 512 1853 L 643 1704 L 827 1853 L 1003 1853 Z" unicode="" />
<glyph horiz-adv-x="850" d="M 639 0 L -41 0 L -4 211 L 356 641 C 391 683 425 723 459 761 C 492 799 522 833 549 862 C 517 860 482 859 444 859 C 406 858 366 858 322 858 L 141 858 L 180 1075 L 829 1075 L 791 864 L 436 434 C 401 390 367 350 334 313 C 300 276 270 243 242 213 C 276 214 312 215 350 216 C 388 216 429 217 473 217 L 678 217 L 639 0 Z M 909 1546 L 629 1219 L 403 1219 L 237 1546 L 418 1546 L 549 1397 L 733 1546 L 909 1546 Z" unicode="" />
<glyph horiz-adv-x="743" d="M 791 1214 C 769 1221 748 1227 726 1231 C 704 1235 681 1237 657 1237 C 623 1237 596 1229 578 1213 C 559 1197 546 1171 539 1133 L 526 1069 L 719 1069 L 680 846 L 487 846 L 289 -281 L 25 -401 L 246 846 L 137 846 L 176 1069 L 285 1069 L 303 1167 C 312 1216 327 1258 347 1294 C 367 1330 392 1359 421 1382 C 449 1405 481 1422 517 1433 C 552 1444 589 1450 629 1450 C 671 1450 707 1447 738 1441 C 769 1435 798 1428 825 1419 L 791 1214 Z" unicode="" />
<glyph horiz-adv-x="819" d="M 844 1219 L 664 1219 L 532 1368 L 348 1219 L 172 1219 L 453 1546 L 678 1546 L 844 1219 Z" unicode="" />
<glyph horiz-adv-x="819" d="M 903 1546 L 623 1219 L 397 1219 L 231 1546 L 412 1546 L 543 1397 L 727 1546 L 903 1546 Z" unicode="" />
<glyph horiz-adv-x="819" d="M 893 1546 C 861 1439 814 1358 753 1302 C 692 1246 612 1219 514 1219 C 417 1219 346 1246 301 1302 C 256 1357 236 1438 242 1546 L 403 1546 C 405 1522 408 1501 414 1483 C 419 1465 427 1450 438 1438 C 448 1426 462 1418 480 1412 C 498 1406 520 1403 547 1403 C 572 1403 594 1406 614 1412 C 633 1418 650 1426 665 1438 C 680 1450 694 1465 706 1483 C 718 1501 729 1522 739 1546 L 893 1546 Z" unicode="" />
<glyph horiz-adv-x="819" d="M 659 1364 C 659 1344 655 1326 647 1308 C 639 1290 629 1275 616 1262 C 602 1248 587 1238 569 1230 C 551 1222 533 1219 514 1219 C 494 1219 475 1222 457 1230 C 439 1238 424 1248 410 1262 C 396 1275 386 1290 378 1308 C 370 1326 367 1344 367 1364 C 367 1384 370 1402 378 1420 C 386 1438 396 1453 410 1467 C 424 1481 439 1491 457 1499 C 475 1507 494 1511 514 1511 C 533 1511 551 1507 569 1499 C 587 1491 602 1481 616 1467 C 629 1453 639 1438 647 1420 C 655 1402 659 1384 659 1364 Z" unicode="" />
<glyph horiz-adv-x="819" d="M 764 1460 C 764 1425 757 1393 745 1364 C 733 1334 716 1309 694 1287 C 672 1265 646 1249 616 1237 C 586 1225 554 1219 520 1219 C 485 1219 453 1225 423 1237 C 393 1249 368 1265 346 1287 C 324 1309 306 1334 294 1364 C 282 1393 276 1425 276 1460 C 276 1494 282 1526 294 1556 C 306 1586 324 1612 346 1634 C 368 1656 393 1673 423 1685 C 453 1697 485 1704 520 1704 C 554 1704 586 1697 616 1685 C 646 1673 672 1656 694 1634 C 716 1612 733 1586 745 1556 C 757 1526 764 1494 764 1460 Z M 627 1460 C 627 1475 624 1489 618 1503 C 612 1516 605 1527 596 1537 C 586 1547 575 1554 562 1560 C 548 1566 534 1569 520 1569 C 505 1569 491 1566 478 1560 C 465 1554 454 1547 445 1537 C 435 1527 428 1516 422 1503 C 416 1489 414 1475 414 1460 C 414 1444 416 1430 422 1417 C 428 1404 435 1393 445 1383 C 454 1373 465 1366 478 1360 C 491 1354 505 1352 520 1352 C 534 1352 548 1354 562 1360 C 575 1366 586 1373 596 1383 C 605 1393 612 1404 618 1417 C 624 1430 627 1444 627 1460 Z" unicode="" />
<glyph horiz-adv-x="819" d="M 520 -311 C 480 -336 440 -356 400 -372 C 360 -387 315 -395 266 -395 C 216 -395 178 -383 151 -361 C 124 -339 111 -305 111 -260 C 111 -232 116 -206 126 -182 C 136 -158 151 -135 169 -114 C 187 -93 209 -73 235 -55 C 260 -36 287 -18 317 0 L 440 0 C 410 -24 384 -46 364 -66 C 344 -85 327 -103 315 -120 C 303 -136 294 -152 289 -167 C 283 -182 281 -197 281 -213 C 281 -230 286 -244 297 -256 C 307 -268 322 -274 342 -274 C 352 -274 363 -273 373 -272 C 383 -270 393 -268 404 -265 C 415 -261 427 -257 440 -251 C 452 -245 467 -239 483 -231 L 520 -311 Z" unicode="" />
<glyph horiz-adv-x="819" d="M 877 1479 C 869 1437 858 1400 842 1368 C 826 1335 808 1307 786 1284 C 764 1260 740 1242 714 1230 C 687 1218 659 1212 629 1212 C 610 1212 594 1213 580 1215 C 566 1217 554 1221 542 1226 C 530 1230 517 1236 505 1244 C 493 1251 479 1260 463 1270 C 439 1285 422 1295 411 1300 C 400 1304 389 1307 377 1307 C 360 1307 347 1300 337 1287 C 327 1274 316 1251 305 1219 L 147 1219 C 154 1259 165 1296 181 1329 C 197 1362 215 1390 237 1413 C 259 1436 283 1454 310 1466 C 336 1478 365 1485 395 1485 C 413 1485 429 1483 443 1481 C 457 1479 470 1475 482 1471 C 494 1466 506 1460 518 1453 C 530 1445 545 1437 561 1427 C 573 1419 583 1413 591 1409 C 599 1404 606 1400 612 1398 C 618 1395 624 1393 630 1392 C 635 1391 641 1391 647 1391 C 663 1391 677 1397 687 1410 C 697 1422 708 1445 719 1479 L 877 1479 Z" unicode="" />
<glyph horiz-adv-x="819" d="M 1165 1546 L 811 1219 L 618 1219 L 864 1546 L 1165 1546 Z M 776 1546 L 422 1219 L 229 1219 L 475 1546 L 776 1546 Z" unicode="" />
<glyph horiz-adv-x="819" d="M 756 1249 L 223 1249 L 256 1444 L 788 1444 L 756 1249 Z" unicode="" />
<glyph horiz-adv-x="1536" d="M 76 0 L 652 1536 L 884 1536 L 1456 0 L 76 0 Z M 352 148 L 1164 148 L 752 1256 L 352 148 Z" unicode="" />
<glyph horiz-adv-x="1664" d="M 832 1376 C 706 1376 599 1328 510 1234 C 420 1139 376 1006 376 836 C 376 673 405 538 464 432 C 522 325 609 241 724 180 L 724 0 L 88 0 L 88 196 L 536 196 C 456 225 378 295 304 406 C 229 516 192 664 192 848 C 192 1024 247 1184 358 1330 C 468 1475 626 1548 832 1548 C 1037 1548 1195 1478 1306 1338 C 1416 1198 1472 1034 1472 848 C 1472 664 1434 516 1360 406 C 1285 295 1208 225 1128 196 L 1576 196 L 1576 0 L 940 0 L 940 180 C 1054 241 1141 325 1200 432 C 1258 538 1288 673 1288 836 C 1288 974 1246 1099 1162 1210 C 1078 1320 968 1376 832 1376 Z" unicode="" />
<glyph horiz-adv-x="1408" d="M 252 -424 C 214 -424 186 -413 168 -392 C 149 -370 140 -333 140 -280 C 140 -226 141 -168 144 -106 C 146 -43 150 25 156 100 C 161 166 165 218 168 256 C 170 293 172 317 172 328 C 174 341 176 350 176 356 C 176 361 176 365 176 368 L 176 1176 L 368 1176 L 368 320 C 368 258 395 210 450 176 C 504 141 564 124 628 124 C 716 124 792 146 858 190 C 923 234 973 297 1008 380 L 1008 1176 L 1200 1176 L 1200 308 L 1220 0 L 1056 0 L 1020 176 C 974 104 913 50 836 14 C 758 -22 670 -40 572 -40 C 537 -40 494 -31 444 -14 C 393 3 353 28 324 60 C 324 1 333 -56 352 -112 C 370 -168 380 -218 380 -264 C 380 -370 337 -424 252 -424 Z" unicode="" />
<glyph horiz-adv-x="1408" d="M 296 0 L 296 1028 L 12 1028 L 12 1176 L 1316 1176 L 1316 1028 L 996 1028 L 996 344 C 996 266 1011 213 1042 184 C 1072 154 1109 140 1152 140 C 1184 140 1210 140 1232 142 C 1253 143 1274 148 1296 156 L 1296 28 C 1264 12 1234 0 1206 -6 C 1178 -12 1138 -16 1088 -16 C 1002 -16 935 10 886 64 C 836 117 812 208 812 336 L 812 1028 L 484 1028 L 484 0 L 296 0 Z" unicode="" />
<glyph horiz-adv-x="860" d="M 735 612 L 59 612 L 104 874 L 780 874 L 735 612 Z" unicode="" />
<glyph horiz-adv-x="1126" d="M 1001 612 L 59 612 L 104 874 L 1047 874 L 1001 612 Z" unicode="" />
<glyph horiz-adv-x="532" d="M 557 1434 L 440 915 L 154 915 L 391 1434 L 557 1434 Z" unicode="" />
<glyph horiz-adv-x="532" d="M 553 1434 L 315 915 L 150 915 L 266 1434 L 553 1434 Z" unicode="" />
<glyph horiz-adv-x="532" d="M 338 301 L 98 -217 L -68 -217 L 51 301 L 338 301 Z" unicode="" />
<glyph horiz-adv-x="973" d="M 997 1434 L 881 915 L 594 915 L 831 1434 L 997 1434 Z M 557 1434 L 440 915 L 154 915 L 391 1434 L 557 1434 Z" unicode="" />
<glyph horiz-adv-x="973" d="M 993 1434 L 756 915 L 590 915 L 707 1434 L 993 1434 Z M 553 1434 L 315 915 L 150 915 L 266 1434 L 553 1434 Z" unicode="" />
<glyph horiz-adv-x="973" d="M 778 301 L 539 -217 L 373 -217 L 492 301 L 778 301 Z M 338 301 L 98 -217 L -68 -217 L 51 301 L 338 301 Z" unicode="" />
<glyph horiz-adv-x="950" d="M 903 754 L 606 754 L 436 -205 L 190 -205 L 360 754 L 84 754 L 127 1001 L 403 1001 L 479 1434 L 725 1434 L 649 1001 L 946 1001 L 903 754 Z" unicode="" />
<glyph horiz-adv-x="950" d="M 809 225 L 512 225 L 436 -205 L 190 -205 L 266 225 L -10 225 L 35 473 L 311 473 L 360 754 L 84 754 L 127 1001 L 403 1001 L 479 1434 L 725 1434 L 649 1001 L 946 1001 L 903 754 L 606 754 L 557 473 L 854 473 L 809 225 Z" unicode="" />
<glyph horiz-adv-x="827" d="M 745 750 C 745 703 736 659 719 619 C 702 579 679 544 649 514 C 619 484 584 460 544 443 C 504 426 460 418 414 418 C 367 418 323 426 283 443 C 243 460 208 484 178 514 C 148 544 124 579 107 619 C 90 659 82 703 82 750 C 82 796 90 840 107 881 C 124 921 148 957 178 987 C 208 1017 243 1041 283 1059 C 323 1076 367 1085 414 1085 C 460 1085 504 1076 544 1059 C 584 1041 619 1017 649 987 C 679 957 702 921 719 881 C 736 840 745 796 745 750 Z" unicode="" />
<glyph horiz-adv-x="1511" d="M 1329 147 C 1329 123 1324 101 1315 81 C 1306 61 1294 43 1278 27 C 1262 11 1244 0 1224 -9 C 1203 -18 1181 -23 1159 -23 C 1135 -23 1113 -18 1093 -9 C 1073 0 1055 11 1039 27 C 1023 43 1011 61 1002 81 C 993 101 989 123 989 147 C 989 170 993 192 1002 213 C 1011 233 1023 251 1039 267 C 1055 282 1073 294 1093 303 C 1113 312 1135 317 1159 317 C 1181 317 1203 312 1224 303 C 1244 294 1262 282 1278 267 C 1294 251 1306 233 1315 213 C 1324 192 1329 170 1329 147 Z M 825 147 C 825 123 820 101 811 81 C 802 61 790 43 775 27 C 759 11 741 0 721 -9 C 700 -18 678 -23 655 -23 C 631 -23 609 -18 589 -9 C 569 0 551 11 535 27 C 519 43 507 61 498 81 C 489 101 485 123 485 147 C 485 170 489 192 498 213 C 507 233 519 251 535 267 C 551 282 569 294 589 303 C 609 312 631 317 655 317 C 678 317 700 312 721 303 C 741 294 759 282 775 267 C 790 251 802 233 811 213 C 820 192 825 170 825 147 Z M 322 147 C 322 123 317 101 308 81 C 299 61 287 43 271 27 C 255 11 237 0 217 -9 C 196 -18 174 -23 152 -23 C 128 -23 106 -18 86 -9 C 65 0 47 11 32 27 C 16 43 4 61 -4 81 C -13 101 -18 123 -18 147 C -18 170 -13 192 -4 213 C 4 233 16 251 32 267 C 47 282 65 294 86 303 C 106 312 128 317 152 317 C 174 317 196 312 217 303 C 237 294 255 282 271 267 C 287 251 299 233 308 213 C 317 192 322 170 322 147 Z" unicode="" />
<glyph horiz-adv-x="2540" d="M 371 565 C 279 565 210 594 163 653 C 115 712 92 794 94 899 C 94 977 104 1051 122 1119 C 140 1187 165 1246 198 1296 C 231 1346 271 1385 319 1413 C 367 1441 421 1456 483 1456 C 529 1456 570 1448 606 1433 C 641 1418 670 1396 694 1368 C 718 1339 735 1304 747 1264 C 759 1223 764 1177 764 1126 C 763 1048 754 974 736 906 C 718 838 692 778 658 728 C 624 677 583 637 535 608 C 487 579 432 565 371 565 Z M 1458 1434 L 520 0 L 313 0 L 1251 1434 L 1458 1434 Z M 2062 -23 C 1970 -23 1901 6 1854 65 C 1807 124 1784 206 1786 311 C 1786 389 1795 463 1813 531 C 1831 599 1856 658 1889 708 C 1922 758 1963 797 2011 825 C 2059 853 2113 868 2175 868 C 2221 868 2262 860 2298 845 C 2333 830 2362 808 2386 780 C 2409 751 2427 716 2439 676 C 2451 635 2456 589 2456 539 C 2455 460 2446 386 2428 318 C 2410 250 2384 190 2350 140 C 2316 89 2275 49 2227 20 C 2178 -8 2123 -23 2062 -23 Z M 1288 -23 C 1196 -23 1127 6 1080 65 C 1033 124 1010 206 1012 311 C 1012 389 1021 463 1039 531 C 1057 599 1082 658 1115 708 C 1148 758 1189 797 1237 825 C 1285 853 1339 868 1401 868 C 1447 868 1488 860 1523 845 C 1558 830 1587 808 1611 780 C 1635 751 1652 716 1664 676 C 1676 635 1681 589 1681 539 C 1680 460 1671 386 1653 318 C 1635 250 1609 190 1576 140 C 1542 89 1501 49 1453 20 C 1404 -8 1349 -23 1288 -23 Z M 557 1126 C 558 1174 551 1210 536 1235 C 521 1259 497 1272 463 1272 C 433 1272 409 1261 389 1240 C 369 1218 352 1190 340 1154 C 327 1118 317 1078 311 1032 C 305 986 301 938 301 889 C 299 843 306 808 320 784 C 334 760 359 748 393 748 C 423 748 448 759 468 783 C 488 807 505 837 518 874 C 530 910 540 951 546 996 C 552 1040 555 1084 557 1126 Z M 2249 539 C 2250 586 2243 622 2228 647 C 2212 671 2188 684 2154 684 C 2124 684 2100 673 2080 652 C 2060 630 2043 602 2031 567 C 2019 531 2009 491 2003 445 C 1997 399 1993 351 1993 301 C 1991 255 1998 220 2012 196 C 2026 172 2051 160 2085 160 C 2115 160 2140 171 2160 195 C 2180 219 2197 249 2210 286 C 2222 323 2232 364 2238 409 C 2244 453 2247 497 2249 539 Z M 1475 539 C 1476 586 1469 622 1454 647 C 1438 671 1414 684 1380 684 C 1350 684 1326 673 1306 652 C 1286 630 1269 602 1257 567 C 1245 531 1235 491 1229 445 C 1223 399 1219 351 1219 301 C 1217 255 1224 220 1238 196 C 1252 172 1277 160 1311 160 C 1341 160 1366 171 1386 195 C 1406 219 1423 249 1436 286 C 1448 323 1458 364 1464 409 C 1470 453 1473 497 1475 539 Z" unicode="" />
<glyph horiz-adv-x="631" d="M 453 0 L 211 0 L 29 537 L 401 1075 L 643 1075 L 281 539 L 453 0 Z" unicode="" />
<glyph horiz-adv-x="631" d="M 553 539 L 182 0 L -59 0 L 301 537 L 131 1075 L 373 1075 L 553 539 Z" unicode="" />
<glyph horiz-adv-x="858" d="M 1092 1434 L 43 0 L -233 0 L 815 1434 L 1092 1434 Z" unicode="" />
<glyph horiz-adv-x="1004" d="M 365 764 C 360 748 356 732 353 715 C 350 697 348 682 346 668 L 717 668 L 686 489 L 332 489 C 330 449 332 412 338 379 C 344 346 353 318 366 295 C 379 272 395 254 415 242 C 435 229 457 223 483 223 C 505 223 525 226 545 234 C 565 241 584 253 602 269 C 620 285 637 307 655 333 C 672 359 689 390 707 428 L 911 334 C 857 214 791 124 714 65 C 637 6 543 -23 432 -23 C 371 -23 319 -10 275 13 C 231 37 194 72 165 116 C 136 160 115 212 101 273 C 87 333 80 400 80 473 C 80 553 86 634 98 714 C 110 794 128 870 152 943 C 175 1016 204 1084 239 1146 C 273 1208 313 1263 358 1309 C 402 1355 452 1391 507 1417 C 561 1443 620 1456 684 1456 C 744 1456 796 1447 840 1431 C 883 1414 919 1390 947 1360 C 975 1329 997 1292 1013 1249 C 1028 1205 1038 1157 1044 1104 L 791 1026 C 784 1086 769 1131 747 1163 C 724 1194 688 1210 639 1210 C 589 1210 546 1188 509 1144 C 471 1100 438 1033 410 942 L 766 942 L 735 764 L 365 764 Z" unicode="" />
<glyph horiz-adv-x="1323" d="M 1221 717 C 1221 605 1206 503 1178 412 C 1149 320 1109 242 1059 178 C 1008 114 948 64 878 29 C 808 -5 733 -23 651 -23 C 569 -23 493 -5 424 29 C 354 64 294 114 244 178 C 193 242 153 320 125 412 C 96 503 82 605 82 717 C 82 829 96 930 125 1021 C 153 1112 193 1190 244 1254 C 294 1318 354 1368 424 1403 C 493 1438 569 1456 651 1456 C 733 1456 808 1438 878 1403 C 948 1368 1008 1318 1059 1254 C 1109 1190 1149 1112 1178 1021 C 1206 930 1221 829 1221 717 Z M 1096 713 C 1096 805 1085 890 1064 967 C 1043 1043 1013 1109 974 1164 C 935 1219 888 1262 834 1292 C 779 1322 718 1337 651 1337 C 583 1337 521 1322 467 1293 C 412 1263 365 1222 327 1168 C 288 1114 258 1050 238 974 C 217 898 207 814 207 721 C 207 627 217 542 238 466 C 259 389 289 323 328 268 C 367 213 414 171 469 141 C 524 111 586 96 655 96 C 722 96 783 110 837 140 C 891 169 938 210 976 264 C 1014 318 1044 383 1065 459 C 1085 535 1096 619 1096 713 Z M 926 862 C 926 818 918 781 904 749 C 890 717 871 690 847 668 C 823 646 795 630 764 620 C 732 609 700 604 666 604 L 600 604 L 600 315 L 457 315 L 457 1118 L 672 1118 C 710 1118 744 1112 775 1102 C 806 1091 833 1075 855 1054 C 877 1032 895 1006 907 974 C 919 942 926 904 926 862 Z M 782 860 C 782 894 772 922 754 945 C 736 967 706 979 664 979 L 600 979 L 600 743 L 672 743 C 708 743 736 753 754 773 C 772 793 782 822 782 860 Z" unicode="" />
<glyph horiz-adv-x="1272" d="M 602 1296 L 436 1296 L 317 631 L 174 631 L 293 1296 L 127 1296 L 150 1434 L 625 1434 L 602 1296 Z M 1159 631 L 1028 631 L 1073 887 C 1080 927 1087 964 1094 1000 C 1100 1036 1106 1068 1112 1096 C 1099 1068 1084 1036 1066 1001 C 1048 965 1029 929 1010 891 L 864 610 L 817 891 C 811 930 805 967 799 1003 C 793 1038 789 1070 786 1098 C 782 1070 776 1038 770 1002 C 764 966 757 928 750 887 L 705 631 L 573 631 L 715 1434 L 860 1434 L 907 1133 C 912 1099 916 1068 920 1040 C 923 1012 926 985 928 961 C 938 985 950 1012 964 1040 C 978 1068 993 1099 1010 1133 L 1157 1434 L 1300 1434 L 1159 631 Z" unicode="" />
<glyph horiz-adv-x="1664" d="M 832 1376 C 706 1376 599 1328 510 1234 C 420 1139 376 1006 376 836 C 376 673 405 538 464 432 C 522 325 609 241 724 180 L 724 0 L 88 0 L 88 196 L 536 196 C 456 225 378 295 304 406 C 229 516 192 664 192 848 C 192 1024 247 1184 358 1330 C 468 1475 626 1548 832 1548 C 1037 1548 1195 1478 1306 1338 C 1416 1198 1472 1034 1472 848 C 1472 664 1434 516 1360 406 C 1285 295 1208 225 1128 196 L 1576 196 L 1576 0 L 940 0 L 940 180 C 1054 241 1141 325 1200 432 C 1258 538 1288 673 1288 836 C 1288 974 1246 1099 1162 1210 C 1078 1320 968 1376 832 1376 Z" unicode="" />
<glyph horiz-adv-x="1280" d="M 476 -32 C 342 -32 239 5 166 80 C 92 154 56 248 56 360 C 56 506 108 636 214 750 C 319 863 449 920 604 920 C 668 920 734 908 802 886 C 870 863 924 840 964 816 C 972 872 976 928 976 984 C 976 1109 953 1207 908 1278 C 862 1348 800 1384 720 1384 C 634 1384 567 1374 518 1356 C 468 1337 418 1312 368 1280 L 324 1444 C 374 1473 430 1498 492 1518 C 553 1538 629 1548 720 1548 C 877 1548 992 1496 1064 1394 C 1136 1291 1172 1149 1172 968 C 1172 690 1104 454 968 260 C 832 65 668 -32 476 -32 Z M 488 128 C 602 128 698 174 774 268 C 850 361 906 500 944 684 C 922 705 882 726 824 748 C 765 769 706 780 648 780 C 520 780 424 738 360 654 C 296 570 264 476 264 372 C 264 300 282 241 318 196 C 354 150 410 128 488 128 Z" unicode="" />
<glyph horiz-adv-x="1536" d="M 76 0 L 652 1536 L 884 1536 L 1456 0 L 76 0 Z M 352 148 L 1164 148 L 752 1256 L 352 148 Z" unicode="" />
<glyph horiz-adv-x="1536" d="M 332 0 L 332 1348 L 80 1348 L 80 1524 L 1456 1524 L 1456 1348 L 1212 1348 L 1212 0 L 1004 0 L 1004 1356 L 540 1356 L 540 0 L 332 0 Z" unicode="" />
<glyph horiz-adv-x="1152" d="M 1084 1524 L 1084 1344 L 332 1344 L 796 784 L 304 188 L 1080 188 L 1080 0 L 40 0 L 40 172 L 560 788 L 68 1380 L 68 1524 L 1084 1524 Z" unicode="" />
<glyph horiz-adv-x="1536" d="M 200 692 L 200 888 L 1336 888 L 1336 692 L 200 692 Z" unicode="" />
<glyph horiz-adv-x="858" d="M 1092 1434 L 43 0 L -233 0 L 815 1434 L 1092 1434 Z" unicode="" />
<glyph horiz-adv-x="504" d="M 422 752 C 422 728 417 706 408 686 C 399 665 387 647 371 632 C 355 616 337 604 317 595 C 296 586 274 582 252 582 C 228 582 206 586 186 595 C 166 604 148 616 132 632 C 116 647 104 665 95 686 C 86 706 82 728 82 752 C 82 774 86 796 95 817 C 104 837 116 855 132 871 C 148 887 166 899 186 908 C 206 917 228 922 252 922 C 274 922 296 917 317 908 C 337 899 355 887 371 871 C 387 855 399 837 408 817 C 417 796 422 774 422 752 Z" unicode="" />
<glyph horiz-adv-x="1073" d="M 1206 1434 L 481 0 L 209 0 L 80 696 L 340 696 L 365 496 C 367 474 370 452 372 429 C 374 406 377 383 379 360 C 381 337 382 315 383 294 C 384 273 385 254 385 238 C 393 256 402 277 412 299 C 422 321 433 344 444 368 C 455 392 466 415 477 438 C 487 461 498 483 508 504 L 954 1434 L 1206 1434 Z" unicode="" />
<glyph horiz-adv-x="1536" d="M 468 1216 C 566 1216 646 1188 706 1134 C 766 1079 813 981 848 840 C 853 720 877 642 920 608 C 962 573 1013 556 1072 556 C 1128 556 1176 579 1218 626 C 1259 672 1280 736 1280 816 C 1280 882 1264 940 1234 988 C 1203 1036 1152 1060 1080 1060 C 1008 1060 954 1029 920 968 C 885 906 857 834 836 752 C 809 648 760 562 688 496 C 616 429 533 396 440 396 C 336 396 252 433 190 508 C 127 582 96 682 96 808 C 96 925 133 1022 208 1100 C 282 1177 369 1216 468 1216 Z M 1072 396 C 973 396 896 424 840 482 C 784 539 741 633 712 764 C 685 870 652 944 614 986 C 575 1027 528 1048 472 1048 C 408 1048 356 1026 316 982 C 276 938 256 874 256 792 C 256 709 271 648 302 610 C 332 571 381 552 448 552 C 509 552 562 576 608 624 C 653 672 689 752 716 864 C 748 984 796 1072 860 1130 C 924 1187 1004 1216 1100 1216 C 1198 1216 1280 1181 1346 1112 C 1411 1042 1444 945 1444 820 C 1444 700 1409 599 1340 518 C 1270 436 1181 396 1072 396 Z" unicode="" />
<glyph horiz-adv-x="1152" d="M -8 -392 L 56 -260 C 72 -265 88 -270 104 -274 C 120 -278 140 -280 164 -280 C 196 -280 222 -268 242 -246 C 262 -223 277 -178 288 -112 L 516 1224 C 534 1330 574 1410 636 1464 C 697 1517 778 1544 880 1544 C 941 1544 995 1536 1042 1522 C 1088 1507 1125 1492 1152 1476 L 1088 1304 C 1058 1322 1025 1340 988 1356 C 950 1372 910 1380 868 1380 C 806 1380 760 1360 730 1322 C 699 1283 680 1238 672 1188 L 448 -224 C 434 -296 402 -348 350 -382 C 298 -415 240 -432 176 -432 C 136 -432 99 -428 66 -420 C 32 -412 8 -402 -8 -392 Z" unicode="" />
<glyph horiz-adv-x="1536" d="M 236 400 C 230 429 228 456 228 480 C 228 546 248 604 288 652 C 328 700 390 724 476 724 C 542 724 600 714 650 696 C 699 677 745 659 788 642 C 830 624 872 610 912 598 C 952 586 988 580 1020 580 C 1070 580 1106 590 1128 610 C 1149 630 1160 654 1160 684 C 1160 694 1158 705 1156 716 L 1300 716 C 1305 686 1308 660 1308 636 C 1308 569 1288 512 1248 464 C 1208 416 1145 392 1060 392 C 993 392 935 400 886 418 C 836 435 790 452 748 470 C 705 487 664 501 624 512 C 584 522 548 528 516 528 C 465 528 429 518 408 500 C 386 481 376 458 376 432 C 376 421 377 410 380 400 L 236 400 Z M 236 860 C 230 889 228 916 228 940 C 228 1006 248 1064 288 1112 C 328 1160 390 1184 476 1184 C 542 1184 600 1174 650 1156 C 699 1137 745 1119 788 1102 C 830 1084 872 1070 912 1058 C 952 1046 988 1040 1020 1040 C 1070 1040 1106 1050 1128 1070 C 1149 1090 1160 1114 1160 1144 C 1160 1154 1158 1165 1156 1176 L 1300 1176 C 1305 1146 1308 1120 1308 1096 C 1308 1029 1288 972 1248 924 C 1208 876 1145 852 1060 852 C 993 852 935 860 886 878 C 836 895 790 912 748 930 C 705 947 664 961 624 972 C 584 982 548 988 516 988 C 465 988 429 978 408 960 C 386 941 376 918 376 892 C 376 881 377 870 380 860 L 236 860 Z" unicode="" />
<glyph horiz-adv-x="1536" d="M 212 404 L 212 604 L 1328 604 L 1328 404 L 212 404 Z M 212 976 L 212 1176 L 1328 1176 L 1328 976 L 212 976 Z M 548 188 L 372 188 L 996 1356 L 1168 1356 L 548 188 Z" unicode="" />
<glyph horiz-adv-x="1536" d="M 1348 236 L 208 708 L 208 872 L 1348 1344 L 1348 1128 L 448 792 L 1348 452 L 1348 236 Z M 212 24 L 212 216 L 1348 216 L 1348 24 L 212 24 Z" unicode="" />
<glyph horiz-adv-x="1536" d="M 212 236 L 212 452 L 1112 792 L 212 1128 L 212 1344 L 1352 872 L 1352 708 L 212 236 Z M 212 24 L 212 216 L 1348 216 L 1348 24 L 212 24 Z" unicode="" />
<glyph horiz-adv-x="1152" d="M 472 -48 L 68 756 L 472 1560 L 656 1560 L 1084 756 L 656 -48 L 472 -48 Z M 556 152 L 876 768 L 572 1356 L 252 740 L 556 152 Z" unicode="" />
<glyph horiz-adv-x="1577" d="M 1536 717 L 1176 444 C 1165 436 1155 432 1145 433 C 1135 433 1127 436 1122 440 C 1112 447 1105 456 1102 466 C 1099 476 1100 488 1104 504 L 1133 606 L 895 606 L 895 373 L 999 401 C 1014 405 1026 406 1036 404 C 1045 401 1053 394 1061 383 C 1065 377 1067 370 1067 361 C 1067 351 1063 341 1055 330 L 788 -31 L 516 330 C 508 340 504 350 505 360 C 505 370 508 377 512 383 C 519 393 527 399 537 403 C 547 406 559 405 575 401 L 678 373 L 678 606 L 444 606 L 473 504 C 477 488 477 476 474 466 C 471 456 465 447 455 440 C 449 436 442 433 432 433 C 422 432 411 436 401 444 L 41 717 L 401 983 C 412 991 422 995 432 995 C 442 995 449 993 455 989 C 466 981 473 973 475 964 C 477 955 477 943 473 928 L 444 823 L 678 823 L 678 1061 L 575 1032 C 546 1024 525 1031 512 1051 C 508 1056 505 1063 505 1073 C 504 1083 508 1093 516 1104 L 788 1464 L 1055 1104 C 1063 1092 1067 1082 1067 1073 C 1067 1063 1065 1056 1061 1051 C 1053 1039 1045 1032 1036 1030 C 1026 1027 1014 1028 999 1032 L 895 1061 L 895 823 L 1133 823 L 1104 928 C 1100 943 1099 955 1101 964 C 1103 973 1110 981 1122 989 C 1127 993 1134 995 1144 995 C 1154 995 1164 991 1176 983 L 1536 717 Z" unicode="" />
<glyph horiz-adv-x="1102" d="M 1112 1333 C 1112 1311 1107 1291 1099 1273 C 1091 1255 1080 1239 1066 1225 C 1052 1211 1035 1200 1017 1192 C 998 1184 978 1180 958 1180 C 936 1180 916 1184 898 1192 C 880 1200 864 1211 850 1225 C 836 1239 825 1255 817 1273 C 809 1291 805 1311 805 1333 C 805 1353 809 1373 817 1392 C 825 1410 836 1427 850 1441 C 864 1455 880 1466 898 1474 C 916 1482 936 1487 958 1487 C 978 1487 998 1482 1017 1474 C 1035 1466 1052 1455 1066 1441 C 1080 1427 1091 1410 1099 1392 C 1107 1373 1112 1353 1112 1333 Z M 698 1247 C 684 1254 669 1259 653 1263 C 637 1266 617 1268 594 1268 C 560 1268 534 1260 517 1245 C 499 1229 487 1202 481 1163 L 467 1075 L 639 1075 L 598 846 L 426 846 L 276 0 L 35 0 L 184 846 L 76 846 L 117 1075 L 225 1075 L 248 1204 C 256 1253 271 1295 291 1331 C 311 1367 334 1396 362 1419 C 390 1442 420 1459 454 1470 C 488 1481 523 1487 559 1487 C 601 1487 635 1484 662 1479 C 689 1474 713 1466 735 1456 L 698 1247 Z M 844 0 L 602 0 L 793 1075 L 1034 1075 L 844 0 Z" unicode="" />
<glyph horiz-adv-x="1122" d="M 844 0 L 602 0 L 844 1372 L 1108 1493 L 844 0 Z M 698 1247 C 684 1254 669 1259 653 1263 C 637 1266 617 1268 594 1268 C 560 1268 534 1260 517 1245 C 499 1229 487 1202 481 1163 L 467 1075 L 639 1075 L 598 846 L 426 846 L 276 0 L 35 0 L 184 846 L 76 846 L 117 1075 L 225 1075 L 248 1204 C 256 1253 271 1295 291 1331 C 311 1367 334 1396 362 1419 C 390 1442 420 1459 454 1470 C 488 1481 523 1487 559 1487 C 601 1487 635 1484 662 1479 C 689 1474 713 1466 735 1456 L 698 1247 Z" unicode="" />
</font>
</defs>
</svg>
