<?xml version="1.0" encoding="utf-8" ?><svg version="1.1" xmlns = 'http://www.w3.org/2000/svg'><defs><font id='web' horiz-adv-x="1000">
<font-face font-family="web" descent="-457" cap-height="1400" units-per-em="2048" bbox="-1132,-538,2462,2038" x-height="874" ascent="1591" />
<missing-glyph horiz-adv-x="1332" d="" /><glyph horiz-adv-x="500" d="" unicode=" " />
<glyph horiz-adv-x="568" d="M 174 1380 C 174 1389 174 1395 176 1397 C 177 1399 182 1400 192 1400 L 376 1400 C 385 1400 390 1399 392 1397 C 393 1395 394 1389 394 1380 L 354 398 C 354 388 352 383 350 381 C 347 379 341 378 332 378 L 236 378 C 226 378 220 379 218 381 C 215 383 214 388 214 398 L 174 1380 Z M 284 -24 C 250 -24 221 -12 197 11 C 172 34 160 64 160 100 C 160 134 172 164 196 188 C 220 212 249 224 284 224 C 318 224 348 212 372 188 C 396 164 408 135 408 102 C 408 67 396 37 372 13 C 348 -11 318 -24 284 -24 Z" unicode="!" />
<glyph horiz-adv-x="720" d="M 278 1400 C 287 1400 293 1398 295 1396 C 297 1393 297 1388 296 1380 L 258 972 C 256 964 255 958 253 956 C 251 953 246 952 238 952 L 162 952 C 154 952 149 953 147 956 C 145 958 143 964 142 972 L 104 1380 C 102 1388 103 1393 105 1396 C 107 1398 112 1400 122 1400 L 278 1400 L 278 1400 Z M 598 1400 C 607 1400 613 1398 615 1396 C 617 1393 617 1388 616 1380 L 578 972 C 576 964 575 958 573 956 C 571 953 566 952 558 952 L 482 952 C 474 952 469 953 467 956 C 465 958 463 964 462 972 L 424 1380 C 422 1388 423 1393 425 1396 C 427 1398 432 1400 442 1400 L 598 1400 L 598 1400 Z" unicode="&#x22;" />
<glyph horiz-adv-x="1048" d="M 368 358 L 310 20 C 307 12 305 6 303 4 C 301 1 295 0 286 0 L 186 0 C 176 0 171 1 170 4 C 168 6 168 12 170 20 L 228 358 L 82 358 C 72 358 67 359 65 362 C 63 364 62 370 62 378 L 62 466 C 62 474 63 479 65 482 C 67 484 72 486 82 486 L 250 486 L 302 780 L 142 780 C 132 780 127 781 125 784 C 123 786 122 792 122 800 L 122 888 C 122 896 123 901 125 904 C 127 906 132 908 142 908 L 326 908 L 384 1240 C 386 1248 389 1253 391 1256 C 393 1258 398 1260 408 1260 L 508 1260 C 524 1260 529 1253 524 1240 L 466 908 L 682 908 L 740 1240 C 742 1248 745 1253 747 1256 C 749 1258 754 1260 764 1260 L 864 1260 C 880 1260 885 1253 880 1240 L 822 908 L 968 908 C 977 908 983 906 985 904 C 987 901 988 896 988 888 L 988 800 C 988 792 987 786 985 784 C 983 781 977 780 968 780 L 798 780 L 746 486 L 908 486 C 917 486 923 484 925 482 C 927 479 928 474 928 466 L 928 378 C 928 370 927 364 925 362 C 923 359 917 358 908 358 L 724 358 L 666 20 C 663 12 661 6 659 4 C 657 1 651 0 642 0 L 542 0 C 532 0 527 1 526 4 C 524 6 524 12 526 20 L 584 358 L 368 358 Z M 606 486 L 658 780 L 442 780 L 390 486 L 606 486 Z" unicode="#" />
<glyph horiz-adv-x="1022" d="M 734 394 C 734 423 730 448 722 469 C 714 489 702 507 688 522 C 673 536 655 550 635 563 C 614 575 591 588 566 602 L 566 212 C 610 214 649 231 683 261 C 717 291 734 335 734 394 Z M 440 1192 C 418 1190 398 1187 380 1181 C 361 1175 345 1166 331 1154 C 317 1142 305 1126 297 1107 C 288 1087 284 1064 284 1036 C 284 984 298 943 326 914 C 354 884 392 858 440 836 L 440 1192 Z M 440 638 L 392 660 C 300 702 230 752 183 808 C 135 864 112 934 112 1020 C 112 1060 118 1099 132 1137 C 145 1175 165 1209 193 1240 C 220 1270 254 1296 296 1316 C 337 1336 385 1348 440 1354 L 440 1480 C 440 1489 441 1495 443 1497 C 445 1499 450 1500 460 1500 L 546 1500 C 555 1500 561 1499 563 1497 C 565 1495 566 1489 566 1480 L 566 1354 C 608 1354 653 1345 700 1328 C 746 1310 785 1292 816 1274 C 826 1267 832 1260 832 1254 L 832 1076 C 832 1066 829 1062 824 1062 C 820 1062 816 1063 814 1066 C 775 1104 734 1135 692 1158 C 649 1180 607 1192 566 1192 L 566 794 L 646 756 C 735 712 801 662 845 608 C 888 553 910 489 910 416 C 910 360 901 311 884 269 C 866 227 842 191 812 161 C 781 131 745 107 703 89 C 661 71 615 58 566 50 L 566 -80 C 566 -89 565 -95 563 -97 C 561 -99 555 -100 546 -100 L 460 -100 C 450 -100 445 -99 443 -97 C 441 -95 440 -89 440 -80 L 440 50 C 418 50 395 52 369 57 C 343 61 317 68 291 76 C 265 84 240 92 217 102 C 193 111 174 120 160 130 C 149 136 144 143 144 150 L 144 328 C 144 337 146 342 152 342 C 156 342 159 340 162 338 C 200 299 246 268 299 246 C 351 223 398 212 440 212 L 440 638 Z" unicode="$" />
<glyph horiz-adv-x="1938" d="M 684 1074 C 684 1102 679 1129 670 1154 C 661 1178 648 1200 632 1218 C 615 1236 595 1251 571 1262 C 547 1272 520 1278 490 1278 C 459 1278 432 1272 408 1262 C 384 1251 363 1236 346 1218 C 329 1200 316 1178 307 1154 C 298 1129 294 1102 294 1074 C 294 1045 298 1018 307 994 C 316 969 329 947 346 929 C 363 911 384 896 408 886 C 432 875 459 870 490 870 C 520 870 547 875 571 886 C 595 896 615 911 632 929 C 648 947 661 969 670 994 C 679 1018 684 1045 684 1074 Z M 144 1074 C 144 1119 152 1162 168 1204 C 184 1245 207 1281 237 1312 C 267 1343 303 1368 346 1386 C 388 1404 436 1414 490 1414 C 542 1414 590 1404 632 1386 C 674 1368 711 1343 741 1312 C 771 1281 794 1245 810 1204 C 826 1162 834 1119 834 1074 C 834 1028 826 985 810 944 C 794 902 771 866 741 835 C 711 804 674 779 632 761 C 590 743 542 734 490 734 C 436 734 388 743 346 761 C 303 779 267 804 237 835 C 207 866 184 902 168 944 C 152 985 144 1028 144 1074 Z M 1644 326 C 1644 354 1639 381 1630 406 C 1621 430 1608 452 1592 470 C 1575 488 1555 503 1531 514 C 1507 524 1480 530 1450 530 C 1419 530 1392 524 1368 514 C 1344 503 1323 488 1306 470 C 1289 452 1276 430 1267 406 C 1258 381 1254 354 1254 326 C 1254 297 1258 270 1267 246 C 1276 221 1289 199 1306 181 C 1323 163 1344 148 1368 138 C 1392 127 1419 122 1450 122 C 1480 122 1507 127 1531 138 C 1555 148 1575 163 1592 181 C 1608 199 1621 221 1630 246 C 1639 270 1644 297 1644 326 Z M 1104 326 C 1104 371 1112 414 1128 456 C 1144 497 1167 533 1197 564 C 1227 595 1263 620 1306 638 C 1348 656 1396 666 1450 666 C 1502 666 1550 656 1592 638 C 1634 620 1671 595 1701 564 C 1731 533 1754 497 1770 456 C 1786 414 1794 371 1794 326 C 1794 280 1786 237 1770 196 C 1754 154 1731 118 1701 87 C 1671 56 1634 31 1592 13 C 1550 -4 1502 -14 1450 -14 C 1396 -14 1348 -4 1306 13 C 1263 31 1227 56 1197 87 C 1167 118 1144 154 1128 196 C 1112 237 1104 280 1104 326 Z M 1310 1422 C 1314 1429 1317 1433 1320 1433 C 1323 1433 1328 1432 1336 1428 L 1422 1378 C 1428 1374 1431 1370 1433 1367 C 1435 1363 1434 1358 1430 1350 L 638 -22 C 634 -29 630 -33 627 -33 C 624 -33 619 -32 612 -28 L 526 22 C 520 26 516 29 514 33 C 512 36 514 42 518 50 L 1310 1422 Z" unicode="%" />
<glyph horiz-adv-x="1282" d="M 492 670 C 488 675 484 678 480 678 C 477 678 475 677 473 676 C 471 674 468 673 466 672 C 442 653 419 635 398 617 C 376 599 357 579 341 558 C 324 536 311 513 301 487 C 291 461 286 431 286 398 C 286 351 294 311 311 279 C 327 246 348 219 374 199 C 399 178 427 163 459 154 C 490 144 520 140 548 140 C 605 140 653 147 691 162 C 729 176 768 205 808 248 C 812 252 814 256 814 262 C 814 266 812 271 808 278 L 492 670 Z M 400 1132 C 400 1113 404 1094 412 1074 C 420 1054 429 1034 441 1016 C 452 997 464 979 477 963 C 489 946 501 931 512 918 C 517 912 522 910 528 910 C 532 910 537 912 544 918 C 570 939 593 958 611 974 C 629 990 643 1005 654 1021 C 664 1036 672 1052 677 1070 C 681 1087 684 1108 684 1132 C 684 1173 670 1207 644 1233 C 617 1259 582 1272 540 1272 C 497 1272 463 1259 438 1233 C 412 1207 400 1173 400 1132 Z M 1048 280 C 1044 273 1042 268 1042 266 C 1042 262 1044 256 1050 250 L 1222 26 C 1223 24 1224 23 1224 23 C 1224 22 1224 21 1226 20 C 1228 12 1230 8 1230 8 C 1230 2 1224 0 1212 0 L 1042 0 C 1032 0 1024 4 1016 14 L 932 124 C 929 128 927 130 926 130 C 923 130 920 128 916 124 C 873 76 820 40 756 16 C 692 -8 625 -20 556 -20 C 497 -20 440 -11 386 5 C 331 21 282 47 240 81 C 197 115 163 158 138 211 C 112 263 100 325 100 396 C 100 449 107 496 122 537 C 136 577 156 614 182 647 C 207 679 236 708 268 734 C 300 759 333 784 368 808 C 373 809 376 813 376 820 C 376 824 374 827 372 830 C 357 847 341 868 324 892 C 306 916 291 941 277 968 C 263 994 251 1022 242 1050 C 232 1078 228 1105 228 1132 C 228 1177 236 1218 254 1254 C 271 1290 294 1320 324 1345 C 353 1369 386 1388 424 1401 C 461 1413 500 1420 540 1420 C 581 1420 621 1413 659 1401 C 697 1388 730 1369 760 1345 C 789 1320 812 1290 830 1254 C 847 1218 856 1177 856 1132 C 856 1090 850 1053 839 1021 C 827 988 812 958 793 931 C 773 903 751 878 725 855 C 699 831 671 808 642 786 C 636 784 634 780 634 772 C 634 766 636 761 640 756 L 906 416 C 910 410 914 408 918 408 C 923 408 926 410 928 416 C 938 441 947 473 954 513 C 960 552 965 586 968 616 C 968 626 973 632 984 632 L 1130 632 C 1142 632 1148 626 1148 616 C 1146 589 1143 561 1137 531 C 1131 501 1123 471 1114 441 C 1104 411 1094 382 1083 354 C 1071 326 1060 301 1048 280 Z" unicode="&#x26;" />
<glyph horiz-adv-x="400" d="M 278 1400 C 287 1400 293 1398 295 1396 C 297 1393 297 1388 296 1380 L 258 972 C 256 964 255 958 253 956 C 251 953 246 952 238 952 L 162 952 C 154 952 149 953 147 956 C 145 958 143 964 142 972 L 104 1380 C 102 1388 103 1393 105 1396 C 107 1398 112 1400 122 1400 L 278 1400 L 278 1400 Z" unicode="'" />
<glyph horiz-adv-x="524" d="M 286 -270 C 260 -214 236 -153 213 -87 C 189 -21 169 49 151 123 C 133 197 118 274 108 354 C 97 434 92 515 92 598 C 92 682 97 763 108 842 C 118 920 133 996 151 1068 C 169 1140 189 1208 213 1273 C 236 1337 260 1397 286 1452 C 290 1461 294 1466 300 1466 C 305 1466 308 1465 310 1464 L 442 1406 C 448 1403 452 1399 452 1394 C 452 1388 451 1385 450 1384 C 427 1336 405 1282 384 1224 C 362 1165 343 1102 327 1036 C 310 969 297 899 287 825 C 277 751 272 675 272 598 C 272 519 277 442 287 367 C 297 291 310 219 327 151 C 343 82 362 18 384 -41 C 405 -100 427 -154 450 -202 C 451 -203 452 -206 452 -212 C 452 -217 448 -221 442 -224 L 310 -282 C 308 -283 305 -284 300 -284 C 294 -284 290 -279 286 -270 Z" unicode="(" />
<glyph horiz-adv-x="524" d="M 238 -270 C 234 -279 229 -284 224 -284 C 218 -284 215 -283 214 -282 L 82 -224 C 75 -221 72 -217 72 -212 C 72 -206 72 -203 74 -202 C 96 -154 118 -100 140 -41 C 161 18 180 82 197 151 C 213 219 227 291 237 367 C 247 442 252 519 252 598 C 252 675 247 751 237 825 C 227 899 213 969 197 1036 C 180 1102 161 1165 140 1224 C 118 1282 96 1336 74 1384 C 72 1385 72 1388 72 1394 C 72 1399 75 1403 82 1406 L 214 1464 C 215 1465 218 1466 224 1466 C 229 1466 234 1461 238 1452 C 263 1397 287 1337 311 1273 C 334 1208 355 1140 373 1068 C 391 996 405 920 416 842 C 426 763 432 682 432 598 C 432 515 426 434 416 354 C 405 274 391 197 373 123 C 355 49 334 -21 311 -87 C 287 -153 263 -214 238 -270 Z" unicode=")" />
<glyph horiz-adv-x="662" d="M 282 912 C 272 912 267 913 265 916 C 263 918 262 924 262 932 L 280 1072 L 274 1076 L 156 996 C 145 988 136 990 128 1004 L 86 1076 C 83 1080 82 1084 82 1090 C 82 1095 85 1100 92 1104 L 226 1162 L 226 1170 L 92 1230 C 81 1235 79 1244 86 1258 L 128 1330 C 130 1336 134 1341 138 1343 C 142 1345 147 1343 154 1338 L 274 1254 L 280 1256 L 262 1400 C 262 1408 263 1413 265 1416 C 267 1418 272 1420 282 1420 L 378 1420 C 387 1420 393 1418 395 1416 C 397 1413 398 1408 398 1400 L 380 1258 L 386 1254 L 506 1338 C 512 1342 517 1343 521 1343 C 524 1342 528 1338 532 1330 L 574 1258 C 582 1246 580 1236 568 1230 L 436 1168 L 436 1162 L 568 1104 C 577 1100 582 1096 582 1093 C 582 1089 579 1084 574 1076 L 532 1004 C 528 997 524 993 520 991 C 516 989 510 990 504 996 L 388 1076 L 382 1072 L 398 932 C 398 924 397 918 395 916 C 393 913 387 912 378 912 L 282 912 L 282 912 Z" unicode="*" />
<glyph horiz-adv-x="1000" d="M 580 568 C 580 558 581 553 583 551 C 585 549 590 548 600 548 L 910 548 C 919 548 925 546 927 544 C 929 541 930 536 930 528 L 930 420 C 930 412 929 406 927 404 C 925 401 919 400 910 400 L 600 400 C 590 400 585 399 583 397 C 581 395 580 389 580 380 L 580 20 C 580 12 579 6 577 4 C 575 1 569 0 560 0 L 440 0 C 430 0 425 1 423 4 C 421 6 420 12 420 20 L 420 380 C 420 389 419 395 417 397 C 415 399 409 400 400 400 L 90 400 C 80 400 75 401 73 404 C 71 406 70 412 70 420 L 70 528 C 70 536 71 541 73 544 C 75 546 80 548 90 548 L 400 548 C 409 548 415 549 417 551 C 419 553 420 558 420 568 L 420 926 C 420 934 421 939 423 942 C 425 944 430 946 440 946 L 560 946 C 569 946 575 944 577 942 C 579 939 580 934 580 926 L 580 568 Z" unicode="+" />
<glyph horiz-adv-x="500" d="M 160 174 C 161 182 163 187 165 190 C 167 192 172 194 182 194 L 338 194 C 351 194 357 187 356 174 L 242 -218 C 239 -226 237 -231 235 -234 C 233 -236 227 -238 218 -238 L 132 -238 C 124 -238 119 -236 118 -233 C 116 -229 116 -224 116 -218 L 160 174 L 160 174 Z" unicode="," />
<glyph horiz-adv-x="600" d="M 100 600 C 100 609 101 615 104 617 C 106 619 112 620 120 620 L 480 620 C 489 620 495 619 497 617 C 499 615 500 609 500 600 L 500 480 C 500 470 499 465 497 463 C 495 461 489 460 480 460 L 120 460 C 110 460 105 461 103 463 C 101 465 100 470 100 480 L 100 600 L 100 600 Z" unicode="-" />
<glyph horiz-adv-x="500" d="M 250 -24 C 216 -24 187 -12 163 11 C 138 34 126 64 126 100 C 126 134 138 164 162 188 C 186 212 215 224 250 224 C 284 224 314 212 338 188 C 362 164 374 135 374 102 C 374 67 362 37 338 13 C 314 -11 284 -24 250 -24 Z" unicode="." />
<glyph horiz-adv-x="1000" d="M 206 -160 C 200 -169 196 -174 193 -176 C 189 -177 184 -176 178 -174 L 74 -124 C 60 -117 58 -108 66 -96 L 794 1456 C 799 1465 803 1470 807 1472 C 810 1473 815 1472 822 1470 L 926 1420 C 939 1413 942 1404 934 1392 L 206 -160 L 206 -160 Z" unicode="/" />
<glyph horiz-adv-x="1016" d="M 926 630 C 926 418 890 256 820 146 C 749 35 645 -20 508 -20 C 370 -20 266 35 196 146 C 125 256 90 418 90 630 C 90 842 125 1003 196 1114 C 266 1224 370 1280 508 1280 C 645 1280 749 1224 820 1114 C 890 1003 926 842 926 630 Z M 278 630 C 278 555 282 488 290 429 C 298 369 311 319 329 277 C 347 235 370 203 400 181 C 429 159 465 148 508 148 C 550 148 586 159 616 181 C 645 203 669 235 687 277 C 705 319 718 369 726 429 C 734 488 738 555 738 630 C 738 704 734 771 726 831 C 718 890 705 941 687 983 C 669 1025 645 1057 616 1079 C 586 1101 550 1112 508 1112 C 465 1112 429 1101 400 1079 C 370 1057 347 1025 329 983 C 311 941 298 890 290 831 C 282 771 278 704 278 630 Z" unicode="0" />
<glyph horiz-adv-x="620" d="M 460 20 C 460 10 459 5 457 3 C 455 1 449 0 440 0 L 300 0 C 290 0 285 1 283 3 C 281 5 280 10 280 20 L 280 1016 C 280 1026 279 1033 277 1036 C 275 1038 269 1038 260 1036 L 84 978 C 76 975 70 974 68 975 C 65 975 64 980 64 990 L 64 1120 C 64 1129 65 1135 68 1139 C 70 1142 76 1145 84 1148 L 440 1272 C 450 1274 456 1275 458 1273 C 459 1271 460 1265 460 1256 L 460 20 L 460 20 Z" unicode="1" />
<glyph horiz-adv-x="938" d="M 820 158 C 829 158 835 157 837 155 C 839 153 840 147 840 138 L 840 20 C 840 10 839 5 837 3 C 835 1 829 0 820 0 L 38 0 C 28 0 24 4 24 14 C 24 20 25 26 29 30 C 32 34 34 36 36 38 L 266 284 L 472 502 C 542 576 591 646 617 710 C 643 774 656 834 656 890 C 656 954 640 1007 609 1051 C 577 1094 526 1116 454 1116 C 394 1116 346 1096 310 1056 C 274 1016 256 964 256 900 C 256 893 255 888 253 885 C 251 881 245 880 236 880 L 90 880 C 78 880 72 886 72 898 C 72 950 80 999 97 1045 C 113 1091 138 1131 171 1166 C 203 1200 243 1228 291 1249 C 338 1269 392 1280 454 1280 C 515 1280 570 1270 619 1252 C 667 1233 708 1207 741 1173 C 773 1139 798 1098 816 1052 C 833 1005 842 953 842 896 C 842 852 837 809 828 767 C 818 725 803 682 783 640 C 762 597 734 552 699 505 C 663 457 620 406 568 352 L 408 182 C 397 171 392 164 392 162 C 392 159 398 158 410 158 L 820 158 Z" unicode="2" />
<glyph horiz-adv-x="974" d="M 102 964 C 103 1008 113 1049 131 1088 C 149 1126 173 1160 204 1189 C 234 1217 271 1240 315 1256 C 358 1272 406 1280 458 1280 C 514 1280 565 1271 611 1255 C 657 1238 696 1215 730 1186 C 763 1156 789 1121 807 1080 C 825 1038 834 994 834 946 C 834 898 823 853 803 811 C 782 769 754 732 718 702 C 712 696 710 692 710 690 C 710 687 712 684 718 680 C 771 644 814 598 846 544 C 878 489 894 430 894 366 C 894 311 883 260 863 214 C 842 167 813 126 776 92 C 738 57 694 30 644 10 C 593 -10 537 -20 476 -20 C 420 -20 368 -12 322 4 C 275 20 234 42 200 72 C 165 101 137 135 115 175 C 93 214 78 258 72 306 C 72 315 77 320 88 320 L 240 320 C 248 320 253 316 256 308 C 266 260 291 220 329 189 C 367 157 416 142 476 142 C 548 142 604 162 646 203 C 687 243 708 298 708 366 C 708 430 687 482 646 524 C 604 565 548 586 476 586 L 376 586 C 368 586 363 587 362 589 C 360 591 360 596 360 604 L 360 726 C 360 734 360 739 362 741 C 363 743 368 744 376 744 L 482 744 C 510 744 534 749 556 761 C 577 772 595 787 610 806 C 624 824 635 846 643 870 C 650 894 654 919 654 946 C 654 999 636 1042 601 1076 C 565 1109 518 1126 458 1126 C 402 1126 357 1110 325 1079 C 292 1047 276 1009 276 964 C 276 954 275 949 273 947 C 271 945 265 944 256 944 L 122 944 C 112 944 107 945 105 947 C 103 949 102 954 102 964 Z" unicode="3" />
<glyph horiz-adv-x="1000" d="M 804 18 C 804 10 803 5 802 3 C 800 1 795 0 786 0 L 650 0 C 642 0 637 1 635 3 C 633 5 632 10 632 18 L 632 184 C 632 192 631 197 629 199 C 627 201 622 202 614 202 L 22 202 C 14 202 10 204 10 208 C 10 209 11 212 14 218 L 194 470 L 790 1302 C 792 1304 795 1306 798 1306 C 802 1306 804 1304 804 1300 L 804 372 C 804 364 805 359 807 357 C 809 355 814 354 822 354 L 930 354 C 938 354 943 353 945 351 C 947 349 948 344 948 336 L 948 220 C 948 212 947 207 945 205 C 943 203 938 202 930 202 L 822 202 C 814 202 809 201 807 199 C 805 197 804 192 804 184 L 804 18 Z M 632 800 C 632 805 630 808 628 808 L 626 806 C 624 806 624 805 624 805 C 624 804 623 804 622 804 L 316 372 C 312 365 310 361 310 360 C 310 356 313 354 320 354 L 614 354 C 622 354 627 355 629 357 C 631 359 632 364 632 372 L 632 800 Z" unicode="4" />
<glyph horiz-adv-x="912" d="M 198 1240 C 199 1249 201 1255 204 1257 C 206 1259 212 1260 222 1260 L 756 1260 C 765 1260 771 1259 773 1257 C 775 1255 776 1249 776 1240 L 776 1124 C 776 1114 775 1109 773 1107 C 771 1105 765 1104 756 1104 L 368 1104 C 360 1104 355 1103 353 1101 C 351 1099 349 1094 348 1086 L 328 802 C 328 792 329 787 331 785 C 333 783 338 782 348 782 C 366 783 381 784 392 785 C 402 785 417 786 436 786 C 500 786 557 775 607 755 C 657 734 699 706 733 671 C 767 635 793 593 811 545 C 829 496 838 444 838 388 C 838 337 828 287 809 239 C 789 190 761 147 724 109 C 686 71 641 40 587 16 C 533 -8 471 -20 402 -20 C 358 -20 318 -16 284 -8 C 249 0 218 10 191 24 C 163 37 139 52 118 69 C 96 85 77 102 60 120 C 56 124 54 128 54 134 C 54 138 57 143 64 150 L 160 246 C 166 252 171 256 174 256 C 176 256 181 252 188 244 C 196 232 207 220 221 208 C 235 196 251 185 270 175 C 288 165 309 156 332 150 C 354 143 378 140 402 140 C 438 140 471 145 501 157 C 531 168 557 184 580 206 C 602 227 620 253 633 283 C 645 313 652 347 652 386 C 652 466 629 528 583 573 C 537 617 471 640 386 640 C 330 640 285 631 252 615 C 218 598 194 584 180 574 C 173 571 168 568 164 565 C 160 561 156 560 154 560 C 148 560 146 566 146 578 L 198 1240 L 198 1240 Z" unicode="5" />
<glyph horiz-adv-x="1000" d="M 502 -20 C 435 -20 376 -9 324 13 C 272 35 228 64 192 102 C 156 139 128 183 109 233 C 89 283 80 336 80 394 C 80 436 84 474 92 507 C 100 539 112 571 130 603 C 147 634 170 668 200 704 C 229 740 265 782 307 831 C 349 879 398 937 455 1003 C 511 1069 576 1148 650 1242 C 655 1250 660 1255 664 1257 C 668 1259 674 1260 682 1260 L 866 1260 C 875 1260 880 1258 880 1256 C 880 1252 877 1247 872 1242 L 500 798 C 497 795 496 792 496 790 C 496 786 499 784 506 784 L 532 784 C 589 784 642 774 691 755 C 739 735 781 708 817 673 C 852 637 879 596 899 549 C 918 501 928 450 928 394 C 928 336 918 283 899 233 C 879 183 851 139 815 102 C 778 64 733 35 681 13 C 628 -9 568 -20 502 -20 Z M 262 394 C 262 322 283 261 325 213 C 367 164 426 140 502 140 C 578 140 637 164 681 213 C 724 261 746 322 746 394 C 746 462 724 519 681 567 C 637 614 578 638 502 638 C 426 638 367 614 325 567 C 283 519 262 462 262 394 Z" unicode="6" />
<glyph horiz-adv-x="814" d="M 66 0 C 58 0 54 2 54 8 C 54 8 55 12 58 20 L 574 1074 C 576 1084 578 1089 578 1088 C 578 1097 572 1102 562 1102 L 66 1102 C 58 1102 53 1103 51 1105 C 49 1107 48 1112 48 1120 L 48 1242 C 48 1250 49 1255 51 1257 C 53 1259 58 1260 66 1260 L 826 1260 C 834 1260 838 1257 838 1252 C 838 1253 836 1250 834 1242 L 248 18 C 244 10 240 5 238 3 C 235 1 229 0 220 0 L 66 0 L 66 0 Z" unicode="7" />
<glyph horiz-adv-x="978" d="M 254 366 C 254 336 260 308 272 281 C 284 253 300 229 321 208 C 341 186 366 169 395 157 C 423 144 454 138 488 138 C 521 138 552 144 582 157 C 611 169 636 186 657 208 C 677 229 694 253 706 281 C 718 308 724 336 724 366 C 724 398 718 428 708 457 C 697 485 681 510 661 531 C 640 551 615 568 586 581 C 556 593 524 600 488 600 C 452 600 419 593 390 581 C 360 568 336 551 316 531 C 296 510 280 485 270 457 C 259 428 254 398 254 366 Z M 312 950 C 312 899 328 856 360 820 C 392 784 434 766 488 766 C 544 766 588 784 621 820 C 653 856 670 899 670 950 C 670 996 653 1038 621 1074 C 588 1110 544 1128 490 1128 C 463 1128 439 1123 417 1113 C 395 1103 376 1089 361 1073 C 345 1056 333 1037 325 1016 C 316 994 312 972 312 950 Z M 256 686 C 261 690 264 693 264 696 C 264 698 261 702 256 708 C 221 738 193 775 172 817 C 150 859 140 903 140 950 C 140 995 148 1038 165 1078 C 181 1118 205 1153 237 1183 C 268 1213 305 1236 348 1254 C 390 1271 438 1280 490 1280 C 542 1280 589 1271 633 1254 C 676 1236 713 1213 744 1183 C 774 1153 798 1118 816 1078 C 833 1038 842 995 842 950 C 842 902 830 857 808 816 C 785 774 756 738 722 708 C 716 702 714 698 714 696 C 714 693 716 690 722 686 C 774 650 816 604 850 550 C 883 495 900 434 900 366 C 900 312 890 262 870 216 C 850 169 822 128 786 93 C 750 57 706 30 656 10 C 605 -10 549 -20 488 -20 C 425 -20 369 -10 319 10 C 269 30 226 57 190 93 C 154 128 126 169 107 216 C 87 262 78 312 78 366 C 78 434 93 495 125 550 C 156 604 200 650 256 686 Z" unicode="8" />
<glyph horiz-adv-x="960" d="M 712 880 C 712 913 706 944 695 973 C 683 1001 668 1027 648 1049 C 628 1071 604 1088 576 1101 C 548 1113 516 1120 482 1120 C 446 1120 414 1113 386 1101 C 358 1088 334 1071 314 1049 C 294 1027 278 1001 268 973 C 257 944 252 913 252 880 C 252 848 257 818 269 791 C 280 763 296 739 316 718 C 336 696 360 680 389 668 C 417 656 450 650 486 650 C 522 650 554 656 582 668 C 610 680 633 696 653 718 C 672 739 687 763 697 791 C 707 818 712 848 712 880 Z M 132 0 C 122 0 118 1 118 4 C 118 4 120 8 126 18 L 502 492 C 504 494 506 497 506 500 C 506 502 504 504 500 504 C 493 502 481 502 464 502 C 408 502 356 511 308 530 C 260 548 218 574 183 607 C 147 639 120 679 101 726 C 81 772 72 824 72 880 C 72 936 81 988 100 1037 C 118 1085 145 1128 181 1164 C 216 1200 259 1228 310 1249 C 360 1269 418 1280 482 1280 C 546 1280 603 1269 654 1249 C 704 1228 747 1200 783 1164 C 818 1128 845 1085 864 1037 C 882 988 892 936 892 880 C 892 828 884 780 868 736 C 852 692 823 640 783 581 C 742 521 687 448 617 360 C 547 272 458 158 350 18 C 344 10 340 5 336 3 C 332 1 326 0 318 0 L 132 0 Z" unicode="9" />
<glyph horiz-adv-x="500" d="M 250 -24 C 216 -24 187 -12 163 11 C 138 34 126 64 126 100 C 126 134 138 164 162 188 C 186 212 215 224 250 224 C 284 224 314 212 338 188 C 362 164 374 135 374 102 C 374 67 362 37 338 13 C 314 -11 284 -24 250 -24 Z M 250 656 C 216 656 187 667 163 691 C 138 714 126 744 126 780 C 126 814 138 844 162 868 C 186 892 215 904 250 904 C 284 904 314 892 338 868 C 362 844 374 815 374 782 C 374 747 362 717 338 693 C 314 668 284 656 250 656 Z" unicode=":" />
<glyph horiz-adv-x="500" d="M 158 174 C 159 182 161 187 163 190 C 165 192 170 194 180 194 L 336 194 C 349 194 355 187 354 174 L 240 -218 C 237 -226 235 -231 233 -234 C 231 -236 225 -238 216 -238 L 130 -238 C 122 -238 117 -236 116 -233 C 114 -229 114 -224 114 -218 L 158 174 L 158 174 Z M 250 656 C 216 656 187 667 163 691 C 138 714 126 744 126 780 C 126 814 138 844 162 868 C 186 892 215 904 250 904 C 284 904 314 892 338 868 C 362 844 374 815 374 782 C 374 747 362 717 338 693 C 314 668 284 656 250 656 Z" unicode=";" />
<glyph horiz-adv-x="1000" d="M 286 478 C 286 474 287 470 290 468 L 910 206 C 918 202 923 199 926 196 C 928 193 930 187 930 178 L 930 52 C 930 41 926 36 920 36 C 918 36 917 36 916 37 C 915 37 913 38 910 40 L 90 400 C 80 404 75 409 73 416 C 71 422 70 432 70 444 L 70 510 C 70 522 71 530 73 535 C 75 539 80 544 90 548 L 910 900 C 913 901 915 902 916 903 C 917 903 918 904 920 904 C 926 904 930 898 930 888 L 930 762 C 930 752 928 746 926 743 C 923 740 918 737 910 734 L 290 488 C 287 485 286 482 286 478 Z" unicode="&#x3C;" />
<glyph horiz-adv-x="1000" d="M 910 380 C 919 380 925 378 927 376 C 929 373 930 368 930 360 L 930 252 C 930 244 929 238 927 236 C 925 233 919 232 910 232 L 90 232 C 80 232 75 233 73 236 C 71 238 70 244 70 252 L 70 360 C 70 368 71 373 73 376 C 75 378 80 380 90 380 L 910 380 Z M 910 716 C 919 716 925 714 927 712 C 929 709 930 704 930 696 L 930 588 C 930 580 929 574 927 572 C 925 569 919 568 910 568 L 90 568 C 80 568 75 569 73 572 C 71 574 70 580 70 588 L 70 696 C 70 704 71 709 73 712 C 75 714 80 716 90 716 L 910 716 Z" unicode="=" />
<glyph horiz-adv-x="1000" d="M 714 478 C 714 482 712 485 710 488 L 90 734 C 82 737 76 740 74 743 C 71 746 70 752 70 762 L 70 888 C 70 898 73 904 80 904 C 81 904 82 903 83 903 C 84 902 86 901 90 900 L 910 548 C 919 544 925 539 927 535 C 929 530 930 522 930 510 L 930 444 C 930 432 929 422 927 416 C 925 409 919 404 910 400 L 90 40 C 86 38 84 37 83 37 C 82 36 81 36 80 36 C 73 36 70 41 70 52 L 70 178 C 70 187 71 193 74 196 C 76 199 82 202 90 206 L 710 468 C 712 470 714 474 714 478 Z" unicode="&#x3E;" />
<glyph horiz-adv-x="840" d="M 406 -24 C 372 -24 343 -12 319 11 C 294 34 282 64 282 100 C 282 134 294 164 318 188 C 342 212 371 224 406 224 C 440 224 470 212 494 188 C 518 164 530 135 530 102 C 530 67 518 37 494 13 C 470 -11 440 -24 406 -24 Z M 430 1254 C 306 1254 244 1184 244 1044 C 244 1037 243 1032 241 1029 C 239 1025 233 1024 224 1024 L 90 1024 C 78 1024 72 1030 72 1042 L 72 1074 C 72 1123 79 1169 94 1212 C 108 1254 131 1291 161 1323 C 191 1354 228 1379 274 1397 C 319 1415 372 1424 434 1424 C 551 1424 640 1395 701 1337 C 761 1279 792 1200 792 1100 C 792 1054 784 1014 768 978 C 752 942 731 908 707 878 C 682 847 656 818 628 790 C 600 762 573 733 549 705 C 524 676 504 646 488 615 C 472 583 464 549 464 512 L 464 398 C 464 388 462 383 460 381 C 457 379 451 378 442 378 L 346 378 C 336 378 331 379 329 381 C 327 383 324 388 322 398 C 319 407 316 426 313 455 C 309 483 308 515 308 550 C 308 614 323 669 353 715 C 383 761 416 803 453 842 C 489 880 523 918 553 956 C 583 993 598 1035 598 1082 C 598 1138 584 1180 556 1210 C 528 1239 486 1254 430 1254 Z" unicode="?" />
<glyph horiz-adv-x="1520" d="M 702 208 C 770 208 823 232 862 281 C 900 329 920 392 920 470 C 920 535 905 583 875 614 C 845 644 805 660 756 660 C 718 660 686 652 659 638 C 631 623 609 604 591 580 C 573 556 559 528 551 498 C 542 467 538 436 538 404 C 538 380 541 356 549 332 C 556 308 567 287 581 269 C 595 251 612 236 633 225 C 653 213 676 208 702 208 Z M 978 774 C 980 783 983 788 986 790 C 988 791 994 792 1002 792 L 1116 792 C 1124 792 1129 791 1131 790 C 1133 788 1132 783 1130 774 L 1050 342 C 1047 327 1044 311 1042 293 C 1039 275 1038 258 1038 244 C 1038 229 1041 216 1047 205 C 1053 193 1063 188 1078 188 C 1098 188 1119 196 1143 212 C 1166 228 1188 251 1208 281 C 1228 311 1244 347 1257 389 C 1269 431 1276 477 1276 528 C 1276 605 1263 673 1239 733 C 1214 792 1180 841 1136 881 C 1092 920 1040 950 980 970 C 920 990 854 1000 784 1000 C 705 1000 633 985 568 956 C 502 926 446 886 399 835 C 351 783 314 723 288 654 C 261 584 248 510 248 430 C 248 339 261 258 289 187 C 316 115 355 54 405 4 C 455 -46 515 -85 585 -112 C 655 -138 732 -152 816 -152 C 893 -152 968 -143 1040 -125 C 1112 -107 1168 -77 1210 -36 C 1212 -33 1216 -32 1220 -32 C 1225 -32 1228 -36 1228 -46 L 1228 -202 C 1228 -208 1222 -215 1212 -222 C 1164 -246 1106 -265 1040 -280 C 973 -294 900 -302 820 -302 C 709 -302 608 -285 518 -252 C 427 -218 349 -170 285 -108 C 220 -45 170 31 135 122 C 99 212 82 315 82 430 C 82 534 100 630 137 718 C 173 806 224 881 288 945 C 352 1008 427 1058 513 1094 C 599 1130 691 1148 790 1148 C 875 1148 957 1134 1036 1106 C 1114 1078 1184 1038 1244 986 C 1304 934 1351 871 1387 798 C 1422 724 1440 642 1440 550 C 1440 488 1430 428 1410 370 C 1390 311 1362 259 1328 213 C 1293 167 1252 130 1204 102 C 1156 74 1104 60 1048 60 C 1017 60 992 68 972 86 C 952 103 936 127 926 158 C 923 162 920 164 918 164 C 914 164 911 162 910 158 C 879 127 846 102 811 84 C 775 65 732 56 680 56 C 640 56 602 64 566 82 C 530 99 498 123 470 153 C 442 183 419 218 403 258 C 386 298 378 341 378 388 C 378 445 386 499 403 551 C 419 602 443 647 474 685 C 504 723 542 753 588 776 C 633 798 685 810 744 810 C 786 810 826 800 863 781 C 899 761 927 734 946 700 C 947 696 950 694 954 694 C 956 694 959 696 962 700 L 978 774 Z" unicode="@" />
<glyph horiz-adv-x="1124" d="M 568 886 C 565 890 561 892 556 892 C 549 892 545 890 544 886 L 392 450 C 390 447 390 444 390 440 C 390 438 389 438 388 438 C 388 435 388 433 389 432 C 389 430 393 430 400 430 L 714 430 C 723 430 728 432 728 436 C 728 434 726 439 724 450 L 568 886 Z M 550 1422 C 551 1427 554 1430 560 1430 C 565 1430 568 1427 570 1422 L 1090 20 C 1091 18 1092 14 1092 8 C 1092 2 1086 0 1076 0 L 902 0 C 894 0 888 1 885 3 C 881 5 878 10 876 20 L 796 230 C 793 239 790 245 788 247 C 785 249 779 250 770 250 L 342 250 C 328 250 320 243 316 230 L 242 20 C 239 10 236 5 233 3 C 229 1 224 0 216 0 L 48 0 C 37 0 32 2 32 8 C 32 14 32 18 34 20 L 550 1422 Z" unicode="A" />
<glyph horiz-adv-x="1048" d="M 146 1380 C 146 1389 147 1395 149 1397 C 151 1399 156 1400 166 1400 L 490 1400 C 623 1400 725 1367 795 1301 C 865 1235 900 1147 900 1038 C 900 964 884 907 853 865 C 821 823 788 791 752 770 C 746 766 744 762 744 758 C 744 752 746 749 752 748 C 778 737 805 722 832 704 C 858 685 882 662 904 634 C 925 606 942 572 956 534 C 969 495 976 451 976 402 C 976 339 965 283 943 234 C 921 184 890 142 850 108 C 810 73 762 46 706 28 C 650 9 588 0 520 0 L 166 0 C 156 0 151 1 149 3 C 147 5 146 10 146 20 L 146 1380 Z M 548 176 C 617 176 670 198 708 242 C 745 286 764 342 764 412 C 764 481 743 536 703 578 C 662 619 607 640 538 640 L 358 640 C 348 640 343 639 341 637 C 339 635 338 629 338 620 L 338 196 C 338 186 339 181 341 179 C 343 177 348 176 358 176 L 548 176 Z M 338 836 C 338 826 339 821 341 819 C 343 817 348 816 358 816 L 490 816 C 550 816 600 833 640 869 C 680 904 700 956 700 1024 C 700 1088 681 1137 643 1172 C 605 1206 554 1224 490 1224 L 358 1224 C 348 1224 343 1223 341 1221 C 339 1219 338 1213 338 1204 L 338 836 Z" unicode="B" />
<glyph horiz-adv-x="1244" d="M 812 -20 C 700 -20 599 -1 511 37 C 422 75 347 127 285 193 C 223 259 175 335 142 422 C 108 508 92 601 92 700 C 92 797 108 889 142 977 C 175 1064 223 1141 285 1207 C 347 1273 422 1325 511 1363 C 599 1401 700 1420 812 1420 C 872 1420 928 1412 981 1398 C 1033 1383 1084 1364 1132 1340 C 1142 1333 1148 1326 1148 1320 L 1148 1106 C 1148 1096 1145 1092 1140 1092 C 1136 1092 1132 1093 1130 1096 C 1088 1137 1041 1169 989 1192 C 936 1214 877 1226 812 1226 C 729 1226 656 1211 594 1182 C 531 1152 478 1113 436 1064 C 393 1014 361 958 340 896 C 318 833 308 768 308 700 C 308 632 318 566 340 504 C 361 441 393 385 436 336 C 478 286 531 247 594 218 C 656 188 729 174 812 174 C 877 174 936 185 989 208 C 1041 230 1088 262 1130 304 C 1132 306 1136 308 1140 308 C 1145 308 1148 303 1148 294 L 1148 80 C 1148 73 1142 66 1132 60 C 1084 36 1033 16 981 2 C 928 -12 872 -20 812 -20 Z" unicode="C" />
<glyph horiz-adv-x="1258" d="M 492 1400 C 577 1400 650 1391 711 1375 C 771 1358 825 1335 872 1306 C 969 1246 1042 1163 1092 1057 C 1141 951 1166 832 1166 700 C 1166 628 1157 558 1141 492 C 1124 425 1099 363 1067 307 C 1034 250 994 200 946 157 C 898 113 842 78 778 52 C 736 34 689 21 635 13 C 581 4 527 0 474 0 L 166 0 C 156 0 151 1 149 3 C 147 5 146 10 146 20 L 146 1380 C 146 1389 147 1395 149 1397 C 151 1399 156 1400 166 1400 L 492 1400 Z M 948 700 C 948 796 933 883 904 961 C 874 1039 828 1100 764 1146 C 730 1170 688 1188 636 1200 C 584 1212 530 1218 474 1218 L 362 1218 C 352 1218 347 1217 345 1215 C 343 1213 342 1207 342 1198 L 342 202 C 342 192 343 187 345 185 C 347 183 352 182 362 182 L 476 182 C 532 182 584 188 633 200 C 681 212 722 230 756 254 C 820 299 868 361 900 439 C 932 517 948 604 948 700 Z" unicode="D" />
<glyph horiz-adv-x="1024" d="M 146 1380 C 146 1389 147 1395 149 1397 C 151 1399 156 1400 166 1400 L 912 1400 C 921 1400 927 1399 929 1397 C 931 1395 932 1389 932 1380 L 932 1236 C 932 1226 931 1221 929 1219 C 927 1217 921 1216 912 1216 L 362 1216 C 352 1216 347 1215 345 1213 C 343 1211 342 1205 342 1196 L 342 702 C 342 692 343 687 345 685 C 347 683 352 682 362 682 L 892 682 C 901 682 907 681 909 679 C 911 677 912 671 912 662 L 912 520 C 912 510 911 505 909 503 C 907 501 901 500 892 500 L 362 500 C 352 500 347 499 345 497 C 343 495 342 489 342 480 L 342 204 C 342 194 343 189 345 187 C 347 185 352 184 362 184 L 922 184 C 931 184 937 183 939 181 C 941 179 942 173 942 164 L 942 20 C 942 10 941 5 939 3 C 937 1 931 0 922 0 L 166 0 C 156 0 151 1 149 3 C 147 5 146 10 146 20 L 146 1380 L 146 1380 Z" unicode="E" />
<glyph horiz-adv-x="980" d="M 146 1380 C 146 1389 147 1395 149 1397 C 151 1399 156 1400 166 1400 L 888 1400 C 897 1400 903 1399 905 1397 C 907 1395 908 1389 908 1380 L 908 1236 C 908 1226 907 1221 905 1219 C 903 1217 897 1216 888 1216 L 362 1216 C 352 1216 347 1215 345 1213 C 343 1211 342 1205 342 1196 L 342 702 C 342 692 343 687 345 685 C 347 683 352 682 362 682 L 872 682 C 881 682 887 681 889 679 C 891 677 892 671 892 662 L 892 520 C 892 510 891 505 889 503 C 887 501 881 500 872 500 L 362 500 C 352 500 347 499 345 497 C 343 495 342 489 342 480 L 342 20 C 342 10 341 5 339 3 C 337 1 331 0 322 0 L 166 0 C 156 0 151 1 149 3 C 147 5 146 10 146 20 L 146 1380 L 146 1380 Z" unicode="F" />
<glyph horiz-adv-x="1322" d="M 812 1226 C 728 1226 654 1211 591 1183 C 527 1154 475 1116 433 1068 C 391 1020 359 964 339 900 C 318 836 308 769 308 700 C 308 629 318 561 340 497 C 361 432 393 375 436 327 C 478 278 532 239 596 210 C 660 180 734 166 820 166 C 854 166 890 168 926 173 C 962 177 992 186 1018 198 C 1024 200 1028 205 1028 212 L 1028 550 C 1028 559 1027 565 1025 567 C 1023 569 1017 570 1008 570 L 746 570 C 736 570 731 571 729 573 C 727 575 726 580 726 590 L 726 728 C 726 737 727 743 729 745 C 731 747 736 748 746 748 L 1200 748 C 1209 748 1215 747 1217 745 C 1219 743 1220 737 1220 728 L 1220 102 C 1220 92 1216 85 1208 80 C 1185 61 1158 45 1128 33 C 1097 20 1065 10 1031 2 C 997 -6 961 -11 925 -15 C 888 -18 853 -20 820 -20 C 706 -20 605 -1 515 37 C 425 75 348 127 286 193 C 223 259 175 335 142 422 C 108 508 92 601 92 700 C 92 797 108 889 142 977 C 175 1064 223 1141 285 1207 C 347 1273 422 1325 511 1363 C 599 1401 700 1420 812 1420 C 876 1420 934 1413 987 1400 C 1039 1386 1090 1366 1138 1340 C 1148 1333 1154 1326 1154 1320 L 1154 1106 C 1154 1096 1151 1092 1146 1092 C 1142 1092 1138 1093 1136 1096 C 1094 1137 1046 1169 992 1192 C 937 1214 877 1226 812 1226 Z" unicode="G" />
<glyph horiz-adv-x="1184" d="M 1038 20 C 1038 10 1037 5 1035 3 C 1033 1 1027 0 1018 0 L 862 0 C 852 0 847 1 845 3 C 843 5 842 10 842 20 L 842 480 C 842 489 841 495 839 497 C 837 499 831 500 822 500 L 362 500 C 352 500 347 499 345 497 C 343 495 342 489 342 480 L 342 20 C 342 10 341 5 339 3 C 337 1 331 0 322 0 L 166 0 C 156 0 151 1 149 3 C 147 5 146 10 146 20 L 146 1380 C 146 1389 147 1395 149 1397 C 151 1399 156 1400 166 1400 L 322 1400 C 331 1400 337 1399 339 1397 C 341 1395 342 1389 342 1380 L 342 702 C 342 692 343 687 345 685 C 347 683 352 682 362 682 L 822 682 C 831 682 837 683 839 685 C 841 687 842 692 842 702 L 842 1380 C 842 1389 843 1395 845 1397 C 847 1399 852 1400 862 1400 L 1018 1400 C 1027 1400 1033 1399 1035 1397 C 1037 1395 1038 1389 1038 1380 L 1038 20 L 1038 20 Z" unicode="H" />
<glyph horiz-adv-x="484" d="M 144 1380 C 144 1389 145 1395 147 1397 C 149 1399 154 1400 164 1400 L 320 1400 C 329 1400 335 1399 337 1397 C 339 1395 340 1389 340 1380 L 340 20 C 340 10 339 5 337 3 C 335 1 329 0 320 0 L 164 0 C 154 0 149 1 147 3 C 145 5 144 10 144 20 L 144 1380 L 144 1380 Z" unicode="I" />
<glyph horiz-adv-x="592" d="M 252 1384 C 252 1394 257 1400 268 1400 L 432 1400 C 442 1400 448 1394 448 1384 L 448 268 C 448 164 427 90 387 46 C 346 2 284 -20 200 -20 C 180 -20 159 -19 138 -18 C 116 -16 96 -14 76 -10 C 68 -7 62 -5 60 -3 C 57 -1 56 4 56 14 L 56 148 C 56 160 62 165 76 164 C 85 161 97 159 112 157 C 126 155 141 154 156 154 C 192 154 217 164 231 185 C 245 205 252 242 252 294 L 252 1384 L 252 1384 Z" unicode="J" />
<glyph horiz-adv-x="1124" d="M 342 20 C 342 10 341 5 339 3 C 337 1 331 0 322 0 L 166 0 C 156 0 151 1 149 3 C 147 5 146 10 146 20 L 146 1380 C 146 1389 147 1395 149 1397 C 151 1399 156 1400 166 1400 L 322 1400 C 331 1400 337 1399 339 1397 C 341 1395 342 1389 342 1380 L 342 822 C 342 812 346 808 354 808 C 362 808 368 811 372 818 L 812 1380 C 818 1388 823 1393 826 1396 C 828 1398 834 1400 844 1400 L 1052 1400 C 1062 1400 1068 1398 1068 1394 C 1068 1391 1065 1386 1060 1380 L 572 762 C 569 759 568 756 568 752 C 568 748 569 744 572 742 L 1082 20 C 1088 9 1092 4 1092 4 C 1092 1 1086 0 1074 0 L 866 0 C 856 0 851 1 849 3 C 847 5 842 10 834 20 L 374 684 C 370 689 364 692 358 692 C 347 692 342 687 342 678 L 342 20 L 342 20 Z" unicode="K" />
<glyph horiz-adv-x="904" d="M 146 1380 C 146 1389 147 1395 149 1397 C 151 1399 156 1400 166 1400 L 318 1400 C 327 1400 333 1399 335 1397 C 337 1395 338 1389 338 1380 L 338 204 C 338 194 339 189 341 187 C 343 185 348 184 358 184 L 822 184 C 831 184 837 183 839 181 C 841 179 842 173 842 164 L 842 20 C 842 10 841 5 839 3 C 837 1 831 0 822 0 L 166 0 C 156 0 151 1 149 3 C 147 5 146 10 146 20 L 146 1380 L 146 1380 Z" unicode="L" />
<glyph horiz-adv-x="1532" d="M 782 246 C 775 239 770 236 766 236 C 762 236 756 239 750 246 L 370 782 C 366 786 361 788 356 788 C 345 788 340 784 340 776 L 340 20 C 340 10 339 5 337 3 C 335 1 329 0 320 0 L 166 0 C 156 0 151 1 149 3 C 147 5 146 10 146 20 L 146 1416 C 146 1425 148 1430 152 1430 C 156 1430 160 1426 166 1420 L 754 560 C 759 554 763 552 766 552 C 770 552 774 554 778 560 L 1366 1420 C 1371 1426 1376 1430 1380 1430 C 1384 1430 1386 1425 1386 1416 L 1386 20 C 1386 10 1385 5 1383 3 C 1381 1 1375 0 1366 0 L 1212 0 C 1202 0 1197 1 1195 3 C 1193 5 1192 10 1192 20 L 1192 776 C 1192 784 1186 788 1176 788 C 1170 788 1166 786 1162 782 L 782 246 L 782 246 Z" unicode="M" />
<glyph horiz-adv-x="1180" d="M 352 866 C 348 870 343 872 338 872 C 327 872 322 868 322 860 L 322 20 C 322 10 321 5 319 3 C 317 1 311 0 302 0 L 154 0 C 144 0 139 1 137 3 C 135 5 134 10 134 20 L 134 1416 C 134 1425 136 1430 140 1430 C 144 1430 148 1426 154 1420 L 828 534 C 832 530 836 528 842 528 C 852 528 858 532 858 540 L 858 1380 C 858 1389 859 1395 861 1397 C 863 1399 868 1400 878 1400 L 1026 1400 C 1035 1400 1041 1399 1043 1397 C 1045 1395 1046 1389 1046 1380 L 1046 -16 C 1046 -25 1044 -30 1040 -30 C 1037 -30 1032 -26 1026 -20 L 352 866 L 352 866 Z" unicode="N" />
<glyph horiz-adv-x="1584" d="M 1492 700 C 1492 601 1474 508 1438 422 C 1402 335 1352 259 1289 193 C 1225 127 1151 75 1066 37 C 980 -1 889 -20 792 -20 C 693 -20 601 -1 517 37 C 432 75 358 127 295 193 C 231 259 182 335 146 422 C 110 508 92 601 92 700 C 92 797 110 889 146 977 C 182 1064 231 1141 295 1207 C 358 1273 432 1325 517 1363 C 601 1401 693 1420 792 1420 C 889 1420 980 1401 1066 1363 C 1151 1325 1225 1273 1289 1207 C 1352 1141 1402 1064 1438 977 C 1474 889 1492 797 1492 700 Z M 308 700 C 308 629 320 562 344 498 C 368 434 401 378 444 330 C 486 282 537 244 597 216 C 656 188 721 174 792 174 C 862 174 927 188 987 216 C 1046 244 1097 282 1140 330 C 1182 378 1216 434 1240 498 C 1264 562 1276 629 1276 700 C 1276 770 1264 838 1240 902 C 1216 966 1182 1022 1140 1070 C 1097 1118 1046 1156 987 1184 C 927 1212 862 1226 792 1226 C 721 1226 656 1212 597 1184 C 537 1156 486 1118 444 1070 C 401 1022 368 966 344 902 C 320 838 308 770 308 700 Z" unicode="O" />
<glyph horiz-adv-x="1022" d="M 146 1380 C 146 1389 147 1395 149 1397 C 151 1399 156 1400 166 1400 L 466 1400 C 547 1400 613 1392 664 1378 C 714 1363 760 1341 802 1312 C 854 1273 894 1224 922 1166 C 950 1107 964 1038 964 958 C 964 803 912 685 808 604 C 766 572 718 547 662 529 C 606 511 543 502 474 502 L 362 502 C 352 502 347 501 345 499 C 343 497 342 491 342 482 L 342 20 C 342 10 341 5 339 3 C 337 1 331 0 322 0 L 166 0 C 156 0 151 1 149 3 C 147 5 146 10 146 20 L 146 1380 Z M 362 1224 C 352 1224 347 1223 345 1221 C 343 1219 342 1213 342 1204 L 342 698 C 342 688 343 683 345 681 C 347 679 352 678 362 678 L 488 678 C 573 678 639 701 687 749 C 734 796 758 864 758 954 C 758 990 753 1024 744 1057 C 734 1089 719 1118 699 1143 C 678 1167 650 1187 616 1202 C 581 1216 538 1224 488 1224 L 362 1224 Z" unicode="P" />
<glyph horiz-adv-x="1594" d="M 1492 706 C 1492 642 1485 585 1473 535 C 1460 485 1443 439 1422 399 C 1400 358 1376 321 1348 288 C 1320 254 1290 222 1258 190 C 1254 186 1252 182 1252 178 C 1252 172 1260 170 1278 170 L 1514 178 C 1523 178 1529 177 1531 175 C 1533 173 1534 167 1534 158 L 1534 20 C 1534 10 1533 5 1531 3 C 1529 1 1523 0 1514 0 C 1446 1 1384 2 1328 4 C 1304 4 1280 4 1256 5 C 1232 5 1210 6 1190 7 C 1170 7 1153 8 1139 8 C 1125 8 1115 8 1110 8 C 1098 8 1080 6 1056 4 C 1032 1 1005 -2 977 -6 C 948 -10 917 -13 885 -16 C 852 -18 821 -20 792 -20 C 693 -20 601 -1 517 37 C 432 75 358 127 295 193 C 231 259 182 335 146 422 C 110 508 92 601 92 700 C 92 797 110 889 146 977 C 182 1064 231 1141 295 1207 C 358 1273 432 1325 517 1363 C 601 1401 693 1420 792 1420 C 889 1420 980 1401 1066 1364 C 1151 1326 1225 1275 1289 1210 C 1352 1144 1402 1068 1438 982 C 1474 895 1492 803 1492 706 Z M 308 700 C 308 629 320 562 344 498 C 368 434 401 378 444 330 C 486 282 537 244 597 216 C 656 188 721 174 792 174 C 862 174 927 188 987 216 C 1046 244 1097 282 1140 330 C 1182 378 1216 434 1240 498 C 1264 562 1276 629 1276 700 C 1276 770 1264 838 1240 902 C 1216 966 1182 1022 1140 1070 C 1097 1118 1046 1156 987 1184 C 927 1212 862 1226 792 1226 C 721 1226 656 1212 597 1184 C 537 1156 486 1118 444 1070 C 401 1022 368 966 344 902 C 320 838 308 770 308 700 Z" unicode="Q" />
<glyph horiz-adv-x="1090" d="M 500 748 C 588 748 652 769 692 811 C 732 853 752 912 752 988 C 752 1068 728 1127 682 1166 C 635 1204 572 1224 492 1224 L 358 1224 C 348 1224 343 1223 341 1221 C 339 1219 338 1213 338 1204 L 338 768 C 338 758 339 753 341 751 C 343 749 348 748 358 748 L 500 748 Z M 338 20 C 338 10 337 5 335 3 C 333 1 327 0 318 0 L 168 0 C 158 0 152 1 149 3 C 145 5 144 10 144 20 L 144 1380 C 144 1389 145 1395 147 1397 C 149 1399 154 1400 164 1400 L 482 1400 C 634 1400 749 1367 828 1302 C 873 1264 906 1219 926 1165 C 946 1111 956 1052 956 988 C 956 886 926 801 868 733 C 809 664 726 619 618 598 C 612 596 610 594 610 590 C 610 587 611 584 614 582 L 1048 20 C 1054 9 1058 4 1058 4 C 1058 1 1052 0 1040 0 L 840 0 C 830 0 825 1 823 3 C 821 5 816 10 808 20 L 362 604 C 355 612 350 616 346 616 C 340 616 338 610 338 598 L 338 20 Z" unicode="R" />
<glyph horiz-adv-x="1006" d="M 504 -20 C 462 -20 421 -14 380 -4 C 338 6 299 22 263 43 C 226 63 192 88 162 117 C 131 145 106 178 86 214 C 82 219 80 224 80 228 C 80 232 83 237 90 244 L 200 354 C 206 360 211 364 214 364 C 216 364 221 360 228 352 C 270 281 314 233 360 207 C 405 181 456 168 512 168 C 580 168 632 187 669 226 C 705 264 724 310 724 362 C 724 411 709 453 680 488 C 650 522 614 554 570 583 C 526 611 478 640 427 668 C 375 696 328 727 284 763 C 240 798 203 839 174 887 C 144 934 130 992 130 1060 C 130 1109 139 1156 158 1200 C 176 1244 202 1282 236 1315 C 269 1347 309 1373 357 1392 C 404 1410 456 1420 514 1420 C 591 1420 659 1406 718 1378 C 776 1350 827 1306 870 1246 C 874 1239 876 1234 876 1232 C 876 1228 872 1222 866 1216 L 768 1118 C 761 1111 756 1108 754 1108 C 750 1108 745 1112 740 1120 C 717 1157 687 1186 651 1206 C 614 1226 570 1236 518 1236 C 458 1236 413 1219 383 1186 C 353 1152 338 1110 338 1060 C 338 1017 352 980 382 950 C 411 919 448 890 492 864 C 536 837 584 810 636 782 C 688 754 736 721 780 685 C 824 648 860 605 890 555 C 919 505 934 444 934 372 C 934 313 924 260 905 212 C 885 164 857 123 821 89 C 784 55 739 28 686 9 C 632 -10 572 -20 504 -20 Z" unicode="S" />
<glyph horiz-adv-x="924" d="M 52 1380 C 52 1389 53 1395 55 1397 C 57 1399 62 1400 72 1400 L 852 1400 C 861 1400 867 1399 869 1397 C 871 1395 872 1389 872 1380 L 872 1236 C 872 1226 871 1221 869 1219 C 867 1217 861 1216 852 1216 L 580 1216 C 570 1216 565 1215 563 1213 C 561 1211 560 1205 560 1196 L 560 20 C 560 10 559 5 557 3 C 555 1 549 0 540 0 L 384 0 C 374 0 369 1 367 3 C 365 5 364 10 364 20 L 364 1196 C 364 1205 363 1211 361 1213 C 359 1215 353 1216 344 1216 L 72 1216 C 62 1216 57 1217 55 1219 C 53 1221 52 1226 52 1236 L 52 1380 L 52 1380 Z" unicode="T" />
<glyph horiz-adv-x="1236" d="M 894 1380 C 894 1389 895 1395 897 1397 C 899 1399 904 1400 914 1400 L 1072 1400 C 1081 1400 1087 1399 1089 1397 C 1091 1395 1092 1389 1092 1380 L 1092 438 C 1092 362 1080 295 1057 238 C 1033 180 1001 133 959 95 C 917 57 867 28 809 9 C 751 -10 688 -20 620 -20 C 552 -20 488 -10 430 9 C 371 28 321 57 279 95 C 237 133 204 180 180 238 C 156 295 144 362 144 438 L 144 1380 C 144 1389 145 1395 147 1397 C 149 1399 154 1400 164 1400 L 322 1400 C 331 1400 337 1399 339 1397 C 341 1395 342 1389 342 1380 L 342 476 C 342 418 348 370 361 332 C 373 293 392 262 416 238 C 440 214 469 196 504 186 C 538 175 577 170 620 170 C 664 170 703 175 737 186 C 771 196 799 214 823 238 C 846 262 864 293 876 332 C 888 370 894 418 894 476 L 894 1380 L 894 1380 Z" unicode="U" />
<glyph horiz-adv-x="1112" d="M 544 540 C 545 536 549 534 556 534 C 561 534 565 536 568 540 L 864 1380 C 869 1393 877 1400 888 1400 L 1068 1400 C 1076 1400 1080 1398 1080 1394 C 1080 1392 1078 1388 1076 1380 L 566 -22 C 564 -27 561 -30 556 -30 C 550 -30 547 -27 546 -22 L 36 1380 C 33 1388 32 1392 32 1394 C 32 1398 36 1400 44 1400 L 228 1400 C 238 1400 246 1393 252 1380 L 544 540 L 544 540 Z" unicode="V" />
<glyph horiz-adv-x="1682" d="M 846 866 C 843 870 840 872 836 872 C 830 872 827 870 826 866 L 526 -22 C 524 -27 521 -30 516 -30 C 510 -30 507 -27 506 -22 L 40 1380 C 37 1388 36 1392 36 1394 C 36 1398 40 1400 48 1400 L 236 1400 C 246 1400 254 1393 260 1380 L 512 548 C 513 544 516 542 522 542 C 526 542 529 544 532 548 L 818 1410 C 823 1423 831 1430 842 1430 C 852 1430 860 1423 866 1410 L 1154 548 C 1155 544 1158 542 1164 542 C 1168 542 1171 544 1174 548 L 1430 1380 C 1435 1393 1443 1400 1454 1400 L 1634 1400 C 1642 1400 1646 1398 1646 1394 C 1646 1392 1644 1388 1642 1380 L 1166 -22 C 1164 -27 1161 -30 1156 -30 C 1150 -30 1147 -27 1146 -22 L 846 866 L 846 866 Z" unicode="W" />
<glyph horiz-adv-x="1156" d="M 60 1380 C 57 1388 56 1392 56 1392 C 56 1397 60 1400 68 1400 L 264 1400 C 276 1400 284 1393 290 1380 L 572 890 C 573 886 576 884 582 884 C 586 884 589 886 592 890 L 876 1380 C 881 1389 885 1395 888 1397 C 890 1399 895 1400 902 1400 L 1096 1400 C 1104 1400 1108 1397 1108 1392 C 1108 1392 1106 1388 1104 1380 L 712 722 C 709 714 708 710 708 710 C 708 710 709 706 712 698 L 1120 20 C 1122 12 1124 8 1124 8 C 1124 2 1120 0 1112 0 L 914 0 C 902 0 893 6 888 20 L 588 530 C 585 534 582 536 578 536 C 572 536 569 534 568 530 L 266 20 C 260 10 256 5 254 3 C 251 1 246 0 240 0 L 44 0 C 36 0 32 2 32 8 C 32 8 33 12 36 20 L 444 698 C 446 706 448 710 448 710 C 448 710 446 714 444 722 L 60 1380 L 60 1380 Z" unicode="X" />
<glyph horiz-adv-x="1096" d="M 28 1380 C 25 1388 24 1392 24 1392 C 24 1397 28 1400 36 1400 L 234 1400 C 246 1400 254 1393 260 1380 L 538 926 C 539 922 542 920 548 920 C 552 920 555 922 558 926 L 838 1380 C 843 1389 847 1395 850 1397 C 852 1399 857 1400 864 1400 L 1060 1400 C 1068 1400 1072 1397 1072 1392 C 1072 1392 1070 1388 1068 1380 L 646 706 L 646 20 C 646 10 645 5 643 3 C 641 1 635 0 626 0 L 470 0 C 460 0 455 1 453 3 C 451 5 450 10 450 20 L 450 706 L 28 1380 Z" unicode="Y" />
<glyph horiz-adv-x="972" d="M 356 212 C 353 204 352 198 352 194 C 352 186 356 182 364 182 L 858 182 C 867 182 873 181 875 179 C 877 177 878 171 878 162 L 878 20 C 878 10 877 5 875 3 C 873 1 867 0 858 0 L 56 0 C 46 0 42 3 42 10 C 42 10 43 14 46 22 L 198 334 L 610 1188 C 614 1196 616 1202 616 1208 C 616 1214 611 1218 602 1218 L 114 1218 C 104 1218 99 1219 97 1221 C 95 1223 94 1228 94 1238 L 94 1380 C 94 1389 95 1395 97 1397 C 99 1399 104 1400 114 1400 L 906 1400 C 915 1400 920 1397 920 1392 C 920 1392 918 1388 916 1380 L 768 1070 L 356 212 Z" unicode="Z" />
<glyph horiz-adv-x="600" d="M 142 1442 C 142 1451 143 1457 145 1459 C 147 1461 152 1462 162 1462 L 522 1462 C 531 1462 537 1461 539 1459 C 541 1457 542 1451 542 1442 L 542 1332 C 542 1322 541 1317 539 1315 C 537 1313 531 1312 522 1312 L 342 1312 C 332 1312 327 1311 325 1309 C 323 1307 322 1301 322 1292 L 322 -110 C 322 -119 323 -125 325 -127 C 327 -129 332 -130 342 -130 L 532 -130 C 541 -130 547 -131 549 -133 C 551 -135 552 -140 552 -150 L 552 -260 C 552 -269 551 -275 549 -277 C 547 -279 541 -280 532 -280 L 162 -280 C 152 -280 147 -279 145 -277 C 143 -275 142 -269 142 -260 L 142 1442 L 142 1442 Z" unicode="[" />
<glyph horiz-adv-x="1000" d="M 794 -160 L 66 1392 C 58 1404 60 1413 74 1420 L 178 1470 C 184 1472 189 1473 193 1472 C 196 1470 200 1465 206 1456 L 934 -96 C 942 -108 939 -117 926 -124 L 822 -174 C 815 -176 810 -177 807 -176 C 803 -174 799 -169 794 -160 Z" unicode="\" />
<glyph horiz-adv-x="600" d="M 458 -260 C 458 -269 457 -275 455 -277 C 453 -279 447 -280 438 -280 L 78 -280 C 68 -280 63 -279 61 -277 C 59 -275 58 -269 58 -260 L 58 -150 C 58 -140 59 -135 61 -133 C 63 -131 68 -130 78 -130 L 258 -130 C 267 -130 273 -129 275 -127 C 277 -125 278 -119 278 -110 L 278 1292 C 278 1301 277 1307 275 1309 C 273 1311 267 1312 258 1312 L 68 1312 C 58 1312 53 1313 51 1315 C 49 1317 48 1322 48 1332 L 48 1442 C 48 1451 49 1457 51 1459 C 53 1461 58 1462 68 1462 L 438 1462 C 447 1462 453 1461 455 1459 C 457 1457 458 1451 458 1442 L 458 -260 L 458 -260 Z" unicode="]" />
<glyph horiz-adv-x="1000" d="M 504 1220 C 498 1220 494 1218 492 1216 L 264 734 C 260 726 257 720 254 718 C 251 715 245 714 236 714 L 86 714 C 75 714 70 717 70 724 C 70 725 70 726 71 727 C 71 728 72 730 74 734 L 386 1380 C 390 1389 395 1395 402 1397 C 408 1399 418 1400 430 1400 L 576 1400 C 588 1400 596 1399 601 1397 C 605 1395 610 1389 614 1380 L 926 734 C 927 730 928 728 929 727 C 929 726 930 725 930 724 C 930 717 924 714 914 714 L 772 714 C 762 714 756 715 753 718 C 750 720 747 726 744 734 L 516 1216 C 513 1218 509 1220 504 1220 Z" unicode="^" />
<glyph horiz-adv-x="904" d="M 12 -144 C 12 -134 13 -129 16 -127 C 18 -125 24 -124 32 -124 L 872 -124 C 881 -124 887 -125 889 -127 C 891 -129 892 -134 892 -144 L 892 -208 C 892 -217 891 -223 889 -225 C 887 -227 881 -228 872 -228 L 32 -228 C 22 -228 17 -227 15 -225 C 13 -223 12 -217 12 -208 L 12 -144 L 12 -144 Z" unicode="_" />
<glyph horiz-adv-x="1000" d="M 616 1032 C 621 1025 624 1020 626 1017 C 627 1013 622 1012 612 1012 L 470 1012 C 462 1012 456 1013 452 1016 C 448 1018 442 1024 434 1032 L 192 1280 C 184 1289 181 1295 183 1297 C 185 1299 190 1300 200 1300 L 392 1300 C 400 1300 405 1298 409 1296 C 412 1293 417 1288 424 1280 L 616 1032 Z" unicode="`" />
<glyph horiz-adv-x="932" d="M 640 302 C 640 323 634 342 623 360 C 611 377 596 392 578 405 C 559 417 537 427 513 434 C 488 440 462 444 434 444 C 374 444 326 429 290 400 C 254 370 236 332 236 286 C 236 238 253 199 288 169 C 322 139 371 124 434 124 C 462 124 488 129 514 140 C 539 150 561 164 580 181 C 598 197 613 216 624 238 C 634 259 640 280 640 302 Z M 64 280 C 64 328 73 371 91 409 C 109 447 133 479 164 505 C 194 531 230 550 271 564 C 311 577 354 584 400 584 C 456 584 503 576 542 560 C 580 544 609 528 628 514 C 629 512 632 512 636 512 C 641 512 644 516 644 526 L 644 572 C 644 628 627 671 594 701 C 560 731 508 746 436 746 C 382 746 338 738 303 723 C 267 707 242 694 228 682 C 224 678 219 676 214 676 C 208 676 206 681 206 692 L 206 814 C 206 823 211 831 222 838 C 247 855 280 869 321 879 C 361 889 405 894 452 894 C 529 894 591 884 639 865 C 686 845 723 820 749 790 C 775 759 792 725 802 687 C 811 649 816 611 816 574 L 816 20 C 816 12 815 6 813 4 C 811 1 805 0 796 0 L 670 0 C 660 0 655 1 653 4 C 651 6 650 12 650 20 L 650 88 C 650 90 647 92 642 92 C 638 92 635 91 634 90 C 606 55 571 28 531 9 C 490 -10 446 -20 400 -20 C 356 -20 314 -13 274 -1 C 234 11 198 30 167 55 C 135 79 110 110 92 148 C 73 185 64 229 64 280 Z" unicode="a" />
<glyph horiz-adv-x="1100" d="M 856 438 C 856 478 849 516 836 552 C 822 588 804 619 780 647 C 756 674 727 695 694 711 C 660 726 623 734 582 734 C 540 734 503 726 469 711 C 435 695 405 674 381 647 C 356 619 337 588 324 552 C 310 516 304 478 304 438 C 304 396 310 358 324 322 C 337 286 356 254 381 227 C 405 199 435 178 469 163 C 503 147 540 140 582 140 C 623 140 660 147 694 163 C 727 178 756 199 780 227 C 804 254 822 286 836 322 C 849 358 856 396 856 438 Z M 304 774 C 304 771 306 770 312 770 C 316 770 318 770 320 772 C 354 806 395 835 441 859 C 487 882 540 894 602 894 C 663 894 720 882 774 858 C 827 834 873 801 912 760 C 950 718 981 670 1003 615 C 1025 559 1036 500 1036 438 C 1036 375 1025 316 1003 261 C 981 205 950 157 912 115 C 873 73 827 40 774 16 C 720 -8 663 -20 602 -20 C 540 -20 487 -9 441 13 C 395 35 354 64 320 102 C 318 103 316 104 312 104 C 306 104 304 102 304 100 L 304 20 C 304 12 303 6 301 4 C 299 1 293 0 284 0 L 148 0 C 138 0 133 1 131 4 C 129 6 128 12 128 20 L 128 1480 C 128 1488 129 1493 131 1496 C 133 1498 138 1500 148 1500 L 284 1500 C 293 1500 299 1498 301 1496 C 303 1493 304 1488 304 1480 L 304 774 Z" unicode="b" />
<glyph horiz-adv-x="824" d="M 736 26 C 705 11 670 0 630 -8 C 590 -16 552 -20 518 -20 C 452 -20 392 -8 337 16 C 281 40 233 72 193 113 C 152 153 120 202 98 258 C 75 314 64 374 64 438 C 64 502 75 561 98 617 C 120 672 152 720 193 762 C 233 803 281 835 337 859 C 392 882 452 894 518 894 C 552 894 589 890 628 883 C 666 875 700 865 730 852 C 736 849 741 846 743 844 C 745 841 746 837 746 832 L 746 668 C 746 658 743 654 738 654 C 736 654 733 655 728 658 C 705 680 676 699 641 713 C 605 727 566 734 522 734 C 478 734 438 726 404 711 C 369 695 340 675 317 649 C 293 623 275 591 263 555 C 250 518 244 479 244 438 C 244 395 250 355 263 319 C 275 282 293 250 317 224 C 340 197 369 176 404 162 C 438 147 478 140 522 140 C 615 140 686 168 736 224 C 737 225 740 226 744 226 C 749 226 752 221 752 212 L 752 46 C 752 40 751 36 749 34 C 747 31 742 28 736 26 Z" unicode="c" />
<glyph horiz-adv-x="1100" d="M 796 438 C 796 478 789 516 776 552 C 762 588 744 619 720 647 C 696 674 667 695 634 711 C 600 726 563 734 522 734 C 480 734 443 726 409 711 C 375 695 345 674 321 647 C 296 619 277 588 264 552 C 250 516 244 478 244 438 C 244 396 250 358 264 322 C 277 286 296 254 321 227 C 345 199 375 178 409 163 C 443 147 480 140 522 140 C 563 140 600 147 634 163 C 667 178 696 199 720 227 C 744 254 762 286 776 322 C 789 358 796 396 796 438 Z M 796 1480 C 796 1488 797 1493 799 1496 C 801 1498 806 1500 816 1500 L 952 1500 C 961 1500 967 1498 969 1496 C 971 1493 972 1488 972 1480 L 972 20 C 972 12 971 6 969 4 C 967 1 961 0 952 0 L 816 0 C 806 0 801 1 799 4 C 797 6 796 12 796 20 L 796 100 C 796 102 793 104 788 104 C 784 104 781 103 780 102 C 745 67 705 38 659 15 C 613 -8 559 -20 498 -20 C 435 -20 377 -8 325 16 C 272 40 226 73 188 115 C 149 157 119 205 97 261 C 75 316 64 375 64 438 C 64 500 75 559 97 615 C 119 670 149 718 188 760 C 226 801 272 834 325 858 C 377 882 435 894 498 894 C 559 894 612 883 658 861 C 703 839 744 809 780 772 C 781 770 784 770 788 770 C 793 770 796 771 796 774 L 796 1480 Z" unicode="d" />
<glyph horiz-adv-x="968" d="M 260 344 C 266 280 294 230 343 194 C 391 158 456 140 536 140 C 556 140 578 142 603 146 C 627 150 652 155 676 163 C 700 170 722 179 742 189 C 762 199 778 210 790 224 C 791 225 793 227 795 229 C 797 231 799 232 802 232 C 807 232 810 225 810 212 L 810 74 C 810 68 809 64 807 60 C 805 56 800 51 794 46 C 768 27 732 11 684 -1 C 636 -13 586 -20 536 -20 C 458 -20 391 -8 333 16 C 275 40 226 72 188 113 C 149 153 120 202 101 258 C 81 314 72 374 72 438 C 72 500 82 559 102 615 C 122 670 150 718 186 760 C 222 801 265 834 317 858 C 368 882 425 894 488 894 C 554 894 613 881 665 857 C 716 832 759 799 793 757 C 827 715 852 666 870 612 C 887 557 896 499 896 438 L 896 382 C 896 374 895 368 893 366 C 891 363 885 362 876 362 L 282 362 C 272 362 266 361 264 359 C 261 357 260 352 260 344 Z M 488 736 C 421 736 367 715 325 674 C 283 632 258 582 250 522 C 250 512 251 507 253 505 C 255 503 260 502 270 502 L 698 502 C 708 502 715 503 717 505 C 719 507 719 512 718 522 C 711 582 689 632 652 674 C 614 715 560 736 488 736 Z" unicode="e" />
<glyph horiz-adv-x="534" d="M 344 894 C 344 884 345 879 347 877 C 349 875 354 874 364 874 L 486 874 C 495 874 501 872 503 870 C 505 867 506 862 506 854 L 506 738 C 506 730 505 724 503 722 C 501 719 495 718 486 718 L 364 718 C 354 718 349 717 347 715 C 345 713 344 707 344 698 L 344 20 C 344 12 343 6 341 4 C 339 1 333 0 324 0 L 188 0 C 178 0 173 1 171 4 C 169 6 168 12 168 20 L 168 698 C 168 707 167 713 165 715 C 163 717 157 718 148 718 L 68 718 C 58 718 53 719 51 722 C 49 724 48 730 48 738 L 48 854 C 48 862 49 867 51 870 C 53 872 58 874 68 874 L 148 874 C 157 874 163 875 165 877 C 167 879 168 884 168 894 L 168 1220 C 168 1428 249 1532 412 1532 C 426 1532 442 1531 458 1530 C 474 1528 489 1526 504 1522 C 512 1519 517 1516 520 1514 C 522 1511 524 1506 524 1498 L 524 1380 C 524 1368 520 1362 512 1362 L 504 1364 C 486 1369 467 1372 446 1372 C 412 1372 387 1360 370 1336 C 352 1312 344 1278 344 1236 L 344 894 L 344 894 Z" unicode="f" />
<glyph horiz-adv-x="1096" d="M 244 438 C 244 396 250 358 264 322 C 277 286 296 254 320 227 C 344 199 372 178 406 163 C 439 147 476 140 518 140 C 559 140 597 147 631 163 C 665 178 694 199 719 227 C 743 254 762 286 776 322 C 789 358 796 396 796 438 C 796 478 789 516 776 552 C 762 588 743 619 719 647 C 694 674 665 695 631 711 C 597 726 559 734 518 734 C 476 734 439 726 406 711 C 372 695 344 674 320 647 C 296 619 277 588 264 552 C 250 516 244 478 244 438 Z M 240 -380 C 228 -374 222 -366 222 -356 L 222 -208 C 222 -194 224 -188 230 -188 C 231 -188 235 -190 242 -194 C 272 -215 310 -234 356 -251 C 401 -267 456 -276 522 -276 C 618 -276 687 -252 731 -205 C 774 -157 796 -80 796 28 L 796 100 C 796 102 793 104 788 104 C 784 104 781 103 780 102 C 745 64 705 35 659 13 C 613 -9 559 -20 498 -20 C 435 -20 377 -8 325 16 C 272 40 226 73 188 115 C 149 157 119 205 97 261 C 75 316 64 375 64 438 C 64 500 75 559 97 615 C 119 670 149 718 188 760 C 226 801 272 834 325 858 C 377 882 435 894 498 894 C 559 894 613 883 659 861 C 705 839 745 809 780 772 C 781 770 784 770 788 770 C 793 770 796 771 796 774 L 796 854 C 796 862 797 867 799 870 C 801 872 806 874 816 874 L 952 874 C 961 874 967 872 969 870 C 971 867 972 862 972 854 L 972 36 C 972 -117 934 -234 860 -315 C 785 -395 673 -436 524 -436 C 460 -436 404 -430 356 -419 C 308 -407 269 -394 240 -380 Z" unicode="g" />
<glyph horiz-adv-x="1032" d="M 916 20 C 916 12 915 6 913 4 C 911 1 905 0 896 0 L 760 0 C 750 0 745 1 743 4 C 741 6 740 12 740 20 L 740 516 C 740 585 724 639 693 677 C 661 715 613 734 548 734 C 480 734 422 711 375 667 C 327 622 304 559 304 478 L 304 20 C 304 12 303 6 301 4 C 299 1 293 0 284 0 L 148 0 C 138 0 133 1 131 4 C 129 6 128 12 128 20 L 128 1480 C 128 1488 129 1493 131 1496 C 133 1498 138 1500 148 1500 L 284 1500 C 293 1500 299 1498 301 1496 C 303 1493 304 1488 304 1480 L 304 774 C 304 771 306 770 312 770 C 316 770 318 770 320 772 C 354 809 391 839 431 861 C 470 883 520 894 582 894 C 642 894 693 885 736 868 C 778 850 813 826 840 796 C 866 765 886 729 898 689 C 910 648 916 604 916 556 L 916 20 L 916 20 Z" unicode="h" />
<glyph horiz-adv-x="448" d="M 136 854 C 136 862 137 867 139 870 C 141 872 146 874 156 874 L 292 874 C 301 874 307 872 309 870 C 311 867 312 862 312 854 L 312 20 C 312 12 311 6 309 4 C 307 1 301 0 292 0 L 156 0 C 146 0 141 1 139 4 C 137 6 136 12 136 20 L 136 854 Z M 224 1058 C 192 1058 163 1070 138 1094 C 112 1118 100 1147 100 1182 C 100 1216 112 1246 136 1271 C 160 1295 189 1308 224 1308 C 258 1308 288 1295 312 1270 C 336 1244 348 1216 348 1184 C 348 1150 335 1121 311 1096 C 286 1070 257 1058 224 1058 Z" unicode="i" />
<glyph horiz-adv-x="436" d="M 312 -140 C 312 -244 292 -320 254 -368 C 215 -416 154 -440 70 -440 C 56 -440 44 -440 34 -440 C 23 -440 14 -439 8 -438 C 2 -436 -2 -436 -6 -436 C -10 -436 -13 -435 -16 -434 C -24 -431 -29 -429 -32 -427 C -34 -425 -36 -419 -36 -410 L -36 -292 C -36 -280 -29 -274 -16 -276 C 1 -280 18 -282 34 -282 C 70 -282 96 -270 112 -246 C 128 -222 136 -188 136 -146 L 136 854 C 136 862 137 867 139 870 C 141 872 146 874 156 874 L 292 874 C 301 874 307 872 309 870 C 311 867 312 862 312 854 L 312 -140 Z M 226 1058 C 194 1058 165 1070 140 1094 C 114 1118 102 1147 102 1182 C 102 1216 114 1246 138 1271 C 162 1295 191 1308 226 1308 C 260 1308 290 1295 314 1270 C 338 1244 350 1216 350 1184 C 350 1150 337 1121 313 1096 C 288 1070 259 1058 226 1058 Z" unicode="j" />
<glyph horiz-adv-x="878" d="M 304 550 C 304 540 308 536 316 536 C 324 536 330 539 334 546 L 590 854 C 596 862 601 867 604 870 C 606 872 612 874 622 874 L 802 874 C 812 874 818 872 818 868 C 818 865 815 860 810 854 L 502 490 C 499 487 498 484 498 480 C 498 476 499 472 502 470 L 836 20 C 842 9 846 4 846 4 C 846 1 840 0 828 0 L 648 0 C 638 0 633 1 631 3 C 629 5 624 10 616 20 L 336 412 C 332 417 326 420 320 420 C 309 420 304 415 304 406 L 304 20 C 304 12 303 6 301 4 C 299 1 293 0 284 0 L 148 0 C 138 0 133 1 131 4 C 129 6 128 12 128 20 L 128 1480 C 128 1488 129 1493 131 1496 C 133 1498 138 1500 148 1500 L 284 1500 C 293 1500 299 1498 301 1496 C 303 1493 304 1488 304 1480 L 304 550 L 304 550 Z" unicode="k" />
<glyph horiz-adv-x="448" d="M 136 1480 C 136 1488 137 1493 139 1496 C 141 1498 146 1500 156 1500 L 292 1500 C 301 1500 307 1498 309 1496 C 311 1493 312 1488 312 1480 L 312 20 C 312 12 311 6 309 4 C 307 1 301 0 292 0 L 156 0 C 146 0 141 1 139 4 C 137 6 136 12 136 20 L 136 1480 L 136 1480 Z" unicode="l" />
<glyph horiz-adv-x="1556" d="M 828 740 C 830 737 833 736 836 736 C 838 736 841 737 844 740 C 858 757 875 775 894 794 C 912 812 933 829 956 844 C 978 858 1004 870 1032 880 C 1060 889 1090 894 1124 894 C 1184 894 1234 885 1275 868 C 1315 850 1348 826 1373 796 C 1397 765 1415 729 1425 689 C 1435 648 1440 604 1440 556 L 1440 20 C 1440 12 1439 6 1437 4 C 1435 1 1429 0 1420 0 L 1284 0 C 1274 0 1269 1 1267 4 C 1265 6 1264 12 1264 20 L 1264 516 C 1264 585 1252 639 1228 677 C 1204 715 1159 734 1094 734 C 1026 734 972 711 932 667 C 892 622 872 559 872 478 L 872 20 C 872 12 871 6 869 4 C 867 1 861 0 852 0 L 716 0 C 706 0 701 1 699 4 C 697 6 696 12 696 20 L 696 516 C 696 585 684 639 660 677 C 636 715 591 734 526 734 C 458 734 404 711 364 667 C 324 622 304 559 304 478 L 304 20 C 304 12 303 6 301 4 C 299 1 293 0 284 0 L 148 0 C 138 0 133 1 131 4 C 129 6 128 12 128 20 L 128 854 C 128 862 129 867 131 870 C 133 872 138 874 148 874 L 284 874 C 293 874 299 872 301 870 C 303 867 304 862 304 854 L 304 774 C 304 771 306 770 312 770 C 316 770 318 770 320 772 C 349 808 383 837 423 860 C 462 882 508 894 560 894 C 637 894 696 880 738 852 C 779 824 809 786 828 740 Z" unicode="m" />
<glyph horiz-adv-x="1012" d="M 896 20 C 896 12 895 6 893 4 C 891 1 885 0 876 0 L 740 0 C 730 0 725 1 723 4 C 721 6 720 12 720 20 L 720 516 C 720 585 706 639 679 677 C 651 715 605 734 540 734 C 472 734 415 711 371 667 C 326 622 304 559 304 478 L 304 20 C 304 12 303 6 301 4 C 299 1 293 0 284 0 L 148 0 C 138 0 133 1 131 4 C 129 6 128 12 128 20 L 128 854 C 128 863 129 869 131 871 C 133 873 138 874 148 874 L 284 874 C 293 874 299 872 301 870 C 303 867 304 862 304 854 L 304 774 C 304 771 306 770 312 770 C 316 770 318 770 320 772 C 338 789 357 805 376 821 C 394 836 414 849 434 860 C 454 870 476 879 500 885 C 524 891 551 894 582 894 C 642 894 692 885 733 868 C 773 850 806 826 830 796 C 854 765 871 729 881 689 C 891 648 896 604 896 556 L 896 20 L 896 20 Z" unicode="n" />
<glyph horiz-adv-x="1038" d="M 64 438 C 64 500 76 559 100 615 C 124 670 156 718 198 760 C 239 801 287 834 343 858 C 398 882 457 894 520 894 C 582 894 641 882 697 858 C 752 834 800 801 841 760 C 881 718 914 670 938 615 C 962 559 974 500 974 438 C 974 375 962 316 938 261 C 914 205 881 157 841 115 C 800 73 752 40 697 16 C 641 -8 582 -20 520 -20 C 457 -20 398 -8 343 16 C 287 40 239 73 198 115 C 156 157 124 205 100 261 C 76 316 64 375 64 438 Z M 244 438 C 244 396 250 358 264 322 C 277 286 296 254 320 227 C 344 199 373 178 407 163 C 441 147 478 140 520 140 C 561 140 599 147 633 163 C 667 178 696 199 720 227 C 744 254 762 286 775 322 C 787 358 794 396 794 438 C 794 478 787 516 775 552 C 762 588 744 619 720 647 C 696 674 667 695 633 711 C 599 726 561 734 520 734 C 478 734 441 726 407 711 C 373 695 344 674 320 647 C 296 619 277 588 264 552 C 250 516 244 478 244 438 Z" unicode="o" />
<glyph horiz-adv-x="1100" d="M 856 438 C 856 478 849 516 836 552 C 822 588 804 619 780 647 C 756 674 727 695 694 711 C 660 726 623 734 582 734 C 540 734 503 726 469 711 C 435 695 405 674 381 647 C 356 619 337 588 324 552 C 310 516 304 478 304 438 C 304 396 310 358 324 322 C 337 286 356 254 381 227 C 405 199 435 178 469 163 C 503 147 540 140 582 140 C 623 140 660 147 694 163 C 727 178 756 199 780 227 C 804 254 822 286 836 322 C 849 358 856 396 856 438 Z M 304 774 C 304 771 306 770 312 770 C 316 770 318 770 320 772 C 356 809 396 839 442 861 C 487 883 540 894 602 894 C 663 894 720 882 774 858 C 827 834 873 801 912 760 C 950 718 981 670 1003 615 C 1025 559 1036 500 1036 438 C 1036 375 1025 316 1003 261 C 981 205 950 157 912 115 C 873 73 827 40 774 16 C 720 -8 663 -20 602 -20 C 540 -20 487 -9 442 13 C 396 35 356 64 320 102 C 318 103 316 104 312 104 C 306 104 304 102 304 100 L 304 -420 C 304 -428 303 -433 301 -436 C 299 -438 293 -440 284 -440 L 148 -440 C 138 -440 133 -438 131 -436 C 129 -433 128 -428 128 -420 L 128 854 C 128 862 129 867 131 870 C 133 872 138 874 148 874 L 284 874 C 293 874 299 872 301 870 C 303 867 304 862 304 854 L 304 774 Z" unicode="p" />
<glyph horiz-adv-x="1100" d="M 244 438 C 244 396 250 358 264 322 C 277 286 296 254 320 227 C 344 199 372 178 406 163 C 439 147 476 140 518 140 C 559 140 597 147 631 163 C 665 178 694 199 719 227 C 743 254 762 286 776 322 C 789 358 796 396 796 438 C 796 478 789 516 776 552 C 762 588 743 619 719 647 C 694 674 665 695 631 711 C 597 726 559 734 518 734 C 476 734 439 726 406 711 C 372 695 344 674 320 647 C 296 619 277 588 264 552 C 250 516 244 478 244 438 Z M 796 854 C 796 862 797 867 799 870 C 801 872 806 874 816 874 L 952 874 C 961 874 967 872 969 870 C 971 867 972 862 972 854 L 972 -420 C 972 -428 971 -433 969 -436 C 967 -438 961 -440 952 -440 L 816 -440 C 806 -440 801 -438 799 -436 C 797 -433 796 -428 796 -420 L 796 100 C 796 102 793 104 788 104 C 784 104 781 103 780 102 C 745 64 705 35 659 13 C 613 -9 559 -20 498 -20 C 435 -20 377 -8 325 16 C 272 40 226 73 188 115 C 149 157 119 205 97 261 C 75 316 64 375 64 438 C 64 500 75 559 97 615 C 119 670 149 718 188 760 C 226 801 272 834 325 858 C 377 882 435 894 498 894 C 559 894 613 883 659 861 C 705 839 745 809 780 772 C 781 770 784 770 788 770 C 793 770 796 771 796 774 L 796 854 Z" unicode="q" />
<glyph horiz-adv-x="638" d="M 148 0 C 138 0 133 1 131 4 C 129 6 128 12 128 20 L 128 854 C 128 862 129 867 131 870 C 133 872 138 874 148 874 L 284 874 C 293 874 299 872 301 870 C 303 867 304 862 304 854 L 304 748 C 304 745 306 744 312 744 C 316 744 318 744 320 746 C 329 763 343 781 361 799 C 379 817 399 833 422 847 C 444 861 469 872 497 881 C 524 889 552 894 582 894 C 591 894 597 892 599 890 C 601 887 602 882 602 874 L 602 730 C 602 715 598 708 592 708 C 588 708 581 708 573 710 C 564 711 552 712 538 712 C 462 712 404 681 364 620 C 324 558 304 474 304 366 L 304 20 C 304 12 303 6 301 4 C 299 1 293 0 284 0 L 148 0 L 148 0 Z" unicode="r" />
<glyph horiz-adv-x="752" d="M 536 668 C 501 720 450 746 384 746 C 346 746 317 736 297 717 C 276 697 266 674 266 646 C 266 616 276 593 297 576 C 317 558 343 543 374 529 C 404 515 438 501 474 488 C 510 474 543 457 574 437 C 604 416 630 390 651 358 C 671 326 682 285 682 236 C 682 205 676 175 665 145 C 653 115 635 87 611 63 C 586 38 554 18 516 3 C 477 -12 430 -20 376 -20 C 304 -20 243 -7 194 19 C 144 45 102 81 68 128 C 65 133 64 138 64 142 C 64 147 66 152 72 158 L 154 240 C 159 245 164 248 168 248 C 172 248 176 244 182 238 C 211 198 241 170 273 154 C 304 138 340 130 380 130 C 422 130 455 139 477 159 C 499 178 510 202 510 232 C 510 258 499 280 479 297 C 458 313 433 328 403 342 C 373 355 340 369 304 383 C 268 397 235 414 205 435 C 175 455 149 482 129 514 C 108 546 98 586 98 636 C 98 670 104 703 117 735 C 129 766 148 793 172 817 C 196 840 225 859 260 873 C 294 887 334 894 378 894 C 434 894 485 884 531 866 C 577 847 615 816 646 774 C 648 768 650 764 650 760 C 650 754 647 749 642 744 L 564 666 C 558 660 554 658 550 658 C 546 658 541 661 536 668 Z" unicode="s" />
<glyph horiz-adv-x="528" d="M 68 718 C 58 718 53 719 51 722 C 49 724 48 730 48 738 L 48 854 C 48 862 49 867 51 870 C 53 872 58 874 68 874 L 148 874 C 157 874 163 875 165 877 C 167 879 168 884 168 894 L 168 1160 C 168 1173 174 1184 188 1192 L 318 1272 C 320 1273 323 1274 325 1276 C 327 1277 329 1278 332 1278 C 338 1278 342 1272 342 1262 L 342 894 C 342 884 343 879 345 877 C 347 875 352 874 362 874 L 484 874 C 493 874 499 872 501 870 C 503 867 504 862 504 854 L 504 738 C 504 730 503 724 501 722 C 499 719 493 718 484 718 L 362 718 C 352 718 347 717 345 715 C 343 713 342 707 342 698 L 342 20 C 342 12 341 6 339 4 C 337 1 331 0 322 0 L 188 0 C 178 0 173 1 171 4 C 169 6 168 12 168 20 L 168 698 C 168 707 167 713 165 715 C 163 717 157 718 148 718 L 68 718 L 68 718 Z" unicode="t" />
<glyph horiz-adv-x="944" d="M 472 140 C 525 140 570 157 606 191 C 642 225 660 276 660 346 L 660 854 C 660 862 661 867 663 870 C 665 872 670 874 680 874 L 816 874 C 825 874 831 872 833 870 C 835 867 836 862 836 854 L 836 334 C 836 284 828 238 813 196 C 797 153 775 116 745 84 C 715 52 677 26 631 8 C 585 -10 532 -20 472 -20 C 412 -20 359 -10 313 8 C 267 26 229 52 199 84 C 169 116 146 153 131 196 C 115 238 108 284 108 334 L 108 854 C 108 862 109 867 111 870 C 113 872 118 874 128 874 L 264 874 C 273 874 279 872 281 870 C 283 867 284 862 284 854 L 284 346 C 284 276 302 225 338 191 C 374 157 418 140 472 140 Z" unicode="u" />
<glyph horiz-adv-x="850" d="M 412 360 C 413 356 417 354 424 354 C 429 354 433 356 436 360 L 640 854 C 644 862 647 867 650 870 C 652 872 658 874 666 874 L 820 874 C 830 874 836 872 837 869 C 837 865 836 860 834 854 L 436 -18 C 429 -30 422 -36 416 -36 C 409 -36 403 -30 398 -18 L 18 854 C 14 862 12 867 14 870 C 15 872 21 874 32 874 L 186 874 C 194 874 199 872 202 870 C 204 867 208 862 212 854 L 412 360 L 412 360 Z" unicode="v" />
<glyph horiz-adv-x="1296" d="M 434 -18 C 430 -30 423 -36 414 -36 C 407 -36 401 -30 396 -18 L 20 854 C 18 856 18 859 18 862 C 18 863 17 864 16 866 C 16 871 22 874 34 874 L 182 874 C 190 874 195 872 198 870 C 200 867 204 862 208 854 L 406 352 C 407 348 411 346 418 346 C 423 346 427 348 430 352 L 632 884 C 637 897 642 904 648 904 C 653 904 658 897 664 884 L 868 352 C 869 348 873 346 880 346 C 885 346 889 348 892 352 L 1088 854 C 1092 862 1095 867 1098 870 C 1100 872 1106 874 1114 874 L 1262 874 C 1274 874 1280 871 1280 866 C 1278 864 1278 863 1278 862 C 1278 860 1277 859 1277 859 C 1276 858 1276 856 1276 854 L 900 -18 C 893 -30 887 -36 882 -36 C 874 -36 867 -30 862 -18 L 662 488 C 659 492 655 494 650 494 C 643 494 639 492 638 488 L 434 -18 L 434 -18 Z" unicode="w" />
<glyph horiz-adv-x="910" d="M 242 20 C 235 12 230 6 227 4 C 223 1 218 0 210 0 L 50 0 C 38 0 32 2 32 6 C 32 8 34 13 38 20 L 326 440 C 328 442 330 445 330 448 C 330 450 328 453 326 456 L 48 854 C 42 859 40 864 40 870 C 40 872 46 874 58 874 L 224 874 C 232 874 237 872 241 870 C 244 867 249 862 256 854 L 442 574 C 444 571 447 570 450 570 C 452 570 455 571 458 574 L 646 854 C 652 862 657 867 661 870 C 664 872 670 874 678 874 L 838 874 C 850 874 856 872 856 870 C 856 864 853 859 848 854 L 572 456 C 569 453 568 450 568 448 C 568 445 569 442 572 440 L 870 20 C 875 14 878 10 878 6 C 878 2 872 0 860 0 L 698 0 C 690 0 684 1 681 4 C 677 6 672 12 666 20 L 458 322 C 455 324 452 326 450 326 C 447 326 444 324 442 322 L 242 20 L 242 20 Z" unicode="x" />
<glyph horiz-adv-x="906" d="M 446 264 C 447 260 450 258 454 258 C 456 258 459 260 462 264 L 696 854 C 700 862 703 867 706 870 C 708 872 714 874 722 874 L 872 874 C 884 874 890 871 890 866 C 888 864 888 863 888 862 C 888 860 887 859 887 859 C 886 858 886 856 886 854 L 368 -420 C 364 -428 360 -433 358 -436 C 355 -438 350 -440 342 -440 L 194 -440 C 182 -440 176 -437 176 -432 C 177 -432 178 -431 178 -430 C 178 -426 178 -422 180 -420 L 356 16 C 357 17 358 20 358 26 C 358 31 357 34 356 36 L 20 854 C 18 856 18 859 18 862 C 18 863 17 864 16 866 C 16 871 22 874 34 874 L 188 874 C 196 874 201 872 204 870 C 206 867 210 862 214 854 L 446 264 L 446 264 Z" unicode="y" />
<glyph horiz-adv-x="752" d="M 322 190 C 318 182 316 176 316 172 C 316 164 320 160 328 160 L 654 160 C 663 160 669 159 671 157 C 673 155 674 149 674 140 L 674 20 C 674 10 673 5 671 3 C 669 1 663 0 654 0 L 46 0 C 36 0 32 3 32 10 C 32 10 33 14 36 22 L 190 292 L 416 688 C 420 696 422 702 422 708 C 422 714 418 718 410 718 L 92 718 C 82 718 77 719 75 721 C 73 723 72 728 72 738 L 72 854 C 72 863 73 869 75 871 C 77 873 82 874 92 874 L 690 874 C 699 874 704 871 704 866 C 704 866 702 862 700 854 L 550 592 L 322 190 Z" unicode="z" />
<glyph horiz-adv-x="600" d="M 236 1210 C 236 1255 242 1294 256 1326 C 269 1358 287 1384 309 1404 C 331 1424 357 1438 387 1448 C 417 1457 449 1462 484 1462 L 532 1462 C 541 1462 547 1461 549 1459 C 551 1457 552 1451 552 1442 L 552 1332 C 552 1322 551 1317 549 1315 C 547 1313 541 1312 532 1312 L 502 1312 C 472 1312 449 1301 432 1280 C 414 1258 406 1226 406 1184 L 406 868 C 406 817 401 775 391 742 C 381 708 369 682 355 663 C 341 643 325 629 308 620 C 290 610 275 604 262 602 C 258 600 256 597 256 592 C 256 586 258 583 262 582 C 275 579 290 573 308 564 C 325 554 341 539 355 519 C 369 498 381 471 391 438 C 401 404 406 362 406 312 L 406 -2 C 406 -44 414 -76 432 -98 C 449 -119 472 -130 502 -130 L 532 -130 C 541 -130 547 -131 549 -133 C 551 -135 552 -140 552 -150 L 552 -260 C 552 -269 551 -275 549 -277 C 547 -279 541 -280 532 -280 L 484 -280 C 449 -280 417 -275 387 -266 C 357 -256 331 -242 309 -222 C 287 -202 269 -176 256 -144 C 242 -112 236 -73 236 -28 L 236 256 C 236 344 222 406 195 444 C 167 481 130 500 84 500 C 74 500 69 501 67 503 C 65 505 64 510 64 520 L 64 662 C 64 671 65 677 67 679 C 69 681 74 682 84 682 C 130 682 167 700 195 737 C 222 773 236 836 236 924 L 236 1210 Z" unicode="{" />
<glyph horiz-adv-x="500" d="M 174 1480 C 174 1488 175 1493 177 1496 C 179 1498 184 1500 194 1500 L 306 1500 C 315 1500 321 1498 323 1496 C 325 1493 326 1488 326 1480 L 326 -480 C 326 -488 325 -493 323 -496 C 321 -498 315 -500 306 -500 L 194 -500 C 184 -500 179 -498 177 -496 C 175 -493 174 -488 174 -480 L 174 1480 L 174 1480 Z" unicode="|" />
<glyph horiz-adv-x="600" d="M 364 924 C 364 836 377 773 405 737 C 432 700 469 682 516 682 C 525 682 531 681 533 679 C 535 677 536 671 536 662 L 536 520 C 536 510 535 505 533 503 C 531 501 525 500 516 500 C 469 500 432 481 405 444 C 377 406 364 344 364 256 L 364 -28 C 364 -73 357 -112 344 -144 C 330 -176 313 -202 291 -222 C 269 -242 243 -256 213 -266 C 183 -275 150 -280 116 -280 L 68 -280 C 58 -280 53 -279 51 -277 C 49 -275 48 -269 48 -260 L 48 -150 C 48 -140 49 -135 51 -133 C 53 -131 58 -130 68 -130 L 98 -130 C 127 -130 150 -119 168 -98 C 185 -76 194 -44 194 -2 L 194 312 C 194 362 199 404 209 438 C 219 471 231 498 245 519 C 259 539 274 554 292 564 C 309 573 324 579 338 582 C 342 583 344 586 344 592 C 344 597 342 600 338 602 C 324 604 309 610 292 620 C 274 629 259 643 245 663 C 231 682 219 708 209 742 C 199 775 194 817 194 868 L 194 1184 C 194 1226 185 1258 168 1280 C 150 1301 127 1312 98 1312 L 68 1312 C 58 1312 53 1313 51 1315 C 49 1317 48 1322 48 1332 L 48 1442 C 48 1451 49 1457 51 1459 C 53 1461 58 1462 68 1462 L 116 1462 C 150 1462 183 1457 213 1448 C 243 1438 269 1424 291 1404 C 313 1384 330 1358 344 1326 C 357 1294 364 1255 364 1210 L 364 924 Z" unicode="}" />
<glyph horiz-adv-x="1000" d="M 920 612 C 920 582 915 555 906 529 C 896 503 882 480 863 461 C 843 441 819 426 789 415 C 759 403 723 398 682 398 C 653 398 626 401 602 409 C 577 417 554 427 533 439 C 511 451 491 463 473 477 C 455 490 437 503 421 515 C 404 527 388 536 373 544 C 357 552 342 556 328 556 C 300 556 279 548 265 532 C 251 516 244 493 244 464 L 244 444 C 244 436 243 430 241 428 C 239 425 233 424 224 424 L 100 424 C 90 424 85 425 83 428 C 81 430 80 436 80 444 L 80 496 C 80 525 85 553 95 579 C 105 605 120 628 140 648 C 160 668 186 683 217 695 C 248 706 284 712 326 712 C 354 712 380 708 404 700 C 428 692 451 683 472 671 C 493 659 513 646 531 633 C 549 619 567 607 583 595 C 599 583 615 573 630 565 C 645 557 660 554 674 554 C 701 554 721 561 735 577 C 749 592 756 614 756 644 L 756 666 C 756 674 757 679 759 682 C 761 684 766 686 776 686 L 900 686 C 909 686 915 684 917 682 C 919 679 920 674 920 666 L 920 612 Z" unicode="~" />
<glyph horiz-adv-x="568" d="M 394 20 C 394 10 393 5 392 3 C 390 1 385 0 376 0 L 192 0 C 182 0 177 1 176 3 C 174 5 174 10 174 20 L 214 1002 C 214 1011 215 1017 218 1019 C 220 1021 226 1022 236 1022 L 332 1022 C 341 1022 347 1021 350 1019 C 352 1017 354 1011 354 1002 L 394 20 Z M 284 1424 C 317 1424 346 1412 371 1389 C 395 1365 408 1336 408 1300 C 408 1265 396 1236 372 1212 C 348 1188 318 1176 284 1176 C 249 1176 220 1188 196 1212 C 172 1236 160 1264 160 1298 C 160 1332 172 1362 196 1387 C 220 1411 249 1424 284 1424 Z" unicode="" />
<glyph horiz-adv-x="852" d="M 764 26 C 737 12 707 2 674 -4 C 640 -10 608 -15 578 -18 L 578 -80 C 578 -89 577 -95 575 -97 C 573 -99 567 -100 558 -100 L 482 -100 C 472 -100 467 -99 465 -97 C 463 -95 462 -89 462 -80 L 462 -14 C 406 -6 354 11 308 38 C 261 64 221 98 188 138 C 154 178 128 223 110 275 C 91 326 82 380 82 438 C 82 495 91 549 110 600 C 128 650 154 696 188 736 C 221 776 261 809 308 835 C 354 861 406 878 462 886 L 462 980 C 462 989 463 995 465 997 C 467 999 472 1000 482 1000 L 558 1000 C 567 1000 573 999 575 997 C 577 995 578 989 578 980 L 578 890 C 608 887 640 882 672 876 C 704 869 732 860 758 850 C 764 847 769 844 771 842 C 773 839 774 835 774 830 L 774 668 C 774 658 771 654 766 654 C 764 654 761 655 756 658 C 734 678 709 694 679 708 C 649 721 615 729 578 732 L 578 140 C 616 142 651 150 683 163 C 714 175 741 194 764 220 C 765 221 768 222 772 222 C 777 222 780 217 780 208 L 780 46 C 780 40 779 36 777 34 C 775 31 770 28 764 26 Z M 262 438 C 262 364 279 302 314 250 C 348 198 398 164 462 148 L 462 724 C 398 708 348 674 314 623 C 279 571 262 510 262 438 Z" unicode="" />
<glyph horiz-adv-x="1132" d="M 678 1420 C 744 1420 801 1412 849 1398 C 896 1383 944 1364 992 1340 C 1002 1333 1008 1326 1008 1320 L 1008 1126 C 1008 1116 1005 1112 1000 1112 C 996 1112 992 1113 990 1116 C 951 1154 908 1186 862 1210 C 815 1234 758 1246 690 1246 C 614 1246 555 1225 515 1185 C 474 1144 454 1076 454 980 L 454 778 C 454 770 458 766 466 766 L 762 766 C 775 766 782 759 782 746 L 782 642 C 782 628 775 622 762 622 L 466 622 C 458 622 454 618 454 610 L 454 176 C 454 166 455 161 457 159 C 459 157 464 156 474 156 L 1002 156 C 1015 156 1022 149 1022 136 L 1022 20 C 1022 6 1015 0 1002 0 L 120 0 C 106 0 100 6 100 20 L 100 136 C 100 149 106 156 120 156 L 254 156 C 263 156 269 157 271 159 C 273 161 274 166 274 176 L 274 610 C 274 618 270 622 262 622 L 118 622 C 107 622 102 627 102 638 L 102 750 C 102 760 107 766 118 766 L 262 766 C 270 766 274 770 274 778 L 274 984 C 274 1129 311 1238 386 1311 C 460 1383 558 1420 678 1420 Z" unicode="" />
<glyph horiz-adv-x="1172" d="M 854 744 C 854 780 847 814 834 848 C 820 881 802 910 778 936 C 754 961 725 981 693 996 C 660 1010 624 1018 586 1018 C 550 1018 515 1010 483 996 C 450 981 422 961 398 936 C 374 910 355 881 341 849 C 327 816 320 781 320 744 C 320 706 327 671 341 638 C 355 604 374 575 398 551 C 422 526 450 506 483 492 C 515 477 550 470 586 470 C 624 470 660 477 693 492 C 725 506 754 526 778 552 C 802 577 820 606 834 640 C 847 673 854 708 854 744 Z M 1010 744 C 1010 688 1001 642 984 606 C 966 570 950 540 936 518 C 933 510 932 506 932 508 C 932 505 932 503 934 502 L 1092 344 C 1094 341 1096 338 1096 336 C 1096 333 1094 330 1092 328 L 1004 240 C 1001 237 998 236 996 236 C 993 236 990 237 988 240 L 830 398 C 827 400 824 402 822 402 C 819 402 816 400 814 398 C 792 383 763 367 727 350 C 690 332 644 324 588 324 C 530 324 483 332 446 349 C 408 365 378 381 356 396 C 353 398 350 400 348 400 C 345 400 342 398 340 396 L 182 238 C 179 235 176 234 174 234 C 171 234 168 235 166 238 L 78 326 C 75 328 74 331 74 334 C 74 336 75 339 78 342 L 236 500 C 237 501 238 503 238 506 C 238 504 236 508 234 516 C 219 536 204 565 188 603 C 172 641 164 688 164 744 C 164 800 172 847 188 885 C 204 923 219 952 234 972 C 236 980 238 983 238 982 C 238 984 237 986 236 988 L 78 1146 C 75 1148 74 1151 74 1154 C 74 1156 75 1159 78 1162 L 166 1250 C 168 1252 171 1254 174 1254 C 176 1254 179 1252 182 1250 L 340 1092 C 342 1089 345 1088 348 1088 C 350 1088 353 1089 356 1092 C 378 1106 408 1122 446 1139 C 483 1155 530 1164 588 1164 C 644 1164 690 1155 727 1138 C 763 1120 792 1104 814 1090 C 816 1087 819 1086 822 1086 C 824 1086 827 1087 830 1090 L 988 1248 C 990 1250 993 1252 996 1252 C 998 1252 1001 1250 1004 1248 L 1092 1160 C 1094 1157 1096 1154 1096 1152 C 1096 1149 1094 1146 1092 1144 L 934 986 C 932 984 932 982 932 980 C 932 981 933 978 936 970 C 950 947 966 918 984 882 C 1001 846 1010 800 1010 744 Z" unicode="" />
<glyph horiz-adv-x="1132" d="M 970 620 C 983 620 990 613 990 600 L 990 504 C 990 490 983 484 970 484 L 670 484 C 662 484 658 480 658 474 L 658 20 C 658 10 657 5 655 3 C 653 1 647 0 638 0 L 498 0 C 488 0 483 1 481 3 C 479 5 478 10 478 20 L 478 474 C 475 480 471 484 466 484 L 162 484 C 151 484 146 489 146 500 L 146 604 C 146 614 151 620 162 620 L 466 620 C 472 620 476 622 478 628 L 478 674 C 478 688 475 702 471 716 C 466 729 458 742 446 756 C 443 758 440 760 436 760 L 162 760 C 151 760 146 765 146 776 L 146 880 C 146 890 151 896 162 896 L 358 896 L 46 1380 C 43 1388 42 1392 42 1392 C 42 1397 46 1400 54 1400 L 224 1400 C 234 1400 244 1393 252 1380 L 558 876 C 559 872 562 870 568 870 C 572 870 575 872 578 876 L 884 1380 C 889 1389 894 1395 898 1397 C 902 1399 907 1400 914 1400 L 1082 1400 C 1090 1400 1094 1397 1094 1392 C 1094 1392 1092 1388 1090 1380 L 778 896 L 970 896 C 983 896 990 889 990 876 L 990 780 C 990 766 983 760 970 760 L 700 760 C 696 760 692 758 690 756 C 668 734 658 707 658 674 L 658 628 C 659 622 663 620 670 620 L 970 620 Z" unicode="" />
<glyph horiz-adv-x="500" d="M 174 1480 C 174 1488 175 1493 177 1496 C 179 1498 184 1500 194 1500 L 306 1500 C 315 1500 321 1498 323 1496 C 325 1493 326 1488 326 1480 L 326 680 C 326 672 325 666 323 664 C 321 661 315 660 306 660 L 194 660 C 184 660 179 661 177 664 C 175 666 174 672 174 680 L 174 1480 Z M 174 320 C 174 328 175 333 177 336 C 179 338 184 340 194 340 L 306 340 C 315 340 321 338 323 336 C 325 333 326 328 326 320 L 326 -480 C 326 -488 325 -493 323 -496 C 321 -498 315 -500 306 -500 L 194 -500 C 184 -500 179 -498 177 -496 C 175 -493 174 -488 174 -480 L 174 320 Z" unicode="" />
<glyph horiz-adv-x="1026" d="M 674 242 C 681 238 689 238 698 240 C 731 254 755 274 771 302 C 786 330 794 362 794 400 C 794 425 788 449 776 472 C 764 495 745 518 721 541 C 696 563 665 586 627 609 C 589 632 545 656 494 682 L 428 714 C 421 717 414 718 406 716 C 370 704 341 685 319 659 C 297 632 286 598 286 556 C 286 528 292 504 304 483 C 316 461 335 441 359 422 C 383 402 412 383 447 363 C 481 343 521 322 566 300 C 586 288 605 278 623 268 C 641 258 658 250 674 242 Z M 508 -460 C 466 -460 424 -454 382 -443 C 340 -432 301 -417 264 -397 C 226 -377 192 -352 162 -323 C 131 -294 106 -262 86 -226 C 82 -220 80 -215 80 -212 C 80 -208 83 -202 90 -196 L 190 -96 C 196 -89 201 -86 204 -86 C 207 -86 212 -90 218 -98 C 239 -133 261 -163 283 -188 C 305 -213 329 -234 354 -250 C 378 -266 404 -277 432 -285 C 460 -292 490 -296 522 -296 C 556 -296 586 -291 612 -282 C 638 -273 660 -261 678 -245 C 696 -229 709 -210 718 -188 C 727 -166 732 -142 732 -116 C 732 -94 728 -73 722 -52 C 715 -31 703 -10 685 11 C 667 32 642 54 610 77 C 578 100 536 124 486 150 C 414 184 355 217 308 247 C 260 277 222 307 193 337 C 164 367 144 398 132 432 C 120 465 114 503 114 546 C 114 600 128 648 156 692 C 184 735 220 772 266 802 C 271 805 274 808 274 812 C 274 814 271 818 266 824 C 224 857 194 895 177 938 C 160 981 152 1028 152 1080 C 152 1126 161 1170 180 1211 C 199 1252 225 1288 258 1319 C 291 1350 330 1375 375 1393 C 420 1411 468 1420 520 1420 C 556 1420 592 1416 626 1410 C 660 1403 693 1392 724 1378 C 755 1363 784 1344 811 1322 C 838 1299 862 1272 884 1240 C 888 1234 890 1229 890 1226 C 890 1222 886 1216 880 1210 L 784 1114 C 777 1107 772 1104 770 1104 C 766 1104 762 1108 756 1116 C 732 1159 701 1194 662 1220 C 622 1246 579 1260 532 1260 C 472 1260 423 1245 387 1217 C 350 1188 332 1146 332 1090 C 332 1067 336 1045 345 1025 C 354 1004 369 983 389 963 C 409 942 434 921 465 900 C 496 878 534 856 578 834 C 648 798 708 764 757 734 C 806 703 846 671 877 639 C 908 607 931 572 945 534 C 959 496 966 453 966 404 C 966 343 955 290 933 246 C 911 201 879 163 838 132 C 832 128 830 125 830 122 C 830 118 832 115 838 112 C 864 80 883 45 896 7 C 909 -31 916 -70 916 -112 C 916 -164 906 -211 888 -254 C 869 -296 842 -333 807 -364 C 772 -394 729 -418 679 -435 C 628 -451 571 -460 508 -460 Z" unicode="" />
<glyph horiz-adv-x="1000" d="M 706 1036 C 675 1036 647 1047 623 1070 C 598 1092 586 1121 586 1156 C 586 1189 597 1218 621 1242 C 644 1266 672 1278 706 1278 C 738 1278 766 1265 790 1241 C 814 1216 826 1188 826 1158 C 826 1127 813 1099 789 1074 C 764 1048 736 1036 706 1036 Z M 294 1036 C 263 1036 235 1047 211 1070 C 186 1092 174 1121 174 1156 C 174 1189 186 1218 210 1242 C 234 1266 262 1278 294 1278 C 327 1278 355 1265 379 1241 C 402 1216 414 1188 414 1158 C 414 1127 402 1099 378 1074 C 354 1048 326 1036 294 1036 Z" unicode="" />
<glyph horiz-adv-x="1040" d="M 538 790 C 570 790 598 795 622 805 C 646 815 666 828 682 842 C 687 847 691 850 694 850 C 699 850 702 844 702 834 L 702 752 C 702 742 701 736 699 733 C 697 730 693 727 688 724 C 670 712 648 702 622 694 C 596 686 568 682 538 682 C 494 682 456 689 422 704 C 388 719 359 739 336 765 C 313 791 296 821 284 855 C 272 889 266 924 266 962 C 266 1000 271 1035 283 1069 C 294 1103 311 1132 334 1158 C 356 1183 385 1203 419 1218 C 453 1232 492 1240 538 1240 C 566 1240 593 1236 619 1228 C 645 1220 668 1211 688 1202 C 695 1198 699 1195 700 1192 C 701 1189 702 1183 702 1174 L 702 1090 C 702 1084 701 1080 701 1078 C 701 1075 699 1074 696 1074 C 694 1074 692 1074 690 1074 C 688 1074 685 1076 682 1080 C 668 1092 648 1103 623 1115 C 597 1126 569 1132 538 1132 C 510 1132 487 1127 468 1117 C 449 1107 433 1094 421 1078 C 409 1062 400 1043 394 1023 C 388 1003 386 982 386 962 C 386 938 388 916 394 896 C 400 875 409 857 421 841 C 433 825 449 813 468 804 C 487 794 510 790 538 790 Z M 64 962 C 64 1024 76 1083 100 1139 C 124 1194 156 1242 198 1284 C 239 1325 287 1358 343 1382 C 398 1406 457 1418 520 1418 C 582 1418 641 1406 697 1382 C 752 1358 800 1325 842 1284 C 883 1242 916 1194 940 1139 C 964 1083 976 1024 976 962 C 976 899 964 840 940 785 C 916 729 883 681 842 639 C 800 597 752 564 697 540 C 641 516 582 504 520 504 C 457 504 398 516 343 540 C 287 564 239 597 198 639 C 156 681 124 729 100 785 C 76 840 64 899 64 962 Z M 176 962 C 176 910 184 862 201 818 C 217 773 241 734 271 701 C 301 668 338 642 380 624 C 422 605 468 596 520 596 C 572 596 619 605 661 624 C 703 642 740 668 770 701 C 800 734 823 773 839 818 C 855 862 864 910 864 962 C 864 1012 855 1060 839 1104 C 823 1148 800 1186 770 1219 C 740 1252 703 1278 661 1297 C 619 1316 572 1326 520 1326 C 468 1326 422 1316 380 1297 C 338 1278 301 1252 271 1219 C 241 1186 217 1148 201 1104 C 184 1060 176 1012 176 962 Z" unicode="" />
<glyph horiz-adv-x="756" d="M 672 1400 C 681 1400 687 1398 689 1396 C 691 1393 692 1387 692 1378 L 692 852 C 692 844 691 838 689 836 C 687 833 681 832 672 832 L 582 832 C 572 832 567 833 565 836 C 563 838 562 844 562 852 L 562 904 C 562 905 560 906 558 907 C 556 907 554 908 552 908 C 550 908 549 908 547 908 C 545 908 543 907 542 906 C 522 878 496 857 462 841 C 428 825 392 818 354 818 C 310 818 271 825 235 840 C 199 854 169 875 144 901 C 118 927 99 959 85 996 C 71 1032 64 1072 64 1116 C 64 1159 71 1199 85 1236 C 99 1272 118 1304 144 1330 C 169 1356 199 1377 235 1392 C 271 1406 310 1414 354 1414 C 392 1414 428 1406 462 1390 C 496 1374 522 1353 542 1326 C 543 1324 545 1324 547 1324 C 549 1324 550 1324 552 1324 C 554 1324 556 1324 558 1325 C 560 1325 562 1326 562 1328 L 562 1380 C 562 1388 563 1393 565 1396 C 567 1398 572 1400 582 1400 L 672 1400 Z M 206 1116 C 206 1090 210 1067 219 1045 C 227 1023 239 1005 255 989 C 270 973 288 961 309 953 C 329 944 352 940 376 940 C 400 940 422 944 443 953 C 464 961 482 973 498 989 C 513 1005 525 1023 534 1045 C 543 1067 548 1090 548 1116 C 548 1141 543 1164 534 1186 C 525 1208 513 1226 498 1242 C 482 1258 464 1270 443 1279 C 422 1287 400 1292 376 1292 C 352 1292 329 1287 309 1279 C 288 1270 270 1258 255 1242 C 239 1226 227 1208 219 1186 C 210 1164 206 1141 206 1116 Z" unicode="" />
<glyph horiz-adv-x="1000" d="M 110 428 C 107 436 106 440 106 440 C 106 440 107 444 110 452 L 352 858 C 356 866 360 870 366 870 C 368 870 373 868 380 864 L 490 800 C 498 796 502 791 502 786 C 502 786 500 782 498 774 L 304 456 C 301 450 299 446 299 443 C 298 439 298 436 298 434 C 298 428 300 422 304 414 L 498 100 C 502 93 504 89 504 88 C 504 84 499 79 490 74 L 380 10 C 373 6 368 4 366 4 C 360 4 356 8 352 16 L 110 428 L 110 428 Z M 510 428 C 507 436 506 440 506 440 C 506 440 507 444 510 452 L 752 858 C 756 866 760 870 766 870 C 768 870 773 868 780 864 L 890 800 C 898 796 902 791 902 786 C 902 786 900 782 898 774 L 704 456 C 701 450 699 446 699 443 C 698 439 698 436 698 434 C 698 428 700 422 704 414 L 898 100 C 902 93 904 89 904 88 C 904 84 899 79 890 74 L 780 10 C 773 6 768 4 766 4 C 760 4 756 8 752 16 L 510 428 L 510 428 Z" unicode="" />
<glyph horiz-adv-x="1000" d="M 90 600 C 80 600 75 601 73 604 C 71 606 70 612 70 620 L 70 728 C 70 736 71 741 73 744 C 75 746 80 748 90 748 L 910 748 C 919 748 925 746 927 744 C 929 741 930 736 930 728 L 930 222 C 930 214 929 208 927 206 C 925 203 919 202 910 202 L 790 202 C 780 202 775 203 773 206 C 771 208 770 214 770 222 L 770 580 C 770 589 769 595 767 597 C 765 599 759 600 750 600 L 90 600 Z" unicode="" />
<glyph horiz-adv-x="624" d="M 112 600 C 112 609 113 615 116 617 C 118 619 124 620 132 620 L 492 620 C 501 620 507 619 509 617 C 511 615 512 609 512 600 L 512 480 C 512 470 511 465 509 463 C 507 461 501 460 492 460 L 132 460 C 122 460 117 461 115 463 C 113 465 112 470 112 480 L 112 600 L 112 600 Z" unicode="" />
<glyph horiz-adv-x="1040" d="M 64 962 C 64 1024 76 1083 100 1139 C 124 1194 156 1242 198 1284 C 239 1325 287 1358 343 1382 C 398 1406 457 1418 520 1418 C 582 1418 641 1406 697 1382 C 752 1358 800 1325 842 1284 C 883 1242 916 1194 940 1139 C 964 1083 976 1024 976 962 C 976 899 964 840 940 785 C 916 729 883 681 842 639 C 800 597 752 564 697 540 C 641 516 582 504 520 504 C 457 504 398 516 343 540 C 287 564 239 597 198 639 C 156 681 124 729 100 785 C 76 840 64 899 64 962 Z M 176 962 C 176 910 184 862 201 818 C 217 773 241 734 271 701 C 301 668 338 642 380 624 C 422 605 468 596 520 596 C 572 596 619 605 661 624 C 703 642 740 668 770 701 C 800 734 823 773 839 818 C 855 862 864 910 864 962 C 864 1012 855 1060 839 1104 C 823 1148 800 1186 770 1219 C 740 1252 703 1278 661 1297 C 619 1316 572 1326 520 1326 C 468 1326 422 1316 380 1297 C 338 1278 301 1252 271 1219 C 241 1186 217 1148 201 1104 C 184 1060 176 1012 176 962 Z M 520 992 C 547 992 567 997 580 1009 C 593 1020 600 1038 600 1064 C 600 1089 593 1107 580 1118 C 567 1128 547 1134 520 1134 L 470 1134 C 460 1134 455 1133 453 1131 C 451 1129 450 1123 450 1114 L 450 1010 C 450 1002 451 997 453 995 C 455 993 460 992 470 992 L 520 992 Z M 364 710 C 354 710 349 711 347 713 C 345 715 344 720 344 730 L 344 1208 C 344 1217 345 1223 347 1225 C 349 1227 354 1228 364 1228 L 540 1228 C 595 1228 637 1213 667 1184 C 697 1154 712 1116 712 1068 C 712 1030 703 1001 686 981 C 669 960 647 943 620 930 C 618 928 617 927 617 927 C 616 927 616 926 616 924 C 616 922 618 918 622 912 L 722 730 C 726 722 728 717 728 716 C 728 712 722 710 712 710 L 622 710 C 614 710 609 710 607 712 C 605 714 602 718 598 726 L 520 878 C 516 887 512 893 509 895 C 506 897 502 898 496 898 L 470 898 C 460 898 455 897 453 895 C 451 893 450 887 450 878 L 450 730 C 450 720 449 715 447 713 C 445 711 439 710 430 710 L 364 710 Z" unicode="" />
<glyph horiz-adv-x="1000" d="M 182 1200 C 182 1209 183 1215 186 1217 C 188 1219 194 1220 202 1220 L 798 1220 C 807 1220 813 1219 815 1217 C 817 1215 818 1209 818 1200 L 818 1112 C 818 1102 817 1097 815 1095 C 813 1093 807 1092 798 1092 L 202 1092 C 192 1092 187 1093 185 1095 C 183 1097 182 1102 182 1112 L 182 1200 L 182 1200 Z" unicode="" />
<glyph horiz-adv-x="696" d="M 506 1136 C 506 1159 502 1181 495 1202 C 487 1223 477 1241 463 1257 C 449 1273 433 1285 414 1294 C 394 1303 372 1308 348 1308 C 323 1308 301 1303 282 1294 C 262 1285 246 1273 232 1257 C 218 1241 208 1223 201 1202 C 193 1181 190 1159 190 1136 C 190 1112 193 1090 201 1069 C 208 1048 218 1030 232 1014 C 246 998 262 986 282 977 C 301 968 323 964 348 964 C 372 964 394 968 414 977 C 433 986 449 998 463 1014 C 477 1030 487 1048 495 1069 C 502 1090 506 1112 506 1136 Z M 64 1136 C 64 1172 70 1207 84 1241 C 97 1275 116 1304 141 1330 C 166 1356 196 1376 231 1391 C 265 1406 304 1414 348 1414 C 390 1414 429 1406 464 1391 C 498 1376 528 1356 553 1330 C 578 1304 597 1275 611 1241 C 625 1207 632 1172 632 1136 C 632 1098 625 1063 611 1030 C 597 996 578 967 553 941 C 528 915 498 895 464 880 C 429 865 390 858 348 858 C 304 858 265 865 231 880 C 196 895 166 915 141 941 C 116 967 97 996 84 1030 C 70 1063 64 1098 64 1136 Z" unicode="" />
<glyph horiz-adv-x="1000" d="M 580 716 C 580 706 581 701 583 699 C 585 697 590 696 600 696 L 910 696 C 919 696 925 694 927 692 C 929 689 930 684 930 676 L 930 568 C 930 560 929 554 927 552 C 925 549 919 548 910 548 L 600 548 C 590 548 585 547 583 545 C 581 543 580 537 580 528 L 580 270 C 580 262 579 256 577 254 C 575 251 569 250 560 250 L 440 250 C 430 250 425 251 423 254 C 421 256 420 262 420 270 L 420 528 C 420 537 419 543 417 545 C 415 547 409 548 400 548 L 90 548 C 80 548 75 549 73 552 C 71 554 70 560 70 568 L 70 676 C 70 684 71 689 73 692 C 75 694 80 696 90 696 L 400 696 C 409 696 415 697 417 699 C 419 701 420 706 420 716 L 420 974 C 420 982 421 987 423 990 C 425 992 430 994 440 994 L 560 994 C 569 994 575 992 577 990 C 579 987 580 982 580 974 L 580 716 Z M 910 150 C 919 150 925 148 927 146 C 929 143 930 138 930 130 L 930 22 C 930 14 929 8 927 6 C 925 3 919 2 910 2 L 90 2 C 80 2 75 3 73 6 C 71 8 70 14 70 22 L 70 130 C 70 138 71 143 73 146 C 75 148 80 150 90 150 L 910 150 Z" unicode="" />
<glyph horiz-adv-x="666" d="M 74 1394 C 74 1432 79 1466 90 1498 C 101 1529 118 1556 140 1579 C 162 1601 189 1619 221 1631 C 253 1643 290 1650 332 1650 C 375 1650 413 1643 446 1631 C 478 1619 506 1601 528 1579 C 550 1557 566 1530 577 1499 C 588 1467 594 1432 594 1394 C 594 1350 579 1303 551 1252 C 523 1201 479 1145 420 1084 L 376 1040 C 372 1036 370 1032 370 1030 C 370 1026 373 1024 380 1024 L 562 1024 C 571 1024 577 1023 579 1021 C 581 1019 582 1013 582 1004 L 582 910 C 582 900 581 895 579 893 C 577 891 571 890 562 890 L 78 890 C 72 890 70 892 70 898 C 70 902 71 905 73 907 C 75 909 76 910 76 912 L 304 1158 C 322 1178 340 1198 356 1218 C 372 1237 387 1256 399 1275 C 411 1293 421 1312 429 1330 C 436 1348 440 1367 440 1386 C 440 1428 429 1459 409 1479 C 389 1499 362 1510 328 1510 C 296 1510 270 1500 251 1480 C 231 1460 222 1432 222 1394 C 222 1384 221 1379 219 1377 C 217 1375 211 1374 202 1374 L 94 1374 C 84 1374 79 1375 77 1377 C 75 1379 74 1384 74 1394 Z" unicode="" />
<glyph horiz-adv-x="666" d="M 218 1436 C 218 1426 217 1421 215 1419 C 213 1417 207 1416 198 1416 L 102 1416 C 92 1416 87 1417 85 1419 C 83 1421 82 1426 82 1436 C 83 1468 90 1498 102 1524 C 114 1550 131 1573 153 1592 C 174 1610 199 1625 229 1635 C 259 1645 292 1650 328 1650 C 365 1650 398 1644 428 1633 C 458 1621 483 1606 504 1588 C 524 1569 540 1548 551 1524 C 562 1500 568 1475 568 1450 C 568 1418 562 1393 551 1373 C 539 1353 523 1336 502 1320 C 496 1314 494 1310 494 1308 C 494 1304 496 1301 502 1298 C 533 1276 558 1249 576 1216 C 594 1182 604 1148 604 1112 C 604 1077 597 1045 585 1017 C 573 988 555 963 532 942 C 508 921 479 905 445 893 C 411 881 372 876 328 876 C 288 876 251 881 219 893 C 186 904 158 920 135 941 C 111 962 93 987 81 1016 C 68 1044 62 1076 62 1112 C 62 1121 63 1127 65 1129 C 67 1131 72 1132 82 1132 L 184 1132 C 193 1132 199 1131 201 1129 C 203 1127 204 1121 204 1112 C 204 1096 207 1082 214 1070 C 221 1057 230 1046 242 1037 C 253 1028 266 1021 281 1016 C 296 1010 312 1008 328 1008 C 365 1008 395 1016 417 1033 C 439 1049 450 1074 450 1108 C 450 1137 440 1161 420 1180 C 400 1198 369 1208 328 1208 L 262 1208 C 252 1208 247 1209 245 1211 C 243 1213 242 1218 242 1228 L 242 1318 C 242 1327 243 1333 245 1335 C 247 1337 252 1338 262 1338 L 314 1338 C 349 1338 375 1344 393 1356 C 411 1368 420 1390 420 1422 C 420 1452 411 1476 393 1494 C 375 1512 351 1522 320 1522 C 292 1522 268 1514 250 1500 C 232 1485 221 1464 218 1436 Z" unicode="" />
<glyph horiz-adv-x="1000" d="M 576 1280 C 582 1288 587 1293 591 1296 C 594 1298 600 1300 608 1300 L 800 1300 C 809 1300 815 1299 817 1297 C 819 1295 816 1289 808 1280 L 566 1032 C 558 1024 552 1018 548 1016 C 544 1013 538 1012 530 1012 L 388 1012 C 377 1012 372 1013 374 1017 C 375 1020 378 1025 384 1032 L 576 1280 L 576 1280 Z" unicode="" />
<glyph horiz-adv-x="1010" d="M 306 0 C 303 0 302 -1 302 -4 L 302 -426 C 302 -434 301 -439 299 -442 C 297 -444 291 -446 282 -446 L 142 -446 C 132 -446 127 -444 125 -442 C 123 -439 122 -434 122 -426 L 122 854 C 122 862 123 867 125 870 C 127 872 132 874 142 874 L 282 874 C 291 874 297 872 299 870 C 301 867 302 862 302 854 L 302 358 C 302 323 305 292 312 265 C 318 238 329 215 343 197 C 357 178 376 164 399 154 C 421 144 449 140 482 140 C 516 140 547 145 576 157 C 604 168 629 185 650 207 C 671 229 688 255 700 287 C 712 319 718 355 718 396 L 718 854 C 718 862 719 867 721 870 C 723 872 728 874 738 874 L 878 874 C 887 874 893 872 895 870 C 897 867 898 862 898 854 L 898 20 C 898 12 897 6 895 4 C 893 1 887 0 878 0 L 738 0 C 728 0 723 1 721 4 C 719 6 718 12 718 20 L 718 100 C 718 102 716 104 714 104 C 711 104 709 103 708 102 C 688 84 669 67 650 52 C 631 37 611 24 590 14 C 569 3 546 -5 522 -11 C 498 -17 470 -20 440 -20 C 412 -20 388 -18 367 -15 C 345 -12 325 -7 306 0 Z" unicode="" />
<glyph horiz-adv-x="1066" d="M 554 500 C 484 500 422 509 366 527 C 310 545 261 570 220 602 C 116 683 64 802 64 958 C 64 1116 118 1234 226 1312 C 267 1342 313 1365 364 1379 C 414 1393 480 1400 562 1400 C 575 1400 582 1393 582 1380 L 582 520 C 582 506 575 500 562 500 L 554 500 Z M 904 1400 C 913 1400 919 1399 921 1397 C 923 1395 924 1389 924 1380 L 924 -306 C 924 -315 923 -321 921 -323 C 919 -325 913 -326 904 -326 L 754 -326 C 744 -326 739 -325 737 -323 C 735 -321 734 -315 734 -306 L 734 1380 C 734 1389 735 1395 737 1397 C 739 1399 744 1400 754 1400 L 904 1400 Z" unicode="" />
<glyph horiz-adv-x="500" d="M 250 512 C 216 512 187 523 163 547 C 138 570 126 600 126 636 C 126 670 138 700 162 724 C 186 748 215 760 250 760 C 284 760 314 748 338 724 C 362 700 374 671 374 638 C 374 603 362 573 338 549 C 314 524 284 512 250 512 Z" unicode="" />
<glyph horiz-adv-x="1000" d="M 690 -194 C 690 -224 684 -254 674 -282 C 663 -310 648 -334 628 -355 C 608 -375 584 -392 557 -404 C 529 -416 500 -422 468 -422 C 442 -422 417 -419 392 -415 C 366 -410 342 -400 320 -384 C 312 -377 308 -369 310 -360 L 326 -274 C 328 -259 336 -256 348 -264 C 364 -274 379 -282 395 -288 C 410 -293 428 -296 448 -296 C 474 -296 497 -287 517 -271 C 536 -254 546 -227 546 -190 C 546 -159 534 -135 511 -119 C 487 -102 458 -94 422 -94 C 415 -94 409 -94 404 -94 C 398 -94 390 -94 380 -96 C 370 -97 364 -96 362 -93 C 359 -89 359 -81 362 -68 L 378 18 L 434 18 C 463 18 493 13 524 5 C 554 -3 582 -17 607 -35 C 631 -53 651 -75 667 -101 C 682 -127 690 -158 690 -194 Z" unicode="" />
<glyph horiz-adv-x="666" d="M 490 908 C 490 900 489 895 488 893 C 486 891 481 890 472 890 L 352 890 C 344 890 339 891 337 893 C 335 895 334 900 334 908 L 334 1434 C 334 1445 333 1452 331 1455 C 329 1457 323 1457 314 1454 L 192 1412 C 184 1408 178 1407 176 1408 C 173 1409 172 1414 172 1424 L 172 1526 C 172 1535 173 1541 176 1544 C 178 1547 184 1550 192 1554 L 470 1650 C 481 1653 487 1653 488 1651 C 489 1649 490 1643 490 1634 L 490 908 Z" unicode="" />
<glyph horiz-adv-x="756" d="M 378 1290 C 352 1290 329 1285 308 1277 C 287 1269 269 1257 254 1242 C 239 1227 228 1209 220 1188 C 212 1167 208 1144 208 1118 C 208 1090 212 1066 220 1044 C 228 1022 239 1004 254 988 C 269 972 287 960 308 952 C 329 944 352 940 378 940 C 403 940 426 944 447 952 C 468 960 486 972 501 988 C 516 1004 528 1022 536 1044 C 544 1066 548 1090 548 1118 C 548 1144 544 1167 536 1188 C 528 1209 516 1227 501 1242 C 486 1257 468 1269 447 1277 C 426 1285 403 1290 378 1290 Z M 378 818 C 332 818 289 825 251 839 C 213 853 180 874 152 900 C 124 926 102 958 87 995 C 71 1031 64 1072 64 1118 C 64 1160 71 1200 87 1236 C 102 1272 124 1304 152 1330 C 180 1356 213 1377 251 1392 C 289 1406 332 1414 378 1414 C 423 1414 465 1406 503 1392 C 541 1377 575 1356 603 1330 C 631 1304 652 1272 668 1236 C 684 1200 692 1160 692 1118 C 692 1072 684 1031 668 995 C 652 958 631 926 603 900 C 575 874 541 853 503 839 C 465 825 423 818 378 818 Z" unicode="" />
<glyph horiz-adv-x="1000" d="M 490 428 L 248 16 C 244 8 239 4 234 4 C 231 4 226 6 220 10 L 110 74 C 100 79 96 84 96 88 C 96 89 98 93 102 100 L 296 414 C 300 422 302 428 302 434 C 302 436 301 439 301 443 C 300 446 298 450 296 456 L 102 774 C 99 782 98 786 98 786 C 98 791 102 796 110 800 L 220 864 C 226 868 231 870 234 870 C 239 870 244 866 248 858 L 490 452 C 492 444 494 440 494 440 C 494 440 492 436 490 428 Z M 890 428 L 648 16 C 644 8 639 4 634 4 C 631 4 626 6 620 10 L 510 74 C 500 79 496 84 496 88 C 496 89 498 93 502 100 L 696 414 C 700 422 702 428 702 434 C 702 436 701 439 701 443 C 700 446 698 450 696 456 L 502 774 C 499 782 498 786 498 786 C 498 791 502 796 510 800 L 620 864 C 626 868 631 870 634 870 C 639 870 644 866 648 858 L 890 452 C 892 444 894 440 894 440 C 894 440 892 436 890 428 Z" unicode="" />
<glyph horiz-adv-x="1336" d="M 974 1422 C 978 1429 981 1433 984 1433 C 987 1433 992 1432 1000 1428 L 1086 1378 C 1092 1374 1095 1370 1097 1367 C 1099 1363 1098 1358 1094 1350 L 302 -22 C 298 -29 294 -33 291 -33 C 288 -33 283 -32 276 -28 L 190 22 C 184 26 180 29 178 33 C 176 36 178 42 182 50 L 974 1422 Z M 398 688 C 398 680 397 675 396 673 C 394 671 389 670 380 670 L 260 670 C 252 670 247 671 245 673 C 243 675 242 680 242 688 L 242 1214 C 242 1225 241 1232 239 1235 C 237 1237 231 1237 222 1234 L 100 1192 C 92 1188 86 1187 84 1188 C 81 1189 80 1194 80 1204 L 80 1306 C 80 1315 81 1321 84 1324 C 86 1327 92 1330 100 1334 L 378 1430 C 389 1433 395 1433 396 1431 C 397 1429 398 1423 398 1414 L 398 688 Z M 610 110 C 602 110 597 111 593 114 C 589 117 590 122 596 128 L 1118 772 C 1122 776 1125 778 1128 778 C 1133 778 1136 775 1136 770 L 1136 250 C 1136 240 1137 235 1139 233 C 1141 231 1146 230 1156 230 L 1216 230 C 1225 230 1231 229 1233 227 C 1235 225 1236 219 1236 210 L 1236 130 C 1236 120 1235 115 1233 113 C 1231 111 1225 110 1216 110 L 1156 110 C 1146 110 1141 109 1139 107 C 1137 105 1136 99 1136 90 L 1136 20 C 1136 10 1135 5 1133 3 C 1131 1 1125 0 1116 0 L 1016 0 C 1006 0 1001 1 999 3 C 997 5 996 10 996 20 L 996 90 C 996 99 995 105 993 107 C 991 109 985 110 976 110 L 610 110 Z M 996 422 C 996 428 994 432 992 432 C 988 432 986 430 984 426 L 850 252 C 844 244 842 240 842 238 C 842 234 846 232 854 232 L 976 232 C 985 232 991 233 993 235 C 995 237 996 242 996 252 L 996 422 Z" unicode="" />
<glyph horiz-adv-x="1416" d="M 974 1422 C 978 1429 981 1433 984 1433 C 987 1433 992 1432 1000 1428 L 1086 1378 C 1092 1374 1095 1370 1097 1367 C 1099 1363 1098 1358 1094 1350 L 302 -22 C 298 -29 294 -33 291 -33 C 288 -33 283 -32 276 -28 L 190 22 C 184 26 180 29 178 33 C 176 36 178 42 182 50 L 974 1422 Z M 796 504 C 796 542 801 576 812 608 C 823 639 840 666 862 689 C 884 711 911 729 943 741 C 975 753 1012 760 1054 760 C 1097 760 1135 753 1168 741 C 1200 729 1228 711 1250 689 C 1272 667 1288 640 1299 609 C 1310 577 1316 542 1316 504 C 1316 460 1301 413 1273 362 C 1245 311 1201 255 1142 194 L 1098 150 C 1094 146 1092 142 1092 140 C 1092 136 1095 134 1102 134 L 1284 134 C 1293 134 1299 133 1301 131 C 1303 129 1304 123 1304 114 L 1304 20 C 1304 10 1303 5 1301 3 C 1299 1 1293 0 1284 0 L 800 0 C 794 0 792 2 792 8 C 792 12 793 15 795 17 C 797 19 798 20 798 22 L 1026 268 C 1044 288 1062 308 1078 328 C 1094 347 1109 366 1121 385 C 1133 403 1143 422 1151 440 C 1158 458 1162 477 1162 496 C 1162 538 1151 569 1131 589 C 1111 609 1084 620 1050 620 C 1018 620 992 610 973 590 C 953 570 944 542 944 504 C 944 494 943 489 941 487 C 939 485 933 484 924 484 L 816 484 C 806 484 801 485 799 487 C 797 489 796 494 796 504 Z M 398 688 C 398 680 397 675 396 673 C 394 671 389 670 380 670 L 260 670 C 252 670 247 671 245 673 C 243 675 242 680 242 688 L 242 1214 C 242 1225 241 1232 239 1235 C 237 1237 231 1237 222 1234 L 100 1192 C 92 1188 86 1187 84 1188 C 81 1189 80 1194 80 1204 L 80 1306 C 80 1315 81 1321 84 1324 C 86 1327 92 1330 100 1334 L 378 1430 C 389 1433 395 1433 396 1431 C 397 1429 398 1423 398 1414 L 398 688 Z" unicode="" />
<glyph horiz-adv-x="1494" d="M 1132 1422 C 1136 1429 1139 1433 1142 1433 C 1145 1433 1150 1432 1158 1428 L 1244 1378 C 1250 1374 1253 1370 1255 1367 C 1257 1363 1256 1358 1252 1350 L 460 -22 C 456 -29 452 -33 449 -33 C 446 -33 441 -32 434 -28 L 348 22 C 342 26 338 29 336 33 C 334 36 336 42 340 50 L 1132 1422 Z M 256 1216 C 256 1206 255 1201 253 1199 C 251 1197 245 1196 236 1196 L 140 1196 C 130 1196 125 1197 123 1199 C 121 1201 120 1206 120 1216 C 121 1248 128 1278 140 1304 C 152 1330 169 1353 191 1372 C 212 1390 237 1405 267 1415 C 297 1425 330 1430 366 1430 C 403 1430 436 1424 466 1413 C 496 1401 521 1386 542 1368 C 562 1349 578 1328 589 1304 C 600 1280 606 1255 606 1230 C 606 1198 600 1173 589 1153 C 577 1133 561 1116 540 1100 C 534 1094 532 1090 532 1088 C 532 1084 534 1081 540 1078 C 571 1056 596 1029 614 996 C 632 962 642 928 642 892 C 642 857 635 825 623 797 C 611 768 593 743 570 722 C 546 701 517 685 483 673 C 449 661 410 656 366 656 C 326 656 289 661 257 673 C 224 684 196 700 173 721 C 149 742 131 767 119 796 C 106 824 100 856 100 892 C 100 901 101 907 103 909 C 105 911 110 912 120 912 L 222 912 C 231 912 237 911 239 909 C 241 907 242 901 242 892 C 242 876 245 862 252 850 C 259 837 268 826 280 817 C 291 808 304 801 319 796 C 334 790 350 788 366 788 C 403 788 433 796 455 813 C 477 829 488 854 488 888 C 488 917 478 941 458 960 C 438 978 407 988 366 988 L 300 988 C 290 988 285 989 283 991 C 281 993 280 998 280 1008 L 280 1098 C 280 1107 281 1113 283 1115 C 285 1117 290 1118 300 1118 L 352 1118 C 387 1118 413 1124 431 1136 C 449 1148 458 1170 458 1202 C 458 1232 449 1256 431 1274 C 413 1292 389 1302 358 1302 C 330 1302 306 1294 288 1280 C 270 1265 259 1244 256 1216 Z M 768 110 C 760 110 755 111 751 114 C 747 117 748 122 754 128 L 1276 772 C 1280 776 1283 778 1286 778 C 1291 778 1294 775 1294 770 L 1294 250 C 1294 240 1295 235 1297 233 C 1299 231 1304 230 1314 230 L 1374 230 C 1383 230 1389 229 1391 227 C 1393 225 1394 219 1394 210 L 1394 130 C 1394 120 1393 115 1391 113 C 1389 111 1383 110 1374 110 L 1314 110 C 1304 110 1299 109 1297 107 C 1295 105 1294 99 1294 90 L 1294 20 C 1294 10 1293 5 1291 3 C 1289 1 1283 0 1274 0 L 1174 0 C 1164 0 1159 1 1157 3 C 1155 5 1154 10 1154 20 L 1154 90 C 1154 99 1153 105 1151 107 C 1149 109 1143 110 1134 110 L 768 110 Z M 1154 422 C 1154 428 1152 432 1150 432 C 1146 432 1144 430 1142 426 L 1008 252 C 1002 244 1000 240 1000 238 C 1000 234 1004 232 1012 232 L 1134 232 C 1143 232 1149 233 1151 235 C 1153 237 1154 242 1154 252 L 1154 422 Z" unicode="" />
<glyph horiz-adv-x="840" d="M 434 1424 C 467 1424 496 1412 521 1389 C 545 1365 558 1336 558 1300 C 558 1265 546 1236 522 1212 C 498 1188 468 1176 434 1176 C 399 1176 370 1188 346 1212 C 322 1236 310 1264 310 1298 C 310 1332 322 1362 346 1387 C 370 1411 399 1424 434 1424 Z M 410 146 C 534 146 596 216 596 356 C 596 362 597 367 599 371 C 601 374 606 376 616 376 L 750 376 C 762 376 768 370 768 358 L 768 326 C 768 276 760 230 746 188 C 731 145 709 108 679 77 C 649 45 611 21 566 3 C 520 -15 467 -24 406 -24 C 288 -24 199 5 139 63 C 78 121 48 200 48 300 C 48 344 56 384 72 421 C 88 457 108 491 133 522 C 157 552 184 582 212 610 C 240 638 266 666 291 695 C 315 723 336 753 352 785 C 368 816 376 850 376 888 L 376 1002 C 376 1011 377 1017 380 1019 C 382 1021 388 1022 398 1022 L 494 1022 C 503 1022 509 1021 511 1019 C 513 1017 515 1011 518 1002 C 520 992 523 973 527 945 C 530 916 532 884 532 850 C 532 786 517 731 487 685 C 457 639 423 596 387 558 C 350 519 317 481 287 444 C 257 406 242 364 242 318 C 242 262 256 219 284 190 C 312 160 354 146 410 146 Z" unicode="" />
<glyph horiz-adv-x="1124" d="M 568 886 C 565 890 561 892 556 892 C 549 892 545 890 544 886 L 392 450 C 390 447 390 444 390 440 C 390 438 389 438 388 438 C 388 435 388 433 389 432 C 389 430 393 430 400 430 L 714 430 C 723 430 728 432 728 436 C 728 434 726 439 724 450 L 568 886 Z M 550 1422 C 551 1427 554 1430 560 1430 C 565 1430 568 1427 570 1422 L 1090 20 C 1091 18 1092 14 1092 8 C 1092 2 1086 0 1076 0 L 902 0 C 894 0 888 1 885 3 C 881 5 878 10 876 20 L 796 230 C 793 239 790 245 788 247 C 785 249 779 250 770 250 L 342 250 C 328 250 320 243 316 230 L 242 20 C 239 10 236 5 233 3 C 229 1 224 0 216 0 L 48 0 C 37 0 32 2 32 8 C 32 14 32 18 34 20 L 550 1422 Z M 636 1520 C 641 1513 644 1508 646 1505 C 647 1501 642 1500 632 1500 L 490 1500 C 482 1500 476 1501 472 1504 C 468 1506 462 1512 454 1520 L 212 1768 C 204 1777 201 1783 203 1785 C 205 1787 210 1788 220 1788 L 412 1788 C 420 1788 425 1786 429 1784 C 432 1781 437 1776 444 1768 L 636 1520 Z" unicode="" />
<glyph horiz-adv-x="1124" d="M 568 886 C 565 890 561 892 556 892 C 549 892 545 890 544 886 L 392 450 C 390 447 390 444 390 440 C 390 438 389 438 388 438 C 388 435 388 433 389 432 C 389 430 393 430 400 430 L 714 430 C 723 430 728 432 728 436 C 728 434 726 439 724 450 L 568 886 Z M 550 1422 C 551 1427 554 1430 560 1430 C 565 1430 568 1427 570 1422 L 1090 20 C 1091 18 1092 14 1092 8 C 1092 2 1086 0 1076 0 L 902 0 C 894 0 888 1 885 3 C 881 5 878 10 876 20 L 796 230 C 793 239 790 245 788 247 C 785 249 779 250 770 250 L 342 250 C 328 250 320 243 316 230 L 242 20 C 239 10 236 5 233 3 C 229 1 224 0 216 0 L 48 0 C 37 0 32 2 32 8 C 32 14 32 18 34 20 L 550 1422 Z M 672 1768 C 678 1776 683 1781 687 1784 C 690 1786 696 1788 704 1788 L 896 1788 C 905 1788 911 1787 913 1785 C 915 1783 912 1777 904 1768 L 662 1520 C 654 1512 648 1506 644 1504 C 640 1501 634 1500 626 1500 L 484 1500 C 473 1500 468 1501 470 1505 C 471 1508 474 1513 480 1520 L 672 1768 L 672 1768 Z" unicode="" />
<glyph horiz-adv-x="1124" d="M 568 886 C 565 890 561 892 556 892 C 549 892 545 890 544 886 L 392 450 C 390 447 390 444 390 440 C 390 438 389 438 388 438 C 388 435 388 433 389 432 C 389 430 393 430 400 430 L 714 430 C 723 430 728 432 728 436 C 728 434 726 439 724 450 L 568 886 Z M 550 1422 C 551 1427 554 1430 560 1430 C 565 1430 568 1427 570 1422 L 1090 20 C 1091 18 1092 14 1092 8 C 1092 2 1086 0 1076 0 L 902 0 C 894 0 888 1 885 3 C 881 5 878 10 876 20 L 796 230 C 793 239 790 245 788 247 C 785 249 779 250 770 250 L 342 250 C 328 250 320 243 316 230 L 242 20 C 239 10 236 5 233 3 C 229 1 224 0 216 0 L 48 0 C 37 0 32 2 32 8 C 32 14 32 18 34 20 L 550 1422 Z M 444 1768 C 456 1781 468 1788 482 1788 L 634 1788 C 650 1788 662 1781 672 1768 L 888 1520 C 892 1513 894 1508 894 1506 C 894 1502 890 1500 882 1500 L 758 1500 C 748 1500 742 1502 738 1506 C 734 1510 729 1514 724 1520 L 574 1670 C 571 1672 567 1674 562 1674 C 556 1674 552 1672 550 1670 L 404 1520 C 398 1514 394 1510 390 1506 C 386 1502 379 1500 370 1500 L 242 1500 C 234 1500 230 1502 230 1506 C 230 1508 232 1513 236 1520 L 444 1768 L 444 1768 Z" unicode="" />
<glyph horiz-adv-x="1124" d="M 568 886 C 565 890 561 892 556 892 C 549 892 545 890 544 886 L 392 450 C 390 447 390 444 390 440 C 390 438 389 438 388 438 C 388 435 388 433 389 432 C 389 430 393 430 400 430 L 714 430 C 723 430 728 432 728 436 C 728 434 726 439 724 450 L 568 886 Z M 550 1422 C 551 1427 554 1430 560 1430 C 565 1430 568 1427 570 1422 L 1090 20 C 1091 18 1092 14 1092 8 C 1092 2 1086 0 1076 0 L 902 0 C 894 0 888 1 885 3 C 881 5 878 10 876 20 L 796 230 C 793 239 790 245 788 247 C 785 249 779 250 770 250 L 342 250 C 328 250 320 243 316 230 L 242 20 C 239 10 236 5 233 3 C 229 1 224 0 216 0 L 48 0 C 37 0 32 2 32 8 C 32 14 32 18 34 20 L 550 1422 Z M 262 1524 C 252 1524 247 1525 245 1528 C 243 1530 242 1536 242 1544 L 242 1572 C 242 1625 258 1671 290 1710 C 322 1748 368 1768 428 1768 C 469 1768 502 1762 527 1750 C 551 1738 572 1724 589 1709 C 605 1693 621 1680 635 1668 C 649 1656 666 1650 688 1650 C 706 1650 722 1656 736 1668 C 749 1680 756 1697 756 1720 L 756 1742 C 756 1750 757 1755 759 1758 C 761 1760 766 1762 776 1762 L 864 1762 C 873 1762 879 1760 881 1758 C 883 1755 884 1750 884 1742 L 884 1712 C 884 1658 869 1613 840 1575 C 810 1537 766 1518 706 1518 C 663 1518 629 1524 604 1536 C 578 1548 557 1561 540 1577 C 522 1592 506 1606 492 1618 C 477 1630 459 1636 438 1636 C 419 1636 403 1629 390 1617 C 376 1604 370 1586 370 1564 L 370 1544 C 370 1536 369 1530 367 1528 C 365 1525 359 1524 350 1524 L 262 1524 L 262 1524 Z" unicode="" />
<glyph horiz-adv-x="1124" d="M 568 886 C 565 890 561 892 556 892 C 549 892 545 890 544 886 L 392 450 C 390 447 390 444 390 440 C 390 438 389 438 388 438 C 388 435 388 433 389 432 C 389 430 393 430 400 430 L 714 430 C 723 430 728 432 728 436 C 728 434 726 439 724 450 L 568 886 Z M 550 1422 C 551 1427 554 1430 560 1430 C 565 1430 568 1427 570 1422 L 1090 20 C 1091 18 1092 14 1092 8 C 1092 2 1086 0 1076 0 L 902 0 C 894 0 888 1 885 3 C 881 5 878 10 876 20 L 796 230 C 793 239 790 245 788 247 C 785 249 779 250 770 250 L 342 250 C 328 250 320 243 316 230 L 242 20 C 239 10 236 5 233 3 C 229 1 224 0 216 0 L 48 0 C 37 0 32 2 32 8 C 32 14 32 18 34 20 L 550 1422 Z M 768 1522 C 737 1522 709 1533 685 1556 C 660 1578 648 1607 648 1642 C 648 1675 659 1704 683 1728 C 706 1752 734 1764 768 1764 C 800 1764 828 1751 852 1727 C 876 1702 888 1674 888 1644 C 888 1613 875 1585 851 1560 C 826 1534 798 1522 768 1522 Z M 356 1522 C 325 1522 297 1533 273 1556 C 248 1578 236 1607 236 1642 C 236 1675 248 1704 272 1728 C 296 1752 324 1764 356 1764 C 389 1764 417 1751 441 1727 C 464 1702 476 1674 476 1644 C 476 1613 464 1585 440 1560 C 416 1534 388 1522 356 1522 Z" unicode="" />
<glyph horiz-adv-x="1124" d="M 568 886 C 565 890 561 892 556 892 C 549 892 545 890 544 886 L 392 450 C 390 447 390 444 390 440 C 390 438 389 438 388 438 C 388 435 388 433 389 432 C 389 430 393 430 400 430 L 714 430 C 723 430 728 432 728 436 C 728 434 726 439 724 450 L 568 886 Z M 550 1422 C 551 1427 554 1430 560 1430 C 565 1430 568 1427 570 1422 L 1090 20 C 1091 18 1092 14 1092 8 C 1092 2 1086 0 1076 0 L 902 0 C 894 0 888 1 885 3 C 881 5 878 10 876 20 L 796 230 C 793 239 790 245 788 247 C 785 249 779 250 770 250 L 342 250 C 328 250 320 243 316 230 L 242 20 C 239 10 236 5 233 3 C 229 1 224 0 216 0 L 48 0 C 37 0 32 2 32 8 C 32 14 32 18 34 20 L 550 1422 Z M 562 1580 C 584 1580 604 1588 620 1604 C 636 1620 644 1640 644 1664 C 644 1686 636 1706 621 1722 C 605 1738 586 1746 562 1746 C 538 1746 518 1738 503 1722 C 487 1706 480 1686 480 1662 C 480 1636 488 1616 504 1602 C 520 1587 539 1580 562 1580 Z M 562 1480 C 512 1480 470 1496 434 1528 C 398 1560 380 1604 380 1662 C 380 1712 397 1756 432 1792 C 466 1828 510 1846 562 1846 C 587 1846 611 1841 633 1831 C 655 1821 674 1807 691 1791 C 707 1774 720 1755 730 1733 C 739 1711 744 1688 744 1664 C 744 1638 739 1614 730 1592 C 720 1569 707 1549 691 1533 C 674 1516 655 1503 633 1494 C 611 1484 587 1480 562 1480 Z" unicode="" />
<glyph horiz-adv-x="1528" d="M 726 0 C 716 0 711 1 709 3 C 707 5 706 10 706 20 L 706 230 C 706 239 705 245 703 247 C 701 249 695 250 686 250 L 326 250 C 312 250 304 243 300 230 L 208 20 C 205 10 202 5 199 3 C 195 1 190 0 182 0 L 18 0 C 7 0 2 2 2 8 C 2 14 2 18 4 20 L 610 1380 C 615 1393 624 1400 638 1400 L 1408 1400 C 1417 1400 1423 1399 1425 1397 C 1427 1395 1428 1389 1428 1380 L 1428 1236 C 1428 1226 1427 1221 1425 1219 C 1423 1217 1417 1216 1408 1216 L 918 1216 C 908 1216 903 1215 901 1213 C 899 1211 898 1205 898 1196 L 898 702 C 898 692 899 687 901 685 C 903 683 908 682 918 682 L 1398 682 C 1407 682 1413 681 1415 679 C 1417 677 1418 671 1418 662 L 1418 520 C 1418 510 1417 505 1415 503 C 1413 501 1407 500 1398 500 L 918 500 C 908 500 903 499 901 497 C 899 495 898 489 898 480 L 898 204 C 898 194 899 189 901 187 C 903 185 908 184 918 184 L 1418 184 C 1427 184 1433 183 1435 181 C 1437 179 1438 173 1438 164 L 1438 20 C 1438 10 1437 5 1435 3 C 1433 1 1427 0 1418 0 L 726 0 Z M 392 450 C 390 447 390 444 390 440 C 390 438 389 438 388 438 C 388 432 394 430 406 430 L 686 430 C 695 430 701 431 703 433 C 705 435 706 440 706 450 L 706 1124 C 706 1129 702 1132 696 1132 C 688 1132 683 1130 682 1126 L 392 450 Z" unicode="" />
<glyph horiz-adv-x="1244" d="M 812 -20 C 700 -20 599 -1 511 37 C 422 75 347 127 285 193 C 223 259 175 335 142 422 C 108 508 92 601 92 700 C 92 797 108 889 142 977 C 175 1064 223 1141 285 1207 C 347 1273 422 1325 511 1363 C 599 1401 700 1420 812 1420 C 872 1420 928 1412 981 1398 C 1033 1383 1084 1364 1132 1340 C 1142 1333 1148 1326 1148 1320 L 1148 1106 C 1148 1096 1145 1092 1140 1092 C 1136 1092 1132 1093 1130 1096 C 1088 1137 1041 1169 989 1192 C 936 1214 877 1226 812 1226 C 729 1226 656 1211 594 1182 C 531 1152 478 1113 436 1064 C 393 1014 361 958 340 896 C 318 833 308 768 308 700 C 308 632 318 566 340 504 C 361 441 393 385 436 336 C 478 286 531 247 594 218 C 656 188 729 174 812 174 C 877 174 936 185 989 208 C 1041 230 1088 262 1130 304 C 1132 306 1136 308 1140 308 C 1145 308 1148 303 1148 294 L 1148 80 C 1148 73 1142 66 1132 60 C 1084 36 1033 16 981 2 C 928 -12 872 -20 812 -20 Z M 890 -194 C 890 -224 884 -254 874 -282 C 863 -310 848 -334 828 -355 C 808 -375 784 -392 757 -404 C 729 -416 700 -422 668 -422 C 642 -422 617 -419 592 -415 C 566 -410 542 -400 520 -384 C 512 -377 508 -369 510 -360 L 526 -274 C 528 -259 536 -256 548 -264 C 564 -274 579 -282 595 -288 C 610 -293 628 -296 648 -296 C 674 -296 697 -287 717 -271 C 736 -254 746 -227 746 -190 C 746 -159 734 -135 711 -119 C 687 -102 658 -94 622 -94 C 615 -94 609 -94 604 -94 C 598 -94 590 -94 580 -96 C 570 -97 564 -96 562 -93 C 559 -89 559 -81 562 -68 L 578 18 L 634 18 C 663 18 693 13 724 5 C 754 -3 782 -17 807 -35 C 831 -53 851 -75 867 -101 C 882 -127 890 -158 890 -194 Z" unicode="" />
<glyph horiz-adv-x="1024" d="M 146 1380 C 146 1389 147 1395 149 1397 C 151 1399 156 1400 166 1400 L 912 1400 C 921 1400 927 1399 929 1397 C 931 1395 932 1389 932 1380 L 932 1236 C 932 1226 931 1221 929 1219 C 927 1217 921 1216 912 1216 L 362 1216 C 352 1216 347 1215 345 1213 C 343 1211 342 1205 342 1196 L 342 702 C 342 692 343 687 345 685 C 347 683 352 682 362 682 L 892 682 C 901 682 907 681 909 679 C 911 677 912 671 912 662 L 912 520 C 912 510 911 505 909 503 C 907 501 901 500 892 500 L 362 500 C 352 500 347 499 345 497 C 343 495 342 489 342 480 L 342 204 C 342 194 343 189 345 187 C 347 185 352 184 362 184 L 922 184 C 931 184 937 183 939 181 C 941 179 942 173 942 164 L 942 20 C 942 10 941 5 939 3 C 937 1 931 0 922 0 L 166 0 C 156 0 151 1 149 3 C 147 5 146 10 146 20 L 146 1380 L 146 1380 Z M 742 1520 C 747 1513 750 1508 752 1505 C 753 1501 748 1500 738 1500 L 596 1500 C 588 1500 582 1501 578 1504 C 574 1506 568 1512 560 1520 L 318 1768 C 310 1777 307 1783 309 1785 C 311 1787 316 1788 326 1788 L 518 1788 C 526 1788 531 1786 535 1784 C 538 1781 543 1776 550 1768 L 742 1520 Z" unicode="" />
<glyph horiz-adv-x="1024" d="M 146 1380 C 146 1389 147 1395 149 1397 C 151 1399 156 1400 166 1400 L 912 1400 C 921 1400 927 1399 929 1397 C 931 1395 932 1389 932 1380 L 932 1236 C 932 1226 931 1221 929 1219 C 927 1217 921 1216 912 1216 L 362 1216 C 352 1216 347 1215 345 1213 C 343 1211 342 1205 342 1196 L 342 702 C 342 692 343 687 345 685 C 347 683 352 682 362 682 L 892 682 C 901 682 907 681 909 679 C 911 677 912 671 912 662 L 912 520 C 912 510 911 505 909 503 C 907 501 901 500 892 500 L 362 500 C 352 500 347 499 345 497 C 343 495 342 489 342 480 L 342 204 C 342 194 343 189 345 187 C 347 185 352 184 362 184 L 922 184 C 931 184 937 183 939 181 C 941 179 942 173 942 164 L 942 20 C 942 10 941 5 939 3 C 937 1 931 0 922 0 L 166 0 C 156 0 151 1 149 3 C 147 5 146 10 146 20 L 146 1380 L 146 1380 Z M 576 1768 C 582 1776 587 1781 591 1784 C 594 1786 600 1788 608 1788 L 800 1788 C 809 1788 815 1787 817 1785 C 819 1783 816 1777 808 1768 L 566 1520 C 558 1512 552 1506 548 1504 C 544 1501 538 1500 530 1500 L 388 1500 C 377 1500 372 1501 374 1505 C 375 1508 378 1513 384 1520 L 576 1768 L 576 1768 Z" unicode="" />
<glyph horiz-adv-x="1024" d="M 146 1380 C 146 1389 147 1395 149 1397 C 151 1399 156 1400 166 1400 L 912 1400 C 921 1400 927 1399 929 1397 C 931 1395 932 1389 932 1380 L 932 1236 C 932 1226 931 1221 929 1219 C 927 1217 921 1216 912 1216 L 362 1216 C 352 1216 347 1215 345 1213 C 343 1211 342 1205 342 1196 L 342 702 C 342 692 343 687 345 685 C 347 683 352 682 362 682 L 892 682 C 901 682 907 681 909 679 C 911 677 912 671 912 662 L 912 520 C 912 510 911 505 909 503 C 907 501 901 500 892 500 L 362 500 C 352 500 347 499 345 497 C 343 495 342 489 342 480 L 342 204 C 342 194 343 189 345 187 C 347 185 352 184 362 184 L 922 184 C 931 184 937 183 939 181 C 941 179 942 173 942 164 L 942 20 C 942 10 941 5 939 3 C 937 1 931 0 922 0 L 166 0 C 156 0 151 1 149 3 C 147 5 146 10 146 20 L 146 1380 L 146 1380 Z M 394 1768 C 406 1781 418 1788 432 1788 L 584 1788 C 600 1788 612 1781 622 1768 L 838 1520 C 842 1513 844 1508 844 1506 C 844 1502 840 1500 832 1500 L 708 1500 C 698 1500 692 1502 688 1506 C 684 1510 679 1514 674 1520 L 524 1670 C 521 1672 517 1674 512 1674 C 506 1674 502 1672 500 1670 L 354 1520 C 348 1514 344 1510 340 1506 C 336 1502 329 1500 320 1500 L 192 1500 C 184 1500 180 1502 180 1506 C 180 1508 182 1513 186 1520 L 394 1768 L 394 1768 Z" unicode="" />
<glyph horiz-adv-x="1024" d="M 146 1380 C 146 1389 147 1395 149 1397 C 151 1399 156 1400 166 1400 L 912 1400 C 921 1400 927 1399 929 1397 C 931 1395 932 1389 932 1380 L 932 1236 C 932 1226 931 1221 929 1219 C 927 1217 921 1216 912 1216 L 362 1216 C 352 1216 347 1215 345 1213 C 343 1211 342 1205 342 1196 L 342 702 C 342 692 343 687 345 685 C 347 683 352 682 362 682 L 892 682 C 901 682 907 681 909 679 C 911 677 912 671 912 662 L 912 520 C 912 510 911 505 909 503 C 907 501 901 500 892 500 L 362 500 C 352 500 347 499 345 497 C 343 495 342 489 342 480 L 342 204 C 342 194 343 189 345 187 C 347 185 352 184 362 184 L 922 184 C 931 184 937 183 939 181 C 941 179 942 173 942 164 L 942 20 C 942 10 941 5 939 3 C 937 1 931 0 922 0 L 166 0 C 156 0 151 1 149 3 C 147 5 146 10 146 20 L 146 1380 L 146 1380 Z M 758 1522 C 727 1522 699 1533 675 1556 C 650 1578 638 1607 638 1642 C 638 1675 649 1704 673 1728 C 696 1752 724 1764 758 1764 C 790 1764 818 1751 842 1727 C 866 1702 878 1674 878 1644 C 878 1613 865 1585 841 1560 C 816 1534 788 1522 758 1522 Z M 346 1522 C 315 1522 287 1533 263 1556 C 238 1578 226 1607 226 1642 C 226 1675 238 1704 262 1728 C 286 1752 314 1764 346 1764 C 379 1764 407 1751 431 1727 C 454 1702 466 1674 466 1644 C 466 1613 454 1585 430 1560 C 406 1534 378 1522 346 1522 Z" unicode="" />
<glyph horiz-adv-x="484" d="M 144 1380 C 144 1389 145 1395 147 1397 C 149 1399 154 1400 164 1400 L 320 1400 C 329 1400 335 1399 337 1397 C 339 1395 340 1389 340 1380 L 340 20 C 340 10 339 5 337 3 C 335 1 329 0 320 0 L 164 0 C 154 0 149 1 147 3 C 145 5 144 10 144 20 L 144 1380 L 144 1380 Z M 362 1520 C 367 1513 370 1508 372 1505 C 373 1501 368 1500 358 1500 L 216 1500 C 208 1500 202 1501 198 1504 C 194 1506 188 1512 180 1520 L -62 1768 C -70 1777 -73 1783 -71 1785 C -69 1787 -63 1788 -54 1788 L 138 1788 C 146 1788 151 1786 155 1784 C 158 1781 163 1776 170 1768 L 362 1520 Z" unicode="" />
<glyph horiz-adv-x="484" d="M 144 1380 C 144 1389 145 1395 147 1397 C 149 1399 154 1400 164 1400 L 320 1400 C 329 1400 335 1399 337 1397 C 339 1395 340 1389 340 1380 L 340 20 C 340 10 339 5 337 3 C 335 1 329 0 320 0 L 164 0 C 154 0 149 1 147 3 C 145 5 144 10 144 20 L 144 1380 L 144 1380 Z M 318 1768 C 324 1776 329 1781 333 1784 C 336 1786 342 1788 350 1788 L 542 1788 C 551 1788 557 1787 559 1785 C 561 1783 558 1777 550 1768 L 308 1520 C 300 1512 294 1506 290 1504 C 286 1501 280 1500 272 1500 L 130 1500 C 119 1500 114 1501 116 1505 C 117 1508 120 1513 126 1520 L 318 1768 L 318 1768 Z" unicode="" />
<glyph horiz-adv-x="484" d="M 144 1380 C 144 1389 145 1395 147 1397 C 149 1399 154 1400 164 1400 L 320 1400 C 329 1400 335 1399 337 1397 C 339 1395 340 1389 340 1380 L 340 20 C 340 10 339 5 337 3 C 335 1 329 0 320 0 L 164 0 C 154 0 149 1 147 3 C 145 5 144 10 144 20 L 144 1380 L 144 1380 Z M 124 1768 C 136 1781 148 1788 162 1788 L 314 1788 C 330 1788 342 1781 352 1768 L 568 1520 C 572 1513 574 1508 574 1506 C 574 1502 570 1500 562 1500 L 438 1500 C 428 1500 422 1502 418 1506 C 414 1510 409 1514 404 1520 L 254 1670 C 251 1672 247 1674 242 1674 C 236 1674 232 1672 230 1670 L 84 1520 C 78 1514 74 1510 70 1506 C 66 1502 59 1500 50 1500 L -78 1500 C -86 1500 -90 1502 -90 1506 C -90 1508 -88 1513 -84 1520 L 124 1768 L 124 1768 Z" unicode="" />
<glyph horiz-adv-x="484" d="M 144 1380 C 144 1389 145 1395 147 1397 C 149 1399 154 1400 164 1400 L 320 1400 C 329 1400 335 1399 337 1397 C 339 1395 340 1389 340 1380 L 340 20 C 340 10 339 5 337 3 C 335 1 329 0 320 0 L 164 0 C 154 0 149 1 147 3 C 145 5 144 10 144 20 L 144 1380 L 144 1380 Z M 448 1522 C 417 1522 389 1533 365 1556 C 340 1578 328 1607 328 1642 C 328 1675 339 1704 363 1728 C 386 1752 414 1764 448 1764 C 480 1764 508 1751 532 1727 C 556 1702 568 1674 568 1644 C 568 1613 555 1585 531 1560 C 506 1534 478 1522 448 1522 Z M 36 1522 C 5 1522 -22 1533 -47 1556 C -71 1578 -84 1607 -84 1642 C -84 1675 -72 1704 -48 1728 C -24 1752 4 1764 36 1764 C 69 1764 97 1751 121 1727 C 144 1702 156 1674 156 1644 C 156 1613 144 1585 120 1560 C 96 1534 68 1522 36 1522 Z" unicode="" />
<glyph horiz-adv-x="1258" d="M 492 1400 C 577 1400 650 1391 711 1375 C 771 1358 825 1335 872 1306 C 969 1246 1042 1163 1092 1057 C 1141 951 1166 832 1166 700 C 1166 628 1157 558 1141 492 C 1124 425 1099 363 1067 307 C 1034 250 994 200 946 157 C 898 113 842 78 778 52 C 736 34 689 21 635 13 C 581 4 527 0 474 0 L 166 0 C 156 0 151 1 149 3 C 147 5 146 10 146 20 L 146 502 C 143 510 136 514 126 514 L 42 514 C 32 514 27 515 25 517 C 23 519 22 524 22 534 L 22 662 C 22 671 23 677 26 679 C 28 681 34 682 42 682 L 126 682 C 135 682 141 683 143 685 C 145 687 146 692 146 702 L 146 1380 C 146 1389 147 1395 149 1397 C 151 1399 156 1400 166 1400 L 492 1400 Z M 948 700 C 948 796 933 883 904 961 C 874 1039 828 1100 764 1146 C 730 1170 688 1188 636 1200 C 584 1212 530 1218 474 1218 L 362 1218 C 352 1218 347 1217 345 1215 C 343 1213 342 1207 342 1198 L 342 702 C 342 692 343 687 345 685 C 347 683 352 682 362 682 L 556 682 C 565 682 571 681 573 679 C 575 677 576 671 576 662 L 576 534 C 576 524 575 519 573 517 C 571 515 565 514 556 514 L 362 514 C 352 514 347 513 345 511 C 343 509 342 503 342 494 L 342 202 C 342 192 343 187 345 185 C 347 183 352 182 362 182 L 476 182 C 532 182 584 188 633 200 C 681 212 722 230 756 254 C 820 299 868 361 900 439 C 932 517 948 604 948 700 Z" unicode="" />
<glyph horiz-adv-x="1180" d="M 352 866 C 348 870 343 872 338 872 C 327 872 322 868 322 860 L 322 20 C 322 10 321 5 319 3 C 317 1 311 0 302 0 L 154 0 C 144 0 139 1 137 3 C 135 5 134 10 134 20 L 134 1416 C 134 1425 136 1430 140 1430 C 144 1430 148 1426 154 1420 L 828 534 C 832 530 836 528 842 528 C 852 528 858 532 858 540 L 858 1380 C 858 1389 859 1395 861 1397 C 863 1399 868 1400 878 1400 L 1026 1400 C 1035 1400 1041 1399 1043 1397 C 1045 1395 1046 1389 1046 1380 L 1046 -16 C 1046 -25 1044 -30 1040 -30 C 1037 -30 1032 -26 1026 -20 L 352 866 L 352 866 Z M 304 1524 C 294 1524 289 1525 287 1528 C 285 1530 284 1536 284 1544 L 284 1572 C 284 1625 300 1671 332 1710 C 364 1748 410 1768 470 1768 C 511 1768 544 1762 569 1750 C 593 1738 614 1724 631 1709 C 647 1693 663 1680 677 1668 C 691 1656 708 1650 730 1650 C 748 1650 764 1656 778 1668 C 791 1680 798 1697 798 1720 L 798 1742 C 798 1750 799 1755 801 1758 C 803 1760 808 1762 818 1762 L 906 1762 C 915 1762 921 1760 923 1758 C 925 1755 926 1750 926 1742 L 926 1712 C 926 1658 911 1613 882 1575 C 852 1537 808 1518 748 1518 C 705 1518 671 1524 646 1536 C 620 1548 599 1561 582 1577 C 564 1592 548 1606 534 1618 C 519 1630 501 1636 480 1636 C 461 1636 445 1629 432 1617 C 418 1604 412 1586 412 1564 L 412 1544 C 412 1536 411 1530 409 1528 C 407 1525 401 1524 392 1524 L 304 1524 L 304 1524 Z" unicode="" />
<glyph horiz-adv-x="1584" d="M 1492 700 C 1492 601 1474 508 1438 422 C 1402 335 1352 259 1289 193 C 1225 127 1151 75 1066 37 C 980 -1 889 -20 792 -20 C 693 -20 601 -1 517 37 C 432 75 358 127 295 193 C 231 259 182 335 146 422 C 110 508 92 601 92 700 C 92 797 110 889 146 977 C 182 1064 231 1141 295 1207 C 358 1273 432 1325 517 1363 C 601 1401 693 1420 792 1420 C 889 1420 980 1401 1066 1363 C 1151 1325 1225 1273 1289 1207 C 1352 1141 1402 1064 1438 977 C 1474 889 1492 797 1492 700 Z M 308 700 C 308 629 320 562 344 498 C 368 434 401 378 444 330 C 486 282 537 244 597 216 C 656 188 721 174 792 174 C 862 174 927 188 987 216 C 1046 244 1097 282 1140 330 C 1182 378 1216 434 1240 498 C 1264 562 1276 629 1276 700 C 1276 770 1264 838 1240 902 C 1216 966 1182 1022 1140 1070 C 1097 1118 1046 1156 987 1184 C 927 1212 862 1226 792 1226 C 721 1226 656 1212 597 1184 C 537 1156 486 1118 444 1070 C 401 1022 368 966 344 902 C 320 838 308 770 308 700 Z M 936 1520 C 941 1513 944 1508 946 1505 C 947 1501 942 1500 932 1500 L 790 1500 C 782 1500 776 1501 772 1504 C 768 1506 762 1512 754 1520 L 512 1768 C 504 1777 501 1783 503 1785 C 505 1787 510 1788 520 1788 L 712 1788 C 720 1788 725 1786 729 1784 C 732 1781 737 1776 744 1768 L 936 1520 Z" unicode="" />
<glyph horiz-adv-x="1584" d="M 1492 700 C 1492 601 1474 508 1438 422 C 1402 335 1352 259 1289 193 C 1225 127 1151 75 1066 37 C 980 -1 889 -20 792 -20 C 693 -20 601 -1 517 37 C 432 75 358 127 295 193 C 231 259 182 335 146 422 C 110 508 92 601 92 700 C 92 797 110 889 146 977 C 182 1064 231 1141 295 1207 C 358 1273 432 1325 517 1363 C 601 1401 693 1420 792 1420 C 889 1420 980 1401 1066 1363 C 1151 1325 1225 1273 1289 1207 C 1352 1141 1402 1064 1438 977 C 1474 889 1492 797 1492 700 Z M 308 700 C 308 629 320 562 344 498 C 368 434 401 378 444 330 C 486 282 537 244 597 216 C 656 188 721 174 792 174 C 862 174 927 188 987 216 C 1046 244 1097 282 1140 330 C 1182 378 1216 434 1240 498 C 1264 562 1276 629 1276 700 C 1276 770 1264 838 1240 902 C 1216 966 1182 1022 1140 1070 C 1097 1118 1046 1156 987 1184 C 927 1212 862 1226 792 1226 C 721 1226 656 1212 597 1184 C 537 1156 486 1118 444 1070 C 401 1022 368 966 344 902 C 320 838 308 770 308 700 Z M 866 1768 C 872 1776 877 1781 881 1784 C 884 1786 890 1788 898 1788 L 1090 1788 C 1099 1788 1105 1787 1107 1785 C 1109 1783 1106 1777 1098 1768 L 856 1520 C 848 1512 842 1506 838 1504 C 834 1501 828 1500 820 1500 L 678 1500 C 667 1500 662 1501 664 1505 C 665 1508 668 1513 674 1520 L 866 1768 L 866 1768 Z" unicode="" />
<glyph horiz-adv-x="1584" d="M 1492 700 C 1492 601 1474 508 1438 422 C 1402 335 1352 259 1289 193 C 1225 127 1151 75 1066 37 C 980 -1 889 -20 792 -20 C 693 -20 601 -1 517 37 C 432 75 358 127 295 193 C 231 259 182 335 146 422 C 110 508 92 601 92 700 C 92 797 110 889 146 977 C 182 1064 231 1141 295 1207 C 358 1273 432 1325 517 1363 C 601 1401 693 1420 792 1420 C 889 1420 980 1401 1066 1363 C 1151 1325 1225 1273 1289 1207 C 1352 1141 1402 1064 1438 977 C 1474 889 1492 797 1492 700 Z M 308 700 C 308 629 320 562 344 498 C 368 434 401 378 444 330 C 486 282 537 244 597 216 C 656 188 721 174 792 174 C 862 174 927 188 987 216 C 1046 244 1097 282 1140 330 C 1182 378 1216 434 1240 498 C 1264 562 1276 629 1276 700 C 1276 770 1264 838 1240 902 C 1216 966 1182 1022 1140 1070 C 1097 1118 1046 1156 987 1184 C 927 1212 862 1226 792 1226 C 721 1226 656 1212 597 1184 C 537 1156 486 1118 444 1070 C 401 1022 368 966 344 902 C 320 838 308 770 308 700 Z M 674 1768 C 686 1781 698 1788 712 1788 L 864 1788 C 880 1788 892 1781 902 1768 L 1118 1520 C 1122 1513 1124 1508 1124 1506 C 1124 1502 1120 1500 1112 1500 L 988 1500 C 978 1500 972 1502 968 1506 C 964 1510 959 1514 954 1520 L 804 1670 C 801 1672 797 1674 792 1674 C 786 1674 782 1672 780 1670 L 634 1520 C 628 1514 624 1510 620 1506 C 616 1502 609 1500 600 1500 L 472 1500 C 464 1500 460 1502 460 1506 C 460 1508 462 1513 466 1520 L 674 1768 L 674 1768 Z" unicode="" />
<glyph horiz-adv-x="1584" d="M 1492 700 C 1492 601 1474 508 1438 422 C 1402 335 1352 259 1289 193 C 1225 127 1151 75 1066 37 C 980 -1 889 -20 792 -20 C 693 -20 601 -1 517 37 C 432 75 358 127 295 193 C 231 259 182 335 146 422 C 110 508 92 601 92 700 C 92 797 110 889 146 977 C 182 1064 231 1141 295 1207 C 358 1273 432 1325 517 1363 C 601 1401 693 1420 792 1420 C 889 1420 980 1401 1066 1363 C 1151 1325 1225 1273 1289 1207 C 1352 1141 1402 1064 1438 977 C 1474 889 1492 797 1492 700 Z M 308 700 C 308 629 320 562 344 498 C 368 434 401 378 444 330 C 486 282 537 244 597 216 C 656 188 721 174 792 174 C 862 174 927 188 987 216 C 1046 244 1097 282 1140 330 C 1182 378 1216 434 1240 498 C 1264 562 1276 629 1276 700 C 1276 770 1264 838 1240 902 C 1216 966 1182 1022 1140 1070 C 1097 1118 1046 1156 987 1184 C 927 1212 862 1226 792 1226 C 721 1226 656 1212 597 1184 C 537 1156 486 1118 444 1070 C 401 1022 368 966 344 902 C 320 838 308 770 308 700 Z M 492 1524 C 482 1524 477 1525 475 1528 C 473 1530 472 1536 472 1544 L 472 1572 C 472 1625 488 1671 520 1710 C 552 1748 598 1768 658 1768 C 699 1768 732 1762 757 1750 C 781 1738 802 1724 819 1709 C 835 1693 851 1680 865 1668 C 879 1656 896 1650 918 1650 C 936 1650 952 1656 966 1668 C 979 1680 986 1697 986 1720 L 986 1742 C 986 1750 987 1755 989 1758 C 991 1760 996 1762 1006 1762 L 1094 1762 C 1103 1762 1109 1760 1111 1758 C 1113 1755 1114 1750 1114 1742 L 1114 1712 C 1114 1658 1099 1613 1070 1575 C 1040 1537 996 1518 936 1518 C 893 1518 859 1524 834 1536 C 808 1548 787 1561 770 1577 C 752 1592 736 1606 722 1618 C 707 1630 689 1636 668 1636 C 649 1636 633 1629 620 1617 C 606 1604 600 1586 600 1564 L 600 1544 C 600 1536 599 1530 597 1528 C 595 1525 589 1524 580 1524 L 492 1524 L 492 1524 Z" unicode="" />
<glyph horiz-adv-x="1584" d="M 1492 700 C 1492 601 1474 508 1438 422 C 1402 335 1352 259 1289 193 C 1225 127 1151 75 1066 37 C 980 -1 889 -20 792 -20 C 693 -20 601 -1 517 37 C 432 75 358 127 295 193 C 231 259 182 335 146 422 C 110 508 92 601 92 700 C 92 797 110 889 146 977 C 182 1064 231 1141 295 1207 C 358 1273 432 1325 517 1363 C 601 1401 693 1420 792 1420 C 889 1420 980 1401 1066 1363 C 1151 1325 1225 1273 1289 1207 C 1352 1141 1402 1064 1438 977 C 1474 889 1492 797 1492 700 Z M 308 700 C 308 629 320 562 344 498 C 368 434 401 378 444 330 C 486 282 537 244 597 216 C 656 188 721 174 792 174 C 862 174 927 188 987 216 C 1046 244 1097 282 1140 330 C 1182 378 1216 434 1240 498 C 1264 562 1276 629 1276 700 C 1276 770 1264 838 1240 902 C 1216 966 1182 1022 1140 1070 C 1097 1118 1046 1156 987 1184 C 927 1212 862 1226 792 1226 C 721 1226 656 1212 597 1184 C 537 1156 486 1118 444 1070 C 401 1022 368 966 344 902 C 320 838 308 770 308 700 Z M 998 1522 C 967 1522 939 1533 915 1556 C 890 1578 878 1607 878 1642 C 878 1675 889 1704 913 1728 C 936 1752 964 1764 998 1764 C 1030 1764 1058 1751 1082 1727 C 1106 1702 1118 1674 1118 1644 C 1118 1613 1105 1585 1081 1560 C 1056 1534 1028 1522 998 1522 Z M 586 1522 C 555 1522 527 1533 503 1556 C 478 1578 466 1607 466 1642 C 466 1675 478 1704 502 1728 C 526 1752 554 1764 586 1764 C 619 1764 647 1751 671 1727 C 694 1702 706 1674 706 1644 C 706 1613 694 1585 670 1560 C 646 1534 618 1522 586 1522 Z" unicode="" />
<glyph horiz-adv-x="1000" d="M 486 590 C 492 583 497 580 500 580 C 502 580 507 583 514 590 L 768 844 C 774 850 779 854 782 854 C 784 854 789 850 796 844 L 870 770 C 876 763 880 758 880 756 C 880 753 876 748 870 742 L 616 488 C 609 481 606 476 606 474 C 606 471 609 466 616 460 L 870 206 C 876 199 880 194 880 192 C 880 189 876 184 870 178 L 796 104 C 789 97 784 94 782 94 C 779 94 774 97 768 104 L 514 358 C 508 363 504 366 500 366 C 496 366 491 363 486 358 L 232 104 C 225 97 220 94 216 94 C 212 94 208 97 204 104 L 130 178 C 123 182 120 186 120 190 C 120 194 123 199 130 206 L 384 460 C 389 465 392 470 392 474 C 392 478 389 482 384 488 L 130 742 C 123 748 120 753 120 756 C 120 758 123 763 130 770 L 204 844 C 210 850 215 854 218 854 C 220 854 225 850 232 844 L 486 590 Z" unicode="" />
<glyph horiz-adv-x="1584" d="M 242 252 C 195 316 158 385 132 461 C 105 536 92 616 92 700 C 92 797 110 889 146 977 C 182 1064 231 1141 295 1207 C 358 1273 432 1325 517 1363 C 601 1401 693 1420 792 1420 C 880 1420 961 1405 1037 1375 C 1112 1345 1180 1304 1242 1252 L 1378 1388 C 1382 1392 1386 1394 1390 1394 C 1394 1394 1398 1392 1402 1388 L 1480 1310 C 1484 1306 1486 1302 1486 1298 C 1486 1294 1484 1290 1480 1286 L 1340 1146 C 1388 1084 1425 1016 1452 940 C 1478 864 1492 784 1492 700 C 1492 601 1474 508 1438 422 C 1402 335 1352 259 1289 193 C 1225 127 1151 75 1066 37 C 980 -1 889 -20 792 -20 C 704 -20 622 -5 546 24 C 470 53 402 94 342 148 L 206 12 C 202 8 198 6 194 6 C 190 6 186 8 182 12 L 104 90 C 100 94 98 98 98 102 C 98 106 100 110 104 114 L 242 252 Z M 1200 988 C 1197 992 1194 994 1192 994 C 1189 994 1186 992 1182 988 L 494 300 C 490 296 488 293 488 292 C 488 289 490 286 494 282 C 576 210 676 174 792 174 C 862 174 927 188 987 216 C 1046 244 1097 282 1140 330 C 1182 378 1216 434 1240 498 C 1264 562 1276 629 1276 700 C 1276 805 1250 901 1200 988 Z M 1090 1100 C 1094 1104 1096 1106 1096 1108 C 1096 1110 1094 1114 1090 1118 C 1007 1190 908 1226 792 1226 C 721 1226 656 1212 597 1184 C 537 1156 486 1118 444 1070 C 401 1022 368 966 344 902 C 320 838 308 770 308 700 C 308 646 314 596 328 548 C 341 500 360 454 384 412 C 385 408 388 406 392 406 C 394 406 398 408 402 412 L 1090 1100 Z" unicode="" />
<glyph horiz-adv-x="1236" d="M 894 1380 C 894 1389 895 1395 897 1397 C 899 1399 904 1400 914 1400 L 1072 1400 C 1081 1400 1087 1399 1089 1397 C 1091 1395 1092 1389 1092 1380 L 1092 438 C 1092 362 1080 295 1057 238 C 1033 180 1001 133 959 95 C 917 57 867 28 809 9 C 751 -10 688 -20 620 -20 C 552 -20 488 -10 430 9 C 371 28 321 57 279 95 C 237 133 204 180 180 238 C 156 295 144 362 144 438 L 144 1380 C 144 1389 145 1395 147 1397 C 149 1399 154 1400 164 1400 L 322 1400 C 331 1400 337 1399 339 1397 C 341 1395 342 1389 342 1380 L 342 476 C 342 418 348 370 361 332 C 373 293 392 262 416 238 C 440 214 469 196 504 186 C 538 175 577 170 620 170 C 664 170 703 175 737 186 C 771 196 799 214 823 238 C 846 262 864 293 876 332 C 888 370 894 418 894 476 L 894 1380 L 894 1380 Z M 756 1520 C 761 1513 764 1508 766 1505 C 767 1501 762 1500 752 1500 L 610 1500 C 602 1500 596 1501 592 1504 C 588 1506 582 1512 574 1520 L 332 1768 C 324 1777 321 1783 323 1785 C 325 1787 330 1788 340 1788 L 532 1788 C 540 1788 545 1786 549 1784 C 552 1781 557 1776 564 1768 L 756 1520 Z" unicode="" />
<glyph horiz-adv-x="1236" d="M 894 1380 C 894 1389 895 1395 897 1397 C 899 1399 904 1400 914 1400 L 1072 1400 C 1081 1400 1087 1399 1089 1397 C 1091 1395 1092 1389 1092 1380 L 1092 438 C 1092 362 1080 295 1057 238 C 1033 180 1001 133 959 95 C 917 57 867 28 809 9 C 751 -10 688 -20 620 -20 C 552 -20 488 -10 430 9 C 371 28 321 57 279 95 C 237 133 204 180 180 238 C 156 295 144 362 144 438 L 144 1380 C 144 1389 145 1395 147 1397 C 149 1399 154 1400 164 1400 L 322 1400 C 331 1400 337 1399 339 1397 C 341 1395 342 1389 342 1380 L 342 476 C 342 418 348 370 361 332 C 373 293 392 262 416 238 C 440 214 469 196 504 186 C 538 175 577 170 620 170 C 664 170 703 175 737 186 C 771 196 799 214 823 238 C 846 262 864 293 876 332 C 888 370 894 418 894 476 L 894 1380 L 894 1380 Z M 668 1768 C 674 1776 679 1781 683 1784 C 686 1786 692 1788 700 1788 L 892 1788 C 901 1788 907 1787 909 1785 C 911 1783 908 1777 900 1768 L 658 1520 C 650 1512 644 1506 640 1504 C 636 1501 630 1500 622 1500 L 480 1500 C 469 1500 464 1501 466 1505 C 467 1508 470 1513 476 1520 L 668 1768 L 668 1768 Z" unicode="" />
<glyph horiz-adv-x="1236" d="M 894 1380 C 894 1389 895 1395 897 1397 C 899 1399 904 1400 914 1400 L 1072 1400 C 1081 1400 1087 1399 1089 1397 C 1091 1395 1092 1389 1092 1380 L 1092 438 C 1092 362 1080 295 1057 238 C 1033 180 1001 133 959 95 C 917 57 867 28 809 9 C 751 -10 688 -20 620 -20 C 552 -20 488 -10 430 9 C 371 28 321 57 279 95 C 237 133 204 180 180 238 C 156 295 144 362 144 438 L 144 1380 C 144 1389 145 1395 147 1397 C 149 1399 154 1400 164 1400 L 322 1400 C 331 1400 337 1399 339 1397 C 341 1395 342 1389 342 1380 L 342 476 C 342 418 348 370 361 332 C 373 293 392 262 416 238 C 440 214 469 196 504 186 C 538 175 577 170 620 170 C 664 170 703 175 737 186 C 771 196 799 214 823 238 C 846 262 864 293 876 332 C 888 370 894 418 894 476 L 894 1380 L 894 1380 Z M 500 1768 C 512 1781 524 1788 538 1788 L 690 1788 C 706 1788 718 1781 728 1768 L 944 1520 C 948 1513 950 1508 950 1506 C 950 1502 946 1500 938 1500 L 814 1500 C 804 1500 798 1502 794 1506 C 790 1510 785 1514 780 1520 L 630 1670 C 627 1672 623 1674 618 1674 C 612 1674 608 1672 606 1670 L 460 1520 C 454 1514 450 1510 446 1506 C 442 1502 435 1500 426 1500 L 298 1500 C 290 1500 286 1502 286 1506 C 286 1508 288 1513 292 1520 L 500 1768 L 500 1768 Z" unicode="" />
<glyph horiz-adv-x="1236" d="M 894 1380 C 894 1389 895 1395 897 1397 C 899 1399 904 1400 914 1400 L 1072 1400 C 1081 1400 1087 1399 1089 1397 C 1091 1395 1092 1389 1092 1380 L 1092 438 C 1092 362 1080 295 1057 238 C 1033 180 1001 133 959 95 C 917 57 867 28 809 9 C 751 -10 688 -20 620 -20 C 552 -20 488 -10 430 9 C 371 28 321 57 279 95 C 237 133 204 180 180 238 C 156 295 144 362 144 438 L 144 1380 C 144 1389 145 1395 147 1397 C 149 1399 154 1400 164 1400 L 322 1400 C 331 1400 337 1399 339 1397 C 341 1395 342 1389 342 1380 L 342 476 C 342 418 348 370 361 332 C 373 293 392 262 416 238 C 440 214 469 196 504 186 C 538 175 577 170 620 170 C 664 170 703 175 737 186 C 771 196 799 214 823 238 C 846 262 864 293 876 332 C 888 370 894 418 894 476 L 894 1380 L 894 1380 Z M 824 1522 C 793 1522 765 1533 741 1556 C 716 1578 704 1607 704 1642 C 704 1675 715 1704 739 1728 C 762 1752 790 1764 824 1764 C 856 1764 884 1751 908 1727 C 932 1702 944 1674 944 1644 C 944 1613 931 1585 907 1560 C 882 1534 854 1522 824 1522 Z M 412 1522 C 381 1522 353 1533 329 1556 C 304 1578 292 1607 292 1642 C 292 1675 304 1704 328 1728 C 352 1752 380 1764 412 1764 C 445 1764 473 1751 497 1727 C 520 1702 532 1674 532 1644 C 532 1613 520 1585 496 1560 C 472 1534 444 1522 412 1522 Z" unicode="" />
<glyph horiz-adv-x="1096" d="M 28 1380 C 25 1388 24 1392 24 1392 C 24 1397 28 1400 36 1400 L 234 1400 C 246 1400 254 1393 260 1380 L 538 926 C 539 922 542 920 548 920 C 552 920 555 922 558 926 L 838 1380 C 843 1389 847 1395 850 1397 C 852 1399 857 1400 864 1400 L 1060 1400 C 1068 1400 1072 1397 1072 1392 C 1072 1392 1070 1388 1068 1380 L 646 706 L 646 20 C 646 10 645 5 643 3 C 641 1 635 0 626 0 L 470 0 C 460 0 455 1 453 3 C 451 5 450 10 450 20 L 450 706 L 28 1380 Z M 602 1768 C 608 1776 613 1781 617 1784 C 620 1786 626 1788 634 1788 L 826 1788 C 835 1788 841 1787 843 1785 C 845 1783 842 1777 834 1768 L 592 1520 C 584 1512 578 1506 574 1504 C 570 1501 564 1500 556 1500 L 414 1500 C 403 1500 398 1501 400 1505 C 401 1508 404 1513 410 1520 L 602 1768 L 602 1768 Z" unicode="" />
<glyph horiz-adv-x="1052" d="M 318 1400 C 327 1400 333 1399 335 1397 C 337 1395 338 1389 338 1380 L 338 1156 C 338 1146 339 1141 341 1139 C 343 1137 348 1136 358 1136 L 534 1136 C 602 1136 663 1124 717 1102 C 771 1079 816 1048 854 1009 C 891 969 920 923 940 870 C 960 816 970 760 970 700 C 970 640 960 583 940 530 C 920 476 891 430 854 392 C 816 353 771 322 717 300 C 663 277 602 266 534 266 L 358 266 C 348 266 343 265 341 263 C 339 261 338 255 338 246 L 338 20 C 338 10 337 5 335 3 C 333 1 327 0 318 0 L 162 0 C 152 0 147 1 145 3 C 143 5 142 10 142 20 L 142 1380 C 142 1389 143 1395 145 1397 C 147 1399 152 1400 162 1400 L 318 1400 Z M 358 954 C 348 954 343 953 341 951 C 339 949 338 943 338 934 L 338 468 C 338 458 339 453 341 451 C 343 449 348 448 358 448 L 542 448 C 576 448 607 454 635 468 C 662 481 685 499 704 522 C 722 544 737 571 747 602 C 757 632 762 665 762 700 C 762 734 757 767 747 798 C 737 828 722 855 704 879 C 685 902 662 920 635 934 C 607 947 576 954 542 954 L 358 954 Z" unicode="" />
<glyph horiz-adv-x="1090" d="M 300 20 C 300 12 299 6 297 4 C 295 1 289 0 280 0 L 144 0 C 134 0 129 1 127 4 C 125 6 124 12 124 20 L 124 1154 C 124 1218 133 1273 152 1321 C 170 1368 197 1407 231 1439 C 265 1470 305 1493 351 1508 C 397 1522 447 1530 502 1530 C 556 1530 606 1521 652 1505 C 697 1488 736 1464 769 1433 C 801 1401 827 1363 845 1319 C 863 1274 872 1223 872 1166 C 872 1138 867 1111 859 1085 C 850 1059 839 1034 826 1011 C 812 987 797 966 781 947 C 764 927 748 910 734 896 C 731 893 730 890 730 888 C 730 884 733 880 740 878 C 773 864 806 847 839 826 C 871 804 900 777 926 744 C 951 710 971 670 987 624 C 1002 577 1010 522 1010 458 C 1010 391 1000 329 980 271 C 960 213 929 162 889 120 C 848 77 797 43 737 18 C 676 -7 605 -20 524 -20 L 496 -20 C 486 -20 481 -18 479 -16 C 477 -13 476 -8 476 0 L 476 120 C 476 128 477 133 479 136 C 481 138 486 140 496 140 L 524 140 C 624 140 699 168 750 224 C 800 280 826 358 826 458 C 826 526 813 584 788 634 C 762 683 715 720 646 746 C 630 752 608 757 581 760 C 553 762 528 764 504 764 L 466 764 C 456 764 451 765 449 768 C 447 770 446 776 446 784 L 446 904 C 446 912 447 917 449 920 C 451 922 456 924 466 924 L 530 924 C 552 928 574 938 594 954 C 614 970 631 989 647 1012 C 662 1034 674 1059 683 1087 C 691 1114 696 1141 696 1168 C 696 1228 678 1276 644 1314 C 609 1351 562 1370 502 1370 C 442 1370 393 1353 356 1319 C 318 1285 300 1224 300 1136 L 300 20 L 300 20 Z" unicode="" />
<glyph horiz-adv-x="932" d="M 640 302 C 640 323 634 342 623 360 C 611 377 596 392 578 405 C 559 417 537 427 513 434 C 488 440 462 444 434 444 C 374 444 326 429 290 400 C 254 370 236 332 236 286 C 236 238 253 199 288 169 C 322 139 371 124 434 124 C 462 124 488 129 514 140 C 539 150 561 164 580 181 C 598 197 613 216 624 238 C 634 259 640 280 640 302 Z M 64 280 C 64 328 73 371 91 409 C 109 447 133 479 164 505 C 194 531 230 550 271 564 C 311 577 354 584 400 584 C 456 584 503 576 542 560 C 580 544 609 528 628 514 C 629 512 632 512 636 512 C 641 512 644 516 644 526 L 644 572 C 644 628 627 671 594 701 C 560 731 508 746 436 746 C 382 746 338 738 303 723 C 267 707 242 694 228 682 C 224 678 219 676 214 676 C 208 676 206 681 206 692 L 206 814 C 206 823 211 831 222 838 C 247 855 280 869 321 879 C 361 889 405 894 452 894 C 529 894 591 884 639 865 C 686 845 723 820 749 790 C 775 759 792 725 802 687 C 811 649 816 611 816 574 L 816 20 C 816 12 815 6 813 4 C 811 1 805 0 796 0 L 670 0 C 660 0 655 1 653 4 C 651 6 650 12 650 20 L 650 88 C 650 90 647 92 642 92 C 638 92 635 91 634 90 C 606 55 571 28 531 9 C 490 -10 446 -20 400 -20 C 356 -20 314 -13 274 -1 C 234 11 198 30 167 55 C 135 79 110 110 92 148 C 73 185 64 229 64 280 Z M 602 1032 C 607 1025 610 1020 612 1017 C 613 1013 608 1012 598 1012 L 456 1012 C 448 1012 442 1013 438 1016 C 434 1018 428 1024 420 1032 L 178 1280 C 170 1289 167 1295 169 1297 C 171 1299 176 1300 186 1300 L 378 1300 C 386 1300 391 1298 395 1296 C 398 1293 403 1288 410 1280 L 602 1032 Z" unicode="" />
<glyph horiz-adv-x="932" d="M 640 302 C 640 323 634 342 623 360 C 611 377 596 392 578 405 C 559 417 537 427 513 434 C 488 440 462 444 434 444 C 374 444 326 429 290 400 C 254 370 236 332 236 286 C 236 238 253 199 288 169 C 322 139 371 124 434 124 C 462 124 488 129 514 140 C 539 150 561 164 580 181 C 598 197 613 216 624 238 C 634 259 640 280 640 302 Z M 64 280 C 64 328 73 371 91 409 C 109 447 133 479 164 505 C 194 531 230 550 271 564 C 311 577 354 584 400 584 C 456 584 503 576 542 560 C 580 544 609 528 628 514 C 629 512 632 512 636 512 C 641 512 644 516 644 526 L 644 572 C 644 628 627 671 594 701 C 560 731 508 746 436 746 C 382 746 338 738 303 723 C 267 707 242 694 228 682 C 224 678 219 676 214 676 C 208 676 206 681 206 692 L 206 814 C 206 823 211 831 222 838 C 247 855 280 869 321 879 C 361 889 405 894 452 894 C 529 894 591 884 639 865 C 686 845 723 820 749 790 C 775 759 792 725 802 687 C 811 649 816 611 816 574 L 816 20 C 816 12 815 6 813 4 C 811 1 805 0 796 0 L 670 0 C 660 0 655 1 653 4 C 651 6 650 12 650 20 L 650 88 C 650 90 647 92 642 92 C 638 92 635 91 634 90 C 606 55 571 28 531 9 C 490 -10 446 -20 400 -20 C 356 -20 314 -13 274 -1 C 234 11 198 30 167 55 C 135 79 110 110 92 148 C 73 185 64 229 64 280 Z M 538 1280 C 544 1288 549 1293 553 1296 C 556 1298 562 1300 570 1300 L 762 1300 C 771 1300 777 1299 779 1297 C 781 1295 778 1289 770 1280 L 528 1032 C 520 1024 514 1018 510 1016 C 506 1013 500 1012 492 1012 L 350 1012 C 339 1012 334 1013 336 1017 C 337 1020 340 1025 346 1032 L 538 1280 L 538 1280 Z" unicode="" />
<glyph horiz-adv-x="932" d="M 640 302 C 640 323 634 342 623 360 C 611 377 596 392 578 405 C 559 417 537 427 513 434 C 488 440 462 444 434 444 C 374 444 326 429 290 400 C 254 370 236 332 236 286 C 236 238 253 199 288 169 C 322 139 371 124 434 124 C 462 124 488 129 514 140 C 539 150 561 164 580 181 C 598 197 613 216 624 238 C 634 259 640 280 640 302 Z M 64 280 C 64 328 73 371 91 409 C 109 447 133 479 164 505 C 194 531 230 550 271 564 C 311 577 354 584 400 584 C 456 584 503 576 542 560 C 580 544 609 528 628 514 C 629 512 632 512 636 512 C 641 512 644 516 644 526 L 644 572 C 644 628 627 671 594 701 C 560 731 508 746 436 746 C 382 746 338 738 303 723 C 267 707 242 694 228 682 C 224 678 219 676 214 676 C 208 676 206 681 206 692 L 206 814 C 206 823 211 831 222 838 C 247 855 280 869 321 879 C 361 889 405 894 452 894 C 529 894 591 884 639 865 C 686 845 723 820 749 790 C 775 759 792 725 802 687 C 811 649 816 611 816 574 L 816 20 C 816 12 815 6 813 4 C 811 1 805 0 796 0 L 670 0 C 660 0 655 1 653 4 C 651 6 650 12 650 20 L 650 88 C 650 90 647 92 642 92 C 638 92 635 91 634 90 C 606 55 571 28 531 9 C 490 -10 446 -20 400 -20 C 356 -20 314 -13 274 -1 C 234 11 198 30 167 55 C 135 79 110 110 92 148 C 73 185 64 229 64 280 Z M 360 1280 C 372 1293 384 1300 398 1300 L 550 1300 C 566 1300 578 1293 588 1280 L 804 1032 C 808 1025 810 1020 810 1018 C 810 1014 806 1012 798 1012 L 674 1012 C 664 1012 658 1014 654 1018 C 650 1022 645 1026 640 1032 L 490 1182 C 487 1184 483 1186 478 1186 C 472 1186 468 1184 466 1182 L 320 1032 C 314 1026 310 1022 306 1018 C 302 1014 295 1012 286 1012 L 158 1012 C 150 1012 146 1014 146 1018 C 146 1020 148 1025 152 1032 L 360 1280 L 360 1280 Z" unicode="" />
<glyph horiz-adv-x="932" d="M 640 302 C 640 323 634 342 623 360 C 611 377 596 392 578 405 C 559 417 537 427 513 434 C 488 440 462 444 434 444 C 374 444 326 429 290 400 C 254 370 236 332 236 286 C 236 238 253 199 288 169 C 322 139 371 124 434 124 C 462 124 488 129 514 140 C 539 150 561 164 580 181 C 598 197 613 216 624 238 C 634 259 640 280 640 302 Z M 64 280 C 64 328 73 371 91 409 C 109 447 133 479 164 505 C 194 531 230 550 271 564 C 311 577 354 584 400 584 C 456 584 503 576 542 560 C 580 544 609 528 628 514 C 629 512 632 512 636 512 C 641 512 644 516 644 526 L 644 572 C 644 628 627 671 594 701 C 560 731 508 746 436 746 C 382 746 338 738 303 723 C 267 707 242 694 228 682 C 224 678 219 676 214 676 C 208 676 206 681 206 692 L 206 814 C 206 823 211 831 222 838 C 247 855 280 869 321 879 C 361 889 405 894 452 894 C 529 894 591 884 639 865 C 686 845 723 820 749 790 C 775 759 792 725 802 687 C 811 649 816 611 816 574 L 816 20 C 816 12 815 6 813 4 C 811 1 805 0 796 0 L 670 0 C 660 0 655 1 653 4 C 651 6 650 12 650 20 L 650 88 C 650 90 647 92 642 92 C 638 92 635 91 634 90 C 606 55 571 28 531 9 C 490 -10 446 -20 400 -20 C 356 -20 314 -13 274 -1 C 234 11 198 30 167 55 C 135 79 110 110 92 148 C 73 185 64 229 64 280 Z M 194 1036 C 184 1036 179 1037 177 1040 C 175 1042 174 1048 174 1056 L 174 1084 C 174 1137 190 1183 222 1222 C 254 1260 300 1280 360 1280 C 401 1280 434 1274 459 1262 C 483 1250 504 1236 521 1221 C 537 1205 553 1192 567 1180 C 581 1168 598 1162 620 1162 C 638 1162 654 1168 668 1180 C 681 1192 688 1209 688 1232 L 688 1254 C 688 1262 689 1267 691 1270 C 693 1272 698 1274 708 1274 L 796 1274 C 805 1274 811 1272 813 1270 C 815 1267 816 1262 816 1254 L 816 1224 C 816 1170 801 1125 772 1087 C 742 1049 698 1030 638 1030 C 595 1030 561 1036 536 1048 C 510 1060 489 1073 472 1089 C 454 1104 438 1118 424 1130 C 409 1142 391 1148 370 1148 C 351 1148 335 1141 322 1129 C 308 1116 302 1098 302 1076 L 302 1056 C 302 1048 301 1042 299 1040 C 297 1037 291 1036 282 1036 L 194 1036 L 194 1036 Z" unicode="" />
<glyph horiz-adv-x="932" d="M 640 302 C 640 323 634 342 623 360 C 611 377 596 392 578 405 C 559 417 537 427 513 434 C 488 440 462 444 434 444 C 374 444 326 429 290 400 C 254 370 236 332 236 286 C 236 238 253 199 288 169 C 322 139 371 124 434 124 C 462 124 488 129 514 140 C 539 150 561 164 580 181 C 598 197 613 216 624 238 C 634 259 640 280 640 302 Z M 64 280 C 64 328 73 371 91 409 C 109 447 133 479 164 505 C 194 531 230 550 271 564 C 311 577 354 584 400 584 C 456 584 503 576 542 560 C 580 544 609 528 628 514 C 629 512 632 512 636 512 C 641 512 644 516 644 526 L 644 572 C 644 628 627 671 594 701 C 560 731 508 746 436 746 C 382 746 338 738 303 723 C 267 707 242 694 228 682 C 224 678 219 676 214 676 C 208 676 206 681 206 692 L 206 814 C 206 823 211 831 222 838 C 247 855 280 869 321 879 C 361 889 405 894 452 894 C 529 894 591 884 639 865 C 686 845 723 820 749 790 C 775 759 792 725 802 687 C 811 649 816 611 816 574 L 816 20 C 816 12 815 6 813 4 C 811 1 805 0 796 0 L 670 0 C 660 0 655 1 653 4 C 651 6 650 12 650 20 L 650 88 C 650 90 647 92 642 92 C 638 92 635 91 634 90 C 606 55 571 28 531 9 C 490 -10 446 -20 400 -20 C 356 -20 314 -13 274 -1 C 234 11 198 30 167 55 C 135 79 110 110 92 148 C 73 185 64 229 64 280 Z M 700 1036 C 669 1036 641 1047 617 1070 C 592 1092 580 1121 580 1156 C 580 1189 591 1218 615 1242 C 638 1266 666 1278 700 1278 C 732 1278 760 1265 784 1241 C 808 1216 820 1188 820 1158 C 820 1127 807 1099 783 1074 C 758 1048 730 1036 700 1036 Z M 288 1036 C 257 1036 229 1047 205 1070 C 180 1092 168 1121 168 1156 C 168 1189 180 1218 204 1242 C 228 1266 256 1278 288 1278 C 321 1278 349 1265 373 1241 C 396 1216 408 1188 408 1158 C 408 1127 396 1099 372 1074 C 348 1048 320 1036 288 1036 Z" unicode="" />
<glyph horiz-adv-x="932" d="M 640 302 C 640 323 634 342 623 360 C 611 377 596 392 578 405 C 559 417 537 427 513 434 C 488 440 462 444 434 444 C 374 444 326 429 290 400 C 254 370 236 332 236 286 C 236 238 253 199 288 169 C 322 139 371 124 434 124 C 462 124 488 129 514 140 C 539 150 561 164 580 181 C 598 197 613 216 624 238 C 634 259 640 280 640 302 Z M 64 280 C 64 328 73 371 91 409 C 109 447 133 479 164 505 C 194 531 230 550 271 564 C 311 577 354 584 400 584 C 456 584 503 576 542 560 C 580 544 609 528 628 514 C 629 512 632 512 636 512 C 641 512 644 516 644 526 L 644 572 C 644 628 627 671 594 701 C 560 731 508 746 436 746 C 382 746 338 738 303 723 C 267 707 242 694 228 682 C 224 678 219 676 214 676 C 208 676 206 681 206 692 L 206 814 C 206 823 211 831 222 838 C 247 855 280 869 321 879 C 361 889 405 894 452 894 C 529 894 591 884 639 865 C 686 845 723 820 749 790 C 775 759 792 725 802 687 C 811 649 816 611 816 574 L 816 20 C 816 12 815 6 813 4 C 811 1 805 0 796 0 L 670 0 C 660 0 655 1 653 4 C 651 6 650 12 650 20 L 650 88 C 650 90 647 92 642 92 C 638 92 635 91 634 90 C 606 55 571 28 531 9 C 490 -10 446 -20 400 -20 C 356 -20 314 -13 274 -1 C 234 11 198 30 167 55 C 135 79 110 110 92 148 C 73 185 64 229 64 280 Z M 496 1094 C 518 1094 538 1102 554 1118 C 570 1134 578 1154 578 1178 C 578 1200 570 1220 555 1236 C 539 1252 520 1260 496 1260 C 472 1260 452 1252 437 1236 C 421 1220 414 1200 414 1176 C 414 1150 422 1130 438 1116 C 454 1101 473 1094 496 1094 Z M 496 994 C 446 994 404 1010 368 1042 C 332 1074 314 1118 314 1176 C 314 1226 331 1270 366 1306 C 400 1342 444 1360 496 1360 C 521 1360 545 1355 567 1345 C 589 1335 608 1321 625 1305 C 641 1288 654 1269 664 1247 C 673 1225 678 1202 678 1178 C 678 1152 673 1128 664 1106 C 654 1083 641 1063 625 1047 C 608 1030 589 1017 567 1008 C 545 998 521 994 496 994 Z" unicode="" />
<glyph horiz-adv-x="1508" d="M 1036 738 C 970 738 917 717 875 676 C 833 634 808 584 800 524 C 800 514 801 509 803 507 C 805 505 810 504 820 504 L 1238 504 C 1251 504 1258 508 1258 516 L 1258 524 C 1251 585 1231 636 1198 677 C 1164 717 1110 738 1036 738 Z M 424 128 C 460 128 490 134 516 146 C 541 158 562 173 578 191 C 594 209 605 228 613 249 C 620 269 624 289 624 308 C 624 352 604 387 566 413 C 527 439 480 452 424 452 C 372 452 328 438 293 410 C 257 382 240 341 240 288 C 240 236 255 196 287 169 C 318 141 364 128 424 128 Z M 368 -20 C 317 -20 272 -12 234 4 C 195 20 163 41 137 69 C 111 96 91 127 79 162 C 66 196 60 232 60 270 C 60 315 67 357 82 396 C 96 434 118 468 147 497 C 175 525 210 548 252 564 C 293 580 341 588 396 588 C 448 588 492 580 529 565 C 565 549 593 534 612 520 C 613 518 616 518 620 518 C 625 518 628 523 628 534 L 628 572 C 628 628 611 671 577 701 C 543 731 490 746 418 746 C 364 746 320 738 286 722 C 251 706 226 692 212 682 C 204 679 200 678 200 678 C 193 678 190 682 190 692 L 190 814 C 190 823 195 831 206 838 C 231 855 264 869 306 879 C 347 889 391 894 438 894 C 483 894 523 888 557 877 C 591 865 619 852 643 836 C 666 820 684 802 698 783 C 711 763 721 746 728 730 C 730 727 733 726 736 726 C 738 726 741 727 744 730 C 778 776 819 815 866 847 C 912 878 973 894 1048 894 C 1116 894 1174 882 1223 858 C 1271 834 1311 801 1343 760 C 1374 718 1397 670 1413 615 C 1428 559 1436 500 1436 438 L 1436 380 C 1436 372 1435 366 1433 364 C 1431 361 1425 360 1416 360 L 832 360 C 822 360 816 359 814 357 C 811 355 810 350 810 342 C 816 278 843 228 890 193 C 936 157 1000 140 1080 140 C 1101 140 1124 142 1149 146 C 1173 150 1197 155 1220 163 C 1242 170 1263 179 1283 189 C 1302 199 1318 210 1330 224 C 1331 225 1333 227 1335 229 C 1337 231 1339 232 1342 232 C 1347 232 1350 225 1350 212 L 1350 74 C 1350 68 1349 64 1347 60 C 1345 56 1340 51 1334 46 C 1308 27 1272 11 1226 -1 C 1179 -13 1130 -20 1080 -20 C 996 -20 924 -5 865 24 C 805 53 756 92 718 142 C 718 144 715 146 710 146 C 706 146 703 145 702 144 C 687 125 669 106 649 87 C 628 67 604 50 576 34 C 548 18 516 5 482 -5 C 447 -15 409 -20 368 -20 Z" unicode="" />
<glyph horiz-adv-x="824" d="M 736 26 C 705 11 670 0 630 -8 C 590 -16 552 -20 518 -20 C 452 -20 392 -8 337 16 C 281 40 233 72 193 113 C 152 153 120 202 98 258 C 75 314 64 374 64 438 C 64 502 75 561 98 617 C 120 672 152 720 193 762 C 233 803 281 835 337 859 C 392 882 452 894 518 894 C 552 894 589 890 628 883 C 666 875 700 865 730 852 C 736 849 741 846 743 844 C 745 841 746 837 746 832 L 746 668 C 746 658 743 654 738 654 C 736 654 733 655 728 658 C 705 680 676 699 641 713 C 605 727 566 734 522 734 C 478 734 438 726 404 711 C 369 695 340 675 317 649 C 293 623 275 591 263 555 C 250 518 244 479 244 438 C 244 395 250 355 263 319 C 275 282 293 250 317 224 C 340 197 369 176 404 162 C 438 147 478 140 522 140 C 615 140 686 168 736 224 C 737 225 740 226 744 226 C 749 226 752 221 752 212 L 752 46 C 752 40 751 36 749 34 C 747 31 742 28 736 26 Z M 652 -194 C 652 -224 646 -254 636 -282 C 625 -310 610 -334 590 -355 C 570 -375 546 -392 519 -404 C 491 -416 462 -422 430 -422 C 404 -422 379 -419 354 -415 C 328 -410 304 -400 282 -384 C 274 -377 270 -369 272 -360 L 288 -274 C 290 -259 298 -256 310 -264 C 326 -274 341 -282 357 -288 C 372 -293 390 -296 410 -296 C 436 -296 459 -287 479 -271 C 498 -254 508 -227 508 -190 C 508 -159 496 -135 473 -119 C 449 -102 420 -94 384 -94 C 377 -94 371 -94 366 -94 C 360 -94 352 -94 342 -96 C 332 -97 326 -96 324 -93 C 321 -89 321 -81 324 -68 L 340 18 L 396 18 C 425 18 455 13 486 5 C 516 -3 544 -17 569 -35 C 593 -53 613 -75 629 -101 C 644 -127 652 -158 652 -194 Z" unicode="" />
<glyph horiz-adv-x="968" d="M 260 344 C 266 280 294 230 343 194 C 391 158 456 140 536 140 C 556 140 578 142 603 146 C 627 150 652 155 676 163 C 700 170 722 179 742 189 C 762 199 778 210 790 224 C 791 225 793 227 795 229 C 797 231 799 232 802 232 C 807 232 810 225 810 212 L 810 74 C 810 68 809 64 807 60 C 805 56 800 51 794 46 C 768 27 732 11 684 -1 C 636 -13 586 -20 536 -20 C 458 -20 391 -8 333 16 C 275 40 226 72 188 113 C 149 153 120 202 101 258 C 81 314 72 374 72 438 C 72 500 82 559 102 615 C 122 670 150 718 186 760 C 222 801 265 834 317 858 C 368 882 425 894 488 894 C 554 894 613 881 665 857 C 716 832 759 799 793 757 C 827 715 852 666 870 612 C 887 557 896 499 896 438 L 896 382 C 896 374 895 368 893 366 C 891 363 885 362 876 362 L 282 362 C 272 362 266 361 264 359 C 261 357 260 352 260 344 Z M 488 736 C 421 736 367 715 325 674 C 283 632 258 582 250 522 C 250 512 251 507 253 505 C 255 503 260 502 270 502 L 698 502 C 708 502 715 503 717 505 C 719 507 719 512 718 522 C 711 582 689 632 652 674 C 614 715 560 736 488 736 Z M 642 1032 C 647 1025 650 1020 652 1017 C 653 1013 648 1012 638 1012 L 496 1012 C 488 1012 482 1013 478 1016 C 474 1018 468 1024 460 1032 L 218 1280 C 210 1289 207 1295 209 1297 C 211 1299 216 1300 226 1300 L 418 1300 C 426 1300 431 1298 435 1296 C 438 1293 443 1288 450 1280 L 642 1032 Z" unicode="" />
<glyph horiz-adv-x="968" d="M 260 344 C 266 280 294 230 343 194 C 391 158 456 140 536 140 C 556 140 578 142 603 146 C 627 150 652 155 676 163 C 700 170 722 179 742 189 C 762 199 778 210 790 224 C 791 225 793 227 795 229 C 797 231 799 232 802 232 C 807 232 810 225 810 212 L 810 74 C 810 68 809 64 807 60 C 805 56 800 51 794 46 C 768 27 732 11 684 -1 C 636 -13 586 -20 536 -20 C 458 -20 391 -8 333 16 C 275 40 226 72 188 113 C 149 153 120 202 101 258 C 81 314 72 374 72 438 C 72 500 82 559 102 615 C 122 670 150 718 186 760 C 222 801 265 834 317 858 C 368 882 425 894 488 894 C 554 894 613 881 665 857 C 716 832 759 799 793 757 C 827 715 852 666 870 612 C 887 557 896 499 896 438 L 896 382 C 896 374 895 368 893 366 C 891 363 885 362 876 362 L 282 362 C 272 362 266 361 264 359 C 261 357 260 352 260 344 Z M 488 736 C 421 736 367 715 325 674 C 283 632 258 582 250 522 C 250 512 251 507 253 505 C 255 503 260 502 270 502 L 698 502 C 708 502 715 503 717 505 C 719 507 719 512 718 522 C 711 582 689 632 652 674 C 614 715 560 736 488 736 Z M 562 1280 C 568 1288 573 1293 577 1296 C 580 1298 586 1300 594 1300 L 786 1300 C 795 1300 801 1299 803 1297 C 805 1295 802 1289 794 1280 L 552 1032 C 544 1024 538 1018 534 1016 C 530 1013 524 1012 516 1012 L 374 1012 C 363 1012 358 1013 360 1017 C 361 1020 364 1025 370 1032 L 562 1280 L 562 1280 Z" unicode="" />
<glyph horiz-adv-x="968" d="M 260 344 C 266 280 294 230 343 194 C 391 158 456 140 536 140 C 556 140 578 142 603 146 C 627 150 652 155 676 163 C 700 170 722 179 742 189 C 762 199 778 210 790 224 C 791 225 793 227 795 229 C 797 231 799 232 802 232 C 807 232 810 225 810 212 L 810 74 C 810 68 809 64 807 60 C 805 56 800 51 794 46 C 768 27 732 11 684 -1 C 636 -13 586 -20 536 -20 C 458 -20 391 -8 333 16 C 275 40 226 72 188 113 C 149 153 120 202 101 258 C 81 314 72 374 72 438 C 72 500 82 559 102 615 C 122 670 150 718 186 760 C 222 801 265 834 317 858 C 368 882 425 894 488 894 C 554 894 613 881 665 857 C 716 832 759 799 793 757 C 827 715 852 666 870 612 C 887 557 896 499 896 438 L 896 382 C 896 374 895 368 893 366 C 891 363 885 362 876 362 L 282 362 C 272 362 266 361 264 359 C 261 357 260 352 260 344 Z M 488 736 C 421 736 367 715 325 674 C 283 632 258 582 250 522 C 250 512 251 507 253 505 C 255 503 260 502 270 502 L 698 502 C 708 502 715 503 717 505 C 719 507 719 512 718 522 C 711 582 689 632 652 674 C 614 715 560 736 488 736 Z M 374 1280 C 386 1293 398 1300 412 1300 L 564 1300 C 580 1300 592 1293 602 1280 L 818 1032 C 822 1025 824 1020 824 1018 C 824 1014 820 1012 812 1012 L 688 1012 C 678 1012 672 1014 668 1018 C 664 1022 659 1026 654 1032 L 504 1182 C 501 1184 497 1186 492 1186 C 486 1186 482 1184 480 1182 L 334 1032 C 328 1026 324 1022 320 1018 C 316 1014 309 1012 300 1012 L 172 1012 C 164 1012 160 1014 160 1018 C 160 1020 162 1025 166 1032 L 374 1280 L 374 1280 Z" unicode="" />
<glyph horiz-adv-x="968" d="M 260 344 C 266 280 294 230 343 194 C 391 158 456 140 536 140 C 556 140 578 142 603 146 C 627 150 652 155 676 163 C 700 170 722 179 742 189 C 762 199 778 210 790 224 C 791 225 793 227 795 229 C 797 231 799 232 802 232 C 807 232 810 225 810 212 L 810 74 C 810 68 809 64 807 60 C 805 56 800 51 794 46 C 768 27 732 11 684 -1 C 636 -13 586 -20 536 -20 C 458 -20 391 -8 333 16 C 275 40 226 72 188 113 C 149 153 120 202 101 258 C 81 314 72 374 72 438 C 72 500 82 559 102 615 C 122 670 150 718 186 760 C 222 801 265 834 317 858 C 368 882 425 894 488 894 C 554 894 613 881 665 857 C 716 832 759 799 793 757 C 827 715 852 666 870 612 C 887 557 896 499 896 438 L 896 382 C 896 374 895 368 893 366 C 891 363 885 362 876 362 L 282 362 C 272 362 266 361 264 359 C 261 357 260 352 260 344 Z M 488 736 C 421 736 367 715 325 674 C 283 632 258 582 250 522 C 250 512 251 507 253 505 C 255 503 260 502 270 502 L 698 502 C 708 502 715 503 717 505 C 719 507 719 512 718 522 C 711 582 689 632 652 674 C 614 715 560 736 488 736 Z M 698 1036 C 667 1036 639 1047 615 1070 C 590 1092 578 1121 578 1156 C 578 1189 589 1218 613 1242 C 636 1266 664 1278 698 1278 C 730 1278 758 1265 782 1241 C 806 1216 818 1188 818 1158 C 818 1127 805 1099 781 1074 C 756 1048 728 1036 698 1036 Z M 286 1036 C 255 1036 227 1047 203 1070 C 178 1092 166 1121 166 1156 C 166 1189 178 1218 202 1242 C 226 1266 254 1278 286 1278 C 319 1278 347 1265 371 1241 C 394 1216 406 1188 406 1158 C 406 1127 394 1099 370 1074 C 346 1048 318 1036 286 1036 Z" unicode="" />
<glyph horiz-adv-x="448" d="M 358 1032 C 364 1021 368 1016 368 1016 C 368 1013 363 1012 354 1012 L 238 1012 C 230 1012 224 1013 220 1016 C 216 1018 210 1024 202 1032 L -32 1282 C -40 1290 -44 1295 -44 1298 C -44 1300 -37 1302 -24 1302 L 162 1302 C 170 1302 175 1300 179 1298 C 182 1295 187 1290 194 1282 L 358 1032 L 358 1032 Z M 136 854 C 136 862 137 867 139 870 C 141 872 146 874 156 874 L 292 874 C 301 874 307 872 309 870 C 311 867 312 862 312 854 L 312 20 C 312 12 311 6 309 4 C 307 1 301 0 292 0 L 156 0 C 146 0 141 1 139 4 C 137 6 136 12 136 20 L 136 854 L 136 854 Z" unicode="" />
<glyph horiz-adv-x="448" d="M 136 854 C 136 862 137 867 139 870 C 141 872 146 874 156 874 L 292 874 C 301 874 307 872 309 870 C 311 867 312 862 312 854 L 312 20 C 312 12 311 6 309 4 C 307 1 301 0 292 0 L 156 0 C 146 0 141 1 139 4 C 137 6 136 12 136 20 L 136 854 L 136 854 Z M 254 1282 C 260 1290 265 1295 269 1298 C 272 1300 278 1302 286 1302 L 472 1302 C 485 1302 492 1300 492 1298 C 492 1295 488 1290 480 1282 L 246 1032 C 238 1024 232 1018 228 1016 C 224 1013 218 1012 210 1012 L 94 1012 C 84 1012 80 1013 80 1016 C 80 1016 83 1021 90 1032 L 254 1282 L 254 1282 Z" unicode="" />
<glyph horiz-adv-x="448" d="M 136 854 C 136 862 137 867 139 870 C 141 872 146 874 156 874 L 292 874 C 301 874 307 872 309 870 C 311 867 312 862 312 854 L 312 20 C 312 12 311 6 309 4 C 307 1 301 0 292 0 L 156 0 C 146 0 141 1 139 4 C 137 6 136 12 136 20 L 136 854 L 136 854 Z M 122 1282 C 134 1295 146 1302 160 1302 L 280 1302 C 296 1302 308 1295 318 1282 L 490 1032 C 494 1025 496 1020 496 1018 C 496 1014 492 1012 484 1012 L 370 1012 C 360 1012 354 1014 350 1018 C 346 1022 341 1026 336 1032 L 236 1172 C 233 1174 229 1176 224 1176 C 218 1176 214 1174 212 1172 L 116 1032 C 110 1026 106 1022 102 1018 C 98 1014 91 1012 82 1012 L -36 1012 C -44 1012 -48 1014 -48 1018 C -48 1020 -46 1025 -42 1032 L 122 1282 L 122 1282 Z" unicode="" />
<glyph horiz-adv-x="448" d="M 390 1048 C 359 1048 332 1059 309 1081 C 285 1103 274 1130 274 1164 C 274 1196 285 1223 308 1247 C 330 1270 358 1282 390 1282 C 420 1282 447 1270 471 1246 C 494 1222 506 1195 506 1166 C 506 1135 494 1108 471 1084 C 447 1060 420 1048 390 1048 Z M 58 1048 C 28 1048 2 1059 -22 1081 C -46 1103 -58 1130 -58 1164 C -58 1196 -46 1223 -23 1247 C 0 1270 27 1282 58 1282 C 90 1282 117 1270 140 1246 C 162 1222 174 1195 174 1166 C 174 1135 162 1108 139 1084 C 115 1060 88 1048 58 1048 Z M 136 854 C 136 862 137 867 139 870 C 141 872 146 874 156 874 L 292 874 C 301 874 307 872 309 870 C 311 867 312 862 312 854 L 312 20 C 312 12 311 6 309 4 C 307 1 301 0 292 0 L 156 0 C 146 0 141 1 139 4 C 137 6 136 12 136 20 L 136 854 L 136 854 Z" unicode="" />
<glyph horiz-adv-x="1050" d="M 244 438 C 244 396 250 358 264 322 C 277 286 296 254 320 227 C 344 199 373 178 407 163 C 441 147 478 140 520 140 C 561 140 599 147 633 163 C 667 178 696 199 720 227 C 744 254 762 286 775 322 C 787 358 794 396 794 438 C 794 478 787 516 775 552 C 762 588 744 619 720 647 C 696 674 667 695 633 711 C 599 726 561 734 520 734 C 478 734 441 726 407 711 C 373 695 344 674 320 647 C 296 619 277 588 264 552 C 250 516 244 478 244 438 Z M 650 1206 C 746 1092 823 973 882 847 C 940 721 971 588 974 448 L 974 438 C 974 375 962 316 938 261 C 914 205 881 157 841 115 C 800 73 752 40 697 16 C 641 -8 582 -20 520 -20 C 457 -20 398 -8 343 16 C 287 40 239 73 198 115 C 156 157 124 205 100 261 C 76 316 64 375 64 438 C 64 500 75 559 97 614 C 119 668 149 716 188 758 C 226 799 273 831 328 855 C 382 878 442 890 508 890 C 542 890 575 885 607 877 C 638 868 662 860 678 852 C 682 849 684 851 684 858 C 684 862 683 864 682 866 C 655 916 628 962 601 1003 C 573 1043 542 1085 506 1128 C 500 1134 496 1138 493 1139 C 489 1139 484 1138 476 1134 L 288 1028 C 277 1021 268 1024 262 1036 L 214 1124 C 210 1130 208 1135 209 1139 C 209 1142 213 1146 220 1152 L 378 1240 C 386 1244 390 1248 390 1252 C 390 1254 387 1258 382 1264 C 370 1276 357 1288 343 1302 C 329 1315 314 1328 300 1342 C 285 1355 271 1368 257 1380 C 243 1392 230 1402 218 1410 C 207 1418 206 1426 216 1436 L 290 1510 C 295 1515 299 1518 302 1519 C 304 1519 309 1517 316 1512 C 346 1489 379 1463 413 1434 C 447 1404 480 1373 512 1340 C 521 1330 532 1329 544 1336 L 732 1444 C 742 1450 751 1448 758 1436 L 814 1346 C 818 1339 819 1334 819 1331 C 818 1327 814 1323 808 1318 L 656 1232 C 649 1228 645 1224 643 1221 C 641 1217 643 1212 650 1206 Z" unicode="" />
<glyph horiz-adv-x="1012" d="M 896 20 C 896 12 895 6 893 4 C 891 1 885 0 876 0 L 740 0 C 730 0 725 1 723 4 C 721 6 720 12 720 20 L 720 516 C 720 585 706 639 679 677 C 651 715 605 734 540 734 C 472 734 415 711 371 667 C 326 622 304 559 304 478 L 304 20 C 304 12 303 6 301 4 C 299 1 293 0 284 0 L 148 0 C 138 0 133 1 131 4 C 129 6 128 12 128 20 L 128 854 C 128 863 129 869 131 871 C 133 873 138 874 148 874 L 284 874 C 293 874 299 872 301 870 C 303 867 304 862 304 854 L 304 774 C 304 771 306 770 312 770 C 316 770 318 770 320 772 C 338 789 357 805 376 821 C 394 836 414 849 434 860 C 454 870 476 879 500 885 C 524 891 551 894 582 894 C 642 894 692 885 733 868 C 773 850 806 826 830 796 C 854 765 871 729 881 689 C 891 648 896 604 896 556 L 896 20 L 896 20 Z M 208 1036 C 198 1036 193 1037 191 1040 C 189 1042 188 1048 188 1056 L 188 1084 C 188 1137 204 1183 236 1222 C 268 1260 314 1280 374 1280 C 415 1280 448 1274 473 1262 C 497 1250 518 1236 535 1221 C 551 1205 567 1192 581 1180 C 595 1168 612 1162 634 1162 C 652 1162 668 1168 682 1180 C 695 1192 702 1209 702 1232 L 702 1254 C 702 1262 703 1267 705 1270 C 707 1272 712 1274 722 1274 L 810 1274 C 819 1274 825 1272 827 1270 C 829 1267 830 1262 830 1254 L 830 1224 C 830 1170 815 1125 786 1087 C 756 1049 712 1030 652 1030 C 609 1030 575 1036 550 1048 C 524 1060 503 1073 486 1089 C 468 1104 452 1118 438 1130 C 423 1142 405 1148 384 1148 C 365 1148 349 1141 336 1129 C 322 1116 316 1098 316 1076 L 316 1056 C 316 1048 315 1042 313 1040 C 311 1037 305 1036 296 1036 L 208 1036 L 208 1036 Z" unicode="" />
<glyph horiz-adv-x="1038" d="M 64 438 C 64 500 76 559 100 615 C 124 670 156 718 198 760 C 239 801 287 834 343 858 C 398 882 457 894 520 894 C 582 894 641 882 697 858 C 752 834 800 801 841 760 C 881 718 914 670 938 615 C 962 559 974 500 974 438 C 974 375 962 316 938 261 C 914 205 881 157 841 115 C 800 73 752 40 697 16 C 641 -8 582 -20 520 -20 C 457 -20 398 -8 343 16 C 287 40 239 73 198 115 C 156 157 124 205 100 261 C 76 316 64 375 64 438 Z M 244 438 C 244 396 250 358 264 322 C 277 286 296 254 320 227 C 344 199 373 178 407 163 C 441 147 478 140 520 140 C 561 140 599 147 633 163 C 667 178 696 199 720 227 C 744 254 762 286 775 322 C 787 358 794 396 794 438 C 794 478 787 516 775 552 C 762 588 744 619 720 647 C 696 674 667 695 633 711 C 599 726 561 734 520 734 C 478 734 441 726 407 711 C 373 695 344 674 320 647 C 296 619 277 588 264 552 C 250 516 244 478 244 438 Z M 628 1032 C 633 1025 636 1020 638 1017 C 639 1013 634 1012 624 1012 L 482 1012 C 474 1012 468 1013 464 1016 C 460 1018 454 1024 446 1032 L 204 1280 C 196 1289 193 1295 195 1297 C 197 1299 202 1300 212 1300 L 404 1300 C 412 1300 417 1298 421 1296 C 424 1293 429 1288 436 1280 L 628 1032 Z" unicode="" />
<glyph horiz-adv-x="1038" d="M 64 438 C 64 500 76 559 100 615 C 124 670 156 718 198 760 C 239 801 287 834 343 858 C 398 882 457 894 520 894 C 582 894 641 882 697 858 C 752 834 800 801 841 760 C 881 718 914 670 938 615 C 962 559 974 500 974 438 C 974 375 962 316 938 261 C 914 205 881 157 841 115 C 800 73 752 40 697 16 C 641 -8 582 -20 520 -20 C 457 -20 398 -8 343 16 C 287 40 239 73 198 115 C 156 157 124 205 100 261 C 76 316 64 375 64 438 Z M 244 438 C 244 396 250 358 264 322 C 277 286 296 254 320 227 C 344 199 373 178 407 163 C 441 147 478 140 520 140 C 561 140 599 147 633 163 C 667 178 696 199 720 227 C 744 254 762 286 775 322 C 787 358 794 396 794 438 C 794 478 787 516 775 552 C 762 588 744 619 720 647 C 696 674 667 695 633 711 C 599 726 561 734 520 734 C 478 734 441 726 407 711 C 373 695 344 674 320 647 C 296 619 277 588 264 552 C 250 516 244 478 244 438 Z M 628 1280 C 634 1288 639 1293 643 1296 C 646 1298 652 1300 660 1300 L 852 1300 C 861 1300 867 1299 869 1297 C 871 1295 868 1289 860 1280 L 618 1032 C 610 1024 604 1018 600 1016 C 596 1013 590 1012 582 1012 L 440 1012 C 429 1012 424 1013 426 1017 C 427 1020 430 1025 436 1032 L 628 1280 L 628 1280 Z" unicode="" />
<glyph horiz-adv-x="1038" d="M 64 438 C 64 500 76 559 100 615 C 124 670 156 718 198 760 C 239 801 287 834 343 858 C 398 882 457 894 520 894 C 582 894 641 882 697 858 C 752 834 800 801 841 760 C 881 718 914 670 938 615 C 962 559 974 500 974 438 C 974 375 962 316 938 261 C 914 205 881 157 841 115 C 800 73 752 40 697 16 C 641 -8 582 -20 520 -20 C 457 -20 398 -8 343 16 C 287 40 239 73 198 115 C 156 157 124 205 100 261 C 76 316 64 375 64 438 Z M 244 438 C 244 396 250 358 264 322 C 277 286 296 254 320 227 C 344 199 373 178 407 163 C 441 147 478 140 520 140 C 561 140 599 147 633 163 C 667 178 696 199 720 227 C 744 254 762 286 775 322 C 787 358 794 396 794 438 C 794 478 787 516 775 552 C 762 588 744 619 720 647 C 696 674 667 695 633 711 C 599 726 561 734 520 734 C 478 734 441 726 407 711 C 373 695 344 674 320 647 C 296 619 277 588 264 552 C 250 516 244 478 244 438 Z M 400 1280 C 412 1293 424 1300 438 1300 L 590 1300 C 606 1300 618 1293 628 1280 L 844 1032 C 848 1025 850 1020 850 1018 C 850 1014 846 1012 838 1012 L 714 1012 C 704 1012 698 1014 694 1018 C 690 1022 685 1026 680 1032 L 530 1182 C 527 1184 523 1186 518 1186 C 512 1186 508 1184 506 1182 L 360 1032 C 354 1026 350 1022 346 1018 C 342 1014 335 1012 326 1012 L 198 1012 C 190 1012 186 1014 186 1018 C 186 1020 188 1025 192 1032 L 400 1280 L 400 1280 Z" unicode="" />
<glyph horiz-adv-x="1038" d="M 64 438 C 64 500 76 559 100 615 C 124 670 156 718 198 760 C 239 801 287 834 343 858 C 398 882 457 894 520 894 C 582 894 641 882 697 858 C 752 834 800 801 841 760 C 881 718 914 670 938 615 C 962 559 974 500 974 438 C 974 375 962 316 938 261 C 914 205 881 157 841 115 C 800 73 752 40 697 16 C 641 -8 582 -20 520 -20 C 457 -20 398 -8 343 16 C 287 40 239 73 198 115 C 156 157 124 205 100 261 C 76 316 64 375 64 438 Z M 244 438 C 244 396 250 358 264 322 C 277 286 296 254 320 227 C 344 199 373 178 407 163 C 441 147 478 140 520 140 C 561 140 599 147 633 163 C 667 178 696 199 720 227 C 744 254 762 286 775 322 C 787 358 794 396 794 438 C 794 478 787 516 775 552 C 762 588 744 619 720 647 C 696 674 667 695 633 711 C 599 726 561 734 520 734 C 478 734 441 726 407 711 C 373 695 344 674 320 647 C 296 619 277 588 264 552 C 250 516 244 478 244 438 Z M 220 1036 C 210 1036 205 1037 203 1040 C 201 1042 200 1048 200 1056 L 200 1084 C 200 1137 216 1183 248 1222 C 280 1260 326 1280 386 1280 C 427 1280 460 1274 485 1262 C 509 1250 530 1236 547 1221 C 563 1205 579 1192 593 1180 C 607 1168 624 1162 646 1162 C 664 1162 680 1168 694 1180 C 707 1192 714 1209 714 1232 L 714 1254 C 714 1262 715 1267 717 1270 C 719 1272 724 1274 734 1274 L 822 1274 C 831 1274 837 1272 839 1270 C 841 1267 842 1262 842 1254 L 842 1224 C 842 1170 827 1125 798 1087 C 768 1049 724 1030 664 1030 C 621 1030 587 1036 562 1048 C 536 1060 515 1073 498 1089 C 480 1104 464 1118 450 1130 C 435 1142 417 1148 396 1148 C 377 1148 361 1141 348 1129 C 334 1116 328 1098 328 1076 L 328 1056 C 328 1048 327 1042 325 1040 C 323 1037 317 1036 308 1036 L 220 1036 L 220 1036 Z" unicode="" />
<glyph horiz-adv-x="1038" d="M 64 438 C 64 500 76 559 100 615 C 124 670 156 718 198 760 C 239 801 287 834 343 858 C 398 882 457 894 520 894 C 582 894 641 882 697 858 C 752 834 800 801 841 760 C 881 718 914 670 938 615 C 962 559 974 500 974 438 C 974 375 962 316 938 261 C 914 205 881 157 841 115 C 800 73 752 40 697 16 C 641 -8 582 -20 520 -20 C 457 -20 398 -8 343 16 C 287 40 239 73 198 115 C 156 157 124 205 100 261 C 76 316 64 375 64 438 Z M 244 438 C 244 396 250 358 264 322 C 277 286 296 254 320 227 C 344 199 373 178 407 163 C 441 147 478 140 520 140 C 561 140 599 147 633 163 C 667 178 696 199 720 227 C 744 254 762 286 775 322 C 787 358 794 396 794 438 C 794 478 787 516 775 552 C 762 588 744 619 720 647 C 696 674 667 695 633 711 C 599 726 561 734 520 734 C 478 734 441 726 407 711 C 373 695 344 674 320 647 C 296 619 277 588 264 552 C 250 516 244 478 244 438 Z M 726 1036 C 695 1036 667 1047 643 1070 C 618 1092 606 1121 606 1156 C 606 1189 617 1218 641 1242 C 664 1266 692 1278 726 1278 C 758 1278 786 1265 810 1241 C 834 1216 846 1188 846 1158 C 846 1127 833 1099 809 1074 C 784 1048 756 1036 726 1036 Z M 314 1036 C 283 1036 255 1047 231 1070 C 206 1092 194 1121 194 1156 C 194 1189 206 1218 230 1242 C 254 1266 282 1278 314 1278 C 347 1278 375 1265 399 1241 C 422 1216 434 1188 434 1158 C 434 1127 422 1099 398 1074 C 374 1048 346 1036 314 1036 Z" unicode="" />
<glyph horiz-adv-x="1000" d="M 910 550 C 919 550 925 548 927 546 C 929 543 930 538 930 530 L 930 422 C 930 414 929 408 927 406 C 925 403 919 402 910 402 L 90 402 C 80 402 75 403 73 406 C 71 408 70 414 70 422 L 70 530 C 70 538 71 543 73 546 C 75 548 80 550 90 550 L 910 550 Z M 502 2 C 468 2 439 13 415 37 C 390 60 378 90 378 126 C 378 160 390 190 414 214 C 438 238 467 250 502 250 C 536 250 566 238 590 214 C 614 190 626 161 626 128 C 626 93 614 63 590 39 C 566 14 536 2 502 2 Z M 502 693 C 468 693 439 704 415 728 C 390 751 378 781 378 817 C 378 851 390 881 414 905 C 438 929 467 941 502 941 C 536 941 566 929 590 905 C 614 881 626 852 626 819 C 626 784 614 754 590 730 C 566 705 536 693 502 693 Z" unicode="" />
<glyph horiz-adv-x="1038" d="M 64 438 C 64 500 76 559 100 615 C 124 670 156 718 198 760 C 239 801 287 834 343 858 C 398 882 457 894 520 894 C 573 894 623 885 671 867 C 718 849 761 824 800 794 L 880 874 C 884 878 888 880 892 880 C 893 880 897 878 904 874 L 954 824 C 958 820 960 816 960 812 C 960 808 958 804 954 800 L 874 720 C 904 681 929 638 947 590 C 965 542 974 491 974 438 C 974 375 962 316 938 261 C 914 205 881 157 841 115 C 800 73 752 40 697 16 C 641 -8 582 -20 520 -20 C 464 -20 412 -11 365 7 C 317 25 274 50 236 82 L 154 0 C 150 -4 146 -6 142 -6 C 139 -6 135 -4 130 0 L 80 50 C 76 54 74 58 74 62 C 74 66 76 70 80 74 L 162 156 C 131 194 107 238 90 286 C 72 334 64 384 64 438 Z M 794 438 C 794 468 790 497 783 525 C 775 552 765 577 752 600 L 348 196 C 394 158 452 140 520 140 C 562 140 601 147 635 163 C 669 178 697 199 721 227 C 744 254 762 286 775 322 C 787 358 794 396 794 438 Z M 244 438 C 244 376 257 322 284 276 L 686 678 C 640 715 585 734 520 734 C 477 734 439 726 405 711 C 371 695 342 674 318 647 C 294 619 275 588 263 552 C 250 516 244 478 244 438 Z" unicode="" />
<glyph horiz-adv-x="944" d="M 594 1032 C 599 1025 602 1020 604 1017 C 605 1013 600 1012 590 1012 L 448 1012 C 440 1012 434 1013 430 1016 C 426 1018 420 1024 412 1032 L 170 1280 C 162 1289 159 1295 161 1297 C 163 1299 168 1300 178 1300 L 370 1300 C 378 1300 383 1298 387 1296 C 390 1293 395 1288 402 1280 L 594 1032 Z M 472 140 C 525 140 570 157 606 191 C 642 225 660 276 660 346 L 660 854 C 660 862 661 867 663 870 C 665 872 670 874 680 874 L 816 874 C 825 874 831 872 833 870 C 835 867 836 862 836 854 L 836 334 C 836 284 828 238 813 196 C 797 153 775 116 745 84 C 715 52 677 26 631 8 C 585 -10 532 -20 472 -20 C 412 -20 359 -10 313 8 C 267 26 229 52 199 84 C 169 116 146 153 131 196 C 115 238 108 284 108 334 L 108 854 C 108 862 109 867 111 870 C 113 872 118 874 128 874 L 264 874 C 273 874 279 872 281 870 C 283 867 284 862 284 854 L 284 346 C 284 276 302 225 338 191 C 374 157 418 140 472 140 Z" unicode="" />
<glyph horiz-adv-x="944" d="M 472 140 C 525 140 570 157 606 191 C 642 225 660 276 660 346 L 660 854 C 660 862 661 867 663 870 C 665 872 670 874 680 874 L 816 874 C 825 874 831 872 833 870 C 835 867 836 862 836 854 L 836 334 C 836 284 828 238 813 196 C 797 153 775 116 745 84 C 715 52 677 26 631 8 C 585 -10 532 -20 472 -20 C 412 -20 359 -10 313 8 C 267 26 229 52 199 84 C 169 116 146 153 131 196 C 115 238 108 284 108 334 L 108 854 C 108 862 109 867 111 870 C 113 872 118 874 128 874 L 264 874 C 273 874 279 872 281 870 C 283 867 284 862 284 854 L 284 346 C 284 276 302 225 338 191 C 374 157 418 140 472 140 Z M 538 1280 C 544 1288 549 1293 553 1296 C 556 1298 562 1300 570 1300 L 762 1300 C 771 1300 777 1299 779 1297 C 781 1295 778 1289 770 1280 L 528 1032 C 520 1024 514 1018 510 1016 C 506 1013 500 1012 492 1012 L 350 1012 C 339 1012 334 1013 336 1017 C 337 1020 340 1025 346 1032 L 538 1280 L 538 1280 Z" unicode="" />
<glyph horiz-adv-x="944" d="M 472 140 C 525 140 570 157 606 191 C 642 225 660 276 660 346 L 660 854 C 660 862 661 867 663 870 C 665 872 670 874 680 874 L 816 874 C 825 874 831 872 833 870 C 835 867 836 862 836 854 L 836 334 C 836 284 828 238 813 196 C 797 153 775 116 745 84 C 715 52 677 26 631 8 C 585 -10 532 -20 472 -20 C 412 -20 359 -10 313 8 C 267 26 229 52 199 84 C 169 116 146 153 131 196 C 115 238 108 284 108 334 L 108 854 C 108 862 109 867 111 870 C 113 872 118 874 128 874 L 264 874 C 273 874 279 872 281 870 C 283 867 284 862 284 854 L 284 346 C 284 276 302 225 338 191 C 374 157 418 140 472 140 Z M 350 1280 C 362 1293 374 1300 388 1300 L 540 1300 C 556 1300 568 1293 578 1280 L 794 1032 C 798 1025 800 1020 800 1018 C 800 1014 796 1012 788 1012 L 664 1012 C 654 1012 648 1014 644 1018 C 640 1022 635 1026 630 1032 L 480 1182 C 477 1184 473 1186 468 1186 C 462 1186 458 1184 456 1182 L 310 1032 C 304 1026 300 1022 296 1018 C 292 1014 285 1012 276 1012 L 148 1012 C 140 1012 136 1014 136 1018 C 136 1020 138 1025 142 1032 L 350 1280 L 350 1280 Z" unicode="" />
<glyph horiz-adv-x="944" d="M 472 140 C 525 140 570 157 606 191 C 642 225 660 276 660 346 L 660 854 C 660 862 661 867 663 870 C 665 872 670 874 680 874 L 816 874 C 825 874 831 872 833 870 C 835 867 836 862 836 854 L 836 334 C 836 284 828 238 813 196 C 797 153 775 116 745 84 C 715 52 677 26 631 8 C 585 -10 532 -20 472 -20 C 412 -20 359 -10 313 8 C 267 26 229 52 199 84 C 169 116 146 153 131 196 C 115 238 108 284 108 334 L 108 854 C 108 862 109 867 111 870 C 113 872 118 874 128 874 L 264 874 C 273 874 279 872 281 870 C 283 867 284 862 284 854 L 284 346 C 284 276 302 225 338 191 C 374 157 418 140 472 140 Z M 676 1036 C 645 1036 617 1047 593 1070 C 568 1092 556 1121 556 1156 C 556 1189 567 1218 591 1242 C 614 1266 642 1278 676 1278 C 708 1278 736 1265 760 1241 C 784 1216 796 1188 796 1158 C 796 1127 783 1099 759 1074 C 734 1048 706 1036 676 1036 Z M 264 1036 C 233 1036 205 1047 181 1070 C 156 1092 144 1121 144 1156 C 144 1189 156 1218 180 1242 C 204 1266 232 1278 264 1278 C 297 1278 325 1265 349 1241 C 372 1216 384 1188 384 1158 C 384 1127 372 1099 348 1074 C 324 1048 296 1036 264 1036 Z" unicode="" />
<glyph horiz-adv-x="906" d="M 446 264 C 447 260 450 258 454 258 C 456 258 459 260 462 264 L 696 854 C 700 862 703 867 706 870 C 708 872 714 874 722 874 L 872 874 C 884 874 890 871 890 866 C 888 864 888 863 888 862 C 888 860 887 859 887 859 C 886 858 886 856 886 854 L 368 -420 C 364 -428 360 -433 358 -436 C 355 -438 350 -440 342 -440 L 194 -440 C 182 -440 176 -437 176 -432 C 177 -432 178 -431 178 -430 C 178 -426 178 -422 180 -420 L 356 16 C 357 17 358 20 358 26 C 358 31 357 34 356 36 L 20 854 C 18 856 18 859 18 862 C 18 863 17 864 16 866 C 16 871 22 874 34 874 L 188 874 C 196 874 201 872 204 870 C 206 867 210 862 214 854 L 446 264 L 446 264 Z M 558 1280 C 564 1288 569 1293 573 1296 C 576 1298 582 1300 590 1300 L 782 1300 C 791 1300 797 1299 799 1297 C 801 1295 798 1289 790 1280 L 548 1032 C 540 1024 534 1018 530 1016 C 526 1013 520 1012 512 1012 L 370 1012 C 359 1012 354 1013 356 1017 C 357 1020 360 1025 366 1032 L 558 1280 L 558 1280 Z" unicode="" />
<glyph horiz-adv-x="1100" d="M 856 438 C 856 478 849 516 836 552 C 822 588 804 619 780 647 C 756 674 727 695 694 711 C 660 726 623 734 582 734 C 540 734 503 726 469 711 C 435 695 405 674 381 647 C 356 619 337 588 324 552 C 310 516 304 478 304 438 C 304 396 310 358 324 322 C 337 286 356 254 381 227 C 405 199 435 178 469 163 C 503 147 540 140 582 140 C 623 140 660 147 694 163 C 727 178 756 199 780 227 C 804 254 822 286 836 322 C 849 358 856 396 856 438 Z M 304 774 C 304 771 306 770 312 770 C 316 770 318 770 320 772 C 354 809 395 839 441 861 C 487 883 540 894 602 894 C 663 894 720 882 774 858 C 827 834 873 801 912 760 C 950 718 981 670 1003 615 C 1025 559 1036 500 1036 438 C 1036 375 1025 316 1003 261 C 981 205 950 157 912 115 C 873 73 827 40 774 16 C 720 -8 663 -20 602 -20 C 540 -20 487 -9 441 13 C 395 35 354 64 320 102 C 318 103 316 104 312 104 C 306 104 304 102 304 100 L 304 -420 C 304 -428 303 -433 301 -436 C 299 -438 293 -440 284 -440 L 148 -440 C 138 -440 133 -438 131 -436 C 129 -433 128 -428 128 -420 L 128 1480 C 128 1488 129 1493 131 1496 C 133 1498 138 1500 148 1500 L 284 1500 C 293 1500 299 1498 301 1496 C 303 1493 304 1488 304 1480 L 304 774 Z" unicode="" />
<glyph horiz-adv-x="906" d="M 446 264 C 447 260 450 258 454 258 C 456 258 459 260 462 264 L 696 854 C 700 862 703 867 706 870 C 708 872 714 874 722 874 L 872 874 C 884 874 890 871 890 866 C 888 864 888 863 888 862 C 888 860 887 859 887 859 C 886 858 886 856 886 854 L 368 -420 C 364 -428 360 -433 358 -436 C 355 -438 350 -440 342 -440 L 194 -440 C 182 -440 176 -437 176 -432 C 177 -432 178 -431 178 -430 C 178 -426 178 -422 180 -420 L 356 16 C 357 17 358 20 358 26 C 358 31 357 34 356 36 L 20 854 C 18 856 18 859 18 862 C 18 863 17 864 16 866 C 16 871 22 874 34 874 L 188 874 C 196 874 201 872 204 870 C 206 867 210 862 214 854 L 446 264 L 446 264 Z M 666 1036 C 635 1036 607 1047 583 1070 C 558 1092 546 1121 546 1156 C 546 1189 557 1218 581 1242 C 604 1266 632 1278 666 1278 C 698 1278 726 1265 750 1241 C 774 1216 786 1188 786 1158 C 786 1127 773 1099 749 1074 C 724 1048 696 1036 666 1036 Z M 254 1036 C 223 1036 195 1047 171 1070 C 146 1092 134 1121 134 1156 C 134 1189 146 1218 170 1242 C 194 1266 222 1278 254 1278 C 287 1278 315 1265 339 1241 C 362 1216 374 1188 374 1158 C 374 1127 362 1099 338 1074 C 314 1048 286 1036 254 1036 Z" unicode="" />
<glyph horiz-adv-x="1124" d="M 568 886 C 565 890 561 892 556 892 C 549 892 545 890 544 886 L 392 450 C 390 447 390 444 390 440 C 390 438 389 438 388 438 C 388 435 388 433 389 432 C 389 430 393 430 400 430 L 714 430 C 723 430 728 432 728 436 C 728 434 726 439 724 450 L 568 886 Z M 550 1422 C 551 1427 554 1430 560 1430 C 565 1430 568 1427 570 1422 L 1090 20 C 1091 18 1092 14 1092 8 C 1092 2 1086 0 1076 0 L 902 0 C 894 0 888 1 885 3 C 881 5 878 10 876 20 L 796 230 C 793 239 790 245 788 247 C 785 249 779 250 770 250 L 342 250 C 328 250 320 243 316 230 L 242 20 C 239 10 236 5 233 3 C 229 1 224 0 216 0 L 48 0 C 37 0 32 2 32 8 C 32 14 32 18 34 20 L 550 1422 Z M 244 1688 C 244 1697 245 1703 248 1705 C 250 1707 256 1708 264 1708 L 860 1708 C 869 1708 875 1707 877 1705 C 879 1703 880 1697 880 1688 L 880 1600 C 880 1590 879 1585 877 1583 C 875 1581 869 1580 860 1580 L 264 1580 C 254 1580 249 1581 247 1583 C 245 1585 244 1590 244 1600 L 244 1688 L 244 1688 Z" unicode="" />
<glyph horiz-adv-x="932" d="M 640 302 C 640 323 634 342 623 360 C 611 377 596 392 578 405 C 559 417 537 427 513 434 C 488 440 462 444 434 444 C 374 444 326 429 290 400 C 254 370 236 332 236 286 C 236 238 253 199 288 169 C 322 139 371 124 434 124 C 462 124 488 129 514 140 C 539 150 561 164 580 181 C 598 197 613 216 624 238 C 634 259 640 280 640 302 Z M 64 280 C 64 328 73 371 91 409 C 109 447 133 479 164 505 C 194 531 230 550 271 564 C 311 577 354 584 400 584 C 456 584 503 576 542 560 C 580 544 609 528 628 514 C 629 512 632 512 636 512 C 641 512 644 516 644 526 L 644 572 C 644 628 627 671 594 701 C 560 731 508 746 436 746 C 382 746 338 738 303 723 C 267 707 242 694 228 682 C 224 678 219 676 214 676 C 208 676 206 681 206 692 L 206 814 C 206 823 211 831 222 838 C 247 855 280 869 321 879 C 361 889 405 894 452 894 C 529 894 591 884 639 865 C 686 845 723 820 749 790 C 775 759 792 725 802 687 C 811 649 816 611 816 574 L 816 20 C 816 12 815 6 813 4 C 811 1 805 0 796 0 L 670 0 C 660 0 655 1 653 4 C 651 6 650 12 650 20 L 650 88 C 650 90 647 92 642 92 C 638 92 635 91 634 90 C 606 55 571 28 531 9 C 490 -10 446 -20 400 -20 C 356 -20 314 -13 274 -1 C 234 11 198 30 167 55 C 135 79 110 110 92 148 C 73 185 64 229 64 280 Z M 146 1200 C 146 1209 147 1215 150 1217 C 152 1219 158 1220 166 1220 L 762 1220 C 771 1220 777 1219 779 1217 C 781 1215 782 1209 782 1200 L 782 1112 C 782 1102 781 1097 779 1095 C 777 1093 771 1092 762 1092 L 166 1092 C 156 1092 151 1093 149 1095 C 147 1097 146 1102 146 1112 L 146 1200 L 146 1200 Z" unicode="" />
<glyph horiz-adv-x="1124" d="M 568 886 C 565 890 561 892 556 892 C 549 892 545 890 544 886 L 392 450 C 390 447 390 444 390 440 C 390 438 389 438 388 438 C 388 435 388 433 389 432 C 389 430 393 430 400 430 L 714 430 C 723 430 728 432 728 436 C 728 434 726 439 724 450 L 568 886 Z M 550 1422 C 551 1427 554 1430 560 1430 C 565 1430 568 1427 570 1422 L 1090 20 C 1091 18 1092 14 1092 8 C 1092 2 1086 0 1076 0 L 902 0 C 894 0 888 1 885 3 C 881 5 878 10 876 20 L 796 230 C 793 239 790 245 788 247 C 785 249 779 250 770 250 L 342 250 C 328 250 320 243 316 230 L 242 20 C 239 10 236 5 233 3 C 229 1 224 0 216 0 L 48 0 C 37 0 32 2 32 8 C 32 14 32 18 34 20 L 550 1422 Z M 562 1490 C 522 1490 483 1494 447 1504 C 410 1513 378 1529 350 1551 C 322 1573 299 1601 283 1637 C 266 1672 258 1716 258 1768 C 258 1776 259 1781 261 1784 C 263 1786 268 1788 278 1788 L 382 1788 C 395 1788 402 1781 402 1768 C 403 1710 419 1670 451 1648 C 482 1625 519 1614 562 1614 C 604 1614 641 1625 673 1648 C 704 1670 720 1710 722 1768 C 722 1781 728 1788 742 1788 L 846 1788 C 855 1788 861 1786 863 1784 C 865 1781 866 1776 866 1768 C 866 1716 857 1672 841 1637 C 824 1601 802 1573 774 1551 C 746 1529 713 1513 677 1504 C 640 1494 602 1490 562 1490 Z" unicode="" />
<glyph horiz-adv-x="932" d="M 640 302 C 640 323 634 342 623 360 C 611 377 596 392 578 405 C 559 417 537 427 513 434 C 488 440 462 444 434 444 C 374 444 326 429 290 400 C 254 370 236 332 236 286 C 236 238 253 199 288 169 C 322 139 371 124 434 124 C 462 124 488 129 514 140 C 539 150 561 164 580 181 C 598 197 613 216 624 238 C 634 259 640 280 640 302 Z M 64 280 C 64 328 73 371 91 409 C 109 447 133 479 164 505 C 194 531 230 550 271 564 C 311 577 354 584 400 584 C 456 584 503 576 542 560 C 580 544 609 528 628 514 C 629 512 632 512 636 512 C 641 512 644 516 644 526 L 644 572 C 644 628 627 671 594 701 C 560 731 508 746 436 746 C 382 746 338 738 303 723 C 267 707 242 694 228 682 C 224 678 219 676 214 676 C 208 676 206 681 206 692 L 206 814 C 206 823 211 831 222 838 C 247 855 280 869 321 879 C 361 889 405 894 452 894 C 529 894 591 884 639 865 C 686 845 723 820 749 790 C 775 759 792 725 802 687 C 811 649 816 611 816 574 L 816 20 C 816 12 815 6 813 4 C 811 1 805 0 796 0 L 670 0 C 660 0 655 1 653 4 C 651 6 650 12 650 20 L 650 88 C 650 90 647 92 642 92 C 638 92 635 91 634 90 C 606 55 571 28 531 9 C 490 -10 446 -20 400 -20 C 356 -20 314 -13 274 -1 C 234 11 198 30 167 55 C 135 79 110 110 92 148 C 73 185 64 229 64 280 Z M 504 1002 C 464 1002 425 1006 389 1016 C 352 1025 320 1041 292 1063 C 264 1085 241 1113 225 1149 C 208 1184 200 1228 200 1280 C 200 1288 201 1293 203 1296 C 205 1298 210 1300 220 1300 L 324 1300 C 337 1300 344 1293 344 1280 C 345 1222 361 1182 393 1160 C 424 1137 461 1126 504 1126 C 546 1126 583 1137 615 1160 C 646 1182 662 1222 664 1280 C 664 1293 670 1300 684 1300 L 788 1300 C 797 1300 803 1298 805 1296 C 807 1293 808 1288 808 1280 C 808 1228 799 1184 783 1149 C 766 1113 744 1085 716 1063 C 688 1041 655 1025 619 1016 C 582 1006 544 1002 504 1002 Z" unicode="" />
<glyph horiz-adv-x="1124" d="M 568 886 C 565 890 561 892 556 892 C 549 892 545 890 544 886 L 392 450 C 390 447 390 444 390 440 C 390 438 389 438 388 438 C 388 435 388 433 389 432 C 389 430 393 430 400 430 L 714 430 C 723 430 728 432 728 436 C 728 434 726 439 724 450 L 568 886 Z M 550 1422 C 551 1427 554 1430 560 1430 C 565 1430 568 1427 570 1422 L 1090 20 C 1091 18 1092 14 1092 8 C 1092 2 1086 0 1076 0 L 902 0 C 894 0 888 1 885 3 C 881 5 878 10 876 20 L 796 230 C 793 239 790 245 788 247 C 785 249 779 250 770 250 L 342 250 C 328 250 320 243 316 230 L 242 20 C 239 10 236 5 233 3 C 229 1 224 0 216 0 L 48 0 C 37 0 32 2 32 8 C 32 14 32 18 34 20 L 550 1422 Z M 781 -190 C 781 -168 785 -146 795 -124 C 804 -101 817 -80 833 -60 C 849 -40 867 -21 888 -4 C 908 13 929 28 951 40 L 1067 20 C 1021 1 986 -25 962 -59 C 937 -93 925 -128 925 -164 C 925 -198 934 -226 954 -246 C 973 -266 1005 -276 1051 -276 C 1061 -276 1067 -277 1069 -279 C 1070 -281 1071 -286 1071 -294 L 1071 -380 C 1071 -386 1070 -391 1068 -394 C 1066 -396 1060 -398 1051 -400 C 1041 -401 1034 -402 1029 -402 C 1023 -402 1015 -402 1005 -402 C 937 -402 882 -382 842 -344 C 801 -305 781 -254 781 -190 Z" unicode="" />
<glyph horiz-adv-x="932" d="M 640 302 C 640 323 634 342 623 360 C 611 377 596 392 578 405 C 559 417 537 427 513 434 C 488 440 462 444 434 444 C 374 444 326 429 290 400 C 254 370 236 332 236 286 C 236 238 253 199 288 169 C 322 139 371 124 434 124 C 462 124 488 129 514 140 C 539 150 561 164 580 181 C 598 197 613 216 624 238 C 634 259 640 280 640 302 Z M 64 280 C 64 328 73 371 91 409 C 109 447 133 479 164 505 C 194 531 230 550 271 564 C 311 577 354 584 400 584 C 456 584 503 576 542 560 C 580 544 609 528 628 514 C 629 512 632 512 636 512 C 641 512 644 516 644 526 L 644 572 C 644 628 627 671 594 701 C 560 731 508 746 436 746 C 382 746 338 738 303 723 C 267 707 242 694 228 682 C 224 678 219 676 214 676 C 208 676 206 681 206 692 L 206 814 C 206 823 211 831 222 838 C 247 855 280 869 321 879 C 361 889 405 894 452 894 C 529 894 591 884 639 865 C 686 845 723 820 749 790 C 775 759 792 725 802 687 C 811 649 816 611 816 574 L 816 20 C 816 12 815 6 813 4 C 811 1 805 0 796 0 L 670 0 C 660 0 655 1 653 4 C 651 6 650 12 650 20 L 650 88 C 650 90 647 92 642 92 C 638 92 635 91 634 90 C 606 55 571 28 531 9 C 490 -10 446 -20 400 -20 C 356 -20 314 -13 274 -1 C 234 11 198 30 167 55 C 135 79 110 110 92 148 C 73 185 64 229 64 280 Z M 522 -190 C 522 -168 526 -146 536 -124 C 545 -101 558 -80 574 -60 C 590 -40 608 -21 629 -4 C 649 13 670 28 692 40 L 808 20 C 762 1 727 -25 703 -59 C 678 -93 666 -128 666 -164 C 666 -198 675 -226 695 -246 C 714 -266 746 -276 792 -276 C 802 -276 808 -277 810 -279 C 811 -281 812 -286 812 -294 L 812 -380 C 812 -386 811 -391 809 -394 C 807 -396 801 -398 792 -400 C 782 -401 775 -402 770 -402 C 764 -402 756 -402 746 -402 C 678 -402 623 -382 583 -344 C 542 -305 522 -254 522 -190 Z" unicode="" />
<glyph horiz-adv-x="1244" d="M 812 -20 C 700 -20 599 -1 511 37 C 422 75 347 127 285 193 C 223 259 175 335 142 422 C 108 508 92 601 92 700 C 92 797 108 889 142 977 C 175 1064 223 1141 285 1207 C 347 1273 422 1325 511 1363 C 599 1401 700 1420 812 1420 C 872 1420 928 1412 981 1398 C 1033 1383 1084 1364 1132 1340 C 1142 1333 1148 1326 1148 1320 L 1148 1106 C 1148 1096 1145 1092 1140 1092 C 1136 1092 1132 1093 1130 1096 C 1088 1137 1041 1169 989 1192 C 936 1214 877 1226 812 1226 C 729 1226 656 1211 594 1182 C 531 1152 478 1113 436 1064 C 393 1014 361 958 340 896 C 318 833 308 768 308 700 C 308 632 318 566 340 504 C 361 441 393 385 436 336 C 478 286 531 247 594 218 C 656 188 729 174 812 174 C 877 174 936 185 989 208 C 1041 230 1088 262 1130 304 C 1132 306 1136 308 1140 308 C 1145 308 1148 303 1148 294 L 1148 80 C 1148 73 1142 66 1132 60 C 1084 36 1033 16 981 2 C 928 -12 872 -20 812 -20 Z M 802 1768 C 808 1776 813 1781 817 1784 C 820 1786 826 1788 834 1788 L 1026 1788 C 1035 1788 1041 1787 1043 1785 C 1045 1783 1042 1777 1034 1768 L 792 1520 C 784 1512 778 1506 774 1504 C 770 1501 764 1500 756 1500 L 614 1500 C 603 1500 598 1501 600 1505 C 601 1508 604 1513 610 1520 L 802 1768 L 802 1768 Z" unicode="" />
<glyph horiz-adv-x="824" d="M 736 26 C 705 11 670 0 630 -8 C 590 -16 552 -20 518 -20 C 452 -20 392 -8 337 16 C 281 40 233 72 193 113 C 152 153 120 202 98 258 C 75 314 64 374 64 438 C 64 502 75 561 98 617 C 120 672 152 720 193 762 C 233 803 281 835 337 859 C 392 882 452 894 518 894 C 552 894 589 890 628 883 C 666 875 700 865 730 852 C 736 849 741 846 743 844 C 745 841 746 837 746 832 L 746 668 C 746 658 743 654 738 654 C 736 654 733 655 728 658 C 705 680 676 699 641 713 C 605 727 566 734 522 734 C 478 734 438 726 404 711 C 369 695 340 675 317 649 C 293 623 275 591 263 555 C 250 518 244 479 244 438 C 244 395 250 355 263 319 C 275 282 293 250 317 224 C 340 197 369 176 404 162 C 438 147 478 140 522 140 C 615 140 686 168 736 224 C 737 225 740 226 744 226 C 749 226 752 221 752 212 L 752 46 C 752 40 751 36 749 34 C 747 31 742 28 736 26 Z M 574 1280 C 580 1288 585 1293 589 1296 C 592 1298 598 1300 606 1300 L 798 1300 C 807 1300 813 1299 815 1297 C 817 1295 814 1289 806 1280 L 564 1032 C 556 1024 550 1018 546 1016 C 542 1013 536 1012 528 1012 L 386 1012 C 375 1012 370 1013 372 1017 C 373 1020 376 1025 382 1032 L 574 1280 L 574 1280 Z" unicode="" />
<glyph horiz-adv-x="1244" d="M 812 -20 C 700 -20 599 -1 511 37 C 422 75 347 127 285 193 C 223 259 175 335 142 422 C 108 508 92 601 92 700 C 92 797 108 889 142 977 C 175 1064 223 1141 285 1207 C 347 1273 422 1325 511 1363 C 599 1401 700 1420 812 1420 C 872 1420 928 1412 981 1398 C 1033 1383 1084 1364 1132 1340 C 1142 1333 1148 1326 1148 1320 L 1148 1106 C 1148 1096 1145 1092 1140 1092 C 1136 1092 1132 1093 1130 1096 C 1088 1137 1041 1169 989 1192 C 936 1214 877 1226 812 1226 C 729 1226 656 1211 594 1182 C 531 1152 478 1113 436 1064 C 393 1014 361 958 340 896 C 318 833 308 768 308 700 C 308 632 318 566 340 504 C 361 441 393 385 436 336 C 478 286 531 247 594 218 C 656 188 729 174 812 174 C 877 174 936 185 989 208 C 1041 230 1088 262 1130 304 C 1132 306 1136 308 1140 308 C 1145 308 1148 303 1148 294 L 1148 80 C 1148 73 1142 66 1132 60 C 1084 36 1033 16 981 2 C 928 -12 872 -20 812 -20 Z M 628 1768 C 640 1781 652 1788 666 1788 L 818 1788 C 834 1788 846 1781 856 1768 L 1072 1520 C 1076 1513 1078 1508 1078 1506 C 1078 1502 1074 1500 1066 1500 L 942 1500 C 932 1500 926 1502 922 1506 C 918 1510 913 1514 908 1520 L 758 1670 C 755 1672 751 1674 746 1674 C 740 1674 736 1672 734 1670 L 588 1520 C 582 1514 578 1510 574 1506 C 570 1502 563 1500 554 1500 L 426 1500 C 418 1500 414 1502 414 1506 C 414 1508 416 1513 420 1520 L 628 1768 L 628 1768 Z" unicode="" />
</font>
</defs>
</svg>
