<?xml version="1.0" encoding="utf-8" ?><svg version="1.1" xmlns = 'http://www.w3.org/2000/svg'><defs><font id='web' horiz-adv-x="1000">
<font-face font-family="web" descent="-509" cap-height="1333" units-per-em="2048" bbox="-1150,-555,2509,2335" x-height="942" ascent="1539" />
<missing-glyph horiz-adv-x="512" d="" /><glyph horiz-adv-x="512" d="" unicode=" " />
<glyph horiz-adv-x="512" d="M 119 442 L 119 1333 L 385 1333 L 385 442 L 119 442 Z M 410 145 C 410 95 394 55 363 25 C 332 -5 295 -20 252 -20 C 212 -20 177 -5 147 25 C 117 55 102 95 102 145 C 102 193 117 231 147 261 C 177 290 212 305 252 305 C 295 305 332 290 363 261 C 394 231 410 193 410 145 Z" unicode="!" />
<glyph horiz-adv-x="860" d="M 141 1332 L 369 1332 L 369 748 L 141 748 L 141 1332 Z M 489 1332 L 717 1332 L 717 748 L 489 748 L 489 1332 Z" unicode="&#x22;" />
<glyph horiz-adv-x="1030" d="M 758 358 L 952 358 L 922 182 L 723 182 L 684 -49 L 494 -49 L 532 182 L 348 182 L 309 -49 L 119 -49 L 158 182 L 6 182 L 37 358 L 193 358 L 227 553 L 55 553 L 86 729 L 262 729 L 313 1026 L 504 1026 L 453 729 L 633 729 L 688 1026 L 879 1026 L 827 729 L 1004 729 L 973 553 L 793 553 L 758 358 Z M 602 553 L 418 553 L 383 358 L 567 358 L 602 553 Z" unicode="#" />
<glyph horiz-adv-x="1196" d="M 563 -209 L 563 0 C 508 0 455 6 405 18 C 355 30 308 47 266 67 C 224 87 186 112 154 140 C 122 168 98 197 82 229 L 262 391 C 290 343 329 302 377 268 C 425 234 487 215 563 213 L 563 565 C 507 580 454 598 404 618 C 354 638 310 663 272 692 C 234 720 203 754 181 793 C 158 832 147 878 147 932 C 147 978 156 1024 176 1070 C 195 1116 222 1157 258 1194 C 293 1230 336 1261 388 1286 C 439 1310 497 1325 563 1329 L 563 1538 L 692 1538 L 692 1329 C 792 1326 876 1305 944 1266 C 1012 1227 1062 1182 1094 1130 L 911 989 C 888 1020 859 1048 823 1074 C 787 1099 744 1112 692 1114 L 692 778 C 750 763 805 745 856 725 C 906 704 950 680 987 652 C 1023 624 1052 591 1073 554 C 1093 516 1104 473 1104 424 C 1104 372 1095 322 1079 276 C 1063 230 1038 188 1004 150 C 970 112 928 81 876 56 C 824 30 763 13 692 4 L 692 -209 L 563 -209 Z M 692 213 C 748 221 787 239 809 269 C 831 298 842 331 842 367 C 842 381 839 397 834 414 C 829 431 821 447 811 462 C 800 477 785 491 765 504 C 745 517 720 527 692 535 L 692 213 Z M 406 971 C 406 927 419 893 445 869 C 471 845 511 825 563 809 L 563 1118 C 508 1112 468 1096 443 1070 C 418 1043 406 1010 406 971 Z" unicode="$" />
<glyph horiz-adv-x="1799" d="M 758 972 C 758 857 728 766 668 698 C 608 630 526 597 424 597 C 372 597 324 606 282 624 C 240 642 204 667 175 700 C 145 732 122 771 106 817 C 90 863 82 914 82 972 C 82 1085 113 1175 175 1242 C 237 1309 320 1343 424 1343 C 526 1343 608 1309 668 1242 C 728 1175 758 1085 758 972 Z M 555 970 C 555 1034 543 1084 520 1122 C 496 1160 463 1179 420 1179 C 376 1179 342 1160 318 1122 C 294 1084 283 1034 283 970 C 283 907 294 857 318 819 C 342 781 376 763 420 763 C 463 763 496 781 520 819 C 543 857 555 907 555 970 Z M 1717 354 C 1717 239 1687 148 1627 80 C 1567 12 1485 -21 1383 -21 C 1331 -21 1283 -12 1241 6 C 1199 24 1163 49 1134 82 C 1104 114 1081 153 1065 199 C 1049 245 1041 296 1041 354 C 1041 467 1072 557 1134 624 C 1196 691 1279 725 1383 725 C 1485 725 1567 691 1627 624 C 1687 557 1717 467 1717 354 Z M 1514 352 C 1514 416 1502 466 1479 504 C 1455 542 1422 561 1379 561 C 1335 561 1301 542 1277 504 C 1253 466 1242 416 1242 352 C 1242 289 1253 239 1277 201 C 1301 163 1335 145 1379 145 C 1422 145 1455 163 1479 201 C 1502 239 1514 289 1514 352 Z M 638 0 L 411 0 L 1162 1333 L 1390 1333 L 638 0 Z" unicode="%" />
<glyph horiz-adv-x="1325" d="M 1249 612 C 1249 583 1245 553 1239 522 C 1232 490 1222 460 1210 430 C 1198 400 1183 371 1165 343 C 1147 315 1128 290 1106 268 C 1129 243 1150 220 1170 198 C 1190 176 1207 157 1221 141 C 1235 122 1249 105 1262 90 L 1040 -25 L 930 102 C 917 91 900 78 878 64 C 856 50 831 36 802 23 C 772 10 739 0 702 -10 C 665 -20 626 -25 586 -25 C 509 -25 439 -16 377 2 C 314 20 260 45 215 79 C 169 112 134 154 110 204 C 86 254 74 311 74 377 C 74 431 83 479 103 521 C 123 563 148 599 179 630 C 209 660 242 686 278 706 C 314 726 348 742 381 754 C 334 796 299 842 277 892 C 255 942 244 990 244 1038 C 244 1080 252 1121 268 1159 C 284 1197 309 1231 341 1261 C 373 1290 412 1313 460 1331 C 508 1349 563 1358 625 1358 C 690 1358 746 1349 794 1332 C 842 1315 881 1292 913 1263 C 945 1233 968 1199 983 1161 C 998 1123 1006 1082 1006 1040 C 1006 988 996 943 977 905 C 957 867 933 834 905 807 C 876 779 845 757 812 739 C 778 721 747 706 719 694 L 952 422 C 972 448 987 477 995 510 C 1003 542 1008 576 1008 612 L 1249 612 Z M 586 201 C 626 201 663 207 695 220 C 727 233 755 251 780 274 L 502 592 C 462 578 426 554 396 520 C 365 486 350 441 350 385 C 350 330 371 286 413 252 C 455 218 513 201 586 201 Z M 487 1051 C 487 1011 496 975 514 945 C 532 914 556 884 588 854 C 608 860 628 868 649 878 C 669 888 688 900 704 915 C 720 930 734 948 745 969 C 756 990 762 1015 762 1044 C 762 1081 748 1111 721 1133 C 693 1155 663 1167 629 1167 C 596 1167 564 1157 533 1138 C 502 1119 487 1090 487 1051 Z" unicode="&#x26;" />
<glyph horiz-adv-x="512" d="M 141 1333 L 369 1333 L 369 749 L 141 749 L 141 1333 Z" unicode="'" />
<glyph horiz-adv-x="614" d="M 92 563 C 92 703 106 828 134 938 C 162 1048 193 1142 227 1220 C 267 1310 312 1388 362 1456 L 571 1456 C 525 1376 484 1289 449 1194 C 417 1112 388 1017 363 910 C 338 802 326 687 326 563 C 326 438 338 322 363 215 C 388 108 417 14 449 -68 C 484 -163 525 -250 571 -328 L 362 -328 C 312 -261 267 -183 227 -93 C 193 -15 162 78 134 188 C 106 297 92 422 92 563 Z" unicode="(" />
<glyph horiz-adv-x="614" d="M 522 565 C 522 424 508 299 480 189 C 452 79 421 -15 387 -93 C 347 -183 302 -261 252 -328 L 43 -328 C 89 -248 130 -161 166 -66 C 197 16 225 110 251 217 C 276 324 289 440 289 565 C 289 689 276 804 251 912 C 225 1019 197 1114 166 1196 C 130 1291 89 1378 43 1456 L 252 1456 C 302 1388 347 1310 387 1220 C 421 1142 452 1048 480 939 C 508 830 522 705 522 565 Z" unicode=")" />
<glyph horiz-adv-x="901" d="M 336 1395 L 565 1395 L 557 1182 L 758 1260 L 829 1040 L 625 981 L 756 811 L 569 676 L 451 856 L 332 676 L 145 811 L 276 981 L 72 1040 L 143 1260 L 344 1182 L 336 1395 Z" unicode="*" />
<glyph horiz-adv-x="1044" d="M 83 567 L 410 567 L 410 894 L 635 894 L 635 567 L 962 567 L 962 358 L 635 358 L 635 32 L 410 32 L 410 358 L 83 358 L 83 567 Z" unicode="+" />
<glyph horiz-adv-x="512" d="M 172 217 L 399 217 L 399 -2 C 399 -71 384 -128 354 -173 C 324 -217 287 -249 244 -268 L 72 -184 C 99 -173 122 -153 142 -124 C 162 -94 172 -54 172 -2 L 172 217 Z" unicode="," />
<glyph horiz-adv-x="696" d="M 61 604 L 635 604 L 635 369 L 61 369 L 61 604 Z" unicode="-" />
<glyph horiz-adv-x="512" d="M 410 145 C 410 95 394 55 364 25 C 334 -5 297 -20 254 -20 C 214 -20 179 -5 148 25 C 117 55 102 95 102 145 C 102 193 117 231 148 261 C 179 290 214 305 254 305 C 297 305 334 290 364 261 C 394 231 410 193 410 145 Z" unicode="." />
<glyph horiz-adv-x="870" d="M 215 -328 L -6 -328 L 653 1456 L 874 1456 L 215 -328 Z" unicode="/" />
<glyph horiz-adv-x="1311" d="M 655 1358 C 733 1358 805 1342 873 1312 C 941 1281 999 1236 1048 1176 C 1097 1116 1136 1044 1165 959 C 1193 873 1208 776 1208 666 C 1208 555 1193 457 1165 371 C 1136 285 1097 213 1048 155 C 999 97 941 52 873 21 C 805 -9 733 -25 655 -25 C 577 -25 505 -9 437 21 C 369 52 311 97 262 155 C 212 213 173 285 145 371 C 116 457 102 555 102 666 C 102 780 116 881 145 968 C 173 1054 212 1126 262 1184 C 311 1241 369 1284 437 1314 C 505 1343 577 1358 655 1358 Z M 655 221 C 733 221 797 257 847 329 C 897 401 922 514 922 666 C 922 814 897 926 847 1000 C 797 1074 733 1112 655 1112 C 576 1112 512 1074 463 1000 C 413 926 389 814 389 666 C 389 514 413 401 463 329 C 512 257 576 221 655 221 Z" unicode="0" />
<glyph horiz-adv-x="788" d="M 336 0 L 336 1010 C 320 1001 299 993 272 985 C 244 977 215 969 185 961 C 154 953 124 948 96 944 C 67 940 45 938 29 938 L 0 1171 C 40 1173 82 1178 125 1188 C 168 1197 208 1209 245 1224 C 282 1239 314 1256 340 1276 C 366 1295 383 1314 391 1333 L 612 1333 L 612 0 L 336 0 Z" unicode="1" />
<glyph horiz-adv-x="1126" d="M 125 831 C 120 843 116 856 113 870 C 109 884 106 898 104 913 C 102 928 100 943 99 958 C 98 972 98 986 98 999 C 98 1051 109 1099 133 1143 C 157 1187 189 1224 231 1256 C 273 1288 321 1313 377 1331 C 433 1349 493 1358 557 1358 C 625 1358 688 1350 746 1334 C 803 1318 852 1293 893 1261 C 933 1228 965 1187 988 1138 C 1010 1088 1022 1030 1022 964 C 1022 889 1007 818 979 752 C 951 685 913 621 867 560 C 820 499 767 440 707 384 C 647 328 585 273 522 219 L 1026 219 L 1026 0 L 106 0 L 106 190 C 145 219 188 251 235 287 C 281 322 328 360 376 400 C 423 440 469 481 513 525 C 557 568 596 612 630 658 C 664 703 691 749 712 795 C 732 841 743 886 743 932 C 743 962 738 990 729 1016 C 720 1041 707 1063 690 1081 C 673 1099 652 1114 627 1124 C 602 1134 574 1139 542 1139 C 512 1139 485 1134 461 1125 C 437 1116 416 1103 398 1087 C 380 1071 367 1051 357 1028 C 347 1005 342 980 342 952 C 342 929 345 902 351 870 C 357 838 365 812 377 791 L 125 831 Z" unicode="2" />
<glyph horiz-adv-x="1126" d="M 717 985 C 717 1003 713 1021 706 1039 C 699 1057 688 1074 673 1090 C 658 1106 639 1118 616 1128 C 593 1138 566 1143 535 1143 C 495 1143 460 1135 431 1121 C 401 1107 377 1090 357 1071 C 337 1051 323 1033 313 1015 C 303 997 298 985 297 977 C 263 1000 232 1022 204 1044 C 176 1066 145 1089 113 1114 C 125 1144 143 1173 168 1202 C 192 1230 223 1256 260 1279 C 296 1301 339 1320 388 1334 C 436 1348 491 1356 551 1356 C 625 1356 689 1346 744 1327 C 799 1307 845 1282 881 1251 C 917 1219 944 1183 962 1141 C 980 1099 989 1056 989 1012 C 989 960 977 916 953 880 C 929 844 902 815 870 792 C 838 769 807 751 776 738 C 744 725 721 716 705 711 C 739 702 776 691 816 677 C 856 663 894 644 928 619 C 962 594 990 561 1013 521 C 1035 481 1047 430 1047 369 C 1047 311 1034 258 1010 210 C 985 161 950 119 905 85 C 860 50 806 23 744 3 C 682 -17 614 -27 541 -27 C 464 -27 399 -19 345 -4 C 291 10 246 29 210 51 C 174 73 145 96 124 120 C 102 144 87 164 78 180 L 223 381 C 229 363 242 343 260 321 C 278 299 300 279 328 261 C 355 242 386 227 421 215 C 455 203 493 197 535 197 C 570 197 601 202 628 212 C 654 222 677 235 695 253 C 713 270 727 289 737 310 C 747 331 752 353 752 375 C 752 444 729 495 683 529 C 637 563 572 580 489 580 C 473 580 456 579 438 577 C 420 575 403 574 387 572 C 370 570 356 568 344 567 C 332 565 323 564 317 563 C 320 601 323 639 326 677 C 328 714 331 752 334 791 C 335 791 339 790 347 789 C 354 788 362 787 372 787 C 382 786 391 786 401 786 C 411 786 419 786 426 786 C 528 786 602 804 648 842 C 694 880 717 927 717 985 Z" unicode="3" />
<glyph horiz-adv-x="1229" d="M 1188 258 L 1010 258 L 1010 0 L 758 0 L 758 258 L 160 258 L 92 455 L 164 559 L 696 1333 L 1010 1333 L 1010 483 L 1188 483 L 1188 258 Z M 758 483 L 758 1061 L 352 483 L 758 483 Z" unicode="4" />
<glyph horiz-adv-x="1167" d="M 438 858 C 466 868 496 876 527 882 C 557 888 589 891 621 891 C 679 891 737 881 795 862 C 852 843 903 814 948 776 C 993 738 1030 691 1058 635 C 1086 579 1100 513 1100 438 C 1100 366 1086 301 1060 244 C 1033 186 996 138 950 98 C 904 58 849 28 786 7 C 723 -14 656 -25 586 -25 C 496 -25 419 -14 356 7 C 293 28 242 52 203 80 C 156 111 118 146 90 186 L 299 383 C 318 345 341 311 367 283 C 389 258 417 235 451 215 C 485 194 525 184 571 184 C 653 184 714 206 754 250 C 794 294 815 350 815 418 C 815 498 796 563 758 611 C 720 659 660 684 578 684 C 538 684 502 678 472 666 C 441 654 415 641 393 627 C 368 610 346 591 326 571 L 162 670 L 250 1333 L 1053 1333 L 1053 1118 L 475 1118 L 438 858 L 438 858 Z" unicode="5" />
<glyph horiz-adv-x="1229" d="M 629 -25 C 522 -25 434 -6 365 29 C 296 65 241 114 201 175 C 161 235 133 306 118 386 C 103 466 96 549 96 635 C 96 681 98 731 103 785 C 108 839 117 893 131 947 C 145 1001 164 1052 189 1102 C 214 1151 247 1194 289 1232 C 331 1269 382 1299 442 1322 C 502 1344 573 1356 657 1356 C 743 1356 815 1344 875 1320 C 935 1296 983 1269 1020 1241 C 1063 1207 1098 1168 1124 1126 L 866 995 C 856 1022 842 1047 823 1071 C 807 1090 784 1108 756 1124 C 727 1140 690 1149 645 1149 C 591 1149 548 1134 515 1106 C 481 1077 455 1041 436 997 C 417 953 403 905 395 852 C 387 798 382 746 381 696 C 381 696 387 705 401 725 C 415 744 436 765 464 787 C 492 809 526 830 567 849 C 608 867 657 877 713 877 C 786 877 850 865 906 841 C 961 817 1007 785 1044 745 C 1081 705 1108 659 1126 607 C 1144 554 1153 498 1153 440 C 1153 400 1145 354 1129 300 C 1113 246 1086 195 1047 147 C 1008 99 954 59 886 25 C 818 -8 732 -25 629 -25 Z M 866 416 C 866 485 845 544 803 593 C 761 641 699 666 616 666 C 584 666 555 659 527 645 C 499 631 474 613 453 591 C 432 568 415 542 403 513 C 391 483 385 454 385 424 C 385 391 390 360 401 331 C 412 301 428 276 448 254 C 468 232 493 214 522 202 C 550 190 582 184 616 184 C 699 184 761 206 803 250 C 845 294 866 350 866 416 Z" unicode="6" />
<glyph horiz-adv-x="1147" d="M 1098 1333 L 1098 1145 C 1022 1046 953 937 891 817 C 863 765 837 708 811 648 C 785 587 761 522 740 454 C 719 386 701 313 687 237 C 673 161 663 82 659 0 L 373 0 C 375 83 383 162 397 238 C 411 314 428 385 449 453 C 470 521 493 584 519 642 C 544 700 570 753 598 803 C 660 917 730 1019 807 1108 L 72 1108 L 72 1333 L 1098 1333 Z" unicode="7" />
<glyph horiz-adv-x="1229" d="M 881 713 C 931 692 976 666 1018 635 C 1053 607 1085 572 1114 529 C 1142 486 1157 434 1157 373 C 1157 308 1143 251 1115 202 C 1087 153 1048 112 999 79 C 950 45 892 20 826 2 C 760 -16 688 -25 612 -25 C 532 -25 458 -15 392 3 C 326 21 269 47 221 81 C 173 114 136 155 110 203 C 83 251 70 306 70 367 C 70 429 84 483 112 527 C 140 571 171 607 205 635 C 244 667 290 693 342 713 C 302 729 267 750 236 776 C 208 799 184 829 163 865 C 141 901 131 945 131 997 C 131 1046 143 1092 167 1136 C 191 1180 224 1218 266 1251 C 308 1283 359 1309 419 1329 C 478 1348 542 1358 612 1358 C 680 1358 744 1349 804 1331 C 863 1313 914 1289 957 1257 C 1000 1225 1034 1188 1059 1145 C 1083 1102 1096 1056 1096 1006 C 1096 948 1084 901 1062 865 C 1039 829 1014 799 987 776 C 955 750 920 729 881 713 Z M 412 979 C 412 927 428 885 462 854 C 495 822 545 807 612 807 C 679 807 730 822 764 854 C 798 885 815 927 815 979 C 815 1031 798 1073 764 1105 C 730 1137 679 1153 612 1153 C 545 1153 495 1137 462 1105 C 428 1073 412 1031 412 979 Z M 356 389 C 356 325 378 274 422 237 C 466 200 530 182 612 182 C 694 182 757 200 802 237 C 847 274 870 325 870 389 C 870 454 847 506 802 544 C 757 582 694 602 612 602 C 530 602 466 582 422 544 C 378 506 356 454 356 389 Z" unicode="8" />
<glyph horiz-adv-x="1229" d="M 600 1356 C 702 1356 788 1337 856 1301 C 924 1265 978 1216 1019 1156 C 1060 1095 1089 1025 1107 945 C 1124 865 1133 782 1133 696 C 1133 650 1130 600 1125 546 C 1120 492 1111 438 1097 384 C 1083 330 1064 278 1039 229 C 1013 180 980 137 939 99 C 897 61 846 31 786 9 C 726 -13 654 -25 571 -25 C 483 -25 410 -13 352 11 C 293 35 245 61 209 90 C 165 124 130 162 104 205 L 362 336 C 372 307 386 281 406 258 C 422 238 444 221 473 205 C 501 189 538 182 584 182 C 637 182 680 195 714 221 C 747 247 773 280 792 322 C 811 364 824 410 832 462 C 840 513 845 564 848 614 C 848 614 842 605 830 587 C 818 569 800 550 775 530 C 749 510 717 491 677 474 C 637 457 591 449 537 449 C 463 449 397 460 340 484 C 282 508 234 540 195 581 C 156 622 126 669 106 723 C 86 776 76 832 76 891 C 76 930 83 976 99 1030 C 115 1083 142 1134 181 1182 C 220 1230 273 1271 341 1305 C 408 1339 494 1356 600 1356 Z M 362 915 C 362 879 367 846 377 814 C 387 782 403 753 425 728 C 446 702 472 682 504 667 C 535 652 571 645 612 645 C 643 645 673 651 701 665 C 729 679 753 697 775 720 C 796 742 813 768 825 797 C 837 825 844 855 844 887 C 844 919 838 951 827 983 C 816 1014 800 1042 780 1067 C 760 1091 735 1111 707 1125 C 678 1139 646 1147 612 1147 C 528 1147 466 1124 424 1080 C 382 1036 362 981 362 915 Z" unicode="9" />
<glyph horiz-adv-x="512" d="M 410 786 C 410 736 394 696 364 666 C 334 636 297 621 254 621 C 214 621 179 636 148 666 C 117 696 102 736 102 786 C 102 834 117 872 148 902 C 179 931 214 946 254 946 C 297 946 334 931 364 902 C 394 872 410 834 410 786 Z M 410 145 C 410 95 394 55 364 25 C 334 -5 297 -20 254 -20 C 214 -20 179 -5 148 25 C 117 55 102 95 102 145 C 102 193 117 231 148 261 C 179 290 214 305 254 305 C 297 305 334 290 364 261 C 394 231 410 193 410 145 Z" unicode=":" />
<glyph horiz-adv-x="512" d="M 152 217 L 379 217 L 379 -2 C 379 -71 364 -128 334 -173 C 304 -217 267 -249 224 -268 L 52 -184 C 79 -173 102 -153 122 -124 C 142 -94 152 -54 152 -2 L 152 217 Z M 410 786 C 410 736 394 696 364 666 C 334 636 297 621 254 621 C 214 621 179 636 148 666 C 117 696 102 736 102 786 C 102 834 117 872 148 902 C 179 931 214 946 254 946 C 297 946 334 931 364 902 C 394 872 410 834 410 786 Z" unicode=";" />
<glyph horiz-adv-x="1044" d="M 641 2 L 170 473 L 641 944 L 788 797 L 465 473 L 788 150 L 641 2 Z" unicode="&#x3C;" />
<glyph horiz-adv-x="1044" d="M 962 771 L 962 562 L 83 562 L 83 771 L 962 771 Z M 962 392 L 962 183 L 83 183 L 83 392 L 962 392 Z" unicode="=" />
<glyph horiz-adv-x="1044" d="M 215 137 L 539 461 L 215 784 L 362 932 L 834 461 L 362 -10 L 215 137 Z" unicode="&#x3E;" />
<glyph horiz-adv-x="922" d="M 31 1165 C 47 1193 69 1219 99 1243 C 128 1266 161 1286 199 1303 C 237 1320 278 1333 322 1343 C 366 1353 412 1358 459 1358 C 525 1358 585 1347 637 1327 C 689 1306 733 1277 769 1241 C 805 1204 832 1160 852 1110 C 871 1059 881 1004 881 946 C 881 839 850 755 788 693 C 726 631 640 594 530 582 L 530 408 L 264 408 L 264 741 C 300 743 339 747 381 753 C 423 759 462 768 498 782 C 534 796 564 815 588 840 C 611 864 623 897 623 938 C 623 958 619 979 611 999 C 603 1019 592 1038 577 1054 C 562 1070 542 1084 518 1094 C 493 1104 464 1110 432 1110 C 400 1110 371 1105 345 1095 C 318 1085 293 1073 271 1057 C 249 1041 229 1024 213 1005 C 196 986 183 966 174 946 L 31 1165 Z M 555 145 C 555 95 539 55 509 25 C 478 -5 441 -20 397 -20 C 357 -20 323 -5 293 25 C 263 55 248 95 248 145 C 248 193 263 231 293 261 C 323 290 357 305 397 305 C 441 305 478 290 509 261 C 539 231 555 193 555 145 Z" unicode="?" />
<glyph horiz-adv-x="1843" d="M 1343 -281 C 1324 -291 1300 -302 1272 -312 C 1243 -322 1211 -332 1177 -340 C 1143 -348 1107 -354 1069 -359 C 1031 -364 992 -367 954 -367 C 831 -367 718 -347 615 -308 C 512 -269 423 -214 349 -143 C 275 -72 217 12 175 112 C 133 212 113 322 113 444 C 113 549 132 650 170 748 C 208 846 263 932 335 1006 C 407 1080 496 1140 601 1184 C 705 1228 824 1251 956 1251 C 1095 1251 1215 1229 1316 1186 C 1417 1143 1501 1087 1567 1018 C 1633 949 1682 872 1714 787 C 1745 701 1761 616 1761 532 C 1761 460 1751 394 1732 335 C 1713 275 1686 224 1650 182 C 1614 140 1572 107 1523 84 C 1474 60 1420 49 1360 49 C 1298 49 1248 65 1208 98 C 1168 130 1142 173 1128 227 L 1120 227 C 1109 175 1079 133 1029 99 C 979 65 918 49 848 49 C 796 49 749 58 707 77 C 665 96 630 123 601 158 C 571 193 549 234 533 282 C 517 330 510 382 510 438 C 510 494 517 546 533 595 C 549 643 571 685 600 720 C 628 754 663 781 704 801 C 745 821 791 831 842 831 C 902 831 953 818 996 793 C 1039 768 1072 738 1096 702 L 1104 707 C 1104 725 1104 745 1106 766 C 1107 786 1109 801 1112 809 L 1315 809 C 1312 781 1310 752 1309 721 C 1307 689 1307 664 1307 645 L 1307 406 C 1307 346 1316 303 1334 277 C 1352 251 1374 238 1399 238 C 1456 238 1495 262 1517 310 C 1539 358 1550 426 1550 514 C 1550 575 1540 638 1520 703 C 1500 768 1467 827 1421 881 C 1375 934 1314 978 1239 1013 C 1163 1047 1070 1065 958 1065 C 846 1065 751 1046 671 1008 C 591 970 525 923 475 865 C 424 807 387 742 363 670 C 339 598 328 528 328 459 C 328 357 343 268 373 191 C 403 114 445 49 499 -3 C 553 -55 617 -95 691 -122 C 765 -148 846 -162 934 -162 C 965 -162 997 -160 1030 -156 C 1062 -152 1094 -146 1124 -138 C 1154 -130 1182 -121 1208 -111 C 1234 -101 1256 -90 1274 -80 L 1343 -281 Z M 887 270 C 926 270 959 284 985 313 C 1011 341 1024 384 1024 440 C 1024 496 1011 538 985 567 C 959 595 926 610 887 610 C 845 610 811 595 785 567 C 758 538 745 496 745 440 C 745 384 758 341 785 313 C 811 284 845 270 887 270 Z" unicode="@" />
<glyph horiz-adv-x="1315" d="M 10 0 L 463 1333 L 811 1333 L 1305 0 L 981 0 L 897 242 L 401 242 L 328 0 L 10 0 Z M 467 492 L 823 492 L 633 1042 L 467 492 Z" unicode="A" />
<glyph horiz-adv-x="1319" d="M 956 721 C 1008 707 1054 686 1096 659 C 1131 636 1163 603 1193 560 C 1222 517 1237 461 1237 391 C 1237 273 1192 179 1102 107 C 1012 35 880 0 707 0 L 143 0 L 143 1333 L 741 1333 C 808 1333 869 1325 925 1311 C 980 1297 1027 1276 1066 1249 C 1104 1221 1134 1187 1156 1147 C 1177 1107 1188 1061 1188 1010 C 1188 952 1175 906 1151 871 C 1126 836 1099 808 1071 786 C 1037 762 998 743 956 729 L 956 721 Z M 436 801 L 698 801 C 820 801 881 851 881 952 C 881 997 866 1032 838 1058 C 809 1083 760 1096 690 1096 L 436 1096 L 436 801 Z M 715 244 C 789 244 844 258 878 287 C 912 315 930 357 930 412 C 930 466 913 506 880 531 C 847 556 794 569 721 569 L 436 569 L 436 244 L 715 244 Z" unicode="B" />
<glyph horiz-adv-x="1382" d="M 1057 920 C 1033 967 995 1008 943 1043 C 890 1078 819 1096 729 1096 C 611 1096 525 1058 471 982 C 416 906 389 803 389 674 C 389 538 419 432 479 354 C 539 276 626 238 741 238 C 831 238 903 256 955 294 C 1007 331 1045 376 1067 428 L 1319 291 C 1269 195 1196 118 1099 61 C 1002 3 879 -25 731 -25 C 635 -25 547 -9 467 22 C 386 54 317 99 259 159 C 201 218 155 290 123 376 C 90 461 74 558 74 666 C 74 774 90 872 124 958 C 157 1044 203 1116 263 1176 C 322 1236 392 1281 473 1312 C 553 1342 641 1358 735 1358 C 811 1358 881 1349 943 1333 C 1005 1317 1059 1296 1107 1270 C 1154 1244 1193 1214 1224 1182 C 1254 1149 1277 1117 1292 1085 L 1057 920 Z" unicode="C" />
<glyph horiz-adv-x="1423" d="M 143 0 L 143 1333 L 692 1333 C 901 1333 1063 1275 1179 1161 C 1294 1046 1352 881 1352 666 C 1352 452 1294 288 1179 173 C 1063 57 901 0 692 0 L 143 0 Z M 672 252 C 793 252 885 284 949 350 C 1012 416 1044 521 1044 666 C 1044 812 1012 917 949 983 C 885 1048 793 1081 672 1081 L 444 1081 L 444 252 L 672 252 Z" unicode="D" />
<glyph horiz-adv-x="1219" d="M 451 1081 L 451 795 L 1040 795 L 1040 547 L 451 547 L 451 252 L 1106 252 L 1106 0 L 143 0 L 143 1333 L 1085 1333 L 1085 1081 L 451 1081 Z" unicode="E" />
<glyph horiz-adv-x="1137" d="M 451 1079 L 451 760 L 1006 760 L 1006 508 L 451 508 L 451 0 L 143 0 L 143 1333 L 1055 1333 L 1055 1079 L 451 1079 Z" unicode="F" />
<glyph horiz-adv-x="1413" d="M 1026 504 L 725 504 L 725 750 L 1300 750 L 1300 0 L 1090 0 L 1065 178 L 1057 178 C 1050 162 1038 142 1022 120 C 1005 97 982 75 954 53 C 925 31 890 12 848 -2 C 806 -17 757 -25 700 -25 C 615 -25 535 -8 459 23 C 383 55 317 102 260 162 C 202 222 157 295 124 381 C 90 467 74 564 74 672 C 74 780 90 876 124 960 C 157 1044 203 1116 263 1175 C 322 1234 392 1279 474 1311 C 555 1342 643 1358 739 1358 C 797 1358 851 1354 900 1347 C 948 1340 993 1329 1035 1313 C 1077 1297 1115 1277 1151 1253 C 1186 1229 1221 1199 1257 1163 L 1075 963 C 1037 1010 990 1048 934 1076 C 878 1104 809 1118 727 1118 C 668 1118 617 1107 573 1085 C 529 1063 493 1033 465 993 C 436 953 414 907 400 853 C 386 799 379 740 379 676 C 379 607 386 545 402 490 C 418 435 441 388 473 348 C 504 308 543 278 591 256 C 638 234 694 223 758 223 C 806 223 848 229 882 241 C 916 253 944 269 965 288 C 986 307 1001 328 1011 352 C 1021 375 1026 398 1026 420 L 1026 504 Z" unicode="G" />
<glyph horiz-adv-x="1466" d="M 1323 1333 L 1323 0 L 1016 0 L 1016 539 L 451 539 L 451 0 L 143 0 L 143 1333 L 451 1333 L 451 795 L 1016 795 L 1016 1333 L 1323 1333 Z" unicode="H" />
<glyph horiz-adv-x="594" d="M 143 0 L 143 1333 L 451 1333 L 451 0 L 143 0 Z" unicode="I" />
<glyph horiz-adv-x="1022" d="M 889 1333 L 889 430 C 889 286 852 175 779 95 C 706 15 594 -25 444 -25 C 356 -25 285 -14 229 7 C 173 28 128 52 96 80 C 58 110 29 144 10 184 L 182 403 C 197 370 216 341 238 317 C 256 295 280 276 308 258 C 336 240 370 231 410 231 C 466 231 508 243 538 269 C 567 294 582 341 582 410 L 582 1333 L 889 1333 Z" unicode="J" />
<glyph horiz-adv-x="1335" d="M 451 772 L 903 1333 L 1280 1333 L 803 758 L 1294 0 L 913 0 L 592 547 L 451 385 L 451 0 L 143 0 L 143 1333 L 451 1333 L 451 772 Z" unicode="K" />
<glyph horiz-adv-x="1075" d="M 451 1333 L 451 256 L 1034 256 L 1034 0 L 143 0 L 143 1333 L 451 1333 Z" unicode="L" />
<glyph horiz-adv-x="1745" d="M 764 164 L 426 975 L 426 0 L 143 0 L 143 1333 L 553 1333 L 885 512 L 1202 1333 L 1602 1333 L 1602 0 L 1319 0 L 1319 963 L 995 164 L 764 164 Z" unicode="M" />
<glyph horiz-adv-x="1487" d="M 430 0 L 143 0 L 143 1333 L 455 1333 L 1057 414 L 1057 1333 L 1343 1333 L 1343 0 L 1030 0 L 430 893 L 430 0 Z" unicode="N" />
<glyph horiz-adv-x="1468" d="M 1395 668 C 1395 560 1378 463 1345 377 C 1312 291 1266 218 1208 159 C 1149 99 1079 54 999 22 C 919 -9 831 -25 735 -25 C 639 -25 551 -9 471 22 C 390 54 320 99 262 159 C 203 218 157 291 124 377 C 90 463 74 560 74 668 C 74 776 90 873 124 959 C 157 1044 203 1116 262 1176 C 320 1236 390 1281 471 1312 C 551 1342 639 1358 735 1358 C 831 1358 919 1342 999 1312 C 1079 1281 1149 1236 1208 1176 C 1266 1116 1312 1044 1345 959 C 1378 873 1395 776 1395 668 Z M 1085 668 C 1085 812 1052 920 988 991 C 923 1062 839 1098 735 1098 C 631 1098 547 1062 481 991 C 415 920 383 812 383 668 C 383 524 415 416 481 344 C 547 272 631 236 735 236 C 839 236 923 272 988 344 C 1052 416 1085 524 1085 668 Z" unicode="O" />
<glyph horiz-adv-x="1229" d="M 1157 852 C 1157 778 1145 711 1122 653 C 1098 594 1068 544 1030 503 C 992 462 948 431 900 409 C 851 387 802 377 752 377 L 422 377 L 422 0 L 119 0 L 119 1333 L 668 1333 C 828 1333 950 1290 1033 1205 C 1115 1119 1157 1002 1157 852 Z M 422 625 L 618 625 C 700 625 759 645 795 687 C 831 729 850 787 850 862 C 850 938 829 994 787 1029 C 745 1063 685 1081 606 1081 L 422 1081 L 422 625 Z" unicode="P" />
<glyph horiz-adv-x="1485" d="M 1395 668 C 1395 606 1386 546 1368 490 C 1350 434 1326 381 1298 331 C 1269 281 1236 235 1198 194 C 1160 153 1120 118 1079 88 C 1102 56 1132 28 1168 3 C 1204 -22 1240 -44 1276 -63 C 1315 -85 1357 -105 1401 -123 L 1243 -328 C 1219 -316 1191 -298 1159 -272 C 1126 -246 1093 -217 1061 -185 C 1028 -153 997 -121 968 -89 C 938 -57 915 -28 899 -4 C 873 -10 846 -15 818 -19 C 790 -23 762 -25 735 -25 C 639 -25 551 -9 471 22 C 390 54 320 99 262 159 C 203 218 157 291 124 377 C 90 463 74 560 74 668 C 74 776 90 873 124 959 C 157 1044 203 1116 262 1176 C 320 1236 390 1281 471 1312 C 551 1342 639 1358 735 1358 C 831 1358 919 1342 999 1312 C 1079 1281 1149 1236 1208 1176 C 1266 1116 1312 1044 1345 959 C 1378 873 1395 776 1395 668 Z M 1085 668 C 1085 812 1052 920 988 991 C 923 1062 839 1098 735 1098 C 631 1098 547 1062 481 991 C 415 920 383 812 383 668 C 383 524 415 416 481 344 C 547 272 631 236 735 236 C 839 236 923 272 988 344 C 1052 416 1085 524 1085 668 Z" unicode="Q" />
<glyph horiz-adv-x="1315" d="M 909 0 L 647 487 L 442 487 L 442 0 L 143 0 L 143 1333 L 725 1333 C 811 1333 884 1322 946 1302 C 1007 1282 1057 1254 1096 1218 C 1135 1182 1164 1140 1182 1091 C 1200 1042 1210 988 1210 930 C 1210 866 1200 811 1181 765 C 1162 719 1138 680 1110 649 C 1081 617 1051 592 1019 573 C 987 554 958 540 932 532 L 1253 0 L 909 0 Z M 442 721 L 676 721 C 766 721 827 737 859 770 C 891 802 907 847 907 905 C 907 962 891 1007 860 1040 C 828 1073 772 1090 692 1090 L 442 1090 L 442 721 Z" unicode="R" />
<glyph horiz-adv-x="1212" d="M 901 977 C 871 1016 832 1049 785 1076 C 738 1102 678 1116 604 1116 C 572 1116 546 1111 524 1101 C 502 1091 484 1079 470 1065 C 456 1051 445 1035 439 1018 C 433 1001 430 985 430 969 C 430 944 437 923 452 906 C 467 889 487 874 513 860 C 538 846 568 834 602 823 C 636 812 672 802 711 793 C 765 777 817 760 867 741 C 917 722 961 698 999 670 C 1037 641 1068 605 1090 563 C 1112 521 1124 469 1124 408 C 1124 347 1112 291 1088 239 C 1064 187 1030 142 986 102 C 942 62 887 31 823 9 C 759 -13 686 -25 604 -25 C 534 -25 472 -18 417 -5 C 361 7 312 25 269 48 C 226 70 189 97 159 127 C 128 157 102 189 80 225 L 293 408 C 324 356 367 311 423 274 C 478 237 547 219 629 219 C 686 219 734 230 772 254 C 810 277 829 312 829 358 C 829 386 824 410 814 429 C 804 447 788 463 767 475 C 745 487 719 499 687 509 C 655 519 617 530 575 543 C 522 557 469 575 417 596 C 364 616 317 642 275 673 C 233 703 200 740 174 784 C 148 828 135 880 135 942 C 135 1002 147 1057 171 1108 C 195 1158 229 1202 273 1239 C 317 1275 370 1304 432 1326 C 493 1347 561 1358 637 1358 C 755 1358 851 1336 925 1294 C 999 1252 1054 1201 1092 1143 L 901 977 Z" unicode="S" />
<glyph horiz-adv-x="1161" d="M 31 1333 L 1130 1333 L 1130 1077 L 735 1077 L 735 0 L 428 0 L 428 1077 L 31 1077 L 31 1333 Z" unicode="T" />
<glyph horiz-adv-x="1393" d="M 692 -25 C 514 -25 377 18 279 106 C 181 194 133 315 133 471 L 133 1333 L 440 1333 L 440 514 C 440 462 446 418 460 383 C 474 347 492 319 516 297 C 539 275 566 259 597 250 C 627 240 660 236 696 236 C 732 236 765 240 796 250 C 826 259 853 275 876 297 C 899 319 917 347 931 383 C 945 418 952 462 952 514 L 952 1333 L 1260 1333 L 1260 471 C 1260 397 1247 329 1221 268 C 1195 206 1157 154 1108 111 C 1058 68 998 35 928 11 C 858 -13 779 -25 692 -25 Z" unicode="U" />
<glyph horiz-adv-x="1284" d="M 1253 1333 L 807 0 L 467 0 L 31 1333 L 338 1333 L 641 322 L 936 1333 L 1253 1333 Z" unicode="V" />
<glyph horiz-adv-x="1950" d="M 367 0 L 31 1333 L 336 1333 L 553 295 L 807 1333 L 1149 1333 L 1411 295 L 1620 1333 L 1919 1333 L 1591 0 L 1233 0 L 975 1055 L 725 0 L 367 0 Z" unicode="W" />
<glyph horiz-adv-x="1343" d="M 387 0 L 51 0 L 485 672 L 57 1333 L 399 1333 L 670 881 L 944 1333 L 1278 1333 L 852 680 L 1292 0 L 948 0 L 666 463 L 387 0 Z" unicode="X" />
<glyph horiz-adv-x="1262" d="M 20 1333 L 352 1333 L 635 797 L 915 1333 L 1241 1333 L 786 541 L 786 0 L 477 0 L 477 541 L 20 1333 Z" unicode="Y" />
<glyph horiz-adv-x="1157" d="M 1069 1112 L 1001 1024 L 412 256 L 1075 256 L 1075 0 L 51 0 L 51 221 L 127 317 L 713 1077 L 72 1077 L 72 1333 L 1069 1333 L 1069 1112 Z" unicode="Z" />
<glyph horiz-adv-x="614" d="M 102 1456 L 551 1456 L 551 1304 L 330 1304 L 330 -177 L 551 -177 L 551 -328 L 102 -328 L 102 1456 Z" unicode="[" />
<glyph horiz-adv-x="870" d="M -8 1456 L 213 1456 L 872 -328 L 651 -328 L -8 1456 Z" unicode="\" />
<glyph horiz-adv-x="614" d="M 512 -328 L 63 -328 L 63 -177 L 285 -177 L 285 1304 L 63 1304 L 63 1456 L 512 1456 L 512 -328 Z" unicode="]" />
<glyph horiz-adv-x="1044" d="M 59 965 L 518 1423 L 977 965 L 829 817 L 518 1128 L 207 817 L 59 965 Z" unicode="^" />
<glyph horiz-adv-x="942" d="M 0 -94 L 942 -94 L 942 -279 L 0 -279 L 0 -94 Z" unicode="_" />
<glyph horiz-adv-x="574" d="M 432 1305 L 287 1159 L -51 1499 L 94 1645 L 432 1305 Z" unicode="`" />
<glyph horiz-adv-x="1137" d="M 1047 215 C 1061 215 1074 217 1085 221 L 1085 37 C 1067 23 1045 11 1017 2 C 989 -7 955 -12 915 -12 C 855 -12 811 4 784 37 C 756 69 741 110 737 158 L 729 158 C 709 107 675 64 625 28 C 575 -7 512 -25 434 -25 C 324 -25 239 2 179 58 C 118 113 88 184 88 272 C 88 322 99 364 122 397 C 144 429 174 456 210 477 C 246 497 285 513 329 523 C 373 533 416 541 459 547 L 709 580 L 709 602 C 709 659 690 700 652 724 C 614 748 564 760 500 760 C 435 760 380 748 336 724 C 292 700 258 671 236 637 L 125 811 C 139 827 159 845 183 864 C 207 883 236 900 270 915 C 304 930 344 943 390 953 C 436 963 488 969 547 969 C 682 969 788 940 864 883 C 940 825 979 734 979 608 C 979 588 979 562 979 532 C 979 502 979 472 980 442 C 980 412 981 384 981 358 C 981 332 981 312 981 299 C 981 243 1003 215 1047 215 Z M 711 420 L 512 391 C 464 384 426 373 398 357 C 370 341 356 315 356 279 C 356 248 367 223 389 203 C 411 183 443 174 487 174 C 528 174 563 179 592 189 C 620 199 643 212 661 228 C 679 244 691 261 699 279 C 707 297 711 316 711 334 L 711 420 Z" unicode="a" />
<glyph horiz-adv-x="1247" d="M 430 1456 L 430 936 C 430 924 429 911 429 897 C 428 883 427 871 426 860 C 424 846 424 833 424 819 L 434 819 C 449 846 470 871 498 893 C 520 912 551 929 590 944 C 629 959 677 967 735 967 C 796 967 854 955 909 932 C 963 908 1011 875 1052 832 C 1093 789 1126 737 1150 676 C 1174 614 1186 546 1186 471 C 1186 394 1174 325 1152 264 C 1129 202 1098 150 1058 107 C 1018 64 972 31 920 9 C 868 -13 812 -25 752 -25 C 690 -25 638 -15 598 3 C 557 21 524 42 498 66 C 468 91 444 121 428 156 L 418 156 C 415 110 413 74 412 47 C 410 31 410 15 410 0 L 133 0 C 134 22 135 44 137 66 C 138 84 139 105 141 127 C 142 149 143 171 143 193 L 143 1456 L 430 1456 Z M 889 471 C 889 520 882 562 870 596 C 858 630 841 657 819 679 C 797 700 771 716 743 726 C 714 736 683 741 649 741 C 581 741 525 720 482 678 C 439 636 418 567 418 471 C 418 374 439 305 482 263 C 525 221 581 201 649 201 C 683 201 714 206 743 216 C 771 226 797 241 819 263 C 841 284 858 312 870 346 C 882 380 889 421 889 471 Z" unicode="b" />
<glyph horiz-adv-x="1014" d="M 571 969 C 677 969 764 954 832 924 C 900 894 947 857 973 813 L 838 621 C 818 656 789 685 749 709 C 709 733 659 745 598 745 C 524 745 465 722 422 676 C 379 630 358 563 358 473 C 358 383 381 315 427 271 C 473 227 530 205 600 205 C 660 205 707 215 743 235 C 779 255 804 280 819 309 L 973 131 C 947 87 899 50 830 20 C 761 -9 675 -25 571 -25 C 499 -25 431 -13 368 9 C 305 31 251 64 205 106 C 159 148 124 201 99 263 C 73 325 61 395 61 473 C 61 551 74 620 101 682 C 127 743 164 795 210 837 C 256 879 310 912 373 935 C 435 957 501 969 571 969 Z" unicode="c" />
<glyph horiz-adv-x="1247" d="M 1104 1456 L 1104 193 C 1104 171 1104 149 1105 127 C 1105 105 1106 84 1108 66 C 1109 44 1111 22 1114 0 L 838 0 C 838 15 837 31 836 47 C 834 74 832 110 829 156 L 819 156 C 808 131 793 108 775 86 C 757 64 734 44 708 28 C 681 12 650 0 615 -10 C 580 -20 540 -25 496 -25 C 436 -25 379 -13 327 9 C 274 31 228 64 188 107 C 148 150 117 202 95 264 C 72 325 61 394 61 471 C 61 546 73 614 97 676 C 121 737 153 789 194 832 C 235 875 283 908 338 932 C 392 955 450 967 512 967 C 588 967 653 952 705 922 C 757 892 793 857 813 819 L 823 819 C 821 833 820 846 819 860 C 817 871 817 883 817 897 C 817 911 817 924 817 936 L 817 1456 L 1104 1456 Z M 358 471 C 358 374 381 305 427 263 C 473 221 530 201 598 201 C 632 201 663 206 691 216 C 719 226 743 241 764 263 C 784 284 800 312 812 346 C 823 380 829 421 829 471 C 829 520 823 562 812 596 C 800 630 784 657 764 679 C 743 700 719 716 691 726 C 663 736 632 741 598 741 C 530 741 473 720 427 678 C 381 636 358 567 358 471 Z" unicode="d" />
<glyph horiz-adv-x="1126" d="M 1055 481 C 1055 471 1054 462 1054 453 C 1053 444 1053 436 1053 430 C 1051 422 1051 413 1051 403 L 358 403 C 358 362 365 328 380 301 C 395 273 414 251 438 234 C 461 217 487 205 515 198 C 543 191 570 188 598 188 C 672 188 732 197 780 217 C 828 236 867 263 899 299 L 993 111 C 949 71 892 38 821 13 C 750 -12 674 -25 592 -25 C 500 -25 421 -9 355 20 C 289 50 234 90 191 138 C 148 186 116 241 96 302 C 76 362 66 423 66 485 C 66 545 76 604 97 662 C 118 720 150 772 192 817 C 234 862 286 899 348 927 C 409 955 481 969 563 969 C 669 969 755 951 819 917 C 883 883 932 841 967 791 C 1002 741 1025 689 1037 633 C 1049 577 1055 526 1055 481 Z M 766 580 C 766 630 749 672 716 707 C 682 742 632 760 565 760 C 495 760 443 742 407 707 C 371 672 354 630 354 580 L 766 580 Z" unicode="e" />
<glyph horiz-adv-x="707" d="M 190 0 L 190 700 L 20 700 L 20 942 L 190 942 L 190 1157 C 190 1252 219 1330 277 1390 C 335 1450 421 1481 535 1481 C 567 1481 595 1478 619 1474 C 643 1470 663 1465 680 1460 C 698 1454 713 1448 727 1440 L 709 1202 C 699 1204 687 1208 674 1212 C 662 1215 649 1218 634 1221 C 619 1223 604 1225 590 1225 C 554 1225 527 1214 507 1194 C 487 1173 477 1140 477 1094 L 477 942 L 692 942 L 692 700 L 477 700 L 477 0 L 190 0 Z" unicode="f" />
<glyph horiz-adv-x="1165" d="M 1133 735 C 1127 736 1120 738 1112 741 C 1105 742 1095 743 1082 745 C 1069 747 1054 748 1036 748 C 1008 748 986 744 968 738 C 950 732 937 727 928 723 C 946 677 956 631 956 584 C 956 526 944 478 920 438 C 896 398 865 366 826 341 C 787 315 743 296 693 282 C 643 268 593 260 543 256 C 530 254 517 253 503 251 C 489 249 477 245 466 239 C 454 233 445 226 437 217 C 429 207 426 194 426 178 C 426 157 433 141 447 131 C 461 120 480 115 504 115 L 797 115 C 897 115 969 95 1011 55 C 1053 15 1075 -36 1075 -102 C 1075 -173 1056 -233 1020 -283 C 983 -333 937 -373 881 -405 C 825 -437 764 -460 698 -474 C 632 -488 571 -496 514 -496 C 450 -496 389 -492 333 -484 C 276 -476 227 -463 185 -445 C 143 -427 111 -401 87 -368 C 63 -335 51 -294 51 -244 C 51 -198 62 -161 84 -133 C 106 -104 131 -81 160 -65 C 188 -49 217 -38 246 -32 C 274 -26 295 -23 307 -23 C 300 -19 291 -15 279 -10 C 267 -4 256 3 245 13 C 234 23 224 37 216 53 C 207 69 203 89 203 113 C 203 134 207 153 217 170 C 226 186 238 200 252 212 C 266 223 282 233 298 241 C 314 249 328 256 340 260 C 307 269 276 284 246 306 C 216 327 189 352 166 381 C 142 409 124 442 110 478 C 96 514 90 553 90 596 C 90 652 101 702 125 748 C 148 794 179 833 218 865 C 256 897 302 922 355 940 C 407 958 464 967 524 967 C 588 967 646 957 698 938 C 750 918 795 892 834 860 C 840 871 850 884 864 900 C 878 916 894 931 913 946 C 932 961 955 974 981 985 C 1007 995 1035 1001 1067 1001 C 1077 1001 1087 1000 1097 1000 C 1107 999 1115 999 1122 999 C 1130 997 1138 997 1145 997 L 1133 735 Z M 455 -82 C 403 -82 367 -94 349 -119 C 331 -143 322 -173 322 -209 C 322 -248 339 -278 374 -298 C 408 -318 465 -328 545 -328 C 624 -328 686 -318 731 -298 C 776 -278 799 -244 799 -197 C 799 -149 785 -117 758 -103 C 730 -89 692 -82 643 -82 L 455 -82 Z M 522 432 C 638 432 696 488 696 602 C 696 715 638 772 522 772 C 406 772 348 715 348 602 C 348 488 406 432 522 432 Z" unicode="g" />
<glyph horiz-adv-x="1219" d="M 809 539 C 809 590 794 632 766 666 C 737 700 695 717 641 717 C 571 717 519 693 483 647 C 447 601 430 541 430 467 L 430 0 L 143 0 L 143 1456 L 430 1456 L 430 776 C 442 800 459 824 479 848 C 499 871 524 891 552 909 C 580 927 610 941 644 951 C 677 961 713 967 752 967 C 798 967 841 960 883 947 C 925 934 961 914 993 887 C 1024 859 1049 824 1068 780 C 1086 736 1096 684 1096 623 L 1096 0 L 809 0 L 809 539 Z" unicode="h" />
<glyph horiz-adv-x="573" d="M 143 0 L 143 942 L 430 942 L 430 0 L 143 0 Z M 455 1329 C 455 1277 439 1235 407 1205 C 375 1174 335 1159 287 1159 C 237 1159 197 1174 165 1205 C 133 1235 117 1277 117 1329 C 117 1381 133 1422 165 1454 C 197 1485 237 1501 287 1501 C 335 1501 375 1485 407 1454 C 439 1422 455 1381 455 1329 Z" unicode="i" />
<glyph horiz-adv-x="573" d="M 455 1329 C 455 1277 439 1235 407 1205 C 375 1174 335 1159 287 1159 C 237 1159 197 1174 165 1205 C 133 1235 117 1277 117 1329 C 117 1381 133 1422 165 1454 C 197 1485 237 1501 287 1501 C 335 1501 375 1485 407 1454 C 439 1422 455 1381 455 1329 Z M 430 942 L 430 -172 C 430 -267 402 -345 348 -405 C 293 -465 209 -496 96 -496 C 54 -496 16 -491 -17 -483 C -51 -475 -83 -465 -115 -453 L -94 -213 C -79 -221 -61 -228 -39 -234 C -17 -240 5 -244 27 -244 C 66 -244 95 -232 114 -208 C 133 -184 143 -136 143 -66 L 143 942 L 430 942 Z" unicode="j" />
<glyph horiz-adv-x="1085" d="M 721 942 L 1055 942 L 692 532 L 1075 0 L 737 0 L 504 377 L 422 295 L 422 0 L 143 0 L 143 1456 L 422 1456 L 422 586 L 721 942 Z" unicode="k" />
<glyph horiz-adv-x="573" d="M 143 1456 L 430 1456 L 430 0 L 143 0 L 143 1456 Z" unicode="l" />
<glyph horiz-adv-x="1843" d="M 1282 717 C 1212 717 1160 693 1126 647 C 1092 601 1075 541 1075 467 L 1075 0 L 788 0 L 788 539 C 788 590 776 632 753 666 C 730 700 691 717 637 717 C 567 717 515 693 481 647 C 447 601 430 541 430 467 L 430 0 L 143 0 L 143 748 C 143 766 142 787 141 810 C 139 832 138 853 137 872 C 135 895 134 918 133 942 L 416 942 C 416 924 416 905 418 887 C 419 869 420 849 421 827 C 421 805 422 782 422 756 L 432 756 C 455 814 494 864 548 905 C 602 946 670 967 752 967 C 824 967 887 947 942 908 C 996 869 1035 815 1057 745 L 1067 745 C 1079 775 1094 804 1114 831 C 1133 858 1156 882 1183 902 C 1209 922 1240 937 1275 949 C 1309 961 1350 967 1397 967 C 1443 967 1485 960 1525 947 C 1565 934 1599 914 1628 887 C 1656 859 1679 824 1695 780 C 1711 736 1720 684 1720 623 L 1720 0 L 1434 0 L 1434 539 C 1434 590 1422 632 1399 666 C 1375 700 1336 717 1282 717 Z" unicode="m" />
<glyph horiz-adv-x="1219" d="M 809 539 C 809 590 796 632 770 666 C 744 700 703 717 649 717 C 579 717 525 693 487 647 C 449 601 430 541 430 467 L 430 0 L 143 0 L 143 748 C 143 766 142 787 141 810 C 139 832 138 853 137 872 C 135 895 134 918 133 942 L 416 942 C 416 924 416 905 418 887 C 419 869 420 849 421 827 C 421 805 422 782 422 756 L 432 756 C 443 784 459 811 479 836 C 499 861 523 883 551 903 C 578 922 609 937 643 949 C 677 961 713 967 752 967 C 798 967 841 960 883 947 C 925 934 961 914 993 887 C 1024 859 1049 824 1068 780 C 1086 736 1096 684 1096 623 L 1096 0 L 809 0 L 809 539 Z" unicode="n" />
<glyph horiz-adv-x="1178" d="M 1116 471 C 1116 391 1102 321 1075 260 C 1047 198 1010 146 963 104 C 916 62 860 30 796 8 C 732 -14 663 -25 590 -25 C 516 -25 447 -14 383 8 C 319 30 263 62 215 104 C 167 146 129 198 102 260 C 74 321 61 391 61 471 C 61 550 74 621 102 683 C 129 745 167 796 215 838 C 263 880 319 912 383 934 C 447 956 516 967 590 967 C 663 967 732 956 796 934 C 860 912 916 880 963 838 C 1010 796 1047 745 1075 683 C 1102 621 1116 550 1116 471 Z M 819 471 C 819 567 797 636 754 678 C 711 720 656 741 590 741 C 521 741 465 720 422 678 C 379 636 358 567 358 471 C 358 374 379 305 422 263 C 465 221 521 201 590 201 C 656 201 711 221 754 263 C 797 305 819 374 819 471 Z" unicode="o" />
<glyph horiz-adv-x="1247" d="M 143 -471 L 143 750 C 143 770 142 791 141 814 C 139 836 138 857 137 877 C 135 898 134 920 133 942 L 410 942 C 410 927 410 911 412 895 C 413 879 414 862 415 844 C 415 826 416 806 418 786 L 428 786 C 440 810 455 834 474 856 C 492 878 514 897 538 913 C 562 929 591 942 623 952 C 655 962 692 967 733 967 C 787 967 842 956 897 935 C 951 913 1000 882 1042 841 C 1084 800 1119 749 1146 687 C 1172 625 1186 553 1186 471 C 1186 389 1172 317 1146 255 C 1119 193 1084 141 1042 100 C 1000 59 951 28 897 7 C 842 -14 787 -25 733 -25 C 658 -25 596 -10 548 18 C 499 46 461 81 434 123 L 424 123 C 424 109 424 95 426 82 C 427 71 428 58 429 44 C 429 30 430 17 430 6 L 430 -471 L 143 -471 Z M 889 471 C 889 520 882 562 870 596 C 858 630 841 657 819 679 C 797 700 771 716 743 726 C 714 736 683 741 649 741 C 581 741 525 720 482 678 C 439 636 418 567 418 471 C 418 374 439 305 482 263 C 525 221 581 201 649 201 C 683 201 714 206 743 216 C 771 226 797 241 819 263 C 841 284 858 312 870 346 C 882 380 889 421 889 471 Z" unicode="p" />
<glyph horiz-adv-x="1247" d="M 817 -471 L 817 6 C 817 17 817 30 817 44 C 817 58 817 71 819 82 C 820 95 821 109 823 123 L 813 123 C 785 81 747 46 698 18 C 649 -10 588 -25 514 -25 C 458 -25 403 -14 349 7 C 295 28 246 59 204 100 C 162 141 127 193 101 255 C 74 317 61 389 61 471 C 61 553 74 625 101 687 C 127 749 162 800 204 841 C 246 882 295 913 349 935 C 403 956 458 967 514 967 C 556 967 594 961 628 951 C 661 941 690 927 716 910 C 741 893 762 874 778 852 C 794 830 808 808 819 786 L 829 786 C 830 806 831 826 832 844 C 833 862 834 879 836 895 C 837 911 838 927 838 942 L 1114 942 C 1111 920 1109 898 1108 877 C 1106 857 1105 836 1105 814 C 1104 791 1104 770 1104 750 L 1104 -471 L 817 -471 Z M 358 471 C 358 374 381 305 427 263 C 473 221 530 201 598 201 C 632 201 663 206 691 216 C 719 226 743 241 764 263 C 784 284 800 312 812 346 C 823 380 829 421 829 471 C 829 520 823 562 812 596 C 800 630 784 657 764 679 C 743 700 719 716 691 726 C 663 736 632 741 598 741 C 530 741 473 720 427 678 C 381 636 358 567 358 471 Z" unicode="q" />
<glyph horiz-adv-x="809" d="M 754 639 C 744 641 727 644 705 647 C 683 649 658 651 631 651 C 593 651 562 643 536 629 C 510 615 490 596 474 572 C 458 548 447 520 440 487 C 433 454 430 419 430 383 L 430 0 L 143 0 L 143 748 C 143 766 142 787 141 810 C 139 832 138 853 137 872 C 135 895 134 918 133 942 L 416 942 C 416 920 416 896 418 872 C 419 852 420 829 421 804 C 421 778 422 753 422 727 L 432 727 C 447 771 468 810 496 846 C 518 876 549 903 588 929 C 627 954 677 967 739 967 C 743 967 748 966 754 966 C 760 965 765 964 768 963 L 754 639 Z" unicode="r" />
<glyph horiz-adv-x="983" d="M 752 678 C 731 697 700 716 659 734 C 618 752 569 762 512 762 C 475 762 443 753 417 737 C 390 721 377 701 377 678 C 377 662 381 650 390 641 C 398 631 412 623 430 616 C 448 609 470 602 496 596 C 522 589 552 581 586 571 C 630 559 672 545 712 531 C 752 517 787 499 817 478 C 847 456 870 430 888 398 C 906 366 915 326 915 279 C 915 239 904 201 884 165 C 864 129 834 97 796 69 C 758 41 712 18 660 1 C 608 -16 549 -25 483 -25 C 420 -25 366 -20 321 -10 C 276 0 238 10 206 24 C 174 38 148 52 128 66 C 108 80 92 92 82 100 L 74 106 L 231 291 C 255 262 288 237 329 215 C 370 193 417 182 469 182 C 513 182 549 189 579 203 C 608 217 623 238 623 266 C 623 282 619 295 611 305 C 603 314 591 322 574 330 C 557 338 534 345 505 353 C 475 361 439 371 397 383 C 356 395 317 407 280 421 C 243 435 210 452 182 472 C 153 492 130 516 114 546 C 98 575 90 611 90 653 C 90 699 101 742 123 780 C 145 818 174 852 212 880 C 249 908 293 929 345 944 C 396 959 451 967 510 967 C 572 967 626 962 672 953 C 718 944 756 934 786 922 C 816 910 839 898 857 886 C 874 874 886 864 893 858 L 752 678 Z" unicode="s" />
<glyph horiz-adv-x="819" d="M 174 942 L 174 1153 L 455 1214 L 455 942 L 733 942 L 733 700 L 455 700 L 455 365 C 455 325 464 292 482 267 C 500 241 531 229 575 229 C 607 229 637 233 665 243 C 693 253 715 264 731 276 L 748 39 C 720 22 683 7 635 -5 C 587 -18 534 -25 477 -25 C 433 -25 393 -19 355 -9 C 317 0 285 17 259 40 C 232 62 211 92 196 128 C 181 164 174 208 174 260 L 174 700 L 31 700 L 31 942 L 174 942 Z" unicode="t" />
<glyph horiz-adv-x="1198" d="M 410 942 L 410 403 C 410 351 421 309 445 275 C 469 241 508 225 563 225 C 633 225 684 245 718 285 C 751 325 768 383 768 457 L 768 942 L 1055 942 L 1055 195 C 1055 175 1055 154 1056 132 C 1056 109 1057 88 1059 70 C 1060 46 1062 23 1065 0 L 782 0 C 780 15 779 32 778 51 C 776 66 776 84 776 106 C 776 128 776 152 776 178 L 766 178 C 744 122 705 74 651 34 C 596 -5 530 -25 453 -25 C 406 -25 362 -18 322 -5 C 282 7 247 27 218 55 C 188 82 165 117 148 161 C 131 205 123 257 123 319 L 123 942 L 410 942 Z" unicode="u" />
<glyph horiz-adv-x="1075" d="M 371 0 L 12 942 L 319 942 L 545 254 L 764 942 L 1063 942 L 711 0 L 371 0 Z" unicode="v" />
<glyph horiz-adv-x="1597" d="M 958 942 L 1130 270 L 1288 942 L 1567 942 L 1280 0 L 961 0 L 795 692 L 627 0 L 303 0 L 31 942 L 317 942 L 473 270 L 639 942 L 958 942 Z" unicode="w" />
<glyph horiz-adv-x="1126" d="M 565 641 L 760 942 L 1096 942 L 770 467 L 1096 0 L 743 0 L 555 293 L 373 0 L 31 0 L 356 467 L 31 942 L 377 942 L 565 641 Z" unicode="x" />
<glyph horiz-adv-x="1030" d="M -14 942 L 293 942 L 516 248 L 729 942 L 1028 942 L 590 -274 C 574 -318 555 -354 533 -383 C 511 -411 486 -434 460 -450 C 433 -466 405 -478 376 -485 C 346 -492 317 -496 287 -496 C 253 -496 217 -492 179 -486 C 141 -480 109 -472 82 -463 L 127 -217 C 147 -223 168 -229 190 -234 C 212 -239 234 -242 256 -242 C 276 -242 296 -238 314 -230 C 332 -222 345 -207 352 -184 L 381 -100 L -14 942 Z" unicode="y" />
<glyph horiz-adv-x="948" d="M 879 752 L 793 653 L 422 242 L 887 242 L 887 0 L 61 0 L 61 190 L 145 283 L 528 700 L 80 700 L 80 942 L 879 942 L 879 752 Z" unicode="z" />
<glyph horiz-adv-x="717" d="M 221 317 C 221 361 205 393 174 414 C 142 435 105 446 61 446 L 61 684 C 105 684 142 694 174 714 C 205 734 221 767 221 811 L 221 1153 C 221 1227 233 1285 257 1326 C 281 1367 312 1397 350 1416 C 388 1435 432 1446 481 1450 C 530 1454 581 1456 633 1456 L 633 1314 C 600 1314 572 1312 549 1308 C 525 1304 506 1295 492 1283 C 478 1271 468 1254 462 1232 C 456 1210 453 1182 453 1146 L 453 759 C 453 736 447 714 437 693 C 427 671 413 652 396 635 C 379 618 360 604 338 592 C 316 580 294 573 272 569 L 272 561 C 294 557 316 549 338 537 C 360 525 379 511 396 494 C 413 477 427 458 437 437 C 447 415 453 393 453 370 L 453 -19 C 453 -54 456 -83 462 -105 C 468 -127 478 -144 492 -156 C 506 -168 525 -177 549 -181 C 572 -185 600 -187 633 -187 L 633 -328 C 581 -328 530 -326 481 -323 C 432 -319 388 -308 350 -289 C 312 -270 281 -240 257 -199 C 233 -158 221 -100 221 -25 L 221 317 Z" unicode="{" />
<glyph horiz-adv-x="614" d="M 195 -328 L 195 1456 L 420 1456 L 420 -328 L 195 -328 Z" unicode="|" />
<glyph horiz-adv-x="717" d="M 496 811 C 496 767 511 734 543 713 C 574 692 611 682 655 682 L 655 444 C 611 444 574 433 543 413 C 511 393 496 361 496 317 L 496 -25 C 496 -100 484 -158 460 -199 C 436 -240 404 -270 366 -289 C 328 -308 284 -319 235 -323 C 186 -326 136 -328 84 -328 L 84 -187 C 116 -187 144 -185 168 -181 C 191 -177 210 -168 224 -156 C 238 -144 249 -127 255 -105 C 261 -83 264 -54 264 -19 L 264 368 C 264 391 269 413 279 435 C 289 456 303 475 320 492 C 337 509 357 523 379 535 C 401 547 422 555 444 559 L 444 567 C 422 571 401 578 379 590 C 357 602 337 616 320 633 C 303 650 289 669 279 691 C 269 712 264 734 264 757 L 264 1146 C 264 1182 261 1210 255 1232 C 249 1254 238 1271 224 1283 C 210 1295 191 1304 168 1308 C 144 1312 116 1314 84 1314 L 84 1456 C 136 1456 186 1454 235 1450 C 284 1446 328 1435 366 1416 C 404 1397 436 1367 460 1326 C 484 1285 496 1227 496 1153 L 496 811 Z" unicode="}" />
<glyph horiz-adv-x="1044" d="M 907 625 C 911 608 915 585 919 557 C 923 528 926 501 926 477 C 926 453 922 431 916 410 C 910 389 899 370 883 352 C 867 334 847 320 823 310 C 798 300 767 295 731 295 C 699 295 667 300 633 312 C 599 324 565 336 533 350 C 501 364 471 376 443 388 C 415 400 391 406 373 406 C 341 406 320 399 309 386 C 298 373 293 357 293 338 C 293 332 293 327 293 321 C 293 315 293 309 295 303 L 139 303 C 132 325 127 349 124 376 C 120 402 119 425 119 444 C 119 497 136 541 171 577 C 205 613 253 631 315 631 C 345 631 377 625 413 613 C 449 601 484 589 519 576 C 553 563 586 551 616 539 C 646 527 670 522 686 522 C 713 522 731 528 741 540 C 751 552 756 566 756 582 C 756 588 756 595 756 603 C 756 610 755 617 754 625 L 907 625 Z" unicode="~" />
<glyph horiz-adv-x="512" d="M 119 502 L 119 -388 L 385 -388 L 385 502 L 119 502 Z M 410 799 C 410 849 394 889 363 919 C 332 948 295 963 252 963 C 212 963 177 948 147 919 C 117 889 102 849 102 799 C 102 751 117 712 147 683 C 177 653 212 639 252 639 C 295 639 332 653 363 683 C 394 712 410 751 410 799 Z" unicode="ยก" />
<glyph horiz-adv-x="1126" d="M 1036 152 C 1018 112 978 75 916 41 C 854 7 770 -13 664 -20 L 664 -209 L 520 -209 L 520 -16 C 458 -8 402 8 351 34 C 299 59 255 92 219 134 C 182 176 153 225 133 282 C 112 338 102 402 102 473 C 102 543 112 606 132 663 C 152 719 180 768 217 810 C 253 851 297 885 349 911 C 400 937 457 954 520 963 L 520 1151 L 664 1151 L 664 967 C 759 965 838 948 901 914 C 963 880 1008 840 1036 793 L 881 621 C 861 656 833 685 796 709 C 759 733 715 746 664 748 L 664 197 C 721 203 766 219 800 243 C 833 267 853 293 860 322 L 1036 152 Z M 520 743 C 462 728 421 697 396 650 C 370 603 358 544 358 473 C 358 403 371 346 398 300 C 424 254 465 222 520 205 L 520 743 Z" unicode="ยข" />
<glyph horiz-adv-x="1225" d="M 907 764 L 510 764 C 499 792 488 820 477 848 C 462 890 455 928 455 963 C 455 1021 473 1067 511 1099 C 548 1131 595 1147 651 1147 C 688 1147 719 1142 745 1133 C 771 1124 793 1112 812 1098 C 830 1084 846 1066 860 1046 C 874 1026 887 1005 899 983 L 1110 1116 C 1078 1187 1024 1245 948 1290 C 872 1335 772 1358 649 1358 C 579 1358 517 1348 461 1329 C 405 1309 357 1283 318 1249 C 279 1215 249 1173 228 1125 C 207 1077 197 1023 197 965 C 197 929 205 887 223 840 C 231 815 241 790 252 764 L 121 764 L 121 586 L 324 586 C 329 572 334 559 340 547 C 358 501 367 463 367 432 C 367 374 349 324 314 282 C 279 240 215 208 121 188 L 123 0 L 1061 0 L 1061 219 L 528 219 L 528 225 C 580 297 606 370 606 444 C 606 488 598 533 582 580 L 580 586 L 907 586 L 907 764 Z" unicode="ยฃ" />
<glyph horiz-adv-x="1229" d="M 991 963 C 1022 923 1046 878 1064 830 C 1081 782 1090 729 1090 672 C 1090 617 1081 566 1065 518 C 1048 470 1025 426 997 387 L 1135 254 L 1038 158 L 905 291 C 864 259 819 235 769 217 C 719 199 667 190 614 190 C 559 190 507 199 457 217 C 407 235 362 259 322 291 L 190 158 L 94 254 L 227 387 C 198 426 176 470 160 518 C 144 566 137 617 137 672 C 137 729 145 782 162 830 C 179 878 204 923 236 963 L 94 1104 L 190 1200 L 332 1057 C 371 1087 415 1110 464 1126 C 512 1142 562 1151 614 1151 C 666 1151 716 1142 765 1126 C 813 1110 857 1087 897 1057 L 1038 1200 L 1135 1104 L 991 963 Z M 879 672 C 879 712 873 750 861 786 C 849 822 833 853 811 880 C 789 906 761 927 728 942 C 694 957 656 965 614 965 C 570 965 532 957 500 942 C 467 927 439 906 417 880 C 394 853 377 822 365 786 C 353 750 348 712 348 672 C 348 630 354 592 366 557 C 378 521 396 490 419 464 C 441 437 469 416 502 400 C 534 384 572 377 614 377 C 656 377 694 384 727 400 C 759 416 787 437 810 464 C 832 490 849 521 861 557 C 873 592 879 630 879 672 Z" unicode="ยค" />
<glyph horiz-adv-x="1378" d="M 168 819 L 373 819 L 82 1333 L 389 1333 L 692 754 L 993 1333 L 1296 1333 L 1006 819 L 1221 819 L 1221 694 L 934 694 L 842 539 L 1221 539 L 1221 414 L 844 414 L 844 0 L 535 0 L 535 414 L 168 414 L 168 539 L 537 539 L 442 694 L 168 694 L 168 819 Z" unicode="ยฅ" />
<glyph horiz-adv-x="614" d="M 195 397 L 420 397 L 420 -328 L 195 -328 L 195 397 Z M 420 731 L 195 731 L 195 1456 L 420 1456 L 420 731 Z" unicode="ยฆ" />
<glyph horiz-adv-x="983" d="M 240 158 C 249 145 261 132 277 118 C 293 104 310 92 330 80 C 350 68 371 59 395 51 C 418 43 442 39 467 39 C 501 39 530 48 554 66 C 578 84 590 109 590 141 C 590 168 579 191 557 210 C 535 228 507 246 474 262 C 440 278 404 295 365 313 C 326 331 290 353 257 379 C 223 405 196 436 174 474 C 152 511 141 557 141 612 C 141 670 155 718 184 756 C 212 794 242 826 272 852 C 243 872 218 900 196 936 C 174 971 164 1013 164 1061 C 164 1096 171 1131 186 1167 C 201 1203 223 1235 253 1263 C 282 1291 318 1313 362 1331 C 406 1349 456 1358 514 1358 C 598 1358 669 1344 726 1318 C 782 1291 828 1255 862 1210 L 731 1085 C 711 1117 685 1141 652 1159 C 618 1177 578 1186 530 1186 C 489 1186 457 1175 435 1153 C 412 1131 401 1105 401 1075 C 401 1047 412 1024 435 1004 C 457 984 486 966 520 948 C 554 930 590 912 630 893 C 670 873 707 850 741 823 C 775 795 804 763 826 725 C 848 687 860 640 860 586 C 860 530 846 483 820 447 C 793 411 763 378 731 350 C 767 325 797 296 820 264 C 842 231 854 192 854 147 C 854 110 845 75 828 41 C 811 7 787 -23 755 -50 C 723 -76 683 -98 636 -114 C 588 -130 535 -139 475 -139 C 386 -139 312 -124 254 -95 C 195 -65 148 -27 113 20 L 240 158 Z M 649 559 C 649 585 642 607 629 627 C 616 647 599 665 577 681 C 555 697 531 711 505 724 C 478 736 451 750 424 764 C 408 750 392 730 374 706 C 356 682 348 655 348 627 C 348 603 354 583 368 565 C 382 547 400 531 422 516 C 444 501 468 487 495 475 C 521 463 548 450 575 438 C 591 453 607 470 622 490 C 637 510 646 533 649 559 Z" unicode="ยง" />
<glyph horiz-adv-x="574" d="M 209 1319 C 209 1271 193 1232 163 1203 C 132 1173 94 1159 48 1159 C 1 1159 -37 1173 -67 1203 C -97 1232 -112 1271 -112 1319 C -112 1368 -97 1407 -67 1437 C -37 1466 1 1481 48 1481 C 94 1481 132 1466 163 1437 C 193 1407 209 1368 209 1319 Z M 687 1319 C 687 1271 671 1232 640 1203 C 609 1173 572 1159 529 1159 C 481 1159 442 1173 412 1203 C 382 1232 367 1271 367 1319 C 367 1368 382 1407 412 1437 C 442 1466 481 1481 529 1481 C 572 1481 609 1466 640 1437 C 671 1407 687 1368 687 1319 Z" unicode="ยจ" />
<glyph horiz-adv-x="1509" d="M 944 543 L 1092 434 C 1066 390 1025 353 970 322 C 914 291 851 276 780 276 C 720 276 665 285 617 303 C 569 321 527 347 491 381 C 455 415 428 456 409 505 C 390 553 381 608 381 668 C 381 728 390 782 410 830 C 430 878 457 919 493 953 C 529 987 571 1012 619 1030 C 667 1048 720 1057 778 1057 C 813 1057 847 1052 880 1043 C 913 1034 943 1022 971 1008 C 998 994 1022 977 1043 957 C 1064 937 1081 917 1094 895 L 936 786 C 925 813 905 836 875 855 C 845 873 808 883 764 883 C 727 883 696 877 672 865 C 647 853 627 838 612 818 C 597 798 586 775 580 749 C 574 723 571 696 571 668 C 571 639 574 612 582 586 C 590 560 601 537 617 517 C 633 497 653 481 679 470 C 704 458 734 453 770 453 C 810 453 846 461 876 478 C 906 495 929 517 944 543 Z M 229 668 C 229 591 242 520 269 454 C 295 388 332 331 379 283 C 425 235 481 197 545 169 C 609 141 678 127 754 127 C 828 127 898 141 963 169 C 1028 197 1084 235 1130 283 C 1176 331 1213 388 1240 454 C 1266 520 1280 591 1280 668 C 1280 742 1266 813 1240 879 C 1213 945 1176 1002 1130 1050 C 1084 1098 1028 1136 963 1164 C 898 1192 828 1206 754 1206 C 678 1206 609 1192 545 1164 C 481 1136 425 1098 379 1050 C 332 1002 295 945 269 879 C 242 813 229 742 229 668 Z M 61 668 C 61 763 78 852 114 936 C 150 1019 199 1092 261 1155 C 323 1217 396 1267 480 1303 C 564 1339 655 1358 754 1358 C 852 1358 943 1339 1028 1303 C 1112 1267 1186 1217 1248 1155 C 1310 1092 1358 1019 1394 936 C 1430 852 1448 763 1448 668 C 1448 572 1430 482 1394 398 C 1358 314 1310 240 1248 178 C 1186 115 1112 65 1028 29 C 943 -6 852 -25 754 -25 C 655 -25 564 -6 480 29 C 396 65 323 115 261 178 C 199 240 150 314 114 398 C 78 482 61 572 61 668 Z" unicode="ยฉ" />
<glyph horiz-adv-x="881" d="M 829 788 C 840 788 850 789 860 792 L 860 642 C 846 632 829 624 809 617 C 788 609 762 606 731 606 C 683 606 648 618 626 642 C 604 666 593 697 592 735 L 584 735 C 568 696 542 663 505 637 C 467 610 420 597 362 597 C 280 597 217 617 171 659 C 125 701 102 755 102 821 C 102 857 110 888 128 913 C 145 937 167 957 193 973 C 219 989 249 1000 282 1008 C 315 1015 348 1021 381 1025 L 567 1050 L 567 1064 C 567 1105 553 1134 525 1150 C 497 1166 459 1175 412 1175 C 362 1175 321 1166 289 1148 C 256 1130 231 1109 213 1083 L 129 1216 C 141 1229 156 1243 175 1258 C 193 1273 215 1286 241 1298 C 266 1310 296 1320 332 1329 C 367 1338 407 1343 451 1343 C 554 1343 635 1321 693 1278 C 751 1235 780 1167 780 1073 C 780 1056 780 1036 780 1014 C 780 991 780 970 780 951 C 780 932 780 913 780 894 C 780 875 780 860 780 849 C 780 808 796 788 829 788 Z M 569 931 L 426 909 C 392 903 364 895 344 883 C 323 871 313 852 313 825 C 313 801 320 782 336 768 C 352 754 376 747 408 747 C 438 747 463 750 483 758 C 503 765 520 774 533 786 C 546 798 555 810 561 824 C 566 838 569 852 569 866 L 569 931 Z" unicode="ยช" />
<glyph horiz-adv-x="1075" d="M 311 74 L 61 442 L 311 811 L 539 811 L 313 442 L 539 74 L 311 74 Z M 731 74 L 481 442 L 731 811 L 959 811 L 733 442 L 959 74 L 731 74 Z" unicode="ยซ" />
<glyph horiz-adv-x="1044" d="M 922 567 L 922 72 L 696 72 L 696 358 L 123 358 L 123 567 L 922 567 Z" unicode="ยฌ" />
<glyph horiz-adv-x="696" d="M 61 604 L 635 604 L 635 369 L 61 369 L 61 604 Z" unicode="ยญ" />
<glyph horiz-adv-x="1509" d="M 870 283 L 752 559 L 674 559 L 674 283 L 489 283 L 489 1057 L 780 1057 C 880 1057 955 1033 1005 986 C 1055 938 1081 881 1081 813 C 1081 780 1077 751 1069 727 C 1061 702 1049 680 1035 662 C 1021 644 1004 629 986 617 C 967 605 948 597 930 592 L 1071 283 L 870 283 Z M 674 705 L 762 705 C 790 705 813 708 831 714 C 849 720 862 727 872 736 C 882 745 888 755 892 767 C 895 778 897 790 897 803 C 897 830 887 854 868 874 C 849 894 814 905 764 905 L 674 905 L 674 705 Z M 229 668 C 229 591 242 520 269 454 C 295 388 332 331 379 283 C 425 235 481 197 545 169 C 609 141 678 127 754 127 C 828 127 898 141 963 169 C 1028 197 1084 235 1130 283 C 1176 331 1213 388 1240 454 C 1266 520 1280 591 1280 668 C 1280 742 1266 813 1240 879 C 1213 945 1176 1002 1130 1050 C 1084 1098 1028 1136 963 1164 C 898 1192 828 1206 754 1206 C 678 1206 609 1192 545 1164 C 481 1136 425 1098 379 1050 C 332 1002 295 945 269 879 C 242 813 229 742 229 668 Z M 61 668 C 61 763 78 852 114 936 C 150 1019 199 1092 261 1155 C 323 1217 396 1267 480 1303 C 564 1339 655 1358 754 1358 C 852 1358 943 1339 1028 1303 C 1112 1267 1186 1217 1248 1155 C 1310 1092 1358 1019 1394 936 C 1430 852 1448 763 1448 668 C 1448 572 1430 482 1394 398 C 1358 314 1310 240 1248 178 C 1186 115 1112 65 1028 29 C 943 -6 852 -25 754 -25 C 655 -25 564 -6 480 29 C 396 65 323 115 261 178 C 199 240 150 314 114 398 C 78 482 61 572 61 668 Z" unicode="ยฎ" />
<glyph horiz-adv-x="574" d="M -61 1354 L 635 1354 L 635 1159 L -61 1159 L -61 1354 Z" unicode="ยฏ" />
<glyph horiz-adv-x="717" d="M 358 1454 C 396 1454 433 1446 467 1432 C 501 1418 530 1398 556 1374 C 581 1349 601 1320 615 1286 C 629 1252 637 1216 637 1178 C 637 1138 629 1101 615 1068 C 601 1034 581 1005 556 981 C 530 956 501 936 467 922 C 433 908 396 901 358 901 C 318 901 282 908 249 922 C 215 936 186 956 161 981 C 135 1005 115 1034 101 1068 C 87 1101 80 1138 80 1178 C 80 1216 87 1252 101 1286 C 115 1320 135 1349 161 1374 C 186 1398 215 1418 249 1432 C 282 1446 318 1454 358 1454 Z M 358 1036 C 399 1036 432 1049 458 1075 C 483 1101 496 1135 496 1178 C 496 1218 483 1252 458 1279 C 432 1305 399 1319 358 1319 C 317 1319 284 1305 259 1279 C 233 1252 221 1218 221 1178 C 221 1135 233 1101 259 1075 C 284 1049 317 1036 358 1036 Z" unicode="ยฐ" />
<glyph horiz-adv-x="1044" d="M 962 209 L 962 0 L 83 0 L 83 209 L 962 209 Z M 83 874 L 410 874 L 410 1201 L 635 1201 L 635 874 L 962 874 L 962 665 L 635 665 L 635 339 L 410 339 L 410 665 L 83 665 L 83 874 Z" unicode="ยฑ" />
<glyph horiz-adv-x="778" d="M 84 1436 C 81 1449 79 1459 77 1465 C 75 1471 74 1481 74 1493 C 74 1519 79 1545 91 1571 C 102 1596 119 1618 143 1638 C 167 1658 197 1674 233 1686 C 269 1698 311 1704 361 1704 C 399 1704 434 1699 468 1689 C 502 1679 531 1665 557 1647 C 582 1628 602 1605 617 1577 C 631 1549 639 1517 639 1481 C 639 1441 632 1406 618 1375 C 604 1344 585 1315 561 1288 C 536 1261 506 1235 472 1210 C 437 1185 398 1159 356 1133 L 707 1133 L 707 975 L 98 975 L 98 1145 C 114 1155 134 1166 158 1178 C 182 1190 208 1204 235 1219 C 262 1234 289 1250 317 1267 C 344 1284 369 1302 391 1321 C 413 1340 430 1360 444 1382 C 458 1403 465 1425 465 1448 C 465 1478 455 1502 435 1522 C 415 1542 387 1552 351 1552 C 318 1552 292 1543 272 1525 C 252 1507 242 1484 242 1456 C 242 1437 245 1417 252 1395 L 84 1436 Z" unicode="ยฒ" />
<glyph horiz-adv-x="778" d="M 96 1586 C 109 1606 126 1624 147 1639 C 168 1654 191 1666 216 1676 C 241 1685 267 1692 295 1696 C 322 1700 349 1703 375 1703 C 413 1703 449 1698 482 1689 C 515 1680 544 1668 568 1652 C 592 1636 610 1618 624 1597 C 638 1576 645 1553 645 1529 C 645 1507 641 1488 633 1471 C 625 1453 615 1438 603 1424 C 590 1410 575 1398 559 1388 C 543 1378 526 1369 510 1361 C 533 1356 555 1349 577 1341 C 598 1333 617 1321 634 1307 C 650 1293 663 1275 673 1254 C 683 1233 688 1208 688 1179 C 688 1153 683 1130 673 1110 C 663 1089 649 1070 633 1054 C 616 1038 596 1023 574 1011 C 552 999 528 989 504 981 C 479 973 454 967 429 963 C 403 959 379 957 356 957 C 327 957 301 958 277 961 C 253 964 231 969 210 976 C 188 983 167 992 147 1003 C 127 1013 106 1027 86 1043 L 168 1172 C 188 1153 216 1137 251 1125 C 285 1113 321 1107 358 1107 C 376 1107 394 1108 411 1112 C 427 1116 442 1121 454 1129 C 466 1137 476 1146 483 1158 C 490 1169 494 1183 494 1199 C 494 1211 491 1221 485 1231 C 479 1241 471 1249 461 1256 C 451 1263 439 1269 425 1273 C 411 1277 397 1279 383 1279 C 353 1279 329 1277 310 1274 C 290 1271 269 1267 246 1263 L 258 1404 C 259 1403 263 1402 269 1401 C 275 1400 282 1399 291 1399 C 300 1398 310 1397 321 1397 C 331 1396 342 1396 352 1396 C 366 1396 379 1397 391 1401 C 403 1405 414 1410 424 1417 C 433 1423 440 1431 446 1441 C 452 1450 455 1461 455 1473 C 455 1500 443 1520 421 1532 C 399 1544 370 1551 334 1551 C 293 1551 257 1543 227 1527 C 197 1511 176 1490 164 1463 L 96 1586 Z" unicode="ยณ" />
<glyph horiz-adv-x="574" d="M 480 1645 L 625 1499 L 287 1159 L 142 1305 L 480 1645 Z" unicode="ยด" />
<glyph horiz-adv-x="1198" d="M 575 -25 C 543 -25 517 -21 495 -15 C 473 -9 456 -2 442 6 C 426 15 413 26 403 39 L 393 39 C 393 25 393 11 395 -2 C 396 -12 397 -25 398 -39 C 398 -53 399 -66 399 -78 L 399 -471 L 123 -471 L 123 942 L 410 942 L 410 403 C 410 351 421 309 445 275 C 469 241 508 225 563 225 C 633 225 684 245 718 285 C 751 325 768 383 768 457 L 768 942 L 1055 942 L 1055 195 C 1055 175 1055 154 1056 132 C 1056 109 1057 88 1059 70 C 1060 46 1062 23 1065 0 L 803 0 C 801 16 800 33 799 51 C 797 66 797 83 797 101 C 797 119 797 138 797 158 L 786 158 C 775 122 761 91 743 66 C 727 42 705 21 679 3 C 652 -15 617 -25 575 -25 Z" unicode="ยต" />
<glyph horiz-adv-x="1188" d="M 575 1333 L 575 -125 L 346 -125 L 346 477 C 286 477 230 485 178 503 C 126 521 80 547 41 582 C 1 617 -29 661 -52 713 C -74 765 -86 825 -86 895 C -86 965 -74 1028 -52 1083 C -29 1137 1 1183 41 1220 C 80 1257 126 1285 178 1304 C 230 1323 286 1333 346 1333 L 575 1333 Z M 1167 1120 L 989 1120 L 989 -125 L 760 -125 L 760 1333 L 1167 1333 L 1167 1120 Z" unicode="ยถ" />
<glyph horiz-adv-x="393" d="M 351 479 C 351 429 335 389 305 359 C 275 329 238 314 195 314 C 155 314 120 329 89 359 C 58 389 43 429 43 479 C 43 527 58 565 89 595 C 120 624 155 639 195 639 C 238 639 275 624 305 595 C 335 565 351 527 351 479 Z" unicode="ยท" />
<glyph horiz-adv-x="574" d="M 323 35 C 340 25 358 13 376 0 C 479 -70 531 -139 531 -207 C 531 -341 441 -408 263 -408 C 185 -408 111 -384 42 -338 L 114 -227 C 153 -255 195 -270 241 -270 C 309 -270 343 -240 343 -180 C 343 -116 276 -50 144 18 L 323 35 Z" unicode="ยธ" />
<glyph horiz-adv-x="778" d="M 125 1138 L 326 1138 L 326 1473 C 317 1469 304 1464 286 1458 C 268 1452 249 1446 228 1440 C 207 1434 186 1430 165 1427 C 143 1423 125 1422 111 1422 L 80 1590 C 100 1590 125 1593 153 1599 C 181 1605 209 1613 237 1623 C 265 1632 290 1643 312 1655 C 334 1667 350 1680 358 1693 L 528 1693 L 528 1138 L 719 1138 L 719 978 L 125 978 L 125 1138 Z" unicode="ยน" />
<glyph horiz-adv-x="924" d="M 862 970 C 862 911 851 858 831 812 C 811 766 782 727 746 696 C 710 664 667 640 619 624 C 571 607 518 599 461 599 C 406 599 354 607 305 624 C 255 640 213 664 177 696 C 141 727 112 766 92 812 C 71 858 61 911 61 970 C 61 1030 71 1083 92 1129 C 112 1175 141 1214 177 1246 C 213 1278 255 1302 305 1318 C 354 1334 406 1343 461 1343 C 518 1343 571 1334 619 1318 C 667 1302 710 1278 746 1246 C 782 1214 811 1175 831 1129 C 851 1083 862 1030 862 970 Z M 629 970 C 629 1040 613 1089 582 1119 C 550 1148 510 1163 461 1163 C 413 1163 373 1148 342 1119 C 310 1089 295 1040 295 970 C 295 902 310 853 342 823 C 373 793 413 778 461 778 C 510 778 550 793 582 823 C 613 853 629 902 629 970 Z" unicode="ยบ" />
<glyph horiz-adv-x="1075" d="M 344 811 L 594 442 L 344 74 L 117 74 L 342 442 L 117 811 L 344 811 Z M 764 811 L 1014 442 L 764 74 L 537 74 L 762 442 L 537 811 L 764 811 Z" unicode="ยป" />
<glyph horiz-adv-x="1741" d="M 57 778 L 258 778 L 258 1113 C 249 1109 236 1104 218 1098 C 200 1092 181 1086 160 1080 C 139 1074 118 1070 97 1067 C 75 1063 57 1062 43 1062 L 12 1230 C 32 1230 57 1233 85 1239 C 113 1245 141 1253 169 1263 C 197 1272 222 1283 244 1295 C 266 1307 282 1320 290 1333 L 460 1333 L 460 778 L 651 778 L 651 618 L 57 618 L 57 778 Z M 608 0 L 381 0 L 1132 1333 L 1360 1333 L 608 0 Z M 1293 715 L 1540 715 L 1540 278 L 1655 278 L 1655 119 L 1540 119 L 1540 0 L 1360 0 L 1360 119 L 994 119 L 947 231 L 1293 715 Z M 1360 557 L 1170 278 L 1360 278 L 1360 557 Z" unicode="ยผ" />
<glyph horiz-adv-x="1741" d="M 57 778 L 258 778 L 258 1113 C 249 1109 236 1104 218 1098 C 200 1092 181 1086 160 1080 C 139 1074 118 1070 97 1067 C 75 1063 57 1062 43 1062 L 12 1230 C 32 1230 57 1233 85 1239 C 113 1245 141 1253 169 1263 C 197 1272 222 1283 244 1295 C 266 1307 282 1320 290 1333 L 460 1333 L 460 778 L 651 778 L 651 618 L 57 618 L 57 778 Z M 608 0 L 381 0 L 1132 1333 L 1360 1333 L 608 0 Z M 1055 461 C 1052 474 1050 484 1048 490 C 1046 496 1045 506 1045 518 C 1045 544 1050 570 1062 596 C 1073 621 1090 643 1114 663 C 1138 683 1168 699 1204 711 C 1240 723 1282 729 1332 729 C 1370 729 1405 724 1439 714 C 1473 704 1502 690 1528 672 C 1553 653 1573 630 1588 602 C 1602 574 1610 542 1610 506 C 1610 466 1603 431 1589 400 C 1575 369 1556 340 1532 313 C 1507 286 1477 260 1443 235 C 1408 210 1369 184 1327 158 L 1678 158 L 1678 0 L 1069 0 L 1069 170 C 1085 180 1105 191 1129 203 C 1153 215 1179 229 1206 244 C 1233 259 1260 275 1288 292 C 1315 309 1340 327 1362 346 C 1384 365 1401 385 1415 407 C 1429 428 1436 450 1436 473 C 1436 503 1426 527 1406 547 C 1386 567 1358 577 1322 577 C 1289 577 1263 568 1243 550 C 1223 532 1213 509 1213 481 C 1213 462 1216 442 1223 420 L 1055 461 Z" unicode="ยฝ" />
<glyph horiz-adv-x="1741" d="M 51 1226 C 64 1246 81 1264 102 1279 C 123 1294 146 1306 171 1316 C 196 1325 222 1332 250 1336 C 277 1340 304 1343 330 1343 C 368 1343 404 1338 437 1329 C 470 1320 499 1308 523 1292 C 547 1276 565 1258 579 1237 C 593 1216 600 1193 600 1169 C 600 1147 596 1128 588 1111 C 580 1093 570 1078 558 1064 C 545 1050 530 1038 514 1028 C 498 1018 481 1009 465 1001 C 488 996 510 989 532 981 C 553 973 572 961 589 947 C 605 933 618 915 628 894 C 638 873 643 848 643 819 C 643 793 638 770 628 750 C 618 729 604 710 588 694 C 571 678 551 663 529 651 C 507 639 483 629 459 621 C 434 613 409 607 384 603 C 358 599 334 597 311 597 C 282 597 256 598 232 601 C 208 604 186 609 165 616 C 143 623 122 632 102 643 C 82 653 61 667 41 683 L 123 812 C 143 793 171 777 206 765 C 240 753 276 747 313 747 C 331 747 349 748 366 752 C 382 756 397 761 409 769 C 421 777 431 786 438 798 C 445 809 449 823 449 839 C 449 851 446 861 440 871 C 434 881 426 889 416 896 C 406 903 394 909 380 913 C 366 917 352 919 338 919 C 308 919 284 917 265 914 C 245 911 224 907 201 903 L 213 1044 C 214 1043 218 1042 224 1041 C 230 1040 237 1039 246 1039 C 255 1038 265 1037 276 1037 C 286 1036 297 1036 307 1036 C 321 1036 334 1037 346 1041 C 358 1045 369 1050 379 1057 C 388 1063 395 1071 401 1081 C 407 1090 410 1101 410 1113 C 410 1140 398 1160 376 1172 C 354 1184 325 1191 289 1191 C 248 1191 212 1183 182 1167 C 152 1151 131 1130 119 1103 L 51 1226 Z M 608 0 L 381 0 L 1132 1333 L 1360 1333 L 608 0 Z M 1294 715 L 1541 715 L 1541 278 L 1656 278 L 1656 119 L 1541 119 L 1541 0 L 1361 0 L 1361 119 L 995 119 L 948 231 L 1294 715 Z M 1361 557 L 1171 278 L 1361 278 L 1361 557 Z" unicode="ยพ" />
<glyph horiz-adv-x="922" d="M 891 -220 C 875 -249 852 -275 823 -298 C 793 -322 760 -342 722 -359 C 684 -376 643 -389 599 -399 C 555 -409 509 -413 463 -413 C 396 -413 337 -403 285 -382 C 233 -362 189 -333 153 -296 C 117 -260 89 -216 70 -165 C 50 -115 41 -60 41 -1 C 41 104 71 189 133 251 C 195 313 281 350 392 362 L 392 536 L 658 536 L 658 203 C 621 200 582 196 540 190 C 498 184 459 175 423 161 C 387 147 357 128 334 104 C 310 79 299 46 299 6 C 299 -14 302 -35 310 -55 C 318 -75 329 -94 344 -110 C 359 -126 379 -140 404 -150 C 428 -160 457 -165 490 -165 C 521 -165 550 -161 577 -151 C 603 -141 628 -129 650 -113 C 672 -97 692 -80 709 -61 C 725 -42 738 -22 748 -1 L 891 -220 Z M 367 799 C 367 849 382 889 413 919 C 443 948 481 963 525 963 C 564 963 599 948 629 919 C 659 889 674 849 674 799 C 674 751 659 712 629 683 C 599 653 564 639 525 639 C 481 639 443 653 413 683 C 382 712 367 751 367 799 Z" unicode="ยฟ" />
<glyph horiz-adv-x="1315" d="M 10 0 L 463 1333 L 811 1333 L 1305 0 L 981 0 L 897 242 L 401 242 L 328 0 L 10 0 Z M 467 492 L 823 492 L 633 1042 L 467 492 Z M 784 1696 L 639 1550 L 301 1890 L 446 2036 L 784 1696 Z" unicode="ร" />
<glyph horiz-adv-x="1315" d="M 10 0 L 463 1333 L 811 1333 L 1305 0 L 981 0 L 897 242 L 401 242 L 328 0 L 10 0 Z M 467 492 L 823 492 L 633 1042 L 467 492 Z M 838 2036 L 983 1890 L 645 1550 L 500 1696 L 838 2036 Z" unicode="ร" />
<glyph horiz-adv-x="1315" d="M 10 0 L 463 1333 L 811 1333 L 1305 0 L 981 0 L 897 242 L 401 242 L 328 0 L 10 0 Z M 467 492 L 823 492 L 633 1042 L 467 492 Z M 205 1550 L 572 1939 L 701 1939 L 1065 1550 L 807 1550 L 635 1788 L 465 1550 L 205 1550 Z" unicode="ร" />
<glyph horiz-adv-x="1315" d="M 10 0 L 463 1333 L 811 1333 L 1305 0 L 981 0 L 897 242 L 401 242 L 328 0 L 10 0 Z M 467 492 L 823 492 L 633 1042 L 467 492 Z M 475 1860 C 499 1860 525 1854 553 1842 C 581 1830 609 1817 636 1803 C 663 1789 688 1776 711 1764 C 733 1752 751 1747 765 1747 C 777 1747 786 1750 794 1757 C 801 1763 807 1772 811 1783 C 815 1793 819 1805 822 1819 C 824 1833 827 1847 830 1862 L 980 1804 C 983 1778 981 1750 975 1720 C 968 1690 956 1663 940 1638 C 924 1612 903 1591 877 1575 C 851 1558 821 1550 787 1550 C 761 1550 735 1555 707 1567 C 679 1579 653 1592 627 1606 C 601 1620 576 1633 554 1645 C 531 1657 512 1663 498 1663 C 487 1663 478 1659 471 1653 C 463 1647 457 1638 452 1628 C 447 1618 443 1606 440 1592 C 437 1578 434 1563 432 1548 L 282 1606 C 280 1642 284 1675 294 1706 C 303 1737 316 1764 334 1787 C 352 1809 373 1827 397 1840 C 421 1853 447 1860 475 1860 Z" unicode="ร" />
<glyph horiz-adv-x="1315" d="M 10 0 L 463 1333 L 811 1333 L 1305 0 L 981 0 L 897 242 L 401 242 L 328 0 L 10 0 Z M 467 492 L 823 492 L 633 1042 L 467 492 Z M 554 1710 C 554 1662 538 1623 508 1594 C 477 1564 439 1550 393 1550 C 346 1550 308 1564 278 1594 C 248 1623 233 1662 233 1710 C 233 1759 248 1798 278 1828 C 308 1857 346 1872 393 1872 C 439 1872 477 1857 508 1828 C 538 1798 554 1759 554 1710 Z M 1032 1710 C 1032 1662 1016 1623 985 1594 C 954 1564 917 1550 874 1550 C 826 1550 787 1564 757 1594 C 727 1623 712 1662 712 1710 C 712 1759 727 1798 757 1828 C 787 1857 826 1872 874 1872 C 917 1872 954 1857 985 1828 C 1016 1798 1032 1759 1032 1710 Z" unicode="ร" />
<glyph horiz-adv-x="1315" d="M 10 0 L 463 1333 L 811 1333 L 1305 0 L 981 0 L 897 242 L 401 242 L 328 0 L 10 0 Z M 467 492 L 823 492 L 633 1042 L 467 492 Z M 365 1810 C 365 1846 371 1879 383 1911 C 395 1942 413 1969 437 1992 C 461 2015 489 2033 523 2047 C 557 2061 594 2068 635 2068 C 675 2068 711 2061 745 2047 C 778 2033 807 2015 831 1992 C 855 1969 873 1942 886 1911 C 899 1879 906 1846 906 1810 C 906 1735 881 1673 831 1624 C 781 1574 715 1550 635 1550 C 551 1550 485 1574 437 1624 C 389 1673 365 1735 365 1810 Z M 514 1810 C 514 1769 525 1738 547 1718 C 569 1697 598 1687 635 1687 C 670 1687 699 1697 722 1718 C 744 1738 756 1769 756 1810 C 756 1850 744 1880 722 1900 C 699 1920 670 1931 635 1931 C 598 1931 569 1920 547 1900 C 525 1880 514 1850 514 1810 Z" unicode="ร" />
<glyph horiz-adv-x="1849" d="M 803 518 L 803 1106 L 772 1106 L 496 518 L 803 518 Z M 395 276 L 266 0 L -41 0 L 604 1333 L 1716 1333 L 1716 1081 L 1100 1081 L 1100 795 L 1671 795 L 1671 547 L 1100 547 L 1100 252 L 1737 252 L 1737 0 L 803 0 L 803 276 L 395 276 Z" unicode="ร" />
<glyph horiz-adv-x="1382" d="M 1057 920 C 1033 967 995 1008 943 1043 C 890 1078 819 1096 729 1096 C 611 1096 525 1058 471 982 C 416 906 389 803 389 674 C 389 538 419 432 479 354 C 539 276 626 238 741 238 C 831 238 903 256 955 294 C 1007 331 1045 376 1067 428 L 1319 291 C 1269 195 1196 118 1099 61 C 1002 3 879 -25 731 -25 C 635 -25 547 -9 467 22 C 386 54 317 99 259 159 C 201 218 155 290 123 376 C 90 461 74 558 74 666 C 74 774 90 872 124 958 C 157 1044 203 1116 263 1176 C 322 1236 392 1281 473 1312 C 553 1342 641 1358 735 1358 C 811 1358 881 1349 943 1333 C 1005 1317 1059 1296 1107 1270 C 1154 1244 1193 1214 1224 1182 C 1254 1149 1277 1117 1292 1085 L 1057 920 Z M 699 35 C 716 25 734 13 752 0 C 855 -70 907 -139 907 -207 C 907 -341 817 -408 639 -408 C 561 -408 487 -384 418 -338 L 490 -227 C 529 -255 571 -270 617 -270 C 685 -270 719 -240 719 -180 C 719 -116 652 -50 520 18 L 699 35 Z" unicode="ร" />
<glyph horiz-adv-x="1219" d="M 451 1081 L 451 795 L 1040 795 L 1040 547 L 451 547 L 451 252 L 1106 252 L 1106 0 L 143 0 L 143 1333 L 1085 1333 L 1085 1081 L 451 1081 Z M 804 1696 L 659 1550 L 321 1890 L 466 2036 L 804 1696 Z" unicode="ร" />
<glyph horiz-adv-x="1219" d="M 451 1081 L 451 795 L 1040 795 L 1040 547 L 451 547 L 451 252 L 1106 252 L 1106 0 L 143 0 L 143 1333 L 1085 1333 L 1085 1081 L 451 1081 Z M 818 2036 L 963 1890 L 625 1550 L 480 1696 L 818 2036 Z" unicode="ร" />
<glyph horiz-adv-x="1219" d="M 451 1081 L 451 795 L 1040 795 L 1040 547 L 451 547 L 451 252 L 1106 252 L 1106 0 L 143 0 L 143 1333 L 1085 1333 L 1085 1081 L 451 1081 Z M 188 1550 L 555 1939 L 684 1939 L 1048 1550 L 790 1550 L 618 1788 L 448 1550 L 188 1550 Z" unicode="ร" />
<glyph horiz-adv-x="1219" d="M 451 1081 L 451 795 L 1040 795 L 1040 547 L 451 547 L 451 252 L 1106 252 L 1106 0 L 143 0 L 143 1333 L 1085 1333 L 1085 1081 L 451 1081 Z M 544 1710 C 544 1662 528 1623 498 1594 C 467 1564 429 1550 383 1550 C 336 1550 298 1564 268 1594 C 238 1623 223 1662 223 1710 C 223 1759 238 1798 268 1828 C 298 1857 336 1872 383 1872 C 429 1872 467 1857 498 1828 C 528 1798 544 1759 544 1710 Z M 1022 1710 C 1022 1662 1006 1623 975 1594 C 944 1564 907 1550 864 1550 C 816 1550 777 1564 747 1594 C 717 1623 702 1662 702 1710 C 702 1759 717 1798 747 1828 C 777 1857 816 1872 864 1872 C 907 1872 944 1857 975 1828 C 1006 1798 1022 1759 1022 1710 Z" unicode="ร" />
<glyph horiz-adv-x="594" d="M 143 0 L 143 1333 L 451 1333 L 451 0 L 143 0 Z M 441 1696 L 296 1550 L -42 1890 L 103 2036 L 441 1696 Z" unicode="ร" />
<glyph horiz-adv-x="594" d="M 143 0 L 143 1333 L 451 1333 L 451 0 L 143 0 Z M 493 2036 L 638 1890 L 300 1550 L 155 1696 L 493 2036 Z" unicode="ร" />
<glyph horiz-adv-x="594" d="M 143 0 L 143 1333 L 451 1333 L 451 0 L 143 0 Z M -131 1550 L 236 1939 L 365 1939 L 729 1550 L 471 1550 L 299 1788 L 129 1550 L -131 1550 Z" unicode="ร" />
<glyph horiz-adv-x="594" d="M 143 0 L 143 1333 L 451 1333 L 451 0 L 143 0 Z M 216 1710 C 216 1662 200 1623 170 1594 C 139 1564 101 1550 55 1550 C 8 1550 -30 1564 -60 1594 C -90 1623 -105 1662 -105 1710 C -105 1759 -90 1798 -60 1828 C -30 1857 8 1872 55 1872 C 101 1872 139 1857 170 1828 C 200 1798 216 1759 216 1710 Z M 694 1710 C 694 1662 678 1623 647 1594 C 616 1564 579 1550 536 1550 C 488 1550 449 1564 419 1594 C 389 1623 374 1662 374 1710 C 374 1759 389 1798 419 1828 C 449 1857 488 1872 536 1872 C 579 1872 616 1857 647 1828 C 678 1798 694 1759 694 1710 Z" unicode="ร" />
<glyph horiz-adv-x="1485" d="M 51 793 L 205 793 L 205 1333 L 754 1333 C 962 1333 1124 1275 1240 1161 C 1355 1046 1413 881 1413 666 C 1413 452 1355 288 1240 173 C 1124 57 962 0 754 0 L 205 0 L 205 549 L 51 549 L 51 793 Z M 733 252 C 854 252 946 284 1010 350 C 1074 416 1106 521 1106 666 C 1106 812 1074 917 1010 983 C 946 1048 854 1081 733 1081 L 506 1081 L 506 793 L 811 793 L 811 549 L 506 549 L 506 252 L 733 252 Z" unicode="ร" />
<glyph horiz-adv-x="1487" d="M 430 0 L 143 0 L 143 1333 L 455 1333 L 1057 414 L 1057 1333 L 1343 1333 L 1343 0 L 1030 0 L 430 893 L 430 0 Z M 601 1860 C 625 1860 651 1854 679 1842 C 707 1830 735 1817 762 1803 C 789 1789 814 1776 837 1764 C 859 1752 877 1747 891 1747 C 903 1747 912 1750 920 1757 C 927 1763 933 1772 937 1783 C 941 1793 945 1805 948 1819 C 950 1833 953 1847 956 1862 L 1106 1804 C 1109 1778 1107 1750 1101 1720 C 1094 1690 1082 1663 1066 1638 C 1050 1612 1029 1591 1003 1575 C 977 1558 947 1550 913 1550 C 887 1550 861 1555 833 1567 C 805 1579 779 1592 753 1606 C 727 1620 702 1633 680 1645 C 657 1657 638 1663 624 1663 C 613 1663 604 1659 597 1653 C 589 1647 583 1638 578 1628 C 573 1618 569 1606 566 1592 C 563 1578 560 1563 558 1548 L 408 1606 C 406 1642 410 1675 420 1706 C 429 1737 442 1764 460 1787 C 478 1809 499 1827 523 1840 C 547 1853 573 1860 601 1860 Z" unicode="ร" />
<glyph horiz-adv-x="1468" d="M 1395 668 C 1395 560 1378 463 1345 377 C 1312 291 1266 218 1208 159 C 1149 99 1079 54 999 22 C 919 -9 831 -25 735 -25 C 639 -25 551 -9 471 22 C 390 54 320 99 262 159 C 203 218 157 291 124 377 C 90 463 74 560 74 668 C 74 776 90 873 124 959 C 157 1044 203 1116 262 1176 C 320 1236 390 1281 471 1312 C 551 1342 639 1358 735 1358 C 831 1358 919 1342 999 1312 C 1079 1281 1149 1236 1208 1176 C 1266 1116 1312 1044 1345 959 C 1378 873 1395 776 1395 668 Z M 1085 668 C 1085 812 1052 920 988 991 C 923 1062 839 1098 735 1098 C 631 1098 547 1062 481 991 C 415 920 383 812 383 668 C 383 524 415 416 481 344 C 547 272 631 236 735 236 C 839 236 923 272 988 344 C 1052 416 1085 524 1085 668 Z M 886 1696 L 741 1550 L 403 1890 L 548 2036 L 886 1696 Z" unicode="ร" />
<glyph horiz-adv-x="1468" d="M 1395 668 C 1395 560 1378 463 1345 377 C 1312 291 1266 218 1208 159 C 1149 99 1079 54 999 22 C 919 -9 831 -25 735 -25 C 639 -25 551 -9 471 22 C 390 54 320 99 262 159 C 203 218 157 291 124 377 C 90 463 74 560 74 668 C 74 776 90 873 124 959 C 157 1044 203 1116 262 1176 C 320 1236 390 1281 471 1312 C 551 1342 639 1358 735 1358 C 831 1358 919 1342 999 1312 C 1079 1281 1149 1236 1208 1176 C 1266 1116 1312 1044 1345 959 C 1378 873 1395 776 1395 668 Z M 1085 668 C 1085 812 1052 920 988 991 C 923 1062 839 1098 735 1098 C 631 1098 547 1062 481 991 C 415 920 383 812 383 668 C 383 524 415 416 481 344 C 547 272 631 236 735 236 C 839 236 923 272 988 344 C 1052 416 1085 524 1085 668 Z M 944 2036 L 1089 1890 L 751 1550 L 606 1696 L 944 2036 Z" unicode="ร" />
<glyph horiz-adv-x="1468" d="M 1395 668 C 1395 560 1378 463 1345 377 C 1312 291 1266 218 1208 159 C 1149 99 1079 54 999 22 C 919 -9 831 -25 735 -25 C 639 -25 551 -9 471 22 C 390 54 320 99 262 159 C 203 218 157 291 124 377 C 90 463 74 560 74 668 C 74 776 90 873 124 959 C 157 1044 203 1116 262 1176 C 320 1236 390 1281 471 1312 C 551 1342 639 1358 735 1358 C 831 1358 919 1342 999 1312 C 1079 1281 1149 1236 1208 1176 C 1266 1116 1312 1044 1345 959 C 1378 873 1395 776 1395 668 Z M 1085 668 C 1085 812 1052 920 988 991 C 923 1062 839 1098 735 1098 C 631 1098 547 1062 481 991 C 415 920 383 812 383 668 C 383 524 415 416 481 344 C 547 272 631 236 735 236 C 839 236 923 272 988 344 C 1052 416 1085 524 1085 668 Z M 301 1550 L 668 1939 L 797 1939 L 1161 1550 L 903 1550 L 731 1788 L 561 1550 L 301 1550 Z" unicode="ร" />
<glyph horiz-adv-x="1468" d="M 1395 668 C 1395 560 1378 463 1345 377 C 1312 291 1266 218 1208 159 C 1149 99 1079 54 999 22 C 919 -9 831 -25 735 -25 C 639 -25 551 -9 471 22 C 390 54 320 99 262 159 C 203 218 157 291 124 377 C 90 463 74 560 74 668 C 74 776 90 873 124 959 C 157 1044 203 1116 262 1176 C 320 1236 390 1281 471 1312 C 551 1342 639 1358 735 1358 C 831 1358 919 1342 999 1312 C 1079 1281 1149 1236 1208 1176 C 1266 1116 1312 1044 1345 959 C 1378 873 1395 776 1395 668 Z M 1085 668 C 1085 812 1052 920 988 991 C 923 1062 839 1098 735 1098 C 631 1098 547 1062 481 991 C 415 920 383 812 383 668 C 383 524 415 416 481 344 C 547 272 631 236 735 236 C 839 236 923 272 988 344 C 1052 416 1085 524 1085 668 Z M 577 1860 C 601 1860 627 1854 655 1842 C 683 1830 711 1817 738 1803 C 765 1789 790 1776 813 1764 C 835 1752 853 1747 867 1747 C 879 1747 888 1750 896 1757 C 903 1763 909 1772 913 1783 C 917 1793 921 1805 924 1819 C 926 1833 929 1847 932 1862 L 1082 1804 C 1085 1778 1083 1750 1077 1720 C 1070 1690 1058 1663 1042 1638 C 1026 1612 1005 1591 979 1575 C 953 1558 923 1550 889 1550 C 863 1550 837 1555 809 1567 C 781 1579 755 1592 729 1606 C 703 1620 678 1633 656 1645 C 633 1657 614 1663 600 1663 C 589 1663 580 1659 573 1653 C 565 1647 559 1638 554 1628 C 549 1618 545 1606 542 1592 C 539 1578 536 1563 534 1548 L 384 1606 C 382 1642 386 1675 396 1706 C 405 1737 418 1764 436 1787 C 454 1809 475 1827 499 1840 C 523 1853 549 1860 577 1860 Z" unicode="ร" />
<glyph horiz-adv-x="1468" d="M 1395 668 C 1395 560 1378 463 1345 377 C 1312 291 1266 218 1208 159 C 1149 99 1079 54 999 22 C 919 -9 831 -25 735 -25 C 639 -25 551 -9 471 22 C 390 54 320 99 262 159 C 203 218 157 291 124 377 C 90 463 74 560 74 668 C 74 776 90 873 124 959 C 157 1044 203 1116 262 1176 C 320 1236 390 1281 471 1312 C 551 1342 639 1358 735 1358 C 831 1358 919 1342 999 1312 C 1079 1281 1149 1236 1208 1176 C 1266 1116 1312 1044 1345 959 C 1378 873 1395 776 1395 668 Z M 1085 668 C 1085 812 1052 920 988 991 C 923 1062 839 1098 735 1098 C 631 1098 547 1062 481 991 C 415 920 383 812 383 668 C 383 524 415 416 481 344 C 547 272 631 236 735 236 C 839 236 923 272 988 344 C 1052 416 1085 524 1085 668 Z M 651 1710 C 651 1662 635 1623 605 1594 C 574 1564 536 1550 490 1550 C 443 1550 405 1564 375 1594 C 345 1623 330 1662 330 1710 C 330 1759 345 1798 375 1828 C 405 1857 443 1872 490 1872 C 536 1872 574 1857 605 1828 C 635 1798 651 1759 651 1710 Z M 1129 1710 C 1129 1662 1113 1623 1082 1594 C 1051 1564 1014 1550 971 1550 C 923 1550 884 1564 854 1594 C 824 1623 809 1662 809 1710 C 809 1759 824 1798 854 1828 C 884 1857 923 1872 971 1872 C 1014 1872 1051 1857 1082 1828 C 1113 1798 1129 1759 1129 1710 Z" unicode="ร" />
<glyph horiz-adv-x="1044" d="M 89 185 L 367 463 L 89 740 L 236 888 L 514 610 L 792 888 L 939 740 L 662 463 L 939 185 L 792 38 L 514 315 L 236 38 L 89 185 Z" unicode="ร" />
<glyph horiz-adv-x="1468" d="M 1251 1122 C 1296 1064 1331 997 1357 920 C 1382 843 1395 758 1395 664 C 1395 556 1378 459 1345 374 C 1312 288 1266 216 1208 158 C 1149 99 1079 54 999 22 C 919 -9 831 -25 735 -25 C 568 -25 427 20 313 111 L 190 -23 L 76 72 L 209 215 C 165 272 131 338 108 413 C 85 488 74 572 74 664 C 74 772 90 869 124 955 C 157 1040 203 1112 262 1172 C 320 1232 390 1277 471 1308 C 551 1338 639 1354 735 1354 C 895 1354 1031 1311 1145 1225 L 1270 1360 L 1378 1260 L 1251 1122 Z M 1104 674 C 1104 770 1089 854 1059 926 L 483 293 C 514 259 551 233 594 217 C 637 201 684 193 735 193 C 789 193 839 203 884 224 C 929 245 968 276 1001 317 C 1034 358 1059 409 1077 469 C 1095 529 1104 597 1104 674 Z M 362 651 C 362 603 365 560 372 520 C 379 480 389 444 401 412 L 977 1042 C 911 1105 831 1137 735 1137 C 680 1137 630 1126 584 1104 C 538 1082 499 1050 467 1009 C 434 968 408 918 390 858 C 371 798 362 729 362 651 Z" unicode="ร" />
<glyph horiz-adv-x="1393" d="M 692 -25 C 514 -25 377 18 279 106 C 181 194 133 315 133 471 L 133 1333 L 440 1333 L 440 514 C 440 462 446 418 460 383 C 474 347 492 319 516 297 C 539 275 566 259 597 250 C 627 240 660 236 696 236 C 732 236 765 240 796 250 C 826 259 853 275 876 297 C 899 319 917 347 931 383 C 945 418 952 462 952 514 L 952 1333 L 1260 1333 L 1260 471 C 1260 397 1247 329 1221 268 C 1195 206 1157 154 1108 111 C 1058 68 998 35 928 11 C 858 -13 779 -25 692 -25 Z M 856 1696 L 711 1550 L 373 1890 L 518 2036 L 856 1696 Z" unicode="ร" />
<glyph horiz-adv-x="1393" d="M 692 -25 C 514 -25 377 18 279 106 C 181 194 133 315 133 471 L 133 1333 L 440 1333 L 440 514 C 440 462 446 418 460 383 C 474 347 492 319 516 297 C 539 275 566 259 597 250 C 627 240 660 236 696 236 C 732 236 765 240 796 250 C 826 259 853 275 876 297 C 899 319 917 347 931 383 C 945 418 952 462 952 514 L 952 1333 L 1260 1333 L 1260 471 C 1260 397 1247 329 1221 268 C 1195 206 1157 154 1108 111 C 1058 68 998 35 928 11 C 858 -13 779 -25 692 -25 Z M 897 2036 L 1042 1890 L 704 1550 L 559 1696 L 897 2036 Z" unicode="ร" />
<glyph horiz-adv-x="1393" d="M 692 -25 C 514 -25 377 18 279 106 C 181 194 133 315 133 471 L 133 1333 L 440 1333 L 440 514 C 440 462 446 418 460 383 C 474 347 492 319 516 297 C 539 275 566 259 597 250 C 627 240 660 236 696 236 C 732 236 765 240 796 250 C 826 259 853 275 876 297 C 899 319 917 347 931 383 C 945 418 952 462 952 514 L 952 1333 L 1260 1333 L 1260 471 C 1260 397 1247 329 1221 268 C 1195 206 1157 154 1108 111 C 1058 68 998 35 928 11 C 858 -13 779 -25 692 -25 Z M 259 1550 L 626 1939 L 755 1939 L 1119 1550 L 861 1550 L 689 1788 L 519 1550 L 259 1550 Z" unicode="ร" />
<glyph horiz-adv-x="1393" d="M 692 -25 C 514 -25 377 18 279 106 C 181 194 133 315 133 471 L 133 1333 L 440 1333 L 440 514 C 440 462 446 418 460 383 C 474 347 492 319 516 297 C 539 275 566 259 597 250 C 627 240 660 236 696 236 C 732 236 765 240 796 250 C 826 259 853 275 876 297 C 899 319 917 347 931 383 C 945 418 952 462 952 514 L 952 1333 L 1260 1333 L 1260 471 C 1260 397 1247 329 1221 268 C 1195 206 1157 154 1108 111 C 1058 68 998 35 928 11 C 858 -13 779 -25 692 -25 Z M 621 1710 C 621 1662 605 1623 575 1594 C 544 1564 506 1550 460 1550 C 413 1550 375 1564 345 1594 C 315 1623 300 1662 300 1710 C 300 1759 315 1798 345 1828 C 375 1857 413 1872 460 1872 C 506 1872 544 1857 575 1828 C 605 1798 621 1759 621 1710 Z M 1099 1710 C 1099 1662 1083 1623 1052 1594 C 1021 1564 984 1550 941 1550 C 893 1550 854 1564 824 1594 C 794 1623 779 1662 779 1710 C 779 1759 794 1798 824 1828 C 854 1857 893 1872 941 1872 C 984 1872 1021 1857 1052 1828 C 1083 1798 1099 1759 1099 1710 Z" unicode="ร" />
<glyph horiz-adv-x="1262" d="M 20 1333 L 352 1333 L 635 797 L 915 1333 L 1241 1333 L 786 541 L 786 0 L 477 0 L 477 541 L 20 1333 Z M 819 2036 L 964 1890 L 626 1550 L 481 1696 L 819 2036 Z" unicode="ร" />
<glyph horiz-adv-x="1272" d="M 143 1333 L 446 1333 L 446 1137 L 709 1137 C 869 1137 991 1097 1074 1017 C 1156 937 1198 822 1198 672 C 1198 521 1156 406 1074 327 C 991 248 869 209 709 209 L 446 209 L 446 0 L 143 0 L 143 1333 Z M 647 453 C 726 453 786 470 828 505 C 870 539 891 595 891 672 C 891 748 870 803 828 838 C 786 873 726 891 647 891 L 446 891 L 446 453 L 647 453 Z" unicode="ร" />
<glyph horiz-adv-x="1239" d="M 420 0 L 133 0 L 133 1081 C 133 1141 144 1195 166 1245 C 188 1294 219 1336 259 1371 C 299 1405 348 1432 406 1452 C 464 1471 530 1481 604 1481 C 683 1481 751 1470 809 1448 C 866 1426 913 1397 950 1361 C 987 1325 1014 1285 1032 1241 C 1050 1197 1059 1154 1059 1110 C 1059 1069 1052 1032 1039 1000 C 1026 968 1008 940 986 917 C 963 894 937 875 907 860 C 877 845 845 834 811 827 L 811 819 C 864 815 914 802 961 782 C 1008 762 1049 734 1084 700 C 1119 666 1147 625 1167 578 C 1187 531 1198 478 1198 420 C 1198 358 1188 301 1169 247 C 1150 193 1122 145 1086 105 C 1050 65 1005 33 952 10 C 898 -13 837 -25 768 -25 C 730 -25 691 -21 651 -14 C 611 -7 579 0 553 10 L 553 260 C 569 249 592 239 621 231 C 649 223 679 219 711 219 C 776 219 824 237 855 275 C 885 313 901 362 901 422 C 901 453 897 481 889 507 C 881 532 867 554 849 572 C 830 590 806 605 777 616 C 747 627 711 633 668 633 L 553 633 L 553 856 C 593 856 627 862 655 874 C 682 886 704 902 720 922 C 736 942 748 964 755 989 C 762 1013 766 1039 766 1065 C 766 1110 752 1150 726 1184 C 699 1218 657 1235 600 1235 C 480 1235 420 1173 420 1049 L 420 0 Z" unicode="ร" />
<glyph horiz-adv-x="1137" d="M 1047 215 C 1061 215 1074 217 1085 221 L 1085 37 C 1067 23 1045 11 1017 2 C 989 -7 955 -12 915 -12 C 855 -12 811 4 784 37 C 756 69 741 110 737 158 L 729 158 C 709 107 675 64 625 28 C 575 -7 512 -25 434 -25 C 324 -25 239 2 179 58 C 118 113 88 184 88 272 C 88 322 99 364 122 397 C 144 429 174 456 210 477 C 246 497 285 513 329 523 C 373 533 416 541 459 547 L 709 580 L 709 602 C 709 659 690 700 652 724 C 614 748 564 760 500 760 C 435 760 380 748 336 724 C 292 700 258 671 236 637 L 125 811 C 139 827 159 845 183 864 C 207 883 236 900 270 915 C 304 930 344 943 390 953 C 436 963 488 969 547 969 C 682 969 788 940 864 883 C 940 825 979 734 979 608 C 979 588 979 562 979 532 C 979 502 979 472 980 442 C 980 412 981 384 981 358 C 981 332 981 312 981 299 C 981 243 1003 215 1047 215 Z M 711 420 L 512 391 C 464 384 426 373 398 357 C 370 341 356 315 356 279 C 356 248 367 223 389 203 C 411 183 443 174 487 174 C 528 174 563 179 592 189 C 620 199 643 212 661 228 C 679 244 691 261 699 279 C 707 297 711 316 711 334 L 711 420 Z M 707 1305 L 562 1159 L 224 1499 L 369 1645 L 707 1305 Z" unicode="ร" />
<glyph horiz-adv-x="1137" d="M 1047 215 C 1061 215 1074 217 1085 221 L 1085 37 C 1067 23 1045 11 1017 2 C 989 -7 955 -12 915 -12 C 855 -12 811 4 784 37 C 756 69 741 110 737 158 L 729 158 C 709 107 675 64 625 28 C 575 -7 512 -25 434 -25 C 324 -25 239 2 179 58 C 118 113 88 184 88 272 C 88 322 99 364 122 397 C 144 429 174 456 210 477 C 246 497 285 513 329 523 C 373 533 416 541 459 547 L 709 580 L 709 602 C 709 659 690 700 652 724 C 614 748 564 760 500 760 C 435 760 380 748 336 724 C 292 700 258 671 236 637 L 125 811 C 139 827 159 845 183 864 C 207 883 236 900 270 915 C 304 930 344 943 390 953 C 436 963 488 969 547 969 C 682 969 788 940 864 883 C 940 825 979 734 979 608 C 979 588 979 562 979 532 C 979 502 979 472 980 442 C 980 412 981 384 981 358 C 981 332 981 312 981 299 C 981 243 1003 215 1047 215 Z M 711 420 L 512 391 C 464 384 426 373 398 357 C 370 341 356 315 356 279 C 356 248 367 223 389 203 C 411 183 443 174 487 174 C 528 174 563 179 592 189 C 620 199 643 212 661 228 C 679 244 691 261 699 279 C 707 297 711 316 711 334 L 711 420 Z M 748 1645 L 893 1499 L 555 1159 L 410 1305 L 748 1645 Z" unicode="รก" />
<glyph horiz-adv-x="1137" d="M 1047 215 C 1061 215 1074 217 1085 221 L 1085 37 C 1067 23 1045 11 1017 2 C 989 -7 955 -12 915 -12 C 855 -12 811 4 784 37 C 756 69 741 110 737 158 L 729 158 C 709 107 675 64 625 28 C 575 -7 512 -25 434 -25 C 324 -25 239 2 179 58 C 118 113 88 184 88 272 C 88 322 99 364 122 397 C 144 429 174 456 210 477 C 246 497 285 513 329 523 C 373 533 416 541 459 547 L 709 580 L 709 602 C 709 659 690 700 652 724 C 614 748 564 760 500 760 C 435 760 380 748 336 724 C 292 700 258 671 236 637 L 125 811 C 139 827 159 845 183 864 C 207 883 236 900 270 915 C 304 930 344 943 390 953 C 436 963 488 969 547 969 C 682 969 788 940 864 883 C 940 825 979 734 979 608 C 979 588 979 562 979 532 C 979 502 979 472 980 442 C 980 412 981 384 981 358 C 981 332 981 312 981 299 C 981 243 1003 215 1047 215 Z M 711 420 L 512 391 C 464 384 426 373 398 357 C 370 341 356 315 356 279 C 356 248 367 223 389 203 C 411 183 443 174 487 174 C 528 174 563 179 592 189 C 620 199 643 212 661 228 C 679 244 691 261 699 279 C 707 297 711 316 711 334 L 711 420 Z M 131 1159 L 498 1548 L 627 1548 L 991 1159 L 733 1159 L 561 1397 L 391 1159 L 131 1159 Z" unicode="รข" />
<glyph horiz-adv-x="1137" d="M 1047 215 C 1061 215 1074 217 1085 221 L 1085 37 C 1067 23 1045 11 1017 2 C 989 -7 955 -12 915 -12 C 855 -12 811 4 784 37 C 756 69 741 110 737 158 L 729 158 C 709 107 675 64 625 28 C 575 -7 512 -25 434 -25 C 324 -25 239 2 179 58 C 118 113 88 184 88 272 C 88 322 99 364 122 397 C 144 429 174 456 210 477 C 246 497 285 513 329 523 C 373 533 416 541 459 547 L 709 580 L 709 602 C 709 659 690 700 652 724 C 614 748 564 760 500 760 C 435 760 380 748 336 724 C 292 700 258 671 236 637 L 125 811 C 139 827 159 845 183 864 C 207 883 236 900 270 915 C 304 930 344 943 390 953 C 436 963 488 969 547 969 C 682 969 788 940 864 883 C 940 825 979 734 979 608 C 979 588 979 562 979 532 C 979 502 979 472 980 442 C 980 412 981 384 981 358 C 981 332 981 312 981 299 C 981 243 1003 215 1047 215 Z M 711 420 L 512 391 C 464 384 426 373 398 357 C 370 341 356 315 356 279 C 356 248 367 223 389 203 C 411 183 443 174 487 174 C 528 174 563 179 592 189 C 620 199 643 212 661 228 C 679 244 691 261 699 279 C 707 297 711 316 711 334 L 711 420 Z M 410 1469 C 434 1469 460 1463 488 1451 C 516 1439 544 1426 571 1412 C 598 1398 623 1385 646 1373 C 668 1361 686 1356 700 1356 C 712 1356 721 1359 729 1366 C 736 1372 742 1381 746 1392 C 750 1402 754 1414 757 1428 C 759 1442 762 1456 765 1471 L 915 1413 C 918 1387 916 1359 910 1329 C 903 1299 891 1272 875 1247 C 859 1221 838 1200 812 1184 C 786 1167 756 1159 722 1159 C 696 1159 670 1164 642 1176 C 614 1188 588 1201 562 1215 C 536 1229 511 1242 489 1254 C 466 1266 447 1272 433 1272 C 422 1272 413 1268 406 1262 C 398 1256 392 1247 387 1237 C 382 1227 378 1215 375 1201 C 372 1187 369 1172 367 1157 L 217 1215 C 215 1251 219 1284 229 1315 C 238 1346 251 1373 269 1396 C 287 1418 308 1436 332 1449 C 356 1462 382 1469 410 1469 Z" unicode="รฃ" />
<glyph horiz-adv-x="1137" d="M 1047 215 C 1061 215 1074 217 1085 221 L 1085 37 C 1067 23 1045 11 1017 2 C 989 -7 955 -12 915 -12 C 855 -12 811 4 784 37 C 756 69 741 110 737 158 L 729 158 C 709 107 675 64 625 28 C 575 -7 512 -25 434 -25 C 324 -25 239 2 179 58 C 118 113 88 184 88 272 C 88 322 99 364 122 397 C 144 429 174 456 210 477 C 246 497 285 513 329 523 C 373 533 416 541 459 547 L 709 580 L 709 602 C 709 659 690 700 652 724 C 614 748 564 760 500 760 C 435 760 380 748 336 724 C 292 700 258 671 236 637 L 125 811 C 139 827 159 845 183 864 C 207 883 236 900 270 915 C 304 930 344 943 390 953 C 436 963 488 969 547 969 C 682 969 788 940 864 883 C 940 825 979 734 979 608 C 979 588 979 562 979 532 C 979 502 979 472 980 442 C 980 412 981 384 981 358 C 981 332 981 312 981 299 C 981 243 1003 215 1047 215 Z M 711 420 L 512 391 C 464 384 426 373 398 357 C 370 341 356 315 356 279 C 356 248 367 223 389 203 C 411 183 443 174 487 174 C 528 174 563 179 592 189 C 620 199 643 212 661 228 C 679 244 691 261 699 279 C 707 297 711 316 711 334 L 711 420 Z M 489 1319 C 489 1271 473 1232 443 1203 C 412 1173 374 1159 328 1159 C 281 1159 243 1173 213 1203 C 183 1232 168 1271 168 1319 C 168 1368 183 1407 213 1437 C 243 1466 281 1481 328 1481 C 374 1481 412 1466 443 1437 C 473 1407 489 1368 489 1319 Z M 967 1319 C 967 1271 951 1232 920 1203 C 889 1173 852 1159 809 1159 C 761 1159 722 1173 692 1203 C 662 1232 647 1271 647 1319 C 647 1368 662 1407 692 1437 C 722 1466 761 1481 809 1481 C 852 1481 889 1466 920 1437 C 951 1407 967 1368 967 1319 Z" unicode="รค" />
<glyph horiz-adv-x="1137" d="M 1047 215 C 1061 215 1074 217 1085 221 L 1085 37 C 1067 23 1045 11 1017 2 C 989 -7 955 -12 915 -12 C 855 -12 811 4 784 37 C 756 69 741 110 737 158 L 729 158 C 709 107 675 64 625 28 C 575 -7 512 -25 434 -25 C 324 -25 239 2 179 58 C 118 113 88 184 88 272 C 88 322 99 364 122 397 C 144 429 174 456 210 477 C 246 497 285 513 329 523 C 373 533 416 541 459 547 L 709 580 L 709 602 C 709 659 690 700 652 724 C 614 748 564 760 500 760 C 435 760 380 748 336 724 C 292 700 258 671 236 637 L 125 811 C 139 827 159 845 183 864 C 207 883 236 900 270 915 C 304 930 344 943 390 953 C 436 963 488 969 547 969 C 682 969 788 940 864 883 C 940 825 979 734 979 608 C 979 588 979 562 979 532 C 979 502 979 472 980 442 C 980 412 981 384 981 358 C 981 332 981 312 981 299 C 981 243 1003 215 1047 215 Z M 711 420 L 512 391 C 464 384 426 373 398 357 C 370 341 356 315 356 279 C 356 248 367 223 389 203 C 411 183 443 174 487 174 C 528 174 563 179 592 189 C 620 199 643 212 661 228 C 679 244 691 261 699 279 C 707 297 711 316 711 334 L 711 420 Z M 297 1419 C 297 1455 303 1488 315 1520 C 327 1551 345 1578 369 1601 C 393 1624 421 1642 455 1656 C 489 1670 526 1677 567 1677 C 607 1677 643 1670 677 1656 C 710 1642 739 1624 763 1601 C 787 1578 805 1551 818 1520 C 831 1488 838 1455 838 1419 C 838 1344 813 1282 763 1233 C 713 1183 647 1159 567 1159 C 483 1159 417 1183 369 1233 C 321 1282 297 1344 297 1419 Z M 446 1419 C 446 1378 457 1347 479 1327 C 501 1306 530 1296 567 1296 C 602 1296 631 1306 654 1327 C 676 1347 688 1378 688 1419 C 688 1459 676 1489 654 1509 C 631 1529 602 1540 567 1540 C 530 1540 501 1529 479 1509 C 457 1489 446 1459 446 1419 Z" unicode="รฅ" />
<glyph horiz-adv-x="1749" d="M 1677 479 C 1677 468 1676 459 1676 452 C 1675 445 1674 436 1673 426 L 981 399 C 981 359 988 326 1003 299 C 1018 271 1037 249 1061 233 C 1084 217 1111 205 1141 197 C 1171 189 1201 186 1233 186 C 1298 186 1356 197 1408 220 C 1459 242 1497 269 1522 301 L 1616 109 C 1582 73 1529 41 1459 15 C 1389 -11 1304 -25 1206 -25 C 1106 -25 1023 -5 957 34 C 891 74 839 122 801 180 C 792 166 779 148 762 126 C 745 103 722 80 694 58 C 665 36 629 16 586 0 C 543 -16 492 -25 434 -25 C 378 -25 328 -17 285 -2 C 242 12 206 33 177 60 C 147 86 125 117 110 153 C 95 189 88 228 88 270 C 88 314 96 352 114 386 C 132 419 157 447 190 471 C 223 494 262 512 307 525 C 352 538 402 547 457 551 L 705 565 L 705 600 C 705 657 686 698 648 722 C 610 746 566 758 514 758 C 463 758 420 751 386 738 C 351 725 322 711 299 696 C 273 678 252 658 236 635 L 125 809 C 145 837 174 863 211 887 C 242 905 284 923 336 941 C 388 958 453 967 532 967 C 582 967 625 962 660 953 C 695 944 724 932 748 918 C 772 904 792 888 809 870 C 825 852 840 835 854 819 C 870 837 891 854 915 871 C 939 888 966 904 995 918 C 1023 932 1054 944 1086 953 C 1118 962 1152 967 1186 967 C 1272 967 1345 955 1407 931 C 1468 907 1519 873 1559 830 C 1599 787 1629 736 1648 676 C 1667 616 1677 550 1677 479 Z M 707 403 L 520 397 C 474 394 435 383 403 364 C 371 345 356 317 356 279 C 356 244 367 218 391 200 C 414 182 445 174 485 174 C 512 174 539 177 566 183 C 592 189 616 199 637 213 C 657 226 674 242 687 262 C 700 281 707 304 707 332 L 707 403 Z M 1389 573 C 1389 640 1369 688 1330 717 C 1291 745 1244 760 1188 760 C 1128 760 1078 744 1040 714 C 1002 683 981 631 977 557 L 1389 573 Z" unicode="รฆ" />
<glyph horiz-adv-x="1014" d="M 571 969 C 677 969 764 954 832 924 C 900 894 947 857 973 813 L 838 621 C 818 656 789 685 749 709 C 709 733 659 745 598 745 C 524 745 465 722 422 676 C 379 630 358 563 358 473 C 358 383 381 315 427 271 C 473 227 530 205 600 205 C 660 205 707 215 743 235 C 779 255 804 280 819 309 L 973 131 C 947 87 899 50 830 20 C 761 -9 675 -25 571 -25 C 499 -25 431 -13 368 9 C 305 31 251 64 205 106 C 159 148 124 201 99 263 C 73 325 61 395 61 473 C 61 551 74 620 101 682 C 127 743 164 795 210 837 C 256 879 310 912 373 935 C 435 957 501 969 571 969 Z M 537 35 C 554 25 572 13 590 0 C 693 -70 745 -139 745 -207 C 745 -341 655 -408 477 -408 C 399 -408 325 -384 256 -338 L 328 -227 C 367 -255 409 -270 455 -270 C 523 -270 557 -240 557 -180 C 557 -116 490 -50 358 18 L 537 35 Z" unicode="รง" />
<glyph horiz-adv-x="1126" d="M 1055 481 C 1055 471 1054 462 1054 453 C 1053 444 1053 436 1053 430 C 1051 422 1051 413 1051 403 L 358 403 C 358 362 365 328 380 301 C 395 273 414 251 438 234 C 461 217 487 205 515 198 C 543 191 570 188 598 188 C 672 188 732 197 780 217 C 828 236 867 263 899 299 L 993 111 C 949 71 892 38 821 13 C 750 -12 674 -25 592 -25 C 500 -25 421 -9 355 20 C 289 50 234 90 191 138 C 148 186 116 241 96 302 C 76 362 66 423 66 485 C 66 545 76 604 97 662 C 118 720 150 772 192 817 C 234 862 286 899 348 927 C 409 955 481 969 563 969 C 669 969 755 951 819 917 C 883 883 932 841 967 791 C 1002 741 1025 689 1037 633 C 1049 577 1055 526 1055 481 Z M 766 580 C 766 630 749 672 716 707 C 682 742 632 760 565 760 C 495 760 443 742 407 707 C 371 672 354 630 354 580 L 766 580 Z M 729 1305 L 584 1159 L 246 1499 L 391 1645 L 729 1305 Z" unicode="รจ" />
<glyph horiz-adv-x="1126" d="M 1055 481 C 1055 471 1054 462 1054 453 C 1053 444 1053 436 1053 430 C 1051 422 1051 413 1051 403 L 358 403 C 358 362 365 328 380 301 C 395 273 414 251 438 234 C 461 217 487 205 515 198 C 543 191 570 188 598 188 C 672 188 732 197 780 217 C 828 236 867 263 899 299 L 993 111 C 949 71 892 38 821 13 C 750 -12 674 -25 592 -25 C 500 -25 421 -9 355 20 C 289 50 234 90 191 138 C 148 186 116 241 96 302 C 76 362 66 423 66 485 C 66 545 76 604 97 662 C 118 720 150 772 192 817 C 234 862 286 899 348 927 C 409 955 481 969 563 969 C 669 969 755 951 819 917 C 883 883 932 841 967 791 C 1002 741 1025 689 1037 633 C 1049 577 1055 526 1055 481 Z M 766 580 C 766 630 749 672 716 707 C 682 742 632 760 565 760 C 495 760 443 742 407 707 C 371 672 354 630 354 580 L 766 580 Z M 787 1645 L 932 1499 L 594 1159 L 449 1305 L 787 1645 Z" unicode="รฉ" />
<glyph horiz-adv-x="1126" d="M 1055 481 C 1055 471 1054 462 1054 453 C 1053 444 1053 436 1053 430 C 1051 422 1051 413 1051 403 L 358 403 C 358 362 365 328 380 301 C 395 273 414 251 438 234 C 461 217 487 205 515 198 C 543 191 570 188 598 188 C 672 188 732 197 780 217 C 828 236 867 263 899 299 L 993 111 C 949 71 892 38 821 13 C 750 -12 674 -25 592 -25 C 500 -25 421 -9 355 20 C 289 50 234 90 191 138 C 148 186 116 241 96 302 C 76 362 66 423 66 485 C 66 545 76 604 97 662 C 118 720 150 772 192 817 C 234 862 286 899 348 927 C 409 955 481 969 563 969 C 669 969 755 951 819 917 C 883 883 932 841 967 791 C 1002 741 1025 689 1037 633 C 1049 577 1055 526 1055 481 Z M 766 580 C 766 630 749 672 716 707 C 682 742 632 760 565 760 C 495 760 443 742 407 707 C 371 672 354 630 354 580 L 766 580 Z M 137 1159 L 504 1548 L 633 1548 L 997 1159 L 739 1159 L 567 1397 L 397 1159 L 137 1159 Z" unicode="รช" />
<glyph horiz-adv-x="1126" d="M 1055 481 C 1055 471 1054 462 1054 453 C 1053 444 1053 436 1053 430 C 1051 422 1051 413 1051 403 L 358 403 C 358 362 365 328 380 301 C 395 273 414 251 438 234 C 461 217 487 205 515 198 C 543 191 570 188 598 188 C 672 188 732 197 780 217 C 828 236 867 263 899 299 L 993 111 C 949 71 892 38 821 13 C 750 -12 674 -25 592 -25 C 500 -25 421 -9 355 20 C 289 50 234 90 191 138 C 148 186 116 241 96 302 C 76 362 66 423 66 485 C 66 545 76 604 97 662 C 118 720 150 772 192 817 C 234 862 286 899 348 927 C 409 955 481 969 563 969 C 669 969 755 951 819 917 C 883 883 932 841 967 791 C 1002 741 1025 689 1037 633 C 1049 577 1055 526 1055 481 Z M 766 580 C 766 630 749 672 716 707 C 682 742 632 760 565 760 C 495 760 443 742 407 707 C 371 672 354 630 354 580 L 766 580 Z M 485 1319 C 485 1271 469 1232 439 1203 C 408 1173 370 1159 324 1159 C 277 1159 239 1173 209 1203 C 179 1232 164 1271 164 1319 C 164 1368 179 1407 209 1437 C 239 1466 277 1481 324 1481 C 370 1481 408 1466 439 1437 C 469 1407 485 1368 485 1319 Z M 963 1319 C 963 1271 947 1232 916 1203 C 885 1173 848 1159 805 1159 C 757 1159 718 1173 688 1203 C 658 1232 643 1271 643 1319 C 643 1368 658 1407 688 1437 C 718 1466 757 1481 805 1481 C 848 1481 885 1466 916 1437 C 947 1407 963 1368 963 1319 Z" unicode="รซ" />
<glyph horiz-adv-x="573" d="M 457 1278 L 289 1159 L 16 1552 L 184 1671 L 457 1278 Z M 143 0 L 143 942 L 430 942 L 430 0 L 143 0 Z" unicode="รฌ" />
<glyph horiz-adv-x="573" d="M 389 1671 L 557 1552 L 284 1159 L 116 1278 L 389 1671 Z M 143 0 L 143 942 L 430 942 L 430 0 L 143 0 Z" unicode="รญ" />
<glyph horiz-adv-x="573" d="M 143 0 L 143 942 L 430 942 L 430 0 L 143 0 Z M -36 1159 L 228 1548 L 357 1548 L 619 1159 L 402 1159 L 291 1397 L 183 1159 L -36 1159 Z" unicode="รฎ" />
<glyph horiz-adv-x="573" d="M 229 1319 C 229 1271 213 1232 183 1203 C 152 1173 114 1159 68 1159 C 21 1159 -17 1173 -47 1203 C -77 1232 -92 1271 -92 1319 C -92 1368 -77 1407 -47 1437 C -17 1466 21 1481 68 1481 C 114 1481 152 1466 183 1437 C 213 1407 229 1368 229 1319 Z M 667 1319 C 667 1271 651 1232 620 1203 C 589 1173 552 1159 509 1159 C 461 1159 422 1173 392 1203 C 362 1232 347 1271 347 1319 C 347 1368 362 1407 392 1437 C 422 1466 461 1481 509 1481 C 552 1481 589 1466 620 1437 C 651 1407 667 1368 667 1319 Z M 143 0 L 143 942 L 430 942 L 430 0 L 143 0 Z" unicode="รฏ" />
<glyph horiz-adv-x="1196" d="M 315 1192 L 532 1276 C 498 1295 459 1312 417 1326 C 375 1340 335 1352 299 1362 L 510 1477 C 548 1465 587 1452 627 1436 C 667 1420 707 1401 745 1378 L 961 1473 L 1083 1350 L 883 1262 C 951 1189 1008 1097 1054 986 C 1100 874 1124 742 1124 588 C 1124 477 1110 383 1082 306 C 1054 228 1015 165 967 116 C 919 67 862 31 797 9 C 732 -13 663 -25 590 -25 C 516 -25 447 -13 384 10 C 320 33 266 66 220 109 C 174 152 138 205 112 268 C 85 330 72 401 72 481 C 72 560 84 630 108 692 C 132 753 166 805 210 847 C 254 889 306 921 366 943 C 426 964 493 975 565 975 C 593 975 622 971 652 965 C 681 959 709 951 735 943 C 761 934 784 924 805 912 C 825 900 842 889 854 879 C 847 900 838 924 828 950 C 818 976 805 1002 791 1029 C 777 1055 760 1081 741 1106 C 722 1130 701 1153 678 1174 L 438 1069 L 315 1192 Z M 838 481 C 838 530 831 572 818 607 C 805 641 788 670 766 694 C 744 717 718 734 689 745 C 659 756 628 762 594 762 C 526 762 469 739 425 694 C 380 649 358 578 358 481 C 358 384 380 313 425 268 C 469 223 526 201 594 201 C 628 201 659 206 689 217 C 718 227 744 244 766 268 C 788 291 805 320 818 355 C 831 390 838 432 838 481 Z" unicode="รฐ" />
<glyph horiz-adv-x="1219" d="M 809 539 C 809 590 796 632 770 666 C 744 700 703 717 649 717 C 579 717 525 693 487 647 C 449 601 430 541 430 467 L 430 0 L 143 0 L 143 748 C 143 766 142 787 141 810 C 139 832 138 853 137 872 C 135 895 134 918 133 942 L 416 942 C 416 924 416 905 418 887 C 419 869 420 849 421 827 C 421 805 422 782 422 756 L 432 756 C 443 784 459 811 479 836 C 499 861 523 883 551 903 C 578 922 609 937 643 949 C 677 961 713 967 752 967 C 798 967 841 960 883 947 C 925 934 961 914 993 887 C 1024 859 1049 824 1068 780 C 1086 736 1096 684 1096 623 L 1096 0 L 809 0 L 809 539 Z M 482 1469 C 506 1469 532 1463 560 1451 C 588 1439 616 1426 643 1412 C 670 1398 695 1385 718 1373 C 740 1361 758 1356 772 1356 C 784 1356 793 1359 801 1366 C 808 1372 814 1381 818 1392 C 822 1402 826 1414 829 1428 C 831 1442 834 1456 837 1471 L 987 1413 C 990 1387 988 1359 982 1329 C 975 1299 963 1272 947 1247 C 931 1221 910 1200 884 1184 C 858 1167 828 1159 794 1159 C 768 1159 742 1164 714 1176 C 686 1188 660 1201 634 1215 C 608 1229 583 1242 561 1254 C 538 1266 519 1272 505 1272 C 494 1272 485 1268 478 1262 C 470 1256 464 1247 459 1237 C 454 1227 450 1215 447 1201 C 444 1187 441 1172 439 1157 L 289 1215 C 287 1251 291 1284 301 1315 C 310 1346 323 1373 341 1396 C 359 1418 380 1436 404 1449 C 428 1462 454 1469 482 1469 Z" unicode="รฑ" />
<glyph horiz-adv-x="1178" d="M 1116 471 C 1116 391 1102 321 1075 260 C 1047 198 1010 146 963 104 C 916 62 860 30 796 8 C 732 -14 663 -25 590 -25 C 516 -25 447 -14 383 8 C 319 30 263 62 215 104 C 167 146 129 198 102 260 C 74 321 61 391 61 471 C 61 550 74 621 102 683 C 129 745 167 796 215 838 C 263 880 319 912 383 934 C 447 956 516 967 590 967 C 663 967 732 956 796 934 C 860 912 916 880 963 838 C 1010 796 1047 745 1075 683 C 1102 621 1116 550 1116 471 Z M 819 471 C 819 567 797 636 754 678 C 711 720 656 741 590 741 C 521 741 465 720 422 678 C 379 636 358 567 358 471 C 358 374 379 305 422 263 C 465 221 521 201 590 201 C 656 201 711 221 754 263 C 797 305 819 374 819 471 Z M 744 1305 L 599 1159 L 261 1499 L 406 1645 L 744 1305 Z" unicode="รฒ" />
<glyph horiz-adv-x="1178" d="M 1116 471 C 1116 391 1102 321 1075 260 C 1047 198 1010 146 963 104 C 916 62 860 30 796 8 C 732 -14 663 -25 590 -25 C 516 -25 447 -14 383 8 C 319 30 263 62 215 104 C 167 146 129 198 102 260 C 74 321 61 391 61 471 C 61 550 74 621 102 683 C 129 745 167 796 215 838 C 263 880 319 912 383 934 C 447 956 516 967 590 967 C 663 967 732 956 796 934 C 860 912 916 880 963 838 C 1010 796 1047 745 1075 683 C 1102 621 1116 550 1116 471 Z M 819 471 C 819 567 797 636 754 678 C 711 720 656 741 590 741 C 521 741 465 720 422 678 C 379 636 358 567 358 471 C 358 374 379 305 422 263 C 465 221 521 201 590 201 C 656 201 711 221 754 263 C 797 305 819 374 819 471 Z M 796 1645 L 941 1499 L 603 1159 L 458 1305 L 796 1645 Z" unicode="รณ" />
<glyph horiz-adv-x="1178" d="M 1116 471 C 1116 391 1102 321 1075 260 C 1047 198 1010 146 963 104 C 916 62 860 30 796 8 C 732 -14 663 -25 590 -25 C 516 -25 447 -14 383 8 C 319 30 263 62 215 104 C 167 146 129 198 102 260 C 74 321 61 391 61 471 C 61 550 74 621 102 683 C 129 745 167 796 215 838 C 263 880 319 912 383 934 C 447 956 516 967 590 967 C 663 967 732 956 796 934 C 860 912 916 880 963 838 C 1010 796 1047 745 1075 683 C 1102 621 1116 550 1116 471 Z M 819 471 C 819 567 797 636 754 678 C 711 720 656 741 590 741 C 521 741 465 720 422 678 C 379 636 358 567 358 471 C 358 374 379 305 422 263 C 465 221 521 201 590 201 C 656 201 711 221 754 263 C 797 305 819 374 819 471 Z M 162 1159 L 529 1548 L 658 1548 L 1022 1159 L 764 1159 L 592 1397 L 422 1159 L 162 1159 Z" unicode="รด" />
<glyph horiz-adv-x="1178" d="M 1116 471 C 1116 391 1102 321 1075 260 C 1047 198 1010 146 963 104 C 916 62 860 30 796 8 C 732 -14 663 -25 590 -25 C 516 -25 447 -14 383 8 C 319 30 263 62 215 104 C 167 146 129 198 102 260 C 74 321 61 391 61 471 C 61 550 74 621 102 683 C 129 745 167 796 215 838 C 263 880 319 912 383 934 C 447 956 516 967 590 967 C 663 967 732 956 796 934 C 860 912 916 880 963 838 C 1010 796 1047 745 1075 683 C 1102 621 1116 550 1116 471 Z M 819 471 C 819 567 797 636 754 678 C 711 720 656 741 590 741 C 521 741 465 720 422 678 C 379 636 358 567 358 471 C 358 374 379 305 422 263 C 465 221 521 201 590 201 C 656 201 711 221 754 263 C 797 305 819 374 819 471 Z M 431 1469 C 455 1469 481 1463 509 1451 C 537 1439 565 1426 592 1412 C 619 1398 644 1385 667 1373 C 689 1361 707 1356 721 1356 C 733 1356 742 1359 750 1366 C 757 1372 763 1381 767 1392 C 771 1402 775 1414 778 1428 C 780 1442 783 1456 786 1471 L 936 1413 C 939 1387 937 1359 931 1329 C 924 1299 912 1272 896 1247 C 880 1221 859 1200 833 1184 C 807 1167 777 1159 743 1159 C 717 1159 691 1164 663 1176 C 635 1188 609 1201 583 1215 C 557 1229 532 1242 510 1254 C 487 1266 468 1272 454 1272 C 443 1272 434 1268 427 1262 C 419 1256 413 1247 408 1237 C 403 1227 399 1215 396 1201 C 393 1187 390 1172 388 1157 L 238 1215 C 236 1251 240 1284 250 1315 C 259 1346 272 1373 290 1396 C 308 1418 329 1436 353 1449 C 377 1462 403 1469 431 1469 Z" unicode="รต" />
<glyph horiz-adv-x="1178" d="M 1116 471 C 1116 391 1102 321 1075 260 C 1047 198 1010 146 963 104 C 916 62 860 30 796 8 C 732 -14 663 -25 590 -25 C 516 -25 447 -14 383 8 C 319 30 263 62 215 104 C 167 146 129 198 102 260 C 74 321 61 391 61 471 C 61 550 74 621 102 683 C 129 745 167 796 215 838 C 263 880 319 912 383 934 C 447 956 516 967 590 967 C 663 967 732 956 796 934 C 860 912 916 880 963 838 C 1010 796 1047 745 1075 683 C 1102 621 1116 550 1116 471 Z M 819 471 C 819 567 797 636 754 678 C 711 720 656 741 590 741 C 521 741 465 720 422 678 C 379 636 358 567 358 471 C 358 374 379 305 422 263 C 465 221 521 201 590 201 C 656 201 711 221 754 263 C 797 305 819 374 819 471 Z M 510 1319 C 510 1271 494 1232 464 1203 C 433 1173 395 1159 349 1159 C 302 1159 264 1173 234 1203 C 204 1232 189 1271 189 1319 C 189 1368 204 1407 234 1437 C 264 1466 302 1481 349 1481 C 395 1481 433 1466 464 1437 C 494 1407 510 1368 510 1319 Z M 988 1319 C 988 1271 972 1232 941 1203 C 910 1173 873 1159 830 1159 C 782 1159 743 1173 713 1203 C 683 1232 668 1271 668 1319 C 668 1368 683 1407 713 1437 C 743 1466 782 1481 830 1481 C 873 1481 910 1466 941 1437 C 972 1407 988 1368 988 1319 Z" unicode="รถ" />
<glyph horiz-adv-x="1044" d="M 962 677 L 962 468 L 83 468 L 83 677 L 962 677 Z M 676 176 C 676 126 660 86 630 56 C 600 26 563 11 520 11 C 480 11 445 26 414 56 C 383 86 368 126 368 176 C 368 224 383 262 414 292 C 445 321 480 336 520 336 C 563 336 600 321 630 292 C 660 262 676 224 676 176 Z M 676 973 C 676 923 660 883 630 853 C 600 823 563 808 520 808 C 480 808 445 823 414 853 C 383 883 368 923 368 973 C 368 1021 383 1059 414 1089 C 445 1118 480 1133 520 1133 C 563 1133 600 1118 630 1089 C 660 1059 676 1021 676 973 Z" unicode="รท" />
<glyph horiz-adv-x="1178" d="M 1116 471 C 1116 391 1102 321 1075 260 C 1047 198 1010 146 963 104 C 916 62 860 30 796 8 C 732 -14 663 -25 590 -25 C 528 -25 471 -17 417 -3 C 363 10 314 32 270 61 L 182 -20 L 74 80 L 160 162 C 128 201 104 246 87 298 C 69 349 61 407 61 471 C 61 550 74 621 102 683 C 129 745 167 796 215 838 C 263 880 319 912 383 934 C 447 956 516 967 590 967 C 714 967 822 936 915 874 L 1010 965 L 1116 862 L 1022 774 C 1052 734 1075 689 1091 639 C 1107 588 1116 532 1116 471 Z M 324 459 C 324 435 325 413 329 391 C 332 369 336 348 342 330 L 762 715 C 716 755 663 776 602 776 C 565 776 529 769 495 757 C 461 745 431 726 406 700 C 381 674 361 641 346 601 C 331 561 324 513 324 459 Z M 852 483 C 852 503 851 524 849 544 C 847 564 843 584 838 602 L 424 221 C 444 202 468 188 495 179 C 521 170 549 166 578 166 C 614 166 649 172 683 184 C 716 196 745 216 771 242 C 796 268 816 301 830 341 C 844 381 852 428 852 483 Z" unicode="รธ" />
<glyph horiz-adv-x="1198" d="M 410 942 L 410 403 C 410 351 421 309 445 275 C 469 241 508 225 563 225 C 633 225 684 245 718 285 C 751 325 768 383 768 457 L 768 942 L 1055 942 L 1055 195 C 1055 175 1055 154 1056 132 C 1056 109 1057 88 1059 70 C 1060 46 1062 23 1065 0 L 782 0 C 780 15 779 32 778 51 C 776 66 776 84 776 106 C 776 128 776 152 776 178 L 766 178 C 744 122 705 74 651 34 C 596 -5 530 -25 453 -25 C 406 -25 362 -18 322 -5 C 282 7 247 27 218 55 C 188 82 165 117 148 161 C 131 205 123 257 123 319 L 123 942 L 410 942 Z M 735 1305 L 590 1159 L 252 1499 L 397 1645 L 735 1305 Z" unicode="รน" />
<glyph horiz-adv-x="1198" d="M 410 942 L 410 403 C 410 351 421 309 445 275 C 469 241 508 225 563 225 C 633 225 684 245 718 285 C 751 325 768 383 768 457 L 768 942 L 1055 942 L 1055 195 C 1055 175 1055 154 1056 132 C 1056 109 1057 88 1059 70 C 1060 46 1062 23 1065 0 L 782 0 C 780 15 779 32 778 51 C 776 66 776 84 776 106 C 776 128 776 152 776 178 L 766 178 C 744 122 705 74 651 34 C 596 -5 530 -25 453 -25 C 406 -25 362 -18 322 -5 C 282 7 247 27 218 55 C 188 82 165 117 148 161 C 131 205 123 257 123 319 L 123 942 L 410 942 Z M 795 1645 L 940 1499 L 602 1159 L 457 1305 L 795 1645 Z" unicode="รบ" />
<glyph horiz-adv-x="1198" d="M 410 942 L 410 403 C 410 351 421 309 445 275 C 469 241 508 225 563 225 C 633 225 684 245 718 285 C 751 325 768 383 768 457 L 768 942 L 1055 942 L 1055 195 C 1055 175 1055 154 1056 132 C 1056 109 1057 88 1059 70 C 1060 46 1062 23 1065 0 L 782 0 C 780 15 779 32 778 51 C 776 66 776 84 776 106 C 776 128 776 152 776 178 L 766 178 C 744 122 705 74 651 34 C 596 -5 530 -25 453 -25 C 406 -25 362 -18 322 -5 C 282 7 247 27 218 55 C 188 82 165 117 148 161 C 131 205 123 257 123 319 L 123 942 L 410 942 Z M 172 1159 L 539 1548 L 668 1548 L 1032 1159 L 774 1159 L 602 1397 L 432 1159 L 172 1159 Z" unicode="รป" />
<glyph horiz-adv-x="1198" d="M 410 942 L 410 403 C 410 351 421 309 445 275 C 469 241 508 225 563 225 C 633 225 684 245 718 285 C 751 325 768 383 768 457 L 768 942 L 1055 942 L 1055 195 C 1055 175 1055 154 1056 132 C 1056 109 1057 88 1059 70 C 1060 46 1062 23 1065 0 L 782 0 C 780 15 779 32 778 51 C 776 66 776 84 776 106 C 776 128 776 152 776 178 L 766 178 C 744 122 705 74 651 34 C 596 -5 530 -25 453 -25 C 406 -25 362 -18 322 -5 C 282 7 247 27 218 55 C 188 82 165 117 148 161 C 131 205 123 257 123 319 L 123 942 L 410 942 Z M 520 1319 C 520 1271 504 1232 474 1203 C 443 1173 405 1159 359 1159 C 312 1159 274 1173 244 1203 C 214 1232 199 1271 199 1319 C 199 1368 214 1407 244 1437 C 274 1466 312 1481 359 1481 C 405 1481 443 1466 474 1437 C 504 1407 520 1368 520 1319 Z M 998 1319 C 998 1271 982 1232 951 1203 C 920 1173 883 1159 840 1159 C 792 1159 753 1173 723 1203 C 693 1232 678 1271 678 1319 C 678 1368 693 1407 723 1437 C 753 1466 792 1481 840 1481 C 883 1481 920 1466 951 1437 C 982 1407 998 1368 998 1319 Z" unicode="รผ" />
<glyph horiz-adv-x="1030" d="M -14 942 L 293 942 L 516 248 L 729 942 L 1028 942 L 590 -274 C 574 -318 555 -354 533 -383 C 511 -411 486 -434 460 -450 C 433 -466 405 -478 376 -485 C 346 -492 317 -496 287 -496 C 253 -496 217 -492 179 -486 C 141 -480 109 -472 82 -463 L 127 -217 C 147 -223 168 -229 190 -234 C 212 -239 234 -242 256 -242 C 276 -242 296 -238 314 -230 C 332 -222 345 -207 352 -184 L 381 -100 L -14 942 Z M 722 1645 L 867 1499 L 529 1159 L 384 1305 L 722 1645 Z" unicode="รฝ" />
<glyph horiz-adv-x="1247" d="M 428 786 C 451 836 489 879 543 914 C 596 949 659 967 733 967 C 787 967 842 956 897 935 C 951 913 1000 882 1042 841 C 1084 800 1119 749 1146 687 C 1172 625 1186 553 1186 471 C 1186 389 1172 317 1146 255 C 1119 193 1084 141 1042 100 C 1000 59 951 28 897 7 C 842 -14 787 -25 733 -25 C 663 -25 603 -10 552 18 C 500 46 461 81 434 123 L 424 123 C 426 103 428 82 429 60 C 429 38 430 20 430 6 L 430 -471 L 143 -471 L 143 1456 L 430 1456 L 430 936 C 430 922 428 900 426 872 C 423 843 420 814 418 786 L 428 786 Z M 889 471 C 889 520 882 562 870 596 C 858 630 841 657 819 679 C 797 700 771 716 743 726 C 714 736 683 741 649 741 C 581 741 525 720 482 678 C 439 636 418 567 418 471 C 418 374 439 305 482 263 C 525 221 581 201 649 201 C 683 201 714 206 743 216 C 771 226 797 241 819 263 C 841 284 858 312 870 346 C 882 380 889 421 889 471 Z" unicode="รพ" />
<glyph horiz-adv-x="1030" d="M -14 942 L 293 942 L 516 248 L 729 942 L 1028 942 L 590 -274 C 574 -318 555 -354 533 -383 C 511 -411 486 -434 460 -450 C 433 -466 405 -478 376 -485 C 346 -492 317 -496 287 -496 C 253 -496 217 -492 179 -486 C 141 -480 109 -472 82 -463 L 127 -217 C 147 -223 168 -229 190 -234 C 212 -239 234 -242 256 -242 C 276 -242 296 -238 314 -230 C 332 -222 345 -207 352 -184 L 381 -100 L -14 942 Z M 436 1319 C 436 1271 420 1232 390 1203 C 359 1173 321 1159 275 1159 C 228 1159 190 1173 160 1203 C 130 1232 115 1271 115 1319 C 115 1368 130 1407 160 1437 C 190 1466 228 1481 275 1481 C 321 1481 359 1466 390 1437 C 420 1407 436 1368 436 1319 Z M 914 1319 C 914 1271 898 1232 867 1203 C 836 1173 799 1159 756 1159 C 708 1159 669 1173 639 1203 C 609 1232 594 1271 594 1319 C 594 1368 609 1407 639 1437 C 669 1466 708 1481 756 1481 C 799 1481 836 1466 867 1437 C 898 1407 914 1368 914 1319 Z" unicode="รฟ" />
<glyph horiz-adv-x="1315" d="M 10 0 L 463 1333 L 811 1333 L 1305 0 L 981 0 L 897 242 L 401 242 L 328 0 L 10 0 Z M 467 492 L 823 492 L 633 1042 L 467 492 Z M 286 1745 L 982 1745 L 982 1550 L 286 1550 L 286 1745 Z" unicode="ฤ" />
<glyph horiz-adv-x="1137" d="M 1047 215 C 1061 215 1074 217 1085 221 L 1085 37 C 1067 23 1045 11 1017 2 C 989 -7 955 -12 915 -12 C 855 -12 811 4 784 37 C 756 69 741 110 737 158 L 729 158 C 709 107 675 64 625 28 C 575 -7 512 -25 434 -25 C 324 -25 239 2 179 58 C 118 113 88 184 88 272 C 88 322 99 364 122 397 C 144 429 174 456 210 477 C 246 497 285 513 329 523 C 373 533 416 541 459 547 L 709 580 L 709 602 C 709 659 690 700 652 724 C 614 748 564 760 500 760 C 435 760 380 748 336 724 C 292 700 258 671 236 637 L 125 811 C 139 827 159 845 183 864 C 207 883 236 900 270 915 C 304 930 344 943 390 953 C 436 963 488 969 547 969 C 682 969 788 940 864 883 C 940 825 979 734 979 608 C 979 588 979 562 979 532 C 979 502 979 472 980 442 C 980 412 981 384 981 358 C 981 332 981 312 981 299 C 981 243 1003 215 1047 215 Z M 711 420 L 512 391 C 464 384 426 373 398 357 C 370 341 356 315 356 279 C 356 248 367 223 389 203 C 411 183 443 174 487 174 C 528 174 563 179 592 189 C 620 199 643 212 661 228 C 679 244 691 261 699 279 C 707 297 711 316 711 334 L 711 420 Z M 219 1354 L 915 1354 L 915 1159 L 219 1159 L 219 1354 Z" unicode="ฤ" />
<glyph horiz-adv-x="1315" d="M 10 0 L 463 1333 L 811 1333 L 1305 0 L 981 0 L 897 242 L 401 242 L 328 0 L 10 0 Z M 467 492 L 823 492 L 633 1042 L 467 492 Z M 1038 1917 C 1038 1855 1026 1802 1004 1756 C 981 1710 951 1671 913 1641 C 875 1610 832 1587 783 1572 C 734 1557 683 1550 630 1550 C 576 1550 525 1557 476 1572 C 427 1587 384 1610 347 1641 C 310 1671 280 1710 258 1756 C 236 1802 225 1855 225 1917 L 442 1917 C 442 1848 460 1800 496 1772 C 532 1744 576 1730 630 1730 C 684 1730 729 1744 765 1772 C 801 1800 819 1848 819 1917 L 1038 1917 Z" unicode="ฤ" />
<glyph horiz-adv-x="1137" d="M 1047 215 C 1061 215 1074 217 1085 221 L 1085 37 C 1067 23 1045 11 1017 2 C 989 -7 955 -12 915 -12 C 855 -12 811 4 784 37 C 756 69 741 110 737 158 L 729 158 C 709 107 675 64 625 28 C 575 -7 512 -25 434 -25 C 324 -25 239 2 179 58 C 118 113 88 184 88 272 C 88 322 99 364 122 397 C 144 429 174 456 210 477 C 246 497 285 513 329 523 C 373 533 416 541 459 547 L 709 580 L 709 602 C 709 659 690 700 652 724 C 614 748 564 760 500 760 C 435 760 380 748 336 724 C 292 700 258 671 236 637 L 125 811 C 139 827 159 845 183 864 C 207 883 236 900 270 915 C 304 930 344 943 390 953 C 436 963 488 969 547 969 C 682 969 788 940 864 883 C 940 825 979 734 979 608 C 979 588 979 562 979 532 C 979 502 979 472 980 442 C 980 412 981 384 981 358 C 981 332 981 312 981 299 C 981 243 1003 215 1047 215 Z M 711 420 L 512 391 C 464 384 426 373 398 357 C 370 341 356 315 356 279 C 356 248 367 223 389 203 C 411 183 443 174 487 174 C 528 174 563 179 592 189 C 620 199 643 212 661 228 C 679 244 691 261 699 279 C 707 297 711 316 711 334 L 711 420 Z M 971 1526 C 971 1464 959 1411 937 1365 C 914 1319 884 1280 846 1250 C 808 1219 765 1196 716 1181 C 667 1166 616 1159 563 1159 C 509 1159 458 1166 409 1181 C 360 1196 317 1219 280 1250 C 243 1280 213 1319 191 1365 C 169 1411 158 1464 158 1526 L 375 1526 C 375 1457 393 1409 429 1381 C 465 1353 509 1339 563 1339 C 617 1339 662 1353 698 1381 C 734 1409 752 1457 752 1526 L 971 1526 Z" unicode="ฤ" />
<glyph horiz-adv-x="1315" d="M 10 0 L 463 1333 L 811 1333 L 1305 0 L 981 0 L 897 242 L 401 242 L 328 0 L 10 0 Z M 467 492 L 823 492 L 633 1042 L 467 492 Z M 1243 18 C 1097 -50 1024 -116 1024 -180 C 1024 -240 1057 -270 1123 -270 C 1165 -270 1205 -255 1243 -227 L 1315 -338 C 1247 -384 1168 -408 1078 -408 C 916 -402 836 -335 836 -207 C 836 -131 890 -62 1000 0 C 1024 13 1046 25 1065 35 L 1243 18 Z" unicode="ฤ" />
<glyph horiz-adv-x="1137" d="M 1047 215 C 1061 215 1074 217 1085 221 L 1085 37 C 1067 23 1045 11 1017 2 C 989 -7 955 -12 915 -12 C 855 -12 811 4 784 37 C 756 69 741 110 737 158 L 729 158 C 709 107 675 64 625 28 C 575 -7 512 -25 434 -25 C 324 -25 239 2 179 58 C 118 113 88 184 88 272 C 88 322 99 364 122 397 C 144 429 174 456 210 477 C 246 497 285 513 329 523 C 373 533 416 541 459 547 L 709 580 L 709 602 C 709 659 690 700 652 724 C 614 748 564 760 500 760 C 435 760 380 748 336 724 C 292 700 258 671 236 637 L 125 811 C 139 827 159 845 183 864 C 207 883 236 900 270 915 C 304 930 344 943 390 953 C 436 963 488 969 547 969 C 682 969 788 940 864 883 C 940 825 979 734 979 608 C 979 588 979 562 979 532 C 979 502 979 472 980 442 C 980 412 981 384 981 358 C 981 332 981 312 981 299 C 981 243 1003 215 1047 215 Z M 711 420 L 512 391 C 464 384 426 373 398 357 C 370 341 356 315 356 279 C 356 248 367 223 389 203 C 411 183 443 174 487 174 C 528 174 563 179 592 189 C 620 199 643 212 661 228 C 679 244 691 261 699 279 C 707 297 711 316 711 334 L 711 420 Z M 1054 18 C 908 -50 835 -116 835 -180 C 835 -240 868 -270 934 -270 C 976 -270 1016 -255 1054 -227 L 1126 -338 C 1058 -384 979 -408 889 -408 C 727 -402 647 -335 647 -207 C 647 -131 701 -62 811 0 C 835 13 857 25 876 35 L 1054 18 Z" unicode="ฤ" />
<glyph horiz-adv-x="1382" d="M 1057 920 C 1033 967 995 1008 943 1043 C 890 1078 819 1096 729 1096 C 611 1096 525 1058 471 982 C 416 906 389 803 389 674 C 389 538 419 432 479 354 C 539 276 626 238 741 238 C 831 238 903 256 955 294 C 1007 331 1045 376 1067 428 L 1319 291 C 1269 195 1196 118 1099 61 C 1002 3 879 -25 731 -25 C 635 -25 547 -9 467 22 C 386 54 317 99 259 159 C 201 218 155 290 123 376 C 90 461 74 558 74 666 C 74 774 90 872 124 958 C 157 1044 203 1116 263 1176 C 322 1236 392 1281 473 1312 C 553 1342 641 1358 735 1358 C 811 1358 881 1349 943 1333 C 1005 1317 1059 1296 1107 1270 C 1154 1244 1193 1214 1224 1182 C 1254 1149 1277 1117 1292 1085 L 1057 920 Z M 918 2036 L 1063 1890 L 725 1550 L 580 1696 L 918 2036 Z" unicode="ฤ" />
<glyph horiz-adv-x="1014" d="M 571 969 C 677 969 764 954 832 924 C 900 894 947 857 973 813 L 838 621 C 818 656 789 685 749 709 C 709 733 659 745 598 745 C 524 745 465 722 422 676 C 379 630 358 563 358 473 C 358 383 381 315 427 271 C 473 227 530 205 600 205 C 660 205 707 215 743 235 C 779 255 804 280 819 309 L 973 131 C 947 87 899 50 830 20 C 761 -9 675 -25 571 -25 C 499 -25 431 -13 368 9 C 305 31 251 64 205 106 C 159 148 124 201 99 263 C 73 325 61 395 61 473 C 61 551 74 620 101 682 C 127 743 164 795 210 837 C 256 879 310 912 373 935 C 435 957 501 969 571 969 Z M 791 1645 L 936 1499 L 598 1159 L 453 1305 L 791 1645 Z" unicode="ฤ" />
<glyph horiz-adv-x="1382" d="M 1057 920 C 1033 967 995 1008 943 1043 C 890 1078 819 1096 729 1096 C 611 1096 525 1058 471 982 C 416 906 389 803 389 674 C 389 538 419 432 479 354 C 539 276 626 238 741 238 C 831 238 903 256 955 294 C 1007 331 1045 376 1067 428 L 1319 291 C 1269 195 1196 118 1099 61 C 1002 3 879 -25 731 -25 C 635 -25 547 -9 467 22 C 386 54 317 99 259 159 C 201 218 155 290 123 376 C 90 461 74 558 74 666 C 74 774 90 872 124 958 C 157 1044 203 1116 263 1176 C 322 1236 392 1281 473 1312 C 553 1342 641 1358 735 1358 C 811 1358 881 1349 943 1333 C 1005 1317 1059 1296 1107 1270 C 1154 1244 1193 1214 1224 1182 C 1254 1149 1277 1117 1292 1085 L 1057 920 Z M 295 1550 L 662 1939 L 791 1939 L 1155 1550 L 897 1550 L 725 1788 L 555 1550 L 295 1550 Z" unicode="ฤ" />
<glyph horiz-adv-x="1014" d="M 571 969 C 677 969 764 954 832 924 C 900 894 947 857 973 813 L 838 621 C 818 656 789 685 749 709 C 709 733 659 745 598 745 C 524 745 465 722 422 676 C 379 630 358 563 358 473 C 358 383 381 315 427 271 C 473 227 530 205 600 205 C 660 205 707 215 743 235 C 779 255 804 280 819 309 L 973 131 C 947 87 899 50 830 20 C 761 -9 675 -25 571 -25 C 499 -25 431 -13 368 9 C 305 31 251 64 205 106 C 159 148 124 201 99 263 C 73 325 61 395 61 473 C 61 551 74 620 101 682 C 127 743 164 795 210 837 C 256 879 310 912 373 935 C 435 957 501 969 571 969 Z M 147 1159 L 514 1548 L 643 1548 L 1007 1159 L 749 1159 L 577 1397 L 407 1159 L 147 1159 Z" unicode="ฤ" />
<glyph horiz-adv-x="1382" d="M 1057 920 C 1033 967 995 1008 943 1043 C 890 1078 819 1096 729 1096 C 611 1096 525 1058 471 982 C 416 906 389 803 389 674 C 389 538 419 432 479 354 C 539 276 626 238 741 238 C 831 238 903 256 955 294 C 1007 331 1045 376 1067 428 L 1319 291 C 1269 195 1196 118 1099 61 C 1002 3 879 -25 731 -25 C 635 -25 547 -9 467 22 C 386 54 317 99 259 159 C 201 218 155 290 123 376 C 90 461 74 558 74 666 C 74 774 90 872 124 958 C 157 1044 203 1116 263 1176 C 322 1236 392 1281 473 1312 C 553 1342 641 1358 735 1358 C 811 1358 881 1349 943 1333 C 1005 1317 1059 1296 1107 1270 C 1154 1244 1193 1214 1224 1182 C 1254 1149 1277 1117 1292 1085 L 1057 920 Z M 902 1720 C 902 1668 886 1626 854 1596 C 822 1565 782 1550 734 1550 C 684 1550 644 1565 612 1596 C 580 1626 564 1668 564 1720 C 564 1772 580 1813 612 1845 C 644 1876 684 1892 734 1892 C 782 1892 822 1876 854 1845 C 886 1813 902 1772 902 1720 Z" unicode="ฤ" />
<glyph horiz-adv-x="1014" d="M 571 969 C 677 969 764 954 832 924 C 900 894 947 857 973 813 L 838 621 C 818 656 789 685 749 709 C 709 733 659 745 598 745 C 524 745 465 722 422 676 C 379 630 358 563 358 473 C 358 383 381 315 427 271 C 473 227 530 205 600 205 C 660 205 707 215 743 235 C 779 255 804 280 819 309 L 973 131 C 947 87 899 50 830 20 C 761 -9 675 -25 571 -25 C 499 -25 431 -13 368 9 C 305 31 251 64 205 106 C 159 148 124 201 99 263 C 73 325 61 395 61 473 C 61 551 74 620 101 682 C 127 743 164 795 210 837 C 256 879 310 912 373 935 C 435 957 501 969 571 969 Z M 737 1329 C 737 1277 721 1235 689 1205 C 657 1174 617 1159 569 1159 C 519 1159 479 1174 447 1205 C 415 1235 399 1277 399 1329 C 399 1381 415 1422 447 1454 C 479 1485 519 1501 569 1501 C 617 1501 657 1485 689 1454 C 721 1422 737 1381 737 1329 Z" unicode="ฤ" />
<glyph horiz-adv-x="1382" d="M 1057 920 C 1033 967 995 1008 943 1043 C 890 1078 819 1096 729 1096 C 611 1096 525 1058 471 982 C 416 906 389 803 389 674 C 389 538 419 432 479 354 C 539 276 626 238 741 238 C 831 238 903 256 955 294 C 1007 331 1045 376 1067 428 L 1319 291 C 1269 195 1196 118 1099 61 C 1002 3 879 -25 731 -25 C 635 -25 547 -9 467 22 C 386 54 317 99 259 159 C 201 218 155 290 123 376 C 90 461 74 558 74 666 C 74 774 90 872 124 958 C 157 1044 203 1116 263 1176 C 322 1236 392 1281 473 1312 C 553 1342 641 1358 735 1358 C 811 1358 881 1349 943 1333 C 1005 1317 1059 1296 1107 1270 C 1154 1244 1193 1214 1224 1182 C 1254 1149 1277 1117 1292 1085 L 1057 920 Z M 1161 1939 L 795 1550 L 666 1550 L 301 1939 L 559 1939 L 731 1702 L 901 1939 L 1161 1939 Z" unicode="ฤ" />
<glyph horiz-adv-x="1014" d="M 571 969 C 677 969 764 954 832 924 C 900 894 947 857 973 813 L 838 621 C 818 656 789 685 749 709 C 709 733 659 745 598 745 C 524 745 465 722 422 676 C 379 630 358 563 358 473 C 358 383 381 315 427 271 C 473 227 530 205 600 205 C 660 205 707 215 743 235 C 779 255 804 280 819 309 L 973 131 C 947 87 899 50 830 20 C 761 -9 675 -25 571 -25 C 499 -25 431 -13 368 9 C 305 31 251 64 205 106 C 159 148 124 201 99 263 C 73 325 61 395 61 473 C 61 551 74 620 101 682 C 127 743 164 795 210 837 C 256 879 310 912 373 935 C 435 957 501 969 571 969 Z M 983 1548 L 617 1159 L 488 1159 L 123 1548 L 381 1548 L 553 1311 L 723 1548 L 983 1548 Z" unicode="ฤ" />
<glyph horiz-adv-x="1423" d="M 143 0 L 143 1333 L 692 1333 C 901 1333 1063 1275 1179 1161 C 1294 1046 1352 881 1352 666 C 1352 452 1294 288 1179 173 C 1063 57 901 0 692 0 L 143 0 Z M 672 252 C 793 252 885 284 949 350 C 1012 416 1044 521 1044 666 C 1044 812 1012 917 949 983 C 885 1048 793 1081 672 1081 L 444 1081 L 444 252 L 672 252 Z M 1088 1939 L 722 1550 L 593 1550 L 228 1939 L 486 1939 L 658 1702 L 828 1939 L 1088 1939 Z" unicode="ฤ" />
<glyph horiz-adv-x="1288" d="M 1104 1456 L 1104 193 C 1104 171 1104 149 1105 127 C 1105 105 1106 84 1108 66 C 1109 44 1111 22 1114 0 L 838 0 C 838 15 837 31 836 47 C 834 74 832 110 829 156 L 819 156 C 808 131 793 108 775 86 C 757 64 734 44 708 28 C 681 12 650 0 615 -10 C 580 -20 540 -25 496 -25 C 436 -25 379 -13 327 9 C 274 31 228 64 188 107 C 148 150 117 202 95 264 C 72 325 61 394 61 471 C 61 546 73 614 97 676 C 121 737 153 789 194 832 C 235 875 283 908 338 932 C 392 955 450 967 512 967 C 588 967 653 952 705 922 C 757 892 793 857 813 819 L 823 819 C 821 833 820 846 819 860 C 817 871 817 883 817 897 C 817 911 817 924 817 936 L 817 1456 L 1104 1456 Z M 358 471 C 358 374 381 305 427 263 C 473 221 530 201 598 201 C 632 201 663 206 691 216 C 719 226 743 241 764 263 C 784 284 800 312 812 346 C 823 380 829 421 829 471 C 829 520 823 562 812 596 C 800 630 784 657 764 679 C 743 700 719 716 691 726 C 663 736 632 741 598 741 C 530 741 473 720 427 678 C 381 636 358 567 358 471 Z M 1198 1065 L 1229 1489 L 1493 1456 L 1394 1042 L 1198 1065 Z" unicode="ฤ" />
<glyph horiz-adv-x="1485" d="M 51 793 L 205 793 L 205 1333 L 754 1333 C 962 1333 1124 1275 1240 1161 C 1355 1046 1413 881 1413 666 C 1413 452 1355 288 1240 173 C 1124 57 962 0 754 0 L 205 0 L 205 549 L 51 549 L 51 793 Z M 733 252 C 854 252 946 284 1010 350 C 1074 416 1106 521 1106 666 C 1106 812 1074 917 1010 983 C 946 1048 854 1081 733 1081 L 506 1081 L 506 793 L 811 793 L 811 549 L 506 549 L 506 252 L 733 252 Z" unicode="ฤ" />
<glyph horiz-adv-x="1247" d="M 565 1268 L 817 1268 L 817 1456 L 1104 1456 L 1104 1268 L 1257 1268 L 1257 1075 L 1104 1075 L 1104 193 C 1104 171 1104 149 1105 127 C 1105 105 1106 84 1108 66 C 1109 44 1111 22 1114 0 L 838 0 C 838 15 837 31 836 47 C 834 74 832 110 829 156 L 819 156 C 795 105 756 62 702 27 C 648 -7 579 -25 496 -25 C 436 -25 379 -13 327 9 C 274 31 228 64 188 107 C 148 150 117 202 95 264 C 72 325 61 394 61 471 C 61 546 73 614 97 676 C 121 737 153 789 194 832 C 235 875 283 908 338 932 C 392 955 450 967 512 967 C 596 967 663 952 711 924 C 759 895 793 860 813 819 L 823 819 C 821 833 820 846 819 860 C 817 871 817 883 817 897 C 817 911 817 924 817 936 L 817 1075 L 565 1075 L 565 1268 Z M 358 471 C 358 374 381 305 427 263 C 473 221 530 201 598 201 C 632 201 663 206 691 216 C 719 226 743 241 764 263 C 784 284 800 312 812 346 C 823 380 829 421 829 471 C 829 520 823 562 812 596 C 800 630 784 657 764 679 C 743 700 719 716 691 726 C 663 736 632 741 598 741 C 530 741 473 720 427 678 C 381 636 358 567 358 471 Z" unicode="ฤ" />
<glyph horiz-adv-x="1219" d="M 451 1081 L 451 795 L 1040 795 L 1040 547 L 451 547 L 451 252 L 1106 252 L 1106 0 L 143 0 L 143 1333 L 1085 1333 L 1085 1081 L 451 1081 Z M 268 1745 L 964 1745 L 964 1550 L 268 1550 L 268 1745 Z" unicode="ฤ" />
<glyph horiz-adv-x="1126" d="M 1055 481 C 1055 471 1054 462 1054 453 C 1053 444 1053 436 1053 430 C 1051 422 1051 413 1051 403 L 358 403 C 358 362 365 328 380 301 C 395 273 414 251 438 234 C 461 217 487 205 515 198 C 543 191 570 188 598 188 C 672 188 732 197 780 217 C 828 236 867 263 899 299 L 993 111 C 949 71 892 38 821 13 C 750 -12 674 -25 592 -25 C 500 -25 421 -9 355 20 C 289 50 234 90 191 138 C 148 186 116 241 96 302 C 76 362 66 423 66 485 C 66 545 76 604 97 662 C 118 720 150 772 192 817 C 234 862 286 899 348 927 C 409 955 481 969 563 969 C 669 969 755 951 819 917 C 883 883 932 841 967 791 C 1002 741 1025 689 1037 633 C 1049 577 1055 526 1055 481 Z M 766 580 C 766 630 749 672 716 707 C 682 742 632 760 565 760 C 495 760 443 742 407 707 C 371 672 354 630 354 580 L 766 580 Z M 215 1354 L 911 1354 L 911 1159 L 215 1159 L 215 1354 Z" unicode="ฤ" />
<glyph horiz-adv-x="1219" d="M 451 1081 L 451 795 L 1040 795 L 1040 547 L 451 547 L 451 252 L 1106 252 L 1106 0 L 143 0 L 143 1333 L 1085 1333 L 1085 1081 L 451 1081 Z M 1010 1917 C 1010 1855 998 1802 976 1756 C 953 1710 923 1671 885 1641 C 847 1610 804 1587 755 1572 C 706 1557 655 1550 602 1550 C 548 1550 497 1557 448 1572 C 399 1587 356 1610 319 1641 C 282 1671 252 1710 230 1756 C 208 1802 197 1855 197 1917 L 414 1917 C 414 1848 432 1800 468 1772 C 504 1744 548 1730 602 1730 C 656 1730 701 1744 737 1772 C 773 1800 791 1848 791 1917 L 1010 1917 Z" unicode="ฤ" />
<glyph horiz-adv-x="1126" d="M 1055 481 C 1055 471 1054 462 1054 453 C 1053 444 1053 436 1053 430 C 1051 422 1051 413 1051 403 L 358 403 C 358 362 365 328 380 301 C 395 273 414 251 438 234 C 461 217 487 205 515 198 C 543 191 570 188 598 188 C 672 188 732 197 780 217 C 828 236 867 263 899 299 L 993 111 C 949 71 892 38 821 13 C 750 -12 674 -25 592 -25 C 500 -25 421 -9 355 20 C 289 50 234 90 191 138 C 148 186 116 241 96 302 C 76 362 66 423 66 485 C 66 545 76 604 97 662 C 118 720 150 772 192 817 C 234 862 286 899 348 927 C 409 955 481 969 563 969 C 669 969 755 951 819 917 C 883 883 932 841 967 791 C 1002 741 1025 689 1037 633 C 1049 577 1055 526 1055 481 Z M 766 580 C 766 630 749 672 716 707 C 682 742 632 760 565 760 C 495 760 443 742 407 707 C 371 672 354 630 354 580 L 766 580 Z M 969 1526 C 969 1464 957 1411 935 1365 C 912 1319 882 1280 844 1250 C 806 1219 763 1196 714 1181 C 665 1166 614 1159 561 1159 C 507 1159 456 1166 407 1181 C 358 1196 315 1219 278 1250 C 241 1280 211 1319 189 1365 C 167 1411 156 1464 156 1526 L 373 1526 C 373 1457 391 1409 427 1381 C 463 1353 507 1339 561 1339 C 615 1339 660 1353 696 1381 C 732 1409 750 1457 750 1526 L 969 1526 Z" unicode="ฤ" />
<glyph horiz-adv-x="1219" d="M 451 1081 L 451 795 L 1040 795 L 1040 547 L 451 547 L 451 252 L 1106 252 L 1106 0 L 143 0 L 143 1333 L 1085 1333 L 1085 1081 L 451 1081 Z M 802 1720 C 802 1668 786 1626 754 1596 C 722 1565 682 1550 634 1550 C 584 1550 544 1565 512 1596 C 480 1626 464 1668 464 1720 C 464 1772 480 1813 512 1845 C 544 1876 584 1892 634 1892 C 682 1892 722 1876 754 1845 C 786 1813 802 1772 802 1720 Z" unicode="ฤ" />
<glyph horiz-adv-x="1126" d="M 1055 481 C 1055 471 1054 462 1054 453 C 1053 444 1053 436 1053 430 C 1051 422 1051 413 1051 403 L 358 403 C 358 362 365 328 380 301 C 395 273 414 251 438 234 C 461 217 487 205 515 198 C 543 191 570 188 598 188 C 672 188 732 197 780 217 C 828 236 867 263 899 299 L 993 111 C 949 71 892 38 821 13 C 750 -12 674 -25 592 -25 C 500 -25 421 -9 355 20 C 289 50 234 90 191 138 C 148 186 116 241 96 302 C 76 362 66 423 66 485 C 66 545 76 604 97 662 C 118 720 150 772 192 817 C 234 862 286 899 348 927 C 409 955 481 969 563 969 C 669 969 755 951 819 917 C 883 883 932 841 967 791 C 1002 741 1025 689 1037 633 C 1049 577 1055 526 1055 481 Z M 766 580 C 766 630 749 672 716 707 C 682 742 632 760 565 760 C 495 760 443 742 407 707 C 371 672 354 630 354 580 L 766 580 Z M 731 1329 C 731 1277 715 1235 683 1205 C 651 1174 611 1159 563 1159 C 513 1159 473 1174 441 1205 C 409 1235 393 1277 393 1329 C 393 1381 409 1422 441 1454 C 473 1485 513 1501 563 1501 C 611 1501 651 1485 683 1454 C 715 1422 731 1381 731 1329 Z" unicode="ฤ" />
<glyph horiz-adv-x="1219" d="M 451 1081 L 451 795 L 1040 795 L 1040 547 L 451 547 L 451 252 L 1106 252 L 1106 0 L 143 0 L 143 1333 L 1085 1333 L 1085 1081 L 451 1081 Z M 1036 18 C 890 -50 817 -116 817 -180 C 817 -240 850 -270 916 -270 C 958 -270 998 -255 1036 -227 L 1108 -338 C 1040 -384 961 -408 871 -408 C 709 -402 629 -335 629 -207 C 629 -131 683 -62 793 0 C 817 13 839 25 858 35 L 1036 18 Z" unicode="ฤ" />
<glyph horiz-adv-x="1126" d="M 1055 481 C 1055 471 1054 462 1054 453 C 1053 444 1053 436 1053 430 C 1051 422 1051 413 1051 403 L 358 403 C 358 362 365 328 380 301 C 395 273 414 251 438 234 C 461 217 487 205 515 198 C 543 191 570 188 598 188 C 672 188 732 197 780 217 C 828 236 867 263 899 299 L 993 111 C 949 71 892 38 821 13 C 750 -12 674 -25 592 -25 C 500 -25 421 -9 355 20 C 289 50 234 90 191 138 C 148 186 116 241 96 302 C 76 362 66 423 66 485 C 66 545 76 604 97 662 C 118 720 150 772 192 817 C 234 862 286 899 348 927 C 409 955 481 969 563 969 C 669 969 755 951 819 917 C 883 883 932 841 967 791 C 1002 741 1025 689 1037 633 C 1049 577 1055 526 1055 481 Z M 766 580 C 766 630 749 672 716 707 C 682 742 632 760 565 760 C 495 760 443 742 407 707 C 371 672 354 630 354 580 L 766 580 Z M 828 18 C 682 -50 609 -116 609 -180 C 609 -240 642 -270 708 -270 C 750 -270 790 -255 828 -227 L 900 -338 C 832 -384 753 -408 663 -408 C 501 -402 421 -335 421 -207 C 421 -131 475 -62 585 0 C 609 13 631 25 650 35 L 828 18 Z" unicode="ฤ" />
<glyph horiz-adv-x="1219" d="M 451 1081 L 451 795 L 1040 795 L 1040 547 L 451 547 L 451 252 L 1106 252 L 1106 0 L 143 0 L 143 1333 L 1085 1333 L 1085 1081 L 451 1081 Z M 1048 1939 L 682 1550 L 553 1550 L 188 1939 L 446 1939 L 618 1702 L 788 1939 L 1048 1939 Z" unicode="ฤ" />
<glyph horiz-adv-x="1126" d="M 1055 481 C 1055 471 1054 462 1054 453 C 1053 444 1053 436 1053 430 C 1051 422 1051 413 1051 403 L 358 403 C 358 362 365 328 380 301 C 395 273 414 251 438 234 C 461 217 487 205 515 198 C 543 191 570 188 598 188 C 672 188 732 197 780 217 C 828 236 867 263 899 299 L 993 111 C 949 71 892 38 821 13 C 750 -12 674 -25 592 -25 C 500 -25 421 -9 355 20 C 289 50 234 90 191 138 C 148 186 116 241 96 302 C 76 362 66 423 66 485 C 66 545 76 604 97 662 C 118 720 150 772 192 817 C 234 862 286 899 348 927 C 409 955 481 969 563 969 C 669 969 755 951 819 917 C 883 883 932 841 967 791 C 1002 741 1025 689 1037 633 C 1049 577 1055 526 1055 481 Z M 766 580 C 766 630 749 672 716 707 C 682 742 632 760 565 760 C 495 760 443 742 407 707 C 371 672 354 630 354 580 L 766 580 Z M 999 1548 L 633 1159 L 504 1159 L 139 1548 L 397 1548 L 569 1311 L 739 1548 L 999 1548 Z" unicode="ฤ" />
<glyph horiz-adv-x="1413" d="M 1026 504 L 725 504 L 725 750 L 1300 750 L 1300 0 L 1090 0 L 1065 178 L 1057 178 C 1050 162 1038 142 1022 120 C 1005 97 982 75 954 53 C 925 31 890 12 848 -2 C 806 -17 757 -25 700 -25 C 615 -25 535 -8 459 23 C 383 55 317 102 260 162 C 202 222 157 295 124 381 C 90 467 74 564 74 672 C 74 780 90 876 124 960 C 157 1044 203 1116 263 1175 C 322 1234 392 1279 474 1311 C 555 1342 643 1358 739 1358 C 797 1358 851 1354 900 1347 C 948 1340 993 1329 1035 1313 C 1077 1297 1115 1277 1151 1253 C 1186 1229 1221 1199 1257 1163 L 1075 963 C 1037 1010 990 1048 934 1076 C 878 1104 809 1118 727 1118 C 668 1118 617 1107 573 1085 C 529 1063 493 1033 465 993 C 436 953 414 907 400 853 C 386 799 379 740 379 676 C 379 607 386 545 402 490 C 418 435 441 388 473 348 C 504 308 543 278 591 256 C 638 234 694 223 758 223 C 806 223 848 229 882 241 C 916 253 944 269 965 288 C 986 307 1001 328 1011 352 C 1021 375 1026 398 1026 420 L 1026 504 Z M 293 1550 L 660 1939 L 789 1939 L 1153 1550 L 895 1550 L 723 1788 L 553 1550 L 293 1550 Z" unicode="ฤ" />
<glyph horiz-adv-x="1165" d="M 1133 735 C 1127 736 1120 738 1112 741 C 1105 742 1095 743 1082 745 C 1069 747 1054 748 1036 748 C 1008 748 986 744 968 738 C 950 732 937 727 928 723 C 946 677 956 631 956 584 C 956 526 944 478 920 438 C 896 398 865 366 826 341 C 787 315 743 296 693 282 C 643 268 593 260 543 256 C 530 254 517 253 503 251 C 489 249 477 245 466 239 C 454 233 445 226 437 217 C 429 207 426 194 426 178 C 426 157 433 141 447 131 C 461 120 480 115 504 115 L 797 115 C 897 115 969 95 1011 55 C 1053 15 1075 -36 1075 -102 C 1075 -173 1056 -233 1020 -283 C 983 -333 937 -373 881 -405 C 825 -437 764 -460 698 -474 C 632 -488 571 -496 514 -496 C 450 -496 389 -492 333 -484 C 276 -476 227 -463 185 -445 C 143 -427 111 -401 87 -368 C 63 -335 51 -294 51 -244 C 51 -198 62 -161 84 -133 C 106 -104 131 -81 160 -65 C 188 -49 217 -38 246 -32 C 274 -26 295 -23 307 -23 C 300 -19 291 -15 279 -10 C 267 -4 256 3 245 13 C 234 23 224 37 216 53 C 207 69 203 89 203 113 C 203 134 207 153 217 170 C 226 186 238 200 252 212 C 266 223 282 233 298 241 C 314 249 328 256 340 260 C 307 269 276 284 246 306 C 216 327 189 352 166 381 C 142 409 124 442 110 478 C 96 514 90 553 90 596 C 90 652 101 702 125 748 C 148 794 179 833 218 865 C 256 897 302 922 355 940 C 407 958 464 967 524 967 C 588 967 646 957 698 938 C 750 918 795 892 834 860 C 840 871 850 884 864 900 C 878 916 894 931 913 946 C 932 961 955 974 981 985 C 1007 995 1035 1001 1067 1001 C 1077 1001 1087 1000 1097 1000 C 1107 999 1115 999 1122 999 C 1130 997 1138 997 1145 997 L 1133 735 Z M 455 -82 C 403 -82 367 -94 349 -119 C 331 -143 322 -173 322 -209 C 322 -248 339 -278 374 -298 C 408 -318 465 -328 545 -328 C 624 -328 686 -318 731 -298 C 776 -278 799 -244 799 -197 C 799 -149 785 -117 758 -103 C 730 -89 692 -82 643 -82 L 455 -82 Z M 522 432 C 638 432 696 488 696 602 C 696 715 638 772 522 772 C 406 772 348 715 348 602 C 348 488 406 432 522 432 Z M 204 1159 L 468 1548 L 597 1548 L 859 1159 L 642 1159 L 531 1397 L 423 1159 L 204 1159 Z" unicode="ฤ" />
<glyph horiz-adv-x="1413" d="M 1026 504 L 725 504 L 725 750 L 1300 750 L 1300 0 L 1090 0 L 1065 178 L 1057 178 C 1050 162 1038 142 1022 120 C 1005 97 982 75 954 53 C 925 31 890 12 848 -2 C 806 -17 757 -25 700 -25 C 615 -25 535 -8 459 23 C 383 55 317 102 260 162 C 202 222 157 295 124 381 C 90 467 74 564 74 672 C 74 780 90 876 124 960 C 157 1044 203 1116 263 1175 C 322 1234 392 1279 474 1311 C 555 1342 643 1358 739 1358 C 797 1358 851 1354 900 1347 C 948 1340 993 1329 1035 1313 C 1077 1297 1115 1277 1151 1253 C 1186 1229 1221 1199 1257 1163 L 1075 963 C 1037 1010 990 1048 934 1076 C 878 1104 809 1118 727 1118 C 668 1118 617 1107 573 1085 C 529 1063 493 1033 465 993 C 436 953 414 907 400 853 C 386 799 379 740 379 676 C 379 607 386 545 402 490 C 418 435 441 388 473 348 C 504 308 543 278 591 256 C 638 234 694 223 758 223 C 806 223 848 229 882 241 C 916 253 944 269 965 288 C 986 307 1001 328 1011 352 C 1021 375 1026 398 1026 420 L 1026 504 Z M 1131 1917 C 1131 1855 1119 1802 1097 1756 C 1074 1710 1044 1671 1006 1641 C 968 1610 925 1587 876 1572 C 827 1557 776 1550 723 1550 C 669 1550 618 1557 569 1572 C 520 1587 477 1610 440 1641 C 403 1671 373 1710 351 1756 C 329 1802 318 1855 318 1917 L 535 1917 C 535 1848 553 1800 589 1772 C 625 1744 669 1730 723 1730 C 777 1730 822 1744 858 1772 C 894 1800 912 1848 912 1917 L 1131 1917 Z" unicode="ฤ" />
<glyph horiz-adv-x="1165" d="M 1133 735 C 1127 736 1120 738 1112 741 C 1105 742 1095 743 1082 745 C 1069 747 1054 748 1036 748 C 1008 748 986 744 968 738 C 950 732 937 727 928 723 C 946 677 956 631 956 584 C 956 526 944 478 920 438 C 896 398 865 366 826 341 C 787 315 743 296 693 282 C 643 268 593 260 543 256 C 530 254 517 253 503 251 C 489 249 477 245 466 239 C 454 233 445 226 437 217 C 429 207 426 194 426 178 C 426 157 433 141 447 131 C 461 120 480 115 504 115 L 797 115 C 897 115 969 95 1011 55 C 1053 15 1075 -36 1075 -102 C 1075 -173 1056 -233 1020 -283 C 983 -333 937 -373 881 -405 C 825 -437 764 -460 698 -474 C 632 -488 571 -496 514 -496 C 450 -496 389 -492 333 -484 C 276 -476 227 -463 185 -445 C 143 -427 111 -401 87 -368 C 63 -335 51 -294 51 -244 C 51 -198 62 -161 84 -133 C 106 -104 131 -81 160 -65 C 188 -49 217 -38 246 -32 C 274 -26 295 -23 307 -23 C 300 -19 291 -15 279 -10 C 267 -4 256 3 245 13 C 234 23 224 37 216 53 C 207 69 203 89 203 113 C 203 134 207 153 217 170 C 226 186 238 200 252 212 C 266 223 282 233 298 241 C 314 249 328 256 340 260 C 307 269 276 284 246 306 C 216 327 189 352 166 381 C 142 409 124 442 110 478 C 96 514 90 553 90 596 C 90 652 101 702 125 748 C 148 794 179 833 218 865 C 256 897 302 922 355 940 C 407 958 464 967 524 967 C 588 967 646 957 698 938 C 750 918 795 892 834 860 C 840 871 850 884 864 900 C 878 916 894 931 913 946 C 932 961 955 974 981 985 C 1007 995 1035 1001 1067 1001 C 1077 1001 1087 1000 1097 1000 C 1107 999 1115 999 1122 999 C 1130 997 1138 997 1145 997 L 1133 735 Z M 455 -82 C 403 -82 367 -94 349 -119 C 331 -143 322 -173 322 -209 C 322 -248 339 -278 374 -298 C 408 -318 465 -328 545 -328 C 624 -328 686 -318 731 -298 C 776 -278 799 -244 799 -197 C 799 -149 785 -117 758 -103 C 730 -89 692 -82 643 -82 L 455 -82 Z M 522 432 C 638 432 696 488 696 602 C 696 715 638 772 522 772 C 406 772 348 715 348 602 C 348 488 406 432 522 432 Z M 932 1526 C 932 1464 920 1411 898 1365 C 875 1319 845 1280 807 1250 C 769 1219 726 1196 677 1181 C 628 1166 577 1159 524 1159 C 470 1159 419 1166 370 1181 C 321 1196 278 1219 241 1250 C 204 1280 174 1319 152 1365 C 130 1411 119 1464 119 1526 L 336 1526 C 336 1457 354 1409 390 1381 C 426 1353 470 1339 524 1339 C 578 1339 623 1353 659 1381 C 695 1409 713 1457 713 1526 L 932 1526 Z" unicode="ฤ" />
<glyph horiz-adv-x="1413" d="M 1026 504 L 725 504 L 725 750 L 1300 750 L 1300 0 L 1090 0 L 1065 178 L 1057 178 C 1050 162 1038 142 1022 120 C 1005 97 982 75 954 53 C 925 31 890 12 848 -2 C 806 -17 757 -25 700 -25 C 615 -25 535 -8 459 23 C 383 55 317 102 260 162 C 202 222 157 295 124 381 C 90 467 74 564 74 672 C 74 780 90 876 124 960 C 157 1044 203 1116 263 1175 C 322 1234 392 1279 474 1311 C 555 1342 643 1358 739 1358 C 797 1358 851 1354 900 1347 C 948 1340 993 1329 1035 1313 C 1077 1297 1115 1277 1151 1253 C 1186 1229 1221 1199 1257 1163 L 1075 963 C 1037 1010 990 1048 934 1076 C 878 1104 809 1118 727 1118 C 668 1118 617 1107 573 1085 C 529 1063 493 1033 465 993 C 436 953 414 907 400 853 C 386 799 379 740 379 676 C 379 607 386 545 402 490 C 418 435 441 388 473 348 C 504 308 543 278 591 256 C 638 234 694 223 758 223 C 806 223 848 229 882 241 C 916 253 944 269 965 288 C 986 307 1001 328 1011 352 C 1021 375 1026 398 1026 420 L 1026 504 Z M 892 1720 C 892 1668 876 1626 844 1596 C 812 1565 772 1550 724 1550 C 674 1550 634 1565 602 1596 C 570 1626 554 1668 554 1720 C 554 1772 570 1813 602 1845 C 634 1876 674 1892 724 1892 C 772 1892 812 1876 844 1845 C 876 1813 892 1772 892 1720 Z" unicode="ฤ" />
<glyph horiz-adv-x="1165" d="M 1133 735 C 1127 736 1120 738 1112 741 C 1105 742 1095 743 1082 745 C 1069 747 1054 748 1036 748 C 1008 748 986 744 968 738 C 950 732 937 727 928 723 C 946 677 956 631 956 584 C 956 526 944 478 920 438 C 896 398 865 366 826 341 C 787 315 743 296 693 282 C 643 268 593 260 543 256 C 530 254 517 253 503 251 C 489 249 477 245 466 239 C 454 233 445 226 437 217 C 429 207 426 194 426 178 C 426 157 433 141 447 131 C 461 120 480 115 504 115 L 797 115 C 897 115 969 95 1011 55 C 1053 15 1075 -36 1075 -102 C 1075 -173 1056 -233 1020 -283 C 983 -333 937 -373 881 -405 C 825 -437 764 -460 698 -474 C 632 -488 571 -496 514 -496 C 450 -496 389 -492 333 -484 C 276 -476 227 -463 185 -445 C 143 -427 111 -401 87 -368 C 63 -335 51 -294 51 -244 C 51 -198 62 -161 84 -133 C 106 -104 131 -81 160 -65 C 188 -49 217 -38 246 -32 C 274 -26 295 -23 307 -23 C 300 -19 291 -15 279 -10 C 267 -4 256 3 245 13 C 234 23 224 37 216 53 C 207 69 203 89 203 113 C 203 134 207 153 217 170 C 226 186 238 200 252 212 C 266 223 282 233 298 241 C 314 249 328 256 340 260 C 307 269 276 284 246 306 C 216 327 189 352 166 381 C 142 409 124 442 110 478 C 96 514 90 553 90 596 C 90 652 101 702 125 748 C 148 794 179 833 218 865 C 256 897 302 922 355 940 C 407 958 464 967 524 967 C 588 967 646 957 698 938 C 750 918 795 892 834 860 C 840 871 850 884 864 900 C 878 916 894 931 913 946 C 932 961 955 974 981 985 C 1007 995 1035 1001 1067 1001 C 1077 1001 1087 1000 1097 1000 C 1107 999 1115 999 1122 999 C 1130 997 1138 997 1145 997 L 1133 735 Z M 455 -82 C 403 -82 367 -94 349 -119 C 331 -143 322 -173 322 -209 C 322 -248 339 -278 374 -298 C 408 -318 465 -328 545 -328 C 624 -328 686 -318 731 -298 C 776 -278 799 -244 799 -197 C 799 -149 785 -117 758 -103 C 730 -89 692 -82 643 -82 L 455 -82 Z M 522 432 C 638 432 696 488 696 602 C 696 715 638 772 522 772 C 406 772 348 715 348 602 C 348 488 406 432 522 432 Z M 751 1329 C 751 1277 735 1235 703 1205 C 671 1174 631 1159 583 1159 C 533 1159 493 1174 461 1205 C 429 1235 413 1277 413 1329 C 413 1381 429 1422 461 1454 C 493 1485 533 1501 583 1501 C 631 1501 671 1485 703 1454 C 735 1422 751 1381 751 1329 Z" unicode="ฤก" />
<glyph horiz-adv-x="1413" d="M 1026 504 L 725 504 L 725 750 L 1300 750 L 1300 0 L 1090 0 L 1065 178 L 1057 178 C 1050 162 1038 142 1022 120 C 1005 97 982 75 954 53 C 925 31 890 12 848 -2 C 806 -17 757 -25 700 -25 C 615 -25 535 -8 459 23 C 383 55 317 102 260 162 C 202 222 157 295 124 381 C 90 467 74 564 74 672 C 74 780 90 876 124 960 C 157 1044 203 1116 263 1175 C 322 1234 392 1279 474 1311 C 555 1342 643 1358 739 1358 C 797 1358 851 1354 900 1347 C 948 1340 993 1329 1035 1313 C 1077 1297 1115 1277 1151 1253 C 1186 1229 1221 1199 1257 1163 L 1075 963 C 1037 1010 990 1048 934 1076 C 878 1104 809 1118 727 1118 C 668 1118 617 1107 573 1085 C 529 1063 493 1033 465 993 C 436 953 414 907 400 853 C 386 799 379 740 379 676 C 379 607 386 545 402 490 C 418 435 441 388 473 348 C 504 308 543 278 591 256 C 638 234 694 223 758 223 C 806 223 848 229 882 241 C 916 253 944 269 965 288 C 986 307 1001 328 1011 352 C 1021 375 1026 398 1026 420 L 1026 504 Z M 562 -528 L 584 -168 L 830 -207 L 719 -555 L 562 -528 Z" unicode="ฤข" />
<glyph horiz-adv-x="1165" d="M 1133 735 C 1127 736 1120 738 1112 741 C 1105 742 1095 743 1082 745 C 1069 747 1054 748 1036 748 C 1008 748 986 744 968 738 C 950 732 937 727 928 723 C 946 677 956 631 956 584 C 956 526 944 478 920 438 C 896 398 865 366 826 341 C 787 315 743 296 693 282 C 643 268 593 260 543 256 C 530 254 517 253 503 251 C 489 249 477 245 466 239 C 454 233 445 226 437 217 C 429 207 426 194 426 178 C 426 157 433 141 447 131 C 461 120 480 115 504 115 L 797 115 C 897 115 969 95 1011 55 C 1053 15 1075 -36 1075 -102 C 1075 -173 1056 -233 1020 -283 C 983 -333 937 -373 881 -405 C 825 -437 764 -460 698 -474 C 632 -488 571 -496 514 -496 C 450 -496 389 -492 333 -484 C 276 -476 227 -463 185 -445 C 143 -427 111 -401 87 -368 C 63 -335 51 -294 51 -244 C 51 -198 62 -161 84 -133 C 106 -104 131 -81 160 -65 C 188 -49 217 -38 246 -32 C 274 -26 295 -23 307 -23 C 300 -19 291 -15 279 -10 C 267 -4 256 3 245 13 C 234 23 224 37 216 53 C 207 69 203 89 203 113 C 203 134 207 153 217 170 C 226 186 238 200 252 212 C 266 223 282 233 298 241 C 314 249 328 256 340 260 C 307 269 276 284 246 306 C 216 327 189 352 166 381 C 142 409 124 442 110 478 C 96 514 90 553 90 596 C 90 652 101 702 125 748 C 148 794 179 833 218 865 C 256 897 302 922 355 940 C 407 958 464 967 524 967 C 588 967 646 957 698 938 C 750 918 795 892 834 860 C 840 871 850 884 864 900 C 878 916 894 931 913 946 C 932 961 955 974 981 985 C 1007 995 1035 1001 1067 1001 C 1077 1001 1087 1000 1097 1000 C 1107 999 1115 999 1122 999 C 1130 997 1138 997 1145 997 L 1133 735 Z M 455 -82 C 403 -82 367 -94 349 -119 C 331 -143 322 -173 322 -209 C 322 -248 339 -278 374 -298 C 408 -318 465 -328 545 -328 C 624 -328 686 -318 731 -298 C 776 -278 799 -244 799 -197 C 799 -149 785 -117 758 -103 C 730 -89 692 -82 643 -82 L 455 -82 Z M 522 432 C 638 432 696 488 696 602 C 696 715 638 772 522 772 C 406 772 348 715 348 602 C 348 488 406 432 522 432 Z M 663 1505 L 641 1145 L 395 1184 L 506 1532 L 663 1505 Z" unicode="ฤฃ" />
<glyph horiz-adv-x="1466" d="M 1323 1333 L 1323 0 L 1016 0 L 1016 539 L 451 539 L 451 0 L 143 0 L 143 1333 L 451 1333 L 451 795 L 1016 795 L 1016 1333 L 1323 1333 Z M 293 1550 L 660 1939 L 789 1939 L 1153 1550 L 895 1550 L 723 1788 L 553 1550 L 293 1550 Z" unicode="ฤค" />
<glyph horiz-adv-x="1219" d="M 809 539 C 809 590 794 632 766 666 C 737 700 695 717 641 717 C 571 717 519 693 483 647 C 447 601 430 541 430 467 L 430 0 L 143 0 L 143 1333 L 430 1333 L 430 776 C 442 800 459 824 479 848 C 499 871 524 891 552 909 C 580 927 610 941 644 951 C 677 961 713 967 752 967 C 798 967 841 960 883 947 C 925 934 961 914 993 887 C 1024 859 1049 824 1068 780 C 1086 736 1096 684 1096 623 L 1096 0 L 809 0 L 809 539 Z M 174 1550 L 541 1939 L 670 1939 L 1034 1550 L 776 1550 L 604 1788 L 434 1550 L 174 1550 Z" unicode="ฤฅ" />
<glyph horiz-adv-x="1589" d="M 1384 1333 L 1384 1141 L 1538 1141 L 1538 897 L 1384 897 L 1384 0 L 1077 0 L 1077 436 L 512 436 L 512 0 L 205 0 L 205 897 L 51 897 L 51 1141 L 205 1141 L 205 1333 L 512 1333 L 512 1141 L 1077 1141 L 1077 1333 L 1384 1333 Z M 1077 692 L 1077 897 L 512 897 L 512 692 L 1077 692 Z" unicode="ฤฆ" />
<glyph horiz-adv-x="1219" d="M -10 1268 L 143 1268 L 143 1456 L 430 1456 L 430 1268 L 682 1268 L 682 1075 L 430 1075 L 430 776 C 442 800 459 824 479 848 C 499 871 524 891 552 909 C 580 927 610 941 644 951 C 677 961 713 967 752 967 C 798 967 841 960 883 947 C 925 934 961 914 993 887 C 1024 859 1049 824 1068 780 C 1086 736 1096 684 1096 623 L 1096 0 L 809 0 L 809 539 C 809 590 794 632 766 666 C 737 700 695 717 641 717 C 571 717 519 693 483 647 C 447 601 430 541 430 467 L 430 0 L 143 0 L 143 1075 L -10 1075 L -10 1268 Z" unicode="ฤง" />
<glyph horiz-adv-x="594" d="M 143 0 L 143 1333 L 451 1333 L 451 0 L 143 0 Z M 137 1860 C 161 1860 187 1854 215 1842 C 243 1830 271 1817 298 1803 C 325 1789 350 1776 373 1764 C 395 1752 413 1747 427 1747 C 439 1747 448 1750 456 1757 C 463 1763 469 1772 473 1783 C 477 1793 481 1805 484 1819 C 486 1833 489 1847 492 1862 L 642 1804 C 645 1778 643 1750 637 1720 C 630 1690 618 1663 602 1638 C 586 1612 565 1591 539 1575 C 513 1558 483 1550 449 1550 C 423 1550 397 1555 369 1567 C 341 1579 315 1592 289 1606 C 263 1620 238 1633 216 1645 C 193 1657 174 1663 160 1663 C 149 1663 140 1659 133 1653 C 125 1647 119 1638 114 1628 C 109 1618 105 1606 102 1592 C 99 1578 96 1563 94 1548 L -56 1606 C -57 1642 -53 1675 -44 1706 C -34 1737 -21 1764 -3 1787 C 14 1809 35 1827 59 1840 C 83 1853 109 1860 137 1860 Z" unicode="ฤจ" />
<glyph horiz-adv-x="573" d="M 143 0 L 143 942 L 430 942 L 430 0 L 143 0 Z M 136 1469 C 158 1469 182 1463 208 1451 C 234 1439 260 1426 285 1412 C 310 1398 333 1385 355 1373 C 376 1361 393 1356 405 1356 C 415 1356 424 1359 431 1366 C 437 1372 443 1381 447 1392 C 451 1402 455 1414 458 1428 C 460 1442 463 1456 465 1471 L 615 1413 C 618 1387 617 1359 611 1329 C 605 1299 594 1272 579 1247 C 563 1221 544 1200 520 1184 C 496 1167 468 1159 436 1159 C 412 1159 388 1164 362 1176 C 336 1188 311 1201 287 1215 C 263 1229 240 1242 220 1254 C 199 1266 182 1272 168 1272 C 158 1272 149 1268 143 1262 C 136 1256 130 1247 126 1237 C 121 1227 117 1215 114 1201 C 111 1187 109 1172 107 1157 L -43 1215 C -44 1251 -40 1284 -32 1315 C -23 1346 -10 1373 5 1396 C 21 1418 41 1436 63 1449 C 85 1462 110 1469 136 1469 Z" unicode="ฤฉ" />
<glyph horiz-adv-x="594" d="M 143 0 L 143 1333 L 451 1333 L 451 0 L 143 0 Z M -57 1745 L 639 1745 L 639 1550 L -57 1550 L -57 1745 Z" unicode="ฤช" />
<glyph horiz-adv-x="573" d="M -41 1354 L 615 1354 L 615 1159 L -41 1159 L -41 1354 Z M 143 0 L 143 942 L 430 942 L 430 0 L 143 0 Z" unicode="ฤซ" />
<glyph horiz-adv-x="594" d="M 143 0 L 143 1333 L 451 1333 L 451 0 L 143 0 Z M 696 1917 C 696 1855 684 1802 662 1756 C 639 1710 609 1671 571 1641 C 533 1610 490 1587 441 1572 C 392 1557 341 1550 288 1550 C 234 1550 183 1557 134 1572 C 85 1587 42 1610 5 1641 C -31 1671 -61 1710 -83 1756 C -105 1802 -117 1855 -117 1917 L 100 1917 C 100 1848 118 1800 154 1772 C 190 1744 234 1730 288 1730 C 342 1730 387 1744 423 1772 C 459 1800 477 1848 477 1917 L 696 1917 Z" unicode="ฤฌ" />
<glyph horiz-adv-x="573" d="M 143 0 L 143 942 L 430 942 L 430 0 L 143 0 Z M 675 1506 C 675 1448 664 1397 642 1354 C 620 1310 592 1274 556 1245 C 520 1216 479 1194 433 1180 C 386 1166 337 1159 287 1159 C 236 1159 187 1166 141 1180 C 94 1194 53 1216 18 1245 C -16 1274 -44 1310 -66 1354 C -87 1397 -98 1448 -98 1506 L 119 1506 C 119 1444 135 1401 167 1376 C 199 1351 239 1339 287 1339 C 335 1339 376 1351 408 1376 C 440 1401 456 1444 456 1506 L 675 1506 Z" unicode="ฤญ" />
<glyph horiz-adv-x="594" d="M 143 0 L 143 1333 L 451 1333 L 451 0 L 143 0 Z M 376 18 C 230 -50 157 -116 157 -180 C 157 -240 190 -270 256 -270 C 298 -270 338 -255 376 -227 L 448 -338 C 380 -384 301 -408 211 -408 C 49 -402 -31 -335 -31 -207 C -31 -131 23 -62 133 0 C 157 13 179 25 198 35 L 376 18 Z" unicode="ฤฎ" />
<glyph horiz-adv-x="573" d="M 385 18 C 239 -50 166 -116 166 -180 C 166 -240 199 -270 265 -270 C 307 -270 347 -255 385 -227 L 457 -338 C 389 -384 310 -408 220 -408 C 58 -402 -22 -335 -22 -207 C -22 -131 32 -62 142 0 C 166 13 188 25 207 35 L 385 18 Z M 143 0 L 143 942 L 430 942 L 430 0 L 143 0 Z M 455 1329 C 455 1277 439 1235 407 1205 C 375 1174 335 1159 287 1159 C 237 1159 197 1174 165 1205 C 133 1235 117 1277 117 1329 C 117 1381 133 1422 165 1454 C 197 1485 237 1501 287 1501 C 335 1501 375 1485 407 1454 C 439 1422 455 1381 455 1329 Z" unicode="ฤฏ" />
<glyph horiz-adv-x="594" d="M 143 0 L 143 1333 L 451 1333 L 451 0 L 143 0 Z M 463 1720 C 463 1668 447 1626 415 1596 C 383 1565 343 1550 295 1550 C 245 1550 205 1565 173 1596 C 141 1626 125 1668 125 1720 C 125 1772 141 1813 173 1845 C 205 1876 245 1892 295 1892 C 343 1892 383 1876 415 1845 C 447 1813 463 1772 463 1720 Z" unicode="ฤฐ" />
<glyph horiz-adv-x="573" d="M 143 0 L 143 942 L 430 942 L 430 0 L 143 0 Z" unicode="ฤฑ" />
<glyph horiz-adv-x="1616" d="M 143 0 L 143 1333 L 451 1333 L 451 0 L 143 0 Z M 1483 1333 L 1483 430 C 1483 286 1446 175 1373 95 C 1300 15 1188 -25 1038 -25 C 950 -25 879 -14 823 7 C 767 28 722 52 690 80 C 652 110 623 144 604 184 L 776 403 C 791 370 810 341 832 317 C 850 295 874 276 902 258 C 930 240 964 231 1004 231 C 1060 231 1102 243 1132 269 C 1161 294 1176 341 1176 410 L 1176 1333 L 1483 1333 Z" unicode="ฤฒ" />
<glyph horiz-adv-x="1147" d="M 143 0 L 143 942 L 430 942 L 430 0 L 143 0 Z M 455 1329 C 455 1277 439 1235 407 1205 C 375 1174 335 1159 287 1159 C 237 1159 197 1174 165 1205 C 133 1235 117 1277 117 1329 C 117 1381 133 1422 165 1454 C 197 1485 237 1501 287 1501 C 335 1501 375 1485 407 1454 C 439 1422 455 1381 455 1329 Z M 1028 1329 C 1028 1277 1012 1235 980 1205 C 948 1174 908 1159 860 1159 C 810 1159 770 1174 738 1205 C 706 1235 690 1277 690 1329 C 690 1381 706 1422 738 1454 C 770 1485 810 1501 860 1501 C 908 1501 948 1485 980 1454 C 1012 1422 1028 1381 1028 1329 Z M 1003 942 L 1003 -172 C 1003 -267 975 -345 921 -405 C 866 -465 782 -496 669 -496 C 627 -496 589 -491 555 -483 C 521 -475 489 -465 458 -453 L 479 -213 C 493 -221 512 -228 534 -234 C 556 -240 578 -244 600 -244 C 639 -244 668 -232 687 -208 C 706 -184 716 -136 716 -66 L 716 942 L 1003 942 Z" unicode="ฤณ" />
<glyph horiz-adv-x="1022" d="M 889 1333 L 889 430 C 889 286 852 175 779 95 C 706 15 594 -25 444 -25 C 356 -25 285 -14 229 7 C 173 28 128 52 96 80 C 58 110 29 144 10 184 L 182 403 C 197 370 216 341 238 317 C 256 295 280 276 308 258 C 336 240 370 231 410 231 C 466 231 508 243 538 269 C 567 294 582 341 582 410 L 582 1333 L 889 1333 Z M 301 1550 L 668 1939 L 797 1939 L 1161 1550 L 903 1550 L 731 1788 L 561 1550 L 301 1550 Z" unicode="ฤด" />
<glyph horiz-adv-x="573" d="M 430 942 L 430 -172 C 430 -267 402 -345 348 -405 C 293 -465 209 -496 96 -496 C 54 -496 16 -491 -17 -483 C -51 -475 -83 -465 -115 -453 L -94 -213 C -79 -221 -61 -228 -39 -234 C -17 -240 5 -244 27 -244 C 66 -244 95 -232 114 -208 C 133 -184 143 -136 143 -66 L 143 942 L 430 942 Z M -36 1159 L 228 1548 L 357 1548 L 619 1159 L 402 1159 L 291 1397 L 183 1159 L -36 1159 Z" unicode="ฤต" />
<glyph horiz-adv-x="1335" d="M 451 772 L 903 1333 L 1280 1333 L 803 758 L 1294 0 L 913 0 L 592 547 L 451 385 L 451 0 L 143 0 L 143 1333 L 451 1333 L 451 772 Z M 510 -528 L 532 -168 L 778 -207 L 667 -555 L 510 -528 Z" unicode="ฤถ" />
<glyph horiz-adv-x="1085" d="M 721 942 L 1055 942 L 692 532 L 1075 0 L 737 0 L 504 377 L 422 295 L 422 0 L 143 0 L 143 1456 L 422 1456 L 422 586 L 721 942 Z M 408 -528 L 430 -168 L 676 -207 L 565 -555 L 408 -528 Z" unicode="ฤท" />
<glyph horiz-adv-x="1085" d="M 721 942 L 1055 942 L 692 532 L 1075 0 L 737 0 L 504 377 L 422 295 L 422 0 L 143 0 L 143 942 L 422 942 L 422 586 L 721 942 Z" unicode="ฤธ" />
<glyph horiz-adv-x="1075" d="M 451 1333 L 451 256 L 1034 256 L 1034 0 L 143 0 L 143 1333 L 451 1333 Z M 750 2036 L 895 1890 L 557 1550 L 412 1696 L 750 2036 Z" unicode="ฤน" />
<glyph horiz-adv-x="573" d="M 494 2036 L 639 1890 L 301 1550 L 156 1696 L 494 2036 Z M 143 1333 L 430 1333 L 430 0 L 143 0 L 143 1333 Z" unicode="ฤบ" />
<glyph horiz-adv-x="1075" d="M 451 1333 L 451 256 L 1034 256 L 1034 0 L 143 0 L 143 1333 L 451 1333 Z M 404 -528 L 426 -168 L 672 -207 L 561 -555 L 404 -528 Z" unicode="ฤป" />
<glyph horiz-adv-x="573" d="M 143 1456 L 430 1456 L 430 0 L 143 0 L 143 1456 Z M 150 -528 L 172 -168 L 418 -207 L 307 -555 L 150 -528 Z" unicode="ฤผ" />
<glyph horiz-adv-x="1075" d="M 451 1333 L 451 256 L 1034 256 L 1034 0 L 143 0 L 143 1333 L 451 1333 Z M 759 942 L 790 1366 L 1054 1333 L 955 919 L 759 942 Z" unicode="ฤฝ" />
<glyph horiz-adv-x="614" d="M 143 1456 L 430 1456 L 430 0 L 143 0 L 143 1456 Z M 524 1065 L 555 1489 L 819 1456 L 720 1042 L 524 1065 Z" unicode="ฤพ" />
<glyph horiz-adv-x="1075" d="M 451 1333 L 451 256 L 1034 256 L 1034 0 L 143 0 L 143 1333 L 451 1333 Z M 966 743 C 966 693 950 653 920 623 C 890 593 853 578 810 578 C 770 578 735 593 704 623 C 673 653 658 693 658 743 C 658 791 673 829 704 859 C 735 888 770 903 810 903 C 853 903 890 888 920 859 C 950 829 966 791 966 743 Z" unicode="ฤฟ" />
<glyph horiz-adv-x="967" d="M 143 1456 L 430 1456 L 430 0 L 143 0 L 143 1456 Z M 904 743 C 904 693 888 653 858 623 C 828 593 791 578 748 578 C 708 578 673 593 642 623 C 611 653 596 693 596 743 C 596 791 611 829 642 859 C 673 888 708 903 748 903 C 791 903 828 888 858 859 C 888 829 904 791 904 743 Z" unicode="ล" />
<glyph horiz-adv-x="1075" d="M 451 256 L 1034 256 L 1034 0 L 143 0 L 143 549 L 0 502 L 0 743 L 143 788 L 143 1333 L 451 1333 L 451 874 L 754 969 L 754 727 L 451 637 L 451 256 Z" unicode="ล" />
<glyph horiz-adv-x="614" d="M 164 578 L 20 537 L 20 727 L 164 766 L 164 1456 L 451 1456 L 451 823 L 594 866 L 594 676 L 451 635 L 451 0 L 164 0 L 164 578 Z" unicode="ล" />
<glyph horiz-adv-x="1487" d="M 430 0 L 143 0 L 143 1333 L 455 1333 L 1057 414 L 1057 1333 L 1343 1333 L 1343 0 L 1030 0 L 430 893 L 430 0 Z M 924 2036 L 1069 1890 L 731 1550 L 586 1696 L 924 2036 Z" unicode="ล" />
<glyph horiz-adv-x="1219" d="M 809 539 C 809 590 796 632 770 666 C 744 700 703 717 649 717 C 579 717 525 693 487 647 C 449 601 430 541 430 467 L 430 0 L 143 0 L 143 748 C 143 766 142 787 141 810 C 139 832 138 853 137 872 C 135 895 134 918 133 942 L 416 942 C 416 924 416 905 418 887 C 419 869 420 849 421 827 C 421 805 422 782 422 756 L 432 756 C 443 784 459 811 479 836 C 499 861 523 883 551 903 C 578 922 609 937 643 949 C 677 961 713 967 752 967 C 798 967 841 960 883 947 C 925 934 961 914 993 887 C 1024 859 1049 824 1068 780 C 1086 736 1096 684 1096 623 L 1096 0 L 809 0 L 809 539 Z M 865 1645 L 1010 1499 L 672 1159 L 527 1305 L 865 1645 Z" unicode="ล" />
<glyph horiz-adv-x="1487" d="M 430 0 L 143 0 L 143 1333 L 455 1333 L 1057 414 L 1057 1333 L 1343 1333 L 1343 0 L 1030 0 L 430 893 L 430 0 Z M 629 -528 L 651 -168 L 897 -207 L 786 -555 L 629 -528 Z" unicode="ล" />
<glyph horiz-adv-x="1219" d="M 809 539 C 809 590 796 632 770 666 C 744 700 703 717 649 717 C 579 717 525 693 487 647 C 449 601 430 541 430 467 L 430 0 L 143 0 L 143 748 C 143 766 142 787 141 810 C 139 832 138 853 137 872 C 135 895 134 918 133 942 L 416 942 C 416 924 416 905 418 887 C 419 869 420 849 421 827 C 421 805 422 782 422 756 L 432 756 C 443 784 459 811 479 836 C 499 861 523 883 551 903 C 578 922 609 937 643 949 C 677 961 713 967 752 967 C 798 967 841 960 883 947 C 925 934 961 914 993 887 C 1024 859 1049 824 1068 780 C 1086 736 1096 684 1096 623 L 1096 0 L 809 0 L 809 539 Z M 496 -528 L 518 -168 L 764 -207 L 653 -555 L 496 -528 Z" unicode="ล" />
<glyph horiz-adv-x="1487" d="M 430 0 L 143 0 L 143 1333 L 455 1333 L 1057 414 L 1057 1333 L 1343 1333 L 1343 0 L 1030 0 L 430 893 L 430 0 Z M 1183 1939 L 817 1550 L 688 1550 L 323 1939 L 581 1939 L 753 1702 L 923 1939 L 1183 1939 Z" unicode="ล" />
<glyph horiz-adv-x="1219" d="M 809 539 C 809 590 796 632 770 666 C 744 700 703 717 649 717 C 579 717 525 693 487 647 C 449 601 430 541 430 467 L 430 0 L 143 0 L 143 748 C 143 766 142 787 141 810 C 139 832 138 853 137 872 C 135 895 134 918 133 942 L 416 942 C 416 924 416 905 418 887 C 419 869 420 849 421 827 C 421 805 422 782 422 756 L 432 756 C 443 784 459 811 479 836 C 499 861 523 883 551 903 C 578 922 609 937 643 949 C 677 961 713 967 752 967 C 798 967 841 960 883 947 C 925 934 961 914 993 887 C 1024 859 1049 824 1068 780 C 1086 736 1096 684 1096 623 L 1096 0 L 809 0 L 809 539 Z M 1044 1548 L 678 1159 L 549 1159 L 184 1548 L 442 1548 L 614 1311 L 784 1548 L 1044 1548 Z" unicode="ล" />
<glyph horiz-adv-x="1587" d="M 1178 539 C 1178 590 1165 632 1139 666 C 1113 700 1072 717 1018 717 C 948 717 894 693 856 647 C 818 601 799 541 799 467 L 799 0 L 512 0 L 512 748 C 512 766 511 787 510 810 C 508 832 507 853 506 872 C 504 895 503 918 502 942 L 785 942 C 785 924 785 905 787 887 C 788 869 789 849 790 827 C 790 805 791 782 791 756 L 801 756 C 812 784 828 811 848 836 C 868 861 892 883 920 903 C 947 922 978 937 1012 949 C 1046 961 1082 967 1121 967 C 1167 967 1210 960 1252 947 C 1294 934 1330 914 1362 887 C 1393 859 1418 824 1437 780 C 1455 736 1465 684 1465 623 L 1465 0 L 1178 0 L 1178 539 Z M 172 1333 L 399 1333 L 399 1114 C 399 1044 384 987 354 943 C 324 898 287 866 244 848 L 72 932 C 99 942 122 962 142 992 C 162 1021 172 1062 172 1114 L 172 1333 Z" unicode="ล" />
<glyph horiz-adv-x="1487" d="M 1343 1333 L 1343 -172 C 1343 -267 1315 -345 1261 -405 C 1207 -465 1123 -496 1010 -496 C 967 -496 929 -491 896 -483 C 862 -475 830 -465 799 -453 L 819 -213 C 835 -221 855 -228 878 -234 C 901 -240 924 -244 948 -244 C 989 -244 1020 -232 1040 -208 C 1060 -184 1071 -136 1071 -66 L 1071 25 L 430 893 L 430 0 L 143 0 L 143 1333 L 455 1333 L 1057 496 L 1057 1333 L 1343 1333 Z" unicode="ล" />
<glyph horiz-adv-x="1219" d="M 809 539 C 809 590 796 632 770 666 C 744 700 703 717 649 717 C 579 717 525 693 487 647 C 449 601 430 541 430 467 L 430 0 L 143 0 L 143 748 C 143 766 142 787 141 810 C 139 832 138 853 137 872 L 133 942 L 416 942 C 416 924 416 905 418 887 C 419 869 420 849 421 827 C 421 805 422 782 422 756 L 432 756 C 443 784 459 811 479 836 C 499 861 523 883 551 903 C 578 922 609 937 643 949 C 677 961 713 967 752 967 C 798 967 841 960 883 947 C 925 934 961 914 993 887 C 1024 859 1049 824 1068 780 C 1086 736 1096 684 1096 623 L 1096 -172 C 1096 -267 1068 -345 1014 -405 C 959 -465 875 -496 762 -496 C 719 -496 681 -491 648 -483 C 614 -475 582 -465 551 -453 L 571 -213 C 586 -221 604 -228 626 -234 C 648 -240 670 -244 692 -244 C 732 -244 761 -232 780 -208 C 799 -184 809 -136 809 -66 L 809 539 Z" unicode="ล" />
<glyph horiz-adv-x="1468" d="M 1395 668 C 1395 560 1378 463 1345 377 C 1312 291 1266 218 1208 159 C 1149 99 1079 54 999 22 C 919 -9 831 -25 735 -25 C 639 -25 551 -9 471 22 C 390 54 320 99 262 159 C 203 218 157 291 124 377 C 90 463 74 560 74 668 C 74 776 90 873 124 959 C 157 1044 203 1116 262 1176 C 320 1236 390 1281 471 1312 C 551 1342 639 1358 735 1358 C 831 1358 919 1342 999 1312 C 1079 1281 1149 1236 1208 1176 C 1266 1116 1312 1044 1345 959 C 1378 873 1395 776 1395 668 Z M 1085 668 C 1085 812 1052 920 988 991 C 923 1062 839 1098 735 1098 C 631 1098 547 1062 481 991 C 415 920 383 812 383 668 C 383 524 415 416 481 344 C 547 272 631 236 735 236 C 839 236 923 272 988 344 C 1052 416 1085 524 1085 668 Z M 380 1745 L 1076 1745 L 1076 1550 L 380 1550 L 380 1745 Z" unicode="ล" />
<glyph horiz-adv-x="1178" d="M 1116 471 C 1116 391 1102 321 1075 260 C 1047 198 1010 146 963 104 C 916 62 860 30 796 8 C 732 -14 663 -25 590 -25 C 516 -25 447 -14 383 8 C 319 30 263 62 215 104 C 167 146 129 198 102 260 C 74 321 61 391 61 471 C 61 550 74 621 102 683 C 129 745 167 796 215 838 C 263 880 319 912 383 934 C 447 956 516 967 590 967 C 663 967 732 956 796 934 C 860 912 916 880 963 838 C 1010 796 1047 745 1075 683 C 1102 621 1116 550 1116 471 Z M 819 471 C 819 567 797 636 754 678 C 711 720 656 741 590 741 C 521 741 465 720 422 678 C 379 636 358 567 358 471 C 358 374 379 305 422 263 C 465 221 521 201 590 201 C 656 201 711 221 754 263 C 797 305 819 374 819 471 Z M 240 1354 L 936 1354 L 936 1159 L 240 1159 L 240 1354 Z" unicode="ล" />
<glyph horiz-adv-x="1468" d="M 1395 668 C 1395 560 1378 463 1345 377 C 1312 291 1266 218 1208 159 C 1149 99 1079 54 999 22 C 919 -9 831 -25 735 -25 C 639 -25 551 -9 471 22 C 390 54 320 99 262 159 C 203 218 157 291 124 377 C 90 463 74 560 74 668 C 74 776 90 873 124 959 C 157 1044 203 1116 262 1176 C 320 1236 390 1281 471 1312 C 551 1342 639 1358 735 1358 C 831 1358 919 1342 999 1312 C 1079 1281 1149 1236 1208 1176 C 1266 1116 1312 1044 1345 959 C 1378 873 1395 776 1395 668 Z M 1085 668 C 1085 812 1052 920 988 991 C 923 1062 839 1098 735 1098 C 631 1098 547 1062 481 991 C 415 920 383 812 383 668 C 383 524 415 416 481 344 C 547 272 631 236 735 236 C 839 236 923 272 988 344 C 1052 416 1085 524 1085 668 Z M 1129 1917 C 1129 1855 1117 1802 1095 1756 C 1072 1710 1042 1671 1004 1641 C 966 1610 923 1587 874 1572 C 825 1557 774 1550 721 1550 C 667 1550 616 1557 567 1572 C 518 1587 475 1610 438 1641 C 401 1671 371 1710 349 1756 C 327 1802 316 1855 316 1917 L 533 1917 C 533 1848 551 1800 587 1772 C 623 1744 667 1730 721 1730 C 775 1730 820 1744 856 1772 C 892 1800 910 1848 910 1917 L 1129 1917 Z" unicode="ล" />
<glyph horiz-adv-x="1178" d="M 1116 471 C 1116 391 1102 321 1075 260 C 1047 198 1010 146 963 104 C 916 62 860 30 796 8 C 732 -14 663 -25 590 -25 C 516 -25 447 -14 383 8 C 319 30 263 62 215 104 C 167 146 129 198 102 260 C 74 321 61 391 61 471 C 61 550 74 621 102 683 C 129 745 167 796 215 838 C 263 880 319 912 383 934 C 447 956 516 967 590 967 C 663 967 732 956 796 934 C 860 912 916 880 963 838 C 1010 796 1047 745 1075 683 C 1102 621 1116 550 1116 471 Z M 819 471 C 819 567 797 636 754 678 C 711 720 656 741 590 741 C 521 741 465 720 422 678 C 379 636 358 567 358 471 C 358 374 379 305 422 263 C 465 221 521 201 590 201 C 656 201 711 221 754 263 C 797 305 819 374 819 471 Z M 992 1526 C 992 1464 980 1411 958 1365 C 935 1319 905 1280 867 1250 C 829 1219 786 1196 737 1181 C 688 1166 637 1159 584 1159 C 530 1159 479 1166 430 1181 C 381 1196 338 1219 301 1250 C 264 1280 234 1319 212 1365 C 190 1411 179 1464 179 1526 L 396 1526 C 396 1457 414 1409 450 1381 C 486 1353 530 1339 584 1339 C 638 1339 683 1353 719 1381 C 755 1409 773 1457 773 1526 L 992 1526 Z" unicode="ล" />
<glyph horiz-adv-x="1468" d="M 1395 668 C 1395 560 1378 463 1345 377 C 1312 291 1266 218 1208 159 C 1149 99 1079 54 999 22 C 919 -9 831 -25 735 -25 C 639 -25 551 -9 471 22 C 390 54 320 99 262 159 C 203 218 157 291 124 377 C 90 463 74 560 74 668 C 74 776 90 873 124 959 C 157 1044 203 1116 262 1176 C 320 1236 390 1281 471 1312 C 551 1342 639 1358 735 1358 C 831 1358 919 1342 999 1312 C 1079 1281 1149 1236 1208 1176 C 1266 1116 1312 1044 1345 959 C 1378 873 1395 776 1395 668 Z M 1085 668 C 1085 812 1052 920 988 991 C 923 1062 839 1098 735 1098 C 631 1098 547 1062 481 991 C 415 920 383 812 383 668 C 383 524 415 416 481 344 C 547 272 631 236 735 236 C 839 236 923 272 988 344 C 1052 416 1085 524 1085 668 Z M 692 2036 L 831 1900 L 526 1550 L 387 1685 L 692 2036 Z M 1105 2036 L 1245 1900 L 939 1550 L 800 1685 L 1105 2036 Z" unicode="ล" />
<glyph horiz-adv-x="1178" d="M 1116 471 C 1116 391 1102 321 1075 260 C 1047 198 1010 146 963 104 C 916 62 860 30 796 8 C 732 -14 663 -25 590 -25 C 516 -25 447 -14 383 8 C 319 30 263 62 215 104 C 167 146 129 198 102 260 C 74 321 61 391 61 471 C 61 550 74 621 102 683 C 129 745 167 796 215 838 C 263 880 319 912 383 934 C 447 956 516 967 590 967 C 663 967 732 956 796 934 C 860 912 916 880 963 838 C 1010 796 1047 745 1075 683 C 1102 621 1116 550 1116 471 Z M 819 471 C 819 567 797 636 754 678 C 711 720 656 741 590 741 C 521 741 465 720 422 678 C 379 636 358 567 358 471 C 358 374 379 305 422 263 C 465 221 521 201 590 201 C 656 201 711 221 754 263 C 797 305 819 374 819 471 Z M 557 1645 L 696 1509 L 391 1159 L 252 1294 L 557 1645 Z M 970 1645 L 1110 1509 L 804 1159 L 665 1294 L 970 1645 Z" unicode="ล" />
<glyph horiz-adv-x="2132" d="M 1382 1081 L 1382 795 L 1954 795 L 1954 547 L 1382 547 L 1382 252 L 2019 252 L 2019 0 L 1085 0 L 1085 164 C 1065 140 1041 117 1014 95 C 986 72 955 52 921 34 C 887 16 850 2 810 -8 C 770 -19 726 -25 680 -25 C 595 -25 516 -8 442 23 C 368 55 304 102 250 162 C 195 222 152 294 121 380 C 89 465 74 561 74 668 C 74 774 89 869 121 954 C 152 1038 195 1111 250 1171 C 304 1231 368 1278 442 1310 C 516 1342 595 1358 680 1358 C 726 1358 770 1352 810 1341 C 850 1330 887 1316 921 1298 C 955 1280 986 1260 1014 1238 C 1041 1215 1065 1192 1085 1169 L 1085 1333 L 1999 1333 L 1999 1081 L 1382 1081 Z M 1085 668 C 1085 812 1052 920 988 991 C 923 1062 839 1098 735 1098 C 631 1098 547 1062 481 991 C 415 920 383 812 383 668 C 383 524 415 416 481 344 C 547 272 631 236 735 236 C 839 236 923 272 988 344 C 1052 416 1085 524 1085 668 Z" unicode="ล" />
<glyph horiz-adv-x="1862" d="M 1790 477 C 1790 466 1789 453 1789 439 C 1788 425 1787 412 1786 401 L 1094 401 C 1094 360 1101 326 1117 299 C 1133 271 1152 249 1176 233 C 1200 217 1226 205 1256 197 C 1285 189 1315 186 1346 186 C 1392 186 1433 191 1469 203 C 1505 215 1536 228 1561 244 C 1589 260 1614 279 1634 301 L 1729 109 C 1701 83 1668 60 1630 41 C 1596 24 1553 9 1503 -4 C 1452 -18 1391 -25 1319 -25 C 1225 -25 1147 -7 1087 28 C 1027 64 979 108 944 160 C 906 106 856 62 796 27 C 735 -7 663 -25 580 -25 C 506 -25 437 -14 374 8 C 310 30 256 62 210 104 C 164 146 127 198 101 260 C 74 321 61 391 61 471 C 61 550 74 621 101 683 C 127 745 164 796 210 838 C 256 880 310 912 374 934 C 437 956 506 967 580 967 C 670 967 744 949 803 913 C 861 877 910 832 948 778 C 985 831 1036 875 1102 911 C 1167 947 1239 965 1319 965 C 1405 965 1477 953 1537 929 C 1596 905 1644 871 1682 828 C 1720 785 1747 734 1764 674 C 1781 614 1790 548 1790 477 Z M 580 201 C 646 201 701 221 744 263 C 787 305 809 374 809 471 C 809 567 787 636 744 678 C 701 720 646 741 580 741 C 511 741 455 720 412 678 C 369 636 348 567 348 471 C 348 374 369 305 412 263 C 455 221 511 201 580 201 Z M 1501 578 C 1501 644 1481 691 1442 718 C 1403 744 1356 758 1300 758 C 1240 758 1191 744 1153 717 C 1115 689 1094 643 1090 578 L 1501 578 Z" unicode="ล" />
<glyph horiz-adv-x="1315" d="M 909 0 L 647 487 L 442 487 L 442 0 L 143 0 L 143 1333 L 725 1333 C 811 1333 884 1322 946 1302 C 1007 1282 1057 1254 1096 1218 C 1135 1182 1164 1140 1182 1091 C 1200 1042 1210 988 1210 930 C 1210 866 1200 811 1181 765 C 1162 719 1138 680 1110 649 C 1081 617 1051 592 1019 573 C 987 554 958 540 932 532 L 1253 0 L 909 0 Z M 442 721 L 676 721 C 766 721 827 737 859 770 C 891 802 907 847 907 905 C 907 962 891 1007 860 1040 C 828 1073 772 1090 692 1090 L 442 1090 L 442 721 Z M 813 2036 L 958 1890 L 620 1550 L 475 1696 L 813 2036 Z" unicode="ล" />
<glyph horiz-adv-x="809" d="M 754 639 C 744 641 727 644 705 647 C 683 649 658 651 631 651 C 593 651 562 643 536 629 C 510 615 490 596 474 572 C 458 548 447 520 440 487 C 433 454 430 419 430 383 L 430 0 L 143 0 L 143 748 C 143 766 142 787 141 810 C 139 832 138 853 137 872 C 135 895 134 918 133 942 L 416 942 C 416 920 416 896 418 872 C 419 852 420 829 421 804 C 421 778 422 753 422 727 L 432 727 C 447 771 468 810 496 846 C 518 876 549 903 588 929 C 627 954 677 967 739 967 C 743 967 748 966 754 966 C 760 965 765 964 768 963 L 754 639 Z M 701 1645 L 846 1499 L 508 1159 L 363 1305 L 701 1645 Z" unicode="ล" />
<glyph horiz-adv-x="1315" d="M 909 0 L 647 487 L 442 487 L 442 0 L 143 0 L 143 1333 L 725 1333 C 811 1333 884 1322 946 1302 C 1007 1282 1057 1254 1096 1218 C 1135 1182 1164 1140 1182 1091 C 1200 1042 1210 988 1210 930 C 1210 866 1200 811 1181 765 C 1162 719 1138 680 1110 649 C 1081 617 1051 592 1019 573 C 987 554 958 540 932 532 L 1253 0 L 909 0 Z M 442 721 L 676 721 C 766 721 827 737 859 770 C 891 802 907 847 907 905 C 907 962 891 1007 860 1040 C 828 1073 772 1090 692 1090 L 442 1090 L 442 721 Z M 535 -528 L 557 -168 L 803 -207 L 692 -555 L 535 -528 Z" unicode="ล" />
<glyph horiz-adv-x="809" d="M 754 639 C 744 641 727 644 705 647 C 683 649 658 651 631 651 C 593 651 562 643 536 629 C 510 615 490 596 474 572 C 458 548 447 520 440 487 C 433 454 430 419 430 383 L 430 0 L 143 0 L 143 748 C 143 766 142 787 141 810 C 139 832 138 853 137 872 C 135 895 134 918 133 942 L 416 942 C 416 920 416 896 418 872 C 419 852 420 829 421 804 C 421 778 422 753 422 727 L 432 727 C 447 771 468 810 496 846 C 518 876 549 903 588 929 C 627 954 677 967 739 967 C 743 967 748 966 754 966 C 760 965 765 964 768 963 L 754 639 Z M 121 -528 L 143 -168 L 389 -207 L 278 -555 L 121 -528 Z" unicode="ล" />
<glyph horiz-adv-x="1315" d="M 909 0 L 647 487 L 442 487 L 442 0 L 143 0 L 143 1333 L 725 1333 C 811 1333 884 1322 946 1302 C 1007 1282 1057 1254 1096 1218 C 1135 1182 1164 1140 1182 1091 C 1200 1042 1210 988 1210 930 C 1210 866 1200 811 1181 765 C 1162 719 1138 680 1110 649 C 1081 617 1051 592 1019 573 C 987 554 958 540 932 532 L 1253 0 L 909 0 Z M 442 721 L 676 721 C 766 721 827 737 859 770 C 891 802 907 847 907 905 C 907 962 891 1007 860 1040 C 828 1073 772 1090 692 1090 L 442 1090 L 442 721 Z M 1065 1939 L 699 1550 L 570 1550 L 205 1939 L 463 1939 L 635 1702 L 805 1939 L 1065 1939 Z" unicode="ล" />
<glyph horiz-adv-x="809" d="M 754 639 C 744 641 727 644 705 647 C 683 649 658 651 631 651 C 593 651 562 643 536 629 C 510 615 490 596 474 572 C 458 548 447 520 440 487 C 433 454 430 419 430 383 L 430 0 L 143 0 L 143 748 C 143 766 142 787 141 810 C 139 832 138 853 137 872 C 135 895 134 918 133 942 L 416 942 C 416 920 416 896 418 872 C 419 852 420 829 421 804 C 421 778 422 753 422 727 L 432 727 C 447 771 468 810 496 846 C 518 876 549 903 588 929 C 627 954 677 967 739 967 C 743 967 748 966 754 966 C 760 965 765 964 768 963 L 754 639 Z M 839 1548 L 473 1159 L 344 1159 L -21 1548 L 237 1548 L 409 1311 L 579 1548 L 839 1548 Z" unicode="ล" />
<glyph horiz-adv-x="1212" d="M 901 977 C 871 1016 832 1049 785 1076 C 738 1102 678 1116 604 1116 C 572 1116 546 1111 524 1101 C 502 1091 484 1079 470 1065 C 456 1051 445 1035 439 1018 C 433 1001 430 985 430 969 C 430 944 437 923 452 906 C 467 889 487 874 513 860 C 538 846 568 834 602 823 C 636 812 672 802 711 793 C 765 777 817 760 867 741 C 917 722 961 698 999 670 C 1037 641 1068 605 1090 563 C 1112 521 1124 469 1124 408 C 1124 347 1112 291 1088 239 C 1064 187 1030 142 986 102 C 942 62 887 31 823 9 C 759 -13 686 -25 604 -25 C 534 -25 472 -18 417 -5 C 361 7 312 25 269 48 C 226 70 189 97 159 127 C 128 157 102 189 80 225 L 293 408 C 324 356 367 311 423 274 C 478 237 547 219 629 219 C 686 219 734 230 772 254 C 810 277 829 312 829 358 C 829 386 824 410 814 429 C 804 447 788 463 767 475 C 745 487 719 499 687 509 C 655 519 617 530 575 543 C 522 557 469 575 417 596 C 364 616 317 642 275 673 C 233 703 200 740 174 784 C 148 828 135 880 135 942 C 135 1002 147 1057 171 1108 C 195 1158 229 1202 273 1239 C 317 1275 370 1304 432 1326 C 493 1347 561 1358 637 1358 C 755 1358 851 1336 925 1294 C 999 1252 1054 1201 1092 1143 L 901 977 Z M 827 2036 L 972 1890 L 634 1550 L 489 1696 L 827 2036 Z" unicode="ล" />
<glyph horiz-adv-x="983" d="M 726 1645 L 871 1499 L 533 1159 L 388 1305 L 726 1645 Z M 752 678 C 731 697 700 716 659 734 C 618 752 569 762 512 762 C 475 762 443 753 417 737 C 390 721 377 701 377 678 C 377 662 381 650 390 641 C 398 631 412 623 430 616 C 448 609 470 602 496 596 C 522 589 552 581 586 571 C 630 559 672 545 712 531 C 752 517 787 499 817 478 C 847 456 870 430 888 398 C 906 366 915 326 915 279 C 915 239 904 201 884 165 C 864 129 834 97 796 69 C 758 41 712 18 660 1 C 608 -16 549 -25 483 -25 C 420 -25 366 -20 321 -10 C 276 0 238 10 206 24 C 174 38 148 52 128 66 C 108 80 92 92 82 100 L 74 106 L 231 291 C 255 262 288 237 329 215 C 370 193 417 182 469 182 C 513 182 549 189 579 203 C 608 217 623 238 623 266 C 623 282 619 295 611 305 C 603 314 591 322 574 330 C 557 338 534 345 505 353 C 475 361 439 371 397 383 C 356 395 317 407 280 421 C 243 435 210 452 182 472 C 153 492 130 516 114 546 C 98 575 90 611 90 653 C 90 699 101 742 123 780 C 145 818 174 852 212 880 C 249 908 293 929 345 944 C 396 959 451 967 510 967 C 572 967 626 962 672 953 C 718 944 756 934 786 922 C 816 910 839 898 857 886 C 874 874 886 864 893 858 L 752 678 Z" unicode="ล" />
<glyph horiz-adv-x="1212" d="M 901 977 C 871 1016 832 1049 785 1076 C 738 1102 678 1116 604 1116 C 572 1116 546 1111 524 1101 C 502 1091 484 1079 470 1065 C 456 1051 445 1035 439 1018 C 433 1001 430 985 430 969 C 430 944 437 923 452 906 C 467 889 487 874 513 860 C 538 846 568 834 602 823 C 636 812 672 802 711 793 C 765 777 817 760 867 741 C 917 722 961 698 999 670 C 1037 641 1068 605 1090 563 C 1112 521 1124 469 1124 408 C 1124 347 1112 291 1088 239 C 1064 187 1030 142 986 102 C 942 62 887 31 823 9 C 759 -13 686 -25 604 -25 C 534 -25 472 -18 417 -5 C 361 7 312 25 269 48 C 226 70 189 97 159 127 C 128 157 102 189 80 225 L 293 408 C 324 356 367 311 423 274 C 478 237 547 219 629 219 C 686 219 734 230 772 254 C 810 277 829 312 829 358 C 829 386 824 410 814 429 C 804 447 788 463 767 475 C 745 487 719 499 687 509 C 655 519 617 530 575 543 C 522 557 469 575 417 596 C 364 616 317 642 275 673 C 233 703 200 740 174 784 C 148 828 135 880 135 942 C 135 1002 147 1057 171 1108 C 195 1158 229 1202 273 1239 C 317 1275 370 1304 432 1326 C 493 1347 561 1358 637 1358 C 755 1358 851 1336 925 1294 C 999 1252 1054 1201 1092 1143 L 901 977 Z M 193 1550 L 560 1939 L 689 1939 L 1053 1550 L 795 1550 L 623 1788 L 453 1550 L 193 1550 Z" unicode="ล" />
<glyph horiz-adv-x="983" d="M 76 1159 L 443 1548 L 572 1548 L 936 1159 L 678 1159 L 506 1397 L 336 1159 L 76 1159 Z M 752 678 C 731 697 700 716 659 734 C 618 752 569 762 512 762 C 475 762 443 753 417 737 C 390 721 377 701 377 678 C 377 662 381 650 390 641 C 398 631 412 623 430 616 C 448 609 470 602 496 596 C 522 589 552 581 586 571 C 630 559 672 545 712 531 C 752 517 787 499 817 478 C 847 456 870 430 888 398 C 906 366 915 326 915 279 C 915 239 904 201 884 165 C 864 129 834 97 796 69 C 758 41 712 18 660 1 C 608 -16 549 -25 483 -25 C 420 -25 366 -20 321 -10 C 276 0 238 10 206 24 C 174 38 148 52 128 66 C 108 80 92 92 82 100 L 74 106 L 231 291 C 255 262 288 237 329 215 C 370 193 417 182 469 182 C 513 182 549 189 579 203 C 608 217 623 238 623 266 C 623 282 619 295 611 305 C 603 314 591 322 574 330 C 557 338 534 345 505 353 C 475 361 439 371 397 383 C 356 395 317 407 280 421 C 243 435 210 452 182 472 C 153 492 130 516 114 546 C 98 575 90 611 90 653 C 90 699 101 742 123 780 C 145 818 174 852 212 880 C 249 908 293 929 345 944 C 396 959 451 967 510 967 C 572 967 626 962 672 953 C 718 944 756 934 786 922 C 816 910 839 898 857 886 C 874 874 886 864 893 858 L 752 678 Z" unicode="ล" />
<glyph horiz-adv-x="1212" d="M 901 977 C 871 1016 832 1049 785 1076 C 738 1102 678 1116 604 1116 C 572 1116 546 1111 524 1101 C 502 1091 484 1079 470 1065 C 456 1051 445 1035 439 1018 C 433 1001 430 985 430 969 C 430 944 437 923 452 906 C 467 889 487 874 513 860 C 538 846 568 834 602 823 C 636 812 672 802 711 793 C 765 777 817 760 867 741 C 917 722 961 698 999 670 C 1037 641 1068 605 1090 563 C 1112 521 1124 469 1124 408 C 1124 347 1112 291 1088 239 C 1064 187 1030 142 986 102 C 942 62 887 31 823 9 C 759 -13 686 -25 604 -25 C 534 -25 472 -18 417 -5 C 361 7 312 25 269 48 C 226 70 189 97 159 127 C 128 157 102 189 80 225 L 293 408 C 324 356 367 311 423 274 C 478 237 547 219 629 219 C 686 219 734 230 772 254 C 810 277 829 312 829 358 C 829 386 824 410 814 429 C 804 447 788 463 767 475 C 745 487 719 499 687 509 C 655 519 617 530 575 543 C 522 557 469 575 417 596 C 364 616 317 642 275 673 C 233 703 200 740 174 784 C 148 828 135 880 135 942 C 135 1002 147 1057 171 1108 C 195 1158 229 1202 273 1239 C 317 1275 370 1304 432 1326 C 493 1347 561 1358 637 1358 C 755 1358 851 1336 925 1294 C 999 1252 1054 1201 1092 1143 L 901 977 Z M 623 35 C 640 25 658 13 676 0 C 779 -70 831 -139 831 -207 C 831 -341 741 -408 563 -408 C 485 -408 411 -384 342 -338 L 414 -227 C 453 -255 495 -270 541 -270 C 609 -270 643 -240 643 -180 C 643 -116 576 -50 444 18 L 623 35 Z" unicode="ล" />
<glyph horiz-adv-x="983" d="M 752 678 C 731 697 700 716 659 734 C 618 752 569 762 512 762 C 475 762 443 753 417 737 C 390 721 377 701 377 678 C 377 662 381 650 390 641 C 398 631 412 623 430 616 C 448 609 470 602 496 596 C 522 589 552 581 586 571 C 630 559 672 545 712 531 C 752 517 787 499 817 478 C 847 456 870 430 888 398 C 906 366 915 326 915 279 C 915 239 904 201 884 165 C 864 129 834 97 796 69 C 758 41 712 18 660 1 C 608 -16 549 -25 483 -25 C 420 -25 366 -20 321 -10 C 276 0 238 10 206 24 C 174 38 148 52 128 66 C 108 80 92 92 82 100 L 74 106 L 231 291 C 255 262 288 237 329 215 C 370 193 417 182 469 182 C 513 182 549 189 579 203 C 608 217 623 238 623 266 C 623 282 619 295 611 305 C 603 314 591 322 574 330 C 557 338 534 345 505 353 C 475 361 439 371 397 383 C 356 395 317 407 280 421 C 243 435 210 452 182 472 C 153 492 130 516 114 546 C 98 575 90 611 90 653 C 90 699 101 742 123 780 C 145 818 174 852 212 880 C 249 908 293 929 345 944 C 396 959 451 967 510 967 C 572 967 626 962 672 953 C 718 944 756 934 786 922 C 816 910 839 898 857 886 C 874 874 886 864 893 858 L 752 678 Z M 492 35 C 509 25 527 13 545 0 C 648 -70 700 -139 700 -207 C 700 -341 610 -408 432 -408 C 354 -408 280 -384 211 -338 L 283 -227 C 322 -255 364 -270 410 -270 C 478 -270 512 -240 512 -180 C 512 -116 445 -50 313 18 L 492 35 Z" unicode="ล" />
<glyph horiz-adv-x="1212" d="M 901 977 C 871 1016 832 1049 785 1076 C 738 1102 678 1116 604 1116 C 572 1116 546 1111 524 1101 C 502 1091 484 1079 470 1065 C 456 1051 445 1035 439 1018 C 433 1001 430 985 430 969 C 430 944 437 923 452 906 C 467 889 487 874 513 860 C 538 846 568 834 602 823 C 636 812 672 802 711 793 C 765 777 817 760 867 741 C 917 722 961 698 999 670 C 1037 641 1068 605 1090 563 C 1112 521 1124 469 1124 408 C 1124 347 1112 291 1088 239 C 1064 187 1030 142 986 102 C 942 62 887 31 823 9 C 759 -13 686 -25 604 -25 C 534 -25 472 -18 417 -5 C 361 7 312 25 269 48 C 226 70 189 97 159 127 C 128 157 102 189 80 225 L 293 408 C 324 356 367 311 423 274 C 478 237 547 219 629 219 C 686 219 734 230 772 254 C 810 277 829 312 829 358 C 829 386 824 410 814 429 C 804 447 788 463 767 475 C 745 487 719 499 687 509 C 655 519 617 530 575 543 C 522 557 469 575 417 596 C 364 616 317 642 275 673 C 233 703 200 740 174 784 C 148 828 135 880 135 942 C 135 1002 147 1057 171 1108 C 195 1158 229 1202 273 1239 C 317 1275 370 1304 432 1326 C 493 1347 561 1358 637 1358 C 755 1358 851 1336 925 1294 C 999 1252 1054 1201 1092 1143 L 901 977 Z M 1065 1939 L 699 1550 L 570 1550 L 205 1939 L 463 1939 L 635 1702 L 805 1939 L 1065 1939 Z" unicode="ล" />
<glyph horiz-adv-x="983" d="M 933 1548 L 567 1159 L 438 1159 L 73 1548 L 331 1548 L 503 1311 L 673 1548 L 933 1548 Z M 752 678 C 731 697 700 716 659 734 C 618 752 569 762 512 762 C 475 762 443 753 417 737 C 390 721 377 701 377 678 C 377 662 381 650 390 641 C 398 631 412 623 430 616 C 448 609 470 602 496 596 C 522 589 552 581 586 571 C 630 559 672 545 712 531 C 752 517 787 499 817 478 C 847 456 870 430 888 398 C 906 366 915 326 915 279 C 915 239 904 201 884 165 C 864 129 834 97 796 69 C 758 41 712 18 660 1 C 608 -16 549 -25 483 -25 C 420 -25 366 -20 321 -10 C 276 0 238 10 206 24 C 174 38 148 52 128 66 C 108 80 92 92 82 100 L 74 106 L 231 291 C 255 262 288 237 329 215 C 370 193 417 182 469 182 C 513 182 549 189 579 203 C 608 217 623 238 623 266 C 623 282 619 295 611 305 C 603 314 591 322 574 330 C 557 338 534 345 505 353 C 475 361 439 371 397 383 C 356 395 317 407 280 421 C 243 435 210 452 182 472 C 153 492 130 516 114 546 C 98 575 90 611 90 653 C 90 699 101 742 123 780 C 145 818 174 852 212 880 C 249 908 293 929 345 944 C 396 959 451 967 510 967 C 572 967 626 962 672 953 C 718 944 756 934 786 922 C 816 910 839 898 857 886 C 874 874 886 864 893 858 L 752 678 Z" unicode="ลก" />
<glyph horiz-adv-x="1161" d="M 31 1333 L 1130 1333 L 1130 1077 L 735 1077 L 735 0 L 428 0 L 428 1077 L 31 1077 L 31 1333 Z M 437 -528 L 459 -168 L 705 -207 L 594 -555 L 437 -528 Z" unicode="ลข" />
<glyph horiz-adv-x="819" d="M 174 942 L 174 1153 L 455 1214 L 455 942 L 733 942 L 733 700 L 455 700 L 455 365 C 455 325 464 292 482 267 C 500 241 531 229 575 229 C 607 229 637 233 665 243 C 693 253 715 264 731 276 L 748 39 C 720 22 683 7 635 -5 C 587 -18 534 -25 477 -25 C 433 -25 393 -19 355 -9 C 317 0 285 17 259 40 C 232 62 211 92 196 128 C 181 164 174 208 174 260 L 174 700 L 31 700 L 31 942 L 174 942 Z M 254 -528 L 276 -168 L 522 -207 L 411 -555 L 254 -528 Z" unicode="ลฃ" />
<glyph horiz-adv-x="1161" d="M 31 1333 L 1130 1333 L 1130 1077 L 735 1077 L 735 0 L 428 0 L 428 1077 L 31 1077 L 31 1333 Z M 1011 1939 L 645 1550 L 516 1550 L 151 1939 L 409 1939 L 581 1702 L 751 1939 L 1011 1939 Z" unicode="ลค" />
<glyph horiz-adv-x="819" d="M 174 942 L 174 1153 L 455 1214 L 455 942 L 733 942 L 733 700 L 455 700 L 455 365 C 455 325 464 292 482 267 C 500 241 531 229 575 229 C 607 229 637 233 665 243 C 693 253 715 264 731 276 L 748 39 C 720 22 683 7 635 -5 C 587 -18 534 -25 477 -25 C 433 -25 393 -19 355 -9 C 317 0 285 17 259 40 C 232 62 211 92 196 128 C 181 164 174 208 174 260 L 174 700 L 31 700 L 31 942 L 174 942 Z M 549 1065 L 580 1489 L 844 1456 L 745 1042 L 549 1065 Z" unicode="ลฅ" />
<glyph horiz-adv-x="1202" d="M 51 1333 L 1151 1333 L 1151 1077 L 756 1077 L 756 772 L 1049 772 L 1049 528 L 756 528 L 756 0 L 449 0 L 449 528 L 154 528 L 154 772 L 449 772 L 449 1077 L 51 1077 L 51 1333 Z" unicode="ลฆ" />
<glyph horiz-adv-x="860" d="M 195 942 L 195 1153 L 475 1214 L 475 942 L 754 942 L 754 700 L 475 700 L 475 578 L 733 578 L 733 395 L 475 395 L 475 365 C 475 325 484 292 502 267 C 520 241 552 229 596 229 C 627 229 657 233 685 243 C 713 253 735 264 752 276 L 768 39 C 740 22 703 7 655 -5 C 607 -18 555 -25 498 -25 C 454 -25 413 -19 375 -9 C 337 0 305 17 279 40 C 253 62 232 92 217 128 C 202 164 195 208 195 260 L 195 395 L 61 395 L 61 578 L 195 578 L 195 700 L 51 700 L 51 942 L 195 942 Z" unicode="ลง" />
<glyph horiz-adv-x="1393" d="M 692 -25 C 514 -25 377 18 279 106 C 181 194 133 315 133 471 L 133 1333 L 440 1333 L 440 514 C 440 462 446 418 460 383 C 474 347 492 319 516 297 C 539 275 566 259 597 250 C 627 240 660 236 696 236 C 732 236 765 240 796 250 C 826 259 853 275 876 297 C 899 319 917 347 931 383 C 945 418 952 462 952 514 L 952 1333 L 1260 1333 L 1260 471 C 1260 397 1247 329 1221 268 C 1195 206 1157 154 1108 111 C 1058 68 998 35 928 11 C 858 -13 779 -25 692 -25 Z M 533 1860 C 557 1860 583 1854 611 1842 C 639 1830 667 1817 694 1803 C 721 1789 746 1776 769 1764 C 791 1752 809 1747 823 1747 C 835 1747 844 1750 852 1757 C 859 1763 865 1772 869 1783 C 873 1793 877 1805 880 1819 C 882 1833 885 1847 888 1862 L 1038 1804 C 1041 1778 1039 1750 1033 1720 C 1026 1690 1014 1663 998 1638 C 982 1612 961 1591 935 1575 C 909 1558 879 1550 845 1550 C 819 1550 793 1555 765 1567 C 737 1579 711 1592 685 1606 C 659 1620 634 1633 612 1645 C 589 1657 570 1663 556 1663 C 545 1663 536 1659 529 1653 C 521 1647 515 1638 510 1628 C 505 1618 501 1606 498 1592 C 495 1578 492 1563 490 1548 L 340 1606 C 338 1642 342 1675 352 1706 C 361 1737 374 1764 392 1787 C 410 1809 431 1827 455 1840 C 479 1853 505 1860 533 1860 Z" unicode="ลจ" />
<glyph horiz-adv-x="1198" d="M 410 942 L 410 403 C 410 351 421 309 445 275 C 469 241 508 225 563 225 C 633 225 684 245 718 285 C 751 325 768 383 768 457 L 768 942 L 1055 942 L 1055 195 C 1055 175 1055 154 1056 132 C 1056 109 1057 88 1059 70 C 1060 46 1062 23 1065 0 L 782 0 C 780 15 779 32 778 51 C 776 66 776 84 776 106 C 776 128 776 152 776 178 L 766 178 C 744 122 705 74 651 34 C 596 -5 530 -25 453 -25 C 406 -25 362 -18 322 -5 C 282 7 247 27 218 55 C 188 82 165 117 148 161 C 131 205 123 257 123 319 L 123 942 L 410 942 Z M 441 1469 C 465 1469 491 1463 519 1451 C 547 1439 575 1426 602 1412 C 629 1398 654 1385 677 1373 C 699 1361 717 1356 731 1356 C 743 1356 752 1359 760 1366 C 767 1372 773 1381 777 1392 C 781 1402 785 1414 788 1428 C 790 1442 793 1456 796 1471 L 946 1413 C 949 1387 947 1359 941 1329 C 934 1299 922 1272 906 1247 C 890 1221 869 1200 843 1184 C 817 1167 787 1159 753 1159 C 727 1159 701 1164 673 1176 C 645 1188 619 1201 593 1215 C 567 1229 542 1242 520 1254 C 497 1266 478 1272 464 1272 C 453 1272 444 1268 437 1262 C 429 1256 423 1247 418 1237 C 413 1227 409 1215 406 1201 C 403 1187 400 1172 398 1157 L 248 1215 C 246 1251 250 1284 260 1315 C 269 1346 282 1373 300 1396 C 318 1418 339 1436 363 1449 C 387 1462 413 1469 441 1469 Z" unicode="ลฉ" />
<glyph horiz-adv-x="1393" d="M 692 -25 C 514 -25 377 18 279 106 C 181 194 133 315 133 471 L 133 1333 L 440 1333 L 440 514 C 440 462 446 418 460 383 C 474 347 492 319 516 297 C 539 275 566 259 597 250 C 627 240 660 236 696 236 C 732 236 765 240 796 250 C 826 259 853 275 876 297 C 899 319 917 347 931 383 C 945 418 952 462 952 514 L 952 1333 L 1260 1333 L 1260 471 C 1260 397 1247 329 1221 268 C 1195 206 1157 154 1108 111 C 1058 68 998 35 928 11 C 858 -13 779 -25 692 -25 Z M 344 1745 L 1040 1745 L 1040 1550 L 344 1550 L 344 1745 Z" unicode="ลช" />
<glyph horiz-adv-x="1198" d="M 410 942 L 410 403 C 410 351 421 309 445 275 C 469 241 508 225 563 225 C 633 225 684 245 718 285 C 751 325 768 383 768 457 L 768 942 L 1055 942 L 1055 195 C 1055 175 1055 154 1056 132 C 1056 109 1057 88 1059 70 C 1060 46 1062 23 1065 0 L 782 0 C 780 15 779 32 778 51 C 776 66 776 84 776 106 C 776 128 776 152 776 178 L 766 178 C 744 122 705 74 651 34 C 596 -5 530 -25 453 -25 C 406 -25 362 -18 322 -5 C 282 7 247 27 218 55 C 188 82 165 117 148 161 C 131 205 123 257 123 319 L 123 942 L 410 942 Z M 250 1354 L 946 1354 L 946 1159 L 250 1159 L 250 1354 Z" unicode="ลซ" />
<glyph horiz-adv-x="1393" d="M 692 -25 C 514 -25 377 18 279 106 C 181 194 133 315 133 471 L 133 1333 L 440 1333 L 440 514 C 440 462 446 418 460 383 C 474 347 492 319 516 297 C 539 275 566 259 597 250 C 627 240 660 236 696 236 C 732 236 765 240 796 250 C 826 259 853 275 876 297 C 899 319 917 347 931 383 C 945 418 952 462 952 514 L 952 1333 L 1260 1333 L 1260 471 C 1260 397 1247 329 1221 268 C 1195 206 1157 154 1108 111 C 1058 68 998 35 928 11 C 858 -13 779 -25 692 -25 Z M 1095 1917 C 1095 1855 1083 1802 1061 1756 C 1038 1710 1008 1671 970 1641 C 932 1610 889 1587 840 1572 C 791 1557 740 1550 687 1550 C 633 1550 582 1557 533 1572 C 484 1587 441 1610 404 1641 C 367 1671 337 1710 315 1756 C 293 1802 282 1855 282 1917 L 499 1917 C 499 1848 517 1800 553 1772 C 589 1744 633 1730 687 1730 C 741 1730 786 1744 822 1772 C 858 1800 876 1848 876 1917 L 1095 1917 Z" unicode="ลฌ" />
<glyph horiz-adv-x="1198" d="M 410 942 L 410 403 C 410 351 421 309 445 275 C 469 241 508 225 563 225 C 633 225 684 245 718 285 C 751 325 768 383 768 457 L 768 942 L 1055 942 L 1055 195 C 1055 175 1055 154 1056 132 C 1056 109 1057 88 1059 70 C 1060 46 1062 23 1065 0 L 782 0 C 780 15 779 32 778 51 C 776 66 776 84 776 106 C 776 128 776 152 776 178 L 766 178 C 744 122 705 74 651 34 C 596 -5 530 -25 453 -25 C 406 -25 362 -18 322 -5 C 282 7 247 27 218 55 C 188 82 165 117 148 161 C 131 205 123 257 123 319 L 123 942 L 410 942 Z M 1006 1526 C 1006 1464 994 1411 972 1365 C 949 1319 919 1280 881 1250 C 843 1219 800 1196 751 1181 C 702 1166 651 1159 598 1159 C 544 1159 493 1166 444 1181 C 395 1196 352 1219 315 1250 C 278 1280 248 1319 226 1365 C 204 1411 193 1464 193 1526 L 410 1526 C 410 1457 428 1409 464 1381 C 500 1353 544 1339 598 1339 C 652 1339 697 1353 733 1381 C 769 1409 787 1457 787 1526 L 1006 1526 Z" unicode="ลญ" />
<glyph horiz-adv-x="1393" d="M 692 -25 C 514 -25 377 18 279 106 C 181 194 133 315 133 471 L 133 1333 L 440 1333 L 440 514 C 440 462 446 418 460 383 C 474 347 492 319 516 297 C 539 275 566 259 597 250 C 627 240 660 236 696 236 C 732 236 765 240 796 250 C 826 259 853 275 876 297 C 899 319 917 347 931 383 C 945 418 952 462 952 514 L 952 1333 L 1260 1333 L 1260 471 C 1260 397 1247 329 1221 268 C 1195 206 1157 154 1108 111 C 1058 68 998 35 928 11 C 858 -13 779 -25 692 -25 Z M 425 1810 C 425 1846 431 1879 443 1911 C 455 1942 473 1969 497 1992 C 521 2015 549 2033 583 2047 C 617 2061 654 2068 695 2068 C 735 2068 771 2061 805 2047 C 838 2033 867 2015 891 1992 C 915 1969 933 1942 946 1911 C 959 1879 966 1846 966 1810 C 966 1735 941 1673 891 1624 C 841 1574 775 1550 695 1550 C 611 1550 545 1574 497 1624 C 449 1673 425 1735 425 1810 Z M 574 1810 C 574 1769 585 1738 607 1718 C 629 1697 658 1687 695 1687 C 730 1687 759 1697 782 1718 C 804 1738 816 1769 816 1810 C 816 1850 804 1880 782 1900 C 759 1920 730 1931 695 1931 C 658 1931 629 1920 607 1900 C 585 1880 574 1850 574 1810 Z" unicode="ลฎ" />
<glyph horiz-adv-x="1198" d="M 410 942 L 410 403 C 410 351 421 309 445 275 C 469 241 508 225 563 225 C 633 225 684 245 718 285 C 751 325 768 383 768 457 L 768 942 L 1055 942 L 1055 195 C 1055 175 1055 154 1056 132 C 1056 109 1057 88 1059 70 C 1060 46 1062 23 1065 0 L 782 0 C 780 15 779 32 778 51 C 776 66 776 84 776 106 C 776 128 776 152 776 178 L 766 178 C 744 122 705 74 651 34 C 596 -5 530 -25 453 -25 C 406 -25 362 -18 322 -5 C 282 7 247 27 218 55 C 188 82 165 117 148 161 C 131 205 123 257 123 319 L 123 942 L 410 942 Z M 328 1419 C 328 1455 334 1488 346 1520 C 358 1551 376 1578 400 1601 C 424 1624 452 1642 486 1656 C 520 1670 557 1677 598 1677 C 638 1677 674 1670 708 1656 C 741 1642 770 1624 794 1601 C 818 1578 836 1551 849 1520 C 862 1488 869 1455 869 1419 C 869 1344 844 1282 794 1233 C 744 1183 678 1159 598 1159 C 514 1159 448 1183 400 1233 C 352 1282 328 1344 328 1419 Z M 477 1419 C 477 1378 488 1347 510 1327 C 532 1306 561 1296 598 1296 C 633 1296 662 1306 685 1327 C 707 1347 719 1378 719 1419 C 719 1459 707 1489 685 1509 C 662 1529 633 1540 598 1540 C 561 1540 532 1529 510 1509 C 488 1489 477 1459 477 1419 Z" unicode="ลฏ" />
<glyph horiz-adv-x="1393" d="M 692 -25 C 514 -25 377 18 279 106 C 181 194 133 315 133 471 L 133 1333 L 440 1333 L 440 514 C 440 462 446 418 460 383 C 474 347 492 319 516 297 C 539 275 566 259 597 250 C 627 240 660 236 696 236 C 732 236 765 240 796 250 C 826 259 853 275 876 297 C 899 319 917 347 931 383 C 945 418 952 462 952 514 L 952 1333 L 1260 1333 L 1260 471 C 1260 397 1247 329 1221 268 C 1195 206 1157 154 1108 111 C 1058 68 998 35 928 11 C 858 -13 779 -25 692 -25 Z M 652 2036 L 791 1900 L 486 1550 L 347 1685 L 652 2036 Z M 1065 2036 L 1205 1900 L 899 1550 L 760 1685 L 1065 2036 Z" unicode="ลฐ" />
</font>
</defs>
</svg>
