<?xml version="1.0" encoding="utf-8" ?><svg version="1.1" xmlns = 'http://www.w3.org/2000/svg'><defs><font id='web' horiz-adv-x="1000">
<font-face font-family="web" descent="-479" cap-height="1399" units-per-em="2048" bbox="-467,-492,2359,1911" x-height="944" ascent="1522" />
<missing-glyph horiz-adv-x="467" d="" /><glyph horiz-adv-x="467" d="" unicode=" " />
<glyph horiz-adv-x="748" d="M 709 1313 C 709 1291 700 1257 682 1209 C 664 1161 639 1100 609 1026 C 579 952 543 865 503 765 C 462 665 419 552 375 428 L 326 438 C 354 592 382 771 409 975 C 433 1159 448 1264 455 1288 C 465 1328 482 1361 508 1387 C 534 1413 566 1427 604 1427 C 637 1427 663 1416 681 1396 C 699 1375 709 1347 709 1313 Z M 401 106 C 401 69 388 39 363 16 C 338 -6 308 -18 274 -18 C 238 -18 207 -6 183 17 C 159 41 147 70 147 106 C 147 140 159 170 183 195 C 207 220 237 233 274 233 C 310 233 340 220 364 196 C 388 172 401 142 401 106 Z" unicode="!" />
<glyph horiz-adv-x="803" d="M 487 1403 C 487 1389 481 1369 471 1343 C 460 1317 429 1249 378 1141 L 299 967 L 258 967 C 264 1087 268 1200 268 1307 L 268 1366 C 268 1461 304 1509 377 1509 C 411 1509 438 1498 458 1478 C 477 1458 487 1433 487 1403 Z M 887 1403 C 887 1382 870 1336 837 1266 C 773 1132 726 1032 698 967 L 657 967 C 664 1072 668 1185 668 1307 L 668 1366 C 668 1461 704 1509 776 1509 C 811 1509 838 1498 858 1478 C 877 1458 887 1433 887 1403 Z" unicode="&#x22;" />
<glyph horiz-adv-x="1147" d="M 1110 1047 L 1063 854 L 819 797 L 768 590 L 1010 647 L 963 455 L 719 397 L 616 -14 L 567 -14 L 668 385 L 412 326 L 328 -14 L 279 -14 L 360 313 L 119 256 L 166 449 L 408 506 L 459 713 L 217 655 L 266 848 L 508 905 L 602 1284 L 651 1284 L 559 918 L 815 977 L 891 1284 L 940 1284 L 866 989 L 1110 1047 Z M 766 784 L 512 725 L 461 518 L 715 578 L 766 784 Z" unicode="#" />
<glyph horiz-adv-x="1260" d="M 1198 1022 C 1198 976 1185 935 1161 899 C 1136 863 1106 846 1071 846 C 1044 846 1022 852 1005 866 C 987 879 979 898 979 922 C 979 944 983 962 991 976 C 999 990 1009 1002 1021 1012 C 1033 1022 1045 1033 1058 1043 C 1070 1053 1081 1065 1090 1081 C 1088 1103 1075 1125 1049 1145 C 1023 1165 988 1180 942 1192 L 821 709 C 911 685 979 651 1024 607 C 1069 563 1092 506 1092 436 C 1092 319 1051 221 970 143 C 889 64 781 17 647 2 L 573 -291 L 528 -291 L 600 -2 L 569 -2 C 519 -2 479 0 451 6 L 377 -291 L 332 -291 L 408 14 C 317 34 245 68 192 116 C 139 164 113 219 113 279 C 113 329 128 373 158 411 C 188 449 225 469 268 469 C 297 469 320 461 336 446 C 352 430 360 409 360 381 C 360 359 356 342 350 330 C 343 317 334 306 324 297 C 314 288 303 280 291 272 C 279 264 268 254 258 242 C 254 229 253 217 253 206 C 253 178 264 151 287 124 C 309 96 354 75 420 61 L 545 567 C 465 585 403 619 357 670 C 311 721 289 782 289 854 C 289 958 328 1048 407 1122 C 486 1196 589 1239 717 1253 L 768 1460 L 813 1460 L 762 1257 L 786 1257 C 828 1257 869 1253 911 1247 L 965 1460 L 1010 1460 L 954 1237 C 1030 1217 1090 1189 1133 1151 C 1176 1113 1198 1070 1198 1022 Z M 899 1200 C 861 1206 818 1210 770 1210 L 752 1210 L 637 752 L 780 719 L 899 1200 Z M 705 1206 C 624 1194 563 1166 522 1122 C 481 1077 461 1019 461 948 C 461 906 471 869 493 835 C 515 801 548 776 594 762 L 705 1206 Z M 924 324 C 924 426 874 491 774 520 L 659 53 C 742 66 807 96 854 143 C 900 190 924 250 924 324 Z M 731 528 L 588 559 L 463 55 C 489 49 527 47 575 47 L 612 47 L 731 528 Z" unicode="$" />
<glyph horiz-adv-x="1679" d="M 1577 371 C 1577 301 1557 235 1519 174 C 1480 112 1428 63 1364 27 C 1299 -8 1233 -27 1167 -27 C 1089 -27 1024 -3 972 44 C 920 92 895 152 895 225 C 895 291 914 355 952 418 C 990 480 1040 531 1104 569 C 1168 607 1233 627 1300 627 C 1382 627 1448 603 1500 555 C 1551 507 1577 446 1577 371 Z M 1569 1376 L 205 -201 L 154 -164 L 1513 1413 L 1569 1376 Z M 844 1012 C 844 942 824 876 786 815 C 747 753 695 704 631 668 C 566 632 500 614 434 614 C 356 614 291 637 239 685 C 187 733 162 793 162 866 C 162 932 180 997 218 1060 C 256 1122 307 1173 371 1211 C 435 1249 500 1268 567 1268 C 649 1268 715 1244 767 1196 C 818 1148 844 1087 844 1012 Z M 1421 416 C 1421 524 1380 578 1300 578 C 1258 578 1217 558 1179 520 C 1141 482 1110 431 1086 367 C 1062 303 1051 241 1051 182 C 1051 77 1092 25 1174 25 C 1214 25 1254 43 1293 80 C 1332 116 1363 165 1386 225 C 1409 285 1421 349 1421 416 Z M 688 1057 C 688 1165 647 1219 567 1219 C 525 1219 484 1199 446 1160 C 407 1121 376 1070 352 1007 C 328 944 317 883 317 823 C 317 718 358 666 440 666 C 481 666 521 684 561 721 C 600 758 631 807 654 868 C 676 928 688 991 688 1057 Z" unicode="%" />
<glyph horiz-adv-x="1741" d="M 1735 1178 C 1735 1098 1705 1036 1646 991 C 1586 946 1506 924 1405 924 C 1475 894 1524 853 1552 802 C 1580 751 1595 683 1595 598 C 1595 516 1574 435 1532 354 C 1490 272 1433 203 1362 146 C 1291 88 1206 44 1106 12 C 1006 -19 896 -35 776 -35 C 664 -35 561 -14 466 27 C 370 69 296 125 242 197 C 188 269 162 346 162 430 C 162 476 169 516 184 550 C 198 584 219 615 247 642 C 275 669 319 699 379 731 C 327 765 291 802 270 843 C 248 884 238 931 238 985 C 238 1029 251 1072 279 1116 C 307 1159 344 1194 390 1221 C 436 1248 487 1262 541 1262 C 629 1262 704 1239 766 1194 C 827 1149 867 1088 887 1010 L 854 993 C 813 1055 775 1098 741 1120 C 706 1142 664 1153 616 1153 C 548 1153 492 1129 450 1082 C 408 1035 387 973 387 895 C 387 829 403 782 436 756 C 464 765 491 774 517 782 C 543 790 571 795 600 795 C 640 795 671 786 694 770 C 717 753 729 732 729 707 C 729 686 721 668 707 652 C 692 636 669 629 639 629 C 615 629 593 631 573 636 C 553 641 533 647 514 655 C 495 663 464 680 420 707 C 381 689 352 665 332 634 C 312 603 303 568 303 528 C 303 455 330 387 385 325 C 439 263 516 214 614 178 C 712 142 823 125 946 125 C 1057 125 1156 146 1244 188 C 1331 230 1399 289 1448 364 C 1497 439 1522 520 1522 608 C 1522 710 1495 789 1442 846 C 1389 903 1317 932 1225 932 C 1163 932 1111 915 1070 882 C 1028 848 1008 805 1008 752 C 1008 694 1021 650 1049 619 C 1077 588 1115 573 1165 573 C 1197 573 1229 583 1260 604 L 1218 621 C 1166 640 1141 671 1141 715 C 1141 744 1149 767 1167 785 C 1185 802 1207 811 1235 811 C 1277 811 1309 800 1332 779 C 1354 758 1366 728 1366 690 C 1366 645 1349 606 1316 573 C 1282 540 1240 524 1190 524 C 1146 524 1104 534 1064 556 C 1024 578 992 608 969 646 C 945 684 934 727 934 774 C 934 833 949 883 979 923 C 1009 963 1049 994 1101 1015 C 1153 1036 1211 1047 1276 1047 L 1388 1042 L 1493 1036 C 1540 1036 1581 1051 1615 1082 C 1649 1113 1667 1150 1667 1192 C 1667 1294 1619 1346 1524 1346 C 1480 1346 1458 1331 1458 1303 C 1462 1298 1468 1294 1476 1290 C 1484 1286 1493 1282 1502 1276 C 1511 1270 1519 1263 1526 1255 C 1532 1246 1536 1234 1536 1219 C 1536 1187 1527 1164 1509 1150 C 1491 1136 1471 1130 1448 1130 C 1414 1130 1386 1140 1366 1162 C 1345 1183 1335 1212 1335 1249 C 1335 1286 1352 1318 1387 1345 C 1421 1372 1465 1386 1518 1386 C 1580 1386 1631 1366 1673 1328 C 1714 1290 1735 1240 1735 1178 Z" unicode="&#x26;" />
<glyph horiz-adv-x="401" d="M 487 1403 C 487 1389 481 1369 471 1343 C 460 1317 429 1249 378 1141 L 299 967 L 258 967 C 264 1087 268 1200 268 1307 L 268 1366 C 268 1461 304 1509 377 1509 C 411 1509 438 1498 458 1478 C 477 1458 487 1433 487 1403 Z" unicode="'" />
<glyph horiz-adv-x="748" d="M 852 1456 C 629 1299 464 1134 357 961 C 250 787 197 599 197 395 C 197 265 219 147 264 42 C 309 -62 383 -163 485 -260 L 408 -328 C 184 -128 72 107 72 379 C 72 827 313 1211 795 1532 L 852 1456 Z" unicode="(" />
<glyph horiz-adv-x="748" d="M 702 825 C 702 377 461 -6 -20 -328 L -78 -252 C 144 -95 308 69 416 243 C 524 416 578 605 578 809 C 578 938 555 1056 509 1163 C 463 1269 389 1370 289 1464 L 367 1532 C 483 1427 567 1316 621 1200 C 675 1083 702 958 702 825 Z" unicode=")" />
<glyph horiz-adv-x="743" d="M 823 1192 C 823 1173 817 1159 805 1151 C 793 1143 774 1139 748 1139 C 682 1139 614 1132 545 1120 C 579 1092 610 1070 638 1054 C 665 1037 688 1023 707 1012 C 725 1001 739 991 749 983 C 759 975 764 965 764 954 C 764 937 757 922 745 910 C 732 897 719 891 705 891 C 693 891 683 895 674 905 C 665 914 655 927 643 945 C 631 962 617 983 600 1009 C 582 1035 560 1064 532 1096 C 524 1044 520 978 520 897 L 518 864 C 514 852 508 841 499 833 C 490 825 479 821 467 821 C 448 821 433 826 423 836 C 413 846 408 858 408 874 C 408 889 418 916 439 954 C 467 1005 490 1054 508 1102 C 460 1086 409 1063 354 1034 C 309 1010 282 999 272 999 C 260 999 249 1004 239 1016 C 229 1027 225 1042 225 1061 C 225 1080 231 1093 243 1100 C 255 1106 271 1110 293 1110 C 368 1110 439 1116 506 1128 C 470 1156 438 1179 410 1196 C 382 1212 359 1226 340 1237 C 321 1247 307 1257 297 1265 C 287 1273 283 1282 283 1294 C 283 1308 288 1322 300 1336 C 311 1349 326 1356 344 1356 C 355 1356 365 1350 375 1340 C 385 1329 396 1314 408 1296 C 420 1278 435 1256 452 1232 C 469 1207 491 1181 518 1153 C 522 1188 525 1253 528 1348 C 528 1400 546 1427 582 1427 C 599 1427 613 1422 625 1413 C 637 1404 643 1391 643 1374 C 643 1361 631 1334 609 1294 C 580 1242 558 1192 543 1145 C 587 1162 637 1186 695 1218 C 735 1240 761 1251 774 1251 C 786 1251 798 1245 808 1233 C 818 1221 823 1207 823 1192 Z" unicode="*" />
<glyph horiz-adv-x="1188" d="M 1124 485 L 680 485 L 680 39 L 582 39 L 582 485 L 137 485 L 137 580 L 582 580 L 582 1026 L 680 1026 L 680 580 L 1124 580 L 1124 485 Z" unicode="+" />
<glyph horiz-adv-x="496" d="M 340 92 C 340 10 310 -68 251 -144 C 191 -219 110 -282 6 -332 L -8 -287 C 63 -247 119 -202 161 -151 C 203 -100 227 -48 233 4 L 186 4 C 100 4 57 39 57 111 C 57 147 71 179 101 206 C 130 232 163 246 201 246 C 293 246 340 194 340 92 Z" unicode="," />
<glyph horiz-adv-x="717" d="M 655 571 L 614 422 L 59 422 L 100 571 L 655 571 Z" unicode="-" />
<glyph horiz-adv-x="496" d="M 336 113 C 336 76 323 45 297 20 C 271 -5 240 -18 203 -18 C 165 -18 134 -5 108 20 C 82 46 70 77 70 113 C 70 149 83 181 109 207 C 135 233 166 246 203 246 C 239 246 271 233 297 207 C 323 181 336 149 336 113 Z" unicode="." />
<glyph horiz-adv-x="860" d="M 1055 1481 L -158 -446 L -242 -397 L 969 1530 L 1055 1481 Z" unicode="/" />
<glyph horiz-adv-x="1257" d="M 1214 795 C 1214 653 1182 519 1120 391 C 1058 263 975 161 871 85 C 767 9 657 -29 543 -29 C 408 -29 301 13 222 97 C 143 181 104 294 104 438 C 104 578 135 713 197 842 C 259 971 343 1075 448 1153 C 553 1231 663 1270 778 1270 C 911 1270 1017 1228 1096 1144 C 1174 1060 1214 943 1214 795 Z M 1012 901 C 1012 1000 992 1078 954 1135 C 915 1192 862 1221 795 1221 C 716 1221 639 1179 564 1096 C 488 1012 427 900 379 758 C 331 616 307 474 307 332 C 307 238 325 163 363 106 C 401 48 453 20 520 20 C 597 20 673 60 748 142 C 822 223 885 335 936 478 C 986 621 1012 762 1012 901 Z" unicode="0" />
<glyph horiz-adv-x="874" d="M 801 1268 C 788 1240 770 1196 747 1135 C 724 1074 705 1016 690 961 L 473 172 C 469 156 467 142 467 131 C 467 111 475 95 491 84 C 507 73 532 64 568 56 C 603 48 631 44 651 43 L 641 0 L 20 0 L 31 43 L 66 46 C 140 50 190 61 216 78 C 242 94 260 123 272 164 L 528 1087 C 510 1081 485 1079 453 1079 C 379 1079 308 1119 238 1200 L 264 1229 C 326 1197 393 1182 465 1182 C 556 1182 659 1210 774 1268 L 801 1268 Z" unicode="1" />
<glyph horiz-adv-x="1182" d="M 1133 989 C 1133 901 1106 818 1054 739 C 1001 659 919 579 809 499 C 699 419 538 325 328 217 L 260 166 L 745 166 C 797 166 846 183 890 218 C 934 253 976 301 1018 362 L 1053 350 L 864 0 L 14 0 L 25 51 C 175 151 290 233 372 296 C 453 359 532 424 610 492 C 823 677 930 852 930 1018 C 930 1081 912 1131 876 1167 C 840 1203 790 1221 727 1221 C 667 1221 607 1203 549 1169 C 491 1135 442 1088 403 1030 C 363 971 344 916 344 866 C 344 776 383 731 463 731 C 489 731 515 737 541 749 C 566 761 601 787 645 827 L 664 803 C 572 703 475 653 373 653 C 314 653 267 668 231 699 C 195 730 178 774 178 831 C 178 899 207 968 266 1040 C 325 1111 399 1167 488 1208 C 577 1249 667 1270 758 1270 C 871 1270 962 1244 1030 1194 C 1098 1143 1133 1075 1133 989 Z" unicode="2" />
<glyph horiz-adv-x="1157" d="M 1155 1014 C 1155 935 1118 866 1045 807 C 972 748 874 709 750 690 L 707 664 L 741 664 C 829 664 901 643 956 602 C 1010 560 1038 506 1038 438 C 1038 344 1010 260 956 185 C 901 109 825 51 729 9 C 632 -32 526 -53 412 -53 C 292 -53 194 -29 118 18 C 42 65 4 129 4 209 C 4 267 21 317 56 358 C 91 399 135 420 188 420 C 220 420 244 412 261 397 C 278 381 287 362 287 340 C 287 312 281 289 270 273 C 259 257 242 244 220 236 C 196 227 179 215 168 200 C 157 184 152 163 152 137 C 152 97 172 64 214 39 C 255 14 307 2 371 2 C 445 2 518 24 590 70 C 662 115 720 175 764 249 C 808 323 831 400 831 479 C 831 522 817 556 790 581 C 763 605 728 618 684 618 C 638 618 584 595 520 550 L 463 510 L 432 563 C 583 639 692 702 760 750 C 828 798 877 847 909 895 C 940 943 956 995 956 1053 C 956 1111 939 1154 906 1181 C 873 1207 829 1221 774 1221 C 727 1221 677 1208 625 1183 C 573 1158 530 1125 498 1085 C 465 1044 449 1001 449 956 C 449 927 456 904 472 887 C 487 870 507 862 532 862 C 578 862 624 880 668 918 L 688 891 C 643 852 600 822 558 801 C 516 780 480 770 451 770 C 399 770 357 783 327 809 C 296 835 281 871 281 918 C 281 972 308 1028 363 1084 C 417 1140 487 1185 571 1219 C 655 1253 737 1270 819 1270 C 920 1270 1001 1245 1063 1197 C 1124 1149 1155 1088 1155 1014 Z" unicode="3" />
<glyph horiz-adv-x="1077" d="M 1036 217 C 1004 169 962 129 909 95 C 855 61 797 37 733 23 L 598 -362 L 420 -362 L 549 14 C 521 18 493 25 465 35 C 436 44 406 53 375 62 C 343 71 310 79 276 86 C 241 92 204 96 166 96 L 104 92 C 80 71 52 51 20 31 C -12 11 -35 2 -49 2 C -74 2 -95 7 -111 18 C -127 29 -135 45 -135 66 C -135 86 -124 103 -104 116 C -83 128 -57 135 -25 135 L 30 135 L 92 133 C 264 286 439 665 616 1270 L 844 1270 C 754 996 648 760 526 563 C 403 366 273 221 137 127 C 197 135 245 139 279 139 C 343 139 422 130 516 113 L 580 104 L 760 604 L 944 604 L 762 109 C 809 115 853 127 895 146 C 937 165 976 196 1012 240 L 1036 217 Z" unicode="4" />
<glyph horiz-adv-x="1071" d="M 1186 1270 C 1146 1215 1095 1168 1033 1129 C 971 1089 901 1060 822 1040 C 743 1020 666 1010 590 1010 L 467 1014 L 326 702 C 394 743 480 764 582 764 C 692 764 781 734 851 674 C 921 614 956 538 956 444 C 956 358 930 279 880 206 C 830 132 760 75 671 33 C 582 -8 483 -29 373 -29 C 272 -29 187 -6 119 38 C 50 82 16 139 16 207 C 16 253 31 290 61 318 C 91 346 125 360 164 360 C 222 360 252 335 252 287 C 252 263 243 237 227 211 C 205 177 191 152 186 137 C 186 103 203 74 237 51 C 271 27 314 16 365 16 C 433 16 499 39 561 85 C 623 131 672 194 709 273 C 745 352 764 435 764 522 C 764 580 744 627 705 661 C 665 695 613 713 549 713 C 489 713 433 699 381 673 C 328 647 290 612 266 569 L 215 580 L 520 1264 L 573 1264 C 591 1239 624 1219 672 1205 C 720 1191 774 1184 834 1184 C 894 1184 947 1191 993 1205 C 1039 1219 1097 1248 1165 1292 L 1186 1270 Z" unicode="5" />
<glyph horiz-adv-x="1157" d="M 1262 1235 C 1262 1187 1251 1150 1231 1125 C 1211 1099 1183 1087 1149 1087 C 1083 1087 1049 1135 1047 1233 C 1043 1287 1031 1323 1011 1343 C 990 1362 958 1372 915 1372 C 823 1372 726 1311 626 1191 C 526 1071 442 917 375 731 L 381 725 C 435 774 489 810 543 833 C 597 856 659 868 729 868 C 823 868 899 835 959 771 C 1019 707 1049 624 1049 522 C 1049 426 1023 334 973 245 C 922 155 856 87 775 41 C 694 -5 604 -29 504 -29 C 376 -29 277 8 207 84 C 137 159 102 265 102 403 C 102 561 146 721 235 883 C 323 1045 437 1178 576 1280 C 715 1382 853 1434 989 1434 C 1045 1434 1094 1425 1135 1409 C 1176 1392 1207 1368 1229 1338 C 1251 1308 1262 1273 1262 1235 Z M 836 569 C 836 644 817 701 780 740 C 742 779 691 799 627 799 C 567 799 509 776 455 732 C 400 687 356 626 324 548 C 292 470 276 386 276 297 C 276 208 294 140 330 93 C 366 46 416 23 479 23 C 539 23 595 47 649 95 C 702 143 746 212 782 301 C 818 390 836 479 836 569 Z" unicode="6" />
<glyph horiz-adv-x="1036" d="M 1212 1219 L 1208 1200 C 1113 1095 1039 1009 986 943 C 932 877 883 809 837 740 C 791 671 737 583 675 477 C 613 370 565 275 531 193 C 497 111 467 23 442 -70 C 411 -187 359 -246 285 -246 C 251 -246 227 -236 211 -218 C 195 -200 188 -176 188 -147 C 188 -109 206 -56 244 10 C 281 76 353 185 461 336 C 569 486 659 609 733 703 C 807 797 898 910 1008 1040 L 481 1040 C 421 1040 368 1023 322 989 C 276 955 224 891 166 797 L 127 807 L 389 1333 L 426 1333 L 412 1219 L 1212 1219 Z" unicode="7" />
<glyph horiz-adv-x="1143" d="M 1110 1012 C 1110 942 1082 875 1026 812 C 970 748 897 704 809 678 L 809 670 C 949 592 1020 501 1020 397 C 1020 317 997 244 953 180 C 909 115 845 63 761 25 C 677 -13 590 -33 498 -33 C 376 -33 275 -3 195 55 C 115 114 76 187 76 274 C 76 353 111 428 182 498 C 252 568 336 615 434 637 L 434 645 C 369 687 324 727 300 766 C 276 805 264 849 264 897 C 264 962 285 1025 329 1086 C 373 1146 431 1194 505 1230 C 579 1266 657 1284 739 1284 C 841 1284 929 1258 1001 1206 C 1073 1154 1110 1090 1110 1012 Z M 979 1028 C 979 1090 956 1140 910 1176 C 864 1212 806 1231 735 1231 C 685 1231 638 1219 596 1196 C 553 1173 519 1142 494 1102 C 469 1062 457 1021 457 977 C 457 915 479 864 525 822 C 571 780 648 739 758 700 C 826 725 879 767 919 827 C 959 887 979 954 979 1028 Z M 825 309 C 825 371 799 426 747 475 C 695 524 611 570 494 614 C 414 583 350 535 301 469 C 251 403 227 331 227 252 C 227 184 252 129 302 85 C 352 41 418 20 502 20 C 558 20 612 32 663 58 C 713 84 753 119 782 163 C 810 207 825 256 825 309 Z" unicode="8" />
<glyph horiz-adv-x="1157" d="M 1112 848 C 1112 684 1069 517 984 347 C 898 177 788 42 653 -58 C 518 -158 377 -209 231 -209 C 137 -209 63 -190 11 -153 C -41 -115 -68 -64 -68 0 C -68 39 -58 70 -39 94 C -19 117 7 129 41 129 C 78 129 105 117 121 95 C 137 73 147 34 150 -20 C 151 -70 163 -104 186 -123 C 209 -142 243 -152 289 -152 C 354 -152 422 -123 493 -66 C 563 -8 631 72 695 178 C 759 283 812 399 854 526 L 846 532 C 794 483 753 450 723 432 C 693 414 660 399 624 389 C 588 378 550 373 508 373 C 409 373 328 404 266 468 C 203 532 172 615 172 719 C 172 814 197 904 247 990 C 297 1075 364 1143 450 1194 C 535 1244 626 1270 723 1270 C 842 1270 937 1233 1007 1159 C 1077 1085 1112 982 1112 848 Z M 942 930 C 942 1020 923 1092 885 1144 C 847 1196 795 1223 729 1223 C 670 1223 615 1201 564 1157 C 513 1113 471 1051 437 970 C 403 888 387 803 387 713 C 387 623 403 557 437 514 C 470 470 522 449 592 449 C 651 449 708 470 763 513 C 817 555 861 614 893 688 C 925 762 942 842 942 930 Z" unicode="9" />
<glyph horiz-adv-x="655" d="M 555 797 C 555 760 542 729 516 704 C 490 678 459 666 422 666 C 384 666 353 678 327 704 C 301 730 289 761 289 797 C 289 833 302 865 328 891 C 354 917 385 930 422 930 C 458 930 490 917 516 891 C 542 865 555 833 555 797 Z M 375 113 C 375 76 362 45 336 20 C 310 -5 279 -18 242 -18 C 204 -18 173 -5 147 20 C 121 46 109 77 109 113 C 109 149 122 181 148 207 C 174 233 205 246 242 246 C 278 246 310 233 336 207 C 362 181 375 149 375 113 Z" unicode=":" />
<glyph horiz-adv-x="655" d="M 555 797 C 555 760 542 729 516 704 C 490 678 459 666 422 666 C 384 666 353 678 327 704 C 301 730 289 761 289 797 C 289 833 302 865 328 891 C 354 917 385 930 422 930 C 458 930 490 917 516 891 C 542 865 555 833 555 797 Z M 385 92 C 385 10 355 -68 296 -144 C 236 -219 155 -282 51 -332 L 37 -287 C 108 -247 165 -201 207 -150 C 249 -98 273 -47 279 4 L 231 4 C 145 4 102 39 102 111 C 102 147 116 179 146 206 C 175 232 208 246 246 246 C 338 246 385 194 385 92 Z" unicode=";" />
<glyph horiz-adv-x="1188" d="M 1069 72 L 164 492 L 164 573 L 1069 993 L 1069 887 L 293 532 L 1069 178 L 1069 72 Z" unicode="&#x3C;" />
<glyph horiz-adv-x="1188" d="M 1083 649 L 178 649 L 178 743 L 1083 743 L 1083 649 Z M 1083 322 L 178 322 L 178 416 L 1083 416 L 1083 322 Z" unicode="=" />
<glyph horiz-adv-x="1188" d="M 1092 492 L 186 72 L 186 178 L 963 532 L 186 887 L 186 993 L 1092 573 L 1092 492 Z" unicode="&#x3E;" />
<glyph horiz-adv-x="877" d="M 967 1110 C 967 952 877 835 698 758 C 586 708 512 671 476 646 C 439 620 410 593 389 563 C 368 533 358 500 358 463 C 358 397 390 365 455 365 C 486 365 515 381 542 414 C 568 446 586 486 594 532 L 639 518 C 629 464 606 419 568 383 C 530 346 490 328 449 328 C 388 328 340 346 306 382 C 271 418 254 468 254 530 C 254 597 276 656 322 706 C 368 756 447 808 559 862 C 650 906 714 950 752 995 C 790 1039 809 1097 809 1167 C 809 1205 799 1240 779 1273 C 759 1306 730 1332 694 1352 C 657 1372 615 1382 567 1382 C 505 1382 453 1363 410 1326 C 367 1289 346 1245 346 1194 C 346 1150 359 1114 385 1085 C 411 1056 445 1042 487 1042 C 507 1042 523 1045 535 1051 L 535 1063 L 531 1063 C 509 1063 490 1070 472 1086 C 454 1101 446 1119 446 1141 C 446 1167 454 1190 472 1208 C 489 1226 511 1235 539 1235 C 571 1235 597 1226 617 1209 C 637 1191 647 1167 647 1135 C 647 1095 633 1063 605 1038 C 577 1013 539 1001 492 1001 C 440 1001 396 1019 361 1056 C 326 1092 309 1138 309 1192 C 309 1260 337 1317 394 1363 C 450 1409 522 1432 610 1432 C 715 1432 801 1401 867 1341 C 933 1281 967 1204 967 1110 Z M 444 106 C 444 69 431 39 406 16 C 381 -6 351 -18 317 -18 C 281 -18 250 -6 226 17 C 202 41 190 70 190 106 C 190 140 202 170 226 195 C 250 220 280 233 317 233 C 353 233 383 220 407 196 C 431 172 444 142 444 106 Z" unicode="?" />
<glyph horiz-adv-x="2181" d="M 2007 233 C 1966 98 1901 -20 1812 -122 C 1722 -224 1615 -302 1490 -357 C 1364 -412 1230 -440 1087 -440 C 921 -440 771 -405 636 -336 C 500 -267 397 -172 327 -52 C 256 67 221 204 221 358 C 221 530 267 693 361 848 C 455 1003 580 1124 736 1212 C 892 1299 1063 1343 1247 1343 C 1385 1343 1505 1316 1605 1262 C 1705 1208 1782 1131 1836 1031 C 1890 931 1917 818 1917 692 C 1917 587 1891 486 1841 389 C 1790 291 1723 213 1639 155 C 1555 97 1468 68 1378 68 C 1322 68 1277 81 1243 109 C 1208 137 1189 177 1186 231 L 1180 233 C 1150 187 1114 148 1072 118 C 1030 87 988 72 948 72 C 874 72 818 94 780 140 C 742 185 723 250 723 334 C 723 386 737 447 766 516 C 794 584 831 646 876 700 C 921 754 972 797 1028 827 C 1084 857 1142 872 1202 872 C 1237 872 1268 861 1295 841 C 1321 821 1338 790 1346 750 L 1352 750 L 1395 860 L 1538 860 L 1337 322 C 1322 279 1315 243 1315 215 C 1315 152 1343 121 1399 121 C 1477 121 1552 147 1625 201 C 1697 255 1754 326 1796 415 C 1837 503 1858 600 1858 705 C 1858 819 1833 919 1784 1006 C 1735 1092 1664 1159 1571 1207 C 1477 1254 1367 1278 1241 1278 C 1095 1278 956 1237 825 1155 C 693 1073 592 964 520 828 C 448 691 412 538 412 369 C 412 223 439 95 495 -15 C 551 -125 630 -209 733 -269 C 835 -328 953 -358 1087 -358 C 1311 -358 1497 -307 1645 -205 C 1793 -103 1901 47 1970 246 L 2007 233 Z M 1327 680 C 1319 731 1305 769 1285 794 C 1265 818 1235 831 1196 831 C 1147 831 1100 805 1054 753 C 1008 701 969 630 937 542 C 905 454 889 373 889 301 C 889 244 895 202 907 174 C 919 146 941 133 971 133 C 1010 133 1047 146 1083 174 C 1119 202 1156 247 1194 311 L 1327 680 Z" unicode="@" />
<glyph horiz-adv-x="1300" d="M 1241 43 L 1229 0 L 631 0 L 643 43 C 735 49 795 61 825 80 C 855 98 870 130 870 176 L 870 553 L 408 553 C 314 423 252 336 222 294 C 192 251 167 215 147 185 C 127 155 121 140 127 139 C 127 114 149 92 193 74 C 237 55 283 45 330 43 L 317 0 L -246 0 L -233 43 C -206 45 -172 53 -131 67 C -90 81 -53 101 -21 129 C 11 156 48 194 90 244 C 341 557 648 949 1012 1421 L 1069 1421 L 1069 182 C 1069 143 1073 116 1081 100 C 1089 84 1107 72 1133 62 C 1159 52 1195 46 1241 43 Z M 870 614 L 870 1139 L 461 614 L 870 614 Z" unicode="A" />
<glyph horiz-adv-x="1284" d="M 1294 1139 C 1294 1052 1260 977 1193 915 C 1126 852 1018 801 870 762 L 870 743 C 981 723 1065 688 1121 639 C 1177 589 1206 527 1206 453 C 1206 364 1178 285 1122 216 C 1066 147 988 94 886 56 C 784 18 669 0 539 0 L -68 0 L -57 43 C 25 49 76 56 96 63 C 140 78 169 112 184 164 L 477 1217 C 482 1241 485 1257 485 1264 C 485 1277 481 1288 475 1296 C 469 1304 458 1311 444 1319 C 417 1329 390 1337 364 1343 C 337 1349 318 1352 307 1354 L 319 1399 L 934 1399 C 1046 1399 1134 1376 1198 1331 C 1262 1286 1294 1222 1294 1139 Z M 1077 1120 C 1077 1188 1059 1243 1023 1283 C 987 1323 932 1343 858 1343 L 715 1339 L 555 768 L 631 768 C 715 768 791 783 859 814 C 927 845 980 888 1019 943 C 1057 997 1077 1056 1077 1120 Z M 989 449 C 989 530 960 594 902 642 C 844 689 768 713 674 713 L 539 709 L 393 182 L 391 157 C 391 124 402 99 425 82 C 448 65 490 57 551 57 C 635 57 710 74 777 110 C 843 145 895 193 933 255 C 970 316 989 381 989 449 Z" unicode="B" />
<glyph horiz-adv-x="1286" d="M 1389 1419 L 1290 913 L 1241 913 C 1229 1028 1210 1117 1182 1179 C 1154 1241 1116 1287 1067 1319 C 1017 1350 955 1366 881 1366 C 789 1366 700 1328 613 1252 C 525 1176 456 1075 404 947 C 352 819 326 684 326 541 C 326 387 359 268 426 183 C 492 97 587 55 709 55 C 795 55 874 79 946 127 C 1018 175 1095 260 1178 383 L 1225 354 C 1158 254 1096 178 1040 128 C 984 77 922 38 854 10 C 786 -17 711 -31 627 -31 C 461 -31 332 17 238 113 C 144 209 98 339 98 504 C 98 661 134 810 207 951 C 280 1091 381 1205 510 1293 C 639 1381 774 1425 915 1425 C 977 1425 1031 1417 1077 1402 C 1122 1386 1170 1357 1221 1315 L 1305 1419 L 1389 1419 Z" unicode="C" />
<glyph horiz-adv-x="1524" d="M 1505 856 C 1505 694 1464 549 1384 420 C 1304 290 1188 188 1038 113 C 888 37 721 0 539 0 L -68 0 L -57 43 C 25 49 76 56 96 63 C 140 78 169 112 184 164 L 477 1217 C 482 1241 485 1257 485 1264 C 485 1277 481 1288 475 1296 C 469 1304 458 1311 444 1319 C 417 1329 390 1337 364 1343 C 337 1349 318 1352 307 1354 L 319 1399 L 926 1399 C 1041 1399 1142 1377 1229 1335 C 1316 1293 1384 1231 1432 1151 C 1480 1070 1505 972 1505 856 Z M 1286 838 C 1286 1002 1249 1127 1175 1213 C 1101 1298 994 1341 852 1341 C 806 1341 760 1339 715 1337 L 401 217 C 396 200 394 184 394 170 C 394 142 404 117 426 94 C 447 70 493 59 563 59 C 692 59 812 92 923 160 C 1034 227 1122 321 1188 441 C 1253 561 1286 694 1286 838 Z" unicode="D" />
<glyph horiz-adv-x="1305" d="M 1380 1399 L 1292 1079 L 1241 1079 L 1241 1096 C 1241 1136 1235 1174 1223 1209 C 1211 1244 1194 1273 1172 1295 C 1150 1317 1122 1331 1090 1336 C 1057 1340 1006 1343 938 1343 L 717 1343 L 551 752 L 711 752 C 764 752 810 761 850 780 C 889 798 922 829 949 871 C 976 913 999 957 1018 1004 L 1071 1004 L 911 434 L 862 434 C 866 459 868 490 868 526 C 868 551 866 574 863 594 C 860 614 853 630 843 644 C 833 657 821 667 809 674 C 797 681 781 686 762 690 C 742 694 720 696 696 696 L 537 696 L 410 244 C 396 200 389 167 389 145 C 389 111 402 87 429 75 C 455 63 511 57 596 57 C 712 57 792 60 835 68 C 878 76 910 88 932 104 C 975 140 1021 188 1071 250 C 1120 311 1153 359 1171 393 L 1223 393 L 1090 0 L -86 0 L -72 43 C -45 43 -7 46 40 54 C 88 62 123 74 143 92 C 163 110 178 136 188 170 L 477 1214 C 482 1238 485 1255 485 1264 C 485 1283 477 1298 463 1308 C 448 1318 421 1328 383 1338 C 344 1347 313 1352 291 1354 L 305 1399 L 1380 1399 Z" unicode="E" />
<glyph horiz-adv-x="1253" d="M 1432 1399 L 1343 1067 L 1292 1067 C 1292 1118 1286 1163 1274 1203 C 1262 1242 1244 1273 1222 1295 C 1199 1317 1169 1331 1131 1336 C 1093 1340 1041 1343 973 1343 L 717 1343 L 549 748 L 733 748 C 766 748 798 752 829 760 C 860 768 889 781 917 799 C 945 817 970 845 994 885 C 1018 924 1037 962 1051 999 L 1106 999 L 944 424 L 889 424 C 894 451 897 489 897 537 C 895 581 890 611 881 627 C 867 646 846 661 818 673 C 790 684 756 690 717 690 L 535 690 L 393 184 C 387 169 385 153 385 135 C 385 116 391 102 405 92 C 419 82 444 72 482 62 C 519 52 552 47 580 45 L 565 0 L -86 0 L -72 43 C -45 43 -7 46 40 54 C 88 62 123 74 143 92 C 163 110 178 136 188 170 L 477 1214 C 482 1238 485 1255 485 1264 C 485 1283 477 1298 463 1308 C 448 1318 421 1328 383 1338 C 344 1347 313 1352 291 1354 L 305 1399 L 1432 1399 Z" unicode="F" />
<glyph horiz-adv-x="1456" d="M 1493 618 L 1481 571 L 1448 567 C 1390 559 1350 549 1326 538 C 1302 527 1285 513 1274 496 C 1262 478 1253 458 1247 436 L 1120 -39 L 1094 -47 L 1016 78 L 909 34 C 851 9 801 -7 759 -17 C 717 -26 673 -31 627 -31 C 519 -31 426 -9 346 33 C 266 75 205 138 162 220 C 119 302 98 401 98 516 C 98 673 138 823 218 966 C 298 1109 404 1221 536 1303 C 668 1384 808 1425 956 1425 C 1020 1425 1077 1416 1129 1400 C 1181 1383 1230 1355 1276 1315 L 1368 1419 L 1448 1419 L 1335 928 L 1288 928 C 1278 1086 1242 1198 1182 1265 C 1122 1332 1033 1366 915 1366 C 817 1366 721 1328 628 1252 C 534 1176 461 1074 408 947 C 354 820 328 683 328 537 C 328 377 358 253 419 166 C 480 78 567 35 680 35 C 742 35 794 44 836 64 C 878 83 913 111 941 149 C 969 186 994 242 1016 318 C 1038 394 1049 443 1049 467 C 1049 492 1042 511 1029 524 C 1015 536 987 547 944 555 C 900 563 857 568 813 571 L 825 618 L 1493 618 Z" unicode="G" />
<glyph horiz-adv-x="1657" d="M 1817 1399 L 1802 1354 C 1770 1352 1732 1346 1688 1338 C 1643 1329 1613 1316 1597 1300 C 1581 1283 1569 1259 1561 1227 L 1260 148 L 1257 129 C 1257 119 1258 110 1262 104 C 1265 98 1274 90 1289 80 C 1303 70 1326 62 1357 56 C 1388 49 1416 45 1440 43 L 1427 0 L 801 0 L 813 43 C 900 49 953 55 973 63 C 1018 79 1047 112 1061 164 L 1210 696 L 537 696 L 389 172 C 385 154 383 140 383 131 C 383 111 391 95 407 84 C 423 73 448 64 484 56 C 519 48 547 44 567 43 L 557 0 L -68 0 L -57 43 C 25 49 76 56 96 63 C 140 78 169 112 184 164 L 477 1217 C 482 1241 485 1257 485 1264 C 485 1277 481 1288 475 1296 C 469 1304 458 1311 444 1319 C 417 1329 390 1337 364 1343 C 337 1349 318 1352 307 1354 L 319 1399 L 946 1399 L 934 1354 C 875 1350 822 1341 774 1329 C 729 1315 699 1281 684 1227 L 555 762 L 1227 762 L 1354 1217 C 1359 1241 1362 1258 1362 1266 C 1362 1279 1358 1289 1351 1297 C 1344 1304 1334 1311 1321 1319 C 1259 1339 1210 1351 1176 1354 L 1192 1399 L 1817 1399 Z" unicode="H" />
<glyph horiz-adv-x="795" d="M 952 1399 L 940 1354 C 881 1350 828 1341 780 1329 C 735 1315 705 1281 690 1227 L 395 172 C 391 154 389 140 389 131 C 389 111 396 95 412 85 C 427 74 452 65 488 57 C 524 49 552 44 573 43 L 563 0 L -61 0 L -51 43 C 26 49 75 55 97 61 C 119 67 136 77 150 90 C 164 103 175 122 185 148 C 194 173 295 538 489 1243 L 492 1264 C 492 1277 488 1288 482 1296 C 475 1304 465 1311 451 1319 C 425 1328 399 1336 371 1343 C 343 1349 324 1353 313 1354 L 326 1399 L 952 1399 Z" unicode="I" />
<glyph horiz-adv-x="1118" d="M 1239 1305 C 1239 1274 1231 1249 1215 1229 C 1199 1209 1178 1193 1151 1180 C 1123 1166 1068 1151 985 1133 C 960 1073 939 1015 922 959 C 905 903 888 827 870 731 L 1135 737 L 1114 666 L 858 668 L 804 444 C 783 357 756 259 723 150 C 690 41 645 -50 587 -125 C 529 -199 463 -256 389 -295 C 315 -334 237 -354 156 -354 C 83 -354 25 -336 -16 -302 C -58 -267 -80 -223 -80 -170 C -80 -144 -68 -119 -46 -95 C -23 -71 3 -59 35 -59 C 69 -59 98 -67 120 -83 C 142 -99 154 -126 154 -164 C 154 -184 139 -214 111 -256 C 111 -269 116 -281 128 -293 C 140 -305 151 -311 162 -311 C 225 -311 277 -297 319 -269 C 360 -241 397 -196 430 -136 C 462 -75 493 6 521 108 C 549 210 593 394 651 659 L 383 659 L 393 715 L 664 721 C 677 761 691 796 706 828 C 721 860 739 891 760 923 C 781 954 831 1018 909 1116 C 874 1108 834 1100 789 1093 C 743 1086 710 1083 690 1083 C 654 1083 620 1092 588 1110 C 556 1128 523 1157 489 1196 C 451 1237 416 1267 385 1285 C 353 1303 321 1313 287 1313 C 253 1313 227 1305 207 1291 C 187 1276 178 1257 178 1235 C 178 1227 181 1215 189 1198 C 196 1180 203 1166 209 1155 C 240 1153 265 1143 285 1124 C 305 1105 315 1081 315 1053 C 315 1031 306 1010 288 991 C 270 972 247 963 219 963 C 182 963 154 977 135 1007 C 115 1037 106 1078 106 1130 C 106 1177 121 1225 151 1275 C 181 1324 221 1363 269 1393 C 317 1423 366 1438 418 1438 C 468 1438 511 1427 547 1407 C 583 1386 619 1352 654 1306 C 689 1256 725 1220 761 1197 C 797 1173 839 1159 887 1155 L 942 1155 L 1004 1230 C 1044 1281 1077 1317 1101 1337 C 1125 1357 1145 1368 1163 1368 C 1213 1368 1239 1347 1239 1305 Z" unicode="J" />
<glyph horiz-adv-x="1511" d="M 1677 1399 L 1665 1354 L 1617 1351 C 1571 1348 1524 1338 1476 1320 C 1428 1302 1385 1277 1348 1247 L 1189 1115 C 1082 1025 998 957 938 910 C 877 863 811 815 739 766 C 868 600 1001 415 1137 209 C 1162 169 1191 137 1224 112 C 1256 87 1288 70 1320 62 C 1352 54 1387 48 1425 45 L 1415 0 L 717 0 L 727 45 C 806 51 862 60 894 72 C 926 84 942 103 942 129 C 942 161 900 238 817 360 C 734 482 652 590 571 686 L 535 686 L 389 172 C 385 156 383 142 383 131 C 383 111 391 95 407 84 C 423 73 448 64 484 56 C 519 48 547 44 567 43 L 557 0 L -68 0 L -57 43 C 25 49 76 56 96 63 C 140 78 169 112 184 164 L 477 1217 C 482 1241 485 1257 485 1264 C 485 1277 481 1288 475 1296 C 469 1304 458 1311 444 1319 C 417 1329 390 1337 364 1343 C 337 1349 318 1352 307 1354 L 319 1399 L 946 1399 L 934 1354 C 875 1350 822 1341 774 1329 C 729 1315 699 1281 684 1227 L 545 725 L 571 725 C 772 859 932 977 1052 1080 C 1172 1182 1232 1253 1233 1291 C 1233 1325 1183 1346 1085 1354 L 1098 1399 L 1677 1399 Z" unicode="K" />
<glyph horiz-adv-x="1288" d="M 1223 397 L 1085 0 L -86 0 L -72 43 C -45 43 -7 46 40 54 C 88 62 123 74 143 92 C 163 110 178 136 188 170 L 477 1214 C 482 1238 485 1255 485 1264 C 485 1283 477 1298 463 1308 C 448 1318 421 1328 383 1338 C 344 1347 313 1352 291 1354 L 305 1399 L 946 1399 L 934 1354 C 875 1350 822 1341 774 1329 C 729 1315 699 1281 684 1227 L 410 244 C 397 196 391 161 391 139 C 391 108 404 87 432 75 C 460 63 517 57 604 57 C 682 57 751 61 809 70 C 867 79 906 91 924 106 C 958 131 1001 173 1053 233 C 1105 292 1145 347 1174 397 L 1223 397 Z" unicode="L" />
<glyph horiz-adv-x="1907" d="M 2060 1399 L 2048 1354 C 1989 1350 1936 1341 1888 1329 C 1840 1315 1810 1281 1798 1227 L 1526 172 C 1522 160 1520 146 1520 131 C 1520 111 1527 95 1543 85 C 1559 74 1584 65 1618 57 C 1652 49 1683 45 1712 43 L 1702 0 L 1079 0 L 1090 43 C 1166 49 1214 55 1235 63 C 1281 79 1310 112 1323 164 L 1591 1225 L 776 23 L 739 23 C 733 133 723 228 709 307 L 541 1202 L 324 389 C 316 359 308 325 301 287 C 294 248 291 219 291 201 C 291 166 296 139 307 121 C 318 103 346 86 391 70 C 436 54 476 45 512 43 L 500 0 L -113 0 L -100 43 C -71 45 -34 52 10 64 C 55 76 86 87 104 98 C 132 115 157 146 179 190 C 201 234 223 297 246 379 L 449 1128 C 457 1160 462 1187 462 1210 C 462 1256 443 1290 407 1314 C 371 1337 322 1350 262 1354 L 274 1399 L 698 1399 L 901 315 L 1505 1223 C 1551 1291 1583 1350 1599 1399 L 2060 1399 Z" unicode="M" />
<glyph horiz-adv-x="1509" d="M 1733 1399 L 1720 1356 C 1693 1354 1657 1347 1613 1337 C 1568 1326 1536 1315 1518 1305 C 1490 1289 1465 1260 1443 1218 C 1421 1176 1398 1114 1376 1030 L 1098 -14 L 1030 -14 L 526 1161 L 324 389 C 318 372 311 341 303 296 C 295 250 291 219 291 201 C 291 166 296 139 307 121 C 318 103 346 86 391 70 C 436 54 476 45 512 43 L 500 0 L -113 0 L -100 43 C -71 45 -34 52 10 64 C 55 76 86 87 104 98 C 160 132 208 226 248 379 L 440 1102 C 446 1126 449 1149 449 1171 C 449 1287 367 1348 203 1354 L 217 1399 L 639 1399 L 1112 297 L 1300 1018 C 1322 1106 1333 1169 1333 1208 C 1333 1234 1329 1254 1322 1270 C 1315 1286 1300 1299 1276 1310 C 1252 1320 1224 1330 1191 1340 C 1158 1349 1132 1354 1112 1356 L 1124 1399 L 1733 1399 Z" unicode="N" />
<glyph horiz-adv-x="1475" d="M 1456 881 C 1456 715 1421 563 1352 425 C 1282 286 1184 175 1056 92 C 928 8 788 -33 637 -33 C 529 -33 437 -8 361 41 C 284 90 222 158 176 244 C 129 330 106 424 106 526 C 106 683 142 832 216 972 C 290 1112 389 1224 515 1306 C 640 1388 775 1430 920 1430 C 1083 1430 1213 1375 1310 1266 C 1407 1156 1456 1028 1456 881 Z M 1237 924 C 1237 1070 1208 1180 1151 1255 C 1094 1330 1012 1368 905 1368 C 803 1368 710 1331 624 1259 C 538 1186 467 1076 411 930 C 354 784 326 631 326 471 C 326 329 354 220 412 144 C 470 67 552 29 659 29 C 765 29 861 66 947 142 C 1032 218 1102 329 1156 476 C 1210 622 1237 772 1237 924 Z" unicode="O" />
<glyph horiz-adv-x="1235" d="M 1290 1098 C 1290 959 1229 848 1107 765 C 985 682 822 641 616 641 L 520 641 L 389 170 C 385 155 383 142 383 131 C 383 111 391 95 407 84 C 423 73 448 64 484 56 C 519 48 547 44 567 43 L 557 0 L -68 0 L -57 43 C 25 49 76 56 96 63 C 140 78 169 112 184 164 L 477 1217 C 482 1241 485 1257 485 1264 C 485 1277 481 1288 475 1296 C 469 1304 458 1311 444 1319 C 417 1329 390 1337 364 1343 C 337 1349 318 1352 307 1354 L 319 1399 L 887 1399 C 1013 1399 1112 1372 1183 1320 C 1254 1267 1290 1193 1290 1098 Z M 1073 1079 C 1073 1253 984 1341 807 1341 L 715 1341 L 539 702 L 637 702 C 773 702 879 735 957 803 C 1034 871 1073 963 1073 1079 Z" unicode="P" />
<glyph horiz-adv-x="1364" d="M 1632 -270 C 1632 -299 1615 -331 1581 -367 C 1547 -403 1504 -432 1452 -455 C 1399 -477 1342 -489 1282 -489 C 1166 -489 1066 -467 982 -424 C 897 -380 816 -307 740 -204 C 692 -139 651 -88 619 -51 C 587 -13 556 16 526 39 C 410 -7 306 -31 215 -31 C 143 -31 83 -19 37 4 C -9 28 -33 60 -33 100 C -33 135 -7 167 43 195 C 93 223 149 238 209 238 C 269 238 329 229 390 212 C 450 195 519 168 596 131 C 654 147 718 186 786 246 C 854 306 914 377 966 460 C 1018 542 1059 631 1087 727 C 1115 823 1130 920 1130 1018 C 1130 1125 1102 1210 1046 1274 C 990 1338 913 1370 813 1370 C 720 1370 634 1342 555 1288 C 475 1233 411 1156 362 1058 C 313 960 289 860 289 760 C 289 684 307 623 345 577 C 382 531 432 508 496 508 C 590 508 662 533 711 585 C 759 636 784 709 784 803 C 784 858 775 903 759 938 C 742 973 719 993 690 999 C 696 980 700 956 700 926 C 700 898 692 876 676 859 C 660 842 638 834 610 834 C 550 834 520 868 520 938 C 520 975 537 1006 571 1031 C 605 1056 647 1069 698 1069 C 751 1069 795 1046 831 1001 C 867 956 885 899 885 829 C 885 762 865 700 827 642 C 788 584 737 537 674 502 C 610 466 548 449 487 449 C 387 449 306 484 244 554 C 181 624 150 717 150 834 C 150 934 180 1030 241 1122 C 302 1214 384 1289 487 1345 C 589 1401 697 1430 809 1430 C 915 1430 1009 1409 1089 1369 C 1169 1329 1230 1272 1274 1198 C 1317 1124 1339 1040 1339 948 C 1339 766 1277 601 1155 453 C 1033 305 861 186 641 94 C 705 60 786 -3 883 -95 L 997 -204 C 1131 -334 1263 -399 1393 -399 L 1491 -397 L 1483 -367 C 1440 -351 1419 -319 1419 -270 C 1419 -241 1431 -216 1456 -196 C 1480 -176 1508 -166 1540 -166 C 1569 -166 1592 -175 1608 -193 C 1624 -211 1632 -236 1632 -270 Z M 502 78 C 420 154 323 193 211 193 C 188 193 165 183 142 164 C 118 145 104 126 98 106 C 123 46 170 16 240 16 C 278 16 324 22 377 34 C 429 46 471 61 502 78 Z" unicode="Q" />
<glyph horiz-adv-x="1456" d="M 1407 311 C 1367 187 1323 101 1276 51 C 1228 1 1170 -23 1102 -23 C 1032 -23 980 0 945 43 C 910 87 893 157 893 252 L 893 428 C 893 498 884 549 867 582 C 849 614 822 639 784 656 C 746 673 693 682 627 682 L 532 682 C 494 541 455 399 414 257 C 404 226 397 201 391 181 C 385 161 383 144 383 131 C 383 111 391 95 407 84 C 423 73 448 64 484 56 C 519 48 547 44 567 43 L 557 0 L -68 0 L -57 43 C 25 49 76 56 96 63 C 140 78 169 112 184 164 L 477 1217 C 482 1241 485 1257 485 1264 C 485 1277 481 1288 475 1296 C 469 1304 458 1311 444 1319 C 417 1329 390 1337 364 1343 C 337 1349 318 1352 307 1354 L 319 1399 L 895 1399 C 1029 1399 1133 1375 1208 1328 C 1283 1280 1321 1212 1321 1124 C 1321 1026 1283 942 1209 873 C 1134 804 1024 753 879 719 L 879 702 C 943 690 995 663 1033 621 C 1071 579 1092 523 1096 451 L 1099 309 C 1099 218 1105 156 1119 122 C 1133 88 1156 72 1190 72 C 1254 72 1310 156 1360 324 L 1407 311 Z M 1102 1102 C 1102 1261 1016 1341 846 1341 L 717 1341 L 549 741 L 649 741 C 789 741 900 772 981 836 C 1061 899 1102 988 1102 1102 Z" unicode="R" />
<glyph horiz-adv-x="1100" d="M 1186 1419 L 1069 954 L 1024 954 C 1008 1100 976 1204 927 1268 C 878 1332 810 1364 723 1364 C 639 1364 567 1338 509 1287 C 451 1236 422 1175 422 1104 C 422 1043 437 993 469 954 C 500 915 560 874 649 831 C 779 765 871 702 924 642 C 977 582 1004 512 1004 430 C 1004 345 979 268 929 198 C 879 128 811 73 725 33 C 639 -7 548 -27 453 -27 C 385 -27 321 -17 261 2 C 200 21 151 46 115 76 L 20 -20 L -49 -20 L 66 459 L 113 459 C 130 317 171 211 235 141 C 299 70 386 35 494 35 C 553 35 607 48 656 74 C 704 100 742 135 770 179 C 797 223 811 270 811 319 C 811 385 793 439 757 482 C 721 524 656 571 561 621 C 437 683 352 742 308 798 C 264 854 242 924 242 1010 C 242 1084 264 1154 310 1218 C 355 1282 417 1333 496 1370 C 574 1406 658 1425 748 1425 C 799 1425 849 1415 899 1397 C 948 1379 988 1354 1020 1323 L 1116 1419 L 1186 1419 Z" unicode="S" />
<glyph horiz-adv-x="1294" d="M 1513 1399 L 1413 1042 L 1364 1042 C 1364 1092 1359 1138 1349 1180 C 1339 1222 1324 1256 1306 1282 C 1287 1308 1265 1324 1241 1332 C 1217 1339 1157 1343 1063 1343 L 977 1343 L 659 180 C 655 168 653 153 653 135 C 653 124 655 114 661 106 C 666 97 674 89 685 83 C 695 76 724 68 770 59 C 816 50 852 45 877 43 L 864 0 L 166 0 L 178 43 C 287 51 356 63 386 79 C 416 95 437 126 451 170 L 774 1343 L 688 1343 C 624 1343 568 1340 520 1335 C 494 1331 462 1314 424 1284 C 385 1253 345 1213 305 1165 C 265 1116 236 1075 219 1042 L 170 1042 L 270 1399 L 1513 1399 Z" unicode="T" />
<glyph horiz-adv-x="1620" d="M 1810 1399 L 1798 1356 C 1770 1354 1733 1347 1688 1336 C 1643 1325 1612 1315 1595 1305 C 1569 1289 1545 1263 1524 1225 C 1503 1187 1480 1122 1454 1032 L 1294 473 C 1243 299 1166 172 1062 90 C 958 8 826 -33 664 -33 C 517 -33 408 -4 338 52 C 268 108 233 188 233 291 C 233 351 242 415 262 485 L 465 1217 C 470 1241 473 1257 473 1264 C 473 1277 469 1288 463 1296 C 457 1304 446 1311 432 1319 C 406 1328 380 1336 352 1343 C 324 1349 305 1353 295 1354 L 307 1399 L 934 1399 L 922 1354 C 863 1350 810 1341 762 1329 C 717 1315 687 1281 672 1227 L 477 526 C 451 430 438 351 438 287 C 438 207 462 149 512 111 C 561 73 634 55 731 55 C 979 55 1143 197 1225 481 L 1378 1020 C 1400 1094 1411 1156 1411 1208 C 1411 1239 1405 1263 1395 1279 C 1385 1295 1356 1311 1308 1328 C 1260 1344 1220 1354 1190 1356 L 1202 1399 L 1810 1399 Z" unicode="U" />
<glyph horiz-adv-x="1300" d="M 1642 1399 L 1630 1356 C 1592 1352 1545 1339 1487 1315 C 1435 1291 1375 1237 1307 1155 C 1068 857 761 465 385 -23 L 328 -23 L 328 1217 C 328 1255 323 1282 315 1298 C 307 1314 290 1326 264 1336 C 238 1346 202 1352 156 1356 L 168 1399 L 766 1399 L 754 1356 C 661 1350 600 1337 570 1318 C 540 1298 526 1267 526 1223 L 526 260 L 936 784 C 992 856 1038 917 1076 968 C 1113 1018 1147 1066 1179 1110 C 1210 1154 1234 1189 1250 1214 C 1266 1238 1272 1254 1270 1260 C 1270 1282 1250 1303 1210 1321 C 1170 1339 1122 1351 1067 1356 L 1079 1399 L 1642 1399 Z" unicode="V" />
<glyph horiz-adv-x="1952" d="M 2281 1399 L 2269 1354 C 2235 1352 2198 1342 2157 1326 C 2115 1309 2083 1289 2059 1266 C 2035 1242 2008 1208 1978 1163 L 1190 -16 L 1112 -16 L 1112 1042 L 406 -16 L 328 -16 L 328 1217 C 328 1255 323 1283 315 1299 C 306 1315 288 1327 262 1337 C 235 1347 200 1353 156 1356 L 168 1399 L 766 1399 L 754 1356 C 661 1350 600 1337 570 1318 C 540 1298 526 1267 526 1223 L 526 262 L 1096 1130 C 1106 1158 1112 1193 1112 1235 C 1112 1279 1098 1310 1071 1326 C 1043 1342 1000 1352 940 1356 L 952 1399 L 1550 1399 L 1538 1356 C 1446 1350 1386 1337 1356 1319 C 1326 1300 1311 1268 1311 1223 L 1311 262 L 1833 1059 C 1875 1124 1901 1169 1912 1194 C 1923 1219 1929 1239 1929 1255 C 1929 1280 1908 1302 1868 1321 C 1828 1339 1778 1350 1718 1354 L 1731 1399 L 2281 1399 Z" unicode="W" />
<glyph horiz-adv-x="1511" d="M 1696 1399 L 1683 1354 C 1609 1348 1548 1334 1499 1311 C 1450 1287 1399 1252 1346 1205 C 1293 1158 1228 1097 1152 1023 C 1076 949 987 861 885 760 C 938 637 992 516 1046 398 C 1100 280 1138 201 1160 163 C 1182 125 1209 94 1239 70 C 1251 60 1300 51 1386 45 L 1374 0 L 672 0 L 684 45 C 842 52 922 87 922 150 C 922 171 914 204 898 248 C 882 292 829 415 739 618 C 546 432 421 307 363 244 C 305 180 276 141 276 125 C 276 95 289 75 317 65 C 345 54 389 47 451 45 L 438 0 L -143 0 L -131 45 C -57 49 4 63 55 87 C 105 111 163 152 227 211 C 357 329 519 483 713 674 C 639 840 555 1023 461 1223 C 440 1266 410 1300 371 1325 C 361 1330 342 1336 312 1342 C 282 1348 252 1352 223 1354 L 236 1399 L 938 1399 L 926 1354 C 770 1346 692 1312 692 1251 C 692 1219 707 1166 738 1093 C 768 1020 808 928 858 817 C 1034 989 1148 1104 1201 1163 C 1253 1222 1280 1260 1280 1278 C 1280 1303 1266 1321 1238 1332 C 1210 1343 1165 1350 1102 1354 L 1114 1399 L 1696 1399 Z" unicode="X" />
<glyph horiz-adv-x="1286" d="M 1505 1307 C 1505 1216 1465 1171 1386 1171 C 1355 1171 1330 1180 1311 1199 C 1291 1218 1282 1240 1282 1266 C 1282 1283 1285 1297 1291 1307 C 1297 1317 1303 1327 1311 1337 L 1303 1348 C 1250 1334 1185 1288 1109 1208 C 1032 1128 966 1036 910 934 C 854 831 815 733 793 641 L 676 172 C 672 156 670 142 670 131 C 671 117 675 106 681 98 C 687 90 696 82 710 75 C 723 68 750 61 790 54 C 830 46 861 43 881 43 L 870 0 L 229 0 L 240 43 C 315 49 364 55 387 63 C 431 78 459 112 471 164 L 594 666 C 607 722 614 795 614 885 L 614 944 C 614 1060 592 1148 549 1208 C 505 1268 444 1298 365 1298 C 265 1298 194 1230 152 1094 L 106 1108 C 177 1318 296 1423 463 1423 C 525 1423 581 1404 632 1368 C 683 1332 723 1282 752 1219 C 780 1156 795 1090 795 1020 C 795 970 791 923 784 879 L 776 823 L 795 823 C 867 1008 954 1155 1057 1263 C 1160 1371 1264 1425 1368 1425 C 1408 1425 1441 1413 1467 1390 C 1492 1367 1505 1339 1505 1307 Z" unicode="Y" />
<glyph horiz-adv-x="1221" d="M 1407 1399 L 1399 1374 L 143 55 L 514 55 C 596 55 665 59 722 69 C 778 79 818 92 842 109 C 886 141 933 186 983 244 C 1033 302 1078 360 1116 420 L 1165 420 L 1016 0 L -137 0 L -131 25 L 1124 1343 L 797 1343 C 718 1343 661 1340 625 1334 C 589 1328 549 1308 506 1276 C 462 1243 419 1203 377 1156 C 334 1109 299 1064 272 1022 L 223 1022 L 362 1399 L 1407 1399 Z" unicode="Z" />
<glyph horiz-adv-x="1249" d="M 1393 1489 C 1393 1441 1375 1397 1340 1356 C 1305 1314 1258 1281 1198 1256 C 1138 1231 1077 1219 1014 1219 C 942 1219 876 1227 818 1245 C 760 1262 698 1291 634 1331 L 504 1407 L 61 -244 L 231 -167 C 319 -127 396 -98 463 -81 C 529 -63 599 -55 672 -55 C 751 -55 813 -72 859 -106 C 905 -140 928 -186 928 -242 C 928 -278 918 -310 899 -337 C 879 -363 854 -389 823 -414 L 782 -397 C 798 -386 814 -369 829 -346 C 844 -323 852 -303 852 -285 C 852 -261 838 -244 810 -234 C 782 -224 740 -219 684 -219 C 503 -219 271 -249 -12 -309 L -63 -326 L 422 1489 L 465 1473 C 713 1412 928 1382 1112 1382 C 1188 1382 1243 1390 1277 1408 C 1311 1425 1329 1455 1329 1499 C 1329 1517 1324 1537 1315 1559 L 1362 1575 C 1371 1567 1378 1554 1384 1538 C 1390 1522 1393 1505 1393 1489 Z" unicode="[" />
<glyph horiz-adv-x="963" d="M 786 -420 L 688 -436 L 297 1528 L 397 1542 L 786 -420 Z" unicode="\" />
<glyph horiz-adv-x="1249" d="M 1343 1489 L 858 -326 L 815 -309 C 564 -249 348 -219 168 -219 C 92 -219 36 -227 2 -245 C -31 -262 -49 -292 -49 -336 C -49 -354 -44 -374 -35 -395 L -82 -412 C -91 -403 -98 -390 -104 -374 C -110 -358 -113 -342 -113 -326 C -113 -278 -95 -233 -59 -191 C -23 -149 25 -115 85 -91 C 145 -67 205 -55 266 -55 C 337 -55 401 -63 458 -80 C 515 -96 578 -125 647 -167 L 776 -244 L 1219 1407 L 1049 1331 C 964 1291 888 1263 820 1245 C 752 1227 681 1219 608 1219 C 528 1219 466 1236 420 1270 C 374 1304 352 1349 352 1405 C 352 1442 361 1474 381 1500 C 400 1526 425 1552 457 1577 L 498 1561 C 478 1546 461 1528 448 1506 C 434 1484 428 1465 428 1448 C 428 1424 442 1407 470 1397 C 498 1387 540 1382 596 1382 C 778 1382 1010 1412 1292 1473 L 1343 1489 Z" unicode="]" />
<glyph horiz-adv-x="1151" d="M 219 999 L 616 1524 L 756 1524 L 983 999 L 836 999 L 647 1313 L 365 999 L 219 999 Z" unicode="^" />
<glyph horiz-adv-x="1229" d="M 1024 -317 L -225 -317 L -225 -225 L 1024 -225 L 1024 -317 Z" unicode="_" />
<glyph horiz-adv-x="1024" d="M 848 1096 L 817 1075 L 592 1303 C 550 1341 530 1379 530 1419 C 530 1440 537 1458 551 1474 C 565 1489 583 1497 606 1497 C 634 1497 655 1488 671 1470 C 687 1452 702 1427 717 1393 C 773 1262 817 1163 848 1096 Z" unicode="`" />
<glyph horiz-adv-x="1124" d="M 1108 287 C 1072 200 1041 137 1014 97 C 986 57 956 27 924 7 C 892 -13 855 -23 815 -23 C 753 -23 705 -8 672 21 C 639 50 623 99 623 168 L 614 170 C 522 37 427 -29 328 -29 C 235 -29 165 0 118 56 C 70 112 47 192 47 295 C 47 361 63 436 96 519 C 129 602 172 676 225 741 C 278 805 338 855 405 891 C 471 926 542 944 616 944 C 665 944 706 930 739 904 C 771 877 792 841 801 795 L 807 795 L 854 932 L 1038 932 L 807 262 C 799 242 792 216 785 185 C 777 153 774 129 774 111 C 774 83 779 63 789 49 C 799 35 818 29 844 29 C 886 29 923 47 955 85 C 987 123 1025 194 1067 299 L 1108 287 Z M 782 719 C 770 781 750 827 724 857 C 698 886 660 901 610 901 C 550 901 492 869 437 807 C 381 745 335 659 297 550 C 259 441 240 342 240 252 C 240 182 249 130 267 94 C 285 58 315 41 358 41 C 456 41 546 108 627 242 L 782 719 Z" unicode="a" />
<glyph horiz-adv-x="1044" d="M 1001 623 C 1001 557 983 483 948 399 C 913 315 868 240 812 174 C 756 108 694 57 626 22 C 558 -13 487 -31 414 -31 C 316 -31 239 -7 181 39 C 123 85 94 149 94 229 C 94 257 95 283 99 306 C 102 329 111 363 125 408 L 393 1247 C 413 1309 424 1354 424 1384 C 424 1409 412 1427 389 1437 C 365 1447 329 1453 280 1456 L 219 1458 L 219 1499 L 666 1520 L 424 784 L 430 782 C 521 890 613 944 705 944 C 801 944 874 915 925 859 C 975 803 1001 724 1001 623 Z M 809 664 C 809 804 764 874 674 874 C 575 874 482 811 395 686 L 250 231 C 250 86 306 14 420 14 C 479 14 538 45 597 107 C 655 169 705 255 747 364 C 788 473 809 573 809 664 Z" unicode="b" />
<glyph horiz-adv-x="813" d="M 807 760 C 807 719 797 686 778 661 C 758 635 733 623 702 623 C 670 623 644 631 624 648 C 604 665 594 687 594 715 C 594 736 603 757 623 779 C 642 800 667 819 698 836 C 692 862 680 881 662 892 C 644 903 616 909 580 909 C 526 909 473 874 420 804 C 367 734 324 646 290 539 C 256 431 240 336 240 252 C 240 183 251 130 273 94 C 295 57 333 39 387 39 C 449 39 507 60 561 102 C 615 144 669 215 723 313 L 764 295 C 648 79 511 -29 354 -29 C 254 -29 177 0 125 56 C 73 112 47 192 47 295 C 47 359 63 432 96 516 C 128 599 170 673 222 738 C 273 803 331 854 396 890 C 460 926 528 944 598 944 C 658 944 707 926 747 890 C 787 854 807 810 807 760 Z" unicode="c" />
<glyph horiz-adv-x="1147" d="M 1221 1520 L 825 262 C 803 185 793 135 793 111 C 793 83 798 62 808 49 C 818 35 835 29 860 29 C 902 29 940 49 974 89 C 1008 129 1044 199 1083 299 L 1124 287 C 1079 172 1034 92 989 46 C 943 0 891 -23 831 -23 C 771 -23 725 -8 693 20 C 661 48 645 96 645 164 L 637 166 C 544 36 443 -29 334 -29 C 240 -29 169 0 120 55 C 71 111 47 191 47 295 C 47 361 64 436 98 519 C 132 602 175 676 229 740 C 282 804 342 854 410 890 C 477 926 548 944 623 944 C 667 944 706 932 740 909 C 774 886 799 854 815 813 L 821 813 L 952 1247 C 972 1317 983 1363 983 1384 C 983 1408 971 1426 948 1437 C 924 1448 884 1454 828 1456 L 756 1458 L 756 1499 L 1221 1520 Z M 799 741 C 781 799 757 841 729 865 C 701 889 663 901 616 901 C 556 901 497 869 441 807 C 384 745 336 660 298 553 C 259 446 240 346 240 252 C 240 182 249 130 269 94 C 289 58 321 41 365 41 C 415 41 465 57 514 91 C 562 125 606 174 645 238 L 799 741 Z" unicode="d" />
<glyph horiz-adv-x="815" d="M 807 807 C 807 752 786 700 744 652 C 702 603 638 559 552 521 C 466 482 372 454 270 438 C 250 345 240 281 240 246 C 240 175 251 123 275 89 C 299 55 337 39 391 39 C 452 39 509 59 561 101 C 613 142 667 213 723 313 L 760 295 C 646 79 512 -29 360 -29 C 258 -29 181 0 127 58 C 73 116 47 196 47 299 C 47 365 64 439 98 523 C 132 607 176 680 230 744 C 284 808 346 857 414 892 C 482 926 555 944 633 944 C 684 944 726 931 758 906 C 790 881 807 848 807 807 Z M 666 795 C 666 867 635 903 575 903 C 523 903 469 863 414 784 C 358 704 314 603 281 481 C 360 495 428 518 485 550 C 542 582 586 620 618 664 C 650 707 666 751 666 795 Z" unicode="e" />
<glyph horiz-adv-x="629" d="M 1098 1348 C 1098 1322 1087 1299 1067 1277 C 1046 1255 1021 1245 993 1245 C 961 1245 934 1253 912 1270 C 890 1287 879 1309 879 1335 C 879 1344 883 1361 892 1385 C 901 1411 907 1432 909 1446 C 903 1461 897 1471 891 1475 C 884 1479 875 1481 864 1481 C 798 1481 740 1446 691 1376 C 641 1306 596 1199 555 1055 L 514 911 L 772 911 L 750 844 L 496 844 L 445 645 C 355 294 293 71 257 -23 C 221 -118 180 -197 133 -260 C 86 -323 29 -376 -37 -419 C -103 -461 -175 -483 -252 -483 C -318 -483 -369 -469 -405 -441 C -441 -413 -459 -373 -459 -319 C -459 -292 -449 -268 -429 -246 C -409 -224 -383 -213 -352 -213 C -320 -213 -294 -222 -273 -240 C -252 -258 -242 -281 -242 -311 C -242 -332 -246 -349 -254 -362 C -262 -375 -272 -390 -285 -408 C -283 -422 -277 -431 -268 -436 C -259 -441 -251 -444 -244 -444 C -172 -444 -111 -412 -61 -348 C -11 -284 38 -172 88 -14 C 137 144 198 371 271 667 L 315 844 L 98 844 L 119 911 L 336 911 L 358 993 C 388 1105 429 1200 481 1276 C 533 1352 592 1412 658 1456 C 724 1500 801 1522 889 1522 C 930 1522 967 1514 999 1498 C 1031 1482 1055 1461 1072 1434 C 1089 1407 1098 1378 1098 1348 Z" unicode="f" />
<glyph horiz-adv-x="987" d="M 1073 848 C 1073 819 1064 796 1046 778 C 1028 760 1005 752 979 752 C 951 752 931 760 920 776 C 908 792 903 827 903 879 C 870 879 844 875 826 869 C 808 862 791 854 776 844 L 776 831 C 788 813 798 791 806 765 C 813 739 817 715 817 692 C 817 629 799 571 765 518 C 731 465 684 423 624 393 C 564 363 500 348 434 348 L 305 348 C 277 334 259 323 250 315 C 240 306 233 296 227 286 C 221 276 219 263 219 248 C 219 226 224 209 236 197 C 248 185 267 175 293 168 C 319 161 367 154 438 147 L 494 142 L 666 121 C 723 111 771 86 809 45 C 847 4 866 -47 866 -109 C 866 -181 842 -245 794 -302 C 746 -358 678 -402 590 -433 C 502 -463 399 -479 283 -479 C 164 -479 72 -459 6 -419 C -59 -379 -92 -324 -92 -254 C -92 -187 -62 -130 -3 -82 C 55 -34 141 -3 254 12 L 254 27 C 189 39 143 57 115 80 C 87 103 74 132 74 168 C 74 209 90 246 123 280 C 155 313 208 341 281 365 L 281 375 C 231 397 192 427 165 464 C 138 501 125 542 125 588 C 125 652 142 712 178 767 C 213 822 261 865 323 897 C 385 928 452 944 524 944 C 594 944 670 927 754 894 C 768 888 779 885 786 885 L 835 909 C 880 932 928 944 979 944 C 1002 944 1023 935 1043 917 C 1063 899 1073 876 1073 848 Z M 645 745 C 645 793 632 832 608 864 C 584 895 552 911 512 911 C 473 911 438 897 408 870 C 378 842 353 800 334 744 C 314 688 305 630 305 571 C 305 521 316 476 340 438 C 363 400 393 381 430 381 C 468 381 502 396 534 426 C 566 456 592 502 613 563 C 634 623 645 684 645 745 Z M 702 -154 C 702 -128 694 -104 680 -80 C 666 -56 648 -42 627 -37 C 572 -24 517 -16 461 -12 C 405 -8 350 -6 297 -4 C 155 -39 84 -120 84 -246 C 84 -280 94 -313 114 -343 C 134 -373 162 -396 199 -413 C 236 -429 281 -438 334 -438 C 447 -438 537 -412 603 -362 C 669 -312 702 -242 702 -154 Z" unicode="g" />
<glyph horiz-adv-x="1135" d="M 1108 287 C 1059 167 1013 85 970 42 C 927 -1 877 -23 819 -23 C 753 -23 700 -8 660 20 C 620 48 600 87 600 137 C 600 179 613 236 641 307 C 735 557 786 693 793 717 C 799 740 803 760 803 776 C 803 811 794 837 778 854 C 762 870 736 879 700 879 C 588 879 485 794 391 625 L 197 0 L 16 0 L 410 1247 C 428 1310 438 1356 438 1384 C 438 1410 426 1428 403 1438 C 380 1448 344 1454 296 1456 L 236 1458 L 236 1499 L 682 1520 L 436 778 L 444 776 C 532 888 627 944 731 944 C 797 944 853 921 899 877 C 944 832 967 778 967 715 C 967 691 954 641 928 563 L 815 262 C 785 181 770 126 770 98 C 770 74 775 56 786 45 C 796 34 816 29 846 29 C 894 29 936 52 970 98 C 1004 144 1037 211 1071 299 L 1108 287 Z" unicode="h" />
<glyph horiz-adv-x="684" d="M 670 1337 C 670 1294 657 1259 633 1232 C 608 1205 577 1192 539 1192 C 505 1192 479 1203 462 1225 C 444 1247 436 1275 436 1307 C 436 1349 449 1383 475 1410 C 501 1436 535 1450 575 1450 C 602 1450 625 1439 643 1417 C 661 1395 670 1368 670 1337 Z M 645 287 C 595 165 549 83 505 41 C 461 -1 411 -23 354 -23 C 289 -23 237 -8 199 20 C 160 48 141 87 141 137 C 141 180 154 237 182 307 L 319 655 C 331 686 342 718 352 752 C 362 785 367 807 367 817 C 367 869 344 895 299 895 C 257 895 220 874 187 834 C 153 794 117 722 78 618 L 39 633 C 77 725 110 790 136 828 C 162 866 190 894 222 914 C 253 934 289 944 330 944 C 386 944 435 927 475 895 C 515 863 535 821 535 770 C 535 736 513 667 471 563 L 354 262 C 322 181 307 127 307 100 C 307 76 312 59 322 47 C 332 35 352 29 381 29 C 429 29 471 52 506 98 C 540 144 574 211 608 299 L 645 287 Z" unicode="i" />
<glyph horiz-adv-x="594" d="M 672 1337 C 672 1294 659 1259 635 1232 C 610 1205 579 1192 541 1192 C 507 1192 481 1203 464 1225 C 446 1247 438 1275 438 1307 C 438 1347 451 1380 477 1408 C 503 1436 536 1450 578 1450 C 604 1450 627 1439 645 1417 C 663 1395 672 1368 672 1337 Z M 539 772 C 539 752 533 717 521 665 C 509 613 485 523 451 395 C 417 267 383 149 351 42 C 318 -65 277 -156 227 -230 C 177 -304 116 -365 46 -412 C -23 -459 -100 -483 -184 -483 C -249 -483 -299 -468 -335 -440 C -371 -411 -389 -369 -389 -313 C -389 -289 -378 -266 -358 -244 C -337 -222 -311 -211 -281 -211 C -207 -211 -170 -245 -170 -313 C -170 -337 -183 -367 -209 -403 C -209 -430 -198 -444 -178 -444 C -105 -444 -43 -411 6 -347 C 56 -283 106 -171 156 -12 C 205 150 251 314 294 478 C 337 642 361 739 366 769 C 370 799 372 815 371 817 C 371 869 349 895 307 895 C 265 895 227 874 193 832 C 159 790 124 718 86 618 L 47 633 C 82 721 113 784 139 823 C 165 862 195 892 227 913 C 259 933 296 944 338 944 C 395 944 443 928 481 896 C 519 864 539 822 539 772 Z" unicode="j" />
<glyph horiz-adv-x="1120" d="M 1120 799 C 1120 766 1108 736 1086 710 C 1064 683 1036 670 1004 670 C 982 670 961 676 943 689 C 924 702 915 718 915 737 C 915 765 918 785 926 797 C 933 809 941 819 950 826 C 959 832 968 838 976 844 C 984 850 990 860 993 874 C 987 889 980 899 972 905 C 964 910 950 913 932 913 C 910 913 891 902 874 882 C 857 861 833 820 803 758 C 747 646 670 575 571 545 C 623 525 659 507 679 491 C 699 475 714 457 726 435 C 737 413 743 386 743 354 C 743 317 737 270 726 213 C 714 155 709 118 709 102 C 709 76 714 58 724 46 C 734 34 752 29 778 29 C 822 29 862 49 897 89 C 932 129 969 199 1008 299 L 1047 287 C 1000 171 954 91 909 45 C 863 0 811 -23 752 -23 C 680 -23 625 -9 588 18 C 550 46 532 85 532 137 C 532 167 539 215 553 281 C 566 345 573 385 573 401 C 573 443 559 473 532 493 C 504 512 469 522 426 522 L 362 518 L 197 0 L 16 0 L 412 1247 C 430 1305 440 1350 440 1384 C 440 1410 428 1428 405 1438 C 381 1448 346 1454 298 1456 L 238 1458 L 238 1499 L 684 1520 L 375 561 L 417 559 L 465 559 C 515 559 560 574 598 605 C 636 635 673 684 709 752 C 744 818 780 867 818 898 C 855 928 899 944 950 944 C 1007 944 1050 932 1078 909 C 1106 886 1120 849 1120 799 Z" unicode="k" />
<glyph horiz-adv-x="602" d="M 678 1520 L 274 258 C 267 238 259 211 250 177 C 240 142 236 117 236 102 C 236 78 241 59 251 47 C 261 35 280 29 307 29 C 356 29 398 52 433 98 C 468 144 503 211 537 299 L 573 287 C 528 172 483 92 439 46 C 394 0 341 -23 281 -23 C 215 -23 164 -8 127 20 C 90 48 72 87 72 135 C 72 168 84 225 109 307 L 406 1247 C 424 1305 434 1350 434 1384 C 434 1409 422 1427 399 1437 C 375 1447 339 1453 291 1456 L 229 1458 L 229 1499 L 678 1520 Z" unicode="l" />
<glyph horiz-adv-x="1759" d="M 1735 287 C 1699 200 1668 137 1641 97 C 1613 57 1583 27 1551 7 C 1519 -13 1482 -23 1442 -23 C 1376 -23 1323 -8 1283 20 C 1243 49 1223 88 1223 137 C 1223 162 1228 192 1239 226 C 1250 260 1300 393 1389 627 C 1397 648 1405 674 1414 706 C 1422 738 1427 762 1427 780 C 1427 813 1419 838 1403 854 C 1387 870 1359 879 1321 879 C 1234 879 1147 814 1061 684 L 840 0 L 651 0 L 868 655 C 886 701 895 743 895 780 C 895 813 886 838 869 854 C 852 870 824 879 786 879 C 738 879 686 854 632 805 C 577 755 532 695 498 625 L 293 0 L 106 0 L 328 655 C 338 689 347 723 355 757 C 363 791 367 813 367 821 C 367 851 362 870 352 880 C 342 890 328 895 309 895 C 267 895 229 874 195 832 C 161 790 126 718 88 618 L 47 633 C 84 723 116 787 143 826 C 169 864 199 894 231 914 C 263 934 298 944 338 944 C 463 944 526 882 526 758 L 535 756 C 578 816 624 863 674 895 C 724 927 774 944 825 944 C 891 944 945 925 988 889 C 1030 852 1053 808 1057 756 L 1065 756 C 1161 881 1256 944 1352 944 C 1420 944 1477 921 1523 876 C 1569 831 1593 777 1593 715 C 1593 702 1589 680 1581 648 C 1573 616 1564 587 1554 563 L 1440 262 C 1410 184 1395 130 1395 102 C 1395 78 1400 59 1412 47 C 1423 35 1442 29 1470 29 C 1512 29 1549 47 1583 85 C 1616 122 1654 193 1696 299 L 1735 287 Z" unicode="m" />
<glyph horiz-adv-x="1227" d="M 1202 287 C 1166 200 1135 137 1108 97 C 1080 57 1050 27 1018 7 C 986 -13 949 -23 909 -23 C 843 -23 790 -8 750 20 C 710 49 690 88 690 137 C 690 161 694 187 702 214 C 710 241 721 272 735 307 L 856 627 C 882 693 895 744 895 780 C 895 814 887 839 872 855 C 857 871 831 879 795 879 C 745 879 693 856 639 810 C 585 764 538 703 498 625 L 293 0 L 106 0 L 328 655 C 338 689 347 723 355 757 C 363 791 367 813 367 821 C 367 850 362 870 352 880 C 342 890 328 895 309 895 C 267 895 229 874 195 832 C 161 790 126 718 88 618 L 47 633 C 84 723 116 787 143 826 C 169 864 199 894 231 914 C 263 934 298 944 338 944 C 401 944 448 927 479 895 C 510 863 526 817 526 758 L 535 756 C 626 881 723 944 825 944 C 891 944 947 921 993 877 C 1038 832 1061 778 1061 715 C 1061 702 1057 680 1049 648 C 1041 616 1032 587 1022 563 L 907 262 C 877 181 862 128 862 102 C 862 78 867 59 879 47 C 890 35 910 29 938 29 C 980 29 1019 49 1054 90 C 1088 130 1125 200 1163 299 L 1202 287 Z" unicode="n" />
<glyph horiz-adv-x="985" d="M 932 584 C 932 516 915 442 883 363 C 851 283 809 214 757 155 C 705 96 645 51 577 19 C 509 -13 436 -29 358 -29 C 302 -29 251 -14 205 14 C 159 42 122 84 95 138 C 68 192 55 256 55 330 C 55 398 71 471 103 549 C 135 627 176 696 228 755 C 279 814 339 860 408 894 C 477 927 551 944 629 944 C 684 944 735 929 781 900 C 827 871 864 829 891 775 C 918 721 932 657 932 584 Z M 739 629 C 739 715 725 784 699 834 C 673 884 639 909 598 909 C 538 909 482 880 430 824 C 378 768 334 689 300 587 C 265 485 248 386 248 291 C 248 196 261 125 288 79 C 315 33 349 10 389 10 C 451 10 508 37 560 91 C 612 145 654 223 688 325 C 722 426 739 527 739 629 Z" unicode="o" />
<glyph horiz-adv-x="1155" d="M 1112 623 C 1112 555 1095 480 1061 397 C 1027 313 983 240 931 176 C 878 112 818 63 750 27 C 682 -9 611 -27 537 -27 C 493 -27 453 -14 415 9 C 377 33 353 65 342 104 L 334 104 L 231 -227 C 212 -287 203 -333 203 -365 C 203 -390 214 -408 238 -418 C 261 -428 298 -433 348 -435 L 408 -438 L 397 -479 L -180 -479 L -170 -440 C -133 -440 -104 -437 -82 -432 C -60 -426 -42 -415 -28 -399 C -14 -383 -2 -364 8 -344 C 18 -323 33 -283 53 -223 L 330 655 C 353 739 365 789 365 807 C 365 841 360 864 351 876 C 342 888 328 895 309 895 C 267 895 229 872 195 828 C 160 784 124 714 88 618 L 47 633 C 84 723 116 787 143 826 C 169 864 199 894 231 914 C 263 934 298 944 338 944 C 393 944 436 927 468 895 C 500 862 516 816 516 756 L 524 754 C 576 820 626 868 674 898 C 721 928 770 944 821 944 C 915 944 987 916 1037 860 C 1087 804 1112 725 1112 623 Z M 920 664 C 920 732 909 784 888 820 C 867 856 834 874 788 874 C 741 874 694 857 648 825 C 602 792 558 744 516 680 L 358 174 C 372 117 395 77 425 53 C 455 29 495 18 545 18 C 603 18 661 48 717 109 C 773 169 821 254 861 363 C 900 471 920 572 920 664 Z" unicode="p" />
<glyph horiz-adv-x="1061" d="M 1051 932 L 682 -227 C 662 -291 653 -337 653 -365 C 653 -379 656 -391 663 -400 C 670 -409 683 -417 703 -423 C 723 -429 769 -434 842 -438 L 829 -479 L 244 -479 L 256 -440 C 343 -440 400 -425 426 -395 C 438 -382 449 -364 461 -340 C 472 -316 482 -292 490 -266 C 498 -240 538 -111 612 119 L 604 121 C 570 77 528 42 478 14 C 428 -13 380 -27 334 -27 C 241 -27 170 0 121 55 C 71 110 47 190 47 295 C 47 361 64 436 98 519 C 132 602 175 676 229 740 C 282 804 342 854 410 890 C 477 926 548 944 623 944 C 669 944 711 931 749 907 C 787 882 812 851 825 813 L 834 813 L 915 932 L 1051 932 Z M 807 741 C 789 799 765 840 735 864 C 704 888 664 901 616 901 C 556 901 498 870 442 809 C 386 747 338 662 298 554 C 258 446 238 345 238 252 C 238 182 247 130 267 95 C 287 60 319 43 365 43 C 416 43 466 60 516 94 C 566 128 609 176 647 238 L 807 741 Z" unicode="q" />
<glyph horiz-adv-x="854" d="M 913 819 C 913 781 903 750 883 726 C 863 702 838 690 807 690 C 771 690 745 698 730 715 C 714 732 707 752 707 776 C 707 798 720 823 747 850 C 751 854 754 859 754 864 C 754 873 753 880 751 884 C 749 888 739 891 723 891 C 669 891 594 803 498 627 L 307 0 L 123 0 L 328 655 C 338 690 347 724 355 756 C 363 788 367 809 367 821 C 367 851 362 870 352 880 C 342 890 328 895 309 895 C 269 895 234 876 202 838 C 170 800 132 727 88 618 L 47 633 C 84 723 116 787 143 826 C 169 864 199 894 231 914 C 263 934 298 944 338 944 C 391 944 433 925 465 889 C 496 852 512 801 512 737 L 520 735 C 564 805 597 850 619 872 C 641 894 665 911 691 924 C 717 937 746 944 780 944 C 819 944 851 932 876 908 C 900 884 913 855 913 819 Z" unicode="r" />
<glyph horiz-adv-x="788" d="M 750 729 C 750 691 741 660 724 636 C 706 612 683 600 653 600 C 623 600 599 607 581 622 C 562 636 553 657 553 684 C 553 704 558 722 569 736 C 580 750 593 761 607 771 C 621 780 634 788 646 795 C 658 801 666 807 668 813 C 662 841 644 863 612 879 C 580 895 541 903 494 903 C 467 903 440 895 414 880 C 388 865 367 845 352 820 C 337 795 330 766 330 733 C 330 695 342 660 368 629 C 394 597 437 561 499 521 C 556 482 598 441 626 399 C 654 357 668 310 668 260 C 668 212 651 166 618 121 C 584 75 540 39 485 12 C 430 -15 373 -29 315 -29 C 252 -29 198 -18 153 3 C 107 24 72 53 47 89 C 22 125 10 165 10 209 C 10 247 21 280 45 308 C 69 336 95 350 123 350 C 155 350 181 342 201 326 C 221 310 231 288 231 260 C 231 232 222 210 206 194 C 190 178 168 170 141 170 C 122 170 108 169 99 167 C 90 165 86 156 86 141 C 86 109 107 79 150 53 C 193 27 241 14 293 14 C 359 14 414 28 456 57 C 498 86 520 126 520 176 C 520 220 506 261 480 297 C 453 333 409 372 349 413 C 290 451 247 491 219 531 C 191 571 178 616 178 666 C 178 709 193 753 224 797 C 255 841 295 876 345 903 C 394 930 444 944 496 944 C 554 944 602 933 638 913 C 674 892 702 865 721 833 C 740 800 750 765 750 729 Z" unicode="s" />
<glyph horiz-adv-x="682" d="M 748 911 L 725 844 L 465 844 L 400 625 C 337 420 301 298 293 258 L 280 212 C 262 155 254 118 254 102 C 254 76 260 58 272 46 C 284 34 303 29 330 29 C 379 29 423 52 461 100 C 499 148 535 215 569 303 L 608 291 C 564 181 518 102 468 52 C 418 2 363 -23 303 -23 C 237 -23 185 -8 147 20 C 109 48 90 87 90 135 C 90 164 96 202 109 248 C 122 294 142 363 169 454 C 195 545 217 619 235 675 C 252 731 269 787 287 844 L 90 844 L 113 911 L 311 911 L 401 1229 L 580 1229 L 485 911 L 748 911 Z" unicode="t" />
<glyph horiz-adv-x="1214" d="M 1192 287 C 1156 200 1125 137 1098 97 C 1070 57 1040 27 1008 7 C 976 -13 939 -23 899 -23 C 832 -23 783 -7 752 24 C 720 55 705 103 705 168 L 696 170 C 652 108 603 59 551 25 C 498 -9 447 -27 397 -27 C 331 -27 275 -4 229 41 C 183 86 160 140 160 203 C 160 217 163 239 171 268 C 179 296 189 325 201 354 L 317 655 C 345 725 360 781 360 821 C 360 851 354 870 344 880 C 333 890 318 895 299 895 C 257 895 220 874 187 834 C 153 794 117 722 78 618 L 41 633 C 76 720 107 783 133 823 C 159 862 188 891 220 911 C 251 930 287 940 328 940 C 385 940 433 925 473 896 C 512 866 532 828 532 780 C 532 737 517 680 489 610 L 365 291 C 339 226 326 177 326 143 C 326 107 333 80 349 64 C 364 47 390 39 426 39 C 476 39 526 58 578 98 C 630 138 675 191 713 258 L 920 913 L 1108 913 L 893 262 C 885 237 877 209 870 179 C 863 148 860 127 860 115 C 860 57 882 29 928 29 C 970 29 1007 47 1039 85 C 1071 123 1109 194 1151 299 L 1192 287 Z" unicode="u" />
<glyph horiz-adv-x="1069" d="M 1038 780 C 1038 644 1011 512 958 386 C 904 260 831 159 739 84 C 646 8 546 -29 440 -29 C 360 -29 295 -3 245 47 C 195 98 170 164 170 244 C 170 330 197 417 251 506 C 305 594 400 699 537 821 L 524 831 C 417 765 330 733 264 733 C 210 733 171 740 147 756 L 78 563 L 39 575 L 164 940 L 193 940 C 206 911 230 887 265 868 C 299 849 337 840 379 840 C 427 840 472 848 515 864 C 558 880 603 908 649 950 L 682 920 C 582 822 503 712 445 591 C 387 469 358 353 358 242 C 358 184 372 138 401 104 C 429 70 469 53 520 53 C 582 53 648 78 716 130 C 784 181 837 245 874 322 C 911 398 930 481 930 569 C 930 628 912 679 877 721 C 856 745 842 766 834 785 C 826 803 823 824 823 848 C 823 874 833 897 854 916 C 875 934 900 944 930 944 C 966 944 993 931 1011 907 C 1029 882 1038 840 1038 780 Z" unicode="v" />
<glyph horiz-adv-x="1485" d="M 1450 768 C 1450 630 1423 498 1370 374 C 1316 249 1247 151 1162 79 C 1076 7 987 -29 893 -29 C 847 -29 805 -14 767 14 C 729 43 698 81 676 129 C 628 80 580 42 532 14 C 483 -13 442 -27 408 -27 C 333 -27 274 -2 232 46 C 189 94 168 162 168 250 C 168 335 194 421 246 509 C 298 596 390 700 522 821 L 512 831 C 454 796 407 771 369 756 C 331 740 296 733 262 733 C 210 733 171 740 145 756 L 82 573 L 43 586 L 164 940 L 193 940 C 206 911 230 887 266 868 C 302 849 340 840 381 840 C 430 840 473 848 510 864 C 546 880 587 909 633 950 L 664 920 C 562 820 484 711 432 595 C 380 479 354 360 354 240 C 354 178 364 130 384 97 C 404 63 433 47 471 47 C 497 47 528 59 564 83 C 599 107 630 136 657 170 C 645 232 639 287 639 336 C 639 402 660 485 702 584 C 744 683 793 768 850 838 C 907 908 957 944 999 944 C 1056 944 1085 889 1085 780 C 1085 718 1059 639 1008 541 C 956 443 891 346 811 248 C 822 192 843 149 875 117 C 906 85 943 70 987 70 C 1046 70 1104 93 1162 141 C 1219 188 1265 250 1300 327 C 1334 403 1352 483 1352 565 C 1352 622 1334 671 1298 711 C 1278 731 1264 752 1256 774 C 1247 795 1243 820 1243 848 C 1243 876 1252 899 1270 917 C 1288 935 1312 944 1341 944 C 1378 944 1405 931 1423 905 C 1441 879 1450 834 1450 768 Z M 1032 754 C 1032 777 1024 795 1008 807 C 992 819 975 825 956 825 C 928 825 905 820 887 810 C 869 800 853 779 839 746 C 825 713 814 670 807 617 C 800 563 797 487 797 389 L 801 295 C 868 379 923 464 967 550 C 1010 636 1032 704 1032 754 Z" unicode="w" />
<glyph horiz-adv-x="1090" d="M 1128 795 C 1128 754 1117 714 1095 674 C 1073 634 1035 591 981 543 L 958 565 C 974 593 988 634 1001 688 C 1013 741 1020 787 1020 827 C 1020 853 1017 871 1012 883 C 1007 895 993 901 971 901 C 927 901 885 880 844 839 C 802 798 763 736 725 653 C 687 569 656 479 633 381 C 609 283 598 221 600 195 C 600 151 605 118 615 96 C 625 73 638 57 653 47 C 668 37 691 33 723 33 C 824 33 909 122 979 301 L 1016 289 C 934 79 827 -25 696 -25 C 641 -25 599 -19 569 -7 C 539 5 515 22 497 44 C 478 66 464 94 454 128 C 444 162 440 202 440 248 L 428 248 C 353 66 253 -25 127 -25 C 17 -25 -37 21 -37 115 C -37 205 21 301 137 403 L 164 379 C 125 313 106 240 106 158 C 106 110 107 79 110 67 C 113 54 118 44 124 38 C 130 32 138 29 150 29 C 207 29 262 61 314 127 C 366 192 415 297 463 442 C 511 587 535 690 535 752 C 535 797 527 832 511 857 C 495 882 469 895 432 895 C 382 895 336 870 293 822 C 250 774 212 706 178 618 L 139 633 C 185 745 234 824 286 872 C 338 920 394 944 455 944 C 511 944 554 935 586 919 C 617 902 642 876 660 840 C 678 804 688 755 688 694 L 698 694 C 725 765 765 824 817 872 C 869 920 923 944 979 944 C 1027 944 1064 931 1090 905 C 1115 879 1128 843 1128 795 Z" unicode="x" />
<glyph horiz-adv-x="1102" d="M 1106 913 L 891 217 C 819 -11 722 -186 602 -307 C 481 -428 340 -489 180 -489 C 117 -489 66 -480 28 -462 C -10 -444 -40 -422 -60 -394 C -80 -366 -90 -333 -90 -297 C -90 -252 -78 -217 -54 -193 C -30 -168 2 -156 45 -156 C 71 -156 93 -164 111 -182 C 129 -200 139 -220 139 -242 C 139 -278 132 -304 119 -320 C 105 -335 89 -343 69 -345 C 47 -346 33 -349 25 -353 C 17 -357 12 -366 10 -379 C 11 -398 18 -413 31 -423 C 43 -433 59 -441 77 -445 C 95 -449 125 -451 168 -451 C 274 -451 373 -399 465 -295 C 556 -191 633 -43 696 150 L 688 152 C 644 94 597 50 547 20 C 497 -9 447 -25 397 -25 C 331 -25 275 -2 229 43 C 183 88 160 142 160 205 C 160 221 164 244 172 274 C 180 303 189 331 201 358 C 255 495 295 598 322 667 C 348 736 362 789 362 825 C 362 855 357 874 347 882 C 337 890 322 895 303 895 C 261 895 223 874 189 834 C 155 793 119 721 80 618 L 43 633 C 78 720 109 783 135 823 C 161 863 191 893 223 913 C 255 933 292 944 332 944 C 389 944 437 929 476 900 C 515 870 535 832 535 784 C 535 743 519 685 489 610 L 362 295 C 336 227 324 177 324 145 C 324 111 331 85 347 68 C 362 51 388 43 426 43 C 473 43 522 59 572 93 C 622 126 669 173 713 233 L 924 913 L 1106 913 Z" unicode="y" />
<glyph horiz-adv-x="856" d="M 920 881 C 920 857 914 836 903 817 C 891 798 870 775 838 747 C 806 719 697 631 511 484 C 324 336 208 245 162 209 L 164 197 C 198 192 254 179 330 157 C 392 138 443 129 485 129 C 611 129 674 158 674 217 C 674 246 668 268 658 283 C 648 298 626 309 592 317 L 604 354 C 713 331 768 264 768 154 C 768 109 746 68 704 31 C 662 -6 615 -25 563 -25 C 540 -25 511 -17 477 -2 C 442 13 400 36 351 66 C 295 98 250 122 216 136 C 182 150 154 157 131 158 C 116 153 105 146 99 138 C 92 130 89 117 89 99 L 90 53 C 90 0 61 -27 4 -27 C -11 -27 -25 -20 -37 -7 C -49 6 -55 23 -55 43 C -55 63 -46 84 -30 106 C -13 127 13 153 49 184 C 85 215 158 276 270 367 C 381 458 482 537 572 605 C 662 673 710 707 715 709 L 711 719 C 657 721 590 732 510 752 C 435 770 385 780 360 780 C 316 780 283 774 260 764 C 236 754 225 732 225 698 C 225 672 233 649 250 631 C 267 613 297 597 340 584 L 322 551 C 186 596 119 661 119 745 C 119 797 138 842 176 881 C 214 920 259 940 309 940 C 372 940 442 909 518 849 C 557 817 591 794 621 780 C 650 765 678 758 705 758 C 730 758 748 762 760 771 C 772 779 778 793 778 813 L 778 850 C 778 911 800 942 844 942 C 894 942 920 921 920 881 Z" unicode="z" />
<glyph horiz-adv-x="881" d="M 1049 1524 L 1036 1477 C 950 1471 885 1456 840 1432 C 794 1408 760 1371 736 1321 C 712 1271 697 1202 690 1114 C 681 1020 660 939 626 872 C 592 804 542 750 477 709 C 411 667 322 636 209 614 L 197 563 C 277 545 336 527 373 507 C 410 487 438 461 456 431 C 474 400 483 361 483 315 C 483 272 477 230 466 190 C 454 150 442 111 429 73 C 415 35 403 -1 392 -37 C 380 -73 375 -107 375 -139 C 375 -195 390 -235 421 -257 C 452 -279 510 -293 594 -299 L 582 -346 C 444 -346 346 -329 286 -297 C 226 -264 197 -207 197 -127 C 197 -81 203 -38 217 4 C 230 46 245 86 261 126 C 277 165 292 203 306 241 C 319 278 326 315 326 352 C 326 392 317 424 300 448 C 283 472 257 491 222 505 C 187 518 130 528 51 535 L 78 643 C 194 654 278 672 329 698 C 379 723 417 761 442 813 C 466 865 482 938 489 1034 C 497 1158 520 1254 560 1324 C 599 1394 657 1444 734 1476 C 811 1508 916 1524 1049 1524 Z" unicode="{" />
<glyph horiz-adv-x="696" d="M 440 -424 L 342 -424 L 342 1528 L 440 1528 L 440 -424 Z" unicode="|" />
<glyph horiz-adv-x="881" d="M 885 643 L 858 535 C 740 524 656 506 606 480 C 556 454 518 416 494 365 C 469 313 453 239 446 143 C 437 18 413 -78 375 -147 C 336 -216 278 -266 200 -298 C 122 -330 18 -346 -113 -346 L -100 -299 C -13 -293 52 -278 96 -254 C 140 -230 174 -194 198 -145 C 222 -95 238 -26 246 63 C 255 163 277 247 313 313 C 349 379 398 431 461 471 C 524 511 613 541 727 563 L 739 614 C 658 631 599 650 562 670 C 525 690 498 715 480 746 C 462 776 453 815 453 862 C 453 904 458 946 470 987 C 481 1027 493 1067 507 1105 C 520 1143 532 1179 544 1215 C 555 1251 561 1285 561 1317 C 561 1373 546 1412 516 1434 C 486 1456 428 1471 342 1477 L 354 1524 C 492 1524 591 1507 650 1474 C 709 1441 739 1385 739 1305 C 739 1259 732 1215 719 1173 C 705 1131 690 1091 674 1052 C 658 1012 643 974 630 936 C 616 898 610 861 610 825 C 610 765 629 722 669 695 C 709 667 781 650 885 643 Z" unicode="}" />
<glyph horiz-adv-x="1106" d="M 991 635 C 973 567 936 507 880 456 C 824 404 767 379 709 379 C 667 379 631 383 599 393 C 567 402 537 412 509 424 C 481 435 455 445 430 455 C 405 464 380 469 354 469 C 304 469 265 461 236 445 C 206 429 179 398 154 352 L 113 367 C 131 434 168 493 223 545 C 278 597 335 623 395 623 C 433 623 469 618 501 609 C 533 599 563 589 591 577 C 619 565 646 555 672 546 C 698 536 724 532 750 532 C 799 532 838 539 868 555 C 897 571 924 602 950 649 L 991 635 Z" unicode="~" />
<glyph horiz-adv-x="233" d="" unicode="" />
<glyph horiz-adv-x="748" d="M 700 1292 C 700 1254 687 1224 662 1200 C 636 1176 607 1165 573 1165 C 537 1165 507 1177 483 1202 C 458 1226 446 1256 446 1292 C 446 1327 458 1357 482 1381 C 506 1405 537 1417 573 1417 C 607 1417 637 1405 662 1382 C 687 1359 700 1329 700 1292 Z M 522 961 C 493 805 465 626 439 424 C 415 239 399 135 393 111 C 383 71 365 37 339 11 C 313 -15 282 -29 244 -29 C 210 -29 184 -18 166 2 C 148 22 139 50 139 86 C 139 107 148 142 166 190 C 184 238 208 299 238 373 C 268 447 304 533 344 633 C 384 733 427 845 473 971 L 522 961 Z" unicode="" />
<glyph horiz-adv-x="932" d="M 909 920 C 909 880 899 847 881 821 C 862 795 837 782 805 782 C 781 782 761 789 743 803 C 725 817 717 841 717 874 C 717 926 745 966 801 995 C 793 1033 765 1057 715 1065 L 397 213 C 416 203 440 199 469 199 C 530 199 588 220 643 262 C 697 304 751 375 805 473 L 846 455 C 730 239 593 131 436 131 C 412 131 391 132 371 135 L 231 -238 L 186 -223 L 322 145 C 257 165 208 201 175 254 C 141 307 125 374 125 455 C 125 520 140 593 172 674 C 204 755 245 828 296 894 C 347 959 405 1010 471 1047 C 536 1084 604 1103 674 1104 L 772 1372 L 821 1356 L 727 1100 C 778 1091 821 1069 856 1035 C 891 1001 909 962 909 920 Z M 662 1069 C 607 1069 552 1034 498 964 C 443 894 399 806 365 701 C 331 595 315 499 315 412 C 315 347 329 292 358 246 L 662 1069 Z" unicode="" />
<glyph horiz-adv-x="1618" d="M 1561 1090 C 1561 986 1527 901 1460 833 C 1392 765 1308 731 1206 731 C 1146 731 1097 750 1058 788 C 1018 826 999 875 999 934 C 999 1005 1019 1072 1059 1135 L 1102 1126 C 1069 1069 1053 1010 1053 950 C 1053 900 1065 861 1091 831 C 1116 801 1154 786 1206 786 C 1271 786 1326 816 1371 876 C 1415 936 1438 1007 1438 1090 C 1438 1168 1419 1229 1382 1272 C 1345 1315 1293 1337 1225 1337 C 1107 1337 1014 1290 946 1197 C 878 1104 829 961 799 768 L 770 606 L 1118 606 L 1118 561 L 764 561 C 750 504 733 450 713 399 L 1079 399 L 1079 356 L 696 356 C 672 286 629 212 567 135 C 617 119 664 101 707 81 C 749 61 790 42 830 24 C 870 6 909 -9 947 -22 C 985 -34 1026 -41 1069 -41 C 1116 -41 1157 -29 1192 -7 C 1227 15 1258 46 1284 86 C 1310 126 1338 186 1366 266 L 1415 252 C 1381 112 1317 7 1225 -64 C 1132 -136 1015 -172 874 -172 C 830 -172 784 -163 736 -147 C 688 -130 631 -103 566 -66 L 463 -12 C 419 -65 366 -108 303 -140 C 239 -172 175 -188 111 -188 C 51 -188 5 -175 -28 -151 C -61 -127 -78 -93 -78 -49 C -78 16 -41 69 33 110 C 107 151 199 172 309 172 C 376 172 438 166 494 154 C 505 186 513 237 518 307 L 522 356 L 227 356 L 227 399 L 524 399 L 545 561 L 264 561 L 264 606 L 549 606 C 576 762 622 899 686 1018 C 750 1136 829 1227 921 1291 C 1013 1354 1113 1386 1221 1386 C 1327 1386 1410 1359 1470 1307 C 1530 1255 1561 1182 1561 1090 Z M 426 6 C 328 50 235 72 147 72 C 94 72 52 60 21 37 C -9 13 -25 -16 -25 -53 C -25 -75 -12 -94 13 -110 C 38 -125 71 -133 111 -133 C 171 -133 230 -120 287 -94 C 344 -68 390 -35 426 6 Z" unicode="" />
<glyph horiz-adv-x="1280" d="M 1104 391 L 987 285 L 788 500 C 740 468 685 453 621 453 C 559 453 504 468 457 500 L 256 285 L 139 391 L 348 608 C 328 634 315 660 309 686 C 302 712 299 743 299 780 C 299 848 315 906 348 952 L 139 1167 L 256 1276 L 457 1061 C 504 1092 559 1108 621 1108 C 685 1108 740 1092 788 1061 L 991 1276 L 1108 1155 L 899 952 C 918 924 931 897 938 871 C 944 844 948 814 948 780 C 948 716 930 658 895 608 L 1104 391 Z M 797 780 C 797 833 780 876 746 910 C 712 944 671 961 621 961 C 570 961 529 944 497 910 C 465 876 449 833 449 780 C 449 726 465 684 499 652 C 532 620 573 604 621 604 C 673 604 716 620 748 652 C 780 684 797 726 797 780 Z" unicode="" />
<glyph horiz-adv-x="1227" d="M 1401 1243 L 1389 1198 C 1375 1196 1356 1192 1331 1184 C 1306 1176 1288 1170 1278 1165 C 1195 1125 1024 947 766 629 C 746 605 726 577 707 543 L 1020 543 L 1010 496 L 682 496 C 676 482 670 469 666 457 C 661 445 651 408 635 348 L 967 348 L 956 301 L 621 301 L 586 172 C 582 154 580 140 580 131 C 580 111 588 95 604 84 C 620 73 645 64 681 56 C 716 48 744 44 764 43 L 754 0 L 141 0 L 152 43 C 222 48 270 54 295 60 C 320 66 340 77 356 95 C 372 112 384 135 392 163 C 400 191 414 237 432 301 L 111 301 L 121 348 L 444 348 L 485 496 L 164 496 L 174 543 L 489 543 C 489 602 446 767 362 1038 C 350 1075 337 1105 322 1127 C 306 1149 288 1166 267 1177 C 245 1187 215 1194 176 1198 L 188 1243 L 760 1243 L 748 1198 C 616 1189 551 1169 551 1139 C 551 1123 563 1066 588 968 C 613 870 643 760 678 639 C 811 787 912 903 980 986 C 1048 1069 1083 1116 1083 1128 C 1083 1147 1068 1163 1038 1175 C 1008 1187 970 1194 922 1198 L 934 1243 L 1401 1243 Z" unicode="" />
<glyph horiz-adv-x="696" d="M 440 745 L 342 745 L 342 1528 L 440 1528 L 440 745 Z M 440 -424 L 342 -424 L 342 379 L 440 379 L 440 -424 Z" unicode="" />
<glyph horiz-adv-x="1126" d="M 1106 1323 C 1106 1277 1091 1237 1063 1204 C 1035 1171 1000 1155 958 1155 C 931 1155 908 1162 889 1177 C 869 1191 860 1211 860 1237 C 860 1260 865 1279 875 1293 C 885 1307 901 1318 922 1327 C 946 1337 963 1346 971 1356 C 979 1366 983 1379 983 1395 C 983 1439 941 1462 858 1462 C 798 1462 748 1438 707 1390 C 665 1342 645 1285 645 1219 C 645 1184 650 1150 661 1116 C 672 1082 688 1043 710 999 C 731 954 758 904 792 848 C 882 694 937 594 957 547 C 977 499 987 455 987 414 C 987 322 956 248 896 192 C 836 136 750 104 639 96 C 663 36 676 -22 676 -78 C 676 -148 659 -212 626 -272 C 593 -332 548 -379 490 -413 C 432 -447 369 -465 301 -465 C 253 -465 211 -456 175 -438 C 138 -420 109 -395 88 -364 C 67 -332 57 -299 57 -264 C 57 -218 71 -180 100 -150 C 129 -119 164 -104 205 -104 C 231 -104 254 -111 274 -126 C 293 -141 303 -161 303 -186 C 303 -225 283 -253 245 -271 C 222 -281 206 -291 198 -301 C 190 -311 186 -324 186 -340 C 186 -392 227 -418 309 -418 C 367 -418 417 -390 459 -335 C 501 -279 522 -215 522 -141 C 522 -105 518 -73 511 -47 C 503 -21 488 15 466 62 C 444 109 415 161 379 218 C 329 296 289 363 259 419 C 229 475 209 518 200 546 C 190 574 186 609 186 651 C 186 742 218 818 282 878 C 346 938 428 971 530 977 C 508 1027 498 1079 498 1133 C 498 1198 514 1260 547 1319 C 580 1377 625 1424 683 1459 C 741 1493 804 1511 874 1511 C 920 1511 961 1502 996 1485 C 1030 1468 1057 1445 1077 1416 C 1096 1386 1106 1355 1106 1323 Z M 836 336 C 836 360 832 382 826 404 C 820 426 805 459 782 504 C 732 594 687 675 646 746 C 605 817 571 881 545 938 C 477 932 425 912 388 876 C 350 840 332 793 332 735 C 332 697 341 655 360 609 C 379 563 433 469 521 326 C 568 247 603 183 625 133 C 692 146 744 170 781 205 C 817 240 836 284 836 336 Z" unicode="" />
<glyph horiz-adv-x="1024" d="M 1061 1339 C 1061 1300 1048 1267 1024 1241 C 1000 1215 968 1202 930 1202 C 898 1202 873 1212 854 1232 C 834 1252 825 1277 825 1309 C 825 1347 838 1379 866 1405 C 893 1431 927 1444 967 1444 C 992 1444 1014 1433 1033 1412 C 1051 1391 1061 1367 1061 1339 Z M 625 1339 C 625 1301 612 1268 587 1242 C 562 1215 530 1202 492 1202 C 462 1202 437 1211 418 1231 C 398 1250 389 1276 389 1309 C 389 1347 402 1379 429 1405 C 455 1431 488 1444 528 1444 C 554 1444 576 1433 596 1412 C 615 1391 625 1367 625 1339 Z" unicode="" />
<glyph horiz-adv-x="1946" d="M 1841 514 C 1841 353 1800 204 1720 68 C 1640 -67 1531 -175 1395 -253 C 1259 -331 1110 -371 950 -371 C 786 -371 635 -330 497 -250 C 359 -169 251 -61 173 74 C 94 209 55 356 55 514 C 55 669 94 815 173 951 C 252 1087 361 1195 499 1275 C 637 1355 788 1395 950 1395 C 1111 1395 1260 1355 1397 1276 C 1533 1197 1641 1090 1721 955 C 1801 819 1841 672 1841 514 Z M 1753 514 C 1753 659 1717 794 1646 919 C 1574 1044 1477 1143 1353 1215 C 1229 1287 1095 1323 950 1323 C 804 1323 670 1287 546 1216 C 422 1144 323 1046 251 922 C 179 797 143 661 143 514 C 143 366 179 228 251 102 C 323 -23 422 -122 546 -194 C 670 -265 805 -301 950 -301 C 1095 -301 1230 -265 1354 -193 C 1478 -121 1575 -21 1646 105 C 1717 231 1753 368 1753 514 Z M 1354 313 C 1311 218 1256 147 1190 99 C 1123 51 1047 27 963 27 C 815 27 696 70 607 156 C 517 242 473 359 473 506 C 473 598 495 683 540 760 C 584 837 646 897 726 940 C 805 982 893 1004 991 1004 C 1031 1004 1072 997 1116 984 C 1159 970 1192 956 1214 940 L 1260 1018 L 1315 1018 L 1323 647 L 1276 647 C 1250 723 1223 781 1195 821 C 1167 860 1133 890 1094 911 C 1055 931 1008 942 952 942 C 898 942 850 924 808 890 C 765 856 732 807 709 743 C 685 679 674 603 674 516 C 674 438 688 369 716 308 C 744 246 784 199 834 166 C 884 133 940 117 1004 117 C 1051 117 1093 124 1129 139 C 1165 154 1197 176 1224 204 C 1251 232 1279 276 1309 334 L 1354 313 Z" unicode="" />
<glyph horiz-adv-x="758" d="M 772 918 C 742 848 715 802 692 779 C 668 756 641 745 610 745 C 576 745 551 752 535 767 C 519 781 509 804 506 836 L 500 836 C 476 806 453 783 429 766 C 405 749 378 741 346 741 C 297 741 259 756 231 787 C 203 817 190 862 190 920 C 190 971 206 1026 238 1086 C 270 1146 309 1191 356 1223 C 402 1254 452 1270 504 1270 C 558 1270 592 1246 606 1200 L 610 1200 L 629 1264 L 735 1264 L 612 905 C 601 878 596 852 596 827 C 596 801 606 788 627 788 C 667 788 704 834 737 928 L 772 918 Z M 616 598 L 602 547 L 141 547 L 156 598 L 616 598 Z M 582 1155 C 575 1183 566 1203 554 1215 C 542 1227 524 1233 500 1233 C 468 1233 437 1215 407 1180 C 377 1144 353 1099 335 1044 C 316 989 307 939 307 893 C 307 825 329 791 373 791 C 395 791 418 800 442 820 C 465 839 484 863 500 891 L 582 1155 Z" unicode="" />
<glyph horiz-adv-x="1147" d="M 1135 860 L 694 444 L 911 49 L 883 31 L 551 373 C 538 385 530 394 526 400 C 522 406 520 412 520 420 C 520 434 525 453 535 477 C 545 501 556 518 569 526 C 829 694 1010 813 1112 885 L 1135 860 Z M 707 860 L 266 444 L 483 49 L 455 31 L 123 373 C 110 385 102 394 98 400 C 94 406 92 412 92 420 C 92 436 97 456 107 479 C 117 502 128 518 141 526 C 401 694 582 813 684 885 L 707 860 Z" unicode="" />
<glyph horiz-adv-x="1188" d="M 1090 80 L 985 80 L 985 526 L 133 526 L 133 621 L 1090 621 L 1090 80 Z" unicode="" />
<glyph horiz-adv-x="717" d="M 655 571 L 614 422 L 59 422 L 100 571 L 655 571 Z" unicode="" />
<glyph horiz-adv-x="1012" d="M 1016 1067 C 1016 961 980 873 908 801 C 836 729 748 694 643 694 C 537 694 449 729 377 801 C 305 873 270 961 270 1067 C 270 1172 305 1260 377 1332 C 449 1404 537 1440 643 1440 C 748 1440 836 1404 908 1332 C 980 1260 1016 1172 1016 1067 Z M 975 1067 C 975 1163 943 1243 879 1309 C 815 1374 737 1407 643 1407 C 549 1407 470 1374 406 1309 C 342 1243 311 1163 311 1067 C 311 971 342 890 406 825 C 470 759 549 727 643 727 C 737 727 815 759 879 825 C 943 890 975 971 975 1067 Z M 874 952 C 874 922 868 900 857 886 C 846 872 827 866 799 866 C 748 866 719 901 711 971 C 707 1006 697 1031 683 1047 C 669 1063 648 1071 621 1071 L 586 1071 L 586 932 C 586 918 590 908 600 903 C 609 897 624 895 645 895 L 645 872 L 453 872 L 453 895 C 475 895 491 898 499 904 C 507 910 512 920 512 932 L 512 1233 C 512 1241 510 1247 508 1253 C 505 1259 497 1263 484 1267 C 470 1270 460 1272 453 1272 L 453 1292 L 668 1292 C 708 1292 740 1283 765 1266 C 790 1248 803 1226 803 1198 C 803 1172 792 1151 771 1133 C 750 1115 721 1101 684 1092 L 684 1085 C 736 1075 768 1054 778 1020 L 799 928 C 804 910 813 901 827 901 C 835 901 842 904 847 910 C 851 916 854 930 854 952 L 874 952 Z M 719 1186 C 719 1214 712 1235 699 1249 C 686 1263 665 1270 635 1270 L 586 1270 L 586 1096 L 618 1096 C 685 1096 719 1126 719 1186 Z" unicode="" />
<glyph horiz-adv-x="1024" d="M 1094 1348 L 1061 1221 L 385 1221 L 418 1348 L 1094 1348 Z" unicode="" />
<glyph horiz-adv-x="793" d="M 797 1163 C 797 1075 767 1001 708 941 C 648 880 575 850 489 850 C 404 850 332 877 274 931 C 215 985 186 1053 186 1135 C 186 1223 216 1297 276 1359 C 336 1421 412 1452 502 1452 C 554 1452 603 1439 649 1415 C 695 1390 731 1356 757 1312 C 783 1268 797 1218 797 1163 Z M 676 1190 C 676 1252 660 1300 630 1336 C 599 1371 556 1389 502 1389 C 444 1389 397 1362 360 1309 C 323 1255 305 1191 305 1116 C 305 1056 321 1007 353 969 C 385 931 427 913 479 913 C 536 913 583 938 619 988 C 655 1038 674 1106 676 1190 Z" unicode="" />
<glyph horiz-adv-x="1536" d="M 672 352 L 672 764 L 201 764 L 201 936 L 672 936 L 672 1352 L 864 1352 L 864 936 L 1335 936 L 1335 764 L 864 764 L 864 352 L 672 352 Z M 205 25 L 205 215 L 1335 215 L 1335 25 L 205 25 Z" unicode="" />
<glyph horiz-adv-x="895" d="M 37 629 L 59 772 L 440 1112 C 515 1180 562 1230 581 1262 C 600 1293 610 1325 610 1358 C 610 1384 601 1407 584 1428 C 567 1449 538 1460 496 1460 C 445 1460 398 1447 356 1422 C 314 1396 282 1372 260 1348 L 152 1473 C 190 1507 241 1540 306 1572 C 370 1604 449 1620 541 1620 C 631 1620 697 1596 741 1548 C 785 1500 807 1447 807 1388 C 807 1324 782 1260 733 1194 C 684 1128 606 1056 500 977 L 256 788 L 743 788 L 721 629 L 37 629 Z" unicode="" />
<glyph horiz-adv-x="895" d="M 43 727 L 160 860 C 184 835 216 815 256 799 C 295 783 340 776 391 776 C 452 776 499 792 532 826 C 565 859 582 900 582 948 C 582 983 565 1012 532 1034 C 499 1056 455 1067 399 1067 L 332 1067 L 360 1212 L 416 1212 C 490 1212 542 1225 573 1251 C 604 1277 620 1313 620 1358 C 620 1382 610 1404 591 1425 C 572 1445 542 1456 500 1456 C 446 1456 398 1446 356 1428 C 314 1410 283 1394 264 1380 L 205 1511 C 231 1535 274 1560 334 1584 C 394 1608 461 1620 537 1620 C 629 1620 696 1598 738 1554 C 780 1510 801 1459 801 1402 C 801 1360 791 1319 773 1279 C 754 1239 725 1207 687 1185 C 649 1162 607 1150 563 1149 C 620 1141 668 1120 707 1084 C 746 1048 766 1003 767 951 C 767 933 764 913 760 893 C 746 812 704 746 635 694 C 566 642 482 614 383 612 C 236 612 123 650 43 727 Z" unicode="" />
<glyph horiz-adv-x="1024" d="M 922 1432 C 922 1406 911 1381 889 1357 C 867 1332 822 1299 754 1258 C 604 1166 505 1105 457 1073 L 434 1098 C 560 1238 648 1341 700 1405 C 726 1435 750 1458 774 1474 C 798 1489 824 1497 852 1497 C 874 1497 892 1490 904 1476 C 916 1462 922 1448 922 1432 Z" unicode="" />
<glyph horiz-adv-x="1253" d="M 1233 287 C 1186 169 1140 87 1095 43 C 1050 0 997 -23 936 -23 C 870 -23 822 -7 791 25 C 760 57 745 104 745 168 L 737 168 C 690 108 652 67 624 46 C 595 24 561 7 523 -5 C 485 -18 440 -25 389 -25 C 343 -25 301 -12 265 12 C 229 37 204 71 190 113 L 186 113 L 168 33 C 151 -35 143 -113 143 -201 C 143 -267 139 -314 133 -342 C 126 -369 117 -391 106 -407 C 94 -423 80 -437 64 -447 C 47 -457 29 -463 10 -463 C -17 -463 -38 -455 -54 -440 C -70 -424 -78 -403 -78 -375 C -78 -356 -70 -329 -56 -293 C -41 -257 -18 -208 13 -146 C 47 -76 82 15 117 129 L 352 913 L 537 913 L 354 303 C 343 267 338 236 338 209 C 338 157 349 116 372 87 C 395 57 427 43 469 43 C 505 43 542 53 578 74 C 614 94 648 122 680 156 C 712 190 737 224 754 258 L 948 913 L 1133 913 L 932 258 C 928 246 921 223 913 188 C 905 153 901 128 901 113 C 901 57 923 29 969 29 C 1009 29 1046 48 1080 86 C 1113 124 1150 195 1192 299 L 1233 287 Z" unicode="" />
<glyph horiz-adv-x="1247" d="M 1419 1399 L 1409 1354 L 1118 1354 L 717 -256 L 659 -256 L 1061 1354 L 864 1354 L 463 -256 L 406 -256 L 643 700 L 623 700 C 493 700 390 727 315 783 C 240 839 203 914 203 1008 C 203 1078 223 1143 264 1204 C 305 1265 362 1313 435 1347 C 508 1381 591 1399 684 1399 L 1419 1399 Z" unicode="" />
<glyph horiz-adv-x="578" d="M 442 557 C 442 520 429 489 403 464 C 377 438 346 426 309 426 C 271 426 240 438 214 464 C 188 490 176 521 176 557 C 176 593 189 625 215 651 C 241 677 272 690 309 690 C 345 690 377 677 403 651 C 429 625 442 593 442 557 Z" unicode="" />
<glyph horiz-adv-x="1024" d="M 532 -246 C 532 -316 491 -370 409 -408 C 327 -446 207 -465 47 -465 L 59 -418 C 157 -416 234 -406 289 -388 C 343 -370 371 -341 371 -299 C 371 -271 358 -252 333 -243 C 308 -233 269 -229 215 -229 L 295 16 L 352 16 L 311 -113 C 385 -113 441 -123 477 -145 C 513 -167 532 -200 532 -246 Z" unicode="" />
<glyph horiz-adv-x="768" d="M 307 629 L 436 1440 L 193 1368 L 215 1507 L 528 1636 L 643 1636 L 492 629 L 307 629 Z" unicode="" />
<glyph horiz-adv-x="670" d="M 670 1073 C 670 1021 654 967 624 913 C 594 858 555 816 508 786 C 460 756 410 741 356 741 C 309 741 270 758 238 794 C 206 829 190 877 190 938 C 190 988 205 1040 236 1096 C 266 1152 305 1195 351 1225 C 397 1255 448 1270 504 1270 C 552 1270 592 1251 623 1215 C 654 1178 670 1131 670 1073 Z M 602 598 L 588 547 L 127 547 L 141 598 L 602 598 Z M 557 1100 C 557 1148 549 1182 535 1203 C 520 1224 504 1235 487 1235 C 457 1235 428 1220 400 1191 C 372 1162 349 1121 331 1068 C 312 1015 303 964 303 915 C 303 867 309 833 323 811 C 337 789 354 778 375 778 C 409 778 440 793 468 824 C 495 854 517 895 533 947 C 549 998 557 1049 557 1100 Z" unicode="" />
<glyph horiz-adv-x="1147" d="M 1063 496 C 1063 479 1058 459 1048 437 C 1038 414 1027 398 1014 389 C 764 228 583 109 471 31 L 449 55 L 889 471 L 672 866 L 700 885 L 1032 543 C 1046 529 1055 520 1058 514 C 1061 508 1063 502 1063 496 Z M 635 496 C 635 479 630 459 620 437 C 610 414 599 398 586 389 C 336 228 155 109 43 31 L 20 55 L 461 471 L 244 866 L 272 885 L 604 543 C 618 529 627 520 630 514 C 633 508 635 502 635 496 Z" unicode="" />
<glyph horiz-adv-x="1219" d="M 991 1534 C 979 1511 965 1477 949 1433 C 933 1389 921 1353 915 1325 L 786 840 L 780 805 C 780 781 791 766 813 758 C 817 755 824 753 834 751 C 844 749 880 745 944 739 L 932 694 L 387 694 L 399 739 L 432 741 C 504 742 551 749 572 763 C 592 776 606 794 612 817 L 766 1399 C 748 1395 723 1393 692 1393 C 650 1393 596 1421 530 1477 L 555 1507 C 603 1485 657 1475 717 1475 C 790 1475 873 1494 965 1534 L 991 1534 Z M 1104 571 L 1081 487 L 100 487 L 123 571 L 1104 571 Z M 893 -166 C 829 -243 760 -289 686 -303 L 621 -492 L 477 -492 L 539 -307 C 521 -304 480 -292 416 -271 C 362 -253 315 -244 276 -244 C 248 -244 229 -245 217 -248 C 181 -286 147 -305 117 -305 C 69 -305 45 -288 45 -256 C 45 -238 53 -226 70 -218 C 87 -210 106 -207 127 -207 L 201 -211 C 311 -123 406 74 485 381 L 676 381 C 639 261 583 148 507 40 C 431 -67 346 -153 252 -217 L 287 -211 L 319 -207 C 360 -207 424 -213 511 -225 L 561 -231 L 664 49 L 811 49 L 709 -231 C 738 -228 769 -218 801 -202 C 833 -186 859 -167 877 -147 L 893 -166 Z" unicode="" />
<glyph horiz-adv-x="1219" d="M 991 1534 C 979 1511 965 1477 949 1433 C 933 1389 921 1353 915 1325 L 786 840 L 780 805 C 780 781 791 766 813 758 C 817 755 824 753 834 751 C 844 749 880 745 944 739 L 932 694 L 387 694 L 399 739 L 432 741 C 504 742 551 749 572 763 C 592 776 606 794 612 817 L 766 1399 C 748 1395 723 1393 692 1393 C 650 1393 596 1421 530 1477 L 555 1507 C 603 1485 657 1475 717 1475 C 790 1475 873 1494 965 1534 L 991 1534 Z M 1104 571 L 1081 487 L 100 487 L 123 571 L 1104 571 Z M 877 178 C 877 90 839 12 764 -56 C 689 -124 567 -194 397 -264 L 276 -332 L 651 -332 C 687 -332 718 -318 746 -292 C 774 -266 801 -231 829 -188 L 860 -205 L 719 -465 L 47 -465 L 59 -406 L 198 -328 C 320 -261 410 -206 468 -164 C 526 -122 572 -81 606 -42 C 640 -3 665 34 681 72 C 697 110 705 153 705 203 C 705 241 692 271 667 293 C 642 315 609 326 569 326 C 519 326 471 314 427 290 C 382 266 346 234 319 196 C 292 157 279 120 279 84 C 279 43 304 23 356 23 C 408 23 456 53 500 115 L 526 90 C 450 -6 362 -55 260 -55 C 223 -55 195 -45 175 -26 C 155 -6 145 19 145 51 C 145 99 167 150 213 202 C 259 254 316 296 386 328 C 456 359 526 375 598 375 C 680 375 747 356 799 319 C 851 282 877 235 877 178 Z" unicode="" />
<glyph horiz-adv-x="1219" d="M 1145 1370 C 1145 1320 1122 1277 1078 1241 C 1034 1205 973 1181 897 1169 L 874 1149 C 1024 1149 1100 1099 1100 999 C 1100 939 1076 885 1029 836 C 982 786 919 748 839 720 C 759 692 672 678 578 678 C 505 678 445 692 398 722 C 351 752 328 791 328 840 C 328 880 341 915 367 944 C 393 972 425 987 461 987 C 484 987 502 981 515 970 C 528 959 535 944 535 926 C 535 890 522 866 496 856 C 480 850 470 843 465 835 C 459 827 457 817 457 805 C 457 780 468 761 492 747 C 515 733 548 727 592 727 C 644 727 696 741 749 769 C 801 797 844 834 876 880 C 908 926 924 975 924 1026 C 924 1051 916 1071 900 1087 C 884 1102 862 1110 834 1110 C 792 1110 747 1091 701 1054 L 655 1018 L 627 1071 C 750 1131 830 1174 868 1201 C 905 1228 933 1256 952 1286 C 971 1316 981 1350 981 1389 C 981 1417 970 1439 949 1456 C 927 1472 897 1481 858 1481 C 824 1481 788 1472 749 1456 C 710 1439 679 1418 656 1392 C 632 1366 621 1337 621 1305 C 621 1293 624 1282 631 1272 C 638 1262 651 1257 670 1257 C 694 1257 715 1261 731 1271 C 747 1281 762 1291 776 1303 L 797 1278 C 770 1253 738 1231 701 1211 C 664 1191 632 1182 606 1182 C 567 1182 536 1189 514 1205 C 492 1220 481 1242 481 1270 C 481 1313 501 1355 542 1395 C 582 1435 637 1468 705 1492 C 773 1516 842 1528 913 1528 C 987 1528 1044 1514 1084 1486 C 1124 1458 1145 1420 1145 1370 Z M 1104 571 L 1081 487 L 100 487 L 123 571 L 1104 571 Z M 889 -166 C 825 -243 756 -289 682 -303 L 616 -492 L 473 -492 L 535 -307 C 517 -304 476 -292 412 -271 C 358 -253 311 -244 272 -244 C 244 -244 225 -245 213 -248 C 199 -262 183 -275 165 -287 C 146 -299 129 -305 113 -305 C 65 -305 41 -288 41 -256 C 41 -238 49 -226 66 -218 C 83 -210 102 -207 123 -207 L 197 -211 C 307 -123 402 74 481 381 L 672 381 C 635 261 579 148 503 40 C 427 -67 342 -153 248 -217 L 283 -211 L 315 -207 C 355 -207 419 -213 507 -225 L 557 -231 L 659 49 L 807 49 L 705 -231 C 733 -228 764 -218 796 -202 C 828 -186 854 -167 872 -147 L 889 -166 Z" unicode="" />
<glyph horiz-adv-x="877" d="M 780 1298 C 780 1260 767 1230 742 1206 C 716 1182 687 1171 653 1171 C 617 1171 587 1183 563 1208 C 538 1232 526 1262 526 1298 C 526 1333 538 1363 562 1387 C 586 1411 617 1423 653 1423 C 687 1423 717 1411 742 1388 C 767 1365 780 1335 780 1298 Z M 717 879 C 717 812 694 754 650 704 C 605 654 526 601 412 547 C 320 503 256 458 218 414 C 180 369 162 312 162 242 C 162 204 172 168 193 135 C 213 101 241 75 277 56 C 313 36 355 27 403 27 C 465 27 517 45 560 83 C 603 120 625 164 625 215 C 625 258 611 294 585 323 C 559 352 525 367 483 367 C 463 367 448 364 436 358 L 436 346 L 440 346 C 461 346 480 338 498 322 C 515 306 524 288 524 268 C 524 241 515 219 498 201 C 480 183 458 174 432 174 C 399 174 373 182 353 200 C 333 217 324 242 324 274 C 324 313 338 345 366 370 C 394 395 431 408 479 408 C 531 408 574 389 609 353 C 644 316 662 271 662 217 C 662 149 633 92 577 46 C 520 0 448 -23 360 -23 C 254 -23 168 7 102 68 C 36 128 4 205 4 299 C 4 380 26 449 70 506 C 114 562 182 611 272 651 C 383 700 457 737 494 763 C 530 788 559 815 580 845 C 601 875 612 908 612 946 C 612 1011 580 1044 516 1044 C 484 1044 455 1027 429 995 C 402 962 385 923 377 877 L 332 891 C 340 942 363 986 402 1024 C 440 1062 480 1081 522 1081 C 582 1081 630 1062 665 1026 C 699 990 717 941 717 879 Z" unicode="" />
<glyph horiz-adv-x="1300" d="M 1241 43 L 1229 0 L 631 0 L 643 43 C 735 49 795 61 825 80 C 855 98 870 130 870 176 L 870 553 L 408 553 C 314 423 252 336 222 294 C 192 251 167 215 147 185 C 127 155 121 140 127 139 C 127 114 149 92 193 74 C 237 55 283 45 330 43 L 317 0 L -246 0 L -233 43 C -206 45 -172 53 -131 67 C -90 81 -53 101 -21 129 C 11 156 48 194 90 244 C 341 557 648 949 1012 1421 L 1069 1421 L 1069 182 C 1069 143 1073 116 1081 100 C 1089 84 1107 72 1133 62 C 1159 52 1195 46 1241 43 Z M 870 614 L 870 1139 L 461 614 L 870 614 Z M 1110 1510 L 1079 1489 L 854 1717 C 812 1755 792 1793 792 1833 C 792 1854 799 1872 813 1888 C 827 1903 845 1911 868 1911 C 896 1911 917 1902 933 1884 C 949 1866 964 1841 979 1807 C 1035 1676 1079 1577 1110 1510 Z" unicode="" />
<glyph horiz-adv-x="1300" d="M 1241 43 L 1229 0 L 631 0 L 643 43 C 735 49 795 61 825 80 C 855 98 870 130 870 176 L 870 553 L 408 553 C 314 423 252 336 222 294 C 192 251 167 215 147 185 C 127 155 121 140 127 139 C 127 114 149 92 193 74 C 237 55 283 45 330 43 L 317 0 L -246 0 L -233 43 C -206 45 -172 53 -131 67 C -90 81 -53 101 -21 129 C 11 156 48 194 90 244 C 341 557 648 949 1012 1421 L 1069 1421 L 1069 182 C 1069 143 1073 116 1081 100 C 1089 84 1107 72 1133 62 C 1159 52 1195 46 1241 43 Z M 870 614 L 870 1139 L 461 614 L 870 614 Z M 1393 1823 C 1393 1797 1382 1772 1360 1748 C 1338 1723 1293 1690 1225 1649 C 1075 1557 976 1496 928 1464 L 905 1489 C 1031 1629 1119 1732 1171 1796 C 1197 1826 1221 1849 1245 1865 C 1269 1880 1295 1888 1323 1888 C 1345 1888 1363 1881 1375 1867 C 1387 1853 1393 1839 1393 1823 Z" unicode="" />
<glyph horiz-adv-x="1300" d="M 1241 43 L 1229 0 L 631 0 L 643 43 C 735 49 795 61 825 80 C 855 98 870 130 870 176 L 870 553 L 408 553 C 314 423 252 336 222 294 C 192 251 167 215 147 185 C 127 155 121 140 127 139 C 127 114 149 92 193 74 C 237 55 283 45 330 43 L 317 0 L -246 0 L -233 43 C -206 45 -172 53 -131 67 C -90 81 -53 101 -21 129 C 11 156 48 194 90 244 C 341 557 648 949 1012 1421 L 1069 1421 L 1069 182 C 1069 143 1073 116 1081 100 C 1089 84 1107 72 1133 62 C 1159 52 1195 46 1241 43 Z M 870 614 L 870 1139 L 461 614 L 870 614 Z M 1335 1448 L 1304 1431 L 1089 1708 L 715 1431 L 692 1452 C 803 1570 910 1686 1014 1802 C 1032 1822 1046 1835 1058 1840 C 1069 1844 1088 1847 1116 1847 C 1131 1847 1142 1846 1150 1845 C 1158 1843 1164 1841 1169 1837 C 1173 1833 1180 1823 1188 1806 L 1335 1448 Z" unicode="" />
<glyph horiz-adv-x="1300" d="M 1241 43 L 1229 0 L 631 0 L 643 43 C 735 49 795 61 825 80 C 855 98 870 130 870 176 L 870 553 L 408 553 C 314 423 252 336 222 294 C 192 251 167 215 147 185 C 127 155 121 140 127 139 C 127 114 149 92 193 74 C 237 55 283 45 330 43 L 317 0 L -246 0 L -233 43 C -206 45 -172 53 -131 67 C -90 81 -53 101 -21 129 C 11 156 48 194 90 244 C 341 557 648 949 1012 1421 L 1069 1421 L 1069 182 C 1069 143 1073 116 1081 100 C 1089 84 1107 72 1133 62 C 1159 52 1195 46 1241 43 Z M 870 614 L 870 1139 L 461 614 L 870 614 Z M 1489 1798 C 1439 1711 1390 1647 1340 1605 C 1290 1563 1244 1542 1202 1542 C 1170 1542 1142 1548 1118 1560 C 1094 1572 1072 1586 1052 1601 C 1031 1616 1011 1630 991 1642 C 971 1654 949 1661 925 1661 C 889 1661 857 1650 827 1630 C 797 1610 763 1570 725 1511 L 688 1530 C 730 1609 777 1671 829 1717 C 881 1763 929 1786 975 1786 C 1007 1786 1034 1779 1058 1767 C 1082 1755 1104 1741 1124 1726 C 1144 1711 1165 1697 1185 1685 C 1205 1673 1227 1667 1251 1667 C 1275 1667 1298 1671 1319 1681 C 1339 1690 1359 1704 1378 1722 C 1396 1740 1421 1771 1452 1817 L 1489 1798 Z" unicode="" />
<glyph horiz-adv-x="1300" d="M 1241 43 L 1229 0 L 631 0 L 643 43 C 735 49 795 61 825 80 C 855 98 870 130 870 176 L 870 553 L 408 553 C 314 423 252 336 222 294 C 192 251 167 215 147 185 C 127 155 121 140 127 139 C 127 114 149 92 193 74 C 237 55 283 45 330 43 L 317 0 L -246 0 L -233 43 C -206 45 -172 53 -131 67 C -90 81 -53 101 -21 129 C 11 156 48 194 90 244 C 341 557 648 949 1012 1421 L 1069 1421 L 1069 182 C 1069 143 1073 116 1081 100 C 1089 84 1107 72 1133 62 C 1159 52 1195 46 1241 43 Z M 870 614 L 870 1139 L 461 614 L 870 614 Z M 1405 1697 C 1405 1658 1392 1625 1368 1599 C 1344 1573 1312 1560 1274 1560 C 1242 1560 1217 1570 1198 1590 C 1178 1610 1169 1635 1169 1667 C 1169 1705 1182 1737 1210 1763 C 1237 1789 1271 1802 1311 1802 C 1336 1802 1358 1791 1377 1770 C 1395 1749 1405 1725 1405 1697 Z M 969 1697 C 969 1659 956 1626 931 1600 C 906 1573 874 1560 836 1560 C 806 1560 781 1569 762 1589 C 742 1608 733 1634 733 1667 C 733 1705 746 1737 773 1763 C 799 1789 832 1802 872 1802 C 898 1802 920 1791 940 1770 C 959 1749 969 1725 969 1697 Z" unicode="" />
<glyph horiz-adv-x="1300" d="M 1241 43 L 1229 0 L 631 0 L 643 43 C 735 49 795 61 825 80 C 855 98 870 130 870 176 L 870 553 L 408 553 C 314 423 252 336 222 294 C 192 251 167 215 147 185 C 127 155 121 140 127 139 C 127 114 149 92 193 74 C 237 55 283 45 330 43 L 317 0 L -246 0 L -233 43 C -206 45 -172 53 -131 67 C -90 81 -53 101 -21 129 C 11 156 48 194 90 244 C 341 557 648 949 1012 1421 L 1069 1421 L 1069 182 C 1069 143 1073 116 1081 100 C 1089 84 1107 72 1133 62 C 1159 52 1195 46 1241 43 Z M 870 614 L 870 1139 L 461 614 L 870 614 Z M 1311 1688 C 1311 1628 1289 1577 1245 1537 C 1201 1497 1146 1477 1081 1477 C 1012 1477 955 1496 909 1536 C 863 1575 840 1625 840 1686 C 840 1745 862 1796 907 1839 C 951 1881 1007 1903 1073 1903 C 1138 1903 1194 1881 1241 1839 C 1287 1797 1311 1746 1311 1688 Z M 1202 1706 C 1202 1750 1191 1785 1171 1812 C 1150 1839 1120 1853 1081 1853 C 1043 1853 1012 1835 986 1801 C 960 1766 948 1722 948 1669 C 948 1625 958 1590 979 1564 C 999 1538 1029 1526 1069 1526 C 1108 1526 1140 1543 1165 1577 C 1189 1611 1202 1654 1202 1706 Z" unicode="" />
<glyph horiz-adv-x="1939" d="M 2015 1399 L 1927 1079 L 1876 1079 L 1876 1096 C 1876 1136 1870 1174 1858 1209 C 1846 1244 1829 1273 1807 1295 C 1785 1317 1757 1331 1725 1336 C 1692 1340 1641 1343 1573 1343 L 1352 1343 L 1186 752 L 1346 752 C 1399 752 1445 761 1485 780 C 1524 798 1557 829 1584 871 C 1611 913 1634 957 1653 1004 L 1706 1004 L 1546 434 L 1497 434 C 1501 459 1503 490 1503 526 C 1503 582 1497 619 1485 636 C 1473 652 1460 664 1448 672 C 1435 679 1419 685 1400 689 C 1381 693 1358 696 1331 696 L 1171 696 L 1044 244 C 1030 198 1024 165 1024 145 C 1024 111 1037 87 1064 75 C 1090 63 1146 57 1231 57 C 1347 57 1427 60 1470 68 C 1513 76 1545 88 1567 104 C 1610 140 1656 188 1706 250 C 1755 311 1788 359 1806 393 L 1858 393 L 1724 0 L 549 0 L 563 43 C 582 43 612 45 653 51 C 693 57 721 62 735 68 C 780 84 809 118 823 170 L 932 561 L 471 561 C 407 488 337 405 263 311 C 189 217 152 158 152 133 C 152 111 171 91 211 74 C 250 56 292 47 338 45 L 326 0 L -238 0 L -225 45 C -193 47 -155 54 -113 66 C -71 78 -32 97 3 125 C 38 153 78 192 123 244 C 555 748 863 1109 1047 1329 C 1010 1341 956 1349 885 1354 L 895 1399 L 2015 1399 Z M 1133 1321 L 1112 1321 L 524 625 L 948 625 L 1133 1321 Z" unicode="" />
<glyph horiz-adv-x="1286" d="M 1389 1419 L 1290 913 L 1241 913 C 1229 1028 1210 1117 1182 1179 C 1154 1241 1116 1287 1067 1319 C 1017 1350 955 1366 881 1366 C 789 1366 700 1328 613 1252 C 525 1176 456 1075 404 947 C 352 819 326 684 326 541 C 326 387 359 268 426 183 C 492 97 587 55 709 55 C 795 55 874 79 946 127 C 1018 175 1095 260 1178 383 L 1225 354 C 1158 254 1096 178 1040 128 C 984 77 922 38 854 10 C 786 -17 711 -31 627 -31 L 596 -31 L 569 -113 C 717 -113 791 -157 791 -246 C 791 -316 750 -370 668 -408 C 586 -446 465 -465 305 -465 L 317 -418 C 415 -416 492 -406 547 -388 C 601 -370 629 -341 629 -299 C 629 -271 616 -252 591 -243 C 566 -233 527 -229 473 -229 L 539 -27 C 399 -11 291 42 214 135 C 136 227 98 350 98 504 C 98 661 134 810 207 951 C 280 1091 381 1205 510 1293 C 639 1381 774 1425 915 1425 C 977 1425 1031 1417 1077 1402 C 1122 1386 1170 1357 1221 1315 L 1305 1419 L 1389 1419 Z" unicode="" />
<glyph horiz-adv-x="1305" d="M 1380 1399 L 1292 1079 L 1241 1079 L 1241 1096 C 1241 1136 1235 1174 1223 1209 C 1211 1244 1194 1273 1172 1295 C 1150 1317 1122 1331 1090 1336 C 1057 1340 1006 1343 938 1343 L 717 1343 L 551 752 L 711 752 C 764 752 810 761 850 780 C 889 798 922 829 949 871 C 976 913 999 957 1018 1004 L 1071 1004 L 911 434 L 862 434 C 866 459 868 490 868 526 C 868 551 866 574 863 594 C 860 614 853 630 843 644 C 833 657 821 667 809 674 C 797 681 781 686 762 690 C 742 694 720 696 696 696 L 537 696 L 410 244 C 396 200 389 167 389 145 C 389 111 402 87 429 75 C 455 63 511 57 596 57 C 712 57 792 60 835 68 C 878 76 910 88 932 104 C 975 140 1021 188 1071 250 C 1120 311 1153 359 1171 393 L 1223 393 L 1090 0 L -86 0 L -72 43 C -45 43 -7 46 40 54 C 88 62 123 74 143 92 C 163 110 178 136 188 170 L 477 1214 C 482 1238 485 1255 485 1264 C 485 1283 477 1298 463 1308 C 448 1318 421 1328 383 1338 C 344 1347 313 1352 291 1354 L 305 1399 L 1380 1399 Z M 950 1487 L 919 1466 L 694 1694 C 652 1732 632 1770 632 1810 C 632 1831 639 1849 653 1865 C 667 1880 685 1888 708 1888 C 736 1888 757 1879 773 1861 C 789 1843 804 1818 819 1784 C 875 1653 919 1554 950 1487 Z" unicode="" />
<glyph horiz-adv-x="1305" d="M 1380 1399 L 1292 1079 L 1241 1079 L 1241 1096 C 1241 1136 1235 1174 1223 1209 C 1211 1244 1194 1273 1172 1295 C 1150 1317 1122 1331 1090 1336 C 1057 1340 1006 1343 938 1343 L 717 1343 L 551 752 L 711 752 C 764 752 810 761 850 780 C 889 798 922 829 949 871 C 976 913 999 957 1018 1004 L 1071 1004 L 911 434 L 862 434 C 866 459 868 490 868 526 C 868 551 866 574 863 594 C 860 614 853 630 843 644 C 833 657 821 667 809 674 C 797 681 781 686 762 690 C 742 694 720 696 696 696 L 537 696 L 410 244 C 396 200 389 167 389 145 C 389 111 402 87 429 75 C 455 63 511 57 596 57 C 712 57 792 60 835 68 C 878 76 910 88 932 104 C 975 140 1021 188 1071 250 C 1120 311 1153 359 1171 393 L 1223 393 L 1090 0 L -86 0 L -72 43 C -45 43 -7 46 40 54 C 88 62 123 74 143 92 C 163 110 178 136 188 170 L 477 1214 C 482 1238 485 1255 485 1264 C 485 1283 477 1298 463 1308 C 448 1318 421 1328 383 1338 C 344 1347 313 1352 291 1354 L 305 1399 L 1380 1399 Z M 1280 1823 C 1280 1797 1269 1772 1247 1748 C 1225 1723 1180 1690 1112 1649 C 962 1557 863 1496 815 1464 L 792 1489 C 918 1629 1006 1732 1058 1796 C 1084 1826 1108 1849 1132 1865 C 1156 1880 1182 1888 1210 1888 C 1232 1888 1250 1881 1262 1867 C 1274 1853 1280 1839 1280 1823 Z" unicode="" />
<glyph horiz-adv-x="1305" d="M 1380 1399 L 1292 1079 L 1241 1079 L 1241 1096 C 1241 1136 1235 1174 1223 1209 C 1211 1244 1194 1273 1172 1295 C 1150 1317 1122 1331 1090 1336 C 1057 1340 1006 1343 938 1343 L 717 1343 L 551 752 L 711 752 C 764 752 810 761 850 780 C 889 798 922 829 949 871 C 976 913 999 957 1018 1004 L 1071 1004 L 911 434 L 862 434 C 866 459 868 490 868 526 C 868 551 866 574 863 594 C 860 614 853 630 843 644 C 833 657 821 667 809 674 C 797 681 781 686 762 690 C 742 694 720 696 696 696 L 537 696 L 410 244 C 396 200 389 167 389 145 C 389 111 402 87 429 75 C 455 63 511 57 596 57 C 712 57 792 60 835 68 C 878 76 910 88 932 104 C 975 140 1021 188 1071 250 C 1120 311 1153 359 1171 393 L 1223 393 L 1090 0 L -86 0 L -72 43 C -45 43 -7 46 40 54 C 88 62 123 74 143 92 C 163 110 178 136 188 170 L 477 1214 C 482 1238 485 1255 485 1264 C 485 1283 477 1298 463 1308 C 448 1318 421 1328 383 1338 C 344 1347 313 1352 291 1354 L 305 1399 L 1380 1399 Z M 1229 1493 L 1198 1476 L 983 1753 L 609 1476 L 586 1497 C 697 1615 804 1731 908 1847 C 926 1867 940 1880 952 1885 C 963 1889 982 1892 1010 1892 C 1025 1892 1036 1891 1044 1890 C 1052 1888 1058 1886 1063 1882 C 1067 1878 1074 1868 1082 1851 L 1229 1493 Z" unicode="" />
<glyph horiz-adv-x="1305" d="M 1380 1399 L 1292 1079 L 1241 1079 L 1241 1096 C 1241 1136 1235 1174 1223 1209 C 1211 1244 1194 1273 1172 1295 C 1150 1317 1122 1331 1090 1336 C 1057 1340 1006 1343 938 1343 L 717 1343 L 551 752 L 711 752 C 764 752 810 761 850 780 C 889 798 922 829 949 871 C 976 913 999 957 1018 1004 L 1071 1004 L 911 434 L 862 434 C 866 459 868 490 868 526 C 868 551 866 574 863 594 C 860 614 853 630 843 644 C 833 657 821 667 809 674 C 797 681 781 686 762 690 C 742 694 720 696 696 696 L 537 696 L 410 244 C 396 200 389 167 389 145 C 389 111 402 87 429 75 C 455 63 511 57 596 57 C 712 57 792 60 835 68 C 878 76 910 88 932 104 C 975 140 1021 188 1071 250 C 1120 311 1153 359 1171 393 L 1223 393 L 1090 0 L -86 0 L -72 43 C -45 43 -7 46 40 54 C 88 62 123 74 143 92 C 163 110 178 136 188 170 L 477 1214 C 482 1238 485 1255 485 1264 C 485 1283 477 1298 463 1308 C 448 1318 421 1328 383 1338 C 344 1347 313 1352 291 1354 L 305 1399 L 1380 1399 Z M 1272 1710 C 1272 1671 1259 1638 1235 1612 C 1211 1586 1179 1573 1141 1573 C 1109 1573 1084 1583 1065 1603 C 1045 1623 1036 1648 1036 1680 C 1036 1718 1049 1750 1077 1776 C 1104 1802 1138 1815 1178 1815 C 1203 1815 1225 1804 1244 1783 C 1262 1762 1272 1738 1272 1710 Z M 836 1710 C 836 1672 823 1639 798 1613 C 773 1586 741 1573 703 1573 C 673 1573 648 1582 629 1602 C 609 1621 600 1647 600 1680 C 600 1718 613 1750 640 1776 C 666 1802 699 1815 739 1815 C 765 1815 787 1804 807 1783 C 826 1762 836 1738 836 1710 Z" unicode="" />
<glyph horiz-adv-x="795" d="M 952 1399 L 940 1354 C 881 1350 828 1341 780 1329 C 735 1315 705 1281 690 1227 L 395 172 C 391 154 389 140 389 131 C 389 111 396 95 412 85 C 427 74 452 65 488 57 C 524 49 552 44 573 43 L 563 0 L -61 0 L -51 43 C 26 49 75 55 97 61 C 119 67 136 77 150 90 C 164 103 175 122 185 148 C 194 173 295 538 489 1243 L 492 1264 C 492 1277 488 1288 482 1296 C 475 1304 465 1311 451 1319 C 425 1328 399 1336 371 1343 C 343 1349 324 1353 313 1354 L 326 1399 L 952 1399 Z M 716 1487 L 685 1466 L 460 1694 C 418 1732 398 1770 398 1810 C 398 1831 405 1849 419 1865 C 433 1880 451 1888 474 1888 C 502 1888 523 1879 539 1861 C 555 1843 570 1818 585 1784 C 641 1653 685 1554 716 1487 Z" unicode="" />
<glyph horiz-adv-x="795" d="M 952 1399 L 940 1354 C 881 1350 828 1341 780 1329 C 735 1315 705 1281 690 1227 L 395 172 C 391 154 389 140 389 131 C 389 111 396 95 412 85 C 427 74 452 65 488 57 C 524 49 552 44 573 43 L 563 0 L -61 0 L -51 43 C 26 49 75 55 97 61 C 119 67 136 77 150 90 C 164 103 175 122 185 148 C 194 173 295 538 489 1243 L 492 1264 C 492 1277 488 1288 482 1296 C 475 1304 465 1311 451 1319 C 425 1328 399 1336 371 1343 C 343 1349 324 1353 313 1354 L 326 1399 L 952 1399 Z M 1051 1823 C 1051 1797 1040 1772 1018 1748 C 996 1723 951 1690 883 1649 C 733 1557 634 1496 586 1464 L 563 1489 C 689 1629 777 1732 829 1796 C 855 1826 879 1849 903 1865 C 927 1880 953 1888 981 1888 C 1003 1888 1021 1881 1033 1867 C 1045 1853 1051 1839 1051 1823 Z" unicode="" />
<glyph horiz-adv-x="795" d="M 952 1399 L 940 1354 C 881 1350 828 1341 780 1329 C 735 1315 705 1281 690 1227 L 395 172 C 391 154 389 140 389 131 C 389 111 396 95 412 85 C 427 74 452 65 488 57 C 524 49 552 44 573 43 L 563 0 L -61 0 L -51 43 C 26 49 75 55 97 61 C 119 67 136 77 150 90 C 164 103 175 122 185 148 C 194 173 295 538 489 1243 L 492 1264 C 492 1277 488 1288 482 1296 C 475 1304 465 1311 451 1319 C 425 1328 399 1336 371 1343 C 343 1349 324 1353 313 1354 L 326 1399 L 952 1399 Z M 972 1493 L 941 1476 L 726 1753 L 352 1476 L 329 1497 C 440 1615 547 1731 651 1847 C 669 1867 683 1880 695 1885 C 706 1889 725 1892 753 1892 C 768 1892 779 1891 787 1890 C 795 1888 801 1886 806 1882 C 810 1878 817 1868 825 1851 L 972 1493 Z" unicode="" />
<glyph horiz-adv-x="795" d="M 952 1399 L 940 1354 C 881 1350 828 1341 780 1329 C 735 1315 705 1281 690 1227 L 395 172 C 391 154 389 140 389 131 C 389 111 396 95 412 85 C 427 74 452 65 488 57 C 524 49 552 44 573 43 L 563 0 L -61 0 L -51 43 C 26 49 75 55 97 61 C 119 67 136 77 150 90 C 164 103 175 122 185 148 C 194 173 295 538 489 1243 L 492 1264 C 492 1277 488 1288 482 1296 C 475 1304 465 1311 451 1319 C 425 1328 399 1336 371 1343 C 343 1349 324 1353 313 1354 L 326 1399 L 952 1399 Z M 1027 1710 C 1027 1671 1014 1638 990 1612 C 966 1586 934 1573 896 1573 C 864 1573 839 1583 820 1603 C 800 1623 791 1648 791 1680 C 791 1718 804 1750 832 1776 C 859 1802 893 1815 933 1815 C 958 1815 980 1804 999 1783 C 1017 1762 1027 1738 1027 1710 Z M 591 1710 C 591 1672 578 1639 553 1613 C 528 1586 496 1573 458 1573 C 428 1573 403 1582 384 1602 C 364 1621 355 1647 355 1680 C 355 1718 368 1750 395 1776 C 421 1802 454 1815 494 1815 C 520 1815 542 1804 562 1783 C 581 1762 591 1738 591 1710 Z" unicode="" />
<glyph horiz-adv-x="1538" d="M 1505 856 C 1505 696 1464 551 1382 422 C 1300 292 1183 190 1033 114 C 883 38 718 0 539 0 L -68 0 L -57 43 C 25 49 76 56 96 63 C 140 78 169 112 184 164 L 332 694 L 125 694 L 143 762 L 350 762 L 477 1217 C 482 1241 485 1257 485 1264 C 485 1277 481 1288 475 1296 C 469 1304 458 1311 444 1319 C 417 1329 390 1337 364 1343 C 337 1349 318 1352 307 1354 L 319 1399 L 926 1399 C 1041 1399 1142 1377 1229 1335 C 1316 1293 1384 1231 1432 1151 C 1480 1070 1505 972 1505 856 Z M 1288 838 C 1288 1004 1250 1129 1175 1214 C 1100 1298 992 1341 852 1341 C 806 1341 760 1339 715 1337 L 553 762 L 850 762 L 831 694 L 535 694 L 401 217 C 396 200 394 184 394 170 C 394 142 404 117 426 94 C 447 70 493 59 563 59 C 692 59 812 93 924 161 C 1035 229 1123 323 1189 443 C 1255 563 1288 695 1288 838 Z" unicode="" />
<glyph horiz-adv-x="1509" d="M 1733 1399 L 1720 1356 C 1693 1354 1657 1347 1613 1337 C 1568 1326 1536 1315 1518 1305 C 1490 1289 1465 1260 1443 1218 C 1421 1176 1398 1114 1376 1030 L 1098 -14 L 1030 -14 L 526 1161 L 324 389 C 318 372 311 341 303 296 C 295 250 291 219 291 201 C 291 166 296 139 307 121 C 318 103 346 86 391 70 C 436 54 476 45 512 43 L 500 0 L -113 0 L -100 43 C -71 45 -34 52 10 64 C 55 76 86 87 104 98 C 160 132 208 226 248 379 L 440 1102 C 446 1126 449 1149 449 1171 C 449 1287 367 1348 203 1354 L 217 1399 L 639 1399 L 1112 297 L 1300 1018 C 1322 1106 1333 1169 1333 1208 C 1333 1234 1329 1254 1322 1270 C 1315 1286 1300 1299 1276 1310 C 1252 1320 1224 1330 1191 1340 C 1158 1349 1132 1354 1112 1356 L 1124 1399 L 1733 1399 Z M 1465 1825 C 1415 1738 1366 1674 1316 1632 C 1266 1590 1220 1569 1178 1569 C 1146 1569 1118 1575 1094 1587 C 1070 1599 1048 1613 1028 1628 C 1007 1643 987 1657 967 1669 C 947 1681 925 1688 901 1688 C 865 1688 833 1677 803 1657 C 773 1637 739 1597 701 1538 L 664 1557 C 706 1636 753 1698 805 1744 C 857 1790 905 1813 951 1813 C 983 1813 1010 1806 1034 1794 C 1058 1782 1080 1768 1100 1753 C 1120 1738 1141 1724 1161 1712 C 1181 1700 1203 1694 1227 1694 C 1251 1694 1274 1698 1295 1708 C 1315 1717 1335 1731 1354 1749 C 1372 1767 1397 1798 1428 1844 L 1465 1825 Z" unicode="" />
<glyph horiz-adv-x="1475" d="M 1456 881 C 1456 715 1421 563 1352 425 C 1282 286 1184 175 1056 92 C 928 8 788 -33 637 -33 C 529 -33 437 -8 361 41 C 284 90 222 158 176 244 C 129 330 106 424 106 526 C 106 683 142 832 216 972 C 290 1112 389 1224 515 1306 C 640 1388 775 1430 920 1430 C 1083 1430 1213 1375 1310 1266 C 1407 1156 1456 1028 1456 881 Z M 1237 924 C 1237 1070 1208 1180 1151 1255 C 1094 1330 1012 1368 905 1368 C 803 1368 710 1331 624 1259 C 538 1186 467 1076 411 930 C 354 784 326 631 326 471 C 326 329 354 220 412 144 C 470 67 552 29 659 29 C 765 29 861 66 947 142 C 1032 218 1102 329 1156 476 C 1210 622 1237 772 1237 924 Z M 1008 1487 L 977 1466 L 752 1694 C 710 1732 690 1770 690 1810 C 690 1831 697 1849 711 1865 C 725 1880 743 1888 766 1888 C 794 1888 815 1879 831 1861 C 847 1843 862 1818 877 1784 C 933 1653 977 1554 1008 1487 Z" unicode="" />
<glyph horiz-adv-x="1475" d="M 1456 881 C 1456 715 1421 563 1352 425 C 1282 286 1184 175 1056 92 C 928 8 788 -33 637 -33 C 529 -33 437 -8 361 41 C 284 90 222 158 176 244 C 129 330 106 424 106 526 C 106 683 142 832 216 972 C 290 1112 389 1224 515 1306 C 640 1388 775 1430 920 1430 C 1083 1430 1213 1375 1310 1266 C 1407 1156 1456 1028 1456 881 Z M 1237 924 C 1237 1070 1208 1180 1151 1255 C 1094 1330 1012 1368 905 1368 C 803 1368 710 1331 624 1259 C 538 1186 467 1076 411 930 C 354 784 326 631 326 471 C 326 329 354 220 412 144 C 470 67 552 29 659 29 C 765 29 861 66 947 142 C 1032 218 1102 329 1156 476 C 1210 622 1237 772 1237 924 Z M 1301 1823 C 1301 1797 1290 1772 1268 1748 C 1246 1723 1201 1690 1133 1649 C 983 1557 884 1496 836 1464 L 813 1489 C 939 1629 1027 1732 1079 1796 C 1105 1826 1129 1849 1153 1865 C 1177 1880 1203 1888 1231 1888 C 1253 1888 1271 1881 1283 1867 C 1295 1853 1301 1839 1301 1823 Z" unicode="" />
<glyph horiz-adv-x="1475" d="M 1456 881 C 1456 715 1421 563 1352 425 C 1282 286 1184 175 1056 92 C 928 8 788 -33 637 -33 C 529 -33 437 -8 361 41 C 284 90 222 158 176 244 C 129 330 106 424 106 526 C 106 683 142 832 216 972 C 290 1112 389 1224 515 1306 C 640 1388 775 1430 920 1430 C 1083 1430 1213 1375 1310 1266 C 1407 1156 1456 1028 1456 881 Z M 1237 924 C 1237 1070 1208 1180 1151 1255 C 1094 1330 1012 1368 905 1368 C 803 1368 710 1331 624 1259 C 538 1186 467 1076 411 930 C 354 784 326 631 326 471 C 326 329 354 220 412 144 C 470 67 552 29 659 29 C 765 29 861 66 947 142 C 1032 218 1102 329 1156 476 C 1210 622 1237 772 1237 924 Z M 1255 1493 L 1224 1476 L 1009 1753 L 635 1476 L 612 1497 C 723 1615 830 1731 934 1847 C 952 1867 966 1880 978 1885 C 989 1889 1008 1892 1036 1892 C 1051 1892 1062 1891 1070 1890 C 1078 1888 1084 1886 1089 1882 C 1093 1878 1100 1868 1108 1851 L 1255 1493 Z" unicode="" />
<glyph horiz-adv-x="1475" d="M 1456 881 C 1456 715 1421 563 1352 425 C 1282 286 1184 175 1056 92 C 928 8 788 -33 637 -33 C 529 -33 437 -8 361 41 C 284 90 222 158 176 244 C 129 330 106 424 106 526 C 106 683 142 832 216 972 C 290 1112 389 1224 515 1306 C 640 1388 775 1430 920 1430 C 1083 1430 1213 1375 1310 1266 C 1407 1156 1456 1028 1456 881 Z M 1237 924 C 1237 1070 1208 1180 1151 1255 C 1094 1330 1012 1368 905 1368 C 803 1368 710 1331 624 1259 C 538 1186 467 1076 411 930 C 354 784 326 631 326 471 C 326 329 354 220 412 144 C 470 67 552 29 659 29 C 765 29 861 66 947 142 C 1032 218 1102 329 1156 476 C 1210 622 1237 772 1237 924 Z M 1411 1835 C 1361 1748 1312 1684 1262 1642 C 1212 1600 1166 1579 1124 1579 C 1092 1579 1064 1585 1040 1597 C 1016 1609 994 1623 974 1638 C 953 1653 933 1667 913 1679 C 893 1691 871 1698 847 1698 C 811 1698 779 1687 749 1667 C 719 1647 685 1607 647 1548 L 610 1567 C 652 1646 699 1708 751 1754 C 803 1800 851 1823 897 1823 C 929 1823 956 1816 980 1804 C 1004 1792 1026 1778 1046 1763 C 1066 1748 1087 1734 1107 1722 C 1127 1710 1149 1704 1173 1704 C 1197 1704 1220 1708 1241 1718 C 1261 1727 1281 1741 1300 1759 C 1318 1777 1343 1808 1374 1854 L 1411 1835 Z" unicode="" />
<glyph horiz-adv-x="1475" d="M 1456 881 C 1456 715 1421 563 1352 425 C 1282 286 1184 175 1056 92 C 928 8 788 -33 637 -33 C 529 -33 437 -8 361 41 C 284 90 222 158 176 244 C 129 330 106 424 106 526 C 106 683 142 832 216 972 C 290 1112 389 1224 515 1306 C 640 1388 775 1430 920 1430 C 1083 1430 1213 1375 1310 1266 C 1407 1156 1456 1028 1456 881 Z M 1237 924 C 1237 1070 1208 1180 1151 1255 C 1094 1330 1012 1368 905 1368 C 803 1368 710 1331 624 1259 C 538 1186 467 1076 411 930 C 354 784 326 631 326 471 C 326 329 354 220 412 144 C 470 67 552 29 659 29 C 765 29 861 66 947 142 C 1032 218 1102 329 1156 476 C 1210 622 1237 772 1237 924 Z M 1325 1710 C 1325 1671 1312 1638 1288 1612 C 1264 1586 1232 1573 1194 1573 C 1162 1573 1137 1583 1118 1603 C 1098 1623 1089 1648 1089 1680 C 1089 1718 1102 1750 1130 1776 C 1157 1802 1191 1815 1231 1815 C 1256 1815 1278 1804 1297 1783 C 1315 1762 1325 1738 1325 1710 Z M 889 1710 C 889 1672 876 1639 851 1613 C 826 1586 794 1573 756 1573 C 726 1573 701 1582 682 1602 C 662 1621 653 1647 653 1680 C 653 1718 666 1750 693 1776 C 719 1802 752 1815 792 1815 C 818 1815 840 1804 860 1783 C 879 1762 889 1738 889 1710 Z" unicode="" />
<glyph horiz-adv-x="1188" d="M 1106 131 L 1036 61 L 629 469 L 223 61 L 156 129 L 563 535 L 156 942 L 225 1012 L 633 604 L 1038 1012 L 1106 944 L 698 539 L 1106 131 Z" unicode="" />
<glyph horiz-adv-x="1475" d="M 1583 1442 L 1350 1223 C 1384 1183 1410 1134 1428 1074 C 1446 1014 1456 949 1456 881 C 1456 715 1421 563 1352 425 C 1282 286 1184 175 1056 92 C 928 8 788 -33 637 -33 C 467 -33 330 33 225 166 L -35 -78 L -74 -41 L 193 211 C 135 302 106 407 106 526 C 106 683 142 832 216 972 C 290 1112 389 1224 515 1306 C 640 1388 775 1430 920 1430 C 1000 1430 1072 1417 1136 1391 C 1199 1365 1258 1323 1313 1266 L 1542 1481 L 1583 1442 Z M 1204 1167 C 1155 1301 1055 1368 905 1368 C 804 1368 711 1332 625 1260 C 539 1188 468 1078 410 930 C 352 782 324 629 324 471 C 324 411 326 366 332 336 L 1204 1167 Z M 1239 924 C 1239 993 1233 1054 1221 1108 L 346 272 C 390 110 495 29 659 29 C 766 29 862 67 948 143 C 1033 219 1103 331 1157 478 C 1211 624 1239 773 1239 924 Z" unicode="" />
<glyph horiz-adv-x="1620" d="M 1810 1399 L 1798 1356 C 1770 1354 1733 1347 1688 1336 C 1643 1325 1612 1315 1595 1305 C 1569 1289 1545 1263 1524 1225 C 1503 1187 1480 1122 1454 1032 L 1294 473 C 1243 299 1166 172 1062 90 C 958 8 826 -33 664 -33 C 517 -33 408 -4 338 52 C 268 108 233 188 233 291 C 233 351 242 415 262 485 L 465 1217 C 470 1241 473 1257 473 1264 C 473 1277 469 1288 463 1296 C 457 1304 446 1311 432 1319 C 406 1328 380 1336 352 1343 C 324 1349 305 1353 295 1354 L 307 1399 L 934 1399 L 922 1354 C 863 1350 810 1341 762 1329 C 717 1315 687 1281 672 1227 L 477 526 C 451 430 438 351 438 287 C 438 207 462 149 512 111 C 561 73 634 55 731 55 C 979 55 1143 197 1225 481 L 1378 1020 C 1400 1094 1411 1156 1411 1208 C 1411 1239 1405 1263 1395 1279 C 1385 1295 1356 1311 1308 1328 C 1260 1344 1220 1354 1190 1356 L 1202 1399 L 1810 1399 Z M 1112 1487 L 1081 1466 L 856 1694 C 814 1732 794 1770 794 1810 C 794 1831 801 1849 815 1865 C 829 1880 847 1888 870 1888 C 898 1888 919 1879 935 1861 C 951 1843 966 1818 981 1784 C 1037 1653 1081 1554 1112 1487 Z" unicode="" />
<glyph horiz-adv-x="1620" d="M 1810 1399 L 1798 1356 C 1770 1354 1733 1347 1688 1336 C 1643 1325 1612 1315 1595 1305 C 1569 1289 1545 1263 1524 1225 C 1503 1187 1480 1122 1454 1032 L 1294 473 C 1243 299 1166 172 1062 90 C 958 8 826 -33 664 -33 C 517 -33 408 -4 338 52 C 268 108 233 188 233 291 C 233 351 242 415 262 485 L 465 1217 C 470 1241 473 1257 473 1264 C 473 1277 469 1288 463 1296 C 457 1304 446 1311 432 1319 C 406 1328 380 1336 352 1343 C 324 1349 305 1353 295 1354 L 307 1399 L 934 1399 L 922 1354 C 863 1350 810 1341 762 1329 C 717 1315 687 1281 672 1227 L 477 526 C 451 430 438 351 438 287 C 438 207 462 149 512 111 C 561 73 634 55 731 55 C 979 55 1143 197 1225 481 L 1378 1020 C 1400 1094 1411 1156 1411 1208 C 1411 1239 1405 1263 1395 1279 C 1385 1295 1356 1311 1308 1328 C 1260 1344 1220 1354 1190 1356 L 1202 1399 L 1810 1399 Z M 1465 1823 C 1465 1797 1454 1772 1432 1748 C 1410 1723 1365 1690 1297 1649 C 1147 1557 1048 1496 1000 1464 L 977 1489 C 1103 1629 1191 1732 1243 1796 C 1269 1826 1293 1849 1317 1865 C 1341 1880 1367 1888 1395 1888 C 1417 1888 1435 1881 1447 1867 C 1459 1853 1465 1839 1465 1823 Z" unicode="" />
<glyph horiz-adv-x="1620" d="M 1810 1399 L 1798 1356 C 1770 1354 1733 1347 1688 1336 C 1643 1325 1612 1315 1595 1305 C 1569 1289 1545 1263 1524 1225 C 1503 1187 1480 1122 1454 1032 L 1294 473 C 1243 299 1166 172 1062 90 C 958 8 826 -33 664 -33 C 517 -33 408 -4 338 52 C 268 108 233 188 233 291 C 233 351 242 415 262 485 L 465 1217 C 470 1241 473 1257 473 1264 C 473 1277 469 1288 463 1296 C 457 1304 446 1311 432 1319 C 406 1328 380 1336 352 1343 C 324 1349 305 1353 295 1354 L 307 1399 L 934 1399 L 922 1354 C 863 1350 810 1341 762 1329 C 717 1315 687 1281 672 1227 L 477 526 C 451 430 438 351 438 287 C 438 207 462 149 512 111 C 561 73 634 55 731 55 C 979 55 1143 197 1225 481 L 1378 1020 C 1400 1094 1411 1156 1411 1208 C 1411 1239 1405 1263 1395 1279 C 1385 1295 1356 1311 1308 1328 C 1260 1344 1220 1354 1190 1356 L 1202 1399 L 1810 1399 Z M 1405 1493 L 1374 1476 L 1159 1753 L 785 1476 L 762 1497 C 873 1615 980 1731 1084 1847 C 1102 1867 1116 1880 1128 1885 C 1139 1889 1158 1892 1186 1892 C 1201 1892 1212 1891 1220 1890 C 1228 1888 1234 1886 1239 1882 C 1243 1878 1250 1868 1258 1851 L 1405 1493 Z" unicode="" />
<glyph horiz-adv-x="1620" d="M 1810 1399 L 1798 1356 C 1770 1354 1733 1347 1688 1336 C 1643 1325 1612 1315 1595 1305 C 1569 1289 1545 1263 1524 1225 C 1503 1187 1480 1122 1454 1032 L 1294 473 C 1243 299 1166 172 1062 90 C 958 8 826 -33 664 -33 C 517 -33 408 -4 338 52 C 268 108 233 188 233 291 C 233 351 242 415 262 485 L 465 1217 C 470 1241 473 1257 473 1264 C 473 1277 469 1288 463 1296 C 457 1304 446 1311 432 1319 C 406 1328 380 1336 352 1343 C 324 1349 305 1353 295 1354 L 307 1399 L 934 1399 L 922 1354 C 863 1350 810 1341 762 1329 C 717 1315 687 1281 672 1227 L 477 526 C 451 430 438 351 438 287 C 438 207 462 149 512 111 C 561 73 634 55 731 55 C 979 55 1143 197 1225 481 L 1378 1020 C 1400 1094 1411 1156 1411 1208 C 1411 1239 1405 1263 1395 1279 C 1385 1295 1356 1311 1308 1328 C 1260 1344 1220 1354 1190 1356 L 1202 1399 L 1810 1399 Z M 1452 1710 C 1452 1671 1439 1638 1415 1612 C 1391 1586 1359 1573 1321 1573 C 1289 1573 1264 1583 1245 1603 C 1225 1623 1216 1648 1216 1680 C 1216 1718 1229 1750 1257 1776 C 1284 1802 1318 1815 1358 1815 C 1383 1815 1405 1804 1424 1783 C 1442 1762 1452 1738 1452 1710 Z M 1016 1710 C 1016 1672 1003 1639 978 1613 C 953 1586 921 1573 883 1573 C 853 1573 828 1582 809 1602 C 789 1621 780 1647 780 1680 C 780 1718 793 1750 820 1776 C 846 1802 879 1815 919 1815 C 945 1815 967 1804 987 1783 C 1006 1762 1016 1738 1016 1710 Z" unicode="" />
<glyph horiz-adv-x="1286" d="M 1505 1307 C 1505 1216 1465 1171 1386 1171 C 1355 1171 1330 1180 1311 1199 C 1291 1218 1282 1240 1282 1266 C 1282 1283 1285 1297 1291 1307 C 1297 1317 1303 1327 1311 1337 L 1303 1348 C 1250 1334 1185 1288 1109 1208 C 1032 1128 966 1036 910 934 C 854 831 815 733 793 641 L 676 172 C 672 156 670 142 670 131 C 671 117 675 106 681 98 C 687 90 696 82 710 75 C 723 68 750 61 790 54 C 830 46 861 43 881 43 L 870 0 L 229 0 L 240 43 C 315 49 364 55 387 63 C 431 78 459 112 471 164 L 594 666 C 607 722 614 795 614 885 L 614 944 C 614 1060 592 1148 549 1208 C 505 1268 444 1298 365 1298 C 265 1298 194 1230 152 1094 L 106 1108 C 177 1318 296 1423 463 1423 C 525 1423 581 1404 632 1368 C 683 1332 723 1282 752 1219 C 780 1156 795 1090 795 1020 C 795 970 791 923 784 879 L 776 823 L 795 823 C 867 1008 954 1155 1057 1263 C 1160 1371 1264 1425 1368 1425 C 1408 1425 1441 1413 1467 1390 C 1492 1367 1505 1339 1505 1307 Z M 1313 1823 C 1313 1797 1302 1772 1280 1748 C 1258 1723 1213 1690 1145 1649 C 995 1557 896 1496 848 1464 L 825 1489 C 951 1629 1039 1732 1091 1796 C 1117 1826 1141 1849 1165 1865 C 1189 1880 1215 1888 1243 1888 C 1265 1888 1283 1881 1295 1867 C 1307 1853 1313 1839 1313 1823 Z" unicode="" />
<glyph horiz-adv-x="1225" d="M 1206 795 C 1206 656 1145 545 1023 462 C 901 379 738 338 532 338 L 436 338 L 389 170 C 385 155 383 142 383 131 C 383 111 391 95 407 84 C 423 73 448 64 484 56 C 519 48 547 44 567 43 L 557 0 L -68 0 L -57 43 C 25 49 76 56 96 63 C 140 78 169 112 184 164 L 477 1217 C 482 1241 485 1257 485 1264 C 485 1277 481 1288 475 1296 C 469 1304 458 1311 444 1319 C 417 1329 390 1337 364 1343 C 337 1349 318 1352 307 1354 L 319 1399 L 938 1399 L 928 1356 L 894 1354 C 820 1348 770 1337 743 1321 C 716 1304 697 1275 686 1235 L 647 1096 L 803 1096 C 929 1096 1028 1069 1099 1017 C 1170 964 1206 890 1206 795 Z M 989 776 C 989 950 900 1038 723 1038 L 631 1038 L 455 399 L 553 399 C 689 399 795 432 873 500 C 950 568 989 660 989 776 Z" unicode="" />
<glyph horiz-adv-x="1118" d="M 1167 1286 C 1167 1194 1147 1114 1108 1044 C 1020 1017 955 986 911 951 C 867 916 846 879 846 840 C 846 800 852 759 866 719 C 880 679 908 626 950 561 L 986 507 C 1026 444 1047 386 1047 334 C 1047 262 1030 198 998 144 C 965 90 921 47 867 17 C 813 -13 757 -29 700 -29 C 654 -29 613 -20 578 -2 C 543 15 516 38 496 68 C 476 98 467 129 467 162 C 467 200 477 232 499 258 C 521 284 548 297 582 297 C 613 297 638 289 657 274 C 676 259 686 238 686 211 C 686 165 668 138 632 130 C 614 126 600 122 590 118 C 580 114 576 108 578 98 C 578 71 592 49 621 33 C 649 16 681 8 715 8 C 766 8 807 25 837 59 C 867 93 883 143 883 209 C 883 247 877 284 865 320 C 853 356 828 403 791 461 C 747 523 720 570 709 600 C 697 630 692 662 692 694 C 692 750 710 804 746 856 C 782 908 831 950 895 983 C 934 1013 966 1054 990 1105 C 1014 1156 1026 1208 1026 1262 C 1026 1328 1011 1381 981 1421 C 951 1461 906 1481 846 1481 C 780 1481 721 1445 671 1373 C 621 1301 575 1195 535 1055 L 475 830 C 372 428 303 168 267 52 C 231 -63 189 -158 141 -230 C 93 -302 33 -363 -37 -411 C -107 -459 -183 -483 -264 -483 C -399 -483 -467 -428 -467 -319 C -467 -292 -457 -268 -437 -246 C -417 -224 -391 -213 -360 -213 C -328 -213 -302 -222 -281 -240 C -260 -258 -250 -281 -250 -311 C -250 -332 -254 -349 -262 -362 C -270 -375 -280 -390 -293 -408 C -289 -432 -277 -444 -256 -444 C -194 -444 -141 -419 -96 -371 C -50 -323 -7 -241 34 -127 C 76 -12 132 188 203 476 C 259 703 303 875 336 993 C 359 1080 387 1154 421 1215 C 454 1275 497 1331 551 1383 C 604 1435 657 1471 709 1491 C 761 1511 819 1522 881 1522 C 965 1522 1033 1499 1087 1453 C 1140 1407 1167 1352 1167 1286 Z" unicode="" />
<glyph horiz-adv-x="1124" d="M 1108 287 C 1072 200 1041 137 1014 97 C 986 57 956 27 924 7 C 892 -13 855 -23 815 -23 C 753 -23 705 -8 672 21 C 639 50 623 99 623 168 L 614 170 C 522 37 427 -29 328 -29 C 235 -29 165 0 118 56 C 70 112 47 192 47 295 C 47 361 63 436 96 519 C 129 602 172 676 225 741 C 278 805 338 855 405 891 C 471 926 542 944 616 944 C 665 944 706 930 739 904 C 771 877 792 841 801 795 L 807 795 L 854 932 L 1038 932 L 807 262 C 799 242 792 216 785 185 C 777 153 774 129 774 111 C 774 83 779 63 789 49 C 799 35 818 29 844 29 C 886 29 923 47 955 85 C 987 123 1025 194 1067 299 L 1108 287 Z M 782 719 C 770 781 750 827 724 857 C 698 886 660 901 610 901 C 550 901 492 869 437 807 C 381 745 335 659 297 550 C 259 441 240 342 240 252 C 240 182 249 130 267 94 C 285 58 315 41 358 41 C 456 41 546 108 627 242 L 782 719 Z M 740 1096 L 709 1075 L 484 1303 C 442 1341 422 1379 422 1419 C 422 1440 429 1458 443 1474 C 457 1489 475 1497 498 1497 C 526 1497 547 1488 563 1470 C 579 1452 594 1427 609 1393 C 665 1262 709 1163 740 1096 Z" unicode="" />
<glyph horiz-adv-x="1124" d="M 1108 287 C 1072 200 1041 137 1014 97 C 986 57 956 27 924 7 C 892 -13 855 -23 815 -23 C 753 -23 705 -8 672 21 C 639 50 623 99 623 168 L 614 170 C 522 37 427 -29 328 -29 C 235 -29 165 0 118 56 C 70 112 47 192 47 295 C 47 361 63 436 96 519 C 129 602 172 676 225 741 C 278 805 338 855 405 891 C 471 926 542 944 616 944 C 665 944 706 930 739 904 C 771 877 792 841 801 795 L 807 795 L 854 932 L 1038 932 L 807 262 C 799 242 792 216 785 185 C 777 153 774 129 774 111 C 774 83 779 63 789 49 C 799 35 818 29 844 29 C 886 29 923 47 955 85 C 987 123 1025 194 1067 299 L 1108 287 Z M 782 719 C 770 781 750 827 724 857 C 698 886 660 901 610 901 C 550 901 492 869 437 807 C 381 745 335 659 297 550 C 259 441 240 342 240 252 C 240 182 249 130 267 94 C 285 58 315 41 358 41 C 456 41 546 108 627 242 L 782 719 Z M 1045 1432 C 1045 1406 1034 1381 1012 1357 C 990 1332 945 1299 877 1258 C 727 1166 628 1105 580 1073 L 557 1098 C 683 1238 771 1341 823 1405 C 849 1435 873 1458 897 1474 C 921 1489 947 1497 975 1497 C 997 1497 1015 1490 1027 1476 C 1039 1462 1045 1448 1045 1432 Z" unicode="" />
<glyph horiz-adv-x="1124" d="M 1108 287 C 1072 200 1041 137 1014 97 C 986 57 956 27 924 7 C 892 -13 855 -23 815 -23 C 753 -23 705 -8 672 21 C 639 50 623 99 623 168 L 614 170 C 522 37 427 -29 328 -29 C 235 -29 165 0 118 56 C 70 112 47 192 47 295 C 47 361 63 436 96 519 C 129 602 172 676 225 741 C 278 805 338 855 405 891 C 471 926 542 944 616 944 C 665 944 706 930 739 904 C 771 877 792 841 801 795 L 807 795 L 854 932 L 1038 932 L 807 262 C 799 242 792 216 785 185 C 777 153 774 129 774 111 C 774 83 779 63 789 49 C 799 35 818 29 844 29 C 886 29 923 47 955 85 C 987 123 1025 194 1067 299 L 1108 287 Z M 782 719 C 770 781 750 827 724 857 C 698 886 660 901 610 901 C 550 901 492 869 437 807 C 381 745 335 659 297 550 C 259 441 240 342 240 252 C 240 182 249 130 267 94 C 285 58 315 41 358 41 C 456 41 546 108 627 242 L 782 719 Z M 1005 1102 L 974 1085 L 759 1362 L 385 1085 L 362 1106 C 473 1224 580 1340 684 1456 C 702 1476 716 1489 728 1494 C 739 1498 758 1501 786 1501 C 801 1501 812 1500 820 1499 C 828 1497 834 1495 839 1491 C 843 1487 850 1477 858 1460 L 1005 1102 Z" unicode="" />
<glyph horiz-adv-x="1124" d="M 1108 287 C 1072 200 1041 137 1014 97 C 986 57 956 27 924 7 C 892 -13 855 -23 815 -23 C 753 -23 705 -8 672 21 C 639 50 623 99 623 168 L 614 170 C 522 37 427 -29 328 -29 C 235 -29 165 0 118 56 C 70 112 47 192 47 295 C 47 361 63 436 96 519 C 129 602 172 676 225 741 C 278 805 338 855 405 891 C 471 926 542 944 616 944 C 665 944 706 930 739 904 C 771 877 792 841 801 795 L 807 795 L 854 932 L 1038 932 L 807 262 C 799 242 792 216 785 185 C 777 153 774 129 774 111 C 774 83 779 63 789 49 C 799 35 818 29 844 29 C 886 29 923 47 955 85 C 987 123 1025 194 1067 299 L 1108 287 Z M 782 719 C 770 781 750 827 724 857 C 698 886 660 901 610 901 C 550 901 492 869 437 807 C 381 745 335 659 297 550 C 259 441 240 342 240 252 C 240 182 249 130 267 94 C 285 58 315 41 358 41 C 456 41 546 108 627 242 L 782 719 Z M 1127 1413 C 1077 1326 1028 1262 978 1220 C 928 1178 882 1157 840 1157 C 808 1157 780 1163 756 1175 C 732 1187 710 1201 690 1216 C 669 1231 649 1245 629 1257 C 609 1269 587 1276 563 1276 C 527 1276 495 1265 465 1245 C 435 1225 401 1185 363 1126 L 326 1145 C 368 1224 415 1286 467 1332 C 519 1378 567 1401 613 1401 C 645 1401 672 1394 696 1382 C 720 1370 742 1356 762 1341 C 782 1326 803 1312 823 1300 C 843 1288 865 1282 889 1282 C 913 1282 936 1286 957 1296 C 977 1305 997 1319 1016 1337 C 1034 1355 1059 1386 1090 1432 L 1127 1413 Z" unicode="" />
<glyph horiz-adv-x="1124" d="M 1108 287 C 1072 200 1041 137 1014 97 C 986 57 956 27 924 7 C 892 -13 855 -23 815 -23 C 753 -23 705 -8 672 21 C 639 50 623 99 623 168 L 614 170 C 522 37 427 -29 328 -29 C 235 -29 165 0 118 56 C 70 112 47 192 47 295 C 47 361 63 436 96 519 C 129 602 172 676 225 741 C 278 805 338 855 405 891 C 471 926 542 944 616 944 C 665 944 706 930 739 904 C 771 877 792 841 801 795 L 807 795 L 854 932 L 1038 932 L 807 262 C 799 242 792 216 785 185 C 777 153 774 129 774 111 C 774 83 779 63 789 49 C 799 35 818 29 844 29 C 886 29 923 47 955 85 C 987 123 1025 194 1067 299 L 1108 287 Z M 782 719 C 770 781 750 827 724 857 C 698 886 660 901 610 901 C 550 901 492 869 437 807 C 381 745 335 659 297 550 C 259 441 240 342 240 252 C 240 182 249 130 267 94 C 285 58 315 41 358 41 C 456 41 546 108 627 242 L 782 719 Z M 1073 1339 C 1073 1300 1060 1267 1036 1241 C 1012 1215 980 1202 942 1202 C 910 1202 885 1212 866 1232 C 846 1252 837 1277 837 1309 C 837 1347 850 1379 878 1405 C 905 1431 939 1444 979 1444 C 1004 1444 1026 1433 1045 1412 C 1063 1391 1073 1367 1073 1339 Z M 637 1339 C 637 1301 624 1268 599 1242 C 574 1215 542 1202 504 1202 C 474 1202 449 1211 430 1231 C 410 1250 401 1276 401 1309 C 401 1347 414 1379 441 1405 C 467 1431 500 1444 540 1444 C 566 1444 588 1433 608 1412 C 627 1391 637 1367 637 1339 Z" unicode="" />
<glyph horiz-adv-x="1124" d="M 1108 287 C 1072 200 1041 137 1014 97 C 986 57 956 27 924 7 C 892 -13 855 -23 815 -23 C 753 -23 705 -8 672 21 C 639 50 623 99 623 168 L 614 170 C 522 37 427 -29 328 -29 C 235 -29 165 0 118 56 C 70 112 47 192 47 295 C 47 361 63 436 96 519 C 129 602 172 676 225 741 C 278 805 338 855 405 891 C 471 926 542 944 616 944 C 665 944 706 930 739 904 C 771 877 792 841 801 795 L 807 795 L 854 932 L 1038 932 L 807 262 C 799 242 792 216 785 185 C 777 153 774 129 774 111 C 774 83 779 63 789 49 C 799 35 818 29 844 29 C 886 29 923 47 955 85 C 987 123 1025 194 1067 299 L 1108 287 Z M 782 719 C 770 781 750 827 724 857 C 698 886 660 901 610 901 C 550 901 492 869 437 807 C 381 745 335 659 297 550 C 259 441 240 342 240 252 C 240 182 249 130 267 94 C 285 58 315 41 358 41 C 456 41 546 108 627 242 L 782 719 Z M 952 1296 C 952 1237 930 1187 886 1146 C 842 1105 788 1085 723 1085 C 654 1085 596 1104 550 1144 C 504 1184 481 1234 481 1294 C 481 1354 503 1406 548 1448 C 593 1490 649 1511 715 1511 C 780 1511 836 1489 882 1447 C 928 1405 952 1354 952 1296 Z M 844 1315 C 844 1359 833 1394 813 1421 C 792 1448 762 1462 723 1462 C 685 1462 654 1444 628 1410 C 602 1375 590 1331 590 1278 C 590 1234 600 1199 621 1173 C 641 1147 671 1135 710 1135 C 750 1135 782 1151 807 1185 C 831 1219 844 1262 844 1315 Z" unicode="" />
<glyph horiz-adv-x="1423" d="M 1415 807 C 1415 752 1394 700 1352 652 C 1310 603 1246 559 1160 520 C 1074 481 980 454 879 438 C 871 404 864 370 858 338 C 851 305 848 274 848 246 C 848 175 859 123 883 89 C 907 55 945 39 999 39 C 1060 39 1117 59 1169 101 C 1221 142 1275 213 1331 313 L 1368 295 C 1254 79 1121 -29 969 -29 C 885 -29 816 -8 764 34 C 712 76 679 137 666 217 L 659 217 C 607 131 553 68 499 29 C 445 -9 388 -29 328 -29 C 235 -29 165 0 118 56 C 70 112 47 192 47 295 C 47 361 63 436 96 519 C 129 602 172 676 225 741 C 278 805 338 855 405 891 C 471 926 542 944 616 944 C 665 944 706 930 739 904 C 771 877 792 841 801 795 L 807 795 L 854 932 L 967 932 L 913 780 C 971 840 1027 883 1079 907 C 1131 931 1185 944 1241 944 C 1292 944 1334 931 1366 906 C 1398 881 1415 848 1415 807 Z M 1274 795 C 1274 867 1244 903 1184 903 C 1131 903 1077 863 1022 783 C 966 703 922 603 889 481 C 968 495 1036 518 1093 550 C 1149 582 1194 619 1226 663 C 1258 707 1274 751 1274 795 Z M 782 719 C 770 781 750 827 724 857 C 698 886 660 901 610 901 C 550 901 492 869 437 807 C 381 745 335 659 297 550 C 259 441 240 342 240 252 C 240 182 249 130 267 94 C 285 58 315 41 358 41 C 456 41 546 108 627 242 L 782 719 Z" unicode="" />
<glyph horiz-adv-x="813" d="M 807 760 C 807 719 797 686 778 661 C 758 635 733 623 702 623 C 670 623 644 631 624 648 C 604 665 594 687 594 715 C 594 736 603 757 623 779 C 642 800 667 819 698 836 C 692 862 680 881 662 892 C 644 903 616 909 580 909 C 526 909 473 874 420 804 C 367 734 324 646 290 539 C 256 431 240 336 240 252 C 240 183 251 130 273 94 C 295 57 333 39 387 39 C 449 39 507 60 561 102 C 615 144 669 215 723 313 L 764 295 C 648 79 511 -29 354 -29 L 338 -29 L 311 -113 C 385 -113 441 -123 477 -145 C 513 -167 532 -200 532 -246 C 532 -316 491 -370 409 -408 C 327 -446 207 -465 47 -465 L 59 -418 C 268 -415 373 -375 373 -299 C 373 -271 360 -252 334 -243 C 308 -233 269 -229 215 -229 L 283 -23 C 204 -9 145 25 106 80 C 66 135 47 207 47 295 C 47 359 63 432 96 516 C 128 599 170 673 222 738 C 273 803 331 854 396 890 C 460 926 528 944 598 944 C 658 944 707 926 747 890 C 787 854 807 810 807 760 Z" unicode="" />
<glyph horiz-adv-x="815" d="M 807 807 C 807 752 786 700 744 652 C 702 603 638 559 552 521 C 466 482 372 454 270 438 C 250 345 240 281 240 246 C 240 175 251 123 275 89 C 299 55 337 39 391 39 C 452 39 509 59 561 101 C 613 142 667 213 723 313 L 760 295 C 646 79 512 -29 360 -29 C 258 -29 181 0 127 58 C 73 116 47 196 47 299 C 47 365 64 439 98 523 C 132 607 176 680 230 744 C 284 808 346 857 414 892 C 482 926 555 944 633 944 C 684 944 726 931 758 906 C 790 881 807 848 807 807 Z M 666 795 C 666 867 635 903 575 903 C 523 903 469 863 414 784 C 358 704 314 603 281 481 C 360 495 428 518 485 550 C 542 582 586 620 618 664 C 650 707 666 751 666 795 Z M 661 1096 L 630 1075 L 405 1303 C 363 1341 343 1379 343 1419 C 343 1440 350 1458 364 1474 C 378 1489 396 1497 419 1497 C 447 1497 468 1488 484 1470 C 500 1452 515 1427 530 1393 C 586 1262 630 1163 661 1096 Z" unicode="" />
<glyph horiz-adv-x="815" d="M 807 807 C 807 752 786 700 744 652 C 702 603 638 559 552 521 C 466 482 372 454 270 438 C 250 345 240 281 240 246 C 240 175 251 123 275 89 C 299 55 337 39 391 39 C 452 39 509 59 561 101 C 613 142 667 213 723 313 L 760 295 C 646 79 512 -29 360 -29 C 258 -29 181 0 127 58 C 73 116 47 196 47 299 C 47 365 64 439 98 523 C 132 607 176 680 230 744 C 284 808 346 857 414 892 C 482 926 555 944 633 944 C 684 944 726 931 758 906 C 790 881 807 848 807 807 Z M 666 795 C 666 867 635 903 575 903 C 523 903 469 863 414 784 C 358 704 314 603 281 481 C 360 495 428 518 485 550 C 542 582 586 620 618 664 C 650 707 666 751 666 795 Z M 965 1432 C 965 1406 954 1381 932 1357 C 910 1332 865 1299 797 1258 C 647 1166 548 1105 500 1073 L 477 1098 C 603 1238 691 1341 743 1405 C 769 1435 793 1458 817 1474 C 841 1489 867 1497 895 1497 C 917 1497 935 1490 947 1476 C 959 1462 965 1448 965 1432 Z" unicode="" />
<glyph horiz-adv-x="815" d="M 807 807 C 807 752 786 700 744 652 C 702 603 638 559 552 521 C 466 482 372 454 270 438 C 250 345 240 281 240 246 C 240 175 251 123 275 89 C 299 55 337 39 391 39 C 452 39 509 59 561 101 C 613 142 667 213 723 313 L 760 295 C 646 79 512 -29 360 -29 C 258 -29 181 0 127 58 C 73 116 47 196 47 299 C 47 365 64 439 98 523 C 132 607 176 680 230 744 C 284 808 346 857 414 892 C 482 926 555 944 633 944 C 684 944 726 931 758 906 C 790 881 807 848 807 807 Z M 666 795 C 666 867 635 903 575 903 C 523 903 469 863 414 784 C 358 704 314 603 281 481 C 360 495 428 518 485 550 C 542 582 586 620 618 664 C 650 707 666 751 666 795 Z M 914 1072 L 883 1055 L 668 1332 L 294 1055 L 271 1076 C 382 1194 489 1310 593 1426 C 611 1446 625 1459 637 1464 C 648 1468 667 1471 695 1471 C 710 1471 721 1470 729 1469 C 737 1467 743 1465 748 1461 C 752 1457 759 1447 767 1430 L 914 1072 Z" unicode="" />
<glyph horiz-adv-x="815" d="M 807 807 C 807 752 786 700 744 652 C 702 603 638 559 552 521 C 466 482 372 454 270 438 C 250 345 240 281 240 246 C 240 175 251 123 275 89 C 299 55 337 39 391 39 C 452 39 509 59 561 101 C 613 142 667 213 723 313 L 760 295 C 646 79 512 -29 360 -29 C 258 -29 181 0 127 58 C 73 116 47 196 47 299 C 47 365 64 439 98 523 C 132 607 176 680 230 744 C 284 808 346 857 414 892 C 482 926 555 944 633 944 C 684 944 726 931 758 906 C 790 881 807 848 807 807 Z M 666 795 C 666 867 635 903 575 903 C 523 903 469 863 414 784 C 358 704 314 603 281 481 C 360 495 428 518 485 550 C 542 582 586 620 618 664 C 650 707 666 751 666 795 Z M 970 1339 C 970 1300 957 1267 933 1241 C 909 1215 877 1202 839 1202 C 807 1202 782 1212 763 1232 C 743 1252 734 1277 734 1309 C 734 1347 747 1379 775 1405 C 802 1431 836 1444 876 1444 C 901 1444 923 1433 942 1412 C 960 1391 970 1367 970 1339 Z M 534 1339 C 534 1301 521 1268 496 1242 C 471 1215 439 1202 401 1202 C 371 1202 346 1211 327 1231 C 307 1250 298 1276 298 1309 C 298 1347 311 1379 338 1405 C 364 1431 397 1444 437 1444 C 463 1444 485 1433 505 1412 C 524 1391 534 1367 534 1339 Z" unicode="" />
<glyph horiz-adv-x="684" d="M 645 287 C 595 165 549 83 505 41 C 461 -1 411 -23 354 -23 C 289 -23 237 -8 199 20 C 160 48 141 87 141 137 C 141 180 154 237 182 307 L 319 655 C 331 686 342 718 352 752 C 362 785 367 807 367 817 C 367 869 344 895 299 895 C 257 895 220 874 187 834 C 153 794 117 722 78 618 L 39 633 C 77 725 110 790 136 828 C 162 866 190 894 222 914 C 253 934 289 944 330 944 C 386 944 435 927 475 895 C 515 863 535 821 535 770 C 535 736 513 667 471 563 L 354 262 C 322 181 307 127 307 100 C 307 76 312 59 322 47 C 332 35 352 29 381 29 C 429 29 471 52 506 98 C 540 144 574 211 608 299 L 645 287 Z M 534 1096 L 503 1075 L 278 1303 C 236 1341 216 1379 216 1419 C 216 1440 223 1458 237 1474 C 251 1489 269 1497 292 1497 C 320 1497 341 1488 357 1470 C 373 1452 388 1427 403 1393 C 459 1262 503 1163 534 1096 Z" unicode="" />
<glyph horiz-adv-x="684" d="M 645 287 C 595 165 549 83 505 41 C 461 -1 411 -23 354 -23 C 289 -23 237 -8 199 20 C 160 48 141 87 141 137 C 141 180 154 237 182 307 L 319 655 C 331 686 342 718 352 752 C 362 785 367 807 367 817 C 367 869 344 895 299 895 C 257 895 220 874 187 834 C 153 794 117 722 78 618 L 39 633 C 77 725 110 790 136 828 C 162 866 190 894 222 914 C 253 934 289 944 330 944 C 386 944 435 927 475 895 C 515 863 535 821 535 770 C 535 736 513 667 471 563 L 354 262 C 322 181 307 127 307 100 C 307 76 312 59 322 47 C 332 35 352 29 381 29 C 429 29 471 52 506 98 C 540 144 574 211 608 299 L 645 287 Z M 802 1432 C 802 1406 791 1381 769 1357 C 747 1332 702 1299 634 1258 C 484 1166 385 1105 337 1073 L 314 1098 C 440 1238 528 1341 580 1405 C 606 1435 630 1458 654 1474 C 678 1489 704 1497 732 1497 C 754 1497 772 1490 784 1476 C 796 1462 802 1448 802 1432 Z" unicode="" />
<glyph horiz-adv-x="684" d="M 690 1100 L 655 1083 L 481 1358 L 168 1085 L 141 1106 C 215 1191 292 1286 372 1392 C 382 1404 391 1417 401 1429 C 411 1441 422 1454 436 1470 C 450 1485 461 1494 470 1497 C 478 1499 494 1501 516 1501 C 538 1501 553 1499 560 1497 C 567 1494 572 1489 575 1481 L 582 1460 C 594 1422 608 1373 623 1314 C 638 1255 660 1184 690 1100 Z M 645 287 C 595 165 549 83 505 41 C 461 -1 411 -23 354 -23 C 289 -23 237 -8 199 20 C 160 48 141 87 141 137 C 141 180 154 237 182 307 L 319 655 C 331 686 342 718 352 752 C 362 785 367 807 367 817 C 367 869 344 895 299 895 C 257 895 220 874 187 834 C 153 794 117 722 78 618 L 39 633 C 77 725 110 790 136 828 C 162 866 190 894 222 914 C 253 934 289 944 330 944 C 386 944 435 927 475 895 C 515 863 535 821 535 770 C 535 736 513 667 471 563 L 354 262 C 322 181 307 127 307 100 C 307 76 312 59 322 47 C 332 35 352 29 381 29 C 429 29 471 52 506 98 C 540 144 574 211 608 299 L 645 287 Z" unicode="" />
<glyph horiz-adv-x="684" d="M 797 1329 C 797 1294 785 1265 762 1241 C 738 1217 710 1206 678 1206 C 644 1206 616 1217 594 1240 C 572 1262 561 1289 561 1321 C 561 1353 572 1382 595 1406 C 617 1430 645 1442 678 1442 C 713 1442 742 1430 764 1407 C 786 1384 797 1358 797 1329 Z M 414 1329 C 414 1294 402 1264 378 1240 C 354 1216 326 1204 293 1204 C 262 1204 235 1215 212 1237 C 189 1259 178 1287 178 1321 C 178 1353 189 1382 212 1406 C 234 1430 261 1442 293 1442 C 329 1442 359 1430 381 1407 C 403 1384 414 1358 414 1329 Z M 645 287 C 595 165 549 83 505 41 C 461 -1 411 -23 354 -23 C 289 -23 237 -8 199 20 C 160 48 141 87 141 137 C 141 180 154 237 182 307 L 319 655 C 331 686 342 718 352 752 C 362 785 367 807 367 817 C 367 869 344 895 299 895 C 257 895 220 874 187 834 C 153 794 117 722 78 618 L 39 633 C 77 725 110 790 136 828 C 162 866 190 894 222 914 C 253 934 289 944 330 944 C 386 944 435 927 475 895 C 515 863 535 821 535 770 C 535 736 513 667 471 563 L 354 262 C 322 181 307 127 307 100 C 307 76 312 59 322 47 C 332 35 352 29 381 29 C 429 29 471 52 506 98 C 540 144 574 211 608 299 L 645 287 Z" unicode="" />
<glyph horiz-adv-x="985" d="M 1024 1491 L 821 1354 C 930 1226 985 1063 985 866 C 985 694 957 540 902 402 C 847 264 772 157 677 83 C 582 8 476 -29 358 -29 C 302 -29 251 -14 205 14 C 159 42 122 84 95 138 C 68 192 55 256 55 330 C 55 424 83 522 140 626 C 196 729 266 808 348 862 C 430 916 516 944 608 944 C 686 944 747 911 791 846 L 799 846 C 803 883 805 920 805 958 C 805 1090 781 1202 735 1294 L 496 1133 L 467 1176 L 711 1341 C 675 1403 627 1455 569 1497 L 604 1534 C 677 1490 738 1443 786 1393 L 997 1538 L 1024 1491 Z M 741 629 C 741 714 727 782 700 833 C 673 883 639 909 598 909 C 538 909 482 880 430 824 C 378 768 334 689 300 587 C 265 485 248 386 248 291 C 248 196 261 125 288 79 C 315 33 349 10 389 10 C 451 10 509 37 562 93 C 614 148 657 226 691 326 C 724 426 741 527 741 629 Z" unicode="" />
<glyph horiz-adv-x="1227" d="M 1202 287 C 1166 200 1135 137 1108 97 C 1080 57 1050 27 1018 7 C 986 -13 949 -23 909 -23 C 843 -23 790 -8 750 20 C 710 49 690 88 690 137 C 690 161 694 187 702 214 C 710 241 721 272 735 307 L 856 627 C 882 693 895 744 895 780 C 895 814 887 839 872 855 C 857 871 831 879 795 879 C 745 879 693 856 639 810 C 585 764 538 703 498 625 L 293 0 L 106 0 L 328 655 C 338 689 347 723 355 757 C 363 791 367 813 367 821 C 367 850 362 870 352 880 C 342 890 328 895 309 895 C 267 895 229 874 195 832 C 161 790 126 718 88 618 L 47 633 C 84 723 116 787 143 826 C 169 864 199 894 231 914 C 263 934 298 944 338 944 C 401 944 448 927 479 895 C 510 863 526 817 526 758 L 535 756 C 626 881 723 944 825 944 C 891 944 947 921 993 877 C 1038 832 1061 778 1061 715 C 1061 702 1057 680 1049 648 C 1041 616 1032 587 1022 563 L 907 262 C 877 181 862 128 862 102 C 862 78 867 59 879 47 C 890 35 910 29 938 29 C 980 29 1019 49 1054 90 C 1088 130 1125 200 1163 299 L 1202 287 Z M 1194 1413 C 1144 1326 1095 1262 1045 1220 C 995 1178 949 1157 907 1157 C 875 1157 847 1163 823 1175 C 799 1187 777 1201 757 1216 C 736 1231 716 1245 696 1257 C 676 1269 654 1276 630 1276 C 594 1276 562 1265 532 1245 C 502 1225 468 1185 430 1126 L 393 1145 C 435 1224 482 1286 534 1332 C 586 1378 634 1401 680 1401 C 712 1401 739 1394 763 1382 C 787 1370 809 1356 829 1341 C 849 1326 870 1312 890 1300 C 910 1288 932 1282 956 1282 C 980 1282 1003 1286 1024 1296 C 1044 1305 1064 1319 1083 1337 C 1101 1355 1126 1386 1157 1432 L 1194 1413 Z" unicode="" />
<glyph horiz-adv-x="985" d="M 932 584 C 932 516 915 442 883 363 C 851 283 809 214 757 155 C 705 96 645 51 577 19 C 509 -13 436 -29 358 -29 C 302 -29 251 -14 205 14 C 159 42 122 84 95 138 C 68 192 55 256 55 330 C 55 398 71 471 103 549 C 135 627 176 696 228 755 C 279 814 339 860 408 894 C 477 927 551 944 629 944 C 684 944 735 929 781 900 C 827 871 864 829 891 775 C 918 721 932 657 932 584 Z M 739 629 C 739 715 725 784 699 834 C 673 884 639 909 598 909 C 538 909 482 880 430 824 C 378 768 334 689 300 587 C 265 485 248 386 248 291 C 248 196 261 125 288 79 C 315 33 349 10 389 10 C 451 10 508 37 560 91 C 612 145 654 223 688 325 C 722 426 739 527 739 629 Z M 718 1096 L 687 1075 L 462 1303 C 420 1341 400 1379 400 1419 C 400 1440 407 1458 421 1474 C 435 1489 453 1497 476 1497 C 504 1497 525 1488 541 1470 C 557 1452 572 1427 587 1393 C 643 1262 687 1163 718 1096 Z" unicode="" />
<glyph horiz-adv-x="985" d="M 932 584 C 932 516 915 442 883 363 C 851 283 809 214 757 155 C 705 96 645 51 577 19 C 509 -13 436 -29 358 -29 C 302 -29 251 -14 205 14 C 159 42 122 84 95 138 C 68 192 55 256 55 330 C 55 398 71 471 103 549 C 135 627 176 696 228 755 C 279 814 339 860 408 894 C 477 927 551 944 629 944 C 684 944 735 929 781 900 C 827 871 864 829 891 775 C 918 721 932 657 932 584 Z M 739 629 C 739 715 725 784 699 834 C 673 884 639 909 598 909 C 538 909 482 880 430 824 C 378 768 334 689 300 587 C 265 485 248 386 248 291 C 248 196 261 125 288 79 C 315 33 349 10 389 10 C 451 10 508 37 560 91 C 612 145 654 223 688 325 C 722 426 739 527 739 629 Z M 979 1432 C 979 1406 968 1381 946 1357 C 924 1332 879 1299 811 1258 C 661 1166 562 1105 514 1073 L 491 1098 C 617 1238 705 1341 757 1405 C 783 1435 807 1458 831 1474 C 855 1489 881 1497 909 1497 C 931 1497 949 1490 961 1476 C 973 1462 979 1448 979 1432 Z" unicode="" />
<glyph horiz-adv-x="985" d="M 932 584 C 932 516 915 442 883 363 C 851 283 809 214 757 155 C 705 96 645 51 577 19 C 509 -13 436 -29 358 -29 C 302 -29 251 -14 205 14 C 159 42 122 84 95 138 C 68 192 55 256 55 330 C 55 398 71 471 103 549 C 135 627 176 696 228 755 C 279 814 339 860 408 894 C 477 927 551 944 629 944 C 684 944 735 929 781 900 C 827 871 864 829 891 775 C 918 721 932 657 932 584 Z M 739 629 C 739 715 725 784 699 834 C 673 884 639 909 598 909 C 538 909 482 880 430 824 C 378 768 334 689 300 587 C 265 485 248 386 248 291 C 248 196 261 125 288 79 C 315 33 349 10 389 10 C 451 10 508 37 560 91 C 612 145 654 223 688 325 C 722 426 739 527 739 629 Z M 957 1102 L 926 1085 L 711 1362 L 337 1085 L 314 1106 C 425 1224 532 1340 636 1456 C 654 1476 668 1489 680 1494 C 691 1498 710 1501 738 1501 C 753 1501 764 1500 772 1499 C 780 1497 786 1495 791 1491 C 795 1487 802 1477 810 1460 L 957 1102 Z" unicode="" />
<glyph horiz-adv-x="985" d="M 932 584 C 932 516 915 442 883 363 C 851 283 809 214 757 155 C 705 96 645 51 577 19 C 509 -13 436 -29 358 -29 C 302 -29 251 -14 205 14 C 159 42 122 84 95 138 C 68 192 55 256 55 330 C 55 398 71 471 103 549 C 135 627 176 696 228 755 C 279 814 339 860 408 894 C 477 927 551 944 629 944 C 684 944 735 929 781 900 C 827 871 864 829 891 775 C 918 721 932 657 932 584 Z M 739 629 C 739 715 725 784 699 834 C 673 884 639 909 598 909 C 538 909 482 880 430 824 C 378 768 334 689 300 587 C 265 485 248 386 248 291 C 248 196 261 125 288 79 C 315 33 349 10 389 10 C 451 10 508 37 560 91 C 612 145 654 223 688 325 C 722 426 739 527 739 629 Z M 1068 1413 C 1018 1326 969 1262 919 1220 C 869 1178 823 1157 781 1157 C 749 1157 721 1163 697 1175 C 673 1187 651 1201 631 1216 C 610 1231 590 1245 570 1257 C 550 1269 528 1276 504 1276 C 468 1276 436 1265 406 1245 C 376 1225 342 1185 304 1126 L 267 1145 C 309 1224 356 1286 408 1332 C 460 1378 508 1401 554 1401 C 586 1401 613 1394 637 1382 C 661 1370 683 1356 703 1341 C 723 1326 744 1312 764 1300 C 784 1288 806 1282 830 1282 C 854 1282 877 1286 898 1296 C 918 1305 938 1319 957 1337 C 975 1355 1000 1386 1031 1432 L 1068 1413 Z" unicode="" />
<glyph horiz-adv-x="985" d="M 932 584 C 932 516 915 442 883 363 C 851 283 809 214 757 155 C 705 96 645 51 577 19 C 509 -13 436 -29 358 -29 C 302 -29 251 -14 205 14 C 159 42 122 84 95 138 C 68 192 55 256 55 330 C 55 398 71 471 103 549 C 135 627 176 696 228 755 C 279 814 339 860 408 894 C 477 927 551 944 629 944 C 684 944 735 929 781 900 C 827 871 864 829 891 775 C 918 721 932 657 932 584 Z M 739 629 C 739 715 725 784 699 834 C 673 884 639 909 598 909 C 538 909 482 880 430 824 C 378 768 334 689 300 587 C 265 485 248 386 248 291 C 248 196 261 125 288 79 C 315 33 349 10 389 10 C 451 10 508 37 560 91 C 612 145 654 223 688 325 C 722 426 739 527 739 629 Z M 1029 1339 C 1029 1300 1016 1267 992 1241 C 968 1215 936 1202 898 1202 C 866 1202 841 1212 822 1232 C 802 1252 793 1277 793 1309 C 793 1347 806 1379 834 1405 C 861 1431 895 1444 935 1444 C 960 1444 982 1433 1001 1412 C 1019 1391 1029 1367 1029 1339 Z M 593 1339 C 593 1301 580 1268 555 1242 C 530 1215 498 1202 460 1202 C 430 1202 405 1211 386 1231 C 366 1250 357 1276 357 1309 C 357 1347 370 1379 397 1405 C 423 1431 456 1444 496 1444 C 522 1444 544 1433 564 1412 C 583 1391 593 1367 593 1339 Z" unicode="" />
<glyph horiz-adv-x="1188" d="M 762 909 C 762 873 748 843 722 817 C 696 791 665 778 631 778 C 594 778 563 791 538 817 C 512 843 500 873 500 909 C 500 943 512 973 538 999 C 563 1025 594 1038 631 1038 C 667 1038 697 1025 723 1000 C 749 974 762 944 762 909 Z M 1124 485 L 137 485 L 137 580 L 1124 580 L 1124 485 Z M 762 154 C 762 118 749 88 723 63 C 697 37 666 25 631 25 C 593 25 562 37 537 63 C 512 89 500 119 500 154 C 500 188 512 219 538 245 C 563 271 594 285 631 285 C 666 285 697 271 723 245 C 749 219 762 188 762 154 Z" unicode="" />
<glyph horiz-adv-x="985" d="M 1032 973 L 870 813 C 911 751 932 674 932 584 C 932 516 915 442 883 363 C 851 283 809 214 757 155 C 705 96 645 51 577 19 C 509 -13 436 -29 358 -29 C 318 -29 277 -20 236 -2 C 195 16 159 44 129 82 L -27 -74 L -63 -43 L 102 121 C 70 181 55 250 55 330 C 55 398 71 471 103 549 C 135 627 176 696 228 755 C 279 814 339 860 408 894 C 477 927 551 944 629 944 C 665 944 702 936 740 921 C 777 906 810 882 840 850 L 995 1004 L 1032 973 Z M 741 629 L 741 660 L 739 690 L 250 197 C 258 131 275 84 301 54 C 327 24 356 10 389 10 C 451 10 509 37 562 93 C 614 148 657 226 691 326 C 724 426 741 527 741 629 Z M 731 748 C 721 804 703 844 678 870 C 653 896 626 909 598 909 C 539 909 484 881 432 826 C 380 771 336 692 300 589 C 264 486 246 387 246 291 L 246 256 L 731 748 Z" unicode="" />
<glyph horiz-adv-x="1214" d="M 1192 287 C 1156 200 1125 137 1098 97 C 1070 57 1040 27 1008 7 C 976 -13 939 -23 899 -23 C 832 -23 783 -7 752 24 C 720 55 705 103 705 168 L 696 170 C 652 108 603 59 551 25 C 498 -9 447 -27 397 -27 C 331 -27 275 -4 229 41 C 183 86 160 140 160 203 C 160 217 163 239 171 268 C 179 296 189 325 201 354 L 317 655 C 345 725 360 781 360 821 C 360 851 354 870 344 880 C 333 890 318 895 299 895 C 257 895 220 874 187 834 C 153 794 117 722 78 618 L 41 633 C 76 720 107 783 133 823 C 159 862 188 891 220 911 C 251 930 287 940 328 940 C 385 940 433 925 473 896 C 512 866 532 828 532 780 C 532 737 517 680 489 610 L 365 291 C 339 226 326 177 326 143 C 326 107 333 80 349 64 C 364 47 390 39 426 39 C 476 39 526 58 578 98 C 630 138 675 191 713 258 L 920 913 L 1108 913 L 893 262 C 885 237 877 209 870 179 C 863 148 860 127 860 115 C 860 57 882 29 928 29 C 970 29 1007 47 1039 85 C 1071 123 1109 194 1151 299 L 1192 287 Z M 767 1096 L 736 1075 L 511 1303 C 469 1341 449 1379 449 1419 C 449 1440 456 1458 470 1474 C 484 1489 502 1497 525 1497 C 553 1497 574 1488 590 1470 C 606 1452 621 1427 636 1393 C 692 1262 736 1163 767 1096 Z" unicode="" />
<glyph horiz-adv-x="1214" d="M 1192 287 C 1156 200 1125 137 1098 97 C 1070 57 1040 27 1008 7 C 976 -13 939 -23 899 -23 C 832 -23 783 -7 752 24 C 720 55 705 103 705 168 L 696 170 C 652 108 603 59 551 25 C 498 -9 447 -27 397 -27 C 331 -27 275 -4 229 41 C 183 86 160 140 160 203 C 160 217 163 239 171 268 C 179 296 189 325 201 354 L 317 655 C 345 725 360 781 360 821 C 360 851 354 870 344 880 C 333 890 318 895 299 895 C 257 895 220 874 187 834 C 153 794 117 722 78 618 L 41 633 C 76 720 107 783 133 823 C 159 862 188 891 220 911 C 251 930 287 940 328 940 C 385 940 433 925 473 896 C 512 866 532 828 532 780 C 532 737 517 680 489 610 L 365 291 C 339 226 326 177 326 143 C 326 107 333 80 349 64 C 364 47 390 39 426 39 C 476 39 526 58 578 98 C 630 138 675 191 713 258 L 920 913 L 1108 913 L 893 262 C 885 237 877 209 870 179 C 863 148 860 127 860 115 C 860 57 882 29 928 29 C 970 29 1007 47 1039 85 C 1071 123 1109 194 1151 299 L 1192 287 Z M 1133 1432 C 1133 1406 1122 1381 1100 1357 C 1078 1332 1033 1299 965 1258 C 815 1166 716 1105 668 1073 L 645 1098 C 771 1238 859 1341 911 1405 C 937 1435 961 1458 985 1474 C 1009 1489 1035 1497 1063 1497 C 1085 1497 1103 1490 1115 1476 C 1127 1462 1133 1448 1133 1432 Z" unicode="" />
<glyph horiz-adv-x="1214" d="M 1192 287 C 1156 200 1125 137 1098 97 C 1070 57 1040 27 1008 7 C 976 -13 939 -23 899 -23 C 832 -23 783 -7 752 24 C 720 55 705 103 705 168 L 696 170 C 652 108 603 59 551 25 C 498 -9 447 -27 397 -27 C 331 -27 275 -4 229 41 C 183 86 160 140 160 203 C 160 217 163 239 171 268 C 179 296 189 325 201 354 L 317 655 C 345 725 360 781 360 821 C 360 851 354 870 344 880 C 333 890 318 895 299 895 C 257 895 220 874 187 834 C 153 794 117 722 78 618 L 41 633 C 76 720 107 783 133 823 C 159 862 188 891 220 911 C 251 930 287 940 328 940 C 385 940 433 925 473 896 C 512 866 532 828 532 780 C 532 737 517 680 489 610 L 365 291 C 339 226 326 177 326 143 C 326 107 333 80 349 64 C 364 47 390 39 426 39 C 476 39 526 58 578 98 C 630 138 675 191 713 258 L 920 913 L 1108 913 L 893 262 C 885 237 877 209 870 179 C 863 148 860 127 860 115 C 860 57 882 29 928 29 C 970 29 1007 47 1039 85 C 1071 123 1109 194 1151 299 L 1192 287 Z M 1053 1102 L 1022 1085 L 807 1362 L 433 1085 L 410 1106 C 521 1224 628 1340 732 1456 C 750 1476 764 1489 776 1494 C 787 1498 806 1501 834 1501 C 849 1501 860 1500 868 1499 C 876 1497 882 1495 887 1491 C 891 1487 898 1477 906 1460 L 1053 1102 Z" unicode="" />
<glyph horiz-adv-x="1214" d="M 1192 287 C 1156 200 1125 137 1098 97 C 1070 57 1040 27 1008 7 C 976 -13 939 -23 899 -23 C 832 -23 783 -7 752 24 C 720 55 705 103 705 168 L 696 170 C 652 108 603 59 551 25 C 498 -9 447 -27 397 -27 C 331 -27 275 -4 229 41 C 183 86 160 140 160 203 C 160 217 163 239 171 268 C 179 296 189 325 201 354 L 317 655 C 345 725 360 781 360 821 C 360 851 354 870 344 880 C 333 890 318 895 299 895 C 257 895 220 874 187 834 C 153 794 117 722 78 618 L 41 633 C 76 720 107 783 133 823 C 159 862 188 891 220 911 C 251 930 287 940 328 940 C 385 940 433 925 473 896 C 512 866 532 828 532 780 C 532 737 517 680 489 610 L 365 291 C 339 226 326 177 326 143 C 326 107 333 80 349 64 C 364 47 390 39 426 39 C 476 39 526 58 578 98 C 630 138 675 191 713 258 L 920 913 L 1108 913 L 893 262 C 885 237 877 209 870 179 C 863 148 860 127 860 115 C 860 57 882 29 928 29 C 970 29 1007 47 1039 85 C 1071 123 1109 194 1151 299 L 1192 287 Z M 1122 1339 C 1122 1300 1109 1267 1085 1241 C 1061 1215 1029 1202 991 1202 C 959 1202 934 1212 915 1232 C 895 1252 886 1277 886 1309 C 886 1347 899 1379 927 1405 C 954 1431 988 1444 1028 1444 C 1053 1444 1075 1433 1094 1412 C 1112 1391 1122 1367 1122 1339 Z M 686 1339 C 686 1301 673 1268 648 1242 C 623 1215 591 1202 553 1202 C 523 1202 498 1211 479 1231 C 459 1250 450 1276 450 1309 C 450 1347 463 1379 490 1405 C 516 1431 549 1444 589 1444 C 615 1444 637 1433 657 1412 C 676 1391 686 1367 686 1339 Z" unicode="" />
<glyph horiz-adv-x="1102" d="M 1106 913 L 891 217 C 819 -11 722 -186 602 -307 C 481 -428 340 -489 180 -489 C 117 -489 66 -480 28 -462 C -10 -444 -40 -422 -60 -394 C -80 -366 -90 -333 -90 -297 C -90 -252 -78 -217 -54 -193 C -30 -168 2 -156 45 -156 C 71 -156 93 -164 111 -182 C 129 -200 139 -220 139 -242 C 139 -278 132 -304 119 -320 C 105 -335 89 -343 69 -345 C 47 -346 33 -349 25 -353 C 17 -357 12 -366 10 -379 C 11 -398 18 -413 31 -423 C 43 -433 59 -441 77 -445 C 95 -449 125 -451 168 -451 C 274 -451 373 -399 465 -295 C 556 -191 633 -43 696 150 L 688 152 C 644 94 597 50 547 20 C 497 -9 447 -25 397 -25 C 331 -25 275 -2 229 43 C 183 88 160 142 160 205 C 160 221 164 244 172 274 C 180 303 189 331 201 358 C 255 495 295 598 322 667 C 348 736 362 789 362 825 C 362 855 357 874 347 882 C 337 890 322 895 303 895 C 261 895 223 874 189 834 C 155 793 119 721 80 618 L 43 633 C 78 720 109 783 135 823 C 161 863 191 893 223 913 C 255 933 292 944 332 944 C 389 944 437 929 476 900 C 515 870 535 832 535 784 C 535 743 519 685 489 610 L 362 295 C 336 227 324 177 324 145 C 324 111 331 85 347 68 C 362 51 388 43 426 43 C 473 43 522 59 572 93 C 622 126 669 173 713 233 L 924 913 L 1106 913 Z M 1127 1432 C 1127 1406 1116 1381 1094 1357 C 1072 1332 1027 1299 959 1258 C 809 1166 710 1105 662 1073 L 639 1098 C 765 1238 853 1341 905 1405 C 931 1435 955 1458 979 1474 C 1003 1489 1029 1497 1057 1497 C 1079 1497 1097 1490 1109 1476 C 1121 1462 1127 1448 1127 1432 Z" unicode="" />
<glyph horiz-adv-x="1044" d="M 1001 623 C 1001 559 983 485 949 401 C 915 317 870 243 815 178 C 759 112 697 62 629 26 C 560 -9 489 -27 416 -27 C 366 -27 323 -14 287 9 C 251 33 229 65 219 104 L 211 104 L 111 -227 C 91 -292 82 -338 82 -365 C 82 -389 93 -407 116 -417 C 139 -427 175 -433 223 -435 L 279 -438 L 279 -479 L -299 -479 L -299 -440 C -261 -440 -231 -437 -207 -431 C -183 -425 -165 -415 -151 -401 C -137 -387 -125 -370 -115 -350 C -105 -330 -89 -288 -68 -223 L 389 1247 C 409 1312 420 1358 420 1384 C 420 1409 408 1427 385 1437 C 361 1447 325 1453 276 1456 L 215 1458 L 215 1499 L 662 1520 L 424 784 L 430 782 C 521 890 613 944 705 944 C 801 944 874 915 925 859 C 975 803 1001 724 1001 623 Z M 809 664 C 809 804 764 874 674 874 C 575 874 482 811 395 686 L 238 180 C 245 128 265 88 297 60 C 329 32 371 18 422 18 C 482 18 542 50 602 114 C 661 178 710 264 750 372 C 789 480 809 577 809 664 Z" unicode="" />
<glyph horiz-adv-x="1102" d="M 1106 913 L 891 217 C 819 -11 722 -186 602 -307 C 481 -428 340 -489 180 -489 C 117 -489 66 -480 28 -462 C -10 -444 -40 -422 -60 -394 C -80 -366 -90 -333 -90 -297 C -90 -252 -78 -217 -54 -193 C -30 -168 2 -156 45 -156 C 71 -156 93 -164 111 -182 C 129 -200 139 -220 139 -242 C 139 -278 132 -304 119 -320 C 105 -335 89 -343 69 -345 C 47 -346 33 -349 25 -353 C 17 -357 12 -366 10 -379 C 11 -398 18 -413 31 -423 C 43 -433 59 -441 77 -445 C 95 -449 125 -451 168 -451 C 274 -451 373 -399 465 -295 C 556 -191 633 -43 696 150 L 688 152 C 644 94 597 50 547 20 C 497 -9 447 -25 397 -25 C 331 -25 275 -2 229 43 C 183 88 160 142 160 205 C 160 221 164 244 172 274 C 180 303 189 331 201 358 C 255 495 295 598 322 667 C 348 736 362 789 362 825 C 362 855 357 874 347 882 C 337 890 322 895 303 895 C 261 895 223 874 189 834 C 155 793 119 721 80 618 L 43 633 C 78 720 109 783 135 823 C 161 863 191 893 223 913 C 255 933 292 944 332 944 C 389 944 437 929 476 900 C 515 870 535 832 535 784 C 535 743 519 685 489 610 L 362 295 C 336 227 324 177 324 145 C 324 111 331 85 347 68 C 362 51 388 43 426 43 C 473 43 522 59 572 93 C 622 126 669 173 713 233 L 924 913 L 1106 913 Z M 1129 1339 C 1129 1300 1116 1267 1092 1241 C 1068 1215 1036 1202 998 1202 C 966 1202 941 1212 922 1232 C 902 1252 893 1277 893 1309 C 893 1347 906 1379 934 1405 C 961 1431 995 1444 1035 1444 C 1060 1444 1082 1433 1101 1412 C 1119 1391 1129 1367 1129 1339 Z M 693 1339 C 693 1301 680 1268 655 1242 C 630 1215 598 1202 560 1202 C 530 1202 505 1211 486 1231 C 466 1250 457 1276 457 1309 C 457 1347 470 1379 497 1405 C 523 1431 556 1444 596 1444 C 622 1444 644 1433 664 1412 C 683 1391 693 1367 693 1339 Z" unicode="" />
<glyph horiz-adv-x="684" d="M 645 287 C 595 165 549 83 505 41 C 461 -1 411 -23 354 -23 C 289 -23 237 -8 199 20 C 160 48 141 87 141 137 C 141 180 154 237 182 307 L 319 655 C 331 686 342 718 352 752 C 362 785 367 807 367 817 C 367 869 344 895 299 895 C 257 895 220 874 187 834 C 153 794 117 722 78 618 L 39 633 C 77 725 110 790 136 828 C 162 866 190 894 222 914 C 253 934 289 944 330 944 C 386 944 435 927 475 895 C 515 863 535 821 535 770 C 535 736 513 667 471 563 L 354 262 C 322 181 307 127 307 100 C 307 76 312 59 322 47 C 332 35 352 29 381 29 C 429 29 471 52 506 98 C 540 144 574 211 608 299 L 645 287 Z" unicode="" />
<glyph horiz-adv-x="1288" d="M 1223 397 L 1085 0 L -86 0 L -72 43 C -45 43 -7 46 40 54 C 88 62 123 74 143 92 C 163 110 178 136 188 170 L 311 616 L 109 549 L 94 602 L 330 680 L 477 1214 C 482 1238 485 1255 485 1264 C 485 1283 477 1298 463 1308 C 448 1318 421 1328 383 1338 C 344 1347 313 1352 291 1354 L 305 1399 L 946 1399 L 934 1354 C 875 1350 822 1341 774 1329 C 729 1315 699 1281 684 1227 L 551 754 L 909 872 L 922 817 L 535 690 L 410 244 C 396 196 390 161 390 139 C 390 108 403 87 431 75 C 459 63 516 57 604 57 C 682 57 751 61 809 70 C 867 79 906 91 924 106 C 958 131 1001 173 1053 233 C 1105 292 1145 347 1174 397 L 1223 397 Z" unicode="" />
<glyph horiz-adv-x="602" d="M 678 1520 L 422 719 L 596 776 L 608 725 L 401 657 L 274 258 C 267 238 259 211 250 177 C 240 142 236 117 236 102 C 236 78 241 59 251 47 C 261 35 280 29 307 29 C 356 29 398 52 433 98 C 468 144 503 211 537 299 L 573 287 C 528 172 483 92 439 46 C 394 0 341 -23 281 -23 C 215 -23 164 -8 127 20 C 90 48 72 87 72 135 C 72 179 84 236 109 307 L 199 590 L 45 541 L 33 590 L 217 651 L 406 1247 C 424 1305 434 1350 434 1384 C 434 1409 422 1427 399 1437 C 375 1447 339 1453 291 1456 L 229 1458 L 229 1499 L 678 1520 Z" unicode="" />
<glyph horiz-adv-x="2046" d="M 2122 1399 L 2034 1079 L 1982 1079 L 1982 1096 C 1982 1136 1976 1174 1964 1209 C 1952 1244 1935 1273 1913 1295 C 1891 1317 1863 1331 1831 1336 C 1798 1340 1747 1343 1679 1343 L 1458 1343 L 1292 752 L 1452 752 C 1503 752 1548 761 1588 779 C 1628 797 1661 825 1687 865 C 1713 904 1737 950 1759 1004 L 1812 1004 L 1653 434 L 1604 434 C 1608 459 1610 490 1610 526 C 1610 582 1602 621 1586 642 C 1570 662 1551 676 1527 684 C 1503 692 1474 696 1438 696 L 1278 696 L 1151 244 C 1137 196 1130 163 1130 145 C 1130 112 1143 89 1169 76 C 1195 63 1251 57 1337 57 C 1429 57 1492 58 1526 61 C 1560 64 1590 69 1616 76 C 1642 83 1666 97 1690 118 C 1713 139 1738 165 1766 196 C 1794 227 1822 262 1852 301 C 1881 340 1901 371 1913 393 L 1964 393 L 1831 0 L 946 0 L 608 -4 C 526 -4 458 7 403 31 C 348 54 294 94 242 151 C 190 208 154 266 135 325 C 115 384 106 455 106 539 C 106 643 130 753 178 867 C 226 981 290 1079 368 1159 C 446 1239 533 1299 627 1341 C 721 1382 820 1403 922 1403 L 1321 1399 L 2122 1399 Z M 1176 1141 C 1176 1210 1155 1261 1114 1294 C 1073 1326 1010 1343 926 1343 C 822 1343 724 1304 632 1226 C 540 1148 466 1042 410 907 C 354 771 326 627 326 475 C 326 347 351 245 403 170 C 454 94 523 57 610 57 C 653 57 691 61 723 70 C 755 78 792 97 836 127 C 913 180 996 372 1085 702 C 1123 842 1148 941 1159 998 C 1170 1054 1176 1102 1176 1141 Z" unicode="" />
<glyph horiz-adv-x="1452" d="M 1444 807 C 1444 752 1423 700 1381 652 C 1339 603 1275 559 1189 521 C 1103 482 1009 454 907 438 C 887 345 877 281 877 246 C 877 175 888 123 912 89 C 936 55 974 39 1028 39 C 1089 39 1146 59 1198 101 C 1250 142 1304 213 1360 313 L 1397 295 C 1283 79 1149 -29 997 -29 C 930 -29 875 -14 831 13 C 787 41 751 84 725 141 C 619 27 496 -29 358 -29 C 302 -29 251 -14 205 14 C 159 42 122 84 95 138 C 68 192 55 256 55 330 C 55 398 71 471 103 549 C 135 627 176 696 228 755 C 279 814 339 860 408 894 C 477 927 551 944 629 944 C 748 944 835 879 889 750 C 995 879 1122 944 1270 944 C 1321 944 1363 931 1395 906 C 1427 881 1444 848 1444 807 Z M 1303 795 C 1303 867 1272 903 1212 903 C 1160 903 1106 863 1051 784 C 995 704 951 603 918 481 C 997 495 1065 518 1122 550 C 1179 582 1223 620 1255 664 C 1287 707 1303 751 1303 795 Z M 739 629 C 739 715 725 784 699 834 C 673 884 639 909 598 909 C 538 909 482 880 430 824 C 378 768 334 689 300 587 C 265 485 248 386 248 291 C 248 196 261 125 288 79 C 315 33 349 10 389 10 C 451 10 508 37 560 91 C 612 145 654 223 688 325 C 722 426 739 527 739 629 Z" unicode="" />
<glyph horiz-adv-x="1100" d="M 1186 1419 L 1069 954 L 1024 954 C 1008 1100 976 1204 927 1268 C 878 1332 810 1364 723 1364 C 639 1364 567 1338 509 1287 C 451 1236 422 1175 422 1104 C 422 1043 437 993 469 954 C 500 915 560 874 649 831 C 779 765 871 702 924 642 C 977 582 1004 512 1004 430 C 1004 345 979 268 929 198 C 879 128 811 73 725 33 C 639 -7 548 -27 453 -27 C 385 -27 321 -17 261 2 C 200 21 151 46 115 76 L 20 -20 L -49 -20 L 66 459 L 113 459 C 130 317 171 211 235 141 C 299 70 386 35 494 35 C 553 35 607 48 656 74 C 704 100 742 135 770 179 C 797 223 811 270 811 319 C 811 385 793 439 757 482 C 721 524 656 571 561 621 C 437 683 352 742 308 798 C 264 854 242 924 242 1010 C 242 1084 264 1154 310 1218 C 355 1282 417 1333 496 1370 C 574 1406 658 1425 748 1425 C 799 1425 849 1415 899 1397 C 948 1379 988 1354 1020 1323 L 1116 1419 L 1186 1419 Z M 1192 1890 C 1040 1727 933 1610 871 1540 C 855 1521 841 1509 829 1503 C 817 1497 797 1495 768 1495 C 744 1495 728 1497 720 1501 C 712 1505 704 1517 697 1536 L 549 1894 L 580 1911 L 795 1634 L 1170 1911 L 1192 1890 Z" unicode="" />
<glyph horiz-adv-x="788" d="M 750 729 C 750 691 741 660 724 636 C 706 612 683 600 653 600 C 623 600 599 607 581 622 C 562 636 553 657 553 684 C 553 704 558 722 569 736 C 580 750 593 761 607 771 C 621 780 634 788 646 795 C 658 801 666 807 668 813 C 662 841 644 863 612 879 C 580 895 541 903 494 903 C 467 903 440 895 414 880 C 388 865 367 845 352 820 C 337 795 330 766 330 733 C 330 695 342 660 368 629 C 394 597 437 561 499 521 C 556 482 598 441 626 399 C 654 357 668 310 668 260 C 668 212 651 166 618 121 C 584 75 540 39 485 12 C 430 -15 373 -29 315 -29 C 252 -29 198 -18 153 3 C 107 24 72 53 47 89 C 22 125 10 165 10 209 C 10 247 21 280 45 308 C 69 336 95 350 123 350 C 155 350 181 342 201 326 C 221 310 231 288 231 260 C 231 232 222 210 206 194 C 190 178 168 170 141 170 C 122 170 108 169 99 167 C 90 165 86 156 86 141 C 86 109 107 79 150 53 C 193 27 241 14 293 14 C 359 14 414 28 456 57 C 498 86 520 126 520 176 C 520 220 506 261 480 297 C 453 333 409 372 349 413 C 290 451 247 491 219 531 C 191 571 178 616 178 666 C 178 709 193 753 224 797 C 255 841 295 876 345 903 C 394 930 444 944 496 944 C 554 944 602 933 638 913 C 674 892 702 865 721 833 C 740 800 750 765 750 729 Z M 978 1499 C 826 1336 719 1219 657 1149 C 641 1130 627 1118 615 1112 C 603 1106 583 1104 554 1104 C 530 1104 514 1106 506 1110 C 498 1114 490 1126 483 1145 L 335 1503 L 366 1520 L 581 1243 L 956 1520 L 978 1499 Z" unicode="" />
<glyph horiz-adv-x="1286" d="M 1505 1307 C 1505 1216 1465 1171 1386 1171 C 1355 1171 1330 1180 1311 1199 C 1291 1218 1282 1240 1282 1266 C 1282 1283 1285 1297 1291 1307 C 1297 1317 1303 1327 1311 1337 L 1303 1348 C 1250 1334 1185 1288 1109 1208 C 1032 1128 966 1036 910 934 C 854 831 815 733 793 641 L 676 172 C 672 156 670 142 670 131 C 671 117 675 106 681 98 C 687 90 696 82 710 75 C 723 68 750 61 790 54 C 830 46 861 43 881 43 L 870 0 L 229 0 L 240 43 C 315 49 364 55 387 63 C 431 78 459 112 471 164 L 594 666 C 607 722 614 795 614 885 L 614 944 C 614 1060 592 1148 549 1208 C 505 1268 444 1298 365 1298 C 265 1298 194 1230 152 1094 L 106 1108 C 177 1318 296 1423 463 1423 C 525 1423 581 1404 632 1368 C 683 1332 723 1282 752 1219 C 780 1156 795 1090 795 1020 C 795 970 791 923 784 879 L 776 823 L 795 823 C 867 1008 954 1155 1057 1263 C 1160 1371 1264 1425 1368 1425 C 1408 1425 1441 1413 1467 1390 C 1492 1367 1505 1339 1505 1307 Z M 1272 1689 C 1272 1650 1259 1617 1235 1591 C 1211 1565 1179 1552 1141 1552 C 1109 1552 1084 1562 1065 1582 C 1045 1602 1036 1627 1036 1659 C 1036 1697 1049 1729 1077 1755 C 1104 1781 1138 1794 1178 1794 C 1203 1794 1225 1783 1244 1762 C 1262 1741 1272 1717 1272 1689 Z M 836 1689 C 836 1651 823 1618 798 1592 C 773 1565 741 1552 703 1552 C 673 1552 648 1561 629 1581 C 609 1600 600 1626 600 1659 C 600 1697 613 1729 640 1755 C 666 1781 699 1794 739 1794 C 765 1794 787 1783 807 1762 C 826 1741 836 1717 836 1689 Z" unicode="" />
<glyph horiz-adv-x="1221" d="M 1407 1399 L 1399 1374 L 143 55 L 514 55 C 596 55 665 59 722 69 C 778 79 818 92 842 109 C 886 141 933 186 983 244 C 1033 302 1078 360 1116 420 L 1165 420 L 1016 0 L -137 0 L -131 25 L 1124 1343 L 797 1343 C 718 1343 661 1340 625 1334 C 589 1328 549 1308 506 1276 C 462 1243 419 1203 377 1156 C 334 1109 299 1064 272 1022 L 223 1022 L 362 1399 L 1407 1399 Z M 1284 1890 C 1132 1727 1025 1610 963 1540 C 947 1521 933 1509 921 1503 C 909 1497 889 1495 860 1495 C 836 1495 820 1497 812 1501 C 804 1505 796 1517 789 1536 L 641 1894 L 672 1911 L 887 1634 L 1262 1911 L 1284 1890 Z" unicode="" />
<glyph horiz-adv-x="856" d="M 920 881 C 920 857 914 836 903 817 C 891 798 870 775 838 747 C 806 719 697 631 511 484 C 324 336 208 245 162 209 L 164 197 C 198 192 254 179 330 157 C 392 138 443 129 485 129 C 611 129 674 158 674 217 C 674 246 668 268 658 283 C 648 298 626 309 592 317 L 604 354 C 713 331 768 264 768 154 C 768 109 746 68 704 31 C 662 -6 615 -25 563 -25 C 540 -25 511 -17 477 -2 C 442 13 400 36 351 66 C 295 98 250 122 216 136 C 182 150 154 157 131 158 C 116 153 105 146 99 138 C 92 130 89 117 89 99 L 90 53 C 90 0 61 -27 4 -27 C -11 -27 -25 -20 -37 -7 C -49 6 -55 23 -55 43 C -55 63 -46 84 -30 106 C -13 127 13 153 49 184 C 85 215 158 276 270 367 C 381 458 482 537 572 605 C 662 673 710 707 715 709 L 711 719 C 657 721 590 732 510 752 C 435 770 385 780 360 780 C 316 780 283 774 260 764 C 236 754 225 732 225 698 C 225 672 233 649 250 631 C 267 613 297 597 340 584 L 322 551 C 186 596 119 661 119 745 C 119 797 138 842 176 881 C 214 920 259 940 309 940 C 372 940 442 909 518 849 C 557 817 591 794 621 780 C 650 765 678 758 705 758 C 730 758 748 762 760 771 C 772 779 778 793 778 813 L 778 850 C 778 911 800 942 844 942 C 894 942 920 921 920 881 Z M 998 1499 C 846 1336 739 1219 677 1149 C 661 1130 647 1118 635 1112 C 623 1106 603 1104 574 1104 C 550 1104 534 1106 526 1110 C 518 1114 510 1126 503 1145 L 355 1503 L 386 1520 L 601 1243 L 976 1520 L 998 1499 Z" unicode="" />
<glyph horiz-adv-x="1012" d="M 1122 1133 C 1122 1101 1110 1073 1086 1049 C 1062 1025 1035 1014 1004 1014 C 935 1014 901 1044 901 1106 C 901 1134 911 1170 932 1212 C 924 1228 909 1237 889 1237 C 754 1237 646 1095 565 811 L 530 690 L 788 690 L 766 623 L 512 623 L 437 369 C 387 205 346 86 314 14 C 281 -57 240 -124 191 -186 C 142 -248 83 -298 15 -338 C -52 -377 -124 -397 -199 -397 C -267 -397 -318 -385 -351 -363 C -384 -340 -401 -305 -401 -258 C -401 -224 -390 -195 -369 -173 C -347 -150 -319 -139 -285 -139 C -253 -139 -228 -147 -210 -165 C -191 -182 -182 -208 -182 -242 C -182 -258 -186 -275 -195 -294 C -204 -312 -214 -327 -225 -338 C -216 -351 -204 -358 -190 -358 C -128 -358 -74 -334 -27 -286 C 20 -238 66 -160 111 -52 C 155 55 202 196 251 369 L 324 623 L 106 623 L 127 690 L 342 690 C 378 822 424 930 480 1014 C 536 1098 600 1163 670 1209 C 740 1255 819 1278 907 1278 C 968 1278 1019 1264 1060 1236 C 1101 1208 1122 1174 1122 1133 Z" unicode="" />
<glyph horiz-adv-x="1024" d="M 987 1102 L 956 1085 L 741 1362 L 367 1085 L 344 1106 C 455 1224 562 1340 666 1456 C 684 1476 698 1489 710 1494 C 721 1498 740 1501 768 1501 C 783 1501 794 1500 802 1499 C 810 1497 816 1495 821 1491 C 825 1487 832 1477 840 1460 L 987 1102 Z" unicode="" />
<glyph horiz-adv-x="1024" d="M 1083 1499 C 931 1336 824 1219 762 1149 C 746 1130 732 1118 720 1112 C 708 1106 688 1104 659 1104 C 635 1104 619 1106 611 1110 C 603 1114 595 1126 588 1145 L 440 1503 L 471 1520 L 686 1243 L 1061 1520 L 1083 1499 Z" unicode="" />
<glyph horiz-adv-x="1024" d="M 1071 1475 C 1011 1356 945 1264 875 1200 C 804 1136 734 1104 664 1104 C 594 1104 539 1136 501 1201 C 463 1265 442 1357 440 1475 L 479 1487 C 511 1335 584 1260 698 1260 C 812 1260 923 1335 1032 1487 L 1071 1475 Z" unicode="" />
<glyph horiz-adv-x="1024" d="M 850 1350 C 850 1316 838 1286 815 1262 C 791 1237 763 1225 729 1225 C 697 1225 669 1236 645 1259 C 621 1281 610 1309 610 1341 C 610 1373 621 1402 644 1426 C 667 1450 695 1462 729 1462 C 763 1462 792 1451 815 1429 C 838 1407 850 1380 850 1350 Z" unicode="" />
<glyph horiz-adv-x="1024" d="M 944 1296 C 944 1237 922 1187 878 1146 C 834 1105 780 1085 715 1085 C 646 1085 588 1104 542 1144 C 496 1184 473 1234 473 1294 C 473 1354 495 1406 540 1448 C 585 1490 641 1511 707 1511 C 772 1511 828 1489 874 1447 C 920 1405 944 1354 944 1296 Z M 836 1315 C 836 1359 825 1394 805 1421 C 784 1448 754 1462 715 1462 C 677 1462 646 1444 620 1410 C 594 1375 582 1331 582 1278 C 582 1234 592 1199 613 1173 C 633 1147 663 1135 702 1135 C 742 1135 774 1151 799 1185 C 823 1219 836 1262 836 1315 Z" unicode="" />
<glyph horiz-adv-x="1024" d="M 469 0 C 387 -64 328 -120 290 -167 C 252 -214 233 -257 233 -297 C 233 -324 239 -344 251 -358 C 263 -371 282 -382 310 -391 C 337 -399 378 -406 434 -412 L 422 -463 C 298 -462 208 -450 153 -426 C 97 -402 70 -365 70 -317 C 70 -211 181 -106 403 0 L 469 0 Z" unicode="" />
<glyph horiz-adv-x="1024" d="M 1094 1413 C 1044 1326 995 1262 945 1220 C 895 1178 849 1157 807 1157 C 775 1157 747 1163 723 1175 C 699 1187 677 1201 657 1216 C 636 1231 616 1245 596 1257 C 576 1269 554 1276 530 1276 C 494 1276 462 1265 432 1245 C 402 1225 368 1185 330 1126 L 293 1145 C 335 1224 382 1286 434 1332 C 486 1378 534 1401 580 1401 C 612 1401 639 1394 663 1382 C 687 1370 709 1356 729 1341 C 749 1326 770 1312 790 1300 C 810 1288 832 1282 856 1282 C 880 1282 903 1286 924 1296 C 944 1305 964 1319 983 1337 C 1001 1355 1026 1386 1057 1432 L 1094 1413 Z" unicode="" />
<glyph horiz-adv-x="1024" d="M 737 1460 C 737 1432 727 1407 707 1385 C 687 1363 663 1343 635 1325 L 285 1094 L 266 1118 C 392 1260 480 1363 530 1425 C 557 1458 581 1482 603 1497 C 625 1512 649 1520 676 1520 C 695 1520 710 1513 721 1501 C 731 1488 737 1474 737 1460 Z M 1108 1460 C 1108 1432 1098 1407 1078 1385 C 1058 1363 1034 1343 1006 1325 L 655 1094 L 637 1118 C 763 1260 851 1363 901 1425 C 927 1458 951 1482 973 1497 C 995 1512 1019 1520 1047 1520 C 1066 1520 1081 1513 1092 1501 C 1102 1488 1108 1474 1108 1460 Z" unicode="" />
<glyph horiz-adv-x="1024" d="M 1094 1348 L 1061 1221 L 385 1221 L 418 1348 L 1094 1348 Z" unicode="" />
<glyph horiz-adv-x="1536" d="M -51 0 L 768 1536 L 999 1536 L 1327 0 L -51 0 Z M 248 147 L 1061 147 L 823 1255 L 248 147 Z" unicode="" />
<glyph horiz-adv-x="1188" d="M 1112 485 L 150 485 L 150 580 L 1112 580 L 1112 485 Z" unicode="" />
<glyph horiz-adv-x="1253" d="M 1233 287 C 1186 169 1140 87 1095 43 C 1050 0 997 -23 936 -23 C 870 -23 822 -7 791 25 C 760 57 745 104 745 168 L 737 168 C 690 108 652 67 624 46 C 595 24 561 7 523 -5 C 485 -18 440 -25 389 -25 C 343 -25 301 -12 265 12 C 229 37 204 71 190 113 L 186 113 L 168 33 C 151 -35 143 -113 143 -201 C 143 -267 139 -314 133 -342 C 126 -369 117 -391 106 -407 C 94 -423 80 -437 64 -447 C 47 -457 29 -463 10 -463 C -17 -463 -38 -455 -54 -440 C -70 -424 -78 -403 -78 -375 C -78 -356 -70 -329 -56 -293 C -41 -257 -18 -208 13 -146 C 47 -76 82 15 117 129 L 352 913 L 537 913 L 354 303 C 343 267 338 236 338 209 C 338 157 349 116 372 87 C 395 57 427 43 469 43 C 505 43 542 53 578 74 C 614 94 648 122 680 156 C 712 190 737 224 754 258 L 948 913 L 1133 913 L 932 258 C 928 246 921 223 913 188 C 905 153 901 128 901 113 C 901 57 923 29 969 29 C 1009 29 1046 48 1080 86 C 1113 124 1150 195 1192 299 L 1233 287 Z" unicode="" />
<glyph horiz-adv-x="1407" d="M 176 0 L 340 1028 L 59 1028 L 84 1176 L 1415 1176 L 1393 1028 L 1075 1028 L 973 360 C 967 324 965 292 965 266 C 965 226 973 194 990 172 C 1007 150 1048 139 1112 139 C 1146 139 1169 139 1183 141 C 1197 142 1215 146 1237 152 L 1208 20 C 1160 -4 1092 -16 1004 -16 C 888 -16 820 5 798 47 C 776 89 765 137 765 191 C 765 227 768 269 776 315 L 889 1028 L 524 1028 L 365 0 L 176 0 Z" unicode="" />
<glyph horiz-adv-x="1049" d="M 983 604 L 950 485 L 106 485 L 139 604 L 983 604 Z" unicode="" />
<glyph horiz-adv-x="1843" d="M 1759 580 L 1726 465 L 186 465 L 219 580 L 1759 580 Z" unicode="" />
<glyph horiz-adv-x="379" d="M 571 1460 C 495 1420 440 1380 404 1340 C 368 1300 346 1257 338 1210 L 379 1210 C 421 1210 453 1200 475 1180 C 497 1160 508 1136 508 1106 C 508 1073 494 1043 468 1016 C 441 988 409 975 371 975 C 329 975 296 988 272 1014 C 248 1040 236 1080 236 1135 C 236 1205 261 1271 311 1331 C 361 1391 441 1450 551 1507 L 571 1460 Z" unicode="" />
<glyph horiz-adv-x="379" d="M 557 1350 C 557 1282 533 1218 485 1158 C 437 1098 356 1037 242 977 L 221 1024 C 295 1063 351 1102 387 1142 C 423 1181 445 1225 455 1274 L 414 1274 C 372 1274 340 1283 318 1303 C 296 1323 285 1348 285 1378 C 285 1410 298 1440 325 1468 C 351 1495 384 1509 422 1509 C 464 1509 497 1496 521 1470 C 545 1444 557 1404 557 1350 Z" unicode="" />
<glyph horiz-adv-x="461" d="M 281 80 C 281 10 256 -54 206 -115 C 156 -175 75 -235 -35 -293 L -55 -246 C 19 -206 73 -167 109 -129 C 145 -90 168 -46 178 4 L 137 4 C 95 4 63 14 41 34 C 19 54 8 79 8 109 C 8 141 21 171 48 199 C 74 226 107 240 145 240 C 187 240 220 226 244 200 C 268 174 281 134 281 80 Z" unicode="" />
<glyph horiz-adv-x="725" d="M 918 1460 C 842 1420 786 1379 749 1339 C 712 1298 690 1253 682 1204 L 719 1204 C 759 1204 790 1193 812 1173 C 834 1153 846 1128 846 1098 C 846 1064 833 1035 807 1011 C 781 987 751 975 715 975 C 671 975 638 987 616 1013 C 593 1039 582 1076 582 1124 C 582 1198 606 1265 656 1326 C 706 1386 787 1446 899 1505 L 918 1460 Z M 571 1460 C 497 1420 441 1380 404 1339 C 366 1298 344 1253 336 1204 L 373 1204 C 413 1204 444 1193 466 1173 C 488 1153 500 1128 500 1098 C 500 1064 487 1035 461 1011 C 435 987 405 975 369 975 C 325 975 292 987 270 1013 C 247 1039 236 1076 236 1124 C 236 1198 260 1265 310 1326 C 360 1386 441 1446 553 1505 L 571 1460 Z" unicode="" />
<glyph horiz-adv-x="725" d="M 903 1360 C 903 1286 878 1218 828 1158 C 778 1097 698 1037 586 979 L 567 1024 C 639 1062 694 1102 732 1142 C 770 1182 793 1228 803 1280 L 766 1280 C 726 1280 694 1290 672 1310 C 650 1330 639 1356 639 1386 C 639 1420 651 1449 677 1473 C 703 1497 734 1509 770 1509 C 813 1509 846 1496 869 1470 C 891 1444 903 1408 903 1360 Z M 557 1360 C 557 1286 532 1218 482 1158 C 432 1097 352 1037 240 979 L 221 1024 C 293 1062 348 1102 386 1142 C 424 1182 447 1228 457 1280 L 420 1280 C 380 1280 348 1290 326 1310 C 304 1330 293 1356 293 1386 C 293 1420 305 1449 331 1473 C 357 1497 388 1509 424 1509 C 467 1509 500 1496 523 1470 C 545 1444 557 1408 557 1360 Z" unicode="" />
<glyph horiz-adv-x="807" d="M 618 84 C 618 10 593 -57 543 -118 C 493 -178 413 -238 301 -297 L 283 -252 C 355 -213 410 -173 448 -133 C 485 -93 508 -47 518 4 L 481 4 C 441 4 409 14 387 35 C 365 55 354 81 354 111 C 354 144 366 173 392 197 C 418 221 449 233 485 233 C 528 233 561 220 584 194 C 606 168 618 132 618 84 Z M 272 84 C 272 10 247 -57 197 -118 C 147 -178 67 -238 -45 -297 L -63 -252 C 13 -210 68 -170 104 -130 C 140 -90 162 -46 172 4 L 135 4 C 95 4 63 14 41 35 C 19 55 8 81 8 111 C 8 144 20 173 46 197 C 72 221 103 233 139 233 C 182 233 215 220 238 194 C 260 168 272 132 272 84 Z" unicode="" />
<glyph horiz-adv-x="844" d="M 881 979 C 881 957 871 937 853 920 C 834 903 813 895 791 895 C 767 895 747 901 732 915 C 717 928 704 943 694 959 C 683 975 673 990 663 1004 C 653 1017 641 1024 627 1024 C 617 1024 610 1019 605 1009 C 599 999 594 984 588 965 C 480 645 402 401 354 233 L 313 246 C 355 428 393 602 427 768 C 461 933 479 1024 479 1040 C 479 1060 470 1071 453 1071 C 441 1071 417 1060 383 1040 C 348 1018 322 1008 305 1008 C 280 1008 259 1016 241 1033 C 223 1050 215 1071 215 1096 C 215 1118 221 1136 233 1150 C 245 1164 261 1171 281 1171 C 301 1171 317 1163 328 1147 C 338 1131 344 1113 344 1092 C 358 1092 377 1095 401 1103 C 425 1110 442 1114 453 1114 C 467 1114 481 1109 497 1101 C 513 1092 524 1082 532 1071 C 538 1103 542 1156 546 1231 C 548 1300 551 1344 557 1362 C 570 1404 595 1425 633 1425 C 654 1425 671 1417 683 1402 C 695 1386 702 1369 702 1350 C 702 1326 685 1282 652 1220 C 608 1139 582 1085 573 1059 C 585 1065 599 1069 616 1069 C 648 1069 684 1051 724 1017 C 732 1009 742 1003 752 999 C 768 1027 789 1042 817 1042 C 833 1042 848 1036 861 1025 C 874 1013 881 998 881 979 Z" unicode="" />
<glyph horiz-adv-x="905" d="M 920 1112 C 920 1092 913 1076 901 1062 C 888 1048 871 1042 850 1042 C 828 1042 810 1046 796 1055 C 781 1064 767 1074 755 1085 C 743 1095 731 1105 719 1114 C 707 1123 694 1128 678 1128 C 671 1128 665 1125 660 1121 C 654 1117 648 1108 641 1094 C 633 1080 611 1023 573 922 C 535 821 516 770 518 768 L 475 778 C 486 826 498 894 512 982 C 525 1069 532 1121 532 1137 C 532 1151 528 1161 521 1168 C 513 1174 500 1178 481 1178 C 469 1178 451 1174 427 1168 C 401 1160 383 1157 371 1157 C 345 1157 325 1163 309 1176 C 293 1188 285 1205 285 1227 C 285 1247 291 1264 303 1276 C 315 1288 331 1294 350 1294 C 368 1294 384 1286 397 1271 C 409 1256 416 1237 416 1214 C 430 1214 441 1215 450 1217 C 458 1219 469 1221 483 1221 C 499 1221 517 1217 537 1210 C 556 1203 571 1192 582 1176 L 583 1193 C 583 1206 581 1222 579 1241 C 576 1260 575 1283 575 1311 C 575 1351 582 1380 596 1400 C 610 1420 629 1430 653 1430 C 674 1430 691 1423 704 1409 C 716 1395 723 1377 723 1356 C 723 1337 717 1316 706 1293 C 694 1270 676 1241 652 1207 L 625 1165 C 637 1171 650 1174 664 1174 C 688 1174 722 1163 766 1143 L 793 1130 C 809 1159 830 1174 858 1174 C 874 1174 889 1168 901 1156 C 913 1144 920 1129 920 1112 Z M 690 256 C 690 235 683 218 671 206 C 659 194 643 188 625 188 C 606 188 590 195 578 211 C 565 226 559 245 559 268 L 525 265 L 492 262 C 475 262 457 265 438 272 C 418 278 403 290 393 307 L 392 288 L 396 240 L 399 172 C 399 92 373 53 322 53 C 300 53 283 60 271 74 C 258 88 252 105 252 127 C 252 145 257 164 268 186 C 278 208 297 237 324 275 L 350 317 C 339 311 326 309 311 309 C 289 309 255 319 210 340 L 182 352 C 166 323 144 309 117 309 C 100 309 85 315 73 327 C 61 339 55 353 55 371 C 55 390 61 406 74 420 C 86 433 103 440 125 440 C 146 440 164 435 179 426 C 193 417 207 407 219 397 C 231 386 243 376 255 367 C 267 358 281 354 297 354 C 307 354 316 359 324 371 C 332 383 340 399 348 419 C 356 439 393 538 457 715 L 500 705 C 486 647 473 576 461 494 C 448 412 442 362 442 346 C 442 331 445 320 453 314 C 461 308 474 305 494 305 L 522 308 C 541 313 558 318 572 322 C 586 326 596 327 604 326 C 629 326 650 319 666 307 C 682 294 690 277 690 256 Z" unicode="" />
<glyph horiz-adv-x="846" d="M 735 666 C 735 590 707 526 653 472 C 599 418 533 391 457 391 C 381 391 315 417 260 471 C 205 525 178 590 178 666 C 178 742 205 808 261 862 C 316 916 381 944 457 944 C 533 944 598 916 653 862 C 707 807 735 742 735 666 Z" unicode="" />
<glyph horiz-adv-x="1614" d="M 1458 113 C 1458 78 1445 48 1420 22 C 1394 -3 1363 -16 1327 -16 C 1289 -16 1258 -3 1233 22 C 1208 48 1196 78 1196 113 C 1196 147 1208 178 1234 204 C 1259 230 1290 244 1327 244 C 1363 244 1394 231 1420 205 C 1445 179 1458 148 1458 113 Z M 897 113 C 897 78 884 48 859 22 C 833 -3 802 -16 766 -16 C 728 -16 697 -3 672 22 C 647 48 635 78 635 113 C 635 147 647 178 673 204 C 698 230 729 244 766 244 C 802 244 833 231 859 205 C 884 179 897 148 897 113 Z M 336 113 C 336 77 323 47 297 22 C 271 -3 240 -16 205 -16 C 167 -16 136 -3 111 22 C 86 48 74 78 74 113 C 74 147 86 178 112 204 C 137 230 168 244 205 244 C 240 244 271 230 297 204 C 323 178 336 147 336 113 Z" unicode="" />
<glyph horiz-adv-x="2462" d="M 2359 371 C 2359 301 2339 235 2301 174 C 2262 112 2210 63 2146 27 C 2081 -8 2016 -27 1950 -27 C 1872 -27 1807 -3 1755 43 C 1703 90 1677 151 1677 225 C 1677 291 1696 355 1734 418 C 1772 480 1822 531 1886 569 C 1950 607 2015 627 2083 627 C 2164 627 2230 603 2282 556 C 2333 508 2359 447 2359 371 Z M 1577 371 C 1577 301 1557 235 1519 174 C 1480 112 1428 63 1364 27 C 1299 -8 1233 -27 1167 -27 C 1089 -27 1024 -3 972 44 C 920 92 895 152 895 225 C 895 291 914 355 952 418 C 990 480 1040 531 1104 569 C 1168 607 1233 627 1300 627 C 1382 627 1448 603 1500 555 C 1551 507 1577 446 1577 371 Z M 1569 1376 L 205 -201 L 154 -164 L 1513 1413 L 1569 1376 Z M 844 1012 C 844 942 824 876 786 815 C 747 753 695 704 631 668 C 566 632 500 614 434 614 C 356 614 291 637 239 685 C 187 733 162 793 162 866 C 162 932 180 997 218 1060 C 256 1122 307 1173 371 1211 C 435 1249 500 1268 567 1268 C 649 1268 715 1244 767 1196 C 818 1148 844 1087 844 1012 Z M 2204 416 C 2204 524 2163 578 2083 578 C 2041 578 2000 558 1962 519 C 1923 480 1892 429 1868 366 C 1844 303 1833 242 1833 182 C 1833 77 1874 25 1956 25 C 1997 25 2037 43 2077 80 C 2116 117 2147 166 2170 227 C 2192 287 2204 350 2204 416 Z M 1421 416 C 1421 524 1380 578 1300 578 C 1258 578 1217 558 1179 520 C 1141 482 1110 431 1086 367 C 1062 303 1051 241 1051 182 C 1051 77 1092 25 1174 25 C 1214 25 1254 43 1293 80 C 1332 116 1363 165 1386 225 C 1409 285 1421 349 1421 416 Z M 688 1057 C 688 1165 647 1219 567 1219 C 525 1219 484 1199 446 1160 C 407 1121 376 1070 352 1007 C 328 944 317 883 317 823 C 317 718 358 666 440 666 C 481 666 521 684 561 721 C 600 758 631 807 654 868 C 676 928 688 991 688 1057 Z" unicode="" />
<glyph horiz-adv-x="719" d="M 707 860 L 266 444 L 483 49 L 455 31 L 123 373 C 110 385 102 394 98 400 C 94 406 92 412 92 420 C 92 436 97 456 107 479 C 117 502 128 518 141 526 C 401 694 582 813 684 885 L 707 860 Z" unicode="" />
<glyph horiz-adv-x="719" d="M 635 496 C 635 479 630 459 620 437 C 610 414 599 398 586 389 C 336 228 155 109 43 31 L 20 55 L 461 471 L 244 866 L 272 885 L 604 543 C 618 529 627 520 630 514 C 633 508 635 502 635 496 Z" unicode="" />
<glyph horiz-adv-x="696" d="M 1053 1485 L -348 -434 L -430 -381 L 971 1540 L 1053 1485 Z" unicode="" />
<glyph horiz-adv-x="1260" d="M 256 678 L 100 678 L 113 725 L 268 725 C 303 830 353 924 419 1008 C 485 1091 560 1155 646 1201 C 731 1247 820 1270 913 1270 C 1011 1270 1090 1249 1149 1209 C 1207 1168 1237 1114 1237 1047 C 1237 998 1225 959 1202 930 C 1179 901 1150 887 1114 887 C 1083 887 1058 894 1040 909 C 1021 924 1012 944 1012 969 C 1012 997 1019 1021 1033 1042 C 1047 1065 1056 1087 1059 1108 C 1055 1142 1039 1170 1009 1190 C 979 1210 941 1221 895 1221 C 803 1221 718 1175 641 1085 C 564 994 505 874 465 725 L 938 725 L 926 678 L 455 678 C 443 642 434 590 426 522 L 817 522 L 803 475 L 420 475 L 416 399 C 416 289 439 205 485 147 C 531 89 598 61 686 61 C 737 61 783 69 825 86 C 867 103 905 128 941 162 C 976 195 1015 246 1059 315 L 1106 287 C 980 76 816 -29 612 -29 C 485 -29 387 8 317 82 C 247 156 213 262 213 401 C 213 426 214 451 217 475 L 59 475 L 74 522 L 223 522 C 230 576 241 628 256 678 Z" unicode="" />
<glyph horiz-adv-x="1946" d="M 1841 514 C 1841 353 1800 204 1720 68 C 1640 -67 1531 -175 1395 -253 C 1259 -331 1110 -371 950 -371 C 786 -371 635 -330 497 -250 C 359 -169 251 -61 173 74 C 94 209 55 356 55 514 C 55 669 94 815 173 951 C 252 1087 361 1195 499 1275 C 637 1355 788 1395 950 1395 C 1111 1395 1260 1355 1397 1276 C 1533 1197 1641 1090 1721 955 C 1801 819 1841 672 1841 514 Z M 1753 514 C 1753 659 1717 794 1646 919 C 1574 1044 1477 1143 1353 1215 C 1229 1287 1095 1323 950 1323 C 804 1323 670 1287 546 1216 C 422 1144 323 1046 251 922 C 179 797 143 661 143 514 C 143 366 179 228 251 102 C 323 -23 422 -122 546 -194 C 670 -265 805 -301 950 -301 C 1095 -301 1230 -265 1354 -193 C 1478 -121 1575 -21 1646 105 C 1717 231 1753 368 1753 514 Z M 1411 748 C 1411 690 1394 639 1362 594 C 1330 549 1285 514 1227 488 C 1169 462 1106 449 1038 449 L 930 449 L 930 176 C 930 144 944 124 973 115 C 1007 105 1057 98 1122 94 L 1122 51 L 578 51 L 578 94 C 606 96 637 101 670 108 C 703 115 724 124 734 135 C 743 146 748 160 748 176 L 748 848 C 748 880 732 901 700 911 C 650 925 607 933 571 936 L 571 979 L 1100 979 C 1191 979 1266 957 1324 915 C 1382 872 1411 816 1411 748 Z M 1204 713 C 1204 782 1187 835 1154 873 C 1121 911 1076 930 1018 930 L 930 930 L 930 502 L 991 502 C 1056 502 1108 521 1146 559 C 1184 597 1204 649 1204 713 Z" unicode="" />
<glyph horiz-adv-x="1356" d="M 1507 887 L 1231 887 L 1231 913 L 1246 915 C 1283 918 1306 923 1314 931 C 1322 938 1327 949 1327 963 L 1327 1319 L 1315 1319 L 1135 893 L 1114 893 L 1097 942 L 950 1309 L 938 1309 L 938 1038 C 938 1006 941 982 947 964 C 953 946 962 935 975 930 C 988 925 1010 919 1042 913 L 1042 887 L 795 887 L 795 913 L 809 915 C 848 919 872 929 881 946 C 890 962 895 991 895 1032 L 895 1286 C 895 1313 887 1334 872 1348 C 847 1362 823 1370 801 1370 L 801 1399 L 1008 1399 L 1159 1034 L 1276 1331 C 1283 1351 1288 1373 1292 1399 L 1505 1399 L 1505 1370 L 1492 1369 L 1442 1358 C 1428 1351 1421 1339 1421 1323 L 1421 963 C 1421 947 1426 937 1436 931 C 1446 925 1465 920 1493 916 L 1507 913 L 1507 887 Z M 737 1247 L 713 1247 C 704 1273 692 1298 678 1321 C 663 1343 649 1356 637 1358 L 608 1360 L 549 1360 L 549 961 C 549 943 556 932 571 926 L 637 913 L 637 887 L 360 887 L 360 913 L 395 917 C 433 921 453 934 453 956 L 453 1360 L 393 1360 L 362 1358 C 348 1356 333 1342 317 1317 C 301 1291 290 1268 285 1247 L 260 1247 L 260 1399 L 737 1399 L 737 1247 Z" unicode="" />
<glyph horiz-adv-x="1188" d="M 1112 485 L 150 485 L 150 580 L 1112 580 L 1112 485 Z" unicode="" />
<glyph horiz-adv-x="1264" d="M 1223 596 C 1223 553 1208 517 1178 488 C 1148 458 1112 444 1069 444 C 1045 444 1024 448 1007 457 C 989 466 972 476 956 488 C 939 500 921 511 902 523 C 882 534 859 542 831 547 L 813 530 C 805 482 778 442 733 408 L 731 387 C 747 365 765 349 784 338 C 802 326 821 316 840 307 C 914 273 952 221 952 152 C 952 110 936 73 904 42 C 872 11 835 -4 793 -4 C 750 -4 714 10 684 40 C 654 70 639 106 639 150 C 639 166 645 196 658 238 C 670 280 676 314 676 342 L 676 365 L 662 375 L 641 373 L 621 373 C 580 373 542 385 506 410 L 479 408 C 459 378 445 337 436 283 C 428 229 410 188 383 158 C 355 128 320 113 276 113 C 234 113 197 128 166 159 C 134 189 119 226 119 270 C 119 313 135 349 167 379 C 199 409 240 424 289 424 L 319 424 C 367 424 407 433 440 451 L 446 479 C 432 508 426 537 426 567 C 426 585 428 602 432 618 L 422 645 C 410 649 392 651 367 651 C 343 651 319 648 295 644 C 270 639 250 637 236 637 C 191 637 153 652 123 683 C 93 713 78 750 78 793 C 78 834 92 870 122 902 C 151 934 188 950 233 950 C 308 950 359 908 386 826 C 398 787 408 759 416 743 C 424 726 435 711 449 698 L 479 700 C 519 741 566 762 621 762 L 643 776 C 643 803 639 827 632 847 C 624 867 616 885 608 902 C 599 919 591 936 584 953 C 576 969 573 988 573 1010 C 573 1053 588 1089 618 1117 C 648 1145 685 1159 729 1159 C 773 1159 809 1143 838 1113 C 866 1083 881 1046 881 1004 C 881 976 875 953 865 933 C 854 913 837 896 814 880 C 780 855 755 835 739 820 C 723 804 710 786 700 766 L 709 741 C 759 715 792 675 807 623 L 831 610 C 850 616 867 625 882 636 C 897 647 920 668 950 698 C 987 735 1028 754 1073 754 C 1113 754 1148 738 1178 708 C 1208 678 1223 640 1223 596 Z M 758 569 C 758 607 745 640 719 668 C 693 695 660 709 621 709 C 582 709 549 695 523 668 C 496 641 483 608 483 569 C 483 529 496 495 522 467 C 548 439 581 426 621 426 C 661 426 693 440 719 468 C 745 496 758 529 758 569 Z" unicode="" />
<glyph horiz-adv-x="1536" d="M -51 0 L 768 1536 L 999 1536 L 1327 0 L -51 0 Z M 248 147 L 1061 147 L 823 1255 L 248 147 Z" unicode="" />
<glyph horiz-adv-x="1536" d="M 184 0 L 395 1348 L 143 1348 L 172 1524 L 1612 1524 L 1583 1348 L 1335 1348 L 1124 0 L 915 0 L 1133 1356 L 604 1356 L 391 0 L 184 0 Z" unicode="" />
<glyph horiz-adv-x="1151" d="M -76 0 L -51 143 L 584 801 L 156 1360 L 184 1524 L 1196 1524 L 1167 1343 L 416 1343 L 823 788 L 236 184 L 1049 184 L 1020 0 L -76 0 Z" unicode="" />
<glyph horiz-adv-x="1188" d="M 1112 485 L 150 485 L 150 580 L 1112 580 L 1112 485 Z" unicode="" />
<glyph horiz-adv-x="696" d="M 1053 1485 L -348 -434 L -430 -381 L 971 1540 L 1053 1485 Z" unicode="" />
<glyph horiz-adv-x="578" d="M 442 557 C 442 520 429 489 403 464 C 377 438 346 426 309 426 C 271 426 240 438 214 464 C 188 490 176 521 176 557 C 176 593 189 625 215 651 C 241 677 272 690 309 690 C 345 690 377 677 403 651 C 429 625 442 593 442 557 Z" unicode="" />
<glyph horiz-adv-x="1280" d="M 80 444 L 25 612 L 369 895 L 520 256 L 1251 1548 L 1440 1548 L 483 -129 L 457 -129 L 276 608 L 80 444 Z" unicode="" />
<glyph horiz-adv-x="1536" d="M 1071 395 C 973 395 896 423 840 479 C 814 509 790 545 768 588 C 674 459 565 395 440 395 C 336 395 253 432 190 508 C 127 583 96 683 96 809 C 96 925 133 1022 207 1100 C 281 1178 368 1217 468 1217 C 616 1217 720 1154 780 1028 C 854 1154 961 1217 1100 1217 C 1198 1217 1279 1182 1345 1112 C 1411 1042 1444 945 1444 819 C 1444 699 1409 598 1340 517 C 1271 435 1181 395 1071 395 Z M 471 1049 C 408 1049 356 1026 316 982 C 276 937 256 874 256 793 C 256 709 271 648 302 610 C 332 572 381 553 449 553 C 567 553 650 638 700 809 C 653 969 577 1049 471 1049 Z M 1071 555 C 1127 555 1175 578 1217 625 C 1259 672 1280 735 1280 815 C 1280 881 1264 939 1234 988 C 1203 1036 1151 1061 1079 1061 C 1008 1061 955 1030 920 969 C 894 919 870 865 848 805 C 856 702 880 636 920 608 C 962 572 1012 555 1071 555 Z" unicode="" />
<glyph horiz-adv-x="1264" d="M 1223 596 C 1223 553 1208 517 1178 488 C 1148 458 1112 444 1069 444 C 1045 444 1024 448 1007 457 C 989 466 972 476 956 488 C 939 500 921 511 902 523 C 882 534 859 542 831 547 L 813 530 C 805 482 778 442 733 408 L 731 387 C 747 365 765 349 784 338 C 802 326 821 316 840 307 C 914 273 952 221 952 152 C 952 110 936 73 904 42 C 872 11 835 -4 793 -4 C 750 -4 714 10 684 40 C 654 70 639 106 639 150 C 639 166 645 196 658 238 C 670 280 676 314 676 342 L 676 365 L 662 375 L 641 373 L 621 373 C 580 373 542 385 506 410 L 479 408 C 459 378 445 337 436 283 C 428 229 410 188 383 158 C 355 128 320 113 276 113 C 234 113 197 128 166 159 C 134 189 119 226 119 270 C 119 313 135 349 167 379 C 199 409 240 424 289 424 L 319 424 C 367 424 407 433 440 451 L 446 479 C 432 508 426 537 426 567 C 426 585 428 602 432 618 L 422 645 C 410 649 392 651 367 651 C 343 651 319 648 295 644 C 270 639 250 637 236 637 C 191 637 153 652 123 683 C 93 713 78 750 78 793 C 78 834 92 870 122 902 C 151 934 188 950 233 950 C 308 950 359 908 386 826 C 398 787 408 759 416 743 C 424 726 435 711 449 698 L 479 700 C 519 741 566 762 621 762 L 643 776 C 643 803 639 827 632 847 C 624 867 616 885 608 902 C 599 919 591 936 584 953 C 576 969 573 988 573 1010 C 573 1053 588 1089 618 1117 C 648 1145 685 1159 729 1159 C 773 1159 809 1143 838 1113 C 866 1083 881 1046 881 1004 C 881 976 875 953 865 933 C 854 913 837 896 814 880 C 780 855 755 835 739 820 C 723 804 710 786 700 766 L 709 741 C 759 715 792 675 807 623 L 831 610 C 850 616 867 625 882 636 C 897 647 920 668 950 698 C 987 735 1028 754 1073 754 C 1113 754 1148 738 1178 708 C 1208 678 1223 640 1223 596 Z M 758 569 C 758 607 745 640 719 668 C 693 695 660 709 621 709 C 582 709 549 695 523 668 C 496 641 483 608 483 569 C 483 529 496 495 522 467 C 548 439 581 426 621 426 C 661 426 693 440 719 468 C 745 496 758 529 758 569 Z" unicode="" />
<glyph horiz-adv-x="1188" d="M 1106 131 L 1036 61 L 629 469 L 223 61 L 156 129 L 563 535 L 156 942 L 225 1012 L 633 604 L 1038 1012 L 1106 944 L 698 539 L 1106 131 Z" unicode="" />
<glyph horiz-adv-x="1536" d="M 209 403 L 209 592 L 588 592 L 797 981 L 209 981 L 209 1163 L 893 1163 L 995 1356 L 1167 1356 L 1065 1163 L 1327 1163 L 1327 981 L 969 981 L 760 592 L 1327 592 L 1327 403 L 659 403 L 549 188 L 373 188 L 487 403 L 209 403 Z" unicode="" />
<glyph horiz-adv-x="1536" d="M 1348 236 L 209 709 L 209 872 L 1348 1343 L 1348 1141 L 436 793 L 1348 440 L 1348 236 Z M 213 41 L 213 215 L 1348 215 L 1348 41 L 213 41 Z" unicode="" />
<glyph horiz-adv-x="1536" d="M 213 236 L 213 440 L 1128 793 L 213 1141 L 213 1343 L 1352 872 L 1352 709 L 213 236 Z M 213 41 L 213 215 L 1348 215 L 1348 41 L 213 41 Z" unicode="" />
</font>
</defs>
</svg>
