<?xml version="1.0" encoding="utf-8" ?><svg version="1.1" xmlns = 'http://www.w3.org/2000/svg'><defs><font id='web' horiz-adv-x="1000">
<font-face font-family="web" descent="-457" cap-height="1400" units-per-em="2048" bbox="-1158,-526,2408,2026" x-height="874" ascent="1591" />
<missing-glyph horiz-adv-x="1332" d="" /><glyph horiz-adv-x="466" d="" unicode=" " />
<glyph horiz-adv-x="620" d="M 90 1380 C 90 1389 90 1395 92 1397 C 93 1399 98 1400 108 1400 L 512 1400 C 521 1400 526 1399 528 1397 C 529 1395 530 1389 530 1380 L 450 458 C 450 448 448 443 446 441 C 443 439 437 438 428 438 L 192 438 C 182 438 176 439 174 441 C 171 443 170 448 170 458 L 90 1380 Z M 314 -22 C 264 -22 221 -5 185 29 C 148 63 130 108 130 164 C 130 216 147 260 182 297 C 216 333 260 352 314 352 C 367 352 411 333 446 296 C 480 258 498 215 498 166 C 498 140 493 116 483 94 C 473 71 459 51 443 34 C 426 16 407 3 385 -7 C 363 -17 339 -22 314 -22 Z" unicode="!" />
<glyph horiz-adv-x="880" d="M 780 1400 C 789 1400 795 1398 797 1396 C 799 1393 799 1388 798 1380 L 748 886 C 746 878 745 872 743 870 C 741 867 736 866 728 866 L 552 866 C 544 866 539 867 537 870 C 535 872 533 878 532 886 L 482 1380 C 480 1388 481 1393 483 1396 C 485 1398 490 1400 500 1400 L 780 1400 Z M 380 1400 C 389 1400 395 1398 397 1396 C 399 1393 399 1388 398 1380 L 348 886 C 346 878 345 872 343 870 C 341 867 336 866 328 866 L 152 866 C 144 866 139 867 137 870 C 135 872 133 878 132 886 L 82 1380 C 80 1388 81 1393 83 1396 C 85 1398 90 1400 100 1400 L 380 1400 Z" unicode="&#x22;" />
<glyph horiz-adv-x="1050" d="M 550 314 L 390 314 L 338 20 C 336 12 333 6 331 4 C 329 1 323 0 314 0 L 134 0 C 124 0 119 1 118 4 C 116 6 116 12 118 20 L 170 314 L 64 314 C 54 314 49 315 47 318 C 45 320 44 326 44 334 L 44 506 C 44 514 45 519 47 522 C 49 524 54 526 64 526 L 208 526 L 242 736 L 122 736 C 112 736 107 737 105 740 C 103 742 102 748 102 756 L 102 928 C 102 936 103 941 105 944 C 107 946 112 948 122 948 L 280 948 L 332 1240 C 334 1248 336 1253 338 1256 C 340 1258 346 1260 356 1260 L 536 1260 C 545 1260 550 1258 552 1256 C 554 1253 554 1248 552 1240 L 500 948 L 660 948 L 712 1240 C 714 1248 716 1253 718 1256 C 720 1258 726 1260 736 1260 L 916 1260 C 925 1260 930 1258 932 1256 C 934 1253 934 1248 932 1240 L 880 948 L 986 948 C 995 948 1001 946 1003 944 C 1005 941 1006 936 1006 928 L 1006 756 C 1006 748 1005 742 1003 740 C 1001 737 995 736 986 736 L 842 736 L 808 526 L 920 526 C 929 526 935 524 937 522 C 939 519 940 514 940 506 L 940 334 C 940 326 939 320 937 318 C 935 315 929 314 920 314 L 770 314 L 718 20 C 716 12 713 6 711 4 C 709 1 703 0 694 0 L 514 0 C 504 0 499 1 498 4 C 496 6 496 12 498 20 L 550 314 Z M 428 526 L 588 526 L 622 736 L 462 736 L 428 526 Z" unicode="#" />
<glyph horiz-adv-x="1176" d="M 730 14 C 722 12 716 11 714 10 C 711 8 710 2 710 -8 L 710 -132 C 710 -141 709 -147 707 -149 C 705 -151 699 -152 690 -152 L 504 -152 C 494 -152 489 -151 487 -149 C 485 -147 484 -141 484 -132 L 484 0 C 484 10 481 16 476 18 C 470 19 466 20 464 22 C 357 40 271 77 205 131 C 139 185 89 248 56 320 C 49 333 47 342 49 347 C 51 351 56 355 66 358 L 380 494 C 385 495 389 495 391 494 C 393 492 396 488 400 482 C 421 447 446 416 475 390 C 503 363 542 350 590 350 C 616 350 640 356 662 368 C 683 380 694 400 694 430 C 694 463 679 489 649 508 C 619 526 581 543 537 559 C 492 574 443 590 391 608 C 338 625 289 649 245 679 C 200 709 163 749 133 799 C 103 849 88 913 88 992 C 88 1041 97 1087 115 1131 C 133 1174 158 1212 192 1246 C 225 1279 265 1307 311 1330 C 357 1352 408 1369 464 1380 C 466 1381 470 1382 476 1384 C 481 1385 484 1391 484 1402 L 484 1532 C 484 1541 485 1547 487 1549 C 489 1551 494 1552 504 1552 L 690 1552 C 699 1552 705 1551 707 1549 C 709 1547 710 1541 710 1532 L 710 1400 C 710 1389 712 1383 718 1382 C 723 1380 727 1379 730 1378 C 826 1359 904 1324 965 1273 C 1025 1221 1073 1162 1108 1094 C 1114 1083 1116 1075 1114 1071 C 1111 1066 1105 1062 1096 1060 L 812 936 C 797 930 786 932 780 942 C 766 968 746 994 718 1018 C 690 1042 652 1054 606 1054 C 579 1054 556 1047 536 1035 C 516 1022 506 1002 506 976 C 506 945 521 921 552 904 C 582 886 621 870 667 856 C 713 841 763 825 817 807 C 871 789 921 764 967 733 C 1013 701 1051 660 1082 610 C 1112 559 1128 494 1128 414 C 1128 312 1095 225 1030 152 C 964 78 864 32 730 14 Z" unicode="$" />
<glyph horiz-adv-x="1704" d="M 548 1074 C 548 1090 545 1106 540 1122 C 534 1137 527 1150 517 1161 C 507 1172 494 1181 480 1188 C 466 1194 450 1198 432 1198 C 414 1198 397 1194 383 1188 C 368 1181 356 1172 346 1161 C 336 1150 328 1137 322 1122 C 316 1106 314 1090 314 1074 C 314 1056 316 1040 322 1025 C 328 1010 336 997 346 986 C 356 975 368 966 383 960 C 397 953 414 950 432 950 C 450 950 466 953 480 960 C 494 966 507 975 517 986 C 527 997 534 1010 540 1025 C 545 1040 548 1056 548 1074 Z M 80 1074 C 80 1120 88 1164 104 1206 C 120 1248 144 1284 175 1316 C 205 1348 242 1373 286 1392 C 329 1410 378 1420 432 1420 C 485 1420 533 1410 577 1392 C 620 1373 657 1348 687 1316 C 717 1284 741 1248 757 1206 C 773 1164 782 1120 782 1074 C 782 1027 773 983 757 941 C 741 899 717 863 687 831 C 657 799 620 774 577 756 C 533 737 485 728 432 728 C 378 728 329 737 286 756 C 242 774 205 799 175 831 C 144 863 120 899 104 941 C 88 983 80 1027 80 1074 Z M 528 20 C 522 10 517 5 513 3 C 509 1 503 0 494 0 L 292 0 C 281 0 276 1 276 4 C 276 7 278 12 284 20 L 1176 1380 C 1182 1389 1186 1395 1190 1397 C 1194 1399 1200 1400 1210 1400 L 1412 1400 C 1422 1400 1428 1398 1428 1396 C 1428 1392 1425 1387 1420 1380 L 528 20 Z M 1392 326 C 1392 342 1389 358 1384 374 C 1378 389 1371 402 1361 413 C 1351 424 1338 433 1324 440 C 1310 446 1294 450 1276 450 C 1258 450 1241 446 1227 440 C 1212 433 1200 424 1190 413 C 1180 402 1172 389 1166 374 C 1160 358 1158 342 1158 326 C 1158 308 1160 292 1166 277 C 1172 262 1180 249 1190 238 C 1200 227 1212 218 1227 212 C 1241 205 1258 202 1276 202 C 1294 202 1310 205 1324 212 C 1338 218 1351 227 1361 238 C 1371 249 1378 262 1384 277 C 1389 292 1392 308 1392 326 Z M 922 326 C 922 372 930 416 946 458 C 962 500 986 536 1017 568 C 1047 600 1084 625 1128 644 C 1171 662 1220 672 1274 672 C 1327 672 1375 662 1419 644 C 1462 625 1499 600 1529 568 C 1559 536 1583 500 1599 458 C 1615 416 1624 372 1624 326 C 1624 279 1615 235 1599 193 C 1583 151 1559 115 1529 83 C 1499 51 1462 26 1419 8 C 1375 -10 1327 -20 1274 -20 C 1220 -20 1171 -10 1128 8 C 1084 26 1047 51 1017 83 C 986 115 962 151 946 193 C 930 235 922 279 922 326 Z" unicode="%" />
<glyph horiz-adv-x="1286" d="M 490 558 C 487 560 484 562 482 562 C 482 562 479 560 474 558 C 451 539 435 518 427 496 C 418 473 414 451 414 430 C 414 403 418 381 428 363 C 437 345 449 330 464 319 C 478 307 494 299 511 294 C 527 288 544 286 560 286 C 605 286 638 296 658 316 C 660 318 662 321 662 324 C 662 326 660 330 658 334 L 490 558 Z M 502 1086 C 502 1063 509 1042 524 1022 C 538 1002 551 984 562 968 C 567 965 570 964 572 964 C 574 964 577 965 580 968 C 605 988 625 1008 639 1029 C 653 1049 660 1068 660 1086 C 660 1108 653 1127 640 1142 C 626 1156 606 1164 580 1164 C 557 1164 538 1156 524 1142 C 509 1127 502 1108 502 1086 Z M 1082 316 C 1078 309 1076 304 1076 302 C 1076 299 1078 294 1084 286 L 1278 26 C 1279 24 1280 22 1282 20 C 1284 14 1286 10 1286 8 C 1286 2 1280 0 1268 0 L 960 0 C 950 0 942 4 934 14 L 882 82 C 879 86 877 88 876 88 C 873 88 870 86 866 82 C 828 43 781 15 723 -2 C 665 -19 601 -28 532 -28 C 473 -28 416 -19 360 -2 C 304 15 254 41 210 77 C 166 112 130 156 104 210 C 77 263 64 325 64 396 C 64 449 69 496 81 536 C 92 576 108 611 130 641 C 151 671 176 698 205 723 C 233 747 265 772 300 796 C 305 798 308 802 308 808 C 308 812 306 815 304 818 C 273 854 246 896 224 946 C 201 995 190 1046 190 1100 C 190 1146 199 1190 219 1231 C 238 1271 265 1306 299 1336 C 333 1365 373 1388 421 1405 C 468 1421 519 1430 574 1430 C 631 1430 683 1422 731 1407 C 778 1391 818 1369 852 1340 C 885 1310 911 1275 929 1235 C 947 1194 956 1149 956 1100 C 956 1058 950 1022 939 992 C 927 961 912 933 894 908 C 875 882 853 859 828 837 C 802 815 775 792 746 770 C 740 767 738 762 738 756 C 738 750 740 745 744 740 L 858 594 C 862 588 866 586 870 586 C 875 586 878 588 880 594 C 890 616 897 639 899 662 C 901 684 903 706 906 728 C 906 738 911 744 922 744 L 1190 744 C 1202 744 1208 738 1208 728 C 1206 701 1201 669 1193 631 C 1184 593 1174 554 1162 515 C 1150 475 1136 438 1122 402 C 1107 366 1094 337 1082 316 Z" unicode="&#x26;" />
<glyph horiz-adv-x="480" d="M 380 1400 C 389 1400 395 1398 397 1396 C 399 1393 399 1388 398 1380 L 348 886 C 346 878 345 872 343 870 C 341 867 336 866 328 866 L 152 866 C 144 866 139 867 137 870 C 135 872 133 878 132 886 L 82 1380 C 80 1388 81 1393 83 1396 C 85 1398 90 1400 100 1400 L 380 1400 Z" unicode="'" />
<glyph horiz-adv-x="514" d="M 258 -278 C 232 -222 208 -160 185 -94 C 161 -27 141 43 123 119 C 105 194 90 272 80 353 C 69 433 64 515 64 598 C 64 682 69 763 80 843 C 90 922 105 998 123 1072 C 141 1145 161 1214 185 1280 C 208 1345 232 1405 258 1460 C 262 1469 266 1474 272 1474 C 276 1474 279 1473 282 1472 L 464 1390 C 470 1387 474 1383 474 1378 C 474 1374 473 1370 472 1368 C 428 1272 388 1158 353 1028 C 317 897 300 754 300 598 C 300 519 304 443 314 370 C 323 296 336 226 352 160 C 368 93 386 30 407 -28 C 427 -86 449 -140 472 -188 C 473 -190 474 -194 474 -198 C 474 -203 470 -207 464 -210 L 282 -290 C 279 -291 276 -292 272 -292 C 266 -292 262 -287 258 -278 Z" unicode="(" />
<glyph horiz-adv-x="514" d="M 256 1460 C 281 1404 305 1342 329 1276 C 352 1209 373 1138 391 1063 C 409 987 423 909 434 829 C 444 748 450 666 450 584 C 450 500 444 418 434 339 C 423 259 409 183 391 110 C 373 36 352 -32 329 -98 C 305 -163 281 -223 256 -278 C 252 -287 247 -292 242 -292 C 238 -292 234 -291 232 -290 L 50 -208 C 43 -205 40 -201 40 -196 C 40 -192 40 -188 42 -186 C 86 -90 125 23 161 154 C 196 284 214 428 214 584 C 214 662 209 738 200 812 C 190 885 178 955 162 1022 C 146 1088 127 1151 107 1210 C 86 1268 64 1322 42 1370 C 40 1372 40 1376 40 1380 C 40 1385 43 1389 50 1392 L 232 1472 C 234 1473 238 1474 242 1474 C 247 1474 252 1469 256 1460 Z" unicode=")" />
<glyph horiz-adv-x="692" d="M 256 764 C 246 764 241 765 239 768 C 237 770 236 776 236 784 L 260 944 L 252 948 L 132 844 C 126 840 121 838 118 838 C 114 838 109 842 104 852 L 14 1008 C 12 1011 11 1014 11 1016 C 10 1018 10 1020 10 1022 C 10 1024 11 1025 13 1027 C 15 1028 18 1030 22 1034 L 170 1088 L 170 1104 L 22 1160 C 14 1164 10 1167 10 1170 C 10 1173 12 1178 16 1184 L 106 1340 C 112 1348 117 1352 122 1352 C 123 1352 124 1352 126 1352 C 128 1352 130 1351 132 1350 L 254 1240 C 256 1241 257 1242 258 1243 C 259 1243 260 1244 262 1244 L 236 1406 C 236 1414 236 1419 238 1421 C 239 1423 244 1424 254 1424 L 432 1424 C 442 1424 448 1423 450 1422 C 452 1420 454 1415 454 1406 L 428 1244 C 430 1242 431 1242 432 1242 C 433 1242 434 1241 436 1240 L 560 1344 C 566 1348 570 1350 574 1350 C 578 1350 582 1346 586 1338 L 676 1182 C 680 1176 682 1170 682 1166 C 682 1162 678 1158 670 1154 L 518 1100 L 518 1088 L 668 1032 C 672 1028 675 1026 677 1025 C 679 1023 680 1022 680 1020 C 680 1018 679 1016 679 1014 C 679 1012 678 1009 676 1006 L 586 850 C 580 840 576 836 572 836 C 568 836 564 838 558 842 L 436 948 L 428 942 L 454 784 C 454 776 453 770 451 768 C 449 765 443 764 434 764 L 256 764 Z" unicode="*" />
<glyph horiz-adv-x="1080" d="M 650 608 C 650 598 651 593 653 591 C 655 589 660 588 670 588 L 990 588 C 999 588 1005 586 1007 584 C 1009 581 1010 576 1010 568 L 1010 400 C 1010 392 1009 386 1007 384 C 1005 381 999 380 990 380 L 670 380 C 660 380 655 379 653 377 C 651 375 650 369 650 360 L 650 20 C 650 12 649 6 647 4 C 645 1 639 0 630 0 L 450 0 C 440 0 435 1 433 4 C 431 6 430 12 430 20 L 430 360 C 430 369 429 375 427 377 C 425 379 419 380 410 380 L 90 380 C 80 380 75 381 73 384 C 71 386 70 392 70 400 L 70 568 C 70 576 71 581 73 584 C 75 586 80 588 90 588 L 410 588 C 419 588 425 589 427 591 C 429 593 430 598 430 608 L 430 948 C 430 956 431 961 433 964 C 435 966 440 968 450 968 L 630 968 C 639 968 645 966 647 964 C 649 961 650 956 650 948 L 650 608 Z" unicode="+" />
<glyph horiz-adv-x="500" d="M 56 214 C 56 223 57 229 59 231 C 61 233 67 234 78 234 L 360 234 C 370 234 377 232 379 230 C 381 227 380 222 378 214 L 228 -276 C 222 -289 212 -296 198 -296 L 74 -296 C 66 -296 61 -295 59 -293 C 57 -291 56 -285 56 -276 L 56 214 Z" unicode="," />
<glyph horiz-adv-x="600" d="M 80 640 C 80 649 81 655 84 657 C 86 659 92 660 100 660 L 500 660 C 509 660 515 659 517 657 C 519 655 520 649 520 640 L 520 440 C 520 430 519 425 517 423 C 515 421 509 420 500 420 L 100 420 C 90 420 85 421 83 423 C 81 425 80 430 80 440 L 80 640 Z" unicode="-" />
<glyph horiz-adv-x="500" d="M 250 -22 C 200 -22 157 -5 121 29 C 84 63 66 108 66 164 C 66 216 83 260 118 297 C 152 333 196 352 250 352 C 303 352 347 333 382 296 C 416 258 434 215 434 166 C 434 140 429 116 419 94 C 409 71 395 51 379 34 C 362 16 343 3 321 -7 C 299 -17 275 -22 250 -22 Z" unicode="." />
<glyph horiz-adv-x="1108" d="M 320 -80 C 314 -89 310 -94 307 -96 C 304 -98 299 -97 292 -94 L 108 -4 C 100 0 96 4 96 9 C 96 13 98 18 100 24 L 828 1576 C 833 1585 837 1590 840 1592 C 843 1594 848 1593 856 1590 L 1040 1500 C 1048 1496 1051 1491 1051 1487 C 1051 1482 1050 1477 1048 1472 L 320 -80 Z" unicode="/" />
<glyph horiz-adv-x="1082" d="M 1032 646 C 1032 543 1020 450 997 368 C 973 285 940 215 898 157 C 855 99 803 54 743 23 C 682 -8 614 -24 540 -24 C 465 -24 398 -8 338 23 C 278 54 226 99 184 157 C 141 215 108 285 85 368 C 61 450 50 543 50 646 C 50 748 61 841 85 923 C 108 1005 141 1074 184 1132 C 226 1189 278 1233 338 1264 C 398 1294 465 1310 540 1310 C 614 1310 682 1294 743 1264 C 803 1233 855 1189 898 1132 C 940 1074 973 1005 997 923 C 1020 841 1032 748 1032 646 Z M 380 646 C 380 603 383 563 390 526 C 396 488 406 456 419 429 C 431 401 448 380 468 364 C 488 348 512 340 540 340 C 568 340 592 348 612 364 C 632 380 648 401 661 429 C 673 456 683 488 690 526 C 696 563 700 603 700 646 C 700 687 696 726 690 764 C 683 801 673 833 661 861 C 648 888 632 910 612 926 C 592 942 568 950 540 950 C 512 950 488 942 468 926 C 448 910 431 888 419 861 C 406 833 396 801 390 764 C 383 726 380 687 380 646 Z" unicode="0" />
<glyph horiz-adv-x="580" d="M 466 20 C 466 10 465 5 463 3 C 461 1 455 0 446 0 L 138 0 C 128 0 123 1 121 3 C 119 5 118 10 118 20 L 118 1148 C 118 1158 119 1165 122 1169 C 124 1172 130 1175 138 1178 L 446 1304 C 456 1306 462 1307 464 1305 C 465 1303 466 1297 466 1288 L 466 20 Z" unicode="1" />
<glyph horiz-adv-x="1080" d="M 658 864 C 658 902 646 937 624 968 C 601 998 567 1014 522 1014 C 415 1014 362 958 362 848 L 362 814 C 362 800 355 794 342 794 L 82 794 C 70 794 63 800 62 814 C 55 882 61 946 79 1006 C 97 1066 126 1118 166 1164 C 206 1209 257 1245 319 1271 C 381 1297 452 1310 532 1310 C 608 1310 675 1299 734 1278 C 792 1256 841 1227 881 1191 C 920 1154 950 1111 971 1062 C 991 1012 1002 960 1002 904 C 1002 832 987 762 958 695 C 928 627 880 558 812 486 L 652 314 C 648 307 644 303 641 302 C 637 300 636 298 636 296 C 636 292 642 290 654 290 L 996 290 C 1005 290 1011 289 1013 287 C 1015 285 1016 279 1016 270 L 1016 20 C 1016 10 1015 5 1013 3 C 1011 1 1005 0 996 0 L 66 0 C 63 0 60 3 57 10 C 53 16 52 22 52 26 C 52 34 53 39 57 43 C 60 46 62 48 64 50 L 366 400 C 396 436 429 473 463 511 C 497 549 528 587 558 626 C 587 664 611 704 630 744 C 648 784 658 824 658 864 Z" unicode="2" />
<glyph horiz-adv-x="1040" d="M 508 -24 C 358 -24 243 12 163 85 C 82 157 42 256 42 382 L 42 400 C 42 409 43 415 45 417 C 47 419 52 420 62 420 L 338 420 C 346 420 351 418 353 416 C 355 413 356 408 358 400 C 360 360 373 327 397 303 C 420 278 453 266 496 266 C 538 266 572 277 598 301 C 623 324 636 356 636 398 C 636 438 623 471 597 498 C 571 524 532 538 482 538 L 414 538 C 403 538 397 539 395 541 C 393 543 392 548 392 558 L 392 756 C 392 764 393 769 395 771 C 397 773 403 774 414 774 L 474 774 C 515 774 548 785 573 808 C 597 830 610 863 610 906 C 610 944 598 974 575 996 C 551 1017 520 1028 482 1028 C 447 1028 418 1018 395 998 C 371 978 358 951 354 918 C 352 908 351 903 349 901 C 347 899 342 898 336 898 L 88 898 C 80 898 75 899 73 901 C 71 903 70 908 70 918 C 70 974 79 1026 99 1074 C 118 1122 146 1163 184 1198 C 221 1232 266 1260 319 1280 C 371 1300 432 1310 500 1310 C 568 1310 628 1301 682 1284 C 735 1266 780 1243 817 1213 C 853 1183 881 1147 901 1107 C 920 1066 930 1022 930 976 C 930 913 915 861 886 820 C 856 778 823 746 786 724 C 780 722 778 718 778 712 C 778 709 780 706 786 704 C 842 677 888 638 924 586 C 960 534 978 468 978 388 C 978 330 968 277 949 227 C 929 177 900 133 862 96 C 823 58 774 29 716 8 C 657 -13 588 -24 508 -24 Z" unicode="3" />
<glyph horiz-adv-x="1074" d="M 906 18 C 906 10 905 5 903 3 C 901 1 896 0 888 0 L 572 0 C 564 0 559 1 557 3 C 555 5 554 10 554 18 L 554 120 C 554 128 553 133 551 135 C 549 137 544 138 536 138 L 10 138 C -6 138 -14 148 -14 168 C -14 178 -8 191 2 206 L 850 1322 C 859 1334 870 1340 882 1340 C 898 1340 906 1334 906 1322 L 906 442 C 906 432 907 427 909 425 C 911 423 916 422 926 422 L 1006 422 C 1015 422 1021 421 1023 419 C 1025 417 1026 411 1026 402 L 1026 158 C 1026 148 1025 143 1023 141 C 1021 139 1016 138 1008 138 L 924 138 C 916 138 911 137 909 135 C 907 133 906 128 906 120 L 906 18 Z M 610 622 C 610 628 608 632 606 632 C 603 632 600 630 598 626 L 430 386 C 426 380 424 376 424 374 C 424 370 428 368 438 368 L 592 368 C 600 368 605 369 607 371 C 609 373 610 378 610 386 L 610 622 Z" unicode="4" />
<glyph horiz-adv-x="972" d="M 208 366 C 226 344 252 325 286 308 C 319 290 352 282 386 282 C 446 282 489 295 516 323 C 542 350 556 385 556 428 C 556 465 542 499 515 530 C 487 560 441 576 376 576 C 329 576 291 570 262 558 C 232 546 212 536 202 530 C 196 527 190 526 184 526 C 180 526 175 526 169 528 C 163 529 160 533 160 540 L 200 1268 C 201 1276 203 1281 206 1283 C 208 1285 214 1286 222 1286 L 850 1286 C 858 1286 863 1285 865 1283 C 867 1281 868 1276 868 1268 L 868 1014 C 868 1006 867 1001 865 999 C 863 997 858 996 850 996 L 504 996 C 494 996 488 995 486 993 C 483 991 482 986 482 978 L 472 808 C 472 800 473 795 475 793 C 477 791 482 790 492 790 L 494 790 C 559 790 617 780 668 761 C 718 741 761 714 797 680 C 832 645 859 604 877 556 C 895 508 904 456 904 400 C 904 340 893 284 872 233 C 850 181 820 137 780 99 C 740 61 691 31 634 9 C 576 -13 512 -24 440 -24 C 352 -24 272 -8 201 22 C 129 52 74 88 36 128 C 32 136 30 141 30 144 C 30 149 32 155 38 162 L 182 368 C 187 373 191 376 194 376 C 199 376 204 372 208 366 Z" unicode="5" />
<glyph horiz-adv-x="1000" d="M 580 826 C 576 822 575 819 577 817 C 579 815 582 814 586 814 C 710 799 807 755 879 683 C 950 610 986 518 986 408 C 986 348 974 292 951 240 C 927 188 895 142 853 103 C 811 63 761 32 704 10 C 646 -12 583 -24 514 -24 C 444 -24 381 -12 323 10 C 265 32 214 63 172 103 C 129 142 96 188 72 240 C 48 292 36 348 36 408 C 36 449 41 488 52 526 C 62 563 78 600 98 638 C 118 675 141 713 168 751 C 194 789 224 829 256 872 L 558 1268 C 563 1276 568 1281 572 1283 C 576 1285 582 1286 590 1286 L 930 1286 C 939 1286 944 1284 944 1282 C 944 1283 941 1278 936 1268 L 580 826 Z M 378 410 C 378 392 381 375 389 359 C 396 342 406 327 418 314 C 430 300 444 290 461 282 C 477 274 495 270 514 270 C 531 270 548 274 565 282 C 581 290 596 300 609 314 C 621 327 631 342 639 359 C 646 375 650 392 650 410 C 650 447 638 480 614 510 C 590 539 556 554 514 554 C 474 554 441 539 416 510 C 390 480 378 447 378 410 Z" unicode="6" />
<glyph horiz-adv-x="880" d="M 92 0 C 84 0 80 2 80 8 C 80 13 80 17 82 20 L 476 954 C 477 956 478 958 479 960 C 479 961 480 963 480 966 C 480 976 475 982 466 982 L 90 982 C 82 982 77 983 75 985 C 73 987 72 992 72 1000 L 72 1266 C 72 1275 73 1281 75 1283 C 77 1285 82 1286 90 1286 L 904 1286 C 912 1286 916 1283 916 1278 C 916 1275 914 1271 912 1266 L 454 18 C 450 10 446 5 444 3 C 441 1 434 0 424 0 L 92 0 Z" unicode="7" />
<glyph horiz-adv-x="1060" d="M 394 406 C 394 371 407 339 433 311 C 459 282 491 268 530 268 C 547 268 564 272 581 280 C 597 288 612 298 624 311 C 636 323 645 338 653 355 C 660 371 664 388 664 406 C 664 443 652 476 629 505 C 605 533 572 548 530 548 C 488 548 455 533 431 505 C 406 476 394 443 394 406 Z M 424 946 C 424 911 433 882 453 860 C 472 837 498 826 532 826 C 564 826 590 837 610 860 C 630 882 640 911 640 946 C 640 976 630 1003 610 1027 C 590 1050 564 1062 532 1062 C 498 1062 472 1050 453 1027 C 433 1003 424 976 424 946 Z M 532 1310 C 601 1310 662 1301 715 1284 C 767 1266 812 1242 848 1212 C 884 1181 911 1144 929 1102 C 947 1059 956 1013 956 964 C 956 900 940 848 910 809 C 879 769 844 737 806 712 C 802 709 800 706 800 702 C 800 698 802 694 806 692 C 835 677 862 660 888 642 C 913 623 935 601 954 576 C 972 550 987 522 998 491 C 1008 459 1014 424 1014 386 C 1014 328 1004 275 984 225 C 964 175 933 131 893 95 C 852 58 802 29 742 8 C 682 -13 612 -24 532 -24 C 452 -24 381 -13 321 8 C 260 29 209 58 169 95 C 128 131 97 175 77 225 C 56 275 46 328 46 386 C 46 463 66 526 107 575 C 147 623 196 662 254 692 C 258 694 260 698 260 702 C 260 706 258 709 254 712 C 215 737 181 769 151 809 C 121 848 106 900 106 964 C 106 1013 115 1059 133 1102 C 151 1144 178 1181 214 1212 C 250 1242 294 1266 348 1284 C 401 1301 462 1310 532 1310 Z" unicode="8" />
<glyph horiz-adv-x="1000" d="M 412 446 C 417 452 414 457 404 460 C 290 481 200 527 133 598 C 65 668 32 762 32 880 C 32 940 43 996 67 1048 C 90 1100 122 1145 164 1184 C 205 1222 255 1253 313 1276 C 371 1298 434 1310 504 1310 C 573 1310 637 1298 695 1276 C 753 1253 803 1222 845 1184 C 887 1145 919 1100 943 1048 C 966 996 978 940 978 880 C 978 838 972 799 962 762 C 951 724 936 687 917 650 C 897 612 874 575 848 537 C 821 499 792 458 760 416 L 458 18 C 452 10 448 5 444 3 C 440 1 434 0 426 0 L 74 0 C 64 0 60 1 60 4 C 60 2 62 7 68 18 L 412 446 Z M 638 878 C 638 914 625 946 600 975 C 574 1003 542 1018 504 1018 C 465 1018 432 1003 406 975 C 379 946 366 914 366 878 C 366 839 378 805 403 776 C 427 746 461 732 504 732 C 544 732 576 746 601 776 C 625 805 638 839 638 878 Z" unicode="9" />
<glyph horiz-adv-x="500" d="M 250 -22 C 200 -22 157 -5 121 29 C 84 63 66 108 66 164 C 66 216 83 260 118 297 C 152 333 196 352 250 352 C 303 352 347 333 382 296 C 416 258 434 215 434 166 C 434 140 429 116 419 94 C 409 71 395 51 379 34 C 362 16 343 3 321 -7 C 299 -17 275 -22 250 -22 Z M 250 538 C 200 538 157 555 121 589 C 84 623 66 668 66 724 C 66 776 83 820 118 857 C 152 893 196 912 250 912 C 303 912 347 893 382 856 C 416 818 434 775 434 726 C 434 700 429 676 419 654 C 409 631 395 611 379 594 C 362 576 343 563 321 553 C 299 543 275 538 250 538 Z" unicode=":" />
<glyph horiz-adv-x="500" d="M 250 538 C 200 538 157 555 121 589 C 84 623 66 668 66 724 C 66 776 83 820 118 857 C 152 893 196 912 250 912 C 303 912 347 893 382 856 C 416 818 434 775 434 726 C 434 700 429 676 419 654 C 409 631 395 611 379 594 C 362 576 343 563 321 553 C 299 543 275 538 250 538 Z M 100 214 C 100 223 101 229 103 231 C 105 233 111 234 122 234 L 404 234 C 414 234 421 232 423 230 C 425 227 424 222 422 214 L 272 -276 C 266 -289 256 -296 242 -296 L 118 -296 C 110 -296 105 -295 103 -293 C 101 -291 100 -285 100 -276 L 100 214 Z" unicode=";" />
<glyph horiz-adv-x="1080" d="M 344 484 C 344 482 344 481 344 479 C 344 477 346 476 348 474 L 990 230 C 998 226 1003 223 1006 220 C 1008 217 1010 211 1010 202 L 1010 16 C 1010 5 1006 0 1000 0 C 998 0 995 1 990 4 L 90 346 C 80 350 75 355 73 362 C 71 368 70 378 70 390 L 70 576 C 70 588 71 596 73 601 C 75 605 80 610 90 614 L 990 964 C 995 966 998 968 1000 968 C 1006 968 1010 962 1010 952 L 1010 766 C 1010 756 1008 750 1006 747 C 1003 744 998 741 990 738 L 348 494 C 346 492 344 490 344 488 C 344 486 344 485 344 484 Z" unicode="&#x3C;" />
<glyph horiz-adv-x="1080" d="M 990 776 C 999 776 1005 774 1007 772 C 1009 769 1010 764 1010 756 L 1010 588 C 1010 580 1009 574 1007 572 C 1005 569 999 568 990 568 L 90 568 C 80 568 75 569 73 572 C 71 574 70 580 70 588 L 70 756 C 70 764 71 769 73 772 C 75 774 80 776 90 776 L 990 776 Z M 990 399 C 999 399 1005 397 1007 395 C 1009 392 1010 387 1010 379 L 1010 211 C 1010 203 1009 197 1007 195 C 1005 192 999 191 990 191 L 90 191 C 80 191 75 192 73 195 C 71 197 70 203 70 211 L 70 379 C 70 387 71 392 73 395 C 75 397 80 399 90 399 L 990 399 Z" unicode="=" />
<glyph horiz-adv-x="1080" d="M 736 484 C 736 485 735 486 735 488 C 735 490 734 492 732 494 L 90 738 C 82 741 76 744 74 747 C 71 750 70 756 70 766 L 70 952 C 70 962 73 968 80 968 C 81 968 84 966 90 964 L 990 614 C 999 610 1005 605 1007 601 C 1009 596 1010 588 1010 576 L 1010 390 C 1010 378 1009 368 1007 362 C 1005 355 999 350 990 346 L 90 4 C 84 1 81 0 80 0 C 73 0 70 5 70 16 L 70 202 C 70 211 71 217 74 220 C 76 223 82 226 90 230 L 732 474 C 734 476 735 477 735 479 C 735 481 736 482 736 484 Z" unicode="&#x3E;" />
<glyph horiz-adv-x="954" d="M 318 438 C 308 438 303 439 301 441 C 299 443 298 448 298 458 L 298 486 C 298 555 311 614 338 662 C 364 710 394 753 426 791 C 458 829 487 863 514 895 C 540 926 554 959 554 994 C 554 1024 544 1049 526 1069 C 507 1088 479 1098 442 1098 C 404 1098 376 1085 358 1061 C 339 1036 330 1006 330 972 C 330 962 329 957 327 955 C 325 953 319 952 310 952 L 32 952 C 22 952 17 953 15 955 C 13 957 12 962 12 972 L 12 1008 C 12 1073 24 1132 48 1185 C 72 1237 105 1282 149 1319 C 192 1355 243 1383 302 1403 C 360 1422 424 1432 492 1432 C 570 1432 638 1421 695 1399 C 751 1377 798 1348 836 1313 C 873 1277 900 1237 918 1192 C 935 1146 944 1101 944 1056 C 944 1002 935 955 918 915 C 900 874 878 838 852 807 C 825 775 796 747 766 722 C 735 696 706 671 680 647 C 653 622 631 597 614 572 C 596 546 588 518 588 488 L 588 458 C 588 448 587 443 585 441 C 583 439 577 438 568 438 L 318 438 Z M 456 -22 C 406 -22 363 -5 327 29 C 290 63 272 108 272 164 C 272 216 289 260 324 297 C 358 333 402 352 456 352 C 509 352 553 333 588 296 C 622 258 640 215 640 166 C 640 140 635 116 625 94 C 615 71 601 51 585 34 C 568 16 549 3 527 -7 C 505 -17 481 -22 456 -22 Z" unicode="?" />
<glyph horiz-adv-x="1516" d="M 726 312 C 771 312 804 328 825 360 C 845 392 856 428 856 468 C 856 502 847 530 830 551 C 812 571 788 582 758 582 C 712 582 679 566 659 536 C 638 505 628 470 628 430 C 628 399 636 372 654 348 C 671 324 695 312 726 312 Z M 894 162 C 892 166 890 168 886 168 C 883 168 880 166 878 162 C 851 128 820 102 786 82 C 751 62 703 52 642 52 C 600 52 563 60 529 78 C 495 95 465 120 441 152 C 416 184 397 222 384 266 C 370 310 364 358 364 412 C 364 470 371 526 385 578 C 399 630 419 675 447 715 C 474 754 509 785 551 808 C 593 830 642 842 698 842 C 747 842 788 831 820 811 C 852 790 875 762 890 726 C 891 722 894 720 898 720 C 902 720 904 722 906 726 L 922 810 C 924 819 927 825 930 827 C 932 829 938 830 948 830 L 1132 830 C 1144 830 1150 827 1150 822 L 1148 810 C 1130 706 1117 622 1107 560 C 1097 497 1089 449 1084 415 C 1078 381 1075 357 1074 343 C 1072 329 1072 318 1072 310 C 1072 267 1094 246 1138 246 C 1178 246 1214 269 1247 317 C 1279 364 1296 436 1296 532 C 1296 612 1283 681 1259 739 C 1234 797 1200 845 1156 883 C 1112 921 1059 949 998 968 C 936 986 870 996 798 996 C 719 996 646 981 580 953 C 513 924 455 885 407 836 C 358 786 320 728 292 662 C 264 595 250 523 250 446 C 250 262 301 122 405 27 C 508 -68 650 -116 832 -116 C 910 -116 986 -105 1060 -84 C 1133 -62 1190 -31 1232 10 C 1236 12 1240 14 1244 14 C 1249 14 1252 9 1252 0 L 1252 -198 C 1252 -211 1236 -224 1206 -238 C 1175 -251 1138 -263 1095 -274 C 1051 -284 1006 -293 959 -300 C 911 -306 870 -310 836 -310 C 722 -310 617 -292 521 -258 C 424 -223 340 -173 270 -108 C 199 -42 144 36 104 130 C 64 223 44 328 44 446 C 44 551 64 649 106 740 C 147 830 203 909 273 976 C 343 1042 423 1094 515 1132 C 606 1169 702 1188 804 1188 C 905 1188 998 1173 1082 1144 C 1166 1114 1238 1073 1300 1019 C 1361 965 1409 899 1443 823 C 1477 746 1494 661 1494 568 C 1494 490 1483 420 1461 357 C 1439 293 1409 239 1371 194 C 1333 148 1287 113 1235 89 C 1182 64 1125 52 1064 52 C 1025 52 990 61 958 81 C 926 100 904 127 894 162 Z" unicode="@" />
<glyph horiz-adv-x="1360" d="M 882 154 C 878 163 874 169 872 171 C 869 173 864 174 858 174 L 498 174 C 492 174 488 173 484 171 C 480 169 476 163 472 154 L 414 20 C 408 6 400 0 390 0 L -8 0 C -16 0 -20 2 -20 6 C -20 10 -18 14 -16 20 L 646 1420 C 651 1433 662 1440 680 1440 C 697 1440 708 1433 714 1420 L 1376 20 C 1378 14 1380 10 1380 6 C 1380 2 1376 0 1368 0 L 964 0 C 953 0 945 6 940 20 L 882 154 Z M 796 454 L 796 456 C 794 457 794 458 794 460 L 688 732 C 685 736 681 738 676 738 C 669 738 665 736 664 732 L 562 462 L 560 456 C 560 450 566 448 580 448 L 778 448 C 790 448 796 450 796 454 Z" unicode="A" />
<glyph horiz-adv-x="1284" d="M 100 1380 C 100 1389 101 1395 103 1397 C 105 1399 110 1400 120 1400 L 682 1400 C 770 1400 843 1389 901 1369 C 959 1348 1005 1321 1041 1289 C 1076 1256 1101 1218 1115 1176 C 1129 1133 1136 1090 1136 1046 C 1136 990 1122 939 1095 894 C 1067 848 1034 812 996 786 C 990 782 988 778 988 774 C 988 770 990 766 996 764 C 1022 752 1050 735 1078 715 C 1106 694 1131 668 1153 638 C 1175 607 1193 572 1207 533 C 1221 493 1228 449 1228 400 C 1228 328 1216 266 1194 216 C 1171 165 1139 124 1098 92 C 1056 60 1006 36 948 22 C 889 7 824 0 752 0 L 120 0 C 110 0 105 1 103 3 C 101 5 100 10 100 20 L 100 1380 Z M 618 300 C 684 300 733 311 763 334 C 793 356 808 395 808 450 C 808 504 791 542 758 564 C 724 585 674 596 608 596 L 520 596 C 510 596 505 595 503 593 C 501 591 500 585 500 576 L 500 320 C 500 310 501 305 503 303 C 505 301 510 300 520 300 L 618 300 Z M 500 884 C 500 874 501 869 503 867 C 505 865 510 864 520 864 L 600 864 C 650 864 689 873 715 893 C 741 912 754 945 754 992 C 754 1077 702 1120 600 1120 L 520 1120 C 510 1120 505 1119 503 1117 C 501 1115 500 1109 500 1100 L 500 884 Z" unicode="B" />
<glyph horiz-adv-x="1262" d="M 788 -32 C 676 -32 575 -12 485 26 C 395 64 318 117 255 183 C 191 249 142 326 108 415 C 73 503 56 598 56 700 C 56 796 73 888 107 977 C 141 1065 189 1143 253 1211 C 316 1278 393 1332 483 1372 C 573 1412 674 1432 788 1432 C 858 1432 926 1424 991 1409 C 1055 1393 1112 1374 1160 1350 C 1170 1344 1176 1338 1176 1330 L 1176 918 C 1176 908 1173 904 1168 904 C 1164 904 1160 905 1158 908 C 1119 946 1071 975 1013 995 C 955 1014 892 1024 824 1024 C 709 1024 622 994 564 934 C 505 874 476 796 476 700 C 476 604 505 526 563 466 C 621 406 707 376 822 376 C 890 376 953 385 1012 405 C 1070 424 1119 453 1158 492 C 1160 494 1164 496 1168 496 C 1173 496 1176 491 1176 482 L 1176 70 C 1176 62 1170 55 1160 50 C 1112 26 1055 6 991 -9 C 926 -24 858 -32 788 -32 Z" unicode="C" />
<glyph horiz-adv-x="1336" d="M 520 1010 C 510 1010 505 1009 503 1007 C 501 1005 500 999 500 990 L 500 410 C 500 400 501 395 503 393 C 505 391 510 390 520 390 L 594 390 C 771 390 860 493 860 700 C 860 906 771 1010 594 1010 L 520 1010 Z M 120 0 C 110 0 105 1 103 3 C 101 5 100 10 100 20 L 100 1380 C 100 1389 101 1395 103 1397 C 105 1399 110 1400 120 1400 L 588 1400 C 673 1400 748 1391 814 1375 C 879 1358 935 1335 982 1306 C 1079 1246 1153 1162 1204 1056 C 1254 949 1280 830 1280 700 C 1280 628 1271 558 1255 492 C 1238 425 1213 363 1181 307 C 1148 250 1108 200 1060 157 C 1012 113 956 78 892 52 C 850 34 803 21 749 13 C 695 4 641 0 588 0 L 120 0 Z" unicode="D" />
<glyph horiz-adv-x="1120" d="M 100 1380 C 100 1389 101 1395 103 1397 C 105 1399 110 1400 120 1400 L 1020 1400 C 1029 1400 1035 1399 1037 1397 C 1039 1395 1040 1389 1040 1380 L 1040 1092 C 1040 1082 1039 1077 1037 1075 C 1035 1073 1029 1072 1020 1072 L 530 1072 C 520 1072 515 1071 513 1069 C 511 1067 510 1061 510 1052 L 510 864 C 510 854 511 849 513 847 C 515 845 520 844 530 844 L 1000 844 C 1009 844 1015 843 1017 841 C 1019 839 1020 833 1020 824 L 1020 548 C 1020 538 1019 533 1017 531 C 1015 529 1009 528 1000 528 L 530 528 C 520 528 515 527 513 525 C 511 523 510 517 510 508 L 510 348 C 510 338 511 333 513 331 C 515 329 520 328 530 328 L 1030 328 C 1039 328 1045 327 1047 325 C 1049 323 1050 317 1050 308 L 1050 20 C 1050 10 1049 5 1047 3 C 1045 1 1039 0 1030 0 L 120 0 C 110 0 105 1 103 3 C 101 5 100 10 100 20 L 100 1380 Z" unicode="E" />
<glyph horiz-adv-x="1040" d="M 100 1380 C 100 1389 101 1395 103 1397 C 105 1399 110 1400 120 1400 L 970 1400 C 979 1400 985 1399 987 1397 C 989 1395 990 1389 990 1380 L 990 1080 C 990 1070 989 1065 987 1063 C 985 1061 979 1060 970 1060 L 530 1060 C 520 1060 515 1059 513 1057 C 511 1055 510 1049 510 1040 L 510 810 C 510 800 511 795 513 793 C 515 791 520 790 530 790 L 950 790 C 959 790 965 789 967 787 C 969 785 970 779 970 770 L 970 482 C 970 472 969 467 967 465 C 965 463 959 462 950 462 L 530 462 C 520 462 515 461 513 459 C 511 457 510 451 510 442 L 510 20 C 510 10 509 5 507 3 C 505 1 499 0 490 0 L 120 0 C 110 0 105 1 103 3 C 101 5 100 10 100 20 L 100 1380 Z" unicode="F" />
<glyph horiz-adv-x="1356" d="M 1256 826 C 1265 826 1271 823 1273 819 C 1275 814 1276 810 1276 806 L 1276 72 C 1276 64 1270 57 1260 52 C 1212 28 1148 8 1069 -8 C 989 -24 904 -32 812 -32 C 694 -32 589 -13 496 24 C 402 61 323 112 258 178 C 192 243 142 320 108 410 C 73 499 56 596 56 700 C 56 796 74 888 110 977 C 146 1065 196 1143 262 1211 C 327 1278 406 1332 498 1372 C 590 1412 692 1432 806 1432 C 876 1432 945 1424 1012 1409 C 1078 1393 1136 1374 1184 1350 C 1194 1344 1200 1338 1200 1330 L 1200 962 C 1200 952 1197 948 1192 948 C 1188 948 1184 949 1182 952 C 1139 985 1090 1011 1035 1031 C 979 1050 916 1060 844 1060 C 784 1060 731 1049 685 1029 C 639 1008 600 980 568 946 C 536 911 512 871 496 825 C 480 779 472 730 472 680 C 472 628 479 579 494 535 C 508 490 531 451 561 419 C 591 386 628 361 672 343 C 716 325 767 316 826 316 C 855 316 879 317 898 320 C 916 322 926 329 926 340 L 926 498 C 926 507 925 513 923 515 C 921 517 915 518 906 518 L 772 518 C 762 518 757 519 755 521 C 753 523 752 528 752 538 L 752 806 C 752 815 753 821 755 823 C 757 825 762 826 772 826 L 1256 826 Z" unicode="G" />
<glyph horiz-adv-x="1340" d="M 1240 20 C 1240 10 1239 5 1237 3 C 1235 1 1229 0 1220 0 L 850 0 C 840 0 835 1 833 3 C 831 5 830 10 830 20 L 830 488 C 830 497 829 503 827 505 C 825 507 819 508 810 508 L 530 508 C 520 508 515 507 513 505 C 511 503 510 497 510 488 L 510 20 C 510 10 509 5 507 3 C 505 1 499 0 490 0 L 120 0 C 110 0 105 1 103 3 C 101 5 100 10 100 20 L 100 1380 C 100 1389 101 1395 103 1397 C 105 1399 110 1400 120 1400 L 490 1400 C 499 1400 505 1399 507 1397 C 509 1395 510 1389 510 1380 L 510 884 C 510 874 511 869 513 867 C 515 865 520 864 530 864 L 810 864 C 819 864 825 865 827 867 C 829 869 830 874 830 884 L 830 1380 C 830 1389 831 1395 833 1397 C 835 1399 840 1400 850 1400 L 1220 1400 C 1229 1400 1235 1399 1237 1397 C 1239 1395 1240 1389 1240 1380 L 1240 20 Z" unicode="H" />
<glyph horiz-adv-x="610" d="M 100 1380 C 100 1389 101 1395 103 1397 C 105 1399 110 1400 120 1400 L 490 1400 C 499 1400 505 1399 507 1397 C 509 1395 510 1389 510 1380 L 510 20 C 510 10 509 5 507 3 C 505 1 499 0 490 0 L 120 0 C 110 0 105 1 103 3 C 101 5 100 10 100 20 L 100 1380 Z" unicode="I" />
<glyph horiz-adv-x="784" d="M 684 338 C 684 223 648 134 576 71 C 504 7 403 -24 274 -24 C 230 -24 190 -22 155 -19 C 119 -15 86 -11 56 -6 C 48 -3 42 -1 40 1 C 37 3 36 8 36 18 L 36 328 C 36 341 42 346 56 344 C 65 341 78 338 96 335 C 113 331 130 330 146 330 C 184 330 215 339 239 359 C 262 378 274 414 274 466 L 274 1380 C 274 1389 275 1395 277 1397 C 279 1399 284 1400 294 1400 L 664 1400 C 673 1400 679 1399 681 1397 C 683 1395 684 1389 684 1380 L 684 338 Z" unicode="J" />
<glyph horiz-adv-x="1332" d="M 500 20 C 500 10 499 5 497 3 C 495 1 489 0 480 0 L 120 0 C 110 0 105 1 103 3 C 101 5 100 10 100 20 L 100 1380 C 100 1389 101 1395 103 1397 C 105 1399 110 1400 120 1400 L 480 1400 C 489 1400 495 1399 497 1397 C 499 1395 500 1389 500 1380 L 500 902 C 500 892 504 888 512 888 C 520 888 526 891 530 898 L 798 1380 C 804 1388 809 1393 812 1396 C 814 1398 820 1400 830 1400 L 1252 1400 C 1262 1400 1268 1398 1268 1394 C 1268 1392 1265 1388 1260 1380 L 892 766 C 889 763 888 760 888 756 C 888 752 889 748 892 746 L 1314 20 C 1320 10 1324 5 1324 4 C 1324 1 1318 0 1306 0 L 886 0 C 876 0 871 1 869 3 C 867 5 862 10 854 20 L 532 594 C 528 599 522 602 516 602 C 505 602 500 597 500 588 L 500 20 Z" unicode="K" />
<glyph horiz-adv-x="1036" d="M 100 1380 C 100 1389 101 1395 103 1397 C 105 1399 110 1400 120 1400 L 490 1400 C 499 1400 505 1399 507 1397 C 509 1395 510 1389 510 1380 L 510 390 C 510 380 511 375 513 373 C 515 371 520 370 530 370 L 980 370 C 989 370 995 369 997 367 C 999 365 1000 359 1000 350 L 1000 20 C 1000 10 999 5 997 3 C 995 1 989 0 980 0 L 120 0 C 110 0 105 1 103 3 C 101 5 100 10 100 20 L 100 1380 Z" unicode="L" />
<glyph horiz-adv-x="1572" d="M 1472 20 C 1472 10 1471 5 1469 3 C 1467 1 1461 0 1452 0 L 1112 0 C 1102 0 1097 1 1095 3 C 1093 5 1092 10 1092 20 L 1092 534 C 1092 542 1086 546 1076 546 C 1070 546 1066 544 1062 540 L 812 280 C 805 273 796 270 786 270 C 775 270 766 273 760 280 L 510 540 C 506 544 501 546 496 546 C 485 546 480 542 480 534 L 480 20 C 480 10 479 5 477 3 C 475 1 469 0 460 0 L 120 0 C 110 0 105 1 103 3 C 101 5 100 10 100 20 L 100 1426 C 100 1435 105 1440 116 1440 C 118 1440 121 1439 124 1439 C 126 1438 131 1435 138 1430 L 774 786 C 779 780 783 778 786 778 C 788 778 792 780 798 786 L 1434 1430 C 1440 1435 1445 1438 1448 1439 C 1450 1439 1453 1440 1456 1440 C 1466 1440 1472 1435 1472 1426 L 1472 20 Z" unicode="M" />
<glyph horiz-adv-x="1264" d="M 516 568 C 512 572 507 574 502 574 C 491 574 486 570 486 562 L 486 20 C 486 10 485 5 483 3 C 481 1 475 0 466 0 L 116 0 C 106 0 101 1 99 3 C 97 5 96 10 96 20 L 96 1426 C 96 1435 100 1440 110 1440 C 112 1440 115 1439 119 1439 C 122 1438 127 1435 134 1430 L 748 828 C 752 824 756 822 762 822 C 772 822 778 826 778 834 L 778 1380 C 778 1389 779 1395 781 1397 C 783 1399 788 1400 798 1400 L 1148 1400 C 1157 1400 1163 1399 1165 1397 C 1167 1395 1168 1389 1168 1380 L 1168 -26 C 1168 -35 1163 -40 1154 -40 C 1144 -40 1136 -36 1130 -30 L 516 568 Z" unicode="N" />
<glyph horiz-adv-x="1540" d="M 1484 700 C 1484 600 1465 505 1429 417 C 1392 328 1341 250 1277 184 C 1212 117 1136 64 1050 26 C 963 -12 870 -32 770 -32 C 670 -32 576 -12 490 26 C 403 64 327 117 263 184 C 198 250 147 328 111 417 C 74 505 56 600 56 700 C 56 800 74 894 111 983 C 147 1071 198 1149 263 1216 C 327 1282 403 1335 490 1374 C 576 1412 670 1432 770 1432 C 870 1432 963 1412 1050 1374 C 1136 1335 1212 1282 1277 1216 C 1341 1149 1392 1071 1429 983 C 1465 894 1484 800 1484 700 Z M 476 700 C 476 654 483 612 497 573 C 511 533 530 499 556 470 C 581 440 612 417 648 401 C 684 384 724 376 770 376 C 815 376 856 384 892 401 C 928 417 958 440 984 470 C 1009 499 1029 533 1043 573 C 1057 612 1064 654 1064 700 C 1064 745 1057 787 1043 827 C 1029 866 1009 900 984 930 C 958 959 928 982 892 999 C 856 1015 815 1024 770 1024 C 724 1024 684 1015 648 999 C 612 982 581 959 556 930 C 530 900 511 866 497 827 C 483 787 476 745 476 700 Z" unicode="O" />
<glyph horiz-adv-x="1234" d="M 100 1380 C 100 1389 101 1395 103 1397 C 105 1399 110 1400 120 1400 L 682 1400 C 738 1400 791 1395 843 1385 C 894 1375 940 1358 982 1336 C 1050 1297 1103 1243 1141 1173 C 1179 1103 1198 1018 1198 920 C 1198 844 1185 775 1160 714 C 1134 652 1099 600 1054 557 C 1008 513 954 480 892 457 C 829 433 761 422 688 422 L 520 422 C 510 422 505 421 503 419 C 501 417 500 411 500 402 L 500 20 C 500 10 499 5 497 3 C 495 1 489 0 480 0 L 120 0 C 110 0 105 1 103 3 C 101 5 100 10 100 20 L 100 1380 Z M 520 1080 C 510 1080 505 1079 503 1077 C 501 1075 500 1069 500 1060 L 500 760 C 500 750 501 745 503 743 C 505 741 510 740 520 740 L 612 740 C 666 740 710 754 743 782 C 775 810 792 852 792 910 C 792 964 777 1006 749 1036 C 720 1065 674 1080 612 1080 L 520 1080 Z" unicode="P" />
<glyph horiz-adv-x="1592" d="M 770 -32 C 670 -32 576 -12 490 26 C 403 64 327 117 263 184 C 198 250 147 328 111 417 C 74 505 56 600 56 700 C 56 800 74 894 111 983 C 147 1071 198 1149 263 1216 C 327 1282 403 1335 490 1374 C 576 1412 670 1432 770 1432 C 870 1432 963 1412 1050 1374 C 1136 1335 1212 1282 1277 1216 C 1341 1149 1392 1071 1429 983 C 1465 894 1484 800 1484 700 C 1484 654 1480 613 1473 576 C 1465 538 1456 504 1445 472 C 1433 440 1420 411 1406 385 C 1391 359 1376 334 1362 310 C 1358 306 1356 302 1356 298 C 1356 292 1364 290 1382 290 L 1552 296 C 1561 296 1567 295 1569 293 C 1571 291 1572 285 1572 276 L 1572 16 C 1572 6 1571 1 1569 -1 C 1567 -3 1561 -4 1552 -4 L 1150 4 C 1119 2 1090 0 1063 -4 C 1035 -8 1007 -12 978 -16 C 948 -20 917 -23 884 -27 C 850 -30 812 -32 770 -32 Z M 476 700 C 476 654 483 612 497 573 C 511 533 530 499 556 470 C 581 440 612 417 648 401 C 684 384 724 376 770 376 C 815 376 856 384 892 401 C 928 417 958 440 984 470 C 1009 499 1029 533 1043 573 C 1057 612 1064 654 1064 700 C 1064 745 1057 787 1043 827 C 1029 866 1009 900 984 930 C 958 959 928 982 892 999 C 856 1015 815 1024 770 1024 C 724 1024 684 1015 648 999 C 612 982 581 959 556 930 C 530 900 511 866 497 827 C 483 787 476 745 476 700 Z" unicode="Q" />
<glyph horiz-adv-x="1302" d="M 510 1080 C 500 1080 495 1079 493 1077 C 491 1075 490 1069 490 1060 L 490 732 C 490 722 491 717 493 715 C 495 713 500 712 510 712 L 618 712 C 672 712 715 728 746 761 C 776 793 792 838 792 896 C 792 950 778 995 752 1029 C 725 1063 680 1080 618 1080 L 510 1080 Z M 506 420 C 495 420 490 411 490 394 L 490 20 C 490 10 489 5 487 3 C 485 1 479 0 470 0 L 110 0 C 100 0 95 1 93 3 C 91 5 90 10 90 20 L 90 1380 C 90 1389 91 1395 93 1397 C 95 1399 100 1400 110 1400 L 652 1400 C 726 1400 796 1391 862 1373 C 927 1355 984 1326 1034 1288 C 1083 1249 1122 1199 1150 1139 C 1178 1078 1192 1005 1192 920 C 1192 866 1184 818 1169 775 C 1153 731 1133 693 1109 660 C 1084 626 1055 597 1023 573 C 990 548 956 528 920 512 C 914 510 912 507 912 502 C 912 500 913 497 916 492 L 1284 20 C 1288 13 1290 8 1290 6 C 1290 2 1284 0 1272 0 L 850 0 C 840 0 834 1 831 4 C 827 6 823 12 818 20 L 540 394 C 528 411 516 420 506 420 Z" unicode="R" />
<glyph horiz-adv-x="1218" d="M 1160 400 C 1160 340 1149 283 1129 231 C 1108 178 1076 132 1033 94 C 989 55 935 24 869 2 C 803 -20 724 -32 632 -32 C 556 -32 486 -23 424 -7 C 361 9 305 32 257 61 C 208 89 166 123 132 163 C 97 202 69 245 48 292 C 41 305 39 314 41 319 C 43 323 48 327 58 330 L 386 474 C 392 475 397 475 399 474 C 401 472 404 468 410 462 C 431 426 456 393 485 365 C 513 336 552 322 602 322 C 630 322 654 328 674 341 C 694 353 704 375 704 406 C 704 440 689 468 660 490 C 630 511 593 531 549 549 C 504 567 456 586 404 606 C 352 626 303 652 259 685 C 214 717 177 759 148 810 C 118 860 104 926 104 1006 C 104 1067 116 1124 140 1176 C 164 1228 198 1273 243 1311 C 287 1349 341 1378 405 1400 C 468 1421 539 1432 618 1432 C 686 1432 748 1424 805 1408 C 861 1392 912 1370 958 1342 C 1003 1314 1043 1281 1077 1243 C 1111 1205 1138 1164 1160 1122 C 1166 1111 1168 1103 1166 1099 C 1163 1094 1157 1090 1148 1088 L 850 956 C 835 950 824 952 818 962 C 803 990 782 1017 754 1043 C 726 1069 687 1082 638 1082 C 610 1082 586 1075 568 1061 C 549 1047 540 1026 540 1000 C 540 966 555 940 586 921 C 616 901 655 883 701 867 C 747 850 796 832 850 812 C 903 792 953 765 999 732 C 1045 698 1083 655 1114 603 C 1144 550 1160 482 1160 400 Z" unicode="S" />
<glyph horiz-adv-x="1102" d="M 40 1380 C 40 1389 41 1395 43 1397 C 45 1399 50 1400 60 1400 L 1042 1400 C 1051 1400 1057 1399 1059 1397 C 1061 1395 1062 1389 1062 1380 L 1062 1070 C 1062 1060 1061 1055 1059 1053 C 1057 1051 1051 1050 1042 1050 L 776 1050 C 766 1050 761 1049 759 1047 C 757 1045 756 1039 756 1030 L 756 20 C 756 10 755 5 753 3 C 751 1 745 0 736 0 L 366 0 C 356 0 351 1 349 3 C 347 5 346 10 346 20 L 346 1030 C 346 1039 345 1045 343 1047 C 341 1049 335 1050 326 1050 L 60 1050 C 50 1050 45 1051 43 1053 C 41 1055 40 1060 40 1070 L 40 1380 Z" unicode="T" />
<glyph horiz-adv-x="1332" d="M 822 1380 C 822 1389 823 1395 825 1397 C 827 1399 832 1400 842 1400 L 1212 1400 C 1221 1400 1227 1399 1229 1397 C 1231 1395 1232 1389 1232 1380 L 1232 424 C 1232 348 1215 281 1182 224 C 1148 166 1105 119 1052 81 C 998 43 938 14 870 -4 C 802 -22 734 -32 666 -32 C 598 -32 530 -22 462 -4 C 394 14 333 43 280 81 C 226 119 183 166 150 224 C 116 281 100 348 100 424 L 100 1380 C 100 1389 101 1395 103 1397 C 105 1399 110 1400 120 1400 L 490 1400 C 499 1400 505 1399 507 1397 C 509 1395 510 1389 510 1380 L 510 538 C 510 507 514 481 524 460 C 533 438 545 421 560 408 C 574 394 591 384 610 378 C 628 371 647 368 666 368 C 686 368 705 371 724 378 C 742 384 759 394 774 408 C 788 421 800 438 809 460 C 817 481 822 507 822 538 L 822 1380 Z" unicode="U" />
<glyph horiz-adv-x="1372" d="M 676 768 C 677 764 681 762 688 762 C 693 762 697 764 700 768 L 980 1380 C 985 1393 993 1400 1004 1400 L 1400 1400 C 1408 1400 1412 1398 1412 1394 C 1412 1390 1410 1385 1408 1380 L 716 -32 C 714 -34 710 -36 704 -38 C 697 -39 691 -40 686 -40 C 680 -40 674 -39 668 -38 C 661 -36 657 -34 656 -32 L -36 1380 C -38 1385 -40 1390 -40 1394 C -40 1398 -36 1400 -28 1400 L 370 1400 C 380 1400 388 1393 394 1380 L 676 768 Z" unicode="V" />
<glyph horiz-adv-x="1968" d="M 996 648 C 993 652 989 654 984 654 C 977 654 973 652 972 648 L 670 -32 C 668 -34 664 -36 658 -38 C 651 -39 645 -40 640 -40 C 634 -40 628 -39 622 -38 C 615 -36 611 -34 610 -32 L -26 1380 C -28 1385 -30 1390 -30 1394 C -30 1398 -26 1400 -18 1400 L 370 1400 C 380 1400 388 1393 394 1380 L 646 786 C 647 782 651 780 658 780 C 663 780 667 782 670 786 L 954 1420 C 959 1433 969 1440 984 1440 C 998 1440 1008 1433 1014 1420 L 1298 786 C 1299 782 1303 780 1310 780 C 1315 780 1319 782 1322 786 L 1574 1380 C 1579 1393 1587 1400 1598 1400 L 1986 1400 C 1994 1400 1998 1398 1998 1394 C 1998 1390 1996 1385 1994 1380 L 1358 -32 C 1356 -34 1352 -36 1344 -38 C 1336 -39 1330 -40 1328 -40 C 1325 -40 1320 -39 1312 -38 C 1304 -36 1299 -34 1298 -32 L 996 648 Z" unicode="W" />
<glyph horiz-adv-x="1368" d="M -8 0 C -16 0 -20 2 -20 8 C -20 10 -18 14 -16 20 L 392 694 C 394 699 396 703 396 706 C 396 708 394 712 392 718 L 8 1380 C 5 1385 4 1389 4 1392 C 4 1397 8 1400 16 1400 L 460 1400 C 470 1400 479 1393 486 1380 L 674 1000 C 675 996 678 994 684 994 C 688 994 691 996 694 1000 L 892 1380 C 897 1389 901 1395 904 1397 C 906 1399 911 1400 918 1400 L 1360 1400 C 1368 1400 1372 1397 1372 1392 C 1372 1389 1370 1385 1368 1380 L 976 718 C 973 712 972 708 972 706 C 972 703 973 699 976 694 L 1384 20 C 1386 14 1388 10 1388 8 C 1388 2 1384 0 1376 0 L 930 0 C 919 0 910 6 904 20 L 690 402 C 687 406 684 408 680 408 C 674 408 671 406 670 402 L 462 20 C 456 10 452 5 450 3 C 447 1 442 0 436 0 L -8 0 Z" unicode="X" />
<glyph horiz-adv-x="1294" d="M 442 566 L -16 1380 C -18 1385 -20 1389 -20 1392 C -20 1397 -16 1400 -8 1400 L 400 1400 C 410 1400 419 1393 426 1380 L 642 976 C 643 972 646 970 652 970 C 656 970 659 972 662 976 L 878 1380 C 883 1389 887 1395 890 1397 C 892 1399 897 1400 904 1400 L 1302 1400 C 1310 1400 1314 1397 1314 1392 C 1314 1389 1312 1385 1310 1380 L 852 566 L 852 20 C 852 10 851 5 849 3 C 847 1 841 0 832 0 L 462 0 C 452 0 447 1 445 3 C 443 5 442 10 442 20 L 442 566 Z" unicode="Y" />
<glyph horiz-adv-x="1094" d="M 602 380 C 599 374 598 368 598 362 C 598 354 602 350 610 350 L 996 350 C 1005 350 1011 349 1013 347 C 1015 345 1016 339 1016 330 L 1016 20 C 1016 10 1015 5 1013 3 C 1011 1 1005 0 996 0 L 34 0 C 24 0 20 3 20 10 C 20 12 21 16 24 22 L 500 1020 C 504 1028 506 1034 506 1040 C 506 1046 501 1050 492 1050 L 112 1050 C 102 1050 97 1051 95 1053 C 93 1055 92 1060 92 1070 L 92 1380 C 92 1389 93 1395 95 1397 C 97 1399 102 1400 112 1400 L 1060 1400 C 1069 1400 1074 1397 1074 1392 C 1074 1389 1072 1385 1070 1380 L 602 380 Z" unicode="Z" />
<glyph horiz-adv-x="590" d="M 60 1452 C 60 1461 61 1467 63 1469 C 65 1471 70 1472 80 1472 L 520 1472 C 529 1472 535 1471 537 1469 C 539 1467 540 1461 540 1452 L 540 1292 C 540 1282 539 1277 537 1275 C 535 1273 529 1272 520 1272 L 330 1272 C 320 1272 315 1271 313 1269 C 311 1267 310 1261 310 1252 L 310 -70 C 310 -79 311 -85 313 -87 C 315 -89 320 -90 330 -90 L 530 -90 C 539 -90 545 -91 547 -93 C 549 -95 550 -100 550 -110 L 550 -270 C 550 -279 549 -285 547 -287 C 545 -289 539 -290 530 -290 L 80 -290 C 70 -290 65 -289 63 -287 C 61 -285 60 -279 60 -270 L 60 1452 Z" unicode="[" />
<glyph horiz-adv-x="1108" d="M 34 1472 C 32 1477 30 1482 30 1487 C 30 1491 34 1496 42 1500 L 226 1590 C 233 1593 238 1594 241 1592 C 244 1590 248 1585 254 1576 L 982 24 C 984 18 985 13 985 9 C 985 4 982 0 974 -4 L 790 -94 C 782 -97 777 -98 774 -96 C 771 -94 767 -89 762 -80 L 34 1472 Z" unicode="\" />
<glyph horiz-adv-x="590" d="M 530 -270 C 530 -279 529 -285 527 -287 C 525 -289 519 -290 510 -290 L 60 -290 C 50 -290 45 -289 43 -287 C 41 -285 40 -279 40 -270 L 40 -110 C 40 -100 41 -95 43 -93 C 45 -91 50 -90 60 -90 L 260 -90 C 269 -90 275 -89 277 -87 C 279 -85 280 -79 280 -70 L 280 1252 C 280 1261 279 1267 277 1269 C 275 1271 269 1272 260 1272 L 70 1272 C 60 1272 55 1273 53 1275 C 51 1277 50 1282 50 1292 L 50 1452 C 50 1461 51 1467 53 1469 C 55 1471 60 1472 70 1472 L 510 1472 C 519 1472 525 1471 527 1469 C 529 1467 530 1461 530 1452 L 530 -270 Z" unicode="]" />
<glyph horiz-adv-x="1080" d="M 542 1100 C 540 1100 538 1099 536 1099 C 534 1099 532 1098 530 1096 L 378 734 C 374 726 371 720 368 718 C 365 715 359 714 350 714 L 66 714 C 55 714 50 717 50 724 C 50 725 51 728 54 734 L 366 1380 C 370 1389 375 1395 382 1397 C 388 1399 398 1400 410 1400 L 676 1400 C 688 1400 696 1399 701 1397 C 705 1395 710 1389 714 1380 L 1026 734 C 1028 728 1030 725 1030 724 C 1030 717 1024 714 1014 714 L 734 714 C 724 714 718 715 715 718 C 712 720 709 726 706 734 L 554 1096 C 552 1098 549 1099 547 1099 C 545 1099 543 1100 542 1100 Z" unicode="^" />
<glyph horiz-adv-x="1000" d="M 0 -104 C 0 -94 1 -89 4 -87 C 6 -85 12 -84 20 -84 L 980 -84 C 989 -84 995 -85 997 -87 C 999 -89 1000 -94 1000 -104 L 1000 -272 C 1000 -281 999 -287 997 -289 C 995 -291 989 -292 980 -292 L 20 -292 C 10 -292 5 -291 3 -289 C 1 -287 0 -281 0 -272 L 0 -104 Z" unicode="_" />
<glyph horiz-adv-x="1000" d="M 444 1032 C 449 1025 452 1020 452 1016 C 452 1013 447 1012 438 1012 L 194 1012 C 186 1012 179 1014 174 1018 C 168 1022 163 1026 158 1032 L -84 1282 C -92 1290 -96 1295 -96 1298 C -96 1300 -89 1302 -76 1302 L 260 1302 C 268 1302 273 1300 277 1298 C 280 1295 285 1290 292 1282 L 444 1032 Z" unicode="`" />
<glyph horiz-adv-x="1010" d="M 630 0 C 620 0 615 1 613 4 C 611 6 610 12 610 20 L 610 78 C 610 80 607 82 602 82 C 598 82 595 81 594 80 C 567 50 535 26 497 6 C 459 -14 409 -24 348 -24 C 244 -24 165 3 112 57 C 58 111 32 184 32 276 C 32 322 41 365 59 404 C 77 442 101 475 132 503 C 162 530 198 551 240 566 C 281 580 325 588 372 588 C 418 588 459 583 494 574 C 528 564 556 552 578 538 C 580 536 583 536 586 536 C 591 536 594 541 594 552 L 594 566 C 594 610 578 641 547 659 C 515 677 472 686 418 686 C 368 686 326 679 292 666 C 257 652 232 642 218 636 C 210 632 204 630 202 630 C 198 630 196 635 196 646 L 196 830 C 196 839 201 847 212 854 C 224 862 241 869 265 877 C 288 884 313 890 340 896 C 366 901 394 905 423 909 C 451 912 477 914 500 914 C 592 914 669 902 731 880 C 793 857 839 822 870 776 C 882 758 892 740 901 721 C 909 701 917 678 924 652 C 930 625 935 594 939 558 C 942 522 944 479 944 430 L 944 20 C 944 12 943 6 941 4 C 939 1 933 0 924 0 L 630 0 Z M 360 316 C 360 286 371 263 393 247 C 415 230 443 222 478 222 C 516 222 546 230 566 247 C 586 263 596 286 596 316 C 596 344 586 366 566 383 C 546 399 516 408 478 408 C 443 408 415 399 393 383 C 371 366 360 344 360 316 Z" unicode="a" />
<glyph horiz-adv-x="1108" d="M 674 -24 C 647 -24 621 -21 596 -16 C 570 -10 547 -3 526 6 C 504 15 486 25 471 36 C 455 46 444 58 438 70 C 436 71 434 72 430 72 C 424 72 422 70 422 68 L 422 20 C 422 12 421 6 419 4 C 417 1 411 0 402 0 L 90 0 C 80 0 75 1 73 4 C 71 6 70 12 70 20 L 70 1480 C 70 1488 71 1493 73 1496 C 75 1498 80 1500 90 1500 L 402 1500 C 411 1500 417 1498 419 1496 C 421 1493 422 1488 422 1480 L 422 822 C 422 819 424 818 430 818 C 434 818 436 818 438 820 C 444 832 455 843 471 854 C 486 864 504 874 526 884 C 547 893 570 900 596 906 C 621 911 647 914 674 914 C 735 914 790 901 840 876 C 889 850 930 816 964 774 C 997 731 1023 681 1041 625 C 1059 568 1068 508 1068 446 C 1068 383 1059 323 1041 267 C 1023 210 997 160 964 117 C 930 73 889 39 840 14 C 790 -11 735 -24 674 -24 Z M 412 446 C 412 399 424 359 449 326 C 473 292 512 276 564 276 C 616 276 654 292 679 326 C 703 359 716 399 716 446 C 716 488 703 527 679 562 C 654 596 616 614 564 614 C 512 614 473 596 449 562 C 424 527 412 488 412 446 Z" unicode="b" />
<glyph horiz-adv-x="818" d="M 562 276 C 604 276 640 281 669 292 C 697 302 724 314 750 328 C 752 329 756 330 760 330 C 766 330 770 324 770 314 L 770 38 C 770 32 769 28 767 26 C 765 23 760 20 754 18 C 739 10 722 3 702 -2 C 682 -7 661 -11 641 -15 C 620 -18 599 -20 578 -22 C 556 -23 537 -24 520 -24 C 452 -24 388 -12 330 11 C 271 34 220 67 178 109 C 135 151 101 200 77 258 C 52 315 40 378 40 446 C 40 514 52 576 77 634 C 101 691 135 740 178 782 C 220 823 271 855 330 879 C 388 902 452 914 520 914 C 554 914 594 911 638 905 C 682 899 718 889 748 876 C 754 873 759 870 761 868 C 763 865 764 861 764 856 L 764 582 C 764 571 760 566 754 566 C 750 566 746 566 744 568 C 718 581 692 592 666 602 C 639 611 604 616 562 616 C 506 616 460 600 426 569 C 391 537 374 496 374 446 C 374 399 389 359 421 326 C 452 292 499 276 562 276 Z" unicode="c" />
<glyph horiz-adv-x="1108" d="M 434 -24 C 371 -24 315 -11 267 14 C 218 39 177 73 144 117 C 110 160 85 210 67 267 C 49 323 40 383 40 446 C 40 508 49 568 67 625 C 85 681 110 731 144 774 C 177 816 218 850 267 876 C 315 901 371 914 434 914 C 459 914 485 911 511 906 C 537 900 560 893 582 884 C 603 874 621 864 637 854 C 652 843 663 832 670 820 C 671 818 674 818 678 818 C 683 818 686 819 686 822 L 686 1480 C 686 1488 687 1493 689 1496 C 691 1498 696 1500 706 1500 L 1018 1500 C 1027 1500 1033 1498 1035 1496 C 1037 1493 1038 1488 1038 1480 L 1038 20 C 1038 12 1037 6 1035 4 C 1033 1 1027 0 1018 0 L 706 0 C 696 0 691 1 689 4 C 687 6 686 12 686 20 L 686 68 C 686 70 683 72 678 72 C 674 72 671 71 670 70 C 663 58 652 46 637 36 C 621 25 603 15 582 6 C 560 -3 537 -10 511 -16 C 485 -21 459 -24 434 -24 Z M 392 446 C 392 399 404 359 429 326 C 453 292 492 276 544 276 C 596 276 634 292 659 326 C 683 359 696 399 696 446 C 696 488 683 527 659 562 C 634 596 596 614 544 614 C 492 614 453 596 429 562 C 404 527 392 488 392 446 Z" unicode="d" />
<glyph horiz-adv-x="1012" d="M 510 666 C 478 666 448 656 420 637 C 392 617 376 592 372 562 C 372 552 373 547 375 545 C 377 543 382 542 392 542 L 630 542 C 640 542 647 543 649 545 C 651 547 651 552 650 562 C 646 594 630 619 604 638 C 577 656 546 666 510 666 Z M 962 412 C 962 377 960 355 958 346 C 955 336 948 332 938 332 L 408 332 C 398 332 392 331 390 329 C 387 327 386 322 386 314 C 391 287 411 263 445 243 C 479 222 526 212 586 212 C 628 212 671 217 713 228 C 755 238 793 252 828 270 C 833 272 837 274 840 274 C 845 274 848 267 848 254 L 848 68 C 848 62 847 59 845 58 C 843 56 838 53 832 48 C 797 22 753 4 701 -7 C 648 -18 592 -24 534 -24 C 466 -24 402 -12 342 11 C 282 34 229 67 185 109 C 140 151 105 200 79 258 C 53 315 40 378 40 446 C 40 514 51 576 75 634 C 98 691 130 740 172 782 C 213 823 262 855 320 879 C 377 902 440 914 508 914 C 649 914 760 870 841 782 C 921 694 962 570 962 412 Z" unicode="e" />
<glyph horiz-adv-x="710" d="M 620 1238 C 581 1238 553 1228 537 1209 C 520 1189 512 1154 512 1102 L 512 910 C 512 900 513 895 515 893 C 517 891 522 890 532 890 L 650 890 C 659 890 665 888 667 886 C 669 883 670 878 670 870 L 670 622 C 670 614 669 608 667 606 C 665 603 659 602 650 602 L 532 602 C 522 602 517 601 515 599 C 513 597 512 591 512 582 L 512 20 C 512 12 511 6 509 4 C 507 1 501 0 492 0 L 180 0 C 170 0 165 1 163 4 C 161 6 160 12 160 20 L 160 582 C 160 591 159 597 157 599 C 155 601 149 602 140 602 L 50 602 C 40 602 35 603 33 606 C 31 608 30 614 30 622 L 30 870 C 30 878 31 883 33 886 C 35 888 40 890 50 890 L 140 890 C 149 890 155 891 157 893 C 159 895 160 900 160 910 L 160 1184 C 160 1296 189 1380 247 1438 C 305 1495 398 1524 526 1524 C 540 1524 557 1523 575 1522 C 593 1520 609 1519 624 1518 C 641 1516 658 1515 676 1514 C 684 1511 689 1509 692 1507 C 694 1505 696 1499 696 1490 L 696 1246 C 696 1234 692 1228 686 1228 C 683 1228 680 1228 676 1230 C 666 1232 656 1234 646 1236 C 635 1237 626 1238 620 1238 Z" unicode="f" />
<glyph horiz-adv-x="1108" d="M 686 68 C 686 70 683 72 678 72 C 674 72 671 71 670 70 C 663 58 652 46 637 36 C 621 25 603 15 582 6 C 560 -3 537 -10 511 -16 C 485 -21 459 -24 434 -24 C 371 -24 315 -11 267 14 C 218 39 177 73 144 117 C 110 160 85 210 67 267 C 49 323 40 383 40 446 C 40 508 49 568 67 625 C 85 681 110 731 144 774 C 177 816 218 850 267 876 C 315 901 371 914 434 914 C 459 914 485 911 511 906 C 537 900 560 893 582 884 C 603 874 621 864 637 854 C 652 843 663 832 670 820 C 671 818 674 818 678 818 C 683 818 686 819 686 822 L 686 870 C 686 878 687 883 689 886 C 691 888 696 890 706 890 L 1018 890 C 1027 890 1033 888 1035 886 C 1037 883 1038 878 1038 870 L 1038 26 C 1038 -132 995 -250 909 -326 C 823 -402 694 -440 524 -440 C 501 -440 475 -438 447 -435 C 418 -431 390 -427 364 -422 C 337 -416 312 -410 289 -403 C 265 -395 248 -388 236 -380 C 225 -373 220 -365 220 -356 L 220 -124 C 220 -113 222 -108 228 -108 C 233 -108 238 -110 242 -114 C 248 -118 259 -123 275 -131 C 290 -138 308 -145 329 -153 C 349 -160 372 -166 397 -171 C 421 -175 446 -178 470 -178 C 499 -178 527 -175 554 -170 C 580 -164 603 -155 623 -141 C 642 -127 657 -108 669 -84 C 680 -60 686 -29 686 8 L 686 68 Z M 392 446 C 392 399 404 359 429 326 C 453 292 492 276 544 276 C 596 276 634 292 659 326 C 683 359 696 399 696 446 C 696 488 683 527 659 562 C 634 596 596 614 544 614 C 492 614 453 596 429 562 C 404 527 392 488 392 446 Z" unicode="g" />
<glyph horiz-adv-x="1072" d="M 430 20 C 430 12 429 6 427 4 C 425 1 419 0 410 0 L 90 0 C 80 0 75 1 73 4 C 71 6 70 12 70 20 L 70 1480 C 70 1488 71 1493 73 1496 C 75 1498 80 1500 90 1500 L 410 1500 C 419 1500 425 1498 427 1496 C 429 1493 430 1488 430 1480 L 430 790 C 430 787 432 786 438 786 C 442 786 444 786 446 788 C 484 824 525 854 567 878 C 609 902 660 914 722 914 C 776 914 822 905 858 889 C 894 872 923 849 945 819 C 967 789 982 753 992 712 C 1001 670 1006 625 1006 576 L 1006 20 C 1006 12 1005 6 1003 4 C 1001 1 995 0 986 0 L 666 0 C 656 0 651 1 649 4 C 647 6 646 12 646 20 L 646 504 C 646 537 637 562 621 578 C 604 594 580 602 550 602 C 516 602 488 590 465 567 C 441 543 430 514 430 478 L 430 20 Z" unicode="h" />
<glyph horiz-adv-x="500" d="M 70 870 C 70 878 71 883 73 886 C 75 888 80 890 90 890 L 410 890 C 419 890 425 888 427 886 C 429 883 430 878 430 870 L 430 20 C 430 12 429 6 427 4 C 425 1 419 0 410 0 L 90 0 C 80 0 75 1 73 4 C 71 6 70 12 70 20 L 70 870 Z M 250 1042 C 224 1042 200 1046 178 1056 C 155 1065 135 1078 118 1095 C 100 1111 87 1131 77 1155 C 67 1178 62 1204 62 1232 C 62 1285 79 1330 115 1368 C 150 1405 195 1424 250 1424 C 276 1424 301 1418 325 1408 C 348 1397 368 1383 385 1366 C 401 1348 414 1328 424 1306 C 433 1283 438 1259 438 1234 C 438 1208 433 1184 423 1161 C 413 1137 399 1117 383 1100 C 366 1082 346 1068 323 1058 C 299 1047 275 1042 250 1042 Z" unicode="i" />
<glyph horiz-adv-x="500" d="M 70 870 C 70 878 71 883 73 886 C 75 888 80 890 90 890 L 406 890 C 415 890 421 888 423 886 C 425 883 426 878 426 870 L 426 -98 C 426 -200 397 -283 340 -346 C 282 -408 190 -440 64 -440 C 48 -440 31 -439 14 -439 C -3 -438 -19 -437 -34 -436 C -51 -434 -68 -432 -86 -430 C -94 -427 -99 -425 -102 -423 C -104 -421 -106 -415 -106 -406 L -106 -166 C -106 -152 -99 -147 -86 -150 C -68 -154 -52 -156 -36 -156 C 2 -156 30 -146 46 -127 C 62 -107 70 -72 70 -20 L 70 870 Z M 246 1042 C 220 1042 196 1046 174 1056 C 151 1065 131 1078 114 1095 C 96 1111 83 1131 73 1155 C 63 1178 58 1204 58 1232 C 58 1285 75 1330 111 1368 C 146 1405 191 1424 246 1424 C 272 1424 297 1418 321 1408 C 344 1397 364 1383 381 1366 C 397 1348 410 1328 420 1306 C 429 1283 434 1259 434 1234 C 434 1208 429 1184 419 1161 C 409 1137 395 1117 379 1100 C 362 1082 342 1068 319 1058 C 295 1047 271 1042 246 1042 Z" unicode="j" />
<glyph horiz-adv-x="1082" d="M 414 598 C 414 588 418 584 426 584 C 434 584 440 587 444 594 L 634 870 C 640 878 645 883 648 886 C 650 888 656 890 666 890 L 1022 890 C 1032 890 1038 888 1038 884 C 1038 882 1035 878 1030 870 L 756 498 C 753 495 752 492 752 488 C 752 484 753 480 756 478 L 1052 20 C 1058 10 1062 5 1062 4 C 1062 1 1056 0 1044 0 L 692 0 C 682 0 677 1 675 3 C 673 5 668 10 660 20 L 446 364 C 442 369 436 372 430 372 C 419 372 414 367 414 358 L 414 20 C 414 12 413 6 411 4 C 409 1 403 0 394 0 L 90 0 C 80 0 75 1 73 4 C 71 6 70 12 70 20 L 70 1480 C 70 1488 71 1493 73 1496 C 75 1498 80 1500 90 1500 L 394 1500 C 403 1500 409 1498 411 1496 C 413 1493 414 1488 414 1480 L 414 598 Z" unicode="k" />
<glyph horiz-adv-x="500" d="M 70 1480 C 70 1488 71 1493 73 1496 C 75 1498 80 1500 90 1500 L 410 1500 C 419 1500 425 1498 427 1496 C 429 1493 430 1488 430 1480 L 430 20 C 430 12 429 6 427 4 C 425 1 419 0 410 0 L 90 0 C 80 0 75 1 73 4 C 71 6 70 12 70 20 L 70 1480 Z" unicode="l" />
<glyph horiz-adv-x="1596" d="M 1178 504 C 1178 569 1148 602 1088 602 C 1054 602 1027 590 1007 567 C 986 543 976 514 976 478 L 976 20 C 976 12 975 6 973 4 C 971 1 965 0 956 0 L 644 0 C 634 0 629 1 627 4 C 625 6 624 12 624 20 L 624 504 C 624 569 594 602 534 602 C 500 602 473 590 453 567 C 432 543 422 514 422 478 L 422 20 C 422 12 421 6 419 4 C 417 1 411 0 402 0 L 90 0 C 80 0 75 1 73 4 C 71 6 70 12 70 20 L 70 870 C 70 878 71 883 73 886 C 75 888 80 890 90 890 L 402 890 C 411 890 417 888 419 886 C 421 883 422 878 422 870 L 422 790 C 422 787 424 786 430 786 C 434 786 436 786 438 788 C 456 805 475 821 494 837 C 512 852 532 865 552 876 C 572 886 594 895 618 901 C 642 907 669 910 700 910 C 769 910 821 895 856 867 C 890 838 918 803 940 762 C 940 759 942 758 948 758 C 952 758 954 758 956 760 C 973 780 991 799 1011 817 C 1030 835 1051 851 1075 865 C 1098 879 1124 890 1152 898 C 1180 906 1211 910 1246 910 C 1348 910 1421 879 1465 819 C 1508 758 1530 676 1530 572 L 1530 20 C 1530 12 1529 6 1527 4 C 1525 1 1519 0 1510 0 L 1198 0 C 1188 0 1183 1 1181 4 C 1179 6 1178 12 1178 20 L 1178 504 Z" unicode="m" />
<glyph horiz-adv-x="1072" d="M 90 0 C 80 0 75 1 73 4 C 71 6 70 12 70 20 L 70 870 C 70 878 71 883 73 886 C 75 888 80 890 90 890 L 410 890 C 419 890 425 888 427 886 C 429 883 430 878 430 870 L 430 790 C 430 787 432 786 438 786 C 442 786 444 786 446 788 C 484 824 525 853 567 876 C 609 898 660 910 722 910 C 776 910 822 901 858 885 C 894 868 923 845 945 815 C 967 785 982 749 992 708 C 1001 666 1006 621 1006 572 L 1006 20 C 1006 12 1005 6 1003 4 C 1001 1 995 0 986 0 L 666 0 C 656 0 651 1 649 4 C 647 6 646 12 646 20 L 646 504 C 646 537 637 562 621 578 C 604 594 580 602 550 602 C 516 602 488 590 465 567 C 441 543 430 514 430 478 L 430 20 C 430 12 429 6 427 4 C 425 1 419 0 410 0 L 90 0 Z" unicode="n" />
<glyph horiz-adv-x="1050" d="M 40 446 C 40 514 52 576 78 634 C 103 691 137 740 181 782 C 224 823 275 855 335 879 C 394 902 458 914 526 914 C 594 914 657 902 717 879 C 776 855 827 823 871 782 C 914 740 948 691 973 634 C 997 576 1010 514 1010 446 C 1010 378 997 315 973 258 C 948 200 914 151 871 109 C 827 67 776 34 717 11 C 657 -12 594 -24 526 -24 C 458 -24 394 -12 335 11 C 275 34 224 67 181 109 C 137 151 103 200 78 258 C 52 315 40 378 40 446 Z M 374 446 C 374 399 386 359 411 326 C 435 292 474 276 526 276 C 578 276 616 292 641 326 C 665 359 678 399 678 446 C 678 488 665 527 641 562 C 616 596 578 614 526 614 C 474 614 435 596 411 562 C 386 527 374 488 374 446 Z" unicode="o" />
<glyph horiz-adv-x="1108" d="M 674 -24 C 647 -24 621 -21 596 -16 C 570 -10 547 -3 526 6 C 504 15 486 25 471 36 C 455 46 444 58 438 70 C 436 71 434 72 430 72 C 424 72 422 70 422 68 L 422 -420 C 422 -428 421 -433 419 -436 C 417 -438 411 -440 402 -440 L 90 -440 C 80 -440 75 -438 73 -436 C 71 -433 70 -428 70 -420 L 70 870 C 70 878 71 883 73 886 C 75 888 80 890 90 890 L 402 890 C 411 890 417 888 419 886 C 421 883 422 878 422 870 L 422 822 C 422 819 424 818 430 818 C 434 818 436 818 438 820 C 444 832 455 843 471 854 C 486 864 504 874 526 884 C 547 893 570 900 596 906 C 621 911 647 914 674 914 C 735 914 790 901 840 876 C 889 850 930 816 964 774 C 997 731 1023 681 1041 625 C 1059 568 1068 508 1068 446 C 1068 383 1059 323 1041 267 C 1023 210 997 160 964 117 C 930 73 889 39 840 14 C 790 -11 735 -24 674 -24 Z M 412 446 C 412 399 424 359 449 326 C 473 292 512 276 564 276 C 616 276 654 292 679 326 C 703 359 716 399 716 446 C 716 488 703 527 679 562 C 654 596 616 614 564 614 C 512 614 473 596 449 562 C 424 527 412 488 412 446 Z" unicode="p" />
<glyph horiz-adv-x="1108" d="M 434 -24 C 371 -24 315 -11 267 14 C 218 39 177 73 144 117 C 110 160 85 210 67 267 C 49 323 40 383 40 446 C 40 508 49 568 67 625 C 85 681 110 731 144 774 C 177 816 218 850 267 876 C 315 901 371 914 434 914 C 459 914 485 911 511 906 C 537 900 560 893 582 884 C 603 874 621 864 637 854 C 652 843 663 832 670 820 C 671 818 674 818 678 818 C 683 818 686 819 686 822 L 686 870 C 686 878 687 883 689 886 C 691 888 696 890 706 890 L 1018 890 C 1027 890 1033 888 1035 886 C 1037 883 1038 878 1038 870 L 1038 -420 C 1038 -428 1037 -433 1035 -436 C 1033 -438 1027 -440 1018 -440 L 706 -440 C 696 -440 691 -438 689 -436 C 687 -433 686 -428 686 -420 L 686 68 C 686 70 683 72 678 72 C 674 72 671 71 670 70 C 663 58 652 46 637 36 C 621 25 603 15 582 6 C 560 -3 537 -10 511 -16 C 485 -21 459 -24 434 -24 Z M 696 446 C 696 488 683 527 659 562 C 634 596 596 614 544 614 C 492 614 453 596 429 562 C 404 527 392 488 392 446 C 392 399 404 359 429 326 C 453 292 492 276 544 276 C 596 276 634 292 659 326 C 683 359 696 399 696 446 Z" unicode="q" />
<glyph horiz-adv-x="734" d="M 684 910 C 693 910 699 908 701 906 C 703 903 704 898 704 890 L 704 604 C 704 590 700 584 692 584 C 686 584 678 584 666 586 C 654 587 638 588 620 588 C 541 588 486 564 456 517 C 425 469 410 401 410 312 L 410 20 C 410 12 409 6 407 4 C 405 1 399 0 390 0 L 90 0 C 80 0 75 1 73 4 C 71 6 70 12 70 20 L 70 870 C 70 878 71 883 73 886 C 75 888 80 890 90 890 L 390 890 C 399 890 405 888 407 886 C 409 883 410 878 410 870 L 410 772 C 410 769 412 768 418 768 C 422 768 424 768 426 770 C 438 786 452 802 468 819 C 484 835 502 850 523 864 C 543 877 567 888 594 897 C 620 905 650 910 684 910 Z" unicode="r" />
<glyph horiz-adv-x="896" d="M 856 268 C 856 222 846 182 827 146 C 807 110 780 79 745 54 C 709 28 667 9 618 -4 C 568 -17 514 -24 454 -24 C 350 -24 265 -7 199 26 C 133 59 80 104 42 160 C 36 166 34 171 36 175 C 37 178 41 181 48 184 L 274 314 C 279 316 284 314 290 306 C 304 283 322 261 342 240 C 362 218 391 208 430 208 C 448 208 465 212 481 221 C 496 229 504 243 504 262 C 504 280 493 294 471 303 C 449 311 421 319 388 327 C 354 334 319 343 281 354 C 243 364 207 381 174 403 C 140 425 113 454 91 491 C 69 527 58 576 58 636 C 58 674 66 711 83 745 C 99 779 124 808 158 833 C 191 857 232 877 280 892 C 328 906 383 914 446 914 C 534 914 612 900 681 874 C 749 847 802 806 840 750 C 845 740 842 733 832 728 L 616 602 C 608 596 601 598 596 606 C 585 624 569 642 548 659 C 526 675 496 684 458 684 C 439 684 423 679 409 671 C 395 662 388 649 388 632 C 388 616 399 604 423 597 C 446 589 475 582 510 576 C 544 569 582 561 622 551 C 662 541 699 525 734 504 C 768 482 797 453 821 416 C 844 378 856 329 856 268 Z" unicode="s" />
<glyph horiz-adv-x="690" d="M 50 602 C 40 602 35 603 33 606 C 31 608 30 614 30 622 L 30 870 C 30 878 31 883 33 886 C 35 888 40 890 50 890 L 140 890 C 149 890 155 891 157 893 C 159 895 160 900 160 910 L 160 1162 C 160 1175 166 1185 180 1192 L 488 1326 C 493 1328 498 1330 502 1330 C 508 1330 512 1325 512 1316 L 512 910 C 512 900 513 895 515 893 C 517 891 522 890 532 890 L 650 890 C 659 890 665 888 667 886 C 669 883 670 878 670 870 L 670 622 C 670 614 669 608 667 606 C 665 603 659 602 650 602 L 532 602 C 522 602 517 601 515 599 C 513 597 512 591 512 582 L 512 20 C 512 12 511 6 509 4 C 507 1 501 0 492 0 L 180 0 C 170 0 165 1 163 4 C 161 6 160 12 160 20 L 160 582 C 160 591 159 597 157 599 C 155 601 149 602 140 602 L 50 602 Z" unicode="t" />
<glyph horiz-adv-x="1024" d="M 512 276 C 545 276 571 286 590 306 C 608 326 618 355 618 394 L 618 870 C 618 878 619 883 621 886 C 623 888 628 890 638 890 L 938 890 C 947 890 953 888 955 886 C 957 883 958 878 958 870 L 958 398 C 958 336 948 280 930 229 C 911 177 883 133 846 96 C 808 58 762 29 706 8 C 650 -13 585 -24 512 -24 C 437 -24 372 -13 317 8 C 261 29 215 58 178 96 C 140 133 112 177 94 229 C 75 280 66 336 66 398 L 66 870 C 66 878 67 883 69 886 C 71 888 76 890 86 890 L 386 890 C 395 890 401 888 403 886 C 405 883 406 878 406 870 L 406 394 C 406 355 415 326 434 306 C 452 286 478 276 512 276 Z" unicode="u" />
<glyph horiz-adv-x="944" d="M 460 554 C 461 550 465 548 472 548 C 477 548 481 550 484 554 L 632 870 C 636 878 639 883 642 886 C 644 888 650 890 658 890 L 966 890 C 978 890 984 887 984 882 C 984 882 982 878 980 870 L 498 -20 C 491 -33 479 -40 462 -40 C 446 -40 434 -33 428 -20 L -36 870 C -38 878 -40 882 -40 882 C -40 887 -34 890 -22 890 L 286 890 C 294 890 299 888 302 886 C 304 883 308 878 312 870 L 460 554 Z" unicode="v" />
<glyph horiz-adv-x="1320" d="M 674 346 C 671 350 667 352 662 352 C 655 352 651 350 650 346 L 478 -16 C 475 -22 472 -27 468 -31 C 464 -34 458 -36 450 -36 C 438 -36 428 -29 422 -16 L -28 870 C -30 878 -32 882 -32 882 C -32 887 -26 890 -14 890 L 314 890 C 322 890 327 888 330 886 C 332 883 336 878 340 870 L 462 612 C 463 608 467 606 474 606 C 479 606 483 608 486 612 L 634 884 C 640 897 649 904 660 904 C 670 904 679 897 686 884 L 836 612 C 837 608 841 606 848 606 C 853 606 857 608 860 612 L 980 870 C 984 878 987 883 990 886 C 992 888 998 890 1006 890 L 1334 890 C 1346 890 1352 887 1352 882 C 1352 882 1350 878 1348 870 L 908 -16 C 905 -22 902 -27 899 -31 C 895 -34 889 -36 880 -36 C 870 -36 864 -34 861 -31 C 857 -27 854 -22 852 -16 L 674 346 Z" unicode="w" />
<glyph horiz-adv-x="1024" d="M 380 20 C 373 12 368 6 365 4 C 361 1 356 0 348 0 L 8 0 C -4 0 -10 2 -10 6 C -10 10 -8 14 -4 20 L 242 448 C 244 450 246 453 246 456 C 246 458 244 461 242 464 L 6 870 C 0 876 -2 882 -2 886 C -2 888 4 890 16 890 L 358 890 C 366 890 371 888 375 886 C 378 883 383 878 390 870 L 498 658 C 500 655 503 654 506 654 C 508 654 511 655 514 658 L 620 870 C 626 878 631 883 635 886 C 638 888 644 890 652 890 L 994 890 C 1006 890 1012 888 1012 886 C 1012 882 1009 876 1004 870 L 770 464 C 767 461 766 458 766 456 C 766 453 767 450 770 448 L 1026 20 C 1031 13 1034 8 1034 6 C 1034 2 1028 0 1016 0 L 674 0 C 666 0 660 1 657 4 C 653 6 648 12 642 20 L 516 238 C 513 240 510 242 508 242 C 505 242 502 240 500 238 L 380 20 Z" unicode="x" />
<glyph horiz-adv-x="1044" d="M 500 452 C 501 448 504 446 508 446 C 510 446 513 448 516 452 L 690 870 C 694 878 697 883 700 886 C 702 888 708 890 716 890 L 1046 890 C 1058 890 1064 887 1064 882 C 1064 882 1062 878 1060 870 L 492 -426 C 488 -434 484 -439 482 -442 C 479 -444 474 -446 466 -446 L 138 -446 C 126 -446 120 -443 120 -438 C 120 -438 121 -434 124 -426 L 326 54 L -16 870 C -18 878 -20 882 -20 882 C -20 887 -14 890 -2 890 L 310 890 C 318 890 323 888 326 886 C 328 883 332 878 336 870 L 500 452 Z" unicode="y" />
<glyph horiz-adv-x="792" d="M 498 314 C 494 306 492 300 492 296 C 492 288 496 284 504 284 L 722 284 C 731 284 737 283 739 281 C 741 279 742 273 742 264 L 742 20 C 742 10 741 5 739 3 C 737 1 731 0 722 0 L 24 0 C 14 0 10 3 10 10 C 10 12 11 16 14 22 L 286 576 C 290 584 292 590 292 596 C 292 602 288 606 280 606 L 70 606 C 60 606 55 607 53 609 C 51 611 50 616 50 626 L 50 870 C 50 879 51 885 53 887 C 55 889 60 890 70 890 L 758 890 C 767 890 772 887 772 882 C 772 879 770 875 768 870 L 498 314 Z" unicode="z" />
<glyph horiz-adv-x="592" d="M 252 596 C 266 592 281 586 299 577 C 317 567 333 553 349 533 C 364 513 377 486 388 453 C 398 420 404 378 404 328 L 404 48 C 404 4 411 -28 425 -49 C 439 -69 462 -80 492 -80 L 532 -80 C 541 -80 547 -81 549 -83 C 551 -85 552 -90 552 -100 L 552 -260 C 552 -269 551 -275 549 -277 C 547 -279 541 -280 532 -280 L 402 -280 C 368 -280 336 -275 306 -266 C 276 -256 249 -242 227 -222 C 204 -202 186 -176 173 -144 C 160 -112 154 -73 154 -28 L 154 240 C 154 327 143 391 121 431 C 99 471 66 492 20 492 C 10 492 5 493 3 495 C 1 497 0 502 0 512 L 0 702 C 0 711 1 717 3 719 C 5 721 10 722 20 722 C 66 722 99 741 121 781 C 143 821 154 884 154 972 L 154 1210 C 154 1255 160 1294 173 1326 C 186 1358 204 1384 227 1404 C 249 1424 276 1438 306 1448 C 336 1457 368 1462 402 1462 L 532 1462 C 541 1462 547 1461 549 1459 C 551 1457 552 1451 552 1442 L 552 1282 C 552 1272 551 1267 549 1265 C 547 1263 541 1262 532 1262 L 492 1262 C 462 1262 439 1251 425 1231 C 411 1210 404 1178 404 1134 L 404 884 C 404 833 398 791 388 758 C 377 725 364 699 349 679 C 333 659 317 644 299 634 C 281 624 266 618 252 616 L 252 596 Z" unicode="{" />
<glyph horiz-adv-x="428" d="M 120 1480 C 120 1488 121 1493 123 1496 C 125 1498 130 1500 140 1500 L 288 1500 C 297 1500 303 1498 305 1496 C 307 1493 308 1488 308 1480 L 308 -480 C 308 -488 307 -493 305 -496 C 303 -498 297 -500 288 -500 L 140 -500 C 130 -500 125 -498 123 -496 C 121 -493 120 -488 120 -480 L 120 1480 Z" unicode="|" />
<glyph horiz-adv-x="592" d="M 340 616 C 326 618 310 624 292 634 C 274 644 258 659 243 679 C 227 699 214 725 204 758 C 193 791 188 833 188 884 L 188 1134 C 188 1178 180 1210 166 1231 C 152 1251 130 1262 100 1262 L 60 1262 C 50 1262 45 1263 43 1265 C 41 1267 40 1272 40 1282 L 40 1442 C 40 1451 41 1457 43 1459 C 45 1461 50 1462 60 1462 L 190 1462 C 224 1462 256 1457 286 1448 C 316 1438 342 1424 365 1404 C 387 1384 405 1358 418 1326 C 431 1294 438 1255 438 1210 L 438 972 C 438 884 448 821 470 781 C 492 741 526 722 572 722 C 581 722 587 721 589 719 C 591 717 592 711 592 702 L 592 512 C 592 502 591 497 589 495 C 587 493 581 492 572 492 C 526 492 492 471 470 431 C 448 391 438 327 438 240 L 438 -28 C 438 -73 431 -112 418 -144 C 405 -176 387 -202 365 -222 C 342 -242 316 -256 286 -266 C 256 -275 224 -280 190 -280 L 60 -280 C 50 -280 45 -279 43 -277 C 41 -275 40 -269 40 -260 L 40 -100 C 40 -90 41 -85 43 -83 C 45 -81 50 -80 60 -80 L 100 -80 C 130 -80 152 -69 166 -49 C 180 -28 188 4 188 48 L 188 328 C 188 378 193 420 204 453 C 214 486 227 513 243 533 C 258 553 274 567 292 577 C 310 586 326 592 340 596 L 340 616 Z" unicode="}" />
<glyph horiz-adv-x="1080" d="M 50 534 C 62 556 77 581 93 607 C 109 633 128 658 150 680 C 172 702 199 721 230 736 C 260 750 296 758 338 758 C 370 758 399 754 426 748 C 453 741 478 733 501 723 C 523 713 545 703 565 692 C 585 680 604 670 623 660 C 641 650 660 642 678 636 C 696 629 714 626 734 626 C 756 626 775 628 791 633 C 807 638 820 645 832 653 C 844 661 854 670 862 680 C 870 690 876 701 882 712 C 884 717 888 720 894 720 C 899 720 904 717 910 712 L 1030 592 C 1034 588 1036 584 1036 582 C 1036 578 1034 574 1030 568 C 1017 544 1003 519 987 493 C 971 466 952 441 930 418 C 908 395 881 376 851 361 C 821 345 785 338 744 338 C 714 338 687 341 662 348 C 637 354 613 363 591 373 C 568 383 546 394 526 406 C 505 418 485 429 465 439 C 445 449 426 457 406 464 C 386 470 366 474 346 474 C 324 474 305 471 289 467 C 273 462 259 456 247 448 C 235 440 226 431 218 421 C 210 411 203 400 198 390 C 194 384 190 382 186 382 C 180 382 175 384 170 390 L 50 510 C 46 514 44 517 44 520 C 44 523 46 528 50 534 Z" unicode="~" />
<glyph horiz-adv-x="620" d="M 528 22 C 528 12 527 7 526 5 C 524 3 519 2 510 2 L 106 2 C 96 2 91 3 90 5 C 88 7 88 12 88 22 L 168 944 C 168 953 169 959 172 961 C 174 963 180 964 190 964 L 426 964 C 435 964 441 963 444 961 C 446 959 448 953 448 944 L 528 22 Z M 304 1423 C 353 1423 396 1406 433 1373 C 469 1339 488 1294 488 1238 C 488 1186 470 1141 436 1105 C 401 1068 357 1050 304 1050 C 250 1050 206 1068 172 1106 C 137 1143 120 1186 120 1236 C 120 1261 125 1285 135 1308 C 145 1330 158 1350 175 1368 C 191 1385 211 1399 233 1408 C 255 1418 278 1423 304 1423 Z" unicode="" />
<glyph horiz-adv-x="810" d="M 344 16 C 248 41 172 91 116 166 C 60 240 32 334 32 446 C 32 558 60 650 116 724 C 172 797 248 846 344 872 C 348 873 352 875 358 878 C 363 880 366 887 366 898 L 366 1024 C 366 1033 367 1039 369 1041 C 371 1043 376 1044 386 1044 L 572 1044 C 581 1044 587 1043 589 1041 C 591 1039 592 1033 592 1024 L 592 904 C 592 893 594 886 600 884 C 605 881 610 879 614 878 C 638 875 661 871 684 866 C 706 860 725 854 740 848 C 746 845 751 842 753 840 C 755 837 756 833 756 828 L 756 582 C 756 571 752 566 746 566 C 742 566 738 566 736 568 C 710 581 682 592 652 602 C 621 611 584 616 542 616 C 486 616 440 600 406 569 C 371 537 354 496 354 446 C 354 399 369 359 401 326 C 432 292 479 276 542 276 C 584 276 622 281 655 292 C 687 302 716 314 742 328 C 744 329 748 330 752 330 C 758 330 762 324 762 314 L 762 66 C 762 60 761 56 759 54 C 757 51 752 48 746 46 C 730 38 710 30 688 24 C 665 17 640 12 614 10 C 610 8 605 6 600 4 C 594 1 592 -5 592 -16 L 592 -132 C 592 -141 591 -147 589 -149 C 587 -151 581 -152 572 -152 L 386 -152 C 376 -152 371 -151 369 -149 C 367 -147 366 -141 366 -132 L 366 -12 C 366 -1 363 5 358 9 C 352 12 348 14 344 16 Z" unicode="" />
<glyph horiz-adv-x="1168" d="M 70 0 C 56 0 50 6 50 20 L 50 264 C 50 277 56 284 70 284 L 184 284 C 193 284 199 285 201 287 C 203 289 204 294 204 304 L 204 568 C 204 576 200 580 192 580 L 88 580 C 77 580 72 585 72 596 L 72 788 C 72 798 77 804 88 804 L 192 804 C 200 804 204 808 204 816 L 204 950 C 204 1020 215 1085 238 1144 C 260 1202 292 1253 334 1295 C 375 1337 425 1369 484 1393 C 542 1416 608 1428 680 1428 C 750 1428 815 1421 873 1407 C 931 1393 984 1374 1032 1350 C 1042 1344 1048 1338 1048 1330 L 1048 966 C 1048 956 1045 952 1040 952 C 1036 952 1032 953 1030 956 C 992 993 947 1022 894 1043 C 840 1063 786 1074 730 1074 C 710 1074 690 1071 671 1065 C 651 1059 634 1049 618 1035 C 602 1021 589 1003 579 981 C 569 959 564 932 564 902 L 564 816 C 564 808 568 804 576 804 L 806 804 C 819 804 826 797 826 784 L 826 600 C 826 586 819 580 806 580 L 576 580 C 568 580 564 576 564 568 L 564 304 C 564 294 565 289 567 287 C 569 285 574 284 584 284 L 1032 284 C 1045 284 1052 277 1052 264 L 1052 20 C 1052 6 1045 0 1032 0 L 70 0 Z" unicode="" />
<glyph horiz-adv-x="1148" d="M 736 744 C 736 788 720 826 690 859 C 659 891 620 908 574 908 C 530 908 492 891 461 859 C 429 826 414 788 414 744 C 414 700 429 661 461 629 C 492 596 530 580 574 580 C 620 580 659 596 690 629 C 720 661 736 700 736 744 Z M 944 950 C 962 922 977 890 987 854 C 997 818 1002 780 1002 742 C 1002 704 997 668 987 633 C 977 597 962 566 944 538 C 941 532 940 529 940 528 C 940 525 940 523 942 522 L 1076 388 C 1078 385 1080 382 1080 380 C 1080 377 1078 374 1076 372 L 948 244 C 945 241 942 240 940 240 C 937 240 934 241 932 244 L 798 378 C 795 380 792 382 790 382 C 787 382 784 380 782 378 C 752 359 719 345 683 335 C 646 325 608 320 570 320 C 532 320 496 324 461 334 C 425 343 393 357 364 376 C 361 378 358 380 356 380 C 353 380 350 378 348 376 L 214 242 C 211 239 208 238 206 238 C 203 238 200 239 198 242 L 70 370 C 67 372 66 375 66 378 C 66 380 67 383 70 386 L 204 520 C 205 521 206 523 206 526 C 206 527 204 530 202 536 C 184 560 171 590 163 628 C 154 665 150 704 150 744 C 150 782 154 820 162 858 C 170 895 183 926 202 952 C 204 957 206 960 206 962 C 206 964 205 966 204 968 L 70 1102 C 67 1104 66 1107 66 1110 C 66 1112 67 1115 70 1118 L 198 1246 C 200 1248 203 1250 206 1250 C 208 1250 211 1248 214 1246 L 348 1112 C 350 1109 353 1108 356 1108 C 358 1108 361 1109 364 1112 C 392 1130 424 1144 460 1154 C 496 1163 533 1168 572 1168 C 610 1168 648 1163 684 1153 C 720 1143 752 1128 782 1110 C 784 1107 787 1106 790 1106 C 792 1106 795 1107 798 1110 L 932 1244 C 934 1246 937 1248 940 1248 C 942 1248 945 1246 948 1244 L 1076 1116 C 1078 1113 1080 1110 1080 1108 C 1080 1105 1078 1102 1076 1100 L 942 966 C 940 964 940 962 940 960 C 940 958 941 955 944 950 Z" unicode="" />
<glyph horiz-adv-x="1294" d="M 272 880 C 281 880 285 881 285 885 C 284 888 282 892 280 898 L -2 1380 C -4 1385 -6 1389 -6 1392 C -6 1397 -2 1400 6 1400 L 370 1400 C 380 1400 389 1393 396 1380 L 642 906 C 643 902 646 900 652 900 C 656 900 659 902 662 906 L 904 1380 C 909 1389 913 1395 916 1397 C 918 1399 923 1400 930 1400 L 1288 1400 C 1296 1400 1300 1397 1300 1392 C 1300 1389 1298 1385 1296 1380 L 1012 898 C 1009 892 1007 888 1007 885 C 1006 881 1010 880 1020 880 L 1130 880 C 1143 880 1150 873 1150 860 L 1150 736 C 1150 722 1143 716 1130 716 L 918 716 C 908 716 902 715 900 713 C 897 711 894 707 892 702 L 852 638 C 849 632 847 628 847 625 C 846 621 850 620 860 620 L 1130 620 C 1143 620 1150 613 1150 600 L 1150 476 C 1150 462 1143 456 1130 456 L 828 456 C 818 456 813 455 811 453 C 809 451 808 445 808 436 L 808 20 C 808 10 807 5 805 3 C 803 1 797 0 788 0 L 508 0 C 498 0 493 1 491 3 C 489 5 488 10 488 20 L 488 436 C 488 445 487 451 485 453 C 483 455 477 456 468 456 L 162 456 C 151 456 146 461 146 472 L 146 604 C 146 614 151 620 162 620 L 434 620 C 443 620 447 621 447 625 C 446 628 444 632 442 638 L 402 702 C 399 707 396 711 394 713 C 391 715 385 716 376 716 L 162 716 C 151 716 146 721 146 732 L 146 864 C 146 874 151 880 162 880 L 272 880 Z" unicode="" />
<glyph horiz-adv-x="420" d="M 116 1480 C 116 1488 117 1493 119 1496 C 121 1498 126 1500 136 1500 L 284 1500 C 293 1500 299 1498 301 1496 C 303 1493 304 1488 304 1480 L 304 700 C 304 692 303 686 301 684 C 299 681 293 680 284 680 L 136 680 C 126 680 121 681 119 684 C 117 686 116 692 116 700 L 116 1480 Z M 116 300 C 116 308 117 313 119 316 C 121 318 126 320 136 320 L 284 320 C 293 320 299 318 301 316 C 303 313 304 308 304 300 L 304 -480 C 304 -488 303 -493 301 -496 C 299 -498 293 -500 284 -500 L 136 -500 C 126 -500 121 -498 119 -496 C 117 -493 116 -488 116 -480 L 116 300 Z" unicode="" />
<glyph horiz-adv-x="1242" d="M 762 472 C 762 488 756 502 744 516 C 732 530 718 542 700 554 C 682 566 663 576 643 586 C 622 596 602 604 584 612 C 552 610 526 600 506 580 C 486 560 476 535 476 504 C 476 485 483 468 499 454 C 514 440 533 427 555 416 C 577 404 599 394 623 386 C 647 378 667 370 684 364 C 706 370 724 382 739 402 C 754 421 762 444 762 472 Z M 588 -440 C 518 -440 456 -432 402 -417 C 348 -402 302 -382 262 -356 C 222 -330 188 -299 160 -263 C 132 -227 108 -188 90 -146 C 86 -138 84 -132 84 -128 C 84 -124 88 -121 94 -118 C 140 -98 187 -77 235 -55 C 283 -33 330 -12 378 8 C 383 10 386 10 388 9 C 390 8 392 5 396 0 C 405 -17 416 -33 428 -49 C 440 -65 453 -78 469 -90 C 485 -102 502 -111 522 -118 C 541 -124 563 -128 588 -128 C 602 -128 615 -126 629 -122 C 643 -118 655 -113 666 -106 C 676 -98 685 -89 692 -78 C 698 -67 702 -54 702 -40 C 702 -18 694 1 680 18 C 666 35 647 51 624 65 C 600 79 574 91 545 103 C 515 115 486 126 456 138 C 417 152 378 169 340 187 C 302 205 267 228 237 255 C 206 282 181 314 162 351 C 143 388 134 432 134 484 C 134 508 138 533 147 558 C 156 582 168 606 183 629 C 198 651 216 673 236 693 C 256 713 276 730 298 746 C 304 750 308 754 308 758 C 308 760 307 761 305 763 C 303 764 301 766 298 768 C 279 783 261 799 244 816 C 226 833 211 852 197 873 C 183 894 172 918 164 944 C 156 970 152 1001 152 1036 C 152 1092 163 1144 185 1192 C 207 1239 238 1280 279 1314 C 320 1348 370 1375 428 1395 C 486 1414 551 1424 624 1424 C 686 1424 742 1416 792 1401 C 842 1385 886 1364 925 1338 C 963 1312 997 1281 1025 1246 C 1053 1211 1076 1174 1096 1136 C 1101 1126 1103 1119 1102 1117 C 1101 1114 1098 1111 1092 1108 L 832 994 C 826 992 821 991 818 992 C 814 992 812 994 810 996 C 802 1009 793 1023 782 1037 C 771 1051 758 1063 743 1075 C 727 1086 710 1095 691 1103 C 671 1110 650 1114 628 1114 C 612 1114 598 1112 584 1108 C 570 1104 558 1098 548 1090 C 538 1082 529 1073 523 1061 C 517 1049 514 1036 514 1022 C 514 1002 521 985 535 970 C 549 954 568 940 591 927 C 614 913 640 901 670 889 C 699 877 728 866 758 856 C 798 840 838 823 879 805 C 919 786 956 763 989 736 C 1021 708 1048 675 1069 636 C 1089 597 1100 550 1100 494 C 1100 468 1095 442 1087 418 C 1078 393 1066 370 1051 348 C 1036 326 1018 305 998 286 C 978 267 956 250 934 236 C 930 234 928 232 926 231 C 924 229 924 228 924 226 C 924 222 927 218 934 214 C 953 198 971 182 988 164 C 1004 146 1019 127 1031 105 C 1043 83 1052 58 1059 31 C 1066 4 1070 -26 1070 -60 C 1070 -114 1060 -165 1041 -211 C 1022 -257 993 -298 954 -332 C 914 -366 864 -392 804 -411 C 743 -430 671 -440 588 -440 Z" unicode="" />
<glyph horiz-adv-x="1000" d="M 210 1006 C 163 1006 125 1021 95 1051 C 65 1081 50 1121 50 1172 C 50 1220 64 1260 93 1292 C 121 1324 160 1340 210 1340 C 258 1340 296 1324 326 1292 C 355 1260 370 1220 370 1174 C 370 1127 355 1087 325 1055 C 295 1022 256 1006 210 1006 Z M 606 1006 C 559 1006 521 1021 491 1051 C 461 1081 446 1121 446 1172 C 446 1220 460 1260 490 1292 C 519 1324 558 1340 606 1340 C 655 1340 694 1324 723 1292 C 751 1260 766 1220 766 1174 C 766 1127 751 1087 722 1055 C 692 1022 654 1006 606 1006 Z" unicode="" />
<glyph horiz-adv-x="1144" d="M 48 962 C 48 1034 61 1101 89 1165 C 117 1229 155 1285 203 1333 C 251 1381 306 1418 370 1446 C 434 1474 502 1488 574 1488 C 646 1488 713 1474 777 1446 C 840 1418 895 1381 943 1333 C 990 1285 1027 1229 1055 1165 C 1082 1101 1096 1034 1096 962 C 1096 890 1082 822 1055 758 C 1027 694 990 638 943 590 C 895 542 840 504 777 476 C 713 448 646 434 574 434 C 502 434 434 448 370 476 C 306 504 251 542 203 590 C 155 638 117 694 89 758 C 61 822 48 890 48 962 Z M 230 962 C 230 910 238 862 255 818 C 271 773 295 734 325 701 C 355 668 392 642 434 624 C 476 605 522 596 574 596 C 625 596 672 605 714 624 C 756 642 792 668 822 701 C 852 734 875 773 891 818 C 907 862 916 910 916 962 C 916 1012 907 1060 891 1104 C 875 1148 852 1186 822 1219 C 792 1252 756 1278 714 1297 C 672 1316 625 1326 574 1326 C 522 1326 476 1316 434 1297 C 392 1278 355 1252 325 1219 C 295 1186 271 1148 255 1104 C 238 1060 230 1012 230 962 Z M 624 856 C 634 856 644 856 653 858 C 662 859 671 861 679 864 C 687 867 696 871 704 877 C 712 882 722 889 732 898 C 736 902 739 904 742 904 C 744 904 746 900 746 892 L 746 740 C 746 732 745 726 744 724 C 742 722 739 719 734 716 C 716 706 696 697 672 689 C 648 681 621 678 592 678 C 548 678 509 685 475 701 C 441 717 412 738 388 764 C 364 790 345 821 333 855 C 320 889 314 924 314 962 C 314 1000 320 1036 332 1070 C 344 1104 361 1135 385 1161 C 409 1187 438 1207 472 1223 C 506 1238 546 1246 592 1246 C 618 1246 643 1242 669 1235 C 694 1227 716 1219 734 1210 C 740 1206 743 1203 744 1201 C 745 1199 746 1194 746 1186 L 746 1032 C 746 1024 745 1020 744 1020 C 742 1020 740 1020 738 1021 C 736 1022 734 1024 732 1026 C 718 1037 702 1046 686 1054 C 670 1062 649 1066 624 1066 C 594 1066 570 1057 551 1040 C 531 1023 522 997 522 962 C 522 924 531 897 551 881 C 570 864 594 856 624 856 Z" unicode="" />
<glyph horiz-adv-x="764" d="M 496 1152 C 496 1167 493 1182 488 1196 C 482 1210 475 1222 465 1233 C 455 1243 444 1252 431 1258 C 417 1264 402 1268 386 1268 C 370 1268 355 1265 342 1259 C 328 1253 317 1244 307 1234 C 297 1224 289 1212 284 1198 C 278 1184 276 1168 276 1152 C 276 1135 278 1120 284 1106 C 289 1092 297 1079 307 1069 C 317 1059 328 1051 342 1045 C 355 1039 370 1036 386 1036 C 402 1036 417 1039 431 1045 C 444 1051 455 1059 465 1070 C 475 1080 482 1093 488 1107 C 493 1121 496 1136 496 1152 Z M 716 894 C 716 886 715 880 713 878 C 711 875 705 874 696 874 L 508 874 C 498 874 493 875 491 878 C 489 880 488 886 488 894 L 488 934 C 488 935 487 936 485 937 C 483 937 481 938 480 938 L 477 938 C 475 938 473 937 472 936 C 452 914 428 896 402 882 C 375 868 343 862 306 862 C 266 862 230 869 198 884 C 166 898 139 918 117 944 C 95 970 78 1000 66 1035 C 54 1069 48 1107 48 1148 C 48 1186 53 1223 65 1259 C 76 1295 93 1326 115 1353 C 137 1380 163 1402 195 1418 C 226 1434 262 1442 302 1442 C 339 1442 373 1434 403 1420 C 433 1406 456 1385 472 1358 C 473 1356 475 1356 477 1356 L 480 1356 C 481 1356 483 1356 485 1357 C 487 1357 488 1358 488 1360 L 488 1408 C 488 1416 489 1421 491 1424 C 493 1426 498 1428 508 1428 L 696 1428 C 705 1428 711 1426 713 1424 C 715 1421 716 1416 716 1408 L 716 894 Z" unicode="" />
<glyph horiz-adv-x="1020" d="M 88 436 C 85 441 84 445 84 448 C 84 450 85 454 88 460 L 320 890 C 324 898 328 902 334 902 C 337 902 342 900 348 896 L 516 798 C 524 794 528 789 528 784 C 528 781 526 777 524 772 L 346 464 C 342 458 340 454 340 451 C 340 448 340 445 340 442 C 340 436 342 430 346 422 L 524 118 C 526 114 527 112 528 111 C 529 109 530 108 530 106 C 530 102 525 97 516 92 L 348 -6 C 342 -10 337 -12 334 -12 C 328 -12 324 -8 320 0 L 88 436 Z M 508 436 C 505 441 504 445 504 448 C 504 450 505 454 508 460 L 740 890 C 744 898 748 902 754 902 C 757 902 762 900 768 896 L 936 798 C 944 794 948 789 948 784 C 948 781 946 777 944 772 L 766 464 C 762 458 760 454 760 451 C 760 448 760 445 760 442 C 760 436 762 430 766 422 L 944 118 C 946 114 947 112 948 111 C 949 109 950 108 950 106 C 950 102 945 97 936 92 L 768 -6 C 762 -10 757 -12 754 -12 C 748 -12 744 -8 740 0 L 508 436 Z" unicode="" />
<glyph horiz-adv-x="1080" d="M 90 568 C 80 568 75 569 73 572 C 71 574 70 580 70 588 L 70 756 C 70 764 71 769 73 772 C 75 774 80 776 90 776 L 990 776 C 999 776 1005 774 1007 772 C 1009 769 1010 764 1010 756 L 1010 190 C 1010 182 1009 176 1007 174 C 1005 171 999 170 990 170 L 810 170 C 800 170 795 171 793 174 C 791 176 790 182 790 190 L 790 548 C 790 557 789 563 787 565 C 785 567 779 568 770 568 L 90 568 Z" unicode="" />
<glyph horiz-adv-x="600" d="M 80 640 C 80 649 81 655 84 657 C 86 659 92 660 100 660 L 500 660 C 509 660 515 659 517 657 C 519 655 520 649 520 640 L 520 440 C 520 430 519 425 517 423 C 515 421 509 420 500 420 L 100 420 C 90 420 85 421 83 423 C 81 425 80 430 80 440 L 80 640 Z" unicode="" />
<glyph horiz-adv-x="1144" d="M 546 970 C 569 970 586 973 597 979 C 608 985 614 1000 614 1022 C 614 1045 608 1060 597 1067 C 586 1074 569 1078 546 1078 C 536 1078 531 1077 529 1075 C 527 1073 526 1067 526 1058 L 526 988 C 526 980 527 975 529 973 C 531 971 536 970 546 970 Z M 372 710 C 362 710 357 711 355 713 C 353 715 352 720 352 730 L 352 1208 C 352 1217 353 1223 355 1225 C 357 1227 362 1228 372 1228 L 584 1228 C 606 1228 626 1227 644 1225 C 662 1223 677 1220 691 1216 C 705 1212 717 1207 727 1201 C 737 1195 747 1189 756 1182 C 790 1151 808 1106 808 1048 C 808 1030 805 1013 800 997 C 794 981 787 966 779 954 C 770 941 760 930 749 922 C 737 913 726 907 714 904 C 712 904 711 903 711 902 C 710 900 710 899 710 898 C 710 896 710 894 711 893 C 712 891 714 889 716 886 L 810 730 C 814 722 816 717 816 716 C 816 712 810 710 800 710 L 638 710 C 630 710 625 710 623 712 C 621 714 618 718 614 726 L 570 812 C 566 819 562 824 559 827 C 556 830 552 832 546 832 C 536 832 531 831 529 829 C 527 827 526 821 526 812 L 526 730 C 526 720 525 715 523 713 C 521 711 515 710 506 710 L 372 710 Z M 48 962 C 48 1034 61 1101 89 1165 C 117 1229 155 1285 203 1333 C 251 1381 306 1418 370 1446 C 434 1474 502 1488 574 1488 C 646 1488 713 1474 777 1446 C 840 1418 895 1381 943 1333 C 990 1285 1027 1229 1055 1165 C 1082 1101 1096 1034 1096 962 C 1096 890 1082 822 1055 758 C 1027 694 990 638 943 590 C 895 542 840 504 777 476 C 713 448 646 434 574 434 C 502 434 434 448 370 476 C 306 504 251 542 203 590 C 155 638 117 694 89 758 C 61 822 48 890 48 962 Z M 230 962 C 230 910 238 862 255 818 C 271 773 295 734 325 701 C 355 668 392 642 434 624 C 476 605 522 596 574 596 C 625 596 672 605 714 624 C 756 642 792 668 822 701 C 852 734 875 773 891 818 C 907 862 916 910 916 962 C 916 1012 907 1060 891 1104 C 875 1148 852 1186 822 1219 C 792 1252 756 1278 714 1297 C 672 1316 625 1326 574 1326 C 522 1326 476 1316 434 1297 C 392 1278 355 1252 325 1219 C 295 1186 271 1148 255 1104 C 238 1060 230 1012 230 962 Z" unicode="" />
<glyph horiz-adv-x="1000" d="M 88 1224 C 88 1233 89 1239 92 1241 C 94 1243 100 1244 108 1244 L 780 1244 C 789 1244 795 1243 797 1241 C 799 1239 800 1233 800 1224 L 800 1096 C 800 1086 799 1081 797 1079 C 795 1077 789 1076 780 1076 L 108 1076 C 98 1076 93 1077 91 1079 C 89 1081 88 1086 88 1096 L 88 1224 Z" unicode="" />
<glyph horiz-adv-x="714" d="M 454 1136 C 454 1164 445 1187 428 1207 C 410 1226 387 1236 358 1236 C 328 1236 304 1226 286 1207 C 268 1187 260 1164 260 1136 C 260 1108 268 1084 286 1065 C 304 1045 328 1036 358 1036 C 387 1036 410 1045 428 1065 C 445 1084 454 1108 454 1136 Z M 48 1136 C 48 1178 55 1217 69 1252 C 83 1286 103 1316 130 1341 C 156 1366 189 1385 227 1399 C 265 1413 309 1420 358 1420 C 406 1420 449 1413 487 1399 C 525 1385 557 1366 584 1341 C 610 1316 631 1286 645 1252 C 659 1217 666 1178 666 1136 C 666 1093 659 1054 645 1020 C 631 985 610 955 584 930 C 557 905 525 886 487 872 C 449 858 406 852 358 852 C 309 852 265 858 227 872 C 189 886 156 905 130 930 C 103 955 83 985 69 1020 C 55 1054 48 1093 48 1136 Z" unicode="" />
<glyph horiz-adv-x="1080" d="M 650 788 C 650 778 651 773 653 771 C 655 769 660 768 670 768 L 990 768 C 999 768 1005 766 1007 764 C 1009 761 1010 756 1010 748 L 1010 580 C 1010 572 1009 566 1007 564 C 1005 561 999 560 990 560 L 670 560 C 660 560 655 559 653 557 C 651 555 650 549 650 540 L 650 300 C 650 292 649 286 647 284 C 645 281 639 280 630 280 L 450 280 C 440 280 435 281 433 284 C 431 286 430 292 430 300 L 430 540 C 430 549 429 555 427 557 C 425 559 419 560 410 560 L 90 560 C 80 560 75 561 73 564 C 71 566 70 572 70 580 L 70 748 C 70 756 71 761 73 764 C 75 766 80 768 90 768 L 410 768 C 419 768 425 769 427 771 C 429 773 430 778 430 788 L 430 1028 C 430 1036 431 1041 433 1044 C 435 1046 440 1048 450 1048 L 630 1048 C 639 1048 645 1046 647 1044 C 649 1041 650 1036 650 1028 L 650 788 Z M 990 208 C 999 208 1005 206 1007 204 C 1009 201 1010 196 1010 188 L 1010 20 C 1010 12 1009 6 1007 4 C 1005 1 999 0 990 0 L 90 0 C 80 0 75 1 73 4 C 71 6 70 12 70 20 L 70 188 C 70 196 71 201 73 204 C 75 206 80 208 90 208 L 990 208 Z" unicode="" />
<glyph horiz-adv-x="798" d="M 472 1387 C 472 1409 465 1427 451 1441 C 437 1455 418 1463 392 1463 C 362 1463 338 1454 322 1437 C 306 1420 298 1396 298 1365 L 298 1345 C 298 1339 297 1336 296 1335 C 294 1333 291 1333 286 1333 L 92 1333 C 90 1333 87 1333 85 1335 C 83 1336 82 1339 82 1345 C 78 1387 82 1428 94 1467 C 106 1506 126 1541 154 1571 C 182 1601 217 1624 260 1642 C 302 1660 352 1669 410 1669 C 453 1669 493 1663 529 1652 C 565 1640 596 1624 622 1602 C 648 1580 668 1554 682 1523 C 696 1492 704 1457 704 1419 C 704 1399 702 1379 699 1359 C 696 1339 691 1318 683 1297 C 675 1276 665 1255 652 1235 C 639 1214 622 1193 602 1173 L 516 1091 C 514 1087 511 1085 509 1085 C 507 1084 506 1083 506 1081 C 506 1078 510 1077 518 1077 L 698 1077 C 707 1077 713 1076 715 1074 C 717 1072 718 1066 718 1057 L 718 909 C 718 899 717 894 715 892 C 713 890 707 889 698 889 L 112 889 C 106 889 102 890 99 894 C 95 897 94 901 94 907 C 94 911 95 914 97 917 C 99 919 102 923 106 927 L 284 1123 C 302 1143 321 1164 343 1185 C 365 1206 385 1228 404 1250 C 423 1272 439 1294 452 1317 C 465 1340 472 1363 472 1387 Z" unicode="" />
<glyph horiz-adv-x="798" d="M 306 1119 C 306 1103 311 1089 323 1078 C 335 1066 356 1061 386 1061 C 411 1061 430 1066 443 1077 C 455 1087 462 1105 462 1131 C 462 1154 453 1171 437 1183 C 420 1195 398 1201 370 1201 L 324 1201 C 314 1201 309 1202 307 1204 C 305 1206 304 1211 304 1221 L 304 1325 C 304 1334 305 1340 307 1342 C 309 1344 314 1345 324 1345 L 366 1345 C 388 1345 406 1350 422 1361 C 438 1372 446 1389 446 1413 C 446 1432 440 1448 428 1461 C 416 1474 400 1481 378 1481 C 354 1481 336 1475 324 1465 C 312 1455 306 1442 306 1427 C 306 1417 305 1412 303 1410 C 301 1408 296 1407 288 1407 L 122 1407 C 112 1407 107 1408 105 1410 C 103 1412 102 1417 102 1427 C 100 1502 124 1561 174 1604 C 223 1647 295 1669 390 1669 C 432 1669 471 1665 506 1657 C 541 1649 571 1636 596 1620 C 621 1604 640 1583 654 1558 C 667 1533 674 1504 674 1471 C 674 1435 665 1405 648 1380 C 631 1355 612 1337 590 1325 C 587 1322 586 1320 586 1319 C 586 1316 587 1314 590 1313 C 624 1297 652 1271 675 1237 C 698 1203 710 1162 710 1115 C 710 1037 683 977 629 934 C 575 890 499 869 400 869 C 348 869 302 875 263 887 C 224 899 192 916 166 938 C 140 960 120 986 107 1017 C 94 1047 88 1081 88 1119 C 88 1128 89 1134 91 1136 C 93 1138 98 1139 108 1139 L 286 1139 C 294 1139 299 1138 302 1136 C 304 1134 306 1128 306 1119 Z" unicode="" />
<glyph horiz-adv-x="1000" d="M 236 1282 C 242 1290 247 1295 251 1298 C 254 1300 260 1302 268 1302 L 604 1302 C 617 1302 624 1300 624 1298 C 624 1295 620 1290 612 1282 L 370 1032 C 364 1026 359 1022 354 1018 C 348 1014 342 1012 334 1012 L 90 1012 C 80 1012 76 1013 76 1016 C 76 1020 78 1025 84 1032 L 236 1282 Z" unicode="" />
<glyph horiz-adv-x="1076" d="M 420 -18 C 412 -18 407 -19 405 -22 C 403 -24 402 -30 402 -38 L 402 -420 C 402 -428 401 -433 399 -436 C 397 -438 391 -440 382 -440 L 90 -440 C 80 -440 75 -438 73 -436 C 71 -433 70 -428 70 -420 L 70 870 C 70 878 71 883 73 886 C 75 888 80 890 90 890 L 410 890 C 419 890 425 888 427 886 C 429 883 430 878 430 870 L 430 386 C 430 352 438 328 455 312 C 472 296 496 288 526 288 C 542 288 558 291 572 297 C 586 303 599 311 610 322 C 621 333 630 346 636 362 C 642 377 646 394 646 412 L 646 870 C 646 878 647 883 649 886 C 651 888 656 890 666 890 L 986 890 C 995 890 1001 888 1003 886 C 1005 883 1006 878 1006 870 L 1006 20 C 1006 12 1005 6 1003 4 C 1001 1 995 0 986 0 L 666 0 C 656 0 651 1 649 4 C 647 6 646 12 646 20 L 646 100 C 646 101 645 102 643 103 C 641 103 639 104 638 104 C 636 104 635 104 634 104 C 632 104 631 103 630 102 C 618 87 606 73 592 59 C 578 45 563 32 546 21 C 529 10 510 1 489 -6 C 468 -13 445 -17 420 -18 Z" unicode="" />
<glyph horiz-adv-x="1200" d="M 1072 1400 C 1081 1400 1087 1399 1089 1397 C 1091 1395 1092 1389 1092 1380 L 1092 -306 C 1092 -315 1091 -321 1089 -323 C 1087 -325 1081 -326 1072 -326 L 762 -326 C 752 -326 747 -325 745 -323 C 743 -321 742 -315 742 -306 L 742 1380 C 742 1389 743 1395 745 1397 C 747 1399 752 1400 762 1400 L 1072 1400 Z M 578 1400 C 587 1400 593 1399 595 1397 C 597 1395 598 1389 598 1380 L 598 442 C 598 432 597 427 595 425 C 593 423 587 422 578 422 L 542 422 C 480 422 425 427 379 439 C 333 450 290 468 250 494 C 216 514 186 539 159 569 C 132 599 109 632 90 668 C 71 704 57 743 47 785 C 37 827 32 872 32 920 C 32 1018 51 1103 89 1173 C 127 1243 180 1298 248 1336 C 289 1359 335 1375 386 1385 C 437 1395 491 1400 548 1400 L 578 1400 Z" unicode="" />
<glyph horiz-adv-x="500" d="M 254 514 C 204 514 161 531 125 565 C 88 599 70 644 70 700 C 70 752 87 796 122 833 C 156 869 200 888 254 888 C 307 888 351 869 386 832 C 420 794 438 751 438 702 C 438 676 433 652 423 630 C 413 607 399 587 383 570 C 366 552 347 539 325 529 C 303 519 279 514 254 514 Z" unicode="" />
<glyph horiz-adv-x="1000" d="M 332 -226 C 345 -235 359 -243 374 -251 C 388 -258 404 -262 422 -262 C 442 -262 458 -256 470 -246 C 482 -235 490 -221 494 -204 C 496 -182 492 -164 480 -150 C 468 -135 450 -126 428 -122 C 421 -120 416 -120 412 -120 C 408 -120 404 -120 400 -120 C 388 -120 375 -122 362 -126 C 348 -131 343 -126 346 -112 L 370 14 C 371 16 372 18 372 20 C 372 21 374 22 380 24 C 394 28 413 29 436 28 C 458 26 479 24 498 22 C 559 11 609 -13 647 -51 C 685 -89 704 -136 704 -192 C 704 -260 684 -318 644 -367 C 604 -415 544 -440 466 -440 C 439 -440 411 -436 383 -430 C 354 -423 327 -411 302 -394 C 296 -390 294 -386 296 -382 L 322 -228 C 323 -225 325 -224 328 -224 C 328 -224 329 -224 332 -226 Z" unicode="" />
<glyph horiz-adv-x="798" d="M 584 907 C 584 899 583 894 582 892 C 580 890 575 889 566 889 L 378 889 C 370 889 365 890 363 892 C 361 894 360 899 360 907 L 360 1369 C 360 1379 359 1385 357 1389 C 355 1392 349 1392 340 1389 L 232 1359 C 224 1355 218 1354 216 1355 C 213 1356 212 1361 212 1371 L 212 1533 C 212 1542 213 1548 216 1551 C 218 1554 224 1557 232 1561 L 564 1667 C 572 1670 577 1670 580 1668 C 582 1666 584 1660 584 1651 L 584 907 Z" unicode="" />
<glyph horiz-adv-x="732" d="M 366 856 C 316 856 271 863 232 877 C 192 891 159 911 132 937 C 104 963 83 993 69 1029 C 55 1065 48 1104 48 1148 C 48 1189 55 1227 69 1263 C 83 1298 104 1329 132 1355 C 159 1381 192 1401 232 1416 C 271 1430 316 1438 366 1438 C 416 1438 460 1430 500 1416 C 539 1401 572 1381 600 1355 C 627 1329 648 1298 662 1263 C 676 1227 684 1189 684 1148 C 684 1104 676 1065 662 1029 C 648 993 627 963 600 937 C 572 911 539 891 500 877 C 460 863 416 856 366 856 Z M 470 1146 C 470 1161 467 1176 463 1190 C 458 1204 451 1216 442 1226 C 433 1236 422 1245 410 1251 C 397 1257 382 1260 366 1260 C 334 1260 308 1249 290 1228 C 271 1206 262 1179 262 1146 C 262 1112 271 1085 290 1063 C 308 1041 334 1030 366 1030 C 399 1030 425 1041 443 1064 C 461 1086 470 1114 470 1146 Z" unicode="" />
<glyph horiz-adv-x="1020" d="M 280 0 C 276 -8 271 -12 266 -12 C 262 -12 258 -10 252 -6 L 84 92 C 74 97 70 102 70 106 C 70 108 70 109 71 111 C 72 112 74 114 76 118 L 254 422 C 258 430 260 436 260 442 C 260 445 259 448 259 451 C 259 454 257 458 254 464 L 76 772 C 73 777 72 781 72 784 C 72 789 76 794 84 798 L 252 896 C 258 900 262 902 266 902 C 271 902 276 898 280 890 L 512 460 C 514 454 516 450 516 448 C 516 445 514 441 512 436 L 280 0 Z M 700 0 C 696 -8 691 -12 686 -12 C 682 -12 678 -10 672 -6 L 504 92 C 494 97 490 102 490 106 C 490 108 490 109 491 111 C 492 112 494 114 496 118 L 674 422 C 678 430 680 436 680 442 C 680 445 679 448 679 451 C 679 454 677 458 674 464 L 496 772 C 493 777 492 781 492 784 C 492 789 496 794 504 798 L 672 896 C 678 900 682 902 686 902 C 691 902 696 898 700 890 L 932 460 C 934 454 936 450 936 448 C 936 445 934 441 932 436 L 700 0 Z" unicode="" />
<glyph horiz-adv-x="1512" d="M 498 -14 C 492 -23 488 -28 485 -30 C 482 -32 477 -31 470 -28 L 316 46 C 308 50 303 54 303 59 C 303 63 304 68 308 74 L 952 1426 C 957 1435 961 1440 964 1442 C 967 1444 972 1443 980 1440 L 1134 1366 C 1142 1362 1146 1357 1146 1353 C 1146 1348 1145 1343 1142 1338 L 498 -14 Z M 452 657 C 452 649 451 644 450 642 C 448 640 443 639 434 639 L 246 639 C 238 639 233 640 231 642 C 229 644 228 649 228 657 L 228 1119 C 228 1129 227 1135 225 1139 C 223 1142 217 1142 208 1139 L 100 1109 C 92 1105 86 1104 84 1105 C 81 1106 80 1111 80 1121 L 80 1283 C 80 1292 81 1298 84 1301 C 86 1304 92 1307 100 1311 L 432 1417 C 440 1420 445 1420 448 1418 C 450 1416 452 1410 452 1401 L 452 657 Z M 1109 402 C 1109 408 1107 412 1105 412 C 1103 412 1102 411 1101 411 C 1100 411 1099 409 1097 406 L 985 274 C 983 270 981 268 979 266 C 977 264 977 262 977 260 C 977 256 981 254 989 254 L 1089 254 C 1098 254 1104 255 1106 257 C 1108 259 1109 264 1109 274 L 1109 402 Z M 1295 20 C 1295 10 1294 5 1292 3 C 1290 1 1284 0 1275 0 L 1091 0 C 1081 0 1076 1 1074 3 C 1072 5 1071 10 1071 20 L 1071 62 C 1071 71 1070 77 1068 79 C 1066 81 1060 82 1051 82 L 731 82 C 719 82 710 84 704 88 C 698 92 695 98 695 106 C 695 110 696 114 698 120 C 700 126 703 132 709 138 L 1243 762 C 1248 768 1253 772 1257 776 C 1261 780 1267 782 1275 782 C 1283 782 1288 780 1291 777 C 1293 774 1295 769 1295 762 L 1295 312 C 1295 302 1296 297 1298 295 C 1300 293 1305 292 1315 292 L 1373 292 C 1382 292 1388 291 1390 289 C 1392 287 1393 281 1393 272 L 1393 102 C 1393 92 1392 87 1390 85 C 1388 83 1382 82 1373 82 L 1315 82 C 1305 82 1300 81 1298 79 C 1296 77 1295 71 1295 62 L 1295 20 Z" unicode="" />
<glyph horiz-adv-x="1674" d="M 498 -14 C 492 -23 488 -28 485 -30 C 482 -32 477 -31 470 -28 L 316 46 C 308 50 303 54 303 59 C 303 63 304 68 308 74 L 952 1426 C 957 1435 961 1440 964 1442 C 967 1444 972 1443 980 1440 L 1134 1366 C 1142 1362 1146 1357 1146 1353 C 1146 1348 1145 1343 1142 1338 L 498 -14 Z M 451 657 C 451 649 450 644 449 642 C 447 640 442 639 433 639 L 245 639 C 237 639 232 640 230 642 C 228 644 227 649 227 657 L 227 1119 C 227 1129 226 1135 224 1139 C 222 1142 216 1142 207 1139 L 99 1109 C 91 1105 85 1104 83 1105 C 80 1106 79 1111 79 1121 L 79 1283 C 79 1292 80 1298 83 1301 C 85 1304 91 1307 99 1311 L 431 1417 C 439 1420 444 1420 447 1418 C 449 1416 451 1410 451 1401 L 451 657 Z M 1308 498 C 1308 520 1301 538 1287 552 C 1273 566 1254 574 1228 574 C 1198 574 1174 565 1158 548 C 1142 531 1134 507 1134 476 L 1134 456 C 1134 450 1133 447 1132 446 C 1130 444 1127 444 1122 444 L 928 444 C 926 444 923 444 921 446 C 919 447 918 450 918 456 C 914 498 918 539 930 578 C 942 617 962 652 990 682 C 1018 712 1053 735 1096 753 C 1138 771 1188 780 1246 780 C 1289 780 1329 774 1365 763 C 1401 751 1432 735 1458 713 C 1484 691 1504 665 1518 634 C 1532 603 1540 568 1540 530 C 1540 510 1538 490 1535 470 C 1532 450 1527 429 1519 408 C 1511 387 1501 366 1488 346 C 1475 325 1458 304 1438 284 L 1352 202 C 1350 198 1347 196 1345 196 C 1343 195 1342 194 1342 192 C 1342 189 1346 188 1354 188 L 1534 188 C 1543 188 1549 187 1551 185 C 1553 183 1554 177 1554 168 L 1554 20 C 1554 10 1553 5 1551 3 C 1549 1 1543 0 1534 0 L 948 0 C 942 0 938 1 935 5 C 931 8 930 12 930 18 C 930 22 931 25 933 28 C 935 30 938 34 942 38 L 1120 234 C 1138 254 1157 275 1179 296 C 1201 317 1221 339 1240 361 C 1259 383 1275 405 1288 428 C 1301 451 1308 474 1308 498 Z" unicode="" />
<glyph horiz-adv-x="1716" d="M 702 -14 C 696 -23 692 -28 689 -30 C 686 -32 681 -31 674 -28 L 520 46 C 512 50 507 54 507 59 C 507 63 508 68 512 74 L 1156 1426 C 1161 1435 1165 1440 1168 1442 C 1171 1444 1176 1443 1184 1440 L 1338 1366 C 1346 1362 1350 1357 1350 1353 C 1350 1348 1349 1343 1346 1338 L 702 -14 Z M 1312 402 C 1312 408 1310 412 1308 412 C 1306 412 1305 411 1304 411 C 1303 411 1302 409 1300 406 L 1188 274 C 1186 270 1184 268 1182 266 C 1180 264 1180 262 1180 260 C 1180 256 1184 254 1192 254 L 1292 254 C 1301 254 1307 255 1309 257 C 1311 259 1312 264 1312 274 L 1312 402 Z M 1498 20 C 1498 10 1497 5 1495 3 C 1493 1 1487 0 1478 0 L 1294 0 C 1284 0 1279 1 1277 3 C 1275 5 1274 10 1274 20 L 1274 62 C 1274 71 1273 77 1271 79 C 1269 81 1263 82 1254 82 L 934 82 C 922 82 913 84 907 88 C 901 92 898 98 898 106 C 898 110 899 114 901 120 C 903 126 906 132 912 138 L 1446 762 C 1451 768 1456 772 1460 776 C 1464 780 1470 782 1478 782 C 1486 782 1491 780 1494 777 C 1496 774 1498 769 1498 762 L 1498 312 C 1498 302 1499 297 1501 295 C 1503 293 1508 292 1518 292 L 1576 292 C 1585 292 1591 291 1593 289 C 1595 287 1596 281 1596 272 L 1596 102 C 1596 92 1595 87 1593 85 C 1591 83 1585 82 1576 82 L 1518 82 C 1508 82 1503 81 1501 79 C 1499 77 1498 71 1498 62 L 1498 20 Z M 317 869 C 317 853 322 839 334 828 C 346 816 367 811 397 811 C 422 811 441 816 454 827 C 466 837 473 855 473 881 C 473 904 464 921 448 933 C 431 945 409 951 381 951 L 335 951 C 325 951 320 952 318 954 C 316 956 315 961 315 971 L 315 1075 C 315 1084 316 1090 318 1092 C 320 1094 325 1095 335 1095 L 377 1095 C 399 1095 417 1100 433 1111 C 449 1122 457 1139 457 1163 C 457 1182 451 1198 439 1211 C 427 1224 411 1231 389 1231 C 365 1231 347 1225 335 1215 C 323 1205 317 1192 317 1177 C 317 1167 316 1162 314 1160 C 312 1158 307 1157 299 1157 L 133 1157 C 123 1157 118 1158 116 1160 C 114 1162 113 1167 113 1177 C 111 1252 135 1311 185 1354 C 234 1397 306 1419 401 1419 C 443 1419 482 1415 517 1407 C 552 1399 582 1386 607 1370 C 632 1354 651 1333 665 1308 C 678 1283 685 1254 685 1221 C 685 1185 676 1155 659 1130 C 642 1105 623 1087 601 1075 C 598 1072 597 1070 597 1069 C 597 1066 598 1064 601 1063 C 635 1047 663 1021 686 987 C 709 953 721 912 721 865 C 721 787 694 727 640 684 C 586 640 510 619 411 619 C 359 619 313 625 274 637 C 235 649 203 666 177 688 C 151 710 131 736 118 767 C 105 797 99 831 99 869 C 99 878 100 884 102 886 C 104 888 109 889 119 889 L 297 889 C 305 889 310 888 313 886 C 315 884 317 878 317 869 Z" unicode="" />
<glyph horiz-adv-x="954" d="M 638 962 C 647 962 653 961 655 959 C 657 957 658 951 658 942 L 658 914 C 658 844 644 786 618 738 C 591 690 562 647 530 609 C 498 571 468 536 442 505 C 415 473 402 440 402 406 C 402 375 411 350 430 331 C 448 311 476 302 514 302 C 551 302 579 314 598 339 C 616 363 626 393 626 428 C 626 437 627 443 629 445 C 631 447 636 448 646 448 L 924 448 C 933 448 939 447 941 445 C 943 443 944 437 944 428 L 944 392 C 944 326 932 267 908 215 C 884 162 850 117 807 81 C 763 44 712 16 654 -2 C 595 -22 532 -31 464 -31 C 385 -31 317 -20 261 1 C 204 23 157 51 120 87 C 82 122 55 162 38 208 C 20 253 12 298 12 344 C 12 397 20 444 38 485 C 55 525 77 561 104 593 C 130 624 159 652 190 678 C 220 703 249 728 276 753 C 302 777 324 802 342 828 C 359 853 368 881 368 912 L 368 942 C 368 951 369 957 371 959 C 373 961 378 962 388 962 L 638 962 Z M 500 1421 C 549 1421 592 1404 629 1371 C 665 1337 684 1292 684 1236 C 684 1184 666 1139 632 1103 C 597 1066 553 1048 500 1048 C 446 1048 402 1066 368 1104 C 333 1141 316 1184 316 1234 C 316 1259 321 1283 331 1306 C 341 1328 354 1348 371 1366 C 387 1383 407 1397 429 1406 C 451 1416 474 1421 500 1421 Z" unicode="" />
<glyph horiz-adv-x="1360" d="M 882 154 C 878 163 874 169 872 171 C 869 173 864 174 858 174 L 498 174 C 492 174 488 173 484 171 C 480 169 476 163 472 154 L 414 20 C 408 6 400 0 390 0 L -8 0 C -16 0 -20 2 -20 6 C -20 10 -18 14 -16 20 L 646 1420 C 651 1433 662 1440 680 1440 C 697 1440 708 1433 714 1420 L 1376 20 C 1378 14 1380 10 1380 6 C 1380 2 1376 0 1368 0 L 964 0 C 953 0 945 6 940 20 L 882 154 Z M 796 454 L 796 456 C 794 457 794 458 794 460 L 688 732 C 685 736 681 738 676 738 C 669 738 665 736 664 732 L 562 462 L 560 456 C 560 450 566 448 580 448 L 778 448 C 790 448 796 450 796 454 Z M 840 1520 C 845 1513 848 1508 848 1504 C 848 1501 843 1500 834 1500 L 590 1500 C 582 1500 575 1502 570 1506 C 564 1510 559 1514 554 1520 L 312 1770 C 304 1778 300 1783 300 1786 C 300 1788 306 1790 320 1790 L 656 1790 C 664 1790 669 1788 673 1786 C 676 1783 681 1778 688 1770 L 840 1520 Z" unicode="" />
<glyph horiz-adv-x="1360" d="M 882 154 C 878 163 874 169 872 171 C 869 173 864 174 858 174 L 498 174 C 492 174 488 173 484 171 C 480 169 476 163 472 154 L 414 20 C 408 6 400 0 390 0 L -8 0 C -16 0 -20 2 -20 6 C -20 10 -18 14 -16 20 L 646 1420 C 651 1433 662 1440 680 1440 C 697 1440 708 1433 714 1420 L 1376 20 C 1378 14 1380 10 1380 6 C 1380 2 1376 0 1368 0 L 964 0 C 953 0 945 6 940 20 L 882 154 Z M 796 454 L 796 456 C 794 457 794 458 794 460 L 688 732 C 685 736 681 738 676 738 C 669 738 665 736 664 732 L 562 462 L 560 456 C 560 450 566 448 580 448 L 778 448 C 790 448 796 450 796 454 Z M 672 1770 C 678 1778 683 1783 687 1786 C 690 1788 696 1790 704 1790 L 1040 1790 C 1053 1790 1060 1788 1060 1786 C 1060 1783 1056 1778 1048 1770 L 806 1520 C 800 1514 795 1510 790 1506 C 784 1502 778 1500 770 1500 L 526 1500 C 516 1500 512 1501 512 1504 C 512 1508 514 1513 520 1520 L 672 1770 Z" unicode="" />
<glyph horiz-adv-x="1360" d="M 882 154 C 878 163 874 169 872 171 C 869 173 864 174 858 174 L 498 174 C 492 174 488 173 484 171 C 480 169 476 163 472 154 L 414 20 C 408 6 400 0 390 0 L -8 0 C -16 0 -20 2 -20 6 C -20 10 -18 14 -16 20 L 646 1420 C 651 1433 662 1440 680 1440 C 697 1440 708 1433 714 1420 L 1376 20 C 1378 14 1380 10 1380 6 C 1380 2 1376 0 1368 0 L 964 0 C 953 0 945 6 940 20 L 882 154 Z M 796 454 L 796 456 C 794 457 794 458 794 460 L 688 732 C 685 736 681 738 676 738 C 669 738 665 736 664 732 L 562 462 L 560 456 C 560 450 566 448 580 448 L 778 448 C 790 448 796 450 796 454 Z M 680 1634 C 674 1634 670 1632 668 1630 L 578 1520 C 571 1513 566 1508 562 1505 C 558 1501 551 1500 542 1500 L 290 1500 C 280 1500 276 1501 276 1504 C 276 1504 280 1509 288 1520 L 510 1770 C 522 1783 534 1790 548 1790 L 812 1790 C 825 1790 838 1783 850 1770 L 1072 1520 C 1080 1509 1084 1504 1084 1504 C 1084 1501 1079 1500 1070 1500 L 818 1500 C 808 1500 802 1501 798 1505 C 794 1508 788 1513 782 1520 L 692 1630 C 689 1632 685 1634 680 1634 Z" unicode="" />
<glyph horiz-adv-x="1360" d="M 882 154 C 878 163 874 169 872 171 C 869 173 864 174 858 174 L 498 174 C 492 174 488 173 484 171 C 480 169 476 163 472 154 L 414 20 C 408 6 400 0 390 0 L -8 0 C -16 0 -20 2 -20 6 C -20 10 -18 14 -16 20 L 646 1420 C 651 1433 662 1440 680 1440 C 697 1440 708 1433 714 1420 L 1376 20 C 1378 14 1380 10 1380 6 C 1380 2 1376 0 1368 0 L 964 0 C 953 0 945 6 940 20 L 882 154 Z M 796 454 L 796 456 C 794 457 794 458 794 460 L 688 732 C 685 736 681 738 676 738 C 669 738 665 736 664 732 L 562 462 L 560 456 C 560 450 566 448 580 448 L 778 448 C 790 448 796 450 796 454 Z M 830 1492 C 787 1492 754 1497 731 1507 C 707 1517 688 1528 673 1540 C 657 1552 643 1563 630 1573 C 616 1583 599 1588 578 1588 C 559 1588 543 1582 530 1571 C 516 1559 510 1542 510 1520 C 510 1512 509 1506 507 1504 C 505 1501 499 1500 490 1500 L 336 1500 C 326 1500 321 1501 319 1504 C 317 1506 316 1512 316 1520 L 316 1550 C 316 1583 321 1615 332 1646 C 342 1676 357 1703 377 1725 C 396 1747 420 1764 448 1778 C 476 1791 508 1798 544 1798 C 585 1798 618 1793 642 1783 C 666 1773 686 1762 702 1750 C 718 1738 732 1727 745 1717 C 757 1707 774 1702 796 1702 C 814 1702 830 1707 844 1719 C 857 1730 864 1747 864 1770 C 864 1778 865 1783 867 1786 C 869 1788 874 1790 884 1790 L 1038 1790 C 1047 1790 1053 1788 1055 1786 C 1057 1783 1058 1778 1058 1770 L 1058 1740 C 1058 1705 1052 1673 1042 1643 C 1031 1613 1016 1587 997 1565 C 977 1543 954 1525 926 1512 C 898 1498 866 1492 830 1492 Z" unicode="" />
<glyph horiz-adv-x="1360" d="M 882 154 C 878 163 874 169 872 171 C 869 173 864 174 858 174 L 498 174 C 492 174 488 173 484 171 C 480 169 476 163 472 154 L 414 20 C 408 6 400 0 390 0 L -8 0 C -16 0 -20 2 -20 6 C -20 10 -18 14 -16 20 L 646 1420 C 651 1433 662 1440 680 1440 C 697 1440 708 1433 714 1420 L 1376 20 C 1378 14 1380 10 1380 6 C 1380 2 1376 0 1368 0 L 964 0 C 953 0 945 6 940 20 L 882 154 Z M 796 454 L 796 456 C 794 457 794 458 794 460 L 688 732 C 685 736 681 738 676 738 C 669 738 665 736 664 732 L 562 462 L 560 456 C 560 450 566 448 580 448 L 778 448 C 790 448 796 450 796 454 Z M 482 1494 C 435 1494 397 1509 367 1539 C 337 1569 322 1609 322 1660 C 322 1708 336 1748 365 1780 C 393 1812 432 1828 482 1828 C 530 1828 568 1812 598 1780 C 627 1748 642 1708 642 1662 C 642 1615 627 1575 597 1543 C 567 1510 528 1494 482 1494 Z M 878 1494 C 831 1494 793 1509 763 1539 C 733 1569 718 1609 718 1660 C 718 1708 732 1748 762 1780 C 791 1812 830 1828 878 1828 C 927 1828 966 1812 995 1780 C 1023 1748 1038 1708 1038 1662 C 1038 1615 1023 1575 994 1543 C 964 1510 926 1494 878 1494 Z" unicode="" />
<glyph horiz-adv-x="1360" d="M 882 154 C 878 163 874 169 872 171 C 869 173 864 174 858 174 L 498 174 C 492 174 488 173 484 171 C 480 169 476 163 472 154 L 414 20 C 408 6 400 0 390 0 L -8 0 C -16 0 -20 2 -20 6 C -20 10 -18 14 -16 20 L 646 1420 C 651 1433 662 1440 680 1440 C 697 1440 708 1433 714 1420 L 1376 20 C 1378 14 1380 10 1380 6 C 1380 2 1376 0 1368 0 L 964 0 C 953 0 945 6 940 20 L 882 154 Z M 796 454 L 796 456 C 794 457 794 458 794 460 L 688 732 C 685 736 681 738 676 738 C 669 738 665 736 664 732 L 562 462 L 560 456 C 560 450 566 448 580 448 L 778 448 C 790 448 796 450 796 454 Z M 680 1610 C 698 1610 715 1617 729 1632 C 743 1646 750 1663 750 1682 C 750 1700 743 1717 729 1731 C 715 1745 698 1752 680 1752 C 661 1752 645 1744 631 1730 C 617 1715 610 1698 610 1680 C 610 1660 617 1643 631 1630 C 645 1616 661 1610 680 1610 Z M 680 1480 C 626 1480 580 1498 540 1534 C 500 1570 480 1618 480 1680 C 480 1708 485 1734 495 1758 C 505 1782 519 1803 537 1822 C 555 1840 576 1855 601 1866 C 625 1876 652 1882 680 1882 C 708 1882 734 1876 758 1866 C 782 1855 803 1840 821 1822 C 839 1803 853 1782 864 1758 C 874 1734 880 1708 880 1682 C 880 1655 874 1629 864 1605 C 853 1580 839 1558 821 1540 C 803 1521 781 1506 757 1496 C 732 1485 706 1480 680 1480 Z" unicode="" />
<glyph horiz-adv-x="1836" d="M 784 238 C 782 246 776 250 764 250 L 478 250 C 464 250 456 243 452 230 L 346 20 C 343 10 340 5 337 3 C 333 1 328 0 320 0 L -14 0 C -24 0 -30 2 -30 8 C -30 13 -29 17 -28 20 L 676 1380 C 681 1389 685 1395 689 1397 C 692 1399 698 1400 708 1400 L 1670 1400 C 1679 1400 1685 1399 1687 1397 C 1689 1395 1690 1389 1690 1380 L 1690 1092 C 1690 1082 1689 1077 1687 1075 C 1685 1073 1679 1072 1670 1072 L 1204 1072 C 1194 1072 1189 1071 1187 1069 C 1185 1067 1184 1061 1184 1052 L 1184 864 C 1184 854 1185 849 1187 847 C 1189 845 1194 844 1204 844 L 1658 844 C 1667 844 1673 843 1675 841 C 1677 839 1678 833 1678 824 L 1678 548 C 1678 538 1677 533 1675 531 C 1673 529 1667 528 1658 528 L 1204 528 C 1194 528 1189 527 1187 525 C 1185 523 1184 517 1184 508 L 1184 348 C 1184 338 1185 333 1187 331 C 1189 329 1194 328 1204 328 L 1680 328 C 1689 328 1695 327 1697 325 C 1699 323 1700 317 1700 308 L 1700 20 C 1700 10 1699 5 1697 3 C 1695 1 1689 0 1680 0 L 804 0 C 794 0 789 1 787 3 C 785 5 784 10 784 20 L 784 238 Z M 784 924 C 784 929 780 932 774 932 C 771 932 768 931 766 931 C 763 930 761 928 760 926 L 570 530 C 567 522 566 518 566 518 C 566 512 572 510 584 510 L 764 510 C 773 510 779 511 781 513 C 783 515 784 520 784 530 L 784 924 Z" unicode="" />
<glyph horiz-adv-x="1262" d="M 788 -32 C 676 -32 575 -12 485 26 C 395 64 318 117 255 183 C 191 249 142 326 108 415 C 73 503 56 598 56 700 C 56 796 73 888 107 977 C 141 1065 189 1143 253 1211 C 316 1278 393 1332 483 1372 C 573 1412 674 1432 788 1432 C 858 1432 926 1424 991 1409 C 1055 1393 1112 1374 1160 1350 C 1170 1344 1176 1338 1176 1330 L 1176 918 C 1176 908 1173 904 1168 904 C 1164 904 1160 905 1158 908 C 1119 946 1071 975 1013 995 C 955 1014 892 1024 824 1024 C 709 1024 622 994 564 934 C 505 874 476 796 476 700 C 476 604 505 526 563 466 C 621 406 707 376 822 376 C 890 376 953 385 1012 405 C 1070 424 1119 453 1158 492 C 1160 494 1164 496 1168 496 C 1173 496 1176 491 1176 482 L 1176 70 C 1176 62 1170 55 1160 50 C 1112 26 1055 6 991 -9 C 926 -24 858 -32 788 -32 Z M 524 -226 C 537 -235 551 -243 566 -251 C 580 -258 596 -262 614 -262 C 634 -262 650 -256 662 -246 C 674 -235 682 -221 686 -204 C 688 -182 684 -164 672 -150 C 660 -135 642 -126 620 -122 C 613 -120 608 -120 604 -120 C 600 -120 596 -120 592 -120 C 580 -120 567 -122 554 -126 C 540 -131 535 -126 538 -112 L 562 14 C 563 16 564 18 564 20 C 564 21 566 22 572 24 C 586 28 605 29 628 28 C 650 26 671 24 690 22 C 751 11 801 -13 839 -51 C 877 -89 896 -136 896 -192 C 896 -260 876 -318 836 -367 C 796 -415 736 -440 658 -440 C 631 -440 603 -436 575 -430 C 546 -423 519 -411 494 -394 C 488 -390 486 -386 488 -382 L 514 -228 C 515 -225 517 -224 520 -224 C 520 -224 521 -224 524 -226 Z" unicode="" />
<glyph horiz-adv-x="1120" d="M 100 1380 C 100 1389 101 1395 103 1397 C 105 1399 110 1400 120 1400 L 1020 1400 C 1029 1400 1035 1399 1037 1397 C 1039 1395 1040 1389 1040 1380 L 1040 1092 C 1040 1082 1039 1077 1037 1075 C 1035 1073 1029 1072 1020 1072 L 530 1072 C 520 1072 515 1071 513 1069 C 511 1067 510 1061 510 1052 L 510 864 C 510 854 511 849 513 847 C 515 845 520 844 530 844 L 1000 844 C 1009 844 1015 843 1017 841 C 1019 839 1020 833 1020 824 L 1020 548 C 1020 538 1019 533 1017 531 C 1015 529 1009 528 1000 528 L 530 528 C 520 528 515 527 513 525 C 511 523 510 517 510 508 L 510 348 C 510 338 511 333 513 331 C 515 329 520 328 530 328 L 1030 328 C 1039 328 1045 327 1047 325 C 1049 323 1050 317 1050 308 L 1050 20 C 1050 10 1049 5 1047 3 C 1045 1 1039 0 1030 0 L 120 0 C 110 0 105 1 103 3 C 101 5 100 10 100 20 L 100 1380 Z M 720 1520 C 725 1513 728 1508 728 1504 C 728 1501 723 1500 714 1500 L 470 1500 C 462 1500 455 1502 450 1506 C 444 1510 439 1514 434 1520 L 192 1770 C 184 1778 180 1783 180 1786 C 180 1788 186 1790 200 1790 L 536 1790 C 544 1790 549 1788 553 1786 C 556 1783 561 1778 568 1770 L 720 1520 Z" unicode="" />
<glyph horiz-adv-x="1120" d="M 100 1380 C 100 1389 101 1395 103 1397 C 105 1399 110 1400 120 1400 L 1020 1400 C 1029 1400 1035 1399 1037 1397 C 1039 1395 1040 1389 1040 1380 L 1040 1092 C 1040 1082 1039 1077 1037 1075 C 1035 1073 1029 1072 1020 1072 L 530 1072 C 520 1072 515 1071 513 1069 C 511 1067 510 1061 510 1052 L 510 864 C 510 854 511 849 513 847 C 515 845 520 844 530 844 L 1000 844 C 1009 844 1015 843 1017 841 C 1019 839 1020 833 1020 824 L 1020 548 C 1020 538 1019 533 1017 531 C 1015 529 1009 528 1000 528 L 530 528 C 520 528 515 527 513 525 C 511 523 510 517 510 508 L 510 348 C 510 338 511 333 513 331 C 515 329 520 328 530 328 L 1030 328 C 1039 328 1045 327 1047 325 C 1049 323 1050 317 1050 308 L 1050 20 C 1050 10 1049 5 1047 3 C 1045 1 1039 0 1030 0 L 120 0 C 110 0 105 1 103 3 C 101 5 100 10 100 20 L 100 1380 Z M 542 1770 C 548 1778 553 1783 557 1786 C 560 1788 566 1790 574 1790 L 910 1790 C 923 1790 930 1788 930 1786 C 930 1783 926 1778 918 1770 L 676 1520 C 670 1514 665 1510 660 1506 C 654 1502 648 1500 640 1500 L 396 1500 C 386 1500 382 1501 382 1504 C 382 1508 384 1513 390 1520 L 542 1770 Z" unicode="" />
<glyph horiz-adv-x="1120" d="M 100 1380 C 100 1389 101 1395 103 1397 C 105 1399 110 1400 120 1400 L 1020 1400 C 1029 1400 1035 1399 1037 1397 C 1039 1395 1040 1389 1040 1380 L 1040 1092 C 1040 1082 1039 1077 1037 1075 C 1035 1073 1029 1072 1020 1072 L 530 1072 C 520 1072 515 1071 513 1069 C 511 1067 510 1061 510 1052 L 510 864 C 510 854 511 849 513 847 C 515 845 520 844 530 844 L 1000 844 C 1009 844 1015 843 1017 841 C 1019 839 1020 833 1020 824 L 1020 548 C 1020 538 1019 533 1017 531 C 1015 529 1009 528 1000 528 L 530 528 C 520 528 515 527 513 525 C 511 523 510 517 510 508 L 510 348 C 510 338 511 333 513 331 C 515 329 520 328 530 328 L 1030 328 C 1039 328 1045 327 1047 325 C 1049 323 1050 317 1050 308 L 1050 20 C 1050 10 1049 5 1047 3 C 1045 1 1039 0 1030 0 L 120 0 C 110 0 105 1 103 3 C 101 5 100 10 100 20 L 100 1380 Z M 572 1634 C 566 1634 562 1632 560 1630 L 470 1520 C 463 1513 458 1508 454 1505 C 450 1501 443 1500 434 1500 L 182 1500 C 172 1500 168 1501 168 1504 C 168 1504 172 1509 180 1520 L 402 1770 C 414 1783 426 1790 440 1790 L 704 1790 C 717 1790 730 1783 742 1770 L 964 1520 C 972 1509 976 1504 976 1504 C 976 1501 971 1500 962 1500 L 710 1500 C 700 1500 694 1501 690 1505 C 686 1508 680 1513 674 1520 L 584 1630 C 581 1632 577 1634 572 1634 Z" unicode="" />
<glyph horiz-adv-x="1120" d="M 100 1380 C 100 1389 101 1395 103 1397 C 105 1399 110 1400 120 1400 L 1020 1400 C 1029 1400 1035 1399 1037 1397 C 1039 1395 1040 1389 1040 1380 L 1040 1092 C 1040 1082 1039 1077 1037 1075 C 1035 1073 1029 1072 1020 1072 L 530 1072 C 520 1072 515 1071 513 1069 C 511 1067 510 1061 510 1052 L 510 864 C 510 854 511 849 513 847 C 515 845 520 844 530 844 L 1000 844 C 1009 844 1015 843 1017 841 C 1019 839 1020 833 1020 824 L 1020 548 C 1020 538 1019 533 1017 531 C 1015 529 1009 528 1000 528 L 530 528 C 520 528 515 527 513 525 C 511 523 510 517 510 508 L 510 348 C 510 338 511 333 513 331 C 515 329 520 328 530 328 L 1030 328 C 1039 328 1045 327 1047 325 C 1049 323 1050 317 1050 308 L 1050 20 C 1050 10 1049 5 1047 3 C 1045 1 1039 0 1030 0 L 120 0 C 110 0 105 1 103 3 C 101 5 100 10 100 20 L 100 1380 Z M 354 1494 C 307 1494 269 1509 239 1539 C 209 1569 194 1609 194 1660 C 194 1708 208 1748 237 1780 C 265 1812 304 1828 354 1828 C 402 1828 440 1812 470 1780 C 499 1748 514 1708 514 1662 C 514 1615 499 1575 469 1543 C 439 1510 400 1494 354 1494 Z M 750 1494 C 703 1494 665 1509 635 1539 C 605 1569 590 1609 590 1660 C 590 1708 604 1748 634 1780 C 663 1812 702 1828 750 1828 C 799 1828 838 1812 867 1780 C 895 1748 910 1708 910 1662 C 910 1615 895 1575 866 1543 C 836 1510 798 1494 750 1494 Z" unicode="" />
<glyph horiz-adv-x="610" d="M 100 1380 C 100 1389 101 1395 103 1397 C 105 1399 110 1400 120 1400 L 490 1400 C 499 1400 505 1399 507 1397 C 509 1395 510 1389 510 1380 L 510 20 C 510 10 509 5 507 3 C 505 1 499 0 490 0 L 120 0 C 110 0 105 1 103 3 C 101 5 100 10 100 20 L 100 1380 Z M 484 1542 C 489 1535 492 1530 492 1526 C 492 1523 487 1522 478 1522 L 234 1522 C 226 1522 219 1524 214 1528 C 208 1532 203 1536 198 1542 L -44 1792 C -52 1800 -56 1805 -56 1808 C -56 1810 -49 1812 -36 1812 L 300 1812 C 308 1812 313 1810 317 1808 C 320 1805 325 1800 332 1792 L 484 1542 Z" unicode="" />
<glyph horiz-adv-x="610" d="M 100 1380 C 100 1389 101 1395 103 1397 C 105 1399 110 1400 120 1400 L 490 1400 C 499 1400 505 1399 507 1397 C 509 1395 510 1389 510 1380 L 510 20 C 510 10 509 5 507 3 C 505 1 499 0 490 0 L 120 0 C 110 0 105 1 103 3 C 101 5 100 10 100 20 L 100 1380 Z M 276 1792 C 282 1800 287 1805 291 1808 C 294 1810 300 1812 308 1812 L 644 1812 C 657 1812 664 1810 664 1808 C 664 1805 660 1800 652 1792 L 410 1542 C 404 1536 399 1532 394 1528 C 388 1524 382 1522 374 1522 L 130 1522 C 120 1522 116 1523 116 1526 C 116 1530 118 1535 124 1542 L 276 1792 Z" unicode="" />
<glyph horiz-adv-x="610" d="M 100 1380 C 100 1389 101 1395 103 1397 C 105 1399 110 1400 120 1400 L 490 1400 C 499 1400 505 1399 507 1397 C 509 1395 510 1389 510 1380 L 510 20 C 510 10 509 5 507 3 C 505 1 499 0 490 0 L 120 0 C 110 0 105 1 103 3 C 101 5 100 10 100 20 L 100 1380 Z M 304 1634 C 298 1634 294 1632 292 1630 L 202 1520 C 195 1513 190 1508 186 1505 C 182 1501 175 1500 166 1500 L -86 1500 C -95 1500 -100 1501 -100 1504 C -100 1504 -96 1509 -88 1520 L 134 1770 C 146 1783 158 1790 172 1790 L 436 1790 C 449 1790 462 1783 474 1770 L 696 1520 C 704 1509 708 1504 708 1504 C 708 1501 703 1500 694 1500 L 442 1500 C 432 1500 426 1501 422 1505 C 418 1508 412 1513 406 1520 L 316 1630 C 313 1632 309 1634 304 1634 Z" unicode="" />
<glyph horiz-adv-x="610" d="M 100 1380 C 100 1389 101 1395 103 1397 C 105 1399 110 1400 120 1400 L 490 1400 C 499 1400 505 1399 507 1397 C 509 1395 510 1389 510 1380 L 510 20 C 510 10 509 5 507 3 C 505 1 499 0 490 0 L 120 0 C 110 0 105 1 103 3 C 101 5 100 10 100 20 L 100 1380 Z M 108 1494 C 61 1494 23 1509 -7 1539 C -37 1569 -52 1609 -52 1660 C -52 1708 -37 1748 -9 1780 C 19 1812 58 1828 108 1828 C 156 1828 194 1812 224 1780 C 253 1748 268 1708 268 1662 C 268 1615 253 1575 223 1543 C 193 1510 154 1494 108 1494 Z M 504 1494 C 457 1494 419 1509 389 1539 C 359 1569 344 1609 344 1660 C 344 1708 358 1748 388 1780 C 417 1812 456 1828 504 1828 C 553 1828 592 1812 621 1780 C 649 1748 664 1708 664 1662 C 664 1615 649 1575 620 1543 C 590 1510 552 1494 504 1494 Z" unicode="" />
<glyph horiz-adv-x="1356" d="M 100 1380 C 100 1389 101 1395 103 1397 C 105 1399 110 1400 120 1400 L 608 1400 C 693 1400 768 1391 834 1375 C 899 1358 955 1335 1002 1306 C 1099 1246 1173 1162 1224 1056 C 1274 949 1300 830 1300 700 C 1300 628 1291 558 1275 492 C 1258 425 1233 363 1201 307 C 1168 250 1128 200 1080 157 C 1032 113 976 78 912 52 C 870 34 823 21 769 13 C 715 4 661 0 608 0 L 120 0 C 110 0 105 1 103 3 C 101 5 100 10 100 20 L 100 562 C 98 570 92 574 80 574 L 0 574 C -9 574 -15 575 -17 577 C -19 579 -20 584 -20 594 L -20 810 C -20 819 -19 825 -17 827 C -15 829 -9 830 0 830 L 80 830 C 89 830 95 831 97 833 C 99 835 100 840 100 850 L 100 1380 Z M 510 1020 C 500 1020 495 1019 493 1017 C 491 1015 490 1009 490 1000 L 490 850 C 490 840 491 835 495 833 C 498 831 503 830 510 830 L 664 830 C 673 830 679 829 681 827 C 683 825 684 819 684 810 L 684 594 C 684 584 683 579 681 577 C 679 575 673 574 664 574 L 510 574 C 500 574 495 573 493 571 C 491 569 490 563 490 554 L 490 400 C 490 390 491 385 493 383 C 495 381 500 380 510 380 L 624 380 C 801 380 890 486 890 700 C 890 913 801 1020 624 1020 L 510 1020 Z" unicode="" />
<glyph horiz-adv-x="1264" d="M 516 568 C 512 572 507 574 502 574 C 491 574 486 570 486 562 L 486 20 C 486 10 485 5 483 3 C 481 1 475 0 466 0 L 116 0 C 106 0 101 1 99 3 C 97 5 96 10 96 20 L 96 1426 C 96 1435 100 1440 110 1440 C 112 1440 115 1439 119 1439 C 122 1438 127 1435 134 1430 L 748 828 C 752 824 756 822 762 822 C 772 822 778 826 778 834 L 778 1380 C 778 1389 779 1395 781 1397 C 783 1399 788 1400 798 1400 L 1148 1400 C 1157 1400 1163 1399 1165 1397 C 1167 1395 1168 1389 1168 1380 L 1168 -26 C 1168 -35 1163 -40 1154 -40 C 1144 -40 1136 -36 1130 -30 L 516 568 Z M 796 1508 C 753 1508 720 1513 697 1523 C 673 1533 654 1544 639 1556 C 623 1568 609 1579 596 1589 C 582 1599 565 1604 544 1604 C 525 1604 509 1598 496 1587 C 482 1575 476 1558 476 1536 C 476 1528 475 1522 473 1520 C 471 1517 465 1516 456 1516 L 302 1516 C 292 1516 287 1517 285 1520 C 283 1522 282 1528 282 1536 L 282 1566 C 282 1599 287 1631 298 1662 C 308 1692 323 1719 343 1741 C 362 1763 386 1780 414 1794 C 442 1807 474 1814 510 1814 C 551 1814 584 1809 608 1799 C 632 1789 652 1778 668 1766 C 684 1754 698 1743 711 1733 C 723 1723 740 1718 762 1718 C 780 1718 796 1723 810 1735 C 823 1746 830 1763 830 1786 C 830 1794 831 1799 833 1802 C 835 1804 840 1806 850 1806 L 1004 1806 C 1013 1806 1019 1804 1021 1802 C 1023 1799 1024 1794 1024 1786 L 1024 1756 C 1024 1721 1018 1689 1008 1659 C 997 1629 982 1603 963 1581 C 943 1559 920 1541 892 1528 C 864 1514 832 1508 796 1508 Z" unicode="" />
<glyph horiz-adv-x="1540" d="M 1484 700 C 1484 600 1465 505 1429 417 C 1392 328 1341 250 1277 184 C 1212 117 1136 64 1050 26 C 963 -12 870 -32 770 -32 C 670 -32 576 -12 490 26 C 403 64 327 117 263 184 C 198 250 147 328 111 417 C 74 505 56 600 56 700 C 56 800 74 894 111 983 C 147 1071 198 1149 263 1216 C 327 1282 403 1335 490 1374 C 576 1412 670 1432 770 1432 C 870 1432 963 1412 1050 1374 C 1136 1335 1212 1282 1277 1216 C 1341 1149 1392 1071 1429 983 C 1465 894 1484 800 1484 700 Z M 476 700 C 476 654 483 612 497 573 C 511 533 530 499 556 470 C 581 440 612 417 648 401 C 684 384 724 376 770 376 C 815 376 856 384 892 401 C 928 417 958 440 984 470 C 1009 499 1029 533 1043 573 C 1057 612 1064 654 1064 700 C 1064 745 1057 787 1043 827 C 1029 866 1009 900 984 930 C 958 959 928 982 892 999 C 856 1015 815 1024 770 1024 C 724 1024 684 1015 648 999 C 612 982 581 959 556 930 C 530 900 511 866 497 827 C 483 787 476 745 476 700 Z M 950 1520 C 955 1513 958 1508 958 1504 C 958 1501 953 1500 944 1500 L 700 1500 C 692 1500 685 1502 680 1506 C 674 1510 669 1514 664 1520 L 422 1770 C 414 1778 410 1783 410 1786 C 410 1788 416 1790 430 1790 L 766 1790 C 774 1790 779 1788 783 1786 C 786 1783 791 1778 798 1770 L 950 1520 Z" unicode="" />
<glyph horiz-adv-x="1540" d="M 1484 700 C 1484 600 1465 505 1429 417 C 1392 328 1341 250 1277 184 C 1212 117 1136 64 1050 26 C 963 -12 870 -32 770 -32 C 670 -32 576 -12 490 26 C 403 64 327 117 263 184 C 198 250 147 328 111 417 C 74 505 56 600 56 700 C 56 800 74 894 111 983 C 147 1071 198 1149 263 1216 C 327 1282 403 1335 490 1374 C 576 1412 670 1432 770 1432 C 870 1432 963 1412 1050 1374 C 1136 1335 1212 1282 1277 1216 C 1341 1149 1392 1071 1429 983 C 1465 894 1484 800 1484 700 Z M 476 700 C 476 654 483 612 497 573 C 511 533 530 499 556 470 C 581 440 612 417 648 401 C 684 384 724 376 770 376 C 815 376 856 384 892 401 C 928 417 958 440 984 470 C 1009 499 1029 533 1043 573 C 1057 612 1064 654 1064 700 C 1064 745 1057 787 1043 827 C 1029 866 1009 900 984 930 C 958 959 928 982 892 999 C 856 1015 815 1024 770 1024 C 724 1024 684 1015 648 999 C 612 982 581 959 556 930 C 530 900 511 866 497 827 C 483 787 476 745 476 700 Z M 742 1770 C 748 1778 753 1783 757 1786 C 760 1788 766 1790 774 1790 L 1110 1790 C 1123 1790 1130 1788 1130 1786 C 1130 1783 1126 1778 1118 1770 L 876 1520 C 870 1514 865 1510 860 1506 C 854 1502 848 1500 840 1500 L 596 1500 C 586 1500 582 1501 582 1504 C 582 1508 584 1513 590 1520 L 742 1770 Z" unicode="" />
<glyph horiz-adv-x="1540" d="M 1484 700 C 1484 600 1465 505 1429 417 C 1392 328 1341 250 1277 184 C 1212 117 1136 64 1050 26 C 963 -12 870 -32 770 -32 C 670 -32 576 -12 490 26 C 403 64 327 117 263 184 C 198 250 147 328 111 417 C 74 505 56 600 56 700 C 56 800 74 894 111 983 C 147 1071 198 1149 263 1216 C 327 1282 403 1335 490 1374 C 576 1412 670 1432 770 1432 C 870 1432 963 1412 1050 1374 C 1136 1335 1212 1282 1277 1216 C 1341 1149 1392 1071 1429 983 C 1465 894 1484 800 1484 700 Z M 476 700 C 476 654 483 612 497 573 C 511 533 530 499 556 470 C 581 440 612 417 648 401 C 684 384 724 376 770 376 C 815 376 856 384 892 401 C 928 417 958 440 984 470 C 1009 499 1029 533 1043 573 C 1057 612 1064 654 1064 700 C 1064 745 1057 787 1043 827 C 1029 866 1009 900 984 930 C 958 959 928 982 892 999 C 856 1015 815 1024 770 1024 C 724 1024 684 1015 648 999 C 612 982 581 959 556 930 C 530 900 511 866 497 827 C 483 787 476 745 476 700 Z M 770 1634 C 764 1634 760 1632 758 1630 L 668 1520 C 661 1513 656 1508 652 1505 C 648 1501 641 1500 632 1500 L 380 1500 C 370 1500 366 1501 366 1504 C 366 1504 370 1509 378 1520 L 600 1770 C 612 1783 624 1790 638 1790 L 902 1790 C 915 1790 928 1783 940 1770 L 1162 1520 C 1170 1509 1174 1504 1174 1504 C 1174 1501 1169 1500 1160 1500 L 908 1500 C 898 1500 892 1501 888 1505 C 884 1508 878 1513 872 1520 L 782 1630 C 779 1632 775 1634 770 1634 Z" unicode="" />
<glyph horiz-adv-x="1540" d="M 1484 700 C 1484 600 1465 505 1429 417 C 1392 328 1341 250 1277 184 C 1212 117 1136 64 1050 26 C 963 -12 870 -32 770 -32 C 670 -32 576 -12 490 26 C 403 64 327 117 263 184 C 198 250 147 328 111 417 C 74 505 56 600 56 700 C 56 800 74 894 111 983 C 147 1071 198 1149 263 1216 C 327 1282 403 1335 490 1374 C 576 1412 670 1432 770 1432 C 870 1432 963 1412 1050 1374 C 1136 1335 1212 1282 1277 1216 C 1341 1149 1392 1071 1429 983 C 1465 894 1484 800 1484 700 Z M 476 700 C 476 654 483 612 497 573 C 511 533 530 499 556 470 C 581 440 612 417 648 401 C 684 384 724 376 770 376 C 815 376 856 384 892 401 C 928 417 958 440 984 470 C 1009 499 1029 533 1043 573 C 1057 612 1064 654 1064 700 C 1064 745 1057 787 1043 827 C 1029 866 1009 900 984 930 C 958 959 928 982 892 999 C 856 1015 815 1024 770 1024 C 724 1024 684 1015 648 999 C 612 982 581 959 556 930 C 530 900 511 866 497 827 C 483 787 476 745 476 700 Z M 918 1508 C 875 1508 842 1513 819 1523 C 795 1533 776 1544 761 1556 C 745 1568 731 1579 718 1589 C 704 1599 687 1604 666 1604 C 647 1604 631 1598 618 1587 C 604 1575 598 1558 598 1536 C 598 1528 597 1522 595 1520 C 593 1517 587 1516 578 1516 L 424 1516 C 414 1516 409 1517 407 1520 C 405 1522 404 1528 404 1536 L 404 1566 C 404 1599 409 1631 420 1662 C 430 1692 445 1719 465 1741 C 484 1763 508 1780 536 1794 C 564 1807 596 1814 632 1814 C 673 1814 706 1809 730 1799 C 754 1789 774 1778 790 1766 C 806 1754 820 1743 833 1733 C 845 1723 862 1718 884 1718 C 902 1718 918 1723 932 1735 C 945 1746 952 1763 952 1786 C 952 1794 953 1799 955 1802 C 957 1804 962 1806 972 1806 L 1126 1806 C 1135 1806 1141 1804 1143 1802 C 1145 1799 1146 1794 1146 1786 L 1146 1756 C 1146 1721 1140 1689 1130 1659 C 1119 1629 1104 1603 1085 1581 C 1065 1559 1042 1541 1014 1528 C 986 1514 954 1508 918 1508 Z" unicode="" />
<glyph horiz-adv-x="1540" d="M 1484 700 C 1484 600 1465 505 1429 417 C 1392 328 1341 250 1277 184 C 1212 117 1136 64 1050 26 C 963 -12 870 -32 770 -32 C 670 -32 576 -12 490 26 C 403 64 327 117 263 184 C 198 250 147 328 111 417 C 74 505 56 600 56 700 C 56 800 74 894 111 983 C 147 1071 198 1149 263 1216 C 327 1282 403 1335 490 1374 C 576 1412 670 1432 770 1432 C 870 1432 963 1412 1050 1374 C 1136 1335 1212 1282 1277 1216 C 1341 1149 1392 1071 1429 983 C 1465 894 1484 800 1484 700 Z M 476 700 C 476 654 483 612 497 573 C 511 533 530 499 556 470 C 581 440 612 417 648 401 C 684 384 724 376 770 376 C 815 376 856 384 892 401 C 928 417 958 440 984 470 C 1009 499 1029 533 1043 573 C 1057 612 1064 654 1064 700 C 1064 745 1057 787 1043 827 C 1029 866 1009 900 984 930 C 958 959 928 982 892 999 C 856 1015 815 1024 770 1024 C 724 1024 684 1015 648 999 C 612 982 581 959 556 930 C 530 900 511 866 497 827 C 483 787 476 745 476 700 Z M 574 1494 C 527 1494 489 1509 459 1539 C 429 1569 414 1609 414 1660 C 414 1708 428 1748 457 1780 C 485 1812 524 1828 574 1828 C 622 1828 660 1812 690 1780 C 719 1748 734 1708 734 1662 C 734 1615 719 1575 689 1543 C 659 1510 620 1494 574 1494 Z M 970 1494 C 923 1494 885 1509 855 1539 C 825 1569 810 1609 810 1660 C 810 1708 824 1748 854 1780 C 883 1812 922 1828 970 1828 C 1019 1828 1058 1812 1087 1780 C 1115 1748 1130 1708 1130 1662 C 1130 1615 1115 1575 1086 1543 C 1056 1510 1018 1494 970 1494 Z" unicode="" />
<glyph horiz-adv-x="1080" d="M 264 66 C 260 62 256 60 254 60 C 251 60 248 62 244 66 L 122 188 C 118 192 116 195 116 198 C 116 200 118 204 122 208 L 380 466 C 384 470 387 473 389 475 C 391 477 392 480 392 484 C 392 487 391 490 389 492 C 387 494 384 498 380 502 L 122 760 C 118 764 116 767 116 770 C 116 772 118 776 122 780 L 244 902 C 248 906 251 908 254 908 C 255 908 256 907 257 907 C 258 907 260 905 264 902 L 522 644 C 528 637 534 634 540 634 C 545 634 551 637 558 644 L 816 902 C 820 906 823 908 826 908 C 828 908 832 906 836 902 L 958 780 C 962 776 964 772 964 770 C 964 767 962 764 958 760 L 700 502 C 693 495 690 489 690 484 C 690 478 693 472 700 466 C 715 450 734 430 757 408 C 779 385 803 362 827 338 C 851 314 875 290 898 267 C 921 244 941 224 958 208 C 962 204 964 200 964 198 C 964 195 962 192 958 188 L 836 66 C 832 62 828 60 826 60 C 823 60 820 62 816 66 L 558 324 C 551 330 545 334 540 334 C 536 334 533 333 531 332 C 529 330 526 328 522 324 L 264 66 Z" unicode="" />
<glyph horiz-adv-x="1540" d="M 500 560 C 502 553 506 549 511 547 C 515 545 521 547 528 554 L 888 974 C 898 986 896 995 882 1002 C 846 1016 808 1024 770 1024 C 724 1024 684 1015 648 999 C 612 982 581 959 556 930 C 530 900 511 866 497 827 C 483 787 476 745 476 700 C 476 648 484 601 500 560 Z M 654 398 C 684 383 723 376 770 376 C 815 376 856 384 892 401 C 928 417 958 440 984 470 C 1009 499 1029 533 1043 573 C 1057 612 1064 654 1064 700 C 1064 750 1054 798 1036 844 C 1029 860 1020 862 1008 850 L 648 426 C 637 414 639 404 654 398 Z M 208 208 C 214 214 218 220 219 224 C 219 228 217 233 212 240 C 161 304 122 374 96 452 C 69 529 56 612 56 700 C 56 800 74 894 111 983 C 147 1071 198 1149 263 1216 C 327 1282 403 1335 490 1374 C 576 1412 670 1432 770 1432 C 840 1432 907 1422 971 1402 C 1034 1382 1094 1354 1150 1320 C 1156 1316 1162 1314 1166 1314 C 1170 1314 1175 1317 1182 1324 L 1266 1424 C 1272 1432 1277 1436 1281 1437 C 1284 1437 1289 1435 1296 1430 L 1416 1324 C 1422 1317 1425 1311 1423 1307 C 1421 1302 1418 1298 1416 1294 L 1330 1192 C 1323 1185 1319 1180 1319 1176 C 1318 1172 1320 1166 1326 1160 C 1376 1096 1415 1025 1443 948 C 1470 870 1484 788 1484 700 C 1484 600 1465 505 1429 417 C 1392 328 1341 250 1277 184 C 1212 117 1136 64 1050 26 C 963 -12 870 -32 770 -32 C 699 -32 632 -22 568 -2 C 504 18 444 45 390 80 C 383 84 378 86 374 86 C 370 86 364 82 358 76 L 274 -24 C 267 -32 262 -36 259 -37 C 255 -37 250 -35 244 -30 L 124 76 C 117 82 115 88 117 93 C 119 97 121 102 124 106 L 208 208 Z" unicode="" />
<glyph horiz-adv-x="1332" d="M 822 1380 C 822 1389 823 1395 825 1397 C 827 1399 832 1400 842 1400 L 1212 1400 C 1221 1400 1227 1399 1229 1397 C 1231 1395 1232 1389 1232 1380 L 1232 424 C 1232 348 1215 281 1182 224 C 1148 166 1105 119 1052 81 C 998 43 938 14 870 -4 C 802 -22 734 -32 666 -32 C 598 -32 530 -22 462 -4 C 394 14 333 43 280 81 C 226 119 183 166 150 224 C 116 281 100 348 100 424 L 100 1380 C 100 1389 101 1395 103 1397 C 105 1399 110 1400 120 1400 L 490 1400 C 499 1400 505 1399 507 1397 C 509 1395 510 1389 510 1380 L 510 538 C 510 507 514 481 524 460 C 533 438 545 421 560 408 C 574 394 591 384 610 378 C 628 371 647 368 666 368 C 686 368 705 371 724 378 C 742 384 759 394 774 408 C 788 421 800 438 809 460 C 817 481 822 507 822 538 L 822 1380 Z M 818 1520 C 823 1513 826 1508 826 1504 C 826 1501 821 1500 812 1500 L 568 1500 C 560 1500 553 1502 548 1506 C 542 1510 537 1514 532 1520 L 290 1770 C 282 1778 278 1783 278 1786 C 278 1788 284 1790 298 1790 L 634 1790 C 642 1790 647 1788 651 1786 C 654 1783 659 1778 666 1770 L 818 1520 Z" unicode="" />
<glyph horiz-adv-x="1332" d="M 822 1380 C 822 1389 823 1395 825 1397 C 827 1399 832 1400 842 1400 L 1212 1400 C 1221 1400 1227 1399 1229 1397 C 1231 1395 1232 1389 1232 1380 L 1232 424 C 1232 348 1215 281 1182 224 C 1148 166 1105 119 1052 81 C 998 43 938 14 870 -4 C 802 -22 734 -32 666 -32 C 598 -32 530 -22 462 -4 C 394 14 333 43 280 81 C 226 119 183 166 150 224 C 116 281 100 348 100 424 L 100 1380 C 100 1389 101 1395 103 1397 C 105 1399 110 1400 120 1400 L 490 1400 C 499 1400 505 1399 507 1397 C 509 1395 510 1389 510 1380 L 510 538 C 510 507 514 481 524 460 C 533 438 545 421 560 408 C 574 394 591 384 610 378 C 628 371 647 368 666 368 C 686 368 705 371 724 378 C 742 384 759 394 774 408 C 788 421 800 438 809 460 C 817 481 822 507 822 538 L 822 1380 Z M 666 1770 C 672 1778 677 1783 681 1786 C 684 1788 690 1790 698 1790 L 1034 1790 C 1047 1790 1054 1788 1054 1786 C 1054 1783 1050 1778 1042 1770 L 800 1520 C 794 1514 789 1510 784 1506 C 778 1502 772 1500 764 1500 L 520 1500 C 510 1500 506 1501 506 1504 C 506 1508 508 1513 514 1520 L 666 1770 Z" unicode="" />
<glyph horiz-adv-x="1332" d="M 822 1380 C 822 1389 823 1395 825 1397 C 827 1399 832 1400 842 1400 L 1212 1400 C 1221 1400 1227 1399 1229 1397 C 1231 1395 1232 1389 1232 1380 L 1232 424 C 1232 348 1215 281 1182 224 C 1148 166 1105 119 1052 81 C 998 43 938 14 870 -4 C 802 -22 734 -32 666 -32 C 598 -32 530 -22 462 -4 C 394 14 333 43 280 81 C 226 119 183 166 150 224 C 116 281 100 348 100 424 L 100 1380 C 100 1389 101 1395 103 1397 C 105 1399 110 1400 120 1400 L 490 1400 C 499 1400 505 1399 507 1397 C 509 1395 510 1389 510 1380 L 510 538 C 510 507 514 481 524 460 C 533 438 545 421 560 408 C 574 394 591 384 610 378 C 628 371 647 368 666 368 C 686 368 705 371 724 378 C 742 384 759 394 774 408 C 788 421 800 438 809 460 C 817 481 822 507 822 538 L 822 1380 Z M 666 1634 C 660 1634 656 1632 654 1630 L 564 1520 C 557 1513 552 1508 548 1505 C 544 1501 537 1500 528 1500 L 276 1500 C 266 1500 262 1501 262 1504 C 262 1504 266 1509 274 1520 L 496 1770 C 508 1783 520 1790 534 1790 L 798 1790 C 811 1790 824 1783 836 1770 L 1058 1520 C 1066 1509 1070 1504 1070 1504 C 1070 1501 1065 1500 1056 1500 L 804 1500 C 794 1500 788 1501 784 1505 C 780 1508 774 1513 768 1520 L 678 1630 C 675 1632 671 1634 666 1634 Z" unicode="" />
<glyph horiz-adv-x="1332" d="M 822 1380 C 822 1389 823 1395 825 1397 C 827 1399 832 1400 842 1400 L 1212 1400 C 1221 1400 1227 1399 1229 1397 C 1231 1395 1232 1389 1232 1380 L 1232 424 C 1232 348 1215 281 1182 224 C 1148 166 1105 119 1052 81 C 998 43 938 14 870 -4 C 802 -22 734 -32 666 -32 C 598 -32 530 -22 462 -4 C 394 14 333 43 280 81 C 226 119 183 166 150 224 C 116 281 100 348 100 424 L 100 1380 C 100 1389 101 1395 103 1397 C 105 1399 110 1400 120 1400 L 490 1400 C 499 1400 505 1399 507 1397 C 509 1395 510 1389 510 1380 L 510 538 C 510 507 514 481 524 460 C 533 438 545 421 560 408 C 574 394 591 384 610 378 C 628 371 647 368 666 368 C 686 368 705 371 724 378 C 742 384 759 394 774 408 C 788 421 800 438 809 460 C 817 481 822 507 822 538 L 822 1380 Z M 470 1494 C 423 1494 385 1509 355 1539 C 325 1569 310 1609 310 1660 C 310 1708 324 1748 353 1780 C 381 1812 420 1828 470 1828 C 518 1828 556 1812 586 1780 C 615 1748 630 1708 630 1662 C 630 1615 615 1575 585 1543 C 555 1510 516 1494 470 1494 Z M 866 1494 C 819 1494 781 1509 751 1539 C 721 1569 706 1609 706 1660 C 706 1708 720 1748 750 1780 C 779 1812 818 1828 866 1828 C 915 1828 954 1812 983 1780 C 1011 1748 1026 1708 1026 1662 C 1026 1615 1011 1575 982 1543 C 952 1510 914 1494 866 1494 Z" unicode="" />
<glyph horiz-adv-x="1294" d="M 442 566 L -16 1380 C -18 1385 -20 1389 -20 1392 C -20 1397 -16 1400 -8 1400 L 400 1400 C 410 1400 419 1393 426 1380 L 642 976 C 643 972 646 970 652 970 C 656 970 659 972 662 976 L 878 1380 C 883 1389 887 1395 890 1397 C 892 1399 897 1400 904 1400 L 1302 1400 C 1310 1400 1314 1397 1314 1392 C 1314 1389 1312 1385 1310 1380 L 852 566 L 852 20 C 852 10 851 5 849 3 C 847 1 841 0 832 0 L 462 0 C 452 0 447 1 445 3 C 443 5 442 10 442 20 L 442 566 Z M 630 1770 C 636 1778 641 1783 645 1786 C 648 1788 654 1790 662 1790 L 998 1790 C 1011 1790 1018 1788 1018 1786 C 1018 1783 1014 1778 1006 1770 L 764 1520 C 758 1514 753 1510 748 1506 C 742 1502 736 1500 728 1500 L 484 1500 C 474 1500 470 1501 470 1504 C 470 1508 472 1513 478 1520 L 630 1770 Z" unicode="" />
<glyph horiz-adv-x="1252" d="M 520 872 C 510 872 505 871 503 869 C 501 867 500 861 500 852 L 500 568 C 500 558 501 553 503 551 C 505 549 510 548 520 548 L 604 548 C 658 548 703 560 739 586 C 774 611 792 652 792 710 C 792 818 729 872 604 872 L 520 872 Z M 682 1168 C 738 1168 791 1163 843 1153 C 894 1143 940 1126 982 1104 C 1050 1065 1103 1016 1141 956 C 1179 896 1198 816 1198 718 C 1198 642 1185 575 1160 517 C 1134 459 1099 410 1054 371 C 1008 331 954 301 892 281 C 829 260 761 250 688 250 L 520 250 C 510 250 505 249 503 247 C 501 245 500 239 500 230 L 500 20 C 500 10 499 5 497 3 C 495 1 489 0 480 0 L 120 0 C 110 0 105 1 103 3 C 101 5 100 10 100 20 L 100 1380 C 100 1389 101 1395 103 1397 C 105 1399 110 1400 120 1400 L 480 1400 C 489 1400 495 1399 497 1397 C 499 1395 500 1389 500 1380 L 500 1188 C 500 1178 501 1173 503 1171 C 505 1169 510 1168 520 1168 L 682 1168 Z" unicode="" />
<glyph horiz-adv-x="1140" d="M 852 926 C 846 922 844 918 844 914 C 844 910 846 906 852 904 C 886 890 920 873 953 851 C 985 829 1014 801 1040 767 C 1065 733 1085 692 1101 644 C 1116 596 1124 539 1124 474 C 1124 395 1111 325 1087 263 C 1062 201 1027 148 983 106 C 938 63 885 31 825 9 C 764 -13 698 -24 626 -24 L 546 -24 C 536 -24 531 -22 529 -20 C 527 -17 526 -12 526 -4 L 526 256 C 526 264 527 269 529 272 C 531 274 536 276 546 276 L 600 276 C 658 276 702 293 732 327 C 761 361 776 406 776 464 C 776 528 758 579 722 618 C 686 656 630 676 556 676 L 526 676 C 516 676 511 677 509 680 C 507 682 506 688 506 696 L 506 932 C 506 940 507 945 509 948 C 511 950 516 952 526 952 L 544 952 C 574 958 600 976 622 1005 C 643 1033 654 1065 654 1100 C 654 1149 641 1184 617 1205 C 592 1225 564 1236 532 1236 C 500 1236 473 1225 452 1205 C 430 1184 420 1149 420 1100 L 420 20 C 420 12 419 6 417 4 C 415 1 409 0 400 0 L 88 0 C 78 0 73 1 71 4 C 69 6 68 12 68 20 L 68 1182 C 68 1238 79 1287 101 1329 C 123 1371 153 1406 193 1436 C 232 1465 278 1487 332 1502 C 385 1516 444 1524 508 1524 C 672 1524 793 1492 872 1428 C 950 1364 990 1279 990 1174 C 990 1115 976 1065 950 1024 C 923 982 890 950 852 926 Z" unicode="" />
<glyph horiz-adv-x="1010" d="M 708 1032 C 713 1025 716 1020 716 1016 C 716 1013 711 1012 702 1012 L 458 1012 C 450 1012 443 1014 438 1018 C 432 1022 427 1026 422 1032 L 180 1282 C 172 1290 168 1295 168 1298 C 168 1300 174 1302 188 1302 L 524 1302 C 532 1302 537 1300 541 1298 C 544 1295 549 1290 556 1282 L 708 1032 Z M 630 0 C 620 0 615 1 613 4 C 611 6 610 12 610 20 L 610 78 C 610 80 607 82 602 82 C 598 82 595 81 594 80 C 567 50 535 26 497 6 C 459 -14 409 -24 348 -24 C 244 -24 165 3 112 57 C 58 111 32 184 32 276 C 32 322 41 365 59 404 C 77 442 101 475 132 503 C 162 530 198 551 240 566 C 281 580 325 588 372 588 C 418 588 459 583 494 574 C 528 564 556 552 578 538 C 580 536 583 536 586 536 C 591 536 594 541 594 552 L 594 566 C 594 610 578 641 547 659 C 515 677 472 686 418 686 C 368 686 326 679 292 666 C 257 652 232 642 218 636 C 210 632 204 630 202 630 C 198 630 196 635 196 646 L 196 830 C 196 839 201 847 212 854 C 224 862 241 869 265 877 C 288 884 313 890 340 896 C 366 901 394 905 423 909 C 451 912 477 914 500 914 C 592 914 669 902 731 880 C 793 857 839 822 870 776 C 882 758 892 740 901 721 C 909 701 917 678 924 652 C 930 625 935 594 939 558 C 942 522 944 479 944 430 L 944 20 C 944 12 943 6 941 4 C 939 1 933 0 924 0 L 630 0 Z M 360 316 C 360 286 371 263 393 247 C 415 230 443 222 478 222 C 516 222 546 230 566 247 C 586 263 596 286 596 316 C 596 344 586 366 566 383 C 546 399 516 408 478 408 C 443 408 415 399 393 383 C 371 366 360 344 360 316 Z" unicode="" />
<glyph horiz-adv-x="1010" d="M 474 1282 C 480 1290 485 1295 489 1298 C 492 1300 498 1302 506 1302 L 842 1302 C 855 1302 862 1300 862 1298 C 862 1295 858 1290 850 1282 L 608 1032 C 602 1026 597 1022 592 1018 C 586 1014 580 1012 572 1012 L 328 1012 C 318 1012 314 1013 314 1016 C 314 1020 316 1025 322 1032 L 474 1282 Z M 630 0 C 620 0 615 1 613 4 C 611 6 610 12 610 20 L 610 78 C 610 80 607 82 602 82 C 598 82 595 81 594 80 C 567 50 535 26 497 6 C 459 -14 409 -24 348 -24 C 244 -24 165 3 112 57 C 58 111 32 184 32 276 C 32 322 41 365 59 404 C 77 442 101 475 132 503 C 162 530 198 551 240 566 C 281 580 325 588 372 588 C 418 588 459 583 494 574 C 528 564 556 552 578 538 C 580 536 583 536 586 536 C 591 536 594 541 594 552 L 594 566 C 594 610 578 641 547 659 C 515 677 472 686 418 686 C 368 686 326 679 292 666 C 257 652 232 642 218 636 C 210 632 204 630 202 630 C 198 630 196 635 196 646 L 196 830 C 196 839 201 847 212 854 C 224 862 241 869 265 877 C 288 884 313 890 340 896 C 366 901 394 905 423 909 C 451 912 477 914 500 914 C 592 914 669 902 731 880 C 793 857 839 822 870 776 C 882 758 892 740 901 721 C 909 701 917 678 924 652 C 930 625 935 594 939 558 C 942 522 944 479 944 430 L 944 20 C 944 12 943 6 941 4 C 939 1 933 0 924 0 L 630 0 Z M 360 316 C 360 286 371 263 393 247 C 415 230 443 222 478 222 C 516 222 546 230 566 247 C 586 263 596 286 596 316 C 596 344 586 366 566 383 C 546 399 516 408 478 408 C 443 408 415 399 393 383 C 371 366 360 344 360 316 Z" unicode="" />
<glyph horiz-adv-x="1010" d="M 526 1146 C 520 1146 516 1144 514 1142 L 424 1032 C 417 1025 412 1020 408 1017 C 404 1013 397 1012 388 1012 L 136 1012 C 126 1012 122 1013 122 1016 C 122 1016 126 1021 134 1032 L 356 1282 C 368 1295 380 1302 394 1302 L 658 1302 C 671 1302 684 1295 696 1282 L 918 1032 C 926 1021 930 1016 930 1016 C 930 1013 925 1012 916 1012 L 664 1012 C 654 1012 648 1013 644 1017 C 640 1020 634 1025 628 1032 L 538 1142 C 535 1144 531 1146 526 1146 Z M 630 0 C 620 0 615 1 613 4 C 611 6 610 12 610 20 L 610 78 C 610 80 607 82 602 82 C 598 82 595 81 594 80 C 567 50 535 26 497 6 C 459 -14 409 -24 348 -24 C 244 -24 165 3 112 57 C 58 111 32 184 32 276 C 32 322 41 365 59 404 C 77 442 101 475 132 503 C 162 530 198 551 240 566 C 281 580 325 588 372 588 C 418 588 459 583 494 574 C 528 564 556 552 578 538 C 580 536 583 536 586 536 C 591 536 594 541 594 552 L 594 566 C 594 610 578 641 547 659 C 515 677 472 686 418 686 C 368 686 326 679 292 666 C 257 652 232 642 218 636 C 210 632 204 630 202 630 C 198 630 196 635 196 646 L 196 830 C 196 839 201 847 212 854 C 224 862 241 869 265 877 C 288 884 313 890 340 896 C 366 901 394 905 423 909 C 451 912 477 914 500 914 C 592 914 669 902 731 880 C 793 857 839 822 870 776 C 882 758 892 740 901 721 C 909 701 917 678 924 652 C 930 625 935 594 939 558 C 942 522 944 479 944 430 L 944 20 C 944 12 943 6 941 4 C 939 1 933 0 924 0 L 630 0 Z M 360 316 C 360 286 371 263 393 247 C 415 230 443 222 478 222 C 516 222 546 230 566 247 C 586 263 596 286 596 316 C 596 344 586 366 566 383 C 546 399 516 408 478 408 C 443 408 415 399 393 383 C 371 366 360 344 360 316 Z" unicode="" />
<glyph horiz-adv-x="1010" d="M 678 1004 C 635 1004 602 1009 579 1019 C 555 1029 536 1040 521 1052 C 505 1064 491 1075 478 1085 C 464 1095 447 1100 426 1100 C 407 1100 391 1094 378 1083 C 364 1071 358 1054 358 1032 C 358 1024 357 1018 355 1016 C 353 1013 347 1012 338 1012 L 184 1012 C 174 1012 169 1013 167 1016 C 165 1018 164 1024 164 1032 L 164 1062 C 164 1095 169 1127 180 1158 C 190 1188 205 1215 225 1237 C 244 1259 268 1276 296 1290 C 324 1303 356 1310 392 1310 C 433 1310 466 1305 490 1295 C 514 1285 534 1274 550 1262 C 566 1250 580 1239 593 1229 C 605 1219 622 1214 644 1214 C 662 1214 678 1219 692 1231 C 705 1242 712 1259 712 1282 C 712 1290 713 1295 715 1298 C 717 1300 722 1302 732 1302 L 886 1302 C 895 1302 901 1300 903 1298 C 905 1295 906 1290 906 1282 L 906 1252 C 906 1217 900 1185 890 1155 C 879 1125 864 1099 845 1077 C 825 1055 802 1037 774 1024 C 746 1010 714 1004 678 1004 Z M 630 0 C 620 0 615 1 613 4 C 611 6 610 12 610 20 L 610 78 C 610 80 607 82 602 82 C 598 82 595 81 594 80 C 567 50 535 26 497 6 C 459 -14 409 -24 348 -24 C 244 -24 165 3 112 57 C 58 111 32 184 32 276 C 32 322 41 365 59 404 C 77 442 101 475 132 503 C 162 530 198 551 240 566 C 281 580 325 588 372 588 C 418 588 459 583 494 574 C 528 564 556 552 578 538 C 580 536 583 536 586 536 C 591 536 594 541 594 552 L 594 566 C 594 610 578 641 547 659 C 515 677 472 686 418 686 C 368 686 326 679 292 666 C 257 652 232 642 218 636 C 210 632 204 630 202 630 C 198 630 196 635 196 646 L 196 830 C 196 839 201 847 212 854 C 224 862 241 869 265 877 C 288 884 313 890 340 896 C 366 901 394 905 423 909 C 451 912 477 914 500 914 C 592 914 669 902 731 880 C 793 857 839 822 870 776 C 882 758 892 740 901 721 C 909 701 917 678 924 652 C 930 625 935 594 939 558 C 942 522 944 479 944 430 L 944 20 C 944 12 943 6 941 4 C 939 1 933 0 924 0 L 630 0 Z M 360 316 C 360 286 371 263 393 247 C 415 230 443 222 478 222 C 516 222 546 230 566 247 C 586 263 596 286 596 316 C 596 344 586 366 566 383 C 546 399 516 408 478 408 C 443 408 415 399 393 383 C 371 366 360 344 360 316 Z" unicode="" />
<glyph horiz-adv-x="1010" d="M 340 1006 C 293 1006 255 1021 225 1051 C 195 1081 180 1121 180 1172 C 180 1220 194 1260 223 1292 C 251 1324 290 1340 340 1340 C 388 1340 426 1324 456 1292 C 485 1260 500 1220 500 1174 C 500 1127 485 1087 455 1055 C 425 1022 386 1006 340 1006 Z M 736 1006 C 689 1006 651 1021 621 1051 C 591 1081 576 1121 576 1172 C 576 1220 590 1260 620 1292 C 649 1324 688 1340 736 1340 C 785 1340 824 1324 853 1292 C 881 1260 896 1220 896 1174 C 896 1127 881 1087 852 1055 C 822 1022 784 1006 736 1006 Z M 630 0 C 620 0 615 1 613 4 C 611 6 610 12 610 20 L 610 78 C 610 80 607 82 602 82 C 598 82 595 81 594 80 C 567 50 535 26 497 6 C 459 -14 409 -24 348 -24 C 244 -24 165 3 112 57 C 58 111 32 184 32 276 C 32 322 41 365 59 404 C 77 442 101 475 132 503 C 162 530 198 551 240 566 C 281 580 325 588 372 588 C 418 588 459 583 494 574 C 528 564 556 552 578 538 C 580 536 583 536 586 536 C 591 536 594 541 594 552 L 594 566 C 594 610 578 641 547 659 C 515 677 472 686 418 686 C 368 686 326 679 292 666 C 257 652 232 642 218 636 C 210 632 204 630 202 630 C 198 630 196 635 196 646 L 196 830 C 196 839 201 847 212 854 C 224 862 241 869 265 877 C 288 884 313 890 340 896 C 366 901 394 905 423 909 C 451 912 477 914 500 914 C 592 914 669 902 731 880 C 793 857 839 822 870 776 C 882 758 892 740 901 721 C 909 701 917 678 924 652 C 930 625 935 594 939 558 C 942 522 944 479 944 430 L 944 20 C 944 12 943 6 941 4 C 939 1 933 0 924 0 L 630 0 Z M 360 316 C 360 286 371 263 393 247 C 415 230 443 222 478 222 C 516 222 546 230 566 247 C 586 263 596 286 596 316 C 596 344 586 366 566 383 C 546 399 516 408 478 408 C 443 408 415 399 393 383 C 371 366 360 344 360 316 Z" unicode="" />
<glyph horiz-adv-x="1010" d="M 530 1122 C 548 1122 565 1129 579 1144 C 593 1158 600 1175 600 1194 C 600 1212 593 1229 579 1243 C 565 1257 548 1264 530 1264 C 511 1264 495 1256 481 1242 C 467 1227 460 1210 460 1192 C 460 1172 467 1155 481 1142 C 495 1128 511 1122 530 1122 Z M 530 992 C 476 992 430 1010 390 1046 C 350 1082 330 1130 330 1192 C 330 1220 335 1246 345 1270 C 355 1294 369 1315 387 1334 C 405 1352 426 1367 451 1378 C 475 1388 502 1394 530 1394 C 558 1394 584 1388 608 1378 C 632 1367 653 1352 671 1334 C 689 1315 703 1294 714 1270 C 724 1246 730 1220 730 1194 C 730 1167 724 1141 714 1117 C 703 1092 689 1070 671 1052 C 653 1033 631 1018 607 1008 C 582 997 556 992 530 992 Z M 630 0 C 620 0 615 1 613 4 C 611 6 610 12 610 20 L 610 78 C 610 80 607 82 602 82 C 598 82 595 81 594 80 C 567 50 535 26 497 6 C 459 -14 409 -24 348 -24 C 244 -24 165 3 112 57 C 58 111 32 184 32 276 C 32 322 41 365 59 404 C 77 442 101 475 132 503 C 162 530 198 551 240 566 C 281 580 325 588 372 588 C 418 588 459 583 494 574 C 528 564 556 552 578 538 C 580 536 583 536 586 536 C 591 536 594 541 594 552 L 594 566 C 594 610 578 641 547 659 C 515 677 472 686 418 686 C 368 686 326 679 292 666 C 257 652 232 642 218 636 C 210 632 204 630 202 630 C 198 630 196 635 196 646 L 196 830 C 196 839 201 847 212 854 C 224 862 241 869 265 877 C 288 884 313 890 340 896 C 366 901 394 905 423 909 C 451 912 477 914 500 914 C 592 914 669 902 731 880 C 793 857 839 822 870 776 C 882 758 892 740 901 721 C 909 701 917 678 924 652 C 930 625 935 594 939 558 C 942 522 944 479 944 430 L 944 20 C 944 12 943 6 941 4 C 939 1 933 0 924 0 L 630 0 Z M 360 316 C 360 286 371 263 393 247 C 415 230 443 222 478 222 C 516 222 546 230 566 247 C 586 263 596 286 596 316 C 596 344 586 366 566 383 C 546 399 516 408 478 408 C 443 408 415 399 393 383 C 371 366 360 344 360 316 Z" unicode="" />
<glyph horiz-adv-x="1552" d="M 734 140 C 731 142 728 144 726 144 C 722 144 719 143 718 142 C 706 122 690 102 670 82 C 650 62 624 44 593 29 C 561 13 525 1 484 -9 C 442 -19 395 -24 342 -24 C 250 -24 175 2 118 55 C 60 107 32 182 32 280 C 32 325 40 367 58 405 C 75 443 99 475 129 502 C 159 528 194 549 236 565 C 277 580 322 588 370 588 C 414 588 453 583 489 574 C 524 564 551 552 570 538 C 572 536 575 536 578 536 C 583 536 586 541 586 552 L 586 566 C 586 610 570 641 539 659 C 507 677 464 686 410 686 C 360 686 318 679 284 666 C 249 652 224 642 210 636 C 202 632 196 630 194 630 C 190 630 188 635 188 646 L 188 830 C 188 839 193 847 204 854 C 216 862 232 869 254 877 C 275 884 298 890 323 896 C 347 901 373 905 399 909 C 425 912 449 914 472 914 C 516 914 553 910 585 902 C 616 894 643 884 665 872 C 687 860 705 847 719 833 C 733 819 744 805 754 792 C 755 789 758 788 762 788 C 764 788 767 789 770 792 C 780 804 794 817 812 832 C 829 846 849 860 873 872 C 896 884 922 894 952 902 C 981 910 1013 914 1048 914 C 1192 914 1303 870 1383 782 C 1462 694 1502 570 1502 412 L 1502 352 C 1502 344 1501 338 1499 336 C 1497 333 1491 332 1482 332 L 948 332 C 938 332 932 331 930 329 C 927 327 926 322 926 314 C 931 287 951 263 985 243 C 1019 222 1066 212 1126 212 C 1168 212 1211 217 1253 228 C 1295 238 1333 252 1368 270 C 1373 272 1377 274 1380 274 C 1385 274 1388 267 1388 254 L 1388 66 C 1388 60 1387 57 1385 56 C 1383 54 1378 51 1372 46 C 1338 20 1296 2 1246 -8 C 1195 -18 1138 -24 1074 -24 C 1030 -24 992 -20 960 -13 C 928 -5 899 5 873 19 C 847 33 823 50 801 70 C 779 90 756 113 734 140 Z M 344 316 C 344 286 355 263 377 247 C 399 230 427 222 462 222 C 500 222 530 230 550 247 C 570 263 580 286 580 316 C 580 344 570 366 550 383 C 530 399 500 408 462 408 C 427 408 399 399 377 383 C 355 366 344 344 344 316 Z M 1050 666 C 1018 666 988 656 960 637 C 932 617 916 590 912 556 C 912 546 913 541 915 539 C 917 537 922 536 932 536 L 1170 536 C 1180 536 1187 537 1189 539 C 1191 541 1191 546 1190 556 C 1186 590 1170 617 1144 637 C 1117 656 1086 666 1050 666 Z" unicode="" />
<glyph horiz-adv-x="818" d="M 562 276 C 604 276 640 281 669 292 C 697 302 724 314 750 328 C 752 329 756 330 760 330 C 766 330 770 324 770 314 L 770 38 C 770 32 769 28 767 26 C 765 23 760 20 754 18 C 739 10 722 3 702 -2 C 682 -7 661 -11 641 -15 C 620 -18 599 -20 578 -22 C 556 -23 537 -24 520 -24 C 452 -24 388 -12 330 11 C 271 34 220 67 178 109 C 135 151 101 200 77 258 C 52 315 40 378 40 446 C 40 514 52 576 77 634 C 101 691 135 740 178 782 C 220 823 271 855 330 879 C 388 902 452 914 520 914 C 554 914 594 911 638 905 C 682 899 718 889 748 876 C 754 873 759 870 761 868 C 763 865 764 861 764 856 L 764 582 C 764 571 760 566 754 566 C 750 566 746 566 744 568 C 718 581 692 592 666 602 C 639 611 604 616 562 616 C 506 616 460 600 426 569 C 391 537 374 496 374 446 C 374 399 389 359 421 326 C 452 292 499 276 562 276 Z M 290 -226 C 303 -235 317 -243 332 -251 C 346 -258 362 -262 380 -262 C 400 -262 416 -256 428 -246 C 440 -235 448 -221 452 -204 C 454 -182 450 -164 438 -150 C 426 -135 408 -126 386 -122 C 379 -120 374 -120 370 -120 C 366 -120 362 -120 358 -120 C 346 -120 333 -122 320 -126 C 306 -131 301 -126 304 -112 L 328 14 C 329 16 330 18 330 20 C 330 21 332 22 338 24 C 352 28 371 29 394 28 C 416 26 437 24 456 22 C 517 11 567 -13 605 -51 C 643 -89 662 -136 662 -192 C 662 -260 642 -318 602 -367 C 562 -415 502 -440 424 -440 C 397 -440 369 -436 341 -430 C 312 -423 285 -411 260 -394 C 254 -390 252 -386 254 -382 L 280 -228 C 281 -225 283 -224 286 -224 C 286 -224 287 -224 290 -226 Z" unicode="" />
<glyph horiz-adv-x="1012" d="M 510 666 C 478 666 448 656 420 637 C 392 617 376 592 372 562 C 372 552 373 547 375 545 C 377 543 382 542 392 542 L 630 542 C 640 542 647 543 649 545 C 651 547 651 552 650 562 C 646 594 630 619 604 638 C 577 656 546 666 510 666 Z M 962 412 C 962 377 960 355 958 346 C 955 336 948 332 938 332 L 408 332 C 398 332 392 331 390 329 C 387 327 386 322 386 314 C 391 287 411 263 445 243 C 479 222 526 212 586 212 C 628 212 671 217 713 228 C 755 238 793 252 828 270 C 833 272 837 274 840 274 C 845 274 848 267 848 254 L 848 68 C 848 62 847 59 845 58 C 843 56 838 53 832 48 C 797 22 753 4 701 -7 C 648 -18 592 -24 534 -24 C 466 -24 402 -12 342 11 C 282 34 229 67 185 109 C 140 151 105 200 79 258 C 53 315 40 378 40 446 C 40 514 51 576 75 634 C 98 691 130 740 172 782 C 213 823 262 855 320 879 C 377 902 440 914 508 914 C 649 914 760 870 841 782 C 921 694 962 570 962 412 Z M 686 1032 C 691 1025 694 1020 694 1016 C 694 1013 689 1012 680 1012 L 436 1012 C 428 1012 421 1014 416 1018 C 410 1022 405 1026 400 1032 L 158 1282 C 150 1290 146 1295 146 1298 C 146 1300 152 1302 166 1302 L 502 1302 C 510 1302 515 1300 519 1298 C 522 1295 527 1290 534 1282 L 686 1032 Z" unicode="" />
<glyph horiz-adv-x="1012" d="M 510 666 C 478 666 448 656 420 637 C 392 617 376 592 372 562 C 372 552 373 547 375 545 C 377 543 382 542 392 542 L 630 542 C 640 542 647 543 649 545 C 651 547 651 552 650 562 C 646 594 630 619 604 638 C 577 656 546 666 510 666 Z M 962 412 C 962 377 960 355 958 346 C 955 336 948 332 938 332 L 408 332 C 398 332 392 331 390 329 C 387 327 386 322 386 314 C 391 287 411 263 445 243 C 479 222 526 212 586 212 C 628 212 671 217 713 228 C 755 238 793 252 828 270 C 833 272 837 274 840 274 C 845 274 848 267 848 254 L 848 68 C 848 62 847 59 845 58 C 843 56 838 53 832 48 C 797 22 753 4 701 -7 C 648 -18 592 -24 534 -24 C 466 -24 402 -12 342 11 C 282 34 229 67 185 109 C 140 151 105 200 79 258 C 53 315 40 378 40 446 C 40 514 51 576 75 634 C 98 691 130 740 172 782 C 213 823 262 855 320 879 C 377 902 440 914 508 914 C 649 914 760 870 841 782 C 921 694 962 570 962 412 Z M 478 1282 C 484 1290 489 1295 493 1298 C 496 1300 502 1302 510 1302 L 846 1302 C 859 1302 866 1300 866 1298 C 866 1295 862 1290 854 1282 L 612 1032 C 606 1026 601 1022 596 1018 C 590 1014 584 1012 576 1012 L 332 1012 C 322 1012 318 1013 318 1016 C 318 1020 320 1025 326 1032 L 478 1282 Z" unicode="" />
<glyph horiz-adv-x="1012" d="M 510 666 C 478 666 448 656 420 637 C 392 617 376 592 372 562 C 372 552 373 547 375 545 C 377 543 382 542 392 542 L 630 542 C 640 542 647 543 649 545 C 651 547 651 552 650 562 C 646 594 630 619 604 638 C 577 656 546 666 510 666 Z M 962 412 C 962 377 960 355 958 346 C 955 336 948 332 938 332 L 408 332 C 398 332 392 331 390 329 C 387 327 386 322 386 314 C 391 287 411 263 445 243 C 479 222 526 212 586 212 C 628 212 671 217 713 228 C 755 238 793 252 828 270 C 833 272 837 274 840 274 C 845 274 848 267 848 254 L 848 68 C 848 62 847 59 845 58 C 843 56 838 53 832 48 C 797 22 753 4 701 -7 C 648 -18 592 -24 534 -24 C 466 -24 402 -12 342 11 C 282 34 229 67 185 109 C 140 151 105 200 79 258 C 53 315 40 378 40 446 C 40 514 51 576 75 634 C 98 691 130 740 172 782 C 213 823 262 855 320 879 C 377 902 440 914 508 914 C 649 914 760 870 841 782 C 921 694 962 570 962 412 Z M 514 1146 C 508 1146 504 1144 502 1142 L 412 1032 C 405 1025 400 1020 396 1017 C 392 1013 385 1012 376 1012 L 124 1012 C 114 1012 110 1013 110 1016 C 110 1016 114 1021 122 1032 L 344 1282 C 356 1295 368 1302 382 1302 L 646 1302 C 659 1302 672 1295 684 1282 L 906 1032 C 914 1021 918 1016 918 1016 C 918 1013 913 1012 904 1012 L 652 1012 C 642 1012 636 1013 632 1017 C 628 1020 622 1025 616 1032 L 526 1142 C 523 1144 519 1146 514 1146 Z" unicode="" />
<glyph horiz-adv-x="1012" d="M 510 666 C 478 666 448 656 420 637 C 392 617 376 592 372 562 C 372 552 373 547 375 545 C 377 543 382 542 392 542 L 630 542 C 640 542 647 543 649 545 C 651 547 651 552 650 562 C 646 594 630 619 604 638 C 577 656 546 666 510 666 Z M 962 412 C 962 377 960 355 958 346 C 955 336 948 332 938 332 L 408 332 C 398 332 392 331 390 329 C 387 327 386 322 386 314 C 391 287 411 263 445 243 C 479 222 526 212 586 212 C 628 212 671 217 713 228 C 755 238 793 252 828 270 C 833 272 837 274 840 274 C 845 274 848 267 848 254 L 848 68 C 848 62 847 59 845 58 C 843 56 838 53 832 48 C 797 22 753 4 701 -7 C 648 -18 592 -24 534 -24 C 466 -24 402 -12 342 11 C 282 34 229 67 185 109 C 140 151 105 200 79 258 C 53 315 40 378 40 446 C 40 514 51 576 75 634 C 98 691 130 740 172 782 C 213 823 262 855 320 879 C 377 902 440 914 508 914 C 649 914 760 870 841 782 C 921 694 962 570 962 412 Z M 308 1006 C 261 1006 223 1021 193 1051 C 163 1081 148 1121 148 1172 C 148 1220 162 1260 191 1292 C 219 1324 258 1340 308 1340 C 356 1340 394 1324 424 1292 C 453 1260 468 1220 468 1174 C 468 1127 453 1087 423 1055 C 393 1022 354 1006 308 1006 Z M 704 1006 C 657 1006 619 1021 589 1051 C 559 1081 544 1121 544 1172 C 544 1220 558 1260 588 1292 C 617 1324 656 1340 704 1340 C 753 1340 792 1324 821 1292 C 849 1260 864 1220 864 1174 C 864 1127 849 1087 820 1055 C 790 1022 752 1006 704 1006 Z" unicode="" />
<glyph horiz-adv-x="500" d="M 70 870 C 70 878 71 883 73 886 C 75 888 80 890 90 890 L 410 890 C 419 890 425 888 427 886 C 429 883 430 878 430 870 L 430 20 C 430 12 429 6 427 4 C 425 1 419 0 410 0 L 90 0 C 80 0 75 1 73 4 C 71 6 70 12 70 20 L 70 870 Z M 420 1032 C 425 1022 427 1017 425 1015 C 423 1013 418 1012 410 1012 L 186 1012 C 178 1012 172 1014 168 1018 C 164 1022 159 1026 154 1032 L -52 1282 C -60 1291 -62 1297 -58 1299 C -54 1301 -48 1302 -40 1302 L 276 1302 C 284 1302 289 1300 293 1298 C 296 1295 300 1290 304 1282 L 420 1032 Z" unicode="" />
<glyph horiz-adv-x="500" d="M 70 870 C 70 878 71 883 73 886 C 75 888 80 890 90 890 L 410 890 C 419 890 425 888 427 886 C 429 883 430 878 430 870 L 430 20 C 430 12 429 6 427 4 C 425 1 419 0 410 0 L 90 0 C 80 0 75 1 73 4 C 71 6 70 12 70 20 L 70 870 Z M 196 1282 C 200 1290 203 1295 207 1298 C 210 1300 216 1302 224 1302 L 540 1302 C 548 1302 554 1301 558 1299 C 562 1297 560 1291 552 1282 L 346 1032 C 340 1026 336 1022 332 1018 C 328 1014 322 1012 314 1012 L 90 1012 C 82 1012 77 1013 75 1015 C 73 1017 74 1022 80 1032 L 196 1282 Z" unicode="" />
<glyph horiz-adv-x="500" d="M 70 870 C 70 878 71 883 73 886 C 75 888 80 890 90 890 L 410 890 C 419 890 425 888 427 886 C 429 883 430 878 430 870 L 430 20 C 430 12 429 6 427 4 C 425 1 419 0 410 0 L 90 0 C 80 0 75 1 73 4 C 71 6 70 12 70 20 L 70 870 Z M 250 1146 C 244 1146 240 1144 238 1142 L 190 1032 C 183 1018 172 1012 158 1012 L -70 1012 C -82 1012 -82 1018 -72 1032 L 80 1282 C 92 1295 104 1302 118 1302 L 382 1302 C 395 1302 408 1295 420 1282 L 572 1032 C 581 1018 580 1012 570 1012 L 346 1012 C 336 1012 329 1013 324 1015 C 318 1017 314 1022 310 1032 L 262 1142 C 259 1144 255 1146 250 1146 Z" unicode="" />
<glyph horiz-adv-x="500" d="M 70 870 C 70 878 71 883 73 886 C 75 888 80 890 90 890 L 410 890 C 419 890 425 888 427 886 C 429 883 430 878 430 870 L 430 20 C 430 12 429 6 427 4 C 425 1 419 0 410 0 L 90 0 C 80 0 75 1 73 4 C 71 6 70 12 70 20 L 70 870 Z M 64 1012 C 20 1012 -16 1026 -46 1056 C -75 1085 -90 1124 -90 1172 C -90 1218 -76 1257 -48 1288 C -20 1318 17 1334 64 1334 C 110 1334 148 1318 176 1287 C 204 1255 218 1218 218 1174 C 218 1128 203 1090 175 1059 C 146 1027 109 1012 64 1012 Z M 436 1012 C 392 1012 355 1026 326 1056 C 296 1085 282 1124 282 1172 C 282 1218 296 1257 324 1288 C 352 1318 389 1334 436 1334 C 482 1334 520 1318 548 1287 C 576 1255 590 1218 590 1174 C 590 1128 576 1090 548 1059 C 520 1027 482 1012 436 1012 Z" unicode="" />
<glyph horiz-adv-x="1060" d="M 374 444 C 374 398 386 359 411 326 C 435 292 474 276 526 276 C 578 276 616 292 641 326 C 665 359 678 398 678 444 C 678 488 665 527 641 562 C 616 596 578 614 526 614 C 474 614 435 596 411 562 C 386 527 374 488 374 444 Z M 328 1510 C 336 1519 344 1520 354 1512 C 384 1489 416 1465 449 1439 C 481 1413 512 1386 540 1358 C 549 1348 560 1347 572 1354 L 760 1462 C 770 1468 779 1466 786 1454 L 878 1296 C 882 1289 883 1284 883 1281 C 882 1277 878 1273 872 1268 L 736 1190 C 729 1186 725 1182 724 1179 C 722 1175 724 1170 730 1164 C 822 1050 891 939 939 830 C 986 720 1010 607 1010 490 C 1010 394 995 313 966 248 C 936 182 898 129 852 89 C 805 48 753 19 697 2 C 640 -15 584 -24 528 -24 C 458 -24 394 -12 335 11 C 275 34 224 67 180 109 C 136 151 101 200 77 258 C 52 315 40 378 40 446 C 40 514 52 576 78 633 C 103 689 137 738 181 779 C 224 819 275 851 335 874 C 394 896 458 908 526 908 C 532 908 534 912 530 922 C 523 935 513 952 501 974 C 488 995 475 1014 462 1032 C 455 1042 445 1044 432 1038 L 282 950 C 271 943 262 946 256 958 L 168 1108 C 164 1114 162 1119 163 1123 C 163 1126 167 1130 174 1136 L 294 1204 C 303 1209 308 1213 308 1216 C 308 1218 304 1222 298 1228 C 279 1244 258 1261 235 1280 C 211 1298 191 1314 174 1328 C 163 1336 162 1344 172 1354 L 328 1510 Z" unicode="" />
<glyph horiz-adv-x="1072" d="M 90 0 C 80 0 75 1 73 4 C 71 6 70 12 70 20 L 70 870 C 70 878 71 883 73 886 C 75 888 80 890 90 890 L 410 890 C 419 890 425 888 427 886 C 429 883 430 878 430 870 L 430 790 C 430 787 432 786 438 786 C 442 786 444 786 446 788 C 484 824 525 853 567 876 C 609 898 660 910 722 910 C 776 910 822 901 858 885 C 894 868 923 845 945 815 C 967 785 982 749 992 708 C 1001 666 1006 621 1006 572 L 1006 20 C 1006 12 1005 6 1003 4 C 1001 1 995 0 986 0 L 666 0 C 656 0 651 1 649 4 C 647 6 646 12 646 20 L 646 504 C 646 537 637 562 621 578 C 604 594 580 602 550 602 C 516 602 488 590 465 567 C 441 543 430 514 430 478 L 430 20 C 430 12 429 6 427 4 C 425 1 419 0 410 0 L 90 0 Z M 688 1004 C 645 1004 612 1009 589 1019 C 565 1029 546 1040 531 1052 C 515 1064 501 1075 488 1085 C 474 1095 457 1100 436 1100 C 417 1100 401 1094 388 1083 C 374 1071 368 1054 368 1032 C 368 1024 367 1018 365 1016 C 363 1013 357 1012 348 1012 L 194 1012 C 184 1012 179 1013 177 1016 C 175 1018 174 1024 174 1032 L 174 1062 C 174 1095 179 1127 190 1158 C 200 1188 215 1215 235 1237 C 254 1259 278 1276 306 1290 C 334 1303 366 1310 402 1310 C 443 1310 476 1305 500 1295 C 524 1285 544 1274 560 1262 C 576 1250 590 1239 603 1229 C 615 1219 632 1214 654 1214 C 672 1214 688 1219 702 1231 C 715 1242 722 1259 722 1282 C 722 1290 723 1295 725 1298 C 727 1300 732 1302 742 1302 L 896 1302 C 905 1302 911 1300 913 1298 C 915 1295 916 1290 916 1282 L 916 1252 C 916 1217 910 1185 900 1155 C 889 1125 874 1099 855 1077 C 835 1055 812 1037 784 1024 C 756 1010 724 1004 688 1004 Z" unicode="" />
<glyph horiz-adv-x="1050" d="M 40 446 C 40 514 52 576 78 634 C 103 691 137 740 181 782 C 224 823 275 855 335 879 C 394 902 458 914 526 914 C 594 914 657 902 717 879 C 776 855 827 823 871 782 C 914 740 948 691 973 634 C 997 576 1010 514 1010 446 C 1010 378 997 315 973 258 C 948 200 914 151 871 109 C 827 67 776 34 717 11 C 657 -12 594 -24 526 -24 C 458 -24 394 -12 335 11 C 275 34 224 67 181 109 C 137 151 103 200 78 258 C 52 315 40 378 40 446 Z M 374 446 C 374 399 386 359 411 326 C 435 292 474 276 526 276 C 578 276 616 292 641 326 C 665 359 678 399 678 446 C 678 488 665 527 641 562 C 616 596 578 614 526 614 C 474 614 435 596 411 562 C 386 527 374 488 374 446 Z M 672 1032 C 677 1025 680 1020 680 1016 C 680 1013 675 1012 666 1012 L 422 1012 C 414 1012 407 1014 402 1018 C 396 1022 391 1026 386 1032 L 144 1282 C 136 1290 132 1295 132 1298 C 132 1300 138 1302 152 1302 L 488 1302 C 496 1302 501 1300 505 1298 C 508 1295 513 1290 520 1282 L 672 1032 Z" unicode="" />
<glyph horiz-adv-x="1050" d="M 40 446 C 40 514 52 576 78 634 C 103 691 137 740 181 782 C 224 823 275 855 335 879 C 394 902 458 914 526 914 C 594 914 657 902 717 879 C 776 855 827 823 871 782 C 914 740 948 691 973 634 C 997 576 1010 514 1010 446 C 1010 378 997 315 973 258 C 948 200 914 151 871 109 C 827 67 776 34 717 11 C 657 -12 594 -24 526 -24 C 458 -24 394 -12 335 11 C 275 34 224 67 181 109 C 137 151 103 200 78 258 C 52 315 40 378 40 446 Z M 374 446 C 374 399 386 359 411 326 C 435 292 474 276 526 276 C 578 276 616 292 641 326 C 665 359 678 399 678 446 C 678 488 665 527 641 562 C 616 596 578 614 526 614 C 474 614 435 596 411 562 C 386 527 374 488 374 446 Z M 528 1282 C 534 1290 539 1295 543 1298 C 546 1300 552 1302 560 1302 L 896 1302 C 909 1302 916 1300 916 1298 C 916 1295 912 1290 904 1282 L 662 1032 C 656 1026 651 1022 646 1018 C 640 1014 634 1012 626 1012 L 382 1012 C 372 1012 368 1013 368 1016 C 368 1020 370 1025 376 1032 L 528 1282 Z" unicode="" />
<glyph horiz-adv-x="1050" d="M 40 446 C 40 514 52 576 78 634 C 103 691 137 740 181 782 C 224 823 275 855 335 879 C 394 902 458 914 526 914 C 594 914 657 902 717 879 C 776 855 827 823 871 782 C 914 740 948 691 973 634 C 997 576 1010 514 1010 446 C 1010 378 997 315 973 258 C 948 200 914 151 871 109 C 827 67 776 34 717 11 C 657 -12 594 -24 526 -24 C 458 -24 394 -12 335 11 C 275 34 224 67 181 109 C 137 151 103 200 78 258 C 52 315 40 378 40 446 Z M 374 446 C 374 399 386 359 411 326 C 435 292 474 276 526 276 C 578 276 616 292 641 326 C 665 359 678 399 678 446 C 678 488 665 527 641 562 C 616 596 578 614 526 614 C 474 614 435 596 411 562 C 386 527 374 488 374 446 Z M 524 1146 C 518 1146 514 1144 512 1142 L 422 1032 C 415 1025 410 1020 406 1017 C 402 1013 395 1012 386 1012 L 134 1012 C 124 1012 120 1013 120 1016 C 120 1016 124 1021 132 1032 L 354 1282 C 366 1295 378 1302 392 1302 L 656 1302 C 669 1302 682 1295 694 1282 L 916 1032 C 924 1021 928 1016 928 1016 C 928 1013 923 1012 914 1012 L 662 1012 C 652 1012 646 1013 642 1017 C 638 1020 632 1025 626 1032 L 536 1142 C 533 1144 529 1146 524 1146 Z" unicode="" />
<glyph horiz-adv-x="1050" d="M 40 446 C 40 514 52 576 78 634 C 103 691 137 740 181 782 C 224 823 275 855 335 879 C 394 902 458 914 526 914 C 594 914 657 902 717 879 C 776 855 827 823 871 782 C 914 740 948 691 973 634 C 997 576 1010 514 1010 446 C 1010 378 997 315 973 258 C 948 200 914 151 871 109 C 827 67 776 34 717 11 C 657 -12 594 -24 526 -24 C 458 -24 394 -12 335 11 C 275 34 224 67 181 109 C 137 151 103 200 78 258 C 52 315 40 378 40 446 Z M 374 446 C 374 399 386 359 411 326 C 435 292 474 276 526 276 C 578 276 616 292 641 326 C 665 359 678 399 678 446 C 678 488 665 527 641 562 C 616 596 578 614 526 614 C 474 614 435 596 411 562 C 386 527 374 488 374 446 Z M 672 1004 C 629 1004 596 1009 573 1019 C 549 1029 530 1040 515 1052 C 499 1064 485 1075 472 1085 C 458 1095 441 1100 420 1100 C 401 1100 385 1094 372 1083 C 358 1071 352 1054 352 1032 C 352 1024 351 1018 349 1016 C 347 1013 341 1012 332 1012 L 178 1012 C 168 1012 163 1013 161 1016 C 159 1018 158 1024 158 1032 L 158 1062 C 158 1095 163 1127 174 1158 C 184 1188 199 1215 219 1237 C 238 1259 262 1276 290 1290 C 318 1303 350 1310 386 1310 C 427 1310 460 1305 484 1295 C 508 1285 528 1274 544 1262 C 560 1250 574 1239 587 1229 C 599 1219 616 1214 638 1214 C 656 1214 672 1219 686 1231 C 699 1242 706 1259 706 1282 C 706 1290 707 1295 709 1298 C 711 1300 716 1302 726 1302 L 880 1302 C 889 1302 895 1300 897 1298 C 899 1295 900 1290 900 1282 L 900 1252 C 900 1217 894 1185 884 1155 C 873 1125 858 1099 839 1077 C 819 1055 796 1037 768 1024 C 740 1010 708 1004 672 1004 Z" unicode="" />
<glyph horiz-adv-x="1050" d="M 40 446 C 40 514 52 576 78 634 C 103 691 137 740 181 782 C 224 823 275 855 335 879 C 394 902 458 914 526 914 C 594 914 657 902 717 879 C 776 855 827 823 871 782 C 914 740 948 691 973 634 C 997 576 1010 514 1010 446 C 1010 378 997 315 973 258 C 948 200 914 151 871 109 C 827 67 776 34 717 11 C 657 -12 594 -24 526 -24 C 458 -24 394 -12 335 11 C 275 34 224 67 181 109 C 137 151 103 200 78 258 C 52 315 40 378 40 446 Z M 374 446 C 374 399 386 359 411 326 C 435 292 474 276 526 276 C 578 276 616 292 641 326 C 665 359 678 399 678 446 C 678 488 665 527 641 562 C 616 596 578 614 526 614 C 474 614 435 596 411 562 C 386 527 374 488 374 446 Z M 328 1006 C 281 1006 243 1021 213 1051 C 183 1081 168 1121 168 1172 C 168 1220 182 1260 211 1292 C 239 1324 278 1340 328 1340 C 376 1340 414 1324 444 1292 C 473 1260 488 1220 488 1174 C 488 1127 473 1087 443 1055 C 413 1022 374 1006 328 1006 Z M 724 1006 C 677 1006 639 1021 609 1051 C 579 1081 564 1121 564 1172 C 564 1220 578 1260 608 1292 C 637 1324 676 1340 724 1340 C 773 1340 812 1324 841 1292 C 869 1260 884 1220 884 1174 C 884 1127 869 1087 840 1055 C 810 1022 772 1006 724 1006 Z" unicode="" />
<glyph horiz-adv-x="1080" d="M 540 -12 C 522 -12 505 -8 489 -1 C 473 5 458 15 446 27 C 433 39 423 53 415 70 C 407 86 404 104 404 124 C 404 142 407 160 415 177 C 422 193 432 208 444 221 C 456 233 471 243 487 251 C 503 258 521 262 540 262 C 558 262 576 258 592 250 C 608 242 623 232 635 220 C 647 207 657 192 665 176 C 672 160 676 143 676 126 C 676 108 672 90 665 74 C 657 57 647 42 635 30 C 622 17 607 7 591 0 C 575 -8 558 -12 540 -12 Z M 540 706 C 522 706 505 709 489 716 C 473 723 458 733 446 745 C 433 757 423 771 415 788 C 407 804 404 822 404 842 C 404 860 407 878 415 895 C 422 911 432 926 444 939 C 456 951 471 961 487 969 C 503 976 521 980 540 980 C 558 980 576 976 592 968 C 608 960 623 950 635 938 C 647 925 657 910 665 894 C 672 878 676 861 676 844 C 676 826 672 808 665 792 C 657 775 647 760 635 748 C 622 735 607 725 591 717 C 575 709 558 706 540 706 Z M 990 590 C 999 590 1005 588 1007 586 C 1009 583 1010 578 1010 570 L 1010 402 C 1010 394 1009 388 1007 386 C 1005 383 999 382 990 382 L 90 382 C 80 382 75 383 73 386 C 71 388 70 394 70 402 L 70 570 C 70 578 71 583 73 586 C 75 588 80 590 90 590 L 990 590 Z" unicode="" />
<glyph horiz-adv-x="1050" d="M 488 278 C 494 275 501 274 507 274 C 513 274 519 274 526 274 C 578 274 616 291 642 325 C 667 359 680 399 680 446 C 680 459 679 469 678 476 C 674 494 664 496 650 482 L 482 306 C 468 292 470 283 488 278 Z M 564 584 C 570 590 574 596 574 601 C 574 605 568 609 558 612 C 551 614 545 616 541 616 C 536 616 531 616 526 616 C 499 616 476 611 458 602 C 439 592 423 580 410 564 C 396 548 387 529 381 509 C 375 488 372 467 372 446 C 372 434 372 424 374 418 C 378 399 387 397 402 412 L 564 584 Z M 270 42 C 263 46 258 48 254 48 C 250 48 244 44 238 38 L 186 -18 C 182 -22 178 -24 174 -24 C 171 -24 167 -22 162 -18 L 80 64 C 76 68 74 72 74 76 C 74 80 76 84 80 88 L 122 134 C 128 140 132 146 134 150 C 135 154 133 159 128 166 C 100 204 78 247 63 294 C 47 340 40 391 40 446 C 40 514 52 576 78 634 C 103 691 137 740 181 782 C 224 823 275 855 335 879 C 394 902 458 914 526 914 C 572 914 617 908 660 897 C 702 885 742 870 778 850 C 784 846 790 844 794 844 C 798 844 803 847 810 854 L 860 908 C 864 912 868 914 872 914 C 873 914 877 912 884 908 L 966 826 C 970 822 972 818 972 814 C 972 810 970 806 966 802 L 924 758 C 917 751 913 746 913 742 C 912 738 914 732 920 726 C 948 687 970 644 986 598 C 1002 551 1010 500 1010 446 C 1010 378 997 315 973 258 C 948 200 914 151 871 109 C 827 67 776 34 717 11 C 657 -12 594 -24 526 -24 C 479 -24 434 -18 391 -7 C 347 4 307 20 270 42 Z" unicode="" />
<glyph horiz-adv-x="1024" d="M 512 276 C 545 276 571 286 590 306 C 608 326 618 355 618 394 L 618 870 C 618 878 619 883 621 886 C 623 888 628 890 638 890 L 938 890 C 947 890 953 888 955 886 C 957 883 958 878 958 870 L 958 398 C 958 336 948 280 930 229 C 911 177 883 133 846 96 C 808 58 762 29 706 8 C 650 -13 585 -24 512 -24 C 437 -24 372 -13 317 8 C 261 29 215 58 178 96 C 140 133 112 177 94 229 C 75 280 66 336 66 398 L 66 870 C 66 878 67 883 69 886 C 71 888 76 890 86 890 L 386 890 C 395 890 401 888 403 886 C 405 883 406 878 406 870 L 406 394 C 406 355 415 326 434 306 C 452 286 478 276 512 276 Z M 692 1032 C 697 1025 700 1020 700 1016 C 700 1013 695 1012 686 1012 L 442 1012 C 434 1012 427 1014 422 1018 C 416 1022 411 1026 406 1032 L 164 1282 C 156 1290 152 1295 152 1298 C 152 1300 158 1302 172 1302 L 508 1302 C 516 1302 521 1300 525 1298 C 528 1295 533 1290 540 1282 L 692 1032 Z" unicode="" />
<glyph horiz-adv-x="1024" d="M 512 276 C 545 276 571 286 590 306 C 608 326 618 355 618 394 L 618 870 C 618 878 619 883 621 886 C 623 888 628 890 638 890 L 938 890 C 947 890 953 888 955 886 C 957 883 958 878 958 870 L 958 398 C 958 336 948 280 930 229 C 911 177 883 133 846 96 C 808 58 762 29 706 8 C 650 -13 585 -24 512 -24 C 437 -24 372 -13 317 8 C 261 29 215 58 178 96 C 140 133 112 177 94 229 C 75 280 66 336 66 398 L 66 870 C 66 878 67 883 69 886 C 71 888 76 890 86 890 L 386 890 C 395 890 401 888 403 886 C 405 883 406 878 406 870 L 406 394 C 406 355 415 326 434 306 C 452 286 478 276 512 276 Z M 484 1282 C 490 1290 495 1295 499 1298 C 502 1300 508 1302 516 1302 L 852 1302 C 865 1302 872 1300 872 1298 C 872 1295 868 1290 860 1282 L 618 1032 C 612 1026 607 1022 602 1018 C 596 1014 590 1012 582 1012 L 338 1012 C 328 1012 324 1013 324 1016 C 324 1020 326 1025 332 1032 L 484 1282 Z" unicode="" />
<glyph horiz-adv-x="1024" d="M 512 1146 C 506 1146 502 1144 500 1142 L 410 1032 C 403 1025 398 1020 394 1017 C 390 1013 383 1012 374 1012 L 122 1012 C 112 1012 108 1013 108 1016 C 108 1016 112 1021 120 1032 L 342 1282 C 354 1295 366 1302 380 1302 L 644 1302 C 657 1302 670 1295 682 1282 L 904 1032 C 912 1021 916 1016 916 1016 C 916 1013 911 1012 902 1012 L 650 1012 C 640 1012 634 1013 630 1017 C 626 1020 620 1025 614 1032 L 524 1142 C 521 1144 517 1146 512 1146 Z M 512 276 C 545 276 571 286 590 306 C 608 326 618 355 618 394 L 618 870 C 618 878 619 883 621 886 C 623 888 628 890 638 890 L 938 890 C 947 890 953 888 955 886 C 957 883 958 878 958 870 L 958 398 C 958 336 948 280 930 229 C 911 177 883 133 846 96 C 808 58 762 29 706 8 C 650 -13 585 -24 512 -24 C 437 -24 372 -13 317 8 C 261 29 215 58 178 96 C 140 133 112 177 94 229 C 75 280 66 336 66 398 L 66 870 C 66 878 67 883 69 886 C 71 888 76 890 86 890 L 386 890 C 395 890 401 888 403 886 C 405 883 406 878 406 870 L 406 394 C 406 355 415 326 434 306 C 452 286 478 276 512 276 Z" unicode="" />
<glyph horiz-adv-x="1024" d="M 512 276 C 545 276 571 286 590 306 C 608 326 618 355 618 394 L 618 870 C 618 878 619 883 621 886 C 623 888 628 890 638 890 L 938 890 C 947 890 953 888 955 886 C 957 883 958 878 958 870 L 958 398 C 958 336 948 280 930 229 C 911 177 883 133 846 96 C 808 58 762 29 706 8 C 650 -13 585 -24 512 -24 C 437 -24 372 -13 317 8 C 261 29 215 58 178 96 C 140 133 112 177 94 229 C 75 280 66 336 66 398 L 66 870 C 66 878 67 883 69 886 C 71 888 76 890 86 890 L 386 890 C 395 890 401 888 403 886 C 405 883 406 878 406 870 L 406 394 C 406 355 415 326 434 306 C 452 286 478 276 512 276 Z M 314 1006 C 267 1006 229 1021 199 1051 C 169 1081 154 1121 154 1172 C 154 1220 168 1260 197 1292 C 225 1324 264 1340 314 1340 C 362 1340 400 1324 430 1292 C 459 1260 474 1220 474 1174 C 474 1127 459 1087 429 1055 C 399 1022 360 1006 314 1006 Z M 710 1006 C 663 1006 625 1021 595 1051 C 565 1081 550 1121 550 1172 C 550 1220 564 1260 594 1292 C 623 1324 662 1340 710 1340 C 759 1340 798 1324 827 1292 C 855 1260 870 1220 870 1174 C 870 1127 855 1087 826 1055 C 796 1022 758 1006 710 1006 Z" unicode="" />
<glyph horiz-adv-x="1044" d="M 500 452 C 501 448 504 446 508 446 C 510 446 513 448 516 452 L 690 870 C 694 878 697 883 700 886 C 702 888 708 890 716 890 L 1046 890 C 1058 890 1064 887 1064 882 C 1064 882 1062 878 1060 870 L 492 -426 C 488 -434 484 -439 482 -442 C 479 -444 474 -446 466 -446 L 138 -446 C 126 -446 120 -443 120 -438 C 120 -438 121 -434 124 -426 L 326 54 L -16 870 C -18 878 -20 882 -20 882 C -20 887 -14 890 -2 890 L 310 890 C 318 890 323 888 326 886 C 328 883 332 878 336 870 L 500 452 Z M 494 1282 C 500 1290 505 1295 509 1298 C 512 1300 518 1302 526 1302 L 862 1302 C 875 1302 882 1300 882 1298 C 882 1295 878 1290 870 1282 L 628 1032 C 622 1026 617 1022 612 1018 C 606 1014 600 1012 592 1012 L 348 1012 C 338 1012 334 1013 334 1016 C 334 1020 336 1025 342 1032 L 494 1282 Z" unicode="" />
<glyph horiz-adv-x="1108" d="M 674 -24 C 647 -24 621 -21 596 -16 C 570 -10 547 -3 526 6 C 504 15 486 25 471 36 C 455 46 444 58 438 70 C 436 71 434 72 430 72 C 424 72 422 70 422 68 L 422 -420 C 422 -428 421 -433 419 -436 C 417 -438 411 -440 402 -440 L 90 -440 C 80 -440 75 -438 73 -436 C 71 -433 70 -428 70 -420 L 70 1480 C 70 1488 71 1493 73 1496 C 75 1498 80 1500 90 1500 L 402 1500 C 411 1500 417 1498 419 1496 C 421 1493 422 1488 422 1480 L 422 822 C 422 819 424 818 430 818 C 434 818 436 818 438 820 C 444 832 455 843 471 854 C 486 864 504 874 526 884 C 547 893 570 900 596 906 C 621 911 647 914 674 914 C 735 914 790 901 840 876 C 889 850 930 816 964 774 C 997 731 1023 681 1041 625 C 1059 568 1068 508 1068 446 C 1068 383 1059 323 1041 267 C 1023 210 997 160 964 117 C 930 73 889 39 840 14 C 790 -11 735 -24 674 -24 Z M 412 446 C 412 399 424 359 449 326 C 473 292 512 276 564 276 C 616 276 654 292 679 326 C 703 359 716 399 716 446 C 716 488 703 527 679 562 C 654 596 616 614 564 614 C 512 614 473 596 449 562 C 424 527 412 488 412 446 Z" unicode="" />
<glyph horiz-adv-x="1044" d="M 500 452 C 501 448 504 446 508 446 C 510 446 513 448 516 452 L 690 870 C 694 878 697 883 700 886 C 702 888 708 890 716 890 L 1046 890 C 1058 890 1064 887 1064 882 C 1064 882 1062 878 1060 870 L 492 -426 C 488 -434 484 -439 482 -442 C 479 -444 474 -446 466 -446 L 138 -446 C 126 -446 120 -443 120 -438 C 120 -438 121 -434 124 -426 L 326 54 L -16 870 C -18 878 -20 882 -20 882 C -20 887 -14 890 -2 890 L 310 890 C 318 890 323 888 326 886 C 328 883 332 878 336 870 L 500 452 Z M 324 1006 C 277 1006 239 1021 209 1051 C 179 1081 164 1121 164 1172 C 164 1220 178 1260 207 1292 C 235 1324 274 1340 324 1340 C 372 1340 410 1324 440 1292 C 469 1260 484 1220 484 1174 C 484 1127 469 1087 439 1055 C 409 1022 370 1006 324 1006 Z M 720 1006 C 673 1006 635 1021 605 1051 C 575 1081 560 1121 560 1172 C 560 1220 574 1260 604 1292 C 633 1324 672 1340 720 1340 C 769 1340 808 1324 837 1292 C 865 1260 880 1220 880 1174 C 880 1127 865 1087 836 1055 C 806 1022 768 1006 720 1006 Z" unicode="" />
<glyph horiz-adv-x="1360" d="M 882 154 C 878 163 874 169 872 171 C 869 173 864 174 858 174 L 498 174 C 492 174 488 173 484 171 C 480 169 476 163 472 154 L 414 20 C 408 6 400 0 390 0 L -8 0 C -16 0 -20 2 -20 6 C -20 10 -18 14 -16 20 L 646 1420 C 651 1433 662 1440 680 1440 C 697 1440 708 1433 714 1420 L 1376 20 C 1378 14 1380 10 1380 6 C 1380 2 1376 0 1368 0 L 964 0 C 953 0 945 6 940 20 L 882 154 Z M 796 454 L 796 456 C 794 457 794 458 794 460 L 688 732 C 685 736 681 738 676 738 C 669 738 665 736 664 732 L 562 462 L 560 456 C 560 450 566 448 580 448 L 778 448 C 790 448 796 450 796 454 Z M 338 1712 C 338 1721 339 1727 342 1729 C 344 1731 350 1732 358 1732 L 1030 1732 C 1039 1732 1045 1731 1047 1729 C 1049 1727 1050 1721 1050 1712 L 1050 1584 C 1050 1574 1049 1569 1047 1567 C 1045 1565 1039 1564 1030 1564 L 358 1564 C 348 1564 343 1565 341 1567 C 339 1569 338 1574 338 1584 L 338 1712 Z" unicode="" />
<glyph horiz-adv-x="1010" d="M 630 0 C 620 0 615 1 613 4 C 611 6 610 12 610 20 L 610 78 C 610 80 607 82 602 82 C 598 82 595 81 594 80 C 567 50 535 26 497 6 C 459 -14 409 -24 348 -24 C 244 -24 165 3 112 57 C 58 111 32 184 32 276 C 32 322 41 365 59 404 C 77 442 101 475 132 503 C 162 530 198 551 240 566 C 281 580 325 588 372 588 C 418 588 459 583 494 574 C 528 564 556 552 578 538 C 580 536 583 536 586 536 C 591 536 594 541 594 552 L 594 566 C 594 610 578 641 547 659 C 515 677 472 686 418 686 C 368 686 326 679 292 666 C 257 652 232 642 218 636 C 210 632 204 630 202 630 C 198 630 196 635 196 646 L 196 830 C 196 839 201 847 212 854 C 224 862 241 869 265 877 C 288 884 313 890 340 896 C 366 901 394 905 423 909 C 451 912 477 914 500 914 C 592 914 669 902 731 880 C 793 857 839 822 870 776 C 882 758 892 740 901 721 C 909 701 917 678 924 652 C 930 625 935 594 939 558 C 942 522 944 479 944 430 L 944 20 C 944 12 943 6 941 4 C 939 1 933 0 924 0 L 630 0 Z M 360 316 C 360 286 371 263 393 247 C 415 230 443 222 478 222 C 516 222 546 230 566 247 C 586 263 596 286 596 316 C 596 344 586 366 566 383 C 546 399 516 408 478 408 C 443 408 415 399 393 383 C 371 366 360 344 360 316 Z M 180 1224 C 180 1233 181 1239 184 1241 C 186 1243 192 1244 200 1244 L 872 1244 C 881 1244 887 1243 889 1241 C 891 1239 892 1233 892 1224 L 892 1096 C 892 1086 891 1081 889 1079 C 887 1077 881 1076 872 1076 L 200 1076 C 190 1076 185 1077 183 1079 C 181 1081 180 1086 180 1096 L 180 1224 Z" unicode="" />
<glyph horiz-adv-x="1360" d="M 882 154 C 878 163 874 169 872 171 C 869 173 864 174 858 174 L 498 174 C 492 174 488 173 484 171 C 480 169 476 163 472 154 L 414 20 C 408 6 400 0 390 0 L -8 0 C -16 0 -20 2 -20 6 C -20 10 -18 14 -16 20 L 646 1420 C 651 1433 662 1440 680 1440 C 697 1440 708 1433 714 1420 L 1376 20 C 1378 14 1380 10 1380 6 C 1380 2 1376 0 1368 0 L 964 0 C 953 0 945 6 940 20 L 882 154 Z M 796 454 L 796 456 C 794 457 794 458 794 460 L 688 732 C 685 736 681 738 676 738 C 669 738 665 736 664 732 L 562 462 L 560 456 C 560 450 566 448 580 448 L 778 448 C 790 448 796 450 796 454 Z M 680 1672 C 706 1672 730 1679 750 1694 C 770 1708 781 1734 784 1770 C 786 1783 795 1790 810 1790 L 1016 1790 C 1026 1790 1030 1783 1028 1770 C 1020 1718 1005 1674 983 1639 C 961 1603 934 1575 903 1553 C 871 1531 836 1515 798 1506 C 759 1496 720 1492 680 1492 C 640 1492 600 1496 562 1506 C 523 1515 488 1531 457 1553 C 425 1575 399 1603 377 1639 C 355 1674 340 1718 332 1770 C 328 1783 332 1790 344 1790 L 550 1790 C 564 1790 573 1783 576 1770 C 578 1734 591 1708 613 1694 C 635 1679 657 1672 680 1672 Z" unicode="" />
<glyph horiz-adv-x="1010" d="M 630 0 C 620 0 615 1 613 4 C 611 6 610 12 610 20 L 610 78 C 610 80 607 82 602 82 C 598 82 595 81 594 80 C 567 50 535 26 497 6 C 459 -14 409 -24 348 -24 C 244 -24 165 3 112 57 C 58 111 32 184 32 276 C 32 322 41 365 59 404 C 77 442 101 475 132 503 C 162 530 198 551 240 566 C 281 580 325 588 372 588 C 418 588 459 583 494 574 C 528 564 556 552 578 538 C 580 536 583 536 586 536 C 591 536 594 541 594 552 L 594 566 C 594 610 578 641 547 659 C 515 677 472 686 418 686 C 368 686 326 679 292 666 C 257 652 232 642 218 636 C 210 632 204 630 202 630 C 198 630 196 635 196 646 L 196 830 C 196 839 201 847 212 854 C 224 862 241 869 265 877 C 288 884 313 890 340 896 C 366 901 394 905 423 909 C 451 912 477 914 500 914 C 592 914 669 902 731 880 C 793 857 839 822 870 776 C 882 758 892 740 901 721 C 909 701 917 678 924 652 C 930 625 935 594 939 558 C 942 522 944 479 944 430 L 944 20 C 944 12 943 6 941 4 C 939 1 933 0 924 0 L 630 0 Z M 360 316 C 360 286 371 263 393 247 C 415 230 443 222 478 222 C 516 222 546 230 566 247 C 586 263 596 286 596 316 C 596 344 586 366 566 383 C 546 399 516 408 478 408 C 443 408 415 399 393 383 C 371 366 360 344 360 316 Z M 530 1184 C 556 1184 580 1191 600 1206 C 620 1220 631 1246 634 1282 C 636 1295 645 1302 660 1302 L 866 1302 C 876 1302 880 1295 878 1282 C 870 1230 855 1186 833 1151 C 811 1115 784 1087 753 1065 C 721 1043 686 1027 648 1018 C 609 1008 570 1004 530 1004 C 490 1004 450 1008 412 1018 C 373 1027 338 1043 307 1065 C 275 1087 249 1115 227 1151 C 205 1186 190 1230 182 1282 C 178 1295 182 1302 194 1302 L 400 1302 C 414 1302 423 1295 426 1282 C 428 1246 441 1220 463 1206 C 485 1191 507 1184 530 1184 Z" unicode="" />
<glyph horiz-adv-x="1360" d="M 882 154 C 878 163 874 169 872 171 C 869 173 864 174 858 174 L 498 174 C 492 174 488 173 484 171 C 480 169 476 163 472 154 L 414 20 C 408 6 400 0 390 0 L -8 0 C -16 0 -20 2 -20 6 C -20 10 -18 14 -16 20 L 646 1420 C 651 1433 662 1440 680 1440 C 697 1440 708 1433 714 1420 L 1376 20 C 1378 14 1380 10 1380 6 C 1380 2 1376 0 1368 0 L 964 0 C 953 0 945 6 940 20 L 882 154 Z M 796 454 L 796 456 C 794 457 794 458 794 460 L 688 732 C 685 736 681 738 676 738 C 669 738 665 736 664 732 L 562 462 L 560 456 C 560 450 566 448 580 448 L 778 448 C 790 448 796 450 796 454 Z M 876 -198 C 876 -158 885 -117 903 -75 C 921 -33 948 5 984 40 L 1194 26 C 1168 -2 1147 -30 1130 -58 C 1112 -86 1104 -114 1104 -142 C 1104 -172 1111 -197 1125 -217 C 1139 -236 1172 -246 1224 -246 L 1258 -246 C 1268 -246 1274 -251 1274 -262 L 1274 -414 C 1274 -426 1268 -432 1258 -434 C 1251 -435 1240 -436 1226 -438 C 1211 -439 1195 -440 1178 -440 C 1076 -440 1001 -418 951 -374 C 901 -330 876 -271 876 -198 Z" unicode="" />
<glyph horiz-adv-x="1010" d="M 630 0 C 620 0 615 1 613 4 C 611 6 610 12 610 20 L 610 78 C 610 80 607 82 602 82 C 598 82 595 81 594 80 C 567 50 535 26 497 6 C 459 -14 409 -24 348 -24 C 244 -24 165 3 112 57 C 58 111 32 184 32 276 C 32 322 41 365 59 404 C 77 442 101 475 132 503 C 162 530 198 551 240 566 C 281 580 325 588 372 588 C 418 588 459 583 494 574 C 528 564 556 552 578 538 C 580 536 583 536 586 536 C 591 536 594 541 594 552 L 594 566 C 594 610 578 641 547 659 C 515 677 472 686 418 686 C 368 686 326 679 292 666 C 257 652 232 642 218 636 C 210 632 204 630 202 630 C 198 630 196 635 196 646 L 196 830 C 196 839 201 847 212 854 C 224 862 241 869 265 877 C 288 884 313 890 340 896 C 366 901 394 905 423 909 C 451 912 477 914 500 914 C 592 914 669 902 731 880 C 793 857 839 822 870 776 C 882 758 892 740 901 721 C 909 701 917 678 924 652 C 930 625 935 594 939 558 C 942 522 944 479 944 430 L 944 20 C 944 12 943 6 941 4 C 939 1 933 0 924 0 L 630 0 Z M 360 316 C 360 286 371 263 393 247 C 415 230 443 222 478 222 C 516 222 546 230 566 247 C 586 263 596 286 596 316 C 596 344 586 366 566 383 C 546 399 516 408 478 408 C 443 408 415 399 393 383 C 371 366 360 344 360 316 Z M 534 -198 C 534 -158 543 -117 561 -75 C 579 -33 606 5 642 40 L 852 26 C 826 -2 805 -30 788 -58 C 770 -86 762 -114 762 -142 C 762 -172 769 -197 783 -217 C 797 -236 830 -246 882 -246 L 916 -246 C 926 -246 932 -251 932 -262 L 932 -414 C 932 -426 926 -432 916 -434 C 909 -435 898 -436 884 -438 C 869 -439 853 -440 836 -440 C 734 -440 659 -418 609 -374 C 559 -330 534 -271 534 -198 Z" unicode="" />
<glyph horiz-adv-x="1262" d="M 788 -32 C 676 -32 575 -12 485 26 C 395 64 318 117 255 183 C 191 249 142 326 108 415 C 73 503 56 598 56 700 C 56 796 73 888 107 977 C 141 1065 189 1143 253 1211 C 316 1278 393 1332 483 1372 C 573 1412 674 1432 788 1432 C 858 1432 926 1424 991 1409 C 1055 1393 1112 1374 1160 1350 C 1170 1344 1176 1338 1176 1330 L 1176 918 C 1176 908 1173 904 1168 904 C 1164 904 1160 905 1158 908 C 1119 946 1071 975 1013 995 C 955 1014 892 1024 824 1024 C 709 1024 622 994 564 934 C 505 874 476 796 476 700 C 476 604 505 526 563 466 C 621 406 707 376 822 376 C 890 376 953 385 1012 405 C 1070 424 1119 453 1158 492 C 1160 494 1164 496 1168 496 C 1173 496 1176 491 1176 482 L 1176 70 C 1176 62 1170 55 1160 50 C 1112 26 1055 6 991 -9 C 926 -24 858 -32 788 -32 Z M 686 1770 C 692 1778 697 1783 701 1786 C 704 1788 710 1790 718 1790 L 1054 1790 C 1067 1790 1074 1788 1074 1786 C 1074 1783 1070 1778 1062 1770 L 820 1520 C 814 1514 809 1510 804 1506 C 798 1502 792 1500 784 1500 L 540 1500 C 530 1500 526 1501 526 1504 C 526 1508 528 1513 534 1520 L 686 1770 Z" unicode="" />
<glyph horiz-adv-x="818" d="M 562 276 C 604 276 640 281 669 292 C 697 302 724 314 750 328 C 752 329 756 330 760 330 C 766 330 770 324 770 314 L 770 38 C 770 32 769 28 767 26 C 765 23 760 20 754 18 C 739 10 722 3 702 -2 C 682 -7 661 -11 641 -15 C 620 -18 599 -20 578 -22 C 556 -23 537 -24 520 -24 C 452 -24 388 -12 330 11 C 271 34 220 67 178 109 C 135 151 101 200 77 258 C 52 315 40 378 40 446 C 40 514 52 576 77 634 C 101 691 135 740 178 782 C 220 823 271 855 330 879 C 388 902 452 914 520 914 C 554 914 594 911 638 905 C 682 899 718 889 748 876 C 754 873 759 870 761 868 C 763 865 764 861 764 856 L 764 582 C 764 571 760 566 754 566 C 750 566 746 566 744 568 C 718 581 692 592 666 602 C 639 611 604 616 562 616 C 506 616 460 600 426 569 C 391 537 374 496 374 446 C 374 399 389 359 421 326 C 452 292 499 276 562 276 Z M 440 1282 C 446 1290 451 1295 455 1298 C 458 1300 464 1302 472 1302 L 808 1302 C 821 1302 828 1300 828 1298 C 828 1295 824 1290 816 1282 L 574 1032 C 568 1026 563 1022 558 1018 C 552 1014 546 1012 538 1012 L 294 1012 C 284 1012 280 1013 280 1016 C 280 1020 282 1025 288 1032 L 440 1282 Z" unicode="" />
<glyph horiz-adv-x="1262" d="M 788 -32 C 676 -32 575 -12 485 26 C 395 64 318 117 255 183 C 191 249 142 326 108 415 C 73 503 56 598 56 700 C 56 796 73 888 107 977 C 141 1065 189 1143 253 1211 C 316 1278 393 1332 483 1372 C 573 1412 674 1432 788 1432 C 858 1432 926 1424 991 1409 C 1055 1393 1112 1374 1160 1350 C 1170 1344 1176 1338 1176 1330 L 1176 918 C 1176 908 1173 904 1168 904 C 1164 904 1160 905 1158 908 C 1119 946 1071 975 1013 995 C 955 1014 892 1024 824 1024 C 709 1024 622 994 564 934 C 505 874 476 796 476 700 C 476 604 505 526 563 466 C 621 406 707 376 822 376 C 890 376 953 385 1012 405 C 1070 424 1119 453 1158 492 C 1160 494 1164 496 1168 496 C 1173 496 1176 491 1176 482 L 1176 70 C 1176 62 1170 55 1160 50 C 1112 26 1055 6 991 -9 C 926 -24 858 -32 788 -32 Z M 710 1634 C 704 1634 700 1632 698 1630 L 608 1520 C 601 1513 596 1508 592 1505 C 588 1501 581 1500 572 1500 L 320 1500 C 310 1500 306 1501 306 1504 C 306 1504 310 1509 318 1520 L 540 1770 C 552 1783 564 1790 578 1790 L 842 1790 C 855 1790 868 1783 880 1770 L 1102 1520 C 1110 1509 1114 1504 1114 1504 C 1114 1501 1109 1500 1100 1500 L 848 1500 C 838 1500 832 1501 828 1505 C 824 1508 818 1513 812 1520 L 722 1630 C 719 1632 715 1634 710 1634 Z" unicode="" />
<glyph horiz-adv-x="818" d="M 562 276 C 604 276 640 281 669 292 C 697 302 724 314 750 328 C 752 329 756 330 760 330 C 766 330 770 324 770 314 L 770 38 C 770 32 769 28 767 26 C 765 23 760 20 754 18 C 739 10 722 3 702 -2 C 682 -7 661 -11 641 -15 C 620 -18 599 -20 578 -22 C 556 -23 537 -24 520 -24 C 452 -24 388 -12 330 11 C 271 34 220 67 178 109 C 135 151 101 200 77 258 C 52 315 40 378 40 446 C 40 514 52 576 77 634 C 101 691 135 740 178 782 C 220 823 271 855 330 879 C 388 902 452 914 520 914 C 554 914 594 911 638 905 C 682 899 718 889 748 876 C 754 873 759 870 761 868 C 763 865 764 861 764 856 L 764 582 C 764 571 760 566 754 566 C 750 566 746 566 744 568 C 718 581 692 592 666 602 C 639 611 604 616 562 616 C 506 616 460 600 426 569 C 391 537 374 496 374 446 C 374 399 389 359 421 326 C 452 292 499 276 562 276 Z M 476 1146 C 470 1146 466 1144 464 1142 L 374 1032 C 367 1025 362 1020 358 1017 C 354 1013 347 1012 338 1012 L 86 1012 C 76 1012 72 1013 72 1016 C 72 1016 76 1021 84 1032 L 306 1282 C 318 1295 330 1302 344 1302 L 608 1302 C 621 1302 634 1295 646 1282 L 868 1032 C 876 1021 880 1016 880 1016 C 880 1013 875 1012 866 1012 L 614 1012 C 604 1012 598 1013 594 1017 C 590 1020 584 1025 578 1032 L 488 1142 C 485 1144 481 1146 476 1146 Z" unicode="" />
<glyph horiz-adv-x="1262" d="M 788 -32 C 676 -32 575 -12 485 26 C 395 64 318 117 255 183 C 191 249 142 326 108 415 C 73 503 56 598 56 700 C 56 796 73 888 107 977 C 141 1065 189 1143 253 1211 C 316 1278 393 1332 483 1372 C 573 1412 674 1432 788 1432 C 858 1432 926 1424 991 1409 C 1055 1393 1112 1374 1160 1350 C 1170 1344 1176 1338 1176 1330 L 1176 918 C 1176 908 1173 904 1168 904 C 1164 904 1160 905 1158 908 C 1119 946 1071 975 1013 995 C 955 1014 892 1024 824 1024 C 709 1024 622 994 564 934 C 505 874 476 796 476 700 C 476 604 505 526 563 466 C 621 406 707 376 822 376 C 890 376 953 385 1012 405 C 1070 424 1119 453 1158 492 C 1160 494 1164 496 1168 496 C 1173 496 1176 491 1176 482 L 1176 70 C 1176 62 1170 55 1160 50 C 1112 26 1055 6 991 -9 C 926 -24 858 -32 788 -32 Z M 752 1470 C 726 1470 702 1474 680 1484 C 657 1493 637 1506 620 1523 C 602 1539 589 1559 579 1583 C 569 1606 564 1632 564 1660 C 564 1713 581 1758 617 1796 C 652 1833 697 1852 752 1852 C 778 1852 803 1846 827 1836 C 850 1825 870 1811 887 1794 C 903 1776 916 1756 926 1734 C 935 1711 940 1687 940 1662 C 940 1636 935 1612 925 1589 C 915 1565 901 1545 885 1528 C 868 1510 848 1496 825 1486 C 801 1475 777 1470 752 1470 Z" unicode="" />
<glyph horiz-adv-x="818" d="M 562 276 C 604 276 640 281 669 292 C 697 302 724 314 750 328 C 752 329 756 330 760 330 C 766 330 770 324 770 314 L 770 38 C 770 32 769 28 767 26 C 765 23 760 20 754 18 C 739 10 722 3 702 -2 C 682 -7 661 -11 641 -15 C 620 -18 599 -20 578 -22 C 556 -23 537 -24 520 -24 C 452 -24 388 -12 330 11 C 271 34 220 67 178 109 C 135 151 101 200 77 258 C 52 315 40 378 40 446 C 40 514 52 576 77 634 C 101 691 135 740 178 782 C 220 823 271 855 330 879 C 388 902 452 914 520 914 C 554 914 594 911 638 905 C 682 899 718 889 748 876 C 754 873 759 870 761 868 C 763 865 764 861 764 856 L 764 582 C 764 571 760 566 754 566 C 750 566 746 566 744 568 C 718 581 692 592 666 602 C 639 611 604 616 562 616 C 506 616 460 600 426 569 C 391 537 374 496 374 446 C 374 399 389 359 421 326 C 452 292 499 276 562 276 Z M 482 982 C 456 982 432 986 410 996 C 387 1005 367 1018 350 1035 C 332 1051 319 1071 309 1095 C 299 1118 294 1144 294 1172 C 294 1225 311 1270 347 1308 C 382 1345 427 1364 482 1364 C 508 1364 533 1358 557 1348 C 580 1337 600 1323 617 1306 C 633 1288 646 1268 656 1246 C 665 1223 670 1199 670 1174 C 670 1148 665 1124 655 1101 C 645 1077 631 1057 615 1040 C 598 1022 578 1008 555 998 C 531 987 507 982 482 982 Z" unicode="" />
</font>
</defs>
</svg>
