<?xml version="1.0" encoding="utf-8" ?><svg version="1.1" xmlns = 'http://www.w3.org/2000/svg'><defs><font id='web' horiz-adv-x="1000">
<font-face font-family="web" descent="-229" cap-height="630" units-per-em="1000" bbox="-80,-347,1340,1161" x-height="480" ascent="771" />
<missing-glyph horiz-adv-x="516" d="M 55 569 L 461 569 L 461 0 L 55 0 L 55 569 Z M 84 29 L 431 29 L 431 538 L 84 538 L 84 29 Z M 244 192 L 216 198 L 212 262 L 313 304 L 271 435 L 177 471 L 195 501 C 213 494 231 487 249 479 C 267 471 284 464 300 456 L 349 294 L 244 252 L 244 192 Z M 245 82 C 237 82 229 83 221 85 C 213 87 206 89 202 92 L 215 136 L 257 126 L 245 82 Z" /><glyph horiz-adv-x="203" d="" unicode=" " />
<glyph horiz-adv-x="374" d="M 78 301 L 53 763 L 344 701 L 269 245 L 78 301 Z M 258 -17 C 216 -13 177 -5 141 5 C 105 15 73 29 45 47 L 95 237 L 320 168 L 258 -17 Z" unicode="!" />
<glyph horiz-adv-x="556" d="M 50 417 L 50 759 C 88 754 128 746 169 734 C 209 722 244 709 272 695 L 186 386 L 50 417 Z M 321 417 L 321 759 C 359 754 399 746 440 734 C 480 722 515 709 544 695 L 458 386 L 321 417 Z" unicode="&#x22;" />
<glyph horiz-adv-x="538" d="M 235 399 L 224 298 L 290 296 L 298 392 L 235 399 Z M 391 173 L 380 81 L 275 94 L 281 184 L 210 192 L 200 102 L 95 114 L 102 205 L 23 214 L 54 306 L 110 304 L 119 412 L 49 420 L 80 513 L 127 511 L 137 624 L 261 609 L 249 505 L 307 503 L 316 603 L 441 589 L 429 497 L 511 494 L 470 374 L 416 380 L 405 290 L 485 287 L 444 167 L 391 173 Z" unicode="#" />
<glyph horiz-adv-x="487" d="M 464 433 L 410 285 L 315 354 L 315 301 L 440 197 L 440 43 L 303 -16 L 310 -192 C 281 -190 253 -186 226 -180 C 198 -174 176 -168 160 -162 L 175 -9 C 146 -3 118 3 91 12 C 63 20 37 31 12 43 L 61 182 L 165 129 L 165 173 L 42 268 L 42 423 L 179 497 L 172 676 C 200 673 228 669 255 663 C 282 657 304 651 321 645 L 305 490 C 333 483 361 475 388 465 C 415 455 440 445 464 433 Z" unicode="$" />
<glyph horiz-adv-x="985" d="M 712 645 L 405 -95 L 294 -67 L 574 671 L 712 645 Z M 275 225 C 232 229 190 235 148 245 C 106 254 69 266 38 281 L 38 533 L 185 597 C 221 590 255 581 288 571 C 321 561 354 548 388 533 L 388 314 L 275 225 Z M 255 341 L 255 460 L 205 469 L 205 353 L 255 341 Z M 834 -58 C 791 -54 749 -47 707 -37 C 665 -27 628 -15 598 -1 L 598 251 L 745 314 C 781 308 815 299 848 289 C 880 278 913 265 947 251 L 947 32 L 834 -58 Z M 815 59 L 815 177 L 764 186 L 764 70 L 815 59 Z" unicode="%" />
<glyph horiz-adv-x="806" d="M 154 344 L 79 423 L 52 590 L 241 720 C 286 713 333 701 381 685 C 429 668 469 649 502 629 L 432 444 L 289 548 L 297 488 L 475 313 L 555 564 C 595 557 637 546 681 530 C 724 514 759 497 786 481 L 710 272 L 611 345 L 560 243 L 760 64 L 547 -69 L 411 67 L 334 -23 C 280 -14 225 0 171 21 C 116 41 71 63 35 86 L 35 284 L 154 344 Z M 327 156 L 226 263 L 226 175 L 327 156 Z" unicode="&#x26;" />
<glyph horiz-adv-x="285" d="M 50 417 L 50 759 C 88 754 128 746 169 734 C 209 722 244 709 272 695 L 186 386 L 50 417 Z" unicode="'" />
<glyph horiz-adv-x="402" d="M 388 670 L 287 567 L 252 446 L 252 138 L 293 -26 L 394 -101 L 275 -232 C 251 -219 222 -198 188 -170 C 154 -141 129 -113 112 -87 L 73 105 L 73 437 L 139 626 L 253 755 C 277 748 302 735 330 717 C 357 698 376 682 388 670 Z" unicode="(" />
<glyph horiz-adv-x="402" d="M 15 -147 L 115 -44 L 150 77 L 150 385 L 110 549 L 8 624 L 128 755 C 151 742 179 721 213 693 C 247 664 272 636 290 610 L 329 418 L 329 86 L 263 -103 L 149 -232 C 125 -225 100 -212 72 -194 C 44 -175 25 -159 15 -147 Z" unicode=")" />
<glyph horiz-adv-x="530" d="M 362 715 L 332 563 L 472 606 C 478 585 483 566 486 548 C 488 530 490 513 490 497 C 490 488 489 480 489 472 C 488 464 487 456 486 450 L 360 441 L 449 325 C 423 307 396 292 370 282 C 343 271 320 264 301 262 L 244 384 L 153 264 C 127 282 105 303 87 325 C 68 347 54 368 46 386 L 142 463 L 15 504 C 25 534 37 562 53 586 C 69 610 83 629 97 643 L 205 580 L 203 750 C 235 748 265 743 293 737 C 320 730 343 723 362 715 Z" unicode="*" />
<glyph horiz-adv-x="534" d="M 12 195 L 55 325 L 169 319 L 169 492 L 374 462 L 346 311 L 507 305 L 453 134 L 340 144 L 340 -12 L 142 15 L 168 159 C 140 163 111 169 82 176 C 52 182 29 189 12 195 Z" unicode="+" />
<glyph horiz-adv-x="349" d="M 81 12 L 51 219 C 91 214 133 205 176 193 C 218 181 256 166 290 150 L 302 -7 L 193 -156 L 44 -123 L 81 12 Z" unicode="," />
<glyph horiz-adv-x="402" d="M 32 164 L 81 338 L 366 310 L 303 93 C 252 97 202 106 153 118 C 103 130 63 146 32 164 Z" unicode="-" />
<glyph horiz-adv-x="339" d="M 87 237 L 312 168 L 250 -17 C 208 -13 169 -5 133 5 C 97 15 65 29 37 47 L 87 237 Z" unicode="." />
<glyph horiz-adv-x="400" d="M 386 690 L 162 -95 L 45 -66 L 245 714 L 386 690 Z" unicode="/" />
<glyph horiz-adv-x="566" d="M 531 417 L 531 106 L 372 -20 C 311 -14 251 -5 191 8 C 131 22 79 39 35 60 L 35 417 L 243 508 C 295 500 344 488 391 473 C 437 458 484 439 531 417 Z M 348 140 L 348 315 L 266 330 L 266 158 L 348 140 Z" unicode="0" />
<glyph horiz-adv-x="401" d="M 9 47 L 46 159 L 96 153 L 96 260 L 9 271 L 49 411 L 229 512 C 249 505 272 495 297 483 C 321 470 340 459 353 450 L 353 138 L 400 132 L 351 -18 C 271 -13 203 -5 145 7 C 87 19 42 32 9 47 Z" unicode="1" />
<glyph horiz-adv-x="511" d="M 219 223 L 235 337 L 171 350 L 180 242 L 34 260 L 28 411 L 201 511 C 251 503 299 490 346 474 C 392 458 439 438 485 414 L 452 225 L 318 156 L 497 136 L 463 28 L 322 -38 C 268 -31 210 -17 150 2 C 90 22 45 42 15 60 L 50 160 L 219 223 Z" unicode="2" />
<glyph horiz-adv-x="503" d="M 447 208 L 334 154 L 469 104 L 487 -99 L 287 -203 C 243 -197 191 -184 131 -164 C 71 -143 24 -122 -10 -101 L 43 44 L 219 -43 L 219 3 L 84 82 L 111 172 L 218 215 L 235 337 L 171 350 L 180 242 L 35 260 L 28 411 L 201 507 C 251 499 299 488 346 473 C 392 457 439 438 485 414 L 447 208 Z" unicode="3" />
<glyph horiz-adv-x="541" d="M 537 120 L 489 -33 L 489 -191 C 439 -187 390 -179 340 -166 C 290 -153 249 -138 218 -122 L 259 -10 C 211 -2 165 5 121 13 C 76 21 39 29 11 37 L 36 183 L 193 512 C 238 508 290 496 349 477 C 408 458 455 438 489 418 L 489 128 L 537 120 Z M 270 147 L 270 316 L 179 162 L 270 147 Z" unicode="4" />
<glyph horiz-adv-x="508" d="M 219 3 L 38 111 L 38 341 L 92 478 L 334 469 L 346 530 L 493 502 L 421 255 L 201 293 L 201 219 L 384 193 L 469 104 L 487 -99 L 287 -203 C 243 -197 191 -184 131 -164 C 71 -143 24 -122 -10 -101 L 43 44 L 219 -43 L 219 3 Z" unicode="5" />
<glyph horiz-adv-x="550" d="M 347 702 L 469 624 L 298 433 L 502 354 L 527 60 L 325 -20 C 263 -13 207 -2 156 12 C 105 26 62 42 28 59 L 43 403 L 157 574 L 347 702 Z M 325 144 L 314 258 L 258 304 L 254 158 L 325 144 Z" unicode="6" />
<glyph horiz-adv-x="494" d="M 459 250 L 373 28 L 334 -205 C 281 -197 228 -184 175 -165 C 121 -145 80 -125 51 -105 L 147 98 L 293 293 L 166 313 L 174 208 L 25 228 L 19 411 L 151 510 C 203 505 261 493 324 475 C 386 457 441 436 487 414 L 459 250 Z" unicode="7" />
<glyph horiz-adv-x="541" d="M 506 313 L 529 60 L 323 -31 C 262 -24 203 -12 146 5 C 89 22 44 41 12 62 L 45 245 L 120 297 L 59 336 L 45 575 L 227 677 C 274 669 323 656 375 637 C 426 618 470 597 506 575 L 480 414 L 420 364 L 506 313 Z M 331 412 L 337 502 L 258 524 L 260 450 L 331 412 Z M 296 128 L 288 202 L 208 249 L 201 157 L 296 128 Z" unicode="8" />
<glyph horiz-adv-x="544" d="M 205 -206 C 174 -197 140 -180 103 -155 C 66 -130 40 -106 26 -84 L 238 24 L 43 123 L 20 417 L 209 507 C 268 501 325 490 381 473 C 436 456 481 437 515 417 L 493 96 L 371 -123 L 205 -206 Z M 282 163 L 289 323 L 210 339 L 225 215 L 282 163 Z" unicode="9" />
<glyph horiz-adv-x="342" d="M 89 505 L 314 436 L 252 251 C 210 255 171 262 135 273 C 99 283 68 297 40 315 L 89 505 Z M 245 -32 C 205 -28 167 -20 132 -9 C 97 1 66 15 38 32 L 87 216 L 305 149 L 245 -32 Z" unicode=":" />
<glyph horiz-adv-x="353" d="M 89 505 L 314 436 L 252 251 C 210 255 171 262 135 273 C 99 283 68 297 40 315 L 89 505 Z M 193 -156 L 44 -123 L 81 12 L 51 219 C 91 214 133 205 176 193 C 218 181 256 166 290 150 L 302 -7 L 193 -156 Z" unicode=";" />
<glyph horiz-adv-x="478" d="M 56 192 L 101 314 L 298 530 L 421 427 L 246 255 C 274 227 304 200 337 172 C 369 144 403 117 438 90 L 304 -38 C 257 -5 211 32 165 76 C 119 120 82 158 56 192 Z" unicode="&#x3C;" />
<glyph horiz-adv-x="527" d="M 52 312 L 92 440 C 163 433 228 428 287 425 C 345 421 420 418 510 416 L 455 241 C 369 245 289 255 213 270 C 137 284 84 298 52 312 Z M 427 23 C 341 27 261 37 185 52 C 109 66 56 80 24 94 L 63 221 C 135 215 200 210 259 207 C 317 203 391 200 481 198 L 427 23 Z" unicode="=" />
<glyph horiz-adv-x="478" d="M 421 315 L 377 193 L 180 -23 L 56 80 L 232 252 C 204 279 173 307 141 335 C 108 363 74 390 40 417 L 174 546 C 220 512 266 474 312 430 C 358 386 394 348 421 315 Z" unicode="&#x3E;" />
<glyph horiz-adv-x="497" d="M 441 571 L 457 379 L 292 318 L 258 243 L 84 296 L 84 385 L 211 423 L 208 453 L 17 538 L 153 759 C 205 738 258 710 311 676 C 363 642 407 607 441 571 Z M 267 -17 C 225 -13 186 -5 150 5 C 114 15 82 29 54 47 L 104 237 L 329 168 L 267 -17 Z" unicode="?" />
<glyph horiz-adv-x="997" d="M 751 111 L 809 294 L 768 545 C 726 566 678 586 625 604 C 571 622 517 637 462 650 L 235 541 L 175 285 L 223 -5 C 249 -19 290 -37 344 -57 C 398 -77 449 -94 496 -108 L 714 -34 L 737 -128 L 479 -200 C 419 -187 351 -164 274 -132 C 196 -99 142 -71 111 -49 L 44 276 L 130 580 L 473 748 C 543 734 616 713 694 683 C 771 653 835 622 887 588 L 939 297 L 853 72 L 720 0 C 682 5 644 13 607 23 C 570 33 538 43 512 54 L 514 119 L 466 8 C 429 13 393 23 358 38 C 322 53 294 70 272 88 L 277 386 L 393 523 C 423 519 453 512 483 502 C 512 491 537 479 558 467 L 605 560 C 621 551 640 537 660 518 C 680 498 694 480 703 462 L 701 125 L 751 111 Z M 515 162 L 518 334 L 458 348 L 457 179 L 515 162 Z" unicode="@" />
<glyph horiz-adv-x="683" d="M 365 49 L 384 110 L 381 157 L 266 169 L 260 120 L 308 112 L 268 -14 C 214 -10 164 -2 120 9 C 76 21 41 34 15 49 L 128 582 L 308 683 C 358 675 409 660 462 638 C 514 616 557 596 589 576 L 649 140 L 694 131 L 646 -14 C 584 -10 529 -2 482 9 C 435 20 396 33 365 49 Z M 372 277 L 356 478 L 298 493 L 279 307 L 372 277 Z" unicode="A" />
<glyph horiz-adv-x="687" d="M 287 49 L 264 -16 C 228 -11 192 -3 157 8 C 121 20 93 32 72 45 L 72 490 L 26 480 L -2 617 L 362 694 C 411 682 461 662 513 635 C 565 607 610 580 649 553 L 557 371 C 575 359 593 346 612 332 C 631 318 649 304 666 290 L 666 59 L 487 -19 C 455 -15 420 -6 382 6 C 344 19 312 33 287 49 Z M 322 359 L 399 399 L 399 501 L 322 523 L 322 359 Z M 443 141 L 443 191 C 424 207 404 222 384 237 C 363 252 342 265 322 277 L 322 175 L 443 141 Z" unicode="B" />
<glyph horiz-adv-x="607" d="M 311 182 L 591 142 L 547 28 L 354 -31 C 292 -23 232 -10 174 8 C 116 27 70 46 37 66 L 37 588 L 257 683 C 286 679 316 672 347 664 C 377 656 407 646 436 635 L 477 684 L 577 672 L 558 304 L 382 332 L 391 461 L 311 498 L 311 182 Z" unicode="C" />
<glyph horiz-adv-x="672" d="M 46 120 L 46 528 L -28 539 L 59 713 C 150 704 245 688 343 665 C 441 642 525 616 596 588 L 652 314 L 584 70 L 366 -21 C 301 -16 240 -7 183 4 C 126 16 73 31 25 49 L 46 120 Z M 367 147 L 395 302 L 355 488 L 293 501 L 293 160 L 367 147 Z" unicode="D" />
<glyph horiz-adv-x="589" d="M 19 66 L 54 306 L 26 588 L 257 683 C 283 679 310 674 338 667 C 366 659 393 651 419 641 L 454 684 L 555 672 L 539 372 L 363 400 L 370 490 L 288 522 L 305 357 L 520 329 L 472 188 C 444 193 414 201 380 211 C 346 221 319 231 299 242 L 282 167 L 581 128 L 542 28 L 354 -31 C 292 -23 230 -10 166 8 C 102 27 53 46 19 66 Z" unicode="E" />
<glyph horiz-adv-x="559" d="M 6 588 L 257 683 C 281 680 307 675 333 668 C 359 661 384 653 409 645 L 434 684 L 534 672 L 519 359 L 359 384 L 366 470 L 286 497 L 302 331 L 520 307 L 462 139 C 441 143 412 150 376 160 C 339 170 313 179 299 188 L 288 134 L 383 124 L 338 -15 C 280 -12 223 -5 166 6 C 109 18 64 32 32 49 L 61 155 L 6 588 Z" unicode="F" />
<glyph horiz-adv-x="660" d="M 626 304 L 612 -73 C 575 -68 536 -61 494 -51 C 452 -41 419 -30 394 -18 L 409 104 L 332 -20 C 284 -14 232 -3 176 12 C 120 28 74 46 38 64 L 38 606 L 292 692 C 348 687 404 677 462 662 C 519 646 568 627 610 605 L 506 408 L 311 506 L 311 171 L 416 155 L 420 201 L 356 212 L 401 356 C 446 354 487 349 524 339 C 561 329 595 318 626 304 Z" unicode="G" />
<glyph horiz-adv-x="723" d="M 690 612 L 671 536 L 671 140 L 718 131 L 670 -14 C 610 -10 558 -2 515 9 C 472 20 436 33 406 49 L 426 120 L 426 217 L 308 240 L 308 140 L 355 131 L 307 -14 C 247 -10 194 -2 147 9 C 100 20 62 33 32 49 L 53 120 L 53 519 L 7 527 L 55 676 C 109 673 158 666 204 654 C 250 642 291 628 328 612 L 307 536 L 307 394 L 426 355 L 426 519 L 381 527 L 429 676 C 482 673 530 666 572 654 C 614 642 654 628 690 612 Z" unicode="H" />
<glyph horiz-adv-x="412" d="M 338 140 L 401 132 L 351 -17 C 292 -13 230 -5 164 7 C 98 19 46 33 8 49 L 51 172 L 82 165 L 82 519 L 19 527 L 58 676 C 116 672 179 664 246 652 C 313 639 365 625 403 610 L 365 487 L 338 494 L 338 140 Z" unicode="I" />
<glyph horiz-adv-x="419" d="M 124 82 L 124 511 L 15 529 L 63 676 C 126 671 184 663 238 651 C 291 639 338 623 380 605 L 380 23 L 183 -80 C 151 -75 117 -66 80 -53 C 42 -40 12 -26 -10 -12 L 45 151 L 124 82 Z" unicode="J" />
<glyph horiz-adv-x="702" d="M 392 38 L 366 166 L 308 218 L 308 127 L 355 118 L 307 -14 C 247 -10 194 -2 147 9 C 100 20 62 33 32 49 L 53 120 L 53 519 L 7 527 L 55 676 C 109 673 158 666 204 654 C 250 642 291 628 328 612 L 308 536 L 308 333 L 370 370 L 432 686 C 472 677 516 661 564 637 C 612 613 647 588 671 562 L 615 397 L 523 341 L 640 263 L 661 141 L 709 131 L 660 -14 C 600 -10 548 -3 504 5 C 460 13 422 24 392 38 Z" unicode="K" />
<glyph horiz-adv-x="497" d="M 338 612 L 305 492 L 305 318 L 280 199 L 506 174 L 459 28 L 328 -18 C 272 -10 222 -1 176 10 C 130 22 88 38 50 59 L 50 520 L 2 528 L 52 677 C 106 674 157 667 207 655 C 257 643 300 628 338 612 Z" unicode="L" />
<glyph horiz-adv-x="875" d="M 590 120 L 583 305 L 514 142 L 488 17 C 466 19 441 25 414 33 C 386 41 364 51 347 62 L 234 305 L 231 142 L 284 133 L 237 -11 C 195 -6 154 1 115 11 C 75 21 42 34 16 49 L 49 164 L 73 513 L 27 521 L 77 670 C 123 668 168 661 213 650 C 257 638 297 625 331 610 L 451 351 L 537 549 L 564 676 C 610 671 657 662 707 648 C 757 634 799 618 833 600 L 811 524 L 827 140 L 875 131 L 826 -14 C 766 -10 715 -2 675 9 C 634 20 598 33 568 49 L 590 120 Z" unicode="M" />
<glyph horiz-adv-x="708" d="M 27 49 L 49 120 L 49 513 L 2 521 L 52 670 C 98 668 140 662 179 652 C 217 642 253 630 286 616 L 464 391 L 464 511 L 386 524 L 429 670 C 479 668 527 661 573 649 C 619 637 657 624 686 608 L 667 540 L 667 146 L 693 49 L 577 -24 C 545 -19 514 -10 483 3 C 452 17 427 30 409 43 L 435 103 L 244 311 L 244 148 L 345 131 L 296 -14 C 234 -9 181 -1 137 9 C 93 20 56 33 27 49 Z" unicode="N" />
<glyph horiz-adv-x="666" d="M 628 584 L 628 59 L 366 -24 C 302 -17 241 -6 185 8 C 129 22 80 39 38 59 L 38 584 L 285 690 C 343 681 403 666 467 646 C 531 626 584 605 628 584 Z M 383 144 L 383 480 L 303 497 L 303 257 L 275 169 L 383 144 Z" unicode="O" />
<glyph horiz-adv-x="659" d="M 327 523 L 327 264 L 391 285 L 398 501 L 327 523 Z M 405 98 L 363 -14 C 289 -10 227 -3 175 7 C 123 18 83 32 54 49 L 72 110 L 72 490 L 26 480 L -2 617 L 362 694 C 404 682 451 664 505 639 C 558 614 603 589 640 565 L 619 202 L 452 121 C 431 127 410 135 389 145 C 367 155 347 166 327 177 L 327 106 L 405 98 Z" unicode="P" />
<glyph horiz-adv-x="666" d="M 628 584 L 628 113 L 514 34 L 696 2 L 609 -180 C 555 -172 503 -160 454 -144 C 405 -128 365 -111 334 -93 L 359 -23 C 296 -16 237 -5 182 8 C 127 22 79 39 38 59 L 38 584 L 285 690 C 343 681 403 666 467 646 C 531 626 584 605 628 584 Z M 383 144 L 383 480 L 303 497 L 303 257 L 275 169 L 383 144 Z" unicode="Q" />
<glyph horiz-adv-x="716" d="M 723 131 L 676 -14 C 621 -11 573 -6 532 2 C 491 10 456 19 427 31 L 392 133 L 327 179 L 327 112 L 379 105 L 337 -14 C 273 -11 217 -4 169 7 C 121 18 82 32 54 49 L 72 110 L 72 490 L 26 480 L -2 617 L 371 694 C 413 682 461 664 515 639 C 569 614 614 589 650 565 L 650 333 L 541 280 L 645 235 L 681 139 L 723 131 Z M 327 281 L 406 314 L 406 501 L 327 523 L 327 281 Z" unicode="R" />
<glyph horiz-adv-x="550" d="M 258 182 L 52 332 L 41 591 L 270 692 C 328 682 378 668 422 650 C 465 632 506 611 544 588 L 445 409 L 323 502 L 323 445 L 510 299 L 521 46 L 301 -25 C 246 -18 189 -7 131 9 C 72 25 25 43 -10 63 L 55 257 L 258 129 L 258 182 Z" unicode="S" />
<glyph horiz-adv-x="539" d="M 381 148 L 459 140 L 406 -17 C 348 -13 289 -6 229 3 C 169 13 121 26 84 42 L 125 164 L 125 444 L -15 469 L 51 664 L 388 646 L 425 690 L 527 679 L 510 403 L 381 426 L 381 148 Z" unicode="T" />
<glyph horiz-adv-x="669" d="M 636 59 L 376 -24 C 312 -17 251 -6 195 8 C 138 22 89 39 47 59 L 47 519 L 1 527 L 51 676 C 104 673 156 666 206 654 C 256 642 299 628 336 612 L 315 536 L 315 253 L 287 165 L 412 134 L 412 520 L 349 529 L 401 679 C 442 675 486 667 533 655 C 580 643 621 628 655 612 L 636 536 L 636 59 Z" unicode="U" />
<glyph horiz-adv-x="659" d="M 311 628 L 344 180 L 388 158 L 447 481 L 346 496 L 418 685 C 460 679 505 667 554 650 C 603 632 640 616 664 601 L 664 505 L 538 44 L 342 -25 C 302 -17 259 -6 214 9 C 168 25 134 40 112 55 L 26 518 L -10 524 L 38 673 C 84 671 134 666 190 657 C 245 648 285 638 311 628 Z" unicode="V" />
<glyph horiz-adv-x="940" d="M 318 525 L 344 180 L 418 144 L 356 519 L 318 525 Z M 432 62 L 342 -25 C 302 -17 259 -6 214 9 C 168 25 134 40 112 55 L 26 518 L -10 524 L 38 673 C 83 671 132 666 186 658 C 240 649 280 639 307 629 L 323 675 C 375 673 428 665 482 652 C 536 639 577 628 603 618 L 650 162 L 672 158 L 729 481 L 627 496 L 699 685 C 741 679 786 667 835 650 C 884 632 921 616 946 601 L 946 505 L 819 44 L 651 -24 C 611 -16 570 -5 529 10 C 487 26 455 41 433 56 L 432 62 Z" unicode="W" />
<glyph horiz-adv-x="646" d="M 272 122 L 228 -14 C 188 -8 150 0 113 10 C 76 20 44 33 16 49 L 16 131 L 154 347 L 33 519 L -2 525 L 46 675 C 92 673 139 666 187 656 C 235 646 273 636 299 626 L 339 545 L 401 686 C 443 679 482 667 519 650 C 555 633 586 617 610 602 L 610 501 L 493 319 L 603 140 L 651 131 L 602 -14 C 543 -10 490 -2 443 9 C 396 20 358 33 328 49 L 247 251 L 211 137 L 272 122 Z M 409 403 L 437 495 L 356 511 L 409 403 Z" unicode="X" />
<glyph horiz-adv-x="635" d="M 282 629 L 338 298 L 382 277 L 424 483 L 322 497 L 394 686 C 436 680 481 669 530 651 C 579 633 616 617 641 602 L 641 506 L 525 169 L 451 142 L 487 24 L 344 -36 C 308 -31 274 -22 240 -10 C 206 1 178 16 156 33 L 201 136 C 180 142 161 150 143 158 C 125 166 110 173 99 181 L 18 519 L -18 525 L 31 675 C 77 673 124 667 172 658 C 220 649 257 639 282 629 Z" unicode="Y" />
<glyph horiz-adv-x="621" d="M 589 49 L 397 -32 C 334 -24 269 -12 201 2 C 133 17 76 36 29 59 L 29 192 L 119 224 L 297 471 L 183 508 L 203 375 L 77 331 C 66 353 57 388 49 436 C 41 483 36 534 35 588 L 241 685 C 269 678 303 668 342 656 C 380 644 414 630 443 616 L 489 685 C 508 676 526 664 543 648 C 560 632 574 616 585 600 L 585 437 L 484 315 L 610 298 L 589 49 Z M 435 144 L 441 262 L 354 157 L 435 144 Z" unicode="Z" />
<glyph horiz-adv-x="408" d="M 339 537 L 252 573 L 252 -28 L 359 -47 L 308 -217 C 258 -207 212 -194 170 -178 C 128 -162 95 -146 73 -130 L 73 616 L 202 746 C 234 740 267 732 301 722 C 334 712 362 701 385 690 L 339 537 Z" unicode="[" />
<glyph horiz-adv-x="400" d="M 6 716 L 156 694 L 353 -94 L 218 -69 L 6 716 Z" unicode="\" />
<glyph horiz-adv-x="408" d="M 69 -5 L 156 -41 L 156 560 L 49 580 L 99 749 C 149 739 195 726 237 710 C 279 694 311 678 334 662 L 334 -84 L 206 -214 C 173 -208 140 -200 107 -190 C 73 -180 45 -169 23 -158 L 69 -5 Z" unicode="]" />
<glyph horiz-adv-x="501" d="M 476 445 L 288 370 L 221 554 L 159 373 L 25 412 L 168 745 C 194 742 220 738 248 732 C 276 726 304 718 333 710 L 476 445 Z" unicode="^" />
<glyph horiz-adv-x="417" d="M 20 26 L 64 158 L 409 136 L 356 -34 C 298 -31 234 -23 163 -10 C 92 3 44 15 20 26 Z" unicode="_" />
<glyph horiz-adv-x="373" d="M 324 577 L 181 541 L 37 672 C 59 696 89 718 127 738 C 164 758 202 772 240 782 L 324 577 Z" unicode="`" />
<glyph horiz-adv-x="553" d="M 201 181 L 201 154 L 267 134 L 267 208 L 201 181 Z M 267 96 L 224 -15 C 186 -10 149 -2 113 9 C 76 21 45 34 20 49 L 20 231 L 266 273 L 266 306 L 56 333 L 134 502 C 206 497 272 488 333 474 C 394 460 452 441 507 417 L 507 140 L 555 131 L 506 -14 C 462 -11 418 -6 375 2 C 331 10 295 20 267 32 L 267 96 Z" unicode="a" />
<glyph horiz-adv-x="627" d="M 289 678 L 289 374 L 354 496 C 394 492 437 482 483 466 C 528 450 564 433 592 417 L 592 59 L 403 -16 C 372 -12 339 -4 303 8 C 267 20 237 33 211 49 L 193 -15 C 167 -11 139 -3 109 7 C 79 17 57 27 41 37 L 41 574 L -6 583 L 44 732 C 90 730 134 724 177 714 C 219 704 257 692 289 678 Z M 359 144 L 359 318 L 289 330 L 289 158 L 359 144 Z" unicode="b" />
<glyph horiz-adv-x="497" d="M 453 29 L 306 -18 C 254 -12 206 -3 162 9 C 118 21 76 38 35 61 L 35 416 L 227 511 C 277 506 325 496 373 480 C 420 464 461 447 495 427 L 445 302 L 362 247 L 278 339 L 278 172 L 493 150 L 453 29 Z" unicode="c" />
<glyph horiz-adv-x="632" d="M 268 330 L 268 158 L 338 144 L 338 318 L 268 330 Z M 338 103 L 273 -20 C 232 -15 190 -5 146 9 C 102 24 65 41 35 59 L 35 417 L 224 492 C 244 489 265 484 286 478 C 307 472 324 466 338 462 L 338 575 L 292 583 L 341 732 C 387 730 431 724 474 714 C 516 704 554 692 586 678 L 586 140 L 634 131 L 585 -14 C 537 -11 491 -6 449 0 C 406 6 369 17 338 32 L 338 103 Z" unicode="d" />
<glyph horiz-adv-x="521" d="M 35 417 L 221 508 C 271 502 319 491 365 475 C 411 459 454 439 492 417 L 492 223 L 272 185 L 272 160 L 504 138 L 469 28 L 320 -18 C 264 -12 212 -3 165 8 C 118 20 75 37 35 59 L 35 417 Z M 271 249 L 337 277 L 337 321 L 271 333 L 271 249 Z" unicode="e" />
<glyph horiz-adv-x="355" d="M 24 635 L 142 753 C 183 749 224 740 266 728 C 308 715 343 702 371 689 L 310 507 L 228 559 L 237 468 L 333 468 L 333 312 L 259 312 L 311 157 L 311 -31 L 225 -205 C 198 -202 166 -196 130 -187 C 93 -178 64 -169 44 -159 L 44 314 L -8 346 L 31 457 L 62 463 L 24 635 Z" unicode="f" />
<glyph horiz-adv-x="574" d="M 14 -125 L 67 34 L 165 84 C 140 91 115 101 91 113 C 67 125 47 137 33 148 L 33 417 L 232 504 C 252 502 277 497 309 489 C 340 481 365 473 383 467 L 416 614 C 444 607 474 597 505 583 C 535 569 560 556 579 545 L 579 466 L 464 432 C 471 428 481 424 493 418 C 505 412 517 406 529 399 L 529 142 L 349 97 L 349 84 L 559 42 L 559 -131 L 297 -224 C 246 -215 196 -203 148 -187 C 100 -171 55 -150 14 -125 Z M 316 189 L 316 331 L 258 344 L 258 202 L 316 189 Z M 323 -96 L 323 -37 L 218 -12 L 218 -56 L 323 -96 Z" unicode="g" />
<glyph horiz-adv-x="657" d="M 611 140 L 659 131 L 610 -14 C 551 -10 499 -2 454 9 C 409 20 372 33 342 49 L 363 120 L 363 315 L 293 328 L 293 138 L 330 131 L 287 -14 C 231 -9 179 -1 133 10 C 86 21 49 34 23 49 L 44 120 L 44 575 L -2 583 L 47 732 C 93 730 137 724 180 714 C 222 704 260 692 293 678 L 293 363 L 357 496 C 403 493 448 485 494 472 C 540 458 579 443 611 427 L 611 140 Z" unicode="h" />
<glyph horiz-adv-x="355" d="M 294 668 L 235 521 L 90 564 L 90 724 C 126 721 163 714 202 703 C 241 692 272 680 294 668 Z M 301 -14 C 239 -10 185 -2 139 9 C 93 21 54 34 24 50 L 45 123 L 45 338 L -2 346 L 47 494 C 95 491 141 485 185 475 C 229 465 268 452 302 438 L 302 145 L 350 136 L 301 -14 Z" unicode="i" />
<glyph horiz-adv-x="328" d="M 292 668 L 233 521 L 88 564 L 88 724 C 123 721 160 714 199 703 C 238 692 269 680 292 668 Z M 215 -205 C 189 -203 155 -197 112 -187 C 69 -176 38 -165 18 -155 L 44 -26 L 44 338 L -2 346 L 47 494 C 93 492 137 486 180 476 C 222 466 260 455 293 441 L 293 -62 L 215 -205 Z" unicode="j" />
<glyph horiz-adv-x="638" d="M 293 678 L 293 281 L 350 340 L 381 496 C 415 494 453 486 497 473 C 540 460 575 445 602 427 L 564 311 L 506 260 L 606 137 L 642 131 L 594 -14 C 556 -12 514 -7 469 1 C 424 9 390 18 367 28 L 353 120 L 293 184 L 293 112 L 331 104 L 292 -14 C 229 -10 176 -2 132 9 C 88 21 51 34 23 49 L 44 120 L 44 575 L -2 583 L 47 732 C 93 730 137 724 180 714 C 222 704 260 692 293 678 Z" unicode="k" />
<glyph horiz-adv-x="338" d="M 293 140 L 340 131 L 292 -14 C 230 -9 176 -1 132 9 C 88 20 51 33 23 49 L 44 120 L 44 575 L -2 583 L 47 732 C 93 730 137 724 180 714 C 222 704 260 692 293 678 L 293 140 Z" unicode="l" />
<glyph horiz-adv-x="937" d="M 588 328 L 588 138 L 625 131 L 582 -14 C 526 -8 476 0 433 9 C 389 19 352 33 322 49 L 344 120 L 344 315 L 284 328 L 284 138 L 321 131 L 278 -14 C 226 -10 177 -2 131 9 C 85 21 49 34 23 49 L 44 120 L 44 338 L -2 346 L 47 494 C 93 492 135 486 175 476 C 215 466 251 455 284 441 L 284 363 L 338 496 C 382 493 427 485 472 472 C 516 458 555 443 588 427 L 588 363 L 643 496 C 688 493 733 485 777 472 C 821 458 859 443 892 427 L 892 140 L 939 131 L 890 -14 C 835 -9 785 -1 740 9 C 695 20 658 33 628 49 L 649 120 L 649 314 L 588 328 Z" unicode="m" />
<glyph horiz-adv-x="657" d="M 293 138 L 330 131 L 287 -14 C 231 -9 179 -1 133 10 C 86 21 49 34 23 49 L 44 120 L 44 338 L -2 346 L 47 494 C 93 492 137 486 180 476 C 222 466 260 455 293 441 L 293 363 L 357 496 C 403 493 448 485 494 472 C 540 458 579 443 611 427 L 611 140 L 659 131 L 610 -14 C 551 -10 499 -2 454 9 C 409 20 372 33 342 49 L 363 120 L 363 315 L 293 328 L 293 138 Z" unicode="n" />
<glyph horiz-adv-x="571" d="M 536 417 L 536 59 L 336 -19 C 277 -15 223 -6 173 7 C 123 21 77 38 35 59 L 35 417 L 243 508 C 296 501 347 490 396 474 C 445 458 492 439 536 417 Z M 324 144 L 324 318 L 254 330 L 254 158 L 324 144 Z" unicode="o" />
<glyph horiz-adv-x="631" d="M 293 328 L 293 156 L 363 141 L 363 315 L 293 328 Z M 347 -71 L 303 -209 C 240 -206 185 -199 139 -188 C 92 -176 53 -163 23 -148 L 44 -77 L 44 338 L -2 346 L 47 494 C 93 492 137 486 180 476 C 222 466 260 455 293 441 L 293 363 L 357 496 C 401 491 444 482 485 470 C 526 457 563 443 596 427 L 596 59 L 407 -15 C 389 -11 368 -5 344 4 C 320 14 302 22 290 29 L 290 -64 L 347 -71 Z" unicode="p" />
<glyph horiz-adv-x="623" d="M 390 437 L 427 550 C 453 543 482 532 513 516 C 543 500 568 485 586 471 L 586 -58 L 634 -64 L 585 -209 C 537 -205 491 -199 449 -191 C 406 -182 369 -171 338 -158 L 338 103 L 273 -20 C 232 -15 190 -5 146 9 C 102 24 65 41 35 59 L 35 417 L 224 492 C 249 487 277 479 309 469 C 340 458 367 447 390 437 Z M 338 144 L 338 318 L 268 330 L 268 158 L 338 144 Z" unicode="q" />
<glyph horiz-adv-x="449" d="M 293 141 L 364 132 L 315 -14 C 253 -11 196 -4 146 7 C 95 19 54 33 23 49 L 44 120 L 44 338 L -2 346 L 47 494 C 78 493 110 488 142 479 C 174 470 203 460 228 450 L 228 365 L 290 513 C 318 504 347 490 378 472 C 409 454 434 435 454 417 L 384 202 L 293 262 L 293 141 Z" unicode="r" />
<glyph horiz-adv-x="466" d="M 459 427 L 405 279 L 310 348 L 310 293 L 434 194 L 434 49 L 278 -19 C 228 -14 180 -6 135 4 C 89 15 47 30 7 49 L 55 188 L 159 134 L 159 176 L 36 266 L 36 417 L 194 504 C 240 499 286 490 332 477 C 378 463 421 447 459 427 Z" unicode="s" />
<glyph horiz-adv-x="394" d="M 384 146 L 332 -15 C 270 -12 215 -5 167 6 C 119 18 78 32 44 49 L 44 314 L -8 346 L 31 457 L 68 464 L 141 671 C 160 667 180 662 200 654 C 220 646 238 639 252 631 L 281 468 L 368 468 L 368 312 L 293 312 L 293 156 L 384 146 Z" unicode="t" />
<glyph horiz-adv-x="657" d="M 294 441 L 294 163 L 364 150 L 364 315 L 311 325 L 373 494 C 413 490 456 481 501 468 C 545 455 582 441 612 427 L 612 140 L 660 131 L 611 -14 C 565 -11 520 -5 477 3 C 433 11 396 23 364 37 L 364 115 L 299 -18 C 253 -15 208 -7 162 6 C 116 19 77 34 45 51 L 45 338 L -1 346 L 49 494 C 95 492 139 486 181 476 C 223 466 261 455 294 441 Z" unicode="u" />
<glyph horiz-adv-x="556" d="M 273 450 L 279 373 L 342 508 C 376 502 413 492 453 477 C 492 461 524 446 549 432 L 549 347 L 457 45 L 284 -24 C 244 -16 205 -5 168 10 C 130 26 100 41 78 56 L 26 339 L -9 346 L 40 494 C 81 493 124 488 169 479 C 213 469 248 460 273 450 Z M 341 133 L 358 324 L 282 338 L 297 155 L 341 133 Z" unicode="v" />
<glyph horiz-adv-x="817" d="M 279 373 L 342 508 C 380 502 417 491 455 476 C 492 461 523 446 548 431 L 553 364 L 624 511 C 655 503 688 492 723 477 C 757 461 786 446 810 431 L 810 346 L 718 45 L 547 -23 C 515 -14 484 -3 454 9 C 423 22 395 37 370 53 L 322 -21 C 280 -15 235 -5 189 9 C 142 23 105 39 78 56 L 26 339 L -9 346 L 40 494 C 81 493 124 488 169 479 C 213 469 248 460 273 450 L 279 373 Z M 602 133 L 619 325 L 554 337 L 566 150 L 602 133 Z M 357 136 L 333 323 L 282 337 L 297 149 L 357 136 Z" unicode="w" />
<glyph horiz-adv-x="550" d="M 293 442 L 337 336 L 367 497 C 397 493 426 486 454 476 C 482 465 507 453 527 441 L 492 306 L 431 267 L 497 140 L 545 131 L 496 -14 C 442 -11 395 -5 354 3 C 312 11 279 21 253 32 L 209 150 L 179 -9 C 148 -5 116 1 84 12 C 52 22 26 35 8 49 L 51 189 L 116 233 L 49 338 L 6 346 L 55 494 C 99 491 143 485 187 475 C 231 465 266 454 293 442 Z" unicode="x" />
<glyph horiz-adv-x="556" d="M 145 -167 L 226 -10 C 204 -4 179 4 152 16 C 125 28 100 41 78 56 L 26 339 L -9 346 L 40 494 C 81 493 124 488 169 479 C 213 469 248 460 273 450 L 279 373 L 342 515 C 376 509 413 499 453 483 C 492 467 524 452 549 437 L 549 347 L 417 -54 L 408 -229 C 358 -226 308 -219 259 -208 C 209 -196 171 -183 145 -167 Z M 341 133 L 358 324 L 282 338 L 297 155 L 341 133 Z" unicode="y" />
<glyph horiz-adv-x="504" d="M 129 214 L 201 304 L 137 313 L 119 240 L 36 259 L 36 417 L 195 513 C 231 505 275 491 326 473 C 376 454 418 435 451 417 L 451 323 L 293 166 L 375 153 L 386 240 L 502 219 L 470 45 L 304 -32 C 256 -24 205 -11 151 6 C 97 23 53 41 19 59 L 19 169 L 129 214 Z" unicode="z" />
<glyph horiz-adv-x="466" d="M 106 -124 L 131 52 L 183 164 L 23 197 L 93 353 L 201 324 L 136 420 L 98 610 L 260 746 C 292 740 324 732 358 722 C 392 712 420 701 443 690 L 397 537 L 268 590 L 337 427 L 290 304 L 355 289 L 310 148 L 295 -26 L 417 -47 L 366 -217 C 316 -207 267 -194 218 -176 C 169 -158 132 -140 106 -124 Z" unicode="{" />
<glyph horiz-adv-x="393" d="M 269 716 L 269 -244 C 247 -242 222 -238 195 -232 C 168 -225 144 -217 124 -209 L 124 751 C 146 749 170 745 197 739 C 224 732 248 724 269 716 Z" unicode="|" />
<glyph horiz-adv-x="466" d="M 359 655 L 334 479 L 282 367 L 443 334 L 373 179 L 264 207 L 330 111 L 367 -79 L 206 -215 C 173 -209 140 -201 107 -191 C 73 -181 45 -170 23 -159 L 69 -6 L 198 -59 L 129 104 L 175 227 L 111 242 L 156 383 L 171 557 L 49 579 L 99 748 C 149 738 198 725 247 707 C 295 689 333 671 359 655 Z" unicode="}" />
<glyph horiz-adv-x="628" d="M 40 163 L 180 371 L 360 292 L 428 445 C 460 432 491 412 523 384 C 554 356 576 330 589 305 L 424 85 L 215 155 L 171 64 C 146 71 121 84 96 104 C 70 123 52 143 40 163 Z" unicode="~" />
<glyph horiz-adv-x="203" d="" unicode=" " />
<glyph horiz-adv-x="374" d="M 279 282 L 54 351 L 116 537 C 158 533 196 525 232 514 C 268 503 300 489 329 472 L 279 282 Z M 321 -243 L 31 -181 L 105 275 L 296 219 L 321 -243 Z" unicode="¡" />
<glyph horiz-adv-x="507" d="M 453 29 L 321 -14 L 328 -192 C 299 -190 271 -186 244 -180 C 216 -174 195 -168 179 -162 L 194 1 C 166 7 138 15 112 25 C 86 35 60 47 35 61 L 35 416 L 197 495 L 190 676 C 218 673 246 669 273 663 C 300 657 322 651 339 645 L 324 494 C 356 486 387 476 417 464 C 446 452 472 439 495 427 L 445 302 L 362 247 L 278 339 L 278 172 L 493 150 L 453 29 Z" unicode="¢" />
<glyph horiz-adv-x="563" d="M 52 375 L 82 372 L 59 534 L 253 655 C 297 649 340 640 384 627 C 427 613 469 596 510 576 L 403 403 L 284 488 L 309 353 L 434 342 L 388 206 C 375 206 362 207 348 208 C 334 209 320 210 306 212 L 279 154 L 405 140 L 432 231 L 571 175 L 457 -33 C 389 -28 310 -16 220 1 C 130 19 63 39 19 60 L 56 176 L 111 171 L 100 248 C 84 251 69 255 56 259 C 42 263 31 268 21 272 L 52 375 Z" unicode="£" />
<glyph horiz-adv-x="539" d="M -6 206 L 31 319 L 70 315 L 70 417 L 262 516 C 312 509 361 496 410 478 C 458 460 497 441 525 423 L 446 296 L 305 362 L 305 294 L 443 281 L 400 155 C 384 155 368 155 352 156 C 336 157 320 158 305 159 L 305 129 L 514 108 L 485 17 L 339 -27 C 284 -19 235 -7 191 6 C 147 20 107 38 70 59 L 70 187 C 53 189 38 192 26 196 C 13 200 2 203 -6 206 Z" unicode="¤" />
<glyph horiz-adv-x="597" d="M 282 544 L 266 472 L 292 321 L 336 312 L 353 418 L 299 428 L 362 597 C 402 593 445 584 489 571 C 533 558 571 544 601 530 L 510 282 L 412 225 L 527 223 L 479 64 C 467 64 455 64 444 65 C 433 66 421 67 409 68 L 415 9 L 330 -38 C 297 -34 264 -27 231 -17 C 197 -6 172 4 154 14 L 168 95 C 145 99 122 104 99 110 C 76 115 58 120 46 125 L 79 233 L 153 231 C 136 238 120 247 104 257 C 88 267 77 277 71 285 L 34 441 L -12 449 L 37 597 C 83 595 127 589 170 579 C 212 569 250 558 282 544 Z" unicode="¥" />
<glyph horiz-adv-x="393" d="M 269 716 L 269 304 C 247 305 222 309 195 316 C 168 322 144 330 124 339 L 124 751 C 146 749 170 745 197 739 C 224 732 248 724 269 716 Z M 269 -244 C 247 -242 222 -238 195 -232 C 168 -225 144 -217 124 -209 L 124 203 C 146 201 170 197 197 191 C 224 184 248 176 269 168 L 269 -244 Z" unicode="¦" />
<glyph horiz-adv-x="547" d="M 339 212 L 191 325 L 183 280 L 331 168 L 339 212 Z M 298 -195 C 260 -190 214 -179 162 -161 C 109 -143 67 -125 37 -105 L 113 34 L 249 -52 L 254 -21 L 19 165 L 68 333 L 129 374 L 62 425 L 111 590 L 261 667 C 297 659 331 650 365 638 C 399 626 434 611 472 592 L 426 452 L 286 530 L 280 499 L 521 320 L 470 151 L 418 105 L 478 56 L 428 -111 L 298 -195 Z" unicode="§" />
<glyph horiz-adv-x="511" d="M 471 687 L 417 522 L 280 563 L 280 742 C 316 740 352 733 387 722 C 422 711 450 699 471 687 Z M 190 538 L 62 575 L 62 739 C 98 736 132 730 164 722 C 195 713 221 702 242 689 L 190 538 Z" unicode="¨" />
<glyph horiz-adv-x="1041" d="M 108 -85 L 62 232 L 110 551 L 373 641 L 394 547 L 234 507 L 199 237 L 237 -33 C 261 -39 287 -45 315 -51 C 343 -57 369 -62 393 -66 L 346 -153 C 300 -143 257 -133 217 -121 C 177 -109 141 -97 108 -85 Z M 669 -154 L 646 -60 L 807 -20 L 842 250 L 803 520 C 779 526 753 532 725 538 C 697 544 671 549 647 553 L 695 640 C 740 630 783 620 823 608 C 863 596 899 584 932 572 L 979 255 L 931 -64 L 669 -154 Z M 699 37 L 563 -7 C 513 0 468 8 428 20 C 387 31 348 47 310 68 L 310 399 L 489 487 C 535 482 581 472 625 458 C 669 443 707 426 739 408 L 692 292 L 615 241 L 537 325 L 537 171 L 737 151 L 699 37 Z" unicode="©" />
<glyph horiz-adv-x="476" d="M 183 400 L 183 379 L 233 363 L 233 420 L 183 400 Z M 233 330 L 190 241 C 160 245 131 253 103 264 C 75 275 51 287 32 299 L 32 435 L 232 470 L 232 490 L 63 518 L 124 654 C 186 649 243 640 296 627 C 349 614 396 598 436 580 L 436 371 L 476 358 L 435 243 C 396 245 358 250 321 258 C 283 265 254 273 233 282 L 233 330 Z M 403 38 C 337 41 266 49 190 62 C 114 75 65 86 44 96 L 79 202 L 451 193 L 403 38 Z" unicode="ª" />
<glyph horiz-adv-x="703" d="M 345 191 L 388 310 L 507 499 L 628 417 L 502 252 L 635 103 L 516 -11 L 345 191 Z M 68 191 L 111 310 L 231 499 L 351 417 L 225 252 L 358 103 L 240 -11 L 68 191 Z" unicode="«" />
<glyph horiz-adv-x="713" d="M 304 14 L 320 129 C 254 136 193 146 139 158 C 85 170 45 181 19 192 L 59 320 C 130 313 195 308 254 305 C 312 301 387 298 477 296 L 477 295 L 465 23 L 304 14 Z" unicode="¬" />
<glyph horiz-adv-x="402" d="M 32 164 L 81 338 L 366 310 L 303 93 C 252 97 202 106 153 118 C 103 130 63 146 32 164 Z" unicode="­" />
<glyph horiz-adv-x="783" d="M 85 215 L 51 450 L 86 688 L 282 754 L 297 684 L 179 655 L 153 454 L 181 254 C 199 249 218 244 239 240 C 259 235 278 231 296 228 L 261 164 C 227 171 195 179 166 187 C 137 195 110 205 85 215 Z M 502 164 L 485 233 L 605 262 L 629 463 L 601 663 C 583 667 564 672 543 677 C 522 681 503 685 486 688 L 521 753 C 555 746 586 738 616 730 C 645 721 672 712 697 702 L 732 468 L 697 229 L 502 164 Z M 527 294 C 504 295 482 298 462 302 C 442 306 426 310 414 315 L 407 368 L 376 397 L 376 299 C 351 301 328 305 308 310 C 288 315 271 321 259 327 L 259 534 L 235 530 L 224 599 L 385 623 C 409 617 434 609 458 600 C 482 590 503 581 520 571 L 520 469 L 475 447 L 513 429 L 553 362 L 527 294 Z M 376 445 L 408 458 L 408 530 L 376 540 L 376 445 Z" unicode="®" />
<glyph horiz-adv-x="414" d="M 53 591 L 75 716 L 375 702 L 350 538 C 297 540 239 547 177 559 C 115 571 73 581 53 591 Z" unicode="¯" />
<glyph horiz-adv-x="400" d="M 275 309 C 232 313 190 319 148 329 C 106 338 69 350 38 365 L 38 597 L 185 661 C 221 654 255 645 288 635 C 321 625 354 612 388 597 L 388 398 L 275 309 Z M 255 425 L 255 524 L 205 533 L 205 437 L 255 425 Z" unicode="°" />
<glyph horiz-adv-x="534" d="M 12 295 L 55 425 L 169 419 L 169 592 L 374 562 L 346 411 L 507 405 L 453 234 L 340 244 L 340 88 L 142 115 L 168 259 C 140 263 111 269 82 276 C 52 282 29 289 12 295 Z M 21 -41 L 59 70 C 130 63 195 58 254 55 C 312 51 387 48 477 46 L 425 -112 C 339 -107 259 -97 183 -83 C 107 -68 53 -54 21 -41 Z" unicode="±" />
<glyph horiz-adv-x="441" d="M 189 423 L 202 513 L 150 524 L 158 437 L 42 452 L 37 573 L 175 652 C 214 646 253 636 292 623 C 331 610 369 594 407 574 L 381 424 L 273 370 L 416 354 L 389 268 L 277 215 C 233 220 187 231 137 247 C 87 263 50 278 26 293 L 54 373 L 189 423 Z" unicode="²" />
<glyph horiz-adv-x="435" d="M 372 408 L 280 364 L 390 324 L 405 159 L 242 75 C 206 79 164 90 116 107 C 68 123 29 140 1 158 L 44 276 L 186 205 L 186 242 L 77 306 L 99 379 L 186 414 L 200 513 L 148 524 L 155 436 L 37 451 L 32 574 L 172 652 C 212 645 251 635 289 623 C 327 611 365 595 402 575 L 372 408 Z" unicode="³" />
<glyph horiz-adv-x="339" d="M 149 532 L 40 566 L 86 763 C 130 757 172 742 212 718 C 251 694 280 671 299 649 L 149 532 Z" unicode="´" />
<glyph horiz-adv-x="533" d="M 247 -17 C 229 -14 209 -9 189 -2 C 168 5 148 13 130 23 L 140 -207 L 80 -194 L 83 54 L 83 458 C 91 457 100 456 109 455 C 117 454 126 453 135 451 L 135 74 C 151 66 170 58 193 50 C 215 42 236 36 255 33 L 370 114 L 370 458 C 378 457 387 456 396 455 C 404 454 413 453 422 451 L 422 45 L 512 34 L 498 -9 C 470 -6 446 -3 425 1 C 403 5 385 11 370 19 L 370 82 L 247 -17 Z" unicode="µ" />
<glyph horiz-adv-x="753" d="M 50 412 L 158 511 C 195 507 234 500 274 488 C 314 476 349 463 379 449 L 379 -175 L 289 -200 L 289 205 L 221 73 C 189 77 156 86 124 100 C 92 113 67 126 50 140 L 50 412 Z M 444 -183 L 444 510 C 483 506 521 499 559 488 C 596 477 625 466 645 455 C 645 454 637 427 621 374 C 605 320 598 294 598 294 L 598 -145 L 444 -183 Z" unicode="¶" />
<glyph horiz-adv-x="412" d="M 119 368 L 344 299 L 281 114 C 239 118 201 125 165 136 C 129 147 97 161 69 179 L 119 368 Z" unicode="·" />
<glyph horiz-adv-x="366" d="M 73 -131 L 144 69 L 277 26 L 284 -188 C 242 -185 202 -178 164 -167 C 126 -155 95 -143 73 -131 Z" unicode="¸" />
<glyph horiz-adv-x="363" d="M 20 273 L 51 366 L 93 360 L 93 450 L 20 460 L 53 576 L 208 660 C 225 654 244 646 264 636 C 284 625 300 616 311 608 L 311 348 L 350 344 L 310 219 C 244 222 186 229 136 239 C 86 249 48 261 20 273 Z" unicode="¹" />
<glyph horiz-adv-x="473" d="M 440 588 L 440 301 L 278 238 C 230 240 186 247 146 259 C 106 271 69 285 35 301 L 35 588 L 202 661 C 246 655 287 645 327 633 C 366 621 404 606 440 588 Z M 266 371 L 266 508 L 215 518 L 215 382 L 266 371 Z M 398 38 C 331 41 260 49 184 62 C 108 75 59 86 38 96 L 73 202 L 445 193 L 398 38 Z" unicode="º" />
<glyph horiz-adv-x="703" d="M 347 296 L 304 177 L 184 -12 L 63 70 L 190 235 L 56 384 L 175 498 L 347 296 Z M 624 296 L 581 177 L 461 -12 L 340 70 L 467 235 L 333 384 L 452 498 L 624 296 Z" unicode="»" />
<glyph horiz-adv-x="981" d="M 644 690 L 419 -95 L 303 -66 L 503 714 L 644 690 Z M 930 -153 C 890 -150 848 -143 806 -133 C 764 -122 730 -110 705 -97 L 738 -6 C 700 0 662 6 625 13 C 587 19 557 26 533 33 L 554 151 L 681 418 C 717 414 761 405 811 389 C 861 373 901 357 930 341 L 930 106 L 965 99 L 930 -25 L 930 -153 Z M 310 219 C 244 222 186 229 136 239 C 86 249 48 261 20 273 L 51 366 L 93 360 L 93 450 L 20 460 L 53 576 L 208 660 C 225 654 244 646 264 636 C 284 625 300 616 311 608 L 311 348 L 350 344 L 310 219 Z M 747 122 L 747 259 L 672 133 L 747 122 Z" unicode="¼" />
<glyph horiz-adv-x="996" d="M 644 690 L 419 -95 L 303 -66 L 503 714 L 644 690 Z M 832 -23 C 788 -17 742 -6 692 10 C 642 26 605 41 581 55 L 609 136 L 744 185 L 757 276 L 705 287 L 713 200 L 597 215 L 592 336 L 730 415 C 769 408 808 398 847 385 C 886 372 924 356 962 337 L 936 186 L 828 132 L 971 116 L 944 31 L 832 -23 Z M 310 219 C 244 222 186 229 136 239 C 86 249 48 261 20 273 L 51 366 L 93 360 L 93 450 L 20 460 L 53 576 L 208 660 C 225 654 244 646 264 636 C 284 625 300 616 311 608 L 311 348 L 350 344 L 310 219 Z" unicode="½" />
<glyph horiz-adv-x="1070" d="M 733 690 L 508 -95 L 392 -66 L 592 714 L 733 690 Z M 1019 -153 C 979 -150 937 -143 895 -133 C 853 -122 819 -110 794 -97 L 827 -6 C 789 0 751 6 714 13 C 676 19 646 26 623 33 L 643 151 L 771 418 C 807 414 850 405 901 389 C 951 373 991 357 1019 341 L 1019 106 L 1054 99 L 1019 -25 L 1019 -153 Z M 242 75 C 206 79 164 90 116 107 C 68 123 29 140 1 158 L 44 276 L 186 205 L 186 242 L 77 306 L 99 379 L 186 414 L 200 513 L 148 524 L 155 436 L 37 451 L 32 574 L 172 652 C 212 645 251 635 289 623 C 327 611 365 595 402 575 L 372 408 L 280 364 L 390 324 L 405 159 L 242 75 Z M 836 122 L 836 259 L 762 133 L 836 122 Z" unicode="¾" />
<glyph horiz-adv-x="497" d="M 393 282 L 168 351 L 231 537 C 272 533 310 525 346 514 C 382 503 414 489 443 472 L 393 282 Z M 345 -240 C 291 -219 238 -191 186 -157 C 133 -122 90 -87 56 -51 L 41 141 L 206 202 L 240 277 L 414 224 L 414 134 L 286 97 L 289 67 L 480 -18 L 345 -240 Z" unicode="¿" />
<glyph horiz-adv-x="683" d="M 441 773 L 297 737 L 154 843 C 176 866 206 888 243 909 C 280 929 318 944 356 953 L 441 773 Z M 646 -14 C 584 -10 529 -2 482 9 C 435 20 396 33 365 49 L 384 110 L 381 157 L 266 169 L 260 120 L 308 112 L 268 -14 C 214 -10 164 -2 120 9 C 76 21 41 34 15 49 L 128 582 L 308 683 C 358 675 409 660 462 638 C 514 616 557 596 589 576 L 649 140 L 694 131 L 646 -14 Z M 372 277 L 356 478 L 298 493 L 279 307 L 372 277 Z" unicode="À" />
<glyph horiz-adv-x="683" d="M 382 739 L 264 773 L 306 951 C 355 945 400 931 442 909 C 484 887 515 863 537 837 L 382 739 Z M 646 -14 C 584 -10 529 -2 482 9 C 435 20 396 33 365 49 L 384 110 L 381 157 L 266 169 L 260 120 L 308 112 L 268 -14 C 214 -10 164 -2 120 9 C 76 21 41 34 15 49 L 128 582 L 308 683 C 358 675 409 660 462 638 C 514 616 557 596 589 576 L 649 140 L 694 131 L 646 -14 Z M 372 277 L 356 478 L 298 493 L 279 307 L 372 277 Z" unicode="Á" />
<glyph horiz-adv-x="683" d="M 525 873 L 471 721 L 316 807 L 296 739 L 184 772 L 250 958 C 298 954 351 943 408 925 C 465 907 504 889 525 873 Z M 646 -14 C 584 -10 529 -2 482 9 C 435 20 396 33 365 49 L 384 110 L 381 157 L 266 169 L 260 120 L 308 112 L 268 -14 C 214 -10 164 -2 120 9 C 76 21 41 34 15 49 L 128 582 L 308 683 C 358 675 409 660 462 638 C 514 616 557 596 589 576 L 649 140 L 694 131 L 646 -14 Z M 372 277 L 356 478 L 298 493 L 279 307 L 372 277 Z" unicode="Â" />
<glyph horiz-adv-x="683" d="M 154 798 L 240 930 L 375 905 L 412 984 C 440 974 469 956 497 930 C 525 904 545 880 557 858 L 446 731 L 284 763 L 263 716 C 243 722 222 733 200 749 C 178 764 163 780 154 798 Z M 646 -14 C 584 -10 529 -2 482 9 C 435 20 396 33 365 49 L 384 110 L 381 157 L 266 169 L 260 120 L 308 112 L 268 -14 C 214 -10 164 -2 120 9 C 76 21 41 34 15 49 L 128 582 L 308 683 C 358 675 409 660 462 638 C 514 616 557 596 589 576 L 649 140 L 694 131 L 646 -14 Z M 372 277 L 356 478 L 298 493 L 279 307 L 372 277 Z" unicode="Ã" />
<glyph horiz-adv-x="683" d="M 583 870 L 527 723 L 379 766 L 379 932 C 421 929 460 922 497 910 C 533 898 562 884 583 870 Z M 289 740 L 151 779 L 151 929 C 183 928 218 923 256 913 C 294 903 323 891 344 877 L 289 740 Z M 646 -14 C 584 -10 529 -2 482 9 C 435 20 396 33 365 49 L 384 110 L 381 157 L 266 169 L 260 120 L 308 112 L 268 -14 C 214 -10 164 -2 120 9 C 76 21 41 34 15 49 L 128 582 L 308 683 C 358 675 409 660 462 638 C 514 616 557 596 589 576 L 649 140 L 694 131 L 646 -14 Z M 372 277 L 356 478 L 298 493 L 279 307 L 372 277 Z" unicode="Ä" />
<glyph horiz-adv-x="683" d="M 496 937 L 496 810 L 409 734 C 375 735 340 740 304 748 C 268 756 238 767 214 780 L 214 939 L 333 994 C 362 989 391 981 419 971 C 447 961 473 949 496 937 Z M 374 814 L 374 901 L 337 907 L 337 820 L 374 814 Z M 646 -14 C 584 -10 529 -2 482 9 C 435 20 396 33 365 49 L 384 110 L 381 157 L 266 169 L 260 120 L 308 112 L 268 -14 C 214 -10 164 -2 120 9 C 76 21 41 34 15 49 L 128 582 L 308 683 C 358 675 409 660 462 638 C 514 616 557 596 589 576 L 649 140 L 694 131 L 646 -14 Z M 372 277 L 356 478 L 298 493 L 279 307 L 372 277 Z" unicode="Å" />
<glyph horiz-adv-x="907" d="M 298 493 L 279 307 L 373 277 L 376 320 L 356 478 L 298 493 Z M 861 28 L 672 -31 C 610 -22 550 -10 490 6 C 430 22 383 38 349 56 L 364 159 L 266 169 L 260 120 L 308 112 L 268 -14 C 214 -10 164 -2 120 9 C 76 21 41 34 15 49 L 128 582 L 308 683 C 333 679 359 673 386 665 C 413 657 439 647 464 637 L 575 683 C 601 679 629 674 657 667 C 685 659 712 651 738 642 L 773 684 L 873 672 L 858 372 L 681 400 L 688 490 L 607 522 L 624 357 L 838 329 L 791 188 C 763 193 733 201 699 211 C 665 221 638 231 618 242 L 601 167 L 899 128 L 861 28 Z" unicode="Æ" />
<glyph horiz-adv-x="607" d="M 206 -131 L 247 -12 C 205 -2 165 10 128 24 C 90 38 60 52 37 66 L 37 588 L 257 683 C 286 679 316 672 347 664 C 377 656 407 646 436 635 L 477 684 L 577 672 L 558 304 L 382 332 L 391 461 L 311 498 L 311 182 L 591 142 L 547 28 L 410 -14 L 416 -188 C 374 -185 334 -178 296 -167 C 258 -155 228 -143 206 -131 Z" unicode="Ç" />
<glyph horiz-adv-x="589" d="M 399 773 L 255 737 L 112 843 C 134 866 164 888 201 909 C 238 929 276 944 314 953 L 399 773 Z M 542 28 L 354 -31 C 292 -23 230 -10 166 8 C 102 27 53 46 19 66 L 54 306 L 26 588 L 257 683 C 283 679 310 674 338 667 C 366 659 393 651 419 641 L 454 684 L 555 672 L 539 372 L 363 400 L 370 490 L 288 522 L 305 357 L 520 329 L 472 188 C 444 193 414 201 380 211 C 346 221 319 231 299 242 L 282 167 L 581 128 L 542 28 Z" unicode="È" />
<glyph horiz-adv-x="589" d="M 349 739 L 232 773 L 273 951 C 322 945 367 931 409 909 C 451 887 482 863 504 837 L 349 739 Z M 542 28 L 354 -31 C 292 -23 230 -10 166 8 C 102 27 53 46 19 66 L 54 306 L 26 588 L 257 683 C 283 679 310 674 338 667 C 366 659 393 651 419 641 L 454 684 L 555 672 L 539 372 L 363 400 L 370 490 L 288 522 L 305 357 L 520 329 L 472 188 C 444 193 414 201 380 211 C 346 221 319 231 299 242 L 282 167 L 581 128 L 542 28 Z" unicode="É" />
<glyph horiz-adv-x="589" d="M 489 873 L 435 721 L 280 807 L 260 739 L 148 772 L 214 958 C 262 954 315 943 372 925 C 428 907 467 889 489 873 Z M 542 28 L 354 -31 C 292 -23 230 -10 166 8 C 102 27 53 46 19 66 L 54 306 L 26 588 L 257 683 C 283 679 310 674 338 667 C 366 659 393 651 419 641 L 454 684 L 555 672 L 539 372 L 363 400 L 370 490 L 288 522 L 305 357 L 520 329 L 472 188 C 444 193 414 201 380 211 C 346 221 319 231 299 242 L 282 167 L 581 128 L 542 28 Z" unicode="Ê" />
<glyph horiz-adv-x="589" d="M 532 870 L 476 723 L 328 766 L 328 932 C 370 929 410 922 446 910 C 482 898 511 884 532 870 Z M 238 740 L 101 779 L 101 929 C 132 928 167 923 205 913 C 243 903 272 891 293 877 L 238 740 Z M 542 28 L 354 -31 C 292 -23 230 -10 166 8 C 102 27 53 46 19 66 L 54 306 L 26 588 L 257 683 C 283 679 310 674 338 667 C 366 659 393 651 419 641 L 454 684 L 555 672 L 539 372 L 363 400 L 370 490 L 288 522 L 305 357 L 520 329 L 472 188 C 444 193 414 201 380 211 C 346 221 319 231 299 242 L 282 167 L 581 128 L 542 28 Z" unicode="Ë" />
<glyph horiz-adv-x="412" d="M 299 773 L 155 737 L 12 843 C 34 866 64 888 101 909 C 138 929 176 944 214 953 L 299 773 Z M 351 -17 C 291 -13 229 -5 163 7 C 97 19 45 33 7 49 L 50 172 L 82 165 L 82 519 L 18 527 L 57 676 C 116 672 179 664 246 652 C 312 639 365 625 403 610 L 364 487 L 337 494 L 337 140 L 400 132 L 351 -17 Z" unicode="Ì" />
<glyph horiz-adv-x="412" d="M 229 739 L 111 773 L 153 951 C 201 945 246 931 288 909 C 330 887 361 863 383 837 L 229 739 Z M 351 -17 C 291 -13 229 -5 163 7 C 97 19 45 33 7 49 L 50 172 L 82 165 L 82 519 L 18 527 L 57 676 C 116 672 179 664 246 652 C 312 639 365 625 403 610 L 364 487 L 337 494 L 337 140 L 400 132 L 351 -17 Z" unicode="Í" />
<glyph horiz-adv-x="412" d="M 386 873 L 331 721 L 177 807 L 156 739 L 44 772 L 110 958 C 158 954 211 943 268 925 C 325 907 364 889 386 873 Z M 351 -17 C 291 -13 229 -5 163 7 C 97 19 45 33 7 49 L 50 172 L 82 165 L 82 519 L 18 527 L 57 676 C 116 672 179 664 246 652 C 312 639 365 625 403 610 L 364 487 L 337 494 L 337 140 L 400 132 L 351 -17 Z" unicode="Î" />
<glyph horiz-adv-x="412" d="M 429 870 L 372 723 L 224 766 L 224 932 C 266 929 306 922 343 910 C 379 898 408 884 429 870 Z M 146 740 L 8 779 L 8 929 C 40 928 74 923 112 913 C 150 903 179 891 200 877 L 146 740 Z M 351 -17 C 291 -13 229 -5 163 7 C 97 19 45 33 7 49 L 50 172 L 82 165 L 82 519 L 18 527 L 57 676 C 116 672 179 664 246 652 C 312 639 365 625 403 610 L 364 487 L 337 494 L 337 140 L 400 132 L 351 -17 Z" unicode="Ï" />
<glyph horiz-adv-x="684" d="M 58 120 L 58 272 C 44 275 32 278 20 282 C 8 286 -1 290 -11 294 L 25 397 L 58 393 L 58 528 L -17 539 L 70 713 C 161 704 256 688 354 665 C 452 642 537 616 607 588 L 663 314 L 596 70 L 377 -21 C 312 -16 251 -7 194 4 C 137 16 84 31 36 49 L 58 120 Z M 379 147 L 407 302 L 366 488 L 304 501 L 304 372 L 376 365 L 330 228 C 325 228 321 228 317 229 C 313 229 308 230 304 231 L 304 160 L 379 147 Z" unicode="Ð" />
<glyph horiz-adv-x="708" d="M 162 798 L 247 930 L 383 905 L 420 984 C 448 974 477 956 505 930 C 533 904 553 880 565 858 L 454 731 L 292 763 L 271 716 C 251 722 230 733 208 749 C 186 764 171 780 162 798 Z M 577 -24 C 545 -19 514 -10 483 3 C 452 17 427 30 409 43 L 435 103 L 244 311 L 244 148 L 345 131 L 296 -14 C 234 -9 181 -1 137 9 C 93 20 56 33 27 49 L 49 120 L 49 513 L 2 521 L 52 670 C 98 668 140 662 179 652 C 217 642 253 630 286 616 L 464 391 L 464 511 L 386 524 L 429 670 C 479 668 527 661 573 649 C 619 637 657 624 686 608 L 667 540 L 667 146 L 693 49 L 577 -24 Z" unicode="Ñ" />
<glyph horiz-adv-x="666" d="M 429 773 L 286 737 L 142 843 C 165 866 195 888 232 909 C 269 929 307 944 345 953 L 429 773 Z M 366 -24 C 302 -17 241 -6 185 8 C 129 22 80 39 38 59 L 38 584 L 285 690 C 343 681 403 666 467 646 C 531 626 584 605 628 584 L 628 59 L 366 -24 Z M 383 144 L 383 480 L 303 497 L 303 257 L 275 169 L 383 144 Z" unicode="Ò" />
<glyph horiz-adv-x="666" d="M 386 739 L 269 773 L 311 951 C 359 945 404 931 446 909 C 488 887 519 863 541 837 L 386 739 Z M 366 -24 C 302 -17 241 -6 185 8 C 129 22 80 39 38 59 L 38 584 L 285 690 C 343 681 403 666 467 646 C 531 626 584 605 628 584 L 628 59 L 366 -24 Z M 383 144 L 383 480 L 303 497 L 303 257 L 275 169 L 383 144 Z" unicode="Ó" />
<glyph horiz-adv-x="666" d="M 518 873 L 463 721 L 308 807 L 288 739 L 176 772 L 242 958 C 290 954 343 943 400 925 C 457 907 496 889 518 873 Z M 366 -24 C 302 -17 241 -6 185 8 C 129 22 80 39 38 59 L 38 584 L 285 690 C 343 681 403 666 467 646 C 531 626 584 605 628 584 L 628 59 L 366 -24 Z M 383 144 L 383 480 L 303 497 L 303 257 L 275 169 L 383 144 Z" unicode="Ô" />
<glyph horiz-adv-x="666" d="M 151 807 L 237 939 L 373 914 L 410 993 C 438 983 467 965 495 939 C 523 913 543 889 555 867 L 444 740 L 281 772 L 261 725 C 240 731 219 742 198 758 C 176 773 161 789 151 807 Z M 366 -24 C 302 -17 241 -6 185 8 C 129 22 80 39 38 59 L 38 584 L 285 690 C 343 681 403 666 467 646 C 531 626 584 605 628 584 L 628 59 L 366 -24 Z M 383 144 L 383 480 L 303 497 L 303 257 L 275 169 L 383 144 Z" unicode="Õ" />
<glyph horiz-adv-x="666" d="M 570 870 L 513 723 L 365 766 L 365 932 C 407 929 447 922 484 910 C 520 898 549 884 570 870 Z M 276 740 L 138 779 L 138 929 C 169 928 204 923 242 913 C 280 903 309 891 330 877 L 276 740 Z M 366 -24 C 302 -17 241 -6 185 8 C 129 22 80 39 38 59 L 38 584 L 285 690 C 343 681 403 666 467 646 C 531 626 584 605 628 584 L 628 59 L 366 -24 Z M 383 144 L 383 480 L 303 497 L 303 257 L 275 169 L 383 144 Z" unicode="Ö" />
<glyph horiz-adv-x="519" d="M 342 1 C 326 16 310 32 294 49 C 278 65 262 82 248 99 L 141 4 L 20 164 L 128 241 C 103 273 82 301 65 327 C 48 353 36 372 30 386 L 142 458 C 158 439 176 419 194 399 C 212 378 232 357 253 336 L 258 340 L 381 458 L 504 288 L 387 202 C 405 184 424 166 443 148 C 462 130 481 112 500 95 L 342 1 Z" unicode="×" />
<glyph horiz-adv-x="666" d="M 383 144 L 383 480 L 303 497 L 303 257 L 275 169 L 383 144 Z M 289 -14 L 254 -151 L 114 -114 L 162 15 C 138 21 116 27 96 35 C 76 42 56 50 38 59 L 38 584 L 285 690 C 296 688 308 686 321 684 C 333 682 346 679 359 677 L 397 820 L 537 783 L 485 642 C 511 633 537 623 562 613 C 586 603 608 593 628 584 L 628 59 L 366 -24 L 289 -14 Z" unicode="Ø" />
<glyph horiz-adv-x="669" d="M 452 772 L 308 736 L 165 842 C 187 865 217 887 255 908 C 292 928 329 943 367 951 L 452 772 Z M 376 -24 C 312 -17 251 -6 195 8 C 138 22 89 39 47 59 L 47 519 L 1 527 L 51 676 C 104 673 156 666 206 654 C 256 642 299 628 336 612 L 315 536 L 315 253 L 287 165 L 412 134 L 412 520 L 349 529 L 401 679 C 442 675 486 667 533 655 C 580 643 621 628 655 612 L 636 536 L 636 59 L 376 -24 Z" unicode="Ù" />
<glyph horiz-adv-x="669" d="M 402 739 L 285 773 L 327 951 C 375 945 420 931 462 909 C 504 887 535 863 557 837 L 402 739 Z M 376 -24 C 312 -17 251 -6 195 8 C 138 22 89 39 47 59 L 47 519 L 1 527 L 51 676 C 104 673 156 666 206 654 C 256 642 299 628 336 612 L 315 536 L 315 253 L 287 165 L 412 134 L 412 520 L 349 529 L 401 679 C 442 675 486 667 533 655 C 580 643 621 628 655 612 L 636 536 L 636 59 L 376 -24 Z" unicode="Ú" />
<glyph horiz-adv-x="669" d="M 540 873 L 486 721 L 331 807 L 311 739 L 199 772 L 264 958 C 313 954 366 943 423 925 C 479 907 518 889 540 873 Z M 376 -24 C 312 -17 251 -6 195 8 C 138 22 89 39 47 59 L 47 519 L 1 527 L 51 676 C 104 673 156 666 206 654 C 256 642 299 628 336 612 L 315 536 L 315 253 L 287 165 L 412 134 L 412 520 L 349 529 L 401 679 C 442 675 486 667 533 655 C 580 643 621 628 655 612 L 636 536 L 636 59 L 376 -24 Z" unicode="Û" />
<glyph horiz-adv-x="669" d="M 594 870 L 538 723 L 390 766 L 390 932 C 432 929 472 922 508 910 C 544 898 573 884 594 870 Z M 301 740 L 163 779 L 163 929 C 194 928 229 923 267 913 C 305 903 334 891 355 877 L 301 740 Z M 376 -24 C 312 -17 251 -6 195 8 C 138 22 89 39 47 59 L 47 519 L 1 527 L 51 676 C 104 673 156 666 206 654 C 256 642 299 628 336 612 L 315 536 L 315 253 L 287 165 L 412 134 L 412 520 L 349 529 L 401 679 C 442 675 486 667 533 655 C 580 643 621 628 655 612 L 636 536 L 636 59 L 376 -24 Z" unicode="Ü" />
<glyph horiz-adv-x="635" d="M 364 739 L 246 773 L 288 951 C 336 945 382 931 424 909 C 466 887 497 863 519 837 L 364 739 Z M 344 -36 C 308 -31 274 -22 240 -10 C 206 1 178 16 156 33 L 201 136 C 180 142 161 150 143 158 C 125 166 110 173 99 181 L 18 519 L -18 525 L 31 675 C 77 673 124 667 172 658 C 220 649 257 639 282 629 L 338 298 L 382 277 L 424 483 L 322 497 L 394 686 C 436 680 481 669 530 651 C 579 633 616 617 641 602 L 641 506 L 525 169 L 451 142 L 487 24 L 344 -36 Z" unicode="Ý" />
<glyph horiz-adv-x="661" d="M 327 492 L 327 258 L 397 278 L 403 469 L 327 492 Z M 405 98 L 363 -14 C 289 -10 227 -3 175 7 C 123 18 83 32 54 49 L 72 110 L 72 601 L 26 609 L 76 758 C 122 756 167 750 211 740 C 255 730 294 718 327 704 L 327 601 L 367 662 C 409 651 457 633 509 608 C 561 582 605 557 642 533 L 625 202 L 458 121 C 437 127 415 135 392 145 C 368 155 347 166 327 177 L 327 106 L 405 98 Z" unicode="Þ" />
<glyph horiz-adv-x="643" d="M 299 32 L 225 -15 C 196 -12 164 -6 128 2 C 92 11 64 21 44 31 L 44 311 L -8 343 L 31 454 L 63 460 L 24 607 L 280 740 C 328 728 379 710 435 684 C 491 658 536 630 572 602 L 486 435 L 615 278 L 615 69 L 460 -15 C 436 -12 408 -6 376 3 C 344 13 318 22 299 32 Z M 220 567 L 293 116 L 316 193 L 417 121 L 417 166 L 298 301 L 282 378 L 329 503 L 220 567 Z" unicode="ß" />
<glyph horiz-adv-x="553" d="M 373 577 L 229 541 L 86 672 C 108 696 138 718 175 738 C 212 758 250 772 288 782 L 373 577 Z M 267 134 L 267 208 L 201 181 L 201 154 L 267 134 Z M 267 96 L 224 -15 C 186 -10 149 -2 113 9 C 76 21 45 34 20 49 L 20 231 L 266 273 L 266 306 L 56 333 L 134 502 C 206 497 272 488 333 474 C 394 460 452 441 507 417 L 507 140 L 555 131 L 506 -14 C 462 -11 418 -6 375 2 C 331 10 295 20 267 32 L 267 96 Z" unicode="à" />
<glyph horiz-adv-x="553" d="M 293 532 L 183 566 L 229 763 C 274 757 316 742 356 718 C 395 694 424 671 443 649 L 293 532 Z M 267 134 L 267 208 L 201 181 L 201 154 L 267 134 Z M 267 96 L 224 -15 C 186 -10 149 -2 113 9 C 76 21 45 34 20 49 L 20 231 L 266 273 L 266 306 L 56 333 L 134 502 C 206 497 272 488 333 474 C 394 460 452 441 507 417 L 507 140 L 555 131 L 506 -14 C 462 -11 418 -6 375 2 C 331 10 295 20 267 32 L 267 96 Z" unicode="á" />
<glyph horiz-adv-x="553" d="M 446 699 L 386 533 L 241 626 L 217 547 L 111 580 L 184 791 C 227 787 274 776 326 758 C 378 740 418 720 446 699 Z M 267 134 L 267 208 L 201 181 L 201 154 L 267 134 Z M 267 96 L 224 -15 C 186 -10 149 -2 113 9 C 76 21 45 34 20 49 L 20 231 L 266 273 L 266 306 L 56 333 L 134 502 C 206 497 272 488 333 474 C 394 460 452 441 507 417 L 507 140 L 555 131 L 506 -14 C 462 -11 418 -6 375 2 C 331 10 295 20 267 32 L 267 96 Z" unicode="â" />
<glyph horiz-adv-x="553" d="M 92 621 L 177 754 L 302 725 L 339 805 C 367 794 395 776 424 750 C 452 724 472 700 484 678 L 373 551 L 221 586 L 201 540 C 180 546 159 557 138 572 C 116 587 101 603 92 621 Z M 267 134 L 267 208 L 201 181 L 201 154 L 267 134 Z M 267 96 L 224 -15 C 186 -10 149 -2 113 9 C 76 21 45 34 20 49 L 20 231 L 266 273 L 266 306 L 56 333 L 134 502 C 206 497 272 488 333 474 C 394 460 452 441 507 417 L 507 140 L 555 131 L 506 -14 C 462 -11 418 -6 375 2 C 331 10 295 20 267 32 L 267 96 Z" unicode="ã" />
<glyph horiz-adv-x="553" d="M 496 687 L 442 522 L 305 563 L 305 742 C 341 740 377 733 412 722 C 447 711 475 699 496 687 Z M 215 538 L 87 575 L 87 739 C 123 736 156 730 188 722 C 220 713 246 702 267 689 L 215 538 Z M 267 134 L 267 208 L 201 181 L 201 154 L 267 134 Z M 267 96 L 224 -15 C 186 -10 149 -2 113 9 C 76 21 45 34 20 49 L 20 231 L 266 273 L 266 306 L 56 333 L 134 502 C 206 497 272 488 333 474 C 394 460 452 441 507 417 L 507 140 L 555 131 L 506 -14 C 462 -11 418 -6 375 2 C 331 10 295 20 267 32 L 267 96 Z" unicode="ä" />
<glyph horiz-adv-x="553" d="M 435 728 L 435 601 L 348 525 C 314 526 279 531 243 539 C 207 547 177 558 153 571 L 153 730 L 272 785 C 301 780 330 772 358 762 C 386 752 412 740 435 728 Z M 313 605 L 313 692 L 276 698 L 276 611 L 313 605 Z M 267 134 L 267 208 L 201 181 L 201 154 L 267 134 Z M 267 96 L 224 -15 C 186 -10 149 -2 113 9 C 76 21 45 34 20 49 L 20 231 L 266 273 L 266 306 L 56 333 L 134 502 C 206 497 272 488 333 474 C 394 460 452 441 507 417 L 507 140 L 555 131 L 506 -14 C 462 -11 418 -6 375 2 C 331 10 295 20 267 32 L 267 96 Z" unicode="å" />
<glyph horiz-adv-x="757" d="M 573 277 L 573 321 L 507 333 L 507 249 L 573 277 Z M 267 134 L 267 208 L 201 181 L 201 154 L 267 134 Z M 305 53 L 264 -24 C 223 -19 178 -9 130 5 C 82 19 45 34 20 49 L 20 231 L 266 273 L 266 306 L 56 333 L 134 502 C 176 499 217 495 257 489 C 296 483 334 475 370 466 L 458 508 C 508 502 556 491 602 475 C 648 459 690 439 728 417 L 728 223 L 508 185 L 508 160 L 740 138 L 705 28 L 556 -18 C 502 -12 456 -4 418 7 C 380 18 343 33 305 53 Z" unicode="æ" />
<glyph horiz-adv-x="497" d="M 162 -131 L 207 -2 C 176 4 146 13 118 23 C 90 33 62 46 35 61 L 35 416 L 227 511 C 277 506 325 496 373 480 C 420 464 461 447 495 427 L 445 302 L 362 247 L 278 339 L 278 172 L 493 150 L 453 29 L 366 1 L 372 -188 C 330 -185 290 -178 252 -167 C 214 -155 184 -143 162 -131 Z" unicode="ç" />
<glyph horiz-adv-x="521" d="M 370 577 L 226 541 L 82 672 C 104 696 134 718 172 738 C 209 758 247 772 285 782 L 370 577 Z M 320 -18 C 264 -12 212 -3 165 8 C 118 20 75 37 35 59 L 35 417 L 221 508 C 271 502 319 491 365 475 C 411 459 454 439 492 417 L 492 223 L 272 185 L 272 160 L 504 138 L 469 28 L 320 -18 Z M 271 249 L 337 277 L 337 321 L 271 333 L 271 249 Z" unicode="è" />
<glyph horiz-adv-x="521" d="M 323 532 L 214 566 L 260 763 C 304 757 346 742 386 718 C 425 694 454 671 473 649 L 323 532 Z M 320 -18 C 264 -12 212 -3 165 8 C 118 20 75 37 35 59 L 35 417 L 221 508 C 271 502 319 491 365 475 C 411 459 454 439 492 417 L 492 223 L 272 185 L 272 160 L 504 138 L 469 28 L 320 -18 Z M 271 249 L 337 277 L 337 321 L 271 333 L 271 249 Z" unicode="é" />
<glyph horiz-adv-x="521" d="M 444 699 L 384 533 L 238 626 L 215 547 L 108 580 L 182 791 C 225 787 272 776 324 758 C 376 740 416 720 444 699 Z M 320 -18 C 264 -12 212 -3 165 8 C 118 20 75 37 35 59 L 35 417 L 221 508 C 271 502 319 491 365 475 C 411 459 454 439 492 417 L 492 223 L 272 185 L 272 160 L 504 138 L 469 28 L 320 -18 Z M 271 249 L 337 277 L 337 321 L 271 333 L 271 249 Z" unicode="ê" />
<glyph horiz-adv-x="521" d="M 485 687 L 431 522 L 294 563 L 294 742 C 330 740 365 733 401 722 C 436 711 464 699 485 687 Z M 203 538 L 76 575 L 76 739 C 112 736 145 730 177 722 C 209 713 235 702 255 689 L 203 538 Z M 320 -18 C 264 -12 212 -3 165 8 C 118 20 75 37 35 59 L 35 417 L 221 508 C 271 502 319 491 365 475 C 411 459 454 439 492 417 L 492 223 L 272 185 L 272 160 L 504 138 L 469 28 L 320 -18 Z M 271 249 L 337 277 L 337 321 L 271 333 L 271 249 Z" unicode="ë" />
<glyph horiz-adv-x="355" d="M 260 577 L 116 541 L -27 672 C -4 696 25 718 62 738 C 99 758 137 772 175 782 L 260 577 Z M 301 -14 C 239 -10 185 -2 139 9 C 93 21 54 34 24 50 L 45 123 L 45 338 L -2 346 L 47 494 C 95 491 141 485 185 475 C 229 465 268 452 302 438 L 302 145 L 350 136 L 301 -14 Z" unicode="ì" />
<glyph horiz-adv-x="355" d="M 189 532 L 79 566 L 125 763 C 170 757 212 742 252 718 C 291 694 320 671 339 649 L 189 532 Z M 301 -14 C 239 -10 185 -2 139 9 C 93 21 54 34 24 50 L 45 123 L 45 338 L -2 346 L 47 494 C 95 491 141 485 185 475 C 229 465 268 452 302 438 L 302 145 L 350 136 L 301 -14 Z" unicode="í" />
<glyph horiz-adv-x="355" d="M 347 699 L 287 533 L 141 626 L 118 547 L 11 580 L 85 791 C 128 787 175 776 227 758 C 278 740 318 720 347 699 Z M 301 -14 C 239 -10 185 -2 139 9 C 93 21 54 34 24 50 L 45 123 L 45 338 L -2 346 L 47 494 C 95 491 141 485 185 475 C 229 465 268 452 302 438 L 302 145 L 350 136 L 301 -14 Z" unicode="î" />
<glyph horiz-adv-x="355" d="M 383 687 L 329 522 L 192 563 L 192 742 C 228 740 264 733 299 722 C 334 711 362 699 383 687 Z M 113 538 L -15 575 L -15 739 C 21 736 55 730 87 722 C 118 713 144 702 165 689 L 113 538 Z M 301 -14 C 239 -10 185 -2 139 9 C 93 21 54 34 24 50 L 45 123 L 45 338 L -2 346 L 47 494 C 95 491 141 485 185 475 C 229 465 268 452 302 438 L 302 145 L 350 136 L 301 -14 Z" unicode="ï" />
<glyph horiz-adv-x="625" d="M 139 432 L 95 556 L 125 573 L 61 654 L 253 765 C 269 757 284 748 300 738 C 316 727 332 715 348 702 L 485 780 L 540 614 L 463 579 C 495 539 523 497 548 455 C 572 412 591 374 603 340 L 534 92 L 375 -20 C 297 -13 230 -1 174 15 C 118 31 72 50 38 71 L 38 319 L 234 440 L 212 466 L 139 432 Z M 340 144 L 340 275 L 268 389 L 268 159 L 340 144 Z" unicode="ð" />
<glyph horiz-adv-x="657" d="M 144 621 L 229 754 L 354 725 L 391 805 C 419 794 447 776 476 750 C 504 724 524 700 536 678 L 425 551 L 273 586 L 253 540 C 232 546 211 557 190 572 C 168 587 153 603 144 621 Z M 610 -14 C 551 -10 499 -2 454 9 C 409 20 372 33 342 49 L 363 120 L 363 315 L 293 328 L 293 138 L 330 131 L 287 -14 C 231 -9 179 -1 133 10 C 86 21 49 34 23 49 L 44 120 L 44 338 L -2 346 L 47 494 C 93 492 137 486 180 476 C 222 466 260 455 293 441 L 293 363 L 357 496 C 403 493 448 485 494 472 C 540 458 579 443 611 427 L 611 140 L 659 131 L 610 -14 Z" unicode="ñ" />
<glyph horiz-adv-x="571" d="M 386 577 L 243 541 L 99 672 C 121 696 151 718 189 738 C 226 758 264 772 302 782 L 386 577 Z M 336 -19 C 277 -15 223 -6 173 7 C 123 21 77 38 35 59 L 35 417 L 243 508 C 296 501 347 490 396 474 C 445 458 492 439 536 417 L 536 59 L 336 -19 Z M 324 144 L 324 318 L 254 330 L 254 158 L 324 144 Z" unicode="ò" />
<glyph horiz-adv-x="571" d="M 336 532 L 226 566 L 272 763 C 317 757 359 742 399 718 C 438 694 467 671 486 649 L 336 532 Z M 336 -19 C 277 -15 223 -6 173 7 C 123 21 77 38 35 59 L 35 417 L 243 508 C 296 501 347 490 396 474 C 445 458 492 439 536 417 L 536 59 L 336 -19 Z M 324 144 L 324 318 L 254 330 L 254 158 L 324 144 Z" unicode="ó" />
<glyph horiz-adv-x="571" d="M 464 699 L 405 533 L 259 626 L 235 547 L 129 580 L 202 791 C 245 787 292 776 344 758 C 396 740 436 720 464 699 Z M 336 -19 C 277 -15 223 -6 173 7 C 123 21 77 38 35 59 L 35 417 L 243 508 C 296 501 347 490 396 474 C 445 458 492 439 536 417 L 536 59 L 336 -19 Z M 324 144 L 324 318 L 254 330 L 254 158 L 324 144 Z" unicode="ô" />
<glyph horiz-adv-x="571" d="M 110 621 L 195 754 L 320 725 L 357 805 C 385 794 414 776 442 750 C 470 724 490 700 502 678 L 391 551 L 240 586 L 219 540 C 199 546 178 557 156 572 C 134 587 119 603 110 621 Z M 336 -19 C 277 -15 223 -6 173 7 C 123 21 77 38 35 59 L 35 417 L 243 508 C 296 501 347 490 396 474 C 445 458 492 439 536 417 L 536 59 L 336 -19 Z M 324 144 L 324 318 L 254 330 L 254 158 L 324 144 Z" unicode="õ" />
<glyph horiz-adv-x="571" d="M 512 689 L 458 524 L 321 565 L 321 745 C 357 742 392 735 428 724 C 463 713 491 701 512 689 Z M 231 540 L 103 577 L 103 741 C 139 739 172 733 204 725 C 236 716 262 705 282 692 L 231 540 Z M 336 -19 C 277 -15 223 -6 173 7 C 123 21 77 38 35 59 L 35 417 L 243 508 C 296 501 347 490 396 474 C 445 458 492 439 536 417 L 536 59 L 336 -19 Z M 324 144 L 324 318 L 254 330 L 254 158 L 324 144 Z" unicode="ö" />
<glyph horiz-adv-x="523" d="M 189 583 L 386 522 L 327 351 C 285 355 250 361 224 369 C 198 377 171 389 143 407 L 189 583 Z M 433 121 C 347 125 265 135 186 150 C 107 164 51 178 19 192 L 59 320 C 130 313 197 308 259 305 C 321 301 397 298 487 296 L 433 121 Z M 162 117 L 359 56 L 300 -115 C 258 -111 223 -105 197 -97 C 171 -89 144 -76 116 -59 L 162 117 Z" unicode="÷" />
<glyph horiz-adv-x="571" d="M 254 330 L 254 158 L 324 144 L 324 318 L 254 330 Z M 276 -12 L 242 -144 L 102 -106 L 146 15 C 126 21 106 27 88 35 C 69 42 51 50 35 59 L 35 417 L 243 508 C 252 506 261 505 271 504 C 281 502 291 500 301 498 L 334 629 L 475 592 L 427 464 C 445 457 464 450 482 442 C 500 434 518 425 536 417 L 536 59 L 336 -19 C 325 -18 315 -17 305 -16 C 295 -15 285 -14 276 -12 Z" unicode="ø" />
<glyph horiz-adv-x="657" d="M 432 577 L 288 541 L 145 672 C 167 696 197 718 234 738 C 271 758 309 772 347 782 L 432 577 Z M 364 115 L 299 -18 C 253 -15 208 -7 162 6 C 116 19 77 34 45 51 L 45 338 L -1 346 L 49 494 C 95 492 139 486 181 476 C 223 466 261 455 294 441 L 294 163 L 364 150 L 364 315 L 311 325 L 373 494 C 413 490 456 481 501 468 C 545 455 582 441 612 427 L 612 140 L 660 131 L 611 -14 C 565 -11 520 -5 477 3 C 433 11 396 23 364 37 L 364 115 Z" unicode="ù" />
<glyph horiz-adv-x="657" d="M 355 532 L 245 566 L 292 763 C 336 757 378 742 418 718 C 457 694 486 671 505 649 L 355 532 Z M 364 115 L 299 -18 C 253 -15 208 -7 162 6 C 116 19 77 34 45 51 L 45 338 L -1 346 L 49 494 C 95 492 139 486 181 476 C 223 466 261 455 294 441 L 294 163 L 364 150 L 364 315 L 311 325 L 373 494 C 413 490 456 481 501 468 C 545 455 582 441 612 427 L 612 140 L 660 131 L 611 -14 C 565 -11 520 -5 477 3 C 433 11 396 23 364 37 L 364 115 Z" unicode="ú" />
<glyph horiz-adv-x="657" d="M 516 699 L 457 533 L 311 626 L 287 547 L 181 580 L 254 791 C 297 787 344 776 396 758 C 448 740 488 720 516 699 Z M 364 115 L 299 -18 C 253 -15 208 -7 162 6 C 116 19 77 34 45 51 L 45 338 L -1 346 L 49 494 C 95 492 139 486 181 476 C 223 466 261 455 294 441 L 294 163 L 364 150 L 364 315 L 311 325 L 373 494 C 413 490 456 481 501 468 C 545 455 582 441 612 427 L 612 140 L 660 131 L 611 -14 C 565 -11 520 -5 477 3 C 433 11 396 23 364 37 L 364 115 Z" unicode="û" />
<glyph horiz-adv-x="657" d="M 558 687 L 504 522 L 367 563 L 367 742 C 403 740 439 733 474 722 C 509 711 537 699 558 687 Z M 277 538 L 149 575 L 149 739 C 185 736 219 730 251 722 C 282 713 308 702 329 689 L 277 538 Z M 364 115 L 299 -18 C 253 -15 208 -7 162 6 C 116 19 77 34 45 51 L 45 338 L -1 346 L 49 494 C 95 492 139 486 181 476 C 223 466 261 455 294 441 L 294 163 L 364 150 L 364 315 L 311 325 L 373 494 C 413 490 456 481 501 468 C 545 455 582 441 612 427 L 612 140 L 660 131 L 611 -14 C 565 -11 520 -5 477 3 C 433 11 396 23 364 37 L 364 115 Z" unicode="ü" />
<glyph horiz-adv-x="556" d="M 299 532 L 190 566 L 236 763 C 281 757 323 742 363 718 C 402 694 431 671 450 649 L 299 532 Z M 408 -229 C 358 -226 308 -219 259 -208 C 209 -196 171 -183 145 -167 L 226 -10 C 204 -4 179 4 152 16 C 125 28 100 41 78 56 L 26 339 L -9 346 L 40 494 C 81 493 124 488 169 479 C 213 469 248 460 273 450 L 279 373 L 342 515 C 376 509 413 499 453 483 C 492 467 524 452 549 437 L 549 347 L 417 -54 L 408 -229 Z M 341 133 L 358 324 L 282 338 L 297 155 L 341 133 Z" unicode="ý" />
<glyph horiz-adv-x="621" d="M 284 328 L 284 156 L 354 141 L 354 315 L 284 328 Z M 338 -71 L 294 -209 C 231 -206 176 -199 130 -188 C 83 -176 44 -163 14 -148 L 35 -77 L 34 662 C 80 660 126 653 172 641 C 218 629 258 615 293 599 L 284 363 L 348 496 C 392 491 435 482 476 470 C 516 457 553 443 586 427 L 586 59 L 398 -15 C 380 -11 359 -5 335 4 C 311 14 293 22 281 29 L 281 -64 L 338 -71 Z" unicode="þ" />
<glyph horiz-adv-x="556" d="M 529 687 L 475 522 L 338 563 L 338 742 C 374 740 409 733 445 722 C 480 711 508 699 529 687 Z M 247 538 L 120 575 L 120 739 C 156 736 189 730 221 722 C 253 713 279 702 299 689 L 247 538 Z M 408 -229 C 358 -226 308 -219 259 -208 C 209 -196 171 -183 145 -167 L 226 -10 C 204 -4 179 4 152 16 C 125 28 100 41 78 56 L 26 339 L -9 346 L 40 494 C 81 493 124 488 169 479 C 213 469 248 460 273 450 L 279 373 L 342 515 C 376 509 413 499 453 483 C 492 467 524 452 549 437 L 549 347 L 417 -54 L 408 -229 Z M 341 133 L 358 324 L 282 338 L 297 155 L 341 133 Z" unicode="ÿ" />
<glyph horiz-adv-x="683" d="M 189 790 L 210 906 L 533 892 L 508 737 C 450 739 387 746 320 758 C 253 770 209 780 189 790 Z M 646 -14 C 584 -10 529 -2 482 9 C 435 20 396 33 365 49 L 384 110 L 381 157 L 266 169 L 260 120 L 308 112 L 268 -14 C 214 -10 164 -2 120 9 C 76 21 41 34 15 49 L 128 582 L 308 683 C 358 675 409 660 462 638 C 514 616 557 596 589 576 L 649 140 L 694 131 L 646 -14 Z M 372 277 L 356 478 L 298 493 L 279 307 L 372 277 Z" unicode="Ā" />
<glyph horiz-adv-x="553" d="M 129 591 L 150 716 L 451 702 L 426 538 C 373 540 315 547 253 559 C 191 571 149 581 129 591 Z M 267 134 L 267 208 L 201 181 L 201 154 L 267 134 Z M 267 96 L 224 -15 C 186 -10 149 -2 113 9 C 76 21 45 34 20 49 L 20 231 L 266 273 L 266 306 L 56 333 L 134 502 C 206 497 272 488 333 474 C 394 460 452 441 507 417 L 507 140 L 555 131 L 506 -14 C 462 -11 418 -6 375 2 C 331 10 295 20 267 32 L 267 96 Z" unicode="ā" />
<glyph horiz-adv-x="683" d="M 193 845 L 183 939 L 324 960 L 333 860 L 376 850 L 403 955 L 534 923 L 447 732 C 415 732 378 736 336 744 C 293 751 262 758 244 766 L 193 845 Z M 646 -14 C 584 -10 529 -2 482 9 C 435 20 396 33 365 49 L 384 110 L 381 157 L 266 169 L 260 120 L 308 112 L 268 -14 C 214 -10 164 -2 120 9 C 76 21 41 34 15 49 L 128 582 L 308 683 C 358 675 409 660 462 638 C 514 616 557 596 589 576 L 649 140 L 694 131 L 646 -14 Z M 372 277 L 356 478 L 298 493 L 279 307 L 372 277 Z" unicode="Ă" />
<glyph horiz-adv-x="553" d="M 127 651 L 114 748 L 262 774 L 273 668 L 315 658 L 344 768 L 478 733 L 389 534 C 355 536 316 540 274 548 C 231 555 200 562 182 570 L 127 651 Z M 267 134 L 267 208 L 201 181 L 201 154 L 267 134 Z M 267 96 L 224 -15 C 186 -10 149 -2 113 9 C 76 21 45 34 20 49 L 20 231 L 266 273 L 266 306 L 56 333 L 134 502 C 206 497 272 488 333 474 C 394 460 452 441 507 417 L 507 140 L 555 131 L 506 -14 C 462 -11 418 -6 375 2 C 331 10 295 20 267 32 L 267 96 Z" unicode="ă" />
<glyph horiz-adv-x="683" d="M 298 493 L 279 307 L 372 277 L 356 478 L 298 493 Z M 667 -76 L 597 -209 C 569 -204 539 -196 507 -185 C 474 -174 447 -161 427 -147 L 427 -77 L 493 6 C 467 11 443 17 422 25 C 400 32 381 40 365 49 L 384 110 L 381 157 L 266 169 L 260 120 L 308 112 L 268 -14 C 214 -10 164 -2 120 9 C 76 21 41 34 15 49 L 128 582 L 308 683 C 358 675 409 660 462 638 C 514 616 557 596 589 576 L 649 140 L 694 131 L 646 -14 C 636 -13 627 -12 618 -11 C 609 -10 600 -9 592 -9 L 573 -62 L 667 -76 Z" unicode="Ą" />
<glyph horiz-adv-x="553" d="M 201 181 L 201 154 L 267 134 L 267 208 L 201 181 Z M 544 -76 L 473 -209 C 446 -204 416 -196 384 -185 C 351 -174 324 -161 304 -147 L 304 -77 L 367 3 C 348 6 330 10 313 15 C 295 20 280 26 267 32 L 267 96 L 224 -15 C 186 -10 149 -2 113 9 C 76 21 45 34 20 49 L 20 231 L 266 273 L 266 306 L 56 333 L 134 502 C 206 497 272 488 333 474 C 394 460 452 441 507 417 L 507 140 L 555 131 L 506 -14 L 468 -11 L 450 -62 L 544 -76 Z" unicode="ą" />
<glyph horiz-adv-x="607" d="M 350 739 L 233 773 L 275 951 C 323 945 368 931 410 909 C 452 887 483 863 505 837 L 350 739 Z M 547 28 L 354 -31 C 292 -23 232 -10 174 8 C 116 27 70 46 37 66 L 37 588 L 257 683 C 286 679 316 672 347 664 C 377 656 407 646 436 635 L 477 684 L 577 672 L 558 304 L 382 332 L 391 461 L 311 498 L 311 182 L 591 142 L 547 28 Z" unicode="Ć" />
<glyph horiz-adv-x="497" d="M 316 532 L 207 566 L 253 763 C 298 757 340 742 380 718 C 419 694 448 671 467 649 L 316 532 Z M 453 29 L 306 -18 C 254 -12 206 -3 162 9 C 118 21 76 38 35 61 L 35 416 L 227 511 C 277 506 325 496 373 480 C 420 464 461 447 495 427 L 445 302 L 362 247 L 278 339 L 278 172 L 493 150 L 453 29 Z" unicode="ć" />
<glyph horiz-adv-x="607" d="M 492 873 L 437 721 L 282 807 L 262 739 L 150 772 L 216 958 C 264 954 317 943 374 925 C 431 907 470 889 492 873 Z M 547 28 L 354 -31 C 292 -23 232 -10 174 8 C 116 27 70 46 37 66 L 37 588 L 257 683 C 286 679 316 672 347 664 C 377 656 407 646 436 635 L 477 684 L 577 672 L 558 304 L 382 332 L 391 461 L 311 498 L 311 182 L 591 142 L 547 28 Z" unicode="Ĉ" />
<glyph horiz-adv-x="497" d="M 446 699 L 386 533 L 241 626 L 217 547 L 111 580 L 184 791 C 227 787 274 776 326 758 C 378 740 418 720 446 699 Z M 453 29 L 306 -18 C 254 -12 206 -3 162 9 C 118 21 76 38 35 61 L 35 416 L 227 511 C 277 506 325 496 373 480 C 420 464 461 447 495 427 L 445 302 L 362 247 L 278 339 L 278 172 L 493 150 L 453 29 Z" unicode="ĉ" />
<glyph horiz-adv-x="607" d="M 437 870 L 379 731 L 229 774 L 229 929 C 269 925 308 917 347 905 C 386 893 416 882 437 870 Z M 547 28 L 354 -31 C 292 -23 232 -10 174 8 C 116 27 70 46 37 66 L 37 588 L 257 683 C 286 679 316 672 347 664 C 377 656 407 646 436 635 L 477 684 L 577 672 L 558 304 L 382 332 L 391 461 L 311 498 L 311 182 L 591 142 L 547 28 Z" unicode="Ċ" />
<glyph horiz-adv-x="497" d="M 401 679 L 342 532 L 198 575 L 198 736 C 233 733 270 726 309 715 C 348 703 379 691 401 679 Z M 453 29 L 306 -18 C 254 -12 206 -3 162 9 C 118 21 76 38 35 61 L 35 416 L 227 511 C 277 506 325 496 373 480 C 420 464 461 447 495 427 L 445 302 L 362 247 L 278 339 L 278 172 L 493 150 L 453 29 Z" unicode="ċ" />
<glyph horiz-adv-x="607" d="M 133 820 L 188 973 L 342 887 L 363 955 L 475 922 L 409 736 C 355 740 301 750 247 768 C 193 786 155 803 133 820 Z M 547 28 L 354 -31 C 292 -23 232 -10 174 8 C 116 27 70 46 37 66 L 37 588 L 257 683 C 286 679 316 672 347 664 C 377 656 407 646 436 635 L 477 684 L 577 672 L 558 304 L 382 332 L 391 461 L 311 498 L 311 182 L 591 142 L 547 28 Z" unicode="Č" />
<glyph horiz-adv-x="497" d="M 101 632 L 160 798 L 306 705 L 330 784 L 436 751 L 363 540 C 319 543 272 553 220 571 C 168 589 129 609 101 632 Z M 453 29 L 306 -18 C 254 -12 206 -3 162 9 C 118 21 76 38 35 61 L 35 416 L 227 511 C 277 506 325 496 373 480 C 420 464 461 447 495 427 L 445 302 L 362 247 L 278 339 L 278 172 L 493 150 L 453 29 Z" unicode="č" />
<glyph horiz-adv-x="672" d="M 130 820 L 184 973 L 339 887 L 359 955 L 471 922 L 406 736 C 352 740 298 750 244 768 C 190 786 152 803 130 820 Z M 366 -21 C 301 -16 240 -7 183 4 C 126 16 73 31 25 49 L 46 120 L 46 528 L -28 539 L 59 713 C 150 704 245 688 343 665 C 441 642 525 616 596 588 L 652 314 L 584 70 L 366 -21 Z M 367 147 L 395 302 L 355 488 L 293 501 L 293 160 L 367 147 Z" unicode="Ď" />
<glyph horiz-adv-x="702" d="M 268 330 L 268 158 L 338 144 L 338 318 L 268 330 Z M 338 103 L 273 -20 C 232 -15 190 -5 146 9 C 102 24 65 41 35 59 L 35 417 L 224 492 C 244 489 265 484 286 478 C 307 472 324 466 338 462 L 338 575 L 292 583 L 341 732 C 379 730 415 726 451 719 C 487 712 519 703 549 693 L 532 808 C 564 804 598 797 632 787 C 666 777 696 765 723 752 L 732 627 L 645 508 L 586 521 L 586 140 L 634 131 L 585 -14 C 537 -11 491 -6 449 0 C 406 6 369 17 338 32 L 338 103 Z" unicode="ď" />
<glyph horiz-adv-x="684" d="M 58 120 L 58 272 C 44 275 32 278 20 282 C 8 286 -1 290 -11 294 L 25 397 L 58 393 L 58 528 L -17 539 L 70 713 C 161 704 256 688 354 665 C 452 642 537 616 607 588 L 663 314 L 596 70 L 377 -21 C 312 -16 251 -7 194 4 C 137 16 84 31 36 49 L 58 120 Z M 379 147 L 407 302 L 366 488 L 304 501 L 304 372 L 376 365 L 330 228 C 325 228 321 228 317 229 C 313 229 308 230 304 231 L 304 160 L 379 147 Z" unicode="Đ" />
<glyph horiz-adv-x="632" d="M 268 330 L 268 158 L 338 144 L 338 318 L 268 330 Z M 338 103 L 273 -20 C 232 -15 190 -5 146 9 C 102 24 65 41 35 59 L 35 417 L 224 492 C 244 489 265 484 286 478 C 307 472 324 466 338 462 L 338 523 C 316 528 296 534 278 540 C 260 546 244 551 232 557 L 260 662 L 338 657 L 338 744 C 384 741 428 735 472 725 C 516 715 554 703 586 689 L 586 640 L 633 637 L 586 490 L 586 140 L 634 131 L 585 -14 C 537 -11 491 -6 449 0 C 406 6 369 17 338 32 L 338 103 Z" unicode="đ" />
<glyph horiz-adv-x="589" d="M 137 790 L 158 906 L 481 892 L 457 737 C 399 739 336 746 269 758 C 201 770 157 780 137 790 Z M 542 28 L 354 -31 C 292 -23 230 -10 166 8 C 102 27 53 46 19 66 L 54 306 L 26 588 L 257 683 C 283 679 310 674 338 667 C 366 659 393 651 419 641 L 454 684 L 555 672 L 539 372 L 363 400 L 370 490 L 288 522 L 305 357 L 520 329 L 472 188 C 444 193 414 201 380 211 C 346 221 319 231 299 242 L 282 167 L 581 128 L 542 28 Z" unicode="Ē" />
<glyph horiz-adv-x="521" d="M 122 591 L 144 716 L 444 702 L 419 538 C 366 540 308 547 246 559 C 184 571 142 581 122 591 Z M 320 -18 C 264 -12 212 -3 165 8 C 118 20 75 37 35 59 L 35 417 L 221 508 C 271 502 319 491 365 475 C 411 459 454 439 492 417 L 492 223 L 272 185 L 272 160 L 504 138 L 469 28 L 320 -18 Z M 271 249 L 337 277 L 337 321 L 271 333 L 271 249 Z" unicode="ē" />
<glyph horiz-adv-x="589" d="M 150 847 L 140 941 L 281 963 L 290 862 L 333 852 L 360 957 L 492 925 L 405 734 C 373 735 335 739 293 747 C 250 754 219 761 201 768 L 150 847 Z M 542 28 L 354 -31 C 292 -23 230 -10 166 8 C 102 27 53 46 19 66 L 54 306 L 26 588 L 257 683 C 283 679 310 674 338 667 C 366 659 393 651 419 641 L 454 684 L 555 672 L 539 372 L 363 400 L 370 490 L 288 522 L 305 357 L 520 329 L 472 188 C 444 193 414 201 380 211 C 346 221 319 231 299 242 L 282 167 L 581 128 L 542 28 Z" unicode="Ĕ" />
<glyph horiz-adv-x="521" d="M 110 651 L 97 748 L 245 774 L 257 668 L 298 658 L 327 768 L 461 733 L 372 534 C 338 536 299 540 257 548 C 214 555 183 562 165 570 L 110 651 Z M 320 -18 C 264 -12 212 -3 165 8 C 118 20 75 37 35 59 L 35 417 L 221 508 C 271 502 319 491 365 475 C 411 459 454 439 492 417 L 492 223 L 272 185 L 272 160 L 504 138 L 469 28 L 320 -18 Z M 271 249 L 337 277 L 337 321 L 271 333 L 271 249 Z" unicode="ĕ" />
<glyph horiz-adv-x="589" d="M 438 870 L 380 731 L 231 774 L 231 929 C 271 925 310 917 349 905 C 387 893 417 882 438 870 Z M 542 28 L 354 -31 C 292 -23 230 -10 166 8 C 102 27 53 46 19 66 L 54 306 L 26 588 L 257 683 C 283 679 310 674 338 667 C 366 659 393 651 419 641 L 454 684 L 555 672 L 539 372 L 363 400 L 370 490 L 288 522 L 305 357 L 520 329 L 472 188 C 444 193 414 201 380 211 C 346 221 319 231 299 242 L 282 167 L 581 128 L 542 28 Z" unicode="Ė" />
<glyph horiz-adv-x="521" d="M 403 672 L 345 525 L 200 568 L 200 729 C 235 726 272 719 311 708 C 350 696 381 684 403 672 Z M 320 -18 C 264 -12 212 -3 165 8 C 118 20 75 37 35 59 L 35 417 L 221 508 C 271 502 319 491 365 475 C 411 459 454 439 492 417 L 492 223 L 272 185 L 272 160 L 504 138 L 469 28 L 320 -18 Z M 271 249 L 337 277 L 337 321 L 271 333 L 271 249 Z" unicode="ė" />
<glyph horiz-adv-x="589" d="M 19 66 L 54 306 L 26 588 L 257 683 C 283 679 310 674 338 667 C 366 659 393 651 419 641 L 454 684 L 555 672 L 539 372 L 363 400 L 370 490 L 288 522 L 305 357 L 520 329 L 472 188 C 444 193 414 201 380 211 C 346 221 319 231 299 242 L 282 167 L 581 128 L 542 28 L 429 -7 L 409 -62 L 503 -76 L 433 -209 C 406 -204 376 -196 343 -185 C 310 -174 283 -161 263 -147 L 263 -77 L 306 -24 C 250 -14 196 -1 143 15 C 89 32 48 49 19 66 Z" unicode="Ę" />
<glyph horiz-adv-x="521" d="M 35 417 L 221 508 C 271 502 319 491 365 475 C 411 459 454 439 492 417 L 492 223 L 272 185 L 272 160 L 504 138 L 469 28 L 407 9 L 381 -62 L 475 -76 L 405 -209 C 377 -204 347 -196 315 -185 C 282 -174 255 -161 235 -147 L 235 -77 L 285 -14 C 236 -8 191 0 150 12 C 108 24 70 39 35 59 L 35 417 Z M 271 249 L 337 277 L 337 321 L 271 333 L 271 249 Z" unicode="ę" />
<glyph horiz-adv-x="589" d="M 131 820 L 185 973 L 340 887 L 360 955 L 472 922 L 407 736 C 353 740 299 750 245 768 C 191 786 153 803 131 820 Z M 542 28 L 354 -31 C 292 -23 230 -10 166 8 C 102 27 53 46 19 66 L 54 306 L 26 588 L 257 683 C 283 679 310 674 338 667 C 366 659 393 651 419 641 L 454 684 L 555 672 L 539 372 L 363 400 L 370 490 L 288 522 L 305 357 L 520 329 L 472 188 C 444 193 414 201 380 211 C 346 221 319 231 299 242 L 282 167 L 581 128 L 542 28 Z" unicode="Ě" />
<glyph horiz-adv-x="521" d="M 101 620 L 160 786 L 306 694 L 330 773 L 436 740 L 363 529 C 319 532 272 542 220 560 C 168 577 129 597 101 620 Z M 320 -18 C 264 -12 212 -3 165 8 C 118 20 75 37 35 59 L 35 417 L 221 508 C 271 502 319 491 365 475 C 411 459 454 439 492 417 L 492 223 L 272 185 L 272 160 L 504 138 L 469 28 L 320 -18 Z M 271 249 L 337 277 L 337 321 L 271 333 L 271 249 Z" unicode="ě" />
<glyph horiz-adv-x="660" d="M 521 873 L 467 721 L 312 807 L 292 739 L 180 772 L 245 958 C 294 954 347 943 404 925 C 460 907 499 889 521 873 Z M 626 304 L 612 -73 C 575 -68 536 -61 494 -51 C 452 -41 419 -30 394 -18 L 409 104 L 332 -20 C 284 -14 232 -3 176 12 C 120 28 74 46 38 64 L 38 606 L 292 692 C 348 687 404 677 462 662 C 519 646 568 627 610 605 L 506 408 L 311 506 L 311 171 L 416 155 L 420 201 L 356 212 L 401 356 C 446 354 487 349 524 339 C 561 329 595 318 626 304 Z" unicode="Ĝ" />
<glyph horiz-adv-x="574" d="M 389 699 L 329 533 L 183 626 L 159 547 L 53 580 L 127 791 C 170 787 217 776 269 758 C 320 740 360 720 389 699 Z M 297 -224 C 246 -215 196 -203 148 -187 C 100 -171 55 -150 14 -125 L 67 34 L 165 84 C 140 91 115 101 91 113 C 67 125 47 137 33 148 L 33 417 L 232 504 C 252 502 277 497 309 489 C 340 481 365 473 383 467 L 416 614 C 444 607 474 597 505 583 C 535 569 560 556 579 545 L 579 466 L 464 432 C 471 428 481 424 493 418 C 505 412 517 406 529 399 L 529 142 L 349 97 L 349 84 L 559 42 L 559 -131 L 297 -224 Z M 316 189 L 316 331 L 258 344 L 258 202 L 316 189 Z M 323 -96 L 323 -37 L 218 -12 L 218 -56 L 323 -96 Z" unicode="ĝ" />
<glyph horiz-adv-x="660" d="M 191 845 L 181 939 L 322 960 L 331 860 L 374 850 L 401 955 L 532 923 L 445 732 C 413 732 376 736 334 744 C 291 751 260 758 242 766 L 191 845 Z M 626 304 L 612 -73 C 575 -68 536 -61 494 -51 C 452 -41 419 -30 394 -18 L 409 104 L 332 -20 C 284 -14 232 -3 176 12 C 120 28 74 46 38 64 L 38 606 L 292 692 C 348 687 404 677 462 662 C 519 646 568 627 610 605 L 506 408 L 311 506 L 311 171 L 416 155 L 420 201 L 356 212 L 401 356 C 446 354 487 349 524 339 C 561 329 595 318 626 304 Z" unicode="Ğ" />
<glyph horiz-adv-x="574" d="M 55 662 L 43 759 L 191 785 L 202 679 L 244 669 L 272 780 L 407 745 L 318 546 C 284 547 245 551 203 559 C 160 566 129 573 111 581 L 55 662 Z M 297 -224 C 246 -215 196 -203 148 -187 C 100 -171 55 -150 14 -125 L 67 34 L 165 84 C 140 91 115 101 91 113 C 67 125 47 137 33 148 L 33 417 L 232 504 C 252 502 277 497 309 489 C 340 481 365 473 383 467 L 416 614 C 444 607 474 597 505 583 C 535 569 560 556 579 545 L 579 466 L 464 432 C 471 428 481 424 493 418 C 505 412 517 406 529 399 L 529 142 L 349 97 L 349 84 L 559 42 L 559 -131 L 297 -224 Z M 316 189 L 316 331 L 258 344 L 258 202 L 316 189 Z M 323 -96 L 323 -37 L 218 -12 L 218 -56 L 323 -96 Z" unicode="ğ" />
<glyph horiz-adv-x="660" d="M 470 870 L 411 731 L 262 774 L 262 929 C 302 925 341 917 380 905 C 419 893 449 882 470 870 Z M 626 304 L 612 -73 C 575 -68 536 -61 494 -51 C 452 -41 419 -30 394 -18 L 409 104 L 332 -20 C 284 -14 232 -3 176 12 C 120 28 74 46 38 64 L 38 606 L 292 692 C 348 687 404 677 462 662 C 519 646 568 627 610 605 L 506 408 L 311 506 L 311 171 L 416 155 L 420 201 L 356 212 L 401 356 C 446 354 487 349 524 339 C 561 329 595 318 626 304 Z" unicode="Ġ" />
<glyph horiz-adv-x="574" d="M 368 690 L 310 544 L 165 586 L 165 747 C 200 744 237 737 276 726 C 315 714 346 702 368 690 Z M 297 -224 C 246 -215 196 -203 148 -187 C 100 -171 55 -150 14 -125 L 67 34 L 165 84 C 140 91 115 101 91 113 C 67 125 47 137 33 148 L 33 417 L 232 504 C 252 502 277 497 309 489 C 340 481 365 473 383 467 L 416 614 C 444 607 474 597 505 583 C 535 569 560 556 579 545 L 579 466 L 464 432 C 471 428 481 424 493 418 C 505 412 517 406 529 399 L 529 142 L 349 97 L 349 84 L 559 42 L 559 -131 L 297 -224 Z M 316 189 L 316 331 L 258 344 L 258 202 L 316 189 Z M 323 -96 L 323 -37 L 218 -12 L 218 -56 L 323 -96 Z" unicode="ġ" />
<glyph horiz-adv-x="660" d="M 626 304 L 612 -73 C 575 -68 536 -61 494 -51 C 452 -41 419 -30 394 -18 L 409 104 L 332 -20 C 284 -14 232 -3 176 12 C 120 28 74 46 38 64 L 38 606 L 292 692 C 348 687 404 677 462 662 C 519 646 568 627 610 605 L 506 408 L 311 506 L 311 171 L 416 155 L 420 201 L 356 212 L 401 356 C 446 354 487 349 524 339 C 561 329 595 318 626 304 Z M 351 -340 L 233 -313 L 262 -207 L 238 -41 C 270 -43 304 -50 338 -60 C 372 -70 402 -82 429 -96 L 438 -221 L 351 -340 Z" unicode="Ģ" />
<glyph horiz-adv-x="574" d="M 350 815 L 350 545 C 308 545 268 550 231 560 C 193 570 163 581 141 593 L 217 845 L 350 815 Z M 297 -224 C 246 -215 196 -203 148 -187 C 100 -171 55 -150 14 -125 L 67 34 L 165 84 C 140 91 115 101 91 113 C 67 125 47 137 33 148 L 33 417 L 232 504 C 252 502 277 497 309 489 C 340 481 365 473 383 467 L 416 614 C 444 607 474 597 505 583 C 535 569 560 556 579 545 L 579 466 L 464 432 C 471 428 481 424 493 418 C 505 412 517 406 529 399 L 529 142 L 349 97 L 349 84 L 559 42 L 559 -131 L 297 -224 Z M 316 189 L 316 331 L 258 344 L 258 202 L 316 189 Z M 323 -96 L 323 -37 L 218 -12 L 218 -56 L 323 -96 Z" unicode="ģ" />
<glyph horiz-adv-x="723" d="M 550 873 L 496 721 L 341 807 L 321 739 L 209 772 L 275 958 C 323 954 376 943 433 925 C 489 907 528 889 550 873 Z M 670 -14 C 610 -10 558 -2 515 9 C 472 20 436 33 406 49 L 426 120 L 426 217 L 308 240 L 308 140 L 355 131 L 307 -14 C 247 -10 194 -2 147 9 C 100 20 62 33 32 49 L 53 120 L 53 519 L 7 527 L 55 676 C 109 673 158 666 204 654 C 250 642 291 628 328 612 L 307 536 L 307 394 L 426 355 L 426 519 L 381 527 L 429 676 C 482 673 530 666 572 654 C 614 642 654 628 690 612 L 671 536 L 671 140 L 718 131 L 670 -14 Z" unicode="Ĥ" />
<glyph horiz-adv-x="657" d="M 339 898 L 285 746 L 130 832 L 110 764 L -2 797 L 63 983 C 112 979 165 968 222 950 C 278 932 317 914 339 898 Z M 610 -14 C 551 -10 499 -2 454 9 C 409 20 372 33 342 49 L 363 120 L 363 315 L 293 328 L 293 138 L 330 131 L 287 -14 C 231 -9 179 -1 133 10 C 86 21 49 34 23 49 L 44 120 L 44 575 L -2 583 L 47 732 C 93 730 137 724 180 714 C 222 704 260 692 293 678 L 293 363 L 357 496 C 403 493 448 485 494 472 C 540 458 579 443 611 427 L 611 140 L 659 131 L 610 -14 Z" unicode="ĥ" />
<glyph horiz-adv-x="729" d="M 307 302 L 426 288 L 426 336 L 307 351 L 307 302 Z M 718 131 L 670 -14 C 610 -10 558 -2 515 9 C 472 20 436 33 406 49 L 426 120 L 426 172 L 308 192 L 308 140 L 355 131 L 307 -14 C 247 -10 194 -2 147 9 C 100 20 62 33 32 49 L 53 120 L 53 385 L -9 393 L 12 483 L 53 479 L 53 519 L 7 527 L 55 676 C 109 673 158 666 204 654 C 250 642 291 628 328 612 L 307 536 L 307 457 L 426 446 L 426 519 L 381 527 L 429 676 C 482 673 530 666 572 654 C 614 642 654 628 690 612 L 671 536 L 671 425 L 740 419 L 713 298 L 671 304 L 671 140 L 718 131 Z" unicode="Ħ" />
<glyph horiz-adv-x="657" d="M 9 695 L 44 692 L 44 770 C 90 767 134 761 178 751 C 222 741 260 729 293 715 L 293 670 L 388 662 L 341 525 L 293 528 L 293 363 L 357 496 C 403 493 448 485 494 472 C 540 458 579 443 611 427 L 611 140 L 659 131 L 610 -14 C 551 -10 499 -2 454 9 C 409 20 372 33 342 49 L 363 120 L 363 315 L 293 328 L 293 138 L 330 131 L 287 -14 C 231 -9 179 -1 133 10 C 86 21 49 34 23 49 L 44 120 L 44 570 C 30 573 17 576 5 580 C -7 584 -17 588 -27 592 L 9 695 Z" unicode="ħ" />
<glyph horiz-adv-x="412" d="M 6 798 L 92 930 L 227 905 L 265 984 C 293 974 321 956 350 930 C 378 904 398 880 409 858 L 299 731 L 136 763 L 116 716 C 95 722 74 733 52 749 C 30 764 15 780 6 798 Z M 351 -17 C 291 -13 229 -5 163 7 C 97 19 45 33 7 49 L 50 172 L 82 165 L 82 519 L 18 527 L 57 676 C 116 672 179 664 246 652 C 312 639 365 625 403 610 L 364 487 L 337 494 L 337 140 L 400 132 L 351 -17 Z" unicode="Ĩ" />
<glyph horiz-adv-x="355" d="M -21 621 L 64 754 L 189 725 L 226 805 C 254 794 282 776 311 750 C 339 724 359 700 371 678 L 260 551 L 108 586 L 88 540 C 67 546 46 557 25 572 C 3 587 -11 603 -21 621 Z M 301 -14 C 239 -10 185 -2 139 9 C 93 21 54 34 24 50 L 45 123 L 45 338 L -2 346 L 47 494 C 95 491 141 485 185 475 C 229 465 268 452 302 438 L 302 145 L 350 136 L 301 -14 Z" unicode="ĩ" />
<glyph horiz-adv-x="412" d="M 39 790 L 60 906 L 383 892 L 359 737 C 301 739 238 746 171 758 C 103 770 59 780 39 790 Z M 351 -17 C 291 -13 229 -5 163 7 C 97 19 45 33 7 49 L 50 172 L 82 165 L 82 519 L 18 527 L 57 676 C 116 672 179 664 246 652 C 312 639 365 625 403 610 L 364 487 L 337 494 L 337 140 L 400 132 L 351 -17 Z" unicode="Ī" />
<glyph horiz-adv-x="355" d="M 11 591 L 33 716 L 333 702 L 308 538 C 255 540 197 547 135 559 C 73 571 31 581 11 591 Z M 301 -14 C 239 -10 185 -2 139 9 C 93 21 54 34 24 50 L 45 123 L 45 338 L -2 346 L 47 494 C 95 491 141 485 185 475 C 229 465 268 452 302 438 L 302 145 L 350 136 L 301 -14 Z" unicode="ī" />
<glyph horiz-adv-x="412" d="M 53 845 L 42 939 L 184 960 L 193 860 L 236 850 L 263 955 L 394 923 L 307 732 C 275 732 238 736 195 744 C 152 751 121 758 103 766 L 53 845 Z M 338 140 L 401 132 L 351 -17 C 292 -13 230 -5 164 7 C 98 19 46 33 8 49 L 51 172 L 82 165 L 82 519 L 19 527 L 58 676 C 116 672 179 664 246 652 C 313 639 365 625 403 610 L 365 487 L 338 494 L 338 140 Z" unicode="Ĭ" />
<glyph horiz-adv-x="355" d="M 22 651 L 10 748 L 158 774 L 169 668 L 211 658 L 239 768 L 373 733 L 284 534 C 250 536 211 540 169 548 C 127 555 96 562 77 570 L 22 651 Z M 45 123 L 45 338 L -2 346 L 47 494 C 95 491 141 485 185 475 C 229 465 268 452 302 438 L 302 145 L 350 136 L 301 -14 C 239 -10 185 -2 139 9 C 93 21 54 34 24 50 L 45 123 Z" unicode="ĭ" />
<glyph horiz-adv-x="412" d="M 337 140 L 400 132 L 351 -17 C 339 -16 328 -15 316 -14 C 304 -13 291 -12 279 -11 L 260 -62 L 354 -76 L 284 -209 C 257 -204 227 -196 194 -185 C 161 -174 134 -161 114 -147 L 114 -77 L 179 4 C 145 10 113 16 83 24 C 53 32 27 40 7 49 L 50 172 L 82 165 L 82 519 L 18 527 L 57 676 C 116 672 179 664 246 652 C 312 639 365 625 403 610 L 364 487 L 337 494 L 337 140 Z" unicode="Į" />
<glyph horiz-adv-x="355" d="M 295 668 L 236 521 L 92 564 L 92 724 C 127 721 164 714 203 703 C 242 692 273 680 295 668 Z M 333 -76 L 263 -209 C 236 -204 206 -196 174 -185 C 141 -174 114 -161 94 -147 L 94 -77 L 159 5 C 131 10 106 17 84 25 C 61 33 41 41 24 50 L 45 123 L 45 338 L -2 346 L 47 494 C 95 491 141 485 185 475 C 229 465 268 452 302 438 L 302 145 L 350 136 L 301 -14 C 293 -13 286 -12 279 -12 C 272 -11 265 -10 259 -10 L 240 -62 L 333 -76 Z" unicode="į" />
<glyph horiz-adv-x="412" d="M 338 870 L 279 731 L 130 774 L 130 929 C 170 925 209 917 248 905 C 287 893 317 882 338 870 Z M 351 -17 C 291 -13 229 -5 163 7 C 97 19 45 33 7 49 L 50 172 L 82 165 L 82 519 L 18 527 L 57 676 C 116 672 179 664 246 652 C 312 639 365 625 403 610 L 364 487 L 337 494 L 337 140 L 400 132 L 351 -17 Z" unicode="İ" />
<glyph horiz-adv-x="355" d="M 45 123 L 45 338 L -2 346 L 47 494 C 95 491 141 485 185 475 C 229 465 268 452 302 438 L 302 145 L 350 136 L 301 -14 C 239 -10 185 -2 139 9 C 93 21 54 34 24 50 L 45 123 Z" unicode="ı" />
<glyph horiz-adv-x="771" d="M 338 225 L 385 217 L 336 69 C 276 72 216 80 156 92 C 95 104 46 118 8 133 L 51 257 L 82 250 L 82 519 L 19 527 L 58 676 C 116 672 178 665 243 653 C 308 641 360 628 398 614 L 359 490 L 338 494 L 338 225 Z M 534 -80 C 502 -75 468 -66 431 -53 C 394 -40 364 -26 341 -12 L 397 151 L 476 82 L 476 515 L 403 528 L 452 675 C 512 668 563 659 606 649 C 648 638 690 624 731 608 L 731 23 L 534 -80 Z" unicode="Ĳ" />
<glyph horiz-adv-x="683" d="M 646 668 L 588 521 L 443 564 L 443 724 C 478 721 515 714 554 703 C 593 692 624 680 646 668 Z M 294 668 L 235 521 L 90 564 L 90 724 C 126 721 163 714 202 703 C 241 692 272 680 294 668 Z M 570 -205 C 544 -203 510 -197 467 -187 C 423 -176 392 -165 373 -155 L 399 -26 L 399 338 L 353 346 L 402 494 C 448 492 492 486 535 476 C 577 466 615 455 647 441 L 647 -62 L 570 -205 Z M 301 -14 C 239 -10 185 -2 139 9 C 93 21 54 34 24 50 L 45 123 L 45 338 L -2 346 L 47 494 C 95 491 141 485 185 475 C 229 465 268 452 302 438 L 302 145 L 350 136 L 301 -14 Z" unicode="ĳ" />
<glyph horiz-adv-x="419" d="M 417 873 L 363 721 L 208 807 L 188 739 L 76 772 L 142 958 C 190 954 243 943 300 925 C 357 907 396 889 417 873 Z M 182 -80 C 150 -75 116 -66 79 -53 C 42 -40 12 -26 -11 -12 L 45 151 L 124 82 L 124 511 L 14 529 L 63 676 C 125 671 183 663 237 651 C 291 639 338 623 379 605 L 379 23 L 182 -80 Z" unicode="Ĵ" />
<glyph horiz-adv-x="328" d="M 339 699 L 279 533 L 133 626 L 110 547 L 3 580 L 77 791 C 120 787 167 776 219 758 C 270 740 310 720 339 699 Z M 215 -205 C 189 -203 155 -197 112 -187 C 69 -176 38 -165 18 -155 L 44 -26 L 44 338 L -2 346 L 47 494 C 93 492 137 486 180 476 C 222 466 260 455 293 441 L 293 -62 L 215 -205 Z" unicode="ĵ" />
<glyph horiz-adv-x="702" d="M 392 38 L 366 166 L 308 218 L 308 127 L 355 118 L 307 -14 C 247 -10 194 -2 147 9 C 100 20 62 33 32 49 L 53 120 L 53 519 L 7 527 L 55 676 C 109 673 158 666 204 654 C 250 642 291 628 328 612 L 308 536 L 308 333 L 370 370 L 432 686 C 472 677 516 661 564 637 C 612 613 647 588 671 562 L 615 397 L 523 341 L 640 263 L 661 141 L 709 131 L 660 -14 C 600 -10 548 -3 504 5 C 460 13 422 24 392 38 Z M 455 -318 L 337 -290 L 366 -184 L 342 -18 C 374 -21 408 -28 442 -38 C 476 -48 506 -59 533 -73 L 542 -199 L 455 -318 Z" unicode="Ķ" />
<glyph horiz-adv-x="638" d="M 293 678 L 293 281 L 350 340 L 381 496 C 415 494 453 486 497 473 C 540 460 575 445 602 427 L 564 311 L 506 260 L 606 137 L 642 131 L 594 -14 C 556 -12 514 -7 469 1 C 424 9 390 18 367 28 L 353 120 L 293 184 L 293 112 L 331 104 L 292 -14 C 229 -10 176 -2 132 9 C 88 21 51 34 23 49 L 44 120 L 44 575 L -2 583 L 47 732 C 93 730 137 724 180 714 C 222 704 260 692 293 678 Z M 446 -322 L 328 -295 L 357 -189 L 333 -23 C 365 -25 399 -32 433 -42 C 467 -52 497 -64 524 -78 L 533 -203 L 446 -322 Z" unicode="ķ" />
<glyph horiz-adv-x="638" d="M 293 441 L 293 281 L 350 340 L 381 496 C 415 494 453 486 497 473 C 540 460 575 445 602 427 L 564 311 L 506 260 L 606 137 L 642 131 L 594 -14 C 556 -12 514 -7 469 1 C 424 9 390 18 367 28 L 353 120 L 293 184 L 293 112 L 331 104 L 292 -14 C 229 -10 176 -2 132 9 C 88 21 51 34 23 49 L 44 120 L 44 338 L -2 346 L 48 494 C 94 492 138 486 180 476 C 222 466 260 455 293 441 Z" unicode="ĸ" />
<glyph horiz-adv-x="497" d="M 220 716 L 103 750 L 145 929 C 193 923 238 909 280 887 C 322 865 353 841 375 815 L 220 716 Z M 328 -18 C 272 -10 222 -1 176 10 C 130 22 88 38 50 59 L 50 520 L 2 528 L 52 677 C 106 674 157 667 207 655 C 257 643 300 628 338 612 L 305 492 L 305 318 L 280 199 L 506 174 L 459 28 L 328 -18 Z" unicode="Ĺ" />
<glyph horiz-adv-x="338" d="M 202 759 L 85 793 L 127 972 C 175 966 220 952 262 930 C 304 908 335 884 357 858 L 202 759 Z M 292 -14 C 230 -9 176 -1 132 9 C 88 20 51 33 23 49 L 44 120 L 44 575 L -2 583 L 47 732 C 93 730 137 724 180 714 C 222 704 260 692 293 678 L 293 140 L 340 131 L 292 -14 Z" unicode="ĺ" />
<glyph horiz-adv-x="497" d="M 338 612 L 305 492 L 305 318 L 280 199 L 506 174 L 459 28 L 328 -18 C 272 -10 222 -1 176 10 C 130 22 88 38 50 59 L 50 520 L 2 528 L 52 677 C 106 674 157 667 207 655 C 257 643 300 628 338 612 Z M 250 -333 L 131 -306 L 160 -200 L 137 -34 C 169 -37 202 -44 236 -54 C 270 -64 300 -75 328 -89 L 337 -215 L 250 -333 Z" unicode="Ļ" />
<glyph horiz-adv-x="338" d="M 293 140 L 340 131 L 292 -14 C 230 -9 176 -1 132 9 C 88 20 51 33 23 49 L 44 120 L 44 575 L -2 583 L 47 732 C 93 730 137 724 180 714 C 222 704 260 692 293 678 L 293 140 Z M 185 -329 L 67 -302 L 96 -195 L 72 -29 C 104 -32 138 -39 172 -49 C 206 -59 236 -71 263 -85 L 272 -210 L 185 -329 Z" unicode="ļ" />
<glyph horiz-adv-x="573" d="M 376 551 L 352 718 C 384 714 418 707 452 697 C 486 687 516 675 543 662 L 552 537 L 465 418 L 346 445 L 376 551 Z M 328 -18 C 272 -10 222 -1 176 10 C 130 22 88 38 50 59 L 50 520 L 2 528 L 52 677 C 106 674 157 667 207 655 C 257 643 300 628 338 612 L 305 492 L 305 318 L 280 199 L 506 174 L 459 28 L 328 -18 Z" unicode="Ľ" />
<glyph horiz-adv-x="404" d="M 340 131 L 292 -14 C 230 -9 176 -1 132 9 C 88 20 51 33 23 49 L 44 120 L 44 575 L -2 583 L 47 732 C 84 730 120 726 155 720 C 190 713 222 704 252 694 L 236 808 C 268 804 302 797 336 787 C 370 777 400 765 427 752 L 436 627 L 349 508 L 293 521 L 293 140 L 340 131 Z" unicode="ľ" />
<glyph horiz-adv-x="520" d="M 338 612 L 305 492 L 305 318 L 280 199 L 506 174 L 459 28 L 328 -18 C 272 -10 222 -1 176 10 C 130 22 88 38 50 59 L 50 520 L 2 528 L 52 677 C 106 674 157 667 207 655 C 257 643 300 628 338 612 Z M 477 224 L 366 236 L 366 396 C 390 396 415 394 441 388 C 467 382 488 374 505 362 L 477 224 Z" unicode="Ŀ" />
<glyph horiz-adv-x="435" d="M 293 140 L 340 131 L 292 -14 C 230 -9 176 -1 132 9 C 88 20 51 33 23 49 L 44 120 L 44 575 L -2 583 L 47 732 C 93 730 137 724 180 714 C 222 704 260 692 293 678 L 293 140 Z M 426 191 L 330 205 L 330 365 C 351 365 373 364 396 360 C 418 356 437 351 453 344 L 426 191 Z" unicode="ŀ" />
<glyph horiz-adv-x="497" d="M 50 520 L 7 527 L 55 676 C 109 673 158 666 204 654 C 250 642 291 628 328 612 L 310 546 L 455 599 L 405 412 L 305 389 L 305 318 L 280 199 L 506 174 L 459 28 L 328 -18 C 272 -10 222 -1 176 10 C 130 22 88 38 50 59 L 50 333 L -5 321 L 19 441 L 50 452 L 50 520 Z" unicode="Ł" />
<glyph horiz-adv-x="338" d="M 0 400 L 19 529 L 44 542 L 44 575 L -2 583 L 47 732 C 93 730 137 724 179 714 C 221 704 258 692 290 678 L 380 728 L 342 503 L 293 487 L 293 140 L 340 131 L 292 -14 C 230 -9 176 -1 132 9 C 88 20 51 33 23 49 L 44 120 L 44 412 L 0 400 Z" unicode="ł" />
<glyph horiz-adv-x="708" d="M 391 739 L 273 773 L 315 951 C 364 945 409 931 451 909 C 493 887 524 863 546 837 L 391 739 Z M 577 -24 C 545 -19 514 -10 483 3 C 452 17 427 30 409 43 L 435 103 L 244 311 L 244 148 L 345 131 L 296 -14 C 234 -9 181 -1 137 9 C 93 20 56 33 27 49 L 49 120 L 49 513 L 2 521 L 52 670 C 98 668 140 662 179 652 C 217 642 253 630 286 616 L 464 391 L 464 511 L 386 524 L 429 670 C 479 668 527 661 573 649 C 619 637 657 624 686 608 L 667 540 L 667 146 L 693 49 L 577 -24 Z" unicode="Ń" />
<glyph horiz-adv-x="657" d="M 354 532 L 244 566 L 290 763 C 335 757 377 742 417 718 C 456 694 485 671 504 649 L 354 532 Z M 610 -14 C 551 -10 499 -2 454 9 C 409 20 372 33 342 49 L 363 120 L 363 315 L 293 328 L 293 138 L 330 131 L 287 -14 C 231 -9 179 -1 133 10 C 86 21 49 34 23 49 L 44 120 L 44 338 L -2 346 L 47 494 C 93 492 137 486 180 476 C 222 466 260 455 293 441 L 293 363 L 357 496 C 403 493 448 485 494 472 C 540 458 579 443 611 427 L 611 140 L 659 131 L 610 -14 Z" unicode="ń" />
<glyph horiz-adv-x="708" d="M 27 49 L 49 120 L 49 513 L 2 521 L 52 670 C 98 668 140 662 179 652 C 217 642 253 630 286 616 L 464 391 L 464 511 L 386 524 L 429 670 C 479 668 527 661 573 649 C 619 637 657 624 686 608 L 667 540 L 667 146 L 693 49 L 577 -24 C 545 -19 514 -10 483 3 C 452 17 427 30 409 43 L 435 103 L 244 311 L 244 148 L 345 131 L 296 -14 C 234 -9 181 -1 137 9 C 93 20 56 33 27 49 Z M 451 -303 L 332 -276 L 362 -169 L 338 -3 C 370 -6 404 -13 438 -23 C 472 -33 502 -45 529 -59 L 538 -184 L 451 -303 Z" unicode="Ņ" />
<glyph horiz-adv-x="657" d="M 293 138 L 330 131 L 287 -14 C 231 -9 179 -1 133 10 C 86 21 49 34 23 49 L 44 120 L 44 338 L -2 346 L 47 494 C 93 492 137 486 180 476 C 222 466 260 455 293 441 L 293 363 L 357 496 C 403 493 448 485 494 472 C 540 458 579 443 611 427 L 611 140 L 659 131 L 610 -14 C 551 -10 499 -2 454 9 C 409 20 372 33 342 49 L 363 120 L 363 315 L 293 328 L 293 138 Z M 443 -320 L 324 -293 L 354 -186 L 330 -20 C 362 -23 396 -30 430 -40 C 464 -50 494 -62 521 -76 L 530 -201 L 443 -320 Z" unicode="ņ" />
<glyph horiz-adv-x="708" d="M 195 820 L 250 973 L 405 887 L 425 955 L 537 922 L 471 736 C 417 740 363 750 309 768 C 255 786 217 803 195 820 Z M 577 -24 C 545 -19 514 -10 483 3 C 452 17 427 30 409 43 L 435 103 L 244 311 L 244 148 L 345 131 L 296 -14 C 234 -9 181 -1 137 9 C 93 20 56 33 27 49 L 49 120 L 49 513 L 2 521 L 52 670 C 98 668 140 662 179 652 C 217 642 253 630 286 616 L 464 391 L 464 511 L 386 524 L 429 670 C 479 668 527 661 573 649 C 619 637 657 624 686 608 L 667 540 L 667 146 L 693 49 L 577 -24 Z" unicode="Ň" />
<glyph horiz-adv-x="657" d="M 151 620 L 211 786 L 357 694 L 381 773 L 487 740 L 414 529 C 370 532 323 542 271 560 C 219 577 179 597 151 620 Z M 610 -14 C 551 -10 499 -2 454 9 C 409 20 372 33 342 49 L 363 120 L 363 315 L 293 328 L 293 138 L 330 131 L 287 -14 C 231 -9 179 -1 133 10 C 86 21 49 34 23 49 L 44 120 L 44 338 L -2 346 L 47 494 C 93 492 137 486 180 476 C 222 466 260 455 293 441 L 293 363 L 357 496 C 403 493 448 485 494 472 C 540 458 579 443 611 427 L 611 140 L 659 131 L 610 -14 Z" unicode="ň" />
<glyph horiz-adv-x="751" d="M 705 -14 C 645 -10 593 -2 549 9 C 504 20 467 33 437 49 L 458 120 L 458 315 L 388 328 L 388 138 L 425 131 L 382 -14 C 326 -9 274 -1 227 10 C 180 21 143 34 117 49 L 139 120 L 139 338 L 93 346 L 115 412 L 3 438 L 32 544 L 8 710 C 40 706 74 700 108 690 C 142 680 172 668 199 655 L 208 529 L 180 491 C 219 487 256 481 292 472 C 328 463 360 453 388 441 L 388 363 L 452 496 C 497 493 543 485 589 472 C 635 458 674 443 706 427 L 706 140 L 754 131 L 705 -14 Z" unicode="ŉ" />
<glyph horiz-adv-x="708" d="M 667 540 L 667 -102 L 510 -205 C 481 -201 450 -193 417 -182 C 384 -170 356 -158 332 -146 L 386 15 L 452 -43 L 456 81 L 244 311 L 244 148 L 345 131 L 296 -14 C 234 -9 181 -1 137 9 C 93 20 56 33 27 49 L 49 120 L 49 513 L 2 521 L 52 670 C 98 668 140 662 179 652 C 217 642 253 630 286 616 L 464 391 L 464 511 L 386 524 L 429 670 C 479 668 527 661 573 649 C 619 637 657 624 686 608 L 667 540 Z" unicode="Ŋ" />
<glyph horiz-adv-x="650" d="M 363 -43 L 363 315 L 293 328 L 293 138 L 330 131 L 287 -14 C 231 -9 179 -1 133 10 C 86 21 49 34 23 49 L 44 120 L 44 338 L -2 346 L 47 494 C 93 492 137 486 180 476 C 222 466 260 455 293 441 L 293 363 L 357 496 C 403 493 448 485 494 472 C 540 458 579 443 611 427 L 611 -102 L 421 -205 C 398 -201 373 -195 346 -187 C 318 -179 293 -169 271 -159 L 320 -5 L 363 -43 Z" unicode="ŋ" />
<glyph horiz-adv-x="666" d="M 175 790 L 197 906 L 520 892 L 495 737 C 437 739 374 746 307 758 C 239 770 195 780 175 790 Z M 366 -24 C 302 -17 241 -6 185 8 C 129 22 80 39 38 59 L 38 584 L 285 690 C 343 681 403 666 467 646 C 531 626 584 605 628 584 L 628 59 L 366 -24 Z M 383 144 L 383 480 L 303 497 L 303 257 L 275 169 L 383 144 Z" unicode="Ō" />
<glyph horiz-adv-x="571" d="M 140 591 L 162 716 L 462 702 L 437 538 C 384 540 326 547 264 559 C 202 571 160 581 140 591 Z M 336 -19 C 277 -15 223 -6 173 7 C 123 21 77 38 35 59 L 35 417 L 243 508 C 296 501 347 490 396 474 C 445 458 492 439 536 417 L 536 59 L 336 -19 Z M 324 144 L 324 318 L 254 330 L 254 158 L 324 144 Z" unicode="ō" />
<glyph horiz-adv-x="666" d="M 190 845 L 180 939 L 321 960 L 330 860 L 373 850 L 400 955 L 531 923 L 444 732 C 412 732 375 736 333 744 C 290 751 259 758 241 766 L 190 845 Z M 366 -24 C 302 -17 241 -6 185 8 C 129 22 80 39 38 59 L 38 584 L 285 690 C 343 681 403 666 467 646 C 531 626 584 605 628 584 L 628 59 L 366 -24 Z M 383 144 L 383 480 L 303 497 L 303 257 L 275 169 L 383 144 Z" unicode="Ŏ" />
<glyph horiz-adv-x="571" d="M 136 651 L 123 748 L 271 774 L 282 668 L 324 658 L 353 768 L 487 733 L 398 534 C 364 536 325 540 283 548 C 240 555 209 562 191 570 L 136 651 Z M 336 -19 C 277 -15 223 -6 173 7 C 123 21 77 38 35 59 L 35 417 L 243 508 C 296 501 347 490 396 474 C 445 458 492 439 536 417 L 536 59 L 336 -19 Z M 324 144 L 324 318 L 254 330 L 254 158 L 324 144 Z" unicode="ŏ" />
<glyph horiz-adv-x="666" d="M 497 729 L 383 763 L 441 939 C 483 933 522 920 559 901 C 595 882 621 863 636 845 L 497 729 Z M 238 732 L 124 766 L 181 935 C 223 929 262 916 299 897 C 335 878 361 859 376 841 L 238 732 Z M 366 -24 C 302 -17 241 -6 185 8 C 129 22 80 39 38 59 L 38 584 L 285 690 C 343 681 403 666 467 646 C 531 626 584 605 628 584 L 628 59 L 366 -24 Z M 383 144 L 383 480 L 303 497 L 303 257 L 275 169 L 383 144 Z" unicode="Ő" />
<glyph horiz-adv-x="571" d="M 416 538 L 329 572 L 393 766 C 432 756 465 742 493 725 C 520 708 543 690 562 672 L 416 538 Z M 192 538 L 105 572 L 169 766 C 209 756 242 742 270 725 C 297 708 320 690 338 672 L 192 538 Z M 336 -19 C 277 -15 223 -6 173 7 C 123 21 77 38 35 59 L 35 417 L 243 508 C 296 501 347 490 396 474 C 445 458 492 439 536 417 L 536 59 L 336 -19 Z M 324 144 L 324 318 L 254 330 L 254 158 L 324 144 Z" unicode="ő" />
<glyph horiz-adv-x="918" d="M 383 144 L 383 480 L 303 497 L 303 257 L 275 169 L 383 144 Z M 871 28 L 683 -31 C 647 -26 613 -19 582 -11 C 550 -2 521 7 495 17 L 366 -24 C 302 -17 241 -6 185 8 C 129 22 80 39 38 59 L 38 584 L 285 690 C 319 685 354 678 391 668 C 427 658 463 648 497 637 L 585 683 C 611 679 639 674 667 667 C 695 659 722 651 748 642 L 783 684 L 884 672 L 868 372 L 692 400 L 698 489 L 628 518 L 628 356 L 849 329 L 801 188 C 772 192 741 199 709 209 C 677 218 650 227 628 236 L 628 165 L 910 128 L 871 28 Z" unicode="Œ" />
<glyph horiz-adv-x="794" d="M 610 277 L 610 321 L 545 333 L 545 249 L 610 277 Z M 324 144 L 324 318 L 254 330 L 254 158 L 324 144 Z M 426 16 L 336 -19 C 277 -15 223 -6 173 7 C 123 21 77 38 35 59 L 35 417 L 243 508 C 273 503 303 497 333 491 C 363 484 392 476 420 467 L 495 508 C 545 502 593 491 639 475 C 685 459 727 439 765 417 L 765 223 L 546 185 L 546 160 L 777 138 L 742 28 L 593 -18 C 559 -14 528 -10 501 -4 C 474 1 449 8 426 16 Z" unicode="œ" />
<glyph horiz-adv-x="716" d="M 383 739 L 266 773 L 307 951 C 356 945 401 931 443 909 C 485 887 516 863 538 837 L 383 739 Z M 676 -14 C 621 -11 573 -6 532 2 C 491 10 456 19 427 31 L 392 133 L 327 179 L 327 112 L 379 105 L 337 -14 C 273 -11 217 -4 169 7 C 121 18 82 32 54 49 L 72 110 L 72 490 L 26 480 L -2 617 L 371 694 C 413 682 461 664 515 639 C 569 614 614 589 650 565 L 650 333 L 541 280 L 645 235 L 681 139 L 723 131 L 676 -14 Z M 327 281 L 406 314 L 406 501 L 327 523 L 327 281 Z" unicode="Ŕ" />
<glyph horiz-adv-x="449" d="M 245 532 L 136 566 L 182 763 C 226 757 268 742 308 718 C 347 694 376 671 395 649 L 245 532 Z M 364 132 L 315 -14 C 253 -11 196 -4 146 7 C 95 19 54 33 23 49 L 44 120 L 44 338 L -2 346 L 47 494 C 78 493 110 488 142 479 C 174 470 203 460 228 450 L 228 365 L 290 513 C 318 504 347 490 378 472 C 409 454 434 435 454 417 L 384 202 L 293 262 L 293 141 L 364 132 Z" unicode="ŕ" />
<glyph horiz-adv-x="716" d="M 723 131 L 676 -14 C 621 -11 573 -6 532 2 C 491 10 456 19 427 31 L 392 133 L 327 179 L 327 112 L 379 105 L 337 -14 C 273 -11 217 -4 169 7 C 121 18 82 32 54 49 L 72 110 L 72 490 L 26 480 L -2 617 L 371 694 C 413 682 461 664 515 639 C 569 614 614 589 650 565 L 650 333 L 541 280 L 645 235 L 681 139 L 723 131 Z M 327 281 L 406 314 L 406 501 L 327 523 L 327 281 Z M 494 -319 L 375 -292 L 405 -185 L 381 -19 C 413 -22 447 -29 481 -39 C 515 -49 545 -61 572 -75 L 581 -200 L 494 -319 Z" unicode="Ŗ" />
<glyph horiz-adv-x="449" d="M 293 141 L 364 132 L 315 -14 C 253 -11 196 -4 146 7 C 95 19 54 33 23 49 L 44 120 L 44 338 L -2 346 L 47 494 C 78 493 110 488 142 479 C 174 470 203 460 228 450 L 228 365 L 290 513 C 318 504 347 490 378 472 C 409 454 434 435 454 417 L 384 202 L 293 262 L 293 141 Z M 210 -342 L 92 -315 L 121 -209 L 97 -43 C 129 -46 163 -53 197 -63 C 231 -73 261 -84 288 -98 L 297 -224 L 210 -342 Z" unicode="ŗ" />
<glyph horiz-adv-x="716" d="M 182 809 L 236 962 L 391 876 L 411 944 L 523 911 L 458 724 C 404 728 350 739 296 757 C 242 775 204 792 182 809 Z M 676 -14 C 621 -11 573 -6 532 2 C 491 10 456 19 427 31 L 392 133 L 327 179 L 327 112 L 379 105 L 337 -14 C 273 -11 217 -4 169 7 C 121 18 82 32 54 49 L 72 110 L 72 490 L 26 480 L -2 617 L 371 694 C 413 682 461 664 515 639 C 569 614 614 589 650 565 L 650 333 L 541 280 L 645 235 L 681 139 L 723 131 L 676 -14 Z M 327 281 L 406 314 L 406 501 L 327 523 L 327 281 Z" unicode="Ř" />
<glyph horiz-adv-x="449" d="M -3 620 L 56 786 L 202 694 L 226 773 L 332 740 L 259 529 C 215 532 168 542 116 560 C 64 577 25 597 -3 620 Z M 364 132 L 315 -14 C 253 -11 196 -4 146 7 C 95 19 54 33 23 49 L 44 120 L 44 338 L -2 346 L 47 494 C 78 493 110 488 142 479 C 174 470 203 460 228 450 L 228 365 L 290 513 C 318 504 347 490 378 472 C 409 454 434 435 454 417 L 384 202 L 293 262 L 293 141 L 364 132 Z" unicode="ř" />
<glyph horiz-adv-x="550" d="M 328 739 L 210 773 L 252 951 C 300 945 346 931 388 909 C 430 887 461 863 483 837 L 328 739 Z M 301 -25 C 246 -18 189 -7 131 9 C 72 25 25 43 -10 63 L 55 257 L 258 129 L 258 182 L 52 332 L 41 591 L 270 692 C 328 682 378 668 422 650 C 465 632 506 611 544 588 L 445 409 L 323 502 L 323 445 L 510 299 L 521 46 L 301 -25 Z" unicode="Ś" />
<glyph horiz-adv-x="466" d="M 260 532 L 150 566 L 197 763 C 241 757 283 742 323 718 C 362 694 391 671 410 649 L 260 532 Z M 278 -19 C 228 -14 180 -6 135 4 C 89 15 47 30 7 49 L 55 188 L 159 134 L 159 176 L 36 266 L 36 417 L 194 504 C 240 499 286 490 332 477 C 378 463 421 447 459 427 L 405 279 L 310 348 L 310 293 L 434 194 L 434 49 L 278 -19 Z" unicode="ś" />
<glyph horiz-adv-x="550" d="M 461 873 L 407 721 L 252 807 L 232 739 L 120 772 L 185 958 C 234 954 287 943 344 925 C 400 907 439 889 461 873 Z M 301 -25 C 246 -18 189 -7 131 9 C 72 25 25 43 -10 63 L 55 257 L 258 129 L 258 182 L 52 332 L 41 591 L 270 692 C 328 682 378 668 422 650 C 465 632 506 611 544 588 L 445 409 L 323 502 L 323 445 L 510 299 L 521 46 L 301 -25 Z" unicode="Ŝ" />
<glyph horiz-adv-x="466" d="M 418 699 L 358 533 L 212 626 L 189 547 L 82 580 L 156 791 C 199 787 246 776 298 758 C 350 740 390 720 418 699 Z M 278 -19 C 228 -14 180 -6 135 4 C 89 15 47 30 7 49 L 55 188 L 159 134 L 159 176 L 36 266 L 36 417 L 194 504 C 240 499 286 490 332 477 C 378 463 421 447 459 427 L 405 279 L 310 348 L 310 293 L 434 194 L 434 49 L 278 -19 Z" unicode="ŝ" />
<glyph horiz-adv-x="550" d="M 156 -131 L 199 -8 C 159 0 120 11 83 23 C 45 35 14 49 -10 63 L 55 257 L 258 129 L 258 182 L 52 332 L 41 591 L 270 692 C 328 682 378 668 422 650 C 465 632 506 611 544 588 L 445 409 L 323 502 L 323 445 L 510 299 L 521 46 L 360 -6 L 366 -188 C 324 -185 284 -178 246 -167 C 208 -155 178 -143 156 -131 Z" unicode="Ş" />
<glyph horiz-adv-x="466" d="M 114 -131 L 159 -1 C 132 4 106 11 81 19 C 55 27 31 37 7 49 L 55 188 L 159 134 L 159 176 L 36 266 L 36 417 L 194 504 C 240 499 286 490 332 477 C 378 463 421 447 459 427 L 405 279 L 310 348 L 310 293 L 434 194 L 434 49 L 319 -1 L 324 -188 C 282 -185 242 -178 204 -167 C 166 -155 136 -143 114 -131 Z" unicode="ş" />
<glyph horiz-adv-x="550" d="M 108 820 L 163 973 L 318 887 L 338 955 L 450 922 L 384 736 C 330 740 276 750 222 768 C 168 786 130 803 108 820 Z M 301 -25 C 246 -18 189 -7 131 9 C 72 25 25 43 -10 63 L 55 257 L 258 129 L 258 182 L 52 332 L 41 591 L 270 692 C 328 682 378 668 422 650 C 465 632 506 611 544 588 L 445 409 L 323 502 L 323 445 L 510 299 L 521 46 L 301 -25 Z" unicode="Š" />
<glyph horiz-adv-x="466" d="M 64 620 L 124 786 L 270 694 L 294 773 L 400 740 L 327 529 C 283 532 236 542 184 560 C 132 577 92 597 64 620 Z M 278 -19 C 228 -14 180 -6 135 4 C 89 15 47 30 7 49 L 55 188 L 159 134 L 159 176 L 36 266 L 36 417 L 194 504 C 240 499 286 490 332 477 C 378 463 421 447 459 427 L 405 279 L 310 348 L 310 293 L 434 194 L 434 49 L 278 -19 Z" unicode="š" />
<glyph horiz-adv-x="539" d="M 406 -17 C 397 -16 388 -15 380 -15 C 371 -14 362 -13 354 -13 L 360 -188 C 318 -185 278 -178 240 -167 C 202 -155 171 -143 149 -131 L 199 9 C 176 13 155 18 136 24 C 116 29 99 35 84 42 L 125 164 L 125 444 L -15 469 L 51 664 L 388 646 L 425 690 L 527 679 L 510 403 L 381 426 L 381 148 L 459 140 L 406 -17 Z" unicode="Ţ" />
<glyph horiz-adv-x="394" d="M 332 -15 C 324 -14 317 -13 309 -13 C 301 -13 294 -12 287 -12 L 293 -188 C 251 -185 211 -178 173 -167 C 135 -155 104 -143 82 -131 L 134 15 C 117 19 101 24 86 30 C 70 36 56 42 44 49 L 44 314 L -8 346 L 31 457 L 68 464 L 141 671 C 160 667 180 662 200 654 C 220 646 238 639 252 631 L 281 468 L 368 468 L 368 312 L 293 312 L 293 156 L 384 146 L 332 -15 Z" unicode="ţ" />
<glyph horiz-adv-x="539" d="M 82 811 L 137 964 L 292 878 L 312 946 L 424 913 L 358 727 C 304 730 250 741 196 759 C 142 777 104 794 82 811 Z M 459 140 L 406 -17 C 348 -13 289 -6 229 3 C 169 13 121 26 84 42 L 125 164 L 125 444 L -15 469 L 51 664 L 388 646 L 425 690 L 527 679 L 510 403 L 381 426 L 381 148 L 459 140 Z" unicode="Ť" />
<glyph horiz-adv-x="404" d="M 384 146 L 332 -15 C 270 -12 215 -5 167 6 C 119 18 78 32 44 49 L 44 314 L -8 346 L 31 457 L 68 464 L 141 671 C 160 667 180 662 200 654 C 220 646 238 639 252 631 L 254 620 L 260 641 L 236 808 C 268 804 302 797 336 787 C 370 777 400 765 427 752 L 436 627 L 349 508 L 271 526 L 281 468 L 368 468 L 368 312 L 293 312 L 293 156 L 384 146 Z" unicode="ť" />
<glyph horiz-adv-x="539" d="M 88 384 L 125 381 L 125 444 L -15 469 L 51 664 L 388 646 L 425 690 L 527 679 L 510 403 L 381 426 L 381 358 L 467 351 L 420 215 C 413 215 406 215 400 215 C 394 215 387 216 381 217 L 381 134 L 455 127 L 406 -17 C 348 -13 289 -6 229 3 C 169 13 121 26 84 42 L 125 164 L 125 258 C 110 261 96 265 84 269 C 72 273 61 277 52 281 L 88 384 Z" unicode="Ŧ" />
<glyph horiz-adv-x="394" d="M 384 146 L 332 -15 C 270 -12 215 -5 167 6 C 119 18 78 32 44 49 L 44 201 L 9 225 L 44 301 L 44 348 L -2 380 L 31 457 L 68 464 L 141 671 C 160 667 180 662 200 654 C 220 646 238 639 252 631 L 281 468 L 368 468 L 368 346 L 293 346 L 293 313 L 368 313 L 368 191 L 293 191 L 293 156 L 384 146 Z" unicode="ŧ" />
<glyph horiz-adv-x="669" d="M 174 798 L 260 930 L 395 905 L 433 984 C 461 974 489 956 518 930 C 546 904 566 880 577 858 L 467 731 L 304 763 L 284 716 C 263 722 242 733 220 749 C 198 764 183 780 174 798 Z M 376 -24 C 312 -17 251 -6 195 8 C 138 22 89 39 47 59 L 47 519 L 1 527 L 51 676 C 104 673 156 666 206 654 C 256 642 299 628 336 612 L 315 536 L 315 253 L 287 165 L 412 134 L 412 520 L 349 529 L 401 679 C 442 675 486 667 533 655 C 580 643 621 628 655 612 L 636 536 L 636 59 L 376 -24 Z" unicode="Ũ" />
<glyph horiz-adv-x="657" d="M 154 621 L 240 754 L 364 725 L 401 805 C 429 794 458 776 486 750 C 514 724 534 700 546 678 L 435 551 L 284 586 L 263 540 C 243 546 222 557 200 572 C 178 587 163 603 154 621 Z M 364 115 L 299 -18 C 253 -15 208 -7 162 6 C 116 19 77 34 45 51 L 45 338 L -1 346 L 49 494 C 95 492 139 486 181 476 C 223 466 261 455 294 441 L 294 163 L 364 150 L 364 315 L 311 325 L 373 494 C 413 490 456 481 501 468 C 545 455 582 441 612 427 L 612 140 L 660 131 L 611 -14 C 565 -11 520 -5 477 3 C 433 11 396 23 364 37 L 364 115 Z" unicode="ũ" />
<glyph horiz-adv-x="669" d="M 191 790 L 212 906 L 536 892 L 511 737 C 453 739 390 746 323 758 C 255 770 211 780 191 790 Z M 376 -24 C 312 -17 251 -6 195 8 C 138 22 89 39 47 59 L 47 519 L 1 527 L 51 676 C 104 673 156 666 206 654 C 256 642 299 628 336 612 L 315 536 L 315 253 L 287 165 L 412 134 L 412 520 L 349 529 L 401 679 C 442 675 486 667 533 655 C 580 643 621 628 655 612 L 636 536 L 636 59 L 376 -24 Z" unicode="Ū" />
<glyph horiz-adv-x="657" d="M 175 591 L 197 716 L 497 702 L 472 538 C 419 540 361 547 299 559 C 237 571 195 581 175 591 Z M 364 115 L 299 -18 C 253 -15 208 -7 162 6 C 116 19 77 34 45 51 L 45 338 L -1 346 L 49 494 C 95 492 139 486 181 476 C 223 466 261 455 294 441 L 294 163 L 364 150 L 364 315 L 311 325 L 373 494 C 413 490 456 481 501 468 C 545 455 582 441 612 427 L 612 140 L 660 131 L 611 -14 C 565 -11 520 -5 477 3 C 433 11 396 23 364 37 L 364 115 Z" unicode="ū" />
<glyph horiz-adv-x="669" d="M 206 845 L 195 939 L 337 960 L 346 860 L 389 850 L 416 955 L 547 923 L 460 732 C 428 732 391 736 349 744 C 306 751 275 758 257 766 L 206 845 Z M 376 -24 C 312 -17 251 -6 195 8 C 138 22 89 39 47 59 L 47 519 L 1 527 L 51 676 C 104 673 156 666 206 654 C 256 642 299 628 336 612 L 315 536 L 315 253 L 287 165 L 412 134 L 412 520 L 349 529 L 401 679 C 442 675 486 667 533 655 C 580 643 621 628 655 612 L 636 536 L 636 59 L 376 -24 Z" unicode="Ŭ" />
<glyph horiz-adv-x="657" d="M 165 651 L 153 748 L 301 774 L 312 668 L 354 658 L 382 768 L 516 733 L 427 534 C 393 536 354 540 312 548 C 270 555 239 562 220 570 L 165 651 Z M 364 115 L 299 -18 C 253 -15 208 -7 162 6 C 116 19 77 34 45 51 L 45 338 L -1 346 L 49 494 C 95 492 139 486 181 476 C 223 466 261 455 294 441 L 294 163 L 364 150 L 364 315 L 311 325 L 373 494 C 413 490 456 481 501 468 C 545 455 582 441 612 427 L 612 140 L 660 131 L 611 -14 C 565 -11 520 -5 477 3 C 433 11 396 23 364 37 L 364 115 Z" unicode="ŭ" />
<glyph horiz-adv-x="669" d="M 504 937 L 504 810 L 417 734 C 383 735 348 740 312 748 C 276 756 245 767 221 780 L 221 939 L 341 994 C 370 989 399 981 427 971 C 455 961 481 949 504 937 Z M 382 814 L 382 901 L 345 907 L 345 820 L 382 814 Z M 376 -24 C 312 -17 251 -6 195 8 C 138 22 89 39 47 59 L 47 519 L 1 527 L 51 676 C 104 673 156 666 206 654 C 256 642 299 628 336 612 L 315 536 L 315 253 L 287 165 L 412 134 L 412 520 L 349 529 L 401 679 C 442 675 486 667 533 655 C 580 643 621 628 655 612 L 636 536 L 636 59 L 376 -24 Z" unicode="Ů" />
<glyph horiz-adv-x="657" d="M 473 728 L 473 601 L 386 525 C 352 526 318 531 282 539 C 246 547 215 558 191 571 L 191 730 L 311 785 C 340 780 369 772 397 762 C 425 752 450 740 473 728 Z M 351 605 L 351 692 L 314 698 L 314 611 L 351 605 Z M 364 115 L 299 -18 C 253 -15 208 -7 162 6 C 116 19 77 34 45 51 L 45 338 L -1 346 L 49 494 C 95 492 139 486 181 476 C 223 466 261 455 294 441 L 294 163 L 364 150 L 364 315 L 311 325 L 373 494 C 413 490 456 481 501 468 C 545 455 582 441 612 427 L 612 140 L 660 131 L 611 -14 C 565 -11 520 -5 477 3 C 433 11 396 23 364 37 L 364 115 Z" unicode="ů" />
<glyph horiz-adv-x="669" d="M 502 729 L 388 763 L 445 939 C 487 933 526 920 563 901 C 599 882 625 863 641 845 L 502 729 Z M 243 732 L 129 766 L 185 935 C 227 929 266 916 303 897 C 339 878 365 859 381 841 L 243 732 Z M 376 -24 C 312 -17 251 -6 195 8 C 138 22 89 39 47 59 L 47 519 L 1 527 L 51 676 C 104 673 156 666 206 654 C 256 642 299 628 336 612 L 315 536 L 315 253 L 287 165 L 412 134 L 412 520 L 349 529 L 401 679 C 442 675 486 667 533 655 C 580 643 621 628 655 612 L 636 536 L 636 59 L 376 -24 Z" unicode="Ű" />
<glyph horiz-adv-x="657" d="M 452 538 L 365 572 L 429 766 C 468 756 501 742 529 725 C 557 708 580 690 598 672 L 452 538 Z M 228 538 L 141 572 L 206 766 C 245 756 278 742 306 725 C 333 708 356 690 374 672 L 228 538 Z M 364 115 L 299 -18 C 253 -15 208 -7 162 6 C 116 19 77 34 45 51 L 45 338 L -1 346 L 49 494 C 95 492 139 486 181 476 C 223 466 261 455 294 441 L 294 163 L 364 150 L 364 315 L 311 325 L 373 494 C 413 490 456 481 501 468 C 545 455 582 441 612 427 L 612 140 L 660 131 L 611 -14 C 565 -11 520 -5 477 3 C 433 11 396 23 364 37 L 364 115 Z" unicode="ű" />
<glyph horiz-adv-x="669" d="M 636 59 L 491 13 L 463 -62 L 557 -76 L 487 -209 C 460 -204 430 -196 398 -185 C 365 -174 338 -161 318 -147 L 318 -77 L 361 -22 C 299 -15 242 -4 188 9 C 134 23 87 40 47 59 L 47 519 L 1 527 L 51 676 C 104 673 156 666 206 654 C 256 642 299 628 336 612 L 315 536 L 315 253 L 287 165 L 412 134 L 412 520 L 349 529 L 401 679 C 442 675 486 667 533 655 C 580 643 621 628 655 612 L 636 536 L 636 59 Z" unicode="Ų" />
<glyph horiz-adv-x="657" d="M 294 441 L 294 163 L 364 150 L 364 315 L 311 325 L 373 494 C 413 490 456 481 501 468 C 545 455 582 441 612 427 L 612 140 L 660 131 L 611 -14 L 562 -10 L 542 -62 L 636 -76 L 566 -209 C 539 -204 509 -196 477 -185 C 444 -174 417 -161 397 -147 L 397 -77 L 463 6 C 444 10 426 14 410 19 C 393 24 378 30 364 37 L 364 115 L 299 -18 C 253 -15 208 -7 162 6 C 116 19 77 34 45 51 L 45 338 L -1 346 L 49 494 C 95 492 139 486 181 476 C 223 466 261 455 294 441 Z" unicode="ų" />
<glyph horiz-adv-x="940" d="M 662 873 L 608 721 L 453 807 L 433 739 L 321 772 L 386 958 C 435 954 488 943 545 925 C 601 907 640 889 662 873 Z M 418 144 L 356 519 L 318 525 L 344 180 L 418 144 Z M 432 62 L 342 -25 C 302 -17 259 -6 214 9 C 168 25 134 40 112 55 L 26 518 L -10 524 L 38 673 C 83 671 132 666 186 658 C 240 649 280 639 307 629 L 323 675 C 375 673 428 665 482 652 C 536 639 577 628 603 618 L 650 162 L 672 158 L 729 481 L 627 496 L 699 685 C 741 679 786 667 835 650 C 884 632 921 616 946 601 L 946 505 L 819 44 L 651 -24 C 611 -16 570 -5 529 10 C 487 26 455 41 433 56 L 432 62 Z" unicode="Ŵ" />
<glyph horiz-adv-x="817" d="M 581 699 L 521 533 L 375 626 L 351 547 L 245 580 L 319 791 C 362 787 409 776 461 758 C 512 740 552 720 581 699 Z M 547 -23 C 515 -14 484 -3 454 9 C 423 22 395 37 370 53 L 322 -21 C 280 -15 235 -5 189 9 C 142 23 105 39 78 56 L 26 339 L -9 346 L 40 494 C 81 493 124 488 169 479 C 213 469 248 460 273 450 L 279 373 L 342 508 C 380 502 417 491 455 476 C 492 461 523 446 548 431 L 553 364 L 624 511 C 655 503 688 492 723 477 C 757 461 786 446 810 431 L 810 346 L 718 45 L 547 -23 Z M 602 133 L 619 325 L 554 337 L 566 150 L 602 133 Z M 357 136 L 333 323 L 282 337 L 297 149 L 357 136 Z" unicode="ŵ" />
<glyph horiz-adv-x="635" d="M 520 873 L 466 721 L 311 807 L 290 739 L 179 772 L 244 958 C 292 954 345 943 402 925 C 459 907 498 889 520 873 Z M 344 -36 C 308 -31 274 -22 240 -10 C 206 1 178 16 156 33 L 201 136 C 180 142 161 150 143 158 C 125 166 110 173 99 181 L 18 519 L -18 525 L 31 675 C 77 673 124 667 172 658 C 220 649 257 639 282 629 L 338 298 L 382 277 L 424 483 L 322 497 L 394 686 C 436 680 481 669 530 651 C 579 633 616 617 641 602 L 641 506 L 525 169 L 451 142 L 487 24 L 344 -36 Z" unicode="Ŷ" />
<glyph horiz-adv-x="556" d="M 487 699 L 427 533 L 281 626 L 258 547 L 151 580 L 225 791 C 268 787 315 776 367 758 C 419 740 459 720 487 699 Z M 408 -229 C 358 -226 308 -219 259 -208 C 209 -196 171 -183 145 -167 L 226 -10 C 204 -4 179 4 152 16 C 125 28 100 41 78 56 L 26 339 L -9 346 L 40 494 C 81 493 124 488 169 479 C 213 469 248 460 273 450 L 279 373 L 342 515 C 376 509 413 499 453 483 C 492 467 524 452 549 437 L 549 347 L 417 -54 L 408 -229 Z M 341 133 L 358 324 L 282 338 L 297 155 L 341 133 Z" unicode="ŷ" />
<glyph horiz-adv-x="635" d="M 557 901 L 503 736 L 366 776 L 366 956 C 402 953 438 946 473 936 C 508 925 536 913 557 901 Z M 276 751 L 148 789 L 148 953 C 184 950 217 944 249 936 C 281 927 307 916 328 903 L 276 751 Z M 344 -36 C 308 -31 274 -22 240 -10 C 206 1 178 16 156 33 L 201 136 C 180 142 161 150 143 158 C 125 166 110 173 99 181 L 18 519 L -18 525 L 31 675 C 77 673 124 667 172 658 C 220 649 257 639 282 629 L 338 298 L 382 277 L 424 483 L 322 497 L 394 686 C 436 680 481 669 530 651 C 579 633 616 617 641 602 L 641 506 L 525 169 L 451 142 L 487 24 L 344 -36 Z" unicode="Ÿ" />
<glyph horiz-adv-x="621" d="M 358 739 L 240 773 L 282 951 C 330 945 376 931 418 909 C 460 887 491 863 513 837 L 358 739 Z M 397 -32 C 335 -24 270 -12 202 2 C 134 17 77 36 30 59 L 30 192 L 119 224 L 298 471 L 184 508 L 204 375 L 78 331 C 67 353 58 388 50 436 C 42 483 37 534 36 588 L 241 685 C 269 678 303 668 342 656 C 381 644 415 630 444 616 L 490 685 C 508 676 526 664 544 648 C 561 632 575 616 586 600 L 586 437 L 485 315 L 611 298 L 589 49 L 397 -32 Z M 436 144 L 442 263 L 354 157 L 436 144 Z" unicode="Ź" />
<glyph horiz-adv-x="504" d="M 310 532 L 200 566 L 246 763 C 291 757 333 742 373 718 C 412 694 441 671 460 649 L 310 532 Z M 304 -32 C 256 -24 205 -11 151 6 C 97 23 53 41 19 59 L 19 169 L 129 214 L 201 304 L 137 313 L 119 240 L 36 259 L 36 417 L 195 513 C 231 505 275 491 326 473 C 376 454 418 435 451 417 L 451 323 L 293 166 L 375 153 L 386 240 L 502 219 L 470 45 L 304 -32 Z" unicode="ź" />
<glyph horiz-adv-x="621" d="M 446 870 L 387 731 L 238 774 L 238 929 C 278 925 317 917 356 905 C 395 893 425 882 446 870 Z M 397 -32 C 335 -24 270 -12 202 2 C 134 17 77 36 30 59 L 30 192 L 119 224 L 298 471 L 184 508 L 204 375 L 78 331 C 67 353 58 388 50 436 C 42 483 37 534 36 588 L 241 685 C 269 678 303 668 342 656 C 381 644 415 630 444 616 L 490 685 C 508 676 526 664 544 648 C 561 632 575 616 586 600 L 586 437 L 485 315 L 611 298 L 589 49 L 397 -32 Z M 436 144 L 442 263 L 354 157 L 436 144 Z" unicode="Ż" />
<glyph horiz-adv-x="504" d="M 392 668 L 333 521 L 189 564 L 189 724 C 224 721 261 714 300 703 C 339 692 370 680 392 668 Z M 304 -32 C 256 -24 205 -11 151 6 C 97 23 53 41 19 59 L 19 169 L 129 214 L 201 304 L 137 313 L 119 240 L 36 259 L 36 417 L 195 513 C 231 505 275 491 326 473 C 376 454 418 435 451 417 L 451 323 L 293 166 L 375 153 L 386 240 L 502 219 L 470 45 L 304 -32 Z" unicode="ż" />
<glyph horiz-adv-x="621" d="M 150 820 L 204 973 L 359 887 L 379 955 L 491 922 L 426 736 C 372 740 318 750 264 768 C 210 786 172 803 150 820 Z M 397 -32 C 335 -24 270 -12 202 2 C 134 17 77 36 30 59 L 30 192 L 119 224 L 298 471 L 184 508 L 204 375 L 78 331 C 67 353 58 388 50 436 C 42 483 37 534 36 588 L 241 685 C 269 678 303 668 342 656 C 381 644 415 630 444 616 L 490 685 C 508 676 526 664 544 648 C 561 632 575 616 586 600 L 586 437 L 485 315 L 611 298 L 589 49 L 397 -32 Z M 436 144 L 442 263 L 354 157 L 436 144 Z" unicode="Ž" />
<glyph horiz-adv-x="504" d="M 80 620 L 140 786 L 286 694 L 310 773 L 416 740 L 342 529 C 298 532 251 542 200 560 C 148 577 108 597 80 620 Z M 304 -32 C 256 -24 205 -11 151 6 C 97 23 53 41 19 59 L 19 169 L 129 214 L 201 304 L 137 313 L 119 240 L 36 259 L 36 417 L 195 513 C 231 505 275 491 326 473 C 376 454 418 435 451 417 L 451 323 L 293 166 L 375 153 L 386 240 L 502 219 L 470 45 L 304 -32 Z" unicode="ž" />
<glyph horiz-adv-x="594" d="M 347 -24 C 278 -11 221 5 177 25 C 132 45 84 70 34 101 L 33 362 L 322 421 L 322 486 L 18 518 L 62 637 L 231 690 C 307 682 368 669 416 652 C 463 634 514 611 568 583 L 568 101 L 347 -24 Z M 323 169 L 322 329 L 237 290 L 238 191 L 323 169 Z" unicode="Ə" />
<glyph horiz-adv-x="397" d="M 104 -16 L 94 275 L 0 288 L 41 419 L 79 427 L 42 625 L 164 747 C 204 742 246 734 288 722 C 330 710 367 696 399 681 L 336 507 L 253 547 L 263 431 L 367 431 L 367 270 L 284 270 L 349 -77 L 205 -199 C 165 -195 124 -186 82 -174 C 40 -161 4 -147 -24 -133 L 33 29 L 104 -16 Z" unicode="ƒ" />
<glyph horiz-adv-x="708" d="M 244 -102 L 103 -205 C 74 -201 43 -193 10 -182 C -22 -170 -51 -158 -75 -146 L -21 15 L 45 -43 L 49 513 L 2 521 L 52 670 C 98 668 140 662 179 652 C 217 642 253 630 286 616 L 464 391 L 464 511 L 386 524 L 429 670 C 479 668 527 661 573 649 C 619 637 657 624 686 608 L 667 540 L 667 146 L 693 49 L 577 -24 C 545 -19 514 -10 483 3 C 452 17 427 30 409 43 L 435 103 L 244 311 L 244 -102 Z" unicode="Ɲ" />
<glyph horiz-adv-x="660" d="M 141 820 L 195 973 L 350 887 L 371 955 L 482 922 L 417 736 C 363 740 309 750 255 768 C 201 786 163 803 141 820 Z M 626 304 L 612 -73 C 575 -68 536 -61 494 -51 C 452 -41 419 -30 394 -18 L 409 104 L 332 -20 C 284 -14 232 -3 176 12 C 120 28 74 46 38 64 L 38 606 L 292 692 C 348 687 404 677 462 662 C 519 646 568 627 610 605 L 506 408 L 311 506 L 311 171 L 416 155 L 420 201 L 356 212 L 401 356 C 446 354 487 349 524 339 C 561 329 595 318 626 304 Z" unicode="Ǧ" />
<glyph horiz-adv-x="574" d="M 65 620 L 125 786 L 271 694 L 295 773 L 401 740 L 328 529 C 284 532 237 542 185 560 C 133 577 93 597 65 620 Z M 14 -125 L 67 34 L 165 84 C 140 91 115 101 91 113 C 67 125 47 137 33 148 L 33 417 L 232 504 C 252 502 277 497 309 489 C 340 481 365 473 383 467 L 416 614 C 444 607 474 597 505 583 C 535 569 560 556 579 545 L 579 466 L 464 432 C 471 428 481 424 493 418 C 505 412 517 406 529 399 L 529 142 L 349 97 L 349 84 L 559 42 L 559 -131 L 297 -224 C 246 -215 196 -203 148 -187 C 100 -171 55 -150 14 -125 Z M 316 189 L 316 331 L 258 344 L 258 202 L 316 189 Z M 323 -96 L 323 -37 L 218 -12 L 218 -56 L 323 -96 Z" unicode="ǧ" />
<glyph horiz-adv-x="666" d="M 389 -209 C 361 -204 331 -196 299 -185 C 266 -174 239 -161 219 -147 L 219 -77 L 272 -11 C 227 -2 185 7 145 19 C 105 31 70 44 38 59 L 38 584 L 285 690 C 343 681 403 666 467 646 C 531 626 584 605 628 584 L 628 59 L 381 -19 L 365 -62 L 459 -76 L 389 -209 Z M 383 144 L 383 480 L 303 497 L 303 257 L 275 169 L 383 144 Z" unicode="Ǫ" />
<glyph horiz-adv-x="571" d="M 355 -209 C 327 -204 297 -196 265 -185 C 232 -174 205 -161 185 -147 L 185 -77 L 240 -7 C 202 0 166 8 132 20 C 98 31 65 44 35 59 L 35 417 L 243 508 C 296 501 347 490 396 474 C 445 458 492 439 536 417 L 536 59 L 349 -14 L 331 -62 L 425 -76 L 355 -209 Z M 324 144 L 324 318 L 254 330 L 254 158 L 324 144 Z" unicode="ǫ" />
<glyph horiz-adv-x="683" d="M 394 724 C 360 725 325 730 289 738 C 253 746 222 757 198 770 L 198 929 L 318 984 C 321 983 325 982 329 982 C 333 981 336 980 340 980 L 382 1161 C 426 1155 468 1140 508 1116 C 547 1092 576 1069 595 1047 L 457 939 C 461 937 465 935 469 933 C 473 931 477 929 481 927 L 481 800 L 394 724 Z M 359 804 L 359 891 L 321 897 L 321 810 L 359 804 Z M 365 49 L 384 110 L 381 157 L 266 169 L 260 120 L 308 112 L 268 -14 C 214 -10 164 -2 120 9 C 76 21 41 34 15 49 L 128 582 L 308 683 C 358 675 409 660 462 638 C 514 616 557 596 589 576 L 649 140 L 694 131 L 646 -14 C 584 -10 529 -2 482 9 C 435 20 396 33 365 49 Z M 372 277 L 356 478 L 298 493 L 279 307 L 372 277 Z" unicode="Ǻ" />
<glyph horiz-adv-x="553" d="M 329 515 C 295 516 260 521 224 529 C 188 537 157 548 133 561 L 133 720 L 253 775 C 256 774 259 773 263 773 C 267 772 270 771 274 771 L 316 953 C 360 947 402 932 442 908 C 481 884 510 861 529 839 L 391 731 C 395 729 399 726 403 724 C 407 722 412 720 416 718 L 416 591 L 329 515 Z M 294 595 L 294 682 L 256 688 L 256 601 L 294 595 Z M 201 181 L 201 154 L 267 134 L 267 208 L 201 181 Z M 267 96 L 224 -15 C 186 -10 149 -2 113 9 C 76 21 45 34 20 49 L 20 231 L 266 273 L 266 306 L 56 333 L 134 502 C 206 497 272 488 333 474 C 394 460 452 441 507 417 L 507 140 L 555 131 L 506 -14 C 462 -11 418 -6 375 2 C 331 10 295 20 267 32 L 267 96 Z" unicode="ǻ" />
<glyph horiz-adv-x="907" d="M 465 739 L 348 773 L 389 951 C 438 945 483 931 525 909 C 567 887 598 863 620 837 L 465 739 Z M 298 493 L 279 307 L 373 277 L 376 320 L 356 478 L 298 493 Z M 861 28 L 672 -31 C 610 -22 550 -10 490 6 C 430 22 383 38 349 56 L 364 159 L 266 169 L 260 120 L 308 112 L 268 -14 C 214 -10 164 -2 120 9 C 76 21 41 34 15 49 L 128 582 L 308 683 C 333 679 359 673 386 665 C 413 657 439 647 464 637 L 575 683 C 601 679 629 674 657 667 C 685 659 712 651 738 642 L 773 684 L 873 672 L 858 372 L 681 400 L 688 490 L 607 522 L 624 357 L 838 329 L 791 188 C 763 193 733 201 699 211 C 665 221 638 231 618 242 L 601 167 L 899 128 L 861 28 Z" unicode="Ǽ" />
<glyph horiz-adv-x="757" d="M 378 532 L 269 566 L 315 763 C 359 757 401 742 441 718 C 480 694 509 671 528 649 L 378 532 Z M 573 277 L 573 321 L 507 333 L 507 249 L 573 277 Z M 267 134 L 267 208 L 201 181 L 201 154 L 267 134 Z M 305 53 L 264 -24 C 223 -19 178 -9 130 5 C 82 19 45 34 20 49 L 20 231 L 266 273 L 266 306 L 56 333 L 134 502 C 176 499 217 495 257 489 C 296 483 334 475 370 466 L 458 508 C 508 502 556 491 602 475 C 648 459 690 439 728 417 L 728 223 L 508 185 L 508 160 L 740 138 L 705 28 L 556 -18 C 502 -12 456 -4 418 7 C 380 18 343 33 305 53 Z" unicode="ǽ" />
<glyph horiz-adv-x="666" d="M 386 739 L 269 773 L 311 951 C 359 945 404 931 446 909 C 488 887 519 863 541 837 L 386 739 Z M 383 144 L 383 480 L 303 497 L 303 257 L 275 169 L 383 144 Z M 150 -9 L 90 -97 L -28 -14 L 38 60 L 38 584 L 285 690 C 311 686 339 680 368 674 C 397 667 426 659 454 651 L 479 683 L 544 777 L 662 694 L 584 606 L 583 605 C 591 601 598 598 606 594 C 614 590 621 587 628 584 L 628 59 L 366 -24 C 330 -20 295 -14 262 -8 C 228 -2 197 5 167 13 L 150 -9 Z" unicode="Ǿ" />
<glyph horiz-adv-x="571" d="M 336 532 L 226 566 L 272 763 C 317 757 359 742 399 718 C 438 694 467 671 486 649 L 336 532 Z M 324 144 L 324 318 L 254 330 L 254 158 L 324 144 Z M 336 -19 C 311 -17 287 -15 265 -11 C 242 -7 220 -3 200 1 L 130 -113 L 7 -35 L 68 44 C 62 46 56 49 51 51 C 45 53 40 56 35 59 L 35 417 L 243 508 C 269 504 294 500 319 495 C 343 489 367 483 391 476 L 396 483 L 467 598 L 590 521 L 517 426 C 520 424 523 423 527 421 C 530 419 533 418 536 417 L 536 59 L 336 -19 Z" unicode="ǿ" />
<glyph horiz-adv-x="550" d="M 258 182 L 52 332 L 41 591 L 270 692 C 328 682 378 668 422 650 C 465 632 506 611 544 588 L 445 409 L 323 502 L 323 445 L 510 299 L 521 46 L 301 -25 C 246 -18 189 -7 131 9 C 72 25 25 43 -10 63 L 55 257 L 258 129 L 258 182 Z M 292 -346 L 173 -319 L 202 -212 L 179 -46 C 211 -49 244 -56 278 -66 C 312 -76 342 -88 370 -102 L 379 -227 L 292 -346 Z" unicode="Ș" />
<glyph horiz-adv-x="466" d="M 459 427 L 405 279 L 310 348 L 310 293 L 434 194 L 434 49 L 278 -19 C 228 -14 180 -6 135 4 C 89 15 47 30 7 49 L 55 188 L 159 134 L 159 176 L 36 266 L 36 417 L 194 504 C 240 499 286 490 332 477 C 378 463 421 447 459 427 Z M 242 -347 L 123 -320 L 153 -214 L 129 -47 C 161 -50 195 -57 229 -67 C 263 -77 293 -89 320 -103 L 329 -228 L 242 -347 Z" unicode="ș" />
<glyph horiz-adv-x="539" d="M 381 148 L 459 140 L 406 -17 C 348 -13 289 -6 229 3 C 169 13 121 26 84 42 L 125 164 L 125 444 L -15 469 L 51 664 L 388 646 L 425 690 L 527 679 L 510 403 L 381 426 L 381 148 Z M 267 -331 L 148 -304 L 177 -198 L 154 -32 C 186 -34 219 -41 253 -51 C 287 -61 317 -73 345 -87 L 354 -212 L 267 -331 Z" unicode="Ț" />
<glyph horiz-adv-x="394" d="M 384 146 L 332 -15 C 270 -12 215 -5 167 6 C 119 18 78 32 44 49 L 44 314 L -8 346 L 31 457 L 68 464 L 141 671 C 160 667 180 662 200 654 C 220 646 238 639 252 631 L 281 468 L 368 468 L 368 312 L 293 312 L 293 156 L 384 146 Z M 209 -333 L 90 -306 L 120 -200 L 96 -34 C 128 -37 162 -44 196 -54 C 230 -64 260 -75 287 -89 L 296 -215 L 209 -333 Z" unicode="ț" />
<glyph horiz-adv-x="635" d="M 156 790 L 177 906 L 500 892 L 476 737 C 418 739 355 746 288 758 C 220 770 176 780 156 790 Z M 282 629 L 338 298 L 382 277 L 424 483 L 322 497 L 394 686 C 436 680 481 669 530 651 C 579 633 616 617 641 602 L 641 506 L 525 169 L 451 142 L 487 24 L 344 -36 C 308 -31 274 -22 240 -10 C 206 1 178 16 156 33 L 201 136 C 180 142 161 150 143 158 C 125 166 110 173 99 181 L 18 519 L -18 525 L 31 675 C 77 673 124 667 172 658 C 220 649 257 639 282 629 Z" unicode="Ȳ" />
<glyph horiz-adv-x="556" d="M 129 591 L 151 716 L 451 702 L 426 538 C 373 540 315 547 253 559 C 191 571 149 581 129 591 Z M 145 -167 L 226 -10 C 204 -4 179 4 152 16 C 125 28 100 41 78 56 L 26 339 L -9 346 L 40 494 C 81 493 124 488 169 479 C 213 469 248 460 273 450 L 279 373 L 342 515 C 376 509 413 499 453 483 C 492 467 524 452 549 437 L 549 347 L 417 -54 L 408 -229 C 358 -226 308 -219 259 -208 C 209 -196 171 -183 145 -167 Z M 341 133 L 358 324 L 282 338 L 297 155 L 341 133 Z" unicode="ȳ" />
<glyph horiz-adv-x="328" d="M 44 338 L -2 346 L 47 494 C 93 492 137 486 180 476 C 222 466 260 455 293 441 L 293 -62 L 215 -205 C 189 -203 155 -197 112 -187 C 69 -176 38 -165 18 -155 L 44 -26 L 44 338 Z" unicode="ȷ" />
<glyph horiz-adv-x="521" d="M 201 509 C 257 503 308 494 355 482 C 402 470 446 453 486 432 L 486 74 L 300 -18 C 250 -12 201 -1 155 15 C 109 31 67 51 29 74 L 29 268 L 249 306 L 249 331 L 17 353 L 52 463 L 201 509 Z M 250 242 L 184 214 L 184 170 L 250 158 L 250 242 Z" unicode="ə" />
<glyph horiz-adv-x="657" d="M 103 -205 C 80 -201 55 -195 27 -187 C 0 -179 -25 -169 -48 -159 L 1 -5 L 44 -43 L 44 338 L -2 346 L 47 494 C 93 492 137 486 180 476 C 222 466 260 455 293 441 L 293 363 L 357 496 C 403 493 448 485 494 472 C 540 458 579 443 611 427 L 611 140 L 659 131 L 610 -14 C 551 -10 499 -2 454 9 C 409 20 372 33 342 49 L 363 120 L 363 315 L 293 328 L 293 -102 L 103 -205 Z" unicode="ɲ" />
<glyph horiz-adv-x="410" d="M 390 699 L 330 533 L 184 626 L 160 547 L 54 580 L 128 791 C 171 787 218 776 270 758 C 321 740 361 720 390 699 Z" unicode="ˆ" />
<glyph horiz-adv-x="410" d="M 55 620 L 115 786 L 261 694 L 285 773 L 391 740 L 318 529 C 274 532 227 542 175 560 C 123 577 83 597 55 620 Z" unicode="ˇ" />
<glyph horiz-adv-x="414" d="M 51 790 L 72 906 L 395 892 L 371 737 C 313 739 250 746 183 758 C 115 770 71 780 51 790 Z" unicode="ˉ" />
<glyph horiz-adv-x="410" d="M 61 651 L 49 748 L 197 774 L 208 668 L 250 658 L 278 768 L 412 733 L 323 534 C 289 536 250 540 208 548 C 166 555 135 562 116 570 L 61 651 Z" unicode="˘" />
<glyph horiz-adv-x="366" d="M 302 668 L 243 521 L 98 564 L 98 724 C 133 721 170 714 210 703 C 249 692 280 680 302 668 Z" unicode="˙" />
<glyph horiz-adv-x="358" d="M 319 728 L 319 601 L 232 525 C 198 526 163 531 127 539 C 91 547 60 558 36 571 L 36 730 L 156 785 C 185 780 214 772 242 762 C 270 752 296 740 319 728 Z M 197 605 L 197 692 L 159 698 L 159 611 L 197 605 Z" unicode="˚" />
<glyph horiz-adv-x="366" d="M 227 14 L 199 -62 L 293 -76 L 223 -209 C 195 -204 165 -196 133 -185 C 100 -174 73 -161 53 -147 L 53 -77 L 134 25 L 227 14 Z" unicode="˛" />
<glyph horiz-adv-x="427" d="M 24 621 L 110 754 L 234 725 L 271 805 C 299 794 328 776 356 750 C 384 724 404 700 416 678 L 305 551 L 154 586 L 133 540 C 113 546 92 557 70 572 C 48 587 33 603 24 621 Z" unicode="˜" />
<glyph horiz-adv-x="539" d="M 373 538 L 286 572 L 350 766 C 389 756 422 742 450 725 C 478 708 501 690 519 672 L 373 538 Z M 149 538 L 62 572 L 127 766 C 166 756 199 742 227 725 C 254 708 277 690 295 672 L 149 538 Z" unicode="˝" />
<glyph horiz-adv-x="366" d="M 67 -189 L 125 -50 L 274 -93 L 274 -248 C 234 -244 194 -236 156 -224 C 117 -212 87 -201 67 -189 Z" unicode="̣" />
<glyph horiz-adv-x="349" d="M 96 11 L 72 177 C 104 174 138 167 172 157 C 206 147 236 135 263 122 L 272 -3 L 185 -122 L 67 -95 L 96 11 Z" unicode="̦" />
<glyph horiz-adv-x="583" d="M 328 651 L 553 31 L 510 -22 C 497 -24 483 -25 467 -27 C 451 -28 437 -29 424 -29 C 362 -29 292 -21 216 -7 C 139 7 79 25 37 46 L 267 618 L 328 651 Z M 455 16 L 505 16 L 299 589 L 92 81 C 130 62 185 46 258 34 C 330 22 396 16 455 16 Z" unicode="Δ" />
<glyph horiz-adv-x="722" d="M 604 -19 C 574 -17 543 -13 510 -5 C 476 2 446 9 418 16 L 418 153 L 563 227 L 563 522 C 540 536 505 551 457 569 C 409 586 371 597 344 602 L 186 537 L 186 228 C 200 219 221 209 249 199 C 276 188 303 178 330 170 L 330 48 L 262 4 C 232 5 197 9 157 17 C 117 25 83 32 55 39 L 61 156 L 113 142 L 104 78 C 130 72 160 66 193 61 C 225 55 254 52 278 50 L 278 135 C 249 145 221 156 195 169 C 169 181 148 194 134 207 L 134 555 L 356 647 C 396 641 443 628 497 607 C 551 585 590 564 615 543 L 615 208 L 470 139 L 470 53 C 498 46 526 40 553 35 C 580 29 605 26 629 26 L 635 143 L 687 129 L 672 25 L 604 -19 Z" unicode="Ω" />
<glyph horiz-adv-x="533" d="M 247 -17 C 229 -14 209 -9 189 -2 C 168 5 148 13 130 23 L 140 -207 L 80 -194 L 83 54 L 83 458 C 91 457 100 456 109 455 C 117 454 126 453 135 451 L 135 74 C 151 66 170 58 193 50 C 215 42 236 36 255 33 L 370 114 L 370 458 C 378 457 387 456 396 455 C 404 454 413 453 422 451 L 422 45 L 512 34 L 498 -9 C 470 -6 446 -3 425 1 C 403 5 385 11 370 19 L 370 82 L 247 -17 Z" unicode="μ" />
<glyph horiz-adv-x="524" d="M 480 34 L 466 -9 C 438 -6 414 -3 394 1 C 373 5 355 11 340 19 C 340 19 340 74 340 185 C 340 295 340 370 340 408 C 313 410 285 412 256 414 C 227 416 198 418 169 420 L 154 -7 L 97 6 L 112 170 L 128 423 C 112 423 96 424 80 425 C 64 425 49 426 35 427 L 50 475 C 129 473 215 466 308 456 C 400 446 462 436 493 428 L 477 394 C 465 395 451 396 437 398 C 422 400 406 401 390 403 L 390 45 L 480 34 Z" unicode="π" />
<glyph horiz-adv-x="940" d="M 613 763 L 470 727 L 326 833 C 349 856 379 878 416 899 C 453 919 491 934 529 943 L 613 763 Z M 418 144 L 356 519 L 318 525 L 344 180 L 418 144 Z M 432 62 L 342 -25 C 302 -17 259 -6 214 9 C 168 25 134 40 112 55 L 26 518 L -10 524 L 38 673 C 83 671 132 666 186 658 C 240 649 280 639 307 629 L 323 675 C 375 673 428 665 482 652 C 536 639 577 628 603 618 L 650 162 L 672 158 L 729 481 L 627 496 L 699 685 C 741 679 786 667 835 650 C 884 632 921 616 946 601 L 946 505 L 819 44 L 651 -24 C 611 -16 570 -5 529 10 C 487 26 455 41 433 56 L 432 62 Z" unicode="Ẁ" />
<glyph horiz-adv-x="817" d="M 552 577 L 409 541 L 265 672 C 287 696 317 718 355 738 C 392 758 430 772 468 782 L 552 577 Z M 547 -23 C 515 -14 484 -3 454 9 C 423 22 395 37 370 53 L 322 -21 C 280 -15 235 -5 189 9 C 142 23 105 39 78 56 L 26 339 L -9 346 L 40 494 C 81 493 124 488 169 479 C 213 469 248 460 273 450 L 279 373 L 342 508 C 380 502 417 491 455 476 C 492 461 523 446 548 431 L 553 364 L 624 511 C 655 503 688 492 723 477 C 757 461 786 446 810 431 L 810 346 L 718 45 L 547 -23 Z M 602 133 L 619 325 L 554 337 L 566 150 L 602 133 Z M 357 136 L 333 323 L 282 337 L 297 149 L 357 136 Z" unicode="ẁ" />
<glyph horiz-adv-x="940" d="M 551 729 L 434 763 L 475 941 C 524 935 569 921 611 899 C 653 877 684 853 706 827 L 551 729 Z M 418 144 L 356 519 L 318 525 L 344 180 L 418 144 Z M 432 62 L 342 -25 C 302 -17 259 -6 214 9 C 168 25 134 40 112 55 L 26 518 L -10 524 L 38 673 C 83 671 132 666 186 658 C 240 649 280 639 307 629 L 323 675 C 375 673 428 665 482 652 C 536 639 577 628 603 618 L 650 162 L 672 158 L 729 481 L 627 496 L 699 685 C 741 679 786 667 835 650 C 884 632 921 616 946 601 L 946 505 L 819 44 L 651 -24 C 611 -16 570 -5 529 10 C 487 26 455 41 433 56 L 432 62 Z" unicode="Ẃ" />
<glyph horiz-adv-x="817" d="M 388 532 L 279 566 L 325 763 C 369 757 411 742 451 718 C 490 694 519 671 538 649 L 388 532 Z M 547 -23 C 515 -14 484 -3 454 9 C 423 22 395 37 370 53 L 322 -21 C 280 -15 235 -5 189 9 C 142 23 105 39 78 56 L 26 339 L -9 346 L 40 494 C 81 493 124 488 169 479 C 213 469 248 460 273 450 L 279 373 L 342 508 C 380 502 417 491 455 476 C 492 461 523 446 548 431 L 553 364 L 624 511 C 655 503 688 492 723 477 C 757 461 786 446 810 431 L 810 346 L 718 45 L 547 -23 Z M 602 133 L 619 325 L 554 337 L 566 150 L 602 133 Z M 357 136 L 333 323 L 282 337 L 297 149 L 357 136 Z" unicode="ẃ" />
<glyph horiz-adv-x="940" d="M 705 850 L 649 703 L 501 746 L 501 912 C 543 909 583 902 619 890 C 655 878 684 864 705 850 Z M 412 720 L 274 759 L 274 909 C 305 908 340 903 378 893 C 416 883 445 871 466 857 L 412 720 Z M 418 144 L 356 519 L 318 525 L 344 180 L 418 144 Z M 432 62 L 342 -25 C 302 -17 259 -6 214 9 C 168 25 134 40 112 55 L 26 518 L -10 524 L 38 673 C 83 671 132 666 186 658 C 240 649 280 639 307 629 L 323 675 C 375 673 428 665 482 652 C 536 639 577 628 603 618 L 650 162 L 672 158 L 729 481 L 627 496 L 699 685 C 741 679 786 667 835 650 C 884 632 921 616 946 601 L 946 505 L 819 44 L 651 -24 C 611 -16 570 -5 529 10 C 487 26 455 41 433 56 L 432 62 Z" unicode="Ẅ" />
<glyph horiz-adv-x="817" d="M 613 687 L 559 522 L 422 563 L 422 742 C 458 740 494 733 529 722 C 564 711 592 699 613 687 Z M 332 538 L 204 575 L 204 739 C 240 736 274 730 306 722 C 337 713 363 702 384 689 L 332 538 Z M 547 -23 C 515 -14 484 -3 454 9 C 423 22 395 37 370 53 L 322 -21 C 280 -15 235 -5 189 9 C 142 23 105 39 78 56 L 26 339 L -9 346 L 40 494 C 81 493 124 488 169 479 C 213 469 248 460 273 450 L 279 373 L 342 508 C 380 502 417 491 455 476 C 492 461 523 446 548 431 L 553 364 L 624 511 C 655 503 688 492 723 477 C 757 461 786 446 810 431 L 810 346 L 718 45 L 547 -23 Z M 602 133 L 619 325 L 554 337 L 566 150 L 602 133 Z M 357 136 L 333 323 L 282 337 L 297 149 L 357 136 Z" unicode="ẅ" />
<glyph horiz-adv-x="687" d="M 72 563 L 362 694 C 412 681 463 662 516 636 C 568 610 613 582 649 553 L 557 371 C 575 359 593 346 612 332 C 631 318 649 304 666 290 L 666 59 L 487 -19 C 455 -15 420 -6 382 6 C 344 19 312 33 287 49 L 264 -16 C 228 -11 192 -3 157 8 C 121 20 93 32 72 45 L 72 563 Z M 443 191 L 357 275 L 357 374 L 399 476 L 322 523 L 322 140 L 353 197 L 444 125 L 443 191 Z" unicode="ẞ" />
<glyph horiz-adv-x="683" d="M 365 49 L 384 110 L 381 157 L 266 169 L 260 120 L 308 112 L 268 -14 C 214 -10 164 -2 120 9 C 76 21 41 34 15 49 L 128 582 L 308 683 C 358 675 409 660 462 638 C 514 616 557 596 589 576 L 649 140 L 694 131 L 646 -14 C 584 -10 529 -2 482 9 C 435 20 396 33 365 49 Z M 372 277 L 356 478 L 298 493 L 279 307 L 372 277 Z M 225 -189 L 283 -50 L 432 -93 L 432 -248 C 392 -244 352 -236 314 -224 C 275 -212 245 -201 225 -189 Z" unicode="Ạ" />
<glyph horiz-adv-x="553" d="M 201 181 L 201 154 L 267 134 L 267 208 L 201 181 Z M 267 96 L 224 -15 C 186 -10 149 -2 113 9 C 76 21 45 34 20 49 L 20 231 L 266 273 L 266 306 L 56 333 L 134 502 C 206 497 272 488 333 474 C 394 460 452 441 507 417 L 507 140 L 555 131 L 506 -14 C 462 -11 418 -6 375 2 C 331 10 295 20 267 32 L 267 96 Z M 161 -189 L 219 -50 L 368 -93 L 368 -248 C 328 -244 288 -236 250 -224 C 211 -212 181 -201 161 -189 Z" unicode="ạ" />
<glyph horiz-adv-x="589" d="M 19 66 L 54 306 L 26 588 L 257 683 C 283 679 310 674 338 667 C 366 659 393 651 419 641 L 454 684 L 555 672 L 539 372 L 363 400 L 370 490 L 288 522 L 305 357 L 520 329 L 472 188 C 444 193 414 201 380 211 C 346 221 319 231 299 242 L 282 167 L 581 128 L 542 28 L 354 -31 C 292 -23 230 -10 166 8 C 102 27 53 46 19 66 Z M 175 -189 L 233 -50 L 382 -93 L 382 -248 C 342 -244 302 -236 264 -224 C 225 -212 195 -201 175 -189 Z" unicode="Ẹ" />
<glyph horiz-adv-x="521" d="M 35 417 L 221 508 C 271 502 319 491 365 475 C 411 459 454 439 492 417 L 492 223 L 272 185 L 272 160 L 504 138 L 469 28 L 320 -18 C 264 -12 212 -3 165 8 C 118 20 75 37 35 59 L 35 417 Z M 271 249 L 337 277 L 337 321 L 271 333 L 271 249 Z M 144 -189 L 202 -50 L 351 -93 L 351 -248 C 311 -244 271 -236 233 -224 C 194 -212 164 -201 144 -189 Z" unicode="ẹ" />
<glyph horiz-adv-x="589" d="M 88 798 L 174 930 L 309 905 L 346 984 C 374 974 403 956 432 930 C 460 904 480 880 491 858 L 380 731 L 218 763 L 197 716 C 177 722 156 733 134 749 C 112 764 97 780 88 798 Z M 19 66 L 54 306 L 26 588 L 257 683 C 283 679 310 674 338 667 C 366 659 393 651 419 641 L 454 684 L 555 672 L 539 372 L 363 400 L 370 490 L 288 522 L 305 357 L 520 329 L 472 188 C 444 193 414 201 380 211 C 346 221 319 231 299 242 L 282 167 L 581 128 L 542 28 L 354 -31 C 292 -23 230 -10 166 8 C 102 27 53 46 19 66 Z" unicode="Ẽ" />
<glyph horiz-adv-x="521" d="M 71 621 L 157 754 L 281 725 L 318 805 C 346 794 375 776 403 750 C 431 724 451 700 463 678 L 352 551 L 201 586 L 180 540 C 160 546 139 557 117 572 C 95 587 80 603 71 621 Z M 35 417 L 221 508 C 271 502 319 491 365 475 C 411 459 454 439 492 417 L 492 223 L 272 185 L 272 160 L 504 138 L 469 28 L 320 -18 C 264 -12 212 -3 165 8 C 118 20 75 37 35 59 L 35 417 Z M 271 249 L 337 277 L 337 321 L 271 333 L 271 249 Z" unicode="ẽ" />
<glyph horiz-adv-x="347" d="M 305 140 L 368 132 L 318 -17 C 259 -13 197 -5 131 7 C 65 19 13 33 -25 49 L 18 172 L 49 165 L 49 519 L -14 527 L 25 676 C 83 672 146 664 213 652 C 280 639 332 625 370 610 L 332 487 L 305 494 L 305 140 Z M 57 -189 L 115 -50 L 264 -93 L 264 -248 C 224 -244 184 -236 146 -224 C 107 -212 77 -201 57 -189 Z" unicode="Ị" />
<glyph horiz-adv-x="355" d="M 294 668 L 235 521 L 90 564 L 90 724 C 126 721 163 714 202 703 C 241 692 272 680 294 668 Z M 301 -14 C 239 -10 185 -2 139 9 C 93 21 54 34 24 50 L 45 123 L 45 338 L -2 346 L 47 494 C 95 491 141 485 185 475 C 229 465 268 452 302 438 L 302 145 L 350 136 L 301 -14 Z M 61 -189 L 119 -50 L 268 -93 L 268 -248 C 228 -244 188 -236 150 -224 C 111 -212 81 -201 61 -189 Z" unicode="ị" />
<glyph horiz-adv-x="666" d="M 628 584 L 628 59 L 366 -24 C 302 -17 241 -6 185 8 C 129 22 80 39 38 59 L 38 584 L 285 690 C 343 681 403 666 467 646 C 531 626 584 605 628 584 Z M 383 144 L 383 480 L 303 497 L 303 257 L 275 169 L 383 144 Z M 215 -189 L 273 -50 L 422 -93 L 422 -248 C 382 -244 342 -236 304 -224 C 265 -212 235 -201 215 -189 Z" unicode="Ọ" />
<glyph horiz-adv-x="571" d="M 536 417 L 536 59 L 336 -19 C 277 -15 223 -6 173 7 C 123 21 77 38 35 59 L 35 417 L 243 508 C 296 501 347 490 396 474 C 445 458 492 439 536 417 Z M 324 144 L 324 318 L 254 330 L 254 158 L 324 144 Z M 169 -189 L 227 -50 L 376 -93 L 376 -248 C 336 -244 296 -236 258 -224 C 219 -212 189 -201 169 -189 Z" unicode="ọ" />
<glyph horiz-adv-x="669" d="M 636 59 L 376 -24 C 312 -17 251 -6 195 8 C 138 22 89 39 47 59 L 47 519 L 1 527 L 51 676 C 104 673 156 666 206 654 C 256 642 299 628 336 612 L 315 536 L 315 253 L 287 165 L 412 134 L 412 520 L 349 529 L 401 679 C 442 675 486 667 533 655 C 580 643 621 628 655 612 L 636 536 L 636 59 Z M 216 -189 L 274 -50 L 423 -93 L 423 -248 C 383 -244 343 -236 305 -224 C 266 -212 236 -201 216 -189 Z" unicode="Ụ" />
<glyph horiz-adv-x="657" d="M 294 441 L 294 163 L 364 150 L 364 315 L 311 325 L 373 494 C 413 490 456 481 501 468 C 545 455 582 441 612 427 L 612 140 L 660 131 L 611 -14 C 565 -11 520 -5 477 3 C 433 11 396 23 364 37 L 364 115 L 299 -18 C 253 -15 208 -7 162 6 C 116 19 77 34 45 51 L 45 338 L -1 346 L 49 494 C 95 492 139 486 181 476 C 223 466 261 455 294 441 Z M 211 -189 L 269 -50 L 418 -93 L 418 -248 C 378 -244 338 -236 300 -224 C 261 -212 231 -201 211 -189 Z" unicode="ụ" />
<glyph horiz-adv-x="635" d="M 455 773 L 312 737 L 168 843 C 191 866 221 888 258 909 C 295 929 333 944 371 953 L 455 773 Z M 282 629 L 338 298 L 382 277 L 424 483 L 322 497 L 394 686 C 436 680 481 669 530 651 C 579 633 616 617 641 602 L 641 506 L 525 169 L 451 142 L 487 24 L 344 -36 C 308 -31 274 -22 240 -10 C 206 1 178 16 156 33 L 201 136 C 180 142 161 150 143 158 C 125 166 110 173 99 181 L 18 519 L -18 525 L 31 675 C 77 673 124 667 172 658 C 220 649 257 639 282 629 Z" unicode="Ỳ" />
<glyph horiz-adv-x="556" d="M 416 577 L 273 541 L 129 672 C 151 696 181 718 219 738 C 256 758 294 772 332 782 L 416 577 Z M 145 -167 L 226 -10 C 204 -4 179 4 152 16 C 125 28 100 41 78 56 L 26 339 L -9 346 L 40 494 C 81 493 124 488 169 479 C 213 469 248 460 273 450 L 279 373 L 342 515 C 376 509 413 499 453 483 C 492 467 524 452 549 437 L 549 347 L 417 -54 L 408 -229 C 358 -226 308 -219 259 -208 C 209 -196 171 -183 145 -167 Z M 341 133 L 358 324 L 282 338 L 297 155 L 341 133 Z" unicode="ỳ" />
<glyph horiz-adv-x="635" d="M 121 798 L 207 930 L 342 905 L 379 984 C 407 974 436 956 465 930 C 493 904 513 880 524 858 L 413 731 L 251 763 L 230 716 C 210 722 189 733 167 749 C 145 764 130 780 121 798 Z M 282 629 L 338 298 L 382 277 L 424 483 L 322 497 L 394 686 C 436 680 481 669 530 651 C 579 633 616 617 641 602 L 641 506 L 525 169 L 451 142 L 487 24 L 344 -36 C 308 -31 274 -22 240 -10 C 206 1 178 16 156 33 L 201 136 C 180 142 161 150 143 158 C 125 166 110 173 99 181 L 18 519 L -18 525 L 31 675 C 77 673 124 667 172 658 C 220 649 257 639 282 629 Z" unicode="Ỹ" />
<glyph horiz-adv-x="556" d="M 99 621 L 185 754 L 309 725 L 346 805 C 374 794 403 776 431 750 C 459 724 479 700 491 678 L 380 551 L 229 586 L 208 540 C 188 546 167 557 145 572 C 123 587 108 603 99 621 Z M 145 -167 L 226 -10 C 204 -4 179 4 152 16 C 125 28 100 41 78 56 L 26 339 L -9 346 L 40 494 C 81 493 124 488 169 479 C 213 469 248 460 273 450 L 279 373 L 342 515 C 376 509 413 499 453 483 C 492 467 524 452 549 437 L 549 347 L 417 -54 L 408 -229 C 358 -226 308 -219 259 -208 C 209 -196 171 -183 145 -167 Z M 341 133 L 358 324 L 282 338 L 297 155 L 341 133 Z" unicode="ỹ" />
<glyph horiz-adv-x="609" d="M 40 181 L 79 320 C 151 313 228 307 311 303 C 393 299 480 295 570 293 L 511 106 C 412 110 317 121 225 137 C 133 153 72 167 40 181 Z" unicode="–" />
<glyph horiz-adv-x="684" d="M -27 208 L 12 347 C 115 335 225 324 343 314 C 460 304 581 297 706 293 L 645 101 C 480 109 337 125 217 147 C 97 169 15 190 -27 208 Z" unicode="—" />
<glyph horiz-adv-x="302" d="M 237 585 L 258 379 C 216 384 178 392 144 402 C 110 412 76 426 42 443 L 31 605 L 139 751 L 275 721 L 237 585 Z" unicode="‘" />
<glyph horiz-adv-x="302" d="M 67 553 L 46 759 C 87 753 125 745 159 735 C 193 725 228 711 262 695 L 273 533 L 165 386 L 29 417 L 67 553 Z" unicode="’" />
<glyph horiz-adv-x="314" d="M 73 12 L 52 219 C 93 213 131 205 165 195 C 199 185 234 171 268 155 L 279 -7 L 171 -154 L 35 -123 L 73 12 Z" unicode="‚" />
<glyph horiz-adv-x="563" d="M 237 585 L 258 379 C 216 384 178 392 144 402 C 110 412 76 426 42 443 L 31 605 L 139 751 L 275 721 L 237 585 Z M 498 585 L 519 379 C 477 384 439 392 405 402 C 371 412 337 426 303 443 L 292 605 L 400 751 L 536 721 L 498 585 Z" unicode="“" />
<glyph horiz-adv-x="563" d="M 67 553 L 46 759 C 87 753 125 745 159 735 C 193 725 228 711 262 695 L 273 533 L 165 386 L 29 417 L 67 553 Z M 328 553 L 307 759 C 348 753 386 745 420 735 C 454 725 489 711 523 695 L 534 533 L 426 386 L 290 417 L 328 553 Z" unicode="”" />
<glyph horiz-adv-x="575" d="M 73 20 L 52 227 C 93 221 131 213 165 203 C 199 192 234 179 268 163 L 279 1 L 171 -146 L 35 -115 L 73 20 Z M 334 20 L 313 227 C 354 221 392 213 426 203 C 460 192 495 179 529 163 L 540 1 L 432 -146 L 296 -115 L 334 20 Z" unicode="„" />
<glyph horiz-adv-x="580" d="M 285 316 L 50 289 L 76 470 L 202 462 L 166 626 L 260 720 C 286 711 315 697 345 679 C 375 660 399 642 416 626 L 370 462 L 508 470 L 522 289 L 285 316 Z M 287 -218 C 249 -203 217 -178 191 -143 C 165 -108 147 -68 139 -23 L 199 252 L 285 234 L 372 251 L 435 -21 C 425 -66 407 -106 382 -141 C 356 -176 325 -202 287 -218 Z" unicode="†" />
<glyph horiz-adv-x="582" d="M 285 308 L 50 281 L 76 462 L 202 454 L 166 618 L 260 712 C 286 703 315 689 345 671 C 375 652 399 634 416 618 L 370 454 L 508 462 L 522 281 L 285 308 Z M 408 -147 L 314 -241 C 287 -232 258 -218 228 -200 C 198 -181 174 -163 158 -147 L 205 17 L 66 9 L 52 190 L 289 163 L 524 190 L 498 9 L 372 17 L 408 -147 Z" unicode="‡" />
<glyph horiz-adv-x="444" d="M 184 449 L 376 366 L 299 85 C 249 89 201 98 157 112 C 113 125 74 142 40 164 L 184 449 Z" unicode="•" />
<glyph horiz-adv-x="1122" d="M 101 237 L 325 168 L 263 -17 C 221 -13 183 -5 147 5 C 111 15 79 29 51 47 L 101 237 Z M 846 237 L 1071 168 L 1009 -17 C 967 -13 928 -5 892 5 C 856 15 825 29 797 47 L 846 237 Z M 473 237 L 698 168 L 636 -17 C 594 -13 556 -5 520 5 C 484 15 452 29 424 47 L 473 237 Z" unicode="…" />
<glyph horiz-adv-x="1379" d="M 712 645 L 405 -95 L 294 -67 L 574 671 L 712 645 Z M 275 225 C 232 229 190 235 148 245 C 106 254 69 266 38 281 L 38 533 L 185 597 C 221 590 255 581 288 571 C 321 561 354 548 388 533 L 388 314 L 275 225 Z M 255 341 L 255 460 L 205 469 L 205 353 L 255 341 Z M 1227 -58 C 1184 -54 1142 -47 1100 -37 C 1058 -27 1021 -15 991 -1 L 991 251 L 1138 314 C 1174 308 1208 299 1241 289 C 1274 278 1307 265 1340 251 L 1340 32 L 1227 -58 Z M 834 -58 C 791 -54 749 -47 707 -37 C 665 -27 628 -15 598 -1 L 598 251 L 745 314 C 781 308 815 299 848 289 C 880 278 913 265 947 251 L 947 32 L 834 -58 Z M 1208 59 L 1208 177 L 1157 186 L 1157 70 L 1208 59 Z M 815 59 L 815 177 L 764 186 L 764 70 L 815 59 Z" unicode="‰" />
<glyph horiz-adv-x="426" d="M 68 191 L 111 310 L 231 499 L 351 417 L 225 252 L 358 103 L 240 -11 L 68 191 Z" unicode="‹" />
<glyph horiz-adv-x="426" d="M 347 296 L 304 177 L 184 -12 L 63 70 L 190 235 L 56 384 L 175 498 L 347 296 Z" unicode="›" />
<glyph horiz-adv-x="400" d="M 386 690 L 162 -95 L 45 -66 L 245 714 L 386 690 Z" unicode="⁄" />
<glyph horiz-adv-x="539" d="M -6 206 L 31 319 L 70 315 L 70 417 L 262 516 C 312 509 361 496 410 478 C 458 460 497 441 525 423 L 446 296 L 305 362 L 305 294 L 443 281 L 400 155 C 384 155 368 155 352 156 C 336 157 320 158 305 159 L 305 129 L 514 108 L 485 17 L 339 -27 C 284 -19 235 -7 191 6 C 147 20 107 38 70 59 L 70 187 C 53 189 38 192 26 196 C 13 200 2 203 -6 206 Z" unicode="€" />
<glyph horiz-adv-x="420" d="M 255 -13 C 226 -6 201 2 180 14 C 158 25 138 38 118 53 L 118 203 L 28 114 L -5 146 L 118 256 L 118 650 L 253 712 C 275 708 300 698 327 684 C 353 669 373 655 386 643 L 361 470 L 170 259 L 170 74 C 186 63 204 54 223 47 C 241 39 258 34 273 32 L 370 91 L 385 49 L 255 -13 Z M 170 634 L 170 313 L 323 489 L 333 622 C 321 630 306 639 287 649 C 267 658 250 664 235 667 L 170 634 Z" unicode="ℓ" />
<glyph horiz-adv-x="1195" d="M 1162 558 L 1162 271 L 1000 208 C 952 210 908 217 868 229 C 828 241 791 255 757 271 L 757 558 L 924 631 C 968 625 1009 615 1049 603 C 1088 591 1126 576 1162 558 Z M 988 341 L 988 478 L 937 488 L 937 352 L 988 341 Z M 662 572 L 662 146 L 688 49 L 572 -24 C 540 -19 509 -10 478 3 C 447 17 422 30 404 43 L 430 103 L 279 321 L 279 -2 L 138 -105 C 109 -101 78 -93 45 -82 C 12 -70 -16 -58 -40 -46 L 14 115 L 80 57 L 84 513 L 37 521 L 87 670 C 133 668 175 662 214 652 C 252 642 288 630 321 616 L 459 391 L 459 632 L 579 713 C 607 709 638 701 671 690 C 704 678 733 666 757 654 L 662 572 Z M 1120 8 C 1053 11 982 19 906 32 C 830 45 781 56 760 66 L 795 172 L 1167 163 L 1120 8 Z" unicode="№" />
<glyph horiz-adv-x="759" d="M 534 425 L 522 356 C 510 357 498 360 484 364 C 470 368 459 373 451 379 L 391 498 L 388 416 L 415 411 L 390 344 C 370 347 351 351 334 357 C 316 362 302 367 292 372 L 312 584 L 285 591 L 313 677 C 339 674 365 670 390 664 C 415 658 435 652 451 645 L 507 534 L 549 616 L 563 677 C 587 674 612 669 637 662 C 661 654 681 647 696 640 L 687 603 L 693 427 L 719 421 L 693 344 C 669 346 646 350 624 355 C 602 360 585 366 571 373 L 571 501 L 534 425 Z M 243 428 L 214 340 C 186 343 156 348 125 355 C 93 362 70 369 55 375 L 69 436 L 69 575 L 8 583 L 33 669 L 201 667 L 218 688 L 273 678 L 254 547 L 201 562 L 201 435 L 243 428 Z" unicode="™" />
<glyph horiz-adv-x="722" d="M 604 -19 C 574 -17 543 -13 510 -7 C 476 0 446 7 418 16 L 418 153 L 563 227 L 563 522 C 540 536 505 551 457 569 C 409 586 371 597 344 602 L 186 537 L 186 228 C 200 219 221 209 249 199 C 276 188 303 178 330 170 L 330 48 L 262 4 C 232 5 197 9 157 16 C 117 22 83 30 55 39 L 61 156 L 113 142 L 104 78 C 130 70 160 64 193 59 C 225 54 254 51 278 50 L 278 135 C 249 145 221 156 195 169 C 169 181 148 194 134 207 L 134 555 L 356 647 C 396 641 443 628 497 607 C 551 585 590 564 615 543 L 615 208 L 470 139 L 470 53 C 498 45 526 38 553 34 C 580 29 605 26 629 26 L 635 143 L 687 129 L 672 25 L 604 -19 Z" unicode="Ω" />
<glyph horiz-adv-x="636" d="M 568 75 L 356 -17 C 321 -12 273 -2 212 12 C 151 26 108 40 83 53 C 72 79 64 108 58 140 C 52 172 50 200 50 226 C 50 255 54 287 60 321 C 66 355 74 385 83 409 L 321 478 C 358 473 403 463 457 449 C 510 435 551 419 580 401 C 586 374 591 344 593 310 C 595 276 596 245 596 219 L 164 219 L 164 64 C 186 56 222 46 270 36 C 318 25 353 19 374 18 L 553 107 L 568 75 Z M 164 408 L 164 251 L 487 251 L 487 396 C 462 406 432 416 397 426 C 362 435 332 441 308 444 L 164 408 Z" unicode="℮" />
<glyph horiz-adv-x="472" d="M 237 -13 C 210 -9 180 -1 148 12 C 115 26 89 41 70 57 L 70 318 L 289 470 L 171 658 L 171 657 L 82 614 L 72 659 C 90 669 111 679 134 689 C 157 698 179 705 199 710 L 419 354 L 384 67 L 237 -13 Z M 249 32 L 338 78 L 365 349 L 306 442 L 120 310 L 120 78 C 136 70 157 62 183 52 C 208 42 230 36 249 32 Z" unicode="∂" />
<glyph horiz-adv-x="584" d="M 329 652 L 554 32 L 511 -22 C 498 -24 484 -25 468 -27 C 452 -28 438 -29 425 -29 C 363 -29 293 -21 216 -7 C 139 7 79 25 37 46 L 267 618 L 329 652 Z M 456 16 L 506 16 L 300 589 L 93 81 C 131 62 186 46 259 34 C 331 22 397 16 456 16 Z" unicode="∆" />
<glyph horiz-adv-x="769" d="M 723 -184 C 683 -182 641 -177 597 -170 C 553 -162 520 -155 498 -148 L 507 -115 L 585 -124 L 585 619 C 526 622 461 625 390 629 C 319 633 249 636 179 639 L 179 -130 L 281 -141 L 265 -184 C 225 -182 183 -177 139 -170 C 95 -162 62 -155 40 -148 L 49 -115 L 127 -124 L 127 641 C 110 641 93 642 77 642 C 61 642 45 643 30 644 L 53 692 C 189 688 325 682 461 672 C 597 662 689 652 736 643 L 723 609 C 710 609 696 610 682 612 C 668 613 653 614 637 615 L 637 -130 L 739 -141 L 723 -184 Z" unicode="∏" />
<glyph horiz-adv-x="612" d="M 582 30 L 560 -152 L 491 -194 C 485 -194 480 -195 474 -195 C 468 -195 462 -196 457 -196 C 397 -196 319 -187 225 -170 C 130 -152 65 -133 30 -113 L 302 230 L 59 619 C 105 643 176 664 274 682 C 371 700 446 707 498 703 L 532 494 L 481 480 L 463 665 C 413 665 354 658 285 645 C 216 632 165 618 131 603 L 369 238 L 102 -95 C 136 -110 195 -123 281 -134 C 367 -145 434 -151 484 -151 L 517 -151 L 530 58 C 538 55 547 51 557 46 C 567 40 575 35 582 30 Z" unicode="∑" />
<glyph horiz-adv-x="498" d="M 19 192 L 59 320 C 130 313 195 308 254 305 C 312 301 387 298 477 296 L 423 121 C 337 125 257 135 181 150 C 105 164 51 178 19 192 Z" unicode="−" />
<glyph horiz-adv-x="400" d="M 386 690 L 162 -95 L 45 -66 L 245 714 L 386 690 Z" unicode="∕" />
<glyph horiz-adv-x="412" d="M 119 368 L 344 299 L 281 114 C 239 118 201 125 165 136 C 129 147 97 161 69 179 L 119 368 Z" unicode="∙" />
<glyph horiz-adv-x="516" d="M 288 -160 C 264 -155 239 -147 213 -137 C 187 -126 167 -115 154 -105 L 65 203 C 52 198 39 193 25 187 C 11 181 0 175 -8 171 L -17 214 C 7 226 29 236 51 242 C 73 248 91 253 106 255 L 200 -83 C 210 -89 225 -95 245 -102 C 264 -108 281 -113 296 -116 L 466 682 C 480 687 493 690 507 692 C 521 693 536 693 552 692 L 561 651 L 508 653 L 334 -132 L 288 -160 Z" unicode="√" />
<glyph horiz-adv-x="776" d="M 639 62 L 514 70 L 349 147 L 292 73 L 132 62 C 114 80 96 104 78 135 C 60 165 49 192 45 214 L 137 397 L 262 389 L 410 292 L 484 386 L 644 397 C 662 379 679 354 697 324 C 715 293 726 267 731 245 L 639 62 Z M 146 111 L 269 122 L 391 267 L 254 343 L 160 349 L 86 212 C 92 194 100 176 111 158 C 121 140 133 124 146 111 Z M 616 110 L 690 247 C 684 265 675 283 665 301 C 654 319 642 334 630 348 L 503 337 L 375 180 L 522 116 L 616 110 Z" unicode="∞" />
<glyph horiz-adv-x="337" d="M 131 -123 L 22 -170 C 7 -168 -9 -164 -27 -158 C -45 -152 -63 -144 -80 -134 L -58 -88 L 31 -130 L 82 -109 L 208 656 L 316 704 C 329 701 345 697 363 691 C 381 685 399 676 417 666 L 396 621 L 307 662 L 255 641 L 131 -123 Z" unicode="∫" />
<glyph horiz-adv-x="511" d="M 358 250 L 357 251 L 357 250 C 313 265 272 282 236 301 C 200 319 168 337 141 354 L 26 342 L 39 462 L 165 505 C 189 492 222 476 264 456 C 306 436 354 419 408 403 L 479 412 L 466 292 L 358 250 Z M 358 30 L 357 31 L 357 30 C 313 45 272 62 236 81 C 200 99 168 117 141 134 L 26 122 L 39 242 L 165 285 C 189 272 222 256 264 236 C 306 216 354 199 408 183 L 479 192 L 466 72 L 358 30 Z" unicode="≈" />
<glyph horiz-adv-x="527" d="M 427 23 C 385 25 343 28 303 33 C 263 38 225 44 191 51 L 156 -9 L 90 10 L 121 65 C 100 69 81 74 65 79 C 48 84 34 89 24 94 L 63 221 C 88 219 112 217 135 215 C 158 213 181 211 204 210 L 235 266 C 195 272 158 280 126 288 C 94 296 69 304 52 312 L 92 440 C 134 436 174 432 211 430 C 247 427 285 425 325 423 L 364 492 L 436 469 L 407 419 C 422 418 438 417 456 417 C 473 417 491 416 510 416 L 455 241 C 430 242 405 244 381 246 C 357 248 333 251 310 254 L 282 206 C 310 204 341 203 373 201 C 405 199 441 198 481 198 L 427 23 Z" unicode="≠" />
<glyph horiz-adv-x="503" d="M 58 312 L 103 434 L 300 650 L 423 547 L 248 375 C 276 347 306 320 339 292 C 371 264 405 237 440 210 L 306 82 C 259 114 213 152 167 196 C 121 240 84 278 58 312 Z M 56 -51 L 91 55 L 463 46 L 416 -109 C 349 -105 278 -97 202 -84 C 126 -71 77 -60 56 -51 Z" unicode="≤" />
<glyph horiz-adv-x="504" d="M 447 419 L 403 297 L 206 81 L 82 184 L 258 356 C 230 383 199 411 167 439 C 134 467 100 494 66 521 L 200 650 C 246 616 292 578 338 534 C 384 490 420 452 447 419 Z M 400 -109 C 333 -105 262 -97 186 -84 C 110 -71 61 -60 40 -51 L 75 55 L 447 46 L 400 -109 Z" unicode="≥" />
<glyph horiz-adv-x="545" d="M 53 247 L 243 668 L 311 702 L 496 249 L 306 -172 L 238 -206 L 53 247 Z M 270 -143 L 445 235 L 279 639 L 104 261 L 270 -143 Z" unicode="◊" />
<glyph horiz-adv-x="683" d="M 244 532 L 135 566 L 181 763 C 225 757 267 742 307 718 C 346 694 375 671 394 649 L 244 532 Z M 531 532 L 422 566 L 468 763 C 512 757 554 742 594 718 C 633 694 662 671 681 649 L 531 532 Z M 570 -205 C 544 -203 510 -197 467 -187 C 423 -176 392 -165 373 -155 L 399 -26 L 399 338 L 353 346 L 402 494 C 448 492 492 486 535 476 C 577 466 615 455 647 441 L 647 -62 L 570 -205 Z M 301 -14 C 239 -10 185 -2 139 9 C 93 21 54 34 24 50 L 45 123 L 45 338 L -2 346 L 47 494 C 95 491 141 485 185 475 C 229 465 268 452 302 438 L 302 145 L 350 136 L 301 -14 Z" unicode="" />
<glyph horiz-adv-x="771" d="M 624 761 L 507 795 L 548 973 C 597 967 642 953 684 931 C 726 909 757 885 779 859 L 624 761 Z M 270 749 L 153 783 L 194 961 C 243 955 288 941 330 919 C 372 897 403 873 425 847 L 270 749 Z M 338 225 L 385 217 L 336 69 C 276 72 216 80 156 92 C 95 104 46 118 8 133 L 51 257 L 82 250 L 82 519 L 19 527 L 58 676 C 116 672 178 665 243 653 C 308 641 360 628 398 614 L 359 490 L 338 494 L 338 225 Z M 534 -80 C 502 -75 468 -66 431 -53 C 394 -40 364 -26 341 -12 L 397 151 L 476 82 L 476 515 L 403 528 L 452 675 C 512 668 563 659 606 649 C 648 638 690 624 731 608 L 731 23 L 534 -80 Z" unicode="" />
<glyph horiz-adv-x="991" d="M 955 668 L 896 521 L 751 564 L 751 724 C 786 721 823 714 862 703 C 901 692 932 680 955 668 Z M 641 668 L 582 521 L 437 564 L 437 724 C 473 721 510 714 549 703 C 588 692 619 680 641 668 Z M 878 -205 C 852 -203 818 -197 775 -187 C 732 -176 701 -165 681 -155 L 707 -26 L 707 338 L 661 346 L 710 494 C 756 492 800 486 843 476 C 885 466 923 455 956 441 L 956 -62 L 878 -205 Z M 311 -8 L 225 -182 C 198 -179 166 -173 130 -164 C 93 -155 64 -146 44 -137 L 44 314 L -8 346 L 31 457 L 66 463 L 24 684 L 142 776 C 183 772 225 764 269 754 C 312 744 347 732 375 720 L 315 531 L 215 593 L 237 468 L 401 468 L 610 483 L 610 145 L 659 136 L 609 -14 C 557 -8 508 0 463 10 C 417 21 379 34 349 50 L 371 123 L 371 349 L 325 318 L 257 318 L 311 157 L 311 -8 Z" unicode="" />
<glyph horiz-adv-x="1319" d="M 969 668 L 910 521 L 765 564 L 765 724 C 801 721 838 714 877 703 C 916 692 947 680 969 668 Z M 1283 668 L 1224 521 L 1079 564 L 1079 724 C 1114 721 1151 714 1190 703 C 1229 692 1260 680 1283 668 Z M 237 468 L 393 468 L 369 595 L 343 517 L 228 572 L 237 468 Z M 1206 -205 C 1180 -203 1146 -197 1103 -187 C 1060 -176 1029 -165 1009 -155 L 1035 -26 L 1035 338 L 989 346 L 1038 494 C 1084 492 1128 486 1171 476 C 1213 466 1251 455 1284 441 L 1284 -62 L 1206 -205 Z M 225 -215 C 198 -212 166 -206 130 -197 C 93 -188 64 -179 44 -169 L 44 314 L -8 346 L 31 457 L 62 463 L 24 648 L 200 763 C 236 759 269 752 299 742 C 329 732 358 721 384 709 L 470 776 C 511 772 553 764 597 754 C 640 744 675 732 703 720 L 643 531 L 543 593 L 565 468 L 729 468 L 938 483 L 938 145 L 987 136 L 937 -14 C 885 -8 836 0 791 10 C 745 21 707 34 677 50 L 699 123 L 699 349 L 653 318 L 585 318 L 639 157 L 639 -30 L 553 -204 C 526 -201 494 -195 458 -186 C 421 -177 392 -168 372 -159 L 372 312 L 259 312 L 311 157 L 311 -41 L 225 -215 Z" unicode="" />
<glyph horiz-adv-x="1008" d="M 353 589 L 452 718 L 518 650 L 393 539 L 330 503 L 346 409 L 412 332 L 401 435 L 530 520 L 667 458 L 709 275 L 822 210 L 844 364 C 869 357 895 346 921 331 C 947 315 966 301 980 289 L 936 168 L 825 41 L 564 -38 C 533 -31 496 -20 452 -5 C 408 9 375 23 353 37 L 308 173 L 383 254 L 275 358 L 244 464 L 173 426 L 270 246 L 89 144 C 75 176 62 210 50 244 C 38 278 28 313 20 347 L 68 478 L 353 589 Z" unicode="" />
<glyph horiz-adv-x="710" d="M 237 468 L 388 468 L 365 584 L 343 517 L 228 572 L 237 468 Z M 225 -215 C 198 -212 166 -206 130 -197 C 93 -188 64 -179 44 -169 L 44 314 L -8 346 L 31 457 L 62 463 L 24 648 L 200 763 C 239 759 275 751 307 739 C 339 727 369 715 396 703 L 469 776 C 510 772 551 763 593 751 C 635 738 670 725 698 712 L 637 530 L 555 582 L 564 468 L 660 468 L 660 312 L 586 312 L 638 157 L 638 -31 L 552 -205 C 525 -202 493 -196 457 -187 C 420 -178 391 -169 371 -159 L 371 312 L 259 312 L 311 157 L 311 -41 L 225 -215 Z" unicode="ﬀ" />
<glyph horiz-adv-x="663" d="M 602 660 L 544 519 L 399 562 L 399 716 C 434 713 471 706 510 695 C 549 684 580 672 602 660 Z M 311 -8 L 225 -182 C 198 -179 166 -173 130 -164 C 93 -155 64 -146 44 -137 L 44 314 L -8 346 L 31 457 L 66 463 L 24 684 L 142 776 C 183 772 225 764 269 754 C 312 744 347 732 375 720 L 315 531 L 215 593 L 237 468 L 401 468 L 610 483 L 610 145 L 659 136 L 609 -14 C 557 -8 508 0 463 10 C 417 21 379 34 349 50 L 371 123 L 371 349 L 325 318 L 257 318 L 311 157 L 311 -8 Z" unicode="ﬁ" />
<glyph horiz-adv-x="668" d="M 623 140 L 670 131 L 621 -14 C 559 -9 506 -1 462 9 C 418 20 381 33 353 49 L 374 120 L 374 579 L 331 512 L 215 593 L 237 468 L 323 468 L 323 318 L 257 318 L 311 157 L 311 -8 L 225 -182 C 198 -179 166 -173 130 -164 C 93 -155 64 -146 44 -137 L 44 314 L -8 346 L 31 457 L 66 463 L 24 684 L 184 768 C 225 761 264 750 302 736 C 339 722 377 703 416 681 L 461 783 L 623 754 L 623 140 Z" unicode="ﬂ" />
<glyph horiz-adv-x="990" d="M 929 660 L 871 519 L 726 562 L 726 716 C 761 713 798 706 837 695 C 876 684 907 672 929 660 Z M 237 468 L 392 468 L 364 616 L 332 520 L 228 572 L 237 468 Z M 225 -205 C 198 -202 166 -196 130 -187 C 93 -178 64 -169 44 -159 L 44 314 L -8 346 L 31 457 L 62 463 L 24 648 L 142 766 C 180 762 222 755 268 743 C 314 731 351 719 381 707 L 469 776 C 510 772 552 764 596 754 C 639 744 674 732 702 720 L 642 531 L 542 593 L 564 468 L 728 468 L 937 483 L 937 145 L 986 136 L 936 -14 C 884 -8 835 0 790 10 C 744 21 706 34 676 50 L 698 123 L 698 349 L 652 318 L 584 318 L 638 157 L 638 -8 L 552 -182 C 525 -179 493 -173 457 -164 C 420 -155 391 -146 371 -137 L 371 312 L 259 312 L 311 157 L 311 -31 L 225 -205 Z" unicode="ﬃ" />
<glyph horiz-adv-x="995" d="M 237 468 L 392 468 L 364 614 L 333 521 L 228 574 L 237 468 Z M 225 -205 C 198 -202 166 -196 130 -187 C 93 -178 64 -169 44 -159 L 44 314 L -8 346 L 31 457 L 62 463 L 24 635 L 142 768 C 182 764 226 755 274 743 C 322 730 361 717 390 705 L 511 768 C 552 761 591 750 629 736 C 666 722 704 703 743 681 L 788 783 L 950 754 L 950 140 L 997 131 L 948 -14 C 886 -9 833 -1 789 9 C 745 20 708 33 680 49 L 701 120 L 701 579 L 658 512 L 542 593 L 564 468 L 650 468 L 650 318 L 584 318 L 638 157 L 638 -8 L 552 -182 C 525 -179 493 -173 457 -164 C 420 -155 391 -146 371 -137 L 371 312 L 259 312 L 311 157 L 311 -31 L 225 -205 Z" unicode="ﬄ" />
</font>
</defs>
</svg>
