<?xml version="1.0" encoding="utf-8" ?><svg version="1.1" xmlns = 'http://www.w3.org/2000/svg'><defs><font id='web' horiz-adv-x="1000">
<font-face font-family="web" descent="-440" cap-height="1331" units-per-em="2048" bbox="-309,-498,2206,1915" x-height="852" ascent="1477" />
<missing-glyph horiz-adv-x="2048" d="M 256 0 L 256 1536 L 1792 1536 L 1792 0 L 256 0 Z M 384 128 L 1664 128 L 1664 1408 L 384 1408 L 384 128 Z" /><glyph horiz-adv-x="492" d="" unicode=" " />
<glyph horiz-adv-x="555" d="M 250 381 C 237 485 215 614 183 768 C 152 918 137 1031 137 1106 C 137 1164 149 1209 174 1242 C 198 1275 234 1292 281 1292 C 324 1292 357 1276 381 1244 C 404 1212 416 1170 416 1116 C 416 1054 375 809 295 381 L 250 381 Z M 272 264 C 314 264 350 249 380 221 C 409 193 424 158 424 117 C 424 76 409 41 380 13 C 351 -14 316 -29 276 -29 C 236 -29 201 -14 173 14 C 145 43 131 78 131 119 C 131 157 145 191 173 220 C 201 249 234 264 272 264 Z" unicode="!" />
<glyph horiz-adv-x="1137" d="M 786 700 L 703 1007 C 682 1082 670 1130 667 1151 C 663 1172 662 1193 662 1214 C 662 1256 676 1291 704 1321 C 732 1351 767 1366 809 1366 C 849 1366 884 1351 914 1323 C 943 1295 958 1261 958 1221 C 958 1191 953 1160 945 1128 L 836 700 L 786 700 Z M 305 700 L 221 1007 C 200 1082 188 1130 185 1151 C 181 1172 180 1193 180 1214 C 180 1256 194 1291 223 1321 C 251 1351 286 1366 328 1366 C 368 1366 402 1351 432 1323 C 462 1295 477 1261 477 1221 C 477 1191 472 1160 464 1128 L 354 700 L 305 700 Z" unicode="&#x22;" />
<glyph horiz-adv-x="1366" d="M 1284 344 L 973 344 L 889 -45 L 723 -45 L 809 344 L 426 344 L 346 -45 L 180 -45 L 262 344 L 82 344 L 82 508 L 295 508 L 365 836 L 82 836 L 82 1001 L 397 1001 L 481 1393 L 645 1393 L 561 1001 L 940 1001 L 1022 1393 L 1188 1393 L 1104 1001 L 1284 1001 L 1284 836 L 1073 836 L 1006 508 L 1284 508 L 1284 344 Z M 907 836 L 528 836 L 461 510 L 840 510 L 907 836 Z" unicode="#" />
<glyph horiz-adv-x="981" d="M 522 788 C 688 716 794 649 840 588 C 886 526 909 456 909 377 C 909 267 874 176 806 104 C 738 32 643 -11 522 -27 L 522 -190 L 459 -190 L 459 -27 L 428 -29 C 339 -29 234 -5 113 43 L 72 328 L 119 338 C 147 237 187 165 239 121 C 291 77 364 51 459 43 L 459 561 C 329 620 236 683 180 749 C 124 815 96 891 96 977 C 96 1082 130 1168 199 1236 C 267 1304 354 1344 459 1358 L 459 1464 L 522 1464 L 522 1358 C 624 1353 721 1340 811 1319 L 829 1059 L 778 1061 C 742 1211 656 1287 522 1288 L 522 788 Z M 459 817 L 459 1284 C 333 1262 270 1187 270 1059 C 270 953 333 873 459 817 Z M 522 49 C 656 74 723 152 723 283 C 723 395 656 480 522 537 L 522 49 Z" unicode="$" />
<glyph horiz-adv-x="1962" d="M 1356 1425 L 711 -63 L 602 -63 L 1249 1425 L 1356 1425 Z M 543 1380 C 640 1380 719 1349 779 1289 C 839 1229 870 1150 870 1053 C 870 955 838 872 774 805 C 710 738 631 705 535 705 C 441 705 365 735 307 797 C 248 859 219 937 219 1032 C 219 1128 249 1210 311 1278 C 373 1346 450 1380 543 1380 Z M 549 762 C 599 762 638 789 665 844 C 691 899 705 968 705 1051 C 705 1232 655 1323 557 1323 C 442 1323 385 1227 385 1036 C 385 853 439 762 549 762 Z M 1415 649 C 1513 649 1592 618 1652 558 C 1712 498 1743 419 1743 322 C 1743 224 1711 141 1647 74 C 1583 6 1503 -27 1407 -27 C 1314 -27 1238 4 1180 66 C 1121 128 1092 206 1092 301 C 1092 397 1122 479 1184 547 C 1245 615 1322 649 1415 649 Z M 1421 31 C 1471 31 1510 58 1537 113 C 1563 168 1577 237 1577 319 C 1577 501 1528 592 1430 592 C 1314 592 1257 496 1257 305 C 1257 122 1311 31 1421 31 Z" unicode="%" />
<glyph horiz-adv-x="1855" d="M 1792 178 C 1667 26 1543 -49 1419 -49 C 1379 -49 1339 -41 1300 -25 C 1261 -9 1223 14 1187 46 C 1151 78 1117 116 1086 162 C 1055 208 1034 239 1022 256 L 898 137 C 858 99 822 68 789 46 C 756 23 719 5 678 -8 C 637 -22 591 -29 541 -29 C 430 -29 336 8 258 82 C 180 156 141 248 141 356 C 141 436 163 510 207 576 C 251 642 331 715 449 795 C 357 869 311 953 311 1047 C 311 1131 342 1200 406 1256 C 470 1311 546 1339 635 1339 C 709 1339 771 1321 821 1286 C 870 1250 895 1201 895 1139 C 895 1029 820 944 670 883 C 838 787 990 652 1126 477 C 1264 685 1333 819 1333 879 C 1333 923 1292 946 1212 946 L 1212 993 L 1733 993 L 1733 948 C 1657 943 1598 930 1556 909 C 1513 888 1471 853 1431 804 C 1390 754 1301 630 1163 430 C 1238 310 1306 225 1366 176 C 1426 126 1485 102 1544 102 C 1614 102 1684 139 1755 213 L 1792 178 Z M 633 909 C 711 966 750 1031 750 1104 C 750 1153 736 1195 710 1229 C 683 1263 648 1280 604 1280 C 562 1280 527 1265 500 1236 C 472 1207 459 1171 459 1128 C 459 1084 474 1043 506 1003 C 538 963 580 932 633 909 Z M 983 305 C 909 407 837 490 769 554 C 701 618 610 688 496 762 C 380 688 322 594 322 479 C 322 383 356 304 426 240 C 496 176 580 145 680 145 C 739 145 792 157 838 181 C 884 205 932 246 983 305 Z" unicode="&#x26;" />
<glyph horiz-adv-x="569" d="M 260 700 L 176 1007 C 155 1082 143 1130 140 1151 C 136 1172 135 1193 135 1214 C 135 1256 149 1291 178 1321 C 206 1351 241 1366 283 1366 C 323 1366 357 1351 387 1323 C 417 1295 432 1261 432 1221 C 432 1191 427 1160 419 1128 L 309 700 L 260 700 Z" unicode="'" />
<glyph horiz-adv-x="662" d="M 553 -326 L 475 -377 C 279 -87 182 195 182 471 C 182 757 278 1053 471 1360 L 545 1311 C 451 1135 385 985 348 861 C 311 737 293 613 293 489 C 293 219 379 -52 553 -326 Z" unicode="(" />
<glyph horiz-adv-x="662" d="M 186 1360 C 381 1070 479 787 479 512 C 479 226 382 -70 190 -377 L 117 -328 C 211 -152 276 -2 313 121 C 350 245 369 370 369 494 C 369 764 282 1035 109 1309 L 186 1360 Z" unicode=")" />
<glyph horiz-adv-x="874" d="M 416 1094 C 412 1172 410 1220 410 1237 C 410 1321 438 1364 496 1364 C 517 1364 535 1355 551 1339 C 567 1323 575 1304 575 1282 C 575 1246 530 1181 440 1087 L 416 1094 Z M 371 1073 L 356 1055 C 254 1079 189 1098 161 1112 C 133 1126 119 1146 119 1174 C 119 1196 126 1215 141 1233 C 156 1251 175 1260 197 1260 C 243 1260 301 1197 371 1073 Z M 479 1047 C 597 1085 661 1104 672 1104 C 695 1104 714 1096 730 1081 C 746 1066 754 1047 754 1024 C 754 1003 746 984 730 968 C 714 952 696 944 676 944 C 650 944 609 956 551 982 C 517 996 493 1006 481 1010 L 479 1047 Z M 371 979 C 327 900 294 850 271 829 C 248 807 227 797 207 797 C 184 797 165 804 150 819 C 134 833 127 852 127 874 C 127 903 142 928 174 949 C 206 969 266 987 354 1001 L 371 979 Z M 453 973 C 533 869 573 804 573 776 C 573 750 565 729 549 713 C 533 696 512 688 487 688 C 433 688 406 723 406 795 C 406 819 411 875 422 963 L 453 973 Z" unicode="*" />
<glyph horiz-adv-x="1366" d="M 1231 588 L 762 588 L 762 119 L 604 119 L 604 588 L 135 588 L 135 745 L 604 745 L 604 1214 L 762 1214 L 762 745 L 1231 745 L 1231 588 Z" unicode="+" />
<glyph horiz-adv-x="555" d="M 106 -307 C 250 -258 322 -190 322 -102 C 322 -72 315 -50 301 -38 C 287 -25 267 -13 240 -3 C 211 8 189 21 175 35 C 161 49 154 72 154 106 C 154 146 167 181 193 210 C 219 239 252 254 291 254 C 344 254 387 230 421 184 C 454 137 471 83 471 23 C 471 -159 359 -285 135 -354 L 106 -307 Z" unicode="," />
<glyph horiz-adv-x="662" d="M 592 555 L 557 399 L 70 399 L 104 555 L 592 555 Z" unicode="-" />
<glyph horiz-adv-x="555" d="M 272 266 C 314 266 350 251 380 223 C 409 195 424 160 424 119 C 424 78 409 43 380 15 C 351 -12 316 -27 276 -27 C 236 -27 201 -12 173 16 C 145 45 131 80 131 121 C 131 159 145 193 173 222 C 201 251 234 266 272 266 Z" unicode="." />
<glyph horiz-adv-x="1153" d="M 1122 1477 L 248 0 L 31 0 L 905 1477 L 1122 1477 Z" unicode="/" />
<glyph horiz-adv-x="981" d="M 496 1333 C 637 1333 745 1273 821 1153 C 896 1033 934 877 934 686 C 934 452 891 274 805 153 C 719 31 611 -29 483 -29 C 343 -29 236 33 160 158 C 84 283 47 441 47 631 C 47 787 67 919 108 1028 C 148 1137 205 1215 279 1262 C 353 1309 425 1333 496 1333 Z M 721 628 L 721 662 C 721 1068 645 1272 494 1272 C 414 1272 355 1224 317 1130 C 279 1036 260 867 260 623 C 260 229 336 33 489 33 C 643 33 721 231 721 628 Z" unicode="0" />
<glyph horiz-adv-x="981" d="M 842 -4 L 788 -4 L 469 0 L 180 -4 L 180 51 C 254 51 302 52 322 55 C 342 57 360 68 376 87 C 392 105 401 136 401 180 L 401 1114 L 389 1133 C 319 1091 235 1049 137 1008 L 117 1053 C 276 1145 425 1244 565 1350 L 623 1350 L 623 150 C 623 103 636 75 662 66 C 688 57 748 53 842 53 L 842 -4 Z" unicode="1" />
<glyph horiz-adv-x="981" d="M 934 305 C 920 231 905 129 887 0 L 35 0 L 35 57 C 241 236 388 391 475 522 C 562 652 606 774 606 887 C 606 969 584 1038 541 1092 C 497 1146 439 1174 365 1174 C 317 1174 273 1162 234 1139 C 195 1116 152 1075 106 1016 L 74 1051 C 128 1140 192 1209 266 1259 C 340 1308 418 1333 500 1333 C 594 1333 672 1300 732 1236 C 792 1172 823 1091 823 993 C 823 897 784 788 706 667 C 628 546 482 388 268 193 L 838 193 L 885 305 L 934 305 Z" unicode="2" />
<glyph horiz-adv-x="981" d="M 512 743 L 528 743 C 750 743 862 647 862 455 C 862 317 807 202 697 108 C 587 14 459 -33 315 -33 C 241 -33 178 -19 126 8 C 74 35 49 74 49 125 C 49 136 59 147 79 158 C 99 168 115 174 129 174 C 134 174 144 164 160 144 C 194 98 228 67 262 52 C 295 36 330 29 367 29 C 447 29 513 59 566 121 C 618 182 645 255 645 340 C 645 424 619 494 568 552 C 516 610 451 639 371 639 C 333 639 293 632 250 618 L 240 664 C 466 746 580 853 580 987 C 580 1045 561 1095 523 1135 C 485 1175 437 1196 381 1196 C 310 1196 236 1157 158 1079 L 123 1114 C 247 1258 377 1331 514 1331 C 586 1331 649 1306 703 1257 C 757 1207 784 1147 784 1077 C 784 955 692 846 508 748 L 512 743 Z" unicode="3" />
<glyph horiz-adv-x="981" d="M 938 389 L 784 389 L 784 0 L 580 0 L 580 389 L 49 389 L 49 496 L 684 1337 L 784 1337 L 784 555 L 938 555 L 938 389 Z M 580 555 L 580 1094 L 573 1094 L 176 555 L 580 555 Z" unicode="4" />
<glyph horiz-adv-x="981" d="M 877 1315 L 813 1122 L 358 1122 L 297 944 C 467 898 595 830 680 741 C 764 651 807 550 807 436 C 807 301 758 189 661 101 C 563 13 445 -31 305 -31 C 249 -31 193 -18 136 6 C 79 31 51 64 51 104 C 51 121 60 139 79 157 C 98 175 116 184 133 184 C 144 184 153 174 161 154 C 173 119 198 90 236 66 C 274 42 319 31 369 31 C 446 31 509 58 558 112 C 606 166 631 233 631 315 C 631 519 478 664 172 752 L 358 1315 L 877 1315 Z" unicode="5" />
<glyph horiz-adv-x="981" d="M 944 1305 C 718 1232 551 1122 444 974 C 336 826 283 666 283 494 C 283 370 307 263 355 173 C 403 82 470 37 557 37 C 613 37 657 60 690 106 C 722 152 739 209 739 276 C 739 360 715 436 668 505 C 621 573 561 608 489 608 C 457 608 423 598 385 580 L 385 637 C 474 711 559 748 641 748 C 728 748 800 712 856 641 C 912 569 940 486 940 391 C 940 273 897 174 812 94 C 726 13 624 -27 504 -27 C 368 -27 258 20 175 114 C 92 208 51 327 51 471 C 51 677 131 859 292 1018 C 452 1177 664 1287 926 1348 L 944 1305 Z" unicode="6" />
<glyph horiz-adv-x="981" d="M 944 1300 L 242 -37 L 158 8 L 739 1110 L 150 1110 L 100 997 L 49 997 L 102 1315 L 932 1315 L 944 1300 Z" unicode="7" />
<glyph horiz-adv-x="981" d="M 604 717 C 717 649 793 589 831 535 C 869 481 889 420 889 352 C 889 242 847 151 763 78 C 679 5 580 -31 465 -31 C 358 -31 268 -1 194 59 C 120 119 84 197 84 295 C 84 360 102 417 140 467 C 178 517 246 567 346 618 C 254 682 191 741 157 794 C 123 847 106 907 106 973 C 106 1080 144 1168 221 1236 C 298 1304 393 1339 506 1339 C 606 1339 690 1312 758 1259 C 826 1206 860 1135 860 1047 C 860 982 841 924 803 874 C 765 823 699 771 604 717 Z M 557 743 C 659 813 711 906 711 1022 C 711 1093 691 1153 652 1203 C 613 1253 562 1278 498 1278 C 438 1278 388 1256 348 1214 C 308 1172 289 1120 289 1059 C 289 1009 306 960 341 913 C 376 866 448 809 557 743 Z M 694 248 C 694 308 671 365 627 418 C 582 471 501 529 385 592 C 287 519 238 423 238 303 C 238 223 259 157 302 107 C 344 56 402 31 475 31 C 538 31 590 51 632 92 C 673 132 694 184 694 248 Z" unicode="8" />
<glyph horiz-adv-x="981" d="M 612 686 C 536 608 453 569 365 569 C 274 569 199 602 141 668 C 82 734 53 815 53 911 C 53 1030 94 1131 177 1214 C 260 1297 361 1339 481 1339 C 617 1339 726 1292 809 1198 C 892 1104 934 986 934 842 C 934 656 863 482 722 320 C 580 157 363 38 70 -37 L 51 12 C 264 80 426 182 538 320 C 649 457 705 623 705 817 C 705 937 681 1044 633 1137 C 585 1229 519 1276 434 1276 C 378 1276 334 1252 302 1205 C 270 1157 254 1100 254 1032 C 254 946 276 869 321 800 C 366 730 425 696 498 696 C 536 696 574 708 612 733 L 612 686 Z" unicode="9" />
<glyph horiz-adv-x="555" d="M 272 848 C 314 848 350 833 380 805 C 409 777 424 742 424 700 C 424 660 409 625 380 597 C 351 569 316 555 276 555 C 236 555 201 569 173 598 C 145 627 131 662 131 702 C 131 741 145 775 173 804 C 201 833 234 848 272 848 Z M 272 264 C 314 264 350 249 380 221 C 409 193 424 158 424 117 C 424 76 409 41 380 13 C 351 -14 316 -29 276 -29 C 236 -29 201 -14 173 14 C 145 43 131 78 131 119 C 131 157 145 191 173 220 C 201 249 234 264 272 264 Z" unicode=":" />
<glyph horiz-adv-x="555" d="M 307 848 C 349 848 385 833 415 805 C 444 777 459 742 459 700 C 459 660 444 625 415 597 C 386 569 351 555 311 555 C 271 555 236 569 208 598 C 180 627 166 662 166 702 C 166 741 179 775 207 804 C 235 833 268 848 307 848 Z M 106 -307 C 250 -258 322 -190 322 -102 C 322 -72 315 -50 301 -38 C 287 -25 267 -13 240 -3 C 211 8 189 21 175 35 C 161 49 154 72 154 106 C 154 146 167 181 193 210 C 219 239 252 254 291 254 C 344 254 387 230 421 184 C 454 137 471 83 471 23 C 471 -159 359 -285 135 -354 L 106 -307 Z" unicode=";" />
<glyph horiz-adv-x="1366" d="M 1231 137 L 135 596 L 135 739 L 1231 1198 L 1231 1028 L 348 668 L 1231 307 L 1231 137 Z" unicode="&#x3C;" />
<glyph horiz-adv-x="1366" d="M 1231 827 L 135 827 L 135 985 L 1231 985 L 1231 827 Z M 1231 354 L 135 354 L 135 512 L 1231 512 L 1231 354 Z" unicode="=" />
<glyph horiz-adv-x="1366" d="M 1231 596 L 135 137 L 135 307 L 1018 668 L 135 1028 L 135 1198 L 1231 739 L 1231 596 Z" unicode="&#x3E;" />
<glyph horiz-adv-x="768" d="M 252 379 L 244 707 C 244 721 246 730 251 736 C 255 742 267 745 285 745 C 371 745 439 762 490 798 C 541 833 567 884 567 950 C 567 1000 548 1043 512 1081 C 476 1118 433 1137 383 1137 C 371 1137 354 1134 330 1130 C 306 1126 288 1124 276 1124 C 196 1124 156 1159 156 1229 C 156 1265 169 1292 197 1310 C 224 1328 257 1337 297 1337 C 399 1337 486 1279 558 1163 C 630 1047 666 930 666 811 C 666 740 642 679 595 629 C 548 579 484 543 403 522 C 355 509 326 496 317 482 C 308 468 303 434 303 379 L 252 379 Z M 305 266 C 347 266 382 251 412 223 C 442 195 457 160 457 119 C 457 78 442 43 413 15 C 384 -12 349 -27 309 -27 C 269 -27 234 -12 206 16 C 178 45 164 80 164 121 C 164 159 178 193 206 222 C 234 251 267 266 305 266 Z" unicode="?" />
<glyph horiz-adv-x="1905" d="M 1858 141 C 1781 -53 1665 -202 1509 -307 C 1353 -412 1175 -465 975 -465 C 719 -465 507 -382 340 -217 C 173 -52 90 157 90 412 C 90 590 131 753 215 899 C 298 1045 414 1159 563 1241 C 711 1323 876 1364 1057 1364 C 1269 1364 1442 1302 1576 1179 C 1709 1056 1776 892 1776 688 C 1776 496 1719 330 1607 188 C 1494 46 1350 -25 1176 -25 C 1116 -25 1067 -9 1029 22 C 991 53 973 96 973 150 C 973 196 981 242 997 289 L 993 293 C 877 81 763 -25 651 -25 C 599 -25 558 -3 528 39 C 498 81 483 134 483 197 C 483 315 511 433 567 549 C 623 665 693 760 779 832 C 865 904 939 940 1001 940 C 1086 940 1133 887 1141 782 L 1145 782 L 1178 901 L 1421 911 L 1284 443 C 1246 315 1224 236 1218 204 C 1211 172 1208 146 1208 125 C 1208 105 1216 87 1232 72 C 1248 56 1266 49 1286 49 C 1338 49 1402 78 1476 137 C 1550 195 1610 272 1654 368 C 1698 464 1720 564 1720 670 C 1720 856 1660 1007 1540 1124 C 1420 1241 1266 1300 1079 1300 C 824 1300 613 1211 446 1034 C 278 857 195 638 195 377 C 195 147 268 -41 414 -189 C 560 -336 747 -410 977 -410 C 1158 -410 1323 -361 1472 -264 C 1621 -166 1729 -31 1796 141 L 1858 141 Z M 801 160 C 849 160 911 225 986 356 C 1060 486 1098 613 1098 737 C 1098 770 1091 800 1078 826 C 1065 852 1047 866 1024 866 C 968 866 906 785 840 623 C 774 461 741 336 741 250 C 741 227 746 206 757 188 C 768 169 783 160 801 160 Z" unicode="@" />
<glyph horiz-adv-x="1430" d="M 1384 -4 L 1139 0 L 840 -4 L 840 55 C 902 55 941 59 957 69 C 973 79 981 90 981 104 C 981 115 975 137 964 170 L 864 467 L 422 467 L 333 214 C 321 180 315 151 315 125 C 315 80 369 57 477 55 L 477 -4 C 385 -1 314 0 264 0 C 164 0 91 -1 45 -4 L 45 55 C 101 56 142 68 166 90 C 190 112 214 152 236 211 L 504 944 C 565 1116 602 1232 614 1292 C 674 1315 740 1346 813 1384 C 839 1292 871 1191 909 1079 L 1214 199 C 1226 163 1240 133 1256 108 C 1272 82 1288 67 1304 62 C 1320 57 1346 55 1384 55 L 1384 -4 Z M 831 565 L 649 1116 L 645 1116 L 455 565 L 831 565 Z" unicode="A" />
<glyph horiz-adv-x="1194" d="M 680 723 C 835 713 946 680 1014 625 C 1082 570 1116 489 1116 383 C 1116 269 1070 176 979 104 C 888 32 747 -4 555 -4 L 256 0 C 206 0 135 -1 43 -4 L 43 55 C 93 55 128 61 150 72 C 171 83 184 101 190 125 C 196 149 199 188 199 244 L 199 1165 C 199 1211 186 1240 161 1252 C 136 1264 97 1270 45 1272 L 45 1331 L 293 1327 L 588 1331 C 724 1331 832 1306 914 1258 C 995 1209 1036 1138 1036 1044 C 1036 880 917 774 680 727 L 680 723 Z M 432 754 C 451 752 481 752 522 752 C 566 752 602 756 632 764 C 661 772 688 790 714 817 C 740 843 759 874 773 910 C 786 946 793 982 793 1020 C 793 1090 772 1149 731 1198 C 690 1247 637 1272 573 1272 C 539 1272 492 1269 432 1264 L 432 754 Z M 432 680 L 432 188 C 432 108 486 68 594 68 C 680 68 746 95 792 150 C 838 204 862 280 862 377 C 862 475 833 551 775 603 C 717 655 634 682 528 682 L 432 680 Z" unicode="B" />
<glyph horiz-adv-x="1430" d="M 1380 358 C 1358 255 1348 157 1348 63 C 1218 20 1118 -6 1046 -18 C 974 -29 912 -35 858 -35 C 639 -35 460 29 321 158 C 182 286 113 456 113 666 C 113 864 182 1031 322 1166 C 461 1300 632 1368 834 1368 C 928 1368 1057 1347 1221 1305 C 1287 1286 1333 1276 1360 1276 C 1360 1188 1364 1085 1374 967 L 1319 961 C 1295 1075 1239 1158 1149 1212 C 1059 1265 968 1292 877 1292 C 723 1292 602 1236 512 1124 C 422 1012 377 870 377 700 C 377 523 426 368 524 235 C 622 101 749 35 905 35 C 1001 35 1089 63 1167 119 C 1245 175 1299 259 1327 369 L 1380 358 Z" unicode="C" />
<glyph horiz-adv-x="1536" d="M 84 1331 L 336 1327 L 721 1329 L 770 1329 C 1014 1315 1191 1241 1301 1109 C 1411 976 1466 834 1466 684 C 1466 468 1394 300 1252 178 C 1110 56 929 -4 711 -4 L 360 0 C 294 0 201 -1 80 -4 L 80 55 C 153 55 197 66 213 90 C 228 114 236 156 236 217 L 236 1188 C 236 1226 224 1250 202 1260 C 180 1269 140 1274 84 1274 L 84 1331 Z M 473 1262 L 473 190 C 473 144 494 109 537 85 C 579 61 635 49 705 49 C 839 49 958 102 1060 210 C 1162 317 1214 467 1214 659 C 1214 842 1163 991 1061 1106 C 959 1220 823 1278 651 1278 C 609 1278 549 1272 473 1262 Z" unicode="D" />
<glyph horiz-adv-x="1194" d="M 1184 303 L 1112 -2 L 549 0 C 433 0 271 -1 63 -4 L 63 55 C 121 56 165 63 193 76 C 221 89 236 120 236 170 L 236 1145 C 236 1187 230 1216 219 1234 C 207 1252 192 1262 174 1265 C 156 1268 119 1270 63 1272 L 63 1331 L 481 1327 L 1049 1331 L 1047 1241 C 1047 1199 1049 1139 1055 1063 L 1001 1042 C 993 1110 979 1158 961 1188 C 943 1218 917 1237 883 1245 C 849 1253 797 1257 725 1257 C 723 1257 641 1255 477 1251 L 477 743 L 733 743 C 789 743 827 754 847 778 C 867 801 878 843 879 905 L 930 905 C 928 864 928 799 928 711 C 928 686 930 613 934 492 L 883 481 L 883 502 C 883 564 871 604 847 624 C 823 643 789 653 743 653 L 477 653 L 477 236 C 477 184 483 150 495 133 C 507 115 529 101 562 91 C 594 80 664 75 771 75 C 832 75 880 78 916 85 C 952 91 982 101 1007 114 C 1031 126 1052 144 1069 168 C 1085 192 1106 237 1130 303 L 1184 303 Z" unicode="E" />
<glyph horiz-adv-x="1087" d="M 1057 1051 L 1008 1036 C 1002 1113 982 1169 947 1203 C 912 1237 850 1255 762 1255 L 481 1255 L 481 731 L 752 731 C 788 731 820 739 847 756 C 873 772 887 816 887 887 L 942 887 C 940 746 940 605 942 465 L 889 465 C 888 531 876 577 853 603 C 830 629 791 643 737 643 L 481 643 L 481 180 C 481 116 496 80 528 70 C 559 60 610 55 680 55 L 680 -4 C 558 -1 464 0 397 0 C 320 0 210 -1 68 -4 L 68 55 C 109 55 140 56 162 60 C 183 63 201 72 217 87 C 232 101 240 124 240 156 L 240 1165 C 240 1198 232 1222 217 1238 C 202 1253 184 1262 163 1266 C 141 1270 110 1272 68 1272 L 68 1331 C 136 1328 247 1327 401 1327 L 1047 1331 C 1051 1266 1054 1173 1057 1051 Z" unicode="F" />
<glyph horiz-adv-x="1536" d="M 1475 494 C 1427 492 1395 484 1381 469 C 1367 454 1359 417 1357 359 C 1355 301 1354 240 1354 176 C 1354 123 1369 94 1399 90 L 1401 51 C 1186 -6 995 -35 829 -35 C 622 -35 445 30 299 162 C 153 293 80 458 80 657 C 80 863 153 1033 301 1167 C 449 1301 630 1368 846 1368 C 934 1368 1046 1353 1182 1323 C 1256 1305 1315 1295 1360 1294 C 1362 1176 1369 1069 1382 975 L 1325 969 C 1301 1075 1251 1155 1174 1210 C 1096 1264 998 1292 879 1292 C 715 1292 585 1235 489 1122 C 392 1008 344 864 344 688 C 344 513 393 361 493 233 C 593 105 721 41 879 41 C 963 41 1042 56 1118 86 L 1118 338 C 1118 394 1108 434 1088 458 C 1068 482 1022 494 948 494 L 948 551 C 1002 548 1091 547 1214 547 C 1334 547 1421 548 1475 551 L 1475 494 Z" unicode="G" />
<glyph horiz-adv-x="1642" d="M 1575 -4 C 1456 -1 1364 0 1300 0 C 1230 0 1132 -1 1006 -4 L 1006 55 C 1051 56 1084 58 1105 62 C 1126 66 1143 76 1156 93 C 1169 109 1176 136 1176 174 L 1176 649 L 467 649 L 467 172 C 467 135 473 108 487 92 C 500 76 517 66 537 62 C 557 58 591 56 637 55 L 637 -4 C 512 -1 415 0 346 0 C 214 0 119 -1 59 -4 L 59 55 C 108 55 144 59 166 65 C 188 71 204 84 214 105 C 224 125 229 159 229 207 L 229 1159 C 229 1209 215 1241 189 1253 C 163 1265 119 1272 59 1272 L 59 1331 C 116 1328 208 1327 334 1327 C 406 1327 507 1328 637 1331 L 637 1272 C 585 1272 550 1270 533 1268 C 515 1265 500 1256 487 1242 C 473 1228 467 1204 467 1171 L 467 748 L 1176 748 L 1176 1153 C 1176 1191 1170 1219 1158 1236 C 1146 1253 1130 1263 1111 1267 C 1091 1270 1056 1272 1004 1272 L 1004 1331 L 1270 1327 C 1342 1327 1443 1328 1573 1331 L 1573 1272 C 1524 1272 1492 1271 1476 1269 C 1460 1267 1445 1259 1432 1246 C 1419 1233 1413 1212 1413 1184 L 1413 145 C 1413 115 1419 93 1433 81 C 1447 68 1467 61 1493 59 C 1519 57 1547 55 1575 55 L 1575 -4 Z" unicode="H" />
<glyph horiz-adv-x="662" d="M 602 1272 C 543 1270 503 1263 483 1249 C 463 1235 453 1200 453 1145 L 453 162 C 453 115 464 86 486 74 C 508 62 545 56 598 55 L 598 -4 C 508 0 418 2 328 2 C 238 2 149 0 61 -4 L 61 55 C 123 56 164 67 184 87 C 204 107 215 149 215 213 L 215 1159 C 215 1199 204 1227 184 1245 C 164 1262 125 1271 68 1272 L 68 1331 L 319 1327 L 602 1331 L 602 1272 Z" unicode="I" />
<glyph horiz-adv-x="874" d="M 778 1272 C 733 1272 700 1270 680 1266 C 660 1262 644 1251 632 1234 C 620 1216 614 1188 614 1149 L 614 68 C 614 -52 575 -164 499 -267 C 422 -370 329 -422 219 -422 C 164 -422 114 -406 68 -376 C 22 -346 0 -307 0 -260 C 0 -229 9 -204 29 -184 C 49 -164 74 -154 104 -154 C 127 -154 147 -160 163 -173 C 179 -185 193 -217 203 -269 C 213 -323 239 -350 279 -350 C 308 -350 331 -335 349 -305 C 366 -275 375 -240 375 -201 L 375 1124 C 375 1172 369 1207 358 1227 C 347 1247 331 1260 309 1265 C 287 1269 250 1272 199 1272 L 199 1331 L 477 1327 L 778 1331 L 778 1272 Z" unicode="J" />
<glyph horiz-adv-x="1430" d="M 1397 -4 C 1305 -1 1234 0 1184 0 C 1143 0 1087 -1 1016 -4 L 899 160 L 498 659 L 820 1020 C 905 1115 953 1171 965 1188 C 977 1204 983 1219 983 1231 C 983 1258 944 1272 868 1272 L 868 1331 L 1104 1327 L 1354 1331 L 1354 1272 C 1278 1270 1219 1259 1177 1238 C 1135 1216 1092 1183 1049 1137 L 711 776 L 1221 139 C 1264 85 1323 57 1397 55 L 1397 -4 Z M 662 1272 C 590 1272 544 1262 523 1244 C 502 1226 492 1198 492 1161 L 492 174 C 492 135 498 107 510 91 C 522 74 537 64 556 61 C 574 58 609 56 659 55 L 659 -4 C 564 -1 490 0 438 0 L 344 0 C 221 0 132 -1 76 -4 L 76 55 C 146 56 193 65 219 81 C 245 97 258 137 258 201 L 258 1159 C 258 1188 254 1211 246 1227 C 238 1243 226 1254 212 1260 C 198 1266 179 1269 155 1270 L 80 1272 L 80 1331 L 348 1327 L 662 1331 L 662 1272 Z" unicode="K" />
<glyph horiz-adv-x="1194" d="M 1161 319 L 1098 -4 C 988 -1 813 0 571 0 L 442 0 C 349 0 218 -1 49 -4 L 49 55 C 130 55 179 67 196 91 C 212 115 221 166 221 244 L 221 1161 C 221 1196 214 1222 200 1238 C 186 1254 169 1264 148 1268 C 127 1272 94 1274 49 1274 L 49 1331 C 167 1328 260 1327 326 1327 C 468 1327 571 1328 635 1331 L 635 1274 C 571 1274 526 1266 500 1251 C 474 1235 461 1199 461 1141 L 461 207 C 461 165 474 135 502 117 C 529 98 559 87 592 84 C 625 81 676 80 746 80 C 854 80 935 93 987 120 C 1039 147 1079 216 1108 328 L 1161 319 Z" unicode="L" />
<glyph horiz-adv-x="1962" d="M 1913 -4 C 1788 -1 1691 0 1622 0 C 1553 0 1455 -1 1329 -4 L 1329 55 C 1393 56 1437 63 1461 76 C 1485 89 1497 112 1497 145 L 1497 156 L 1432 1073 L 1427 1073 L 932 -37 L 897 -37 L 418 1049 L 414 1049 L 340 186 C 340 128 354 91 383 77 C 412 62 459 55 524 55 L 524 -4 C 421 -1 342 0 287 0 C 229 0 148 -1 43 -4 L 43 55 C 123 55 177 65 203 86 C 229 106 246 163 256 256 L 330 995 C 335 1052 338 1094 338 1122 C 338 1184 323 1224 293 1242 C 263 1260 216 1270 150 1272 L 150 1331 L 348 1327 L 551 1331 L 999 322 L 1448 1331 L 1622 1327 L 1841 1331 L 1841 1272 C 1793 1272 1759 1270 1739 1266 C 1718 1262 1700 1253 1686 1237 C 1672 1221 1665 1196 1665 1161 L 1741 160 C 1743 126 1752 102 1766 88 C 1780 73 1797 64 1816 61 C 1835 58 1867 56 1913 55 L 1913 -4 Z" unicode="M" />
<glyph horiz-adv-x="1642" d="M 1599 1272 L 1546 1272 C 1502 1272 1469 1254 1445 1219 C 1421 1184 1409 1139 1409 1085 L 1409 -43 L 1356 -43 L 348 1098 L 348 248 C 348 174 363 124 394 96 C 424 68 478 55 555 55 L 555 -4 C 449 -1 368 0 311 0 C 197 0 114 -1 63 -4 L 63 55 C 139 56 191 69 220 95 C 249 121 264 167 264 233 L 264 1149 C 264 1225 193 1266 53 1272 L 53 1331 L 276 1327 L 465 1331 L 1325 362 L 1325 1083 C 1325 1158 1309 1208 1278 1233 C 1247 1257 1194 1270 1118 1272 L 1118 1331 L 1360 1327 L 1599 1331 L 1599 1272 Z" unicode="N" />
<glyph horiz-adv-x="1642" d="M 823 1364 C 1036 1364 1211 1302 1349 1180 C 1487 1058 1556 896 1556 696 C 1556 486 1482 312 1335 172 C 1188 32 1007 -37 793 -37 C 586 -37 416 27 284 157 C 152 286 86 453 86 657 C 86 862 156 1031 297 1164 C 437 1297 613 1364 823 1364 Z M 854 33 C 994 33 1103 89 1180 203 C 1257 316 1296 461 1296 637 C 1296 835 1247 994 1149 1114 C 1051 1234 939 1294 813 1294 C 669 1294 555 1240 471 1133 C 387 1025 346 890 346 727 C 346 547 392 386 486 245 C 579 103 702 33 854 33 Z" unicode="O" />
<glyph horiz-adv-x="1087" d="M 55 1331 L 291 1327 L 598 1331 C 734 1331 842 1299 920 1237 C 998 1175 1038 1085 1038 969 C 1038 907 1024 849 996 795 C 968 741 931 697 883 664 C 835 630 785 610 735 602 C 684 594 618 589 537 588 L 537 641 C 710 641 797 739 797 936 C 797 1032 775 1112 732 1176 C 688 1240 623 1272 535 1272 C 503 1272 471 1270 440 1266 L 440 180 C 440 140 448 112 465 94 C 481 76 501 65 525 61 C 549 57 586 55 637 55 L 637 -4 C 509 -1 410 0 340 0 C 272 0 177 -1 53 -4 L 53 55 C 115 55 156 65 174 86 C 192 107 201 139 201 182 L 201 1151 C 201 1203 190 1237 169 1251 C 148 1265 110 1272 55 1272 L 55 1331 Z" unicode="P" />
<glyph horiz-adv-x="1642" d="M 1591 -344 C 1519 -400 1448 -428 1376 -428 C 1325 -428 1282 -419 1248 -401 C 1213 -383 1170 -353 1118 -311 L 943 -166 C 879 -114 820 -71 764 -37 C 560 -27 396 40 272 166 C 148 292 86 455 86 655 C 86 861 156 1030 296 1164 C 436 1297 611 1364 821 1364 C 1029 1364 1204 1301 1345 1176 C 1485 1050 1556 888 1556 690 C 1556 596 1537 503 1501 411 C 1465 319 1406 235 1325 159 C 1243 83 1135 24 999 -16 C 1115 -84 1220 -156 1316 -230 C 1398 -294 1459 -326 1501 -326 C 1522 -326 1543 -320 1563 -309 C 1575 -317 1585 -329 1591 -344 Z M 854 33 C 994 33 1103 89 1180 203 C 1257 316 1296 461 1296 637 C 1296 835 1247 994 1149 1114 C 1051 1234 939 1294 813 1294 C 669 1294 555 1240 471 1133 C 387 1025 346 890 346 727 C 346 547 392 386 486 245 C 579 103 702 33 854 33 Z" unicode="Q" />
<glyph horiz-adv-x="1430" d="M 1409 -4 C 1335 -1 1277 0 1237 0 L 1067 -4 C 1049 -4 1030 3 1012 17 C 993 31 970 62 942 109 C 922 142 891 188 851 248 C 800 320 767 371 751 400 L 629 623 L 500 623 L 500 156 C 500 124 511 99 534 81 C 557 63 605 55 678 55 L 678 -4 C 550 -1 451 0 381 0 C 312 0 214 -1 88 -4 L 88 55 C 153 56 198 64 223 80 C 247 95 260 133 260 193 L 260 1139 C 260 1181 254 1211 242 1230 C 230 1248 214 1260 194 1264 C 173 1268 138 1271 90 1272 L 90 1331 L 305 1327 L 651 1331 C 805 1331 925 1302 1010 1246 C 1094 1190 1137 1107 1137 997 C 1137 847 1044 736 860 664 L 1084 330 C 1144 240 1191 176 1225 140 C 1259 103 1288 80 1314 72 C 1339 63 1371 57 1409 55 L 1409 -4 Z M 500 692 L 618 692 C 704 692 771 716 819 766 C 867 815 891 884 891 973 C 891 1067 866 1141 818 1193 C 770 1245 699 1272 606 1272 C 567 1272 532 1267 500 1257 L 500 692 Z" unicode="R" />
<glyph horiz-adv-x="981" d="M 782 1067 C 763 1148 735 1206 699 1241 C 662 1276 612 1294 549 1294 C 479 1294 419 1272 371 1228 C 323 1184 299 1128 299 1061 C 299 1019 313 979 341 941 C 369 902 439 852 553 792 C 626 752 685 715 731 683 C 776 651 815 608 847 556 C 879 504 895 441 895 367 C 895 249 851 154 763 81 C 675 7 568 -29 442 -29 C 334 -29 221 0 102 57 C 94 187 85 280 74 334 L 125 342 C 159 229 200 151 248 107 C 296 63 359 41 436 41 C 508 41 570 63 620 108 C 670 153 696 211 696 281 C 696 326 681 369 653 410 C 625 451 553 502 439 562 C 368 598 311 632 268 662 C 225 692 188 733 158 783 C 128 833 113 895 113 969 C 113 1093 153 1189 235 1259 C 316 1329 420 1364 547 1364 C 587 1364 677 1355 815 1337 C 815 1274 822 1186 836 1073 L 782 1067 Z" unicode="S" />
<glyph horiz-adv-x="1430" d="M 1397 1384 C 1380 1268 1372 1167 1372 1079 L 1325 1061 C 1322 1134 1310 1184 1289 1211 C 1267 1237 1214 1251 1130 1251 L 852 1251 L 852 205 C 852 140 865 99 893 82 C 921 65 970 56 1040 55 L 1040 -4 L 739 0 L 434 -4 L 434 55 C 490 55 529 58 552 64 C 575 70 591 84 600 107 C 609 129 614 168 614 223 L 614 1251 L 330 1251 C 251 1251 197 1237 168 1210 C 139 1182 119 1137 109 1073 L 51 1073 C 71 1181 84 1291 88 1401 L 131 1401 C 145 1355 179 1333 233 1333 L 1247 1333 C 1280 1333 1304 1338 1319 1348 C 1333 1358 1348 1375 1362 1401 L 1397 1384 Z" unicode="T" />
<glyph horiz-adv-x="1430" d="M 1380 1272 C 1328 1272 1292 1263 1273 1246 C 1254 1229 1245 1188 1245 1124 L 1245 422 C 1245 268 1197 152 1102 75 C 1006 -2 880 -41 723 -41 C 557 -41 428 -4 334 67 C 240 139 193 244 193 381 L 193 1163 C 193 1198 184 1225 166 1244 C 148 1262 110 1272 51 1272 L 51 1331 L 297 1327 L 580 1331 L 580 1272 C 537 1272 507 1269 489 1265 C 471 1261 457 1250 447 1234 C 437 1217 432 1191 432 1157 L 432 401 C 432 291 462 204 524 140 C 586 76 672 45 782 45 C 894 45 982 76 1046 140 C 1109 203 1141 291 1141 403 L 1141 1079 C 1141 1112 1139 1139 1137 1161 C 1135 1183 1129 1203 1119 1223 C 1109 1242 1094 1255 1076 1262 C 1057 1268 1026 1272 983 1272 L 983 1331 C 1067 1328 1133 1327 1180 1327 C 1226 1327 1293 1328 1380 1331 L 1380 1272 Z" unicode="U" />
<glyph horiz-adv-x="1430" d="M 1395 1272 C 1355 1272 1328 1263 1313 1246 C 1298 1229 1281 1196 1262 1147 L 791 -37 L 727 -37 L 227 1198 C 216 1224 199 1242 176 1254 C 153 1266 115 1272 61 1272 L 61 1331 L 344 1327 L 637 1331 L 637 1272 C 573 1272 534 1267 519 1257 C 503 1247 496 1233 496 1217 C 496 1192 503 1161 518 1124 L 848 305 L 1159 1135 C 1173 1167 1180 1196 1180 1221 C 1180 1236 1171 1248 1155 1258 C 1139 1267 1098 1272 1034 1272 L 1034 1331 L 1214 1327 L 1395 1331 L 1395 1272 Z" unicode="V" />
<glyph horiz-adv-x="1962" d="M 1921 1272 C 1884 1270 1858 1261 1843 1243 C 1828 1225 1812 1193 1794 1147 L 1335 -37 L 1278 -37 L 1020 582 L 754 -37 L 705 -37 L 188 1192 C 175 1222 159 1242 141 1254 C 122 1265 91 1271 47 1272 L 47 1331 C 147 1328 224 1327 279 1327 L 524 1331 L 524 1272 C 485 1272 460 1267 449 1259 C 437 1251 432 1240 432 1227 C 432 1212 438 1190 451 1161 L 815 293 L 979 674 L 839 1009 C 787 1135 757 1204 751 1218 C 744 1231 734 1242 722 1252 C 709 1261 695 1267 680 1269 C 664 1271 641 1272 610 1272 L 610 1331 L 1014 1327 L 1460 1331 L 1460 1272 C 1419 1272 1389 1270 1370 1267 C 1350 1263 1333 1254 1319 1240 C 1304 1226 1281 1183 1250 1113 L 1143 868 L 1384 303 L 1700 1153 C 1708 1173 1712 1194 1712 1214 C 1712 1232 1704 1246 1688 1256 C 1672 1266 1632 1272 1569 1272 L 1569 1331 L 1755 1327 L 1921 1331 L 1921 1272 Z M 1106 971 C 1175 1128 1210 1214 1210 1229 C 1210 1254 1200 1270 1182 1276 C 1164 1282 1135 1286 1097 1286 C 1031 1286 999 1270 999 1239 C 999 1207 1034 1118 1106 971 Z" unicode="W" />
<glyph horiz-adv-x="1536" d="M 1495 -4 C 1381 -1 1294 0 1233 0 C 1158 0 1054 -1 920 -4 L 920 55 C 993 55 1030 66 1030 90 C 1030 105 1022 123 1007 145 L 717 551 C 530 309 430 178 417 159 C 403 139 397 121 397 104 C 397 90 405 79 422 69 C 438 59 479 55 543 55 L 543 -4 C 437 -1 354 0 295 0 C 187 0 109 -1 61 -4 L 61 55 C 157 55 234 89 292 158 L 670 618 L 386 1018 C 305 1132 256 1198 238 1217 C 220 1236 199 1250 173 1259 C 147 1267 109 1272 61 1272 L 61 1331 C 193 1328 295 1327 369 1327 L 651 1331 L 651 1272 C 599 1272 567 1269 555 1263 C 543 1257 537 1250 537 1241 C 537 1229 541 1217 551 1204 L 825 817 C 979 1015 1066 1126 1085 1152 C 1104 1177 1114 1200 1114 1221 C 1114 1235 1105 1247 1087 1257 C 1069 1267 1032 1272 975 1272 L 975 1331 C 1077 1328 1156 1327 1212 1327 C 1272 1327 1357 1328 1466 1331 L 1466 1272 C 1387 1272 1330 1259 1294 1234 C 1258 1209 1233 1187 1218 1169 L 872 750 L 1161 346 C 1256 212 1313 136 1331 116 C 1349 96 1371 81 1397 71 C 1423 60 1455 55 1495 55 L 1495 -4 Z" unicode="X" />
<glyph horiz-adv-x="1430" d="M 1399 1272 C 1340 1272 1294 1248 1262 1202 L 895 688 L 895 158 C 895 125 903 101 919 87 C 935 72 952 63 972 61 C 992 58 1026 56 1075 55 L 1075 -4 C 1013 -1 913 0 776 0 C 704 0 604 -1 475 -4 L 475 55 C 527 56 564 58 584 62 C 604 65 620 75 633 92 C 646 109 653 137 653 176 L 653 633 L 217 1225 C 194 1256 142 1272 61 1272 L 61 1331 L 348 1327 L 637 1331 L 637 1272 C 565 1269 530 1255 530 1231 C 530 1214 538 1194 556 1172 L 856 768 L 1122 1168 C 1140 1194 1149 1215 1149 1231 C 1149 1243 1140 1253 1124 1261 C 1108 1268 1071 1272 1014 1272 L 1014 1331 L 1221 1327 L 1399 1331 L 1399 1272 Z" unicode="Y" />
<glyph horiz-adv-x="1430" d="M 1380 313 C 1347 175 1324 70 1311 0 L 88 0 L 975 1243 L 391 1243 C 339 1243 299 1228 269 1199 C 239 1169 214 1112 195 1026 L 141 1030 C 152 1181 160 1293 164 1366 L 203 1384 C 219 1346 250 1327 295 1327 L 1319 1327 L 436 84 L 1081 84 C 1143 84 1192 99 1229 131 C 1265 163 1299 228 1329 326 L 1380 313 Z" unicode="Z" />
<glyph horiz-adv-x="662" d="M 592 -371 L 414 -369 L 254 -371 L 203 -371 C 207 -288 209 -205 209 -123 L 209 963 C 209 1053 207 1178 203 1339 L 381 1335 L 588 1339 L 588 1288 L 461 1288 C 376 1288 334 1273 334 1245 L 334 -256 C 334 -276 338 -290 346 -299 C 354 -307 381 -313 426 -317 C 470 -320 526 -322 592 -322 L 592 -371 Z" unicode="[" />
<glyph horiz-adv-x="1153" d="M 1122 0 L 905 0 L 31 1477 L 248 1477 L 1122 0 Z" unicode="\" />
<glyph horiz-adv-x="662" d="M 459 -371 L 408 -371 L 248 -369 L 70 -371 L 70 -322 C 140 -322 196 -320 240 -316 C 283 -312 308 -306 316 -298 C 324 -289 328 -275 328 -256 L 328 1245 C 328 1273 285 1288 201 1288 L 74 1288 L 74 1339 L 281 1335 L 459 1339 C 455 1170 453 1039 453 946 L 453 -123 C 453 -205 455 -288 459 -371 Z" unicode="]" />
<glyph horiz-adv-x="1190" d="M 1044 608 L 885 608 L 590 1120 L 299 608 L 147 608 L 557 1327 L 639 1327 L 1044 608 Z" unicode="^" />
<glyph horiz-adv-x="1024" d="M 1036 -256 L -12 -256 L -12 -154 L 1036 -154 L 1036 -256 Z" unicode="_" />
<glyph horiz-adv-x="682" d="M 479 989 L 440 969 L 184 1384 L 283 1434 L 479 989 Z" unicode="`" />
<glyph horiz-adv-x="981" d="M 944 82 C 874 9 806 -27 741 -27 C 667 -27 623 19 608 113 C 521 49 458 9 418 -5 C 378 -19 341 -27 307 -27 C 249 -27 201 -8 162 28 C 123 65 104 112 104 168 C 104 239 135 292 198 327 C 260 361 394 415 600 489 L 600 612 C 600 659 582 696 548 723 C 513 750 472 764 424 764 C 348 764 305 720 297 633 C 293 609 288 593 282 587 C 276 581 258 572 230 561 C 202 550 178 545 160 545 C 143 545 135 558 135 584 C 135 632 146 668 170 692 C 194 716 231 741 283 768 C 304 779 329 793 357 809 C 413 842 456 863 484 872 C 512 880 539 885 563 885 C 641 885 700 862 741 816 C 782 770 803 704 803 618 L 803 248 C 803 179 809 136 822 118 C 834 100 850 92 868 92 C 886 92 905 99 924 113 L 944 82 Z M 600 250 L 599 351 C 599 381 599 406 600 426 C 550 418 490 398 419 365 C 348 331 313 282 313 217 C 313 179 324 148 346 123 C 368 98 396 86 432 86 C 468 86 505 99 543 125 C 581 151 600 179 600 207 L 600 250 Z" unicode="a" />
<glyph horiz-adv-x="1087" d="M 344 762 C 411 809 464 839 502 853 C 540 867 581 874 625 874 C 736 874 827 835 898 757 C 968 679 1004 581 1004 465 C 1004 327 956 211 860 116 C 764 20 647 -27 510 -27 C 422 -27 331 -3 236 43 L 154 -16 L 131 0 C 136 68 139 146 139 233 L 139 1276 L 49 1321 L 49 1360 C 137 1388 230 1427 326 1477 L 344 1466 L 344 762 Z M 344 707 L 344 174 C 359 135 390 102 436 75 C 482 48 527 35 573 35 C 639 35 691 66 728 130 C 765 194 784 270 784 358 C 784 464 757 557 705 638 C 653 719 583 760 496 760 C 450 760 400 742 344 707 Z" unicode="b" />
<glyph horiz-adv-x="874" d="M 838 205 C 746 45 621 -35 463 -35 C 348 -35 253 5 179 86 C 105 167 68 267 68 385 C 68 524 116 641 213 736 C 310 831 429 879 569 879 C 637 879 693 867 739 844 C 784 820 807 787 807 743 C 807 716 797 693 779 675 C 760 656 737 647 711 647 C 695 647 681 650 667 658 C 653 666 635 685 615 717 C 590 755 567 780 545 790 C 523 800 501 805 477 805 C 413 805 361 773 321 710 C 281 646 262 576 262 498 C 262 396 293 306 355 230 C 417 153 496 115 590 115 C 630 115 666 123 697 139 C 728 155 764 186 805 233 L 838 205 Z" unicode="c" />
<glyph horiz-adv-x="1087" d="M 1051 51 L 752 -27 L 729 -2 L 729 100 C 615 15 516 -27 432 -27 C 333 -27 251 14 186 96 C 120 178 88 273 88 381 C 88 515 136 633 234 733 C 331 833 447 883 582 883 C 628 883 677 873 729 854 L 729 1268 C 719 1282 681 1299 616 1317 L 616 1352 C 748 1395 850 1437 922 1477 L 934 1466 L 934 82 L 1051 90 L 1051 51 Z M 729 162 L 729 694 C 691 772 627 811 539 811 C 465 811 405 779 361 715 C 317 651 295 576 295 489 C 295 387 321 298 373 221 C 425 144 494 106 580 106 C 638 106 687 124 729 162 Z" unicode="d" />
<glyph horiz-adv-x="874" d="M 823 199 C 713 48 590 -27 455 -27 C 342 -27 250 15 178 100 C 106 184 70 287 70 408 C 70 535 111 644 195 736 C 279 828 382 874 506 874 C 613 874 692 841 742 777 C 792 713 817 653 817 598 C 817 564 787 547 729 547 L 246 547 C 246 412 279 310 345 242 C 411 173 490 139 580 139 C 656 139 727 171 795 236 L 823 199 Z M 254 608 L 543 608 C 595 608 621 629 621 672 C 621 709 606 742 577 770 C 548 798 515 813 477 813 C 425 813 378 793 336 755 C 294 717 266 668 254 608 Z" unicode="e" />
<glyph horiz-adv-x="662" d="M 190 862 L 190 948 C 190 1096 233 1221 319 1323 C 405 1425 496 1477 594 1477 C 676 1477 717 1439 717 1364 C 717 1332 707 1306 689 1286 C 671 1266 646 1257 616 1257 C 591 1257 568 1273 547 1306 C 526 1336 504 1352 481 1352 C 427 1352 401 1300 401 1196 L 401 848 L 635 848 L 635 758 L 399 758 L 399 119 C 399 97 403 81 411 72 C 419 63 434 57 456 54 C 477 50 503 49 535 49 C 559 49 576 48 588 47 L 588 -4 C 471 -1 381 0 319 0 C 258 0 171 -1 57 -4 L 57 47 C 98 47 124 47 136 48 C 148 49 160 53 173 61 C 186 68 193 80 193 96 L 193 758 L 55 758 L 55 788 L 190 862 Z" unicode="f" />
<glyph horiz-adv-x="981" d="M 326 301 L 308 287 C 282 269 270 252 270 238 C 270 179 334 150 463 150 L 672 156 C 764 156 831 137 873 101 C 915 65 936 9 936 -66 C 936 -132 914 -195 872 -255 C 829 -314 770 -360 695 -392 C 619 -424 536 -440 444 -440 C 343 -440 253 -422 174 -386 C 94 -350 55 -299 55 -233 C 55 -157 131 -90 285 -31 L 285 -27 C 213 -12 163 9 136 39 C 108 69 92 116 86 180 C 149 223 210 268 270 315 C 142 372 78 458 78 573 C 78 672 115 748 190 800 C 265 852 355 879 459 879 C 526 879 589 867 647 844 C 696 824 752 814 816 814 L 936 817 L 936 721 L 784 723 C 802 675 811 630 811 590 C 811 498 774 425 701 371 C 628 317 538 291 432 291 C 389 291 354 294 326 301 Z M 457 346 C 505 346 541 365 566 405 C 591 444 604 498 604 567 C 604 638 590 698 562 748 C 534 798 495 823 444 823 C 392 823 352 803 325 765 C 298 727 285 673 285 604 C 285 530 299 468 329 419 C 359 370 401 346 457 346 Z M 475 -375 C 558 -375 630 -355 692 -316 C 753 -277 784 -224 784 -158 C 784 -72 707 -29 553 -29 C 443 -29 358 -43 298 -73 C 237 -103 207 -147 207 -205 C 207 -261 236 -303 294 -332 C 352 -360 413 -375 475 -375 Z" unicode="g" />
<glyph horiz-adv-x="1087" d="M 1030 -4 C 986 -1 916 0 819 0 C 767 0 694 -1 602 -4 L 602 47 C 649 47 680 49 694 55 C 708 60 715 70 715 86 L 715 604 C 715 647 699 682 668 708 C 637 734 598 748 551 748 C 495 748 436 725 375 680 L 375 88 C 375 67 381 55 395 52 C 408 48 439 47 487 47 L 487 -4 C 393 -1 320 0 268 0 C 216 0 142 -1 47 -4 L 47 47 C 95 47 127 50 143 56 C 158 62 166 79 166 109 L 166 1247 C 166 1259 161 1270 152 1280 C 142 1290 121 1300 88 1310 C 69 1315 57 1319 51 1323 L 51 1360 C 155 1387 239 1416 303 1448 C 335 1467 354 1477 360 1477 C 370 1477 375 1467 375 1448 L 375 741 C 509 833 611 879 682 879 C 751 879 809 857 855 814 C 901 771 924 716 924 649 L 924 74 C 924 56 959 47 1030 47 L 1030 -4 Z" unicode="h" />
<glyph horiz-adv-x="555" d="M 287 1389 C 318 1389 345 1378 367 1356 C 389 1334 401 1307 401 1276 C 401 1244 389 1217 367 1195 C 345 1172 318 1161 287 1161 C 255 1161 229 1172 207 1194 C 185 1216 174 1244 174 1276 C 174 1308 184 1334 206 1356 C 228 1378 255 1389 287 1389 Z M 500 -4 C 420 -1 359 0 315 0 L 270 0 C 220 0 149 -1 57 -4 L 57 47 C 102 47 129 48 139 51 C 161 57 172 71 172 92 L 172 680 C 172 694 143 710 87 726 C 70 730 60 733 57 735 L 57 776 C 74 779 102 789 141 806 L 283 862 C 327 880 350 889 352 889 C 372 889 383 877 383 854 L 383 90 C 383 69 390 57 406 53 C 422 49 453 47 500 47 L 500 -4 Z" unicode="i" />
<glyph horiz-adv-x="555" d="M 274 1389 C 306 1389 333 1378 355 1356 C 377 1334 389 1307 389 1276 C 389 1244 377 1217 355 1195 C 333 1172 306 1161 274 1161 C 242 1161 216 1172 194 1194 C 172 1216 162 1244 162 1276 C 162 1308 172 1334 194 1356 C 216 1378 242 1389 274 1389 Z M 383 -68 C 383 -222 278 -337 68 -414 L 45 -371 C 129 -335 172 -274 172 -188 L 172 678 C 172 696 145 712 92 727 C 75 731 65 735 61 737 L 61 772 C 221 828 321 867 360 889 L 383 879 L 383 -68 Z" unicode="j" />
<glyph horiz-adv-x="1087" d="M 1053 -4 C 1022 -1 972 0 903 0 C 825 0 769 -1 735 -4 C 562 220 467 342 449 364 C 431 386 413 397 395 397 C 390 397 385 395 379 393 L 379 72 C 379 55 417 47 494 47 L 494 -4 C 403 -1 333 0 283 0 C 179 0 105 -1 59 -4 L 59 47 C 79 47 98 48 116 49 C 134 50 148 55 157 63 C 165 71 170 84 170 104 L 170 1253 C 170 1270 140 1288 82 1307 L 59 1315 L 59 1354 C 139 1380 237 1421 354 1477 L 379 1466 L 379 446 C 393 446 406 449 416 457 C 426 465 450 486 488 521 C 525 556 568 598 618 647 C 668 696 697 725 705 735 C 713 745 717 756 717 768 C 717 785 711 795 699 798 C 687 801 662 803 625 803 L 625 852 L 803 848 C 853 848 924 849 1014 852 L 1014 803 C 965 802 924 795 892 781 C 859 767 826 745 792 713 L 586 524 C 786 282 894 150 911 128 C 927 106 946 88 967 72 C 987 56 1016 48 1053 47 L 1053 -4 Z" unicode="k" />
<glyph horiz-adv-x="555" d="M 498 -4 C 453 -1 382 0 285 0 C 231 0 155 -1 57 -4 L 57 47 C 100 47 130 49 147 55 C 163 60 172 74 172 98 L 172 1264 C 146 1288 109 1306 61 1319 L 61 1354 C 197 1403 297 1444 360 1477 L 383 1462 L 383 96 C 383 73 391 59 408 54 C 425 49 455 47 498 47 L 498 -4 Z" unicode="l" />
<glyph horiz-adv-x="1642" d="M 1577 -4 C 1511 -1 1408 0 1266 0 C 1210 0 1170 0 1145 -2 L 1145 49 C 1194 49 1224 51 1235 57 C 1245 62 1251 69 1251 78 L 1251 592 C 1251 640 1236 677 1207 703 C 1178 728 1139 741 1090 741 C 1034 741 979 719 924 676 L 924 96 C 924 72 928 58 938 54 C 948 49 970 47 1004 47 L 1042 47 L 1042 -4 C 954 -1 886 0 838 0 C 760 0 684 -2 608 -6 L 608 47 L 680 47 C 703 47 715 59 715 84 L 715 596 C 715 640 699 675 669 701 C 639 726 601 739 555 739 C 507 739 451 718 387 676 L 387 74 C 387 60 398 52 422 48 C 424 47 452 47 506 47 L 506 -4 L 303 0 C 245 0 164 -1 61 -4 L 61 47 L 109 47 C 135 47 153 48 163 51 C 173 54 178 63 178 78 L 178 680 C 154 700 115 718 63 733 L 63 768 C 188 806 287 849 360 895 L 385 885 L 385 737 C 515 831 620 879 702 879 C 750 879 795 864 835 836 C 875 808 899 770 909 723 C 1025 827 1129 879 1223 879 C 1295 879 1353 856 1396 810 C 1438 764 1460 704 1460 629 L 1460 80 C 1460 56 1482 45 1526 45 L 1577 47 L 1577 -4 Z" unicode="m" />
<glyph horiz-adv-x="1087" d="M 1034 -4 C 941 -1 869 0 817 0 L 604 -4 L 604 45 C 651 45 679 46 687 50 C 704 57 713 74 713 100 L 713 594 C 713 638 697 675 666 703 C 635 731 596 745 549 745 C 498 745 439 723 373 680 L 373 104 C 373 76 381 59 398 53 C 415 47 445 45 487 45 L 487 -4 C 441 -1 368 0 268 0 L 53 -4 L 53 47 C 101 47 131 49 144 53 C 157 57 164 71 164 96 L 164 670 C 164 692 126 713 51 733 L 51 768 C 196 812 296 853 350 893 L 373 881 L 373 737 C 501 831 608 879 694 879 C 764 879 819 857 860 814 C 901 770 922 713 922 641 L 922 96 C 922 75 926 61 935 55 C 944 48 977 45 1034 45 L 1034 -4 Z" unicode="n" />
<glyph horiz-adv-x="1087" d="M 520 879 C 661 879 778 837 872 754 C 965 671 1012 563 1012 430 C 1012 300 966 190 874 102 C 782 13 671 -31 541 -31 C 409 -31 299 11 210 96 C 120 181 76 288 76 418 C 76 543 118 651 204 742 C 290 833 395 879 520 879 Z M 557 31 C 629 31 683 64 721 130 C 759 196 778 284 778 395 C 778 515 756 615 713 696 C 670 776 608 817 528 817 C 456 817 402 784 365 720 C 327 656 309 571 309 465 C 309 340 330 236 373 154 C 415 72 477 31 557 31 Z" unicode="o" />
<glyph horiz-adv-x="1087" d="M 379 756 C 499 834 602 874 688 874 C 788 874 870 837 935 763 C 999 689 1032 599 1032 494 C 1032 358 983 238 887 132 C 791 26 676 -27 543 -27 C 509 -27 454 -18 379 0 L 379 -365 C 379 -375 385 -382 398 -386 C 410 -390 457 -393 539 -393 L 539 -444 L 262 -440 L 57 -444 L 57 -393 C 115 -393 148 -391 157 -388 C 165 -384 170 -377 170 -365 L 170 672 C 170 693 133 712 59 729 L 59 770 C 169 800 267 839 354 889 L 379 877 L 379 756 Z M 379 182 C 449 92 522 47 598 47 C 669 47 724 77 763 139 C 801 201 821 279 821 373 C 821 468 796 555 747 635 C 698 714 634 754 555 754 C 491 754 432 735 379 698 L 379 182 Z" unicode="p" />
<glyph horiz-adv-x="1087" d="M 1044 -444 C 954 -441 885 -440 836 -440 C 777 -440 694 -441 586 -444 L 586 -393 C 673 -393 717 -381 717 -358 L 717 90 C 615 12 520 -27 432 -27 C 327 -27 240 13 172 94 C 104 175 70 271 70 383 C 70 520 120 637 220 734 C 320 830 440 879 580 879 C 649 879 720 864 793 834 L 907 920 L 930 901 L 930 -360 C 930 -375 941 -385 964 -391 C 971 -392 998 -393 1044 -393 L 1044 -444 Z M 717 150 L 717 670 C 717 688 703 709 677 732 C 651 754 626 772 603 785 C 579 798 550 805 516 805 C 440 805 381 774 338 714 C 295 654 274 578 274 487 C 274 371 304 277 365 207 C 426 137 493 102 567 102 C 613 102 663 118 717 150 Z" unicode="q" />
<glyph horiz-adv-x="768" d="M 381 733 C 472 830 551 879 618 879 C 654 879 683 868 705 848 C 726 827 737 799 737 764 C 737 733 728 708 712 690 C 695 671 671 662 641 662 C 615 662 588 673 559 697 C 532 718 508 729 487 729 C 455 729 430 714 411 686 C 392 658 383 625 383 588 L 383 78 C 383 63 388 54 398 51 C 408 48 456 47 543 47 L 543 -4 C 447 -1 374 0 322 0 L 225 0 C 144 0 85 -1 49 -4 L 49 47 C 95 47 128 48 146 51 C 164 54 174 62 174 74 L 174 678 C 174 690 170 698 162 702 C 154 706 121 717 63 735 L 63 774 C 183 809 282 849 360 893 L 381 885 L 381 733 Z" unicode="r" />
<glyph horiz-adv-x="768" d="M 594 649 C 578 766 520 825 422 825 C 379 825 344 813 318 791 C 292 768 279 737 279 698 C 279 670 288 644 308 618 C 327 592 376 560 454 520 C 552 468 615 422 642 382 C 668 341 682 298 682 252 C 682 163 649 94 583 44 C 517 -6 439 -31 348 -31 C 284 -31 208 -10 119 31 L 106 233 L 150 236 C 180 98 244 29 344 29 C 387 29 424 42 455 69 C 486 95 502 129 502 170 C 502 194 493 217 476 239 C 459 261 416 289 346 325 C 246 375 183 423 156 467 C 128 511 115 559 115 610 C 115 694 143 761 200 811 C 256 860 330 885 422 885 C 486 885 556 870 633 842 L 637 651 L 594 649 Z" unicode="s" />
<glyph horiz-adv-x="662" d="M 631 131 C 568 25 482 -27 373 -27 C 309 -27 257 -8 217 29 C 177 67 158 116 158 178 L 158 750 L 55 750 L 55 788 C 115 826 161 862 195 894 C 229 926 274 974 332 1039 C 340 1048 346 1053 352 1053 C 360 1053 365 1046 365 1034 L 365 848 L 610 848 L 610 750 L 365 750 L 365 260 C 365 154 405 102 485 102 C 521 102 562 120 606 156 L 631 131 Z" unicode="t" />
<glyph horiz-adv-x="1087" d="M 1032 39 L 733 -14 L 711 -2 L 711 123 C 585 20 479 -31 391 -31 C 329 -31 276 -11 233 27 C 189 65 168 114 168 174 L 168 731 C 168 740 155 751 129 763 C 103 775 79 782 57 786 L 57 823 L 360 879 L 381 868 L 381 260 C 381 214 394 177 421 147 C 447 117 483 102 528 102 C 552 102 576 107 601 117 C 626 127 663 153 711 193 L 711 729 C 711 747 667 768 580 793 L 580 829 L 901 879 L 922 868 L 922 113 C 922 98 930 89 946 86 C 962 83 991 82 1032 82 L 1032 39 Z" unicode="u" />
<glyph horiz-adv-x="981" d="M 946 801 C 914 801 893 797 881 790 C 869 782 860 771 854 756 L 496 -37 L 463 -37 L 139 758 C 131 777 120 789 106 794 C 92 798 68 801 35 801 L 35 852 L 246 848 L 467 852 L 467 801 C 421 801 393 799 382 797 C 370 794 365 786 365 774 C 365 762 370 744 380 720 L 559 279 L 690 581 C 727 667 747 715 750 725 C 752 735 754 745 754 754 C 754 774 744 787 724 793 C 704 798 675 801 635 801 L 635 852 L 793 848 L 946 852 L 946 801 Z" unicode="v" />
<glyph horiz-adv-x="1536" d="M 1495 801 C 1452 799 1422 791 1405 776 C 1387 760 1370 730 1352 686 L 1055 -37 L 1012 -37 L 774 549 L 512 -37 L 467 -37 L 152 754 C 139 784 102 799 41 801 L 41 852 L 250 848 L 467 852 L 467 801 C 433 801 410 799 396 796 C 382 792 375 784 375 770 C 375 755 441 584 575 258 L 739 631 C 717 691 702 728 695 742 C 688 756 675 770 655 782 C 635 794 607 800 569 801 L 569 852 L 788 848 L 1018 852 L 1018 801 C 973 801 945 797 933 791 C 921 784 915 776 915 766 C 915 754 980 590 1110 272 C 1218 550 1274 694 1279 706 C 1283 718 1286 729 1286 739 C 1286 777 1245 798 1165 801 L 1165 852 L 1333 848 L 1495 852 L 1495 801 Z" unicode="w" />
<glyph horiz-adv-x="1087" d="M 1042 -4 C 947 -1 873 0 821 0 C 703 0 618 -1 565 -4 L 565 47 C 629 47 662 56 662 76 C 662 92 604 178 489 332 L 368 183 C 330 137 309 110 305 104 C 301 97 299 91 299 86 C 299 62 334 49 406 47 L 406 -4 C 326 -1 265 0 221 0 C 179 0 119 -1 43 -4 L 43 47 C 71 48 95 51 115 55 C 135 59 152 65 165 74 C 177 83 214 122 274 191 L 446 389 L 263 638 C 212 707 180 748 167 761 C 154 774 138 784 120 791 C 101 797 76 801 45 801 L 45 852 L 279 848 L 522 852 L 522 801 C 462 801 432 794 432 780 C 432 769 485 693 592 553 C 690 674 741 738 747 746 C 753 754 756 762 756 772 C 756 791 722 801 655 801 L 655 852 L 844 848 L 1022 852 L 1022 801 C 1008 800 991 798 971 795 C 951 791 931 787 912 781 C 892 775 878 770 868 764 C 858 758 827 724 775 663 L 631 498 L 823 233 C 899 128 939 74 942 70 C 944 66 952 63 964 59 C 976 55 989 52 1001 51 C 1013 49 1027 48 1042 47 L 1042 -4 Z" unicode="x" />
<glyph horiz-adv-x="981" d="M 944 801 C 904 801 877 792 862 775 C 846 757 829 724 809 676 L 393 -336 C 363 -405 318 -440 258 -440 C 228 -440 203 -430 183 -411 C 162 -392 152 -368 152 -340 C 152 -310 161 -284 179 -262 C 197 -240 220 -229 248 -229 C 284 -229 315 -247 342 -285 L 446 -29 L 131 752 C 118 784 87 801 37 803 L 37 852 L 242 848 L 461 852 L 461 801 C 416 801 388 797 378 791 C 367 785 362 776 362 766 C 362 758 367 742 377 718 L 559 254 C 664 512 720 652 728 672 C 735 692 739 716 739 743 C 739 779 702 799 629 801 L 629 852 L 791 848 L 944 852 L 944 801 Z M 518 -29 L 518 -29 Z" unicode="y" />
<glyph horiz-adv-x="874" d="M 823 246 C 809 154 800 72 795 0 L 53 0 L 514 778 L 268 778 C 224 778 191 768 169 750 C 147 731 130 695 117 641 L 70 641 C 80 713 87 799 92 899 L 137 899 C 145 867 167 852 203 852 L 793 852 L 334 74 L 606 74 C 688 74 745 131 776 246 L 823 246 Z" unicode="z" />
<glyph horiz-adv-x="807" d="M 717 -412 L 705 -412 C 571 -412 471 -377 405 -307 C 338 -237 305 -167 305 -96 C 305 -56 314 1 332 77 C 349 154 358 213 358 254 C 358 367 293 435 164 459 L 164 518 C 293 542 358 614 358 733 C 358 771 349 827 333 901 C 315 975 307 1031 307 1069 C 307 1132 337 1199 397 1270 C 457 1340 564 1380 717 1389 L 717 1343 C 587 1317 522 1255 522 1155 C 522 1116 530 1060 546 988 C 562 913 571 855 571 815 C 571 751 545 688 494 626 C 442 563 359 518 244 492 L 244 487 C 366 455 451 407 500 344 C 548 280 573 220 573 164 C 573 125 565 69 549 -4 C 532 -78 524 -134 524 -172 C 524 -274 588 -339 717 -367 L 717 -412 Z" unicode="{" />
<glyph horiz-adv-x="575" d="M 381 -440 L 195 -440 L 195 1477 L 381 1477 L 381 -440 Z" unicode="|" />
<glyph horiz-adv-x="807" d="M 643 459 C 513 434 449 362 449 244 C 449 205 457 149 474 76 C 491 2 500 -54 500 -92 C 500 -155 469 -222 409 -293 C 349 -363 242 -403 90 -412 L 90 -367 C 220 -341 285 -278 285 -178 C 285 -139 276 -83 260 -11 C 244 63 236 121 236 162 C 236 225 261 288 313 351 C 364 413 447 458 563 485 L 563 489 C 441 521 355 569 306 632 C 257 695 233 755 233 813 C 233 851 241 907 258 981 C 274 1055 283 1111 283 1149 C 283 1251 218 1316 90 1343 L 90 1389 L 102 1389 C 235 1389 335 1354 402 1284 C 468 1214 502 1144 502 1073 C 502 1033 493 976 475 900 C 457 822 449 763 449 723 C 449 609 513 541 643 518 L 643 459 Z" unicode="}" />
<glyph horiz-adv-x="1366" d="M 1227 829 C 1223 729 1198 651 1150 593 C 1102 535 1038 506 958 506 C 897 506 809 530 694 580 C 604 618 537 646 494 662 C 450 678 410 686 373 686 C 273 686 215 626 197 508 L 139 508 C 143 622 171 704 224 755 C 277 805 335 831 399 831 C 465 831 578 797 738 729 C 812 697 864 675 895 664 C 926 652 959 647 993 647 C 1042 647 1082 663 1113 695 C 1144 727 1163 771 1169 829 L 1227 829 Z" unicode="~" />
<glyph horiz-adv-x="492" d="" unicode="" />
<glyph horiz-adv-x="555" d="M 272 879 C 314 879 350 864 380 836 C 409 807 424 772 424 731 C 424 691 409 656 380 628 C 351 600 316 586 276 586 C 236 586 201 600 173 629 C 145 658 131 693 131 733 C 131 772 145 806 173 835 C 201 864 234 879 272 879 Z M 299 471 C 339 295 368 158 388 58 C 408 -42 418 -119 418 -174 C 418 -228 405 -271 381 -305 C 357 -339 323 -356 279 -356 C 233 -356 197 -339 173 -305 C 149 -271 137 -226 137 -170 C 137 -109 145 -33 162 58 C 179 149 196 228 213 294 L 256 471 L 299 471 Z" unicode="" />
<glyph horiz-adv-x="874" d="M 838 203 C 746 44 623 -35 469 -35 C 415 -35 362 -25 309 -6 L 139 -498 L 61 -498 L 244 29 C 126 113 68 231 68 383 C 68 511 112 624 201 724 C 289 824 402 874 539 874 L 705 1352 L 780 1352 L 614 879 C 741 863 805 817 805 743 C 805 717 795 694 775 674 C 755 654 733 645 707 645 C 691 645 676 649 662 659 C 647 668 628 690 606 726 C 593 745 584 758 578 766 L 385 201 C 427 165 461 142 489 131 C 517 120 550 115 588 115 C 663 115 735 154 805 233 L 838 203 Z M 512 801 C 504 803 491 805 473 805 C 427 805 380 778 333 726 C 285 673 262 600 262 506 C 262 407 284 327 328 266 L 512 801 Z" unicode="" />
<glyph horiz-adv-x="1087" d="M 371 786 C 411 998 456 1144 504 1224 C 552 1304 611 1364 683 1406 C 755 1447 824 1468 891 1468 C 934 1468 972 1458 1004 1438 C 1036 1418 1053 1390 1053 1356 C 1053 1330 1044 1310 1028 1295 C 1011 1279 989 1272 963 1272 C 947 1272 933 1275 920 1282 C 907 1289 894 1307 881 1335 C 868 1360 856 1376 845 1383 C 834 1389 822 1393 809 1393 C 768 1393 732 1365 702 1310 C 671 1255 646 1173 628 1065 L 580 786 L 858 786 L 838 702 L 567 702 C 528 536 455 376 348 223 C 399 229 434 233 453 233 C 488 233 527 225 569 211 C 611 197 669 165 741 115 C 801 73 842 53 864 53 C 882 53 899 59 915 73 C 930 86 938 101 938 119 C 938 136 924 157 898 183 C 871 208 858 230 858 248 C 858 268 866 287 882 303 C 898 319 916 328 936 328 C 964 328 987 315 1005 290 C 1023 265 1032 236 1032 203 C 1032 127 1002 68 944 28 C 885 -12 816 -33 737 -33 C 700 -33 662 -27 623 -15 C 583 -3 533 25 473 71 C 403 123 346 151 303 154 C 235 42 169 -14 106 -14 C 68 -14 49 2 49 35 C 49 67 64 97 96 125 C 128 153 186 182 272 213 C 314 408 344 571 362 702 L 123 702 L 141 786 L 371 786 Z" unicode="" />
<glyph horiz-adv-x="1366" d="M 1194 283 L 1071 162 L 942 289 C 856 235 768 209 678 209 C 590 209 504 235 422 289 L 293 162 L 170 283 L 299 412 C 245 494 219 581 219 672 C 219 758 245 844 299 930 L 170 1061 L 291 1184 L 422 1053 C 501 1106 588 1133 682 1133 C 774 1133 861 1106 942 1053 L 1071 1184 L 1194 1061 L 1063 930 C 1116 856 1143 769 1143 670 C 1143 576 1116 490 1063 412 L 1194 283 Z M 682 383 C 761 383 829 411 885 467 C 941 523 969 592 969 672 C 969 752 941 819 885 875 C 829 930 762 958 682 958 C 602 958 533 930 477 874 C 421 818 393 751 393 672 C 393 592 421 524 478 468 C 534 411 602 383 682 383 Z" unicode="" />
<glyph horiz-adv-x="1430" d="M 1399 1272 C 1341 1272 1295 1246 1259 1196 L 895 688 L 1317 688 L 1317 612 L 895 612 L 895 399 L 1317 399 L 1317 324 L 895 324 L 895 158 C 895 125 903 101 919 87 C 935 72 952 63 972 61 C 992 58 1026 56 1075 55 L 1075 -4 C 1013 -1 913 0 776 0 C 704 0 604 -1 475 -4 L 475 55 C 527 56 564 58 584 62 C 604 65 620 75 633 92 C 646 109 653 137 653 176 L 653 324 L 233 324 L 233 399 L 653 399 L 653 612 L 233 612 L 233 688 L 612 688 L 363 1026 C 265 1159 214 1228 210 1234 C 206 1239 198 1245 186 1251 C 174 1257 161 1262 147 1265 C 133 1267 119 1269 106 1270 C 92 1271 77 1272 61 1272 L 61 1331 L 346 1327 L 637 1331 L 637 1272 C 565 1269 530 1255 530 1231 C 530 1214 538 1194 556 1172 L 856 768 C 1020 1017 1109 1154 1125 1178 C 1141 1202 1149 1219 1149 1231 C 1149 1243 1140 1253 1124 1261 C 1108 1268 1071 1272 1014 1272 L 1014 1331 L 1210 1327 L 1399 1331 L 1399 1272 Z" unicode="" />
<glyph horiz-adv-x="575" d="M 381 604 L 195 604 L 195 1477 L 381 1477 L 381 604 Z M 381 -440 L 195 -440 L 195 432 L 381 432 L 381 -440 Z" unicode="" />
<glyph horiz-adv-x="874" d="M 346 1108 C 346 1076 352 1041 364 1003 C 376 965 406 908 452 833 L 590 615 C 669 491 723 391 751 315 C 779 239 793 171 793 109 C 793 -23 747 -136 656 -230 C 565 -324 454 -371 324 -371 C 260 -371 201 -356 148 -327 C 94 -297 68 -258 68 -209 C 68 -187 75 -168 91 -154 C 106 -140 125 -133 147 -133 C 165 -133 182 -137 198 -146 C 214 -155 230 -178 248 -214 C 266 -253 285 -278 304 -288 C 322 -298 343 -303 365 -303 C 407 -303 440 -287 466 -257 C 491 -226 504 -187 504 -141 C 504 -96 493 -44 471 15 C 449 75 395 174 309 313 C 210 471 147 589 121 665 C 95 741 82 810 82 870 C 82 995 127 1106 218 1204 C 309 1301 416 1350 539 1350 C 594 1350 648 1337 700 1312 C 752 1287 778 1254 778 1214 C 778 1190 769 1171 751 1156 C 733 1140 712 1133 688 1133 C 672 1133 657 1136 642 1144 C 627 1151 609 1170 588 1200 C 564 1233 543 1254 525 1263 C 507 1271 488 1276 469 1276 C 431 1276 401 1259 379 1225 C 357 1191 346 1152 346 1108 Z M 561 -231 C 649 -151 694 -48 694 76 C 694 124 682 181 660 245 C 638 309 587 405 509 533 L 410 696 C 356 784 319 855 298 911 C 276 966 266 1014 266 1055 C 266 1087 272 1125 285 1171 L 281 1176 C 209 1084 174 990 174 893 C 174 844 185 788 207 725 C 229 662 284 561 371 423 C 463 275 521 166 545 96 C 569 26 582 -36 582 -92 C 582 -131 573 -176 557 -227 L 561 -231 Z" unicode="" />
<glyph horiz-adv-x="682" d="M 528 1290 C 558 1290 584 1279 606 1259 C 628 1239 639 1214 639 1184 C 639 1155 628 1130 607 1109 C 585 1087 560 1077 532 1077 C 502 1077 477 1087 457 1108 C 436 1128 426 1154 426 1184 C 426 1212 436 1236 456 1258 C 476 1279 500 1290 528 1290 Z M 143 1290 C 173 1290 199 1279 221 1259 C 243 1239 254 1214 254 1184 C 254 1155 243 1130 222 1109 C 200 1087 175 1077 147 1077 C 117 1077 92 1087 72 1108 C 51 1128 41 1154 41 1184 C 41 1212 51 1236 71 1258 C 91 1279 115 1290 143 1290 Z" unicode="" />
<glyph horiz-adv-x="1530" d="M 764 1366 C 959 1366 1126 1296 1266 1158 C 1405 1019 1475 852 1475 657 C 1475 530 1443 412 1379 302 C 1315 192 1229 105 1119 42 C 1009 -21 890 -53 764 -53 C 568 -53 401 16 263 156 C 124 295 55 462 55 657 C 55 851 124 1018 263 1157 C 402 1296 569 1366 764 1366 Z M 764 37 C 934 37 1079 97 1201 219 C 1323 341 1384 487 1384 657 C 1384 827 1323 972 1201 1094 C 1079 1215 934 1276 764 1276 C 594 1276 449 1215 327 1093 C 205 971 145 826 145 657 C 145 486 205 340 326 219 C 447 97 593 37 764 37 Z M 1100 819 L 1061 819 C 1047 887 1018 940 974 978 C 930 1016 877 1036 815 1036 C 731 1036 667 1003 623 938 C 579 872 557 784 557 672 C 557 593 564 528 578 477 C 592 426 622 383 666 349 C 710 314 759 297 811 297 C 912 297 999 343 1071 436 L 1071 367 C 989 282 883 240 754 240 C 630 240 529 277 450 353 C 371 428 332 526 332 647 C 332 773 373 878 457 961 C 540 1043 645 1085 772 1085 C 826 1085 891 1071 969 1044 C 987 1037 1002 1034 1016 1034 C 1046 1034 1061 1050 1061 1083 L 1100 1083 L 1100 819 Z" unicode="" />
<glyph horiz-adv-x="662" d="M 629 831 C 583 781 540 756 500 756 C 449 756 416 787 401 850 C 325 787 259 756 203 756 C 163 756 130 768 105 792 C 80 816 68 847 68 887 C 68 911 71 930 79 946 C 87 962 106 978 138 996 C 170 1014 210 1032 258 1051 L 397 1104 L 397 1178 C 397 1211 387 1238 367 1258 C 347 1278 320 1288 287 1288 C 254 1288 232 1282 222 1270 C 211 1258 203 1239 198 1215 C 193 1190 185 1171 174 1159 C 163 1147 141 1141 109 1141 C 93 1141 86 1151 86 1171 C 86 1197 93 1218 109 1235 C 124 1252 152 1273 194 1297 C 236 1321 268 1338 292 1350 C 315 1362 342 1368 373 1368 C 423 1368 462 1353 492 1325 C 522 1296 537 1257 537 1208 L 535 1145 L 535 893 C 535 856 549 838 578 838 C 588 838 600 842 616 850 L 629 831 Z M 397 899 L 397 1059 C 269 1032 205 986 205 920 C 205 894 212 873 228 856 C 244 839 264 831 289 831 C 327 831 363 853 397 899 Z" unicode="" />
<glyph horiz-adv-x="981" d="M 858 170 L 821 147 L 489 453 L 823 760 L 858 735 L 672 457 L 858 170 Z M 494 170 L 457 147 L 125 453 L 459 760 L 494 735 L 307 457 L 494 170 Z" unicode="" />
<glyph horiz-adv-x="1366" d="M 1231 358 L 1073 358 L 1073 827 L 135 827 L 135 985 L 1231 985 L 1231 358 Z" unicode="" />
<glyph horiz-adv-x="662" d="M 592 555 L 557 399 L 70 399 L 104 555 L 592 555 Z" unicode="" />
<glyph horiz-adv-x="1530" d="M 764 1366 C 959 1366 1126 1296 1266 1158 C 1405 1019 1475 852 1475 657 C 1475 530 1443 412 1379 302 C 1315 192 1229 105 1119 42 C 1009 -21 890 -53 764 -53 C 568 -53 401 16 263 156 C 124 295 55 462 55 657 C 55 851 124 1018 263 1157 C 402 1296 569 1366 764 1366 Z M 764 37 C 934 37 1079 97 1201 219 C 1323 341 1384 487 1384 657 C 1384 827 1323 972 1201 1094 C 1079 1215 934 1276 764 1276 C 594 1276 449 1215 327 1093 C 205 971 145 826 145 657 C 145 486 205 340 326 219 C 447 97 593 37 764 37 Z M 1165 260 L 924 260 L 719 627 L 672 627 L 672 430 C 672 375 679 339 693 322 C 707 304 740 295 793 293 L 793 260 L 369 260 L 369 293 C 413 293 442 303 454 323 C 466 343 473 379 473 430 L 473 901 C 473 949 468 983 459 1001 C 449 1019 425 1030 385 1034 L 385 1069 L 748 1069 C 824 1069 885 1063 933 1053 C 980 1043 1020 1018 1053 980 C 1085 942 1102 898 1102 850 C 1102 746 1042 677 924 643 L 1067 383 C 1081 355 1097 334 1113 320 C 1129 306 1146 297 1165 293 L 1165 260 Z M 672 678 C 678 678 687 677 700 676 C 713 674 723 674 729 674 C 775 674 813 691 843 726 C 872 760 887 803 887 854 C 887 967 830 1024 717 1024 L 672 1024 L 672 678 Z" unicode="" />
<glyph horiz-adv-x="1024" d="M 1036 1481 L -12 1481 L -12 1583 L 1036 1583 L 1036 1481 Z" unicode="" />
<glyph horiz-adv-x="819" d="M 410 1366 C 504 1366 586 1332 654 1264 C 722 1196 756 1114 756 1020 C 756 924 722 843 654 775 C 586 707 504 674 410 674 C 314 674 233 708 165 776 C 97 844 63 925 63 1020 C 63 1115 97 1196 165 1264 C 233 1332 314 1366 410 1366 Z M 410 805 C 468 805 518 826 561 869 C 603 911 625 962 625 1020 C 625 1079 603 1130 561 1172 C 519 1214 468 1235 410 1235 C 350 1235 300 1214 258 1172 C 216 1130 195 1079 195 1020 C 195 960 216 910 258 868 C 300 826 350 805 410 805 Z" unicode="" />
<glyph horiz-adv-x="1366" d="M 1231 758 L 762 758 L 762 289 L 604 289 L 604 758 L 135 758 L 135 915 L 604 915 L 604 1384 L 762 1384 L 762 915 L 1231 915 L 1231 758 Z M 1231 0 L 135 0 L 135 158 L 1231 158 L 1231 0 Z" unicode="" />
<glyph horiz-adv-x="768" d="M 717 920 C 703 874 688 802 672 705 L 82 705 L 82 743 C 316 916 434 1059 434 1171 C 434 1202 424 1229 404 1251 C 384 1273 359 1284 330 1284 C 284 1284 228 1265 162 1227 L 139 1266 C 257 1342 358 1380 440 1380 C 485 1380 523 1364 554 1334 C 584 1303 600 1265 600 1221 C 600 1124 492 997 276 840 L 276 836 L 625 836 L 676 920 L 717 920 Z" unicode="" />
<glyph horiz-adv-x="768" d="M 385 1057 C 477 1057 551 1044 606 1018 C 660 992 688 953 688 903 C 688 837 660 786 604 751 C 548 715 475 698 385 698 C 320 698 263 707 213 726 C 163 744 134 772 125 809 C 133 821 145 833 161 845 C 177 856 190 862 201 862 C 207 862 216 852 227 832 C 246 795 267 771 289 760 C 311 748 334 743 360 743 C 404 743 441 756 470 783 C 499 809 514 844 514 887 C 514 927 495 959 457 984 C 419 1009 380 1022 338 1022 L 268 1022 L 268 1067 C 328 1075 375 1093 411 1119 C 447 1145 465 1176 465 1214 C 465 1240 454 1260 432 1276 C 410 1292 384 1300 354 1300 C 312 1300 256 1284 184 1253 L 168 1290 C 280 1350 375 1380 455 1380 C 503 1380 544 1367 579 1343 C 613 1318 631 1285 631 1243 C 631 1209 615 1179 584 1151 C 553 1123 487 1093 385 1061 L 385 1057 Z" unicode="" />
<glyph horiz-adv-x="682" d="M 543 1384 L 287 969 L 248 989 L 444 1434 L 543 1384 Z" unicode="" />
<glyph horiz-adv-x="1139" d="M 1100 264 C 1097 178 1074 108 1032 52 C 989 -3 934 -31 868 -31 C 824 -31 790 -20 764 0 C 738 21 715 63 694 127 C 600 21 496 -31 381 -31 C 324 -31 270 -11 219 29 C 219 -37 229 -106 250 -176 C 267 -235 276 -279 276 -309 C 276 -346 267 -377 249 -402 C 231 -427 207 -440 176 -440 C 146 -440 124 -429 108 -409 C 92 -389 84 -362 84 -328 C 84 -290 93 -234 113 -161 C 132 -87 144 -20 149 39 C 153 98 156 172 156 260 L 156 848 L 371 848 L 371 313 C 371 235 382 181 405 151 C 427 121 461 106 506 106 C 587 106 650 142 696 215 L 696 848 L 911 848 L 911 250 C 911 164 931 121 973 121 C 1019 121 1048 168 1059 264 L 1100 264 Z" unicode="" />
<glyph horiz-adv-x="1106" d="M 1106 1284 C 1046 1284 1005 1278 982 1268 C 959 1258 946 1242 942 1222 C 938 1201 936 1153 936 1079 L 936 -440 L 819 -440 L 819 1251 L 653 1251 L 653 -440 L 537 -440 L 537 401 C 343 408 205 454 123 540 C 41 625 0 736 0 874 C 0 942 9 1002 28 1052 C 47 1102 79 1149 125 1194 C 171 1238 219 1270 269 1288 C 319 1306 371 1317 423 1321 C 475 1325 557 1327 668 1327 L 1106 1327 L 1106 1284 Z" unicode="" />
<glyph horiz-adv-x="555" d="M 272 799 C 314 799 350 784 380 756 C 409 727 424 692 424 651 C 424 610 409 576 380 548 C 351 520 316 506 276 506 C 236 506 201 520 173 549 C 145 578 131 613 131 653 C 131 692 144 726 172 755 C 200 784 233 799 272 799 Z" unicode="" />
<glyph horiz-adv-x="682" d="M 371 -100 C 467 -122 516 -171 516 -248 C 516 -300 496 -343 456 -377 C 416 -411 369 -428 313 -428 C 273 -428 236 -419 202 -401 C 168 -383 152 -358 152 -328 C 152 -298 167 -283 197 -283 C 217 -283 235 -298 249 -328 C 265 -363 287 -381 315 -381 C 339 -381 361 -372 379 -354 C 397 -336 406 -315 406 -291 C 406 -223 356 -190 256 -190 L 238 -166 C 302 -98 349 -46 379 -8 L 463 -8 L 371 -100 Z" unicode="" />
<glyph horiz-adv-x="768" d="M 668 705 L 389 709 L 129 705 L 129 748 L 263 761 C 283 763 296 768 304 778 C 311 787 315 795 315 801 L 315 1239 C 290 1226 230 1200 135 1161 L 117 1200 C 221 1249 324 1309 428 1380 L 492 1380 L 492 801 C 492 793 493 785 496 777 C 498 769 502 763 506 761 C 510 759 530 756 567 753 L 668 743 L 668 705 Z" unicode="" />
<glyph horiz-adv-x="748" d="M 362 1368 C 457 1368 535 1340 596 1285 C 657 1229 688 1156 688 1065 C 688 977 657 903 596 844 C 535 785 460 756 371 756 C 283 756 210 785 150 843 C 90 901 61 973 61 1059 C 61 1143 90 1216 148 1277 C 206 1337 277 1368 362 1368 Z M 381 797 C 430 797 467 818 493 862 C 519 906 532 964 532 1038 C 532 1121 518 1190 490 1245 C 462 1299 423 1327 371 1327 C 320 1327 282 1306 256 1264 C 230 1222 217 1165 217 1094 C 217 1012 231 942 259 884 C 287 826 328 797 381 797 Z" unicode="" />
<glyph horiz-adv-x="981" d="M 856 453 L 524 147 L 487 170 L 674 457 L 487 735 L 522 760 L 856 453 Z M 492 453 L 160 147 L 123 170 L 309 457 L 123 735 L 158 760 L 492 453 Z" unicode="" />
<glyph horiz-adv-x="1962" d="M 1532 1380 L 623 -35 L 489 -35 L 1397 1380 L 1532 1380 Z M 788 705 L 510 709 L 250 705 L 250 748 L 384 761 C 404 763 417 768 425 778 C 432 787 436 795 436 801 L 436 1239 C 411 1226 351 1200 256 1161 L 238 1200 C 342 1249 445 1309 549 1380 L 612 1380 L 612 801 C 612 793 613 785 616 777 C 619 769 623 763 627 761 C 631 759 651 756 688 753 L 788 743 L 788 705 Z M 1804 123 L 1626 123 L 1626 -27 L 1456 -27 L 1456 123 L 1124 123 L 1124 250 L 1491 653 L 1628 653 L 1628 252 L 1804 252 L 1804 123 Z M 1456 252 L 1456 539 L 1200 252 L 1456 252 Z" unicode="" />
<glyph horiz-adv-x="1962" d="M 1532 1380 L 623 -35 L 489 -35 L 1397 1380 L 1532 1380 Z M 788 705 L 510 709 L 250 705 L 250 748 L 384 761 C 404 763 417 768 425 778 C 432 787 436 795 436 801 L 436 1239 C 411 1226 351 1200 256 1161 L 238 1200 C 342 1249 445 1309 549 1380 L 612 1380 L 612 801 C 612 793 613 785 616 777 C 619 769 623 763 627 761 C 631 759 651 756 688 753 L 788 743 L 788 705 Z M 1802 186 C 1788 140 1773 69 1757 -29 L 1167 -29 L 1167 10 C 1402 183 1520 326 1520 438 C 1520 468 1509 495 1489 517 C 1469 539 1444 551 1415 551 C 1369 551 1313 532 1247 494 L 1225 532 C 1343 608 1444 647 1526 647 C 1570 647 1608 631 1639 601 C 1670 570 1686 532 1686 487 C 1686 390 1578 263 1362 106 L 1362 102 L 1710 102 L 1761 186 L 1802 186 Z" unicode="" />
<glyph horiz-adv-x="1962" d="M 1532 1380 L 623 -35 L 489 -35 L 1397 1380 L 1532 1380 Z M 465 1057 C 557 1057 631 1044 686 1018 C 740 992 768 953 768 903 C 768 837 740 786 684 751 C 628 715 555 698 465 698 C 400 698 343 707 293 726 C 243 744 214 772 205 809 C 213 821 225 833 241 845 C 257 856 270 862 281 862 C 287 862 296 852 307 832 C 326 795 347 771 369 760 C 391 748 414 743 440 743 C 484 743 521 756 550 783 C 579 809 594 844 594 887 C 594 925 575 957 539 983 C 502 1009 462 1022 418 1022 L 348 1022 L 348 1067 C 408 1075 455 1093 491 1119 C 527 1145 545 1176 545 1214 C 545 1240 534 1260 512 1276 C 490 1292 464 1300 434 1300 C 392 1300 336 1284 264 1253 L 248 1290 C 360 1350 455 1380 535 1380 C 583 1380 624 1367 659 1343 C 693 1318 711 1285 711 1243 C 711 1209 695 1179 664 1151 C 633 1123 567 1093 465 1061 L 465 1057 Z M 1804 123 L 1626 123 L 1626 -27 L 1456 -27 L 1456 123 L 1124 123 L 1124 250 L 1491 653 L 1628 653 L 1628 252 L 1804 252 L 1804 123 Z M 1456 252 L 1456 539 L 1200 252 L 1456 252 Z" unicode="" />
<glyph horiz-adv-x="768" d="M 461 879 C 503 879 538 864 568 836 C 597 807 612 772 612 731 C 612 691 597 656 568 628 C 539 600 505 586 465 586 C 425 586 390 600 362 629 C 333 658 319 693 319 733 C 319 772 333 806 361 835 C 389 864 422 879 461 879 Z M 524 164 C 510 150 499 143 489 145 C 462 148 441 150 426 150 C 364 150 311 137 268 112 C 224 86 203 51 203 6 C 203 -39 223 -78 265 -112 C 307 -145 352 -162 401 -162 C 413 -162 432 -160 456 -156 C 480 -152 498 -150 510 -150 C 579 -150 614 -183 614 -250 C 614 -286 601 -312 576 -330 C 550 -347 519 -356 481 -356 C 380 -356 294 -304 223 -202 C 152 -100 117 7 117 121 C 117 186 137 239 179 281 C 220 323 293 355 399 379 C 434 387 455 396 461 408 C 467 420 471 450 471 498 L 524 498 L 524 164 Z" unicode="" />
<glyph horiz-adv-x="1430" d="M 1384 -4 L 1139 0 L 840 -4 L 840 55 C 902 55 941 59 957 69 C 973 79 981 90 981 104 C 981 115 975 137 964 170 L 864 467 L 422 467 L 333 214 C 321 180 315 151 315 125 C 315 80 369 57 477 55 L 477 -4 C 385 -1 314 0 264 0 C 164 0 91 -1 45 -4 L 45 55 C 101 56 142 68 166 90 C 190 112 214 152 236 211 L 504 944 C 565 1116 602 1232 614 1292 C 674 1315 740 1346 813 1384 C 839 1292 871 1191 909 1079 L 1214 199 C 1226 163 1240 133 1256 108 C 1272 82 1288 67 1304 62 C 1320 57 1346 55 1384 55 L 1384 -4 Z M 831 565 L 649 1116 L 645 1116 L 455 565 L 831 565 Z M 854 1468 L 815 1448 L 559 1863 L 658 1913 L 854 1468 Z" unicode="" />
<glyph horiz-adv-x="1430" d="M 1384 -4 L 1139 0 L 840 -4 L 840 55 C 902 55 941 59 957 69 C 973 79 981 90 981 104 C 981 115 975 137 964 170 L 864 467 L 422 467 L 333 214 C 321 180 315 151 315 125 C 315 80 369 57 477 55 L 477 -4 C 385 -1 314 0 264 0 C 164 0 91 -1 45 -4 L 45 55 C 101 56 142 68 166 90 C 190 112 214 152 236 211 L 504 944 C 565 1116 602 1232 614 1292 C 674 1315 740 1346 813 1384 C 839 1292 871 1191 909 1079 L 1214 199 C 1226 163 1240 133 1256 108 C 1272 82 1288 67 1304 62 C 1320 57 1346 55 1384 55 L 1384 -4 Z M 831 565 L 649 1116 L 645 1116 L 455 565 L 831 565 Z M 918 1863 L 662 1448 L 623 1468 L 819 1913 L 918 1863 Z" unicode="" />
<glyph horiz-adv-x="1430" d="M 1384 -4 L 1139 0 L 840 -4 L 840 55 C 902 55 941 59 957 69 C 973 79 981 90 981 104 C 981 115 975 137 964 170 L 864 467 L 422 467 L 333 214 C 321 180 315 151 315 125 C 315 80 369 57 477 55 L 477 -4 C 385 -1 314 0 264 0 C 164 0 91 -1 45 -4 L 45 55 C 101 56 142 68 166 90 C 190 112 214 152 236 211 L 504 944 C 565 1116 602 1232 614 1292 C 674 1315 740 1346 813 1384 C 839 1292 871 1191 909 1079 L 1214 199 C 1226 163 1240 133 1256 108 C 1272 82 1288 67 1304 62 C 1320 57 1346 55 1384 55 L 1384 -4 Z M 831 565 L 649 1116 L 645 1116 L 455 565 L 831 565 Z M 965 1474 L 930 1450 L 717 1743 L 508 1450 L 469 1470 L 688 1915 L 725 1915 L 965 1474 Z" unicode="" />
<glyph horiz-adv-x="1430" d="M 1384 -4 L 1139 0 L 840 -4 L 840 55 C 902 55 941 59 957 69 C 973 79 981 90 981 104 C 981 115 975 137 964 170 L 864 467 L 422 467 L 333 214 C 321 180 315 151 315 125 C 315 80 369 57 477 55 L 477 -4 C 385 -1 314 0 264 0 C 164 0 91 -1 45 -4 L 45 55 C 101 56 142 68 166 90 C 190 112 214 152 236 211 L 504 944 C 565 1116 602 1232 614 1292 C 674 1315 740 1346 813 1384 C 839 1292 871 1191 909 1079 L 1214 199 C 1226 163 1240 133 1256 108 C 1272 82 1288 67 1304 62 C 1320 57 1346 55 1384 55 L 1384 -4 Z M 831 565 L 649 1116 L 645 1116 L 455 565 L 831 565 Z M 967 1761 C 1001 1761 1018 1738 1018 1693 C 1018 1649 1000 1612 966 1580 C 931 1548 891 1532 846 1532 C 820 1532 793 1538 763 1550 C 733 1562 691 1590 637 1634 C 587 1675 552 1696 533 1696 C 521 1696 510 1692 500 1686 C 490 1680 486 1672 486 1663 C 486 1653 489 1640 496 1622 C 502 1603 506 1589 506 1581 C 506 1571 502 1562 494 1554 C 486 1546 477 1542 467 1542 C 450 1542 437 1550 427 1567 C 417 1583 412 1602 412 1624 C 412 1666 429 1702 465 1730 C 501 1758 540 1773 584 1773 C 606 1773 629 1767 655 1756 C 681 1745 717 1719 765 1679 C 821 1631 863 1607 891 1607 C 902 1607 913 1611 923 1619 C 933 1627 938 1636 938 1646 C 938 1654 935 1665 930 1680 C 924 1695 922 1706 922 1714 C 922 1745 937 1761 967 1761 Z" unicode="" />
<glyph horiz-adv-x="1430" d="M 1384 -4 L 1139 0 L 840 -4 L 840 55 C 902 55 941 59 957 69 C 973 79 981 90 981 104 C 981 115 975 137 964 170 L 864 467 L 422 467 L 333 214 C 321 180 315 151 315 125 C 315 80 369 57 477 55 L 477 -4 C 385 -1 314 0 264 0 C 164 0 91 -1 45 -4 L 45 55 C 101 56 142 68 166 90 C 190 112 214 152 236 211 L 504 944 C 565 1116 602 1232 614 1292 C 674 1315 740 1346 813 1384 C 839 1292 871 1191 909 1079 L 1214 199 C 1226 163 1240 133 1256 108 C 1272 82 1288 67 1304 62 C 1320 57 1346 55 1384 55 L 1384 -4 Z M 831 565 L 649 1116 L 645 1116 L 455 565 L 831 565 Z M 903 1769 C 933 1769 959 1758 981 1738 C 1003 1718 1014 1693 1014 1663 C 1014 1634 1003 1609 982 1588 C 960 1566 935 1556 907 1556 C 877 1556 852 1566 832 1587 C 811 1607 801 1633 801 1663 C 801 1691 811 1715 831 1737 C 851 1758 875 1769 903 1769 Z M 518 1769 C 548 1769 574 1758 596 1738 C 618 1718 629 1693 629 1663 C 629 1634 618 1609 597 1588 C 575 1566 550 1556 522 1556 C 492 1556 467 1566 447 1587 C 426 1607 416 1633 416 1663 C 416 1691 426 1715 446 1737 C 466 1758 490 1769 518 1769 Z" unicode="" />
<glyph horiz-adv-x="1430" d="M 1384 -4 L 1139 0 L 840 -4 L 840 55 C 902 55 941 59 957 69 C 973 79 981 90 981 104 C 981 115 975 137 964 170 L 864 467 L 422 467 L 333 214 C 321 180 315 151 315 125 C 315 80 369 57 477 55 L 477 -4 C 385 -1 314 0 264 0 C 164 0 91 -1 45 -4 L 45 55 C 101 56 142 68 166 90 C 190 112 214 152 236 211 L 504 944 C 565 1116 602 1232 614 1292 C 674 1315 740 1346 813 1384 C 839 1292 871 1191 909 1079 L 1214 199 C 1226 163 1240 133 1256 108 C 1272 82 1288 67 1304 62 C 1320 57 1346 55 1384 55 L 1384 -4 Z M 831 565 L 649 1116 L 645 1116 L 455 565 L 831 565 Z M 717 1855 C 772 1855 819 1835 858 1797 C 896 1758 916 1711 916 1657 C 916 1601 896 1553 858 1514 C 819 1475 772 1456 717 1456 C 661 1456 614 1475 575 1515 C 535 1554 516 1601 516 1657 C 516 1711 535 1758 575 1797 C 614 1835 661 1855 717 1855 Z M 717 1536 C 749 1536 777 1547 801 1571 C 824 1595 836 1623 836 1657 C 836 1689 824 1717 801 1740 C 777 1763 749 1775 717 1775 C 684 1775 656 1763 632 1740 C 608 1716 596 1689 596 1657 C 596 1624 608 1596 632 1572 C 656 1548 684 1536 717 1536 Z" unicode="" />
<glyph horiz-adv-x="1962" d="M 1933 295 C 1909 209 1886 109 1864 -4 L 1217 0 C 1121 0 987 -1 815 -4 L 815 55 C 876 56 920 64 947 80 C 973 96 987 132 987 188 L 987 645 L 639 645 C 477 365 388 211 373 182 C 357 152 350 129 350 113 C 350 97 358 83 376 72 C 393 60 435 55 502 55 L 502 -4 C 450 -1 368 0 256 0 C 156 0 83 -1 39 -4 L 39 55 C 107 55 156 65 186 86 C 215 107 249 151 289 217 L 821 1122 C 853 1181 870 1217 870 1229 C 870 1241 861 1251 845 1259 C 829 1267 789 1272 725 1272 L 725 1331 L 1243 1327 L 1796 1331 C 1796 1239 1798 1149 1802 1059 L 1747 1044 C 1742 1112 1730 1161 1711 1191 C 1692 1221 1665 1240 1630 1248 C 1594 1256 1540 1260 1466 1260 C 1357 1260 1278 1258 1229 1255 L 1229 733 L 1485 733 C 1541 733 1580 744 1600 766 C 1620 788 1630 830 1630 891 L 1686 891 L 1685 622 L 1686 467 L 1636 467 C 1636 533 1625 580 1604 606 C 1582 632 1550 645 1507 645 L 1229 645 L 1229 213 C 1229 184 1232 160 1238 142 C 1244 124 1259 109 1284 98 C 1308 87 1334 81 1362 79 C 1389 77 1429 76 1482 76 C 1617 76 1710 92 1762 125 C 1813 158 1852 219 1880 307 L 1933 295 Z M 987 733 L 987 1249 L 983 1249 L 690 733 L 987 733 Z" unicode="" />
<glyph horiz-adv-x="1430" d="M 1380 358 C 1358 233 1348 135 1348 63 C 1187 9 1056 -22 954 -31 L 862 -115 L 891 -115 C 923 -115 952 -128 976 -155 C 1000 -182 1012 -213 1012 -248 C 1012 -299 989 -342 944 -377 C 898 -412 847 -430 791 -430 C 753 -430 717 -420 684 -401 C 651 -382 635 -358 635 -328 C 635 -302 648 -289 674 -289 C 693 -289 714 -304 736 -335 C 762 -369 787 -387 813 -387 C 836 -387 855 -379 871 -365 C 887 -350 895 -331 895 -309 C 895 -276 886 -250 868 -231 C 850 -212 825 -203 793 -203 C 781 -203 766 -204 748 -207 L 729 -174 C 803 -106 846 -60 858 -37 C 617 -32 433 38 305 176 C 177 314 113 473 113 653 C 113 791 144 914 207 1023 C 269 1131 358 1216 472 1277 C 586 1337 706 1368 831 1368 C 943 1368 1070 1348 1212 1309 C 1280 1289 1329 1278 1360 1276 C 1360 1150 1364 1046 1372 965 L 1319 963 C 1300 1067 1247 1148 1159 1206 C 1071 1263 976 1292 872 1292 C 723 1292 603 1234 513 1120 C 422 1005 377 864 377 698 C 377 522 426 368 525 235 C 624 101 751 35 907 35 C 1002 35 1088 63 1166 119 C 1243 175 1296 259 1325 371 L 1380 358 Z" unicode="" />
<glyph horiz-adv-x="1194" d="M 1184 303 L 1112 -2 L 549 0 C 433 0 271 -1 63 -4 L 63 55 C 121 56 165 63 193 76 C 221 89 236 120 236 170 L 236 1145 C 236 1187 230 1216 219 1234 C 207 1252 192 1262 174 1265 C 156 1268 119 1270 63 1272 L 63 1331 L 481 1327 L 1049 1331 L 1047 1241 C 1047 1199 1049 1139 1055 1063 L 1001 1042 C 993 1110 979 1158 961 1188 C 943 1218 917 1237 883 1245 C 849 1253 797 1257 725 1257 C 723 1257 641 1255 477 1251 L 477 743 L 733 743 C 789 743 827 754 847 778 C 867 801 878 843 879 905 L 930 905 C 928 864 928 799 928 711 C 928 686 930 613 934 492 L 883 481 L 883 502 C 883 564 871 604 847 624 C 823 643 789 653 743 653 L 477 653 L 477 236 C 477 184 483 150 495 133 C 507 115 529 101 562 91 C 594 80 664 75 771 75 C 832 75 880 78 916 85 C 952 91 982 101 1007 114 C 1031 126 1052 144 1069 168 C 1085 192 1106 237 1130 303 L 1184 303 Z M 776 1468 L 737 1448 L 481 1863 L 580 1913 L 776 1468 Z" unicode="" />
<glyph horiz-adv-x="1194" d="M 1184 303 L 1112 -2 L 549 0 C 433 0 271 -1 63 -4 L 63 55 C 121 56 165 63 193 76 C 221 89 236 120 236 170 L 236 1145 C 236 1187 230 1216 219 1234 C 207 1252 192 1262 174 1265 C 156 1268 119 1270 63 1272 L 63 1331 L 481 1327 L 1049 1331 L 1047 1241 C 1047 1199 1049 1139 1055 1063 L 1001 1042 C 993 1110 979 1158 961 1188 C 943 1218 917 1237 883 1245 C 849 1253 797 1257 725 1257 C 723 1257 641 1255 477 1251 L 477 743 L 733 743 C 789 743 827 754 847 778 C 867 801 878 843 879 905 L 930 905 C 928 864 928 799 928 711 C 928 686 930 613 934 492 L 883 481 L 883 502 C 883 564 871 604 847 624 C 823 643 789 653 743 653 L 477 653 L 477 236 C 477 184 483 150 495 133 C 507 115 529 101 562 91 C 594 80 664 75 771 75 C 832 75 880 78 916 85 C 952 91 982 101 1007 114 C 1031 126 1052 144 1069 168 C 1085 192 1106 237 1130 303 L 1184 303 Z M 799 1863 L 543 1448 L 504 1468 L 700 1913 L 799 1863 Z" unicode="" />
<glyph horiz-adv-x="1194" d="M 1184 303 L 1112 -2 L 549 0 C 433 0 271 -1 63 -4 L 63 55 C 121 56 165 63 193 76 C 221 89 236 120 236 170 L 236 1145 C 236 1187 230 1216 219 1234 C 207 1252 192 1262 174 1265 C 156 1268 119 1270 63 1272 L 63 1331 L 481 1327 L 1049 1331 L 1047 1241 C 1047 1199 1049 1139 1055 1063 L 1001 1042 C 993 1110 979 1158 961 1188 C 943 1218 917 1237 883 1245 C 849 1253 797 1257 725 1257 C 723 1257 641 1255 477 1251 L 477 743 L 733 743 C 789 743 827 754 847 778 C 867 801 878 843 879 905 L 930 905 C 928 864 928 799 928 711 C 928 686 930 613 934 492 L 883 481 L 883 502 C 883 564 871 604 847 624 C 823 643 789 653 743 653 L 477 653 L 477 236 C 477 184 483 150 495 133 C 507 115 529 101 562 91 C 594 80 664 75 771 75 C 832 75 880 78 916 85 C 952 91 982 101 1007 114 C 1031 126 1052 144 1069 168 C 1085 192 1106 237 1130 303 L 1184 303 Z M 887 1474 L 852 1450 L 639 1743 L 430 1450 L 391 1470 L 610 1915 L 647 1915 L 887 1474 Z" unicode="" />
<glyph horiz-adv-x="1194" d="M 1184 303 L 1112 -2 L 549 0 C 433 0 271 -1 63 -4 L 63 55 C 121 56 165 63 193 76 C 221 89 236 120 236 170 L 236 1145 C 236 1187 230 1216 219 1234 C 207 1252 192 1262 174 1265 C 156 1268 119 1270 63 1272 L 63 1331 L 481 1327 L 1049 1331 L 1047 1241 C 1047 1199 1049 1139 1055 1063 L 1001 1042 C 993 1110 979 1158 961 1188 C 943 1218 917 1237 883 1245 C 849 1253 797 1257 725 1257 C 723 1257 641 1255 477 1251 L 477 743 L 733 743 C 789 743 827 754 847 778 C 867 801 878 843 879 905 L 930 905 C 928 864 928 799 928 711 C 928 686 930 613 934 492 L 883 481 L 883 502 C 883 564 871 604 847 624 C 823 643 789 653 743 653 L 477 653 L 477 236 C 477 184 483 150 495 133 C 507 115 529 101 562 91 C 594 80 664 75 771 75 C 832 75 880 78 916 85 C 952 91 982 101 1007 114 C 1031 126 1052 144 1069 168 C 1085 192 1106 237 1130 303 L 1184 303 Z M 825 1769 C 855 1769 881 1758 903 1738 C 925 1718 936 1693 936 1663 C 936 1634 925 1609 904 1588 C 882 1566 857 1556 829 1556 C 799 1556 774 1566 754 1587 C 733 1607 723 1633 723 1663 C 723 1691 733 1715 753 1737 C 773 1758 797 1769 825 1769 Z M 440 1769 C 470 1769 496 1758 518 1738 C 540 1718 551 1693 551 1663 C 551 1634 540 1609 519 1588 C 497 1566 472 1556 444 1556 C 414 1556 389 1566 369 1587 C 348 1607 338 1633 338 1663 C 338 1691 348 1715 368 1737 C 388 1758 412 1769 440 1769 Z" unicode="" />
<glyph horiz-adv-x="662" d="M 602 1272 C 543 1270 503 1263 483 1249 C 463 1235 453 1200 453 1145 L 453 162 C 453 115 464 86 486 74 C 508 62 545 56 598 55 L 598 -4 C 508 0 418 2 328 2 C 238 2 149 0 61 -4 L 61 55 C 123 56 164 67 184 87 C 204 107 215 149 215 213 L 215 1159 C 215 1199 204 1227 184 1245 C 164 1262 125 1271 68 1272 L 68 1331 L 319 1327 L 602 1331 L 602 1272 Z M 469 1468 L 430 1448 L 174 1863 L 273 1913 L 469 1468 Z" unicode="" />
<glyph horiz-adv-x="662" d="M 602 1272 C 543 1270 503 1263 483 1249 C 463 1235 453 1200 453 1145 L 453 162 C 453 115 464 86 486 74 C 508 62 545 56 598 55 L 598 -4 C 508 0 418 2 328 2 C 238 2 149 0 61 -4 L 61 55 C 123 56 164 67 184 87 C 204 107 215 149 215 213 L 215 1159 C 215 1199 204 1227 184 1245 C 164 1262 125 1271 68 1272 L 68 1331 L 319 1327 L 602 1331 L 602 1272 Z M 533 1863 L 277 1448 L 238 1468 L 434 1913 L 533 1863 Z" unicode="" />
<glyph horiz-adv-x="662" d="M 602 1272 C 543 1270 503 1263 483 1249 C 463 1235 453 1200 453 1145 L 453 162 C 453 115 464 86 486 74 C 508 62 545 56 598 55 L 598 -4 C 508 0 418 2 328 2 C 238 2 149 0 61 -4 L 61 55 C 123 56 164 67 184 87 C 204 107 215 149 215 213 L 215 1159 C 215 1199 204 1227 184 1245 C 164 1262 125 1271 68 1272 L 68 1331 L 319 1327 L 602 1331 L 602 1272 Z M 580 1474 L 545 1450 L 332 1743 L 123 1450 L 84 1470 L 303 1915 L 340 1915 L 580 1474 Z" unicode="" />
<glyph horiz-adv-x="662" d="M 602 1272 C 543 1270 503 1263 483 1249 C 463 1235 453 1200 453 1145 L 453 162 C 453 115 464 86 486 74 C 508 62 545 56 598 55 L 598 -4 C 508 0 418 2 328 2 C 238 2 149 0 61 -4 L 61 55 C 123 56 164 67 184 87 C 204 107 215 149 215 213 L 215 1159 C 215 1199 204 1227 184 1245 C 164 1262 125 1271 68 1272 L 68 1331 L 319 1327 L 602 1331 L 602 1272 Z M 518 1769 C 548 1769 574 1758 596 1738 C 618 1718 629 1693 629 1663 C 629 1634 618 1609 597 1588 C 575 1566 550 1556 522 1556 C 492 1556 467 1566 447 1587 C 426 1607 416 1633 416 1663 C 416 1691 426 1715 446 1737 C 466 1758 490 1769 518 1769 Z M 133 1769 C 163 1769 189 1758 211 1738 C 233 1718 244 1693 244 1663 C 244 1634 233 1609 212 1588 C 190 1566 165 1556 137 1556 C 107 1556 82 1566 62 1587 C 41 1607 31 1633 31 1663 C 31 1691 41 1715 61 1737 C 81 1758 105 1769 133 1769 Z" unicode="" />
<glyph horiz-adv-x="1536" d="M 84 1331 L 336 1327 L 721 1329 L 770 1329 C 1014 1315 1191 1241 1301 1109 C 1411 976 1466 834 1466 684 C 1466 468 1394 300 1252 178 C 1110 56 929 -4 711 -4 L 360 0 C 294 0 201 -1 80 -4 L 80 55 C 153 55 197 66 213 90 C 228 114 236 156 236 217 L 236 614 L 72 614 L 72 705 L 236 705 L 236 1188 C 236 1226 224 1250 202 1260 C 180 1269 140 1274 84 1274 L 84 1331 Z M 473 614 L 473 180 C 473 138 496 106 542 83 C 588 60 642 49 705 49 C 839 49 958 102 1060 210 C 1162 317 1214 467 1214 659 C 1214 842 1163 991 1061 1106 C 959 1220 823 1278 651 1278 C 609 1278 549 1272 473 1262 L 473 705 L 786 705 L 786 614 L 473 614 Z" unicode="" />
<glyph horiz-adv-x="1642" d="M 1599 1272 L 1546 1272 C 1502 1272 1469 1254 1445 1219 C 1421 1184 1409 1139 1409 1085 L 1409 -43 L 1356 -43 L 348 1098 L 348 248 C 348 174 363 124 394 96 C 424 68 478 55 555 55 L 555 -4 C 449 -1 368 0 311 0 C 197 0 114 -1 63 -4 L 63 55 C 139 56 191 69 220 95 C 249 121 264 167 264 233 L 264 1149 C 264 1225 193 1266 53 1272 L 53 1331 L 276 1327 L 465 1331 L 1325 362 L 1325 1083 C 1325 1158 1309 1208 1278 1233 C 1247 1257 1194 1270 1118 1272 L 1118 1331 L 1360 1327 L 1599 1331 L 1599 1272 Z M 1114 1761 C 1148 1761 1165 1738 1165 1693 C 1165 1649 1147 1612 1113 1580 C 1078 1548 1038 1532 993 1532 C 967 1532 940 1538 910 1550 C 880 1562 838 1590 784 1634 C 734 1675 699 1696 680 1696 C 668 1696 657 1692 647 1686 C 637 1680 633 1672 633 1663 C 633 1653 636 1640 643 1622 C 649 1603 653 1589 653 1581 C 653 1571 649 1562 641 1554 C 633 1546 624 1542 614 1542 C 597 1542 584 1550 574 1567 C 564 1583 559 1602 559 1624 C 559 1666 576 1702 612 1730 C 648 1758 687 1773 731 1773 C 753 1773 776 1767 802 1756 C 828 1745 864 1719 912 1679 C 968 1631 1010 1607 1038 1607 C 1049 1607 1060 1611 1070 1619 C 1080 1627 1085 1636 1085 1646 C 1085 1654 1082 1665 1077 1680 C 1071 1695 1069 1706 1069 1714 C 1069 1745 1084 1761 1114 1761 Z" unicode="" />
<glyph horiz-adv-x="1642" d="M 823 1364 C 1036 1364 1211 1302 1349 1180 C 1487 1058 1556 896 1556 696 C 1556 486 1482 312 1335 172 C 1188 32 1007 -37 793 -37 C 586 -37 416 27 284 157 C 152 286 86 453 86 657 C 86 862 156 1031 297 1164 C 437 1297 613 1364 823 1364 Z M 854 33 C 994 33 1103 89 1180 203 C 1257 316 1296 461 1296 637 C 1296 835 1247 994 1149 1114 C 1051 1234 939 1294 813 1294 C 669 1294 555 1240 471 1133 C 387 1025 346 890 346 727 C 346 547 392 386 486 245 C 579 103 702 33 854 33 Z M 961 1468 L 922 1448 L 666 1863 L 765 1913 L 961 1468 Z" unicode="" />
<glyph horiz-adv-x="1642" d="M 823 1364 C 1036 1364 1211 1302 1349 1180 C 1487 1058 1556 896 1556 696 C 1556 486 1482 312 1335 172 C 1188 32 1007 -37 793 -37 C 586 -37 416 27 284 157 C 152 286 86 453 86 657 C 86 862 156 1031 297 1164 C 437 1297 613 1364 823 1364 Z M 854 33 C 994 33 1103 89 1180 203 C 1257 316 1296 461 1296 637 C 1296 835 1247 994 1149 1114 C 1051 1234 939 1294 813 1294 C 669 1294 555 1240 471 1133 C 387 1025 346 890 346 727 C 346 547 392 386 486 245 C 579 103 702 33 854 33 Z M 983 1863 L 727 1448 L 688 1468 L 884 1913 L 983 1863 Z" unicode="" />
<glyph horiz-adv-x="1642" d="M 823 1364 C 1036 1364 1211 1302 1349 1180 C 1487 1058 1556 896 1556 696 C 1556 486 1482 312 1335 172 C 1188 32 1007 -37 793 -37 C 586 -37 416 27 284 157 C 152 286 86 453 86 657 C 86 862 156 1031 297 1164 C 437 1297 613 1364 823 1364 Z M 854 33 C 994 33 1103 89 1180 203 C 1257 316 1296 461 1296 637 C 1296 835 1247 994 1149 1114 C 1051 1234 939 1294 813 1294 C 669 1294 555 1240 471 1133 C 387 1025 346 890 346 727 C 346 547 392 386 486 245 C 579 103 702 33 854 33 Z M 1071 1474 L 1036 1450 L 823 1743 L 614 1450 L 575 1470 L 794 1915 L 831 1915 L 1071 1474 Z" unicode="" />
<glyph horiz-adv-x="1642" d="M 823 1364 C 1036 1364 1211 1302 1349 1180 C 1487 1058 1556 896 1556 696 C 1556 486 1482 312 1335 172 C 1188 32 1007 -37 793 -37 C 586 -37 416 27 284 157 C 152 286 86 453 86 657 C 86 862 156 1031 297 1164 C 437 1297 613 1364 823 1364 Z M 854 33 C 994 33 1103 89 1180 203 C 1257 316 1296 461 1296 637 C 1296 835 1247 994 1149 1114 C 1051 1234 939 1294 813 1294 C 669 1294 555 1240 471 1133 C 387 1025 346 890 346 727 C 346 547 392 386 486 245 C 579 103 702 33 854 33 Z M 1073 1761 C 1107 1761 1124 1738 1124 1693 C 1124 1649 1106 1612 1072 1580 C 1037 1548 997 1532 952 1532 C 926 1532 899 1538 869 1550 C 839 1562 797 1590 743 1634 C 693 1675 658 1696 639 1696 C 627 1696 616 1692 606 1686 C 596 1680 592 1672 592 1663 C 592 1653 595 1640 602 1622 C 608 1603 612 1589 612 1581 C 612 1571 608 1562 600 1554 C 592 1546 583 1542 573 1542 C 556 1542 543 1550 533 1567 C 523 1583 518 1602 518 1624 C 518 1666 535 1702 571 1730 C 607 1758 646 1773 690 1773 C 712 1773 735 1767 761 1756 C 787 1745 823 1719 871 1679 C 927 1631 969 1607 997 1607 C 1008 1607 1019 1611 1029 1619 C 1039 1627 1044 1636 1044 1646 C 1044 1654 1041 1665 1036 1680 C 1030 1695 1028 1706 1028 1714 C 1028 1745 1043 1761 1073 1761 Z" unicode="" />
<glyph horiz-adv-x="1642" d="M 823 1364 C 1036 1364 1211 1302 1349 1180 C 1487 1058 1556 896 1556 696 C 1556 486 1482 312 1335 172 C 1188 32 1007 -37 793 -37 C 586 -37 416 27 284 157 C 152 286 86 453 86 657 C 86 862 156 1031 297 1164 C 437 1297 613 1364 823 1364 Z M 854 33 C 994 33 1103 89 1180 203 C 1257 316 1296 461 1296 637 C 1296 835 1247 994 1149 1114 C 1051 1234 939 1294 813 1294 C 669 1294 555 1240 471 1133 C 387 1025 346 890 346 727 C 346 547 392 386 486 245 C 579 103 702 33 854 33 Z M 1009 1769 C 1039 1769 1065 1758 1087 1738 C 1109 1718 1120 1693 1120 1663 C 1120 1634 1109 1609 1088 1588 C 1066 1566 1041 1556 1013 1556 C 983 1556 958 1566 938 1587 C 917 1607 907 1633 907 1663 C 907 1691 917 1715 937 1737 C 957 1758 981 1769 1009 1769 Z M 624 1769 C 654 1769 680 1758 702 1738 C 724 1718 735 1693 735 1663 C 735 1634 724 1609 703 1588 C 681 1566 656 1556 628 1556 C 598 1556 573 1566 553 1587 C 532 1607 522 1633 522 1663 C 522 1691 532 1715 552 1737 C 572 1758 596 1769 624 1769 Z" unicode="" />
<glyph horiz-adv-x="1366" d="M 1192 1063 L 795 666 L 1190 270 L 1079 160 L 684 555 L 289 160 L 178 270 L 573 666 L 176 1063 L 287 1174 L 684 776 L 1081 1174 L 1192 1063 Z" unicode="" />
<glyph horiz-adv-x="1642" d="M 1333 1194 C 1411 1117 1468 1040 1503 962 C 1538 884 1556 794 1556 694 C 1556 482 1483 307 1337 169 C 1191 31 1010 -37 793 -37 C 625 -37 469 15 326 119 L 170 -43 L 111 10 L 262 176 C 144 308 86 468 86 655 C 86 865 157 1035 301 1167 C 444 1298 622 1364 834 1364 C 986 1364 1130 1323 1266 1243 L 1405 1391 L 1464 1331 L 1333 1194 Z M 1145 1114 C 1110 1169 1060 1213 996 1245 C 931 1277 866 1294 801 1294 C 681 1294 575 1244 483 1145 C 391 1045 346 905 346 725 C 346 586 372 462 426 352 L 1145 1114 Z M 469 272 C 530 183 590 121 648 86 C 706 50 774 33 850 33 C 991 33 1101 89 1179 202 C 1257 314 1296 458 1296 633 C 1296 703 1287 778 1269 858 C 1251 938 1227 1000 1196 1044 L 469 272 Z" unicode="" />
<glyph horiz-adv-x="1430" d="M 1380 1272 C 1328 1272 1292 1263 1273 1246 C 1254 1229 1245 1188 1245 1124 L 1245 422 C 1245 268 1197 152 1102 75 C 1006 -2 880 -41 723 -41 C 557 -41 428 -4 334 67 C 240 139 193 244 193 381 L 193 1163 C 193 1198 184 1225 166 1244 C 148 1262 110 1272 51 1272 L 51 1331 L 297 1327 L 580 1331 L 580 1272 C 537 1272 507 1269 489 1265 C 471 1261 457 1250 447 1234 C 437 1217 432 1191 432 1157 L 432 401 C 432 291 462 204 524 140 C 586 76 672 45 782 45 C 894 45 982 76 1046 140 C 1109 203 1141 291 1141 403 L 1141 1079 C 1141 1112 1139 1139 1137 1161 C 1135 1183 1129 1203 1119 1223 C 1109 1242 1094 1255 1076 1262 C 1057 1268 1026 1272 983 1272 L 983 1331 C 1067 1328 1133 1327 1180 1327 C 1226 1327 1293 1328 1380 1331 L 1380 1272 Z M 854 1468 L 815 1448 L 559 1863 L 658 1913 L 854 1468 Z" unicode="" />
<glyph horiz-adv-x="1430" d="M 1380 1272 C 1328 1272 1292 1263 1273 1246 C 1254 1229 1245 1188 1245 1124 L 1245 422 C 1245 268 1197 152 1102 75 C 1006 -2 880 -41 723 -41 C 557 -41 428 -4 334 67 C 240 139 193 244 193 381 L 193 1163 C 193 1198 184 1225 166 1244 C 148 1262 110 1272 51 1272 L 51 1331 L 297 1327 L 580 1331 L 580 1272 C 537 1272 507 1269 489 1265 C 471 1261 457 1250 447 1234 C 437 1217 432 1191 432 1157 L 432 401 C 432 291 462 204 524 140 C 586 76 672 45 782 45 C 894 45 982 76 1046 140 C 1109 203 1141 291 1141 403 L 1141 1079 C 1141 1112 1139 1139 1137 1161 C 1135 1183 1129 1203 1119 1223 C 1109 1242 1094 1255 1076 1262 C 1057 1268 1026 1272 983 1272 L 983 1331 C 1067 1328 1133 1327 1180 1327 C 1226 1327 1293 1328 1380 1331 L 1380 1272 Z M 959 1863 L 703 1448 L 664 1468 L 860 1913 L 959 1863 Z" unicode="" />
<glyph horiz-adv-x="1430" d="M 1380 1272 C 1328 1272 1292 1263 1273 1246 C 1254 1229 1245 1188 1245 1124 L 1245 422 C 1245 268 1197 152 1102 75 C 1006 -2 880 -41 723 -41 C 557 -41 428 -4 334 67 C 240 139 193 244 193 381 L 193 1163 C 193 1198 184 1225 166 1244 C 148 1262 110 1272 51 1272 L 51 1331 L 297 1327 L 580 1331 L 580 1272 C 537 1272 507 1269 489 1265 C 471 1261 457 1250 447 1234 C 437 1217 432 1191 432 1157 L 432 401 C 432 291 462 204 524 140 C 586 76 672 45 782 45 C 894 45 982 76 1046 140 C 1109 203 1141 291 1141 403 L 1141 1079 C 1141 1112 1139 1139 1137 1161 C 1135 1183 1129 1203 1119 1223 C 1109 1242 1094 1255 1076 1262 C 1057 1268 1026 1272 983 1272 L 983 1331 C 1067 1328 1133 1327 1180 1327 C 1226 1327 1293 1328 1380 1331 L 1380 1272 Z M 1006 1474 L 971 1450 L 758 1743 L 549 1450 L 510 1470 L 729 1915 L 766 1915 L 1006 1474 Z" unicode="" />
<glyph horiz-adv-x="1430" d="M 1380 1272 C 1328 1272 1292 1263 1273 1246 C 1254 1229 1245 1188 1245 1124 L 1245 422 C 1245 268 1197 152 1102 75 C 1006 -2 880 -41 723 -41 C 557 -41 428 -4 334 67 C 240 139 193 244 193 381 L 193 1163 C 193 1198 184 1225 166 1244 C 148 1262 110 1272 51 1272 L 51 1331 L 297 1327 L 580 1331 L 580 1272 C 537 1272 507 1269 489 1265 C 471 1261 457 1250 447 1234 C 437 1217 432 1191 432 1157 L 432 401 C 432 291 462 204 524 140 C 586 76 672 45 782 45 C 894 45 982 76 1046 140 C 1109 203 1141 291 1141 403 L 1141 1079 C 1141 1112 1139 1139 1137 1161 C 1135 1183 1129 1203 1119 1223 C 1109 1242 1094 1255 1076 1262 C 1057 1268 1026 1272 983 1272 L 983 1331 C 1067 1328 1133 1327 1180 1327 C 1226 1327 1293 1328 1380 1331 L 1380 1272 Z M 944 1769 C 974 1769 1000 1758 1022 1738 C 1044 1718 1055 1693 1055 1663 C 1055 1634 1044 1609 1023 1588 C 1001 1566 976 1556 948 1556 C 918 1556 893 1566 873 1587 C 852 1607 842 1633 842 1663 C 842 1691 852 1715 872 1737 C 892 1758 916 1769 944 1769 Z M 559 1769 C 589 1769 615 1758 637 1738 C 659 1718 670 1693 670 1663 C 670 1634 659 1609 638 1588 C 616 1566 591 1556 563 1556 C 533 1556 508 1566 488 1587 C 467 1607 457 1633 457 1663 C 457 1691 467 1715 487 1737 C 507 1758 531 1769 559 1769 Z" unicode="" />
<glyph horiz-adv-x="1430" d="M 1399 1272 C 1340 1272 1294 1248 1262 1202 L 895 688 L 895 158 C 895 125 903 101 919 87 C 935 72 952 63 972 61 C 992 58 1026 56 1075 55 L 1075 -4 C 1013 -1 913 0 776 0 C 704 0 604 -1 475 -4 L 475 55 C 527 56 564 58 584 62 C 604 65 620 75 633 92 C 646 109 653 137 653 176 L 653 633 L 217 1225 C 194 1256 142 1272 61 1272 L 61 1331 L 348 1327 L 637 1331 L 637 1272 C 565 1269 530 1255 530 1231 C 530 1214 538 1194 556 1172 L 856 768 L 1122 1168 C 1140 1194 1149 1215 1149 1231 C 1149 1243 1140 1253 1124 1261 C 1108 1268 1071 1272 1014 1272 L 1014 1331 L 1221 1327 L 1399 1331 L 1399 1272 Z M 979 1863 L 723 1448 L 684 1468 L 880 1913 L 979 1863 Z" unicode="" />
<glyph horiz-adv-x="1087" d="M 440 1049 L 614 1049 C 736 1049 837 1014 917 945 C 997 876 1038 785 1038 672 C 1038 554 998 460 920 391 C 841 321 742 287 623 287 L 440 287 L 440 203 C 440 155 447 121 461 100 C 475 79 495 66 519 62 C 543 57 582 55 637 55 L 637 -4 L 324 0 L 53 -4 L 53 55 C 111 56 151 65 171 81 C 191 97 201 135 201 193 L 201 1153 C 201 1205 190 1237 168 1251 C 146 1265 107 1272 53 1272 L 53 1331 L 324 1327 L 637 1331 L 637 1272 L 580 1272 C 532 1272 499 1263 479 1245 C 459 1227 447 1208 444 1186 C 441 1164 440 1118 440 1049 Z M 440 356 L 498 356 C 599 356 673 381 720 432 C 767 482 791 566 791 684 C 791 880 697 979 510 979 L 440 979 L 440 356 Z" unicode="" />
<glyph horiz-adv-x="1087" d="M 172 852 C 180 970 197 1060 224 1121 C 251 1182 295 1242 357 1300 C 418 1358 482 1402 550 1432 C 618 1462 687 1477 758 1477 C 842 1477 911 1457 964 1419 C 1017 1380 1044 1325 1044 1255 C 1044 1208 1031 1161 1006 1115 C 981 1068 923 1009 831 939 C 762 887 719 847 703 821 C 686 794 678 768 678 743 C 678 720 685 698 700 676 C 715 654 754 625 816 587 C 908 531 966 479 992 432 C 1017 385 1030 336 1030 285 C 1030 203 1001 131 944 68 C 886 4 818 -27 739 -27 C 691 -27 649 -16 611 4 C 573 25 555 54 555 90 C 555 138 576 162 618 162 C 630 162 642 158 652 151 C 662 144 674 127 687 100 C 701 69 714 50 727 42 C 740 34 754 31 770 31 C 805 31 834 44 858 72 C 881 99 893 132 893 170 C 893 198 884 227 866 255 C 848 283 804 320 733 366 C 645 422 589 472 565 514 C 541 556 530 600 530 645 C 530 685 540 726 561 767 C 582 807 633 859 713 923 C 790 983 839 1033 859 1071 C 879 1109 889 1147 889 1186 C 889 1246 867 1296 823 1336 C 779 1376 726 1397 664 1397 C 588 1397 523 1366 469 1305 C 414 1243 387 1124 387 948 L 387 78 C 387 66 391 58 401 53 C 410 48 422 45 436 45 C 450 44 465 43 479 43 L 479 0 C 340 2 201 2 63 0 L 63 43 C 83 43 104 44 125 46 C 146 48 160 53 167 59 C 174 65 178 76 178 92 L 178 745 L 61 745 L 61 786 L 172 852 Z" unicode="" />
<glyph horiz-adv-x="981" d="M 944 82 C 874 9 806 -27 741 -27 C 667 -27 623 19 608 113 C 521 49 458 9 418 -5 C 378 -19 341 -27 307 -27 C 249 -27 201 -8 162 28 C 123 65 104 112 104 168 C 104 239 135 292 198 327 C 260 361 394 415 600 489 L 600 612 C 600 659 582 696 548 723 C 513 750 472 764 424 764 C 348 764 305 720 297 633 C 293 609 288 593 282 587 C 276 581 258 572 230 561 C 202 550 178 545 160 545 C 143 545 135 558 135 584 C 135 632 146 668 170 692 C 194 716 231 741 283 768 C 304 779 329 793 357 809 C 413 842 456 863 484 872 C 512 880 539 885 563 885 C 641 885 700 862 741 816 C 782 770 803 704 803 618 L 803 248 C 803 179 809 136 822 118 C 834 100 850 92 868 92 C 886 92 905 99 924 113 L 944 82 Z M 600 250 L 599 351 C 599 381 599 406 600 426 C 550 418 490 398 419 365 C 348 331 313 282 313 217 C 313 179 324 148 346 123 C 368 98 396 86 432 86 C 468 86 505 99 543 125 C 581 151 600 179 600 207 L 600 250 Z M 629 989 L 590 969 L 334 1384 L 433 1434 L 629 989 Z" unicode="" />
<glyph horiz-adv-x="981" d="M 944 82 C 874 9 806 -27 741 -27 C 667 -27 623 19 608 113 C 521 49 458 9 418 -5 C 378 -19 341 -27 307 -27 C 249 -27 201 -8 162 28 C 123 65 104 112 104 168 C 104 239 135 292 198 327 C 260 361 394 415 600 489 L 600 612 C 600 659 582 696 548 723 C 513 750 472 764 424 764 C 348 764 305 720 297 633 C 293 609 288 593 282 587 C 276 581 258 572 230 561 C 202 550 178 545 160 545 C 143 545 135 558 135 584 C 135 632 146 668 170 692 C 194 716 231 741 283 768 C 304 779 329 793 357 809 C 413 842 456 863 484 872 C 512 880 539 885 563 885 C 641 885 700 862 741 816 C 782 770 803 704 803 618 L 803 248 C 803 179 809 136 822 118 C 834 100 850 92 868 92 C 886 92 905 99 924 113 L 944 82 Z M 600 250 L 599 351 C 599 381 599 406 600 426 C 550 418 490 398 419 365 C 348 331 313 282 313 217 C 313 179 324 148 346 123 C 368 98 396 86 432 86 C 468 86 505 99 543 125 C 581 151 600 179 600 207 L 600 250 Z M 692 1384 L 436 969 L 397 989 L 593 1434 L 692 1384 Z" unicode="" />
<glyph horiz-adv-x="981" d="M 944 82 C 874 9 806 -27 741 -27 C 667 -27 623 19 608 113 C 521 49 458 9 418 -5 C 378 -19 341 -27 307 -27 C 249 -27 201 -8 162 28 C 123 65 104 112 104 168 C 104 239 135 292 198 327 C 260 361 394 415 600 489 L 600 612 C 600 659 582 696 548 723 C 513 750 472 764 424 764 C 348 764 305 720 297 633 C 293 609 288 593 282 587 C 276 581 258 572 230 561 C 202 550 178 545 160 545 C 143 545 135 558 135 584 C 135 632 146 668 170 692 C 194 716 231 741 283 768 C 304 779 329 793 357 809 C 413 842 456 863 484 872 C 512 880 539 885 563 885 C 641 885 700 862 741 816 C 782 770 803 704 803 618 L 803 248 C 803 179 809 136 822 118 C 834 100 850 92 868 92 C 886 92 905 99 924 113 L 944 82 Z M 600 250 L 599 351 C 599 381 599 406 600 426 C 550 418 490 398 419 365 C 348 331 313 282 313 217 C 313 179 324 148 346 123 C 368 98 396 86 432 86 C 468 86 505 99 543 125 C 581 151 600 179 600 207 L 600 250 Z M 740 995 L 705 971 L 492 1264 L 283 971 L 244 991 L 463 1436 L 500 1436 L 740 995 Z" unicode="" />
<glyph horiz-adv-x="981" d="M 944 82 C 874 9 806 -27 741 -27 C 667 -27 623 19 608 113 C 521 49 458 9 418 -5 C 378 -19 341 -27 307 -27 C 249 -27 201 -8 162 28 C 123 65 104 112 104 168 C 104 239 135 292 198 327 C 260 361 394 415 600 489 L 600 612 C 600 659 582 696 548 723 C 513 750 472 764 424 764 C 348 764 305 720 297 633 C 293 609 288 593 282 587 C 276 581 258 572 230 561 C 202 550 178 545 160 545 C 143 545 135 558 135 584 C 135 632 146 668 170 692 C 194 716 231 741 283 768 C 304 779 329 793 357 809 C 413 842 456 863 484 872 C 512 880 539 885 563 885 C 641 885 700 862 741 816 C 782 770 803 704 803 618 L 803 248 C 803 179 809 136 822 118 C 834 100 850 92 868 92 C 886 92 905 99 924 113 L 944 82 Z M 600 250 L 599 351 C 599 381 599 406 600 426 C 550 418 490 398 419 365 C 348 331 313 282 313 217 C 313 179 324 148 346 123 C 368 98 396 86 432 86 C 468 86 505 99 543 125 C 581 151 600 179 600 207 L 600 250 Z M 741 1282 C 775 1282 792 1259 792 1214 C 792 1170 774 1133 740 1101 C 705 1069 665 1053 620 1053 C 594 1053 567 1059 537 1071 C 507 1083 465 1111 411 1155 C 361 1196 326 1217 307 1217 C 295 1217 284 1213 274 1207 C 264 1201 260 1193 260 1184 C 260 1174 263 1161 270 1143 C 276 1124 280 1110 280 1102 C 280 1092 276 1083 268 1075 C 260 1067 251 1063 241 1063 C 224 1063 211 1071 201 1088 C 191 1104 186 1123 186 1145 C 186 1187 203 1223 239 1251 C 275 1279 314 1294 358 1294 C 380 1294 403 1288 429 1277 C 455 1266 491 1240 539 1200 C 595 1152 637 1128 665 1128 C 676 1128 687 1132 697 1140 C 707 1148 712 1157 712 1167 C 712 1175 709 1186 704 1201 C 698 1216 696 1227 696 1235 C 696 1266 711 1282 741 1282 Z" unicode="" />
<glyph horiz-adv-x="981" d="M 944 82 C 874 9 806 -27 741 -27 C 667 -27 623 19 608 113 C 521 49 458 9 418 -5 C 378 -19 341 -27 307 -27 C 249 -27 201 -8 162 28 C 123 65 104 112 104 168 C 104 239 135 292 198 327 C 260 361 394 415 600 489 L 600 612 C 600 659 582 696 548 723 C 513 750 472 764 424 764 C 348 764 305 720 297 633 C 293 609 288 593 282 587 C 276 581 258 572 230 561 C 202 550 178 545 160 545 C 143 545 135 558 135 584 C 135 632 146 668 170 692 C 194 716 231 741 283 768 C 304 779 329 793 357 809 C 413 842 456 863 484 872 C 512 880 539 885 563 885 C 641 885 700 862 741 816 C 782 770 803 704 803 618 L 803 248 C 803 179 809 136 822 118 C 834 100 850 92 868 92 C 886 92 905 99 924 113 L 944 82 Z M 600 250 L 599 351 C 599 381 599 406 600 426 C 550 418 490 398 419 365 C 348 331 313 282 313 217 C 313 179 324 148 346 123 C 368 98 396 86 432 86 C 468 86 505 99 543 125 C 581 151 600 179 600 207 L 600 250 Z M 677 1290 C 707 1290 733 1279 755 1259 C 777 1239 788 1214 788 1184 C 788 1155 777 1130 756 1109 C 734 1087 709 1077 681 1077 C 651 1077 626 1087 606 1108 C 585 1128 575 1154 575 1184 C 575 1212 585 1236 605 1258 C 625 1279 649 1290 677 1290 Z M 292 1290 C 322 1290 348 1279 370 1259 C 392 1239 403 1214 403 1184 C 403 1155 392 1130 371 1109 C 349 1087 324 1077 296 1077 C 266 1077 241 1087 221 1108 C 200 1128 190 1154 190 1184 C 190 1212 200 1236 220 1258 C 240 1279 264 1290 292 1290 Z" unicode="" />
<glyph horiz-adv-x="981" d="M 944 82 C 874 9 806 -27 741 -27 C 667 -27 623 19 608 113 C 521 49 458 9 418 -5 C 378 -19 341 -27 307 -27 C 249 -27 201 -8 162 28 C 123 65 104 112 104 168 C 104 239 135 292 198 327 C 260 361 394 415 600 489 L 600 612 C 600 659 582 696 548 723 C 513 750 472 764 424 764 C 348 764 305 720 297 633 C 293 609 288 593 282 587 C 276 581 258 572 230 561 C 202 550 178 545 160 545 C 143 545 135 558 135 584 C 135 632 146 668 170 692 C 194 716 231 741 283 768 C 304 779 329 793 357 809 C 413 842 456 863 484 872 C 512 880 539 885 563 885 C 641 885 700 862 741 816 C 782 770 803 704 803 618 L 803 248 C 803 179 809 136 822 118 C 834 100 850 92 868 92 C 886 92 905 99 924 113 L 944 82 Z M 600 250 L 599 351 C 599 381 599 406 600 426 C 550 418 490 398 419 365 C 348 331 313 282 313 217 C 313 179 324 148 346 123 C 368 98 396 86 432 86 C 468 86 505 99 543 125 C 581 151 600 179 600 207 L 600 250 Z M 492 1376 C 547 1376 594 1356 633 1318 C 671 1279 691 1232 691 1178 C 691 1122 671 1074 633 1035 C 594 996 547 977 492 977 C 436 977 389 996 350 1036 C 310 1075 291 1122 291 1178 C 291 1232 310 1279 350 1318 C 389 1356 436 1376 492 1376 Z M 492 1057 C 524 1057 552 1068 576 1092 C 599 1116 611 1144 611 1178 C 611 1210 599 1238 576 1261 C 552 1284 524 1296 492 1296 C 459 1296 431 1284 407 1261 C 383 1237 371 1210 371 1178 C 371 1145 383 1117 407 1093 C 431 1069 459 1057 492 1057 Z" unicode="" />
<glyph horiz-adv-x="1430" d="M 1337 209 C 1271 122 1208 61 1148 25 C 1088 -11 1022 -29 952 -29 C 822 -29 726 29 666 145 C 536 29 413 -29 297 -29 C 239 -29 192 -9 156 29 C 120 68 102 117 102 176 C 102 242 128 285 182 305 L 604 459 L 604 592 C 604 702 553 758 453 758 C 411 758 381 750 361 734 C 341 718 325 687 314 639 C 310 621 306 608 304 599 C 301 589 280 577 240 562 C 200 546 175 539 164 539 C 146 539 137 550 137 573 C 137 611 144 642 159 666 C 173 690 198 712 233 732 L 357 805 C 404 833 446 854 482 866 C 518 878 552 885 586 885 C 629 885 666 876 696 858 C 726 840 756 808 786 764 C 878 844 973 885 1069 885 C 1151 885 1215 863 1263 820 C 1311 777 1335 729 1335 676 C 1335 656 1328 643 1315 635 C 1302 627 1246 607 1148 575 L 801 463 L 801 436 C 801 376 808 324 823 280 C 838 235 867 198 910 168 C 953 138 1004 123 1063 123 C 1144 123 1225 162 1307 240 L 1337 209 Z M 801 514 C 926 554 1003 580 1032 591 C 1061 601 1084 614 1100 628 C 1116 642 1124 660 1124 682 C 1124 718 1110 747 1084 771 C 1058 795 1026 807 989 807 C 933 807 888 782 852 732 C 816 682 799 627 799 565 L 801 514 Z M 604 307 C 604 351 603 382 602 401 C 584 397 538 382 465 354 C 392 326 349 301 335 280 C 321 259 315 234 315 205 C 315 121 354 80 434 80 C 490 80 533 95 561 125 C 589 155 604 215 604 307 Z" unicode="" />
<glyph horiz-adv-x="874" d="M 838 205 C 761 70 654 -8 516 -31 L 465 -90 C 521 -113 560 -137 582 -163 C 603 -188 614 -219 614 -256 C 614 -308 595 -349 558 -380 C 521 -410 476 -426 424 -426 C 383 -426 343 -416 305 -396 C 267 -376 248 -351 248 -319 C 248 -306 252 -295 262 -286 C 272 -276 283 -272 297 -272 C 315 -272 332 -287 348 -318 C 362 -344 375 -361 387 -368 C 399 -375 413 -379 428 -379 C 451 -379 471 -370 487 -353 C 503 -335 512 -315 512 -291 C 512 -263 500 -239 478 -218 C 456 -196 416 -186 358 -186 L 332 -160 L 442 -35 C 322 -20 229 25 165 103 C 100 180 68 274 68 385 C 68 521 115 637 211 734 C 306 830 421 879 557 879 C 627 879 686 867 734 843 C 782 819 807 785 807 741 C 807 714 796 692 774 674 C 752 656 728 647 700 647 C 686 647 672 650 659 658 C 645 666 629 685 609 717 C 584 754 562 778 543 788 C 523 798 503 803 483 803 C 416 803 362 772 322 712 C 282 652 262 582 262 502 C 262 398 292 307 354 230 C 416 153 494 115 590 115 C 630 115 666 123 697 139 C 728 155 764 186 805 233 L 838 205 Z" unicode="" />
<glyph horiz-adv-x="874" d="M 823 199 C 713 48 590 -27 455 -27 C 342 -27 250 15 178 100 C 106 184 70 287 70 408 C 70 535 111 644 195 736 C 279 828 382 874 506 874 C 613 874 692 841 742 777 C 792 713 817 653 817 598 C 817 564 787 547 729 547 L 246 547 C 246 412 279 310 345 242 C 411 173 490 139 580 139 C 656 139 727 171 795 236 L 823 199 Z M 254 608 L 543 608 C 595 608 621 629 621 672 C 621 709 606 742 577 770 C 548 798 515 813 477 813 C 425 813 378 793 336 755 C 294 717 266 668 254 608 Z M 576 989 L 537 969 L 281 1384 L 380 1434 L 576 989 Z" unicode="" />
<glyph horiz-adv-x="874" d="M 823 199 C 713 48 590 -27 455 -27 C 342 -27 250 15 178 100 C 106 184 70 287 70 408 C 70 535 111 644 195 736 C 279 828 382 874 506 874 C 613 874 692 841 742 777 C 792 713 817 653 817 598 C 817 564 787 547 729 547 L 246 547 C 246 412 279 310 345 242 C 411 173 490 139 580 139 C 656 139 727 171 795 236 L 823 199 Z M 254 608 L 543 608 C 595 608 621 629 621 672 C 621 709 606 742 577 770 C 548 798 515 813 477 813 C 425 813 378 793 336 755 C 294 717 266 668 254 608 Z M 639 1384 L 383 969 L 344 989 L 540 1434 L 639 1384 Z" unicode="" />
<glyph horiz-adv-x="874" d="M 823 199 C 713 48 590 -27 455 -27 C 342 -27 250 15 178 100 C 106 184 70 287 70 408 C 70 535 111 644 195 736 C 279 828 382 874 506 874 C 613 874 692 841 742 777 C 792 713 817 653 817 598 C 817 564 787 547 729 547 L 246 547 C 246 412 279 310 345 242 C 411 173 490 139 580 139 C 656 139 727 171 795 236 L 823 199 Z M 254 608 L 543 608 C 595 608 621 629 621 672 C 621 709 606 742 577 770 C 548 798 515 813 477 813 C 425 813 378 793 336 755 C 294 717 266 668 254 608 Z M 707 995 L 672 971 L 459 1264 L 250 971 L 211 991 L 430 1436 L 467 1436 L 707 995 Z" unicode="" />
<glyph horiz-adv-x="874" d="M 823 199 C 713 48 590 -27 455 -27 C 342 -27 250 15 178 100 C 106 184 70 287 70 408 C 70 535 111 644 195 736 C 279 828 382 874 506 874 C 613 874 692 841 742 777 C 792 713 817 653 817 598 C 817 564 787 547 729 547 L 246 547 C 246 412 279 310 345 242 C 411 173 490 139 580 139 C 656 139 727 171 795 236 L 823 199 Z M 254 608 L 543 608 C 595 608 621 629 621 672 C 621 709 606 742 577 770 C 548 798 515 813 477 813 C 425 813 378 793 336 755 C 294 717 266 668 254 608 Z M 665 1290 C 695 1290 721 1279 743 1259 C 765 1239 776 1214 776 1184 C 776 1155 765 1130 744 1109 C 722 1087 697 1077 669 1077 C 639 1077 614 1087 594 1108 C 573 1128 563 1154 563 1184 C 563 1212 573 1236 593 1258 C 613 1279 637 1290 665 1290 Z M 280 1290 C 310 1290 336 1279 358 1259 C 380 1239 391 1214 391 1184 C 391 1155 380 1130 359 1109 C 337 1087 312 1077 284 1077 C 254 1077 229 1087 209 1108 C 188 1128 178 1154 178 1184 C 178 1212 188 1236 208 1258 C 228 1279 252 1290 280 1290 Z" unicode="" />
<glyph horiz-adv-x="555" d="M 500 -4 C 420 -1 359 0 315 0 L 270 0 C 220 0 149 -1 57 -4 L 57 47 C 102 47 129 48 139 51 C 161 57 172 71 172 92 L 172 680 C 172 694 143 710 87 726 C 70 730 60 733 57 735 L 57 776 C 74 779 102 789 141 806 L 283 862 C 327 880 350 889 352 889 C 372 889 383 877 383 854 L 383 90 C 383 69 390 57 406 53 C 422 49 453 47 500 47 L 500 -4 Z M 416 989 L 377 969 L 121 1384 L 220 1434 L 416 989 Z" unicode="" />
<glyph horiz-adv-x="555" d="M 500 -4 C 420 -1 359 0 315 0 L 270 0 C 220 0 149 -1 57 -4 L 57 47 C 102 47 129 48 139 51 C 161 57 172 71 172 92 L 172 680 C 172 694 143 710 87 726 C 70 730 60 733 57 735 L 57 776 C 74 779 102 789 141 806 L 283 862 C 327 880 350 889 352 889 C 372 889 383 877 383 854 L 383 90 C 383 69 390 57 406 53 C 422 49 453 47 500 47 L 500 -4 Z M 479 1384 L 223 969 L 184 989 L 380 1434 L 479 1384 Z" unicode="" />
<glyph horiz-adv-x="555" d="M 500 -4 C 420 -1 359 0 315 0 L 270 0 C 220 0 149 -1 57 -4 L 57 47 C 102 47 129 48 139 51 C 161 57 172 71 172 92 L 172 680 C 172 694 143 710 87 726 C 70 730 60 733 57 735 L 57 776 C 74 779 102 789 141 806 L 283 862 C 327 880 350 889 352 889 C 372 889 383 877 383 854 L 383 90 C 383 69 390 57 406 53 C 422 49 453 47 500 47 L 500 -4 Z M 527 995 L 492 971 L 279 1264 L 70 971 L 31 991 L 250 1436 L 287 1436 L 527 995 Z" unicode="" />
<glyph horiz-adv-x="555" d="M 500 -4 C 420 -1 359 0 315 0 L 270 0 C 220 0 149 -1 57 -4 L 57 47 C 102 47 129 48 139 51 C 161 57 172 71 172 92 L 172 680 C 172 694 143 710 87 726 C 70 730 60 733 57 735 L 57 776 C 74 779 102 789 141 806 L 283 862 C 327 880 350 889 352 889 C 372 889 383 877 383 854 L 383 90 C 383 69 390 57 406 53 C 422 49 453 47 500 47 L 500 -4 Z M 464 1290 C 494 1290 520 1279 542 1259 C 564 1239 575 1214 575 1184 C 575 1155 564 1130 543 1109 C 521 1087 496 1077 468 1077 C 438 1077 413 1087 393 1108 C 372 1128 362 1154 362 1184 C 362 1212 372 1236 392 1258 C 412 1279 436 1290 464 1290 Z M 79 1290 C 109 1290 135 1279 157 1259 C 179 1239 190 1214 190 1184 C 190 1155 179 1130 158 1109 C 136 1087 111 1077 83 1077 C 53 1077 28 1087 8 1108 C -12 1128 -23 1154 -23 1184 C -23 1212 -12 1236 7 1258 C 27 1279 51 1290 79 1290 Z" unicode="" />
<glyph horiz-adv-x="1087" d="M 645 1288 C 761 1185 849 1065 908 927 C 967 789 997 649 997 506 C 997 348 957 221 878 123 C 799 25 690 -23 551 -23 C 417 -23 306 19 220 105 C 133 190 90 299 90 432 C 90 564 132 671 217 754 C 301 837 410 879 543 879 C 612 879 675 862 733 829 C 696 978 635 1102 551 1202 L 342 1006 L 293 1059 L 504 1255 C 442 1314 381 1363 319 1403 L 360 1481 C 447 1430 523 1381 588 1335 L 743 1481 L 791 1427 L 645 1288 Z M 537 39 C 613 39 671 70 711 133 C 750 195 770 297 770 438 C 770 690 694 817 543 817 C 469 817 412 788 374 731 C 336 674 317 579 317 446 C 317 298 335 194 373 132 C 410 70 465 39 537 39 Z" unicode="" />
<glyph horiz-adv-x="1087" d="M 1034 -4 C 941 -1 869 0 817 0 L 604 -4 L 604 45 C 651 45 679 46 687 50 C 704 57 713 74 713 100 L 713 594 C 713 638 697 675 666 703 C 635 731 596 745 549 745 C 498 745 439 723 373 680 L 373 104 C 373 76 381 59 398 53 C 415 47 445 45 487 45 L 487 -4 C 441 -1 368 0 268 0 L 53 -4 L 53 47 C 101 47 131 49 144 53 C 157 57 164 71 164 96 L 164 670 C 164 692 126 713 51 733 L 51 768 C 196 812 296 853 350 893 L 373 881 L 373 737 C 501 831 608 879 694 879 C 764 879 819 857 860 814 C 901 770 922 713 922 641 L 922 96 C 922 75 926 61 935 55 C 944 48 977 45 1034 45 L 1034 -4 Z M 795 1282 C 829 1282 846 1259 846 1214 C 846 1170 828 1133 794 1101 C 759 1069 719 1053 674 1053 C 648 1053 621 1059 591 1071 C 561 1083 519 1111 465 1155 C 415 1196 380 1217 361 1217 C 349 1217 338 1213 328 1207 C 318 1201 314 1193 314 1184 C 314 1174 317 1161 324 1143 C 330 1124 334 1110 334 1102 C 334 1092 330 1083 322 1075 C 314 1067 305 1063 295 1063 C 278 1063 265 1071 255 1088 C 245 1104 240 1123 240 1145 C 240 1187 257 1223 293 1251 C 329 1279 368 1294 412 1294 C 434 1294 457 1288 483 1277 C 509 1266 545 1240 593 1200 C 649 1152 691 1128 719 1128 C 730 1128 741 1132 751 1140 C 761 1148 766 1157 766 1167 C 766 1175 763 1186 758 1201 C 752 1216 750 1227 750 1235 C 750 1266 765 1282 795 1282 Z" unicode="" />
<glyph horiz-adv-x="1087" d="M 520 879 C 661 879 778 837 872 754 C 965 671 1012 563 1012 430 C 1012 300 966 190 874 102 C 782 13 671 -31 541 -31 C 409 -31 299 11 210 96 C 120 181 76 288 76 418 C 76 543 118 651 204 742 C 290 833 395 879 520 879 Z M 557 31 C 629 31 683 64 721 130 C 759 196 778 284 778 395 C 778 515 756 615 713 696 C 670 776 608 817 528 817 C 456 817 402 784 365 720 C 327 656 309 571 309 465 C 309 340 330 236 373 154 C 415 72 477 31 557 31 Z M 682 989 L 643 969 L 387 1384 L 486 1434 L 682 989 Z" unicode="" />
<glyph horiz-adv-x="1087" d="M 520 879 C 661 879 778 837 872 754 C 965 671 1012 563 1012 430 C 1012 300 966 190 874 102 C 782 13 671 -31 541 -31 C 409 -31 299 11 210 96 C 120 181 76 288 76 418 C 76 543 118 651 204 742 C 290 833 395 879 520 879 Z M 557 31 C 629 31 683 64 721 130 C 759 196 778 284 778 395 C 778 515 756 615 713 696 C 670 776 608 817 528 817 C 456 817 402 784 365 720 C 327 656 309 571 309 465 C 309 340 330 236 373 154 C 415 72 477 31 557 31 Z M 746 1384 L 490 969 L 451 989 L 647 1434 L 746 1384 Z" unicode="" />
<glyph horiz-adv-x="1087" d="M 520 879 C 661 879 778 837 872 754 C 965 671 1012 563 1012 430 C 1012 300 966 190 874 102 C 782 13 671 -31 541 -31 C 409 -31 299 11 210 96 C 120 181 76 288 76 418 C 76 543 118 651 204 742 C 290 833 395 879 520 879 Z M 557 31 C 629 31 683 64 721 130 C 759 196 778 284 778 395 C 778 515 756 615 713 696 C 670 776 608 817 528 817 C 456 817 402 784 365 720 C 327 656 309 571 309 465 C 309 340 330 236 373 154 C 415 72 477 31 557 31 Z M 793 995 L 758 971 L 545 1264 L 336 971 L 297 991 L 516 1436 L 553 1436 L 793 995 Z" unicode="" />
<glyph horiz-adv-x="1087" d="M 520 879 C 661 879 778 837 872 754 C 965 671 1012 563 1012 430 C 1012 300 966 190 874 102 C 782 13 671 -31 541 -31 C 409 -31 299 11 210 96 C 120 181 76 288 76 418 C 76 543 118 651 204 742 C 290 833 395 879 520 879 Z M 557 31 C 629 31 683 64 721 130 C 759 196 778 284 778 395 C 778 515 756 615 713 696 C 670 776 608 817 528 817 C 456 817 402 784 365 720 C 327 656 309 571 309 465 C 309 340 330 236 373 154 C 415 72 477 31 557 31 Z M 795 1282 C 829 1282 846 1259 846 1214 C 846 1170 828 1133 794 1101 C 759 1069 719 1053 674 1053 C 648 1053 621 1059 591 1071 C 561 1083 519 1111 465 1155 C 415 1196 380 1217 361 1217 C 349 1217 338 1213 328 1207 C 318 1201 314 1193 314 1184 C 314 1174 317 1161 324 1143 C 330 1124 334 1110 334 1102 C 334 1092 330 1083 322 1075 C 314 1067 305 1063 295 1063 C 278 1063 265 1071 255 1088 C 245 1104 240 1123 240 1145 C 240 1187 257 1223 293 1251 C 329 1279 368 1294 412 1294 C 434 1294 457 1288 483 1277 C 509 1266 545 1240 593 1200 C 649 1152 691 1128 719 1128 C 730 1128 741 1132 751 1140 C 761 1148 766 1157 766 1167 C 766 1175 763 1186 758 1201 C 752 1216 750 1227 750 1235 C 750 1266 765 1282 795 1282 Z" unicode="" />
<glyph horiz-adv-x="1087" d="M 520 879 C 661 879 778 837 872 754 C 965 671 1012 563 1012 430 C 1012 300 966 190 874 102 C 782 13 671 -31 541 -31 C 409 -31 299 11 210 96 C 120 181 76 288 76 418 C 76 543 118 651 204 742 C 290 833 395 879 520 879 Z M 557 31 C 629 31 683 64 721 130 C 759 196 778 284 778 395 C 778 515 756 615 713 696 C 670 776 608 817 528 817 C 456 817 402 784 365 720 C 327 656 309 571 309 465 C 309 340 330 236 373 154 C 415 72 477 31 557 31 Z M 731 1290 C 761 1290 787 1279 809 1259 C 831 1239 842 1214 842 1184 C 842 1155 831 1130 810 1109 C 788 1087 763 1077 735 1077 C 705 1077 680 1087 660 1108 C 639 1128 629 1154 629 1184 C 629 1212 639 1236 659 1258 C 679 1279 703 1290 731 1290 Z M 346 1290 C 376 1290 402 1279 424 1259 C 446 1239 457 1214 457 1184 C 457 1155 446 1130 425 1109 C 403 1087 378 1077 350 1077 C 320 1077 295 1087 275 1108 C 254 1128 244 1154 244 1184 C 244 1212 254 1236 274 1258 C 294 1279 318 1290 346 1290 Z" unicode="" />
<glyph horiz-adv-x="1366" d="M 684 1184 C 710 1184 733 1174 753 1154 C 772 1134 782 1111 782 1085 C 782 1059 772 1036 753 1016 C 733 996 710 987 684 987 C 657 987 634 996 615 1016 C 595 1036 586 1059 586 1085 C 586 1111 595 1134 615 1154 C 634 1174 657 1184 684 1184 Z M 1231 588 L 135 588 L 135 745 L 1231 745 L 1231 588 Z M 684 346 C 710 346 733 336 753 317 C 772 297 782 274 782 248 C 782 221 772 198 753 179 C 733 159 710 150 684 150 C 657 150 634 159 615 179 C 595 198 586 221 586 248 C 586 274 595 297 615 317 C 634 336 657 346 684 346 Z" unicode="" />
<glyph horiz-adv-x="1087" d="M 907 717 C 977 621 1012 525 1012 428 C 1012 300 966 191 874 102 C 782 13 671 -31 543 -31 C 424 -31 321 4 233 74 L 127 -27 L 80 23 L 182 125 C 111 203 76 299 76 414 C 76 542 119 651 205 742 C 291 833 396 879 522 879 C 651 879 763 841 858 766 L 954 858 L 1004 809 L 907 717 Z M 731 649 C 689 761 620 817 524 817 C 454 817 400 785 364 723 C 327 661 309 578 309 475 C 309 419 316 350 332 266 L 731 649 Z M 356 190 C 404 84 471 31 559 31 C 631 31 685 62 722 124 C 759 186 778 274 778 387 C 778 457 769 518 752 569 L 356 190 Z" unicode="" />
<glyph horiz-adv-x="1087" d="M 1032 39 L 733 -14 L 711 -2 L 711 123 C 585 20 479 -31 391 -31 C 329 -31 276 -11 233 27 C 189 65 168 114 168 174 L 168 731 C 168 740 155 751 129 763 C 103 775 79 782 57 786 L 57 823 L 360 879 L 381 868 L 381 260 C 381 214 394 177 421 147 C 447 117 483 102 528 102 C 552 102 576 107 601 117 C 626 127 663 153 711 193 L 711 729 C 711 747 667 768 580 793 L 580 829 L 901 879 L 922 868 L 922 113 C 922 98 930 89 946 86 C 962 83 991 82 1032 82 L 1032 39 Z M 682 989 L 643 969 L 387 1384 L 486 1434 L 682 989 Z" unicode="" />
<glyph horiz-adv-x="1087" d="M 1032 39 L 733 -14 L 711 -2 L 711 123 C 585 20 479 -31 391 -31 C 329 -31 276 -11 233 27 C 189 65 168 114 168 174 L 168 731 C 168 740 155 751 129 763 C 103 775 79 782 57 786 L 57 823 L 360 879 L 381 868 L 381 260 C 381 214 394 177 421 147 C 447 117 483 102 528 102 C 552 102 576 107 601 117 C 626 127 663 153 711 193 L 711 729 C 711 747 667 768 580 793 L 580 829 L 901 879 L 922 868 L 922 113 C 922 98 930 89 946 86 C 962 83 991 82 1032 82 L 1032 39 Z M 746 1384 L 490 969 L 451 989 L 647 1434 L 746 1384 Z" unicode="" />
<glyph horiz-adv-x="1087" d="M 1032 39 L 733 -14 L 711 -2 L 711 123 C 585 20 479 -31 391 -31 C 329 -31 276 -11 233 27 C 189 65 168 114 168 174 L 168 731 C 168 740 155 751 129 763 C 103 775 79 782 57 786 L 57 823 L 360 879 L 381 868 L 381 260 C 381 214 394 177 421 147 C 447 117 483 102 528 102 C 552 102 576 107 601 117 C 626 127 663 153 711 193 L 711 729 C 711 747 667 768 580 793 L 580 829 L 901 879 L 922 868 L 922 113 C 922 98 930 89 946 86 C 962 83 991 82 1032 82 L 1032 39 Z M 793 995 L 758 971 L 545 1264 L 336 971 L 297 991 L 516 1436 L 553 1436 L 793 995 Z" unicode="" />
<glyph horiz-adv-x="1087" d="M 1032 39 L 733 -14 L 711 -2 L 711 123 C 585 20 479 -31 391 -31 C 329 -31 276 -11 233 27 C 189 65 168 114 168 174 L 168 731 C 168 740 155 751 129 763 C 103 775 79 782 57 786 L 57 823 L 360 879 L 381 868 L 381 260 C 381 214 394 177 421 147 C 447 117 483 102 528 102 C 552 102 576 107 601 117 C 626 127 663 153 711 193 L 711 729 C 711 747 667 768 580 793 L 580 829 L 901 879 L 922 868 L 922 113 C 922 98 930 89 946 86 C 962 83 991 82 1032 82 L 1032 39 Z M 731 1290 C 761 1290 787 1279 809 1259 C 831 1239 842 1214 842 1184 C 842 1155 831 1130 810 1109 C 788 1087 763 1077 735 1077 C 705 1077 680 1087 660 1108 C 639 1128 629 1154 629 1184 C 629 1212 639 1236 659 1258 C 679 1279 703 1290 731 1290 Z M 346 1290 C 376 1290 402 1279 424 1259 C 446 1239 457 1214 457 1184 C 457 1155 446 1130 425 1109 C 403 1087 378 1077 350 1077 C 320 1077 295 1087 275 1108 C 254 1128 244 1154 244 1184 C 244 1212 254 1236 274 1258 C 294 1279 318 1290 346 1290 Z" unicode="" />
<glyph horiz-adv-x="981" d="M 944 801 C 904 801 877 792 862 775 C 846 757 829 724 809 676 L 393 -336 C 363 -405 318 -440 258 -440 C 228 -440 203 -430 183 -411 C 162 -392 152 -368 152 -340 C 152 -310 161 -284 179 -262 C 197 -240 220 -229 248 -229 C 284 -229 315 -247 342 -285 L 446 -29 L 131 752 C 118 784 87 801 37 803 L 37 852 L 242 848 L 461 852 L 461 801 C 416 801 388 797 378 791 C 367 785 362 776 362 766 C 362 758 367 742 377 718 L 559 254 C 664 512 720 652 728 672 C 735 692 739 716 739 743 C 739 779 702 799 629 801 L 629 852 L 791 848 L 944 852 L 944 801 Z M 518 -29 L 518 -29 Z M 692 1384 L 436 969 L 397 989 L 593 1434 L 692 1384 Z" unicode="" />
<glyph horiz-adv-x="1087" d="M 379 762 C 479 840 574 879 664 879 C 772 879 861 838 929 757 C 997 676 1032 577 1032 461 C 1032 329 986 215 895 118 C 804 21 693 -27 563 -27 C 510 -27 449 -16 379 4 L 379 -360 C 379 -371 385 -379 397 -383 C 409 -387 438 -390 484 -392 L 537 -395 L 537 -442 L 285 -438 L 57 -442 L 57 -395 C 132 -391 170 -380 170 -360 L 170 1278 L 82 1321 L 82 1360 C 227 1413 319 1452 358 1477 L 379 1466 L 379 762 Z M 379 702 L 379 178 C 396 136 427 102 472 75 C 517 48 563 35 610 35 C 676 35 727 67 764 133 C 800 199 819 276 819 365 C 819 469 792 560 740 639 C 687 718 617 758 530 758 C 474 758 423 739 379 702 Z" unicode="" />
<glyph horiz-adv-x="981" d="M 944 801 C 904 801 877 792 862 775 C 846 757 829 724 809 676 L 393 -336 C 363 -405 318 -440 258 -440 C 228 -440 203 -430 183 -411 C 162 -392 152 -368 152 -340 C 152 -310 161 -284 179 -262 C 197 -240 220 -229 248 -229 C 284 -229 315 -247 342 -285 L 446 -29 L 131 752 C 118 784 87 801 37 803 L 37 852 L 242 848 L 461 852 L 461 801 C 416 801 388 797 378 791 C 367 785 362 776 362 766 C 362 758 367 742 377 718 L 559 254 C 664 512 720 652 728 672 C 735 692 739 716 739 743 C 739 779 702 799 629 801 L 629 852 L 791 848 L 944 852 L 944 801 Z M 518 -29 L 518 -29 Z M 676 1290 C 706 1290 732 1279 754 1259 C 776 1239 787 1214 787 1184 C 787 1155 776 1130 755 1109 C 733 1087 708 1077 680 1077 C 650 1077 625 1087 605 1108 C 584 1128 574 1154 574 1184 C 574 1212 584 1236 604 1258 C 624 1279 648 1290 676 1290 Z M 291 1290 C 321 1290 347 1279 369 1259 C 391 1239 402 1214 402 1184 C 402 1155 391 1130 370 1109 C 348 1087 323 1077 295 1077 C 265 1077 240 1087 220 1108 C 199 1128 189 1154 189 1184 C 189 1212 199 1236 219 1258 C 239 1279 263 1290 291 1290 Z" unicode="" />
<glyph horiz-adv-x="555" d="M 500 -4 C 420 -1 359 0 315 0 L 270 0 C 220 0 149 -1 57 -4 L 57 47 C 102 47 129 48 139 51 C 161 57 172 71 172 92 L 172 680 C 172 694 143 710 87 726 C 70 730 60 733 57 735 L 57 776 C 74 779 102 789 141 806 L 283 862 C 327 880 350 889 352 889 C 372 889 383 877 383 854 L 383 90 C 383 69 390 57 406 53 C 422 49 453 47 500 47 L 500 -4 Z" unicode="" />
<glyph horiz-adv-x="1194" d="M 1161 319 L 1098 -4 C 988 -1 813 0 571 0 L 442 0 C 349 0 218 -1 49 -4 L 49 55 C 130 55 179 67 196 91 C 212 115 221 166 221 244 L 221 530 L 37 375 L 37 463 L 221 621 L 221 1161 C 221 1196 214 1222 200 1238 C 186 1254 169 1264 148 1268 C 127 1272 94 1274 49 1274 L 49 1331 C 167 1328 260 1327 326 1327 C 468 1327 571 1328 635 1331 L 635 1274 C 571 1274 526 1266 500 1251 C 474 1235 461 1199 461 1141 L 461 821 L 817 1120 L 817 1032 L 461 731 L 461 205 C 461 164 474 134 500 116 C 526 98 556 87 589 84 C 621 81 674 80 746 80 C 854 80 935 93 987 120 C 1039 147 1079 216 1108 328 L 1161 319 Z" unicode="" />
<glyph horiz-adv-x="555" d="M 516 905 L 383 795 L 383 96 C 383 73 391 59 408 54 C 425 49 455 47 498 47 L 498 -4 C 453 -1 382 0 285 0 C 231 0 155 -1 57 -4 L 57 47 C 100 47 130 49 147 55 C 163 60 172 74 172 98 L 172 616 L 31 500 L 31 590 L 172 707 L 172 1264 C 146 1288 109 1306 61 1319 L 61 1354 C 197 1403 297 1444 360 1477 L 383 1462 L 383 885 L 516 995 L 516 905 Z" unicode="" />
<glyph horiz-adv-x="1962" d="M 1933 299 C 1903 166 1882 65 1870 -4 L 1342 0 C 1172 0 1040 -6 946 -18 C 862 -30 794 -37 741 -37 C 543 -37 381 27 254 157 C 126 286 63 450 63 649 C 63 861 129 1033 263 1165 C 396 1297 568 1364 780 1364 C 816 1364 871 1359 944 1349 C 1017 1338 1072 1333 1108 1333 L 1432 1327 L 1808 1331 C 1808 1253 1811 1166 1819 1069 L 1767 1059 C 1753 1147 1732 1202 1704 1224 C 1676 1246 1616 1257 1524 1257 C 1436 1257 1350 1255 1264 1251 L 1264 733 L 1483 733 C 1529 733 1563 738 1585 748 C 1607 758 1622 775 1628 797 C 1634 819 1638 855 1638 905 L 1694 905 C 1692 764 1692 623 1694 483 L 1640 471 C 1640 530 1633 573 1620 601 C 1607 629 1575 643 1524 643 L 1262 643 L 1262 195 C 1262 155 1272 126 1294 109 C 1316 91 1341 81 1370 79 C 1399 76 1456 75 1540 75 C 1606 75 1663 81 1709 93 C 1755 105 1789 127 1809 159 C 1829 191 1852 240 1878 307 L 1933 299 Z M 1024 219 L 1024 1153 C 1024 1199 1003 1234 961 1258 C 919 1282 865 1294 797 1294 C 647 1294 530 1238 448 1127 C 365 1015 324 870 324 690 C 324 518 363 365 442 232 C 520 99 644 33 813 33 C 893 33 948 47 978 75 C 1008 103 1024 151 1024 219 Z" unicode="" />
<glyph horiz-adv-x="1536" d="M 862 727 C 963 828 1073 879 1192 879 C 1273 879 1343 853 1401 803 C 1459 753 1489 689 1489 612 C 1489 570 1472 549 1440 549 L 930 549 C 930 473 935 412 944 367 C 952 321 973 279 1005 241 C 1037 203 1073 175 1112 158 C 1151 141 1193 133 1239 133 C 1320 133 1392 165 1456 229 L 1487 199 C 1427 116 1368 57 1311 22 C 1253 -13 1190 -31 1122 -31 C 1012 -31 918 19 840 121 C 755 19 645 -31 510 -31 C 384 -31 282 10 204 93 C 125 176 86 282 86 412 C 86 547 127 659 211 747 C 295 835 403 879 537 879 C 679 879 788 828 862 727 Z M 532 27 C 666 27 733 158 733 422 C 733 548 715 646 681 715 C 646 784 595 819 528 819 C 458 819 405 784 369 715 C 333 645 315 551 315 432 C 315 306 333 207 370 135 C 407 63 461 27 532 27 Z M 944 606 L 1214 606 C 1262 606 1286 626 1286 666 C 1286 708 1272 743 1244 771 C 1216 799 1182 813 1141 813 C 1091 813 1048 793 1012 755 C 976 717 953 667 944 606 Z" unicode="" />
<glyph horiz-adv-x="981" d="M 782 1067 C 763 1148 735 1206 699 1241 C 662 1276 612 1294 549 1294 C 479 1294 419 1272 371 1228 C 323 1184 299 1128 299 1061 C 299 1019 313 979 341 941 C 369 902 439 852 553 792 C 626 752 685 715 731 683 C 776 651 815 608 847 556 C 879 504 895 441 895 367 C 895 249 851 154 763 81 C 675 7 568 -29 442 -29 C 334 -29 221 0 102 57 C 94 187 85 280 74 334 L 125 342 C 159 229 200 151 248 107 C 296 63 359 41 436 41 C 508 41 570 63 620 108 C 670 153 696 211 696 281 C 696 326 681 369 653 410 C 625 451 553 502 439 562 C 368 598 311 632 268 662 C 225 692 188 733 158 783 C 128 833 113 895 113 969 C 113 1093 153 1189 235 1259 C 316 1329 420 1364 547 1364 C 587 1364 677 1355 815 1337 C 815 1274 822 1186 836 1073 L 782 1067 Z M 779 1886 L 560 1442 L 523 1442 L 283 1882 L 318 1906 L 531 1614 L 740 1906 L 779 1886 Z" unicode="" />
<glyph horiz-adv-x="768" d="M 594 649 C 578 766 520 825 422 825 C 379 825 344 813 318 791 C 292 768 279 737 279 698 C 279 670 288 644 308 618 C 327 592 376 560 454 520 C 552 468 615 422 642 382 C 668 341 682 298 682 252 C 682 163 649 94 583 44 C 517 -6 439 -31 348 -31 C 284 -31 208 -10 119 31 L 106 233 L 150 236 C 180 98 244 29 344 29 C 387 29 424 42 455 69 C 486 95 502 129 502 170 C 502 194 493 217 476 239 C 459 261 416 289 346 325 C 246 375 183 423 156 467 C 128 511 115 559 115 610 C 115 694 143 761 200 811 C 256 860 330 885 422 885 C 486 885 556 870 633 842 L 637 651 L 594 649 Z M 631 1407 L 412 963 L 375 963 L 135 1403 L 170 1427 L 383 1135 L 592 1427 L 631 1407 Z" unicode="" />
<glyph horiz-adv-x="1430" d="M 1399 1272 C 1340 1272 1294 1248 1262 1202 L 895 688 L 895 158 C 895 125 903 101 919 87 C 935 72 952 63 972 61 C 992 58 1026 56 1075 55 L 1075 -4 C 1013 -1 913 0 776 0 C 704 0 604 -1 475 -4 L 475 55 C 527 56 564 58 584 62 C 604 65 620 75 633 92 C 646 109 653 137 653 176 L 653 633 L 217 1225 C 194 1256 142 1272 61 1272 L 61 1331 L 348 1327 L 637 1331 L 637 1272 C 565 1269 530 1255 530 1231 C 530 1214 538 1194 556 1172 L 856 768 L 1122 1168 C 1140 1194 1149 1215 1149 1231 C 1149 1243 1140 1253 1124 1261 C 1108 1268 1071 1272 1014 1272 L 1014 1331 L 1221 1327 L 1399 1331 L 1399 1272 Z M 964 1769 C 994 1769 1020 1758 1042 1738 C 1064 1718 1075 1693 1075 1663 C 1075 1634 1064 1609 1043 1588 C 1021 1566 996 1556 968 1556 C 938 1556 913 1566 893 1587 C 872 1607 862 1633 862 1663 C 862 1691 872 1715 892 1737 C 912 1758 936 1769 964 1769 Z M 579 1769 C 609 1769 635 1758 657 1738 C 679 1718 690 1693 690 1663 C 690 1634 679 1609 658 1588 C 636 1566 611 1556 583 1556 C 553 1556 528 1566 508 1587 C 487 1607 477 1633 477 1663 C 477 1691 487 1715 507 1737 C 527 1758 551 1769 579 1769 Z" unicode="" />
<glyph horiz-adv-x="1430" d="M 1380 313 C 1347 175 1324 70 1311 0 L 88 0 L 975 1243 L 391 1243 C 339 1243 299 1228 269 1199 C 239 1169 214 1112 195 1026 L 141 1030 C 152 1181 160 1293 164 1366 L 203 1384 C 219 1346 250 1327 295 1327 L 1319 1327 L 436 84 L 1081 84 C 1143 84 1192 99 1229 131 C 1265 163 1299 228 1329 326 L 1380 313 Z M 963 1886 L 744 1442 L 707 1442 L 467 1882 L 502 1906 L 715 1614 L 924 1906 L 963 1886 Z" unicode="" />
<glyph horiz-adv-x="874" d="M 823 246 C 809 154 800 72 795 0 L 53 0 L 514 778 L 268 778 C 224 778 191 768 169 750 C 147 731 130 695 117 641 L 70 641 C 80 713 87 799 92 899 L 137 899 C 145 867 167 852 203 852 L 793 852 L 334 74 L 606 74 C 688 74 745 131 776 246 L 823 246 Z M 684 1407 L 465 963 L 428 963 L 188 1403 L 223 1427 L 436 1135 L 645 1427 L 684 1407 Z" unicode="" />
<glyph horiz-adv-x="1300" d="M 637 862 C 681 1059 762 1211 880 1317 C 998 1423 1106 1477 1204 1477 C 1268 1477 1300 1451 1300 1401 C 1300 1361 1287 1327 1261 1299 C 1235 1271 1203 1257 1165 1257 C 1141 1257 1123 1273 1111 1305 C 1099 1336 1081 1352 1057 1352 C 1002 1352 960 1297 932 1188 L 842 848 L 1077 848 L 1053 758 L 819 758 C 703 326 643 98 638 74 C 632 50 617 11 592 -43 C 567 -97 527 -157 473 -221 C 418 -285 357 -337 289 -377 C 221 -417 157 -438 96 -438 C 32 -438 0 -412 0 -360 C 0 -322 13 -289 39 -261 C 65 -233 97 -219 135 -219 C 159 -219 177 -234 189 -264 C 201 -295 220 -311 246 -311 C 298 -311 339 -259 367 -156 L 608 758 L 475 758 L 483 788 L 637 862 Z" unicode="" />
<glyph horiz-adv-x="682" d="M 590 995 L 555 971 L 342 1264 L 133 971 L 94 991 L 313 1436 L 350 1436 L 590 995 Z" unicode="" />
<glyph horiz-adv-x="682" d="M 588 1407 L 369 963 L 332 963 L 92 1403 L 127 1427 L 340 1135 L 549 1427 L 588 1407 Z" unicode="" />
<glyph horiz-adv-x="682" d="M 653 1071 L 31 1071 L 31 1169 L 653 1169 L 653 1071 Z" unicode="" />
<glyph horiz-adv-x="682" d="M 600 1272 C 572 1116 486 1038 340 1038 C 196 1038 110 1116 82 1272 L 129 1272 C 153 1182 224 1137 340 1137 C 407 1137 456 1148 488 1171 C 519 1193 540 1227 551 1272 L 600 1272 Z" unicode="" />
<glyph horiz-adv-x="682" d="M 338 1290 C 368 1290 394 1279 416 1259 C 438 1239 449 1214 449 1184 C 449 1155 438 1130 417 1109 C 395 1087 370 1077 342 1077 C 312 1077 287 1087 267 1108 C 246 1128 236 1154 236 1184 C 236 1212 246 1236 266 1258 C 286 1279 310 1290 338 1290 Z" unicode="" />
<glyph horiz-adv-x="682" d="M 342 1376 C 397 1376 444 1356 483 1318 C 521 1279 541 1232 541 1178 C 541 1122 521 1074 483 1035 C 444 996 397 977 342 977 C 286 977 239 996 200 1036 C 160 1075 141 1122 141 1178 C 141 1232 160 1279 200 1318 C 239 1356 286 1376 342 1376 Z M 342 1057 C 374 1057 402 1068 426 1092 C 449 1116 461 1144 461 1178 C 461 1210 449 1238 426 1261 C 402 1284 374 1296 342 1296 C 309 1296 281 1284 257 1261 C 233 1237 221 1210 221 1178 C 221 1145 233 1117 257 1093 C 281 1069 309 1057 342 1057 Z" unicode="" />
<glyph horiz-adv-x="682" d="M 551 -354 C 493 -400 426 -424 352 -424 C 280 -424 221 -403 173 -362 C 125 -321 102 -267 102 -201 C 102 -130 130 -76 187 -39 C 243 -2 277 16 287 16 L 373 16 C 299 -24 262 -74 262 -133 C 262 -203 277 -255 307 -287 C 337 -319 387 -336 457 -336 C 474 -336 498 -334 530 -332 L 551 -354 Z" unicode="" />
<glyph horiz-adv-x="682" d="M 592 1282 C 626 1282 643 1259 643 1214 C 643 1170 625 1133 591 1101 C 556 1069 516 1053 471 1053 C 445 1053 418 1059 388 1071 C 358 1083 316 1111 262 1155 C 212 1196 177 1217 158 1217 C 146 1217 135 1213 125 1207 C 115 1201 111 1193 111 1184 C 111 1174 114 1161 121 1143 C 127 1124 131 1110 131 1102 C 131 1092 127 1083 119 1075 C 111 1067 102 1063 92 1063 C 75 1063 62 1071 52 1088 C 42 1104 37 1123 37 1145 C 37 1187 54 1223 90 1251 C 126 1279 165 1294 209 1294 C 231 1294 254 1288 280 1277 C 306 1266 342 1240 390 1200 C 446 1152 488 1128 516 1128 C 527 1128 538 1132 548 1140 C 558 1148 563 1157 563 1167 C 563 1175 560 1186 555 1201 C 549 1216 547 1227 547 1235 C 547 1266 562 1282 592 1282 Z" unicode="" />
<glyph horiz-adv-x="682" d="M 682 1384 L 426 969 L 387 989 L 584 1434 L 682 1384 Z M 438 1384 L 182 969 L 143 989 L 340 1434 L 438 1384 Z" unicode="" />
<glyph horiz-adv-x="1124" d="M 1085 309 C 1081 205 1056 122 1009 60 C 962 -1 906 -33 842 -33 C 789 -33 743 -2 703 58 C 663 119 644 213 644 340 C 644 368 644 394 646 420 C 647 445 649 469 651 492 L 686 821 L 455 821 C 415 405 382 157 356 78 C 330 0 287 -40 226 -40 C 200 -40 175 -29 152 -9 C 128 11 117 39 117 73 C 117 103 141 146 189 201 C 237 256 264 306 270 352 L 330 821 L 233 821 C 206 821 180 814 154 801 C 128 788 110 773 98 756 L 55 692 L 20 692 C 52 793 92 869 140 920 C 188 971 243 997 305 997 L 1069 997 L 1069 821 L 811 821 C 803 741 796 661 792 581 C 788 501 786 420 786 340 C 786 285 798 241 824 207 C 849 173 881 156 919 156 C 942 156 966 165 992 184 C 1018 203 1032 228 1036 259 C 1038 273 1039 285 1040 293 C 1041 301 1042 307 1042 309 L 1085 309 Z" unicode="" />
<glyph horiz-adv-x="1024" d="M 1036 451 L -12 451 L -12 582 L 1036 582 L 1036 451 Z" unicode="" />
<glyph horiz-adv-x="2048" d="M 2060 451 L -12 451 L -12 582 L 2060 582 L 2060 451 Z" unicode="" />
<glyph horiz-adv-x="555" d="M 457 1374 C 325 1309 260 1244 260 1178 C 260 1154 266 1137 278 1127 C 290 1117 309 1109 335 1101 C 365 1091 389 1079 405 1065 C 421 1050 430 1023 430 985 C 430 952 416 924 390 902 C 364 879 333 868 299 868 C 251 868 210 889 176 931 C 142 973 125 1019 125 1069 C 125 1219 230 1335 440 1419 L 457 1374 Z" unicode="" />
<glyph horiz-adv-x="555" d="M 98 842 C 229 906 295 972 295 1038 C 295 1062 288 1078 276 1088 C 264 1098 245 1107 220 1115 C 189 1124 165 1136 149 1151 C 133 1165 125 1192 125 1231 C 125 1263 138 1291 164 1314 C 190 1336 221 1348 256 1348 C 303 1348 344 1327 378 1285 C 412 1243 430 1197 430 1147 C 430 997 325 880 115 797 L 98 842 Z" unicode="" />
<glyph horiz-adv-x="555" d="M 98 -266 C 229 -201 295 -136 295 -70 C 295 -46 288 -29 276 -19 C 264 -9 245 -1 220 7 C 189 16 165 28 149 43 C 133 57 125 84 125 123 C 125 155 138 183 164 206 C 190 228 221 240 256 240 C 303 240 344 219 378 177 C 412 135 430 89 430 39 C 430 -111 325 -227 115 -311 L 98 -266 Z" unicode="" />
<glyph horiz-adv-x="981" d="M 467 1374 C 335 1309 270 1244 270 1178 C 270 1154 276 1137 288 1127 C 300 1117 319 1109 345 1101 C 376 1091 400 1079 416 1065 C 432 1050 440 1023 440 985 C 440 952 426 924 400 902 C 374 879 343 868 309 868 C 262 868 221 889 187 931 C 152 973 135 1019 135 1069 C 135 1219 240 1335 451 1419 L 467 1374 Z M 872 1374 C 741 1309 676 1244 676 1178 C 676 1154 682 1137 694 1127 C 706 1117 724 1109 750 1101 C 781 1091 805 1079 821 1065 C 837 1050 846 1023 846 985 C 846 952 832 924 806 902 C 780 879 749 868 715 868 C 667 868 626 889 592 931 C 558 973 541 1019 541 1069 C 541 1219 646 1335 856 1419 L 872 1374 Z" unicode="" />
<glyph horiz-adv-x="981" d="M 514 842 C 645 906 711 972 711 1038 C 711 1062 704 1078 692 1088 C 680 1098 661 1107 636 1115 C 604 1124 581 1136 565 1151 C 549 1165 541 1192 541 1231 C 541 1263 554 1291 580 1314 C 606 1336 637 1348 672 1348 C 718 1348 759 1327 794 1285 C 828 1243 846 1197 846 1147 C 846 997 740 880 530 797 L 514 842 Z M 109 842 C 239 906 305 972 305 1038 C 305 1062 299 1078 287 1088 C 275 1098 256 1107 231 1115 C 199 1124 175 1136 159 1151 C 143 1165 135 1192 135 1231 C 135 1263 148 1291 174 1314 C 200 1336 231 1348 266 1348 C 313 1348 354 1327 388 1285 C 422 1243 440 1197 440 1147 C 440 997 335 880 125 797 L 109 842 Z" unicode="" />
<glyph horiz-adv-x="981" d="M 514 -266 C 645 -201 711 -136 711 -70 C 711 -46 704 -29 692 -19 C 680 -9 661 -1 636 7 C 604 16 581 28 565 43 C 549 57 541 84 541 123 C 541 155 554 183 580 206 C 606 228 637 240 672 240 C 718 240 759 219 794 177 C 828 135 846 89 846 39 C 846 -111 740 -227 530 -311 L 514 -266 Z M 109 -266 C 239 -201 305 -136 305 -70 C 305 -46 299 -29 287 -19 C 275 -9 256 -1 231 7 C 199 16 175 28 159 43 C 143 57 135 84 135 123 C 135 155 148 183 174 206 C 200 228 231 240 266 240 C 313 240 354 219 388 177 C 422 135 440 89 440 39 C 440 -111 335 -227 125 -311 L 109 -266 Z" unicode="" />
<glyph horiz-adv-x="981" d="M 920 741 C 818 748 696 752 553 752 L 553 571 C 553 282 562 -31 580 -371 L 494 -367 C 473 -367 444 -368 408 -371 C 420 -207 426 55 426 418 C 426 572 425 683 424 752 C 303 750 182 745 61 739 C 61 746 61 757 63 771 C 65 785 66 796 66 803 C 66 819 64 843 61 874 C 143 868 264 864 422 862 C 415 1069 409 1225 403 1331 L 487 1327 L 573 1331 C 565 1226 558 1070 553 862 C 635 863 757 868 920 877 C 920 869 919 859 918 845 C 916 830 915 819 915 813 C 915 805 916 793 918 777 C 919 761 920 749 920 741 Z" unicode="" />
<glyph horiz-adv-x="981" d="M 920 221 C 914 189 911 163 911 145 C 911 130 913 110 918 86 C 796 92 675 96 557 98 L 578 -371 C 540 -368 510 -367 489 -367 C 469 -367 442 -368 408 -371 L 426 98 C 293 96 173 91 66 84 C 66 91 66 102 68 117 C 69 131 70 142 70 150 C 70 158 69 169 68 185 C 66 201 66 213 66 221 C 178 211 298 207 428 207 L 428 748 L 344 748 C 260 748 167 744 63 737 C 63 744 64 755 66 769 C 67 783 68 794 68 801 C 68 809 67 822 65 840 C 62 856 61 869 61 879 C 205 867 327 862 426 862 L 406 1331 L 487 1327 L 573 1331 L 551 862 C 665 862 787 867 918 879 C 914 845 913 819 913 801 C 913 786 914 765 918 739 C 784 746 663 750 555 750 L 555 207 C 691 209 812 213 920 221 Z" unicode="" />
<glyph horiz-adv-x="717" d="M 358 963 C 436 963 503 934 559 878 C 615 822 643 754 643 676 C 643 597 615 530 560 474 C 504 418 437 391 358 391 C 279 391 212 418 156 474 C 100 530 72 597 72 676 C 72 754 100 822 156 878 C 212 934 280 963 358 963 Z" unicode="" />
<glyph horiz-adv-x="2048" d="M 1702 266 C 1744 266 1779 251 1809 223 C 1838 195 1853 160 1853 119 C 1853 78 1838 43 1809 15 C 1780 -12 1746 -27 1706 -27 C 1666 -27 1631 -12 1603 16 C 1575 45 1561 80 1561 121 C 1561 159 1574 193 1602 222 C 1630 251 1663 266 1702 266 Z M 1018 266 C 1060 266 1095 251 1125 223 C 1154 195 1169 160 1169 119 C 1169 78 1154 43 1125 15 C 1096 -12 1062 -27 1022 -27 C 982 -27 947 -12 919 16 C 891 45 877 80 877 121 C 877 160 890 194 918 223 C 946 251 979 266 1018 266 Z M 334 266 C 376 266 411 251 441 223 C 470 195 485 160 485 119 C 485 78 470 43 441 15 C 412 -12 378 -27 338 -27 C 298 -27 263 -12 235 16 C 207 45 193 80 193 121 C 193 160 206 194 234 223 C 262 251 295 266 334 266 Z" unicode="" />
<glyph horiz-adv-x="2241" d="M 1120 1425 L 475 -63 L 367 -63 L 1014 1425 L 1120 1425 Z M 360 1380 C 458 1380 537 1349 597 1289 C 657 1229 688 1150 688 1053 C 688 955 656 872 593 805 C 529 738 449 705 352 705 C 259 705 183 735 125 797 C 66 859 37 937 37 1032 C 37 1128 67 1210 129 1278 C 191 1346 268 1380 360 1380 Z M 367 762 C 417 762 455 789 482 844 C 508 899 522 968 522 1051 C 522 1232 473 1323 375 1323 C 260 1323 203 1227 203 1036 C 203 853 257 762 367 762 Z M 1878 649 C 1975 649 2054 618 2115 558 C 2175 498 2206 419 2206 322 C 2206 224 2174 141 2110 74 C 2046 6 1966 -27 1870 -27 C 1777 -27 1701 4 1642 66 C 1583 128 1554 206 1554 301 C 1554 397 1584 479 1646 547 C 1708 615 1785 649 1878 649 Z M 1884 31 C 1934 31 1973 58 2000 113 C 2026 168 2040 237 2040 319 C 2040 501 1990 592 1892 592 C 1777 592 1720 496 1720 305 C 1720 122 1774 31 1884 31 Z M 1114 649 C 1212 649 1291 618 1351 558 C 1411 498 1442 419 1442 322 C 1442 224 1410 141 1346 74 C 1282 6 1202 -27 1106 -27 C 1013 -27 937 4 879 66 C 820 128 791 206 791 301 C 791 397 821 479 883 547 C 944 615 1021 649 1114 649 Z M 1120 31 C 1170 31 1209 58 1236 113 C 1262 168 1276 237 1276 319 C 1276 501 1226 592 1128 592 C 1013 592 956 496 956 305 C 956 122 1010 31 1120 31 Z" unicode="" />
<glyph horiz-adv-x="555" d="M 463 174 L 426 152 L 94 457 L 428 764 L 463 739 L 276 461 L 463 174 Z" unicode="" />
<glyph horiz-adv-x="555" d="M 461 459 L 127 152 L 92 176 L 279 455 L 92 741 L 129 764 L 461 459 Z" unicode="" />
<glyph horiz-adv-x="1096" d="M 150 519 L 18 519 L 24 582 L 143 582 C 142 596 142 612 142 630 C 142 660 143 687 146 710 L 30 710 L 37 773 L 154 773 C 178 912 240 1039 339 1155 C 437 1270 555 1328 691 1328 C 756 1328 837 1310 934 1274 C 978 1258 1010 1248 1031 1246 C 1031 1166 1034 1067 1041 948 L 986 942 C 967 1054 930 1135 874 1185 C 818 1235 757 1261 693 1261 C 601 1261 526 1219 468 1135 C 409 1051 371 931 354 773 L 800 773 L 793 710 L 350 710 C 349 697 349 686 349 676 C 349 644 350 612 353 582 L 781 582 L 774 519 L 361 519 C 384 373 427 257 491 171 C 554 84 627 41 709 41 C 852 41 946 149 991 365 L 1045 355 C 1029 252 1022 157 1022 70 C 1013 68 999 62 981 52 C 883 2 788 -23 698 -23 C 560 -23 439 29 336 135 C 232 240 170 368 150 519 Z" unicode="" />
<glyph horiz-adv-x="2048" d="M 2054 520 L 1593 520 L 1593 555 C 1643 555 1675 564 1688 580 C 1701 596 1708 630 1708 684 L 1708 1190 L 1704 1190 L 1389 520 L 1364 520 L 1051 1190 L 1047 1190 L 1047 672 C 1047 624 1053 592 1067 578 C 1081 564 1112 556 1161 555 L 1161 520 L 881 520 L 881 555 C 931 557 962 566 973 582 C 983 598 989 634 989 690 L 989 1157 C 989 1210 983 1245 972 1263 C 961 1281 931 1290 881 1290 L 881 1327 L 1247 1327 L 1479 831 L 1708 1327 L 2054 1327 L 2054 1290 C 2010 1290 1983 1281 1971 1264 C 1959 1247 1954 1216 1954 1171 L 1954 670 C 1954 627 1960 598 1972 582 C 1984 566 2012 557 2054 555 L 2054 520 Z M 770 1102 L 735 1102 C 731 1218 666 1276 541 1276 L 504 1276 L 504 688 C 504 632 509 595 521 579 C 532 563 560 555 606 555 L 606 520 L 152 520 L 152 555 C 186 557 211 561 225 569 C 239 576 247 587 250 602 C 252 616 254 646 254 692 L 254 1276 L 221 1276 C 156 1276 108 1262 78 1234 C 47 1206 29 1162 25 1102 L -6 1102 L -6 1327 L 770 1327 L 770 1102 Z" unicode="" />
<glyph horiz-adv-x="1573" d="M 1506 0 L 902 0 L 935 311 C 1042 350 1117 417 1161 511 C 1204 605 1226 709 1226 824 C 1226 975 1190 1099 1119 1197 C 1047 1294 937 1343 788 1343 C 638 1343 528 1294 457 1197 C 385 1099 350 975 350 824 C 350 709 371 605 415 511 C 458 417 533 350 641 311 L 674 0 L 70 0 L 70 332 L 100 332 C 110 288 124 256 140 236 C 156 216 188 207 236 207 L 559 207 L 555 264 C 396 307 282 381 214 485 C 145 589 111 699 111 817 C 111 989 175 1131 303 1242 C 431 1353 592 1409 788 1409 C 983 1409 1145 1353 1273 1242 C 1401 1131 1465 989 1465 817 C 1465 699 1430 589 1362 485 C 1293 381 1179 307 1021 264 L 1017 207 L 1340 207 C 1388 207 1420 216 1436 236 C 1452 256 1465 288 1476 332 L 1506 332 L 1506 0 Z" unicode="" />
<glyph horiz-adv-x="1012" d="M 295 1120 L 250 1120 C 337 1322 463 1423 629 1423 C 736 1423 824 1380 892 1296 C 960 1211 995 1086 995 920 C 995 681 940 463 830 265 C 720 67 578 -31 403 -31 C 299 -31 217 0 157 60 C 96 120 66 202 66 305 C 66 464 121 604 232 725 C 343 846 471 907 616 907 C 764 907 868 843 928 717 L 932 717 C 938 813 942 875 942 903 C 942 1019 911 1111 849 1179 C 787 1246 703 1280 596 1280 C 466 1280 366 1226 295 1120 Z M 911 629 C 857 779 762 854 627 854 C 508 854 413 790 341 663 C 269 536 233 403 233 264 C 233 192 251 134 287 91 C 323 48 370 27 430 27 C 520 27 613 81 709 189 C 805 297 872 444 911 629 Z" unicode="" />
<glyph horiz-adv-x="1253" d="M 668 1409 L 1245 0 L 12 0 L 668 1409 Z M 594 1059 L 147 100 L 991 100 L 594 1059 Z" unicode="" />
<glyph horiz-adv-x="1686" d="M 1645 -207 L 1016 -207 L 1016 -160 C 1096 -160 1149 -146 1175 -119 C 1201 -91 1215 -50 1215 6 L 1215 1425 L 481 1425 L 481 6 C 481 -50 494 -91 520 -119 C 546 -146 600 -160 680 -160 L 680 -207 L 51 -207 L 51 -160 C 132 -160 185 -146 211 -119 C 237 -91 250 -50 250 6 L 250 1288 C 250 1355 233 1406 201 1440 C 169 1474 120 1491 55 1491 L 55 1538 L 1641 1538 L 1641 1491 C 1575 1491 1526 1474 1494 1440 C 1462 1406 1446 1355 1446 1288 L 1446 6 C 1446 -50 1458 -91 1484 -119 C 1510 -146 1563 -160 1645 -160 L 1645 -207 Z" unicode="" />
<glyph horiz-adv-x="1460" d="M 1423 238 C 1401 154 1383 74 1369 -2 C 1354 -78 1343 -151 1335 -221 C 1293 -213 1258 -208 1232 -204 C 1206 -200 1188 -199 1178 -199 L 147 -199 C 133 -199 114 -200 88 -202 C 62 -204 42 -205 29 -205 L 743 610 L 33 1540 C 79 1535 120 1531 156 1529 C 191 1527 221 1526 246 1526 L 1264 1526 L 1276 1200 L 1235 1200 C 1214 1268 1196 1315 1182 1341 C 1168 1367 1141 1389 1101 1407 C 1081 1415 1056 1422 1026 1427 C 996 1431 962 1434 922 1434 L 383 1434 L 942 700 L 340 6 L 1100 6 C 1184 6 1243 23 1277 58 C 1311 92 1344 152 1376 238 L 1423 238 Z" unicode="" />
<glyph horiz-adv-x="1366" d="M 1231 588 L 135 588 L 135 745 L 1231 745 L 1231 588 Z" unicode="" />
<glyph horiz-adv-x="426" d="M 733 1380 L -176 -35 L -309 -35 L 598 1380 L 733 1380 Z" unicode="" />
<glyph horiz-adv-x="555" d="M 272 799 C 314 799 350 784 380 756 C 409 727 424 692 424 651 C 424 610 409 576 380 548 C 351 520 316 506 276 506 C 236 506 201 520 173 549 C 145 578 131 613 131 653 C 131 692 144 726 172 755 C 200 784 233 799 272 799 Z" unicode="" />
<glyph horiz-adv-x="1124" d="M 1055 1868 L 748 -78 L 250 950 L 53 854 L 20 922 L 319 1069 L 723 244 L 983 1878 L 1055 1868 Z" unicode="" />
<glyph horiz-adv-x="1460" d="M 653 668 C 700 780 753 854 812 890 C 870 926 941 944 1024 944 C 1131 944 1222 905 1296 827 C 1370 749 1407 649 1407 526 C 1407 402 1369 301 1295 223 C 1221 145 1141 106 1057 106 C 993 106 936 127 886 169 C 836 211 781 285 721 393 C 643 237 535 160 397 160 C 297 160 215 194 150 264 C 85 334 53 422 53 528 C 53 632 82 720 142 790 C 201 860 274 895 360 895 C 413 895 463 881 509 853 C 555 825 603 763 653 668 Z M 750 465 C 792 373 837 306 884 264 C 931 222 990 201 1061 201 C 1145 201 1214 231 1268 292 C 1322 352 1350 430 1350 526 C 1350 619 1322 699 1266 766 C 1210 832 1143 866 1067 866 C 1030 866 997 858 969 844 C 941 830 916 809 895 782 C 873 755 852 716 831 666 L 750 465 Z M 614 557 L 625 590 C 561 733 472 805 358 805 C 284 805 224 779 178 728 C 132 677 109 611 109 530 C 109 448 131 378 175 322 C 219 266 274 238 338 238 C 392 238 442 259 487 303 C 532 346 574 431 614 557 Z" unicode="" />
<glyph horiz-adv-x="561" d="M 602 1760 C 602 1734 592 1712 572 1696 C 552 1679 527 1671 497 1671 C 472 1671 452 1679 437 1696 C 421 1712 407 1721 393 1721 C 381 1721 371 1716 365 1706 C 359 1696 356 1682 356 1663 C 356 1640 362 1555 375 1407 C 388 1259 395 1075 395 856 C 395 519 385 282 365 146 C 345 10 318 -84 286 -136 C 268 -163 246 -184 218 -198 C 190 -212 162 -219 133 -219 C 100 -219 71 -207 47 -184 C 22 -160 10 -132 10 -99 C 10 -73 18 -52 35 -34 C 52 -16 74 -7 100 -7 C 122 -7 144 -18 165 -40 C 186 -62 201 -73 210 -73 C 226 -73 239 -58 249 -28 C 259 1 264 52 264 125 C 264 149 262 215 258 322 C 254 428 252 616 252 884 C 252 1204 257 1417 269 1522 C 280 1627 294 1699 310 1738 C 329 1784 352 1819 379 1842 C 405 1864 433 1876 463 1876 C 501 1876 533 1865 561 1843 C 588 1821 602 1794 602 1760 Z" unicode="" />
<glyph horiz-adv-x="1124" d="M 1022 874 L 1073 874 C 1059 770 1027 691 977 636 C 927 580 865 553 791 553 C 726 553 625 592 487 670 C 394 722 324 748 276 748 C 176 748 117 685 98 561 L 51 561 C 64 663 95 743 144 799 C 193 855 254 883 326 883 C 357 883 393 876 433 863 C 473 850 547 814 657 756 C 735 714 800 694 850 694 C 946 694 1003 754 1022 874 Z M 1022 487 L 1073 487 C 1059 383 1027 304 977 249 C 927 193 865 166 791 166 C 727 166 637 198 522 263 C 407 327 325 360 276 360 C 176 360 117 298 98 174 L 51 174 C 64 276 95 354 144 410 C 193 466 254 494 326 494 C 357 494 394 486 438 472 C 481 458 554 423 657 369 C 735 327 800 307 850 307 C 946 307 1003 367 1022 487 Z" unicode="" />
<glyph horiz-adv-x="1124" d="M 1106 279 L 485 279 L 301 -51 L 201 6 L 352 279 L 31 279 L 31 391 L 416 391 L 573 676 L 31 676 L 31 788 L 637 788 L 823 1124 L 924 1067 L 768 788 L 1106 788 L 1106 676 L 707 676 L 547 391 L 1106 391 L 1106 279 Z" unicode="" />
<glyph horiz-adv-x="1124" d="M 1077 240 L 59 711 L 59 838 L 1077 1309 L 1077 1182 L 190 774 L 1077 367 L 1077 240 Z M 1077 0 L 59 0 L 59 112 L 1077 112 L 1077 0 Z" unicode="" />
<glyph horiz-adv-x="1124" d="M 1077 711 L 59 240 L 59 367 L 946 774 L 59 1182 L 59 1309 L 1077 838 L 1077 711 Z M 1077 0 L 59 0 L 59 112 L 1077 112 L 1077 0 Z" unicode="" />
<glyph horiz-adv-x="1012" d="M 962 763 L 565 0 L 443 0 L 46 763 L 443 1526 L 565 1526 L 962 763 Z M 839 763 L 504 1415 L 169 763 L 504 111 L 839 763 Z" unicode="" />
<glyph horiz-adv-x="1618" d="M 1123 1617 C 1123 1574 1113 1527 1093 1477 C 1073 1426 1041 1379 998 1336 C 968 1306 937 1284 906 1270 C 874 1256 833 1247 781 1245 C 782 1346 808 1434 860 1508 C 912 1582 997 1632 1117 1660 C 1119 1651 1121 1643 1122 1637 C 1122 1630 1123 1623 1123 1617 Z M 1509 414 C 1496 372 1479 330 1458 288 C 1437 245 1412 201 1383 157 C 1339 89 1295 39 1251 6 C 1207 -27 1163 -44 1119 -44 C 1084 -44 1036 -33 975 -11 C 914 11 863 22 821 22 C 779 22 730 10 674 -12 C 618 -35 573 -47 539 -47 C 487 -47 435 -24 384 19 C 332 63 281 130 231 219 C 181 306 143 393 118 479 C 92 565 80 650 80 735 C 80 891 118 1019 195 1118 C 272 1216 369 1266 487 1266 C 537 1266 597 1255 668 1235 C 739 1214 786 1204 810 1204 C 840 1204 889 1215 957 1239 C 1025 1262 1084 1274 1134 1274 C 1198 1274 1257 1260 1310 1233 C 1362 1206 1412 1163 1460 1105 C 1386 1042 1336 984 1312 932 C 1288 880 1276 826 1276 772 C 1276 687 1299 611 1347 543 C 1394 475 1448 432 1509 414 Z" unicode="" />
<glyph horiz-adv-x="1087" d="M 1044 -4 C 954 -1 885 0 836 0 C 732 0 658 -1 612 -4 L 612 45 C 687 48 725 60 725 80 L 725 680 C 725 704 716 723 700 737 C 684 751 662 758 635 758 L 381 758 L 381 117 C 381 93 385 76 395 66 C 405 56 420 51 442 50 C 464 48 488 47 514 47 L 514 -4 C 466 -1 388 0 281 0 C 176 0 100 -1 53 -4 L 53 47 L 133 47 C 145 47 154 51 161 59 C 168 66 172 83 172 111 L 172 758 L 53 758 L 53 793 L 172 866 L 172 934 C 172 1089 220 1218 316 1322 C 412 1425 538 1477 692 1477 C 764 1477 825 1463 874 1436 C 923 1409 948 1371 948 1321 C 948 1291 937 1267 917 1249 C 896 1230 871 1221 842 1221 C 808 1221 786 1227 774 1241 C 762 1255 753 1276 745 1304 C 735 1336 722 1361 706 1379 C 689 1396 656 1405 608 1405 C 536 1405 481 1375 441 1317 C 401 1258 381 1185 381 1098 L 381 848 L 823 848 C 835 848 863 866 907 903 L 942 885 C 936 850 934 823 934 805 L 934 94 C 934 72 941 58 957 54 C 972 49 1001 47 1044 47 L 1044 -4 Z" unicode="" />
<glyph horiz-adv-x="1087" d="M 1049 -4 C 955 -1 883 0 831 0 C 779 0 705 -1 610 -4 L 610 47 C 652 47 681 50 699 57 C 716 63 725 80 725 106 L 725 1319 C 683 1368 632 1393 573 1393 C 511 1393 464 1367 431 1317 C 397 1266 381 1200 381 1120 L 381 848 L 625 848 L 625 758 L 381 758 L 381 96 C 381 74 390 60 410 55 C 429 49 463 47 512 47 L 512 -4 C 416 -1 342 0 289 0 C 184 0 108 -1 61 -4 L 61 47 C 100 47 125 47 135 49 C 145 50 153 56 161 66 C 168 76 172 93 172 117 L 172 758 L 63 758 L 63 795 L 172 862 L 172 930 C 172 1030 194 1122 238 1206 C 282 1290 344 1356 423 1404 C 502 1452 581 1477 659 1477 C 717 1477 784 1461 862 1430 L 907 1477 L 940 1462 C 940 1452 939 1437 937 1417 C 935 1397 934 1382 934 1372 L 934 92 C 934 71 942 58 960 54 C 977 49 1007 47 1049 47 L 1049 -4 Z" unicode="" />
</font>
</defs>
</svg>
