<?xml version="1.0" encoding="utf-8" ?><svg version="1.1" xmlns = 'http://www.w3.org/2000/svg'><defs><font id='web' horiz-adv-x="1000">
<font-face font-family="web" descent="-512" cap-height="1413" units-per-em="2048" bbox="-236,-522,2732,1913" x-height="997" ascent="1536" />
<missing-glyph horiz-adv-x="0" d="" /><glyph horiz-adv-x="412" d="" unicode=" " />
<glyph horiz-adv-x="418" d="M 143 1503 L 274 1503 C 274 1499 273 1479 273 1445 C 272 1410 271 1366 270 1312 C 268 1258 267 1196 265 1128 C 263 1060 261 991 259 922 C 257 852 255 783 253 716 C 251 649 249 590 248 538 C 246 485 245 442 244 410 C 242 378 242 361 242 360 L 178 360 C 178 361 177 378 176 410 C 174 442 173 485 172 538 C 170 590 169 649 167 716 C 165 783 163 852 161 922 C 159 991 157 1060 155 1128 C 153 1196 150 1258 148 1312 C 146 1366 144 1410 144 1445 C 143 1479 143 1499 143 1503 Z M 209 -27 C 184 -27 163 -18 146 -1 C 129 16 121 36 121 59 C 121 83 129 104 146 121 C 163 138 184 147 209 147 C 233 147 254 138 271 121 C 288 104 297 83 297 59 C 297 36 288 16 271 -1 C 254 -18 233 -27 209 -27 Z" unicode="!" />
<glyph horiz-adv-x="569" d="M 449 1067 L 367 1067 L 340 1495 L 475 1495 L 449 1067 Z M 203 1067 L 121 1067 L 94 1495 L 227 1495 L 203 1067 Z" unicode="&#x22;" />
<glyph horiz-adv-x="1321" d="M 475 909 L 369 506 L 811 506 L 918 909 L 475 909 Z M 1145 1413 L 1032 989 L 1288 989 L 1268 909 L 1010 909 L 903 506 L 1159 506 L 1137 424 L 883 424 L 770 0 L 678 0 L 788 424 L 346 424 L 236 0 L 141 0 L 252 424 L 0 424 L 23 506 L 274 506 L 381 909 L 127 909 L 150 989 L 401 989 L 514 1413 L 608 1413 L 496 989 L 938 989 L 1051 1413 L 1145 1413 Z" unicode="#" />
<glyph horiz-adv-x="1325" d="M 580 1346 C 489 1340 415 1317 358 1277 C 300 1237 272 1174 272 1090 C 272 1047 279 1010 295 980 C 311 949 332 922 360 899 C 387 875 419 855 457 838 C 495 821 536 805 580 791 L 580 1346 Z M 653 82 C 767 87 855 115 915 165 C 975 215 1006 280 1006 360 C 1006 406 996 446 977 478 C 957 510 931 537 899 560 C 866 582 828 602 786 618 C 744 634 699 650 653 666 L 653 82 Z M 580 -209 L 580 -2 C 484 3 399 25 325 65 C 251 105 197 162 162 238 C 155 250 150 262 147 275 C 144 288 143 300 143 311 C 143 325 147 337 157 349 C 167 361 182 367 203 367 C 215 367 224 364 232 359 C 240 354 246 347 251 339 C 255 330 259 320 263 308 C 266 296 270 284 276 270 C 288 236 305 207 326 184 C 347 161 371 142 398 128 C 424 113 453 102 484 95 C 514 87 546 83 580 82 L 580 688 C 526 706 475 725 427 746 C 378 767 335 793 298 823 C 260 853 230 888 208 930 C 185 972 174 1023 174 1083 C 174 1137 183 1186 203 1228 C 223 1270 251 1306 287 1335 C 322 1363 364 1385 414 1401 C 464 1417 519 1426 580 1430 L 580 1630 L 653 1630 L 653 1430 C 737 1425 815 1407 886 1375 C 957 1343 1008 1293 1040 1225 C 1048 1209 1053 1195 1057 1183 C 1061 1170 1063 1159 1063 1149 C 1063 1133 1058 1120 1050 1108 C 1042 1096 1027 1090 1006 1090 C 978 1090 961 1100 953 1121 C 945 1142 937 1164 928 1188 C 903 1246 866 1286 817 1308 C 767 1330 713 1342 653 1346 L 653 766 C 707 748 762 729 816 710 C 870 691 918 667 962 638 C 1004 608 1039 572 1066 530 C 1092 488 1106 435 1106 373 C 1106 319 1095 270 1075 224 C 1054 178 1024 139 986 105 C 947 71 900 45 844 26 C 788 7 724 -2 653 -4 L 653 -209 L 580 -209 Z" unicode="$" />
<glyph horiz-adv-x="1985" d="M 178 678 C 146 714 122 760 105 814 C 88 868 80 929 80 998 C 80 1067 88 1129 106 1183 C 124 1237 148 1282 180 1319 C 211 1355 248 1384 292 1404 C 336 1424 384 1434 436 1434 C 486 1434 533 1424 577 1404 C 621 1384 658 1355 689 1319 C 719 1282 743 1237 761 1183 C 779 1129 788 1067 788 998 C 788 929 779 868 761 814 C 743 760 719 714 688 678 C 656 641 619 613 575 593 C 531 573 484 563 432 563 C 380 563 332 573 289 593 C 246 613 209 641 178 678 Z M 245 1271 C 221 1241 201 1204 187 1159 C 173 1114 166 1061 166 1000 C 166 938 173 884 187 839 C 201 794 221 756 245 726 C 269 695 297 672 330 657 C 362 642 397 635 434 635 C 470 635 505 642 538 657 C 571 672 600 695 624 726 C 647 756 666 794 680 839 C 694 884 702 938 702 1000 C 702 1061 694 1114 680 1159 C 666 1204 647 1241 623 1271 C 598 1300 569 1322 536 1337 C 503 1352 468 1360 432 1360 C 395 1360 361 1352 329 1337 C 297 1322 269 1300 245 1271 Z M 1294 90 C 1262 126 1238 172 1221 226 C 1204 280 1196 341 1196 410 C 1196 479 1204 541 1222 595 C 1240 649 1264 694 1296 731 C 1327 767 1364 796 1408 816 C 1452 836 1500 846 1552 846 C 1602 846 1649 836 1693 816 C 1737 796 1774 767 1805 731 C 1835 694 1859 649 1877 595 C 1895 541 1904 479 1904 410 C 1904 341 1895 280 1877 226 C 1859 172 1835 126 1804 90 C 1772 53 1735 25 1691 5 C 1647 -15 1600 -25 1548 -25 C 1496 -25 1448 -15 1405 5 C 1362 25 1325 53 1294 90 Z M 1361 683 C 1337 653 1317 616 1303 571 C 1289 526 1282 473 1282 412 C 1282 350 1289 296 1303 251 C 1317 206 1337 168 1361 138 C 1385 107 1413 84 1446 69 C 1478 54 1513 47 1550 47 C 1586 47 1621 54 1654 69 C 1687 84 1716 107 1740 138 C 1763 168 1782 206 1796 251 C 1810 296 1818 350 1818 412 C 1818 473 1810 526 1796 571 C 1782 616 1763 653 1739 683 C 1714 712 1685 734 1652 749 C 1619 764 1584 772 1548 772 C 1511 772 1477 764 1445 749 C 1413 734 1385 712 1361 683 Z M 1358 1415 L 692 0 L 602 0 L 1268 1415 L 1358 1415 Z" unicode="%" />
<glyph horiz-adv-x="1507" d="M 594 1368 C 528 1368 476 1350 437 1314 C 398 1278 379 1224 379 1153 C 379 1107 386 1057 402 1002 C 418 947 440 889 469 827 C 511 853 551 878 590 904 C 629 929 664 956 694 985 C 724 1013 748 1044 766 1077 C 784 1109 793 1146 793 1186 C 793 1239 776 1283 742 1317 C 708 1351 659 1368 594 1368 Z M 260 119 C 291 94 328 75 371 63 C 414 51 461 45 512 45 C 596 45 666 60 721 90 C 775 120 821 159 858 207 C 769 273 688 349 616 435 C 544 520 482 608 430 698 C 393 674 358 648 325 622 C 292 595 264 567 240 538 C 215 508 195 476 181 441 C 167 406 160 368 160 328 C 160 282 168 242 186 208 C 204 173 228 143 260 119 Z M 909 283 C 941 341 970 404 994 471 C 1018 537 1043 601 1071 662 C 1086 693 1102 722 1120 748 C 1138 774 1158 797 1181 817 C 1203 836 1228 851 1258 862 C 1288 873 1322 879 1360 879 C 1387 879 1413 874 1438 864 C 1462 854 1475 837 1475 811 C 1475 791 1469 777 1458 767 C 1447 757 1433 752 1417 752 C 1398 752 1376 755 1350 761 C 1324 767 1298 766 1274 760 C 1237 747 1207 723 1183 687 C 1159 651 1137 607 1117 557 C 1097 506 1077 452 1057 395 C 1037 337 1013 282 983 229 C 1054 183 1128 146 1205 118 C 1282 90 1362 75 1446 74 L 1446 -4 C 1356 -8 1268 4 1182 33 C 1096 61 1013 102 934 154 C 891 96 836 49 769 13 C 701 -22 614 -41 508 -41 C 442 -41 382 -33 328 -17 C 273 -1 225 21 185 53 C 145 84 113 122 91 168 C 68 213 57 266 57 326 C 57 379 66 427 85 471 C 103 515 128 555 159 591 C 189 627 224 660 264 690 C 304 720 345 748 389 776 C 355 846 328 912 310 976 C 292 1039 283 1097 283 1149 C 283 1240 310 1313 366 1368 C 421 1422 498 1450 598 1450 C 684 1450 754 1427 810 1381 C 865 1335 893 1272 893 1192 C 893 1140 881 1093 859 1052 C 836 1011 807 973 772 939 C 736 904 695 872 649 842 C 603 812 556 782 510 752 C 556 667 613 584 681 503 C 748 421 824 348 909 283 Z" unicode="&#x26;" />
<glyph horiz-adv-x="324" d="M 203 1067 L 121 1067 L 94 1495 L 227 1495 L 203 1067 Z" unicode="'" />
<glyph horiz-adv-x="653" d="M 557 1423 L 582 1368 C 448 1300 347 1202 280 1074 C 213 946 180 777 180 565 C 180 353 213 184 280 56 C 347 -71 448 -169 582 -238 L 557 -293 C 487 -269 424 -234 366 -188 C 308 -142 257 -83 214 -12 C 171 58 138 141 114 237 C 90 333 78 442 78 565 C 78 688 90 797 114 893 C 138 988 171 1071 214 1143 C 257 1213 308 1272 366 1319 C 424 1365 487 1400 557 1423 Z" unicode="(" />
<glyph horiz-adv-x="653" d="M 96 1423 L 71 1368 C 205 1300 305 1202 372 1074 C 439 946 473 777 473 565 C 473 353 439 184 372 56 C 305 -71 205 -169 71 -238 L 96 -293 C 165 -269 229 -234 287 -188 C 345 -142 395 -83 439 -12 C 481 58 515 141 539 237 C 563 333 575 442 575 565 C 575 688 563 797 539 893 C 515 988 481 1071 439 1143 C 395 1213 345 1272 287 1319 C 229 1365 165 1400 96 1423 Z" unicode=")" />
<glyph horiz-adv-x="940" d="M 469 1063 L 270 782 L 190 834 L 408 1106 L 94 1198 L 115 1282 L 428 1176 L 420 1507 L 520 1507 L 510 1178 L 821 1282 L 846 1198 L 530 1106 L 750 834 L 670 782 L 469 1063 Z" unicode="*" />
<glyph horiz-adv-x="967" d="M 438 1014 L 528 1014 L 528 674 L 864 674 L 864 596 L 528 596 L 528 252 L 438 252 L 438 596 L 102 596 L 102 674 L 438 674 L 438 1014 Z" unicode="+" />
<glyph horiz-adv-x="418" d="M 156 -270 L 125 -233 C 155 -206 178 -174 194 -136 C 210 -98 220 -62 223 -27 C 194 -31 170 -23 150 -5 C 130 13 121 35 121 59 C 121 83 129 104 147 120 C 165 136 185 145 209 145 C 235 145 256 135 272 117 C 288 99 297 75 297 45 C 297 -21 284 -83 259 -140 C 233 -196 199 -240 156 -270 Z" unicode="," />
<glyph horiz-adv-x="756" d="M 102 678 L 653 678 L 653 596 L 102 596 L 102 678 Z" unicode="-" />
<glyph horiz-adv-x="416" d="M 209 -27 C 184 -27 163 -18 145 -1 C 127 16 119 36 119 59 C 119 83 127 104 145 121 C 163 138 184 147 209 147 C 233 147 254 138 271 121 C 288 104 297 83 297 59 C 297 36 288 16 271 -1 C 254 -18 233 -27 209 -27 Z" unicode="." />
<glyph horiz-adv-x="764" d="M 827 1556 L -10 -342 L -109 -342 L 729 1556 L 827 1556 Z" unicode="/" />
<glyph horiz-adv-x="1407" d="M 292 154 C 240 218 200 296 172 388 C 143 480 129 585 129 705 C 129 823 143 929 172 1021 C 200 1113 240 1190 292 1254 C 343 1318 404 1366 474 1400 C 544 1433 620 1450 702 1450 C 785 1450 862 1433 932 1400 C 1002 1366 1063 1318 1115 1254 C 1166 1190 1206 1113 1235 1021 C 1263 929 1278 823 1278 705 C 1278 585 1263 480 1234 388 C 1204 296 1164 218 1113 154 C 1061 89 1000 40 930 7 C 860 -26 784 -43 702 -43 C 619 -43 543 -26 473 7 C 403 40 343 89 292 154 Z M 375 1198 C 332 1143 298 1075 274 993 C 250 911 238 815 238 705 C 238 594 250 498 274 416 C 298 334 332 266 375 212 C 417 158 466 117 522 90 C 578 62 638 49 702 49 C 765 49 825 62 882 90 C 938 117 988 158 1031 212 C 1074 266 1108 334 1132 416 C 1156 498 1169 594 1169 705 C 1169 815 1156 911 1132 993 C 1108 1075 1074 1143 1031 1198 C 988 1252 938 1293 882 1320 C 825 1346 765 1360 702 1360 C 638 1360 578 1346 522 1320 C 466 1293 417 1252 375 1198 Z" unicode="0" />
<glyph horiz-adv-x="907" d="M 121 61 L 393 82 L 393 1280 L 117 1075 L 80 1120 L 440 1446 L 500 1430 L 500 82 L 786 61 L 786 0 L 121 0 L 121 61 Z" unicode="1" />
<glyph horiz-adv-x="1233" d="M 940 790 C 906 748 862 706 810 666 C 757 626 694 583 621 539 C 547 493 486 451 439 411 C 392 371 354 333 326 297 C 297 260 275 224 261 189 C 247 154 235 119 227 84 L 942 84 L 1079 483 L 1135 471 L 1030 0 L 117 0 L 117 29 C 117 90 130 149 158 206 C 185 262 220 316 263 366 C 306 415 355 461 410 503 C 464 545 519 583 575 616 C 633 650 684 684 729 718 C 774 751 812 785 842 821 C 872 856 894 893 910 932 C 926 971 934 1014 934 1061 C 934 1151 905 1224 849 1280 C 792 1336 706 1364 590 1364 C 526 1364 469 1352 420 1330 C 370 1307 329 1276 297 1237 C 264 1197 240 1151 225 1097 C 210 1043 205 984 211 922 L 139 915 C 127 985 127 1052 141 1116 C 155 1180 181 1236 220 1286 C 259 1335 310 1375 372 1405 C 434 1435 508 1450 594 1450 C 668 1450 732 1440 788 1421 C 844 1402 891 1375 929 1340 C 966 1305 994 1264 1012 1216 C 1030 1168 1040 1117 1040 1061 C 1040 1009 1031 961 1015 917 C 999 873 974 831 940 790 Z" unicode="2" />
<glyph horiz-adv-x="1171" d="M 950 78 C 909 39 860 9 802 -11 C 744 -32 678 -43 604 -43 C 540 -43 483 -36 435 -24 C 386 -12 344 4 309 25 C 273 45 243 67 219 93 C 194 118 174 144 160 170 C 148 188 140 205 134 222 C 128 239 125 255 125 270 C 125 288 129 303 138 315 C 147 327 162 334 182 334 C 209 334 225 323 231 303 C 237 282 244 259 252 233 C 272 171 314 125 378 93 C 441 61 514 45 596 45 C 654 45 707 53 754 70 C 801 87 840 110 872 140 C 904 169 928 204 945 246 C 962 288 971 333 971 383 C 971 488 933 567 857 621 C 781 675 678 703 549 707 L 412 709 L 412 786 L 549 791 C 607 792 659 800 703 816 C 747 832 785 853 815 880 C 845 906 867 937 882 972 C 897 1006 905 1044 905 1085 C 905 1123 897 1160 883 1194 C 869 1228 847 1257 819 1283 C 790 1308 754 1328 712 1342 C 670 1356 620 1364 563 1364 C 477 1364 404 1344 346 1304 C 287 1264 242 1198 211 1106 L 139 1122 C 159 1224 207 1305 282 1363 C 357 1421 456 1450 578 1450 C 648 1450 711 1440 765 1421 C 819 1402 864 1376 900 1343 C 936 1310 963 1272 982 1229 C 1000 1186 1010 1141 1010 1094 C 1010 1025 989 960 949 898 C 909 836 846 788 762 756 C 860 732 937 690 993 628 C 1049 566 1077 485 1077 385 C 1077 323 1066 266 1044 214 C 1022 161 991 116 950 78 Z" unicode="3" />
<glyph horiz-adv-x="1251" d="M 569 61 L 803 82 L 803 418 L 51 418 L 51 500 L 803 1421 L 913 1421 L 913 500 L 1163 500 L 1163 418 L 913 418 L 913 82 L 1163 61 L 1163 0 L 569 0 L 569 61 Z M 164 500 L 803 500 L 803 1280 L 164 500 Z" unicode="4" />
<glyph horiz-adv-x="1186" d="M 974 95 C 930 52 877 18 815 -6 C 752 -30 681 -43 602 -43 C 539 -43 483 -36 435 -23 C 386 -10 343 6 307 27 C 270 47 239 70 215 96 C 190 122 170 148 156 176 C 145 194 137 211 132 227 C 127 243 125 257 125 270 C 125 288 129 303 138 315 C 147 327 162 334 182 334 C 196 334 206 331 214 325 C 221 319 227 312 231 303 C 235 293 239 282 242 270 C 244 258 248 245 252 233 C 272 171 314 124 378 91 C 441 57 514 41 596 41 C 661 41 719 51 770 71 C 820 91 863 120 897 156 C 931 191 956 232 974 279 C 992 326 1001 377 1001 432 C 1001 541 968 629 904 695 C 839 761 740 795 606 795 C 520 795 448 784 390 762 C 332 740 285 711 250 676 L 166 680 L 264 1413 L 1018 1413 L 1018 1329 L 342 1329 L 266 780 C 310 811 362 835 424 853 C 485 870 549 879 616 879 C 695 879 765 868 827 847 C 889 825 940 795 981 757 C 1021 717 1052 671 1074 617 C 1095 563 1106 503 1106 436 C 1106 368 1094 305 1072 247 C 1049 189 1016 138 974 95 Z" unicode="5" />
<glyph horiz-adv-x="1282" d="M 965 1243 C 937 1288 900 1319 852 1337 C 804 1355 753 1364 700 1364 C 626 1364 561 1348 504 1318 C 446 1287 398 1243 358 1185 C 318 1127 288 1055 267 971 C 246 886 236 790 236 684 L 236 674 C 236 662 236 652 236 642 C 236 632 236 621 238 610 C 276 704 336 777 420 828 C 503 879 598 905 705 905 C 767 905 827 895 884 875 C 940 855 990 826 1032 788 C 1074 750 1108 702 1133 646 C 1158 589 1171 524 1171 451 C 1171 385 1159 322 1137 262 C 1115 202 1082 149 1039 104 C 996 59 944 23 883 -3 C 821 -29 752 -43 674 -43 C 590 -43 515 -27 447 5 C 379 37 322 84 275 147 C 228 210 192 287 166 377 C 140 467 127 570 127 688 C 127 806 140 913 166 1007 C 192 1101 229 1181 279 1247 C 327 1313 387 1363 457 1398 C 527 1432 607 1450 696 1450 C 783 1450 857 1436 917 1408 C 977 1380 1023 1348 1055 1313 C 1069 1295 1079 1278 1087 1263 C 1094 1248 1098 1235 1098 1223 C 1098 1206 1093 1192 1083 1182 C 1073 1172 1059 1167 1040 1167 C 1021 1167 1007 1174 998 1188 C 989 1202 978 1221 965 1243 Z M 947 730 C 912 760 872 783 827 798 C 782 813 736 821 690 821 C 642 821 594 813 548 798 C 502 783 459 761 420 731 C 380 701 345 664 316 621 C 286 578 265 529 252 475 C 275 331 323 224 396 152 C 469 80 561 45 672 45 C 734 45 790 55 838 77 C 886 98 928 127 962 164 C 995 200 1020 243 1038 293 C 1056 342 1065 395 1065 453 C 1065 515 1054 569 1032 615 C 1010 661 981 699 947 730 Z" unicode="6" />
<glyph horiz-adv-x="1190" d="M 508 0 L 406 0 C 412 113 431 229 461 349 C 491 468 530 585 580 701 C 628 816 685 927 750 1035 C 815 1142 886 1240 963 1329 L 297 1329 L 184 969 L 125 985 L 213 1413 L 1073 1413 L 1073 1329 C 983 1223 904 1116 836 1006 C 768 896 712 785 666 673 C 619 560 583 447 558 334 C 532 220 516 109 508 0 Z" unicode="7" />
<glyph horiz-adv-x="1239" d="M 977 71 C 931 34 878 6 818 -13 C 757 -33 691 -43 621 -43 C 549 -43 483 -33 423 -13 C 362 6 309 34 264 71 C 219 107 184 151 159 203 C 133 255 121 313 121 377 C 121 475 148 558 203 626 C 257 694 330 740 420 764 C 342 795 285 840 249 899 C 213 957 195 1018 195 1081 C 195 1130 203 1177 220 1221 C 237 1265 263 1304 299 1338 C 334 1372 378 1399 432 1419 C 485 1439 548 1450 621 1450 C 693 1450 755 1439 809 1419 C 862 1399 906 1372 942 1338 C 977 1304 1003 1265 1021 1221 C 1038 1177 1047 1130 1047 1081 C 1047 1018 1028 957 991 899 C 954 840 897 795 819 764 C 909 740 981 694 1037 626 C 1092 558 1120 475 1120 377 C 1120 313 1107 255 1082 203 C 1056 151 1021 107 977 71 Z M 362 900 C 386 872 419 848 461 830 C 503 812 556 803 621 803 C 683 803 735 812 777 830 C 819 848 852 872 877 900 C 901 928 918 958 928 990 C 938 1022 944 1051 944 1079 C 944 1117 937 1154 924 1188 C 911 1222 891 1252 865 1278 C 838 1304 805 1324 765 1340 C 725 1356 677 1364 621 1364 C 565 1364 516 1356 475 1340 C 434 1324 400 1304 374 1278 C 347 1252 327 1222 314 1188 C 301 1154 295 1117 295 1079 C 295 1051 300 1022 310 990 C 320 958 338 928 362 900 Z M 621 711 C 495 711 397 680 328 619 C 259 558 225 477 225 377 C 225 325 235 278 255 237 C 275 196 302 161 337 133 C 371 104 413 82 462 67 C 510 52 563 45 621 45 C 675 45 726 52 775 67 C 823 82 865 104 900 133 C 934 161 962 196 983 237 C 1003 278 1014 325 1014 377 C 1014 477 979 558 910 619 C 841 680 745 711 621 711 Z" unicode="8" />
<glyph horiz-adv-x="1264" d="M 326 679 C 361 648 401 625 445 610 C 489 595 536 588 584 588 C 630 588 676 595 723 610 C 769 625 812 647 852 677 C 891 706 925 742 955 784 C 984 826 1006 876 1020 932 C 996 1075 948 1183 876 1255 C 804 1327 712 1364 602 1364 C 540 1364 485 1353 436 1332 C 386 1310 345 1282 312 1246 C 278 1210 253 1167 235 1117 C 217 1067 209 1013 209 956 C 209 893 219 839 240 793 C 261 747 290 709 326 679 Z M 307 166 C 335 120 373 89 421 71 C 468 53 519 45 573 45 C 647 45 712 60 770 91 C 827 121 875 166 915 224 C 955 282 985 353 1005 438 C 1025 522 1036 618 1036 725 L 1036 737 C 1036 747 1035 756 1035 766 C 1034 775 1034 785 1034 795 C 994 701 933 629 850 579 C 766 529 673 504 569 504 C 506 504 447 513 391 533 C 335 553 286 582 244 622 C 201 660 167 708 142 764 C 116 820 104 884 104 958 C 104 1025 115 1088 138 1148 C 160 1207 193 1259 236 1305 C 278 1349 329 1385 391 1411 C 452 1437 522 1450 600 1450 C 683 1450 758 1434 825 1402 C 892 1370 949 1323 996 1261 C 1043 1198 1079 1121 1105 1031 C 1130 940 1143 837 1143 721 C 1143 602 1130 495 1104 401 C 1078 307 1040 227 991 161 C 942 94 883 43 813 9 C 743 -25 665 -43 578 -43 C 484 -43 408 -28 348 1 C 288 30 243 64 213 102 C 201 118 191 134 185 148 C 179 162 176 174 176 186 C 176 202 180 216 190 226 C 200 236 214 242 233 242 C 252 242 266 234 275 219 C 284 204 295 186 307 166 Z" unicode="9" />
<glyph horiz-adv-x="416" d="M 209 -27 C 184 -27 163 -18 145 -1 C 127 16 119 36 119 59 C 119 83 127 104 145 121 C 163 138 184 147 209 147 C 233 147 254 138 271 121 C 288 104 297 83 297 59 C 297 36 288 16 271 -1 C 254 -18 233 -27 209 -27 Z M 209 843 C 184 843 163 851 145 869 C 127 886 119 906 119 929 C 119 953 127 974 145 991 C 163 1008 184 1017 209 1017 C 233 1017 254 1008 271 991 C 288 974 297 953 297 929 C 297 906 288 886 271 869 C 254 851 233 843 209 843 Z" unicode=":" />
<glyph horiz-adv-x="416" d="M 156 -270 L 125 -233 C 155 -206 178 -174 194 -136 C 210 -98 220 -62 223 -27 C 194 -31 170 -23 150 -5 C 130 13 121 35 121 59 C 121 83 129 104 147 120 C 165 136 185 145 209 145 C 235 145 256 135 272 117 C 288 99 297 75 297 45 C 297 -21 284 -83 259 -140 C 233 -196 199 -240 156 -270 Z M 209 843 C 184 843 163 851 145 869 C 127 886 119 906 119 929 C 119 953 127 974 145 991 C 163 1008 184 1017 209 1017 C 233 1017 254 1008 271 991 C 288 974 297 953 297 929 C 297 906 288 886 271 869 C 254 851 233 843 209 843 Z" unicode=";" />
<glyph horiz-adv-x="967" d="M 772 987 L 309 627 L 774 270 L 723 207 L 195 616 L 195 635 L 723 1044 L 772 987 Z" unicode="&#x3C;" />
<glyph horiz-adv-x="967" d="M 102 700 L 102 780 L 864 780 L 864 700 L 102 700 Z M 102 479 L 102 559 L 864 559 L 864 479 L 102 479 Z" unicode="=" />
<glyph horiz-adv-x="967" d="M 246 207 L 197 266 L 657 623 L 195 981 L 244 1044 L 774 635 L 774 616 L 246 207 Z" unicode="&#x3E;" />
<glyph horiz-adv-x="954" d="M 670 702 C 622 672 580 644 546 618 C 511 592 494 562 494 526 C 494 503 501 484 515 470 C 529 456 547 449 569 449 C 570 449 573 449 577 450 C 581 450 587 451 594 453 L 578 387 C 570 385 562 383 555 382 C 548 381 541 381 535 381 C 497 381 466 394 441 421 C 415 447 403 481 403 522 C 403 550 409 576 421 599 C 433 621 450 642 471 662 C 491 680 515 698 541 714 C 567 730 593 748 621 766 C 651 785 681 805 711 827 C 741 849 767 873 791 901 C 813 928 832 959 847 995 C 862 1031 870 1072 870 1120 C 870 1165 861 1207 844 1246 C 827 1285 803 1319 772 1348 C 740 1376 702 1399 657 1415 C 612 1431 561 1440 504 1440 C 441 1440 387 1432 343 1416 C 298 1400 261 1380 233 1356 C 204 1331 182 1303 168 1273 C 154 1242 147 1211 147 1180 C 145 1144 149 1115 159 1095 C 169 1075 174 1056 174 1038 C 174 1028 170 1018 163 1006 C 155 994 141 989 119 989 C 91 989 71 1004 58 1035 C 45 1065 39 1099 39 1135 C 39 1195 50 1248 72 1296 C 94 1344 126 1385 168 1419 C 208 1453 258 1479 316 1497 C 374 1515 438 1524 508 1524 C 583 1524 649 1513 707 1493 C 764 1472 812 1444 852 1409 C 891 1373 921 1331 942 1282 C 962 1232 973 1179 973 1122 C 973 1064 963 1014 945 972 C 927 930 903 892 873 860 C 843 827 811 798 775 773 C 739 747 704 724 670 702 Z M 506 -27 C 481 -27 460 -18 443 -1 C 426 16 418 36 418 59 C 418 83 426 104 443 121 C 460 138 481 147 506 147 C 530 147 551 138 568 121 C 585 104 594 83 594 59 C 594 36 585 16 568 -1 C 551 -18 530 -27 506 -27 Z" unicode="?" />
<glyph horiz-adv-x="1661" d="M 1452 264 C 1424 234 1393 212 1359 199 C 1324 186 1289 180 1255 180 C 1209 180 1171 188 1140 206 C 1108 223 1084 249 1067 285 C 1041 238 1005 202 959 177 C 913 151 862 139 805 139 C 758 139 715 147 675 164 C 635 181 601 205 573 237 C 544 267 522 304 506 346 C 490 388 483 435 483 487 C 483 540 491 588 507 632 C 523 676 547 714 577 746 C 606 778 640 803 680 820 C 719 837 762 846 809 846 C 858 846 903 836 944 818 C 985 800 1019 773 1047 737 L 1071 838 L 1130 838 L 1130 412 C 1130 357 1142 317 1168 291 C 1193 265 1228 252 1274 252 C 1296 252 1318 256 1341 266 C 1364 276 1385 292 1405 316 C 1424 340 1439 371 1451 411 C 1462 451 1468 501 1468 561 C 1468 653 1453 738 1423 815 C 1393 891 1350 957 1296 1011 C 1241 1065 1175 1106 1099 1136 C 1023 1165 939 1180 848 1180 C 758 1180 673 1165 594 1136 C 514 1106 445 1063 386 1006 C 326 948 280 878 246 794 C 212 710 195 613 195 504 C 195 392 212 293 248 208 C 283 122 331 51 393 -7 C 454 -65 526 -108 608 -138 C 690 -167 777 -182 870 -182 C 950 -182 1027 -170 1101 -147 C 1175 -124 1240 -91 1296 -47 L 1327 -92 C 1275 -142 1209 -181 1129 -208 C 1049 -234 964 -248 872 -248 C 768 -248 671 -231 579 -199 C 487 -166 407 -118 339 -54 C 270 9 216 87 176 181 C 136 275 117 382 117 504 C 117 622 136 728 174 820 C 212 912 264 990 330 1054 C 395 1117 472 1165 561 1199 C 649 1232 744 1249 846 1249 C 949 1249 1044 1232 1130 1199 C 1216 1165 1290 1118 1352 1058 C 1413 997 1460 925 1494 841 C 1527 757 1544 664 1544 563 C 1544 491 1535 430 1518 382 C 1501 333 1479 294 1452 264 Z M 573 489 C 573 403 596 335 644 287 C 691 239 751 215 823 215 C 871 215 914 226 954 250 C 994 273 1023 308 1042 356 C 1041 359 1040 363 1040 369 C 1040 375 1040 381 1040 389 L 1040 651 C 1020 689 990 719 951 739 C 912 759 869 770 821 770 C 749 770 689 744 643 694 C 596 643 573 575 573 489 Z" unicode="@" />
<glyph horiz-adv-x="1569" d="M 780 1264 L 532 567 L 1030 567 L 784 1264 L 780 1264 Z M 653 63 L 653 0 L 41 0 L 41 63 L 262 82 L 707 1329 L 414 1350 L 414 1413 L 1157 1413 L 1157 1350 L 862 1329 L 1309 82 L 1528 63 L 1528 0 L 918 0 L 918 63 L 1202 84 L 1059 487 L 504 487 L 362 84 L 653 63 Z" unicode="A" />
<glyph horiz-adv-x="1528" d="M 963 1413 C 1091 1413 1189 1380 1259 1316 C 1329 1251 1364 1167 1364 1063 C 1364 983 1343 915 1303 858 C 1263 800 1207 758 1137 731 C 1223 707 1289 666 1337 608 C 1385 549 1409 477 1409 391 C 1409 335 1399 283 1381 235 C 1363 187 1336 146 1302 112 C 1266 76 1223 49 1173 29 C 1123 9 1066 0 1004 0 L 96 0 L 96 63 L 395 84 L 395 1329 L 96 1350 L 96 1413 L 963 1413 Z M 938 1331 L 504 1331 L 504 766 L 930 766 C 1032 766 1112 793 1170 847 C 1228 901 1257 972 1257 1061 C 1257 1144 1228 1210 1172 1258 C 1115 1306 1037 1331 938 1331 Z M 958 684 L 504 684 L 504 82 L 971 82 C 1073 82 1153 110 1212 168 C 1270 225 1300 299 1300 391 C 1300 481 1269 552 1209 605 C 1148 657 1064 684 958 684 Z" unicode="B" />
<glyph horiz-adv-x="1427" d="M 1112 86 C 1066 46 1013 15 953 -7 C 892 -29 823 -41 745 -41 C 657 -41 575 -24 498 8 C 421 40 354 89 297 153 C 239 216 194 294 162 387 C 129 479 113 585 113 705 C 113 823 129 929 163 1021 C 196 1113 241 1190 298 1254 C 354 1318 420 1366 495 1400 C 570 1433 650 1450 735 1450 C 821 1450 899 1432 969 1396 C 1039 1360 1100 1311 1151 1247 L 1157 1450 L 1210 1450 L 1309 887 L 1255 874 L 1208 995 C 1164 1108 1104 1197 1027 1263 C 949 1329 855 1362 745 1362 C 673 1362 605 1347 541 1319 C 477 1290 422 1248 375 1193 C 327 1137 289 1068 262 986 C 234 903 221 808 221 702 C 221 594 235 500 263 419 C 291 337 329 269 378 214 C 426 158 483 117 549 89 C 614 61 684 47 758 47 C 827 47 887 56 939 76 C 990 96 1034 123 1072 157 C 1109 190 1141 230 1168 276 C 1194 322 1217 372 1237 426 L 1298 403 C 1280 339 1256 280 1226 226 C 1195 172 1157 125 1112 86 Z" unicode="C" />
<glyph horiz-adv-x="1571" d="M 96 1413 L 838 1413 C 937 1413 1026 1396 1106 1362 C 1185 1328 1252 1280 1308 1220 C 1363 1158 1405 1085 1435 1001 C 1464 916 1479 823 1479 723 C 1479 619 1463 523 1431 435 C 1399 347 1355 270 1299 206 C 1242 141 1174 90 1095 54 C 1016 18 929 0 834 0 L 96 0 L 96 63 L 395 84 L 395 1329 L 96 1350 L 96 1413 Z M 815 1331 L 506 1331 L 506 82 L 817 82 C 900 82 976 98 1044 130 C 1112 162 1171 206 1219 264 C 1266 321 1303 389 1330 467 C 1356 545 1370 629 1370 721 C 1370 811 1357 893 1333 968 C 1308 1043 1272 1108 1226 1162 C 1178 1216 1120 1257 1051 1287 C 982 1316 903 1331 815 1331 Z" unicode="D" />
<glyph horiz-adv-x="1513" d="M 96 0 L 96 63 L 395 84 L 395 1329 L 96 1350 L 96 1413 L 1251 1413 L 1403 977 L 1348 963 L 1157 1331 L 506 1331 L 506 776 L 932 776 L 967 1038 L 1024 1038 L 1024 440 L 967 440 L 930 694 L 506 694 L 506 82 L 1219 82 L 1380 551 L 1436 541 L 1313 0 L 96 0 Z" unicode="E" />
<glyph horiz-adv-x="1438" d="M 836 63 L 836 0 L 96 0 L 96 63 L 395 84 L 395 1329 L 96 1350 L 96 1413 L 1278 1413 L 1391 934 L 1335 920 L 1184 1331 L 506 1331 L 506 772 L 930 772 L 967 1034 L 1024 1034 L 1024 436 L 967 436 L 932 690 L 506 690 L 506 84 L 836 63 Z" unicode="F" />
<glyph horiz-adv-x="1556" d="M 1542 600 L 1321 584 L 1321 -10 L 1260 -10 L 1227 233 C 1184 151 1122 85 1041 35 C 960 -15 865 -41 756 -41 C 670 -41 588 -24 511 8 C 433 40 365 89 307 153 C 248 216 202 294 168 386 C 134 478 117 583 117 702 C 117 821 134 927 168 1020 C 202 1112 248 1190 306 1254 C 364 1318 431 1366 509 1400 C 586 1433 668 1450 754 1450 C 844 1450 924 1431 995 1394 C 1066 1357 1128 1306 1180 1241 L 1186 1450 L 1239 1450 L 1339 887 L 1284 874 L 1237 995 C 1193 1104 1131 1192 1053 1260 C 975 1328 878 1362 764 1362 C 690 1362 620 1347 555 1319 C 489 1290 432 1248 384 1193 C 335 1137 296 1069 268 987 C 239 905 225 811 225 705 C 225 598 239 504 268 422 C 296 340 335 271 385 216 C 434 160 491 118 556 90 C 620 61 689 47 762 47 C 816 47 871 56 926 74 C 980 92 1029 121 1072 159 C 1115 196 1150 243 1178 301 C 1205 358 1219 426 1219 504 L 1219 580 L 920 600 L 920 664 L 1542 664 L 1542 600 Z" unicode="G" />
<glyph horiz-adv-x="1810" d="M 1001 63 L 1305 84 L 1305 694 L 504 694 L 504 84 L 809 63 L 809 0 L 96 0 L 96 63 L 395 84 L 395 1327 L 96 1350 L 96 1413 L 809 1413 L 809 1350 L 504 1329 L 504 776 L 1305 776 L 1305 1329 L 1001 1350 L 1001 1413 L 1714 1413 L 1714 1350 L 1413 1327 L 1413 84 L 1714 63 L 1714 0 L 1001 0 L 1001 63 Z" unicode="H" />
<glyph horiz-adv-x="905" d="M 807 0 L 96 0 L 96 63 L 397 84 L 397 1329 L 96 1350 L 96 1413 L 807 1413 L 807 1350 L 506 1327 L 506 84 L 807 63 L 807 0 Z" unicode="I" />
<glyph horiz-adv-x="1167" d="M 174 203 C 190 152 222 113 269 87 C 316 60 370 47 432 47 C 524 47 598 76 654 135 C 709 193 737 281 737 397 L 737 1327 L 430 1350 L 430 1413 L 1126 1413 L 1126 1350 L 844 1329 L 844 391 C 844 251 806 144 731 70 C 655 -3 554 -41 428 -41 C 342 -41 267 -21 204 17 C 140 56 93 108 61 174 C 55 186 50 198 47 208 C 44 218 43 228 43 238 C 43 258 48 274 58 285 C 68 295 82 301 102 301 C 130 301 147 291 153 271 C 159 251 166 229 174 203 Z" unicode="J" />
<glyph horiz-adv-x="1612" d="M 743 0 L 96 0 L 96 63 L 395 84 L 395 1327 L 96 1350 L 96 1413 L 750 1413 L 750 1350 L 504 1329 L 504 551 L 1235 1327 L 944 1350 L 944 1413 L 1550 1413 L 1550 1350 L 1358 1331 L 862 809 L 1348 82 L 1550 63 L 1550 0 L 940 0 L 940 63 L 1229 82 L 793 735 L 504 432 L 504 82 L 743 63 L 743 0 Z" unicode="K" />
<glyph horiz-adv-x="1489" d="M 98 1413 L 813 1413 L 813 1350 L 506 1329 L 506 82 L 1212 82 L 1378 551 L 1434 541 L 1309 0 L 98 0 L 98 63 L 397 84 L 397 1329 L 98 1350 L 98 1413 Z" unicode="L" />
<glyph horiz-adv-x="2277" d="M 1460 1413 L 2181 1413 L 2181 1350 L 1892 1329 L 1892 84 L 2181 63 L 2181 0 L 1548 0 L 1548 63 L 1790 84 L 1790 1288 L 1182 -2 L 1098 -2 L 485 1292 L 487 84 L 731 63 L 731 0 L 96 0 L 96 63 L 385 84 L 385 1329 L 96 1350 L 96 1413 L 819 1413 L 819 1350 L 571 1329 L 1143 117 L 1712 1329 L 1460 1350 L 1460 1413 Z" unicode="M" />
<glyph horiz-adv-x="1810" d="M 1008 1413 L 1714 1413 L 1714 1350 L 1415 1329 L 1415 -2 L 1327 -2 L 494 1282 L 498 84 L 811 63 L 811 0 L 96 0 L 96 63 L 395 84 L 395 1327 L 96 1350 L 96 1413 L 815 1413 L 815 1350 L 569 1333 L 1317 180 L 1313 1327 L 1008 1350 L 1008 1413 Z" unicode="N" />
<glyph horiz-adv-x="1577" d="M 1263 1254 C 1323 1190 1371 1112 1407 1020 C 1442 927 1460 822 1460 705 C 1460 587 1442 481 1407 389 C 1371 296 1323 218 1263 155 C 1201 91 1130 42 1048 9 C 966 -24 879 -41 786 -41 C 694 -41 608 -24 527 9 C 446 42 375 91 314 155 C 253 218 205 296 170 389 C 134 481 117 587 117 705 C 117 822 134 927 170 1020 C 205 1112 253 1190 314 1254 C 375 1318 446 1366 527 1400 C 608 1433 695 1450 788 1450 C 880 1450 966 1433 1048 1400 C 1130 1366 1201 1318 1263 1254 Z M 392 1193 C 340 1137 300 1069 270 987 C 240 905 225 811 225 705 C 225 598 240 504 270 422 C 300 340 340 271 392 216 C 443 160 502 118 570 90 C 638 61 710 47 786 47 C 864 47 937 61 1005 90 C 1073 118 1133 160 1185 216 C 1236 271 1277 340 1307 422 C 1337 504 1352 598 1352 705 C 1352 811 1337 905 1307 987 C 1277 1069 1236 1137 1185 1193 C 1133 1248 1073 1290 1005 1319 C 937 1347 864 1362 786 1362 C 710 1362 638 1347 570 1319 C 502 1290 443 1248 392 1193 Z" unicode="O" />
<glyph horiz-adv-x="1475" d="M 821 63 L 821 0 L 96 0 L 96 63 L 393 84 L 393 1327 L 96 1350 L 96 1413 L 979 1413 C 1043 1413 1100 1403 1151 1383 C 1201 1363 1244 1335 1280 1299 C 1315 1263 1342 1220 1362 1170 C 1381 1120 1391 1066 1391 1008 C 1391 948 1382 892 1364 840 C 1346 788 1319 743 1285 706 C 1250 668 1208 638 1158 617 C 1108 596 1051 586 989 586 L 504 586 L 504 84 L 821 63 Z M 958 1331 L 504 1331 L 504 668 L 975 668 C 1025 668 1070 676 1108 693 C 1146 710 1178 734 1204 765 C 1230 795 1249 831 1262 873 C 1275 915 1282 960 1282 1010 C 1282 1106 1253 1184 1196 1243 C 1138 1301 1059 1331 958 1331 Z" unicode="P" />
<glyph horiz-adv-x="1573" d="M 1538 -80 L 1579 -113 C 1555 -157 1526 -192 1490 -216 C 1454 -240 1409 -252 1356 -252 C 1326 -252 1297 -248 1269 -240 C 1241 -232 1213 -220 1186 -202 C 1158 -183 1131 -158 1103 -126 C 1075 -94 1046 -52 1018 -2 C 980 -15 942 -25 904 -31 C 865 -37 826 -41 786 -41 C 694 -41 608 -24 527 9 C 446 42 375 91 314 155 C 253 218 205 296 170 389 C 134 481 117 587 117 705 C 117 823 134 929 170 1021 C 205 1113 253 1190 314 1254 C 375 1318 446 1366 527 1400 C 608 1433 695 1450 788 1450 C 880 1450 966 1433 1048 1400 C 1130 1366 1201 1318 1263 1254 C 1323 1190 1371 1112 1407 1020 C 1442 927 1460 822 1460 705 C 1460 542 1427 404 1363 292 C 1298 179 1212 94 1106 37 C 1152 -38 1195 -92 1234 -124 C 1272 -156 1318 -172 1370 -172 C 1405 -172 1437 -163 1467 -147 C 1496 -131 1520 -108 1538 -80 Z M 392 1193 C 340 1137 300 1069 270 987 C 240 905 225 811 225 705 C 225 583 243 477 281 389 C 319 300 369 228 432 174 C 436 215 445 251 461 281 C 477 311 497 336 522 356 C 546 376 574 391 605 401 C 635 411 666 416 698 416 C 766 416 829 393 886 348 C 942 303 1001 225 1061 115 C 1147 163 1217 237 1271 336 C 1325 435 1352 558 1352 705 C 1352 811 1337 905 1307 987 C 1277 1069 1236 1137 1185 1193 C 1133 1248 1073 1290 1005 1319 C 937 1347 864 1362 786 1362 C 710 1362 638 1347 570 1319 C 502 1290 443 1248 392 1193 Z M 489 131 C 532 102 578 80 628 66 C 677 52 730 45 786 45 C 819 45 851 47 883 52 C 914 57 945 65 975 76 C 946 125 920 166 896 199 C 872 231 848 258 826 278 C 804 297 781 310 758 318 C 734 326 710 330 686 330 C 664 330 642 326 620 319 C 598 312 578 301 560 287 C 541 271 525 251 513 225 C 500 199 492 167 489 131 Z" unicode="Q" />
<glyph horiz-adv-x="1640" d="M 981 1331 L 504 1331 L 504 694 L 985 694 C 1095 694 1178 724 1232 785 C 1286 846 1313 924 1313 1020 C 1313 1114 1283 1189 1224 1246 C 1164 1302 1083 1331 981 1331 Z M 821 63 L 821 0 L 96 0 L 96 63 L 395 84 L 395 1327 L 96 1350 L 96 1413 L 1016 1413 C 1077 1413 1132 1403 1182 1383 C 1232 1363 1275 1336 1311 1302 C 1346 1266 1373 1225 1392 1177 C 1411 1129 1421 1077 1421 1020 C 1421 964 1412 911 1395 863 C 1378 815 1353 772 1321 735 C 1288 698 1248 669 1201 647 C 1153 625 1100 612 1040 610 L 1294 94 L 1599 63 L 1599 0 L 1233 0 L 934 610 L 504 610 L 504 84 L 821 63 Z" unicode="R" />
<glyph horiz-adv-x="1290" d="M 1092 897 L 1018 1057 C 970 1161 907 1239 831 1290 C 755 1340 669 1366 573 1366 C 529 1366 488 1360 449 1349 C 410 1338 376 1322 348 1302 C 319 1280 296 1253 279 1220 C 262 1187 254 1148 254 1104 C 254 1048 267 1001 293 963 C 319 925 352 894 392 870 C 432 846 477 825 526 809 C 575 792 623 778 670 766 C 732 749 794 731 854 711 C 914 691 967 666 1015 636 C 1061 605 1099 566 1128 520 C 1156 474 1171 415 1171 344 C 1171 286 1160 234 1140 187 C 1120 140 1091 100 1054 67 C 1016 33 969 6 915 -12 C 861 -31 799 -41 729 -41 C 607 -41 506 -13 424 42 C 342 97 276 168 227 254 L 227 252 L 233 -14 L 176 -14 L 92 532 L 143 547 L 209 414 C 273 284 347 189 432 131 C 516 72 612 43 719 43 C 827 43 912 69 974 122 C 1036 174 1067 248 1067 342 C 1067 394 1057 437 1037 472 C 1017 506 989 536 952 560 C 915 584 871 604 819 621 C 767 638 709 656 645 674 C 593 687 538 704 480 725 C 422 745 369 772 321 804 C 272 836 232 875 200 923 C 168 971 152 1030 152 1100 C 152 1157 163 1207 185 1251 C 207 1295 237 1331 275 1361 C 313 1390 356 1412 406 1427 C 456 1442 509 1450 565 1450 C 618 1450 667 1443 712 1430 C 757 1417 798 1400 836 1378 C 872 1356 905 1331 934 1303 C 962 1274 986 1243 1006 1210 L 1004 1452 L 1061 1452 L 1147 909 L 1092 897 Z" unicode="S" />
<glyph horiz-adv-x="1440" d="M 94 920 L 39 932 L 156 1413 L 1286 1413 L 1401 924 L 1348 911 L 1192 1331 L 776 1331 L 776 84 L 1077 63 L 1077 0 L 369 0 L 369 63 L 668 84 L 668 1331 L 248 1331 L 94 920 Z" unicode="T" />
<glyph horiz-adv-x="1659" d="M 930 1413 L 1618 1413 L 1618 1350 L 1341 1329 L 1341 426 C 1341 350 1328 284 1304 226 C 1280 168 1245 119 1201 80 C 1157 40 1103 9 1040 -10 C 977 -30 907 -41 831 -41 C 753 -41 683 -30 620 -10 C 557 9 503 40 459 80 C 413 119 379 168 355 226 C 331 284 319 350 319 426 L 319 1329 L 41 1350 L 41 1413 L 731 1413 L 731 1350 L 428 1329 L 428 432 C 428 313 461 219 529 150 C 597 81 697 47 831 47 C 965 47 1066 81 1134 150 C 1202 219 1237 313 1237 432 L 1237 1329 L 930 1350 L 930 1413 Z" unicode="U" />
<glyph horiz-adv-x="1569" d="M 915 1350 L 915 1413 L 1528 1413 L 1528 1350 L 1309 1329 L 836 -6 L 731 -6 L 258 1329 L 41 1350 L 41 1413 L 653 1413 L 653 1350 L 367 1329 L 786 131 L 788 131 L 1206 1327 L 915 1350 Z" unicode="V" />
<glyph horiz-adv-x="2238" d="M 680 -6 L 238 1329 L 41 1350 L 41 1413 L 596 1413 L 596 1350 L 342 1329 L 729 131 L 731 131 L 1061 1329 L 797 1350 L 797 1413 L 1446 1413 L 1446 1350 L 1184 1329 L 1516 127 L 1518 127 L 1901 1329 L 1647 1350 L 1647 1413 L 2198 1413 L 2198 1350 L 1999 1329 L 1561 -6 L 1462 -6 L 1120 1225 L 1118 1225 L 778 -6 L 680 -6 Z" unicode="W" />
<glyph horiz-adv-x="1505" d="M 49 1350 L 49 1413 L 641 1413 L 641 1350 L 375 1329 L 754 799 L 1130 1329 L 864 1350 L 864 1413 L 1456 1413 L 1456 1350 L 1241 1329 L 811 731 L 1284 82 L 1462 63 L 1462 0 L 862 0 L 862 63 L 1165 84 L 748 664 L 332 84 L 639 63 L 639 0 L 41 0 L 41 63 L 219 82 L 690 733 L 262 1329 L 49 1350 Z" unicode="X" />
<glyph horiz-adv-x="1475" d="M 1094 0 L 381 0 L 381 63 L 684 84 L 684 543 L 268 1329 L 41 1350 L 41 1413 L 612 1413 L 612 1350 L 379 1331 L 739 631 L 1102 1329 L 864 1350 L 864 1413 L 1434 1413 L 1434 1350 L 1206 1327 L 793 543 L 793 84 L 1094 63 L 1094 0 Z" unicode="Y" />
<glyph horiz-adv-x="1294" d="M 90 0 L 90 53 L 1012 1331 L 311 1331 L 150 934 L 94 948 L 217 1413 L 1153 1413 L 1153 1358 L 229 82 L 1008 82 L 1184 524 L 1239 512 L 1102 0 L 90 0 Z" unicode="Z" />
<glyph horiz-adv-x="707" d="M 172 1413 L 604 1413 L 604 1352 L 274 1329 L 274 -182 L 604 -205 L 604 -266 L 172 -266 L 172 1413 Z" unicode="[" />
<glyph horiz-adv-x="764" d="M 762 -342 L -78 1556 L 23 1556 L 862 -342 L 762 -342 Z" unicode="\" />
<glyph horiz-adv-x="707" d="M 535 1413 L 103 1413 L 103 1352 L 433 1329 L 433 -182 L 103 -205 L 103 -266 L 535 -266 L 535 1413 Z" unicode="]" />
<glyph horiz-adv-x="1229" d="M 575 1358 L 651 1358 L 995 778 L 995 772 L 899 772 L 612 1257 L 328 772 L 231 772 L 231 778 L 575 1358 Z" unicode="^" />
<glyph horiz-adv-x="926" d="M -10 -170 L 936 -170 L 936 -252 L -10 -252 L -10 -170 Z" unicode="_" />
<glyph horiz-adv-x="1229" d="M 686 1180 L 410 1442 L 410 1448 L 545 1448 L 772 1186 L 772 1180 L 686 1180 Z" unicode="`" />
<glyph horiz-adv-x="1188" d="M 203 215 C 203 156 224 112 268 84 C 312 55 364 41 424 41 C 462 41 499 45 535 55 C 571 65 606 77 638 93 C 670 109 699 126 725 146 C 751 166 773 186 791 207 L 791 504 C 674 501 578 491 502 475 C 426 459 367 437 323 411 C 278 384 247 354 229 320 C 211 286 203 251 203 215 Z M 219 936 C 250 964 290 989 340 1009 C 389 1029 454 1040 535 1040 C 603 1040 659 1030 705 1012 C 751 994 788 969 816 938 C 844 906 863 868 875 824 C 887 780 893 732 893 682 L 893 238 C 893 172 901 127 918 104 C 935 81 961 70 997 70 C 1023 70 1044 78 1061 94 C 1078 110 1091 135 1100 168 L 1147 147 C 1137 95 1116 55 1086 29 C 1056 3 1016 -10 967 -10 C 923 -10 886 1 856 24 C 826 47 806 82 797 129 C 776 108 752 87 725 67 C 697 47 667 28 635 12 C 602 -4 566 -16 528 -26 C 490 -36 450 -41 408 -41 C 313 -41 238 -17 184 28 C 129 74 102 137 102 215 C 102 332 161 421 280 482 C 399 542 569 574 791 578 L 791 692 C 791 782 767 848 721 892 C 674 936 610 958 528 958 C 454 958 401 947 368 926 C 335 905 310 879 293 848 C 277 820 266 797 258 777 C 250 757 233 748 209 748 C 189 748 174 753 163 764 C 152 774 147 789 147 807 C 147 821 152 840 162 863 C 172 885 191 910 219 936 Z" unicode="a" />
<glyph horiz-adv-x="1219" d="M 984 892 C 1022 844 1052 788 1074 723 C 1095 657 1106 585 1106 506 C 1106 425 1094 351 1071 284 C 1047 217 1015 160 973 112 C 930 63 879 25 821 -1 C 762 -27 697 -41 627 -41 C 549 -41 481 -25 424 5 C 366 35 319 77 283 131 L 246 0 L 195 0 L 195 1393 C 155 1372 110 1360 60 1357 C 10 1353 -38 1356 -86 1366 L -86 1413 C -20 1411 39 1421 94 1443 C 148 1465 198 1498 242 1544 L 297 1528 L 297 846 C 332 907 380 955 442 989 C 504 1023 575 1040 655 1040 C 725 1040 787 1027 843 1001 C 898 975 945 939 984 892 Z M 1006 504 C 1006 642 973 751 909 833 C 845 915 755 956 639 956 C 557 956 486 935 426 893 C 366 851 323 794 297 721 L 297 227 C 327 168 370 122 426 89 C 482 55 546 39 618 39 C 676 39 728 50 776 72 C 824 94 864 126 898 168 C 931 208 957 257 977 315 C 996 372 1006 435 1006 504 Z" unicode="b" />
<glyph horiz-adv-x="1116" d="M 1030 256 C 1000 164 950 92 880 39 C 810 -14 719 -41 606 -41 C 531 -41 463 -28 402 -2 C 341 24 289 61 246 109 C 202 156 168 212 144 278 C 120 344 109 417 109 498 C 109 578 120 651 143 718 C 166 785 199 843 243 891 C 285 939 337 975 398 1001 C 458 1027 526 1040 602 1040 C 654 1040 700 1034 742 1022 C 784 1010 821 994 853 974 C 885 954 912 931 935 905 C 957 879 975 852 989 825 C 995 810 1001 794 1007 778 C 1013 762 1016 748 1016 737 C 1016 718 1010 703 999 691 C 988 679 974 674 958 674 C 943 674 932 677 924 683 C 916 689 911 696 907 706 C 903 714 899 725 897 737 C 894 749 891 762 887 774 C 867 828 832 872 782 906 C 732 939 673 956 606 956 C 544 956 489 945 441 923 C 393 901 351 870 316 830 C 281 790 254 741 236 685 C 218 628 209 566 209 498 C 209 429 218 366 236 310 C 254 253 281 205 317 165 C 353 124 396 93 446 71 C 496 49 554 39 618 39 C 706 39 778 60 836 102 C 893 144 937 203 969 279 L 1030 256 Z" unicode="c" />
<glyph horiz-adv-x="1272" d="M 213 496 C 213 356 245 246 310 164 C 375 82 466 41 582 41 C 660 41 730 60 790 100 C 850 140 894 196 920 270 L 920 772 C 889 829 846 874 790 908 C 734 941 672 958 602 958 C 543 958 490 946 442 924 C 394 902 353 870 319 829 C 285 788 258 739 240 683 C 222 626 213 564 213 496 Z M 1022 1528 L 1022 61 L 1253 61 L 1253 6 L 932 -25 L 926 -20 L 922 162 C 886 98 837 48 775 12 C 713 -23 643 -41 565 -41 C 494 -41 430 -28 374 -2 C 317 24 269 60 230 106 C 191 152 161 208 141 274 C 121 340 111 412 111 492 C 111 572 122 645 145 713 C 168 781 201 839 243 888 C 284 936 334 974 393 1000 C 451 1026 517 1040 590 1040 C 659 1040 722 1026 779 999 C 835 971 882 932 920 881 L 920 1393 C 878 1372 832 1360 782 1357 C 732 1353 683 1356 635 1366 L 635 1413 C 701 1411 761 1421 816 1443 C 871 1465 921 1498 965 1544 L 1022 1528 Z" unicode="d" />
<glyph horiz-adv-x="1141" d="M 318 165 C 353 124 396 93 447 72 C 498 51 556 41 621 41 C 705 41 774 58 827 92 C 880 126 921 176 950 242 L 1012 221 C 986 141 940 78 874 30 C 808 -17 720 -41 608 -41 C 532 -41 463 -27 401 -1 C 339 25 287 62 245 110 C 201 156 168 213 145 279 C 122 345 111 419 111 500 C 111 578 122 651 144 718 C 166 785 199 842 242 890 C 284 937 334 974 393 1000 C 451 1026 517 1040 590 1040 C 663 1040 727 1026 782 1000 C 836 974 882 939 919 896 C 955 852 981 803 999 749 C 1017 695 1026 640 1026 584 C 1026 574 1026 562 1026 548 C 1026 534 1025 524 1024 518 L 211 518 L 211 498 C 211 428 220 365 238 309 C 256 253 283 205 318 165 Z M 817 873 C 785 903 749 924 709 938 C 669 951 628 958 588 958 C 486 958 403 925 338 861 C 272 796 232 708 217 598 L 928 598 C 926 660 915 714 895 760 C 874 806 848 843 817 873 Z" unicode="e" />
<glyph horiz-adv-x="782" d="M 100 975 L 311 993 L 311 1180 C 311 1298 335 1384 385 1438 C 434 1491 499 1518 580 1518 C 627 1518 667 1510 701 1494 C 735 1478 762 1460 782 1440 C 796 1424 807 1408 814 1394 C 821 1380 825 1366 825 1354 C 825 1334 819 1319 808 1309 C 796 1299 783 1294 768 1294 C 751 1294 737 1299 727 1311 C 716 1323 707 1337 700 1354 C 688 1381 670 1401 647 1414 C 623 1427 597 1433 569 1432 C 520 1428 482 1409 454 1374 C 426 1338 412 1282 412 1206 C 412 1202 412 1192 412 1177 C 412 1162 412 1146 413 1129 C 413 1112 414 1096 414 1082 C 414 1068 414 1059 414 1055 L 414 997 L 723 997 L 723 913 L 414 913 L 414 80 L 705 59 L 705 0 L 96 0 L 96 59 L 311 80 L 311 913 L 100 913 L 100 975 Z" unicode="f" />
<glyph horiz-adv-x="1067" d="M 528 276 L 461 276 C 415 276 378 273 349 269 C 319 264 297 258 281 252 C 264 245 253 236 247 226 C 241 216 238 206 238 197 C 238 176 246 160 264 148 C 282 136 305 127 335 121 C 364 114 398 109 437 105 C 476 101 516 98 557 94 C 611 90 665 82 718 72 C 770 62 817 47 859 28 C 901 8 934 -18 959 -50 C 984 -82 997 -122 997 -172 C 997 -216 987 -257 967 -295 C 947 -333 918 -365 880 -393 C 840 -420 791 -441 733 -457 C 674 -473 606 -481 530 -481 C 454 -481 387 -473 330 -458 C 272 -443 224 -422 186 -396 C 148 -369 119 -338 100 -304 C 81 -269 72 -232 72 -193 C 72 -137 91 -87 129 -43 C 167 1 216 30 276 45 C 230 60 197 80 178 105 C 159 130 150 156 150 184 C 150 224 164 257 193 283 C 221 309 263 324 319 330 C 261 361 215 405 181 461 C 146 517 129 584 129 662 C 129 714 138 764 157 810 C 176 856 204 896 241 930 C 277 964 320 990 370 1010 C 420 1030 477 1040 541 1040 C 584 1040 624 1034 662 1023 C 700 1011 734 995 766 975 C 768 1001 775 1025 785 1048 C 795 1071 808 1092 824 1111 C 840 1129 858 1144 878 1155 C 898 1165 920 1171 944 1171 C 966 1171 982 1166 993 1156 C 1004 1146 1010 1130 1010 1110 C 1010 1094 1006 1083 999 1077 C 992 1070 983 1065 972 1061 C 960 1057 947 1053 933 1051 C 919 1048 907 1043 895 1036 C 879 1028 866 1015 854 998 C 842 981 834 955 831 920 C 863 885 887 845 905 801 C 923 757 932 710 932 662 C 932 607 922 556 903 510 C 883 463 856 422 822 388 C 787 353 745 326 695 306 C 645 286 590 276 528 276 Z M 753 870 C 726 897 694 919 657 936 C 620 952 579 961 535 961 C 488 961 445 953 407 937 C 369 921 336 899 309 871 C 281 843 260 810 245 774 C 230 737 223 698 223 657 C 223 616 230 577 246 540 C 262 503 283 471 311 443 C 338 415 370 393 407 377 C 444 361 484 354 528 354 C 576 354 619 362 657 378 C 695 394 728 416 755 444 C 781 471 802 503 816 539 C 830 575 838 613 838 653 C 838 695 830 735 815 773 C 800 810 779 842 753 870 Z M 596 2 L 391 20 C 317 8 261 -17 223 -57 C 185 -97 166 -140 166 -186 C 166 -248 197 -299 261 -340 C 324 -380 414 -401 532 -401 C 656 -401 749 -379 809 -337 C 869 -295 899 -242 899 -180 C 899 -156 894 -135 884 -115 C 874 -95 858 -78 835 -62 C 811 -46 779 -33 740 -22 C 701 -11 653 -3 596 2 Z" unicode="g" />
<glyph horiz-adv-x="1479" d="M 840 57 L 1077 78 L 1077 682 C 1077 764 1055 829 1012 878 C 969 927 907 952 827 952 C 745 952 670 928 601 882 C 532 836 476 778 434 709 L 434 78 L 666 57 L 666 0 L 96 0 L 96 59 L 332 80 L 332 1391 C 290 1371 244 1360 194 1357 C 144 1353 94 1356 45 1366 L 45 1413 C 113 1411 174 1421 230 1443 C 285 1465 334 1498 377 1544 L 434 1528 L 434 807 C 479 875 537 930 608 974 C 679 1018 758 1040 846 1040 C 907 1040 959 1030 1001 1011 C 1043 992 1078 967 1105 936 C 1131 904 1150 867 1162 825 C 1174 783 1180 738 1180 692 L 1180 80 L 1399 59 L 1399 0 L 840 0 L 840 57 Z" unicode="h" />
<glyph horiz-adv-x="758" d="M 387 1247 C 362 1247 341 1255 324 1272 C 307 1289 299 1310 299 1335 C 299 1359 307 1380 324 1397 C 341 1414 362 1423 387 1423 C 411 1423 432 1414 450 1397 C 468 1380 477 1359 477 1335 C 477 1310 468 1289 450 1272 C 432 1255 411 1247 387 1247 Z M 96 59 L 340 80 L 340 893 C 299 872 253 860 203 857 C 152 853 103 856 55 866 L 55 911 C 121 909 182 920 237 942 C 291 964 341 998 385 1044 L 442 1026 L 442 80 L 680 59 L 680 0 L 96 0 L 96 59 Z" unicode="i" />
<glyph horiz-adv-x="602" d="M 369 1247 C 344 1247 323 1255 306 1272 C 289 1289 281 1310 281 1335 C 281 1359 289 1380 306 1398 C 323 1416 344 1425 369 1425 C 393 1425 414 1416 432 1398 C 450 1380 459 1359 459 1335 C 459 1310 450 1289 432 1272 C 414 1255 393 1247 369 1247 Z M 424 -139 C 424 -256 400 -341 352 -393 C 304 -445 240 -471 160 -471 C 121 -471 87 -466 58 -456 C 28 -446 4 -434 -16 -420 C -36 -404 -52 -388 -63 -370 C -74 -352 -80 -335 -80 -319 C -80 -301 -74 -287 -63 -276 C -52 -265 -39 -260 -23 -260 C -2 -260 12 -268 21 -284 C 30 -300 41 -318 53 -336 C 64 -349 77 -361 93 -371 C 109 -381 132 -387 162 -387 C 214 -387 253 -369 281 -333 C 308 -297 322 -240 322 -162 L 322 893 C 280 872 234 860 183 857 C 131 853 82 856 35 866 L 35 911 C 100 909 160 920 216 942 C 271 964 321 998 365 1044 L 424 1026 L 424 -139 Z" unicode="j" />
<glyph horiz-adv-x="1331" d="M 801 57 L 977 76 L 662 543 L 436 317 L 436 78 L 625 57 L 625 0 L 96 0 L 96 59 L 334 80 L 334 1393 C 291 1372 244 1360 194 1357 C 144 1353 95 1356 47 1366 L 47 1413 C 113 1411 174 1421 230 1443 C 285 1465 335 1498 379 1544 L 436 1528 L 436 424 L 922 920 L 700 940 L 700 997 L 1237 997 L 1237 938 L 1047 922 L 729 608 L 1090 78 L 1276 59 L 1276 0 L 801 0 L 801 57 Z" unicode="k" />
<glyph horiz-adv-x="743" d="M 96 59 L 334 80 L 334 1393 C 292 1372 246 1360 195 1357 C 144 1353 95 1356 47 1366 L 47 1413 C 114 1411 175 1421 230 1443 C 285 1465 334 1498 377 1544 L 436 1528 L 436 78 L 666 59 L 666 0 L 96 0 L 96 59 Z" unicode="l" />
<glyph horiz-adv-x="2075" d="M 807 57 L 1008 78 L 1008 672 C 1008 756 992 824 960 875 C 928 926 872 952 791 952 C 719 952 653 929 593 884 C 532 839 482 783 442 715 L 442 78 L 631 57 L 631 0 L 96 0 L 96 59 L 340 80 L 340 893 C 299 872 253 860 203 857 C 152 853 103 856 55 866 L 55 911 C 122 909 183 920 237 942 C 291 964 340 998 383 1044 L 440 1028 L 440 809 C 484 875 538 930 604 974 C 669 1018 739 1040 815 1040 C 857 1040 895 1034 927 1023 C 959 1011 986 995 1009 975 C 1031 954 1049 930 1063 902 C 1077 874 1088 843 1096 811 C 1139 880 1193 935 1258 977 C 1323 1019 1397 1040 1481 1040 C 1535 1040 1581 1031 1619 1013 C 1656 995 1686 971 1710 941 C 1733 910 1750 874 1760 832 C 1770 790 1776 746 1776 700 L 1776 80 L 1999 57 L 1999 0 L 1487 0 L 1487 57 L 1673 78 L 1673 674 C 1673 714 1669 752 1662 786 C 1654 820 1642 850 1625 874 C 1607 898 1585 917 1557 931 C 1529 945 1495 952 1454 952 C 1383 952 1319 932 1261 894 C 1203 855 1152 799 1108 725 C 1109 718 1110 711 1110 704 C 1110 697 1110 690 1110 684 L 1110 78 L 1313 57 L 1313 0 L 807 0 L 807 57 Z" unicode="m" />
<glyph horiz-adv-x="1487" d="M 850 57 L 1087 78 L 1087 682 C 1087 764 1065 829 1022 878 C 979 927 917 952 836 952 C 754 952 678 928 609 881 C 540 834 484 775 442 705 L 442 78 L 676 57 L 676 0 L 96 0 L 96 59 L 340 80 L 340 891 C 299 870 254 858 204 856 C 154 853 104 856 55 866 L 55 911 C 123 909 184 920 239 942 C 293 964 341 998 383 1044 L 440 1028 L 440 803 C 485 872 544 929 616 973 C 688 1017 768 1040 856 1040 C 917 1040 969 1030 1011 1011 C 1053 992 1088 967 1115 936 C 1141 904 1160 867 1172 825 C 1184 783 1190 738 1190 692 L 1190 80 L 1409 59 L 1409 0 L 850 0 L 850 57 Z" unicode="n" />
<glyph horiz-adv-x="1214" d="M 968 891 C 1010 843 1043 786 1067 720 C 1090 654 1102 580 1102 500 C 1102 419 1090 345 1067 279 C 1043 213 1010 156 968 110 C 924 62 872 25 812 -1 C 751 -27 683 -41 608 -41 C 533 -41 465 -27 403 -1 C 341 25 289 62 247 110 C 203 156 170 213 146 279 C 122 345 111 419 111 500 C 111 580 122 654 146 720 C 170 786 203 843 247 891 C 289 939 341 975 402 1001 C 463 1027 531 1040 606 1040 C 681 1040 749 1027 811 1001 C 872 975 924 939 968 891 Z M 893 167 C 927 207 953 255 971 312 C 989 368 999 431 999 500 C 999 569 989 632 971 688 C 953 744 927 792 893 833 C 859 873 817 903 769 925 C 720 947 666 958 606 958 C 546 958 491 947 442 925 C 393 903 351 873 317 833 C 283 792 256 743 238 687 C 220 630 211 568 211 500 C 211 431 220 368 238 312 C 256 255 283 207 317 167 C 351 126 393 95 442 73 C 491 51 546 41 606 41 C 666 41 720 51 769 73 C 817 95 859 126 893 167 Z" unicode="o" />
<glyph horiz-adv-x="1307" d="M 385 229 C 416 169 460 122 517 90 C 573 57 637 41 709 41 C 766 41 818 52 865 75 C 912 97 953 129 987 170 C 1021 210 1047 259 1066 316 C 1084 372 1094 435 1094 504 C 1094 642 1062 751 998 833 C 934 915 845 956 729 956 C 647 956 575 934 515 891 C 454 848 411 789 385 715 L 385 229 Z M 57 -387 L 283 -367 L 283 893 C 241 872 195 860 145 857 C 95 853 46 856 -2 866 L -2 911 C 64 909 124 920 179 942 C 234 964 284 998 328 1044 L 383 1028 L 383 834 C 418 899 466 950 528 986 C 590 1022 661 1040 743 1040 C 813 1040 876 1027 932 1001 C 988 975 1035 939 1074 892 C 1113 844 1143 788 1163 723 C 1183 657 1194 585 1194 506 C 1194 425 1182 351 1159 284 C 1135 217 1103 160 1062 112 C 1020 63 969 25 911 -1 C 852 -27 788 -41 719 -41 C 646 -41 581 -27 525 -1 C 468 25 421 65 385 117 L 385 -367 L 627 -387 L 627 -446 L 57 -446 L 57 -387 Z" unicode="p" />
<glyph horiz-adv-x="1223" d="M 1024 1022 L 1024 -367 L 1253 -387 L 1251 -446 L 670 -446 L 670 -387 L 920 -367 L 920 156 C 884 92 835 44 774 10 C 712 -24 642 -41 563 -41 C 493 -41 431 -28 375 -2 C 319 24 271 60 232 106 C 193 152 163 208 142 274 C 121 340 111 412 111 492 C 111 572 122 645 145 712 C 168 779 201 837 244 886 C 286 934 336 971 395 999 C 453 1026 518 1040 590 1040 C 664 1040 730 1025 787 995 C 843 965 890 923 928 870 L 973 1022 L 1024 1022 Z M 311 164 C 342 124 380 93 426 72 C 471 51 522 41 578 41 C 659 41 730 61 790 101 C 850 141 894 198 920 270 L 920 274 L 922 762 C 890 823 845 871 788 906 C 730 940 666 958 596 958 C 538 958 486 946 439 924 C 392 902 352 870 318 829 C 284 788 258 739 240 683 C 222 626 213 564 213 496 C 213 426 221 363 238 307 C 255 251 279 203 311 164 Z" unicode="q" />
<glyph horiz-adv-x="967" d="M 792 910 C 781 916 769 922 757 928 C 745 933 729 936 711 936 C 659 936 609 912 561 864 C 513 816 473 751 442 668 L 442 78 L 694 59 L 694 0 L 96 0 L 96 59 L 340 80 L 340 891 C 299 870 254 858 204 856 C 154 853 104 856 55 866 L 55 911 C 123 909 184 920 239 942 C 293 964 341 998 383 1044 L 440 1028 L 440 795 C 472 864 516 922 570 969 C 624 1016 686 1040 756 1040 C 798 1040 834 1031 865 1015 C 895 999 911 976 911 946 C 911 930 905 915 894 903 C 882 891 868 885 852 885 C 840 885 829 887 820 893 C 811 898 802 904 792 910 Z" unicode="r" />
<glyph horiz-adv-x="1040" d="M 903 657 L 852 647 L 786 762 C 749 827 707 876 661 910 C 615 944 552 961 473 961 C 429 961 392 955 360 945 C 328 935 303 921 284 905 C 264 889 249 870 240 848 C 231 826 227 802 227 778 C 227 741 236 710 256 686 C 275 661 299 641 329 625 C 358 608 390 594 426 583 C 461 572 495 563 528 555 C 584 539 636 524 685 508 C 733 492 776 473 812 451 C 848 427 876 399 897 365 C 917 331 928 290 928 242 C 928 156 896 87 833 36 C 770 -15 686 -41 582 -41 C 491 -41 415 -22 355 15 C 294 53 244 104 205 170 L 211 -23 L 154 -23 L 86 377 L 139 387 L 203 283 C 253 201 306 139 362 98 C 418 57 487 37 569 37 C 648 37 711 54 759 89 C 807 123 831 171 831 233 C 831 267 823 297 807 321 C 791 345 769 367 741 385 C 712 403 678 418 639 431 C 599 444 556 457 508 469 C 472 478 433 489 389 503 C 345 517 304 535 266 559 C 228 582 196 611 170 646 C 144 680 131 724 131 776 C 131 812 138 847 153 880 C 168 913 190 941 218 965 C 246 987 280 1005 320 1019 C 360 1033 407 1040 459 1040 C 541 1040 607 1024 659 992 C 711 960 751 920 780 874 L 782 1044 L 838 1044 L 903 657 Z" unicode="s" />
<glyph horiz-adv-x="846" d="M 735 233 L 795 211 C 778 137 743 76 691 29 C 638 -17 567 -41 479 -41 C 439 -41 402 -34 367 -21 C 332 -8 302 11 276 38 C 250 64 230 99 215 141 C 200 183 193 235 193 295 L 193 913 L -6 913 L -6 975 L 188 993 L 240 1350 L 297 1350 L 297 997 L 662 997 L 662 913 L 297 913 L 297 274 C 297 196 314 138 350 100 C 385 62 434 43 496 43 C 557 43 607 59 647 92 C 687 124 716 171 735 233 Z" unicode="t" />
<glyph horiz-adv-x="1323" d="M 977 193 C 931 125 873 69 802 25 C 731 -18 652 -41 565 -41 C 503 -41 451 -31 408 -12 C 365 6 330 32 304 65 C 277 97 258 133 246 175 C 234 217 229 261 229 307 L 229 885 C 192 867 151 857 107 855 C 63 853 19 856 -25 866 L -25 911 C 39 909 95 920 141 942 C 187 964 232 998 276 1044 L 332 1028 L 332 313 C 332 231 353 165 396 117 C 439 69 501 45 582 45 C 662 45 736 67 805 112 C 874 157 931 214 975 283 L 975 891 C 933 870 888 858 838 856 C 788 853 740 856 692 866 L 692 911 C 758 909 819 920 874 942 C 928 964 978 998 1022 1044 L 1079 1028 L 1079 61 L 1305 61 L 1305 6 L 985 -25 L 979 -20 L 977 193 Z" unicode="u" />
<glyph horiz-adv-x="1245" d="M 1214 940 L 1044 920 L 670 -4 L 573 -4 L 201 920 L 31 940 L 31 997 L 535 997 L 535 940 L 303 920 L 625 104 L 944 920 L 709 940 L 709 997 L 1214 997 L 1214 940 Z" unicode="v" />
<glyph horiz-adv-x="1757" d="M 641 997 L 1118 997 L 1118 940 L 938 920 L 1188 119 L 1194 119 L 1462 918 L 1292 940 L 1292 997 L 1726 997 L 1726 940 L 1552 918 L 1235 -4 L 1139 -4 L 879 827 L 877 827 L 616 -4 L 522 -4 L 201 920 L 31 940 L 31 997 L 465 997 L 465 940 L 299 920 L 565 119 L 573 119 L 823 920 L 641 940 L 641 997 Z" unicode="w" />
<glyph horiz-adv-x="1282" d="M 68 59 L 231 76 L 580 500 L 229 922 L 76 940 L 76 997 L 555 997 L 555 940 L 348 920 L 643 559 L 936 920 L 729 940 L 729 997 L 1206 997 L 1206 940 L 1049 922 L 700 498 L 1047 76 L 1214 59 L 1214 0 L 725 0 L 725 57 L 932 76 L 635 438 L 340 76 L 551 57 L 551 0 L 68 0 L 68 59 Z" unicode="x" />
<glyph horiz-adv-x="1266" d="M 559 -66 L 592 14 L 193 920 L 31 938 L 31 997 L 535 997 L 535 940 L 299 920 L 643 133 L 963 920 L 709 940 L 709 997 L 1235 997 L 1235 938 L 1063 920 L 680 -10 C 643 -98 607 -172 572 -231 C 537 -289 502 -337 467 -373 C 431 -408 394 -433 355 -448 C 316 -463 275 -471 231 -471 C 161 -471 106 -459 66 -436 C 26 -412 6 -386 6 -356 C 6 -337 11 -322 22 -311 C 33 -300 46 -295 61 -295 C 77 -295 91 -299 101 -309 C 111 -319 122 -329 134 -340 C 146 -350 160 -360 176 -370 C 192 -380 215 -385 244 -385 C 268 -385 293 -379 319 -368 C 345 -357 371 -339 398 -315 C 424 -291 451 -258 478 -217 C 504 -176 531 -126 559 -66 Z" unicode="y" />
<glyph horiz-adv-x="1087" d="M 106 0 L 106 51 L 811 920 L 289 920 L 170 674 L 125 684 L 209 997 L 950 997 L 950 944 L 246 78 L 827 78 L 946 375 L 991 365 L 909 0 L 106 0 Z" unicode="z" />
<glyph horiz-adv-x="758" d="M 270 156 C 278 190 286 222 294 254 C 301 285 305 315 305 344 C 305 394 292 437 266 473 C 240 508 195 526 131 526 L 31 526 L 31 606 L 131 606 C 196 606 241 623 267 658 C 292 693 305 736 305 788 C 305 816 301 846 294 878 C 286 910 278 943 269 977 C 260 1011 252 1046 244 1082 C 236 1118 233 1156 233 1194 C 233 1234 241 1270 258 1301 C 274 1332 297 1357 325 1377 C 353 1397 385 1411 423 1420 C 460 1429 501 1433 545 1432 L 545 1364 C 502 1365 467 1360 439 1350 C 411 1340 389 1326 373 1310 C 356 1292 344 1273 338 1253 C 331 1233 328 1212 328 1192 C 328 1162 331 1129 339 1095 C 346 1061 354 1026 362 990 C 370 954 378 917 386 881 C 393 845 397 810 397 778 C 397 726 384 681 360 645 C 336 608 300 581 254 565 C 299 547 334 520 359 483 C 384 446 397 403 397 354 C 397 320 393 285 386 249 C 378 213 370 176 362 140 C 354 104 346 69 339 35 C 331 1 328 -31 328 -61 C 328 -81 331 -102 338 -123 C 344 -143 356 -162 373 -178 C 389 -194 411 -208 439 -218 C 467 -228 502 -233 545 -233 L 545 -301 C 501 -302 460 -298 423 -289 C 385 -280 353 -266 326 -246 C 298 -225 276 -199 260 -169 C 244 -138 236 -102 236 -61 C 236 -23 239 14 247 50 C 254 86 262 121 270 156 Z" unicode="{" />
<glyph horiz-adv-x="479" d="M 287 -342 L 188 -342 L 188 1554 L 287 1554 L 287 -342 Z" unicode="|" />
<glyph horiz-adv-x="758" d="M 488 156 C 479 190 471 222 464 254 C 456 285 453 315 453 344 C 453 394 466 437 492 473 C 518 508 563 526 627 526 L 727 526 L 727 606 L 627 606 C 561 606 516 623 491 658 C 465 693 453 736 453 788 C 453 816 456 846 464 878 C 471 910 479 943 489 977 C 497 1011 505 1046 513 1082 C 521 1118 525 1156 525 1194 C 525 1234 516 1270 500 1301 C 483 1332 461 1357 433 1377 C 405 1397 372 1411 335 1420 C 297 1429 257 1433 213 1432 L 213 1364 C 255 1365 291 1360 319 1350 C 347 1340 369 1326 385 1310 C 401 1292 413 1273 420 1253 C 426 1233 430 1212 430 1192 C 430 1162 426 1129 419 1095 C 411 1061 404 1026 396 990 C 387 954 379 917 372 881 C 364 845 361 810 361 778 C 361 726 373 681 397 645 C 421 608 457 581 504 565 C 458 547 423 520 398 483 C 373 446 361 403 361 354 C 361 320 364 285 372 249 C 379 213 387 176 396 140 C 404 104 411 69 419 35 C 426 1 430 -31 430 -61 C 430 -81 426 -102 420 -123 C 413 -143 401 -162 385 -178 C 369 -194 347 -208 319 -218 C 291 -228 255 -233 213 -233 L 213 -301 C 257 -302 297 -298 335 -289 C 372 -280 404 -266 432 -246 C 459 -225 481 -199 497 -169 C 513 -138 522 -102 522 -61 C 522 -23 518 14 511 50 C 503 86 496 121 488 156 Z" unicode="}" />
<glyph horiz-adv-x="1145" d="M 1047 907 C 1048 825 1026 759 982 711 C 937 663 878 639 805 639 C 754 639 710 650 672 673 C 634 695 599 720 565 748 C 531 774 496 799 461 822 C 425 844 385 856 340 856 C 292 856 253 838 224 804 C 194 769 180 723 180 666 L 98 666 C 96 749 117 815 161 863 C 205 911 264 936 338 936 C 391 936 438 924 478 902 C 518 879 556 854 591 827 C 625 799 659 774 692 752 C 724 730 761 719 801 719 C 849 719 889 736 919 770 C 949 804 965 849 965 907 L 1047 907 Z" unicode="~" />
<glyph horiz-adv-x="360" d="" unicode="" />
<glyph horiz-adv-x="418" d="M 143 -400 L 274 -400 C 274 -396 273 -377 273 -342 C 272 -308 271 -263 270 -209 C 268 -155 267 -94 265 -26 C 263 41 261 110 259 180 C 257 250 255 318 253 385 C 251 452 249 512 248 564 C 246 616 245 659 244 691 C 242 723 242 740 242 742 L 178 742 C 178 740 177 723 176 691 C 174 659 173 616 172 564 C 170 512 169 452 167 385 C 165 318 163 250 161 180 C 159 110 157 41 155 -26 C 153 -94 150 -155 148 -209 C 146 -263 144 -308 144 -342 C 143 -377 143 -396 143 -400 Z M 209 1128 C 184 1128 163 1120 146 1102 C 129 1085 121 1065 121 1043 C 121 1018 129 997 146 980 C 163 963 184 955 209 955 C 233 955 254 963 271 980 C 288 997 297 1018 297 1043 C 297 1065 288 1085 271 1102 C 254 1120 233 1128 209 1128 Z" unicode="" />
<glyph horiz-adv-x="1174" d="M 565 -209 L 565 0 C 497 5 435 22 379 52 C 323 81 275 120 236 168 C 196 216 165 271 143 335 C 121 398 111 468 111 545 C 111 623 121 694 142 760 C 163 825 193 882 233 930 C 273 977 321 1015 377 1045 C 433 1075 495 1092 565 1098 L 565 1317 L 639 1317 L 639 1100 C 730 1097 809 1074 877 1031 C 945 988 994 929 1024 854 C 1028 843 1031 832 1035 822 C 1038 812 1040 801 1040 791 C 1040 771 1034 756 1024 744 C 1013 732 999 727 983 727 C 966 727 954 730 946 736 C 938 742 932 749 928 759 C 924 767 920 778 918 790 C 916 802 913 815 909 829 C 893 881 860 924 811 959 C 761 994 704 1013 639 1016 L 639 80 C 725 82 797 105 857 147 C 916 189 961 248 993 324 C 999 322 1004 320 1010 318 C 1016 316 1021 314 1026 313 C 1034 309 1041 307 1047 305 C 1053 303 1057 303 1059 303 C 1029 213 979 140 909 84 C 839 28 749 -1 639 -4 L 639 -209 L 565 -209 Z M 309 866 C 279 825 255 778 239 724 C 223 670 215 610 215 545 C 215 415 245 308 307 226 C 368 143 454 95 565 82 L 565 1012 C 510 1004 461 988 418 964 C 375 940 339 907 309 866 Z" unicode="" />
<glyph horiz-adv-x="1266" d="M 145 164 C 145 124 159 93 188 71 C 216 49 253 39 297 39 C 340 39 380 51 418 76 C 456 100 481 136 494 182 C 462 210 430 235 398 256 C 366 276 329 287 289 287 C 245 287 210 276 184 255 C 158 233 145 203 145 164 Z M 100 590 L 100 662 L 309 662 C 276 719 247 778 223 840 C 198 901 186 966 186 1036 C 186 1093 195 1146 215 1196 C 234 1245 263 1287 301 1323 C 339 1358 385 1386 441 1407 C 496 1427 561 1438 635 1438 C 763 1438 860 1409 927 1353 C 994 1296 1028 1223 1028 1133 C 1028 1102 1022 1072 1012 1043 C 1002 1013 984 999 958 999 C 939 999 925 1004 916 1015 C 907 1026 903 1039 903 1053 C 903 1065 906 1080 912 1099 C 918 1118 922 1139 922 1163 C 922 1186 915 1209 903 1233 C 891 1256 872 1276 848 1294 C 823 1312 792 1326 755 1337 C 718 1348 675 1354 627 1354 C 569 1354 519 1345 477 1329 C 435 1313 400 1291 372 1263 C 344 1235 323 1201 309 1163 C 295 1125 289 1083 289 1038 C 289 968 302 903 330 842 C 357 780 388 720 424 662 L 899 662 L 899 590 L 467 590 C 501 534 530 478 556 423 C 581 367 594 310 594 252 C 594 245 593 238 593 230 C 592 222 591 215 590 209 C 630 169 674 134 721 102 C 767 70 825 55 893 55 C 968 55 1028 74 1073 112 C 1118 150 1152 204 1174 272 L 1241 256 C 1231 216 1217 179 1199 145 C 1180 111 1157 80 1130 54 C 1103 27 1070 6 1031 -8 C 992 -23 947 -31 897 -31 C 820 -31 756 -15 704 15 C 652 45 605 80 563 119 C 539 71 505 33 459 5 C 413 -23 361 -37 303 -37 C 226 -37 165 -17 121 20 C 77 58 55 107 55 166 C 55 226 76 274 119 312 C 162 350 219 369 289 369 C 332 369 370 361 403 347 C 436 333 467 315 496 293 C 486 341 467 389 440 438 C 412 487 383 538 352 590 L 100 590 Z" unicode="" />
<glyph horiz-adv-x="1569" d="M 887 1407 L 1499 1407 L 1499 1341 L 1243 1319 L 985 834 L 1300 834 L 1300 762 L 946 762 L 881 639 L 1300 639 L 1300 567 L 840 567 L 840 86 L 1149 66 L 1149 0 L 418 0 L 418 66 L 729 86 L 729 567 L 266 567 L 266 639 L 682 639 L 616 762 L 266 762 L 266 834 L 580 834 L 322 1321 L 72 1341 L 72 1407 L 684 1407 L 684 1341 L 432 1321 L 784 649 L 1141 1321 L 887 1341 L 887 1407 Z" unicode="" />
<glyph horiz-adv-x="479" d="M 287 668 L 188 668 L 188 1554 L 287 1554 L 287 668 Z M 287 -342 L 188 -342 L 188 545 L 287 545 L 287 -342 Z" unicode="" />
<glyph horiz-adv-x="979" d="M 713 677 C 685 698 653 717 617 733 C 581 749 542 765 500 780 C 490 782 477 786 462 792 C 447 798 433 803 420 809 C 354 806 300 785 256 747 C 212 709 190 654 190 584 C 190 544 197 510 211 484 C 225 457 245 434 271 415 C 296 395 325 378 359 364 C 393 350 429 338 467 326 C 487 318 507 312 527 306 C 547 300 567 293 588 287 C 650 292 701 312 741 346 C 781 380 801 430 801 498 C 801 538 793 573 777 602 C 761 630 740 655 713 677 Z M 785 744 C 820 719 848 687 869 649 C 890 611 901 564 901 508 C 901 436 883 379 848 335 C 812 291 764 260 702 242 C 750 218 789 188 820 151 C 850 114 866 65 866 4 C 866 -42 856 -83 838 -119 C 820 -154 794 -184 762 -209 C 729 -233 690 -252 646 -264 C 602 -276 553 -283 500 -283 C 427 -283 365 -273 315 -253 C 265 -233 223 -208 191 -180 C 159 -151 135 -121 120 -91 C 105 -60 98 -34 98 -14 C 98 2 102 16 112 28 C 122 40 136 47 156 47 C 169 47 179 44 187 38 C 195 32 201 24 205 14 C 209 4 212 -5 215 -17 C 217 -29 221 -41 225 -53 C 240 -98 271 -135 318 -163 C 365 -191 424 -205 494 -205 C 575 -205 641 -186 692 -149 C 742 -112 768 -63 768 -2 C 768 34 758 66 738 92 C 718 118 693 140 662 159 C 630 177 594 193 554 207 C 514 221 472 236 430 252 C 390 265 351 280 311 297 C 271 313 236 334 204 358 C 172 382 145 412 125 447 C 104 482 94 526 94 578 C 94 643 111 701 147 753 C 183 805 235 840 305 860 C 257 886 217 918 187 956 C 156 994 141 1045 141 1108 C 141 1142 147 1176 159 1212 C 171 1248 191 1280 219 1309 C 246 1337 282 1361 327 1379 C 372 1397 427 1407 492 1407 C 558 1407 615 1397 662 1379 C 709 1361 747 1338 777 1312 C 806 1285 827 1257 840 1229 C 853 1200 860 1175 860 1155 C 860 1137 855 1122 845 1112 C 835 1101 822 1096 805 1096 C 789 1096 778 1099 770 1106 C 762 1112 756 1121 752 1132 C 747 1142 744 1152 742 1164 C 740 1176 737 1186 735 1194 C 723 1230 695 1261 651 1287 C 607 1312 552 1325 485 1325 C 399 1325 336 1304 297 1263 C 257 1222 238 1174 238 1118 C 238 1078 246 1045 262 1019 C 278 992 301 969 329 949 C 357 929 388 913 424 899 C 459 885 496 872 535 858 C 579 843 623 827 667 809 C 711 791 750 769 785 744 Z" unicode="" />
<glyph horiz-adv-x="1229" d="M 791 1221 C 766 1221 745 1229 728 1246 C 710 1263 702 1284 702 1309 C 702 1333 710 1354 728 1371 C 745 1388 766 1397 791 1397 C 815 1397 835 1388 853 1371 C 870 1354 879 1333 879 1309 C 879 1284 870 1263 853 1246 C 835 1229 815 1221 791 1221 Z M 440 1221 C 415 1221 394 1229 377 1246 C 360 1263 352 1284 352 1309 C 352 1333 360 1354 377 1371 C 394 1388 415 1397 440 1397 C 464 1397 485 1388 503 1371 C 521 1354 530 1333 530 1309 C 530 1284 521 1263 503 1246 C 485 1229 464 1221 440 1221 Z" unicode="" />
<glyph horiz-adv-x="1575" d="M 270 178 C 204 243 152 321 114 411 C 76 501 57 599 57 705 C 57 809 76 907 114 997 C 152 1087 204 1166 270 1232 C 336 1298 413 1349 501 1387 C 589 1425 683 1444 784 1444 C 885 1444 980 1425 1069 1387 C 1157 1349 1234 1298 1300 1232 C 1366 1166 1418 1087 1456 997 C 1494 907 1513 809 1513 705 C 1513 599 1494 501 1456 411 C 1418 321 1366 243 1300 178 C 1234 112 1157 61 1069 23 C 980 -14 885 -33 784 -33 C 683 -33 589 -14 501 23 C 413 61 336 112 270 178 Z M 317 1189 C 258 1128 212 1056 178 973 C 144 889 127 798 127 700 C 127 604 144 516 178 434 C 212 352 258 281 318 221 C 378 161 447 114 527 80 C 607 46 693 29 786 29 C 878 29 963 46 1043 80 C 1123 114 1192 161 1252 221 C 1311 281 1358 352 1392 435 C 1426 517 1444 608 1444 707 C 1444 802 1426 891 1392 974 C 1358 1056 1311 1128 1251 1188 C 1191 1248 1120 1295 1040 1330 C 960 1364 874 1382 782 1382 C 690 1382 605 1365 525 1331 C 445 1297 376 1249 317 1189 Z M 1124 532 C 1101 458 1062 399 1006 355 C 950 311 878 289 791 289 C 733 289 681 299 634 319 C 586 339 546 368 513 404 C 479 440 453 483 435 533 C 417 583 408 638 408 698 C 408 761 416 818 434 870 C 452 922 477 967 510 1005 C 542 1042 582 1071 628 1092 C 674 1113 726 1124 784 1124 C 850 1124 906 1111 953 1087 C 1000 1063 1037 1032 1065 995 C 1075 980 1085 963 1094 943 C 1103 923 1108 903 1108 883 C 1108 866 1103 852 1093 842 C 1083 832 1071 827 1057 827 C 1031 827 1016 836 1012 854 C 1008 872 1002 892 995 915 C 984 955 959 987 921 1012 C 883 1036 838 1049 788 1049 C 696 1049 625 1017 573 953 C 521 889 496 804 496 698 C 496 597 522 516 574 454 C 626 392 698 362 788 362 C 858 362 915 378 961 411 C 1007 444 1041 491 1065 553 C 1070 551 1075 549 1080 547 C 1084 545 1089 544 1094 543 C 1102 539 1108 537 1113 535 C 1118 533 1122 532 1124 532 Z" unicode="" />
<glyph horiz-adv-x="926" d="M 184 829 C 184 785 199 753 230 731 C 260 709 298 698 342 698 C 396 698 447 711 493 739 C 539 766 576 795 602 825 L 602 1028 C 520 1026 452 1019 399 1007 C 345 995 303 980 271 962 C 239 943 216 922 203 899 C 190 875 184 852 184 829 Z M 184 1362 C 212 1386 245 1405 284 1417 C 323 1429 368 1436 418 1436 C 468 1436 511 1429 547 1416 C 582 1403 611 1385 633 1361 C 655 1337 670 1308 680 1275 C 689 1241 694 1205 694 1165 L 694 838 C 694 790 700 757 712 741 C 724 725 743 717 768 717 C 786 717 802 722 814 733 C 826 743 836 759 842 780 L 872 760 C 862 723 846 695 824 677 C 802 658 773 649 737 649 C 701 649 673 657 651 674 C 629 691 614 717 606 752 C 574 720 535 692 488 666 C 441 640 386 627 324 627 C 254 627 198 644 156 679 C 114 713 94 761 94 821 C 94 909 138 976 228 1020 C 317 1064 442 1088 602 1090 L 602 1171 C 602 1237 585 1285 553 1317 C 520 1348 474 1364 416 1364 C 365 1364 327 1356 303 1342 C 278 1328 259 1308 246 1282 C 234 1261 225 1243 218 1229 C 210 1215 197 1208 178 1208 C 161 1208 148 1212 140 1221 C 131 1229 127 1242 127 1260 C 127 1269 130 1283 138 1303 C 146 1323 161 1342 184 1362 Z" unicode="" />
<glyph horiz-adv-x="1028" d="M 942 987 L 545 496 L 942 0 L 838 0 L 444 487 L 444 498 L 842 987 L 942 987 Z M 565 987 L 166 496 L 563 0 L 459 0 L 63 487 L 63 498 L 463 987 L 565 987 Z" unicode="" />
<glyph horiz-adv-x="756" d="M 102 678 L 653 678 L 653 596 L 102 596 L 102 678 Z" unicode="" />
<glyph horiz-adv-x="907" d="M 167 750 C 131 785 102 827 82 877 C 61 927 51 981 51 1040 C 51 1098 61 1152 82 1202 C 102 1251 131 1294 167 1330 C 203 1366 245 1394 295 1415 C 344 1435 397 1446 453 1446 C 510 1446 563 1435 612 1415 C 661 1394 704 1366 740 1330 C 776 1294 805 1251 825 1202 C 845 1152 856 1098 856 1040 C 856 981 845 927 825 877 C 805 827 776 785 740 750 C 704 714 661 685 612 665 C 563 645 510 635 453 635 C 397 635 344 645 295 665 C 245 685 203 714 167 750 Z M 203 1298 C 171 1265 146 1226 128 1182 C 109 1138 100 1090 100 1038 C 100 986 109 939 128 895 C 146 851 172 813 204 781 C 236 749 273 723 316 705 C 359 687 405 678 455 678 C 503 678 549 687 592 705 C 635 723 673 749 705 781 C 736 813 761 851 779 896 C 797 940 807 988 807 1040 C 807 1090 797 1138 779 1182 C 761 1226 735 1265 703 1298 C 671 1331 633 1357 590 1375 C 547 1393 501 1403 453 1403 C 403 1403 357 1393 314 1375 C 271 1357 234 1331 203 1298 Z M 481 1196 L 371 1196 L 371 1044 L 485 1044 C 508 1044 526 1050 538 1064 C 550 1078 557 1096 557 1118 C 557 1141 550 1160 536 1174 C 522 1188 504 1196 481 1196 Z M 453 879 L 453 844 L 236 844 L 236 879 L 313 885 L 313 1198 L 236 1202 L 236 1239 L 494 1239 C 532 1239 561 1228 583 1207 C 605 1186 616 1156 616 1118 C 616 1086 607 1061 591 1041 C 575 1021 553 1008 526 1001 L 584 885 L 664 879 L 664 844 L 543 844 L 471 999 L 371 999 L 371 887 L 453 879 Z" unicode="" />
<glyph horiz-adv-x="1229" d="M 362 1337 L 868 1337 L 868 1264 L 362 1264 L 362 1337 Z" unicode="" />
<glyph horiz-adv-x="737" d="M 173 1339 C 197 1363 225 1382 259 1396 C 292 1410 329 1417 369 1417 C 409 1417 446 1410 479 1396 C 511 1382 540 1364 564 1340 C 588 1316 606 1288 619 1255 C 632 1222 639 1187 639 1151 C 639 1114 632 1079 619 1047 C 606 1015 588 987 564 963 C 540 938 511 919 478 905 C 444 891 408 885 369 885 C 329 885 292 891 259 905 C 225 919 197 938 173 962 C 149 985 130 1013 117 1046 C 104 1079 98 1114 98 1151 C 98 1187 104 1222 117 1254 C 130 1286 149 1315 173 1339 Z M 563 1151 C 563 1208 545 1255 509 1293 C 473 1331 426 1350 369 1350 C 311 1350 264 1331 228 1293 C 192 1255 174 1208 174 1151 C 174 1093 192 1045 228 1007 C 264 969 311 950 369 950 C 426 950 473 969 509 1007 C 545 1045 563 1093 563 1151 Z" unicode="" />
<glyph horiz-adv-x="967" d="M 438 1014 L 528 1014 L 528 678 L 864 678 L 864 598 L 528 598 L 528 256 L 438 256 L 438 598 L 102 598 L 102 678 L 438 678 L 438 1014 Z M 102 0 L 102 80 L 864 80 L 864 0 L 102 0 Z" unicode="" />
<glyph horiz-adv-x="762" d="M 572 1033 C 550 1009 523 987 491 965 C 459 943 425 920 389 897 C 351 873 319 852 293 833 C 267 814 245 795 228 777 C 211 759 198 740 188 720 C 178 700 171 678 166 654 L 573 654 L 657 875 L 702 862 L 639 588 L 74 588 L 74 608 C 74 650 83 689 102 725 C 121 760 145 792 173 821 C 201 849 230 875 262 898 C 293 920 322 940 348 957 C 412 997 463 1035 502 1071 C 541 1107 561 1151 561 1204 C 561 1252 545 1291 513 1321 C 481 1351 433 1366 369 1366 C 291 1366 232 1343 194 1297 C 156 1251 140 1194 147 1125 L 88 1118 C 80 1158 79 1197 87 1235 C 94 1273 110 1307 134 1337 C 158 1366 189 1389 229 1407 C 269 1425 317 1434 373 1434 C 463 1434 530 1413 575 1371 C 620 1329 643 1274 643 1206 C 643 1170 636 1139 624 1111 C 612 1083 594 1057 572 1033 Z" unicode="" />
<glyph horiz-adv-x="725" d="M 668 811 C 668 737 641 678 589 632 C 536 586 463 563 371 563 C 297 563 238 575 194 600 C 150 624 118 653 98 686 C 91 698 86 709 83 719 C 79 729 78 738 78 748 C 78 760 81 770 87 779 C 93 788 103 793 119 793 C 136 793 146 786 150 774 C 154 762 159 748 166 733 C 178 701 202 676 238 658 C 274 640 317 631 365 631 C 433 631 486 648 524 682 C 562 716 582 759 582 811 C 582 868 560 911 516 940 C 472 968 414 984 340 987 L 254 989 L 254 1051 L 340 1051 C 409 1051 460 1067 494 1099 C 528 1131 545 1169 545 1213 C 545 1255 528 1290 495 1320 C 462 1349 413 1364 348 1364 C 298 1364 256 1352 222 1330 C 187 1308 161 1271 143 1221 L 86 1235 C 96 1296 125 1344 172 1380 C 218 1416 280 1434 356 1434 C 401 1434 441 1428 475 1416 C 509 1404 537 1389 560 1369 C 582 1349 599 1327 611 1301 C 623 1275 629 1247 629 1219 C 629 1180 617 1143 595 1107 C 572 1071 535 1043 485 1024 C 542 1009 587 984 619 948 C 651 912 668 867 668 811 Z" unicode="" />
<glyph horiz-adv-x="1229" d="M 825 1442 L 543 1180 L 455 1180 L 455 1186 L 688 1448 L 825 1448 L 825 1442 Z" unicode="" />
<glyph horiz-adv-x="1370" d="M 657 -242 L 657 442 L 532 442 C 460 442 395 454 338 479 C 280 503 232 538 193 583 C 153 627 122 679 102 739 C 82 799 72 864 72 936 C 72 1005 82 1069 103 1128 C 124 1187 154 1238 194 1280 C 232 1322 279 1354 335 1378 C 390 1401 452 1413 520 1413 L 1257 1413 L 1257 1350 L 1016 1329 L 1016 -242 L 1274 -262 L 1274 -326 L 913 -326 L 913 1331 L 760 1331 L 760 -326 L 410 -326 L 410 -262 L 657 -242 Z" unicode="" />
<glyph horiz-adv-x="416" d="M 209 549 C 184 549 163 557 145 574 C 127 591 119 611 119 635 C 119 659 127 680 145 697 C 163 714 184 723 209 723 C 233 723 254 714 271 697 C 288 680 297 659 297 635 C 297 611 288 591 271 574 C 254 557 233 549 209 549 Z" unicode="" />
<glyph horiz-adv-x="1229" d="M 406 -348 L 449 -307 C 467 -338 490 -361 519 -377 C 547 -393 581 -401 621 -401 C 664 -401 700 -391 728 -372 C 756 -353 770 -326 770 -291 C 770 -251 752 -220 717 -199 C 681 -178 630 -175 563 -190 L 547 -174 L 610 0 L 680 0 L 629 -133 C 657 -129 685 -129 713 -135 C 740 -140 764 -149 784 -163 C 804 -175 821 -192 834 -214 C 847 -235 854 -259 854 -287 C 854 -343 831 -386 787 -417 C 743 -447 689 -463 627 -463 C 587 -463 546 -454 505 -438 C 464 -422 431 -392 406 -348 Z" unicode="" />
<glyph horiz-adv-x="569" d="M 76 635 L 240 649 L 240 1303 L 78 1194 L 47 1235 L 276 1430 L 324 1419 L 324 649 L 494 635 L 494 588 L 76 588 L 76 635 Z" unicode="" />
<glyph horiz-adv-x="948" d="M 201 739 C 168 775 143 817 125 867 C 107 917 98 972 98 1032 C 98 1092 107 1146 125 1196 C 143 1245 168 1287 201 1323 C 233 1358 272 1386 318 1406 C 364 1426 415 1436 473 1436 C 529 1436 580 1426 626 1406 C 672 1386 712 1358 745 1323 C 778 1287 803 1245 821 1196 C 839 1146 848 1092 848 1032 C 848 972 839 917 821 867 C 803 817 778 775 745 739 C 712 703 672 676 626 656 C 580 636 528 627 471 627 C 415 627 364 636 318 656 C 272 676 233 703 201 739 Z M 473 1364 C 387 1364 318 1334 268 1274 C 218 1214 193 1132 193 1030 C 193 930 218 850 268 789 C 318 728 387 698 473 698 C 560 698 629 728 680 788 C 730 848 756 929 756 1030 C 756 1131 730 1212 680 1273 C 629 1333 560 1364 473 1364 Z" unicode="" />
<glyph horiz-adv-x="1028" d="M 84 0 L 481 491 L 84 987 L 188 987 L 582 500 L 582 489 L 184 0 L 84 0 Z M 461 0 L 860 491 L 463 987 L 567 987 L 963 500 L 963 489 L 563 0 L 461 0 Z" unicode="" />
<glyph horiz-adv-x="1604" d="M 76 635 L 240 649 L 240 1303 L 78 1194 L 47 1235 L 276 1430 L 324 1419 L 324 649 L 494 635 L 494 588 L 76 588 L 76 635 Z M 1121 1415 L 455 0 L 365 0 L 1031 1415 L 1121 1415 Z M 1171 47 L 1314 61 L 1314 238 L 862 238 L 862 299 L 1314 825 L 1398 825 L 1398 301 L 1544 301 L 1544 238 L 1398 238 L 1398 61 L 1544 47 L 1544 0 L 1171 0 L 1171 47 Z M 952 301 L 1314 301 L 1314 725 L 952 301 Z" unicode="" />
<glyph horiz-adv-x="1657" d="M 1465 445 C 1443 421 1416 399 1384 377 C 1352 355 1318 332 1282 309 C 1244 285 1212 264 1186 245 C 1160 226 1138 207 1121 189 C 1104 171 1091 152 1081 132 C 1071 112 1064 90 1059 66 L 1466 66 L 1550 287 L 1595 274 L 1532 0 L 967 0 L 967 20 C 967 62 976 101 995 137 C 1014 172 1038 204 1066 233 C 1094 261 1123 287 1155 310 C 1186 332 1215 352 1241 369 C 1305 409 1356 447 1395 483 C 1434 519 1454 563 1454 616 C 1454 664 1438 703 1406 733 C 1374 763 1326 778 1262 778 C 1184 778 1125 755 1087 709 C 1049 663 1033 606 1040 537 L 981 530 C 973 570 972 609 980 647 C 987 685 1003 719 1027 749 C 1051 778 1082 801 1122 819 C 1162 837 1210 846 1266 846 C 1356 846 1423 825 1468 783 C 1513 741 1536 686 1536 618 C 1536 582 1529 551 1517 523 C 1505 495 1487 469 1465 445 Z M 76 635 L 240 649 L 240 1303 L 78 1194 L 47 1235 L 276 1430 L 324 1419 L 324 649 L 494 635 L 494 588 L 76 588 L 76 635 Z M 1121 1415 L 455 0 L 365 0 L 1031 1415 L 1121 1415 Z" unicode="" />
<glyph horiz-adv-x="1827" d="M 668 811 C 668 737 641 678 589 632 C 536 586 463 563 371 563 C 297 563 238 575 194 600 C 150 624 118 653 98 686 C 91 698 86 709 83 719 C 79 729 78 738 78 748 C 78 760 81 770 87 779 C 93 788 103 793 119 793 C 136 793 146 786 150 774 C 154 762 159 748 166 733 C 178 701 202 676 238 658 C 274 640 317 631 365 631 C 433 631 486 648 524 682 C 562 716 582 759 582 811 C 582 868 560 911 516 940 C 472 968 414 984 340 987 L 254 989 L 254 1051 L 340 1051 C 409 1051 460 1067 494 1099 C 528 1131 545 1169 545 1213 C 545 1255 528 1290 495 1320 C 462 1349 413 1364 348 1364 C 298 1364 256 1352 222 1330 C 187 1308 161 1271 143 1221 L 86 1235 C 96 1296 125 1344 172 1380 C 218 1416 280 1434 356 1434 C 401 1434 441 1428 475 1416 C 509 1404 537 1389 560 1369 C 582 1349 599 1327 611 1301 C 623 1275 629 1247 629 1219 C 629 1180 617 1143 595 1107 C 572 1071 535 1043 485 1024 C 542 1009 587 984 619 948 C 651 912 668 867 668 811 Z M 1319 1415 L 653 0 L 563 0 L 1229 1415 L 1319 1415 Z M 1395 47 L 1538 61 L 1538 238 L 1086 238 L 1086 299 L 1538 825 L 1622 825 L 1622 301 L 1768 301 L 1768 238 L 1622 238 L 1622 61 L 1768 47 L 1768 0 L 1395 0 L 1395 47 Z M 1176 301 L 1538 301 L 1538 725 L 1176 301 Z" unicode="" />
<glyph horiz-adv-x="954" d="M 321 400 C 369 430 410 457 445 483 C 479 509 497 540 497 576 C 497 598 489 617 475 631 C 461 645 443 653 422 653 C 420 653 417 652 413 652 C 409 651 403 650 397 649 L 413 715 C 421 717 428 718 435 719 C 442 720 449 721 456 721 C 493 721 524 707 550 681 C 575 654 588 620 588 580 C 588 551 581 525 569 503 C 557 480 540 459 520 440 C 499 421 476 403 450 387 C 424 371 397 354 370 336 C 340 316 310 296 280 274 C 250 252 223 228 200 201 C 177 173 158 142 143 106 C 128 70 121 29 121 -17 C 121 -63 129 -105 146 -144 C 163 -183 187 -217 219 -245 C 250 -274 288 -297 333 -313 C 378 -329 429 -337 487 -337 C 549 -337 603 -330 648 -314 C 692 -298 729 -278 758 -253 C 786 -229 808 -201 822 -170 C 836 -140 844 -109 844 -77 C 845 -41 841 -13 831 6 C 821 26 817 46 817 64 C 817 73 820 83 828 95 C 835 107 850 113 872 113 C 899 113 919 97 932 67 C 945 36 952 3 952 -32 C 952 -92 940 -146 918 -194 C 896 -242 864 -282 823 -316 C 782 -350 733 -376 675 -394 C 617 -412 553 -421 483 -421 C 407 -421 341 -411 284 -390 C 226 -370 178 -342 139 -306 C 99 -271 69 -229 49 -179 C 28 -130 18 -77 18 -19 C 18 37 27 87 45 129 C 63 171 88 209 118 242 C 147 274 180 303 216 329 C 252 354 287 378 321 400 Z M 485 1128 C 509 1128 530 1120 547 1102 C 564 1085 573 1065 573 1043 C 573 1018 564 997 547 980 C 530 963 509 955 485 955 C 460 955 439 963 422 980 C 405 997 397 1018 397 1043 C 397 1065 405 1085 422 1102 C 439 1120 460 1128 485 1128 Z" unicode="" />
<glyph horiz-adv-x="1569" d="M 780 1264 L 532 567 L 1030 567 L 784 1264 L 780 1264 Z M 653 63 L 653 0 L 41 0 L 41 63 L 262 82 L 707 1329 L 414 1350 L 414 1413 L 1157 1413 L 1157 1350 L 862 1329 L 1309 82 L 1528 63 L 1528 0 L 918 0 L 918 63 L 1202 84 L 1059 487 L 504 487 L 362 84 L 653 63 Z M 815 1575 L 539 1837 L 539 1843 L 674 1843 L 901 1581 L 901 1575 L 815 1575 Z" unicode="" />
<glyph horiz-adv-x="1569" d="M 780 1264 L 532 567 L 1030 567 L 784 1264 L 780 1264 Z M 653 63 L 653 0 L 41 0 L 41 63 L 262 82 L 707 1329 L 414 1350 L 414 1413 L 1157 1413 L 1157 1350 L 862 1329 L 1309 82 L 1528 63 L 1528 0 L 918 0 L 918 63 L 1202 84 L 1059 487 L 504 487 L 362 84 L 653 63 Z M 1042 1837 L 760 1575 L 672 1575 L 672 1581 L 905 1843 L 1042 1843 L 1042 1837 Z" unicode="" />
<glyph horiz-adv-x="1569" d="M 780 1264 L 532 567 L 1030 567 L 784 1264 L 780 1264 Z M 653 63 L 653 0 L 41 0 L 41 63 L 262 82 L 707 1329 L 414 1350 L 414 1413 L 1157 1413 L 1157 1350 L 862 1329 L 1309 82 L 1528 63 L 1528 0 L 918 0 L 918 63 L 1202 84 L 1059 487 L 504 487 L 362 84 L 653 63 Z M 997 1575 L 784 1767 L 573 1575 L 477 1575 L 477 1581 L 747 1845 L 823 1845 L 1094 1581 L 1094 1575 L 997 1575 Z" unicode="" />
<glyph horiz-adv-x="1569" d="M 780 1264 L 532 567 L 1030 567 L 784 1264 L 780 1264 Z M 653 63 L 653 0 L 41 0 L 41 63 L 262 82 L 707 1329 L 414 1350 L 414 1413 L 1157 1413 L 1157 1350 L 862 1329 L 1309 82 L 1528 63 L 1528 0 L 918 0 L 918 63 L 1202 84 L 1059 487 L 504 487 L 362 84 L 653 63 Z M 532 1614 L 457 1614 C 457 1650 462 1682 472 1708 C 482 1734 495 1754 513 1770 C 530 1786 549 1797 570 1805 C 591 1812 613 1816 637 1816 C 667 1816 695 1808 721 1792 C 747 1776 772 1760 796 1742 C 820 1723 843 1706 866 1690 C 889 1674 914 1667 940 1667 C 968 1667 991 1679 1009 1704 C 1027 1728 1036 1760 1036 1800 L 1112 1800 C 1112 1762 1106 1730 1096 1704 C 1086 1678 1073 1656 1057 1640 C 1040 1624 1021 1612 1001 1605 C 981 1598 960 1595 940 1595 C 908 1595 880 1602 854 1618 C 828 1634 803 1651 779 1670 C 755 1688 731 1705 708 1721 C 685 1737 661 1745 637 1745 C 605 1745 580 1733 561 1709 C 541 1685 532 1653 532 1614 Z" unicode="" />
<glyph horiz-adv-x="1569" d="M 780 1264 L 532 567 L 1030 567 L 784 1264 L 780 1264 Z M 653 63 L 653 0 L 41 0 L 41 63 L 262 82 L 707 1329 L 414 1350 L 414 1413 L 1157 1413 L 1157 1350 L 862 1329 L 1309 82 L 1528 63 L 1528 0 L 918 0 L 918 63 L 1202 84 L 1059 487 L 504 487 L 362 84 L 653 63 Z M 961 1616 C 936 1616 915 1624 898 1641 C 880 1658 872 1679 872 1704 C 872 1728 880 1749 898 1766 C 915 1783 936 1792 961 1792 C 985 1792 1005 1783 1023 1766 C 1040 1749 1049 1728 1049 1704 C 1049 1679 1040 1658 1023 1641 C 1005 1624 985 1616 961 1616 Z M 610 1616 C 585 1616 564 1624 547 1641 C 530 1658 522 1679 522 1704 C 522 1728 530 1749 547 1766 C 564 1783 585 1792 610 1792 C 634 1792 655 1783 673 1766 C 691 1749 700 1728 700 1704 C 700 1679 691 1658 673 1641 C 655 1624 634 1616 610 1616 Z" unicode="" />
<glyph horiz-adv-x="1569" d="M 780 1264 L 532 567 L 1030 567 L 784 1264 L 780 1264 Z M 653 63 L 653 0 L 41 0 L 41 63 L 262 82 L 707 1329 L 414 1350 L 414 1413 L 1157 1413 L 1157 1350 L 862 1329 L 1309 82 L 1528 63 L 1528 0 L 918 0 L 918 63 L 1202 84 L 1059 487 L 504 487 L 362 84 L 653 63 Z M 604 1732 C 604 1782 620 1824 654 1858 C 688 1891 731 1908 784 1908 C 837 1908 880 1891 914 1858 C 948 1824 965 1782 965 1732 C 965 1680 948 1637 914 1603 C 880 1569 837 1552 784 1552 C 731 1552 688 1569 654 1603 C 620 1637 604 1680 604 1732 Z M 899 1731 C 899 1766 888 1795 867 1818 C 846 1841 818 1852 784 1852 C 750 1852 722 1841 701 1818 C 680 1795 670 1766 670 1731 C 670 1696 680 1667 701 1644 C 722 1620 750 1608 784 1608 C 818 1608 846 1620 867 1644 C 888 1667 899 1696 899 1731 Z" unicode="" />
<glyph horiz-adv-x="2107" d="M 784 1274 L 516 567 L 1018 567 L 788 1274 L 784 1274 Z M 918 0 L 918 63 L 1176 82 L 1044 487 L 485 487 L 332 84 L 637 63 L 637 0 L 25 0 L 25 63 L 227 82 L 707 1329 L 406 1350 L 406 1413 L 1833 1413 L 1972 977 L 1917 963 L 1743 1331 L 868 1331 L 1049 786 L 1516 786 L 1548 1051 L 1606 1051 L 1606 453 L 1548 453 L 1516 705 L 1077 705 L 1282 82 L 1810 82 L 1974 551 L 2030 541 L 1901 0 L 918 0 Z" unicode="" />
<glyph horiz-adv-x="1427" d="M 526 -348 L 569 -307 C 587 -338 611 -361 640 -377 C 668 -393 702 -401 741 -401 C 785 -401 821 -391 849 -372 C 877 -353 891 -326 891 -291 C 891 -251 873 -220 837 -199 C 801 -178 750 -175 684 -190 L 668 -174 L 717 -41 C 632 -37 553 -17 480 16 C 407 50 343 99 289 163 C 234 226 191 303 160 394 C 128 484 113 588 113 705 C 113 823 129 929 163 1021 C 196 1113 241 1190 298 1254 C 354 1318 420 1366 495 1400 C 570 1433 650 1450 735 1450 C 821 1450 899 1432 969 1396 C 1039 1360 1100 1311 1151 1247 L 1157 1450 L 1210 1450 L 1309 887 L 1255 874 L 1208 995 C 1164 1108 1104 1197 1027 1263 C 949 1329 855 1362 745 1362 C 673 1362 605 1347 541 1319 C 477 1290 422 1248 375 1193 C 327 1137 289 1068 262 986 C 234 903 221 808 221 702 C 221 594 235 500 263 419 C 291 337 329 269 378 214 C 426 158 483 117 549 89 C 614 61 684 47 758 47 C 827 47 887 56 939 76 C 990 96 1034 123 1072 157 C 1109 190 1141 230 1168 276 C 1194 322 1217 372 1237 426 L 1298 403 C 1280 341 1257 285 1229 233 C 1200 181 1164 136 1122 96 C 1080 56 1031 25 975 2 C 919 -21 855 -35 784 -39 L 750 -133 C 778 -129 806 -129 833 -135 C 860 -140 884 -149 905 -163 C 925 -175 942 -192 955 -214 C 968 -235 975 -259 975 -287 C 975 -343 952 -386 908 -417 C 864 -447 810 -463 748 -463 C 708 -463 667 -454 626 -438 C 585 -422 552 -392 526 -348 Z" unicode="" />
<glyph horiz-adv-x="1513" d="M 96 0 L 96 63 L 395 84 L 395 1329 L 96 1350 L 96 1413 L 1251 1413 L 1403 977 L 1348 963 L 1157 1331 L 506 1331 L 506 776 L 932 776 L 967 1038 L 1024 1038 L 1024 440 L 967 440 L 930 694 L 506 694 L 506 82 L 1219 82 L 1380 551 L 1436 541 L 1313 0 L 96 0 Z M 827 1575 L 551 1837 L 551 1843 L 686 1843 L 913 1581 L 913 1575 L 827 1575 Z" unicode="" />
<glyph horiz-adv-x="1513" d="M 1054 1837 L 772 1575 L 684 1575 L 684 1581 L 917 1843 L 1054 1843 L 1054 1837 Z M 96 0 L 96 63 L 395 84 L 395 1329 L 96 1350 L 96 1413 L 1251 1413 L 1403 977 L 1348 963 L 1157 1331 L 506 1331 L 506 776 L 932 776 L 967 1038 L 1024 1038 L 1024 440 L 967 440 L 930 694 L 506 694 L 506 82 L 1219 82 L 1380 551 L 1436 541 L 1313 0 L 96 0 Z" unicode="" />
<glyph horiz-adv-x="1513" d="M 1009 1575 L 796 1767 L 585 1575 L 489 1575 L 489 1581 L 759 1845 L 835 1845 L 1106 1581 L 1106 1575 L 1009 1575 Z M 96 0 L 96 63 L 395 84 L 395 1329 L 96 1350 L 96 1413 L 1251 1413 L 1403 977 L 1348 963 L 1157 1331 L 506 1331 L 506 776 L 932 776 L 967 1038 L 1024 1038 L 1024 440 L 967 440 L 930 694 L 506 694 L 506 82 L 1219 82 L 1380 551 L 1436 541 L 1313 0 L 96 0 Z" unicode="" />
<glyph horiz-adv-x="1513" d="M 971 1616 C 946 1616 925 1624 908 1641 C 890 1658 882 1679 882 1704 C 882 1728 890 1749 908 1766 C 925 1783 946 1792 971 1792 C 995 1792 1015 1783 1033 1766 C 1050 1749 1059 1728 1059 1704 C 1059 1679 1050 1658 1033 1641 C 1015 1624 995 1616 971 1616 Z M 620 1616 C 595 1616 574 1624 557 1641 C 540 1658 532 1679 532 1704 C 532 1728 540 1749 557 1766 C 574 1783 595 1792 620 1792 C 644 1792 665 1783 683 1766 C 701 1749 710 1728 710 1704 C 710 1679 701 1658 683 1641 C 665 1624 644 1616 620 1616 Z M 96 0 L 96 63 L 395 84 L 395 1329 L 96 1350 L 96 1413 L 1251 1413 L 1403 977 L 1348 963 L 1157 1331 L 506 1331 L 506 776 L 932 776 L 967 1038 L 1024 1038 L 1024 440 L 967 440 L 930 694 L 506 694 L 506 82 L 1219 82 L 1380 551 L 1436 541 L 1313 0 L 96 0 Z" unicode="" />
<glyph horiz-adv-x="905" d="M 807 0 L 96 0 L 96 63 L 397 84 L 397 1329 L 96 1350 L 96 1413 L 807 1413 L 807 1350 L 506 1327 L 506 84 L 807 63 L 807 0 Z M 483 1575 L 207 1837 L 207 1843 L 342 1843 L 569 1581 L 569 1575 L 483 1575 Z" unicode="" />
<glyph horiz-adv-x="905" d="M 807 0 L 96 0 L 96 63 L 397 84 L 397 1329 L 96 1350 L 96 1413 L 807 1413 L 807 1350 L 506 1327 L 506 84 L 807 63 L 807 0 Z M 710 1837 L 428 1575 L 340 1575 L 340 1581 L 573 1843 L 710 1843 L 710 1837 Z" unicode="" />
<glyph horiz-adv-x="905" d="M 807 0 L 96 0 L 96 63 L 397 84 L 397 1329 L 96 1350 L 96 1413 L 807 1413 L 807 1350 L 506 1327 L 506 84 L 807 63 L 807 0 Z M 665 1575 L 452 1767 L 241 1575 L 145 1575 L 145 1581 L 415 1845 L 491 1845 L 762 1581 L 762 1575 L 665 1575 Z" unicode="" />
<glyph horiz-adv-x="905" d="M 807 0 L 96 0 L 96 63 L 397 84 L 397 1329 L 96 1350 L 96 1413 L 807 1413 L 807 1350 L 506 1327 L 506 84 L 807 63 L 807 0 Z M 627 1616 C 602 1616 581 1624 564 1641 C 546 1658 538 1679 538 1704 C 538 1728 546 1749 564 1766 C 581 1783 602 1792 627 1792 C 651 1792 671 1783 689 1766 C 706 1749 715 1728 715 1704 C 715 1679 706 1658 689 1641 C 671 1624 651 1616 627 1616 Z M 276 1616 C 251 1616 230 1624 213 1641 C 196 1658 188 1679 188 1704 C 188 1728 196 1749 213 1766 C 230 1783 251 1792 276 1792 C 300 1792 321 1783 339 1766 C 357 1749 366 1728 366 1704 C 366 1679 357 1658 339 1641 C 321 1624 300 1616 276 1616 Z" unicode="" />
<glyph horiz-adv-x="1571" d="M 96 1413 L 838 1413 C 937 1413 1026 1396 1106 1362 C 1185 1328 1252 1280 1308 1220 C 1363 1158 1405 1085 1435 1001 C 1464 916 1479 823 1479 723 C 1479 619 1463 523 1431 435 C 1399 347 1355 270 1299 206 C 1242 141 1174 90 1095 54 C 1016 18 929 0 834 0 L 96 0 L 96 63 L 395 84 L 395 688 L 96 688 L 96 766 L 395 766 L 395 1329 L 96 1350 L 96 1413 Z M 815 1331 L 506 1331 L 506 766 L 848 766 L 848 688 L 506 688 L 506 82 L 817 82 C 900 82 976 98 1044 130 C 1112 162 1171 206 1219 264 C 1266 321 1303 389 1330 467 C 1356 545 1370 629 1370 721 C 1370 811 1357 893 1333 968 C 1308 1043 1272 1108 1226 1162 C 1178 1216 1120 1257 1051 1287 C 982 1316 903 1331 815 1331 Z" unicode="" />
<glyph horiz-adv-x="1810" d="M 1008 1413 L 1714 1413 L 1714 1350 L 1415 1329 L 1415 -2 L 1327 -2 L 494 1282 L 498 84 L 811 63 L 811 0 L 96 0 L 96 63 L 395 84 L 395 1327 L 96 1350 L 96 1413 L 815 1413 L 815 1350 L 569 1333 L 1317 180 L 1313 1327 L 1008 1350 L 1008 1413 Z M 653 1614 L 578 1614 C 578 1650 583 1682 593 1708 C 603 1734 616 1754 634 1770 C 651 1786 670 1797 691 1805 C 712 1812 734 1816 758 1816 C 788 1816 816 1808 842 1792 C 868 1776 893 1760 917 1742 C 941 1723 964 1706 987 1690 C 1010 1674 1035 1667 1061 1667 C 1089 1667 1112 1679 1130 1704 C 1148 1728 1157 1760 1157 1800 L 1233 1800 C 1233 1762 1227 1730 1217 1704 C 1207 1678 1194 1656 1178 1640 C 1161 1624 1142 1612 1122 1605 C 1102 1598 1081 1595 1061 1595 C 1029 1595 1001 1602 975 1618 C 949 1634 924 1651 900 1670 C 876 1688 852 1705 829 1721 C 806 1737 782 1745 758 1745 C 726 1745 701 1733 682 1709 C 662 1685 653 1653 653 1614 Z" unicode="" />
<glyph horiz-adv-x="1577" d="M 1263 1254 C 1323 1190 1371 1112 1407 1020 C 1442 927 1460 822 1460 705 C 1460 587 1442 481 1407 389 C 1371 296 1323 218 1263 155 C 1201 91 1130 42 1048 9 C 966 -24 879 -41 786 -41 C 694 -41 608 -24 527 9 C 446 42 375 91 314 155 C 253 218 205 296 170 389 C 134 481 117 587 117 705 C 117 822 134 927 170 1020 C 205 1112 253 1190 314 1254 C 375 1318 446 1366 527 1400 C 608 1433 695 1450 788 1450 C 880 1450 966 1433 1048 1400 C 1130 1366 1201 1318 1263 1254 Z M 392 1193 C 340 1137 300 1069 270 987 C 240 905 225 811 225 705 C 225 598 240 504 270 422 C 300 340 340 271 392 216 C 443 160 502 118 570 90 C 638 61 710 47 786 47 C 864 47 937 61 1005 90 C 1073 118 1133 160 1185 216 C 1236 271 1277 340 1307 422 C 1337 504 1352 598 1352 705 C 1352 811 1337 905 1307 987 C 1277 1069 1236 1137 1185 1193 C 1133 1248 1073 1290 1005 1319 C 937 1347 864 1362 786 1362 C 710 1362 638 1347 570 1319 C 502 1290 443 1248 392 1193 Z M 819 1575 L 543 1837 L 543 1843 L 678 1843 L 905 1581 L 905 1575 L 819 1575 Z" unicode="" />
<glyph horiz-adv-x="1577" d="M 1044 1837 L 762 1575 L 674 1575 L 674 1581 L 907 1843 L 1044 1843 L 1044 1837 Z M 1263 1254 C 1323 1190 1371 1112 1407 1020 C 1442 927 1460 822 1460 705 C 1460 587 1442 481 1407 389 C 1371 296 1323 218 1263 155 C 1201 91 1130 42 1048 9 C 966 -24 879 -41 786 -41 C 694 -41 608 -24 527 9 C 446 42 375 91 314 155 C 253 218 205 296 170 389 C 134 481 117 587 117 705 C 117 822 134 927 170 1020 C 205 1112 253 1190 314 1254 C 375 1318 446 1366 527 1400 C 608 1433 695 1450 788 1450 C 880 1450 966 1433 1048 1400 C 1130 1366 1201 1318 1263 1254 Z M 392 1193 C 340 1137 300 1069 270 987 C 240 905 225 811 225 705 C 225 598 240 504 270 422 C 300 340 340 271 392 216 C 443 160 502 118 570 90 C 638 61 710 47 786 47 C 864 47 937 61 1005 90 C 1073 118 1133 160 1185 216 C 1236 271 1277 340 1307 422 C 1337 504 1352 598 1352 705 C 1352 811 1337 905 1307 987 C 1277 1069 1236 1137 1185 1193 C 1133 1248 1073 1290 1005 1319 C 937 1347 864 1362 786 1362 C 710 1362 638 1347 570 1319 C 502 1290 443 1248 392 1193 Z" unicode="" />
<glyph horiz-adv-x="1577" d="M 999 1575 L 786 1767 L 575 1575 L 479 1575 L 479 1581 L 749 1845 L 825 1845 L 1096 1581 L 1096 1575 L 999 1575 Z M 1263 1254 C 1323 1190 1371 1112 1407 1020 C 1442 927 1460 822 1460 705 C 1460 587 1442 481 1407 389 C 1371 296 1323 218 1263 155 C 1201 91 1130 42 1048 9 C 966 -24 879 -41 786 -41 C 694 -41 608 -24 527 9 C 446 42 375 91 314 155 C 253 218 205 296 170 389 C 134 481 117 587 117 705 C 117 822 134 927 170 1020 C 205 1112 253 1190 314 1254 C 375 1318 446 1366 527 1400 C 608 1433 695 1450 788 1450 C 880 1450 966 1433 1048 1400 C 1130 1366 1201 1318 1263 1254 Z M 392 1193 C 340 1137 300 1069 270 987 C 240 905 225 811 225 705 C 225 598 240 504 270 422 C 300 340 340 271 392 216 C 443 160 502 118 570 90 C 638 61 710 47 786 47 C 864 47 937 61 1005 90 C 1073 118 1133 160 1185 216 C 1236 271 1277 340 1307 422 C 1337 504 1352 598 1352 705 C 1352 811 1337 905 1307 987 C 1277 1069 1236 1137 1185 1193 C 1133 1248 1073 1290 1005 1319 C 937 1347 864 1362 786 1362 C 710 1362 638 1347 570 1319 C 502 1290 443 1248 392 1193 Z" unicode="" />
<glyph horiz-adv-x="1577" d="M 1263 1254 C 1323 1190 1371 1112 1407 1020 C 1442 927 1460 822 1460 705 C 1460 587 1442 481 1407 389 C 1371 296 1323 218 1263 155 C 1201 91 1130 42 1048 9 C 966 -24 879 -41 786 -41 C 694 -41 608 -24 527 9 C 446 42 375 91 314 155 C 253 218 205 296 170 389 C 134 481 117 587 117 705 C 117 822 134 927 170 1020 C 205 1112 253 1190 314 1254 C 375 1318 446 1366 527 1400 C 608 1433 695 1450 788 1450 C 880 1450 966 1433 1048 1400 C 1130 1366 1201 1318 1263 1254 Z M 392 1193 C 340 1137 300 1069 270 987 C 240 905 225 811 225 705 C 225 598 240 504 270 422 C 300 340 340 271 392 216 C 443 160 502 118 570 90 C 638 61 710 47 786 47 C 864 47 937 61 1005 90 C 1073 118 1133 160 1185 216 C 1236 271 1277 340 1307 422 C 1337 504 1352 598 1352 705 C 1352 811 1337 905 1307 987 C 1277 1069 1236 1137 1185 1193 C 1133 1248 1073 1290 1005 1319 C 937 1347 864 1362 786 1362 C 710 1362 638 1347 570 1319 C 502 1290 443 1248 392 1193 Z M 534 1614 L 459 1614 C 459 1650 464 1682 474 1708 C 484 1734 497 1754 515 1770 C 532 1786 551 1797 572 1805 C 593 1812 615 1816 639 1816 C 669 1816 697 1808 723 1792 C 749 1776 774 1760 798 1742 C 822 1723 845 1706 868 1690 C 891 1674 916 1667 942 1667 C 970 1667 993 1679 1011 1704 C 1029 1728 1038 1760 1038 1800 L 1114 1800 C 1114 1762 1108 1730 1098 1704 C 1088 1678 1075 1656 1059 1640 C 1042 1624 1023 1612 1003 1605 C 983 1598 962 1595 942 1595 C 910 1595 882 1602 856 1618 C 830 1634 805 1651 781 1670 C 757 1688 733 1705 710 1721 C 687 1737 663 1745 639 1745 C 607 1745 582 1733 563 1709 C 543 1685 534 1653 534 1614 Z" unicode="" />
<glyph horiz-adv-x="1577" d="M 963 1616 C 938 1616 917 1624 900 1641 C 882 1658 874 1679 874 1704 C 874 1728 882 1749 900 1766 C 917 1783 938 1792 963 1792 C 987 1792 1007 1783 1025 1766 C 1042 1749 1051 1728 1051 1704 C 1051 1679 1042 1658 1025 1641 C 1007 1624 987 1616 963 1616 Z M 612 1616 C 587 1616 566 1624 549 1641 C 532 1658 524 1679 524 1704 C 524 1728 532 1749 549 1766 C 566 1783 587 1792 612 1792 C 636 1792 657 1783 675 1766 C 693 1749 702 1728 702 1704 C 702 1679 693 1658 675 1641 C 657 1624 636 1616 612 1616 Z M 1263 1254 C 1323 1190 1371 1112 1407 1020 C 1442 927 1460 822 1460 705 C 1460 587 1442 481 1407 389 C 1371 296 1323 218 1263 155 C 1201 91 1130 42 1048 9 C 966 -24 879 -41 786 -41 C 694 -41 608 -24 527 9 C 446 42 375 91 314 155 C 253 218 205 296 170 389 C 134 481 117 587 117 705 C 117 822 134 927 170 1020 C 205 1112 253 1190 314 1254 C 375 1318 446 1366 527 1400 C 608 1433 695 1450 788 1450 C 880 1450 966 1433 1048 1400 C 1130 1366 1201 1318 1263 1254 Z M 392 1193 C 340 1137 300 1069 270 987 C 240 905 225 811 225 705 C 225 598 240 504 270 422 C 300 340 340 271 392 216 C 443 160 502 118 570 90 C 638 61 710 47 786 47 C 864 47 937 61 1005 90 C 1073 118 1133 160 1185 216 C 1236 271 1277 340 1307 422 C 1337 504 1352 598 1352 705 C 1352 811 1337 905 1307 987 C 1277 1069 1236 1137 1185 1193 C 1133 1248 1073 1290 1005 1319 C 937 1347 864 1362 786 1362 C 710 1362 638 1347 570 1319 C 502 1290 443 1248 392 1193 Z" unicode="" />
<glyph horiz-adv-x="967" d="M 844 328 L 782 270 L 479 569 L 176 270 L 121 326 L 424 625 L 123 924 L 184 983 L 483 684 L 784 983 L 840 928 L 539 629 L 844 328 Z" unicode="" />
<glyph horiz-adv-x="1577" d="M 786 -41 C 699 -41 617 -25 539 4 C 461 34 393 78 333 136 L 207 0 L 90 0 L 275 199 C 225 261 187 335 159 420 C 131 505 117 600 117 705 C 117 822 134 927 170 1020 C 205 1112 253 1190 314 1254 C 375 1318 446 1366 527 1400 C 608 1433 695 1450 788 1450 C 878 1450 964 1433 1046 1401 C 1127 1368 1198 1320 1259 1258 L 1403 1413 L 1518 1413 L 1314 1194 C 1359 1132 1395 1060 1421 978 C 1447 895 1460 804 1460 705 C 1460 587 1442 481 1407 389 C 1371 296 1323 218 1263 155 C 1201 91 1130 42 1048 9 C 966 -24 879 -41 786 -41 Z M 225 705 C 225 615 235 535 257 463 C 278 391 307 328 345 275 L 1191 1186 C 1190 1186 1189 1187 1188 1189 C 1186 1190 1185 1191 1185 1193 C 1133 1248 1073 1290 1005 1319 C 937 1347 864 1362 786 1362 C 710 1362 638 1347 570 1319 C 502 1290 443 1248 392 1193 C 340 1137 300 1069 270 987 C 240 905 225 811 225 705 Z M 786 47 C 864 47 937 61 1005 90 C 1073 118 1133 160 1185 216 C 1236 271 1277 340 1307 422 C 1337 504 1352 598 1352 705 C 1352 789 1342 865 1323 935 C 1303 1004 1277 1065 1243 1117 L 400 208 C 450 155 509 115 575 88 C 641 60 712 47 786 47 Z" unicode="" />
<glyph horiz-adv-x="1659" d="M 930 1413 L 1618 1413 L 1618 1350 L 1341 1329 L 1341 426 C 1341 350 1328 284 1304 226 C 1280 168 1245 119 1201 80 C 1157 40 1103 9 1040 -10 C 977 -30 907 -41 831 -41 C 753 -41 683 -30 620 -10 C 557 9 503 40 459 80 C 413 119 379 168 355 226 C 331 284 319 350 319 426 L 319 1329 L 41 1350 L 41 1413 L 731 1413 L 731 1350 L 428 1329 L 428 432 C 428 313 461 219 529 150 C 597 81 697 47 831 47 C 965 47 1066 81 1134 150 C 1202 219 1237 313 1237 432 L 1237 1329 L 930 1350 L 930 1413 Z M 860 1575 L 584 1837 L 584 1843 L 719 1843 L 946 1581 L 946 1575 L 860 1575 Z" unicode="" />
<glyph horiz-adv-x="1659" d="M 1087 1837 L 805 1575 L 717 1575 L 717 1581 L 950 1843 L 1087 1843 L 1087 1837 Z M 930 1413 L 1618 1413 L 1618 1350 L 1341 1329 L 1341 426 C 1341 350 1328 284 1304 226 C 1280 168 1245 119 1201 80 C 1157 40 1103 9 1040 -10 C 977 -30 907 -41 831 -41 C 753 -41 683 -30 620 -10 C 557 9 503 40 459 80 C 413 119 379 168 355 226 C 331 284 319 350 319 426 L 319 1329 L 41 1350 L 41 1413 L 731 1413 L 731 1350 L 428 1329 L 428 432 C 428 313 461 219 529 150 C 597 81 697 47 831 47 C 965 47 1066 81 1134 150 C 1202 219 1237 313 1237 432 L 1237 1329 L 930 1350 L 930 1413 Z" unicode="" />
<glyph horiz-adv-x="1659" d="M 1042 1575 L 829 1767 L 618 1575 L 522 1575 L 522 1581 L 792 1845 L 868 1845 L 1139 1581 L 1139 1575 L 1042 1575 Z M 930 1413 L 1618 1413 L 1618 1350 L 1341 1329 L 1341 426 C 1341 350 1328 284 1304 226 C 1280 168 1245 119 1201 80 C 1157 40 1103 9 1040 -10 C 977 -30 907 -41 831 -41 C 753 -41 683 -30 620 -10 C 557 9 503 40 459 80 C 413 119 379 168 355 226 C 331 284 319 350 319 426 L 319 1329 L 41 1350 L 41 1413 L 731 1413 L 731 1350 L 428 1329 L 428 432 C 428 313 461 219 529 150 C 597 81 697 47 831 47 C 965 47 1066 81 1134 150 C 1202 219 1237 313 1237 432 L 1237 1329 L 930 1350 L 930 1413 Z" unicode="" />
<glyph horiz-adv-x="1659" d="M 1006 1616 C 981 1616 960 1624 943 1641 C 925 1658 917 1679 917 1704 C 917 1728 925 1749 943 1766 C 960 1783 981 1792 1006 1792 C 1030 1792 1050 1783 1068 1766 C 1085 1749 1094 1728 1094 1704 C 1094 1679 1085 1658 1068 1641 C 1050 1624 1030 1616 1006 1616 Z M 655 1616 C 630 1616 609 1624 592 1641 C 575 1658 567 1679 567 1704 C 567 1728 575 1749 592 1766 C 609 1783 630 1792 655 1792 C 679 1792 700 1783 718 1766 C 736 1749 745 1728 745 1704 C 745 1679 736 1658 718 1641 C 700 1624 679 1616 655 1616 Z M 930 1413 L 1618 1413 L 1618 1350 L 1341 1329 L 1341 426 C 1341 350 1328 284 1304 226 C 1280 168 1245 119 1201 80 C 1157 40 1103 9 1040 -10 C 977 -30 907 -41 831 -41 C 753 -41 683 -30 620 -10 C 557 9 503 40 459 80 C 413 119 379 168 355 226 C 331 284 319 350 319 426 L 319 1329 L 41 1350 L 41 1413 L 731 1413 L 731 1350 L 428 1329 L 428 432 C 428 313 461 219 529 150 C 597 81 697 47 831 47 C 965 47 1066 81 1134 150 C 1202 219 1237 313 1237 432 L 1237 1329 L 930 1350 L 930 1413 Z" unicode="" />
<glyph horiz-adv-x="1475" d="M 1094 0 L 381 0 L 381 63 L 684 84 L 684 543 L 268 1329 L 41 1350 L 41 1413 L 612 1413 L 612 1350 L 379 1331 L 739 631 L 1102 1329 L 864 1350 L 864 1413 L 1434 1413 L 1434 1350 L 1206 1327 L 793 543 L 793 84 L 1094 63 L 1094 0 Z M 995 1837 L 713 1575 L 625 1575 L 625 1581 L 858 1843 L 995 1843 L 995 1837 Z" unicode="" />
<glyph horiz-adv-x="1466" d="M 821 1411 L 821 1348 L 504 1325 L 504 1116 L 981 1116 C 1043 1116 1100 1106 1151 1087 C 1201 1068 1244 1041 1280 1007 C 1315 971 1342 930 1361 882 C 1379 834 1389 782 1389 725 C 1389 667 1379 614 1361 564 C 1342 514 1315 471 1280 435 C 1244 399 1201 370 1150 350 C 1098 329 1040 319 975 319 L 504 319 L 504 84 L 821 63 L 821 0 L 96 0 L 96 63 L 393 84 L 393 1327 L 96 1348 L 96 1411 L 821 1411 Z M 965 1034 L 504 1034 L 504 399 L 963 399 C 1014 399 1059 407 1098 425 C 1137 442 1170 465 1197 495 C 1223 524 1243 558 1257 598 C 1271 637 1278 679 1278 725 C 1278 816 1250 890 1195 948 C 1139 1005 1063 1034 965 1034 Z" unicode="" />
<glyph horiz-adv-x="1444" d="M 96 59 L 311 80 L 311 913 L 100 913 L 100 973 L 311 993 L 311 1065 C 311 1139 322 1204 345 1261 C 367 1317 398 1364 438 1402 C 478 1439 526 1468 582 1488 C 638 1508 700 1518 768 1518 C 890 1518 988 1491 1061 1439 C 1134 1386 1171 1310 1171 1212 C 1171 1159 1160 1115 1140 1081 C 1120 1047 1094 1018 1064 995 C 1033 972 1000 953 964 937 C 928 921 895 904 865 888 C 834 870 808 850 788 827 C 768 804 758 775 758 739 C 758 707 766 681 782 661 C 798 641 820 623 848 608 C 875 593 907 580 945 569 C 982 558 1021 547 1063 537 C 1098 527 1134 515 1172 501 C 1210 487 1244 470 1274 449 C 1304 427 1328 399 1347 365 C 1366 331 1376 290 1376 240 C 1376 196 1368 157 1353 123 C 1338 89 1317 59 1291 35 C 1264 10 1232 -8 1196 -21 C 1159 -34 1118 -41 1073 -41 C 988 -41 916 -20 857 20 C 797 61 751 112 717 172 L 727 -10 L 670 -10 L 612 375 L 662 381 L 717 285 C 761 207 810 146 862 102 C 914 58 978 37 1055 37 C 1125 37 1180 54 1218 89 C 1256 123 1276 171 1276 231 C 1276 267 1269 297 1256 321 C 1243 345 1225 366 1202 383 C 1178 399 1151 413 1121 424 C 1090 434 1058 445 1024 457 C 978 469 934 482 890 496 C 846 510 808 528 775 549 C 741 569 714 595 693 626 C 672 656 662 695 662 741 C 662 787 672 825 692 853 C 712 881 738 905 768 925 C 798 944 830 961 866 977 C 902 993 935 1010 965 1030 C 995 1049 1020 1072 1040 1100 C 1060 1127 1071 1163 1071 1208 C 1071 1278 1043 1333 989 1373 C 934 1413 858 1434 760 1434 C 650 1434 565 1402 505 1339 C 444 1276 414 1187 414 1071 L 414 76 L 539 59 L 537 0 L 96 0 L 96 59 Z" unicode="" />
<glyph horiz-adv-x="1188" d="M 203 215 C 203 156 224 112 268 84 C 312 55 364 41 424 41 C 462 41 499 45 535 55 C 571 65 606 77 638 93 C 670 109 699 126 725 146 C 751 166 773 186 791 207 L 791 504 C 674 501 578 491 502 475 C 426 459 367 437 323 411 C 278 384 247 354 229 320 C 211 286 203 251 203 215 Z M 219 936 C 250 964 290 989 340 1009 C 389 1029 454 1040 535 1040 C 603 1040 659 1030 705 1012 C 751 994 788 969 816 938 C 844 906 863 868 875 824 C 887 780 893 732 893 682 L 893 238 C 893 172 901 127 918 104 C 935 81 961 70 997 70 C 1023 70 1044 78 1061 94 C 1078 110 1091 135 1100 168 L 1147 147 C 1137 95 1116 55 1086 29 C 1056 3 1016 -10 967 -10 C 923 -10 886 1 856 24 C 826 47 806 82 797 129 C 776 108 752 87 725 67 C 697 47 667 28 635 12 C 602 -4 566 -16 528 -26 C 490 -36 450 -41 408 -41 C 313 -41 238 -17 184 28 C 129 74 102 137 102 215 C 102 332 161 421 280 482 C 399 542 569 574 791 578 L 791 692 C 791 782 767 848 721 892 C 674 936 610 958 528 958 C 454 958 401 947 368 926 C 335 905 310 879 293 848 C 277 820 266 797 258 777 C 250 757 233 748 209 748 C 189 748 174 753 163 764 C 152 774 147 789 147 807 C 147 821 152 840 162 863 C 172 885 191 910 219 936 Z M 553 1180 L 277 1442 L 277 1448 L 412 1448 L 639 1186 L 639 1180 L 553 1180 Z" unicode="" />
<glyph horiz-adv-x="1188" d="M 203 215 C 203 156 224 112 268 84 C 312 55 364 41 424 41 C 462 41 499 45 535 55 C 571 65 606 77 638 93 C 670 109 699 126 725 146 C 751 166 773 186 791 207 L 791 504 C 674 501 578 491 502 475 C 426 459 367 437 323 411 C 278 384 247 354 229 320 C 211 286 203 251 203 215 Z M 219 936 C 250 964 290 989 340 1009 C 389 1029 454 1040 535 1040 C 603 1040 659 1030 705 1012 C 751 994 788 969 816 938 C 844 906 863 868 875 824 C 887 780 893 732 893 682 L 893 238 C 893 172 901 127 918 104 C 935 81 961 70 997 70 C 1023 70 1044 78 1061 94 C 1078 110 1091 135 1100 168 L 1147 147 C 1137 95 1116 55 1086 29 C 1056 3 1016 -10 967 -10 C 923 -10 886 1 856 24 C 826 47 806 82 797 129 C 776 108 752 87 725 67 C 697 47 667 28 635 12 C 602 -4 566 -16 528 -26 C 490 -36 450 -41 408 -41 C 313 -41 238 -17 184 28 C 129 74 102 137 102 215 C 102 332 161 421 280 482 C 399 542 569 574 791 578 L 791 692 C 791 782 767 848 721 892 C 674 936 610 958 528 958 C 454 958 401 947 368 926 C 335 905 310 879 293 848 C 277 820 266 797 258 777 C 250 757 233 748 209 748 C 189 748 174 753 163 764 C 152 774 147 789 147 807 C 147 821 152 840 162 863 C 172 885 191 910 219 936 Z M 778 1442 L 496 1180 L 408 1180 L 408 1186 L 641 1448 L 778 1448 L 778 1442 Z" unicode="" />
<glyph horiz-adv-x="1188" d="M 203 215 C 203 156 224 112 268 84 C 312 55 364 41 424 41 C 462 41 499 45 535 55 C 571 65 606 77 638 93 C 670 109 699 126 725 146 C 751 166 773 186 791 207 L 791 504 C 674 501 578 491 502 475 C 426 459 367 437 323 411 C 278 384 247 354 229 320 C 211 286 203 251 203 215 Z M 219 936 C 250 964 290 989 340 1009 C 389 1029 454 1040 535 1040 C 603 1040 659 1030 705 1012 C 751 994 788 969 816 938 C 844 906 863 868 875 824 C 887 780 893 732 893 682 L 893 238 C 893 172 901 127 918 104 C 935 81 961 70 997 70 C 1023 70 1044 78 1061 94 C 1078 110 1091 135 1100 168 L 1147 147 C 1137 95 1116 55 1086 29 C 1056 3 1016 -10 967 -10 C 923 -10 886 1 856 24 C 826 47 806 82 797 129 C 776 108 752 87 725 67 C 697 47 667 28 635 12 C 602 -4 566 -16 528 -26 C 490 -36 450 -41 408 -41 C 313 -41 238 -17 184 28 C 129 74 102 137 102 215 C 102 332 161 421 280 482 C 399 542 569 574 791 578 L 791 692 C 791 782 767 848 721 892 C 674 936 610 958 528 958 C 454 958 401 947 368 926 C 335 905 310 879 293 848 C 277 820 266 797 258 777 C 250 757 233 748 209 748 C 189 748 174 753 163 764 C 152 774 147 789 147 807 C 147 821 152 840 162 863 C 172 885 191 910 219 936 Z M 735 1180 L 522 1372 L 311 1180 L 215 1180 L 215 1186 L 485 1450 L 561 1450 L 832 1186 L 832 1180 L 735 1180 Z" unicode="" />
<glyph horiz-adv-x="1188" d="M 203 215 C 203 156 224 112 268 84 C 312 55 364 41 424 41 C 462 41 499 45 535 55 C 571 65 606 77 638 93 C 670 109 699 126 725 146 C 751 166 773 186 791 207 L 791 504 C 674 501 578 491 502 475 C 426 459 367 437 323 411 C 278 384 247 354 229 320 C 211 286 203 251 203 215 Z M 219 936 C 250 964 290 989 340 1009 C 389 1029 454 1040 535 1040 C 603 1040 659 1030 705 1012 C 751 994 788 969 816 938 C 844 906 863 868 875 824 C 887 780 893 732 893 682 L 893 238 C 893 172 901 127 918 104 C 935 81 961 70 997 70 C 1023 70 1044 78 1061 94 C 1078 110 1091 135 1100 168 L 1147 147 C 1137 95 1116 55 1086 29 C 1056 3 1016 -10 967 -10 C 923 -10 886 1 856 24 C 826 47 806 82 797 129 C 776 108 752 87 725 67 C 697 47 667 28 635 12 C 602 -4 566 -16 528 -26 C 490 -36 450 -41 408 -41 C 313 -41 238 -17 184 28 C 129 74 102 137 102 215 C 102 332 161 421 280 482 C 399 542 569 574 791 578 L 791 692 C 791 782 767 848 721 892 C 674 936 610 958 528 958 C 454 958 401 947 368 926 C 335 905 310 879 293 848 C 277 820 266 797 258 777 C 250 757 233 748 209 748 C 189 748 174 753 163 764 C 152 774 147 789 147 807 C 147 821 152 840 162 863 C 172 885 191 910 219 936 Z M 270 1219 L 195 1219 C 195 1255 200 1287 210 1313 C 220 1339 233 1359 251 1375 C 268 1391 287 1402 308 1410 C 329 1417 351 1421 375 1421 C 405 1421 433 1413 459 1397 C 485 1381 510 1365 534 1347 C 558 1328 581 1311 604 1295 C 627 1279 652 1272 678 1272 C 706 1272 729 1284 747 1309 C 765 1333 774 1365 774 1405 L 850 1405 C 850 1367 844 1335 834 1309 C 824 1283 811 1261 795 1245 C 778 1229 759 1217 739 1210 C 719 1203 698 1200 678 1200 C 646 1200 618 1207 592 1223 C 566 1239 541 1256 517 1275 C 493 1293 469 1310 446 1326 C 423 1342 399 1350 375 1350 C 343 1350 318 1338 299 1314 C 279 1290 270 1258 270 1219 Z" unicode="" />
<glyph horiz-adv-x="1188" d="M 203 215 C 203 156 224 112 268 84 C 312 55 364 41 424 41 C 462 41 499 45 535 55 C 571 65 606 77 638 93 C 670 109 699 126 725 146 C 751 166 773 186 791 207 L 791 504 C 674 501 578 491 502 475 C 426 459 367 437 323 411 C 278 384 247 354 229 320 C 211 286 203 251 203 215 Z M 219 936 C 250 964 290 989 340 1009 C 389 1029 454 1040 535 1040 C 603 1040 659 1030 705 1012 C 751 994 788 969 816 938 C 844 906 863 868 875 824 C 887 780 893 732 893 682 L 893 238 C 893 172 901 127 918 104 C 935 81 961 70 997 70 C 1023 70 1044 78 1061 94 C 1078 110 1091 135 1100 168 L 1147 147 C 1137 95 1116 55 1086 29 C 1056 3 1016 -10 967 -10 C 923 -10 886 1 856 24 C 826 47 806 82 797 129 C 776 108 752 87 725 67 C 697 47 667 28 635 12 C 602 -4 566 -16 528 -26 C 490 -36 450 -41 408 -41 C 313 -41 238 -17 184 28 C 129 74 102 137 102 215 C 102 332 161 421 280 482 C 399 542 569 574 791 578 L 791 692 C 791 782 767 848 721 892 C 674 936 610 958 528 958 C 454 958 401 947 368 926 C 335 905 310 879 293 848 C 277 820 266 797 258 777 C 250 757 233 748 209 748 C 189 748 174 753 163 764 C 152 774 147 789 147 807 C 147 821 152 840 162 863 C 172 885 191 910 219 936 Z M 697 1221 C 672 1221 651 1229 634 1246 C 616 1263 608 1284 608 1309 C 608 1333 616 1354 634 1371 C 651 1388 672 1397 697 1397 C 721 1397 741 1388 759 1371 C 776 1354 785 1333 785 1309 C 785 1284 776 1263 759 1246 C 741 1229 721 1221 697 1221 Z M 346 1221 C 321 1221 300 1229 283 1246 C 266 1263 258 1284 258 1309 C 258 1333 266 1354 283 1371 C 300 1388 321 1397 346 1397 C 370 1397 391 1388 409 1371 C 427 1354 436 1333 436 1309 C 436 1284 427 1263 409 1246 C 391 1229 370 1221 346 1221 Z" unicode="" />
<glyph horiz-adv-x="1188" d="M 203 215 C 203 156 224 112 268 84 C 312 55 364 41 424 41 C 462 41 499 45 535 55 C 571 65 606 77 638 93 C 670 109 699 126 725 146 C 751 166 773 186 791 207 L 791 504 C 674 501 578 491 502 475 C 426 459 367 437 323 411 C 278 384 247 354 229 320 C 211 286 203 251 203 215 Z M 219 936 C 250 964 290 989 340 1009 C 389 1029 454 1040 535 1040 C 603 1040 659 1030 705 1012 C 751 994 788 969 816 938 C 844 906 863 868 875 824 C 887 780 893 732 893 682 L 893 238 C 893 172 901 127 918 104 C 935 81 961 70 997 70 C 1023 70 1044 78 1061 94 C 1078 110 1091 135 1100 168 L 1147 147 C 1137 95 1116 55 1086 29 C 1056 3 1016 -10 967 -10 C 923 -10 886 1 856 24 C 826 47 806 82 797 129 C 776 108 752 87 725 67 C 697 47 667 28 635 12 C 602 -4 566 -16 528 -26 C 490 -36 450 -41 408 -41 C 313 -41 238 -17 184 28 C 129 74 102 137 102 215 C 102 332 161 421 280 482 C 399 542 569 574 791 578 L 791 692 C 791 782 767 848 721 892 C 674 936 610 958 528 958 C 454 958 401 947 368 926 C 335 905 310 879 293 848 C 277 820 266 797 258 777 C 250 757 233 748 209 748 C 189 748 174 753 163 764 C 152 774 147 789 147 807 C 147 821 152 840 162 863 C 172 885 191 910 219 936 Z M 342 1337 C 342 1387 358 1429 392 1463 C 426 1496 469 1513 522 1513 C 575 1513 618 1496 652 1463 C 686 1429 703 1387 703 1337 C 703 1285 686 1242 652 1208 C 618 1174 575 1157 522 1157 C 469 1157 426 1174 392 1208 C 358 1242 342 1285 342 1337 Z M 637 1336 C 637 1371 626 1400 605 1423 C 584 1446 556 1457 522 1457 C 488 1457 460 1446 439 1423 C 418 1400 408 1371 408 1336 C 408 1301 418 1272 439 1249 C 460 1225 488 1213 522 1213 C 556 1213 584 1225 605 1249 C 626 1272 637 1301 637 1336 Z" unicode="" />
<glyph horiz-adv-x="1812" d="M 990 164 C 1024 124 1067 93 1118 72 C 1168 51 1226 41 1290 41 C 1374 41 1443 58 1497 92 C 1550 126 1591 176 1620 242 L 1681 221 C 1655 141 1609 78 1545 30 C 1480 -17 1391 -41 1278 -41 C 1186 -41 1106 -22 1037 14 C 968 51 912 102 870 168 C 850 143 825 118 796 94 C 766 69 733 47 696 27 C 659 6 618 -10 573 -22 C 528 -34 480 -41 430 -41 C 332 -41 253 -17 194 28 C 135 74 106 139 106 221 C 106 335 164 425 281 489 C 398 553 565 588 782 592 L 782 684 C 782 766 762 832 723 882 C 683 932 618 958 528 958 C 483 958 439 949 395 932 C 351 915 318 883 295 836 C 284 812 275 791 267 773 C 259 754 243 745 219 745 C 199 745 184 750 174 761 C 163 772 158 787 158 807 C 158 826 164 849 178 875 C 192 901 214 927 245 952 C 275 976 315 997 363 1014 C 411 1031 470 1040 539 1040 C 622 1040 692 1022 749 988 C 805 953 844 896 864 817 C 905 888 959 943 1026 982 C 1092 1020 1170 1040 1260 1040 C 1333 1040 1397 1026 1452 1000 C 1506 974 1552 939 1588 896 C 1624 852 1651 803 1669 749 C 1687 695 1696 640 1696 584 C 1696 581 1695 570 1695 551 C 1694 531 1694 520 1694 518 L 881 518 L 881 489 C 882 421 892 359 910 305 C 928 250 955 203 990 164 Z M 1487 873 C 1455 903 1419 924 1379 938 C 1339 951 1298 958 1257 958 C 1156 958 1073 925 1007 861 C 941 796 901 708 887 598 L 1597 598 C 1595 660 1584 714 1564 760 C 1544 806 1518 843 1487 873 Z M 276 87 C 298 71 323 59 352 52 C 380 44 410 41 442 41 C 484 41 526 46 566 58 C 606 70 644 85 678 103 C 712 121 742 142 770 164 C 797 186 819 207 836 229 C 818 269 804 311 795 356 C 786 401 782 449 782 500 L 782 516 C 685 514 601 506 529 490 C 457 474 398 454 350 428 C 302 402 267 372 243 338 C 219 304 207 267 207 227 C 207 195 213 168 225 145 C 237 122 254 103 276 87 Z" unicode="" />
<glyph horiz-adv-x="1116" d="M 395 -348 L 438 -307 C 456 -338 480 -361 509 -377 C 537 -393 571 -401 610 -401 C 654 -401 690 -391 718 -372 C 746 -353 760 -326 760 -291 C 760 -251 742 -220 706 -199 C 670 -178 619 -175 553 -190 L 537 -174 L 584 -41 C 511 -38 446 -23 388 3 C 330 29 280 66 239 114 C 197 160 164 216 142 282 C 120 348 109 420 109 498 C 109 578 120 651 143 718 C 166 785 199 843 243 891 C 285 939 337 975 398 1001 C 458 1027 526 1040 602 1040 C 654 1040 700 1034 742 1022 C 784 1010 821 994 853 974 C 885 954 912 931 935 905 C 957 879 975 852 989 825 C 995 810 1001 794 1007 778 C 1013 762 1016 748 1016 737 C 1016 718 1010 703 999 691 C 988 679 974 674 958 674 C 943 674 932 677 924 683 C 916 689 911 696 907 706 C 903 714 899 725 897 737 C 894 749 891 762 887 774 C 867 828 832 872 782 906 C 732 939 673 956 606 956 C 544 956 489 945 441 923 C 393 901 351 870 316 830 C 281 790 254 741 236 685 C 218 628 209 566 209 498 C 209 429 218 366 236 310 C 254 253 281 205 317 165 C 353 124 396 93 446 71 C 496 49 554 39 618 39 C 706 39 778 60 836 102 C 893 144 937 203 969 279 L 1030 256 C 1002 170 957 101 895 50 C 832 -1 751 -31 653 -39 L 618 -133 C 647 -129 675 -129 702 -135 C 729 -140 753 -149 774 -163 C 794 -175 811 -192 824 -214 C 837 -235 844 -259 844 -287 C 844 -343 821 -386 777 -417 C 733 -447 679 -463 616 -463 C 576 -463 536 -454 495 -438 C 454 -422 421 -392 395 -348 Z" unicode="" />
<glyph horiz-adv-x="1141" d="M 318 165 C 353 124 396 93 447 72 C 498 51 556 41 621 41 C 705 41 774 58 827 92 C 880 126 921 176 950 242 L 1012 221 C 986 141 940 78 874 30 C 808 -17 720 -41 608 -41 C 532 -41 463 -27 401 -1 C 339 25 287 62 245 110 C 201 156 168 213 145 279 C 122 345 111 419 111 500 C 111 578 122 651 144 718 C 166 785 199 842 242 890 C 284 937 334 974 393 1000 C 451 1026 517 1040 590 1040 C 663 1040 727 1026 782 1000 C 836 974 882 939 919 896 C 955 852 981 803 999 749 C 1017 695 1026 640 1026 584 C 1026 574 1026 562 1026 548 C 1026 534 1025 524 1024 518 L 211 518 L 211 498 C 211 428 220 365 238 309 C 256 253 283 205 318 165 Z M 817 873 C 785 903 749 924 709 938 C 669 951 628 958 588 958 C 486 958 403 925 338 861 C 272 796 232 708 217 598 L 928 598 C 926 660 915 714 895 760 C 874 806 848 843 817 873 Z M 627 1180 L 351 1442 L 351 1448 L 486 1448 L 713 1186 L 713 1180 L 627 1180 Z" unicode="" />
<glyph horiz-adv-x="1141" d="M 854 1442 L 572 1180 L 484 1180 L 484 1186 L 717 1448 L 854 1448 L 854 1442 Z M 318 165 C 353 124 396 93 447 72 C 498 51 556 41 621 41 C 705 41 774 58 827 92 C 880 126 921 176 950 242 L 1012 221 C 986 141 940 78 874 30 C 808 -17 720 -41 608 -41 C 532 -41 463 -27 401 -1 C 339 25 287 62 245 110 C 201 156 168 213 145 279 C 122 345 111 419 111 500 C 111 578 122 651 144 718 C 166 785 199 842 242 890 C 284 937 334 974 393 1000 C 451 1026 517 1040 590 1040 C 663 1040 727 1026 782 1000 C 836 974 882 939 919 896 C 955 852 981 803 999 749 C 1017 695 1026 640 1026 584 C 1026 574 1026 562 1026 548 C 1026 534 1025 524 1024 518 L 211 518 L 211 498 C 211 428 220 365 238 309 C 256 253 283 205 318 165 Z M 817 873 C 785 903 749 924 709 938 C 669 951 628 958 588 958 C 486 958 403 925 338 861 C 272 796 232 708 217 598 L 928 598 C 926 660 915 714 895 760 C 874 806 848 843 817 873 Z" unicode="" />
<glyph horiz-adv-x="1141" d="M 809 1180 L 596 1372 L 385 1180 L 289 1180 L 289 1186 L 559 1450 L 635 1450 L 906 1186 L 906 1180 L 809 1180 Z M 318 165 C 353 124 396 93 447 72 C 498 51 556 41 621 41 C 705 41 774 58 827 92 C 880 126 921 176 950 242 L 1012 221 C 986 141 940 78 874 30 C 808 -17 720 -41 608 -41 C 532 -41 463 -27 401 -1 C 339 25 287 62 245 110 C 201 156 168 213 145 279 C 122 345 111 419 111 500 C 111 578 122 651 144 718 C 166 785 199 842 242 890 C 284 937 334 974 393 1000 C 451 1026 517 1040 590 1040 C 663 1040 727 1026 782 1000 C 836 974 882 939 919 896 C 955 852 981 803 999 749 C 1017 695 1026 640 1026 584 C 1026 574 1026 562 1026 548 C 1026 534 1025 524 1024 518 L 211 518 L 211 498 C 211 428 220 365 238 309 C 256 253 283 205 318 165 Z M 817 873 C 785 903 749 924 709 938 C 669 951 628 958 588 958 C 486 958 403 925 338 861 C 272 796 232 708 217 598 L 928 598 C 926 660 915 714 895 760 C 874 806 848 843 817 873 Z" unicode="" />
<glyph horiz-adv-x="1141" d="M 773 1221 C 748 1221 727 1229 710 1246 C 692 1263 684 1284 684 1309 C 684 1333 692 1354 710 1371 C 727 1388 748 1397 773 1397 C 797 1397 817 1388 835 1371 C 852 1354 861 1333 861 1309 C 861 1284 852 1263 835 1246 C 817 1229 797 1221 773 1221 Z M 422 1221 C 397 1221 376 1229 359 1246 C 342 1263 334 1284 334 1309 C 334 1333 342 1354 359 1371 C 376 1388 397 1397 422 1397 C 446 1397 467 1388 485 1371 C 503 1354 512 1333 512 1309 C 512 1284 503 1263 485 1246 C 467 1229 446 1221 422 1221 Z M 318 165 C 353 124 396 93 447 72 C 498 51 556 41 621 41 C 705 41 774 58 827 92 C 880 126 921 176 950 242 L 1012 221 C 986 141 940 78 874 30 C 808 -17 720 -41 608 -41 C 532 -41 463 -27 401 -1 C 339 25 287 62 245 110 C 201 156 168 213 145 279 C 122 345 111 419 111 500 C 111 578 122 651 144 718 C 166 785 199 842 242 890 C 284 937 334 974 393 1000 C 451 1026 517 1040 590 1040 C 663 1040 727 1026 782 1000 C 836 974 882 939 919 896 C 955 852 981 803 999 749 C 1017 695 1026 640 1026 584 C 1026 574 1026 562 1026 548 C 1026 534 1025 524 1024 518 L 211 518 L 211 498 C 211 428 220 365 238 309 C 256 253 283 205 318 165 Z M 817 873 C 785 903 749 924 709 938 C 669 951 628 958 588 958 C 486 958 403 925 338 861 C 272 796 232 708 217 598 L 928 598 C 926 660 915 714 895 760 C 874 806 848 843 817 873 Z" unicode="" />
<glyph horiz-adv-x="758" d="M 96 59 L 340 80 L 340 893 C 299 872 253 860 203 857 C 152 853 103 856 55 866 L 55 911 C 121 909 182 920 237 942 C 291 964 341 998 385 1044 L 442 1026 L 442 80 L 680 59 L 680 0 L 96 0 L 96 59 Z M 422 1180 L 146 1442 L 146 1448 L 281 1448 L 508 1186 L 508 1180 L 422 1180 Z" unicode="" />
<glyph horiz-adv-x="758" d="M 649 1442 L 367 1180 L 279 1180 L 279 1186 L 512 1448 L 649 1448 L 649 1442 Z M 96 59 L 340 80 L 340 893 C 299 872 253 860 203 857 C 152 853 103 856 55 866 L 55 911 C 121 909 182 920 237 942 C 291 964 341 998 385 1044 L 442 1026 L 442 80 L 680 59 L 680 0 L 96 0 L 96 59 Z" unicode="" />
<glyph horiz-adv-x="758" d="M 604 1180 L 391 1372 L 180 1180 L 84 1180 L 84 1186 L 354 1450 L 430 1450 L 701 1186 L 701 1180 L 604 1180 Z M 96 59 L 340 80 L 340 893 C 299 872 253 860 203 857 C 152 853 103 856 55 866 L 55 911 C 121 909 182 920 237 942 C 291 964 341 998 385 1044 L 442 1026 L 442 80 L 680 59 L 680 0 L 96 0 L 96 59 Z" unicode="" />
<glyph horiz-adv-x="758" d="M 568 1221 C 543 1221 522 1229 505 1246 C 487 1263 479 1284 479 1309 C 479 1333 487 1354 505 1371 C 522 1388 543 1397 568 1397 C 592 1397 612 1388 630 1371 C 647 1354 656 1333 656 1309 C 656 1284 647 1263 630 1246 C 612 1229 592 1221 568 1221 Z M 217 1221 C 192 1221 171 1229 154 1246 C 137 1263 129 1284 129 1309 C 129 1333 137 1354 154 1371 C 171 1388 192 1397 217 1397 C 241 1397 262 1388 280 1371 C 298 1354 307 1333 307 1309 C 307 1284 298 1263 280 1246 C 262 1229 241 1221 217 1221 Z M 96 59 L 340 80 L 340 893 C 299 872 253 860 203 857 C 152 853 103 856 55 866 L 55 911 C 121 909 182 920 237 942 C 291 964 341 998 385 1044 L 442 1026 L 442 80 L 680 59 L 680 0 L 96 0 L 96 59 Z" unicode="" />
<glyph horiz-adv-x="1229" d="M 459 1159 L 713 1325 C 665 1361 610 1392 549 1416 C 487 1440 418 1456 340 1464 L 356 1530 C 438 1524 515 1509 587 1484 C 659 1458 726 1422 788 1374 L 1026 1530 L 1053 1487 L 829 1341 C 912 1265 978 1165 1028 1041 C 1077 917 1102 766 1102 586 L 1102 569 C 1102 479 1090 396 1066 321 C 1042 246 1008 182 965 128 C 921 74 868 32 808 3 C 747 -26 679 -41 604 -41 C 529 -41 461 -27 400 -1 C 339 25 287 62 245 110 C 201 156 168 213 145 279 C 122 345 111 418 111 498 C 111 576 122 649 146 715 C 170 781 204 838 248 886 C 291 932 343 969 404 995 C 465 1021 532 1034 606 1034 C 692 1034 765 1017 826 983 C 887 949 937 903 977 846 C 959 936 932 1018 896 1093 C 860 1168 812 1234 752 1290 L 485 1116 L 459 1159 Z M 895 183 C 929 229 955 284 973 348 C 991 412 1001 483 1001 563 C 1001 587 1000 611 999 635 C 998 659 997 683 995 707 C 953 789 900 850 836 892 C 772 933 696 954 610 954 C 550 954 495 943 447 921 C 399 899 357 868 323 828 C 287 788 260 740 241 684 C 222 628 213 566 213 498 C 213 429 222 367 240 311 C 258 255 285 207 319 167 C 353 126 395 95 443 73 C 491 51 546 41 606 41 C 666 41 720 53 770 78 C 819 102 861 137 895 183 Z" unicode="" />
<glyph horiz-adv-x="1487" d="M 850 57 L 1087 78 L 1087 682 C 1087 764 1065 829 1022 878 C 979 927 917 952 836 952 C 754 952 678 928 609 881 C 540 834 484 775 442 705 L 442 78 L 676 57 L 676 0 L 96 0 L 96 59 L 340 80 L 340 891 C 299 870 254 858 204 856 C 154 853 104 856 55 866 L 55 911 C 123 909 184 920 239 942 C 293 964 341 998 383 1044 L 440 1028 L 440 803 C 485 872 544 929 616 973 C 688 1017 768 1040 856 1040 C 917 1040 969 1030 1011 1011 C 1053 992 1088 967 1115 936 C 1141 904 1160 867 1172 825 C 1184 783 1190 738 1190 692 L 1190 80 L 1409 59 L 1409 0 L 850 0 L 850 57 Z M 544 1219 L 469 1219 C 469 1255 474 1287 484 1313 C 494 1339 507 1359 525 1375 C 542 1391 561 1402 582 1410 C 603 1417 625 1421 649 1421 C 679 1421 707 1413 733 1397 C 759 1381 784 1365 808 1347 C 832 1328 855 1311 878 1295 C 901 1279 926 1272 952 1272 C 980 1272 1003 1284 1021 1309 C 1039 1333 1048 1365 1048 1405 L 1124 1405 C 1124 1367 1118 1335 1108 1309 C 1098 1283 1085 1261 1069 1245 C 1052 1229 1033 1217 1013 1210 C 993 1203 972 1200 952 1200 C 920 1200 892 1207 866 1223 C 840 1239 815 1256 791 1275 C 767 1293 743 1310 720 1326 C 697 1342 673 1350 649 1350 C 617 1350 592 1338 573 1314 C 553 1290 544 1258 544 1219 Z" unicode="" />
<glyph horiz-adv-x="1214" d="M 968 891 C 1010 843 1043 786 1067 720 C 1090 654 1102 580 1102 500 C 1102 419 1090 345 1067 279 C 1043 213 1010 156 968 110 C 924 62 872 25 812 -1 C 751 -27 683 -41 608 -41 C 533 -41 465 -27 403 -1 C 341 25 289 62 247 110 C 203 156 170 213 146 279 C 122 345 111 419 111 500 C 111 580 122 654 146 720 C 170 786 203 843 247 891 C 289 939 341 975 402 1001 C 463 1027 531 1040 606 1040 C 681 1040 749 1027 811 1001 C 872 975 924 939 968 891 Z M 893 167 C 927 207 953 255 971 312 C 989 368 999 431 999 500 C 999 569 989 632 971 688 C 953 744 927 792 893 833 C 859 873 817 903 769 925 C 720 947 666 958 606 958 C 546 958 491 947 442 925 C 393 903 351 873 317 833 C 283 792 256 743 238 687 C 220 630 211 568 211 500 C 211 431 220 368 238 312 C 256 255 283 207 317 167 C 351 126 393 95 442 73 C 491 51 546 41 606 41 C 666 41 720 51 769 73 C 817 95 859 126 893 167 Z M 637 1180 L 361 1442 L 361 1448 L 496 1448 L 723 1186 L 723 1180 L 637 1180 Z" unicode="" />
<glyph horiz-adv-x="1214" d="M 864 1442 L 582 1180 L 494 1180 L 494 1186 L 727 1448 L 864 1448 L 864 1442 Z M 968 891 C 1010 843 1043 786 1067 720 C 1090 654 1102 580 1102 500 C 1102 419 1090 345 1067 279 C 1043 213 1010 156 968 110 C 924 62 872 25 812 -1 C 751 -27 683 -41 608 -41 C 533 -41 465 -27 403 -1 C 341 25 289 62 247 110 C 203 156 170 213 146 279 C 122 345 111 419 111 500 C 111 580 122 654 146 720 C 170 786 203 843 247 891 C 289 939 341 975 402 1001 C 463 1027 531 1040 606 1040 C 681 1040 749 1027 811 1001 C 872 975 924 939 968 891 Z M 893 167 C 927 207 953 255 971 312 C 989 368 999 431 999 500 C 999 569 989 632 971 688 C 953 744 927 792 893 833 C 859 873 817 903 769 925 C 720 947 666 958 606 958 C 546 958 491 947 442 925 C 393 903 351 873 317 833 C 283 792 256 743 238 687 C 220 630 211 568 211 500 C 211 431 220 368 238 312 C 256 255 283 207 317 167 C 351 126 393 95 442 73 C 491 51 546 41 606 41 C 666 41 720 51 769 73 C 817 95 859 126 893 167 Z" unicode="" />
<glyph horiz-adv-x="1214" d="M 819 1180 L 606 1372 L 395 1180 L 299 1180 L 299 1186 L 569 1450 L 645 1450 L 916 1186 L 916 1180 L 819 1180 Z M 968 891 C 1010 843 1043 786 1067 720 C 1090 654 1102 580 1102 500 C 1102 419 1090 345 1067 279 C 1043 213 1010 156 968 110 C 924 62 872 25 812 -1 C 751 -27 683 -41 608 -41 C 533 -41 465 -27 403 -1 C 341 25 289 62 247 110 C 203 156 170 213 146 279 C 122 345 111 419 111 500 C 111 580 122 654 146 720 C 170 786 203 843 247 891 C 289 939 341 975 402 1001 C 463 1027 531 1040 606 1040 C 681 1040 749 1027 811 1001 C 872 975 924 939 968 891 Z M 893 167 C 927 207 953 255 971 312 C 989 368 999 431 999 500 C 999 569 989 632 971 688 C 953 744 927 792 893 833 C 859 873 817 903 769 925 C 720 947 666 958 606 958 C 546 958 491 947 442 925 C 393 903 351 873 317 833 C 283 792 256 743 238 687 C 220 630 211 568 211 500 C 211 431 220 368 238 312 C 256 255 283 207 317 167 C 351 126 393 95 442 73 C 491 51 546 41 606 41 C 666 41 720 51 769 73 C 817 95 859 126 893 167 Z" unicode="" />
<glyph horiz-adv-x="1214" d="M 968 891 C 1010 843 1043 786 1067 720 C 1090 654 1102 580 1102 500 C 1102 419 1090 345 1067 279 C 1043 213 1010 156 968 110 C 924 62 872 25 812 -1 C 751 -27 683 -41 608 -41 C 533 -41 465 -27 403 -1 C 341 25 289 62 247 110 C 203 156 170 213 146 279 C 122 345 111 419 111 500 C 111 580 122 654 146 720 C 170 786 203 843 247 891 C 289 939 341 975 402 1001 C 463 1027 531 1040 606 1040 C 681 1040 749 1027 811 1001 C 872 975 924 939 968 891 Z M 893 167 C 927 207 953 255 971 312 C 989 368 999 431 999 500 C 999 569 989 632 971 688 C 953 744 927 792 893 833 C 859 873 817 903 769 925 C 720 947 666 958 606 958 C 546 958 491 947 442 925 C 393 903 351 873 317 833 C 283 792 256 743 238 687 C 220 630 211 568 211 500 C 211 431 220 368 238 312 C 256 255 283 207 317 167 C 351 126 393 95 442 73 C 491 51 546 41 606 41 C 666 41 720 51 769 73 C 817 95 859 126 893 167 Z M 354 1219 L 279 1219 C 279 1255 284 1287 294 1313 C 304 1339 317 1359 335 1375 C 352 1391 371 1402 392 1410 C 413 1417 435 1421 459 1421 C 489 1421 517 1413 543 1397 C 569 1381 594 1365 618 1347 C 642 1328 665 1311 688 1295 C 711 1279 736 1272 762 1272 C 790 1272 813 1284 831 1309 C 849 1333 858 1365 858 1405 L 934 1405 C 934 1367 928 1335 918 1309 C 908 1283 895 1261 879 1245 C 862 1229 843 1217 823 1210 C 803 1203 782 1200 762 1200 C 730 1200 702 1207 676 1223 C 650 1239 625 1256 601 1275 C 577 1293 553 1310 530 1326 C 507 1342 483 1350 459 1350 C 427 1350 402 1338 383 1314 C 363 1290 354 1258 354 1219 Z" unicode="" />
<glyph horiz-adv-x="1214" d="M 783 1221 C 758 1221 737 1229 720 1246 C 702 1263 694 1284 694 1309 C 694 1333 702 1354 720 1371 C 737 1388 758 1397 783 1397 C 807 1397 827 1388 845 1371 C 862 1354 871 1333 871 1309 C 871 1284 862 1263 845 1246 C 827 1229 807 1221 783 1221 Z M 432 1221 C 407 1221 386 1229 369 1246 C 352 1263 344 1284 344 1309 C 344 1333 352 1354 369 1371 C 386 1388 407 1397 432 1397 C 456 1397 477 1388 495 1371 C 513 1354 522 1333 522 1309 C 522 1284 513 1263 495 1246 C 477 1229 456 1221 432 1221 Z M 968 891 C 1010 843 1043 786 1067 720 C 1090 654 1102 580 1102 500 C 1102 419 1090 345 1067 279 C 1043 213 1010 156 968 110 C 924 62 872 25 812 -1 C 751 -27 683 -41 608 -41 C 533 -41 465 -27 403 -1 C 341 25 289 62 247 110 C 203 156 170 213 146 279 C 122 345 111 419 111 500 C 111 580 122 654 146 720 C 170 786 203 843 247 891 C 289 939 341 975 402 1001 C 463 1027 531 1040 606 1040 C 681 1040 749 1027 811 1001 C 872 975 924 939 968 891 Z M 893 167 C 927 207 953 255 971 312 C 989 368 999 431 999 500 C 999 569 989 632 971 688 C 953 744 927 792 893 833 C 859 873 817 903 769 925 C 720 947 666 958 606 958 C 546 958 491 947 442 925 C 393 903 351 873 317 833 C 283 792 256 743 238 687 C 220 630 211 568 211 500 C 211 431 220 368 238 312 C 256 255 283 207 317 167 C 351 126 393 95 442 73 C 491 51 546 41 606 41 C 666 41 720 51 769 73 C 817 95 859 126 893 167 Z" unicode="" />
<glyph horiz-adv-x="967" d="M 483 827 C 457 827 435 835 418 853 C 401 870 393 890 393 913 C 393 937 401 958 418 975 C 435 992 457 1001 483 1001 C 507 1001 528 992 545 975 C 562 958 571 937 571 913 C 571 890 562 870 545 853 C 528 835 507 827 483 827 Z M 102 596 L 102 674 L 864 674 L 864 596 L 102 596 Z M 485 266 C 459 266 437 274 420 290 C 403 306 395 327 395 352 C 395 376 403 397 420 413 C 437 429 459 438 485 438 C 509 438 530 429 547 413 C 564 397 573 376 573 352 C 573 327 564 306 547 290 C 530 274 509 266 485 266 Z" unicode="" />
<glyph horiz-adv-x="1214" d="M 213 152 C 180 198 155 250 137 308 C 119 366 111 430 111 500 C 111 580 122 654 145 720 C 168 786 201 843 245 891 C 287 939 339 975 401 1001 C 463 1027 531 1040 606 1040 C 680 1040 746 1027 806 1002 C 865 977 917 941 961 895 L 1063 997 L 1167 997 L 1008 838 C 1038 792 1061 741 1077 684 C 1093 626 1102 565 1102 500 C 1102 419 1090 345 1066 279 C 1042 213 1008 156 966 110 C 922 62 870 25 809 -1 C 747 -27 679 -41 604 -41 C 532 -41 467 -29 409 -5 C 351 19 300 52 258 96 L 162 0 L 59 0 L 213 152 Z M 319 833 C 285 792 258 744 240 688 C 222 632 213 569 213 500 C 213 445 218 394 230 347 C 242 299 259 257 281 221 L 895 831 C 861 871 819 902 771 924 C 722 946 667 958 606 958 C 546 958 491 947 443 925 C 395 903 353 873 319 833 Z M 895 167 C 929 207 955 255 973 312 C 991 368 1001 431 1001 500 C 1001 552 995 600 985 645 C 975 690 959 732 938 770 L 324 162 C 360 121 401 91 448 71 C 495 51 548 41 606 41 C 666 41 720 51 770 73 C 819 95 861 126 895 167 Z" unicode="" />
<glyph horiz-adv-x="1323" d="M 977 193 C 931 125 873 69 802 25 C 731 -18 652 -41 565 -41 C 503 -41 451 -31 408 -12 C 365 6 330 32 304 65 C 277 97 258 133 246 175 C 234 217 229 261 229 307 L 229 885 C 192 867 151 857 107 855 C 63 853 19 856 -25 866 L -25 911 C 39 909 95 920 141 942 C 187 964 232 998 276 1044 L 332 1028 L 332 313 C 332 231 353 165 396 117 C 439 69 501 45 582 45 C 662 45 736 67 805 112 C 874 157 931 214 975 283 L 975 891 C 933 870 888 858 838 856 C 788 853 740 856 692 866 L 692 911 C 758 909 819 920 874 942 C 928 964 978 998 1022 1044 L 1079 1028 L 1079 61 L 1305 61 L 1305 6 L 985 -25 L 979 -20 L 977 193 Z M 653 1180 L 377 1442 L 377 1448 L 512 1448 L 739 1186 L 739 1180 L 653 1180 Z" unicode="" />
<glyph horiz-adv-x="1323" d="M 880 1442 L 598 1180 L 510 1180 L 510 1186 L 743 1448 L 880 1448 L 880 1442 Z M 977 193 C 931 125 873 69 802 25 C 731 -18 652 -41 565 -41 C 503 -41 451 -31 408 -12 C 365 6 330 32 304 65 C 277 97 258 133 246 175 C 234 217 229 261 229 307 L 229 885 C 192 867 151 857 107 855 C 63 853 19 856 -25 866 L -25 911 C 39 909 95 920 141 942 C 187 964 232 998 276 1044 L 332 1028 L 332 313 C 332 231 353 165 396 117 C 439 69 501 45 582 45 C 662 45 736 67 805 112 C 874 157 931 214 975 283 L 975 891 C 933 870 888 858 838 856 C 788 853 740 856 692 866 L 692 911 C 758 909 819 920 874 942 C 928 964 978 998 1022 1044 L 1079 1028 L 1079 61 L 1305 61 L 1305 6 L 985 -25 L 979 -20 L 977 193 Z" unicode="" />
<glyph horiz-adv-x="1323" d="M 835 1180 L 622 1372 L 411 1180 L 315 1180 L 315 1186 L 585 1450 L 661 1450 L 932 1186 L 932 1180 L 835 1180 Z M 977 193 C 931 125 873 69 802 25 C 731 -18 652 -41 565 -41 C 503 -41 451 -31 408 -12 C 365 6 330 32 304 65 C 277 97 258 133 246 175 C 234 217 229 261 229 307 L 229 885 C 192 867 151 857 107 855 C 63 853 19 856 -25 866 L -25 911 C 39 909 95 920 141 942 C 187 964 232 998 276 1044 L 332 1028 L 332 313 C 332 231 353 165 396 117 C 439 69 501 45 582 45 C 662 45 736 67 805 112 C 874 157 931 214 975 283 L 975 891 C 933 870 888 858 838 856 C 788 853 740 856 692 866 L 692 911 C 758 909 819 920 874 942 C 928 964 978 998 1022 1044 L 1079 1028 L 1079 61 L 1305 61 L 1305 6 L 985 -25 L 979 -20 L 977 193 Z" unicode="" />
<glyph horiz-adv-x="1323" d="M 799 1221 C 774 1221 753 1229 736 1246 C 718 1263 710 1284 710 1309 C 710 1333 718 1354 736 1371 C 753 1388 774 1397 799 1397 C 823 1397 843 1388 861 1371 C 878 1354 887 1333 887 1309 C 887 1284 878 1263 861 1246 C 843 1229 823 1221 799 1221 Z M 448 1221 C 423 1221 402 1229 385 1246 C 368 1263 360 1284 360 1309 C 360 1333 368 1354 385 1371 C 402 1388 423 1397 448 1397 C 472 1397 493 1388 511 1371 C 529 1354 538 1333 538 1309 C 538 1284 529 1263 511 1246 C 493 1229 472 1221 448 1221 Z M 977 193 C 931 125 873 69 802 25 C 731 -18 652 -41 565 -41 C 503 -41 451 -31 408 -12 C 365 6 330 32 304 65 C 277 97 258 133 246 175 C 234 217 229 261 229 307 L 229 885 C 192 867 151 857 107 855 C 63 853 19 856 -25 866 L -25 911 C 39 909 95 920 141 942 C 187 964 232 998 276 1044 L 332 1028 L 332 313 C 332 231 353 165 396 117 C 439 69 501 45 582 45 C 662 45 736 67 805 112 C 874 157 931 214 975 283 L 975 891 C 933 870 888 858 838 856 C 788 853 740 856 692 866 L 692 911 C 758 909 819 920 874 942 C 928 964 978 998 1022 1044 L 1079 1028 L 1079 61 L 1305 61 L 1305 6 L 985 -25 L 979 -20 L 977 193 Z" unicode="" />
<glyph horiz-adv-x="1266" d="M 559 -66 L 592 14 L 193 920 L 31 938 L 31 997 L 535 997 L 535 940 L 299 920 L 643 133 L 963 920 L 709 940 L 709 997 L 1235 997 L 1235 938 L 1063 920 L 680 -10 C 643 -98 607 -172 572 -231 C 537 -289 502 -337 467 -373 C 431 -408 394 -433 355 -448 C 316 -463 275 -471 231 -471 C 161 -471 106 -459 66 -436 C 26 -412 6 -386 6 -356 C 6 -337 11 -322 22 -311 C 33 -300 46 -295 61 -295 C 77 -295 91 -299 101 -309 C 111 -319 122 -329 134 -340 C 146 -350 160 -360 176 -370 C 192 -380 215 -385 244 -385 C 268 -385 293 -379 319 -368 C 345 -357 371 -339 398 -315 C 424 -291 451 -258 478 -217 C 504 -176 531 -126 559 -66 Z M 880 1442 L 598 1180 L 510 1180 L 510 1186 L 743 1448 L 880 1448 L 880 1442 Z" unicode="" />
<glyph horiz-adv-x="1217" d="M 297 229 C 327 169 370 122 427 90 C 483 57 547 41 618 41 C 676 41 728 52 775 75 C 822 97 863 129 897 170 C 931 210 957 259 976 316 C 994 372 1004 435 1004 504 C 1004 642 972 751 908 833 C 844 915 755 956 641 956 C 559 956 488 935 428 893 C 368 851 324 794 297 721 L 297 229 Z M -31 -387 L 195 -367 L 195 1393 C 152 1372 106 1360 56 1357 C 6 1353 -40 1356 -86 1366 L -86 1413 C -20 1411 39 1421 94 1443 C 148 1465 198 1498 242 1544 L 297 1528 L 297 840 C 332 904 380 953 441 988 C 501 1022 573 1040 655 1040 C 725 1040 787 1027 843 1001 C 898 975 945 939 984 892 C 1022 844 1052 788 1074 723 C 1095 657 1106 585 1106 506 C 1106 425 1094 351 1071 284 C 1047 217 1015 160 973 112 C 930 63 879 25 821 -1 C 762 -27 698 -41 629 -41 C 556 -41 492 -27 436 -1 C 380 25 333 64 297 115 L 297 -367 L 537 -387 L 537 -446 L -31 -446 L -31 -387 Z" unicode="" />
<glyph horiz-adv-x="1266" d="M 559 -66 L 592 14 L 193 920 L 31 938 L 31 997 L 535 997 L 535 940 L 299 920 L 643 133 L 963 920 L 709 940 L 709 997 L 1235 997 L 1235 938 L 1063 920 L 680 -10 C 643 -98 607 -172 572 -231 C 537 -289 502 -337 467 -373 C 431 -408 394 -433 355 -448 C 316 -463 275 -471 231 -471 C 161 -471 106 -459 66 -436 C 26 -412 6 -386 6 -356 C 6 -337 11 -322 22 -311 C 33 -300 46 -295 61 -295 C 77 -295 91 -299 101 -309 C 111 -319 122 -329 134 -340 C 146 -350 160 -360 176 -370 C 192 -380 215 -385 244 -385 C 268 -385 293 -379 319 -368 C 345 -357 371 -339 398 -315 C 424 -291 451 -258 478 -217 C 504 -176 531 -126 559 -66 Z M 799 1221 C 774 1221 753 1229 736 1246 C 718 1263 710 1284 710 1309 C 710 1333 718 1354 736 1371 C 753 1388 774 1397 799 1397 C 823 1397 843 1388 861 1371 C 878 1354 887 1333 887 1309 C 887 1284 878 1263 861 1246 C 843 1229 823 1221 799 1221 Z M 448 1221 C 423 1221 402 1229 385 1246 C 368 1263 360 1284 360 1309 C 360 1333 368 1354 385 1371 C 402 1388 423 1397 448 1397 C 472 1397 493 1388 511 1371 C 529 1354 538 1333 538 1309 C 538 1284 529 1263 511 1246 C 493 1229 472 1221 448 1221 Z" unicode="" />
<glyph horiz-adv-x="1569" d="M 780 1264 L 532 567 L 1030 567 L 784 1264 L 780 1264 Z M 653 63 L 653 0 L 41 0 L 41 63 L 262 82 L 707 1329 L 414 1350 L 414 1413 L 1157 1413 L 1157 1350 L 862 1329 L 1309 82 L 1528 63 L 1528 0 L 918 0 L 918 63 L 1202 84 L 1059 487 L 504 487 L 362 84 L 653 63 Z M 532 1732 L 1038 1732 L 1038 1659 L 532 1659 L 532 1732 Z" unicode="" />
<glyph horiz-adv-x="1188" d="M 203 215 C 203 156 224 112 268 84 C 312 55 364 41 424 41 C 462 41 499 45 535 55 C 571 65 606 77 638 93 C 670 109 699 126 725 146 C 751 166 773 186 791 207 L 791 504 C 674 501 578 491 502 475 C 426 459 367 437 323 411 C 278 384 247 354 229 320 C 211 286 203 251 203 215 Z M 219 936 C 250 964 290 989 340 1009 C 389 1029 454 1040 535 1040 C 603 1040 659 1030 705 1012 C 751 994 788 969 816 938 C 844 906 863 868 875 824 C 887 780 893 732 893 682 L 893 238 C 893 172 901 127 918 104 C 935 81 961 70 997 70 C 1023 70 1044 78 1061 94 C 1078 110 1091 135 1100 168 L 1147 147 C 1137 95 1116 55 1086 29 C 1056 3 1016 -10 967 -10 C 923 -10 886 1 856 24 C 826 47 806 82 797 129 C 776 108 752 87 725 67 C 697 47 667 28 635 12 C 602 -4 566 -16 528 -26 C 490 -36 450 -41 408 -41 C 313 -41 238 -17 184 28 C 129 74 102 137 102 215 C 102 332 161 421 280 482 C 399 542 569 574 791 578 L 791 692 C 791 782 767 848 721 892 C 674 936 610 958 528 958 C 454 958 401 947 368 926 C 335 905 310 879 293 848 C 277 820 266 797 258 777 C 250 757 233 748 209 748 C 189 748 174 753 163 764 C 152 774 147 789 147 807 C 147 821 152 840 162 863 C 172 885 191 910 219 936 Z M 270 1337 L 776 1337 L 776 1264 L 270 1264 L 270 1337 Z" unicode="" />
<glyph horiz-adv-x="1569" d="M 780 1264 L 532 567 L 1030 567 L 784 1264 L 780 1264 Z M 653 63 L 653 0 L 41 0 L 41 63 L 262 82 L 707 1329 L 414 1350 L 414 1413 L 1157 1413 L 1157 1350 L 862 1329 L 1309 82 L 1528 63 L 1528 0 L 918 0 L 918 63 L 1202 84 L 1059 487 L 504 487 L 362 84 L 653 63 Z M 1018 1833 L 1100 1833 C 1097 1748 1068 1683 1013 1637 C 957 1591 881 1569 784 1569 C 687 1569 611 1591 557 1637 C 502 1683 473 1748 471 1833 L 553 1833 C 555 1769 576 1721 616 1687 C 656 1653 712 1636 784 1636 C 858 1636 914 1653 954 1687 C 994 1721 1015 1769 1018 1833 Z" unicode="" />
<glyph horiz-adv-x="1188" d="M 203 215 C 203 156 224 112 268 84 C 312 55 364 41 424 41 C 462 41 499 45 535 55 C 571 65 606 77 638 93 C 670 109 699 126 725 146 C 751 166 773 186 791 207 L 791 504 C 674 501 578 491 502 475 C 426 459 367 437 323 411 C 278 384 247 354 229 320 C 211 286 203 251 203 215 Z M 219 936 C 250 964 290 989 340 1009 C 389 1029 454 1040 535 1040 C 603 1040 659 1030 705 1012 C 751 994 788 969 816 938 C 844 906 863 868 875 824 C 887 780 893 732 893 682 L 893 238 C 893 172 901 127 918 104 C 935 81 961 70 997 70 C 1023 70 1044 78 1061 94 C 1078 110 1091 135 1100 168 L 1147 147 C 1137 95 1116 55 1086 29 C 1056 3 1016 -10 967 -10 C 923 -10 886 1 856 24 C 826 47 806 82 797 129 C 776 108 752 87 725 67 C 697 47 667 28 635 12 C 602 -4 566 -16 528 -26 C 490 -36 450 -41 408 -41 C 313 -41 238 -17 184 28 C 129 74 102 137 102 215 C 102 332 161 421 280 482 C 399 542 569 574 791 578 L 791 692 C 791 782 767 848 721 892 C 674 936 610 958 528 958 C 454 958 401 947 368 926 C 335 905 310 879 293 848 C 277 820 266 797 258 777 C 250 757 233 748 209 748 C 189 748 174 753 163 764 C 152 774 147 789 147 807 C 147 821 152 840 162 863 C 172 885 191 910 219 936 Z M 756 1438 L 838 1438 C 835 1353 806 1288 751 1242 C 695 1196 619 1174 522 1174 C 425 1174 349 1196 295 1242 C 240 1288 211 1353 209 1438 L 291 1438 C 293 1374 314 1326 354 1292 C 394 1258 450 1241 522 1241 C 596 1241 652 1258 692 1292 C 732 1326 753 1374 756 1438 Z" unicode="" />
<glyph horiz-adv-x="1569" d="M 653 63 L 653 0 L 41 0 L 41 63 L 262 82 L 707 1329 L 414 1350 L 414 1413 L 1157 1413 L 1157 1350 L 862 1329 L 1309 82 L 1528 63 L 1528 0 L 1376 0 C 1348 -1 1323 -8 1300 -20 C 1277 -32 1257 -48 1241 -67 C 1225 -85 1212 -106 1202 -131 C 1192 -155 1188 -181 1188 -207 C 1188 -259 1202 -294 1231 -312 C 1259 -330 1292 -340 1329 -340 C 1352 -340 1375 -337 1399 -331 C 1422 -325 1443 -316 1462 -305 L 1483 -365 C 1459 -379 1433 -390 1405 -398 C 1376 -406 1347 -410 1317 -410 C 1289 -410 1263 -406 1239 -398 C 1214 -390 1192 -379 1172 -364 C 1152 -348 1137 -327 1126 -303 C 1115 -278 1110 -249 1110 -217 C 1111 -169 1123 -126 1146 -90 C 1168 -53 1197 -23 1233 0 L 918 0 L 918 63 L 1202 84 L 1059 487 L 504 487 L 362 84 L 653 63 Z M 780 1264 L 532 567 L 1030 567 L 784 1264 L 780 1264 Z" unicode="" />
<glyph horiz-adv-x="1188" d="M 851 -365 C 831 -349 814 -330 802 -306 C 790 -282 784 -253 784 -221 C 784 -171 795 -128 818 -91 C 840 -53 869 -23 903 0 C 873 8 850 23 832 45 C 814 67 803 95 797 129 C 754 85 700 45 635 11 C 569 -23 494 -41 408 -41 C 313 -41 238 -17 184 28 C 129 74 102 137 102 215 C 102 332 161 421 280 482 C 399 542 569 574 791 578 L 791 692 C 791 782 768 848 723 892 C 677 936 614 958 532 958 C 458 958 404 947 370 926 C 336 905 310 879 293 848 C 277 820 266 797 258 777 C 250 757 233 748 209 748 C 189 748 174 753 163 764 C 152 774 147 789 147 807 C 147 821 152 840 162 863 C 172 885 191 910 219 936 C 250 964 290 989 340 1009 C 389 1029 454 1040 535 1040 C 603 1040 659 1030 705 1012 C 751 994 788 969 816 938 C 844 906 863 868 875 824 C 887 780 893 732 893 682 L 893 238 C 893 172 901 127 918 104 C 935 81 961 70 997 70 C 1024 70 1047 78 1065 94 C 1083 110 1096 135 1104 168 L 1143 147 C 1134 105 1119 71 1098 45 C 1077 19 1050 2 1016 -6 C 969 -18 932 -44 905 -82 C 877 -120 863 -163 862 -211 C 860 -259 875 -292 905 -311 C 935 -330 970 -340 1010 -340 C 1032 -340 1054 -337 1075 -331 C 1096 -325 1116 -315 1135 -303 L 1155 -365 C 1131 -379 1106 -390 1079 -398 C 1051 -406 1024 -410 997 -410 C 969 -410 943 -406 918 -398 C 893 -390 871 -379 851 -365 Z M 268 87 C 288 71 312 59 339 52 C 365 44 394 41 424 41 C 462 41 499 45 535 55 C 571 65 606 77 638 93 C 670 109 699 126 725 146 C 751 166 773 186 791 207 L 791 504 C 674 501 578 491 502 474 C 426 457 367 436 323 410 C 278 384 247 354 229 321 C 211 288 203 255 203 223 C 203 193 208 166 220 144 C 232 122 248 103 268 87 Z" unicode="" />
<glyph horiz-adv-x="1427" d="M 1001 1837 L 719 1575 L 631 1575 L 631 1581 L 864 1843 L 1001 1843 L 1001 1837 Z M 1112 86 C 1066 46 1013 15 953 -7 C 892 -29 823 -41 745 -41 C 657 -41 575 -24 498 8 C 421 40 354 89 297 153 C 239 216 194 294 162 387 C 129 479 113 585 113 705 C 113 823 129 929 163 1021 C 196 1113 241 1190 298 1254 C 354 1318 420 1366 495 1400 C 570 1433 650 1450 735 1450 C 821 1450 899 1432 969 1396 C 1039 1360 1100 1311 1151 1247 L 1157 1450 L 1210 1450 L 1309 887 L 1255 874 L 1208 995 C 1164 1108 1104 1197 1027 1263 C 949 1329 855 1362 745 1362 C 673 1362 605 1347 541 1319 C 477 1290 422 1248 375 1193 C 327 1137 289 1068 262 986 C 234 903 221 808 221 702 C 221 594 235 500 263 419 C 291 337 329 269 378 214 C 426 158 483 117 549 89 C 614 61 684 47 758 47 C 827 47 887 56 939 76 C 990 96 1034 123 1072 157 C 1109 190 1141 230 1168 276 C 1194 322 1217 372 1237 426 L 1298 403 C 1280 339 1256 280 1226 226 C 1195 172 1157 125 1112 86 Z" unicode="" />
<glyph horiz-adv-x="1116" d="M 858 1442 L 576 1180 L 488 1180 L 488 1186 L 721 1448 L 858 1448 L 858 1442 Z M 1030 256 C 1000 164 950 92 880 39 C 810 -14 719 -41 606 -41 C 531 -41 463 -28 402 -2 C 341 24 289 61 246 109 C 202 156 168 212 144 278 C 120 344 109 417 109 498 C 109 578 120 651 143 718 C 166 785 199 843 243 891 C 285 939 337 975 398 1001 C 458 1027 526 1040 602 1040 C 654 1040 700 1034 742 1022 C 784 1010 821 994 853 974 C 885 954 912 931 935 905 C 957 879 975 852 989 825 C 995 810 1001 794 1007 778 C 1013 762 1016 748 1016 737 C 1016 718 1010 703 999 691 C 988 679 974 674 958 674 C 943 674 932 677 924 683 C 916 689 911 696 907 706 C 903 714 899 725 897 737 C 894 749 891 762 887 774 C 867 828 832 872 782 906 C 732 939 673 956 606 956 C 544 956 489 945 441 923 C 393 901 351 870 316 830 C 281 790 254 741 236 685 C 218 628 209 566 209 498 C 209 429 218 366 236 310 C 254 253 281 205 317 165 C 353 124 396 93 446 71 C 496 49 554 39 618 39 C 706 39 778 60 836 102 C 893 144 937 203 969 279 L 1030 256 Z" unicode="" />
<glyph horiz-adv-x="1427" d="M 956 1575 L 743 1767 L 532 1575 L 436 1575 L 436 1581 L 706 1845 L 782 1845 L 1053 1581 L 1053 1575 L 956 1575 Z M 1112 86 C 1066 46 1013 15 953 -7 C 892 -29 823 -41 745 -41 C 657 -41 575 -24 498 8 C 421 40 354 89 297 153 C 239 216 194 294 162 387 C 129 479 113 585 113 705 C 113 823 129 929 163 1021 C 196 1113 241 1190 298 1254 C 354 1318 420 1366 495 1400 C 570 1433 650 1450 735 1450 C 821 1450 899 1432 969 1396 C 1039 1360 1100 1311 1151 1247 L 1157 1450 L 1210 1450 L 1309 887 L 1255 874 L 1208 995 C 1164 1108 1104 1197 1027 1263 C 949 1329 855 1362 745 1362 C 673 1362 605 1347 541 1319 C 477 1290 422 1248 375 1193 C 327 1137 289 1068 262 986 C 234 903 221 808 221 702 C 221 594 235 500 263 419 C 291 337 329 269 378 214 C 426 158 483 117 549 89 C 614 61 684 47 758 47 C 827 47 887 56 939 76 C 990 96 1034 123 1072 157 C 1109 190 1141 230 1168 276 C 1194 322 1217 372 1237 426 L 1298 403 C 1280 339 1256 280 1226 226 C 1195 172 1157 125 1112 86 Z" unicode="" />
<glyph horiz-adv-x="1116" d="M 813 1180 L 600 1372 L 389 1180 L 293 1180 L 293 1186 L 563 1450 L 639 1450 L 910 1186 L 910 1180 L 813 1180 Z M 1030 256 C 1000 164 950 92 880 39 C 810 -14 719 -41 606 -41 C 531 -41 463 -28 402 -2 C 341 24 289 61 246 109 C 202 156 168 212 144 278 C 120 344 109 417 109 498 C 109 578 120 651 143 718 C 166 785 199 843 243 891 C 285 939 337 975 398 1001 C 458 1027 526 1040 602 1040 C 654 1040 700 1034 742 1022 C 784 1010 821 994 853 974 C 885 954 912 931 935 905 C 957 879 975 852 989 825 C 995 810 1001 794 1007 778 C 1013 762 1016 748 1016 737 C 1016 718 1010 703 999 691 C 988 679 974 674 958 674 C 943 674 932 677 924 683 C 916 689 911 696 907 706 C 903 714 899 725 897 737 C 894 749 891 762 887 774 C 867 828 832 872 782 906 C 732 939 673 956 606 956 C 544 956 489 945 441 923 C 393 901 351 870 316 830 C 281 790 254 741 236 685 C 218 628 209 566 209 498 C 209 429 218 366 236 310 C 254 253 281 205 317 165 C 353 124 396 93 446 71 C 496 49 554 39 618 39 C 706 39 778 60 836 102 C 893 144 937 203 969 279 L 1030 256 Z" unicode="" />
<glyph horiz-adv-x="1427" d="M 1112 86 C 1066 46 1013 15 953 -7 C 892 -29 823 -41 745 -41 C 657 -41 575 -24 498 8 C 421 40 354 89 297 153 C 239 216 194 294 162 387 C 129 479 113 585 113 705 C 113 823 129 929 163 1021 C 196 1113 241 1190 298 1254 C 354 1318 420 1366 495 1400 C 570 1433 650 1450 735 1450 C 821 1450 899 1432 969 1396 C 1039 1360 1100 1311 1151 1247 L 1157 1450 L 1210 1450 L 1309 887 L 1255 874 L 1208 995 C 1164 1108 1104 1197 1027 1263 C 949 1329 855 1362 745 1362 C 673 1362 605 1347 541 1319 C 477 1290 422 1248 375 1193 C 327 1137 289 1068 262 986 C 234 903 221 808 221 702 C 221 594 235 500 263 419 C 291 337 329 269 378 214 C 426 158 483 117 549 89 C 614 61 684 47 758 47 C 827 47 887 56 939 76 C 990 96 1034 123 1072 157 C 1109 190 1141 230 1168 276 C 1194 322 1217 372 1237 426 L 1298 403 C 1280 339 1256 280 1226 226 C 1195 172 1157 125 1112 86 Z M 745 1616 C 721 1616 700 1624 683 1641 C 665 1658 657 1679 657 1704 C 657 1728 665 1749 683 1766 C 700 1783 721 1792 745 1792 C 769 1792 791 1783 809 1766 C 827 1749 836 1728 836 1704 C 836 1679 827 1658 809 1641 C 791 1624 769 1616 745 1616 Z" unicode="" />
<glyph horiz-adv-x="1116" d="M 1030 256 C 1000 164 950 92 880 39 C 810 -14 719 -41 606 -41 C 531 -41 463 -28 402 -2 C 341 24 289 61 246 109 C 202 156 168 212 144 278 C 120 344 109 417 109 498 C 109 578 120 651 143 718 C 166 785 199 843 243 891 C 285 939 337 975 398 1001 C 458 1027 526 1040 602 1040 C 654 1040 700 1034 742 1022 C 784 1010 821 994 853 974 C 885 954 912 931 935 905 C 957 879 975 852 989 825 C 995 810 1001 794 1007 778 C 1013 762 1016 748 1016 737 C 1016 718 1010 703 999 691 C 988 679 974 674 958 674 C 943 674 932 677 924 683 C 916 689 911 696 907 706 C 903 714 899 725 897 737 C 894 749 891 762 887 774 C 867 828 832 872 782 906 C 732 939 673 956 606 956 C 544 956 489 945 441 923 C 393 901 351 870 316 830 C 281 790 254 741 236 685 C 218 628 209 566 209 498 C 209 429 218 366 236 310 C 254 253 281 205 317 165 C 353 124 396 93 446 71 C 496 49 554 39 618 39 C 706 39 778 60 836 102 C 893 144 937 203 969 279 L 1030 256 Z M 602 1221 C 578 1221 557 1229 540 1246 C 522 1263 514 1284 514 1309 C 514 1333 522 1354 540 1371 C 557 1388 578 1397 602 1397 C 626 1397 648 1388 666 1371 C 684 1354 693 1333 693 1309 C 693 1284 684 1263 666 1246 C 648 1229 626 1221 602 1221 Z" unicode="" />
<glyph horiz-adv-x="1427" d="M 436 1845 L 532 1845 L 745 1650 L 956 1845 L 1053 1845 L 1053 1839 L 782 1575 L 706 1575 L 436 1839 L 436 1845 Z M 1112 86 C 1066 46 1013 15 953 -7 C 892 -29 823 -41 745 -41 C 657 -41 575 -24 498 8 C 421 40 354 89 297 153 C 239 216 194 294 162 387 C 129 479 113 585 113 705 C 113 823 129 929 163 1021 C 196 1113 241 1190 298 1254 C 354 1318 420 1366 495 1400 C 570 1433 650 1450 735 1450 C 821 1450 899 1432 969 1396 C 1039 1360 1100 1311 1151 1247 L 1157 1450 L 1210 1450 L 1309 887 L 1255 874 L 1208 995 C 1164 1108 1104 1197 1027 1263 C 949 1329 855 1362 745 1362 C 673 1362 605 1347 541 1319 C 477 1290 422 1248 375 1193 C 327 1137 289 1068 262 986 C 234 903 221 808 221 702 C 221 594 235 500 263 419 C 291 337 329 269 378 214 C 426 158 483 117 549 89 C 614 61 684 47 758 47 C 827 47 887 56 939 76 C 990 96 1034 123 1072 157 C 1109 190 1141 230 1168 276 C 1194 322 1217 372 1237 426 L 1298 403 C 1280 339 1256 280 1226 226 C 1195 172 1157 125 1112 86 Z" unicode="" />
<glyph horiz-adv-x="1116" d="M 293 1450 L 389 1450 L 602 1255 L 813 1450 L 910 1450 L 910 1444 L 639 1180 L 563 1180 L 293 1444 L 293 1450 Z M 1030 256 C 1000 164 950 92 880 39 C 810 -14 719 -41 606 -41 C 531 -41 463 -28 402 -2 C 341 24 289 61 246 109 C 202 156 168 212 144 278 C 120 344 109 417 109 498 C 109 578 120 651 143 718 C 166 785 199 843 243 891 C 285 939 337 975 398 1001 C 458 1027 526 1040 602 1040 C 654 1040 700 1034 742 1022 C 784 1010 821 994 853 974 C 885 954 912 931 935 905 C 957 879 975 852 989 825 C 995 810 1001 794 1007 778 C 1013 762 1016 748 1016 737 C 1016 718 1010 703 999 691 C 988 679 974 674 958 674 C 943 674 932 677 924 683 C 916 689 911 696 907 706 C 903 714 899 725 897 737 C 894 749 891 762 887 774 C 867 828 832 872 782 906 C 732 939 673 956 606 956 C 544 956 489 945 441 923 C 393 901 351 870 316 830 C 281 790 254 741 236 685 C 218 628 209 566 209 498 C 209 429 218 366 236 310 C 254 253 281 205 317 165 C 353 124 396 93 446 71 C 496 49 554 39 618 39 C 706 39 778 60 836 102 C 893 144 937 203 969 279 L 1030 256 Z" unicode="" />
<glyph horiz-adv-x="1571" d="M 524 1845 L 620 1845 L 833 1650 L 1044 1845 L 1141 1845 L 1141 1839 L 870 1575 L 794 1575 L 524 1839 L 524 1845 Z M 96 1413 L 838 1413 C 937 1413 1026 1396 1106 1362 C 1185 1328 1252 1280 1308 1220 C 1363 1158 1405 1085 1435 1001 C 1464 916 1479 823 1479 723 C 1479 619 1463 523 1431 435 C 1399 347 1355 270 1299 206 C 1242 141 1174 90 1095 54 C 1016 18 929 0 834 0 L 96 0 L 96 63 L 395 84 L 395 1329 L 96 1350 L 96 1413 Z M 815 1331 L 506 1331 L 506 82 L 817 82 C 900 82 976 98 1044 130 C 1112 162 1171 206 1219 264 C 1266 321 1303 389 1330 467 C 1356 545 1370 629 1370 721 C 1370 811 1357 893 1333 968 C 1308 1043 1272 1108 1226 1162 C 1178 1216 1120 1257 1051 1287 C 982 1316 903 1331 815 1331 Z" unicode="" />
<glyph horiz-adv-x="1393" d="M 1308 1126 L 1241 1126 L 1243 1538 L 1370 1538 L 1308 1126 Z M 213 496 C 213 356 245 246 310 164 C 375 82 466 41 582 41 C 660 41 730 60 790 100 C 850 140 894 196 920 270 L 920 772 C 889 829 846 874 790 908 C 734 941 672 958 602 958 C 543 958 490 946 442 924 C 394 902 353 870 319 829 C 285 788 258 739 240 683 C 222 626 213 564 213 496 Z M 1022 1528 L 1022 61 L 1253 61 L 1253 6 L 932 -25 L 926 -20 L 922 162 C 886 98 837 48 775 12 C 713 -23 643 -41 565 -41 C 494 -41 430 -28 374 -2 C 317 24 269 60 230 106 C 191 152 161 208 141 274 C 121 340 111 412 111 492 C 111 572 122 645 145 713 C 168 781 201 839 243 888 C 284 936 334 974 393 1000 C 451 1026 517 1040 590 1040 C 659 1040 722 1026 779 999 C 835 971 882 932 920 881 L 920 1393 C 878 1372 832 1360 782 1357 C 732 1353 683 1356 635 1366 L 635 1413 C 701 1411 761 1421 816 1443 C 871 1465 921 1498 965 1544 L 1022 1528 Z" unicode="" />
<glyph horiz-adv-x="1571" d="M 96 1413 L 838 1413 C 937 1413 1026 1396 1106 1362 C 1185 1328 1252 1280 1308 1220 C 1363 1158 1405 1085 1435 1001 C 1464 916 1479 823 1479 723 C 1479 619 1463 523 1431 435 C 1399 347 1355 270 1299 206 C 1242 141 1174 90 1095 54 C 1016 18 929 0 834 0 L 96 0 L 96 63 L 395 84 L 395 688 L 96 688 L 96 766 L 395 766 L 395 1329 L 96 1350 L 96 1413 Z M 815 1331 L 506 1331 L 506 766 L 848 766 L 848 688 L 506 688 L 506 82 L 817 82 C 900 82 976 98 1044 130 C 1112 162 1171 206 1219 264 C 1266 321 1303 389 1330 467 C 1356 545 1370 629 1370 721 C 1370 811 1357 893 1333 968 C 1308 1043 1272 1108 1226 1162 C 1178 1216 1120 1257 1051 1287 C 982 1316 903 1331 815 1331 Z" unicode="" />
<glyph horiz-adv-x="1272" d="M 213 492 C 213 352 245 242 310 162 C 375 81 466 41 582 41 C 660 41 730 60 790 100 C 850 140 894 196 920 270 L 920 766 C 889 824 846 870 790 904 C 734 937 672 954 602 954 C 543 954 490 942 442 920 C 394 898 353 866 319 825 C 285 784 258 735 240 679 C 222 622 213 560 213 492 Z M 485 1192 L 920 1192 L 920 1397 C 878 1376 832 1364 782 1360 C 732 1356 683 1358 635 1368 L 635 1415 C 702 1413 763 1423 818 1445 C 873 1467 922 1500 965 1544 L 1022 1528 L 1022 1192 L 1253 1192 L 1253 1126 L 1022 1126 L 1022 61 L 1253 61 L 1253 6 L 932 -25 L 926 -20 L 922 160 C 886 94 837 44 775 10 C 713 -24 643 -41 565 -41 C 494 -41 430 -28 374 -2 C 317 24 269 60 230 106 C 191 152 161 208 141 273 C 121 338 111 410 111 489 C 111 569 122 643 145 710 C 168 777 201 835 243 884 C 284 932 334 969 393 996 C 451 1022 517 1036 590 1036 C 659 1036 722 1022 779 995 C 835 967 882 928 920 877 L 920 1126 L 485 1126 L 485 1192 Z" unicode="" />
<glyph horiz-adv-x="1513" d="M 96 0 L 96 63 L 395 84 L 395 1329 L 96 1350 L 96 1413 L 1251 1413 L 1403 977 L 1348 963 L 1157 1331 L 506 1331 L 506 776 L 932 776 L 967 1038 L 1024 1038 L 1024 440 L 967 440 L 930 694 L 506 694 L 506 82 L 1219 82 L 1380 551 L 1436 541 L 1313 0 L 96 0 Z M 544 1732 L 1050 1732 L 1050 1659 L 544 1659 L 544 1732 Z" unicode="" />
<glyph horiz-adv-x="1141" d="M 318 165 C 353 124 396 93 447 72 C 498 51 556 41 621 41 C 705 41 774 58 827 92 C 880 126 921 176 950 242 L 1012 221 C 986 141 940 78 874 30 C 808 -17 720 -41 608 -41 C 532 -41 463 -27 401 -1 C 339 25 287 62 245 110 C 201 156 168 213 145 279 C 122 345 111 419 111 500 C 111 578 122 651 144 718 C 166 785 199 842 242 890 C 284 937 334 974 393 1000 C 451 1026 517 1040 590 1040 C 663 1040 727 1026 782 1000 C 836 974 882 939 919 896 C 955 852 981 803 999 749 C 1017 695 1026 640 1026 584 C 1026 574 1026 562 1026 548 C 1026 534 1025 524 1024 518 L 211 518 L 211 498 C 211 428 220 365 238 309 C 256 253 283 205 318 165 Z M 817 873 C 785 903 749 924 709 938 C 669 951 628 958 588 958 C 486 958 403 925 338 861 C 272 796 232 708 217 598 L 928 598 C 926 660 915 714 895 760 C 874 806 848 843 817 873 Z M 344 1337 L 850 1337 L 850 1264 L 344 1264 L 344 1337 Z" unicode="" />
<glyph horiz-adv-x="1513" d="M 96 0 L 96 63 L 395 84 L 395 1329 L 96 1350 L 96 1413 L 1251 1413 L 1403 977 L 1348 963 L 1157 1331 L 506 1331 L 506 776 L 932 776 L 967 1038 L 1024 1038 L 1024 440 L 967 440 L 930 694 L 506 694 L 506 82 L 1219 82 L 1380 551 L 1436 541 L 1313 0 L 96 0 Z M 1030 1833 L 1112 1833 C 1109 1748 1080 1683 1025 1637 C 969 1591 893 1569 796 1569 C 699 1569 623 1591 569 1637 C 514 1683 485 1748 483 1833 L 565 1833 C 567 1769 588 1721 628 1687 C 668 1653 724 1636 796 1636 C 870 1636 926 1653 966 1687 C 1006 1721 1027 1769 1030 1833 Z" unicode="" />
<glyph horiz-adv-x="1141" d="M 318 165 C 353 124 396 93 447 72 C 498 51 556 41 621 41 C 705 41 774 58 827 92 C 880 126 921 176 950 242 L 1012 221 C 986 141 940 78 874 30 C 808 -17 720 -41 608 -41 C 532 -41 463 -27 401 -1 C 339 25 287 62 245 110 C 201 156 168 213 145 279 C 122 345 111 419 111 500 C 111 578 122 651 144 718 C 166 785 199 842 242 890 C 284 937 334 974 393 1000 C 451 1026 517 1040 590 1040 C 663 1040 727 1026 782 1000 C 836 974 882 939 919 896 C 955 852 981 803 999 749 C 1017 695 1026 640 1026 584 C 1026 574 1026 562 1026 548 C 1026 534 1025 524 1024 518 L 211 518 L 211 498 C 211 428 220 365 238 309 C 256 253 283 205 318 165 Z M 817 873 C 785 903 749 924 709 938 C 669 951 628 958 588 958 C 486 958 403 925 338 861 C 272 796 232 708 217 598 L 928 598 C 926 660 915 714 895 760 C 874 806 848 843 817 873 Z M 830 1438 L 912 1438 C 909 1353 880 1288 825 1242 C 769 1196 693 1174 596 1174 C 499 1174 423 1196 369 1242 C 314 1288 285 1353 283 1438 L 365 1438 C 367 1374 388 1326 428 1292 C 468 1258 524 1241 596 1241 C 670 1241 726 1258 766 1292 C 806 1326 827 1374 830 1438 Z" unicode="" />
<glyph horiz-adv-x="1513" d="M 96 0 L 96 63 L 395 84 L 395 1329 L 96 1350 L 96 1413 L 1251 1413 L 1403 977 L 1348 963 L 1157 1331 L 506 1331 L 506 776 L 932 776 L 967 1038 L 1024 1038 L 1024 440 L 967 440 L 930 694 L 506 694 L 506 82 L 1219 82 L 1380 551 L 1436 541 L 1313 0 L 96 0 Z M 796 1616 C 772 1616 751 1624 734 1641 C 716 1658 708 1679 708 1704 C 708 1728 716 1749 734 1766 C 751 1783 772 1792 796 1792 C 820 1792 842 1783 860 1766 C 878 1749 887 1728 887 1704 C 887 1679 878 1658 860 1641 C 842 1624 820 1616 796 1616 Z" unicode="" />
<glyph horiz-adv-x="1141" d="M 318 165 C 353 124 396 93 447 72 C 498 51 556 41 621 41 C 705 41 774 58 827 92 C 880 126 921 176 950 242 L 1012 221 C 986 141 940 78 874 30 C 808 -17 720 -41 608 -41 C 532 -41 463 -27 401 -1 C 339 25 287 62 245 110 C 201 156 168 213 145 279 C 122 345 111 419 111 500 C 111 578 122 651 144 718 C 166 785 199 842 242 890 C 284 937 334 974 393 1000 C 451 1026 517 1040 590 1040 C 663 1040 727 1026 782 1000 C 836 974 882 939 919 896 C 955 852 981 803 999 749 C 1017 695 1026 640 1026 584 C 1026 574 1026 562 1026 548 C 1026 534 1025 524 1024 518 L 211 518 L 211 498 C 211 428 220 365 238 309 C 256 253 283 205 318 165 Z M 817 873 C 785 903 749 924 709 938 C 669 951 628 958 588 958 C 486 958 403 925 338 861 C 272 796 232 708 217 598 L 928 598 C 926 660 915 714 895 760 C 874 806 848 843 817 873 Z M 598 1221 C 574 1221 553 1229 536 1246 C 518 1263 510 1284 510 1309 C 510 1333 518 1354 536 1371 C 553 1388 574 1397 598 1397 C 622 1397 644 1388 662 1371 C 680 1354 689 1333 689 1309 C 689 1284 680 1263 662 1246 C 644 1229 622 1221 598 1221 Z" unicode="" />
<glyph horiz-adv-x="1513" d="M 96 0 L 96 63 L 395 84 L 395 1329 L 96 1350 L 96 1413 L 1251 1413 L 1403 977 L 1348 963 L 1157 1331 L 506 1331 L 506 776 L 932 776 L 967 1038 L 1024 1038 L 1024 440 L 967 440 L 930 694 L 506 694 L 506 82 L 1219 82 L 1380 551 L 1436 541 L 1313 0 L 1159 0 C 1131 -1 1106 -8 1083 -20 C 1060 -32 1040 -48 1024 -67 C 1007 -85 994 -106 985 -131 C 975 -155 971 -181 971 -207 C 971 -259 985 -294 1014 -312 C 1042 -330 1075 -340 1112 -340 C 1135 -340 1158 -337 1182 -331 C 1205 -325 1226 -316 1245 -305 L 1266 -365 C 1242 -379 1216 -390 1188 -398 C 1159 -406 1130 -410 1100 -410 C 1072 -410 1046 -406 1022 -398 C 997 -390 975 -379 955 -364 C 935 -348 920 -327 909 -303 C 898 -278 893 -249 893 -217 C 894 -169 906 -126 929 -90 C 951 -53 980 -23 1016 0 L 96 0 Z" unicode="" />
<glyph horiz-adv-x="1141" d="M 645 -362 C 625 -346 610 -326 599 -302 C 587 -278 582 -249 582 -217 C 583 -179 591 -145 605 -115 C 619 -85 637 -59 657 -39 C 575 -45 501 -37 434 -14 C 367 8 309 44 261 92 C 212 140 175 198 149 267 C 123 336 111 414 111 500 C 111 578 122 651 144 718 C 166 785 199 842 242 890 C 284 937 334 974 393 1000 C 451 1026 517 1040 590 1040 C 663 1040 727 1026 782 1000 C 836 974 882 939 919 896 C 955 852 981 803 999 749 C 1017 695 1026 640 1026 584 C 1026 581 1025 570 1025 551 C 1024 531 1024 520 1024 518 L 211 518 L 211 489 C 212 421 222 359 240 305 C 258 250 285 203 321 164 C 355 124 398 93 448 72 C 498 51 556 41 621 41 C 705 41 774 58 827 92 C 880 126 921 176 950 242 L 1012 221 C 994 167 967 121 931 82 C 895 42 849 12 793 -10 C 753 -25 721 -51 697 -89 C 673 -126 661 -165 659 -207 C 657 -255 671 -289 701 -309 C 730 -329 763 -340 801 -340 C 824 -340 847 -337 870 -331 C 893 -325 914 -315 934 -303 L 954 -365 C 931 -379 905 -390 877 -398 C 848 -406 818 -410 786 -410 C 760 -410 735 -406 711 -398 C 686 -390 664 -378 645 -362 Z M 817 873 C 785 903 749 924 709 938 C 669 951 628 958 588 958 C 486 958 403 925 338 861 C 272 796 232 708 217 598 L 928 598 C 926 660 915 714 895 760 C 874 806 848 843 817 873 Z" unicode="" />
<glyph horiz-adv-x="1513" d="M 489 1845 L 585 1845 L 798 1650 L 1009 1845 L 1106 1845 L 1106 1839 L 835 1575 L 759 1575 L 489 1839 L 489 1845 Z M 96 0 L 96 63 L 395 84 L 395 1329 L 96 1350 L 96 1413 L 1251 1413 L 1403 977 L 1348 963 L 1157 1331 L 506 1331 L 506 776 L 932 776 L 967 1038 L 1024 1038 L 1024 440 L 967 440 L 930 694 L 506 694 L 506 82 L 1219 82 L 1380 551 L 1436 541 L 1313 0 L 96 0 Z" unicode="" />
<glyph horiz-adv-x="1141" d="M 289 1450 L 385 1450 L 598 1255 L 809 1450 L 906 1450 L 906 1444 L 635 1180 L 559 1180 L 289 1444 L 289 1450 Z M 318 165 C 353 124 396 93 447 72 C 498 51 556 41 621 41 C 705 41 774 58 827 92 C 880 126 921 176 950 242 L 1012 221 C 986 141 940 78 874 30 C 808 -17 720 -41 608 -41 C 532 -41 463 -27 401 -1 C 339 25 287 62 245 110 C 201 156 168 213 145 279 C 122 345 111 419 111 500 C 111 578 122 651 144 718 C 166 785 199 842 242 890 C 284 937 334 974 393 1000 C 451 1026 517 1040 590 1040 C 663 1040 727 1026 782 1000 C 836 974 882 939 919 896 C 955 852 981 803 999 749 C 1017 695 1026 640 1026 584 C 1026 574 1026 562 1026 548 C 1026 534 1025 524 1024 518 L 211 518 L 211 498 C 211 428 220 365 238 309 C 256 253 283 205 318 165 Z M 817 873 C 785 903 749 924 709 938 C 669 951 628 958 588 958 C 486 958 403 925 338 861 C 272 796 232 708 217 598 L 928 598 C 926 660 915 714 895 760 C 874 806 848 843 817 873 Z" unicode="" />
<glyph horiz-adv-x="1556" d="M 979 1592 L 766 1784 L 555 1592 L 459 1592 L 459 1598 L 729 1862 L 805 1862 L 1076 1598 L 1076 1592 L 979 1592 Z M 1542 600 L 1321 584 L 1321 -10 L 1260 -10 L 1227 233 C 1184 151 1122 85 1041 35 C 960 -15 865 -41 756 -41 C 670 -41 588 -24 511 8 C 433 40 365 89 307 153 C 248 216 202 294 168 386 C 134 478 117 583 117 702 C 117 821 134 927 168 1020 C 202 1112 248 1190 306 1254 C 364 1318 431 1366 509 1400 C 586 1433 668 1450 754 1450 C 844 1450 924 1431 995 1394 C 1066 1357 1128 1306 1180 1241 L 1186 1450 L 1239 1450 L 1339 887 L 1284 874 L 1237 995 C 1193 1104 1131 1192 1053 1260 C 975 1328 878 1362 764 1362 C 690 1362 620 1347 555 1319 C 489 1290 432 1248 384 1193 C 335 1137 296 1069 268 987 C 239 905 225 811 225 705 C 225 598 239 504 268 422 C 296 340 335 271 385 216 C 434 160 491 118 556 90 C 620 61 689 47 762 47 C 816 47 871 56 926 74 C 980 92 1029 121 1072 159 C 1115 196 1150 243 1178 301 C 1205 358 1219 426 1219 504 L 1219 580 L 920 600 L 920 664 L 1542 664 L 1542 600 Z" unicode="" />
<glyph horiz-adv-x="1067" d="M 528 276 L 461 276 C 415 276 378 273 349 269 C 319 264 297 258 281 252 C 264 245 253 236 247 226 C 241 216 238 206 238 197 C 238 176 246 160 264 148 C 282 136 305 127 335 121 C 364 114 398 109 437 105 C 476 101 516 98 557 94 C 611 90 665 82 718 72 C 770 62 817 47 859 28 C 901 8 934 -18 959 -50 C 984 -82 997 -122 997 -172 C 997 -216 987 -257 967 -295 C 947 -333 918 -365 880 -393 C 840 -420 791 -441 733 -457 C 674 -473 606 -481 530 -481 C 454 -481 387 -473 330 -458 C 272 -443 224 -422 186 -396 C 148 -369 119 -338 100 -304 C 81 -269 72 -232 72 -193 C 72 -137 91 -87 129 -43 C 167 1 216 30 276 45 C 230 60 197 80 178 105 C 159 130 150 156 150 184 C 150 224 164 257 193 283 C 221 309 263 324 319 330 C 261 361 215 405 181 461 C 146 517 129 584 129 662 C 129 714 138 764 157 810 C 176 856 204 896 241 930 C 277 964 320 990 370 1010 C 420 1030 477 1040 541 1040 C 584 1040 625 1034 663 1023 C 701 1011 736 995 768 975 C 777 1021 797 1061 829 1096 C 861 1131 898 1149 942 1149 C 964 1149 980 1143 991 1133 C 1002 1123 1008 1107 1008 1087 C 1008 1064 1000 1049 984 1043 C 968 1037 950 1031 930 1027 C 909 1022 889 1013 870 999 C 851 985 839 959 834 920 C 866 883 891 843 907 800 C 923 757 932 711 932 662 C 932 607 922 556 903 510 C 883 463 856 422 822 388 C 787 353 745 326 695 306 C 645 286 590 276 528 276 Z M 753 870 C 726 897 694 919 657 936 C 620 952 579 961 535 961 C 488 961 445 953 407 937 C 369 921 336 899 309 871 C 281 843 260 810 245 774 C 230 737 223 698 223 657 C 223 616 230 577 246 540 C 262 503 283 471 311 443 C 338 415 370 393 407 377 C 444 361 484 354 528 354 C 576 354 619 362 657 378 C 695 394 728 416 755 444 C 781 471 802 503 816 539 C 830 575 838 613 838 653 C 838 695 830 735 815 773 C 800 810 779 842 753 870 Z M 596 2 L 391 20 C 317 8 261 -17 223 -57 C 185 -97 166 -140 166 -186 C 166 -248 197 -299 261 -340 C 324 -380 414 -401 532 -401 C 656 -401 749 -379 809 -337 C 869 -295 899 -242 899 -180 C 899 -156 894 -135 884 -115 C 874 -95 858 -78 835 -62 C 811 -46 779 -33 740 -22 C 701 -11 653 -3 596 2 Z M 749 1180 L 536 1372 L 325 1180 L 229 1180 L 229 1186 L 499 1450 L 575 1450 L 846 1186 L 846 1180 L 749 1180 Z" unicode="" />
<glyph horiz-adv-x="1556" d="M 1542 600 L 1321 584 L 1321 -10 L 1260 -10 L 1227 233 C 1184 151 1122 85 1041 35 C 960 -15 865 -41 756 -41 C 670 -41 588 -24 511 8 C 433 40 365 89 307 153 C 248 216 202 294 168 386 C 134 478 117 583 117 702 C 117 821 134 927 168 1020 C 202 1112 248 1190 306 1254 C 364 1318 431 1366 509 1400 C 586 1433 668 1450 754 1450 C 844 1450 924 1431 995 1394 C 1066 1357 1128 1306 1180 1241 L 1186 1450 L 1239 1450 L 1339 887 L 1284 874 L 1237 995 C 1193 1104 1131 1192 1053 1260 C 975 1328 878 1362 764 1362 C 690 1362 620 1347 555 1319 C 489 1290 432 1248 384 1193 C 335 1137 296 1069 268 987 C 239 905 225 811 225 705 C 225 598 239 504 268 422 C 296 340 335 271 385 216 C 434 160 491 118 556 90 C 620 61 689 47 762 47 C 816 47 871 56 926 74 C 980 92 1029 121 1072 159 C 1115 196 1150 243 1178 301 C 1205 358 1219 426 1219 504 L 1219 580 L 920 600 L 920 664 L 1542 664 L 1542 600 Z M 1000 1850 L 1082 1850 C 1079 1765 1050 1700 995 1654 C 939 1608 863 1586 766 1586 C 669 1586 593 1608 539 1654 C 484 1700 455 1765 453 1850 L 535 1850 C 537 1786 558 1738 598 1704 C 638 1670 694 1653 766 1653 C 840 1653 896 1670 936 1704 C 976 1738 997 1786 1000 1850 Z" unicode="" />
<glyph horiz-adv-x="1067" d="M 528 276 L 461 276 C 415 276 378 273 349 269 C 319 264 297 258 281 252 C 264 245 253 236 247 226 C 241 216 238 206 238 197 C 238 176 246 160 264 148 C 282 136 305 127 335 121 C 364 114 398 109 437 105 C 476 101 516 98 557 94 C 611 90 665 82 718 72 C 770 62 817 47 859 28 C 901 8 934 -18 959 -50 C 984 -82 997 -122 997 -172 C 997 -216 987 -257 967 -295 C 947 -333 918 -365 880 -393 C 840 -420 791 -441 733 -457 C 674 -473 606 -481 530 -481 C 454 -481 387 -473 330 -458 C 272 -443 224 -422 186 -396 C 148 -369 119 -338 100 -304 C 81 -269 72 -232 72 -193 C 72 -137 91 -87 129 -43 C 167 1 216 30 276 45 C 230 60 197 80 178 105 C 159 130 150 156 150 184 C 150 224 164 257 193 283 C 221 309 263 324 319 330 C 261 361 215 405 181 461 C 146 517 129 584 129 662 C 129 714 138 764 157 810 C 176 856 204 896 241 930 C 277 964 320 990 370 1010 C 420 1030 477 1040 541 1040 C 584 1040 624 1034 662 1023 C 700 1011 734 995 766 975 C 768 1001 775 1025 785 1048 C 795 1071 808 1092 824 1111 C 840 1129 858 1144 878 1155 C 898 1165 920 1171 944 1171 C 966 1171 982 1166 993 1156 C 1004 1146 1010 1130 1010 1110 C 1010 1094 1006 1083 999 1077 C 992 1070 983 1065 972 1061 C 960 1057 947 1053 933 1051 C 919 1048 907 1043 895 1036 C 879 1028 866 1015 854 998 C 842 981 834 955 831 920 C 863 885 887 845 905 801 C 923 757 932 710 932 662 C 932 607 922 556 903 510 C 883 463 856 422 822 388 C 787 353 745 326 695 306 C 645 286 590 276 528 276 Z M 753 870 C 726 897 694 919 657 936 C 620 952 579 961 535 961 C 488 961 445 953 407 937 C 369 921 336 899 309 871 C 281 843 260 810 245 774 C 230 737 223 698 223 657 C 223 616 230 577 246 540 C 262 503 283 471 311 443 C 338 415 370 393 407 377 C 444 361 484 354 528 354 C 576 354 619 362 657 378 C 695 394 728 416 755 444 C 781 471 802 503 816 539 C 830 575 838 613 838 653 C 838 695 830 735 815 773 C 800 810 779 842 753 870 Z M 596 2 L 391 20 C 317 8 261 -17 223 -57 C 185 -97 166 -140 166 -186 C 166 -248 197 -299 261 -340 C 324 -380 414 -401 532 -401 C 656 -401 749 -379 809 -337 C 869 -295 899 -242 899 -180 C 899 -156 894 -135 884 -115 C 874 -95 858 -78 835 -62 C 811 -46 779 -33 740 -22 C 701 -11 653 -3 596 2 Z M 770 1438 L 852 1438 C 849 1353 820 1288 765 1242 C 709 1196 633 1174 536 1174 C 439 1174 363 1196 309 1242 C 254 1288 225 1353 223 1438 L 305 1438 C 307 1374 328 1326 368 1292 C 408 1258 464 1241 536 1241 C 610 1241 666 1258 706 1292 C 746 1326 767 1374 770 1438 Z" unicode="" />
<glyph horiz-adv-x="1556" d="M 1542 600 L 1321 584 L 1321 -10 L 1260 -10 L 1227 233 C 1184 151 1122 85 1041 35 C 960 -15 865 -41 756 -41 C 670 -41 588 -24 511 8 C 433 40 365 89 307 153 C 248 216 202 294 168 386 C 134 478 117 583 117 702 C 117 821 134 927 168 1020 C 202 1112 248 1190 306 1254 C 364 1318 431 1366 509 1400 C 586 1433 668 1450 754 1450 C 844 1450 924 1431 995 1394 C 1066 1357 1128 1306 1180 1241 L 1186 1450 L 1239 1450 L 1339 887 L 1284 874 L 1237 995 C 1193 1104 1131 1192 1053 1260 C 975 1328 878 1362 764 1362 C 690 1362 620 1347 555 1319 C 489 1290 432 1248 384 1193 C 335 1137 296 1069 268 987 C 239 905 225 811 225 705 C 225 598 239 504 268 422 C 296 340 335 271 385 216 C 434 160 491 118 556 90 C 620 61 689 47 762 47 C 816 47 871 56 926 74 C 980 92 1029 121 1072 159 C 1115 196 1150 243 1178 301 C 1205 358 1219 426 1219 504 L 1219 580 L 920 600 L 920 664 L 1542 664 L 1542 600 Z M 768 1616 C 744 1616 723 1624 706 1641 C 688 1658 680 1679 680 1704 C 680 1728 688 1749 706 1766 C 723 1783 744 1792 768 1792 C 792 1792 814 1783 832 1766 C 850 1749 859 1728 859 1704 C 859 1679 850 1658 832 1641 C 814 1624 792 1616 768 1616 Z" unicode="" />
<glyph horiz-adv-x="1067" d="M 528 276 L 461 276 C 415 276 378 273 349 269 C 319 264 297 258 281 252 C 264 245 253 236 247 226 C 241 216 238 206 238 197 C 238 176 246 160 264 148 C 282 136 305 127 335 121 C 364 114 398 109 437 105 C 476 101 516 98 557 94 C 611 90 665 82 718 72 C 770 62 817 47 859 28 C 901 8 934 -18 959 -50 C 984 -82 997 -122 997 -172 C 997 -216 987 -257 967 -295 C 947 -333 918 -365 880 -393 C 840 -420 791 -441 733 -457 C 674 -473 606 -481 530 -481 C 454 -481 387 -473 330 -458 C 272 -443 224 -422 186 -396 C 148 -369 119 -338 100 -304 C 81 -269 72 -232 72 -193 C 72 -137 91 -87 129 -43 C 167 1 216 30 276 45 C 230 60 197 80 178 105 C 159 130 150 156 150 184 C 150 224 164 257 193 283 C 221 309 263 324 319 330 C 261 361 215 405 181 461 C 146 517 129 584 129 662 C 129 714 138 764 157 810 C 176 856 204 896 241 930 C 277 964 320 990 370 1010 C 420 1030 477 1040 541 1040 C 584 1040 624 1034 662 1023 C 700 1011 734 995 766 975 C 768 1001 775 1025 785 1048 C 795 1071 808 1092 824 1111 C 840 1129 858 1144 878 1155 C 898 1165 920 1171 944 1171 C 966 1171 982 1166 993 1156 C 1004 1146 1010 1130 1010 1110 C 1010 1094 1006 1083 999 1077 C 992 1070 983 1065 972 1061 C 960 1057 947 1053 933 1051 C 919 1048 907 1043 895 1036 C 879 1028 866 1015 854 998 C 842 981 834 955 831 920 C 863 885 887 845 905 801 C 923 757 932 710 932 662 C 932 607 922 556 903 510 C 883 463 856 422 822 388 C 787 353 745 326 695 306 C 645 286 590 276 528 276 Z M 753 870 C 726 897 694 919 657 936 C 620 952 579 961 535 961 C 488 961 445 953 407 937 C 369 921 336 899 309 871 C 281 843 260 810 245 774 C 230 737 223 698 223 657 C 223 616 230 577 246 540 C 262 503 283 471 311 443 C 338 415 370 393 407 377 C 444 361 484 354 528 354 C 576 354 619 362 657 378 C 695 394 728 416 755 444 C 781 471 802 503 816 539 C 830 575 838 613 838 653 C 838 695 830 735 815 773 C 800 810 779 842 753 870 Z M 596 2 L 391 20 C 317 8 261 -17 223 -57 C 185 -97 166 -140 166 -186 C 166 -248 197 -299 261 -340 C 324 -380 414 -401 532 -401 C 656 -401 749 -379 809 -337 C 869 -295 899 -242 899 -180 C 899 -156 894 -135 884 -115 C 874 -95 858 -78 835 -62 C 811 -46 779 -33 740 -22 C 701 -11 653 -3 596 2 Z M 538 1221 C 514 1221 493 1229 476 1246 C 458 1263 450 1284 450 1309 C 450 1333 458 1354 476 1371 C 493 1388 514 1397 538 1397 C 562 1397 584 1388 602 1371 C 620 1354 629 1333 629 1309 C 629 1284 620 1263 602 1246 C 584 1229 562 1221 538 1221 Z" unicode="" />
<glyph horiz-adv-x="1556" d="M 725 -522 L 695 -485 C 722 -461 743 -431 758 -397 C 773 -363 782 -330 785 -299 C 757 -303 734 -296 715 -279 C 695 -262 686 -241 686 -217 C 686 -193 694 -173 712 -157 C 729 -141 748 -133 770 -133 C 794 -133 815 -141 832 -158 C 849 -175 858 -199 858 -229 C 858 -292 845 -350 821 -402 C 797 -454 765 -494 725 -522 Z M 1542 600 L 1321 584 L 1321 -10 L 1260 -10 L 1227 233 C 1184 151 1122 85 1041 35 C 960 -15 865 -41 756 -41 C 670 -41 588 -24 511 8 C 433 40 365 89 307 153 C 248 216 202 294 168 386 C 134 478 117 583 117 702 C 117 821 134 927 168 1020 C 202 1112 248 1190 306 1254 C 364 1318 431 1366 509 1400 C 586 1433 668 1450 754 1450 C 844 1450 924 1431 995 1394 C 1066 1357 1128 1306 1180 1241 L 1186 1450 L 1239 1450 L 1339 887 L 1284 874 L 1237 995 C 1193 1104 1131 1192 1053 1260 C 975 1328 878 1362 764 1362 C 690 1362 620 1347 555 1319 C 489 1290 432 1248 384 1193 C 335 1137 296 1069 268 987 C 239 905 225 811 225 705 C 225 598 239 504 268 422 C 296 340 335 271 385 216 C 434 160 491 118 556 90 C 620 61 689 47 762 47 C 816 47 871 56 926 74 C 980 92 1029 121 1072 159 C 1115 196 1150 243 1178 301 C 1205 358 1219 426 1219 504 L 1219 580 L 920 600 L 920 664 L 1542 664 L 1542 600 Z" unicode="" />
<glyph horiz-adv-x="1067" d="M 528 276 L 461 276 C 415 276 378 273 349 269 C 319 264 297 258 281 252 C 264 245 253 236 247 226 C 241 216 238 206 238 197 C 238 176 246 160 264 148 C 282 136 305 127 335 121 C 364 114 398 109 437 105 C 476 101 516 98 557 94 C 611 90 665 82 718 72 C 770 62 817 47 859 28 C 901 8 934 -18 959 -50 C 984 -82 997 -122 997 -172 C 997 -216 987 -257 967 -295 C 947 -333 918 -365 880 -393 C 840 -420 791 -441 733 -457 C 674 -473 606 -481 530 -481 C 454 -481 387 -473 330 -458 C 272 -443 224 -422 186 -396 C 148 -369 119 -338 100 -304 C 81 -269 72 -232 72 -193 C 72 -137 91 -87 129 -43 C 167 1 216 30 276 45 C 230 60 197 80 178 105 C 159 130 150 156 150 184 C 150 224 164 257 193 283 C 221 309 263 324 319 330 C 261 361 215 405 181 461 C 146 517 129 584 129 662 C 129 714 138 764 157 810 C 176 856 204 896 241 930 C 277 964 320 990 370 1010 C 420 1030 477 1040 541 1040 C 584 1040 624 1034 662 1023 C 700 1011 734 995 766 975 C 768 1001 775 1025 785 1048 C 795 1071 808 1092 824 1111 C 840 1129 858 1144 878 1155 C 898 1165 920 1171 944 1171 C 966 1171 982 1166 993 1156 C 1004 1146 1010 1130 1010 1110 C 1010 1094 1006 1083 999 1077 C 992 1070 983 1065 972 1061 C 960 1057 947 1053 933 1051 C 919 1048 907 1043 895 1036 C 879 1028 866 1015 854 998 C 842 981 834 955 831 920 C 863 885 887 845 905 801 C 923 757 932 710 932 662 C 932 607 922 556 903 510 C 883 463 856 422 822 388 C 787 353 745 326 695 306 C 645 286 590 276 528 276 Z M 753 870 C 726 897 694 919 657 936 C 620 952 579 961 535 961 C 488 961 445 953 407 937 C 369 921 336 899 309 871 C 281 843 260 810 245 774 C 230 737 223 698 223 657 C 223 616 230 577 246 540 C 262 503 283 471 311 443 C 338 415 370 393 407 377 C 444 361 484 354 528 354 C 576 354 619 362 657 378 C 695 394 728 416 755 444 C 781 471 802 503 816 539 C 830 575 838 613 838 653 C 838 695 830 735 815 773 C 800 810 779 842 753 870 Z M 596 2 L 391 20 C 317 8 261 -17 223 -57 C 185 -97 166 -140 166 -186 C 166 -248 197 -299 261 -340 C 324 -380 414 -401 532 -401 C 656 -401 749 -379 809 -337 C 869 -295 899 -242 899 -180 C 899 -156 894 -135 884 -115 C 874 -95 858 -78 835 -62 C 811 -46 779 -33 740 -22 C 701 -11 653 -3 596 2 Z M 586 1608 L 616 1571 C 588 1547 567 1518 552 1484 C 537 1450 528 1417 526 1385 C 553 1389 576 1383 596 1366 C 615 1349 625 1328 625 1303 C 625 1280 616 1260 599 1244 C 581 1228 562 1219 541 1219 C 516 1219 495 1228 478 1245 C 461 1262 453 1285 453 1315 C 453 1379 465 1437 489 1489 C 513 1541 546 1581 586 1608 Z" unicode="" />
<glyph horiz-adv-x="1810" d="M 1115 1575 L 902 1767 L 691 1575 L 595 1575 L 595 1581 L 865 1845 L 941 1845 L 1212 1581 L 1212 1575 L 1115 1575 Z M 1001 63 L 1305 84 L 1305 694 L 504 694 L 504 84 L 809 63 L 809 0 L 96 0 L 96 63 L 395 84 L 395 1327 L 96 1350 L 96 1413 L 809 1413 L 809 1350 L 504 1329 L 504 776 L 1305 776 L 1305 1329 L 1001 1350 L 1001 1413 L 1714 1413 L 1714 1350 L 1413 1327 L 1413 84 L 1714 63 L 1714 0 L 1001 0 L 1001 63 Z" unicode="" />
<glyph horiz-adv-x="1479" d="M 596 1612 L 383 1804 L 172 1612 L 76 1612 L 76 1618 L 346 1882 L 422 1882 L 693 1618 L 693 1612 L 596 1612 Z M 840 57 L 1077 78 L 1077 682 C 1077 764 1055 829 1012 878 C 969 927 907 952 827 952 C 745 952 670 928 601 882 C 532 836 476 778 434 709 L 434 78 L 666 57 L 666 0 L 96 0 L 96 59 L 332 80 L 332 1391 C 290 1371 244 1360 194 1357 C 144 1353 94 1356 45 1366 L 45 1413 C 113 1411 174 1421 230 1443 C 285 1465 334 1498 377 1544 L 434 1528 L 434 807 C 479 875 537 930 608 974 C 679 1018 758 1040 846 1040 C 907 1040 959 1030 1001 1011 C 1043 992 1078 967 1105 936 C 1131 904 1150 867 1162 825 C 1174 783 1180 738 1180 692 L 1180 80 L 1399 59 L 1399 0 L 840 0 L 840 57 Z" unicode="" />
<glyph horiz-adv-x="1810" d="M 506 1028 L 506 772 L 1305 772 L 1305 1028 L 506 1028 Z M 1001 63 L 1305 84 L 1305 692 L 506 692 L 506 84 L 809 63 L 809 0 L 96 0 L 96 63 L 395 84 L 395 1028 L 96 1028 L 96 1096 L 395 1096 L 395 1327 L 96 1350 L 96 1413 L 809 1413 L 809 1350 L 506 1329 L 506 1096 L 1305 1096 L 1305 1329 L 1001 1350 L 1001 1413 L 1714 1413 L 1714 1350 L 1413 1327 L 1413 1096 L 1714 1096 L 1714 1028 L 1413 1028 L 1413 84 L 1714 63 L 1714 0 L 1001 0 L 1001 63 Z" unicode="" />
<glyph horiz-adv-x="1487" d="M 96 59 L 338 80 L 338 1126 L 55 1126 L 55 1192 L 338 1192 L 338 1393 C 296 1372 250 1360 200 1357 C 150 1353 101 1356 53 1366 L 53 1413 C 121 1411 182 1421 238 1443 C 293 1465 342 1498 385 1542 L 442 1526 L 442 1192 L 854 1192 L 854 1126 L 442 1126 L 442 803 C 487 871 545 926 616 970 C 687 1014 766 1036 854 1036 C 915 1036 967 1026 1009 1007 C 1051 988 1086 963 1113 932 C 1139 900 1158 864 1170 822 C 1182 780 1188 736 1188 690 L 1188 80 L 1407 59 L 1407 0 L 848 0 L 848 57 L 1085 78 L 1085 680 C 1085 762 1063 827 1020 875 C 977 923 916 948 836 948 C 754 948 678 924 609 878 C 540 832 484 774 442 705 L 442 78 L 674 57 L 674 0 L 96 0 L 96 59 Z" unicode="" />
<glyph horiz-adv-x="905" d="M 807 0 L 96 0 L 96 63 L 397 84 L 397 1329 L 96 1350 L 96 1413 L 807 1413 L 807 1350 L 506 1327 L 506 84 L 807 63 L 807 0 Z M 200 1614 L 125 1614 C 125 1650 130 1682 140 1708 C 150 1734 163 1754 181 1770 C 198 1786 217 1797 238 1805 C 259 1812 281 1816 305 1816 C 335 1816 363 1808 389 1792 C 415 1776 440 1760 464 1742 C 488 1723 511 1706 534 1690 C 557 1674 582 1667 608 1667 C 636 1667 659 1679 677 1704 C 695 1728 704 1760 704 1800 L 780 1800 C 780 1762 774 1730 764 1704 C 754 1678 741 1656 725 1640 C 708 1624 689 1612 669 1605 C 649 1598 628 1595 608 1595 C 576 1595 548 1602 522 1618 C 496 1634 471 1651 447 1670 C 423 1688 399 1705 376 1721 C 353 1737 329 1745 305 1745 C 273 1745 248 1733 229 1709 C 209 1685 200 1653 200 1614 Z" unicode="" />
<glyph horiz-adv-x="758" d="M 96 59 L 340 80 L 340 893 C 299 872 253 860 203 857 C 152 853 103 856 55 866 L 55 911 C 121 909 182 920 237 942 C 291 964 341 998 385 1044 L 442 1026 L 442 80 L 680 59 L 680 0 L 96 0 L 96 59 Z M 139 1219 L 64 1219 C 64 1255 69 1287 79 1313 C 89 1339 102 1359 120 1375 C 137 1391 156 1402 177 1410 C 198 1417 220 1421 244 1421 C 274 1421 302 1413 328 1397 C 354 1381 379 1365 403 1347 C 427 1328 450 1311 473 1295 C 496 1279 521 1272 547 1272 C 575 1272 598 1284 616 1309 C 634 1333 643 1365 643 1405 L 719 1405 C 719 1367 713 1335 703 1309 C 693 1283 680 1261 664 1245 C 647 1229 628 1217 608 1210 C 588 1203 567 1200 547 1200 C 515 1200 487 1207 461 1223 C 435 1239 410 1256 386 1275 C 362 1293 338 1310 315 1326 C 292 1342 268 1350 244 1350 C 212 1350 187 1338 168 1314 C 148 1290 139 1258 139 1219 Z" unicode="" />
<glyph horiz-adv-x="905" d="M 807 0 L 96 0 L 96 63 L 397 84 L 397 1329 L 96 1350 L 96 1413 L 807 1413 L 807 1350 L 506 1327 L 506 84 L 807 63 L 807 0 Z M 200 1732 L 706 1732 L 706 1659 L 200 1659 L 200 1732 Z" unicode="" />
<glyph horiz-adv-x="758" d="M 96 59 L 340 80 L 340 893 C 299 872 253 860 203 857 C 152 853 103 856 55 866 L 55 911 C 121 909 182 920 237 942 C 291 964 341 998 385 1044 L 442 1026 L 442 80 L 680 59 L 680 0 L 96 0 L 96 59 Z M 139 1337 L 645 1337 L 645 1264 L 139 1264 L 139 1337 Z" unicode="" />
<glyph horiz-adv-x="905" d="M 807 0 L 96 0 L 96 63 L 397 84 L 397 1329 L 96 1350 L 96 1413 L 807 1413 L 807 1350 L 506 1327 L 506 84 L 807 63 L 807 0 Z M 686 1833 L 768 1833 C 765 1748 736 1683 681 1637 C 625 1591 549 1569 452 1569 C 355 1569 279 1591 225 1637 C 170 1683 141 1748 139 1833 L 221 1833 C 223 1769 244 1721 284 1687 C 324 1653 380 1636 452 1636 C 526 1636 582 1653 622 1687 C 662 1721 683 1769 686 1833 Z" unicode="" />
<glyph horiz-adv-x="758" d="M 96 59 L 340 80 L 340 893 C 299 872 253 860 203 857 C 152 853 103 856 55 866 L 55 911 C 121 909 182 920 237 942 C 291 964 341 998 385 1044 L 442 1026 L 442 80 L 680 59 L 680 0 L 96 0 L 96 59 Z M 625 1438 L 707 1438 C 704 1353 675 1288 620 1242 C 564 1196 488 1174 391 1174 C 294 1174 218 1196 164 1242 C 109 1288 80 1353 78 1438 L 160 1438 C 162 1374 183 1326 223 1292 C 263 1258 319 1241 391 1241 C 465 1241 521 1258 561 1292 C 601 1326 622 1374 625 1438 Z" unicode="" />
<glyph horiz-adv-x="905" d="M 807 0 L 653 0 C 624 0 598 -5 574 -17 C 550 -29 530 -44 512 -63 C 494 -82 480 -104 471 -130 C 461 -155 457 -181 457 -207 C 457 -259 471 -294 500 -312 C 528 -330 561 -340 598 -340 C 621 -340 644 -337 667 -331 C 690 -325 711 -316 731 -305 L 752 -365 C 728 -379 702 -390 674 -398 C 645 -406 616 -410 586 -410 C 558 -410 532 -406 508 -398 C 483 -390 461 -379 441 -364 C 421 -348 406 -327 395 -303 C 384 -278 379 -249 379 -217 C 380 -169 392 -126 415 -90 C 437 -53 466 -23 502 0 L 96 0 L 96 63 L 397 84 L 397 1329 L 96 1350 L 96 1413 L 807 1413 L 807 1350 L 506 1327 L 506 84 L 807 63 L 807 0 Z" unicode="" />
<glyph horiz-adv-x="758" d="M 387 1247 C 362 1247 341 1255 324 1272 C 307 1289 299 1310 299 1335 C 299 1359 307 1380 324 1397 C 341 1414 362 1423 387 1423 C 411 1423 432 1414 450 1397 C 468 1380 477 1359 477 1335 C 477 1310 468 1289 450 1272 C 432 1255 411 1247 387 1247 Z M 96 59 L 340 80 L 340 893 C 299 872 253 860 203 857 C 152 853 103 856 55 866 L 55 911 C 121 909 182 920 237 942 C 291 964 341 998 385 1044 L 442 1026 L 442 80 L 680 59 L 680 0 L 508 0 C 480 -1 455 -8 432 -20 C 408 -32 389 -48 373 -67 C 356 -85 343 -106 333 -131 C 323 -155 319 -181 319 -207 C 319 -259 333 -294 362 -312 C 391 -330 424 -340 461 -340 C 484 -340 507 -337 530 -331 C 553 -325 574 -316 594 -305 L 614 -365 C 591 -379 565 -390 537 -398 C 508 -406 479 -410 449 -410 C 421 -410 395 -406 371 -398 C 346 -390 324 -379 304 -364 C 284 -348 268 -327 258 -303 C 247 -278 242 -249 242 -217 C 243 -169 255 -126 277 -90 C 299 -53 329 -23 365 0 L 96 0 L 96 59 Z" unicode="" />
<glyph horiz-adv-x="905" d="M 807 0 L 96 0 L 96 63 L 397 84 L 397 1329 L 96 1350 L 96 1413 L 807 1413 L 807 1350 L 506 1327 L 506 84 L 807 63 L 807 0 Z M 452 1616 C 428 1616 407 1624 390 1641 C 372 1658 364 1679 364 1704 C 364 1728 372 1749 390 1766 C 407 1783 428 1792 452 1792 C 476 1792 498 1783 516 1766 C 534 1749 543 1728 543 1704 C 543 1679 534 1658 516 1641 C 498 1624 476 1616 452 1616 Z" unicode="" />
<glyph horiz-adv-x="758" d="M 96 59 L 340 80 L 340 893 C 299 872 253 860 203 857 C 152 853 103 856 55 866 L 55 911 C 121 909 182 920 237 942 C 291 964 341 998 385 1044 L 442 1026 L 442 80 L 680 59 L 680 0 L 96 0 L 96 59 Z" unicode="" />
<glyph horiz-adv-x="2071" d="M 807 0 L 96 0 L 96 63 L 397 84 L 397 1329 L 96 1350 L 96 1413 L 807 1413 L 807 1350 L 506 1327 L 506 84 L 807 63 L 807 0 Z M 1079 203 C 1095 152 1127 113 1174 87 C 1221 60 1275 47 1337 47 C 1429 47 1503 76 1559 135 C 1614 193 1642 281 1642 397 L 1642 1327 L 1335 1350 L 1335 1413 L 2031 1413 L 2031 1350 L 1749 1329 L 1749 391 C 1749 251 1711 144 1636 70 C 1560 -3 1459 -41 1333 -41 C 1247 -41 1172 -21 1109 17 C 1045 56 998 108 966 174 C 960 186 955 198 952 208 C 949 218 948 228 948 238 C 948 258 953 274 963 285 C 973 295 987 301 1007 301 C 1035 301 1052 291 1058 271 C 1064 251 1071 229 1079 203 Z" unicode="" />
<glyph horiz-adv-x="1360" d="M 387 1247 C 362 1247 341 1255 324 1272 C 307 1289 299 1310 299 1335 C 299 1359 307 1380 324 1397 C 341 1414 362 1423 387 1423 C 411 1423 432 1414 450 1397 C 468 1380 477 1359 477 1335 C 477 1310 468 1289 450 1272 C 432 1255 411 1247 387 1247 Z M 96 59 L 340 80 L 340 893 C 299 872 253 860 203 857 C 152 853 103 856 55 866 L 55 911 C 121 909 182 920 237 942 C 291 964 341 998 385 1044 L 442 1026 L 442 80 L 680 59 L 680 0 L 96 0 L 96 59 Z M 1127 1247 C 1102 1247 1081 1255 1064 1272 C 1047 1289 1039 1310 1039 1335 C 1039 1359 1047 1380 1064 1398 C 1081 1416 1102 1425 1127 1425 C 1151 1425 1172 1416 1190 1398 C 1208 1380 1217 1359 1217 1335 C 1217 1310 1208 1289 1190 1272 C 1172 1255 1151 1247 1127 1247 Z M 1182 -139 C 1182 -256 1158 -341 1110 -393 C 1062 -445 998 -471 918 -471 C 879 -471 845 -466 816 -456 C 786 -446 762 -434 742 -420 C 721 -404 705 -388 694 -370 C 683 -352 678 -335 678 -319 C 678 -301 683 -287 694 -276 C 705 -265 719 -260 735 -260 C 755 -260 770 -268 779 -284 C 788 -300 799 -318 811 -336 C 822 -349 835 -361 851 -371 C 867 -381 890 -387 920 -387 C 972 -387 1011 -369 1039 -333 C 1066 -297 1080 -240 1080 -162 L 1080 893 C 1038 872 992 860 941 857 C 889 853 840 856 793 866 L 793 911 C 858 909 918 920 974 942 C 1029 964 1079 998 1123 1044 L 1182 1026 L 1182 -139 Z" unicode="" />
<glyph horiz-adv-x="1167" d="M 1003 1575 L 790 1767 L 579 1575 L 483 1575 L 483 1581 L 753 1845 L 829 1845 L 1100 1581 L 1100 1575 L 1003 1575 Z M 174 203 C 190 152 222 113 269 87 C 316 60 370 47 432 47 C 524 47 598 76 654 135 C 709 193 737 281 737 397 L 737 1327 L 430 1350 L 430 1413 L 1126 1413 L 1126 1350 L 844 1329 L 844 391 C 844 251 806 144 731 70 C 655 -3 554 -41 428 -41 C 342 -41 267 -21 204 17 C 140 56 93 108 61 174 C 55 186 50 198 47 208 C 44 218 43 228 43 238 C 43 258 48 274 58 285 C 68 295 82 301 102 301 C 130 301 147 291 153 271 C 159 251 166 229 174 203 Z" unicode="" />
<glyph horiz-adv-x="602" d="M 424 -141 C 424 -258 400 -342 352 -394 C 304 -445 241 -471 162 -471 C 123 -471 89 -466 59 -456 C 29 -446 4 -434 -16 -420 C -36 -404 -52 -388 -63 -370 C -74 -352 -80 -335 -80 -319 C -80 -301 -74 -287 -63 -276 C -52 -265 -39 -260 -23 -260 C -3 -260 10 -267 19 -282 C 28 -297 39 -313 51 -330 C 62 -344 75 -357 91 -368 C 107 -379 130 -385 162 -385 C 214 -385 253 -367 281 -332 C 308 -296 322 -240 322 -162 L 322 893 C 280 872 234 860 183 857 C 131 853 82 856 35 866 L 35 911 C 100 909 160 920 216 942 C 271 964 321 998 365 1044 L 424 1026 L 424 -141 Z M 585 1180 L 372 1372 L 161 1180 L 65 1180 L 65 1186 L 335 1450 L 411 1450 L 682 1186 L 682 1180 L 585 1180 Z" unicode="" />
<glyph horiz-adv-x="1612" d="M 800 -522 L 770 -485 C 797 -461 818 -431 833 -397 C 848 -363 857 -330 860 -299 C 832 -303 809 -296 790 -279 C 770 -262 761 -241 761 -217 C 761 -193 769 -173 787 -157 C 804 -141 823 -133 845 -133 C 869 -133 890 -141 907 -158 C 924 -175 933 -199 933 -229 C 933 -292 920 -350 896 -402 C 872 -454 840 -494 800 -522 Z M 743 0 L 96 0 L 96 63 L 395 84 L 395 1327 L 96 1350 L 96 1413 L 750 1413 L 750 1350 L 504 1329 L 504 551 L 1235 1327 L 944 1350 L 944 1413 L 1550 1413 L 1550 1350 L 1358 1331 L 862 809 L 1348 82 L 1550 63 L 1550 0 L 940 0 L 940 63 L 1229 82 L 793 735 L 504 432 L 504 82 L 743 63 L 743 0 Z" unicode="" />
<glyph horiz-adv-x="1331" d="M 657 -522 L 627 -485 C 654 -461 675 -431 690 -397 C 705 -363 714 -330 717 -299 C 689 -303 666 -296 647 -279 C 627 -262 618 -241 618 -217 C 618 -193 626 -173 644 -157 C 661 -141 680 -133 702 -133 C 726 -133 747 -141 764 -158 C 781 -175 790 -199 790 -229 C 790 -292 777 -350 753 -402 C 729 -454 697 -494 657 -522 Z M 801 57 L 977 76 L 662 543 L 436 317 L 436 78 L 625 57 L 625 0 L 96 0 L 96 59 L 334 80 L 334 1393 C 291 1372 244 1360 194 1357 C 144 1353 95 1356 47 1366 L 47 1413 C 113 1411 174 1421 230 1443 C 285 1465 335 1498 379 1544 L 436 1528 L 436 424 L 922 920 L 700 940 L 700 997 L 1237 997 L 1237 938 L 1047 922 L 729 608 L 1090 78 L 1276 59 L 1276 0 L 801 0 L 801 57 Z" unicode="" />
<glyph horiz-adv-x="1331" d="M 793 57 L 977 78 L 672 528 L 436 297 L 436 76 L 616 57 L 616 0 L 96 0 L 96 59 L 334 80 L 334 918 L 96 938 L 96 997 L 590 997 L 590 940 L 436 920 L 436 401 L 946 922 L 774 940 L 774 997 L 1260 997 L 1260 938 L 1069 922 L 737 594 L 1090 78 L 1276 59 L 1276 0 L 793 0 L 793 57 Z" unicode="" />
<glyph horiz-adv-x="1489" d="M 710 1837 L 428 1575 L 340 1575 L 340 1581 L 573 1843 L 710 1843 L 710 1837 Z M 98 1413 L 813 1413 L 813 1350 L 506 1329 L 506 82 L 1212 82 L 1378 551 L 1434 541 L 1309 0 L 98 0 L 98 63 L 397 84 L 397 1329 L 98 1350 L 98 1413 Z" unicode="" />
<glyph horiz-adv-x="743" d="M 612 1907 L 330 1645 L 242 1645 L 242 1651 L 475 1913 L 612 1913 L 612 1907 Z M 96 59 L 334 80 L 334 1393 C 292 1372 246 1360 195 1357 C 144 1353 95 1356 47 1366 L 47 1413 C 114 1411 175 1421 230 1443 C 285 1465 334 1498 377 1544 L 436 1528 L 436 78 L 666 59 L 666 0 L 96 0 L 96 59 Z" unicode="" />
<glyph horiz-adv-x="1489" d="M 770 -522 L 740 -485 C 767 -461 788 -431 803 -397 C 818 -363 827 -330 830 -299 C 802 -303 779 -296 760 -279 C 740 -262 731 -241 731 -217 C 731 -193 739 -173 757 -157 C 774 -141 793 -133 815 -133 C 839 -133 860 -141 877 -158 C 894 -175 903 -199 903 -229 C 903 -292 890 -350 866 -402 C 842 -454 810 -494 770 -522 Z M 98 1413 L 813 1413 L 813 1350 L 506 1329 L 506 82 L 1212 82 L 1378 551 L 1434 541 L 1309 0 L 98 0 L 98 63 L 397 84 L 397 1329 L 98 1350 L 98 1413 Z" unicode="" />
<glyph horiz-adv-x="743" d="M 331 -522 L 301 -485 C 328 -461 349 -431 364 -397 C 379 -363 388 -330 391 -299 C 363 -303 340 -296 321 -279 C 301 -262 292 -241 292 -217 C 292 -193 300 -173 318 -157 C 335 -141 354 -133 376 -133 C 400 -133 421 -141 438 -158 C 455 -175 464 -199 464 -229 C 464 -292 451 -350 427 -402 C 403 -454 371 -494 331 -522 Z M 96 59 L 334 80 L 334 1393 C 292 1372 246 1360 195 1357 C 144 1353 95 1356 47 1366 L 47 1413 C 114 1411 175 1421 230 1443 C 285 1465 334 1498 377 1544 L 436 1528 L 436 78 L 666 59 L 666 0 L 96 0 L 96 59 Z" unicode="" />
<glyph horiz-adv-x="1489" d="M 1146 1030 L 1079 1030 L 1081 1442 L 1208 1442 L 1146 1030 Z M 98 1413 L 813 1413 L 813 1350 L 506 1329 L 506 82 L 1212 82 L 1378 551 L 1434 541 L 1309 0 L 98 0 L 98 63 L 397 84 L 397 1329 L 98 1350 L 98 1413 Z" unicode="" />
<glyph horiz-adv-x="807" d="M 723 1126 L 656 1126 L 658 1538 L 785 1538 L 723 1126 Z M 96 59 L 334 80 L 334 1393 C 292 1372 246 1360 195 1357 C 144 1353 95 1356 47 1366 L 47 1413 C 114 1411 175 1421 230 1443 C 285 1465 334 1498 377 1544 L 436 1528 L 436 78 L 666 59 L 666 0 L 96 0 L 96 59 Z" unicode="" />
<glyph horiz-adv-x="1489" d="M 98 1413 L 813 1413 L 813 1350 L 506 1329 L 506 82 L 1212 82 L 1378 551 L 1434 541 L 1309 0 L 98 0 L 98 63 L 397 84 L 397 1329 L 98 1350 L 98 1413 Z M 950 746 C 926 746 905 754 888 771 C 870 788 862 809 862 834 C 862 858 870 879 888 896 C 905 913 926 922 950 922 C 974 922 996 913 1014 896 C 1032 879 1041 858 1041 834 C 1041 809 1032 788 1014 771 C 996 754 974 746 950 746 Z" unicode="" />
<glyph horiz-adv-x="743" d="M 96 59 L 334 80 L 334 1393 C 292 1372 246 1360 195 1357 C 144 1353 95 1356 47 1366 L 47 1413 C 114 1411 175 1421 230 1443 C 285 1465 334 1498 377 1544 L 436 1528 L 436 78 L 666 59 L 666 0 L 96 0 L 96 59 Z M 745 746 C 721 746 700 754 683 771 C 665 788 657 809 657 834 C 657 858 665 879 683 896 C 700 913 721 922 745 922 C 769 922 791 913 809 896 C 827 879 836 858 836 834 C 836 809 827 788 809 771 C 791 754 769 746 745 746 Z" unicode="" />
<glyph horiz-adv-x="1489" d="M 98 1413 L 813 1413 L 813 1350 L 506 1329 L 506 727 L 1014 1016 L 1014 928 L 506 639 L 506 82 L 1212 82 L 1378 551 L 1434 541 L 1309 0 L 98 0 L 98 63 L 397 84 L 397 578 L 98 408 L 98 496 L 397 666 L 397 1329 L 98 1350 L 98 1413 Z" unicode="" />
<glyph horiz-adv-x="743" d="M 96 59 L 324 80 L 324 614 L 94 438 L 94 530 L 324 707 L 324 1393 C 284 1372 239 1360 190 1357 C 141 1353 93 1356 47 1366 L 47 1413 C 111 1411 169 1421 223 1443 C 276 1465 324 1498 367 1544 L 426 1528 L 426 784 L 666 969 L 666 879 L 426 694 L 426 78 L 666 59 L 666 0 L 96 0 L 96 59 Z" unicode="" />
<glyph horiz-adv-x="1810" d="M 1163 1837 L 881 1575 L 793 1575 L 793 1581 L 1026 1843 L 1163 1843 L 1163 1837 Z M 1008 1413 L 1714 1413 L 1714 1350 L 1415 1329 L 1415 -2 L 1327 -2 L 494 1282 L 498 84 L 811 63 L 811 0 L 96 0 L 96 63 L 395 84 L 395 1327 L 96 1350 L 96 1413 L 815 1413 L 815 1350 L 569 1333 L 1317 180 L 1313 1327 L 1008 1350 L 1008 1413 Z" unicode="" />
<glyph horiz-adv-x="1487" d="M 1054 1442 L 772 1180 L 684 1180 L 684 1186 L 917 1448 L 1054 1448 L 1054 1442 Z M 850 57 L 1087 78 L 1087 682 C 1087 764 1065 829 1022 878 C 979 927 917 952 836 952 C 754 952 678 928 609 881 C 540 834 484 775 442 705 L 442 78 L 676 57 L 676 0 L 96 0 L 96 59 L 340 80 L 340 891 C 299 870 254 858 204 856 C 154 853 104 856 55 866 L 55 911 C 123 909 184 920 239 942 C 293 964 341 998 383 1044 L 440 1028 L 440 803 C 485 872 544 929 616 973 C 688 1017 768 1040 856 1040 C 917 1040 969 1030 1011 1011 C 1053 992 1088 967 1115 936 C 1141 904 1160 867 1172 825 C 1184 783 1190 738 1190 692 L 1190 80 L 1409 59 L 1409 0 L 850 0 L 850 57 Z" unicode="" />
<glyph horiz-adv-x="1810" d="M 874 -522 L 844 -485 C 871 -461 892 -431 907 -397 C 922 -363 931 -330 934 -299 C 906 -303 883 -296 864 -279 C 844 -262 835 -241 835 -217 C 835 -193 843 -173 861 -157 C 878 -141 897 -133 919 -133 C 943 -133 964 -141 981 -158 C 998 -175 1007 -199 1007 -229 C 1007 -292 994 -350 970 -402 C 946 -454 914 -494 874 -522 Z M 1008 1413 L 1714 1413 L 1714 1350 L 1415 1329 L 1415 -2 L 1327 -2 L 494 1282 L 498 84 L 811 63 L 811 0 L 96 0 L 96 63 L 395 84 L 395 1327 L 96 1350 L 96 1413 L 815 1413 L 815 1350 L 569 1333 L 1317 180 L 1313 1327 L 1008 1350 L 1008 1413 Z" unicode="" />
<glyph horiz-adv-x="1487" d="M 727 -522 L 697 -485 C 724 -461 745 -431 760 -397 C 775 -363 784 -330 787 -299 C 759 -303 736 -296 717 -279 C 697 -262 688 -241 688 -217 C 688 -193 696 -173 714 -157 C 731 -141 750 -133 772 -133 C 796 -133 817 -141 834 -158 C 851 -175 860 -199 860 -229 C 860 -292 847 -350 823 -402 C 799 -454 767 -494 727 -522 Z M 850 57 L 1087 78 L 1087 682 C 1087 764 1065 829 1022 878 C 979 927 917 952 836 952 C 754 952 678 928 609 881 C 540 834 484 775 442 705 L 442 78 L 676 57 L 676 0 L 96 0 L 96 59 L 340 80 L 340 891 C 299 870 254 858 204 856 C 154 853 104 856 55 866 L 55 911 C 123 909 184 920 239 942 C 293 964 341 998 383 1044 L 440 1028 L 440 803 C 485 872 544 929 616 973 C 688 1017 768 1040 856 1040 C 917 1040 969 1030 1011 1011 C 1053 992 1088 967 1115 936 C 1141 904 1160 867 1172 825 C 1184 783 1190 738 1190 692 L 1190 80 L 1409 59 L 1409 0 L 850 0 L 850 57 Z" unicode="" />
<glyph horiz-adv-x="1810" d="M 598 1845 L 694 1845 L 907 1650 L 1118 1845 L 1215 1845 L 1215 1839 L 944 1575 L 868 1575 L 598 1839 L 598 1845 Z M 1008 1413 L 1714 1413 L 1714 1350 L 1415 1329 L 1415 -2 L 1327 -2 L 494 1282 L 498 84 L 811 63 L 811 0 L 96 0 L 96 63 L 395 84 L 395 1327 L 96 1350 L 96 1413 L 815 1413 L 815 1350 L 569 1333 L 1317 180 L 1313 1327 L 1008 1350 L 1008 1413 Z" unicode="" />
<glyph horiz-adv-x="1487" d="M 489 1450 L 585 1450 L 798 1255 L 1009 1450 L 1106 1450 L 1106 1444 L 835 1180 L 759 1180 L 489 1444 L 489 1450 Z M 850 57 L 1087 78 L 1087 682 C 1087 764 1065 829 1022 878 C 979 927 917 952 836 952 C 754 952 678 928 609 881 C 540 834 484 775 442 705 L 442 78 L 676 57 L 676 0 L 96 0 L 96 59 L 340 80 L 340 891 C 299 870 254 858 204 856 C 154 853 104 856 55 866 L 55 911 C 123 909 184 920 239 942 C 293 964 341 998 383 1044 L 440 1028 L 440 803 C 485 872 544 929 616 973 C 688 1017 768 1040 856 1040 C 917 1040 969 1030 1011 1011 C 1053 992 1088 967 1115 936 C 1141 904 1160 867 1172 825 C 1184 783 1190 738 1190 692 L 1190 80 L 1409 59 L 1409 0 L 850 0 L 850 57 Z" unicode="" />
<glyph horiz-adv-x="1810" d="M 1313 -162 L 1313 18 L 496 1286 L 498 84 L 811 63 L 811 0 L 96 0 L 96 63 L 395 84 L 395 1329 L 96 1350 L 96 1413 L 815 1413 L 815 1350 L 573 1335 L 1313 180 L 1313 1329 L 1008 1350 L 1008 1413 L 1714 1413 L 1714 1350 L 1415 1329 L 1415 -141 C 1415 -258 1391 -342 1343 -394 C 1295 -445 1231 -471 1149 -471 C 1112 -471 1079 -466 1050 -456 C 1020 -446 995 -434 974 -419 C 952 -403 936 -386 925 -368 C 914 -350 909 -333 909 -317 C 909 -298 914 -283 926 -273 C 938 -263 951 -258 967 -258 C 983 -258 996 -264 1007 -276 C 1018 -288 1027 -302 1034 -317 C 1046 -340 1062 -357 1082 -369 C 1102 -380 1127 -385 1157 -385 C 1206 -383 1244 -364 1272 -328 C 1299 -292 1313 -236 1313 -162 Z" unicode="" />
<glyph horiz-adv-x="1391" d="M 926 -471 C 888 -471 855 -466 825 -456 C 795 -446 770 -434 750 -419 C 729 -403 713 -386 701 -368 C 689 -350 684 -333 684 -317 C 684 -298 689 -283 701 -273 C 713 -263 726 -258 741 -258 C 757 -258 771 -264 782 -276 C 793 -288 802 -302 809 -317 C 819 -340 836 -357 859 -369 C 881 -381 906 -386 934 -385 C 984 -383 1022 -364 1047 -327 C 1072 -289 1085 -234 1085 -162 L 1085 682 C 1085 764 1063 829 1021 878 C 979 927 917 952 836 952 C 754 952 678 928 609 881 C 540 834 484 775 442 705 L 442 78 L 676 57 L 676 0 L 96 0 L 96 59 L 340 80 L 340 891 C 299 870 254 858 204 856 C 154 853 104 856 55 866 L 55 911 C 123 909 184 920 239 942 C 293 964 341 998 383 1044 L 440 1028 L 440 803 C 485 872 544 929 616 973 C 688 1017 768 1040 856 1040 C 917 1040 969 1030 1011 1011 C 1053 992 1088 967 1115 936 C 1141 904 1160 867 1172 825 C 1184 783 1190 738 1190 692 L 1190 -141 C 1190 -258 1166 -342 1118 -394 C 1070 -445 1006 -471 926 -471 Z" unicode="" />
<glyph horiz-adv-x="1577" d="M 534 1732 L 1040 1732 L 1040 1659 L 534 1659 L 534 1732 Z M 1263 1254 C 1323 1190 1371 1112 1407 1020 C 1442 927 1460 822 1460 705 C 1460 587 1442 481 1407 389 C 1371 296 1323 218 1263 155 C 1201 91 1130 42 1048 9 C 966 -24 879 -41 786 -41 C 694 -41 608 -24 527 9 C 446 42 375 91 314 155 C 253 218 205 296 170 389 C 134 481 117 587 117 705 C 117 822 134 927 170 1020 C 205 1112 253 1190 314 1254 C 375 1318 446 1366 527 1400 C 608 1433 695 1450 788 1450 C 880 1450 966 1433 1048 1400 C 1130 1366 1201 1318 1263 1254 Z M 392 1193 C 340 1137 300 1069 270 987 C 240 905 225 811 225 705 C 225 598 240 504 270 422 C 300 340 340 271 392 216 C 443 160 502 118 570 90 C 638 61 710 47 786 47 C 864 47 937 61 1005 90 C 1073 118 1133 160 1185 216 C 1236 271 1277 340 1307 422 C 1337 504 1352 598 1352 705 C 1352 811 1337 905 1307 987 C 1277 1069 1236 1137 1185 1193 C 1133 1248 1073 1290 1005 1319 C 937 1347 864 1362 786 1362 C 710 1362 638 1347 570 1319 C 502 1290 443 1248 392 1193 Z" unicode="" />
</font>
</defs>
</svg>
