<?xml version="1.0" encoding="utf-8" ?><svg version="1.1" xmlns = 'http://www.w3.org/2000/svg'><defs><font id='web' horiz-adv-x="1000">
<font-face font-family="web" descent="-410" cap-height="1434" units-per-em="2048" bbox="-379,-410,1954,1855" x-height="1024" ascent="1638" />
<missing-glyph horiz-adv-x="1024" d="" /><glyph horiz-adv-x="442" d="" unicode=" " />
<glyph horiz-adv-x="348" d="M 246 991 L 207 518 L 141 518 L 102 991 L 102 1573 L 246 1573 L 246 991 Z M 248 0 L 100 0 L 100 276 L 248 276 L 248 0 Z" unicode="!" />
<glyph horiz-adv-x="492" d="M 205 1573 L 193 1214 L 96 1214 L 82 1573 L 205 1573 Z M 410 1573 L 397 1214 L 301 1214 L 287 1573 L 410 1573 Z" unicode="&#x22;" />
<glyph horiz-adv-x="1001" d="M 979 1128 L 958 969 L 750 969 L 702 622 L 922 622 L 899 463 L 680 463 L 618 0 L 532 0 L 596 463 L 317 463 L 256 0 L 170 0 L 233 463 L 29 463 L 51 622 L 256 622 L 303 969 L 86 969 L 106 1128 L 324 1128 L 385 1573 L 471 1573 L 410 1128 L 686 1128 L 748 1573 L 834 1573 L 772 1128 L 979 1128 Z M 666 969 L 387 969 L 340 622 L 616 622 L 666 969 Z" unicode="#" />
<glyph horiz-adv-x="842" d="M 766 475 C 766 337 738 236 682 171 C 626 105 542 70 430 66 L 430 -31 L 346 -31 L 346 68 C 282 82 222 114 168 163 C 113 212 86 297 86 418 C 86 447 88 476 92 505 C 96 533 100 555 102 569 L 229 588 C 227 578 225 560 223 534 C 221 508 221 483 221 461 C 221 387 230 328 250 282 C 269 236 305 204 358 186 L 358 766 C 265 814 193 865 142 920 C 91 974 66 1052 66 1153 C 66 1276 93 1364 149 1418 C 205 1471 270 1505 344 1520 L 344 1595 L 430 1595 L 430 1520 C 515 1512 583 1483 635 1433 C 687 1383 713 1306 713 1202 C 713 1182 711 1162 708 1140 C 704 1118 700 1097 696 1079 L 565 1063 C 565 1067 566 1079 568 1098 C 570 1116 571 1134 571 1151 C 571 1229 560 1289 539 1330 C 517 1371 478 1398 420 1411 L 420 926 C 566 854 660 787 702 725 C 744 662 766 579 766 475 Z M 358 952 L 358 1409 C 306 1396 266 1370 240 1330 C 214 1290 201 1246 201 1196 C 201 1140 213 1092 239 1054 C 264 1016 304 982 358 952 Z M 629 408 C 629 487 613 552 583 602 C 553 652 498 699 420 741 L 420 176 C 494 178 547 203 580 251 C 612 298 629 350 629 408 Z" unicode="$" />
<glyph horiz-adv-x="1264" d="M 539 1133 C 539 979 518 872 477 812 C 435 751 371 721 285 721 C 199 721 136 751 95 812 C 53 872 33 979 33 1133 C 33 1306 53 1425 95 1489 C 136 1553 199 1585 285 1585 C 371 1585 435 1553 477 1489 C 518 1425 539 1306 539 1133 Z M 416 1151 C 416 1289 403 1378 379 1418 C 354 1457 323 1477 285 1477 C 246 1477 215 1457 191 1418 C 167 1378 156 1289 156 1151 C 156 1015 167 927 191 888 C 215 848 246 829 285 829 C 323 829 354 848 379 888 C 403 927 416 1015 416 1151 Z M 1231 393 C 1231 240 1210 133 1169 73 C 1127 12 1063 -18 977 -18 C 891 -18 828 12 787 73 C 745 133 725 240 725 393 C 725 566 745 685 787 749 C 828 813 891 846 977 846 C 1063 846 1127 813 1169 749 C 1210 685 1231 566 1231 393 Z M 1108 412 C 1108 550 1095 638 1071 678 C 1047 717 1015 737 977 737 C 938 737 907 717 883 678 C 859 638 848 550 848 412 C 848 275 859 187 883 148 C 907 109 938 90 977 90 C 1015 90 1047 109 1071 148 C 1095 187 1108 275 1108 412 Z M 1182 1556 L 176 0 L 74 0 L 1079 1556 L 1182 1556 Z" unicode="%" />
<glyph horiz-adv-x="1094" d="M 1071 172 C 1071 102 1052 52 1016 21 C 980 -9 928 -25 860 -25 C 818 -25 781 -11 751 15 C 720 41 692 74 668 113 C 636 72 594 40 543 17 C 491 -6 439 -18 385 -18 C 296 -18 215 16 143 84 C 71 152 35 259 35 403 C 35 525 62 632 118 722 C 174 812 246 893 336 967 C 319 1015 304 1064 292 1114 C 280 1164 274 1218 274 1276 C 274 1371 300 1448 352 1507 C 404 1565 470 1595 549 1595 C 626 1595 686 1571 730 1525 C 773 1479 795 1416 795 1337 C 795 1263 770 1197 721 1139 C 671 1081 596 1007 496 915 L 692 365 C 728 425 759 527 783 669 C 807 811 819 942 819 1061 L 942 1061 C 940 928 928 790 908 648 C 887 505 842 363 772 223 C 787 187 804 159 822 141 C 840 123 857 114 872 115 C 912 117 935 135 943 169 C 950 203 943 259 922 338 L 1044 354 C 1053 318 1060 285 1064 255 C 1068 224 1071 196 1071 172 Z M 678 1337 C 678 1379 666 1413 643 1441 C 620 1469 589 1483 549 1483 C 508 1483 474 1463 447 1424 C 419 1384 406 1338 406 1284 C 406 1249 411 1209 421 1164 C 431 1119 441 1078 453 1042 C 533 1104 590 1158 625 1206 C 660 1253 678 1297 678 1337 Z M 606 238 L 381 842 C 315 774 265 712 230 654 C 195 596 178 514 178 408 C 178 310 199 238 243 191 C 286 144 341 121 408 121 C 447 121 484 130 518 149 C 552 168 581 198 606 238 Z" unicode="&#x26;" />
<glyph horiz-adv-x="287" d="M 205 1573 L 193 1214 L 96 1214 L 82 1573 L 205 1573 Z" unicode="'" />
<glyph horiz-adv-x="557" d="M 522 -238 L 471 -287 C 373 -191 291 -67 224 83 C 156 233 123 428 123 666 C 123 905 156 1099 224 1249 C 291 1399 373 1522 471 1618 L 522 1569 C 446 1438 386 1309 341 1181 C 296 1053 274 882 274 666 C 274 448 295 277 339 151 C 383 25 444 -104 522 -238 Z" unicode="(" />
<glyph horiz-adv-x="557" d="M 434 666 C 434 428 400 233 333 83 C 265 -67 183 -191 86 -287 L 35 -238 C 113 -104 174 25 218 151 C 261 277 283 448 283 666 C 283 882 260 1053 215 1181 C 170 1309 110 1438 35 1569 L 86 1618 C 183 1522 265 1399 333 1249 C 400 1099 434 905 434 666 Z" unicode=")" />
<glyph horiz-adv-x="676" d="M 561 1270 L 506 1186 L 387 1257 L 387 1120 L 289 1120 L 289 1257 L 170 1186 L 115 1270 L 238 1348 L 115 1419 L 170 1505 L 289 1436 L 289 1573 L 387 1573 L 387 1436 L 506 1505 L 561 1419 L 438 1348 L 561 1270 Z" unicode="*" />
<glyph horiz-adv-x="872" d="M 764 645 L 500 645 L 500 375 L 373 375 L 373 645 L 109 645 L 109 764 L 373 764 L 373 1032 L 500 1032 L 500 764 L 764 764 L 764 645 Z" unicode="+" />
<glyph horiz-adv-x="360" d="M 252 -8 C 252 -48 244 -86 230 -120 C 216 -154 196 -184 172 -209 L 127 -139 C 142 -113 152 -92 157 -76 C 161 -60 164 -34 164 0 L 109 0 L 109 270 L 252 270 L 252 -8 Z" unicode="," />
<glyph horiz-adv-x="551" d="M 504 645 L 47 645 L 47 764 L 504 764 L 504 645 Z" unicode="-" />
<glyph horiz-adv-x="360" d="M 252 0 L 109 0 L 109 270 L 252 270 L 252 0 Z" unicode="." />
<glyph horiz-adv-x="645" d="M 643 1573 L 96 0 L 2 0 L 549 1573 L 643 1573 Z" unicode="/" />
<glyph horiz-adv-x="739" d="M 686 786 C 686 488 666 280 626 162 C 586 43 499 -16 367 -16 C 234 -16 148 42 110 160 C 72 278 53 486 53 786 C 53 1083 72 1291 110 1410 C 148 1529 234 1589 367 1589 C 499 1589 586 1529 626 1410 C 666 1290 686 1082 686 786 Z M 541 786 C 541 1061 527 1246 499 1342 C 471 1437 427 1485 367 1485 C 305 1485 262 1437 237 1342 C 211 1246 199 1061 199 786 C 199 504 211 318 237 226 C 262 134 305 88 367 88 C 427 88 471 135 499 230 C 527 325 541 510 541 786 Z" unicode="0" />
<glyph horiz-adv-x="569" d="M 440 0 L 301 0 L 301 1313 C 271 1299 231 1288 179 1278 C 127 1268 79 1264 33 1264 L 33 1350 C 119 1366 189 1391 242 1427 C 294 1462 336 1515 367 1585 L 440 1585 L 440 0 Z" unicode="1" />
<glyph horiz-adv-x="752" d="M 690 1153 C 690 989 642 816 547 635 C 451 454 342 289 219 139 L 684 139 L 684 0 L 61 0 L 61 113 C 116 175 173 253 231 349 C 289 444 335 522 367 584 C 415 676 457 773 493 874 C 529 975 547 1068 547 1153 C 547 1261 530 1339 497 1389 C 464 1439 418 1464 358 1464 C 299 1464 254 1440 224 1393 C 193 1345 178 1275 178 1182 C 178 1150 180 1110 184 1063 C 188 1015 193 972 199 932 L 66 928 C 60 954 55 996 50 1053 C 45 1110 43 1157 43 1194 C 43 1326 71 1425 128 1491 C 184 1556 264 1589 367 1589 C 479 1589 560 1553 612 1482 C 664 1411 690 1301 690 1153 Z" unicode="2" />
<glyph horiz-adv-x="743" d="M 721 438 C 721 260 688 139 623 75 C 557 11 468 -20 356 -20 C 253 -20 175 12 122 76 C 69 140 43 228 43 340 C 43 390 44 433 48 467 C 51 501 56 534 63 565 L 195 573 C 191 556 188 531 184 498 C 180 464 178 431 178 399 C 178 288 193 208 225 160 C 256 112 305 88 371 88 C 446 88 498 114 527 166 C 556 218 571 319 571 469 C 571 551 558 624 534 687 C 509 750 470 782 418 782 L 258 782 L 258 915 L 418 915 C 466 915 501 938 521 984 C 541 1030 551 1094 551 1178 C 551 1276 536 1351 507 1401 C 477 1451 429 1477 362 1477 C 310 1477 266 1455 230 1413 C 194 1370 176 1314 176 1245 C 176 1218 177 1189 179 1157 C 181 1125 184 1102 186 1087 L 66 1096 C 62 1108 58 1126 54 1148 C 49 1170 47 1200 47 1239 C 47 1339 73 1421 126 1487 C 179 1552 256 1585 358 1585 C 469 1585 551 1552 605 1487 C 659 1421 686 1311 686 1157 C 686 1067 673 997 649 946 C 624 895 582 866 522 858 C 583 857 631 819 667 744 C 703 669 721 567 721 438 Z" unicode="3" />
<glyph horiz-adv-x="770" d="M 754 360 L 621 360 L 621 0 L 485 0 L 485 360 L 20 360 L 20 541 L 416 1573 L 621 1573 L 621 487 L 754 487 L 754 360 Z M 485 487 L 485 1409 L 131 487 L 485 487 Z" unicode="4" />
<glyph horiz-adv-x="764" d="M 711 616 C 711 366 678 197 612 111 C 546 25 460 -18 352 -18 C 251 -18 175 9 123 65 C 71 121 45 205 45 317 C 45 349 46 380 50 411 C 54 442 58 470 63 494 L 197 512 C 192 489 188 463 186 434 C 183 405 182 376 182 348 C 182 265 194 204 219 166 C 244 128 290 109 356 109 C 416 109 466 140 506 202 C 546 264 567 403 567 618 C 567 762 551 863 519 922 C 487 980 441 1010 379 1010 C 331 1010 293 990 265 951 C 237 911 215 851 201 770 L 78 784 L 162 1573 L 668 1573 C 666 1551 663 1528 661 1504 C 658 1479 655 1456 653 1436 L 272 1436 L 227 1053 C 253 1085 281 1108 311 1121 C 341 1134 380 1141 428 1141 C 520 1141 591 1100 639 1019 C 687 937 711 803 711 616 Z" unicode="5" />
<glyph horiz-adv-x="762" d="M 717 512 C 717 307 688 167 630 93 C 572 19 491 -18 387 -18 C 262 -18 175 40 126 156 C 77 272 53 485 53 793 C 53 1127 85 1343 151 1441 C 217 1539 299 1589 399 1589 C 490 1589 559 1567 605 1525 C 651 1482 674 1412 674 1315 C 674 1295 672 1273 668 1249 C 664 1224 659 1200 653 1178 L 520 1174 C 522 1186 526 1202 530 1224 C 534 1246 537 1271 537 1300 C 537 1361 528 1405 511 1433 C 493 1461 455 1475 395 1475 C 327 1475 277 1421 245 1315 C 213 1208 197 1054 197 854 C 229 906 265 942 304 962 C 342 982 383 993 426 993 C 519 993 591 955 641 881 C 691 806 717 683 717 512 Z M 571 494 C 571 644 553 746 519 798 C 484 850 440 877 387 877 C 338 877 295 842 257 773 C 219 703 201 610 201 494 C 201 347 219 245 257 188 C 294 130 338 102 389 102 C 439 102 481 127 517 179 C 553 231 571 336 571 494 Z" unicode="6" />
<glyph horiz-adv-x="690" d="M 678 1473 C 592 1305 515 1123 446 927 C 376 731 342 525 342 311 C 342 253 344 196 350 142 C 355 87 361 40 369 0 L 213 0 C 209 18 205 47 202 86 C 198 125 197 167 197 211 C 197 444 234 665 309 875 C 384 1085 465 1272 553 1436 L 2 1436 L 2 1573 L 678 1573 L 678 1473 Z" unicode="7" />
<glyph horiz-adv-x="766" d="M 719 436 C 719 268 693 150 641 83 C 589 15 503 -18 383 -18 C 262 -18 176 16 124 84 C 72 152 47 270 47 436 C 47 572 63 672 95 737 C 127 801 169 844 221 866 C 177 883 142 917 116 967 C 90 1017 78 1090 78 1186 C 78 1319 105 1419 160 1487 C 215 1555 289 1589 383 1589 C 476 1589 550 1556 606 1492 C 662 1428 690 1325 690 1184 C 690 1090 677 1018 651 970 C 625 922 589 887 543 866 C 603 845 647 802 676 737 C 704 672 719 572 719 436 Z M 580 455 C 580 588 560 681 520 734 C 480 786 435 813 383 813 C 331 813 285 787 245 737 C 205 687 186 593 186 455 C 186 303 205 204 245 160 C 285 116 331 94 383 94 C 435 94 480 116 520 161 C 560 206 580 304 580 455 Z M 549 1194 C 549 1298 534 1371 505 1414 C 475 1457 435 1479 383 1479 C 334 1479 294 1456 264 1412 C 234 1367 219 1294 219 1194 C 219 1093 236 1022 270 981 C 304 940 342 920 383 920 C 425 920 463 941 496 985 C 529 1028 547 1098 549 1194 Z" unicode="8" />
<glyph horiz-adv-x="762" d="M 709 778 C 709 436 676 218 612 124 C 548 29 464 -18 362 -18 C 262 -18 192 4 150 49 C 108 93 88 162 88 256 C 88 279 90 302 94 324 C 98 346 103 369 109 393 L 231 395 C 228 383 225 366 221 344 C 217 322 215 296 215 268 C 215 204 225 159 246 134 C 267 108 309 96 373 96 C 427 96 472 135 510 213 C 548 291 567 448 567 682 C 551 651 519 626 471 607 C 423 587 378 578 336 578 C 240 578 168 614 119 688 C 69 762 45 885 45 1059 C 45 1256 73 1394 130 1472 C 187 1550 269 1589 375 1589 C 503 1589 591 1529 638 1411 C 685 1293 709 1082 709 778 Z M 561 1077 C 561 1203 543 1300 509 1367 C 474 1434 429 1468 373 1468 C 323 1468 281 1442 246 1390 C 210 1338 193 1234 193 1077 C 193 924 208 822 238 771 C 268 719 315 694 379 694 C 429 694 472 721 508 775 C 543 829 561 930 561 1077 Z" unicode="9" />
<glyph horiz-adv-x="360" d="M 252 0 L 109 0 L 109 270 L 252 270 L 252 0 Z M 252 858 L 109 858 L 109 1128 L 252 1128 L 252 858 Z" unicode=":" />
<glyph horiz-adv-x="360" d="M 252 -8 C 252 -48 244 -86 230 -120 C 216 -154 196 -184 172 -209 L 127 -139 C 142 -113 152 -92 157 -76 C 161 -60 164 -34 164 0 L 109 0 L 109 270 L 252 270 L 252 -8 Z M 252 858 L 109 858 L 109 1128 L 252 1128 L 252 858 Z" unicode=";" />
<glyph horiz-adv-x="586" d="M 508 252 L 47 635 L 47 760 L 508 1145 L 508 975 L 178 698 L 508 422 L 508 252 Z" unicode="&#x3C;" />
<glyph horiz-adv-x="872" d="M 754 481 L 119 481 L 119 608 L 754 608 L 754 481 Z M 754 791 L 119 791 L 119 918 L 754 918 L 754 791 Z" unicode="=" />
<glyph horiz-adv-x="586" d="M 535 635 L 74 252 L 74 422 L 403 698 L 74 975 L 74 1145 L 535 760 L 535 635 Z" unicode="&#x3E;" />
<glyph horiz-adv-x="692" d="M 659 1098 C 659 936 637 826 595 766 C 552 706 494 676 420 676 C 378 676 339 684 303 700 C 267 716 240 738 221 766 L 227 498 L 119 498 L 119 1006 L 217 1006 C 223 936 236 886 258 855 C 280 824 317 809 371 809 C 427 809 465 838 485 896 C 504 954 514 1047 514 1174 C 514 1292 498 1372 466 1412 C 434 1452 390 1473 332 1473 C 289 1473 253 1461 224 1437 C 194 1413 180 1368 180 1303 C 180 1282 181 1259 185 1235 C 189 1210 192 1190 195 1176 L 66 1182 C 60 1196 56 1215 52 1240 C 48 1265 47 1293 47 1325 C 47 1405 70 1470 116 1520 C 162 1570 237 1595 340 1595 C 434 1595 511 1563 570 1499 C 629 1435 659 1301 659 1098 Z M 260 0 L 104 0 L 104 270 L 260 270 L 260 0 Z" unicode="?" />
<glyph horiz-adv-x="1565" d="M 1436 801 C 1436 705 1411 604 1363 498 C 1315 391 1219 338 1077 338 C 1017 338 976 345 953 361 C 930 376 914 396 905 422 C 885 395 856 376 818 365 C 780 353 746 348 717 348 C 661 348 610 364 564 396 C 517 428 494 496 494 598 C 494 654 512 705 550 751 C 587 797 647 833 731 858 C 817 882 873 903 897 921 C 921 938 934 966 936 1004 C 940 1072 930 1114 908 1132 C 885 1150 851 1159 807 1159 C 768 1159 736 1150 710 1132 C 684 1114 672 1077 672 1022 C 672 1009 673 997 675 986 C 677 974 679 961 682 946 L 571 940 C 565 951 559 962 555 973 C 551 984 549 1004 549 1034 C 549 1098 574 1146 624 1179 C 674 1212 744 1229 834 1229 C 927 1229 989 1210 1020 1173 C 1050 1135 1065 1093 1063 1047 C 1058 953 1052 857 1046 760 C 1040 663 1034 563 1030 459 C 1029 443 1033 431 1043 422 C 1052 412 1073 408 1106 408 C 1197 408 1262 453 1302 543 C 1342 633 1362 719 1362 801 C 1362 970 1309 1115 1204 1237 C 1099 1358 962 1419 793 1419 C 623 1419 482 1354 370 1226 C 258 1098 203 949 203 780 C 203 608 258 459 370 332 C 482 204 623 141 793 142 C 837 142 879 146 921 155 C 963 164 1002 177 1040 195 L 1067 125 C 1025 106 981 92 935 82 C 889 72 841 68 793 68 C 602 68 444 138 318 279 C 192 420 129 587 129 780 C 129 969 192 1135 318 1278 C 444 1421 602 1493 793 1493 C 982 1493 1136 1425 1256 1289 C 1376 1153 1436 990 1436 801 Z M 928 834 C 820 812 743 784 698 750 C 653 716 631 669 631 610 C 631 546 641 503 661 481 C 681 459 717 449 770 449 C 818 449 853 459 876 481 C 899 503 912 538 915 588 C 917 632 920 684 923 744 C 926 804 928 834 928 834 Z" unicode="@" />
<glyph horiz-adv-x="733" d="M 705 0 L 563 0 L 516 283 L 209 283 L 164 0 L 29 0 L 289 1585 L 444 1585 L 705 0 Z M 496 408 L 362 1274 L 229 408 L 496 408 Z" unicode="A" />
<glyph horiz-adv-x="829" d="M 774 442 C 774 286 744 173 685 104 C 625 34 536 0 416 0 L 98 0 L 98 1573 L 393 1573 C 527 1573 617 1536 663 1462 C 708 1388 731 1286 731 1157 C 731 1071 714 1000 681 943 C 647 886 598 852 532 840 C 598 833 655 794 703 724 C 750 653 774 559 774 442 Z M 629 461 C 629 546 610 621 572 686 C 534 751 485 784 426 784 L 240 784 L 240 119 L 422 119 C 484 119 534 141 572 185 C 610 229 629 321 629 461 Z M 596 1157 C 596 1259 579 1334 547 1384 C 515 1433 463 1458 393 1458 L 240 1458 L 240 899 L 428 899 C 480 899 521 919 551 961 C 581 1003 596 1068 596 1157 Z" unicode="B" />
<glyph horiz-adv-x="739" d="M 678 662 C 704 462 700 298 664 169 C 628 39 537 -25 391 -25 C 258 -25 169 30 125 140 C 81 250 59 447 59 733 C 59 1059 82 1285 129 1409 C 175 1533 263 1595 393 1595 C 541 1595 628 1538 654 1424 C 680 1310 684 1166 668 991 L 537 987 C 553 1156 553 1280 535 1359 C 517 1437 471 1477 397 1477 C 342 1477 297 1428 262 1332 C 226 1235 209 1048 209 770 C 209 543 219 374 241 263 C 263 151 316 96 401 96 C 466 96 512 140 540 230 C 568 320 569 464 545 662 L 678 662 Z" unicode="C" />
<glyph horiz-adv-x="834" d="M 774 707 C 774 420 748 230 696 138 C 644 46 545 0 401 0 L 98 0 L 98 1573 L 385 1573 C 503 1573 598 1523 668 1424 C 738 1325 774 1086 774 707 Z M 625 670 C 625 988 603 1198 560 1299 C 517 1399 456 1450 377 1450 L 242 1450 L 242 123 L 383 123 C 461 123 521 152 563 210 C 604 268 625 421 625 670 Z" unicode="D" />
<glyph horiz-adv-x="657" d="M 645 0 L 98 0 L 98 1573 L 602 1573 L 602 1452 L 242 1452 L 242 862 L 565 862 L 565 741 L 242 741 L 242 121 L 645 121 L 645 0 Z" unicode="E" />
<glyph horiz-adv-x="612" d="M 598 1452 L 242 1452 L 242 856 L 543 856 L 543 729 L 242 729 L 242 0 L 98 0 L 98 1573 L 598 1573 L 598 1452 Z" unicode="F" />
<glyph horiz-adv-x="793" d="M 725 -12 L 659 -12 L 627 88 C 610 59 583 33 546 10 C 508 -13 459 -25 399 -25 C 277 -25 189 19 137 107 C 85 195 59 399 59 719 C 59 1072 84 1306 135 1422 C 186 1537 278 1595 410 1595 C 516 1595 591 1563 634 1499 C 676 1435 698 1336 698 1204 C 698 1177 697 1149 695 1121 C 693 1092 692 1062 690 1030 L 559 1022 C 562 1054 564 1084 565 1112 C 566 1140 567 1166 567 1192 C 567 1294 553 1368 525 1413 C 497 1458 459 1481 410 1481 C 350 1481 302 1439 264 1356 C 226 1273 207 1068 207 741 C 207 447 227 265 268 195 C 308 125 358 90 416 90 C 462 90 502 107 537 143 C 572 179 590 231 590 299 L 590 686 L 383 686 L 383 799 L 725 799 L 725 -12 Z" unicode="G" />
<glyph horiz-adv-x="846" d="M 748 0 L 604 0 L 604 752 L 242 752 L 242 0 L 98 0 L 98 1573 L 242 1573 L 242 879 L 604 879 L 604 1573 L 748 1573 L 748 0 Z" unicode="H" />
<glyph horiz-adv-x="340" d="M 242 0 L 98 0 L 98 1573 L 242 1573 L 242 0 Z" unicode="I" />
<glyph horiz-adv-x="756" d="M 664 317 C 664 199 639 112 589 57 C 539 2 460 -25 352 -25 C 246 -25 166 1 114 55 C 61 108 35 199 35 328 C 35 368 38 410 45 454 C 52 497 60 534 70 565 L 205 567 C 195 531 187 490 180 444 C 173 397 170 351 170 305 C 170 235 185 182 216 148 C 246 113 290 96 346 96 C 394 96 435 112 469 146 C 503 179 520 248 520 352 L 520 1573 L 664 1573 L 664 317 Z" unicode="J" />
<glyph horiz-adv-x="807" d="M 813 0 L 657 0 L 242 776 L 242 0 L 98 0 L 98 1573 L 242 1573 L 242 887 L 629 1573 L 782 1573 L 365 846 L 813 0 Z" unicode="K" />
<glyph horiz-adv-x="627" d="M 623 0 L 98 0 L 98 1573 L 242 1573 L 242 127 L 623 127 L 623 0 Z" unicode="L" />
<glyph horiz-adv-x="1018" d="M 918 0 L 788 0 L 788 1110 L 555 0 L 461 0 L 227 1110 L 227 0 L 98 0 L 98 1573 L 260 1573 L 508 377 L 756 1573 L 918 1573 L 918 0 Z" unicode="M" />
<glyph horiz-adv-x="811" d="M 713 0 L 582 0 L 227 1163 L 227 0 L 98 0 L 98 1573 L 229 1573 L 584 410 L 584 1573 L 713 1573 L 713 0 Z" unicode="N" />
<glyph horiz-adv-x="780" d="M 721 774 C 721 464 700 254 658 142 C 616 30 527 -25 389 -25 C 251 -25 162 30 121 142 C 79 254 59 464 59 774 C 59 1084 79 1298 121 1417 C 162 1535 251 1595 389 1595 C 527 1595 616 1535 658 1417 C 700 1298 721 1084 721 774 Z M 571 778 C 571 1053 558 1239 534 1336 C 509 1432 459 1481 385 1481 C 311 1481 263 1432 241 1336 C 219 1239 209 1053 209 778 C 209 500 220 315 242 225 C 264 135 313 90 389 90 C 461 90 510 135 534 225 C 558 315 571 500 571 778 Z" unicode="O" />
<glyph horiz-adv-x="774" d="M 739 1120 C 739 938 710 822 652 772 C 594 722 513 698 410 698 L 242 698 L 242 0 L 98 0 L 98 1573 L 432 1573 C 530 1573 605 1539 659 1471 C 712 1403 739 1286 739 1120 Z M 598 1112 C 598 1246 581 1336 548 1382 C 514 1428 465 1452 399 1452 L 242 1452 L 242 817 L 426 817 C 490 817 534 839 560 883 C 585 927 598 1004 598 1112 Z" unicode="P" />
<glyph horiz-adv-x="782" d="M 721 774 C 721 467 700 258 659 148 C 617 38 536 -19 416 -25 C 411 -43 407 -59 403 -75 C 399 -91 397 -105 397 -119 C 397 -157 404 -184 419 -202 C 434 -220 463 -229 506 -229 C 535 -229 558 -222 574 -208 C 590 -194 598 -175 598 -150 C 598 -143 597 -134 596 -124 C 595 -114 594 -105 594 -98 L 657 -98 C 664 -110 669 -123 672 -137 C 674 -150 676 -163 676 -176 C 676 -212 662 -244 634 -274 C 606 -304 559 -319 494 -319 C 440 -319 394 -306 356 -280 C 318 -254 299 -209 299 -143 C 299 -119 301 -97 305 -77 C 309 -56 313 -37 317 -20 C 217 -3 149 58 113 164 C 77 270 59 473 59 774 C 59 1084 78 1298 118 1417 C 158 1535 248 1595 389 1595 C 527 1595 616 1535 658 1417 C 700 1298 721 1084 721 774 Z M 571 778 C 571 1053 558 1239 534 1336 C 509 1432 459 1481 385 1481 C 311 1481 263 1432 241 1336 C 219 1239 209 1053 209 778 C 209 500 220 315 242 225 C 264 135 313 90 389 90 C 461 90 510 135 534 225 C 558 315 571 500 571 778 Z" unicode="Q" />
<glyph horiz-adv-x="827" d="M 803 0 L 639 0 C 620 26 604 67 591 121 C 577 175 571 231 571 289 L 571 537 C 571 610 560 665 538 703 C 516 741 480 760 430 760 L 242 760 L 242 0 L 98 0 L 98 1573 L 422 1573 C 541 1573 626 1538 676 1470 C 726 1402 752 1303 752 1174 C 752 1052 734 963 700 907 C 665 851 611 817 537 807 C 610 795 658 761 680 703 C 702 645 713 558 713 444 C 715 342 721 254 731 178 C 740 102 764 42 803 0 Z M 606 1126 C 606 1262 590 1352 559 1398 C 527 1443 482 1466 422 1466 L 242 1466 L 242 870 L 440 870 C 495 870 536 889 564 927 C 592 965 606 1031 606 1126 Z" unicode="R" />
<glyph horiz-adv-x="754" d="M 721 410 C 721 270 694 162 640 87 C 586 12 500 -25 381 -25 C 283 -25 206 0 148 50 C 90 100 61 196 61 336 C 61 365 63 402 69 446 C 75 490 81 525 88 553 L 219 565 C 214 534 210 496 206 450 C 202 404 201 363 201 326 C 201 228 218 164 252 135 C 286 106 331 92 385 92 C 423 92 465 107 510 138 C 555 169 578 241 578 354 C 578 458 555 542 511 606 C 467 669 399 729 307 786 C 217 841 150 899 105 961 C 59 1022 37 1101 37 1198 C 37 1329 65 1428 121 1495 C 177 1561 254 1595 354 1595 C 462 1595 540 1565 590 1506 C 639 1447 664 1369 664 1272 C 664 1253 662 1228 658 1197 C 654 1165 649 1139 645 1118 L 518 1102 C 522 1122 524 1149 526 1181 C 527 1213 528 1239 528 1260 C 528 1341 509 1399 472 1434 C 435 1469 396 1487 354 1487 C 313 1487 274 1468 236 1431 C 198 1394 180 1336 180 1257 C 180 1155 201 1084 245 1043 C 289 1002 349 957 426 907 C 530 839 605 771 651 703 C 697 634 721 536 721 410 Z" unicode="S" />
<glyph horiz-adv-x="721" d="M 705 1446 L 432 1446 L 432 0 L 289 0 L 289 1446 L 16 1446 L 16 1573 L 705 1573 L 705 1446 Z" unicode="T" />
<glyph horiz-adv-x="854" d="M 760 254 C 760 164 734 95 683 47 C 632 0 547 -25 428 -25 C 308 -25 223 -1 171 46 C 119 94 94 163 94 254 L 94 1573 L 238 1573 L 238 254 C 238 203 251 164 279 138 C 306 111 356 98 428 98 C 504 98 555 112 579 141 C 603 169 616 207 616 254 L 616 1573 L 760 1573 L 760 254 Z" unicode="U" />
<glyph horiz-adv-x="725" d="M 719 1573 L 453 -10 L 274 -10 L 6 1573 L 147 1573 L 371 262 L 584 1573 L 719 1573 Z" unicode="V" />
<glyph horiz-adv-x="1028" d="M 1012 1573 L 795 -2 L 659 -2 L 514 1151 L 358 -2 L 223 -2 L 16 1573 L 158 1573 L 301 410 L 451 1573 L 578 1573 L 727 410 L 883 1573 L 1012 1573 Z" unicode="W" />
<glyph horiz-adv-x="713" d="M 698 0 L 559 0 L 354 608 L 147 0 L 18 0 L 285 807 L 31 1573 L 172 1573 L 362 985 L 559 1573 L 688 1573 L 434 795 L 698 0 Z" unicode="X" />
<glyph horiz-adv-x="752" d="M 748 1573 L 446 618 L 446 0 L 303 0 L 303 616 L -8 1573 L 137 1573 L 381 823 L 610 1573 L 748 1573 Z" unicode="Y" />
<glyph horiz-adv-x="684" d="M 657 1438 L 162 129 L 649 129 L 649 0 L 18 0 L 18 131 L 512 1446 L 70 1446 L 70 1573 L 657 1573 L 657 1438 Z" unicode="Z" />
<glyph horiz-adv-x="516" d="M 465 -340 L 109 -340 L 109 1573 L 465 1573 L 465 1452 L 252 1452 L 252 -219 L 465 -219 L 465 -340 Z" unicode="[" />
<glyph horiz-adv-x="674" d="M 672 0 L 578 0 L 0 1573 L 94 1573 L 672 0 Z" unicode="\" />
<glyph horiz-adv-x="516" d="M 408 -340 L 53 -340 L 53 -219 L 264 -219 L 264 1452 L 53 1452 L 53 1573 L 408 1573 L 408 -340 Z" unicode="]" />
<glyph horiz-adv-x="631" d="M 543 1319 L 438 1319 L 319 1495 L 201 1319 L 96 1319 L 250 1573 L 389 1573 L 543 1319 Z" unicode="^" />
<glyph horiz-adv-x="786" d="M 786 -389 L 0 -389 L 0 -287 L 786 -287 L 786 -389 Z" unicode="_" />
<glyph horiz-adv-x="838" d="M 518 1356 L 440 1356 L 285 1573 L 432 1573 L 518 1356 Z" unicode="`" />
<glyph horiz-adv-x="664" d="M 659 12 C 646 5 629 -1 608 -7 C 586 -13 564 -16 541 -16 C 513 -16 494 -6 484 13 C 474 33 469 54 467 78 C 446 49 420 26 388 9 C 356 -7 318 -16 276 -16 C 214 -16 160 4 114 46 C 68 88 45 181 45 326 C 45 432 70 507 120 552 C 170 596 238 639 324 680 C 345 690 364 699 381 708 C 398 717 416 726 436 735 C 438 750 440 769 442 793 C 444 816 446 850 446 895 C 446 955 432 997 406 1021 C 380 1045 351 1057 319 1057 C 287 1057 258 1045 230 1023 C 202 1000 188 963 188 911 C 188 894 189 874 193 851 C 197 828 201 809 205 795 L 92 791 C 89 801 85 817 81 837 C 76 857 74 879 74 905 C 74 987 96 1047 141 1084 C 185 1120 249 1139 332 1139 C 418 1139 479 1119 513 1080 C 547 1040 565 990 565 928 L 565 158 C 565 128 568 106 574 93 C 580 80 592 74 610 74 C 620 74 630 75 638 78 C 646 80 653 84 659 88 L 659 12 Z M 442 207 L 442 639 C 353 609 286 573 240 529 C 194 485 172 409 172 301 C 172 209 186 149 214 120 C 242 90 275 76 311 76 C 347 76 377 89 399 117 C 421 145 436 175 442 207 Z" unicode="a" />
<glyph horiz-adv-x="676" d="M 623 563 C 623 332 601 178 558 100 C 515 22 447 -16 354 -16 C 310 -16 270 -7 236 9 C 201 26 173 51 152 84 L 109 0 L 61 0 L 61 1573 L 186 1573 L 186 1030 C 207 1060 231 1086 258 1108 C 285 1130 327 1141 383 1141 C 460 1141 519 1104 561 1030 C 602 956 623 801 623 563 Z M 492 565 C 492 769 479 900 453 959 C 427 1017 388 1047 338 1047 C 296 1047 259 1014 228 949 C 197 884 182 755 182 563 C 182 471 182 395 182 335 C 182 274 186 226 193 190 C 197 157 213 130 239 110 C 265 90 298 80 336 80 C 386 80 425 110 452 170 C 478 230 492 362 492 565 Z" unicode="b" />
<glyph horiz-adv-x="633" d="M 590 311 C 590 195 573 111 539 59 C 505 7 438 -18 336 -18 C 228 -18 153 20 113 97 C 73 173 53 333 53 575 C 53 811 75 964 121 1035 C 166 1105 236 1141 330 1141 C 417 1141 479 1118 517 1072 C 554 1026 573 950 573 842 C 573 824 571 804 569 780 C 567 756 565 737 563 725 L 442 723 C 444 736 446 753 448 775 C 450 796 451 816 451 836 C 451 905 442 958 425 995 C 408 1032 376 1051 330 1051 C 288 1051 253 1021 226 961 C 199 901 186 765 186 553 C 186 342 200 209 229 153 C 257 97 296 70 344 70 C 386 70 418 87 438 121 C 458 155 469 223 469 324 C 469 340 467 364 464 396 C 461 428 459 451 459 467 L 569 463 C 573 448 578 425 583 395 C 587 364 590 336 590 311 Z" unicode="c" />
<glyph horiz-adv-x="680" d="M 618 0 L 498 0 L 498 117 C 479 76 457 44 431 21 C 405 -2 362 -14 301 -14 C 216 -14 153 23 113 99 C 73 175 53 325 53 551 C 53 790 76 948 124 1025 C 172 1102 233 1141 307 1141 C 343 1141 378 1133 411 1119 C 444 1105 470 1081 489 1049 L 489 1573 L 618 1573 L 618 0 Z M 494 563 C 494 735 479 858 450 932 C 421 1006 384 1044 338 1044 C 293 1044 256 1013 227 953 C 198 892 184 763 184 565 C 184 366 198 236 228 174 C 257 112 294 82 338 82 C 382 82 419 114 449 180 C 479 246 494 373 494 563 Z" unicode="d" />
<glyph horiz-adv-x="645" d="M 594 258 C 594 166 574 97 535 51 C 495 5 432 -18 346 -18 C 243 -18 168 14 122 78 C 76 142 53 286 53 510 C 53 770 76 940 122 1020 C 168 1100 238 1141 334 1141 C 430 1141 497 1105 535 1033 C 573 961 592 847 592 690 C 592 660 590 631 588 601 C 586 571 584 551 584 541 L 182 541 C 182 373 190 253 206 180 C 222 106 268 70 346 70 C 394 70 428 85 448 117 C 468 149 479 213 479 311 C 479 324 477 339 475 357 C 473 375 471 390 471 403 L 584 399 C 586 387 589 366 591 337 C 593 307 594 281 594 258 Z M 469 782 C 469 886 455 958 429 996 C 403 1034 370 1053 330 1053 C 280 1053 243 1019 218 953 C 192 886 180 777 180 627 L 463 627 C 465 651 467 676 468 701 C 468 726 469 753 469 782 Z" unicode="e" />
<glyph horiz-adv-x="428" d="M 549 1386 C 549 1369 548 1353 546 1338 C 544 1322 543 1307 541 1292 L 432 1282 C 434 1296 435 1312 437 1329 C 439 1345 440 1360 440 1372 C 440 1410 431 1439 413 1460 C 395 1480 371 1491 340 1491 C 320 1491 299 1483 276 1468 C 253 1452 242 1422 242 1378 L 242 1128 L 397 1128 L 397 1034 L 242 1034 L 242 0 L 115 0 L 115 1034 L 6 1034 L 6 1128 L 115 1128 L 115 1356 C 115 1438 134 1498 174 1534 C 214 1570 268 1589 336 1589 C 404 1589 456 1572 493 1538 C 530 1504 549 1453 549 1386 Z" unicode="f" />
<glyph horiz-adv-x="745" d="M 760 1214 L 629 997 C 643 972 655 939 663 898 C 671 857 676 808 676 752 C 676 624 651 532 601 474 C 551 416 480 387 389 387 C 373 387 354 388 330 390 C 306 392 286 396 272 401 C 242 390 217 377 197 363 C 176 349 166 332 166 313 C 166 292 177 277 201 267 C 225 257 264 252 319 252 L 453 252 C 540 252 610 224 664 170 C 718 116 745 39 745 -59 C 745 -183 711 -273 644 -328 C 577 -382 491 -410 385 -410 C 272 -410 180 -385 108 -336 C 36 -287 0 -212 0 -111 C 0 -61 15 -13 47 33 C 79 80 119 116 168 141 C 132 149 101 164 76 186 C 51 208 39 236 39 272 C 39 314 56 347 90 372 C 124 397 160 417 197 432 C 165 450 137 486 113 538 C 89 590 78 662 78 752 C 78 874 106 970 162 1038 C 218 1106 290 1141 379 1141 C 427 1141 465 1135 492 1123 C 519 1111 545 1093 571 1069 L 643 1214 L 760 1214 Z M 625 -100 C 625 -24 602 33 557 72 C 512 111 457 131 391 131 L 268 131 C 217 99 179 66 154 31 C 129 -3 117 -44 117 -90 C 117 -169 141 -227 190 -263 C 239 -299 303 -317 383 -317 C 444 -317 500 -298 550 -260 C 600 -222 625 -168 625 -100 Z M 547 758 C 547 868 530 942 497 980 C 464 1018 425 1038 381 1038 C 334 1038 293 1016 259 974 C 224 932 207 860 207 758 C 207 658 221 588 250 546 C 279 504 319 483 371 483 C 432 483 477 503 505 543 C 533 583 547 655 547 758 Z" unicode="g" />
<glyph horiz-adv-x="657" d="M 602 0 L 473 0 L 473 942 C 473 976 464 1001 447 1017 C 429 1032 403 1040 367 1040 C 317 1040 275 1020 240 981 C 205 941 188 894 188 840 L 188 0 L 61 0 L 61 1573 L 188 1573 L 188 1028 C 218 1068 248 1097 279 1115 C 309 1132 350 1141 401 1141 C 464 1141 513 1126 549 1096 C 584 1066 602 1023 602 969 L 602 0 Z" unicode="h" />
<glyph horiz-adv-x="250" d="M 188 0 L 61 0 L 61 1128 L 188 1128 L 188 0 Z M 195 1313 L 55 1313 L 55 1483 L 195 1483 L 195 1313 Z" unicode="i" />
<glyph horiz-adv-x="330" d="M 260 -145 C 260 -216 238 -271 196 -311 C 154 -351 97 -371 25 -371 C -41 -371 -96 -353 -138 -319 C -180 -285 -201 -237 -201 -176 C -201 -161 -199 -146 -196 -130 C -192 -114 -189 -98 -186 -84 L -66 -80 C -70 -97 -73 -112 -76 -126 C -78 -140 -80 -154 -80 -170 C -80 -197 -72 -220 -58 -239 C -43 -258 -13 -268 31 -268 C 66 -268 92 -256 108 -232 C 124 -208 133 -171 133 -119 L 133 1128 L 260 1128 L 260 -145 Z M 264 1313 L 129 1313 L 129 1483 L 264 1483 L 264 1313 Z" unicode="j" />
<glyph horiz-adv-x="655" d="M 674 0 L 537 0 L 268 522 L 188 391 L 188 0 L 61 0 L 61 1573 L 188 1573 L 188 594 L 530 1128 L 659 1128 L 362 633 L 674 0 Z" unicode="k" />
<glyph horiz-adv-x="250" d="M 188 0 L 61 0 L 61 1573 L 188 1573 L 188 0 Z" unicode="l" />
<glyph horiz-adv-x="1024" d="M 967 0 L 838 0 L 838 911 C 838 959 829 992 812 1012 C 794 1032 761 1042 713 1042 C 684 1042 655 1030 625 1007 C 595 983 580 949 580 903 L 580 0 L 453 0 L 453 950 C 453 978 443 1001 425 1017 C 407 1033 382 1042 352 1042 C 316 1042 280 1023 244 985 C 208 947 190 906 190 862 L 190 0 L 61 0 L 61 1128 L 190 1128 L 190 1028 C 218 1070 248 1099 282 1116 C 315 1132 355 1141 401 1141 C 456 1141 495 1131 519 1111 C 542 1091 560 1068 573 1042 C 595 1076 624 1101 658 1117 C 692 1133 730 1141 770 1141 C 829 1141 877 1127 913 1099 C 949 1071 967 1029 967 975 L 967 0 Z" unicode="m" />
<glyph horiz-adv-x="659" d="M 602 0 L 473 0 L 473 922 C 473 966 465 996 451 1014 C 436 1031 407 1040 365 1040 C 313 1040 270 1018 237 975 C 204 932 188 886 188 838 L 188 0 L 61 0 L 61 1128 L 186 1128 L 186 1022 C 209 1058 236 1087 268 1109 C 300 1130 344 1141 401 1141 C 462 1141 511 1126 547 1097 C 583 1068 602 1023 602 961 L 602 0 Z" unicode="n" />
<glyph horiz-adv-x="674" d="M 621 561 C 621 321 597 165 551 92 C 504 18 432 -18 336 -18 C 238 -18 167 18 121 92 C 75 165 53 321 53 561 C 53 800 75 956 121 1030 C 167 1104 238 1141 336 1141 C 432 1141 504 1104 551 1030 C 597 956 621 800 621 561 Z M 489 563 C 489 763 475 894 447 956 C 419 1018 382 1049 336 1049 C 289 1049 252 1017 225 955 C 197 893 184 761 184 559 C 184 359 197 229 225 167 C 252 105 289 74 336 74 C 382 74 419 105 447 167 C 475 229 489 361 489 563 Z" unicode="o" />
<glyph horiz-adv-x="682" d="M 623 555 C 623 313 601 157 559 87 C 517 17 451 -18 362 -18 C 324 -18 289 -7 255 15 C 221 37 198 61 186 88 L 186 -358 L 61 -358 L 61 1128 L 186 1128 L 186 1024 C 212 1062 240 1091 270 1111 C 300 1131 341 1141 391 1141 C 462 1141 518 1102 560 1025 C 602 947 623 791 623 555 Z M 492 557 C 492 755 477 886 448 948 C 418 1010 384 1042 344 1042 C 300 1042 262 1013 230 956 C 198 899 182 765 182 555 C 182 369 197 244 228 178 C 259 112 296 80 338 80 C 386 80 424 107 451 162 C 478 216 492 348 492 557 Z" unicode="p" />
<glyph horiz-adv-x="680" d="M 618 -360 L 494 -360 L 494 94 C 481 63 456 37 420 17 C 383 -3 343 -14 301 -14 C 215 -14 153 24 113 101 C 73 178 53 328 53 551 C 53 785 77 941 125 1021 C 173 1101 240 1141 328 1141 C 378 1141 420 1130 452 1110 C 484 1089 510 1064 532 1034 L 567 1128 L 618 1128 L 618 -360 Z M 494 563 C 494 765 478 896 448 958 C 417 1020 380 1051 338 1051 C 296 1051 259 1021 229 963 C 199 904 184 771 184 565 C 184 363 198 233 227 173 C 256 113 293 84 338 84 C 384 84 422 117 451 184 C 479 251 494 377 494 563 Z" unicode="q" />
<glyph horiz-adv-x="553" d="M 535 905 C 535 865 532 825 528 785 C 523 745 518 710 514 680 L 395 672 C 403 720 410 762 415 799 C 420 836 422 868 422 895 C 422 943 414 977 400 997 C 386 1016 364 1026 336 1026 C 302 1026 268 1007 236 969 C 204 931 188 874 188 797 L 188 0 L 61 0 L 61 1128 L 186 1128 L 186 1018 C 209 1058 236 1088 268 1109 C 300 1130 335 1141 373 1141 C 427 1141 467 1122 494 1085 C 521 1048 535 988 535 905 Z" unicode="r" />
<glyph horiz-adv-x="637" d="M 596 309 C 596 201 571 119 521 64 C 471 9 399 -18 303 -18 C 221 -18 159 2 116 43 C 72 84 51 145 51 227 C 51 246 52 271 56 301 C 59 331 62 358 66 381 L 182 397 C 177 370 172 345 168 321 C 164 297 162 275 162 254 C 162 196 173 153 195 125 C 217 97 253 84 301 84 C 356 84 397 97 424 125 C 451 152 465 198 465 264 C 465 324 445 375 407 418 C 368 460 309 508 231 561 C 173 599 127 638 94 676 C 61 714 45 771 45 846 C 45 948 70 1022 121 1070 C 172 1117 235 1141 309 1141 C 381 1141 440 1121 484 1082 C 528 1043 551 981 551 897 C 551 879 549 858 546 834 C 543 810 541 792 539 782 L 424 778 C 428 796 431 815 434 833 C 436 851 438 870 438 889 C 438 931 428 967 410 997 C 391 1027 356 1042 305 1042 C 275 1042 245 1030 214 1006 C 183 982 168 945 168 897 C 168 843 180 801 204 773 C 228 745 278 704 356 651 C 445 589 507 536 543 492 C 578 447 596 386 596 309 Z" unicode="s" />
<glyph horiz-adv-x="465" d="M 457 27 C 442 16 419 6 387 -3 C 355 -13 320 -18 283 -18 C 221 -18 175 -3 145 25 C 115 54 100 96 100 150 L 100 1034 L -8 1034 L -8 1128 L 98 1128 L 98 1442 L 227 1442 L 227 1128 L 403 1128 L 403 1034 L 227 1034 L 227 195 C 227 155 233 128 245 114 C 257 100 284 94 326 94 C 346 94 367 97 388 104 C 409 110 432 119 457 129 L 457 27 Z" unicode="t" />
<glyph horiz-adv-x="664" d="M 602 0 L 475 0 L 475 84 C 454 53 423 29 382 12 C 341 -5 298 -14 254 -14 C 192 -14 144 0 111 29 C 77 57 61 100 61 158 L 61 1128 L 188 1128 L 188 190 C 188 157 196 132 212 115 C 228 98 263 90 315 90 C 353 90 389 106 423 138 C 456 170 473 211 473 262 L 473 1128 L 602 1128 L 602 0 Z" unicode="u" />
<glyph horiz-adv-x="584" d="M 567 1128 L 371 0 L 203 0 L 6 1128 L 135 1128 L 293 242 L 442 1128 L 567 1128 Z" unicode="v" />
<glyph horiz-adv-x="872" d="M 860 1128 L 655 0 L 541 0 L 432 760 L 326 0 L 211 0 L 6 1128 L 131 1128 L 274 365 L 375 1128 L 489 1128 L 598 371 L 739 1128 L 860 1128 Z" unicode="w" />
<glyph horiz-adv-x="639" d="M 629 0 L 492 0 L 317 455 L 141 0 L 8 0 L 246 627 L 47 1128 L 184 1128 L 317 786 L 453 1128 L 586 1128 L 389 618 L 629 0 Z" unicode="x" />
<glyph horiz-adv-x="639" d="M 612 1128 C 607 1098 592 1015 568 878 C 544 741 491 449 410 2 C 389 -110 361 -198 326 -263 C 290 -327 229 -360 143 -360 C 95 -360 47 -348 0 -326 C -46 -304 -72 -261 -76 -197 C -76 -182 -77 -168 -78 -154 C -78 -140 -78 -125 -78 -109 L 39 -92 C 38 -102 37 -114 35 -127 C 33 -139 33 -152 33 -166 C 33 -189 42 -210 61 -229 C 79 -248 104 -258 135 -258 C 177 -258 208 -241 228 -207 C 248 -173 263 -117 274 -41 L -2 1128 L 131 1128 L 334 217 L 475 1128 L 612 1128 Z" unicode="y" />
<glyph horiz-adv-x="506" d="M 487 1024 L 145 109 L 485 109 L 485 0 L 8 0 L 8 88 L 350 1026 L 70 1026 L 70 1128 L 487 1128 L 487 1024 Z" unicode="z" />
<glyph horiz-adv-x="512" d="M 489 1456 L 387 1456 C 365 1456 349 1451 338 1441 C 327 1431 322 1415 322 1393 L 322 733 C 322 692 313 663 297 645 C 280 627 255 618 223 618 C 255 618 280 609 297 591 C 313 573 322 546 322 510 L 322 -188 C 322 -210 327 -225 338 -232 C 348 -238 363 -242 383 -242 L 487 -242 L 487 -360 L 373 -360 C 317 -360 273 -348 242 -326 C 210 -303 195 -262 195 -203 L 195 455 C 195 490 186 517 169 536 C 151 555 124 565 86 565 L 70 565 L 70 672 L 86 672 C 124 672 151 680 169 698 C 186 715 195 745 195 788 L 195 1409 C 195 1466 210 1508 240 1534 C 270 1560 315 1573 375 1573 L 489 1573 L 489 1456 Z" unicode="{" />
<glyph horiz-adv-x="313" d="M 211 -389 L 102 -389 L 102 1614 L 211 1614 L 211 -389 Z" unicode="|" />
<glyph horiz-adv-x="512" d="M 444 565 L 428 565 C 390 565 362 555 345 536 C 327 517 319 490 319 455 L 319 -203 C 319 -262 303 -303 271 -326 C 239 -348 196 -360 141 -360 L 27 -360 L 27 -242 L 131 -242 C 151 -242 167 -238 177 -232 C 187 -225 193 -210 193 -188 L 193 510 C 193 546 201 573 218 591 C 234 609 259 618 291 618 C 259 618 234 627 218 645 C 201 663 193 692 193 733 L 193 1393 C 193 1415 187 1431 177 1441 C 166 1451 150 1456 129 1456 L 25 1456 L 25 1573 L 139 1573 C 198 1573 243 1560 273 1534 C 303 1508 319 1466 319 1409 L 319 788 C 319 745 327 715 345 698 C 362 680 390 672 428 672 L 444 672 L 444 565 Z" unicode="}" />
<glyph horiz-adv-x="584" d="M 526 1483 C 526 1453 517 1425 500 1400 C 483 1374 456 1362 418 1362 C 401 1362 384 1364 368 1369 C 351 1374 336 1381 322 1391 C 297 1407 279 1418 267 1426 C 255 1434 232 1448 199 1470 C 194 1473 189 1475 183 1477 C 177 1478 172 1479 168 1479 C 153 1479 143 1470 137 1453 C 131 1436 130 1419 135 1403 L 94 1384 C 90 1389 84 1400 77 1417 C 69 1434 66 1453 66 1475 C 66 1503 73 1530 87 1556 C 101 1582 127 1595 164 1595 C 180 1595 196 1593 211 1589 C 226 1585 239 1581 250 1575 C 269 1562 286 1551 300 1542 C 314 1532 337 1518 367 1499 C 375 1493 385 1488 395 1484 C 405 1480 415 1479 424 1479 C 437 1479 446 1485 452 1498 C 458 1511 455 1536 444 1573 L 508 1573 C 510 1569 513 1557 518 1539 C 523 1520 526 1501 526 1483 Z" unicode="~" />
<glyph horiz-adv-x="221" d="" unicode=" " />
<glyph horiz-adv-x="348" d="M 244 0 L 100 0 L 100 582 L 139 1055 L 205 1055 L 244 582 L 244 0 Z M 246 1296 L 98 1296 L 98 1573 L 246 1573 L 246 1296 Z" unicode="¡" />
<glyph horiz-adv-x="645" d="M 584 866 C 584 800 570 750 542 714 C 514 678 460 655 379 645 L 379 549 L 287 549 L 287 645 C 199 649 139 679 107 737 C 75 794 59 892 59 1032 C 59 1174 79 1271 120 1321 C 160 1371 216 1397 287 1399 L 287 1489 L 379 1489 L 379 1399 C 448 1396 497 1377 527 1342 C 556 1306 571 1255 571 1188 C 571 1174 570 1160 569 1145 C 568 1130 567 1116 565 1104 L 442 1102 C 442 1106 444 1117 446 1134 C 448 1150 449 1165 449 1178 C 449 1238 437 1277 414 1293 C 390 1309 364 1317 336 1317 C 296 1317 262 1302 235 1272 C 208 1242 195 1157 195 1018 C 195 879 208 795 235 765 C 261 735 295 721 336 721 C 360 721 387 728 417 743 C 446 758 461 804 461 881 C 461 891 460 904 458 922 C 456 939 455 960 455 985 L 571 983 C 574 968 577 950 580 929 C 582 908 584 887 584 866 Z" unicode="¢" />
<glyph horiz-adv-x="915" d="M 852 283 C 852 183 831 107 790 54 C 748 1 698 -25 639 -25 C 601 -25 561 -12 521 11 C 480 35 442 72 406 121 C 392 88 370 55 340 23 C 310 -8 271 -25 223 -25 C 168 -25 121 -8 83 26 C 44 60 25 106 25 164 C 25 225 45 271 86 301 C 127 331 170 346 215 346 C 239 346 262 342 282 334 C 302 326 323 314 346 299 C 352 323 355 346 356 366 C 357 386 358 415 358 451 C 358 469 356 497 352 534 C 348 571 340 614 330 664 L 106 664 L 106 786 L 305 786 C 294 845 283 903 273 960 C 263 1016 258 1075 258 1137 C 258 1272 278 1380 319 1462 C 360 1544 429 1585 526 1585 C 605 1585 669 1546 718 1468 C 766 1390 791 1290 791 1169 C 791 1135 789 1104 787 1075 C 785 1045 780 1020 774 999 L 641 985 C 645 1014 649 1045 653 1079 C 657 1113 659 1147 659 1182 C 659 1286 644 1361 615 1409 C 586 1457 556 1481 526 1481 C 488 1481 457 1453 432 1398 C 407 1342 395 1268 395 1176 C 395 1104 397 1038 402 977 C 407 915 418 852 436 786 L 727 786 L 727 664 L 463 664 C 467 641 471 610 476 571 C 480 532 483 497 483 467 C 483 413 481 372 477 342 C 473 312 467 277 457 236 C 489 204 520 179 548 162 C 576 145 602 137 625 137 C 654 137 677 152 695 182 C 712 212 721 258 721 319 C 721 340 718 367 713 401 C 708 434 702 466 696 496 L 817 483 C 826 449 834 417 841 388 C 848 358 852 323 852 283 Z M 315 188 C 299 203 283 214 269 220 C 255 226 239 229 223 229 C 192 229 170 222 158 210 C 145 198 139 180 139 158 C 139 142 147 127 165 112 C 182 97 202 90 225 90 C 242 90 260 98 278 115 C 296 132 308 156 315 188 Z" unicode="£" />
<glyph horiz-adv-x="752" d="M 748 1573 L 516 838 L 721 838 L 721 774 L 496 774 L 465 680 L 721 680 L 721 616 L 446 616 L 446 0 L 303 0 L 303 616 L 27 616 L 27 680 L 285 680 L 254 774 L 27 774 L 27 838 L 233 838 L -8 1573 L 139 1573 L 381 825 L 618 1573 L 748 1573 Z" unicode="¥" />
<glyph horiz-adv-x="313" d="M 102 -389 L 102 586 L 211 586 L 211 -389 L 102 -389 Z M 102 723 L 102 1614 L 211 1614 L 211 723 L 102 723 Z" unicode="¦" />
<glyph horiz-adv-x="705" d="M 651 199 C 651 95 625 16 574 -37 C 522 -90 450 -117 356 -117 C 266 -117 202 -89 163 -33 C 123 22 104 88 104 166 C 104 199 107 233 113 269 C 119 305 128 340 139 375 L 242 387 C 230 339 223 296 220 260 C 216 223 215 190 215 162 C 215 102 229 59 257 31 C 285 3 318 -10 356 -10 C 396 -10 433 2 467 28 C 501 54 518 102 518 174 C 518 220 499 264 461 306 C 423 347 365 403 287 473 C 221 531 171 585 137 635 C 103 685 86 734 86 782 C 86 820 98 860 122 900 C 146 940 182 983 231 1028 C 184 1068 147 1109 119 1151 C 91 1193 78 1245 78 1307 C 78 1411 104 1485 157 1529 C 209 1573 274 1595 352 1595 C 403 1595 452 1577 500 1541 C 547 1505 571 1445 571 1360 C 571 1325 567 1289 560 1252 C 552 1214 545 1179 539 1147 L 442 1149 C 449 1185 455 1219 459 1250 C 463 1281 465 1307 465 1329 C 465 1389 451 1430 424 1453 C 396 1475 366 1487 332 1487 C 293 1487 261 1473 237 1447 C 213 1421 201 1381 201 1327 C 201 1286 219 1245 255 1205 C 291 1165 341 1123 406 1079 C 492 1020 555 968 593 922 C 631 876 651 821 651 758 C 651 700 637 651 609 611 C 581 571 544 535 496 502 C 556 444 597 394 619 351 C 640 308 651 257 651 199 Z M 526 723 C 526 757 510 791 480 823 C 449 855 390 903 303 967 C 277 940 257 914 241 890 C 225 865 217 839 217 813 C 217 780 232 744 263 705 C 294 665 346 618 420 563 C 456 587 482 612 500 637 C 517 662 526 691 526 723 Z" unicode="§" />
<glyph horiz-adv-x="838" d="M 340 1452 L 139 1452 L 139 1573 L 340 1573 L 340 1452 Z M 698 1452 L 498 1452 L 498 1573 L 698 1573 L 698 1452 Z" unicode="¨" />
<glyph horiz-adv-x="1137" d="M 772 979 C 772 913 758 866 731 837 C 703 807 650 793 571 793 C 487 793 429 815 396 859 C 362 903 346 994 346 1130 C 346 1260 364 1346 400 1388 C 436 1429 491 1450 563 1450 C 634 1450 685 1436 715 1409 C 745 1382 760 1339 760 1280 C 760 1268 759 1256 758 1242 C 757 1228 756 1217 754 1210 L 655 1214 C 657 1219 659 1228 661 1240 C 663 1252 664 1263 664 1272 C 664 1312 656 1340 642 1356 C 627 1372 601 1380 563 1380 C 531 1380 505 1365 485 1336 C 465 1307 455 1233 455 1114 C 455 1001 465 931 487 904 C 509 877 539 864 578 864 C 612 864 636 870 652 883 C 668 896 676 931 676 987 C 676 995 674 1009 672 1028 C 669 1047 668 1060 668 1067 L 758 1065 C 760 1057 763 1044 767 1027 C 770 1010 772 994 772 979 Z M 1028 1112 C 1028 986 982 879 892 789 C 802 699 694 655 569 655 C 442 655 334 699 244 789 C 154 879 109 986 109 1112 C 109 1238 154 1347 244 1437 C 334 1527 442 1573 569 1573 C 694 1573 802 1527 892 1437 C 982 1347 1028 1238 1028 1112 Z M 977 1112 C 977 1224 937 1321 857 1403 C 777 1485 681 1526 569 1526 C 456 1526 360 1485 280 1403 C 200 1321 160 1224 160 1112 C 160 1000 200 903 280 823 C 360 742 456 702 569 702 C 681 702 777 742 857 823 C 937 903 977 1000 977 1112 Z" unicode="©" />
<glyph horiz-adv-x="731" d="M 655 786 C 643 779 628 774 610 770 C 592 766 571 764 549 764 C 522 764 501 770 487 782 C 472 794 463 811 459 831 C 443 805 418 788 382 778 C 346 768 314 764 285 764 C 233 764 184 777 137 805 C 89 832 66 897 66 1001 C 66 1053 81 1101 113 1145 C 144 1189 198 1222 276 1245 C 355 1267 406 1287 429 1304 C 451 1320 463 1346 463 1382 C 463 1446 451 1486 429 1504 C 406 1521 374 1530 334 1530 C 297 1530 267 1521 245 1503 C 222 1485 211 1451 211 1401 C 211 1388 212 1376 214 1365 C 216 1354 219 1342 223 1329 L 121 1323 C 111 1333 104 1344 100 1357 C 96 1369 94 1388 94 1413 C 94 1473 116 1518 160 1549 C 204 1579 268 1595 352 1595 C 441 1595 501 1579 532 1549 C 562 1518 578 1480 578 1436 L 578 883 C 578 869 580 858 586 849 C 592 840 601 836 614 836 C 620 836 628 837 636 840 C 644 842 651 846 655 850 L 655 786 Z M 457 991 L 457 1221 C 355 1200 284 1174 244 1143 C 204 1111 184 1068 184 1012 C 184 948 194 907 214 888 C 234 869 272 860 328 860 C 368 860 400 870 423 890 C 445 910 457 944 457 991 Z M 666 606 L 66 606 L 66 692 L 666 692 L 666 606 Z" unicode="ª" />
<glyph horiz-adv-x="653" d="M 307 358 L 55 608 L 55 801 L 307 1049 L 307 868 L 125 705 L 307 537 L 307 358 Z M 588 358 L 336 608 L 336 801 L 588 1049 L 588 868 L 406 705 L 588 537 L 588 358 Z" unicode="«" />
<glyph horiz-adv-x="551" d="M 504 645 L 47 645 L 47 764 L 504 764 L 504 645 Z" unicode="­" />
<glyph horiz-adv-x="1137" d="M 805 1257 C 805 1223 795 1192 776 1163 C 756 1134 724 1118 680 1114 C 730 1109 758 1088 766 1050 C 774 1012 779 951 782 868 C 784 852 786 838 789 826 C 791 814 794 803 797 795 L 696 795 C 690 807 685 819 682 831 C 679 843 678 864 678 895 L 678 975 C 678 1000 673 1021 664 1038 C 655 1054 636 1063 606 1063 L 485 1063 L 485 795 L 383 795 L 383 1452 L 590 1452 C 673 1452 730 1436 760 1406 C 790 1375 805 1325 805 1257 Z M 1028 1112 C 1028 986 982 879 892 789 C 802 699 694 655 569 655 C 442 655 334 699 244 789 C 154 879 109 986 109 1112 C 109 1238 154 1347 244 1437 C 334 1527 442 1573 569 1573 C 694 1573 802 1527 892 1437 C 982 1347 1028 1238 1028 1112 Z M 977 1112 C 977 1224 937 1321 857 1403 C 777 1485 681 1526 569 1526 C 456 1526 360 1485 280 1403 C 200 1321 160 1224 160 1112 C 160 1000 200 903 280 823 C 360 742 456 702 569 702 C 681 702 777 742 857 823 C 937 903 977 1000 977 1112 Z M 690 1262 C 690 1304 683 1335 670 1355 C 657 1374 632 1384 594 1384 L 487 1384 L 487 1139 L 590 1139 C 621 1139 645 1146 663 1160 C 681 1174 690 1208 690 1262 Z" unicode="®" />
<glyph horiz-adv-x="838" d="M 649 1452 L 193 1452 L 193 1573 L 649 1573 L 649 1452 Z" unicode="¯" />
<glyph horiz-adv-x="385" d="M 348 1417 C 348 1375 332 1339 301 1309 C 270 1279 234 1264 193 1264 C 151 1264 114 1279 83 1309 C 52 1339 37 1375 37 1417 C 37 1459 52 1495 83 1526 C 114 1557 151 1573 193 1573 C 234 1573 270 1557 301 1526 C 332 1495 348 1459 348 1417 Z M 279 1417 C 279 1440 270 1460 253 1477 C 236 1494 216 1503 193 1503 C 169 1503 148 1494 131 1477 C 114 1460 106 1440 106 1417 C 106 1393 114 1374 131 1358 C 148 1342 169 1334 193 1334 C 216 1334 236 1342 253 1358 C 270 1374 279 1393 279 1417 Z" unicode="°" />
<glyph horiz-adv-x="522" d="M 473 590 L 59 590 L 59 698 C 91 736 125 782 160 838 C 195 894 222 940 242 977 C 270 1033 295 1092 317 1154 C 339 1216 350 1272 350 1323 C 350 1371 341 1407 325 1431 C 309 1455 286 1468 258 1468 C 230 1468 209 1456 193 1434 C 177 1411 170 1379 170 1339 C 170 1321 171 1294 175 1258 C 178 1222 181 1193 184 1169 L 63 1167 C 60 1182 57 1210 53 1252 C 49 1293 47 1325 47 1348 C 47 1422 65 1480 103 1522 C 141 1564 194 1585 262 1585 C 330 1585 382 1563 420 1520 C 458 1477 477 1411 477 1323 C 477 1259 464 1192 438 1124 C 412 1055 380 988 342 922 C 320 886 297 850 272 815 C 247 779 222 746 197 715 L 473 715 L 473 590 Z" unicode="²" />
<glyph horiz-adv-x="584" d="M 283 586 C 209 586 156 608 123 653 C 90 697 74 753 74 821 C 74 855 75 884 79 906 C 82 928 85 948 88 967 L 209 975 C 207 963 204 946 200 922 C 196 898 195 877 195 858 C 195 794 203 750 219 726 C 235 702 259 690 291 690 C 327 690 353 703 368 731 C 383 758 391 814 391 899 C 391 947 384 988 371 1022 C 357 1056 335 1073 305 1073 L 219 1073 L 219 1182 L 305 1182 C 331 1182 350 1193 362 1217 C 373 1240 379 1276 379 1325 C 379 1378 371 1418 357 1444 C 342 1470 318 1483 285 1483 C 258 1483 236 1472 220 1452 C 203 1431 195 1402 195 1364 C 195 1350 196 1332 198 1310 C 200 1288 203 1270 205 1257 L 88 1266 C 87 1272 85 1284 81 1301 C 77 1318 76 1338 76 1362 C 76 1420 92 1472 126 1519 C 159 1565 211 1589 283 1589 C 356 1589 410 1567 446 1524 C 482 1480 500 1410 500 1313 C 500 1253 489 1209 469 1181 C 448 1153 419 1137 381 1133 C 419 1131 452 1111 479 1071 C 506 1031 520 968 520 881 C 520 762 499 683 457 644 C 415 605 357 586 283 586 Z" unicode="³" />
<glyph horiz-adv-x="838" d="M 551 1573 L 397 1356 L 319 1356 L 403 1573 L 551 1573 Z" unicode="´" />
<glyph horiz-adv-x="717" d="M 618 0 L 547 0 L 547 1495 L 473 1495 L 473 0 L 401 0 L 401 557 C 393 557 379 560 361 564 C 342 568 328 571 319 573 C 237 597 173 645 127 717 C 81 789 59 907 59 1069 C 59 1257 80 1388 124 1462 C 167 1536 236 1573 330 1573 L 618 1573 L 618 0 Z M 401 621 L 401 1495 C 359 1495 323 1472 295 1426 C 266 1380 252 1259 252 1065 C 252 893 267 785 297 740 C 327 694 361 655 401 621 Z" unicode="¶" />
<glyph horiz-adv-x="356" d="M 315 805 C 315 766 301 733 275 707 C 249 681 216 668 178 668 C 140 668 107 681 81 707 C 54 733 41 766 41 805 C 41 843 54 876 81 902 C 107 928 140 942 178 942 C 216 942 249 928 275 902 C 301 876 315 843 315 805 Z" unicode="·" />
<glyph horiz-adv-x="838" d="M 590 -176 C 590 -234 570 -276 532 -302 C 493 -328 454 -342 416 -342 C 390 -342 364 -336 338 -324 C 312 -312 286 -295 262 -274 L 295 -199 C 312 -215 331 -227 351 -236 C 371 -245 389 -250 403 -250 C 433 -250 458 -245 476 -235 C 494 -225 504 -206 504 -178 C 504 -151 493 -131 471 -118 C 449 -104 423 -98 395 -98 C 389 -98 383 -98 378 -99 C 372 -100 366 -101 360 -102 L 375 -20 C 381 -19 387 -18 392 -18 C 397 -18 403 -18 410 -18 C 447 -18 486 -31 528 -59 C 569 -87 590 -126 590 -176 Z" unicode="¸" />
<glyph horiz-adv-x="424" d="M 190 594 L 190 1397 C 175 1389 155 1383 129 1377 C 103 1371 78 1368 53 1366 L 31 1366 L 31 1444 C 57 1448 81 1454 103 1461 C 125 1468 144 1478 162 1491 C 178 1501 193 1514 205 1530 C 217 1545 229 1563 240 1585 L 315 1585 L 315 594 L 190 594 Z" unicode="¹" />
<glyph horiz-adv-x="731" d="M 645 1169 C 645 1016 625 910 587 852 C 549 793 475 764 367 764 C 267 764 195 793 152 852 C 109 910 88 1016 88 1169 C 88 1317 107 1425 145 1493 C 183 1561 257 1595 367 1595 C 470 1595 542 1560 583 1492 C 624 1423 645 1315 645 1169 Z M 520 1169 C 520 1317 505 1409 477 1447 C 448 1484 411 1503 367 1503 C 321 1503 283 1484 255 1446 C 227 1408 213 1315 213 1169 C 213 1021 227 930 255 898 C 283 866 321 850 367 850 C 415 850 452 866 479 899 C 506 932 520 1022 520 1169 Z M 666 606 L 66 606 L 66 692 L 666 692 L 666 606 Z" unicode="º" />
<glyph horiz-adv-x="653" d="M 317 608 L 66 358 L 66 537 L 248 705 L 66 868 L 66 1049 L 317 801 L 317 608 Z M 598 608 L 346 358 L 346 537 L 528 705 L 346 868 L 346 1049 L 598 801 L 598 608 Z" unicode="»" />
<glyph horiz-adv-x="1448" d="M 190 594 L 190 1397 C 175 1389 155 1383 129 1377 C 103 1371 78 1368 53 1366 L 31 1366 L 31 1444 C 57 1448 81 1454 103 1461 C 125 1468 144 1478 162 1491 C 178 1501 193 1514 205 1530 C 217 1545 229 1563 240 1585 L 315 1585 L 315 594 L 190 594 Z M 1153 0 L 1153 217 L 834 217 L 834 367 L 1092 1026 L 1276 1026 L 1276 334 L 1356 334 L 1356 217 L 1276 217 L 1276 0 L 1153 0 Z M 0 -57 L 1210 1595 L 1300 1595 L 90 -57 L 0 -57 Z M 940 334 L 1153 334 L 1153 887 L 1081 692 L 940 334 Z" unicode="¼" />
<glyph horiz-adv-x="1495" d="M 1393 0 L 979 0 L 979 109 C 1011 146 1045 192 1080 248 C 1114 304 1141 350 1161 387 C 1189 443 1215 502 1237 564 C 1259 626 1270 682 1270 733 C 1270 781 1261 817 1245 842 C 1229 866 1206 879 1178 879 C 1150 879 1128 867 1113 844 C 1097 821 1090 790 1090 750 C 1090 731 1091 704 1095 668 C 1098 632 1101 603 1104 580 L 983 578 C 980 592 977 620 973 662 C 969 703 967 735 967 758 C 967 832 985 890 1023 932 C 1060 974 1113 995 1182 995 C 1250 995 1302 973 1340 930 C 1378 887 1397 821 1397 733 C 1397 669 1384 602 1358 534 C 1332 465 1300 398 1262 332 C 1240 296 1217 260 1192 225 C 1166 189 1141 156 1116 125 L 1393 125 L 1393 0 Z M 190 594 L 190 1397 C 175 1389 155 1383 129 1377 C 103 1371 78 1368 53 1366 L 31 1366 L 31 1444 C 57 1448 81 1454 103 1461 C 125 1468 144 1478 162 1491 C 178 1501 193 1514 205 1530 C 217 1545 229 1563 240 1585 L 315 1585 L 315 594 L 190 594 Z M 0 -57 L 1210 1595 L 1300 1595 L 90 -57 L 0 -57 Z" unicode="½" />
<glyph horiz-adv-x="1552" d="M 289 586 C 215 586 162 608 129 653 C 96 697 80 753 80 821 C 80 855 81 884 85 906 C 88 928 91 948 94 967 L 215 975 C 213 963 210 946 206 922 C 202 898 201 877 201 858 C 201 794 209 750 225 726 C 241 702 265 690 297 690 C 333 690 359 703 374 731 C 389 758 397 814 397 899 C 397 947 390 988 377 1022 C 363 1056 341 1073 311 1073 L 225 1073 L 225 1182 L 311 1182 C 337 1182 356 1193 368 1217 C 379 1240 385 1276 385 1325 C 385 1378 377 1418 363 1444 C 348 1470 324 1483 291 1483 C 264 1483 242 1472 226 1452 C 209 1431 201 1402 201 1364 C 201 1350 202 1332 204 1310 C 206 1288 209 1270 211 1257 L 94 1266 C 93 1272 91 1284 87 1301 C 83 1318 82 1338 82 1362 C 82 1420 98 1472 132 1519 C 165 1565 217 1589 289 1589 C 362 1589 416 1567 452 1524 C 488 1480 506 1410 506 1313 C 506 1253 495 1209 475 1181 C 454 1153 425 1137 387 1133 C 425 1131 458 1111 485 1071 C 512 1031 526 968 526 881 C 526 762 505 683 463 644 C 421 605 363 586 289 586 Z M 1255 0 L 1255 217 L 936 217 L 936 367 L 1194 1026 L 1378 1026 L 1378 334 L 1458 334 L 1458 217 L 1378 217 L 1378 0 L 1255 0 Z M 104 -57 L 1315 1595 L 1405 1595 L 195 -57 L 104 -57 Z M 1042 334 L 1255 334 L 1255 887 L 1184 692 L 1042 334 Z" unicode="¾" />
<glyph horiz-adv-x="692" d="M 639 246 C 639 165 615 100 569 50 C 523 0 448 -25 346 -25 C 251 -25 174 7 115 71 C 56 135 27 269 27 473 C 27 634 48 745 91 805 C 133 865 192 895 266 895 C 308 895 346 886 382 870 C 418 854 445 832 465 805 L 459 1073 L 567 1073 L 567 565 L 469 565 C 463 634 449 684 427 715 C 405 746 368 762 315 762 C 258 762 220 732 201 674 C 181 616 172 523 172 397 C 172 278 187 198 219 158 C 251 118 296 98 354 98 C 396 98 432 110 462 134 C 491 158 506 202 506 268 C 506 288 504 311 500 336 C 496 360 494 380 492 395 L 621 389 C 625 374 629 354 633 330 C 637 305 639 277 639 246 Z M 582 1300 L 426 1300 L 426 1571 L 582 1571 L 582 1300 Z" unicode="¿" />
<glyph horiz-adv-x="733" d="M 705 0 L 563 0 L 516 283 L 209 283 L 164 0 L 29 0 L 289 1585 L 444 1585 L 705 0 Z M 496 408 L 362 1274 L 229 408 L 496 408 Z M 435 1638 L 357 1638 L 202 1855 L 349 1855 L 435 1638 Z" unicode="À" />
<glyph horiz-adv-x="733" d="M 705 0 L 563 0 L 516 283 L 209 283 L 164 0 L 29 0 L 289 1585 L 444 1585 L 705 0 Z M 496 408 L 362 1274 L 229 408 L 496 408 Z M 529 1855 L 375 1638 L 297 1638 L 381 1855 L 529 1855 Z" unicode="Á" />
<glyph horiz-adv-x="733" d="M 705 0 L 563 0 L 516 283 L 209 283 L 164 0 L 29 0 L 289 1585 L 444 1585 L 705 0 Z M 496 408 L 362 1274 L 229 408 L 496 408 Z M 572 1638 L 488 1638 L 365 1740 L 244 1638 L 160 1638 L 307 1855 L 426 1855 L 572 1638 Z" unicode="Â" />
<glyph horiz-adv-x="733" d="M 705 0 L 563 0 L 516 283 L 209 283 L 164 0 L 29 0 L 289 1585 L 444 1585 L 705 0 Z M 496 408 L 362 1274 L 229 408 L 496 408 Z M 566 1730 C 566 1709 556 1688 537 1668 C 518 1648 487 1638 443 1638 C 425 1638 409 1640 393 1645 C 377 1650 365 1656 355 1663 C 351 1665 346 1667 341 1671 C 335 1675 330 1679 324 1683 C 316 1687 308 1692 300 1697 C 292 1701 283 1704 271 1704 C 255 1704 245 1700 240 1693 C 234 1686 232 1679 232 1671 C 232 1669 232 1666 233 1664 C 233 1661 234 1658 234 1656 L 175 1656 C 175 1656 172 1661 167 1671 C 162 1681 160 1695 160 1712 C 160 1732 167 1752 182 1772 C 196 1792 225 1802 267 1802 C 292 1802 312 1800 328 1796 C 343 1792 359 1785 377 1775 C 383 1771 389 1767 394 1763 C 399 1759 403 1757 406 1755 C 416 1747 424 1743 431 1741 C 438 1739 447 1738 457 1738 C 471 1738 481 1742 485 1750 C 489 1758 492 1767 492 1775 L 492 1790 L 551 1790 C 551 1790 553 1784 558 1772 C 563 1760 566 1746 566 1730 Z" unicode="Ã" />
<glyph horiz-adv-x="733" d="M 705 0 L 563 0 L 516 283 L 209 283 L 164 0 L 29 0 L 289 1585 L 444 1585 L 705 0 Z M 496 408 L 362 1274 L 229 408 L 496 408 Z M 293 1638 L 92 1638 L 92 1759 L 293 1759 L 293 1638 Z M 651 1638 L 451 1638 L 451 1759 L 651 1759 L 651 1638 Z" unicode="Ä" />
<glyph horiz-adv-x="733" d="M 705 0 L 563 0 L 516 283 L 211 283 L 164 0 L 29 0 L 279 1503 C 257 1517 240 1536 227 1560 C 213 1583 207 1608 207 1636 C 207 1680 222 1717 253 1748 C 283 1778 321 1794 365 1794 C 409 1794 446 1778 476 1748 C 506 1717 522 1680 522 1636 C 522 1608 515 1583 502 1560 C 489 1536 472 1517 451 1503 L 705 0 Z M 438 1636 C 438 1657 431 1675 417 1689 C 403 1703 386 1710 365 1710 C 343 1710 326 1703 312 1689 C 298 1675 291 1657 291 1636 C 291 1614 298 1597 312 1583 C 326 1569 343 1563 365 1563 C 386 1563 403 1569 417 1583 C 431 1597 438 1614 438 1636 Z M 496 408 L 367 1274 L 231 408 L 496 408 Z" unicode="Å" />
<glyph horiz-adv-x="1083" d="M 1071 0 L 526 0 L 526 283 L 223 283 L 137 0 L 2 0 L 483 1573 L 1028 1573 L 1028 1452 L 668 1452 L 668 862 L 991 862 L 991 741 L 668 741 L 668 121 L 1071 121 L 1071 0 Z M 526 408 L 526 1311 L 262 408 L 526 408 Z" unicode="Æ" />
<glyph horiz-adv-x="739" d="M 678 662 C 704 462 700 298 664 169 C 628 39 537 -25 391 -25 C 258 -25 169 30 125 140 C 81 250 59 447 59 733 C 59 1059 82 1285 129 1409 C 175 1533 263 1595 393 1595 C 541 1595 628 1538 654 1424 C 680 1310 684 1166 668 991 L 537 987 C 553 1156 553 1280 535 1359 C 517 1437 471 1477 397 1477 C 342 1477 297 1428 262 1332 C 226 1235 209 1048 209 770 C 209 543 219 374 241 263 C 263 151 316 96 401 96 C 466 96 512 140 540 230 C 568 320 569 464 545 662 L 678 662 Z M 565 -187 C 565 -245 545 -287 507 -313 C 468 -339 429 -353 391 -353 C 365 -353 339 -347 313 -335 C 287 -323 261 -306 237 -285 L 270 -210 C 287 -226 306 -238 326 -247 C 346 -256 364 -261 378 -261 C 408 -261 433 -256 451 -246 C 469 -236 479 -217 479 -189 C 479 -162 468 -142 446 -129 C 424 -115 398 -109 370 -109 C 364 -109 358 -109 353 -110 C 347 -111 341 -112 335 -113 L 350 -31 C 356 -30 362 -29 367 -29 C 372 -29 378 -29 385 -29 C 422 -29 461 -42 503 -70 C 544 -98 565 -137 565 -187 Z" unicode="Ç" />
<glyph horiz-adv-x="657" d="M 645 0 L 98 0 L 98 1573 L 602 1573 L 602 1452 L 242 1452 L 242 862 L 565 862 L 565 741 L 242 741 L 242 121 L 645 121 L 645 0 Z M 432 1638 L 354 1638 L 199 1855 L 346 1855 L 432 1638 Z" unicode="È" />
<glyph horiz-adv-x="657" d="M 645 0 L 98 0 L 98 1573 L 602 1573 L 602 1452 L 242 1452 L 242 862 L 565 862 L 565 741 L 242 741 L 242 121 L 645 121 L 645 0 Z M 517 1855 L 363 1638 L 285 1638 L 369 1855 L 517 1855 Z" unicode="É" />
<glyph horiz-adv-x="657" d="M 645 0 L 98 0 L 98 1573 L 602 1573 L 602 1452 L 242 1452 L 242 862 L 565 862 L 565 741 L 242 741 L 242 121 L 645 121 L 645 0 Z M 562 1638 L 478 1638 L 355 1740 L 234 1638 L 150 1638 L 297 1855 L 416 1855 L 562 1638 Z" unicode="Ê" />
<glyph horiz-adv-x="657" d="M 645 0 L 98 0 L 98 1573 L 602 1573 L 602 1452 L 242 1452 L 242 862 L 565 862 L 565 741 L 242 741 L 242 121 L 645 121 L 645 0 Z M 273 1638 L 72 1638 L 72 1759 L 273 1759 L 273 1638 Z M 631 1638 L 431 1638 L 431 1759 L 631 1759 L 631 1638 Z" unicode="Ë" />
<glyph horiz-adv-x="340" d="M 242 0 L 98 0 L 98 1573 L 242 1573 L 242 0 Z M 242 1638 L 164 1638 L 9 1855 L 156 1855 L 242 1638 Z" unicode="Ì" />
<glyph horiz-adv-x="340" d="M 242 0 L 98 0 L 98 1573 L 242 1573 L 242 0 Z M 339 1855 L 185 1638 L 107 1638 L 191 1855 L 339 1855 Z" unicode="Í" />
<glyph horiz-adv-x="340" d="M 242 0 L 98 0 L 98 1573 L 242 1573 L 242 0 Z M 380 1638 L 296 1638 L 173 1740 L 52 1638 L -32 1638 L 115 1855 L 234 1855 L 380 1638 Z" unicode="Î" />
<glyph horiz-adv-x="340" d="M 242 0 L 98 0 L 98 1573 L 242 1573 L 242 0 Z M 91 1638 L -110 1638 L -110 1759 L 91 1759 L 91 1638 Z M 449 1638 L 249 1638 L 249 1759 L 449 1759 L 449 1638 Z" unicode="Ï" />
<glyph horiz-adv-x="834" d="M 774 707 C 774 420 748 230 696 138 C 644 46 545 0 401 0 L 98 0 L 98 725 L -20 725 L -20 844 L 98 844 L 98 1573 L 385 1573 C 502 1573 596 1523 667 1424 C 738 1325 774 1086 774 707 Z M 625 670 C 625 975 604 1181 564 1289 C 523 1396 457 1450 367 1450 L 240 1450 L 240 844 L 446 844 L 446 725 L 240 725 L 240 123 L 383 123 C 461 123 521 152 563 210 C 604 268 625 421 625 670 Z" unicode="Ð" />
<glyph horiz-adv-x="811" d="M 713 0 L 582 0 L 227 1163 L 227 0 L 98 0 L 98 1573 L 229 1573 L 584 410 L 584 1573 L 713 1573 L 713 0 Z M 607 1730 C 607 1709 597 1688 578 1668 C 559 1648 528 1638 484 1638 C 466 1638 450 1640 434 1645 C 418 1650 406 1656 396 1663 C 392 1665 387 1667 382 1671 C 376 1675 371 1679 365 1683 C 357 1687 349 1692 341 1697 C 333 1701 324 1704 312 1704 C 296 1704 286 1700 281 1693 C 275 1686 273 1679 273 1671 C 273 1669 273 1666 274 1664 C 274 1661 275 1658 275 1656 L 216 1656 C 216 1656 213 1661 208 1671 C 203 1681 201 1695 201 1712 C 201 1732 208 1752 223 1772 C 237 1792 266 1802 308 1802 C 333 1802 353 1800 369 1796 C 384 1792 400 1785 418 1775 C 424 1771 430 1767 435 1763 C 440 1759 444 1757 447 1755 C 457 1747 465 1743 472 1741 C 479 1739 488 1738 498 1738 C 512 1738 522 1742 526 1750 C 530 1758 533 1767 533 1775 L 533 1790 L 592 1790 C 592 1790 594 1784 599 1772 C 604 1760 607 1746 607 1730 Z" unicode="Ñ" />
<glyph horiz-adv-x="780" d="M 721 774 C 721 464 700 254 658 142 C 616 30 527 -25 389 -25 C 251 -25 162 30 121 142 C 79 254 59 464 59 774 C 59 1084 79 1298 121 1417 C 162 1535 251 1595 389 1595 C 527 1595 616 1535 658 1417 C 700 1298 721 1084 721 774 Z M 571 778 C 571 1053 558 1239 534 1336 C 509 1432 459 1481 385 1481 C 311 1481 263 1432 241 1336 C 219 1239 209 1053 209 778 C 209 500 220 315 242 225 C 264 135 313 90 389 90 C 461 90 510 135 534 225 C 558 315 571 500 571 778 Z M 430 1638 L 352 1638 L 197 1855 L 344 1855 L 430 1638 Z" unicode="Ò" />
<glyph horiz-adv-x="780" d="M 721 774 C 721 464 700 254 658 142 C 616 30 527 -25 389 -25 C 251 -25 162 30 121 142 C 79 254 59 464 59 774 C 59 1084 79 1298 121 1417 C 162 1535 251 1595 389 1595 C 527 1595 616 1535 658 1417 C 700 1298 721 1084 721 774 Z M 571 778 C 571 1053 558 1239 534 1336 C 509 1432 459 1481 385 1481 C 311 1481 263 1432 241 1336 C 219 1239 209 1053 209 778 C 209 500 220 315 242 225 C 264 135 313 90 389 90 C 461 90 510 135 534 225 C 558 315 571 500 571 778 Z M 571 1855 L 417 1638 L 339 1638 L 423 1855 L 571 1855 Z" unicode="Ó" />
<glyph horiz-adv-x="780" d="M 721 774 C 721 464 700 254 658 142 C 616 30 527 -25 389 -25 C 251 -25 162 30 121 142 C 79 254 59 464 59 774 C 59 1084 79 1298 121 1417 C 162 1535 251 1595 389 1595 C 527 1595 616 1535 658 1417 C 700 1298 721 1084 721 774 Z M 571 778 C 571 1053 558 1239 534 1336 C 509 1432 459 1481 385 1481 C 311 1481 263 1432 241 1336 C 219 1239 209 1053 209 778 C 209 500 220 315 242 225 C 264 135 313 90 389 90 C 461 90 510 135 534 225 C 558 315 571 500 571 778 Z M 601 1638 L 517 1638 L 394 1740 L 273 1638 L 189 1638 L 336 1855 L 455 1855 L 601 1638 Z" unicode="Ô" />
<glyph horiz-adv-x="780" d="M 721 774 C 721 464 700 254 658 142 C 616 30 527 -25 389 -25 C 251 -25 162 30 121 142 C 79 254 59 464 59 774 C 59 1084 79 1298 121 1417 C 162 1535 251 1595 389 1595 C 527 1595 616 1535 658 1417 C 700 1298 721 1084 721 774 Z M 571 778 C 571 1053 558 1239 534 1336 C 509 1432 459 1481 385 1481 C 311 1481 263 1432 241 1336 C 219 1239 209 1053 209 778 C 209 500 220 315 242 225 C 264 135 313 90 389 90 C 461 90 510 135 534 225 C 558 315 571 500 571 778 Z M 595 1730 C 595 1709 585 1688 566 1668 C 547 1648 516 1638 472 1638 C 454 1638 438 1640 422 1645 C 406 1650 394 1656 384 1663 C 380 1665 375 1667 370 1671 C 364 1675 359 1679 353 1683 C 345 1687 337 1692 329 1697 C 321 1701 312 1704 300 1704 C 284 1704 274 1700 269 1693 C 263 1686 261 1679 261 1671 C 261 1669 261 1666 262 1664 C 262 1661 263 1658 263 1656 L 204 1656 C 204 1656 201 1661 196 1671 C 191 1681 189 1695 189 1712 C 189 1732 196 1752 211 1772 C 225 1792 254 1802 296 1802 C 321 1802 341 1800 357 1796 C 372 1792 388 1785 406 1775 C 412 1771 418 1767 423 1763 C 428 1759 432 1757 435 1755 C 445 1747 453 1743 460 1741 C 467 1739 476 1738 486 1738 C 500 1738 510 1742 514 1750 C 518 1758 521 1767 521 1775 L 521 1790 L 580 1790 C 580 1790 582 1784 587 1772 C 592 1760 595 1746 595 1730 Z" unicode="Õ" />
<glyph horiz-adv-x="780" d="M 721 774 C 721 464 700 254 658 142 C 616 30 527 -25 389 -25 C 251 -25 162 30 121 142 C 79 254 59 464 59 774 C 59 1084 79 1298 121 1417 C 162 1535 251 1595 389 1595 C 527 1595 616 1535 658 1417 C 700 1298 721 1084 721 774 Z M 571 778 C 571 1053 558 1239 534 1336 C 509 1432 459 1481 385 1481 C 311 1481 263 1432 241 1336 C 219 1239 209 1053 209 778 C 209 500 220 315 242 225 C 264 135 313 90 389 90 C 461 90 510 135 534 225 C 558 315 571 500 571 778 Z M 308 1638 L 107 1638 L 107 1759 L 308 1759 L 308 1638 Z M 666 1638 L 466 1638 L 466 1759 L 666 1759 L 666 1638 Z" unicode="Ö" />
<glyph horiz-adv-x="872" d="M 246 430 L 162 514 L 348 700 L 158 891 L 248 981 L 438 791 L 625 977 L 709 893 L 522 707 L 713 516 L 623 426 L 432 616 L 246 430 Z" unicode="×" />
<glyph horiz-adv-x="780" d="M 727 1616 L 662 1413 C 682 1349 696 1266 706 1163 C 716 1059 721 930 721 774 C 721 464 700 254 658 142 C 616 30 527 -25 389 -25 C 339 -25 296 -18 260 -6 C 224 6 194 27 170 57 L 133 -45 L 10 -45 L 100 207 C 84 263 73 339 67 435 C 61 531 59 644 59 774 C 59 1084 79 1298 121 1417 C 162 1535 251 1595 389 1595 C 429 1595 464 1590 495 1582 C 526 1573 554 1559 578 1540 L 604 1616 L 727 1616 Z M 571 778 C 571 854 570 926 569 993 C 567 1059 565 1117 561 1165 L 238 246 C 250 186 268 145 292 123 C 316 101 348 90 389 90 C 461 90 510 135 534 225 C 558 315 571 500 571 778 Z M 520 1380 C 506 1416 488 1442 466 1458 C 444 1473 417 1481 385 1481 C 311 1481 263 1432 241 1336 C 219 1239 209 1053 209 778 C 209 729 209 676 210 618 C 211 560 212 513 213 475 L 520 1380 Z" unicode="Ø" />
<glyph horiz-adv-x="854" d="M 760 254 C 760 164 734 95 683 47 C 632 0 547 -25 428 -25 C 308 -25 223 -1 171 46 C 119 94 94 163 94 254 L 94 1573 L 238 1573 L 238 254 C 238 203 251 164 279 138 C 306 111 356 98 428 98 C 504 98 555 112 579 141 C 603 169 616 207 616 254 L 616 1573 L 760 1573 L 760 254 Z M 518 1638 L 440 1638 L 285 1855 L 432 1855 L 518 1638 Z" unicode="Ù" />
<glyph horiz-adv-x="854" d="M 760 254 C 760 164 734 95 683 47 C 632 0 547 -25 428 -25 C 308 -25 223 -1 171 46 C 119 94 94 163 94 254 L 94 1573 L 238 1573 L 238 254 C 238 203 251 164 279 138 C 306 111 356 98 428 98 C 504 98 555 112 579 141 C 603 169 616 207 616 254 L 616 1573 L 760 1573 L 760 254 Z M 592 1855 L 438 1638 L 360 1638 L 444 1855 L 592 1855 Z" unicode="Ú" />
<glyph horiz-adv-x="854" d="M 760 254 C 760 164 734 95 683 47 C 632 0 547 -25 428 -25 C 308 -25 223 -1 171 46 C 119 94 94 163 94 254 L 94 1573 L 238 1573 L 238 254 C 238 203 251 164 279 138 C 306 111 356 98 428 98 C 504 98 555 112 579 141 C 603 169 616 207 616 254 L 616 1573 L 760 1573 L 760 254 Z M 633 1638 L 549 1638 L 426 1741 L 305 1638 L 221 1638 L 369 1855 L 487 1855 L 633 1638 Z" unicode="Û" />
<glyph horiz-adv-x="854" d="M 760 254 C 760 164 734 95 683 47 C 632 0 547 -25 428 -25 C 308 -25 223 -1 171 46 C 119 94 94 163 94 254 L 94 1573 L 238 1573 L 238 254 C 238 203 251 164 279 138 C 306 111 356 98 428 98 C 504 98 555 112 579 141 C 603 169 616 207 616 254 L 616 1573 L 760 1573 L 760 254 Z M 348 1638 L 147 1638 L 147 1759 L 348 1759 L 348 1638 Z M 707 1638 L 506 1638 L 506 1759 L 707 1759 L 707 1638 Z" unicode="Ü" />
<glyph horiz-adv-x="752" d="M 748 1573 L 446 618 L 446 0 L 303 0 L 303 616 L -8 1573 L 137 1573 L 381 823 L 610 1573 L 748 1573 Z M 531 1855 L 377 1638 L 299 1638 L 383 1855 L 531 1855 Z" unicode="Ý" />
<glyph horiz-adv-x="774" d="M 739 768 C 739 585 710 469 652 420 C 594 370 513 346 410 346 L 242 346 L 242 0 L 98 0 L 98 1573 L 242 1573 L 242 1221 L 432 1221 C 530 1221 605 1187 659 1119 C 712 1051 739 934 739 768 Z M 598 760 C 598 894 581 984 548 1030 C 514 1076 465 1100 399 1100 L 242 1100 L 242 465 L 426 465 C 490 465 534 487 560 531 C 585 575 598 652 598 760 Z" unicode="Þ" />
<glyph horiz-adv-x="793" d="M 733 444 C 733 262 699 143 632 86 C 565 28 481 0 379 0 L 373 0 L 373 125 L 428 125 C 468 125 504 146 536 190 C 568 233 584 331 584 483 C 584 572 567 642 533 694 C 499 746 462 772 422 772 L 416 772 L 416 899 L 428 899 C 472 899 505 918 527 958 C 548 998 559 1072 559 1180 C 559 1298 542 1378 509 1420 C 475 1462 437 1483 393 1483 C 354 1483 318 1465 285 1430 C 252 1395 236 1317 236 1196 L 236 0 L 98 0 L 98 1212 C 98 1336 122 1431 172 1497 C 221 1562 297 1595 401 1595 C 507 1595 583 1558 630 1486 C 676 1413 700 1305 700 1163 C 700 1042 680 961 640 920 C 600 878 558 852 512 842 C 575 821 628 781 670 722 C 712 663 733 570 733 444 Z" unicode="ß" />
<glyph horiz-adv-x="664" d="M 659 12 C 646 5 629 -1 608 -7 C 586 -13 564 -16 541 -16 C 513 -16 494 -6 484 13 C 474 33 469 54 467 78 C 446 49 420 26 388 9 C 356 -7 318 -16 276 -16 C 214 -16 160 4 114 46 C 68 88 45 181 45 326 C 45 432 70 507 120 552 C 170 596 238 639 324 680 C 345 690 364 699 381 708 C 398 717 416 726 436 735 C 438 750 440 769 442 793 C 444 816 446 850 446 895 C 446 955 432 997 406 1021 C 380 1045 351 1057 319 1057 C 287 1057 258 1045 230 1023 C 202 1000 188 963 188 911 C 188 894 189 874 193 851 C 197 828 201 809 205 795 L 92 791 C 89 801 85 817 81 837 C 76 857 74 879 74 905 C 74 987 96 1047 141 1084 C 185 1120 249 1139 332 1139 C 418 1139 479 1119 513 1080 C 547 1040 565 990 565 928 L 565 158 C 565 128 568 106 574 93 C 580 80 592 74 610 74 C 620 74 630 75 638 78 C 646 80 653 84 659 88 L 659 12 Z M 442 207 L 442 639 C 353 609 286 573 240 529 C 194 485 172 409 172 301 C 172 209 186 149 214 120 C 242 90 275 76 311 76 C 347 76 377 89 399 117 C 421 145 436 175 442 207 Z M 426 1203 L 348 1203 L 193 1420 L 340 1420 L 426 1203 Z" unicode="à" />
<glyph horiz-adv-x="664" d="M 659 12 C 646 5 629 -1 608 -7 C 586 -13 564 -16 541 -16 C 513 -16 494 -6 484 13 C 474 33 469 54 467 78 C 446 49 420 26 388 9 C 356 -7 318 -16 276 -16 C 214 -16 160 4 114 46 C 68 88 45 181 45 326 C 45 432 70 507 120 552 C 170 596 238 639 324 680 C 345 690 364 699 381 708 C 398 717 416 726 436 735 C 438 750 440 769 442 793 C 444 816 446 850 446 895 C 446 955 432 997 406 1021 C 380 1045 351 1057 319 1057 C 287 1057 258 1045 230 1023 C 202 1000 188 963 188 911 C 188 894 189 874 193 851 C 197 828 201 809 205 795 L 92 791 C 89 801 85 817 81 837 C 76 857 74 879 74 905 C 74 987 96 1047 141 1084 C 185 1120 249 1139 332 1139 C 418 1139 479 1119 513 1080 C 547 1040 565 990 565 928 L 565 158 C 565 128 568 106 574 93 C 580 80 592 74 610 74 C 620 74 630 75 638 78 C 646 80 653 84 659 88 L 659 12 Z M 442 207 L 442 639 C 353 609 286 573 240 529 C 194 485 172 409 172 301 C 172 209 186 149 214 120 C 242 90 275 76 311 76 C 347 76 377 89 399 117 C 421 145 436 175 442 207 Z M 492 1420 L 338 1203 L 260 1203 L 344 1420 L 492 1420 Z" unicode="á" />
<glyph horiz-adv-x="664" d="M 659 12 C 646 5 629 -1 608 -7 C 586 -13 564 -16 541 -16 C 513 -16 494 -6 484 13 C 474 33 469 54 467 78 C 446 49 420 26 388 9 C 356 -7 318 -16 276 -16 C 214 -16 160 4 114 46 C 68 88 45 181 45 326 C 45 432 70 507 120 552 C 170 596 238 639 324 680 C 345 690 364 699 381 708 C 398 717 416 726 436 735 C 438 750 440 769 442 793 C 444 816 446 850 446 895 C 446 955 432 997 406 1021 C 380 1045 351 1057 319 1057 C 287 1057 258 1045 230 1023 C 202 1000 188 963 188 911 C 188 894 189 874 193 851 C 197 828 201 809 205 795 L 92 791 C 89 801 85 817 81 837 C 76 857 74 879 74 905 C 74 987 96 1047 141 1084 C 185 1120 249 1139 332 1139 C 418 1139 479 1119 513 1080 C 547 1040 565 990 565 928 L 565 158 C 565 128 568 106 574 93 C 580 80 592 74 610 74 C 620 74 630 75 638 78 C 646 80 653 84 659 88 L 659 12 Z M 442 207 L 442 639 C 353 609 286 573 240 529 C 194 485 172 409 172 301 C 172 209 186 149 214 120 C 242 90 275 76 311 76 C 347 76 377 89 399 117 C 421 145 436 175 442 207 Z M 535 1203 L 451 1203 L 328 1305 L 207 1203 L 123 1203 L 270 1420 L 389 1420 L 535 1203 Z" unicode="â" />
<glyph horiz-adv-x="664" d="M 659 12 C 646 5 629 -1 608 -7 C 586 -13 564 -16 541 -16 C 513 -16 494 -6 484 13 C 474 33 469 54 467 78 C 446 49 420 26 388 9 C 356 -7 318 -16 276 -16 C 214 -16 160 4 114 46 C 68 88 45 181 45 326 C 45 432 70 507 120 552 C 170 596 238 639 324 680 C 345 690 364 699 381 708 C 398 717 416 726 436 735 C 438 750 440 769 442 793 C 444 816 446 850 446 895 C 446 955 432 997 406 1021 C 380 1045 351 1057 319 1057 C 287 1057 258 1045 230 1023 C 202 1000 188 963 188 911 C 188 894 189 874 193 851 C 197 828 201 809 205 795 L 92 791 C 89 801 85 817 81 837 C 76 857 74 879 74 905 C 74 987 96 1047 141 1084 C 185 1120 249 1139 332 1139 C 418 1139 479 1119 513 1080 C 547 1040 565 990 565 928 L 565 158 C 565 128 568 106 574 93 C 580 80 592 74 610 74 C 620 74 630 75 638 78 C 646 80 653 84 659 88 L 659 12 Z M 442 207 L 442 639 C 353 609 286 573 240 529 C 194 485 172 409 172 301 C 172 209 186 149 214 120 C 242 90 275 76 311 76 C 347 76 377 89 399 117 C 421 145 436 175 442 207 Z M 544 1295 C 544 1274 534 1253 515 1233 C 496 1213 465 1203 421 1203 C 403 1203 387 1205 371 1210 C 355 1215 343 1221 333 1228 C 329 1230 324 1232 319 1236 C 313 1240 308 1244 302 1248 C 294 1252 286 1257 278 1262 C 270 1266 261 1269 249 1269 C 233 1269 223 1265 218 1258 C 212 1251 210 1244 210 1236 C 210 1234 210 1231 211 1229 C 211 1226 212 1223 212 1221 L 153 1221 C 153 1221 150 1226 145 1236 C 140 1246 138 1260 138 1277 C 138 1297 145 1317 160 1337 C 174 1357 203 1367 245 1367 C 270 1367 290 1365 306 1361 C 321 1357 337 1350 355 1340 C 361 1336 367 1332 372 1328 C 377 1324 381 1322 384 1320 C 394 1312 402 1308 409 1306 C 416 1304 425 1303 435 1303 C 449 1303 459 1307 463 1315 C 467 1323 470 1332 470 1340 L 470 1355 L 529 1355 C 529 1355 531 1349 536 1337 C 541 1325 544 1311 544 1295 Z" unicode="ã" />
<glyph horiz-adv-x="664" d="M 659 12 C 646 5 629 -1 608 -7 C 586 -13 564 -16 541 -16 C 513 -16 494 -6 484 13 C 474 33 469 54 467 78 C 446 49 420 26 388 9 C 356 -7 318 -16 276 -16 C 214 -16 160 4 114 46 C 68 88 45 181 45 326 C 45 432 70 507 120 552 C 170 596 238 639 324 680 C 345 690 364 699 381 708 C 398 717 416 726 436 735 C 438 750 440 769 442 793 C 444 816 446 850 446 895 C 446 955 432 997 406 1021 C 380 1045 351 1057 319 1057 C 287 1057 258 1045 230 1023 C 202 1000 188 963 188 911 C 188 894 189 874 193 851 C 197 828 201 809 205 795 L 92 791 C 89 801 85 817 81 837 C 76 857 74 879 74 905 C 74 987 96 1047 141 1084 C 185 1120 249 1139 332 1139 C 418 1139 479 1119 513 1080 C 547 1040 565 990 565 928 L 565 158 C 565 128 568 106 574 93 C 580 80 592 74 610 74 C 620 74 630 75 638 78 C 646 80 653 84 659 88 L 659 12 Z M 442 207 L 442 639 C 353 609 286 573 240 529 C 194 485 172 409 172 301 C 172 209 186 149 214 120 C 242 90 275 76 311 76 C 347 76 377 89 399 117 C 421 145 436 175 442 207 Z M 250 1203 L 49 1203 L 49 1324 L 250 1324 L 250 1203 Z M 608 1203 L 408 1203 L 408 1324 L 608 1324 L 608 1203 Z" unicode="ä" />
<glyph horiz-adv-x="664" d="M 659 12 C 646 5 629 -1 608 -7 C 586 -13 564 -16 541 -16 C 513 -16 494 -6 484 13 C 474 33 469 54 467 78 C 446 49 420 26 388 9 C 356 -7 318 -16 276 -16 C 214 -16 160 4 114 46 C 68 88 45 181 45 326 C 45 432 70 507 120 552 C 170 596 238 639 324 680 C 345 690 364 699 381 708 C 398 717 416 726 436 735 C 438 750 440 769 442 793 C 444 816 446 850 446 895 C 446 955 432 997 406 1021 C 380 1045 351 1057 319 1057 C 287 1057 258 1045 230 1023 C 202 1000 188 963 188 911 C 188 894 189 874 193 851 C 197 828 201 809 205 795 L 92 791 C 89 801 85 817 81 837 C 76 857 74 879 74 905 C 74 987 96 1047 141 1084 C 185 1120 249 1139 332 1139 C 418 1139 479 1119 513 1080 C 547 1040 565 990 565 928 L 565 158 C 565 128 568 106 574 93 C 580 80 592 74 610 74 C 620 74 630 75 638 78 C 646 80 653 84 659 88 L 659 12 Z M 442 207 L 442 639 C 353 609 286 573 240 529 C 194 485 172 409 172 301 C 172 209 186 149 214 120 C 242 90 275 76 311 76 C 347 76 377 89 399 117 C 421 145 436 175 442 207 Z M 496 1360 C 496 1316 480 1278 450 1248 C 420 1217 383 1202 339 1202 C 295 1202 257 1217 227 1248 C 196 1278 181 1316 181 1360 C 181 1404 196 1441 227 1472 C 257 1502 295 1518 339 1518 C 383 1518 420 1502 450 1472 C 480 1441 496 1404 496 1360 Z M 413 1360 C 413 1381 406 1399 392 1413 C 378 1427 360 1434 339 1434 C 317 1434 300 1427 286 1413 C 272 1399 265 1381 265 1360 C 265 1338 272 1321 286 1307 C 300 1293 317 1286 339 1286 C 360 1286 378 1293 392 1307 C 406 1321 413 1338 413 1360 Z" unicode="å" />
<glyph horiz-adv-x="1038" d="M 987 258 C 987 166 967 97 928 51 C 888 5 825 -18 739 -18 C 680 -18 631 -9 591 8 C 551 26 519 61 496 115 C 468 76 437 44 405 20 C 372 -3 329 -16 276 -16 C 214 -16 160 4 114 46 C 68 88 45 181 45 326 C 45 432 70 507 120 552 C 170 596 238 639 324 680 C 345 690 364 699 381 708 C 398 717 416 726 436 735 C 438 750 440 769 442 793 C 444 816 446 850 446 895 C 446 955 432 997 406 1021 C 380 1045 351 1057 319 1057 C 287 1057 258 1045 230 1023 C 202 1000 188 963 188 911 C 188 894 189 874 193 851 C 197 828 201 809 205 795 L 92 791 C 89 801 85 817 81 837 C 76 857 74 879 74 905 C 74 987 96 1047 141 1084 C 185 1120 249 1139 332 1139 C 384 1139 426 1131 459 1117 C 492 1102 517 1081 535 1055 C 557 1087 584 1110 616 1122 C 648 1134 685 1141 727 1141 C 824 1141 891 1105 929 1033 C 966 961 985 847 985 690 C 985 660 983 631 981 601 C 979 571 977 551 977 541 L 575 541 C 575 373 583 253 599 180 C 615 106 661 70 739 70 C 787 70 821 85 841 117 C 861 149 872 213 872 311 C 872 324 870 339 868 357 C 866 375 864 390 864 403 L 977 399 C 979 387 982 366 984 337 C 986 307 987 281 987 258 Z M 442 207 L 442 639 C 353 609 286 573 240 529 C 194 485 172 409 172 301 C 172 209 186 149 214 120 C 242 90 275 76 311 76 C 347 76 376 89 398 117 C 420 144 435 174 442 207 Z M 862 782 C 862 886 848 958 822 996 C 796 1034 763 1053 723 1053 C 674 1053 637 1019 611 953 C 585 886 573 777 573 627 L 856 627 C 858 651 860 676 861 701 C 861 726 862 753 862 782 Z" unicode="æ" />
<glyph horiz-adv-x="633" d="M 590 311 C 590 195 573 111 539 59 C 505 7 438 -18 336 -18 C 228 -18 153 20 113 97 C 73 173 53 333 53 575 C 53 811 75 964 121 1035 C 166 1105 236 1141 330 1141 C 417 1141 479 1118 517 1072 C 554 1026 573 950 573 842 C 573 824 571 804 569 780 C 567 756 565 737 563 725 L 442 723 C 444 736 446 753 448 775 C 450 796 451 816 451 836 C 451 905 442 958 425 995 C 408 1032 376 1051 330 1051 C 288 1051 253 1021 226 961 C 199 901 186 765 186 553 C 186 342 200 209 229 153 C 257 97 296 70 344 70 C 386 70 418 87 438 121 C 458 155 469 223 469 324 C 469 340 467 364 464 396 C 461 428 459 451 459 467 L 569 463 C 573 448 578 425 583 395 C 587 364 590 336 590 311 Z M 524 -182 C 524 -240 504 -282 466 -308 C 427 -334 388 -348 350 -348 C 324 -348 298 -342 272 -330 C 246 -318 220 -301 196 -280 L 229 -205 C 246 -221 265 -233 285 -242 C 305 -251 323 -256 337 -256 C 367 -256 392 -251 410 -241 C 428 -231 438 -212 438 -184 C 438 -157 427 -137 405 -124 C 383 -110 357 -104 329 -104 C 323 -104 317 -104 312 -105 C 306 -106 300 -107 294 -108 L 309 -26 C 315 -25 321 -24 326 -24 C 331 -24 337 -24 344 -24 C 381 -24 420 -37 462 -65 C 503 -93 524 -132 524 -182 Z" unicode="ç" />
<glyph horiz-adv-x="645" d="M 594 258 C 594 166 574 97 535 51 C 495 5 432 -18 346 -18 C 243 -18 168 14 122 78 C 76 142 53 286 53 510 C 53 770 76 940 122 1020 C 168 1100 238 1141 334 1141 C 430 1141 497 1105 535 1033 C 573 961 592 847 592 690 C 592 660 590 631 588 601 C 586 571 584 551 584 541 L 182 541 C 182 373 190 253 206 180 C 222 106 268 70 346 70 C 394 70 428 85 448 117 C 468 149 479 213 479 311 C 479 324 477 339 475 357 C 473 375 471 390 471 403 L 584 399 C 586 387 589 366 591 337 C 593 307 594 281 594 258 Z M 469 782 C 469 886 455 958 429 996 C 403 1034 370 1053 330 1053 C 280 1053 243 1019 218 953 C 192 886 180 777 180 627 L 463 627 C 465 651 467 676 468 701 C 468 726 469 753 469 782 Z M 444 1202 L 367 1202 L 211 1419 L 358 1419 L 444 1202 Z" unicode="è" />
<glyph horiz-adv-x="645" d="M 594 258 C 594 166 574 97 535 51 C 495 5 432 -18 346 -18 C 243 -18 168 14 122 78 C 76 142 53 286 53 510 C 53 770 76 940 122 1020 C 168 1100 238 1141 334 1141 C 430 1141 497 1105 535 1033 C 573 961 592 847 592 690 C 592 660 590 631 588 601 C 586 571 584 551 584 541 L 182 541 C 182 373 190 253 206 180 C 222 106 268 70 346 70 C 394 70 428 85 448 117 C 468 149 479 213 479 311 C 479 324 477 339 475 357 C 473 375 471 390 471 403 L 584 399 C 586 387 589 366 591 337 C 593 307 594 281 594 258 Z M 469 782 C 469 886 455 958 429 996 C 403 1034 370 1053 330 1053 C 280 1053 243 1019 218 953 C 192 886 180 777 180 627 L 463 627 C 465 651 467 676 468 701 C 468 726 469 753 469 782 Z M 498 1419 L 344 1202 L 266 1202 L 350 1419 L 498 1419 Z" unicode="é" />
<glyph horiz-adv-x="645" d="M 594 258 C 594 166 574 97 535 51 C 495 5 432 -18 346 -18 C 243 -18 168 14 122 78 C 76 142 53 286 53 510 C 53 770 76 940 122 1020 C 168 1100 238 1141 334 1141 C 430 1141 497 1105 535 1033 C 573 961 592 847 592 690 C 592 660 590 631 588 601 C 586 571 584 551 584 541 L 182 541 C 182 373 190 253 206 180 C 222 106 268 70 346 70 C 394 70 428 85 448 117 C 468 149 479 213 479 311 C 479 324 477 339 475 357 C 473 375 471 390 471 403 L 584 399 C 586 387 589 366 591 337 C 593 307 594 281 594 258 Z M 469 782 C 469 886 455 958 429 996 C 403 1034 370 1053 330 1053 C 280 1053 243 1019 218 953 C 192 886 180 777 180 627 L 463 627 C 465 651 467 676 468 701 C 468 726 469 753 469 782 Z M 539 1202 L 455 1202 L 332 1305 L 211 1202 L 127 1202 L 274 1419 L 393 1419 L 539 1202 Z" unicode="ê" />
<glyph horiz-adv-x="645" d="M 594 258 C 594 166 574 97 535 51 C 495 5 432 -18 346 -18 C 243 -18 168 14 122 78 C 76 142 53 286 53 510 C 53 770 76 940 122 1020 C 168 1100 238 1141 334 1141 C 430 1141 497 1105 535 1033 C 573 961 592 847 592 690 C 592 660 590 631 588 601 C 586 571 584 551 584 541 L 182 541 C 182 373 190 253 206 180 C 222 106 268 70 346 70 C 394 70 428 85 448 117 C 468 149 479 213 479 311 C 479 324 477 339 475 357 C 473 375 471 390 471 403 L 584 399 C 586 387 589 366 591 337 C 593 307 594 281 594 258 Z M 469 782 C 469 886 455 958 429 996 C 403 1034 370 1053 330 1053 C 280 1053 243 1019 218 953 C 192 886 180 777 180 627 L 463 627 C 465 651 467 676 468 701 C 468 726 469 753 469 782 Z M 254 1202 L 53 1202 L 53 1323 L 254 1323 L 254 1202 Z M 612 1202 L 412 1202 L 412 1323 L 612 1323 L 612 1202 Z" unicode="ë" />
<glyph horiz-adv-x="250" d="M 188 0 L 61 0 L 61 1128 L 188 1128 L 188 0 Z M 181 1203 L 103 1203 L -52 1420 L 95 1420 L 181 1203 Z" unicode="ì" />
<glyph horiz-adv-x="250" d="M 188 0 L 61 0 L 61 1128 L 188 1128 L 188 0 Z M 306 1420 L 152 1203 L 74 1203 L 158 1420 L 306 1420 Z" unicode="í" />
<glyph horiz-adv-x="250" d="M 188 0 L 61 0 L 61 1128 L 188 1128 L 188 0 Z M 333 1203 L 249 1203 L 126 1305 L 5 1203 L -79 1203 L 68 1420 L 187 1420 L 333 1203 Z" unicode="î" />
<glyph horiz-adv-x="250" d="M 188 0 L 61 0 L 61 1128 L 188 1128 L 188 0 Z M 48 1203 L -153 1203 L -153 1324 L 48 1324 L 48 1203 Z M 406 1203 L 206 1203 L 206 1324 L 406 1324 L 406 1203 Z" unicode="ï" />
<glyph horiz-adv-x="682" d="M 711 1460 C 711 1439 702 1418 684 1398 C 666 1378 634 1362 588 1352 C 604 1260 614 1144 617 1006 C 619 868 621 721 621 565 C 621 393 594 254 540 147 C 486 39 407 -14 303 -14 C 218 -14 155 23 115 99 C 75 175 55 325 55 551 C 55 790 78 948 126 1025 C 174 1102 235 1141 309 1141 C 353 1141 390 1132 418 1114 C 446 1096 472 1070 496 1036 C 496 1109 494 1167 492 1209 C 490 1251 485 1296 479 1346 C 430 1341 403 1331 398 1317 C 392 1303 398 1284 416 1262 L 379 1243 C 354 1253 335 1266 323 1281 C 311 1296 305 1312 305 1329 C 305 1352 315 1375 335 1397 C 355 1419 397 1434 459 1442 C 450 1473 437 1497 420 1514 C 402 1531 380 1540 354 1540 C 327 1540 305 1533 287 1520 C 269 1506 248 1484 223 1452 L 139 1526 C 167 1555 198 1581 232 1604 C 265 1626 311 1638 371 1638 C 417 1638 456 1624 487 1597 C 518 1569 544 1522 565 1454 C 597 1460 616 1472 621 1488 C 625 1504 620 1520 606 1536 L 637 1550 C 659 1542 677 1529 691 1513 C 704 1497 711 1479 711 1460 Z M 494 563 C 494 746 479 872 451 941 C 423 1009 386 1044 340 1044 C 295 1044 258 1013 229 953 C 200 892 186 763 186 565 C 186 366 200 236 230 174 C 259 112 296 82 340 82 C 382 82 418 114 448 180 C 478 246 494 373 494 563 Z" unicode="ð" />
<glyph horiz-adv-x="659" d="M 602 0 L 473 0 L 473 922 C 473 966 465 996 451 1014 C 436 1031 407 1040 365 1040 C 313 1040 270 1018 237 975 C 204 932 188 886 188 838 L 188 0 L 61 0 L 61 1128 L 186 1128 L 186 1022 C 209 1058 236 1087 268 1109 C 300 1130 344 1141 401 1141 C 462 1141 511 1126 547 1097 C 583 1068 602 1023 602 961 L 602 0 Z M 552 1295 C 552 1274 542 1253 523 1233 C 504 1213 473 1203 429 1203 C 411 1203 395 1205 379 1210 C 363 1215 351 1221 341 1228 C 337 1230 332 1232 327 1236 C 321 1240 316 1244 310 1248 C 302 1252 294 1257 286 1262 C 278 1266 269 1269 257 1269 C 241 1269 231 1265 226 1258 C 220 1251 218 1244 218 1236 C 218 1234 218 1231 219 1229 C 219 1226 220 1223 220 1221 L 161 1221 C 161 1221 158 1226 153 1236 C 148 1246 146 1260 146 1277 C 146 1297 153 1317 168 1337 C 182 1357 211 1367 253 1367 C 278 1367 298 1365 314 1361 C 329 1357 345 1350 363 1340 C 369 1336 375 1332 380 1328 C 385 1324 389 1322 392 1320 C 402 1312 410 1308 417 1306 C 424 1304 433 1303 443 1303 C 457 1303 467 1307 471 1315 C 475 1323 478 1332 478 1340 L 478 1355 L 537 1355 C 537 1355 539 1349 544 1337 C 549 1325 552 1311 552 1295 Z" unicode="ñ" />
<glyph horiz-adv-x="674" d="M 621 561 C 621 321 597 165 551 92 C 504 18 432 -18 336 -18 C 238 -18 167 18 121 92 C 75 165 53 321 53 561 C 53 800 75 956 121 1030 C 167 1104 238 1141 336 1141 C 432 1141 504 1104 551 1030 C 597 956 621 800 621 561 Z M 489 563 C 489 763 475 894 447 956 C 419 1018 382 1049 336 1049 C 289 1049 252 1017 225 955 C 197 893 184 761 184 559 C 184 359 197 229 225 167 C 252 105 289 74 336 74 C 382 74 419 105 447 167 C 475 229 489 361 489 563 Z M 412 1203 L 334 1203 L 179 1420 L 326 1420 L 412 1203 Z" unicode="ò" />
<glyph horiz-adv-x="674" d="M 621 561 C 621 321 597 165 551 92 C 504 18 432 -18 336 -18 C 238 -18 167 18 121 92 C 75 165 53 321 53 561 C 53 800 75 956 121 1030 C 167 1104 238 1141 336 1141 C 432 1141 504 1104 551 1030 C 597 956 621 800 621 561 Z M 489 563 C 489 763 475 894 447 956 C 419 1018 382 1049 336 1049 C 289 1049 252 1017 225 955 C 197 893 184 761 184 559 C 184 359 197 229 225 167 C 252 105 289 74 336 74 C 382 74 419 105 447 167 C 475 229 489 361 489 563 Z M 498 1420 L 344 1203 L 266 1203 L 350 1420 L 498 1420 Z" unicode="ó" />
<glyph horiz-adv-x="674" d="M 621 561 C 621 321 597 165 551 92 C 504 18 432 -18 336 -18 C 238 -18 167 18 121 92 C 75 165 53 321 53 561 C 53 800 75 956 121 1030 C 167 1104 238 1141 336 1141 C 432 1141 504 1104 551 1030 C 597 956 621 800 621 561 Z M 489 563 C 489 763 475 894 447 956 C 419 1018 382 1049 336 1049 C 289 1049 252 1017 225 955 C 197 893 184 761 184 559 C 184 359 197 229 225 167 C 252 105 289 74 336 74 C 382 74 419 105 447 167 C 475 229 489 361 489 563 Z M 550 1203 L 466 1203 L 343 1305 L 222 1203 L 138 1203 L 285 1420 L 404 1420 L 550 1203 Z" unicode="ô" />
<glyph horiz-adv-x="674" d="M 621 561 C 621 321 597 165 551 92 C 504 18 432 -18 336 -18 C 238 -18 167 18 121 92 C 75 165 53 321 53 561 C 53 800 75 956 121 1030 C 167 1104 238 1141 336 1141 C 432 1141 504 1104 551 1030 C 597 956 621 800 621 561 Z M 489 563 C 489 763 475 894 447 956 C 419 1018 382 1049 336 1049 C 289 1049 252 1017 225 955 C 197 893 184 761 184 559 C 184 359 197 229 225 167 C 252 105 289 74 336 74 C 382 74 419 105 447 167 C 475 229 489 361 489 563 Z M 556 1295 C 556 1274 546 1253 527 1233 C 508 1213 477 1203 433 1203 C 415 1203 399 1205 383 1210 C 367 1215 355 1221 345 1228 C 341 1230 336 1232 331 1236 C 325 1240 320 1244 314 1248 C 306 1252 298 1257 290 1262 C 282 1266 273 1269 261 1269 C 245 1269 235 1265 230 1258 C 224 1251 222 1244 222 1236 C 222 1234 222 1231 223 1229 C 223 1226 224 1223 224 1221 L 165 1221 C 165 1221 162 1226 157 1236 C 152 1246 150 1260 150 1277 C 150 1297 157 1317 172 1337 C 186 1357 215 1367 257 1367 C 282 1367 302 1365 318 1361 C 333 1357 349 1350 367 1340 C 373 1336 379 1332 384 1328 C 389 1324 393 1322 396 1320 C 406 1312 414 1308 421 1306 C 428 1304 437 1303 447 1303 C 461 1303 471 1307 475 1315 C 479 1323 482 1332 482 1340 L 482 1355 L 541 1355 C 541 1355 543 1349 548 1337 C 553 1325 556 1311 556 1295 Z" unicode="õ" />
<glyph horiz-adv-x="674" d="M 621 561 C 621 321 597 165 551 92 C 504 18 432 -18 336 -18 C 238 -18 167 18 121 92 C 75 165 53 321 53 561 C 53 800 75 956 121 1030 C 167 1104 238 1141 336 1141 C 432 1141 504 1104 551 1030 C 597 956 621 800 621 561 Z M 489 563 C 489 763 475 894 447 956 C 419 1018 382 1049 336 1049 C 289 1049 252 1017 225 955 C 197 893 184 761 184 559 C 184 359 197 229 225 167 C 252 105 289 74 336 74 C 382 74 419 105 447 167 C 475 229 489 361 489 563 Z M 263 1203 L 62 1203 L 62 1324 L 263 1324 L 263 1203 Z M 621 1203 L 421 1203 L 421 1324 L 621 1324 L 621 1203 Z" unicode="ö" />
<glyph horiz-adv-x="674" d="M 709 1167 L 588 934 C 598 891 606 839 612 778 C 618 716 621 644 621 561 C 621 321 597 165 551 92 C 504 18 432 -18 336 -18 C 292 -18 253 -11 219 0 C 185 12 157 36 135 70 L 76 -45 L -41 -45 L 84 195 C 73 237 65 289 60 349 C 55 409 53 480 53 561 C 53 800 75 956 121 1030 C 167 1104 238 1141 336 1141 C 378 1141 416 1135 449 1123 C 482 1111 511 1089 535 1057 L 592 1167 L 709 1167 Z M 489 563 C 489 597 488 628 487 657 C 486 685 485 712 485 737 L 211 213 C 223 159 240 122 261 103 C 282 83 307 74 336 74 C 382 74 419 105 447 167 C 475 229 489 361 489 563 Z M 461 915 C 447 967 430 1002 409 1021 C 387 1039 363 1049 336 1049 C 289 1049 252 1017 225 955 C 197 893 184 761 184 559 C 184 528 184 499 185 471 C 186 443 187 418 188 395 L 461 915 Z" unicode="ø" />
<glyph horiz-adv-x="664" d="M 602 0 L 475 0 L 475 84 C 454 53 423 29 382 12 C 341 -5 298 -14 254 -14 C 192 -14 144 0 111 29 C 77 57 61 100 61 158 L 61 1128 L 188 1128 L 188 190 C 188 157 196 132 212 115 C 228 98 263 90 315 90 C 353 90 389 106 423 138 C 456 170 473 211 473 262 L 473 1128 L 602 1128 L 602 0 Z M 410 1203 L 332 1203 L 177 1420 L 324 1420 L 410 1203 Z" unicode="ù" />
<glyph horiz-adv-x="664" d="M 602 0 L 475 0 L 475 84 C 454 53 423 29 382 12 C 341 -5 298 -14 254 -14 C 192 -14 144 0 111 29 C 77 57 61 100 61 158 L 61 1128 L 188 1128 L 188 190 C 188 157 196 132 212 115 C 228 98 263 90 315 90 C 353 90 389 106 423 138 C 456 170 473 211 473 262 L 473 1128 L 602 1128 L 602 0 Z M 494 1420 L 340 1203 L 262 1203 L 346 1420 L 494 1420 Z" unicode="ú" />
<glyph horiz-adv-x="664" d="M 602 0 L 475 0 L 475 84 C 454 53 423 29 382 12 C 341 -5 298 -14 254 -14 C 192 -14 144 0 111 29 C 77 57 61 100 61 158 L 61 1128 L 188 1128 L 188 190 C 188 157 196 132 212 115 C 228 98 263 90 315 90 C 353 90 389 106 423 138 C 456 170 473 211 473 262 L 473 1128 L 602 1128 L 602 0 Z M 546 1203 L 462 1203 L 339 1305 L 218 1203 L 134 1203 L 281 1420 L 400 1420 L 546 1203 Z" unicode="û" />
<glyph horiz-adv-x="664" d="M 602 0 L 475 0 L 475 84 C 454 53 423 29 382 12 C 341 -5 298 -14 254 -14 C 192 -14 144 0 111 29 C 77 57 61 100 61 158 L 61 1128 L 188 1128 L 188 190 C 188 157 196 132 212 115 C 228 98 263 90 315 90 C 353 90 389 106 423 138 C 456 170 473 211 473 262 L 473 1128 L 602 1128 L 602 0 Z M 252 1203 L 51 1203 L 51 1324 L 252 1324 L 252 1203 Z M 610 1203 L 410 1203 L 410 1324 L 610 1324 L 610 1203 Z" unicode="ü" />
<glyph horiz-adv-x="639" d="M 612 1128 C 607 1098 592 1015 568 878 C 544 741 491 449 410 2 C 389 -110 361 -198 326 -263 C 290 -327 229 -360 143 -360 C 95 -360 47 -348 0 -326 C -46 -304 -72 -261 -76 -197 C -76 -182 -77 -168 -78 -154 C -78 -140 -78 -125 -78 -109 L 39 -92 C 38 -102 37 -114 35 -127 C 33 -139 33 -152 33 -166 C 33 -189 42 -210 61 -229 C 79 -248 104 -258 135 -258 C 177 -258 208 -241 228 -207 C 248 -173 263 -117 274 -41 L -2 1128 L 131 1128 L 334 217 L 475 1128 L 612 1128 Z M 478 1422 L 324 1205 L 246 1205 L 330 1422 L 478 1422 Z" unicode="ý" />
<glyph horiz-adv-x="682" d="M 623 555 C 623 313 601 157 559 87 C 517 17 451 -18 362 -18 C 324 -18 289 -9 255 9 C 221 27 198 49 186 76 L 186 -358 L 61 -358 L 61 1573 L 186 1573 L 186 1036 C 214 1066 242 1091 269 1111 C 295 1131 336 1141 391 1141 C 462 1141 518 1102 560 1025 C 602 947 623 791 623 555 Z M 492 557 C 492 755 477 886 448 948 C 418 1010 384 1042 344 1042 C 301 1042 263 1013 231 956 C 198 899 182 765 182 555 C 182 369 197 244 228 178 C 259 112 296 80 338 80 C 386 80 424 107 451 162 C 478 216 492 348 492 557 Z" unicode="þ" />
<glyph horiz-adv-x="639" d="M 612 1128 C 607 1098 592 1015 568 878 C 544 741 491 449 410 2 C 389 -110 361 -198 326 -263 C 290 -327 229 -360 143 -360 C 95 -360 47 -348 0 -326 C -46 -304 -72 -261 -76 -197 C -76 -182 -77 -168 -78 -154 C -78 -140 -78 -125 -78 -109 L 39 -92 C 38 -102 37 -114 35 -127 C 33 -139 33 -152 33 -166 C 33 -189 42 -210 61 -229 C 79 -248 104 -258 135 -258 C 177 -258 208 -241 228 -207 C 248 -173 263 -117 274 -41 L -2 1128 L 131 1128 L 334 217 L 475 1128 L 612 1128 Z M 234 1203 L 33 1203 L 33 1324 L 234 1324 L 234 1203 Z M 592 1203 L 392 1203 L 392 1324 L 592 1324 L 592 1203 Z" unicode="ÿ" />
<glyph horiz-adv-x="250" d="M 188 0 L 61 0 L 61 1128 L 188 1128 L 188 0 Z" unicode="ı" />
<glyph horiz-adv-x="627" d="M 623 0 L 98 0 L 98 586 L 8 510 L -63 598 L 98 735 L 98 1573 L 242 1573 L 242 856 L 383 977 L 455 889 L 242 707 L 242 123 L 623 123 L 623 0 Z" unicode="Ł" />
<glyph horiz-adv-x="406" d="M 432 868 L 260 721 L 260 0 L 133 0 L 133 612 L 72 561 L 0 649 L 133 762 L 133 1573 L 260 1573 L 260 870 L 360 956 L 432 868 Z" unicode="ł" />
<glyph horiz-adv-x="1087" d="M 1075 0 L 524 0 C 506 -8 487 -14 466 -18 C 445 -22 419 -25 389 -25 C 251 -25 162 30 121 142 C 79 254 59 464 59 774 C 59 1084 79 1298 121 1417 C 162 1535 251 1595 389 1595 C 419 1595 445 1593 468 1590 C 491 1587 511 1581 528 1573 L 1032 1573 L 1032 1452 L 672 1452 L 672 862 L 995 862 L 995 741 L 672 741 L 672 121 L 1075 121 L 1075 0 Z M 528 180 L 528 1376 C 516 1416 497 1443 473 1458 C 449 1473 419 1481 385 1481 C 311 1481 263 1432 241 1336 C 219 1239 209 1053 209 778 C 209 500 220 315 242 225 C 264 135 313 90 389 90 C 419 90 446 96 470 109 C 494 122 513 146 528 180 Z" unicode="Œ" />
<glyph horiz-adv-x="1047" d="M 995 258 C 995 166 975 97 936 51 C 897 5 834 -18 748 -18 C 698 -18 656 -12 621 -2 C 585 8 556 29 532 61 C 508 30 480 9 448 -1 C 415 -12 378 -18 336 -18 C 238 -18 167 18 121 92 C 75 165 53 321 53 561 C 53 800 75 956 121 1030 C 167 1104 238 1141 336 1141 C 380 1141 420 1134 454 1120 C 488 1106 517 1082 541 1049 C 570 1081 598 1105 626 1119 C 654 1133 690 1141 735 1141 C 832 1141 899 1105 937 1033 C 974 961 993 847 993 690 C 993 660 991 631 989 601 C 987 571 985 551 985 541 L 600 541 C 600 353 606 229 620 167 C 634 105 676 74 748 74 C 798 74 833 88 851 118 C 869 148 879 212 879 311 C 879 324 877 339 875 356 C 872 373 870 388 870 401 L 985 399 C 987 387 990 366 992 337 C 994 307 995 281 995 258 Z M 870 782 C 870 886 859 957 837 994 C 815 1030 781 1049 735 1049 C 693 1049 659 1024 635 975 C 610 925 598 828 598 684 C 598 673 598 663 598 655 C 598 647 599 637 600 627 L 864 627 C 866 651 868 676 869 701 C 869 726 870 753 870 782 Z M 469 563 C 469 775 459 909 440 965 C 420 1021 386 1049 336 1049 C 282 1049 244 1017 220 955 C 196 893 184 761 184 559 C 184 359 196 229 221 167 C 245 105 284 74 336 74 C 396 74 433 103 447 162 C 461 220 469 354 469 563 Z" unicode="œ" />
<glyph horiz-adv-x="754" d="M 721 410 C 721 270 694 162 640 87 C 586 12 500 -25 381 -25 C 283 -25 206 0 148 50 C 90 100 61 196 61 336 C 61 365 63 402 69 446 C 75 490 81 525 88 553 L 219 565 C 214 534 210 496 206 450 C 202 404 201 363 201 326 C 201 228 218 164 252 135 C 286 106 331 92 385 92 C 423 92 465 107 510 138 C 555 169 578 241 578 354 C 578 458 555 542 511 606 C 467 669 399 729 307 786 C 217 841 150 899 105 961 C 59 1022 37 1101 37 1198 C 37 1329 65 1428 121 1495 C 177 1561 254 1595 354 1595 C 462 1595 540 1565 590 1506 C 639 1447 664 1369 664 1272 C 664 1253 662 1228 658 1197 C 654 1165 649 1139 645 1118 L 518 1102 C 522 1122 524 1149 526 1181 C 527 1213 528 1239 528 1260 C 528 1341 509 1399 472 1434 C 435 1469 396 1487 354 1487 C 313 1487 274 1468 236 1431 C 198 1394 180 1336 180 1257 C 180 1155 201 1084 245 1043 C 289 1002 349 957 426 907 C 530 839 605 771 651 703 C 697 634 721 536 721 410 Z M 572 1855 L 424 1638 L 309 1638 L 160 1855 L 244 1855 L 365 1752 L 488 1855 L 572 1855 Z" unicode="Š" />
<glyph horiz-adv-x="637" d="M 596 309 C 596 201 571 119 521 64 C 471 9 399 -18 303 -18 C 221 -18 159 2 116 43 C 72 84 51 145 51 227 C 51 246 52 271 56 301 C 59 331 62 358 66 381 L 182 397 C 177 370 172 345 168 321 C 164 297 162 275 162 254 C 162 196 173 153 195 125 C 217 97 253 84 301 84 C 356 84 397 97 424 125 C 451 152 465 198 465 264 C 465 324 445 375 407 418 C 368 460 309 508 231 561 C 173 599 127 638 94 676 C 61 714 45 771 45 846 C 45 948 70 1022 121 1070 C 172 1117 235 1141 309 1141 C 381 1141 440 1121 484 1082 C 528 1043 551 981 551 897 C 551 879 549 858 546 834 C 543 810 541 792 539 782 L 424 778 C 428 796 431 815 434 833 C 436 851 438 870 438 889 C 438 931 428 967 410 997 C 391 1027 356 1042 305 1042 C 275 1042 245 1030 214 1006 C 183 982 168 945 168 897 C 168 843 180 801 204 773 C 228 745 278 704 356 651 C 445 589 507 536 543 492 C 578 447 596 386 596 309 Z M 519 1422 L 371 1205 L 256 1205 L 107 1422 L 191 1422 L 312 1319 L 435 1422 L 519 1422 Z" unicode="š" />
<glyph horiz-adv-x="752" d="M 748 1573 L 446 618 L 446 0 L 303 0 L 303 616 L -8 1573 L 137 1573 L 381 823 L 610 1573 L 748 1573 Z M 302 1638 L 101 1638 L 101 1759 L 302 1759 L 302 1638 Z M 660 1638 L 460 1638 L 460 1759 L 660 1759 L 660 1638 Z" unicode="Ÿ" />
<glyph horiz-adv-x="684" d="M 657 1438 L 162 129 L 649 129 L 649 0 L 18 0 L 18 131 L 512 1446 L 70 1446 L 70 1573 L 657 1573 L 657 1438 Z M 572 1855 L 424 1638 L 309 1638 L 160 1855 L 244 1855 L 365 1752 L 488 1855 L 572 1855 Z" unicode="Ž" />
<glyph horiz-adv-x="506" d="M 487 1024 L 145 109 L 485 109 L 485 0 L 8 0 L 8 88 L 350 1026 L 70 1026 L 70 1128 L 487 1128 L 487 1024 Z M 496 1420 L 348 1203 L 233 1203 L 84 1420 L 168 1420 L 289 1317 L 412 1420 L 496 1420 Z" unicode="ž" />
<glyph horiz-adv-x="684" d="M 637 1364 C 637 1338 635 1315 633 1293 C 630 1271 627 1249 625 1227 L 524 1225 C 526 1249 528 1273 531 1295 C 533 1317 535 1334 535 1348 C 535 1400 527 1434 511 1452 C 495 1470 475 1479 453 1479 C 437 1479 424 1471 413 1457 C 402 1443 397 1423 397 1399 L 397 1128 L 518 1128 L 518 1034 L 397 1034 L 397 152 C 397 83 382 32 354 -2 C 325 -36 284 -53 231 -53 C 177 -53 132 -36 97 -4 C 62 28 45 81 45 154 C 45 174 46 194 48 212 C 50 230 52 250 55 272 L 156 274 C 153 249 151 229 149 213 C 147 197 147 183 147 170 C 147 132 151 103 161 84 C 171 64 190 55 219 55 C 239 55 253 61 261 73 C 268 85 272 106 272 135 L 272 1034 L 168 1034 L 168 1128 L 272 1128 L 272 1384 C 272 1453 288 1504 321 1538 C 354 1572 397 1589 451 1589 C 509 1589 554 1570 587 1532 C 620 1494 637 1438 637 1364 Z" unicode="ƒ" />
<glyph horiz-adv-x="360" d="M 252 1116 L 109 1116 L 109 1395 C 109 1435 116 1473 130 1507 C 144 1541 163 1570 188 1595 L 233 1526 C 218 1500 208 1479 204 1463 C 199 1446 197 1420 197 1386 L 252 1386 L 252 1116 Z" unicode="ʻ" />
<glyph horiz-adv-x="838" d="M 625 1356 L 541 1356 L 418 1458 L 297 1356 L 213 1356 L 360 1573 L 479 1573 L 625 1356 Z" unicode="ˆ" />
<glyph horiz-adv-x="838" d="M 625 1573 L 477 1356 L 362 1356 L 213 1573 L 297 1573 L 418 1470 L 541 1573 L 625 1573 Z" unicode="ˇ" />
<glyph horiz-adv-x="838" d="M 649 1452 L 193 1452 L 193 1573 L 649 1573 L 649 1452 Z" unicode="ˉ" />
<glyph horiz-adv-x="838" d="M 655 1573 C 655 1535 638 1494 605 1451 C 572 1407 510 1386 420 1386 C 342 1386 284 1408 244 1452 C 204 1496 184 1536 184 1573 L 317 1573 C 317 1548 322 1526 333 1508 C 344 1490 373 1481 420 1481 C 466 1481 495 1490 506 1508 C 516 1526 522 1548 522 1573 L 655 1573 Z" unicode="˘" />
<glyph horiz-adv-x="838" d="M 524 1438 L 307 1438 L 307 1573 L 524 1573 L 524 1438 Z" unicode="˙" />
<glyph horiz-adv-x="838" d="M 575 1415 C 575 1371 559 1333 529 1303 C 499 1272 462 1257 418 1257 C 374 1257 336 1272 306 1303 C 275 1333 260 1371 260 1415 C 260 1459 275 1496 306 1527 C 336 1557 374 1573 418 1573 C 462 1573 499 1557 529 1527 C 559 1496 575 1459 575 1415 Z M 492 1415 C 492 1436 485 1454 471 1468 C 457 1482 439 1489 418 1489 C 396 1489 379 1482 365 1468 C 351 1454 344 1436 344 1415 C 344 1393 351 1376 365 1362 C 379 1348 396 1341 418 1341 C 439 1341 457 1348 471 1362 C 485 1376 492 1393 492 1415 Z" unicode="˚" />
<glyph horiz-adv-x="838" d="M 518 0 C 467 -32 426 -63 395 -91 C 363 -119 348 -155 348 -197 C 348 -215 353 -228 363 -237 C 373 -245 388 -250 408 -250 C 424 -250 438 -243 450 -230 C 462 -216 457 -201 436 -184 L 514 -160 C 550 -188 557 -223 535 -264 C 513 -305 474 -326 418 -326 C 358 -326 316 -314 291 -292 C 266 -269 254 -235 254 -190 C 254 -159 268 -124 298 -84 C 328 -44 364 -16 406 0 L 518 0 Z" unicode="˛" />
<glyph horiz-adv-x="838" d="M 627 1501 C 627 1480 617 1459 598 1439 C 579 1419 548 1409 504 1409 C 486 1409 470 1411 454 1416 C 438 1421 426 1427 416 1434 C 412 1436 407 1438 402 1442 C 396 1446 391 1450 385 1454 C 377 1458 369 1463 361 1468 C 353 1472 344 1475 332 1475 C 316 1475 306 1471 301 1464 C 295 1457 293 1450 293 1442 C 293 1440 293 1437 294 1435 C 294 1432 295 1429 295 1427 L 236 1427 C 236 1427 233 1432 228 1442 C 223 1452 221 1466 221 1483 C 221 1503 228 1523 243 1543 C 257 1563 286 1573 328 1573 C 353 1573 373 1571 389 1567 C 404 1563 420 1556 438 1546 C 444 1542 450 1538 455 1534 C 460 1530 464 1528 467 1526 C 477 1518 485 1514 492 1512 C 499 1510 508 1509 518 1509 C 532 1509 542 1513 546 1521 C 550 1529 553 1538 553 1546 L 553 1561 L 612 1561 C 612 1561 614 1555 619 1543 C 624 1531 627 1517 627 1501 Z" unicode="˜" />
<glyph horiz-adv-x="838" d="M 412 1573 L 252 1356 L 172 1356 L 264 1573 L 412 1573 Z M 668 1573 L 508 1356 L 428 1356 L 520 1573 L 668 1573 Z" unicode="˝" />
<glyph horiz-adv-x="551" d="M 504 645 L 47 645 L 47 764 L 504 764 L 504 645 Z" unicode="‐" />
<glyph horiz-adv-x="551" d="M 504 645 L 47 645 L 47 764 L 504 764 L 504 645 Z" unicode="‑" />
<glyph horiz-adv-x="1339" d="M 1288 645 L 51 645 L 51 764 L 1288 764 L 1288 645 Z" unicode="–" />
<glyph horiz-adv-x="2005" d="M 1954 645 L 51 645 L 51 764 L 1954 764 L 1954 645 Z" unicode="—" />
<glyph horiz-adv-x="360" d="M 252 1116 L 109 1116 L 109 1395 C 109 1435 116 1473 130 1507 C 144 1541 163 1570 188 1595 L 233 1526 C 218 1500 208 1479 204 1463 C 199 1446 197 1420 197 1386 L 252 1386 L 252 1116 Z" unicode="‘" />
<glyph horiz-adv-x="360" d="M 252 1294 C 252 1253 244 1216 230 1182 C 216 1148 196 1118 172 1094 L 127 1163 C 142 1188 152 1209 157 1226 C 161 1242 164 1268 164 1303 L 109 1303 L 109 1573 L 252 1573 L 252 1294 Z" unicode="’" />
<glyph horiz-adv-x="360" d="M 252 -8 C 252 -48 244 -86 230 -120 C 216 -154 196 -184 172 -209 L 127 -139 C 142 -113 152 -92 157 -76 C 161 -60 164 -34 164 0 L 109 0 L 109 270 L 252 270 L 252 -8 Z" unicode="‚" />
<glyph horiz-adv-x="627" d="M 252 1116 L 109 1116 L 109 1395 C 109 1435 116 1473 130 1507 C 144 1541 163 1570 188 1595 L 233 1526 C 218 1500 208 1479 204 1463 C 199 1446 197 1420 197 1386 L 252 1386 L 252 1116 Z M 518 1116 L 375 1116 L 375 1395 C 375 1435 382 1473 396 1507 C 410 1541 430 1570 455 1595 L 500 1526 C 484 1500 474 1479 470 1463 C 465 1446 463 1420 463 1386 L 518 1386 L 518 1116 Z" unicode="“" />
<glyph horiz-adv-x="627" d="M 252 1294 C 252 1253 244 1216 230 1182 C 216 1148 196 1118 172 1094 L 127 1163 C 142 1188 152 1209 157 1226 C 161 1242 164 1268 164 1303 L 109 1303 L 109 1573 L 252 1573 L 252 1294 Z M 518 1294 C 518 1253 510 1216 496 1182 C 482 1148 462 1118 438 1094 L 393 1163 C 408 1188 418 1209 423 1226 C 427 1242 430 1268 430 1303 L 375 1303 L 375 1573 L 518 1573 L 518 1294 Z" unicode="”" />
<glyph horiz-adv-x="627" d="M 252 -8 C 252 -48 244 -86 230 -120 C 216 -154 196 -184 172 -209 L 127 -139 C 142 -113 152 -92 157 -76 C 161 -60 164 -34 164 0 L 109 0 L 109 270 L 252 270 L 252 -8 Z M 518 -8 C 518 -48 510 -86 496 -120 C 482 -154 462 -184 438 -209 L 393 -139 C 408 -113 418 -92 423 -76 C 427 -60 430 -34 430 0 L 375 0 L 375 270 L 518 270 L 518 -8 Z" unicode="„" />
<glyph horiz-adv-x="727" d="M 633 1163 L 410 1163 L 410 -88 L 276 -88 L 276 1163 L 53 1163 L 53 1286 L 276 1286 L 276 1573 L 410 1573 L 410 1286 L 633 1286 L 633 1163 Z" unicode="†" />
<glyph horiz-adv-x="686" d="M 633 395 L 410 395 L 410 -88 L 276 -88 L 276 395 L 53 395 L 53 518 L 276 518 L 276 1163 L 53 1163 L 53 1286 L 276 1286 L 276 1573 L 410 1573 L 410 1286 L 633 1286 L 633 1163 L 410 1163 L 410 518 L 633 518 L 633 395 Z" unicode="‡" />
<glyph horiz-adv-x="573" d="M 532 786 C 532 718 508 661 460 613 C 412 565 354 541 287 541 C 219 541 161 565 113 613 C 65 661 41 718 41 786 C 41 853 65 911 113 959 C 161 1007 219 1032 287 1032 C 354 1032 412 1007 460 959 C 508 911 532 853 532 786 Z" unicode="•" />
<glyph horiz-adv-x="852" d="M 248 0 L 109 0 L 109 270 L 248 270 L 248 0 Z M 496 0 L 356 0 L 356 270 L 496 270 L 496 0 Z M 743 0 L 604 0 L 604 270 L 743 270 L 743 0 Z" unicode="…" />
<glyph horiz-adv-x="1862" d="M 539 1133 C 539 979 518 872 477 812 C 435 751 371 721 285 721 C 199 721 136 751 95 812 C 53 872 33 979 33 1133 C 33 1306 53 1425 95 1489 C 136 1553 199 1585 285 1585 C 371 1585 435 1553 477 1489 C 518 1425 539 1306 539 1133 Z M 416 1151 C 416 1289 403 1378 379 1418 C 354 1457 323 1477 285 1477 C 246 1477 215 1457 191 1418 C 167 1378 156 1289 156 1151 C 156 1015 167 927 191 888 C 215 848 246 829 285 829 C 323 829 354 848 379 888 C 403 927 416 1015 416 1151 Z M 1231 393 C 1231 240 1210 133 1169 73 C 1127 12 1063 -18 977 -18 C 891 -18 828 12 787 73 C 745 133 725 240 725 393 C 725 566 745 685 787 749 C 828 813 891 846 977 846 C 1063 846 1127 813 1169 749 C 1210 685 1231 566 1231 393 Z M 1108 412 C 1108 550 1095 638 1071 678 C 1047 717 1015 737 977 737 C 938 737 907 717 883 678 C 859 638 848 550 848 412 C 848 275 859 187 883 148 C 907 109 938 90 977 90 C 1015 90 1047 109 1071 148 C 1095 187 1108 275 1108 412 Z M 1829 393 C 1829 240 1808 133 1767 73 C 1725 12 1661 -18 1575 -18 C 1489 -18 1426 12 1385 73 C 1343 133 1323 240 1323 393 C 1323 566 1343 685 1385 749 C 1426 813 1489 846 1575 846 C 1661 846 1725 813 1767 749 C 1808 685 1829 566 1829 393 Z M 1706 412 C 1706 550 1693 638 1669 678 C 1645 717 1613 737 1575 737 C 1536 737 1505 717 1481 678 C 1457 638 1446 550 1446 412 C 1446 275 1457 187 1481 148 C 1505 109 1536 90 1575 90 C 1613 90 1645 109 1669 148 C 1693 187 1706 275 1706 412 Z M 1182 1556 L 176 0 L 74 0 L 1079 1556 L 1182 1556 Z" unicode="‰" />
<glyph horiz-adv-x="373" d="M 307 358 L 55 608 L 55 801 L 307 1049 L 307 868 L 125 705 L 307 537 L 307 358 Z" unicode="‹" />
<glyph horiz-adv-x="373" d="M 317 608 L 66 358 L 66 537 L 248 705 L 66 868 L 66 1049 L 317 801 L 317 608 Z" unicode="›" />
<glyph horiz-adv-x="571" d="M 922 1595 L -289 -57 L -379 -57 L 831 1595 L 922 1595 Z" unicode="⁄" />
<glyph horiz-adv-x="780" d="M 707 662 C 733 462 728 299 692 173 C 655 47 570 -16 438 -16 C 313 -16 229 35 186 139 C 142 242 119 424 115 684 L 27 684 L 27 748 L 115 748 L 115 842 L 27 842 L 27 905 L 115 905 C 119 1157 144 1334 190 1436 C 235 1538 318 1589 438 1589 C 584 1589 668 1533 690 1421 C 711 1309 713 1166 696 991 L 565 987 C 582 1156 583 1281 567 1363 C 551 1444 506 1485 432 1485 C 377 1485 336 1445 308 1365 C 280 1285 264 1131 260 905 L 520 905 L 520 842 L 260 842 L 260 748 L 520 748 L 520 684 L 260 684 C 262 446 278 287 306 207 C 334 127 378 88 436 88 C 497 88 541 134 569 226 C 596 318 597 464 573 662 L 707 662 Z" unicode="€" />
<glyph horiz-adv-x="1137" d="M 1028 1112 C 1028 986 982 879 892 789 C 802 699 694 655 569 655 C 442 655 334 699 244 789 C 154 879 109 986 109 1112 C 109 1238 154 1347 244 1437 C 334 1527 442 1573 569 1573 C 694 1573 802 1527 892 1437 C 982 1347 1028 1238 1028 1112 Z M 977 1112 C 977 1224 937 1321 857 1403 C 777 1485 681 1526 569 1526 C 456 1526 360 1485 280 1403 C 200 1321 160 1224 160 1112 C 160 1000 200 903 280 823 C 360 742 456 702 569 702 C 681 702 777 742 857 823 C 937 903 977 1000 977 1112 Z M 821 1264 C 821 1187 801 1134 761 1106 C 721 1077 669 1063 606 1063 L 504 1063 L 504 795 L 399 795 L 399 1452 L 621 1452 C 686 1452 736 1438 770 1411 C 804 1384 821 1335 821 1264 Z M 713 1257 C 713 1297 705 1326 691 1346 C 676 1366 648 1376 608 1376 L 504 1376 L 504 1141 L 610 1141 C 644 1141 669 1149 687 1165 C 704 1181 713 1212 713 1257 Z" unicode="℗" />
<glyph horiz-adv-x="854" d="M 788 1100 L 707 1100 L 707 1456 L 610 1100 L 532 1100 L 438 1456 L 438 1100 L 356 1100 L 356 1573 L 496 1573 L 571 1241 L 649 1573 L 788 1573 L 788 1100 Z M 332 1495 L 217 1495 L 217 1100 L 135 1100 L 135 1495 L 18 1495 L 18 1573 L 332 1573 L 332 1495 Z" unicode="™" />
<glyph horiz-adv-x="872" d="M 109 645 L 109 764 L 764 764 L 764 645 L 109 645 Z" unicode="−" />
<glyph horiz-adv-x="571" d="M 922 1595 L -289 -57 L -379 -57 L 831 1595 L 922 1595 Z" unicode="∕" />
<glyph horiz-adv-x="356" d="M 315 805 C 315 766 301 733 275 707 C 249 681 216 668 178 668 C 140 668 107 681 81 707 C 54 733 41 766 41 805 C 41 843 54 876 81 902 C 107 928 140 942 178 942 C 216 942 249 928 275 902 C 301 876 315 843 315 805 Z" unicode="∙" />
<glyph horiz-adv-x="1249" d="M 1348 1698 C 1273 1612 1192 1486 1105 1318 C 1018 1150 949 1002 897 874 C 827 698 768 535 719 384 C 669 233 631 88 604 -51 L 436 -127 L 45 573 L 213 635 L 500 43 C 534 189 574 334 622 479 C 670 623 723 767 782 911 C 830 1027 883 1144 941 1260 C 999 1376 1067 1492 1145 1608 L 1348 1698 Z" unicode="√" />
<glyph horiz-adv-x="805" d="M 684 795 C 684 617 656 465 600 339 C 544 213 477 150 399 150 C 321 150 254 213 200 339 C 146 465 119 617 119 795 C 119 972 146 1124 200 1252 C 254 1380 321 1444 399 1444 C 477 1444 544 1380 600 1252 C 656 1124 684 972 684 795 Z M 649 729 L 479 995 L 401 1327 L 332 1016 L 211 1065 L 313 750 L 195 518 L 399 487 L 477 238 L 508 682 L 649 729 Z" unicode="" />
<glyph horiz-adv-x="821" d="M 944 1386 C 944 1369 943 1353 941 1338 C 939 1322 938 1307 936 1292 L 827 1282 C 830 1297 832 1313 834 1330 C 835 1347 836 1361 836 1372 C 836 1410 827 1439 809 1460 C 791 1480 767 1491 735 1491 C 715 1491 694 1483 671 1468 C 648 1452 637 1422 637 1378 L 637 1128 L 793 1128 L 793 1034 L 637 1034 L 637 0 L 510 0 L 510 1034 L 242 1034 L 242 0 L 115 0 L 115 1034 L 6 1034 L 6 1128 L 115 1128 L 115 1356 C 115 1433 139 1491 188 1530 C 236 1569 299 1589 377 1589 C 413 1589 446 1583 476 1573 C 506 1562 533 1546 559 1526 C 581 1547 607 1563 635 1573 C 663 1583 695 1589 731 1589 C 799 1589 851 1572 888 1538 C 925 1504 944 1453 944 1386 Z M 514 1413 C 503 1437 484 1456 458 1470 C 432 1484 406 1491 381 1491 C 332 1491 297 1479 275 1457 C 253 1434 242 1400 242 1356 L 242 1128 L 510 1128 L 510 1356 C 510 1366 510 1375 511 1385 C 512 1395 513 1404 514 1413 Z" unicode="ﬀ" />
<glyph horiz-adv-x="694" d="M 637 0 L 510 0 L 510 1034 L 242 1034 L 242 0 L 115 0 L 115 1034 L 6 1034 L 6 1128 L 115 1128 L 115 1362 C 115 1444 134 1503 173 1537 C 212 1571 266 1589 336 1589 C 404 1589 456 1572 493 1538 C 530 1504 549 1453 549 1386 C 549 1369 548 1353 546 1338 C 544 1322 543 1307 541 1292 L 432 1282 C 434 1296 435 1312 437 1329 C 439 1345 440 1360 440 1372 C 440 1410 431 1439 413 1460 C 395 1480 371 1491 340 1491 C 320 1491 299 1483 276 1468 C 253 1452 242 1422 242 1378 L 242 1128 L 637 1128 L 637 0 Z" unicode="ﬁ" />
<glyph horiz-adv-x="700" d="M 639 0 L 512 0 L 512 1409 C 494 1433 473 1453 447 1468 C 421 1483 386 1491 344 1491 C 322 1491 300 1483 277 1468 C 253 1453 242 1428 242 1393 L 242 1128 L 395 1128 L 395 1034 L 242 1034 L 242 0 L 115 0 L 115 1034 L 6 1034 L 6 1128 L 115 1128 L 115 1368 C 115 1450 135 1508 176 1540 C 216 1572 270 1589 338 1589 C 374 1589 407 1585 435 1578 C 463 1571 488 1565 510 1561 L 639 1573 L 639 0 Z" unicode="ﬂ" />
<glyph horiz-adv-x="1094" d="M 1032 0 L 905 0 L 905 1034 L 637 1034 L 637 0 L 510 0 L 510 1034 L 242 1034 L 242 0 L 115 0 L 115 1034 L 6 1034 L 6 1128 L 115 1128 L 115 1356 C 115 1433 139 1491 188 1530 C 236 1569 299 1589 377 1589 C 413 1589 446 1583 476 1573 C 506 1562 533 1546 559 1526 C 581 1547 607 1563 635 1573 C 663 1583 695 1589 731 1589 C 799 1589 851 1572 888 1538 C 925 1504 944 1453 944 1386 C 944 1369 943 1353 941 1338 C 939 1322 938 1307 936 1292 L 827 1282 C 829 1296 831 1312 833 1329 C 835 1345 836 1360 836 1372 C 836 1410 827 1439 809 1460 C 791 1480 767 1491 735 1491 C 715 1491 694 1483 671 1468 C 648 1452 637 1422 637 1378 L 637 1128 L 1032 1128 L 1032 0 Z M 514 1413 C 503 1437 484 1456 458 1470 C 432 1484 406 1491 381 1491 C 332 1491 297 1479 275 1457 C 253 1434 242 1400 242 1356 L 242 1128 L 510 1128 L 510 1356 C 510 1366 510 1375 511 1385 C 512 1395 513 1404 514 1413 Z" unicode="ﬃ" />
<glyph horiz-adv-x="1094" d="M 1032 0 L 905 0 L 905 1409 C 887 1433 866 1453 841 1468 C 815 1483 781 1491 739 1491 C 717 1491 695 1483 672 1468 C 648 1453 637 1428 637 1393 L 637 1128 L 793 1128 L 793 1034 L 637 1034 L 637 0 L 510 0 L 510 1034 L 242 1034 L 242 0 L 115 0 L 115 1034 L 6 1034 L 6 1128 L 115 1128 L 115 1356 C 115 1433 139 1491 188 1530 C 236 1569 299 1589 377 1589 C 413 1589 446 1583 476 1573 C 506 1562 533 1546 559 1526 C 579 1548 605 1564 635 1574 C 665 1584 697 1589 733 1589 C 769 1589 801 1585 829 1578 C 857 1571 881 1565 903 1561 L 1032 1573 L 1032 0 Z M 514 1413 C 503 1437 484 1456 458 1470 C 432 1484 406 1491 381 1491 C 332 1491 297 1479 275 1457 C 253 1434 242 1400 242 1356 L 242 1128 L 510 1128 L 510 1356 C 510 1366 510 1375 511 1385 C 512 1395 513 1404 514 1413 Z" unicode="ﬄ" />
</font>
</defs>
</svg>
