<?xml version="1.0" encoding="utf-8" ?><svg version="1.1" xmlns = 'http://www.w3.org/2000/svg'><defs><font id='web' horiz-adv-x="1000">
<font-face font-family="web" descent="-432" cap-height="1518" units-per-em="2048" bbox="-484,-677,2687,2393" x-height="1076" ascent="1516" />
<missing-glyph horiz-adv-x="1024" d="M 128 0 L 128 1500 L 896 1500 L 896 0 L 128 0 Z M 256 128 L 768 128 L 768 1372 L 256 1372 L 256 128 Z" /><glyph horiz-adv-x="641" d="" unicode=" " />
<glyph horiz-adv-x="641" d="M 256 465 L 215 1515 L 413 1515 L 372 465 L 256 465 Z M 215 0 L 215 227 L 413 227 L 413 0 L 215 0 Z" unicode="!" />
<glyph horiz-adv-x="764" d="M 123 1308 L 123 1546 L 272 1546 L 272 1308 L 241 1036 L 153 1036 L 123 1308 Z M 489 1308 L 489 1546 L 641 1546 L 641 1308 L 610 1036 L 522 1036 L 489 1308 Z" unicode="&#x22;" />
<glyph horiz-adv-x="1366" d="M 88 895 L 88 1018 L 413 1018 L 499 1421 L 622 1421 L 536 1018 L 956 1018 L 1042 1421 L 1165 1421 L 1079 1018 L 1276 1018 L 1276 895 L 1054 895 L 977 524 L 1276 524 L 1276 401 L 952 401 L 868 0 L 745 0 L 831 401 L 407 401 L 325 0 L 200 0 L 286 401 L 88 401 L 88 524 L 311 524 L 389 895 L 88 895 Z M 934 895 L 510 895 L 434 526 L 856 526 L 934 895 Z" unicode="#" />
<glyph horiz-adv-x="1280" d="M 588 1515 L 588 1616 L 719 1616 L 719 1515 C 870 1503 1006 1422 1128 1274 L 1011 1190 C 916 1299 819 1358 719 1366 L 719 846 C 1019 762 1169 616 1169 409 C 1169 298 1128 201 1044 118 C 960 34 851 -12 719 -22 L 719 -272 L 588 -272 L 588 -22 C 492 -16 409 6 339 47 C 269 87 192 164 106 278 L 235 354 C 329 212 446 135 588 125 L 588 721 C 296 819 151 956 151 1132 C 151 1229 188 1315 264 1390 C 340 1465 448 1507 588 1515 Z M 588 893 L 588 1370 C 499 1364 429 1339 378 1295 C 326 1250 301 1197 301 1136 C 301 1026 396 945 588 893 Z M 719 676 L 719 131 C 813 141 887 171 939 223 C 991 275 1018 335 1018 403 C 1018 539 918 630 719 676 Z" unicode="$" />
<glyph horiz-adv-x="1921" d="M 1583 1597 L 467 -348 L 346 -348 L 1358 1403 C 1228 1350 1089 1324 940 1324 C 888 1324 837 1327 788 1335 C 823 1277 841 1213 841 1143 C 841 1011 803 890 725 780 C 647 670 553 616 444 616 C 346 616 266 650 203 719 C 140 788 108 877 108 987 C 108 1116 146 1232 223 1334 C 299 1436 394 1487 506 1487 C 558 1487 607 1476 652 1456 C 733 1431 818 1419 906 1419 C 1118 1419 1304 1478 1466 1597 L 1583 1597 Z M 514 1370 C 429 1370 360 1330 307 1251 C 254 1172 227 1085 227 989 C 227 911 248 849 289 802 C 329 754 380 731 440 731 C 516 731 583 774 640 860 C 696 946 725 1035 725 1128 C 725 1198 705 1256 667 1302 C 628 1347 577 1370 514 1370 Z M 1405 -248 C 1307 -248 1226 -213 1163 -145 C 1100 -76 1069 13 1069 123 C 1069 252 1107 367 1184 469 C 1260 571 1354 622 1466 622 C 1564 622 1645 590 1708 524 C 1770 458 1802 376 1802 278 C 1802 146 1763 26 1685 -83 C 1607 -193 1513 -248 1405 -248 Z M 1474 506 C 1390 506 1321 466 1268 387 C 1214 308 1188 221 1188 125 C 1188 47 1208 -14 1249 -62 C 1290 -109 1341 -133 1401 -133 C 1477 -133 1544 -90 1600 -4 C 1656 81 1685 170 1685 264 C 1685 334 1666 392 1627 438 C 1588 483 1537 506 1474 506 Z" unicode="%" />
<glyph horiz-adv-x="1485" d="M 1423 139 L 1423 -24 C 1305 -16 1184 36 1059 135 C 948 25 800 -30 614 -30 C 457 -30 331 12 235 97 C 139 182 92 286 92 409 C 92 579 213 732 456 866 C 382 984 346 1092 346 1192 C 346 1295 377 1380 439 1446 C 501 1512 582 1546 684 1546 C 779 1546 856 1518 916 1462 C 975 1406 1005 1333 1005 1243 C 1005 1174 982 1108 937 1044 C 891 980 804 905 676 819 C 752 696 874 546 1042 368 C 1122 475 1172 603 1192 753 L 1353 753 C 1322 560 1258 394 1161 256 C 1245 182 1332 143 1423 139 Z M 594 948 C 700 1016 770 1071 802 1113 C 834 1155 850 1204 850 1259 C 850 1304 834 1341 803 1371 C 772 1400 735 1415 692 1415 C 635 1415 589 1394 554 1353 C 519 1312 502 1258 502 1190 C 502 1137 532 1056 594 948 Z M 538 737 C 414 663 335 604 302 558 C 268 512 252 460 252 403 C 252 324 288 256 361 200 C 434 143 520 114 620 114 C 722 114 828 157 938 243 C 812 369 678 534 538 737 Z" unicode="&#x26;" />
<glyph horiz-adv-x="393" d="M 123 1306 L 123 1546 L 270 1546 L 270 1306 L 246 1038 L 153 1038 L 123 1306 Z" unicode="'" />
<glyph horiz-adv-x="723" d="M 692 -325 L 610 -430 C 438 -295 311 -143 228 26 C 144 195 102 369 102 547 C 102 915 271 1242 610 1526 L 692 1421 C 409 1183 268 893 268 549 C 268 197 409 -94 692 -325 Z" unicode="(" />
<glyph horiz-adv-x="723" d="M 114 -430 L 30 -323 C 316 -81 459 209 459 549 C 459 913 316 1206 30 1427 L 114 1530 C 276 1402 401 1255 489 1089 C 576 923 620 749 620 569 C 620 181 451 -152 114 -430 Z" unicode=")" />
<glyph horiz-adv-x="960" d="M 51 1042 L 51 1188 L 438 1136 L 200 1450 L 332 1523 L 477 1163 L 631 1523 L 758 1450 L 522 1136 L 909 1188 L 909 1042 L 522 1089 L 758 778 L 631 704 L 477 1065 L 332 704 L 200 778 L 438 1089 L 51 1042 Z" unicode="*" />
<glyph horiz-adv-x="1366" d="M 137 692 L 137 823 L 614 823 L 614 1302 L 745 1302 L 745 823 L 1227 823 L 1227 692 L 745 692 L 745 217 L 614 217 L 614 692 L 137 692 Z" unicode="+" />
<glyph horiz-adv-x="446" d="M 135 0 L 135 229 L 332 229 L 332 0 L 180 -301 L 98 -301 L 231 0 L 135 0 Z" unicode="," />
<glyph horiz-adv-x="715" d="M 102 487 L 102 635 L 612 635 L 612 487 L 102 487 Z" unicode="-" />
<glyph horiz-adv-x="465" d="M 133 0 L 133 229 L 332 229 L 332 0 L 133 0 Z" unicode="." />
<glyph horiz-adv-x="927" d="M 30 0 L 760 1515 L 897 1515 L 168 0 L 30 0 Z" unicode="/" />
<glyph horiz-adv-x="1280" d="M 96 751 C 96 996 143 1190 239 1332 C 334 1474 465 1546 633 1546 C 803 1546 937 1475 1037 1334 C 1136 1193 1186 1001 1186 758 C 1186 516 1137 324 1039 183 C 941 42 808 -28 639 -28 C 470 -28 337 41 241 180 C 144 319 96 509 96 751 Z M 1022 760 C 1022 958 988 1114 920 1229 C 852 1343 760 1401 645 1401 C 525 1401 431 1343 363 1228 C 294 1113 260 955 260 753 C 260 555 294 399 364 287 C 434 175 527 119 643 119 C 759 119 851 176 919 292 C 987 407 1022 563 1022 760 Z" unicode="0" />
<glyph horiz-adv-x="1280" d="M 311 1278 L 311 1409 C 427 1425 519 1461 588 1515 L 737 1515 L 737 131 L 977 131 L 977 0 L 311 0 L 311 131 L 583 131 L 583 1337 C 484 1299 393 1279 311 1278 Z" unicode="1" />
<glyph horiz-adv-x="1280" d="M 278 1083 L 141 1118 C 187 1252 259 1357 355 1433 C 451 1508 556 1546 671 1546 C 796 1546 903 1503 992 1417 C 1081 1331 1126 1224 1126 1097 C 1126 1001 1096 914 1036 836 C 976 758 861 660 690 542 C 464 386 328 250 284 133 L 1132 133 L 1132 0 L 129 0 L 129 121 C 129 166 163 236 231 330 C 299 424 424 537 608 667 C 747 765 841 843 890 899 C 939 955 964 1021 964 1097 C 964 1180 936 1251 882 1311 C 827 1371 758 1401 676 1401 C 512 1401 380 1295 278 1083 Z" unicode="2" />
<glyph horiz-adv-x="1280" d="M 381 729 L 393 880 L 493 880 C 624 880 728 904 804 954 C 880 1004 919 1069 919 1151 C 919 1220 889 1279 827 1329 C 765 1378 690 1403 604 1403 C 483 1403 364 1345 248 1231 L 127 1313 C 257 1468 420 1546 614 1546 C 750 1546 861 1507 949 1429 C 1037 1351 1081 1257 1081 1149 C 1081 989 986 874 798 805 C 1007 734 1112 609 1112 430 C 1112 306 1062 199 963 108 C 863 16 740 -28 594 -28 C 368 -28 190 72 61 274 L 182 356 C 306 198 444 119 598 119 C 693 119 775 148 843 208 C 911 267 946 336 946 415 C 946 506 900 582 808 642 C 716 702 602 733 467 733 C 442 733 413 731 381 729 Z" unicode="3" />
<glyph horiz-adv-x="1280" d="M 71 508 L 694 1515 L 936 1515 L 936 508 L 1208 508 L 1208 360 L 936 360 L 936 0 L 782 0 L 782 360 L 71 360 L 71 508 Z M 782 508 L 782 1399 L 229 508 L 782 508 Z" unicode="4" />
<glyph horiz-adv-x="1280" d="M 203 723 L 262 1515 L 1052 1515 L 1040 1372 L 385 1372 L 348 876 C 460 968 574 1014 690 1014 C 820 1014 926 965 1008 867 C 1090 769 1132 647 1132 502 C 1132 350 1083 224 986 122 C 888 20 769 -30 628 -30 C 425 -30 261 68 137 264 L 262 332 C 324 252 382 196 438 166 C 494 136 556 121 624 121 C 726 121 809 157 873 231 C 937 305 968 398 968 510 C 968 614 937 701 875 769 C 812 837 735 872 643 872 C 525 872 416 807 317 678 L 203 723 Z" unicode="5" />
<glyph horiz-adv-x="1280" d="M 1108 1448 L 1018 1335 C 927 1380 846 1403 774 1403 C 628 1403 511 1344 423 1226 C 335 1108 291 945 291 737 C 402 880 549 952 733 952 C 867 952 975 910 1059 824 C 1142 738 1183 628 1183 493 C 1183 347 1139 224 1049 123 C 959 22 842 -28 700 -28 C 532 -28 395 39 290 177 C 185 314 133 492 133 710 C 133 966 191 1170 309 1320 C 427 1470 585 1546 784 1546 C 890 1546 998 1513 1108 1448 Z M 301 551 C 322 416 367 310 437 232 C 507 154 592 116 692 116 C 792 116 874 152 940 226 C 1005 300 1038 388 1038 491 C 1038 586 1008 663 950 723 C 891 783 815 813 721 813 C 561 813 421 725 301 551 Z" unicode="6" />
<glyph horiz-adv-x="1280" d="M 168 1372 L 168 1515 L 1120 1515 L 1120 1372 L 467 0 L 311 0 L 964 1372 L 168 1372 Z" unicode="7" />
<glyph horiz-adv-x="1280" d="M 794 803 C 1071 705 1210 566 1210 385 C 1210 266 1157 167 1050 89 C 943 11 805 -28 637 -28 C 469 -28 334 9 231 87 C 127 164 76 261 76 379 C 76 575 199 717 446 803 C 241 901 139 1021 139 1165 C 139 1273 186 1364 282 1437 C 377 1509 501 1546 653 1546 C 800 1546 918 1509 1007 1436 C 1096 1363 1140 1273 1140 1165 C 1140 1083 1109 1009 1047 943 C 985 877 900 830 794 803 Z M 643 860 C 793 927 887 981 923 1021 C 959 1061 977 1105 977 1153 C 977 1224 946 1283 884 1330 C 822 1377 741 1401 641 1401 C 539 1401 457 1378 395 1333 C 333 1287 303 1230 303 1161 C 303 1107 326 1057 372 1013 C 418 969 508 918 643 860 Z M 573 751 C 467 713 385 662 327 598 C 268 533 239 463 239 389 C 239 309 277 244 353 192 C 429 140 527 114 647 114 C 763 114 858 140 932 194 C 1006 248 1044 312 1044 387 C 1044 450 1010 509 943 564 C 875 618 752 681 573 751 Z" unicode="8" />
<glyph horiz-adv-x="1280" d="M 170 71 L 262 184 C 345 138 427 116 508 116 C 637 116 748 169 841 276 C 933 382 983 550 989 778 C 863 637 713 567 540 567 C 412 567 305 611 221 701 C 136 791 94 900 94 1028 C 94 1166 141 1287 236 1391 C 330 1494 446 1546 583 1546 C 750 1546 887 1478 994 1344 C 1101 1209 1155 1028 1155 801 C 1155 551 1094 351 974 199 C 854 47 698 -28 508 -28 C 395 -28 282 5 170 71 Z M 979 977 C 956 1109 909 1213 839 1288 C 769 1363 685 1401 588 1401 C 489 1401 407 1364 341 1291 C 275 1218 243 1131 243 1030 C 243 936 272 859 331 799 C 390 738 466 708 559 708 C 725 708 865 797 979 977 Z" unicode="9" />
<glyph horiz-adv-x="641" d="M 221 852 L 221 1075 L 420 1075 L 420 852 L 221 852 Z M 221 0 L 221 229 L 420 229 L 420 0 L 221 0 Z" unicode=":" />
<glyph horiz-adv-x="641" d="M 223 850 L 223 1075 L 420 1075 L 420 850 L 223 850 Z M 223 0 L 223 231 L 420 231 L 420 6 L 266 -301 L 184 -301 L 319 0 L 223 0 Z" unicode=";" />
<glyph horiz-adv-x="1366" d="M 1224 385 L 1224 243 L 139 700 L 139 819 L 1224 1276 L 1224 1132 L 315 760 L 1224 385 Z" unicode="&#x3C;" />
<glyph horiz-adv-x="1366" d="M 139 930 L 139 1063 L 1224 1063 L 1224 930 L 139 930 Z M 139 463 L 139 594 L 1224 594 L 1224 463 L 139 463 Z" unicode="=" />
<glyph horiz-adv-x="1366" d="M 139 1132 L 139 1276 L 1224 817 L 1224 700 L 139 243 L 139 385 L 1048 758 L 139 1132 Z" unicode="&#x3E;" />
<glyph horiz-adv-x="854" d="M 215 1243 L 86 1319 C 186 1470 305 1546 444 1546 C 530 1546 604 1514 664 1450 C 724 1386 755 1309 755 1218 C 755 1106 697 984 583 852 C 515 773 474 714 459 674 C 443 634 435 565 434 467 L 303 467 C 301 483 301 512 301 555 C 301 689 345 805 434 903 C 543 1023 598 1125 598 1210 C 598 1260 580 1304 546 1343 C 512 1381 472 1401 426 1401 C 350 1401 279 1348 215 1243 Z M 284 0 L 284 229 L 483 229 L 483 0 L 284 0 Z" unicode="?" />
<glyph horiz-adv-x="2084" d="M 1241 278 C 1161 198 1096 147 1047 125 C 997 103 942 93 881 93 C 795 93 725 128 670 200 C 614 272 587 362 587 471 C 587 628 628 763 712 876 C 796 989 901 1046 1028 1046 C 1077 1046 1127 1030 1179 1000 C 1231 969 1272 926 1303 870 L 1326 1046 L 1487 1046 L 1407 520 C 1395 445 1390 390 1390 356 C 1390 264 1431 219 1513 219 C 1605 219 1681 262 1741 346 C 1801 430 1831 539 1831 673 C 1831 884 1764 1059 1630 1198 C 1496 1337 1317 1407 1094 1407 C 859 1407 662 1327 504 1168 C 346 1009 267 813 267 579 C 267 317 340 113 488 -32 C 636 -178 842 -252 1106 -252 C 1283 -252 1450 -205 1608 -111 L 1691 -246 C 1619 -290 1528 -326 1416 -356 C 1304 -386 1200 -401 1106 -401 C 795 -401 551 -314 375 -140 C 198 34 110 273 110 579 C 110 860 204 1094 394 1280 C 584 1466 824 1560 1114 1560 C 1361 1560 1566 1476 1729 1310 C 1892 1144 1973 938 1973 693 C 1973 517 1929 372 1841 259 C 1752 146 1637 90 1497 90 C 1364 90 1279 152 1241 278 Z M 1246 430 L 1285 734 C 1217 854 1143 914 1064 914 C 968 914 891 870 833 782 C 775 694 747 590 747 471 C 747 302 814 218 950 218 C 995 218 1045 239 1100 279 C 1154 319 1203 369 1246 430 Z" unicode="@" />
<glyph horiz-adv-x="1292" d="M 30 0 L 532 1515 L 764 1515 L 1261 0 L 1102 0 L 948 471 L 336 471 L 184 0 L 30 0 Z M 901 618 L 645 1415 L 385 618 L 901 618 Z" unicode="A" />
<glyph horiz-adv-x="1427" d="M 745 0 L 209 0 L 209 1515 L 688 1515 C 890 1515 1038 1477 1132 1403 C 1226 1329 1274 1239 1274 1134 C 1274 977 1181 860 997 782 C 1209 700 1315 575 1315 409 C 1315 291 1264 193 1162 116 C 1060 38 921 0 745 0 Z M 737 1372 L 364 1372 L 364 850 L 631 850 C 951 850 1112 939 1112 1118 C 1112 1193 1079 1254 1013 1301 C 947 1348 855 1372 737 1372 Z M 710 708 L 364 708 L 364 143 L 778 143 C 891 143 981 167 1048 217 C 1115 267 1149 335 1149 422 C 1149 510 1110 580 1033 631 C 956 682 848 708 710 708 Z" unicode="B" />
<glyph horiz-adv-x="1366" d="M 1147 481 L 1304 450 C 1264 298 1193 180 1091 97 C 989 13 868 -28 727 -28 C 546 -28 399 45 285 191 C 171 337 114 527 114 762 C 114 996 170 1185 280 1329 C 390 1473 536 1546 719 1546 C 860 1546 980 1505 1079 1424 C 1178 1342 1246 1229 1282 1083 L 1124 1059 C 1063 1288 932 1403 731 1403 C 592 1403 482 1346 400 1233 C 318 1120 278 965 278 768 C 278 567 319 407 401 289 C 483 171 593 112 729 112 C 945 112 1085 235 1147 481 Z" unicode="C" />
<glyph horiz-adv-x="1474" d="M 209 0 L 209 1515 L 643 1515 C 867 1515 1042 1449 1169 1317 C 1296 1185 1360 1003 1360 772 C 1360 533 1300 345 1181 207 C 1061 69 865 0 592 0 L 209 0 Z M 651 1370 L 364 1370 L 364 145 L 674 145 C 835 145 962 199 1055 307 C 1147 415 1194 566 1194 762 C 1194 959 1147 1110 1053 1214 C 959 1318 825 1370 651 1370 Z" unicode="D" />
<glyph horiz-adv-x="1214" d="M 209 0 L 209 1515 L 1102 1515 L 1102 1372 L 362 1372 L 362 876 L 911 876 L 911 731 L 362 731 L 362 145 L 1173 145 L 1173 0 L 209 0 Z" unicode="E" />
<glyph horiz-adv-x="1132" d="M 209 0 L 209 1515 L 1091 1515 L 1091 1370 L 362 1370 L 362 874 L 899 874 L 899 729 L 362 729 L 362 0 L 209 0 Z" unicode="F" />
<glyph horiz-adv-x="1470" d="M 782 585 L 782 731 L 1304 731 L 1304 0 L 1159 0 L 1159 192 C 1044 45 899 -28 723 -28 C 535 -28 387 42 278 183 C 168 324 114 514 114 753 C 114 998 171 1191 287 1333 C 403 1475 552 1546 735 1546 C 869 1546 987 1507 1091 1429 C 1194 1351 1265 1237 1304 1085 L 1145 1052 C 1077 1287 943 1405 745 1405 C 608 1405 496 1347 409 1231 C 321 1115 278 960 278 766 C 278 568 320 410 406 291 C 492 171 603 112 741 112 C 865 112 966 152 1043 231 C 1120 309 1159 427 1159 585 L 782 585 Z" unicode="G" />
<glyph horiz-adv-x="1515" d="M 209 0 L 209 1515 L 362 1515 L 362 872 L 1153 872 L 1153 1515 L 1306 1515 L 1306 0 L 1153 0 L 1153 729 L 362 729 L 362 0 L 209 0 Z" unicode="H" />
<glyph horiz-adv-x="571" d="M 209 0 L 209 1515 L 362 1515 L 362 0 L 209 0 Z" unicode="I" />
<glyph horiz-adv-x="944" d="M 596 489 L 596 1515 L 749 1515 L 749 489 C 749 319 712 191 638 103 C 564 15 467 -28 346 -28 C 192 -28 67 46 -28 194 L 98 266 C 164 166 246 116 346 116 C 512 116 596 240 596 489 Z" unicode="J" />
<glyph horiz-adv-x="1345" d="M 209 0 L 209 1515 L 362 1515 L 362 735 L 1071 1515 L 1261 1515 L 739 942 L 1331 0 L 1155 0 L 641 831 L 362 526 L 362 0 L 209 0 Z" unicode="K" />
<glyph horiz-adv-x="1126" d="M 209 0 L 209 1515 L 362 1515 L 362 145 L 1085 145 L 1085 0 L 209 0 Z" unicode="L" />
<glyph horiz-adv-x="1804" d="M 209 0 L 209 1515 L 461 1515 L 903 295 L 1341 1515 L 1595 1515 L 1595 0 L 1442 0 L 1442 1380 L 942 0 L 854 0 L 356 1380 L 356 0 L 209 0 Z" unicode="M" />
<glyph horiz-adv-x="1558" d="M 209 0 L 209 1515 L 444 1515 L 1196 278 L 1196 1515 L 1349 1515 L 1349 0 L 1196 0 L 362 1384 L 362 0 L 209 0 Z" unicode="N" />
<glyph horiz-adv-x="1487" d="M 114 745 C 114 985 172 1178 288 1325 C 404 1472 558 1546 749 1546 C 933 1546 1082 1472 1198 1325 C 1314 1177 1372 987 1372 753 C 1372 517 1311 328 1191 186 C 1071 43 923 -28 747 -28 C 559 -28 406 44 289 190 C 172 335 114 520 114 745 Z M 1208 747 C 1208 947 1166 1107 1083 1225 C 999 1343 886 1403 743 1403 C 603 1403 490 1345 406 1229 C 321 1113 278 955 278 755 C 278 557 321 401 406 287 C 490 173 599 116 733 116 C 877 116 992 174 1078 288 C 1164 402 1208 555 1208 747 Z" unicode="O" />
<glyph horiz-adv-x="1323" d="M 209 0 L 209 1515 L 710 1515 C 876 1515 1008 1477 1105 1401 C 1202 1325 1251 1226 1251 1104 C 1251 978 1199 877 1097 800 C 995 722 858 684 686 684 L 362 684 L 362 0 L 209 0 Z M 653 1374 L 362 1374 L 362 827 L 674 827 C 948 827 1085 919 1085 1104 C 1085 1284 941 1374 653 1374 Z" unicode="P" />
<glyph horiz-adv-x="1487" d="M 1255 -399 L 1140 -399 C 993 -399 878 -365 796 -298 C 714 -230 672 -138 671 -22 C 509 -5 376 75 271 220 C 166 364 114 539 114 743 C 114 975 171 1167 287 1319 C 403 1470 553 1546 737 1546 C 928 1546 1082 1472 1199 1326 C 1315 1179 1374 988 1374 753 C 1374 539 1321 360 1215 216 C 1109 72 977 -6 819 -22 C 823 -178 926 -256 1128 -256 L 1255 -256 L 1255 -399 Z M 1210 755 C 1210 956 1168 1114 1085 1230 C 1002 1345 889 1403 745 1403 C 605 1403 492 1344 407 1227 C 321 1109 278 952 278 755 C 278 559 321 404 406 288 C 490 172 601 114 737 114 C 880 114 995 172 1081 287 C 1167 401 1210 557 1210 755 Z" unicode="Q" />
<glyph horiz-adv-x="1372" d="M 209 0 L 209 1515 L 674 1515 C 874 1515 1021 1476 1114 1399 C 1207 1321 1253 1222 1253 1102 C 1253 914 1141 787 919 719 L 1308 0 L 1130 0 L 772 688 L 362 688 L 362 0 L 209 0 Z M 733 1372 L 362 1372 L 362 831 L 680 831 C 952 831 1089 922 1089 1106 C 1089 1190 1058 1255 996 1302 C 934 1348 846 1372 733 1372 Z" unicode="R" />
<glyph horiz-adv-x="1288" d="M 96 383 L 254 424 C 312 216 445 112 653 112 C 759 112 846 139 913 193 C 980 247 1014 316 1014 401 C 1014 545 895 645 657 700 C 318 778 149 923 149 1136 C 149 1252 195 1349 285 1428 C 375 1506 488 1546 624 1546 C 754 1546 864 1514 954 1451 C 1044 1388 1106 1298 1140 1181 L 987 1134 C 934 1313 814 1403 626 1403 C 535 1403 460 1380 401 1334 C 342 1288 313 1228 313 1155 C 313 1017 437 918 686 860 C 1013 782 1177 631 1177 409 C 1177 281 1127 176 1028 94 C 929 12 804 -28 653 -28 C 515 -28 396 6 298 74 C 199 142 132 245 96 383 Z" unicode="S" />
<glyph horiz-adv-x="1198" d="M 1157 1372 L 678 1372 L 678 0 L 524 0 L 524 1372 L 41 1372 L 41 1515 L 1157 1515 L 1157 1372 Z" unicode="T" />
<glyph horiz-adv-x="1480" d="M 188 524 L 188 1515 L 342 1515 L 342 567 C 342 265 474 114 739 114 C 1005 114 1138 264 1138 565 L 1138 1515 L 1292 1515 L 1292 545 C 1292 362 1243 221 1145 121 C 1047 21 914 -28 747 -28 C 573 -28 437 20 338 118 C 238 216 188 352 188 524 Z" unicode="U" />
<glyph horiz-adv-x="1247" d="M 553 0 L 30 1515 L 194 1515 L 626 239 L 1057 1515 L 1216 1515 L 692 0 L 553 0 Z" unicode="V" />
<glyph horiz-adv-x="1843" d="M 461 0 L 61 1515 L 221 1515 L 530 307 L 850 1515 L 997 1515 L 1313 307 L 1626 1515 L 1782 1515 L 1376 0 L 1249 0 L 921 1245 L 594 0 L 461 0 Z" unicode="W" />
<glyph horiz-adv-x="1257" d="M 542 811 L 100 1515 L 282 1515 L 626 944 L 977 1515 L 1157 1515 L 710 811 L 1227 0 L 1048 0 L 626 678 L 213 0 L 30 0 L 542 811 Z" unicode="X" />
<glyph horiz-adv-x="1208" d="M 530 659 L 30 1515 L 207 1515 L 606 813 L 1005 1515 L 1177 1515 L 678 659 L 678 0 L 530 0 L 530 659 Z" unicode="Y" />
<glyph horiz-adv-x="1206" d="M 135 1370 L 135 1515 L 1132 1515 L 1132 1370 L 237 147 L 1132 147 L 1132 0 L 65 0 L 65 147 L 964 1370 L 135 1370 Z" unicode="Z" />
<glyph horiz-adv-x="776" d="M 209 -409 L 209 1515 L 725 1515 L 725 1388 L 354 1388 L 354 -272 L 725 -272 L 725 -409 L 209 -409 Z" unicode="[" />
<glyph horiz-adv-x="930" d="M 30 1515 L 168 1515 L 899 0 L 762 0 L 30 1515 Z" unicode="\" />
<glyph horiz-adv-x="774" d="M 51 1386 L 51 1515 L 565 1515 L 565 -409 L 51 -409 L 51 -274 L 422 -274 L 422 1386 L 51 1386 Z" unicode="]" />
<glyph horiz-adv-x="1194" d="M 262 719 L 114 719 L 528 1517 L 678 1517 L 1079 719 L 936 719 L 598 1374 L 262 719 Z" unicode="^" />
<glyph horiz-adv-x="1024" d="M 1036 -256 L -12 -256 L -12 -153 L 1036 -153 L 1036 -256 Z" unicode="_" />
<glyph horiz-adv-x="682" d="M 491 1181 L 366 1181 L 49 1511 L 272 1511 L 491 1181 Z" unicode="`" />
<glyph horiz-adv-x="1126" d="M 807 180 C 673 45 535 -22 391 -22 C 299 -22 226 5 170 61 C 114 116 86 185 86 268 C 86 356 122 436 194 507 C 266 577 470 646 807 712 L 807 739 C 807 825 786 886 746 923 C 705 960 655 979 596 979 C 468 979 343 918 219 798 L 112 889 C 245 1027 397 1097 569 1097 C 677 1097 768 1067 842 1007 C 915 947 952 848 952 712 L 952 258 C 952 162 961 76 981 0 L 835 0 C 817 58 808 118 807 180 Z M 807 264 L 807 606 C 557 548 400 495 336 445 C 272 395 239 336 239 270 C 239 222 257 182 293 152 C 329 121 375 106 432 106 C 536 106 661 158 807 264 Z" unicode="a" />
<glyph horiz-adv-x="1263" d="M 340 141 L 340 0 L 194 0 L 194 1515 L 340 1515 L 340 938 C 444 1044 566 1097 706 1097 C 838 1097 946 1045 1032 939 C 1118 833 1161 700 1161 538 C 1161 370 1117 235 1031 132 C 945 29 835 -22 702 -22 C 588 -22 467 32 340 141 Z M 340 805 L 340 264 C 470 158 587 106 690 106 C 786 106 862 145 920 224 C 978 302 1007 407 1007 538 C 1007 669 977 773 918 850 C 858 926 779 964 680 964 C 566 964 452 911 340 805 Z" unicode="b" />
<glyph horiz-adv-x="1057" d="M 872 332 L 999 260 C 892 72 751 -22 577 -22 C 439 -22 326 28 236 132 C 146 235 102 370 102 538 C 102 702 147 836 239 941 C 330 1045 443 1097 579 1097 C 759 1097 899 1005 999 821 L 872 751 C 792 901 694 977 577 977 C 483 977 406 936 346 856 C 286 776 256 667 256 530 C 256 409 286 308 347 228 C 407 147 483 106 573 106 C 699 106 799 181 872 332 Z" unicode="c" />
<glyph horiz-adv-x="1263" d="M 932 149 C 802 35 675 -22 553 -22 C 423 -22 316 28 230 131 C 144 234 102 368 102 534 C 102 700 144 836 230 940 C 316 1044 424 1097 555 1097 C 679 1097 801 1044 923 938 L 923 1515 L 1069 1515 L 1069 336 C 1069 185 1081 73 1106 0 L 956 0 C 941 51 933 101 932 149 Z M 923 274 L 923 809 C 803 915 687 968 575 968 C 477 968 399 930 342 855 C 284 780 256 677 256 547 C 256 409 285 302 343 225 C 401 148 478 110 575 110 C 683 110 799 164 923 274 Z" unicode="d" />
<glyph horiz-adv-x="1102" d="M 889 325 L 1007 241 C 876 65 729 -22 565 -22 C 433 -22 323 28 235 131 C 147 234 102 371 102 542 C 102 708 145 842 232 944 C 319 1046 425 1097 551 1097 C 668 1097 773 1051 865 958 C 957 865 1005 720 1007 524 L 248 524 C 253 394 285 291 344 217 C 402 143 473 106 557 106 C 680 106 791 179 889 325 Z M 254 655 L 856 655 C 846 755 812 834 756 893 C 699 951 632 981 555 981 C 473 981 403 948 345 883 C 287 818 256 742 254 655 Z" unicode="e" />
<glyph horiz-adv-x="643" d="M 45 1075 L 246 1075 L 246 1243 C 246 1327 273 1394 328 1443 C 383 1491 457 1515 551 1515 C 581 1515 606 1514 626 1513 L 626 1376 C 608 1378 586 1380 559 1380 C 447 1380 391 1330 391 1231 L 391 1075 L 614 1075 L 614 942 L 391 942 L 391 0 L 246 0 L 246 942 L 45 942 L 45 1075 Z" unicode="f" />
<glyph horiz-adv-x="1153" d="M 268 428 C 178 496 133 593 133 719 C 133 826 173 916 253 988 C 333 1060 439 1097 569 1097 C 687 1097 786 1067 866 1007 C 938 1050 1028 1073 1138 1075 L 1138 948 L 1095 948 C 1027 948 975 939 940 923 C 975 864 993 798 993 725 C 993 610 953 516 874 442 C 794 368 689 332 557 332 C 469 332 398 342 346 364 C 288 346 260 320 260 284 C 260 262 266 246 279 234 C 291 222 308 214 329 211 C 350 207 442 198 606 182 C 780 164 903 131 975 82 C 1046 33 1081 -36 1081 -127 C 1081 -218 1040 -292 960 -348 C 879 -404 766 -432 620 -432 C 453 -432 321 -403 225 -345 C 128 -287 80 -212 80 -119 C 80 -39 123 36 211 106 C 149 147 119 193 119 243 C 119 314 168 376 268 428 Z M 850 723 C 850 792 826 851 778 899 C 730 947 661 971 571 971 C 477 971 405 948 353 903 C 301 857 276 795 276 717 C 276 639 303 577 357 530 C 411 482 479 459 563 459 C 650 459 720 484 772 535 C 824 585 850 648 850 723 Z M 336 61 C 250 23 207 -33 207 -110 C 207 -162 241 -206 310 -243 C 379 -280 479 -299 609 -299 C 829 -299 940 -241 940 -125 C 940 -68 900 -25 820 2 C 740 30 579 50 336 61 Z" unicode="g" />
<glyph horiz-adv-x="1243" d="M 196 0 L 196 1515 L 342 1515 L 342 956 C 525 1050 664 1097 758 1097 C 848 1097 920 1066 973 1004 C 1025 941 1052 853 1052 739 L 1052 0 L 907 0 L 907 721 C 907 817 890 881 858 913 C 825 945 779 962 719 962 C 615 962 490 918 342 831 L 342 0 L 196 0 Z" unicode="h" />
<glyph horiz-adv-x="534" d="M 194 1327 L 194 1501 L 340 1501 L 340 1327 L 194 1327 Z M 194 0 L 194 1075 L 340 1075 L 340 0 L 194 0 Z" unicode="i" />
<glyph horiz-adv-x="534" d="M 196 1325 L 196 1501 L 340 1501 L 340 1325 L 196 1325 Z M 196 -112 L 196 1075 L 340 1075 L 340 -127 C 340 -216 316 -289 270 -346 C 224 -403 162 -432 84 -432 C 64 -432 48 -430 35 -428 L 35 -264 C 53 -266 65 -268 71 -268 C 109 -268 139 -253 162 -224 C 184 -195 196 -158 196 -112 Z" unicode="j" />
<glyph horiz-adv-x="1077" d="M 194 0 L 194 1515 L 340 1515 L 340 526 L 829 1075 L 1020 1075 L 665 698 L 1057 0 L 893 0 L 573 602 L 340 356 L 340 0 L 194 0 Z" unicode="k" />
<glyph horiz-adv-x="534" d="M 194 0 L 194 1515 L 340 1515 L 340 0 L 194 0 Z" unicode="l" />
<glyph horiz-adv-x="1939" d="M 342 778 L 342 0 L 194 0 L 194 1075 L 342 1075 L 342 905 C 528 1033 672 1097 774 1097 C 902 1097 988 1033 1034 905 C 1160 990 1252 1043 1311 1065 C 1370 1086 1425 1097 1476 1097 C 1556 1097 1621 1070 1672 1016 C 1723 961 1749 889 1749 801 L 1749 0 L 1601 0 L 1601 758 C 1601 817 1585 866 1554 906 C 1523 945 1483 964 1433 964 C 1349 964 1220 902 1046 778 L 1046 0 L 899 0 L 899 758 C 899 816 884 864 854 904 C 824 944 783 964 731 964 C 645 964 516 902 342 778 Z" unicode="m" />
<glyph horiz-adv-x="1243" d="M 340 831 L 340 0 L 194 0 L 194 1075 L 340 1075 L 340 950 C 502 1048 639 1097 749 1097 C 840 1097 913 1066 969 1004 C 1024 942 1052 859 1052 755 L 1052 0 L 907 0 L 907 717 C 907 880 845 962 723 962 C 616 962 488 918 340 831 Z" unicode="n" />
<glyph horiz-adv-x="1171" d="M 102 534 C 102 703 147 839 238 943 C 329 1046 446 1097 588 1097 C 726 1097 840 1043 932 937 C 1023 831 1069 694 1069 528 C 1069 365 1023 233 933 131 C 842 29 732 -22 602 -22 C 456 -22 337 29 243 133 C 149 237 102 370 102 534 Z M 915 542 C 915 673 886 777 828 855 C 770 932 691 971 592 971 C 488 971 406 931 346 851 C 286 771 256 668 256 540 C 256 410 286 304 347 224 C 407 144 488 104 588 104 C 684 104 762 144 823 224 C 884 304 915 410 915 542 Z" unicode="o" />
<glyph horiz-adv-x="1263" d="M 340 1075 L 340 932 C 463 1042 585 1097 706 1097 C 838 1097 946 1046 1032 942 C 1118 838 1161 703 1161 536 C 1161 369 1118 234 1032 132 C 946 29 838 -22 706 -22 C 579 -22 457 32 340 141 L 340 -409 L 194 -409 L 194 1075 L 340 1075 Z M 340 805 L 340 262 C 464 158 582 106 694 106 C 786 106 862 145 920 223 C 978 300 1007 406 1007 540 C 1007 670 978 774 918 850 C 858 926 780 964 686 964 C 582 964 467 911 340 805 Z" unicode="p" />
<glyph horiz-adv-x="1263" d="M 921 934 L 921 1075 L 1069 1075 L 1069 -409 L 921 -409 L 921 139 C 801 31 679 -22 555 -22 C 425 -22 316 30 230 136 C 143 241 100 376 100 542 C 100 705 144 838 232 942 C 320 1046 427 1097 555 1097 C 673 1097 795 1042 921 934 Z M 921 270 L 921 805 C 795 913 677 968 565 968 C 471 968 396 930 339 853 C 282 775 254 668 254 532 C 254 400 282 297 338 222 C 394 147 469 110 563 110 C 683 110 802 163 921 270 Z" unicode="q" />
<glyph horiz-adv-x="809" d="M 338 1075 L 338 831 C 404 932 471 1002 540 1042 C 609 1082 693 1100 792 1097 L 770 936 C 742 938 725 940 717 940 C 611 940 521 893 448 800 C 374 706 338 599 338 477 L 338 0 L 192 0 L 192 1075 L 338 1075 Z" unicode="r" />
<glyph horiz-adv-x="989" d="M 61 186 L 186 274 C 298 162 410 106 522 106 C 592 106 648 124 691 158 C 734 192 755 234 755 286 C 755 388 653 460 450 502 C 214 550 96 652 96 809 C 96 891 130 960 198 1015 C 266 1069 354 1097 463 1097 C 625 1097 755 1042 854 932 L 743 833 C 661 926 569 973 465 973 C 398 973 344 958 304 930 C 264 902 243 865 243 819 C 243 731 324 672 487 641 C 764 587 903 470 903 291 C 903 201 868 127 798 67 C 728 7 637 -22 524 -22 C 366 -22 211 47 61 186 Z" unicode="s" />
<glyph horiz-adv-x="690" d="M 233 1075 L 233 1466 L 377 1466 L 377 1075 L 645 1075 L 645 942 L 377 942 L 377 280 C 377 158 431 98 540 98 C 558 98 593 103 645 114 L 645 -16 C 590 -22 548 -26 518 -26 C 414 -26 341 -4 298 37 C 254 79 233 150 233 248 L 233 942 L 45 942 L 45 1075 L 233 1075 Z" unicode="t" />
<glyph horiz-adv-x="1243" d="M 901 0 L 901 172 C 739 42 603 -22 495 -22 C 401 -22 327 9 273 74 C 219 139 192 229 192 344 L 192 1075 L 338 1075 L 338 360 C 338 287 356 227 393 181 C 430 135 477 112 534 112 C 624 112 747 176 901 305 L 901 1075 L 1046 1075 L 1046 0 L 901 0 Z" unicode="u" />
<glyph horiz-adv-x="979" d="M 422 0 L 41 1075 L 203 1075 L 491 205 L 780 1075 L 938 1075 L 555 0 L 422 0 Z" unicode="v" />
<glyph horiz-adv-x="1509" d="M 395 0 L 51 1075 L 207 1075 L 446 282 L 696 1075 L 809 1075 L 1061 262 L 1306 1075 L 1458 1075 L 1108 0 L 1005 0 L 749 823 L 493 0 L 395 0 Z" unicode="w" />
<glyph horiz-adv-x="1005" d="M 418 557 L 63 1075 L 239 1075 L 504 669 L 764 1075 L 940 1075 L 588 557 L 964 0 L 790 0 L 504 446 L 219 0 L 41 0 L 418 557 Z" unicode="x" />
<glyph horiz-adv-x="1061" d="M 454 0 L 41 1075 L 203 1075 L 530 196 L 856 1075 L 1020 1075 L 581 -69 C 531 -201 489 -285 457 -323 C 425 -360 383 -388 332 -407 C 280 -426 219 -436 149 -436 C 118 -436 72 -430 10 -420 L 47 -280 C 79 -287 113 -291 151 -291 C 215 -291 270 -278 315 -254 C 359 -230 406 -145 454 0 Z" unicode="y" />
<glyph horiz-adv-x="1026" d="M 114 932 L 114 1075 L 934 1075 L 934 932 L 239 147 L 964 147 L 964 0 L 61 0 L 61 147 L 760 932 L 114 932 Z" unicode="z" />
<glyph horiz-adv-x="682" d="M 586 -405 C 465 -405 382 -376 337 -320 C 292 -263 270 -172 270 -48 C 270 162 261 292 244 341 C 227 389 202 424 170 446 C 137 467 99 478 55 480 L 55 629 C 115 632 162 650 195 683 C 227 716 248 763 257 823 C 265 883 270 994 270 1156 C 270 1281 292 1372 338 1429 C 383 1486 466 1515 586 1515 L 635 1515 L 635 1375 L 611 1375 C 531 1375 479 1359 456 1328 C 433 1297 422 1240 422 1158 L 422 1009 C 422 871 406 771 376 709 C 345 647 285 596 197 554 C 275 522 332 475 368 413 C 404 350 422 245 422 98 L 422 -48 C 422 -130 433 -187 456 -218 C 479 -249 531 -265 611 -265 L 635 -265 L 635 -405 L 586 -405 Z" unicode="{" />
<glyph horiz-adv-x="1087" d="M 477 -409 L 477 1515 L 610 1515 L 610 -409 L 477 -409 Z" unicode="|" />
<glyph horiz-adv-x="682" d="M 47 -405 L 47 -265 L 70 -265 C 150 -265 202 -249 225 -218 C 248 -187 260 -130 260 -48 L 260 98 C 260 246 277 352 313 414 C 348 476 405 522 483 554 C 394 595 335 646 305 708 C 275 770 260 870 260 1009 L 260 1158 C 260 1240 248 1297 225 1328 C 202 1359 150 1375 70 1375 L 47 1375 L 47 1515 L 95 1515 C 215 1515 298 1486 344 1429 C 389 1372 411 1281 411 1156 C 411 946 419 816 437 768 C 454 719 479 684 512 663 C 544 642 582 631 626 629 L 626 480 C 566 477 519 459 487 426 C 454 392 433 345 424 285 C 415 225 411 114 411 -48 C 411 -172 388 -263 344 -320 C 299 -376 216 -405 95 -405 L 47 -405 Z" unicode="}" />
<glyph horiz-adv-x="1343" d="M 1214 942 L 1214 796 C 1112 711 1017 669 927 669 C 866 669 777 696 661 750 C 544 804 465 831 424 831 C 339 831 241 785 131 694 L 131 837 C 232 920 330 962 426 962 C 484 962 571 935 687 882 C 803 828 881 801 923 801 C 1007 801 1104 848 1214 942 Z" unicode="~" />
<glyph horiz-adv-x="1280" d="M 293 952 L 1044 952 L 1018 821 L 281 821 C 279 808 279 790 279 768 C 279 735 279 712 281 698 L 999 698 L 975 567 L 295 567 C 319 423 367 312 439 235 C 510 157 597 119 700 119 C 876 119 996 211 1061 397 L 1219 365 C 1119 102 945 -29 696 -29 C 554 -29 431 23 329 128 C 227 233 161 379 131 567 L -4 567 L 20 698 L 117 698 C 115 715 115 736 115 762 C 115 786 115 806 117 821 L -4 821 L 20 952 L 129 952 C 161 1144 226 1292 324 1394 C 422 1496 543 1548 688 1548 C 934 1548 1104 1418 1196 1159 L 1044 1124 C 1002 1220 956 1291 904 1335 C 852 1379 784 1401 700 1401 C 484 1401 348 1251 293 952 Z" unicode="" />
<glyph horiz-adv-x="641" d="" unicode=" " />
<glyph horiz-adv-x="641" d="M 223 846 L 223 1075 L 424 1075 L 424 846 L 223 846 Z M 223 -428 L 264 624 L 381 624 L 420 -428 L 223 -428 Z" unicode="¡" />
<glyph horiz-adv-x="989" d="M 641 985 L 846 1515 L 946 1515 L 725 944 C 798 897 853 830 891 743 L 782 700 C 754 760 721 803 684 829 L 422 141 C 469 119 509 108 542 108 C 633 108 728 172 827 301 L 921 239 C 873 157 814 93 744 47 C 674 1 602 -22 528 -22 C 482 -22 430 -10 372 12 L 203 -430 L 102 -430 L 291 63 C 167 159 106 290 106 454 C 106 603 147 732 229 840 C 311 948 411 1001 530 1001 C 549 1001 586 995 641 985 Z M 342 203 L 600 872 C 572 874 555 876 547 876 C 459 876 387 838 333 760 C 279 682 252 585 252 469 C 252 359 282 271 342 203 Z" unicode="¢" />
<glyph horiz-adv-x="1280" d="M 596 866 L 905 866 L 905 741 L 622 741 C 637 643 645 570 645 520 C 645 433 632 352 606 278 C 751 182 858 135 927 135 C 1030 135 1085 210 1093 360 L 1241 360 C 1223 101 1114 -28 913 -28 C 879 -28 846 -23 812 -13 C 778 -3 751 6 732 17 C 713 28 651 71 545 147 C 463 30 372 -28 272 -28 C 213 -28 165 -8 127 30 C 89 68 71 118 71 180 C 71 243 92 295 136 336 C 179 376 233 397 299 397 C 338 397 402 379 491 344 C 495 401 497 436 497 450 C 497 560 483 657 456 741 L 143 741 L 143 866 L 430 866 C 400 1022 385 1119 385 1157 C 385 1269 419 1362 487 1436 C 555 1509 642 1546 749 1546 C 964 1546 1081 1420 1100 1169 L 944 1161 C 929 1331 859 1417 735 1417 C 676 1417 629 1395 593 1353 C 557 1311 540 1256 540 1188 C 540 1155 558 1048 596 866 Z M 446 217 C 374 260 316 282 272 282 C 242 282 217 272 197 253 C 176 233 166 208 166 178 C 166 150 175 127 195 109 C 214 91 239 82 270 82 C 340 82 398 127 446 217 Z" unicode="£" />
<glyph horiz-adv-x="1409" d="M 286 1151 L 413 1024 C 504 1084 595 1114 686 1114 C 782 1114 874 1084 960 1024 L 1087 1151 L 1175 1061 L 1048 934 C 1108 846 1138 755 1138 663 C 1138 567 1108 476 1048 391 L 1175 264 L 1087 176 L 960 301 C 873 241 782 211 686 211 C 592 211 502 241 415 301 L 289 176 L 198 264 L 325 391 C 265 476 235 567 235 663 C 235 759 265 850 325 936 L 198 1061 L 286 1151 Z M 686 338 C 776 338 852 369 916 433 C 979 496 1011 573 1011 663 C 1011 762 981 841 919 900 C 857 959 779 989 687 989 C 594 989 517 959 455 900 C 393 840 362 761 362 663 C 362 573 394 496 457 433 C 519 369 596 338 686 338 Z" unicode="¤" />
<glyph horiz-adv-x="1298" d="M 1216 1515 L 850 880 L 1216 880 L 1216 747 L 774 747 L 723 659 L 723 483 L 1216 483 L 1216 352 L 723 352 L 723 0 L 575 0 L 575 352 L 82 352 L 82 483 L 575 483 L 575 659 L 524 747 L 82 747 L 82 880 L 448 880 L 82 1515 L 246 1515 L 649 815 L 1054 1515 L 1216 1515 Z" unicode="¥" />
<glyph horiz-adv-x="1087" d="M 477 790 L 477 1515 L 610 1515 L 610 790 L 477 790 Z M 477 -409 L 477 315 L 610 315 L 610 -409 L 477 -409 Z" unicode="¦" />
<glyph horiz-adv-x="1067" d="M 145 -131 L 297 -100 C 338 -232 422 -299 549 -299 C 609 -299 657 -284 695 -254 C 733 -224 751 -184 751 -135 C 751 -90 730 -49 690 -12 C 649 25 581 71 487 125 C 348 204 251 278 195 348 C 139 417 110 493 110 577 C 110 645 129 707 169 762 C 209 817 280 876 383 938 C 297 996 241 1047 214 1089 C 187 1131 174 1177 174 1227 C 174 1314 208 1389 276 1452 C 344 1514 435 1546 549 1546 C 656 1546 740 1522 802 1475 C 863 1427 907 1350 934 1243 L 780 1212 C 739 1344 657 1411 534 1411 C 474 1411 425 1396 388 1367 C 350 1337 332 1297 332 1247 C 332 1203 350 1164 386 1128 C 422 1092 485 1049 575 997 C 723 913 825 836 882 766 C 939 696 968 618 968 532 C 968 466 949 406 912 352 C 875 298 804 239 700 174 C 780 118 835 68 865 24 C 894 -20 909 -68 909 -121 C 909 -209 874 -282 803 -342 C 731 -402 639 -432 526 -432 C 324 -432 197 -331 145 -131 Z M 477 876 C 324 774 248 679 248 592 C 248 484 366 366 604 237 C 698 302 760 354 789 394 C 817 433 831 474 831 516 C 831 565 810 614 770 663 C 730 711 632 782 477 876 Z" unicode="§" />
<glyph horiz-adv-x="682" d="M 49 1220 L 49 1394 L 223 1394 L 223 1220 L 49 1220 Z M 459 1220 L 459 1394 L 633 1394 L 633 1220 L 459 1220 Z" unicode="¨" />
<glyph horiz-adv-x="1714" d="M 1612 790 C 1612 582 1538 404 1391 256 C 1244 108 1066 35 858 35 C 650 35 472 108 324 256 C 176 403 102 581 102 790 C 102 999 176 1177 324 1325 C 472 1472 650 1546 858 1546 C 1066 1546 1244 1472 1391 1324 C 1538 1176 1612 998 1612 790 Z M 227 790 C 227 616 289 468 413 346 C 536 223 684 162 858 162 C 1031 162 1179 223 1302 346 C 1425 468 1487 616 1487 790 C 1487 964 1425 1113 1302 1235 C 1179 1357 1031 1419 858 1419 C 684 1419 536 1357 413 1235 C 289 1112 227 964 227 790 Z M 1206 979 L 1087 948 C 1048 1050 970 1102 854 1102 C 778 1102 716 1073 669 1015 C 621 957 598 879 598 782 C 598 686 621 611 667 557 C 713 502 777 475 858 475 C 914 475 965 492 1010 526 C 1054 560 1084 607 1100 667 L 1222 631 C 1202 547 1160 480 1095 431 C 1029 382 951 358 860 358 C 736 358 639 397 569 476 C 498 555 463 664 463 803 C 463 927 499 1026 572 1102 C 645 1177 743 1214 866 1214 C 1045 1214 1158 1135 1206 979 Z" unicode="©" />
<glyph horiz-adv-x="810" d="M 604 775 C 594 804 586 840 581 883 C 485 801 389 760 293 760 C 228 760 175 779 134 819 C 92 858 71 908 71 970 C 71 1036 97 1093 151 1141 C 205 1189 347 1237 578 1285 L 578 1323 C 578 1359 564 1390 538 1414 C 512 1438 479 1449 440 1449 C 374 1449 286 1406 174 1321 L 85 1395 C 188 1495 300 1546 422 1546 C 509 1546 578 1522 629 1475 C 679 1427 705 1361 705 1277 L 705 930 C 705 878 712 826 728 775 L 604 775 Z M 578 1190 C 436 1160 339 1129 286 1096 C 233 1063 207 1022 207 972 C 207 904 247 870 329 870 C 397 870 480 903 578 970 L 578 1190 Z" unicode="ª" />
<glyph horiz-adv-x="1005" d="M 69 536 L 358 1014 L 522 1014 L 235 536 L 522 61 L 358 61 L 69 536 Z M 487 536 L 772 1014 L 936 1014 L 649 536 L 936 61 L 772 61 L 487 536 Z" unicode="«" />
<glyph horiz-adv-x="1366" d="M 139 946 L 139 1077 L 1227 1077 L 1227 459 L 1097 459 L 1097 946 L 139 946 Z" unicode="¬" />
<glyph horiz-adv-x="715" d="M 102 487 L 102 635 L 612 635 L 612 487 L 102 487 Z" unicode="­" />
<glyph horiz-adv-x="1714" d="M 1612 790 C 1612 582 1538 404 1391 256 C 1244 108 1066 35 858 35 C 650 35 472 108 324 256 C 176 403 102 581 102 790 C 102 999 176 1177 324 1325 C 472 1472 650 1546 858 1546 C 1066 1546 1244 1472 1391 1324 C 1538 1176 1612 998 1612 790 Z M 227 790 C 227 616 289 468 413 346 C 536 223 684 162 858 162 C 1031 162 1179 223 1302 346 C 1425 468 1487 616 1487 790 C 1487 964 1425 1113 1302 1235 C 1179 1357 1031 1419 858 1419 C 684 1419 536 1357 413 1235 C 289 1112 227 964 227 790 Z M 694 372 L 563 372 L 563 1186 L 841 1186 C 982 1186 1075 1164 1121 1122 C 1167 1079 1190 1029 1190 971 C 1190 906 1168 852 1126 809 C 1084 765 1028 741 958 735 C 1014 712 1077 644 1147 532 L 1245 372 L 1085 372 L 1014 502 C 963 594 922 652 891 678 C 860 704 820 717 772 717 L 694 717 L 694 372 Z M 694 1075 L 694 829 L 854 829 C 984 829 1050 870 1050 954 C 1050 1034 981 1075 844 1075 L 694 1075 Z" unicode="®" />
<glyph horiz-adv-x="1024" d="M 1036 1669 L -12 1669 L -12 1771 L 1036 1771 L 1036 1669 Z" unicode="¯" />
<glyph horiz-adv-x="811" d="M 405 1546 C 482 1546 547 1518 601 1464 C 655 1410 682 1344 682 1267 C 682 1191 655 1126 601 1072 C 547 1018 481 991 405 991 C 328 991 262 1017 208 1071 C 154 1125 127 1190 127 1267 C 127 1343 154 1409 208 1464 C 262 1518 327 1546 405 1546 Z M 405 1100 C 451 1100 491 1116 524 1148 C 556 1180 573 1220 573 1267 C 573 1315 556 1355 524 1388 C 492 1420 452 1437 405 1437 C 358 1437 318 1420 285 1387 C 251 1353 235 1313 235 1267 C 235 1221 251 1182 285 1149 C 319 1116 359 1100 405 1100 Z" unicode="°" />
<glyph horiz-adv-x="1366" d="M 137 860 L 137 991 L 614 991 L 614 1470 L 745 1470 L 745 991 L 1227 991 L 1227 860 L 745 860 L 745 383 L 614 383 L 614 860 L 137 860 Z M 137 51 L 137 182 L 1227 182 L 1227 51 L 137 51 Z" unicode="±" />
<glyph horiz-adv-x="641" d="M 190 1292 L 86 1323 C 142 1451 225 1515 334 1515 C 402 1515 459 1494 504 1452 C 549 1410 571 1359 571 1298 C 571 1198 510 1116 389 1050 C 282 992 216 921 190 835 L 571 835 L 571 735 L 80 735 L 80 782 C 80 916 163 1032 329 1130 C 415 1180 459 1236 459 1296 C 459 1327 447 1354 425 1378 C 402 1401 374 1413 342 1413 C 266 1413 216 1372 190 1292 Z" unicode="²" />
<glyph horiz-adv-x="641" d="M 243 1075 L 215 1075 L 215 1171 C 366 1171 442 1215 442 1304 C 442 1335 431 1361 410 1382 C 389 1402 361 1413 327 1413 C 272 1413 224 1387 182 1337 L 102 1409 C 175 1479 253 1515 336 1515 C 398 1515 449 1497 490 1461 C 530 1425 551 1379 551 1321 C 551 1226 489 1161 366 1126 C 498 1105 565 1040 565 930 C 565 863 539 809 487 769 C 435 729 373 708 301 708 C 211 708 129 748 57 829 L 145 895 C 208 839 265 811 315 811 C 356 811 389 823 414 848 C 439 872 452 901 452 934 C 452 974 435 1008 400 1035 C 364 1061 312 1075 243 1075 Z" unicode="³" />
<glyph horiz-adv-x="682" d="M 190 1181 L 409 1511 L 633 1511 L 315 1181 L 190 1181 Z" unicode="´" />
<glyph horiz-adv-x="1130" d="M 833 0 L 833 125 C 767 25 677 -24 563 -24 C 465 -24 381 19 313 106 L 313 -407 L 135 -407 L 135 1061 L 313 1061 L 313 545 C 313 407 325 315 348 269 C 371 223 400 189 435 168 C 469 147 509 137 555 137 C 619 137 678 159 733 204 C 787 249 815 361 815 540 L 815 1061 L 993 1061 L 993 0 L 833 0 Z" unicode="µ" />
<glyph horiz-adv-x="1272" d="M 530 1515 L 1220 1515 L 1220 1372 L 1018 1372 L 1018 -409 L 897 -409 L 897 1372 L 622 1372 L 622 -409 L 499 -409 L 499 674 C 361 673 251 712 171 790 C 91 868 51 971 51 1100 C 51 1225 94 1325 181 1401 C 267 1477 384 1515 530 1515 Z" unicode="¶" />
<glyph horiz-adv-x="606" d="M 205 649 L 205 874 L 401 874 L 401 649 L 205 649 Z" unicode="·" />
<glyph horiz-adv-x="682" d="M 30 -368 L 84 -274 C 144 -305 216 -321 299 -321 C 372 -321 409 -299 409 -256 C 409 -200 348 -172 227 -172 L 323 0 L 413 0 L 362 -90 C 482 -101 542 -155 542 -252 C 542 -301 521 -342 479 -375 C 437 -407 384 -424 319 -424 C 217 -424 121 -405 30 -368 Z" unicode="¸" />
<glyph horiz-adv-x="641" d="M 192 839 L 282 839 L 282 1370 C 260 1362 230 1356 192 1353 L 192 1448 C 256 1456 304 1473 334 1499 L 389 1499 L 389 839 L 481 839 L 481 739 L 192 739 L 192 839 Z" unicode="¹" />
<glyph horiz-adv-x="833" d="M 71 1154 C 71 1271 103 1366 167 1438 C 231 1510 314 1546 417 1546 C 517 1546 600 1508 664 1433 C 728 1358 761 1263 761 1147 C 761 1034 729 942 666 870 C 602 798 524 762 431 762 C 323 762 236 799 170 871 C 104 943 71 1038 71 1154 Z M 193 1154 C 193 1068 213 998 255 946 C 297 894 350 868 415 868 C 483 868 538 894 579 948 C 619 1001 639 1073 639 1163 C 639 1250 619 1319 578 1369 C 537 1419 483 1445 415 1445 C 348 1445 294 1418 254 1365 C 213 1312 193 1242 193 1154 Z" unicode="º" />
<glyph horiz-adv-x="1005" d="M 358 536 L 69 1014 L 235 1014 L 522 536 L 235 61 L 69 61 L 358 536 Z M 772 536 L 485 1014 L 649 1014 L 936 536 L 649 61 L 485 61 L 772 536 Z" unicode="»" />
<glyph horiz-adv-x="1921" d="M 436 -205 L 1388 1552 L 1478 1507 L 522 -254 L 436 -205 Z M 149 1370 L 149 1454 C 216 1464 271 1494 313 1542 L 426 1542 L 426 682 L 594 682 L 594 567 L 149 567 L 149 682 L 313 682 L 313 1407 C 277 1382 223 1370 149 1370 Z M 979 96 L 1413 782 L 1569 782 L 1569 96 L 1767 96 L 1767 0 L 1569 0 L 1569 -254 L 1456 -254 L 1456 0 L 979 0 L 979 96 Z M 1456 96 L 1456 641 L 1112 96 L 1456 96 Z" unicode="¼" />
<glyph horiz-adv-x="1921" d="M 393 -203 L 1345 1550 L 1431 1503 L 479 -252 L 393 -203 Z M 159 1370 L 159 1454 C 225 1464 279 1493 321 1542 L 434 1542 L 434 680 L 610 680 L 610 567 L 159 567 L 159 680 L 321 680 L 321 1396 C 275 1378 221 1370 159 1370 Z M 1243 459 L 1130 491 C 1162 585 1207 658 1266 710 C 1324 761 1390 786 1462 786 C 1549 786 1624 757 1686 701 C 1748 645 1779 578 1779 502 C 1779 440 1762 385 1727 337 C 1692 288 1636 235 1560 178 C 1386 48 1290 -56 1272 -135 L 1792 -135 L 1792 -252 L 1130 -252 C 1130 -104 1204 30 1353 153 C 1484 261 1566 334 1600 372 C 1633 409 1650 451 1650 499 C 1650 547 1634 588 1602 622 C 1570 655 1526 671 1470 671 C 1364 671 1289 600 1243 459 Z" unicode="½" />
<glyph horiz-adv-x="1921" d="M 469 -209 L 1423 1548 L 1513 1499 L 555 -254 L 469 -209 Z M 233 1319 L 151 1399 C 245 1497 342 1546 444 1546 C 524 1546 591 1519 643 1467 C 695 1414 721 1355 721 1290 C 721 1184 652 1118 516 1091 C 588 1081 645 1053 687 1008 C 728 963 749 909 749 846 C 749 770 719 704 657 648 C 595 591 519 563 428 563 C 309 563 206 625 119 749 L 207 817 C 278 724 356 678 440 678 C 492 678 537 696 575 732 C 613 768 633 808 633 854 C 633 896 616 935 582 971 C 548 1006 493 1024 415 1024 L 297 1024 L 327 1138 L 395 1138 C 450 1138 498 1153 538 1185 C 578 1217 598 1255 598 1300 C 598 1334 584 1364 556 1389 C 528 1414 489 1427 440 1427 C 374 1427 305 1391 233 1319 Z M 1022 94 L 1450 782 L 1612 782 L 1612 94 L 1806 94 L 1806 -6 L 1612 -6 L 1612 -254 L 1499 -254 L 1499 0 L 1022 0 L 1022 94 Z M 1499 94 L 1499 641 L 1157 94 L 1499 94 Z" unicode="¾" />
<glyph horiz-adv-x="854" d="M 364 848 L 364 1075 L 565 1075 L 565 848 L 364 848 Z M 633 -125 L 766 -200 C 663 -354 543 -432 405 -432 C 319 -432 245 -400 184 -337 C 122 -273 92 -196 92 -106 C 92 12 150 136 268 268 C 333 341 373 398 389 440 C 404 481 412 551 413 649 L 547 649 C 547 532 539 446 525 391 C 511 335 469 269 399 192 C 299 82 250 -12 250 -92 C 250 -142 267 -186 301 -226 C 335 -266 376 -286 422 -286 C 502 -286 572 -232 633 -125 Z" unicode="¿" />
<glyph horiz-adv-x="1292" d="M 30 0 L 532 1515 L 764 1515 L 1261 0 L 1102 0 L 948 471 L 336 471 L 184 0 L 30 0 Z M 901 618 L 645 1415 L 385 618 L 901 618 Z M 816 1622 L 691 1622 L 374 1952 L 597 1952 L 816 1622 Z" unicode="À" />
<glyph horiz-adv-x="1292" d="M 30 0 L 532 1515 L 764 1515 L 1261 0 L 1102 0 L 948 471 L 336 471 L 184 0 L 30 0 Z M 901 618 L 645 1415 L 385 618 L 901 618 Z M 499 1622 L 718 1952 L 942 1952 L 624 1622 L 499 1622 Z" unicode="Á" />
<glyph horiz-adv-x="1292" d="M 30 0 L 532 1515 L 764 1515 L 1261 0 L 1102 0 L 948 471 L 336 471 L 184 0 L 30 0 Z M 901 618 L 645 1415 L 385 618 L 901 618 Z M 723 1942 L 966 1622 L 874 1622 L 657 1803 L 436 1622 L 344 1622 L 598 1942 L 723 1942 Z" unicode="Â" />
<glyph horiz-adv-x="1292" d="M 30 0 L 532 1515 L 764 1515 L 1261 0 L 1102 0 L 948 471 L 336 471 L 184 0 L 30 0 Z M 901 618 L 645 1415 L 385 618 L 901 618 Z M 415 1659 L 333 1659 C 334 1737 353 1798 390 1843 C 426 1888 473 1911 530 1911 C 570 1911 619 1890 677 1848 C 735 1805 774 1784 794 1784 C 847 1784 885 1826 909 1911 L 991 1911 C 987 1832 967 1770 930 1724 C 893 1678 846 1655 788 1655 C 748 1655 701 1676 647 1719 C 592 1761 552 1782 528 1782 C 474 1782 437 1741 415 1659 Z" unicode="Ã" />
<glyph horiz-adv-x="1292" d="M 30 0 L 532 1515 L 764 1515 L 1261 0 L 1102 0 L 948 471 L 336 471 L 184 0 L 30 0 Z M 901 618 L 645 1415 L 385 618 L 901 618 Z M 354 1661 L 354 1835 L 528 1835 L 528 1661 L 354 1661 Z M 764 1661 L 764 1835 L 938 1835 L 938 1661 L 764 1661 Z" unicode="Ä" />
<glyph horiz-adv-x="1292" d="M 30 0 L 532 1515 L 764 1515 L 1261 0 L 1102 0 L 948 471 L 336 471 L 184 0 L 30 0 Z M 901 618 L 645 1415 L 385 618 L 901 618 Z M 446 1786 C 446 1842 466 1891 506 1931 C 546 1971 595 1991 651 1991 C 707 1991 755 1971 795 1931 C 834 1891 854 1842 854 1786 C 854 1730 834 1682 794 1643 C 754 1603 707 1583 653 1583 C 594 1583 545 1602 506 1642 C 466 1682 446 1730 446 1786 Z M 786 1786 C 786 1824 773 1857 747 1885 C 720 1912 687 1926 649 1926 C 610 1926 577 1912 551 1886 C 524 1859 511 1826 511 1788 C 511 1749 525 1716 552 1689 C 579 1662 611 1649 647 1649 C 686 1649 719 1662 746 1689 C 772 1715 786 1748 786 1786 Z" unicode="Å" />
<glyph horiz-adv-x="1820" d="M 30 0 L 723 1515 L 1708 1515 L 1708 1370 L 1048 1370 L 1048 878 L 1536 878 L 1536 733 L 1048 733 L 1048 145 L 1779 145 L 1779 0 L 895 0 L 895 471 L 405 471 L 196 0 L 30 0 Z M 895 1370 L 809 1370 L 471 618 L 895 618 L 895 1370 Z" unicode="Æ" />
<glyph horiz-adv-x="1366" d="M 393 -368 L 446 -274 C 506 -305 578 -321 661 -321 C 735 -321 772 -299 772 -256 C 772 -200 711 -172 590 -172 L 671 -26 C 505 -10 370 69 268 213 C 165 357 114 540 114 762 C 114 996 170 1185 280 1329 C 390 1473 536 1546 719 1546 C 860 1546 980 1505 1079 1424 C 1178 1342 1246 1229 1282 1083 L 1124 1059 C 1063 1288 932 1403 731 1403 C 592 1403 482 1346 400 1233 C 318 1120 278 965 278 768 C 278 567 319 407 401 289 C 483 171 593 112 729 112 C 945 112 1085 235 1147 481 L 1304 450 C 1222 150 1040 -8 760 -28 L 725 -90 C 845 -101 905 -155 905 -252 C 905 -301 884 -342 842 -375 C 800 -407 747 -424 682 -424 C 580 -424 484 -405 393 -368 Z" unicode="Ç" />
<glyph horiz-adv-x="1214" d="M 209 0 L 209 1515 L 1102 1515 L 1102 1372 L 362 1372 L 362 876 L 911 876 L 911 731 L 362 731 L 362 145 L 1173 145 L 1173 0 L 209 0 Z M 810 1622 L 685 1622 L 368 1952 L 591 1952 L 810 1622 Z" unicode="È" />
<glyph horiz-adv-x="1214" d="M 209 0 L 209 1515 L 1102 1515 L 1102 1372 L 362 1372 L 362 876 L 911 876 L 911 731 L 362 731 L 362 145 L 1173 145 L 1173 0 L 209 0 Z M 489 1622 L 708 1952 L 932 1952 L 614 1622 L 489 1622 Z" unicode="É" />
<glyph horiz-adv-x="1214" d="M 209 0 L 209 1515 L 1102 1515 L 1102 1372 L 362 1372 L 362 876 L 911 876 L 911 731 L 362 731 L 362 145 L 1173 145 L 1173 0 L 209 0 Z M 698 1942 L 941 1622 L 849 1622 L 632 1803 L 411 1622 L 319 1622 L 573 1942 L 698 1942 Z" unicode="Ê" />
<glyph horiz-adv-x="1214" d="M 209 0 L 209 1515 L 1102 1515 L 1102 1372 L 362 1372 L 362 876 L 911 876 L 911 731 L 362 731 L 362 145 L 1173 145 L 1173 0 L 209 0 Z M 348 1661 L 348 1835 L 522 1835 L 522 1661 L 348 1661 Z M 758 1661 L 758 1835 L 932 1835 L 932 1661 L 758 1661 Z" unicode="Ë" />
<glyph horiz-adv-x="571" d="M 209 0 L 209 1515 L 362 1515 L 362 0 L 209 0 Z M 424 1622 L 299 1622 L -18 1952 L 205 1952 L 424 1622 Z" unicode="Ì" />
<glyph horiz-adv-x="571" d="M 209 0 L 209 1515 L 362 1515 L 362 0 L 209 0 Z M 147 1622 L 366 1952 L 590 1952 L 272 1622 L 147 1622 Z" unicode="Í" />
<glyph horiz-adv-x="571" d="M 209 0 L 209 1515 L 362 1515 L 362 0 L 209 0 Z M 355 1942 L 598 1622 L 506 1622 L 289 1803 L 68 1622 L -24 1622 L 230 1942 L 355 1942 Z" unicode="Î" />
<glyph horiz-adv-x="571" d="M 209 0 L 209 1515 L 362 1515 L 362 0 L 209 0 Z M -5 1661 L -5 1835 L 169 1835 L 169 1661 L -5 1661 Z M 405 1661 L 405 1835 L 579 1835 L 579 1661 L 405 1661 Z" unicode="Ï" />
<glyph horiz-adv-x="1474" d="M 209 0 L 209 700 L 37 700 L 37 827 L 209 827 L 209 1515 L 643 1515 C 867 1515 1042 1449 1169 1317 C 1296 1185 1360 1003 1360 772 C 1360 533 1300 345 1181 207 C 1061 69 865 0 592 0 L 209 0 Z M 651 1370 L 364 1370 L 364 827 L 678 827 L 678 700 L 364 700 L 364 145 L 674 145 C 835 145 962 199 1055 307 C 1147 415 1194 566 1194 762 C 1194 959 1147 1110 1053 1214 C 959 1318 825 1370 651 1370 Z" unicode="Ð" />
<glyph horiz-adv-x="1558" d="M 209 0 L 209 1515 L 444 1515 L 1196 278 L 1196 1515 L 1349 1515 L 1349 0 L 1196 0 L 362 1384 L 362 0 L 209 0 Z M 551 1659 L 469 1659 C 470 1737 489 1798 526 1843 C 562 1888 609 1911 666 1911 C 706 1911 755 1890 813 1848 C 871 1805 910 1784 930 1784 C 983 1784 1021 1826 1045 1911 L 1127 1911 C 1123 1832 1103 1770 1066 1724 C 1029 1678 982 1655 924 1655 C 884 1655 837 1676 783 1719 C 728 1761 688 1782 664 1782 C 610 1782 573 1741 551 1659 Z" unicode="Ñ" />
<glyph horiz-adv-x="1487" d="M 114 745 C 114 985 172 1178 288 1325 C 404 1472 558 1546 749 1546 C 933 1546 1082 1472 1198 1325 C 1314 1177 1372 987 1372 753 C 1372 517 1311 328 1191 186 C 1071 43 923 -28 747 -28 C 559 -28 406 44 289 190 C 172 335 114 520 114 745 Z M 1208 747 C 1208 947 1166 1107 1083 1225 C 999 1343 886 1403 743 1403 C 603 1403 490 1345 406 1229 C 321 1113 278 955 278 755 C 278 557 321 401 406 287 C 490 173 599 116 733 116 C 877 116 992 174 1078 288 C 1164 402 1208 555 1208 747 Z M 933 1622 L 808 1622 L 491 1952 L 714 1952 L 933 1622 Z" unicode="Ò" />
<glyph horiz-adv-x="1487" d="M 114 745 C 114 985 172 1178 288 1325 C 404 1472 558 1546 749 1546 C 933 1546 1082 1472 1198 1325 C 1314 1177 1372 987 1372 753 C 1372 517 1311 328 1191 186 C 1071 43 923 -28 747 -28 C 559 -28 406 44 289 190 C 172 335 114 520 114 745 Z M 1208 747 C 1208 947 1166 1107 1083 1225 C 999 1343 886 1403 743 1403 C 603 1403 490 1345 406 1229 C 321 1113 278 955 278 755 C 278 557 321 401 406 287 C 490 173 599 116 733 116 C 877 116 992 174 1078 288 C 1164 402 1208 555 1208 747 Z M 579 1622 L 798 1952 L 1022 1952 L 704 1622 L 579 1622 Z" unicode="Ó" />
<glyph horiz-adv-x="1487" d="M 114 745 C 114 985 172 1178 288 1325 C 404 1472 558 1546 749 1546 C 933 1546 1082 1472 1198 1325 C 1314 1177 1372 987 1372 753 C 1372 517 1311 328 1191 186 C 1071 43 923 -28 747 -28 C 559 -28 406 44 289 190 C 172 335 114 520 114 745 Z M 1208 747 C 1208 947 1166 1107 1083 1225 C 999 1343 886 1403 743 1403 C 603 1403 490 1345 406 1229 C 321 1113 278 955 278 755 C 278 557 321 401 406 287 C 490 173 599 116 733 116 C 877 116 992 174 1078 288 C 1164 402 1208 555 1208 747 Z M 821 1942 L 1064 1622 L 972 1622 L 755 1803 L 534 1622 L 442 1622 L 696 1942 L 821 1942 Z" unicode="Ô" />
<glyph horiz-adv-x="1487" d="M 114 745 C 114 985 172 1178 288 1325 C 404 1472 558 1546 749 1546 C 933 1546 1082 1472 1198 1325 C 1314 1177 1372 987 1372 753 C 1372 517 1311 328 1191 186 C 1071 43 923 -28 747 -28 C 559 -28 406 44 289 190 C 172 335 114 520 114 745 Z M 1208 747 C 1208 947 1166 1107 1083 1225 C 999 1343 886 1403 743 1403 C 603 1403 490 1345 406 1229 C 321 1113 278 955 278 755 C 278 557 321 401 406 287 C 490 173 599 116 733 116 C 877 116 992 174 1078 288 C 1164 402 1208 555 1208 747 Z M 508 1659 L 426 1659 C 427 1737 446 1798 483 1843 C 519 1888 566 1911 623 1911 C 663 1911 712 1890 770 1848 C 828 1805 867 1784 887 1784 C 940 1784 978 1826 1002 1911 L 1084 1911 C 1080 1832 1060 1770 1023 1724 C 986 1678 939 1655 881 1655 C 841 1655 794 1676 740 1719 C 685 1761 645 1782 621 1782 C 567 1782 530 1741 508 1659 Z" unicode="Õ" />
<glyph horiz-adv-x="1487" d="M 114 745 C 114 985 172 1178 288 1325 C 404 1472 558 1546 749 1546 C 933 1546 1082 1472 1198 1325 C 1314 1177 1372 987 1372 753 C 1372 517 1311 328 1191 186 C 1071 43 923 -28 747 -28 C 559 -28 406 44 289 190 C 172 335 114 520 114 745 Z M 1208 747 C 1208 947 1166 1107 1083 1225 C 999 1343 886 1403 743 1403 C 603 1403 490 1345 406 1229 C 321 1113 278 955 278 755 C 278 557 321 401 406 287 C 490 173 599 116 733 116 C 877 116 992 174 1078 288 C 1164 402 1208 555 1208 747 Z M 450 1661 L 450 1835 L 624 1835 L 624 1661 L 450 1661 Z M 860 1661 L 860 1835 L 1034 1835 L 1034 1661 L 860 1661 Z" unicode="Ö" />
<glyph horiz-adv-x="1366" d="M 592 739 L 184 1149 L 276 1241 L 684 831 L 1093 1241 L 1186 1147 L 778 739 L 1181 334 L 1089 241 L 684 647 L 278 241 L 186 334 L 592 739 Z" unicode="×" />
<glyph horiz-adv-x="1487" d="M 1439 1472 L 1248 1253 C 1331 1114 1373 947 1373 753 C 1373 518 1312 329 1192 186 C 1072 43 924 -28 748 -28 C 568 -28 421 38 305 172 L 133 -24 L 49 47 L 238 264 C 156 399 115 559 115 745 C 115 985 174 1178 290 1325 C 406 1472 559 1546 750 1546 C 924 1546 1068 1479 1182 1345 L 1356 1544 L 1439 1472 Z M 347 389 L 1081 1230 C 998 1345 886 1403 744 1403 C 604 1403 491 1345 407 1229 C 322 1113 279 955 279 755 C 279 612 301 490 347 389 Z M 1139 1128 L 406 288 C 489 173 598 116 734 116 C 878 116 993 174 1080 288 C 1166 402 1209 555 1209 747 C 1209 895 1185 1022 1139 1128 Z" unicode="Ø" />
<glyph horiz-adv-x="1480" d="M 188 524 L 188 1515 L 342 1515 L 342 567 C 342 265 474 114 739 114 C 1005 114 1138 264 1138 565 L 1138 1515 L 1292 1515 L 1292 545 C 1292 362 1243 221 1145 121 C 1047 21 914 -28 747 -28 C 573 -28 437 20 338 118 C 238 216 188 352 188 524 Z M 872 1622 L 747 1622 L 430 1952 L 653 1952 L 872 1622 Z" unicode="Ù" />
<glyph horiz-adv-x="1480" d="M 188 524 L 188 1515 L 342 1515 L 342 567 C 342 265 474 114 739 114 C 1005 114 1138 264 1138 565 L 1138 1515 L 1292 1515 L 1292 545 C 1292 362 1243 221 1145 121 C 1047 21 914 -28 747 -28 C 573 -28 437 20 338 118 C 238 216 188 352 188 524 Z M 608 1622 L 827 1952 L 1051 1952 L 733 1622 L 608 1622 Z" unicode="Ú" />
<glyph horiz-adv-x="1480" d="M 188 524 L 188 1515 L 342 1515 L 342 567 C 342 265 474 114 739 114 C 1005 114 1138 264 1138 565 L 1138 1515 L 1292 1515 L 1292 545 C 1292 362 1243 221 1145 121 C 1047 21 914 -28 747 -28 C 573 -28 437 20 338 118 C 238 216 188 352 188 524 Z M 809 1942 L 1052 1622 L 960 1622 L 743 1803 L 522 1622 L 430 1622 L 684 1942 L 809 1942 Z" unicode="Û" />
<glyph horiz-adv-x="1480" d="M 188 524 L 188 1515 L 342 1515 L 342 567 C 342 265 474 114 739 114 C 1005 114 1138 264 1138 565 L 1138 1515 L 1292 1515 L 1292 545 C 1292 362 1243 221 1145 121 C 1047 21 914 -28 747 -28 C 573 -28 437 20 338 118 C 238 216 188 352 188 524 Z M 450 1661 L 450 1835 L 624 1835 L 624 1661 L 450 1661 Z M 860 1661 L 860 1835 L 1034 1835 L 1034 1661 L 860 1661 Z" unicode="Ü" />
<glyph horiz-adv-x="1208" d="M 530 659 L 30 1515 L 207 1515 L 606 813 L 1005 1515 L 1177 1515 L 678 659 L 678 0 L 530 0 L 530 659 Z M 489 1622 L 708 1952 L 932 1952 L 614 1622 L 489 1622 Z" unicode="Ý" />
<glyph horiz-adv-x="1323" d="M 209 0 L 209 1515 L 362 1515 L 362 1186 L 710 1186 C 870 1186 1000 1146 1102 1067 C 1203 988 1253 887 1253 764 C 1253 634 1201 529 1096 449 C 991 369 851 329 676 329 L 362 329 L 362 0 L 209 0 Z M 655 1042 L 362 1042 L 362 473 L 667 473 C 947 473 1087 568 1087 758 C 1087 947 943 1042 655 1042 Z" unicode="Þ" />
<glyph horiz-adv-x="1272" d="M 342 0 L 194 0 L 194 1009 C 194 1346 347 1515 655 1515 C 786 1515 892 1481 972 1414 C 1052 1346 1093 1262 1093 1161 C 1093 1093 1072 1032 1032 978 C 991 923 934 882 862 854 C 1060 767 1159 622 1159 418 C 1159 294 1123 189 1051 105 C 979 20 890 -22 784 -22 C 656 -22 554 57 479 217 L 600 270 C 650 160 710 106 782 106 C 844 106 896 136 940 196 C 983 256 1005 332 1005 426 C 1005 660 876 782 620 790 L 620 919 C 834 921 942 999 942 1155 C 942 1223 916 1278 865 1320 C 814 1362 745 1384 659 1384 C 447 1384 342 1274 342 1054 L 342 0 Z" unicode="ß" />
<glyph horiz-adv-x="1126" d="M 807 180 C 673 45 535 -22 391 -22 C 299 -22 226 5 170 61 C 114 116 86 185 86 268 C 86 356 122 436 194 507 C 266 577 470 646 807 712 L 807 739 C 807 825 786 886 746 923 C 705 960 655 979 596 979 C 468 979 343 918 219 798 L 112 889 C 245 1027 397 1097 569 1097 C 677 1097 768 1067 842 1007 C 915 947 952 848 952 712 L 952 258 C 952 162 961 76 981 0 L 835 0 C 817 58 808 118 807 180 Z M 807 264 L 807 606 C 557 548 400 495 336 445 C 272 395 239 336 239 270 C 239 222 257 182 293 152 C 329 121 375 106 432 106 C 536 106 661 158 807 264 Z M 718 1210 L 593 1210 L 276 1540 L 499 1540 L 718 1210 Z" unicode="à" />
<glyph horiz-adv-x="1126" d="M 807 180 C 673 45 535 -22 391 -22 C 299 -22 226 5 170 61 C 114 116 86 185 86 268 C 86 356 122 436 194 507 C 266 577 470 646 807 712 L 807 739 C 807 825 786 886 746 923 C 705 960 655 979 596 979 C 468 979 343 918 219 798 L 112 889 C 245 1027 397 1097 569 1097 C 677 1097 768 1067 842 1007 C 915 947 952 848 952 712 L 952 258 C 952 162 961 76 981 0 L 835 0 C 817 58 808 118 807 180 Z M 807 264 L 807 606 C 557 548 400 495 336 445 C 272 395 239 336 239 270 C 239 222 257 182 293 152 C 329 121 375 106 432 106 C 536 106 661 158 807 264 Z M 395 1210 L 614 1540 L 838 1540 L 520 1210 L 395 1210 Z" unicode="á" />
<glyph horiz-adv-x="1126" d="M 807 180 C 673 45 535 -22 391 -22 C 299 -22 226 5 170 61 C 114 116 86 185 86 268 C 86 356 122 436 194 507 C 266 577 470 646 807 712 L 807 739 C 807 825 786 886 746 923 C 705 960 655 979 596 979 C 468 979 343 918 219 798 L 112 889 C 245 1027 397 1097 569 1097 C 677 1097 768 1067 842 1007 C 915 947 952 848 952 712 L 952 258 C 952 162 961 76 981 0 L 835 0 C 817 58 808 118 807 180 Z M 807 264 L 807 606 C 557 548 400 495 336 445 C 272 395 239 336 239 270 C 239 222 257 182 293 152 C 329 121 375 106 432 106 C 536 106 661 158 807 264 Z M 631 1530 L 874 1210 L 782 1210 L 565 1391 L 344 1210 L 252 1210 L 506 1530 L 631 1530 Z" unicode="â" />
<glyph horiz-adv-x="1126" d="M 807 180 C 673 45 535 -22 391 -22 C 299 -22 226 5 170 61 C 114 116 86 185 86 268 C 86 356 122 436 194 507 C 266 577 470 646 807 712 L 807 739 C 807 825 786 886 746 923 C 705 960 655 979 596 979 C 468 979 343 918 219 798 L 112 889 C 245 1027 397 1097 569 1097 C 677 1097 768 1067 842 1007 C 915 947 952 848 952 712 L 952 258 C 952 162 961 76 981 0 L 835 0 C 817 58 808 118 807 180 Z M 807 264 L 807 606 C 557 548 400 495 336 445 C 272 395 239 336 239 270 C 239 222 257 182 293 152 C 329 121 375 106 432 106 C 536 106 661 158 807 264 Z M 317 1247 L 235 1247 C 236 1325 255 1386 292 1431 C 328 1476 375 1499 432 1499 C 472 1499 521 1478 579 1436 C 637 1393 676 1372 696 1372 C 749 1372 787 1414 811 1499 L 893 1499 C 889 1420 869 1358 832 1312 C 795 1266 748 1243 690 1243 C 650 1243 603 1264 549 1307 C 494 1349 454 1370 430 1370 C 376 1370 339 1329 317 1247 Z" unicode="ã" />
<glyph horiz-adv-x="1126" d="M 807 180 C 673 45 535 -22 391 -22 C 299 -22 226 5 170 61 C 114 116 86 185 86 268 C 86 356 122 436 194 507 C 266 577 470 646 807 712 L 807 739 C 807 825 786 886 746 923 C 705 960 655 979 596 979 C 468 979 343 918 219 798 L 112 889 C 245 1027 397 1097 569 1097 C 677 1097 768 1067 842 1007 C 915 947 952 848 952 712 L 952 258 C 952 162 961 76 981 0 L 835 0 C 817 58 808 118 807 180 Z M 807 264 L 807 606 C 557 548 400 495 336 445 C 272 395 239 336 239 270 C 239 222 257 182 293 152 C 329 121 375 106 432 106 C 536 106 661 158 807 264 Z M 260 1249 L 260 1423 L 434 1423 L 434 1249 L 260 1249 Z M 670 1249 L 670 1423 L 844 1423 L 844 1249 L 670 1249 Z" unicode="ä" />
<glyph horiz-adv-x="1126" d="M 807 180 C 673 45 535 -22 391 -22 C 299 -22 226 5 170 61 C 114 116 86 185 86 268 C 86 356 122 436 194 507 C 266 577 470 646 807 712 L 807 739 C 807 825 786 886 746 923 C 705 960 655 979 596 979 C 468 979 343 918 219 798 L 112 889 C 245 1027 397 1097 569 1097 C 677 1097 768 1067 842 1007 C 915 947 952 848 952 712 L 952 258 C 952 162 961 76 981 0 L 835 0 C 817 58 808 118 807 180 Z M 807 264 L 807 606 C 557 548 400 495 336 445 C 272 395 239 336 239 270 C 239 222 257 182 293 152 C 329 121 375 106 432 106 C 536 106 661 158 807 264 Z M 356 1374 C 356 1430 376 1479 416 1519 C 456 1559 505 1579 561 1579 C 617 1579 665 1559 705 1519 C 744 1479 764 1430 764 1374 C 764 1318 744 1270 704 1231 C 664 1191 617 1171 563 1171 C 504 1171 455 1190 416 1230 C 376 1270 356 1318 356 1374 Z M 696 1374 C 696 1412 683 1445 657 1473 C 630 1500 597 1514 559 1514 C 520 1514 487 1500 461 1474 C 434 1447 421 1414 421 1376 C 421 1337 435 1304 462 1277 C 489 1250 521 1237 557 1237 C 596 1237 629 1250 656 1277 C 682 1303 696 1336 696 1374 Z" unicode="å" />
<glyph horiz-adv-x="1800" d="M 882 227 C 702 61 538 -22 391 -22 C 299 -22 226 5 170 61 C 114 116 86 185 86 268 C 86 356 122 436 194 507 C 266 577 470 646 807 712 L 807 739 C 807 825 786 886 746 923 C 705 960 655 979 596 979 C 468 979 343 918 219 798 L 112 889 C 245 1027 397 1097 569 1097 C 726 1097 840 1032 912 903 C 993 1032 1105 1097 1249 1097 C 1366 1097 1471 1051 1563 959 C 1655 867 1702 722 1706 524 L 946 524 C 951 394 983 292 1042 218 C 1100 144 1171 106 1255 106 C 1378 106 1489 179 1587 325 L 1706 241 C 1574 65 1427 -22 1263 -22 C 1179 -22 1100 1 1025 49 C 949 97 902 156 882 227 Z M 1554 655 C 1544 755 1510 834 1454 893 C 1398 951 1331 981 1253 981 C 1171 981 1102 948 1044 884 C 986 820 955 743 952 655 L 1554 655 Z M 807 264 L 807 606 C 557 548 400 495 336 445 C 272 395 239 336 239 270 C 239 222 257 182 293 152 C 329 121 375 106 432 106 C 536 106 661 158 807 264 Z" unicode="æ" />
<glyph horiz-adv-x="1057" d="M 237 -368 L 291 -274 C 351 -305 423 -321 506 -321 C 579 -321 616 -299 616 -256 C 616 -200 555 -172 434 -172 L 520 -19 C 396 -3 295 54 218 155 C 141 256 102 384 102 538 C 102 702 147 836 239 941 C 330 1045 443 1097 579 1097 C 759 1097 899 1005 999 821 L 872 751 C 792 901 694 977 577 977 C 483 977 406 936 346 856 C 286 776 256 667 256 530 C 256 409 286 308 347 228 C 407 147 483 106 573 106 C 699 106 799 181 872 332 L 999 260 C 898 82 768 -11 608 -21 L 569 -90 C 689 -101 749 -155 749 -252 C 749 -301 729 -342 687 -375 C 645 -407 591 -424 526 -424 C 424 -424 328 -405 237 -368 Z" unicode="ç" />
<glyph horiz-adv-x="1102" d="M 889 325 L 1007 241 C 876 65 729 -22 565 -22 C 433 -22 323 28 235 131 C 147 234 102 371 102 542 C 102 708 145 842 232 944 C 319 1046 425 1097 551 1097 C 668 1097 773 1051 865 958 C 957 865 1005 720 1007 524 L 248 524 C 253 394 285 291 344 217 C 402 143 473 106 557 106 C 680 106 791 179 889 325 Z M 254 655 L 856 655 C 846 755 812 834 756 893 C 699 951 632 981 555 981 C 473 981 403 948 345 883 C 287 818 256 742 254 655 Z M 743 1210 L 618 1210 L 301 1540 L 524 1540 L 743 1210 Z" unicode="è" />
<glyph horiz-adv-x="1102" d="M 889 325 L 1007 241 C 876 65 729 -22 565 -22 C 433 -22 323 28 235 131 C 147 234 102 371 102 542 C 102 708 145 842 232 944 C 319 1046 425 1097 551 1097 C 668 1097 773 1051 865 958 C 957 865 1005 720 1007 524 L 248 524 C 253 394 285 291 344 217 C 402 143 473 106 557 106 C 680 106 791 179 889 325 Z M 254 655 L 856 655 C 846 755 812 834 756 893 C 699 951 632 981 555 981 C 473 981 403 948 345 883 C 287 818 256 742 254 655 Z M 399 1210 L 618 1540 L 842 1540 L 524 1210 L 399 1210 Z" unicode="é" />
<glyph horiz-adv-x="1102" d="M 889 325 L 1007 241 C 876 65 729 -22 565 -22 C 433 -22 323 28 235 131 C 147 234 102 371 102 542 C 102 708 145 842 232 944 C 319 1046 425 1097 551 1097 C 668 1097 773 1051 865 958 C 957 865 1005 720 1007 524 L 248 524 C 253 394 285 291 344 217 C 402 143 473 106 557 106 C 680 106 791 179 889 325 Z M 254 655 L 856 655 C 846 755 812 834 756 893 C 699 951 632 981 555 981 C 473 981 403 948 345 883 C 287 818 256 742 254 655 Z M 627 1530 L 870 1210 L 778 1210 L 561 1391 L 340 1210 L 248 1210 L 502 1530 L 627 1530 Z" unicode="ê" />
<glyph horiz-adv-x="1102" d="M 889 325 L 1007 241 C 876 65 729 -22 565 -22 C 433 -22 323 28 235 131 C 147 234 102 371 102 542 C 102 708 145 842 232 944 C 319 1046 425 1097 551 1097 C 668 1097 773 1051 865 958 C 957 865 1005 720 1007 524 L 248 524 C 253 394 285 291 344 217 C 402 143 473 106 557 106 C 680 106 791 179 889 325 Z M 254 655 L 856 655 C 846 755 812 834 756 893 C 699 951 632 981 555 981 C 473 981 403 948 345 883 C 287 818 256 742 254 655 Z M 260 1249 L 260 1423 L 434 1423 L 434 1249 L 260 1249 Z M 670 1249 L 670 1423 L 844 1423 L 844 1249 L 670 1249 Z" unicode="ë" />
<glyph horiz-adv-x="535" d="M 340 0 L 195 0 L 195 1075 L 340 1075 L 340 0 Z M 409 1210 L 284 1210 L -33 1540 L 190 1540 L 409 1210 Z" unicode="ì" />
<glyph horiz-adv-x="535" d="M 340 0 L 195 0 L 195 1075 L 340 1075 L 340 0 Z M 125 1210 L 344 1540 L 568 1540 L 250 1210 L 125 1210 Z" unicode="í" />
<glyph horiz-adv-x="535" d="M 340 0 L 195 0 L 195 1075 L 340 1075 L 340 0 Z M 336 1530 L 579 1210 L 487 1210 L 270 1391 L 49 1210 L -43 1210 L 211 1530 L 336 1530 Z" unicode="î" />
<glyph horiz-adv-x="535" d="M 340 0 L 195 0 L 195 1075 L 340 1075 L 340 0 Z M -25 1249 L -25 1423 L 149 1423 L 149 1249 L -25 1249 Z M 385 1249 L 385 1423 L 559 1423 L 559 1249 L 385 1249 Z" unicode="ï" />
<glyph horiz-adv-x="1173" d="M 846 991 C 806 1097 748 1199 673 1298 L 485 1181 L 442 1251 L 621 1362 C 567 1422 512 1473 454 1515 L 620 1515 C 654 1485 687 1454 717 1422 L 868 1515 L 911 1446 L 773 1360 C 967 1128 1065 867 1065 575 C 1065 391 1021 246 935 139 C 849 31 734 -22 592 -22 C 450 -22 334 30 243 134 C 151 238 106 372 106 536 C 106 699 151 833 242 939 C 333 1044 447 1097 585 1097 C 679 1097 766 1061 846 991 Z M 592 971 C 492 971 412 932 351 854 C 290 776 260 671 260 540 C 260 408 289 303 349 224 C 409 145 488 106 588 106 C 684 106 761 145 821 225 C 881 304 911 410 911 542 C 911 670 882 774 823 853 C 763 931 686 971 592 971 Z" unicode="ð" />
<glyph horiz-adv-x="1243" d="M 340 831 L 340 0 L 194 0 L 194 1075 L 340 1075 L 340 950 C 502 1048 639 1097 749 1097 C 840 1097 913 1066 969 1004 C 1024 942 1052 859 1052 755 L 1052 0 L 907 0 L 907 717 C 907 880 845 962 723 962 C 616 962 488 918 340 831 Z M 381 1247 L 299 1247 C 300 1325 319 1386 356 1431 C 392 1476 439 1499 496 1499 C 536 1499 585 1478 643 1436 C 701 1393 740 1372 760 1372 C 813 1372 851 1414 875 1499 L 957 1499 C 953 1420 933 1358 896 1312 C 859 1266 812 1243 754 1243 C 714 1243 667 1264 613 1307 C 558 1349 518 1370 494 1370 C 440 1370 403 1329 381 1247 Z" unicode="ñ" />
<glyph horiz-adv-x="1171" d="M 102 534 C 102 703 147 839 238 943 C 329 1046 446 1097 588 1097 C 726 1097 840 1043 932 937 C 1023 831 1069 694 1069 528 C 1069 365 1023 233 933 131 C 842 29 732 -22 602 -22 C 456 -22 337 29 243 133 C 149 237 102 370 102 534 Z M 915 542 C 915 673 886 777 828 855 C 770 932 691 971 592 971 C 488 971 406 931 346 851 C 286 771 256 668 256 540 C 256 410 286 304 347 224 C 407 144 488 104 588 104 C 684 104 762 144 823 224 C 884 304 915 410 915 542 Z M 767 1210 L 642 1210 L 325 1540 L 548 1540 L 767 1210 Z" unicode="ò" />
<glyph horiz-adv-x="1171" d="M 102 534 C 102 703 147 839 238 943 C 329 1046 446 1097 588 1097 C 726 1097 840 1043 932 937 C 1023 831 1069 694 1069 528 C 1069 365 1023 233 933 131 C 842 29 732 -22 602 -22 C 456 -22 337 29 243 133 C 149 237 102 370 102 534 Z M 915 542 C 915 673 886 777 828 855 C 770 932 691 971 592 971 C 488 971 406 931 346 851 C 286 771 256 668 256 540 C 256 410 286 304 347 224 C 407 144 488 104 588 104 C 684 104 762 144 823 224 C 884 304 915 410 915 542 Z M 446 1210 L 665 1540 L 889 1540 L 571 1210 L 446 1210 Z" unicode="ó" />
<glyph horiz-adv-x="1171" d="M 102 534 C 102 703 147 839 238 943 C 329 1046 446 1097 588 1097 C 726 1097 840 1043 932 937 C 1023 831 1069 694 1069 528 C 1069 365 1023 233 933 131 C 842 29 732 -22 602 -22 C 456 -22 337 29 243 133 C 149 237 102 370 102 534 Z M 915 542 C 915 673 886 777 828 855 C 770 932 691 971 592 971 C 488 971 406 931 346 851 C 286 771 256 668 256 540 C 256 410 286 304 347 224 C 407 144 488 104 588 104 C 684 104 762 144 823 224 C 884 304 915 410 915 542 Z M 676 1530 L 919 1210 L 827 1210 L 610 1391 L 389 1210 L 297 1210 L 551 1530 L 676 1530 Z" unicode="ô" />
<glyph horiz-adv-x="1171" d="M 102 534 C 102 703 147 839 238 943 C 329 1046 446 1097 588 1097 C 726 1097 840 1043 932 937 C 1023 831 1069 694 1069 528 C 1069 365 1023 233 933 131 C 842 29 732 -22 602 -22 C 456 -22 337 29 243 133 C 149 237 102 370 102 534 Z M 915 542 C 915 673 886 777 828 855 C 770 932 691 971 592 971 C 488 971 406 931 346 851 C 286 771 256 668 256 540 C 256 410 286 304 347 224 C 407 144 488 104 588 104 C 684 104 762 144 823 224 C 884 304 915 410 915 542 Z M 362 1247 L 280 1247 C 281 1325 300 1386 337 1431 C 373 1476 420 1499 477 1499 C 517 1499 566 1478 624 1436 C 682 1393 721 1372 741 1372 C 794 1372 832 1414 856 1499 L 938 1499 C 934 1420 914 1358 877 1312 C 840 1266 793 1243 735 1243 C 695 1243 648 1264 594 1307 C 539 1349 499 1370 475 1370 C 421 1370 384 1329 362 1247 Z" unicode="õ" />
<glyph horiz-adv-x="1171" d="M 102 534 C 102 703 147 839 238 943 C 329 1046 446 1097 588 1097 C 726 1097 840 1043 932 937 C 1023 831 1069 694 1069 528 C 1069 365 1023 233 933 131 C 842 29 732 -22 602 -22 C 456 -22 337 29 243 133 C 149 237 102 370 102 534 Z M 915 542 C 915 673 886 777 828 855 C 770 932 691 971 592 971 C 488 971 406 931 346 851 C 286 771 256 668 256 540 C 256 410 286 304 347 224 C 407 144 488 104 588 104 C 684 104 762 144 823 224 C 884 304 915 410 915 542 Z M 305 1249 L 305 1423 L 479 1423 L 479 1249 L 305 1249 Z M 715 1249 L 715 1423 L 889 1423 L 889 1249 L 715 1249 Z" unicode="ö" />
<glyph horiz-adv-x="1366" d="M 603 1079 L 603 1257 L 762 1257 L 762 1079 L 603 1079 Z M 139 696 L 139 821 L 1227 821 L 1227 696 L 139 696 Z M 603 260 L 603 438 L 762 438 L 762 260 L 603 260 Z" unicode="÷" />
<glyph horiz-adv-x="1171" d="M 1102 1022 L 975 883 C 1039 783 1071 664 1071 528 C 1071 365 1025 233 935 131 C 844 29 734 -22 604 -22 C 472 -22 360 21 269 108 L 149 -22 L 71 53 L 199 193 C 135 289 104 402 104 534 C 104 702 150 838 241 942 C 331 1046 448 1097 590 1097 C 712 1097 818 1054 906 968 L 1024 1097 L 1102 1022 Z M 302 306 L 817 870 C 759 937 685 971 594 971 C 490 971 408 931 348 851 C 288 771 258 668 258 540 C 258 451 272 373 302 306 Z M 876 774 L 361 209 C 420 139 496 104 590 104 C 686 104 765 144 826 224 C 887 304 917 410 917 542 C 917 630 903 708 876 774 Z" unicode="ø" />
<glyph horiz-adv-x="1243" d="M 901 0 L 901 172 C 739 42 603 -22 495 -22 C 401 -22 327 9 273 74 C 219 139 192 229 192 344 L 192 1075 L 338 1075 L 338 360 C 338 287 356 227 393 181 C 430 135 477 112 534 112 C 624 112 747 176 901 305 L 901 1075 L 1046 1075 L 1046 0 L 901 0 Z M 769 1210 L 644 1210 L 327 1540 L 550 1540 L 769 1210 Z" unicode="ù" />
<glyph horiz-adv-x="1243" d="M 901 0 L 901 172 C 739 42 603 -22 495 -22 C 401 -22 327 9 273 74 C 219 139 192 229 192 344 L 192 1075 L 338 1075 L 338 360 C 338 287 356 227 393 181 C 430 135 477 112 534 112 C 624 112 747 176 901 305 L 901 1075 L 1046 1075 L 1046 0 L 901 0 Z M 459 1210 L 678 1540 L 902 1540 L 584 1210 L 459 1210 Z" unicode="ú" />
<glyph horiz-adv-x="1243" d="M 901 0 L 901 172 C 739 42 603 -22 495 -22 C 401 -22 327 9 273 74 C 219 139 192 229 192 344 L 192 1075 L 338 1075 L 338 360 C 338 287 356 227 393 181 C 430 135 477 112 534 112 C 624 112 747 176 901 305 L 901 1075 L 1046 1075 L 1046 0 L 901 0 Z M 684 1530 L 927 1210 L 835 1210 L 618 1391 L 397 1210 L 305 1210 L 559 1530 L 684 1530 Z" unicode="û" />
<glyph horiz-adv-x="1243" d="M 901 0 L 901 172 C 739 42 603 -22 495 -22 C 401 -22 327 9 273 74 C 219 139 192 229 192 344 L 192 1075 L 338 1075 L 338 360 C 338 287 356 227 393 181 C 430 135 477 112 534 112 C 624 112 747 176 901 305 L 901 1075 L 1046 1075 L 1046 0 L 901 0 Z M 331 1249 L 331 1423 L 505 1423 L 505 1249 L 331 1249 Z M 741 1249 L 741 1423 L 915 1423 L 915 1249 L 741 1249 Z" unicode="ü" />
<glyph horiz-adv-x="1061" d="M 454 0 L 41 1075 L 203 1075 L 530 196 L 856 1075 L 1020 1075 L 581 -69 C 531 -201 489 -285 457 -323 C 425 -360 383 -388 332 -407 C 280 -426 219 -436 149 -436 C 118 -436 72 -430 10 -420 L 47 -280 C 79 -287 113 -291 151 -291 C 215 -291 270 -278 315 -254 C 359 -230 406 -145 454 0 Z M 373 1210 L 592 1540 L 816 1540 L 498 1210 L 373 1210 Z" unicode="ý" />
<glyph horiz-adv-x="1259" d="M 338 1515 L 338 942 C 464 1045 585 1097 702 1097 C 834 1097 944 1045 1030 940 C 1116 835 1159 700 1159 534 C 1159 370 1116 236 1031 133 C 945 29 836 -22 702 -22 C 584 -22 463 32 338 141 L 338 -409 L 192 -409 L 192 1515 L 338 1515 Z M 338 805 L 338 262 C 466 158 582 106 686 106 C 785 106 863 144 920 221 C 976 298 1005 404 1005 538 C 1005 668 976 771 918 848 C 860 925 784 964 690 964 C 578 964 461 911 338 805 Z" unicode="þ" />
<glyph horiz-adv-x="1061" d="M 454 0 L 41 1075 L 203 1075 L 530 196 L 856 1075 L 1020 1075 L 581 -69 C 531 -201 489 -285 457 -323 C 425 -360 383 -388 332 -407 C 280 -426 219 -436 149 -436 C 118 -436 72 -430 10 -420 L 47 -280 C 79 -287 113 -291 151 -291 C 215 -291 270 -278 315 -254 C 359 -230 406 -145 454 0 Z M 239 1249 L 239 1423 L 413 1423 L 413 1249 L 239 1249 Z M 649 1249 L 649 1423 L 823 1423 L 823 1249 L 649 1249 Z" unicode="ÿ" />
<glyph horiz-adv-x="1292" d="M 30 0 L 532 1515 L 764 1515 L 1261 0 L 1102 0 L 948 471 L 336 471 L 184 0 L 30 0 Z M 901 618 L 645 1415 L 385 618 L 901 618 Z M 351 1677 L 351 1802 L 943 1802 L 943 1677 L 351 1677 Z" unicode="Ā" />
<glyph horiz-adv-x="1126" d="M 807 180 C 673 45 535 -22 391 -22 C 299 -22 226 5 170 61 C 114 116 86 185 86 268 C 86 356 122 436 194 507 C 266 577 470 646 807 712 L 807 739 C 807 825 786 886 746 923 C 705 960 655 979 596 979 C 468 979 343 918 219 798 L 112 889 C 245 1027 397 1097 569 1097 C 677 1097 768 1067 842 1007 C 915 947 952 848 952 712 L 952 258 C 952 162 961 76 981 0 L 835 0 C 817 58 808 118 807 180 Z M 807 264 L 807 606 C 557 548 400 495 336 445 C 272 395 239 336 239 270 C 239 222 257 182 293 152 C 329 121 375 106 432 106 C 536 106 661 158 807 264 Z M 238 1309 L 238 1434 L 830 1434 L 830 1309 L 238 1309 Z" unicode="ā" />
<glyph horiz-adv-x="1292" d="M 30 0 L 532 1515 L 764 1515 L 1261 0 L 1102 0 L 948 471 L 336 471 L 184 0 L 30 0 Z M 901 618 L 645 1415 L 385 618 L 901 618 Z M 860 1877 L 960 1877 C 935 1797 894 1734 838 1689 C 782 1644 718 1621 647 1621 C 499 1621 396 1706 338 1877 L 436 1877 C 479 1805 550 1769 649 1769 C 747 1769 817 1805 860 1877 Z" unicode="Ă" />
<glyph horiz-adv-x="1126" d="M 807 180 C 673 45 535 -22 391 -22 C 299 -22 226 5 170 61 C 114 116 86 185 86 268 C 86 356 122 436 194 507 C 266 577 470 646 807 712 L 807 739 C 807 825 786 886 746 923 C 705 960 655 979 596 979 C 468 979 343 918 219 798 L 112 889 C 245 1027 397 1097 569 1097 C 677 1097 768 1067 842 1007 C 915 947 952 848 952 712 L 952 258 C 952 162 961 76 981 0 L 835 0 C 817 58 808 118 807 180 Z M 807 264 L 807 606 C 557 548 400 495 336 445 C 272 395 239 336 239 270 C 239 222 257 182 293 152 C 329 121 375 106 432 106 C 536 106 661 158 807 264 Z M 769 1500 L 869 1500 C 844 1420 803 1357 747 1312 C 691 1267 627 1244 556 1244 C 408 1244 305 1329 247 1500 L 345 1500 C 388 1428 459 1392 558 1392 C 656 1392 726 1428 769 1500 Z" unicode="ă" />
<glyph horiz-adv-x="1292" d="M 901 618 L 645 1415 L 385 618 L 901 618 Z M 1514 -246 L 1514 -364 C 1442 -409 1368 -432 1291 -432 C 1226 -432 1174 -411 1135 -369 C 1095 -327 1076 -274 1076 -209 C 1076 -143 1087 -74 1109 0 L 1102 0 L 948 471 L 336 471 L 184 0 L 30 0 L 532 1515 L 764 1515 L 1261 0 L 1232 0 C 1212 -51 1203 -98 1203 -141 C 1203 -185 1214 -222 1237 -252 C 1261 -284 1295 -301 1338 -301 C 1402 -301 1460 -282 1514 -246 Z" unicode="Ą" />
<glyph horiz-adv-x="1126" d="M 961 0 C 941 -52 932 -100 932 -144 C 932 -188 944 -226 969 -256 C 994 -286 1027 -301 1069 -301 C 1128 -301 1186 -282 1243 -246 L 1243 -365 C 1173 -408 1101 -430 1029 -430 C 958 -430 903 -409 864 -369 C 824 -328 805 -274 805 -207 C 805 -143 815 -74 837 0 C 819 56 809 116 807 180 C 671 45 533 -22 391 -22 C 299 -22 226 5 170 61 C 114 116 86 185 86 269 C 86 358 121 437 193 507 C 265 577 469 645 807 713 L 807 739 C 807 815 788 874 752 917 C 715 959 661 981 590 981 C 469 981 345 920 219 799 L 113 889 C 249 1027 401 1097 569 1097 C 669 1097 758 1068 836 1011 C 913 954 952 855 952 713 L 952 258 C 952 171 961 85 981 0 L 961 0 Z M 807 264 L 807 606 C 569 552 415 501 345 452 C 275 402 240 342 240 272 C 240 220 258 179 294 149 C 330 119 375 104 429 104 C 535 104 661 157 807 264 Z" unicode="ą" />
<glyph horiz-adv-x="1366" d="M 1147 481 L 1304 450 C 1264 298 1193 180 1091 97 C 989 13 868 -28 727 -28 C 546 -28 399 45 285 191 C 171 337 114 527 114 762 C 114 996 170 1185 280 1329 C 390 1473 536 1546 719 1546 C 860 1546 980 1505 1079 1424 C 1178 1342 1246 1229 1282 1083 L 1124 1059 C 1063 1288 932 1403 731 1403 C 592 1403 482 1346 400 1233 C 318 1120 278 965 278 768 C 278 567 319 407 401 289 C 483 171 593 112 729 112 C 945 112 1085 235 1147 481 Z M 559 1622 L 778 1952 L 1002 1952 L 684 1622 L 559 1622 Z" unicode="Ć" />
<glyph horiz-adv-x="1057" d="M 872 332 L 999 260 C 892 72 751 -22 577 -22 C 439 -22 326 28 236 132 C 146 235 102 370 102 538 C 102 702 147 836 239 941 C 330 1045 443 1097 579 1097 C 759 1097 899 1005 999 821 L 872 751 C 792 901 694 977 577 977 C 483 977 406 936 346 856 C 286 776 256 667 256 530 C 256 409 286 308 347 228 C 407 147 483 106 573 106 C 699 106 799 181 872 332 Z M 415 1181 L 634 1511 L 858 1511 L 540 1181 L 415 1181 Z" unicode="ć" />
<glyph horiz-adv-x="1366" d="M 1147 481 L 1304 450 C 1264 298 1193 180 1091 97 C 989 13 868 -28 727 -28 C 546 -28 399 45 285 191 C 171 337 114 527 114 762 C 114 996 170 1185 280 1329 C 390 1473 536 1546 719 1546 C 860 1546 980 1505 1079 1424 C 1178 1342 1246 1229 1282 1083 L 1124 1059 C 1063 1288 932 1403 731 1403 C 592 1403 482 1346 400 1233 C 318 1120 278 965 278 768 C 278 567 319 407 401 289 C 483 171 593 112 729 112 C 945 112 1085 235 1147 481 Z M 776 1942 L 1019 1622 L 927 1622 L 710 1803 L 489 1622 L 397 1622 L 651 1942 L 776 1942 Z" unicode="Ĉ" />
<glyph horiz-adv-x="1057" d="M 872 332 L 999 260 C 892 72 751 -22 577 -22 C 439 -22 326 28 236 132 C 146 235 102 370 102 538 C 102 702 147 836 239 941 C 330 1045 443 1097 579 1097 C 759 1097 899 1005 999 821 L 872 751 C 792 901 694 977 577 977 C 483 977 406 936 346 856 C 286 776 256 667 256 530 C 256 409 286 308 347 228 C 407 147 483 106 573 106 C 699 106 799 181 872 332 Z M 634 1530 L 877 1210 L 785 1210 L 568 1391 L 347 1210 L 255 1210 L 509 1530 L 634 1530 Z" unicode="ĉ" />
<glyph horiz-adv-x="1366" d="M 1147 481 L 1304 450 C 1264 298 1193 180 1091 97 C 989 13 868 -28 727 -28 C 546 -28 399 45 285 191 C 171 337 114 527 114 762 C 114 996 170 1185 280 1329 C 390 1473 536 1546 719 1546 C 860 1546 980 1505 1079 1424 C 1178 1342 1246 1229 1282 1083 L 1124 1059 C 1063 1288 932 1403 731 1403 C 592 1403 482 1346 400 1233 C 318 1120 278 965 278 768 C 278 567 319 407 401 289 C 483 171 593 112 729 112 C 945 112 1085 235 1147 481 Z M 647 1661 L 647 1855 L 815 1855 L 815 1661 L 647 1661 Z" unicode="Ċ" />
<glyph horiz-adv-x="1057" d="M 872 332 L 999 260 C 892 72 751 -22 577 -22 C 439 -22 326 28 236 132 C 146 235 102 370 102 538 C 102 702 147 836 239 941 C 330 1045 443 1097 579 1097 C 759 1097 899 1005 999 821 L 872 751 C 792 901 694 977 577 977 C 483 977 406 936 346 856 C 286 776 256 667 256 530 C 256 409 286 308 347 228 C 407 147 483 106 573 106 C 699 106 799 181 872 332 Z M 493 1266 L 493 1460 L 661 1460 L 661 1266 L 493 1266 Z" unicode="ċ" />
<glyph horiz-adv-x="1366" d="M 1147 481 L 1304 450 C 1264 298 1193 180 1091 97 C 989 13 868 -28 727 -28 C 546 -28 399 45 285 191 C 171 337 114 527 114 762 C 114 996 170 1185 280 1329 C 390 1473 536 1546 719 1546 C 860 1546 980 1505 1079 1424 C 1178 1342 1246 1229 1282 1083 L 1124 1059 C 1063 1288 932 1403 731 1403 C 592 1403 482 1346 400 1233 C 318 1120 278 965 278 768 C 278 567 319 407 401 289 C 483 171 593 112 729 112 C 945 112 1085 235 1147 481 Z M 676 1622 L 433 1942 L 523 1942 L 742 1764 L 963 1942 L 1055 1942 L 801 1622 L 676 1622 Z" unicode="Č" />
<glyph horiz-adv-x="1057" d="M 872 332 L 999 260 C 892 72 751 -22 577 -22 C 439 -22 326 28 236 132 C 146 235 102 370 102 538 C 102 702 147 836 239 941 C 330 1045 443 1097 579 1097 C 759 1097 899 1005 999 821 L 872 751 C 792 901 694 977 577 977 C 483 977 406 936 346 856 C 286 776 256 667 256 530 C 256 409 286 308 347 228 C 407 147 483 106 573 106 C 699 106 799 181 872 332 Z M 516 1181 L 273 1501 L 363 1501 L 582 1323 L 803 1501 L 895 1501 L 641 1181 L 516 1181 Z" unicode="č" />
<glyph horiz-adv-x="1474" d="M 209 0 L 209 1515 L 643 1515 C 867 1515 1042 1449 1169 1317 C 1296 1185 1360 1003 1360 772 C 1360 533 1300 345 1181 207 C 1061 69 865 0 592 0 L 209 0 Z M 651 1370 L 364 1370 L 364 145 L 674 145 C 835 145 962 199 1055 307 C 1147 415 1194 566 1194 762 C 1194 959 1147 1110 1053 1214 C 959 1318 825 1370 651 1370 Z M 528 1622 L 285 1942 L 375 1942 L 594 1764 L 815 1942 L 907 1942 L 653 1622 L 528 1622 Z" unicode="Ď" />
<glyph horiz-adv-x="1349" d="M 932 149 C 802 35 675 -22 553 -22 C 423 -22 316 28 230 131 C 144 234 102 368 102 534 C 102 700 144 836 230 940 C 316 1044 424 1097 555 1097 C 679 1097 801 1044 923 938 L 923 1515 L 1069 1515 L 1069 336 C 1069 185 1081 73 1106 0 L 956 0 C 941 51 933 101 932 149 Z M 923 274 L 923 809 C 803 915 687 968 575 968 C 477 968 399 930 342 855 C 284 780 256 677 256 547 C 256 409 285 302 343 225 C 401 148 478 110 575 110 C 683 110 799 164 923 274 Z M 1302 1325 L 1198 1325 L 1198 1515 L 1417 1515 L 1417 1325 L 1247 1063 L 1157 1063 L 1302 1325 Z" unicode="ď" />
<glyph horiz-adv-x="1474" d="M 209 0 L 209 700 L 37 700 L 37 827 L 209 827 L 209 1515 L 643 1515 C 867 1515 1042 1449 1169 1317 C 1296 1185 1360 1003 1360 772 C 1360 533 1300 345 1181 207 C 1061 69 865 0 592 0 L 209 0 Z M 651 1370 L 364 1370 L 364 827 L 678 827 L 678 700 L 364 700 L 364 145 L 674 145 C 835 145 962 199 1055 307 C 1147 415 1194 566 1194 762 C 1194 959 1147 1110 1053 1214 C 959 1318 825 1370 651 1370 Z" unicode="Đ" />
<glyph horiz-adv-x="1263" d="M 1106 0 L 956 0 C 941 51 933 101 932 149 C 802 35 675 -22 553 -22 C 423 -22 316 28 230 131 C 144 234 102 368 102 534 C 102 700 144 836 230 940 C 316 1044 424 1097 555 1097 C 679 1097 801 1044 923 938 L 923 1278 L 631 1278 L 631 1401 L 923 1401 L 923 1515 L 1069 1515 L 1069 1401 L 1200 1401 L 1200 1278 L 1069 1278 L 1069 336 C 1069 185 1081 73 1106 0 Z M 923 274 L 923 809 C 803 915 687 968 575 968 C 477 968 399 930 342 855 C 284 780 256 677 256 547 C 256 409 285 302 343 225 C 401 148 478 110 575 110 C 683 110 799 164 923 274 Z" unicode="đ" />
<glyph horiz-adv-x="1214" d="M 209 0 L 209 1515 L 1102 1515 L 1102 1372 L 362 1372 L 362 876 L 911 876 L 911 731 L 362 731 L 362 145 L 1173 145 L 1173 0 L 209 0 Z M 395 1677 L 395 1802 L 987 1802 L 987 1677 L 395 1677 Z" unicode="Ē" />
<glyph horiz-adv-x="1102" d="M 889 325 L 1007 241 C 876 65 729 -22 565 -22 C 433 -22 323 28 235 131 C 147 234 102 371 102 542 C 102 708 145 842 232 944 C 319 1046 425 1097 551 1097 C 668 1097 773 1051 865 958 C 957 865 1005 720 1007 524 L 248 524 C 253 394 285 291 344 217 C 402 143 473 106 557 106 C 680 106 791 179 889 325 Z M 254 655 L 856 655 C 846 755 812 834 756 893 C 699 951 632 981 555 981 C 473 981 403 948 345 883 C 287 818 256 742 254 655 Z M 259 1309 L 259 1434 L 851 1434 L 851 1309 L 259 1309 Z" unicode="ē" />
<glyph horiz-adv-x="1214" d="M 209 0 L 209 1515 L 1102 1515 L 1102 1372 L 362 1372 L 362 876 L 911 876 L 911 731 L 362 731 L 362 145 L 1173 145 L 1173 0 L 209 0 Z M 858 1911 L 958 1911 C 933 1831 892 1768 836 1723 C 780 1678 716 1655 645 1655 C 497 1655 394 1740 336 1911 L 434 1911 C 477 1839 548 1803 647 1803 C 745 1803 815 1839 858 1911 Z" unicode="Ĕ" />
<glyph horiz-adv-x="1102" d="M 889 325 L 1007 241 C 876 65 729 -22 565 -22 C 433 -22 323 28 235 131 C 147 234 102 371 102 542 C 102 708 145 842 232 944 C 319 1046 425 1097 551 1097 C 668 1097 773 1051 865 958 C 957 865 1005 720 1007 524 L 248 524 C 253 394 285 291 344 217 C 402 143 473 106 557 106 C 680 106 791 179 889 325 Z M 254 655 L 856 655 C 846 755 812 834 756 893 C 699 951 632 981 555 981 C 473 981 403 948 345 883 C 287 818 256 742 254 655 Z M 761 1499 L 861 1499 C 836 1419 795 1356 739 1311 C 683 1266 619 1243 548 1243 C 400 1243 297 1328 239 1499 L 337 1499 C 380 1427 451 1391 550 1391 C 648 1391 718 1427 761 1499 Z" unicode="ĕ" />
<glyph horiz-adv-x="1214" d="M 209 0 L 209 1515 L 1102 1515 L 1102 1372 L 362 1372 L 362 876 L 911 876 L 911 731 L 362 731 L 362 145 L 1173 145 L 1173 0 L 209 0 Z M 607 1661 L 607 1855 L 775 1855 L 775 1661 L 607 1661 Z" unicode="Ė" />
<glyph horiz-adv-x="1102" d="M 889 325 L 1007 241 C 876 65 729 -22 565 -22 C 433 -22 323 28 235 131 C 147 234 102 371 102 542 C 102 708 145 842 232 944 C 319 1046 425 1097 551 1097 C 668 1097 773 1051 865 958 C 957 865 1005 720 1007 524 L 248 524 C 253 394 285 291 344 217 C 402 143 473 106 557 106 C 680 106 791 179 889 325 Z M 254 655 L 856 655 C 846 755 812 834 756 893 C 699 951 632 981 555 981 C 473 981 403 948 345 883 C 287 818 256 742 254 655 Z M 471 1266 L 471 1460 L 639 1460 L 639 1266 L 471 1266 Z" unicode="ė" />
<glyph horiz-adv-x="1214" d="M 886 0 C 862 -58 851 -111 851 -159 C 851 -205 863 -242 889 -272 C 915 -301 947 -316 987 -316 C 1043 -316 1101 -297 1162 -261 L 1162 -380 C 1092 -424 1019 -446 944 -446 C 876 -446 823 -425 783 -384 C 743 -343 724 -290 724 -225 C 724 -157 736 -82 762 0 L 209 0 L 209 1515 L 1102 1515 L 1102 1370 L 363 1370 L 363 877 L 911 877 L 911 731 L 363 731 L 363 145 L 1174 145 L 1174 0 L 886 0 Z" unicode="Ę" />
<glyph horiz-adv-x="1102" d="M 774 20 C 749 -40 737 -95 737 -144 C 737 -187 749 -224 773 -255 C 797 -285 834 -301 882 -301 C 934 -301 990 -282 1048 -246 L 1048 -365 C 978 -408 906 -430 834 -430 C 764 -430 709 -409 669 -369 C 629 -329 610 -273 610 -203 C 610 -155 619 -93 637 -19 C 611 -21 592 -23 580 -23 C 457 -23 350 26 259 126 C 168 226 123 364 123 542 C 123 709 167 843 255 945 C 343 1046 448 1097 572 1097 C 690 1097 796 1049 888 955 C 980 861 1026 717 1028 524 L 268 524 C 276 382 311 276 371 207 C 431 138 499 104 577 104 C 699 104 809 178 909 326 L 1028 242 C 972 174 931 128 905 105 C 879 82 836 54 774 20 Z M 274 655 L 876 655 C 863 761 828 842 770 898 C 712 953 647 981 575 981 C 499 981 432 951 373 893 C 313 834 280 755 274 655 Z" unicode="ę" />
<glyph horiz-adv-x="1214" d="M 209 0 L 209 1515 L 1102 1515 L 1102 1372 L 362 1372 L 362 876 L 911 876 L 911 731 L 362 731 L 362 145 L 1173 145 L 1173 0 L 209 0 Z M 613 1622 L 370 1942 L 460 1942 L 679 1764 L 900 1942 L 992 1942 L 738 1622 L 613 1622 Z" unicode="Ě" />
<glyph horiz-adv-x="1102" d="M 889 325 L 1007 241 C 876 65 729 -22 565 -22 C 433 -22 323 28 235 131 C 147 234 102 371 102 542 C 102 708 145 842 232 944 C 319 1046 425 1097 551 1097 C 668 1097 773 1051 865 958 C 957 865 1005 720 1007 524 L 248 524 C 253 394 285 291 344 217 C 402 143 473 106 557 106 C 680 106 791 179 889 325 Z M 254 655 L 856 655 C 846 755 812 834 756 893 C 699 951 632 981 555 981 C 473 981 403 948 345 883 C 287 818 256 742 254 655 Z M 486 1210 L 243 1530 L 333 1530 L 552 1352 L 773 1530 L 865 1530 L 611 1210 L 486 1210 Z" unicode="ě" />
<glyph horiz-adv-x="1470" d="M 782 585 L 782 731 L 1304 731 L 1304 0 L 1159 0 L 1159 192 C 1044 45 899 -28 723 -28 C 535 -28 387 42 278 183 C 168 324 114 514 114 753 C 114 998 171 1191 287 1333 C 403 1475 552 1546 735 1546 C 869 1546 987 1507 1091 1429 C 1194 1351 1265 1237 1304 1085 L 1145 1052 C 1077 1287 943 1405 745 1405 C 608 1405 496 1347 409 1231 C 321 1115 278 960 278 766 C 278 568 320 410 406 291 C 492 171 603 112 741 112 C 865 112 966 152 1043 231 C 1120 309 1159 427 1159 585 L 782 585 Z M 803 1942 L 1046 1622 L 954 1622 L 737 1803 L 516 1622 L 424 1622 L 678 1942 L 803 1942 Z" unicode="Ĝ" />
<glyph horiz-adv-x="1153" d="M 268 428 C 178 496 133 593 133 719 C 133 826 173 916 253 988 C 333 1060 439 1097 569 1097 C 687 1097 786 1067 866 1007 C 938 1050 1028 1073 1138 1075 L 1138 948 L 1095 948 C 1027 948 975 939 940 923 C 975 864 993 798 993 725 C 993 610 953 516 874 442 C 794 368 689 332 557 332 C 469 332 398 342 346 364 C 288 346 260 320 260 284 C 260 262 266 246 279 234 C 291 222 308 214 329 211 C 350 207 442 198 606 182 C 780 164 903 131 975 82 C 1046 33 1081 -36 1081 -127 C 1081 -218 1040 -292 960 -348 C 879 -404 766 -432 620 -432 C 453 -432 321 -403 225 -345 C 128 -287 80 -212 80 -119 C 80 -39 123 36 211 106 C 149 147 119 193 119 243 C 119 314 168 376 268 428 Z M 850 723 C 850 792 826 851 778 899 C 730 947 661 971 571 971 C 477 971 405 948 353 903 C 301 857 276 795 276 717 C 276 639 303 577 357 530 C 411 482 479 459 563 459 C 650 459 720 484 772 535 C 824 585 850 648 850 723 Z M 336 61 C 250 23 207 -33 207 -110 C 207 -162 241 -206 310 -243 C 379 -280 479 -299 609 -299 C 829 -299 940 -241 940 -125 C 940 -68 900 -25 820 2 C 740 30 579 50 336 61 Z M 644 1530 L 887 1210 L 795 1210 L 578 1391 L 357 1210 L 265 1210 L 519 1530 L 644 1530 Z" unicode="ĝ" />
<glyph horiz-adv-x="1470" d="M 782 585 L 782 731 L 1304 731 L 1304 0 L 1159 0 L 1159 192 C 1044 45 899 -28 723 -28 C 535 -28 387 42 278 183 C 168 324 114 514 114 753 C 114 998 171 1191 287 1333 C 403 1475 552 1546 735 1546 C 869 1546 987 1507 1091 1429 C 1194 1351 1265 1237 1304 1085 L 1145 1052 C 1077 1287 943 1405 745 1405 C 608 1405 496 1347 409 1231 C 321 1115 278 960 278 766 C 278 568 320 410 406 291 C 492 171 603 112 741 112 C 865 112 966 152 1043 231 C 1120 309 1159 427 1159 585 L 782 585 Z M 946 1910 L 1046 1910 C 1021 1830 980 1767 924 1722 C 868 1677 804 1654 733 1654 C 585 1654 482 1739 424 1910 L 522 1910 C 565 1838 636 1802 735 1802 C 833 1802 903 1838 946 1910 Z" unicode="Ğ" />
<glyph horiz-adv-x="1153" d="M 268 428 C 178 496 133 593 133 719 C 133 826 173 916 253 988 C 333 1060 439 1097 569 1097 C 687 1097 786 1067 866 1007 C 938 1050 1028 1073 1138 1075 L 1138 948 L 1095 948 C 1027 948 975 939 940 923 C 975 864 993 798 993 725 C 993 610 953 516 874 442 C 794 368 689 332 557 332 C 469 332 398 342 346 364 C 288 346 260 320 260 284 C 260 262 266 246 279 234 C 291 222 308 214 329 211 C 350 207 442 198 606 182 C 780 164 903 131 975 82 C 1046 33 1081 -36 1081 -127 C 1081 -218 1040 -292 960 -348 C 879 -404 766 -432 620 -432 C 453 -432 321 -403 225 -345 C 128 -287 80 -212 80 -119 C 80 -39 123 36 211 106 C 149 147 119 193 119 243 C 119 314 168 376 268 428 Z M 850 723 C 850 792 826 851 778 899 C 730 947 661 971 571 971 C 477 971 405 948 353 903 C 301 857 276 795 276 717 C 276 639 303 577 357 530 C 411 482 479 459 563 459 C 650 459 720 484 772 535 C 824 585 850 648 850 723 Z M 336 61 C 250 23 207 -33 207 -110 C 207 -162 241 -206 310 -243 C 379 -280 479 -299 609 -299 C 829 -299 940 -241 940 -125 C 940 -68 900 -25 820 2 C 740 30 579 50 336 61 Z M 797 1470 L 897 1470 C 872 1390 831 1327 775 1282 C 719 1237 655 1214 584 1214 C 436 1214 333 1299 275 1470 L 373 1470 C 416 1398 487 1362 586 1362 C 684 1362 754 1398 797 1470 Z" unicode="ğ" />
<glyph horiz-adv-x="1470" d="M 782 585 L 782 731 L 1304 731 L 1304 0 L 1159 0 L 1159 192 C 1044 45 899 -28 723 -28 C 535 -28 387 42 278 183 C 168 324 114 514 114 753 C 114 998 171 1191 287 1333 C 403 1475 552 1546 735 1546 C 869 1546 987 1507 1091 1429 C 1194 1351 1265 1237 1304 1085 L 1145 1052 C 1077 1287 943 1405 745 1405 C 608 1405 496 1347 409 1231 C 321 1115 278 960 278 766 C 278 568 320 410 406 291 C 492 171 603 112 741 112 C 865 112 966 152 1043 231 C 1120 309 1159 427 1159 585 L 782 585 Z M 641 1624 L 641 1818 L 809 1818 L 809 1624 L 641 1624 Z" unicode="Ġ" />
<glyph horiz-adv-x="1153" d="M 268 428 C 178 496 133 593 133 719 C 133 826 173 916 253 988 C 333 1060 439 1097 569 1097 C 687 1097 786 1067 866 1007 C 938 1050 1028 1073 1138 1075 L 1138 948 L 1095 948 C 1027 948 975 939 940 923 C 975 864 993 798 993 725 C 993 610 953 516 874 442 C 794 368 689 332 557 332 C 469 332 398 342 346 364 C 288 346 260 320 260 284 C 260 262 266 246 279 234 C 291 222 308 214 329 211 C 350 207 442 198 606 182 C 780 164 903 131 975 82 C 1046 33 1081 -36 1081 -127 C 1081 -218 1040 -292 960 -348 C 879 -404 766 -432 620 -432 C 453 -432 321 -403 225 -345 C 128 -287 80 -212 80 -119 C 80 -39 123 36 211 106 C 149 147 119 193 119 243 C 119 314 168 376 268 428 Z M 850 723 C 850 792 826 851 778 899 C 730 947 661 971 571 971 C 477 971 405 948 353 903 C 301 857 276 795 276 717 C 276 639 303 577 357 530 C 411 482 479 459 563 459 C 650 459 720 484 772 535 C 824 585 850 648 850 723 Z M 336 61 C 250 23 207 -33 207 -110 C 207 -162 241 -206 310 -243 C 379 -280 479 -299 609 -299 C 829 -299 940 -241 940 -125 C 940 -68 900 -25 820 2 C 740 30 579 50 336 61 Z M 526 1266 L 526 1460 L 694 1460 L 694 1266 L 526 1266 Z" unicode="ġ" />
<glyph horiz-adv-x="1470" d="M 782 585 L 782 731 L 1304 731 L 1304 0 L 1159 0 L 1159 192 C 1044 45 899 -28 723 -28 C 535 -28 387 42 278 183 C 168 324 114 514 114 753 C 114 998 171 1191 287 1333 C 403 1475 552 1546 735 1546 C 869 1546 987 1507 1091 1429 C 1194 1351 1265 1237 1304 1085 L 1145 1052 C 1077 1287 943 1405 745 1405 C 608 1405 496 1347 409 1231 C 321 1115 278 960 278 766 C 278 568 320 410 406 291 C 492 171 603 112 741 112 C 865 112 966 152 1043 231 C 1120 309 1159 427 1159 585 L 782 585 Z M 424 -368 L 478 -274 C 538 -305 610 -321 693 -321 C 766 -321 803 -299 803 -256 C 803 -206 762 -180 680 -176 L 709 -84 C 860 -84 936 -140 936 -252 C 936 -301 915 -342 873 -375 C 831 -407 778 -424 713 -424 C 611 -424 515 -405 424 -368 Z" unicode="Ģ" />
<glyph horiz-adv-x="1153" d="M 268 428 C 178 496 133 593 133 719 C 133 826 173 916 253 988 C 333 1060 439 1097 569 1097 C 687 1097 786 1067 866 1007 C 938 1050 1028 1073 1138 1075 L 1138 948 L 1095 948 C 1027 948 975 939 940 923 C 975 864 993 798 993 725 C 993 610 953 516 874 442 C 794 368 689 332 557 332 C 469 332 398 342 346 364 C 288 346 260 320 260 284 C 260 262 266 246 279 234 C 291 222 308 214 329 211 C 350 207 442 198 606 182 C 780 164 903 131 975 82 C 1046 33 1081 -36 1081 -127 C 1081 -218 1040 -292 960 -348 C 879 -404 766 -432 620 -432 C 453 -432 321 -403 225 -345 C 128 -287 80 -212 80 -119 C 80 -39 123 36 211 106 C 149 147 119 193 119 243 C 119 314 168 376 268 428 Z M 850 723 C 850 792 826 851 778 899 C 730 947 661 971 571 971 C 477 971 405 948 353 903 C 301 857 276 795 276 717 C 276 639 303 577 357 530 C 411 482 479 459 563 459 C 650 459 720 484 772 535 C 824 585 850 648 850 723 Z M 336 61 C 250 23 207 -33 207 -110 C 207 -162 241 -206 310 -243 C 379 -280 479 -299 609 -299 C 829 -299 940 -241 940 -125 C 940 -68 900 -25 820 2 C 740 30 579 50 336 61 Z M 630 1400 L 734 1400 L 734 1210 L 515 1210 L 515 1400 L 685 1662 L 775 1662 L 630 1400 Z" unicode="ģ" />
<glyph horiz-adv-x="1515" d="M 209 0 L 209 1515 L 362 1515 L 362 872 L 1153 872 L 1153 1515 L 1306 1515 L 1306 0 L 1153 0 L 1153 729 L 362 729 L 362 0 L 209 0 Z M 826 1942 L 1069 1622 L 977 1622 L 760 1803 L 539 1622 L 447 1622 L 701 1942 L 826 1942 Z" unicode="Ĥ" />
<glyph horiz-adv-x="1243" d="M 196 0 L 196 1515 L 342 1515 L 342 956 C 525 1050 664 1097 758 1097 C 848 1097 920 1066 973 1004 C 1025 941 1052 853 1052 739 L 1052 0 L 907 0 L 907 721 C 907 817 890 881 858 913 C 825 945 779 962 719 962 C 615 962 490 918 342 831 L 342 0 L 196 0 Z M 690 1908 L 933 1588 L 841 1588 L 624 1769 L 403 1588 L 311 1588 L 565 1908 L 690 1908 Z" unicode="ĥ" />
<glyph horiz-adv-x="1515" d="M 209 1117 L 64 1117 L 64 1238 L 209 1238 L 209 1515 L 362 1515 L 362 1238 L 1153 1238 L 1153 1515 L 1306 1515 L 1306 1238 L 1451 1238 L 1451 1117 L 1306 1117 L 1306 0 L 1153 0 L 1153 729 L 362 729 L 362 0 L 209 0 L 209 1117 Z M 362 1117 L 362 875 L 1153 875 L 1153 1117 L 362 1117 Z" unicode="Ħ" />
<glyph horiz-adv-x="1243" d="M 196 1224 L 39 1224 L 39 1341 L 196 1341 L 196 1515 L 342 1515 L 342 1341 L 699 1341 L 699 1224 L 342 1224 L 342 956 C 457 1016 542 1054 598 1071 C 654 1088 707 1097 758 1097 C 848 1097 920 1065 973 1001 C 1025 937 1052 850 1052 739 L 1052 0 L 907 0 L 907 721 C 907 808 892 870 864 907 C 835 944 787 963 720 963 C 615 963 489 919 342 831 L 342 0 L 196 0 L 196 1224 Z" unicode="ħ" />
<glyph horiz-adv-x="571" d="M 209 0 L 209 1515 L 362 1515 L 362 0 L 209 0 Z M 39 1659 L -43 1659 C -41 1737 -22 1798 14 1843 C 50 1888 97 1911 154 1911 C 194 1911 243 1890 301 1848 C 359 1805 398 1784 418 1784 C 471 1784 509 1826 533 1911 L 615 1911 C 611 1832 591 1770 554 1724 C 517 1678 470 1655 412 1655 C 372 1655 325 1676 271 1719 C 216 1761 176 1782 152 1782 C 98 1782 61 1741 39 1659 Z" unicode="Ĩ" />
<glyph horiz-adv-x="535" d="M 340 0 L 195 0 L 195 1075 L 340 1075 L 340 0 Z M 21 1247 L -61 1247 C -59 1325 -40 1386 -4 1431 C 32 1476 79 1499 136 1499 C 176 1499 225 1478 283 1436 C 341 1393 380 1372 400 1372 C 453 1372 491 1414 515 1499 L 597 1499 C 593 1420 573 1358 536 1312 C 499 1266 452 1243 394 1243 C 354 1243 307 1264 253 1307 C 198 1349 158 1370 134 1370 C 80 1370 43 1329 21 1247 Z" unicode="ĩ" />
<glyph horiz-adv-x="571" d="M 209 0 L 209 1515 L 362 1515 L 362 0 L 209 0 Z M -10 1677 L -10 1802 L 582 1802 L 582 1677 L -10 1677 Z" unicode="Ī" />
<glyph horiz-adv-x="535" d="M 340 0 L 195 0 L 195 1075 L 340 1075 L 340 0 Z M -29 1309 L -29 1434 L 563 1434 L 563 1309 L -29 1309 Z" unicode="ī" />
<glyph horiz-adv-x="571" d="M 209 0 L 209 1515 L 362 1515 L 362 0 L 209 0 Z M 496 1911 L 596 1911 C 571 1831 530 1768 474 1723 C 418 1678 354 1655 283 1655 C 135 1655 32 1740 -26 1911 L 72 1911 C 115 1839 186 1803 285 1803 C 383 1803 453 1839 496 1911 Z" unicode="Ĭ" />
<glyph horiz-adv-x="535" d="M 340 0 L 195 0 L 195 1075 L 340 1075 L 340 0 Z M 478 1499 L 578 1499 C 553 1419 512 1356 456 1311 C 400 1266 336 1243 265 1243 C 117 1243 14 1328 -44 1499 L 54 1499 C 97 1427 168 1391 267 1391 C 365 1391 435 1427 478 1499 Z" unicode="ĭ" />
<glyph horiz-adv-x="571" d="M 332 0 C 312 -58 303 -106 303 -144 C 303 -188 315 -225 340 -255 C 364 -285 399 -301 445 -301 C 499 -301 556 -282 614 -246 L 614 -365 C 546 -408 474 -430 399 -430 C 329 -430 274 -409 235 -369 C 195 -328 176 -275 176 -209 C 176 -143 187 -73 209 0 L 209 1515 L 363 1515 L 363 0 L 332 0 Z" unicode="Į" />
<glyph horiz-adv-x="535" d="M 340 1327 L 194 1327 L 194 1501 L 340 1501 L 340 1327 Z M 317 0 C 297 -59 288 -106 288 -142 C 288 -188 300 -226 325 -256 C 350 -286 383 -301 425 -301 C 484 -301 542 -282 599 -246 L 599 -365 C 529 -408 457 -430 385 -430 C 316 -430 261 -410 221 -370 C 181 -330 161 -275 161 -207 C 161 -144 172 -75 194 0 L 194 1075 L 340 1075 L 340 0 L 317 0 Z" unicode="į" />
<glyph horiz-adv-x="571" d="M 209 0 L 209 1515 L 362 1515 L 362 0 L 209 0 Z M 201 1677 L 201 1871 L 369 1871 L 369 1677 L 201 1677 Z" unicode="İ" />
<glyph horiz-adv-x="535" d="M 340 0 L 195 0 L 195 1075 L 340 1075 L 340 0 Z" unicode="ı" />
<glyph horiz-adv-x="1440" d="M 363 0 L 209 0 L 209 1515 L 363 1515 L 363 0 Z M 468 195 L 595 266 C 661 166 744 116 843 116 C 897 116 940 128 973 154 C 1005 179 1033 215 1057 263 C 1080 311 1092 386 1092 489 L 1092 1515 L 1246 1515 L 1246 489 C 1246 315 1208 185 1133 100 C 1057 14 961 -28 843 -28 C 687 -28 562 46 468 195 Z" unicode="Ĳ" />
<glyph horiz-adv-x="969" d="M 340 1325 L 195 1325 L 195 1501 L 340 1501 L 340 1325 Z M 777 1325 L 632 1325 L 632 1501 L 777 1501 L 777 1325 Z M 340 0 L 195 0 L 195 1075 L 340 1075 L 340 0 Z M 470 -428 L 470 -264 C 486 -266 499 -268 507 -268 C 543 -268 572 -253 596 -225 C 620 -196 632 -159 632 -113 L 632 1075 L 777 1075 L 777 -127 C 777 -218 753 -292 705 -348 C 657 -404 597 -432 525 -432 C 514 -432 496 -430 470 -428 Z" unicode="ĳ" />
<glyph horiz-adv-x="944" d="M 596 489 L 596 1515 L 749 1515 L 749 489 C 749 319 712 191 638 103 C 564 15 467 -28 346 -28 C 192 -28 67 46 -28 194 L 98 266 C 164 166 246 116 346 116 C 512 116 596 240 596 489 Z M 733 1942 L 976 1622 L 884 1622 L 667 1803 L 446 1622 L 354 1622 L 608 1942 L 733 1942 Z" unicode="Ĵ" />
<glyph horiz-adv-x="535" d="M 203 1530 L 328 1530 L 572 1210 L 479 1210 L 262 1391 L 41 1210 L -51 1210 L 203 1530 Z M 35 -428 L 35 -264 C 51 -266 64 -268 72 -268 C 108 -268 137 -253 161 -225 C 185 -196 197 -159 197 -113 L 197 1075 L 342 1075 L 342 -127 C 342 -218 318 -292 270 -348 C 222 -404 162 -432 90 -432 C 79 -432 61 -430 35 -428 Z" unicode="ĵ" />
<glyph horiz-adv-x="1345" d="M 209 0 L 209 1515 L 362 1515 L 362 735 L 1071 1515 L 1261 1515 L 739 942 L 1331 0 L 1155 0 L 641 831 L 362 526 L 362 0 L 209 0 Z M 434 -368 L 488 -274 C 548 -305 620 -321 703 -321 C 776 -321 813 -299 813 -256 C 813 -206 772 -180 690 -176 L 719 -84 C 870 -84 946 -140 946 -252 C 946 -301 925 -342 883 -375 C 841 -407 788 -424 723 -424 C 621 -424 525 -405 434 -368 Z" unicode="Ķ" />
<glyph horiz-adv-x="1077" d="M 194 0 L 194 1515 L 340 1515 L 340 526 L 829 1075 L 1020 1075 L 665 698 L 1057 0 L 893 0 L 573 602 L 340 356 L 340 0 L 194 0 Z M 329 -368 L 383 -274 C 443 -305 515 -321 598 -321 C 671 -321 708 -299 708 -256 C 708 -206 667 -180 585 -176 L 614 -84 C 765 -84 841 -140 841 -252 C 841 -301 820 -342 778 -375 C 736 -407 683 -424 618 -424 C 516 -424 420 -405 329 -368 Z" unicode="ķ" />
<glyph horiz-adv-x="1077" d="M 339 0 L 194 0 L 194 1075 L 339 1075 L 339 526 L 829 1075 L 1019 1075 L 665 698 L 1056 0 L 892 0 L 573 602 L 339 356 L 339 0 Z" unicode="ĸ" />
<glyph horiz-adv-x="1126" d="M 209 0 L 209 1515 L 362 1515 L 362 145 L 1085 145 L 1085 0 L 209 0 Z M 357 1622 L 576 1952 L 800 1952 L 482 1622 L 357 1622 Z" unicode="Ĺ" />
<glyph horiz-adv-x="534" d="M 194 0 L 194 1515 L 340 1515 L 340 0 L 194 0 Z M 195 1622 L 414 1952 L 638 1952 L 320 1622 L 195 1622 Z" unicode="ĺ" />
<glyph horiz-adv-x="1126" d="M 209 0 L 209 1515 L 362 1515 L 362 145 L 1085 145 L 1085 0 L 209 0 Z M 352 -368 L 406 -274 C 466 -305 538 -321 621 -321 C 694 -321 731 -299 731 -256 C 731 -206 690 -180 608 -176 L 637 -84 C 788 -84 864 -140 864 -252 C 864 -301 843 -342 801 -375 C 759 -407 706 -424 641 -424 C 539 -424 443 -405 352 -368 Z" unicode="Ļ" />
<glyph horiz-adv-x="534" d="M 194 0 L 194 1515 L 340 1515 L 340 0 L 194 0 Z M -10 -368 L 44 -274 C 104 -305 176 -321 259 -321 C 332 -321 369 -299 369 -256 C 369 -206 328 -180 246 -176 L 275 -84 C 426 -84 502 -140 502 -252 C 502 -301 481 -342 439 -375 C 397 -407 344 -424 279 -424 C 177 -424 81 -405 -10 -368 Z" unicode="ļ" />
<glyph horiz-adv-x="1126" d="M 209 0 L 209 1515 L 362 1515 L 362 145 L 1085 145 L 1085 0 L 209 0 Z M 662 1325 L 558 1325 L 558 1515 L 777 1515 L 777 1325 L 607 1063 L 517 1063 L 662 1325 Z" unicode="Ľ" />
<glyph horiz-adv-x="620" d="M 194 0 L 194 1515 L 340 1515 L 340 0 L 194 0 Z M 573 1325 L 469 1325 L 469 1515 L 688 1515 L 688 1325 L 518 1063 L 428 1063 L 573 1325 Z" unicode="ľ" />
<glyph horiz-adv-x="1126" d="M 209 0 L 209 1515 L 362 1515 L 362 145 L 1085 145 L 1085 0 L 209 0 Z M 621 642 L 621 867 L 817 867 L 817 642 L 621 642 Z" unicode="Ŀ" />
<glyph horiz-adv-x="642" d="M 194 0 L 194 1515 L 340 1515 L 340 0 L 194 0 Z M 444 676 L 444 901 L 640 901 L 640 676 L 444 676 Z" unicode="ŀ" />
<glyph horiz-adv-x="1126" d="M 622 956 L 362 737 L 362 145 L 1085 145 L 1085 0 L 209 0 L 209 607 L 47 471 L 47 622 L 209 759 L 209 1515 L 362 1515 L 362 888 L 622 1108 L 622 956 Z" unicode="Ł" />
<glyph horiz-adv-x="575" d="M 360 1515 L 360 866 L 530 1009 L 530 889 L 360 745 L 360 0 L 215 0 L 215 622 L 63 495 L 63 616 L 215 743 L 215 1515 L 360 1515 Z" unicode="ł" />
<glyph horiz-adv-x="1558" d="M 209 0 L 209 1515 L 444 1515 L 1196 278 L 1196 1515 L 1349 1515 L 1349 0 L 1196 0 L 362 1384 L 362 0 L 209 0 Z M 674 1622 L 893 1952 L 1117 1952 L 799 1622 L 674 1622 Z" unicode="Ń" />
<glyph horiz-adv-x="1243" d="M 340 831 L 340 0 L 194 0 L 194 1075 L 340 1075 L 340 950 C 502 1048 639 1097 749 1097 C 840 1097 913 1066 969 1004 C 1024 942 1052 859 1052 755 L 1052 0 L 907 0 L 907 717 C 907 880 845 962 723 962 C 616 962 488 918 340 831 Z M 534 1210 L 753 1540 L 977 1540 L 659 1210 L 534 1210 Z" unicode="ń" />
<glyph horiz-adv-x="1558" d="M 209 0 L 209 1515 L 444 1515 L 1196 278 L 1196 1515 L 1349 1515 L 1349 0 L 1196 0 L 362 1384 L 362 0 L 209 0 Z M 484 -368 L 538 -274 C 598 -305 670 -321 753 -321 C 826 -321 863 -299 863 -256 C 863 -206 822 -180 740 -176 L 769 -84 C 920 -84 996 -140 996 -252 C 996 -301 975 -342 933 -375 C 891 -407 838 -424 773 -424 C 671 -424 575 -405 484 -368 Z" unicode="Ņ" />
<glyph horiz-adv-x="1243" d="M 340 831 L 340 0 L 194 0 L 194 1075 L 340 1075 L 340 950 C 502 1048 639 1097 749 1097 C 840 1097 913 1066 969 1004 C 1024 942 1052 859 1052 755 L 1052 0 L 907 0 L 907 717 C 907 880 845 962 723 962 C 616 962 488 918 340 831 Z M 327 -368 L 381 -274 C 441 -305 513 -321 596 -321 C 669 -321 706 -299 706 -256 C 706 -206 665 -180 583 -176 L 612 -84 C 763 -84 839 -140 839 -252 C 839 -301 818 -342 776 -375 C 734 -407 681 -424 616 -424 C 514 -424 418 -405 327 -368 Z" unicode="ņ" />
<glyph horiz-adv-x="1558" d="M 209 0 L 209 1515 L 444 1515 L 1196 278 L 1196 1515 L 1349 1515 L 1349 0 L 1196 0 L 362 1384 L 362 0 L 209 0 Z M 722 1622 L 479 1942 L 569 1942 L 788 1764 L 1009 1942 L 1101 1942 L 847 1622 L 722 1622 Z" unicode="Ň" />
<glyph horiz-adv-x="1243" d="M 340 831 L 340 0 L 194 0 L 194 1075 L 340 1075 L 340 950 C 502 1048 639 1097 749 1097 C 840 1097 913 1066 969 1004 C 1024 942 1052 859 1052 755 L 1052 0 L 907 0 L 907 717 C 907 880 845 962 723 962 C 616 962 488 918 340 831 Z M 564 1210 L 321 1530 L 411 1530 L 630 1352 L 851 1530 L 943 1530 L 689 1210 L 564 1210 Z" unicode="ň" />
<glyph horiz-adv-x="1397" d="M 494 831 L 494 0 L 348 0 L 348 1075 L 494 1075 L 494 950 C 656 1048 793 1097 903 1097 C 994 1097 1067 1066 1123 1004 C 1178 942 1206 859 1206 755 L 1206 0 L 1061 0 L 1061 717 C 1061 880 999 962 877 962 C 770 962 642 918 494 831 Z M 145 1325 L 41 1325 L 41 1515 L 260 1515 L 260 1325 L 90 1063 L 0 1063 L 145 1325 Z" unicode="ŉ" />
<glyph horiz-adv-x="1515" d="M 528 -208 L 655 -136 C 722 -236 805 -286 903 -286 C 985 -286 1048 -254 1090 -190 C 1132 -126 1153 -34 1153 87 L 1153 1032 C 1153 1153 1121 1245 1059 1308 C 996 1370 913 1402 810 1402 C 696 1402 601 1359 524 1275 C 447 1190 393 1083 363 955 L 363 0 L 209 0 L 209 1515 L 363 1515 L 363 1252 C 475 1448 634 1546 838 1546 C 962 1546 1071 1503 1165 1419 C 1259 1335 1307 1217 1307 1066 L 1307 87 C 1307 -90 1268 -220 1191 -304 C 1114 -388 1018 -430 903 -430 C 747 -430 622 -356 528 -208 Z" unicode="Ŋ" />
<glyph horiz-adv-x="1243" d="M 1052 756 L 1052 -122 C 1052 -217 1027 -292 979 -348 C 931 -404 871 -432 800 -432 C 789 -432 771 -430 745 -428 L 745 -264 C 761 -266 775 -268 787 -268 C 817 -268 845 -254 870 -227 C 894 -199 907 -159 907 -106 L 907 717 C 907 881 845 963 723 963 C 617 963 489 919 339 831 L 339 0 L 194 0 L 194 1075 L 339 1075 L 339 950 C 507 1048 647 1097 759 1097 C 840 1097 909 1066 966 1005 C 1023 944 1052 861 1052 756 Z" unicode="ŋ" />
<glyph horiz-adv-x="1487" d="M 114 745 C 114 985 172 1178 288 1325 C 404 1472 558 1546 749 1546 C 933 1546 1082 1472 1198 1325 C 1314 1177 1372 987 1372 753 C 1372 517 1311 328 1191 186 C 1071 43 923 -28 747 -28 C 559 -28 406 44 289 190 C 172 335 114 520 114 745 Z M 1208 747 C 1208 947 1166 1107 1083 1225 C 999 1343 886 1403 743 1403 C 603 1403 490 1345 406 1229 C 321 1113 278 955 278 755 C 278 557 321 401 406 287 C 490 173 599 116 733 116 C 877 116 992 174 1078 288 C 1164 402 1208 555 1208 747 Z M 448 1677 L 448 1802 L 1040 1802 L 1040 1677 L 448 1677 Z" unicode="Ō" />
<glyph horiz-adv-x="1171" d="M 102 534 C 102 703 147 839 238 943 C 329 1046 446 1097 588 1097 C 726 1097 840 1043 932 937 C 1023 831 1069 694 1069 528 C 1069 365 1023 233 933 131 C 842 29 732 -22 602 -22 C 456 -22 337 29 243 133 C 149 237 102 370 102 534 Z M 915 542 C 915 673 886 777 828 855 C 770 932 691 971 592 971 C 488 971 406 931 346 851 C 286 771 256 668 256 540 C 256 410 286 304 347 224 C 407 144 488 104 588 104 C 684 104 762 144 823 224 C 884 304 915 410 915 542 Z M 289 1309 L 289 1434 L 881 1434 L 881 1309 L 289 1309 Z" unicode="ō" />
<glyph horiz-adv-x="1487" d="M 114 745 C 114 985 172 1178 288 1325 C 404 1472 558 1546 749 1546 C 933 1546 1082 1472 1198 1325 C 1314 1177 1372 987 1372 753 C 1372 517 1311 328 1191 186 C 1071 43 923 -28 747 -28 C 559 -28 406 44 289 190 C 172 335 114 520 114 745 Z M 1208 747 C 1208 947 1166 1107 1083 1225 C 999 1343 886 1403 743 1403 C 603 1403 490 1345 406 1229 C 321 1113 278 955 278 755 C 278 557 321 401 406 287 C 490 173 599 116 733 116 C 877 116 992 174 1078 288 C 1164 402 1208 555 1208 747 Z M 954 1911 L 1054 1911 C 1029 1831 988 1768 932 1723 C 876 1678 812 1655 741 1655 C 593 1655 490 1740 432 1911 L 530 1911 C 573 1839 644 1803 743 1803 C 841 1803 911 1839 954 1911 Z" unicode="Ŏ" />
<glyph horiz-adv-x="1171" d="M 102 534 C 102 703 147 839 238 943 C 329 1046 446 1097 588 1097 C 726 1097 840 1043 932 937 C 1023 831 1069 694 1069 528 C 1069 365 1023 233 933 131 C 842 29 732 -22 602 -22 C 456 -22 337 29 243 133 C 149 237 102 370 102 534 Z M 915 542 C 915 673 886 777 828 855 C 770 932 691 971 592 971 C 488 971 406 931 346 851 C 286 771 256 668 256 540 C 256 410 286 304 347 224 C 407 144 488 104 588 104 C 684 104 762 144 823 224 C 884 304 915 410 915 542 Z M 796 1499 L 896 1499 C 871 1419 830 1356 774 1311 C 718 1266 654 1243 583 1243 C 435 1243 332 1328 274 1499 L 372 1499 C 415 1427 486 1391 585 1391 C 683 1391 753 1427 796 1499 Z" unicode="ŏ" />
<glyph horiz-adv-x="1487" d="M 114 745 C 114 985 172 1178 288 1325 C 404 1472 558 1546 749 1546 C 933 1546 1082 1472 1198 1325 C 1314 1177 1372 987 1372 753 C 1372 517 1311 328 1191 186 C 1071 43 923 -28 747 -28 C 559 -28 406 44 289 190 C 172 335 114 520 114 745 Z M 1208 747 C 1208 947 1166 1107 1083 1225 C 999 1343 886 1403 743 1403 C 603 1403 490 1345 406 1229 C 321 1113 278 955 278 755 C 278 557 321 401 406 287 C 490 173 599 116 733 116 C 877 116 992 174 1078 288 C 1164 402 1208 555 1208 747 Z M 523 1622 L 742 1952 L 965 1952 L 648 1622 L 523 1622 Z M 894 1622 L 1113 1952 L 1336 1952 L 1019 1622 L 894 1622 Z" unicode="Ő" />
<glyph horiz-adv-x="1171" d="M 102 534 C 102 703 147 839 238 943 C 329 1046 446 1097 588 1097 C 726 1097 840 1043 932 937 C 1023 831 1069 694 1069 528 C 1069 365 1023 233 933 131 C 842 29 732 -22 602 -22 C 456 -22 337 29 243 133 C 149 237 102 370 102 534 Z M 915 542 C 915 673 886 777 828 855 C 770 932 691 971 592 971 C 488 971 406 931 346 851 C 286 771 256 668 256 540 C 256 410 286 304 347 224 C 407 144 488 104 588 104 C 684 104 762 144 823 224 C 884 304 915 410 915 542 Z M 304 1210 L 523 1540 L 746 1540 L 429 1210 L 304 1210 Z M 675 1210 L 894 1540 L 1117 1540 L 800 1210 L 675 1210 Z" unicode="ő" />
<glyph horiz-adv-x="1919" d="M 1071 1323 L 1071 1515 L 1843 1515 L 1843 1372 L 1224 1372 L 1224 880 L 1663 880 L 1663 735 L 1224 735 L 1224 149 L 1878 149 L 1878 0 L 1071 0 L 1071 198 C 963 58 832 -12 676 -12 C 507 -12 373 56 273 192 C 173 328 123 520 123 766 C 123 1003 173 1191 273 1329 C 373 1467 506 1536 671 1536 C 829 1536 963 1465 1071 1323 Z M 1073 758 C 1073 956 1038 1111 969 1223 C 900 1334 805 1390 684 1390 C 560 1390 463 1335 392 1223 C 321 1111 286 957 286 760 C 286 566 321 413 390 301 C 459 189 552 133 669 133 C 796 133 895 187 966 297 C 1037 406 1073 560 1073 758 Z" unicode="Œ" />
<glyph horiz-adv-x="1896" d="M 973 835 C 1059 1009 1189 1097 1364 1097 C 1480 1097 1582 1050 1669 955 C 1755 859 1800 714 1802 520 L 1050 520 C 1056 392 1088 290 1147 216 C 1206 141 1277 104 1360 104 C 1477 104 1583 176 1679 321 L 1796 233 C 1662 63 1516 -22 1360 -22 C 1194 -22 1065 66 973 243 C 867 66 734 -22 573 -22 C 438 -22 326 29 236 131 C 146 233 102 367 102 532 C 102 700 147 837 237 941 C 327 1045 444 1097 588 1097 C 769 1097 897 1009 973 835 Z M 1059 649 L 1650 649 C 1638 751 1605 830 1551 888 C 1497 946 1430 975 1351 975 C 1269 975 1201 943 1145 881 C 1089 818 1061 741 1059 649 Z M 905 549 C 905 679 875 781 817 857 C 759 933 681 971 585 971 C 489 971 410 932 348 854 C 286 776 256 670 256 536 C 256 404 286 300 348 222 C 410 144 486 104 577 104 C 673 104 752 145 813 226 C 874 306 905 414 905 549 Z" unicode="œ" />
<glyph horiz-adv-x="1372" d="M 209 0 L 209 1515 L 674 1515 C 874 1515 1021 1476 1114 1399 C 1207 1321 1253 1222 1253 1102 C 1253 914 1141 787 919 719 L 1308 0 L 1130 0 L 772 688 L 362 688 L 362 0 L 209 0 Z M 733 1372 L 362 1372 L 362 831 L 680 831 C 952 831 1089 922 1089 1106 C 1089 1190 1058 1255 996 1302 C 934 1348 846 1372 733 1372 Z M 536 1622 L 755 1952 L 979 1952 L 661 1622 L 536 1622 Z" unicode="Ŕ" />
<glyph horiz-adv-x="809" d="M 338 1075 L 338 831 C 404 932 471 1002 540 1042 C 609 1082 693 1100 792 1097 L 770 936 C 742 938 725 940 717 940 C 611 940 521 893 448 800 C 374 706 338 599 338 477 L 338 0 L 192 0 L 192 1075 L 338 1075 Z M 272 1210 L 491 1540 L 715 1540 L 397 1210 L 272 1210 Z" unicode="ŕ" />
<glyph horiz-adv-x="1372" d="M 209 0 L 209 1515 L 674 1515 C 874 1515 1021 1476 1114 1399 C 1207 1321 1253 1222 1253 1102 C 1253 914 1141 787 919 719 L 1308 0 L 1130 0 L 772 688 L 362 688 L 362 0 L 209 0 Z M 733 1372 L 362 1372 L 362 831 L 680 831 C 952 831 1089 922 1089 1106 C 1089 1190 1058 1255 996 1302 C 934 1348 846 1372 733 1372 Z M 429 -368 L 483 -274 C 543 -305 615 -321 698 -321 C 771 -321 808 -299 808 -256 C 808 -206 767 -180 685 -176 L 714 -84 C 865 -84 941 -140 941 -252 C 941 -301 920 -342 878 -375 C 836 -407 783 -424 718 -424 C 616 -424 520 -405 429 -368 Z" unicode="Ŗ" />
<glyph horiz-adv-x="809" d="M 338 1075 L 338 831 C 404 932 471 1002 540 1042 C 609 1082 693 1100 792 1097 L 770 936 C 742 938 725 940 717 940 C 611 940 521 893 448 800 C 374 706 338 599 338 477 L 338 0 L 192 0 L 192 1075 L 338 1075 Z M 30 -368 L 84 -274 C 144 -305 216 -321 299 -321 C 372 -321 409 -299 409 -256 C 409 -206 368 -180 286 -176 L 315 -84 C 466 -84 542 -140 542 -252 C 542 -301 521 -342 479 -375 C 437 -407 384 -424 319 -424 C 217 -424 121 -405 30 -368 Z" unicode="ŗ" />
<glyph horiz-adv-x="1372" d="M 209 0 L 209 1515 L 674 1515 C 874 1515 1021 1476 1114 1399 C 1207 1321 1253 1222 1253 1102 C 1253 914 1141 787 919 719 L 1308 0 L 1130 0 L 772 688 L 362 688 L 362 0 L 209 0 Z M 733 1372 L 362 1372 L 362 831 L 680 831 C 952 831 1089 922 1089 1106 C 1089 1190 1058 1255 996 1302 C 934 1348 846 1372 733 1372 Z M 588 1622 L 345 1942 L 435 1942 L 654 1764 L 875 1942 L 967 1942 L 713 1622 L 588 1622 Z" unicode="Ř" />
<glyph horiz-adv-x="809" d="M 338 1075 L 338 831 C 404 932 471 1002 540 1042 C 609 1082 693 1100 792 1097 L 770 936 C 742 938 725 940 717 940 C 611 940 521 893 448 800 C 374 706 338 599 338 477 L 338 0 L 192 0 L 192 1075 L 338 1075 Z M 424 1210 L 181 1530 L 271 1530 L 490 1352 L 711 1530 L 803 1530 L 549 1210 L 424 1210 Z" unicode="ř" />
<glyph horiz-adv-x="1288" d="M 96 383 L 254 424 C 312 216 445 112 653 112 C 759 112 846 139 913 193 C 980 247 1014 316 1014 401 C 1014 545 895 645 657 700 C 318 778 149 923 149 1136 C 149 1252 195 1349 285 1428 C 375 1506 488 1546 624 1546 C 754 1546 864 1514 954 1451 C 1044 1388 1106 1298 1140 1181 L 987 1134 C 934 1313 814 1403 626 1403 C 535 1403 460 1380 401 1334 C 342 1288 313 1228 313 1155 C 313 1017 437 918 686 860 C 1013 782 1177 631 1177 409 C 1177 281 1127 176 1028 94 C 929 12 804 -28 653 -28 C 515 -28 396 6 298 74 C 199 142 132 245 96 383 Z M 493 1622 L 712 1952 L 936 1952 L 618 1622 L 493 1622 Z" unicode="Ś" />
<glyph horiz-adv-x="989" d="M 61 186 L 186 274 C 298 162 410 106 522 106 C 592 106 648 124 691 158 C 734 192 755 234 755 286 C 755 388 653 460 450 502 C 214 550 96 652 96 809 C 96 891 130 960 198 1015 C 266 1069 354 1097 463 1097 C 625 1097 755 1042 854 932 L 743 833 C 661 926 569 973 465 973 C 398 973 344 958 304 930 C 264 902 243 865 243 819 C 243 731 324 672 487 641 C 764 587 903 470 903 291 C 903 201 868 127 798 67 C 728 7 637 -22 524 -22 C 366 -22 211 47 61 186 Z M 368 1210 L 587 1540 L 811 1540 L 493 1210 L 368 1210 Z" unicode="ś" />
<glyph horiz-adv-x="1288" d="M 96 383 L 254 424 C 312 216 445 112 653 112 C 759 112 846 139 913 193 C 980 247 1014 316 1014 401 C 1014 545 895 645 657 700 C 318 778 149 923 149 1136 C 149 1252 195 1349 285 1428 C 375 1506 488 1546 624 1546 C 754 1546 864 1514 954 1451 C 1044 1388 1106 1298 1140 1181 L 987 1134 C 934 1313 814 1403 626 1403 C 535 1403 460 1380 401 1334 C 342 1288 313 1228 313 1155 C 313 1017 437 918 686 860 C 1013 782 1177 631 1177 409 C 1177 281 1127 176 1028 94 C 929 12 804 -28 653 -28 C 515 -28 396 6 298 74 C 199 142 132 245 96 383 Z M 712 1942 L 955 1622 L 863 1622 L 646 1803 L 425 1622 L 333 1622 L 587 1942 L 712 1942 Z" unicode="Ŝ" />
<glyph horiz-adv-x="989" d="M 61 186 L 186 274 C 298 162 410 106 522 106 C 592 106 648 124 691 158 C 734 192 755 234 755 286 C 755 388 653 460 450 502 C 214 550 96 652 96 809 C 96 891 130 960 198 1015 C 266 1069 354 1097 463 1097 C 625 1097 755 1042 854 932 L 743 833 C 661 926 569 973 465 973 C 398 973 344 958 304 930 C 264 902 243 865 243 819 C 243 731 324 672 487 641 C 764 587 903 470 903 291 C 903 201 868 127 798 67 C 728 7 637 -22 524 -22 C 366 -22 211 47 61 186 Z M 562 1530 L 805 1210 L 713 1210 L 496 1391 L 275 1210 L 183 1210 L 437 1530 L 562 1530 Z" unicode="ŝ" />
<glyph horiz-adv-x="1288" d="M 96 383 L 254 424 C 312 216 445 112 653 112 C 759 112 846 139 913 193 C 980 247 1014 316 1014 401 C 1014 545 895 645 657 700 C 318 778 149 923 149 1136 C 149 1252 195 1349 285 1428 C 375 1506 488 1546 624 1546 C 754 1546 864 1514 954 1451 C 1044 1388 1106 1298 1140 1181 L 987 1134 C 934 1313 814 1403 626 1403 C 535 1403 460 1380 401 1334 C 342 1288 313 1228 313 1155 C 313 1017 437 918 686 860 C 1013 782 1177 631 1177 409 C 1177 281 1127 176 1028 94 C 929 12 804 -28 653 -28 C 515 -28 396 6 298 74 C 199 142 132 245 96 383 Z M 300 -368 L 354 -274 C 414 -305 486 -321 569 -321 C 642 -321 679 -299 679 -256 C 679 -206 638 -180 556 -176 L 585 -84 C 736 -84 812 -140 812 -252 C 812 -301 791 -342 749 -375 C 707 -407 654 -424 589 -424 C 487 -424 391 -405 300 -368 Z" unicode="Ş" />
<glyph horiz-adv-x="989" d="M 61 186 L 186 274 C 298 162 410 106 522 106 C 592 106 648 124 691 158 C 734 192 755 234 755 286 C 755 388 653 460 450 502 C 214 550 96 652 96 809 C 96 891 130 960 198 1015 C 266 1069 354 1097 463 1097 C 625 1097 755 1042 854 932 L 743 833 C 661 926 569 973 465 973 C 398 973 344 958 304 930 C 264 902 243 865 243 819 C 243 731 324 672 487 641 C 764 587 903 470 903 291 C 903 201 868 127 798 67 C 728 7 637 -22 524 -22 C 366 -22 211 47 61 186 Z M 160 -368 L 214 -274 C 274 -305 346 -321 429 -321 C 502 -321 539 -299 539 -256 C 539 -206 498 -180 416 -176 L 445 -84 C 596 -84 672 -140 672 -252 C 672 -301 651 -342 609 -375 C 567 -407 514 -424 449 -424 C 347 -424 251 -405 160 -368 Z" unicode="ş" />
<glyph horiz-adv-x="1288" d="M 96 383 L 254 424 C 312 216 445 112 653 112 C 759 112 846 139 913 193 C 980 247 1014 316 1014 401 C 1014 545 895 645 657 700 C 318 778 149 923 149 1136 C 149 1252 195 1349 285 1428 C 375 1506 488 1546 624 1546 C 754 1546 864 1514 954 1451 C 1044 1388 1106 1298 1140 1181 L 987 1134 C 934 1313 814 1403 626 1403 C 535 1403 460 1380 401 1334 C 342 1288 313 1228 313 1155 C 313 1017 437 918 686 860 C 1013 782 1177 631 1177 409 C 1177 281 1127 176 1028 94 C 929 12 804 -28 653 -28 C 515 -28 396 6 298 74 C 199 142 132 245 96 383 Z M 589 1622 L 346 1942 L 436 1942 L 655 1764 L 876 1942 L 968 1942 L 714 1622 L 589 1622 Z" unicode="Š" />
<glyph horiz-adv-x="989" d="M 61 186 L 186 274 C 298 162 410 106 522 106 C 592 106 648 124 691 158 C 734 192 755 234 755 286 C 755 388 653 460 450 502 C 214 550 96 652 96 809 C 96 891 130 960 198 1015 C 266 1069 354 1097 463 1097 C 625 1097 755 1042 854 932 L 743 833 C 661 926 569 973 465 973 C 398 973 344 958 304 930 C 264 902 243 865 243 819 C 243 731 324 672 487 641 C 764 587 903 470 903 291 C 903 201 868 127 798 67 C 728 7 637 -22 524 -22 C 366 -22 211 47 61 186 Z M 427 1210 L 184 1530 L 274 1530 L 493 1352 L 714 1530 L 806 1530 L 552 1210 L 427 1210 Z" unicode="š" />
<glyph horiz-adv-x="1198" d="M 1157 1372 L 678 1372 L 678 0 L 524 0 L 524 1372 L 41 1372 L 41 1515 L 1157 1515 L 1157 1372 Z M 303 -368 L 357 -274 C 417 -305 489 -321 572 -321 C 645 -321 682 -299 682 -256 C 682 -206 641 -180 559 -176 L 588 -84 C 739 -84 815 -140 815 -252 C 815 -301 794 -342 752 -375 C 710 -407 657 -424 592 -424 C 490 -424 394 -405 303 -368 Z" unicode="Ţ" />
<glyph horiz-adv-x="690" d="M 233 1075 L 233 1466 L 377 1466 L 377 1075 L 645 1075 L 645 942 L 377 942 L 377 280 C 377 158 431 98 540 98 C 558 98 593 103 645 114 L 645 -16 C 590 -22 548 -26 518 -26 C 414 -26 341 -4 298 37 C 254 79 233 150 233 248 L 233 942 L 45 942 L 45 1075 L 233 1075 Z M 130 -368 L 184 -274 C 244 -305 316 -321 399 -321 C 472 -321 509 -299 509 -256 C 509 -206 468 -180 386 -176 L 415 -84 C 566 -84 642 -140 642 -252 C 642 -301 621 -342 579 -375 C 537 -407 484 -424 419 -424 C 317 -424 221 -405 130 -368 Z" unicode="ţ" />
<glyph horiz-adv-x="1198" d="M 1157 1372 L 678 1372 L 678 0 L 524 0 L 524 1372 L 41 1372 L 41 1515 L 1157 1515 L 1157 1372 Z M 542 1622 L 299 1942 L 389 1942 L 608 1764 L 829 1942 L 921 1942 L 667 1622 L 542 1622 Z" unicode="Ť" />
<glyph horiz-adv-x="904" d="M 233 1075 L 233 1466 L 377 1466 L 377 1075 L 645 1075 L 645 942 L 377 942 L 377 280 C 377 158 431 98 540 98 C 558 98 593 103 645 114 L 645 -16 C 590 -22 548 -26 518 -26 C 414 -26 341 -4 298 37 C 254 79 233 150 233 248 L 233 942 L 45 942 L 45 1075 L 233 1075 Z M 857 1325 L 753 1325 L 753 1515 L 972 1515 L 972 1325 L 802 1063 L 712 1063 L 857 1325 Z" unicode="ť" />
<glyph horiz-adv-x="1198" d="M 678 855 L 1027 855 L 1027 735 L 678 735 L 678 0 L 524 0 L 524 735 L 176 735 L 176 855 L 524 855 L 524 1370 L 41 1370 L 41 1515 L 1157 1515 L 1157 1370 L 678 1370 L 678 855 Z" unicode="Ŧ" />
<glyph horiz-adv-x="690" d="M 379 691 L 646 691 L 646 574 L 379 574 L 379 281 C 379 160 433 100 541 100 C 568 100 603 105 646 115 L 646 -16 C 587 -24 544 -29 518 -29 C 417 -29 344 -7 300 37 C 256 81 234 151 234 248 L 234 574 L 30 574 L 30 691 L 234 691 L 234 944 L 45 944 L 45 1075 L 234 1075 L 234 1466 L 379 1466 L 379 1075 L 646 1075 L 646 944 L 379 944 L 379 691 Z" unicode="ŧ" />
<glyph horiz-adv-x="1480" d="M 188 524 L 188 1515 L 342 1515 L 342 567 C 342 265 474 114 739 114 C 1005 114 1138 264 1138 565 L 1138 1515 L 1292 1515 L 1292 545 C 1292 362 1243 221 1145 121 C 1047 21 914 -28 747 -28 C 573 -28 437 20 338 118 C 238 216 188 352 188 524 Z M 493 1659 L 411 1659 C 412 1737 431 1798 468 1843 C 504 1888 551 1911 608 1911 C 648 1911 697 1890 755 1848 C 813 1805 852 1784 872 1784 C 925 1784 963 1826 987 1911 L 1069 1911 C 1065 1832 1045 1770 1008 1724 C 971 1678 924 1655 866 1655 C 826 1655 779 1676 725 1719 C 670 1761 630 1782 606 1782 C 552 1782 515 1741 493 1659 Z" unicode="Ũ" />
<glyph horiz-adv-x="1243" d="M 901 0 L 901 172 C 739 42 603 -22 495 -22 C 401 -22 327 9 273 74 C 219 139 192 229 192 344 L 192 1075 L 338 1075 L 338 360 C 338 287 356 227 393 181 C 430 135 477 112 534 112 C 624 112 747 176 901 305 L 901 1075 L 1046 1075 L 1046 0 L 901 0 Z M 372 1247 L 290 1247 C 291 1325 310 1386 347 1431 C 383 1476 430 1499 487 1499 C 527 1499 576 1478 634 1436 C 692 1393 731 1372 751 1372 C 804 1372 842 1414 866 1499 L 948 1499 C 944 1420 924 1358 887 1312 C 850 1266 803 1243 745 1243 C 705 1243 658 1264 604 1307 C 549 1349 509 1370 485 1370 C 431 1370 394 1329 372 1247 Z" unicode="ũ" />
<glyph horiz-adv-x="1480" d="M 188 524 L 188 1515 L 342 1515 L 342 567 C 342 265 474 114 739 114 C 1005 114 1138 264 1138 565 L 1138 1515 L 1292 1515 L 1292 545 C 1292 362 1243 221 1145 121 C 1047 21 914 -28 747 -28 C 573 -28 437 20 338 118 C 238 216 188 352 188 524 Z M 444 1677 L 444 1802 L 1036 1802 L 1036 1677 L 444 1677 Z" unicode="Ū" />
<glyph horiz-adv-x="1243" d="M 901 0 L 901 172 C 739 42 603 -22 495 -22 C 401 -22 327 9 273 74 C 219 139 192 229 192 344 L 192 1075 L 338 1075 L 338 360 C 338 287 356 227 393 181 C 430 135 477 112 534 112 C 624 112 747 176 901 305 L 901 1075 L 1046 1075 L 1046 0 L 901 0 Z M 323 1309 L 323 1434 L 915 1434 L 915 1309 L 323 1309 Z" unicode="ū" />
<glyph horiz-adv-x="1480" d="M 188 524 L 188 1515 L 342 1515 L 342 567 C 342 265 474 114 739 114 C 1005 114 1138 264 1138 565 L 1138 1515 L 1292 1515 L 1292 545 C 1292 362 1243 221 1145 121 C 1047 21 914 -28 747 -28 C 573 -28 437 20 338 118 C 238 216 188 352 188 524 Z M 951 1911 L 1051 1911 C 1026 1831 985 1768 929 1723 C 873 1678 809 1655 738 1655 C 590 1655 487 1740 429 1911 L 527 1911 C 570 1839 641 1803 740 1803 C 838 1803 908 1839 951 1911 Z" unicode="Ŭ" />
<glyph horiz-adv-x="1243" d="M 901 0 L 901 172 C 739 42 603 -22 495 -22 C 401 -22 327 9 273 74 C 219 139 192 229 192 344 L 192 1075 L 338 1075 L 338 360 C 338 287 356 227 393 181 C 430 135 477 112 534 112 C 624 112 747 176 901 305 L 901 1075 L 1046 1075 L 1046 0 L 901 0 Z M 832 1519 L 932 1519 C 907 1439 866 1376 810 1331 C 754 1286 690 1263 619 1263 C 471 1263 368 1348 310 1519 L 408 1519 C 451 1447 522 1411 621 1411 C 719 1411 789 1447 832 1519 Z" unicode="ŭ" />
<glyph horiz-adv-x="1480" d="M 188 524 L 188 1515 L 342 1515 L 342 567 C 342 265 474 114 739 114 C 1005 114 1138 264 1138 565 L 1138 1515 L 1292 1515 L 1292 545 C 1292 362 1243 221 1145 121 C 1047 21 914 -28 747 -28 C 573 -28 437 20 338 118 C 238 216 188 352 188 524 Z M 536 1786 C 536 1842 556 1891 596 1931 C 636 1971 685 1991 741 1991 C 797 1991 845 1971 885 1931 C 924 1891 944 1842 944 1786 C 944 1730 924 1682 884 1643 C 844 1603 797 1583 743 1583 C 684 1583 635 1602 596 1642 C 556 1682 536 1730 536 1786 Z M 876 1786 C 876 1824 863 1857 837 1885 C 810 1912 777 1926 739 1926 C 700 1926 667 1912 641 1886 C 614 1859 601 1826 601 1788 C 601 1749 615 1716 642 1689 C 669 1662 701 1649 737 1649 C 776 1649 809 1662 836 1689 C 862 1715 876 1748 876 1786 Z" unicode="Ů" />
<glyph horiz-adv-x="1243" d="M 901 0 L 901 172 C 739 42 603 -22 495 -22 C 401 -22 327 9 273 74 C 219 139 192 229 192 344 L 192 1075 L 338 1075 L 338 360 C 338 287 356 227 393 181 C 430 135 477 112 534 112 C 624 112 747 176 901 305 L 901 1075 L 1046 1075 L 1046 0 L 901 0 Z M 415 1374 C 415 1430 435 1479 475 1519 C 515 1559 564 1579 620 1579 C 676 1579 724 1559 764 1519 C 803 1479 823 1430 823 1374 C 823 1318 803 1270 763 1231 C 723 1191 676 1171 622 1171 C 563 1171 514 1190 475 1230 C 435 1270 415 1318 415 1374 Z M 755 1374 C 755 1412 742 1445 716 1473 C 689 1500 656 1514 618 1514 C 579 1514 546 1500 520 1474 C 493 1447 480 1414 480 1376 C 480 1337 494 1304 521 1277 C 548 1250 580 1237 616 1237 C 655 1237 688 1250 715 1277 C 741 1303 755 1336 755 1374 Z" unicode="ů" />
<glyph horiz-adv-x="1480" d="M 188 524 L 188 1515 L 342 1515 L 342 567 C 342 265 474 114 739 114 C 1005 114 1138 264 1138 565 L 1138 1515 L 1292 1515 L 1292 545 C 1292 362 1243 221 1145 121 C 1047 21 914 -28 747 -28 C 573 -28 437 20 338 118 C 238 216 188 352 188 524 Z M 448 1622 L 667 1952 L 890 1952 L 573 1622 L 448 1622 Z M 819 1622 L 1038 1952 L 1261 1952 L 944 1622 L 819 1622 Z" unicode="Ű" />
<glyph horiz-adv-x="1243" d="M 901 0 L 901 172 C 739 42 603 -22 495 -22 C 401 -22 327 9 273 74 C 219 139 192 229 192 344 L 192 1075 L 338 1075 L 338 360 C 338 287 356 227 393 181 C 430 135 477 112 534 112 C 624 112 747 176 901 305 L 901 1075 L 1046 1075 L 1046 0 L 901 0 Z M 337 1210 L 556 1540 L 779 1540 L 462 1210 L 337 1210 Z M 708 1210 L 927 1540 L 1150 1540 L 833 1210 L 708 1210 Z" unicode="ű" />
<glyph horiz-adv-x="1481" d="M 982 13 C 959 -44 948 -96 948 -144 C 948 -186 960 -223 984 -254 C 1008 -285 1046 -301 1097 -301 C 1140 -301 1194 -282 1259 -246 L 1259 -365 C 1189 -408 1117 -430 1045 -430 C 975 -430 920 -409 880 -369 C 840 -329 821 -273 821 -203 C 821 -155 830 -95 848 -21 C 811 -25 777 -28 747 -28 C 563 -28 424 23 330 127 C 235 230 188 362 188 524 L 188 1515 L 342 1515 L 342 566 C 342 266 474 116 739 116 C 873 116 973 155 1039 233 C 1105 311 1138 422 1138 566 L 1138 1515 L 1292 1515 L 1292 545 C 1292 412 1264 299 1209 207 C 1154 115 1078 50 982 13 Z" unicode="Ų" />
<glyph horiz-adv-x="1243" d="M 1023 0 C 1003 -59 994 -106 994 -141 C 994 -187 1006 -226 1031 -256 C 1056 -286 1091 -301 1135 -301 C 1190 -301 1247 -282 1306 -246 L 1306 -365 C 1235 -408 1163 -430 1091 -430 C 1021 -430 966 -409 926 -369 C 886 -328 867 -274 867 -207 C 867 -144 878 -75 901 0 L 901 172 C 739 42 603 -22 495 -22 C 401 -22 327 10 273 76 C 219 141 192 230 192 344 L 192 1075 L 337 1075 L 337 360 C 337 286 355 227 393 181 C 430 135 476 113 532 113 C 625 113 748 177 901 305 L 901 1075 L 1046 1075 L 1046 0 L 1023 0 Z" unicode="ų" />
<glyph horiz-adv-x="1843" d="M 461 0 L 61 1515 L 221 1515 L 530 307 L 850 1515 L 997 1515 L 1313 307 L 1626 1515 L 1782 1515 L 1376 0 L 1249 0 L 921 1245 L 594 0 L 461 0 Z M 989 1942 L 1232 1622 L 1140 1622 L 923 1803 L 702 1622 L 610 1622 L 864 1942 L 989 1942 Z" unicode="Ŵ" />
<glyph horiz-adv-x="1509" d="M 395 0 L 51 1075 L 207 1075 L 446 282 L 696 1075 L 809 1075 L 1061 262 L 1306 1075 L 1458 1075 L 1108 0 L 1005 0 L 749 823 L 493 0 L 395 0 Z M 822 1550 L 1065 1230 L 973 1230 L 756 1411 L 535 1230 L 443 1230 L 697 1550 L 822 1550 Z" unicode="ŵ" />
<glyph horiz-adv-x="1208" d="M 530 659 L 30 1515 L 207 1515 L 606 813 L 1005 1515 L 1177 1515 L 678 659 L 678 0 L 530 0 L 530 659 Z M 674 1942 L 917 1622 L 825 1622 L 608 1803 L 387 1622 L 295 1622 L 549 1942 L 674 1942 Z" unicode="Ŷ" />
<glyph horiz-adv-x="1061" d="M 454 0 L 41 1075 L 203 1075 L 530 196 L 856 1075 L 1020 1075 L 581 -69 C 531 -201 489 -285 457 -323 C 425 -360 383 -388 332 -407 C 280 -426 219 -436 149 -436 C 118 -436 72 -430 10 -420 L 47 -280 C 79 -287 113 -291 151 -291 C 215 -291 270 -278 315 -254 C 359 -230 406 -145 454 0 Z M 598 1530 L 841 1210 L 749 1210 L 532 1391 L 311 1210 L 219 1210 L 473 1530 L 598 1530 Z" unicode="ŷ" />
<glyph horiz-adv-x="1208" d="M 530 659 L 30 1515 L 207 1515 L 606 813 L 1005 1515 L 1177 1515 L 678 659 L 678 0 L 530 0 L 530 659 Z M 327 1661 L 327 1835 L 501 1835 L 501 1661 L 327 1661 Z M 737 1661 L 737 1835 L 911 1835 L 911 1661 L 737 1661 Z" unicode="Ÿ" />
<glyph horiz-adv-x="1206" d="M 135 1370 L 135 1515 L 1132 1515 L 1132 1370 L 237 147 L 1132 147 L 1132 0 L 65 0 L 65 147 L 964 1370 L 135 1370 Z M 512 1622 L 731 1952 L 955 1952 L 637 1622 L 512 1622 Z" unicode="Ź" />
<glyph horiz-adv-x="1026" d="M 114 932 L 114 1075 L 934 1075 L 934 932 L 239 147 L 964 147 L 964 0 L 61 0 L 61 147 L 760 932 L 114 932 Z M 400 1210 L 619 1540 L 843 1540 L 525 1210 L 400 1210 Z" unicode="ź" />
<glyph horiz-adv-x="1206" d="M 135 1370 L 135 1515 L 1132 1515 L 1132 1370 L 237 147 L 1132 147 L 1132 0 L 65 0 L 65 147 L 964 1370 L 135 1370 Z M 512 1661 L 512 1855 L 680 1855 L 680 1661 L 512 1661 Z" unicode="Ż" />
<glyph horiz-adv-x="1026" d="M 114 932 L 114 1075 L 934 1075 L 934 932 L 239 147 L 964 147 L 964 0 L 61 0 L 61 147 L 760 932 L 114 932 Z M 430 1249 L 430 1443 L 598 1443 L 598 1249 L 430 1249 Z" unicode="ż" />
<glyph horiz-adv-x="1206" d="M 135 1370 L 135 1515 L 1132 1515 L 1132 1370 L 237 147 L 1132 147 L 1132 0 L 65 0 L 65 147 L 964 1370 L 135 1370 Z M 548 1622 L 305 1942 L 395 1942 L 614 1764 L 835 1942 L 927 1942 L 673 1622 L 548 1622 Z" unicode="Ž" />
<glyph horiz-adv-x="1026" d="M 114 932 L 114 1075 L 934 1075 L 934 932 L 239 147 L 964 147 L 964 0 L 61 0 L 61 147 L 760 932 L 114 932 Z M 476 1210 L 233 1530 L 323 1530 L 542 1352 L 763 1530 L 855 1530 L 601 1210 L 476 1210 Z" unicode="ž" />
<glyph horiz-adv-x="592" d="M 576 1513 L 576 1376 C 557 1378 538 1380 519 1380 C 399 1380 340 1328 340 1224 L 340 0 L 195 0 L 195 1235 C 195 1327 223 1396 279 1444 C 335 1491 412 1515 508 1515 C 530 1515 552 1514 576 1513 Z" unicode="ſ" />
<glyph horiz-adv-x="1101" d="M 1068 1384 C 1013 1404 960 1414 909 1414 C 867 1414 836 1403 814 1381 C 792 1359 770 1304 749 1217 L 725 1120 L 948 1120 L 923 1009 L 702 1009 L 456 -111 C 417 -288 323 -377 174 -377 C 106 -377 41 -365 -20 -343 L 6 -225 C 57 -241 107 -249 157 -249 C 197 -249 230 -235 256 -209 C 282 -182 299 -150 308 -114 C 317 -77 330 -19 348 61 L 554 1009 L 386 1009 L 409 1120 L 577 1120 L 602 1218 C 632 1341 666 1426 704 1474 C 741 1522 805 1546 897 1546 C 959 1546 1024 1534 1093 1511 L 1068 1384 Z" unicode="ƒ" />
<glyph horiz-adv-x="1292" d="M 30 0 L 532 1515 L 764 1515 L 1261 0 L 1102 0 L 948 471 L 336 471 L 184 0 L 30 0 Z M 901 618 L 645 1415 L 385 618 L 901 618 Z M 445 1786 C 445 1842 465 1891 505 1931 C 545 1971 594 1991 650 1991 C 706 1991 754 1971 794 1931 C 833 1891 853 1842 853 1786 C 853 1730 833 1682 793 1643 C 753 1603 706 1583 652 1583 C 593 1583 544 1602 505 1642 C 465 1682 445 1730 445 1786 Z M 785 1786 C 785 1824 772 1857 746 1885 C 719 1912 686 1926 648 1926 C 609 1926 576 1912 550 1886 C 523 1859 510 1826 510 1788 C 510 1749 524 1716 551 1689 C 578 1662 610 1649 646 1649 C 685 1649 718 1662 745 1689 C 771 1715 785 1748 785 1786 Z M 494 2063 L 713 2393 L 937 2393 L 619 2063 L 494 2063 Z" unicode="Ǻ" />
<glyph horiz-adv-x="1126" d="M 807 180 C 673 45 535 -22 391 -22 C 299 -22 226 5 170 61 C 114 116 86 185 86 268 C 86 356 122 436 194 507 C 266 577 470 646 807 712 L 807 739 C 807 825 786 886 746 923 C 705 960 655 979 596 979 C 468 979 343 918 219 798 L 112 889 C 245 1027 397 1097 569 1097 C 677 1097 768 1067 842 1007 C 915 947 952 848 952 712 L 952 258 C 952 162 961 76 981 0 L 835 0 C 817 58 808 118 807 180 Z M 807 264 L 807 606 C 557 548 400 495 336 445 C 272 395 239 336 239 270 C 239 222 257 182 293 152 C 329 121 375 106 432 106 C 536 106 661 158 807 264 Z M 356 1374 C 356 1430 376 1479 416 1519 C 456 1559 505 1579 561 1579 C 617 1579 665 1559 705 1519 C 744 1479 764 1430 764 1374 C 764 1318 744 1270 704 1231 C 664 1191 617 1171 563 1171 C 504 1171 455 1190 416 1230 C 376 1270 356 1318 356 1374 Z M 696 1374 C 696 1412 683 1445 657 1473 C 630 1500 597 1514 559 1514 C 520 1514 487 1500 461 1474 C 434 1447 421 1414 421 1376 C 421 1337 435 1304 462 1277 C 489 1250 521 1237 557 1237 C 596 1237 629 1250 656 1277 C 682 1303 696 1336 696 1374 Z M 413 1651 L 632 1981 L 856 1981 L 538 1651 L 413 1651 Z" unicode="ǻ" />
<glyph horiz-adv-x="1820" d="M 30 0 L 723 1515 L 1708 1515 L 1708 1370 L 1048 1370 L 1048 878 L 1536 878 L 1536 733 L 1048 733 L 1048 145 L 1779 145 L 1779 0 L 895 0 L 895 471 L 405 471 L 196 0 L 30 0 Z M 895 1370 L 809 1370 L 471 618 L 895 618 L 895 1370 Z M 935 1622 L 1154 1952 L 1378 1952 L 1060 1622 L 935 1622 Z" unicode="Ǽ" />
<glyph horiz-adv-x="1800" d="M 882 227 C 702 61 538 -22 391 -22 C 299 -22 226 5 170 61 C 114 116 86 185 86 268 C 86 356 122 436 194 507 C 266 577 470 646 807 712 L 807 739 C 807 825 786 886 746 923 C 705 960 655 979 596 979 C 468 979 343 918 219 798 L 112 889 C 245 1027 397 1097 569 1097 C 726 1097 840 1032 912 903 C 993 1032 1105 1097 1249 1097 C 1366 1097 1471 1051 1563 959 C 1655 867 1702 722 1706 524 L 946 524 C 951 394 983 292 1042 218 C 1100 144 1171 106 1255 106 C 1378 106 1489 179 1587 325 L 1706 241 C 1574 65 1427 -22 1263 -22 C 1179 -22 1100 1 1025 49 C 949 97 902 156 882 227 Z M 1554 655 C 1544 755 1510 834 1454 893 C 1398 951 1331 981 1253 981 C 1171 981 1102 948 1044 884 C 986 820 955 743 952 655 L 1554 655 Z M 807 264 L 807 606 C 557 548 400 495 336 445 C 272 395 239 336 239 270 C 239 222 257 182 293 152 C 329 121 375 106 432 106 C 536 106 661 158 807 264 Z M 800 1210 L 1019 1540 L 1243 1540 L 925 1210 L 800 1210 Z" unicode="ǽ" />
<glyph horiz-adv-x="1487" d="M 1439 1472 L 1248 1253 C 1331 1114 1373 947 1373 753 C 1373 518 1312 329 1192 186 C 1072 43 924 -28 748 -28 C 568 -28 421 38 305 172 L 133 -24 L 49 47 L 238 264 C 156 399 115 559 115 745 C 115 985 174 1178 290 1325 C 406 1472 559 1546 750 1546 C 924 1546 1068 1479 1182 1345 L 1356 1544 L 1439 1472 Z M 347 389 L 1081 1230 C 998 1345 886 1403 744 1403 C 604 1403 491 1345 407 1229 C 322 1113 279 955 279 755 C 279 612 301 490 347 389 Z M 1139 1128 L 406 288 C 489 173 598 116 734 116 C 878 116 993 174 1080 288 C 1166 402 1209 555 1209 747 C 1209 895 1185 1022 1139 1128 Z M 579 1622 L 798 1952 L 1022 1952 L 704 1622 L 579 1622 Z" unicode="Ǿ" />
<glyph horiz-adv-x="1171" d="M 1102 1022 L 975 883 C 1039 783 1071 664 1071 528 C 1071 365 1025 233 935 131 C 844 29 734 -22 604 -22 C 472 -22 360 21 269 108 L 149 -22 L 71 53 L 199 193 C 135 289 104 402 104 534 C 104 702 150 838 241 942 C 331 1046 448 1097 590 1097 C 712 1097 818 1054 906 968 L 1024 1097 L 1102 1022 Z M 302 306 L 817 870 C 759 937 685 971 594 971 C 490 971 408 931 348 851 C 288 771 258 668 258 540 C 258 451 272 373 302 306 Z M 876 774 L 361 209 C 420 139 496 104 590 104 C 686 104 765 144 826 224 C 887 304 917 410 917 542 C 917 630 903 708 876 774 Z M 436 1210 L 655 1540 L 879 1540 L 561 1210 L 436 1210 Z" unicode="ǿ" />
<glyph horiz-adv-x="682" d="M 420 1501 L 663 1181 L 571 1181 L 354 1362 L 133 1181 L 41 1181 L 295 1501 L 420 1501 Z" unicode="ˆ" />
<glyph horiz-adv-x="682" d="M 284 1181 L 41 1501 L 131 1501 L 350 1323 L 571 1501 L 663 1501 L 409 1181 L 284 1181 Z" unicode="ˇ" />
<glyph horiz-adv-x="682" d="M 45 1280 L 45 1405 L 637 1405 L 637 1280 L 45 1280 Z" unicode="ˉ" />
<glyph horiz-adv-x="682" d="M 557 1470 L 657 1470 C 632 1390 591 1327 535 1282 C 479 1237 415 1214 344 1214 C 196 1214 93 1299 35 1470 L 133 1470 C 176 1398 247 1362 346 1362 C 444 1362 514 1398 557 1470 Z" unicode="˘" />
<glyph horiz-adv-x="682" d="M 250 1237 L 250 1431 L 418 1431 L 418 1237 L 250 1237 Z" unicode="˙" />
<glyph horiz-adv-x="682" d="M 145 1345 C 145 1401 165 1450 205 1490 C 245 1530 294 1550 350 1550 C 406 1550 454 1530 494 1490 C 533 1450 553 1401 553 1345 C 553 1289 533 1241 493 1202 C 453 1162 406 1142 352 1142 C 293 1142 244 1161 205 1201 C 165 1241 145 1289 145 1345 Z M 485 1345 C 485 1383 472 1416 446 1444 C 419 1471 386 1485 348 1485 C 309 1485 276 1471 250 1445 C 223 1418 210 1385 210 1347 C 210 1308 224 1275 251 1248 C 278 1221 310 1208 346 1208 C 385 1208 418 1221 445 1248 C 471 1274 485 1307 485 1345 Z" unicode="˚" />
<glyph horiz-adv-x="682" d="M 614 -246 L 614 -364 C 542 -409 468 -432 391 -432 C 328 -432 276 -411 236 -370 C 196 -329 176 -275 176 -209 C 176 -137 189 -59 217 24 L 342 24 C 316 -36 303 -91 303 -141 C 303 -187 315 -226 340 -256 C 365 -286 398 -301 438 -301 C 502 -301 560 -282 614 -246 Z" unicode="˛" />
<glyph horiz-adv-x="682" d="M 106 1218 L 24 1218 C 25 1296 44 1357 81 1402 C 117 1447 164 1470 221 1470 C 261 1470 310 1449 368 1407 C 426 1364 465 1343 485 1343 C 538 1343 576 1385 600 1470 L 682 1470 C 678 1391 658 1329 621 1283 C 584 1237 537 1214 479 1214 C 439 1214 392 1235 338 1278 C 283 1320 243 1341 219 1341 C 165 1341 128 1300 106 1218 Z" unicode="˜" />
<glyph horiz-adv-x="682" d="M 49 1181 L 268 1511 L 491 1511 L 174 1181 L 49 1181 Z M 420 1181 L 639 1511 L 862 1511 L 545 1181 L 420 1181 Z" unicode="˝" />
<glyph horiz-adv-x="641" d="M 223 850 L 223 1075 L 420 1075 L 420 850 L 223 850 Z M 223 0 L 223 231 L 420 231 L 420 6 L 266 -301 L 184 -301 L 319 0 L 223 0 Z" unicode=";" />
<glyph horiz-adv-x="682" d="M 315 1279 L 190 1279 L 409 1515 L 632 1515 L 315 1279 Z" unicode="΄" />
<glyph horiz-adv-x="682" d="M 340 1221 L 251 1221 L 293 1486 L 492 1486 L 340 1221 Z M 647 1221 L 485 1221 L 485 1383 L 647 1383 L 647 1221 Z M 197 1221 L 35 1221 L 35 1383 L 197 1383 L 197 1221 Z" unicode="΅" />
<glyph horiz-adv-x="1292" d="M 30 0 L 532 1515 L 764 1515 L 1261 0 L 1102 0 L 948 471 L 336 471 L 184 0 L 30 0 Z M 901 618 L 645 1415 L 385 618 L 901 618 Z M 142 1279 L 17 1279 L 236 1515 L 459 1515 L 142 1279 Z" unicode="Ά" />
<glyph horiz-adv-x="641" d="M 420 852 L 221 852 L 221 1075 L 420 1075 L 420 852 Z" unicode="·" />
<glyph horiz-adv-x="1214" d="M 209 0 L 209 1515 L 1102 1515 L 1102 1372 L 362 1372 L 362 876 L 911 876 L 911 731 L 362 731 L 362 145 L 1173 145 L 1173 0 L 209 0 Z M -181 1279 L -306 1279 L -87 1515 L 136 1515 L -181 1279 Z" unicode="Έ" />
<glyph horiz-adv-x="1515" d="M 209 0 L 209 1515 L 362 1515 L 362 872 L 1153 872 L 1153 1515 L 1306 1515 L 1306 0 L 1153 0 L 1153 729 L 362 729 L 362 0 L 209 0 Z M -182 1279 L -307 1279 L -88 1515 L 135 1515 L -182 1279 Z" unicode="Ή" />
<glyph horiz-adv-x="571" d="M 209 0 L 209 1515 L 362 1515 L 362 0 L 209 0 Z M -181 1279 L -306 1279 L -87 1515 L 136 1515 L -181 1279 Z" unicode="Ί" />
<glyph horiz-adv-x="1487" d="M 114 745 C 114 985 172 1178 288 1325 C 404 1472 558 1546 749 1546 C 933 1546 1082 1472 1198 1325 C 1314 1177 1372 987 1372 753 C 1372 517 1311 328 1191 186 C 1071 43 923 -28 747 -28 C 559 -28 406 44 289 190 C 172 335 114 520 114 745 Z M 1208 747 C 1208 947 1166 1107 1083 1225 C 999 1343 886 1403 743 1403 C 603 1403 490 1345 406 1229 C 321 1113 278 955 278 755 C 278 557 321 401 406 287 C 490 173 599 116 733 116 C 877 116 992 174 1078 288 C 1164 402 1208 555 1208 747 Z M 38 1279 L -87 1279 L 132 1515 L 355 1515 L 38 1279 Z" unicode="Ό" />
<glyph horiz-adv-x="1208" d="M 530 659 L 30 1515 L 207 1515 L 606 813 L 1005 1515 L 1177 1515 L 678 659 L 678 0 L 530 0 L 530 659 Z M -359 1279 L -484 1279 L -265 1515 L -42 1515 L -359 1279 Z" unicode="Ύ" />
<glyph horiz-adv-x="1491" d="M 1033 145 L 1384 145 L 1384 0 L 839 0 L 839 145 C 973 229 1069 331 1126 453 C 1183 575 1212 703 1212 839 C 1212 1020 1167 1161 1077 1263 C 987 1365 877 1416 745 1416 C 601 1416 487 1361 403 1252 C 319 1143 278 1007 278 845 C 278 532 402 299 651 145 L 651 0 L 106 0 L 106 145 L 458 145 C 228 326 114 557 114 837 C 114 1021 168 1186 276 1330 C 384 1474 540 1546 745 1546 C 949 1546 1105 1474 1213 1330 C 1321 1186 1376 1022 1376 837 C 1376 695 1347 569 1291 459 C 1234 349 1148 245 1033 145 Z M 9 1279 L -116 1279 L 103 1515 L 326 1515 L 9 1279 Z" unicode="Ώ" />
<glyph horiz-adv-x="535" d="M 340 0 L 195 0 L 195 1075 L 340 1075 L 340 0 Z M 266 1249 L 177 1249 L 219 1514 L 418 1514 L 266 1249 Z M 573 1249 L 411 1249 L 411 1411 L 573 1411 L 573 1249 Z M 123 1249 L -39 1249 L -39 1411 L 123 1411 L 123 1249 Z" unicode="ΐ" />
<glyph horiz-adv-x="1292" d="M 30 0 L 532 1515 L 764 1515 L 1261 0 L 1102 0 L 948 471 L 336 471 L 184 0 L 30 0 Z M 901 618 L 645 1415 L 385 618 L 901 618 Z" unicode="Α" />
<glyph horiz-adv-x="1427" d="M 745 0 L 209 0 L 209 1515 L 688 1515 C 890 1515 1038 1477 1132 1403 C 1226 1329 1274 1239 1274 1134 C 1274 977 1181 860 997 782 C 1209 700 1315 575 1315 409 C 1315 291 1264 193 1162 116 C 1060 38 921 0 745 0 Z M 737 1372 L 364 1372 L 364 850 L 631 850 C 951 850 1112 939 1112 1118 C 1112 1193 1079 1254 1013 1301 C 947 1348 855 1372 737 1372 Z M 710 708 L 364 708 L 364 143 L 778 143 C 891 143 981 167 1048 217 C 1115 267 1149 335 1149 422 C 1149 510 1110 580 1033 631 C 956 682 848 708 710 708 Z" unicode="Β" />
<glyph horiz-adv-x="1126" d="M 1086 1515 L 1086 1370 L 363 1370 L 363 0 L 209 0 L 209 1515 L 1086 1515 Z" unicode="Γ" />
<glyph horiz-adv-x="1292" d="M 31 0 L 533 1515 L 764 1515 L 1266 0 L 31 0 Z M 1055 146 L 649 1410 L 231 146 L 1055 146 Z" unicode="Δ" />
<glyph horiz-adv-x="1214" d="M 209 0 L 209 1515 L 1102 1515 L 1102 1372 L 362 1372 L 362 876 L 911 876 L 911 731 L 362 731 L 362 145 L 1173 145 L 1173 0 L 209 0 Z" unicode="Ε" />
<glyph horiz-adv-x="1206" d="M 135 1370 L 135 1515 L 1132 1515 L 1132 1370 L 237 147 L 1132 147 L 1132 0 L 65 0 L 65 147 L 964 1370 L 135 1370 Z" unicode="Ζ" />
<glyph horiz-adv-x="1515" d="M 209 0 L 209 1515 L 362 1515 L 362 872 L 1153 872 L 1153 1515 L 1306 1515 L 1306 0 L 1153 0 L 1153 729 L 362 729 L 362 0 L 209 0 Z" unicode="Η" />
<glyph horiz-adv-x="1487" d="M 115 754 C 115 988 173 1178 291 1325 C 408 1472 560 1546 747 1546 C 932 1546 1082 1471 1198 1323 C 1314 1174 1372 986 1372 758 C 1372 614 1346 481 1294 357 C 1242 233 1166 137 1066 71 C 965 5 859 -28 748 -28 C 561 -28 409 44 291 188 C 173 332 115 521 115 754 Z M 279 755 C 279 555 321 399 406 286 C 491 172 600 116 734 116 C 876 116 990 172 1078 286 C 1165 399 1209 558 1209 764 C 1209 950 1167 1103 1084 1223 C 1001 1342 888 1402 745 1402 C 605 1402 492 1344 407 1229 C 321 1113 279 955 279 755 Z M 424 687 L 424 833 L 1064 833 L 1064 687 L 424 687 Z" unicode="Θ" />
<glyph horiz-adv-x="571" d="M 209 0 L 209 1515 L 362 1515 L 362 0 L 209 0 Z" unicode="Ι" />
<glyph horiz-adv-x="1345" d="M 209 0 L 209 1515 L 362 1515 L 362 735 L 1071 1515 L 1261 1515 L 739 942 L 1331 0 L 1155 0 L 641 831 L 362 526 L 362 0 L 209 0 Z" unicode="Κ" />
<glyph horiz-adv-x="1292" d="M 185 0 L 31 0 L 534 1515 L 765 1515 L 1262 0 L 1098 0 L 646 1414 L 185 0 Z" unicode="Λ" />
<glyph horiz-adv-x="1804" d="M 209 0 L 209 1515 L 461 1515 L 903 295 L 1341 1515 L 1595 1515 L 1595 0 L 1442 0 L 1442 1380 L 942 0 L 854 0 L 356 1380 L 356 0 L 209 0 Z" unicode="Μ" />
<glyph horiz-adv-x="1558" d="M 209 0 L 209 1515 L 444 1515 L 1196 278 L 1196 1515 L 1349 1515 L 1349 0 L 1196 0 L 362 1384 L 362 0 L 209 0 Z" unicode="Ν" />
<glyph horiz-adv-x="1142" d="M 89 1515 L 1054 1515 L 1054 1370 L 89 1370 L 89 1515 Z M 220 876 L 923 876 L 923 731 L 220 731 L 220 876 Z M 89 145 L 1054 145 L 1054 0 L 89 0 L 89 145 Z" unicode="Ξ" />
<glyph horiz-adv-x="1487" d="M 114 745 C 114 985 172 1178 288 1325 C 404 1472 558 1546 749 1546 C 933 1546 1082 1472 1198 1325 C 1314 1177 1372 987 1372 753 C 1372 517 1311 328 1191 186 C 1071 43 923 -28 747 -28 C 559 -28 406 44 289 190 C 172 335 114 520 114 745 Z M 1208 747 C 1208 947 1166 1107 1083 1225 C 999 1343 886 1403 743 1403 C 603 1403 490 1345 406 1229 C 321 1113 278 955 278 755 C 278 557 321 401 406 287 C 490 173 599 116 733 116 C 877 116 992 174 1078 288 C 1164 402 1208 555 1208 747 Z" unicode="Ο" />
<glyph horiz-adv-x="1515" d="M 363 0 L 209 0 L 209 1515 L 1307 1515 L 1307 0 L 1153 0 L 1153 1370 L 363 1370 L 363 0 Z" unicode="Π" />
<glyph horiz-adv-x="1323" d="M 209 0 L 209 1515 L 710 1515 C 876 1515 1008 1477 1105 1401 C 1202 1325 1251 1226 1251 1104 C 1251 978 1199 877 1097 800 C 995 722 858 684 686 684 L 362 684 L 362 0 L 209 0 Z M 653 1374 L 362 1374 L 362 827 L 674 827 C 948 827 1085 919 1085 1104 C 1085 1284 941 1374 653 1374 Z" unicode="Ρ" />
<glyph horiz-adv-x="1079" d="M 1039 0 L 74 0 L 74 145 L 575 804 L 74 1370 L 74 1515 L 967 1515 L 967 1370 L 270 1370 L 763 812 L 257 145 L 1039 145 L 1039 0 Z" unicode="Σ" />
<glyph horiz-adv-x="1198" d="M 1157 1372 L 678 1372 L 678 0 L 524 0 L 524 1372 L 41 1372 L 41 1515 L 1157 1515 L 1157 1372 Z" unicode="Τ" />
<glyph horiz-adv-x="1208" d="M 530 659 L 30 1515 L 207 1515 L 606 813 L 1005 1515 L 1177 1515 L 678 659 L 678 0 L 530 0 L 530 659 Z" unicode="Υ" />
<glyph horiz-adv-x="1487" d="M 669 123 C 500 141 365 208 265 324 C 165 440 115 585 115 759 C 115 928 163 1072 260 1192 C 357 1311 493 1381 669 1402 L 669 1548 L 823 1548 L 823 1402 C 996 1381 1131 1311 1227 1191 C 1323 1071 1372 926 1372 757 C 1372 591 1323 450 1227 333 C 1130 215 995 145 823 123 L 823 -29 L 669 -29 L 669 123 Z M 823 1257 L 823 270 C 956 291 1054 346 1116 436 C 1178 525 1209 630 1209 752 C 1209 876 1178 986 1118 1084 C 1058 1182 959 1239 823 1257 Z M 669 268 L 669 1256 C 541 1239 444 1186 378 1097 C 312 1007 279 894 279 757 C 279 633 308 525 368 434 C 427 343 527 288 669 268 Z" unicode="Φ" />
<glyph horiz-adv-x="1257" d="M 542 811 L 100 1515 L 282 1515 L 626 944 L 977 1515 L 1157 1515 L 710 811 L 1227 0 L 1048 0 L 626 678 L 213 0 L 30 0 L 542 811 Z" unicode="Χ" />
<glyph horiz-adv-x="1590" d="M 871 443 L 871 0 L 718 0 L 718 443 C 584 455 485 480 420 519 C 354 557 299 621 255 709 C 210 797 188 891 188 993 L 188 1515 L 342 1515 L 342 1035 C 342 899 369 793 423 716 C 477 638 576 596 718 588 L 718 1515 L 871 1515 L 871 588 C 967 596 1038 614 1082 642 C 1126 669 1165 715 1198 781 C 1231 846 1248 931 1248 1035 L 1248 1515 L 1401 1515 L 1401 1014 C 1401 854 1359 721 1276 615 C 1193 509 1058 451 871 443 Z" unicode="Ψ" />
<glyph horiz-adv-x="1491" d="M 1033 145 L 1384 145 L 1384 0 L 839 0 L 839 145 C 973 229 1069 331 1126 453 C 1183 575 1212 703 1212 839 C 1212 1020 1167 1161 1077 1263 C 987 1365 877 1416 745 1416 C 601 1416 487 1361 403 1252 C 319 1143 278 1007 278 845 C 278 532 402 299 651 145 L 651 0 L 106 0 L 106 145 L 458 145 C 228 326 114 557 114 837 C 114 1021 168 1186 276 1330 C 384 1474 540 1546 745 1546 C 949 1546 1105 1474 1213 1330 C 1321 1186 1376 1022 1376 837 C 1376 695 1347 569 1291 459 C 1234 349 1148 245 1033 145 Z" unicode="Ω" />
<glyph horiz-adv-x="571" d="M 209 0 L 209 1515 L 362 1515 L 362 0 L 209 0 Z M -5 1661 L -5 1835 L 169 1835 L 169 1661 L -5 1661 Z M 405 1661 L 405 1835 L 579 1835 L 579 1661 L 405 1661 Z" unicode="Ϊ" />
<glyph horiz-adv-x="1208" d="M 530 659 L 30 1515 L 207 1515 L 606 813 L 1005 1515 L 1177 1515 L 678 659 L 678 0 L 530 0 L 530 659 Z M 328 1661 L 328 1835 L 502 1835 L 502 1661 L 328 1661 Z M 738 1661 L 738 1835 L 912 1835 L 912 1661 L 738 1661 Z" unicode="Ϋ" />
<glyph horiz-adv-x="1165" d="M 904 830 L 970 1075 L 1123 1075 L 988 557 L 1123 0 L 974 0 L 904 250 C 827 68 706 -22 541 -22 C 419 -22 315 29 230 131 C 144 233 102 367 102 533 C 102 707 143 845 227 946 C 310 1046 412 1097 533 1097 C 692 1097 816 1008 904 830 Z M 256 541 C 256 391 284 281 341 212 C 398 143 466 109 544 109 C 702 109 802 254 845 544 C 815 718 775 832 723 888 C 671 943 610 971 538 971 C 460 971 394 934 339 862 C 283 790 256 683 256 541 Z M 557 1279 L 432 1279 L 651 1515 L 874 1515 L 557 1279 Z" unicode="ά" />
<glyph horiz-adv-x="930" d="M 866 855 L 739 785 C 667 914 581 979 483 979 C 429 979 380 962 338 929 C 295 895 274 851 274 795 C 274 751 288 714 316 683 C 344 651 374 632 406 624 C 438 616 497 611 584 611 L 584 489 C 496 487 434 482 397 473 C 359 463 325 441 294 405 C 262 369 247 329 247 285 C 247 230 269 186 314 153 C 359 120 412 104 472 104 C 590 104 685 173 755 311 L 882 239 C 824 145 763 78 697 38 C 631 -1 550 -22 454 -22 C 344 -22 257 6 195 63 C 133 119 102 192 102 280 C 102 418 185 508 353 550 C 201 590 126 676 126 807 C 126 893 160 962 230 1016 C 300 1070 382 1097 478 1097 C 636 1097 766 1016 866 855 Z M 439 1279 L 314 1279 L 533 1515 L 756 1515 L 439 1279 Z" unicode="έ" />
<glyph horiz-adv-x="1243" d="M 339 1075 L 339 950 C 506 1048 645 1097 755 1097 C 841 1097 912 1065 968 1003 C 1024 941 1052 858 1052 756 L 1052 -410 L 907 -410 L 907 717 C 907 881 846 963 724 963 C 617 963 489 919 339 831 L 339 0 L 194 0 L 194 1075 L 339 1075 Z M 596 1279 L 471 1279 L 690 1515 L 913 1515 L 596 1279 Z" unicode="ή" />
<glyph horiz-adv-x="535" d="M 340 0 L 195 0 L 195 1075 L 340 1075 L 340 0 Z M 242 1279 L 117 1279 L 336 1515 L 559 1515 L 242 1279 Z" unicode="ί" />
<glyph horiz-adv-x="1216" d="M 890 1075 L 1035 1075 L 1035 432 C 1035 269 996 154 918 88 C 840 22 737 -11 608 -11 C 510 -11 431 4 373 36 C 315 67 268 111 233 168 C 198 225 181 313 181 432 L 181 1075 L 326 1075 L 326 432 C 326 296 356 211 418 175 C 480 139 544 121 611 121 C 688 121 754 139 808 175 C 862 211 890 297 890 432 L 890 1075 Z M 607 1249 L 518 1249 L 560 1514 L 759 1514 L 607 1249 Z M 914 1249 L 752 1249 L 752 1411 L 914 1411 L 914 1249 Z M 464 1249 L 302 1249 L 302 1411 L 464 1411 L 464 1249 Z" unicode="ΰ" />
<glyph horiz-adv-x="1165" d="M 904 830 L 970 1075 L 1123 1075 L 988 557 L 1123 0 L 974 0 L 904 250 C 827 68 706 -22 541 -22 C 419 -22 315 29 230 131 C 144 233 102 367 102 533 C 102 707 143 845 227 946 C 310 1046 412 1097 533 1097 C 692 1097 816 1008 904 830 Z M 256 541 C 256 391 284 281 341 212 C 398 143 466 109 544 109 C 702 109 802 254 845 544 C 815 718 775 832 723 888 C 671 943 610 971 538 971 C 460 971 394 934 339 862 C 283 790 256 683 256 541 Z" unicode="α" />
<glyph horiz-adv-x="1196" d="M 342 108 L 342 -409 L 197 -409 L 197 1010 C 197 1198 239 1329 325 1403 C 411 1476 509 1513 621 1513 C 733 1513 829 1479 909 1412 C 989 1344 1030 1261 1030 1161 C 1030 1025 952 923 797 854 C 995 766 1094 623 1094 426 C 1094 300 1053 193 973 107 C 892 21 790 -22 666 -22 C 547 -22 439 21 342 108 Z M 342 229 C 436 145 540 104 656 104 C 750 104 821 136 869 200 C 917 264 941 343 941 437 C 941 551 905 639 834 700 C 762 760 669 791 555 791 L 555 920 C 769 924 877 1002 877 1155 C 877 1221 851 1277 801 1321 C 750 1365 689 1387 619 1387 C 541 1387 476 1359 422 1303 C 368 1247 342 1165 342 1055 L 342 229 Z" unicode="β" />
<glyph horiz-adv-x="1061" d="M 456 19 L 41 1075 L 203 1075 L 532 205 L 862 1075 L 1020 1075 L 601 13 L 601 -410 L 456 -410 L 456 19 Z" unicode="γ" />
<glyph horiz-adv-x="1171" d="M 608 1027 L 169 1384 L 169 1515 L 997 1515 L 997 1384 L 358 1384 L 755 1069 C 874 974 956 883 1000 797 C 1044 710 1067 618 1067 520 C 1067 374 1024 248 938 140 C 852 32 740 -22 602 -22 C 457 -22 337 26 243 123 C 149 219 102 345 102 500 C 102 662 148 790 240 886 C 332 982 455 1029 608 1027 Z M 256 505 C 256 378 287 279 349 207 C 411 135 491 100 587 100 C 683 100 761 136 823 210 C 884 284 915 385 915 514 C 915 638 884 735 824 805 C 763 875 685 910 590 910 C 488 910 407 872 347 798 C 286 724 256 626 256 505 Z" unicode="δ" />
<glyph horiz-adv-x="930" d="M 866 855 L 739 785 C 667 914 581 979 483 979 C 429 979 380 962 338 929 C 295 895 274 851 274 795 C 274 751 288 714 316 683 C 344 651 374 632 406 624 C 438 616 497 611 584 611 L 584 489 C 496 487 434 482 397 473 C 359 463 325 441 294 405 C 262 369 247 329 247 285 C 247 230 269 186 314 153 C 359 120 412 104 472 104 C 590 104 685 173 755 311 L 882 239 C 824 145 763 78 697 38 C 631 -1 550 -22 454 -22 C 344 -22 257 6 195 63 C 133 119 102 192 102 280 C 102 418 185 508 353 550 C 201 590 126 676 126 807 C 126 893 160 962 230 1016 C 300 1070 382 1097 478 1097 C 636 1097 766 1016 866 855 Z" unicode="ε" />
<glyph horiz-adv-x="963" d="M 259 1515 L 911 1515 L 911 1409 C 673 1204 504 1014 404 840 C 304 666 254 512 254 380 C 254 318 266 269 290 233 C 314 197 345 172 381 160 C 417 147 479 135 567 125 C 643 115 698 104 734 92 C 769 79 799 55 825 20 C 850 -15 863 -58 863 -110 C 863 -232 786 -332 632 -410 L 573 -296 C 676 -254 728 -197 728 -127 C 728 -95 719 -68 702 -46 C 685 -24 665 -11 642 -6 C 619 -1 560 2 466 4 C 352 7 262 43 198 113 C 134 182 102 276 102 395 C 102 494 122 595 164 699 C 206 803 262 898 333 985 C 403 1072 537 1205 734 1384 L 259 1384 L 259 1515 Z" unicode="ζ" />
<glyph horiz-adv-x="1243" d="M 339 1075 L 339 950 C 506 1048 645 1097 755 1097 C 841 1097 912 1065 968 1003 C 1024 941 1052 858 1052 756 L 1052 -410 L 907 -410 L 907 717 C 907 881 846 963 724 963 C 617 963 489 919 339 831 L 339 0 L 194 0 L 194 1075 L 339 1075 Z" unicode="η" />
<glyph horiz-adv-x="1171" d="M 585 1546 C 728 1546 844 1476 934 1336 C 1024 1196 1069 1004 1069 760 C 1069 512 1023 319 933 181 C 843 42 727 -27 585 -27 C 493 -27 409 4 333 68 C 257 131 200 224 161 348 C 121 471 102 606 102 754 C 102 904 121 1041 159 1165 C 197 1289 254 1383 330 1448 C 406 1513 491 1546 585 1546 Z M 915 828 C 901 1050 864 1203 802 1289 C 740 1374 668 1417 586 1417 C 502 1417 430 1374 368 1289 C 306 1203 268 1050 256 828 L 915 828 Z M 915 691 L 256 691 C 269 469 306 316 368 231 C 429 146 501 104 585 104 C 668 104 740 146 802 231 C 864 316 901 469 915 691 Z" unicode="θ" />
<glyph horiz-adv-x="535" d="M 340 0 L 195 0 L 195 1075 L 340 1075 L 340 0 Z" unicode="ι" />
<glyph horiz-adv-x="1077" d="M 339 0 L 194 0 L 194 1075 L 339 1075 L 339 526 L 829 1075 L 1019 1075 L 665 698 L 1056 0 L 892 0 L 573 602 L 339 356 L 339 0 Z" unicode="κ" />
<glyph horiz-adv-x="979" d="M 938 0 L 776 0 L 487 864 L 199 0 L 41 0 L 413 1044 L 239 1516 L 401 1516 L 938 0 Z" unicode="λ" />
<glyph horiz-adv-x="1247" d="M 906 1075 L 1051 1075 L 1051 0 L 906 0 L 906 162 C 805 38 702 -23 597 -23 C 509 -23 424 7 342 69 L 342 -410 L 197 -410 L 197 1075 L 342 1075 L 342 428 C 342 338 366 263 414 205 C 462 147 523 118 598 118 C 726 118 829 195 906 349 L 906 1075 Z" unicode="μ" />
<glyph horiz-adv-x="979" d="M 422 0 L 41 1075 L 203 1075 L 491 205 L 780 1075 L 938 1075 L 555 0 L 422 0 Z" unicode="ν" />
<glyph horiz-adv-x="880" d="M 547 -410 L 488 -296 C 642 -221 720 -145 720 -68 C 720 10 660 58 542 76 C 453 89 390 101 352 113 C 314 125 275 147 234 180 C 193 213 161 256 137 309 C 113 362 102 422 102 489 C 102 587 131 676 191 758 C 251 840 339 904 457 952 C 341 967 262 1002 220 1057 C 177 1112 156 1170 156 1232 C 156 1323 194 1398 272 1458 C 349 1518 456 1548 592 1548 L 758 1548 L 758 1423 L 623 1423 C 505 1423 422 1405 373 1369 C 324 1333 300 1285 300 1225 C 300 1175 320 1132 360 1096 C 400 1059 492 1041 635 1041 L 746 1041 L 746 916 C 596 916 478 873 391 788 C 304 702 261 605 261 495 C 261 441 273 391 298 346 C 322 301 356 269 400 251 C 444 233 500 217 568 204 C 763 167 861 81 861 -55 C 861 -193 756 -312 547 -410 Z" unicode="ξ" />
<glyph horiz-adv-x="1171" d="M 102 534 C 102 703 147 839 238 943 C 329 1046 446 1097 588 1097 C 726 1097 840 1043 932 937 C 1023 831 1069 694 1069 528 C 1069 365 1023 233 933 131 C 842 29 732 -22 602 -22 C 456 -22 337 29 243 133 C 149 237 102 370 102 534 Z M 915 542 C 915 673 886 777 828 855 C 770 932 691 971 592 971 C 488 971 406 931 346 851 C 286 771 256 668 256 540 C 256 410 286 304 347 224 C 407 144 488 104 588 104 C 684 104 762 144 823 224 C 884 304 915 410 915 542 Z" unicode="ο" />
<glyph horiz-adv-x="1401" d="M 1352 1075 L 1352 944 L 1099 944 L 1099 0 L 954 0 L 954 944 L 447 944 L 447 0 L 301 0 L 301 944 L 48 944 L 48 1075 L 1352 1075 Z" unicode="π" />
<glyph horiz-adv-x="1240" d="M 326 -410 L 181 -410 L 181 420 C 181 548 186 646 198 714 C 210 782 236 845 277 904 C 317 962 372 1009 440 1044 C 508 1079 582 1097 662 1097 C 802 1097 917 1047 1005 948 C 1093 849 1138 709 1138 527 C 1138 364 1092 232 1001 130 C 909 28 799 -22 671 -22 C 542 -22 427 37 326 156 L 326 -410 Z M 340 536 C 340 398 370 292 431 217 C 491 141 567 104 657 104 C 756 104 836 145 896 229 C 956 312 987 412 987 530 C 987 641 958 742 902 834 C 845 925 764 971 660 971 C 563 971 485 931 427 852 C 369 772 340 667 340 536 Z" unicode="ρ" />
<glyph horiz-adv-x="1021" d="M 663 -410 L 605 -300 C 651 -272 688 -247 714 -225 C 740 -203 754 -174 754 -140 C 754 -100 740 -69 712 -47 C 684 -25 629 -2 547 22 C 463 46 387 76 318 112 C 249 148 196 205 158 283 C 120 361 102 445 102 536 C 102 690 147 822 238 932 C 329 1042 445 1097 585 1097 C 761 1097 896 1009 992 835 L 864 781 C 812 861 764 914 721 940 C 677 966 631 979 583 979 C 489 979 411 937 351 855 C 291 773 261 671 261 549 C 261 460 280 382 319 316 C 357 250 446 194 584 149 C 705 109 787 72 830 38 C 873 4 895 -43 895 -107 C 895 -231 817 -332 663 -410 Z" unicode="ς" />
<glyph horiz-adv-x="1171" d="M 735 1075 L 1159 1075 L 1159 944 L 918 944 C 1018 846 1069 707 1069 529 C 1069 367 1023 234 933 132 C 842 29 729 -22 595 -22 C 457 -22 341 28 245 130 C 149 232 102 366 102 533 C 102 702 147 838 239 942 C 331 1045 447 1097 587 1097 C 635 1097 684 1089 735 1075 Z M 256 538 C 256 408 286 304 346 224 C 406 144 487 104 587 104 C 683 104 761 143 823 222 C 884 301 915 408 915 542 C 915 679 884 785 823 859 C 761 933 684 971 590 971 C 488 971 407 931 347 852 C 286 772 256 668 256 538 Z" unicode="σ" />
<glyph horiz-adv-x="809" d="M 761 1075 L 761 944 L 477 944 L 477 0 L 332 0 L 332 944 L 48 944 L 48 1075 L 761 1075 Z" unicode="τ" />
<glyph horiz-adv-x="1216" d="M 890 1075 L 1035 1075 L 1035 432 C 1035 269 996 154 918 88 C 840 22 737 -11 608 -11 C 510 -11 431 4 373 36 C 315 67 268 111 233 168 C 198 225 181 313 181 432 L 181 1075 L 326 1075 L 326 432 C 326 296 356 211 418 175 C 480 139 544 121 611 121 C 688 121 754 139 808 175 C 862 211 890 297 890 432 L 890 1075 Z" unicode="υ" />
<glyph horiz-adv-x="1363" d="M 754 -19 L 754 -410 L 609 -410 L 609 -19 C 524 -4 457 13 408 34 C 359 55 309 90 259 140 C 208 190 169 249 142 318 C 115 386 102 460 102 539 C 102 647 128 749 182 843 C 236 937 330 1009 464 1059 L 464 916 C 333 838 268 712 268 539 C 268 431 296 337 353 259 C 409 180 495 131 609 112 L 609 1029 C 609 1059 630 1075 674 1075 C 850 1075 991 1023 1099 919 C 1206 815 1260 685 1260 531 C 1260 395 1217 275 1132 171 C 1047 67 921 3 754 -19 Z M 754 942 L 754 112 C 866 131 951 180 1008 259 C 1065 338 1094 426 1094 523 C 1094 621 1064 710 1006 792 C 947 873 863 923 754 942 Z" unicode="φ" />
<glyph horiz-adv-x="910" d="M 456 190 L 174 -409 L 16 -409 L 376 360 L 41 1075 L 203 1075 L 456 531 L 711 1075 L 869 1075 L 535 360 L 894 -409 L 736 -409 L 456 190 Z" unicode="χ" />
<glyph horiz-adv-x="1553" d="M 181 1075 L 336 1075 L 336 526 C 336 420 345 341 364 287 C 383 233 420 189 476 157 C 532 125 606 107 699 103 L 699 1075 L 854 1075 L 854 103 C 952 107 1027 125 1079 158 C 1131 191 1167 234 1187 288 C 1207 342 1217 421 1217 526 L 1217 1075 L 1372 1075 L 1372 532 C 1372 404 1363 313 1347 261 C 1330 209 1300 160 1257 116 C 1214 72 1162 38 1100 15 C 1038 -8 956 -21 854 -24 L 854 -410 L 699 -410 L 699 -24 C 598 -21 514 -7 447 17 C 379 42 326 77 288 123 C 249 168 221 216 205 268 C 189 319 181 407 181 532 L 181 1075 Z" unicode="ψ" />
<glyph horiz-adv-x="1606" d="M 803 234 C 788 158 748 97 684 49 C 619 1 551 -22 479 -22 C 377 -22 289 22 214 111 C 139 200 102 338 102 524 C 102 604 110 683 128 759 C 145 835 187 941 255 1075 L 403 1075 C 308 861 261 673 261 512 C 261 386 283 286 328 211 C 373 135 430 98 499 98 C 551 98 602 124 651 176 C 700 228 725 333 725 489 L 725 799 L 880 799 L 880 489 C 880 400 886 331 899 281 C 912 231 938 188 978 152 C 1017 116 1060 98 1106 98 C 1174 98 1231 135 1276 211 C 1321 287 1344 387 1344 512 C 1344 673 1296 861 1202 1075 L 1350 1075 C 1416 943 1458 839 1476 763 C 1494 687 1503 607 1503 524 C 1503 336 1465 198 1390 110 C 1314 22 1226 -22 1126 -22 C 1054 -22 986 1 921 49 C 856 97 817 158 803 234 Z" unicode="ω" />
<glyph horiz-adv-x="535" d="M 340 0 L 195 0 L 195 1075 L 340 1075 L 340 0 Z M -24 1249 L -24 1423 L 150 1423 L 150 1249 L -24 1249 Z M 386 1249 L 386 1423 L 560 1423 L 560 1249 L 386 1249 Z" unicode="ϊ" />
<glyph horiz-adv-x="1216" d="M 890 1075 L 1035 1075 L 1035 432 C 1035 269 996 154 918 88 C 840 22 737 -11 608 -11 C 510 -11 431 4 373 36 C 315 67 268 111 233 168 C 198 225 181 313 181 432 L 181 1075 L 326 1075 L 326 432 C 326 296 356 211 418 175 C 480 139 544 121 611 121 C 688 121 754 139 808 175 C 862 211 890 297 890 432 L 890 1075 Z M 316 1249 L 316 1423 L 490 1423 L 490 1249 L 316 1249 Z M 726 1249 L 726 1423 L 900 1423 L 900 1249 L 726 1249 Z" unicode="ϋ" />
<glyph horiz-adv-x="1171" d="M 102 534 C 102 703 147 839 238 943 C 329 1046 446 1097 588 1097 C 726 1097 840 1043 932 937 C 1023 831 1069 694 1069 528 C 1069 365 1023 233 933 131 C 842 29 732 -22 602 -22 C 456 -22 337 29 243 133 C 149 237 102 370 102 534 Z M 915 542 C 915 673 886 777 828 855 C 770 932 691 971 592 971 C 488 971 406 931 346 851 C 286 771 256 668 256 540 C 256 410 286 304 347 224 C 407 144 488 104 588 104 C 684 104 762 144 823 224 C 884 304 915 410 915 542 Z M 560 1279 L 435 1279 L 654 1515 L 877 1515 L 560 1279 Z" unicode="ό" />
<glyph horiz-adv-x="1216" d="M 890 1075 L 1035 1075 L 1035 432 C 1035 269 996 154 918 88 C 840 22 737 -11 608 -11 C 510 -11 431 4 373 36 C 315 67 268 111 233 168 C 198 225 181 313 181 432 L 181 1075 L 326 1075 L 326 432 C 326 296 356 211 418 175 C 480 139 544 121 611 121 C 688 121 754 139 808 175 C 862 211 890 297 890 432 L 890 1075 Z M 583 1279 L 458 1279 L 677 1515 L 900 1515 L 583 1279 Z" unicode="ύ" />
<glyph horiz-adv-x="1606" d="M 803 234 C 788 158 748 97 684 49 C 619 1 551 -22 479 -22 C 377 -22 289 22 214 111 C 139 200 102 338 102 524 C 102 604 110 683 128 759 C 145 835 187 941 255 1075 L 403 1075 C 308 861 261 673 261 512 C 261 386 283 286 328 211 C 373 135 430 98 499 98 C 551 98 602 124 651 176 C 700 228 725 333 725 489 L 725 799 L 880 799 L 880 489 C 880 400 886 331 899 281 C 912 231 938 188 978 152 C 1017 116 1060 98 1106 98 C 1174 98 1231 135 1276 211 C 1321 287 1344 387 1344 512 C 1344 673 1296 861 1202 1075 L 1350 1075 C 1416 943 1458 839 1476 763 C 1494 687 1503 607 1503 524 C 1503 336 1465 198 1390 110 C 1314 22 1226 -22 1126 -22 C 1054 -22 986 1 921 49 C 856 97 817 158 803 234 Z M 759 1279 L 634 1279 L 853 1515 L 1076 1515 L 759 1279 Z" unicode="ώ" />
<glyph horiz-adv-x="1214" d="M 209 0 L 209 1515 L 1102 1515 L 1102 1372 L 362 1372 L 362 876 L 911 876 L 911 731 L 362 731 L 362 145 L 1173 145 L 1173 0 L 209 0 Z M 348 1661 L 348 1835 L 522 1835 L 522 1661 L 348 1661 Z M 758 1661 L 758 1835 L 932 1835 L 932 1661 L 758 1661 Z" unicode="Ё" />
<glyph horiz-adv-x="1567" d="M 1000 -260 C 1080 -246 1143 -211 1189 -155 C 1234 -99 1257 -10 1257 110 L 1257 723 C 1257 791 1250 842 1238 874 C 1225 906 1201 931 1167 949 C 1132 967 1092 977 1046 977 C 941 977 818 932 678 843 L 678 0 L 524 0 L 524 1370 L 41 1370 L 41 1515 L 1157 1515 L 1157 1370 L 678 1370 L 678 979 C 784 1039 864 1077 918 1095 C 972 1113 1025 1122 1075 1122 C 1144 1122 1205 1106 1259 1074 C 1313 1042 1351 1001 1375 950 C 1398 899 1410 820 1410 714 L 1410 110 C 1410 -180 1287 -350 1041 -401 L 1000 -260 Z" unicode="Ђ" />
<glyph horiz-adv-x="1126" d="M 1086 1515 L 1086 1370 L 363 1370 L 363 0 L 209 0 L 209 1515 L 1086 1515 Z M 483 1622 L 702 1952 L 926 1952 L 608 1622 L 483 1622 Z" unicode="Ѓ" />
<glyph horiz-adv-x="1366" d="M 281 850 L 1001 850 L 1001 704 L 281 704 C 289 524 333 381 415 275 C 496 169 601 116 730 116 C 940 116 1079 238 1147 483 L 1305 451 C 1254 281 1178 158 1076 84 C 974 9 858 -28 727 -28 C 601 -28 492 7 400 78 C 308 148 238 242 189 360 C 139 477 115 611 115 762 C 115 996 170 1186 281 1330 C 392 1474 538 1546 719 1546 C 847 1546 961 1510 1061 1438 C 1161 1366 1234 1247 1282 1083 L 1125 1059 C 1057 1287 926 1402 731 1402 C 609 1402 508 1356 426 1266 C 344 1175 296 1036 281 850 Z" unicode="Є" />
<glyph horiz-adv-x="1288" d="M 96 383 L 254 424 C 312 216 445 112 653 112 C 759 112 846 139 913 193 C 980 247 1014 316 1014 401 C 1014 545 895 645 657 700 C 318 778 149 923 149 1136 C 149 1252 195 1349 285 1428 C 375 1506 488 1546 624 1546 C 754 1546 864 1514 954 1451 C 1044 1388 1106 1298 1140 1181 L 987 1134 C 934 1313 814 1403 626 1403 C 535 1403 460 1380 401 1334 C 342 1288 313 1228 313 1155 C 313 1017 437 918 686 860 C 1013 782 1177 631 1177 409 C 1177 281 1127 176 1028 94 C 929 12 804 -28 653 -28 C 515 -28 396 6 298 74 C 199 142 132 245 96 383 Z" unicode="Ѕ" />
<glyph horiz-adv-x="571" d="M 209 0 L 209 1515 L 362 1515 L 362 0 L 209 0 Z" unicode="І" />
<glyph horiz-adv-x="571" d="M 209 0 L 209 1515 L 362 1515 L 362 0 L 209 0 Z M -5 1661 L -5 1835 L 169 1835 L 169 1661 L -5 1661 Z M 405 1661 L 405 1835 L 579 1835 L 579 1661 L 405 1661 Z" unicode="Ї" />
<glyph horiz-adv-x="944" d="M 596 489 L 596 1515 L 749 1515 L 749 489 C 749 319 712 191 638 103 C 564 15 467 -28 346 -28 C 192 -28 67 46 -28 194 L 98 266 C 164 166 246 116 346 116 C 512 116 596 240 596 489 Z" unicode="Ј" />
<glyph horiz-adv-x="2005" d="M 1006 856 L 1398 856 C 1555 856 1680 815 1774 735 C 1868 655 1915 551 1915 424 C 1915 297 1870 195 1781 117 C 1692 39 1572 0 1422 0 L 1115 0 L 683 1396 L 621 1396 L 185 0 L 31 0 L 515 1515 L 796 1515 L 1006 856 Z M 1052 710 L 1233 145 L 1365 145 C 1504 145 1603 168 1662 214 C 1721 260 1751 331 1751 427 C 1751 615 1629 710 1386 710 L 1052 710 Z" unicode="Љ" />
<glyph horiz-adv-x="2165" d="M 1234 875 L 1558 875 C 1718 875 1844 833 1936 750 C 2028 667 2075 561 2075 433 C 2075 303 2030 199 1941 119 C 1851 39 1732 0 1582 0 L 1081 0 L 1081 729 L 363 729 L 363 0 L 209 0 L 209 1515 L 363 1515 L 363 875 L 1081 875 L 1081 1515 L 1234 1515 L 1234 875 Z M 1234 729 L 1234 145 L 1525 145 C 1665 145 1765 169 1823 217 C 1881 265 1911 338 1911 436 C 1911 631 1789 729 1546 729 L 1234 729 Z" unicode="Њ" />
<glyph horiz-adv-x="1567" d="M 678 979 C 788 1041 869 1080 922 1097 C 975 1113 1026 1122 1075 1122 C 1144 1122 1205 1106 1259 1074 C 1313 1042 1351 1001 1375 950 C 1398 898 1410 820 1410 714 L 1410 0 L 1256 0 L 1256 723 C 1256 790 1250 840 1238 872 C 1226 904 1203 930 1169 949 C 1134 967 1093 977 1046 977 C 941 977 818 932 678 843 L 678 0 L 524 0 L 524 1370 L 41 1370 L 41 1515 L 1157 1515 L 1157 1370 L 678 1370 L 678 979 Z" unicode="Ћ" />
<glyph horiz-adv-x="1345" d="M 209 0 L 209 1515 L 362 1515 L 362 735 L 1071 1515 L 1261 1515 L 739 942 L 1331 0 L 1155 0 L 641 831 L 362 526 L 362 0 L 209 0 Z M 510 1622 L 729 1952 L 953 1952 L 635 1622 L 510 1622 Z" unicode="Ќ" />
<glyph horiz-adv-x="1208" d="M 209 163 C 241 151 270 145 295 145 C 324 145 355 155 387 176 C 419 196 457 256 501 356 L 528 419 L 31 1515 L 198 1515 L 605 591 L 1015 1515 L 1178 1515 L 664 382 C 604 251 562 166 536 126 C 510 86 479 55 442 33 C 404 11 365 0 325 0 C 285 0 235 10 174 31 L 209 163 Z M 824 1912 L 924 1912 C 899 1832 858 1769 802 1724 C 746 1679 682 1656 611 1656 C 463 1656 360 1741 302 1912 L 400 1912 C 443 1840 514 1804 613 1804 C 711 1804 781 1840 824 1912 Z" unicode="Ў" />
<glyph horiz-adv-x="1515" d="M 675 0 L 209 0 L 209 1515 L 363 1515 L 363 145 L 1153 145 L 1153 1515 L 1307 1515 L 1307 0 L 840 0 L 823 -255 L 692 -255 L 675 0 Z" unicode="Џ" />
<glyph horiz-adv-x="1292" d="M 30 0 L 532 1515 L 764 1515 L 1261 0 L 1102 0 L 948 471 L 336 471 L 184 0 L 30 0 Z M 901 618 L 645 1415 L 385 618 L 901 618 Z" unicode="А" />
<glyph horiz-adv-x="1366" d="M 1119 1515 L 1119 1370 L 363 1370 L 363 856 L 686 856 C 865 856 1008 815 1115 735 C 1222 655 1276 551 1276 424 C 1276 297 1224 195 1122 117 C 1020 39 883 0 711 0 L 209 0 L 209 1515 L 1119 1515 Z M 363 710 L 363 145 L 653 145 C 819 145 937 168 1007 214 C 1077 260 1112 330 1112 426 C 1112 615 966 710 674 710 L 363 710 Z" unicode="Б" />
<glyph horiz-adv-x="1427" d="M 745 0 L 209 0 L 209 1515 L 688 1515 C 890 1515 1038 1477 1132 1403 C 1226 1329 1274 1239 1274 1134 C 1274 977 1181 860 997 782 C 1209 700 1315 575 1315 409 C 1315 291 1264 193 1162 116 C 1060 38 921 0 745 0 Z M 737 1372 L 364 1372 L 364 850 L 631 850 C 951 850 1112 939 1112 1118 C 1112 1193 1079 1254 1013 1301 C 947 1348 855 1372 737 1372 Z M 710 708 L 364 708 L 364 143 L 778 143 C 891 143 981 167 1048 217 C 1115 267 1149 335 1149 422 C 1149 510 1110 580 1033 631 C 956 682 848 708 710 708 Z" unicode="В" />
<glyph horiz-adv-x="1126" d="M 1086 1515 L 1086 1370 L 363 1370 L 363 0 L 209 0 L 209 1515 L 1086 1515 Z" unicode="Г" />
<glyph horiz-adv-x="1404" d="M 36 -255 L 36 145 L 130 145 L 562 1515 L 841 1515 L 1273 145 L 1367 145 L 1367 -255 L 1236 -255 L 1214 0 L 190 0 L 167 -255 L 36 -255 Z M 285 145 L 1108 145 L 729 1396 L 668 1396 L 285 145 Z" unicode="Д" />
<glyph horiz-adv-x="1214" d="M 209 0 L 209 1515 L 1102 1515 L 1102 1372 L 362 1372 L 362 876 L 911 876 L 911 731 L 362 731 L 362 145 L 1173 145 L 1173 0 L 209 0 Z" unicode="Е" />
<glyph horiz-adv-x="1923" d="M 884 711 L 804 736 L 198 0 L 14 0 L 676 805 L 96 1515 L 289 1515 L 814 877 L 884 851 L 884 1515 L 1038 1515 L 1038 851 L 1116 877 L 1641 1515 L 1826 1515 L 1246 805 L 1908 0 L 1717 0 L 1111 736 L 1038 711 L 1038 0 L 884 0 L 884 711 Z" unicode="Ж" />
<glyph horiz-adv-x="1273" d="M 62 294 L 194 369 C 245 275 302 209 365 172 C 427 134 507 116 604 116 C 732 116 829 143 896 199 C 963 254 997 327 997 417 C 997 512 956 584 876 633 C 795 682 688 707 556 707 L 413 707 L 413 852 L 477 852 C 797 852 958 944 958 1130 C 958 1210 925 1276 861 1326 C 797 1376 713 1402 611 1402 C 438 1402 312 1323 234 1166 L 92 1231 C 200 1441 377 1546 624 1546 C 772 1546 892 1506 984 1427 C 1076 1348 1122 1254 1122 1146 C 1122 989 1029 868 843 782 C 939 752 1016 702 1074 633 C 1132 564 1161 488 1161 404 C 1161 286 1111 184 1013 99 C 915 14 781 -28 612 -28 C 484 -28 376 -3 289 44 C 202 92 126 176 62 294 Z" unicode="З" />
<glyph horiz-adv-x="1559" d="M 1196 0 L 1196 1384 L 363 0 L 209 0 L 209 1515 L 363 1515 L 363 279 L 1114 1515 L 1350 1515 L 1350 0 L 1196 0 Z" unicode="И" />
<glyph horiz-adv-x="1559" d="M 1196 0 L 1196 1384 L 363 0 L 209 0 L 209 1515 L 363 1515 L 363 279 L 1114 1515 L 1350 1515 L 1350 0 L 1196 0 Z M 990 1912 L 1090 1912 C 1065 1832 1024 1769 968 1724 C 912 1679 848 1656 777 1656 C 629 1656 526 1741 468 1912 L 566 1912 C 609 1840 680 1804 779 1804 C 877 1804 947 1840 990 1912 Z" unicode="Й" />
<glyph horiz-adv-x="1345" d="M 209 0 L 209 1515 L 362 1515 L 362 735 L 1071 1515 L 1261 1515 L 739 942 L 1331 0 L 1155 0 L 641 831 L 362 526 L 362 0 L 209 0 Z" unicode="К" />
<glyph horiz-adv-x="1286" d="M 185 0 L 31 0 L 503 1515 L 783 1515 L 1255 0 L 1091 0 L 671 1396 L 610 1396 L 185 0 Z" unicode="Л" />
<glyph horiz-adv-x="1804" d="M 209 0 L 209 1515 L 461 1515 L 903 295 L 1341 1515 L 1595 1515 L 1595 0 L 1442 0 L 1442 1380 L 942 0 L 854 0 L 356 1380 L 356 0 L 209 0 Z" unicode="М" />
<glyph horiz-adv-x="1515" d="M 209 0 L 209 1515 L 362 1515 L 362 872 L 1153 872 L 1153 1515 L 1306 1515 L 1306 0 L 1153 0 L 1153 729 L 362 729 L 362 0 L 209 0 Z" unicode="Н" />
<glyph horiz-adv-x="1487" d="M 114 745 C 114 985 172 1178 288 1325 C 404 1472 558 1546 749 1546 C 933 1546 1082 1472 1198 1325 C 1314 1177 1372 987 1372 753 C 1372 517 1311 328 1191 186 C 1071 43 923 -28 747 -28 C 559 -28 406 44 289 190 C 172 335 114 520 114 745 Z M 1208 747 C 1208 947 1166 1107 1083 1225 C 999 1343 886 1403 743 1403 C 603 1403 490 1345 406 1229 C 321 1113 278 955 278 755 C 278 557 321 401 406 287 C 490 173 599 116 733 116 C 877 116 992 174 1078 288 C 1164 402 1208 555 1208 747 Z" unicode="О" />
<glyph horiz-adv-x="1515" d="M 363 0 L 209 0 L 209 1515 L 1307 1515 L 1307 0 L 1153 0 L 1153 1370 L 363 1370 L 363 0 Z" unicode="П" />
<glyph horiz-adv-x="1323" d="M 209 0 L 209 1515 L 710 1515 C 876 1515 1008 1477 1105 1401 C 1202 1325 1251 1226 1251 1104 C 1251 978 1199 877 1097 800 C 995 722 858 684 686 684 L 362 684 L 362 0 L 209 0 Z M 653 1374 L 362 1374 L 362 827 L 674 827 C 948 827 1085 919 1085 1104 C 1085 1284 941 1374 653 1374 Z" unicode="Р" />
<glyph horiz-adv-x="1366" d="M 1147 481 L 1304 450 C 1264 298 1193 180 1091 97 C 989 13 868 -28 727 -28 C 546 -28 399 45 285 191 C 171 337 114 527 114 762 C 114 996 170 1185 280 1329 C 390 1473 536 1546 719 1546 C 860 1546 980 1505 1079 1424 C 1178 1342 1246 1229 1282 1083 L 1124 1059 C 1063 1288 932 1403 731 1403 C 592 1403 482 1346 400 1233 C 318 1120 278 965 278 768 C 278 567 319 407 401 289 C 483 171 593 112 729 112 C 945 112 1085 235 1147 481 Z" unicode="С" />
<glyph horiz-adv-x="1198" d="M 1157 1372 L 678 1372 L 678 0 L 524 0 L 524 1372 L 41 1372 L 41 1515 L 1157 1515 L 1157 1372 Z" unicode="Т" />
<glyph horiz-adv-x="1208" d="M 209 163 C 241 151 270 145 295 145 C 324 145 355 155 387 176 C 419 196 457 256 501 356 L 528 419 L 31 1515 L 198 1515 L 605 591 L 1015 1515 L 1178 1515 L 664 382 C 604 251 562 166 536 126 C 510 86 479 55 442 33 C 404 11 365 0 325 0 C 285 0 235 10 174 31 L 209 163 Z" unicode="У" />
<glyph horiz-adv-x="1487" d="M 669 123 C 500 141 365 208 265 324 C 165 440 115 585 115 759 C 115 928 163 1072 260 1192 C 357 1311 493 1381 669 1402 L 669 1548 L 823 1548 L 823 1402 C 996 1381 1131 1311 1227 1191 C 1323 1071 1372 926 1372 757 C 1372 591 1323 450 1227 333 C 1130 215 995 145 823 123 L 823 -29 L 669 -29 L 669 123 Z M 823 1257 L 823 270 C 956 291 1054 346 1116 436 C 1178 525 1209 630 1209 752 C 1209 876 1178 986 1118 1084 C 1058 1182 959 1239 823 1257 Z M 669 268 L 669 1256 C 541 1239 444 1186 378 1097 C 312 1007 279 894 279 757 C 279 633 308 525 368 434 C 427 343 527 288 669 268 Z" unicode="Ф" />
<glyph horiz-adv-x="1257" d="M 542 811 L 100 1515 L 282 1515 L 626 944 L 977 1515 L 1157 1515 L 710 811 L 1227 0 L 1048 0 L 626 678 L 213 0 L 30 0 L 542 811 Z" unicode="Х" />
<glyph horiz-adv-x="1515" d="M 1308 145 L 1462 145 L 1462 -255 L 1331 -255 L 1308 0 L 209 0 L 209 1515 L 363 1515 L 363 145 L 1153 145 L 1153 1515 L 1308 1515 L 1308 145 Z" unicode="Ц" />
<glyph horiz-adv-x="1288" d="M 925 537 C 815 475 733 435 680 418 C 627 401 576 393 526 393 C 448 393 380 409 321 442 C 262 474 220 516 195 568 C 169 619 157 697 157 801 L 157 1515 L 311 1515 L 311 793 C 311 729 317 681 329 649 C 341 617 366 590 406 570 C 446 549 496 539 557 539 C 661 539 784 583 925 673 L 925 1515 L 1079 1515 L 1079 0 L 925 0 L 925 537 Z" unicode="Ч" />
<glyph horiz-adv-x="2071" d="M 959 145 L 959 1515 L 1112 1515 L 1112 145 L 1708 145 L 1708 1515 L 1862 1515 L 1862 0 L 209 0 L 209 1515 L 363 1515 L 363 145 L 959 145 Z" unicode="Ш" />
<glyph horiz-adv-x="2071" d="M 959 145 L 959 1515 L 1112 1515 L 1112 145 L 1708 145 L 1708 1515 L 1863 1515 L 1863 145 L 2017 145 L 2017 -255 L 1886 -255 L 1863 0 L 209 0 L 209 1515 L 363 1515 L 363 145 L 959 145 Z" unicode="Щ" />
<glyph horiz-adv-x="1397" d="M 0 1515 L 466 1515 L 466 856 L 790 856 C 950 856 1077 815 1169 733 C 1261 651 1307 548 1307 424 C 1307 297 1262 195 1173 117 C 1084 39 964 0 814 0 L 312 0 L 312 1370 L 0 1370 L 0 1515 Z M 466 710 L 466 145 L 757 145 C 896 145 995 168 1054 214 C 1113 260 1143 331 1143 427 C 1143 615 1021 710 777 710 L 466 710 Z" unicode="Ъ" />
<glyph horiz-adv-x="1821" d="M 209 1515 L 363 1515 L 363 856 L 686 856 C 847 856 973 815 1065 733 C 1157 651 1203 548 1203 424 C 1203 297 1158 195 1069 117 C 980 39 861 0 711 0 L 209 0 L 209 1515 Z M 363 710 L 363 145 L 653 145 C 793 145 892 168 951 214 C 1009 260 1039 331 1039 427 C 1039 615 917 710 674 710 L 363 710 Z M 1612 0 L 1459 0 L 1459 1515 L 1612 1515 L 1612 0 Z" unicode="Ы" />
<glyph horiz-adv-x="1294" d="M 209 1515 L 363 1515 L 363 856 L 686 856 C 847 856 973 815 1065 733 C 1157 651 1203 548 1203 424 C 1203 297 1158 195 1069 117 C 980 39 861 0 711 0 L 209 0 L 209 1515 Z M 363 710 L 363 145 L 653 145 C 793 145 892 168 951 214 C 1009 260 1039 331 1039 427 C 1039 615 917 710 674 710 L 363 710 Z" unicode="Ь" />
<glyph horiz-adv-x="1366" d="M 1086 850 C 1070 1039 1021 1178 939 1268 C 857 1357 756 1402 636 1402 C 440 1402 309 1287 242 1059 L 85 1083 C 131 1246 204 1364 303 1437 C 402 1509 517 1546 648 1546 C 770 1546 877 1511 970 1443 C 1063 1375 1133 1280 1181 1159 C 1228 1038 1252 906 1252 762 C 1252 527 1194 337 1080 191 C 965 45 818 -28 640 -28 C 508 -28 392 9 290 84 C 188 158 112 281 62 451 L 220 483 C 286 238 425 116 637 116 C 765 116 870 169 952 276 C 1033 382 1078 525 1086 704 L 366 704 L 366 850 L 1086 850 Z" unicode="Э" />
<glyph horiz-adv-x="1996" d="M 363 850 L 626 850 C 644 1064 711 1234 826 1359 C 941 1483 1085 1546 1258 1546 C 1378 1546 1486 1511 1582 1443 C 1678 1375 1752 1279 1804 1157 C 1855 1035 1881 900 1881 753 C 1881 521 1821 332 1702 188 C 1582 44 1432 -28 1250 -28 C 1080 -28 936 37 818 169 C 700 301 636 479 626 705 L 363 705 L 363 0 L 209 0 L 209 1515 L 363 1515 L 363 850 Z M 788 755 C 788 555 830 399 915 286 C 1000 172 1109 116 1242 116 C 1384 116 1499 172 1587 286 C 1674 399 1718 558 1718 764 C 1718 876 1699 983 1663 1085 C 1627 1187 1573 1265 1502 1320 C 1430 1374 1348 1402 1254 1402 C 1113 1402 1000 1344 915 1229 C 830 1113 788 955 788 755 Z" unicode="Ю" />
<glyph horiz-adv-x="1372" d="M 1009 0 L 1009 688 L 600 688 L 241 0 L 63 0 L 452 719 C 229 789 118 917 118 1102 C 118 1189 139 1261 181 1318 C 223 1374 281 1421 355 1459 C 429 1496 543 1515 698 1515 L 1163 1515 L 1163 0 L 1009 0 Z M 1009 834 L 1009 1370 L 638 1370 C 526 1370 439 1347 376 1301 C 313 1255 282 1190 282 1106 C 282 924 418 834 692 834 L 1009 834 Z" unicode="Я" />
<glyph horiz-adv-x="1126" d="M 807 180 C 673 45 535 -22 391 -22 C 299 -22 226 5 170 61 C 114 116 86 185 86 268 C 86 356 122 436 194 507 C 266 577 470 646 807 712 L 807 739 C 807 825 786 886 746 923 C 705 960 655 979 596 979 C 468 979 343 918 219 798 L 112 889 C 245 1027 397 1097 569 1097 C 677 1097 768 1067 842 1007 C 915 947 952 848 952 712 L 952 258 C 952 162 961 76 981 0 L 835 0 C 817 58 808 118 807 180 Z M 807 264 L 807 606 C 557 548 400 495 336 445 C 272 395 239 336 239 270 C 239 222 257 182 293 152 C 329 121 375 106 432 106 C 536 106 661 158 807 264 Z" unicode="а" />
<glyph horiz-adv-x="1171" d="M 848 1577 L 994 1577 C 988 1485 964 1421 922 1385 C 880 1348 806 1321 702 1305 C 602 1289 528 1269 480 1247 C 432 1224 393 1192 364 1150 C 335 1108 308 1044 284 956 C 314 996 358 1030 416 1057 C 473 1083 532 1097 593 1097 C 723 1097 835 1044 929 938 C 1022 832 1069 695 1069 527 C 1069 366 1023 234 933 132 C 842 29 729 -22 595 -22 C 461 -22 345 28 248 128 C 150 228 102 391 102 615 C 102 745 119 876 153 1007 C 187 1137 241 1235 313 1299 C 385 1363 485 1407 613 1429 C 693 1442 743 1451 763 1457 C 783 1463 802 1474 819 1490 C 835 1506 845 1535 848 1577 Z M 255 538 C 255 401 286 294 350 218 C 413 142 492 104 587 104 C 683 104 761 143 823 222 C 884 301 915 408 915 542 C 915 679 884 785 823 859 C 761 933 684 971 590 971 C 488 971 407 931 346 852 C 285 772 255 668 255 538 Z" unicode="б" />
<glyph horiz-adv-x="1177" d="M 195 1075 L 656 1075 C 768 1075 857 1052 925 1006 C 992 960 1026 897 1026 816 C 1026 717 977 636 879 572 C 1009 513 1075 427 1075 314 C 1075 234 1041 162 973 97 C 905 32 805 0 673 0 L 195 0 L 195 1075 Z M 340 622 L 626 622 C 720 622 785 639 820 675 C 855 710 873 749 873 793 C 873 893 788 944 618 944 L 340 944 L 340 622 Z M 340 491 L 340 131 L 666 131 C 747 131 810 149 854 186 C 898 222 921 266 921 318 C 921 366 901 407 863 441 C 825 474 762 491 674 491 L 340 491 Z" unicode="в" />
<glyph horiz-adv-x="841" d="M 816 1075 L 816 944 L 339 944 L 339 0 L 194 0 L 194 1075 L 816 1075 Z" unicode="г" />
<glyph horiz-adv-x="1114" d="M 966 131 L 1065 131 L 1065 -208 L 955 -208 L 936 0 L 179 0 L 161 -208 L 50 -208 L 50 131 L 149 131 L 449 1075 L 668 1075 L 966 131 Z M 805 131 L 570 914 L 541 914 L 306 131 L 805 131 Z" unicode="д" />
<glyph horiz-adv-x="1102" d="M 889 325 L 1007 241 C 876 65 729 -22 565 -22 C 433 -22 323 28 235 131 C 147 234 102 371 102 542 C 102 708 145 842 232 944 C 319 1046 425 1097 551 1097 C 668 1097 773 1051 865 958 C 957 865 1005 720 1007 524 L 248 524 C 253 394 285 291 344 217 C 402 143 473 106 557 106 C 680 106 791 179 889 325 Z M 254 655 L 856 655 C 846 755 812 834 756 893 C 699 951 632 981 555 981 C 473 981 403 948 345 883 C 287 818 256 742 254 655 Z" unicode="е" />
<glyph horiz-adv-x="1352" d="M 604 473 L 528 502 L 180 0 L 21 0 L 421 580 L 62 1075 L 244 1075 L 566 595 L 604 580 L 604 1075 L 749 1075 L 749 580 L 802 601 L 1130 1075 L 1291 1075 L 937 570 L 1332 0 L 1157 0 L 828 502 L 749 473 L 749 0 L 604 0 L 604 473 Z" unicode="ж" />
<glyph horiz-adv-x="930" d="M 63 855 C 163 1016 292 1097 452 1097 C 547 1097 629 1070 699 1016 C 769 962 804 893 804 807 C 804 676 728 590 576 550 C 743 508 827 418 827 280 C 827 197 797 126 737 67 C 677 7 590 -22 475 -22 C 379 -22 298 -1 232 38 C 166 78 105 145 47 239 L 174 311 C 244 173 338 104 457 104 C 517 104 570 120 615 153 C 659 186 682 230 682 285 C 682 329 666 370 635 406 C 603 442 569 464 532 473 C 494 482 432 487 345 489 L 345 611 C 431 611 491 616 523 624 C 555 632 585 652 613 684 C 641 715 655 752 655 795 C 655 849 634 893 592 927 C 550 961 501 979 446 979 C 347 979 262 914 190 785 L 63 855 Z" unicode="з" />
<glyph horiz-adv-x="1247" d="M 339 223 L 907 1075 L 1052 1075 L 1052 0 L 907 0 L 907 852 L 339 0 L 194 0 L 194 1075 L 339 1075 L 339 223 Z" unicode="и" />
<glyph horiz-adv-x="1247" d="M 339 223 L 907 1075 L 1052 1075 L 1052 0 L 907 0 L 907 852 L 339 0 L 194 0 L 194 1075 L 339 1075 L 339 223 Z M 834 1500 L 934 1500 C 909 1420 868 1357 812 1312 C 756 1267 692 1244 621 1244 C 473 1244 370 1329 312 1500 L 410 1500 C 453 1428 524 1392 623 1392 C 721 1392 791 1428 834 1500 Z" unicode="й" />
<glyph horiz-adv-x="1077" d="M 339 0 L 194 0 L 194 1075 L 339 1075 L 339 526 L 829 1075 L 1019 1075 L 665 698 L 1056 0 L 892 0 L 573 602 L 339 356 L 339 0 Z" unicode="к" />
<glyph horiz-adv-x="1002" d="M 392 1075 L 611 1075 L 950 0 L 787 0 L 513 914 L 484 914 L 210 0 L 51 0 L 392 1075 Z" unicode="л" />
<glyph horiz-adv-x="1495" d="M 450 1075 L 745 167 L 1042 1075 L 1300 1075 L 1300 0 L 1155 0 L 1155 974 L 817 0 L 672 0 L 339 974 L 339 0 L 194 0 L 194 1075 L 450 1075 Z" unicode="м" />
<glyph horiz-adv-x="1247" d="M 339 622 L 907 622 L 907 1075 L 1052 1075 L 1052 0 L 907 0 L 907 491 L 339 491 L 339 0 L 194 0 L 194 1075 L 339 1075 L 339 622 Z" unicode="н" />
<glyph horiz-adv-x="1171" d="M 102 534 C 102 703 147 839 238 943 C 329 1046 446 1097 588 1097 C 726 1097 840 1043 932 937 C 1023 831 1069 694 1069 528 C 1069 365 1023 233 933 131 C 842 29 732 -22 602 -22 C 456 -22 337 29 243 133 C 149 237 102 370 102 534 Z M 915 542 C 915 673 886 777 828 855 C 770 932 691 971 592 971 C 488 971 406 931 346 851 C 286 771 256 668 256 540 C 256 410 286 304 347 224 C 407 144 488 104 588 104 C 684 104 762 144 823 224 C 884 304 915 410 915 542 Z" unicode="о" />
<glyph horiz-adv-x="1247" d="M 1052 1075 L 1052 0 L 907 0 L 907 944 L 339 944 L 339 0 L 194 0 L 194 1075 L 1052 1075 Z" unicode="п" />
<glyph horiz-adv-x="1263" d="M 340 1075 L 340 932 C 463 1042 585 1097 706 1097 C 838 1097 946 1046 1032 942 C 1118 838 1161 703 1161 536 C 1161 369 1118 234 1032 132 C 946 29 838 -22 706 -22 C 579 -22 457 32 340 141 L 340 -409 L 194 -409 L 194 1075 L 340 1075 Z M 340 805 L 340 262 C 464 158 582 106 694 106 C 786 106 862 145 920 223 C 978 300 1007 406 1007 540 C 1007 670 978 774 918 850 C 858 926 780 964 686 964 C 582 964 467 911 340 805 Z" unicode="р" />
<glyph horiz-adv-x="1057" d="M 872 332 L 999 260 C 892 72 751 -22 577 -22 C 439 -22 326 28 236 132 C 146 235 102 370 102 538 C 102 702 147 836 239 941 C 330 1045 443 1097 579 1097 C 759 1097 899 1005 999 821 L 872 751 C 792 901 694 977 577 977 C 483 977 406 936 346 856 C 286 776 256 667 256 530 C 256 409 286 308 347 228 C 407 147 483 106 573 106 C 699 106 799 181 872 332 Z" unicode="с" />
<glyph horiz-adv-x="855" d="M 355 944 L 24 944 L 24 1075 L 830 1075 L 830 944 L 500 944 L 500 0 L 355 0 L 355 944 Z" unicode="т" />
<glyph horiz-adv-x="1061" d="M 454 0 L 41 1075 L 203 1075 L 530 196 L 856 1075 L 1020 1075 L 581 -69 C 531 -201 489 -285 457 -323 C 425 -360 383 -388 332 -407 C 280 -426 219 -436 149 -436 C 118 -436 72 -430 10 -420 L 47 -280 C 79 -287 113 -291 151 -291 C 215 -291 270 -278 315 -254 C 359 -230 406 -145 454 0 Z" unicode="у" />
<glyph horiz-adv-x="1316" d="M 585 1515 L 730 1515 L 730 1075 C 878 1055 996 995 1083 893 C 1169 791 1213 670 1213 529 C 1213 385 1168 265 1078 168 C 988 71 872 15 730 0 L 730 -410 L 585 -410 L 585 0 C 443 15 327 71 237 168 C 147 265 102 385 102 529 C 102 670 145 791 232 893 C 318 995 436 1055 585 1075 L 585 1515 Z M 730 943 L 730 129 C 831 145 911 190 971 264 C 1030 338 1060 432 1060 546 C 1060 650 1031 738 974 811 C 917 884 836 928 730 943 Z M 585 943 C 479 928 398 885 341 813 C 284 741 256 651 256 543 C 256 431 285 338 345 264 C 404 190 484 145 585 129 L 585 943 Z" unicode="ф" />
<glyph horiz-adv-x="1005" d="M 418 557 L 63 1075 L 239 1075 L 504 669 L 764 1075 L 940 1075 L 588 557 L 964 0 L 790 0 L 504 446 L 219 0 L 41 0 L 418 557 Z" unicode="х" />
<glyph horiz-adv-x="1247" d="M 1052 131 L 1197 131 L 1197 -208 L 1086 -208 L 1068 0 L 194 0 L 194 1075 L 339 1075 L 339 131 L 907 131 L 907 1075 L 1052 1075 L 1052 131 Z" unicode="ц" />
<glyph horiz-adv-x="1166" d="M 824 1075 L 970 1075 L 970 0 L 824 0 L 824 463 C 670 392 551 357 469 357 C 381 357 309 387 255 448 C 201 509 174 598 174 716 L 174 1075 L 319 1075 L 319 734 C 319 647 333 585 362 548 C 390 511 439 493 508 493 C 593 493 698 524 824 588 L 824 1075 Z" unicode="ч" />
<glyph horiz-adv-x="1657" d="M 755 131 L 755 1075 L 901 1075 L 901 131 L 1317 131 L 1317 1075 L 1462 1075 L 1462 0 L 194 0 L 194 1075 L 339 1075 L 339 131 L 755 131 Z" unicode="ш" />
<glyph horiz-adv-x="1657" d="M 1462 131 L 1607 131 L 1607 -208 L 1496 -208 L 1478 0 L 194 0 L 194 1075 L 339 1075 L 339 131 L 755 131 L 755 1075 L 901 1075 L 901 131 L 1317 131 L 1317 1075 L 1462 1075 L 1462 131 Z" unicode="щ" />
<glyph horiz-adv-x="1095" d="M 251 944 L 24 944 L 24 1075 L 397 1075 L 397 654 L 668 654 C 796 654 886 620 938 554 C 990 487 1016 413 1016 333 C 1016 247 986 170 928 102 C 870 34 781 0 662 0 L 251 0 L 251 944 Z M 397 523 L 397 131 L 630 131 C 711 131 770 153 807 197 C 844 241 863 287 863 334 C 863 381 847 424 816 464 C 784 503 726 523 640 523 L 397 523 Z" unicode="ъ" />
<glyph horiz-adv-x="1454" d="M 1260 0 L 1114 0 L 1114 1075 L 1260 1075 L 1260 0 Z M 195 1075 L 340 1075 L 340 654 L 612 654 C 740 654 830 620 882 554 C 934 487 960 413 960 333 C 960 247 930 170 872 102 C 813 34 724 0 606 0 L 195 0 L 195 1075 Z M 340 523 L 340 131 L 574 131 C 655 131 714 153 751 197 C 788 241 807 287 807 334 C 807 381 791 424 760 464 C 728 503 669 523 583 523 L 340 523 Z" unicode="ы" />
<glyph horiz-adv-x="1038" d="M 195 1075 L 340 1075 L 340 654 L 612 654 C 740 654 830 620 882 554 C 934 487 960 413 960 333 C 960 247 930 170 872 102 C 813 34 724 0 606 0 L 195 0 L 195 1075 Z M 340 523 L 340 131 L 574 131 C 655 131 714 153 751 197 C 788 241 807 287 807 334 C 807 381 791 424 760 464 C 728 503 669 523 583 523 L 340 523 Z" unicode="ь" />
<glyph horiz-adv-x="1057" d="M 797 616 C 780 740 742 831 683 890 C 623 949 555 979 479 979 C 363 979 264 903 184 752 L 57 821 C 157 1005 297 1097 477 1097 C 609 1097 722 1045 815 943 C 907 840 954 706 954 540 C 954 371 908 235 818 132 C 728 29 615 -22 479 -22 C 304 -22 163 72 57 260 L 184 332 C 258 180 357 104 483 104 C 561 104 629 136 689 202 C 749 267 785 361 797 483 L 327 483 L 327 616 L 797 616 Z" unicode="э" />
<glyph horiz-adv-x="1612" d="M 545 491 L 339 491 L 339 0 L 194 0 L 194 1075 L 339 1075 L 339 622 L 545 622 C 563 772 617 889 707 972 C 796 1055 903 1097 1027 1097 C 1161 1097 1274 1044 1368 940 C 1462 835 1509 697 1509 527 C 1509 366 1463 234 1373 132 C 1282 29 1170 -22 1036 -22 C 908 -22 796 23 702 115 C 608 207 555 332 545 491 Z M 696 538 C 696 408 726 304 786 224 C 846 144 927 104 1028 104 C 1123 104 1201 143 1263 222 C 1324 301 1355 408 1355 542 C 1355 672 1325 776 1267 854 C 1209 932 1130 971 1030 971 C 928 971 847 931 787 852 C 726 772 696 668 696 538 Z" unicode="ю" />
<glyph horiz-adv-x="1139" d="M 330 483 C 256 503 202 542 166 598 C 130 654 113 715 113 782 C 113 860 142 928 202 987 C 262 1045 356 1075 484 1075 L 945 1075 L 945 0 L 799 0 L 799 468 L 484 468 L 234 0 L 72 0 L 330 483 Z M 799 599 L 799 944 L 522 944 C 352 944 267 890 267 783 C 267 725 287 679 329 647 C 371 615 432 599 514 599 L 799 599 Z" unicode="я" />
<glyph horiz-adv-x="1102" d="M 889 325 L 1007 241 C 876 65 729 -22 565 -22 C 433 -22 323 28 235 131 C 147 234 102 371 102 542 C 102 708 145 842 232 944 C 319 1046 425 1097 551 1097 C 668 1097 773 1051 865 958 C 957 865 1005 720 1007 524 L 248 524 C 253 394 285 291 344 217 C 402 143 473 106 557 106 C 680 106 791 179 889 325 Z M 254 655 L 856 655 C 846 755 812 834 756 893 C 699 951 632 981 555 981 C 473 981 403 948 345 883 C 287 818 256 742 254 655 Z M 260 1249 L 260 1423 L 434 1423 L 434 1249 L 260 1249 Z M 670 1249 L 670 1423 L 844 1423 L 844 1249 L 670 1249 Z" unicode="ё" />
<glyph horiz-adv-x="1243" d="M 1052 739 L 1052 -127 C 1052 -218 1028 -292 980 -348 C 932 -404 872 -432 801 -432 C 790 -432 771 -430 745 -428 L 745 -264 C 762 -266 774 -268 782 -268 C 819 -268 849 -253 872 -224 C 895 -194 907 -157 907 -113 L 907 721 C 907 824 888 890 850 919 C 812 948 767 963 714 963 C 613 963 489 919 342 831 L 342 0 L 196 0 L 196 1225 L 1 1225 L 1 1356 L 196 1356 L 196 1515 L 342 1515 L 342 1356 L 792 1356 L 792 1225 L 342 1225 L 342 956 C 458 1016 544 1055 600 1072 C 656 1088 709 1097 759 1097 C 847 1097 917 1066 971 1005 C 1025 943 1052 855 1052 739 Z" unicode="ђ" />
<glyph horiz-adv-x="841" d="M 816 1075 L 816 944 L 339 944 L 339 0 L 194 0 L 194 1075 L 816 1075 Z M 375 1210 L 594 1540 L 818 1540 L 500 1210 L 375 1210 Z" unicode="ѓ" />
<glyph horiz-adv-x="1057" d="M 260 616 L 730 616 L 730 483 L 260 483 C 270 365 305 273 365 205 C 425 137 494 104 574 104 C 699 104 799 180 873 332 L 1000 260 C 893 72 752 -22 578 -22 C 442 -22 328 29 238 132 C 148 235 103 371 103 540 C 103 704 149 837 241 941 C 333 1045 446 1097 580 1097 C 759 1097 899 1005 1000 821 L 873 752 C 792 903 694 979 578 979 C 497 979 427 947 369 885 C 310 822 274 732 260 616 Z" unicode="є" />
<glyph horiz-adv-x="989" d="M 61 186 L 186 274 C 298 162 410 106 522 106 C 592 106 648 124 691 158 C 734 192 755 234 755 286 C 755 388 653 460 450 502 C 214 550 96 652 96 809 C 96 891 130 960 198 1015 C 266 1069 354 1097 463 1097 C 625 1097 755 1042 854 932 L 743 833 C 661 926 569 973 465 973 C 398 973 344 958 304 930 C 264 902 243 865 243 819 C 243 731 324 672 487 641 C 764 587 903 470 903 291 C 903 201 868 127 798 67 C 728 7 637 -22 524 -22 C 366 -22 211 47 61 186 Z" unicode="ѕ" />
<glyph horiz-adv-x="534" d="M 194 1327 L 194 1501 L 340 1501 L 340 1327 L 194 1327 Z M 194 0 L 194 1075 L 340 1075 L 340 0 L 194 0 Z" unicode="і" />
<glyph horiz-adv-x="535" d="M 340 0 L 195 0 L 195 1075 L 340 1075 L 340 0 Z M -24 1249 L -24 1423 L 150 1423 L 150 1249 L -24 1249 Z M 386 1249 L 386 1423 L 560 1423 L 560 1249 L 386 1249 Z" unicode="ї" />
<glyph horiz-adv-x="534" d="M 196 1325 L 196 1501 L 340 1501 L 340 1325 L 196 1325 Z M 196 -112 L 196 1075 L 340 1075 L 340 -127 C 340 -216 316 -289 270 -346 C 224 -403 162 -432 84 -432 C 64 -432 48 -430 35 -428 L 35 -264 C 53 -266 65 -268 71 -268 C 109 -268 139 -253 162 -224 C 184 -195 196 -158 196 -112 Z" unicode="ј" />
<glyph horiz-adv-x="1424" d="M 744 654 L 997 654 C 1109 654 1196 624 1256 566 C 1316 508 1346 430 1346 333 C 1346 247 1316 170 1258 102 C 1199 34 1110 0 991 0 L 787 0 L 513 914 L 484 914 L 210 0 L 51 0 L 392 1075 L 611 1075 L 744 654 Z M 785 523 L 909 131 L 959 131 C 1040 131 1099 153 1136 197 C 1173 241 1192 287 1192 334 C 1192 381 1176 424 1145 464 C 1113 503 1055 523 969 523 L 785 523 Z" unicode="љ" />
<glyph horiz-adv-x="1678" d="M 834 523 L 339 523 L 339 0 L 194 0 L 194 1075 L 339 1075 L 339 654 L 834 654 L 834 1075 L 980 1075 L 980 654 L 1251 654 C 1379 654 1469 620 1521 554 C 1573 487 1599 413 1599 333 C 1599 247 1569 170 1511 102 C 1453 34 1364 0 1245 0 L 834 0 L 834 523 Z M 980 523 L 980 131 L 1213 131 C 1294 131 1353 153 1390 197 C 1427 241 1446 287 1446 334 C 1446 381 1430 424 1399 464 C 1367 503 1309 523 1223 523 L 980 523 Z" unicode="њ" />
<glyph horiz-adv-x="1243" d="M 196 1225 L 1 1225 L 1 1356 L 196 1356 L 196 1515 L 342 1515 L 342 1356 L 792 1356 L 792 1225 L 342 1225 L 342 956 C 457 1016 543 1054 599 1071 C 655 1088 708 1097 758 1097 C 849 1097 921 1065 973 1001 C 1025 937 1052 850 1052 739 L 1052 0 L 907 0 L 907 721 C 907 808 892 870 864 907 C 835 944 787 963 720 963 C 615 963 489 919 342 831 L 342 0 L 196 0 L 196 1225 Z" unicode="ћ" />
<glyph horiz-adv-x="1077" d="M 339 0 L 194 0 L 194 1075 L 339 1075 L 339 526 L 829 1075 L 1019 1075 L 665 698 L 1056 0 L 892 0 L 573 602 L 339 356 L 339 0 Z M 464 1210 L 683 1540 L 907 1540 L 589 1210 L 464 1210 Z" unicode="ќ" />
<glyph horiz-adv-x="1061" d="M 454 0 L 41 1075 L 203 1075 L 530 196 L 856 1075 L 1020 1075 L 581 -69 C 531 -201 489 -285 457 -323 C 425 -360 383 -388 332 -407 C 280 -426 219 -436 149 -436 C 118 -436 72 -430 10 -420 L 47 -280 C 79 -287 113 -291 151 -291 C 215 -291 270 -278 315 -254 C 359 -230 406 -145 454 0 Z M 733 1500 L 833 1500 C 808 1420 767 1357 711 1312 C 655 1267 591 1244 520 1244 C 372 1244 269 1329 211 1500 L 309 1500 C 352 1428 423 1392 522 1392 C 620 1392 690 1428 733 1500 Z" unicode="ў" />
<glyph horiz-adv-x="1247" d="M 699 0 L 678 -208 L 568 -208 L 547 0 L 194 0 L 194 1075 L 339 1075 L 339 131 L 907 131 L 907 1075 L 1052 1075 L 1052 0 L 699 0 Z" unicode="џ" />
<glyph horiz-adv-x="1126" d="M 1086 1370 L 363 1370 L 363 0 L 209 0 L 209 1515 L 932 1515 L 954 1771 L 1086 1771 L 1086 1370 Z" unicode="Ґ" />
<glyph horiz-adv-x="841" d="M 687 1075 L 706 1284 L 816 1284 L 816 944 L 339 944 L 339 0 L 194 0 L 194 1075 L 687 1075 Z" unicode="ґ" />
<glyph horiz-adv-x="1843" d="M 461 0 L 61 1515 L 221 1515 L 530 307 L 850 1515 L 997 1515 L 1313 307 L 1626 1515 L 1782 1515 L 1376 0 L 1249 0 L 921 1245 L 594 0 L 461 0 Z M 1071 1622 L 946 1622 L 629 1952 L 852 1952 L 1071 1622 Z" unicode="Ẁ" />
<glyph horiz-adv-x="1509" d="M 395 0 L 51 1075 L 207 1075 L 446 282 L 696 1075 L 809 1075 L 1061 262 L 1306 1075 L 1458 1075 L 1108 0 L 1005 0 L 749 823 L 493 0 L 395 0 Z M 905 1210 L 780 1210 L 463 1540 L 686 1540 L 905 1210 Z" unicode="ẁ" />
<glyph horiz-adv-x="1843" d="M 461 0 L 61 1515 L 221 1515 L 530 307 L 850 1515 L 997 1515 L 1313 307 L 1626 1515 L 1782 1515 L 1376 0 L 1249 0 L 921 1245 L 594 0 L 461 0 Z M 775 1622 L 994 1952 L 1218 1952 L 900 1622 L 775 1622 Z" unicode="Ẃ" />
<glyph horiz-adv-x="1509" d="M 395 0 L 51 1075 L 207 1075 L 446 282 L 696 1075 L 809 1075 L 1061 262 L 1306 1075 L 1458 1075 L 1108 0 L 1005 0 L 749 823 L 493 0 L 395 0 Z M 604 1210 L 823 1540 L 1047 1540 L 729 1210 L 604 1210 Z" unicode="ẃ" />
<glyph horiz-adv-x="1843" d="M 461 0 L 61 1515 L 221 1515 L 530 307 L 850 1515 L 997 1515 L 1313 307 L 1626 1515 L 1782 1515 L 1376 0 L 1249 0 L 921 1245 L 594 0 L 461 0 Z M 631 1661 L 631 1835 L 805 1835 L 805 1661 L 631 1661 Z M 1041 1661 L 1041 1835 L 1215 1835 L 1215 1661 L 1041 1661 Z" unicode="Ẅ" />
<glyph horiz-adv-x="1509" d="M 395 0 L 51 1075 L 207 1075 L 446 282 L 696 1075 L 809 1075 L 1061 262 L 1306 1075 L 1458 1075 L 1108 0 L 1005 0 L 749 823 L 493 0 L 395 0 Z M 461 1249 L 461 1423 L 635 1423 L 635 1249 L 461 1249 Z M 871 1249 L 871 1423 L 1045 1423 L 1045 1249 L 871 1249 Z" unicode="ẅ" />
<glyph horiz-adv-x="1208" d="M 531 659 L 31 1515 L 208 1515 L 607 813 L 1006 1515 L 1178 1515 L 679 659 L 679 0 L 531 0 L 531 659 Z M 755 1622 L 630 1622 L 313 1952 L 536 1952 L 755 1622 Z" unicode="Ỳ" />
<glyph horiz-adv-x="1061" d="M 454 0 L 41 1075 L 203 1075 L 530 196 L 856 1075 L 1020 1075 L 581 -69 C 531 -201 489 -285 457 -323 C 425 -360 383 -388 332 -407 C 280 -426 219 -436 149 -436 C 118 -436 72 -430 10 -420 L 47 -280 C 79 -287 113 -291 151 -291 C 215 -291 270 -278 315 -254 C 359 -230 406 -145 454 0 Z M 680 1210 L 555 1210 L 238 1540 L 461 1540 L 680 1210 Z" unicode="ỳ" />
<glyph horiz-adv-x="1024" d="M 0 495 L 0 624 L 1024 624 L 1024 495 L 0 495 Z" unicode="–" />
<glyph horiz-adv-x="2048" d="M 0 495 L 0 624 L 2048 624 L 2048 495 L 0 495 Z" unicode="—" />
<glyph horiz-adv-x="1536" d="M 1536 496 L 0 496 L 0 627 L 1536 627 L 1536 496 Z" unicode="―" />
<glyph horiz-adv-x="1024" d="M 1037 -154 L 1037 -256 L -12 -256 L -12 -154 L 1037 -154 Z M 1037 -338 L 1037 -440 L -12 -440 L -12 -338 L 1037 -338 Z" unicode="‗" />
<glyph horiz-adv-x="575" d="M 180 1214 L 332 1515 L 418 1515 L 282 1214 L 379 1214 L 379 993 L 180 993 L 180 1214 Z" unicode="‘" />
<glyph horiz-adv-x="573" d="M 194 1294 L 194 1515 L 393 1515 L 393 1294 L 239 991 L 157 991 L 289 1294 L 194 1294 Z" unicode="’" />
<glyph horiz-adv-x="573" d="M 194 0 L 194 221 L 393 221 L 393 0 L 239 -303 L 157 -303 L 289 0 L 194 0 Z" unicode="‚" />
<glyph horiz-adv-x="573" d="M 262 1294 L 393 991 L 312 991 L 158 1294 L 158 1515 L 357 1515 L 357 1294 L 262 1294 Z" unicode="‛" />
<glyph horiz-adv-x="960" d="M 180 1241 L 332 1536 L 415 1536 L 280 1241 L 372 1241 L 372 1016 L 180 1016 L 180 1241 Z M 571 1241 L 721 1536 L 803 1536 L 667 1241 L 762 1241 L 762 1016 L 571 1016 L 571 1241 Z" unicode="“" />
<glyph horiz-adv-x="960" d="M 200 1298 L 200 1515 L 391 1515 L 391 1298 L 239 995 L 157 995 L 295 1298 L 200 1298 Z M 588 1298 L 588 1515 L 780 1515 L 780 1298 L 628 995 L 547 995 L 682 1298 L 588 1298 Z" unicode="”" />
<glyph horiz-adv-x="960" d="M 200 0 L 200 217 L 391 217 L 391 0 L 239 -303 L 157 -303 L 295 0 L 200 0 Z M 588 0 L 588 217 L 780 217 L 780 0 L 628 -303 L 547 -303 L 682 0 L 588 0 Z" unicode="„" />
<glyph horiz-adv-x="1067" d="M 491 966 L 459 1515 L 608 1515 L 575 966 L 987 999 L 987 850 L 575 880 L 620 -409 L 442 -409 L 491 880 L 80 850 L 80 999 L 491 966 Z" unicode="†" />
<glyph horiz-adv-x="1067" d="M 499 1020 L 469 1515 L 616 1515 L 583 1020 L 977 1050 L 977 899 L 583 932 L 606 559 L 583 176 L 977 207 L 977 57 L 583 90 L 616 -409 L 469 -409 L 499 90 L 110 57 L 110 207 L 499 176 L 479 559 L 499 932 L 110 899 L 110 1050 L 499 1020 Z" unicode="‡" />
<glyph horiz-adv-x="731" d="M 366 971 C 436 971 495 946 544 897 C 593 847 618 788 618 719 C 618 649 593 589 544 539 C 495 489 436 465 366 465 C 296 465 237 489 187 539 C 137 589 112 649 112 719 C 112 788 137 847 187 897 C 237 946 296 971 366 971 Z" unicode="•" />
<glyph horiz-adv-x="1921" d="M 235 0 L 235 229 L 434 229 L 434 0 L 235 0 Z M 872 0 L 872 229 L 1069 229 L 1069 0 L 872 0 Z M 1507 0 L 1507 229 L 1706 229 L 1706 0 L 1507 0 Z" unicode="…" />
</font>
</defs>
</svg>
