<?xml version="1.0" encoding="utf-8" ?><svg version="1.1" xmlns = 'http://www.w3.org/2000/svg'><defs><font id='web' horiz-adv-x="1000">
<font-face font-family="web" descent="-432" cap-height="1518" units-per-em="2048" bbox="-531,-677,2749,2422" x-height="1075" ascent="1515" />
<missing-glyph horiz-adv-x="1024" d="M 128 0 L 128 1500 L 896 1500 L 896 0 L 128 0 Z M 256 128 L 768 128 L 768 1372 L 256 1372 L 256 128 Z" /><glyph horiz-adv-x="641" d="" unicode=" " />
<glyph horiz-adv-x="641" d="M 241 463 L 405 1515 L 598 1515 L 354 463 L 241 463 Z M 114 0 L 157 227 L 360 227 L 317 0 L 114 0 Z" unicode="!" />
<glyph horiz-adv-x="764" d="M 268 1308 L 313 1546 L 463 1546 L 418 1308 L 334 1036 L 246 1036 L 268 1308 Z M 635 1308 L 680 1546 L 831 1546 L 786 1308 L 702 1036 L 614 1036 L 635 1308 Z" unicode="&#x22;" />
<glyph horiz-adv-x="1366" d="M 1259 524 L 1259 405 L 924 405 L 762 0 L 635 0 L 797 405 L 385 405 L 223 0 L 94 0 L 257 405 L 71 405 L 71 524 L 305 524 L 454 895 L 166 895 L 166 1014 L 502 1014 L 665 1421 L 792 1421 L 629 1014 L 1041 1014 L 1204 1421 L 1331 1421 L 1168 1014 L 1353 1014 L 1353 895 L 1120 895 L 972 524 L 1259 524 Z M 433 524 L 845 524 L 993 895 L 581 895 L 433 524 Z" unicode="#" />
<glyph horiz-adv-x="1208" d="M 1061 1149 C 1003 1269 921 1344 815 1374 L 706 821 C 857 721 953 638 993 574 C 1033 510 1054 440 1054 366 C 1054 252 1017 158 941 86 C 865 13 759 -23 621 -23 C 586 -23 559 -22 540 -20 L 491 -276 L 368 -276 L 420 -10 C 244 47 119 174 45 370 L 184 418 C 229 271 317 172 448 121 L 567 735 C 447 807 363 873 316 935 C 269 996 246 1064 246 1138 C 246 1253 288 1346 374 1417 C 459 1487 574 1520 719 1515 L 727 1562 L 854 1562 L 839 1499 C 915 1481 978 1451 1030 1411 C 1081 1370 1134 1298 1190 1196 L 1061 1149 Z M 596 889 L 692 1392 C 601 1400 527 1380 471 1332 C 415 1284 387 1224 387 1153 C 387 1107 401 1065 429 1026 C 457 987 513 941 596 889 Z M 678 671 L 567 94 C 582 92 597 91 613 91 C 699 91 770 115 826 163 C 881 211 909 277 909 362 C 909 420 892 472 858 520 C 824 567 764 617 678 671 Z" unicode="$" />
<glyph horiz-adv-x="1921" d="M 1644 1597 L 528 -348 L 407 -348 L 1419 1403 C 1290 1351 1151 1325 1001 1325 C 948 1325 898 1328 850 1335 C 885 1277 903 1213 903 1143 C 903 1011 864 890 786 781 C 708 671 614 616 506 616 C 408 616 327 650 264 719 C 201 788 170 877 170 987 C 170 1116 208 1232 284 1334 C 360 1436 455 1487 567 1487 C 619 1487 668 1476 712 1456 C 794 1431 880 1419 968 1419 C 1179 1419 1366 1478 1528 1597 L 1644 1597 Z M 575 1370 C 491 1370 422 1330 369 1251 C 315 1172 289 1085 289 989 C 289 911 309 849 350 802 C 390 754 441 731 502 731 C 578 731 644 774 701 860 C 757 946 786 1035 786 1128 C 786 1198 767 1256 728 1302 C 689 1347 638 1370 575 1370 Z M 1466 -248 C 1368 -248 1288 -213 1225 -145 C 1161 -76 1130 13 1130 123 C 1130 251 1168 367 1245 469 C 1321 571 1416 622 1528 622 C 1626 622 1706 589 1769 523 C 1831 457 1863 376 1863 278 C 1863 146 1824 26 1746 -83 C 1668 -193 1574 -248 1466 -248 Z M 1536 506 C 1451 506 1382 466 1329 387 C 1275 308 1249 221 1249 125 C 1249 47 1270 -14 1311 -62 C 1351 -109 1402 -133 1462 -133 C 1538 -133 1605 -90 1662 -4 C 1718 81 1747 170 1747 264 C 1747 334 1727 392 1688 438 C 1649 483 1598 506 1536 506 Z" unicode="%" />
<glyph horiz-adv-x="1407" d="M 1155 0 L 1024 139 C 879 26 726 -30 565 -30 C 417 -30 299 10 211 92 C 122 174 78 283 78 418 C 78 657 217 827 497 927 C 455 1011 434 1091 434 1167 C 434 1277 466 1368 531 1439 C 596 1510 677 1546 774 1546 C 860 1546 932 1517 989 1459 C 1046 1401 1075 1327 1075 1237 C 1075 1145 1045 1068 985 1006 C 925 944 828 892 692 850 C 789 673 904 500 1036 332 C 1111 420 1166 515 1200 618 L 1323 577 C 1268 439 1198 323 1114 231 C 1162 173 1232 96 1325 0 L 1155 0 Z M 631 966 C 838 1023 942 1115 942 1241 C 942 1293 924 1336 890 1370 C 856 1404 814 1421 764 1421 C 706 1421 660 1399 624 1355 C 588 1311 571 1253 571 1183 C 571 1123 591 1050 631 966 Z M 553 811 C 333 739 223 613 223 432 C 223 330 255 249 320 189 C 384 129 472 98 583 98 C 703 98 823 144 942 237 C 828 373 698 565 553 811 Z" unicode="&#x26;" />
<glyph horiz-adv-x="393" d="M 270 1306 L 317 1546 L 465 1546 L 418 1306 L 342 1038 L 250 1038 L 270 1306 Z" unicode="'" />
<glyph horiz-adv-x="706" d="M 768 1550 L 844 1460 C 430 1114 223 737 223 329 C 223 199 243 81 285 -22 C 327 -126 397 -232 495 -340 L 418 -432 C 192 -180 80 71 80 323 C 80 538 138 751 254 961 C 370 1171 542 1368 768 1550 Z" unicode="(" />
<glyph horiz-adv-x="706" d="M 227 1462 L 303 1548 C 528 1312 641 1060 641 790 C 641 574 582 362 465 153 C 347 -55 177 -250 -47 -432 L -123 -340 C 77 -176 231 3 338 200 C 444 397 497 596 497 796 C 497 923 477 1038 437 1141 C 397 1243 327 1350 227 1462 Z" unicode=")" />
<glyph horiz-adv-x="960" d="M 307 1452 L 436 1523 L 585 1161 L 737 1523 L 864 1452 L 626 1136 L 1016 1188 L 1016 1044 L 626 1089 L 864 778 L 737 704 L 585 1063 L 436 704 L 307 778 L 545 1089 L 157 1044 L 157 1188 L 545 1136 L 307 1452 Z" unicode="*" />
<glyph horiz-adv-x="1366" d="M 155 596 L 155 727 L 633 727 L 633 1206 L 764 1206 L 764 727 L 1245 727 L 1245 596 L 764 596 L 764 121 L 633 121 L 633 596 L 155 596 Z" unicode="+" />
<glyph horiz-adv-x="446" d="M 33 0 L 76 229 L 272 229 L 229 0 L 20 -301 L -61 -301 L 129 0 L 33 0 Z" unicode="," />
<glyph horiz-adv-x="715" d="M 86 487 L 114 635 L 624 635 L 596 487 L 86 487 Z" unicode="-" />
<glyph horiz-adv-x="465" d="M 30 0 L 73 229 L 272 229 L 229 0 L 30 0 Z" unicode="." />
<glyph horiz-adv-x="927" d="M -71 0 L 940 1515 L 1085 1515 L 73 0 L -71 0 Z" unicode="/" />
<glyph horiz-adv-x="1280" d="M 585 -30 C 443 -30 335 16 261 110 C 187 204 149 340 149 518 C 149 644 175 797 227 979 C 279 1161 351 1301 444 1399 C 537 1497 651 1546 786 1546 C 917 1546 1021 1504 1099 1421 C 1176 1338 1214 1205 1214 1022 C 1214 757 1159 515 1048 297 C 936 79 782 -30 585 -30 Z M 303 485 C 303 228 390 100 565 100 C 724 100 847 201 933 403 C 1019 605 1063 818 1063 1042 C 1063 1296 972 1423 790 1423 C 636 1423 517 1317 431 1105 C 345 893 303 686 303 485 Z" unicode="0" />
<glyph horiz-adv-x="1280" d="M 663 123 L 903 123 L 876 0 L 254 0 L 280 123 L 512 123 L 749 1315 C 643 1258 536 1229 428 1227 L 452 1351 C 612 1379 741 1433 841 1515 L 940 1515 L 663 123 Z" unicode="1" />
<glyph horiz-adv-x="1280" d="M 221 129 L 1036 129 L 1014 0 L 49 0 C 57 209 231 416 573 622 C 737 722 855 812 925 894 C 995 975 1030 1059 1030 1147 C 1030 1227 1005 1291 955 1341 C 905 1390 840 1415 760 1415 C 582 1415 463 1305 401 1087 L 258 1122 C 354 1404 528 1546 780 1546 C 901 1546 998 1508 1072 1434 C 1146 1360 1183 1263 1183 1145 C 1183 1039 1148 939 1079 845 C 1010 750 867 639 649 513 C 431 386 288 258 221 129 Z" unicode="2" />
<glyph horiz-adv-x="1280" d="M 798 778 C 989 726 1085 612 1085 438 C 1085 302 1040 191 950 103 C 860 15 742 -28 596 -28 C 356 -28 189 104 96 368 L 221 418 C 306 207 427 102 585 102 C 685 102 767 134 833 197 C 899 259 932 338 932 434 C 932 618 805 710 553 710 L 454 708 L 483 844 L 547 841 C 685 841 791 869 865 927 C 938 984 975 1065 975 1169 C 975 1245 951 1305 904 1349 C 857 1393 792 1415 710 1415 C 563 1415 461 1337 403 1183 L 282 1227 C 357 1439 503 1546 721 1546 C 843 1546 940 1511 1014 1441 C 1087 1371 1124 1282 1124 1175 C 1124 1077 1095 992 1039 922 C 983 852 902 804 798 778 Z" unicode="3" />
<glyph horiz-adv-x="1280" d="M 1186 375 L 936 375 L 860 0 L 715 0 L 790 375 L 100 375 L 123 499 L 954 1515 L 1161 1515 L 964 504 L 1214 504 L 1186 375 Z M 864 1206 L 293 504 L 817 504 L 942 1138 C 950 1182 967 1260 991 1372 C 968 1337 926 1282 864 1206 Z" unicode="4" />
<glyph horiz-adv-x="1280" d="M 1188 1392 L 561 1392 L 436 889 C 509 951 596 983 696 983 C 816 983 916 941 996 859 C 1076 777 1116 673 1116 549 C 1116 389 1066 252 967 140 C 868 28 744 -28 596 -28 C 496 -28 411 -2 341 50 C 271 102 207 187 149 307 L 270 356 C 344 185 453 100 598 100 C 702 100 789 143 859 229 C 929 314 964 418 964 540 C 964 632 937 708 882 768 C 827 828 757 858 671 858 C 565 858 469 805 383 700 L 268 747 L 461 1515 L 1214 1515 L 1188 1392 Z" unicode="5" />
<glyph horiz-adv-x="1280" d="M 1171 1253 C 1107 1361 1007 1415 872 1415 C 758 1415 659 1364 576 1263 C 493 1162 434 1019 399 833 C 513 921 630 966 749 966 C 869 966 966 928 1042 852 C 1117 775 1155 669 1155 534 C 1155 374 1110 241 1020 133 C 930 25 815 -28 676 -28 C 524 -28 408 18 328 114 C 247 210 207 346 207 522 C 207 794 267 1033 389 1238 C 511 1443 674 1546 878 1546 C 1042 1546 1176 1476 1278 1337 L 1171 1253 Z M 366 686 C 355 623 350 567 350 518 C 350 238 458 98 674 98 C 766 98 843 140 906 224 C 969 308 1001 412 1001 538 C 1001 737 908 837 723 837 C 606 837 487 786 366 686 Z" unicode="6" />
<glyph horiz-adv-x="1280" d="M 1227 1392 L 379 0 L 209 0 L 1065 1382 L 307 1382 L 338 1515 L 1249 1515 L 1227 1392 Z" unicode="7" />
<glyph horiz-adv-x="1280" d="M 831 788 C 950 720 1032 656 1078 595 C 1124 533 1147 465 1147 391 C 1147 275 1098 176 1002 94 C 906 12 783 -28 633 -28 C 480 -28 356 10 262 88 C 168 166 121 265 121 387 C 121 586 252 727 516 809 C 360 904 282 1017 282 1149 C 282 1262 328 1356 418 1432 C 508 1508 622 1546 762 1546 C 891 1546 997 1511 1081 1443 C 1165 1374 1206 1287 1206 1183 C 1206 1013 1081 881 831 788 Z M 694 856 C 824 900 917 948 971 1000 C 1025 1051 1052 1112 1052 1183 C 1052 1254 1024 1310 970 1352 C 915 1394 841 1415 749 1415 C 654 1415 577 1391 519 1343 C 461 1295 432 1233 432 1159 C 432 1033 519 932 694 856 Z M 649 735 C 513 699 418 655 362 602 C 306 549 278 481 278 397 C 278 307 311 235 377 181 C 442 127 527 100 631 100 C 736 100 823 126 892 180 C 960 234 995 303 995 387 C 995 452 972 510 925 561 C 878 612 786 670 649 735 Z" unicode="8" />
<glyph horiz-adv-x="1280" d="M 110 186 L 217 270 C 289 155 388 98 516 98 C 645 98 748 146 826 243 C 904 339 961 490 999 696 C 875 604 753 559 633 559 C 515 559 418 597 344 673 C 270 749 233 852 233 983 C 233 1139 277 1272 365 1382 C 453 1491 564 1546 700 1546 C 852 1546 970 1495 1054 1394 C 1137 1293 1179 1156 1179 983 C 1179 741 1126 512 1020 296 C 914 80 744 -28 512 -28 C 343 -28 209 43 110 186 Z M 1022 837 C 1029 887 1033 936 1033 986 C 1033 1120 1005 1225 951 1301 C 897 1377 818 1415 715 1415 C 621 1415 543 1374 481 1294 C 419 1213 389 1109 389 983 C 389 785 479 686 659 686 C 788 686 909 736 1022 837 Z" unicode="9" />
<glyph horiz-adv-x="641" d="M 282 852 L 325 1075 L 524 1075 L 481 852 L 282 852 Z M 119 0 L 162 229 L 360 229 L 317 0 L 119 0 Z" unicode=":" />
<glyph horiz-adv-x="641" d="M 284 850 L 327 1075 L 524 1075 L 481 850 L 284 850 Z M 121 0 L 166 231 L 362 231 L 319 6 L 106 -301 L 24 -301 L 217 0 L 121 0 Z" unicode=";" />
<glyph horiz-adv-x="1366" d="M 1224 385 L 1224 243 L 139 700 L 139 819 L 1224 1276 L 1224 1132 L 315 760 L 1224 385 Z" unicode="&#x3C;" />
<glyph horiz-adv-x="1366" d="M 180 930 L 180 1063 L 1265 1063 L 1265 930 L 180 930 Z M 180 463 L 180 594 L 1265 594 L 1265 463 L 180 463 Z" unicode="=" />
<glyph horiz-adv-x="1366" d="M 211 1132 L 211 1276 L 1296 817 L 1296 700 L 211 243 L 211 385 L 1120 758 L 211 1132 Z" unicode="&#x3E;" />
<glyph horiz-adv-x="854" d="M 354 1253 L 243 1288 C 306 1460 419 1546 581 1546 C 679 1546 757 1517 815 1460 C 873 1402 903 1327 903 1235 C 903 1099 817 964 645 829 C 567 767 511 712 479 662 C 446 612 426 545 418 461 L 284 461 C 290 560 316 644 360 714 C 404 783 483 866 596 962 C 702 1053 755 1142 755 1229 C 755 1287 738 1335 702 1372 C 666 1409 618 1427 559 1427 C 465 1427 397 1369 354 1253 Z M 153 0 L 198 227 L 401 227 L 356 0 L 153 0 Z" unicode="?" />
<glyph horiz-adv-x="2085" d="M 1254 283 C 1165 194 1096 140 1046 122 C 996 103 945 93 892 93 C 808 93 738 129 684 201 C 629 272 602 362 602 470 C 602 628 643 763 726 876 C 809 988 913 1045 1039 1045 C 1088 1045 1138 1029 1190 997 C 1241 965 1283 919 1315 861 L 1341 1045 L 1494 1045 L 1415 520 C 1404 450 1399 395 1399 355 C 1399 261 1440 215 1524 215 C 1617 215 1694 257 1754 343 C 1814 428 1845 538 1845 674 C 1845 887 1777 1063 1643 1203 C 1508 1343 1329 1412 1105 1412 C 869 1412 672 1332 513 1172 C 353 1012 274 815 274 579 C 274 316 348 111 496 -36 C 644 -183 851 -257 1117 -257 C 1293 -257 1460 -210 1618 -117 L 1698 -247 C 1626 -291 1535 -327 1424 -357 C 1313 -386 1211 -401 1117 -401 C 807 -401 565 -315 389 -141 C 213 33 125 273 125 579 C 125 860 219 1094 408 1280 C 596 1466 835 1560 1125 1560 C 1371 1560 1576 1477 1738 1311 C 1900 1145 1982 939 1982 694 C 1982 518 1938 374 1850 261 C 1761 147 1647 91 1508 91 C 1376 91 1292 155 1254 283 Z M 1261 428 L 1298 734 C 1228 857 1154 919 1076 919 C 978 919 901 875 843 785 C 785 695 755 590 755 470 C 755 300 823 215 961 215 C 1007 215 1058 235 1114 276 C 1170 316 1219 367 1261 428 Z" unicode="@" />
<glyph horiz-adv-x="1292" d="M 1018 0 L 944 456 L 327 456 L 102 0 L -57 0 L 700 1515 L 927 1515 L 1173 0 L 1018 0 Z M 796 1419 L 391 590 L 925 590 L 796 1419 Z" unicode="A" />
<glyph horiz-adv-x="1319" d="M 927 770 C 1005 741 1066 697 1110 639 C 1153 580 1175 514 1175 440 C 1175 300 1129 192 1037 115 C 944 38 802 0 612 0 L 98 0 L 389 1515 L 868 1515 C 1005 1515 1108 1483 1176 1419 C 1244 1355 1278 1266 1278 1153 C 1278 957 1161 829 927 770 Z M 833 1382 L 516 1382 L 413 850 L 717 850 C 845 850 943 878 1013 934 C 1083 990 1118 1063 1118 1155 C 1118 1236 1095 1294 1049 1330 C 1003 1365 931 1382 833 1382 Z M 663 717 L 389 717 L 278 133 L 641 133 C 758 133 850 161 916 217 C 982 273 1016 347 1016 438 C 1016 510 983 575 917 632 C 851 688 766 717 663 717 Z" unicode="B" />
<glyph horiz-adv-x="1323" d="M 1216 1083 C 1177 1301 1056 1411 854 1411 C 708 1411 581 1335 471 1183 C 361 1031 307 844 307 620 C 307 458 341 332 410 241 C 478 149 572 104 690 104 C 855 104 989 192 1091 370 L 1220 309 C 1077 84 896 -28 678 -28 C 515 -28 386 28 290 143 C 194 258 147 415 147 614 C 147 861 214 1078 346 1265 C 478 1452 650 1546 860 1546 C 986 1546 1095 1508 1185 1432 C 1275 1356 1333 1252 1358 1120 L 1216 1083 Z" unicode="C" />
<glyph horiz-adv-x="1407" d="M 491 0 L 98 0 L 393 1515 L 710 1515 C 912 1515 1066 1456 1174 1337 C 1281 1218 1335 1057 1335 854 C 1335 593 1259 385 1107 231 C 955 77 749 0 491 0 Z M 725 1382 L 520 1382 L 276 133 L 459 133 C 689 133 866 194 990 317 C 1113 439 1175 619 1175 856 C 1175 1017 1134 1145 1052 1240 C 970 1335 861 1382 725 1382 Z" unicode="D" />
<glyph horiz-adv-x="1161" d="M 1229 1382 L 520 1382 L 418 858 L 991 858 L 966 725 L 393 725 L 276 133 L 1040 133 L 1016 0 L 98 0 L 393 1515 L 1255 1515 L 1229 1382 Z" unicode="E" />
<glyph horiz-adv-x="1042" d="M 1157 1382 L 518 1382 L 407 833 L 956 833 L 938 700 L 387 700 L 252 0 L 98 0 L 393 1515 L 1181 1515 L 1157 1382 Z" unicode="F" />
<glyph horiz-adv-x="1470" d="M 1214 0 L 1083 0 L 1114 170 C 1002 38 860 -28 690 -28 C 526 -28 394 31 296 152 C 197 272 147 431 147 628 C 147 865 212 1077 343 1265 C 474 1452 644 1546 852 1546 C 990 1546 1103 1508 1191 1432 C 1279 1356 1338 1249 1366 1110 L 1220 1073 C 1189 1299 1064 1413 846 1413 C 703 1413 577 1333 469 1175 C 361 1016 307 831 307 620 C 307 458 343 332 416 241 C 488 149 587 104 712 104 C 822 104 917 138 998 204 C 1079 270 1123 321 1130 358 L 1179 618 L 755 618 L 778 743 L 1356 743 L 1214 0 Z" unicode="G" />
<glyph horiz-adv-x="1505" d="M 1198 0 L 1044 0 L 1181 715 L 395 715 L 254 0 L 98 0 L 391 1515 L 547 1515 L 415 844 L 1204 844 L 1335 1515 L 1489 1515 L 1198 0 Z" unicode="H" />
<glyph horiz-adv-x="559" d="M 252 0 L 98 0 L 389 1515 L 542 1515 L 252 0 Z" unicode="I" />
<glyph horiz-adv-x="870" d="M 651 383 C 620 222 573 113 510 57 C 447 0 365 -28 264 -28 C 168 -28 92 1 35 61 C -22 121 -51 199 -51 297 L -51 325 L 80 356 C 82 182 142 96 260 96 C 382 96 459 178 491 344 L 719 1515 L 870 1515 L 651 383 Z" unicode="J" />
<glyph horiz-adv-x="1263" d="M 723 897 L 1145 0 L 977 0 L 612 794 L 362 575 L 252 0 L 98 0 L 391 1515 L 545 1515 L 399 766 L 1218 1515 L 1421 1515 L 723 897 Z" unicode="K" />
<glyph horiz-adv-x="1120" d="M 975 0 L 98 0 L 389 1515 L 542 1515 L 272 133 L 997 133 L 975 0 Z" unicode="L" />
<glyph horiz-adv-x="1747" d="M 1439 0 L 1286 0 L 1554 1396 L 803 0 L 727 0 L 516 1396 L 243 0 L 98 0 L 393 1515 L 628 1515 C 674 1238 736 824 813 274 C 897 443 1117 857 1472 1515 L 1728 1515 L 1439 0 Z" unicode="M" />
<glyph horiz-adv-x="1546" d="M 1233 0 L 1124 0 L 514 1388 L 246 0 L 98 0 L 395 1515 L 616 1515 L 1147 299 L 1382 1513 L 1530 1515 L 1233 0 Z" unicode="N" />
<glyph horiz-adv-x="1470" d="M 692 -28 C 324 -28 141 179 141 594 C 141 825 208 1041 342 1243 C 476 1445 653 1546 874 1546 C 1046 1546 1179 1492 1273 1386 C 1367 1279 1415 1128 1415 934 C 1415 698 1349 479 1218 276 C 1086 73 911 -28 692 -28 Z M 299 545 C 299 407 333 299 401 221 C 469 143 559 104 671 104 C 845 104 985 195 1093 376 C 1201 556 1255 748 1255 952 C 1255 1086 1219 1196 1148 1282 C 1077 1368 989 1411 884 1411 C 709 1411 568 1319 460 1137 C 352 954 299 757 299 545 Z" unicode="O" />
<glyph horiz-adv-x="1292" d="M 784 674 L 379 674 L 250 0 L 98 0 L 389 1515 L 887 1515 C 1034 1515 1144 1480 1218 1411 C 1292 1341 1329 1252 1329 1143 C 1329 1007 1279 895 1181 807 C 1083 718 950 674 784 674 Z M 874 1382 L 518 1382 L 403 807 L 772 807 C 899 807 997 836 1067 896 C 1136 956 1171 1037 1171 1140 C 1171 1301 1072 1382 874 1382 Z" unicode="P" />
<glyph horiz-adv-x="1470" d="M 719 -28 C 697 -86 686 -136 686 -178 C 686 -236 740 -266 848 -266 C 934 -266 1007 -262 1069 -254 L 1046 -379 C 998 -384 930 -387 841 -387 C 737 -387 664 -374 620 -348 C 576 -322 555 -279 555 -221 C 555 -170 566 -103 588 -21 C 290 22 141 227 141 594 C 141 825 208 1041 342 1243 C 476 1445 653 1546 874 1546 C 1046 1546 1179 1492 1273 1386 C 1367 1279 1415 1128 1415 934 C 1415 711 1353 498 1231 296 C 1108 93 937 -14 719 -28 Z M 299 545 C 299 407 333 299 401 221 C 469 143 559 104 671 104 C 845 104 985 195 1093 376 C 1201 556 1255 748 1255 952 C 1255 1086 1219 1196 1148 1282 C 1077 1368 989 1411 884 1411 C 709 1411 568 1319 460 1137 C 352 954 299 757 299 545 Z" unicode="Q" />
<glyph horiz-adv-x="1335" d="M 884 696 L 1138 0 L 977 0 L 737 696 L 385 696 L 252 0 L 98 0 L 389 1515 L 882 1515 C 1026 1515 1137 1483 1215 1419 C 1292 1355 1331 1264 1331 1147 C 1331 1018 1292 915 1214 838 C 1136 760 1026 713 884 696 Z M 891 1382 L 516 1382 L 411 829 L 811 829 C 925 829 1015 857 1081 914 C 1146 970 1179 1046 1179 1140 C 1179 1215 1154 1274 1103 1318 C 1051 1361 981 1382 891 1382 Z" unicode="R" />
<glyph horiz-adv-x="1190" d="M 1077 1118 C 1031 1314 912 1413 721 1413 C 623 1413 546 1389 490 1342 C 434 1295 405 1232 405 1153 C 405 1113 413 1076 430 1042 C 446 1008 469 980 497 956 C 525 932 594 890 704 830 C 838 756 932 691 985 633 C 1038 575 1065 494 1065 389 C 1065 261 1018 160 926 85 C 834 9 713 -28 563 -28 C 415 -28 298 13 210 97 C 122 181 69 303 53 463 L 188 489 C 223 232 347 104 561 104 C 671 104 758 129 820 179 C 882 228 913 295 913 379 C 913 441 895 494 859 539 C 822 584 748 634 637 688 C 499 754 400 822 342 890 C 283 958 254 1038 254 1130 C 254 1254 297 1355 384 1431 C 471 1507 588 1546 735 1546 C 989 1546 1147 1415 1210 1153 L 1077 1118 Z" unicode="S" />
<glyph horiz-adv-x="1188" d="M 1304 1382 L 831 1382 L 563 0 L 409 0 L 678 1382 L 203 1382 L 227 1515 L 1331 1515 L 1304 1382 Z" unicode="T" />
<glyph horiz-adv-x="1458" d="M 1261 467 C 1199 137 999 -28 663 -28 C 502 -28 380 11 297 91 C 213 171 172 271 172 393 C 172 459 179 532 194 610 L 368 1515 L 522 1515 L 352 643 C 335 557 327 477 327 405 C 327 315 356 242 415 187 C 473 131 555 104 659 104 C 790 104 893 137 968 204 C 1042 271 1094 382 1124 538 L 1308 1515 L 1460 1515 L 1261 467 Z" unicode="U" />
<glyph horiz-adv-x="1216" d="M 534 0 L 387 0 L 217 1515 L 377 1515 L 504 225 L 1202 1515 L 1370 1515 L 534 0 Z" unicode="V" />
<glyph horiz-adv-x="1798" d="M 1939 1515 L 1155 0 L 1007 0 L 1044 1280 L 426 0 L 278 0 L 278 1515 L 432 1515 L 415 268 L 1014 1515 L 1183 1515 L 1145 266 L 1773 1515 L 1939 1515 Z" unicode="W" />
<glyph horiz-adv-x="1196" d="M 1345 1515 L 732 769 L 1038 0 L 880 0 L 632 649 L 108 0 L -73 0 L 575 790 L 286 1515 L 444 1515 L 675 912 L 1163 1515 L 1345 1515 Z" unicode="X" />
<glyph horiz-adv-x="1102" d="M 639 612 L 520 0 L 366 0 L 489 637 L 217 1515 L 377 1515 L 594 776 L 1087 1515 L 1255 1515 L 639 612 Z" unicode="Y" />
<glyph horiz-adv-x="1206" d="M 1270 1413 L 172 133 L 1038 133 L 1009 0 L -39 0 L -14 131 L 1057 1382 L 301 1382 L 329 1515 L 1290 1515 L 1270 1413 Z" unicode="Z" />
<glyph horiz-adv-x="776" d="M 28 -409 L 397 1515 L 913 1515 L 889 1388 L 518 1388 L 198 -272 L 569 -272 L 545 -409 L 28 -409 Z" unicode="[" />
<glyph horiz-adv-x="930" d="M 219 1515 L 348 1515 L 796 0 L 667 0 L 219 1515 Z" unicode="\" />
<glyph horiz-adv-x="774" d="M 213 1386 L 237 1515 L 751 1515 L 383 -409 L -131 -409 L -106 -274 L 264 -274 L 583 1386 L 213 1386 Z" unicode="]" />
<glyph horiz-adv-x="1194" d="M 323 719 L 176 719 L 590 1517 L 739 1517 L 1140 719 L 997 719 L 659 1374 L 323 719 Z" unicode="^" />
<glyph horiz-adv-x="1024" d="M 895 -256 L -153 -256 L -153 -153 L 895 -153 L 895 -256 Z" unicode="_" />
<glyph horiz-adv-x="682" d="M 614 1210 L 499 1210 L 239 1540 L 459 1540 L 614 1210 Z" unicode="`" />
<glyph horiz-adv-x="1065" d="M 907 614 L 835 258 C 819 177 811 91 811 0 L 676 0 C 668 30 665 71 665 121 C 547 25 442 -22 350 -22 C 263 -22 190 7 132 67 C 74 127 45 200 45 286 C 45 398 95 484 197 546 C 299 608 441 639 624 639 L 770 639 C 779 686 784 728 784 766 C 784 832 763 883 721 920 C 679 956 621 975 547 975 C 469 975 389 934 307 852 L 207 946 C 338 1046 457 1097 565 1097 C 674 1097 761 1067 827 1009 C 893 950 925 874 925 780 C 925 729 919 674 907 614 Z M 645 524 C 341 524 190 447 190 295 C 190 240 208 194 244 157 C 280 120 325 102 377 102 C 465 102 568 147 688 239 L 747 524 L 645 524 Z" unicode="a" />
<glyph horiz-adv-x="1179" d="M 250 147 L 200 0 L 67 0 C 83 28 105 113 133 256 L 375 1515 L 518 1515 L 411 954 C 497 1049 603 1097 727 1097 C 839 1097 926 1059 990 983 C 1053 907 1085 799 1085 659 C 1085 462 1038 299 945 171 C 851 42 735 -22 596 -22 C 470 -22 354 34 250 147 Z M 379 790 L 280 266 C 372 154 469 98 571 98 C 679 98 768 151 837 257 C 905 362 940 497 940 661 C 940 870 856 975 690 975 C 570 975 466 913 379 790 Z" unicode="b" />
<glyph horiz-adv-x="1048" d="M 868 758 C 834 904 750 977 616 977 C 513 977 425 926 352 824 C 279 722 243 596 243 446 C 243 340 268 257 320 198 C 372 138 443 108 534 108 C 665 108 762 178 825 319 L 940 268 C 846 74 705 -22 516 -22 C 391 -22 290 22 214 111 C 137 200 98 316 98 459 C 98 632 148 782 246 908 C 344 1034 467 1097 614 1097 C 812 1097 943 992 1005 784 L 868 758 Z" unicode="c" />
<glyph horiz-adv-x="1179" d="M 891 0 L 762 0 L 782 129 C 720 68 666 28 619 8 C 572 -12 520 -22 463 -22 C 355 -22 266 19 198 103 C 130 186 96 300 96 446 C 96 638 143 794 239 915 C 335 1036 455 1097 600 1097 C 709 1097 819 1050 930 956 L 1038 1515 L 1181 1515 L 891 0 Z M 798 272 L 905 819 C 823 923 725 975 610 975 C 502 975 413 923 344 820 C 275 717 241 592 241 446 C 241 341 264 257 311 194 C 358 131 420 100 497 100 C 613 100 714 157 798 272 Z" unicode="d" />
<glyph horiz-adv-x="1100" d="M 1005 532 L 246 532 L 237 446 C 234 414 240 369 255 311 C 269 252 300 202 346 162 C 392 122 451 102 522 102 C 653 102 766 186 860 356 L 977 293 C 850 83 691 -22 499 -22 C 376 -22 278 20 206 104 C 133 188 96 303 96 448 C 96 630 146 784 246 910 C 346 1035 474 1097 631 1097 C 754 1097 849 1059 917 985 C 984 911 1018 805 1018 669 C 1018 639 1013 593 1005 532 Z M 272 651 L 870 651 C 875 672 878 695 878 721 C 878 799 856 861 811 907 C 765 953 705 977 631 977 C 451 977 332 868 272 651 Z" unicode="e" />
<glyph horiz-adv-x="604" d="M 715 1368 C 688 1377 661 1382 635 1382 C 598 1382 568 1370 545 1348 C 521 1325 494 1234 463 1075 L 655 1075 L 635 952 L 438 952 L 256 0 L 112 0 L 295 952 L 112 952 L 135 1075 L 319 1075 C 352 1276 393 1400 442 1446 C 491 1492 553 1515 628 1515 C 666 1515 702 1509 737 1499 L 715 1368 Z" unicode="f" />
<glyph horiz-adv-x="1134" d="M 1136 960 C 1073 958 1019 942 975 913 C 1010 851 1028 788 1028 725 C 1028 619 985 529 901 454 C 817 379 711 342 585 342 C 503 342 435 357 379 389 C 271 364 217 326 217 276 C 217 226 309 194 493 180 C 691 165 826 133 899 85 C 972 36 1009 -35 1009 -129 C 1009 -225 968 -300 887 -353 C 805 -405 688 -432 536 -432 C 366 -432 235 -405 141 -351 C 47 -297 0 -223 0 -129 C 0 -20 69 53 209 92 C 125 126 84 178 84 248 C 84 329 153 394 291 442 C 209 512 168 596 168 696 C 168 807 209 902 291 980 C 373 1058 478 1097 604 1097 C 721 1097 820 1063 901 997 C 992 1065 1079 1098 1161 1097 L 1136 960 Z M 307 704 C 307 630 332 569 383 523 C 433 476 497 452 575 452 C 669 452 744 477 802 527 C 860 577 889 643 889 723 C 889 801 863 865 811 914 C 759 962 690 987 604 987 C 516 987 444 960 389 907 C 334 853 307 786 307 704 Z M 338 69 C 201 24 133 -41 133 -127 C 133 -251 263 -313 524 -313 C 756 -313 872 -255 872 -141 C 872 -93 846 -54 796 -24 C 746 5 671 26 571 38 C 471 49 394 59 338 69 Z" unicode="g" />
<glyph horiz-adv-x="1171" d="M 1026 721 L 884 0 L 741 0 L 874 690 C 882 733 887 768 887 794 C 887 848 871 890 840 920 C 808 950 768 964 719 964 C 615 964 501 889 375 741 L 229 0 L 86 0 L 377 1515 L 520 1515 L 405 911 C 521 1035 635 1097 749 1097 C 832 1097 900 1070 954 1017 C 1007 963 1034 892 1034 803 C 1034 775 1031 748 1026 721 Z" unicode="h" />
<glyph horiz-adv-x="524" d="M 229 0 L 86 0 L 297 1075 L 440 1075 L 229 0 Z M 487 1331 L 344 1331 L 379 1515 L 522 1515 L 487 1331 Z" unicode="i" />
<glyph horiz-adv-x="524" d="M 223 -57 C 189 -235 145 -343 92 -381 C 39 -419 -19 -438 -85 -438 C -109 -438 -134 -436 -162 -432 L -139 -297 C -114 -301 -94 -303 -80 -303 C -8 -303 36 -254 55 -157 L 297 1075 L 440 1075 L 223 -57 Z M 489 1335 L 346 1335 L 381 1515 L 524 1515 L 489 1335 Z" unicode="j" />
<glyph horiz-adv-x="975" d="M 590 682 L 850 0 L 694 0 L 483 588 L 317 444 L 229 0 L 86 0 L 381 1515 L 524 1515 L 354 637 L 856 1075 L 1052 1075 L 590 682 Z" unicode="k" />
<glyph horiz-adv-x="524" d="M 229 0 L 86 0 L 377 1515 L 520 1515 L 229 0 Z" unicode="l" />
<glyph horiz-adv-x="1812" d="M 1661 692 L 1528 0 L 1384 0 L 1521 712 C 1527 742 1530 770 1530 796 C 1530 848 1514 889 1484 919 C 1454 949 1416 964 1370 964 C 1270 964 1152 888 1018 737 L 878 0 L 735 0 L 876 741 C 878 755 880 769 880 784 C 880 902 825 962 717 962 C 612 962 498 887 375 737 L 229 0 L 86 0 L 293 1075 L 424 1075 L 387 882 C 503 1025 624 1097 749 1097 C 819 1097 878 1077 926 1037 C 974 997 1004 940 1016 868 C 1147 1020 1274 1097 1396 1097 C 1476 1097 1543 1070 1595 1017 C 1647 964 1673 895 1673 809 C 1673 772 1669 733 1661 692 Z" unicode="m" />
<glyph horiz-adv-x="1171" d="M 1028 727 L 889 0 L 741 0 L 872 671 C 880 712 884 754 884 796 C 884 848 868 888 838 918 C 807 948 766 962 715 962 C 606 962 493 889 377 743 L 231 0 L 86 0 L 297 1075 L 426 1075 L 391 893 C 508 1029 629 1097 753 1097 C 836 1097 904 1070 956 1016 C 1008 962 1034 891 1034 803 C 1034 773 1032 747 1028 727 Z" unicode="n" />
<glyph horiz-adv-x="1110" d="M 104 444 C 104 628 154 783 255 909 C 356 1034 479 1097 624 1097 C 740 1097 832 1054 900 968 C 968 882 1003 768 1003 626 C 1003 449 952 297 851 169 C 750 41 629 -22 487 -22 C 369 -22 275 19 207 103 C 138 187 104 300 104 444 Z M 248 420 C 248 324 271 247 317 189 C 363 131 422 102 493 102 C 593 102 679 155 751 263 C 823 371 860 499 860 647 C 860 747 837 827 791 885 C 745 943 684 973 610 973 C 513 973 428 919 356 811 C 284 703 248 572 248 420 Z" unicode="o" />
<glyph horiz-adv-x="1179" d="M 252 112 L 147 -432 L 4 -432 L 297 1075 L 422 1075 L 399 944 C 495 1046 601 1097 717 1097 C 835 1097 925 1058 987 981 C 1049 904 1081 793 1081 649 C 1081 457 1032 298 933 170 C 834 42 711 -22 565 -22 C 456 -22 352 22 252 112 Z M 385 790 L 280 260 C 354 154 447 102 557 102 C 661 102 751 156 825 265 C 899 374 936 505 936 657 C 936 869 852 975 686 975 C 630 975 573 958 517 924 C 461 890 417 846 385 790 Z" unicode="p" />
<glyph horiz-adv-x="1179" d="M 1038 790 L 803 -432 L 659 -432 L 762 110 C 669 22 566 -22 452 -22 C 214 -22 96 132 96 440 C 96 623 145 778 244 906 C 343 1033 466 1097 612 1097 C 739 1097 847 1042 936 934 C 952 994 969 1041 987 1075 L 1114 1075 C 1094 1047 1069 952 1038 790 Z M 788 246 L 899 827 C 816 925 721 975 614 975 C 506 975 416 921 346 814 C 275 706 239 577 239 426 C 239 323 261 243 306 186 C 350 129 411 100 487 100 C 596 100 696 148 788 246 Z" unicode="q" />
<glyph horiz-adv-x="700" d="M 729 954 C 629 947 545 911 477 845 C 409 779 366 704 350 620 L 229 0 L 86 0 L 293 1075 L 428 1075 L 385 862 C 479 1014 609 1091 774 1091 L 729 954 Z" unicode="r" />
<glyph horiz-adv-x="907" d="M 745 825 C 695 929 617 981 512 981 C 450 981 398 964 358 930 C 317 896 297 856 297 809 C 297 741 363 678 497 618 C 597 573 668 527 710 481 C 751 434 772 374 772 301 C 772 208 737 131 667 70 C 597 8 509 -22 401 -22 C 222 -22 86 75 -8 270 L 112 327 C 155 239 198 178 240 146 C 282 114 334 98 395 98 C 465 98 522 116 566 153 C 609 190 631 237 631 293 C 631 327 620 358 598 388 C 576 417 522 453 436 496 C 330 547 257 593 216 633 C 175 673 155 726 155 794 C 155 883 188 956 255 1012 C 322 1068 408 1097 512 1097 C 666 1097 782 1024 858 880 L 745 825 Z" unicode="s" />
<glyph horiz-adv-x="657" d="M 680 952 L 442 952 L 319 319 C 311 276 307 242 307 217 C 307 178 314 151 329 137 C 343 122 369 114 407 114 C 461 114 519 126 583 151 L 559 28 C 485 -5 416 -22 352 -22 C 223 -22 159 46 159 182 C 159 228 167 293 184 377 L 299 952 L 102 952 L 125 1075 L 321 1075 L 391 1439 L 534 1439 L 467 1075 L 702 1075 L 680 952 Z" unicode="t" />
<glyph horiz-adv-x="1171" d="M 874 0 L 743 0 L 778 186 C 658 47 537 -22 415 -22 C 335 -22 269 3 217 57 C 165 110 139 184 139 278 C 139 322 143 367 153 415 L 286 1075 L 430 1075 L 303 424 C 290 360 284 308 284 266 C 284 219 299 182 329 155 C 359 127 399 114 450 114 C 554 114 669 189 794 340 L 938 1075 L 1081 1075 L 874 0 Z" unicode="u" />
<glyph horiz-adv-x="919" d="M 432 0 L 280 0 L 116 1075 L 270 1075 L 383 172 L 821 1075 L 973 1075 L 432 0 Z" unicode="v" />
<glyph horiz-adv-x="1452" d="M 1503 1075 L 981 0 L 827 0 L 778 876 L 393 0 L 235 0 L 153 1075 L 299 1075 L 348 178 L 749 1075 L 889 1075 L 934 186 L 1353 1075 L 1503 1075 Z" unicode="w" />
<glyph horiz-adv-x="915" d="M 543 558 L 810 0 L 656 0 L 452 439 L 124 0 L -43 0 L 393 567 L 150 1075 L 304 1075 L 485 683 L 777 1075 L 940 1075 L 543 558 Z" unicode="x" />
<glyph horiz-adv-x="940" d="M 366 -166 C 276 -343 164 -432 30 -432 C -17 -432 -62 -421 -106 -401 L -82 -274 C -39 -290 -2 -299 30 -299 C 127 -299 217 -206 299 -22 L 123 1075 L 276 1075 L 397 166 L 829 1075 L 993 1075 L 366 -166 Z" unicode="y" />
<glyph horiz-adv-x="944" d="M 950 956 L 151 125 L 805 125 L 782 0 L -41 0 L -16 135 L 768 952 L 168 952 L 188 1075 L 971 1075 L 950 956 Z" unicode="z" />
<glyph horiz-adv-x="682" d="M 585 -405 C 464 -405 381 -376 337 -320 C 292 -263 270 -173 270 -49 C 270 103 266 211 259 273 C 252 335 232 384 199 421 C 166 458 118 478 55 481 L 55 628 C 117 631 165 651 198 687 C 231 723 251 772 259 832 C 266 892 270 1000 270 1157 C 270 1281 293 1372 338 1429 C 382 1486 465 1515 585 1515 L 635 1515 L 635 1374 L 612 1374 C 530 1374 478 1358 456 1327 C 433 1296 422 1240 422 1159 L 422 1009 C 422 871 406 771 376 709 C 345 647 285 596 196 555 C 275 523 332 475 368 413 C 404 351 422 246 422 98 L 422 -49 C 422 -130 433 -186 456 -217 C 478 -248 530 -264 612 -264 L 635 -264 L 635 -405 L 585 -405 Z" unicode="{" />
<glyph horiz-adv-x="1087" d="M 477 -409 L 477 1515 L 610 1515 L 610 -409 L 477 -409 Z" unicode="|" />
<glyph horiz-adv-x="682" d="M 119 -405 L 119 -264 L 141 -264 C 223 -264 275 -248 298 -217 C 320 -185 332 -129 332 -49 L 332 98 C 332 247 349 353 385 415 C 420 477 477 523 555 555 C 466 596 407 647 377 709 C 347 771 332 871 332 1009 L 332 1159 C 332 1239 320 1295 298 1327 C 275 1358 223 1374 141 1374 L 119 1374 L 119 1515 L 168 1515 C 288 1515 371 1487 416 1430 C 461 1372 483 1281 483 1157 C 483 1005 486 898 494 836 C 501 774 521 725 554 688 C 587 651 635 631 698 628 L 698 481 C 635 478 587 459 555 423 C 523 387 503 338 495 278 C 487 218 483 109 483 -49 C 483 -173 460 -264 416 -320 C 371 -376 288 -405 168 -405 L 119 -405 Z" unicode="}" />
<glyph horiz-adv-x="1343" d="M 1263 942 L 1263 796 C 1162 711 1067 669 977 669 C 915 669 826 696 710 750 C 594 804 515 831 473 831 C 389 831 291 785 180 694 L 180 837 C 281 920 379 962 475 962 C 533 962 620 935 736 882 C 852 828 931 801 973 801 C 1056 801 1153 848 1263 942 Z" unicode="~" />
<glyph horiz-adv-x="1280" d="M 340 930 L 1139 930 L 1116 815 L 313 815 C 306 767 302 729 301 700 L 1096 700 L 1073 586 L 299 586 C 305 430 341 310 407 227 C 473 143 560 102 670 102 C 752 102 822 123 881 166 C 939 209 997 277 1053 371 L 1178 309 C 1100 191 1021 105 941 51 C 860 -3 765 -31 655 -31 C 506 -31 386 23 294 131 C 202 239 153 391 147 586 L 55 586 L 78 700 L 150 700 C 152 733 157 771 164 815 L 55 815 L 78 930 L 188 930 C 248 1131 333 1284 445 1389 C 557 1493 688 1546 838 1546 C 952 1546 1049 1514 1130 1450 C 1210 1386 1269 1293 1305 1171 L 1167 1135 C 1117 1327 1005 1423 831 1423 C 728 1423 632 1379 542 1292 C 452 1204 385 1084 340 930 Z" unicode="" />
<glyph horiz-adv-x="641" d="" unicode=" " />
<glyph horiz-adv-x="641" d="M 278 860 L 323 1087 L 524 1087 L 479 860 L 278 860 Z M 28 -432 L 278 624 L 389 624 L 225 -432 L 28 -432 Z" unicode="¡" />
<glyph horiz-adv-x="1044" d="M 868 753 C 845 847 797 914 723 952 L 450 112 C 490 102 522 98 545 98 C 661 98 755 171 829 317 L 940 264 C 843 73 706 -22 530 -22 C 493 -22 453 -18 411 -12 L 278 -428 L 178 -428 L 321 26 C 176 115 104 258 104 456 C 104 624 153 771 251 899 C 349 1027 470 1091 614 1091 L 665 1089 L 780 1448 L 880 1448 L 758 1069 C 878 1016 956 919 993 778 L 868 753 Z M 362 153 L 628 979 C 511 974 418 921 349 819 C 280 717 246 592 246 444 C 246 317 284 220 362 153 Z" unicode="¢" />
<glyph horiz-adv-x="1253" d="M 1081 1202 C 1082 1214 1083 1231 1083 1255 C 1083 1305 1068 1346 1037 1376 C 1005 1406 963 1421 909 1421 C 822 1421 755 1386 708 1314 C 660 1242 630 1095 616 872 L 977 872 L 956 758 L 616 758 C 598 506 568 336 526 246 C 633 164 721 123 790 123 C 902 123 964 201 977 358 L 1122 358 C 1108 235 1071 140 1013 73 C 955 5 882 -28 794 -28 C 711 -28 603 25 469 133 C 389 25 303 -28 213 -28 C 155 -28 106 -8 68 29 C 29 67 10 116 10 176 C 10 238 30 289 71 330 C 112 370 161 391 219 391 C 283 391 348 367 415 321 C 447 397 463 527 463 710 L 461 758 L 155 758 L 180 872 L 461 872 C 477 1321 628 1546 915 1546 C 1127 1546 1231 1431 1227 1202 L 1081 1202 Z M 217 289 C 189 289 165 278 145 256 C 124 234 114 208 114 178 C 114 149 123 125 141 106 C 159 87 181 78 209 78 C 270 78 323 123 368 213 C 302 263 251 289 217 289 Z" unicode="£" />
<glyph horiz-adv-x="1409" d="M 327 1151 L 454 1024 C 545 1084 636 1114 727 1114 C 823 1114 914 1084 1001 1024 L 1128 1151 L 1216 1061 L 1089 934 C 1149 846 1179 755 1179 663 C 1179 567 1149 476 1089 391 L 1216 264 L 1128 176 L 1001 301 C 914 241 823 211 727 211 C 633 211 543 241 456 301 L 329 176 L 239 264 L 366 391 C 306 476 276 567 276 663 C 276 759 306 850 366 936 L 239 1061 L 327 1151 Z M 727 338 C 817 338 893 369 957 433 C 1020 496 1052 573 1052 663 C 1052 761 1021 840 959 900 C 897 959 820 989 728 989 C 635 989 558 959 496 900 C 434 840 403 761 403 663 C 403 573 435 496 498 433 C 560 369 637 338 727 338 Z" unicode="¤" />
<glyph horiz-adv-x="1194" d="M 1122 659 L 710 659 L 680 612 L 645 438 L 1077 438 L 1057 325 L 624 325 L 561 0 L 409 0 L 473 325 L 30 325 L 51 438 L 495 438 L 534 637 L 526 659 L 96 659 L 119 772 L 491 772 L 262 1515 L 409 1515 L 628 772 L 1126 1515 L 1292 1515 L 788 772 L 1145 772 L 1122 659 Z" unicode="¥" />
<glyph horiz-adv-x="1087" d="M 477 790 L 477 1515 L 610 1515 L 610 790 L 477 790 Z M 477 -409 L 477 315 L 610 315 L 610 -409 L 477 -409 Z" unicode="¦" />
<glyph horiz-adv-x="1113" d="M 915 1218 C 910 1282 887 1331 847 1367 C 807 1403 755 1421 693 1421 C 629 1421 575 1403 531 1367 C 487 1331 466 1286 466 1233 C 466 1190 483 1149 518 1111 C 553 1072 615 1024 705 967 C 813 898 887 836 926 780 C 965 724 985 664 985 600 C 985 518 958 445 905 379 C 851 313 758 244 626 173 C 690 124 734 80 757 42 C 780 4 792 -38 792 -86 C 792 -182 754 -263 678 -331 C 602 -398 504 -432 384 -432 C 281 -432 199 -406 137 -355 C 75 -304 40 -232 30 -139 L 184 -104 C 199 -239 275 -307 412 -307 C 474 -307 527 -288 571 -252 C 614 -215 636 -171 636 -121 C 636 -41 562 45 414 138 C 306 206 230 268 187 325 C 143 382 122 445 122 514 C 122 592 146 664 195 728 C 243 792 337 863 477 943 C 367 1020 313 1109 313 1210 C 313 1304 352 1383 432 1448 C 512 1513 612 1546 734 1546 C 934 1546 1047 1449 1072 1256 L 915 1218 Z M 560 883 C 361 777 262 666 262 551 C 262 511 279 468 313 422 C 347 376 423 312 541 231 C 742 329 843 438 843 559 C 843 601 826 645 791 692 C 756 739 679 803 560 883 Z" unicode="§" />
<glyph horiz-adv-x="682" d="M 176 1249 L 211 1423 L 385 1423 L 350 1249 L 176 1249 Z M 585 1249 L 620 1423 L 794 1423 L 760 1249 L 585 1249 Z" unicode="¨" />
<glyph horiz-adv-x="1714" d="M 147 790 C 147 999 220 1177 368 1325 C 515 1472 692 1546 900 1546 C 1108 1546 1285 1472 1431 1324 C 1577 1176 1650 998 1650 790 C 1650 582 1577 404 1431 256 C 1285 108 1108 35 900 35 C 692 35 515 108 368 256 C 220 403 147 581 147 790 Z M 266 790 C 266 615 328 466 452 342 C 576 218 725 156 900 156 C 1074 156 1223 217 1347 341 C 1470 465 1532 614 1532 790 C 1532 966 1470 1115 1347 1239 C 1223 1363 1074 1425 900 1425 C 725 1425 576 1363 452 1239 C 328 1115 266 965 266 790 Z M 1244 982 L 1131 952 C 1091 1054 1012 1106 896 1106 C 819 1106 757 1076 709 1017 C 661 958 637 880 637 782 C 637 685 660 609 707 554 C 753 498 818 471 900 471 C 957 471 1008 488 1053 522 C 1098 556 1128 603 1144 663 L 1261 628 C 1241 545 1198 479 1134 431 C 1069 383 992 359 902 359 C 780 359 683 398 613 477 C 543 555 508 664 508 803 C 508 926 544 1025 616 1100 C 688 1175 785 1213 908 1213 C 1084 1213 1196 1136 1244 982 Z" unicode="©" />
<glyph horiz-adv-x="809" d="M 805 1205 L 755 961 C 743 905 738 844 738 777 L 627 777 C 624 786 621 810 618 850 C 542 791 471 762 406 762 C 342 762 289 783 247 826 C 204 868 183 920 183 982 C 183 1061 220 1123 293 1167 C 366 1211 468 1232 598 1232 L 693 1232 C 698 1262 701 1288 701 1310 C 701 1399 648 1444 544 1444 C 492 1444 436 1414 376 1356 L 292 1434 C 391 1508 479 1546 557 1546 C 635 1546 698 1525 746 1483 C 794 1441 818 1387 818 1320 C 818 1285 813 1247 805 1205 Z M 613 1136 C 407 1136 304 1086 304 988 C 304 953 315 924 339 900 C 363 876 391 865 425 865 C 484 865 554 895 635 955 L 673 1136 L 613 1136 Z" unicode="ª" />
<glyph horiz-adv-x="960" d="M 456 555 L 813 1014 L 968 1014 L 602 538 L 782 61 L 641 61 L 456 555 Z M 88 553 L 446 1014 L 600 1014 L 231 534 L 415 61 L 272 61 L 88 553 Z" unicode="«" />
<glyph horiz-adv-x="1366" d="M 180 946 L 180 1077 L 1267 1077 L 1267 459 L 1138 459 L 1138 946 L 180 946 Z" unicode="¬" />
<glyph horiz-adv-x="715" d="M 86 487 L 114 635 L 624 635 L 596 487 L 86 487 Z" unicode="­" />
<glyph horiz-adv-x="1714" d="M 147 790 C 147 999 220 1177 368 1325 C 515 1472 692 1546 900 1546 C 1108 1546 1285 1472 1431 1324 C 1577 1176 1650 998 1650 790 C 1650 582 1577 404 1431 256 C 1285 108 1108 35 900 35 C 692 35 515 108 368 256 C 220 403 147 581 147 790 Z M 266 790 C 266 615 328 466 452 342 C 576 218 725 156 900 156 C 1074 156 1223 217 1347 341 C 1470 465 1532 614 1532 790 C 1532 966 1470 1115 1347 1239 C 1223 1363 1074 1425 900 1425 C 725 1425 576 1363 452 1239 C 328 1115 266 965 266 790 Z M 1129 374 L 1058 502 C 1005 598 963 658 932 682 C 901 706 862 719 814 719 L 733 719 L 733 374 L 608 374 L 608 1184 L 883 1184 C 1025 1184 1118 1162 1162 1120 C 1206 1077 1229 1027 1229 971 C 1229 907 1207 853 1163 810 C 1119 767 1061 743 987 737 C 1051 711 1117 642 1186 530 L 1281 374 L 1129 374 Z M 886 1079 L 733 1079 L 733 826 L 896 826 C 1028 826 1095 869 1095 955 C 1095 1037 1025 1079 886 1079 Z" unicode="®" />
<glyph horiz-adv-x="1024" d="M 1241 1669 L 192 1669 L 192 1771 L 1241 1771 L 1241 1669 Z" unicode="¯" />
<glyph horiz-adv-x="811" d="M 545 1546 C 621 1546 686 1518 740 1464 C 794 1410 821 1344 821 1267 C 821 1191 794 1126 740 1072 C 686 1018 621 991 545 991 C 467 991 401 1017 347 1071 C 293 1125 266 1190 266 1267 C 266 1343 293 1409 347 1464 C 401 1518 467 1546 545 1546 Z M 545 1100 C 591 1100 630 1116 663 1148 C 695 1180 712 1220 712 1267 C 712 1315 695 1355 663 1388 C 631 1421 591 1437 545 1437 C 497 1437 457 1420 424 1387 C 391 1353 375 1313 375 1267 C 375 1221 391 1182 425 1149 C 458 1116 498 1100 545 1100 Z" unicode="°" />
<glyph horiz-adv-x="1366" d="M 137 860 L 137 991 L 614 991 L 614 1470 L 745 1470 L 745 991 L 1227 991 L 1227 860 L 745 860 L 745 383 L 614 383 L 614 860 L 137 860 Z M 137 51 L 137 182 L 1227 182 L 1227 51 L 137 51 Z" unicode="±" />
<glyph horiz-adv-x="641" d="M 315 1294 L 223 1323 C 295 1451 390 1515 508 1515 C 568 1515 616 1498 652 1466 C 688 1433 706 1391 706 1339 C 706 1239 630 1144 479 1054 C 400 1007 344 970 312 943 C 279 915 253 879 233 835 L 610 835 L 592 735 L 102 735 C 123 895 230 1026 424 1128 C 534 1186 590 1250 590 1321 C 590 1347 580 1369 562 1387 C 543 1405 519 1415 491 1415 C 421 1415 362 1374 315 1294 Z" unicode="²" />
<glyph horiz-adv-x="641" d="M 354 1075 L 319 1075 L 338 1171 C 419 1174 482 1189 527 1217 C 571 1245 594 1281 594 1325 C 594 1383 561 1413 497 1413 C 447 1413 394 1388 338 1339 L 270 1409 C 354 1479 440 1515 528 1515 C 583 1515 627 1501 659 1473 C 691 1445 706 1406 706 1358 C 706 1238 631 1161 481 1126 C 587 1109 641 1049 641 946 C 641 887 613 833 557 783 C 501 733 430 708 346 708 C 264 708 187 749 114 831 L 215 895 C 251 840 302 813 370 813 C 478 813 532 860 532 954 C 532 1034 472 1075 354 1075 Z" unicode="³" />
<glyph horiz-adv-x="682" d="M 313 1210 L 594 1540 L 823 1540 L 442 1210 L 313 1210 Z" unicode="´" />
<glyph horiz-adv-x="1130" d="M 833 0 L 833 125 C 767 25 677 -24 563 -24 C 465 -24 381 19 313 106 L 313 -407 L 135 -407 L 135 1061 L 313 1061 L 313 545 C 313 407 325 315 348 269 C 371 223 400 189 435 168 C 469 147 509 137 555 137 C 619 137 678 159 733 204 C 787 249 815 361 815 540 L 815 1061 L 993 1061 L 993 0 L 833 0 Z" unicode="µ" />
<glyph horiz-adv-x="1272" d="M 530 1515 L 1220 1515 L 1220 1372 L 1018 1372 L 1018 -409 L 897 -409 L 897 1372 L 622 1372 L 622 -409 L 499 -409 L 499 674 C 361 673 251 712 171 790 C 91 868 51 971 51 1100 C 51 1225 94 1325 181 1401 C 267 1477 384 1515 530 1515 Z" unicode="¶" />
<glyph horiz-adv-x="606" d="M 225 649 L 268 874 L 465 874 L 422 649 L 225 649 Z" unicode="·" />
<glyph horiz-adv-x="682" d="M -133 -372 L -82 -270 C -22 -304 49 -321 135 -321 C 217 -321 259 -294 259 -241 C 259 -195 203 -172 92 -172 L 221 0 L 311 0 L 243 -90 C 344 -100 395 -146 395 -230 C 395 -289 370 -336 320 -371 C 270 -406 208 -424 135 -424 C 34 -424 -55 -406 -133 -372 Z" unicode="¸" />
<glyph horiz-adv-x="641" d="M 329 1353 L 348 1446 C 416 1459 467 1477 499 1499 L 555 1499 L 424 839 L 520 839 L 499 739 L 211 739 L 231 839 L 321 839 L 424 1370 C 394 1361 362 1355 329 1353 Z" unicode="¹" />
<glyph horiz-adv-x="833" d="M 208 1090 C 208 1218 244 1326 316 1414 C 388 1502 477 1546 581 1546 C 665 1546 731 1515 781 1455 C 831 1395 856 1315 856 1215 C 856 1091 819 985 747 896 C 674 806 587 762 485 762 C 399 762 332 791 282 851 C 232 910 208 990 208 1090 Z M 327 1073 C 327 1011 342 961 373 923 C 404 885 443 865 490 865 C 556 865 614 901 663 973 C 712 1045 737 1130 737 1229 C 737 1295 722 1347 691 1385 C 660 1423 620 1443 571 1443 C 506 1443 449 1406 400 1334 C 351 1262 327 1175 327 1073 Z" unicode="º" />
<glyph horiz-adv-x="960" d="M 876 522 L 518 61 L 364 61 L 733 540 L 549 1014 L 692 1014 L 876 522 Z M 508 520 L 151 61 L -4 61 L 362 536 L 182 1014 L 323 1014 L 508 520 Z" unicode="»" />
<glyph horiz-adv-x="1921" d="M 307 -203 L 1601 1552 L 1681 1507 L 383 -252 L 307 -203 Z M 325 1370 L 344 1456 C 410 1462 471 1491 528 1544 L 637 1544 L 469 682 L 637 682 L 616 567 L 172 567 L 194 682 L 352 682 L 495 1405 C 441 1379 385 1368 325 1370 Z M 911 96 L 1474 782 L 1632 782 L 1493 96 L 1698 96 L 1677 0 L 1480 0 L 1431 -252 L 1317 -252 L 1366 0 L 891 0 L 911 96 Z M 1384 96 L 1493 643 L 1042 96 L 1384 96 Z" unicode="¼" />
<glyph horiz-adv-x="1921" d="M 264 -203 L 1554 1548 L 1634 1503 L 342 -252 L 264 -203 Z M 336 1370 L 352 1454 C 418 1462 478 1492 532 1542 L 645 1542 L 477 682 L 653 682 L 628 567 L 182 567 L 203 682 L 362 682 L 502 1396 C 446 1378 391 1370 336 1370 Z M 1241 459 L 1134 491 C 1235 687 1368 786 1532 786 C 1606 786 1668 763 1718 718 C 1767 672 1792 614 1792 542 C 1792 466 1764 399 1710 342 C 1655 284 1573 221 1464 153 C 1310 58 1207 -37 1153 -135 L 1675 -135 L 1652 -252 L 993 -252 C 1013 -104 1121 36 1317 172 C 1461 272 1554 344 1597 389 C 1639 434 1661 482 1661 532 C 1661 572 1647 606 1619 633 C 1591 660 1556 674 1513 674 C 1407 674 1317 602 1241 459 Z" unicode="½" />
<glyph horiz-adv-x="1921" d="M 313 -209 L 1614 1548 L 1695 1499 L 395 -254 L 313 -209 Z M 469 1024 L 381 1024 L 440 1138 C 537 1138 612 1155 665 1190 C 717 1225 743 1268 743 1319 C 743 1349 731 1375 708 1397 C 685 1418 653 1429 612 1429 C 534 1429 457 1391 383 1317 L 313 1396 C 426 1496 533 1546 635 1546 C 702 1546 757 1526 800 1486 C 843 1446 864 1395 864 1333 C 864 1270 842 1216 797 1170 C 752 1124 692 1097 616 1091 C 743 1064 807 998 807 893 C 807 797 770 718 698 656 C 625 594 541 563 446 563 C 316 563 219 625 155 751 L 260 819 C 309 726 376 680 461 680 C 531 680 587 699 629 737 C 671 775 692 822 692 880 C 692 976 617 1024 469 1024 Z M 932 94 L 1493 782 L 1659 782 L 1526 94 L 1714 94 L 1695 0 L 1501 0 L 1452 -254 L 1337 -254 L 1384 0 L 911 0 L 932 94 Z M 1407 94 L 1513 643 L 1063 94 L 1407 94 Z" unicode="¾" />
<glyph horiz-adv-x="854" d="M 454 862 L 499 1087 L 700 1087 L 655 862 L 454 862 Z M 514 -166 L 626 -200 C 562 -372 446 -459 280 -459 C 184 -459 108 -429 50 -371 C -8 -312 -37 -236 -37 -143 C -37 -3 51 132 229 262 C 295 310 347 361 383 413 C 419 465 442 536 450 626 L 583 626 C 576 526 551 442 507 374 C 463 306 383 223 268 125 C 162 35 110 -53 110 -143 C 110 -203 128 -251 164 -287 C 200 -323 246 -342 303 -342 C 408 -342 478 -283 514 -166 Z" unicode="¿" />
<glyph horiz-adv-x="1292" d="M 1018 0 L 944 456 L 327 456 L 102 0 L -57 0 L 700 1515 L 927 1515 L 1173 0 L 1018 0 Z M 796 1419 L 391 590 L 925 590 L 796 1419 Z M 997 1622 L 882 1622 L 622 1952 L 842 1952 L 997 1622 Z" unicode="À" />
<glyph horiz-adv-x="1292" d="M 1018 0 L 944 456 L 327 456 L 102 0 L -57 0 L 700 1515 L 927 1515 L 1173 0 L 1018 0 Z M 796 1419 L 391 590 L 925 590 L 796 1419 Z M 676 1622 L 957 1952 L 1186 1952 L 805 1622 L 676 1622 Z" unicode="Á" />
<glyph horiz-adv-x="1292" d="M 1018 0 L 944 456 L 327 456 L 102 0 L -57 0 L 700 1515 L 927 1515 L 1173 0 L 1018 0 Z M 796 1419 L 391 590 L 925 590 L 796 1419 Z M 952 1942 L 1135 1622 L 1047 1622 L 871 1803 L 608 1622 L 512 1622 L 828 1942 L 952 1942 Z" unicode="Â" />
<glyph horiz-adv-x="1292" d="M 1018 0 L 944 456 L 327 456 L 102 0 L -57 0 L 700 1515 L 927 1515 L 1173 0 L 1018 0 Z M 796 1419 L 391 590 L 925 590 L 796 1419 Z M 584 1659 L 502 1659 C 518 1738 549 1800 595 1844 C 640 1888 691 1911 748 1911 C 788 1911 833 1890 883 1848 C 932 1805 967 1784 987 1784 C 1041 1784 1087 1826 1127 1911 L 1209 1911 C 1191 1833 1159 1770 1113 1724 C 1067 1678 1015 1655 957 1655 C 917 1655 874 1676 828 1719 C 781 1761 745 1782 721 1782 C 667 1782 622 1741 584 1659 Z" unicode="Ã" />
<glyph horiz-adv-x="1292" d="M 1018 0 L 944 456 L 327 456 L 102 0 L -57 0 L 700 1515 L 927 1515 L 1173 0 L 1018 0 Z M 796 1419 L 391 590 L 925 590 L 796 1419 Z M 548 1661 L 583 1835 L 757 1835 L 722 1661 L 548 1661 Z M 957 1661 L 992 1835 L 1166 1835 L 1132 1661 L 957 1661 Z" unicode="Ä" />
<glyph horiz-adv-x="1292" d="M 1018 0 L 944 456 L 327 456 L 102 0 L -57 0 L 700 1515 L 927 1515 L 1173 0 L 1018 0 Z M 796 1419 L 391 590 L 925 590 L 796 1419 Z M 651 1785 C 651 1841 671 1890 711 1930 C 751 1970 799 1990 855 1990 C 911 1990 959 1970 999 1930 C 1038 1890 1058 1841 1058 1785 C 1058 1729 1038 1681 998 1642 C 958 1602 911 1583 857 1583 C 799 1583 750 1602 710 1642 C 670 1681 651 1729 651 1785 Z M 990 1785 C 990 1823 977 1856 951 1884 C 924 1911 891 1925 853 1925 C 815 1925 782 1911 756 1885 C 729 1858 716 1825 716 1787 C 716 1748 730 1715 757 1688 C 784 1661 815 1648 851 1648 C 891 1648 925 1662 951 1689 C 977 1715 990 1747 990 1785 Z" unicode="Å" />
<glyph horiz-adv-x="1837" d="M 1898 1384 L 1192 1384 L 1089 858 L 1661 858 L 1636 725 L 1063 725 L 948 133 L 1712 133 L 1685 0 L 768 0 L 856 456 L 327 456 L 88 0 L -71 0 L 741 1515 L 1925 1515 L 1898 1384 Z M 815 1384 L 393 583 L 880 583 L 1038 1384 L 815 1384 Z" unicode="Æ" />
<glyph horiz-adv-x="1319" d="M 1216 1083 C 1177 1301 1056 1411 854 1411 C 708 1411 581 1335 471 1183 C 361 1031 307 844 307 620 C 307 458 341 332 410 241 C 478 149 572 104 690 104 C 855 104 989 192 1091 370 L 1220 309 C 1076 81 895 -30 678 -28 L 664 -28 L 618 -90 C 718 -100 769 -146 769 -230 C 769 -289 745 -336 695 -371 C 645 -406 583 -424 510 -424 C 408 -424 319 -406 241 -372 L 293 -270 C 352 -304 424 -321 510 -321 C 592 -321 634 -294 634 -241 C 634 -195 578 -172 467 -172 L 580 -21 C 445 1 339 69 263 181 C 186 293 147 437 147 614 C 147 861 214 1078 346 1265 C 478 1452 650 1546 860 1546 C 986 1546 1095 1508 1185 1432 C 1275 1356 1333 1252 1358 1120 L 1216 1083 Z" unicode="Ç" />
<glyph horiz-adv-x="1161" d="M 1229 1382 L 520 1382 L 418 858 L 991 858 L 966 725 L 393 725 L 276 133 L 1040 133 L 1016 0 L 98 0 L 393 1515 L 1255 1515 L 1229 1382 Z M 973 1622 L 858 1622 L 598 1952 L 818 1952 L 973 1622 Z" unicode="È" />
<glyph horiz-adv-x="1161" d="M 1229 1382 L 520 1382 L 418 858 L 991 858 L 966 725 L 393 725 L 276 133 L 1040 133 L 1016 0 L 98 0 L 393 1515 L 1255 1515 L 1229 1382 Z M 672 1622 L 953 1952 L 1182 1952 L 801 1622 L 672 1622 Z" unicode="É" />
<glyph horiz-adv-x="1161" d="M 1229 1382 L 520 1382 L 418 858 L 991 858 L 966 725 L 393 725 L 276 133 L 1040 133 L 1016 0 L 98 0 L 393 1515 L 1255 1515 L 1229 1382 Z M 964 1942 L 1147 1622 L 1059 1622 L 883 1803 L 620 1622 L 524 1622 L 840 1942 L 964 1942 Z" unicode="Ê" />
<glyph horiz-adv-x="1161" d="M 1229 1382 L 520 1382 L 418 858 L 991 858 L 966 725 L 393 725 L 276 133 L 1040 133 L 1016 0 L 98 0 L 393 1515 L 1255 1515 L 1229 1382 Z M 555 1661 L 590 1835 L 764 1835 L 729 1661 L 555 1661 Z M 964 1661 L 999 1835 L 1173 1835 L 1139 1661 L 964 1661 Z" unicode="Ë" />
<glyph horiz-adv-x="559" d="M 252 0 L 98 0 L 389 1515 L 542 1515 L 252 0 Z M 635 1622 L 520 1622 L 260 1952 L 480 1952 L 635 1622 Z" unicode="Ì" />
<glyph horiz-adv-x="559" d="M 252 0 L 98 0 L 389 1515 L 542 1515 L 252 0 Z M 344 1622 L 625 1952 L 854 1952 L 473 1622 L 344 1622 Z" unicode="Í" />
<glyph horiz-adv-x="559" d="M 252 0 L 98 0 L 389 1515 L 542 1515 L 252 0 Z M 606 1942 L 789 1622 L 701 1622 L 525 1803 L 262 1622 L 166 1622 L 482 1942 L 606 1942 Z" unicode="Î" />
<glyph horiz-adv-x="559" d="M 252 0 L 98 0 L 389 1515 L 542 1515 L 252 0 Z M 196 1661 L 231 1835 L 405 1835 L 370 1661 L 196 1661 Z M 605 1661 L 640 1835 L 814 1835 L 780 1661 L 605 1661 Z" unicode="Ï" />
<glyph horiz-adv-x="1407" d="M 257 817 L 393 1515 L 710 1515 C 912 1515 1066 1456 1174 1337 C 1281 1218 1335 1057 1335 854 C 1335 593 1259 385 1107 231 C 955 77 749 0 491 0 L 98 0 L 234 696 L 55 696 L 78 817 L 257 817 Z M 735 817 L 712 696 L 386 696 L 276 133 L 459 133 C 689 133 866 194 990 317 C 1113 439 1175 619 1175 856 C 1175 1017 1134 1145 1052 1240 C 970 1335 861 1382 725 1382 L 520 1382 L 410 817 L 735 817 Z" unicode="Ð" />
<glyph horiz-adv-x="1546" d="M 1233 0 L 1124 0 L 514 1388 L 246 0 L 98 0 L 395 1515 L 616 1515 L 1147 299 L 1382 1513 L 1530 1515 L 1233 0 Z M 758 1659 L 676 1659 C 692 1738 723 1800 769 1844 C 814 1888 865 1911 922 1911 C 962 1911 1007 1890 1057 1848 C 1106 1805 1141 1784 1161 1784 C 1215 1784 1261 1826 1301 1911 L 1383 1911 C 1365 1833 1333 1770 1287 1724 C 1241 1678 1189 1655 1131 1655 C 1091 1655 1048 1676 1002 1719 C 955 1761 919 1782 895 1782 C 841 1782 796 1741 758 1659 Z" unicode="Ñ" />
<glyph horiz-adv-x="1470" d="M 692 -28 C 324 -28 141 179 141 594 C 141 825 208 1041 342 1243 C 476 1445 653 1546 874 1546 C 1046 1546 1179 1492 1273 1386 C 1367 1279 1415 1128 1415 934 C 1415 698 1349 479 1218 276 C 1086 73 911 -28 692 -28 Z M 299 545 C 299 407 333 299 401 221 C 469 143 559 104 671 104 C 845 104 985 195 1093 376 C 1201 556 1255 748 1255 952 C 1255 1086 1219 1196 1148 1282 C 1077 1368 989 1411 884 1411 C 709 1411 568 1319 460 1137 C 352 954 299 757 299 545 Z M 1126 1622 L 1011 1622 L 751 1952 L 971 1952 L 1126 1622 Z" unicode="Ò" />
<glyph horiz-adv-x="1470" d="M 692 -28 C 324 -28 141 179 141 594 C 141 825 208 1041 342 1243 C 476 1445 653 1546 874 1546 C 1046 1546 1179 1492 1273 1386 C 1367 1279 1415 1128 1415 934 C 1415 698 1349 479 1218 276 C 1086 73 911 -28 692 -28 Z M 299 545 C 299 407 333 299 401 221 C 469 143 559 104 671 104 C 845 104 985 195 1093 376 C 1201 556 1255 748 1255 952 C 1255 1086 1219 1196 1148 1282 C 1077 1368 989 1411 884 1411 C 709 1411 568 1319 460 1137 C 352 954 299 757 299 545 Z M 792 1622 L 1073 1952 L 1302 1952 L 921 1622 L 792 1622 Z" unicode="Ó" />
<glyph horiz-adv-x="1470" d="M 692 -28 C 324 -28 141 179 141 594 C 141 825 208 1041 342 1243 C 476 1445 653 1546 874 1546 C 1046 1546 1179 1492 1273 1386 C 1367 1279 1415 1128 1415 934 C 1415 698 1349 479 1218 276 C 1086 73 911 -28 692 -28 Z M 299 545 C 299 407 333 299 401 221 C 469 143 559 104 671 104 C 845 104 985 195 1093 376 C 1201 556 1255 748 1255 952 C 1255 1086 1219 1196 1148 1282 C 1077 1368 989 1411 884 1411 C 709 1411 568 1319 460 1137 C 352 954 299 757 299 545 Z M 1064 1942 L 1247 1622 L 1159 1622 L 983 1803 L 720 1622 L 624 1622 L 940 1942 L 1064 1942 Z" unicode="Ô" />
<glyph horiz-adv-x="1470" d="M 692 -28 C 324 -28 141 179 141 594 C 141 825 208 1041 342 1243 C 476 1445 653 1546 874 1546 C 1046 1546 1179 1492 1273 1386 C 1367 1279 1415 1128 1415 934 C 1415 698 1349 479 1218 276 C 1086 73 911 -28 692 -28 Z M 299 545 C 299 407 333 299 401 221 C 469 143 559 104 671 104 C 845 104 985 195 1093 376 C 1201 556 1255 748 1255 952 C 1255 1086 1219 1196 1148 1282 C 1077 1368 989 1411 884 1411 C 709 1411 568 1319 460 1137 C 352 954 299 757 299 545 Z M 700 1659 L 618 1659 C 634 1738 665 1800 711 1844 C 756 1888 807 1911 864 1911 C 904 1911 949 1890 999 1848 C 1048 1805 1083 1784 1103 1784 C 1157 1784 1203 1826 1243 1911 L 1325 1911 C 1307 1833 1275 1770 1229 1724 C 1183 1678 1131 1655 1073 1655 C 1033 1655 990 1676 944 1719 C 897 1761 861 1782 837 1782 C 783 1782 738 1741 700 1659 Z" unicode="Õ" />
<glyph horiz-adv-x="1470" d="M 692 -28 C 324 -28 141 179 141 594 C 141 825 208 1041 342 1243 C 476 1445 653 1546 874 1546 C 1046 1546 1179 1492 1273 1386 C 1367 1279 1415 1128 1415 934 C 1415 698 1349 479 1218 276 C 1086 73 911 -28 692 -28 Z M 299 545 C 299 407 333 299 401 221 C 469 143 559 104 671 104 C 845 104 985 195 1093 376 C 1201 556 1255 748 1255 952 C 1255 1086 1219 1196 1148 1282 C 1077 1368 989 1411 884 1411 C 709 1411 568 1319 460 1137 C 352 954 299 757 299 545 Z M 675 1661 L 710 1835 L 884 1835 L 849 1661 L 675 1661 Z M 1084 1661 L 1119 1835 L 1293 1835 L 1259 1661 L 1084 1661 Z" unicode="Ö" />
<glyph horiz-adv-x="1366" d="M 624 739 L 217 1149 L 309 1241 L 717 831 L 1126 1241 L 1218 1147 L 811 739 L 1214 334 L 1122 241 L 717 647 L 311 241 L 219 334 L 624 739 Z" unicode="×" />
<glyph horiz-adv-x="1470" d="M 297 122 L 168 -26 L 92 43 L 233 206 C 171 308 141 438 141 594 C 141 825 208 1041 342 1243 C 476 1445 653 1546 874 1546 C 1038 1546 1168 1496 1262 1398 L 1388 1544 L 1464 1474 L 1326 1314 C 1385 1214 1415 1087 1415 934 C 1415 698 1349 479 1218 276 C 1086 73 911 -28 692 -28 C 524 -28 392 22 297 122 Z M 337 327 L 1155 1274 C 1083 1365 993 1411 884 1411 C 709 1411 568 1319 460 1137 C 352 954 299 757 299 545 C 299 461 311 389 337 327 Z M 391 232 C 459 146 552 104 671 104 C 845 104 985 195 1093 376 C 1201 556 1255 748 1255 952 C 1255 1036 1240 1112 1210 1180 L 391 232 Z" unicode="Ø" />
<glyph horiz-adv-x="1458" d="M 1261 467 C 1199 137 999 -28 663 -28 C 502 -28 380 11 297 91 C 213 171 172 271 172 393 C 172 459 179 532 194 610 L 368 1515 L 522 1515 L 352 643 C 335 557 327 477 327 405 C 327 315 356 242 415 187 C 473 131 555 104 659 104 C 790 104 893 137 968 204 C 1042 271 1094 382 1124 538 L 1308 1515 L 1460 1515 L 1261 467 Z M 1061 1622 L 946 1622 L 686 1952 L 906 1952 L 1061 1622 Z" unicode="Ù" />
<glyph horiz-adv-x="1458" d="M 1261 467 C 1199 137 999 -28 663 -28 C 502 -28 380 11 297 91 C 213 171 172 271 172 393 C 172 459 179 532 194 610 L 368 1515 L 522 1515 L 352 643 C 335 557 327 477 327 405 C 327 315 356 242 415 187 C 473 131 555 104 659 104 C 790 104 893 137 968 204 C 1042 271 1094 382 1124 538 L 1308 1515 L 1460 1515 L 1261 467 Z M 780 1622 L 1061 1952 L 1290 1952 L 909 1622 L 780 1622 Z" unicode="Ú" />
<glyph horiz-adv-x="1458" d="M 1261 467 C 1199 137 999 -28 663 -28 C 502 -28 380 11 297 91 C 213 171 172 271 172 393 C 172 459 179 532 194 610 L 368 1515 L 522 1515 L 352 643 C 335 557 327 477 327 405 C 327 315 356 242 415 187 C 473 131 555 104 659 104 C 790 104 893 137 968 204 C 1042 271 1094 382 1124 538 L 1308 1515 L 1460 1515 L 1261 467 Z M 1069 1942 L 1252 1622 L 1164 1622 L 988 1803 L 725 1622 L 629 1622 L 945 1942 L 1069 1942 Z" unicode="Û" />
<glyph horiz-adv-x="1458" d="M 1261 467 C 1199 137 999 -28 663 -28 C 502 -28 380 11 297 91 C 213 171 172 271 172 393 C 172 459 179 532 194 610 L 368 1515 L 522 1515 L 352 643 C 335 557 327 477 327 405 C 327 315 356 242 415 187 C 473 131 555 104 659 104 C 790 104 893 137 968 204 C 1042 271 1094 382 1124 538 L 1308 1515 L 1460 1515 L 1261 467 Z M 655 1661 L 690 1835 L 864 1835 L 829 1661 L 655 1661 Z M 1064 1661 L 1099 1835 L 1273 1835 L 1239 1661 L 1064 1661 Z" unicode="Ü" />
<glyph horiz-adv-x="1102" d="M 639 612 L 520 0 L 366 0 L 489 637 L 217 1515 L 377 1515 L 594 776 L 1087 1515 L 1255 1515 L 639 612 Z M 631 1622 L 912 1952 L 1141 1952 L 760 1622 L 631 1622 Z" unicode="Ý" />
<glyph horiz-adv-x="1292" d="M 712 344 L 317 344 L 252 0 L 98 0 L 389 1515 L 542 1515 L 477 1175 L 839 1175 C 971 1175 1074 1140 1147 1072 C 1220 1003 1257 913 1257 803 C 1257 669 1210 559 1116 473 C 1022 387 888 344 712 344 Z M 809 1042 L 452 1042 L 342 477 L 708 477 C 833 477 930 505 998 562 C 1066 618 1100 698 1100 801 C 1100 961 1003 1042 809 1042 Z" unicode="Þ" />
<glyph horiz-adv-x="1163" d="M 796 878 C 961 808 1044 675 1044 481 C 1044 343 1001 223 916 122 C 830 21 730 -28 616 -28 C 546 -28 491 -6 450 37 C 409 80 389 137 389 209 C 389 243 390 270 393 291 L 506 291 C 506 215 515 163 534 134 C 552 104 582 90 624 90 C 701 90 766 129 820 208 C 874 287 901 382 901 493 C 901 602 870 686 809 746 C 747 805 661 835 549 837 L 567 944 C 687 946 782 975 852 1033 C 922 1090 958 1158 958 1237 C 958 1294 939 1340 900 1374 C 861 1408 807 1425 739 1425 C 581 1425 485 1337 452 1163 L 231 0 L 86 0 L 313 1179 C 335 1294 385 1384 463 1449 C 541 1513 636 1546 749 1546 C 850 1546 933 1516 999 1457 C 1064 1398 1097 1325 1097 1239 C 1097 1084 996 964 796 878 Z" unicode="ß" />
<glyph horiz-adv-x="1065" d="M 907 614 L 835 258 C 819 177 811 91 811 0 L 676 0 C 668 30 665 71 665 121 C 547 25 442 -22 350 -22 C 263 -22 190 7 132 67 C 74 127 45 200 45 286 C 45 398 95 484 197 546 C 299 608 441 639 624 639 L 770 639 C 779 686 784 728 784 766 C 784 832 763 883 721 920 C 679 956 621 975 547 975 C 469 975 389 934 307 852 L 207 946 C 338 1046 457 1097 565 1097 C 674 1097 761 1067 827 1009 C 893 950 925 874 925 780 C 925 729 919 674 907 614 Z M 645 524 C 341 524 190 447 190 295 C 190 240 208 194 244 157 C 280 120 325 102 377 102 C 465 102 568 147 688 239 L 747 524 L 645 524 Z M 768 1210 L 653 1210 L 393 1540 L 613 1540 L 768 1210 Z" unicode="à" />
<glyph horiz-adv-x="1065" d="M 907 614 L 835 258 C 819 177 811 91 811 0 L 676 0 C 668 30 665 71 665 121 C 547 25 442 -22 350 -22 C 263 -22 190 7 132 67 C 74 127 45 200 45 286 C 45 398 95 484 197 546 C 299 608 441 639 624 639 L 770 639 C 779 686 784 728 784 766 C 784 832 763 883 721 920 C 679 956 621 975 547 975 C 469 975 389 934 307 852 L 207 946 C 338 1046 457 1097 565 1097 C 674 1097 761 1067 827 1009 C 893 950 925 874 925 780 C 925 729 919 674 907 614 Z M 645 524 C 341 524 190 447 190 295 C 190 240 208 194 244 157 C 280 120 325 102 377 102 C 465 102 568 147 688 239 L 747 524 L 645 524 Z M 467 1210 L 748 1540 L 977 1540 L 596 1210 L 467 1210 Z" unicode="á" />
<glyph horiz-adv-x="1065" d="M 907 614 L 835 258 C 819 177 811 91 811 0 L 676 0 C 668 30 665 71 665 121 C 547 25 442 -22 350 -22 C 263 -22 190 7 132 67 C 74 127 45 200 45 286 C 45 398 95 484 197 546 C 299 608 441 639 624 639 L 770 639 C 779 686 784 728 784 766 C 784 832 763 883 721 920 C 679 956 621 975 547 975 C 469 975 389 934 307 852 L 207 946 C 338 1046 457 1097 565 1097 C 674 1097 761 1067 827 1009 C 893 950 925 874 925 780 C 925 729 919 674 907 614 Z M 645 524 C 341 524 190 447 190 295 C 190 240 208 194 244 157 C 280 120 325 102 377 102 C 465 102 568 147 688 239 L 747 524 L 645 524 Z M 759 1530 L 942 1210 L 854 1210 L 678 1391 L 415 1210 L 319 1210 L 635 1530 L 759 1530 Z" unicode="â" />
<glyph horiz-adv-x="1065" d="M 907 614 L 835 258 C 819 177 811 91 811 0 L 676 0 C 668 30 665 71 665 121 C 547 25 442 -22 350 -22 C 263 -22 190 7 132 67 C 74 127 45 200 45 286 C 45 398 95 484 197 546 C 299 608 441 639 624 639 L 770 639 C 779 686 784 728 784 766 C 784 832 763 883 721 920 C 679 956 621 975 547 975 C 469 975 389 934 307 852 L 207 946 C 338 1046 457 1097 565 1097 C 674 1097 761 1067 827 1009 C 893 950 925 874 925 780 C 925 729 919 674 907 614 Z M 645 524 C 341 524 190 447 190 295 C 190 240 208 194 244 157 C 280 120 325 102 377 102 C 465 102 568 147 688 239 L 747 524 L 645 524 Z M 395 1247 L 313 1247 C 329 1326 360 1388 406 1432 C 451 1476 502 1499 559 1499 C 599 1499 644 1478 694 1436 C 743 1393 778 1372 798 1372 C 852 1372 898 1414 938 1499 L 1020 1499 C 1002 1421 970 1358 924 1312 C 878 1266 826 1243 768 1243 C 728 1243 685 1264 639 1307 C 592 1349 556 1370 532 1370 C 478 1370 433 1329 395 1247 Z" unicode="ã" />
<glyph horiz-adv-x="1065" d="M 907 614 L 835 258 C 819 177 811 91 811 0 L 676 0 C 668 30 665 71 665 121 C 547 25 442 -22 350 -22 C 263 -22 190 7 132 67 C 74 127 45 200 45 286 C 45 398 95 484 197 546 C 299 608 441 639 624 639 L 770 639 C 779 686 784 728 784 766 C 784 832 763 883 721 920 C 679 956 621 975 547 975 C 469 975 389 934 307 852 L 207 946 C 338 1046 457 1097 565 1097 C 674 1097 761 1067 827 1009 C 893 950 925 874 925 780 C 925 729 919 674 907 614 Z M 645 524 C 341 524 190 447 190 295 C 190 240 208 194 244 157 C 280 120 325 102 377 102 C 465 102 568 147 688 239 L 747 524 L 645 524 Z M 350 1249 L 385 1423 L 559 1423 L 524 1249 L 350 1249 Z M 759 1249 L 794 1423 L 968 1423 L 934 1249 L 759 1249 Z" unicode="ä" />
<glyph horiz-adv-x="1065" d="M 907 614 L 835 258 C 819 177 811 91 811 0 L 676 0 C 668 30 665 71 665 121 C 547 25 442 -22 350 -22 C 263 -22 190 7 132 67 C 74 127 45 200 45 286 C 45 398 95 484 197 546 C 299 608 441 639 624 639 L 770 639 C 779 686 784 728 784 766 C 784 832 763 883 721 920 C 679 956 621 975 547 975 C 469 975 389 934 307 852 L 207 946 C 338 1046 457 1097 565 1097 C 674 1097 761 1067 827 1009 C 893 950 925 874 925 780 C 925 729 919 674 907 614 Z M 645 524 C 341 524 190 447 190 295 C 190 240 208 194 244 157 C 280 120 325 102 377 102 C 465 102 568 147 688 239 L 747 524 L 645 524 Z M 442 1373 C 442 1429 462 1478 502 1518 C 542 1558 590 1578 646 1578 C 702 1578 750 1558 790 1518 C 829 1478 849 1429 849 1373 C 849 1317 829 1269 789 1230 C 749 1190 702 1171 648 1171 C 590 1171 541 1190 501 1230 C 461 1269 442 1317 442 1373 Z M 781 1373 C 781 1411 768 1444 742 1472 C 715 1499 682 1513 644 1513 C 606 1513 573 1499 547 1473 C 520 1446 507 1413 507 1375 C 507 1336 521 1303 548 1276 C 575 1249 606 1236 642 1236 C 682 1236 716 1250 742 1277 C 768 1303 781 1335 781 1373 Z" unicode="å" />
<glyph horiz-adv-x="1741" d="M 1646 532 L 887 532 L 878 446 C 875 414 881 369 896 311 C 910 252 941 202 987 162 C 1033 122 1092 102 1163 102 C 1294 102 1407 186 1501 356 L 1618 293 C 1491 83 1332 -22 1140 -22 C 970 -22 851 53 783 203 C 617 53 472 -22 350 -22 C 263 -22 190 7 132 67 C 74 127 45 200 45 286 C 45 398 95 484 197 546 C 299 608 441 639 624 639 L 770 639 C 779 686 784 728 784 766 C 784 832 763 883 721 920 C 679 956 621 975 547 975 C 469 975 389 934 307 852 L 207 946 C 338 1046 457 1097 565 1097 C 726 1097 834 1032 890 903 C 991 1032 1118 1097 1272 1097 C 1395 1097 1490 1060 1558 986 C 1625 911 1659 805 1659 669 C 1659 639 1654 593 1646 532 Z M 913 651 L 1511 651 C 1516 672 1519 695 1519 721 C 1519 799 1496 861 1451 907 C 1406 953 1346 977 1272 977 C 1092 977 973 868 913 651 Z M 645 524 C 341 524 190 447 190 295 C 190 240 208 194 244 157 C 280 120 325 102 377 102 C 465 102 568 147 688 239 L 747 524 L 645 524 Z" unicode="æ" />
<glyph horiz-adv-x="1048" d="M 102 -372 L 153 -270 C 213 -304 285 -321 370 -321 C 453 -321 495 -294 495 -241 C 495 -195 439 -172 327 -172 L 444 -17 C 339 0 255 52 193 138 C 130 224 98 331 98 459 C 98 632 148 782 246 908 C 344 1034 467 1097 614 1097 C 812 1097 943 992 1005 784 L 868 758 C 834 904 750 977 616 977 C 513 977 425 926 352 824 C 279 722 243 596 243 446 C 243 340 268 257 320 198 C 372 138 443 108 534 108 C 665 108 762 178 825 319 L 940 268 C 848 79 712 -17 530 -22 L 479 -90 C 579 -100 630 -146 630 -230 C 630 -289 605 -336 555 -371 C 505 -406 444 -424 370 -424 C 269 -424 180 -406 102 -372 Z" unicode="ç" />
<glyph horiz-adv-x="1100" d="M 1005 532 L 246 532 L 237 446 C 234 414 240 369 255 311 C 269 252 300 202 346 162 C 392 122 451 102 522 102 C 653 102 766 186 860 356 L 977 293 C 850 83 691 -22 499 -22 C 376 -22 278 20 206 104 C 133 188 96 303 96 448 C 96 630 146 784 246 910 C 346 1035 474 1097 631 1097 C 754 1097 849 1059 917 985 C 984 911 1018 805 1018 669 C 1018 639 1013 593 1005 532 Z M 272 651 L 870 651 C 875 672 878 695 878 721 C 878 799 856 861 811 907 C 765 953 705 977 631 977 C 451 977 332 868 272 651 Z M 840 1210 L 725 1210 L 465 1540 L 685 1540 L 840 1210 Z" unicode="è" />
<glyph horiz-adv-x="1100" d="M 1005 532 L 246 532 L 237 446 C 234 414 240 369 255 311 C 269 252 300 202 346 162 C 392 122 451 102 522 102 C 653 102 766 186 860 356 L 977 293 C 850 83 691 -22 499 -22 C 376 -22 278 20 206 104 C 133 188 96 303 96 448 C 96 630 146 784 246 910 C 346 1035 474 1097 631 1097 C 754 1097 849 1059 917 985 C 984 911 1018 805 1018 669 C 1018 639 1013 593 1005 532 Z M 272 651 L 870 651 C 875 672 878 695 878 721 C 878 799 856 861 811 907 C 765 953 705 977 631 977 C 451 977 332 868 272 651 Z M 498 1210 L 779 1540 L 1008 1540 L 627 1210 L 498 1210 Z" unicode="é" />
<glyph horiz-adv-x="1100" d="M 1005 532 L 246 532 L 237 446 C 234 414 240 369 255 311 C 269 252 300 202 346 162 C 392 122 451 102 522 102 C 653 102 766 186 860 356 L 977 293 C 850 83 691 -22 499 -22 C 376 -22 278 20 206 104 C 133 188 96 303 96 448 C 96 630 146 784 246 910 C 346 1035 474 1097 631 1097 C 754 1097 849 1059 917 985 C 984 911 1018 805 1018 669 C 1018 639 1013 593 1005 532 Z M 272 651 L 870 651 C 875 672 878 695 878 721 C 878 799 856 861 811 907 C 765 953 705 977 631 977 C 451 977 332 868 272 651 Z M 800 1530 L 983 1210 L 895 1210 L 719 1391 L 456 1210 L 360 1210 L 676 1530 L 800 1530 Z" unicode="ê" />
<glyph horiz-adv-x="1100" d="M 1005 532 L 246 532 L 237 446 C 234 414 240 369 255 311 C 269 252 300 202 346 162 C 392 122 451 102 522 102 C 653 102 766 186 860 356 L 977 293 C 850 83 691 -22 499 -22 C 376 -22 278 20 206 104 C 133 188 96 303 96 448 C 96 630 146 784 246 910 C 346 1035 474 1097 631 1097 C 754 1097 849 1059 917 985 C 984 911 1018 805 1018 669 C 1018 639 1013 593 1005 532 Z M 272 651 L 870 651 C 875 672 878 695 878 721 C 878 799 856 861 811 907 C 765 953 705 977 631 977 C 451 977 332 868 272 651 Z M 391 1249 L 426 1423 L 600 1423 L 565 1249 L 391 1249 Z M 800 1249 L 835 1423 L 1009 1423 L 975 1249 L 800 1249 Z" unicode="ë" />
<glyph horiz-adv-x="524" d="M 229 0 L 86 0 L 295 1075 L 438 1075 L 229 0 Z M 487 1331 L 487 1331 Z M 344 1331 L 344 1331 Z M 379 1515 L 379 1515 Z M 522 1515 L 522 1515 Z M 520 1210 L 405 1210 L 145 1540 L 365 1540 L 520 1210 Z" unicode="ì" />
<glyph horiz-adv-x="524" d="M 229 0 L 86 0 L 295 1075 L 438 1075 L 229 0 Z M 487 1331 L 487 1331 Z M 344 1331 L 344 1331 Z M 379 1515 L 379 1515 Z M 522 1515 L 522 1515 Z M 262 1210 L 543 1540 L 772 1540 L 391 1210 L 262 1210 Z" unicode="í" />
<glyph horiz-adv-x="524" d="M 229 0 L 86 0 L 295 1075 L 438 1075 L 229 0 Z M 487 1331 L 487 1331 Z M 344 1331 L 344 1331 Z M 379 1515 L 379 1515 Z M 522 1515 L 522 1515 Z M 497 1530 L 680 1210 L 592 1210 L 416 1391 L 153 1210 L 57 1210 L 373 1530 L 497 1530 Z" unicode="î" />
<glyph horiz-adv-x="524" d="M 229 0 L 86 0 L 295 1075 L 438 1075 L 229 0 Z M 487 1331 L 487 1331 Z M 344 1331 L 344 1331 Z M 379 1515 L 379 1515 Z M 522 1515 L 522 1515 Z M 102 1249 L 137 1423 L 311 1423 L 276 1249 L 102 1249 Z M 511 1249 L 546 1423 L 720 1423 L 686 1249 L 511 1249 Z" unicode="ï" />
<glyph horiz-adv-x="1110" d="M 854 1329 C 948 1111 995 894 995 680 C 995 470 947 300 850 171 C 753 42 631 -22 483 -22 C 367 -22 274 19 206 104 C 137 188 102 304 102 450 C 102 632 152 786 253 912 C 354 1037 476 1100 620 1100 C 720 1100 800 1052 858 958 C 846 1060 814 1170 762 1286 L 506 1167 L 467 1247 L 723 1366 C 696 1416 666 1465 633 1515 L 745 1515 L 811 1409 L 971 1485 L 1009 1401 L 854 1329 Z M 246 438 C 246 332 268 249 313 187 C 358 125 417 94 491 94 C 587 94 671 148 743 256 C 815 364 852 491 852 637 C 852 741 829 825 783 887 C 737 949 679 981 608 981 C 511 981 426 927 354 820 C 282 713 246 586 246 438 Z" unicode="ð" />
<glyph horiz-adv-x="1171" d="M 1028 727 L 889 0 L 741 0 L 872 671 C 880 712 884 754 884 796 C 884 848 868 888 838 918 C 807 948 766 962 715 962 C 606 962 493 889 377 743 L 231 0 L 86 0 L 297 1075 L 426 1075 L 391 893 C 508 1029 629 1097 753 1097 C 836 1097 904 1070 956 1016 C 1008 962 1034 891 1034 803 C 1034 773 1032 747 1028 727 Z M 498 1247 L 416 1247 C 432 1326 463 1388 509 1432 C 554 1476 605 1499 662 1499 C 702 1499 747 1478 797 1436 C 846 1393 881 1372 901 1372 C 955 1372 1001 1414 1041 1499 L 1123 1499 C 1105 1421 1073 1358 1027 1312 C 981 1266 929 1243 871 1243 C 831 1243 788 1264 742 1307 C 695 1349 659 1370 635 1370 C 581 1370 536 1329 498 1247 Z" unicode="ñ" />
<glyph horiz-adv-x="1110" d="M 104 444 C 104 628 154 783 255 909 C 356 1034 479 1097 624 1097 C 740 1097 832 1054 900 968 C 968 882 1003 768 1003 626 C 1003 449 952 297 851 169 C 750 41 629 -22 487 -22 C 369 -22 275 19 207 103 C 138 187 104 300 104 444 Z M 248 420 C 248 324 271 247 317 189 C 363 131 422 102 493 102 C 593 102 679 155 751 263 C 823 371 860 499 860 647 C 860 747 837 827 791 885 C 745 943 684 973 610 973 C 513 973 428 919 356 811 C 284 703 248 572 248 420 Z M 829 1209 L 714 1209 L 454 1539 L 674 1539 L 829 1209 Z" unicode="ò" />
<glyph horiz-adv-x="1110" d="M 104 444 C 104 628 154 783 255 909 C 356 1034 479 1097 624 1097 C 740 1097 832 1054 900 968 C 968 882 1003 768 1003 626 C 1003 449 952 297 851 169 C 750 41 629 -22 487 -22 C 369 -22 275 19 207 103 C 138 187 104 300 104 444 Z M 248 420 C 248 324 271 247 317 189 C 363 131 422 102 493 102 C 593 102 679 155 751 263 C 823 371 860 499 860 647 C 860 747 837 827 791 885 C 745 943 684 973 610 973 C 513 973 428 919 356 811 C 284 703 248 572 248 420 Z M 518 1210 L 799 1540 L 1028 1540 L 647 1210 L 518 1210 Z" unicode="ó" />
<glyph horiz-adv-x="1110" d="M 104 444 C 104 628 154 783 255 909 C 356 1034 479 1097 624 1097 C 740 1097 832 1054 900 968 C 968 882 1003 768 1003 626 C 1003 449 952 297 851 169 C 750 41 629 -22 487 -22 C 369 -22 275 19 207 103 C 138 187 104 300 104 444 Z M 248 420 C 248 324 271 247 317 189 C 363 131 422 102 493 102 C 593 102 679 155 751 263 C 823 371 860 499 860 647 C 860 747 837 827 791 885 C 745 943 684 973 610 973 C 513 973 428 919 356 811 C 284 703 248 572 248 420 Z M 800 1530 L 983 1210 L 895 1210 L 719 1391 L 456 1210 L 360 1210 L 676 1530 L 800 1530 Z" unicode="ô" />
<glyph horiz-adv-x="1110" d="M 104 444 C 104 628 154 783 255 909 C 356 1034 479 1097 624 1097 C 740 1097 832 1054 900 968 C 968 882 1003 768 1003 626 C 1003 449 952 297 851 169 C 750 41 629 -22 487 -22 C 369 -22 275 19 207 103 C 138 187 104 300 104 444 Z M 248 420 C 248 324 271 247 317 189 C 363 131 422 102 493 102 C 593 102 679 155 751 263 C 823 371 860 499 860 647 C 860 747 837 827 791 885 C 745 943 684 973 610 973 C 513 973 428 919 356 811 C 284 703 248 572 248 420 Z M 416 1247 L 334 1247 C 350 1326 381 1388 427 1432 C 472 1476 523 1499 580 1499 C 620 1499 665 1478 715 1436 C 764 1393 799 1372 819 1372 C 873 1372 919 1414 959 1499 L 1041 1499 C 1023 1421 991 1358 945 1312 C 899 1266 847 1243 789 1243 C 749 1243 706 1264 660 1307 C 613 1349 577 1370 553 1370 C 499 1370 454 1329 416 1247 Z" unicode="õ" />
<glyph horiz-adv-x="1110" d="M 104 444 C 104 628 154 783 255 909 C 356 1034 479 1097 624 1097 C 740 1097 832 1054 900 968 C 968 882 1003 768 1003 626 C 1003 449 952 297 851 169 C 750 41 629 -22 487 -22 C 369 -22 275 19 207 103 C 138 187 104 300 104 444 Z M 248 420 C 248 324 271 247 317 189 C 363 131 422 102 493 102 C 593 102 679 155 751 263 C 823 371 860 499 860 647 C 860 747 837 827 791 885 C 745 943 684 973 610 973 C 513 973 428 919 356 811 C 284 703 248 572 248 420 Z M 391 1249 L 426 1423 L 600 1423 L 565 1249 L 391 1249 Z M 800 1249 L 835 1423 L 1009 1423 L 975 1249 L 800 1249 Z" unicode="ö" />
<glyph horiz-adv-x="1366" d="M 643 1079 L 643 1257 L 801 1257 L 801 1079 L 643 1079 Z M 178 696 L 178 821 L 1265 821 L 1265 696 L 178 696 Z M 643 260 L 643 438 L 801 438 L 801 260 L 643 260 Z" unicode="÷" />
<glyph horiz-adv-x="1110" d="M 236 72 L 137 -45 L 61 24 L 172 155 C 126 233 104 329 104 444 C 104 628 154 783 255 909 C 356 1034 479 1097 624 1097 C 728 1097 813 1061 881 991 L 971 1097 L 1046 1028 L 942 905 C 982 827 1003 734 1003 626 C 1003 449 952 297 851 169 C 750 41 629 -22 487 -22 C 385 -22 302 9 236 72 Z M 272 273 L 791 885 C 745 943 684 973 610 973 C 513 973 428 919 356 811 C 284 703 248 572 248 420 C 248 365 256 316 272 273 Z M 327 179 C 372 127 427 102 493 102 C 593 102 679 155 751 263 C 823 371 860 499 860 647 C 860 698 853 744 841 786 L 327 179 Z" unicode="ø" />
<glyph horiz-adv-x="1171" d="M 874 0 L 743 0 L 778 186 C 658 47 537 -22 415 -22 C 335 -22 269 3 217 57 C 165 110 139 184 139 278 C 139 322 143 367 153 415 L 286 1075 L 430 1075 L 303 424 C 290 360 284 308 284 266 C 284 219 299 182 329 155 C 359 127 399 114 450 114 C 554 114 669 189 794 340 L 938 1075 L 1081 1075 L 874 0 Z M 840 1210 L 725 1210 L 465 1540 L 685 1540 L 840 1210 Z" unicode="ù" />
<glyph horiz-adv-x="1171" d="M 874 0 L 743 0 L 778 186 C 658 47 537 -22 415 -22 C 335 -22 269 3 217 57 C 165 110 139 184 139 278 C 139 322 143 367 153 415 L 286 1075 L 430 1075 L 303 424 C 290 360 284 308 284 266 C 284 219 299 182 329 155 C 359 127 399 114 450 114 C 554 114 669 189 794 340 L 938 1075 L 1081 1075 L 874 0 Z M 539 1210 L 820 1540 L 1049 1540 L 668 1210 L 539 1210 Z" unicode="ú" />
<glyph horiz-adv-x="1171" d="M 874 0 L 743 0 L 778 186 C 658 47 537 -22 415 -22 C 335 -22 269 3 217 57 C 165 110 139 184 139 278 C 139 322 143 367 153 415 L 286 1075 L 430 1075 L 303 424 C 290 360 284 308 284 266 C 284 219 299 182 329 155 C 359 127 399 114 450 114 C 554 114 669 189 794 340 L 938 1075 L 1081 1075 L 874 0 Z M 827 1530 L 1010 1210 L 922 1210 L 746 1391 L 483 1210 L 387 1210 L 703 1530 L 827 1530 Z" unicode="û" />
<glyph horiz-adv-x="1171" d="M 874 0 L 743 0 L 778 186 C 658 47 537 -22 415 -22 C 335 -22 269 3 217 57 C 165 110 139 184 139 278 C 139 322 143 367 153 415 L 286 1075 L 430 1075 L 303 424 C 290 360 284 308 284 266 C 284 219 299 182 329 155 C 359 127 399 114 450 114 C 554 114 669 189 794 340 L 938 1075 L 1081 1075 L 874 0 Z M 424 1249 L 459 1423 L 633 1423 L 598 1249 L 424 1249 Z M 833 1249 L 868 1423 L 1042 1423 L 1008 1249 L 833 1249 Z" unicode="ü" />
<glyph horiz-adv-x="940" d="M 366 -166 C 276 -343 164 -432 30 -432 C -17 -432 -62 -421 -106 -401 L -82 -274 C -39 -290 -2 -299 30 -299 C 127 -299 217 -206 299 -22 L 123 1075 L 276 1075 L 397 166 L 829 1075 L 993 1075 L 366 -166 Z M 432 1210 L 713 1540 L 942 1540 L 561 1210 L 432 1210 Z" unicode="ý" />
<glyph horiz-adv-x="1179" d="M 252 110 L 147 -432 L 4 -432 L 379 1515 L 522 1515 L 420 966 C 508 1055 605 1100 712 1100 C 832 1100 923 1062 986 986 C 1049 910 1081 801 1081 659 C 1081 463 1032 300 933 170 C 833 40 710 -24 563 -24 C 467 -24 364 20 252 110 Z M 282 266 C 360 152 451 96 555 96 C 659 96 749 151 824 260 C 898 368 936 500 936 655 C 936 759 914 839 871 896 C 827 952 766 981 688 981 C 620 981 554 956 490 908 C 426 859 390 816 383 780 L 282 266 Z" unicode="þ" />
<glyph horiz-adv-x="940" d="M 366 -166 C 276 -343 164 -432 30 -432 C -17 -432 -62 -421 -106 -401 L -82 -274 C -39 -290 -2 -299 30 -299 C 127 -299 217 -206 299 -22 L 123 1075 L 276 1075 L 397 166 L 829 1075 L 993 1075 L 366 -166 Z M 292 1249 L 327 1423 L 501 1423 L 466 1249 L 292 1249 Z M 701 1249 L 736 1423 L 910 1423 L 876 1249 L 701 1249 Z" unicode="ÿ" />
<glyph horiz-adv-x="1292" d="M 1018 0 L 944 456 L 327 456 L 102 0 L -57 0 L 700 1515 L 927 1515 L 1173 0 L 1018 0 Z M 796 1419 L 391 590 L 925 590 L 796 1419 Z M 532 1721 L 557 1846 L 1149 1846 L 1124 1721 L 532 1721 Z" unicode="Ā" />
<glyph horiz-adv-x="1065" d="M 909 614 L 837 258 C 821 177 813 91 813 0 L 678 0 C 670 30 667 71 667 121 C 549 25 444 -22 352 -22 C 265 -22 192 7 134 67 C 76 127 47 200 47 286 C 47 398 97 484 199 546 C 301 608 443 639 626 639 L 772 639 C 781 686 786 728 786 766 C 786 832 765 883 723 920 C 681 956 623 975 549 975 C 471 975 391 934 309 852 L 209 946 C 340 1046 459 1097 567 1097 C 676 1097 763 1067 829 1009 C 895 950 927 874 927 780 C 927 729 921 674 909 614 Z M 647 524 C 343 524 192 447 192 295 C 192 240 210 194 246 157 C 282 120 327 102 379 102 C 467 102 570 147 690 239 L 749 524 L 647 524 Z M 330 1310 L 355 1435 L 947 1435 L 922 1310 L 330 1310 Z" unicode="ā" />
<glyph horiz-adv-x="1292" d="M 1018 0 L 944 456 L 327 456 L 102 0 L -57 0 L 700 1515 L 927 1515 L 1173 0 L 1018 0 Z M 796 1419 L 391 590 L 925 590 L 796 1419 Z M 1057 1911 L 1162 1911 C 1076 1740 954 1655 795 1655 C 733 1655 677 1678 629 1725 C 581 1771 551 1833 539 1911 L 633 1911 C 660 1837 723 1801 822 1801 C 922 1801 1000 1837 1057 1911 Z" unicode="Ă" />
<glyph horiz-adv-x="1065" d="M 909 614 L 837 258 C 821 177 813 91 813 0 L 678 0 C 670 30 667 71 667 121 C 549 25 444 -22 352 -22 C 265 -22 192 7 134 67 C 76 127 47 200 47 286 C 47 398 97 484 199 546 C 301 608 443 639 626 639 L 772 639 C 781 686 786 728 786 766 C 786 832 765 883 723 920 C 681 956 623 975 549 975 C 471 975 391 934 309 852 L 209 946 C 340 1046 459 1097 567 1097 C 676 1097 763 1067 829 1009 C 895 950 927 874 927 780 C 927 729 921 674 909 614 Z M 647 524 C 343 524 192 447 192 295 C 192 240 210 194 246 157 C 282 120 327 102 379 102 C 467 102 570 147 690 239 L 749 524 L 647 524 Z M 890 1499 L 995 1499 C 909 1328 787 1243 628 1243 C 566 1243 510 1266 462 1313 C 414 1359 384 1421 372 1499 L 466 1499 C 493 1425 556 1389 655 1389 C 755 1389 833 1425 890 1499 Z" unicode="ă" />
<glyph horiz-adv-x="1292" d="M 1133 0 C 1099 -64 1083 -117 1083 -158 C 1083 -232 1116 -270 1183 -270 C 1247 -270 1312 -252 1376 -217 L 1353 -336 C 1273 -380 1198 -403 1126 -403 C 1069 -403 1024 -386 990 -354 C 956 -322 940 -283 940 -237 C 940 -171 966 -92 1018 0 L 944 457 L 328 457 L 103 0 L -57 0 L 701 1515 L 928 1515 L 1174 0 L 1133 0 Z M 926 590 L 797 1419 L 392 590 L 926 590 Z" unicode="Ą" />
<glyph horiz-adv-x="1065" d="M 796 0 C 758 -50 739 -104 739 -162 C 739 -234 772 -270 839 -270 C 903 -270 968 -252 1032 -217 L 1009 -336 C 930 -380 854 -403 782 -403 C 726 -403 681 -386 647 -354 C 613 -322 596 -283 596 -237 C 596 -168 622 -89 676 0 C 669 22 666 63 666 121 C 550 25 444 -22 350 -22 C 264 -22 192 7 134 67 C 76 127 47 200 47 287 C 47 399 98 485 201 547 C 303 608 445 639 625 639 L 770 639 C 779 690 784 733 784 767 C 784 832 762 883 719 919 C 676 955 622 973 558 973 C 473 973 389 932 307 852 L 215 938 C 327 1044 446 1097 574 1097 C 676 1097 761 1067 828 1007 C 894 947 928 873 928 785 C 928 739 921 682 907 614 L 836 258 C 819 176 811 90 811 0 L 796 0 Z M 747 524 L 645 524 C 341 524 190 447 190 295 C 190 240 208 194 244 157 C 280 120 324 102 376 102 C 463 102 567 148 688 240 L 747 524 Z" unicode="ą" />
<glyph horiz-adv-x="1323" d="M 1216 1083 C 1177 1301 1056 1411 854 1411 C 708 1411 581 1335 471 1183 C 361 1031 307 844 307 620 C 307 458 341 332 410 241 C 478 149 572 104 690 104 C 855 104 989 192 1091 370 L 1220 309 C 1077 84 896 -28 678 -28 C 515 -28 386 28 290 143 C 194 258 147 415 147 614 C 147 861 214 1078 346 1265 C 478 1452 650 1546 860 1546 C 986 1546 1095 1508 1185 1432 C 1275 1356 1333 1252 1358 1120 L 1216 1083 Z M 753 1618 L 1034 1948 L 1263 1948 L 882 1618 L 753 1618 Z" unicode="Ć" />
<glyph horiz-adv-x="1048" d="M 868 758 C 834 904 750 977 616 977 C 513 977 425 926 352 824 C 279 722 243 596 243 446 C 243 340 268 257 320 198 C 372 138 443 108 534 108 C 665 108 762 178 825 319 L 940 268 C 846 74 705 -22 516 -22 C 391 -22 290 22 214 111 C 137 200 98 316 98 459 C 98 632 148 782 246 908 C 344 1034 467 1097 614 1097 C 812 1097 943 992 1005 784 L 868 758 Z M 521 1210 L 802 1540 L 1031 1540 L 650 1210 L 521 1210 Z" unicode="ć" />
<glyph horiz-adv-x="1323" d="M 1216 1083 C 1177 1301 1056 1411 854 1411 C 708 1411 581 1335 471 1183 C 361 1031 307 844 307 620 C 307 458 341 332 410 241 C 478 149 572 104 690 104 C 855 104 989 192 1091 370 L 1220 309 C 1077 84 896 -28 678 -28 C 515 -28 386 28 290 143 C 194 258 147 415 147 614 C 147 861 214 1078 346 1265 C 478 1452 650 1546 860 1546 C 986 1546 1095 1508 1185 1432 C 1275 1356 1333 1252 1358 1120 L 1216 1083 Z M 1023 1942 L 1206 1622 L 1118 1622 L 942 1803 L 679 1622 L 583 1622 L 899 1942 L 1023 1942 Z" unicode="Ĉ" />
<glyph horiz-adv-x="1048" d="M 868 758 C 834 904 750 977 616 977 C 513 977 425 926 352 824 C 279 722 243 596 243 446 C 243 340 268 257 320 198 C 372 138 443 108 534 108 C 665 108 762 178 825 319 L 940 268 C 846 74 705 -22 516 -22 C 391 -22 290 22 214 111 C 137 200 98 316 98 459 C 98 632 148 782 246 908 C 344 1034 467 1097 614 1097 C 812 1097 943 992 1005 784 L 868 758 Z M 775 1530 L 958 1210 L 870 1210 L 694 1391 L 431 1210 L 335 1210 L 651 1530 L 775 1530 Z" unicode="ĉ" />
<glyph horiz-adv-x="1323" d="M 1216 1084 C 1177 1302 1056 1412 854 1412 C 708 1412 581 1336 471 1184 C 361 1032 307 845 307 621 C 307 459 341 333 410 242 C 478 150 572 105 690 105 C 855 105 989 193 1091 371 L 1220 310 C 1077 85 896 -27 678 -27 C 515 -27 386 29 290 144 C 194 259 147 416 147 615 C 147 862 214 1079 346 1266 C 478 1453 650 1547 860 1547 C 986 1547 1095 1509 1185 1433 C 1275 1357 1333 1253 1358 1121 L 1216 1084 Z M 786 1677 L 825 1871 L 993 1871 L 954 1677 L 786 1677 Z" unicode="Ċ" />
<glyph horiz-adv-x="1048" d="M 870 758 C 836 904 752 977 618 977 C 515 977 427 926 354 824 C 281 722 245 596 245 446 C 245 340 270 257 322 198 C 374 138 445 108 536 108 C 667 108 764 178 827 319 L 942 268 C 848 74 707 -22 518 -22 C 393 -22 292 22 216 111 C 139 200 100 316 100 459 C 100 632 150 782 248 908 C 346 1034 469 1097 616 1097 C 814 1097 945 992 1007 784 L 870 758 Z M 538 1266 L 577 1460 L 745 1460 L 706 1266 L 538 1266 Z" unicode="ċ" />
<glyph horiz-adv-x="1323" d="M 1216 1083 C 1177 1301 1056 1411 854 1411 C 708 1411 581 1335 471 1183 C 361 1031 307 844 307 620 C 307 458 341 332 410 241 C 478 149 572 104 690 104 C 855 104 989 192 1091 370 L 1220 309 C 1077 84 896 -28 678 -28 C 515 -28 386 28 290 143 C 194 258 147 415 147 614 C 147 861 214 1078 346 1265 C 478 1452 650 1546 860 1546 C 986 1546 1095 1508 1185 1432 C 1275 1356 1333 1252 1358 1120 L 1216 1083 Z M 849 1618 L 667 1938 L 753 1938 L 931 1760 L 1193 1938 L 1289 1938 L 974 1618 L 849 1618 Z" unicode="Č" />
<glyph horiz-adv-x="1048" d="M 868 758 C 834 904 750 977 616 977 C 513 977 425 926 352 824 C 279 722 243 596 243 446 C 243 340 268 257 320 198 C 372 138 443 108 534 108 C 665 108 762 178 825 319 L 940 268 C 846 74 705 -22 516 -22 C 391 -22 290 22 214 111 C 137 200 98 316 98 459 C 98 632 148 782 246 908 C 344 1034 467 1097 614 1097 C 812 1097 943 992 1005 784 L 868 758 Z M 633 1210 L 451 1530 L 537 1530 L 715 1352 L 977 1530 L 1073 1530 L 758 1210 L 633 1210 Z" unicode="č" />
<glyph horiz-adv-x="1407" d="M 491 0 L 98 0 L 393 1515 L 710 1515 C 912 1515 1066 1456 1174 1337 C 1281 1218 1335 1057 1335 854 C 1335 593 1259 385 1107 231 C 955 77 749 0 491 0 Z M 725 1382 L 520 1382 L 276 133 L 459 133 C 689 133 866 194 990 317 C 1113 439 1175 619 1175 856 C 1175 1017 1134 1145 1052 1240 C 970 1335 861 1382 725 1382 Z M 686 1622 L 504 1942 L 590 1942 L 768 1764 L 1030 1942 L 1126 1942 L 811 1622 L 686 1622 Z" unicode="Ď" />
<glyph horiz-adv-x="1332" d="M 891 0 L 762 0 L 782 129 C 720 68 666 28 619 8 C 572 -12 520 -22 463 -22 C 355 -22 266 19 198 103 C 130 186 96 300 96 446 C 96 638 143 794 239 915 C 335 1036 455 1097 600 1097 C 709 1097 819 1050 930 956 L 1038 1515 L 1181 1515 L 891 0 Z M 798 272 L 905 819 C 823 923 725 975 610 975 C 502 975 413 923 344 820 C 275 717 241 592 241 446 C 241 341 264 257 311 194 C 358 131 420 100 497 100 C 613 100 714 157 798 272 Z M 1404 1350 L 1306 1350 L 1351 1544 L 1558 1544 L 1513 1354 L 1293 1092 L 1207 1092 L 1404 1350 Z" unicode="ď" />
<glyph horiz-adv-x="1407" d="M 257 817 L 393 1515 L 710 1515 C 912 1515 1066 1456 1174 1337 C 1281 1218 1335 1057 1335 854 C 1335 593 1259 385 1107 231 C 955 77 749 0 491 0 L 98 0 L 234 696 L 55 696 L 78 817 L 257 817 Z M 735 817 L 712 696 L 386 696 L 276 133 L 459 133 C 689 133 866 194 990 317 C 1113 439 1175 619 1175 856 C 1175 1017 1134 1145 1052 1240 C 970 1335 861 1382 725 1382 L 520 1382 L 410 817 L 735 817 Z" unicode="Đ" />
<glyph horiz-adv-x="1179" d="M 1181 1515 L 1159 1401 L 1291 1401 L 1267 1278 L 1136 1278 L 891 0 L 762 0 L 782 129 C 720 68 666 28 619 8 C 572 -12 520 -22 463 -22 C 355 -22 266 19 198 103 C 130 186 96 300 96 446 C 96 638 143 794 239 915 C 335 1036 455 1097 600 1097 C 709 1097 819 1050 930 956 L 992 1278 L 698 1278 L 722 1401 L 1016 1401 L 1038 1515 L 1181 1515 Z M 905 819 C 823 923 725 975 610 975 C 502 975 413 923 344 820 C 275 717 241 592 241 446 C 241 341 264 257 311 194 C 358 131 420 100 497 100 C 613 100 714 157 798 272 L 905 819 Z" unicode="đ" />
<glyph horiz-adv-x="1161" d="M 1229 1382 L 520 1382 L 418 858 L 991 858 L 966 725 L 393 725 L 276 133 L 1040 133 L 1016 0 L 98 0 L 393 1515 L 1255 1515 L 1229 1382 Z M 540 1721 L 565 1846 L 1157 1846 L 1132 1721 L 540 1721 Z" unicode="Ē" />
<glyph horiz-adv-x="1100" d="M 1005 532 L 246 532 L 237 446 C 234 414 240 369 255 311 C 269 252 300 202 346 162 C 392 122 451 102 522 102 C 653 102 766 186 860 356 L 977 293 C 850 83 691 -22 499 -22 C 376 -22 278 20 206 104 C 133 188 96 303 96 448 C 96 630 146 784 246 910 C 346 1035 474 1097 631 1097 C 754 1097 849 1059 917 985 C 984 911 1018 805 1018 669 C 1018 639 1013 593 1005 532 Z M 272 651 L 870 651 C 875 672 878 695 878 721 C 878 799 856 861 811 907 C 765 953 705 977 631 977 C 451 977 332 868 272 651 Z M 346 1310 L 371 1435 L 963 1435 L 938 1310 L 346 1310 Z" unicode="ē" />
<glyph horiz-adv-x="1161" d="M 1229 1382 L 520 1382 L 418 858 L 991 858 L 966 725 L 393 725 L 276 133 L 1040 133 L 1016 0 L 98 0 L 393 1515 L 1255 1515 L 1229 1382 Z M 1065 1911 L 1170 1911 C 1084 1740 962 1655 803 1655 C 741 1655 685 1678 637 1725 C 589 1771 559 1833 547 1911 L 641 1911 C 668 1837 731 1801 830 1801 C 930 1801 1008 1837 1065 1911 Z" unicode="Ĕ" />
<glyph horiz-adv-x="1100" d="M 1005 532 L 246 532 L 237 446 C 234 414 240 369 255 311 C 269 252 300 202 346 162 C 392 122 451 102 522 102 C 653 102 766 186 860 356 L 977 293 C 850 83 691 -22 499 -22 C 376 -22 278 20 206 104 C 133 188 96 303 96 448 C 96 630 146 784 246 910 C 346 1035 474 1097 631 1097 C 754 1097 849 1059 917 985 C 984 911 1018 805 1018 669 C 1018 639 1013 593 1005 532 Z M 272 651 L 870 651 C 875 672 878 695 878 721 C 878 799 856 861 811 907 C 765 953 705 977 631 977 C 451 977 332 868 272 651 Z M 884 1499 L 989 1499 C 903 1328 781 1243 622 1243 C 560 1243 504 1266 456 1313 C 408 1359 378 1421 366 1499 L 460 1499 C 487 1425 550 1389 649 1389 C 749 1389 827 1425 884 1499 Z" unicode="ĕ" />
<glyph horiz-adv-x="1161" d="M 1229 1382 L 520 1382 L 418 858 L 991 858 L 966 725 L 393 725 L 276 133 L 1040 133 L 1016 0 L 98 0 L 393 1515 L 1255 1515 L 1229 1382 Z M 768 1677 L 807 1871 L 975 1871 L 936 1677 L 768 1677 Z" unicode="Ė" />
<glyph horiz-adv-x="1100" d="M 1005 532 L 246 532 L 237 446 C 234 414 240 369 255 311 C 269 252 300 202 346 162 C 392 122 451 102 522 102 C 653 102 766 186 860 356 L 977 293 C 850 83 691 -22 499 -22 C 376 -22 278 20 206 104 C 133 188 96 303 96 448 C 96 630 146 784 246 910 C 346 1035 474 1097 631 1097 C 754 1097 849 1059 917 985 C 984 911 1018 805 1018 669 C 1018 639 1013 593 1005 532 Z M 272 651 L 870 651 C 875 672 878 695 878 721 C 878 799 856 861 811 907 C 765 953 705 977 631 977 C 451 977 332 868 272 651 Z M 571 1266 L 610 1460 L 778 1460 L 739 1266 L 571 1266 Z" unicode="ė" />
<glyph horiz-adv-x="1161" d="M 705 0 C 667 -57 649 -109 649 -157 C 649 -232 682 -270 750 -270 C 814 -270 878 -252 942 -217 L 920 -336 C 840 -380 764 -403 692 -403 C 636 -403 591 -386 557 -354 C 523 -322 506 -283 506 -237 C 506 -167 533 -88 587 0 L 98 0 L 393 1515 L 1255 1515 L 1229 1382 L 520 1382 L 417 858 L 991 858 L 966 725 L 393 725 L 276 133 L 1040 133 L 1015 0 L 705 0 Z" unicode="Ę" />
<glyph horiz-adv-x="1100" d="M 606 -11 C 572 -62 556 -110 556 -155 C 556 -231 589 -270 657 -270 C 721 -270 785 -252 849 -217 L 827 -336 C 747 -380 671 -403 599 -403 C 543 -403 498 -386 464 -354 C 430 -322 413 -283 413 -238 C 413 -172 435 -100 481 -21 C 390 -9 320 12 270 44 C 220 76 179 127 146 197 C 112 267 96 350 96 448 C 96 630 146 783 247 909 C 347 1034 475 1097 631 1097 C 755 1097 850 1059 918 983 C 986 907 1020 803 1020 673 C 1020 643 1015 595 1005 530 L 245 530 C 241 487 239 456 239 436 C 239 339 264 259 314 196 C 364 133 434 102 522 102 C 653 102 766 186 860 356 L 977 293 C 873 122 749 21 606 -11 Z M 272 653 L 870 653 C 874 673 877 689 877 703 C 877 779 856 843 814 895 C 772 947 711 973 629 973 C 452 973 333 866 272 653 Z" unicode="ę" />
<glyph horiz-adv-x="1161" d="M 1229 1382 L 520 1382 L 418 858 L 991 858 L 966 725 L 393 725 L 276 133 L 1040 133 L 1016 0 L 98 0 L 393 1515 L 1255 1515 L 1229 1382 Z M 776 1622 L 594 1942 L 680 1942 L 858 1764 L 1120 1942 L 1216 1942 L 901 1622 L 776 1622 Z" unicode="Ě" />
<glyph horiz-adv-x="1100" d="M 1005 532 L 246 532 L 237 446 C 234 414 240 369 255 311 C 269 252 300 202 346 162 C 392 122 451 102 522 102 C 653 102 766 186 860 356 L 977 293 C 850 83 691 -22 499 -22 C 376 -22 278 20 206 104 C 133 188 96 303 96 448 C 96 630 146 784 246 910 C 346 1035 474 1097 631 1097 C 754 1097 849 1059 917 985 C 984 911 1018 805 1018 669 C 1018 639 1013 593 1005 532 Z M 272 651 L 870 651 C 875 672 878 695 878 721 C 878 799 856 861 811 907 C 765 953 705 977 631 977 C 451 977 332 868 272 651 Z M 569 1210 L 387 1530 L 473 1530 L 651 1352 L 913 1530 L 1009 1530 L 694 1210 L 569 1210 Z" unicode="ě" />
<glyph horiz-adv-x="1470" d="M 1214 0 L 1083 0 L 1114 170 C 1002 38 860 -28 690 -28 C 526 -28 394 31 296 152 C 197 272 147 431 147 628 C 147 865 212 1077 343 1265 C 474 1452 644 1546 852 1546 C 990 1546 1103 1508 1191 1432 C 1279 1356 1338 1249 1366 1110 L 1220 1073 C 1189 1299 1064 1413 846 1413 C 703 1413 577 1333 469 1175 C 361 1016 307 831 307 620 C 307 458 343 332 416 241 C 488 149 587 104 712 104 C 822 104 917 138 998 204 C 1079 270 1123 321 1130 358 L 1179 618 L 755 618 L 778 743 L 1356 743 L 1214 0 Z M 997 1942 L 1180 1622 L 1092 1622 L 916 1803 L 653 1622 L 557 1622 L 873 1942 L 997 1942 Z" unicode="Ĝ" />
<glyph horiz-adv-x="1134" d="M 1136 960 C 1073 958 1019 942 975 913 C 1010 851 1028 788 1028 725 C 1028 619 985 529 901 454 C 817 379 711 342 585 342 C 503 342 435 357 379 389 C 271 364 217 326 217 276 C 217 226 309 194 493 180 C 691 165 826 133 899 85 C 972 36 1009 -35 1009 -129 C 1009 -225 968 -300 887 -353 C 805 -405 688 -432 536 -432 C 366 -432 235 -405 141 -351 C 47 -297 0 -223 0 -129 C 0 -20 69 53 209 92 C 125 126 84 178 84 248 C 84 329 153 394 291 442 C 209 512 168 596 168 696 C 168 807 209 902 291 980 C 373 1058 478 1097 604 1097 C 721 1097 820 1063 901 997 C 992 1065 1079 1098 1161 1097 L 1136 960 Z M 307 704 C 307 630 332 569 383 523 C 433 476 497 452 575 452 C 669 452 744 477 802 527 C 860 577 889 643 889 723 C 889 801 863 865 811 914 C 759 962 690 987 604 987 C 516 987 444 960 389 907 C 334 853 307 786 307 704 Z M 338 69 C 201 24 133 -41 133 -127 C 133 -251 263 -313 524 -313 C 756 -313 872 -255 872 -141 C 872 -93 846 -54 796 -24 C 746 5 671 26 571 38 C 471 49 394 59 338 69 Z M 792 1530 L 975 1210 L 887 1210 L 711 1391 L 448 1210 L 352 1210 L 668 1530 L 792 1530 Z" unicode="ĝ" />
<glyph horiz-adv-x="1470" d="M 1214 0 L 1083 0 L 1114 170 C 1002 38 860 -28 690 -28 C 526 -28 394 31 296 152 C 197 272 147 431 147 628 C 147 865 212 1077 343 1265 C 474 1452 644 1546 852 1546 C 990 1546 1103 1508 1191 1432 C 1279 1356 1338 1249 1366 1110 L 1220 1073 C 1189 1299 1064 1413 846 1413 C 703 1413 577 1333 469 1175 C 361 1016 307 831 307 620 C 307 458 343 332 416 241 C 488 149 587 104 712 104 C 822 104 917 138 998 204 C 1079 270 1123 321 1130 358 L 1179 618 L 755 618 L 778 743 L 1356 743 L 1214 0 Z M 1172 1911 L 1277 1911 C 1191 1740 1069 1655 910 1655 C 848 1655 792 1678 744 1725 C 696 1771 666 1833 654 1911 L 748 1911 C 775 1837 838 1801 937 1801 C 1037 1801 1115 1837 1172 1911 Z" unicode="Ğ" />
<glyph horiz-adv-x="1134" d="M 1136 960 C 1073 958 1019 942 975 913 C 1010 851 1028 788 1028 725 C 1028 619 985 529 901 454 C 817 379 711 342 585 342 C 503 342 435 357 379 389 C 271 364 217 326 217 276 C 217 226 309 194 493 180 C 691 165 826 133 899 85 C 972 36 1009 -35 1009 -129 C 1009 -225 968 -300 887 -353 C 805 -405 688 -432 536 -432 C 366 -432 235 -405 141 -351 C 47 -297 0 -223 0 -129 C 0 -20 69 53 209 92 C 125 126 84 178 84 248 C 84 329 153 394 291 442 C 209 512 168 596 168 696 C 168 807 209 902 291 980 C 373 1058 478 1097 604 1097 C 721 1097 820 1063 901 997 C 992 1065 1079 1098 1161 1097 L 1136 960 Z M 307 704 C 307 630 332 569 383 523 C 433 476 497 452 575 452 C 669 452 744 477 802 527 C 860 577 889 643 889 723 C 889 801 863 865 811 914 C 759 962 690 987 604 987 C 516 987 444 960 389 907 C 334 853 307 786 307 704 Z M 338 69 C 201 24 133 -41 133 -127 C 133 -251 263 -313 524 -313 C 756 -313 872 -255 872 -141 C 872 -93 846 -54 796 -24 C 746 5 671 26 571 38 C 471 49 394 59 338 69 Z M 992 1499 L 1097 1499 C 1011 1328 889 1243 730 1243 C 668 1243 612 1266 564 1313 C 516 1359 486 1421 474 1499 L 568 1499 C 595 1425 658 1389 757 1389 C 857 1389 935 1425 992 1499 Z" unicode="ğ" />
<glyph horiz-adv-x="1470" d="M 1214 1 L 1083 1 L 1114 171 C 1002 39 860 -27 690 -27 C 526 -27 394 32 296 153 C 197 273 147 432 147 629 C 147 866 212 1078 343 1266 C 474 1453 644 1547 852 1547 C 990 1547 1103 1509 1191 1433 C 1279 1357 1338 1250 1366 1111 L 1220 1074 C 1189 1300 1064 1414 846 1414 C 703 1414 577 1334 469 1176 C 361 1017 307 832 307 621 C 307 459 343 333 416 242 C 488 150 587 105 712 105 C 822 105 917 139 998 205 C 1079 271 1123 322 1130 359 L 1179 619 L 755 619 L 778 744 L 1356 744 L 1214 1 Z M 779 1677 L 818 1871 L 986 1871 L 947 1677 L 779 1677 Z" unicode="Ġ" />
<glyph horiz-adv-x="1134" d="M 1136 960 C 1073 958 1019 942 975 913 C 1010 851 1028 788 1028 725 C 1028 619 985 529 901 454 C 817 379 711 342 585 342 C 503 342 435 357 379 389 C 271 364 217 326 217 276 C 217 226 309 194 493 180 C 691 165 826 133 899 85 C 972 36 1009 -35 1009 -129 C 1009 -225 968 -300 887 -353 C 805 -405 688 -432 536 -432 C 366 -432 235 -405 141 -351 C 47 -297 0 -223 0 -129 C 0 -20 69 53 209 92 C 125 126 84 178 84 248 C 84 329 153 394 291 442 C 209 512 168 596 168 696 C 168 807 209 902 291 980 C 373 1058 478 1097 604 1097 C 721 1097 820 1063 901 997 C 992 1065 1079 1098 1161 1097 L 1136 960 Z M 307 704 C 307 630 332 569 383 523 C 433 476 497 452 575 452 C 669 452 744 477 802 527 C 860 577 889 643 889 723 C 889 801 863 865 811 914 C 759 962 690 987 604 987 C 516 987 444 960 389 907 C 334 853 307 786 307 704 Z M 338 69 C 201 24 133 -41 133 -127 C 133 -251 263 -313 524 -313 C 756 -313 872 -255 872 -141 C 872 -93 846 -54 796 -24 C 746 5 671 26 571 38 C 471 49 394 59 338 69 Z M 552 1266 L 591 1460 L 759 1460 L 720 1266 L 552 1266 Z" unicode="ġ" />
<glyph horiz-adv-x="1470" d="M 1083 0 L 1114 170 C 1001 38 860 -28 690 -28 C 532 -28 402 30 300 146 C 198 262 147 423 147 629 C 147 864 212 1076 344 1264 C 476 1452 644 1546 849 1546 C 1129 1546 1302 1400 1366 1110 L 1220 1073 C 1203 1187 1162 1272 1096 1328 C 1030 1384 951 1412 860 1412 C 706 1412 576 1331 468 1171 C 360 1010 307 828 307 626 C 307 460 343 331 417 241 C 490 151 588 106 712 106 C 822 106 918 139 999 205 C 1079 271 1123 322 1130 358 L 1179 621 L 755 621 L 778 743 L 1355 743 L 1214 0 L 1083 0 Z M 636 -105 C 660 -103 679 -103 692 -103 C 850 -103 930 -152 930 -252 C 930 -309 904 -355 854 -391 C 804 -426 742 -444 669 -444 C 589 -444 523 -433 470 -413 L 517 -315 C 563 -332 615 -341 672 -341 C 755 -341 797 -315 797 -263 C 797 -216 746 -193 645 -193 C 629 -193 606 -193 577 -195 L 636 -105 Z" unicode="Ģ" />
<glyph horiz-adv-x="1135" d="M 698 1383 L 796 1383 L 751 1189 L 543 1189 L 588 1379 L 809 1641 L 895 1641 L 698 1383 Z M 291 442 C 207 514 166 598 166 696 C 166 805 207 899 289 978 C 371 1057 479 1097 612 1097 C 726 1097 822 1063 901 997 C 990 1063 1077 1097 1161 1098 L 1137 961 C 1072 959 1018 943 975 913 C 1011 849 1030 786 1030 725 C 1030 621 987 532 903 456 C 819 380 713 342 586 342 C 504 342 435 357 379 389 C 271 363 217 326 217 277 C 217 253 235 233 271 217 C 307 201 381 189 494 180 C 698 163 834 130 904 82 C 973 33 1008 -36 1008 -126 C 1008 -227 966 -303 882 -355 C 798 -406 688 -432 553 -432 C 373 -432 235 -405 141 -351 C 47 -297 0 -223 0 -129 C 0 -21 69 52 209 92 C 125 127 84 179 84 248 C 84 328 153 392 291 442 Z M 887 724 C 887 801 861 864 809 913 C 757 962 688 987 604 987 C 516 987 444 960 390 906 C 336 852 309 785 309 705 C 309 631 333 571 383 524 C 433 476 499 453 581 453 C 669 453 742 477 800 527 C 858 577 887 642 887 724 Z M 338 70 C 201 26 133 -37 133 -120 C 133 -250 263 -315 524 -315 C 757 -315 874 -257 874 -142 C 874 -107 860 -75 833 -47 C 805 -19 768 0 722 12 C 676 24 598 36 489 48 C 437 53 386 60 338 70 Z" unicode="ģ" />
<glyph horiz-adv-x="1505" d="M 1198 0 L 1044 0 L 1181 715 L 395 715 L 254 0 L 98 0 L 391 1515 L 547 1515 L 415 844 L 1204 844 L 1335 1515 L 1489 1515 L 1198 0 Z M 1065 1942 L 1248 1622 L 1160 1622 L 984 1803 L 721 1622 L 625 1622 L 941 1942 L 1065 1942 Z" unicode="Ĥ" />
<glyph horiz-adv-x="1171" d="M 1026 721 L 884 0 L 741 0 L 874 690 C 882 733 887 768 887 794 C 887 848 871 890 840 920 C 808 950 768 964 719 964 C 615 964 501 889 375 741 L 229 0 L 86 0 L 377 1515 L 520 1515 L 405 911 C 521 1035 635 1097 749 1097 C 832 1097 900 1070 954 1017 C 1007 963 1034 892 1034 803 C 1034 775 1031 748 1026 721 Z M 924 1908 L 1107 1588 L 1019 1588 L 843 1769 L 580 1588 L 484 1588 L 800 1908 L 924 1908 Z" unicode="ĥ" />
<glyph horiz-adv-x="1505" d="M 1437 1248 L 1582 1248 L 1559 1128 L 1414 1128 L 1198 0 L 1044 0 L 1181 713 L 395 713 L 254 0 L 98 0 L 316 1128 L 171 1128 L 194 1248 L 339 1248 L 391 1515 L 547 1515 L 494 1248 L 1283 1248 L 1335 1515 L 1489 1515 L 1437 1248 Z M 471 1128 L 415 846 L 1204 846 L 1259 1128 L 471 1128 Z" unicode="Ħ" />
<glyph horiz-adv-x="1171" d="M 489 1351 L 846 1351 L 824 1228 L 466 1228 L 405 911 C 521 1035 637 1097 753 1097 C 832 1097 898 1070 952 1016 C 1005 962 1032 893 1032 808 C 1032 771 1030 742 1026 721 L 885 0 L 741 0 L 875 690 C 884 740 889 775 889 795 C 889 849 872 890 840 920 C 808 950 768 965 722 965 C 618 965 502 890 376 741 L 229 0 L 86 0 L 321 1228 L 164 1228 L 188 1351 L 344 1351 L 376 1515 L 520 1515 L 489 1351 Z" unicode="ħ" />
<glyph horiz-adv-x="559" d="M 252 0 L 98 0 L 389 1515 L 542 1515 L 252 0 Z M 235 1660 L 153 1660 C 169 1739 200 1801 246 1845 C 291 1889 342 1912 399 1912 C 439 1912 484 1891 534 1849 C 583 1806 618 1785 638 1785 C 692 1785 738 1827 778 1912 L 860 1912 C 842 1834 810 1771 764 1725 C 718 1679 666 1656 608 1656 C 568 1656 525 1677 479 1720 C 432 1762 396 1783 372 1783 C 318 1783 273 1742 235 1660 Z" unicode="Ĩ" />
<glyph horiz-adv-x="524" d="M 230 0 L 87 0 L 296 1075 L 439 1075 L 230 0 Z M 488 1331 L 488 1331 Z M 345 1331 L 345 1331 Z M 380 1515 L 380 1515 Z M 523 1515 L 523 1515 Z M 142 1248 L 60 1248 C 76 1327 107 1389 153 1433 C 198 1477 249 1500 306 1500 C 346 1500 391 1479 441 1437 C 490 1394 525 1373 545 1373 C 599 1373 645 1415 685 1500 L 767 1500 C 749 1422 717 1359 671 1313 C 625 1267 573 1244 515 1244 C 475 1244 432 1265 386 1308 C 339 1350 303 1371 279 1371 C 225 1371 180 1330 142 1248 Z" unicode="ĩ" />
<glyph horiz-adv-x="559" d="M 252 0 L 98 0 L 389 1515 L 542 1515 L 252 0 Z M 202 1721 L 227 1846 L 819 1846 L 794 1721 L 202 1721 Z" unicode="Ī" />
<glyph horiz-adv-x="524" d="M 229 0 L 86 0 L 295 1075 L 438 1075 L 229 0 Z M 487 1331 L 487 1331 Z M 344 1331 L 344 1331 Z M 379 1515 L 379 1515 Z M 522 1515 L 522 1515 Z M 109 1310 L 134 1435 L 726 1435 L 701 1310 L 109 1310 Z" unicode="ī" />
<glyph horiz-adv-x="559" d="M 252 0 L 98 0 L 389 1515 L 542 1515 L 252 0 Z M 751 1911 L 856 1911 C 770 1740 648 1655 489 1655 C 427 1655 371 1678 323 1725 C 275 1771 245 1833 233 1911 L 327 1911 C 354 1837 417 1801 516 1801 C 616 1801 694 1837 751 1911 Z" unicode="Ĭ" />
<glyph horiz-adv-x="524" d="M 229 0 L 86 0 L 295 1075 L 438 1075 L 229 0 Z M 487 1331 L 487 1331 Z M 344 1331 L 344 1331 Z M 379 1515 L 379 1515 Z M 522 1515 L 522 1515 Z M 640 1499 L 745 1499 C 659 1328 537 1243 378 1243 C 316 1243 260 1266 212 1313 C 164 1359 134 1421 122 1499 L 216 1499 C 243 1425 306 1389 405 1389 C 505 1389 583 1425 640 1499 Z" unicode="ĭ" />
<glyph horiz-adv-x="559" d="M 216 0 C 176 -66 157 -121 157 -166 C 157 -235 191 -270 261 -270 C 325 -270 390 -252 454 -217 L 432 -336 C 352 -381 275 -404 203 -404 C 149 -404 104 -388 70 -356 C 35 -324 18 -283 18 -233 C 18 -163 44 -86 98 0 L 389 1515 L 543 1515 L 252 0 L 216 0 Z" unicode="Į" />
<glyph horiz-adv-x="524" d="M 522 1515 L 487 1331 L 344 1331 L 379 1515 L 522 1515 Z M 203 0 C 165 -52 147 -107 147 -164 C 147 -234 180 -270 248 -270 C 312 -270 376 -252 440 -217 L 418 -336 C 338 -380 262 -403 190 -403 C 135 -403 90 -387 56 -356 C 21 -324 4 -283 4 -231 C 4 -165 31 -88 85 0 L 297 1075 L 440 1075 L 229 0 L 203 0 Z" unicode="į" />
<glyph horiz-adv-x="559" d="M 252 0 L 98 0 L 389 1515 L 542 1515 L 252 0 Z M 405 1674 L 444 1868 L 612 1868 L 573 1674 L 405 1674 Z" unicode="İ" />
<glyph horiz-adv-x="524" d="M 229 0 L 86 0 L 295 1075 L 438 1075 L 229 0 Z M 487 1331 L 487 1331 Z M 344 1331 L 344 1331 Z M 379 1515 L 379 1515 Z M 522 1515 L 522 1515 Z" unicode="ı" />
<glyph horiz-adv-x="1350" d="M 542 1515 L 252 0 L 98 0 L 389 1515 L 542 1515 Z M 1350 1515 L 1131 383 C 1098 217 1049 107 984 53 C 919 -1 842 -28 753 -28 C 648 -28 568 2 512 64 C 456 126 428 203 428 297 L 428 326 L 559 356 C 563 182 624 96 744 96 C 863 96 939 178 971 344 L 1198 1515 L 1350 1515 Z" unicode="Ĳ" />
<glyph horiz-adv-x="1034" d="M 522 1515 L 487 1331 L 344 1331 L 379 1515 L 522 1515 Z M 1034 1515 L 1000 1335 L 856 1335 L 891 1515 L 1034 1515 Z M 440 1075 L 229 0 L 86 0 L 297 1075 L 440 1075 Z M 951 1075 L 733 -57 C 713 -163 692 -240 670 -288 C 648 -336 617 -372 577 -398 C 536 -423 485 -436 424 -436 C 393 -436 368 -434 348 -432 L 371 -297 L 388 -299 C 406 -301 421 -303 431 -303 C 501 -303 546 -254 565 -158 L 807 1075 L 951 1075 Z" unicode="ĳ" />
<glyph horiz-adv-x="870" d="M 651 383 C 620 222 573 113 510 57 C 447 0 365 -28 264 -28 C 168 -28 92 1 35 61 C -22 121 -51 199 -51 297 L -51 325 L 80 356 C 82 182 142 96 260 96 C 382 96 459 178 491 344 L 719 1515 L 870 1515 L 651 383 Z M 898 1942 L 1081 1622 L 993 1622 L 817 1803 L 554 1622 L 458 1622 L 774 1942 L 898 1942 Z" unicode="Ĵ" />
<glyph horiz-adv-x="524" d="M 382 1530 L 507 1530 L 689 1210 L 601 1210 L 425 1391 L 163 1210 L 66 1210 L 382 1530 Z M 440 1075 L 223 -57 C 190 -227 149 -333 99 -374 C 49 -415 -12 -436 -86 -436 C -117 -436 -142 -434 -162 -432 L -139 -297 L -122 -299 C -103 -301 -89 -303 -79 -303 C -8 -303 36 -254 55 -158 L 297 1075 L 440 1075 Z" unicode="ĵ" />
<glyph horiz-adv-x="1264" d="M 1421 1515 L 723 897 L 1145 0 L 977 0 L 612 795 L 362 575 L 252 0 L 98 0 L 391 1515 L 544 1515 L 399 766 L 1218 1515 L 1421 1515 Z M 502 -105 C 526 -103 545 -103 558 -103 C 716 -103 796 -152 796 -252 C 796 -309 770 -355 720 -391 C 670 -426 608 -444 535 -444 C 455 -444 389 -433 336 -413 L 382 -315 C 429 -332 481 -341 538 -341 C 620 -341 662 -315 662 -263 C 662 -216 611 -193 511 -193 C 494 -193 471 -193 442 -195 L 502 -105 Z" unicode="Ķ" />
<glyph horiz-adv-x="975" d="M 1053 1075 L 590 682 L 850 0 L 694 0 L 483 588 L 317 444 L 229 0 L 86 0 L 381 1515 L 524 1515 L 354 637 L 856 1075 L 1053 1075 Z M 331 -105 C 355 -103 373 -103 387 -103 C 545 -103 624 -152 624 -252 C 624 -309 599 -355 549 -391 C 499 -426 437 -444 363 -444 C 283 -444 217 -433 165 -413 L 211 -315 C 258 -332 310 -341 367 -341 C 449 -341 491 -315 491 -263 C 491 -216 440 -193 339 -193 C 323 -193 300 -193 271 -195 L 331 -105 Z" unicode="ķ" />
<glyph horiz-adv-x="975" d="M 1053 1075 L 590 682 L 850 0 L 694 0 L 483 588 L 317 444 L 229 0 L 86 0 L 295 1075 L 439 1075 L 354 637 L 856 1075 L 1053 1075 Z" unicode="ĸ" />
<glyph horiz-adv-x="1120" d="M 975 0 L 98 0 L 389 1515 L 542 1515 L 272 133 L 997 133 L 975 0 Z M 470 1622 L 751 1952 L 980 1952 L 599 1622 L 470 1622 Z" unicode="Ĺ" />
<glyph horiz-adv-x="524" d="M 229 0 L 86 0 L 377 1515 L 520 1515 L 229 0 Z M 334 1622 L 615 1952 L 844 1952 L 463 1622 L 334 1622 Z" unicode="ĺ" />
<glyph horiz-adv-x="1120" d="M 997 133 L 975 0 L 98 0 L 389 1515 L 542 1515 L 272 133 L 997 133 Z M 462 -105 C 486 -103 505 -103 518 -103 C 676 -103 756 -152 756 -252 C 756 -309 730 -355 680 -391 C 630 -426 568 -444 494 -444 C 415 -444 349 -433 296 -413 L 342 -315 C 389 -332 441 -341 498 -341 C 580 -341 622 -315 622 -263 C 622 -216 571 -193 471 -193 C 454 -193 431 -193 402 -195 L 462 -105 Z" unicode="Ļ" />
<glyph horiz-adv-x="524" d="M 520 1515 L 229 0 L 86 0 L 377 1515 L 520 1515 Z M 36 -105 C 60 -103 79 -103 92 -103 C 250 -103 330 -152 330 -252 C 330 -309 304 -355 254 -391 C 204 -426 142 -444 69 -444 C -10 -444 -76 -433 -130 -413 L -84 -315 C -36 -332 15 -341 72 -341 C 154 -341 196 -315 196 -263 C 196 -216 145 -193 45 -193 C 29 -193 6 -193 -23 -195 L 36 -105 Z" unicode="ļ" />
<glyph horiz-adv-x="1120" d="M 975 0 L 98 0 L 389 1515 L 542 1515 L 272 133 L 997 133 L 975 0 Z M 824 1350 L 726 1350 L 771 1544 L 978 1544 L 933 1354 L 713 1092 L 627 1092 L 824 1350 Z" unicode="Ľ" />
<glyph horiz-adv-x="524" d="M 229 0 L 86 0 L 377 1515 L 520 1515 L 229 0 Z M 739 1350 L 641 1350 L 686 1544 L 893 1544 L 848 1354 L 628 1092 L 542 1092 L 739 1350 Z" unicode="ľ" />
<glyph horiz-adv-x="1120" d="M 997 133 L 975 0 L 98 0 L 389 1515 L 542 1515 L 272 133 L 997 133 Z M 797 675 L 629 675 L 668 870 L 836 870 L 797 675 Z" unicode="Ŀ" />
<glyph horiz-adv-x="524" d="M 520 1515 L 229 0 L 86 0 L 377 1515 L 520 1515 Z M 662 675 L 494 675 L 533 870 L 701 870 L 662 675 Z" unicode="ŀ" />
<glyph horiz-adv-x="1120" d="M 715 1163 L 684 989 L 391 743 L 272 133 L 997 133 L 975 0 L 98 0 L 214 598 L 14 426 L 43 600 L 246 770 L 389 1515 L 542 1515 L 424 915 L 715 1163 Z" unicode="Ł" />
<glyph horiz-adv-x="524" d="M 559 1046 L 534 907 L 378 774 L 229 0 L 86 0 L 208 635 L 16 467 L 43 610 L 234 772 L 377 1515 L 520 1515 L 403 908 L 559 1046 Z" unicode="ł" />
<glyph horiz-adv-x="1546" d="M 1233 0 L 1124 0 L 514 1388 L 246 0 L 98 0 L 395 1515 L 616 1515 L 1147 299 L 1382 1513 L 1530 1515 L 1233 0 Z M 851 1622 L 1132 1952 L 1361 1952 L 980 1622 L 851 1622 Z" unicode="Ń" />
<glyph horiz-adv-x="1171" d="M 1028 727 L 889 0 L 741 0 L 872 671 C 880 712 884 754 884 796 C 884 848 868 888 838 918 C 807 948 766 962 715 962 C 606 962 493 889 377 743 L 231 0 L 86 0 L 297 1075 L 426 1075 L 391 893 C 508 1029 629 1097 753 1097 C 836 1097 904 1070 956 1016 C 1008 962 1034 891 1034 803 C 1034 773 1032 747 1028 727 Z M 557 1210 L 838 1540 L 1067 1540 L 686 1210 L 557 1210 Z" unicode="ń" />
<glyph horiz-adv-x="1546" d="M 1530 1515 L 1233 0 L 1124 0 L 514 1389 L 245 0 L 98 0 L 395 1515 L 616 1515 L 1147 299 L 1382 1515 L 1530 1515 Z M 578 -105 C 602 -103 621 -103 634 -103 C 792 -103 872 -152 872 -252 C 872 -309 846 -355 796 -391 C 746 -426 684 -444 611 -444 C 531 -444 465 -433 412 -413 L 459 -315 C 505 -332 557 -341 614 -341 C 697 -341 739 -315 739 -263 C 739 -216 688 -193 587 -193 C 571 -193 548 -193 519 -195 L 578 -105 Z" unicode="Ņ" />
<glyph horiz-adv-x="1171" d="M 426 1075 L 391 893 C 510 1029 631 1097 754 1097 C 835 1097 902 1069 956 1015 C 1009 961 1036 889 1036 800 C 1036 780 1033 755 1028 727 L 889 0 L 741 0 L 872 672 C 880 715 885 750 885 776 C 885 845 868 894 834 922 C 800 950 762 965 720 965 C 611 965 497 891 377 743 L 231 0 L 86 0 L 297 1075 L 426 1075 Z M 369 -105 C 393 -103 412 -103 425 -103 C 583 -103 663 -152 663 -252 C 663 -309 637 -355 587 -391 C 537 -426 475 -444 402 -444 C 322 -444 256 -433 203 -413 L 250 -315 C 296 -332 348 -341 405 -341 C 488 -341 530 -315 530 -263 C 530 -216 479 -193 378 -193 C 362 -193 339 -193 310 -195 L 369 -105 Z" unicode="ņ" />
<glyph horiz-adv-x="1546" d="M 1233 0 L 1124 0 L 514 1388 L 246 0 L 98 0 L 395 1515 L 616 1515 L 1147 299 L 1382 1513 L 1530 1515 L 1233 0 Z M 931 1622 L 749 1942 L 835 1942 L 1013 1764 L 1275 1942 L 1371 1942 L 1056 1622 L 931 1622 Z" unicode="Ň" />
<glyph horiz-adv-x="1171" d="M 1028 727 L 889 0 L 741 0 L 872 671 C 880 712 884 754 884 796 C 884 848 868 888 838 918 C 807 948 766 962 715 962 C 606 962 493 889 377 743 L 231 0 L 86 0 L 297 1075 L 426 1075 L 391 893 C 508 1029 629 1097 753 1097 C 836 1097 904 1070 956 1016 C 1008 962 1034 891 1034 803 C 1034 773 1032 747 1028 727 Z M 658 1210 L 476 1530 L 562 1530 L 740 1352 L 1002 1530 L 1098 1530 L 783 1210 L 658 1210 Z" unicode="ň" />
<glyph horiz-adv-x="1256" d="M 1112 727 L 973 0 L 825 0 L 956 671 C 964 712 968 754 968 796 C 968 848 952 888 922 918 C 891 948 850 962 799 962 C 690 962 577 889 461 743 L 315 0 L 170 0 L 381 1075 L 510 1075 L 475 893 C 592 1029 713 1097 837 1097 C 920 1097 988 1070 1040 1016 C 1092 962 1118 891 1118 803 C 1118 773 1116 747 1112 727 Z M 189 1321 L 91 1321 L 136 1515 L 343 1515 L 298 1325 L 78 1063 L -8 1063 L 189 1321 Z" unicode="ŉ" />
<glyph horiz-adv-x="1505" d="M 474 -150 L 602 -118 C 616 -244 682 -308 800 -308 C 922 -308 999 -225 1031 -60 L 1223 935 C 1245 1047 1256 1120 1256 1153 C 1256 1237 1229 1302 1176 1346 C 1122 1390 1058 1412 984 1412 C 877 1412 774 1369 675 1283 C 576 1197 497 1089 439 961 L 254 0 L 98 0 L 391 1515 L 547 1515 L 491 1235 C 643 1442 821 1546 1026 1546 C 1135 1546 1226 1510 1298 1440 C 1370 1369 1407 1279 1407 1171 C 1407 1118 1399 1053 1384 975 L 1191 -21 C 1159 -183 1111 -292 1049 -348 C 986 -404 904 -432 804 -432 C 714 -432 637 -407 575 -359 C 513 -311 479 -241 474 -150 Z" unicode="Ŋ" />
<glyph horiz-adv-x="1171" d="M 493 -432 L 515 -297 C 551 -301 573 -303 583 -303 C 648 -303 690 -254 710 -158 L 872 672 C 880 714 885 750 885 781 C 885 845 868 892 835 921 C 802 950 763 965 718 965 C 610 965 497 891 377 743 L 231 0 L 86 0 L 297 1075 L 426 1075 L 391 893 C 512 1029 633 1097 754 1097 C 838 1097 906 1069 958 1013 C 1010 957 1036 890 1036 812 C 1036 784 1033 755 1028 727 L 878 -57 C 858 -158 838 -234 817 -284 C 795 -334 764 -371 723 -397 C 682 -423 628 -436 562 -436 C 537 -436 514 -434 493 -432 Z" unicode="ŋ" />
<glyph horiz-adv-x="1470" d="M 692 -28 C 324 -28 141 179 141 594 C 141 825 208 1041 342 1243 C 476 1445 653 1546 874 1546 C 1046 1546 1179 1492 1273 1386 C 1367 1279 1415 1128 1415 934 C 1415 698 1349 479 1218 276 C 1086 73 911 -28 692 -28 Z M 299 545 C 299 407 333 299 401 221 C 469 143 559 104 671 104 C 845 104 985 195 1093 376 C 1201 556 1255 748 1255 952 C 1255 1086 1219 1196 1148 1282 C 1077 1368 989 1411 884 1411 C 709 1411 568 1319 460 1137 C 352 954 299 757 299 545 Z M 601 1721 L 626 1846 L 1218 1846 L 1193 1721 L 601 1721 Z" unicode="Ō" />
<glyph horiz-adv-x="1110" d="M 104 444 C 104 628 154 783 255 909 C 356 1034 479 1097 624 1097 C 740 1097 832 1054 900 968 C 968 882 1003 768 1003 626 C 1003 449 952 297 851 169 C 750 41 629 -22 487 -22 C 369 -22 275 19 207 103 C 138 187 104 300 104 444 Z M 248 420 C 248 324 271 247 317 189 C 363 131 422 102 493 102 C 593 102 679 155 751 263 C 823 371 860 499 860 647 C 860 747 837 827 791 885 C 745 943 684 973 610 973 C 513 973 428 919 356 811 C 284 703 248 572 248 420 Z M 339 1310 L 364 1435 L 956 1435 L 931 1310 L 339 1310 Z" unicode="ō" />
<glyph horiz-adv-x="1470" d="M 692 -28 C 324 -28 141 179 141 594 C 141 825 208 1041 342 1243 C 476 1445 653 1546 874 1546 C 1046 1546 1179 1492 1273 1386 C 1367 1279 1415 1128 1415 934 C 1415 698 1349 479 1218 276 C 1086 73 911 -28 692 -28 Z M 299 545 C 299 407 333 299 401 221 C 469 143 559 104 671 104 C 845 104 985 195 1093 376 C 1201 556 1255 748 1255 952 C 1255 1086 1219 1196 1148 1282 C 1077 1368 989 1411 884 1411 C 709 1411 568 1319 460 1137 C 352 954 299 757 299 545 Z M 1157 1911 L 1262 1911 C 1176 1740 1054 1655 895 1655 C 833 1655 777 1678 729 1725 C 681 1771 651 1833 639 1911 L 733 1911 C 760 1837 823 1801 922 1801 C 1022 1801 1100 1837 1157 1911 Z" unicode="Ŏ" />
<glyph horiz-adv-x="1110" d="M 104 444 C 104 628 154 783 255 909 C 356 1034 479 1097 624 1097 C 740 1097 832 1054 900 968 C 968 882 1003 768 1003 626 C 1003 449 952 297 851 169 C 750 41 629 -22 487 -22 C 369 -22 275 19 207 103 C 138 187 104 300 104 444 Z M 248 420 C 248 324 271 247 317 189 C 363 131 422 102 493 102 C 593 102 679 155 751 263 C 823 371 860 499 860 647 C 860 747 837 827 791 885 C 745 943 684 973 610 973 C 513 973 428 919 356 811 C 284 703 248 572 248 420 Z M 890 1499 L 995 1499 C 909 1328 787 1243 628 1243 C 566 1243 510 1266 462 1313 C 414 1359 384 1421 372 1499 L 466 1499 C 493 1425 556 1389 655 1389 C 755 1389 833 1425 890 1499 Z" unicode="ŏ" />
<glyph horiz-adv-x="1470" d="M 692 -28 C 324 -28 141 179 141 594 C 141 825 208 1041 342 1243 C 476 1445 653 1546 874 1546 C 1046 1546 1179 1492 1273 1386 C 1367 1279 1415 1128 1415 934 C 1415 698 1349 479 1218 276 C 1086 73 911 -28 692 -28 Z M 299 545 C 299 407 333 299 401 221 C 469 143 559 104 671 104 C 845 104 985 195 1093 376 C 1201 556 1255 748 1255 952 C 1255 1086 1219 1196 1148 1282 C 1077 1368 989 1411 884 1411 C 709 1411 568 1319 460 1137 C 352 954 299 757 299 545 Z M 568 1622 L 850 1952 L 1074 1952 L 693 1622 L 568 1622 Z M 939 1622 L 1221 1952 L 1444 1952 L 1063 1622 L 939 1622 Z" unicode="Ő" />
<glyph horiz-adv-x="1110" d="M 104 444 C 104 628 154 783 255 909 C 356 1034 479 1097 624 1097 C 740 1097 832 1054 900 968 C 968 882 1003 768 1003 626 C 1003 449 952 297 851 169 C 750 41 629 -22 487 -22 C 369 -22 275 19 207 103 C 138 187 104 300 104 444 Z M 248 420 C 248 324 271 247 317 189 C 363 131 422 102 493 102 C 593 102 679 155 751 263 C 823 371 860 499 860 647 C 860 747 837 827 791 885 C 745 943 684 973 610 973 C 513 973 428 919 356 811 C 284 703 248 572 248 420 Z M 350 1210 L 632 1540 L 856 1540 L 475 1210 L 350 1210 Z M 721 1210 L 1003 1540 L 1226 1540 L 845 1210 L 721 1210 Z" unicode="ő" />
<glyph horiz-adv-x="2062" d="M 2126 1382 L 1458 1382 L 1356 858 L 1888 858 L 1863 725 L 1331 725 L 1214 133 L 1937 133 L 1913 0 L 1036 0 L 1067 159 C 949 34 822 -28 686 -28 C 515 -28 381 26 285 137 C 189 247 141 400 141 594 C 141 825 208 1041 342 1243 C 476 1445 653 1546 874 1546 C 1063 1546 1199 1452 1282 1265 L 1331 1515 L 2152 1515 L 2126 1382 Z M 299 545 C 299 407 333 299 401 221 C 469 143 559 104 671 104 C 838 104 970 186 1068 351 C 1165 516 1214 716 1214 952 C 1214 1092 1185 1203 1125 1286 C 1065 1369 984 1411 884 1411 C 709 1411 568 1319 460 1137 C 352 954 299 757 299 545 Z" unicode="Œ" />
<glyph horiz-adv-x="1845" d="M 1751 532 L 991 532 L 983 446 C 979 413 985 367 1001 308 C 1016 249 1047 200 1093 161 C 1139 122 1197 102 1267 102 C 1399 102 1511 186 1605 356 L 1722 293 C 1596 83 1437 -22 1245 -22 C 1077 -22 957 63 885 233 C 771 63 639 -22 487 -22 C 369 -22 275 19 207 103 C 138 187 104 300 104 444 C 104 628 154 783 255 909 C 356 1034 479 1097 624 1097 C 776 1097 888 1013 958 847 C 1070 1013 1209 1097 1376 1097 C 1499 1097 1594 1059 1662 985 C 1729 911 1763 805 1763 669 C 1763 639 1759 593 1751 532 Z M 1018 651 L 1616 651 C 1621 672 1624 695 1624 721 C 1624 799 1601 861 1556 907 C 1511 953 1451 977 1376 977 C 1197 977 1078 868 1018 651 Z M 248 420 C 248 324 271 247 317 189 C 363 131 422 102 493 102 C 593 102 679 155 751 263 C 823 371 860 499 860 647 C 860 747 837 827 791 885 C 745 943 684 973 610 973 C 513 973 428 919 356 811 C 284 703 248 572 248 420 Z" unicode="œ" />
<glyph horiz-adv-x="1335" d="M 884 696 L 1138 0 L 977 0 L 737 696 L 385 696 L 252 0 L 98 0 L 389 1515 L 882 1515 C 1026 1515 1137 1483 1215 1419 C 1292 1355 1331 1264 1331 1147 C 1331 1018 1292 915 1214 838 C 1136 760 1026 713 884 696 Z M 891 1382 L 516 1382 L 411 829 L 811 829 C 925 829 1015 857 1081 914 C 1146 970 1179 1046 1179 1140 C 1179 1215 1154 1274 1103 1318 C 1051 1361 981 1382 891 1382 Z M 640 1622 L 921 1952 L 1150 1952 L 769 1622 L 640 1622 Z" unicode="Ŕ" />
<glyph horiz-adv-x="700" d="M 729 954 C 629 947 545 911 477 845 C 409 779 366 704 350 620 L 229 0 L 86 0 L 293 1075 L 428 1075 L 385 862 C 479 1014 609 1091 774 1091 L 729 954 Z M 323 1210 L 604 1540 L 833 1540 L 452 1210 L 323 1210 Z" unicode="ŕ" />
<glyph horiz-adv-x="1335" d="M 389 1515 L 883 1515 C 1031 1515 1142 1482 1218 1416 C 1293 1350 1331 1260 1331 1147 C 1331 887 1181 736 883 696 L 1138 0 L 977 0 L 737 696 L 385 696 L 252 0 L 98 0 L 389 1515 Z M 411 829 L 811 829 C 923 829 1012 857 1079 913 C 1145 969 1179 1045 1179 1141 C 1179 1215 1153 1274 1102 1317 C 1050 1360 980 1382 891 1382 L 516 1382 L 411 829 Z M 498 -105 C 522 -103 540 -103 554 -103 C 712 -103 791 -152 791 -252 C 791 -309 766 -355 716 -391 C 666 -426 604 -444 530 -444 C 450 -444 384 -433 332 -413 L 378 -315 C 425 -332 477 -341 534 -341 C 616 -341 658 -315 658 -263 C 658 -216 607 -193 506 -193 C 490 -193 467 -193 438 -195 L 498 -105 Z" unicode="Ŗ" />
<glyph horiz-adv-x="700" d="M 774 1092 L 729 954 C 631 946 547 909 478 843 C 408 777 366 703 350 621 L 229 0 L 86 0 L 293 1075 L 428 1075 L 385 862 C 438 946 494 1005 554 1039 C 614 1073 687 1091 774 1092 Z M 66 -105 C 90 -103 109 -103 122 -103 C 280 -103 360 -152 360 -252 C 360 -309 334 -355 284 -391 C 234 -426 172 -444 99 -444 C 19 -444 -46 -433 -100 -413 L -54 -315 C -6 -332 45 -341 102 -341 C 184 -341 226 -315 226 -263 C 226 -216 175 -193 75 -193 C 59 -193 36 -193 7 -195 L 66 -105 Z" unicode="ŗ" />
<glyph horiz-adv-x="1335" d="M 884 696 L 1138 0 L 977 0 L 737 696 L 385 696 L 252 0 L 98 0 L 389 1515 L 882 1515 C 1026 1515 1137 1483 1215 1419 C 1292 1355 1331 1264 1331 1147 C 1331 1018 1292 915 1214 838 C 1136 760 1026 713 884 696 Z M 891 1382 L 516 1382 L 411 829 L 811 829 C 925 829 1015 857 1081 914 C 1146 970 1179 1046 1179 1140 C 1179 1215 1154 1274 1103 1318 C 1051 1361 981 1382 891 1382 Z M 719 1622 L 537 1942 L 623 1942 L 801 1764 L 1063 1942 L 1159 1942 L 844 1622 L 719 1622 Z" unicode="Ř" />
<glyph horiz-adv-x="700" d="M 729 954 C 629 947 545 911 477 845 C 409 779 366 704 350 620 L 229 0 L 86 0 L 293 1075 L 428 1075 L 385 862 C 479 1014 609 1091 774 1091 L 729 954 Z M 402 1210 L 220 1530 L 306 1530 L 484 1352 L 746 1530 L 842 1530 L 527 1210 L 402 1210 Z" unicode="ř" />
<glyph horiz-adv-x="1190" d="M 1077 1118 C 1031 1314 912 1413 721 1413 C 623 1413 546 1389 490 1342 C 434 1295 405 1232 405 1153 C 405 1113 413 1076 430 1042 C 446 1008 469 980 497 956 C 525 932 594 890 704 830 C 838 756 932 691 985 633 C 1038 575 1065 494 1065 389 C 1065 261 1018 160 926 85 C 834 9 713 -28 563 -28 C 415 -28 298 13 210 97 C 122 181 69 303 53 463 L 188 489 C 223 232 347 104 561 104 C 671 104 758 129 820 179 C 882 228 913 295 913 379 C 913 441 895 494 859 539 C 822 584 748 634 637 688 C 499 754 400 822 342 890 C 283 958 254 1038 254 1130 C 254 1254 297 1355 384 1431 C 471 1507 588 1546 735 1546 C 989 1546 1147 1415 1210 1153 L 1077 1118 Z M 629 1622 L 910 1952 L 1139 1952 L 758 1622 L 629 1622 Z" unicode="Ś" />
<glyph horiz-adv-x="907" d="M 745 825 C 695 929 617 981 512 981 C 450 981 398 964 358 930 C 317 896 297 856 297 809 C 297 741 363 678 497 618 C 597 573 668 527 710 481 C 751 434 772 374 772 301 C 772 208 737 131 667 70 C 597 8 509 -22 401 -22 C 222 -22 86 75 -8 270 L 112 327 C 155 239 198 178 240 146 C 282 114 334 98 395 98 C 465 98 522 116 566 153 C 609 190 631 237 631 293 C 631 327 620 358 598 388 C 576 417 522 453 436 496 C 330 547 257 593 216 633 C 175 673 155 726 155 794 C 155 883 188 956 255 1012 C 322 1068 408 1097 512 1097 C 666 1097 782 1024 858 880 L 745 825 Z M 426 1210 L 707 1540 L 936 1540 L 555 1210 L 426 1210 Z" unicode="ś" />
<glyph horiz-adv-x="1190" d="M 1077 1118 C 1031 1314 912 1413 721 1413 C 623 1413 546 1389 490 1342 C 434 1295 405 1232 405 1153 C 405 1113 413 1076 430 1042 C 446 1008 469 980 497 956 C 525 932 594 890 704 830 C 838 756 932 691 985 633 C 1038 575 1065 494 1065 389 C 1065 261 1018 160 926 85 C 834 9 713 -28 563 -28 C 415 -28 298 13 210 97 C 122 181 69 303 53 463 L 188 489 C 223 232 347 104 561 104 C 671 104 758 129 820 179 C 882 228 913 295 913 379 C 913 441 895 494 859 539 C 822 584 748 634 637 688 C 499 754 400 822 342 890 C 283 958 254 1038 254 1130 C 254 1254 297 1355 384 1431 C 471 1507 588 1546 735 1546 C 989 1546 1147 1415 1210 1153 L 1077 1118 Z M 920 1942 L 1103 1622 L 1015 1622 L 839 1803 L 576 1622 L 480 1622 L 796 1942 L 920 1942 Z" unicode="Ŝ" />
<glyph horiz-adv-x="907" d="M 745 825 C 695 929 617 981 512 981 C 450 981 398 964 358 930 C 317 896 297 856 297 809 C 297 741 363 678 497 618 C 597 573 668 527 710 481 C 751 434 772 374 772 301 C 772 208 737 131 667 70 C 597 8 509 -22 401 -22 C 222 -22 86 75 -8 270 L 112 327 C 155 239 198 178 240 146 C 282 114 334 98 395 98 C 465 98 522 116 566 153 C 609 190 631 237 631 293 C 631 327 620 358 598 388 C 576 417 522 453 436 496 C 330 547 257 593 216 633 C 175 673 155 726 155 794 C 155 883 188 956 255 1012 C 322 1068 408 1097 512 1097 C 666 1097 782 1024 858 880 L 745 825 Z M 679 1530 L 862 1210 L 774 1210 L 598 1391 L 335 1210 L 239 1210 L 555 1530 L 679 1530 Z" unicode="ŝ" />
<glyph horiz-adv-x="1190" d="M 1077 1118 C 1031 1314 912 1413 721 1413 C 623 1413 546 1389 490 1342 C 434 1295 405 1232 405 1153 C 405 1113 413 1076 430 1042 C 446 1008 469 980 497 956 C 525 932 594 890 704 830 C 838 756 932 691 985 633 C 1038 575 1065 494 1065 389 C 1065 261 1018 160 926 85 C 834 9 713 -28 563 -28 C 415 -28 298 13 210 97 C 122 181 69 303 53 463 L 188 489 C 223 232 347 104 561 104 C 671 104 758 129 820 179 C 882 228 913 295 913 379 C 913 441 895 494 859 539 C 822 584 748 634 637 688 C 499 754 400 822 342 890 C 283 958 254 1038 254 1130 C 254 1254 297 1355 384 1431 C 471 1507 588 1546 735 1546 C 989 1546 1147 1415 1210 1153 L 1077 1118 Z M 119 -372 L 170 -270 C 229 -304 301 -321 387 -321 C 469 -321 511 -294 511 -241 C 511 -202 477 -179 410 -173 L 451 -68 C 513 -74 561 -92 595 -122 C 629 -152 647 -188 647 -230 C 647 -289 622 -336 572 -371 C 522 -406 460 -424 387 -424 C 286 -424 197 -406 119 -372 Z" unicode="Ş" />
<glyph horiz-adv-x="907" d="M 745 825 C 695 929 617 981 512 981 C 450 981 398 964 358 930 C 317 896 297 856 297 809 C 297 741 363 678 497 618 C 597 573 668 527 710 481 C 751 434 772 374 772 301 C 772 208 737 131 667 70 C 597 8 509 -22 401 -22 C 222 -22 86 75 -8 270 L 112 327 C 155 239 198 178 240 146 C 282 114 334 98 395 98 C 465 98 522 116 566 153 C 609 190 631 237 631 293 C 631 327 620 358 598 388 C 576 417 522 453 436 496 C 330 547 257 593 216 633 C 175 673 155 726 155 794 C 155 883 188 956 255 1012 C 322 1068 408 1097 512 1097 C 666 1097 782 1024 858 880 L 745 825 Z M -21 -372 L 30 -270 C 89 -304 161 -321 247 -321 C 329 -321 371 -294 371 -241 C 371 -202 337 -179 270 -173 L 311 -68 C 373 -74 421 -92 455 -122 C 489 -152 507 -188 507 -230 C 507 -289 482 -336 432 -371 C 382 -406 320 -424 247 -424 C 146 -424 57 -406 -21 -372 Z" unicode="ş" />
<glyph horiz-adv-x="1190" d="M 1077 1118 C 1031 1314 912 1413 721 1413 C 623 1413 546 1389 490 1342 C 434 1295 405 1232 405 1153 C 405 1113 413 1076 430 1042 C 446 1008 469 980 497 956 C 525 932 594 890 704 830 C 838 756 932 691 985 633 C 1038 575 1065 494 1065 389 C 1065 261 1018 160 926 85 C 834 9 713 -28 563 -28 C 415 -28 298 13 210 97 C 122 181 69 303 53 463 L 188 489 C 223 232 347 104 561 104 C 671 104 758 129 820 179 C 882 228 913 295 913 379 C 913 441 895 494 859 539 C 822 584 748 634 637 688 C 499 754 400 822 342 890 C 283 958 254 1038 254 1130 C 254 1254 297 1355 384 1431 C 471 1507 588 1546 735 1546 C 989 1546 1147 1415 1210 1153 L 1077 1118 Z M 700 1622 L 518 1942 L 604 1942 L 782 1764 L 1044 1942 L 1140 1942 L 825 1622 L 700 1622 Z" unicode="Š" />
<glyph horiz-adv-x="907" d="M 745 825 C 695 929 617 981 512 981 C 450 981 398 964 358 930 C 317 896 297 856 297 809 C 297 741 363 678 497 618 C 597 573 668 527 710 481 C 751 434 772 374 772 301 C 772 208 737 131 667 70 C 597 8 509 -22 401 -22 C 222 -22 86 75 -8 270 L 112 327 C 155 239 198 178 240 146 C 282 114 334 98 395 98 C 465 98 522 116 566 153 C 609 190 631 237 631 293 C 631 327 620 358 598 388 C 576 417 522 453 436 496 C 330 547 257 593 216 633 C 175 673 155 726 155 794 C 155 883 188 956 255 1012 C 322 1068 408 1097 512 1097 C 666 1097 782 1024 858 880 L 745 825 Z M 512 1210 L 330 1530 L 416 1530 L 594 1352 L 856 1530 L 952 1530 L 637 1210 L 512 1210 Z" unicode="š" />
<glyph horiz-adv-x="1188" d="M 1331 1515 L 1305 1382 L 832 1382 L 563 0 L 410 0 L 678 1382 L 203 1382 L 227 1515 L 1331 1515 Z M 347 -105 C 371 -103 390 -103 403 -103 C 561 -103 641 -152 641 -252 C 641 -309 615 -355 565 -391 C 515 -426 453 -444 380 -444 C 300 -444 234 -433 181 -413 L 227 -315 C 274 -332 326 -341 383 -341 C 465 -341 507 -315 507 -263 C 507 -216 456 -193 356 -193 C 340 -193 317 -193 288 -195 L 347 -105 Z" unicode="Ţ" />
<glyph horiz-adv-x="657" d="M 702 1075 L 680 952 L 442 952 L 320 319 C 310 266 305 232 305 216 C 305 176 313 149 329 135 C 345 120 370 113 404 113 C 454 113 514 126 583 152 L 559 29 C 489 -5 419 -22 351 -22 C 225 -22 162 46 162 184 C 162 237 169 301 184 377 L 299 952 L 102 952 L 125 1075 L 320 1075 L 391 1440 L 534 1440 L 467 1075 L 702 1075 Z M 251 -105 C 275 -103 294 -103 307 -103 C 465 -103 545 -152 545 -252 C 545 -309 519 -355 469 -391 C 419 -426 357 -444 284 -444 C 204 -444 138 -433 85 -413 L 131 -315 C 178 -332 230 -341 287 -341 C 369 -341 411 -315 411 -263 C 411 -216 360 -193 260 -193 C 244 -193 221 -193 192 -195 L 251 -105 Z" unicode="ţ" />
<glyph horiz-adv-x="1188" d="M 1304 1382 L 831 1382 L 563 0 L 409 0 L 678 1382 L 203 1382 L 227 1515 L 1331 1515 L 1304 1382 Z M 721 1622 L 539 1942 L 625 1942 L 803 1764 L 1065 1942 L 1161 1942 L 846 1622 L 721 1622 Z" unicode="Ť" />
<glyph horiz-adv-x="928" d="M 680 952 L 442 952 L 319 319 C 311 276 307 242 307 217 C 307 178 314 151 329 137 C 343 122 369 114 407 114 C 461 114 519 126 583 151 L 559 28 C 485 -5 416 -22 352 -22 C 223 -22 159 46 159 182 C 159 228 167 293 184 377 L 299 952 L 102 952 L 125 1075 L 321 1075 L 391 1439 L 534 1439 L 467 1075 L 702 1075 L 680 952 Z M 995 1350 L 897 1350 L 942 1544 L 1149 1544 L 1104 1354 L 884 1092 L 798 1092 L 995 1350 Z" unicode="ť" />
<glyph horiz-adv-x="1188" d="M 729 856 L 1078 856 L 1055 735 L 706 735 L 563 0 L 410 0 L 552 735 L 205 735 L 227 856 L 576 856 L 678 1382 L 203 1382 L 228 1515 L 1331 1515 L 1305 1382 L 832 1382 L 729 856 Z" unicode="Ŧ" />
<glyph horiz-adv-x="657" d="M 392 695 L 630 695 L 607 572 L 369 572 L 320 319 C 310 266 305 232 305 216 C 305 176 313 149 329 135 C 345 120 370 113 404 113 C 454 113 514 126 583 152 L 559 29 C 488 -5 418 -22 350 -22 C 224 -22 161 46 161 184 C 161 237 168 301 184 377 L 223 572 L 10 572 L 35 695 L 247 695 L 298 952 L 102 952 L 124 1075 L 320 1075 L 391 1440 L 534 1440 L 466 1075 L 702 1075 L 679 952 L 442 952 L 392 695 Z" unicode="ŧ" />
<glyph horiz-adv-x="1458" d="M 1259 467 C 1197 137 997 -28 661 -28 C 500 -28 378 11 295 91 C 211 171 170 271 170 393 C 170 459 177 532 192 610 L 366 1515 L 520 1515 L 350 643 C 333 557 325 477 325 405 C 325 315 354 242 413 187 C 471 131 553 104 657 104 C 788 104 891 137 966 204 C 1040 271 1092 382 1122 538 L 1306 1515 L 1458 1515 L 1259 467 Z M 683 1660 L 601 1660 C 617 1739 648 1801 694 1845 C 739 1889 790 1912 847 1912 C 887 1912 932 1891 982 1849 C 1031 1806 1066 1785 1086 1785 C 1140 1785 1186 1827 1226 1912 L 1308 1912 C 1290 1834 1258 1771 1212 1725 C 1166 1679 1114 1656 1056 1656 C 1016 1656 973 1677 927 1720 C 880 1762 844 1783 820 1783 C 766 1783 721 1742 683 1660 Z" unicode="Ũ" />
<glyph horiz-adv-x="1171" d="M 876 1 L 745 1 L 780 187 C 660 48 539 -21 417 -21 C 337 -21 271 4 219 58 C 167 111 141 185 141 279 C 141 323 145 368 155 416 L 288 1076 L 432 1076 L 305 425 C 292 361 286 309 286 267 C 286 220 301 183 331 156 C 361 128 401 115 452 115 C 556 115 671 190 796 341 L 940 1076 L 1083 1076 L 876 1 Z M 467 1248 L 385 1248 C 401 1327 432 1389 478 1433 C 523 1477 574 1500 631 1500 C 671 1500 716 1479 766 1437 C 815 1394 850 1373 870 1373 C 924 1373 970 1415 1010 1500 L 1092 1500 C 1074 1422 1042 1359 996 1313 C 950 1267 898 1244 840 1244 C 800 1244 757 1265 711 1308 C 664 1350 628 1371 604 1371 C 550 1371 505 1330 467 1248 Z" unicode="ũ" />
<glyph horiz-adv-x="1458" d="M 1259 467 C 1197 137 997 -28 661 -28 C 500 -28 378 11 295 91 C 211 171 170 271 170 393 C 170 459 177 532 192 610 L 366 1515 L 520 1515 L 350 643 C 333 557 325 477 325 405 C 325 315 354 242 413 187 C 471 131 553 104 657 104 C 788 104 891 137 966 204 C 1040 271 1092 382 1122 538 L 1306 1515 L 1458 1515 L 1259 467 Z M 619 1721 L 644 1846 L 1236 1846 L 1211 1721 L 619 1721 Z" unicode="Ū" />
<glyph horiz-adv-x="1171" d="M 876 1 L 745 1 L 780 187 C 660 48 539 -21 417 -21 C 337 -21 271 4 219 58 C 167 111 141 185 141 279 C 141 323 145 368 155 416 L 288 1076 L 432 1076 L 305 425 C 292 361 286 309 286 267 C 286 220 301 183 331 156 C 361 128 401 115 452 115 C 556 115 671 190 796 341 L 940 1076 L 1083 1076 L 876 1 Z M 434 1310 L 459 1435 L 1051 1435 L 1026 1310 L 434 1310 Z" unicode="ū" />
<glyph horiz-adv-x="1458" d="M 1261 467 C 1199 137 999 -28 663 -28 C 502 -28 380 11 297 91 C 213 171 172 271 172 393 C 172 459 179 532 194 610 L 368 1515 L 522 1515 L 352 643 C 335 557 327 477 327 405 C 327 315 356 242 415 187 C 473 131 555 104 659 104 C 790 104 893 137 968 204 C 1042 271 1094 382 1124 538 L 1308 1515 L 1460 1515 L 1261 467 Z M 1176 1911 L 1281 1911 C 1195 1740 1073 1655 914 1655 C 852 1655 796 1678 748 1725 C 700 1771 670 1833 658 1911 L 752 1911 C 779 1837 842 1801 941 1801 C 1041 1801 1119 1837 1176 1911 Z" unicode="Ŭ" />
<glyph horiz-adv-x="1171" d="M 874 0 L 743 0 L 778 186 C 658 47 537 -22 415 -22 C 335 -22 269 3 217 57 C 165 110 139 184 139 278 C 139 322 143 367 153 415 L 286 1075 L 430 1075 L 303 424 C 290 360 284 308 284 266 C 284 219 299 182 329 155 C 359 127 399 114 450 114 C 554 114 669 189 794 340 L 938 1075 L 1081 1075 L 874 0 Z M 959 1499 L 1064 1499 C 978 1328 856 1243 697 1243 C 635 1243 579 1266 531 1313 C 483 1359 453 1421 441 1499 L 535 1499 C 562 1425 625 1389 724 1389 C 824 1389 902 1425 959 1499 Z" unicode="ŭ" />
<glyph horiz-adv-x="1458" d="M 1259 467 C 1197 137 997 -28 661 -28 C 500 -28 378 11 295 91 C 211 171 170 271 170 393 C 170 459 177 532 192 610 L 366 1515 L 520 1515 L 350 643 C 333 557 325 477 325 405 C 325 315 354 242 413 187 C 471 131 553 104 657 104 C 788 104 891 137 966 204 C 1040 271 1092 382 1122 538 L 1306 1515 L 1458 1515 L 1259 467 Z M 739 1814 C 739 1870 759 1919 799 1959 C 839 1999 887 2019 943 2019 C 999 2019 1047 1999 1087 1959 C 1126 1919 1146 1870 1146 1814 C 1146 1758 1126 1710 1086 1671 C 1046 1631 999 1612 945 1612 C 887 1612 838 1631 798 1671 C 758 1710 739 1758 739 1814 Z M 1078 1814 C 1078 1852 1065 1885 1039 1913 C 1012 1940 979 1954 941 1954 C 903 1954 870 1940 844 1914 C 817 1887 804 1854 804 1816 C 804 1777 818 1744 845 1717 C 872 1690 903 1677 939 1677 C 979 1677 1013 1691 1039 1718 C 1065 1744 1078 1776 1078 1814 Z" unicode="Ů" />
<glyph horiz-adv-x="1171" d="M 876 1 L 745 1 L 780 187 C 660 48 539 -21 417 -21 C 337 -21 271 4 219 58 C 167 111 141 185 141 279 C 141 323 145 368 155 416 L 288 1076 L 432 1076 L 305 425 C 292 361 286 309 286 267 C 286 220 301 183 331 156 C 361 128 401 115 452 115 C 556 115 671 190 796 341 L 940 1076 L 1083 1076 L 876 1 Z M 519 1402 C 519 1458 539 1507 579 1547 C 619 1587 667 1607 723 1607 C 779 1607 827 1587 867 1547 C 906 1507 926 1458 926 1402 C 926 1346 906 1298 866 1259 C 826 1219 779 1200 725 1200 C 667 1200 618 1219 578 1259 C 538 1298 519 1346 519 1402 Z M 858 1402 C 858 1440 845 1473 819 1501 C 792 1528 759 1542 721 1542 C 683 1542 650 1528 624 1502 C 597 1475 584 1442 584 1404 C 584 1365 598 1332 625 1305 C 652 1278 683 1265 719 1265 C 759 1265 793 1279 819 1306 C 845 1332 858 1364 858 1402 Z" unicode="ů" />
<glyph horiz-adv-x="1458" d="M 1259 467 C 1197 137 997 -28 661 -28 C 500 -28 378 11 295 91 C 211 171 170 271 170 393 C 170 459 177 532 192 610 L 366 1515 L 520 1515 L 350 643 C 333 557 325 477 325 405 C 325 315 354 242 413 187 C 471 131 553 104 657 104 C 788 104 891 137 966 204 C 1040 271 1092 382 1122 538 L 1306 1515 L 1458 1515 L 1259 467 Z M 592 1622 L 874 1952 L 1098 1952 L 717 1622 L 592 1622 Z M 963 1622 L 1245 1952 L 1468 1952 L 1087 1622 L 963 1622 Z" unicode="Ű" />
<glyph horiz-adv-x="1171" d="M 876 1 L 745 1 L 780 187 C 660 48 539 -21 417 -21 C 337 -21 271 4 219 58 C 167 111 141 185 141 279 C 141 323 145 368 155 416 L 288 1076 L 432 1076 L 305 425 C 292 361 286 309 286 267 C 286 220 301 183 331 156 C 361 128 401 115 452 115 C 556 115 671 190 796 341 L 940 1076 L 1083 1076 L 876 1 Z M 420 1210 L 702 1540 L 926 1540 L 545 1210 L 420 1210 Z M 791 1210 L 1073 1540 L 1296 1540 L 915 1210 L 791 1210 Z" unicode="ű" />
<glyph horiz-adv-x="1458" d="M 993 46 C 934 -28 905 -96 905 -159 C 905 -233 938 -270 1006 -270 C 1069 -270 1133 -252 1197 -217 L 1175 -336 C 1095 -380 1019 -403 947 -403 C 891 -403 846 -386 812 -354 C 778 -322 761 -283 761 -237 C 761 -173 785 -97 834 -10 C 776 -22 716 -28 652 -28 C 500 -28 382 11 297 91 C 212 171 170 277 170 409 C 170 457 178 524 195 610 L 369 1515 L 522 1515 L 352 643 C 337 565 330 492 330 426 C 330 317 360 236 420 184 C 480 132 560 106 659 106 C 793 106 896 140 970 208 C 1044 276 1095 386 1124 539 L 1309 1515 L 1460 1515 L 1262 467 C 1224 266 1134 126 993 46 Z" unicode="Ų" />
<glyph horiz-adv-x="1171" d="M 743 0 L 778 186 C 658 47 536 -22 412 -22 C 334 -22 270 4 218 57 C 166 109 141 181 141 272 C 141 327 145 375 153 416 L 286 1075 L 430 1075 L 303 424 C 290 360 284 310 284 273 C 284 219 299 179 331 153 C 362 126 400 113 444 113 C 549 113 666 188 794 340 L 938 1075 L 1081 1075 L 874 0 L 860 0 C 822 -52 804 -107 804 -163 C 804 -234 837 -270 905 -270 C 969 -270 1033 -252 1098 -217 L 1075 -336 C 995 -381 920 -404 849 -404 C 791 -404 746 -387 712 -355 C 678 -322 661 -283 661 -238 C 661 -166 688 -86 743 0 Z" unicode="ų" />
<glyph horiz-adv-x="1798" d="M 1939 1515 L 1155 0 L 1007 0 L 1044 1280 L 426 0 L 278 0 L 278 1515 L 432 1515 L 415 268 L 1014 1515 L 1183 1515 L 1145 266 L 1773 1515 L 1939 1515 Z M 1212 1942 L 1395 1622 L 1307 1622 L 1131 1803 L 868 1622 L 772 1622 L 1088 1942 L 1212 1942 Z" unicode="Ŵ" />
<glyph horiz-adv-x="1452" d="M 1503 1075 L 981 0 L 827 0 L 778 876 L 393 0 L 235 0 L 153 1075 L 299 1075 L 348 178 L 749 1075 L 889 1075 L 934 186 L 1353 1075 L 1503 1075 Z M 951 1530 L 1134 1210 L 1046 1210 L 870 1391 L 607 1210 L 511 1210 L 827 1530 L 951 1530 Z" unicode="ŵ" />
<glyph horiz-adv-x="1102" d="M 639 612 L 520 0 L 366 0 L 489 637 L 217 1515 L 377 1515 L 594 776 L 1087 1515 L 1255 1515 L 639 612 Z M 876 1942 L 1059 1622 L 971 1622 L 795 1803 L 532 1622 L 436 1622 L 752 1942 L 876 1942 Z" unicode="Ŷ" />
<glyph horiz-adv-x="940" d="M 366 -166 C 276 -343 164 -432 30 -432 C -17 -432 -62 -421 -106 -401 L -82 -274 C -39 -290 -2 -299 30 -299 C 127 -299 217 -206 299 -22 L 123 1075 L 276 1075 L 397 166 L 829 1075 L 993 1075 L 366 -166 Z M 695 1530 L 878 1210 L 790 1210 L 614 1391 L 351 1210 L 255 1210 L 571 1530 L 695 1530 Z" unicode="ŷ" />
<glyph horiz-adv-x="1102" d="M 639 612 L 520 0 L 366 0 L 489 637 L 217 1515 L 377 1515 L 594 776 L 1087 1515 L 1255 1515 L 639 612 Z M 473 1661 L 508 1835 L 682 1835 L 647 1661 L 473 1661 Z M 882 1661 L 917 1835 L 1091 1835 L 1057 1661 L 882 1661 Z" unicode="Ÿ" />
<glyph horiz-adv-x="1206" d="M 1270 1413 L 172 133 L 1038 133 L 1009 0 L -39 0 L -14 131 L 1057 1382 L 301 1382 L 329 1515 L 1290 1515 L 1270 1413 Z M 682 1622 L 963 1952 L 1192 1952 L 811 1622 L 682 1622 Z" unicode="Ź" />
<glyph horiz-adv-x="944" d="M 950 956 L 151 125 L 805 125 L 782 0 L -41 0 L -16 135 L 768 952 L 168 952 L 188 1075 L 971 1075 L 950 956 Z M 444 1210 L 725 1540 L 954 1540 L 573 1210 L 444 1210 Z" unicode="ź" />
<glyph horiz-adv-x="1206" d="M 1270 1413 L 172 133 L 1038 133 L 1009 0 L -39 0 L -14 131 L 1057 1382 L 301 1382 L 329 1515 L 1290 1515 L 1270 1413 Z M 728 1677 L 767 1871 L 935 1871 L 896 1677 L 728 1677 Z" unicode="Ż" />
<glyph horiz-adv-x="944" d="M 950 956 L 151 125 L 805 125 L 782 0 L -41 0 L -16 135 L 768 952 L 168 952 L 188 1075 L 971 1075 L 950 956 Z M 525 1266 L 564 1460 L 732 1460 L 693 1266 L 525 1266 Z" unicode="ż" />
<glyph horiz-adv-x="1206" d="M 1270 1413 L 172 133 L 1038 133 L 1009 0 L -39 0 L -14 131 L 1057 1382 L 301 1382 L 329 1515 L 1290 1515 L 1270 1413 Z M 751 1622 L 569 1942 L 655 1942 L 833 1764 L 1095 1942 L 1191 1942 L 876 1622 L 751 1622 Z" unicode="Ž" />
<glyph horiz-adv-x="944" d="M 950 956 L 151 125 L 805 125 L 782 0 L -41 0 L -16 135 L 768 952 L 168 952 L 188 1075 L 971 1075 L 950 956 Z M 538 1210 L 356 1530 L 442 1530 L 620 1352 L 882 1530 L 978 1530 L 663 1210 L 538 1210 Z" unicode="ž" />
<glyph horiz-adv-x="578" d="M 711 1499 L 688 1368 C 659 1377 631 1382 605 1382 C 559 1382 526 1365 506 1332 C 486 1299 465 1228 445 1118 L 229 0 L 86 0 L 305 1139 C 329 1263 351 1345 372 1386 C 392 1426 422 1458 462 1481 C 501 1503 548 1515 602 1515 C 638 1515 675 1509 711 1499 Z" unicode="ſ" />
<glyph horiz-adv-x="802" d="M 945 1384 C 890 1404 837 1414 786 1414 C 744 1414 713 1403 691 1381 C 669 1359 647 1304 626 1217 L 602 1120 L 825 1120 L 800 1009 L 579 1009 L 333 -111 C 294 -288 200 -377 51 -377 C -17 -377 -81 -365 -143 -343 L -116 -225 C -65 -241 -15 -249 34 -249 C 73 -249 106 -235 132 -209 C 158 -182 176 -150 185 -114 C 194 -77 207 -19 225 61 L 431 1009 L 263 1009 L 286 1120 L 454 1120 L 479 1218 C 503 1312 525 1379 545 1420 C 565 1461 594 1492 632 1514 C 670 1535 718 1546 774 1546 C 836 1546 901 1534 970 1511 L 945 1384 Z" unicode="ƒ" />
<glyph horiz-adv-x="1292" d="M 1018 0 L 944 456 L 327 456 L 102 0 L -57 0 L 700 1515 L 927 1515 L 1173 0 L 1018 0 Z M 796 1419 L 391 590 L 925 590 L 796 1419 Z M 651 1786 C 651 1842 671 1891 711 1931 C 751 1971 799 1991 855 1991 C 911 1991 959 1971 999 1931 C 1038 1891 1058 1842 1058 1786 C 1058 1730 1038 1682 998 1643 C 958 1603 911 1584 857 1584 C 799 1584 750 1603 710 1643 C 670 1682 651 1730 651 1786 Z M 990 1786 C 990 1824 977 1857 951 1885 C 924 1912 891 1926 853 1926 C 815 1926 782 1912 756 1886 C 729 1859 716 1826 716 1788 C 716 1749 730 1716 757 1689 C 784 1662 815 1649 851 1649 C 891 1649 925 1663 951 1690 C 977 1716 990 1748 990 1786 Z M 725 2092 L 1006 2422 L 1235 2422 L 854 2092 L 725 2092 Z" unicode="Ǻ" />
<glyph horiz-adv-x="1065" d="M 907 614 L 835 258 C 819 177 811 91 811 0 L 676 0 C 668 30 665 71 665 121 C 547 25 442 -22 350 -22 C 263 -22 190 7 132 67 C 74 127 45 200 45 286 C 45 398 95 484 197 546 C 299 608 441 639 624 639 L 770 639 C 779 686 784 728 784 766 C 784 832 763 883 721 920 C 679 956 621 975 547 975 C 469 975 389 934 307 852 L 207 946 C 338 1046 457 1097 565 1097 C 674 1097 761 1067 827 1009 C 893 950 925 874 925 780 C 925 729 919 674 907 614 Z M 645 524 C 341 524 190 447 190 295 C 190 240 208 194 244 157 C 280 120 325 102 377 102 C 465 102 568 147 688 239 L 747 524 L 645 524 Z M 442 1374 C 442 1430 462 1479 502 1519 C 542 1559 590 1579 646 1579 C 702 1579 750 1559 790 1519 C 829 1479 849 1430 849 1374 C 849 1318 829 1270 789 1231 C 749 1191 702 1172 648 1172 C 590 1172 541 1191 501 1231 C 461 1270 442 1318 442 1374 Z M 781 1374 C 781 1412 768 1445 742 1473 C 715 1500 682 1514 644 1514 C 606 1514 573 1500 547 1474 C 520 1447 507 1414 507 1376 C 507 1337 521 1304 548 1277 C 575 1250 606 1237 642 1237 C 682 1237 716 1251 742 1278 C 768 1304 781 1336 781 1374 Z M 546 1651 L 827 1981 L 1056 1981 L 675 1651 L 546 1651 Z" unicode="ǻ" />
<glyph horiz-adv-x="1837" d="M 1898 1384 L 1192 1384 L 1089 858 L 1661 858 L 1636 725 L 1063 725 L 948 133 L 1712 133 L 1685 0 L 768 0 L 856 456 L 327 456 L 88 0 L -71 0 L 741 1515 L 1925 1515 L 1898 1384 Z M 815 1384 L 393 583 L 880 583 L 1038 1384 L 815 1384 Z M 959 1622 L 1240 1952 L 1469 1952 L 1088 1622 L 959 1622 Z" unicode="Ǽ" />
<glyph horiz-adv-x="1741" d="M 1646 532 L 887 532 L 878 446 C 875 414 881 369 896 311 C 910 252 941 202 987 162 C 1033 122 1092 102 1163 102 C 1294 102 1407 186 1501 356 L 1618 293 C 1491 83 1332 -22 1140 -22 C 970 -22 851 53 783 203 C 617 53 472 -22 350 -22 C 263 -22 190 7 132 67 C 74 127 45 200 45 286 C 45 398 95 484 197 546 C 299 608 441 639 624 639 L 770 639 C 779 686 784 728 784 766 C 784 832 763 883 721 920 C 679 956 621 975 547 975 C 469 975 389 934 307 852 L 207 946 C 338 1046 457 1097 565 1097 C 726 1097 834 1032 890 903 C 991 1032 1118 1097 1272 1097 C 1395 1097 1490 1060 1558 986 C 1625 911 1659 805 1659 669 C 1659 639 1654 593 1646 532 Z M 913 651 L 1511 651 C 1516 672 1519 695 1519 721 C 1519 799 1496 861 1451 907 C 1406 953 1346 977 1272 977 C 1092 977 973 868 913 651 Z M 645 524 C 341 524 190 447 190 295 C 190 240 208 194 244 157 C 280 120 325 102 377 102 C 465 102 568 147 688 239 L 747 524 L 645 524 Z M 813 1210 L 1094 1540 L 1323 1540 L 942 1210 L 813 1210 Z" unicode="ǽ" />
<glyph horiz-adv-x="1470" d="M 297 122 L 168 -26 L 92 43 L 233 206 C 171 308 141 438 141 594 C 141 825 208 1041 342 1243 C 476 1445 653 1546 874 1546 C 1038 1546 1168 1496 1262 1398 L 1388 1544 L 1464 1474 L 1326 1314 C 1385 1214 1415 1087 1415 934 C 1415 698 1349 479 1218 276 C 1086 73 911 -28 692 -28 C 524 -28 392 22 297 122 Z M 337 327 L 1155 1274 C 1083 1365 993 1411 884 1411 C 709 1411 568 1319 460 1137 C 352 954 299 757 299 545 C 299 461 311 389 337 327 Z M 391 232 C 459 146 552 104 671 104 C 845 104 985 195 1093 376 C 1201 556 1255 748 1255 952 C 1255 1036 1240 1112 1210 1180 L 391 232 Z M 792 1622 L 1073 1952 L 1302 1952 L 921 1622 L 792 1622 Z" unicode="Ǿ" />
<glyph horiz-adv-x="1110" d="M 236 72 L 137 -45 L 61 24 L 172 155 C 126 233 104 329 104 444 C 104 628 154 783 255 909 C 356 1034 479 1097 624 1097 C 728 1097 813 1061 881 991 L 971 1097 L 1046 1028 L 942 905 C 982 827 1003 734 1003 626 C 1003 449 952 297 851 169 C 750 41 629 -22 487 -22 C 385 -22 302 9 236 72 Z M 272 273 L 791 885 C 745 943 684 973 610 973 C 513 973 428 919 356 811 C 284 703 248 572 248 420 C 248 365 256 316 272 273 Z M 327 179 C 372 127 427 102 493 102 C 593 102 679 155 751 263 C 823 371 860 499 860 647 C 860 698 853 744 841 786 L 327 179 Z M 518 1210 L 799 1540 L 1028 1540 L 647 1210 L 518 1210 Z" unicode="ǿ" />
<glyph horiz-adv-x="682" d="M 585 1530 L 768 1210 L 680 1210 L 504 1391 L 241 1210 L 145 1210 L 461 1530 L 585 1530 Z" unicode="ˆ" />
<glyph horiz-adv-x="682" d="M 393 1210 L 211 1530 L 297 1530 L 475 1352 L 737 1530 L 833 1530 L 518 1210 L 393 1210 Z" unicode="ˇ" />
<glyph horiz-adv-x="682" d="M 188 1309 L 213 1434 L 805 1434 L 780 1309 L 188 1309 Z" unicode="ˉ" />
<glyph horiz-adv-x="682" d="M 732 1499 L 837 1499 C 751 1328 629 1243 470 1243 C 408 1243 352 1266 304 1313 C 256 1359 226 1421 214 1499 L 308 1499 C 335 1425 398 1389 497 1389 C 597 1389 675 1425 732 1499 Z" unicode="˘" />
<glyph horiz-adv-x="682" d="M 385 1266 L 424 1460 L 592 1460 L 553 1266 L 385 1266 Z" unicode="˙" />
<glyph horiz-adv-x="682" d="M 289 1374 C 289 1430 309 1479 349 1519 C 389 1559 437 1579 493 1579 C 549 1579 597 1559 637 1519 C 676 1479 696 1430 696 1374 C 696 1318 676 1270 636 1231 C 596 1191 549 1172 495 1172 C 437 1172 388 1191 348 1231 C 308 1270 289 1318 289 1374 Z M 628 1374 C 628 1412 615 1445 589 1473 C 562 1500 529 1514 491 1514 C 453 1514 420 1500 394 1474 C 367 1447 354 1414 354 1376 C 354 1337 368 1304 395 1277 C 422 1250 453 1237 489 1237 C 529 1237 563 1251 589 1278 C 615 1304 628 1336 628 1374 Z" unicode="˚" />
<glyph horiz-adv-x="682" d="M 547 -246 L 524 -364 C 444 -409 366 -432 291 -432 C 240 -432 197 -416 163 -384 C 129 -352 111 -311 111 -261 C 111 -177 148 -82 223 24 L 348 24 C 284 -57 252 -125 252 -181 C 252 -261 286 -301 356 -301 C 422 -301 486 -282 547 -246 Z" unicode="˛" />
<glyph horiz-adv-x="682" d="M 221 1247 L 139 1247 C 155 1326 186 1388 232 1432 C 277 1476 328 1499 385 1499 C 425 1499 470 1478 520 1436 C 569 1393 604 1372 624 1372 C 678 1372 724 1414 764 1499 L 846 1499 C 828 1421 796 1358 750 1312 C 704 1266 652 1243 594 1243 C 554 1243 511 1264 465 1307 C 418 1349 382 1370 358 1370 C 304 1370 259 1329 221 1247 Z" unicode="˜" />
<glyph horiz-adv-x="682" d="M 174 1210 L 456 1540 L 680 1540 L 299 1210 L 174 1210 Z M 545 1210 L 827 1540 L 1050 1540 L 669 1210 L 545 1210 Z" unicode="˝" />
<glyph horiz-adv-x="641" d="M 284 850 L 327 1075 L 524 1075 L 481 850 L 284 850 Z M 121 0 L 166 231 L 362 231 L 319 6 L 106 -301 L 24 -301 L 217 0 L 121 0 Z" unicode=";" />
<glyph horiz-adv-x="682" d="M 414 1279 L 289 1279 L 554 1515 L 777 1515 L 414 1279 Z" unicode="΄" />
<glyph horiz-adv-x="682" d="M 443 1221 L 360 1221 L 453 1486 L 640 1486 L 443 1221 Z M 750 1221 L 588 1221 L 620 1383 L 782 1383 L 750 1221 Z M 300 1221 L 138 1221 L 169 1383 L 332 1383 L 300 1221 Z" unicode="΅" />
<glyph horiz-adv-x="1292" d="M 1018 0 L 944 456 L 327 456 L 102 0 L -57 0 L 700 1515 L 927 1515 L 1173 0 L 1018 0 Z M 796 1419 L 391 590 L 925 590 L 796 1419 Z M 265 1279 L 140 1279 L 405 1515 L 628 1515 L 265 1279 Z" unicode="Ά" />
<glyph horiz-adv-x="641" d="M 482 850 L 283 850 L 326 1075 L 525 1075 L 482 850 Z" unicode="·" />
<glyph horiz-adv-x="1161" d="M 1229 1382 L 520 1382 L 418 858 L 991 858 L 966 725 L 393 725 L 276 133 L 1040 133 L 1016 0 L 98 0 L 393 1515 L 1255 1515 L 1229 1382 Z M -43 1279 L -168 1279 L 97 1515 L 320 1515 L -43 1279 Z" unicode="Έ" />
<glyph horiz-adv-x="1505" d="M 1198 0 L 1044 0 L 1181 715 L 395 715 L 254 0 L 98 0 L 391 1515 L 547 1515 L 415 844 L 1204 844 L 1335 1515 L 1489 1515 L 1198 0 Z M -45 1279 L -170 1279 L 95 1515 L 318 1515 L -45 1279 Z" unicode="Ή" />
<glyph horiz-adv-x="559" d="M 252 0 L 98 0 L 389 1515 L 542 1515 L 252 0 Z M -47 1279 L -172 1279 L 93 1515 L 316 1515 L -47 1279 Z" unicode="Ί" />
<glyph horiz-adv-x="1470" d="M 692 -28 C 324 -28 141 179 141 594 C 141 825 208 1041 342 1243 C 476 1445 653 1546 874 1546 C 1046 1546 1179 1492 1273 1386 C 1367 1279 1415 1128 1415 934 C 1415 698 1349 479 1218 276 C 1086 73 911 -28 692 -28 Z M 299 545 C 299 407 333 299 401 221 C 469 143 559 104 671 104 C 845 104 985 195 1093 376 C 1201 556 1255 748 1255 952 C 1255 1086 1219 1196 1148 1282 C 1077 1368 989 1411 884 1411 C 709 1411 568 1319 460 1137 C 352 954 299 757 299 545 Z M 107 1279 L -18 1279 L 247 1515 L 470 1515 L 107 1279 Z" unicode="Ό" />
<glyph horiz-adv-x="1102" d="M 639 612 L 520 0 L 366 0 L 489 637 L 217 1515 L 377 1515 L 594 776 L 1087 1515 L 1255 1515 L 639 612 Z M -219 1279 L -344 1279 L -79 1515 L 144 1515 L -219 1279 Z" unicode="Ύ" />
<glyph horiz-adv-x="1473" d="M 1018 132 L 1238 132 L 1213 0 L 745 0 L 781 132 C 936 190 1057 300 1144 460 C 1230 620 1274 782 1274 945 C 1274 1080 1239 1192 1170 1280 C 1101 1368 1009 1412 895 1412 C 798 1412 703 1375 609 1303 C 515 1231 444 1133 397 1011 C 350 888 327 763 327 637 C 327 409 415 240 593 132 L 559 0 L 82 0 L 108 132 L 404 132 C 246 261 167 440 167 669 C 167 919 242 1127 392 1295 C 542 1462 717 1546 917 1546 C 1073 1546 1198 1490 1292 1380 C 1386 1269 1433 1120 1433 932 C 1433 616 1294 349 1018 132 Z M 115 1279 L -10 1279 L 255 1515 L 478 1515 L 115 1279 Z" unicode="Ώ" />
<glyph horiz-adv-x="524" d="M 440 1075 L 229 0 L 86 0 L 297 1075 L 440 1075 Z M 383 1249 L 300 1249 L 393 1514 L 580 1514 L 383 1249 Z M 690 1249 L 528 1249 L 560 1411 L 722 1411 L 690 1249 Z M 240 1249 L 78 1249 L 109 1411 L 272 1411 L 240 1249 Z" unicode="ΐ" />
<glyph horiz-adv-x="1292" d="M 1018 0 L 944 456 L 327 456 L 102 0 L -57 0 L 700 1515 L 927 1515 L 1173 0 L 1018 0 Z M 796 1419 L 391 590 L 925 590 L 796 1419 Z" unicode="Α" />
<glyph horiz-adv-x="1319" d="M 927 770 C 1005 741 1066 697 1110 639 C 1153 580 1175 514 1175 440 C 1175 300 1129 192 1037 115 C 944 38 802 0 612 0 L 98 0 L 389 1515 L 868 1515 C 1005 1515 1108 1483 1176 1419 C 1244 1355 1278 1266 1278 1153 C 1278 957 1161 829 927 770 Z M 833 1382 L 516 1382 L 413 850 L 717 850 C 845 850 943 878 1013 934 C 1083 990 1118 1063 1118 1155 C 1118 1236 1095 1294 1049 1330 C 1003 1365 931 1382 833 1382 Z M 663 717 L 389 717 L 278 133 L 641 133 C 758 133 850 161 916 217 C 982 273 1016 347 1016 438 C 1016 510 983 575 917 632 C 851 688 766 717 663 717 Z" unicode="Β" />
<glyph horiz-adv-x="1120" d="M 1261 1516 L 1239 1383 L 517 1383 L 250 0 L 98 0 L 389 1516 L 1261 1516 Z" unicode="Γ" />
<glyph horiz-adv-x="1292" d="M -57 0 L 701 1515 L 928 1515 L 1174 0 L -57 0 Z M 997 134 L 797 1419 L 168 134 L 997 134 Z" unicode="Δ" />
<glyph horiz-adv-x="1161" d="M 1229 1382 L 520 1382 L 418 858 L 991 858 L 966 725 L 393 725 L 276 133 L 1040 133 L 1016 0 L 98 0 L 393 1515 L 1255 1515 L 1229 1382 Z" unicode="Ε" />
<glyph horiz-adv-x="1206" d="M 1270 1413 L 172 133 L 1038 133 L 1009 0 L -39 0 L -14 131 L 1057 1382 L 301 1382 L 329 1515 L 1290 1515 L 1270 1413 Z" unicode="Ζ" />
<glyph horiz-adv-x="1505" d="M 1198 0 L 1044 0 L 1181 715 L 395 715 L 254 0 L 98 0 L 391 1515 L 547 1515 L 415 844 L 1204 844 L 1335 1515 L 1489 1515 L 1198 0 Z" unicode="Η" />
<glyph horiz-adv-x="1470" d="M 674 -28 C 506 -28 375 23 281 127 C 187 231 141 381 141 577 C 141 820 208 1042 343 1244 C 477 1445 657 1546 882 1546 C 1045 1546 1175 1493 1271 1388 C 1367 1283 1415 1132 1415 934 C 1415 700 1349 481 1217 277 C 1085 73 904 -28 674 -28 Z M 1255 954 C 1255 1091 1218 1202 1145 1286 C 1072 1370 985 1412 884 1412 C 720 1412 582 1324 470 1149 C 357 974 301 775 301 552 C 301 407 335 296 404 220 C 472 144 560 106 668 106 C 844 106 986 197 1094 381 C 1201 564 1255 755 1255 954 Z M 463 824 L 1108 824 L 1083 691 L 438 691 L 463 824 Z" unicode="Θ" />
<glyph horiz-adv-x="559" d="M 252 0 L 98 0 L 389 1515 L 542 1515 L 252 0 Z" unicode="Ι" />
<glyph horiz-adv-x="1263" d="M 723 897 L 1145 0 L 977 0 L 612 794 L 362 575 L 252 0 L 98 0 L 391 1515 L 545 1515 L 399 766 L 1218 1515 L 1421 1515 L 723 897 Z" unicode="Κ" />
<glyph horiz-adv-x="1292" d="M 1174 0 L 1018 0 L 797 1419 L 103 0 L -57 0 L 701 1515 L 928 1515 L 1174 0 Z" unicode="Λ" />
<glyph horiz-adv-x="1747" d="M 1439 0 L 1286 0 L 1554 1396 L 803 0 L 727 0 L 516 1396 L 243 0 L 98 0 L 393 1515 L 628 1515 C 674 1238 736 824 813 274 C 897 443 1117 857 1472 1515 L 1728 1515 L 1439 0 Z" unicode="Μ" />
<glyph horiz-adv-x="1546" d="M 1233 0 L 1124 0 L 514 1388 L 246 0 L 98 0 L 395 1515 L 616 1515 L 1147 299 L 1382 1513 L 1530 1515 L 1233 0 Z" unicode="Ν" />
<glyph horiz-adv-x="1014" d="M 1152 1515 L 1126 1382 L 213 1382 L 239 1515 L 1152 1515 Z M 233 824 L 889 824 L 865 691 L 209 691 L 233 824 Z M 886 133 L 861 0 L -56 0 L -30 133 L 886 133 Z" unicode="Ξ" />
<glyph horiz-adv-x="1470" d="M 692 -28 C 324 -28 141 179 141 594 C 141 825 208 1041 342 1243 C 476 1445 653 1546 874 1546 C 1046 1546 1179 1492 1273 1386 C 1367 1279 1415 1128 1415 934 C 1415 698 1349 479 1218 276 C 1086 73 911 -28 692 -28 Z M 299 545 C 299 407 333 299 401 221 C 469 143 559 104 671 104 C 845 104 985 195 1093 376 C 1201 556 1255 748 1255 952 C 1255 1086 1219 1196 1148 1282 C 1077 1368 989 1411 884 1411 C 709 1411 568 1319 460 1137 C 352 954 299 757 299 545 Z" unicode="Ο" />
<glyph horiz-adv-x="1505" d="M 1489 1515 L 1198 0 L 1044 0 L 1313 1382 L 526 1382 L 254 0 L 98 0 L 391 1515 L 1489 1515 Z" unicode="Π" />
<glyph horiz-adv-x="1292" d="M 784 674 L 379 674 L 250 0 L 98 0 L 389 1515 L 887 1515 C 1034 1515 1144 1480 1218 1411 C 1292 1341 1329 1252 1329 1143 C 1329 1007 1279 895 1181 807 C 1083 718 950 674 784 674 Z M 874 1382 L 518 1382 L 403 807 L 772 807 C 899 807 997 836 1067 896 C 1136 956 1171 1037 1171 1140 C 1171 1301 1072 1382 874 1382 Z" unicode="Ρ" />
<glyph horiz-adv-x="1014" d="M 1101 1515 L 1075 1383 L 385 1383 L 813 791 L 147 133 L 886 133 L 861 0 L -56 0 L -32 133 L 633 791 L 216 1383 L 239 1515 L 1101 1515 Z" unicode="Σ" />
<glyph horiz-adv-x="1188" d="M 1304 1382 L 831 1382 L 563 0 L 409 0 L 678 1382 L 203 1382 L 227 1515 L 1331 1515 L 1304 1382 Z" unicode="Τ" />
<glyph horiz-adv-x="1102" d="M 639 612 L 520 0 L 366 0 L 489 637 L 217 1515 L 377 1515 L 594 776 L 1087 1515 L 1255 1515 L 639 612 Z" unicode="Υ" />
<glyph horiz-adv-x="1492" d="M 741 122 L 712 -28 L 559 -28 L 588 124 C 286 160 136 323 136 613 C 136 811 199 989 325 1145 C 451 1301 621 1388 833 1406 L 859 1546 L 1012 1546 L 986 1402 C 1096 1387 1184 1355 1250 1305 C 1315 1255 1361 1195 1388 1127 C 1415 1059 1429 990 1429 921 C 1429 727 1366 549 1241 385 C 1115 221 949 134 741 122 Z M 960 1268 L 768 262 C 918 285 1040 364 1134 499 C 1227 633 1274 772 1274 916 C 1274 1002 1247 1079 1193 1146 C 1139 1212 1062 1253 960 1268 Z M 613 257 L 806 1268 C 658 1246 535 1170 437 1041 C 339 912 291 771 291 618 C 291 408 398 288 613 257 Z" unicode="Φ" />
<glyph horiz-adv-x="1196" d="M 1345 1515 L 732 769 L 1038 0 L 880 0 L 632 649 L 108 0 L -73 0 L 575 790 L 286 1515 L 444 1515 L 675 912 L 1163 1515 L 1345 1515 Z" unicode="Χ" />
<glyph horiz-adv-x="1644" d="M 730 460 C 584 472 470 517 388 595 C 306 672 265 760 265 859 C 265 919 273 997 291 1095 L 367 1515 L 521 1515 L 444 1127 C 424 1029 415 952 415 898 C 415 823 440 756 492 698 C 544 640 632 605 756 594 L 932 1515 L 1086 1515 L 909 593 C 1063 602 1176 644 1250 720 C 1323 796 1372 897 1398 1023 L 1498 1515 L 1652 1515 L 1541 951 C 1513 810 1447 695 1343 605 C 1238 515 1085 465 883 457 L 795 0 L 642 0 L 730 460 Z" unicode="Ψ" />
<glyph horiz-adv-x="1473" d="M 1017 132 L 1237 132 L 1212 0 L 744 0 L 780 132 C 935 190 1056 300 1143 460 C 1229 620 1273 782 1273 945 C 1273 1080 1238 1192 1169 1280 C 1100 1368 1008 1412 894 1412 C 797 1412 702 1375 608 1303 C 514 1231 443 1133 396 1011 C 349 888 326 763 326 637 C 326 409 414 240 592 132 L 558 0 L 81 0 L 107 132 L 403 132 C 245 261 166 440 166 669 C 166 919 241 1127 391 1295 C 541 1462 716 1546 916 1546 C 1072 1546 1197 1490 1291 1380 C 1385 1269 1432 1120 1432 932 C 1432 616 1293 349 1017 132 Z" unicode="Ω" />
<glyph horiz-adv-x="559" d="M 252 0 L 98 0 L 389 1515 L 542 1515 L 252 0 Z M 196 1661 L 231 1835 L 405 1835 L 370 1661 L 196 1661 Z M 605 1661 L 640 1835 L 814 1835 L 780 1661 L 605 1661 Z" unicode="Ϊ" />
<glyph horiz-adv-x="1102" d="M 639 612 L 520 0 L 366 0 L 489 637 L 217 1515 L 377 1515 L 594 776 L 1087 1515 L 1255 1515 L 639 612 Z M 473 1661 L 508 1835 L 682 1835 L 647 1661 L 473 1661 Z M 882 1661 L 917 1835 L 1091 1835 L 1057 1661 L 882 1661 Z" unicode="Ϋ" />
<glyph horiz-adv-x="1144" d="M 852 250 C 756 68 628 -22 468 -22 C 365 -22 279 19 209 101 C 139 183 104 298 104 444 C 104 632 155 788 259 912 C 363 1035 483 1097 619 1097 C 762 1097 859 1013 911 846 L 987 1075 L 1125 1075 L 957 558 L 1010 0 L 879 0 L 852 250 Z M 247 434 C 247 323 271 240 320 185 C 368 129 423 102 484 102 C 568 102 644 151 712 249 C 780 347 814 467 814 608 C 814 710 794 796 756 867 C 718 937 662 973 588 973 C 502 973 423 918 353 809 C 282 699 247 574 247 434 Z M 642 1279 L 517 1279 L 782 1515 L 1005 1515 L 642 1279 Z" unicode="ά" />
<glyph horiz-adv-x="941" d="M 904 864 L 783 823 C 746 923 673 973 563 973 C 501 973 449 955 405 921 C 361 886 339 841 339 785 C 339 735 356 693 390 660 C 424 627 500 611 617 611 L 593 489 C 511 489 446 483 396 473 C 346 462 304 438 268 401 C 232 363 214 321 214 273 C 214 227 229 187 260 153 C 291 119 342 102 413 102 C 529 102 632 146 720 236 L 822 173 C 706 43 566 -22 400 -22 C 299 -22 218 1 156 47 C 94 93 64 159 64 245 C 64 395 164 499 365 556 C 244 599 184 672 184 775 C 184 862 220 937 294 1001 C 367 1065 460 1097 574 1097 C 742 1097 852 1019 904 864 Z M 594 1279 L 469 1279 L 734 1515 L 957 1515 L 594 1279 Z" unicode="έ" />
<glyph horiz-adv-x="1171" d="M 426 1075 L 391 893 C 510 1029 631 1097 754 1097 C 837 1097 905 1069 957 1013 C 1009 957 1036 890 1036 810 C 1036 782 1033 755 1028 727 L 800 -432 L 652 -432 L 872 672 C 880 712 885 754 885 798 C 885 848 869 889 837 919 C 805 949 766 965 719 965 C 611 965 497 891 377 743 L 231 0 L 86 0 L 297 1075 L 426 1075 Z M 654 1279 L 529 1279 L 794 1515 L 1017 1515 L 654 1279 Z" unicode="ή" />
<glyph horiz-adv-x="524" d="M 440 1075 L 229 0 L 86 0 L 297 1075 L 440 1075 Z M 334 1279 L 209 1279 L 474 1515 L 697 1515 L 334 1279 Z" unicode="ί" />
<glyph horiz-adv-x="1171" d="M 935 1075 L 1078 1075 L 965 472 C 939 334 906 234 866 171 C 825 107 770 59 701 27 C 631 -5 557 -22 478 -22 C 372 -22 289 6 230 63 C 171 120 142 199 142 299 C 142 339 145 378 153 416 L 286 1075 L 430 1075 L 303 424 C 296 390 293 358 293 329 C 293 271 299 228 311 201 C 323 173 346 150 380 131 C 414 111 453 102 498 102 C 570 102 634 123 690 166 C 746 208 787 303 815 450 L 935 1075 Z M 707 1249 L 624 1249 L 717 1514 L 904 1514 L 707 1249 Z M 1014 1249 L 852 1249 L 884 1411 L 1046 1411 L 1014 1249 Z M 564 1249 L 402 1249 L 433 1411 L 596 1411 L 564 1249 Z" unicode="ΰ" />
<glyph horiz-adv-x="1144" d="M 852 250 C 756 68 628 -22 468 -22 C 365 -22 279 19 209 101 C 139 183 104 298 104 444 C 104 632 155 788 259 912 C 363 1035 483 1097 619 1097 C 762 1097 859 1013 911 846 L 987 1075 L 1125 1075 L 957 558 L 1010 0 L 879 0 L 852 250 Z M 247 434 C 247 323 271 240 320 185 C 368 129 423 102 484 102 C 568 102 644 151 712 249 C 780 347 814 467 814 608 C 814 710 794 796 756 867 C 718 937 662 973 588 973 C 502 973 423 918 353 809 C 282 699 247 574 247 434 Z" unicode="α" />
<glyph horiz-adv-x="1163" d="M -8 -432 L 309 1159 C 335 1295 389 1393 469 1455 C 549 1517 643 1548 749 1548 C 851 1548 935 1517 1001 1457 C 1066 1397 1099 1324 1099 1239 C 1099 1090 998 970 796 879 C 961 803 1044 671 1044 481 C 1044 343 1001 224 917 126 C 832 27 721 -22 583 -22 C 463 -22 351 24 247 117 L 137 -432 L -8 -432 Z M 271 242 C 313 198 364 163 425 139 C 485 114 541 102 593 102 C 689 102 765 140 819 216 C 873 292 901 385 901 494 C 901 607 868 693 802 751 C 736 809 651 838 549 838 L 567 944 C 707 954 807 987 866 1045 C 925 1102 955 1166 955 1237 C 955 1296 934 1342 892 1375 C 850 1408 799 1425 737 1425 C 587 1425 494 1337 458 1163 L 271 242 Z" unicode="β" />
<glyph horiz-adv-x="920" d="M 425 0 L 343 -432 L 200 -432 L 282 0 L 117 1075 L 271 1075 L 383 172 L 822 1075 L 973 1075 L 425 0 Z" unicode="γ" />
<glyph horiz-adv-x="1110" d="M 626 1078 L 324 1393 L 347 1515 L 1045 1515 L 1025 1393 L 508 1393 L 866 1007 C 958 908 1004 781 1004 625 C 1004 450 953 298 851 170 C 749 42 628 -22 486 -22 C 374 -22 282 18 211 99 C 140 180 105 295 105 445 C 105 622 152 772 246 895 C 340 1018 459 1080 602 1080 C 607 1080 615 1079 626 1078 Z M 861 640 C 861 748 837 830 790 887 C 742 944 683 973 611 973 C 515 973 430 918 357 810 C 284 702 248 576 248 433 C 248 325 271 243 319 187 C 366 130 424 102 494 102 C 592 102 678 156 751 264 C 824 372 861 497 861 640 Z" unicode="δ" />
<glyph horiz-adv-x="941" d="M 904 864 L 783 823 C 746 923 673 973 563 973 C 501 973 449 955 405 921 C 361 886 339 841 339 785 C 339 735 356 693 390 660 C 424 627 500 611 617 611 L 593 489 C 511 489 446 483 396 473 C 346 462 304 438 268 401 C 232 363 214 321 214 273 C 214 227 229 187 260 153 C 291 119 342 102 413 102 C 529 102 632 146 720 236 L 822 173 C 706 43 566 -22 400 -22 C 299 -22 218 1 156 47 C 94 93 64 159 64 245 C 64 395 164 499 365 556 C 244 599 184 672 184 775 C 184 862 220 937 294 1001 C 367 1065 460 1097 574 1097 C 742 1097 852 1019 904 864 Z" unicode="ε" />
<glyph horiz-adv-x="965" d="M 455 1515 L 1107 1515 L 1086 1409 C 765 1193 541 988 414 792 C 287 596 224 434 224 307 C 224 256 235 217 257 190 C 279 163 327 146 400 140 C 498 132 568 122 608 112 C 648 102 681 80 708 47 C 735 14 749 -25 749 -72 C 749 -224 640 -344 423 -432 L 366 -320 C 522 -249 601 -171 601 -86 C 601 -55 589 -31 567 -15 C 544 1 483 12 383 17 C 301 20 240 31 200 49 C 160 67 129 98 107 142 C 85 185 75 230 75 277 C 75 443 144 627 284 828 C 424 1028 628 1214 898 1384 L 429 1384 L 455 1515 Z" unicode="ζ" />
<glyph horiz-adv-x="1171" d="M 426 1075 L 391 893 C 510 1029 631 1097 754 1097 C 837 1097 905 1069 957 1013 C 1009 957 1036 890 1036 810 C 1036 782 1033 755 1028 727 L 800 -432 L 652 -432 L 872 672 C 880 712 885 754 885 798 C 885 848 869 889 837 919 C 805 949 766 965 719 965 C 611 965 497 891 377 743 L 231 0 L 86 0 L 297 1075 L 426 1075 Z" unicode="η" />
<glyph horiz-adv-x="1135" d="M 694 1553 C 919 1553 1032 1380 1032 1036 C 1032 764 986 519 895 303 C 803 86 666 -22 483 -22 C 267 -22 159 152 159 501 C 159 687 183 867 231 1041 C 279 1214 344 1343 424 1427 C 504 1511 594 1553 694 1553 Z M 320 823 L 882 823 C 895 893 902 966 902 1043 C 902 1300 829 1429 684 1429 C 592 1429 518 1375 461 1269 C 403 1162 356 1013 320 823 Z M 309 699 C 295 630 289 557 289 479 C 289 227 359 102 501 102 C 589 102 663 147 721 239 C 779 331 829 484 871 699 L 309 699 Z" unicode="θ" />
<glyph horiz-adv-x="524" d="M 440 1075 L 229 0 L 86 0 L 297 1075 L 440 1075 Z" unicode="ι" />
<glyph horiz-adv-x="975" d="M 1053 1075 L 590 682 L 850 0 L 694 0 L 483 588 L 317 444 L 229 0 L 86 0 L 294 1075 L 437 1075 L 354 637 L 856 1075 L 1053 1075 Z" unicode="κ" />
<glyph horiz-adv-x="940" d="M 822 0 L 660 0 L 538 864 L 83 0 L -75 0 L 497 1037 L 425 1515 L 572 1515 L 822 0 Z" unicode="λ" />
<glyph horiz-adv-x="1178" d="M 783 152 C 695 36 599 -22 497 -22 C 401 -22 319 20 252 106 L 145 -432 L 0 -432 L 295 1075 L 440 1075 L 323 479 C 309 409 302 357 302 322 C 302 268 325 221 371 180 C 417 139 469 119 526 119 C 629 119 719 182 797 310 L 944 1075 L 1090 1075 L 881 0 L 751 0 L 783 152 Z" unicode="μ" />
<glyph horiz-adv-x="919" d="M 432 0 L 280 0 L 116 1075 L 270 1075 L 383 172 L 821 1075 L 973 1075 L 432 0 Z" unicode="ν" />
<glyph horiz-adv-x="889" d="M 960 1515 L 936 1390 L 801 1390 C 559 1390 439 1319 439 1178 C 439 1135 455 1096 487 1061 C 519 1025 603 1008 739 1008 L 850 1008 L 826 883 C 650 877 507 825 398 725 C 289 625 235 515 235 393 C 235 351 245 312 266 278 C 287 244 316 219 353 204 C 389 188 444 174 516 162 C 682 132 765 58 765 -62 C 765 -121 745 -180 705 -238 C 665 -296 574 -362 430 -434 L 361 -329 C 531 -245 617 -162 617 -80 C 617 -44 605 -17 583 0 C 560 17 516 31 450 41 C 300 65 203 104 157 159 C 111 214 89 281 89 359 C 89 481 129 592 211 692 C 293 792 404 868 544 920 C 378 944 296 1023 296 1156 C 296 1260 339 1346 425 1414 C 511 1481 642 1515 817 1515 L 960 1515 Z" unicode="ξ" />
<glyph horiz-adv-x="1110" d="M 104 444 C 104 628 154 783 255 909 C 356 1034 479 1097 624 1097 C 740 1097 832 1054 900 968 C 968 882 1003 768 1003 626 C 1003 449 952 297 851 169 C 750 41 629 -22 487 -22 C 369 -22 275 19 207 103 C 138 187 104 300 104 444 Z M 248 420 C 248 324 271 247 317 189 C 363 131 422 102 493 102 C 593 102 679 155 751 263 C 823 371 860 499 860 647 C 860 747 837 827 791 885 C 745 943 684 973 610 973 C 513 973 428 919 356 811 C 284 703 248 572 248 420 Z" unicode="ο" />
<glyph horiz-adv-x="1336" d="M 1387 1075 L 1363 952 L 1132 952 L 938 0 L 792 0 L 986 952 L 524 952 L 337 0 L 191 0 L 379 958 L 135 958 L 158 1075 L 1387 1075 Z" unicode="π" />
<glyph horiz-adv-x="1182" d="M 132 -432 L -11 -432 L 182 543 C 221 743 288 885 384 970 C 480 1054 584 1097 696 1097 C 811 1097 903 1054 972 969 C 1040 883 1075 769 1075 627 C 1075 446 1023 293 919 167 C 815 41 697 -22 564 -22 C 430 -22 327 47 255 185 L 132 -432 Z M 932 640 C 932 746 908 828 862 886 C 815 944 755 973 682 973 C 586 973 502 918 429 810 C 355 702 319 576 319 433 C 319 325 342 243 390 187 C 437 130 495 102 565 102 C 663 102 749 156 822 264 C 895 372 932 497 932 640 Z" unicode="ρ" />
<glyph horiz-adv-x="1021" d="M 1049 835 L 910 781 C 873 860 835 912 797 936 C 759 960 716 973 668 973 C 550 973 449 912 364 791 C 279 670 237 552 237 436 C 237 371 254 319 288 279 C 322 239 381 204 463 173 C 592 123 680 78 727 36 C 773 -6 797 -57 797 -118 C 797 -283 663 -388 396 -432 L 364 -312 C 556 -276 652 -216 652 -134 C 652 -100 638 -73 610 -51 C 582 -29 528 -4 447 24 C 336 62 259 97 216 128 C 173 159 141 200 120 251 C 99 302 89 357 89 415 C 89 582 148 737 267 881 C 386 1025 529 1097 696 1097 C 870 1097 987 1009 1049 835 Z" unicode="ς" />
<glyph horiz-adv-x="1110" d="M 755 1075 L 1189 1075 L 1166 953 L 911 953 C 972 871 1003 763 1003 627 C 1003 451 952 298 850 170 C 748 42 627 -22 485 -22 C 369 -22 277 19 208 103 C 138 186 104 300 104 444 C 104 627 154 782 256 908 C 357 1034 481 1097 629 1097 C 671 1097 713 1089 755 1075 Z M 860 640 C 860 746 836 828 789 886 C 742 944 682 973 610 973 C 514 973 429 918 356 810 C 283 702 247 576 247 432 C 247 326 270 245 317 188 C 364 130 423 102 493 102 C 591 102 677 156 750 264 C 823 372 860 497 860 640 Z" unicode="σ" />
<glyph horiz-adv-x="750" d="M 798 1075 L 775 953 L 521 953 L 333 0 L 188 0 L 376 958 L 122 958 L 145 1075 L 798 1075 Z" unicode="τ" />
<glyph horiz-adv-x="1171" d="M 935 1075 L 1078 1075 L 965 472 C 939 334 906 234 866 171 C 825 107 770 59 701 27 C 631 -5 557 -22 478 -22 C 372 -22 289 6 230 63 C 171 120 142 199 142 299 C 142 339 145 378 153 416 L 286 1075 L 430 1075 L 303 424 C 296 390 293 358 293 329 C 293 271 299 228 311 201 C 323 173 346 150 380 131 C 414 111 453 102 498 102 C 570 102 634 123 690 166 C 746 208 787 303 815 450 L 935 1075 Z" unicode="υ" />
<glyph horiz-adv-x="1342" d="M 515 108 L 695 1025 C 704 1071 735 1095 788 1095 C 905 1095 1012 1053 1110 970 C 1208 887 1257 773 1257 627 C 1257 469 1199 326 1084 198 C 969 70 819 -2 633 -20 L 552 -433 L 408 -433 L 490 -16 C 356 2 254 53 186 137 C 118 220 84 322 84 444 C 84 585 128 714 216 830 C 304 946 426 1027 583 1075 L 555 938 C 463 901 385 839 323 753 C 260 667 229 570 229 464 C 229 262 324 143 515 108 Z M 658 105 C 795 120 905 177 988 276 C 1070 374 1112 487 1112 614 C 1112 708 1088 787 1040 851 C 992 915 921 952 826 960 L 658 105 Z" unicode="φ" />
<glyph horiz-adv-x="915" d="M 393 372 L 153 1075 L 303 1075 L 485 539 L 782 1075 L 937 1075 L 546 362 L 816 -432 L 667 -432 L 453 194 L 110 -432 L -52 -432 L 393 372 Z" unicode="χ" />
<glyph horiz-adv-x="1555" d="M 290 1075 L 445 1075 L 335 514 C 320 438 313 375 313 327 C 313 178 414 99 616 90 L 808 1075 L 964 1075 L 772 90 C 859 94 934 111 997 142 C 1060 172 1107 215 1138 269 C 1169 323 1195 404 1217 514 L 1327 1075 L 1481 1075 L 1373 520 C 1348 394 1322 303 1294 247 C 1266 191 1222 139 1163 92 C 1103 44 1040 12 974 -6 C 908 -24 832 -34 747 -37 L 672 -432 L 516 -432 L 591 -37 C 433 -34 321 -1 253 63 C 185 127 152 200 152 282 C 152 338 162 418 182 520 L 290 1075 Z" unicode="ψ" />
<glyph horiz-adv-x="1615" d="M 365 1075 L 512 1075 C 334 795 246 556 246 358 C 246 272 262 207 295 165 C 328 123 368 102 415 102 C 476 102 535 130 592 187 C 649 243 692 344 721 489 L 781 799 L 936 799 L 875 489 C 865 437 860 389 860 346 C 860 267 874 207 904 165 C 933 123 972 102 1020 102 C 1109 102 1188 159 1258 274 C 1327 388 1362 533 1362 708 C 1362 808 1345 931 1311 1075 L 1459 1075 C 1503 931 1526 812 1526 719 C 1526 619 1507 508 1471 387 C 1434 265 1375 167 1293 91 C 1211 15 1123 -22 1029 -22 C 874 -22 785 67 763 246 C 676 67 547 -22 377 -22 C 277 -22 203 12 155 80 C 107 148 83 229 83 323 C 83 414 99 519 132 639 C 165 758 243 903 365 1075 Z" unicode="ω" />
<glyph horiz-adv-x="524" d="M 440 1075 L 229 0 L 86 0 L 297 1075 L 440 1075 Z M 103 1249 L 138 1423 L 312 1423 L 277 1249 L 103 1249 Z M 512 1249 L 547 1423 L 721 1423 L 687 1249 L 512 1249 Z" unicode="ϊ" />
<glyph horiz-adv-x="1171" d="M 935 1075 L 1078 1075 L 965 472 C 939 334 906 234 866 171 C 825 107 770 59 701 27 C 631 -5 557 -22 478 -22 C 372 -22 289 6 230 63 C 171 120 142 199 142 299 C 142 339 145 378 153 416 L 286 1075 L 430 1075 L 303 424 C 296 390 293 358 293 329 C 293 271 299 228 311 201 C 323 173 346 150 380 131 C 414 111 453 102 498 102 C 570 102 634 123 690 166 C 746 208 787 303 815 450 L 935 1075 Z M 421 1249 L 456 1423 L 630 1423 L 595 1249 L 421 1249 Z M 830 1249 L 865 1423 L 1039 1423 L 1005 1249 L 830 1249 Z" unicode="ϋ" />
<glyph horiz-adv-x="1110" d="M 104 444 C 104 628 154 783 255 909 C 356 1034 479 1097 624 1097 C 740 1097 832 1054 900 968 C 968 882 1003 768 1003 626 C 1003 449 952 297 851 169 C 750 41 629 -22 487 -22 C 369 -22 275 19 207 103 C 138 187 104 300 104 444 Z M 248 420 C 248 324 271 247 317 189 C 363 131 422 102 493 102 C 593 102 679 155 751 263 C 823 371 860 499 860 647 C 860 747 837 827 791 885 C 745 943 684 973 610 973 C 513 973 428 919 356 811 C 284 703 248 572 248 420 Z M 626 1279 L 501 1279 L 766 1515 L 989 1515 L 626 1279 Z" unicode="ό" />
<glyph horiz-adv-x="1171" d="M 935 1075 L 1078 1075 L 965 472 C 939 334 906 234 866 171 C 825 107 770 59 701 27 C 631 -5 557 -22 478 -22 C 372 -22 289 6 230 63 C 171 120 142 199 142 299 C 142 339 145 378 153 416 L 286 1075 L 430 1075 L 303 424 C 296 390 293 358 293 329 C 293 271 299 228 311 201 C 323 173 346 150 380 131 C 414 111 453 102 498 102 C 570 102 634 123 690 166 C 746 208 787 303 815 450 L 935 1075 Z M 658 1279 L 533 1279 L 798 1515 L 1021 1515 L 658 1279 Z" unicode="ύ" />
<glyph horiz-adv-x="1615" d="M 365 1075 L 512 1075 C 334 795 246 556 246 358 C 246 272 262 207 295 165 C 328 123 368 102 415 102 C 476 102 535 130 592 187 C 649 243 692 344 721 489 L 781 799 L 936 799 L 875 489 C 865 437 860 389 860 346 C 860 267 874 207 904 165 C 933 123 972 102 1020 102 C 1109 102 1188 159 1258 274 C 1327 388 1362 533 1362 708 C 1362 808 1345 931 1311 1075 L 1459 1075 C 1503 931 1526 812 1526 719 C 1526 619 1507 508 1471 387 C 1434 265 1375 167 1293 91 C 1211 15 1123 -22 1029 -22 C 874 -22 785 67 763 246 C 676 67 547 -22 377 -22 C 277 -22 203 12 155 80 C 107 148 83 229 83 323 C 83 414 99 519 132 639 C 165 758 243 903 365 1075 Z M 878 1279 L 753 1279 L 1018 1515 L 1241 1515 L 878 1279 Z" unicode="ώ" />
<glyph horiz-adv-x="1161" d="M 1229 1382 L 520 1382 L 418 858 L 991 858 L 966 725 L 393 725 L 276 133 L 1040 133 L 1016 0 L 98 0 L 393 1515 L 1255 1515 L 1229 1382 Z M 555 1661 L 590 1835 L 764 1835 L 729 1661 L 555 1661 Z M 964 1661 L 999 1835 L 1173 1835 L 1139 1661 L 964 1661 Z" unicode="Ё" />
<glyph horiz-adv-x="1554" d="M 848 -401 L 821 -260 C 929 -243 1008 -205 1057 -146 C 1105 -87 1140 -2 1162 110 L 1281 723 C 1290 772 1295 812 1295 843 C 1295 940 1237 989 1123 989 C 1017 989 885 940 727 844 L 563 0 L 410 0 L 678 1382 L 203 1382 L 228 1515 L 1331 1515 L 1305 1382 L 832 1382 L 754 980 C 938 1074 1078 1122 1174 1122 C 1256 1122 1322 1099 1374 1053 C 1426 1007 1452 945 1452 867 C 1452 830 1444 769 1428 685 L 1316 110 C 1285 -47 1233 -165 1160 -243 C 1086 -321 982 -373 848 -401 Z" unicode="Ђ" />
<glyph horiz-adv-x="1120" d="M 517 1382 L 252 0 L 98 0 L 389 1515 L 1269 1515 L 1246 1382 L 517 1382 Z M 719 1622 L 1000 1952 L 1229 1952 L 848 1622 L 719 1622 Z" unicode="Ѓ" />
<glyph horiz-adv-x="1323" d="M 329 846 L 988 846 L 965 713 L 310 713 C 308 687 307 660 307 633 C 307 461 341 331 411 241 C 480 151 573 106 690 106 C 854 106 987 194 1091 371 L 1220 309 C 1075 84 894 -28 677 -28 C 519 -28 392 27 294 139 C 196 250 147 409 147 615 C 147 859 213 1076 346 1264 C 479 1452 650 1546 860 1546 C 978 1546 1084 1510 1176 1439 C 1268 1368 1328 1262 1357 1120 L 1216 1083 C 1168 1302 1049 1412 859 1412 C 737 1412 626 1358 528 1252 C 429 1146 363 1010 329 846 Z" unicode="Є" />
<glyph horiz-adv-x="1190" d="M 1077 1118 C 1031 1314 912 1413 721 1413 C 623 1413 546 1389 490 1342 C 434 1295 405 1232 405 1153 C 405 1113 413 1076 430 1042 C 446 1008 469 980 497 956 C 525 932 594 890 704 830 C 838 756 932 691 985 633 C 1038 575 1065 494 1065 389 C 1065 261 1018 160 926 85 C 834 9 713 -28 563 -28 C 415 -28 298 13 210 97 C 122 181 69 303 53 463 L 188 489 C 223 232 347 104 561 104 C 671 104 758 129 820 179 C 882 228 913 295 913 379 C 913 441 895 494 859 539 C 822 584 748 634 637 688 C 499 754 400 822 342 890 C 283 958 254 1038 254 1130 C 254 1254 297 1355 384 1431 C 471 1507 588 1546 735 1546 C 989 1546 1147 1415 1210 1153 L 1077 1118 Z" unicode="Ѕ" />
<glyph horiz-adv-x="559" d="M 252 0 L 98 0 L 389 1515 L 542 1515 L 252 0 Z" unicode="І" />
<glyph horiz-adv-x="559" d="M 252 0 L 98 0 L 389 1515 L 542 1515 L 252 0 Z M 196 1661 L 231 1835 L 405 1835 L 370 1661 L 196 1661 Z M 605 1661 L 640 1835 L 814 1835 L 780 1661 L 605 1661 Z" unicode="Ї" />
<glyph horiz-adv-x="870" d="M 651 383 C 620 222 573 113 510 57 C 447 0 365 -28 264 -28 C 168 -28 92 1 35 61 C -22 121 -51 199 -51 297 L -51 325 L 80 356 C 82 182 142 96 260 96 C 382 96 459 178 491 344 L 719 1515 L 870 1515 L 651 383 Z" unicode="Ј" />
<glyph horiz-adv-x="2042" d="M 1068 854 L 1446 854 C 1588 854 1699 815 1779 737 C 1859 659 1899 558 1899 433 C 1899 301 1854 196 1765 118 C 1675 39 1536 0 1348 0 L 1058 0 L 825 1419 L 809 1419 L 103 0 L -57 0 L 713 1515 L 956 1515 L 1068 854 Z M 1091 720 L 1191 133 L 1369 133 C 1489 133 1581 161 1645 218 C 1708 275 1740 349 1740 441 C 1740 522 1710 589 1651 641 C 1591 693 1506 720 1394 720 L 1091 720 Z" unicode="Љ" />
<glyph horiz-adv-x="2184" d="M 1291 846 L 1585 846 C 1728 846 1840 808 1920 732 C 2000 656 2041 556 2041 432 C 2041 302 1996 197 1907 118 C 1817 39 1678 0 1489 0 L 975 0 L 1113 713 L 395 713 L 254 0 L 98 0 L 391 1515 L 547 1515 L 415 846 L 1135 846 L 1266 1515 L 1420 1515 L 1291 846 Z M 1266 713 L 1156 133 L 1510 133 C 1632 133 1724 161 1787 219 C 1849 277 1881 350 1881 438 C 1881 526 1849 593 1786 641 C 1722 689 1638 713 1534 713 L 1266 713 Z" unicode="Њ" />
<glyph horiz-adv-x="1554" d="M 754 980 C 938 1074 1078 1122 1174 1122 C 1258 1122 1325 1098 1376 1052 C 1426 1006 1452 947 1452 877 C 1452 833 1445 779 1433 714 L 1296 0 L 1142 0 L 1281 723 C 1290 772 1295 812 1295 844 C 1295 940 1237 989 1123 989 C 1017 989 885 940 727 844 L 563 0 L 410 0 L 678 1382 L 203 1382 L 228 1515 L 1331 1515 L 1305 1382 L 832 1382 L 754 980 Z" unicode="Ћ" />
<glyph horiz-adv-x="1263" d="M 723 897 L 1145 0 L 977 0 L 612 794 L 362 575 L 252 0 L 98 0 L 391 1515 L 545 1515 L 399 766 L 1218 1515 L 1421 1515 L 723 897 Z M 756 1622 L 1037 1952 L 1266 1952 L 885 1622 L 756 1622 Z" unicode="Ќ" />
<glyph horiz-adv-x="1102" d="M 11 43 L 67 158 C 93 141 121 133 151 133 C 195 133 235 148 269 179 C 303 209 347 268 402 356 L 457 443 L 217 1515 L 374 1515 L 563 607 L 1091 1515 L 1256 1515 L 583 401 C 493 252 418 148 359 89 C 299 29 232 0 158 0 C 107 0 58 14 11 43 Z M 995 1911 L 1100 1911 C 1014 1740 892 1655 733 1655 C 671 1655 615 1678 567 1725 C 519 1771 489 1833 477 1911 L 571 1911 C 598 1837 661 1801 760 1801 C 860 1801 938 1837 995 1911 Z" unicode="Ў" />
<glyph horiz-adv-x="1504" d="M 564 0 L 98 0 L 390 1515 L 543 1515 L 277 133 L 1068 133 L 1334 1515 L 1488 1515 L 1196 0 L 729 0 L 663 -255 L 532 -255 L 564 0 Z" unicode="Џ" />
<glyph horiz-adv-x="1292" d="M 1018 0 L 944 456 L 327 456 L 102 0 L -57 0 L 700 1515 L 927 1515 L 1173 0 L 1018 0 Z M 796 1419 L 391 590 L 925 590 L 796 1419 Z" unicode="А" />
<glyph horiz-adv-x="1307" d="M 98 0 L 389 1515 L 1184 1515 L 1159 1382 L 516 1382 L 414 854 L 709 854 C 852 854 963 815 1043 737 C 1123 659 1163 558 1163 433 C 1163 301 1118 196 1029 118 C 939 39 800 0 612 0 L 98 0 Z M 278 133 L 633 133 C 753 133 845 161 908 218 C 971 275 1003 349 1003 441 C 1003 523 973 590 914 642 C 854 694 769 720 658 720 L 390 720 L 278 133 Z" unicode="Б" />
<glyph horiz-adv-x="1319" d="M 927 770 C 1005 741 1066 697 1110 639 C 1153 580 1175 514 1175 440 C 1175 300 1129 192 1037 115 C 944 38 802 0 612 0 L 98 0 L 389 1515 L 868 1515 C 1005 1515 1108 1483 1176 1419 C 1244 1355 1278 1266 1278 1153 C 1278 957 1161 829 927 770 Z M 833 1382 L 516 1382 L 413 850 L 717 850 C 845 850 943 878 1013 934 C 1083 990 1118 1063 1118 1155 C 1118 1236 1095 1294 1049 1330 C 1003 1365 931 1382 833 1382 Z M 663 717 L 389 717 L 278 133 L 641 133 C 758 133 850 161 916 217 C 982 273 1016 347 1016 438 C 1016 510 983 575 917 632 C 851 688 766 717 663 717 Z" unicode="В" />
<glyph horiz-adv-x="1120" d="M 517 1382 L 252 0 L 98 0 L 389 1515 L 1269 1515 L 1246 1382 L 517 1382 Z" unicode="Г" />
<glyph horiz-adv-x="1416" d="M 45 133 L 736 1515 L 979 1515 L 1203 133 L 1296 133 L 1221 -255 L 1090 -255 L 1117 0 L 93 0 L 21 -255 L -110 -255 L -35 133 L 45 133 Z M 1048 133 L 848 1419 L 832 1419 L 203 133 L 1048 133 Z" unicode="Д" />
<glyph horiz-adv-x="1161" d="M 1229 1382 L 520 1382 L 418 858 L 991 858 L 966 725 L 393 725 L 276 133 L 1040 133 L 1016 0 L 98 0 L 393 1515 L 1255 1515 L 1229 1382 Z" unicode="Е" />
<glyph horiz-adv-x="1928" d="M 928 714 L 851 741 L 111 0 L -84 0 L 750 809 L 303 1515 L 481 1515 L 879 877 L 955 849 L 1083 1515 L 1236 1515 L 1108 851 L 1192 877 L 1840 1515 L 2035 1515 L 1295 809 L 1810 0 L 1630 0 L 1171 733 L 1080 708 L 944 0 L 791 0 L 928 714 Z" unicode="Ж" />
<glyph horiz-adv-x="1117" d="M 0 275 L 134 332 C 184 233 238 171 298 145 C 357 119 413 106 467 106 C 567 106 650 136 716 198 C 781 260 814 336 814 426 C 814 508 780 577 713 633 C 645 689 562 717 462 717 L 337 717 L 371 850 L 515 850 C 647 850 746 878 814 936 C 882 993 916 1068 916 1161 C 916 1237 893 1298 847 1344 C 801 1389 741 1412 669 1412 C 527 1412 416 1331 336 1171 L 209 1230 C 324 1440 480 1546 676 1546 C 796 1546 892 1507 966 1431 C 1039 1355 1076 1262 1076 1153 C 1076 962 959 834 726 770 C 891 704 974 587 974 417 C 974 285 926 178 832 96 C 738 13 618 -28 474 -28 C 388 -28 304 -9 221 26 C 138 62 64 145 0 275 Z" unicode="З" />
<glyph horiz-adv-x="1547" d="M 1085 0 L 1342 1332 L 252 0 L 98 0 L 390 1515 L 544 1515 L 311 300 L 1309 1515 L 1531 1515 L 1239 0 L 1085 0 Z" unicode="И" />
<glyph horiz-adv-x="1547" d="M 1085 0 L 1342 1332 L 252 0 L 98 0 L 390 1515 L 544 1515 L 311 300 L 1309 1515 L 1531 1515 L 1239 0 L 1085 0 Z M 1243 1911 L 1348 1911 C 1262 1740 1140 1655 981 1655 C 919 1655 863 1678 815 1725 C 767 1771 737 1833 725 1911 L 819 1911 C 846 1837 909 1801 1008 1801 C 1108 1801 1186 1837 1243 1911 Z" unicode="Й" />
<glyph horiz-adv-x="1263" d="M 723 897 L 1145 0 L 977 0 L 612 794 L 362 575 L 252 0 L 98 0 L 391 1515 L 545 1515 L 399 766 L 1218 1515 L 1421 1515 L 723 897 Z" unicode="К" />
<glyph horiz-adv-x="1308" d="M 1189 0 L 1034 0 L 813 1419 L 797 1419 L 103 0 L -57 0 L 701 1515 L 944 1515 L 1189 0 Z" unicode="Л" />
<glyph horiz-adv-x="1747" d="M 1439 0 L 1286 0 L 1554 1396 L 803 0 L 727 0 L 516 1396 L 243 0 L 98 0 L 393 1515 L 628 1515 C 674 1238 736 824 813 274 C 897 443 1117 857 1472 1515 L 1728 1515 L 1439 0 Z" unicode="М" />
<glyph horiz-adv-x="1505" d="M 1198 0 L 1044 0 L 1181 715 L 395 715 L 254 0 L 98 0 L 391 1515 L 547 1515 L 415 844 L 1204 844 L 1335 1515 L 1489 1515 L 1198 0 Z" unicode="Н" />
<glyph horiz-adv-x="1470" d="M 692 -28 C 324 -28 141 179 141 594 C 141 825 208 1041 342 1243 C 476 1445 653 1546 874 1546 C 1046 1546 1179 1492 1273 1386 C 1367 1279 1415 1128 1415 934 C 1415 698 1349 479 1218 276 C 1086 73 911 -28 692 -28 Z M 299 545 C 299 407 333 299 401 221 C 469 143 559 104 671 104 C 845 104 985 195 1093 376 C 1201 556 1255 748 1255 952 C 1255 1086 1219 1196 1148 1282 C 1077 1368 989 1411 884 1411 C 709 1411 568 1319 460 1137 C 352 954 299 757 299 545 Z" unicode="О" />
<glyph horiz-adv-x="1505" d="M 1489 1515 L 1198 0 L 1044 0 L 1313 1382 L 526 1382 L 254 0 L 98 0 L 391 1515 L 1489 1515 Z" unicode="П" />
<glyph horiz-adv-x="1292" d="M 784 674 L 379 674 L 250 0 L 98 0 L 389 1515 L 887 1515 C 1034 1515 1144 1480 1218 1411 C 1292 1341 1329 1252 1329 1143 C 1329 1007 1279 895 1181 807 C 1083 718 950 674 784 674 Z M 874 1382 L 518 1382 L 403 807 L 772 807 C 899 807 997 836 1067 896 C 1136 956 1171 1037 1171 1140 C 1171 1301 1072 1382 874 1382 Z" unicode="Р" />
<glyph horiz-adv-x="1323" d="M 1216 1083 C 1177 1301 1056 1411 854 1411 C 708 1411 581 1335 471 1183 C 361 1031 307 844 307 620 C 307 458 341 332 410 241 C 478 149 572 104 690 104 C 855 104 989 192 1091 370 L 1220 309 C 1077 84 896 -28 678 -28 C 515 -28 386 28 290 143 C 194 258 147 415 147 614 C 147 861 214 1078 346 1265 C 478 1452 650 1546 860 1546 C 986 1546 1095 1508 1185 1432 C 1275 1356 1333 1252 1358 1120 L 1216 1083 Z" unicode="С" />
<glyph horiz-adv-x="1188" d="M 1304 1382 L 831 1382 L 563 0 L 409 0 L 678 1382 L 203 1382 L 227 1515 L 1331 1515 L 1304 1382 Z" unicode="Т" />
<glyph horiz-adv-x="1102" d="M 11 43 L 67 158 C 93 141 121 133 151 133 C 195 133 235 148 269 179 C 303 209 347 268 402 356 L 457 443 L 217 1515 L 374 1515 L 563 607 L 1091 1515 L 1256 1515 L 583 401 C 493 252 418 148 359 89 C 299 29 232 0 158 0 C 107 0 58 14 11 43 Z" unicode="У" />
<glyph horiz-adv-x="1492" d="M 741 122 L 712 -28 L 559 -28 L 588 124 C 286 160 136 323 136 613 C 136 811 199 989 325 1145 C 451 1301 621 1388 833 1406 L 859 1546 L 1012 1546 L 986 1402 C 1096 1387 1184 1355 1250 1305 C 1315 1255 1361 1195 1388 1127 C 1415 1059 1429 990 1429 921 C 1429 727 1366 549 1241 385 C 1115 221 949 134 741 122 Z M 960 1268 L 768 262 C 918 285 1040 364 1134 499 C 1227 633 1274 772 1274 916 C 1274 1002 1247 1079 1193 1146 C 1139 1212 1062 1253 960 1268 Z M 613 257 L 806 1268 C 658 1246 535 1170 437 1041 C 339 912 291 771 291 618 C 291 408 398 288 613 257 Z" unicode="Ф" />
<glyph horiz-adv-x="1196" d="M 1345 1515 L 732 769 L 1038 0 L 880 0 L 632 649 L 108 0 L -73 0 L 575 790 L 286 1515 L 444 1515 L 675 912 L 1163 1515 L 1345 1515 Z" unicode="Х" />
<glyph horiz-adv-x="1505" d="M 1222 133 L 1374 133 L 1299 -255 L 1168 -255 L 1195 0 L 98 0 L 389 1515 L 542 1515 L 274 133 L 1061 133 L 1333 1515 L 1489 1515 L 1222 133 Z" unicode="Ц" />
<glyph horiz-adv-x="1285" d="M 901 536 C 775 472 684 432 629 416 C 574 400 520 393 466 393 C 364 393 289 416 240 464 C 190 512 166 570 166 638 C 166 681 172 735 185 801 L 322 1515 L 476 1515 L 337 793 C 327 743 323 702 323 672 C 323 574 383 526 505 526 C 575 526 640 536 702 558 C 763 580 838 618 927 672 L 1091 1515 L 1244 1515 L 950 0 L 797 0 L 901 536 Z" unicode="Ч" />
<glyph horiz-adv-x="2059" d="M 873 133 L 1139 1515 L 1293 1515 L 1027 133 L 1623 133 L 1889 1515 L 2043 1515 L 1751 0 L 98 0 L 390 1515 L 544 1515 L 277 133 L 873 133 Z" unicode="Ш" />
<glyph horiz-adv-x="2059" d="M 1776 133 L 1929 133 L 1854 -255 L 1723 -255 L 1750 0 L 98 0 L 390 1515 L 544 1515 L 277 133 L 873 133 L 1139 1515 L 1293 1515 L 1027 133 L 1623 133 L 1889 1515 L 2043 1515 L 1776 133 Z" unicode="Щ" />
<glyph horiz-adv-x="1419" d="M 476 1382 L 163 1382 L 187 1515 L 655 1515 L 526 854 L 822 854 C 964 854 1075 815 1155 737 C 1235 659 1276 558 1276 433 C 1276 301 1231 196 1141 118 C 1051 39 912 0 724 0 L 210 0 L 476 1382 Z M 391 133 L 745 133 C 866 133 958 161 1021 218 C 1084 275 1116 349 1116 441 C 1116 522 1086 589 1027 641 C 967 693 882 720 770 720 L 502 720 L 391 133 Z" unicode="Ъ" />
<glyph horiz-adv-x="1810" d="M 98 0 L 389 1515 L 542 1515 L 414 854 L 709 854 C 852 854 963 815 1043 737 C 1123 659 1163 558 1163 433 C 1163 301 1118 196 1029 118 C 939 39 800 0 612 0 L 98 0 Z M 278 133 L 633 133 C 753 133 845 161 908 218 C 971 275 1003 349 1003 441 C 1003 523 973 590 914 642 C 854 694 769 720 658 720 L 390 720 L 278 133 Z M 1504 0 L 1350 0 L 1641 1515 L 1794 1515 L 1504 0 Z" unicode="Ы" />
<glyph horiz-adv-x="1307" d="M 98 0 L 389 1515 L 542 1515 L 414 854 L 709 854 C 852 854 963 815 1043 737 C 1123 659 1163 558 1163 433 C 1163 301 1118 196 1029 118 C 939 39 800 0 612 0 L 98 0 Z M 278 133 L 633 133 C 753 133 845 161 908 218 C 971 275 1003 349 1003 441 C 1003 523 973 590 914 642 C 854 694 769 720 658 720 L 390 720 L 278 133 Z" unicode="Ь" />
<glyph horiz-adv-x="1321" d="M 1092 713 L 483 713 L 506 846 L 1106 846 C 1106 869 1107 887 1107 901 C 1107 1060 1072 1185 1003 1276 C 934 1366 841 1412 724 1412 C 538 1412 398 1305 304 1091 L 175 1153 C 305 1415 492 1546 736 1546 C 894 1546 1021 1490 1119 1378 C 1217 1266 1266 1108 1266 903 C 1266 658 1199 442 1066 254 C 933 66 762 -28 554 -28 C 322 -28 165 84 82 308 L 218 360 C 278 190 391 106 555 106 C 681 106 794 163 896 277 C 997 391 1062 536 1092 713 Z" unicode="Э" />
<glyph horiz-adv-x="1973" d="M 412 833 L 672 833 C 715 1033 798 1202 921 1340 C 1044 1477 1199 1546 1385 1546 C 1497 1546 1595 1520 1677 1469 C 1759 1418 1820 1346 1859 1254 C 1898 1161 1918 1058 1918 946 C 1918 703 1852 480 1720 277 C 1588 73 1407 -28 1177 -28 C 1008 -28 877 23 784 127 C 690 231 644 380 644 576 C 644 614 646 655 651 700 L 386 700 L 252 0 L 98 0 L 389 1515 L 542 1515 L 412 833 Z M 1758 954 C 1758 1086 1722 1196 1650 1282 C 1578 1368 1491 1412 1387 1412 C 1223 1412 1085 1324 973 1149 C 860 974 804 775 804 552 C 804 408 838 298 906 221 C 974 144 1062 106 1171 106 C 1347 106 1489 197 1597 381 C 1704 564 1758 755 1758 954 Z" unicode="Ю" />
<glyph horiz-adv-x="1388" d="M 926 0 L 1060 696 L 661 696 L 163 0 L -20 0 L 508 719 C 339 775 255 885 255 1051 C 255 1164 301 1270 393 1368 C 485 1466 640 1515 858 1515 L 1372 1515 L 1080 0 L 926 0 Z M 1086 829 L 1192 1382 L 822 1382 C 690 1382 587 1350 515 1288 C 442 1225 406 1148 406 1057 C 406 985 431 929 483 889 C 535 849 630 829 768 829 L 1086 829 Z" unicode="Я" />
<glyph horiz-adv-x="1065" d="M 907 614 L 835 258 C 819 177 811 91 811 0 L 676 0 C 668 30 665 71 665 121 C 547 25 442 -22 350 -22 C 263 -22 190 7 132 67 C 74 127 45 200 45 286 C 45 398 95 484 197 546 C 299 608 441 639 624 639 L 770 639 C 779 686 784 728 784 766 C 784 832 763 883 721 920 C 679 956 621 975 547 975 C 469 975 389 934 307 852 L 207 946 C 338 1046 457 1097 565 1097 C 674 1097 761 1067 827 1009 C 893 950 925 874 925 780 C 925 729 919 674 907 614 Z M 645 524 C 341 524 190 447 190 295 C 190 240 208 194 244 157 C 280 120 325 102 377 102 C 465 102 568 147 688 239 L 747 524 L 645 524 Z" unicode="а" />
<glyph horiz-adv-x="1115" d="M 1065 1577 L 1210 1577 C 1186 1486 1151 1422 1103 1385 C 1055 1348 976 1321 866 1305 C 771 1290 700 1273 652 1255 C 604 1237 562 1210 526 1175 C 490 1140 456 1093 424 1035 C 489 1076 557 1097 628 1097 C 738 1097 829 1055 900 973 C 971 891 1007 775 1007 627 C 1007 450 956 298 854 170 C 752 42 631 -22 489 -22 C 371 -22 278 20 210 105 C 142 189 108 296 108 426 C 108 542 131 672 178 816 C 225 960 282 1076 350 1163 C 418 1250 486 1312 555 1350 C 624 1387 706 1413 801 1429 C 909 1446 977 1462 1004 1478 C 1030 1493 1051 1526 1065 1577 Z M 864 640 C 864 748 840 830 793 887 C 745 944 686 973 614 973 C 518 973 433 918 360 810 C 287 702 251 576 251 433 C 251 325 274 243 322 187 C 369 130 427 102 497 102 C 595 102 681 156 754 264 C 827 372 864 497 864 640 Z" unicode="б" />
<glyph horiz-adv-x="1134" d="M 86 0 L 297 1075 L 708 1075 C 805 1075 881 1048 937 996 C 993 944 1021 878 1021 799 C 1021 695 964 612 852 549 C 938 495 981 424 981 335 C 981 251 945 175 874 105 C 802 35 706 0 584 0 L 86 0 Z M 416 952 L 351 619 L 662 619 C 729 619 781 637 818 674 C 855 710 874 750 874 793 C 874 833 859 869 829 902 C 799 935 753 952 691 952 L 416 952 Z M 253 123 L 571 123 C 648 123 711 145 760 189 C 809 233 834 282 834 338 C 834 377 819 413 789 446 C 759 479 713 496 653 496 L 327 496 L 253 123 Z" unicode="в" />
<glyph horiz-adv-x="822" d="M 297 1075 L 900 1075 L 875 952 L 416 952 L 229 0 L 86 0 L 297 1075 Z" unicode="г" />
<glyph horiz-adv-x="1053" d="M 47 123 L 499 1075 L 711 1075 L 830 123 L 937 123 L 873 -208 L 762 -208 L 784 0 L 62 0 L 3 -208 L -108 -208 L -44 123 L 47 123 Z M 680 123 L 601 933 L 569 933 L 197 123 L 680 123 Z" unicode="д" />
<glyph horiz-adv-x="1100" d="M 1005 532 L 246 532 L 237 446 C 234 414 240 369 255 311 C 269 252 300 202 346 162 C 392 122 451 102 522 102 C 653 102 766 186 860 356 L 977 293 C 850 83 691 -22 499 -22 C 376 -22 278 20 206 104 C 133 188 96 303 96 448 C 96 630 146 784 246 910 C 346 1035 474 1097 631 1097 C 754 1097 849 1059 917 985 C 984 911 1018 805 1018 669 C 1018 639 1013 593 1005 532 Z M 272 651 L 870 651 C 875 672 878 695 878 721 C 878 799 856 861 811 907 C 765 953 705 977 631 977 C 451 977 332 868 272 651 Z" unicode="е" />
<glyph horiz-adv-x="1295" d="M 565 473 L 495 502 L 79 0 L -85 0 L 402 580 L 163 1075 L 324 1075 L 539 601 L 585 579 L 681 1075 L 824 1075 L 728 579 L 774 595 L 1175 1075 L 1341 1075 L 902 557 L 1176 0 L 1015 0 L 781 498 L 708 473 L 617 0 L 474 0 L 565 473 Z" unicode="ж" />
<glyph horiz-adv-x="907" d="M 301 496 L 324 619 L 403 619 C 479 619 540 636 584 672 C 628 707 651 749 651 799 C 651 844 632 884 596 920 C 559 955 512 973 456 973 C 354 973 284 923 246 823 L 132 879 C 190 1024 305 1097 475 1097 C 583 1097 664 1068 718 1010 C 772 952 799 886 799 812 C 799 700 730 615 593 557 C 695 505 746 429 746 330 C 746 244 712 163 646 89 C 580 15 487 -22 368 -22 C 218 -22 89 41 -17 169 L 87 241 C 160 148 245 102 342 102 C 415 102 476 125 525 173 C 574 220 599 275 599 337 C 599 379 582 416 549 448 C 515 480 464 496 394 496 L 301 496 Z" unicode="з" />
<glyph horiz-adv-x="1185" d="M 229 0 L 86 0 L 297 1075 L 440 1075 L 278 249 L 954 1075 L 1098 1075 L 887 0 L 743 0 L 901 822 L 229 0 Z" unicode="и" />
<glyph horiz-adv-x="1185" d="M 229 0 L 86 0 L 297 1075 L 440 1075 L 278 249 L 954 1075 L 1098 1075 L 887 0 L 743 0 L 901 822 L 229 0 Z M 994 1499 L 1099 1499 C 1013 1328 891 1243 732 1243 C 670 1243 614 1266 566 1313 C 518 1359 488 1421 476 1499 L 570 1499 C 597 1425 660 1389 759 1389 C 859 1389 937 1425 994 1499 Z" unicode="й" />
<glyph horiz-adv-x="975" d="M 1053 1075 L 590 682 L 850 0 L 694 0 L 483 588 L 317 444 L 229 0 L 86 0 L 295 1075 L 439 1075 L 354 637 L 856 1075 L 1053 1075 Z" unicode="к" />
<glyph horiz-adv-x="951" d="M -55 0 L 456 1075 L 667 1075 L 801 0 L 647 0 L 557 933 L 525 933 L 97 0 L -55 0 Z" unicode="л" />
<glyph horiz-adv-x="1422" d="M 1166 943 L 693 0 L 556 0 L 414 943 L 229 0 L 86 0 L 297 1075 L 529 1075 L 647 148 L 1095 1075 L 1335 1075 L 1124 0 L 981 0 L 1166 943 Z" unicode="м" />
<glyph horiz-adv-x="1184" d="M 841 496 L 327 496 L 229 0 L 86 0 L 297 1075 L 440 1075 L 351 619 L 865 619 L 954 1075 L 1098 1075 L 887 0 L 743 0 L 841 496 Z" unicode="н" />
<glyph horiz-adv-x="1110" d="M 104 444 C 104 628 154 783 255 909 C 356 1034 479 1097 624 1097 C 740 1097 832 1054 900 968 C 968 882 1003 768 1003 626 C 1003 449 952 297 851 169 C 750 41 629 -22 487 -22 C 369 -22 275 19 207 103 C 138 187 104 300 104 444 Z M 248 420 C 248 324 271 247 317 189 C 363 131 422 102 493 102 C 593 102 679 155 751 263 C 823 371 860 499 860 647 C 860 747 837 827 791 885 C 745 943 684 973 610 973 C 513 973 428 919 356 811 C 284 703 248 572 248 420 Z" unicode="о" />
<glyph horiz-adv-x="1184" d="M 930 952 L 416 952 L 229 0 L 86 0 L 297 1075 L 1098 1075 L 887 0 L 743 0 L 930 952 Z" unicode="п" />
<glyph horiz-adv-x="1179" d="M 252 112 L 147 -432 L 4 -432 L 297 1075 L 422 1075 L 399 944 C 495 1046 601 1097 717 1097 C 835 1097 925 1058 987 981 C 1049 904 1081 793 1081 649 C 1081 457 1032 298 933 170 C 834 42 711 -22 565 -22 C 456 -22 352 22 252 112 Z M 385 790 L 280 260 C 354 154 447 102 557 102 C 661 102 751 156 825 265 C 899 374 936 505 936 657 C 936 869 852 975 686 975 C 630 975 573 958 517 924 C 461 890 417 846 385 790 Z" unicode="р" />
<glyph horiz-adv-x="1048" d="M 868 758 C 834 904 750 977 616 977 C 513 977 425 926 352 824 C 279 722 243 596 243 446 C 243 340 268 257 320 198 C 372 138 443 108 534 108 C 665 108 762 178 825 319 L 940 268 C 846 74 705 -22 516 -22 C 391 -22 290 22 214 111 C 137 200 98 316 98 459 C 98 632 148 782 246 908 C 344 1034 467 1097 614 1097 C 812 1097 943 992 1005 784 L 868 758 Z" unicode="с" />
<glyph horiz-adv-x="750" d="M 807 1075 L 783 952 L 530 952 L 342 0 L 197 0 L 384 952 L 130 952 L 154 1075 L 807 1075 Z" unicode="т" />
<glyph horiz-adv-x="940" d="M 366 -166 C 276 -343 164 -432 30 -432 C -17 -432 -62 -421 -106 -401 L -82 -274 C -39 -290 -2 -299 30 -299 C 127 -299 217 -206 299 -22 L 123 1075 L 276 1075 L 397 166 L 829 1075 L 993 1075 L 366 -166 Z" unicode="у" />
<glyph horiz-adv-x="1260" d="M 454 0 C 340 22 253 74 195 154 C 137 234 108 331 108 444 C 108 609 158 752 260 872 C 362 992 496 1060 664 1075 L 750 1515 L 893 1515 L 807 1075 C 917 1053 1002 1001 1062 920 C 1122 839 1152 741 1152 627 C 1152 464 1100 322 996 202 C 892 82 759 14 597 0 L 513 -432 L 370 -432 L 454 0 Z M 782 949 L 622 127 C 732 142 824 201 898 303 C 972 405 1009 517 1009 641 C 1009 804 933 907 782 949 Z M 478 127 L 639 949 C 526 931 433 872 360 770 C 287 668 251 556 251 434 C 251 272 326 170 478 127 Z" unicode="ф" />
<glyph horiz-adv-x="915" d="M 543 558 L 810 0 L 656 0 L 452 439 L 124 0 L -43 0 L 393 567 L 150 1075 L 304 1075 L 485 683 L 777 1075 L 940 1075 L 543 558 Z" unicode="х" />
<glyph horiz-adv-x="1184" d="M 911 123 L 1055 123 L 991 -208 L 880 -208 L 901 0 L 86 0 L 297 1075 L 440 1075 L 253 123 L 768 123 L 954 1075 L 1098 1075 L 911 123 Z" unicode="ц" />
<glyph horiz-adv-x="1031" d="M 715 543 C 607 419 502 357 398 357 C 327 357 268 383 220 436 C 172 489 149 559 149 647 C 149 683 153 724 162 770 L 223 1075 L 366 1075 L 307 764 C 297 714 292 675 292 648 C 292 604 304 567 330 536 C 355 505 389 490 432 490 C 523 490 627 564 745 713 L 818 1075 L 961 1075 L 757 0 L 613 0 L 715 543 Z" unicode="ч" />
<glyph horiz-adv-x="1564" d="M 629 123 L 816 1075 L 959 1075 L 772 123 L 1148 123 L 1335 1075 L 1478 1075 L 1267 0 L 86 0 L 297 1075 L 440 1075 L 253 123 L 629 123 Z" unicode="ш" />
<glyph horiz-adv-x="1564" d="M 629 123 L 816 1075 L 959 1075 L 772 123 L 1148 123 L 1335 1075 L 1478 1075 L 1291 123 L 1435 123 L 1371 -208 L 1260 -208 L 1281 0 L 86 0 L 297 1075 L 440 1075 L 253 123 L 629 123 Z" unicode="щ" />
<glyph horiz-adv-x="1048" d="M 340 952 L 81 952 L 105 1075 L 507 1075 L 424 650 L 620 650 C 716 650 791 622 847 567 C 902 511 930 441 930 357 C 930 262 893 179 820 107 C 747 35 650 0 530 0 L 153 0 L 340 952 Z M 320 123 L 528 123 C 595 123 654 145 706 191 C 757 237 783 290 783 352 C 783 396 768 436 738 472 C 708 508 664 527 605 527 L 400 527 L 320 123 Z" unicode="ъ" />
<glyph horiz-adv-x="1414" d="M 357 650 L 553 650 C 651 650 727 622 782 566 C 836 510 864 440 864 357 C 864 262 827 179 754 107 C 680 35 583 0 463 0 L 86 0 L 297 1075 L 440 1075 L 357 650 Z M 253 123 L 461 123 C 529 123 588 145 639 191 C 690 237 716 290 716 352 C 716 396 701 436 671 472 C 641 508 597 527 538 527 L 333 527 L 253 123 Z M 1117 0 L 974 0 L 1183 1075 L 1326 1075 L 1117 0 Z M 1375 1331 L 1375 1331 Z M 1232 1331 L 1232 1331 Z M 1267 1515 L 1267 1515 Z M 1410 1515 L 1410 1515 Z" unicode="ы" />
<glyph horiz-adv-x="981" d="M 357 650 L 553 650 C 651 650 727 622 782 566 C 836 510 864 440 864 357 C 864 262 827 179 754 107 C 680 35 583 0 463 0 L 86 0 L 297 1075 L 440 1075 L 357 650 Z M 253 123 L 461 123 C 529 123 588 145 639 191 C 690 237 716 290 716 352 C 716 396 701 436 671 472 C 641 508 597 527 538 527 L 333 527 L 253 123 Z" unicode="ь" />
<glyph horiz-adv-x="1114" d="M 850 490 L 395 490 L 419 613 L 862 613 C 862 734 835 823 783 879 C 730 935 659 964 571 964 C 507 964 452 949 406 920 C 360 890 318 836 280 756 L 166 807 C 262 1000 403 1097 589 1097 C 709 1097 809 1053 887 967 C 965 880 1005 763 1005 617 C 1005 445 955 295 857 168 C 758 41 636 -22 491 -22 C 300 -22 170 82 100 291 L 237 317 C 274 173 358 102 489 102 C 573 102 649 138 717 210 C 784 282 828 376 850 490 Z" unicode="э" />
<glyph horiz-adv-x="1539" d="M 348 607 L 548 607 C 578 755 640 874 734 963 C 828 1052 934 1097 1052 1097 C 1162 1097 1253 1055 1324 973 C 1395 891 1431 775 1431 627 C 1431 450 1380 298 1278 170 C 1176 42 1055 -22 913 -22 C 800 -22 708 18 638 99 C 567 180 532 295 532 444 C 532 455 532 468 533 484 L 324 484 L 229 0 L 86 0 L 297 1075 L 440 1075 L 348 607 Z M 1288 640 C 1288 748 1264 830 1217 887 C 1169 944 1110 973 1038 973 C 942 973 857 918 784 810 C 711 702 675 576 675 433 C 675 325 698 243 745 187 C 792 130 851 102 921 102 C 1019 102 1104 156 1178 264 C 1251 372 1288 497 1288 640 Z" unicode="ю" />
<glyph horiz-adv-x="1131" d="M 530 492 L 184 0 L 23 0 L 374 499 C 301 520 247 556 212 608 C 176 659 159 713 159 771 C 159 849 191 919 257 981 C 323 1043 413 1075 529 1075 L 1044 1075 L 833 0 L 690 0 L 787 492 L 530 492 Z M 877 952 L 530 952 C 458 952 402 934 364 898 C 325 862 306 819 306 769 C 306 666 369 615 497 615 L 811 615 L 877 952 Z" unicode="я" />
<glyph horiz-adv-x="1100" d="M 1005 532 L 246 532 L 237 446 C 234 414 240 369 255 311 C 269 252 300 202 346 162 C 392 122 451 102 522 102 C 653 102 766 186 860 356 L 977 293 C 850 83 691 -22 499 -22 C 376 -22 278 20 206 104 C 133 188 96 303 96 448 C 96 630 146 784 246 910 C 346 1035 474 1097 631 1097 C 754 1097 849 1059 917 985 C 984 911 1018 805 1018 669 C 1018 639 1013 593 1005 532 Z M 272 651 L 870 651 C 875 672 878 695 878 721 C 878 799 856 861 811 907 C 765 953 705 977 631 977 C 451 977 332 868 272 651 Z M 391 1249 L 426 1423 L 600 1423 L 565 1249 L 391 1249 Z M 800 1249 L 835 1423 L 1009 1423 L 975 1249 L 800 1249 Z" unicode="ё" />
<glyph horiz-adv-x="1171" d="M 491 -432 L 514 -297 C 548 -301 570 -303 579 -303 C 645 -303 688 -254 708 -158 L 875 690 C 884 738 889 772 889 791 C 889 849 872 892 840 921 C 807 950 768 965 723 965 C 618 965 502 890 376 741 L 229 0 L 86 0 L 325 1249 L 172 1249 L 196 1372 L 348 1372 L 376 1515 L 520 1515 L 493 1372 L 876 1372 L 852 1249 L 470 1249 L 405 911 C 521 1035 637 1097 753 1097 C 835 1097 902 1069 954 1014 C 1006 959 1032 882 1032 783 C 1032 763 1030 743 1026 721 L 876 -57 C 843 -225 803 -331 755 -373 C 707 -415 640 -436 555 -436 C 534 -436 513 -434 491 -432 Z" unicode="ђ" />
<glyph horiz-adv-x="822" d="M 297 1075 L 900 1075 L 875 952 L 416 952 L 229 0 L 86 0 L 297 1075 Z M 527 1210 L 808 1540 L 1037 1540 L 656 1210 L 527 1210 Z" unicode="ѓ" />
<glyph horiz-adv-x="1049" d="M 261 613 L 724 613 L 700 490 L 244 490 C 243 479 243 469 243 459 C 243 342 268 255 320 197 C 372 139 443 111 534 111 C 666 111 763 180 825 319 L 940 268 C 846 74 704 -22 516 -22 C 395 -22 295 21 217 108 C 139 194 100 311 100 458 C 100 630 149 779 248 906 C 346 1033 468 1097 614 1097 C 807 1097 937 992 1005 784 L 868 758 C 827 901 743 973 616 973 C 537 973 465 941 400 877 C 334 813 288 725 261 613 Z" unicode="є" />
<glyph horiz-adv-x="907" d="M 745 825 C 695 929 617 981 512 981 C 450 981 398 964 358 930 C 317 896 297 856 297 809 C 297 741 363 678 497 618 C 597 573 668 527 710 481 C 751 434 772 374 772 301 C 772 208 737 131 667 70 C 597 8 509 -22 401 -22 C 222 -22 86 75 -8 270 L 112 327 C 155 239 198 178 240 146 C 282 114 334 98 395 98 C 465 98 522 116 566 153 C 609 190 631 237 631 293 C 631 327 620 358 598 388 C 576 417 522 453 436 496 C 330 547 257 593 216 633 C 175 673 155 726 155 794 C 155 883 188 956 255 1012 C 322 1068 408 1097 512 1097 C 666 1097 782 1024 858 880 L 745 825 Z" unicode="ѕ" />
<glyph horiz-adv-x="524" d="M 229 0 L 86 0 L 297 1075 L 440 1075 L 229 0 Z M 487 1331 L 344 1331 L 379 1515 L 522 1515 L 487 1331 Z" unicode="і" />
<glyph horiz-adv-x="524" d="M 229 0 L 86 0 L 295 1075 L 438 1075 L 229 0 Z M 487 1331 L 487 1331 Z M 344 1331 L 344 1331 Z M 379 1515 L 379 1515 Z M 522 1515 L 522 1515 Z M 102 1249 L 137 1423 L 311 1423 L 276 1249 L 102 1249 Z M 511 1249 L 546 1423 L 720 1423 L 686 1249 L 511 1249 Z" unicode="ї" />
<glyph horiz-adv-x="524" d="M 223 -57 C 189 -235 145 -343 92 -381 C 39 -419 -19 -438 -85 -438 C -109 -438 -134 -436 -162 -432 L -139 -297 C -114 -301 -94 -303 -80 -303 C -8 -303 36 -254 55 -157 L 297 1075 L 440 1075 L 223 -57 Z M 489 1335 L 346 1335 L 381 1515 L 524 1515 L 489 1335 Z" unicode="ј" />
<glyph horiz-adv-x="1378" d="M 720 650 L 951 650 C 1049 650 1125 622 1180 566 C 1234 510 1262 440 1262 357 C 1262 262 1225 179 1152 107 C 1078 35 981 0 861 0 L 647 0 L 557 933 L 525 933 L 97 0 L -55 0 L 456 1075 L 667 1075 L 720 650 Z M 736 527 L 786 123 L 859 123 C 927 123 986 145 1037 191 C 1088 237 1114 290 1114 352 C 1114 396 1099 436 1069 472 C 1039 508 995 527 936 527 L 736 527 Z" unicode="љ" />
<glyph horiz-adv-x="1584" d="M 960 650 L 1157 650 C 1252 650 1327 622 1383 567 C 1439 511 1467 441 1467 357 C 1467 262 1430 179 1357 107 C 1284 35 1187 0 1066 0 L 689 0 L 793 527 L 333 527 L 229 0 L 86 0 L 297 1075 L 440 1075 L 357 650 L 817 650 L 900 1075 L 1044 1075 L 960 650 Z M 857 123 L 1064 123 C 1132 123 1191 145 1242 191 C 1293 237 1319 290 1319 352 C 1319 396 1304 436 1275 472 C 1245 508 1201 527 1141 527 L 936 527 L 857 123 Z" unicode="њ" />
<glyph horiz-adv-x="1171" d="M 493 1372 L 876 1372 L 852 1249 L 470 1249 L 405 911 C 521 1035 637 1097 753 1097 C 835 1097 902 1069 954 1014 C 1006 959 1032 883 1032 785 C 1032 763 1030 742 1026 721 L 885 0 L 741 0 L 875 690 C 884 740 889 773 889 791 C 889 849 872 892 840 921 C 807 950 768 965 723 965 C 618 965 502 890 376 741 L 229 0 L 86 0 L 325 1249 L 172 1249 L 196 1372 L 348 1372 L 376 1515 L 520 1515 L 493 1372 Z" unicode="ћ" />
</font>
</defs>
</svg>
