<?xml version="1.0" encoding="utf-8" ?><svg version="1.1" xmlns = 'http://www.w3.org/2000/svg'><defs><font id='web' horiz-adv-x="1000">
<font-face font-family="web" descent="-440" cap-height="1331" units-per-em="2048" bbox="-319,-500,2103,1897" x-height="879" ascent="1477" />
<missing-glyph horiz-adv-x="2048" d="M 256 0 L 256 1536 L 1792 1536 L 1792 0 L 256 0 Z M 384 128 L 1664 128 L 1664 1408 L 384 1408 L 384 128 Z" /><glyph horiz-adv-x="492" d="" unicode=" " />
<glyph horiz-adv-x="555" d="M 244 381 L 268 705 C 283 899 296 1029 308 1097 C 319 1165 340 1213 370 1242 C 400 1271 435 1286 477 1286 C 511 1286 539 1274 562 1252 C 584 1229 596 1202 596 1171 C 596 1123 579 1059 547 979 C 515 899 460 776 383 610 L 276 381 L 244 381 Z M 225 258 C 263 258 297 243 325 215 C 353 187 367 153 367 115 C 367 76 353 43 325 15 C 297 -13 263 -27 225 -27 C 186 -27 153 -13 125 15 C 97 43 84 76 84 115 C 84 153 97 187 125 215 C 153 243 186 258 225 258 Z" unicode="!" />
<glyph horiz-adv-x="942" d="M 698 709 L 731 1133 C 743 1287 798 1364 895 1364 C 933 1364 964 1354 986 1334 C 1008 1314 1020 1291 1020 1266 C 1020 1235 1011 1201 994 1163 C 976 1125 939 1055 883 952 L 748 709 L 698 709 Z M 248 709 L 281 1133 C 293 1287 348 1364 444 1364 C 483 1364 514 1354 536 1334 C 558 1314 569 1291 569 1266 C 569 1235 560 1201 543 1163 C 526 1125 489 1055 432 952 L 297 709 L 248 709 Z" unicode="&#x22;" />
<glyph horiz-adv-x="1366" d="M 1325 389 L 1001 389 L 920 0 L 768 0 L 850 389 L 461 389 L 379 0 L 227 0 L 309 389 L 123 389 L 123 537 L 340 537 L 414 885 L 123 885 L 123 1032 L 444 1032 L 528 1421 L 680 1421 L 598 1032 L 985 1032 L 1069 1421 L 1221 1421 L 1139 1032 L 1325 1032 L 1325 885 L 1108 885 L 1032 537 L 1325 537 L 1325 389 Z M 954 885 L 567 885 L 494 537 L 881 537 L 954 885 Z" unicode="#" />
<glyph horiz-adv-x="981" d="M 969 1331 L 909 991 L 854 991 C 858 1022 860 1049 860 1073 C 860 1191 802 1264 686 1290 L 592 793 C 700 695 777 612 822 546 C 866 479 889 411 889 342 C 889 243 845 157 758 83 C 671 9 565 -27 440 -27 L 412 -188 L 352 -188 L 381 -25 C 302 -11 234 13 176 49 L 98 -8 L 49 -8 L 98 369 L 156 369 C 150 178 229 67 393 37 L 496 592 C 393 686 322 762 284 822 C 246 882 227 944 227 1008 C 227 1092 259 1170 325 1242 C 390 1314 494 1352 637 1356 L 655 1464 L 715 1464 L 694 1350 C 714 1348 748 1342 796 1330 C 844 1318 873 1313 885 1313 C 896 1313 908 1319 920 1331 L 969 1331 Z M 627 1294 C 559 1289 508 1263 474 1215 C 439 1167 422 1121 422 1075 C 422 988 461 908 539 836 L 627 1294 Z M 455 37 C 533 40 591 66 630 115 C 668 163 688 215 688 270 C 688 363 641 454 547 543 L 455 37 Z" unicode="$" />
<glyph horiz-adv-x="1962" d="M 1300 1425 L 602 -66 L 512 -66 L 1212 1425 L 1300 1425 Z M 532 1380 C 618 1380 689 1352 747 1296 C 805 1240 834 1171 834 1087 C 834 989 797 903 723 827 C 649 751 565 713 469 713 C 386 713 316 739 258 792 C 200 845 172 916 172 1006 C 172 1110 209 1198 283 1271 C 357 1343 440 1380 532 1380 Z M 461 766 C 524 766 575 804 615 880 C 654 956 674 1041 674 1135 C 674 1200 661 1248 636 1280 C 610 1311 581 1327 549 1327 C 482 1327 429 1290 390 1216 C 351 1142 332 1059 332 965 C 332 832 375 766 461 766 Z M 1360 641 C 1446 641 1517 613 1575 557 C 1632 501 1661 431 1661 348 C 1661 250 1624 163 1550 87 C 1476 11 1392 -27 1296 -27 C 1214 -27 1144 0 1086 53 C 1028 106 999 177 999 266 C 999 370 1036 459 1110 532 C 1184 604 1267 641 1360 641 Z M 1288 27 C 1352 27 1403 65 1442 141 C 1481 217 1501 301 1501 395 C 1501 461 1488 509 1463 541 C 1437 572 1408 588 1376 588 C 1309 588 1256 551 1217 477 C 1178 403 1159 319 1159 225 C 1159 93 1202 27 1288 27 Z" unicode="%" />
<glyph horiz-adv-x="1855" d="M 1307 752 C 1247 808 1194 836 1147 836 C 1112 836 1084 826 1063 808 C 1042 790 1032 767 1032 739 C 1032 703 1050 677 1087 662 C 1124 646 1143 621 1143 586 C 1143 563 1133 544 1113 529 C 1093 513 1068 506 1036 506 C 1000 506 971 519 949 546 C 926 572 915 607 915 649 C 915 722 952 792 1026 858 C 1100 924 1175 958 1251 958 C 1309 958 1355 946 1389 924 C 1423 901 1460 864 1500 813 C 1540 762 1578 737 1616 737 C 1662 737 1686 754 1686 788 C 1686 802 1676 820 1658 843 C 1639 866 1630 890 1630 915 C 1630 933 1637 949 1652 962 C 1667 974 1686 981 1710 981 C 1735 981 1756 970 1774 950 C 1791 929 1800 904 1800 874 C 1800 818 1774 764 1722 712 C 1670 659 1612 633 1550 633 C 1474 633 1414 661 1368 717 C 1359 487 1289 304 1158 168 C 1027 31 857 -37 647 -37 C 499 -37 375 7 273 95 C 171 183 121 293 121 426 C 121 586 177 728 291 850 C 404 972 526 1034 657 1034 C 689 1034 717 1028 741 1017 C 764 1006 776 991 776 973 C 933 1129 1012 1238 1012 1298 C 1012 1314 1008 1332 1001 1350 C 994 1368 991 1382 991 1391 C 991 1415 999 1436 1015 1452 C 1031 1468 1053 1477 1081 1477 C 1109 1477 1132 1468 1150 1452 C 1168 1436 1178 1415 1178 1389 C 1178 1349 1143 1288 1075 1204 C 1006 1120 855 969 621 750 C 428 564 332 447 332 401 C 332 347 367 295 438 243 C 508 191 593 166 692 166 C 844 166 981 219 1102 325 C 1222 431 1291 574 1307 752 Z M 295 487 C 377 595 480 706 606 821 C 612 827 616 836 616 848 C 616 886 589 905 537 905 C 468 905 409 871 361 803 C 313 735 289 647 289 541 C 289 533 291 515 295 487 Z" unicode="&#x26;" />
<glyph horiz-adv-x="520" d="M 227 709 L 260 1133 C 272 1287 327 1364 424 1364 C 462 1364 493 1354 515 1334 C 537 1314 549 1291 549 1266 C 549 1235 540 1201 523 1163 C 505 1125 468 1055 412 952 L 276 709 L 227 709 Z" unicode="'" />
<glyph horiz-adv-x="662" d="M 629 1303 C 351 980 213 633 213 262 C 213 55 254 -151 338 -358 L 254 -397 C 152 -173 102 52 102 279 C 102 665 255 1028 563 1366 L 629 1303 Z" unicode="(" />
<glyph horiz-adv-x="662" d="M 414 1366 C 514 1142 565 916 565 690 C 565 303 411 -59 104 -397 L 39 -334 C 316 -11 455 335 455 707 C 455 913 413 1119 330 1327 L 414 1366 Z" unicode=")" />
<glyph horiz-adv-x="874" d="M 520 1094 L 514 1225 C 511 1263 517 1296 531 1323 C 545 1350 568 1364 600 1364 C 622 1364 641 1355 657 1339 C 672 1322 680 1303 680 1282 C 680 1246 635 1181 545 1087 L 520 1094 Z M 475 1073 L 461 1055 C 351 1082 284 1102 260 1115 C 235 1127 223 1147 223 1174 C 223 1197 231 1217 247 1234 C 263 1251 281 1260 301 1260 C 345 1260 403 1197 475 1073 Z M 584 1047 C 588 1047 618 1057 674 1076 C 729 1094 763 1104 776 1104 C 800 1104 820 1096 835 1081 C 850 1065 858 1046 858 1024 C 858 1002 850 984 834 968 C 818 952 800 944 780 944 C 758 944 722 954 671 976 C 620 997 592 1008 586 1010 L 584 1047 Z M 475 979 C 441 916 412 870 389 841 C 365 811 339 797 311 797 C 288 797 269 804 254 819 C 238 833 231 852 231 874 C 231 934 307 977 459 1001 L 475 979 Z M 557 973 C 613 897 648 850 660 830 C 672 810 678 792 678 776 C 678 752 670 731 655 714 C 639 696 618 688 592 688 C 537 688 510 723 510 795 C 510 814 515 870 526 963 L 557 973 Z" unicode="*" />
<glyph horiz-adv-x="1366" d="M 1272 588 L 803 588 L 803 119 L 645 119 L 645 588 L 176 588 L 176 745 L 645 745 L 645 1214 L 803 1214 L 803 745 L 1272 745 L 1272 588 Z" unicode="+" />
<glyph horiz-adv-x="555" d="M 63 -272 C 136 -272 199 -250 253 -207 C 307 -163 334 -120 334 -76 C 334 -42 312 -22 270 -16 C 191 -2 152 44 152 123 C 152 157 165 188 192 216 C 218 244 252 258 293 258 C 350 258 395 237 428 195 C 460 153 477 101 477 41 C 477 -45 437 -128 358 -206 C 279 -284 185 -324 76 -324 L 63 -272 Z" unicode="," />
<glyph horiz-adv-x="662" d="M 602 555 L 567 399 L 80 399 L 115 555 L 602 555 Z" unicode="-" />
<glyph horiz-adv-x="555" d="M 293 258 C 331 258 364 243 392 215 C 420 187 434 153 434 115 C 434 76 420 43 392 15 C 364 -13 331 -27 293 -27 C 254 -27 221 -13 193 15 C 165 43 152 76 152 115 C 152 153 165 187 193 215 C 221 243 254 258 293 258 Z" unicode="." />
<glyph horiz-adv-x="1153" d="M 1122 1477 L 207 0 L 31 0 L 946 1477 L 1122 1477 Z" unicode="/" />
<glyph horiz-adv-x="981" d="M 559 1337 C 687 1337 788 1288 860 1192 C 932 1095 969 956 969 774 C 969 558 920 370 823 211 C 726 52 605 -27 461 -27 C 332 -27 231 21 159 118 C 87 215 51 355 51 537 C 51 753 99 940 196 1099 C 293 1257 414 1337 559 1337 Z M 436 45 C 538 45 619 153 679 369 C 739 585 770 785 770 969 C 770 1167 708 1266 584 1266 C 481 1266 400 1157 340 941 C 280 725 250 525 250 342 C 250 144 312 45 436 45 Z" unicode="0" />
<glyph horiz-adv-x="981" d="M 776 51 L 766 -4 L 657 -4 L 432 0 C 354 0 247 -1 113 -4 L 125 51 C 227 57 287 62 303 66 C 319 70 333 107 346 178 L 522 1165 L 211 1001 L 186 1057 C 330 1130 512 1228 731 1352 L 768 1346 L 582 289 C 565 194 557 132 557 102 C 557 84 565 72 581 67 C 597 62 662 57 776 51 Z" unicode="1" />
<glyph horiz-adv-x="981" d="M 883 268 L 815 0 L 10 0 L 20 70 C 446 440 659 743 659 979 C 659 1041 639 1091 601 1131 C 562 1170 510 1190 446 1190 C 355 1190 270 1151 190 1073 L 158 1112 C 292 1262 425 1337 557 1337 C 659 1337 738 1307 796 1249 C 854 1190 883 1124 883 1051 C 883 936 843 822 764 709 C 684 595 511 420 244 184 L 784 184 L 838 285 L 883 268 Z" unicode="2" />
<glyph horiz-adv-x="981" d="M 256 1182 C 372 1285 493 1337 618 1337 C 703 1337 772 1315 825 1271 C 878 1227 905 1170 905 1098 C 905 1028 873 958 810 890 C 746 822 657 767 543 727 L 543 723 C 641 709 720 677 779 625 C 838 573 868 510 868 436 C 868 314 818 206 719 111 C 620 16 492 -31 336 -31 C 255 -31 184 -15 122 16 C 60 48 29 80 29 113 C 29 127 38 143 57 161 C 75 179 92 188 106 188 C 122 188 133 182 139 170 C 189 77 258 31 346 31 C 434 31 505 66 558 137 C 610 207 637 294 637 397 C 637 580 537 672 338 672 L 346 727 C 448 732 530 765 592 825 C 653 885 684 959 684 1047 C 684 1099 667 1142 635 1176 C 603 1210 560 1227 506 1227 C 432 1227 360 1198 289 1141 L 256 1182 Z" unicode="3" />
<glyph horiz-adv-x="981" d="M 944 1337 L 795 545 L 934 545 L 903 389 L 766 389 L 694 0 L 485 0 L 557 389 L 27 389 L 39 483 L 838 1337 L 944 1337 Z M 678 1049 L 674 1053 L 201 545 L 586 545 L 678 1049 Z" unicode="4" />
<glyph horiz-adv-x="981" d="M 911 1315 L 852 1128 L 426 1128 L 367 965 C 531 890 647 810 716 726 C 784 642 819 546 819 438 C 819 314 769 205 671 111 C 572 16 456 -31 324 -31 C 243 -31 173 -13 114 22 C 54 58 25 91 25 123 C 25 140 34 157 53 174 C 71 190 88 199 102 199 C 118 199 130 190 139 172 C 159 130 188 95 226 69 C 264 42 306 29 352 29 C 435 29 502 58 553 118 C 603 178 629 257 629 356 C 629 538 493 687 223 801 L 412 1315 L 911 1315 Z" unicode="5" />
<glyph horiz-adv-x="981" d="M 971 1303 C 731 1217 555 1080 443 892 C 331 704 276 526 276 358 C 276 259 292 180 324 120 C 356 60 403 31 465 31 C 535 31 590 66 631 137 C 671 207 692 292 692 391 C 692 469 675 532 642 580 C 609 628 565 653 510 653 C 460 653 421 644 391 627 L 401 690 C 467 730 532 750 596 750 C 678 750 751 722 814 666 C 877 610 909 533 909 436 C 909 306 864 196 774 105 C 684 14 578 -31 455 -31 C 341 -31 247 6 175 81 C 102 155 66 259 66 393 C 66 594 143 786 297 969 C 451 1151 670 1279 952 1352 L 971 1303 Z" unicode="6" />
<glyph horiz-adv-x="981" d="M 1044 1282 L 242 -51 L 160 -2 L 836 1114 L 207 1114 L 152 997 L 94 997 L 180 1315 L 1044 1315 L 1044 1282 Z" unicode="7" />
<glyph horiz-adv-x="981" d="M 387 643 C 307 729 255 796 231 842 C 207 888 195 939 195 993 C 195 1087 232 1168 308 1236 C 383 1303 478 1337 592 1337 C 691 1337 771 1311 831 1260 C 891 1209 922 1143 922 1061 C 922 919 820 795 618 688 C 696 604 749 539 777 495 C 805 450 819 396 819 334 C 819 236 778 150 698 78 C 617 5 521 -31 410 -31 C 292 -31 202 -1 140 57 C 78 116 47 187 47 270 C 47 420 160 545 387 643 Z M 582 731 C 707 811 770 925 770 1071 C 770 1135 753 1185 721 1221 C 689 1257 643 1276 584 1276 C 525 1276 478 1255 442 1215 C 406 1174 389 1123 389 1063 C 389 1022 398 981 416 941 C 434 901 489 831 582 731 Z M 608 274 C 608 327 594 377 567 423 C 539 469 492 528 426 600 C 352 565 296 517 257 457 C 218 397 199 332 199 264 C 199 196 218 140 257 96 C 296 52 344 31 401 31 C 466 31 517 52 553 96 C 589 139 608 198 608 274 Z" unicode="8" />
<glyph horiz-adv-x="981" d="M 633 629 C 562 583 492 561 424 561 C 348 561 276 589 210 646 C 144 702 111 778 111 874 C 111 1006 154 1116 241 1204 C 327 1292 435 1337 565 1337 C 679 1337 773 1300 845 1227 C 917 1153 954 1050 954 918 C 954 704 877 509 724 333 C 571 157 352 32 68 -41 L 49 8 C 298 103 476 237 583 409 C 689 581 743 762 743 952 C 743 1043 726 1120 694 1182 C 661 1244 615 1276 555 1276 C 485 1276 430 1241 389 1171 C 348 1101 328 1017 328 920 C 328 838 344 773 376 725 C 408 677 454 653 514 653 C 564 653 607 666 643 692 L 633 629 Z" unicode="9" />
<glyph horiz-adv-x="555" d="M 365 778 C 403 778 436 763 464 735 C 492 707 506 673 506 635 C 506 596 492 563 464 535 C 436 507 403 494 365 494 C 325 494 292 507 264 535 C 236 563 223 596 223 635 C 223 673 237 707 265 735 C 293 763 326 778 365 778 Z M 236 258 C 274 258 307 243 335 215 C 363 187 377 153 377 115 C 377 76 363 43 335 15 C 307 -13 274 -27 236 -27 C 196 -27 163 -13 135 15 C 107 43 94 76 94 115 C 94 153 108 187 136 215 C 164 243 197 258 236 258 Z" unicode=":" />
<glyph horiz-adv-x="555" d="M 365 778 C 403 778 436 763 464 735 C 492 707 506 673 506 635 C 506 596 492 563 464 535 C 436 507 403 494 365 494 C 325 494 292 507 264 535 C 236 563 223 596 223 635 C 223 673 237 707 265 735 C 293 763 326 778 365 778 Z M 39 -272 C 111 -272 174 -250 228 -207 C 282 -163 309 -120 309 -76 C 309 -42 288 -22 246 -16 C 166 -2 127 44 127 123 C 127 157 140 188 167 216 C 194 244 228 258 268 258 C 325 258 370 237 403 195 C 436 153 453 101 453 41 C 453 -45 413 -128 334 -206 C 255 -284 161 -324 51 -324 L 39 -272 Z" unicode=";" />
<glyph horiz-adv-x="1366" d="M 1274 137 L 178 596 L 178 739 L 1274 1198 L 1274 1028 L 391 668 L 1274 307 L 1274 137 Z" unicode="&#x3C;" />
<glyph horiz-adv-x="1366" d="M 1272 827 L 176 827 L 176 985 L 1272 985 L 1272 827 Z M 1272 354 L 176 354 L 176 512 L 1272 512 L 1272 354 Z" unicode="=" />
<glyph horiz-adv-x="1366" d="M 1274 596 L 178 137 L 178 307 L 1061 668 L 178 1028 L 178 1198 L 1274 739 L 1274 596 Z" unicode="&#x3E;" />
<glyph horiz-adv-x="768" d="M 416 1337 C 502 1337 577 1306 640 1245 C 703 1184 735 1117 735 1044 C 735 977 715 920 677 872 C 638 824 570 787 473 759 C 376 731 313 703 284 675 C 254 647 240 615 240 578 C 240 544 252 518 277 498 C 301 478 334 469 375 469 C 381 469 393 472 409 478 C 425 484 438 487 449 487 C 483 487 500 469 500 434 C 500 410 489 391 469 377 C 448 363 423 356 393 356 C 326 356 268 387 219 450 C 169 512 145 586 145 672 C 145 810 233 904 410 954 C 516 984 581 1009 607 1031 C 632 1052 645 1078 645 1110 C 645 1142 631 1170 605 1192 C 579 1214 546 1225 508 1225 C 488 1225 460 1215 426 1195 C 392 1175 363 1165 340 1165 C 292 1165 268 1193 268 1251 C 268 1308 317 1337 416 1337 Z M 236 258 C 274 258 307 243 335 215 C 363 187 377 153 377 115 C 377 76 363 43 335 15 C 307 -13 274 -27 236 -27 C 196 -27 163 -13 135 15 C 107 43 94 76 94 115 C 94 153 108 187 136 215 C 164 243 197 258 236 258 Z" unicode="?" />
<glyph horiz-adv-x="1905" d="M 1858 141 C 1784 -49 1669 -198 1513 -305 C 1357 -411 1178 -465 975 -465 C 721 -465 510 -383 342 -219 C 174 -55 90 155 90 412 C 90 681 180 907 361 1090 C 542 1272 774 1364 1057 1364 C 1281 1364 1456 1299 1584 1171 C 1712 1042 1776 881 1776 688 C 1776 496 1719 329 1606 187 C 1493 45 1350 -25 1176 -25 C 1108 -25 1057 -7 1023 26 C 989 60 973 102 973 150 C 973 192 981 239 997 289 L 993 293 C 876 81 762 -25 651 -25 C 597 -25 556 -3 527 40 C 497 83 483 135 483 197 C 483 386 544 557 667 710 C 789 863 901 940 1001 940 C 1084 940 1131 887 1141 782 L 1145 782 L 1178 901 L 1421 911 L 1237 283 C 1217 215 1208 163 1208 125 C 1208 106 1215 89 1231 73 C 1246 57 1264 49 1286 49 C 1372 49 1465 109 1567 230 C 1669 351 1720 498 1720 670 C 1720 848 1661 998 1545 1119 C 1429 1239 1273 1300 1079 1300 C 817 1300 604 1209 440 1028 C 276 847 195 630 195 377 C 195 144 269 -45 417 -191 C 565 -337 752 -410 977 -410 C 1149 -410 1312 -363 1464 -269 C 1616 -175 1726 -39 1796 141 L 1858 141 Z M 801 160 C 849 160 910 224 985 354 C 1060 484 1098 611 1098 737 C 1098 773 1091 804 1077 829 C 1063 853 1046 866 1024 866 C 968 866 907 785 841 623 C 774 461 741 336 741 250 C 741 225 746 204 758 186 C 770 168 784 160 801 160 Z" unicode="@" />
<glyph horiz-adv-x="1430" d="M 1370 -4 L 1106 0 L 829 -4 L 842 55 C 910 55 952 59 966 69 C 980 79 987 98 987 127 C 987 151 985 173 981 195 L 922 498 L 453 498 L 307 207 C 289 173 281 142 281 113 C 281 93 288 79 303 69 C 318 59 353 55 408 55 L 395 -4 C 317 -1 247 0 184 0 C 118 0 43 -1 -39 -4 L -27 55 L 20 55 C 82 55 141 107 199 213 L 817 1352 L 979 1391 L 1192 283 C 1212 175 1232 109 1252 86 C 1272 63 1315 53 1382 55 L 1370 -4 Z M 905 588 L 797 1161 L 793 1161 L 502 588 L 905 588 Z" unicode="A" />
<glyph horiz-adv-x="1235" d="M 236 1331 L 498 1327 L 838 1331 C 934 1331 1016 1306 1085 1258 C 1153 1209 1188 1137 1188 1042 C 1188 878 1069 769 831 715 L 831 711 C 950 689 1033 654 1081 604 C 1129 554 1153 486 1153 401 C 1153 291 1105 196 1010 116 C 915 36 790 -4 635 -4 L 389 0 L 47 -4 L 57 55 C 111 54 149 62 169 78 C 189 94 205 139 219 213 L 369 1032 C 383 1119 391 1178 391 1208 C 391 1250 359 1272 297 1272 L 223 1272 L 236 1331 Z M 543 733 L 664 733 C 744 733 813 761 869 817 C 925 873 954 948 954 1040 C 954 1192 886 1268 750 1268 C 699 1268 662 1266 639 1264 L 543 733 Z M 532 670 L 440 166 C 438 153 437 142 437 134 C 437 106 448 88 470 79 C 492 70 533 66 592 66 C 699 66 780 102 836 175 C 892 247 920 328 920 416 C 920 502 897 566 851 608 C 805 649 730 670 627 670 L 532 670 Z" unicode="B" />
<glyph horiz-adv-x="1430" d="M 801 -33 C 583 -33 413 28 293 151 C 173 273 113 426 113 608 C 113 811 192 988 352 1138 C 511 1288 710 1364 950 1364 C 1016 1364 1069 1359 1108 1349 C 1147 1339 1190 1326 1236 1309 C 1282 1292 1306 1284 1307 1284 C 1321 1284 1339 1294 1360 1315 L 1401 1307 L 1339 969 L 1280 979 C 1288 1078 1260 1156 1196 1214 C 1132 1271 1049 1300 946 1300 C 784 1300 647 1234 535 1102 C 423 970 367 801 367 594 C 367 418 409 281 495 181 C 581 81 689 31 819 31 C 1005 31 1152 145 1262 373 L 1315 360 L 1239 47 C 1217 55 1199 59 1184 59 C 1170 59 1146 51 1112 37 C 1007 -9 903 -33 801 -33 Z" unicode="C" />
<glyph horiz-adv-x="1536" d="M 231 1331 L 512 1327 L 819 1331 C 927 1331 1038 1304 1152 1252 C 1266 1200 1351 1123 1408 1023 C 1464 922 1493 823 1493 727 C 1493 543 1422 376 1281 224 C 1139 72 915 -4 608 -4 L 371 0 L 41 -4 L 51 55 C 135 55 183 91 197 164 L 371 1122 C 375 1148 377 1172 377 1196 C 377 1224 366 1243 344 1254 C 322 1265 281 1271 219 1272 L 231 1331 Z M 631 1264 L 438 203 C 434 186 432 164 432 137 C 432 85 486 59 594 59 C 808 59 969 130 1077 272 C 1185 414 1239 570 1239 741 C 1239 907 1188 1036 1087 1129 C 986 1221 850 1268 678 1268 C 663 1268 647 1266 631 1264 Z" unicode="D" />
<glyph horiz-adv-x="1194" d="M 1163 311 L 1077 -4 C 975 -1 796 0 539 0 C 395 0 229 -1 41 -4 L 53 55 C 116 55 158 68 178 95 C 198 122 213 158 221 203 L 391 1135 C 395 1161 397 1179 397 1188 C 397 1224 386 1247 366 1257 C 346 1267 308 1272 254 1272 L 266 1331 C 410 1327 525 1326 610 1327 L 1163 1331 L 1145 1067 L 1096 1067 C 1096 1121 1090 1160 1080 1185 C 1069 1210 1040 1229 994 1243 C 947 1257 870 1264 764 1264 C 736 1264 695 1262 643 1260 L 547 741 L 694 741 C 763 741 813 752 844 776 C 875 800 899 845 915 911 L 969 911 C 937 750 913 609 895 487 L 842 487 L 846 580 C 846 612 839 634 827 645 C 814 656 785 662 739 662 L 535 662 L 453 217 C 450 197 449 178 449 160 C 449 120 459 94 480 82 C 501 69 539 63 594 63 C 758 63 861 65 903 71 C 945 76 984 100 1020 142 C 1055 184 1085 240 1110 309 L 1163 311 Z" unicode="E" />
<glyph horiz-adv-x="1087" d="M 1108 1331 L 1085 1063 L 1032 1063 C 1032 1143 1016 1197 986 1224 C 955 1250 882 1264 768 1264 C 710 1264 663 1261 627 1255 L 530 727 L 772 727 C 855 727 908 783 932 897 L 985 897 C 945 687 919 545 907 473 L 856 473 C 860 515 862 543 862 559 C 862 595 854 618 839 630 C 824 641 802 647 774 647 L 516 647 L 434 199 C 427 161 424 133 424 115 C 424 95 431 80 446 70 C 460 60 493 55 543 55 L 584 55 L 573 -4 C 459 -1 370 0 307 0 C 250 0 158 -1 31 -4 L 43 55 C 104 56 144 67 163 89 C 182 110 199 163 215 248 L 373 1114 C 378 1141 381 1167 381 1192 C 381 1221 371 1242 353 1254 C 335 1266 296 1272 236 1272 L 246 1331 C 394 1328 524 1327 635 1327 L 1108 1331 Z" unicode="F" />
<glyph horiz-adv-x="1536" d="M 1505 492 L 1470 492 C 1442 492 1416 480 1393 458 C 1370 436 1356 407 1350 373 L 1296 61 C 1131 -4 960 -37 782 -37 C 583 -37 422 23 298 143 C 174 263 113 412 113 590 C 113 793 196 973 363 1129 C 529 1285 735 1364 981 1364 C 1092 1364 1201 1343 1308 1303 C 1359 1283 1389 1274 1397 1274 C 1407 1274 1418 1275 1429 1279 C 1440 1282 1459 1284 1485 1284 L 1436 956 L 1378 956 C 1376 1087 1337 1177 1261 1226 C 1185 1275 1096 1300 993 1300 C 801 1300 648 1228 536 1086 C 423 944 367 780 367 594 C 367 430 406 295 486 188 C 565 80 679 27 827 27 C 913 27 979 41 1023 70 C 1067 98 1096 154 1111 236 C 1125 318 1133 373 1133 401 C 1133 429 1122 451 1100 466 C 1078 481 1029 489 952 489 L 963 549 C 1092 546 1175 545 1212 545 C 1290 545 1392 547 1518 551 L 1505 492 Z" unicode="G" />
<glyph horiz-adv-x="1642" d="M 1642 1331 L 1630 1272 C 1580 1271 1545 1264 1527 1252 C 1508 1240 1485 1162 1458 1018 L 1313 242 C 1304 180 1300 137 1300 111 C 1300 86 1308 71 1326 65 C 1343 59 1386 56 1454 55 L 1442 -4 C 1370 -1 1279 0 1171 0 C 1093 0 997 -1 883 -4 L 895 55 C 961 55 1004 63 1024 79 C 1044 95 1061 139 1075 213 L 1157 645 L 553 645 L 469 213 C 463 189 461 158 461 121 C 461 95 470 77 490 69 C 510 61 550 56 612 55 L 600 -4 C 486 -1 395 0 326 0 C 272 0 181 -1 55 -4 L 66 55 C 122 55 161 61 183 75 C 204 88 219 120 229 170 L 412 1149 C 417 1168 420 1191 420 1219 C 420 1238 409 1251 389 1259 C 369 1266 326 1270 260 1272 L 272 1331 L 537 1327 L 821 1331 L 809 1272 C 750 1272 710 1265 690 1251 C 670 1236 652 1186 637 1102 L 569 735 L 1171 735 L 1253 1178 C 1255 1190 1257 1203 1257 1217 C 1257 1241 1245 1256 1222 1262 C 1199 1268 1162 1271 1112 1272 L 1124 1331 L 1380 1327 L 1642 1331 Z" unicode="H" />
<glyph horiz-adv-x="662" d="M 743 1331 L 731 1272 C 666 1272 621 1266 596 1252 C 571 1238 551 1189 537 1104 L 377 203 C 371 170 369 145 369 129 C 369 103 378 85 397 74 C 415 62 456 56 520 55 L 508 -4 C 396 -1 307 0 240 0 L -61 -4 L -49 55 C 25 55 73 63 95 81 C 117 98 134 143 147 217 L 303 1106 C 311 1149 315 1184 315 1210 C 315 1236 302 1253 278 1260 C 253 1267 214 1271 162 1272 L 174 1331 L 424 1327 L 743 1331 Z" unicode="I" />
<glyph horiz-adv-x="821" d="M 868 1272 L 819 1272 C 777 1272 746 1264 727 1250 C 708 1235 694 1205 686 1161 L 528 373 C 472 93 401 -108 313 -234 C 225 -359 115 -422 -16 -422 C -62 -422 -105 -406 -145 -376 C -185 -346 -205 -309 -205 -266 C -205 -191 -171 -154 -104 -154 C -79 -154 -57 -163 -39 -183 C -21 -202 -12 -225 -12 -252 C -12 -316 5 -348 39 -348 C 77 -348 111 -320 139 -266 C 167 -212 195 -118 221 14 L 449 1161 C 454 1183 457 1203 457 1221 C 457 1255 416 1272 334 1272 L 268 1272 L 279 1331 L 573 1327 L 881 1331 L 868 1272 Z" unicode="J" />
<glyph horiz-adv-x="1430" d="M 1415 1331 L 1403 1272 C 1299 1272 1224 1247 1180 1199 L 727 731 C 821 589 920 454 1025 325 C 1129 195 1200 118 1238 93 C 1275 67 1318 55 1368 55 L 1356 -4 L 1176 0 L 1030 -4 C 1013 -4 955 59 857 185 C 759 311 669 441 588 575 C 567 609 544 627 520 627 L 438 176 C 434 156 432 138 432 121 C 432 91 441 72 461 65 C 481 58 509 55 547 55 L 588 55 L 578 -4 L 293 0 L 27 -4 L 39 55 L 68 55 C 103 55 133 65 158 85 C 182 105 203 158 219 244 L 389 1145 C 391 1162 393 1180 393 1198 C 393 1228 380 1248 354 1257 C 328 1266 285 1271 227 1272 L 238 1331 L 319 1331 L 522 1327 L 772 1331 L 762 1272 C 714 1272 680 1263 661 1245 C 641 1227 624 1180 610 1104 L 530 688 C 574 688 658 755 780 890 L 1011 1144 C 1043 1178 1059 1209 1059 1235 C 1059 1258 1033 1270 983 1272 L 993 1331 L 1194 1327 L 1415 1331 Z" unicode="K" />
<glyph horiz-adv-x="1194" d="M 1169 322 C 1134 182 1101 73 1071 -4 C 966 -1 799 0 571 0 C 452 0 273 -1 35 -4 L 47 55 C 108 55 150 65 173 87 C 195 109 211 146 221 199 L 377 1044 L 390 1126 C 394 1156 397 1181 397 1200 C 397 1230 384 1250 358 1258 C 332 1266 288 1270 225 1272 L 236 1331 L 506 1327 L 827 1331 L 815 1272 C 744 1272 697 1263 673 1244 C 649 1224 631 1185 621 1126 L 426 63 L 682 63 C 804 63 900 81 971 119 C 1041 157 1090 224 1116 322 L 1169 322 Z" unicode="L" />
<glyph horiz-adv-x="1962" d="M 1915 1331 L 1903 1272 C 1838 1272 1795 1263 1773 1247 C 1751 1230 1737 1187 1733 1118 L 1673 240 C 1667 144 1681 89 1716 75 C 1750 61 1802 54 1872 55 L 1860 -4 L 1550 0 L 1249 -4 L 1262 55 C 1322 55 1367 64 1395 82 C 1423 100 1439 141 1444 205 L 1507 1112 L 1503 1116 L 881 0 L 838 0 L 547 1038 L 543 1038 L 342 217 C 335 193 332 165 332 133 C 332 81 381 55 481 55 L 469 -4 L 258 0 L 41 -4 L 53 55 C 117 57 163 72 189 100 C 215 128 240 187 264 279 L 498 1159 C 498 1173 487 1195 465 1226 C 443 1256 391 1272 309 1272 L 322 1331 L 539 1327 L 696 1331 L 971 324 L 1532 1331 L 1718 1327 L 1915 1331 Z" unicode="M" />
<glyph horiz-adv-x="1642" d="M 1624 1272 C 1578 1272 1543 1264 1519 1248 C 1495 1232 1478 1192 1466 1130 L 1286 168 C 1329 106 1367 65 1401 47 L 1391 -4 L 1272 0 L 1133 -4 L 449 1028 L 313 219 C 309 194 307 174 307 160 C 307 122 320 95 347 79 C 373 63 421 55 489 55 L 479 -4 L 276 0 L 27 -4 L 39 55 C 103 56 146 68 168 90 C 190 112 207 159 221 231 L 379 1079 C 380 1087 381 1094 381 1102 C 381 1141 361 1179 323 1216 C 285 1253 217 1272 119 1272 L 131 1331 C 207 1328 269 1327 315 1327 L 516 1331 L 735 995 L 1225 258 L 1362 1092 C 1366 1124 1368 1150 1368 1169 C 1368 1203 1357 1229 1335 1246 C 1313 1263 1258 1272 1169 1272 L 1182 1331 L 1419 1327 L 1636 1331 L 1624 1272 Z" unicode="N" />
<glyph horiz-adv-x="1622" d="M 1587 743 C 1587 535 1506 353 1346 197 C 1185 41 999 -37 788 -37 C 586 -37 423 25 298 151 C 173 276 111 427 111 604 C 111 810 187 989 339 1139 C 491 1289 683 1364 915 1364 C 1122 1364 1286 1303 1406 1183 C 1526 1063 1587 916 1587 743 Z M 1333 764 C 1333 933 1294 1065 1217 1160 C 1140 1255 1043 1303 926 1303 C 753 1303 616 1230 516 1086 C 415 941 365 772 365 578 C 365 404 402 268 478 171 C 554 73 656 25 784 25 C 946 25 1078 98 1180 246 C 1282 394 1333 566 1333 764 Z" unicode="O" />
<glyph horiz-adv-x="1087" d="M 174 1331 L 483 1327 L 723 1331 C 813 1331 898 1306 979 1257 C 1059 1208 1100 1132 1100 1028 C 1100 921 1053 828 960 749 C 866 670 754 631 623 631 C 601 631 575 632 543 635 L 555 698 C 575 695 592 694 606 694 C 690 694 754 727 799 793 C 843 859 866 935 866 1022 C 866 1098 845 1158 803 1202 C 761 1246 698 1268 616 1268 C 604 1268 593 1266 582 1264 L 408 236 C 398 183 393 145 393 121 C 393 79 451 57 567 55 L 555 -4 L 266 0 L 8 -4 L 20 55 C 76 55 114 67 133 93 C 151 119 170 189 190 303 L 324 1071 C 332 1145 336 1186 336 1196 C 336 1222 324 1242 300 1254 C 276 1266 230 1272 162 1272 L 174 1331 Z" unicode="P" />
<glyph horiz-adv-x="1622" d="M 678 -31 C 501 -5 362 68 262 189 C 161 310 111 448 111 604 C 111 810 187 989 339 1139 C 491 1289 683 1364 915 1364 C 1122 1364 1286 1303 1406 1183 C 1526 1063 1587 916 1587 743 C 1587 687 1580 631 1567 576 C 1554 522 1535 470 1511 420 C 1487 371 1457 325 1423 281 C 1389 237 1351 197 1309 161 C 1266 124 1221 92 1173 66 C 1123 38 1073 15 1021 -1 L 809 -61 C 727 -86 646 -107 567 -123 L 567 -127 C 597 -132 694 -160 858 -211 C 1022 -261 1128 -292 1174 -302 C 1220 -312 1269 -317 1323 -317 C 1343 -317 1360 -310 1375 -298 C 1389 -286 1397 -272 1397 -256 C 1397 -246 1387 -233 1369 -218 C 1350 -203 1341 -186 1341 -168 C 1341 -121 1363 -98 1407 -98 C 1429 -98 1447 -105 1463 -121 C 1479 -137 1487 -154 1487 -174 C 1487 -246 1453 -306 1385 -352 C 1317 -398 1225 -422 1110 -422 C 978 -422 798 -385 570 -312 C 341 -238 177 -196 78 -184 L 78 -141 C 378 -105 578 -71 676 -39 L 678 -31 Z M 784 25 C 946 25 1078 98 1180 246 C 1282 394 1333 566 1333 764 C 1333 933 1294 1065 1217 1160 C 1140 1255 1043 1303 926 1303 C 753 1303 616 1230 516 1086 C 415 941 365 772 365 578 C 365 404 402 268 478 171 C 554 73 656 25 784 25 Z" unicode="Q" />
<glyph horiz-adv-x="1430" d="M 1399 55 L 1386 0 C 1326 -2 1265 -4 1204 -4 C 1138 -4 1089 1 1057 13 C 1025 24 989 52 951 98 C 913 144 850 235 764 372 C 678 508 624 590 602 617 C 580 643 558 657 537 657 L 461 238 C 453 194 449 156 449 125 C 449 96 461 77 485 69 C 509 60 552 55 614 55 L 602 -4 L 311 0 L 49 -4 L 61 55 C 118 57 157 70 179 94 C 201 118 218 165 231 236 L 389 1090 C 395 1121 399 1152 399 1184 C 399 1242 359 1272 281 1272 L 225 1272 L 238 1331 L 449 1327 L 694 1331 C 902 1331 1037 1300 1098 1238 C 1159 1176 1190 1109 1190 1036 C 1190 962 1156 891 1089 824 C 1021 756 924 710 797 684 C 827 654 860 610 898 554 L 1028 356 L 1163 160 C 1192 117 1222 89 1254 75 C 1285 61 1333 55 1399 55 Z M 549 723 C 573 719 599 717 629 717 C 729 717 808 747 867 808 C 926 869 956 944 956 1034 C 956 1109 930 1167 880 1207 C 829 1247 762 1268 680 1268 L 649 1268 L 549 723 Z" unicode="R" />
<glyph horiz-adv-x="981" d="M 965 1339 L 907 983 L 850 985 C 852 1005 854 1035 854 1075 C 854 1141 834 1195 795 1237 C 755 1279 699 1300 627 1300 C 573 1300 526 1279 487 1237 C 447 1195 428 1141 428 1073 C 428 1033 437 994 457 955 C 476 916 535 853 633 766 C 731 679 800 605 839 544 C 877 482 897 416 897 344 C 897 242 853 153 766 77 C 678 1 570 -37 442 -37 C 348 -37 257 -11 170 39 L 92 -18 L 45 -18 L 96 375 L 152 373 C 147 258 173 172 229 115 C 285 57 355 29 438 29 C 512 29 571 50 613 93 C 655 136 676 195 676 270 C 676 328 659 381 626 429 C 593 477 532 542 443 624 C 353 706 294 774 265 830 C 235 886 221 942 221 999 C 221 1104 259 1191 335 1260 C 411 1329 509 1364 631 1364 C 677 1364 722 1356 768 1342 C 813 1328 849 1321 877 1321 C 888 1321 902 1327 918 1339 L 965 1339 Z" unicode="S" />
<glyph horiz-adv-x="1430" d="M 1485 1366 L 1454 1024 L 1399 1024 C 1401 1056 1402 1081 1402 1099 C 1402 1165 1387 1206 1359 1224 C 1330 1242 1280 1251 1210 1251 L 954 1251 L 762 199 C 758 173 756 151 756 133 C 756 103 769 83 796 72 C 822 60 870 55 940 55 L 928 -4 L 621 0 L 328 -4 L 340 55 L 375 55 C 431 55 468 64 488 82 C 507 100 520 130 528 174 L 725 1251 L 451 1251 C 382 1251 329 1234 293 1200 C 256 1166 227 1108 207 1024 L 150 1024 L 219 1366 L 268 1366 C 283 1340 310 1327 348 1327 L 1331 1327 C 1385 1327 1418 1340 1430 1366 L 1485 1366 Z" unicode="T" />
<glyph horiz-adv-x="1483" d="M 1569 1274 C 1509 1274 1468 1267 1448 1255 C 1428 1242 1413 1211 1405 1161 L 1276 424 C 1246 252 1185 132 1093 64 C 1001 -3 875 -37 713 -37 C 385 -37 221 86 221 332 C 221 361 223 387 227 410 L 354 1104 C 358 1125 360 1152 360 1184 C 360 1214 351 1237 335 1253 C 318 1268 267 1276 182 1276 L 195 1331 L 485 1327 L 795 1331 L 784 1274 C 709 1275 660 1267 636 1249 C 612 1231 594 1188 582 1118 L 465 461 C 455 403 451 358 451 326 C 451 142 557 51 770 51 C 887 51 980 79 1049 135 C 1118 191 1164 290 1188 430 L 1296 1090 C 1300 1120 1303 1141 1303 1151 C 1303 1192 1293 1223 1274 1243 C 1255 1263 1204 1274 1122 1276 L 1133 1331 L 1356 1327 L 1579 1331 L 1569 1274 Z" unicode="U" />
<glyph horiz-adv-x="1430" d="M 1489 1272 C 1456 1272 1430 1267 1411 1258 C 1391 1249 1369 1221 1343 1174 L 698 -27 L 575 -27 L 319 1155 C 307 1206 290 1238 266 1252 C 242 1265 197 1272 129 1272 L 141 1331 L 401 1327 L 696 1331 L 684 1272 C 632 1271 597 1266 577 1258 C 557 1250 547 1231 547 1202 C 547 1180 551 1150 559 1110 L 676 543 C 717 343 737 237 737 227 L 741 227 L 1210 1118 C 1230 1162 1241 1197 1241 1225 C 1241 1242 1230 1254 1209 1261 C 1187 1267 1148 1271 1090 1272 L 1102 1331 L 1323 1327 L 1501 1331 L 1489 1272 Z" unicode="V" />
<glyph horiz-adv-x="1962" d="M 2034 1272 C 2000 1272 1971 1266 1949 1254 C 1927 1242 1898 1204 1864 1141 L 1219 -27 L 1145 -27 L 985 559 L 653 -27 L 586 -27 L 287 1149 C 273 1204 253 1238 228 1252 C 203 1265 162 1272 106 1272 L 119 1331 L 373 1327 L 616 1331 L 604 1272 C 566 1271 540 1267 528 1259 C 516 1251 510 1235 510 1212 C 510 1196 513 1174 520 1145 L 729 254 L 956 666 L 811 1194 C 801 1228 789 1249 774 1257 C 759 1265 727 1270 678 1272 L 690 1331 L 893 1327 L 1352 1327 L 1518 1331 L 1505 1272 C 1427 1273 1372 1246 1341 1192 L 1133 823 L 1280 256 L 1284 256 L 1769 1145 C 1784 1175 1792 1198 1792 1214 C 1792 1236 1782 1251 1764 1259 C 1745 1267 1709 1272 1657 1272 L 1669 1331 L 1862 1327 L 2046 1331 L 2034 1272 Z M 1104 934 L 1247 1194 C 1253 1204 1257 1217 1257 1233 C 1257 1259 1217 1272 1137 1272 C 1068 1272 1034 1256 1034 1225 C 1034 1211 1037 1191 1044 1165 L 1104 934 Z" unicode="W" />
<glyph horiz-adv-x="1536" d="M 1516 1272 C 1432 1264 1343 1211 1249 1112 L 885 727 L 1161 221 C 1189 169 1223 128 1261 99 C 1299 69 1359 55 1440 55 L 1427 -4 C 1339 -1 1243 0 1139 0 C 1107 0 1008 -1 844 -4 L 856 55 C 926 55 961 70 961 100 C 961 116 954 135 942 158 L 723 559 L 397 172 C 369 142 356 117 356 98 C 356 69 387 55 451 55 L 438 -4 C 394 -1 318 0 209 0 L 25 -4 L 37 55 C 131 61 208 98 270 166 L 686 627 L 406 1141 C 374 1197 344 1232 316 1248 C 287 1264 238 1272 170 1272 L 182 1331 L 451 1327 L 750 1331 L 737 1272 L 700 1272 C 650 1272 626 1256 626 1225 C 626 1209 632 1189 645 1165 L 846 795 L 1155 1139 C 1187 1174 1204 1203 1204 1225 C 1204 1241 1195 1253 1178 1259 C 1160 1265 1129 1270 1083 1272 L 1096 1331 L 1317 1327 L 1528 1331 L 1516 1272 Z" unicode="X" />
<glyph horiz-adv-x="1430" d="M 1481 1272 C 1439 1270 1409 1265 1390 1256 C 1371 1246 1349 1223 1323 1186 L 885 565 L 815 170 C 812 153 811 137 811 123 C 811 97 822 80 846 70 C 869 60 917 55 991 55 L 981 -4 L 682 0 L 389 -4 L 397 55 C 471 56 518 63 540 76 C 561 88 576 120 586 170 L 651 539 L 393 1100 C 367 1155 338 1197 304 1227 C 270 1257 219 1272 152 1272 L 164 1331 L 451 1327 L 735 1331 L 723 1272 C 671 1270 637 1266 620 1259 C 602 1252 594 1239 594 1221 C 594 1201 600 1176 614 1147 L 848 639 L 1200 1169 C 1214 1189 1221 1208 1221 1225 C 1221 1243 1211 1255 1193 1261 C 1175 1267 1137 1271 1081 1272 L 1094 1331 L 1303 1327 L 1493 1331 L 1481 1272 Z" unicode="Y" />
<glyph horiz-adv-x="1430" d="M 1393 1282 L 436 90 L 1001 90 C 1147 90 1245 175 1294 346 L 1354 346 L 1260 0 L 78 0 L 1083 1249 L 573 1249 C 452 1249 365 1175 313 1028 L 258 1028 L 346 1327 L 1393 1327 L 1393 1282 Z" unicode="Z" />
<glyph horiz-adv-x="662" d="M 680 1343 L 670 1294 L 569 1294 C 553 1294 538 1287 525 1275 C 511 1263 504 1251 502 1239 L 215 -256 C 211 -274 214 -290 224 -303 C 234 -315 248 -322 264 -322 L 397 -322 L 387 -371 L 59 -371 L 223 450 C 308 892 364 1190 391 1343 L 680 1343 Z" unicode="[" />
<glyph horiz-adv-x="1153" d="M 1122 0 L 946 0 L 31 1477 L 207 1477 L 1122 0 Z" unicode="\" />
<glyph horiz-adv-x="662" d="M 637 1343 L 473 523 C 388 80 332 -217 305 -371 L 16 -371 L 27 -322 L 127 -322 C 143 -322 157 -315 171 -303 C 184 -291 192 -278 195 -266 L 481 1229 C 485 1247 481 1263 471 1275 C 461 1287 448 1294 432 1294 L 299 1294 L 309 1343 L 637 1343 Z" unicode="]" />
<glyph horiz-adv-x="1083" d="M 1044 608 L 885 608 L 590 1120 L 299 608 L 147 608 L 557 1327 L 639 1327 L 1044 608 Z" unicode="^" />
<glyph horiz-adv-x="1024" d="M 1036 -256 L -12 -256 L -12 -154 L 1036 -154 L 1036 -256 Z" unicode="_" />
<glyph horiz-adv-x="682" d="M 643 999 L 604 979 L 322 1395 L 420 1444 L 643 999 Z" unicode="`" />
<glyph horiz-adv-x="981" d="M 772 807 L 803 877 C 817 912 848 930 895 930 C 934 930 954 916 954 889 C 954 888 918 770 848 535 C 778 300 743 172 743 152 C 743 131 751 121 768 121 C 790 121 838 165 911 254 L 946 227 C 884 148 819 85 752 39 C 685 -7 626 -31 575 -31 C 561 -31 548 -25 537 -14 C 525 -3 520 10 520 27 C 520 48 537 110 571 213 L 629 385 L 625 389 C 533 248 446 143 362 73 C 278 3 211 -31 162 -31 C 121 -31 89 -15 67 14 C 44 44 33 82 33 127 C 33 221 67 329 136 450 C 205 570 289 672 389 754 C 488 836 577 877 657 877 C 707 877 746 853 772 807 Z M 301 129 C 344 129 420 199 529 340 C 637 481 692 594 692 678 C 692 753 656 791 586 791 C 507 791 430 726 355 596 C 279 466 242 344 242 229 C 242 162 261 129 301 129 Z" unicode="a" />
<glyph horiz-adv-x="1087" d="M 365 543 C 431 642 503 723 581 785 C 659 847 731 879 799 879 C 863 879 914 858 953 818 C 992 777 1012 722 1012 653 C 1012 487 935 332 782 187 C 628 41 474 -31 319 -31 C 254 -31 198 -12 152 25 C 105 62 82 113 82 178 C 82 197 85 220 92 248 L 365 1335 L 276 1391 L 285 1421 C 346 1427 414 1438 489 1454 L 596 1477 C 605 1477 610 1473 610 1466 C 610 1462 608 1452 604 1438 L 360 547 L 365 543 Z M 371 31 C 453 31 546 109 650 267 C 754 424 807 558 807 670 C 807 748 782 788 733 788 C 653 788 558 710 446 554 C 334 398 279 269 279 166 C 279 76 309 31 371 31 Z" unicode="b" />
<glyph horiz-adv-x="874" d="M 332 -31 C 250 -31 189 -7 147 39 C 105 85 84 143 84 213 C 84 381 158 534 307 672 C 455 810 601 879 743 879 C 777 879 808 870 836 853 C 863 835 877 815 877 791 C 877 722 842 688 772 688 C 742 688 708 702 671 732 C 634 761 606 776 586 776 C 517 776 452 719 392 605 C 331 491 301 370 301 242 C 301 188 312 147 334 120 C 356 93 385 80 420 80 C 518 80 636 145 774 276 L 807 246 C 645 61 486 -31 332 -31 Z" unicode="c" />
<glyph horiz-adv-x="1087" d="M 799 1421 L 1116 1477 C 1124 1477 1128 1472 1128 1462 C 1128 1456 1126 1450 1124 1442 C 1125 1442 1029 1025 836 193 C 828 169 825 150 825 137 C 825 121 834 113 854 113 C 894 113 961 166 1053 274 L 1085 244 C 935 60 802 -31 686 -31 C 638 -31 614 -6 614 43 C 614 59 621 98 637 162 C 653 226 661 260 662 266 L 657 270 C 603 172 542 97 475 46 C 407 -5 345 -31 289 -31 C 218 -31 162 -8 120 35 C 78 79 57 136 57 205 C 57 356 124 506 260 655 C 396 804 528 879 657 879 C 713 879 757 862 791 829 L 905 1323 L 791 1391 L 799 1421 Z M 383 82 C 447 82 522 150 608 288 C 694 426 737 549 737 657 C 737 701 725 738 703 766 C 680 794 649 809 610 809 C 522 809 444 748 376 626 C 308 504 274 379 274 250 C 274 138 310 82 383 82 Z" unicode="d" />
<glyph horiz-adv-x="874" d="M 772 213 C 618 50 464 -31 311 -31 C 239 -31 178 -7 130 39 C 81 85 57 145 57 219 C 57 379 122 529 254 669 C 385 809 523 879 668 879 C 726 879 772 866 805 841 C 837 815 854 783 854 745 C 854 655 809 575 720 505 C 630 435 488 390 293 371 C 280 313 274 272 274 246 C 274 124 311 63 385 63 C 493 63 611 124 741 246 L 772 213 Z M 307 426 C 429 434 519 471 577 536 C 635 601 664 669 664 741 C 664 791 647 817 614 817 C 562 817 510 783 456 715 C 402 647 352 550 307 426 Z" unicode="e" />
<glyph horiz-adv-x="662" d="M 307 850 C 361 1066 445 1225 559 1326 C 673 1426 784 1477 893 1477 C 984 1477 1030 1453 1030 1405 C 1030 1323 996 1282 930 1282 C 901 1282 869 1293 834 1317 C 798 1340 768 1352 743 1352 C 685 1352 630 1251 578 1051 L 524 850 L 743 850 L 723 768 L 504 768 C 470 629 434 500 395 381 L 135 -408 L -12 -440 L 287 768 L 100 768 L 119 850 L 307 850 Z" unicode="f" />
<glyph horiz-adv-x="981" d="M 340 281 C 204 319 137 399 137 522 C 137 622 175 707 253 776 C 330 844 424 879 535 879 C 584 879 636 869 690 849 C 744 829 785 819 811 819 C 825 819 847 822 877 829 C 907 836 924 840 930 840 C 966 840 985 823 985 791 C 985 747 964 725 922 725 C 912 725 895 730 873 741 C 851 752 833 758 819 758 C 806 758 798 757 795 756 C 830 717 848 670 848 614 C 848 536 815 458 750 382 C 685 306 572 268 412 268 C 388 251 377 232 377 211 C 377 193 386 176 406 162 C 425 148 483 121 580 83 C 677 45 745 8 784 -26 C 822 -61 842 -104 842 -154 C 842 -232 798 -300 711 -356 C 623 -412 509 -440 369 -440 C 93 -440 -45 -373 -45 -240 C -45 -130 61 -42 274 23 C 228 52 205 85 205 123 C 205 169 250 221 340 281 Z M 444 330 C 502 330 550 363 590 431 C 629 498 649 574 649 659 C 649 764 613 817 541 817 C 478 817 428 784 391 720 C 354 655 336 579 336 492 C 336 384 372 330 444 330 Z M 666 -236 C 666 -200 643 -167 599 -136 C 554 -104 461 -60 319 -4 C 188 -67 123 -139 123 -219 C 123 -325 212 -379 391 -379 C 467 -379 531 -366 585 -341 C 639 -315 666 -280 666 -236 Z" unicode="g" />
<glyph horiz-adv-x="1087" d="M 358 483 C 428 598 512 693 608 767 C 704 841 791 879 868 879 C 918 879 957 863 986 833 C 1015 802 1030 761 1030 709 C 1030 609 999 496 939 368 C 878 240 812 142 740 73 C 668 3 612 -31 571 -31 C 561 -31 548 -26 530 -17 C 512 -8 504 2 504 14 C 504 40 521 93 555 172 L 645 154 L 707 147 C 735 209 760 290 780 392 C 800 493 811 579 811 651 C 811 723 790 760 750 760 C 683 760 596 696 489 568 C 381 440 306 302 264 154 C 235 56 219 3 215 -3 C 211 -10 190 -14 150 -14 C 100 -14 69 -11 57 -7 C 45 -3 39 4 39 14 C 39 16 45 45 59 100 L 365 1329 L 274 1391 L 283 1421 C 362 1433 434 1446 500 1458 L 600 1477 C 608 1477 612 1472 612 1464 C 612 1456 610 1448 608 1438 L 354 487 L 358 483 Z" unicode="h" />
<glyph horiz-adv-x="555" d="M 467 1384 C 499 1384 527 1372 551 1348 C 574 1324 586 1296 586 1264 C 586 1231 574 1203 551 1180 C 527 1156 499 1145 467 1145 C 434 1145 406 1156 383 1180 C 359 1203 348 1231 348 1264 C 348 1296 359 1324 383 1348 C 406 1372 434 1384 467 1384 Z M 506 246 C 446 158 384 90 320 42 C 256 -6 197 -31 145 -31 C 121 -31 102 -23 86 -8 C 70 7 63 28 63 55 C 63 79 95 187 160 379 C 225 571 258 676 258 694 C 258 708 252 715 240 715 C 210 715 164 678 104 604 L 68 629 C 205 795 324 879 426 879 C 478 879 504 855 504 809 C 504 783 469 670 399 471 C 329 271 295 165 295 152 C 295 138 303 131 319 131 C 355 131 405 178 471 272 L 506 246 Z" unicode="i" />
<glyph horiz-adv-x="555" d="M 477 1384 C 509 1384 537 1372 561 1348 C 584 1324 596 1296 596 1264 C 596 1231 584 1203 561 1180 C 537 1156 509 1145 477 1145 C 444 1145 416 1156 393 1180 C 369 1203 358 1231 358 1264 C 358 1296 369 1324 393 1348 C 417 1372 445 1384 477 1384 Z M 68 631 C 195 796 317 879 434 879 C 491 879 520 848 520 788 C 520 741 483 601 410 367 L 297 8 C 263 -99 210 -193 138 -274 C 66 -355 -18 -410 -117 -440 L -139 -401 C -84 -376 -41 -335 -9 -279 C 22 -222 54 -138 88 -27 L 258 545 C 281 614 293 662 293 690 C 293 720 282 735 260 735 C 230 735 177 690 100 602 L 68 631 Z" unicode="j" />
<glyph horiz-adv-x="1087" d="M 1057 76 C 985 4 911 -31 834 -31 C 766 -31 710 -14 666 18 C 622 51 569 106 508 183 C 446 259 406 308 387 328 C 368 348 350 358 334 358 L 256 49 C 248 8 234 -12 215 -12 L 94 -12 C 70 -12 59 -2 59 16 C 59 20 60 27 63 39 L 377 1329 L 279 1391 L 287 1421 C 396 1439 469 1451 506 1458 L 604 1477 C 612 1477 616 1472 616 1464 C 616 1456 614 1448 612 1438 L 399 625 L 403 621 C 537 811 673 907 813 907 C 858 907 895 892 924 864 C 952 836 967 801 967 760 C 967 685 924 613 839 543 C 753 473 644 421 512 389 L 512 385 C 589 359 660 309 725 234 C 790 158 836 114 864 100 C 891 86 920 80 952 80 C 988 80 1023 92 1057 117 L 1057 76 Z M 346 412 L 369 412 C 455 412 543 444 633 509 C 723 574 768 639 768 705 C 768 755 742 780 690 780 C 631 780 568 741 501 663 C 433 585 382 501 346 412 Z" unicode="k" />
<glyph horiz-adv-x="555" d="M 254 1421 C 318 1428 394 1440 481 1458 L 573 1477 C 583 1479 588 1475 588 1464 C 588 1457 587 1451 586 1446 L 270 166 C 268 160 268 154 268 150 C 268 126 278 115 299 115 C 329 115 398 173 506 289 L 539 258 C 379 65 247 -31 143 -31 C 115 -31 92 -23 74 -9 C 56 5 47 23 47 43 C 47 62 50 86 57 115 L 348 1329 L 246 1391 L 254 1421 Z" unicode="l" />
<glyph horiz-adv-x="1642" d="M 1628 236 C 1576 166 1513 104 1437 50 C 1361 -4 1295 -31 1239 -31 C 1217 -31 1196 -24 1178 -11 C 1160 2 1151 21 1151 45 C 1151 73 1162 117 1184 178 L 1286 463 C 1328 578 1350 650 1350 680 C 1350 714 1334 731 1303 731 C 1249 731 1169 663 1061 527 C 953 391 883 283 852 201 L 791 39 C 783 20 772 7 758 0 C 744 -8 714 -12 668 -12 C 616 -12 590 -3 590 14 C 590 25 602 65 628 134 C 654 202 669 244 674 258 L 764 547 C 784 608 795 652 795 680 C 795 718 778 737 745 737 C 694 737 620 671 522 541 C 424 410 356 299 319 207 L 260 57 C 248 25 239 5 233 -1 C 227 -8 216 -12 199 -12 L 86 -12 C 66 -12 57 -3 57 14 C 57 23 92 127 162 325 C 232 523 268 644 268 688 C 268 714 258 727 240 727 C 207 727 150 678 70 582 L 35 608 C 173 788 298 879 410 879 C 436 879 458 872 475 859 C 491 845 500 828 500 807 C 500 762 461 640 385 442 L 389 438 C 479 583 569 693 660 767 C 750 841 833 879 907 879 C 979 879 1016 849 1016 791 C 1016 752 999 683 967 584 L 920 440 L 924 436 C 1024 584 1124 694 1224 768 C 1323 842 1408 879 1479 879 C 1509 879 1534 872 1554 858 C 1574 844 1585 825 1585 801 C 1585 773 1577 737 1563 694 L 1413 266 C 1388 194 1376 149 1376 131 C 1376 116 1385 109 1405 109 C 1441 109 1504 160 1595 262 L 1628 236 Z" unicode="m" />
<glyph horiz-adv-x="1087" d="M 1065 248 C 935 62 816 -31 707 -31 C 649 -31 621 -4 621 49 C 621 85 634 144 662 227 L 795 633 C 801 653 805 672 805 688 C 805 715 795 729 776 729 C 736 729 657 663 537 532 C 417 400 346 297 324 223 L 260 16 C 254 -2 222 -12 166 -12 C 124 -12 96 -10 84 -8 C 72 -5 66 1 66 12 C 66 33 86 103 127 223 L 227 516 C 255 596 270 652 270 684 C 270 706 261 717 244 717 C 207 717 150 663 72 557 L 41 586 C 179 781 304 879 416 879 C 440 879 459 871 473 857 C 487 843 494 828 494 813 C 494 742 463 628 401 471 L 406 467 L 475 547 C 669 768 820 879 930 879 C 996 879 1030 842 1030 770 C 1030 744 1019 701 999 641 L 887 311 C 859 229 846 175 846 150 C 846 128 853 117 868 117 C 896 117 950 168 1028 272 L 1065 248 Z" unicode="n" />
<glyph horiz-adv-x="1087" d="M 592 879 C 720 879 820 846 890 780 C 960 714 995 622 995 504 C 995 357 943 231 841 126 C 738 21 609 -31 453 -31 C 345 -31 256 5 187 77 C 118 149 84 244 84 360 C 84 498 135 619 237 723 C 339 827 458 879 592 879 Z M 467 31 C 553 31 626 88 687 202 C 747 316 778 431 778 547 C 778 641 764 709 737 752 C 710 795 666 817 606 817 C 519 817 446 762 388 654 C 330 546 301 427 301 297 C 301 119 356 31 467 31 Z" unicode="o" />
<glyph horiz-adv-x="1087" d="M 520 856 C 587 871 648 879 702 879 C 792 879 865 858 919 818 C 973 778 1001 719 1001 643 C 1001 491 942 340 826 192 C 710 43 580 -31 438 -31 C 391 -31 349 -11 313 29 L 219 -348 L 358 -379 L 350 -420 L 126 -435 C 54 -439 11 -441 -2 -440 L 297 750 C 199 718 109 682 27 641 L 41 731 C 137 770 229 801 317 825 L 373 1044 L 578 1085 L 520 856 Z M 504 784 L 377 280 C 359 210 350 166 350 150 C 350 70 384 31 453 31 C 535 31 610 102 678 246 C 746 389 780 522 780 645 C 780 750 733 803 639 803 C 596 803 551 796 504 784 Z" unicode="p" />
<glyph horiz-adv-x="1087" d="M 1049 928 L 725 -369 L 836 -393 L 827 -444 C 769 -441 696 -440 608 -440 L 367 -444 L 373 -393 L 514 -369 L 698 311 L 694 315 C 540 84 390 -31 244 -31 C 126 -31 68 40 68 182 C 68 343 139 499 283 651 C 427 803 562 879 688 879 C 762 879 810 844 831 776 L 836 776 L 874 897 L 1012 928 L 1049 928 Z M 371 115 C 449 115 534 177 624 301 C 714 425 760 541 760 649 C 760 693 747 728 721 754 C 695 780 663 793 623 793 C 530 793 449 732 380 610 C 310 488 276 370 276 254 C 276 161 307 115 371 115 Z" unicode="q" />
<glyph horiz-adv-x="768" d="M 401 467 C 461 583 526 680 596 760 C 665 839 720 879 762 879 C 816 879 844 858 844 817 C 844 707 811 653 745 653 C 740 653 725 654 701 658 C 677 662 661 664 655 664 C 606 664 553 617 495 524 C 437 431 390 328 356 215 L 291 -2 C 287 -18 253 -27 190 -27 C 128 -27 98 -16 98 6 C 98 14 99 23 102 33 L 231 455 C 264 558 281 634 281 682 C 281 710 268 725 244 725 C 208 725 152 676 76 578 L 39 602 C 99 688 162 755 228 805 C 293 854 347 879 389 879 C 445 879 473 848 473 788 C 473 746 460 685 436 604 L 395 469 L 401 467 Z" unicode="r" />
<glyph horiz-adv-x="768" d="M 92 262 C 119 214 160 175 214 146 C 268 116 323 102 379 102 C 425 102 461 108 487 122 C 513 136 526 152 526 170 C 526 205 513 235 489 261 C 465 287 416 323 343 370 C 269 417 221 452 199 476 C 177 500 166 533 166 575 C 166 631 212 695 304 769 C 396 842 484 879 567 879 C 613 879 655 870 692 854 C 729 837 748 814 748 784 C 748 762 741 737 727 709 C 713 681 698 668 684 668 C 673 668 643 680 594 705 C 544 730 499 743 459 743 C 418 743 384 735 358 721 C 332 706 319 690 319 674 C 319 644 329 620 350 601 C 370 582 417 550 491 504 C 565 458 612 418 633 385 C 653 352 664 318 664 283 C 664 213 624 143 546 73 C 468 3 374 -31 266 -31 C 201 -31 145 -16 97 13 C 49 43 25 80 25 125 C 25 157 32 188 46 218 C 60 247 76 262 92 262 Z" unicode="s" />
<glyph horiz-adv-x="662" d="M 678 850 L 659 768 L 453 768 L 289 207 C 285 186 283 172 283 164 C 283 121 297 100 326 100 C 346 100 379 118 425 155 C 471 191 521 241 573 303 L 614 272 C 448 70 302 -31 176 -31 C 145 -31 119 -21 99 -2 C 78 16 68 43 68 78 C 68 108 85 182 119 299 L 256 768 L 92 768 L 111 850 L 281 850 L 354 1098 L 549 1098 L 477 850 L 678 850 Z" unicode="t" />
<glyph horiz-adv-x="1087" d="M 1081 233 C 941 57 810 -31 688 -31 C 667 -31 649 -23 633 -8 C 617 6 610 25 610 49 C 610 93 661 253 764 530 L 760 535 C 651 375 544 241 440 132 C 335 23 237 -31 145 -31 C 118 -31 96 -22 78 -5 C 60 12 51 36 51 66 C 51 101 83 207 147 383 C 211 559 244 662 244 690 C 244 713 237 725 223 725 C 186 725 130 674 55 573 L 18 598 C 75 681 139 749 209 801 C 279 853 341 879 395 879 C 452 879 481 855 481 809 C 481 771 446 656 378 466 C 310 275 276 169 276 147 C 276 124 287 113 309 113 C 348 113 436 199 574 371 C 711 543 808 697 866 834 C 878 864 892 879 909 879 C 935 879 967 871 1006 856 C 1045 841 1065 827 1065 815 C 1065 813 1062 805 1057 791 L 997 637 C 974 579 942 488 902 365 C 862 242 842 169 842 145 C 842 123 852 113 874 113 C 906 113 965 163 1051 264 L 1081 233 Z" unicode="u" />
<glyph horiz-adv-x="981" d="M 27 670 C 85 730 149 779 218 819 C 287 859 345 879 391 879 C 443 879 469 850 469 793 C 469 740 439 636 381 481 C 322 325 293 219 293 162 C 293 141 301 124 318 111 C 334 98 354 92 377 92 C 471 92 560 149 645 264 C 729 379 772 509 772 653 L 768 762 C 768 840 806 879 883 879 C 909 879 931 870 948 853 C 964 836 973 816 973 793 C 973 687 933 567 855 434 C 776 301 679 190 564 102 C 449 13 344 -31 248 -31 C 202 -31 164 -17 133 9 C 101 36 86 73 86 119 C 86 172 112 271 165 415 C 217 559 244 653 244 698 C 244 722 232 735 209 735 C 176 735 125 702 55 637 L 27 670 Z" unicode="v" />
<glyph horiz-adv-x="1536" d="M 35 614 C 96 682 165 743 243 797 C 321 851 384 879 432 879 C 488 879 516 855 516 807 C 516 783 484 681 421 502 C 357 323 326 214 326 176 C 326 142 338 125 362 125 C 384 125 432 158 507 225 C 582 291 659 373 739 469 C 797 655 842 769 872 813 C 902 857 941 879 989 879 C 1042 879 1069 858 1069 817 C 1069 767 1030 686 954 575 C 917 439 893 349 883 304 C 873 258 868 216 868 176 C 868 125 886 100 922 100 C 997 100 1081 158 1174 276 C 1266 394 1313 512 1313 631 C 1313 637 1310 658 1306 694 C 1302 729 1300 750 1300 756 C 1300 789 1309 818 1329 842 C 1348 866 1375 879 1409 879 C 1477 879 1511 846 1511 780 C 1511 711 1464 599 1372 445 C 1279 290 1180 172 1075 91 C 970 9 879 -31 803 -31 C 763 -31 729 -17 702 8 C 675 34 662 66 662 102 C 662 158 675 237 702 340 L 698 344 C 476 94 315 -31 215 -31 C 137 -31 98 9 98 90 C 98 124 126 224 182 389 C 238 554 266 650 266 678 C 266 696 256 705 238 705 C 201 705 144 665 68 586 L 35 614 Z" unicode="w" />
<glyph horiz-adv-x="1087" d="M 629 561 C 709 674 775 755 827 805 C 879 854 927 879 971 879 C 993 879 1014 870 1032 852 C 1050 834 1059 811 1059 782 C 1059 752 1049 722 1030 691 C 1010 659 988 637 963 625 L 942 635 C 946 670 929 688 891 688 C 811 688 730 623 647 494 C 699 282 738 164 764 139 C 764 139 770 135 781 127 C 791 119 803 115 817 115 C 857 115 904 164 956 262 L 995 242 C 952 158 901 92 843 43 C 785 -6 739 -31 705 -31 C 663 -31 626 -6 594 42 C 562 90 529 190 496 340 C 452 274 392 196 316 105 C 240 14 171 -31 111 -31 C 89 -31 70 -21 54 -1 C 37 18 29 42 29 72 C 29 159 60 211 123 229 L 133 221 C 133 170 150 145 186 145 C 254 145 351 232 475 408 C 422 580 386 678 366 702 C 346 726 325 739 303 739 C 261 739 222 703 186 633 L 145 647 C 169 717 205 774 251 816 C 297 858 347 879 401 879 C 461 879 505 857 533 814 C 561 770 593 686 629 561 Z" unicode="x" />
<glyph horiz-adv-x="981" d="M 614 145 C 737 338 799 491 799 604 C 799 612 794 636 784 677 C 774 717 770 741 770 748 C 770 789 780 821 802 844 C 823 867 851 879 887 879 C 919 879 944 868 964 846 C 983 824 993 797 993 766 C 993 676 924 517 786 289 C 648 61 512 -115 380 -239 C 248 -363 142 -426 63 -426 C -1 -426 -33 -396 -33 -336 C -33 -309 -25 -288 -9 -272 C 6 -256 25 -248 47 -248 C 51 -248 64 -249 85 -251 C 105 -253 117 -254 121 -254 C 149 -254 177 -251 204 -245 C 231 -239 259 -229 288 -214 C 316 -199 350 -174 389 -139 C 427 -103 447 -80 449 -68 C 450 -56 451 -41 451 -23 C 451 83 416 238 346 440 C 276 642 206 743 137 743 C 118 743 102 733 90 715 C 78 697 72 673 72 643 C 72 628 74 614 80 600 L 68 590 L 16 612 C 16 693 38 758 82 806 C 126 854 176 879 231 879 C 296 879 352 848 399 788 C 446 728 490 633 531 504 C 571 374 598 255 610 145 L 614 145 Z" unicode="y" />
<glyph horiz-adv-x="874" d="M 641 627 C 588 627 523 641 446 671 C 369 700 318 715 293 715 C 271 715 253 709 238 699 C 222 688 215 676 215 664 C 215 660 217 650 221 636 C 225 621 227 612 227 610 C 227 572 207 553 168 553 C 128 553 109 576 109 623 C 109 655 145 705 218 775 C 290 844 353 879 406 879 C 430 879 468 868 518 847 C 568 826 616 810 660 799 C 704 787 736 782 758 782 C 782 782 795 789 795 803 C 795 807 792 815 787 825 C 782 835 780 843 780 848 C 780 864 786 877 798 888 C 810 899 824 905 842 905 C 877 905 895 888 895 854 C 895 789 852 722 766 654 L 268 250 C 334 246 410 209 496 139 C 582 68 648 33 696 33 C 753 33 782 47 782 76 C 782 87 772 101 754 117 C 736 133 727 152 727 172 C 727 186 732 199 744 209 C 756 219 770 225 786 225 C 806 225 823 215 836 195 C 849 175 856 155 856 133 C 856 82 825 26 763 -36 C 701 -98 642 -129 588 -129 C 555 -129 525 -122 499 -110 C 473 -98 421 -60 343 1 C 265 63 218 100 200 111 C 182 121 167 127 154 127 C 143 127 132 122 122 112 C 111 102 106 92 106 82 C 106 74 109 65 116 54 C 123 42 127 33 127 25 C 127 -12 105 -31 61 -31 C 21 -31 2 -9 2 35 C 2 87 56 156 166 241 C 276 326 434 455 641 627 Z" unicode="z" />
<glyph horiz-adv-x="807" d="M 717 -412 C 583 -413 480 -380 410 -312 C 340 -244 305 -172 305 -96 C 305 -45 313 11 331 74 C 349 137 358 197 358 254 C 358 368 293 436 164 459 L 164 518 C 229 529 278 554 310 593 C 342 632 358 679 358 733 C 358 777 351 829 338 887 C 317 948 307 1009 307 1069 C 307 1140 338 1209 402 1277 C 465 1344 570 1381 717 1389 L 717 1343 C 587 1317 522 1255 522 1155 C 522 1103 530 1049 546 995 C 562 940 571 880 571 815 C 571 751 545 688 493 625 C 441 562 358 518 244 492 L 244 487 C 370 453 456 404 503 340 C 549 276 573 217 573 164 C 573 129 564 75 548 2 C 532 -70 524 -128 524 -172 C 524 -275 588 -340 717 -367 L 717 -412 Z" unicode="{" />
<glyph horiz-adv-x="575" d="M 365 -440 L 211 -440 L 211 1477 L 365 1477 L 365 -440 Z" unicode="|" />
<glyph horiz-adv-x="807" d="M 643 459 C 577 447 529 422 497 383 C 465 344 449 298 449 244 C 449 199 455 148 469 90 C 489 28 500 -32 500 -92 C 500 -163 468 -232 405 -300 C 341 -367 236 -404 90 -412 L 90 -367 C 220 -341 285 -278 285 -178 C 285 -126 276 -72 260 -18 C 244 36 236 96 236 162 C 236 225 261 288 313 351 C 365 414 448 459 563 485 L 563 489 C 437 523 350 572 303 636 C 256 700 233 759 233 813 C 233 847 241 901 258 974 C 274 1047 283 1105 283 1149 C 283 1252 218 1317 90 1343 L 90 1389 C 224 1390 326 1357 396 1289 C 466 1221 502 1149 502 1073 C 502 1022 493 965 475 902 C 457 839 449 779 449 723 C 449 609 513 540 643 518 L 643 459 Z" unicode="}" />
<glyph horiz-adv-x="1366" d="M 1227 829 C 1222 717 1194 635 1142 583 C 1090 531 1028 506 958 506 C 924 506 890 510 856 519 C 822 528 757 553 660 593 C 562 633 497 659 465 670 C 433 680 402 686 373 686 C 274 686 215 626 197 508 L 139 508 C 142 619 170 701 222 753 C 274 805 333 831 399 831 C 470 831 597 791 780 711 C 880 668 951 647 993 647 C 1039 647 1079 662 1111 692 C 1143 722 1163 768 1169 829 L 1227 829 Z" unicode="~" />
<glyph horiz-adv-x="492" d="" unicode="" />
<glyph horiz-adv-x="555" d="M 342 879 C 380 879 413 865 441 837 C 469 809 483 775 483 737 C 483 698 469 664 441 636 C 413 608 380 594 342 594 C 303 594 270 608 242 636 C 214 664 201 698 201 737 C 201 775 214 809 242 837 C 270 865 303 879 342 879 Z M 311 479 L 289 162 C 276 -6 264 -120 254 -180 C 244 -240 224 -284 194 -313 C 164 -341 129 -356 88 -356 C 54 -356 25 -344 3 -322 C -19 -299 -31 -272 -31 -242 C -31 -199 -11 -136 27 -53 L 279 479 L 311 479 Z" unicode="" />
<glyph horiz-adv-x="874" d="M 905 1341 L 715 877 C 721 878 730 879 743 879 C 777 879 808 870 836 853 C 863 835 877 815 877 791 C 877 722 842 688 772 688 C 754 688 735 694 713 707 L 659 739 L 389 84 C 397 81 407 80 420 80 C 518 80 636 145 774 276 L 807 246 C 648 67 494 -25 344 -31 L 152 -500 L 90 -500 L 285 -27 C 217 -17 167 9 134 55 C 100 101 84 153 84 213 C 84 355 140 490 253 618 C 366 746 499 829 653 868 L 848 1341 L 905 1341 Z M 612 770 C 604 774 595 776 586 776 C 517 776 452 719 392 605 C 331 491 301 370 301 242 C 301 183 314 140 342 113 L 612 770 Z" unicode="" />
<glyph horiz-adv-x="1087" d="M 383 786 C 436 1081 514 1268 616 1348 C 718 1428 814 1468 903 1468 C 949 1468 987 1457 1018 1437 C 1049 1416 1065 1389 1065 1356 C 1065 1330 1056 1310 1040 1295 C 1023 1279 1001 1272 975 1272 C 939 1272 912 1292 894 1332 C 876 1372 851 1393 821 1393 C 738 1393 678 1285 641 1071 L 592 786 L 870 786 L 850 702 L 580 702 C 541 536 468 376 360 223 C 403 229 438 233 465 233 C 548 233 643 195 750 119 C 813 75 855 53 877 53 C 896 53 913 59 928 73 C 942 87 950 102 950 119 C 950 138 936 160 910 184 C 883 208 870 230 870 248 C 870 265 877 283 892 301 C 906 319 925 328 948 328 C 973 328 995 317 1015 295 C 1034 273 1044 242 1044 203 C 1044 133 1016 76 962 32 C 907 -11 836 -33 750 -33 C 695 -33 649 -24 612 -8 C 574 8 526 39 466 85 C 406 130 356 153 315 154 C 247 42 181 -14 119 -14 C 80 -14 61 2 61 35 C 61 101 135 161 285 213 C 327 415 357 578 375 702 L 135 702 L 154 786 L 383 786 Z" unicode="" />
<glyph horiz-adv-x="1366" d="M 1217 283 L 1094 162 L 965 289 C 881 235 792 209 700 209 C 611 209 526 235 444 289 L 315 162 L 193 283 L 322 412 C 268 493 242 580 242 672 C 242 762 268 848 322 930 L 193 1061 L 313 1184 L 444 1053 C 522 1106 609 1133 705 1133 C 797 1133 884 1106 965 1053 L 1094 1184 L 1217 1061 L 1085 930 C 1138 855 1165 768 1165 670 C 1165 575 1138 489 1085 412 L 1217 283 Z M 705 383 C 783 383 851 411 907 467 C 963 523 991 592 991 672 C 991 751 963 818 907 874 C 851 930 784 958 705 958 C 625 958 556 930 500 874 C 444 818 416 751 416 672 C 416 592 444 524 500 468 C 556 411 625 383 705 383 Z" unicode="" />
<glyph horiz-adv-x="1430" d="M 1481 1272 C 1439 1270 1409 1265 1390 1256 C 1371 1246 1349 1223 1323 1186 L 934 635 L 1317 635 L 1305 559 L 883 559 L 848 365 L 1278 365 L 1268 289 L 836 289 L 815 170 C 812 153 811 137 811 123 C 811 97 822 80 846 70 C 869 60 917 55 991 55 L 981 -4 L 682 0 L 389 -4 L 397 55 C 471 56 518 63 540 76 C 562 89 577 120 586 170 L 606 289 L 190 289 L 203 365 L 621 365 L 651 539 L 641 559 L 229 559 L 240 635 L 606 635 L 393 1100 C 367 1155 338 1197 304 1227 C 270 1257 219 1272 152 1272 L 164 1331 L 451 1327 L 735 1331 L 723 1272 C 671 1270 637 1266 620 1259 C 602 1252 594 1239 594 1221 C 594 1201 600 1176 614 1147 L 848 639 L 1200 1169 C 1214 1189 1221 1208 1221 1225 C 1221 1243 1211 1255 1193 1261 C 1175 1267 1137 1271 1081 1272 L 1094 1331 L 1303 1327 L 1493 1331 L 1481 1272 Z" unicode="" />
<glyph horiz-adv-x="575" d="M 365 604 L 211 604 L 211 1477 L 365 1477 L 365 604 Z M 365 -440 L 211 -440 L 211 432 L 365 432 L 365 -440 Z" unicode="" />
<glyph horiz-adv-x="874" d="M 717 1343 C 765 1343 808 1332 846 1310 C 884 1288 903 1262 903 1231 C 903 1169 875 1139 821 1139 C 792 1139 766 1160 742 1204 C 718 1248 687 1270 649 1270 C 603 1270 566 1249 538 1207 C 510 1165 496 1110 496 1044 C 496 952 538 812 624 625 C 709 437 752 289 752 180 C 752 38 695 -88 582 -201 C 469 -314 344 -371 207 -371 C 147 -371 96 -359 56 -337 C 16 -314 -4 -284 -4 -246 C -4 -222 3 -202 19 -188 C 34 -173 54 -166 78 -166 C 112 -166 141 -188 164 -234 C 186 -280 220 -303 264 -303 C 318 -303 363 -279 398 -231 C 433 -183 451 -118 451 -35 C 451 59 408 201 323 389 C 237 577 195 719 195 813 C 195 949 248 1072 356 1180 C 464 1288 584 1343 717 1343 Z M 504 -193 C 606 -99 657 17 657 158 C 657 254 615 393 532 577 C 449 761 408 895 408 981 C 408 1060 418 1120 438 1161 L 434 1165 C 340 1063 293 953 293 836 C 293 751 334 617 417 435 C 499 253 541 114 541 20 C 541 -71 527 -140 500 -188 L 504 -193 Z" unicode="" />
<glyph horiz-adv-x="682" d="M 743 1309 C 775 1309 801 1298 822 1277 C 843 1255 854 1230 854 1202 C 854 1172 843 1147 822 1127 C 801 1106 776 1096 748 1096 C 718 1096 692 1106 672 1127 C 651 1147 641 1172 641 1202 C 641 1232 651 1257 672 1278 C 693 1298 717 1309 743 1309 Z M 328 1309 C 359 1309 385 1298 406 1277 C 427 1255 438 1230 438 1202 C 438 1172 427 1147 406 1127 C 385 1106 360 1096 332 1096 C 302 1096 276 1106 256 1127 C 235 1147 225 1172 225 1202 C 225 1232 235 1257 256 1278 C 277 1298 301 1309 328 1309 Z" unicode="" />
<glyph horiz-adv-x="1530" d="M 819 1366 C 1013 1366 1180 1296 1320 1158 C 1460 1020 1530 853 1530 657 C 1530 461 1460 294 1321 155 C 1182 16 1015 -53 819 -53 C 624 -53 457 16 319 155 C 180 294 111 461 111 657 C 111 852 180 1019 319 1158 C 458 1296 625 1366 819 1366 Z M 819 37 C 989 37 1135 97 1257 219 C 1379 340 1440 486 1440 657 C 1440 827 1379 973 1257 1094 C 1135 1215 989 1276 819 1276 C 650 1276 505 1215 383 1094 C 261 973 201 827 201 657 C 201 486 261 340 382 219 C 503 97 649 37 819 37 Z M 1155 819 L 1116 819 C 1100 893 1069 948 1023 983 C 976 1018 925 1036 870 1036 C 785 1036 721 1003 677 937 C 633 871 612 782 612 672 C 612 522 639 422 694 372 C 748 322 806 297 866 297 C 968 297 1054 343 1126 436 L 1126 367 C 1044 282 938 240 809 240 C 689 240 589 276 508 350 C 427 424 387 523 387 647 C 387 775 429 880 514 962 C 598 1044 703 1085 827 1085 C 889 1085 954 1071 1024 1044 C 1046 1037 1061 1034 1071 1034 C 1097 1034 1112 1050 1116 1083 L 1155 1083 L 1155 819 Z" unicode="" />
<glyph horiz-adv-x="662" d="M 616 1325 C 637 1371 664 1395 696 1395 C 727 1395 743 1384 743 1364 C 743 1355 719 1278 673 1134 C 627 989 604 905 604 881 C 604 872 608 868 618 868 C 632 868 665 894 717 946 L 739 924 C 703 877 662 838 616 806 C 570 774 534 758 508 758 C 465 758 444 778 444 819 C 444 842 457 891 485 967 L 481 971 C 445 907 401 856 348 816 C 295 776 254 756 225 756 C 154 756 119 792 119 864 C 119 965 169 1074 271 1190 C 373 1306 464 1364 545 1364 C 578 1364 602 1351 616 1325 Z M 311 874 C 351 874 402 916 464 1002 C 526 1088 557 1166 557 1237 C 557 1273 539 1292 504 1292 C 440 1292 384 1253 334 1175 C 284 1097 260 1018 260 940 C 260 896 277 874 311 874 Z" unicode="" />
<glyph horiz-adv-x="981" d="M 879 729 L 616 444 L 768 162 L 735 135 L 426 463 L 850 760 L 879 729 Z M 565 729 L 303 444 L 455 162 L 422 135 L 113 463 L 537 760 L 565 729 Z" unicode="" />
<glyph horiz-adv-x="1366" d="M 1272 358 L 1114 358 L 1114 827 L 176 827 L 176 985 L 1272 985 L 1272 358 Z" unicode="" />
<glyph horiz-adv-x="662" d="M 602 555 L 567 399 L 80 399 L 115 555 L 602 555 Z" unicode="" />
<glyph horiz-adv-x="1530" d="M 819 1366 C 1013 1366 1180 1296 1320 1158 C 1460 1020 1530 853 1530 657 C 1530 461 1460 294 1321 155 C 1182 16 1015 -53 819 -53 C 624 -53 457 16 319 155 C 180 294 111 461 111 657 C 111 852 180 1019 319 1158 C 458 1296 625 1366 819 1366 Z M 819 37 C 989 37 1135 97 1257 219 C 1379 340 1440 486 1440 657 C 1440 827 1379 973 1257 1094 C 1135 1215 989 1276 819 1276 C 650 1276 505 1215 383 1094 C 261 973 201 827 201 657 C 201 486 261 340 382 219 C 503 97 649 37 819 37 Z M 1221 260 L 979 260 L 774 627 L 727 627 L 727 430 C 727 374 734 338 748 321 C 762 304 796 295 848 293 L 848 260 L 424 260 L 424 293 C 462 293 488 300 504 316 C 520 332 528 370 528 430 L 528 901 C 528 963 521 1000 507 1012 C 493 1024 471 1031 440 1034 L 440 1069 L 803 1069 C 951 1069 1047 1045 1091 998 C 1135 950 1157 901 1157 850 C 1157 745 1097 676 979 643 L 1116 393 C 1147 332 1182 299 1221 293 L 1221 260 Z M 727 678 L 784 674 C 826 674 862 689 894 721 C 926 753 942 797 942 854 C 942 967 883 1024 766 1024 L 727 1024 L 727 678 Z" unicode="" />
<glyph horiz-adv-x="1024" d="M 1036 1464 L -12 1464 L -12 1566 L 1036 1566 L 1036 1464 Z" unicode="" />
<glyph horiz-adv-x="819" d="M 489 1366 C 584 1366 666 1332 734 1264 C 802 1196 836 1115 836 1020 C 836 925 802 844 734 776 C 666 708 584 674 489 674 C 394 674 313 708 245 776 C 177 844 143 925 143 1020 C 143 1115 177 1196 245 1264 C 313 1332 394 1366 489 1366 Z M 489 805 C 548 805 599 826 641 868 C 683 910 705 961 705 1020 C 705 1080 684 1130 642 1172 C 600 1214 549 1235 489 1235 C 430 1235 379 1214 337 1172 C 295 1130 274 1079 274 1020 C 274 960 295 910 337 868 C 379 826 430 805 489 805 Z" unicode="" />
<glyph horiz-adv-x="1366" d="M 1272 758 L 803 758 L 803 289 L 645 289 L 645 758 L 176 758 L 176 915 L 645 915 L 645 1384 L 803 1384 L 803 915 L 1272 915 L 1272 758 Z M 1272 0 L 176 0 L 176 158 L 1272 158 L 1272 0 Z" unicode="" />
<glyph horiz-adv-x="662" d="M 727 920 C 702 862 674 784 643 686 L 115 686 L 119 723 C 373 915 500 1073 500 1198 C 500 1260 471 1292 414 1292 C 372 1292 320 1271 258 1231 L 238 1268 C 339 1342 443 1380 549 1380 C 590 1380 624 1368 650 1346 C 676 1324 690 1296 690 1262 C 690 1207 662 1146 606 1080 C 550 1014 457 929 326 825 L 625 825 L 680 920 L 727 920 Z" unicode="" />
<glyph horiz-adv-x="662" d="M 270 1292 C 357 1350 447 1380 539 1380 C 592 1380 635 1369 667 1348 C 699 1327 715 1299 715 1264 C 715 1185 634 1120 473 1069 L 473 1065 C 567 1065 631 1054 664 1033 C 696 1011 713 980 713 938 C 713 871 673 810 595 755 C 517 699 428 672 328 672 C 202 672 139 705 139 772 C 139 790 150 806 174 819 C 198 831 213 838 221 838 C 232 838 238 831 238 817 C 246 754 280 723 342 723 C 388 723 430 740 469 776 C 508 812 528 854 528 903 C 528 977 485 1014 399 1014 C 375 1014 358 1013 348 1012 L 356 1061 C 417 1071 465 1092 499 1126 C 533 1159 551 1193 551 1229 C 551 1283 524 1311 471 1311 C 421 1311 362 1293 293 1257 L 270 1292 Z" unicode="" />
<glyph horiz-adv-x="682" d="M 717 1378 L 387 979 L 352 1006 L 629 1444 L 717 1378 Z" unicode="" />
<glyph horiz-adv-x="1024" d="M 1006 213 C 945 53 853 -27 731 -27 C 691 -27 659 -14 634 11 C 608 36 596 73 596 121 C 596 145 598 171 602 197 L 598 201 C 548 125 495 68 439 30 C 383 -8 331 -27 283 -27 C 202 -27 149 4 123 66 C 108 24 96 -52 86 -164 C 76 -276 59 -351 37 -387 C 15 -423 -18 -442 -63 -442 C -125 -442 -156 -412 -156 -354 C -156 -319 -125 -242 -64 -124 C -2 -5 43 107 74 213 L 252 834 L 451 834 L 317 369 C 288 269 274 204 274 176 C 274 152 283 132 303 117 C 322 101 346 94 375 94 C 429 94 486 131 546 207 C 606 282 653 380 688 500 L 784 834 L 981 834 L 829 301 C 806 216 795 166 795 150 C 795 118 810 102 840 102 C 875 102 911 139 948 213 L 1006 213 Z" unicode="" />
<glyph horiz-adv-x="1106" d="M 1171 1284 L 1128 1284 C 1084 1284 1053 1276 1035 1261 C 1017 1246 1006 1229 1004 1210 C 1002 1191 1001 1147 1001 1079 L 1001 -440 L 885 -440 L 885 1251 L 719 1251 L 719 -440 L 602 -440 L 602 401 C 412 407 276 453 192 537 C 108 621 66 734 66 874 C 66 986 92 1075 145 1142 C 198 1208 256 1256 319 1284 C 381 1312 519 1327 733 1327 L 1171 1327 L 1171 1284 Z" unicode="" />
<glyph horiz-adv-x="555" d="M 305 801 C 343 801 376 786 404 758 C 432 730 446 696 446 657 C 446 618 432 585 404 557 C 376 529 343 516 305 516 C 266 516 233 529 205 557 C 177 585 164 618 164 657 C 164 696 177 730 205 758 C 233 786 266 801 305 801 Z" unicode="" />
<glyph horiz-adv-x="682" d="M 463 12 C 409 -47 383 -95 383 -133 C 383 -140 385 -165 391 -207 C 396 -249 399 -273 399 -279 C 399 -326 380 -362 342 -387 C 304 -411 253 -424 190 -424 C 111 -424 72 -407 72 -373 C 72 -347 83 -334 106 -334 C 121 -334 141 -340 167 -352 C 192 -364 214 -371 233 -371 C 261 -371 276 -353 276 -319 C 276 -303 268 -275 254 -237 C 240 -198 233 -165 233 -139 C 233 -124 237 -110 246 -98 C 254 -85 312 -48 418 12 L 463 12 Z" unicode="" />
<glyph horiz-adv-x="662" d="M 651 731 L 647 680 C 617 682 582 684 541 684 L 391 684 C 274 684 200 682 168 680 L 174 731 C 275 741 327 749 331 755 C 334 760 339 782 346 821 L 420 1235 L 268 1171 L 256 1225 C 324 1255 393 1288 465 1324 L 569 1378 L 616 1378 L 526 862 C 525 860 522 845 517 815 C 512 785 510 769 510 768 C 510 756 514 748 524 745 C 533 741 575 737 651 731 Z" unicode="" />
<glyph horiz-adv-x="748" d="M 494 1364 C 579 1364 647 1339 697 1289 C 747 1239 772 1178 772 1108 C 772 1020 734 940 660 866 C 585 792 499 756 401 756 C 319 756 255 781 209 832 C 162 882 139 946 139 1022 C 139 1116 175 1197 247 1264 C 319 1330 401 1364 494 1364 Z M 403 805 C 463 805 513 842 554 917 C 595 992 616 1069 616 1149 C 616 1259 577 1315 500 1315 C 438 1315 388 1278 348 1205 C 308 1131 289 1055 289 977 C 289 862 327 805 403 805 Z" unicode="" />
<glyph horiz-adv-x="981" d="M 862 432 L 438 135 L 410 166 L 672 451 L 520 733 L 553 760 L 862 432 Z M 549 432 L 125 135 L 96 166 L 358 451 L 207 733 L 240 760 L 549 432 Z" unicode="" />
<glyph horiz-adv-x="1962" d="M 1730 1382 L 536 -29 L 407 -29 L 1600 1382 L 1730 1382 Z M 805 731 L 801 680 C 771 682 736 684 695 684 L 545 684 C 428 684 354 682 322 680 L 328 731 C 429 741 481 749 485 755 C 488 760 493 782 500 821 L 574 1235 L 422 1171 L 410 1225 C 478 1255 547 1288 619 1324 L 723 1378 L 770 1378 L 680 862 C 679 860 676 845 671 815 C 666 785 664 769 664 768 C 664 756 668 748 678 745 C 687 741 729 737 805 731 Z M 1662 253 L 1639 130 L 1496 130 L 1467 -26 L 1304 -26 L 1330 130 L 1041 130 L 1060 239 L 1486 669 L 1588 669 L 1519 253 L 1662 253 Z M 1396 497 L 1392 501 L 1150 253 L 1355 253 L 1396 497 Z" unicode="" />
<glyph horiz-adv-x="1962" d="M 1730 1382 L 536 -29 L 407 -29 L 1600 1382 L 1730 1382 Z M 805 731 L 801 680 C 771 682 736 684 695 684 L 545 684 C 428 684 354 682 322 680 L 328 731 C 429 741 481 749 485 755 C 488 760 493 782 500 821 L 574 1235 L 422 1171 L 410 1225 C 478 1255 547 1288 619 1324 L 723 1378 L 770 1378 L 680 862 C 679 860 676 845 671 815 C 666 785 664 769 664 768 C 664 756 668 748 678 745 C 687 741 729 737 805 731 Z M 1673 208 C 1648 150 1620 72 1589 -26 L 1061 -26 L 1065 11 C 1319 203 1446 361 1446 486 C 1446 548 1417 580 1360 580 C 1318 580 1266 559 1204 519 L 1184 556 C 1285 630 1389 668 1495 668 C 1536 668 1570 656 1596 634 C 1622 612 1636 584 1636 550 C 1636 495 1608 434 1552 368 C 1496 302 1403 217 1272 113 L 1571 113 L 1626 208 L 1673 208 Z" unicode="" />
<glyph horiz-adv-x="1962" d="M 1730 1382 L 536 -29 L 407 -29 L 1600 1382 L 1730 1382 Z M 452 1292 C 539 1350 629 1380 721 1380 C 774 1380 817 1369 849 1348 C 881 1327 897 1299 897 1264 C 897 1185 816 1120 655 1069 L 655 1065 C 749 1065 813 1054 846 1033 C 878 1011 895 980 895 938 C 895 871 855 810 777 755 C 699 699 610 672 510 672 C 384 672 321 705 321 772 C 321 790 332 806 356 819 C 380 831 395 838 403 838 C 414 838 420 831 420 817 C 428 754 462 723 524 723 C 570 723 612 740 651 776 C 690 812 710 854 710 903 C 710 977 667 1014 581 1014 C 557 1014 540 1013 530 1012 L 538 1061 C 599 1071 647 1092 681 1126 C 715 1159 733 1193 733 1229 C 733 1283 706 1311 653 1311 C 603 1311 544 1293 475 1257 L 452 1292 Z M 1662 253 L 1639 130 L 1496 130 L 1467 -26 L 1304 -26 L 1330 130 L 1041 130 L 1060 239 L 1486 669 L 1588 669 L 1519 253 L 1662 253 Z M 1396 497 L 1392 501 L 1150 253 L 1355 253 L 1396 497 Z" unicode="" />
<glyph horiz-adv-x="768" d="M 549 879 C 587 879 620 865 648 837 C 676 809 690 775 690 737 C 690 698 676 664 648 636 C 620 608 587 594 549 594 C 510 594 477 608 449 636 C 421 664 408 698 408 737 C 408 775 421 809 449 837 C 477 865 510 879 549 879 Z M 406 551 C 474 551 532 522 580 466 C 628 409 653 339 653 256 C 653 198 635 149 601 108 C 567 67 496 32 388 2 C 280 -28 214 -54 190 -76 C 166 -98 154 -124 154 -156 C 154 -180 166 -201 190 -218 C 214 -235 248 -244 291 -244 C 311 -244 338 -234 372 -214 C 406 -194 435 -184 459 -184 C 506 -184 530 -212 530 -270 C 530 -327 481 -356 383 -356 C 293 -356 217 -330 155 -278 C 93 -226 63 -166 63 -96 C 63 -32 82 24 120 76 C 158 128 225 168 322 197 C 419 225 483 248 513 266 C 543 284 559 312 559 350 C 559 408 517 438 434 438 C 427 438 414 435 394 429 C 374 423 360 420 350 420 C 316 420 299 437 299 473 C 299 497 309 516 330 530 C 350 544 376 551 406 551 Z" unicode="" />
<glyph horiz-adv-x="1430" d="M 1370 -4 L 1106 0 L 829 -4 L 842 55 C 910 55 952 59 966 69 C 980 79 987 98 987 127 C 987 151 985 173 981 195 L 922 498 L 453 498 L 307 207 C 289 173 281 142 281 113 C 281 93 288 79 303 69 C 318 59 353 55 408 55 L 395 -4 C 317 -1 247 0 184 0 C 118 0 43 -1 -39 -4 L -27 55 L 20 55 C 82 55 141 107 199 213 L 817 1352 L 979 1391 L 1192 283 C 1212 175 1232 109 1252 86 C 1272 63 1315 53 1382 55 L 1370 -4 Z M 905 588 L 797 1161 L 793 1161 L 502 588 L 905 588 Z M 1079 1452 L 1040 1432 L 758 1848 L 856 1897 L 1079 1452 Z" unicode="" />
<glyph horiz-adv-x="1430" d="M 1370 -4 L 1106 0 L 829 -4 L 842 55 C 910 55 952 59 966 69 C 980 79 987 98 987 127 C 987 151 985 173 981 195 L 922 498 L 453 498 L 307 207 C 289 173 281 142 281 113 C 281 93 288 79 303 69 C 318 59 353 55 408 55 L 395 -4 C 317 -1 247 0 184 0 C 118 0 43 -1 -39 -4 L -27 55 L 20 55 C 82 55 141 107 199 213 L 817 1352 L 979 1391 L 1192 283 C 1212 175 1232 109 1252 86 C 1272 63 1315 53 1382 55 L 1370 -4 Z M 905 588 L 797 1161 L 793 1161 L 502 588 L 905 588 Z M 1113 1831 L 783 1432 L 748 1459 L 1025 1897 L 1113 1831 Z" unicode="" />
<glyph horiz-adv-x="1430" d="M 1370 -4 L 1106 0 L 829 -4 L 842 55 C 910 55 952 59 966 69 C 980 79 987 98 987 127 C 987 151 985 173 981 195 L 922 498 L 453 498 L 307 207 C 289 173 281 142 281 113 C 281 93 288 79 303 69 C 318 59 353 55 408 55 L 395 -4 C 317 -1 247 0 184 0 C 118 0 43 -1 -39 -4 L -27 55 L 20 55 C 82 55 141 107 199 213 L 817 1352 L 979 1391 L 1192 283 C 1212 175 1232 109 1252 86 C 1272 63 1315 53 1382 55 L 1370 -4 Z M 905 588 L 797 1161 L 793 1161 L 502 588 L 905 588 Z M 1163 1452 L 1120 1442 L 977 1686 L 706 1438 L 674 1469 L 1009 1878 L 1028 1878 L 1163 1452 Z" unicode="" />
<glyph horiz-adv-x="1430" d="M 1370 -4 L 1106 0 L 829 -4 L 842 55 C 910 55 952 59 966 69 C 980 79 987 98 987 127 C 987 151 985 173 981 195 L 922 498 L 453 498 L 307 207 C 289 173 281 142 281 113 C 281 93 288 79 303 69 C 318 59 353 55 408 55 L 395 -4 C 317 -1 247 0 184 0 C 118 0 43 -1 -39 -4 L -27 55 L 20 55 C 82 55 141 107 199 213 L 817 1352 L 979 1391 L 1192 283 C 1212 175 1232 109 1252 86 C 1272 63 1315 53 1382 55 L 1370 -4 Z M 905 588 L 797 1161 L 793 1161 L 502 588 L 905 588 Z M 1209 1756 C 1220 1756 1231 1751 1241 1743 C 1251 1734 1256 1725 1256 1715 C 1256 1673 1236 1633 1197 1594 C 1158 1555 1111 1536 1057 1536 C 1018 1536 963 1560 892 1609 C 820 1657 772 1682 746 1682 C 734 1682 724 1677 715 1669 C 705 1661 701 1653 701 1645 C 701 1639 702 1632 705 1624 C 707 1616 709 1610 709 1604 C 709 1572 694 1557 666 1557 C 636 1557 621 1572 621 1604 C 621 1642 641 1681 681 1719 C 721 1757 764 1776 811 1776 C 841 1776 867 1770 891 1759 C 914 1748 954 1724 1011 1687 C 1068 1649 1111 1631 1141 1631 C 1164 1631 1176 1645 1176 1674 C 1176 1676 1174 1683 1172 1693 C 1169 1703 1168 1711 1168 1717 C 1168 1743 1181 1756 1209 1756 Z" unicode="" />
<glyph horiz-adv-x="1430" d="M 1370 -4 L 1106 0 L 829 -4 L 842 55 C 910 55 952 59 966 69 C 980 79 987 98 987 127 C 987 151 985 173 981 195 L 922 498 L 453 498 L 307 207 C 289 173 281 142 281 113 C 281 93 288 79 303 69 C 318 59 353 55 408 55 L 395 -4 C 317 -1 247 0 184 0 C 118 0 43 -1 -39 -4 L -27 55 L 20 55 C 82 55 141 107 199 213 L 817 1352 L 979 1391 L 1192 283 C 1212 175 1232 109 1252 86 C 1272 63 1315 53 1382 55 L 1370 -4 Z M 905 588 L 797 1161 L 793 1161 L 502 588 L 905 588 Z M 1122 1761 C 1154 1761 1180 1750 1201 1729 C 1222 1707 1233 1682 1233 1654 C 1233 1624 1222 1599 1201 1579 C 1180 1558 1155 1548 1127 1548 C 1097 1548 1071 1558 1051 1579 C 1030 1599 1020 1624 1020 1654 C 1020 1684 1030 1709 1051 1730 C 1072 1750 1096 1761 1122 1761 Z M 707 1761 C 738 1761 764 1750 785 1729 C 806 1707 817 1682 817 1654 C 817 1624 806 1599 785 1579 C 764 1558 739 1548 711 1548 C 681 1548 655 1558 635 1579 C 614 1599 604 1624 604 1654 C 604 1684 614 1709 635 1730 C 656 1750 680 1761 707 1761 Z" unicode="" />
<glyph horiz-adv-x="1430" d="M 1370 -4 L 1106 0 L 829 -4 L 842 55 C 910 55 952 59 966 69 C 980 79 987 98 987 127 C 987 151 985 173 981 195 L 922 498 L 453 498 L 307 207 C 289 173 281 142 281 113 C 281 93 288 79 303 69 C 318 59 353 55 408 55 L 395 -4 C 317 -1 247 0 184 0 C 118 0 43 -1 -39 -4 L -27 55 L 20 55 C 82 55 141 107 199 213 L 817 1352 L 979 1391 L 1192 283 C 1212 175 1232 109 1252 86 C 1272 63 1315 53 1382 55 L 1370 -4 Z M 905 588 L 797 1161 L 793 1161 L 502 588 L 905 588 Z M 942 1823 C 990 1823 1031 1806 1063 1773 C 1095 1740 1112 1701 1112 1657 C 1112 1611 1095 1571 1063 1539 C 1031 1507 992 1491 946 1491 C 900 1491 861 1507 829 1539 C 796 1571 780 1611 780 1657 C 780 1703 796 1743 829 1775 C 862 1807 900 1823 942 1823 Z M 946 1549 C 976 1549 1001 1559 1023 1581 C 1044 1602 1055 1627 1055 1657 C 1055 1687 1044 1713 1022 1734 C 1000 1755 976 1766 948 1766 C 916 1766 889 1755 869 1734 C 848 1712 838 1687 838 1657 C 838 1627 848 1602 870 1581 C 891 1559 916 1549 946 1549 Z" unicode="" />
<glyph horiz-adv-x="1962" d="M 1911 1331 L 1892 1067 L 1843 1067 C 1843 1139 1829 1188 1803 1216 C 1776 1243 1712 1257 1612 1257 L 1384 1257 L 1290 715 L 1466 715 C 1559 715 1612 770 1626 881 L 1683 881 C 1651 730 1627 591 1612 465 L 1554 465 C 1560 495 1563 518 1563 532 C 1563 600 1531 635 1468 635 L 1276 635 L 1200 193 C 1198 179 1197 167 1197 156 C 1197 92 1244 61 1339 61 C 1495 61 1596 64 1640 71 C 1684 78 1724 99 1760 134 C 1796 169 1827 227 1853 309 L 1909 309 C 1884 209 1856 104 1825 -4 L 1268 0 C 1057 0 881 -1 741 -4 L 752 55 C 836 55 890 62 914 76 C 938 90 957 131 969 199 L 1044 635 L 623 635 L 295 229 C 241 167 215 121 215 92 C 215 67 246 55 309 55 L 297 -4 L 100 0 L -131 -4 L -115 55 C -22 55 64 103 145 199 L 920 1110 C 962 1159 983 1199 983 1231 C 983 1244 976 1254 963 1261 C 950 1267 911 1272 846 1274 L 860 1331 L 1438 1327 L 1911 1331 Z M 1157 1282 L 1153 1286 L 688 715 L 1059 715 L 1157 1282 Z" unicode="" />
<glyph horiz-adv-x="1430" d="M 801 -33 C 583 -33 413 28 293 151 C 173 273 113 426 113 608 C 113 811 192 988 352 1138 C 511 1288 710 1364 950 1364 C 1016 1364 1069 1359 1108 1349 C 1147 1339 1190 1326 1236 1309 C 1282 1292 1306 1284 1307 1284 C 1321 1284 1339 1294 1360 1315 L 1401 1307 L 1339 969 L 1280 979 C 1288 1078 1260 1156 1196 1214 C 1132 1271 1049 1300 946 1300 C 784 1300 647 1234 535 1102 C 423 970 367 801 367 594 C 367 418 409 281 495 181 C 581 81 689 31 819 31 C 1005 31 1152 145 1262 373 L 1315 360 L 1239 47 C 1217 55 1199 59 1184 59 C 1170 59 1142 50 1101 32 C 1059 14 1015 0 968 -14 C 920 -27 883 -44 856 -64 C 828 -84 815 -101 815 -115 C 815 -122 819 -145 828 -185 C 837 -224 842 -247 842 -254 C 842 -292 815 -330 761 -367 C 707 -403 656 -422 610 -422 C 572 -422 540 -415 513 -402 C 486 -389 473 -372 473 -350 C 473 -337 478 -325 489 -315 C 499 -304 512 -299 528 -299 C 534 -299 557 -311 598 -336 C 638 -360 661 -373 666 -373 C 677 -373 688 -367 699 -356 C 709 -345 715 -333 715 -319 C 715 -307 707 -285 691 -254 C 675 -222 668 -195 668 -172 C 668 -129 721 -83 829 -33 L 801 -33 Z" unicode="" />
<glyph horiz-adv-x="1194" d="M 1163 311 L 1077 -4 C 975 -1 796 0 539 0 C 395 0 229 -1 41 -4 L 53 55 C 116 55 158 68 178 95 C 198 122 213 158 221 203 L 391 1135 C 395 1161 397 1179 397 1188 C 397 1224 386 1247 366 1257 C 346 1267 308 1272 254 1272 L 266 1331 C 410 1327 525 1326 610 1327 L 1163 1331 L 1145 1067 L 1096 1067 C 1096 1121 1090 1160 1080 1185 C 1069 1210 1040 1229 994 1243 C 947 1257 870 1264 764 1264 C 736 1264 695 1262 643 1260 L 547 741 L 694 741 C 763 741 813 752 844 776 C 875 800 899 845 915 911 L 969 911 C 937 750 913 609 895 487 L 842 487 L 846 580 C 846 612 839 634 827 645 C 814 656 785 662 739 662 L 535 662 L 453 217 C 450 197 449 178 449 160 C 449 120 459 94 480 82 C 501 69 539 63 594 63 C 758 63 861 65 903 71 C 945 76 984 100 1020 142 C 1055 184 1085 240 1110 309 L 1163 311 Z M 939 1452 L 900 1432 L 618 1848 L 716 1897 L 939 1452 Z" unicode="" />
<glyph horiz-adv-x="1194" d="M 1163 311 L 1077 -4 C 975 -1 796 0 539 0 C 395 0 229 -1 41 -4 L 53 55 C 116 55 158 68 178 95 C 198 122 213 158 221 203 L 391 1135 C 395 1161 397 1179 397 1188 C 397 1224 386 1247 366 1257 C 346 1267 308 1272 254 1272 L 266 1331 C 410 1327 525 1326 610 1327 L 1163 1331 L 1145 1067 L 1096 1067 C 1096 1121 1090 1160 1080 1185 C 1069 1210 1040 1229 994 1243 C 947 1257 870 1264 764 1264 C 736 1264 695 1262 643 1260 L 547 741 L 694 741 C 763 741 813 752 844 776 C 875 800 899 845 915 911 L 969 911 C 937 750 913 609 895 487 L 842 487 L 846 580 C 846 612 839 634 827 645 C 814 656 785 662 739 662 L 535 662 L 453 217 C 450 197 449 178 449 160 C 449 120 459 94 480 82 C 501 69 539 63 594 63 C 758 63 861 65 903 71 C 945 76 984 100 1020 142 C 1055 184 1085 240 1110 309 L 1163 311 Z M 973 1831 L 643 1432 L 608 1459 L 885 1897 L 973 1831 Z" unicode="" />
<glyph horiz-adv-x="1194" d="M 1163 311 L 1077 -4 C 975 -1 796 0 539 0 C 395 0 229 -1 41 -4 L 53 55 C 116 55 158 68 178 95 C 198 122 213 158 221 203 L 391 1135 C 395 1161 397 1179 397 1188 C 397 1224 386 1247 366 1257 C 346 1267 308 1272 254 1272 L 266 1331 C 410 1327 525 1326 610 1327 L 1163 1331 L 1145 1067 L 1096 1067 C 1096 1121 1090 1160 1080 1185 C 1069 1210 1040 1229 994 1243 C 947 1257 870 1264 764 1264 C 736 1264 695 1262 643 1260 L 547 741 L 694 741 C 763 741 813 752 844 776 C 875 800 899 845 915 911 L 969 911 C 937 750 913 609 895 487 L 842 487 L 846 580 C 846 612 839 634 827 645 C 814 656 785 662 739 662 L 535 662 L 453 217 C 450 197 449 178 449 160 C 449 120 459 94 480 82 C 501 69 539 63 594 63 C 758 63 861 65 903 71 C 945 76 984 100 1020 142 C 1055 184 1085 240 1110 309 L 1163 311 Z M 1024 1452 L 981 1442 L 838 1686 L 567 1438 L 535 1469 L 870 1878 L 889 1878 L 1024 1452 Z" unicode="" />
<glyph horiz-adv-x="1194" d="M 1163 311 L 1077 -4 C 975 -1 796 0 539 0 C 395 0 229 -1 41 -4 L 53 55 C 116 55 158 68 178 95 C 198 122 213 158 221 203 L 391 1135 C 395 1161 397 1179 397 1188 C 397 1224 386 1247 366 1257 C 346 1267 308 1272 254 1272 L 266 1331 C 410 1327 525 1326 610 1327 L 1163 1331 L 1145 1067 L 1096 1067 C 1096 1121 1090 1160 1080 1185 C 1069 1210 1040 1229 994 1243 C 947 1257 870 1264 764 1264 C 736 1264 695 1262 643 1260 L 547 741 L 694 741 C 763 741 813 752 844 776 C 875 800 899 845 915 911 L 969 911 C 937 750 913 609 895 487 L 842 487 L 846 580 C 846 612 839 634 827 645 C 814 656 785 662 739 662 L 535 662 L 453 217 C 450 197 449 178 449 160 C 449 120 459 94 480 82 C 501 69 539 63 594 63 C 758 63 861 65 903 71 C 945 76 984 100 1020 142 C 1055 184 1085 240 1110 309 L 1163 311 Z M 999 1761 C 1031 1761 1057 1750 1078 1729 C 1099 1707 1110 1682 1110 1654 C 1110 1624 1099 1599 1078 1579 C 1057 1558 1032 1548 1004 1548 C 974 1548 948 1558 928 1579 C 907 1599 897 1624 897 1654 C 897 1684 907 1709 928 1730 C 949 1750 973 1761 999 1761 Z M 584 1761 C 615 1761 641 1750 662 1729 C 683 1707 694 1682 694 1654 C 694 1624 683 1599 662 1579 C 641 1558 616 1548 588 1548 C 558 1548 532 1558 512 1579 C 491 1599 481 1624 481 1654 C 481 1684 491 1709 512 1730 C 533 1750 557 1761 584 1761 Z" unicode="" />
<glyph horiz-adv-x="662" d="M 743 1331 L 731 1272 C 666 1272 621 1266 596 1252 C 571 1238 551 1189 537 1104 L 377 203 C 371 170 369 145 369 129 C 369 103 378 85 397 74 C 415 62 456 56 520 55 L 508 -4 C 396 -1 307 0 240 0 L -61 -4 L -49 55 C 25 55 73 63 95 81 C 117 98 134 143 147 217 L 303 1106 C 311 1149 315 1184 315 1210 C 315 1236 302 1253 278 1260 C 253 1267 214 1271 162 1272 L 174 1331 L 424 1327 L 743 1331 Z M 632 1452 L 593 1432 L 311 1848 L 409 1897 L 632 1452 Z" unicode="" />
<glyph horiz-adv-x="662" d="M 743 1331 L 731 1272 C 666 1272 621 1266 596 1252 C 571 1238 551 1189 537 1104 L 377 203 C 371 170 369 145 369 129 C 369 103 378 85 397 74 C 415 62 456 56 520 55 L 508 -4 C 396 -1 307 0 240 0 L -61 -4 L -49 55 C 25 55 73 63 95 81 C 117 98 134 143 147 217 L 303 1106 C 311 1149 315 1184 315 1210 C 315 1236 302 1253 278 1260 C 253 1267 214 1271 162 1272 L 174 1331 L 424 1327 L 743 1331 Z M 676 1831 L 346 1432 L 311 1459 L 588 1897 L 676 1831 Z" unicode="" />
<glyph horiz-adv-x="662" d="M 743 1331 L 731 1272 C 666 1272 621 1266 596 1252 C 571 1238 551 1189 537 1104 L 377 203 C 371 170 369 145 369 129 C 369 103 378 85 397 74 C 415 62 456 56 520 55 L 508 -4 C 396 -1 307 0 240 0 L -61 -4 L -49 55 C 25 55 73 63 95 81 C 117 98 134 143 147 217 L 303 1106 C 311 1149 315 1184 315 1210 C 315 1236 302 1253 278 1260 C 253 1267 214 1271 162 1272 L 174 1331 L 424 1327 L 743 1331 Z M 696 1452 L 653 1442 L 510 1686 L 239 1438 L 207 1469 L 542 1878 L 561 1878 L 696 1452 Z" unicode="" />
<glyph horiz-adv-x="662" d="M 743 1331 L 731 1272 C 666 1272 621 1266 596 1252 C 571 1238 551 1189 537 1104 L 377 203 C 371 170 369 145 369 129 C 369 103 378 85 397 74 C 415 62 456 56 520 55 L 508 -4 C 396 -1 307 0 240 0 L -61 -4 L -49 55 C 25 55 73 63 95 81 C 117 98 134 143 147 217 L 303 1106 C 311 1149 315 1184 315 1210 C 315 1236 302 1253 278 1260 C 253 1267 214 1271 162 1272 L 174 1331 L 424 1327 L 743 1331 Z M 692 1761 C 724 1761 750 1750 771 1729 C 792 1707 803 1682 803 1654 C 803 1624 792 1599 771 1579 C 750 1558 725 1548 697 1548 C 667 1548 641 1558 621 1579 C 600 1599 590 1624 590 1654 C 590 1684 600 1709 621 1730 C 642 1750 666 1761 692 1761 Z M 277 1761 C 308 1761 334 1750 355 1729 C 376 1707 387 1682 387 1654 C 387 1624 376 1599 355 1579 C 334 1558 309 1548 281 1548 C 251 1548 225 1558 205 1579 C 184 1599 174 1624 174 1654 C 174 1684 184 1709 205 1730 C 226 1750 250 1761 277 1761 Z" unicode="" />
<glyph horiz-adv-x="1536" d="M 231 1331 L 512 1327 L 819 1331 C 927 1331 1038 1304 1152 1252 C 1266 1200 1351 1123 1408 1023 C 1464 922 1493 823 1493 727 C 1493 543 1422 376 1281 224 C 1139 72 915 -4 608 -4 L 371 0 L 41 -4 L 51 55 C 135 55 183 91 197 164 L 279 614 L 90 614 L 106 705 L 295 705 L 371 1122 C 375 1148 377 1172 377 1196 C 377 1224 366 1243 344 1254 C 322 1265 281 1271 219 1272 L 231 1331 Z M 512 614 L 438 203 C 434 186 432 164 432 137 C 432 85 486 59 594 59 C 808 59 969 130 1077 272 C 1185 414 1239 570 1239 741 C 1239 907 1188 1036 1087 1129 C 986 1221 850 1268 678 1268 C 663 1268 647 1266 631 1264 L 528 705 L 803 705 L 786 614 L 512 614 Z" unicode="" />
<glyph horiz-adv-x="1642" d="M 1624 1272 C 1578 1272 1543 1264 1519 1248 C 1495 1232 1478 1192 1466 1130 L 1286 168 C 1329 106 1367 65 1401 47 L 1391 -4 L 1272 0 L 1133 -4 L 449 1028 L 313 219 C 309 194 307 174 307 160 C 307 122 320 95 347 79 C 373 63 421 55 489 55 L 479 -4 L 276 0 L 27 -4 L 39 55 C 103 56 146 68 168 90 C 190 112 207 159 221 231 L 379 1079 C 380 1087 381 1094 381 1102 C 381 1141 361 1179 323 1216 C 285 1253 217 1272 119 1272 L 131 1331 C 207 1328 269 1327 315 1327 L 516 1331 L 735 995 L 1225 258 L 1362 1092 C 1366 1124 1368 1150 1368 1169 C 1368 1203 1357 1229 1335 1246 C 1313 1263 1258 1272 1169 1272 L 1182 1331 L 1419 1327 L 1636 1331 L 1624 1272 Z M 1254 1756 C 1265 1756 1276 1751 1286 1743 C 1296 1734 1301 1725 1301 1715 C 1301 1673 1281 1633 1242 1594 C 1203 1555 1156 1536 1102 1536 C 1063 1536 1008 1560 937 1609 C 865 1657 817 1682 791 1682 C 779 1682 769 1677 760 1669 C 750 1661 746 1653 746 1645 C 746 1639 747 1632 750 1624 C 752 1616 754 1610 754 1604 C 754 1572 739 1557 711 1557 C 681 1557 666 1572 666 1604 C 666 1642 686 1681 726 1719 C 766 1757 809 1776 856 1776 C 886 1776 912 1770 936 1759 C 959 1748 999 1724 1056 1687 C 1113 1649 1156 1631 1186 1631 C 1209 1631 1221 1645 1221 1674 C 1221 1676 1219 1683 1217 1693 C 1214 1703 1213 1711 1213 1717 C 1213 1743 1226 1756 1254 1756 Z" unicode="" />
<glyph horiz-adv-x="1622" d="M 1587 743 C 1587 535 1506 353 1346 197 C 1185 41 999 -37 788 -37 C 586 -37 423 25 298 151 C 173 276 111 427 111 604 C 111 810 187 989 339 1139 C 491 1289 683 1364 915 1364 C 1122 1364 1286 1303 1406 1183 C 1526 1063 1587 916 1587 743 Z M 1333 764 C 1333 933 1294 1065 1217 1160 C 1140 1255 1043 1303 926 1303 C 753 1303 616 1230 516 1086 C 415 941 365 772 365 578 C 365 404 402 268 478 171 C 554 73 656 25 784 25 C 946 25 1078 98 1180 246 C 1282 394 1333 566 1333 764 Z M 1124 1452 L 1085 1432 L 803 1848 L 901 1897 L 1124 1452 Z" unicode="" />
<glyph horiz-adv-x="1622" d="M 1587 743 C 1587 535 1506 353 1346 197 C 1185 41 999 -37 788 -37 C 586 -37 423 25 298 151 C 173 276 111 427 111 604 C 111 810 187 989 339 1139 C 491 1289 683 1364 915 1364 C 1122 1364 1286 1303 1406 1183 C 1526 1063 1587 916 1587 743 Z M 1333 764 C 1333 933 1294 1065 1217 1160 C 1140 1255 1043 1303 926 1303 C 753 1303 616 1230 516 1086 C 415 941 365 772 365 578 C 365 404 402 268 478 171 C 554 73 656 25 784 25 C 946 25 1078 98 1180 246 C 1282 394 1333 566 1333 764 Z M 1147 1831 L 817 1432 L 782 1459 L 1059 1897 L 1147 1831 Z" unicode="" />
<glyph horiz-adv-x="1622" d="M 1587 743 C 1587 535 1506 353 1346 197 C 1185 41 999 -37 788 -37 C 586 -37 423 25 298 151 C 173 276 111 427 111 604 C 111 810 187 989 339 1139 C 491 1289 683 1364 915 1364 C 1122 1364 1286 1303 1406 1183 C 1526 1063 1587 916 1587 743 Z M 1333 764 C 1333 933 1294 1065 1217 1160 C 1140 1255 1043 1303 926 1303 C 753 1303 616 1230 516 1086 C 415 941 365 772 365 578 C 365 404 402 268 478 171 C 554 73 656 25 784 25 C 946 25 1078 98 1180 246 C 1282 394 1333 566 1333 764 Z M 1187 1452 L 1144 1442 L 1001 1686 L 730 1438 L 698 1469 L 1033 1878 L 1052 1878 L 1187 1452 Z" unicode="" />
<glyph horiz-adv-x="1622" d="M 1587 743 C 1587 535 1506 353 1346 197 C 1185 41 999 -37 788 -37 C 586 -37 423 25 298 151 C 173 276 111 427 111 604 C 111 810 187 989 339 1139 C 491 1289 683 1364 915 1364 C 1122 1364 1286 1303 1406 1183 C 1526 1063 1587 916 1587 743 Z M 1333 764 C 1333 933 1294 1065 1217 1160 C 1140 1255 1043 1303 926 1303 C 753 1303 616 1230 516 1086 C 415 941 365 772 365 578 C 365 404 402 268 478 171 C 554 73 656 25 784 25 C 946 25 1078 98 1180 246 C 1282 394 1333 566 1333 764 Z M 1254 1756 C 1265 1756 1276 1751 1286 1743 C 1296 1734 1301 1725 1301 1715 C 1301 1673 1281 1633 1242 1594 C 1203 1555 1156 1536 1102 1536 C 1063 1536 1008 1560 937 1609 C 865 1657 817 1682 791 1682 C 779 1682 769 1677 760 1669 C 750 1661 746 1653 746 1645 C 746 1639 747 1632 750 1624 C 752 1616 754 1610 754 1604 C 754 1572 739 1557 711 1557 C 681 1557 666 1572 666 1604 C 666 1642 686 1681 726 1719 C 766 1757 809 1776 856 1776 C 886 1776 912 1770 936 1759 C 959 1748 999 1724 1056 1687 C 1113 1649 1156 1631 1186 1631 C 1209 1631 1221 1645 1221 1674 C 1221 1676 1219 1683 1217 1693 C 1214 1703 1213 1711 1213 1717 C 1213 1743 1226 1756 1254 1756 Z" unicode="" />
<glyph horiz-adv-x="1622" d="M 1587 743 C 1587 535 1506 353 1346 197 C 1185 41 999 -37 788 -37 C 586 -37 423 25 298 151 C 173 276 111 427 111 604 C 111 810 187 989 339 1139 C 491 1289 683 1364 915 1364 C 1122 1364 1286 1303 1406 1183 C 1526 1063 1587 916 1587 743 Z M 1333 764 C 1333 933 1294 1065 1217 1160 C 1140 1255 1043 1303 926 1303 C 753 1303 616 1230 516 1086 C 415 941 365 772 365 578 C 365 404 402 268 478 171 C 554 73 656 25 784 25 C 946 25 1078 98 1180 246 C 1282 394 1333 566 1333 764 Z M 1204 1761 C 1236 1761 1262 1750 1283 1729 C 1304 1707 1315 1682 1315 1654 C 1315 1624 1304 1599 1283 1579 C 1262 1558 1237 1548 1209 1548 C 1179 1548 1153 1558 1133 1579 C 1112 1599 1102 1624 1102 1654 C 1102 1684 1112 1709 1133 1730 C 1154 1750 1178 1761 1204 1761 Z M 789 1761 C 820 1761 846 1750 867 1729 C 888 1707 899 1682 899 1654 C 899 1624 888 1599 867 1579 C 846 1558 821 1548 793 1548 C 763 1548 737 1558 717 1579 C 696 1599 686 1624 686 1654 C 686 1684 696 1709 717 1730 C 738 1750 762 1761 789 1761 Z" unicode="" />
<glyph horiz-adv-x="1366" d="M 1233 1063 L 836 666 L 1231 270 L 1120 160 L 725 555 L 330 160 L 219 270 L 614 666 L 217 1063 L 328 1174 L 725 776 L 1122 1174 L 1233 1063 Z" unicode="" />
<glyph horiz-adv-x="1622" d="M 1419 1171 C 1531 1055 1587 912 1587 743 C 1587 535 1506 353 1346 197 C 1185 41 999 -37 788 -37 C 612 -37 462 13 340 113 L 193 -33 L 139 16 L 287 162 C 169 285 111 432 111 604 C 111 810 187 989 339 1139 C 491 1289 683 1364 915 1364 C 1097 1364 1248 1316 1366 1221 L 1507 1360 L 1561 1311 L 1419 1171 Z M 1253 1110 C 1176 1238 1067 1303 926 1303 C 753 1303 616 1230 516 1086 C 415 941 365 772 365 578 C 365 462 381 365 414 285 L 1253 1110 Z M 446 217 C 522 89 634 25 784 25 C 946 25 1078 98 1180 246 C 1282 394 1333 566 1333 764 C 1333 867 1317 959 1286 1040 L 446 217 Z" unicode="" />
<glyph horiz-adv-x="1430" d="M 1569 1274 C 1509 1274 1468 1267 1448 1255 C 1428 1242 1413 1211 1405 1161 L 1276 424 C 1246 252 1185 132 1093 64 C 1001 -3 875 -37 713 -37 C 385 -37 221 86 221 332 C 221 361 223 387 227 410 L 354 1104 C 358 1125 360 1152 360 1184 C 360 1214 351 1237 335 1253 C 318 1268 267 1276 182 1276 L 195 1331 L 485 1327 L 795 1331 L 784 1274 C 709 1275 660 1267 636 1249 C 612 1231 594 1188 582 1118 L 465 461 C 455 403 451 358 451 326 C 451 142 557 51 770 51 C 887 51 980 79 1049 135 C 1118 191 1164 290 1188 430 L 1296 1090 C 1300 1120 1303 1141 1303 1151 C 1303 1192 1293 1223 1274 1243 C 1255 1263 1204 1274 1122 1276 L 1133 1331 L 1356 1327 L 1579 1331 L 1569 1274 Z M 1017 1452 L 978 1432 L 696 1848 L 794 1897 L 1017 1452 Z" unicode="" />
<glyph horiz-adv-x="1430" d="M 1569 1274 C 1509 1274 1468 1267 1448 1255 C 1428 1242 1413 1211 1405 1161 L 1276 424 C 1246 252 1185 132 1093 64 C 1001 -3 875 -37 713 -37 C 385 -37 221 86 221 332 C 221 361 223 387 227 410 L 354 1104 C 358 1125 360 1152 360 1184 C 360 1214 351 1237 335 1253 C 318 1268 267 1276 182 1276 L 195 1331 L 485 1327 L 795 1331 L 784 1274 C 709 1275 660 1267 636 1249 C 612 1231 594 1188 582 1118 L 465 461 C 455 403 451 358 451 326 C 451 142 557 51 770 51 C 887 51 980 79 1049 135 C 1118 191 1164 290 1188 430 L 1296 1090 C 1300 1120 1303 1141 1303 1151 C 1303 1192 1293 1223 1274 1243 C 1255 1263 1204 1274 1122 1276 L 1133 1331 L 1356 1327 L 1579 1331 L 1569 1274 Z M 1133 1831 L 803 1432 L 768 1459 L 1045 1897 L 1133 1831 Z" unicode="" />
<glyph horiz-adv-x="1430" d="M 1569 1274 C 1509 1274 1468 1267 1448 1255 C 1428 1242 1413 1211 1405 1161 L 1276 424 C 1246 252 1185 132 1093 64 C 1001 -3 875 -37 713 -37 C 385 -37 221 86 221 332 C 221 361 223 387 227 410 L 354 1104 C 358 1125 360 1152 360 1184 C 360 1214 351 1237 335 1253 C 318 1268 267 1276 182 1276 L 195 1331 L 485 1327 L 795 1331 L 784 1274 C 709 1275 660 1267 636 1249 C 612 1231 594 1188 582 1118 L 465 461 C 455 403 451 358 451 326 C 451 142 557 51 770 51 C 887 51 980 79 1049 135 C 1118 191 1164 290 1188 430 L 1296 1090 C 1300 1120 1303 1141 1303 1151 C 1303 1192 1293 1223 1274 1243 C 1255 1263 1204 1274 1122 1276 L 1133 1331 L 1356 1327 L 1579 1331 L 1569 1274 Z M 1101 1452 L 1058 1442 L 915 1686 L 644 1438 L 612 1469 L 947 1878 L 966 1878 L 1101 1452 Z" unicode="" />
<glyph horiz-adv-x="1430" d="M 1569 1274 C 1509 1274 1468 1267 1448 1255 C 1428 1242 1413 1211 1405 1161 L 1276 424 C 1246 252 1185 132 1093 64 C 1001 -3 875 -37 713 -37 C 385 -37 221 86 221 332 C 221 361 223 387 227 410 L 354 1104 C 358 1125 360 1152 360 1184 C 360 1214 351 1237 335 1253 C 318 1268 267 1276 182 1276 L 195 1331 L 485 1327 L 795 1331 L 784 1274 C 709 1275 660 1267 636 1249 C 612 1231 594 1188 582 1118 L 465 461 C 455 403 451 358 451 326 C 451 142 557 51 770 51 C 887 51 980 79 1049 135 C 1118 191 1164 290 1188 430 L 1296 1090 C 1300 1120 1303 1141 1303 1151 C 1303 1192 1293 1223 1274 1243 C 1255 1263 1204 1274 1122 1276 L 1133 1331 L 1356 1327 L 1579 1331 L 1569 1274 Z M 1118 1761 C 1150 1761 1176 1750 1197 1729 C 1218 1707 1229 1682 1229 1654 C 1229 1624 1218 1599 1197 1579 C 1176 1558 1151 1548 1123 1548 C 1093 1548 1067 1558 1047 1579 C 1026 1599 1016 1624 1016 1654 C 1016 1684 1026 1709 1047 1730 C 1068 1750 1092 1761 1118 1761 Z M 703 1761 C 734 1761 760 1750 781 1729 C 802 1707 813 1682 813 1654 C 813 1624 802 1599 781 1579 C 760 1558 735 1548 707 1548 C 677 1548 651 1558 631 1579 C 610 1599 600 1624 600 1654 C 600 1684 610 1709 631 1730 C 652 1750 676 1761 703 1761 Z" unicode="" />
<glyph horiz-adv-x="1430" d="M 1481 1272 C 1439 1270 1409 1265 1390 1256 C 1371 1246 1349 1223 1323 1186 L 885 565 L 815 170 C 812 153 811 137 811 123 C 811 97 822 80 846 70 C 869 60 917 55 991 55 L 981 -4 L 682 0 L 389 -4 L 397 55 C 471 56 518 63 540 76 C 561 88 576 120 586 170 L 651 539 L 393 1100 C 367 1155 338 1197 304 1227 C 270 1257 219 1272 152 1272 L 164 1331 L 451 1327 L 735 1331 L 723 1272 C 671 1270 637 1266 620 1259 C 602 1252 594 1239 594 1221 C 594 1201 600 1176 614 1147 L 848 639 L 1200 1169 C 1214 1189 1221 1208 1221 1225 C 1221 1243 1211 1255 1193 1261 C 1175 1267 1137 1271 1081 1272 L 1094 1331 L 1303 1327 L 1493 1331 L 1481 1272 Z M 1092 1831 L 762 1432 L 727 1459 L 1004 1897 L 1092 1831 Z" unicode="" />
<glyph horiz-adv-x="1087" d="M 547 1012 L 664 1012 C 778 1012 875 983 957 927 C 1038 871 1079 794 1079 698 C 1079 575 1030 481 932 415 C 834 349 705 317 547 317 L 430 317 L 406 180 C 402 162 401 145 401 127 C 401 101 412 83 436 73 C 459 63 504 57 571 55 L 561 -4 L 262 0 L 8 0 L 20 55 C 72 55 108 64 128 83 C 148 102 164 151 178 229 L 334 1130 C 336 1149 338 1173 338 1202 C 338 1248 302 1272 231 1272 L 162 1272 L 174 1331 L 467 1327 L 784 1331 L 770 1272 L 725 1272 C 675 1272 639 1263 617 1245 C 594 1227 577 1189 567 1130 L 547 1012 Z M 440 381 L 504 381 C 658 381 753 418 790 492 C 827 566 846 632 846 688 C 846 774 819 838 767 882 C 715 926 645 948 559 948 L 537 948 L 440 381 Z" unicode="" />
<glyph horiz-adv-x="1087" d="M -23 -428 C 14 -308 62 -70 121 287 C 179 645 223 871 252 966 C 281 1060 331 1146 402 1223 C 473 1299 552 1360 639 1404 C 725 1448 805 1470 877 1470 C 941 1470 995 1449 1037 1409 C 1079 1368 1100 1311 1100 1239 C 1100 1186 1088 1139 1066 1099 C 1043 1058 1001 1015 940 969 C 878 923 839 886 822 859 C 805 831 797 797 797 756 C 797 707 831 632 900 532 C 969 432 1004 356 1004 305 C 1004 237 958 164 868 86 C 777 8 692 -31 612 -31 C 568 -31 528 -19 493 3 C 457 26 440 54 440 86 C 440 109 452 133 478 159 C 503 184 524 197 541 197 C 548 197 561 186 580 166 C 626 110 671 82 715 82 C 751 82 778 93 798 117 C 817 140 827 169 827 205 C 827 253 792 324 723 416 C 635 530 592 620 592 688 C 592 718 600 749 618 780 C 636 811 688 860 774 927 C 860 993 903 1081 903 1190 C 903 1311 857 1372 766 1372 C 715 1372 663 1349 610 1305 C 556 1260 512 1168 476 1030 C 440 891 397 688 346 422 C 295 156 237 -109 172 -375 L -6 -440 L -23 -428 Z" unicode="" />
<glyph horiz-adv-x="981" d="M 772 807 L 803 877 C 817 912 848 930 895 930 C 934 930 954 916 954 889 C 954 888 918 770 848 535 C 778 300 743 172 743 152 C 743 131 751 121 768 121 C 790 121 838 165 911 254 L 946 227 C 884 148 819 85 752 39 C 685 -7 626 -31 575 -31 C 561 -31 548 -25 537 -14 C 525 -3 520 10 520 27 C 520 48 537 110 571 213 L 629 385 L 625 389 C 533 248 446 143 362 73 C 278 3 211 -31 162 -31 C 121 -31 89 -15 67 14 C 44 44 33 82 33 127 C 33 221 67 329 136 450 C 205 570 289 672 389 754 C 488 836 577 877 657 877 C 707 877 746 853 772 807 Z M 301 129 C 344 129 420 199 529 340 C 637 481 692 594 692 678 C 692 753 656 791 586 791 C 507 791 430 726 355 596 C 279 466 242 344 242 229 C 242 162 261 129 301 129 Z M 792 999 L 753 979 L 471 1395 L 569 1444 L 792 999 Z" unicode="" />
<glyph horiz-adv-x="981" d="M 772 807 L 803 877 C 817 912 848 930 895 930 C 934 930 954 916 954 889 C 954 888 918 770 848 535 C 778 300 743 172 743 152 C 743 131 751 121 768 121 C 790 121 838 165 911 254 L 946 227 C 884 148 819 85 752 39 C 685 -7 626 -31 575 -31 C 561 -31 548 -25 537 -14 C 525 -3 520 10 520 27 C 520 48 537 110 571 213 L 629 385 L 625 389 C 533 248 446 143 362 73 C 278 3 211 -31 162 -31 C 121 -31 89 -15 67 14 C 44 44 33 82 33 127 C 33 221 67 329 136 450 C 205 570 289 672 389 754 C 488 836 577 877 657 877 C 707 877 746 853 772 807 Z M 301 129 C 344 129 420 199 529 340 C 637 481 692 594 692 678 C 692 753 656 791 586 791 C 507 791 430 726 355 596 C 279 466 242 344 242 229 C 242 162 261 129 301 129 Z M 887 1378 L 557 979 L 522 1006 L 799 1444 L 887 1378 Z" unicode="" />
<glyph horiz-adv-x="981" d="M 772 807 L 803 877 C 817 912 848 930 895 930 C 934 930 954 916 954 889 C 954 888 918 770 848 535 C 778 300 743 172 743 152 C 743 131 751 121 768 121 C 790 121 838 165 911 254 L 946 227 C 884 148 819 85 752 39 C 685 -7 626 -31 575 -31 C 561 -31 548 -25 537 -14 C 525 -3 520 10 520 27 C 520 48 537 110 571 213 L 629 385 L 625 389 C 533 248 446 143 362 73 C 278 3 211 -31 162 -31 C 121 -31 89 -15 67 14 C 44 44 33 82 33 127 C 33 221 67 329 136 450 C 205 570 289 672 389 754 C 488 836 577 877 657 877 C 707 877 746 853 772 807 Z M 301 129 C 344 129 420 199 529 340 C 637 481 692 594 692 678 C 692 753 656 791 586 791 C 507 791 430 726 355 596 C 279 466 242 344 242 229 C 242 162 261 129 301 129 Z M 901 999 L 858 989 L 715 1233 L 444 985 L 412 1016 L 747 1425 L 766 1425 L 901 999 Z" unicode="" />
<glyph horiz-adv-x="981" d="M 772 807 L 803 877 C 817 912 848 930 895 930 C 934 930 954 916 954 889 C 954 888 918 770 848 535 C 778 300 743 172 743 152 C 743 131 751 121 768 121 C 790 121 838 165 911 254 L 946 227 C 884 148 819 85 752 39 C 685 -7 626 -31 575 -31 C 561 -31 548 -25 537 -14 C 525 -3 520 10 520 27 C 520 48 537 110 571 213 L 629 385 L 625 389 C 533 248 446 143 362 73 C 278 3 211 -31 162 -31 C 121 -31 89 -15 67 14 C 44 44 33 82 33 127 C 33 221 67 329 136 450 C 205 570 289 672 389 754 C 488 836 577 877 657 877 C 707 877 746 853 772 807 Z M 301 129 C 344 129 420 199 529 340 C 637 481 692 594 692 678 C 692 753 656 791 586 791 C 507 791 430 726 355 596 C 279 466 242 344 242 229 C 242 162 261 129 301 129 Z M 942 1303 C 953 1303 964 1298 974 1290 C 984 1281 989 1272 989 1262 C 989 1220 969 1180 930 1141 C 891 1102 844 1083 790 1083 C 751 1083 696 1107 625 1156 C 553 1204 505 1229 479 1229 C 467 1229 457 1224 448 1216 C 438 1208 434 1200 434 1192 C 434 1186 435 1179 438 1171 C 440 1163 442 1157 442 1151 C 442 1119 427 1104 399 1104 C 369 1104 354 1119 354 1151 C 354 1189 374 1228 414 1266 C 454 1304 497 1323 544 1323 C 574 1323 600 1317 624 1306 C 647 1295 687 1271 744 1234 C 801 1196 844 1178 874 1178 C 897 1178 909 1192 909 1221 C 909 1223 907 1230 905 1240 C 902 1250 901 1258 901 1264 C 901 1290 914 1303 942 1303 Z" unicode="" />
<glyph horiz-adv-x="981" d="M 772 807 L 803 877 C 817 912 848 930 895 930 C 934 930 954 916 954 889 C 954 888 918 770 848 535 C 778 300 743 172 743 152 C 743 131 751 121 768 121 C 790 121 838 165 911 254 L 946 227 C 884 148 819 85 752 39 C 685 -7 626 -31 575 -31 C 561 -31 548 -25 537 -14 C 525 -3 520 10 520 27 C 520 48 537 110 571 213 L 629 385 L 625 389 C 533 248 446 143 362 73 C 278 3 211 -31 162 -31 C 121 -31 89 -15 67 14 C 44 44 33 82 33 127 C 33 221 67 329 136 450 C 205 570 289 672 389 754 C 488 836 577 877 657 877 C 707 877 746 853 772 807 Z M 301 129 C 344 129 420 199 529 340 C 637 481 692 594 692 678 C 692 753 656 791 586 791 C 507 791 430 726 355 596 C 279 466 242 344 242 229 C 242 162 261 129 301 129 Z M 913 1309 C 945 1309 971 1298 992 1277 C 1013 1255 1024 1230 1024 1202 C 1024 1172 1013 1147 992 1127 C 971 1106 946 1096 918 1096 C 888 1096 862 1106 842 1127 C 821 1147 811 1172 811 1202 C 811 1232 821 1257 842 1278 C 863 1298 887 1309 913 1309 Z M 498 1309 C 529 1309 555 1298 576 1277 C 597 1255 608 1230 608 1202 C 608 1172 597 1147 576 1127 C 555 1106 530 1096 502 1096 C 472 1096 446 1106 426 1127 C 405 1147 395 1172 395 1202 C 395 1232 405 1257 426 1278 C 447 1298 471 1309 498 1309 Z" unicode="" />
<glyph horiz-adv-x="981" d="M 772 807 L 803 877 C 817 912 848 930 895 930 C 934 930 954 916 954 889 C 954 888 918 770 848 535 C 778 300 743 172 743 152 C 743 131 751 121 768 121 C 790 121 838 165 911 254 L 946 227 C 884 148 819 85 752 39 C 685 -7 626 -31 575 -31 C 561 -31 548 -25 537 -14 C 525 -3 520 10 520 27 C 520 48 537 110 571 213 L 629 385 L 625 389 C 533 248 446 143 362 73 C 278 3 211 -31 162 -31 C 121 -31 89 -15 67 14 C 44 44 33 82 33 127 C 33 221 67 329 136 450 C 205 570 289 672 389 754 C 488 836 577 877 657 877 C 707 877 746 853 772 807 Z M 301 129 C 344 129 420 199 529 340 C 637 481 692 594 692 678 C 692 753 656 791 586 791 C 507 791 430 726 355 596 C 279 466 242 344 242 229 C 242 162 261 129 301 129 Z M 758 1370 C 806 1370 847 1353 879 1320 C 911 1287 928 1248 928 1204 C 928 1158 911 1118 879 1086 C 847 1054 808 1038 762 1038 C 716 1038 677 1054 645 1086 C 612 1118 596 1158 596 1204 C 596 1250 612 1290 645 1322 C 678 1354 716 1370 758 1370 Z M 762 1096 C 792 1096 817 1106 839 1128 C 860 1149 871 1174 871 1204 C 871 1234 860 1260 838 1281 C 816 1302 792 1313 764 1313 C 732 1313 705 1302 685 1281 C 664 1259 654 1234 654 1204 C 654 1174 664 1149 686 1128 C 707 1106 732 1096 762 1096 Z" unicode="" />
<glyph horiz-adv-x="1430" d="M 973 805 C 1031 854 1110 879 1208 879 C 1258 879 1299 866 1332 841 C 1365 816 1382 784 1382 745 C 1382 655 1337 575 1248 505 C 1158 435 1016 390 821 371 C 809 320 803 278 803 246 C 803 124 839 63 913 63 C 1021 63 1140 124 1270 246 L 1300 213 C 1146 50 992 -31 840 -31 C 767 -31 706 -7 658 39 C 610 85 586 145 586 219 C 586 234 586 246 588 254 L 584 258 C 519 170 450 100 378 48 C 305 -4 245 -31 199 -31 C 151 -31 113 -15 87 14 C 60 44 47 86 47 139 C 47 292 119 449 263 611 C 407 773 542 854 670 854 C 722 854 765 837 799 805 L 852 911 C 913 925 961 934 995 938 L 1022 924 L 969 809 L 973 805 Z M 836 426 C 957 434 1047 471 1105 536 C 1163 601 1192 669 1192 741 C 1192 791 1175 817 1143 817 C 1091 817 1038 783 984 715 C 930 647 880 550 836 426 Z M 322 129 C 393 129 474 198 564 337 C 654 475 700 581 700 653 C 700 683 690 709 671 731 C 652 753 627 764 596 764 C 508 764 429 702 359 580 C 289 457 254 339 254 225 C 254 161 276 129 322 129 Z" unicode="" />
<glyph horiz-adv-x="874" d="M 332 -31 C 250 -31 189 -7 147 39 C 105 85 84 143 84 213 C 84 381 158 534 307 672 C 455 810 601 879 743 879 C 777 879 808 870 836 853 C 863 835 877 815 877 791 C 877 722 842 688 772 688 C 742 688 708 702 671 732 C 634 761 606 776 586 776 C 517 776 452 719 392 605 C 331 491 301 370 301 242 C 301 188 312 147 334 120 C 356 93 385 80 420 80 C 518 80 636 145 774 276 L 807 246 C 704 126 596 44 483 -2 C 459 -12 432 -28 401 -51 C 370 -73 354 -91 352 -103 C 350 -115 350 -129 350 -143 L 354 -250 C 354 -307 331 -351 286 -383 C 240 -414 196 -430 152 -430 C 80 -430 45 -413 45 -379 C 45 -353 59 -340 88 -340 C 92 -340 106 -347 131 -362 C 156 -377 170 -385 174 -385 C 209 -385 227 -362 227 -317 C 227 -310 223 -288 217 -252 C 210 -215 207 -194 207 -188 C 207 -168 213 -148 226 -130 C 239 -111 286 -77 367 -29 C 359 -30 347 -31 332 -31 Z" unicode="" />
<glyph horiz-adv-x="874" d="M 772 213 C 618 50 464 -31 311 -31 C 239 -31 178 -7 130 39 C 81 85 57 145 57 219 C 57 379 122 529 254 669 C 385 809 523 879 668 879 C 726 879 772 866 805 841 C 837 815 854 783 854 745 C 854 655 809 575 720 505 C 630 435 488 390 293 371 C 280 313 274 272 274 246 C 274 124 311 63 385 63 C 493 63 611 124 741 246 L 772 213 Z M 307 426 C 429 434 519 471 577 536 C 635 601 664 669 664 741 C 664 791 647 817 614 817 C 562 817 510 783 456 715 C 402 647 352 550 307 426 Z M 759 999 L 720 979 L 438 1395 L 536 1444 L 759 999 Z" unicode="" />
<glyph horiz-adv-x="874" d="M 772 213 C 618 50 464 -31 311 -31 C 239 -31 178 -7 130 39 C 81 85 57 145 57 219 C 57 379 122 529 254 669 C 385 809 523 879 668 879 C 726 879 772 866 805 841 C 837 815 854 783 854 745 C 854 655 809 575 720 505 C 630 435 488 390 293 371 C 280 313 274 272 274 246 C 274 124 311 63 385 63 C 493 63 611 124 741 246 L 772 213 Z M 307 426 C 429 434 519 471 577 536 C 635 601 664 669 664 741 C 664 791 647 817 614 817 C 562 817 510 783 456 715 C 402 647 352 550 307 426 Z M 814 1378 L 484 979 L 449 1006 L 726 1444 L 814 1378 Z" unicode="" />
<glyph horiz-adv-x="874" d="M 772 213 C 618 50 464 -31 311 -31 C 239 -31 178 -7 130 39 C 81 85 57 145 57 219 C 57 379 122 529 254 669 C 385 809 523 879 668 879 C 726 879 772 866 805 841 C 837 815 854 783 854 745 C 854 655 809 575 720 505 C 630 435 488 390 293 371 C 280 313 274 272 274 246 C 274 124 311 63 385 63 C 493 63 611 124 741 246 L 772 213 Z M 307 426 C 429 434 519 471 577 536 C 635 601 664 669 664 741 C 664 791 647 817 614 817 C 562 817 510 783 456 715 C 402 647 352 550 307 426 Z M 864 999 L 821 989 L 678 1233 L 407 985 L 375 1016 L 710 1425 L 729 1425 L 864 999 Z" unicode="" />
<glyph horiz-adv-x="874" d="M 772 213 C 618 50 464 -31 311 -31 C 239 -31 178 -7 130 39 C 81 85 57 145 57 219 C 57 379 122 529 254 669 C 385 809 523 879 668 879 C 726 879 772 866 805 841 C 837 815 854 783 854 745 C 854 655 809 575 720 505 C 630 435 488 390 293 371 C 280 313 274 272 274 246 C 274 124 311 63 385 63 C 493 63 611 124 741 246 L 772 213 Z M 307 426 C 429 434 519 471 577 536 C 635 601 664 669 664 741 C 664 791 647 817 614 817 C 562 817 510 783 456 715 C 402 647 352 550 307 426 Z M 840 1309 C 872 1309 898 1298 919 1277 C 940 1255 951 1230 951 1202 C 951 1172 940 1147 919 1127 C 898 1106 873 1096 845 1096 C 815 1096 789 1106 769 1127 C 748 1147 738 1172 738 1202 C 738 1232 748 1257 769 1278 C 790 1298 814 1309 840 1309 Z M 425 1309 C 456 1309 482 1298 503 1277 C 524 1255 535 1230 535 1202 C 535 1172 524 1147 503 1127 C 482 1106 457 1096 429 1096 C 399 1096 373 1106 353 1127 C 332 1147 322 1172 322 1202 C 322 1232 332 1257 353 1278 C 374 1298 398 1309 425 1309 Z" unicode="" />
<glyph horiz-adv-x="555" d="M 506 246 C 446 158 384 90 320 42 C 256 -6 197 -31 145 -31 C 121 -31 102 -23 86 -8 C 70 7 63 28 63 55 C 63 79 95 187 160 379 C 225 571 258 676 258 694 C 258 708 252 715 240 715 C 210 715 164 678 104 604 L 68 629 C 205 795 324 879 426 879 C 478 879 504 855 504 809 C 504 783 469 670 399 471 C 329 271 295 165 295 152 C 295 138 303 131 319 131 C 355 131 405 178 471 272 L 506 246 Z M 579 999 L 540 979 L 258 1395 L 356 1444 L 579 999 Z" unicode="" />
<glyph horiz-adv-x="555" d="M 506 246 C 446 158 384 90 320 42 C 256 -6 197 -31 145 -31 C 121 -31 102 -23 86 -8 C 70 7 63 28 63 55 C 63 79 95 187 160 379 C 225 571 258 676 258 694 C 258 708 252 715 240 715 C 210 715 164 678 104 604 L 68 629 C 205 795 324 879 426 879 C 478 879 504 855 504 809 C 504 783 469 670 399 471 C 329 271 295 165 295 152 C 295 138 303 131 319 131 C 355 131 405 178 471 272 L 506 246 Z M 654 1378 L 324 979 L 289 1006 L 566 1444 L 654 1378 Z" unicode="" />
<glyph horiz-adv-x="555" d="M 506 246 C 446 158 384 90 320 42 C 256 -6 197 -31 145 -31 C 121 -31 102 -23 86 -8 C 70 7 63 28 63 55 C 63 79 95 187 160 379 C 225 571 258 676 258 694 C 258 708 252 715 240 715 C 210 715 164 678 104 604 L 68 629 C 205 795 324 879 426 879 C 478 879 504 855 504 809 C 504 783 469 670 399 471 C 329 271 295 165 295 152 C 295 138 303 131 319 131 C 355 131 405 178 471 272 L 506 246 Z M 663 999 L 620 989 L 477 1233 L 206 985 L 174 1016 L 509 1425 L 528 1425 L 663 999 Z" unicode="" />
<glyph horiz-adv-x="555" d="M 506 246 C 446 158 384 90 320 42 C 256 -6 197 -31 145 -31 C 121 -31 102 -23 86 -8 C 70 7 63 28 63 55 C 63 79 95 187 160 379 C 225 571 258 676 258 694 C 258 708 252 715 240 715 C 210 715 164 678 104 604 L 68 629 C 205 795 324 879 426 879 C 478 879 504 855 504 809 C 504 783 469 670 399 471 C 329 271 295 165 295 152 C 295 138 303 131 319 131 C 355 131 405 178 471 272 L 506 246 Z M 680 1309 C 712 1309 738 1298 759 1277 C 780 1255 791 1230 791 1202 C 791 1172 780 1147 759 1127 C 738 1106 713 1096 685 1096 C 655 1096 629 1106 609 1127 C 588 1147 578 1172 578 1202 C 578 1232 588 1257 609 1278 C 630 1298 654 1309 680 1309 Z M 265 1309 C 296 1309 322 1298 343 1277 C 364 1255 375 1230 375 1202 C 375 1172 364 1147 343 1127 C 322 1106 297 1096 269 1096 C 239 1096 213 1106 193 1127 C 172 1147 162 1172 162 1202 C 162 1232 172 1257 193 1278 C 214 1298 238 1309 265 1309 Z" unicode="" />
<glyph horiz-adv-x="1087" d="M 1057 1430 L 823 1272 C 955 1132 1022 958 1022 750 C 1022 538 965 355 851 201 C 737 46 600 -31 440 -31 C 331 -31 245 -2 183 55 C 121 112 90 186 90 276 C 90 420 140 553 241 677 C 341 800 471 862 629 862 C 711 862 770 847 807 819 C 807 963 777 1088 717 1196 L 424 997 L 387 1044 L 684 1247 C 636 1315 578 1371 508 1417 L 547 1477 C 641 1424 718 1369 780 1313 L 1020 1477 L 1057 1430 Z M 455 31 C 540 31 617 90 685 209 C 753 328 788 459 788 602 C 788 663 774 711 746 747 C 718 783 677 801 625 801 C 532 801 455 742 394 625 C 333 507 303 369 303 211 C 303 153 317 109 345 78 C 373 46 409 31 455 31 Z" unicode="" />
<glyph horiz-adv-x="1087" d="M 1065 248 C 935 62 816 -31 707 -31 C 649 -31 621 -4 621 49 C 621 85 634 144 662 227 L 795 633 C 801 653 805 672 805 688 C 805 715 795 729 776 729 C 736 729 657 663 537 532 C 417 400 346 297 324 223 L 260 16 C 254 -2 222 -12 166 -12 C 124 -12 96 -10 84 -8 C 72 -5 66 1 66 12 C 66 33 86 103 127 223 L 227 516 C 255 596 270 652 270 684 C 270 706 261 717 244 717 C 207 717 150 663 72 557 L 41 586 C 179 781 304 879 416 879 C 440 879 459 871 473 857 C 487 843 494 828 494 813 C 494 742 463 628 401 471 L 406 467 L 475 547 C 669 768 820 879 930 879 C 996 879 1030 842 1030 770 C 1030 744 1019 701 999 641 L 887 311 C 859 229 846 175 846 150 C 846 128 853 117 868 117 C 896 117 950 168 1028 272 L 1065 248 Z M 996 1303 C 1007 1303 1018 1298 1028 1290 C 1038 1281 1043 1272 1043 1262 C 1043 1220 1023 1180 984 1141 C 945 1102 898 1083 844 1083 C 805 1083 750 1107 679 1156 C 607 1204 559 1229 533 1229 C 521 1229 511 1224 502 1216 C 492 1208 488 1200 488 1192 C 488 1186 489 1179 492 1171 C 494 1163 496 1157 496 1151 C 496 1119 481 1104 453 1104 C 423 1104 408 1119 408 1151 C 408 1189 428 1228 468 1266 C 508 1304 551 1323 598 1323 C 628 1323 654 1317 678 1306 C 701 1295 741 1271 798 1234 C 855 1196 898 1178 928 1178 C 951 1178 963 1192 963 1221 C 963 1223 961 1230 959 1240 C 956 1250 955 1258 955 1264 C 955 1290 968 1303 996 1303 Z" unicode="" />
<glyph horiz-adv-x="1087" d="M 592 879 C 720 879 820 846 890 780 C 960 714 995 622 995 504 C 995 357 943 231 841 126 C 738 21 609 -31 453 -31 C 345 -31 256 5 187 77 C 118 149 84 244 84 360 C 84 498 135 619 237 723 C 339 827 458 879 592 879 Z M 467 31 C 553 31 626 88 687 202 C 747 316 778 431 778 547 C 778 641 764 709 737 752 C 710 795 666 817 606 817 C 519 817 446 762 388 654 C 330 546 301 427 301 297 C 301 119 356 31 467 31 Z M 804 999 L 765 979 L 483 1395 L 581 1444 L 804 999 Z" unicode="" />
<glyph horiz-adv-x="1087" d="M 592 879 C 720 879 820 846 890 780 C 960 714 995 622 995 504 C 995 357 943 231 841 126 C 738 21 609 -31 453 -31 C 345 -31 256 5 187 77 C 118 149 84 244 84 360 C 84 498 135 619 237 723 C 339 827 458 879 592 879 Z M 467 31 C 553 31 626 88 687 202 C 747 316 778 431 778 547 C 778 641 764 709 737 752 C 710 795 666 817 606 817 C 519 817 446 762 388 654 C 330 546 301 427 301 297 C 301 119 356 31 467 31 Z M 920 1378 L 590 979 L 555 1006 L 832 1444 L 920 1378 Z" unicode="" />
<glyph horiz-adv-x="1087" d="M 592 879 C 720 879 820 846 890 780 C 960 714 995 622 995 504 C 995 357 943 231 841 126 C 738 21 609 -31 453 -31 C 345 -31 256 5 187 77 C 118 149 84 244 84 360 C 84 498 135 619 237 723 C 339 827 458 879 592 879 Z M 467 31 C 553 31 626 88 687 202 C 747 316 778 431 778 547 C 778 641 764 709 737 752 C 710 795 666 817 606 817 C 519 817 446 762 388 654 C 330 546 301 427 301 297 C 301 119 356 31 467 31 Z M 888 999 L 845 989 L 702 1233 L 431 985 L 399 1016 L 734 1425 L 753 1425 L 888 999 Z" unicode="" />
<glyph horiz-adv-x="1087" d="M 592 879 C 720 879 820 846 890 780 C 960 714 995 622 995 504 C 995 357 943 231 841 126 C 738 21 609 -31 453 -31 C 345 -31 256 5 187 77 C 118 149 84 244 84 360 C 84 498 135 619 237 723 C 339 827 458 879 592 879 Z M 467 31 C 553 31 626 88 687 202 C 747 316 778 431 778 547 C 778 641 764 709 737 752 C 710 795 666 817 606 817 C 519 817 446 762 388 654 C 330 546 301 427 301 297 C 301 119 356 31 467 31 Z M 996 1303 C 1007 1303 1018 1298 1028 1290 C 1038 1281 1043 1272 1043 1262 C 1043 1220 1023 1180 984 1141 C 945 1102 898 1083 844 1083 C 805 1083 750 1107 679 1156 C 607 1204 559 1229 533 1229 C 521 1229 511 1224 502 1216 C 492 1208 488 1200 488 1192 C 488 1186 489 1179 492 1171 C 494 1163 496 1157 496 1151 C 496 1119 481 1104 453 1104 C 423 1104 408 1119 408 1151 C 408 1189 428 1228 468 1266 C 508 1304 551 1323 598 1323 C 628 1323 654 1317 678 1306 C 701 1295 741 1271 798 1234 C 855 1196 898 1178 928 1178 C 951 1178 963 1192 963 1221 C 963 1223 961 1230 959 1240 C 956 1250 955 1258 955 1264 C 955 1290 968 1303 996 1303 Z" unicode="" />
<glyph horiz-adv-x="1087" d="M 592 879 C 720 879 820 846 890 780 C 960 714 995 622 995 504 C 995 357 943 231 841 126 C 738 21 609 -31 453 -31 C 345 -31 256 5 187 77 C 118 149 84 244 84 360 C 84 498 135 619 237 723 C 339 827 458 879 592 879 Z M 467 31 C 553 31 626 88 687 202 C 747 316 778 431 778 547 C 778 641 764 709 737 752 C 710 795 666 817 606 817 C 519 817 446 762 388 654 C 330 546 301 427 301 297 C 301 119 356 31 467 31 Z M 905 1309 C 937 1309 963 1298 984 1277 C 1005 1255 1016 1230 1016 1202 C 1016 1172 1005 1147 984 1127 C 963 1106 938 1096 910 1096 C 880 1096 854 1106 834 1127 C 813 1147 803 1172 803 1202 C 803 1232 813 1257 834 1278 C 855 1298 879 1309 905 1309 Z M 490 1309 C 521 1309 547 1298 568 1277 C 589 1255 600 1230 600 1202 C 600 1172 589 1147 568 1127 C 547 1106 522 1096 494 1096 C 464 1096 438 1106 418 1127 C 397 1147 387 1172 387 1202 C 387 1232 397 1257 418 1278 C 439 1298 463 1309 490 1309 Z" unicode="" />
<glyph horiz-adv-x="1366" d="M 725 1184 C 751 1184 774 1174 794 1154 C 813 1134 823 1111 823 1085 C 823 1058 813 1035 794 1016 C 774 996 751 987 725 987 C 698 987 675 996 656 1016 C 636 1035 627 1058 627 1085 C 627 1111 636 1134 656 1154 C 675 1174 698 1184 725 1184 Z M 1272 588 L 176 588 L 176 745 L 1272 745 L 1272 588 Z M 725 346 C 751 346 774 336 794 317 C 813 297 823 274 823 248 C 823 220 813 197 794 178 C 774 159 751 150 725 150 C 698 150 675 159 656 178 C 636 197 627 220 627 248 C 627 274 636 297 656 317 C 675 336 698 346 725 346 Z" unicode="" />
<glyph horiz-adv-x="1087" d="M 1014 844 L 920 750 C 970 686 995 604 995 504 C 995 357 943 231 841 126 C 738 21 609 -31 453 -31 C 360 -31 281 -3 215 51 L 115 -49 L 68 -6 L 170 96 C 112 166 84 254 84 360 C 84 498 135 619 237 723 C 339 827 458 879 592 879 C 710 879 804 851 874 795 L 967 887 L 1014 844 Z M 764 686 C 744 773 692 817 606 817 C 519 817 446 762 388 654 C 330 546 301 427 301 297 C 301 264 302 241 305 229 L 764 686 Z M 317 154 C 341 72 391 31 467 31 C 553 31 626 88 687 202 C 747 316 778 431 778 547 C 778 575 777 596 776 608 L 317 154 Z" unicode="" />
<glyph horiz-adv-x="1087" d="M 1081 233 C 941 57 810 -31 688 -31 C 667 -31 649 -23 633 -8 C 617 6 610 25 610 49 C 610 93 661 253 764 530 L 760 535 C 651 375 544 241 440 132 C 335 23 237 -31 145 -31 C 118 -31 96 -22 78 -5 C 60 12 51 36 51 66 C 51 101 83 207 147 383 C 211 559 244 662 244 690 C 244 713 237 725 223 725 C 186 725 130 674 55 573 L 18 598 C 75 681 139 749 209 801 C 279 853 341 879 395 879 C 452 879 481 855 481 809 C 481 771 446 656 378 466 C 310 275 276 169 276 147 C 276 124 287 113 309 113 C 348 113 436 199 574 371 C 711 543 808 697 866 834 C 878 864 892 879 909 879 C 935 879 967 871 1006 856 C 1045 841 1065 827 1065 815 C 1065 813 1062 805 1057 791 L 997 637 C 974 579 942 488 902 365 C 862 242 842 169 842 145 C 842 123 852 113 874 113 C 906 113 965 163 1051 264 L 1081 233 Z M 845 999 L 806 979 L 524 1395 L 622 1444 L 845 999 Z" unicode="" />
<glyph horiz-adv-x="1087" d="M 1081 233 C 941 57 810 -31 688 -31 C 667 -31 649 -23 633 -8 C 617 6 610 25 610 49 C 610 93 661 253 764 530 L 760 535 C 651 375 544 241 440 132 C 335 23 237 -31 145 -31 C 118 -31 96 -22 78 -5 C 60 12 51 36 51 66 C 51 101 83 207 147 383 C 211 559 244 662 244 690 C 244 713 237 725 223 725 C 186 725 130 674 55 573 L 18 598 C 75 681 139 749 209 801 C 279 853 341 879 395 879 C 452 879 481 855 481 809 C 481 771 446 656 378 466 C 310 275 276 169 276 147 C 276 124 287 113 309 113 C 348 113 436 199 574 371 C 711 543 808 697 866 834 C 878 864 892 879 909 879 C 935 879 967 871 1006 856 C 1045 841 1065 827 1065 815 C 1065 813 1062 805 1057 791 L 997 637 C 974 579 942 488 902 365 C 862 242 842 169 842 145 C 842 123 852 113 874 113 C 906 113 965 163 1051 264 L 1081 233 Z M 961 1378 L 631 979 L 596 1006 L 873 1444 L 961 1378 Z" unicode="" />
<glyph horiz-adv-x="1087" d="M 1081 233 C 941 57 810 -31 688 -31 C 667 -31 649 -23 633 -8 C 617 6 610 25 610 49 C 610 93 661 253 764 530 L 760 535 C 651 375 544 241 440 132 C 335 23 237 -31 145 -31 C 118 -31 96 -22 78 -5 C 60 12 51 36 51 66 C 51 101 83 207 147 383 C 211 559 244 662 244 690 C 244 713 237 725 223 725 C 186 725 130 674 55 573 L 18 598 C 75 681 139 749 209 801 C 279 853 341 879 395 879 C 452 879 481 855 481 809 C 481 771 446 656 378 466 C 310 275 276 169 276 147 C 276 124 287 113 309 113 C 348 113 436 199 574 371 C 711 543 808 697 866 834 C 878 864 892 879 909 879 C 935 879 967 871 1006 856 C 1045 841 1065 827 1065 815 C 1065 813 1062 805 1057 791 L 997 637 C 974 579 942 488 902 365 C 862 242 842 169 842 145 C 842 123 852 113 874 113 C 906 113 965 163 1051 264 L 1081 233 Z M 929 999 L 886 989 L 743 1233 L 472 985 L 440 1016 L 775 1425 L 794 1425 L 929 999 Z" unicode="" />
<glyph horiz-adv-x="1087" d="M 1081 233 C 941 57 810 -31 688 -31 C 667 -31 649 -23 633 -8 C 617 6 610 25 610 49 C 610 93 661 253 764 530 L 760 535 C 651 375 544 241 440 132 C 335 23 237 -31 145 -31 C 118 -31 96 -22 78 -5 C 60 12 51 36 51 66 C 51 101 83 207 147 383 C 211 559 244 662 244 690 C 244 713 237 725 223 725 C 186 725 130 674 55 573 L 18 598 C 75 681 139 749 209 801 C 279 853 341 879 395 879 C 452 879 481 855 481 809 C 481 771 446 656 378 466 C 310 275 276 169 276 147 C 276 124 287 113 309 113 C 348 113 436 199 574 371 C 711 543 808 697 866 834 C 878 864 892 879 909 879 C 935 879 967 871 1006 856 C 1045 841 1065 827 1065 815 C 1065 813 1062 805 1057 791 L 997 637 C 974 579 942 488 902 365 C 862 242 842 169 842 145 C 842 123 852 113 874 113 C 906 113 965 163 1051 264 L 1081 233 Z M 946 1309 C 978 1309 1004 1298 1025 1277 C 1046 1255 1057 1230 1057 1202 C 1057 1172 1046 1147 1025 1127 C 1004 1106 979 1096 951 1096 C 921 1096 895 1106 875 1127 C 854 1147 844 1172 844 1202 C 844 1232 854 1257 875 1278 C 896 1298 920 1309 946 1309 Z M 531 1309 C 562 1309 588 1298 609 1277 C 630 1255 641 1230 641 1202 C 641 1172 630 1147 609 1127 C 588 1106 563 1096 535 1096 C 505 1096 479 1106 459 1127 C 438 1147 428 1172 428 1202 C 428 1232 438 1257 459 1278 C 480 1298 504 1309 531 1309 Z" unicode="" />
<glyph horiz-adv-x="981" d="M 614 145 C 737 338 799 491 799 604 C 799 612 794 636 784 677 C 774 717 770 741 770 748 C 770 789 780 821 802 844 C 823 867 851 879 887 879 C 919 879 944 868 964 846 C 983 824 993 797 993 766 C 993 676 924 517 786 289 C 648 61 512 -115 380 -239 C 248 -363 142 -426 63 -426 C -1 -426 -33 -396 -33 -336 C -33 -309 -25 -288 -9 -272 C 6 -256 25 -248 47 -248 C 51 -248 64 -249 85 -251 C 105 -253 117 -254 121 -254 C 149 -254 177 -251 204 -245 C 231 -239 259 -229 288 -214 C 316 -199 350 -174 389 -139 C 427 -103 447 -80 449 -68 C 450 -56 451 -41 451 -23 C 451 83 416 238 346 440 C 276 642 206 743 137 743 C 118 743 102 733 90 715 C 78 697 72 673 72 643 C 72 628 74 614 80 600 L 68 590 L 16 612 C 16 693 38 758 82 806 C 126 854 176 879 231 879 C 296 879 352 848 399 788 C 446 728 490 633 531 504 C 571 374 598 255 610 145 L 614 145 Z M 846 1378 L 516 979 L 481 1006 L 758 1444 L 846 1378 Z" unicode="" />
<glyph horiz-adv-x="1087" d="M 365 541 C 513 766 659 879 803 879 C 867 879 919 857 957 814 C 995 770 1014 714 1014 645 C 1014 481 943 328 803 184 C 662 40 520 -31 377 -31 C 325 -31 279 -12 240 25 L 143 -348 L 287 -381 L 276 -418 L -82 -440 L 367 1339 L 285 1391 L 293 1421 L 606 1477 C 614 1477 618 1472 618 1464 C 618 1460 616 1452 612 1438 L 360 545 L 365 541 Z M 373 31 C 463 31 557 106 656 258 C 755 410 805 548 805 672 C 805 749 781 788 735 788 C 655 788 559 710 447 555 C 335 399 279 269 279 164 C 279 75 310 31 373 31 Z" unicode="" />
<glyph horiz-adv-x="981" d="M 614 145 C 737 338 799 491 799 604 C 799 612 794 636 784 677 C 774 717 770 741 770 748 C 770 789 780 821 802 844 C 823 867 851 879 887 879 C 919 879 944 868 964 846 C 983 824 993 797 993 766 C 993 676 924 517 786 289 C 648 61 512 -115 380 -239 C 248 -363 142 -426 63 -426 C -1 -426 -33 -396 -33 -336 C -33 -309 -25 -288 -9 -272 C 6 -256 25 -248 47 -248 C 51 -248 64 -249 85 -251 C 105 -253 117 -254 121 -254 C 149 -254 177 -251 204 -245 C 231 -239 259 -229 288 -214 C 316 -199 350 -174 389 -139 C 427 -103 447 -80 449 -68 C 450 -56 451 -41 451 -23 C 451 83 416 238 346 440 C 276 642 206 743 137 743 C 118 743 102 733 90 715 C 78 697 72 673 72 643 C 72 628 74 614 80 600 L 68 590 L 16 612 C 16 693 38 758 82 806 C 126 854 176 879 231 879 C 296 879 352 848 399 788 C 446 728 490 633 531 504 C 571 374 598 255 610 145 L 614 145 Z M 831 1309 C 863 1309 889 1298 910 1277 C 931 1255 942 1230 942 1202 C 942 1172 931 1147 910 1127 C 889 1106 864 1096 836 1096 C 806 1096 780 1106 760 1127 C 739 1147 729 1172 729 1202 C 729 1232 739 1257 760 1278 C 781 1298 805 1309 831 1309 Z M 416 1309 C 447 1309 473 1298 494 1277 C 515 1255 526 1230 526 1202 C 526 1172 515 1147 494 1127 C 473 1106 448 1096 420 1096 C 390 1096 364 1106 344 1127 C 323 1147 313 1172 313 1202 C 313 1232 323 1257 344 1278 C 365 1298 389 1309 416 1309 Z" unicode="" />
<glyph horiz-adv-x="555" d="M 506 246 C 446 158 384 90 320 42 C 256 -6 197 -31 145 -31 C 121 -31 102 -23 86 -8 C 70 7 63 28 63 55 C 63 79 95 187 160 379 C 225 571 258 676 258 694 C 258 708 252 715 240 715 C 210 715 164 678 104 604 L 68 629 C 205 795 324 879 426 879 C 478 879 504 855 504 809 C 504 783 469 670 399 471 C 329 271 295 165 295 152 C 295 138 303 131 319 131 C 355 131 405 178 471 272 L 506 246 Z" unicode="" />
<glyph horiz-adv-x="1194" d="M 1169 322 C 1134 182 1101 73 1071 -4 C 966 -1 799 0 571 0 C 452 0 273 -1 35 -4 L 47 55 C 107 55 149 65 172 87 C 194 108 211 145 221 199 L 285 541 L 51 356 L 68 461 L 303 647 L 377 1044 L 390 1126 C 394 1156 397 1181 397 1200 C 397 1230 384 1250 358 1258 C 332 1266 288 1270 225 1272 L 236 1331 L 506 1327 L 827 1331 L 815 1272 C 745 1272 698 1263 674 1245 C 649 1226 631 1186 621 1126 L 571 860 L 932 1145 L 920 1047 L 553 756 L 426 63 L 682 63 C 804 63 900 81 971 119 C 1041 157 1090 224 1116 322 L 1169 322 Z" unicode="" />
<glyph horiz-adv-x="555" d="M 602 934 L 428 807 L 270 166 C 268 160 268 154 268 150 C 268 126 278 115 299 115 C 329 115 398 173 506 289 L 539 258 C 379 65 247 -31 143 -31 C 115 -31 92 -23 74 -9 C 56 5 47 23 47 43 C 47 62 50 86 57 115 L 180 625 L 8 500 L 8 571 L 201 713 L 348 1329 L 246 1391 L 254 1421 C 318 1428 394 1440 481 1458 L 573 1477 C 583 1479 588 1475 588 1464 C 588 1457 587 1451 586 1446 L 451 897 L 602 1008 L 602 934 Z" unicode="" />
<glyph horiz-adv-x="1962" d="M 1931 311 L 1845 -4 C 1743 -1 1564 0 1307 0 C 1129 0 1004 -6 930 -18 C 856 -30 795 -37 745 -37 C 551 -37 396 24 282 147 C 168 269 111 426 111 616 C 111 816 184 990 331 1140 C 477 1289 680 1364 938 1364 C 974 1364 1044 1357 1150 1345 C 1256 1333 1332 1327 1378 1327 L 1931 1331 L 1913 1067 L 1864 1067 C 1864 1121 1858 1160 1848 1185 C 1837 1210 1808 1229 1762 1243 C 1715 1257 1638 1264 1532 1264 C 1504 1264 1463 1262 1411 1260 L 1315 741 L 1462 741 C 1531 741 1581 752 1612 776 C 1643 800 1667 845 1683 911 L 1737 911 C 1705 750 1681 609 1663 487 L 1610 487 L 1614 580 C 1614 612 1607 634 1595 645 C 1582 656 1553 662 1507 662 L 1303 662 L 1221 217 C 1218 197 1217 178 1217 160 C 1217 120 1227 94 1248 82 C 1269 69 1307 63 1362 63 C 1526 63 1629 65 1671 71 C 1713 76 1752 100 1788 142 C 1823 184 1853 240 1878 309 L 1931 311 Z M 1145 1059 C 1154 1092 1159 1130 1159 1174 C 1159 1258 1078 1300 918 1300 C 744 1300 609 1234 511 1102 C 413 970 365 807 365 612 C 365 222 504 27 782 27 C 829 27 872 40 912 68 C 952 95 977 136 987 190 L 1145 1059 Z" unicode="" />
<glyph horiz-adv-x="1536" d="M 926 686 C 1062 814 1201 879 1341 879 C 1391 879 1432 866 1466 841 C 1499 816 1516 784 1516 745 C 1516 655 1471 575 1381 505 C 1291 435 1149 390 954 371 C 942 320 936 278 936 246 C 936 124 973 63 1047 63 C 1154 63 1273 124 1403 246 L 1434 213 C 1279 50 1125 -31 973 -31 C 869 -31 796 9 756 90 C 728 55 685 26 627 3 C 569 -19 507 -31 442 -31 C 334 -31 245 3 175 73 C 105 143 70 232 70 342 C 70 491 121 618 225 722 C 328 826 446 879 580 879 C 754 879 870 814 926 686 Z M 969 426 C 1090 434 1180 471 1238 536 C 1296 601 1325 669 1325 741 C 1325 791 1308 817 1276 817 C 1224 817 1171 783 1117 715 C 1063 647 1013 550 969 426 Z M 449 31 C 545 31 623 91 681 211 C 739 331 768 454 768 580 C 768 655 751 713 719 755 C 687 796 644 817 592 817 C 508 817 437 763 377 655 C 317 547 287 418 287 268 C 287 192 301 133 330 92 C 359 51 399 31 449 31 Z" unicode="" />
<glyph horiz-adv-x="981" d="M 965 1339 L 907 983 L 850 985 C 852 1005 854 1035 854 1075 C 854 1141 834 1195 795 1237 C 755 1279 699 1300 627 1300 C 573 1300 526 1279 487 1237 C 447 1195 428 1141 428 1073 C 428 1033 437 994 457 955 C 476 916 535 853 633 766 C 731 679 800 605 839 544 C 877 482 897 416 897 344 C 897 242 853 153 766 77 C 678 1 570 -37 442 -37 C 348 -37 257 -11 170 39 L 92 -18 L 45 -18 L 96 375 L 152 373 C 147 258 173 172 229 115 C 285 57 355 29 438 29 C 512 29 571 50 613 93 C 655 136 676 195 676 270 C 676 328 659 381 626 429 C 593 477 532 542 443 624 C 353 706 294 774 265 830 C 235 886 221 942 221 999 C 221 1104 259 1191 335 1260 C 411 1329 509 1364 631 1364 C 677 1364 722 1356 768 1342 C 813 1328 849 1321 877 1321 C 888 1321 902 1327 918 1339 L 965 1339 Z M 1007 1862 L 657 1438 L 518 1872 L 559 1889 L 702 1641 L 972 1889 L 1007 1862 Z" unicode="" />
<glyph horiz-adv-x="768" d="M 92 262 C 119 214 160 175 214 146 C 268 116 323 102 379 102 C 425 102 461 108 487 122 C 513 136 526 152 526 170 C 526 205 513 235 489 261 C 465 287 416 323 343 370 C 269 417 221 452 199 476 C 177 500 166 533 166 575 C 166 631 212 695 304 769 C 396 842 484 879 567 879 C 613 879 655 870 692 854 C 729 837 748 814 748 784 C 748 762 741 737 727 709 C 713 681 698 668 684 668 C 673 668 643 680 594 705 C 544 730 499 743 459 743 C 418 743 384 735 358 721 C 332 706 319 690 319 674 C 319 644 329 620 350 601 C 370 582 417 550 491 504 C 565 458 612 418 633 385 C 653 352 664 318 664 283 C 664 213 624 143 546 73 C 468 3 374 -31 266 -31 C 201 -31 145 -16 97 13 C 49 43 25 80 25 125 C 25 157 32 188 46 218 C 60 247 76 262 92 262 Z M 901 1409 L 551 985 L 412 1419 L 453 1436 L 596 1188 L 866 1436 L 901 1409 Z" unicode="" />
<glyph horiz-adv-x="1430" d="M 1481 1272 C 1439 1270 1409 1265 1390 1256 C 1371 1246 1349 1223 1323 1186 L 885 565 L 815 170 C 812 153 811 137 811 123 C 811 97 822 80 846 70 C 869 60 917 55 991 55 L 981 -4 L 682 0 L 389 -4 L 397 55 C 471 56 518 63 540 76 C 561 88 576 120 586 170 L 651 539 L 393 1100 C 367 1155 338 1197 304 1227 C 270 1257 219 1272 152 1272 L 164 1331 L 451 1327 L 735 1331 L 723 1272 C 671 1270 637 1266 620 1259 C 602 1252 594 1239 594 1221 C 594 1201 600 1176 614 1147 L 848 639 L 1200 1169 C 1214 1189 1221 1208 1221 1225 C 1221 1243 1211 1255 1193 1261 C 1175 1267 1137 1271 1081 1272 L 1094 1331 L 1303 1327 L 1493 1331 L 1481 1272 Z M 1118 1761 C 1150 1761 1176 1750 1197 1729 C 1218 1707 1229 1682 1229 1654 C 1229 1624 1218 1599 1197 1579 C 1176 1558 1151 1548 1123 1548 C 1093 1548 1067 1558 1047 1579 C 1026 1599 1016 1624 1016 1654 C 1016 1684 1026 1709 1047 1730 C 1068 1750 1092 1761 1118 1761 Z M 703 1761 C 734 1761 760 1750 781 1729 C 802 1707 813 1682 813 1654 C 813 1624 802 1599 781 1579 C 760 1558 735 1548 707 1548 C 677 1548 651 1558 631 1579 C 610 1599 600 1624 600 1654 C 600 1684 610 1709 631 1730 C 652 1750 676 1761 703 1761 Z" unicode="" />
<glyph horiz-adv-x="1430" d="M 1393 1282 L 436 90 L 1001 90 C 1147 90 1245 175 1294 346 L 1354 346 L 1260 0 L 78 0 L 1083 1249 L 573 1249 C 452 1249 365 1175 313 1028 L 258 1028 L 346 1327 L 1393 1327 L 1393 1282 Z M 1253 1862 L 903 1438 L 764 1872 L 805 1889 L 948 1641 L 1218 1889 L 1253 1862 Z" unicode="" />
<glyph horiz-adv-x="874" d="M 641 627 C 588 627 523 641 446 671 C 369 700 318 715 293 715 C 271 715 253 709 238 699 C 222 688 215 676 215 664 C 215 660 217 650 221 636 C 225 621 227 612 227 610 C 227 572 207 553 168 553 C 128 553 109 576 109 623 C 109 655 145 705 218 775 C 290 844 353 879 406 879 C 430 879 468 868 518 847 C 568 826 616 810 660 799 C 704 787 736 782 758 782 C 782 782 795 789 795 803 C 795 807 792 815 787 825 C 782 835 780 843 780 848 C 780 864 786 877 798 888 C 810 899 824 905 842 905 C 877 905 895 888 895 854 C 895 789 852 722 766 654 L 268 250 C 334 246 410 209 496 139 C 582 68 648 33 696 33 C 753 33 782 47 782 76 C 782 87 772 101 754 117 C 736 133 727 152 727 172 C 727 186 732 199 744 209 C 756 219 770 225 786 225 C 806 225 823 215 836 195 C 849 175 856 155 856 133 C 856 82 825 26 763 -36 C 701 -98 642 -129 588 -129 C 555 -129 525 -122 499 -110 C 473 -98 421 -60 343 1 C 265 63 218 100 200 111 C 182 121 167 127 154 127 C 143 127 132 122 122 112 C 111 102 106 92 106 82 C 106 74 109 65 116 54 C 123 42 127 33 127 25 C 127 -12 105 -31 61 -31 C 21 -31 2 -9 2 35 C 2 87 56 156 166 241 C 276 326 434 455 641 627 Z M 913 1409 L 563 985 L 424 1419 L 465 1436 L 608 1188 L 878 1436 L 913 1409 Z" unicode="" />
<glyph horiz-adv-x="1300" d="M 637 862 L 659 948 C 697 1094 773 1219 886 1322 C 998 1425 1104 1477 1204 1477 C 1268 1477 1300 1451 1300 1401 C 1300 1362 1287 1328 1262 1300 C 1237 1271 1205 1257 1165 1257 C 1141 1257 1123 1272 1111 1304 C 1098 1336 1080 1352 1057 1352 C 1027 1352 1000 1336 977 1304 C 953 1272 936 1236 926 1196 L 834 848 L 1069 848 L 1044 758 L 811 758 L 633 90 C 594 -56 519 -180 409 -283 C 299 -386 194 -438 96 -438 C 32 -438 0 -412 0 -360 C 0 -322 12 -289 38 -261 C 63 -233 95 -219 135 -219 C 159 -219 176 -234 188 -265 C 200 -295 219 -311 246 -311 C 298 -311 339 -259 367 -156 L 608 758 L 475 758 L 483 788 L 637 862 Z" unicode="" />
<glyph horiz-adv-x="682" d="M 727 999 L 684 989 L 541 1233 L 270 985 L 238 1016 L 573 1425 L 592 1425 L 727 999 Z" unicode="" />
<glyph horiz-adv-x="682" d="M 858 1409 L 508 985 L 369 1419 L 410 1436 L 553 1188 L 823 1436 L 858 1409 Z" unicode="" />
<glyph horiz-adv-x="682" d="M 772 1188 L 745 1094 L 186 1094 L 213 1188 L 772 1188 Z" unicode="" />
<glyph horiz-adv-x="682" d="M 725 1241 C 681 1078 591 997 453 997 C 308 997 226 1078 207 1241 L 254 1241 C 272 1141 339 1092 455 1092 C 566 1092 640 1141 676 1241 L 725 1241 Z" unicode="" />
<glyph horiz-adv-x="682" d="M 537 1309 C 568 1309 594 1298 615 1277 C 636 1255 647 1230 647 1202 C 647 1172 636 1147 615 1127 C 594 1106 569 1096 541 1096 C 511 1096 485 1106 465 1127 C 444 1147 434 1172 434 1202 C 434 1232 444 1257 465 1278 C 486 1298 510 1309 537 1309 Z" unicode="" />
<glyph horiz-adv-x="682" d="M 608 1370 C 656 1370 697 1353 729 1320 C 761 1287 778 1248 778 1204 C 778 1158 761 1118 729 1086 C 697 1054 658 1038 612 1038 C 566 1038 527 1054 495 1086 C 462 1118 446 1158 446 1204 C 446 1250 462 1290 495 1322 C 528 1354 566 1370 608 1370 Z M 612 1096 C 642 1096 667 1106 689 1128 C 710 1149 721 1174 721 1204 C 721 1234 710 1260 688 1281 C 666 1302 642 1313 614 1313 C 582 1313 555 1302 535 1281 C 514 1259 504 1234 504 1204 C 504 1174 514 1149 536 1128 C 557 1106 582 1096 612 1096 Z" unicode="" />
<glyph horiz-adv-x="682" d="M 557 -311 C 479 -368 396 -397 309 -397 C 249 -397 196 -377 149 -339 C 101 -300 78 -249 78 -186 C 78 -137 95 -94 131 -56 C 166 -18 189 0 201 0 L 254 0 C 234 -36 225 -80 225 -131 C 225 -180 240 -221 271 -253 C 301 -285 343 -301 395 -301 C 449 -301 496 -291 537 -272 L 557 -311 Z" unicode="" />
<glyph horiz-adv-x="682" d="M 793 1303 C 804 1303 815 1298 825 1290 C 835 1281 840 1272 840 1262 C 840 1220 820 1180 781 1141 C 742 1102 695 1083 641 1083 C 602 1083 547 1107 476 1156 C 404 1204 356 1229 330 1229 C 318 1229 308 1224 299 1216 C 289 1208 285 1200 285 1192 C 285 1186 286 1179 289 1171 C 291 1163 293 1157 293 1151 C 293 1119 278 1104 250 1104 C 220 1104 205 1119 205 1151 C 205 1189 225 1228 265 1266 C 305 1304 348 1323 395 1323 C 425 1323 451 1317 475 1306 C 498 1295 538 1271 595 1234 C 652 1196 695 1178 725 1178 C 748 1178 760 1192 760 1221 C 760 1223 758 1230 756 1240 C 753 1250 752 1258 752 1264 C 752 1290 765 1303 793 1303 Z" unicode="" />
<glyph horiz-adv-x="682" d="M 731 1372 L 401 973 L 367 999 L 643 1438 L 731 1372 Z M 487 1372 L 158 973 L 123 999 L 399 1438 L 487 1372 Z" unicode="" />
<glyph horiz-adv-x="1124" d="M 1085 309 C 1081 205 1056 122 1009 60 C 962 -1 906 -33 842 -33 C 789 -33 743 -2 703 58 C 663 119 644 213 644 340 C 644 368 644 394 646 420 C 647 445 649 469 651 492 L 686 821 L 455 821 C 415 405 382 157 356 78 C 330 0 287 -40 226 -40 C 200 -40 175 -29 152 -9 C 128 11 117 39 117 73 C 117 103 141 146 189 201 C 237 256 264 306 270 352 L 330 821 L 233 821 C 206 821 180 814 154 801 C 128 788 110 773 98 756 L 55 692 L 20 692 C 52 793 92 869 140 920 C 188 971 243 997 305 997 L 1069 997 L 1069 821 L 811 821 C 803 741 796 661 792 581 C 788 501 786 420 786 340 C 786 285 798 241 824 207 C 849 173 881 156 919 156 C 942 156 966 165 992 184 C 1018 203 1032 228 1036 259 C 1038 273 1039 285 1040 293 C 1041 301 1042 307 1042 309 L 1085 309 Z" unicode="" />
<glyph horiz-adv-x="1024" d="M 1077 451 L 29 451 L 29 582 L 1077 582 L 1077 451 Z" unicode="" />
<glyph horiz-adv-x="2048" d="M 2101 451 L 29 451 L 29 582 L 2101 582 L 2101 451 Z" unicode="" />
<glyph horiz-adv-x="555" d="M 532 1319 C 401 1253 336 1188 336 1122 C 336 1084 358 1059 403 1047 C 448 1035 476 1019 488 999 C 500 979 506 956 506 930 C 506 896 492 868 465 846 C 438 824 408 813 375 813 C 327 813 286 834 252 876 C 218 918 201 964 201 1014 C 201 1163 306 1280 516 1364 L 532 1319 Z" unicode="" />
<glyph horiz-adv-x="555" d="M 223 858 C 354 923 420 989 420 1055 C 420 1092 397 1117 352 1129 C 307 1141 279 1158 267 1178 C 255 1198 250 1221 250 1247 C 250 1280 263 1308 290 1330 C 317 1352 347 1364 381 1364 C 429 1364 470 1343 504 1301 C 538 1259 555 1213 555 1163 C 555 1013 450 897 240 813 L 223 858 Z" unicode="" />
<glyph horiz-adv-x="555" d="M 115 -266 C 245 -200 311 -135 311 -70 C 311 -32 288 -7 243 5 C 198 17 170 34 158 54 C 146 74 141 97 141 123 C 141 156 154 184 181 206 C 208 228 238 240 272 240 C 320 240 361 218 395 176 C 429 134 446 88 446 39 C 446 -111 341 -227 131 -311 L 115 -266 Z" unicode="" />
<glyph horiz-adv-x="981" d="M 975 1319 C 843 1253 778 1188 778 1122 C 778 1084 800 1059 845 1047 C 890 1035 918 1019 930 999 C 942 979 948 956 948 930 C 948 896 934 868 907 846 C 880 824 850 813 817 813 C 769 813 728 834 694 876 C 660 918 643 964 643 1014 C 643 1163 748 1280 958 1364 L 975 1319 Z M 557 1319 C 425 1253 360 1188 360 1122 C 360 1084 382 1059 428 1047 C 473 1035 501 1019 513 999 C 524 979 530 956 530 930 C 530 896 516 868 490 846 C 463 824 433 813 399 813 C 351 813 310 834 276 876 C 242 918 225 964 225 1014 C 225 1163 330 1280 541 1364 L 557 1319 Z" unicode="" />
<glyph horiz-adv-x="981" d="M 651 858 C 782 923 848 989 848 1055 C 848 1092 825 1117 780 1129 C 735 1141 707 1158 695 1178 C 683 1198 678 1221 678 1247 C 678 1280 691 1308 718 1330 C 745 1352 775 1364 809 1364 C 857 1364 898 1343 932 1301 C 966 1259 983 1213 983 1163 C 983 1013 878 897 668 813 L 651 858 Z M 233 858 C 364 923 430 989 430 1055 C 430 1092 407 1117 362 1129 C 317 1141 289 1158 277 1178 C 265 1198 260 1221 260 1247 C 260 1280 273 1308 300 1330 C 327 1352 357 1364 391 1364 C 439 1364 480 1343 514 1301 C 548 1259 565 1213 565 1163 C 565 1013 460 897 250 813 L 233 858 Z" unicode="" />
<glyph horiz-adv-x="981" d="M 512 -266 C 643 -200 709 -135 709 -70 C 709 -32 686 -7 641 5 C 595 17 567 34 556 54 C 544 74 539 97 539 123 C 539 156 552 184 579 206 C 606 228 636 240 670 240 C 718 240 759 218 793 176 C 827 134 844 88 844 39 C 844 -111 738 -227 528 -311 L 512 -266 Z M 94 -266 C 225 -200 291 -135 291 -70 C 291 -32 268 -7 223 5 C 178 17 150 34 138 54 C 126 74 121 97 121 123 C 121 156 134 184 161 206 C 188 228 218 240 252 240 C 300 240 341 218 375 176 C 409 134 426 88 426 39 C 426 -111 321 -227 111 -311 L 94 -266 Z" unicode="" />
<glyph horiz-adv-x="981" d="M 965 881 L 940 752 C 838 762 752 768 684 768 L 592 768 C 493 281 426 -99 391 -375 C 369 -372 342 -371 311 -371 C 280 -371 249 -372 219 -375 C 379 355 461 736 465 768 L 348 768 C 281 768 200 762 104 752 L 127 883 C 230 870 300 864 338 864 L 481 864 C 513 991 537 1147 551 1331 L 631 1327 C 666 1327 695 1328 719 1331 C 669 1165 634 1010 612 864 L 725 864 C 775 864 855 869 965 881 Z" unicode="" />
<glyph horiz-adv-x="981" d="M 995 887 L 965 750 C 881 764 803 772 733 772 L 641 772 L 530 182 L 692 182 C 707 182 765 189 866 203 L 838 68 C 723 84 635 92 573 92 L 514 92 C 473 -104 450 -259 446 -375 L 350 -371 C 323 -371 298 -372 274 -375 C 318 -239 356 -84 387 92 L 229 92 C 197 92 137 85 51 72 C 61 110 70 156 78 211 C 176 194 251 186 305 186 L 406 186 L 516 772 L 360 772 C 322 772 260 766 174 756 C 190 820 200 866 203 893 C 312 876 395 868 451 868 L 532 868 C 578 1056 601 1211 602 1331 C 650 1328 679 1327 688 1327 L 778 1331 C 740 1226 701 1072 662 868 L 784 868 C 851 870 921 877 995 887 Z" unicode="" />
<glyph horiz-adv-x="717" d="M 403 963 C 481 963 548 935 604 879 C 660 823 688 755 688 676 C 688 597 660 530 604 474 C 548 418 481 391 403 391 C 324 391 257 418 201 474 C 145 530 117 597 117 676 C 117 755 145 823 201 879 C 257 935 325 963 403 963 Z" unicode="" />
<glyph horiz-adv-x="2048" d="M 1706 258 C 1744 258 1777 243 1805 215 C 1833 187 1847 153 1847 115 C 1847 76 1833 43 1805 15 C 1777 -13 1744 -27 1706 -27 C 1667 -27 1634 -13 1606 15 C 1578 43 1565 76 1565 115 C 1565 153 1578 187 1606 215 C 1634 243 1667 258 1706 258 Z M 1024 258 C 1062 258 1095 243 1123 215 C 1151 187 1165 153 1165 115 C 1165 76 1151 43 1123 15 C 1095 -13 1062 -27 1024 -27 C 985 -27 952 -13 924 15 C 896 43 883 76 883 115 C 883 153 896 187 924 215 C 952 243 985 258 1024 258 Z M 342 258 C 380 258 413 243 441 215 C 469 187 483 153 483 115 C 483 76 469 43 441 15 C 413 -13 380 -27 342 -27 C 303 -27 270 -13 242 15 C 214 43 201 76 201 115 C 201 153 214 187 242 215 C 270 243 303 258 342 258 Z" unicode="" />
<glyph horiz-adv-x="2068" d="M 1102 1425 L 403 -66 L 313 -66 L 1014 1425 L 1102 1425 Z M 412 1380 C 497 1380 568 1352 626 1296 C 684 1240 713 1171 713 1087 C 713 989 676 903 602 827 C 528 751 444 713 348 713 C 265 713 195 739 137 792 C 79 845 51 916 51 1006 C 51 1110 88 1198 162 1271 C 236 1343 319 1380 412 1380 Z M 340 766 C 404 766 455 804 494 880 C 533 956 553 1041 553 1135 C 553 1200 540 1248 515 1280 C 489 1311 460 1327 428 1327 C 361 1327 308 1290 269 1216 C 230 1142 211 1059 211 965 C 211 832 254 766 340 766 Z M 1802 641 C 1888 641 1959 613 2017 557 C 2074 501 2103 431 2103 348 C 2103 250 2066 163 1993 87 C 1919 11 1835 -27 1739 -27 C 1656 -27 1586 0 1528 53 C 1470 106 1442 177 1442 266 C 1442 370 1479 459 1553 532 C 1627 604 1710 641 1802 641 Z M 1731 27 C 1794 27 1845 65 1885 141 C 1924 217 1944 301 1944 395 C 1944 461 1931 509 1906 541 C 1880 572 1851 588 1819 588 C 1751 588 1698 551 1660 477 C 1621 403 1602 319 1602 225 C 1602 93 1645 27 1731 27 Z M 1063 641 C 1149 641 1220 613 1278 557 C 1335 501 1364 431 1364 348 C 1364 250 1327 163 1253 87 C 1179 11 1095 -27 999 -27 C 917 -27 847 0 789 53 C 731 106 702 177 702 266 C 702 370 739 459 813 532 C 887 604 970 641 1063 641 Z M 991 27 C 1055 27 1106 65 1145 141 C 1184 217 1204 301 1204 395 C 1204 461 1191 509 1166 541 C 1140 572 1111 588 1079 588 C 1012 588 959 551 920 477 C 881 403 862 319 862 225 C 862 93 905 27 991 27 Z" unicode="" />
<glyph horiz-adv-x="555" d="M 498 721 L 236 436 L 387 154 L 354 127 L 45 455 L 469 752 L 498 721 Z" unicode="" />
<glyph horiz-adv-x="555" d="M 512 422 L 88 125 L 59 156 L 322 440 L 170 723 L 203 750 L 512 422 Z" unicode="" />
<glyph horiz-adv-x="1150" d="M 413 773 L 893 773 L 884 704 L 404 704 C 401 676 399 644 399 607 L 871 607 L 862 537 L 400 537 C 406 377 437 255 493 171 C 549 87 617 45 698 45 C 832 45 941 153 1023 370 L 1062 358 L 1006 51 C 988 59 975 64 969 64 C 957 64 936 55 908 39 C 830 -5 751 -27 671 -27 C 527 -27 412 27 324 135 C 236 243 187 377 177 537 L 57 537 L 68 607 L 175 607 C 175 640 178 672 182 704 L 78 704 L 89 773 L 193 773 C 228 943 301 1079 411 1182 C 521 1285 648 1337 793 1337 C 868 1337 956 1311 1056 1261 C 1072 1266 1085 1276 1096 1291 L 1126 1283 L 1081 952 L 1037 962 C 1037 1072 1012 1150 963 1196 C 913 1242 857 1266 794 1266 C 700 1266 618 1220 549 1130 C 479 1039 434 920 413 773 Z" unicode="" />
<glyph horiz-adv-x="2048" d="M 2095 520 L 1675 520 L 1675 555 C 1719 555 1750 561 1766 574 C 1782 587 1790 624 1790 684 L 1790 1190 L 1786 1190 L 1430 520 L 1405 520 L 1092 1190 L 1087 1190 L 1087 686 C 1087 633 1092 598 1104 581 C 1116 564 1148 555 1202 555 L 1202 520 L 922 520 L 922 555 C 970 557 1000 565 1012 580 C 1024 594 1030 631 1030 690 L 1030 1157 C 1030 1212 1024 1248 1012 1266 C 1000 1283 970 1291 922 1290 L 922 1327 L 1251 1327 L 1503 788 L 1790 1327 L 2095 1327 L 2095 1290 C 2049 1290 2021 1281 2011 1263 C 2000 1245 1995 1209 1995 1155 L 1995 684 C 1995 636 2000 603 2010 585 C 2020 567 2049 557 2095 555 L 2095 520 Z M 811 1102 L 776 1102 C 770 1218 706 1276 582 1276 L 524 1276 L 524 688 C 524 635 529 599 540 581 C 550 563 579 554 627 555 L 627 520 L 213 520 L 213 555 C 260 558 289 566 299 579 C 309 591 315 629 315 692 L 315 1276 L 262 1276 C 137 1276 72 1218 66 1102 L 35 1102 L 35 1327 L 811 1327 L 811 1102 Z" unicode="" />
<glyph horiz-adv-x="1573" d="M 1506 0 L 902 0 L 935 311 C 1042 350 1117 417 1161 511 C 1204 605 1226 709 1226 824 C 1226 975 1190 1099 1119 1197 C 1047 1294 937 1343 788 1343 C 638 1343 528 1294 457 1197 C 385 1099 350 975 350 824 C 350 709 371 605 415 511 C 458 417 533 350 641 311 L 674 0 L 70 0 L 70 332 L 100 332 C 110 288 124 256 140 236 C 156 216 188 207 236 207 L 559 207 L 555 264 C 396 307 282 381 214 485 C 145 589 111 699 111 817 C 111 989 175 1131 303 1242 C 431 1353 592 1409 788 1409 C 983 1409 1145 1353 1273 1242 C 1401 1131 1465 989 1465 817 C 1465 699 1430 589 1362 485 C 1293 381 1179 307 1021 264 L 1017 207 L 1340 207 C 1388 207 1420 216 1436 236 C 1452 256 1465 288 1476 332 L 1506 332 L 1506 0 Z" unicode="" />
<glyph horiz-adv-x="1012" d="M 295 1120 L 250 1120 C 337 1322 463 1423 629 1423 C 736 1423 824 1380 892 1296 C 960 1211 995 1086 995 920 C 995 681 940 463 830 265 C 720 67 578 -31 403 -31 C 299 -31 217 0 157 60 C 96 120 66 202 66 305 C 66 464 121 604 232 725 C 343 846 471 907 616 907 C 764 907 868 843 928 717 L 932 717 C 938 813 942 875 942 903 C 942 1019 911 1111 849 1179 C 787 1246 703 1280 596 1280 C 466 1280 366 1226 295 1120 Z M 911 629 C 857 779 762 854 627 854 C 508 854 413 790 341 663 C 269 536 233 403 233 264 C 233 192 251 134 287 91 C 323 48 370 27 430 27 C 520 27 613 81 709 189 C 805 297 872 444 911 629 Z" unicode="" />
<glyph horiz-adv-x="1253" d="M 668 1409 L 1245 0 L 12 0 L 668 1409 Z M 594 1059 L 147 100 L 991 100 L 594 1059 Z" unicode="" />
<glyph horiz-adv-x="1686" d="M 1645 -207 L 1016 -207 L 1016 -160 C 1096 -160 1149 -146 1175 -119 C 1201 -91 1215 -50 1215 6 L 1215 1425 L 481 1425 L 481 6 C 481 -50 494 -91 520 -119 C 546 -146 600 -160 680 -160 L 680 -207 L 51 -207 L 51 -160 C 132 -160 185 -146 211 -119 C 237 -91 250 -50 250 6 L 250 1288 C 250 1355 233 1406 201 1440 C 169 1474 120 1491 55 1491 L 55 1538 L 1641 1538 L 1641 1491 C 1575 1491 1526 1474 1494 1440 C 1462 1406 1446 1355 1446 1288 L 1446 6 C 1446 -50 1458 -91 1484 -119 C 1510 -146 1563 -160 1645 -160 L 1645 -207 Z" unicode="" />
<glyph horiz-adv-x="1460" d="M 1423 238 C 1401 154 1383 74 1369 -2 C 1354 -78 1343 -151 1335 -221 C 1293 -213 1258 -208 1232 -204 C 1206 -200 1188 -199 1178 -199 L 147 -199 C 133 -199 114 -200 88 -202 C 62 -204 42 -205 29 -205 L 743 610 L 33 1540 C 79 1535 120 1531 156 1529 C 191 1527 221 1526 246 1526 L 1264 1526 L 1276 1200 L 1235 1200 C 1214 1268 1196 1315 1182 1341 C 1168 1367 1141 1389 1101 1407 C 1081 1415 1056 1422 1026 1427 C 996 1431 962 1434 922 1434 L 383 1434 L 942 700 L 340 6 L 1100 6 C 1184 6 1243 23 1277 58 C 1311 92 1344 152 1376 238 L 1423 238 Z" unicode="" />
<glyph horiz-adv-x="1366" d="M 1272 588 L 176 588 L 176 745 L 1272 745 L 1272 588 Z" unicode="" />
<glyph horiz-adv-x="662" d="M 1004 1382 L -190 -29 L -319 -29 L 874 1382 L 1004 1382 Z" unicode="" />
<glyph horiz-adv-x="555" d="M 305 801 C 343 801 376 786 404 758 C 432 730 446 696 446 657 C 446 618 432 585 404 557 C 376 529 343 516 305 516 C 266 516 233 529 205 557 C 177 585 164 618 164 657 C 164 696 177 730 205 758 C 233 786 266 801 305 801 Z" unicode="" />
<glyph horiz-adv-x="1124" d="M 1055 1868 L 748 -78 L 250 950 L 53 854 L 20 922 L 319 1069 L 723 244 L 983 1878 L 1055 1868 Z" unicode="" />
<glyph horiz-adv-x="1460" d="M 653 668 C 700 780 753 854 812 890 C 870 926 941 944 1024 944 C 1131 944 1222 905 1296 827 C 1370 749 1407 649 1407 526 C 1407 402 1369 301 1295 223 C 1221 145 1141 106 1057 106 C 993 106 936 127 886 169 C 836 211 781 285 721 393 C 643 237 535 160 397 160 C 297 160 215 194 150 264 C 85 334 53 422 53 528 C 53 632 82 720 142 790 C 201 860 274 895 360 895 C 413 895 463 881 509 853 C 555 825 603 763 653 668 Z M 750 465 C 792 373 837 306 884 264 C 931 222 990 201 1061 201 C 1145 201 1214 231 1268 292 C 1322 352 1350 430 1350 526 C 1350 619 1322 699 1266 766 C 1210 832 1143 866 1067 866 C 1030 866 997 858 969 844 C 941 830 916 809 895 782 C 873 755 852 716 831 666 L 750 465 Z M 614 557 L 625 590 C 561 733 472 805 358 805 C 284 805 224 779 178 728 C 132 677 109 611 109 530 C 109 448 131 378 175 322 C 219 266 274 238 338 238 C 392 238 442 259 487 303 C 532 346 574 431 614 557 Z" unicode="" />
<glyph horiz-adv-x="561" d="M 602 1760 C 602 1734 592 1712 572 1696 C 552 1679 527 1671 497 1671 C 472 1671 452 1679 437 1696 C 421 1712 407 1721 393 1721 C 381 1721 371 1716 365 1706 C 359 1696 356 1682 356 1663 C 356 1640 362 1555 375 1407 C 388 1259 395 1075 395 856 C 395 519 385 282 365 146 C 345 10 318 -84 286 -136 C 268 -163 246 -184 218 -198 C 190 -212 162 -219 133 -219 C 100 -219 71 -207 47 -184 C 22 -160 10 -132 10 -99 C 10 -73 18 -52 35 -34 C 52 -16 74 -7 100 -7 C 122 -7 144 -18 165 -40 C 186 -62 201 -73 210 -73 C 226 -73 239 -58 249 -28 C 259 1 264 52 264 125 C 264 149 262 215 258 322 C 254 428 252 616 252 884 C 252 1204 257 1417 269 1522 C 280 1627 294 1699 310 1738 C 329 1784 352 1819 379 1842 C 405 1864 433 1876 463 1876 C 501 1876 533 1865 561 1843 C 588 1821 602 1794 602 1760 Z" unicode="" />
<glyph horiz-adv-x="1124" d="M 1022 874 L 1073 874 C 1059 770 1027 691 977 636 C 927 580 865 553 791 553 C 726 553 625 592 487 670 C 394 722 324 748 276 748 C 176 748 117 685 98 561 L 51 561 C 64 663 95 743 144 799 C 193 855 254 883 326 883 C 357 883 393 876 433 863 C 473 850 547 814 657 756 C 735 714 800 694 850 694 C 946 694 1003 754 1022 874 Z M 1022 487 L 1073 487 C 1059 383 1027 304 977 249 C 927 193 865 166 791 166 C 727 166 637 198 522 263 C 407 327 325 360 276 360 C 176 360 117 298 98 174 L 51 174 C 64 276 95 354 144 410 C 193 466 254 494 326 494 C 357 494 394 486 438 472 C 481 458 554 423 657 369 C 735 327 800 307 850 307 C 946 307 1003 367 1022 487 Z" unicode="" />
<glyph horiz-adv-x="1124" d="M 1106 279 L 485 279 L 301 -51 L 201 6 L 352 279 L 31 279 L 31 391 L 416 391 L 573 676 L 31 676 L 31 788 L 637 788 L 823 1124 L 924 1067 L 768 788 L 1106 788 L 1106 676 L 707 676 L 547 391 L 1106 391 L 1106 279 Z" unicode="" />
<glyph horiz-adv-x="1124" d="M 1077 240 L 59 711 L 59 838 L 1077 1309 L 1077 1182 L 190 774 L 1077 367 L 1077 240 Z M 1077 0 L 59 0 L 59 112 L 1077 112 L 1077 0 Z" unicode="" />
<glyph horiz-adv-x="1124" d="M 1077 711 L 59 240 L 59 367 L 946 774 L 59 1182 L 59 1309 L 1077 838 L 1077 711 Z M 1077 0 L 59 0 L 59 112 L 1077 112 L 1077 0 Z" unicode="" />
<glyph horiz-adv-x="1012" d="M 962 763 L 565 0 L 443 0 L 46 763 L 443 1526 L 565 1526 L 962 763 Z M 839 763 L 504 1415 L 169 763 L 504 111 L 839 763 Z" unicode="" />
<glyph horiz-adv-x="1618" d="M 1123 1617 C 1123 1574 1113 1527 1093 1477 C 1073 1426 1041 1379 998 1336 C 968 1306 937 1284 906 1270 C 874 1256 833 1247 781 1245 C 782 1346 808 1434 860 1508 C 912 1582 997 1632 1117 1660 C 1119 1651 1121 1643 1122 1637 C 1122 1630 1123 1623 1123 1617 Z M 1509 414 C 1496 372 1479 330 1458 288 C 1437 245 1412 201 1383 157 C 1339 89 1295 39 1251 6 C 1207 -27 1163 -44 1119 -44 C 1084 -44 1036 -33 975 -11 C 914 11 863 22 821 22 C 779 22 730 10 674 -12 C 618 -35 573 -47 539 -47 C 487 -47 435 -24 384 19 C 332 63 281 130 231 219 C 181 306 143 393 118 479 C 92 565 80 650 80 735 C 80 891 118 1019 195 1118 C 272 1216 369 1266 487 1266 C 537 1266 597 1255 668 1235 C 739 1214 786 1204 810 1204 C 840 1204 889 1215 957 1239 C 1025 1262 1084 1274 1134 1274 C 1198 1274 1257 1260 1310 1233 C 1362 1206 1412 1163 1460 1105 C 1386 1042 1336 984 1312 932 C 1288 880 1276 826 1276 772 C 1276 687 1299 611 1347 543 C 1394 475 1448 432 1509 414 Z" unicode="" />
<glyph horiz-adv-x="1087" d="M 303 850 C 346 1057 426 1213 542 1319 C 658 1424 773 1477 887 1477 C 959 1477 1017 1464 1059 1439 C 1101 1413 1122 1377 1122 1331 C 1122 1294 1110 1265 1086 1244 C 1062 1222 1029 1212 989 1212 C 970 1212 958 1215 953 1221 C 948 1227 944 1246 942 1278 C 940 1309 927 1337 903 1361 C 879 1385 852 1397 823 1397 C 759 1397 705 1360 663 1288 C 621 1216 572 1070 518 850 L 721 850 C 751 850 854 859 1030 879 L 940 590 C 866 357 829 217 829 170 C 829 144 838 131 858 131 C 894 131 946 177 1014 270 L 1055 233 C 931 57 817 -31 715 -31 C 684 -31 659 -21 640 -1 C 621 18 612 42 612 72 C 612 118 672 346 793 758 L 782 768 L 504 768 L 147 -408 L 0 -440 L 287 768 L 86 768 L 104 850 L 303 850 Z" unicode="" />
<glyph horiz-adv-x="1087" d="M 1145 1460 L 827 166 C 825 160 825 154 825 150 C 825 126 835 115 856 115 C 886 115 955 173 1063 289 L 1096 258 C 936 65 804 -31 700 -31 C 672 -31 649 -23 631 -9 C 613 5 604 23 604 43 C 604 63 607 87 614 115 L 903 1303 C 877 1347 830 1370 762 1370 C 692 1370 637 1317 596 1213 C 555 1108 522 987 496 850 L 702 850 L 684 768 L 481 768 L 158 -408 L 10 -440 L 264 768 L 82 768 L 98 850 L 283 850 C 321 1051 398 1206 514 1314 C 630 1422 735 1477 831 1477 C 917 1477 986 1462 1036 1432 L 1135 1477 L 1145 1460 Z" unicode="" />
<glyph horiz-adv-x="662" d="M 716 965 L 693 842 L 550 842 L 521 686 L 358 686 L 384 842 L 95 842 L 114 951 L 540 1381 L 642 1381 L 573 965 L 716 965 Z M 450 1209 L 446 1213 L 204 965 L 409 965 L 450 1209 Z" unicode="" />
<glyph horiz-adv-x="1087" d="M 303 850 C 346 1057 426 1213 542 1319 C 658 1424 773 1477 887 1477 C 959 1477 1017 1464 1059 1439 C 1101 1413 1122 1377 1122 1331 C 1122 1294 1110 1265 1086 1244 C 1062 1222 1029 1212 989 1212 C 970 1212 958 1215 953 1221 C 948 1227 944 1246 942 1278 C 940 1309 927 1337 903 1361 C 879 1385 852 1397 823 1397 C 759 1397 705 1360 663 1288 C 621 1216 572 1070 518 850 L 721 850 C 751 850 854 859 1030 879 L 940 590 C 866 357 829 217 829 170 C 829 144 838 131 858 131 C 894 131 946 177 1014 270 L 1055 233 C 931 57 817 -31 715 -31 C 684 -31 659 -21 640 -1 C 621 18 612 42 612 72 C 612 118 672 346 793 758 L 782 768 L 504 768 L 147 -408 L 0 -440 L 287 768 L 86 768 L 104 850 L 303 850 Z" unicode="" />
<glyph horiz-adv-x="1087" d="M 1145 1460 L 827 166 C 825 160 825 154 825 150 C 825 126 835 115 856 115 C 886 115 955 173 1063 289 L 1096 258 C 936 65 804 -31 700 -31 C 672 -31 649 -23 631 -9 C 613 5 604 23 604 43 C 604 63 607 87 614 115 L 903 1303 C 877 1347 830 1370 762 1370 C 692 1370 637 1317 596 1213 C 555 1108 522 987 496 850 L 702 850 L 684 768 L 481 768 L 158 -408 L 10 -440 L 264 768 L 82 768 L 98 850 L 283 850 C 321 1051 398 1206 514 1314 C 630 1422 735 1477 831 1477 C 917 1477 986 1462 1036 1432 L 1135 1477 L 1145 1460 Z" unicode="" />
</font>
</defs>
</svg>
