<?xml version="1.0" encoding="utf-8" ?><svg version="1.1" xmlns = 'http://www.w3.org/2000/svg'><defs><font id='web' horiz-adv-x="1000">
<font-face font-family="web" descent="-479" cap-height="1399" units-per-em="2048" bbox="-485,-492,2339,1909" x-height="944" ascent="1522" />
<missing-glyph horiz-adv-x="467" d="" /><glyph horiz-adv-x="467" d="" unicode=" " />
<glyph horiz-adv-x="635" d="M 641 1341 C 641 1314 615 1225 564 1074 C 512 922 437 708 338 432 L 295 440 C 318 559 358 792 415 1138 C 434 1259 449 1331 460 1354 C 470 1377 484 1395 501 1408 C 517 1420 537 1427 561 1427 C 586 1427 606 1419 620 1404 C 634 1389 641 1368 641 1341 Z M 342 90 C 342 59 331 34 311 14 C 290 -6 264 -16 233 -16 C 202 -16 176 -6 156 14 C 135 34 125 59 125 90 C 125 121 135 147 156 168 C 176 188 202 199 233 199 C 264 199 290 188 311 168 C 331 147 342 121 342 90 Z" unicode="!" />
<glyph horiz-adv-x="770" d="M 457 1403 C 457 1386 450 1360 436 1324 C 422 1288 396 1226 357 1138 L 283 967 L 258 967 C 264 1087 268 1200 268 1307 L 268 1366 C 268 1414 277 1449 295 1473 C 313 1497 337 1509 367 1509 C 427 1509 457 1473 457 1403 Z M 856 1403 C 856 1387 850 1364 838 1333 C 826 1301 799 1236 756 1138 L 682 967 L 657 967 C 664 1072 668 1185 668 1307 L 668 1366 C 668 1414 676 1449 694 1473 C 712 1497 736 1509 766 1509 C 826 1509 856 1473 856 1403 Z" unicode="&#x22;" />
<glyph horiz-adv-x="1171" d="M 608 -14 L 580 -14 L 698 428 L 442 369 L 340 -14 L 313 -14 L 412 358 L 164 301 L 205 453 L 453 510 L 512 731 L 264 674 L 303 823 L 553 881 L 662 1284 L 688 1284 L 582 891 L 838 950 L 928 1284 L 956 1284 L 868 961 L 1118 1018 L 1077 866 L 827 809 L 768 588 L 1018 645 L 977 496 L 729 438 L 608 -14 Z M 797 801 L 541 739 L 481 518 L 737 580 L 797 801 Z" unicode="#" />
<glyph horiz-adv-x="1214" d="M 578 -2 L 547 -2 C 497 -2 451 1 410 8 L 336 -291 L 309 -291 L 385 14 C 305 32 242 63 196 108 C 150 153 127 204 127 262 C 127 308 140 348 168 382 C 195 416 228 434 266 434 C 291 434 311 426 327 412 C 342 398 350 378 350 354 C 350 334 347 319 341 308 C 335 296 327 287 318 279 C 308 271 298 263 288 256 C 277 249 267 240 258 229 C 254 214 253 198 253 181 C 253 149 265 122 290 98 C 315 74 349 57 393 47 L 528 592 C 368 640 289 727 289 854 C 289 921 305 984 339 1043 C 372 1101 419 1149 481 1186 C 542 1222 613 1245 694 1253 L 745 1460 L 772 1460 L 721 1255 L 742 1257 C 802 1257 851 1253 889 1245 L 942 1460 L 969 1460 L 913 1241 C 982 1225 1037 1197 1079 1158 C 1120 1119 1141 1076 1141 1030 C 1141 988 1130 952 1108 920 C 1086 888 1059 872 1028 872 C 1003 872 983 878 967 890 C 951 902 944 919 944 940 C 944 960 947 977 955 989 C 962 1001 971 1012 982 1022 C 992 1031 1003 1040 1015 1049 C 1026 1057 1036 1069 1044 1083 C 1041 1112 1027 1138 1003 1160 C 978 1182 945 1198 905 1208 L 776 688 C 866 664 934 633 979 593 C 1024 553 1047 500 1047 436 C 1047 314 1007 214 928 135 C 848 56 740 11 604 0 L 532 -291 L 506 -291 L 578 -2 Z M 739 543 L 612 35 C 704 46 779 79 837 134 C 895 189 924 252 924 324 C 924 386 910 433 884 465 C 857 497 809 523 739 543 Z M 715 549 L 553 586 L 418 41 C 452 34 495 31 547 31 L 586 33 L 715 549 Z M 881 1214 C 847 1222 797 1227 733 1227 L 713 1225 L 590 731 L 752 694 L 881 1214 Z M 686 1221 C 606 1209 541 1178 491 1127 C 441 1076 416 1016 416 948 C 416 890 427 846 449 815 C 471 784 510 759 565 739 L 686 1221 Z" unicode="$" />
<glyph horiz-adv-x="1659" d="M 823 1012 C 823 948 805 886 770 826 C 734 766 683 716 616 675 C 548 634 481 614 414 614 C 341 614 281 637 233 684 C 185 731 162 792 162 866 C 162 932 180 996 216 1059 C 252 1122 300 1173 360 1211 C 420 1249 483 1268 547 1268 C 625 1268 691 1244 744 1196 C 796 1148 823 1086 823 1012 Z M 1530 1384 L 195 -201 L 162 -180 L 1495 1405 L 1530 1384 Z M 1556 371 C 1556 307 1538 245 1503 185 C 1467 125 1416 75 1349 34 C 1281 -6 1214 -27 1147 -27 C 1074 -27 1014 -3 966 43 C 918 90 895 151 895 225 C 895 291 913 355 949 418 C 985 481 1033 532 1093 570 C 1153 608 1216 627 1280 627 C 1360 627 1426 602 1478 554 C 1530 506 1556 445 1556 371 Z M 688 1057 C 688 1109 675 1151 650 1185 C 625 1218 593 1235 553 1235 C 507 1235 465 1215 427 1176 C 388 1136 357 1084 333 1018 C 309 952 297 887 297 823 C 297 765 307 721 327 692 C 347 663 376 649 414 649 C 460 649 505 667 548 705 C 590 743 624 794 650 858 C 675 922 688 989 688 1057 Z M 1421 416 C 1421 468 1408 510 1383 544 C 1358 577 1326 594 1286 594 C 1241 594 1199 574 1160 535 C 1121 495 1090 443 1066 377 C 1042 311 1030 246 1030 182 C 1030 124 1040 80 1060 51 C 1080 22 1109 8 1147 8 C 1193 8 1238 26 1281 64 C 1323 102 1357 153 1383 217 C 1408 281 1421 348 1421 416 Z" unicode="%" />
<glyph horiz-adv-x="1696" d="M 1710 1178 C 1710 1097 1685 1035 1637 993 C 1589 950 1520 929 1431 929 L 1393 930 C 1455 892 1500 846 1528 791 C 1555 736 1569 668 1569 588 C 1569 465 1535 355 1469 258 C 1403 160 1310 87 1192 38 C 1074 -10 935 -35 776 -35 C 664 -35 561 -14 466 27 C 370 69 296 125 242 197 C 188 269 162 346 162 430 C 162 476 169 516 184 550 C 198 584 219 615 247 642 C 275 669 319 699 379 731 C 335 762 301 799 277 842 C 253 884 242 929 242 977 C 242 1027 256 1075 285 1119 C 313 1163 353 1199 405 1225 C 457 1251 515 1264 580 1264 C 657 1264 721 1242 773 1199 C 825 1156 863 1093 887 1010 L 864 997 C 828 1057 790 1100 748 1128 C 706 1155 657 1169 602 1169 C 518 1169 454 1146 409 1102 C 364 1057 342 996 342 918 C 342 851 366 795 416 750 C 446 760 479 768 513 774 C 547 780 574 784 594 784 C 630 784 658 777 678 763 C 698 749 709 730 709 707 C 709 688 701 672 687 658 C 673 644 653 637 629 637 C 587 637 546 644 507 659 C 467 674 434 693 406 717 C 306 671 257 601 257 505 C 257 461 267 414 289 366 C 310 317 348 271 402 229 C 456 186 526 151 612 124 C 698 97 803 84 926 84 C 1042 84 1145 104 1233 146 C 1321 188 1392 250 1444 332 C 1496 414 1522 506 1522 608 C 1522 713 1496 796 1444 857 C 1392 917 1321 948 1231 948 C 1161 948 1103 928 1058 888 C 1013 848 991 797 991 733 C 991 681 1007 638 1040 606 C 1072 573 1112 557 1159 557 C 1204 557 1235 567 1253 588 C 1213 602 1186 618 1172 634 C 1158 650 1151 670 1151 694 C 1151 720 1159 740 1175 756 C 1191 772 1211 780 1237 780 C 1274 780 1303 770 1323 752 C 1343 733 1354 706 1354 672 C 1354 629 1338 594 1308 566 C 1277 538 1238 524 1190 524 C 1146 524 1104 534 1064 556 C 1024 578 992 607 969 645 C 945 683 934 726 934 774 C 934 856 964 920 1024 966 C 1084 1012 1168 1036 1276 1036 L 1493 1026 C 1550 1026 1595 1040 1629 1070 C 1662 1100 1679 1139 1679 1188 C 1679 1242 1665 1285 1638 1316 C 1610 1346 1574 1362 1530 1362 C 1508 1362 1491 1356 1477 1346 C 1463 1335 1456 1322 1456 1307 C 1459 1303 1464 1299 1472 1296 C 1480 1292 1488 1288 1496 1283 C 1504 1278 1511 1272 1517 1264 C 1523 1256 1526 1245 1526 1231 C 1526 1202 1518 1182 1502 1170 C 1486 1158 1468 1153 1448 1153 C 1416 1153 1391 1162 1373 1182 C 1355 1202 1346 1228 1346 1260 C 1346 1296 1362 1326 1394 1350 C 1426 1374 1468 1386 1518 1386 C 1576 1386 1622 1368 1657 1332 C 1692 1296 1710 1244 1710 1178 Z" unicode="&#x26;" />
<glyph horiz-adv-x="371" d="M 457 1403 C 457 1386 450 1360 436 1324 C 422 1288 396 1226 357 1138 L 283 967 L 258 967 C 264 1087 268 1200 268 1307 L 268 1366 C 268 1414 277 1449 295 1473 C 313 1497 337 1509 367 1509 C 427 1509 457 1473 457 1403 Z" unicode="'" />
<glyph horiz-adv-x="698" d="M 145 395 C 145 261 169 139 218 31 C 267 -76 346 -182 455 -285 L 403 -324 C 289 -221 205 -111 152 5 C 98 121 72 246 72 379 C 72 608 132 817 254 1007 C 376 1196 555 1370 791 1528 L 827 1479 C 603 1330 433 1164 318 981 C 202 797 145 602 145 395 Z" unicode="(" />
<glyph horiz-adv-x="698" d="M 578 809 C 578 943 553 1064 504 1172 C 455 1280 376 1386 268 1489 L 319 1528 C 432 1426 516 1317 570 1201 C 624 1085 651 959 651 825 C 651 595 590 386 468 197 C 346 7 167 -166 -68 -324 L -104 -274 C 120 -125 289 40 405 224 C 520 407 578 602 578 809 Z" unicode=")" />
<glyph horiz-adv-x="797" d="M 708 892 L 700 893 C 692 895 671 919 637 967 C 590 1029 555 1074 532 1102 C 524 1052 519 1002 515 953 L 504 854 C 500 844 495 836 487 831 C 479 825 471 823 463 823 C 451 823 441 826 431 833 C 421 840 416 851 416 865 L 418 879 L 456 970 L 516 1106 C 476 1094 423 1073 355 1044 C 305 1022 274 1012 264 1012 C 256 1012 248 1016 241 1026 C 233 1036 230 1046 230 1057 C 230 1075 241 1088 265 1095 C 289 1102 335 1108 404 1114 C 437 1116 474 1120 516 1126 C 485 1151 456 1173 428 1193 C 400 1212 377 1229 357 1245 C 337 1260 322 1273 312 1284 C 302 1295 298 1305 298 1315 C 298 1325 302 1335 311 1344 C 320 1352 330 1357 340 1358 L 350 1356 C 361 1353 385 1328 421 1280 C 471 1210 506 1165 526 1145 L 542 1291 C 546 1331 549 1361 552 1379 C 555 1397 560 1409 568 1416 C 576 1422 584 1426 593 1426 C 602 1426 613 1422 625 1416 C 637 1409 643 1398 643 1382 L 641 1370 L 601 1279 C 574 1221 554 1175 541 1141 L 626 1175 L 701 1208 C 746 1228 776 1238 790 1238 C 800 1238 808 1233 815 1224 C 821 1214 825 1205 825 1195 C 825 1175 814 1162 792 1155 C 770 1147 723 1141 651 1135 C 617 1131 581 1126 543 1120 C 571 1096 599 1075 626 1057 C 653 1039 677 1022 697 1006 C 717 990 732 977 742 966 C 752 954 757 944 757 935 C 757 923 752 913 744 905 C 735 896 723 892 708 892 Z" unicode="*" />
<glyph horiz-adv-x="1139" d="M 1075 502 L 610 502 L 610 39 L 553 39 L 553 502 L 88 502 L 88 561 L 553 561 L 553 1026 L 610 1026 L 610 561 L 1075 561 L 1075 502 Z" unicode="+" />
<glyph horiz-adv-x="422" d="M 289 78 C 289 10 265 -53 217 -115 C 169 -177 97 -233 2 -283 L -6 -258 C 53 -225 103 -184 145 -136 C 187 -88 210 -41 215 4 L 168 4 C 92 4 55 34 55 94 C 55 124 65 150 86 174 C 107 197 135 209 170 209 C 210 209 239 196 259 172 C 279 147 289 116 289 78 Z" unicode="," />
<glyph horiz-adv-x="793" d="M 711 455 L 80 455 L 109 565 L 739 565 L 711 455 Z" unicode="-" />
<glyph horiz-adv-x="422" d="M 285 96 C 285 63 274 36 252 15 C 230 -5 203 -16 172 -16 C 140 -16 114 -5 92 16 C 70 38 59 64 59 96 C 59 126 70 153 92 175 C 114 197 141 209 172 209 C 202 209 229 198 251 176 C 273 154 285 128 285 96 Z" unicode="." />
<glyph horiz-adv-x="823" d="M 1030 1522 L -133 -428 L -190 -410 L 973 1540 L 1030 1522 Z" unicode="/" />
<glyph horiz-adv-x="1208" d="M 1165 795 C 1165 654 1135 520 1077 393 C 1019 265 940 163 842 86 C 743 9 639 -29 530 -29 C 399 -29 295 13 219 99 C 142 185 104 298 104 438 C 104 575 134 708 196 838 C 258 968 340 1072 444 1151 C 548 1230 655 1270 766 1270 C 891 1270 989 1228 1059 1144 C 1129 1060 1165 944 1165 795 Z M 1012 901 C 1012 1001 991 1082 949 1144 C 907 1206 852 1237 782 1237 C 699 1237 617 1193 536 1106 C 454 1019 388 904 336 760 C 284 616 258 474 258 332 C 258 238 282 160 330 98 C 378 35 438 4 508 4 C 589 4 668 46 746 132 C 823 218 887 333 937 477 C 987 621 1012 763 1012 901 Z" unicode="0" />
<glyph horiz-adv-x="825" d="M 752 1268 C 739 1240 721 1196 698 1135 C 675 1074 656 1016 641 961 L 418 156 C 414 138 412 125 412 115 C 412 85 431 63 469 51 C 507 38 550 30 596 27 L 592 0 L 20 0 L 25 27 C 105 33 156 39 178 47 C 222 62 251 95 266 147 L 535 1104 C 517 1098 491 1096 459 1096 C 387 1096 318 1135 250 1214 L 264 1229 C 326 1197 393 1182 465 1182 C 531 1182 600 1201 672 1240 L 725 1268 L 752 1268 Z" unicode="1" />
<glyph horiz-adv-x="1116" d="M 1065 989 C 1065 847 1006 716 889 597 C 772 478 577 351 305 217 L 199 139 L 686 139 C 720 139 748 143 771 152 C 794 160 816 174 836 192 C 856 210 875 234 895 262 C 915 290 938 323 965 362 L 985 350 L 797 0 L 14 0 L 25 51 C 175 151 290 233 372 296 C 453 359 532 424 610 492 C 808 664 907 839 907 1018 C 907 1086 890 1140 857 1179 C 824 1217 773 1237 705 1237 C 643 1237 580 1218 518 1180 C 455 1142 404 1093 364 1034 C 324 974 305 918 305 866 C 305 765 350 715 440 715 C 466 715 492 721 517 733 C 542 745 579 773 627 817 L 641 803 C 589 747 543 708 501 686 C 459 664 412 653 360 653 C 306 653 263 669 229 703 C 195 737 178 779 178 831 C 178 898 207 967 265 1038 C 323 1108 394 1165 480 1207 C 566 1249 651 1270 735 1270 C 841 1270 923 1245 980 1197 C 1036 1149 1065 1079 1065 989 Z" unicode="2" />
<glyph horiz-adv-x="1100" d="M 1094 1014 C 1094 932 1059 862 991 804 C 922 746 827 708 707 690 L 664 664 L 739 664 C 815 664 874 645 915 607 C 956 569 977 513 977 438 C 977 344 951 260 900 185 C 849 109 778 51 688 9 C 597 -32 497 -53 387 -53 C 275 -53 182 -28 110 19 C 38 67 2 129 2 205 C 2 255 18 299 50 337 C 82 374 122 393 168 393 C 196 393 218 386 233 372 C 248 358 256 342 256 322 C 256 296 250 275 240 260 C 229 245 213 234 192 226 C 168 217 151 207 141 195 C 131 183 127 167 127 147 C 127 97 146 57 186 26 C 226 -4 279 -20 346 -20 C 424 -20 501 3 576 51 C 651 98 712 160 759 238 C 805 316 829 396 829 479 C 829 529 815 567 788 594 C 761 621 726 635 682 635 C 635 635 578 611 511 564 L 453 524 L 430 563 C 578 637 687 699 756 748 C 825 797 875 846 907 894 C 938 942 954 995 954 1053 C 954 1175 886 1237 750 1237 C 699 1237 646 1223 590 1195 C 534 1167 490 1130 456 1086 C 422 1042 406 995 406 946 C 406 914 415 890 434 872 C 453 854 481 846 518 846 C 571 846 622 867 672 909 L 686 891 C 642 853 600 823 560 802 C 520 780 475 770 426 770 C 384 770 349 784 321 812 C 293 840 279 875 279 918 C 279 971 303 1026 353 1082 C 403 1138 468 1184 549 1218 C 630 1252 712 1270 795 1270 C 887 1270 960 1247 1014 1202 C 1067 1157 1094 1094 1094 1014 Z" unicode="3" />
<glyph horiz-adv-x="1028" d="M 578 86 L 760 604 L 895 604 L 705 72 C 739 74 770 80 797 90 C 823 100 848 113 870 129 C 892 145 925 179 971 231 L 987 217 C 969 193 952 168 934 144 C 916 120 895 97 872 77 C 848 57 821 40 790 26 C 758 12 721 3 678 0 L 549 -362 L 420 -362 L 553 14 C 529 18 504 24 478 34 C 360 75 256 96 166 96 L 104 92 C 64 57 33 34 13 24 C -7 13 -25 8 -41 8 C -59 8 -76 11 -91 19 C -105 27 -113 39 -113 57 C -113 77 -97 92 -67 102 C -37 112 16 117 92 117 C 260 267 435 651 616 1270 L 795 1270 C 691 951 585 700 478 518 C 370 335 255 201 131 117 C 171 122 221 125 281 125 C 349 125 428 115 519 97 L 578 86 Z" unicode="4" />
<glyph horiz-adv-x="1022" d="M 1130 1280 C 1071 1199 1000 1139 916 1099 C 832 1059 730 1040 608 1040 C 590 1040 564 1041 530 1045 C 495 1048 473 1051 465 1055 L 297 686 C 377 738 465 764 561 764 C 669 764 755 735 820 678 C 885 621 918 543 918 444 C 918 358 893 278 844 205 C 795 131 728 74 642 33 C 556 -8 459 -29 352 -29 C 290 -29 233 -18 181 3 C 129 24 89 53 60 90 C 30 126 16 165 16 207 C 16 247 28 279 54 305 C 80 331 111 344 147 344 C 200 344 227 318 227 268 C 227 252 224 240 218 230 C 212 220 206 211 199 203 C 192 195 185 186 179 177 C 172 168 168 157 166 143 C 166 101 182 67 216 40 C 249 13 292 0 344 0 C 420 0 490 22 555 67 C 619 112 670 174 708 252 C 745 330 764 413 764 500 C 764 575 743 632 703 671 C 663 709 604 729 528 729 C 464 729 408 715 360 688 C 312 660 276 622 250 573 L 215 580 L 520 1264 L 553 1264 C 569 1240 601 1221 649 1206 C 697 1191 755 1184 823 1184 C 878 1184 929 1192 975 1209 C 1021 1226 1068 1254 1116 1292 L 1130 1280 Z" unicode="5" />
<glyph horiz-adv-x="1087" d="M 1188 1255 C 1188 1216 1179 1185 1161 1163 C 1143 1141 1119 1130 1090 1130 C 1033 1130 1003 1171 1001 1255 C 999 1309 990 1344 972 1362 C 954 1380 925 1389 883 1389 C 821 1389 752 1356 677 1292 C 601 1228 530 1141 462 1032 C 394 922 339 806 297 684 L 301 680 C 407 805 532 868 676 868 C 773 868 848 837 900 776 C 952 715 979 630 979 522 C 979 431 954 341 905 252 C 855 163 791 94 713 45 C 634 -4 550 -29 461 -29 C 344 -29 255 7 194 80 C 132 153 102 261 102 403 C 102 562 144 723 229 885 C 313 1047 422 1179 556 1281 C 690 1383 823 1434 956 1434 C 1029 1434 1086 1418 1127 1387 C 1167 1355 1188 1311 1188 1255 Z M 831 569 C 831 646 810 706 769 750 C 728 793 673 815 604 815 C 538 815 474 791 414 745 C 354 699 306 635 270 555 C 234 475 217 389 217 297 C 217 208 236 137 274 85 C 312 32 366 6 436 6 C 504 6 567 32 627 84 C 687 136 736 208 774 299 C 812 390 831 480 831 569 Z" unicode="6" />
<glyph horiz-adv-x="1006" d="M 1182 1219 L 1178 1200 C 1027 1036 898 877 791 723 C 684 569 598 424 533 288 C 467 152 414 6 374 -151 C 365 -183 354 -207 341 -222 C 328 -236 310 -244 287 -244 C 257 -244 234 -235 220 -219 C 206 -202 199 -181 199 -156 C 199 -80 271 64 415 280 C 559 495 765 762 1032 1081 L 510 1081 C 463 1081 421 1071 383 1053 C 345 1035 309 1008 276 973 C 242 937 201 879 152 799 L 127 807 L 389 1333 L 412 1333 L 397 1219 L 1182 1219 Z" unicode="7" />
<glyph horiz-adv-x="1090" d="M 758 666 C 823 638 874 600 911 553 C 948 505 967 453 967 397 C 967 316 944 243 900 177 C 856 111 795 60 719 23 C 642 -14 560 -33 473 -33 C 357 -33 261 -3 187 54 C 113 112 76 186 76 274 C 76 352 111 426 182 498 C 252 570 336 619 434 647 L 434 653 C 384 677 343 711 311 755 C 279 799 264 849 264 907 C 264 970 284 1031 325 1090 C 366 1148 422 1195 492 1231 C 562 1266 636 1284 715 1284 C 817 1284 900 1258 963 1206 C 1025 1154 1057 1087 1057 1007 C 1057 928 1030 859 977 800 C 923 741 850 698 758 670 L 758 666 Z M 707 686 C 786 710 850 754 900 816 C 950 878 975 945 975 1017 C 975 1085 950 1141 902 1185 C 853 1229 789 1251 711 1251 C 652 1251 599 1238 553 1214 C 507 1189 470 1155 443 1112 C 416 1069 403 1024 403 977 C 403 926 411 887 427 860 C 443 832 472 806 512 781 C 552 755 617 724 707 686 Z M 487 631 C 393 599 318 549 262 479 C 206 409 178 333 178 252 C 178 178 205 117 259 70 C 313 23 386 0 477 0 C 538 0 596 14 650 42 C 704 70 747 109 778 157 C 809 205 825 255 825 309 C 825 375 815 422 796 452 C 776 482 743 510 696 537 C 649 564 579 595 487 631 Z" unicode="8" />
<glyph horiz-adv-x="1087" d="M -68 -31 C -68 7 -59 38 -42 60 C -24 82 0 94 31 94 C 87 94 116 52 119 -31 C 120 -85 130 -120 148 -138 C 166 -155 196 -164 238 -164 C 356 -164 467 -102 573 20 C 678 142 772 321 854 557 L 850 561 C 743 435 618 373 475 373 C 377 373 302 403 250 464 C 198 525 172 610 172 719 C 172 809 196 899 246 988 C 295 1077 359 1146 438 1196 C 516 1245 600 1270 690 1270 C 806 1270 895 1233 957 1160 C 1018 1087 1049 980 1049 838 C 1049 673 1007 508 923 342 C 839 176 731 43 598 -57 C 465 -158 327 -209 184 -209 C 109 -209 48 -192 2 -159 C -44 -126 -68 -83 -68 -31 Z M 319 672 C 319 596 339 536 379 492 C 419 448 475 426 547 426 C 613 426 676 449 736 495 C 796 541 844 605 880 685 C 916 765 934 852 934 944 C 934 1032 915 1103 877 1156 C 839 1208 785 1235 715 1235 C 647 1235 584 1209 524 1157 C 464 1105 414 1033 376 942 C 338 851 319 761 319 672 Z" unicode="9" />
<glyph horiz-adv-x="557" d="M 498 817 C 498 784 487 757 465 736 C 443 715 416 705 385 705 C 353 705 327 715 305 737 C 283 759 272 785 272 817 C 272 847 283 874 305 896 C 327 918 354 930 385 930 C 415 930 442 919 464 897 C 486 875 498 849 498 817 Z M 319 96 C 319 64 308 38 286 16 C 264 -5 237 -16 205 -16 C 173 -16 147 -5 125 16 C 103 38 92 64 92 96 C 92 126 103 153 125 175 C 147 197 174 209 205 209 C 236 209 263 197 285 175 C 307 152 319 126 319 96 Z" unicode=":" />
<glyph horiz-adv-x="557" d="M 500 817 C 500 784 489 757 467 736 C 445 715 418 705 387 705 C 355 705 329 715 307 737 C 285 759 274 785 274 817 C 274 847 285 874 307 896 C 329 918 356 930 387 930 C 417 930 444 919 466 897 C 488 875 500 849 500 817 Z M 326 78 C 326 10 302 -53 254 -115 C 206 -177 134 -233 39 -283 L 31 -258 C 90 -225 140 -184 182 -136 C 224 -88 247 -41 252 4 L 205 4 C 129 4 92 34 92 94 C 92 124 102 150 123 174 C 144 197 172 209 207 209 C 247 209 276 196 296 172 C 316 147 326 116 326 78 Z" unicode=";" />
<glyph horiz-adv-x="1139" d="M 1038 72 L 133 512 L 133 553 L 1038 993 L 1038 934 L 209 532 L 1038 131 L 1038 72 Z" unicode="&#x3C;" />
<glyph horiz-adv-x="1139" d="M 1061 684 L 156 684 L 156 739 L 1061 739 L 1061 684 Z M 1061 326 L 156 326 L 156 381 L 1061 381 L 1061 326 Z" unicode="=" />
<glyph horiz-adv-x="1139" d="M 1059 512 L 154 72 L 154 131 L 983 532 L 154 934 L 154 993 L 1059 553 L 1059 512 Z" unicode="&#x3E;" />
<glyph horiz-adv-x="827" d="M 918 1120 C 918 1044 895 979 851 926 C 806 872 735 824 639 782 C 520 730 434 680 382 631 C 329 581 303 529 303 473 C 303 437 314 409 338 389 C 361 368 392 358 432 358 C 464 358 492 372 516 402 C 540 431 556 472 565 526 L 590 518 C 579 458 559 411 529 378 C 499 344 461 328 416 328 C 366 328 325 344 295 377 C 265 410 250 458 250 520 C 250 587 271 647 315 699 C 359 751 440 805 559 862 C 651 905 716 948 753 992 C 790 1035 809 1093 809 1167 C 809 1237 787 1293 743 1335 C 699 1377 640 1399 567 1399 C 501 1399 447 1379 404 1339 C 361 1299 340 1250 340 1194 C 340 1145 353 1105 381 1073 C 409 1041 444 1026 487 1026 C 507 1026 523 1028 535 1034 L 535 1040 L 531 1040 C 514 1040 498 1046 483 1059 C 468 1072 461 1088 461 1106 C 461 1128 468 1147 483 1163 C 497 1178 516 1186 539 1186 C 567 1186 589 1178 606 1164 C 622 1149 631 1128 631 1102 C 631 1070 618 1044 594 1025 C 569 1006 535 997 492 997 C 440 997 397 1015 362 1053 C 326 1091 309 1137 309 1192 C 309 1258 336 1314 391 1361 C 445 1408 515 1432 600 1432 C 664 1432 720 1418 768 1391 C 816 1364 853 1327 879 1279 C 905 1231 918 1178 918 1120 Z M 408 88 C 408 57 397 32 376 12 C 355 -8 329 -18 299 -18 C 268 -18 242 -8 221 12 C 200 32 190 57 190 88 C 190 118 200 144 221 165 C 242 186 268 197 299 197 C 329 197 355 186 376 165 C 397 144 408 118 408 88 Z" unicode="?" />
<glyph horiz-adv-x="2011" d="M 1915 240 C 1876 107 1811 -11 1721 -115 C 1631 -219 1524 -299 1400 -355 C 1276 -411 1146 -440 1012 -440 C 854 -440 707 -404 572 -334 C 436 -264 332 -168 260 -46 C 188 75 152 213 152 367 C 152 539 197 701 288 855 C 379 1009 499 1128 649 1214 C 799 1300 961 1343 1137 1343 C 1268 1343 1384 1315 1484 1260 C 1584 1205 1662 1126 1719 1024 C 1775 922 1804 808 1804 684 C 1804 581 1780 482 1734 387 C 1687 292 1623 215 1542 156 C 1461 97 1377 68 1290 68 C 1238 68 1196 83 1164 115 C 1132 147 1116 190 1116 246 L 1116 252 L 1110 254 C 1082 202 1044 159 997 124 C 950 89 905 72 862 72 C 797 72 746 96 708 146 C 670 195 651 261 651 344 C 651 395 665 455 693 525 C 721 594 756 655 798 707 C 840 759 886 800 938 829 C 989 857 1044 872 1102 872 C 1144 872 1180 859 1210 835 C 1240 810 1257 777 1262 737 L 1268 737 L 1315 860 L 1413 860 L 1225 322 C 1219 308 1213 288 1209 264 C 1204 239 1202 221 1202 209 C 1202 173 1210 144 1228 122 C 1245 100 1268 90 1296 90 C 1376 90 1455 118 1533 176 C 1611 234 1671 308 1714 399 C 1756 490 1778 589 1778 696 C 1778 809 1750 913 1695 1007 C 1639 1101 1562 1175 1464 1228 C 1365 1280 1255 1307 1133 1307 C 986 1307 847 1264 715 1180 C 583 1095 481 983 409 843 C 337 703 301 548 301 377 C 301 232 331 102 391 -14 C 451 -130 536 -221 646 -287 C 756 -353 876 -387 1008 -387 C 1224 -387 1410 -331 1566 -219 C 1722 -107 1832 47 1898 244 L 1915 240 Z M 1251 686 C 1241 745 1223 787 1197 811 C 1171 835 1134 848 1087 848 C 1038 848 989 821 940 769 C 890 717 848 646 813 556 C 777 466 760 385 760 315 C 760 252 769 203 788 167 C 806 131 832 113 866 113 C 967 113 1057 186 1135 332 L 1251 686 Z" unicode="@" />
<glyph horiz-adv-x="1290" d="M 408 571 L 338 478 C 278 401 216 316 152 224 C 117 174 100 139 100 119 C 100 95 121 73 164 54 C 207 35 253 25 303 23 L 297 0 L -236 0 L -229 23 C -208 25 -179 31 -141 43 C -103 54 -73 67 -52 83 C -30 99 -5 122 22 153 C 50 184 121 271 235 413 C 348 555 459 695 567 834 C 675 973 827 1169 1022 1421 L 1049 1421 L 1049 162 C 1049 120 1052 92 1058 80 C 1064 67 1075 57 1090 49 C 1116 35 1157 27 1214 23 L 1208 0 L 662 0 L 668 23 C 761 29 823 42 854 62 C 885 82 901 113 901 156 L 901 571 L 408 571 Z M 432 604 L 901 604 L 901 1204 C 707 958 550 758 432 604 Z" unicode="A" />
<glyph horiz-adv-x="1253" d="M 1253 1139 C 1253 949 1125 822 870 758 L 870 750 C 1066 715 1165 616 1165 453 C 1165 364 1138 285 1085 216 C 1032 147 956 94 858 56 C 760 18 648 0 524 0 L -57 0 L -53 23 L -18 26 C 56 30 106 41 132 58 C 158 74 177 103 188 143 L 494 1237 C 499 1261 502 1277 502 1284 C 502 1294 500 1303 496 1310 C 492 1317 484 1324 473 1332 C 462 1339 440 1347 406 1357 C 372 1366 345 1372 324 1374 L 330 1399 L 899 1399 C 1012 1399 1099 1376 1161 1331 C 1222 1285 1253 1221 1253 1139 Z M 1087 1120 C 1087 1196 1066 1256 1024 1299 C 982 1342 924 1364 850 1364 L 678 1360 L 510 758 L 614 758 C 710 758 794 772 865 802 C 936 832 991 874 1029 930 C 1067 985 1087 1048 1087 1120 Z M 999 449 C 999 537 970 604 913 652 C 855 699 772 723 664 723 L 500 719 L 344 162 L 343 141 C 343 106 357 80 387 63 C 416 45 464 37 530 37 C 621 37 702 55 774 91 C 845 127 900 178 940 242 C 979 306 999 375 999 449 Z" unicode="B" />
<glyph horiz-adv-x="1262" d="M 1339 1419 L 1241 913 L 1212 913 C 1199 1041 1179 1135 1153 1197 C 1127 1259 1090 1306 1042 1338 C 994 1370 931 1386 854 1386 C 755 1386 660 1347 570 1270 C 479 1192 407 1089 353 959 C 299 829 272 689 272 541 C 272 383 308 259 381 169 C 453 79 553 35 680 35 C 738 35 791 46 841 68 C 890 90 937 122 981 165 C 1025 207 1080 277 1145 373 L 1176 354 C 1100 240 1037 160 987 114 C 936 68 880 33 818 7 C 756 -18 685 -31 604 -31 C 508 -31 421 -8 344 37 C 267 82 207 145 165 227 C 123 308 102 400 102 504 C 102 662 136 812 206 953 C 276 1093 372 1207 496 1294 C 620 1381 752 1425 893 1425 C 936 1425 975 1420 1010 1411 C 1044 1402 1075 1391 1101 1378 C 1127 1365 1158 1344 1192 1315 L 1276 1419 L 1339 1419 Z" unicode="C" />
<glyph horiz-adv-x="1485" d="M 1462 856 C 1462 690 1422 543 1343 413 C 1263 283 1151 181 1006 109 C 861 36 700 0 522 0 L -57 0 L -53 23 L -18 26 C 53 30 102 40 129 56 C 155 71 175 100 188 143 L 494 1237 C 499 1261 502 1277 502 1284 C 502 1294 500 1303 496 1310 C 492 1317 484 1324 473 1332 C 462 1339 440 1347 406 1357 C 372 1366 345 1372 324 1374 L 330 1399 L 909 1399 C 1022 1399 1120 1378 1202 1337 C 1284 1295 1347 1234 1393 1153 C 1439 1072 1462 973 1462 856 Z M 1296 838 C 1296 1011 1257 1142 1180 1230 C 1103 1318 990 1362 842 1362 L 680 1358 L 354 197 C 348 175 345 155 345 139 C 345 103 359 78 389 62 C 419 46 469 39 541 39 C 677 39 804 73 920 142 C 1036 210 1128 306 1195 428 C 1262 550 1296 687 1296 838 Z" unicode="D" />
<glyph horiz-adv-x="1274" d="M 1339 1399 L 1251 1079 L 1221 1079 L 1221 1096 C 1221 1138 1215 1179 1203 1219 C 1191 1259 1174 1291 1153 1315 C 1132 1339 1106 1353 1075 1357 C 1043 1361 993 1364 924 1364 L 682 1364 L 510 752 L 690 752 C 741 752 786 761 826 779 C 866 797 899 825 925 865 C 951 904 975 950 997 1004 L 1030 1004 L 870 434 L 842 434 C 850 482 854 520 854 547 C 854 571 852 594 849 614 C 846 634 839 650 829 664 C 818 678 806 688 794 695 C 782 702 766 707 747 711 C 727 715 706 717 682 717 L 502 717 L 362 223 C 348 177 342 144 342 125 C 342 91 355 67 381 55 C 407 43 463 37 549 37 C 672 37 757 40 805 48 C 852 56 885 68 905 84 C 946 118 992 168 1043 234 C 1094 300 1130 353 1151 393 L 1182 393 L 1049 0 L -76 0 L -68 23 C -48 23 -17 25 23 31 C 64 37 91 42 104 47 C 148 63 178 97 193 150 L 494 1235 C 499 1259 502 1276 502 1284 C 502 1303 494 1318 479 1328 C 464 1338 437 1348 399 1357 C 361 1366 330 1372 307 1374 L 315 1399 L 1339 1399 Z" unicode="E" />
<glyph horiz-adv-x="1223" d="M 1391 1399 L 1303 1067 L 1272 1067 C 1272 1123 1266 1172 1254 1214 C 1242 1256 1226 1290 1204 1314 C 1182 1338 1153 1352 1117 1357 C 1080 1361 1027 1364 958 1364 L 682 1364 L 508 748 L 713 748 C 746 748 778 752 810 761 C 842 769 871 782 898 800 C 924 818 949 845 972 883 C 994 920 1014 959 1030 999 L 1065 999 L 903 424 L 868 424 C 875 465 879 511 879 563 C 879 607 874 635 866 647 C 836 689 781 711 702 711 L 500 711 L 346 164 C 340 149 338 133 338 115 C 338 95 345 79 361 69 C 377 58 404 48 444 40 C 483 31 512 26 532 25 L 524 0 L -76 0 L -68 23 C -48 23 -17 25 23 31 C 64 37 91 42 104 47 C 148 63 178 97 193 150 L 494 1235 C 499 1259 502 1276 502 1284 C 502 1303 494 1318 479 1328 C 464 1338 437 1348 399 1357 C 361 1366 330 1372 307 1374 L 315 1399 L 1391 1399 Z" unicode="F" />
<glyph horiz-adv-x="1413" d="M 1446 618 L 1440 592 L 1407 588 C 1341 578 1294 565 1266 548 C 1238 530 1218 500 1206 457 L 1073 -39 L 1055 -43 L 1028 82 C 925 40 855 14 819 3 C 783 -8 747 -16 712 -22 C 676 -28 640 -31 604 -31 C 505 -31 417 -9 341 34 C 265 78 206 141 164 223 C 122 305 102 402 102 516 C 102 674 139 825 215 967 C 291 1109 393 1221 521 1303 C 649 1384 786 1425 934 1425 C 999 1425 1057 1416 1108 1399 C 1159 1382 1206 1354 1249 1315 L 1341 1419 L 1401 1419 L 1288 928 L 1262 928 C 1254 1042 1237 1131 1210 1194 C 1183 1256 1144 1304 1094 1337 C 1044 1369 979 1386 899 1386 C 791 1386 688 1346 589 1267 C 490 1187 413 1083 358 955 C 303 827 276 687 276 537 C 276 375 309 247 376 154 C 443 60 535 14 651 14 C 745 14 824 40 887 93 C 949 145 996 228 1026 340 L 1053 438 C 1057 455 1060 471 1060 486 C 1060 511 1053 530 1041 542 C 1028 554 1003 565 965 573 C 927 581 879 588 823 592 L 829 618 L 1446 618 Z" unicode="G" />
<glyph horiz-adv-x="1626" d="M 1776 1399 L 1767 1374 C 1705 1369 1654 1361 1614 1350 C 1570 1336 1540 1301 1526 1247 L 1219 152 C 1213 131 1210 117 1210 109 C 1210 94 1213 83 1221 76 C 1229 69 1239 61 1253 53 C 1260 48 1279 42 1311 35 C 1342 28 1369 24 1393 23 L 1386 0 L 811 0 L 817 23 C 904 29 957 35 977 43 C 1022 59 1051 92 1065 143 L 1229 725 L 504 725 L 342 152 C 338 140 336 127 336 111 C 336 81 355 59 393 47 C 431 34 474 26 520 23 L 516 0 L -57 0 L -53 23 L -18 26 C 56 30 106 41 132 58 C 158 74 177 103 188 143 L 494 1237 C 499 1261 502 1277 502 1284 C 502 1294 500 1303 496 1310 C 492 1317 484 1324 473 1332 C 462 1339 440 1347 406 1357 C 372 1366 345 1372 324 1374 L 330 1399 L 905 1399 L 899 1374 C 837 1370 783 1362 739 1350 C 696 1336 666 1301 649 1247 L 514 762 L 1237 762 L 1370 1237 C 1375 1261 1378 1278 1378 1286 C 1378 1314 1353 1336 1305 1350 C 1256 1364 1218 1372 1192 1374 L 1202 1399 L 1776 1399 Z" unicode="H" />
<glyph horiz-adv-x="764" d="M 922 1399 L 915 1374 C 852 1369 799 1361 756 1350 C 711 1336 681 1301 666 1247 L 358 152 C 354 133 352 119 352 111 C 352 91 359 75 374 65 C 388 54 413 45 448 37 C 482 29 512 24 537 23 L 532 0 L -41 0 L -37 23 C 44 29 95 35 117 43 C 161 58 190 91 205 143 L 510 1237 C 515 1261 518 1277 518 1284 C 518 1301 511 1315 498 1325 C 485 1335 460 1346 424 1356 C 387 1366 359 1372 340 1374 L 346 1399 L 922 1399 Z" unicode="I" />
<glyph horiz-adv-x="1090" d="M 827 729 L 1094 737 L 1077 686 L 817 684 C 778 502 732 322 680 143 C 633 -13 565 -135 477 -223 C 388 -310 284 -354 166 -354 C 100 -354 49 -340 12 -314 C -24 -288 -43 -249 -43 -199 C -43 -176 -33 -156 -15 -138 C 2 -120 24 -111 49 -111 C 111 -111 143 -139 143 -195 C 143 -211 139 -225 131 -237 C 123 -249 113 -262 102 -276 C 102 -292 108 -305 121 -314 C 133 -323 149 -328 168 -328 C 252 -328 320 -299 372 -242 C 423 -185 469 -92 510 38 C 551 168 594 345 640 569 L 664 682 L 397 680 L 403 715 L 676 723 C 705 810 740 886 780 951 C 820 1015 867 1074 922 1128 C 882 1124 842 1122 804 1122 L 743 1122 C 704 1122 668 1132 636 1152 C 604 1172 572 1204 540 1246 C 506 1290 473 1322 441 1343 C 409 1363 376 1374 340 1374 C 300 1374 263 1356 228 1320 C 193 1284 176 1247 176 1208 C 176 1192 180 1177 188 1165 C 216 1163 240 1154 260 1139 C 280 1123 291 1105 291 1083 C 291 1065 283 1048 268 1034 C 252 1019 235 1012 215 1012 C 185 1012 162 1024 144 1048 C 126 1072 117 1105 117 1147 C 117 1187 132 1231 162 1277 C 192 1323 231 1362 280 1392 C 328 1422 378 1438 428 1438 C 478 1438 522 1427 560 1405 C 598 1383 633 1351 665 1307 C 698 1260 733 1224 770 1200 C 807 1176 850 1161 899 1157 L 944 1157 L 1003 1232 C 1037 1279 1067 1313 1091 1335 C 1115 1357 1138 1368 1159 1368 C 1191 1368 1208 1349 1208 1313 C 1208 1293 1195 1270 1170 1244 C 1145 1218 1112 1195 1072 1175 C 1032 1154 988 1139 942 1130 C 923 1084 907 1039 893 994 C 879 948 857 860 827 729 Z" unicode="J" />
<glyph horiz-adv-x="1440" d="M 1595 1399 L 1589 1374 L 1544 1371 C 1503 1368 1460 1358 1415 1340 C 1369 1322 1328 1298 1292 1268 L 1132 1132 C 943 968 790 845 672 764 C 746 670 859 502 1009 261 C 1049 195 1079 151 1101 129 C 1122 106 1145 87 1170 72 C 1194 56 1219 45 1244 39 C 1269 33 1300 28 1337 25 L 1333 0 L 686 0 L 690 25 C 770 31 826 40 858 52 C 889 64 905 83 905 109 C 905 128 887 171 853 239 C 819 307 773 385 716 475 C 658 564 605 638 557 696 L 498 696 L 342 152 C 338 134 336 121 336 111 C 336 81 355 59 393 47 C 431 34 474 26 520 23 L 516 0 L -57 0 L -53 23 L -18 26 C 56 30 106 41 132 58 C 158 74 177 103 188 143 L 494 1237 C 499 1261 502 1277 502 1284 C 502 1294 499 1303 495 1311 C 491 1318 483 1325 472 1333 C 460 1340 433 1348 390 1357 C 347 1365 311 1371 283 1374 L 289 1399 L 905 1399 L 899 1374 C 837 1370 783 1362 739 1350 C 696 1336 666 1301 649 1247 L 504 725 L 547 725 C 725 844 881 961 1014 1077 C 1147 1192 1214 1270 1214 1311 C 1214 1345 1163 1366 1061 1374 L 1067 1399 L 1595 1399 Z" unicode="K" />
<glyph horiz-adv-x="1257" d="M 1182 397 L 1044 0 L -76 0 L -68 23 C -48 23 -17 25 23 31 C 64 37 91 42 104 47 C 148 63 178 97 193 150 L 494 1235 C 499 1259 502 1276 502 1284 C 502 1303 494 1318 479 1328 C 464 1338 437 1348 399 1357 C 361 1366 330 1372 307 1374 L 315 1399 L 905 1399 L 899 1374 C 837 1370 783 1362 739 1350 C 696 1336 666 1301 649 1247 L 362 223 C 348 177 342 142 342 120 C 342 88 355 67 383 55 C 411 43 469 37 557 37 C 628 37 696 42 762 52 C 828 62 871 75 891 90 C 929 119 975 165 1029 229 C 1083 292 1123 348 1151 397 L 1182 397 Z" unicode="L" />
<glyph horiz-adv-x="1876" d="M 2019 1399 L 2013 1374 C 1951 1370 1897 1362 1853 1350 C 1826 1341 1806 1328 1793 1311 C 1780 1293 1770 1272 1763 1247 L 1479 152 C 1475 138 1473 125 1473 111 C 1473 92 1479 77 1492 67 C 1505 57 1521 49 1539 45 C 1557 40 1578 35 1601 31 C 1624 27 1645 24 1665 23 L 1661 0 L 1090 0 L 1094 23 C 1170 29 1218 35 1239 43 C 1285 59 1314 92 1327 143 L 1608 1245 L 786 23 L 770 23 C 767 69 754 140 730 234 L 713 307 L 522 1210 L 303 389 C 293 353 284 313 276 269 C 268 225 264 195 264 180 C 264 150 268 126 276 109 C 284 91 301 77 326 67 C 350 57 382 47 420 39 C 458 30 490 25 516 23 L 510 0 L -102 0 L -96 23 C -66 25 -28 32 17 44 C 62 56 93 68 109 78 C 161 110 210 210 256 379 L 465 1149 C 473 1181 478 1208 478 1231 C 478 1277 460 1311 425 1335 C 389 1358 341 1371 279 1374 L 285 1399 L 629 1399 L 883 229 L 1546 1223 C 1592 1291 1624 1350 1640 1399 L 2019 1399 Z" unicode="M" />
<glyph horiz-adv-x="1499" d="M 1712 1399 L 1706 1376 C 1678 1374 1641 1367 1596 1356 C 1551 1345 1520 1335 1503 1325 C 1475 1309 1450 1280 1429 1240 C 1407 1200 1385 1137 1362 1051 L 1077 -14 L 1051 -14 L 518 1221 L 297 369 C 275 281 264 218 264 180 C 264 145 269 119 280 101 C 291 83 320 66 366 50 C 412 34 452 25 485 23 L 479 0 L -102 0 L -96 23 C -66 25 -29 32 15 44 C 60 56 91 67 109 78 C 163 112 211 205 252 358 L 457 1122 C 462 1145 465 1168 465 1192 C 465 1252 443 1297 399 1326 C 355 1355 295 1371 219 1374 L 227 1399 L 598 1399 L 1106 223 L 1317 1038 C 1339 1126 1350 1189 1350 1229 C 1350 1260 1344 1284 1333 1301 C 1322 1317 1292 1334 1244 1350 C 1195 1366 1156 1374 1128 1376 L 1135 1399 L 1712 1399 Z" unicode="N" />
<glyph horiz-adv-x="1436" d="M 1407 881 C 1407 722 1370 571 1296 427 C 1222 283 1125 170 1005 89 C 885 7 754 -33 614 -33 C 528 -33 445 -8 367 40 C 288 89 226 156 180 241 C 134 326 111 421 111 526 C 111 684 147 832 220 971 C 292 1109 391 1220 515 1304 C 639 1388 767 1430 897 1430 C 989 1430 1075 1405 1155 1355 C 1235 1305 1297 1238 1341 1155 C 1385 1071 1407 980 1407 881 Z M 1241 924 C 1241 1066 1209 1179 1147 1263 C 1085 1347 999 1389 889 1389 C 776 1389 673 1348 581 1268 C 488 1187 414 1073 359 927 C 303 780 276 628 276 471 C 276 333 307 221 370 136 C 433 50 520 8 631 8 C 743 8 844 47 936 127 C 1028 206 1101 318 1157 463 C 1213 608 1241 762 1241 924 Z" unicode="O" />
<glyph horiz-adv-x="1204" d="M 1249 1098 C 1249 964 1192 858 1078 780 C 964 701 807 662 608 662 L 485 662 L 342 150 C 338 134 336 121 336 111 C 336 81 355 59 393 47 C 431 34 474 26 520 23 L 516 0 L -57 0 L -53 23 L -18 26 C 56 30 106 41 132 58 C 158 74 177 103 188 143 L 494 1237 C 499 1261 502 1277 502 1284 C 502 1294 500 1303 496 1310 C 492 1317 484 1324 473 1332 C 462 1339 440 1347 406 1357 C 372 1366 345 1372 324 1374 L 330 1399 L 862 1399 C 988 1399 1084 1372 1150 1320 C 1216 1267 1249 1193 1249 1098 Z M 1083 1079 C 1083 1167 1059 1236 1013 1286 C 967 1336 895 1362 799 1362 L 680 1362 L 498 702 L 623 702 C 771 702 885 733 964 796 C 1043 859 1083 953 1083 1079 Z" unicode="P" />
<glyph horiz-adv-x="1333" d="M 623 70 C 658 46 691 17 722 -16 C 752 -49 783 -84 813 -120 C 843 -156 874 -192 906 -228 C 938 -264 973 -296 1011 -324 C 1049 -352 1092 -375 1139 -393 C 1186 -411 1240 -420 1300 -420 C 1382 -420 1439 -412 1470 -397 L 1470 -391 C 1424 -374 1401 -345 1401 -305 C 1401 -283 1410 -263 1429 -246 C 1447 -229 1470 -221 1497 -221 C 1518 -221 1536 -228 1550 -242 C 1564 -256 1571 -274 1571 -295 C 1571 -327 1556 -358 1527 -388 C 1497 -418 1457 -443 1406 -461 C 1355 -479 1300 -489 1241 -489 C 1163 -489 1095 -479 1038 -460 C 981 -441 932 -416 890 -386 C 848 -356 812 -321 782 -283 C 752 -244 724 -205 699 -166 C 674 -127 650 -90 627 -54 C 603 -18 578 11 551 37 C 436 -8 327 -31 225 -31 C 153 -31 93 -19 47 4 C 0 28 -23 60 -23 100 C -23 138 2 171 52 199 C 102 227 158 242 219 242 C 272 242 328 231 386 210 C 444 188 513 150 594 94 C 700 150 795 225 878 320 C 961 414 1026 522 1072 642 C 1118 762 1141 888 1141 1018 C 1141 1131 1113 1221 1057 1289 C 1001 1357 925 1391 829 1391 C 728 1391 633 1361 543 1301 C 453 1241 382 1161 328 1061 C 274 961 248 860 248 760 C 248 676 270 609 316 560 C 362 511 423 487 500 487 C 596 487 670 514 720 569 C 770 624 795 702 795 803 C 795 860 785 908 766 946 C 747 984 723 1006 694 1012 C 701 993 705 975 705 959 C 705 933 698 912 684 896 C 670 880 653 872 631 872 C 577 872 551 897 551 948 C 551 976 564 1001 590 1025 C 616 1049 647 1061 682 1061 C 735 1061 779 1039 813 996 C 847 952 864 897 864 829 C 864 759 847 695 814 637 C 780 579 735 533 677 499 C 619 465 560 449 498 449 C 396 449 315 484 253 556 C 191 627 160 720 160 834 C 160 934 190 1030 251 1122 C 312 1214 394 1289 497 1345 C 599 1401 707 1430 819 1430 C 972 1430 1090 1388 1173 1304 C 1256 1220 1298 1102 1298 948 C 1298 837 1270 727 1216 617 C 1162 507 1082 403 976 306 C 870 209 753 130 623 70 Z M 526 61 C 469 118 418 158 372 180 C 326 202 277 213 227 213 C 191 213 158 202 128 181 C 98 159 82 134 78 106 C 86 74 106 49 138 29 C 170 9 206 0 244 0 C 338 0 432 20 526 61 Z" unicode="Q" />
<glyph horiz-adv-x="1425" d="M 1366 311 C 1330 189 1290 102 1246 52 C 1202 2 1149 -23 1087 -23 C 1021 -23 972 -6 942 26 C 912 58 897 113 897 190 L 897 408 C 897 489 888 550 871 591 C 854 631 825 660 785 677 C 745 693 673 702 571 702 L 496 702 L 340 152 C 336 134 334 121 334 111 C 334 79 355 57 398 45 C 441 32 482 25 520 23 L 516 0 L -57 0 L -53 23 L -18 26 C 56 30 106 41 132 58 C 158 74 177 103 188 143 L 494 1237 C 499 1261 502 1277 502 1284 C 502 1294 500 1303 496 1310 C 492 1317 484 1324 473 1332 C 462 1339 440 1347 406 1357 C 372 1366 345 1372 324 1374 L 330 1399 L 872 1399 C 1010 1399 1113 1374 1180 1326 C 1246 1277 1280 1210 1280 1124 C 1280 918 1131 785 834 727 L 834 721 C 908 709 964 680 1000 633 C 1036 585 1055 518 1055 430 L 1055 195 C 1055 142 1061 105 1074 83 C 1086 61 1109 51 1141 51 C 1218 51 1283 140 1337 319 L 1366 311 Z M 1112 1102 C 1112 1190 1087 1256 1039 1298 C 990 1340 924 1362 840 1362 L 680 1362 L 506 741 L 637 741 C 785 741 901 772 985 836 C 1069 899 1112 988 1112 1102 Z" unicode="R" />
<glyph horiz-adv-x="1069" d="M 1155 1419 L 1038 954 L 1014 954 C 999 1112 968 1223 920 1287 C 872 1351 801 1384 707 1384 C 613 1384 535 1357 473 1305 C 411 1253 381 1186 381 1104 C 381 1058 388 1020 402 989 C 416 957 439 927 472 899 C 504 871 563 832 649 784 C 751 726 821 682 859 650 C 897 618 926 584 945 550 C 963 515 973 475 973 430 C 973 343 950 265 904 195 C 858 125 794 70 712 31 C 630 -7 539 -27 438 -27 C 370 -27 304 -17 242 2 C 179 22 130 46 94 76 L 0 -20 L -49 -20 L 66 459 L 92 459 C 110 306 152 194 217 122 C 282 50 368 14 475 14 C 547 14 612 27 669 54 C 726 81 770 119 802 169 C 834 218 850 272 850 330 C 850 377 843 416 830 447 C 817 477 795 506 763 533 C 731 559 663 602 557 662 C 441 726 363 784 322 836 C 280 888 260 946 260 1010 C 260 1084 280 1153 321 1217 C 361 1281 418 1332 490 1369 C 562 1406 642 1425 731 1425 C 784 1425 836 1415 887 1397 C 938 1378 979 1353 1010 1323 L 1106 1419 L 1155 1419 Z" unicode="S" />
<glyph horiz-adv-x="1264" d="M 1473 1399 L 1372 1042 L 1343 1042 C 1343 1096 1338 1145 1328 1191 C 1318 1236 1305 1272 1287 1300 C 1269 1328 1249 1345 1226 1353 C 1202 1360 1143 1364 1049 1364 L 942 1364 L 612 160 C 608 146 606 131 606 115 C 606 103 608 92 613 84 C 618 76 627 68 639 61 C 651 54 680 46 728 38 C 776 29 809 24 829 23 L 823 0 L 176 0 L 182 23 C 279 29 340 37 365 47 C 409 63 439 97 455 150 L 791 1364 L 684 1364 C 620 1364 564 1361 516 1356 C 490 1352 457 1333 415 1297 C 373 1261 333 1217 293 1166 C 253 1114 225 1073 209 1042 L 180 1042 L 281 1399 L 1473 1399 Z" unicode="T" />
<glyph horiz-adv-x="1610" d="M 1784 1399 L 1778 1376 C 1750 1374 1713 1367 1668 1356 C 1623 1345 1592 1335 1575 1325 C 1549 1310 1525 1282 1503 1242 C 1481 1202 1456 1132 1427 1032 L 1268 473 C 1216 292 1143 162 1048 84 C 952 6 826 -33 668 -33 C 521 -33 413 -4 343 52 C 273 108 238 188 238 291 C 238 353 247 417 266 485 L 475 1237 C 480 1261 483 1277 483 1284 C 483 1301 476 1315 463 1325 C 450 1335 425 1346 389 1356 C 352 1366 324 1372 305 1374 L 311 1399 L 887 1399 L 881 1374 C 819 1370 765 1362 721 1350 C 676 1335 646 1301 631 1247 L 430 526 C 404 430 391 351 391 287 C 391 211 422 150 484 104 C 546 58 628 35 729 35 C 859 35 965 72 1045 146 C 1125 220 1187 332 1229 481 L 1382 1020 C 1392 1051 1401 1087 1409 1129 C 1417 1171 1421 1204 1421 1229 C 1421 1260 1415 1284 1405 1300 C 1395 1316 1365 1333 1317 1349 C 1268 1365 1229 1374 1200 1376 L 1206 1399 L 1784 1399 Z" unicode="U" />
<glyph horiz-adv-x="1290" d="M 1622 1399 L 1616 1376 C 1594 1374 1566 1367 1532 1357 C 1497 1346 1469 1334 1447 1321 C 1425 1307 1404 1290 1382 1268 C 1360 1246 1328 1209 1286 1155 C 1103 929 796 537 365 -23 L 338 -23 L 338 1237 C 338 1276 335 1302 330 1315 C 325 1327 317 1337 305 1345 C 293 1353 275 1359 251 1365 C 227 1370 201 1374 172 1376 L 178 1399 L 725 1399 L 719 1376 C 623 1370 560 1356 530 1336 C 500 1315 485 1284 485 1243 L 485 195 L 946 784 C 1033 896 1107 995 1167 1079 C 1227 1163 1262 1215 1272 1234 C 1281 1252 1286 1268 1286 1280 C 1286 1303 1266 1324 1226 1342 C 1186 1360 1139 1371 1083 1376 L 1090 1399 L 1622 1399 Z" unicode="V" />
<glyph horiz-adv-x="1939" d="M 2259 1399 L 2253 1374 C 2233 1372 2209 1368 2181 1360 C 2153 1352 2129 1343 2109 1333 C 2089 1323 2069 1308 2050 1288 C 2030 1268 1999 1227 1956 1163 L 1167 -16 L 1122 -16 L 1122 1090 L 385 -16 L 338 -16 L 338 1237 C 338 1275 335 1301 330 1314 C 324 1326 316 1336 305 1344 C 294 1352 277 1358 255 1364 C 232 1369 204 1373 172 1376 L 178 1399 L 725 1399 L 719 1376 C 623 1370 560 1356 530 1336 C 500 1315 485 1284 485 1243 L 485 186 L 1110 1139 C 1118 1177 1122 1215 1122 1253 C 1122 1289 1117 1315 1107 1329 C 1097 1343 1078 1353 1052 1361 C 1026 1368 994 1373 956 1376 L 963 1399 L 1507 1399 L 1501 1376 C 1405 1370 1343 1356 1313 1336 C 1283 1316 1268 1285 1268 1243 L 1268 188 L 1837 1059 C 1878 1122 1904 1167 1916 1195 C 1927 1222 1933 1249 1933 1276 C 1933 1302 1914 1324 1877 1342 C 1840 1360 1792 1370 1733 1374 L 1739 1399 L 2259 1399 Z" unicode="W" />
<glyph horiz-adv-x="1460" d="M 717 686 L 498 1208 C 481 1247 466 1275 454 1292 C 441 1308 419 1326 387 1346 C 363 1358 314 1368 240 1374 L 246 1399 L 918 1399 L 901 1374 C 809 1370 744 1359 706 1343 C 668 1326 649 1302 649 1272 C 649 1248 659 1206 679 1148 C 699 1089 747 969 821 788 C 902 863 997 961 1107 1082 C 1217 1203 1272 1275 1272 1298 C 1272 1324 1255 1342 1222 1353 C 1189 1363 1141 1370 1077 1374 L 1083 1399 L 1634 1399 L 1628 1374 C 1574 1370 1528 1360 1488 1345 C 1448 1329 1407 1306 1365 1274 C 1323 1242 1274 1198 1218 1144 C 1162 1090 1034 959 836 752 L 1069 190 C 1081 160 1094 134 1108 114 C 1122 94 1137 77 1153 65 C 1169 53 1187 44 1207 38 C 1227 32 1264 28 1319 25 L 1313 0 L 641 0 L 647 25 C 753 30 824 41 862 57 C 899 73 918 97 918 129 C 918 172 855 347 731 653 C 397 331 231 148 231 104 C 231 74 247 54 281 44 C 315 34 362 27 424 25 L 418 0 L -133 0 L -127 25 C -71 29 -21 40 22 58 C 66 76 111 103 158 141 C 205 179 291 260 416 386 L 717 686 Z" unicode="X" />
<glyph horiz-adv-x="1255" d="M 1464 1329 C 1464 1299 1455 1276 1437 1258 C 1419 1240 1396 1231 1368 1231 C 1343 1231 1323 1237 1308 1250 C 1293 1263 1286 1279 1286 1298 C 1286 1311 1288 1325 1294 1341 C 1300 1356 1306 1368 1313 1376 L 1305 1384 C 1242 1377 1172 1340 1095 1273 C 1018 1206 951 1122 894 1021 C 837 920 794 810 764 690 L 629 152 C 625 134 623 121 623 111 C 625 85 641 65 670 51 C 676 47 700 41 742 34 C 783 26 814 23 834 23 L 829 0 L 240 0 L 244 23 C 319 29 368 35 391 43 C 435 58 463 91 475 143 L 604 666 C 612 696 619 738 625 791 C 631 843 635 894 635 944 C 635 1060 612 1151 566 1218 C 520 1285 457 1319 375 1319 C 324 1319 278 1299 237 1259 C 195 1219 164 1166 143 1100 L 117 1108 C 187 1318 306 1423 473 1423 C 561 1423 629 1386 679 1314 C 729 1242 754 1144 754 1020 C 754 967 747 901 735 823 L 754 823 C 919 1224 1115 1425 1343 1425 C 1379 1425 1408 1416 1430 1398 C 1452 1380 1464 1357 1464 1329 Z" unicode="Y" />
<glyph horiz-adv-x="1190" d="M 1366 1399 L 1358 1374 L 72 35 L 473 35 C 642 35 751 52 801 88 C 849 125 901 177 959 243 C 1017 309 1062 368 1096 420 L 1124 420 L 975 0 L -127 0 L -121 25 L 1165 1364 L 793 1364 C 719 1364 664 1361 630 1356 C 595 1351 558 1334 518 1305 C 478 1276 434 1235 386 1182 C 338 1128 296 1075 262 1022 L 233 1022 L 373 1399 L 1366 1399 Z" unicode="Z" />
<glyph horiz-adv-x="1208" d="M 1352 1489 C 1352 1442 1335 1399 1301 1360 C 1267 1321 1220 1290 1161 1268 C 1102 1246 1041 1235 979 1235 C 915 1235 855 1243 797 1260 C 739 1277 675 1306 603 1348 L 469 1423 L 14 -260 L 188 -184 C 279 -144 359 -116 427 -98 C 495 -80 561 -72 625 -72 C 711 -72 777 -87 821 -119 C 865 -150 887 -191 887 -242 C 887 -278 877 -310 858 -337 C 838 -363 813 -389 782 -414 L 758 -406 C 775 -390 790 -371 803 -347 C 816 -323 823 -303 823 -285 C 823 -241 763 -219 643 -219 C 564 -219 477 -224 381 -236 C 285 -248 151 -272 -23 -309 L -63 -326 L 422 1489 L 455 1473 C 610 1434 729 1409 813 1398 C 896 1387 985 1382 1079 1382 C 1158 1382 1217 1391 1255 1410 C 1293 1428 1313 1458 1313 1499 C 1313 1520 1308 1541 1298 1563 L 1321 1575 C 1330 1567 1337 1554 1343 1538 C 1349 1522 1352 1505 1352 1489 Z" unicode="[" />
<glyph horiz-adv-x="823" d="M 340 1524 L 401 1540 L 520 -410 L 459 -426 L 340 1524 Z" unicode="\" />
<glyph horiz-adv-x="1208" d="M -113 -328 C -113 -281 -96 -238 -62 -199 C -28 -160 18 -129 77 -107 C 136 -85 197 -74 260 -74 C 323 -74 383 -82 441 -99 C 499 -116 564 -145 637 -186 L 770 -262 L 1225 1421 L 1051 1346 C 959 1306 880 1277 812 1259 C 744 1241 678 1233 614 1233 C 527 1233 462 1248 418 1280 C 374 1312 352 1353 352 1403 C 352 1440 361 1472 381 1498 C 400 1524 425 1550 457 1575 L 481 1567 C 466 1555 451 1537 437 1512 C 423 1486 416 1464 416 1446 C 416 1402 476 1380 596 1380 C 674 1380 761 1385 856 1397 C 951 1409 1086 1433 1262 1470 L 1303 1487 L 817 -328 L 784 -311 C 646 -278 551 -257 499 -248 C 446 -239 392 -232 337 -228 C 281 -223 222 -221 160 -221 C 80 -221 21 -230 -16 -249 C -54 -267 -74 -297 -74 -338 C -74 -358 -69 -379 -59 -401 L -82 -414 C -91 -405 -98 -392 -104 -376 C -110 -360 -113 -344 -113 -328 Z" unicode="]" />
<glyph horiz-adv-x="1151" d="M 219 999 L 616 1524 L 756 1524 L 983 999 L 836 999 L 647 1313 L 365 999 L 219 999 Z" unicode="^" />
<glyph horiz-adv-x="1221" d="M 1032 -287 L -217 -287 L -217 -225 L 1032 -225 L 1032 -287 Z" unicode="_" />
<glyph horiz-adv-x="1024" d="M 850 1092 L 827 1079 L 758 1153 L 636 1287 L 594 1331 C 560 1363 543 1396 543 1432 C 543 1450 548 1465 560 1478 C 572 1490 587 1497 606 1497 C 626 1497 642 1491 655 1480 C 667 1468 681 1447 696 1417 C 711 1386 762 1278 850 1092 Z" unicode="`" />
<glyph horiz-adv-x="1081" d="M 985 932 L 750 262 C 724 190 711 134 711 92 C 711 38 732 12 774 12 C 820 12 866 36 911 86 C 955 135 995 205 1030 295 L 1055 287 C 1009 173 961 92 912 46 C 863 0 807 -23 745 -23 C 657 -23 613 22 613 112 C 613 140 618 174 629 213 L 625 215 C 583 137 535 77 481 35 C 426 -6 369 -27 309 -27 C 225 -27 160 0 115 55 C 69 109 47 189 47 295 C 47 365 62 442 93 527 C 123 611 163 685 211 747 C 259 809 315 857 379 892 C 443 926 512 944 586 944 C 640 944 686 928 725 898 C 763 868 788 829 799 782 L 803 782 L 856 932 L 985 932 Z M 786 737 C 778 790 755 833 719 865 C 683 897 637 913 582 913 C 515 913 452 883 394 824 C 336 764 287 679 248 569 C 209 458 190 350 190 246 C 190 97 238 23 336 23 C 389 23 438 40 484 76 C 530 111 577 172 625 258 L 786 737 Z" unicode="a" />
<glyph horiz-adv-x="999" d="M 952 623 C 952 550 937 471 907 387 C 877 303 838 230 790 168 C 742 106 686 58 622 24 C 558 -9 488 -27 414 -27 C 318 -27 241 -1 185 51 C 128 103 100 170 100 254 C 100 295 109 346 129 408 L 403 1264 C 423 1326 434 1371 434 1401 C 434 1427 421 1445 395 1455 C 369 1465 333 1471 287 1473 L 223 1475 L 223 1499 L 621 1520 L 367 748 L 371 745 C 405 801 452 849 510 887 C 568 925 623 944 676 944 C 764 944 832 915 880 859 C 928 803 952 724 952 623 Z M 809 672 C 809 744 795 799 768 837 C 740 875 701 895 649 895 C 593 895 538 873 483 830 C 427 786 380 729 340 659 L 205 231 C 205 159 223 103 261 63 C 299 23 351 4 418 4 C 484 4 547 33 605 93 C 663 152 712 237 751 348 C 789 459 809 567 809 672 Z" unicode="b" />
<glyph horiz-adv-x="797" d="M 788 750 C 788 718 780 693 766 675 C 752 656 732 647 707 647 C 682 647 660 654 641 670 C 621 685 612 705 612 729 C 612 748 620 768 638 788 C 655 808 679 824 709 836 C 706 860 692 880 667 896 C 642 912 613 920 580 920 C 519 920 459 887 400 823 C 340 758 291 671 252 563 C 212 455 193 351 193 252 C 193 177 207 120 237 82 C 267 44 308 25 362 25 C 426 25 489 48 552 96 C 615 144 672 214 723 307 L 748 295 C 690 189 625 109 554 54 C 483 -1 408 -29 330 -29 C 274 -29 225 -16 183 8 C 141 33 107 69 83 117 C 59 164 47 223 47 295 C 47 387 74 488 128 596 C 182 704 248 789 328 851 C 407 913 489 944 573 944 C 637 944 689 926 729 891 C 768 856 788 809 788 750 Z" unicode="c" />
<glyph horiz-adv-x="1102" d="M 1171 1520 L 776 262 C 754 195 744 141 744 100 C 744 41 766 12 811 12 C 854 12 895 34 933 78 C 971 122 1011 195 1051 295 L 1075 287 C 1039 198 1007 134 981 95 C 954 55 925 26 893 6 C 861 -13 824 -23 782 -23 C 690 -23 645 25 645 123 C 645 149 649 179 657 213 L 653 215 C 605 136 550 76 490 35 C 429 -6 369 -27 309 -27 C 225 -27 160 0 115 55 C 69 109 47 189 47 295 C 47 368 62 447 92 531 C 122 615 161 688 209 749 C 257 810 313 858 377 892 C 441 926 511 944 586 944 C 640 944 687 928 728 898 C 769 868 796 829 809 782 L 813 782 L 958 1264 C 978 1334 989 1380 989 1401 C 989 1438 961 1460 905 1466 L 831 1472 L 756 1475 L 756 1499 L 1171 1520 Z M 797 737 C 787 788 763 830 725 863 C 687 896 639 913 582 913 C 515 913 452 883 394 824 C 336 764 287 679 248 569 C 209 458 190 350 190 246 C 190 97 238 23 336 23 C 394 23 451 43 505 83 C 559 123 607 182 651 258 L 797 737 Z" unicode="d" />
<glyph horiz-adv-x="799" d="M 190 246 C 190 175 205 120 236 82 C 267 44 311 25 367 25 C 495 25 613 121 719 313 L 743 303 C 685 194 622 111 553 55 C 484 0 412 -29 336 -29 C 246 -29 175 0 124 59 C 72 117 47 197 47 299 C 47 363 63 437 97 521 C 130 605 173 679 225 743 C 277 807 336 856 402 891 C 468 926 536 944 608 944 C 660 944 704 931 739 906 C 773 881 791 848 791 807 C 791 741 765 682 715 628 C 664 574 592 529 499 494 C 406 458 311 438 213 434 C 197 370 190 307 190 246 Z M 217 457 C 309 466 389 488 455 522 C 521 556 572 597 610 646 C 647 695 666 745 666 795 C 666 873 631 913 561 913 C 495 913 428 868 362 778 C 295 688 247 581 217 457 Z" unicode="e" />
<glyph horiz-adv-x="629" d="M 981 1278 C 954 1278 931 1285 912 1299 C 892 1313 883 1332 883 1354 C 883 1368 887 1387 897 1410 C 906 1432 911 1449 913 1460 C 913 1469 908 1476 899 1482 C 889 1488 879 1491 868 1491 C 789 1491 719 1453 658 1379 C 596 1304 546 1196 506 1055 L 465 911 L 723 911 L 707 860 L 453 860 L 401 658 C 338 416 287 229 247 95 C 207 -38 161 -146 110 -229 C 59 -311 2 -374 -59 -418 C -121 -461 -186 -483 -252 -483 C -308 -483 -353 -469 -385 -443 C -417 -417 -434 -380 -434 -334 C -434 -310 -425 -288 -407 -270 C -389 -251 -368 -242 -344 -242 C -317 -242 -295 -249 -277 -265 C -259 -281 -250 -301 -250 -326 C -250 -344 -254 -359 -262 -373 C -270 -386 -279 -400 -289 -416 C -287 -428 -282 -437 -273 -443 C -263 -449 -255 -453 -248 -453 C -178 -453 -120 -425 -73 -371 C -26 -316 20 -219 67 -80 C 113 59 183 312 276 680 L 322 860 L 104 860 L 119 911 L 336 911 L 358 993 C 404 1159 475 1288 571 1382 C 667 1475 773 1522 889 1522 C 943 1522 986 1508 1020 1481 C 1054 1453 1071 1418 1071 1376 C 1071 1348 1062 1325 1045 1306 C 1028 1287 1007 1278 981 1278 Z" unicode="f" />
<glyph horiz-adv-x="938" d="M 1004 858 C 1004 831 995 810 979 794 C 963 778 943 770 920 770 C 890 770 870 780 860 802 C 850 824 846 853 846 891 C 802 891 761 878 721 852 L 721 842 C 734 821 745 796 754 767 C 763 737 768 712 768 692 C 768 592 735 509 669 445 C 603 380 521 348 422 348 L 287 348 C 254 340 226 325 204 304 C 181 282 170 258 170 230 C 170 205 177 186 193 173 C 209 160 235 150 273 142 C 311 134 362 128 426 125 C 571 112 664 98 704 82 C 744 66 772 42 790 11 C 808 -20 817 -60 817 -109 C 817 -174 793 -235 745 -293 C 697 -350 632 -395 548 -429 C 464 -462 372 -479 270 -479 C 158 -479 70 -458 5 -417 C -59 -376 -92 -322 -92 -254 C -92 -181 -61 -120 -1 -71 C 59 -22 144 9 254 25 L 254 31 C 190 42 144 59 116 81 C 88 103 74 132 74 168 C 74 208 91 246 127 281 C 163 316 214 345 281 367 L 281 371 C 231 393 192 424 165 462 C 138 500 125 542 125 588 C 125 652 141 712 175 767 C 209 821 256 864 316 896 C 376 928 442 944 512 944 C 544 944 576 938 609 928 C 641 918 670 905 694 891 L 721 877 C 771 903 811 920 841 930 C 871 939 897 944 920 944 C 942 944 961 935 978 919 C 995 902 1004 882 1004 858 Z M 645 745 C 645 801 631 844 605 874 C 579 903 544 918 500 918 C 458 918 419 901 383 869 C 347 836 316 790 292 732 C 268 674 256 620 256 571 C 256 510 270 462 300 427 C 330 392 369 375 418 375 C 456 375 492 391 526 423 C 560 455 588 502 611 564 C 633 626 645 687 645 745 Z M 264 10 C 197 -6 142 -37 99 -84 C 56 -130 35 -184 35 -246 C 35 -307 60 -356 112 -393 C 164 -430 234 -449 322 -449 C 440 -449 532 -420 600 -364 C 668 -308 702 -234 702 -143 C 702 -111 695 -85 682 -65 C 669 -45 651 -32 627 -27 C 549 -10 454 0 340 6 L 264 10 Z" unicode="g" />
<glyph horiz-adv-x="1083" d="M 1053 287 C 1017 200 986 137 959 97 C 931 57 901 27 869 7 C 837 -13 800 -23 760 -23 C 704 -23 661 -9 631 18 C 601 45 586 85 586 137 C 586 161 590 187 598 214 C 606 241 617 272 631 307 L 752 627 C 782 713 797 769 797 797 C 797 862 756 895 674 895 C 616 895 557 871 499 824 C 441 777 392 715 352 637 L 152 0 L 20 0 L 420 1264 C 439 1330 449 1375 449 1401 C 449 1426 436 1444 412 1454 C 388 1464 351 1471 303 1473 L 240 1475 L 240 1499 L 637 1520 L 377 733 L 381 731 C 421 794 470 845 528 885 C 586 924 642 944 698 944 C 761 944 812 923 852 882 C 891 841 911 789 911 727 C 911 685 898 631 872 563 L 758 262 C 725 174 709 113 709 80 C 709 57 714 40 726 29 C 737 17 756 12 784 12 C 874 12 955 106 1028 295 L 1053 287 Z" unicode="h" />
<glyph horiz-adv-x="645" d="M 651 1335 C 651 1298 641 1268 621 1245 C 601 1221 574 1210 541 1210 C 511 1210 490 1219 476 1239 C 462 1258 455 1281 455 1309 C 455 1345 466 1375 488 1398 C 510 1420 539 1432 573 1432 C 595 1432 614 1422 629 1402 C 643 1382 651 1359 651 1335 Z M 600 287 C 550 165 504 83 460 41 C 416 -1 366 -23 309 -23 C 199 -23 145 30 145 137 C 145 180 158 237 186 307 L 324 655 C 355 737 371 798 371 838 C 371 866 365 885 354 895 C 342 905 326 911 305 911 C 261 911 221 889 184 845 C 146 801 108 728 68 625 L 43 633 C 81 725 114 790 140 828 C 166 866 194 894 226 914 C 257 934 293 944 334 944 C 384 944 422 928 449 897 C 475 866 489 824 489 770 C 489 734 468 665 426 563 L 309 262 C 277 180 262 118 262 78 C 262 34 286 12 336 12 C 382 12 424 35 463 83 C 501 131 539 201 575 295 L 600 287 Z" unicode="i" />
<glyph horiz-adv-x="557" d="M 635 1335 C 635 1297 624 1267 604 1244 C 583 1221 556 1210 524 1210 C 495 1210 473 1219 459 1239 C 445 1258 438 1281 438 1309 C 438 1345 449 1375 471 1398 C 493 1420 522 1432 557 1432 C 578 1432 596 1422 612 1402 C 627 1382 635 1360 635 1335 Z M 489 772 C 489 762 485 738 479 702 C 472 666 450 577 413 435 C 376 293 339 163 303 45 C 267 -69 224 -165 173 -243 C 121 -321 65 -380 3 -421 C -58 -462 -120 -483 -184 -483 C -233 -483 -273 -469 -305 -443 C -336 -417 -352 -384 -352 -344 C -352 -319 -344 -297 -330 -278 C -315 -259 -294 -250 -266 -250 C -240 -250 -219 -257 -203 -272 C -186 -287 -178 -306 -178 -330 C -178 -359 -189 -388 -213 -416 C -210 -440 -198 -453 -178 -453 C -104 -453 -41 -418 9 -350 C 60 -281 109 -168 156 -12 C 214 179 280 421 354 713 C 365 755 371 793 371 829 C 371 883 350 911 309 911 C 266 911 225 888 187 842 C 148 796 110 724 72 625 L 47 633 C 82 721 113 784 139 823 C 165 862 195 892 227 913 C 259 933 296 944 338 944 C 438 944 489 886 489 772 Z" unicode="j" />
<glyph horiz-adv-x="1071" d="M 1057 817 C 1057 787 1047 760 1027 736 C 1007 712 982 700 952 700 C 932 700 914 706 898 718 C 882 730 874 745 874 762 C 874 783 877 799 883 810 C 889 820 897 829 905 836 C 913 843 920 850 928 856 C 936 862 941 872 944 885 C 938 898 931 908 923 914 C 915 920 901 924 883 924 C 857 924 834 912 814 889 C 794 866 769 823 741 760 C 688 644 617 573 528 549 C 580 529 615 512 635 496 C 655 480 669 460 679 437 C 689 414 694 386 694 354 C 694 314 688 267 677 213 C 665 157 659 120 659 102 C 659 69 665 46 677 33 C 689 20 706 14 729 14 C 819 14 901 107 973 295 L 997 287 C 953 175 908 95 862 48 C 816 0 762 -23 702 -23 C 642 -23 598 -10 572 14 C 545 39 532 80 532 137 C 532 167 539 215 553 281 C 566 345 573 385 573 401 C 573 447 560 481 534 501 C 508 521 466 532 408 532 L 317 528 L 147 0 L 16 0 L 418 1264 C 436 1321 446 1367 446 1401 C 446 1426 434 1444 410 1454 C 386 1464 350 1470 301 1473 L 238 1475 L 238 1499 L 635 1520 L 326 561 L 382 559 L 442 559 C 495 559 540 574 577 606 C 613 638 646 686 676 752 C 706 818 738 867 773 898 C 808 928 851 944 901 944 C 955 944 995 932 1020 909 C 1044 885 1057 855 1057 817 Z" unicode="k" />
<glyph horiz-adv-x="561" d="M 633 1520 L 229 258 C 203 177 190 118 190 80 C 190 55 196 38 208 28 C 220 18 237 14 260 14 C 350 14 431 107 504 295 L 528 287 C 483 172 438 92 394 46 C 349 0 296 -23 236 -23 C 180 -23 139 -9 114 17 C 88 43 76 83 76 135 C 76 168 88 225 113 307 L 416 1264 C 434 1321 444 1367 444 1401 C 444 1426 432 1444 408 1454 C 384 1464 347 1470 297 1472 L 233 1475 L 233 1499 L 633 1520 Z" unicode="l" />
<glyph horiz-adv-x="1718" d="M 1690 287 C 1654 200 1623 137 1596 97 C 1568 57 1538 27 1506 7 C 1474 -13 1437 -23 1397 -23 C 1341 -23 1298 -9 1268 18 C 1238 45 1223 85 1223 137 C 1223 161 1227 187 1235 214 C 1243 241 1254 272 1268 307 L 1389 627 C 1419 713 1434 769 1434 797 C 1434 862 1393 895 1311 895 C 1208 895 1110 824 1016 684 L 793 0 L 655 0 L 872 655 C 878 673 885 697 893 728 C 901 758 905 781 905 797 C 905 862 864 895 782 895 C 724 895 666 871 608 824 C 550 776 501 714 461 637 L 248 0 L 111 0 L 332 655 C 362 741 377 806 377 850 C 377 874 371 891 361 899 C 350 907 336 911 319 911 C 272 911 229 887 190 841 C 151 795 113 723 76 625 L 51 633 C 89 726 122 791 148 828 C 174 865 202 894 234 914 C 265 934 301 944 342 944 C 386 944 420 930 445 904 C 469 878 482 841 482 794 C 482 769 478 741 471 709 L 475 707 C 511 775 561 831 623 876 C 685 921 747 944 807 944 C 868 944 916 927 950 893 C 984 859 1002 813 1003 755 L 999 709 L 1004 707 C 1041 776 1091 833 1153 877 C 1215 921 1275 944 1335 944 C 1398 944 1449 923 1489 882 C 1528 841 1548 789 1548 727 C 1548 709 1544 685 1536 653 C 1528 621 1519 591 1509 563 L 1395 262 C 1362 177 1346 116 1346 80 C 1346 57 1351 40 1363 29 C 1374 17 1393 12 1421 12 C 1465 12 1507 34 1547 80 C 1586 125 1625 197 1665 295 L 1690 287 Z" unicode="m" />
<glyph horiz-adv-x="1190" d="M 1161 287 C 1125 200 1094 137 1067 97 C 1039 57 1009 27 977 7 C 945 -13 908 -23 868 -23 C 812 -23 769 -9 739 18 C 709 45 694 85 694 137 C 694 161 698 187 706 214 C 714 241 725 272 739 307 C 794 453 835 563 863 637 C 891 710 905 763 905 797 C 905 862 864 895 782 895 C 724 895 666 871 608 824 C 550 776 501 714 461 637 L 252 0 L 111 0 L 332 655 C 362 741 377 806 377 850 C 377 874 371 891 361 899 C 350 907 336 911 319 911 C 272 911 229 887 190 841 C 151 795 113 723 76 625 L 51 633 C 89 726 122 791 148 828 C 174 865 202 894 234 914 C 265 934 301 944 342 944 C 386 944 420 930 445 904 C 469 878 482 841 482 794 C 482 769 478 741 471 709 L 475 707 C 511 775 561 831 623 876 C 685 921 747 944 807 944 C 869 944 920 923 960 883 C 1000 842 1020 793 1020 735 C 1020 714 1016 687 1009 655 C 1001 623 992 592 981 563 L 866 262 C 833 174 817 113 817 80 C 817 34 842 12 893 12 C 936 12 977 34 1017 79 C 1057 123 1097 195 1137 295 L 1161 287 Z" unicode="n" />
<glyph horiz-adv-x="936" d="M 883 584 C 883 518 867 446 836 368 C 805 290 765 222 717 162 C 669 102 613 56 549 22 C 485 -12 417 -29 346 -29 C 290 -29 239 -14 194 15 C 149 45 115 87 91 141 C 67 195 55 258 55 330 C 55 419 81 515 135 618 C 188 720 254 800 333 858 C 411 915 495 944 584 944 C 672 944 744 911 800 846 C 855 781 883 694 883 584 Z M 739 629 C 739 691 732 744 718 787 C 704 829 684 862 659 884 C 634 906 605 918 573 918 C 509 918 449 888 393 829 C 336 770 289 690 253 588 C 217 486 199 387 199 291 C 199 199 214 128 245 76 C 275 24 315 -2 365 -2 C 429 -2 489 27 545 85 C 601 143 648 225 684 329 C 720 433 739 533 739 629 Z" unicode="o" />
<glyph horiz-adv-x="1110" d="M 1067 623 C 1067 549 1051 470 1021 386 C 991 301 952 228 904 167 C 856 105 800 58 736 24 C 672 -10 603 -27 528 -27 C 473 -27 425 -11 385 19 C 344 50 317 89 305 135 L 301 135 C 253 -22 217 -141 192 -223 C 167 -305 156 -357 158 -381 C 158 -406 170 -424 195 -434 C 219 -444 255 -450 303 -452 L 362 -455 L 356 -479 L -176 -479 L -170 -457 C -124 -457 -91 -452 -70 -444 C -48 -436 -29 -419 -12 -395 C 5 -371 22 -334 38 -285 C 54 -235 153 77 334 655 C 361 741 375 804 375 844 C 375 888 355 911 317 911 C 229 911 149 815 76 625 L 51 633 C 87 719 118 782 146 822 C 173 862 203 892 235 913 C 267 933 303 944 342 944 C 384 944 416 930 440 904 C 463 877 475 840 475 793 C 475 767 471 738 463 705 L 467 702 C 513 778 565 837 625 880 C 684 922 744 944 805 944 C 889 944 953 916 999 862 C 1044 807 1067 727 1067 623 Z M 924 672 C 924 820 875 895 778 895 C 722 895 667 873 612 830 C 556 786 509 729 469 659 L 319 180 C 327 129 351 87 389 54 C 427 20 474 4 532 4 C 598 4 660 33 718 91 C 776 149 824 234 864 346 C 904 458 924 566 924 672 Z" unicode="p" />
<glyph horiz-adv-x="1012" d="M 1001 932 L 627 -244 C 607 -303 598 -349 598 -381 C 598 -402 604 -417 618 -426 C 632 -435 651 -441 677 -445 C 702 -449 738 -452 786 -455 L 780 -479 L 244 -479 L 250 -457 C 336 -457 392 -442 420 -412 C 431 -400 442 -383 452 -363 C 462 -342 477 -301 498 -240 C 573 -4 618 138 633 186 L 629 188 C 590 124 541 73 482 33 C 422 -7 365 -27 309 -27 C 222 -27 157 0 113 54 C 69 108 47 189 47 295 C 47 368 62 447 93 532 C 123 617 163 690 211 751 C 259 812 316 859 380 893 C 444 927 512 944 586 944 C 624 944 659 936 693 921 C 726 906 754 885 777 859 C 800 833 814 807 819 782 L 823 782 L 915 932 L 1001 932 Z M 807 737 C 799 786 775 828 733 862 C 691 896 640 913 582 913 C 515 913 452 883 394 824 C 336 764 287 679 248 569 C 209 458 190 350 190 246 C 190 97 238 23 336 23 C 454 23 557 101 645 258 L 807 737 Z" unicode="q" />
<glyph horiz-adv-x="813" d="M 848 838 C 848 808 839 781 822 758 C 805 734 782 723 754 723 C 722 723 699 731 687 747 C 674 763 668 782 668 803 C 668 817 675 830 689 844 C 703 857 711 866 711 870 C 711 878 709 884 706 888 C 703 891 697 893 688 893 C 660 893 625 868 582 818 C 538 768 497 704 457 627 L 262 0 L 127 0 L 332 655 C 358 739 371 800 371 840 C 371 887 353 911 317 911 C 229 911 149 815 76 623 L 51 633 C 88 723 120 787 147 826 C 173 864 203 894 235 914 C 267 934 302 944 342 944 C 385 944 419 930 445 902 C 470 874 483 837 483 790 C 483 766 479 740 473 711 L 477 709 C 509 779 548 835 596 879 C 644 922 690 944 735 944 C 770 944 798 933 818 912 C 838 891 848 866 848 838 Z" unicode="r" />
<glyph horiz-adv-x="741" d="M 700 737 C 700 702 692 674 676 653 C 660 631 636 621 604 621 C 583 621 564 627 548 641 C 532 654 524 672 524 696 C 524 734 552 767 609 797 C 619 802 625 807 627 813 C 623 847 607 873 579 892 C 551 910 515 920 471 920 C 415 920 370 902 334 868 C 298 833 281 788 281 733 C 281 693 294 656 321 622 C 348 587 391 549 450 509 C 507 468 549 428 577 388 C 604 348 618 306 618 260 C 618 208 604 160 577 115 C 549 70 512 35 464 9 C 416 -16 362 -29 303 -29 C 239 -29 185 -19 142 1 C 99 21 66 48 44 82 C 21 116 10 156 10 201 C 10 237 21 267 43 291 C 65 315 92 328 123 328 C 149 328 170 320 186 306 C 201 291 209 271 209 246 C 209 222 201 203 187 188 C 172 173 153 166 129 166 C 112 166 100 165 92 163 C 84 161 80 153 80 139 C 80 116 89 93 108 71 C 127 48 153 30 187 17 C 220 4 258 -2 301 -2 C 365 -2 417 14 458 47 C 499 80 520 123 520 176 C 520 220 506 261 480 297 C 453 333 409 372 349 413 C 290 451 247 491 219 531 C 191 571 178 616 178 666 C 178 713 191 758 217 801 C 243 844 279 879 325 905 C 371 931 420 944 473 944 C 519 944 560 935 594 919 C 628 903 655 878 673 846 C 691 813 700 777 700 737 Z" unicode="s" />
<glyph horiz-adv-x="633" d="M 698 911 L 682 860 L 422 860 L 286 405 C 272 358 255 298 235 224 C 215 150 205 106 205 92 C 205 38 228 12 276 12 C 322 12 367 36 411 84 C 455 132 497 203 535 299 L 559 291 C 512 178 464 97 416 49 C 368 1 314 -23 254 -23 C 144 -23 90 29 90 135 C 90 164 96 201 109 247 C 121 293 145 373 180 489 C 215 605 253 728 293 860 L 96 860 L 113 911 L 311 911 L 401 1229 L 530 1229 L 436 911 L 698 911 Z" unicode="t" />
<glyph horiz-adv-x="1174" d="M 1147 287 C 1111 200 1080 137 1053 97 C 1025 57 995 27 963 7 C 931 -13 894 -23 854 -23 C 796 -23 757 -7 737 23 C 717 54 707 89 707 129 C 707 153 709 179 715 209 L 711 211 C 671 139 620 81 559 38 C 498 -5 438 -27 379 -27 C 315 -27 263 -5 224 37 C 185 79 166 135 166 203 C 166 217 169 239 177 269 C 184 299 193 328 205 354 L 322 655 C 352 735 367 793 367 831 C 367 884 346 911 305 911 C 261 911 221 888 183 842 C 145 796 108 724 70 625 L 45 633 C 80 720 111 783 137 823 C 163 862 192 891 224 911 C 255 930 291 940 332 940 C 382 940 420 926 447 898 C 473 870 487 831 487 780 C 487 737 472 680 444 610 L 319 291 C 295 229 283 173 283 125 C 283 57 323 23 403 23 C 458 23 514 45 571 89 C 627 133 677 193 721 270 L 924 913 L 1063 913 L 848 262 C 838 233 830 202 824 170 C 818 138 815 112 815 94 C 815 70 820 51 832 35 C 844 19 859 12 879 12 C 968 12 1049 106 1122 295 L 1147 287 Z" unicode="u" />
<glyph horiz-adv-x="1012" d="M 977 793 C 977 639 954 499 908 372 C 862 244 798 146 718 76 C 638 6 546 -29 444 -29 C 395 -29 350 -17 309 4 C 267 26 234 59 210 101 C 186 143 174 190 174 244 C 174 333 201 423 256 514 C 311 604 404 708 535 825 L 528 831 C 440 777 354 750 272 750 C 211 750 167 758 141 776 L 68 567 L 43 575 L 168 940 L 182 940 C 198 907 225 880 263 860 C 300 839 340 829 383 829 C 431 829 476 838 517 856 C 558 874 603 906 653 950 L 670 936 C 605 874 543 802 485 719 C 427 636 383 557 355 483 C 327 408 313 338 313 272 C 313 116 383 39 524 39 C 586 39 647 63 706 113 C 765 162 812 230 847 316 C 881 402 899 498 899 604 C 899 635 893 660 883 679 C 873 698 861 716 849 732 C 836 748 824 765 814 783 C 804 801 799 824 799 854 C 799 877 808 897 828 914 C 847 931 869 940 895 940 C 949 940 977 891 977 793 Z" unicode="v" />
<glyph horiz-adv-x="1386" d="M 633 119 C 548 21 465 -27 383 -27 C 321 -27 270 -1 229 51 C 188 103 168 169 168 250 C 168 334 197 424 256 521 C 314 618 402 719 518 823 L 512 831 C 465 803 423 783 387 771 C 351 759 312 754 270 754 C 211 754 167 762 137 780 L 66 578 L 43 586 L 164 940 L 176 940 C 191 908 220 882 262 861 C 304 839 344 829 381 829 C 423 829 462 837 498 854 C 534 870 579 902 633 950 L 649 936 C 587 874 529 801 475 717 C 420 633 378 549 349 466 C 319 383 305 308 305 240 C 305 178 317 129 342 93 C 367 57 400 39 440 39 C 495 39 556 73 623 143 C 601 199 590 264 590 336 C 590 410 609 498 649 601 C 688 704 734 787 788 850 C 841 912 892 944 940 944 C 958 944 971 933 978 913 C 985 893 989 862 989 821 C 989 753 964 663 914 551 C 864 439 801 327 723 217 C 743 161 771 117 809 85 C 847 53 884 37 922 37 C 981 37 1039 64 1097 120 C 1155 175 1200 246 1233 334 C 1265 422 1282 512 1282 604 C 1282 654 1262 697 1223 735 C 1201 754 1186 773 1177 792 C 1167 811 1163 833 1163 858 C 1163 880 1171 900 1189 918 C 1207 935 1228 944 1253 944 C 1285 944 1310 932 1326 910 C 1342 887 1350 846 1350 786 C 1350 640 1328 504 1285 377 C 1242 250 1182 151 1106 79 C 1030 7 944 -29 850 -29 C 752 -29 679 20 633 119 Z M 715 248 C 779 339 832 436 875 539 C 918 642 940 724 940 784 C 940 809 935 826 926 835 C 916 843 903 848 887 848 C 865 848 841 838 816 820 C 791 801 770 771 752 731 C 734 690 720 641 711 583 C 702 525 698 460 698 389 C 698 339 703 292 715 248 Z" unicode="w" />
<glyph horiz-adv-x="1040" d="M 436 248 L 428 248 C 350 66 249 -25 127 -25 C 74 -25 33 -12 5 13 C -22 38 -37 72 -37 115 C -37 205 21 301 137 403 L 154 387 C 128 328 111 279 101 240 C 91 201 86 160 86 117 C 86 79 91 52 101 36 C 111 20 128 12 150 12 C 184 12 217 23 248 45 C 278 67 307 98 334 139 C 361 180 388 234 414 300 C 440 366 466 446 494 542 C 521 637 535 715 535 776 C 535 866 500 911 432 911 C 382 911 332 884 284 831 C 236 777 196 709 164 625 L 139 633 C 185 745 234 824 286 872 C 338 920 394 944 455 944 C 520 944 567 923 596 882 C 625 841 641 778 643 694 L 649 694 C 676 765 716 824 768 872 C 820 920 874 944 930 944 C 978 944 1015 931 1041 905 C 1066 879 1079 843 1079 795 C 1079 757 1068 718 1048 679 C 1027 640 988 595 932 543 L 915 559 C 934 593 951 636 965 688 C 979 740 987 787 987 827 C 987 853 981 874 971 892 C 961 909 944 918 922 918 C 860 918 804 883 753 813 C 701 743 655 635 613 491 C 571 346 551 242 551 178 C 551 123 560 83 580 57 C 599 31 630 18 674 18 C 779 18 868 111 942 297 L 967 289 C 885 79 778 -25 647 -25 C 575 -25 522 -4 488 36 C 453 76 436 139 436 223 L 436 248 Z" unicode="x" />
<glyph horiz-adv-x="1061" d="M 1061 913 L 846 217 C 699 -253 478 -489 184 -489 C 104 -489 41 -474 -3 -445 C -47 -415 -70 -373 -70 -317 C -70 -281 -58 -252 -35 -230 C -12 -208 15 -197 47 -197 C 73 -197 93 -204 107 -218 C 120 -232 127 -248 127 -265 L 127 -270 C 123 -316 104 -343 69 -349 C 48 -353 34 -357 27 -362 C 19 -367 16 -375 16 -387 C 18 -410 33 -428 61 -441 C 88 -454 125 -461 172 -461 C 258 -461 333 -438 399 -392 C 464 -346 522 -277 572 -186 C 622 -94 672 37 721 209 L 717 211 C 677 140 626 83 563 39 C 500 -5 439 -27 379 -27 C 315 -27 263 -5 224 37 C 185 79 166 135 166 203 C 166 217 169 239 177 269 C 184 299 193 328 205 354 L 322 655 C 352 732 367 791 367 831 C 367 884 346 911 305 911 C 261 911 221 888 183 842 C 145 796 108 724 70 625 L 45 633 C 80 720 111 783 137 823 C 163 862 192 891 224 911 C 255 930 291 940 332 940 C 382 940 420 926 447 898 C 473 870 487 831 487 780 C 487 737 472 680 444 610 L 319 291 C 295 229 283 173 283 125 C 283 57 323 23 403 23 C 460 23 518 44 576 88 C 634 132 685 192 729 270 L 928 913 L 1061 913 Z" unicode="y" />
<glyph horiz-adv-x="834" d="M 893 881 C 893 853 885 828 869 806 C 853 784 821 753 774 715 L 125 201 L 127 195 C 157 193 185 187 212 179 C 239 171 267 162 295 153 C 345 136 383 125 409 120 C 435 115 465 113 501 113 C 555 113 595 124 623 146 C 651 168 665 197 665 233 C 665 285 633 317 569 330 L 578 354 C 630 343 670 322 698 290 C 726 258 741 216 741 164 C 741 113 722 69 685 31 C 647 -6 605 -25 557 -25 C 521 -25 483 -17 445 -2 C 407 13 363 37 315 71 C 261 107 220 132 190 146 C 160 160 131 167 104 168 C 76 160 62 138 62 102 L 63 53 C 63 0 44 -27 6 -27 C -7 -27 -20 -21 -32 -11 C -44 0 -51 17 -51 43 C -51 66 -40 90 -18 115 C 3 139 30 165 63 193 L 183 292 C 397 468 579 610 731 717 L 729 723 L 709 722 C 669 722 610 733 532 757 C 441 783 378 797 344 797 C 256 797 213 764 213 698 C 213 670 224 646 246 624 C 268 602 298 585 338 573 L 326 551 C 190 596 123 661 123 745 C 123 797 142 842 180 881 C 218 920 263 940 313 940 C 346 940 379 932 413 916 C 446 900 482 876 522 844 C 564 809 599 784 627 770 C 655 755 682 748 709 748 C 735 748 753 753 765 763 C 776 773 782 789 782 811 L 782 850 C 782 880 788 902 802 918 C 815 934 830 942 848 942 C 860 942 870 937 879 927 C 888 917 893 901 893 881 Z" unicode="z" />
<glyph horiz-adv-x="831" d="M 999 1524 L 993 1495 C 872 1487 786 1454 735 1396 C 683 1338 652 1244 641 1114 C 631 1012 608 927 572 859 C 535 791 485 738 422 699 C 358 660 271 632 160 614 L 147 563 C 250 548 324 521 368 482 C 412 443 434 387 434 315 C 434 272 428 230 417 190 C 405 150 393 111 380 73 C 366 35 354 -1 343 -37 C 331 -73 326 -107 326 -139 C 326 -200 341 -244 373 -270 C 404 -296 459 -311 539 -317 L 532 -346 C 445 -346 378 -339 330 -325 C 282 -311 247 -290 227 -260 C 207 -230 197 -186 197 -127 C 197 -81 203 -38 217 4 C 230 46 245 86 261 126 C 277 165 292 203 306 241 C 319 278 326 315 326 352 C 326 417 305 465 264 495 C 222 525 153 544 57 551 L 72 627 C 187 639 271 659 323 687 C 375 715 414 755 440 809 C 466 862 482 937 489 1034 C 498 1170 520 1272 554 1338 C 588 1404 639 1452 709 1481 C 779 1509 875 1524 999 1524 Z" unicode="{" />
<glyph horiz-adv-x="598" d="M 371 -424 L 309 -424 L 309 1528 L 371 1528 L 371 -424 Z" unicode="|" />
<glyph horiz-adv-x="831" d="M -113 -346 L -106 -317 C 14 -309 99 -276 151 -220 C 203 -163 234 -69 246 63 C 255 165 278 249 315 317 C 351 385 401 438 465 477 C 528 516 615 545 727 563 L 739 614 C 635 629 561 656 518 696 C 474 735 453 790 453 862 C 453 904 458 946 470 987 C 481 1027 493 1067 507 1105 C 520 1143 532 1179 544 1215 C 555 1251 561 1285 561 1317 C 561 1378 545 1422 514 1448 C 483 1474 428 1489 348 1495 L 354 1524 C 440 1524 506 1517 554 1504 C 602 1490 636 1469 658 1440 C 679 1410 690 1365 690 1305 C 690 1259 683 1215 670 1173 C 656 1131 641 1091 625 1052 C 609 1012 594 974 581 936 C 567 898 561 861 561 825 C 561 760 581 712 622 682 C 663 652 732 633 829 627 L 815 551 C 701 538 618 518 565 490 C 511 462 472 422 446 368 C 420 314 404 239 397 143 C 387 5 366 -95 333 -161 C 299 -226 248 -273 179 -302 C 109 -331 12 -346 -113 -346 Z" unicode="}" />
<glyph horiz-adv-x="1065" d="M 1016 674 C 978 604 930 545 870 499 C 810 453 750 430 692 430 C 650 430 615 434 585 444 C 555 453 528 463 504 475 C 479 486 455 496 433 506 C 410 515 386 520 360 520 C 258 520 173 477 104 391 L 86 397 C 122 462 173 518 239 564 C 305 610 369 633 432 633 C 470 633 504 628 534 619 C 563 609 590 599 615 588 C 640 576 664 566 688 557 C 711 547 736 543 762 543 C 808 543 849 553 885 573 C 921 593 959 629 999 680 L 1016 674 Z" unicode="~" />
<glyph horiz-adv-x="233" d="" unicode="" />
<glyph horiz-adv-x="635" d="M 442 1321 C 442 1351 452 1377 473 1397 C 493 1417 519 1427 551 1427 C 581 1427 607 1417 628 1397 C 648 1377 659 1351 659 1321 C 659 1290 648 1264 627 1243 C 606 1222 581 1212 551 1212 C 520 1212 494 1222 473 1243 C 452 1264 442 1290 442 1321 Z M 143 70 C 143 96 168 185 220 337 C 271 488 346 702 446 979 L 489 971 C 471 881 440 701 396 431 C 361 225 341 110 336 88 C 316 18 279 -16 223 -16 C 197 -16 178 -8 164 6 C 150 21 143 42 143 70 Z" unicode="" />
<glyph horiz-adv-x="899" d="M 322 143 C 258 162 209 198 176 251 C 143 304 127 372 127 455 C 127 549 154 650 208 758 C 262 865 328 949 407 1011 C 486 1073 568 1104 653 1104 L 672 1104 L 772 1372 L 795 1366 L 696 1100 C 750 1092 792 1072 822 1038 C 852 1004 868 961 868 909 C 868 877 860 852 845 834 C 830 815 810 806 786 806 C 760 806 738 814 720 830 C 701 846 692 866 692 889 C 692 908 700 928 717 948 C 734 968 758 983 788 995 C 786 1015 775 1033 757 1048 C 739 1062 716 1071 688 1075 L 367 201 C 389 189 414 184 442 184 C 506 184 569 207 632 255 C 695 303 752 373 803 467 L 827 455 C 771 351 707 271 636 215 C 564 159 489 131 410 131 C 388 131 366 133 344 137 L 209 -229 L 186 -223 L 322 143 Z M 664 1079 L 659 1079 C 600 1079 541 1045 481 979 C 421 913 372 825 332 716 C 292 607 272 506 272 412 C 272 318 296 252 346 213 L 664 1079 Z" unicode="" />
<glyph horiz-adv-x="1528" d="M 543 580 L 264 580 L 264 606 L 547 606 L 567 702 C 601 836 651 956 717 1063 C 783 1170 859 1251 945 1305 C 1030 1359 1122 1386 1221 1386 C 1318 1386 1395 1359 1451 1306 C 1507 1253 1536 1181 1536 1090 C 1536 984 1506 898 1446 831 C 1386 764 1306 731 1206 731 C 1146 731 1097 750 1058 788 C 1018 826 999 875 999 934 C 999 1005 1019 1072 1059 1135 L 1083 1126 C 1051 1072 1036 1013 1036 950 C 1036 894 1051 850 1082 818 C 1113 786 1154 770 1206 770 C 1274 770 1329 801 1373 863 C 1416 925 1438 1000 1438 1090 C 1438 1172 1419 1236 1381 1284 C 1343 1332 1291 1356 1225 1356 C 1097 1356 994 1307 917 1209 C 839 1111 785 964 754 768 L 727 606 L 1118 606 L 1118 580 L 723 580 C 710 505 696 445 682 399 L 1079 399 L 1079 375 L 674 375 C 639 276 593 194 535 129 C 591 115 641 97 686 76 C 730 54 773 34 814 14 C 855 -5 896 -22 937 -36 C 977 -50 1021 -57 1069 -57 C 1113 -57 1150 -48 1179 -32 C 1207 -15 1231 7 1251 36 C 1271 64 1288 98 1302 137 C 1316 175 1330 216 1346 260 L 1370 252 C 1333 101 1275 -7 1196 -73 C 1116 -139 1013 -172 885 -172 C 842 -172 795 -162 743 -142 C 691 -122 632 -94 568 -56 L 457 4 C 356 -124 241 -188 111 -188 C 51 -188 5 -175 -28 -151 C -61 -127 -78 -93 -78 -49 C -78 11 -41 60 32 98 C 105 136 197 156 309 156 C 377 156 439 149 494 137 C 509 165 518 199 521 239 C 524 279 526 324 528 375 L 227 375 L 227 399 L 530 399 C 534 481 538 542 543 580 Z M 426 18 C 331 64 238 88 147 88 C 93 88 48 73 12 45 C -24 16 -43 -16 -43 -53 C -43 -84 -28 -109 0 -128 C 28 -146 65 -156 111 -156 C 222 -156 327 -98 426 18 Z" unicode="" />
<glyph horiz-adv-x="1280" d="M 1104 391 L 987 285 L 788 500 C 740 468 685 453 621 453 C 559 453 504 468 457 500 L 256 285 L 139 391 L 348 608 C 328 634 315 660 309 686 C 302 712 299 743 299 780 C 299 848 315 906 348 952 L 139 1167 L 256 1276 L 457 1061 C 504 1092 559 1108 621 1108 C 685 1108 740 1092 788 1061 L 991 1276 L 1108 1155 L 899 952 C 918 924 931 897 938 871 C 944 844 948 814 948 780 C 948 716 930 658 895 608 L 1104 391 Z M 797 780 C 797 833 780 876 746 910 C 712 944 671 961 621 961 C 570 961 529 944 497 910 C 465 876 449 833 449 780 C 449 726 465 684 499 652 C 532 620 573 604 621 604 C 673 604 716 620 748 652 C 780 684 797 726 797 780 Z" unicode="" />
<glyph horiz-adv-x="1137" d="M 1356 1243 L 1350 1214 C 1336 1212 1316 1207 1290 1199 C 1264 1191 1247 1185 1239 1182 C 1181 1152 1078 1050 928 876 C 778 702 687 591 657 543 L 975 543 L 975 516 L 643 516 C 637 504 631 488 624 469 C 617 449 606 409 590 348 L 922 348 L 922 322 L 582 322 L 535 156 C 530 142 528 129 528 115 C 528 95 535 79 550 69 C 564 58 589 49 624 41 C 658 33 688 28 713 27 L 709 0 L 141 0 L 145 27 C 226 33 277 39 299 47 C 343 62 372 95 387 147 L 438 322 L 121 322 L 121 348 L 444 348 L 492 516 L 174 516 L 174 543 L 489 543 C 489 567 485 595 477 627 C 455 717 416 860 358 1055 C 341 1109 319 1149 293 1173 C 266 1197 229 1210 182 1214 L 188 1243 L 715 1243 L 709 1214 C 577 1205 512 1185 512 1155 C 512 1132 526 1060 554 940 C 582 820 613 706 645 598 C 753 718 853 836 946 950 C 1038 1064 1085 1129 1085 1145 C 1085 1162 1065 1177 1026 1189 C 987 1201 939 1210 883 1214 L 889 1243 L 1356 1243 Z" unicode="" />
<glyph horiz-adv-x="598" d="M 330 743 L 268 743 L 268 1528 L 330 1528 L 330 743 Z M 330 -424 L 268 -424 L 268 379 L 330 379 L 330 -424 Z" unicode="" />
<glyph horiz-adv-x="991" d="M 477 950 C 449 1020 436 1085 436 1145 C 436 1211 452 1273 484 1330 C 516 1387 560 1431 616 1463 C 672 1495 735 1511 803 1511 C 859 1511 902 1497 931 1471 C 960 1445 975 1408 975 1360 C 975 1324 963 1294 941 1270 C 919 1245 890 1233 856 1233 C 834 1233 816 1238 800 1250 C 784 1262 776 1278 776 1300 C 776 1331 791 1356 822 1374 C 850 1390 866 1402 871 1410 C 875 1418 878 1427 878 1436 C 878 1464 851 1479 797 1479 C 717 1479 653 1455 604 1408 C 554 1360 530 1299 530 1223 C 530 1175 541 1124 564 1070 C 587 1016 633 932 702 819 C 777 691 826 598 848 540 C 870 481 881 424 881 369 C 881 292 854 230 801 182 C 748 134 672 106 573 98 C 600 28 614 -36 614 -96 C 614 -162 598 -224 567 -280 C 536 -336 492 -380 435 -413 C 378 -446 316 -463 248 -463 C 191 -463 148 -449 119 -423 C 90 -397 76 -359 76 -311 C 76 -273 87 -243 110 -219 C 133 -195 161 -184 195 -184 C 216 -184 234 -190 250 -202 C 266 -214 274 -230 274 -252 C 274 -273 269 -289 260 -299 C 250 -309 240 -318 228 -325 C 201 -341 185 -353 180 -361 C 175 -369 173 -378 173 -388 C 173 -416 200 -430 254 -430 C 334 -430 398 -406 447 -358 C 495 -310 520 -249 520 -174 C 520 -126 509 -76 487 -24 C 465 27 418 112 348 229 C 272 355 224 448 202 506 C 180 564 170 622 170 680 C 170 756 196 818 249 866 C 302 914 378 942 477 950 Z M 565 117 C 638 127 692 148 728 180 C 764 212 782 257 782 317 C 782 357 771 401 750 449 C 728 497 674 596 586 745 C 540 823 506 885 485 932 C 412 921 358 900 322 868 C 286 836 268 791 268 731 C 268 703 272 676 281 648 C 289 620 304 586 326 544 C 348 502 394 422 465 303 C 513 220 547 158 565 117 Z" unicode="" />
<glyph horiz-adv-x="1024" d="M 999 1319 C 999 1286 988 1258 967 1236 C 945 1213 919 1202 887 1202 C 857 1202 836 1211 822 1229 C 808 1247 801 1268 801 1292 C 801 1324 812 1352 835 1374 C 857 1396 886 1407 920 1407 C 941 1407 959 1398 975 1380 C 991 1362 999 1342 999 1319 Z M 604 1319 C 604 1286 593 1258 572 1236 C 550 1213 524 1202 492 1202 C 462 1202 441 1211 427 1229 C 413 1247 406 1268 406 1292 C 406 1324 417 1352 440 1374 C 462 1396 490 1407 524 1407 C 546 1407 564 1398 580 1380 C 596 1362 604 1341 604 1319 Z" unicode="" />
<glyph horiz-adv-x="1923" d="M 1855 514 C 1855 357 1815 210 1735 74 C 1655 -61 1548 -170 1413 -250 C 1277 -330 1132 -371 977 -371 C 821 -371 674 -330 538 -250 C 402 -169 294 -61 215 75 C 135 211 96 357 96 514 C 96 668 135 813 215 949 C 294 1085 402 1193 538 1274 C 674 1354 821 1395 977 1395 C 1133 1395 1278 1354 1414 1273 C 1550 1192 1657 1084 1736 948 C 1815 812 1855 668 1855 514 Z M 1802 514 C 1802 658 1765 794 1692 922 C 1619 1050 1518 1152 1389 1230 C 1260 1307 1123 1346 977 1346 C 832 1346 696 1308 568 1234 C 440 1159 338 1057 263 929 C 187 801 150 662 150 514 C 150 368 186 231 259 102 C 332 -26 433 -129 563 -206 C 692 -283 830 -322 977 -322 C 1123 -322 1261 -283 1390 -206 C 1519 -128 1620 -25 1693 102 C 1765 230 1802 368 1802 514 Z M 1372 324 C 1327 226 1272 152 1207 102 C 1141 52 1069 27 989 27 C 846 27 731 70 644 158 C 557 245 514 361 514 506 C 514 598 535 682 579 759 C 623 835 683 895 761 939 C 838 982 924 1004 1018 1004 C 1057 1004 1101 997 1149 984 C 1197 970 1233 956 1255 940 L 1300 1018 L 1329 1018 L 1337 647 L 1317 647 C 1279 761 1232 842 1177 892 C 1121 942 1055 967 979 967 C 924 967 874 948 830 911 C 785 874 750 822 725 754 C 700 686 688 607 688 516 C 688 436 703 364 733 299 C 763 233 804 182 857 146 C 909 110 967 92 1030 92 C 1094 92 1152 110 1204 146 C 1256 182 1304 245 1350 334 L 1372 324 Z" unicode="" />
<glyph horiz-adv-x="737" d="M 752 918 C 726 851 700 805 675 781 C 650 757 622 745 590 745 C 564 745 543 754 528 774 C 512 794 504 819 504 850 L 500 850 C 482 818 458 791 430 771 C 402 751 374 741 346 741 C 297 741 259 756 231 787 C 203 817 190 862 190 920 C 190 971 206 1026 238 1086 C 270 1146 309 1191 356 1223 C 402 1254 452 1270 504 1270 C 556 1270 590 1244 604 1192 L 608 1192 L 629 1264 L 715 1264 L 592 905 C 588 894 583 878 577 856 C 571 834 569 819 569 811 C 569 785 579 772 600 772 C 650 772 693 823 731 926 L 752 918 Z M 596 598 L 588 563 L 147 563 L 156 598 L 596 598 Z M 588 1171 C 582 1198 574 1218 562 1230 C 550 1242 531 1249 506 1249 C 474 1249 441 1232 409 1198 C 377 1164 348 1118 324 1058 C 299 998 287 943 287 893 C 287 813 313 774 367 774 C 388 774 409 781 429 796 C 449 810 470 836 494 874 L 588 1171 Z" unicode="" />
<glyph horiz-adv-x="1108" d="M 868 51 L 848 37 L 545 383 C 525 403 516 420 516 434 C 516 447 520 462 528 478 C 536 494 554 512 582 530 C 838 700 1007 817 1090 879 L 1102 864 L 672 455 L 868 51 Z M 440 51 L 420 37 L 117 383 C 97 403 88 420 88 434 C 88 447 92 462 100 478 C 108 494 126 512 154 530 C 410 700 579 817 662 879 L 674 864 L 244 455 L 440 51 Z" unicode="" />
<glyph horiz-adv-x="1139" d="M 1006 80 L 940 80 L 940 526 L 86 526 L 86 584 L 1006 584 L 1006 80 Z" unicode="" />
<glyph horiz-adv-x="793" d="M 711 455 L 80 455 L 109 565 L 739 565 L 711 455 Z" unicode="" />
<glyph horiz-adv-x="958" d="M 1008 1067 C 1008 999 991 936 958 878 C 925 820 880 775 824 743 C 767 710 706 694 641 694 C 575 694 514 710 458 743 C 401 775 356 820 323 878 C 290 936 274 999 274 1067 C 274 1135 290 1197 323 1255 C 356 1313 401 1358 458 1391 C 514 1423 575 1440 641 1440 C 706 1440 767 1423 824 1391 C 880 1358 925 1313 958 1255 C 991 1197 1008 1135 1008 1067 Z M 981 1067 C 981 1166 948 1249 882 1316 C 816 1383 735 1417 641 1417 C 546 1417 466 1383 400 1316 C 334 1249 301 1166 301 1067 C 301 967 334 884 400 817 C 466 750 546 717 641 717 C 735 717 816 750 882 817 C 948 884 981 967 981 1067 Z M 866 952 C 866 922 861 900 852 886 C 843 872 825 866 797 866 C 776 866 758 874 743 892 C 728 909 719 935 715 971 C 711 1006 700 1033 683 1051 C 666 1069 644 1079 618 1079 L 578 1079 L 578 924 C 578 910 582 900 592 895 C 601 889 616 887 637 887 L 637 872 L 457 872 L 457 887 C 478 887 492 889 498 893 C 510 899 516 909 516 924 L 516 1241 C 516 1249 514 1255 512 1261 C 509 1267 501 1271 488 1275 C 474 1278 464 1280 457 1280 L 457 1292 L 666 1292 C 704 1292 735 1283 759 1266 C 783 1249 795 1226 795 1198 C 795 1148 755 1114 676 1096 L 676 1090 C 699 1086 719 1077 736 1065 C 753 1053 764 1038 770 1020 L 782 969 C 789 935 795 914 801 906 C 807 897 815 893 825 893 C 847 893 858 912 858 952 L 866 952 Z M 723 1186 C 723 1214 715 1237 700 1253 C 684 1269 662 1278 633 1278 L 578 1278 L 578 1096 L 616 1096 C 687 1096 723 1126 723 1186 Z" unicode="" />
<glyph horiz-adv-x="1024" d="M 1049 1233 L 373 1233 L 399 1333 L 1075 1333 L 1049 1233 Z" unicode="" />
<glyph horiz-adv-x="831" d="M 897 1147 C 897 1094 883 1044 855 998 C 827 952 790 915 744 888 C 697 861 648 848 596 848 C 509 848 438 875 384 929 C 330 983 303 1055 303 1145 C 303 1200 316 1252 344 1300 C 371 1348 408 1385 454 1413 C 500 1440 548 1454 596 1454 C 684 1454 757 1426 813 1372 C 869 1317 897 1242 897 1147 Z M 786 1143 C 786 1227 769 1294 736 1344 C 702 1394 656 1419 598 1419 C 540 1419 495 1394 462 1344 C 428 1294 412 1230 412 1153 C 412 1071 429 1006 463 957 C 497 907 543 883 602 883 C 654 883 698 908 733 958 C 768 1008 786 1069 786 1143 Z" unicode="" />
<glyph horiz-adv-x="1536" d="M 672 352 L 672 764 L 201 764 L 201 936 L 672 936 L 672 1352 L 864 1352 L 864 936 L 1335 936 L 1335 764 L 864 764 L 864 352 L 672 352 Z M 205 25 L 205 215 L 1335 215 L 1335 25 L 205 25 Z" unicode="" />
<glyph horiz-adv-x="895" d="M 37 629 L 59 772 L 440 1112 C 515 1180 562 1230 581 1262 C 600 1293 610 1325 610 1358 C 610 1384 601 1407 584 1428 C 567 1449 538 1460 496 1460 C 445 1460 398 1447 356 1422 C 314 1396 282 1372 260 1348 L 152 1473 C 190 1507 241 1540 306 1572 C 370 1604 449 1620 541 1620 C 631 1620 697 1596 741 1548 C 785 1500 807 1447 807 1388 C 807 1324 782 1260 733 1194 C 684 1128 606 1056 500 977 L 256 788 L 743 788 L 721 629 L 37 629 Z" unicode="" />
<glyph horiz-adv-x="895" d="M 43 727 L 160 860 C 184 835 216 815 256 799 C 295 783 340 776 391 776 C 452 776 499 792 532 826 C 565 859 582 900 582 948 C 582 983 565 1012 532 1034 C 499 1056 455 1067 399 1067 L 332 1067 L 360 1212 L 416 1212 C 490 1212 542 1225 573 1251 C 604 1277 620 1313 620 1358 C 620 1382 610 1404 591 1425 C 572 1445 542 1456 500 1456 C 446 1456 398 1446 356 1428 C 314 1410 283 1394 264 1380 L 205 1511 C 231 1535 274 1560 334 1584 C 394 1608 461 1620 537 1620 C 629 1620 696 1598 738 1554 C 780 1510 801 1459 801 1402 C 801 1360 791 1319 773 1279 C 754 1239 725 1207 687 1185 C 649 1162 607 1150 563 1149 C 620 1141 668 1120 707 1084 C 746 1048 766 1003 767 951 C 767 933 764 913 760 893 C 746 812 704 746 635 694 C 566 642 482 614 383 612 C 236 612 123 650 43 727 Z" unicode="" />
<glyph horiz-adv-x="1024" d="M 975 1440 C 975 1416 966 1396 948 1378 C 930 1360 908 1342 883 1325 L 508 1079 L 494 1096 C 621 1230 718 1337 786 1417 C 830 1469 873 1495 915 1495 C 933 1495 948 1489 959 1478 C 969 1466 975 1454 975 1440 Z" unicode="" />
<glyph horiz-adv-x="1151" d="M 1128 287 C 1083 172 1038 92 994 46 C 949 0 896 -23 836 -23 C 778 -23 738 -7 718 23 C 698 54 688 90 688 132 C 688 154 690 180 696 209 L 692 211 C 652 139 601 81 540 38 C 479 -5 419 -27 360 -27 C 254 -27 185 31 152 147 L 147 147 L 123 33 C 97 -87 84 -174 84 -227 C 84 -304 75 -363 58 -403 C 40 -443 16 -463 -14 -463 C -30 -463 -44 -457 -56 -445 C -68 -433 -74 -415 -74 -393 C -74 -373 -70 -352 -64 -331 C -57 -309 -40 -270 -12 -213 C 35 -115 78 -1 117 129 L 352 913 L 492 913 L 309 303 C 297 261 287 227 280 200 C 273 172 270 148 270 127 C 270 91 278 65 296 48 C 314 31 343 23 385 23 C 439 23 494 44 550 87 C 606 129 656 190 702 270 L 905 913 L 1044 913 L 829 262 C 807 198 797 142 797 94 C 797 70 802 51 814 35 C 825 19 840 12 860 12 C 903 12 944 34 984 79 C 1024 123 1064 195 1104 295 L 1128 287 Z" unicode="" />
<glyph horiz-adv-x="1198" d="M 1370 1399 L 1364 1370 L 1075 1370 L 668 -256 L 635 -256 L 1040 1370 L 819 1370 L 414 -256 L 381 -256 L 627 735 L 608 735 C 484 735 387 761 316 814 C 244 866 209 938 209 1028 C 209 1094 228 1156 267 1214 C 306 1272 360 1317 429 1350 C 497 1382 576 1399 666 1399 L 1370 1399 Z" unicode="" />
<glyph horiz-adv-x="578" d="M 442 557 C 442 520 429 489 403 464 C 377 438 346 426 309 426 C 271 426 240 438 214 464 C 188 490 176 521 176 557 C 176 593 189 625 215 651 C 241 677 272 690 309 690 C 345 690 377 677 403 651 C 429 625 442 593 442 557 Z" unicode="" />
<glyph horiz-adv-x="1024" d="M 563 -246 C 563 -311 522 -364 440 -404 C 358 -444 251 -465 119 -465 L 131 -430 C 227 -428 303 -416 359 -393 C 414 -369 442 -338 442 -299 C 442 -271 429 -252 404 -243 C 379 -233 340 -229 287 -229 L 367 16 L 403 16 L 362 -113 C 425 -113 474 -124 510 -147 C 545 -169 563 -202 563 -246 Z" unicode="" />
<glyph horiz-adv-x="768" d="M 307 629 L 436 1440 L 193 1368 L 215 1507 L 528 1636 L 643 1636 L 492 629 L 307 629 Z" unicode="" />
<glyph horiz-adv-x="649" d="M 649 1073 C 649 1022 634 969 605 915 C 576 860 539 817 494 787 C 448 756 399 741 346 741 C 300 741 263 759 234 795 C 204 831 190 879 190 938 C 190 986 204 1038 234 1094 C 263 1149 300 1192 346 1223 C 391 1254 440 1270 494 1270 C 538 1270 575 1251 605 1215 C 634 1179 649 1131 649 1073 Z M 582 598 L 573 563 L 133 563 L 141 598 L 582 598 Z M 557 1100 C 557 1143 549 1179 535 1208 C 520 1236 503 1251 483 1251 C 451 1251 419 1235 389 1203 C 359 1171 333 1126 313 1070 C 293 1014 283 962 283 915 C 283 867 290 830 305 803 C 319 775 337 762 358 762 C 393 762 425 776 455 806 C 484 835 508 878 528 934 C 547 990 557 1045 557 1100 Z" unicode="" />
<glyph horiz-adv-x="1108" d="M 426 51 L 856 455 L 659 864 L 680 879 C 732 811 834 694 987 530 C 999 516 1007 506 1009 500 C 1011 494 1013 487 1013 481 L 1008 459 C 1004 445 998 434 992 426 C 986 417 969 403 942 383 L 438 37 L 426 51 Z M -2 51 L 428 455 L 231 864 L 252 879 C 304 811 406 694 559 530 C 571 516 579 506 581 500 C 583 494 585 487 585 481 L 580 459 C 576 445 570 434 564 426 C 558 417 541 403 514 383 L 10 37 L -2 51 Z" unicode="" />
<glyph horiz-adv-x="1190" d="M 922 694 L 406 694 L 412 719 L 445 721 C 485 723 516 725 539 728 C 561 730 580 738 595 752 C 610 766 620 781 625 799 C 630 816 685 1023 791 1419 C 772 1415 742 1413 702 1413 C 658 1413 611 1438 561 1489 L 573 1507 C 624 1485 674 1475 723 1475 C 791 1475 854 1488 911 1515 L 954 1534 L 981 1534 C 945 1456 920 1387 905 1325 L 766 803 L 763 784 C 763 764 770 750 785 742 C 799 733 837 726 899 722 L 928 719 L 922 694 Z M 1065 508 L 133 508 L 145 551 L 1077 551 L 1065 508 Z M 850 -158 C 790 -234 725 -279 653 -293 L 584 -492 L 471 -492 L 537 -297 C 518 -294 498 -289 478 -282 C 386 -249 318 -233 274 -233 C 249 -233 229 -234 215 -238 C 196 -257 175 -272 152 -282 C 129 -292 109 -297 91 -297 C 77 -297 65 -293 55 -287 C 44 -281 39 -270 39 -256 C 39 -238 47 -226 64 -218 C 81 -210 100 -207 121 -207 L 195 -211 C 305 -123 400 74 479 381 L 639 381 C 598 247 543 128 475 24 C 406 -80 330 -160 246 -217 L 281 -211 L 313 -207 C 353 -207 417 -213 505 -225 L 555 -231 L 657 49 L 774 49 L 672 -231 C 701 -228 732 -218 764 -202 C 796 -186 822 -167 840 -147 L 850 -158 Z" unicode="" />
<glyph horiz-adv-x="1190" d="M 918 694 L 412 694 L 410 719 L 442 721 C 480 723 511 725 535 728 C 559 730 578 738 593 752 C 607 765 617 780 623 797 L 788 1419 C 769 1415 740 1413 700 1413 C 658 1413 611 1438 557 1489 L 571 1507 C 622 1485 672 1475 721 1475 C 789 1475 852 1488 909 1515 L 952 1534 L 979 1534 C 943 1456 918 1387 903 1325 L 764 803 L 761 783 C 761 761 769 747 787 739 C 804 731 841 726 897 722 L 926 719 L 918 694 Z M 1063 508 L 131 508 L 143 551 L 1075 551 L 1063 508 Z M 815 -197 L 614 -465 L 25 -465 L 39 -408 L 181 -330 C 298 -266 390 -209 457 -159 C 524 -109 576 -65 612 -25 C 648 14 674 52 691 89 C 708 126 717 168 717 215 C 717 254 704 285 679 309 C 653 332 619 344 575 344 C 531 344 484 332 436 309 C 387 285 346 255 313 217 C 280 179 264 142 264 106 C 264 76 272 54 289 40 C 306 25 330 18 360 18 C 413 18 463 44 510 98 L 543 135 L 555 123 C 502 61 454 17 412 -6 C 370 -30 328 -43 287 -43 C 249 -43 219 -32 196 -10 C 173 12 162 40 162 74 C 162 120 184 166 229 214 C 273 262 329 300 396 329 C 463 358 528 373 590 373 C 669 373 733 352 781 310 C 829 268 854 218 854 158 C 854 74 814 0 734 -66 C 654 -132 522 -198 338 -266 L 188 -352 L 590 -352 C 633 -352 686 -316 748 -246 L 801 -188 L 815 -197 Z" unicode="" />
<glyph horiz-adv-x="1190" d="M 586 680 C 510 680 447 695 399 725 C 350 755 326 794 326 844 C 326 881 338 913 364 940 C 389 967 417 981 449 981 C 499 981 524 962 524 924 C 524 897 518 878 508 867 C 497 855 476 844 444 833 C 428 827 420 813 420 793 C 420 769 433 750 461 734 C 489 718 526 711 573 711 C 630 711 685 725 738 753 C 791 781 833 820 865 868 C 897 916 913 969 913 1026 C 913 1097 885 1133 829 1133 C 815 1133 796 1127 774 1115 C 751 1103 711 1078 655 1040 L 641 1075 L 802 1151 C 878 1185 931 1219 961 1254 C 991 1288 1006 1334 1006 1391 C 1006 1426 994 1453 972 1471 C 950 1489 919 1499 881 1499 C 845 1499 807 1490 767 1474 C 727 1458 695 1436 669 1408 C 643 1380 631 1350 631 1319 C 631 1301 637 1287 651 1275 C 665 1263 687 1257 717 1257 C 745 1257 773 1269 801 1293 L 821 1309 L 831 1294 C 806 1270 779 1250 751 1232 C 723 1214 690 1206 653 1206 C 613 1206 583 1213 561 1229 C 539 1245 528 1267 528 1296 C 528 1336 546 1374 582 1410 C 618 1446 665 1474 724 1496 C 783 1517 843 1528 903 1528 C 975 1528 1032 1512 1075 1481 C 1117 1449 1139 1408 1139 1356 C 1139 1303 1114 1260 1066 1226 C 1017 1192 948 1171 860 1161 C 914 1161 961 1144 999 1112 C 1037 1079 1057 1038 1057 989 C 1057 935 1036 884 996 838 C 955 792 896 754 819 724 C 742 694 664 680 586 680 Z M 1065 508 L 133 508 L 143 551 L 1075 551 L 1065 508 Z M 840 -158 C 780 -234 715 -279 643 -293 L 573 -492 L 461 -492 L 526 -297 C 508 -294 488 -289 468 -282 C 376 -249 308 -233 264 -233 C 239 -233 219 -234 205 -238 C 186 -257 165 -272 142 -282 C 119 -292 99 -297 81 -297 C 67 -297 55 -293 45 -287 C 34 -281 29 -270 29 -256 C 29 -238 37 -226 54 -218 C 71 -210 90 -207 111 -207 L 184 -211 C 290 -127 385 69 469 381 L 629 381 C 588 247 533 128 465 24 C 396 -80 320 -160 236 -217 L 271 -211 L 303 -207 C 344 -207 408 -213 495 -225 L 545 -231 L 647 49 L 764 49 L 662 -231 C 690 -228 721 -218 753 -202 C 785 -186 811 -167 829 -147 L 840 -158 Z" unicode="" />
<glyph horiz-adv-x="827" d="M 514 1325 C 514 1355 524 1381 545 1401 C 565 1421 591 1432 623 1432 C 653 1432 679 1421 700 1401 C 720 1381 731 1355 731 1325 C 731 1294 720 1268 700 1248 C 679 1227 653 1217 623 1217 C 591 1217 565 1227 545 1248 C 524 1268 514 1294 514 1325 Z M 4 293 C 4 368 26 432 70 486 C 114 540 185 588 283 631 C 402 683 488 733 540 783 C 592 832 618 884 618 940 C 618 974 606 1001 583 1023 C 560 1044 529 1055 489 1055 C 457 1055 429 1040 405 1010 C 381 980 364 939 356 887 L 332 895 C 342 955 362 1001 392 1035 C 422 1068 460 1085 506 1085 C 555 1085 595 1068 626 1035 C 656 1002 672 955 672 893 C 672 823 648 761 602 709 C 555 656 475 603 362 551 C 298 521 249 491 213 463 C 177 435 152 405 136 373 C 120 341 113 298 113 246 C 113 176 134 120 177 78 C 220 35 279 14 354 14 C 420 14 474 34 517 74 C 560 114 582 163 582 219 C 582 268 567 308 539 340 C 511 371 476 387 434 387 C 412 387 396 384 387 379 L 387 373 L 391 373 C 407 373 423 366 438 353 C 453 340 461 325 461 307 C 461 284 453 265 439 250 C 424 234 405 227 383 227 C 355 227 332 234 316 249 C 299 263 291 284 291 311 C 291 343 303 368 328 387 C 352 406 386 416 430 416 C 480 416 523 397 559 360 C 594 322 612 276 612 221 C 612 152 584 95 528 50 C 472 4 404 -18 322 -18 C 258 -18 202 -4 154 21 C 106 47 69 85 43 133 C 17 181 4 234 4 293 Z" unicode="" />
<glyph horiz-adv-x="1290" d="M 408 571 L 338 478 C 278 401 216 316 152 224 C 117 174 100 139 100 119 C 100 95 121 73 164 54 C 207 35 253 25 303 23 L 297 0 L -236 0 L -229 23 C -208 25 -179 31 -141 43 C -103 54 -73 67 -52 83 C -30 99 -5 122 22 153 C 50 184 121 271 235 413 C 348 555 459 695 567 834 C 675 973 827 1169 1022 1421 L 1049 1421 L 1049 162 C 1049 120 1052 92 1058 80 C 1064 67 1075 57 1090 49 C 1116 35 1157 27 1214 23 L 1208 0 L 662 0 L 668 23 C 761 29 823 42 854 62 C 885 82 901 113 901 156 L 901 571 L 408 571 Z M 432 604 L 901 604 L 901 1204 C 707 958 550 758 432 604 Z M 1110 1483 L 1087 1470 L 1018 1544 L 896 1678 L 854 1722 C 820 1754 803 1787 803 1823 C 803 1841 808 1856 820 1869 C 832 1881 847 1888 866 1888 C 886 1888 902 1882 915 1871 C 927 1859 941 1838 956 1808 C 971 1777 1022 1669 1110 1483 Z" unicode="" />
<glyph horiz-adv-x="1290" d="M 408 571 L 338 478 C 278 401 216 316 152 224 C 117 174 100 139 100 119 C 100 95 121 73 164 54 C 207 35 253 25 303 23 L 297 0 L -236 0 L -229 23 C -208 25 -179 31 -141 43 C -103 54 -73 67 -52 83 C -30 99 -5 122 22 153 C 50 184 121 271 235 413 C 348 555 459 695 567 834 C 675 973 827 1169 1022 1421 L 1049 1421 L 1049 162 C 1049 120 1052 92 1058 80 C 1064 67 1075 57 1090 49 C 1116 35 1157 27 1214 23 L 1208 0 L 662 0 L 668 23 C 761 29 823 42 854 62 C 885 82 901 113 901 156 L 901 571 L 408 571 Z M 432 604 L 901 604 L 901 1204 C 707 958 550 758 432 604 Z M 1419 1831 C 1419 1807 1410 1787 1392 1769 C 1374 1751 1352 1733 1327 1716 L 952 1470 L 938 1487 C 1065 1621 1162 1728 1230 1808 C 1274 1860 1317 1886 1359 1886 C 1377 1886 1392 1880 1403 1869 C 1413 1857 1419 1845 1419 1831 Z" unicode="" />
<glyph horiz-adv-x="1290" d="M 408 571 L 338 478 C 278 401 216 316 152 224 C 117 174 100 139 100 119 C 100 95 121 73 164 54 C 207 35 253 25 303 23 L 297 0 L -236 0 L -229 23 C -208 25 -179 31 -141 43 C -103 54 -73 67 -52 83 C -30 99 -5 122 22 153 C 50 184 121 271 235 413 C 348 555 459 695 567 834 C 675 973 827 1169 1022 1421 L 1049 1421 L 1049 162 C 1049 120 1052 92 1058 80 C 1064 67 1075 57 1090 49 C 1116 35 1157 27 1214 23 L 1208 0 L 662 0 L 668 23 C 761 29 823 42 854 62 C 885 82 901 113 901 156 L 901 571 L 408 571 Z M 432 604 L 901 604 L 901 1204 C 707 958 550 758 432 604 Z M 1360 1440 L 1338 1427 L 1121 1722 L 746 1429 L 732 1442 L 912 1641 C 1002 1741 1054 1799 1070 1817 C 1085 1835 1109 1843 1143 1841 C 1159 1841 1171 1839 1179 1837 C 1187 1834 1193 1829 1197 1821 C 1201 1813 1256 1686 1360 1440 Z" unicode="" />
<glyph horiz-adv-x="1290" d="M 408 571 L 338 478 C 278 401 216 316 152 224 C 117 174 100 139 100 119 C 100 95 121 73 164 54 C 207 35 253 25 303 23 L 297 0 L -236 0 L -229 23 C -208 25 -179 31 -141 43 C -103 54 -73 67 -52 83 C -30 99 -5 122 22 153 C 50 184 121 271 235 413 C 348 555 459 695 567 834 C 675 973 827 1169 1022 1421 L 1049 1421 L 1049 162 C 1049 120 1052 92 1058 80 C 1064 67 1075 57 1090 49 C 1116 35 1157 27 1214 23 L 1208 0 L 662 0 L 668 23 C 761 29 823 42 854 62 C 885 82 901 113 901 156 L 901 571 L 408 571 Z M 432 604 L 901 604 L 901 1204 C 707 958 550 758 432 604 Z M 1472 1816 C 1422 1729 1373 1664 1325 1622 C 1277 1579 1232 1558 1191 1558 C 1146 1558 1099 1577 1051 1617 C 1001 1655 959 1675 925 1675 C 893 1675 859 1662 824 1637 C 788 1612 754 1575 722 1526 L 698 1534 C 722 1576 752 1618 787 1660 C 821 1702 854 1732 886 1752 C 918 1772 947 1782 974 1782 C 1022 1782 1071 1762 1119 1724 C 1145 1702 1167 1687 1186 1678 C 1204 1669 1223 1665 1241 1665 C 1274 1665 1309 1679 1347 1709 C 1384 1739 1417 1777 1447 1825 L 1472 1816 Z" unicode="" />
<glyph horiz-adv-x="1290" d="M 408 571 L 338 478 C 278 401 216 316 152 224 C 117 174 100 139 100 119 C 100 95 121 73 164 54 C 207 35 253 25 303 23 L 297 0 L -236 0 L -229 23 C -208 25 -179 31 -141 43 C -103 54 -73 67 -52 83 C -30 99 -5 122 22 153 C 50 184 121 271 235 413 C 348 555 459 695 567 834 C 675 973 827 1169 1022 1421 L 1049 1421 L 1049 162 C 1049 120 1052 92 1058 80 C 1064 67 1075 57 1090 49 C 1116 35 1157 27 1214 23 L 1208 0 L 662 0 L 668 23 C 761 29 823 42 854 62 C 885 82 901 113 901 156 L 901 571 L 408 571 Z M 432 604 L 901 604 L 901 1204 C 707 958 550 758 432 604 Z M 1382 1690 C 1382 1657 1371 1629 1350 1607 C 1328 1584 1302 1573 1270 1573 C 1240 1573 1219 1582 1205 1600 C 1191 1618 1184 1639 1184 1663 C 1184 1695 1195 1723 1218 1745 C 1240 1767 1269 1778 1303 1778 C 1324 1778 1342 1769 1358 1751 C 1374 1733 1382 1713 1382 1690 Z M 987 1690 C 987 1657 976 1629 955 1607 C 933 1584 907 1573 875 1573 C 845 1573 824 1582 810 1600 C 796 1618 789 1639 789 1663 C 789 1695 800 1723 823 1745 C 845 1767 873 1778 907 1778 C 929 1778 947 1769 963 1751 C 979 1733 987 1712 987 1690 Z" unicode="" />
<glyph horiz-adv-x="1290" d="M 408 571 L 338 478 C 278 401 216 316 152 224 C 117 174 100 139 100 119 C 100 95 121 73 164 54 C 207 35 253 25 303 23 L 297 0 L -236 0 L -229 23 C -208 25 -179 31 -141 43 C -103 54 -73 67 -52 83 C -30 99 -5 122 22 153 C 50 184 121 271 235 413 C 348 555 459 695 567 834 C 675 973 827 1169 1022 1421 L 1049 1421 L 1049 162 C 1049 120 1052 92 1058 80 C 1064 67 1075 57 1090 49 C 1116 35 1157 27 1214 23 L 1208 0 L 662 0 L 668 23 C 761 29 823 42 854 62 C 885 82 901 113 901 156 L 901 571 L 408 571 Z M 1073 1477 C 1015 1477 967 1492 927 1523 C 887 1553 868 1593 868 1642 C 868 1704 893 1758 945 1803 C 997 1847 1058 1870 1128 1870 C 1186 1870 1234 1854 1272 1822 C 1310 1790 1329 1749 1329 1700 C 1329 1639 1303 1587 1252 1543 C 1200 1499 1141 1477 1073 1477 Z M 432 604 L 901 604 L 901 1204 C 707 958 550 758 432 604 Z M 1239 1724 C 1239 1803 1202 1843 1130 1843 C 1099 1843 1071 1832 1045 1811 C 1019 1790 999 1762 984 1726 C 968 1690 961 1654 961 1618 C 961 1541 997 1503 1069 1503 C 1115 1503 1155 1525 1189 1570 C 1222 1615 1239 1666 1239 1724 Z" unicode="" />
<glyph horiz-adv-x="1948" d="M 526 582 L 246 248 C 195 180 170 136 170 116 C 170 92 191 70 235 52 C 279 34 325 24 375 23 L 367 0 L -186 0 L -178 23 C -123 27 -74 39 -30 60 C 14 81 77 135 160 221 C 220 287 368 455 602 727 C 836 998 1010 1203 1126 1341 C 1112 1346 1084 1353 1042 1361 C 999 1369 969 1374 952 1376 L 956 1399 L 2013 1399 L 1925 1079 L 1894 1079 C 1894 1132 1888 1178 1876 1218 C 1864 1257 1848 1289 1828 1313 C 1807 1337 1781 1352 1751 1357 C 1720 1361 1669 1364 1597 1364 L 1356 1362 L 1184 752 L 1364 752 C 1415 752 1460 760 1499 778 C 1538 795 1571 824 1599 865 C 1626 906 1650 952 1671 1004 L 1704 1004 L 1544 434 L 1516 434 L 1520 458 C 1525 490 1528 520 1528 547 C 1528 569 1525 596 1519 626 C 1513 656 1498 678 1472 694 C 1446 709 1407 717 1356 717 L 1176 717 L 1036 223 C 1022 176 1016 143 1016 125 C 1016 95 1027 72 1050 58 C 1072 44 1115 37 1178 37 C 1314 37 1411 41 1467 49 C 1523 57 1560 68 1579 84 C 1620 118 1666 168 1717 234 C 1768 300 1804 353 1825 393 L 1855 393 L 1722 0 L 594 0 L 602 23 C 692 29 748 37 770 45 C 818 61 848 95 862 145 L 987 582 L 526 582 Z M 555 614 L 995 614 L 1204 1341 L 1171 1341 L 555 614 Z" unicode="" />
<glyph horiz-adv-x="1262" d="M 543 -27 C 410 -13 303 42 223 140 C 142 237 102 358 102 504 C 102 662 136 812 206 953 C 276 1093 372 1207 496 1294 C 620 1381 752 1425 893 1425 C 936 1425 975 1420 1010 1411 C 1044 1402 1075 1391 1101 1378 C 1127 1365 1158 1344 1192 1315 L 1276 1419 L 1339 1419 L 1241 913 L 1212 913 C 1199 1041 1179 1135 1153 1197 C 1127 1259 1090 1306 1042 1338 C 994 1370 931 1386 854 1386 C 755 1386 660 1347 570 1270 C 479 1192 407 1089 353 959 C 299 829 272 689 272 541 C 272 383 308 259 381 169 C 453 79 553 35 680 35 C 738 35 791 46 841 68 C 890 90 937 122 981 165 C 1025 207 1080 277 1145 373 L 1176 354 C 1100 240 1037 160 987 114 C 936 68 880 33 818 7 C 756 -18 685 -31 604 -31 L 580 -31 L 553 -113 C 616 -113 665 -124 701 -147 C 736 -169 754 -202 754 -246 C 754 -312 712 -365 629 -405 C 546 -445 439 -465 309 -465 L 322 -430 C 418 -428 494 -415 550 -392 C 605 -369 633 -338 633 -299 C 633 -271 620 -252 595 -243 C 570 -233 531 -229 477 -229 L 543 -27 Z" unicode="" />
<glyph horiz-adv-x="1274" d="M 1339 1399 L 1251 1079 L 1221 1079 L 1221 1096 C 1221 1138 1215 1179 1203 1219 C 1191 1259 1174 1291 1153 1315 C 1132 1339 1106 1353 1075 1357 C 1043 1361 993 1364 924 1364 L 682 1364 L 510 752 L 690 752 C 741 752 786 761 826 779 C 866 797 899 825 925 865 C 951 904 975 950 997 1004 L 1030 1004 L 870 434 L 842 434 C 850 482 854 520 854 547 C 854 571 852 594 849 614 C 846 634 839 650 829 664 C 818 678 806 688 794 695 C 782 702 766 707 747 711 C 727 715 706 717 682 717 L 502 717 L 362 223 C 348 177 342 144 342 125 C 342 91 355 67 381 55 C 407 43 463 37 549 37 C 672 37 757 40 805 48 C 852 56 885 68 905 84 C 946 118 992 168 1043 234 C 1094 300 1130 353 1151 393 L 1182 393 L 1049 0 L -76 0 L -68 23 C -48 23 -17 25 23 31 C 64 37 91 42 104 47 C 148 63 178 97 193 150 L 494 1235 C 499 1259 502 1276 502 1284 C 502 1303 494 1318 479 1328 C 464 1338 437 1348 399 1357 C 361 1366 330 1372 307 1374 L 315 1399 L 1339 1399 Z M 1102 1483 L 1079 1470 L 1010 1544 L 888 1678 L 846 1722 C 812 1754 795 1787 795 1823 C 795 1841 800 1856 812 1869 C 824 1881 839 1888 858 1888 C 878 1888 894 1882 907 1871 C 919 1859 933 1838 948 1808 C 963 1777 1014 1669 1102 1483 Z" unicode="" />
<glyph horiz-adv-x="1274" d="M 1339 1399 L 1251 1079 L 1221 1079 L 1221 1096 C 1221 1138 1215 1179 1203 1219 C 1191 1259 1174 1291 1153 1315 C 1132 1339 1106 1353 1075 1357 C 1043 1361 993 1364 924 1364 L 682 1364 L 510 752 L 690 752 C 741 752 786 761 826 779 C 866 797 899 825 925 865 C 951 904 975 950 997 1004 L 1030 1004 L 870 434 L 842 434 C 850 482 854 520 854 547 C 854 571 852 594 849 614 C 846 634 839 650 829 664 C 818 678 806 688 794 695 C 782 702 766 707 747 711 C 727 715 706 717 682 717 L 502 717 L 362 223 C 348 177 342 144 342 125 C 342 91 355 67 381 55 C 407 43 463 37 549 37 C 672 37 757 40 805 48 C 852 56 885 68 905 84 C 946 118 992 168 1043 234 C 1094 300 1130 353 1151 393 L 1182 393 L 1049 0 L -76 0 L -68 23 C -48 23 -17 25 23 31 C 64 37 91 42 104 47 C 148 63 178 97 193 150 L 494 1235 C 499 1259 502 1276 502 1284 C 502 1303 494 1318 479 1328 C 464 1338 437 1348 399 1357 C 361 1366 330 1372 307 1374 L 315 1399 L 1339 1399 Z M 1227 1831 C 1227 1807 1218 1787 1200 1769 C 1182 1751 1160 1733 1135 1716 L 760 1470 L 746 1487 C 873 1621 970 1728 1038 1808 C 1082 1860 1125 1886 1167 1886 C 1185 1886 1200 1880 1211 1869 C 1221 1857 1227 1845 1227 1831 Z" unicode="" />
<glyph horiz-adv-x="1274" d="M 1339 1399 L 1251 1079 L 1221 1079 L 1221 1096 C 1221 1138 1215 1179 1203 1219 C 1191 1259 1174 1291 1153 1315 C 1132 1339 1106 1353 1075 1357 C 1043 1361 993 1364 924 1364 L 682 1364 L 510 752 L 690 752 C 741 752 786 761 826 779 C 866 797 899 825 925 865 C 951 904 975 950 997 1004 L 1030 1004 L 870 434 L 842 434 C 850 482 854 520 854 547 C 854 571 852 594 849 614 C 846 634 839 650 829 664 C 818 678 806 688 794 695 C 782 702 766 707 747 711 C 727 715 706 717 682 717 L 502 717 L 362 223 C 348 177 342 144 342 125 C 342 91 355 67 381 55 C 407 43 463 37 549 37 C 672 37 757 40 805 48 C 852 56 885 68 905 84 C 946 118 992 168 1043 234 C 1094 300 1130 353 1151 393 L 1182 393 L 1049 0 L -76 0 L -68 23 C -48 23 -17 25 23 31 C 64 37 91 42 104 47 C 148 63 178 97 193 150 L 494 1235 C 499 1259 502 1276 502 1284 C 502 1303 494 1318 479 1328 C 464 1338 437 1348 399 1357 C 361 1366 330 1372 307 1374 L 315 1399 L 1339 1399 Z M 1245 1481 L 1223 1468 L 1006 1763 L 631 1470 L 617 1483 L 797 1682 C 887 1782 939 1840 955 1858 C 970 1876 994 1884 1028 1882 C 1044 1882 1056 1880 1064 1878 C 1072 1875 1078 1870 1082 1862 C 1086 1854 1141 1727 1245 1481 Z" unicode="" />
<glyph horiz-adv-x="1274" d="M 1339 1399 L 1251 1079 L 1221 1079 L 1221 1096 C 1221 1138 1215 1179 1203 1219 C 1191 1259 1174 1291 1153 1315 C 1132 1339 1106 1353 1075 1357 C 1043 1361 993 1364 924 1364 L 682 1364 L 510 752 L 690 752 C 741 752 786 761 826 779 C 866 797 899 825 925 865 C 951 904 975 950 997 1004 L 1030 1004 L 870 434 L 842 434 C 850 482 854 520 854 547 C 854 571 852 594 849 614 C 846 634 839 650 829 664 C 818 678 806 688 794 695 C 782 702 766 707 747 711 C 727 715 706 717 682 717 L 502 717 L 362 223 C 348 177 342 144 342 125 C 342 91 355 67 381 55 C 407 43 463 37 549 37 C 672 37 757 40 805 48 C 852 56 885 68 905 84 C 946 118 992 168 1043 234 C 1094 300 1130 353 1151 393 L 1182 393 L 1049 0 L -76 0 L -68 23 C -48 23 -17 25 23 31 C 64 37 91 42 104 47 C 148 63 178 97 193 150 L 494 1235 C 499 1259 502 1276 502 1284 C 502 1303 494 1318 479 1328 C 464 1338 437 1348 399 1357 C 361 1366 330 1372 307 1374 L 315 1399 L 1339 1399 Z M 1251 1710 C 1251 1677 1240 1649 1219 1627 C 1197 1604 1171 1593 1139 1593 C 1109 1593 1088 1602 1074 1620 C 1060 1638 1053 1659 1053 1683 C 1053 1715 1064 1743 1087 1765 C 1109 1787 1138 1798 1172 1798 C 1193 1798 1211 1789 1227 1771 C 1243 1753 1251 1733 1251 1710 Z M 856 1710 C 856 1677 845 1649 824 1627 C 802 1604 776 1593 744 1593 C 714 1593 693 1602 679 1620 C 665 1638 658 1659 658 1683 C 658 1715 669 1743 692 1765 C 714 1787 742 1798 776 1798 C 798 1798 816 1789 832 1771 C 848 1753 856 1732 856 1710 Z" unicode="" />
<glyph horiz-adv-x="764" d="M 922 1399 L 915 1374 C 852 1369 799 1361 756 1350 C 711 1336 681 1301 666 1247 L 358 152 C 354 133 352 119 352 111 C 352 91 359 75 374 65 C 388 54 413 45 448 37 C 482 29 512 24 537 23 L 532 0 L -41 0 L -37 23 C 44 29 95 35 117 43 C 161 58 190 91 205 143 L 510 1237 C 515 1261 518 1277 518 1284 C 518 1301 511 1315 498 1325 C 485 1335 460 1346 424 1356 C 387 1366 359 1372 340 1374 L 346 1399 L 922 1399 Z M 847 1483 L 824 1470 L 755 1544 L 633 1678 L 591 1722 C 557 1754 540 1787 540 1823 C 540 1841 545 1856 557 1869 C 569 1881 584 1888 603 1888 C 623 1888 639 1882 652 1871 C 664 1859 678 1838 693 1808 C 708 1777 759 1669 847 1483 Z" unicode="" />
<glyph horiz-adv-x="764" d="M 922 1399 L 915 1374 C 852 1369 799 1361 756 1350 C 711 1336 681 1301 666 1247 L 358 152 C 354 133 352 119 352 111 C 352 91 359 75 374 65 C 388 54 413 45 448 37 C 482 29 512 24 537 23 L 532 0 L -41 0 L -37 23 C 44 29 95 35 117 43 C 161 58 190 91 205 143 L 510 1237 C 515 1261 518 1277 518 1284 C 518 1301 511 1315 498 1325 C 485 1335 460 1346 424 1356 C 387 1366 359 1372 340 1374 L 346 1399 L 922 1399 Z M 972 1831 C 972 1807 963 1787 945 1769 C 927 1751 905 1733 880 1716 L 505 1470 L 491 1487 C 618 1621 715 1728 783 1808 C 827 1860 870 1886 912 1886 C 930 1886 945 1880 956 1869 C 966 1857 972 1845 972 1831 Z" unicode="" />
<glyph horiz-adv-x="764" d="M 922 1399 L 915 1374 C 852 1369 799 1361 756 1350 C 711 1336 681 1301 666 1247 L 358 152 C 354 133 352 119 352 111 C 352 91 359 75 374 65 C 388 54 413 45 448 37 C 482 29 512 24 537 23 L 532 0 L -41 0 L -37 23 C 44 29 95 35 117 43 C 161 58 190 91 205 143 L 510 1237 C 515 1261 518 1277 518 1284 C 518 1301 511 1315 498 1325 C 485 1335 460 1346 424 1356 C 387 1366 359 1372 340 1374 L 346 1399 L 922 1399 Z M 965 1481 L 943 1468 L 726 1763 L 351 1470 L 337 1483 L 517 1682 C 607 1782 659 1840 675 1858 C 690 1876 714 1884 748 1882 C 764 1882 776 1880 784 1878 C 792 1875 798 1870 802 1862 C 806 1854 861 1727 965 1481 Z" unicode="" />
<glyph horiz-adv-x="764" d="M 922 1399 L 915 1374 C 852 1369 799 1361 756 1350 C 711 1336 681 1301 666 1247 L 358 152 C 354 133 352 119 352 111 C 352 91 359 75 374 65 C 388 54 413 45 448 37 C 482 29 512 24 537 23 L 532 0 L -41 0 L -37 23 C 44 29 95 35 117 43 C 161 58 190 91 205 143 L 510 1237 C 515 1261 518 1277 518 1284 C 518 1301 511 1315 498 1325 C 485 1335 460 1346 424 1356 C 387 1366 359 1372 340 1374 L 346 1399 L 922 1399 Z M 996 1710 C 996 1677 985 1649 964 1627 C 942 1604 916 1593 884 1593 C 854 1593 833 1602 819 1620 C 805 1638 798 1659 798 1683 C 798 1715 809 1743 832 1765 C 854 1787 883 1798 917 1798 C 938 1798 956 1789 972 1771 C 988 1753 996 1733 996 1710 Z M 601 1710 C 601 1677 590 1649 569 1627 C 547 1604 521 1593 489 1593 C 459 1593 438 1602 424 1620 C 410 1638 403 1659 403 1683 C 403 1715 414 1743 437 1765 C 459 1787 487 1798 521 1798 C 543 1798 561 1789 577 1771 C 593 1753 601 1732 601 1710 Z" unicode="" />
<glyph horiz-adv-x="1485" d="M 346 711 L 131 711 L 143 762 L 360 762 L 494 1237 C 499 1261 502 1277 502 1284 C 502 1294 500 1303 496 1310 C 492 1317 484 1324 473 1332 C 462 1339 440 1347 406 1357 C 372 1366 345 1372 324 1374 L 330 1399 L 909 1399 C 1022 1399 1120 1378 1202 1337 C 1284 1295 1347 1234 1393 1153 C 1439 1072 1462 973 1462 856 C 1462 690 1422 543 1343 413 C 1263 283 1151 181 1006 109 C 861 36 700 0 522 0 L -57 0 L -53 23 L -18 26 C 53 30 102 40 129 56 C 155 71 175 100 188 143 L 346 711 Z M 512 762 L 850 762 L 838 711 L 498 711 L 354 197 C 348 175 345 155 345 139 C 345 103 359 78 389 62 C 419 46 469 39 541 39 C 677 39 804 73 920 142 C 1036 210 1128 306 1195 428 C 1262 550 1296 687 1296 838 C 1296 1011 1257 1142 1180 1230 C 1103 1318 990 1362 842 1362 L 680 1358 L 512 762 Z" unicode="" />
<glyph horiz-adv-x="1499" d="M 1712 1399 L 1706 1376 C 1678 1374 1641 1367 1596 1356 C 1551 1345 1520 1335 1503 1325 C 1475 1309 1450 1280 1429 1240 C 1407 1200 1385 1137 1362 1051 L 1077 -14 L 1051 -14 L 518 1221 L 297 369 C 275 281 264 218 264 180 C 264 145 269 119 280 101 C 291 83 320 66 366 50 C 412 34 452 25 485 23 L 479 0 L -102 0 L -96 23 C -66 25 -29 32 15 44 C 60 56 91 67 109 78 C 163 112 211 205 252 358 L 457 1122 C 462 1145 465 1168 465 1192 C 465 1252 443 1297 399 1326 C 355 1355 295 1371 219 1374 L 227 1399 L 598 1399 L 1106 223 L 1317 1038 C 1339 1126 1350 1189 1350 1229 C 1350 1260 1344 1284 1333 1301 C 1322 1317 1292 1334 1244 1350 C 1195 1366 1156 1374 1128 1376 L 1135 1399 L 1712 1399 Z M 1434 1816 C 1384 1729 1335 1664 1287 1622 C 1239 1579 1194 1558 1153 1558 C 1108 1558 1061 1577 1013 1617 C 963 1655 921 1675 887 1675 C 855 1675 821 1662 786 1637 C 750 1612 716 1575 684 1526 L 660 1534 C 684 1576 714 1618 749 1660 C 783 1702 816 1732 848 1752 C 880 1772 909 1782 936 1782 C 984 1782 1033 1762 1081 1724 C 1107 1702 1129 1687 1148 1678 C 1166 1669 1185 1665 1203 1665 C 1236 1665 1271 1679 1309 1709 C 1346 1739 1379 1777 1409 1825 L 1434 1816 Z" unicode="" />
<glyph horiz-adv-x="1436" d="M 1407 881 C 1407 722 1370 571 1296 427 C 1222 283 1125 170 1005 89 C 885 7 754 -33 614 -33 C 528 -33 445 -8 367 40 C 288 89 226 156 180 241 C 134 326 111 421 111 526 C 111 684 147 832 220 971 C 292 1109 391 1220 515 1304 C 639 1388 767 1430 897 1430 C 989 1430 1075 1405 1155 1355 C 1235 1305 1297 1238 1341 1155 C 1385 1071 1407 980 1407 881 Z M 1241 924 C 1241 1066 1209 1179 1147 1263 C 1085 1347 999 1389 889 1389 C 776 1389 673 1348 581 1268 C 488 1187 414 1073 359 927 C 303 780 276 628 276 471 C 276 333 307 221 370 136 C 433 50 520 8 631 8 C 743 8 844 47 936 127 C 1028 206 1101 318 1157 463 C 1213 608 1241 762 1241 924 Z M 997 1483 L 974 1470 L 905 1544 L 783 1678 L 741 1722 C 707 1754 690 1787 690 1823 C 690 1841 695 1856 707 1869 C 719 1881 734 1888 753 1888 C 773 1888 789 1882 802 1871 C 814 1859 828 1838 843 1808 C 858 1777 909 1669 997 1483 Z" unicode="" />
<glyph horiz-adv-x="1436" d="M 1407 881 C 1407 722 1370 571 1296 427 C 1222 283 1125 170 1005 89 C 885 7 754 -33 614 -33 C 528 -33 445 -8 367 40 C 288 89 226 156 180 241 C 134 326 111 421 111 526 C 111 684 147 832 220 971 C 292 1109 391 1220 515 1304 C 639 1388 767 1430 897 1430 C 989 1430 1075 1405 1155 1355 C 1235 1305 1297 1238 1341 1155 C 1385 1071 1407 980 1407 881 Z M 1241 924 C 1241 1066 1209 1179 1147 1263 C 1085 1347 999 1389 889 1389 C 776 1389 673 1348 581 1268 C 488 1187 414 1073 359 927 C 303 780 276 628 276 471 C 276 333 307 221 370 136 C 433 50 520 8 631 8 C 743 8 844 47 936 127 C 1028 206 1101 318 1157 463 C 1213 608 1241 762 1241 924 Z M 1307 1831 C 1307 1807 1298 1787 1280 1769 C 1262 1751 1240 1733 1215 1716 L 840 1470 L 826 1487 C 953 1621 1050 1728 1118 1808 C 1162 1860 1205 1886 1247 1886 C 1265 1886 1280 1880 1291 1869 C 1301 1857 1307 1845 1307 1831 Z" unicode="" />
<glyph horiz-adv-x="1436" d="M 1407 881 C 1407 722 1370 571 1296 427 C 1222 283 1125 170 1005 89 C 885 7 754 -33 614 -33 C 528 -33 445 -8 367 40 C 288 89 226 156 180 241 C 134 326 111 421 111 526 C 111 684 147 832 220 971 C 292 1109 391 1220 515 1304 C 639 1388 767 1430 897 1430 C 989 1430 1075 1405 1155 1355 C 1235 1305 1297 1238 1341 1155 C 1385 1071 1407 980 1407 881 Z M 1241 924 C 1241 1066 1209 1179 1147 1263 C 1085 1347 999 1389 889 1389 C 776 1389 673 1348 581 1268 C 488 1187 414 1073 359 927 C 303 780 276 628 276 471 C 276 333 307 221 370 136 C 433 50 520 8 631 8 C 743 8 844 47 936 127 C 1028 206 1101 318 1157 463 C 1213 608 1241 762 1241 924 Z M 1233 1481 L 1211 1468 L 994 1763 L 619 1470 L 605 1483 L 785 1682 C 875 1782 927 1840 943 1858 C 958 1876 982 1884 1016 1882 C 1032 1882 1044 1880 1052 1878 C 1060 1875 1066 1870 1070 1862 C 1074 1854 1129 1727 1233 1481 Z" unicode="" />
<glyph horiz-adv-x="1436" d="M 1407 881 C 1407 722 1370 571 1296 427 C 1222 283 1125 170 1005 89 C 885 7 754 -33 614 -33 C 528 -33 445 -8 367 40 C 288 89 226 156 180 241 C 134 326 111 421 111 526 C 111 684 147 832 220 971 C 292 1109 391 1220 515 1304 C 639 1388 767 1430 897 1430 C 989 1430 1075 1405 1155 1355 C 1235 1305 1297 1238 1341 1155 C 1385 1071 1407 980 1407 881 Z M 1241 924 C 1241 1066 1209 1179 1147 1263 C 1085 1347 999 1389 889 1389 C 776 1389 673 1348 581 1268 C 488 1187 414 1073 359 927 C 303 780 276 628 276 471 C 276 333 307 221 370 136 C 433 50 520 8 631 8 C 743 8 844 47 936 127 C 1028 206 1101 318 1157 463 C 1213 608 1241 762 1241 924 Z M 1370 1816 C 1320 1729 1271 1664 1223 1622 C 1175 1579 1130 1558 1089 1558 C 1044 1558 997 1577 949 1617 C 899 1655 857 1675 823 1675 C 791 1675 757 1662 722 1637 C 686 1612 652 1575 620 1526 L 596 1534 C 620 1576 650 1618 685 1660 C 719 1702 752 1732 784 1752 C 816 1772 845 1782 872 1782 C 920 1782 969 1762 1017 1724 C 1043 1702 1065 1687 1084 1678 C 1102 1669 1121 1665 1139 1665 C 1172 1665 1207 1679 1245 1709 C 1282 1739 1315 1777 1345 1825 L 1370 1816 Z" unicode="" />
<glyph horiz-adv-x="1436" d="M 1407 881 C 1407 722 1370 571 1296 427 C 1222 283 1125 170 1005 89 C 885 7 754 -33 614 -33 C 528 -33 445 -8 367 40 C 288 89 226 156 180 241 C 134 326 111 421 111 526 C 111 684 147 832 220 971 C 292 1109 391 1220 515 1304 C 639 1388 767 1430 897 1430 C 989 1430 1075 1405 1155 1355 C 1235 1305 1297 1238 1341 1155 C 1385 1071 1407 980 1407 881 Z M 1241 924 C 1241 1066 1209 1179 1147 1263 C 1085 1347 999 1389 889 1389 C 776 1389 673 1348 581 1268 C 488 1187 414 1073 359 927 C 303 780 276 628 276 471 C 276 333 307 221 370 136 C 433 50 520 8 631 8 C 743 8 844 47 936 127 C 1028 206 1101 318 1157 463 C 1213 608 1241 762 1241 924 Z M 1259 1690 C 1259 1657 1248 1629 1227 1607 C 1205 1584 1179 1573 1147 1573 C 1117 1573 1096 1582 1082 1600 C 1068 1618 1061 1639 1061 1663 C 1061 1695 1072 1723 1095 1745 C 1117 1767 1146 1778 1180 1778 C 1201 1778 1219 1769 1235 1751 C 1251 1733 1259 1713 1259 1690 Z M 864 1690 C 864 1657 853 1629 832 1607 C 810 1584 784 1573 752 1573 C 722 1573 701 1582 687 1600 C 673 1618 666 1639 666 1663 C 666 1695 677 1723 700 1745 C 722 1767 750 1778 784 1778 C 806 1778 824 1769 840 1751 C 856 1733 864 1712 864 1690 Z" unicode="" />
<glyph horiz-adv-x="1139" d="M 1018 74 L 604 487 L 190 74 L 145 119 L 559 532 L 145 946 L 188 987 L 600 575 L 1016 991 L 1063 944 L 647 528 L 1059 117 L 1018 74 Z" unicode="" />
<glyph horiz-adv-x="1436" d="M 219 178 C 147 278 111 394 111 526 C 111 684 147 832 220 971 C 292 1109 391 1220 515 1304 C 639 1388 767 1430 897 1430 C 967 1430 1034 1415 1098 1386 C 1162 1356 1219 1315 1268 1262 L 1470 1470 L 1499 1440 L 1294 1229 C 1369 1131 1407 1015 1407 881 C 1407 722 1370 571 1296 427 C 1222 283 1125 170 1005 89 C 885 7 754 -33 614 -33 C 548 -33 482 -17 417 13 C 352 43 295 87 246 145 L 27 -80 L -2 -51 L 219 178 Z M 305 266 L 1192 1184 C 1131 1320 1030 1389 889 1389 C 776 1389 673 1348 581 1268 C 488 1187 414 1073 359 927 C 303 780 276 628 276 471 C 276 400 285 332 305 266 Z M 1208 1141 L 322 225 C 351 155 392 101 446 64 C 499 26 561 8 631 8 C 743 8 844 47 936 127 C 1028 206 1101 318 1157 463 C 1213 608 1241 762 1241 924 C 1241 1004 1230 1076 1208 1141 Z" unicode="" />
<glyph horiz-adv-x="1610" d="M 1784 1399 L 1778 1376 C 1750 1374 1713 1367 1668 1356 C 1623 1345 1592 1335 1575 1325 C 1549 1310 1525 1282 1503 1242 C 1481 1202 1456 1132 1427 1032 L 1268 473 C 1216 292 1143 162 1048 84 C 952 6 826 -33 668 -33 C 521 -33 413 -4 343 52 C 273 108 238 188 238 291 C 238 353 247 417 266 485 L 475 1237 C 480 1261 483 1277 483 1284 C 483 1301 476 1315 463 1325 C 450 1335 425 1346 389 1356 C 352 1366 324 1372 305 1374 L 311 1399 L 887 1399 L 881 1374 C 819 1370 765 1362 721 1350 C 676 1335 646 1301 631 1247 L 430 526 C 404 430 391 351 391 287 C 391 211 422 150 484 104 C 546 58 628 35 729 35 C 859 35 965 72 1045 146 C 1125 220 1187 332 1229 481 L 1382 1020 C 1392 1051 1401 1087 1409 1129 C 1417 1171 1421 1204 1421 1229 C 1421 1260 1415 1284 1405 1300 C 1395 1316 1365 1333 1317 1349 C 1268 1365 1229 1374 1200 1376 L 1206 1399 L 1784 1399 Z M 1208 1483 L 1185 1470 L 1116 1544 L 994 1678 L 952 1722 C 918 1754 901 1787 901 1823 C 901 1841 906 1856 918 1869 C 930 1881 945 1888 964 1888 C 984 1888 1000 1882 1013 1871 C 1025 1859 1039 1838 1054 1808 C 1069 1777 1120 1669 1208 1483 Z" unicode="" />
<glyph horiz-adv-x="1610" d="M 1784 1399 L 1778 1376 C 1750 1374 1713 1367 1668 1356 C 1623 1345 1592 1335 1575 1325 C 1549 1310 1525 1282 1503 1242 C 1481 1202 1456 1132 1427 1032 L 1268 473 C 1216 292 1143 162 1048 84 C 952 6 826 -33 668 -33 C 521 -33 413 -4 343 52 C 273 108 238 188 238 291 C 238 353 247 417 266 485 L 475 1237 C 480 1261 483 1277 483 1284 C 483 1301 476 1315 463 1325 C 450 1335 425 1346 389 1356 C 352 1366 324 1372 305 1374 L 311 1399 L 887 1399 L 881 1374 C 819 1370 765 1362 721 1350 C 676 1335 646 1301 631 1247 L 430 526 C 404 430 391 351 391 287 C 391 211 422 150 484 104 C 546 58 628 35 729 35 C 859 35 965 72 1045 146 C 1125 220 1187 332 1229 481 L 1382 1020 C 1392 1051 1401 1087 1409 1129 C 1417 1171 1421 1204 1421 1229 C 1421 1260 1415 1284 1405 1300 C 1395 1316 1365 1333 1317 1349 C 1268 1365 1229 1374 1200 1376 L 1206 1399 L 1784 1399 Z M 1395 1831 C 1395 1807 1386 1787 1368 1769 C 1350 1751 1328 1733 1303 1716 L 928 1470 L 914 1487 C 1041 1621 1138 1728 1206 1808 C 1250 1860 1293 1886 1335 1886 C 1353 1886 1368 1880 1379 1869 C 1389 1857 1395 1845 1395 1831 Z" unicode="" />
<glyph horiz-adv-x="1610" d="M 1784 1399 L 1778 1376 C 1750 1374 1713 1367 1668 1356 C 1623 1345 1592 1335 1575 1325 C 1549 1310 1525 1282 1503 1242 C 1481 1202 1456 1132 1427 1032 L 1268 473 C 1216 292 1143 162 1048 84 C 952 6 826 -33 668 -33 C 521 -33 413 -4 343 52 C 273 108 238 188 238 291 C 238 353 247 417 266 485 L 475 1237 C 480 1261 483 1277 483 1284 C 483 1301 476 1315 463 1325 C 450 1335 425 1346 389 1356 C 352 1366 324 1372 305 1374 L 311 1399 L 887 1399 L 881 1374 C 819 1370 765 1362 721 1350 C 676 1335 646 1301 631 1247 L 430 526 C 404 430 391 351 391 287 C 391 211 422 150 484 104 C 546 58 628 35 729 35 C 859 35 965 72 1045 146 C 1125 220 1187 332 1229 481 L 1382 1020 C 1392 1051 1401 1087 1409 1129 C 1417 1171 1421 1204 1421 1229 C 1421 1260 1415 1284 1405 1300 C 1395 1316 1365 1333 1317 1349 C 1268 1365 1229 1374 1200 1376 L 1206 1399 L 1784 1399 Z M 1376 1481 L 1354 1468 L 1137 1763 L 762 1470 L 748 1483 L 928 1682 C 1018 1782 1070 1840 1086 1858 C 1101 1876 1125 1884 1159 1882 C 1175 1882 1187 1880 1195 1878 C 1203 1875 1209 1870 1213 1862 C 1217 1854 1272 1727 1376 1481 Z" unicode="" />
<glyph horiz-adv-x="1610" d="M 1784 1399 L 1778 1376 C 1750 1374 1713 1367 1668 1356 C 1623 1345 1592 1335 1575 1325 C 1549 1310 1525 1282 1503 1242 C 1481 1202 1456 1132 1427 1032 L 1268 473 C 1216 292 1143 162 1048 84 C 952 6 826 -33 668 -33 C 521 -33 413 -4 343 52 C 273 108 238 188 238 291 C 238 353 247 417 266 485 L 475 1237 C 480 1261 483 1277 483 1284 C 483 1301 476 1315 463 1325 C 450 1335 425 1346 389 1356 C 352 1366 324 1372 305 1374 L 311 1399 L 887 1399 L 881 1374 C 819 1370 765 1362 721 1350 C 676 1335 646 1301 631 1247 L 430 526 C 404 430 391 351 391 287 C 391 211 422 150 484 104 C 546 58 628 35 729 35 C 859 35 965 72 1045 146 C 1125 220 1187 332 1229 481 L 1382 1020 C 1392 1051 1401 1087 1409 1129 C 1417 1171 1421 1204 1421 1229 C 1421 1260 1415 1284 1405 1300 C 1395 1316 1365 1333 1317 1349 C 1268 1365 1229 1374 1200 1376 L 1206 1399 L 1784 1399 Z M 1398 1710 C 1398 1677 1387 1649 1366 1627 C 1344 1604 1318 1593 1286 1593 C 1256 1593 1235 1602 1221 1620 C 1207 1638 1200 1659 1200 1683 C 1200 1715 1211 1743 1234 1765 C 1256 1787 1285 1798 1319 1798 C 1340 1798 1358 1789 1374 1771 C 1390 1753 1398 1733 1398 1710 Z M 1003 1710 C 1003 1677 992 1649 971 1627 C 949 1604 923 1593 891 1593 C 861 1593 840 1602 826 1620 C 812 1638 805 1659 805 1683 C 805 1715 816 1743 839 1765 C 861 1787 889 1798 923 1798 C 945 1798 963 1789 979 1771 C 995 1753 1003 1732 1003 1710 Z" unicode="" />
<glyph horiz-adv-x="1255" d="M 1464 1329 C 1464 1299 1455 1276 1437 1258 C 1419 1240 1396 1231 1368 1231 C 1343 1231 1323 1237 1308 1250 C 1293 1263 1286 1279 1286 1298 C 1286 1311 1288 1325 1294 1341 C 1300 1356 1306 1368 1313 1376 L 1305 1384 C 1242 1377 1172 1340 1095 1273 C 1018 1206 951 1122 894 1021 C 837 920 794 810 764 690 L 629 152 C 625 134 623 121 623 111 C 625 85 641 65 670 51 C 676 47 700 41 742 34 C 783 26 814 23 834 23 L 829 0 L 240 0 L 244 23 C 319 29 368 35 391 43 C 435 58 463 91 475 143 L 604 666 C 612 696 619 738 625 791 C 631 843 635 894 635 944 C 635 1060 612 1151 566 1218 C 520 1285 457 1319 375 1319 C 324 1319 278 1299 237 1259 C 195 1219 164 1166 143 1100 L 117 1108 C 187 1318 306 1423 473 1423 C 561 1423 629 1386 679 1314 C 729 1242 754 1144 754 1020 C 754 967 747 901 735 823 L 754 823 C 919 1224 1115 1425 1343 1425 C 1379 1425 1408 1416 1430 1398 C 1452 1380 1464 1357 1464 1329 Z M 1217 1831 C 1217 1807 1208 1787 1190 1769 C 1172 1751 1150 1733 1125 1716 L 750 1470 L 736 1487 C 863 1621 960 1728 1028 1808 C 1072 1860 1115 1886 1157 1886 C 1175 1886 1190 1880 1201 1869 C 1211 1857 1217 1845 1217 1831 Z" unicode="" />
<glyph horiz-adv-x="1204" d="M 782 1114 C 908 1114 1004 1087 1070 1035 C 1136 982 1169 908 1169 813 C 1169 678 1111 572 996 494 C 881 416 725 377 528 377 L 406 377 L 342 150 C 338 134 336 121 336 111 C 336 81 355 59 393 47 C 431 34 474 26 520 23 L 516 0 L -57 0 L -53 23 L -18 26 C 56 30 106 41 132 58 C 158 74 177 103 188 143 L 494 1237 C 499 1261 502 1277 502 1284 C 502 1294 500 1303 496 1310 C 492 1317 484 1324 473 1332 C 462 1339 440 1347 406 1357 C 372 1366 345 1372 324 1374 L 330 1399 L 891 1399 L 885 1374 C 810 1364 761 1356 739 1350 C 696 1336 666 1301 649 1247 L 610 1114 L 782 1114 Z M 1004 795 C 1004 883 980 952 934 1002 C 887 1052 815 1077 719 1077 L 600 1077 L 418 418 L 543 418 C 691 418 805 449 885 512 C 964 575 1004 669 1004 795 Z" unicode="" />
<glyph horiz-adv-x="1110" d="M 1122 1286 C 1122 1194 1102 1114 1063 1044 C 892 979 807 901 807 811 C 807 773 814 735 829 696 C 844 657 868 612 902 562 C 940 502 966 454 980 418 C 994 382 1001 344 1001 306 C 1001 241 988 184 963 134 C 937 84 901 44 853 15 C 805 -14 754 -29 700 -29 C 655 -29 616 -21 584 -5 C 551 10 526 31 508 58 C 490 84 481 113 481 143 C 481 176 490 204 510 226 C 530 248 554 260 582 260 C 610 260 632 253 648 240 C 664 226 672 208 672 186 C 672 164 667 149 657 141 C 647 133 637 127 625 123 C 613 119 602 115 592 111 C 582 107 578 100 578 90 C 578 58 591 35 617 20 C 643 5 675 -2 715 -2 C 766 -2 807 16 837 54 C 867 91 883 143 883 209 C 883 253 875 296 860 337 C 845 378 821 423 788 473 C 752 525 727 569 713 603 C 699 637 692 672 692 707 C 692 818 758 910 891 983 C 931 1014 964 1055 989 1107 C 1013 1159 1026 1210 1026 1262 C 1026 1332 1010 1389 978 1431 C 946 1473 902 1495 846 1495 C 774 1495 707 1457 645 1381 C 583 1305 531 1197 489 1055 L 429 830 C 337 465 271 216 231 84 C 191 -48 145 -153 93 -231 C 41 -308 -14 -369 -74 -415 C -133 -460 -196 -483 -264 -483 C -320 -483 -364 -471 -395 -448 C -426 -425 -442 -393 -442 -352 C -442 -327 -433 -305 -415 -287 C -397 -269 -376 -260 -352 -260 C -325 -260 -303 -267 -285 -283 C -267 -299 -258 -319 -258 -344 C -258 -362 -261 -377 -268 -388 C -275 -398 -283 -411 -293 -426 C -291 -438 -287 -447 -279 -453 C -271 -458 -263 -461 -256 -461 C -192 -461 -138 -436 -95 -387 C -51 -337 -8 -252 34 -130 C 76 -8 133 193 203 476 C 259 703 303 875 336 993 C 370 1120 417 1223 477 1302 C 537 1380 602 1437 670 1471 C 738 1505 808 1522 881 1522 C 959 1522 1018 1501 1060 1459 C 1101 1417 1122 1359 1122 1286 Z" unicode="" />
<glyph horiz-adv-x="1081" d="M 985 932 L 750 262 C 724 190 711 134 711 92 C 711 38 732 12 774 12 C 820 12 866 36 911 86 C 955 135 995 205 1030 295 L 1055 287 C 1009 173 961 92 912 46 C 863 0 807 -23 745 -23 C 657 -23 613 22 613 112 C 613 140 618 174 629 213 L 625 215 C 583 137 535 77 481 35 C 426 -6 369 -27 309 -27 C 225 -27 160 0 115 55 C 69 109 47 189 47 295 C 47 365 62 442 93 527 C 123 611 163 685 211 747 C 259 809 315 857 379 892 C 443 926 512 944 586 944 C 640 944 686 928 725 898 C 763 868 788 829 799 782 L 803 782 L 856 932 L 985 932 Z M 786 737 C 778 790 755 833 719 865 C 683 897 637 913 582 913 C 515 913 452 883 394 824 C 336 764 287 679 248 569 C 209 458 190 350 190 246 C 190 97 238 23 336 23 C 389 23 438 40 484 76 C 530 111 577 172 625 258 L 786 737 Z M 798 1092 L 775 1079 L 706 1153 L 584 1287 L 542 1331 C 508 1363 491 1396 491 1432 C 491 1450 496 1465 508 1478 C 520 1490 535 1497 554 1497 C 574 1497 590 1491 603 1480 C 615 1468 629 1447 644 1417 C 659 1386 710 1278 798 1092 Z" unicode="" />
<glyph horiz-adv-x="1081" d="M 985 932 L 750 262 C 724 190 711 134 711 92 C 711 38 732 12 774 12 C 820 12 866 36 911 86 C 955 135 995 205 1030 295 L 1055 287 C 1009 173 961 92 912 46 C 863 0 807 -23 745 -23 C 657 -23 613 22 613 112 C 613 140 618 174 629 213 L 625 215 C 583 137 535 77 481 35 C 426 -6 369 -27 309 -27 C 225 -27 160 0 115 55 C 69 109 47 189 47 295 C 47 365 62 442 93 527 C 123 611 163 685 211 747 C 259 809 315 857 379 892 C 443 926 512 944 586 944 C 640 944 686 928 725 898 C 763 868 788 829 799 782 L 803 782 L 856 932 L 985 932 Z M 786 737 C 778 790 755 833 719 865 C 683 897 637 913 582 913 C 515 913 452 883 394 824 C 336 764 287 679 248 569 C 209 458 190 350 190 246 C 190 97 238 23 336 23 C 389 23 438 40 484 76 C 530 111 577 172 625 258 L 786 737 Z M 1004 1440 C 1004 1416 995 1396 977 1378 C 959 1360 937 1342 912 1325 L 537 1079 L 523 1096 C 650 1230 747 1337 815 1417 C 859 1469 902 1495 944 1495 C 962 1495 977 1489 988 1478 C 998 1466 1004 1454 1004 1440 Z" unicode="" />
<glyph horiz-adv-x="1081" d="M 985 932 L 750 262 C 724 190 711 134 711 92 C 711 38 732 12 774 12 C 820 12 866 36 911 86 C 955 135 995 205 1030 295 L 1055 287 C 1009 173 961 92 912 46 C 863 0 807 -23 745 -23 C 657 -23 613 22 613 112 C 613 140 618 174 629 213 L 625 215 C 583 137 535 77 481 35 C 426 -6 369 -27 309 -27 C 225 -27 160 0 115 55 C 69 109 47 189 47 295 C 47 365 62 442 93 527 C 123 611 163 685 211 747 C 259 809 315 857 379 892 C 443 926 512 944 586 944 C 640 944 686 928 725 898 C 763 868 788 829 799 782 L 803 782 L 856 932 L 985 932 Z M 786 737 C 778 790 755 833 719 865 C 683 897 637 913 582 913 C 515 913 452 883 394 824 C 336 764 287 679 248 569 C 209 458 190 350 190 246 C 190 97 238 23 336 23 C 389 23 438 40 484 76 C 530 111 577 172 625 258 L 786 737 Z M 982 1090 L 960 1077 L 743 1372 L 368 1079 L 354 1092 L 534 1291 C 624 1391 676 1449 692 1467 C 707 1485 731 1493 765 1491 C 781 1491 793 1489 801 1487 C 809 1484 815 1479 819 1471 C 823 1463 878 1336 982 1090 Z" unicode="" />
<glyph horiz-adv-x="1081" d="M 985 932 L 750 262 C 724 190 711 134 711 92 C 711 38 732 12 774 12 C 820 12 866 36 911 86 C 955 135 995 205 1030 295 L 1055 287 C 1009 173 961 92 912 46 C 863 0 807 -23 745 -23 C 657 -23 613 22 613 112 C 613 140 618 174 629 213 L 625 215 C 583 137 535 77 481 35 C 426 -6 369 -27 309 -27 C 225 -27 160 0 115 55 C 69 109 47 189 47 295 C 47 365 62 442 93 527 C 123 611 163 685 211 747 C 259 809 315 857 379 892 C 443 926 512 944 586 944 C 640 944 686 928 725 898 C 763 868 788 829 799 782 L 803 782 L 856 932 L 985 932 Z M 786 737 C 778 790 755 833 719 865 C 683 897 637 913 582 913 C 515 913 452 883 394 824 C 336 764 287 679 248 569 C 209 458 190 350 190 246 C 190 97 238 23 336 23 C 389 23 438 40 484 76 C 530 111 577 172 625 258 L 786 737 Z M 1058 1425 C 1008 1338 959 1273 911 1231 C 863 1188 818 1167 777 1167 C 732 1167 685 1186 637 1226 C 587 1264 545 1284 511 1284 C 479 1284 445 1271 410 1246 C 374 1221 340 1184 308 1135 L 284 1143 C 308 1185 338 1227 373 1269 C 407 1311 440 1341 472 1361 C 504 1381 533 1391 560 1391 C 608 1391 657 1371 705 1333 C 731 1311 753 1296 772 1287 C 790 1278 809 1274 827 1274 C 860 1274 895 1288 933 1318 C 970 1348 1003 1386 1033 1434 L 1058 1425 Z" unicode="" />
<glyph horiz-adv-x="1081" d="M 985 932 L 750 262 C 724 190 711 134 711 92 C 711 38 732 12 774 12 C 820 12 866 36 911 86 C 955 135 995 205 1030 295 L 1055 287 C 1009 173 961 92 912 46 C 863 0 807 -23 745 -23 C 657 -23 613 22 613 112 C 613 140 618 174 629 213 L 625 215 C 583 137 535 77 481 35 C 426 -6 369 -27 309 -27 C 225 -27 160 0 115 55 C 69 109 47 189 47 295 C 47 365 62 442 93 527 C 123 611 163 685 211 747 C 259 809 315 857 379 892 C 443 926 512 944 586 944 C 640 944 686 928 725 898 C 763 868 788 829 799 782 L 803 782 L 856 932 L 985 932 Z M 786 737 C 778 790 755 833 719 865 C 683 897 637 913 582 913 C 515 913 452 883 394 824 C 336 764 287 679 248 569 C 209 458 190 350 190 246 C 190 97 238 23 336 23 C 389 23 438 40 484 76 C 530 111 577 172 625 258 L 786 737 Z M 988 1319 C 988 1286 977 1258 956 1236 C 934 1213 908 1202 876 1202 C 846 1202 825 1211 811 1229 C 797 1247 790 1268 790 1292 C 790 1324 801 1352 824 1374 C 846 1396 875 1407 909 1407 C 930 1407 948 1398 964 1380 C 980 1362 988 1342 988 1319 Z M 593 1319 C 593 1286 582 1258 561 1236 C 539 1213 513 1202 481 1202 C 451 1202 430 1211 416 1229 C 402 1247 395 1268 395 1292 C 395 1324 406 1352 429 1374 C 451 1396 479 1407 513 1407 C 535 1407 553 1398 569 1380 C 585 1362 593 1341 593 1319 Z" unicode="" />
<glyph horiz-adv-x="1081" d="M 985 932 L 750 262 C 724 190 711 134 711 92 C 711 38 732 12 774 12 C 820 12 866 36 911 86 C 955 135 995 205 1030 295 L 1055 287 C 1009 173 961 92 912 46 C 863 0 807 -23 745 -23 C 657 -23 613 22 613 112 C 613 140 618 174 629 213 L 625 215 C 583 137 535 77 481 35 C 426 -6 369 -27 309 -27 C 225 -27 160 0 115 55 C 69 109 47 189 47 295 C 47 365 62 442 93 527 C 123 611 163 685 211 747 C 259 809 315 857 379 892 C 443 926 512 944 586 944 C 640 944 686 928 725 898 C 763 868 788 829 799 782 L 803 782 L 856 932 L 985 932 Z M 786 737 C 778 790 755 833 719 865 C 683 897 637 913 582 913 C 515 913 452 883 394 824 C 336 764 287 679 248 569 C 209 458 190 350 190 246 C 190 97 238 23 336 23 C 389 23 438 40 484 76 C 530 111 577 172 625 258 L 786 737 Z M 689 1085 C 631 1085 583 1100 544 1132 C 504 1164 485 1203 485 1251 C 485 1313 510 1367 562 1412 C 614 1456 675 1479 745 1479 C 803 1479 850 1463 888 1431 C 926 1399 945 1358 945 1309 C 945 1247 919 1194 868 1150 C 816 1106 757 1085 689 1085 Z M 855 1333 C 855 1412 819 1452 747 1452 C 716 1452 688 1441 662 1420 C 636 1398 615 1370 600 1334 C 584 1298 577 1263 577 1227 C 577 1191 585 1163 603 1143 C 621 1122 648 1112 685 1112 C 731 1112 771 1134 805 1179 C 838 1224 855 1275 855 1333 Z" unicode="" />
<glyph horiz-adv-x="1399" d="M 645 250 C 596 151 544 80 489 37 C 434 -5 374 -27 309 -27 C 225 -27 160 0 115 55 C 69 109 47 189 47 295 C 47 365 62 442 93 527 C 123 611 163 685 211 747 C 259 809 315 857 379 892 C 443 926 512 944 586 944 C 640 944 686 928 725 898 C 763 868 788 829 799 782 L 803 782 L 856 932 L 965 932 L 926 819 C 1010 902 1104 944 1208 944 C 1260 944 1304 931 1339 906 C 1373 881 1391 848 1391 807 C 1391 742 1366 683 1316 629 C 1266 575 1194 530 1100 495 C 1006 459 910 439 811 434 C 797 362 791 300 791 246 C 791 175 806 120 837 82 C 867 44 911 25 967 25 C 1095 25 1213 121 1319 313 L 1343 303 C 1287 195 1224 112 1155 56 C 1085 0 1012 -29 936 -29 C 855 -29 789 -4 738 44 C 687 93 657 161 649 248 L 645 250 Z M 786 737 C 778 790 755 833 719 865 C 683 897 637 913 582 913 C 515 913 452 883 394 824 C 336 764 287 679 248 569 C 209 458 190 350 190 246 C 190 97 238 23 336 23 C 389 23 438 40 484 76 C 530 111 577 172 625 258 L 786 737 Z M 817 459 C 903 468 979 488 1045 519 C 1111 549 1164 591 1205 643 C 1245 695 1266 746 1266 795 C 1266 873 1231 913 1161 913 C 1095 913 1029 868 962 779 C 895 689 847 583 817 459 Z" unicode="" />
<glyph horiz-adv-x="797" d="M 260 -20 C 192 -5 139 29 102 85 C 65 140 47 210 47 295 C 47 387 74 488 128 596 C 182 704 248 789 328 851 C 407 913 489 944 573 944 C 637 944 689 926 729 891 C 768 856 788 809 788 750 C 788 718 780 693 766 675 C 752 656 732 647 707 647 C 682 647 660 654 641 670 C 621 685 612 705 612 729 C 612 748 620 768 638 788 C 655 808 679 824 709 836 C 706 860 692 880 667 896 C 642 912 613 920 580 920 C 519 920 459 887 400 823 C 340 758 291 671 252 563 C 212 455 193 351 193 252 C 193 177 207 120 237 82 C 267 44 308 25 362 25 C 426 25 489 48 552 96 C 615 144 672 214 723 307 L 748 295 C 690 189 625 109 554 54 C 483 -1 408 -29 330 -29 L 313 -29 L 295 -27 L 268 -113 C 331 -113 380 -124 416 -147 C 451 -169 469 -202 469 -246 C 469 -312 427 -365 344 -405 C 261 -445 155 -465 25 -465 L 37 -430 C 133 -428 209 -415 265 -392 C 320 -369 348 -338 348 -299 C 348 -271 335 -252 310 -243 C 285 -233 246 -229 193 -229 L 260 -20 Z" unicode="" />
<glyph horiz-adv-x="799" d="M 190 246 C 190 175 205 120 236 82 C 267 44 311 25 367 25 C 495 25 613 121 719 313 L 743 303 C 685 194 622 111 553 55 C 484 0 412 -29 336 -29 C 246 -29 175 0 124 59 C 72 117 47 197 47 299 C 47 363 63 437 97 521 C 130 605 173 679 225 743 C 277 807 336 856 402 891 C 468 926 536 944 608 944 C 660 944 704 931 739 906 C 773 881 791 848 791 807 C 791 741 765 682 715 628 C 664 574 592 529 499 494 C 406 458 311 438 213 434 C 197 370 190 307 190 246 Z M 217 457 C 309 466 389 488 455 522 C 521 556 572 597 610 646 C 647 695 666 745 666 795 C 666 873 631 913 561 913 C 495 913 428 868 362 778 C 295 688 247 581 217 457 Z M 697 1092 L 674 1079 L 605 1153 L 483 1287 L 441 1331 C 407 1363 390 1396 390 1432 C 390 1450 395 1465 407 1478 C 419 1490 434 1497 453 1497 C 473 1497 489 1491 502 1480 C 514 1468 528 1447 543 1417 C 558 1386 609 1278 697 1092 Z" unicode="" />
<glyph horiz-adv-x="799" d="M 190 246 C 190 175 205 120 236 82 C 267 44 311 25 367 25 C 495 25 613 121 719 313 L 743 303 C 685 194 622 111 553 55 C 484 0 412 -29 336 -29 C 246 -29 175 0 124 59 C 72 117 47 197 47 299 C 47 363 63 437 97 521 C 130 605 173 679 225 743 C 277 807 336 856 402 891 C 468 926 536 944 608 944 C 660 944 704 931 739 906 C 773 881 791 848 791 807 C 791 741 765 682 715 628 C 664 574 592 529 499 494 C 406 458 311 438 213 434 C 197 370 190 307 190 246 Z M 217 457 C 309 466 389 488 455 522 C 521 556 572 597 610 646 C 647 695 666 745 666 795 C 666 873 631 913 561 913 C 495 913 428 868 362 778 C 295 688 247 581 217 457 Z M 925 1440 C 925 1416 916 1396 898 1378 C 880 1360 858 1342 833 1325 L 458 1079 L 444 1096 C 571 1230 668 1337 736 1417 C 780 1469 823 1495 865 1495 C 883 1495 898 1489 909 1478 C 919 1466 925 1454 925 1440 Z" unicode="" />
<glyph horiz-adv-x="799" d="M 190 246 C 190 175 205 120 236 82 C 267 44 311 25 367 25 C 495 25 613 121 719 313 L 743 303 C 685 194 622 111 553 55 C 484 0 412 -29 336 -29 C 246 -29 175 0 124 59 C 72 117 47 197 47 299 C 47 363 63 437 97 521 C 130 605 173 679 225 743 C 277 807 336 856 402 891 C 468 926 536 944 608 944 C 660 944 704 931 739 906 C 773 881 791 848 791 807 C 791 741 765 682 715 628 C 664 574 592 529 499 494 C 406 458 311 438 213 434 C 197 370 190 307 190 246 Z M 217 457 C 309 466 389 488 455 522 C 521 556 572 597 610 646 C 647 695 666 745 666 795 C 666 873 631 913 561 913 C 495 913 428 868 362 778 C 295 688 247 581 217 457 Z M 881 1050 L 859 1037 L 642 1332 L 267 1039 L 253 1052 L 433 1251 C 523 1351 575 1409 591 1427 C 606 1445 630 1453 664 1451 C 680 1451 692 1449 700 1447 C 708 1444 714 1439 718 1431 C 722 1423 777 1296 881 1050 Z" unicode="" />
<glyph horiz-adv-x="799" d="M 190 246 C 190 175 205 120 236 82 C 267 44 311 25 367 25 C 495 25 613 121 719 313 L 743 303 C 685 194 622 111 553 55 C 484 0 412 -29 336 -29 C 246 -29 175 0 124 59 C 72 117 47 197 47 299 C 47 363 63 437 97 521 C 130 605 173 679 225 743 C 277 807 336 856 402 891 C 468 926 536 944 608 944 C 660 944 704 931 739 906 C 773 881 791 848 791 807 C 791 741 765 682 715 628 C 664 574 592 529 499 494 C 406 458 311 438 213 434 C 197 370 190 307 190 246 Z M 217 457 C 309 466 389 488 455 522 C 521 556 572 597 610 646 C 647 695 666 745 666 795 C 666 873 631 913 561 913 C 495 913 428 868 362 778 C 295 688 247 581 217 457 Z M 887 1279 C 887 1246 876 1218 855 1196 C 833 1173 807 1162 775 1162 C 745 1162 724 1171 710 1189 C 696 1207 689 1228 689 1252 C 689 1284 700 1312 723 1334 C 745 1356 774 1367 808 1367 C 829 1367 847 1358 863 1340 C 879 1322 887 1302 887 1279 Z M 492 1279 C 492 1246 481 1218 460 1196 C 438 1173 412 1162 380 1162 C 350 1162 329 1171 315 1189 C 301 1207 294 1228 294 1252 C 294 1284 305 1312 328 1334 C 350 1356 378 1367 412 1367 C 434 1367 452 1358 468 1340 C 484 1322 492 1301 492 1279 Z" unicode="" />
<glyph horiz-adv-x="645" d="M 600 287 C 550 165 504 83 460 41 C 416 -1 366 -23 309 -23 C 199 -23 145 30 145 137 C 145 180 158 237 186 307 L 324 655 C 355 737 371 798 371 838 C 371 866 365 885 354 895 C 342 905 326 911 305 911 C 261 911 221 889 184 845 C 146 801 108 728 68 625 L 43 633 C 81 725 114 790 140 828 C 166 866 194 894 226 914 C 257 934 293 944 334 944 C 384 944 422 928 449 897 C 475 866 489 824 489 770 C 489 734 468 665 426 563 L 309 262 C 277 180 262 118 262 78 C 262 34 286 12 336 12 C 382 12 424 35 463 83 C 501 131 539 201 575 295 L 600 287 Z M 599 1092 L 576 1079 L 507 1153 L 385 1287 L 343 1331 C 309 1363 292 1396 292 1432 C 292 1450 297 1465 309 1478 C 321 1490 336 1497 355 1497 C 375 1497 391 1491 404 1480 C 416 1468 430 1447 445 1417 C 460 1386 511 1278 599 1092 Z" unicode="" />
<glyph horiz-adv-x="645" d="M 600 287 C 550 165 504 83 460 41 C 416 -1 366 -23 309 -23 C 199 -23 145 30 145 137 C 145 180 158 237 186 307 L 324 655 C 355 737 371 798 371 838 C 371 866 365 885 354 895 C 342 905 326 911 305 911 C 261 911 221 889 184 845 C 146 801 108 728 68 625 L 43 633 C 81 725 114 790 140 828 C 166 866 194 894 226 914 C 257 934 293 944 334 944 C 384 944 422 928 449 897 C 475 866 489 824 489 770 C 489 734 468 665 426 563 L 309 262 C 277 180 262 118 262 78 C 262 34 286 12 336 12 C 382 12 424 35 463 83 C 501 131 539 201 575 295 L 600 287 Z M 786 1440 C 786 1416 777 1396 759 1378 C 741 1360 719 1342 694 1325 L 319 1079 L 305 1096 C 432 1230 529 1337 597 1417 C 641 1469 684 1495 726 1495 C 744 1495 759 1489 770 1478 C 780 1466 786 1454 786 1440 Z" unicode="" />
<glyph horiz-adv-x="645" d="M 762 1049 L 739 1036 L 543 1331 L 188 1038 L 174 1051 C 208 1089 290 1186 421 1344 C 469 1403 499 1435 510 1441 C 520 1447 539 1450 565 1450 C 582 1450 595 1448 603 1445 C 611 1442 618 1432 626 1416 C 633 1400 653 1345 686 1252 C 714 1169 740 1101 762 1049 Z M 600 287 C 550 165 504 83 460 41 C 416 -1 366 -23 309 -23 C 199 -23 145 30 145 137 C 145 180 158 237 186 307 L 324 655 C 355 737 371 798 371 838 C 371 866 365 885 354 895 C 342 905 326 911 305 911 C 261 911 221 889 184 845 C 146 801 108 728 68 625 L 43 633 C 81 725 114 790 140 828 C 166 866 194 894 226 914 C 257 934 293 944 334 944 C 384 944 422 928 449 897 C 475 866 489 824 489 770 C 489 734 468 665 426 563 L 309 262 C 277 180 262 118 262 78 C 262 34 286 12 336 12 C 382 12 424 35 463 83 C 501 131 539 201 575 295 L 600 287 Z" unicode="" />
<glyph horiz-adv-x="645" d="M 788 1319 C 788 1287 777 1259 757 1236 C 736 1213 709 1202 676 1202 C 646 1202 625 1211 611 1229 C 597 1247 590 1268 590 1292 C 590 1324 601 1352 624 1374 C 646 1396 675 1407 709 1407 C 730 1407 748 1398 764 1380 C 780 1362 788 1342 788 1319 Z M 434 1319 C 434 1286 423 1258 402 1236 C 380 1213 354 1202 322 1202 C 292 1202 271 1211 257 1229 C 243 1247 236 1268 236 1292 C 236 1324 247 1352 270 1374 C 292 1396 320 1407 354 1407 C 376 1407 394 1398 410 1380 C 426 1362 434 1341 434 1319 Z M 600 287 C 550 165 504 83 460 41 C 416 -1 366 -23 309 -23 C 199 -23 145 30 145 137 C 145 180 158 237 186 307 L 324 655 C 355 737 371 798 371 838 C 371 866 365 885 354 895 C 342 905 326 911 305 911 C 261 911 221 889 184 845 C 146 801 108 728 68 625 L 43 633 C 81 725 114 790 140 828 C 166 866 194 894 226 914 C 257 934 293 944 334 944 C 384 944 422 928 449 897 C 475 866 489 824 489 770 C 489 734 468 665 426 563 L 309 262 C 277 180 262 118 262 78 C 262 34 286 12 336 12 C 382 12 424 35 463 83 C 501 131 539 201 575 295 L 600 287 Z" unicode="" />
<glyph horiz-adv-x="940" d="M 743 1384 L 936 1536 L 956 1507 L 766 1358 C 882 1224 940 1060 940 866 C 940 696 912 542 858 404 C 804 265 731 158 639 83 C 547 8 446 -29 336 -29 C 281 -29 232 -14 190 13 C 148 41 115 83 91 137 C 67 191 55 256 55 330 C 55 419 82 515 136 618 C 190 720 257 800 337 858 C 416 915 499 944 586 944 C 627 944 667 933 706 912 C 745 890 774 861 793 825 L 797 825 C 797 834 798 844 799 856 C 800 868 801 880 802 892 C 803 904 804 915 804 927 C 804 938 805 948 805 958 C 805 1016 796 1077 780 1141 C 764 1204 741 1263 713 1317 L 489 1141 L 471 1169 L 696 1348 C 654 1412 605 1464 551 1505 L 569 1524 C 636 1483 694 1436 743 1384 Z M 741 629 C 741 717 726 788 696 840 C 666 892 625 918 575 918 C 515 918 456 889 400 832 C 344 774 296 694 257 590 C 218 486 199 386 199 291 C 199 201 214 129 245 76 C 275 22 316 -4 367 -4 C 429 -4 489 25 545 83 C 601 141 647 223 685 328 C 722 432 741 533 741 629 Z" unicode="" />
<glyph horiz-adv-x="1190" d="M 1161 287 C 1125 200 1094 137 1067 97 C 1039 57 1009 27 977 7 C 945 -13 908 -23 868 -23 C 812 -23 769 -9 739 18 C 709 45 694 85 694 137 C 694 161 698 187 706 214 C 714 241 725 272 739 307 C 794 453 835 563 863 637 C 891 710 905 763 905 797 C 905 862 864 895 782 895 C 724 895 666 871 608 824 C 550 776 501 714 461 637 L 252 0 L 111 0 L 332 655 C 362 741 377 806 377 850 C 377 874 371 891 361 899 C 350 907 336 911 319 911 C 272 911 229 887 190 841 C 151 795 113 723 76 625 L 51 633 C 89 726 122 791 148 828 C 174 865 202 894 234 914 C 265 934 301 944 342 944 C 386 944 420 930 445 904 C 469 878 482 841 482 794 C 482 769 478 741 471 709 L 475 707 C 511 775 561 831 623 876 C 685 921 747 944 807 944 C 869 944 920 923 960 883 C 1000 842 1020 793 1020 735 C 1020 714 1016 687 1009 655 C 1001 623 992 592 981 563 L 866 262 C 833 174 817 113 817 80 C 817 34 842 12 893 12 C 936 12 977 34 1017 79 C 1057 123 1097 195 1137 295 L 1161 287 Z M 1192 1425 C 1142 1338 1093 1273 1045 1231 C 997 1188 952 1167 911 1167 C 866 1167 819 1186 771 1226 C 721 1264 679 1284 645 1284 C 613 1284 579 1271 544 1246 C 508 1221 474 1184 442 1135 L 418 1143 C 442 1185 472 1227 507 1269 C 541 1311 574 1341 606 1361 C 638 1381 667 1391 694 1391 C 742 1391 791 1371 839 1333 C 865 1311 887 1296 906 1287 C 924 1278 943 1274 961 1274 C 994 1274 1029 1288 1067 1318 C 1104 1348 1137 1386 1167 1434 L 1192 1425 Z" unicode="" />
<glyph horiz-adv-x="936" d="M 883 584 C 883 518 867 446 836 368 C 805 290 765 222 717 162 C 669 102 613 56 549 22 C 485 -12 417 -29 346 -29 C 290 -29 239 -14 194 15 C 149 45 115 87 91 141 C 67 195 55 258 55 330 C 55 419 81 515 135 618 C 188 720 254 800 333 858 C 411 915 495 944 584 944 C 672 944 744 911 800 846 C 855 781 883 694 883 584 Z M 739 629 C 739 691 732 744 718 787 C 704 829 684 862 659 884 C 634 906 605 918 573 918 C 509 918 449 888 393 829 C 336 770 289 690 253 588 C 217 486 199 387 199 291 C 199 199 214 128 245 76 C 275 24 315 -2 365 -2 C 429 -2 489 27 545 85 C 601 143 648 225 684 329 C 720 433 739 533 739 629 Z M 745 1092 L 722 1079 L 653 1153 L 531 1287 L 489 1331 C 455 1363 438 1396 438 1432 C 438 1450 443 1465 455 1478 C 467 1490 482 1497 501 1497 C 521 1497 537 1491 550 1480 C 562 1468 576 1447 591 1417 C 606 1386 657 1278 745 1092 Z" unicode="" />
<glyph horiz-adv-x="936" d="M 883 584 C 883 518 867 446 836 368 C 805 290 765 222 717 162 C 669 102 613 56 549 22 C 485 -12 417 -29 346 -29 C 290 -29 239 -14 194 15 C 149 45 115 87 91 141 C 67 195 55 258 55 330 C 55 419 81 515 135 618 C 188 720 254 800 333 858 C 411 915 495 944 584 944 C 672 944 744 911 800 846 C 855 781 883 694 883 584 Z M 739 629 C 739 691 732 744 718 787 C 704 829 684 862 659 884 C 634 906 605 918 573 918 C 509 918 449 888 393 829 C 336 770 289 690 253 588 C 217 486 199 387 199 291 C 199 199 214 128 245 76 C 275 24 315 -2 365 -2 C 429 -2 489 27 545 85 C 601 143 648 225 684 329 C 720 433 739 533 739 629 Z M 931 1440 C 931 1416 922 1396 904 1378 C 886 1360 864 1342 839 1325 L 464 1079 L 450 1096 C 577 1230 674 1337 742 1417 C 786 1469 829 1495 871 1495 C 889 1495 904 1489 915 1478 C 925 1466 931 1454 931 1440 Z" unicode="" />
<glyph horiz-adv-x="936" d="M 883 584 C 883 518 867 446 836 368 C 805 290 765 222 717 162 C 669 102 613 56 549 22 C 485 -12 417 -29 346 -29 C 290 -29 239 -14 194 15 C 149 45 115 87 91 141 C 67 195 55 258 55 330 C 55 419 81 515 135 618 C 188 720 254 800 333 858 C 411 915 495 944 584 944 C 672 944 744 911 800 846 C 855 781 883 694 883 584 Z M 739 629 C 739 691 732 744 718 787 C 704 829 684 862 659 884 C 634 906 605 918 573 918 C 509 918 449 888 393 829 C 336 770 289 690 253 588 C 217 486 199 387 199 291 C 199 199 214 128 245 76 C 275 24 315 -2 365 -2 C 429 -2 489 27 545 85 C 601 143 648 225 684 329 C 720 433 739 533 739 629 Z M 908 1050 L 886 1037 L 669 1332 L 294 1039 L 280 1052 L 460 1251 C 550 1351 602 1409 618 1427 C 633 1445 657 1453 691 1451 C 707 1451 719 1449 727 1447 C 735 1444 741 1439 745 1431 C 749 1423 804 1296 908 1050 Z" unicode="" />
<glyph horiz-adv-x="936" d="M 883 584 C 883 518 867 446 836 368 C 805 290 765 222 717 162 C 669 102 613 56 549 22 C 485 -12 417 -29 346 -29 C 290 -29 239 -14 194 15 C 149 45 115 87 91 141 C 67 195 55 258 55 330 C 55 419 81 515 135 618 C 188 720 254 800 333 858 C 411 915 495 944 584 944 C 672 944 744 911 800 846 C 855 781 883 694 883 584 Z M 739 629 C 739 691 732 744 718 787 C 704 829 684 862 659 884 C 634 906 605 918 573 918 C 509 918 449 888 393 829 C 336 770 289 690 253 588 C 217 486 199 387 199 291 C 199 199 214 128 245 76 C 275 24 315 -2 365 -2 C 429 -2 489 27 545 85 C 601 143 648 225 684 329 C 720 433 739 533 739 629 Z M 1025 1385 C 975 1298 926 1233 878 1191 C 830 1148 785 1127 744 1127 C 699 1127 652 1146 604 1186 C 554 1224 512 1244 478 1244 C 446 1244 412 1231 377 1206 C 341 1181 307 1144 275 1095 L 251 1103 C 275 1145 305 1187 340 1229 C 374 1271 407 1301 439 1321 C 471 1341 500 1351 527 1351 C 575 1351 624 1331 672 1293 C 698 1271 720 1256 739 1247 C 757 1238 776 1234 794 1234 C 827 1234 862 1248 900 1278 C 937 1308 970 1346 1000 1394 L 1025 1385 Z" unicode="" />
<glyph horiz-adv-x="936" d="M 883 584 C 883 518 867 446 836 368 C 805 290 765 222 717 162 C 669 102 613 56 549 22 C 485 -12 417 -29 346 -29 C 290 -29 239 -14 194 15 C 149 45 115 87 91 141 C 67 195 55 258 55 330 C 55 419 81 515 135 618 C 188 720 254 800 333 858 C 411 915 495 944 584 944 C 672 944 744 911 800 846 C 855 781 883 694 883 584 Z M 739 629 C 739 691 732 744 718 787 C 704 829 684 862 659 884 C 634 906 605 918 573 918 C 509 918 449 888 393 829 C 336 770 289 690 253 588 C 217 486 199 387 199 291 C 199 199 214 128 245 76 C 275 24 315 -2 365 -2 C 429 -2 489 27 545 85 C 601 143 648 225 684 329 C 720 433 739 533 739 629 Z M 934 1279 C 934 1246 923 1218 902 1196 C 880 1173 854 1162 822 1162 C 792 1162 771 1171 757 1189 C 743 1207 736 1228 736 1252 C 736 1284 747 1312 770 1334 C 792 1356 821 1367 855 1367 C 876 1367 894 1358 910 1340 C 926 1322 934 1302 934 1279 Z M 539 1279 C 539 1246 528 1218 507 1196 C 485 1173 459 1162 427 1162 C 397 1162 376 1171 362 1189 C 348 1207 341 1228 341 1252 C 341 1284 352 1312 375 1334 C 397 1356 425 1367 459 1367 C 481 1367 499 1358 515 1340 C 531 1322 539 1301 539 1279 Z" unicode="" />
<glyph horiz-adv-x="1139" d="M 700 907 C 700 875 688 847 665 825 C 642 802 614 791 582 791 C 548 791 520 802 498 825 C 476 847 465 875 465 907 C 465 940 476 968 499 991 C 521 1014 549 1026 582 1026 C 614 1026 641 1014 665 991 C 688 967 700 939 700 907 Z M 1075 502 L 88 502 L 88 561 L 1075 561 L 1075 502 Z M 700 154 C 700 121 688 93 665 71 C 642 48 614 37 582 37 C 548 37 520 48 498 71 C 476 93 465 121 465 154 C 465 186 476 214 499 237 C 521 260 549 272 582 272 C 614 272 641 260 665 237 C 688 213 700 186 700 154 Z" unicode="" />
<glyph horiz-adv-x="936" d="M 113 98 C 74 163 55 240 55 330 C 55 419 81 515 135 618 C 188 720 254 800 333 858 C 411 915 495 944 584 944 C 671 944 742 912 797 850 L 928 995 L 946 975 C 894 919 851 869 815 827 C 860 766 883 685 883 584 C 883 518 867 446 836 368 C 805 290 765 222 717 162 C 669 102 613 56 549 22 C 485 -12 417 -29 346 -29 C 256 -29 184 6 129 76 L -10 -76 L -29 -57 L 113 98 Z M 731 737 L 211 166 C 222 114 241 73 269 43 C 296 13 328 -2 365 -2 C 429 -2 489 27 545 85 C 601 143 648 225 684 329 C 720 433 739 533 739 629 C 739 660 736 696 731 737 Z M 205 199 L 723 770 C 711 816 691 852 665 878 C 639 904 608 918 573 918 C 509 918 449 888 393 829 C 336 770 289 690 253 588 C 217 486 199 387 199 291 C 199 257 201 227 205 199 Z" unicode="" />
<glyph horiz-adv-x="1174" d="M 1147 287 C 1111 200 1080 137 1053 97 C 1025 57 995 27 963 7 C 931 -13 894 -23 854 -23 C 796 -23 757 -7 737 23 C 717 54 707 89 707 129 C 707 153 709 179 715 209 L 711 211 C 671 139 620 81 559 38 C 498 -5 438 -27 379 -27 C 315 -27 263 -5 224 37 C 185 79 166 135 166 203 C 166 217 169 239 177 269 C 184 299 193 328 205 354 L 322 655 C 352 735 367 793 367 831 C 367 884 346 911 305 911 C 261 911 221 888 183 842 C 145 796 108 724 70 625 L 45 633 C 80 720 111 783 137 823 C 163 862 192 891 224 911 C 255 930 291 940 332 940 C 382 940 420 926 447 898 C 473 870 487 831 487 780 C 487 737 472 680 444 610 L 319 291 C 295 229 283 173 283 125 C 283 57 323 23 403 23 C 458 23 514 45 571 89 C 627 133 677 193 721 270 L 924 913 L 1063 913 L 848 262 C 838 233 830 202 824 170 C 818 138 815 112 815 94 C 815 70 820 51 832 35 C 844 19 859 12 879 12 C 968 12 1049 106 1122 295 L 1147 287 Z M 879 1092 L 856 1079 L 787 1153 L 665 1287 L 623 1331 C 589 1363 572 1396 572 1432 C 572 1450 577 1465 589 1478 C 601 1490 616 1497 635 1497 C 655 1497 671 1491 684 1480 C 696 1468 710 1447 725 1417 C 740 1386 791 1278 879 1092 Z" unicode="" />
<glyph horiz-adv-x="1174" d="M 1147 287 C 1111 200 1080 137 1053 97 C 1025 57 995 27 963 7 C 931 -13 894 -23 854 -23 C 796 -23 757 -7 737 23 C 717 54 707 89 707 129 C 707 153 709 179 715 209 L 711 211 C 671 139 620 81 559 38 C 498 -5 438 -27 379 -27 C 315 -27 263 -5 224 37 C 185 79 166 135 166 203 C 166 217 169 239 177 269 C 184 299 193 328 205 354 L 322 655 C 352 735 367 793 367 831 C 367 884 346 911 305 911 C 261 911 221 888 183 842 C 145 796 108 724 70 625 L 45 633 C 80 720 111 783 137 823 C 163 862 192 891 224 911 C 255 930 291 940 332 940 C 382 940 420 926 447 898 C 473 870 487 831 487 780 C 487 737 472 680 444 610 L 319 291 C 295 229 283 173 283 125 C 283 57 323 23 403 23 C 458 23 514 45 571 89 C 627 133 677 193 721 270 L 924 913 L 1063 913 L 848 262 C 838 233 830 202 824 170 C 818 138 815 112 815 94 C 815 70 820 51 832 35 C 844 19 859 12 879 12 C 968 12 1049 106 1122 295 L 1147 287 Z M 1045 1440 C 1045 1416 1036 1396 1018 1378 C 1000 1360 978 1342 953 1325 L 578 1079 L 564 1096 C 691 1230 788 1337 856 1417 C 900 1469 943 1495 985 1495 C 1003 1495 1018 1489 1029 1478 C 1039 1466 1045 1454 1045 1440 Z" unicode="" />
<glyph horiz-adv-x="1174" d="M 1147 287 C 1111 200 1080 137 1053 97 C 1025 57 995 27 963 7 C 931 -13 894 -23 854 -23 C 796 -23 757 -7 737 23 C 717 54 707 89 707 129 C 707 153 709 179 715 209 L 711 211 C 671 139 620 81 559 38 C 498 -5 438 -27 379 -27 C 315 -27 263 -5 224 37 C 185 79 166 135 166 203 C 166 217 169 239 177 269 C 184 299 193 328 205 354 L 322 655 C 352 735 367 793 367 831 C 367 884 346 911 305 911 C 261 911 221 888 183 842 C 145 796 108 724 70 625 L 45 633 C 80 720 111 783 137 823 C 163 862 192 891 224 911 C 255 930 291 940 332 940 C 382 940 420 926 447 898 C 473 870 487 831 487 780 C 487 737 472 680 444 610 L 319 291 C 295 229 283 173 283 125 C 283 57 323 23 403 23 C 458 23 514 45 571 89 C 627 133 677 193 721 270 L 924 913 L 1063 913 L 848 262 C 838 233 830 202 824 170 C 818 138 815 112 815 94 C 815 70 820 51 832 35 C 844 19 859 12 879 12 C 968 12 1049 106 1122 295 L 1147 287 Z M 1063 1090 L 1041 1077 L 824 1372 L 449 1079 L 435 1092 L 615 1291 C 705 1391 757 1449 773 1467 C 788 1485 812 1493 846 1491 C 862 1491 874 1489 882 1487 C 890 1484 896 1479 900 1471 C 904 1463 959 1336 1063 1090 Z" unicode="" />
<glyph horiz-adv-x="1174" d="M 1147 287 C 1111 200 1080 137 1053 97 C 1025 57 995 27 963 7 C 931 -13 894 -23 854 -23 C 796 -23 757 -7 737 23 C 717 54 707 89 707 129 C 707 153 709 179 715 209 L 711 211 C 671 139 620 81 559 38 C 498 -5 438 -27 379 -27 C 315 -27 263 -5 224 37 C 185 79 166 135 166 203 C 166 217 169 239 177 269 C 184 299 193 328 205 354 L 322 655 C 352 735 367 793 367 831 C 367 884 346 911 305 911 C 261 911 221 888 183 842 C 145 796 108 724 70 625 L 45 633 C 80 720 111 783 137 823 C 163 862 192 891 224 911 C 255 930 291 940 332 940 C 382 940 420 926 447 898 C 473 870 487 831 487 780 C 487 737 472 680 444 610 L 319 291 C 295 229 283 173 283 125 C 283 57 323 23 403 23 C 458 23 514 45 571 89 C 627 133 677 193 721 270 L 924 913 L 1063 913 L 848 262 C 838 233 830 202 824 170 C 818 138 815 112 815 94 C 815 70 820 51 832 35 C 844 19 859 12 879 12 C 968 12 1049 106 1122 295 L 1147 287 Z M 1069 1319 C 1069 1286 1058 1258 1037 1236 C 1015 1213 989 1202 957 1202 C 927 1202 906 1211 892 1229 C 878 1247 871 1268 871 1292 C 871 1324 882 1352 905 1374 C 927 1396 956 1407 990 1407 C 1011 1407 1029 1398 1045 1380 C 1061 1362 1069 1342 1069 1319 Z M 674 1319 C 674 1286 663 1258 642 1236 C 620 1213 594 1202 562 1202 C 532 1202 511 1211 497 1229 C 483 1247 476 1268 476 1292 C 476 1324 487 1352 510 1374 C 532 1396 560 1407 594 1407 C 616 1407 634 1398 650 1380 C 666 1362 674 1341 674 1319 Z" unicode="" />
<glyph horiz-adv-x="1061" d="M 1061 913 L 846 217 C 699 -253 478 -489 184 -489 C 104 -489 41 -474 -3 -445 C -47 -415 -70 -373 -70 -317 C -70 -281 -58 -252 -35 -230 C -12 -208 15 -197 47 -197 C 73 -197 93 -204 107 -218 C 120 -232 127 -248 127 -265 L 127 -270 C 123 -316 104 -343 69 -349 C 48 -353 34 -357 27 -362 C 19 -367 16 -375 16 -387 C 18 -410 33 -428 61 -441 C 88 -454 125 -461 172 -461 C 258 -461 333 -438 399 -392 C 464 -346 522 -277 572 -186 C 622 -94 672 37 721 209 L 717 211 C 677 140 626 83 563 39 C 500 -5 439 -27 379 -27 C 315 -27 263 -5 224 37 C 185 79 166 135 166 203 C 166 217 169 239 177 269 C 184 299 193 328 205 354 L 322 655 C 352 732 367 791 367 831 C 367 884 346 911 305 911 C 261 911 221 888 183 842 C 145 796 108 724 70 625 L 45 633 C 80 720 111 783 137 823 C 163 862 192 891 224 911 C 255 930 291 940 332 940 C 382 940 420 926 447 898 C 473 870 487 831 487 780 C 487 737 472 680 444 610 L 319 291 C 295 229 283 173 283 125 C 283 57 323 23 403 23 C 460 23 518 44 576 88 C 634 132 685 192 729 270 L 928 913 L 1061 913 Z M 993 1440 C 993 1416 984 1396 966 1378 C 948 1360 926 1342 901 1325 L 526 1079 L 512 1096 C 639 1230 736 1337 804 1417 C 848 1469 891 1495 933 1495 C 951 1495 966 1489 977 1478 C 987 1466 993 1454 993 1440 Z" unicode="" />
<glyph horiz-adv-x="981" d="M 399 -27 C 344 -27 296 -11 256 19 C 215 50 188 89 176 135 L 172 135 C 124 -22 88 -141 63 -223 C 38 -305 27 -357 29 -381 C 29 -406 41 -424 66 -434 C 90 -444 126 -450 174 -452 L 233 -455 L 227 -479 L -305 -479 L -299 -457 C -259 -457 -228 -453 -207 -447 C -186 -441 -169 -429 -155 -413 C -141 -396 -129 -378 -120 -360 C -111 -341 -96 -301 -76 -240 L 403 1264 C 423 1326 434 1371 434 1401 C 434 1427 421 1445 395 1455 C 369 1465 333 1471 287 1473 L 223 1475 L 223 1499 L 621 1520 L 369 754 L 373 752 C 405 805 450 850 508 888 C 565 925 621 944 676 944 C 760 944 824 916 870 862 C 915 807 938 727 938 623 C 938 549 922 470 892 386 C 862 301 823 228 775 167 C 727 105 671 58 607 24 C 543 -10 474 -27 399 -27 Z M 795 672 C 795 820 746 895 649 895 C 593 895 538 873 483 830 C 427 786 380 729 340 659 L 190 180 C 198 129 222 87 260 54 C 298 20 345 4 403 4 C 469 4 531 33 589 91 C 647 149 695 234 735 346 C 775 458 795 566 795 672 Z" unicode="" />
<glyph horiz-adv-x="1061" d="M 1061 913 L 846 217 C 699 -253 478 -489 184 -489 C 104 -489 41 -474 -3 -445 C -47 -415 -70 -373 -70 -317 C -70 -281 -58 -252 -35 -230 C -12 -208 15 -197 47 -197 C 73 -197 93 -204 107 -218 C 120 -232 127 -248 127 -265 L 127 -270 C 123 -316 104 -343 69 -349 C 48 -353 34 -357 27 -362 C 19 -367 16 -375 16 -387 C 18 -410 33 -428 61 -441 C 88 -454 125 -461 172 -461 C 258 -461 333 -438 399 -392 C 464 -346 522 -277 572 -186 C 622 -94 672 37 721 209 L 717 211 C 677 140 626 83 563 39 C 500 -5 439 -27 379 -27 C 315 -27 263 -5 224 37 C 185 79 166 135 166 203 C 166 217 169 239 177 269 C 184 299 193 328 205 354 L 322 655 C 352 732 367 791 367 831 C 367 884 346 911 305 911 C 261 911 221 888 183 842 C 145 796 108 724 70 625 L 45 633 C 80 720 111 783 137 823 C 163 862 192 891 224 911 C 255 930 291 940 332 940 C 382 940 420 926 447 898 C 473 870 487 831 487 780 C 487 737 472 680 444 610 L 319 291 C 295 229 283 173 283 125 C 283 57 323 23 403 23 C 460 23 518 44 576 88 C 634 132 685 192 729 270 L 928 913 L 1061 913 Z M 1058 1319 C 1058 1286 1047 1258 1026 1236 C 1004 1213 978 1202 946 1202 C 916 1202 895 1211 881 1229 C 867 1247 860 1268 860 1292 C 860 1324 871 1352 894 1374 C 916 1396 945 1407 979 1407 C 1000 1407 1018 1398 1034 1380 C 1050 1362 1058 1342 1058 1319 Z M 663 1319 C 663 1286 652 1258 631 1236 C 609 1213 583 1202 551 1202 C 521 1202 500 1211 486 1229 C 472 1247 465 1268 465 1292 C 465 1324 476 1352 499 1374 C 521 1396 549 1407 583 1407 C 605 1407 623 1398 639 1380 C 655 1362 663 1341 663 1319 Z" unicode="" />
<glyph horiz-adv-x="645" d="M 600 287 C 550 165 504 83 460 41 C 416 -1 366 -23 309 -23 C 199 -23 145 30 145 137 C 145 180 158 237 186 307 L 324 655 C 355 737 371 798 371 838 C 371 866 365 885 354 895 C 342 905 326 911 305 911 C 261 911 221 889 184 845 C 146 801 108 728 68 625 L 43 633 C 81 725 114 790 140 828 C 166 866 194 894 226 914 C 257 934 293 944 334 944 C 384 944 422 928 449 897 C 475 866 489 824 489 770 C 489 734 468 665 426 563 L 309 262 C 277 180 262 118 262 78 C 262 34 286 12 336 12 C 382 12 424 35 463 83 C 501 131 539 201 575 295 L 600 287 Z" unicode="" />
<glyph horiz-adv-x="1257" d="M 343 119 C 343 87 357 66 386 54 C 414 42 471 37 557 37 C 637 37 709 41 772 50 C 834 58 876 70 897 86 C 933 112 977 156 1027 217 C 1077 278 1119 338 1153 397 L 1182 397 L 1044 0 L -76 0 L -68 23 C -48 23 -17 25 23 31 C 64 37 91 42 104 47 C 148 63 178 97 193 150 L 328 639 L 104 565 L 94 602 C 225 646 307 673 340 682 L 494 1235 C 499 1259 502 1276 502 1284 C 502 1303 494 1318 479 1328 C 464 1338 437 1348 399 1357 C 361 1366 330 1372 307 1374 L 315 1399 L 905 1399 L 899 1374 C 837 1370 783 1362 739 1350 C 696 1336 666 1301 649 1247 L 506 739 L 909 872 L 918 834 L 494 694 L 362 223 C 349 177 343 142 343 119 Z" unicode="" />
<glyph horiz-adv-x="561" d="M 190 80 C 190 55 196 38 208 28 C 220 18 237 14 260 14 C 350 14 431 107 504 295 L 528 287 C 483 172 438 92 394 46 C 349 0 296 -23 236 -23 C 180 -23 139 -9 114 17 C 88 43 76 83 76 135 C 76 168 88 225 113 307 L 209 612 L 41 557 L 33 590 L 221 653 L 416 1264 C 434 1321 444 1367 444 1401 C 444 1426 432 1444 408 1454 C 384 1464 347 1470 297 1472 L 233 1475 L 233 1499 L 633 1520 L 371 702 L 596 776 L 604 741 L 358 662 L 229 258 C 203 177 190 118 190 80 Z" unicode="" />
<glyph horiz-adv-x="2064" d="M 2068 1399 L 1980 1079 L 1950 1079 C 1950 1132 1944 1179 1932 1219 C 1920 1259 1903 1291 1882 1315 C 1861 1339 1835 1353 1804 1357 C 1772 1361 1722 1364 1653 1364 L 1411 1364 L 1239 752 L 1419 752 C 1470 752 1515 761 1555 779 C 1595 797 1628 825 1654 865 C 1680 904 1704 950 1726 1004 L 1759 1004 L 1599 434 L 1571 434 L 1575 458 C 1580 490 1583 520 1583 547 C 1583 571 1581 594 1578 614 C 1575 634 1568 650 1558 664 C 1547 678 1535 688 1523 695 C 1511 702 1495 707 1476 711 C 1456 715 1435 717 1411 717 L 1231 717 L 1092 223 C 1078 179 1071 147 1071 125 C 1071 91 1084 67 1110 55 C 1136 43 1192 37 1278 37 C 1401 37 1486 40 1534 48 C 1581 56 1614 68 1634 84 C 1675 118 1721 168 1772 234 C 1823 300 1859 353 1880 393 L 1911 393 L 1778 0 L 627 0 C 527 0 438 21 360 64 C 281 106 220 167 176 247 C 132 327 111 420 111 526 C 111 687 147 834 219 968 C 291 1101 390 1206 516 1283 C 642 1360 780 1399 928 1399 L 2068 1399 Z M 276 471 C 276 387 291 312 321 246 C 351 179 394 127 448 91 C 502 55 563 37 631 37 C 699 37 753 44 795 58 C 837 72 870 99 894 139 C 918 179 944 241 970 325 C 996 408 1034 537 1082 712 C 1130 886 1160 1005 1173 1068 C 1185 1130 1192 1182 1194 1223 C 1194 1271 1170 1306 1124 1328 C 1077 1349 1005 1360 909 1360 C 785 1360 675 1322 579 1248 C 483 1173 408 1067 355 929 C 302 791 276 639 276 471 Z" unicode="" />
<glyph horiz-adv-x="1436" d="M 715 174 C 614 38 491 -29 346 -29 C 290 -29 239 -14 194 15 C 149 45 115 87 91 141 C 67 195 55 258 55 330 C 55 419 81 515 135 618 C 188 720 254 800 333 858 C 411 915 495 944 584 944 C 650 944 707 923 754 881 C 801 839 833 781 850 705 C 903 781 964 840 1032 882 C 1100 923 1171 944 1245 944 C 1298 944 1342 931 1376 906 C 1410 880 1427 847 1427 807 C 1427 743 1402 684 1353 630 C 1304 576 1233 532 1139 496 C 1045 460 949 439 850 434 C 834 370 827 307 827 246 C 827 175 842 120 873 82 C 904 44 948 25 1004 25 C 1132 25 1250 121 1356 313 L 1380 303 C 1322 194 1259 111 1190 55 C 1121 0 1049 -29 973 -29 C 911 -29 857 -10 811 27 C 764 64 732 113 715 174 Z M 854 457 C 937 465 1007 482 1065 509 C 1122 535 1168 566 1204 600 C 1239 634 1264 668 1280 704 C 1295 739 1303 769 1303 795 C 1303 873 1268 913 1198 913 C 1132 913 1065 868 999 778 C 932 688 884 581 854 457 Z M 739 629 C 739 691 732 744 718 787 C 704 829 684 862 659 884 C 634 906 605 918 573 918 C 509 918 449 888 393 829 C 336 770 289 690 253 588 C 217 486 199 387 199 291 C 199 199 214 128 245 76 C 275 24 315 -2 365 -2 C 429 -2 489 27 545 85 C 601 143 648 225 684 329 C 720 433 739 533 739 629 Z" unicode="" />
<glyph horiz-adv-x="1069" d="M 1155 1419 L 1038 954 L 1014 954 C 999 1112 968 1223 920 1287 C 872 1351 801 1384 707 1384 C 613 1384 535 1357 473 1305 C 411 1253 381 1186 381 1104 C 381 1058 388 1020 402 989 C 416 957 439 927 472 899 C 504 871 563 832 649 784 C 751 726 821 682 859 650 C 897 618 926 584 945 550 C 963 515 973 475 973 430 C 973 343 950 265 904 195 C 858 125 794 70 712 31 C 630 -7 539 -27 438 -27 C 370 -27 304 -17 242 2 C 179 22 130 46 94 76 L 0 -20 L -49 -20 L 66 459 L 92 459 C 110 306 152 194 217 122 C 282 50 368 14 475 14 C 547 14 612 27 669 54 C 726 81 770 119 802 169 C 834 218 850 272 850 330 C 850 377 843 416 830 447 C 817 477 795 506 763 533 C 731 559 663 602 557 662 C 441 726 363 784 322 836 C 280 888 260 946 260 1010 C 260 1084 280 1153 321 1217 C 361 1281 418 1332 490 1369 C 562 1406 642 1425 731 1425 C 784 1425 836 1415 887 1397 C 938 1378 979 1353 1010 1323 L 1106 1419 L 1155 1419 Z M 607 1896 L 629 1909 L 846 1614 L 1221 1907 L 1235 1894 L 912 1534 C 894 1514 880 1503 870 1500 C 860 1496 845 1495 824 1495 C 797 1495 780 1499 773 1508 C 766 1516 711 1646 607 1896 Z" unicode="" />
<glyph horiz-adv-x="741" d="M 700 737 C 700 702 692 674 676 653 C 660 631 636 621 604 621 C 583 621 564 627 548 641 C 532 654 524 672 524 696 C 524 734 552 767 609 797 C 619 802 625 807 627 813 C 623 847 607 873 579 892 C 551 910 515 920 471 920 C 415 920 370 902 334 868 C 298 833 281 788 281 733 C 281 693 294 656 321 622 C 348 587 391 549 450 509 C 507 468 549 428 577 388 C 604 348 618 306 618 260 C 618 208 604 160 577 115 C 549 70 512 35 464 9 C 416 -16 362 -29 303 -29 C 239 -29 185 -19 142 1 C 99 21 66 48 44 82 C 21 116 10 156 10 201 C 10 237 21 267 43 291 C 65 315 92 328 123 328 C 149 328 170 320 186 306 C 201 291 209 271 209 246 C 209 222 201 203 187 188 C 172 173 153 166 129 166 C 112 166 100 165 92 163 C 84 161 80 153 80 139 C 80 116 89 93 108 71 C 127 48 153 30 187 17 C 220 4 258 -2 301 -2 C 365 -2 417 14 458 47 C 499 80 520 123 520 176 C 520 220 506 261 480 297 C 453 333 409 372 349 413 C 290 451 247 491 219 531 C 191 571 178 616 178 666 C 178 713 191 758 217 801 C 243 844 279 879 325 905 C 371 931 420 944 473 944 C 519 944 560 935 594 919 C 628 903 655 878 673 846 C 691 813 700 777 700 737 Z M 317 1505 L 339 1518 L 556 1223 L 931 1516 L 945 1503 L 622 1143 C 604 1123 590 1112 580 1109 C 570 1105 555 1104 534 1104 C 507 1104 490 1108 483 1117 C 476 1125 421 1255 317 1505 Z" unicode="" />
<glyph horiz-adv-x="1255" d="M 1464 1329 C 1464 1299 1455 1276 1437 1258 C 1419 1240 1396 1231 1368 1231 C 1343 1231 1323 1237 1308 1250 C 1293 1263 1286 1279 1286 1298 C 1286 1311 1288 1325 1294 1341 C 1300 1356 1306 1368 1313 1376 L 1305 1384 C 1242 1377 1172 1340 1095 1273 C 1018 1206 951 1122 894 1021 C 837 920 794 810 764 690 L 629 152 C 625 134 623 121 623 111 C 625 85 641 65 670 51 C 676 47 700 41 742 34 C 783 26 814 23 834 23 L 829 0 L 240 0 L 244 23 C 319 29 368 35 391 43 C 435 58 463 91 475 143 L 604 666 C 612 696 619 738 625 791 C 631 843 635 894 635 944 C 635 1060 612 1151 566 1218 C 520 1285 457 1319 375 1319 C 324 1319 278 1299 237 1259 C 195 1219 164 1166 143 1100 L 117 1108 C 187 1318 306 1423 473 1423 C 561 1423 629 1386 679 1314 C 729 1242 754 1144 754 1020 C 754 967 747 901 735 823 L 754 823 C 919 1224 1115 1425 1343 1425 C 1379 1425 1408 1416 1430 1398 C 1452 1380 1464 1357 1464 1329 Z M 1241 1710 C 1241 1677 1230 1649 1209 1627 C 1187 1604 1161 1593 1129 1593 C 1099 1593 1078 1602 1064 1620 C 1050 1638 1043 1659 1043 1683 C 1043 1715 1054 1743 1077 1765 C 1099 1787 1128 1798 1162 1798 C 1183 1798 1201 1789 1217 1771 C 1233 1753 1241 1733 1241 1710 Z M 846 1710 C 846 1677 835 1649 814 1627 C 792 1604 766 1593 734 1593 C 704 1593 683 1602 669 1620 C 655 1638 648 1659 648 1683 C 648 1715 659 1743 682 1765 C 704 1787 732 1798 766 1798 C 788 1798 806 1789 822 1771 C 838 1753 846 1732 846 1710 Z" unicode="" />
<glyph horiz-adv-x="1190" d="M 1366 1399 L 1358 1374 L 72 35 L 473 35 C 642 35 751 52 801 88 C 849 125 901 177 959 243 C 1017 309 1062 368 1096 420 L 1124 420 L 975 0 L -127 0 L -121 25 L 1165 1364 L 793 1364 C 719 1364 664 1361 630 1356 C 595 1351 558 1334 518 1305 C 478 1276 434 1235 386 1182 C 338 1128 296 1075 262 1022 L 233 1022 L 373 1399 L 1366 1399 Z M 666 1896 L 688 1909 L 905 1614 L 1280 1907 L 1294 1894 L 971 1534 C 953 1514 939 1503 929 1500 C 919 1496 904 1495 883 1495 C 856 1495 839 1499 832 1508 C 825 1516 770 1646 666 1896 Z" unicode="" />
<glyph horiz-adv-x="834" d="M 893 881 C 893 853 885 828 869 806 C 853 784 821 753 774 715 L 125 201 L 127 195 C 157 193 185 187 212 179 C 239 171 267 162 295 153 C 345 136 383 125 409 120 C 435 115 465 113 501 113 C 555 113 595 124 623 146 C 651 168 665 197 665 233 C 665 285 633 317 569 330 L 578 354 C 630 343 670 322 698 290 C 726 258 741 216 741 164 C 741 113 722 69 685 31 C 647 -6 605 -25 557 -25 C 521 -25 483 -17 445 -2 C 407 13 363 37 315 71 C 261 107 220 132 190 146 C 160 160 131 167 104 168 C 76 160 62 138 62 102 L 63 53 C 63 0 44 -27 6 -27 C -7 -27 -20 -21 -32 -11 C -44 0 -51 17 -51 43 C -51 66 -40 90 -18 115 C 3 139 30 165 63 193 L 183 292 C 397 468 579 610 731 717 L 729 723 L 709 722 C 669 722 610 733 532 757 C 441 783 378 797 344 797 C 256 797 213 764 213 698 C 213 670 224 646 246 624 C 268 602 298 585 338 573 L 326 551 C 190 596 123 661 123 745 C 123 797 142 842 180 881 C 218 920 263 940 313 940 C 346 940 379 932 413 916 C 446 900 482 876 522 844 C 564 809 599 784 627 770 C 655 755 682 748 709 748 C 735 748 753 753 765 763 C 776 773 782 789 782 811 L 782 850 C 782 880 788 902 802 918 C 815 934 830 942 848 942 C 860 942 870 937 879 927 C 888 917 893 901 893 881 Z M 362 1505 L 384 1518 L 601 1223 L 976 1516 L 990 1503 L 667 1143 C 649 1123 635 1112 625 1109 C 615 1105 600 1104 579 1104 C 552 1104 535 1108 528 1117 C 521 1125 466 1255 362 1505 Z" unicode="" />
<glyph horiz-adv-x="922" d="M 1079 1159 C 1079 1129 1072 1104 1058 1084 C 1044 1064 1024 1055 999 1055 C 973 1055 952 1061 936 1074 C 919 1086 911 1107 911 1135 C 911 1156 920 1186 938 1225 C 934 1233 924 1239 910 1243 C 896 1247 883 1249 872 1249 C 720 1249 602 1103 518 811 L 483 690 L 741 690 L 731 655 L 477 655 C 412 438 358 265 315 135 C 261 -22 185 -150 89 -249 C -7 -347 -104 -397 -201 -397 C -249 -397 -289 -386 -321 -364 C -353 -342 -369 -315 -369 -281 C -369 -252 -361 -228 -345 -208 C -329 -188 -307 -178 -279 -178 C -251 -178 -230 -185 -214 -200 C -198 -215 -190 -237 -190 -266 C -190 -280 -194 -296 -202 -312 C -210 -328 -219 -340 -227 -348 C -219 -362 -207 -369 -193 -369 C -121 -369 -59 -336 -7 -272 C 45 -208 100 -91 158 78 C 174 126 190 172 204 216 C 218 260 261 406 334 655 L 117 655 L 125 690 L 340 690 C 374 815 415 917 464 995 C 512 1073 575 1139 651 1195 C 727 1250 804 1278 883 1278 C 942 1278 989 1266 1025 1243 C 1061 1220 1079 1192 1079 1159 Z" unicode="" />
<glyph horiz-adv-x="1024" d="M 993 1090 L 971 1077 L 754 1372 L 379 1079 L 365 1092 L 545 1291 C 635 1391 687 1449 703 1467 C 718 1485 742 1493 776 1491 C 792 1491 804 1489 812 1487 C 820 1484 826 1479 830 1471 C 834 1463 889 1336 993 1090 Z" unicode="" />
<glyph horiz-adv-x="1024" d="M 457 1505 L 479 1518 L 696 1223 L 1071 1516 L 1085 1503 L 762 1143 C 744 1123 730 1112 720 1109 C 710 1105 695 1104 674 1104 C 647 1104 630 1108 623 1117 C 616 1125 561 1255 457 1505 Z" unicode="" />
<glyph horiz-adv-x="1024" d="M 1085 1477 C 1033 1375 969 1288 893 1214 C 817 1140 748 1104 688 1104 C 629 1104 579 1140 538 1213 C 496 1286 474 1374 471 1477 L 492 1485 C 509 1403 537 1339 577 1295 C 617 1251 663 1229 717 1229 C 767 1229 822 1250 882 1293 C 942 1335 1003 1399 1065 1485 L 1085 1477 Z" unicode="" />
<glyph horiz-adv-x="1024" d="M 858 1350 C 858 1315 846 1285 822 1261 C 798 1237 769 1225 735 1225 C 704 1225 677 1236 653 1258 C 629 1280 618 1308 618 1341 C 618 1373 629 1402 652 1426 C 675 1450 703 1462 735 1462 C 769 1462 798 1451 822 1429 C 846 1407 858 1381 858 1350 Z" unicode="" />
<glyph horiz-adv-x="1024" d="M 700 1085 C 642 1085 594 1100 555 1132 C 515 1164 496 1203 496 1251 C 496 1313 521 1367 573 1412 C 625 1456 686 1479 756 1479 C 814 1479 861 1463 899 1431 C 937 1399 956 1358 956 1309 C 956 1247 930 1194 879 1150 C 827 1106 768 1085 700 1085 Z M 866 1333 C 866 1412 830 1452 758 1452 C 727 1452 699 1441 673 1420 C 647 1398 626 1370 611 1334 C 595 1298 588 1263 588 1227 C 588 1191 596 1163 614 1143 C 632 1122 659 1112 696 1112 C 742 1112 782 1134 816 1179 C 849 1224 866 1275 866 1333 Z" unicode="" />
<glyph horiz-adv-x="1024" d="M 465 0 C 294 -123 209 -225 209 -305 C 209 -340 226 -368 262 -390 C 297 -411 346 -424 410 -428 L 397 -463 C 298 -463 221 -450 167 -424 C 113 -398 86 -363 86 -317 C 86 -265 114 -212 170 -158 C 226 -104 310 -51 420 0 L 465 0 Z" unicode="" />
<glyph horiz-adv-x="1024" d="M 1069 1425 C 1019 1338 970 1273 922 1231 C 874 1188 829 1167 788 1167 C 743 1167 696 1186 648 1226 C 598 1264 556 1284 522 1284 C 490 1284 456 1271 421 1246 C 385 1221 351 1184 319 1135 L 295 1143 C 319 1185 349 1227 384 1269 C 418 1311 451 1341 483 1361 C 515 1381 544 1391 571 1391 C 619 1391 668 1371 716 1333 C 742 1311 764 1296 783 1287 C 801 1278 820 1274 838 1274 C 871 1274 906 1288 944 1318 C 981 1348 1014 1386 1044 1434 L 1069 1425 Z" unicode="" />
<glyph horiz-adv-x="1024" d="M 1120 1468 C 1120 1430 1091 1392 1034 1354 L 876 1245 C 782 1178 712 1129 664 1098 L 651 1114 L 733 1203 C 847 1327 918 1406 944 1438 C 967 1466 988 1487 1006 1500 C 1024 1513 1045 1520 1069 1520 C 1085 1520 1098 1514 1107 1503 C 1115 1492 1120 1480 1120 1468 Z M 745 1468 C 745 1428 716 1390 659 1354 C 631 1336 579 1299 503 1245 C 416 1181 346 1132 293 1098 L 281 1114 L 361 1203 C 466 1318 535 1396 569 1438 C 592 1466 613 1487 631 1500 C 649 1513 670 1520 694 1520 C 710 1520 723 1514 732 1503 C 740 1492 745 1480 745 1468 Z" unicode="" />
<glyph horiz-adv-x="1024" d="M 1049 1233 L 373 1233 L 399 1333 L 1075 1333 L 1049 1233 Z" unicode="" />
<glyph horiz-adv-x="1536" d="M -51 0 L 768 1536 L 999 1536 L 1327 0 L -51 0 Z M 248 147 L 1061 147 L 823 1255 L 248 147 Z" unicode="" />
<glyph horiz-adv-x="1139" d="M 1075 502 L 88 502 L 88 561 L 1075 561 L 1075 502 Z" unicode="" />
<glyph horiz-adv-x="1151" d="M 1128 287 C 1083 172 1038 92 994 46 C 949 0 896 -23 836 -23 C 778 -23 738 -7 718 23 C 698 54 688 90 688 132 C 688 154 690 180 696 209 L 692 211 C 652 139 601 81 540 38 C 479 -5 419 -27 360 -27 C 254 -27 185 31 152 147 L 147 147 L 123 33 C 97 -87 84 -174 84 -227 C 84 -304 75 -363 58 -403 C 40 -443 16 -463 -14 -463 C -30 -463 -44 -457 -56 -445 C -68 -433 -74 -415 -74 -393 C -74 -373 -70 -352 -64 -331 C -57 -309 -40 -270 -12 -213 C 35 -115 78 -1 117 129 L 352 913 L 492 913 L 309 303 C 297 261 287 227 280 200 C 273 172 270 148 270 127 C 270 91 278 65 296 48 C 314 31 343 23 385 23 C 439 23 494 44 550 87 C 606 129 656 190 702 270 L 905 913 L 1044 913 L 829 262 C 807 198 797 142 797 94 C 797 70 802 51 814 35 C 825 19 840 12 860 12 C 903 12 944 34 984 79 C 1024 123 1064 195 1104 295 L 1128 287 Z" unicode="" />
<glyph horiz-adv-x="1407" d="M 176 0 L 340 1028 L 59 1028 L 84 1176 L 1415 1176 L 1393 1028 L 1075 1028 L 973 360 C 967 324 965 292 965 266 C 965 226 973 194 990 172 C 1007 150 1048 139 1112 139 C 1146 139 1169 139 1183 141 C 1197 142 1215 146 1237 152 L 1208 20 C 1160 -4 1092 -16 1004 -16 C 888 -16 820 5 798 47 C 776 89 765 137 765 191 C 765 227 768 269 776 315 L 889 1028 L 524 1028 L 365 0 L 176 0 Z" unicode="" />
<glyph horiz-adv-x="1114" d="M 1018 498 L 113 498 L 137 588 L 1042 588 L 1018 498 Z" unicode="" />
<glyph horiz-adv-x="1913" d="M 1761 477 L 160 477 L 184 565 L 1786 565 L 1761 477 Z" unicode="" />
<glyph horiz-adv-x="340" d="M 504 1460 L 512 1436 C 438 1396 382 1357 345 1318 C 308 1278 282 1235 266 1188 L 334 1188 C 372 1188 400 1179 416 1161 C 432 1143 440 1122 440 1100 C 440 1066 427 1036 402 1012 C 376 987 345 975 309 975 C 269 975 240 985 224 1007 C 207 1028 199 1060 199 1104 C 199 1176 225 1243 278 1304 C 330 1364 406 1416 504 1460 Z" unicode="" />
<glyph horiz-adv-x="340" d="M 256 1024 L 248 1049 C 315 1083 368 1120 408 1160 C 448 1200 476 1245 494 1296 L 426 1296 C 394 1296 368 1303 348 1318 C 328 1333 319 1355 319 1384 C 319 1418 331 1448 357 1472 C 383 1496 414 1509 451 1509 C 491 1509 519 1498 536 1477 C 552 1455 561 1423 561 1380 C 561 1308 535 1241 483 1181 C 431 1120 355 1068 256 1024 Z" unicode="" />
<glyph horiz-adv-x="340" d="M -123 -268 L -131 -244 C 0 -177 81 -94 115 4 L 47 4 C 14 4 -11 11 -30 26 C -49 41 -59 63 -59 92 C -59 126 -46 155 -21 180 C 3 204 34 217 72 217 C 112 217 140 206 157 185 C 173 163 182 131 182 88 C 182 14 155 -52 103 -112 C 50 -172 -25 -224 -123 -268 Z" unicode="" />
<glyph horiz-adv-x="688" d="M 852 1460 L 860 1436 C 786 1396 730 1357 693 1318 C 656 1278 630 1235 614 1188 L 682 1188 C 720 1188 748 1179 764 1161 C 780 1143 788 1122 788 1100 C 788 1066 775 1036 750 1012 C 724 987 693 975 657 975 C 617 975 588 985 572 1007 C 555 1028 547 1060 547 1104 C 547 1176 573 1243 626 1304 C 678 1364 754 1416 852 1460 Z M 504 1460 L 512 1436 C 438 1396 382 1357 345 1318 C 308 1278 282 1235 266 1188 L 334 1188 C 372 1188 400 1179 416 1161 C 432 1143 440 1122 440 1100 C 440 1066 427 1036 402 1012 C 376 987 345 975 309 975 C 269 975 240 985 224 1007 C 207 1028 199 1060 199 1104 C 199 1176 225 1243 278 1304 C 330 1364 406 1416 504 1460 Z" unicode="" />
<glyph horiz-adv-x="688" d="M 604 1024 L 596 1049 C 666 1085 721 1123 759 1163 C 797 1203 825 1247 842 1296 L 774 1296 C 741 1296 715 1303 696 1318 C 677 1333 668 1355 668 1384 C 668 1418 680 1447 705 1472 C 730 1496 761 1509 799 1509 C 839 1509 867 1498 884 1477 C 900 1455 909 1423 909 1380 C 909 1308 883 1241 831 1181 C 779 1120 703 1068 604 1024 Z M 256 1024 L 248 1049 C 315 1083 368 1120 408 1160 C 448 1200 476 1245 494 1296 L 426 1296 C 394 1296 368 1303 348 1318 C 328 1333 319 1355 319 1384 C 319 1418 331 1448 357 1472 C 383 1496 414 1509 451 1509 C 491 1509 519 1498 536 1477 C 552 1455 561 1423 561 1380 C 561 1308 535 1241 483 1181 C 431 1120 355 1068 256 1024 Z" unicode="" />
<glyph horiz-adv-x="688" d="M 225 -268 L 217 -244 C 347 -177 429 -94 463 4 L 395 4 C 362 4 336 11 317 26 C 298 41 289 63 289 92 C 289 126 301 155 326 180 C 351 204 382 217 420 217 C 460 217 488 206 505 185 C 521 163 530 131 530 88 C 530 14 503 -52 451 -112 C 398 -172 323 -224 225 -268 Z M -123 -268 L -131 -244 C 0 -177 81 -94 115 4 L 47 4 C 14 4 -11 11 -30 26 C -49 41 -59 63 -59 92 C -59 126 -46 155 -21 180 C 3 204 34 217 72 217 C 112 217 140 206 157 185 C 173 163 182 131 182 88 C 182 14 155 -52 103 -112 C 50 -172 -25 -224 -123 -268 Z" unicode="" />
<glyph horiz-adv-x="836" d="M 821 896 C 801 896 784 900 771 908 C 758 916 743 935 725 965 C 705 996 691 1015 683 1021 C 674 1027 665 1031 656 1031 C 639 1031 625 1012 613 976 C 601 940 562 821 496 621 C 430 421 389 290 373 229 L 348 236 C 402 464 457 719 512 1001 L 516 1041 C 516 1066 504 1079 480 1079 C 468 1079 444 1069 410 1051 C 377 1033 352 1024 335 1024 C 314 1024 295 1031 278 1045 C 261 1059 253 1078 253 1103 C 253 1123 257 1140 267 1152 C 277 1164 289 1171 305 1172 C 345 1172 365 1146 365 1094 L 375 1093 L 427 1101 L 474 1107 C 488 1107 505 1102 525 1093 C 545 1083 559 1073 567 1061 C 573 1093 577 1146 581 1221 C 583 1289 586 1333 591 1352 C 596 1370 605 1386 617 1398 C 629 1410 642 1417 658 1417 C 677 1417 693 1411 705 1399 C 717 1387 723 1370 724 1348 L 719 1317 C 713 1297 694 1258 662 1199 C 626 1134 603 1086 592 1055 C 602 1059 614 1062 628 1062 L 634 1062 C 657 1060 675 1057 689 1051 C 703 1045 727 1027 763 996 C 771 988 778 983 786 981 C 802 1009 824 1024 853 1024 C 885 1024 902 1009 902 980 C 902 955 895 935 881 919 C 867 903 847 896 821 896 Z" unicode="" />
<glyph horiz-adv-x="891" d="M 889 1021 L 868 1024 C 848 1029 824 1045 796 1071 C 760 1103 732 1120 712 1120 C 698 1120 685 1110 673 1090 C 660 1070 637 1016 603 928 C 569 839 547 778 537 745 L 512 754 C 525 814 539 886 554 968 C 568 1050 576 1100 576 1118 C 576 1140 570 1155 560 1162 C 550 1168 534 1172 514 1172 L 505 1172 L 413 1159 C 391 1159 371 1164 355 1175 C 339 1186 331 1202 331 1222 C 331 1238 336 1253 347 1265 C 357 1277 369 1283 382 1283 C 398 1283 412 1276 424 1263 C 436 1250 442 1233 442 1212 L 442 1204 L 478 1202 L 497 1202 C 521 1202 546 1197 571 1187 C 595 1177 613 1165 623 1151 L 623 1167 L 620 1269 C 620 1315 626 1350 640 1372 C 654 1394 672 1405 694 1405 C 711 1405 725 1399 736 1388 C 747 1376 753 1361 753 1343 C 753 1326 749 1309 743 1291 C 736 1273 713 1236 674 1179 L 651 1143 C 659 1147 669 1149 681 1149 L 691 1149 C 730 1145 764 1134 792 1116 L 834 1092 C 850 1120 872 1135 899 1135 C 931 1135 947 1119 947 1087 C 947 1069 941 1053 931 1040 C 920 1027 906 1021 889 1021 Z M 140 420 C 165 420 196 403 234 369 C 269 336 298 320 321 320 C 339 320 359 344 380 392 C 400 440 438 540 494 692 L 520 686 C 514 665 502 605 483 506 C 463 407 454 345 454 321 C 454 299 459 284 469 277 C 479 270 494 267 514 267 L 566 274 L 615 281 C 637 281 657 275 674 265 C 690 254 699 238 699 217 C 699 203 693 189 683 176 C 673 163 661 157 647 157 C 631 157 617 163 605 175 C 593 187 588 205 588 229 L 588 236 L 557 238 L 532 237 C 512 237 489 241 463 251 C 437 261 418 273 408 289 L 407 266 L 411 171 C 411 127 404 94 391 70 C 378 46 361 34 340 34 C 320 34 305 40 294 53 C 282 65 277 80 277 98 C 277 134 304 188 358 261 L 381 297 C 369 291 355 289 341 289 C 327 289 311 291 295 297 C 272 304 253 313 239 323 C 224 333 210 342 197 348 C 181 318 160 304 134 304 C 120 304 108 307 98 315 C 88 323 83 335 83 352 C 83 369 88 385 99 399 C 110 413 124 420 140 420 Z" unicode="" />
<glyph horiz-adv-x="819" d="M 737 666 C 737 618 724 573 699 531 C 674 488 641 454 600 429 C 558 403 516 391 473 391 C 430 391 388 403 346 429 C 304 454 271 488 246 531 C 221 573 209 618 209 666 C 209 713 221 758 246 802 C 271 845 304 879 346 905 C 388 931 430 944 473 944 C 515 944 557 931 599 905 C 640 879 673 845 699 802 C 724 759 737 714 737 666 Z" unicode="" />
<glyph horiz-adv-x="1266" d="M 1128 96 C 1128 64 1117 37 1096 16 C 1074 -5 1048 -16 1016 -16 C 984 -16 958 -5 936 16 C 914 38 903 64 903 96 C 903 126 914 153 936 175 C 958 197 985 209 1016 209 C 1047 209 1073 198 1095 176 C 1117 154 1128 127 1128 96 Z M 707 96 C 707 65 696 39 674 17 C 652 -5 626 -16 594 -16 C 562 -16 536 -5 514 16 C 492 38 481 64 481 96 C 481 126 492 153 514 175 C 536 197 563 209 594 209 C 626 209 652 197 674 175 C 696 153 707 126 707 96 Z M 285 96 C 285 63 274 36 252 15 C 230 -5 203 -16 172 -16 C 140 -16 114 -5 92 16 C 70 38 59 64 59 96 C 59 126 70 153 92 175 C 114 197 141 209 172 209 C 202 209 229 198 251 176 C 273 154 285 128 285 96 Z" unicode="" />
<glyph horiz-adv-x="2441" d="M 823 1012 C 823 948 805 886 770 826 C 734 766 683 716 616 675 C 548 634 481 614 414 614 C 341 614 281 637 233 684 C 185 731 162 792 162 866 C 162 932 180 996 216 1059 C 252 1122 300 1173 360 1211 C 420 1249 483 1268 547 1268 C 625 1268 691 1244 744 1196 C 796 1148 823 1086 823 1012 Z M 1530 1384 L 195 -201 L 162 -180 L 1495 1405 L 1530 1384 Z M 2339 371 C 2339 305 2320 241 2283 181 C 2246 121 2194 71 2128 32 C 2061 -7 1995 -27 1929 -27 C 1856 -27 1796 -3 1748 43 C 1700 90 1677 151 1677 225 C 1677 291 1694 355 1730 417 C 1766 479 1814 530 1874 569 C 1934 607 1997 627 2062 627 C 2141 627 2207 602 2260 554 C 2312 506 2339 445 2339 371 Z M 1556 371 C 1556 307 1538 245 1503 185 C 1467 125 1416 75 1349 34 C 1281 -6 1214 -27 1147 -27 C 1074 -27 1014 -3 966 43 C 918 90 895 151 895 225 C 895 291 913 355 949 418 C 985 481 1033 532 1093 570 C 1153 608 1216 627 1280 627 C 1360 627 1426 602 1478 554 C 1530 506 1556 445 1556 371 Z M 688 1057 C 688 1109 675 1151 650 1185 C 625 1218 593 1235 553 1235 C 507 1235 465 1215 427 1176 C 388 1136 357 1084 333 1018 C 309 952 297 887 297 823 C 297 765 307 721 327 692 C 347 663 376 649 414 649 C 460 649 505 667 548 705 C 590 743 624 794 650 858 C 675 922 688 989 688 1057 Z M 2204 416 C 2204 468 2191 511 2165 544 C 2139 577 2107 594 2068 594 C 2023 594 1981 574 1942 535 C 1903 495 1872 443 1848 377 C 1824 311 1812 246 1812 182 C 1812 124 1822 80 1842 51 C 1862 22 1891 8 1929 8 C 1975 8 2020 27 2063 65 C 2106 103 2140 154 2166 218 C 2191 282 2204 348 2204 416 Z M 1421 416 C 1421 468 1408 510 1383 544 C 1358 577 1326 594 1286 594 C 1241 594 1199 574 1160 535 C 1121 495 1090 443 1066 377 C 1042 311 1030 246 1030 182 C 1030 124 1040 80 1060 51 C 1080 22 1109 8 1147 8 C 1193 8 1238 26 1281 64 C 1323 102 1357 153 1383 217 C 1408 281 1421 348 1421 416 Z" unicode="" />
<glyph horiz-adv-x="680" d="M 420 51 L 399 37 L 96 383 C 77 403 68 420 68 434 C 68 447 71 462 79 478 C 87 494 105 512 133 530 C 389 700 558 817 641 879 L 653 864 L 223 455 L 420 51 Z" unicode="" />
<glyph horiz-adv-x="680" d="M 0 51 L 430 455 L 233 864 L 254 879 C 306 811 408 694 561 530 C 573 516 581 506 583 500 C 585 494 587 487 587 481 L 582 459 C 578 445 572 434 566 426 C 560 417 543 403 516 383 L 12 37 L 0 51 Z" unicode="" />
<glyph horiz-adv-x="659" d="M 1145 1513 L -440 -418 L -485 -391 L 1098 1540 L 1145 1513 Z" unicode="" />
<glyph horiz-adv-x="1219" d="M 240 698 L 129 698 L 129 725 L 248 725 C 283 827 334 920 402 1004 C 470 1088 547 1153 634 1200 C 721 1246 810 1270 901 1270 C 965 1270 1021 1260 1069 1241 C 1116 1221 1153 1194 1179 1160 C 1205 1126 1219 1088 1219 1047 C 1219 999 1207 962 1185 934 C 1162 906 1131 893 1092 893 C 1066 893 1047 900 1034 914 C 1020 928 1014 946 1014 967 C 1014 987 1017 1002 1024 1013 C 1030 1024 1038 1034 1047 1042 C 1056 1050 1065 1060 1075 1070 C 1084 1080 1091 1094 1096 1112 L 1096 1118 C 1096 1150 1076 1178 1037 1202 C 997 1225 947 1237 887 1237 C 793 1237 702 1190 616 1097 C 530 1004 462 880 412 725 L 932 725 L 932 698 L 406 698 C 387 636 374 578 367 522 L 793 522 L 793 496 L 362 496 C 356 455 354 407 354 352 C 354 249 376 170 422 114 C 467 58 536 31 629 31 C 779 31 924 122 1063 305 L 1081 293 C 1015 191 940 112 856 56 C 772 0 686 -29 596 -29 C 473 -29 376 12 306 94 C 236 176 201 291 201 438 L 201 467 L 203 496 L 72 496 L 72 522 L 205 522 C 211 580 222 639 240 698 Z" unicode="" />
<glyph horiz-adv-x="1923" d="M 1855 514 C 1855 357 1815 210 1735 74 C 1655 -61 1548 -170 1413 -250 C 1277 -330 1132 -371 977 -371 C 821 -371 674 -330 538 -250 C 402 -169 294 -61 215 75 C 135 211 96 357 96 514 C 96 668 135 813 215 949 C 294 1085 402 1193 538 1274 C 674 1354 821 1395 977 1395 C 1133 1395 1278 1354 1414 1273 C 1550 1192 1657 1084 1736 948 C 1815 812 1855 668 1855 514 Z M 1802 514 C 1802 658 1765 794 1692 922 C 1619 1050 1518 1152 1389 1230 C 1260 1307 1123 1346 977 1346 C 832 1346 696 1308 568 1234 C 440 1159 338 1057 263 929 C 187 801 150 662 150 514 C 150 368 186 231 259 102 C 332 -26 433 -129 563 -206 C 692 -283 830 -322 977 -322 C 1123 -322 1261 -283 1390 -206 C 1519 -128 1620 -25 1693 102 C 1765 230 1802 368 1802 514 Z M 1399 758 C 1399 672 1364 603 1295 549 C 1226 495 1141 469 1040 469 L 918 469 L 918 156 C 918 121 935 100 970 92 C 1004 84 1051 78 1110 74 L 1110 51 L 594 51 L 594 74 C 659 79 704 87 728 98 C 752 108 764 128 764 156 L 764 868 C 764 902 748 923 717 932 C 669 944 626 952 588 956 L 588 979 L 1102 979 C 1190 979 1262 958 1317 917 C 1371 876 1399 823 1399 758 Z M 1221 723 C 1221 789 1202 843 1165 886 C 1127 928 1079 950 1020 950 L 918 950 L 918 502 L 993 502 C 1042 502 1083 512 1116 534 C 1149 555 1175 583 1193 617 C 1211 651 1221 687 1221 723 Z" unicode="" />
<glyph horiz-adv-x="1288" d="M 1458 887 L 1198 887 L 1198 903 L 1214 905 C 1246 907 1266 911 1274 915 C 1287 923 1294 936 1294 952 L 1294 1319 L 1282 1319 L 1122 893 L 1114 893 L 1096 944 L 950 1309 L 938 1309 L 938 1028 C 938 996 941 972 947 954 C 953 936 962 925 975 920 C 988 915 1010 909 1042 903 L 1042 887 L 811 887 L 811 903 L 825 905 C 866 909 891 919 899 937 C 907 954 911 982 911 1022 L 911 1296 C 911 1314 908 1329 903 1340 C 898 1351 886 1360 867 1368 C 847 1376 831 1380 817 1380 L 817 1399 L 991 1399 L 1147 1020 L 1260 1331 C 1267 1351 1272 1373 1276 1399 L 1456 1399 L 1456 1380 L 1443 1379 L 1393 1368 C 1379 1362 1372 1351 1372 1333 L 1372 952 C 1372 934 1379 923 1393 918 C 1394 917 1395 916 1397 915 C 1399 914 1419 910 1458 903 L 1458 887 Z M 737 1247 L 729 1247 C 702 1326 677 1368 653 1372 L 624 1374 L 549 1374 L 549 950 C 549 934 556 922 571 915 L 637 903 L 637 887 L 377 887 L 377 903 L 392 905 C 420 906 440 910 452 917 C 463 923 469 933 469 946 L 469 1374 L 401 1374 L 362 1372 C 348 1370 333 1354 317 1325 C 301 1295 291 1269 285 1247 L 276 1247 L 276 1399 L 737 1399 L 737 1247 Z" unicode="" />
<glyph horiz-adv-x="1139" d="M 1075 502 L 88 502 L 88 561 L 1075 561 L 1075 502 Z" unicode="" />
<glyph horiz-adv-x="1264" d="M 1223 596 C 1223 553 1208 517 1178 488 C 1148 458 1112 444 1069 444 C 1045 444 1024 448 1007 457 C 989 466 972 476 956 488 C 939 500 921 511 902 523 C 882 534 859 542 831 547 L 813 530 C 805 482 778 442 733 408 L 731 387 C 747 365 765 349 784 338 C 802 326 821 316 840 307 C 914 273 952 221 952 152 C 952 110 936 73 904 42 C 872 11 835 -4 793 -4 C 750 -4 714 10 684 40 C 654 70 639 106 639 150 C 639 166 645 196 658 238 C 670 280 676 314 676 342 L 676 365 L 662 375 L 641 373 L 621 373 C 580 373 542 385 506 410 L 479 408 C 459 378 445 337 436 283 C 428 229 410 188 383 158 C 355 128 320 113 276 113 C 234 113 197 128 166 159 C 134 189 119 226 119 270 C 119 313 135 349 167 379 C 199 409 240 424 289 424 L 319 424 C 367 424 407 433 440 451 L 446 479 C 432 508 426 537 426 567 C 426 585 428 602 432 618 L 422 645 C 410 649 392 651 367 651 C 343 651 319 648 295 644 C 270 639 250 637 236 637 C 191 637 153 652 123 683 C 93 713 78 750 78 793 C 78 834 92 870 122 902 C 151 934 188 950 233 950 C 308 950 359 908 386 826 C 398 787 408 759 416 743 C 424 726 435 711 449 698 L 479 700 C 519 741 566 762 621 762 L 643 776 C 643 803 639 827 632 847 C 624 867 616 885 608 902 C 599 919 591 936 584 953 C 576 969 573 988 573 1010 C 573 1053 588 1089 618 1117 C 648 1145 685 1159 729 1159 C 773 1159 809 1143 838 1113 C 866 1083 881 1046 881 1004 C 881 976 875 953 865 933 C 854 913 837 896 814 880 C 780 855 755 835 739 820 C 723 804 710 786 700 766 L 709 741 C 759 715 792 675 807 623 L 831 610 C 850 616 867 625 882 636 C 897 647 920 668 950 698 C 987 735 1028 754 1073 754 C 1113 754 1148 738 1178 708 C 1208 678 1223 640 1223 596 Z M 758 569 C 758 607 745 640 719 668 C 693 695 660 709 621 709 C 582 709 549 695 523 668 C 496 641 483 608 483 569 C 483 529 496 495 522 467 C 548 439 581 426 621 426 C 661 426 693 440 719 468 C 745 496 758 529 758 569 Z" unicode="" />
<glyph horiz-adv-x="1536" d="M -51 0 L 768 1536 L 999 1536 L 1327 0 L -51 0 Z M 248 147 L 1061 147 L 823 1255 L 248 147 Z" unicode="" />
<glyph horiz-adv-x="1536" d="M 184 0 L 395 1348 L 143 1348 L 172 1524 L 1612 1524 L 1583 1348 L 1335 1348 L 1124 0 L 915 0 L 1133 1356 L 604 1356 L 391 0 L 184 0 Z" unicode="" />
<glyph horiz-adv-x="1151" d="M -76 0 L -51 143 L 584 801 L 156 1360 L 184 1524 L 1196 1524 L 1167 1343 L 416 1343 L 823 788 L 236 184 L 1049 184 L 1020 0 L -76 0 Z" unicode="" />
<glyph horiz-adv-x="1139" d="M 1075 502 L 88 502 L 88 561 L 1075 561 L 1075 502 Z" unicode="" />
<glyph horiz-adv-x="659" d="M 1145 1513 L -440 -418 L -485 -391 L 1098 1540 L 1145 1513 Z" unicode="" />
<glyph horiz-adv-x="578" d="M 442 557 C 442 520 429 489 403 464 C 377 438 346 426 309 426 C 271 426 240 438 214 464 C 188 490 176 521 176 557 C 176 593 189 625 215 651 C 241 677 272 690 309 690 C 345 690 377 677 403 651 C 429 625 442 593 442 557 Z" unicode="" />
<glyph horiz-adv-x="1280" d="M 80 444 L 25 612 L 369 895 L 520 256 L 1251 1548 L 1440 1548 L 483 -129 L 457 -129 L 276 608 L 80 444 Z" unicode="" />
<glyph horiz-adv-x="1536" d="M 1071 395 C 973 395 896 423 840 479 C 814 509 790 545 768 588 C 674 459 565 395 440 395 C 336 395 253 432 190 508 C 127 583 96 683 96 809 C 96 925 133 1022 207 1100 C 281 1178 368 1217 468 1217 C 616 1217 720 1154 780 1028 C 854 1154 961 1217 1100 1217 C 1198 1217 1279 1182 1345 1112 C 1411 1042 1444 945 1444 819 C 1444 699 1409 598 1340 517 C 1271 435 1181 395 1071 395 Z M 471 1049 C 408 1049 356 1026 316 982 C 276 937 256 874 256 793 C 256 709 271 648 302 610 C 332 572 381 553 449 553 C 567 553 650 638 700 809 C 653 969 577 1049 471 1049 Z M 1071 555 C 1127 555 1175 578 1217 625 C 1259 672 1280 735 1280 815 C 1280 881 1264 939 1234 988 C 1203 1036 1151 1061 1079 1061 C 1008 1061 955 1030 920 969 C 894 919 870 865 848 805 C 856 702 880 636 920 608 C 962 572 1012 555 1071 555 Z" unicode="" />
<glyph horiz-adv-x="1264" d="M 1223 596 C 1223 553 1208 517 1178 488 C 1148 458 1112 444 1069 444 C 1045 444 1024 448 1007 457 C 989 466 972 476 956 488 C 939 500 921 511 902 523 C 882 534 859 542 831 547 L 813 530 C 805 482 778 442 733 408 L 731 387 C 747 365 765 349 784 338 C 802 326 821 316 840 307 C 914 273 952 221 952 152 C 952 110 936 73 904 42 C 872 11 835 -4 793 -4 C 750 -4 714 10 684 40 C 654 70 639 106 639 150 C 639 166 645 196 658 238 C 670 280 676 314 676 342 L 676 365 L 662 375 L 641 373 L 621 373 C 580 373 542 385 506 410 L 479 408 C 459 378 445 337 436 283 C 428 229 410 188 383 158 C 355 128 320 113 276 113 C 234 113 197 128 166 159 C 134 189 119 226 119 270 C 119 313 135 349 167 379 C 199 409 240 424 289 424 L 319 424 C 367 424 407 433 440 451 L 446 479 C 432 508 426 537 426 567 C 426 585 428 602 432 618 L 422 645 C 410 649 392 651 367 651 C 343 651 319 648 295 644 C 270 639 250 637 236 637 C 191 637 153 652 123 683 C 93 713 78 750 78 793 C 78 834 92 870 122 902 C 151 934 188 950 233 950 C 308 950 359 908 386 826 C 398 787 408 759 416 743 C 424 726 435 711 449 698 L 479 700 C 519 741 566 762 621 762 L 643 776 C 643 803 639 827 632 847 C 624 867 616 885 608 902 C 599 919 591 936 584 953 C 576 969 573 988 573 1010 C 573 1053 588 1089 618 1117 C 648 1145 685 1159 729 1159 C 773 1159 809 1143 838 1113 C 866 1083 881 1046 881 1004 C 881 976 875 953 865 933 C 854 913 837 896 814 880 C 780 855 755 835 739 820 C 723 804 710 786 700 766 L 709 741 C 759 715 792 675 807 623 L 831 610 C 850 616 867 625 882 636 C 897 647 920 668 950 698 C 987 735 1028 754 1073 754 C 1113 754 1148 738 1178 708 C 1208 678 1223 640 1223 596 Z M 758 569 C 758 607 745 640 719 668 C 693 695 660 709 621 709 C 582 709 549 695 523 668 C 496 641 483 608 483 569 C 483 529 496 495 522 467 C 548 439 581 426 621 426 C 661 426 693 440 719 468 C 745 496 758 529 758 569 Z" unicode="" />
<glyph horiz-adv-x="1139" d="M 1018 74 L 604 487 L 190 74 L 145 119 L 559 532 L 145 946 L 188 987 L 600 575 L 1016 991 L 1063 944 L 647 528 L 1059 117 L 1018 74 Z" unicode="" />
<glyph horiz-adv-x="1536" d="M 209 403 L 209 592 L 588 592 L 797 981 L 209 981 L 209 1163 L 893 1163 L 995 1356 L 1167 1356 L 1065 1163 L 1327 1163 L 1327 981 L 969 981 L 760 592 L 1327 592 L 1327 403 L 659 403 L 549 188 L 373 188 L 487 403 L 209 403 Z" unicode="" />
<glyph horiz-adv-x="1536" d="M 1348 236 L 209 709 L 209 872 L 1348 1343 L 1348 1141 L 436 793 L 1348 440 L 1348 236 Z M 213 41 L 213 215 L 1348 215 L 1348 41 L 213 41 Z" unicode="" />
<glyph horiz-adv-x="1536" d="M 213 236 L 213 440 L 1128 793 L 213 1141 L 213 1343 L 1352 872 L 1352 709 L 213 236 Z M 213 41 L 213 215 L 1348 215 L 1348 41 L 213 41 Z" unicode="" />
<glyph horiz-adv-x="1151" d="M 471 -47 L 68 756 L 471 1561 L 655 1561 L 1061 756 L 655 -47 L 471 -47 Z M 559 156 L 864 768 L 571 1356 L 264 739 L 559 156 Z" unicode="" />
<glyph horiz-adv-x="1264" d="M 1223 596 C 1223 553 1208 517 1178 488 C 1148 458 1112 444 1069 444 C 1045 444 1024 448 1007 457 C 989 466 972 476 956 488 C 939 500 921 511 902 523 C 882 534 859 542 831 547 L 813 530 C 805 482 778 442 733 408 L 731 387 C 747 365 765 349 784 338 C 802 326 821 316 840 307 C 914 273 952 221 952 152 C 952 110 936 73 904 42 C 872 11 835 -4 793 -4 C 750 -4 714 10 684 40 C 654 70 639 106 639 150 C 639 166 645 196 658 238 C 670 280 676 314 676 342 L 676 365 L 662 375 L 641 373 L 621 373 C 580 373 542 385 506 410 L 479 408 C 459 378 445 337 436 283 C 428 229 410 188 383 158 C 355 128 320 113 276 113 C 234 113 197 128 166 159 C 134 189 119 226 119 270 C 119 313 135 349 167 379 C 199 409 240 424 289 424 L 319 424 C 367 424 407 433 440 451 L 446 479 C 432 508 426 537 426 567 C 426 585 428 602 432 618 L 422 645 C 410 649 392 651 367 651 C 343 651 319 648 295 644 C 270 639 250 637 236 637 C 191 637 153 652 123 683 C 93 713 78 750 78 793 C 78 834 92 870 122 902 C 151 934 188 950 233 950 C 308 950 359 908 386 826 C 398 787 408 759 416 743 C 424 726 435 711 449 698 L 479 700 C 519 741 566 762 621 762 L 643 776 C 643 803 639 827 632 847 C 624 867 616 885 608 902 C 599 919 591 936 584 953 C 576 969 573 988 573 1010 C 573 1053 588 1089 618 1117 C 648 1145 685 1159 729 1159 C 773 1159 809 1143 838 1113 C 866 1083 881 1046 881 1004 C 881 976 875 953 865 933 C 854 913 837 896 814 880 C 780 855 755 835 739 820 C 723 804 710 786 700 766 L 709 741 C 759 715 792 675 807 623 L 831 610 C 850 616 867 625 882 636 C 897 647 920 668 950 698 C 987 735 1028 754 1073 754 C 1113 754 1148 738 1178 708 C 1208 678 1223 640 1223 596 Z M 758 569 C 758 607 745 640 719 668 C 693 695 660 709 621 709 C 582 709 549 695 523 668 C 496 641 483 608 483 569 C 483 529 496 495 522 467 C 548 439 581 426 621 426 C 661 426 693 440 719 468 C 745 496 758 529 758 569 Z" unicode="" />
</font>
</defs>
</svg>
