<?xml version="1.0" encoding="utf-8" ?><svg version="1.1" xmlns = 'http://www.w3.org/2000/svg'><defs><font id='web' horiz-adv-x="1000">
<font-face font-family="web" descent="-410" cap-height="1434" units-per-em="2048" bbox="-504,-508,3363,2030" x-height="1024" ascent="1638" />
<missing-glyph horiz-adv-x="1024" d="" /><glyph horiz-adv-x="573" d="" unicode=" " />
<glyph horiz-adv-x="690" d="M 575 1573 L 571 1040 L 489 498 L 201 498 L 119 1040 L 115 1573 L 575 1573 Z M 553 0 L 139 0 L 139 371 L 553 371 L 553 0 Z" unicode="!" />
<glyph horiz-adv-x="1174" d="M 530 1573 L 453 920 L 135 920 L 63 1573 L 530 1573 Z M 1106 1573 L 1028 920 L 711 920 L 639 1573 L 1106 1573 Z" unicode="&#x22;" />
<glyph horiz-adv-x="1565" d="M 1483 1262 L 1432 895 L 1192 895 L 1157 682 L 1386 682 L 1329 313 L 1094 313 L 1042 0 L 750 0 L 801 313 L 604 313 L 553 0 L 260 0 L 311 313 L 80 313 L 137 682 L 375 682 L 410 895 L 182 895 L 240 1262 L 469 1262 L 522 1573 L 817 1573 L 764 1262 L 961 1262 L 1014 1573 L 1305 1573 L 1251 1262 L 1483 1262 Z M 899 895 L 702 895 L 668 682 L 864 682 L 899 895 Z" unicode="#" />
<glyph horiz-adv-x="1266" d="M 1221 483 C 1221 328 1175 211 1084 131 C 993 51 869 6 713 -2 L 713 -184 L 522 -184 L 522 -4 C 356 6 232 42 149 105 C 66 168 25 253 25 360 C 25 396 30 427 42 453 C 53 479 64 499 76 514 L 418 541 C 413 524 409 507 405 491 C 401 475 400 456 401 436 C 401 394 413 361 435 338 C 457 315 491 301 535 297 L 535 649 L 401 698 C 280 742 188 798 126 865 C 64 932 33 1025 33 1145 C 33 1251 72 1347 151 1431 C 230 1515 354 1564 522 1579 L 522 1688 L 713 1688 L 713 1581 C 859 1573 972 1541 1052 1487 C 1132 1432 1175 1349 1180 1237 C 1180 1209 1177 1183 1170 1158 C 1163 1133 1155 1114 1147 1100 L 799 1083 C 803 1093 807 1107 811 1124 C 814 1141 815 1160 815 1182 C 814 1217 802 1245 780 1265 C 758 1285 730 1298 698 1303 L 698 997 L 856 940 C 956 903 1041 849 1113 777 C 1185 705 1221 607 1221 483 Z M 535 1053 L 535 1298 C 499 1296 470 1283 448 1261 C 426 1239 416 1214 416 1188 C 416 1151 426 1123 448 1103 C 469 1083 498 1067 535 1053 Z M 840 446 C 840 476 828 504 806 531 C 784 558 748 581 698 600 L 698 291 C 744 301 779 318 803 344 C 827 369 840 403 840 446 Z" unicode="$" />
<glyph horiz-adv-x="2361" d="M 1018 1079 C 1018 911 974 782 886 693 C 798 603 683 559 541 559 C 399 559 283 603 195 692 C 107 781 63 909 63 1077 C 63 1253 104 1384 186 1469 C 268 1554 387 1597 541 1597 C 683 1597 798 1554 886 1470 C 974 1386 1018 1255 1018 1079 Z M 666 1069 C 666 1171 656 1244 637 1286 C 617 1328 587 1350 545 1350 C 499 1350 466 1328 448 1284 C 429 1240 420 1169 420 1069 C 420 982 429 917 449 874 C 468 830 499 809 541 809 C 583 809 615 829 635 869 C 655 909 666 975 666 1069 Z M 2298 498 C 2298 330 2254 201 2166 111 C 2078 21 1963 -23 1821 -23 C 1679 -23 1563 21 1475 111 C 1387 200 1343 328 1343 496 C 1343 672 1384 802 1466 888 C 1548 973 1667 1016 1821 1016 C 1963 1016 2078 973 2166 889 C 2254 804 2298 674 2298 498 Z M 1946 487 C 1946 589 1936 662 1917 704 C 1897 746 1867 768 1825 768 C 1779 768 1746 746 1728 702 C 1709 658 1700 587 1700 487 C 1700 400 1709 335 1729 292 C 1748 248 1779 227 1821 227 C 1863 227 1895 247 1915 287 C 1935 327 1946 393 1946 487 Z M 1718 1597 L 872 -25 L 647 -25 L 1493 1597 L 1718 1597 Z" unicode="%" />
<glyph horiz-adv-x="1769" d="M 1729 322 C 1723 216 1689 132 1627 70 C 1564 8 1468 -23 1339 -23 C 1263 -23 1199 -13 1146 7 C 1093 27 1047 57 1008 98 C 946 60 881 30 814 8 C 746 -13 666 -25 573 -25 C 389 -25 257 15 176 96 C 95 177 55 287 55 426 C 55 553 96 657 180 737 C 264 817 368 884 494 936 C 467 980 445 1030 427 1085 C 409 1140 401 1193 403 1243 C 408 1347 452 1432 536 1498 C 619 1564 741 1597 901 1597 C 1041 1597 1146 1565 1214 1501 C 1282 1437 1313 1356 1309 1260 C 1303 1166 1264 1094 1192 1043 C 1119 991 1041 945 958 903 L 1126 596 C 1164 656 1198 721 1227 791 C 1256 861 1280 933 1298 1008 L 1595 1008 C 1570 916 1528 807 1470 682 C 1412 556 1345 445 1270 348 C 1290 317 1310 295 1330 281 C 1349 267 1370 260 1393 260 C 1415 260 1435 268 1451 284 C 1467 300 1476 328 1479 369 C 1481 402 1480 433 1478 462 C 1476 490 1472 513 1468 530 L 1704 530 C 1710 509 1717 481 1723 446 C 1729 411 1731 370 1729 322 Z M 1004 1272 C 1004 1297 995 1320 975 1341 C 955 1361 929 1372 895 1372 C 861 1372 833 1363 812 1346 C 791 1328 780 1305 780 1276 C 779 1250 784 1222 796 1190 C 807 1158 825 1125 850 1092 C 898 1113 935 1139 961 1171 C 987 1202 1001 1236 1004 1272 Z M 858 311 L 627 705 C 586 678 553 645 527 607 C 501 569 487 525 485 475 C 482 407 499 355 537 319 C 575 282 626 264 692 264 C 724 264 753 268 781 277 C 809 285 834 297 858 311 Z" unicode="&#x26;" />
<glyph horiz-adv-x="598" d="M 532 1573 L 455 920 L 137 920 L 66 1573 L 532 1573 Z" unicode="'" />
<glyph horiz-adv-x="815" d="M 803 -365 L 692 -430 C 482 -304 328 -154 230 22 C 132 198 84 397 84 621 C 84 843 137 1038 244 1208 C 351 1377 498 1517 686 1628 L 799 1561 C 703 1441 627 1302 569 1142 C 511 982 483 809 483 621 C 483 427 509 248 563 84 C 617 -79 697 -229 803 -365 Z" unicode="(" />
<glyph horiz-adv-x="815" d="M 12 1567 L 123 1632 C 333 1506 486 1356 584 1180 C 682 1004 731 804 731 582 C 731 359 677 163 570 -6 C 463 -175 316 -315 129 -426 L 16 -358 C 111 -239 187 -100 245 59 C 303 219 332 393 332 582 C 332 775 305 953 251 1117 C 197 1281 118 1431 12 1567 Z" unicode=")" />
<glyph horiz-adv-x="987" d="M 911 1155 L 778 936 L 571 1122 L 629 868 L 365 868 L 420 1122 L 209 936 L 76 1155 L 342 1237 L 78 1317 L 209 1538 L 420 1354 L 365 1597 L 629 1597 L 571 1356 L 778 1538 L 905 1317 L 645 1237 L 911 1155 Z" unicode="*" />
<glyph horiz-adv-x="1135" d="M 1036 586 L 729 586 L 729 291 L 406 291 L 406 586 L 98 586 L 98 879 L 406 879 L 406 1192 L 729 1192 L 729 879 L 1036 879 L 1036 586 Z" unicode="+" />
<glyph horiz-adv-x="639" d="M 524 16 C 524 -22 521 -58 515 -92 C 509 -126 494 -160 469 -193 C 448 -219 421 -242 389 -261 C 356 -280 324 -295 293 -305 C 271 -311 247 -317 220 -321 C 193 -325 172 -326 156 -326 L 156 -166 C 166 -165 178 -163 191 -160 C 204 -156 217 -151 229 -145 C 246 -137 262 -124 276 -106 C 290 -88 297 -65 297 -37 L 297 0 L 113 0 L 113 371 L 524 371 L 524 16 Z" unicode="," />
<glyph horiz-adv-x="999" d="M 895 516 L 102 516 L 102 844 L 895 844 L 895 516 Z" unicode="-" />
<glyph horiz-adv-x="639" d="M 526 0 L 113 0 L 113 371 L 526 371 L 526 0 Z" unicode="." />
<glyph horiz-adv-x="874" d="M 874 1573 L 260 0 L 0 0 L 614 1573 L 874 1573 Z" unicode="/" />
<glyph horiz-adv-x="1366" d="M 1286 788 C 1286 500 1231 292 1121 165 C 1011 38 864 -25 682 -25 C 500 -25 355 39 245 168 C 135 297 80 504 80 788 C 80 1087 134 1297 242 1417 C 350 1537 496 1597 682 1597 C 869 1597 1016 1535 1124 1413 C 1232 1291 1286 1082 1286 788 Z M 840 791 C 840 994 826 1128 799 1192 C 771 1256 732 1288 682 1288 C 630 1288 591 1255 565 1191 C 539 1127 526 993 526 791 C 526 601 538 471 564 401 C 589 330 628 295 682 295 C 734 295 773 330 800 402 C 826 474 840 603 840 791 Z" unicode="0" />
<glyph horiz-adv-x="967" d="M 827 0 L 391 0 L 391 1065 L 25 1065 L 25 1317 C 93 1317 153 1323 206 1334 C 258 1344 305 1360 346 1382 C 386 1403 419 1430 447 1463 C 474 1496 497 1533 516 1573 L 827 1573 L 827 0 Z" unicode="1" />
<glyph horiz-adv-x="1221" d="M 1143 0 L 70 0 L 51 322 C 269 456 431 584 539 708 C 646 832 700 960 700 1092 C 700 1163 692 1214 676 1244 C 660 1274 632 1290 592 1290 C 550 1290 519 1274 500 1243 C 480 1211 471 1161 471 1092 C 471 1056 473 1022 479 990 C 485 958 491 929 498 905 L 123 881 C 108 909 95 945 84 988 C 73 1030 68 1081 68 1139 C 68 1268 112 1377 202 1465 C 292 1553 422 1597 594 1597 C 774 1597 910 1554 1002 1469 C 1094 1384 1141 1256 1141 1085 C 1141 941 1086 803 977 672 C 867 540 736 424 584 324 L 1143 324 L 1143 0 Z" unicode="2" />
<glyph horiz-adv-x="1202" d="M 1153 528 C 1153 322 1091 179 968 97 C 844 15 701 -25 539 -25 C 385 -25 262 11 171 84 C 80 157 35 250 35 362 C 35 407 39 446 47 478 C 55 510 66 537 80 559 L 438 598 C 433 579 428 558 424 535 C 420 512 418 485 418 455 C 418 399 432 355 462 325 C 492 294 528 279 571 279 C 622 279 663 295 693 329 C 723 362 739 426 739 522 C 739 604 724 668 695 712 C 666 756 623 780 565 782 C 527 782 490 776 454 764 C 418 751 389 736 367 719 L 244 956 L 631 1253 L 98 1253 L 98 1573 L 1057 1573 L 1057 1270 L 725 999 C 733 1001 746 1003 763 1004 C 779 1004 796 1004 813 1004 C 902 997 981 955 1050 879 C 1118 803 1153 686 1153 528 Z" unicode="3" />
<glyph horiz-adv-x="1303" d="M 1243 309 L 1092 309 L 1092 0 L 682 0 L 682 309 L 72 309 L 72 649 L 649 1573 L 1092 1573 L 1092 621 L 1243 621 L 1243 309 Z M 682 621 L 682 1075 L 410 621 L 682 621 Z" unicode="4" />
<glyph horiz-adv-x="1227" d="M 1147 535 C 1147 339 1093 196 987 108 C 881 19 746 -25 584 -25 C 420 -25 292 8 200 76 C 107 143 61 235 61 352 C 61 392 65 428 74 460 C 82 492 92 516 102 532 L 463 549 C 457 532 452 512 449 488 C 445 464 444 438 444 410 C 444 369 454 337 476 313 C 498 289 531 277 575 279 C 620 279 656 299 682 337 C 708 375 721 438 721 528 C 721 623 709 690 686 729 C 662 768 628 788 584 788 C 552 788 524 778 502 758 C 479 738 463 715 455 688 L 113 719 L 168 1573 L 1044 1573 L 1024 1253 L 473 1253 L 451 985 C 469 1013 502 1037 550 1057 C 597 1077 648 1087 702 1087 C 834 1087 942 1044 1024 959 C 1106 873 1147 732 1147 535 Z" unicode="5" />
<glyph horiz-adv-x="1266" d="M 1208 522 C 1208 324 1154 184 1048 100 C 941 16 809 -25 651 -25 C 494 -25 358 32 243 147 C 127 261 70 476 70 791 C 70 1101 126 1314 239 1428 C 351 1542 491 1599 657 1599 C 818 1599 936 1570 1012 1513 C 1087 1455 1127 1382 1133 1292 C 1135 1262 1134 1234 1130 1207 C 1126 1179 1122 1158 1116 1143 L 764 1130 C 766 1139 767 1150 769 1162 C 770 1174 770 1188 768 1206 C 765 1232 756 1254 740 1272 C 724 1289 695 1298 653 1298 C 598 1298 556 1266 526 1204 C 496 1142 481 1065 481 975 C 481 961 481 946 481 930 C 481 914 482 901 483 893 C 500 924 533 952 581 978 C 629 1003 683 1016 743 1016 C 862 1016 969 983 1065 919 C 1160 855 1208 722 1208 522 Z M 793 526 C 793 599 781 653 757 688 C 733 723 697 741 649 741 C 601 741 565 722 541 685 C 517 647 506 594 506 526 C 506 444 517 383 540 341 C 563 299 600 279 651 279 C 697 279 733 299 757 340 C 781 381 793 443 793 526 Z" unicode="6" />
<glyph horiz-adv-x="1208" d="M 1126 1573 L 1126 1284 C 979 1154 876 1013 817 860 C 758 706 729 536 729 350 C 729 272 731 205 737 147 C 742 89 748 40 756 0 L 309 0 C 307 29 305 63 304 103 C 302 142 302 188 303 240 C 307 460 351 658 434 834 C 517 1009 614 1149 725 1253 L 70 1253 L 70 1573 L 1126 1573 Z" unicode="7" />
<glyph horiz-adv-x="1266" d="M 1190 438 C 1190 272 1141 154 1045 82 C 949 10 811 -25 631 -25 C 477 -25 345 9 236 78 C 126 146 72 266 72 438 C 72 555 97 644 147 706 C 197 768 248 804 299 815 C 247 828 203 866 167 930 C 131 994 113 1063 113 1139 C 113 1299 161 1415 257 1488 C 353 1560 479 1597 633 1597 C 800 1597 930 1560 1023 1487 C 1116 1413 1163 1297 1163 1139 C 1163 1062 1143 992 1103 929 C 1063 866 1017 828 965 815 C 1015 801 1065 764 1115 703 C 1165 641 1190 553 1190 438 Z M 780 473 C 780 551 767 606 741 638 C 715 670 679 686 633 686 C 588 686 552 669 526 636 C 500 602 487 548 487 473 C 487 405 499 354 525 320 C 550 286 586 270 633 270 C 679 270 715 287 741 322 C 767 356 780 407 780 473 Z M 760 1130 C 760 1196 749 1243 727 1271 C 705 1299 675 1313 637 1313 C 602 1313 573 1299 550 1272 C 527 1244 516 1197 516 1130 C 516 1064 526 1015 546 983 C 566 950 596 934 637 934 C 677 934 708 950 729 983 C 749 1015 760 1064 760 1130 Z" unicode="8" />
<glyph horiz-adv-x="1266" d="M 1182 786 C 1182 478 1131 266 1029 150 C 927 33 777 -25 578 -25 C 435 -25 322 3 240 59 C 157 115 113 193 109 293 C 106 333 108 366 114 390 C 120 414 126 431 133 442 L 500 465 C 494 451 491 437 489 422 C 487 407 486 391 487 375 C 489 345 501 321 521 305 C 541 289 568 281 602 281 C 666 281 709 305 733 354 C 756 403 768 463 768 535 C 768 560 767 584 767 606 C 767 628 766 650 766 674 C 751 652 724 629 686 603 C 647 577 589 563 512 561 C 387 558 279 595 189 671 C 98 747 53 876 53 1057 C 53 1248 104 1386 207 1470 C 309 1554 442 1597 604 1597 C 787 1597 929 1542 1030 1432 C 1131 1322 1182 1106 1182 786 Z M 750 1053 C 750 1133 739 1193 717 1235 C 695 1277 657 1298 604 1298 C 561 1298 526 1278 500 1240 C 474 1202 461 1142 461 1061 C 461 978 473 920 499 886 C 524 852 559 836 604 836 C 648 836 684 852 710 885 C 736 917 750 973 750 1053 Z" unicode="9" />
<glyph horiz-adv-x="639" d="M 526 0 L 113 0 L 113 371 L 526 371 L 526 0 Z M 526 737 L 113 737 L 113 1108 L 526 1108 L 526 737 Z" unicode=":" />
<glyph horiz-adv-x="639" d="M 524 16 C 524 -22 521 -58 515 -92 C 509 -126 494 -160 469 -193 C 448 -219 421 -242 389 -261 C 356 -280 324 -295 293 -305 C 271 -311 247 -317 220 -321 C 193 -325 172 -326 156 -326 L 156 -166 C 166 -165 178 -163 191 -160 C 204 -156 217 -151 229 -145 C 246 -137 262 -124 276 -106 C 290 -88 297 -65 297 -37 L 297 0 L 113 0 L 113 371 L 524 371 L 524 16 Z M 526 737 L 113 737 L 113 1108 L 526 1108 L 526 737 Z" unicode=";" />
<glyph horiz-adv-x="975" d="M 856 272 L 94 610 L 94 852 L 856 1192 L 856 924 L 410 731 L 856 541 L 856 272 Z" unicode="&#x3C;" />
<glyph horiz-adv-x="1135" d="M 1036 358 L 98 358 L 98 651 L 1036 651 L 1036 358 Z M 1036 809 L 98 809 L 98 1102 L 1036 1102 L 1036 809 Z" unicode="=" />
<glyph horiz-adv-x="975" d="M 881 610 L 119 272 L 119 541 L 565 731 L 119 924 L 119 1192 L 881 852 L 881 610 Z" unicode="&#x3E;" />
<glyph horiz-adv-x="1153" d="M 1087 1106 C 1087 896 1044 752 958 675 C 872 597 774 559 664 559 C 614 559 574 566 543 580 C 511 594 489 611 477 631 L 477 489 L 147 489 L 147 969 L 428 969 C 432 929 445 899 466 880 C 487 861 512 852 541 852 C 572 852 596 869 613 903 C 630 937 639 1002 639 1096 C 639 1177 628 1235 608 1270 C 587 1305 558 1323 520 1323 C 493 1323 472 1314 457 1297 C 441 1280 434 1254 434 1219 C 434 1195 436 1175 440 1161 C 444 1146 449 1133 455 1122 L 111 1096 C 93 1114 79 1140 67 1172 C 55 1204 49 1241 49 1284 C 47 1374 85 1449 165 1509 C 245 1569 373 1599 551 1599 C 711 1599 840 1557 939 1474 C 1037 1390 1087 1268 1087 1106 Z M 526 0 L 113 0 L 113 371 L 526 371 L 526 0 Z" unicode="?" />
<glyph horiz-adv-x="1968" d="M 1882 795 C 1882 589 1839 428 1753 312 C 1667 196 1540 139 1372 139 C 1287 139 1221 149 1174 171 C 1127 193 1095 229 1079 279 C 1049 233 1011 197 965 172 C 918 147 858 135 786 135 C 700 135 628 158 569 204 C 510 250 481 313 481 393 C 481 501 511 584 573 643 C 634 701 718 743 825 768 C 881 781 941 795 1007 811 C 1073 827 1107 851 1110 883 L 1114 922 C 1116 953 1110 976 1096 992 C 1081 1008 1060 1016 1034 1016 C 992 1016 961 1007 942 991 C 922 975 911 954 907 930 C 906 921 906 913 906 906 C 906 899 906 893 907 889 L 598 862 C 595 871 593 881 591 893 C 589 905 588 917 588 930 C 588 1020 630 1091 715 1143 C 800 1195 910 1221 1044 1221 C 1203 1221 1315 1185 1379 1113 C 1443 1041 1467 959 1452 868 L 1382 444 C 1375 398 1373 362 1376 336 C 1379 310 1396 297 1427 297 C 1498 297 1560 341 1612 429 C 1664 517 1690 639 1690 793 C 1690 1011 1626 1177 1500 1289 C 1374 1401 1205 1458 995 1458 C 783 1458 611 1384 480 1236 C 348 1088 283 889 283 639 C 283 361 352 162 492 43 C 631 -75 798 -135 993 -135 C 1114 -135 1214 -117 1292 -81 C 1370 -45 1439 -5 1499 37 L 1589 -70 C 1521 -135 1434 -188 1329 -228 C 1223 -268 1109 -289 987 -289 C 724 -289 506 -208 334 -48 C 162 112 76 342 76 641 C 76 924 158 1154 322 1332 C 486 1510 717 1599 1014 1599 C 1276 1599 1486 1528 1644 1386 C 1802 1244 1882 1047 1882 795 Z M 1090 680 C 1034 640 973 611 905 594 C 837 576 803 528 803 449 C 803 419 812 396 831 382 C 850 367 871 360 895 360 C 947 360 989 374 1019 402 C 1049 430 1066 468 1071 514 L 1090 680 Z" unicode="@" />
<glyph horiz-adv-x="1401" d="M 1389 0 L 950 0 L 879 238 L 487 238 L 420 0 L 12 0 L 471 1573 L 936 1573 L 1389 0 Z M 795 545 L 676 1044 L 565 545 L 795 545 Z" unicode="A" />
<glyph horiz-adv-x="1407" d="M 1339 449 C 1339 279 1282 162 1168 97 C 1054 32 911 0 739 0 L 133 0 L 133 1573 L 709 1573 C 877 1573 1015 1542 1123 1481 C 1231 1419 1286 1317 1286 1174 C 1286 1071 1260 992 1208 938 C 1156 883 1100 850 1038 840 C 1111 824 1179 785 1243 722 C 1307 658 1339 567 1339 449 Z M 901 485 C 901 544 882 591 846 625 C 810 659 763 676 707 676 L 571 676 L 571 297 L 711 297 C 777 297 825 313 855 345 C 885 377 901 423 901 485 Z M 879 1124 C 879 1177 863 1216 831 1242 C 799 1267 755 1280 698 1280 L 571 1280 L 571 969 L 702 969 C 752 969 794 981 828 1007 C 862 1032 879 1071 879 1124 Z" unicode="B" />
<glyph horiz-adv-x="1458" d="M 1393 418 C 1386 298 1332 195 1230 107 C 1128 19 978 -25 778 -25 C 562 -25 389 34 260 152 C 130 270 66 474 66 764 C 66 1068 129 1284 255 1411 C 381 1538 549 1602 760 1602 C 995 1602 1153 1557 1234 1467 C 1314 1377 1357 1289 1362 1202 C 1364 1169 1362 1137 1357 1107 C 1352 1076 1346 1051 1339 1032 L 944 989 C 946 1005 948 1027 950 1053 C 952 1079 952 1103 952 1126 C 950 1187 933 1233 903 1264 C 873 1294 828 1309 768 1309 C 700 1308 645 1268 603 1190 C 561 1111 541 974 541 780 C 541 598 559 468 596 388 C 632 308 690 268 770 266 C 841 264 895 282 932 321 C 969 360 988 417 989 492 C 989 515 988 539 986 563 C 984 587 983 608 981 627 L 1370 606 C 1374 593 1379 569 1386 535 C 1392 501 1395 462 1393 418 Z" unicode="C" />
<glyph horiz-adv-x="1563" d="M 133 0 L 133 1573 L 764 1573 C 968 1573 1141 1507 1283 1376 C 1424 1245 1495 1037 1495 752 C 1495 507 1430 320 1302 192 C 1173 64 990 0 752 0 L 133 0 Z M 575 297 L 713 297 C 815 297 892 331 944 399 C 996 467 1022 596 1022 788 C 1022 978 991 1107 931 1174 C 870 1240 791 1274 694 1274 L 575 1274 L 575 297 Z" unicode="D" />
<glyph horiz-adv-x="1296" d="M 1243 0 L 133 0 L 133 1573 L 1192 1573 L 1192 1243 L 588 1243 L 588 963 L 1130 963 L 1130 637 L 588 637 L 588 340 L 1243 340 L 1243 0 Z" unicode="E" />
<glyph horiz-adv-x="1235" d="M 1167 1243 L 588 1243 L 588 952 L 1116 952 L 1116 627 L 588 627 L 588 0 L 133 0 L 133 1573 L 1167 1573 L 1167 1243 Z" unicode="F" />
<glyph horiz-adv-x="1507" d="M 1401 0 L 1186 0 L 1122 145 C 1089 102 1044 63 987 28 C 929 -7 847 -25 741 -25 C 547 -25 386 34 258 152 C 130 270 66 470 66 754 C 66 1049 129 1264 256 1398 C 383 1532 553 1599 766 1599 C 984 1599 1137 1559 1226 1480 C 1314 1400 1362 1302 1368 1184 C 1370 1152 1368 1124 1364 1100 C 1359 1076 1354 1057 1348 1044 L 952 1012 C 954 1026 955 1041 957 1057 C 959 1073 959 1091 958 1110 C 956 1154 943 1198 921 1242 C 898 1286 853 1309 786 1309 C 701 1309 639 1267 600 1183 C 560 1099 541 956 541 754 C 541 586 560 463 599 384 C 637 305 700 266 788 266 C 862 266 915 289 945 336 C 975 383 989 457 987 557 L 727 557 L 727 842 L 1401 842 L 1401 0 Z" unicode="G" />
<glyph horiz-adv-x="1597" d="M 133 0 L 133 1573 L 588 1573 L 588 989 L 1008 989 L 1008 1573 L 1464 1573 L 1464 0 L 1008 0 L 1008 662 L 588 662 L 588 0 L 133 0 Z" unicode="H" />
<glyph horiz-adv-x="721" d="M 588 0 L 133 0 L 133 1573 L 588 1573 L 588 0 Z" unicode="I" />
<glyph horiz-adv-x="1284" d="M 1151 465 C 1151 303 1103 181 1009 99 C 915 16 773 -25 584 -25 C 400 -25 266 12 182 87 C 97 161 55 260 55 383 C 55 435 61 481 74 521 C 86 561 98 590 109 610 L 492 639 C 487 622 481 599 474 569 C 466 539 463 501 463 455 C 463 413 472 378 490 350 C 508 322 537 309 575 309 C 622 309 654 325 671 357 C 687 389 696 440 696 508 L 696 1573 L 1151 1573 L 1151 465 Z" unicode="J" />
<glyph horiz-adv-x="1475" d="M 1477 0 L 958 0 L 676 590 L 588 471 L 588 0 L 133 0 L 133 1573 L 588 1573 L 588 1051 L 956 1573 L 1421 1573 L 967 954 L 1477 0 Z" unicode="K" />
<glyph horiz-adv-x="1198" d="M 1159 0 L 133 0 L 133 1573 L 588 1573 L 588 332 L 1159 332 L 1159 0 Z" unicode="L" />
<glyph horiz-adv-x="1960" d="M 1827 0 L 1407 0 L 1407 924 L 1174 0 L 788 0 L 565 924 L 565 0 L 133 0 L 133 1573 L 721 1573 L 989 545 L 1257 1573 L 1827 1573 L 1827 0 Z" unicode="M" />
<glyph horiz-adv-x="1546" d="M 1413 0 L 1006 0 L 520 821 L 520 0 L 133 0 L 133 1573 L 539 1573 L 1026 737 L 1026 1573 L 1413 1573 L 1413 0 Z" unicode="N" />
<glyph horiz-adv-x="1587" d="M 66 784 C 66 1059 132 1263 265 1397 C 397 1530 574 1597 795 1597 C 1028 1597 1207 1529 1333 1393 C 1459 1257 1522 1054 1522 784 C 1522 492 1454 284 1319 160 C 1184 36 1009 -25 793 -25 C 568 -25 391 37 261 163 C 131 289 66 496 66 784 Z M 541 784 C 541 583 564 447 610 377 C 656 307 717 272 793 272 C 879 272 943 307 985 377 C 1026 447 1047 582 1047 784 C 1047 986 1024 1123 978 1195 C 932 1267 870 1303 793 1303 C 709 1303 646 1266 604 1193 C 562 1120 541 984 541 784 Z" unicode="O" />
<glyph horiz-adv-x="1372" d="M 1323 1069 C 1323 895 1270 766 1164 684 C 1058 602 916 561 737 561 L 575 561 L 575 0 L 133 0 L 133 1573 L 711 1573 C 896 1573 1044 1533 1156 1455 C 1267 1377 1323 1248 1323 1069 Z M 889 1069 C 889 1131 873 1180 843 1218 C 813 1255 767 1274 707 1274 L 575 1274 L 575 858 L 713 858 C 767 858 810 877 842 917 C 873 956 889 1007 889 1069 Z" unicode="P" />
<glyph horiz-adv-x="1587" d="M 932 -16 C 930 -21 928 -27 927 -33 C 926 -39 926 -46 926 -55 C 926 -85 934 -110 951 -128 C 968 -146 992 -156 1024 -156 C 1058 -156 1083 -149 1098 -137 C 1113 -125 1121 -108 1122 -88 C 1122 -81 1121 -74 1120 -66 C 1119 -58 1118 -51 1116 -45 L 1372 -51 C 1376 -59 1381 -73 1387 -91 C 1392 -109 1395 -128 1395 -147 C 1395 -231 1364 -294 1302 -336 C 1240 -378 1147 -399 1022 -399 C 873 -399 762 -374 690 -324 C 618 -274 582 -202 582 -109 C 582 -91 583 -73 586 -53 C 588 -33 592 -18 596 -8 C 430 23 300 102 206 229 C 112 355 66 540 66 784 C 66 1059 132 1263 265 1397 C 397 1530 574 1597 795 1597 C 1028 1597 1207 1529 1333 1393 C 1459 1257 1522 1054 1522 784 C 1522 524 1468 331 1360 206 C 1252 80 1109 6 932 -16 Z M 793 272 C 879 272 943 307 985 377 C 1026 447 1047 582 1047 784 C 1047 986 1024 1123 978 1195 C 932 1267 870 1303 793 1303 C 709 1303 646 1266 604 1193 C 562 1120 541 984 541 784 C 541 583 564 447 610 377 C 656 307 717 272 793 272 Z" unicode="Q" />
<glyph horiz-adv-x="1423" d="M 1372 0 L 909 0 C 897 15 885 41 873 79 C 861 117 852 158 848 203 C 845 229 841 269 836 323 C 830 376 825 418 821 449 C 814 495 801 529 781 553 C 761 576 730 588 688 588 L 575 588 L 575 0 L 133 0 L 133 1573 L 756 1573 C 940 1573 1080 1532 1177 1451 C 1274 1369 1323 1254 1323 1104 C 1323 998 1291 914 1229 853 C 1167 791 1107 756 1049 748 C 1107 737 1155 713 1194 677 C 1232 641 1256 589 1266 522 C 1272 478 1277 428 1282 372 C 1287 316 1292 269 1296 231 C 1301 182 1311 136 1325 92 C 1339 48 1354 17 1372 0 Z M 889 1079 C 889 1142 872 1190 839 1224 C 806 1257 759 1274 698 1274 L 575 1274 L 575 885 L 690 885 C 755 885 804 901 838 935 C 872 969 889 1017 889 1079 Z" unicode="R" />
<glyph horiz-adv-x="1335" d="M 1278 489 C 1278 323 1225 195 1121 105 C 1016 15 855 -27 637 -25 C 437 -21 293 13 203 80 C 113 146 63 235 55 346 C 53 378 54 407 60 432 C 66 456 71 475 76 487 L 479 514 C 476 501 474 486 472 470 C 470 454 470 437 471 420 C 473 383 490 353 522 329 C 554 305 599 293 657 293 C 721 293 767 304 797 326 C 827 348 842 381 842 424 C 842 454 830 481 806 504 C 782 526 741 548 682 569 L 479 641 C 346 687 245 751 175 832 C 105 912 70 1014 70 1137 C 70 1277 121 1390 223 1476 C 325 1562 471 1604 662 1602 C 838 1599 968 1567 1052 1505 C 1136 1443 1184 1364 1194 1270 C 1196 1249 1196 1228 1196 1207 C 1196 1185 1194 1167 1192 1153 L 795 1122 C 795 1132 795 1144 795 1157 C 795 1170 793 1182 791 1194 C 783 1220 769 1243 747 1261 C 725 1279 687 1288 635 1288 C 589 1288 552 1278 525 1259 C 498 1239 485 1214 485 1184 C 485 1145 496 1114 519 1091 C 541 1067 585 1044 651 1022 L 881 944 C 1003 902 1099 844 1171 770 C 1242 696 1278 602 1278 489 Z" unicode="S" />
<glyph horiz-adv-x="1278" d="M 1255 1243 L 866 1243 L 866 0 L 412 0 L 412 1243 L 23 1243 L 23 1573 L 1255 1573 L 1255 1243 Z" unicode="T" />
<glyph horiz-adv-x="1513" d="M 1386 508 C 1386 346 1336 216 1237 120 C 1137 23 974 -25 748 -25 C 508 -25 344 23 257 120 C 170 216 127 346 127 508 L 127 1573 L 582 1573 L 582 537 C 582 462 592 403 612 360 C 632 316 678 295 752 295 C 835 295 886 319 904 368 C 922 416 932 473 932 537 L 932 1573 L 1386 1573 L 1386 508 Z" unicode="U" />
<glyph horiz-adv-x="1415" d="M 1413 1573 L 940 0 L 489 0 L 4 1573 L 477 1573 L 735 639 L 963 1573 L 1413 1573 Z" unicode="V" />
<glyph horiz-adv-x="2060" d="M 2040 1573 L 1663 0 L 1231 0 L 1036 909 L 836 0 L 399 0 L 20 1573 L 485 1573 L 651 672 L 838 1573 L 1237 1573 L 1421 678 L 1581 1573 L 2040 1573 Z" unicode="W" />
<glyph horiz-adv-x="1372" d="M 1370 0 L 866 0 L 662 426 L 430 0 L -14 0 L 449 803 L 29 1573 L 535 1573 L 717 1212 L 895 1573 L 1325 1573 L 924 829 L 1370 0 Z" unicode="X" />
<glyph horiz-adv-x="1366" d="M 1372 1573 L 913 621 L 913 0 L 459 0 L 459 600 L -8 1573 L 479 1573 L 713 1012 L 938 1573 L 1372 1573 Z" unicode="Y" />
<glyph horiz-adv-x="1290" d="M 1233 0 L 51 0 L 51 330 L 719 1243 L 102 1243 L 102 1573 L 1233 1573 L 1233 1245 L 578 340 L 1233 340 L 1233 0 Z" unicode="Z" />
<glyph horiz-adv-x="918" d="M 836 -352 L 154 -352 L 154 1575 L 836 1575 L 836 1319 L 539 1319 L 539 -96 L 836 -96 L 836 -352 Z" unicode="[" />
<glyph horiz-adv-x="874" d="M 0 1573 L 260 1573 L 874 0 L 614 0 L 0 1573 Z" unicode="\" />
<glyph horiz-adv-x="918" d="M 764 -352 L 82 -352 L 82 -96 L 379 -96 L 379 1319 L 82 1319 L 82 1575 L 764 1575 L 764 -352 Z" unicode="]" />
<glyph horiz-adv-x="1182" d="M 1047 1118 L 731 1118 L 586 1335 L 442 1118 L 127 1118 L 444 1573 L 725 1573 L 1047 1118 Z" unicode="^" />
<glyph horiz-adv-x="1128" d="M 1128 -408 L 0 -408 L 0 -168 L 1128 -168 L 1128 -408 Z" unicode="_" />
<glyph horiz-adv-x="1188" d="M 778 1282 L 481 1282 L 160 1589 L 612 1589 L 778 1282 Z" unicode="`" />
<glyph horiz-adv-x="1391" d="M 1214 285 C 1214 251 1221 227 1236 215 C 1250 203 1268 197 1290 197 C 1301 197 1313 198 1325 200 C 1337 202 1349 205 1360 209 L 1374 70 C 1356 51 1325 32 1279 14 C 1233 -4 1179 -14 1116 -14 C 1050 -14 992 -1 944 23 C 896 48 865 90 852 150 C 817 96 766 53 700 21 C 633 -11 555 -27 467 -27 C 342 -27 245 1 175 59 C 105 116 70 202 70 317 C 70 419 105 496 175 548 C 245 600 336 639 446 664 C 543 685 620 705 677 724 C 733 742 774 762 799 784 C 798 839 790 885 775 923 C 759 960 716 979 645 979 C 592 979 554 967 530 944 C 506 920 494 892 494 858 C 494 841 495 829 498 821 C 500 813 503 805 506 799 L 143 764 C 139 772 134 787 130 808 C 125 828 123 850 123 874 C 123 974 169 1053 262 1111 C 355 1169 491 1198 670 1198 C 850 1198 985 1167 1077 1107 C 1168 1046 1214 951 1214 823 L 1214 285 Z M 629 211 C 683 213 723 230 751 261 C 778 292 793 330 795 375 L 795 592 C 782 583 765 574 743 566 C 721 557 699 549 676 543 C 600 521 549 492 523 456 C 496 420 483 380 483 336 C 483 292 497 259 525 239 C 553 218 588 209 629 211 Z" unicode="a" />
<glyph horiz-adv-x="1419" d="M 1348 584 C 1348 365 1295 209 1190 115 C 1084 21 961 -25 821 -25 C 712 -25 630 0 575 49 C 520 99 481 145 459 188 L 328 0 L 115 0 L 115 1573 L 532 1573 L 532 1010 C 543 1032 575 1069 628 1121 C 680 1172 760 1198 866 1198 C 972 1198 1079 1157 1187 1076 C 1294 995 1348 831 1348 584 Z M 725 242 C 783 242 831 265 870 313 C 908 361 928 451 928 584 C 928 721 909 814 871 862 C 833 910 783 934 719 934 C 659 934 612 908 576 858 C 540 807 522 716 522 586 C 522 463 540 375 577 322 C 613 268 663 242 725 242 Z" unicode="b" />
<glyph horiz-adv-x="1255" d="M 1202 348 C 1202 250 1157 164 1068 88 C 978 12 848 -25 676 -25 C 494 -25 347 19 233 108 C 119 196 63 343 63 547 C 63 792 122 962 242 1056 C 362 1150 508 1198 680 1198 C 853 1198 983 1163 1070 1095 C 1156 1027 1200 944 1200 848 C 1200 826 1198 806 1195 787 C 1192 767 1188 751 1184 739 L 809 713 C 811 727 813 742 814 759 C 815 776 815 792 815 807 C 813 845 801 878 780 904 C 758 930 726 944 684 944 C 616 944 566 916 534 861 C 501 806 485 722 485 610 C 485 466 501 368 534 315 C 566 262 618 236 688 236 C 753 236 795 257 814 300 C 832 342 842 387 842 434 C 842 448 841 462 840 474 C 839 486 838 496 838 506 L 1182 494 C 1188 474 1192 451 1196 425 C 1200 399 1202 373 1202 348 Z" unicode="c" />
<glyph horiz-adv-x="1421" d="M 1307 0 L 913 0 L 901 141 C 871 103 830 68 776 34 C 722 0 649 -16 559 -16 C 425 -16 311 29 215 120 C 119 210 72 357 72 561 C 72 789 125 953 232 1051 C 339 1149 462 1198 600 1198 C 695 1198 765 1179 809 1142 C 853 1105 879 1073 889 1047 L 889 1573 L 1307 1573 L 1307 0 Z M 696 242 C 761 242 811 268 846 322 C 881 375 899 463 899 586 C 899 716 881 807 845 858 C 809 908 761 934 702 934 C 638 934 587 910 550 862 C 512 814 494 721 494 584 C 494 451 513 361 551 313 C 589 265 638 242 696 242 Z" unicode="d" />
<glyph horiz-adv-x="1307" d="M 676 -25 C 481 -27 330 19 222 115 C 114 211 61 362 61 569 C 61 781 118 939 233 1043 C 348 1146 486 1198 647 1198 C 824 1198 964 1154 1068 1066 C 1171 978 1223 835 1223 639 C 1223 618 1221 596 1219 572 C 1216 548 1212 529 1208 514 L 477 514 C 477 410 495 335 532 290 C 568 245 616 223 674 223 C 722 223 761 236 793 263 C 825 289 842 325 844 369 C 844 377 844 384 844 392 C 844 400 844 406 844 412 L 1223 393 C 1225 383 1226 372 1226 360 C 1226 348 1227 336 1227 326 C 1223 242 1177 164 1090 90 C 1003 16 865 -22 676 -25 Z M 477 702 L 829 702 C 829 778 816 840 790 886 C 764 932 722 956 664 956 C 604 956 559 933 528 888 C 496 843 479 781 477 702 Z" unicode="e" />
<glyph horiz-adv-x="805" d="M 940 1384 C 940 1361 938 1340 935 1322 C 931 1303 928 1290 926 1282 L 633 1253 C 637 1262 640 1274 643 1290 C 646 1305 647 1319 647 1331 C 646 1346 641 1360 631 1372 C 621 1384 606 1391 586 1391 C 571 1391 556 1384 540 1372 C 524 1359 516 1334 516 1298 C 516 1267 520 1241 528 1219 C 536 1197 544 1180 553 1169 L 813 1169 L 813 932 L 588 932 L 588 0 L 170 0 L 170 932 L 8 932 L 8 1169 L 174 1169 C 170 1182 166 1200 163 1222 C 159 1244 158 1266 158 1290 C 158 1398 192 1480 261 1536 C 329 1592 425 1620 549 1620 C 701 1620 805 1594 859 1544 C 913 1493 940 1440 940 1384 Z" unicode="f" />
<glyph horiz-adv-x="1280" d="M 1272 18 C 1272 -108 1217 -208 1107 -282 C 997 -356 829 -393 604 -393 C 392 -393 242 -370 154 -326 C 66 -282 23 -220 23 -141 C 23 -98 39 -62 72 -34 C 104 -5 142 13 184 23 C 139 44 104 72 79 106 C 53 140 41 186 41 244 C 41 302 62 356 105 408 C 148 460 196 502 250 535 C 201 559 160 594 126 640 C 92 686 76 743 76 813 C 76 929 126 1023 227 1093 C 327 1163 465 1198 639 1198 C 700 1198 754 1194 802 1186 C 850 1178 887 1167 915 1155 L 961 1389 L 1278 1389 L 1067 1090 C 1103 1063 1136 1027 1165 982 C 1193 936 1208 880 1208 813 C 1208 682 1154 588 1047 531 C 939 474 812 446 664 446 C 616 446 572 448 530 452 C 488 456 449 462 414 471 C 403 466 393 457 383 444 C 373 430 369 418 369 408 C 369 389 377 374 394 363 C 411 351 442 346 487 346 C 546 346 609 347 675 349 C 741 351 822 352 920 352 C 1012 352 1094 328 1165 280 C 1236 232 1272 145 1272 18 Z M 936 -68 C 936 -48 927 -32 909 -18 C 891 -4 849 2 782 2 C 695 2 616 2 545 2 C 473 2 412 4 360 8 C 352 0 344 -11 338 -25 C 331 -39 328 -52 328 -66 C 328 -94 345 -121 380 -147 C 414 -173 491 -186 610 -186 C 738 -186 825 -174 869 -150 C 913 -126 936 -99 936 -68 Z M 795 805 C 795 865 782 912 757 947 C 732 981 695 999 647 999 C 598 999 560 983 533 952 C 505 920 492 872 492 807 C 492 751 505 708 532 676 C 559 644 597 629 645 629 C 689 629 725 643 753 673 C 781 703 795 747 795 805 Z" unicode="g" />
<glyph horiz-adv-x="1403" d="M 115 0 L 115 1573 L 532 1573 L 532 977 C 564 1040 612 1093 677 1135 C 741 1177 825 1198 928 1198 C 1042 1198 1131 1170 1197 1115 C 1263 1060 1296 977 1296 866 L 1296 0 L 877 0 L 877 707 C 877 781 865 831 842 859 C 819 887 781 901 727 901 C 669 901 622 876 586 828 C 550 780 532 708 532 612 L 532 0 L 115 0 Z" unicode="h" />
<glyph horiz-adv-x="647" d="M 532 0 L 115 0 L 115 1169 L 532 1169 L 532 0 Z M 532 1253 L 115 1253 L 115 1573 L 532 1573 L 532 1253 Z" unicode="i" />
<glyph horiz-adv-x="635" d="M 532 10 C 532 -123 496 -223 426 -291 C 355 -359 253 -393 119 -393 C 1 -393 -92 -374 -162 -337 C -232 -299 -269 -240 -272 -160 C -272 -144 -270 -127 -266 -109 C -261 -91 -256 -78 -252 -70 L 53 -51 C 50 -58 47 -67 45 -78 C 42 -88 41 -100 41 -113 C 41 -131 47 -146 59 -156 C 71 -166 85 -172 102 -172 C 123 -172 141 -166 155 -155 C 169 -143 176 -122 176 -90 C 176 -24 165 27 145 67 C 125 107 115 193 115 326 L 115 1169 L 532 1169 L 532 10 Z M 532 1253 L 115 1253 L 115 1573 L 532 1573 L 532 1253 Z" unicode="j" />
<glyph horiz-adv-x="1358" d="M 1350 0 L 877 0 L 639 469 L 532 346 L 532 0 L 115 0 L 115 1573 L 532 1573 L 532 799 L 842 1169 L 1298 1169 L 922 776 L 1350 0 Z" unicode="k" />
<glyph horiz-adv-x="647" d="M 532 0 L 115 0 L 115 1573 L 532 1573 L 532 0 Z" unicode="l" />
<glyph horiz-adv-x="2019" d="M 1913 0 L 1493 0 L 1493 721 C 1493 787 1483 833 1464 860 C 1444 887 1414 901 1372 901 C 1323 901 1286 876 1261 828 C 1235 779 1223 716 1223 639 L 1223 0 L 803 0 L 803 721 C 803 786 793 832 775 860 C 757 887 724 901 678 901 C 635 901 600 879 573 837 C 545 795 532 730 532 643 L 532 0 L 115 0 L 115 1169 L 526 1169 L 526 989 C 554 1043 598 1091 658 1134 C 717 1176 786 1198 864 1198 C 955 1198 1027 1182 1079 1150 C 1131 1118 1170 1063 1198 987 C 1225 1040 1268 1088 1326 1132 C 1384 1176 1455 1198 1538 1198 C 1668 1198 1763 1168 1823 1108 C 1883 1048 1913 958 1913 836 L 1913 0 Z" unicode="m" />
<glyph horiz-adv-x="1403" d="M 115 0 L 115 1169 L 526 1169 L 526 965 C 558 1036 608 1093 674 1135 C 740 1177 825 1198 928 1198 C 1042 1198 1131 1170 1197 1115 C 1263 1060 1296 977 1296 866 L 1296 0 L 877 0 L 877 707 C 877 781 865 831 842 859 C 819 887 781 901 727 901 C 669 901 622 876 586 828 C 550 780 532 708 532 612 L 532 0 L 115 0 Z" unicode="n" />
<glyph horiz-adv-x="1366" d="M 61 586 C 61 783 120 934 238 1040 C 356 1145 504 1198 682 1198 C 864 1198 1013 1145 1129 1040 C 1245 934 1303 783 1303 586 C 1303 378 1245 224 1129 124 C 1013 24 864 -25 682 -25 C 504 -25 356 24 238 124 C 120 224 61 378 61 586 Z M 485 590 C 485 457 502 365 537 314 C 571 263 620 238 682 238 C 745 238 794 263 830 314 C 865 365 883 457 883 590 C 883 721 865 813 830 865 C 794 917 745 944 682 944 C 620 944 571 918 537 866 C 502 814 485 722 485 590 Z" unicode="o" />
<glyph horiz-adv-x="1421" d="M 115 -369 L 115 1169 L 520 1169 L 520 995 C 541 1048 581 1095 641 1137 C 701 1179 772 1200 856 1200 C 973 1200 1085 1155 1191 1065 C 1297 975 1350 818 1350 594 C 1350 380 1299 224 1198 128 C 1096 32 976 -16 836 -16 C 757 -16 694 -1 647 27 C 600 55 562 93 532 139 L 532 -369 L 115 -369 Z M 725 242 C 783 242 831 265 870 313 C 908 361 928 451 928 584 C 928 721 909 814 871 862 C 833 910 783 934 719 934 C 659 934 612 908 576 858 C 540 807 522 716 522 586 C 522 463 539 375 574 322 C 609 268 659 242 725 242 Z" unicode="p" />
<glyph horiz-adv-x="1421" d="M 1307 -369 L 889 -369 L 889 135 C 858 86 813 48 753 22 C 693 -4 632 -18 569 -18 C 421 -18 301 30 209 127 C 117 223 72 369 72 565 C 72 788 124 949 228 1049 C 332 1148 455 1198 598 1198 C 704 1198 785 1175 840 1129 C 895 1083 936 1033 963 981 L 1094 1169 L 1307 1169 L 1307 -369 Z M 696 242 C 761 242 811 268 846 322 C 881 375 899 463 899 586 C 899 716 881 807 845 858 C 809 908 761 934 702 934 C 638 934 587 910 550 862 C 512 814 494 721 494 584 C 494 451 513 361 551 313 C 589 265 638 242 696 242 Z" unicode="q" />
<glyph horiz-adv-x="1210" d="M 1198 891 C 1198 831 1192 781 1181 741 C 1169 700 1159 670 1151 651 L 776 586 C 787 610 796 640 804 675 C 811 709 815 743 815 776 C 815 810 807 839 792 863 C 776 887 747 899 705 899 C 651 899 609 872 578 820 C 547 768 532 706 532 635 L 532 0 L 115 0 L 115 1169 L 524 1169 L 524 963 C 552 1021 596 1075 658 1124 C 720 1173 794 1198 881 1198 C 974 1198 1050 1173 1109 1124 C 1168 1074 1198 997 1198 891 Z" unicode="r" />
<glyph horiz-adv-x="1202" d="M 1137 358 C 1137 241 1094 148 1009 79 C 923 9 788 -25 604 -25 C 424 -25 289 4 201 63 C 112 122 63 197 55 289 C 54 299 54 309 54 319 C 54 329 55 338 57 346 L 420 379 C 419 369 419 359 420 347 C 421 335 423 324 426 313 C 434 283 451 259 477 240 C 503 220 546 211 604 211 C 663 211 705 220 729 240 C 753 259 766 279 766 301 C 766 333 752 355 724 368 C 696 380 656 393 604 406 L 383 459 C 274 485 192 528 137 586 C 82 644 55 728 55 838 C 55 946 106 1033 209 1099 C 312 1165 437 1198 584 1198 C 773 1198 900 1171 965 1118 C 1029 1065 1071 1007 1090 944 C 1092 934 1095 920 1097 903 C 1099 886 1100 870 1100 856 L 772 819 C 771 829 768 841 762 855 C 756 869 750 880 745 889 C 736 904 717 918 689 932 C 660 946 624 953 582 954 C 526 954 486 947 462 933 C 438 918 426 900 426 879 C 426 857 434 840 450 827 C 466 813 501 800 553 788 L 786 733 C 908 704 997 658 1053 594 C 1109 530 1137 451 1137 358 Z" unicode="s" />
<glyph horiz-adv-x="897" d="M 901 72 C 867 48 826 26 778 6 C 730 -14 657 -25 559 -25 C 432 -25 335 4 269 62 C 203 120 170 212 170 340 L 170 932 L 8 932 L 8 1169 L 170 1169 L 170 1501 L 588 1501 L 588 1169 L 829 1169 L 829 932 L 588 932 L 588 338 C 588 296 599 265 622 247 C 644 228 679 219 725 219 C 743 219 763 222 785 228 C 807 234 826 242 844 252 L 901 72 Z" unicode="t" />
<glyph horiz-adv-x="1403" d="M 1288 1169 L 1288 0 L 877 0 L 877 205 C 844 133 795 77 730 36 C 665 -4 581 -25 479 -25 C 365 -25 274 4 207 62 C 139 120 106 204 106 315 L 106 1169 L 526 1169 L 526 467 C 526 392 540 340 569 312 C 598 283 640 270 694 272 C 746 274 788 298 821 346 C 853 394 870 465 870 561 L 870 1169 L 1288 1169 Z" unicode="u" />
<glyph horiz-adv-x="1257" d="M 1257 1169 L 844 0 L 410 0 L 2 1169 L 455 1169 L 641 428 L 815 1169 L 1257 1169 Z" unicode="v" />
<glyph horiz-adv-x="1866" d="M 1862 1169 L 1499 0 L 1120 0 L 936 621 L 764 0 L 371 0 L 4 1169 L 442 1169 L 616 475 L 782 1169 L 1094 1169 L 1278 475 L 1440 1169 L 1862 1169 Z" unicode="w" />
<glyph horiz-adv-x="1307" d="M 1313 0 L 821 0 L 633 317 L 426 0 L -4 0 L 430 584 L 16 1169 L 481 1169 L 674 893 L 846 1169 L 1270 1169 L 872 627 L 1313 0 Z" unicode="x" />
<glyph horiz-adv-x="1270" d="M 1266 1169 L 877 2 C 831 -127 771 -225 697 -292 C 623 -359 509 -393 356 -393 C 224 -393 130 -373 72 -333 C 14 -293 -14 -235 -14 -160 C -14 -143 -12 -128 -8 -114 C -4 -100 0 -86 4 -74 C 4 -74 54 -69 155 -61 C 255 -53 306 -49 307 -49 C 305 -51 302 -57 300 -67 C 297 -77 296 -89 297 -104 C 297 -119 303 -131 314 -140 C 324 -149 340 -154 362 -154 C 386 -154 405 -146 419 -132 C 433 -117 440 -95 440 -66 C 440 -47 438 -29 436 -12 C 434 5 430 20 426 33 L -10 1169 L 451 1169 L 664 444 L 827 1169 L 1266 1169 Z" unicode="y" />
<glyph horiz-adv-x="1167" d="M 1106 0 L 51 0 L 51 295 L 600 893 L 82 893 L 82 1169 L 1106 1169 L 1106 889 L 541 283 L 1106 283 L 1106 0 Z" unicode="z" />
<glyph horiz-adv-x="905" d="M 823 -367 L 582 -367 C 470 -367 384 -345 323 -302 C 261 -259 231 -179 231 -63 L 231 416 C 231 442 222 464 206 482 C 190 499 167 508 139 508 L 68 508 L 68 760 L 139 760 C 173 760 197 769 211 788 C 224 807 231 831 231 860 L 231 1264 C 231 1358 255 1433 303 1489 C 351 1545 437 1573 561 1573 L 823 1573 L 823 1331 L 680 1331 C 661 1331 647 1325 637 1313 C 627 1301 623 1284 623 1262 L 623 834 C 623 776 608 731 580 697 C 552 663 504 647 436 647 L 436 621 C 504 621 552 603 580 567 C 608 531 623 483 623 424 L 623 -55 C 623 -77 627 -95 637 -107 C 646 -119 660 -125 680 -125 L 823 -125 L 823 -367 Z" unicode="{" />
<glyph horiz-adv-x="600" d="M 451 -408 L 152 -408 L 152 1640 L 451 1640 L 451 -408 Z" unicode="|" />
<glyph horiz-adv-x="905" d="M 82 -367 L 82 -125 L 225 -125 C 244 -125 258 -119 268 -107 C 278 -95 283 -77 283 -55 L 283 424 C 283 483 297 531 325 567 C 353 603 401 621 469 621 L 469 647 C 401 647 353 663 325 697 C 297 731 283 776 283 834 L 283 1262 C 283 1284 278 1301 268 1313 C 258 1325 243 1331 225 1331 L 82 1331 L 82 1573 L 344 1573 C 467 1573 553 1545 601 1489 C 649 1433 674 1358 674 1264 L 674 860 C 674 831 680 807 694 788 C 707 769 731 760 766 760 L 838 760 L 838 508 L 766 508 C 737 508 714 499 698 482 C 682 464 674 442 674 416 L 674 -63 C 674 -179 643 -259 582 -302 C 520 -345 434 -367 324 -367 L 82 -367 Z" unicode="}" />
<glyph horiz-adv-x="1214" d="M 1053 1405 C 1053 1349 1033 1298 995 1250 C 956 1202 888 1178 791 1178 C 714 1178 647 1202 591 1251 C 535 1300 484 1325 440 1325 C 401 1325 379 1312 374 1288 C 369 1263 369 1238 373 1214 L 193 1214 C 187 1223 180 1240 171 1266 C 162 1292 158 1319 158 1348 C 158 1404 176 1453 212 1497 C 248 1541 307 1563 389 1563 C 486 1563 563 1538 619 1488 C 675 1438 725 1413 770 1413 C 812 1413 837 1426 844 1454 C 850 1481 850 1509 842 1538 L 1014 1538 C 1022 1525 1030 1507 1039 1483 C 1048 1459 1053 1433 1053 1405 Z" unicode="~" />
<glyph horiz-adv-x="287" d="" unicode=" " />
<glyph horiz-adv-x="690" d="M 118 0 L 122 532 L 204 1074 L 492 1074 L 574 532 L 578 0 L 118 0 Z M 140 1572 L 554 1572 L 554 1201 L 140 1201 L 140 1572 Z" unicode="¡" />
<glyph horiz-adv-x="1249" d="M 1196 553 C 1191 463 1151 388 1077 328 C 1003 268 894 232 750 221 L 750 49 L 573 49 L 573 221 C 435 236 318 282 223 360 C 127 438 80 572 80 764 C 80 978 127 1132 221 1226 C 315 1319 433 1376 573 1397 L 573 1542 L 750 1542 L 750 1401 C 902 1391 1013 1353 1081 1287 C 1149 1221 1185 1142 1188 1051 C 1188 1027 1187 1006 1185 986 C 1182 966 1177 949 1171 936 L 834 915 C 836 929 838 943 839 956 C 840 969 840 987 838 1010 C 834 1042 824 1072 806 1099 C 788 1126 765 1142 737 1147 L 737 475 C 773 477 803 494 826 524 C 848 554 861 592 864 637 C 864 651 864 665 863 677 C 861 689 860 699 860 709 L 1180 698 C 1186 681 1190 661 1194 637 C 1197 613 1198 585 1196 553 Z M 586 481 L 586 1137 C 557 1130 529 1101 502 1051 C 474 1001 461 929 461 836 C 461 709 473 620 499 568 C 525 516 554 487 586 481 Z" unicode="¢" />
<glyph horiz-adv-x="1481" d="M 1409 367 C 1411 215 1377 112 1306 58 C 1235 4 1136 -23 1010 -23 C 922 -23 845 -14 779 4 C 712 22 653 43 602 68 C 558 40 509 18 456 3 C 403 -12 347 -20 287 -20 C 202 -20 135 1 87 43 C 38 85 14 137 14 197 C 14 281 42 347 98 393 C 154 439 226 463 315 463 C 351 463 387 459 422 453 C 457 447 491 439 524 430 C 526 444 527 461 528 479 C 528 497 528 511 528 522 C 526 546 523 568 519 587 C 515 605 508 624 500 643 L 252 643 L 252 877 L 385 877 C 371 908 359 948 349 996 C 338 1044 332 1088 332 1128 C 329 1274 369 1389 452 1473 C 535 1557 668 1599 852 1599 C 1002 1599 1118 1570 1200 1512 C 1282 1454 1323 1361 1323 1233 C 1323 1198 1319 1167 1313 1139 C 1306 1111 1298 1088 1290 1071 L 928 1034 C 934 1055 938 1076 942 1097 C 946 1118 948 1144 948 1174 C 948 1214 941 1246 927 1272 C 913 1298 888 1311 854 1311 C 824 1311 800 1299 782 1276 C 763 1253 754 1222 754 1182 C 754 1122 759 1065 771 1011 C 782 957 795 912 811 877 L 1139 877 L 1139 643 L 872 643 C 876 632 880 616 882 595 C 884 573 885 557 885 545 C 883 505 875 466 862 429 C 849 392 828 357 799 324 C 818 317 843 311 873 306 C 903 300 927 298 946 299 C 976 301 1000 311 1018 330 C 1036 349 1046 377 1049 414 C 1049 430 1048 447 1044 467 C 1040 486 1036 502 1032 516 L 1378 494 C 1385 481 1392 463 1398 440 C 1404 416 1408 392 1409 367 Z M 438 201 C 419 215 398 229 376 242 C 353 255 326 262 295 262 C 275 262 260 256 248 245 C 236 234 231 219 231 201 C 231 184 238 171 252 163 C 266 154 283 150 303 150 C 337 150 365 155 387 165 C 409 175 426 187 438 201 Z" unicode="£" />
<glyph horiz-adv-x="1407" d="M 1393 1573 L 1165 1038 L 1372 1038 L 1372 815 L 1073 815 L 985 598 L 1372 598 L 1372 375 L 934 375 L 934 0 L 479 0 L 479 375 L 35 375 L 35 598 L 418 598 L 328 815 L 35 815 L 35 1038 L 231 1038 L 12 1573 L 479 1573 L 725 899 L 958 1573 L 1393 1573 Z" unicode="¥" />
<glyph horiz-adv-x="600" d="M 152 -408 L 152 549 L 451 549 L 451 -408 L 152 -408 Z M 152 684 L 152 1640 L 451 1640 L 451 684 L 152 684 Z" unicode="¦" />
<glyph horiz-adv-x="1192" d="M 1163 762 C 1163 698 1144 641 1108 591 C 1071 541 1029 505 983 485 C 1029 460 1068 424 1098 377 C 1128 330 1143 275 1143 211 C 1143 108 1099 19 1011 -55 C 923 -130 782 -168 590 -168 C 404 -168 269 -135 184 -69 C 98 -3 56 72 57 160 C 57 170 57 179 57 189 C 57 198 60 208 66 219 L 440 254 C 438 242 436 232 435 223 C 433 213 433 203 434 193 C 436 164 448 138 472 115 C 495 91 536 80 594 80 C 634 80 664 90 683 110 C 702 130 712 150 713 172 C 713 206 704 230 684 242 C 664 254 628 269 575 289 L 397 352 C 294 388 212 431 151 479 C 89 527 59 606 59 715 C 59 778 77 830 113 872 C 149 913 194 945 246 969 C 196 991 158 1026 131 1072 C 104 1118 91 1177 92 1249 C 94 1357 143 1442 241 1504 C 339 1566 461 1597 608 1597 C 797 1597 926 1571 994 1521 C 1062 1471 1098 1407 1102 1331 C 1102 1315 1102 1302 1102 1291 C 1101 1280 1100 1272 1100 1266 L 748 1227 C 748 1235 749 1243 751 1251 C 752 1259 752 1270 750 1286 C 747 1303 735 1319 714 1335 C 692 1350 659 1358 614 1358 C 573 1358 544 1350 526 1335 C 508 1319 500 1301 500 1280 C 500 1258 508 1242 524 1230 C 540 1218 571 1205 618 1190 L 809 1128 C 932 1088 1022 1043 1078 992 C 1134 941 1163 864 1163 762 Z M 768 702 C 772 726 766 749 750 769 C 734 789 708 806 672 819 C 639 831 611 841 587 848 C 563 854 544 861 530 868 C 514 858 498 844 483 828 C 467 811 459 789 457 762 C 455 732 463 707 483 689 C 503 670 531 653 567 639 C 597 626 625 617 650 611 C 675 605 693 600 705 596 C 715 604 727 618 741 636 C 755 654 764 676 768 702 Z" unicode="§" />
<glyph horiz-adv-x="1188" d="M 516 1296 L 164 1296 L 164 1579 L 516 1579 L 516 1296 Z M 1022 1296 L 668 1296 L 668 1579 L 1022 1579 L 1022 1296 Z" unicode="¨" />
<glyph horiz-adv-x="1802" d="M 1294 651 C 1294 577 1266 505 1211 436 C 1156 366 1053 332 903 332 C 771 332 669 369 595 443 C 521 517 485 630 485 780 C 485 936 522 1051 597 1126 C 671 1201 775 1239 909 1239 C 1033 1239 1123 1211 1179 1155 C 1234 1099 1263 1035 1266 961 C 1266 951 1265 941 1263 929 C 1261 917 1260 907 1260 901 L 1022 879 C 1022 887 1023 898 1023 912 C 1023 925 1022 935 1022 942 C 1019 976 1009 1005 992 1028 C 975 1051 949 1063 915 1063 C 869 1063 834 1042 812 1002 C 789 961 778 888 778 782 C 778 688 789 622 813 582 C 837 542 872 522 920 522 C 968 522 1001 536 1019 565 C 1037 594 1047 628 1047 666 C 1047 676 1046 688 1045 702 C 1043 716 1042 729 1040 741 L 1286 729 C 1288 720 1289 708 1291 694 C 1293 680 1294 665 1294 651 Z M 1710 786 C 1710 568 1634 385 1483 237 C 1331 89 1137 16 899 16 C 657 16 461 89 313 237 C 164 384 90 567 90 786 C 90 1002 165 1185 317 1333 C 469 1481 663 1556 899 1556 C 1136 1556 1330 1482 1482 1335 C 1634 1187 1710 1004 1710 786 Z M 1546 786 C 1546 961 1488 1108 1372 1227 C 1256 1346 1098 1406 899 1406 C 702 1406 545 1346 427 1227 C 309 1107 250 960 250 786 C 250 610 307 463 422 344 C 537 225 696 166 899 166 C 1101 166 1259 225 1374 343 C 1488 461 1546 608 1546 786 Z" unicode="©" />
<glyph horiz-adv-x="938" d="M 881 907 C 859 894 834 883 805 874 C 775 864 744 860 711 860 C 671 860 634 868 601 885 C 568 901 545 923 532 950 C 516 929 492 908 461 888 C 429 868 386 858 330 858 C 241 858 176 876 134 912 C 92 948 72 997 72 1059 C 72 1125 96 1174 144 1206 C 192 1238 251 1260 322 1274 C 368 1282 406 1291 435 1301 C 463 1311 488 1322 510 1335 C 510 1375 505 1404 495 1423 C 485 1442 464 1452 434 1452 C 406 1452 386 1445 372 1432 C 358 1418 352 1403 352 1386 C 352 1381 352 1375 353 1368 C 354 1361 355 1356 356 1352 L 119 1325 C 114 1331 110 1342 108 1356 C 105 1370 104 1385 104 1401 C 104 1461 132 1509 190 1545 C 248 1581 334 1599 449 1599 C 561 1599 646 1580 704 1542 C 762 1504 791 1445 791 1364 L 791 1047 C 791 1032 794 1022 801 1016 C 808 1010 817 1008 827 1008 C 838 1008 848 1009 857 1012 C 865 1014 870 1016 870 1016 L 881 907 Z M 506 1112 L 506 1190 C 502 1187 492 1183 477 1179 C 462 1175 450 1171 442 1169 C 412 1161 390 1150 376 1137 C 361 1124 354 1107 354 1087 C 354 1063 360 1047 374 1037 C 387 1027 403 1022 422 1022 C 449 1022 470 1031 484 1050 C 498 1068 506 1089 506 1112 Z M 881 596 L 76 596 L 76 782 L 881 782 L 881 596 Z" unicode="ª" />
<glyph horiz-adv-x="1470" d="M 688 45 L 86 430 L 86 741 L 688 1126 L 688 793 L 342 586 L 688 379 L 688 45 Z M 1337 45 L 735 430 L 735 741 L 1337 1126 L 1337 793 L 991 586 L 1337 379 L 1337 45 Z" unicode="«" />
<glyph horiz-adv-x="999" d="M 895 516 L 102 516 L 102 844 L 895 844 L 895 516 Z" unicode="­" />
<glyph horiz-adv-x="1802" d="M 1278 967 C 1278 907 1261 858 1227 822 C 1193 785 1142 762 1073 752 C 1128 750 1167 725 1191 677 C 1214 629 1230 573 1239 508 C 1243 479 1249 453 1259 429 C 1269 405 1280 387 1292 375 L 1012 375 C 1008 379 1003 387 998 399 C 993 411 989 426 987 442 C 980 474 973 508 965 544 C 957 580 952 607 948 627 C 944 644 937 657 929 667 C 920 677 907 682 891 682 L 815 682 L 815 375 L 547 375 L 547 1214 L 983 1214 C 1078 1214 1151 1192 1202 1150 C 1252 1108 1278 1047 1278 967 Z M 1710 786 C 1710 568 1634 385 1483 237 C 1331 89 1137 16 899 16 C 657 16 461 89 313 237 C 164 384 90 567 90 786 C 90 1002 165 1185 317 1333 C 469 1481 663 1556 899 1556 C 1136 1556 1330 1482 1482 1335 C 1634 1187 1710 1004 1710 786 Z M 1546 786 C 1546 961 1488 1108 1372 1227 C 1256 1345 1098 1405 899 1406 C 702 1405 545 1345 427 1226 C 309 1107 250 960 250 786 C 250 610 307 463 422 344 C 537 225 696 166 899 166 C 1101 166 1259 225 1374 343 C 1488 461 1546 608 1546 786 Z M 1012 948 C 1012 988 1001 1016 981 1033 C 961 1050 931 1059 893 1059 L 815 1059 L 815 838 L 901 838 C 933 838 960 845 981 861 C 1001 876 1012 905 1012 948 Z" unicode="®" />
<glyph horiz-adv-x="1188" d="M 969 1307 L 217 1307 L 217 1544 L 969 1544 L 969 1307 Z" unicode="¯" />
<glyph horiz-adv-x="643" d="M 618 1313 C 618 1234 589 1167 531 1112 C 473 1057 404 1030 322 1030 C 240 1030 170 1057 112 1112 C 54 1167 25 1234 25 1313 C 25 1391 54 1457 112 1513 C 170 1569 240 1597 322 1597 C 404 1597 473 1569 531 1513 C 589 1457 618 1391 618 1313 Z M 446 1311 C 446 1343 433 1371 409 1395 C 385 1418 356 1430 322 1430 C 287 1430 257 1418 233 1395 C 209 1371 197 1343 197 1311 C 197 1280 209 1253 233 1229 C 257 1205 287 1194 322 1194 C 356 1194 385 1205 409 1229 C 433 1253 446 1280 446 1311 Z" unicode="°" />
<glyph horiz-adv-x="885" d="M 61 563 L 57 768 C 87 789 140 821 218 863 C 295 905 360 954 414 1010 C 446 1045 472 1082 492 1122 C 512 1161 522 1203 522 1247 C 522 1295 514 1329 498 1349 C 482 1369 458 1380 424 1380 C 389 1380 364 1368 349 1345 C 333 1322 326 1287 326 1239 C 326 1214 329 1187 337 1158 C 344 1128 349 1108 352 1098 L 88 1081 C 85 1090 79 1115 70 1155 C 61 1195 57 1237 57 1282 C 57 1374 90 1448 156 1502 C 222 1556 318 1583 442 1583 C 570 1583 667 1556 732 1502 C 796 1448 829 1370 829 1270 C 829 1206 812 1145 780 1088 C 748 1030 706 978 655 930 C 624 902 590 876 553 853 C 516 829 478 809 438 791 C 444 791 457 792 477 792 C 497 792 515 793 532 793 C 582 793 643 794 716 796 C 788 798 825 799 825 799 L 825 563 L 61 563 Z" unicode="²" />
<glyph horiz-adv-x="874" d="M 420 551 C 284 551 188 577 133 631 C 78 684 51 747 51 821 C 51 841 52 860 54 878 C 56 896 59 910 63 922 L 344 944 C 342 937 339 926 337 911 C 335 895 334 881 334 868 C 334 836 340 811 353 793 C 366 775 389 766 422 766 C 455 766 480 777 497 801 C 513 824 522 859 522 905 C 522 955 514 991 499 1015 C 483 1039 460 1051 430 1051 C 406 1051 382 1047 356 1039 C 330 1031 309 1022 293 1010 L 201 1167 L 461 1350 L 84 1350 L 84 1573 L 774 1573 L 774 1354 L 539 1192 C 543 1194 549 1196 556 1198 C 563 1199 571 1200 580 1200 C 651 1198 710 1173 757 1127 C 803 1081 827 1003 827 893 C 827 789 793 706 727 644 C 660 582 558 551 420 551 Z" unicode="³" />
<glyph horiz-adv-x="1188" d="M 438 1282 L 604 1589 L 1059 1589 L 735 1282 L 438 1282 Z" unicode="´" />
<glyph horiz-adv-x="1569" d="M 1419 -117 L 1163 -117 L 1163 1362 L 999 1362 L 999 -117 L 743 -117 L 743 528 L 608 528 C 483 528 361 564 241 637 C 121 710 61 842 61 1034 C 61 1236 122 1376 245 1455 C 367 1533 495 1573 627 1573 L 1419 1573 L 1419 -117 Z M 743 737 L 743 1362 L 709 1362 C 655 1362 603 1340 555 1296 C 507 1252 483 1164 483 1034 C 483 923 507 846 555 802 C 603 758 655 737 709 737 L 743 737 Z" unicode="¶" />
<glyph horiz-adv-x="715" d="M 614 795 C 614 727 589 671 541 627 C 492 583 431 561 358 561 C 286 561 225 583 177 628 C 128 673 104 729 104 795 C 104 864 128 920 178 963 C 228 1006 288 1028 358 1028 C 431 1028 492 1005 541 961 C 589 916 614 861 614 795 Z" unicode="·" />
<glyph horiz-adv-x="1188" d="M 940 -262 C 940 -334 908 -393 845 -439 C 782 -485 685 -508 555 -508 C 470 -508 397 -498 336 -478 C 274 -458 229 -436 201 -412 L 283 -274 C 308 -292 342 -309 386 -325 C 429 -340 481 -348 541 -348 C 579 -348 607 -341 625 -328 C 643 -314 653 -297 653 -276 C 653 -258 645 -242 631 -230 C 617 -217 595 -211 567 -211 C 547 -211 527 -212 505 -215 C 483 -218 465 -223 453 -229 L 500 -53 C 516 -51 535 -48 558 -46 C 581 -44 599 -43 612 -43 C 720 -43 801 -63 857 -104 C 912 -145 940 -198 940 -262 Z" unicode="¸" />
<glyph horiz-adv-x="680" d="M 246 569 L 246 1255 C 239 1250 222 1246 196 1243 C 169 1240 143 1239 119 1239 C 102 1239 82 1239 60 1240 C 37 1241 23 1242 18 1243 L 18 1423 C 42 1423 67 1425 92 1431 C 117 1436 141 1443 164 1452 C 196 1463 227 1480 257 1504 C 286 1528 306 1553 317 1581 L 541 1581 L 541 569 L 246 569 Z" unicode="¹" />
<glyph horiz-adv-x="934" d="M 856 1233 C 856 1112 819 1021 747 960 C 675 898 581 868 465 868 C 342 868 247 899 179 962 C 111 1025 78 1115 78 1233 C 78 1356 113 1448 185 1508 C 256 1568 349 1599 465 1599 C 587 1599 683 1569 752 1509 C 821 1449 856 1357 856 1233 Z M 565 1233 C 565 1295 557 1341 542 1372 C 527 1403 503 1419 469 1419 C 437 1419 413 1403 395 1373 C 377 1343 369 1296 369 1233 C 369 1179 377 1136 393 1104 C 409 1071 435 1055 469 1055 C 503 1055 528 1071 543 1104 C 557 1136 565 1179 565 1233 Z M 827 596 L 106 596 L 106 782 L 827 782 L 827 596 Z" unicode="º" />
<glyph horiz-adv-x="1470" d="M 133 1126 L 735 741 L 735 430 L 133 45 L 133 379 L 479 586 L 133 793 L 133 1126 Z M 782 1126 L 1384 741 L 1384 430 L 782 45 L 782 379 L 1128 586 L 782 793 L 782 1126 Z" unicode="»" />
<glyph horiz-adv-x="2007" d="M 246 569 L 246 1255 C 239 1250 222 1246 196 1243 C 169 1240 143 1239 119 1239 C 102 1239 82 1239 60 1240 C 37 1241 23 1242 18 1243 L 18 1423 C 42 1423 67 1426 93 1432 C 119 1438 142 1445 164 1454 C 196 1464 227 1481 257 1505 C 286 1528 306 1553 317 1581 L 541 1581 L 541 569 L 246 569 Z M 1546 0 L 1546 178 L 1096 178 L 1096 418 L 1507 1006 L 1827 1006 L 1827 395 L 1950 395 L 1950 178 L 1827 178 L 1827 0 L 1546 0 Z M 1329 395 L 1546 395 L 1546 637 C 1546 641 1546 655 1546 679 C 1546 703 1547 720 1548 729 L 1491 643 L 1329 395 Z M 227 -18 L 1468 1628 L 1737 1628 L 498 -18 L 227 -18 Z" unicode="¼" />
<glyph horiz-adv-x="2136" d="M 1274 0 L 1268 205 C 1297 227 1351 260 1429 302 C 1507 344 1573 393 1626 449 C 1658 483 1685 520 1705 560 C 1725 600 1735 642 1735 686 C 1735 732 1726 766 1710 787 C 1694 808 1668 819 1634 819 C 1600 819 1576 807 1560 783 C 1544 759 1536 724 1536 676 C 1536 650 1539 623 1547 594 C 1554 564 1560 545 1565 537 L 1298 516 C 1295 526 1290 552 1282 592 C 1274 632 1270 674 1270 719 C 1270 811 1302 885 1368 940 C 1433 994 1527 1022 1651 1022 C 1780 1022 1877 994 1942 940 C 2007 885 2040 807 2040 707 C 2040 643 2023 582 1991 526 C 1959 469 1918 417 1868 371 C 1836 343 1801 317 1764 293 C 1727 269 1689 247 1651 229 C 1655 229 1667 229 1686 230 C 1705 230 1723 231 1741 231 C 1791 233 1853 235 1927 236 C 2001 237 2038 238 2038 238 L 2038 0 L 1274 0 Z M 246 569 L 246 1255 C 239 1250 222 1246 196 1243 C 169 1240 143 1239 119 1239 C 102 1239 82 1239 60 1240 C 37 1241 23 1242 18 1243 L 18 1423 C 42 1423 67 1425 92 1431 C 117 1436 141 1443 164 1452 C 196 1463 227 1480 257 1504 C 286 1528 306 1553 317 1581 L 541 1581 L 541 569 L 246 569 Z M 217 -18 L 1458 1628 L 1729 1628 L 489 -18 L 217 -18 Z" unicode="½" />
<glyph horiz-adv-x="2169" d="M 420 551 C 286 551 191 577 135 631 C 79 684 51 747 51 821 C 51 841 52 860 55 878 C 57 896 61 910 66 922 L 346 944 C 343 937 340 926 338 911 C 335 895 334 881 334 868 C 334 836 340 811 354 793 C 368 775 391 766 424 766 C 458 766 483 777 499 801 C 515 824 524 859 524 905 C 524 955 516 991 500 1015 C 484 1039 460 1051 430 1051 C 407 1051 383 1047 358 1039 C 332 1031 311 1022 295 1010 L 201 1167 L 461 1350 L 86 1350 L 86 1573 L 774 1573 L 774 1354 L 539 1192 C 545 1194 551 1196 558 1198 C 565 1199 573 1200 582 1200 C 653 1198 712 1173 759 1127 C 805 1081 829 1003 829 893 C 829 789 795 706 729 644 C 662 582 559 551 420 551 Z M 1708 0 L 1708 178 L 1260 178 L 1260 418 L 1669 1006 L 1991 1006 L 1991 395 L 2114 395 L 2114 178 L 1991 178 L 1991 0 L 1708 0 Z M 1491 395 L 1708 395 L 1708 649 C 1708 653 1708 665 1708 685 C 1708 705 1709 720 1710 729 L 1663 655 L 1491 395 Z M 387 -18 L 1628 1628 L 1898 1628 L 657 -18 L 387 -18 Z" unicode="¾" />
<glyph horiz-adv-x="1153" d="M 61 468 C 61 678 104 821 190 899 C 276 976 374 1015 484 1015 C 533 1015 573 1007 605 993 C 636 979 658 962 671 943 L 671 1085 L 1001 1085 L 1001 605 L 720 605 C 715 645 702 674 681 693 C 660 712 635 722 607 722 C 575 722 551 704 534 670 C 517 636 509 572 509 478 C 509 396 519 338 540 303 C 560 268 590 251 628 251 C 654 251 675 259 691 276 C 706 293 714 319 714 355 C 714 379 711 398 707 413 C 703 427 698 440 693 452 L 1037 478 C 1054 459 1068 434 1080 402 C 1092 370 1098 332 1099 290 C 1101 199 1062 124 982 64 C 902 4 774 -24 597 -24 C 437 -24 307 16 209 100 C 110 183 61 306 61 468 Z M 622 1574 L 1035 1574 L 1035 1203 L 622 1203 L 622 1574 Z" unicode="¿" />
<glyph horiz-adv-x="1401" d="M 1389 0 L 950 0 L 879 238 L 487 238 L 420 0 L 12 0 L 471 1573 L 936 1573 L 1389 0 Z M 874 1663 L 578 1663 L 256 1970 L 709 1970 L 874 1663 Z M 795 545 L 676 1044 L 565 545 L 795 545 Z" unicode="À" />
<glyph horiz-adv-x="1401" d="M 1389 0 L 950 0 L 879 238 L 487 238 L 420 0 L 12 0 L 471 1573 L 936 1573 L 1389 0 Z M 539 1663 L 705 1970 L 1159 1970 L 836 1663 L 539 1663 Z M 795 545 L 676 1044 L 565 545 L 795 545 Z" unicode="Á" />
<glyph horiz-adv-x="1401" d="M 1389 0 L 950 0 L 879 238 L 487 238 L 420 0 L 12 0 L 471 1573 L 936 1573 L 1389 0 Z M 1184 1663 L 870 1663 L 705 1829 L 539 1663 L 225 1663 L 485 1989 L 924 1989 L 1184 1663 Z M 795 545 L 676 1044 L 565 545 L 795 545 Z" unicode="Â" />
<glyph horiz-adv-x="1401" d="M 1100 1831 C 1100 1781 1081 1740 1045 1708 C 1008 1676 948 1661 866 1661 C 826 1661 789 1665 755 1674 C 721 1682 692 1692 668 1704 C 647 1712 623 1722 596 1734 C 569 1745 547 1751 530 1751 C 506 1751 490 1742 480 1726 C 470 1709 469 1691 475 1673 L 311 1673 C 299 1687 287 1705 276 1726 C 265 1746 260 1768 260 1792 C 260 1842 277 1884 311 1918 C 345 1951 397 1968 465 1968 C 509 1968 546 1963 576 1954 C 606 1945 632 1936 655 1927 C 685 1915 714 1902 744 1890 C 773 1878 796 1872 813 1872 C 841 1872 861 1879 873 1895 C 885 1911 887 1930 879 1954 L 1049 1954 C 1061 1940 1072 1924 1083 1904 C 1094 1884 1100 1859 1100 1831 Z M 1389 0 L 950 0 L 879 238 L 487 238 L 420 0 L 12 0 L 471 1573 L 936 1573 L 1389 0 Z M 795 545 L 676 1044 L 565 545 L 795 545 Z" unicode="Ã" />
<glyph horiz-adv-x="1401" d="M 1389 0 L 950 0 L 879 238 L 487 238 L 420 0 L 12 0 L 471 1573 L 936 1573 L 1389 0 Z M 621 1677 L 268 1677 L 268 1960 L 621 1960 L 621 1677 Z M 1126 1677 L 772 1677 L 772 1960 L 1126 1960 L 1126 1677 Z M 795 545 L 676 1044 L 565 545 L 795 545 Z" unicode="Ä" />
<glyph horiz-adv-x="1401" d="M 936 1571 L 1389 0 L 950 0 L 879 238 L 487 238 L 420 0 L 12 0 L 469 1567 C 446 1591 428 1619 416 1649 C 403 1679 397 1712 397 1747 C 397 1825 426 1892 485 1947 C 544 2002 615 2030 698 2030 C 782 2030 854 2002 914 1947 C 974 1892 1004 1825 1004 1747 C 1004 1714 998 1683 986 1653 C 974 1623 957 1595 936 1571 Z M 829 1747 C 829 1781 816 1810 790 1835 C 764 1859 734 1872 698 1872 C 662 1872 632 1859 607 1835 C 581 1810 569 1781 569 1747 C 569 1715 581 1687 607 1663 C 632 1639 662 1628 698 1628 C 734 1628 764 1639 790 1663 C 816 1687 829 1715 829 1747 Z M 795 545 L 676 1044 L 565 545 L 795 545 Z" unicode="Å" />
<glyph horiz-adv-x="2036" d="M 1929 1243 L 1325 1243 L 1325 963 L 1868 963 L 1868 637 L 1325 637 L 1325 340 L 1980 340 L 1980 0 L 881 0 L 881 238 L 537 238 L 438 0 L -6 0 L 733 1573 L 1929 1573 L 1929 1243 Z M 881 545 L 881 1087 L 670 545 L 881 545 Z" unicode="Æ" />
<glyph horiz-adv-x="1458" d="M 1393 418 C 1386 298 1332 195 1230 107 C 1128 19 978 -25 778 -25 C 562 -25 389 34 260 152 C 130 270 66 474 66 764 C 66 1068 129 1284 255 1411 C 381 1538 549 1602 760 1602 C 995 1602 1153 1557 1234 1467 C 1314 1377 1357 1289 1362 1202 C 1364 1169 1362 1137 1357 1107 C 1352 1076 1346 1051 1339 1032 L 944 989 C 946 1005 948 1027 950 1053 C 952 1079 952 1103 952 1126 C 950 1187 933 1233 903 1264 C 873 1294 828 1309 768 1309 C 700 1308 645 1268 603 1190 C 561 1111 541 974 541 780 C 541 598 559 468 596 388 C 632 308 690 268 770 266 C 841 264 895 282 932 321 C 969 360 988 417 989 492 C 989 515 988 539 986 563 C 984 587 983 608 981 627 L 1370 606 C 1374 593 1379 569 1386 535 C 1392 501 1395 462 1393 418 Z M 1073 -262 C 1073 -334 1041 -393 978 -439 C 915 -485 818 -508 688 -508 C 603 -508 530 -498 469 -478 C 407 -458 362 -436 334 -412 L 416 -274 C 441 -292 475 -309 519 -325 C 562 -340 614 -348 674 -348 C 712 -348 740 -341 758 -328 C 776 -314 786 -297 786 -276 C 786 -258 778 -242 764 -230 C 750 -217 728 -211 700 -211 C 680 -211 660 -212 638 -215 C 616 -218 598 -223 586 -229 L 633 -53 C 649 -51 668 -48 691 -46 C 714 -44 732 -43 745 -43 C 853 -43 934 -63 990 -104 C 1045 -145 1073 -198 1073 -262 Z" unicode="Ç" />
<glyph horiz-adv-x="1296" d="M 1243 0 L 133 0 L 133 1573 L 1192 1573 L 1192 1243 L 588 1243 L 588 963 L 1130 963 L 1130 637 L 588 637 L 588 340 L 1243 340 L 1243 0 Z M 868 1663 L 571 1663 L 250 1970 L 702 1970 L 868 1663 Z" unicode="È" />
<glyph horiz-adv-x="1296" d="M 1243 0 L 133 0 L 133 1573 L 1192 1573 L 1192 1243 L 588 1243 L 588 963 L 1130 963 L 1130 637 L 588 637 L 588 340 L 1243 340 L 1243 0 Z M 514 1663 L 680 1970 L 1135 1970 L 811 1663 L 514 1663 Z" unicode="É" />
<glyph horiz-adv-x="1296" d="M 1243 0 L 133 0 L 133 1573 L 1192 1573 L 1192 1243 L 588 1243 L 588 963 L 1130 963 L 1130 637 L 588 637 L 588 340 L 1243 340 L 1243 0 Z M 1159 1663 L 846 1663 L 680 1829 L 514 1663 L 201 1663 L 461 1989 L 899 1989 L 1159 1663 Z" unicode="Ê" />
<glyph horiz-adv-x="1296" d="M 1243 0 L 133 0 L 133 1573 L 1192 1573 L 1192 1243 L 588 1243 L 588 963 L 1130 963 L 1130 637 L 588 637 L 588 340 L 1243 340 L 1243 0 Z M 592 1677 L 240 1677 L 240 1960 L 592 1960 L 592 1677 Z M 1098 1677 L 743 1677 L 743 1960 L 1098 1960 L 1098 1677 Z" unicode="Ë" />
<glyph horiz-adv-x="721" d="M 588 0 L 133 0 L 133 1573 L 588 1573 L 588 0 Z M 553 1663 L 256 1663 L -66 1970 L 387 1970 L 553 1663 Z" unicode="Ì" />
<glyph horiz-adv-x="721" d="M 588 0 L 133 0 L 133 1573 L 588 1573 L 588 0 Z M 209 1663 L 375 1970 L 829 1970 L 506 1663 L 209 1663 Z" unicode="Í" />
<glyph horiz-adv-x="721" d="M 852 1663 L 539 1663 L 373 1829 L 207 1663 L -106 1663 L 154 1989 L 592 1989 L 852 1663 Z M 588 0 L 133 0 L 133 1573 L 588 1573 L 588 0 Z" unicode="Î" />
<glyph horiz-adv-x="721" d="M 285 1677 L -68 1677 L -68 1960 L 285 1960 L 285 1677 Z M 588 0 L 133 0 L 133 1573 L 588 1573 L 588 0 Z M 791 1677 L 436 1677 L 436 1960 L 791 1960 L 791 1677 Z" unicode="Ï" />
<glyph horiz-adv-x="1583" d="M 154 662 L 29 662 L 29 985 L 154 985 L 154 1573 L 784 1573 C 988 1573 1161 1507 1303 1376 C 1445 1245 1516 1037 1516 752 C 1516 507 1451 320 1322 192 C 1193 64 1010 0 772 0 L 154 0 L 154 662 Z M 596 985 L 844 985 L 844 662 L 596 662 L 596 297 L 733 297 C 835 297 912 331 964 399 C 1016 467 1042 596 1042 788 C 1042 978 1011 1107 951 1174 C 890 1240 811 1274 715 1274 L 596 1274 L 596 985 Z" unicode="Ð" />
<glyph horiz-adv-x="1546" d="M 1204 1833 C 1204 1783 1185 1742 1149 1710 C 1113 1678 1053 1663 971 1663 C 931 1663 894 1667 860 1676 C 826 1684 796 1694 772 1706 C 751 1714 727 1724 701 1736 C 674 1747 652 1753 635 1753 C 611 1753 595 1744 585 1728 C 575 1711 573 1693 580 1675 L 416 1675 C 403 1689 391 1707 381 1728 C 370 1748 365 1770 365 1794 C 365 1844 382 1886 416 1920 C 450 1953 501 1970 569 1970 C 613 1970 651 1965 681 1956 C 711 1947 737 1938 760 1929 C 789 1917 818 1904 848 1892 C 878 1880 901 1874 918 1874 C 946 1874 966 1881 978 1897 C 989 1913 991 1932 983 1956 L 1153 1956 C 1165 1942 1177 1926 1188 1906 C 1198 1886 1204 1861 1204 1833 Z M 1413 0 L 1006 0 L 520 821 L 520 0 L 133 0 L 133 1573 L 539 1573 L 1026 737 L 1026 1573 L 1413 1573 L 1413 0 Z" unicode="Ñ" />
<glyph horiz-adv-x="1587" d="M 66 784 C 66 1059 132 1263 265 1397 C 397 1530 574 1597 795 1597 C 1028 1597 1207 1529 1333 1393 C 1459 1257 1522 1054 1522 784 C 1522 492 1454 284 1319 160 C 1184 36 1009 -25 793 -25 C 568 -25 391 37 261 163 C 131 289 66 496 66 784 Z M 541 784 C 541 583 564 447 610 377 C 656 307 717 272 793 272 C 879 272 943 307 985 377 C 1026 447 1047 582 1047 784 C 1047 986 1024 1123 978 1195 C 932 1267 870 1303 793 1303 C 709 1303 646 1266 604 1193 C 562 1120 541 984 541 784 Z M 965 1663 L 668 1663 L 346 1970 L 799 1970 L 965 1663 Z" unicode="Ò" />
<glyph horiz-adv-x="1587" d="M 66 784 C 66 1059 132 1263 265 1397 C 397 1530 574 1597 795 1597 C 1028 1597 1207 1529 1333 1393 C 1459 1257 1522 1054 1522 784 C 1522 492 1454 284 1319 160 C 1184 36 1009 -25 793 -25 C 568 -25 391 37 261 163 C 131 289 66 496 66 784 Z M 541 784 C 541 583 564 447 610 377 C 656 307 717 272 793 272 C 879 272 943 307 985 377 C 1026 447 1047 582 1047 784 C 1047 986 1024 1123 978 1195 C 932 1267 870 1303 793 1303 C 709 1303 646 1266 604 1193 C 562 1120 541 984 541 784 Z M 629 1663 L 795 1970 L 1249 1970 L 926 1663 L 629 1663 Z" unicode="Ó" />
<glyph horiz-adv-x="1587" d="M 66 784 C 66 1059 132 1263 265 1397 C 397 1530 574 1597 795 1597 C 1028 1597 1207 1529 1333 1393 C 1459 1257 1522 1054 1522 784 C 1522 492 1454 284 1319 160 C 1184 36 1009 -25 793 -25 C 568 -25 391 37 261 163 C 131 289 66 496 66 784 Z M 541 784 C 541 583 564 447 610 377 C 656 307 717 272 793 272 C 879 272 943 307 985 377 C 1026 447 1047 582 1047 784 C 1047 986 1024 1123 978 1195 C 932 1267 870 1303 793 1303 C 709 1303 646 1266 604 1193 C 562 1120 541 984 541 784 Z M 1272 1663 L 958 1663 L 793 1829 L 627 1663 L 313 1663 L 573 1989 L 1012 1989 L 1272 1663 Z" unicode="Ô" />
<glyph horiz-adv-x="1587" d="M 66 784 C 66 1059 132 1263 265 1397 C 397 1530 574 1597 795 1597 C 1028 1597 1207 1529 1333 1393 C 1459 1257 1522 1054 1522 784 C 1522 492 1454 284 1319 160 C 1184 36 1009 -25 793 -25 C 568 -25 391 37 261 163 C 131 289 66 496 66 784 Z M 541 784 C 541 583 564 447 610 377 C 656 307 717 272 793 272 C 879 272 943 307 985 377 C 1026 447 1047 582 1047 784 C 1047 986 1024 1123 978 1195 C 932 1267 870 1303 793 1303 C 709 1303 646 1266 604 1193 C 562 1120 541 984 541 784 Z M 1210 1831 C 1210 1781 1191 1740 1155 1708 C 1118 1676 1058 1661 976 1661 C 936 1661 899 1665 865 1674 C 831 1682 802 1692 778 1704 C 757 1712 733 1722 706 1734 C 679 1745 657 1751 640 1751 C 616 1751 600 1742 590 1726 C 580 1709 579 1691 585 1673 L 421 1673 C 409 1687 397 1705 386 1726 C 375 1746 370 1768 370 1792 C 370 1842 387 1884 421 1918 C 455 1951 507 1968 575 1968 C 619 1968 656 1963 686 1954 C 716 1945 742 1936 765 1927 C 795 1915 824 1902 854 1890 C 883 1878 906 1872 923 1872 C 951 1872 971 1879 983 1895 C 995 1911 997 1930 989 1954 L 1159 1954 C 1171 1940 1182 1924 1193 1904 C 1204 1884 1210 1859 1210 1831 Z" unicode="Õ" />
<glyph horiz-adv-x="1587" d="M 66 784 C 66 1059 132 1263 265 1397 C 397 1530 574 1597 795 1597 C 1028 1597 1207 1529 1333 1393 C 1459 1257 1522 1054 1522 784 C 1522 492 1454 284 1319 160 C 1184 36 1009 -25 793 -25 C 568 -25 391 37 261 163 C 131 289 66 496 66 784 Z M 541 784 C 541 583 564 447 610 377 C 656 307 717 272 793 272 C 879 272 943 307 985 377 C 1026 447 1047 582 1047 784 C 1047 986 1024 1123 978 1195 C 932 1267 870 1303 793 1303 C 709 1303 646 1266 604 1193 C 562 1120 541 984 541 784 Z M 723 1677 L 371 1677 L 371 1960 L 723 1960 L 723 1677 Z M 1229 1677 L 874 1677 L 874 1960 L 1229 1960 L 1229 1677 Z" unicode="Ö" />
<glyph horiz-adv-x="1042" d="M 729 733 L 956 506 L 750 297 L 520 524 L 293 297 L 86 506 L 313 733 L 86 961 L 295 1167 L 520 942 L 748 1167 L 956 961 L 729 733 Z" unicode="×" />
<glyph horiz-adv-x="1587" d="M 1354 1370 C 1408 1302 1450 1220 1479 1122 C 1507 1024 1522 911 1522 784 C 1522 492 1454 284 1319 160 C 1184 36 1009 -25 793 -25 C 714 -25 641 -17 573 -3 C 505 11 444 33 389 63 C 355 19 326 -19 302 -51 C 278 -83 266 -100 266 -100 L 90 31 L 221 207 C 171 272 132 352 106 448 C 79 543 66 655 66 784 C 66 1059 132 1263 265 1397 C 397 1530 574 1597 795 1597 C 872 1597 944 1589 1010 1575 C 1076 1561 1136 1539 1190 1509 L 1296 1653 L 1466 1522 L 1354 1370 Z M 1040 946 C 1040 946 969 850 827 658 C 685 466 614 369 614 369 C 635 333 661 307 692 293 C 722 279 756 272 793 272 C 879 272 943 307 985 377 C 1026 447 1047 582 1047 784 C 1047 814 1046 842 1045 869 C 1043 895 1042 921 1040 946 Z M 545 643 L 969 1212 C 947 1244 922 1268 892 1282 C 862 1296 829 1303 793 1303 C 709 1303 646 1266 604 1193 C 562 1120 541 984 541 784 C 541 758 541 734 542 710 C 543 686 544 664 545 643 Z" unicode="Ø" />
<glyph horiz-adv-x="1513" d="M 1386 508 C 1386 346 1336 216 1237 120 C 1137 23 974 -25 748 -25 C 508 -25 344 23 257 120 C 170 216 127 346 127 508 L 127 1573 L 582 1573 L 582 537 C 582 462 592 403 612 360 C 632 316 678 295 752 295 C 835 295 886 319 904 368 C 922 416 932 473 932 537 L 932 1573 L 1386 1573 L 1386 508 Z M 952 1663 L 655 1663 L 334 1970 L 786 1970 L 952 1663 Z" unicode="Ù" />
<glyph horiz-adv-x="1513" d="M 1386 508 C 1386 346 1336 216 1237 120 C 1137 23 974 -25 748 -25 C 508 -25 344 23 257 120 C 170 216 127 346 127 508 L 127 1573 L 582 1573 L 582 537 C 582 462 592 403 612 360 C 632 316 678 295 752 295 C 835 295 886 319 904 368 C 922 416 932 473 932 537 L 932 1573 L 1386 1573 L 1386 508 Z M 586 1663 L 752 1970 L 1206 1970 L 883 1663 L 586 1663 Z" unicode="Ú" />
<glyph horiz-adv-x="1513" d="M 1386 508 C 1386 346 1336 216 1237 120 C 1137 23 974 -25 748 -25 C 508 -25 344 23 257 120 C 170 216 127 346 127 508 L 127 1573 L 582 1573 L 582 537 C 582 462 592 403 612 360 C 632 316 678 295 752 295 C 835 295 886 319 904 368 C 922 416 932 473 932 537 L 932 1573 L 1386 1573 L 1386 508 Z M 1245 1663 L 932 1663 L 766 1829 L 600 1663 L 287 1663 L 547 1989 L 985 1989 L 1245 1663 Z" unicode="Û" />
<glyph horiz-adv-x="1513" d="M 1386 508 C 1386 346 1336 216 1237 120 C 1137 23 974 -25 748 -25 C 508 -25 344 23 257 120 C 170 216 127 346 127 508 L 127 1573 L 582 1573 L 582 537 C 582 462 592 403 612 360 C 632 316 678 295 752 295 C 835 295 886 319 904 368 C 922 416 932 473 932 537 L 932 1573 L 1386 1573 L 1386 508 Z M 688 1677 L 336 1677 L 336 1960 L 688 1960 L 688 1677 Z M 1194 1677 L 840 1677 L 840 1960 L 1194 1960 L 1194 1677 Z" unicode="Ü" />
<glyph horiz-adv-x="1366" d="M 1372 1573 L 913 621 L 913 0 L 459 0 L 459 600 L -8 1573 L 479 1573 L 713 1012 L 938 1573 L 1372 1573 Z M 547 1657 L 713 1964 L 1167 1964 L 844 1657 L 547 1657 Z" unicode="Ý" />
<glyph horiz-adv-x="1372" d="M 1323 817 C 1323 643 1270 514 1164 432 C 1058 350 916 309 737 309 L 575 309 L 575 0 L 133 0 L 133 1573 L 575 1573 L 575 1321 L 711 1321 C 896 1321 1044 1281 1156 1203 C 1267 1125 1323 996 1323 817 Z M 889 817 C 889 879 873 928 843 966 C 813 1003 767 1022 707 1022 L 575 1022 L 575 606 L 713 606 C 767 606 810 625 842 665 C 873 704 889 755 889 817 Z" unicode="Þ" />
<glyph horiz-adv-x="1360" d="M 1294 481 C 1294 323 1244 202 1144 118 C 1044 34 908 -8 735 -8 C 711 -8 688 -6 664 -4 C 640 -1 629 0 629 0 L 629 256 C 635 255 641 254 647 254 C 653 254 658 254 664 254 C 724 254 772 276 807 318 C 842 360 860 417 860 489 C 860 555 843 609 809 651 C 775 692 719 713 641 713 L 641 973 C 701 979 739 1005 756 1052 C 773 1098 782 1143 782 1186 C 782 1238 771 1281 749 1315 C 727 1349 697 1366 659 1366 C 614 1366 582 1353 562 1327 C 542 1301 532 1269 532 1229 L 532 0 L 115 0 L 115 1178 C 115 1320 160 1429 252 1505 C 343 1581 481 1620 666 1620 C 858 1620 994 1581 1073 1503 C 1152 1425 1192 1328 1192 1212 C 1192 1123 1172 1048 1134 986 C 1096 924 1047 884 987 868 C 1057 857 1125 820 1193 757 C 1260 694 1294 602 1294 481 Z" unicode="ß" />
<glyph horiz-adv-x="1391" d="M 1214 285 C 1214 251 1221 227 1236 215 C 1250 203 1268 197 1290 197 C 1301 197 1313 198 1325 200 C 1337 202 1349 205 1360 209 L 1374 70 C 1356 51 1325 32 1279 14 C 1233 -4 1179 -14 1116 -14 C 1050 -14 992 -1 944 23 C 896 48 865 90 852 150 C 817 96 766 53 700 21 C 633 -11 555 -27 467 -27 C 342 -27 245 1 175 59 C 105 116 70 202 70 317 C 70 419 105 496 175 548 C 245 600 336 639 446 664 C 543 685 620 705 677 724 C 733 742 774 762 799 784 C 798 839 790 885 775 923 C 759 960 716 979 645 979 C 592 979 554 967 530 944 C 506 920 494 892 494 858 C 494 841 495 829 498 821 C 500 813 503 805 506 799 L 143 764 C 139 772 134 787 130 808 C 125 828 123 850 123 874 C 123 974 169 1053 262 1111 C 355 1169 491 1198 670 1198 C 850 1198 985 1167 1077 1107 C 1168 1046 1214 951 1214 823 L 1214 285 Z M 629 211 C 683 213 723 230 751 261 C 778 292 793 330 795 375 L 795 592 C 782 583 765 574 743 566 C 721 557 699 549 676 543 C 600 521 549 492 523 456 C 496 420 483 380 483 336 C 483 292 497 259 525 239 C 553 218 588 209 629 211 Z M 858 1282 L 561 1282 L 240 1589 L 692 1589 L 858 1282 Z" unicode="à" />
<glyph horiz-adv-x="1391" d="M 1214 285 C 1214 251 1221 227 1236 215 C 1250 203 1268 197 1290 197 C 1301 197 1313 198 1325 200 C 1337 202 1349 205 1360 209 L 1374 70 C 1356 51 1325 32 1279 14 C 1233 -4 1179 -14 1116 -14 C 1050 -14 992 -1 944 23 C 896 48 865 90 852 150 C 817 96 766 53 700 21 C 633 -11 555 -27 467 -27 C 342 -27 245 1 175 59 C 105 116 70 202 70 317 C 70 419 105 496 175 548 C 245 600 336 639 446 664 C 543 685 620 705 677 724 C 733 742 774 762 799 784 C 798 839 790 885 775 923 C 759 960 716 979 645 979 C 592 979 554 967 530 944 C 506 920 494 892 494 858 C 494 841 495 829 498 821 C 500 813 503 805 506 799 L 143 764 C 139 772 134 787 130 808 C 125 828 123 850 123 874 C 123 974 169 1053 262 1111 C 355 1169 491 1198 670 1198 C 850 1198 985 1167 1077 1107 C 1168 1046 1214 951 1214 823 L 1214 285 Z M 629 211 C 683 213 723 230 751 261 C 778 292 793 330 795 375 L 795 592 C 782 583 765 574 743 566 C 721 557 699 549 676 543 C 600 521 549 492 523 456 C 496 420 483 380 483 336 C 483 292 497 259 525 239 C 553 218 588 209 629 211 Z M 514 1282 L 680 1589 L 1135 1589 L 811 1282 L 514 1282 Z" unicode="á" />
<glyph horiz-adv-x="1391" d="M 1214 285 C 1214 251 1221 227 1236 215 C 1250 203 1268 197 1290 197 C 1301 197 1313 198 1325 200 C 1337 202 1349 205 1360 209 L 1374 70 C 1356 51 1325 32 1279 14 C 1233 -4 1179 -14 1116 -14 C 1050 -14 992 -1 944 23 C 896 48 865 90 852 150 C 817 96 766 53 700 21 C 633 -11 555 -27 467 -27 C 342 -27 245 1 175 59 C 105 116 70 202 70 317 C 70 419 105 496 175 548 C 245 600 336 639 446 664 C 543 685 620 705 677 724 C 733 742 774 762 799 784 C 798 839 790 885 775 923 C 759 960 716 979 645 979 C 592 979 554 967 530 944 C 506 920 494 892 494 858 C 494 841 495 829 498 821 C 500 813 503 805 506 799 L 143 764 C 139 772 134 787 130 808 C 125 828 123 850 123 874 C 123 974 169 1053 262 1111 C 355 1169 491 1198 670 1198 C 850 1198 985 1167 1077 1107 C 1168 1046 1214 951 1214 823 L 1214 285 Z M 629 211 C 683 213 723 230 751 261 C 778 292 793 330 795 375 L 795 592 C 782 583 765 574 743 566 C 721 557 699 549 676 543 C 600 521 549 492 523 456 C 496 420 483 380 483 336 C 483 292 497 259 525 239 C 553 218 588 209 629 211 Z M 1151 1282 L 838 1282 L 672 1448 L 506 1282 L 193 1282 L 453 1608 L 891 1608 L 1151 1282 Z" unicode="â" />
<glyph horiz-adv-x="1391" d="M 1214 285 C 1214 251 1221 227 1236 215 C 1250 203 1268 197 1290 197 C 1301 197 1313 198 1325 200 C 1337 202 1349 205 1360 209 L 1374 70 C 1356 51 1325 32 1279 14 C 1233 -4 1179 -14 1116 -14 C 1050 -14 992 -1 944 23 C 896 48 865 90 852 150 C 817 96 766 53 700 21 C 633 -11 555 -27 467 -27 C 342 -27 245 1 175 59 C 105 116 70 202 70 317 C 70 419 105 496 175 548 C 245 600 336 639 446 664 C 543 685 620 705 677 724 C 733 742 774 762 799 784 C 798 839 790 885 775 923 C 759 960 716 979 645 979 C 592 979 554 967 530 944 C 506 920 494 892 494 858 C 494 841 495 829 498 821 C 500 813 503 805 506 799 L 143 764 C 139 772 134 787 130 808 C 125 828 123 850 123 874 C 123 974 169 1053 262 1111 C 355 1169 491 1198 670 1198 C 850 1198 985 1167 1077 1107 C 1168 1046 1214 951 1214 823 L 1214 285 Z M 1075 1450 C 1075 1400 1056 1359 1020 1327 C 984 1295 924 1280 842 1280 C 802 1280 765 1284 731 1293 C 697 1301 667 1311 643 1323 C 622 1331 598 1341 572 1353 C 545 1364 523 1370 506 1370 C 482 1370 466 1361 456 1345 C 446 1328 444 1310 451 1292 L 287 1292 C 274 1306 262 1324 252 1345 C 241 1365 236 1387 236 1411 C 236 1461 253 1503 287 1537 C 321 1570 372 1587 440 1587 C 484 1587 522 1582 552 1573 C 582 1564 608 1555 631 1546 C 660 1534 689 1521 719 1509 C 749 1497 772 1491 788 1491 C 816 1491 836 1498 848 1514 C 860 1530 862 1549 854 1573 L 1024 1573 C 1036 1559 1048 1543 1059 1523 C 1069 1503 1075 1478 1075 1450 Z M 629 211 C 683 213 723 230 751 261 C 778 292 793 330 795 375 L 795 592 C 782 583 765 574 743 566 C 721 557 699 549 676 543 C 600 521 549 492 523 456 C 496 420 483 380 483 336 C 483 292 497 259 525 239 C 553 218 588 209 629 211 Z" unicode="ã" />
<glyph horiz-adv-x="1391" d="M 1214 285 C 1214 251 1221 227 1236 215 C 1250 203 1268 197 1290 197 C 1301 197 1313 198 1325 200 C 1337 202 1349 205 1360 209 L 1374 70 C 1356 51 1325 32 1279 14 C 1233 -4 1179 -14 1116 -14 C 1050 -14 992 -1 944 23 C 896 48 865 90 852 150 C 817 96 766 53 700 21 C 633 -11 555 -27 467 -27 C 342 -27 245 1 175 59 C 105 116 70 202 70 317 C 70 419 105 496 175 548 C 245 600 336 639 446 664 C 543 685 620 705 677 724 C 733 742 774 762 799 784 C 798 839 790 885 775 923 C 759 960 716 979 645 979 C 592 979 554 967 530 944 C 506 920 494 892 494 858 C 494 841 495 829 498 821 C 500 813 503 805 506 799 L 143 764 C 139 772 134 787 130 808 C 125 828 123 850 123 874 C 123 974 169 1053 262 1111 C 355 1169 491 1198 670 1198 C 850 1198 985 1167 1077 1107 C 1168 1046 1214 951 1214 823 L 1214 285 Z M 629 211 C 683 213 723 230 751 261 C 778 292 793 330 795 375 L 795 592 C 782 583 765 574 743 566 C 721 557 699 549 676 543 C 600 521 549 492 523 456 C 496 420 483 380 483 336 C 483 292 497 259 525 239 C 553 218 588 209 629 211 Z M 592 1296 L 240 1296 L 240 1579 L 592 1579 L 592 1296 Z M 1098 1296 L 743 1296 L 743 1579 L 1098 1579 L 1098 1296 Z" unicode="ä" />
<glyph horiz-adv-x="1391" d="M 1214 285 C 1214 251 1221 227 1236 215 C 1250 203 1268 197 1290 197 C 1301 197 1313 198 1325 200 C 1337 202 1349 205 1360 209 L 1374 70 C 1356 51 1325 32 1279 14 C 1233 -4 1179 -14 1116 -14 C 1050 -14 992 -1 944 23 C 896 48 865 90 852 150 C 817 96 766 53 700 21 C 633 -11 555 -27 467 -27 C 342 -27 245 1 175 59 C 105 116 70 202 70 317 C 70 419 105 496 175 548 C 245 600 336 639 446 664 C 543 685 620 705 677 724 C 733 742 774 762 799 784 C 798 839 790 885 775 923 C 759 960 716 979 645 979 C 592 979 554 967 530 944 C 506 920 494 892 494 858 C 494 841 495 829 498 821 C 500 813 503 805 506 799 L 143 764 C 139 772 134 787 130 808 C 125 828 123 850 123 874 C 123 974 169 1053 262 1111 C 355 1169 491 1198 670 1198 C 850 1198 985 1167 1077 1107 C 1168 1046 1214 951 1214 823 L 1214 285 Z M 629 211 C 683 213 723 230 751 261 C 778 292 793 330 795 375 L 795 592 C 782 583 765 574 743 566 C 721 557 699 549 676 543 C 600 521 549 492 523 456 C 496 420 483 380 483 336 C 483 292 497 259 525 239 C 553 218 588 209 629 211 Z M 971 1571 C 971 1494 941 1428 882 1374 C 822 1319 750 1292 666 1292 C 583 1292 512 1319 453 1374 C 394 1428 365 1494 365 1571 C 365 1649 394 1716 453 1771 C 512 1825 583 1853 666 1853 C 750 1853 822 1825 882 1771 C 941 1716 971 1649 971 1571 Z M 797 1571 C 797 1604 784 1633 758 1658 C 732 1683 701 1696 666 1696 C 630 1696 599 1683 574 1658 C 549 1633 537 1604 537 1571 C 537 1539 549 1511 574 1487 C 599 1463 630 1452 666 1452 C 701 1452 732 1463 758 1487 C 784 1511 797 1539 797 1571 Z" unicode="å" />
<glyph horiz-adv-x="1962" d="M 870 156 C 830 94 775 48 704 18 C 633 -11 554 -27 467 -27 C 342 -27 245 1 175 59 C 105 116 70 202 70 317 C 70 419 105 496 175 548 C 245 600 336 639 446 664 C 543 685 620 705 677 724 C 733 742 774 762 799 784 C 798 839 790 885 775 923 C 759 960 716 979 645 979 C 592 979 554 967 530 944 C 506 920 494 892 494 858 C 494 841 495 829 498 821 C 500 813 503 805 506 799 L 143 764 C 139 772 134 787 130 808 C 125 828 123 850 123 874 C 123 974 167 1053 255 1111 C 343 1169 475 1198 651 1198 C 730 1198 800 1186 861 1164 C 921 1141 967 1111 999 1073 C 1035 1109 1081 1139 1139 1163 C 1196 1186 1257 1198 1323 1198 C 1489 1198 1623 1154 1725 1066 C 1827 978 1878 835 1878 639 C 1878 618 1876 596 1874 572 C 1871 548 1868 529 1864 514 L 1133 514 C 1133 410 1151 335 1187 290 C 1223 245 1271 223 1329 223 C 1383 223 1424 234 1453 257 C 1481 280 1497 314 1499 358 C 1499 366 1499 374 1499 382 C 1499 390 1499 396 1499 401 L 1878 383 C 1880 372 1881 361 1881 349 C 1881 337 1882 326 1882 315 C 1878 231 1832 154 1745 82 C 1658 10 1520 -25 1331 -25 C 1224 -25 1133 -10 1059 19 C 985 48 922 94 870 156 Z M 629 211 C 683 213 723 230 749 261 C 775 292 790 330 793 375 C 793 394 793 435 794 498 C 794 560 795 592 795 592 C 782 583 765 574 743 566 C 721 557 699 549 676 543 C 600 521 549 492 523 456 C 496 420 483 380 483 336 C 483 292 497 259 525 239 C 553 218 588 209 629 211 Z M 1133 702 L 1485 702 C 1485 777 1471 838 1445 885 C 1419 932 1377 956 1319 956 C 1259 956 1214 932 1183 886 C 1152 840 1135 778 1133 702 Z" unicode="æ" />
<glyph horiz-adv-x="1255" d="M 1202 348 C 1202 250 1157 164 1068 88 C 978 12 848 -25 676 -25 C 494 -25 347 19 233 108 C 119 196 63 343 63 547 C 63 792 122 962 242 1056 C 362 1150 508 1198 680 1198 C 853 1198 983 1163 1070 1095 C 1156 1027 1200 944 1200 848 C 1200 826 1198 806 1195 787 C 1192 767 1188 751 1184 739 L 809 713 C 811 727 813 742 814 759 C 815 776 815 792 815 807 C 813 845 801 878 780 904 C 758 930 726 944 684 944 C 616 944 566 916 534 861 C 501 806 485 722 485 610 C 485 466 501 368 534 315 C 566 262 618 236 688 236 C 753 236 795 257 814 300 C 832 342 842 387 842 434 C 842 448 841 462 840 474 C 839 486 838 496 838 506 L 1182 494 C 1188 474 1192 451 1196 425 C 1200 399 1202 373 1202 348 Z M 987 -262 C 987 -334 955 -393 892 -439 C 829 -485 732 -508 602 -508 C 517 -508 444 -498 383 -478 C 321 -458 276 -436 248 -412 L 330 -274 C 355 -292 389 -309 433 -325 C 476 -340 528 -348 588 -348 C 626 -348 654 -341 672 -328 C 690 -314 700 -297 700 -276 C 700 -258 692 -242 678 -230 C 664 -217 642 -211 614 -211 C 594 -211 574 -212 552 -215 C 530 -218 512 -223 500 -229 L 547 -53 C 563 -51 582 -48 605 -46 C 628 -44 646 -43 659 -43 C 767 -43 848 -63 904 -104 C 959 -145 987 -198 987 -262 Z" unicode="ç" />
<glyph horiz-adv-x="1307" d="M 676 -25 C 481 -27 330 19 222 115 C 114 211 61 362 61 569 C 61 781 118 939 233 1043 C 348 1146 486 1198 647 1198 C 824 1198 964 1154 1068 1066 C 1171 978 1223 835 1223 639 C 1223 618 1221 596 1219 572 C 1216 548 1212 529 1208 514 L 477 514 C 477 410 495 335 532 290 C 568 245 616 223 674 223 C 722 223 761 236 793 263 C 825 289 842 325 844 369 C 844 377 844 384 844 392 C 844 400 844 406 844 412 L 1223 393 C 1225 383 1226 372 1226 360 C 1226 348 1227 336 1227 326 C 1223 242 1177 164 1090 90 C 1003 16 865 -22 676 -25 Z M 477 702 L 829 702 C 829 778 816 840 790 886 C 764 932 722 956 664 956 C 604 956 559 933 528 888 C 496 843 479 781 477 702 Z M 864 1282 L 567 1282 L 246 1589 L 698 1589 L 864 1282 Z" unicode="è" />
<glyph horiz-adv-x="1307" d="M 676 -25 C 481 -27 330 19 222 115 C 114 211 61 362 61 569 C 61 781 118 939 233 1043 C 348 1146 486 1198 647 1198 C 824 1198 964 1154 1068 1066 C 1171 978 1223 835 1223 639 C 1223 618 1221 596 1219 572 C 1216 548 1212 529 1208 514 L 477 514 C 477 410 495 335 532 290 C 568 245 616 223 674 223 C 722 223 761 236 793 263 C 825 289 842 325 844 369 C 844 377 844 384 844 392 C 844 400 844 406 844 412 L 1223 393 C 1225 383 1226 372 1226 360 C 1226 348 1227 336 1227 326 C 1223 242 1177 164 1090 90 C 1003 16 865 -22 676 -25 Z M 477 702 L 829 702 C 829 778 816 840 790 886 C 764 932 722 956 664 956 C 604 956 559 933 528 888 C 496 843 479 781 477 702 Z M 512 1282 L 678 1589 L 1133 1589 L 809 1282 L 512 1282 Z" unicode="é" />
<glyph horiz-adv-x="1307" d="M 676 -25 C 481 -27 330 19 222 115 C 114 211 61 362 61 569 C 61 781 118 939 233 1043 C 348 1146 486 1198 647 1198 C 824 1198 964 1154 1068 1066 C 1171 978 1223 835 1223 639 C 1223 618 1221 596 1219 572 C 1216 548 1212 529 1208 514 L 477 514 C 477 410 495 335 532 290 C 568 245 616 223 674 223 C 722 223 761 236 793 263 C 825 289 842 325 844 369 C 844 377 844 384 844 392 C 844 400 844 406 844 412 L 1223 393 C 1225 383 1226 372 1226 360 C 1226 348 1227 336 1227 326 C 1223 242 1177 164 1090 90 C 1003 16 865 -22 676 -25 Z M 1161 1282 L 848 1282 L 682 1448 L 516 1282 L 203 1282 L 463 1608 L 901 1608 L 1161 1282 Z M 477 702 L 829 702 C 829 778 816 840 790 886 C 764 932 722 956 664 956 C 604 956 559 933 528 888 C 496 843 479 781 477 702 Z" unicode="ê" />
<glyph horiz-adv-x="1307" d="M 676 -25 C 481 -27 330 19 222 115 C 114 211 61 362 61 569 C 61 781 118 939 233 1043 C 348 1146 486 1198 647 1198 C 824 1198 964 1154 1068 1066 C 1171 978 1223 835 1223 639 C 1223 618 1221 596 1219 572 C 1216 548 1212 529 1208 514 L 477 514 C 477 410 495 335 532 290 C 568 245 616 223 674 223 C 722 223 761 236 793 263 C 825 289 842 325 844 369 C 844 377 844 384 844 392 C 844 400 844 406 844 412 L 1223 393 C 1225 383 1226 372 1226 360 C 1226 348 1227 336 1227 326 C 1223 242 1177 164 1090 90 C 1003 16 865 -22 676 -25 Z M 477 702 L 829 702 C 829 778 816 840 790 886 C 764 932 722 956 664 956 C 604 956 559 933 528 888 C 496 843 479 781 477 702 Z M 610 1296 L 258 1296 L 258 1579 L 610 1579 L 610 1296 Z M 1116 1296 L 762 1296 L 762 1579 L 1116 1579 L 1116 1296 Z" unicode="ë" />
<glyph horiz-adv-x="647" d="M 532 0 L 115 0 L 115 1169 L 532 1169 L 532 0 Z M 487 1282 L 190 1282 L -131 1589 L 322 1589 L 487 1282 Z" unicode="ì" />
<glyph horiz-adv-x="647" d="M 532 0 L 115 0 L 115 1169 L 532 1169 L 532 0 Z M 193 1282 L 358 1589 L 813 1589 L 489 1282 L 193 1282 Z" unicode="í" />
<glyph horiz-adv-x="647" d="M 807 1282 L 494 1282 L 328 1448 L 162 1282 L -152 1282 L 109 1608 L 547 1608 L 807 1282 Z M 532 0 L 115 0 L 115 1169 L 532 1169 L 532 0 Z" unicode="î" />
<glyph horiz-adv-x="647" d="M 254 1296 L -98 1296 L -98 1579 L 254 1579 L 254 1296 Z M 532 0 L 115 0 L 115 1169 L 532 1169 L 532 0 Z M 760 1296 L 406 1296 L 406 1579 L 760 1579 L 760 1296 Z" unicode="ï" />
<glyph horiz-adv-x="1339" d="M 1264 649 C 1264 391 1208 215 1096 121 C 984 27 835 -20 649 -20 C 469 -20 326 25 222 116 C 118 206 66 357 66 567 C 66 761 116 907 218 1005 C 319 1102 455 1151 625 1151 C 663 1151 697 1145 729 1134 C 760 1122 786 1110 807 1096 C 799 1118 784 1147 762 1182 C 740 1216 721 1242 705 1260 L 412 1165 L 324 1284 L 553 1386 C 524 1402 483 1422 430 1446 C 376 1470 335 1486 305 1495 L 367 1659 C 444 1650 526 1632 612 1605 C 698 1578 770 1551 827 1524 L 1026 1597 L 1210 1411 L 1012 1350 C 1075 1267 1133 1172 1185 1066 C 1237 959 1264 820 1264 649 Z M 831 567 C 831 673 819 754 795 809 C 771 863 727 891 662 891 C 606 891 565 863 539 809 C 513 754 500 673 500 567 C 500 472 510 397 531 341 C 551 285 591 258 651 258 C 720 258 767 285 793 341 C 818 396 831 471 831 567 Z" unicode="ð" />
<glyph horiz-adv-x="1403" d="M 1128 1446 C 1128 1396 1109 1355 1073 1323 C 1037 1291 977 1276 895 1276 C 855 1276 818 1280 784 1289 C 750 1297 720 1307 696 1319 C 675 1327 651 1337 625 1349 C 598 1360 576 1366 559 1366 C 535 1366 519 1357 509 1341 C 499 1324 498 1306 504 1288 L 340 1288 C 327 1302 315 1320 305 1341 C 294 1361 289 1383 289 1407 C 289 1457 306 1499 340 1533 C 374 1566 425 1583 494 1583 C 538 1583 575 1578 605 1569 C 635 1560 661 1551 684 1542 C 713 1530 742 1517 772 1505 C 802 1493 825 1487 842 1487 C 870 1487 890 1494 902 1510 C 914 1526 915 1545 907 1569 L 1077 1569 C 1089 1555 1101 1539 1112 1519 C 1122 1499 1128 1474 1128 1446 Z M 115 0 L 115 1169 L 526 1169 L 526 965 C 558 1036 608 1093 674 1135 C 740 1177 825 1198 928 1198 C 1042 1198 1131 1170 1197 1115 C 1263 1060 1296 977 1296 866 L 1296 0 L 877 0 L 877 707 C 877 781 865 831 842 859 C 819 887 781 901 727 901 C 669 901 622 876 586 828 C 550 780 532 708 532 612 L 532 0 L 115 0 Z" unicode="ñ" />
<glyph horiz-adv-x="1366" d="M 61 586 C 61 783 120 934 238 1040 C 356 1145 504 1198 682 1198 C 864 1198 1013 1145 1129 1040 C 1245 934 1303 783 1303 586 C 1303 378 1245 224 1129 124 C 1013 24 864 -25 682 -25 C 504 -25 356 24 238 124 C 120 224 61 378 61 586 Z M 485 590 C 485 457 502 365 537 314 C 571 263 620 238 682 238 C 745 238 794 263 830 314 C 865 365 883 457 883 590 C 883 721 865 813 830 865 C 794 917 745 944 682 944 C 620 944 571 918 537 866 C 502 814 485 722 485 590 Z M 877 1282 L 580 1282 L 258 1589 L 711 1589 L 877 1282 Z" unicode="ò" />
<glyph horiz-adv-x="1366" d="M 61 586 C 61 783 120 934 238 1040 C 356 1145 504 1198 682 1198 C 864 1198 1013 1145 1129 1040 C 1245 934 1303 783 1303 586 C 1303 378 1245 224 1129 124 C 1013 24 864 -25 682 -25 C 504 -25 356 24 238 124 C 120 224 61 378 61 586 Z M 485 590 C 485 457 502 365 537 314 C 571 263 620 238 682 238 C 745 238 794 263 830 314 C 865 365 883 457 883 590 C 883 721 865 813 830 865 C 794 917 745 944 682 944 C 620 944 571 918 537 866 C 502 814 485 722 485 590 Z M 547 1282 L 713 1589 L 1167 1589 L 844 1282 L 547 1282 Z" unicode="ó" />
<glyph horiz-adv-x="1366" d="M 61 586 C 61 783 120 934 238 1040 C 356 1145 504 1198 682 1198 C 864 1198 1013 1145 1129 1040 C 1245 934 1303 783 1303 586 C 1303 378 1245 224 1129 124 C 1013 24 864 -25 682 -25 C 504 -25 356 24 238 124 C 120 224 61 378 61 586 Z M 485 590 C 485 457 502 365 537 314 C 571 263 620 238 682 238 C 745 238 794 263 830 314 C 865 365 883 457 883 590 C 883 721 865 813 830 865 C 794 917 745 944 682 944 C 620 944 571 918 537 866 C 502 814 485 722 485 590 Z M 1167 1282 L 854 1282 L 688 1448 L 522 1282 L 209 1282 L 469 1608 L 907 1608 L 1167 1282 Z" unicode="ô" />
<glyph horiz-adv-x="1366" d="M 1098 1446 C 1098 1396 1079 1355 1043 1323 C 1006 1291 946 1276 864 1276 C 824 1276 787 1280 753 1289 C 719 1297 690 1307 666 1319 C 645 1327 621 1337 594 1349 C 567 1360 545 1366 528 1366 C 504 1366 488 1357 478 1341 C 468 1324 467 1306 473 1288 L 309 1288 C 297 1302 285 1320 274 1341 C 263 1361 258 1383 258 1407 C 258 1457 275 1499 309 1533 C 343 1566 395 1583 463 1583 C 507 1583 544 1578 574 1569 C 604 1560 630 1551 653 1542 C 683 1530 712 1517 742 1505 C 771 1493 794 1487 811 1487 C 839 1487 859 1494 871 1510 C 883 1526 885 1545 877 1569 L 1047 1569 C 1059 1555 1070 1539 1081 1519 C 1092 1499 1098 1474 1098 1446 Z M 61 586 C 61 783 120 934 238 1040 C 356 1145 504 1198 682 1198 C 864 1198 1013 1145 1129 1040 C 1245 934 1303 783 1303 586 C 1303 378 1245 224 1129 124 C 1013 24 864 -25 682 -25 C 504 -25 356 24 238 124 C 120 224 61 378 61 586 Z M 485 590 C 485 457 502 365 537 314 C 571 263 620 238 682 238 C 745 238 794 263 830 314 C 865 365 883 457 883 590 C 883 721 865 813 830 865 C 794 917 745 944 682 944 C 620 944 571 918 537 866 C 502 814 485 722 485 590 Z" unicode="õ" />
<glyph horiz-adv-x="1366" d="M 61 586 C 61 783 120 934 238 1040 C 356 1145 504 1198 682 1198 C 864 1198 1013 1145 1129 1040 C 1245 934 1303 783 1303 586 C 1303 378 1245 224 1129 124 C 1013 24 864 -25 682 -25 C 504 -25 356 24 238 124 C 120 224 61 378 61 586 Z M 485 590 C 485 457 502 365 537 314 C 571 263 620 238 682 238 C 745 238 794 263 830 314 C 865 365 883 457 883 590 C 883 721 865 813 830 865 C 794 917 745 944 682 944 C 620 944 571 918 537 866 C 502 814 485 722 485 590 Z M 612 1296 L 260 1296 L 260 1579 L 612 1579 L 612 1296 Z M 1118 1296 L 764 1296 L 764 1579 L 1118 1579 L 1118 1296 Z" unicode="ö" />
<glyph horiz-adv-x="1366" d="M 682 -25 C 622 -25 566 -19 512 -9 C 458 1 409 18 363 41 C 363 40 350 24 326 -6 C 301 -37 289 -53 289 -53 L 137 61 C 137 61 149 76 173 106 C 197 136 209 152 209 152 C 163 202 126 263 100 335 C 74 407 61 490 61 586 C 61 783 120 934 238 1040 C 356 1145 504 1198 682 1198 C 743 1198 801 1192 855 1180 C 909 1168 960 1150 1006 1128 C 1028 1156 1047 1179 1063 1199 C 1079 1219 1087 1229 1087 1229 L 1227 1118 L 1149 1022 C 1197 970 1235 907 1262 834 C 1289 761 1303 678 1303 586 C 1303 378 1245 224 1129 124 C 1013 24 864 -25 682 -25 Z M 489 494 C 489 494 542 560 650 692 C 758 824 811 891 811 891 C 794 909 775 923 754 931 C 732 939 708 944 682 944 C 620 944 571 918 537 866 C 502 814 485 722 485 590 C 485 572 485 555 486 539 C 487 523 488 508 489 494 Z M 879 684 L 559 285 C 575 268 594 256 614 249 C 634 241 657 238 682 238 C 745 238 794 263 830 314 C 865 365 883 457 883 590 C 883 607 882 623 881 639 C 880 654 879 669 879 684 Z" unicode="ø" />
<glyph horiz-adv-x="1403" d="M 1288 1169 L 1288 0 L 877 0 L 877 205 C 844 133 795 77 730 36 C 665 -4 581 -25 479 -25 C 365 -25 274 4 207 62 C 139 120 106 204 106 315 L 106 1169 L 526 1169 L 526 467 C 526 392 540 340 569 312 C 598 283 640 270 694 272 C 746 274 788 298 821 346 C 853 394 870 465 870 561 L 870 1169 L 1288 1169 Z M 868 1282 L 571 1282 L 250 1589 L 702 1589 L 868 1282 Z" unicode="ù" />
<glyph horiz-adv-x="1403" d="M 1288 1169 L 1288 0 L 877 0 L 877 205 C 844 133 795 77 730 36 C 665 -4 581 -25 479 -25 C 365 -25 274 4 207 62 C 139 120 106 204 106 315 L 106 1169 L 526 1169 L 526 467 C 526 392 540 340 569 312 C 598 283 640 270 694 272 C 746 274 788 298 821 346 C 853 394 870 465 870 561 L 870 1169 L 1288 1169 Z M 543 1282 L 709 1589 L 1163 1589 L 840 1282 L 543 1282 Z" unicode="ú" />
<glyph horiz-adv-x="1403" d="M 1288 1169 L 1288 0 L 877 0 L 877 205 C 844 133 795 77 730 36 C 665 -4 581 -25 479 -25 C 365 -25 274 4 207 62 C 139 120 106 204 106 315 L 106 1169 L 526 1169 L 526 467 C 526 392 540 340 569 312 C 598 283 640 270 694 272 C 746 274 788 298 821 346 C 853 394 870 465 870 561 L 870 1169 L 1288 1169 Z M 1186 1282 L 872 1282 L 707 1448 L 541 1282 L 227 1282 L 487 1608 L 926 1608 L 1186 1282 Z" unicode="û" />
<glyph horiz-adv-x="1403" d="M 1288 1169 L 1288 0 L 877 0 L 877 205 C 844 133 795 77 730 36 C 665 -4 581 -25 479 -25 C 365 -25 274 4 207 62 C 139 120 106 204 106 315 L 106 1169 L 526 1169 L 526 467 C 526 392 540 340 569 312 C 598 283 640 270 694 272 C 746 274 788 298 821 346 C 853 394 870 465 870 561 L 870 1169 L 1288 1169 Z M 631 1296 L 279 1296 L 279 1579 L 631 1579 L 631 1296 Z M 1137 1296 L 782 1296 L 782 1579 L 1137 1579 L 1137 1296 Z" unicode="ü" />
<glyph horiz-adv-x="1270" d="M 1266 1169 L 877 2 C 831 -127 771 -225 697 -292 C 623 -359 509 -393 356 -393 C 224 -393 130 -373 72 -333 C 14 -293 -14 -235 -14 -160 C -14 -143 -12 -128 -8 -114 C -4 -100 0 -86 4 -74 C 4 -74 54 -69 155 -61 C 255 -53 306 -49 307 -49 C 305 -51 302 -57 300 -67 C 297 -77 296 -89 297 -104 C 297 -119 303 -131 314 -140 C 324 -149 340 -154 362 -154 C 386 -154 405 -146 419 -132 C 433 -117 440 -95 440 -66 C 440 -47 438 -29 436 -12 C 434 5 430 20 426 33 L -10 1169 L 451 1169 L 664 444 L 827 1169 L 1266 1169 Z M 504 1282 L 670 1589 L 1124 1589 L 801 1282 L 504 1282 Z" unicode="ý" />
<glyph horiz-adv-x="1421" d="M 115 -369 L 115 1573 L 532 1573 L 532 1006 C 552 1054 591 1098 647 1139 C 703 1179 772 1200 856 1200 C 973 1200 1085 1155 1191 1065 C 1297 975 1350 818 1350 594 C 1350 380 1299 224 1198 128 C 1096 32 976 -16 836 -16 C 757 -16 694 -1 647 27 C 600 55 562 93 532 139 L 532 -369 L 115 -369 Z M 725 242 C 783 242 831 265 870 313 C 908 361 928 451 928 584 C 928 721 909 814 871 862 C 833 910 783 934 719 934 C 659 934 612 908 576 858 C 540 807 522 716 522 586 C 522 463 539 375 574 322 C 609 268 659 242 725 242 Z" unicode="þ" />
<glyph horiz-adv-x="1270" d="M 1266 1169 L 877 2 C 831 -127 771 -225 697 -292 C 623 -359 509 -393 356 -393 C 224 -393 130 -373 72 -333 C 14 -293 -14 -235 -14 -160 C -14 -143 -12 -128 -8 -114 C -4 -100 0 -86 4 -74 C 4 -74 54 -69 155 -61 C 255 -53 306 -49 307 -49 C 305 -51 302 -57 300 -67 C 297 -77 296 -89 297 -104 C 297 -119 303 -131 314 -140 C 324 -149 340 -154 362 -154 C 386 -154 405 -146 419 -132 C 433 -117 440 -95 440 -66 C 440 -47 438 -29 436 -12 C 434 5 430 20 426 33 L -10 1169 L 451 1169 L 664 444 L 827 1169 L 1266 1169 Z M 575 1296 L 223 1296 L 223 1579 L 575 1579 L 575 1296 Z M 1081 1296 L 727 1296 L 727 1579 L 1081 1579 L 1081 1296 Z" unicode="ÿ" />
<glyph horiz-adv-x="647" d="M 532 0 L 115 0 L 115 1169 L 532 1169 L 532 0 Z" unicode="ı" />
<glyph horiz-adv-x="1219" d="M 154 811 L 154 1573 L 608 1573 L 608 1036 L 819 1159 L 948 899 L 608 700 L 608 332 L 1180 332 L 1180 0 L 154 0 L 154 475 L 84 434 L -51 692 L 154 811 Z" unicode="Ł" />
<glyph horiz-adv-x="688" d="M 553 686 L 553 0 L 135 0 L 135 516 L 43 465 L -63 711 L 135 823 L 135 1573 L 553 1573 L 553 999 L 643 1051 L 754 799 L 553 686 Z" unicode="ł" />
<glyph horiz-adv-x="2150" d="M 2097 0 L 1022 0 C 988 -6 952 -12 915 -16 C 877 -20 839 -23 799 -23 C 563 -23 382 41 256 169 C 129 297 66 505 66 793 C 66 1075 136 1279 276 1407 C 416 1535 590 1599 799 1599 C 841 1599 883 1596 923 1592 C 963 1588 1000 1581 1036 1573 L 2046 1573 L 2046 1243 L 1442 1243 L 1442 963 L 1985 963 L 1985 637 L 1442 637 L 1442 340 L 2097 340 L 2097 0 Z M 987 338 L 987 1247 C 972 1260 951 1273 925 1285 C 898 1297 863 1303 821 1303 C 733 1303 665 1262 615 1181 C 565 1100 541 969 541 788 C 541 596 567 462 619 386 C 671 310 738 272 819 272 C 863 272 898 278 925 292 C 951 306 972 321 987 338 Z" unicode="Œ" />
<glyph horiz-adv-x="2118" d="M 1085 1057 C 1132 1105 1190 1141 1259 1164 C 1327 1186 1398 1198 1470 1198 C 1647 1198 1785 1154 1885 1066 C 1984 978 2034 835 2034 639 C 2034 618 2032 596 2030 572 C 2027 548 2023 529 2019 514 L 1288 514 C 1288 410 1306 335 1343 290 C 1379 245 1427 223 1485 223 C 1539 223 1580 234 1609 257 C 1637 280 1653 314 1655 358 C 1655 366 1655 374 1655 382 C 1655 390 1655 396 1655 401 L 2034 383 C 2036 372 2037 361 2037 349 C 2037 337 2038 326 2038 315 C 2034 231 1988 154 1901 82 C 1814 10 1676 -25 1487 -25 C 1402 -25 1325 -14 1256 5 C 1186 25 1126 58 1075 102 C 1024 58 965 25 898 5 C 831 -14 759 -25 682 -25 C 504 -25 356 24 238 124 C 120 224 61 378 61 586 C 61 783 120 934 238 1040 C 356 1145 504 1198 682 1198 C 761 1198 835 1186 905 1162 C 974 1138 1034 1103 1085 1057 Z M 485 590 C 485 457 502 365 537 314 C 571 263 620 238 682 238 C 745 238 794 263 830 314 C 865 365 883 457 883 590 C 883 721 865 813 830 865 C 794 917 745 944 682 944 C 620 944 571 918 537 866 C 502 814 485 722 485 590 Z M 1288 702 L 1640 702 C 1640 777 1627 838 1601 885 C 1575 932 1533 956 1475 956 C 1415 956 1370 933 1339 888 C 1307 842 1290 780 1288 702 Z" unicode="œ" />
<glyph horiz-adv-x="1335" d="M 1278 489 C 1278 323 1225 195 1121 105 C 1016 15 855 -27 637 -25 C 437 -21 293 13 203 80 C 113 146 63 235 55 346 C 53 378 54 407 60 432 C 66 456 71 475 76 487 L 479 514 C 476 501 474 486 472 470 C 470 454 470 437 471 420 C 473 383 490 353 522 329 C 554 305 599 293 657 293 C 721 293 767 304 797 326 C 827 348 842 381 842 424 C 842 454 830 481 806 504 C 782 526 741 548 682 569 L 479 641 C 346 687 245 751 175 832 C 105 912 70 1014 70 1137 C 70 1277 121 1390 223 1476 C 325 1562 471 1604 662 1602 C 838 1599 968 1567 1052 1505 C 1136 1443 1184 1364 1194 1270 C 1196 1249 1196 1228 1196 1207 C 1196 1185 1194 1167 1192 1153 L 795 1122 C 795 1132 795 1144 795 1157 C 795 1170 793 1182 791 1194 C 783 1220 769 1243 747 1261 C 725 1279 687 1288 635 1288 C 589 1288 552 1278 525 1259 C 498 1239 485 1214 485 1184 C 485 1145 496 1114 519 1091 C 541 1067 585 1044 651 1022 L 881 944 C 1003 902 1099 844 1171 770 C 1242 696 1278 602 1278 489 Z M 172 1979 L 485 1979 L 651 1813 L 817 1979 L 1130 1979 L 870 1654 L 432 1654 L 172 1979 Z" unicode="Š" />
<glyph horiz-adv-x="1202" d="M 1137 358 C 1137 241 1094 148 1009 79 C 923 9 788 -25 604 -25 C 424 -25 289 4 201 63 C 112 122 63 197 55 289 C 54 299 54 309 54 319 C 54 329 55 338 57 346 L 420 379 C 419 369 419 359 420 347 C 421 335 423 324 426 313 C 434 283 451 259 477 240 C 503 220 546 211 604 211 C 663 211 705 220 729 240 C 753 259 766 279 766 301 C 766 333 752 355 724 368 C 696 380 656 393 604 406 L 383 459 C 274 485 192 528 137 586 C 82 644 55 728 55 838 C 55 946 106 1033 209 1099 C 312 1165 437 1198 584 1198 C 773 1198 900 1171 965 1118 C 1029 1065 1071 1007 1090 944 C 1092 934 1095 920 1097 903 C 1099 886 1100 870 1100 856 L 772 819 C 771 829 768 841 762 855 C 756 869 750 880 745 889 C 736 904 717 918 689 932 C 660 946 624 953 582 954 C 526 954 486 947 462 933 C 438 918 426 900 426 879 C 426 857 434 840 450 827 C 466 813 501 800 553 788 L 786 733 C 908 704 997 658 1053 594 C 1109 530 1137 451 1137 358 Z M 129 1610 L 442 1610 L 608 1444 L 774 1610 L 1087 1610 L 827 1284 L 389 1284 L 129 1610 Z" unicode="š" />
<glyph horiz-adv-x="1366" d="M 1372 1573 L 913 621 L 913 0 L 459 0 L 459 600 L -8 1573 L 479 1573 L 713 1012 L 938 1573 L 1372 1573 Z M 627 1677 L 274 1677 L 274 1960 L 627 1960 L 627 1677 Z M 1133 1677 L 778 1677 L 778 1960 L 1133 1960 L 1133 1677 Z" unicode="Ÿ" />
<glyph horiz-adv-x="1290" d="M 1233 0 L 51 0 L 51 330 L 719 1243 L 102 1243 L 102 1573 L 1233 1573 L 1233 1245 L 578 340 L 1233 340 L 1233 0 Z M 213 1981 L 526 1981 L 692 1815 L 858 1981 L 1171 1981 L 911 1656 L 473 1656 L 213 1981 Z" unicode="Ž" />
<glyph horiz-adv-x="1167" d="M 1106 0 L 51 0 L 51 295 L 600 893 L 82 893 L 82 1169 L 1106 1169 L 1106 889 L 541 283 L 1106 283 L 1106 0 Z M 131 1610 L 444 1610 L 610 1444 L 776 1610 L 1090 1610 L 829 1284 L 391 1284 L 131 1610 Z" unicode="ž" />
<glyph horiz-adv-x="1249" d="M 1262 1354 C 1264 1314 1259 1277 1249 1245 C 1239 1212 1231 1190 1227 1178 C 1227 1178 1179 1172 1085 1160 C 991 1148 942 1143 938 1143 C 942 1151 947 1168 955 1196 C 962 1223 967 1249 969 1274 C 971 1302 967 1324 959 1338 C 951 1352 938 1360 920 1360 C 894 1360 874 1347 861 1323 C 847 1298 838 1267 834 1231 C 825 1169 816 1102 807 1029 C 797 956 793 920 793 920 L 1049 920 L 1049 700 L 754 700 L 635 -29 C 615 -141 567 -230 489 -297 C 411 -363 297 -397 147 -397 C -7 -397 -114 -368 -172 -312 C -230 -256 -260 -193 -260 -123 C -260 -87 -256 -56 -249 -32 C -241 -8 -235 8 -231 16 L 66 45 C 63 39 59 25 53 4 C 47 -17 45 -41 45 -68 C 44 -94 48 -117 56 -135 C 64 -153 83 -162 111 -162 C 140 -162 160 -148 172 -120 C 184 -92 194 -54 203 -6 L 319 700 L 84 700 L 84 920 L 356 920 L 408 1257 C 426 1369 475 1455 554 1515 C 632 1574 740 1604 877 1604 C 1008 1604 1104 1580 1164 1534 C 1224 1488 1257 1428 1262 1354 Z" unicode="ƒ" />
<glyph horiz-adv-x="639" d="M 119 1272 C 119 1308 122 1344 128 1378 C 134 1412 149 1442 172 1470 C 191 1494 216 1516 247 1534 C 278 1552 308 1566 338 1577 C 358 1583 382 1588 408 1592 C 434 1595 454 1597 469 1597 L 469 1446 C 459 1445 447 1443 435 1440 C 422 1436 409 1431 397 1425 C 379 1416 364 1404 352 1388 C 340 1372 334 1350 334 1323 L 334 1288 L 520 1288 L 520 936 L 119 936 L 119 1272 Z" unicode="ʻ" />
<glyph horiz-adv-x="1188" d="M 1073 1282 L 760 1282 L 594 1448 L 428 1282 L 115 1282 L 375 1608 L 813 1608 L 1073 1282 Z" unicode="ˆ" />
<glyph horiz-adv-x="1188" d="M 115 1608 L 428 1608 L 594 1442 L 760 1608 L 1073 1608 L 813 1282 L 375 1282 L 115 1608 Z" unicode="ˇ" />
<glyph horiz-adv-x="1188" d="M 969 1307 L 217 1307 L 217 1544 L 969 1544 L 969 1307 Z" unicode="ˉ" />
<glyph horiz-adv-x="1188" d="M 997 1604 C 988 1519 956 1442 902 1372 C 847 1302 744 1268 594 1268 C 449 1268 347 1301 289 1369 C 230 1436 196 1514 188 1604 L 453 1604 C 453 1567 466 1537 491 1515 C 515 1492 550 1481 594 1481 C 636 1481 669 1492 693 1515 C 717 1537 730 1567 731 1604 L 997 1604 Z" unicode="˘" />
<glyph horiz-adv-x="1188" d="M 799 1282 L 387 1282 L 387 1610 L 799 1610 L 799 1282 Z" unicode="˙" />
<glyph horiz-adv-x="1188" d="M 897 1509 C 897 1433 867 1367 808 1313 C 748 1258 676 1231 592 1231 C 509 1231 438 1258 379 1313 C 320 1367 291 1433 291 1509 C 291 1587 320 1654 379 1709 C 438 1764 509 1792 592 1792 C 676 1792 748 1764 808 1709 C 867 1654 897 1587 897 1509 Z M 723 1509 C 723 1543 710 1572 684 1597 C 658 1621 628 1634 592 1634 C 556 1634 525 1621 500 1597 C 475 1572 463 1543 463 1509 C 463 1477 475 1450 500 1426 C 525 1402 556 1391 592 1391 C 628 1391 658 1402 684 1426 C 710 1450 723 1477 723 1509 Z" unicode="˚" />
<glyph horiz-adv-x="1188" d="M 862 -250 C 864 -256 865 -264 866 -275 C 866 -286 866 -297 866 -307 C 858 -363 830 -408 784 -443 C 738 -478 669 -496 578 -496 C 484 -496 411 -477 359 -439 C 307 -401 282 -351 283 -287 C 285 -200 320 -135 390 -91 C 460 -47 521 -16 573 0 L 780 0 C 764 -10 720 -38 648 -86 C 576 -134 539 -190 539 -254 C 539 -276 544 -294 555 -306 C 566 -318 582 -324 604 -324 C 624 -324 641 -319 655 -309 C 669 -299 677 -286 680 -272 C 682 -265 683 -257 683 -249 C 683 -240 684 -232 684 -225 L 862 -250 Z" unicode="˛" />
<glyph horiz-adv-x="1188" d="M 1014 1446 C 1014 1396 995 1355 959 1323 C 922 1291 862 1276 780 1276 C 740 1276 703 1280 669 1289 C 635 1297 606 1307 582 1319 C 561 1327 537 1337 510 1349 C 483 1360 461 1366 444 1366 C 420 1366 404 1357 394 1341 C 384 1324 383 1306 389 1288 L 225 1288 C 213 1302 201 1320 190 1341 C 179 1361 174 1383 174 1407 C 174 1457 191 1499 225 1533 C 259 1566 311 1583 379 1583 C 423 1583 460 1578 490 1569 C 520 1560 546 1551 569 1542 C 599 1530 628 1517 658 1505 C 687 1493 710 1487 727 1487 C 755 1487 775 1494 787 1510 C 799 1526 801 1545 793 1569 L 963 1569 C 975 1555 986 1539 997 1519 C 1008 1499 1014 1474 1014 1446 Z" unicode="˜" />
<glyph horiz-adv-x="1188" d="M 778 1589 L 502 1282 L 268 1282 L 397 1589 L 778 1589 Z M 1268 1589 L 958 1282 L 721 1282 L 891 1589 L 1268 1589 Z" unicode="˝" />
<glyph horiz-adv-x="999" d="M 895 516 L 102 516 L 102 844 L 895 844 L 895 516 Z" unicode="‐" />
<glyph horiz-adv-x="999" d="M 895 516 L 102 516 L 102 844 L 895 844 L 895 516 Z" unicode="‑" />
<glyph horiz-adv-x="1296" d="M 1204 516 L 92 516 L 92 844 L 1204 844 L 1204 516 Z" unicode="–" />
<glyph horiz-adv-x="2116" d="M 2023 516 L 92 516 L 92 844 L 2023 844 L 2023 516 Z" unicode="—" />
<glyph horiz-adv-x="639" d="M 119 1272 C 119 1308 122 1344 128 1378 C 134 1412 149 1442 172 1470 C 191 1494 216 1516 247 1534 C 278 1552 308 1566 338 1577 C 358 1583 382 1588 408 1592 C 434 1595 454 1597 469 1597 L 469 1446 C 459 1445 447 1443 435 1440 C 422 1436 409 1431 397 1425 C 379 1416 364 1404 352 1388 C 340 1372 334 1350 334 1323 L 334 1288 L 520 1288 L 520 936 L 119 936 L 119 1272 Z" unicode="‘" />
<glyph horiz-adv-x="639" d="M 520 1237 C 520 1200 516 1165 510 1131 C 504 1097 489 1066 467 1038 C 447 1013 422 992 391 974 C 360 956 330 942 301 932 C 280 925 257 920 231 916 C 205 912 184 911 170 911 L 170 1063 C 180 1063 191 1065 204 1069 C 216 1072 229 1077 242 1083 C 258 1092 273 1104 286 1120 C 298 1136 305 1158 305 1186 L 305 1221 L 119 1221 L 119 1573 L 520 1573 L 520 1237 Z" unicode="’" />
<glyph horiz-adv-x="639" d="M 520 16 C 520 -20 516 -55 510 -89 C 504 -123 489 -154 467 -182 C 447 -206 422 -228 391 -246 C 360 -264 330 -278 301 -289 C 280 -295 257 -300 231 -304 C 205 -307 184 -309 170 -309 L 170 -158 C 180 -157 191 -155 204 -152 C 216 -148 229 -143 242 -137 C 258 -128 273 -116 286 -100 C 298 -84 305 -62 305 -35 L 305 0 L 119 0 L 119 352 L 520 352 L 520 16 Z" unicode="‚" />
<glyph horiz-adv-x="1196" d="M 119 1272 C 119 1308 122 1344 128 1378 C 134 1412 149 1442 172 1470 C 191 1494 216 1516 247 1534 C 278 1552 308 1566 338 1577 C 358 1583 382 1588 408 1592 C 434 1595 454 1597 469 1597 L 469 1446 C 459 1445 447 1443 435 1440 C 422 1436 409 1431 397 1425 C 379 1416 364 1404 352 1388 C 340 1372 334 1350 334 1323 L 334 1288 L 520 1288 L 520 936 L 119 936 L 119 1272 Z M 676 1272 C 676 1308 679 1344 685 1378 C 691 1412 706 1442 729 1470 C 748 1494 773 1516 804 1534 C 835 1552 865 1566 895 1577 C 915 1583 939 1588 965 1592 C 991 1595 1011 1597 1026 1597 L 1026 1446 C 1016 1445 1004 1443 992 1440 C 979 1436 966 1431 954 1425 C 937 1416 922 1404 910 1388 C 897 1372 891 1350 891 1323 L 891 1288 L 1077 1288 L 1077 936 L 676 936 L 676 1272 Z" unicode="“" />
<glyph horiz-adv-x="1196" d="M 520 1237 C 520 1200 516 1165 510 1131 C 504 1097 489 1066 467 1038 C 447 1013 422 992 391 974 C 360 956 330 942 301 932 C 280 925 257 920 231 916 C 205 912 184 911 170 911 L 170 1063 C 180 1063 191 1065 204 1069 C 216 1072 229 1077 242 1083 C 258 1092 273 1104 286 1120 C 298 1136 305 1158 305 1186 L 305 1221 L 119 1221 L 119 1573 L 520 1573 L 520 1237 Z M 1077 1237 C 1077 1200 1073 1165 1067 1131 C 1061 1097 1046 1066 1024 1038 C 1004 1013 979 992 949 974 C 918 956 888 942 858 932 C 837 925 814 920 788 916 C 762 912 741 911 727 911 L 727 1063 C 737 1063 749 1065 761 1069 C 773 1072 786 1077 799 1083 C 816 1092 831 1104 843 1120 C 855 1136 862 1158 862 1186 L 862 1221 L 676 1221 L 676 1573 L 1077 1573 L 1077 1237 Z" unicode="”" />
<glyph horiz-adv-x="1196" d="M 520 16 C 520 -20 516 -55 510 -89 C 504 -123 489 -154 467 -182 C 447 -206 422 -228 391 -246 C 360 -264 330 -278 301 -289 C 280 -295 257 -300 231 -304 C 205 -307 184 -309 170 -309 L 170 -158 C 180 -157 191 -155 204 -152 C 216 -148 229 -143 242 -137 C 258 -128 273 -116 286 -100 C 298 -84 305 -62 305 -35 L 305 0 L 119 0 L 119 352 L 520 352 L 520 16 Z M 1077 16 C 1077 -20 1073 -55 1067 -89 C 1061 -123 1046 -154 1024 -182 C 1004 -206 979 -228 949 -246 C 918 -264 888 -278 858 -289 C 837 -295 814 -300 788 -304 C 762 -307 741 -309 727 -309 L 727 -158 C 737 -157 749 -155 761 -152 C 773 -148 786 -143 799 -137 C 816 -128 831 -116 843 -100 C 855 -84 862 -62 862 -35 L 862 0 L 676 0 L 676 352 L 1077 352 L 1077 16 Z" unicode="„" />
<glyph horiz-adv-x="1081" d="M 1028 885 L 842 885 L 678 922 L 756 678 L 653 -199 L 430 -199 L 328 678 L 406 922 L 242 885 L 53 885 L 53 1186 L 242 1186 L 406 1149 L 338 1370 L 338 1573 L 745 1573 L 745 1370 L 678 1149 L 842 1186 L 1028 1186 L 1028 885 Z" unicode="†" />
<glyph horiz-adv-x="1081" d="M 745 4 L 745 -199 L 338 -199 L 338 4 L 406 166 L 242 129 L 53 129 L 53 430 L 242 430 L 406 393 L 328 688 L 406 983 L 242 946 L 53 946 L 53 1247 L 242 1247 L 406 1210 L 338 1372 L 338 1575 L 745 1575 L 745 1372 L 678 1210 L 842 1247 L 1028 1247 L 1028 946 L 842 946 L 678 983 L 754 688 L 678 393 L 842 430 L 1028 430 L 1028 129 L 842 129 L 678 166 L 745 4 Z" unicode="‡" />
<glyph horiz-adv-x="1141" d="M 1042 752 C 1042 625 995 517 903 427 C 811 337 700 293 571 293 C 440 293 328 337 236 427 C 144 517 98 625 98 752 C 98 878 144 987 236 1077 C 328 1167 440 1212 571 1212 C 700 1212 811 1167 903 1077 C 995 987 1042 878 1042 752 Z" unicode="•" />
<glyph horiz-adv-x="1917" d="M 526 0 L 113 0 L 113 371 L 526 371 L 526 0 Z M 1165 0 L 752 0 L 752 371 L 1165 371 L 1165 0 Z M 1804 0 L 1391 0 L 1391 371 L 1804 371 L 1804 0 Z" unicode="…" />
<glyph horiz-adv-x="3428" d="M 1018 1079 C 1018 911 974 782 886 693 C 798 603 683 559 541 559 C 399 559 283 603 195 692 C 107 781 63 909 63 1077 C 63 1253 104 1384 186 1469 C 268 1554 387 1597 541 1597 C 683 1597 798 1554 886 1470 C 974 1386 1018 1255 1018 1079 Z M 666 1069 C 666 1171 656 1244 637 1286 C 617 1328 587 1350 545 1350 C 499 1350 466 1328 448 1284 C 429 1240 420 1169 420 1069 C 420 982 429 917 449 874 C 468 830 499 809 541 809 C 583 809 615 829 635 869 C 655 909 666 975 666 1069 Z M 2298 498 C 2298 330 2254 201 2166 111 C 2078 21 1963 -23 1821 -23 C 1679 -23 1563 21 1475 111 C 1387 200 1343 328 1343 496 C 1343 672 1384 802 1466 888 C 1548 973 1667 1016 1821 1016 C 1963 1016 2078 973 2166 889 C 2254 804 2298 674 2298 498 Z M 1946 487 C 1946 589 1936 662 1917 704 C 1897 746 1867 768 1825 768 C 1779 768 1746 746 1728 702 C 1709 658 1700 587 1700 487 C 1700 400 1709 335 1729 292 C 1748 248 1779 227 1821 227 C 1863 227 1895 247 1915 287 C 1935 327 1946 393 1946 487 Z M 3363 498 C 3363 330 3319 201 3231 111 C 3143 21 3028 -23 2886 -23 C 2744 -23 2628 21 2540 111 C 2452 200 2408 328 2408 496 C 2408 672 2449 802 2531 888 C 2613 973 2732 1016 2886 1016 C 3028 1016 3143 973 3231 889 C 3319 804 3363 674 3363 498 Z M 3011 487 C 3011 589 3001 662 2982 704 C 2962 746 2932 768 2890 768 C 2844 768 2811 746 2793 702 C 2774 658 2765 587 2765 487 C 2765 400 2774 335 2794 292 C 2813 248 2844 227 2886 227 C 2928 227 2960 247 2980 287 C 3000 327 3011 393 3011 487 Z M 1718 1597 L 872 -25 L 647 -25 L 1493 1597 L 1718 1597 Z" unicode="‰" />
<glyph horiz-adv-x="821" d="M 688 45 L 86 430 L 86 741 L 688 1126 L 688 793 L 342 586 L 688 379 L 688 45 Z" unicode="‹" />
<glyph horiz-adv-x="821" d="M 135 1126 L 737 741 L 737 430 L 135 45 L 135 379 L 481 586 L 135 793 L 135 1126 Z" unicode="›" />
<glyph horiz-adv-x="651" d="M 1155 1651 L -197 -27 L -504 -27 L 848 1651 L 1155 1651 Z" unicode="⁄" />
<glyph horiz-adv-x="1470" d="M 170 727 C 169 745 169 763 169 781 C 169 799 170 816 172 834 L 37 834 L 37 1034 L 197 1034 C 222 1186 282 1318 378 1430 C 473 1541 620 1597 819 1597 C 1029 1597 1174 1548 1256 1451 C 1338 1353 1381 1239 1386 1108 C 1386 1100 1385 1091 1385 1081 C 1385 1071 1384 1063 1384 1057 L 971 1018 C 971 1022 972 1027 972 1034 C 972 1041 973 1048 973 1055 C 972 1129 962 1189 942 1237 C 922 1285 881 1309 819 1309 C 771 1309 732 1286 702 1240 C 672 1194 653 1126 645 1034 L 909 1034 L 909 834 L 623 834 C 622 818 621 800 620 779 C 619 757 619 740 621 727 L 909 727 L 909 522 L 639 522 C 641 450 660 392 696 348 C 732 303 780 281 838 281 C 906 281 956 303 989 347 C 1021 391 1038 452 1038 530 C 1038 537 1037 546 1037 558 C 1036 569 1036 575 1036 575 L 1384 555 C 1388 546 1392 532 1396 514 C 1399 496 1401 476 1401 455 C 1401 309 1357 192 1269 106 C 1181 20 1035 -23 829 -23 C 623 -23 472 23 376 116 C 279 209 216 344 186 522 L 37 522 L 37 727 L 170 727 Z" unicode="€" />
<glyph horiz-adv-x="1802" d="M 1710 786 C 1710 568 1634 385 1483 237 C 1331 89 1137 16 899 16 C 657 16 461 89 313 237 C 164 384 90 567 90 786 C 90 1002 165 1185 317 1333 C 469 1481 663 1556 899 1556 C 1136 1556 1330 1482 1482 1335 C 1634 1187 1710 1004 1710 786 Z M 1546 786 C 1546 961 1488 1108 1372 1227 C 1256 1345 1098 1405 899 1406 C 702 1405 545 1345 427 1226 C 309 1107 250 960 250 786 C 250 610 307 463 422 344 C 537 225 696 166 899 166 C 1101 166 1259 225 1374 343 C 1488 461 1546 608 1546 786 Z M 1319 946 C 1319 853 1290 784 1232 738 C 1174 692 1106 670 1028 670 L 856 670 L 856 362 L 588 362 L 588 1202 L 1012 1202 C 1093 1202 1164 1185 1226 1151 C 1288 1117 1319 1048 1319 946 Z M 1053 936 C 1053 976 1042 1004 1022 1021 C 1002 1038 972 1047 934 1047 L 856 1047 L 856 825 L 942 825 C 974 825 1001 832 1022 848 C 1042 864 1053 893 1053 936 Z" unicode="℗" />
<glyph horiz-adv-x="1737" d="M 1651 885 L 1436 885 L 1436 1341 L 1303 885 L 1141 885 L 997 1341 L 997 885 L 786 885 L 786 1575 L 1096 1575 L 1223 1182 L 1352 1575 L 1651 1575 L 1651 885 Z M 715 1391 L 506 1391 L 506 885 L 246 885 L 246 1391 L 39 1391 L 39 1575 L 715 1575 L 715 1391 Z" unicode="™" />
<glyph horiz-adv-x="1135" d="M 1036 586 L 98 586 L 98 879 L 1036 879 L 1036 586 Z" unicode="−" />
<glyph horiz-adv-x="651" d="M 1155 1651 L -197 -27 L -504 -27 L 848 1651 L 1155 1651 Z" unicode="∕" />
<glyph horiz-adv-x="715" d="M 614 795 C 614 727 589 671 541 627 C 492 583 431 561 358 561 C 286 561 225 583 177 628 C 128 673 104 729 104 795 C 104 864 128 920 178 963 C 228 1006 288 1028 358 1028 C 431 1028 492 1005 541 961 C 589 916 614 861 614 795 Z" unicode="∙" />
<glyph horiz-adv-x="1452" d="M 1589 1726 C 1499 1634 1401 1494 1295 1304 C 1188 1114 1105 951 1047 815 C 967 629 900 456 844 296 C 788 135 743 -21 711 -174 L 477 -268 L 8 504 L 336 643 L 555 158 C 584 272 621 392 667 516 C 713 640 761 759 811 872 C 866 996 927 1119 993 1240 C 1059 1361 1132 1480 1212 1597 L 1589 1726 Z" unicode="√" />
<glyph horiz-adv-x="1325" d="M 1241 662 C 1241 504 1184 368 1071 254 C 957 140 822 84 664 84 C 506 84 370 140 256 254 C 142 368 86 504 86 662 C 86 820 142 955 256 1069 C 370 1182 506 1239 664 1239 C 822 1239 957 1182 1071 1069 C 1184 955 1241 820 1241 662 Z M 1055 633 L 868 780 L 829 999 L 633 868 L 381 922 L 451 719 L 319 518 L 580 522 L 719 350 L 846 553 L 1055 633 Z" unicode="" />
<glyph horiz-adv-x="1520" d="M 971 1513 C 994 1539 1033 1563 1087 1586 C 1141 1608 1204 1620 1276 1620 C 1424 1620 1523 1594 1575 1544 C 1627 1493 1653 1440 1653 1384 C 1653 1361 1651 1340 1648 1322 C 1644 1303 1641 1290 1638 1282 L 1346 1253 C 1350 1262 1353 1274 1356 1290 C 1359 1305 1360 1319 1360 1331 C 1359 1346 1354 1360 1344 1372 C 1334 1384 1318 1391 1298 1391 C 1284 1391 1269 1384 1253 1372 C 1237 1359 1229 1334 1229 1298 C 1229 1267 1232 1241 1240 1219 C 1248 1197 1256 1180 1266 1169 L 1526 1169 L 1526 932 L 1300 932 L 1300 0 L 883 0 L 883 932 L 588 932 L 588 0 L 170 0 L 170 932 L 8 932 L 8 1169 L 172 1169 L 172 1274 C 172 1382 215 1465 302 1524 C 388 1582 493 1612 616 1612 C 718 1612 795 1602 846 1582 C 896 1562 938 1539 971 1513 Z M 887 1282 C 875 1316 852 1342 817 1358 C 782 1374 740 1382 690 1382 C 647 1382 613 1370 589 1347 C 565 1323 553 1293 553 1257 L 553 1169 L 883 1169 L 883 1208 C 883 1223 883 1237 884 1251 C 885 1265 886 1275 887 1282 Z" unicode="ﬀ" />
<glyph horiz-adv-x="1415" d="M 1300 1169 L 1300 0 L 883 0 L 883 932 L 588 932 L 588 0 L 170 0 L 170 932 L 8 932 L 8 1169 L 170 1169 L 170 1280 C 170 1388 210 1472 292 1531 C 373 1590 493 1620 651 1620 C 805 1620 928 1599 1021 1557 C 1113 1515 1163 1446 1169 1350 C 1169 1329 1169 1312 1167 1300 C 1165 1287 1163 1278 1161 1272 L 780 1245 C 782 1249 783 1257 785 1268 C 786 1279 786 1292 786 1307 C 783 1338 773 1360 755 1373 C 737 1386 712 1393 682 1393 C 649 1393 625 1383 610 1364 C 595 1344 588 1322 588 1298 L 588 1169 L 1300 1169 Z" unicode="ﬁ" />
<glyph horiz-adv-x="1415" d="M 883 932 L 588 932 L 588 0 L 170 0 L 170 932 L 8 932 L 8 1169 L 170 1169 L 170 1270 C 170 1370 204 1454 274 1520 C 344 1586 479 1620 680 1620 C 739 1620 794 1615 846 1605 C 897 1595 937 1585 965 1573 L 1300 1573 L 1300 0 L 883 0 L 883 932 Z M 883 1169 L 883 1329 C 869 1346 847 1361 816 1374 C 785 1386 756 1393 729 1393 C 676 1393 639 1381 619 1359 C 598 1336 588 1308 588 1276 L 588 1169 L 883 1169 Z" unicode="ﬂ" />
<glyph horiz-adv-x="2128" d="M 1364 1620 C 1518 1620 1641 1599 1734 1557 C 1826 1515 1876 1446 1882 1350 C 1882 1329 1882 1312 1880 1300 C 1878 1287 1876 1278 1874 1272 L 1493 1245 C 1495 1249 1496 1257 1498 1268 C 1499 1279 1499 1292 1499 1307 C 1496 1338 1486 1360 1468 1373 C 1450 1386 1425 1393 1395 1393 C 1362 1393 1338 1383 1323 1364 C 1307 1344 1300 1322 1300 1298 L 1300 1169 L 2013 1169 L 2013 0 L 1595 0 L 1595 932 L 1300 932 L 1300 0 L 883 0 L 883 932 L 588 932 L 588 0 L 170 0 L 170 932 L 8 932 L 8 1169 L 172 1169 L 172 1274 C 172 1382 215 1465 302 1524 C 388 1582 493 1612 616 1612 C 718 1612 795 1602 846 1583 C 897 1564 941 1539 977 1509 C 1001 1535 1046 1560 1110 1584 C 1174 1608 1259 1620 1364 1620 Z M 887 1282 C 876 1314 853 1338 818 1356 C 782 1373 740 1382 690 1382 C 647 1382 613 1370 589 1347 C 565 1323 553 1293 553 1257 L 553 1169 L 883 1169 L 883 1208 C 883 1223 883 1237 884 1251 C 885 1265 886 1275 887 1282 Z" unicode="ﬃ" />
<glyph horiz-adv-x="2128" d="M 1677 1573 L 2013 1573 L 2013 0 L 1595 0 L 1595 932 L 1300 932 L 1300 0 L 883 0 L 883 932 L 588 932 L 588 0 L 170 0 L 170 932 L 8 932 L 8 1169 L 172 1169 L 172 1274 C 172 1382 215 1465 302 1524 C 388 1582 493 1612 616 1612 C 718 1612 795 1602 846 1583 C 897 1564 941 1539 977 1509 C 1001 1535 1046 1560 1110 1584 C 1174 1608 1259 1620 1364 1620 C 1440 1620 1505 1615 1557 1605 C 1609 1595 1649 1585 1677 1573 Z M 887 1282 C 876 1314 853 1338 818 1356 C 782 1373 740 1382 690 1382 C 647 1382 613 1370 589 1347 C 565 1323 553 1293 553 1257 L 553 1169 L 883 1169 L 883 1208 C 883 1223 883 1237 884 1251 C 885 1265 886 1275 887 1282 Z M 1595 1169 L 1595 1329 C 1582 1346 1560 1361 1529 1374 C 1498 1386 1469 1393 1442 1393 C 1388 1393 1351 1381 1331 1359 C 1310 1336 1300 1308 1300 1276 L 1300 1169 L 1595 1169 Z" unicode="ﬄ" />
</font>
</defs>
</svg>
